<?xml version="1.0" encoding="UTF-8" standalone="no"?>
<svg width="11.2889mm" height="11.2889mm"
 viewBox="0 0 32 32"
 xmlns="http://www.w3.org/2000/svg" xmlns:xlink="http://www.w3.org/1999/xlink"  version="1.2" baseProfile="tiny">
<title>Qt SVG Document</title>
<desc>Generated with Qt</desc>
<defs>
<mask id="patternmask5" x="0" y="0" width="8" height="8" stroke="none" fill="#ffffff" patternUnits="userSpaceOnUse" >
<rect x="1" y="0" width="1" height="1" />
<rect x="3" y="0" width="1" height="1" />
<rect x="5" y="0" width="1" height="1" />
<rect x="7" y="0" width="1" height="1" />
<rect x="0" y="1" width="1" height="1" />
<rect x="2" y="1" width="1" height="1" />
<rect x="4" y="1" width="1" height="1" />
<rect x="6" y="1" width="1" height="1" />
<rect x="1" y="2" width="1" height="1" />
<rect x="3" y="2" width="1" height="1" />
<rect x="5" y="2" width="1" height="1" />
<rect x="7" y="2" width="1" height="1" />
<rect x="0" y="3" width="1" height="1" />
<rect x="2" y="3" width="1" height="1" />
<rect x="4" y="3" width="1" height="1" />
<rect x="6" y="3" width="1" height="1" />
<rect x="1" y="4" width="1" height="1" />
<rect x="3" y="4" width="1" height="1" />
<rect x="5" y="4" width="1" height="1" />
<rect x="7" y="4" width="1" height="1" />
<rect x="0" y="5" width="1" height="1" />
<rect x="2" y="5" width="1" height="1" />
<rect x="4" y="5" width="1" height="1" />
<rect x="6" y="5" width="1" height="1" />
<rect x="1" y="6" width="1" height="1" />
<rect x="3" y="6" width="1" height="1" />
<rect x="5" y="6" width="1" height="1" />
<rect x="7" y="6" width="1" height="1" />
<rect x="0" y="7" width="1" height="1" />
<rect x="2" y="7" width="1" height="1" />
<rect x="4" y="7" width="1" height="1" />
<rect x="6" y="7" width="1" height="1" />
</mask>

<pattern id="fillpattern5_bfd581" x="0" y="0" width="8" height="8" patternUnits="userSpaceOnUse" >
<rect x="0" y="0" width="8" height="8" stroke="none" fill="#bfd581" mask="url(#patternmask5);" />
</pattern>

</defs>
<g fill="none" stroke="black" stroke-width="1" fill-rule="evenodd" stroke-linecap="square" stroke-linejoin="bevel" >

<g fill="url(#fillpattern5_bfd581)" fill-opacity="1" stroke="none" transform="matrix(1,0,0,1,0,0)"
font-family="MS Shell Dlg 2" font-size="8.25" font-weight="400" font-style="normal" 
>
<path vector-effect="none" fill-rule="evenodd" d="M0,0 L32,0 L32,32 L0,32 L0,0"/>
</g>

<g fill="#000000" fill-opacity="1" stroke="#000000" stroke-opacity="1" stroke-width="1" stroke-linecap="square" stroke-linejoin="bevel" transform="matrix(1,0,0,1,0,0)"
font-family="MS Shell Dlg 2" font-size="8.25" font-weight="400" font-style="normal" 
>
<path vector-effect="non-scaling-stroke" fill-rule="evenodd" d="M0.212598,0 C0.212598,0.117415 0.117415,0.212598 0,0.212598 C-0.117415,0.212598 -0.212598,0.117415 -0.212598,0 C-0.212598,-0.117415 -0.117415,-0.212598 0,-0.212598 C0.117415,-0.212598 0.212598,-0.117415 0.212598,0 "/>
<path vector-effect="non-scaling-stroke" fill-rule="evenodd" d="M3.04724,0 C3.04724,0.117415 2.95206,0.212598 2.83465,0.212598 C2.71723,0.212598 2.62205,0.117415 2.62205,0 C2.62205,-0.117415 2.71723,-0.212598 2.83465,-0.212598 C2.95206,-0.212598 3.04724,-0.117415 3.04724,0 "/>
<path vector-effect="non-scaling-stroke" fill-rule="evenodd" d="M5.88189,0 C5.88189,0.117415 5.78671,0.212598 5.66929,0.212598 C5.55188,0.212598 5.45669,0.117415 5.45669,0 C5.45669,-0.117415 5.55188,-0.212598 5.66929,-0.212598 C5.78671,-0.212598 5.88189,-0.117415 5.88189,0 "/>
<path vector-effect="non-scaling-stroke" fill-rule="evenodd" d="M8.71654,0 C8.71654,0.117415 8.62135,0.212598 8.50394,0.212598 C8.38652,0.212598 8.29134,0.117415 8.29134,0 C8.29134,-0.117415 8.38652,-0.212598 8.50394,-0.212598 C8.62135,-0.212598 8.71654,-0.117415 8.71654,0 "/>
<path vector-effect="non-scaling-stroke" fill-rule="evenodd" d="M11.5512,0 C11.5512,0.117415 11.456,0.212598 11.3386,0.212598 C11.2212,0.212598 11.126,0.117415 11.126,0 C11.126,-0.117415 11.2212,-0.212598 11.3386,-0.212598 C11.456,-0.212598 11.5512,-0.117415 11.5512,0 "/>
<path vector-effect="non-scaling-stroke" fill-rule="evenodd" d="M14.3858,0 C14.3858,0.117415 14.2906,0.212598 14.1732,0.212598 C14.0558,0.212598 13.9606,0.117415 13.9606,0 C13.9606,-0.117415 14.0558,-0.212598 14.1732,-0.212598 C14.2906,-0.212598 14.3858,-0.117415 14.3858,0 "/>
<path vector-effect="non-scaling-stroke" fill-rule="evenodd" d="M17.2205,0 C17.2205,0.117415 17.1253,0.212598 17.0079,0.212598 C16.8905,0.212598 16.7953,0.117415 16.7953,0 C16.7953,-0.117415 16.8905,-0.212598 17.0079,-0.212598 C17.1253,-0.212598 17.2205,-0.117415 17.2205,0 "/>
<path vector-effect="non-scaling-stroke" fill-rule="evenodd" d="M20.0551,0 C20.0551,0.117415 19.9599,0.212598 19.8425,0.212598 C19.7251,0.212598 19.6299,0.117415 19.6299,0 C19.6299,-0.117415 19.7251,-0.212598 19.8425,-0.212598 C19.9599,-0.212598 20.0551,-0.117415 20.0551,0 "/>
<path vector-effect="non-scaling-stroke" fill-rule="evenodd" d="M22.8898,0 C22.8898,0.117415 22.7946,0.212598 22.6772,0.212598 C22.5598,0.212598 22.4646,0.117415 22.4646,0 C22.4646,-0.117415 22.5598,-0.212598 22.6772,-0.212598 C22.7946,-0.212598 22.8898,-0.117415 22.8898,0 "/>
<path vector-effect="non-scaling-stroke" fill-rule="evenodd" d="M25.7244,0 C25.7244,0.117415 25.6292,0.212598 25.5118,0.212598 C25.3944,0.212598 25.2992,0.117415 25.2992,0 C25.2992,-0.117415 25.3944,-0.212598 25.5118,-0.212598 C25.6292,-0.212598 25.7244,-0.117415 25.7244,0 "/>
<path vector-effect="non-scaling-stroke" fill-rule="evenodd" d="M28.5591,0 C28.5591,0.117415 28.4639,0.212598 28.3465,0.212598 C28.229,0.212598 28.1339,0.117415 28.1339,0 C28.1339,-0.117415 28.229,-0.212598 28.3465,-0.212598 C28.4639,-0.212598 28.5591,-0.117415 28.5591,0 "/>
<path vector-effect="non-scaling-stroke" fill-rule="evenodd" d="M31,0.393701 C30.8826,0.393701 30.7874,0.298517 30.7874,0.181102 C30.7874,0.0636875 30.8826,-0.0314961 31,-0.0314961 C31.1174,-0.0314961 31.2126,0.0636875 31.2126,0.181102 C31.2126,0.298517 31.1174,0.393701 31,0.393701 "/>
<path vector-effect="non-scaling-stroke" fill-rule="evenodd" d="M31,3.22835 C30.8826,3.22835 30.7874,3.13316 30.7874,3.01575 C30.7874,2.89833 30.8826,2.80315 31,2.80315 C31.1174,2.80315 31.2126,2.89833 31.2126,3.01575 C31.2126,3.13316 31.1174,3.22835 31,3.22835 "/>
<path vector-effect="non-scaling-stroke" fill-rule="evenodd" d="M31,6.06299 C30.8826,6.06299 30.7874,5.96781 30.7874,5.85039 C30.7874,5.73298 30.8826,5.6378 31,5.6378 C31.1174,5.6378 31.2126,5.73298 31.2126,5.85039 C31.2126,5.96781 31.1174,6.06299 31,6.06299 "/>
<path vector-effect="non-scaling-stroke" fill-rule="evenodd" d="M31,8.89764 C30.8826,8.89764 30.7874,8.80245 30.7874,8.68504 C30.7874,8.56762 30.8826,8.47244 31,8.47244 C31.1174,8.47244 31.2126,8.56762 31.2126,8.68504 C31.2126,8.80245 31.1174,8.89764 31,8.89764 "/>
<path vector-effect="non-scaling-stroke" fill-rule="evenodd" d="M31,11.7323 C30.8826,11.7323 30.7874,11.6371 30.7874,11.5197 C30.7874,11.4023 30.8826,11.3071 31,11.3071 C31.1174,11.3071 31.2126,11.4023 31.2126,11.5197 C31.2126,11.6371 31.1174,11.7323 31,11.7323 "/>
<path vector-effect="non-scaling-stroke" fill-rule="evenodd" d="M31,14.5669 C30.8826,14.5669 30.7874,14.4717 30.7874,14.3543 C30.7874,14.2369 30.8826,14.1417 31,14.1417 C31.1174,14.1417 31.2126,14.2369 31.2126,14.3543 C31.2126,14.4717 31.1174,14.5669 31,14.5669 "/>
<path vector-effect="non-scaling-stroke" fill-rule="evenodd" d="M31,17.4016 C30.8826,17.4016 30.7874,17.3064 30.7874,17.189 C30.7874,17.0716 30.8826,16.9764 31,16.9764 C31.1174,16.9764 31.2126,17.0716 31.2126,17.189 C31.2126,17.3064 31.1174,17.4016 31,17.4016 "/>
<path vector-effect="non-scaling-stroke" fill-rule="evenodd" d="M31,20.2362 C30.8826,20.2362 30.7874,20.141 30.7874,20.0236 C30.7874,19.9062 30.8826,19.811 31,19.811 C31.1174,19.811 31.2126,19.9062 31.2126,20.0236 C31.2126,20.141 31.1174,20.2362 31,20.2362 "/>
<path vector-effect="non-scaling-stroke" fill-rule="evenodd" d="M31,23.0709 C30.8826,23.0709 30.7874,22.9757 30.7874,22.8583 C30.7874,22.7409 30.8826,22.6457 31,22.6457 C31.1174,22.6457 31.2126,22.7409 31.2126,22.8583 C31.2126,22.9757 31.1174,23.0709 31,23.0709 "/>
<path vector-effect="non-scaling-stroke" fill-rule="evenodd" d="M31,25.9055 C30.8826,25.9055 30.7874,25.8103 30.7874,25.6929 C30.7874,25.5755 30.8826,25.4803 31,25.4803 C31.1174,25.4803 31.2126,25.5755 31.2126,25.6929 C31.2126,25.8103 31.1174,25.9055 31,25.9055 "/>
<path vector-effect="non-scaling-stroke" fill-rule="evenodd" d="M31,28.7402 C30.8826,28.7402 30.7874,28.645 30.7874,28.5276 C30.7874,28.4101 30.8826,28.315 31,28.315 C31.1174,28.315 31.2126,28.4101 31.2126,28.5276 C31.2126,28.645 31.1174,28.7402 31,28.7402 "/>
<path vector-effect="non-scaling-stroke" fill-rule="evenodd" d="M30.4252,31 C30.4252,30.8826 30.5204,30.7874 30.6378,30.7874 C30.7552,30.7874 30.8504,30.8826 30.8504,31 C30.8504,31.1174 30.7552,31.2126 30.6378,31.2126 C30.5204,31.2126 30.4252,31.1174 30.4252,31 "/>
<path vector-effect="non-scaling-stroke" fill-rule="evenodd" d="M27.5906,31 C27.5906,30.8826 27.6857,30.7874 27.8031,30.7874 C27.9206,30.7874 28.0157,30.8826 28.0157,31 C28.0157,31.1174 27.9206,31.2126 27.8031,31.2126 C27.6857,31.2126 27.5906,31.1174 27.5906,31 "/>
<path vector-effect="non-scaling-stroke" fill-rule="evenodd" d="M24.7559,31 C24.7559,30.8826 24.8511,30.7874 24.9685,30.7874 C25.0859,30.7874 25.1811,30.8826 25.1811,31 C25.1811,31.1174 25.0859,31.2126 24.9685,31.2126 C24.8511,31.2126 24.7559,31.1174 24.7559,31 "/>
<path vector-effect="non-scaling-stroke" fill-rule="evenodd" d="M21.9213,31 C21.9213,30.8826 22.0164,30.7874 22.1339,30.7874 C22.2513,30.7874 22.3465,30.8826 22.3465,31 C22.3465,31.1174 22.2513,31.2126 22.1339,31.2126 C22.0164,31.2126 21.9213,31.1174 21.9213,31 "/>
<path vector-effect="non-scaling-stroke" fill-rule="evenodd" d="M19.0866,31 C19.0866,30.8826 19.1818,30.7874 19.2992,30.7874 C19.4166,30.7874 19.5118,30.8826 19.5118,31 C19.5118,31.1174 19.4166,31.2126 19.2992,31.2126 C19.1818,31.2126 19.0866,31.1174 19.0866,31 "/>
<path vector-effect="non-scaling-stroke" fill-rule="evenodd" d="M16.252,31 C16.252,30.8826 16.3472,30.7874 16.4646,30.7874 C16.582,30.7874 16.6772,30.8826 16.6772,31 C16.6772,31.1174 16.582,31.2126 16.4646,31.2126 C16.3472,31.2126 16.252,31.1174 16.252,31 "/>
<path vector-effect="non-scaling-stroke" fill-rule="evenodd" d="M13.4173,31 C13.4173,30.8826 13.5125,30.7874 13.6299,30.7874 C13.7473,30.7874 13.8425,30.8826 13.8425,31 C13.8425,31.1174 13.7473,31.2126 13.6299,31.2126 C13.5125,31.2126 13.4173,31.1174 13.4173,31 "/>
<path vector-effect="non-scaling-stroke" fill-rule="evenodd" d="M10.5827,31 C10.5827,30.8826 10.6779,30.7874 10.7953,30.7874 C10.9127,30.7874 11.0079,30.8826 11.0079,31 C11.0079,31.1174 10.9127,31.2126 10.7953,31.2126 C10.6779,31.2126 10.5827,31.1174 10.5827,31 "/>
<path vector-effect="non-scaling-stroke" fill-rule="evenodd" d="M7.74803,31 C7.74803,30.8826 7.84322,30.7874 7.96063,30.7874 C8.07804,30.7874 8.17323,30.8826 8.17323,31 C8.17323,31.1174 8.07804,31.2126 7.96063,31.2126 C7.84322,31.2126 7.74803,31.1174 7.74803,31 "/>
<path vector-effect="non-scaling-stroke" fill-rule="evenodd" d="M4.91339,31 C4.91339,30.8826 5.00857,30.7874 5.12598,30.7874 C5.2434,30.7874 5.33858,30.8826 5.33858,31 C5.33858,31.1174 5.2434,31.2126 5.12598,31.2126 C5.00857,31.2126 4.91339,31.1174 4.91339,31 "/>
<path vector-effect="non-scaling-stroke" fill-rule="evenodd" d="M2.07874,31 C2.07874,30.8826 2.17392,30.7874 2.29134,30.7874 C2.40875,30.7874 2.50394,30.8826 2.50394,31 C2.50394,31.1174 2.40875,31.2126 2.29134,31.2126 C2.17392,31.2126 2.07874,31.1174 2.07874,31 "/>
<path vector-effect="non-scaling-stroke" fill-rule="evenodd" d="M0,30.2441 C0.117415,30.2441 0.212598,30.3393 0.212598,30.4567 C0.212598,30.5741 0.117415,30.6693 0,30.6693 C-0.117415,30.6693 -0.212598,30.5741 -0.212598,30.4567 C-0.212598,30.3393 -0.117415,30.2441 0,30.2441 "/>
<path vector-effect="non-scaling-stroke" fill-rule="evenodd" d="M0,27.4094 C0.117415,27.4094 0.212598,27.5046 0.212598,27.622 C0.212598,27.7395 0.117415,27.8346 0,27.8346 C-0.117415,27.8346 -0.212598,27.7395 -0.212598,27.622 C-0.212598,27.5046 -0.117415,27.4094 0,27.4094 "/>
<path vector-effect="non-scaling-stroke" fill-rule="evenodd" d="M0,24.5748 C0.117415,24.5748 0.212598,24.67 0.212598,24.7874 C0.212598,24.9048 0.117415,25 0,25 C-0.117415,25 -0.212598,24.9048 -0.212598,24.7874 C-0.212598,24.67 -0.117415,24.5748 0,24.5748 "/>
<path vector-effect="non-scaling-stroke" fill-rule="evenodd" d="M0,21.7402 C0.117415,21.7402 0.212598,21.8353 0.212598,21.9528 C0.212598,22.0702 0.117415,22.1654 0,22.1654 C-0.117415,22.1654 -0.212598,22.0702 -0.212598,21.9528 C-0.212598,21.8353 -0.117415,21.7402 0,21.7402 "/>
<path vector-effect="non-scaling-stroke" fill-rule="evenodd" d="M0,18.9055 C0.117415,18.9055 0.212598,19.0007 0.212598,19.1181 C0.212598,19.2355 0.117415,19.3307 0,19.3307 C-0.117415,19.3307 -0.212598,19.2355 -0.212598,19.1181 C-0.212598,19.0007 -0.117415,18.9055 0,18.9055 "/>
<path vector-effect="non-scaling-stroke" fill-rule="evenodd" d="M0,16.0709 C0.117415,16.0709 0.212598,16.166 0.212598,16.2835 C0.212598,16.4009 0.117415,16.4961 0,16.4961 C-0.117415,16.4961 -0.212598,16.4009 -0.212598,16.2835 C-0.212598,16.166 -0.117415,16.0709 0,16.0709 "/>
<path vector-effect="non-scaling-stroke" fill-rule="evenodd" d="M0,13.2362 C0.117415,13.2362 0.212598,13.3314 0.212598,13.4488 C0.212598,13.5662 0.117415,13.6614 0,13.6614 C-0.117415,13.6614 -0.212598,13.5662 -0.212598,13.4488 C-0.212598,13.3314 -0.117415,13.2362 0,13.2362 "/>
<path vector-effect="non-scaling-stroke" fill-rule="evenodd" d="M0,10.4016 C0.117415,10.4016 0.212598,10.4968 0.212598,10.6142 C0.212598,10.7316 0.117415,10.8268 0,10.8268 C-0.117415,10.8268 -0.212598,10.7316 -0.212598,10.6142 C-0.212598,10.4968 -0.117415,10.4016 0,10.4016 "/>
<path vector-effect="non-scaling-stroke" fill-rule="evenodd" d="M0,7.56693 C0.117415,7.56693 0.212598,7.66211 0.212598,7.77953 C0.212598,7.89694 0.117415,7.99213 0,7.99213 C-0.117415,7.99213 -0.212598,7.89694 -0.212598,7.77953 C-0.212598,7.66211 -0.117415,7.56693 0,7.56693 "/>
<path vector-effect="non-scaling-stroke" fill-rule="evenodd" d="M0,4.73228 C0.117415,4.73228 0.212598,4.82747 0.212598,4.94488 C0.212598,5.0623 0.117415,5.15748 0,5.15748 C-0.117415,5.15748 -0.212598,5.0623 -0.212598,4.94488 C-0.212598,4.82747 -0.117415,4.73228 0,4.73228 "/>
<path vector-effect="non-scaling-stroke" fill-rule="evenodd" d="M0,1.89764 C0.117415,1.89764 0.212598,1.99282 0.212598,2.11024 C0.212598,2.22765 0.117415,2.32283 0,2.32283 C-0.117415,2.32283 -0.212598,2.22765 -0.212598,2.11024 C-0.212598,1.99282 -0.117415,1.89764 0,1.89764 "/>
</g>

<g fill="url(#fillpattern5_bfd581)" fill-opacity="1" stroke="none" transform="matrix(1,0,0,1,0,0)"
font-family="MS Shell Dlg 2" font-size="8.25" font-weight="400" font-style="normal" 
>
</g>

<g stroke="none" transform="matrix(1,0,0,1,0,0)"
font-family="MS Shell Dlg 2" font-size="8.25" font-weight="400" font-style="normal" 
>
<path vector-effect="none" fill-rule="evenodd" d="M0,0 L32,0 L32,32 L0,32 L0,0"/>
</g>

<g fill="none" stroke="none" transform="matrix(1,0,0,1,0,0)"
font-family="MS Shell Dlg 2" font-size="8.25" font-weight="400" font-style="normal" 
>
<path vector-effect="none" fill-rule="evenodd" d="M0,0 L32,0 L32,32 L0,32 L0,0"/>
</g>
</g>
</svg>
