<?xml version="1.0" encoding="UTF-8" standalone="no"?>
<svg width="11.2889mm" height="11.2889mm"
 viewBox="0 0 32 32"
 xmlns="http://www.w3.org/2000/svg" xmlns:xlink="http://www.w3.org/1999/xlink"  version="1.2" baseProfile="tiny">
<title>Qt SVG Document</title>
<desc>Generated with Qt</desc>
<defs>
</defs>
<g fill="none" stroke="black" stroke-width="1" fill-rule="evenodd" stroke-linecap="square" stroke-linejoin="bevel" >

<g fill="#1f78b4" fill-opacity="1" stroke="none" transform="matrix(1,0,0,1,0,0)"
font-family="MS Shell Dlg 2" font-size="8.25" font-weight="400" font-style="normal" 
>
<path vector-effect="none" fill-rule="evenodd" d="M21.402,17.114 C21.402,17.87 21.2597,18.5817 20.975,19.249 C20.6903,19.9163 20.2983,20.4973 19.799,20.992 C19.2997,21.4867 18.7163,21.8763 18.049,22.161 C17.3817,22.4457 16.67,22.588 15.914,22.588 C15.158,22.588 14.4463,22.4457 13.779,22.161 C13.1117,21.8763 12.5307,21.4867 12.036,20.992 C11.5413,20.4973 11.1517,19.9163 10.867,19.249 C10.5823,18.5817 10.44,17.87 10.44,17.114 C10.44,16.358 10.5823,15.6463 10.867,14.979 C11.1517,14.3117 11.5413,13.7283 12.036,13.229 C12.5307,12.7297 13.1117,12.3377 13.779,12.053 C14.4463,11.7683 15.158,11.626 15.914,11.626 C16.67,11.626 17.3817,11.7683 18.049,12.053 C18.7163,12.3377 19.2997,12.7297 19.799,13.229 C20.2983,13.7283 20.6903,14.3117 20.975,14.979 C21.2597,15.6463 21.402,16.358 21.402,17.114 "/>
</g>

<g fill="#1f78b4" fill-opacity="1" stroke="none" transform="matrix(1,0,0,1,0,0)"
font-family="MS Shell Dlg 2" font-size="8.25" font-weight="400" font-style="normal" 
>
</g>

<g fill="#ffffff" fill-opacity="1" stroke="none" transform="matrix(1,0,0,1,0,0)"
font-family="MS Shell Dlg 2" font-size="8.25" font-weight="400" font-style="normal" 
>
<path vector-effect="none" fill-rule="evenodd" d="M18.512,13.801 L18.512,14.12 L12.935,16.199 L12.935,15.891 L18.512,13.801 M14.992,14.879 C14.8893,14.879 14.7977,14.8405 14.717,14.7635 C14.6363,14.6865 14.596,14.5967 14.596,14.494 C14.596,14.3913 14.6363,14.3033 14.717,14.23 C14.7977,14.1567 14.8893,14.12 14.992,14.12 C15.102,14.12 15.1937,14.1567 15.267,14.23 C15.3403,14.3033 15.377,14.3913 15.377,14.494 C15.377,14.5967 15.3403,14.6865 15.267,14.7635 C15.1937,14.8405 15.102,14.879 14.992,14.879 M17.654,16.606 C17.7127,16.606 17.7658,16.628 17.8135,16.672 C17.8612,16.716 17.885,16.7783 17.885,16.859 L17.885,19.433 C17.885,19.4917 17.8612,19.5448 17.8135,19.5925 C17.7658,19.6402 17.7127,19.664 17.654,19.664 L13.98,19.664 C13.9067,19.664 13.8462,19.6402 13.7985,19.5925 C13.7508,19.5448 13.727,19.4917 13.727,19.433 L13.727,16.859 C13.727,16.7783 13.7508,16.716 13.7985,16.672 C13.8462,16.628 13.9067,16.606 13.98,16.606 L15.52,16.606 L15.52,15.385 L15.949,15.209 L16.07,16.606 L17.654,16.606 M15.674,17.189 C15.674,17.1597 15.6612,17.1322 15.6355,17.1065 C15.6098,17.0808 15.5787,17.068 15.542,17.068 L14.178,17.068 C14.1413,17.068 14.1102,17.0808 14.0845,17.1065 C14.0588,17.1322 14.046,17.1597 14.046,17.189 L14.046,17.992 C14.046,18.036 14.0588,18.0727 14.0845,18.102 C14.1102,18.1313 14.1413,18.146 14.178,18.146 L15.542,18.146 C15.5787,18.146 15.6098,18.1313 15.6355,18.102 C15.6612,18.0727 15.674,18.036 15.674,17.992 L15.674,17.189 M17.566,17.189 C17.566,17.0937 17.5257,17.046 17.445,17.046 L16.136,17.046 C16.0993,17.046 16.0682,17.0607 16.0425,17.09 C16.0168,17.1193 16.004,17.1523 16.004,17.189 L16.004,17.992 C16.004,18.0287 16.0168,18.0598 16.0425,18.0855 C16.0682,18.1112 16.0993,18.124 16.136,18.124 L17.445,18.124 C17.4817,18.124 17.511,18.1112 17.533,18.0855 C17.555,18.0598 17.566,18.0287 17.566,17.992 L17.566,17.189 M16.301,14.428 C16.1983,14.428 16.1103,14.3913 16.037,14.318 C15.9637,14.2447 15.927,14.1493 15.927,14.032 C15.927,13.9293 15.9637,13.8395 16.037,13.7625 C16.1103,13.6855 16.1983,13.647 16.301,13.647 C16.4037,13.647 16.4935,13.6855 16.5705,13.7625 C16.6475,13.8395 16.686,13.9293 16.686,14.032 C16.686,14.1493 16.6475,14.2447 16.5705,14.318 C16.4935,14.3913 16.4037,14.428 16.301,14.428 "/>
</g>

<g fill="#ffffff" fill-opacity="1" stroke="none" transform="matrix(1,0,0,1,0,0)"
font-family="MS Shell Dlg 2" font-size="8.25" font-weight="400" font-style="normal" 
>
</g>
</g>
</svg>
