<?xml version="1.0" encoding="UTF-8" standalone="no"?>
<svg width="11.2889mm" height="11.2889mm"
 viewBox="0 0 32 32"
 xmlns="http://www.w3.org/2000/svg" xmlns:xlink="http://www.w3.org/1999/xlink"  version="1.2" baseProfile="tiny">
<title>Qt SVG Document</title>
<desc>Generated with Qt</desc>
<defs>
</defs>
<g fill="none" stroke="black" stroke-width="1" fill-rule="evenodd" stroke-linecap="square" stroke-linejoin="bevel" >

<g fill="#53a54f" fill-opacity="1" stroke="none" transform="matrix(1,0,0,1,0,0)"
font-family="MS Shell Dlg 2" font-size="8.25" font-weight="400" font-style="normal" 
>
<path vector-effect="non-scaling-stroke" fill-rule="evenodd" d="M21.6693,16 C21.6693,19.1311 19.1311,21.6693 16,21.6693 C12.8689,21.6693 10.3307,19.1311 10.3307,16 C10.3307,12.8689 12.8689,10.3307 16,10.3307 C19.1311,10.3307 21.6693,12.8689 21.6693,16 "/>
</g>

<g fill="#ffffff" fill-opacity="0.94902" stroke="none" transform="matrix(1,0,0,1,0,0)"
font-family="MS Shell Dlg 2" font-size="8.25" font-weight="400" font-style="normal" 
>
<path vector-effect="none" fill-rule="evenodd" d="M13.492,15.07 L18.308,15.07 L18.308,18.444 L13.492,18.444 L13.492,15.07 M14.878,15.448 C14.7287,15.448 14.6003,15.5 14.493,15.6041 C14.3857,15.7081 14.332,15.8358 14.332,15.987 C14.332,16.1382 14.3857,16.2659 14.493,16.3699 C14.6003,16.474 14.7287,16.526 14.878,16.526 C15.0273,16.526 15.1533,16.474 15.256,16.3699 C15.3587,16.2659 15.41,16.1382 15.41,15.987 C15.41,15.8358 15.3587,15.7081 15.256,15.6041 C15.1533,15.5 15.0273,15.448 14.878,15.448 M14.304,17.926 C14.136,17.8793 14.01,17.8677 13.926,17.891 C13.842,17.9143 13.7813,17.954 13.744,18.01 C13.7067,18.0753 13.6833,18.1547 13.674,18.248 L18.098,18.248 L18.098,17.212 L17.776,17.058 L17.328,17.366 L16.46,16.806 L15.312,17.926 C15.2467,17.9633 15.1627,17.9913 15.06,18.01 C14.976,18.0287 14.8687,18.0333 14.738,18.024 C14.6073,18.0147 14.4627,17.982 14.304,17.926 M18.476,14.538 C18.5973,14.538 18.7,14.5777 18.784,14.657 C18.868,14.7363 18.91,14.8367 18.91,14.958 L18.91,18.584 C18.91,18.696 18.868,18.794 18.784,18.878 C18.7,18.962 18.5973,19.004 18.476,19.004 L13.338,19.004 C13.2167,19.004 13.114,18.962 13.03,18.878 C12.946,18.794 12.904,18.696 12.904,18.584 L12.904,14.958 C12.904,14.8367 12.946,14.7363 13.03,14.657 C13.114,14.5777 13.2167,14.538 13.338,14.538 L18.476,14.538 M18.63,14.944 C18.63,14.8413 18.5787,14.79 18.476,14.79 L13.338,14.79 C13.2353,14.79 13.184,14.8413 13.184,14.944 L13.184,18.57 C13.184,18.6727 13.2353,18.724 13.338,18.724 L18.476,18.724 C18.5787,18.724 18.63,18.6727 18.63,18.57 L18.63,14.944 M15.732,14.258 L15.298,14.258 L15.564,12.816 L16.194,12.816 L16.446,14.258 L16.026,14.258 L15.97,13.95 L15.788,13.95 L15.732,14.258 M17.706,19.424 L18.308,19.424 L18.308,19.774 L17.79,19.774 L18.112,21.398 L17.202,21.398 L16.95,19.774 L14.794,19.774 L14.556,21.398 L13.646,21.398 L13.954,19.774 L13.492,19.774 L13.492,19.424 L14.052,19.424 L14.094,19.242 L14.892,19.242 L14.864,19.424 L16.894,19.424 L16.866,19.242 L17.664,19.242 L17.706,19.424"/>
</g>

<g fill="#ffffff" fill-opacity="0.94902" stroke="none" transform="matrix(1,0,0,1,0,0)"
font-family="MS Shell Dlg 2" font-size="8.25" font-weight="400" font-style="normal" 
>
</g>
</g>
</svg>
