<?xml version="1.0" encoding="UTF-8" standalone="no"?>
<svg width="11.2889mm" height="11.2889mm"
 viewBox="0 0 32 32"
 xmlns="http://www.w3.org/2000/svg" xmlns:xlink="http://www.w3.org/1999/xlink"  version="1.2" baseProfile="tiny">
<title>Qt SVG Document</title>
<desc>Generated with Qt</desc>
<defs>
</defs>
<g fill="none" stroke="black" stroke-width="1" fill-rule="evenodd" stroke-linecap="square" stroke-linejoin="bevel" >

<g fill="#33a02c" fill-opacity="1" stroke="none" transform="matrix(1,0,0,1,0,0)"
font-family="MS Shell Dlg 2" font-size="8.25" font-weight="400" font-style="normal" 
>
<path vector-effect="none" fill-rule="evenodd" d="M21.402,17.114 C21.402,17.87 21.2597,18.5817 20.975,19.249 C20.6903,19.9163 20.2983,20.4973 19.799,20.992 C19.2997,21.4867 18.7163,21.8763 18.049,22.161 C17.3817,22.4457 16.67,22.588 15.914,22.588 C15.158,22.588 14.4463,22.4457 13.779,22.161 C13.1117,21.8763 12.5307,21.4867 12.036,20.992 C11.5413,20.4973 11.1517,19.9163 10.867,19.249 C10.5823,18.5817 10.44,17.87 10.44,17.114 C10.44,16.358 10.5823,15.6463 10.867,14.979 C11.1517,14.3117 11.5413,13.7283 12.036,13.229 C12.5307,12.7297 13.1117,12.3377 13.779,12.053 C14.4463,11.7683 15.158,11.626 15.914,11.626 C16.67,11.626 17.3817,11.7683 18.049,12.053 C18.7163,12.3377 19.2997,12.7297 19.799,13.229 C20.2983,13.7283 20.6903,14.3117 20.975,14.979 C21.2597,15.6463 21.402,16.358 21.402,17.114 "/>
</g>

<g fill="#33a02c" fill-opacity="1" stroke="none" transform="matrix(1,0,0,1,0,0)"
font-family="MS Shell Dlg 2" font-size="8.25" font-weight="400" font-style="normal" 
>
</g>

<g fill="#ffffff" fill-opacity="1" stroke="none" transform="matrix(1,0,0,1,0,0)"
font-family="MS Shell Dlg 2" font-size="8.25" font-weight="400" font-style="normal" 
>
<path vector-effect="none" fill-rule="evenodd" d="M16.923,14.802 C16.923,14.9193 16.879,15.0202 16.791,15.1045 C16.703,15.1888 16.5967,15.231 16.472,15.231 C16.3547,15.231 16.252,15.1888 16.164,15.1045 C16.076,15.0202 16.032,14.9193 16.032,14.802 C16.032,14.6847 16.0778,14.582 16.1695,14.494 C16.2612,14.406 16.3657,14.362 16.483,14.362 C16.6003,14.362 16.703,14.406 16.791,14.494 C16.879,14.582 16.923,14.6847 16.923,14.802 M20.278,16.782 C20.2413,17.42 19.97,17.9077 19.464,18.245 C18.958,18.5823 18.2577,18.751 17.363,18.751 C17.3263,18.751 17.275,18.7492 17.209,18.7455 C17.143,18.7418 17.0733,18.7363 17,18.729 C16.9267,18.7217 16.8588,18.7162 16.7965,18.7125 C16.7342,18.7088 16.6883,18.7033 16.659,18.696 L16.505,18.982 L16.604,19.202 C16.604,19.2533 16.5692,19.3468 16.4995,19.4825 C16.4298,19.6182 16.3492,19.752 16.2575,19.884 C16.1658,20.016 16.0723,20.1333 15.977,20.236 C15.8817,20.3387 15.8083,20.39 15.757,20.39 L15.317,20.148 L16.054,19.092 L16.252,18.96 L16.34,18.674 L14.833,18.751 L14.679,18.751 C14.2903,18.751 13.9347,18.6921 13.612,18.5743 C12.4607,18.1254 11.885,17.5954 11.885,16.9845 C11.885,16.8813 11.9107,16.7599 11.962,16.6201 C12.0793,16.3183 12.281,16.0828 12.567,15.9135 C12.677,15.8325 12.8127,15.792 12.974,15.792 C13.1427,15.792 13.3223,15.822 13.513,15.8821 C13.8503,15.9872 14.14,16.0699 14.382,16.13 C14.624,16.1901 14.8183,16.2314 14.965,16.254 C14.9063,16.2027 14.877,16.1367 14.877,16.056 C14.877,15.9167 15.0127,15.6673 15.284,15.308 L14.789,14.252 C14.745,14.23 14.701,14.208 14.657,14.186 C14.613,14.164 14.5653,14.1383 14.514,14.109 C14.4113,13.999 14.283,13.746 14.129,13.35 L14.184,12.998 L14.459,12.91 L14.921,13.801 L14.888,14.021 L15.504,15.176 C15.5333,15.1687 15.5737,15.165 15.625,15.165 C15.8597,15.165 16.1017,15.253 16.351,15.429 L16.67,15.649 C16.934,15.781 17.1687,15.9002 17.374,16.0065 C17.5793,16.1128 17.7663,16.2027 17.935,16.276 C17.9717,16.2613 18.0487,16.2393 18.166,16.21 C18.2833,16.1807 18.441,16.1403 18.639,16.089 C18.9323,16.0083 19.1413,15.968 19.266,15.968 C19.6327,15.968 19.9187,16.111 20.124,16.397 C20.2267,16.5437 20.278,16.6647 20.278,16.76 L20.278,16.782 M16.582,16.122 L16.351,16.617 L17.517,16.485 L16.582,16.122 M14.668,16.518 C14.558,16.496 14.404,16.4667 14.206,16.43 C14.008,16.3933 13.7623,16.3457 13.469,16.287 C13.1903,16.2283 13.007,16.199 12.919,16.199 C12.8237,16.199 12.6807,16.2833 12.49,16.452 C12.468,16.4593 12.457,16.4777 12.457,16.507 C12.457,16.617 12.6807,16.782 13.128,17.002 C13.6927,17.2807 14.118,17.42 14.404,17.42 C14.5727,17.42 14.657,17.376 14.657,17.288 C14.657,17.1853 14.404,17.0387 13.898,16.848 C13.8467,16.8333 13.7697,16.8077 13.667,16.771 C13.5643,16.7343 13.436,16.6867 13.282,16.628 C13.3407,16.628 13.4837,16.6188 13.711,16.6005 C13.9383,16.5822 14.2573,16.5583 14.668,16.529 L14.668,16.518 M19.541,16.496 C19.541,16.3787 19.4933,16.298 19.398,16.254 C19.3687,16.2467 19.3247,16.2412 19.266,16.2375 C19.2073,16.2338 19.1303,16.232 19.035,16.232 C18.925,16.232 18.8553,16.2448 18.826,16.2705 C18.7967,16.2962 18.7783,16.3493 18.771,16.43 L18.727,16.551 C18.7197,16.5803 18.7123,16.6078 18.705,16.6335 C18.6977,16.6592 18.6903,16.6867 18.683,16.716 C18.639,16.76 18.463,16.8553 18.155,17.002 C17.7737,17.1927 17.5903,17.2953 17.605,17.31 C17.6123,17.3613 17.6637,17.387 17.759,17.387 C18.023,17.387 18.3823,17.2807 18.837,17.068 C19.2917,16.848 19.5263,16.6683 19.541,16.529 L19.541,16.496"/>
</g>

<g fill="#ffffff" fill-opacity="1" stroke="none" transform="matrix(1,0,0,1,0,0)"
font-family="MS Shell Dlg 2" font-size="8.25" font-weight="400" font-style="normal" 
>
</g>
</g>
</svg>
