<?xml version="1.0" encoding="UTF-8" standalone="no"?>
<svg width="11.2889mm" height="11.2889mm"
 viewBox="0 0 32 32"
 xmlns="http://www.w3.org/2000/svg" xmlns:xlink="http://www.w3.org/1999/xlink"  version="1.2" baseProfile="tiny">
<title>Qt SVG Document</title>
<desc>Generated with Qt</desc>
<defs>
</defs>
<g fill="none" stroke="black" stroke-width="1" fill-rule="evenodd" stroke-linecap="square" stroke-linejoin="bevel" >

<g fill="#b75800" fill-opacity="1" stroke="none" transform="matrix(1,0,0,1,0,0)"
font-family="MS Shell Dlg 2" font-size="8.25" font-weight="400" font-style="normal" 
>
<path vector-effect="none" fill-rule="evenodd" d="M21.402,17.114 C21.402,17.87 21.2597,18.5817 20.975,19.249 C20.6903,19.9163 20.2983,20.4973 19.799,20.992 C19.2997,21.4867 18.7163,21.8763 18.049,22.161 C17.3817,22.4457 16.67,22.588 15.914,22.588 C15.158,22.588 14.4463,22.4457 13.779,22.161 C13.1117,21.8763 12.5307,21.4867 12.036,20.992 C11.5413,20.4973 11.1517,19.9163 10.867,19.249 C10.5823,18.5817 10.44,17.87 10.44,17.114 C10.44,16.358 10.5823,15.6463 10.867,14.979 C11.1517,14.3117 11.5413,13.7283 12.036,13.229 C12.5307,12.7297 13.1117,12.3377 13.779,12.053 C14.4463,11.7683 15.158,11.626 15.914,11.626 C16.67,11.626 17.3817,11.7683 18.049,12.053 C18.7163,12.3377 19.2997,12.7297 19.799,13.229 C20.2983,13.7283 20.6903,14.3117 20.975,14.979 C21.2597,15.6463 21.402,16.358 21.402,17.114 "/>
</g>

<g fill="#b75800" fill-opacity="1" stroke="none" transform="matrix(1,0,0,1,0,0)"
font-family="MS Shell Dlg 2" font-size="8.25" font-weight="400" font-style="normal" 
>
</g>

<g fill="#ffffff" fill-opacity="1" stroke="none" transform="matrix(1,0,0,1,0,0)"
font-family="MS Shell Dlg 2" font-size="8.25" font-weight="400" font-style="normal" 
>
<path vector-effect="none" fill-rule="evenodd" d="M12.8018,19.1657 L14.2874,17.6801 L12.4673,16.2178 L13.0895,16.0778 C13.1362,16.0519 13.1621,16.0363 13.1673,16.0311 C13.1725,16.0259 13.1725,16 13.1673,15.9533 L12.7706,13.4876 L13.3462,13.8454 C13.3981,13.8662 13.4448,13.8558 13.4862,13.8143 C13.4914,13.8091 13.494,13.804 13.494,13.7988 C13.494,13.7936 13.5018,13.7832 13.5173,13.7677 L13.9918,12.8265 L14.4663,13.7988 C14.4974,13.8299 14.5233,13.8506 14.5441,13.861 C14.5648,13.8714 14.5933,13.8688 14.6296,13.8532 L15.2052,13.2776 L15.2052,15.2689 C15.226,15.2792 15.2441,15.2766 15.2597,15.2611 C15.2804,15.2403 15.2908,15.2248 15.2908,15.2144 L16.7842,12.9587 L17.1575,13.9699 C17.1679,13.9906 17.1835,14.0114 17.2042,14.0321 C17.199,14.0269 17.2224,14.0399 17.2742,14.071 L18.6659,13.347 L17.9354,14.7322 C17.9561,14.7736 17.9691,14.797 17.9742,14.8022 C18.0002,14.8281 18.0209,14.8436 18.0365,14.8488 L19.0476,15.2222 L16.792,16.7156 C16.7816,16.7156 16.766,16.726 16.7453,16.7467 C16.7297,16.7623 16.7297,16.783 16.7453,16.8089 L18.7287,16.8012 L18.1531,17.3767 C18.1376,17.413 18.1337,17.4403 18.1415,17.4584 C18.1493,17.4766 18.1687,17.5012 18.1998,17.5323 L19.1799,18.0145 L18.2387,18.489 C18.2283,18.489 18.2102,18.502 18.1843,18.5279 C18.148,18.5642 18.1402,18.6083 18.1609,18.6601 L18.5187,19.2357 L16.0453,18.8313 C16.0038,18.8313 15.9727,18.8416 15.9519,18.8624 C15.9364,18.8779 15.9286,18.8961 15.9286,18.9168 L15.7886,19.5391 L14.5907,17.9834 L13.1051,19.4691 L12.8018,19.1657"/>
</g>

<g fill="#ffffff" fill-opacity="1" stroke="none" transform="matrix(1,0,0,1,0,0)"
font-family="MS Shell Dlg 2" font-size="8.25" font-weight="400" font-style="normal" 
>
</g>
</g>
</svg>
