<?xml version="1.0" encoding="UTF-8" standalone="no"?>
<svg width="11.2889mm" height="11.2889mm"
 viewBox="0 0 32 32"
 xmlns="http://www.w3.org/2000/svg" xmlns:xlink="http://www.w3.org/1999/xlink"  version="1.2" baseProfile="tiny">
<title>Qt SVG Document</title>
<desc>Generated with Qt</desc>
<defs>
</defs>
<g fill="none" stroke="black" stroke-width="1" fill-rule="evenodd" stroke-linecap="square" stroke-linejoin="bevel" >

<g fill="none" stroke="none" transform="matrix(1,0,0,1,0,0)"
font-family="MS Shell Dlg 2" font-size="8.25" font-weight="400" font-style="normal" 
>
</g>

<g fill="none" stroke="none" transform="matrix(1.33333,0,0,1.33333,0,0)"
font-family="MS Shell Dlg 2" font-size="8.25" font-weight="400" font-style="normal" 
>
</g>

<g fill="#1a1a1a" fill-opacity="1" stroke="none" transform="matrix(1,0,0,1,0,0)"
font-family="MS Shell Dlg 2" font-size="8.25" font-weight="400" font-style="normal" 
>
<path vector-effect="none" fill-rule="evenodd" d="M21.402,17.114 C21.402,17.87 21.2597,18.5817 20.975,19.249 C20.6903,19.9163 20.2983,20.4973 19.799,20.992 C19.2997,21.4867 18.7163,21.8763 18.049,22.161 C17.3817,22.4457 16.67,22.588 15.914,22.588 C15.158,22.588 14.4463,22.4457 13.779,22.161 C13.1117,21.8763 12.5307,21.4867 12.036,20.992 C11.5413,20.4973 11.1517,19.9163 10.867,19.249 C10.5823,18.5817 10.44,17.87 10.44,17.114 C10.44,16.358 10.5823,15.6463 10.867,14.979 C11.1517,14.3117 11.5413,13.7283 12.036,13.229 C12.5307,12.7297 13.1117,12.3377 13.779,12.053 C14.4463,11.7683 15.158,11.626 15.914,11.626 C16.67,11.626 17.3817,11.7683 18.049,12.053 C18.7163,12.3377 19.2997,12.7297 19.799,13.229 C20.2983,13.7283 20.6903,14.3117 20.975,14.979 C21.2597,15.6463 21.402,16.358 21.402,17.114 "/>
</g>

<g fill="none" stroke="none" transform="matrix(1.33333,0,0,1.33333,0,0)"
font-family="MS Shell Dlg 2" font-size="8.25" font-weight="400" font-style="normal" 
>
</g>

<g fill="none" stroke="none" transform="matrix(1,0,0,1,0,0)"
font-family="MS Shell Dlg 2" font-size="8.25" font-weight="400" font-style="normal" 
>
</g>

<g fill="none" stroke="#000000" stroke-opacity="1" stroke-width="1" stroke-linecap="square" stroke-linejoin="bevel" transform="matrix(1,0,0,1,0,0)"
font-family="MS Shell Dlg 2" font-size="8.25" font-weight="400" font-style="normal" 
>
</g>

<g fill="none" stroke="none" transform="matrix(1,0,0,1,0,0)"
font-family="MS Shell Dlg 2" font-size="8.25" font-weight="400" font-style="normal" 
>
</g>

<g fill="none" stroke="none" transform="matrix(1.33333,0,0,1.33333,0,0)"
font-family="MS Shell Dlg 2" font-size="8.25" font-weight="400" font-style="normal" 
>
</g>

<g fill="#ffffff" fill-opacity="1" stroke="none" transform="matrix(1,0,0,1,0,0)"
font-family="MS Shell Dlg 2" font-size="8.25" font-weight="400" font-style="normal" 
>
<path vector-effect="none" fill-rule="evenodd" d="M13.76,16.25 L13.76,18.77 L13.37,18.77 C13.29,18.77 13.22,18.74 13.16,18.68 C13.1,18.62 13.07,18.5533 13.07,18.48 L13.07,16.54 C13.07,16.4533 13.1,16.3833 13.16,16.33 C13.22,16.2767 13.29,16.25 13.37,16.25 L13.76,16.25 M18.59,16.29 C18.7167,16.29 18.82,16.3283 18.9,16.405 C18.98,16.4817 19.02,16.5733 19.02,16.68 L19.02,19.46 L16.63,19.46 L16.63,18.77 L18.37,18.77 L18.37,18.44 L16.96,18.44 L18.59,16.29 M16.61,18.3 L16.61,16.9 C16.3833,17.1933 16.1833,17.4567 16.01,17.69 C15.93,17.79 15.8533,17.8883 15.78,17.985 C15.7067,18.0817 15.64,18.17 15.58,18.25 C15.52,18.33 15.4683,18.3983 15.425,18.455 C15.3817,18.5117 15.3533,18.5467 15.34,18.56 C15.2867,18.6267 15.2167,18.6667 15.13,18.68 C15.0433,18.6933 14.9633,18.6667 14.89,18.6 C14.83,18.5467 14.7917,18.4783 14.775,18.395 C14.7583,18.3117 14.7833,18.2367 14.85,18.17 C14.8633,18.15 14.8917,18.11 14.935,18.05 C14.9783,17.99 15.0333,17.9183 15.1,17.835 C15.1667,17.7517 15.24,17.6567 15.32,17.55 C15.4,17.4433 15.48,17.3367 15.56,17.23 C15.7467,16.9767 15.96,16.6967 16.2,16.39 C16.26,16.31 16.3533,16.27 16.48,16.27 L18.16,16.27 L16.61,18.3 M13.76,18.77 L16.28,18.77 L16.28,19.18 C16.28,19.26 16.2533,19.3267 16.2,19.38 C16.1467,19.4333 16.0767,19.46 15.99,19.46 L14.05,19.46 C13.9767,19.46 13.91,19.4333 13.85,19.38 C13.79,19.3267 13.76,19.26 13.76,19.18 L13.76,18.77 M16.83,14.9 L16.53,14.41 L18.24,14.41 L18.24,14.9 L16.83,14.9 M16.83,15.04 L18.24,15.04 L18.24,15.39 C18.24,15.5767 18.175,15.7333 18.045,15.86 C17.915,15.9867 17.7567,16.05 17.57,16.05 C17.3833,16.05 17.2267,15.9867 17.1,15.86 C16.9733,15.7333 16.91,15.5767 16.91,15.39 L16.57,15.39 L16.83,15.04"/>
</g>

<g fill="none" stroke="none" transform="matrix(1.33333,0,0,1.33333,0,0)"
font-family="MS Shell Dlg 2" font-size="8.25" font-weight="400" font-style="normal" 
>
</g>

<g fill="none" stroke="none" transform="matrix(1,0,0,1,0,0)"
font-family="MS Shell Dlg 2" font-size="8.25" font-weight="400" font-style="normal" 
>
</g>

<g fill="none" stroke="#000000" stroke-opacity="1" stroke-width="1" stroke-linecap="square" stroke-linejoin="bevel" transform="matrix(1,0,0,1,0,0)"
font-family="MS Shell Dlg 2" font-size="8.25" font-weight="400" font-style="normal" 
>
</g>
</g>
</svg>
