<?xml version="1.0" encoding="UTF-8" standalone="no"?>
<svg width="11.2889mm" height="11.2889mm"
 viewBox="0 0 32 32"
 xmlns="http://www.w3.org/2000/svg" xmlns:xlink="http://www.w3.org/1999/xlink"  version="1.2" baseProfile="tiny">
<title>Qt SVG Document</title>
<desc>Generated with Qt</desc>
<defs>
</defs>
<g fill="none" stroke="black" stroke-width="1" fill-rule="evenodd" stroke-linecap="square" stroke-linejoin="bevel" >

<g fill="none" stroke="none" transform="matrix(1,0,0,1,0,0)"
font-family="MS Shell Dlg 2" font-size="8.25" font-weight="400" font-style="normal" 
>
</g>

<g fill="none" stroke="none" transform="matrix(1.33333,0,0,1.33333,0,0)"
font-family="MS Shell Dlg 2" font-size="8.25" font-weight="400" font-style="normal" 
>
</g>

<g fill="#a61215" fill-opacity="1" stroke="none" transform="matrix(1,0,0,1,0,0)"
font-family="MS Shell Dlg 2" font-size="8.25" font-weight="400" font-style="normal" 
>
<path vector-effect="none" fill-rule="evenodd" d="M21.402,17.114 C21.402,17.87 21.2597,18.5817 20.975,19.249 C20.6903,19.9163 20.2983,20.4973 19.799,20.992 C19.2997,21.4867 18.7163,21.8763 18.049,22.161 C17.3817,22.4457 16.67,22.588 15.914,22.588 C15.158,22.588 14.4463,22.4457 13.779,22.161 C13.1117,21.8763 12.5307,21.4867 12.036,20.992 C11.5413,20.4973 11.1517,19.9163 10.867,19.249 C10.5823,18.5817 10.44,17.87 10.44,17.114 C10.44,16.358 10.5823,15.6463 10.867,14.979 C11.1517,14.3117 11.5413,13.7283 12.036,13.229 C12.5307,12.7297 13.1117,12.3377 13.779,12.053 C14.4463,11.7683 15.158,11.626 15.914,11.626 C16.67,11.626 17.3817,11.7683 18.049,12.053 C18.7163,12.3377 19.2997,12.7297 19.799,13.229 C20.2983,13.7283 20.6903,14.3117 20.975,14.979 C21.2597,15.6463 21.402,16.358 21.402,17.114 "/>
</g>

<g fill="none" stroke="none" transform="matrix(1.33333,0,0,1.33333,0,0)"
font-family="MS Shell Dlg 2" font-size="8.25" font-weight="400" font-style="normal" 
>
</g>

<g fill="none" stroke="none" transform="matrix(1,0,0,1,0,0)"
font-family="MS Shell Dlg 2" font-size="8.25" font-weight="400" font-style="normal" 
>
</g>

<g fill="none" stroke="#000000" stroke-opacity="1" stroke-width="1" stroke-linecap="square" stroke-linejoin="bevel" transform="matrix(1,0,0,1,0,0)"
font-family="MS Shell Dlg 2" font-size="8.25" font-weight="400" font-style="normal" 
>
</g>

<g fill="none" stroke="none" transform="matrix(1,0,0,1,0,0)"
font-family="MS Shell Dlg 2" font-size="8.25" font-weight="400" font-style="normal" 
>
</g>

<g fill="none" stroke="none" transform="matrix(1.33333,0,0,1.33333,0,0)"
font-family="MS Shell Dlg 2" font-size="8.25" font-weight="400" font-style="normal" 
>
</g>

<g fill="#ffffff" fill-opacity="1" stroke="none" transform="matrix(1,0,0,1,0,0)"
font-family="MS Shell Dlg 2" font-size="8.25" font-weight="400" font-style="normal" 
>
<path vector-effect="none" fill-rule="evenodd" d="M14.14,16.43 L14.38,16.43 L14.38,16.61 L14.14,16.81 L14.18,19.61 L13.55,19.61 L13.59,16.81 L13.36,16.61 L13.36,16.43 L13.59,16.43 L13.61,15.71 L13.36,15.51 L13.36,15.34 L13.61,15.34 L13.61,14.9 C13.61,14.8533 13.6133,14.7883 13.62,14.705 C13.6267,14.6217 13.64,14.54 13.66,14.46 C13.68,14.38 13.7067,14.31 13.74,14.25 C13.7733,14.19 13.8167,14.16 13.87,14.16 C13.9167,14.16 13.955,14.19 13.985,14.25 C14.015,14.31 14.0383,14.38 14.055,14.46 C14.0717,14.54 14.0833,14.6217 14.09,14.705 C14.0967,14.7883 14.1,14.8533 14.1,14.9 L14.12,15.34 L14.36,15.34 L14.36,15.51 L14.12,15.71 L14.14,16.43 M18.4,15.71 L18.4,16.43 L18.63,16.43 L18.63,16.61 L18.4,16.81 L18.46,19.61 L17.81,19.61 L17.85,16.81 L17.61,16.61 L17.61,16.43 L17.87,16.43 L17.87,15.71 L17.63,15.51 L17.63,15.34 L17.89,15.34 L17.89,14.9 C17.89,14.8533 17.8933,14.7883 17.9,14.705 C17.9067,14.6217 17.9183,14.54 17.935,14.46 C17.9517,14.38 17.975,14.31 18.005,14.25 C18.035,14.19 18.0733,14.16 18.12,14.16 C18.1667,14.16 18.2067,14.19 18.24,14.25 C18.2733,14.31 18.3,14.38 18.32,14.46 C18.34,14.54 18.355,14.6217 18.365,14.705 C18.375,14.7883 18.38,14.8533 18.38,14.9 L18.38,15.34 L18.63,15.34 L18.63,15.51 L18.4,15.71 M16.83,17.42 L17.51,17.42 L17.51,19.57 L16.32,19.57 L16.32,18.81 C16.32,18.77 16.3033,18.7267 16.27,18.68 C16.2367,18.6333 16.2,18.5867 16.16,18.54 C16.1133,18.4867 16.06,18.4333 16,18.38 C15.94,18.4333 15.8867,18.4867 15.84,18.54 C15.8,18.5867 15.765,18.6333 15.735,18.68 C15.705,18.7267 15.69,18.77 15.69,18.81 L15.69,19.57 L14.47,19.57 L14.47,17.42 L15.16,17.42 L15.16,17.34 C15.14,17.28 15.1217,17.2233 15.105,17.17 C15.0883,17.1167 15.08,17.06 15.08,17 C15.08,16.88 15.1033,16.7583 15.15,16.635 C15.1967,16.5117 15.2583,16.3983 15.335,16.295 C15.4117,16.1917 15.5033,16.1067 15.61,16.04 C15.7167,15.9733 15.83,15.9333 15.95,15.92 L15.95,15.63 C15.83,15.6167 15.7233,15.5783 15.63,15.515 C15.5367,15.4517 15.4667,15.3667 15.42,15.26 C15.3467,15.1067 15.345,14.955 15.415,14.805 C15.485,14.655 15.6033,14.5433 15.77,14.47 C15.8633,14.4367 15.955,14.4217 16.045,14.425 C16.135,14.4283 16.2267,14.4567 16.32,14.51 C16.1867,14.4633 16.0733,14.47 15.98,14.53 C15.8467,14.5833 15.7533,14.6683 15.7,14.785 C15.6467,14.9017 15.65,15.0267 15.71,15.16 C15.7633,15.2733 15.855,15.3567 15.985,15.41 C16.115,15.4633 16.2467,15.4633 16.38,15.41 C16.48,15.3833 16.5633,15.3133 16.63,15.2 C16.57,15.3867 16.4467,15.5167 16.26,15.59 C16.2267,15.6033 16.1917,15.6133 16.155,15.62 C16.1183,15.6267 16.08,15.63 16.04,15.63 L16.04,15.92 C16.16,15.9333 16.2733,15.9733 16.38,16.04 C16.4867,16.1067 16.58,16.1917 16.66,16.295 C16.74,16.3983 16.8017,16.5117 16.845,16.635 C16.8883,16.7583 16.91,16.88 16.91,17 C16.91,17.06 16.905,17.1183 16.895,17.175 C16.885,17.2317 16.8633,17.2867 16.83,17.34 L16.83,17.42"/>
</g>

<g fill="none" stroke="none" transform="matrix(1.33333,0,0,1.33333,0,0)"
font-family="MS Shell Dlg 2" font-size="8.25" font-weight="400" font-style="normal" 
>
</g>

<g fill="none" stroke="none" transform="matrix(1,0,0,1,0,0)"
font-family="MS Shell Dlg 2" font-size="8.25" font-weight="400" font-style="normal" 
>
</g>

<g fill="none" stroke="#000000" stroke-opacity="1" stroke-width="1" stroke-linecap="square" stroke-linejoin="bevel" transform="matrix(1,0,0,1,0,0)"
font-family="MS Shell Dlg 2" font-size="8.25" font-weight="400" font-style="normal" 
>
</g>
</g>
</svg>
