<?xml version="1.0" encoding="UTF-8" standalone="no"?>
<svg width="11.2889mm" height="11.2889mm"
 viewBox="0 0 32 32"
 xmlns="http://www.w3.org/2000/svg" xmlns:xlink="http://www.w3.org/1999/xlink"  version="1.2" baseProfile="tiny">
<title>Qt SVG Document</title>
<desc>Generated with Qt</desc>
<defs>
</defs>
<g fill="none" stroke="black" stroke-width="1" fill-rule="evenodd" stroke-linecap="square" stroke-linejoin="bevel" >

<g fill="none" stroke="none" transform="matrix(1,0,0,1,0,0)"
font-family="MS Shell Dlg 2" font-size="8.25" font-weight="400" font-style="normal" 
>
</g>

<g fill="none" stroke="none" transform="matrix(1.33333,0,0,1.33333,0,0)"
font-family="MS Shell Dlg 2" font-size="8.25" font-weight="400" font-style="normal" 
>
</g>

<g fill="#b75800" fill-opacity="1" stroke="none" transform="matrix(1,0,0,1,0,0)"
font-family="MS Shell Dlg 2" font-size="8.25" font-weight="400" font-style="normal" 
>
<path vector-effect="none" fill-rule="evenodd" d="M21.402,17.1132 C21.402,17.8692 21.2597,18.5809 20.975,19.2482 C20.6903,19.9156 20.2983,20.4966 19.799,20.9912 C19.2997,21.4859 18.7163,21.8756 18.049,22.1602 C17.3817,22.4449 16.67,22.5872 15.914,22.5872 C15.158,22.5872 14.4463,22.4449 13.779,22.1602 C13.1117,21.8756 12.5307,21.4859 12.036,20.9912 C11.5413,20.4966 11.1517,19.9156 10.867,19.2482 C10.5823,18.5809 10.44,17.8692 10.44,17.1132 C10.44,16.3572 10.5823,15.6456 10.867,14.9782 C11.1517,14.3109 11.5413,13.7276 12.036,13.2282 C12.5307,12.7289 13.1117,12.3369 13.779,12.0522 C14.4463,11.7676 15.158,11.6252 15.914,11.6252 C16.67,11.6252 17.3817,11.7676 18.049,12.0522 C18.7163,12.3369 19.2997,12.7289 19.799,13.2282 C20.2983,13.7276 20.6903,14.3109 20.975,14.9782 C21.2597,15.6456 21.402,16.3572 21.402,17.1132 "/>
</g>

<g fill="none" stroke="none" transform="matrix(1.33333,0,0,1.33333,0,0)"
font-family="MS Shell Dlg 2" font-size="8.25" font-weight="400" font-style="normal" 
>
</g>

<g fill="none" stroke="none" transform="matrix(1,0,0,1,0,0)"
font-family="MS Shell Dlg 2" font-size="8.25" font-weight="400" font-style="normal" 
>
</g>

<g fill="none" stroke="#000000" stroke-opacity="1" stroke-width="1" stroke-linecap="square" stroke-linejoin="bevel" transform="matrix(1,0,0,1,0,0)"
font-family="MS Shell Dlg 2" font-size="8.25" font-weight="400" font-style="normal" 
>
</g>

<g fill="none" stroke="none" transform="matrix(1,0,0,1,0,0)"
font-family="MS Shell Dlg 2" font-size="8.25" font-weight="400" font-style="normal" 
>
</g>

<g fill="none" stroke="none" transform="matrix(1.33333,0,0,1.33333,0,0)"
font-family="MS Shell Dlg 2" font-size="8.25" font-weight="400" font-style="normal" 
>
</g>

<g fill="#ffffff" fill-opacity="1" stroke="none" transform="matrix(1,0,0,1,0,0)"
font-family="MS Shell Dlg 2" font-size="8.25" font-weight="400" font-style="normal" 
>
<path vector-effect="none" fill-rule="evenodd" d="M19.956,17.7112 C20.084,17.8152 20.114,17.9272 20.046,18.0472 C19.978,18.1672 19.87,18.2812 19.722,18.3892 C19.574,18.4972 19.408,18.5892 19.224,18.6652 C19.04,18.7412 18.9,18.7912 18.804,18.8152 C18.66,18.8392 18.538,18.8672 18.438,18.8992 C18.338,18.9312 18.246,18.9592 18.162,18.9832 C18.078,19.0072 18,19.0272 17.928,19.0432 C17.856,19.0592 17.78,19.0632 17.7,19.0552 C17.516,19.0232 17.348,18.9492 17.196,18.8332 C17.044,18.7172 16.9,18.6032 16.764,18.4912 L16.752,18.4912 C16.744,18.4912 16.74,18.4832 16.74,18.4672 C16.62,18.4912 16.51,18.5392 16.41,18.6112 C16.31,18.6832 16.212,18.7512 16.116,18.8152 C16.044,18.8792 15.97,18.9352 15.894,18.9832 C15.818,19.0312 15.736,19.0632 15.648,19.0792 C15.56,19.0952 15.466,19.0932 15.366,19.0732 C15.266,19.0532 15.152,19.0032 15.024,18.9232 C14.864,18.9472 14.698,18.9632 14.526,18.9712 C14.354,18.9792 14.186,18.9672 14.022,18.9352 C13.858,18.9032 13.7,18.8512 13.548,18.7792 C13.396,18.7072 13.268,18.6032 13.164,18.4672 C12.964,18.5072 12.814,18.4692 12.714,18.3532 C12.614,18.2372 12.55,18.0832 12.522,17.8912 C12.494,17.6992 12.498,17.4852 12.534,17.2492 C12.57,17.0132 12.62,16.7912 12.684,16.5832 C12.524,16.5512 12.424,16.4792 12.384,16.3672 C12.344,16.2552 12.35,16.1292 12.402,15.9892 C12.454,15.8492 12.544,15.7112 12.672,15.5752 C12.8,15.4392 12.948,15.3352 13.116,15.2632 C13.172,15.2392 13.22,15.2152 13.26,15.1912 C13.3,15.1672 13.34,15.1472 13.38,15.1312 C13.452,15.0352 13.56,14.9552 13.704,14.8912 L13.704,14.9512 C13.72,14.9512 13.734,14.9452 13.746,14.9332 C13.758,14.9212 13.772,14.9152 13.788,14.9152 C13.772,14.8352 13.794,14.7472 13.854,14.6512 C13.914,14.5552 13.996,14.4752 14.1,14.4112 C14.252,14.3152 14.382,14.2332 14.49,14.1652 C14.598,14.0972 14.72,14.0632 14.856,14.0632 C14.92,14.0472 14.982,14.0472 15.042,14.0632 C15.102,14.0792 15.164,14.0952 15.228,14.1112 C15.284,14.1432 15.338,14.1752 15.39,14.2072 C15.442,14.2392 15.488,14.2712 15.528,14.3032 C15.72,14.4392 15.828,14.5472 15.852,14.6272 C15.964,14.6832 16.064,14.7352 16.152,14.7832 C16.24,14.8312 16.328,14.8752 16.416,14.9152 C16.56,14.9872 16.686,15.0572 16.794,15.1252 C16.902,15.1932 16.992,15.2672 17.064,15.3472 L17.112,15.3232 C17.152,15.2992 17.18,15.2792 17.196,15.2632 C17.18,15.2472 17.188,15.2132 17.22,15.1612 C17.252,15.1092 17.302,15.0572 17.37,15.0052 C17.438,14.9532 17.518,14.9092 17.61,14.8732 C17.702,14.8372 17.804,14.8272 17.916,14.8432 C18.012,14.8592 18.118,14.9012 18.234,14.9692 C18.35,15.0372 18.434,15.0972 18.486,15.1492 C18.538,15.2012 18.538,15.2252 18.486,15.2212 C18.434,15.2172 18.288,15.1512 18.048,15.0232 C18.064,15.0392 18.1,15.0672 18.156,15.1072 C18.212,15.1472 18.328,15.2112 18.504,15.2992 C18.712,15.3632 18.914,15.4472 19.11,15.5512 C19.306,15.6552 19.464,15.7672 19.584,15.8872 C19.84,16.1272 19.982,16.3372 20.01,16.5172 C20.038,16.6972 20.028,16.8592 19.98,17.0032 C19.932,17.1472 19.888,17.2752 19.848,17.3872 C19.808,17.4992 19.844,17.6072 19.956,17.7112 M13.704,15.1912 C13.688,15.3032 13.682,15.4072 13.686,15.5032 C13.69,15.5992 13.74,15.6552 13.836,15.6712 C13.876,15.7512 13.936,15.8112 14.016,15.8512 C14.096,15.8912 14.18,15.9192 14.268,15.9352 C14.332,15.9512 14.404,15.9612 14.484,15.9652 C14.564,15.9692 14.652,15.9712 14.748,15.9712 C14.86,15.9952 14.942,16.0052 14.994,16.0012 C15.046,15.9972 15.1,16.0032 15.156,16.0192 C15.196,16.0192 15.232,16.0152 15.264,16.0072 C15.296,15.9992 15.332,15.9952 15.372,15.9952 C15.492,15.9632 15.6,15.9132 15.696,15.8452 C15.792,15.7772 15.888,15.7272 15.984,15.6952 C16.08,15.6552 16.15,15.6092 16.194,15.5572 C16.238,15.5052 16.268,15.4352 16.284,15.3472 L16.284,15.3232 C16.324,15.3632 16.384,15.4212 16.464,15.4972 C16.544,15.5732 16.6,15.6392 16.632,15.6952 C16.632,15.6792 16.61,15.6312 16.566,15.5512 C16.522,15.4712 16.484,15.4072 16.452,15.3592 C16.516,15.3992 16.572,15.4392 16.62,15.4792 C16.668,15.5192 16.696,15.5392 16.704,15.5392 C16.656,15.4672 16.568,15.3832 16.44,15.2872 C16.312,15.1912 16.176,15.0952 16.032,14.9992 C15.888,14.9032 15.75,14.8072 15.618,14.7112 C15.486,14.6152 15.392,14.5312 15.336,14.4592 C15.336,14.5152 15.372,14.5752 15.444,14.6392 C15.516,14.7032 15.594,14.7692 15.678,14.8372 C15.762,14.9052 15.842,14.9752 15.918,15.0472 C15.994,15.1192 16.036,15.1912 16.044,15.2632 C16.044,15.3192 16.024,15.3772 15.984,15.4372 C15.944,15.4972 15.892,15.5392 15.828,15.5632 C15.74,15.5792 15.656,15.6052 15.576,15.6412 C15.496,15.6772 15.408,15.7032 15.312,15.7192 C15.28,15.7432 15.216,15.7552 15.12,15.7552 C15.096,15.7552 15.05,15.7532 14.982,15.7492 C14.914,15.7452 14.836,15.7272 14.748,15.6952 C14.668,15.7112 14.59,15.7152 14.514,15.7072 C14.438,15.6992 14.372,15.6952 14.316,15.6952 C14.18,15.6712 14.084,15.5992 14.028,15.4792 C13.94,15.4632 13.88,15.3872 13.848,15.2512 C13.816,15.1152 13.876,14.9312 14.028,14.6992 C13.964,14.7792 13.912,14.8552 13.872,14.9272 C13.832,14.9912 13.796,15.0492 13.764,15.1012 C13.732,15.1532 13.712,15.1832 13.704,15.1912 M18.696,17.7352 C18.784,17.7192 18.902,17.6812 19.05,17.6212 C19.198,17.5612 19.332,17.4892 19.452,17.4052 C19.572,17.3212 19.652,17.2292 19.692,17.1292 C19.732,17.0292 19.688,16.9272 19.56,16.8232 C19.448,16.7272 19.404,16.6432 19.428,16.5712 C19.452,16.4992 19.478,16.4212 19.506,16.3372 C19.534,16.2532 19.534,16.1592 19.506,16.0552 C19.478,15.9512 19.36,15.8232 19.152,15.6712 C19.088,15.6312 19.002,15.5912 18.894,15.5512 C18.786,15.5112 18.676,15.4712 18.564,15.4312 C18.62,15.4952 18.644,15.5452 18.636,15.5812 C18.628,15.6172 18.606,15.6452 18.57,15.6652 C18.534,15.6852 18.488,15.6972 18.432,15.7012 C18.376,15.7052 18.328,15.7112 18.288,15.7192 C18.168,15.7512 18.074,15.7812 18.006,15.8092 C17.938,15.8372 17.872,15.8432 17.808,15.8272 C17.72,15.8112 17.634,15.7932 17.55,15.7732 C17.466,15.7532 17.384,15.6832 17.304,15.5632 C17.296,15.5632 17.302,15.5832 17.322,15.6232 C17.342,15.6632 17.374,15.7072 17.418,15.7552 C17.462,15.8032 17.518,15.8512 17.586,15.8992 C17.654,15.9472 17.728,15.9792 17.808,15.9952 C17.896,15.9952 17.976,15.9772 18.048,15.9412 C18.12,15.9052 18.236,15.8672 18.396,15.8272 C18.476,15.8272 18.548,15.8112 18.612,15.7792 C18.628,15.8032 18.65,15.8352 18.678,15.8752 C18.706,15.9152 18.748,15.9632 18.804,16.0192 C18.932,16.1232 18.994,16.2092 18.99,16.2772 C18.986,16.3452 18.948,16.4012 18.876,16.4452 C18.804,16.4892 18.716,16.5252 18.612,16.5532 C18.508,16.5812 18.42,16.5992 18.348,16.6072 C18.172,16.6392 18.034,16.6612 17.934,16.6732 C17.834,16.6852 17.74,16.6832 17.652,16.6672 C17.532,16.6512 17.42,16.6112 17.316,16.5472 C17.212,16.4832 17.116,16.4232 17.028,16.3672 C16.94,16.3112 16.87,16.2292 16.818,16.1212 C16.766,16.0132 16.74,15.9512 16.74,15.9352 C16.74,15.9672 16.744,16.0092 16.752,16.0612 C16.76,16.1132 16.756,16.1512 16.74,16.1752 C16.724,16.2712 16.678,16.3552 16.602,16.4272 C16.526,16.4992 16.428,16.5432 16.308,16.5592 C16.156,16.5512 16.04,16.5752 15.96,16.6312 C15.88,16.6872 15.78,16.7352 15.66,16.7752 C15.62,16.7912 15.58,16.8032 15.54,16.8112 C15.5,16.8192 15.46,16.8312 15.42,16.8472 C15.356,16.8632 15.278,16.8692 15.186,16.8652 C15.094,16.8612 14.992,16.8312 14.88,16.7752 C14.624,16.7992 14.392,16.7992 14.184,16.7752 C13.952,16.7352 13.784,16.6352 13.68,16.4752 C13.568,16.4832 13.486,16.4592 13.434,16.4032 C13.382,16.3472 13.35,16.2752 13.338,16.1872 C13.326,16.0992 13.33,16.0012 13.35,15.8932 C13.37,15.7852 13.4,15.6832 13.44,15.5872 C13.4,15.5632 13.368,15.5312 13.344,15.4912 C13.32,15.4512 13.316,15.4112 13.332,15.3712 C13.22,15.4432 13.116,15.5252 13.02,15.6172 C12.924,15.7092 12.856,15.8032 12.816,15.8992 C12.776,15.9952 12.768,16.0832 12.792,16.1632 C12.816,16.2432 12.888,16.3032 13.008,16.3432 C12.944,16.4872 12.898,16.6372 12.87,16.7932 C12.842,16.9492 12.838,17.0932 12.858,17.2252 C12.878,17.3572 12.926,17.4632 13.002,17.5432 C13.078,17.6232 13.196,17.6512 13.356,17.6272 C13.436,17.7232 13.534,17.7992 13.65,17.8552 C13.766,17.9112 13.892,17.9512 14.028,17.9752 C14.164,18.0072 14.308,18.0192 14.46,18.0112 C14.612,18.0032 14.764,17.9912 14.916,17.9752 C15.052,18.0472 15.172,18.0872 15.276,18.0952 C15.38,18.1032 15.472,18.0912 15.552,18.0592 C15.608,18.0432 15.662,18.0232 15.714,17.9992 C15.766,17.9752 15.812,17.9512 15.852,17.9272 C15.988,17.8632 16.128,17.7972 16.272,17.7292 C16.416,17.6612 16.588,17.6552 16.788,17.7112 C16.852,17.7112 16.916,17.7032 16.98,17.6872 C17.044,17.6712 17.096,17.6432 17.136,17.6032 C17.232,17.6672 17.334,17.7292 17.442,17.7892 C17.55,17.8492 17.664,17.8872 17.784,17.9032 C17.912,17.9192 18.036,17.9052 18.156,17.8612 C18.276,17.8172 18.456,17.7752 18.696,17.7352 M16.392,15.3232 C16.408,15.3232 16.416,15.3272 16.416,15.3352 C16.416,15.3432 16.424,15.3472 16.44,15.3472 L16.452,15.3592 C16.42,15.3432 16.4,15.3312 16.392,15.3232 M19.416,16.7992 C19.544,16.8872 19.592,16.9712 19.56,17.0512 C19.528,17.1312 19.46,17.2012 19.356,17.2612 C19.252,17.3212 19.13,17.3732 18.99,17.4172 C18.85,17.4612 18.736,17.4872 18.648,17.4952 C18.528,17.5192 18.424,17.5412 18.336,17.5612 C18.248,17.5812 18.17,17.6012 18.102,17.6212 C18.034,17.6412 17.972,17.6552 17.916,17.6632 C17.86,17.6712 17.796,17.6712 17.724,17.6632 C17.62,17.6472 17.516,17.6112 17.412,17.5552 C17.308,17.4992 17.208,17.4432 17.112,17.3872 C17.072,17.4192 17.024,17.4452 16.968,17.4652 C16.912,17.4852 16.844,17.4872 16.764,17.4712 C16.58,17.4312 16.42,17.4412 16.284,17.5012 C16.148,17.5612 16.012,17.6232 15.876,17.6872 C15.82,17.7112 15.77,17.7312 15.726,17.7472 C15.682,17.7632 15.636,17.7792 15.588,17.7952 C15.5,17.8192 15.404,17.8292 15.3,17.8252 C15.196,17.8212 15.076,17.7912 14.94,17.7352 C14.804,17.7512 14.66,17.7572 14.508,17.7532 C14.356,17.7492 14.212,17.7352 14.076,17.7112 C13.812,17.6872 13.6,17.5872 13.44,17.4112 C13.28,17.4272 13.162,17.3992 13.086,17.3272 C13.01,17.2552 12.96,17.1632 12.936,17.0512 C12.912,16.9392 12.914,16.8112 12.942,16.6672 C12.97,16.5232 13.016,16.3872 13.08,16.2592 C12.88,16.2032 12.806,16.0992 12.858,15.9472 C12.91,15.7952 13.032,15.6512 13.224,15.5152 C13.24,15.5392 13.254,15.5632 13.266,15.5872 C13.278,15.6112 13.3,15.6312 13.332,15.6472 C13.292,15.7592 13.262,15.8752 13.242,15.9952 C13.222,16.1152 13.218,16.2272 13.23,16.3312 C13.242,16.4352 13.274,16.5192 13.326,16.5832 C13.378,16.6472 13.46,16.6752 13.572,16.6672 C13.7,16.8432 13.876,16.9512 14.1,16.9912 C14.308,17.0152 14.544,17.0152 14.808,16.9912 C14.928,17.0472 15.038,17.0772 15.138,17.0812 C15.238,17.0852 15.316,17.0792 15.372,17.0632 C15.428,17.0472 15.476,17.0352 15.516,17.0272 C15.556,17.0192 15.596,17.0072 15.636,16.9912 C15.772,16.9352 15.898,16.8752 16.014,16.8112 C16.13,16.7472 16.264,16.7232 16.416,16.7392 C16.48,16.7312 16.534,16.7032 16.578,16.6552 C16.622,16.6072 16.662,16.5592 16.698,16.5112 C16.734,16.4632 16.766,16.4292 16.794,16.4092 C16.822,16.3892 16.856,16.4032 16.896,16.4512 C17.016,16.5952 17.16,16.7032 17.328,16.7752 C17.496,16.8472 17.64,16.8912 17.76,16.9072 C17.864,16.9232 17.964,16.9092 18.06,16.8652 C18.156,16.8212 18.296,16.7792 18.48,16.7392 C18.552,16.7312 18.642,16.7072 18.75,16.6672 C18.858,16.6272 18.948,16.5772 19.02,16.5172 C19.092,16.4572 19.13,16.3832 19.134,16.2952 C19.138,16.2072 19.072,16.1072 18.936,15.9952 C18.84,15.8992 18.78,15.8212 18.756,15.7612 C18.732,15.7012 18.72,15.6432 18.72,15.5872 C18.784,15.6032 18.854,15.6272 18.93,15.6592 C19.006,15.6912 19.064,15.7232 19.104,15.7552 C19.296,15.8832 19.4,15.9932 19.416,16.0852 C19.432,16.1772 19.422,16.2612 19.386,16.3372 C19.35,16.4132 19.32,16.4872 19.296,16.5592 C19.272,16.6312 19.312,16.7112 19.416,16.7992 "/>
</g>

<g fill="none" stroke="none" transform="matrix(1.33333,0,0,1.33333,0,0)"
font-family="MS Shell Dlg 2" font-size="8.25" font-weight="400" font-style="normal" 
>
</g>

<g fill="none" stroke="none" transform="matrix(1,0,0,1,0,0)"
font-family="MS Shell Dlg 2" font-size="8.25" font-weight="400" font-style="normal" 
>
</g>

<g fill="none" stroke="#000000" stroke-opacity="1" stroke-width="1" stroke-linecap="square" stroke-linejoin="bevel" transform="matrix(1,0,0,1,0,0)"
font-family="MS Shell Dlg 2" font-size="8.25" font-weight="400" font-style="normal" 
>
</g>
</g>
</svg>
