<?xml version="1.0" encoding="UTF-8" standalone="no"?>
<svg width="11.2889mm" height="11.2889mm"
 viewBox="0 0 32 32"
 xmlns="http://www.w3.org/2000/svg" xmlns:xlink="http://www.w3.org/1999/xlink"  version="1.2" baseProfile="tiny">
<title>Qt SVG Document</title>
<desc>Generated with Qt</desc>
<defs>
</defs>
<g fill="none" stroke="black" stroke-width="1" fill-rule="evenodd" stroke-linecap="square" stroke-linejoin="bevel" >

<g fill="#a61215" fill-opacity="1" stroke="none" transform="matrix(1,0,0,1,0,0)"
font-family="MS Shell Dlg 2" font-size="8.25" font-weight="400" font-style="normal" 
>
<path vector-effect="non-scaling-stroke" fill-rule="evenodd" d="M21.6693,16 C21.6693,19.1311 19.1311,21.6693 16,21.6693 C12.8689,21.6693 10.3307,19.1311 10.3307,16 C10.3307,12.8689 12.8689,10.3307 16,10.3307 C19.1311,10.3307 21.6693,12.8689 21.6693,16 "/>
</g>

<g fill="#ffffff" fill-opacity="0.94902" stroke="none" transform="matrix(1,0,0,1,0,0)"
font-family="MS Shell Dlg 2" font-size="8.25" font-weight="400" font-style="normal" 
>
<path vector-effect="none" fill-rule="evenodd" d="M16.96,14.58 C16.9667,14.5867 16.97,14.5917 16.97,14.595 C16.97,14.5983 16.9667,14.5967 16.96,14.59 L16.96,14.58 M18.81,18.84 C18.8567,18.88 18.88,18.96 18.88,19.08 C18.88,19.1533 18.86,19.2217 18.82,19.285 C18.78,19.3483 18.7333,19.38 18.68,19.38 L16.85,19.38 L13.57,19.47 C13.5567,19.47 13.535,19.465 13.505,19.455 C13.475,19.445 13.445,19.435 13.415,19.425 C13.385,19.415 13.3567,19.405 13.33,19.395 C13.3033,19.385 13.2867,19.38 13.28,19.38 C13.2467,19.38 13.2183,19.3633 13.195,19.33 C13.1717,19.2967 13.16,19.2633 13.16,19.23 C13.16,19.2233 13.1883,19.2167 13.245,19.21 C13.3017,19.2033 13.365,19.195 13.435,19.185 C13.505,19.175 13.57,19.1667 13.63,19.16 C13.69,19.1533 13.72,19.1467 13.72,19.14 C13.7133,19.1333 13.6783,19.13 13.615,19.13 C13.5517,19.13 13.4817,19.13 13.405,19.13 C13.3283,19.13 13.26,19.1267 13.2,19.12 C13.14,19.1133 13.11,19.1 13.11,19.08 C13.11,18.9867 13.1333,18.9017 13.18,18.825 C13.2267,18.7483 13.2767,18.71 13.33,18.71 L16.01,18.64 C16.0033,18.64 15.9333,18.6383 15.8,18.635 C15.6667,18.6317 15.5,18.6283 15.3,18.625 C15.1,18.6217 14.8833,18.6183 14.65,18.615 C14.4167,18.6117 14.2017,18.6083 14.005,18.605 C13.8083,18.6017 13.6433,18.5967 13.51,18.59 C13.3767,18.5833 13.31,18.5733 13.31,18.56 C13.31,18.5267 13.3133,18.4983 13.32,18.475 C13.3267,18.4517 13.3367,18.43 13.35,18.41 C13.3233,18.3833 13.31,18.3467 13.31,18.3 C13.31,18.22 13.3533,18.17 13.44,18.15 L13.89,18.1 C13.89,18.0933 13.865,18.0883 13.815,18.085 C13.765,18.0817 13.71,18.0783 13.65,18.075 C13.59,18.0717 13.535,18.0683 13.485,18.065 C13.435,18.0617 13.41,18.0533 13.41,18.04 C13.41,17.9867 13.4167,17.9333 13.43,17.88 C13.4433,17.8267 13.46,17.7933 13.48,17.78 C13.4667,17.7467 13.4567,17.7133 13.45,17.68 C13.4433,17.6467 13.44,17.61 13.44,17.57 C13.44,17.4433 13.4733,17.3567 13.54,17.31 L13.54,17.2 C13.54,17.1533 13.545,17.1133 13.555,17.08 C13.565,17.0467 13.5767,17.0133 13.59,16.98 L14.11,16.92 L13.63,16.9 C13.6167,16.8667 13.61,16.8067 13.61,16.72 C13.61,16.6267 13.63,16.55 13.67,16.49 C13.6167,16.5167 13.5733,16.53 13.54,16.53 C13.4533,16.53 13.39,16.4933 13.35,16.42 L13.31,16.42 L13.31,16.36 C13.2767,16.3067 13.26,16.2533 13.26,16.2 C13.26,16.1667 13.2767,16.1267 13.31,16.08 L13.31,15.79 L13.46,15.79 C13.4733,15.75 13.4933,15.715 13.52,15.685 C13.5467,15.655 13.5767,15.64 13.61,15.64 C13.6167,15.64 13.6267,15.6467 13.64,15.66 L13.65,15.67 L13.65,15.56 L13.61,15.56 C13.61,15.5333 13.635,15.5183 13.685,15.515 C13.735,15.5117 13.7967,15.51 13.87,15.51 L14.62,15.51 C14.6133,15.5033 14.5733,15.4967 14.5,15.49 C14.4267,15.4833 14.3483,15.475 14.265,15.465 C14.1817,15.455 14.105,15.4467 14.035,15.44 C13.965,15.4333 13.93,15.4233 13.93,15.41 C13.93,15.3633 13.9483,15.325 13.985,15.295 C14.0217,15.265 14.0633,15.25 14.11,15.25 C14.1367,15.25 14.1567,15.26 14.17,15.28 C14.1833,15.2733 14.1833,15.265 14.17,15.255 C14.1567,15.245 14.1383,15.235 14.115,15.225 C14.0917,15.215 14.0733,15.2067 14.06,15.2 C14.0467,15.1933 14.0467,15.19 14.06,15.19 L14.34,15.25 L14.34,15.08 L14.34,15.06 C14.3867,15.02 14.4667,15 14.58,15 C14.5867,15 14.6167,14.9967 14.67,14.99 C14.7233,14.9833 14.7833,14.9783 14.85,14.975 C14.9167,14.9717 14.9767,14.9667 15.03,14.96 C15.0833,14.9533 15.1133,14.95 15.12,14.95 L14.28,14.91 C14.28,14.89 14.3117,14.865 14.375,14.835 C14.4383,14.805 14.4767,14.78 14.49,14.76 L14.49,14.72 L14.84,14.72 L14.84,14.48 L15.7,14.46 C15.7067,14.46 15.6917,14.4583 15.655,14.455 C15.6183,14.4517 15.575,14.4483 15.525,14.445 C15.475,14.4417 15.42,14.4383 15.36,14.435 C15.3,14.4317 15.25,14.43 15.21,14.43 L15.38,14.33 L15.68,14.3 C15.68,14.2933 15.6633,14.2867 15.63,14.28 C15.5967,14.2733 15.56,14.2667 15.52,14.26 C15.48,14.2533 15.4433,14.2467 15.41,14.24 C15.3767,14.2333 15.36,14.2267 15.36,14.22 C15.36,14.1867 15.3867,14.17 15.44,14.17 C15.4933,14.17 15.53,14.1567 15.55,14.13 L15.55,14.02 L15.9,14.02 C15.9333,14 15.97,13.9817 16.01,13.965 C16.05,13.9483 16.09,13.94 16.13,13.94 C16.21,13.94 16.2783,13.9583 16.335,13.995 C16.3917,14.0317 16.42,14.0833 16.42,14.15 C16.42,14.19 16.3967,14.2333 16.35,14.28 L16.42,14.28 C16.4867,14.28 16.5367,14.2867 16.57,14.3 C16.5833,14.2867 16.5967,14.28 16.61,14.28 C16.6233,14.28 16.6367,14.28 16.65,14.28 C16.7033,14.28 16.7533,14.3 16.8,14.34 C16.8467,14.38 16.87,14.4333 16.87,14.5 C16.8833,14.5133 16.885,14.5183 16.875,14.515 C16.865,14.5117 16.8517,14.51 16.835,14.51 C16.8183,14.51 16.8017,14.51 16.785,14.51 C16.7683,14.51 16.76,14.5133 16.76,14.52 C16.82,14.52 16.8767,14.5333 16.93,14.56 L16.96,14.56 L16.96,14.58 C16.9267,14.5667 16.91,14.57 16.91,14.59 C16.91,14.6167 16.8967,14.6433 16.87,14.67 C16.8833,14.6833 16.89,14.7 16.89,14.72 C16.89,14.74 16.89,14.76 16.89,14.78 L17,14.72 L17,14.76 C17.0133,14.7667 17.0433,14.7783 17.09,14.795 C17.1367,14.8117 17.185,14.83 17.235,14.85 C17.285,14.87 17.33,14.8917 17.37,14.915 C17.41,14.9383 17.43,14.9567 17.43,14.97 C17.43,14.9833 17.385,14.9917 17.295,14.995 C17.205,14.9983 17.1067,15.0033 17,15.01 C16.8733,15.0167 16.73,15.02 16.57,15.02 C16.5767,15.0267 16.6267,15.0333 16.72,15.04 C16.8133,15.0467 16.9167,15.055 17.03,15.065 C17.1433,15.075 17.2483,15.085 17.345,15.095 C17.4417,15.105 17.4933,15.1167 17.5,15.13 L17.62,15.13 C17.6333,15.13 17.6583,15.145 17.695,15.175 C17.7317,15.205 17.75,15.23 17.75,15.25 L17.84,15.25 C17.9067,15.25 17.9633,15.265 18.01,15.295 C18.0567,15.325 18.08,15.3633 18.08,15.41 C18.08,15.4367 18.0733,15.4567 18.06,15.47 C18.0667,15.4767 18.0267,15.4817 17.94,15.485 C17.8533,15.4883 17.7567,15.4917 17.65,15.495 C17.5433,15.4983 17.4467,15.5033 17.36,15.51 C17.2733,15.5167 17.2333,15.5267 17.24,15.54 L18.16,15.54 C18.18,15.52 18.2233,15.51 18.29,15.51 C18.3767,15.51 18.42,15.5267 18.42,15.56 C18.4533,15.58 18.47,15.5933 18.47,15.6 C18.47,15.6067 18.4533,15.62 18.42,15.64 C18.44,15.66 18.45,15.6833 18.45,15.71 L18.45,15.73 C18.5033,15.73 18.5517,15.735 18.595,15.745 C18.6383,15.755 18.6667,15.77 18.68,15.79 L18.7,15.79 L18.57,16.33 L18.19,16.4 L18.34,16.46 C18.3667,16.46 18.39,16.48 18.41,16.52 C18.43,16.56 18.4483,16.605 18.465,16.655 C18.4817,16.705 18.4933,16.7567 18.5,16.81 C18.5067,16.8633 18.51,16.9 18.51,16.92 C18.51,16.94 18.5067,16.96 18.5,16.98 C18.4933,17 18.4833,17.0233 18.47,17.05 C18.4833,17.07 18.4933,17.0917 18.5,17.115 C18.5067,17.1383 18.51,17.1733 18.51,17.22 C18.51,17.2533 18.5067,17.2817 18.5,17.305 C18.4933,17.3283 18.49,17.35 18.49,17.37 L18.51,17.37 C18.5633,17.39 18.6083,17.4367 18.645,17.51 C18.6817,17.5833 18.7,17.6667 18.7,17.76 C18.7,17.8133 18.6917,17.865 18.675,17.915 C18.6583,17.965 18.64,18.0067 18.62,18.04 C18.6333,18.0733 18.6433,18.11 18.65,18.15 C18.6567,18.19 18.66,18.2333 18.66,18.28 L18.66,18.34 L18.08,18.41 L18.66,18.43 C18.76,18.4967 18.81,18.61 18.81,18.77 L18.81,18.84 M17.67,17.93 C17.6567,17.9167 17.6583,17.9033 17.675,17.89 C17.6917,17.8767 17.7117,17.8617 17.735,17.845 C17.7583,17.8283 17.7817,17.8117 17.805,17.795 C17.8283,17.7783 17.84,17.76 17.84,17.74 C17.84,17.72 17.83,17.6983 17.81,17.675 C17.79,17.6517 17.7683,17.6267 17.745,17.6 C17.7217,17.5733 17.7017,17.5467 17.685,17.52 C17.6683,17.4933 17.6633,17.4733 17.67,17.46 L17.58,16.98 C17.5667,16.9733 17.56,16.9417 17.56,16.885 C17.56,16.8283 17.565,16.7683 17.575,16.705 C17.585,16.6417 17.595,16.5783 17.605,16.515 C17.615,16.4517 17.62,16.4067 17.62,16.38 C17.62,16.3667 17.6433,16.36 17.69,16.36 C17.7367,16.36 17.79,16.36 17.85,16.36 C17.91,16.36 17.9667,16.3583 18.02,16.355 C18.0733,16.3517 18.1067,16.3433 18.12,16.33 L17.43,16.25 C17.4167,16.23 17.4117,16.205 17.415,16.175 C17.4183,16.145 17.425,16.115 17.435,16.085 C17.445,16.055 17.4533,16.0283 17.46,16.005 C17.4667,15.9817 17.4633,15.9633 17.45,15.95 L16.37,15.82 C16.33,15.84 16.2733,15.8483 16.2,15.845 C16.1267,15.8417 16.07,15.84 16.03,15.84 C15.9233,15.84 15.8367,15.8233 15.77,15.79 L15.12,15.84 C15.1067,15.8533 15.125,15.8633 15.175,15.87 C15.225,15.8767 15.28,15.8817 15.34,15.885 C15.4,15.8883 15.4517,15.8917 15.495,15.895 C15.5383,15.8983 15.55,15.9 15.53,15.9 C15.51,15.9 15.4533,15.9017 15.36,15.905 C15.2667,15.9083 15.1683,15.91 15.065,15.91 C14.9617,15.91 14.8667,15.9083 14.78,15.905 C14.6933,15.9017 14.64,15.8933 14.62,15.88 L14.47,16.12 C14.47,16.1267 14.4767,16.145 14.49,16.175 C14.5033,16.205 14.5183,16.2383 14.535,16.275 C14.5517,16.3117 14.5633,16.3483 14.57,16.385 C14.5767,16.4217 14.5733,16.4467 14.56,16.46 L14.08,16.46 C14.0867,16.48 14.1133,16.4933 14.16,16.5 C14.2067,16.5067 14.2567,16.5133 14.31,16.52 C14.3633,16.5267 14.4117,16.535 14.455,16.545 C14.4983,16.555 14.52,16.57 14.52,16.59 C14.52,16.7033 14.5117,16.815 14.495,16.925 C14.4783,17.035 14.4433,17.11 14.39,17.15 L14.28,17.44 C14.34,17.4333 14.38,17.4417 14.4,17.465 C14.42,17.4883 14.43,17.5167 14.43,17.55 C14.43,17.59 14.4233,17.6367 14.41,17.69 C14.41,17.7233 14.3833,17.745 14.33,17.755 C14.2767,17.765 14.2167,17.7717 14.15,17.775 C14.0833,17.7783 14.0217,17.7817 13.965,17.785 C13.9083,17.7883 13.8767,17.8 13.87,17.82 C13.8767,17.8333 13.9017,17.8383 13.945,17.835 C13.9883,17.8317 14.035,17.8283 14.085,17.825 C14.135,17.8217 14.18,17.8183 14.22,17.815 C14.26,17.8117 14.28,17.8133 14.28,17.82 C14.28,17.8333 14.29,17.8733 14.31,17.94 C14.33,18.0067 14.3333,18.04 14.32,18.04 C14.34,18.04 14.3433,18.0467 14.33,18.06 C14.3167,18.0733 14.3,18.0883 14.28,18.105 C14.26,18.1217 14.245,18.1367 14.235,18.15 C14.225,18.1633 14.2333,18.17 14.26,18.17 C14.2733,18.17 14.3183,18.1683 14.395,18.165 C14.4717,18.1617 14.555,18.1567 14.645,18.15 C14.735,18.1433 14.8183,18.1383 14.895,18.135 C14.9717,18.1317 15.0167,18.13 15.03,18.13 C15.05,18.13 15.0733,18.1267 15.1,18.12 C15.1267,18.1133 15.15,18.11 15.17,18.11 L15.14,18.1 L15.16,17.37 L15.31,17.37 L15.29,18.12 C15.31,18.12 15.3267,18.1233 15.34,18.13 L15.36,18.13 C15.3933,18.1167 15.4233,18.1083 15.45,18.105 C15.4767,18.1017 15.51,18.1 15.55,18.1 C15.57,18.1 15.5833,18.1067 15.59,18.12 C15.5967,18.1333 15.6017,18.15 15.605,18.17 C15.6083,18.19 15.6133,18.2083 15.62,18.225 C15.6267,18.2417 15.64,18.2533 15.66,18.26 L15.88,18.31 C15.88,18.3033 15.88,18.2867 15.88,18.26 C15.88,18.2333 15.8817,18.185 15.885,18.115 C15.8883,18.045 15.8917,17.945 15.895,17.815 C15.8983,17.685 15.9067,17.5167 15.92,17.31 L16.11,17.37 L16.03,17.91 L16.11,18.34 L16.13,18.34 C16.1633,18.32 16.2217,18.3117 16.305,18.315 C16.3883,18.3183 16.46,18.32 16.52,18.32 C16.5267,18.3067 16.5383,18.225 16.555,18.075 C16.5717,17.925 16.5967,17.77 16.63,17.61 L16.55,17.11 L16.8,17.05 L16.83,17.72 C16.8367,17.72 16.8417,17.7517 16.845,17.815 C16.8483,17.8783 16.85,17.9483 16.85,18.025 C16.85,18.1017 16.85,18.1733 16.85,18.24 C16.85,18.3067 16.85,18.3467 16.85,18.36 L16.87,18.36 C16.8967,18.36 16.9383,18.35 16.995,18.33 C17.0517,18.31 17.11,18.2867 17.17,18.26 C17.23,18.2333 17.2867,18.21 17.34,18.19 C17.3933,18.17 17.43,18.1633 17.45,18.17 C17.4767,18.15 17.5117,18.1383 17.555,18.135 C17.5983,18.1317 17.6367,18.13 17.67,18.13 L17.62,18 C17.62,17.9867 17.625,17.975 17.635,17.965 C17.645,17.955 17.6567,17.9433 17.67,17.93 M15.1,16.98 C15.1,16.9533 15.1083,16.92 15.125,16.88 C15.1417,16.84 15.16,16.8033 15.18,16.77 C15.2067,16.73 15.2367,16.6867 15.27,16.64 C15.29,16.6867 15.3133,16.73 15.34,16.77 C15.36,16.8033 15.3783,16.84 15.395,16.88 C15.4117,16.92 15.42,16.9533 15.42,16.98 C15.42,17.0267 15.4067,17.0667 15.38,17.1 C15.3533,17.1333 15.3167,17.15 15.27,17.15 C15.2233,17.15 15.1833,17.1333 15.15,17.1 C15.1167,17.0667 15.1,17.0267 15.1,16.98 M15.88,17.07 C15.88,17.05 15.8867,17.025 15.9,16.995 C15.9133,16.965 15.9267,16.9333 15.94,16.9 C15.96,16.8667 15.9833,16.83 16.01,16.79 C16.03,16.83 16.05,16.8667 16.07,16.9 C16.0833,16.9333 16.0967,16.965 16.11,16.995 C16.1233,17.025 16.13,17.05 16.13,17.07 C16.13,17.11 16.1183,17.1483 16.095,17.185 C16.0717,17.2217 16.0433,17.24 16.01,17.24 C15.9633,17.24 15.93,17.2217 15.91,17.185 C15.89,17.1483 15.88,17.11 15.88,17.07 M16.5,16.64 C16.5,16.6067 16.51,16.5683 16.53,16.525 C16.55,16.4817 16.5733,16.44 16.6,16.4 C16.6267,16.3533 16.66,16.3033 16.7,16.25 C16.7333,16.3033 16.7633,16.3533 16.79,16.4 C16.8167,16.44 16.84,16.4817 16.86,16.525 C16.88,16.5683 16.89,16.6067 16.89,16.64 C16.89,16.6933 16.8717,16.7417 16.835,16.785 C16.7983,16.8283 16.7533,16.85 16.7,16.85 C16.6467,16.85 16.6,16.8283 16.56,16.785 C16.52,16.7417 16.5,16.6933 16.5,16.64 "/>
</g>

<g fill="#ffffff" fill-opacity="0.94902" stroke="none" transform="matrix(1,0,0,1,0,0)"
font-family="MS Shell Dlg 2" font-size="8.25" font-weight="400" font-style="normal" 
>
</g>
</g>
</svg>
