<?xml version="1.0" encoding="UTF-8" standalone="no"?>
<svg width="11.2889mm" height="11.2889mm"
 viewBox="0 0 32 32"
 xmlns="http://www.w3.org/2000/svg" xmlns:xlink="http://www.w3.org/1999/xlink"  version="1.2" baseProfile="tiny">
<title>Qt SVG Document</title>
<desc>Generated with Qt</desc>
<defs>
</defs>
<g fill="none" stroke="black" stroke-width="1" fill-rule="evenodd" stroke-linecap="square" stroke-linejoin="bevel" >

<g fill="#66b1e3" fill-opacity="1" stroke="none" transform="matrix(1,0,0,1,0,0)"
font-family="MS Shell Dlg 2" font-size="8.25" font-weight="400" font-style="normal" 
>
<path vector-effect="none" fill-rule="evenodd" d="M21.402,17.114 C21.402,17.87 21.2597,18.5817 20.975,19.249 C20.6903,19.9163 20.2983,20.4973 19.799,20.992 C19.2997,21.4867 18.7163,21.8763 18.049,22.161 C17.3817,22.4457 16.67,22.588 15.914,22.588 C15.158,22.588 14.4463,22.4457 13.779,22.161 C13.1117,21.8763 12.5307,21.4867 12.036,20.992 C11.5413,20.4973 11.1517,19.9163 10.867,19.249 C10.5823,18.5817 10.44,17.87 10.44,17.114 C10.44,16.358 10.5823,15.6463 10.867,14.979 C11.1517,14.3117 11.5413,13.7283 12.036,13.229 C12.5307,12.7297 13.1117,12.3377 13.779,12.053 C14.4463,11.7683 15.158,11.626 15.914,11.626 C16.67,11.626 17.3817,11.7683 18.049,12.053 C18.7163,12.3377 19.2997,12.7297 19.799,13.229 C20.2983,13.7283 20.6903,14.3117 20.975,14.979 C21.2597,15.6463 21.402,16.358 21.402,17.114 "/>
</g>

<g fill="#66b1e3" fill-opacity="1" stroke="none" transform="matrix(1,0,0,1,0,0)"
font-family="MS Shell Dlg 2" font-size="8.25" font-weight="400" font-style="normal" 
>
</g>

<g fill="#ffffff" fill-opacity="1" stroke="none" transform="matrix(1,0,0,1,0,0)"
font-family="MS Shell Dlg 2" font-size="8.25" font-weight="400" font-style="normal" 
>
<path vector-effect="none" fill-rule="evenodd" d="M14.97,15.231 C14.8893,15.1357 14.8013,15.0477 14.706,14.967 C14.618,14.8937 14.5117,14.8258 14.387,14.7635 C14.2623,14.7012 14.1157,14.6517 13.947,14.615 C13.6977,14.571 13.529,14.4977 13.441,14.395 C13.353,14.2923 13.3567,14.2043 13.452,14.131 C13.5327,14.0723 13.6482,14.043 13.7985,14.043 C13.9488,14.043 14.1193,14.109 14.31,14.241 C14.4053,14.307 14.4933,14.3968 14.574,14.5105 C14.6547,14.6242 14.7243,14.7323 14.783,14.835 C14.8197,14.901 14.8527,14.967 14.882,15.033 C14.9113,15.099 14.9407,15.165 14.97,15.231 M16.323,14.12 C16.2717,14.186 16.2148,14.2502 16.1525,14.3125 C16.0902,14.3748 16.0297,14.4647 15.971,14.582 C15.9123,14.6993 15.8573,14.8588 15.806,15.0605 C15.7547,15.2622 15.7107,15.539 15.674,15.891 C15.652,15.6637 15.619,15.4675 15.575,15.3025 C15.531,15.1375 15.487,14.989 15.443,14.857 C15.399,14.725 15.3623,14.6058 15.333,14.4995 C15.3037,14.3932 15.2927,14.2887 15.3,14.186 C15.3147,14.0467 15.3513,13.9238 15.41,13.8175 C15.4687,13.7112 15.5383,13.6232 15.619,13.5535 C15.6997,13.4838 15.7877,13.4343 15.883,13.405 C15.9783,13.3757 16.07,13.3683 16.158,13.383 C16.3633,13.4197 16.4733,13.5095 16.488,13.6525 C16.5027,13.7955 16.4477,13.9513 16.323,14.12 M13.1,14.703 C13.1587,14.6883 13.2265,14.6847 13.3035,14.692 C13.3805,14.6993 13.452,14.7103 13.518,14.725 C13.5547,14.7323 13.5932,14.7397 13.6335,14.747 C13.6738,14.7543 13.7123,14.7653 13.749,14.78 C13.7123,14.7873 13.6775,14.7947 13.6445,14.802 C13.6115,14.8093 13.5767,14.8203 13.54,14.835 C13.4007,14.8717 13.298,14.923 13.232,14.989 C13.1513,15.0697 13.0652,15.1045 12.9735,15.0935 C12.8818,15.0825 12.825,15.0477 12.803,14.989 C12.7883,14.9377 12.8012,14.8827 12.8415,14.824 C12.8818,14.7653 12.968,14.725 13.1,14.703 M14.574,16.496 C14.2953,16.4153 14.1138,16.3145 14.0295,16.1935 C13.9452,16.0725 13.9653,15.9717 14.09,15.891 C14.1927,15.8323 14.3283,15.8048 14.497,15.8085 C14.6657,15.8122 14.8563,15.8983 15.069,16.067 C15.2083,16.177 15.322,16.2998 15.41,16.4355 C15.498,16.5712 15.5658,16.705 15.6135,16.837 C15.6612,16.969 15.6923,17.0937 15.707,17.211 C15.7217,17.3283 15.729,17.4237 15.729,17.497 L15.773,17.497 C15.861,17.497 15.938,17.5043 16.004,17.519 C16.07,17.5337 16.103,17.552 16.103,17.574 L16.103,17.662 C16.103,17.6913 16.07,17.7133 16.004,17.728 C15.938,17.7427 15.861,17.75 15.773,17.75 C15.685,17.75 15.6098,17.7427 15.5475,17.728 C15.4852,17.7133 15.454,17.6913 15.454,17.662 L15.454,17.574 C15.454,17.5593 15.4778,17.5428 15.5255,17.5245 C15.5732,17.5062 15.6337,17.497 15.707,17.497 C15.6923,17.4383 15.663,17.3632 15.619,17.2715 C15.575,17.1798 15.5108,17.0863 15.4265,16.991 C15.3422,16.8957 15.2303,16.804 15.091,16.716 C14.9517,16.628 14.7793,16.5547 14.574,16.496 M14.178,15 C14.2293,14.978 14.3063,14.9835 14.409,15.0165 C14.5117,15.0495 14.651,15.1173 14.827,15.22 C14.9663,15.3007 15.0818,15.3942 15.1735,15.5005 C15.2652,15.6068 15.3367,15.7077 15.388,15.803 C15.4393,15.913 15.4833,16.023 15.52,16.133 C15.4907,16.0743 15.4577,16.0212 15.421,15.9735 C15.3843,15.9258 15.3477,15.8763 15.311,15.825 C15.2377,15.7443 15.1442,15.6618 15.0305,15.5775 C14.9168,15.4932 14.7793,15.4327 14.618,15.396 C14.3833,15.3447 14.2367,15.275 14.178,15.187 C14.1193,15.099 14.1193,15.0367 14.178,15 M16.983,18.718 L16.983,19.884 C16.8143,19.9353 16.6365,19.9757 16.4495,20.005 C16.2625,20.0343 16.0663,20.049 15.861,20.049 C15.6483,20.049 15.4393,20.0325 15.234,19.9995 C15.0287,19.9665 14.8417,19.9207 14.673,19.862 L14.673,18.729 C14.5263,18.6997 14.4072,18.6667 14.3155,18.63 C14.2238,18.5933 14.178,18.5567 14.178,18.52 L14.178,18.465 C14.3173,18.5237 14.5282,18.5695 14.8105,18.6025 C15.0928,18.6355 15.421,18.652 15.795,18.652 C16.169,18.652 16.499,18.6355 16.785,18.6025 C17.071,18.5695 17.28,18.5237 17.412,18.465 L17.412,18.52 C17.412,18.6007 17.2653,18.6667 16.972,18.718 L16.983,18.718 M16.389,16.529 C16.3083,16.5437 16.235,16.5767 16.169,16.628 C16.103,16.6793 16.0443,16.7343 15.993,16.793 C15.9637,16.8297 15.9362,16.8682 15.9105,16.9085 C15.8848,16.9488 15.861,16.991 15.839,17.035 C15.839,16.969 15.85,16.8957 15.872,16.815 C15.8867,16.749 15.9142,16.6775 15.9545,16.6005 C15.9948,16.5235 16.0553,16.4483 16.136,16.375 C16.2607,16.2503 16.3762,16.1752 16.4825,16.1495 C16.5888,16.1238 16.675,16.1257 16.741,16.155 C16.785,16.177 16.8162,16.2063 16.8345,16.243 C16.8528,16.2797 16.8528,16.3163 16.8345,16.353 C16.8162,16.3897 16.7722,16.4245 16.7025,16.4575 C16.6328,16.4905 16.5283,16.5143 16.389,16.529 M18.633,14.571 C18.765,14.593 18.8512,14.6333 18.8915,14.692 C18.9318,14.7507 18.9447,14.8093 18.93,14.868 C18.908,14.9413 18.8493,14.9835 18.754,14.9945 C18.6587,15.0055 18.5707,14.9707 18.49,14.89 C18.424,14.824 18.3213,14.7727 18.182,14.736 C18.1453,14.7213 18.1105,14.7103 18.0775,14.703 C18.0445,14.6957 18.0097,14.6883 17.973,14.681 L18.204,14.615 C18.27,14.6003 18.3415,14.5875 18.4185,14.5765 C18.4955,14.5655 18.567,14.5637 18.633,14.571 M17.17,14.054 C17.3167,13.9953 17.4413,13.9752 17.544,13.9935 C17.6467,14.0118 17.7163,14.0467 17.753,14.098 C17.797,14.1567 17.7915,14.2208 17.7365,14.2905 C17.6815,14.3602 17.5807,14.3913 17.434,14.384 C17.214,14.3693 17.027,14.3932 16.873,14.4555 C16.719,14.5178 16.5723,14.6113 16.433,14.736 C16.5137,14.582 16.6182,14.4445 16.7465,14.3235 C16.8748,14.2025 17.016,14.1127 17.17,14.054 M17.544,14.956 C17.676,15.066 17.6723,15.1797 17.533,15.297 C17.3937,15.4143 17.1663,15.484 16.851,15.506 C16.631,15.528 16.4532,15.5812 16.3175,15.6655 C16.1818,15.7498 16.0737,15.8433 15.993,15.946 C15.905,16.0707 15.839,16.1953 15.795,16.32 C15.8023,16.2613 15.8133,16.2027 15.828,16.144 C15.8427,16.0853 15.8573,16.0267 15.872,15.968 C15.9087,15.8653 15.96,15.7535 16.026,15.6325 C16.092,15.5115 16.1837,15.3923 16.301,15.275 C16.5357,15.0403 16.774,14.9028 17.016,14.8625 C17.258,14.8222 17.434,14.8533 17.544,14.956 M17.566,18.3 C17.566,18.3367 17.5202,18.3697 17.4285,18.399 C17.3368,18.4283 17.2103,18.454 17.049,18.476 C16.8877,18.498 16.6988,18.5163 16.4825,18.531 C16.2662,18.5457 16.037,18.553 15.795,18.553 C15.553,18.553 15.3257,18.5457 15.113,18.531 C14.9003,18.5163 14.7133,18.498 14.552,18.476 C14.3907,18.454 14.2642,18.4283 14.1725,18.399 C14.0808,18.3697 14.035,18.3367 14.035,18.3 C14.035,18.234 14.1762,18.179 14.4585,18.135 C14.7408,18.091 15.0947,18.0617 15.52,18.047 L15.52,17.783 C15.586,17.8123 15.6703,17.827 15.773,17.827 C15.883,17.827 15.971,17.8123 16.037,17.783 L16.037,18.047 C16.2497,18.047 16.4495,18.0543 16.6365,18.069 C16.8235,18.0837 16.9848,18.102 17.1205,18.124 C17.2562,18.146 17.3643,18.1735 17.445,18.2065 C17.5257,18.2395 17.566,18.2707 17.566,18.3 M15.52,18.113 C15.212,18.1203 14.9608,18.1405 14.7665,18.1735 C14.5722,18.2065 14.475,18.2487 14.475,18.3 C14.6143,18.3293 14.7995,18.3513 15.0305,18.366 C15.2615,18.3807 15.5163,18.388 15.795,18.388 C16.0737,18.388 16.3303,18.3807 16.565,18.366 C16.7997,18.3513 16.9867,18.3293 17.126,18.3 C17.126,18.2487 17.0215,18.2065 16.8125,18.1735 C16.6035,18.1405 16.345,18.1203 16.037,18.113 L16.037,18.212 C16.037,18.212 16.015,18.2193 15.971,18.234 C15.949,18.2413 15.9197,18.245 15.883,18.245 C15.8463,18.245 15.8097,18.245 15.773,18.245 C15.6703,18.245 15.608,18.2413 15.586,18.234 C15.542,18.2193 15.52,18.212 15.52,18.212 L15.52,18.113"/>
</g>

<g fill="#ffffff" fill-opacity="1" stroke="none" transform="matrix(1,0,0,1,0,0)"
font-family="MS Shell Dlg 2" font-size="8.25" font-weight="400" font-style="normal" 
>
</g>
</g>
</svg>
