<?xml version="1.0" encoding="UTF-8" standalone="no"?>
<svg width="11.2889mm" height="11.2889mm"
 viewBox="0 0 32 32"
 xmlns="http://www.w3.org/2000/svg" xmlns:xlink="http://www.w3.org/1999/xlink"  version="1.2" baseProfile="tiny">
<title>Qt SVG Document</title>
<desc>Generated with Qt</desc>
<defs>
</defs>
<g fill="none" stroke="black" stroke-width="1" fill-rule="evenodd" stroke-linecap="square" stroke-linejoin="bevel" >

<g fill="#3d97f1" fill-opacity="1" stroke="none" transform="matrix(1,0,0,1,0,0)"
font-family="MS Shell Dlg 2" font-size="8.25" font-weight="400" font-style="normal" 
>
<path vector-effect="none" fill-rule="evenodd" d="M21.402,17.114 C21.402,17.87 21.2597,18.5817 20.975,19.249 C20.6903,19.9163 20.2983,20.4973 19.799,20.992 C19.2997,21.4867 18.7163,21.8763 18.049,22.161 C17.3817,22.4457 16.67,22.588 15.914,22.588 C15.158,22.588 14.4463,22.4457 13.779,22.161 C13.1117,21.8763 12.5307,21.4867 12.036,20.992 C11.5413,20.4973 11.1517,19.9163 10.867,19.249 C10.5823,18.5817 10.44,17.87 10.44,17.114 C10.44,16.358 10.5823,15.6463 10.867,14.979 C11.1517,14.3117 11.5413,13.7283 12.036,13.229 C12.5307,12.7297 13.1117,12.3377 13.779,12.053 C14.4463,11.7683 15.158,11.626 15.914,11.626 C16.67,11.626 17.3817,11.7683 18.049,12.053 C18.7163,12.3377 19.2997,12.7297 19.799,13.229 C20.2983,13.7283 20.6903,14.3117 20.975,14.979 C21.2597,15.6463 21.402,16.358 21.402,17.114 "/>
</g>

<g fill="#3d97f1" fill-opacity="1" stroke="none" transform="matrix(1,0,0,1,0,0)"
font-family="MS Shell Dlg 2" font-size="8.25" font-weight="400" font-style="normal" 
>
</g>

<g fill="#ffffff" fill-opacity="0.94902" stroke="none" transform="matrix(1,0,0,1,0,0)"
font-family="MS Shell Dlg 2" font-size="8.25" font-weight="400" font-style="normal" 
>
<path vector-effect="none" fill-rule="evenodd" d="M17.104,18.443 C17.0527,18.4943 17.027,18.5347 17.027,18.564 L17.94,20.104 L17.3914,20.104 L17.3365,20.005 C17.322,19.9903 17.3037,19.983 17.2817,19.983 L14.4403,19.983 C14.4037,19.983 14.3855,19.9903 14.3855,20.005 L14.3086,20.104 L13.782,20.104 L14.695,18.542 C14.6877,18.5347 14.6803,18.5237 14.673,18.509 L14.64,18.443 L13.903,18.014 C13.8517,17.9847 13.8095,17.9462 13.7765,17.8985 C13.7435,17.8508 13.727,17.7867 13.727,17.706 L13.727,15.198 C13.727,15.1393 13.7472,15.0807 13.7875,15.022 C13.8278,14.9633 13.8773,14.923 13.936,14.901 C13.9873,14.8717 14.024,14.8295 14.046,14.7745 C14.068,14.7195 14.079,14.659 14.079,14.593 L14.079,13.966 C14.079,13.8413 14.1175,13.7368 14.1945,13.6525 C14.2715,13.5682 14.3613,13.5113 14.464,13.482 L15.773,13.207 L15.883,13.207 L15.949,13.207 L17.269,13.482 C17.3863,13.5113 17.4798,13.5682 17.5495,13.6525 C17.6192,13.7368 17.654,13.8413 17.654,13.966 L17.654,14.593 C17.654,14.7397 17.7108,14.8423 17.8245,14.901 C17.8742,14.923 17.9151,14.9633 17.947,15.022 C17.979,15.0807 17.995,15.1393 17.995,15.198 L17.995,17.706 C17.995,17.7867 17.9785,17.8508 17.9455,17.8985 C17.9125,17.9462 17.8703,17.9847 17.819,18.014 L17.104,18.443 M16.059,14.241 C16.059,14.307 16.0847,14.34 16.136,14.34 L17.192,14.549 C17.2213,14.549 17.2507,14.538 17.28,14.516 C17.3093,14.494 17.324,14.4683 17.324,14.439 L17.324,13.966 C17.324,13.8927 17.2873,13.856 17.214,13.856 L16.18,13.658 L16.158,13.658 C16.092,13.658 16.059,13.6837 16.059,13.735 L16.059,14.241 M16.741,18.872 C16.7263,18.8647 16.7117,18.8445 16.697,18.8115 C16.6823,18.7785 16.664,18.7437 16.642,18.707 C16.6127,18.663 16.587,18.6153 16.565,18.564 C16.5503,18.564 16.5412,18.5603 16.5375,18.553 C16.5338,18.5457 16.5247,18.542 16.51,18.542 L15.201,18.542 L15.168,18.564 C15.1607,18.564 15.1497,18.5787 15.135,18.608 C15.1203,18.6373 15.102,18.6703 15.08,18.707 C15.058,18.7437 15.0397,18.7785 15.025,18.8115 C15.0103,18.8445 14.9993,18.8647 14.992,18.872 C14.9773,18.8867 14.9737,18.8977 14.981,18.905 C14.9883,18.9123 14.9993,18.916 15.014,18.916 L16.686,18.916 C16.7227,18.916 16.741,18.9013 16.741,18.872 M15.883,14.802 C15.729,14.802 15.597,14.857 15.487,14.967 C15.377,15.077 15.322,15.2053 15.322,15.352 C15.322,15.506 15.377,15.638 15.487,15.748 C15.597,15.858 15.729,15.913 15.883,15.913 C16.0297,15.913 16.1543,15.858 16.257,15.748 C16.3597,15.638 16.411,15.506 16.411,15.352 C16.411,15.2053 16.3597,15.077 16.257,14.967 C16.1543,14.857 16.0297,14.802 15.883,14.802 M14.431,14.439 C14.431,14.5123 14.4643,14.549 14.5309,14.549 L14.553,14.549 L15.5963,14.34 C15.6481,14.34 15.674,14.307 15.674,14.241 L15.707,13.735 C15.707,13.7057 15.6922,13.6855 15.6627,13.6745 C15.6332,13.6635 15.6037,13.658 15.5741,13.658 L15.552,13.658 L14.4975,13.856 C14.4532,13.856 14.431,13.8927 14.431,13.966 L14.431,14.439 M14.64,17.299 C14.728,17.299 14.805,17.266 14.871,17.2 C14.937,17.134 14.97,17.057 14.97,16.969 C14.97,16.8663 14.937,16.782 14.871,16.716 C14.805,16.65 14.728,16.617 14.64,16.617 C14.5373,16.617 14.453,16.65 14.387,16.716 C14.321,16.782 14.288,16.8663 14.288,16.969 C14.288,17.057 14.321,17.134 14.387,17.2 C14.453,17.266 14.5373,17.299 14.64,17.299 M17.115,19.576 C17.115,19.5687 17.1077,19.5503 17.093,19.521 C17.0783,19.4917 17.06,19.4605 17.038,19.4275 C17.016,19.3945 16.9958,19.3633 16.9775,19.334 C16.9592,19.3047 16.9463,19.2863 16.939,19.279 L16.939,19.268 C16.939,19.2533 16.9317,19.246 16.917,19.246 L14.816,19.246 C14.8087,19.246 14.7977,19.2533 14.783,19.268 C14.7757,19.2753 14.7683,19.279 14.761,19.279 C14.761,19.2937 14.7353,19.3432 14.684,19.4275 C14.6327,19.5118 14.5997,19.5613 14.585,19.576 C14.585,19.6127 14.6033,19.631 14.64,19.631 L17.093,19.631 C17.1077,19.631 17.1187,19.6255 17.126,19.6145 C17.1333,19.6035 17.1297,19.5907 17.115,19.576 M17.0873,17.299 C17.174,17.299 17.2497,17.266 17.3146,17.2 C17.3795,17.134 17.412,17.057 17.412,16.969 C17.412,16.8663 17.3795,16.782 17.3146,16.716 C17.2497,16.65 17.174,16.617 17.0873,16.617 C16.9863,16.617 16.9033,16.65 16.8384,16.716 C16.7735,16.782 16.741,16.8663 16.741,16.969 C16.741,17.057 16.7735,17.134 16.8384,17.2 C16.9033,17.266 16.9863,17.299 17.0873,17.299 "/>
</g>

<g fill="#ffffff" fill-opacity="0.94902" stroke="none" transform="matrix(1,0,0,1,0,0)"
font-family="MS Shell Dlg 2" font-size="8.25" font-weight="400" font-style="normal" 
>
</g>
</g>
</svg>
