<?xml version="1.0" encoding="UTF-8" standalone="no"?>
<svg width="11.2889mm" height="11.2889mm"
 viewBox="0 0 32 32"
 xmlns="http://www.w3.org/2000/svg" xmlns:xlink="http://www.w3.org/1999/xlink"  version="1.2" baseProfile="tiny">
<title>Qt SVG Document</title>
<desc>Generated with Qt</desc>
<defs>
</defs>
<g fill="none" stroke="black" stroke-width="1" fill-rule="evenodd" stroke-linecap="square" stroke-linejoin="bevel" >

<g fill="none" stroke="none" transform="matrix(1,0,0,1,0,0)"
font-family="MS Shell Dlg 2" font-size="8.25" font-weight="400" font-style="normal" 
>
</g>

<g fill="none" stroke="none" transform="matrix(1.33333,0,0,1.33333,0,0)"
font-family="MS Shell Dlg 2" font-size="8.25" font-weight="400" font-style="normal" 
>
</g>

<g fill="#b75800" fill-opacity="1" stroke="none" transform="matrix(1,0,0,1,0,0)"
font-family="MS Shell Dlg 2" font-size="8.25" font-weight="400" font-style="normal" 
>
<path vector-effect="none" fill-rule="evenodd" d="M21.402,17.114 C21.402,17.87 21.2597,18.5817 20.975,19.249 C20.6903,19.9163 20.2983,20.4973 19.799,20.992 C19.2997,21.4867 18.7163,21.8763 18.049,22.161 C17.3817,22.4457 16.67,22.588 15.914,22.588 C15.158,22.588 14.4463,22.4457 13.779,22.161 C13.1117,21.8763 12.5307,21.4867 12.036,20.992 C11.5413,20.4973 11.1517,19.9163 10.867,19.249 C10.5823,18.5817 10.44,17.87 10.44,17.114 C10.44,16.358 10.5823,15.6463 10.867,14.979 C11.1517,14.3117 11.5413,13.7283 12.036,13.229 C12.5307,12.7297 13.1117,12.3377 13.779,12.053 C14.4463,11.7683 15.158,11.626 15.914,11.626 C16.67,11.626 17.3817,11.7683 18.049,12.053 C18.7163,12.3377 19.2997,12.7297 19.799,13.229 C20.2983,13.7283 20.6903,14.3117 20.975,14.979 C21.2597,15.6463 21.402,16.358 21.402,17.114 "/>
</g>

<g fill="none" stroke="none" transform="matrix(1.33333,0,0,1.33333,0,0)"
font-family="MS Shell Dlg 2" font-size="8.25" font-weight="400" font-style="normal" 
>
</g>

<g fill="none" stroke="none" transform="matrix(1,0,0,1,0,0)"
font-family="MS Shell Dlg 2" font-size="8.25" font-weight="400" font-style="normal" 
>
</g>

<g fill="none" stroke="#000000" stroke-opacity="1" stroke-width="1" stroke-linecap="square" stroke-linejoin="bevel" transform="matrix(1,0,0,1,0,0)"
font-family="MS Shell Dlg 2" font-size="8.25" font-weight="400" font-style="normal" 
>
</g>

<g fill="none" stroke="none" transform="matrix(1,0,0,1,0,0)"
font-family="MS Shell Dlg 2" font-size="8.25" font-weight="400" font-style="normal" 
>
</g>

<g fill="none" stroke="none" transform="matrix(1.33333,0,0,1.33333,0,0)"
font-family="MS Shell Dlg 2" font-size="8.25" font-weight="400" font-style="normal" 
>
</g>

<g fill="#ffffff" fill-opacity="1" stroke="none" transform="matrix(1,0,0,1,0,0)"
font-family="MS Shell Dlg 2" font-size="8.25" font-weight="400" font-style="normal" 
>
<path vector-effect="none" fill-rule="evenodd" d="M18.57,14.47 C18.6233,14.4633 18.6667,14.47 18.7,14.49 C18.7333,14.51 18.7633,14.5333 18.79,14.56 C18.8167,14.5867 18.84,14.62 18.86,14.66 L18.86,19.52 C18.42,19.52 18.0483,19.4767 17.745,19.39 C17.4417,19.3033 17.19,19.2033 16.99,19.09 C16.7567,18.97 16.5633,18.8267 16.41,18.66 C16.3833,18.62 16.38,18.5883 16.4,18.565 C16.42,18.5417 16.4483,18.5217 16.485,18.505 C16.5217,18.4883 16.5617,18.475 16.605,18.465 C16.6483,18.455 16.6833,18.44 16.71,18.42 C16.7833,18.3867 16.8333,18.355 16.86,18.325 C16.8867,18.295 16.9017,18.2633 16.905,18.23 C16.9083,18.1967 16.905,18.1533 16.895,18.1 C16.885,18.0467 16.88,17.98 16.88,17.9 C16.88,17.72 16.86,17.5633 16.82,17.43 C16.78,17.2967 16.74,17.1833 16.7,17.09 C16.66,16.9967 16.6283,16.9217 16.605,16.865 C16.5817,16.8083 16.59,16.77 16.63,16.75 C16.8433,16.6233 16.9767,16.4883 17.03,16.345 C17.0833,16.2017 17.1033,16.065 17.09,15.935 C17.0767,15.805 17.0583,15.6917 17.035,15.595 C17.0117,15.4983 17.03,15.44 17.09,15.42 C17.1833,15.4067 17.2417,15.38 17.265,15.34 C17.2883,15.3 17.3017,15.26 17.305,15.22 C17.3083,15.18 17.3133,15.1417 17.32,15.105 C17.3267,15.0683 17.3633,15.0467 17.43,15.04 C17.5167,15.0333 17.5617,15.0217 17.565,15.005 C17.5683,14.9883 17.5567,14.9633 17.53,14.93 C17.5033,14.8967 17.4767,14.855 17.45,14.805 C17.4233,14.755 17.4233,14.6933 17.45,14.62 C17.51,14.6 17.59,14.58 17.69,14.56 C17.7767,14.5467 17.8917,14.5317 18.035,14.515 C18.1783,14.4983 18.3567,14.4833 18.57,14.47 M15.25,18.95 C15.2833,18.9833 15.3167,19.0217 15.35,19.065 C15.3833,19.1083 15.3933,19.1467 15.38,19.18 C15.38,19.1867 15.375,19.2083 15.365,19.245 C15.355,19.2817 15.305,19.32 15.215,19.36 C15.125,19.4 14.98,19.4367 14.78,19.47 C14.58,19.5033 14.2867,19.52 13.9,19.52 L13.71,19.52 L13.23,19.52 L13.23,14.47 C13.2433,14.4567 13.2583,14.44 13.275,14.42 C13.2917,14.4 13.31,14.39 13.33,14.39 C13.5367,14.39 13.6917,14.4017 13.795,14.425 C13.8983,14.4483 13.98,14.4733 14.04,14.5 C14.1,14.5267 14.1517,14.545 14.195,14.555 C14.2383,14.565 14.3033,14.5533 14.39,14.52 C14.4033,14.56 14.435,14.6167 14.485,14.69 C14.535,14.7633 14.56,14.8167 14.56,14.85 C14.56,14.8967 14.585,14.9317 14.635,14.955 C14.685,14.9783 14.74,15 14.8,15.02 C14.86,15.04 14.91,15.0633 14.95,15.09 C14.99,15.1167 15,15.1567 14.98,15.21 C14.96,15.27 14.9317,15.3183 14.895,15.355 C14.8583,15.3917 14.825,15.425 14.795,15.455 C14.765,15.485 14.74,15.52 14.72,15.56 C14.7,15.6 14.6933,15.6533 14.7,15.72 C14.7,15.7667 14.7283,15.8367 14.785,15.93 C14.8417,16.0233 14.8983,16.1233 14.955,16.23 C15.0117,16.3367 15.055,16.4417 15.085,16.545 C15.115,16.6483 15.1,16.7333 15.04,16.8 C15.02,16.96 15.0267,17.0783 15.06,17.155 C15.0933,17.2317 15.135,17.2933 15.185,17.34 C15.235,17.3867 15.2817,17.4317 15.325,17.475 C15.3683,17.5183 15.3867,17.5867 15.38,17.68 C15.3733,17.7733 15.355,17.84 15.325,17.88 C15.295,17.92 15.2617,17.9683 15.225,18.025 C15.1883,18.0817 15.155,18.16 15.125,18.26 C15.095,18.36 15.08,18.52 15.08,18.74 C15.08,18.76 15.1033,18.795 15.15,18.845 C15.1967,18.895 15.23,18.93 15.25,18.95 M16.06,18.51 C16.0867,18.5433 16.0733,18.5633 16.02,18.57 C15.9667,18.5767 15.9217,18.5917 15.885,18.615 C15.8483,18.6383 15.8467,18.6833 15.88,18.75 C15.9133,18.8167 16.0267,18.92 16.22,19.06 C16.28,19.1067 16.3617,19.155 16.465,19.205 C16.5683,19.255 16.67,19.3033 16.77,19.35 C16.89,19.4033 17.0167,19.46 17.15,19.52 L15.57,19.52 C15.7033,19.3867 15.7667,19.28 15.76,19.2 C15.7533,19.12 15.7167,19.0433 15.65,18.97 C15.5767,18.8967 15.5483,18.8117 15.565,18.715 C15.5817,18.6183 15.6733,18.55 15.84,18.51 C15.8733,18.5033 15.8917,18.495 15.895,18.485 C15.8983,18.475 15.9,18.465 15.9,18.455 C15.9,18.445 15.9017,18.435 15.905,18.425 C15.9083,18.415 15.9233,18.4067 15.95,18.4 C16.0233,18.3667 16.1333,18.3417 16.28,18.325 C16.4267,18.3083 16.5567,18.3 16.67,18.3 C16.5367,18.3133 16.4233,18.3333 16.33,18.36 C16.25,18.38 16.1783,18.4033 16.115,18.43 C16.0517,18.4567 16.0333,18.4833 16.06,18.51 "/>
</g>

<g fill="none" stroke="none" transform="matrix(1.33333,0,0,1.33333,0,0)"
font-family="MS Shell Dlg 2" font-size="8.25" font-weight="400" font-style="normal" 
>
</g>

<g fill="none" stroke="none" transform="matrix(1,0,0,1,0,0)"
font-family="MS Shell Dlg 2" font-size="8.25" font-weight="400" font-style="normal" 
>
</g>

<g fill="none" stroke="#000000" stroke-opacity="1" stroke-width="1" stroke-linecap="square" stroke-linejoin="bevel" transform="matrix(1,0,0,1,0,0)"
font-family="MS Shell Dlg 2" font-size="8.25" font-weight="400" font-style="normal" 
>
</g>
</g>
</svg>
