<?xml version="1.0" encoding="UTF-8" standalone="no"?>
<svg width="11.2889mm" height="11.2889mm"
 viewBox="0 0 32 32"
 xmlns="http://www.w3.org/2000/svg" xmlns:xlink="http://www.w3.org/1999/xlink"  version="1.2" baseProfile="tiny">
<title>Qt SVG Document</title>
<desc>Generated with Qt</desc>
<defs>
</defs>
<g fill="none" stroke="black" stroke-width="1" fill-rule="evenodd" stroke-linecap="square" stroke-linejoin="bevel" >

<g fill="#53a54f" fill-opacity="1" stroke="none" transform="matrix(1,0,0,1,0,0)"
font-family="MS Shell Dlg 2" font-size="8.25" font-weight="400" font-style="normal" 
>
<path vector-effect="none" fill-rule="evenodd" d="M21.402,17.114 C21.402,17.87 21.2597,18.5817 20.975,19.249 C20.6903,19.9163 20.2983,20.4973 19.799,20.992 C19.2997,21.4867 18.7163,21.8763 18.049,22.161 C17.3817,22.4457 16.67,22.588 15.914,22.588 C15.158,22.588 14.4463,22.4457 13.779,22.161 C13.1117,21.8763 12.5307,21.4867 12.036,20.992 C11.5413,20.4973 11.1517,19.9163 10.867,19.249 C10.5823,18.5817 10.44,17.87 10.44,17.114 C10.44,16.358 10.5823,15.6463 10.867,14.979 C11.1517,14.3117 11.5413,13.7283 12.036,13.229 C12.5307,12.7297 13.1117,12.3377 13.779,12.053 C14.4463,11.7683 15.158,11.626 15.914,11.626 C16.67,11.626 17.3817,11.7683 18.049,12.053 C18.7163,12.3377 19.2997,12.7297 19.799,13.229 C20.2983,13.7283 20.6903,14.3117 20.975,14.979 C21.2597,15.6463 21.402,16.358 21.402,17.114 "/>
</g>

<g fill="#53a54f" fill-opacity="1" stroke="none" transform="matrix(1,0,0,1,0,0)"
font-family="MS Shell Dlg 2" font-size="8.25" font-weight="400" font-style="normal" 
>
</g>

<g fill="#ffffff" fill-opacity="1" stroke="none" transform="matrix(1,0,0,1,0,0)"
font-family="MS Shell Dlg 2" font-size="8.25" font-weight="400" font-style="normal" 
>
<path vector-effect="none" fill-rule="evenodd" d="M14.431,16.463 C14.299,16.485 14.1798,16.5327 14.0735,16.606 C13.9672,16.6793 13.8847,16.771 13.826,16.881 C13.7673,16.991 13.738,17.1157 13.738,17.255 C13.738,17.3943 13.782,17.541 13.87,17.695 C13.8773,17.6217 13.881,17.541 13.881,17.453 C13.881,17.365 13.8975,17.2825 13.9305,17.2055 C13.9635,17.1285 14.0203,17.0588 14.101,16.9965 C14.1817,16.9342 14.3063,16.8957 14.475,16.881 C14.5703,16.8663 14.6528,16.8572 14.7225,16.8535 C14.7922,16.8498 14.8637,16.859 14.937,16.881 C14.9003,17.057 14.8783,17.2403 14.871,17.431 C14.8637,17.6217 14.8783,17.8233 14.915,18.036 C14.761,18.1313 14.607,18.179 14.453,18.179 C14.233,18.179 14.0423,18.1038 13.881,17.9535 C13.7197,17.8032 13.5547,17.6217 13.386,17.409 C13.2907,17.2843 13.199,17.1487 13.111,17.002 C13.023,16.8553 12.9497,16.6995 12.891,16.5345 C12.8323,16.3695 12.792,16.199 12.77,16.023 C12.748,15.847 12.7553,15.6637 12.792,15.473 C12.814,15.3483 12.8213,15.2328 12.814,15.1265 C12.8067,15.0202 12.7975,14.9193 12.7865,14.824 C12.7755,14.7287 12.7682,14.6333 12.7645,14.538 C12.7608,14.4427 12.77,14.34 12.792,14.23 C12.836,14.054 12.8782,13.9587 12.9185,13.944 C12.9588,13.9293 13.0322,13.9458 13.1385,13.9935 C13.2448,14.0412 13.4025,14.0998 13.6115,14.1695 C13.8205,14.2392 14.1157,14.274 14.497,14.274 C14.871,14.2813 15.1625,14.252 15.3715,14.186 C15.5805,14.12 15.74,14.0632 15.85,14.0155 C15.96,13.9678 16.0333,13.955 16.07,13.977 C16.1067,13.999 16.1433,14.098 16.18,14.274 C16.202,14.428 16.202,14.5747 16.18,14.714 C16.0847,14.7873 16.015,14.857 15.971,14.923 C15.9343,14.9597 15.9087,14.9872 15.894,15.0055 C15.8793,15.0238 15.861,15.0587 15.839,15.11 C15.7803,15.132 15.6997,15.1412 15.597,15.1375 C15.4943,15.1338 15.3953,15.1247 15.3,15.11 C15.212,15.11 15.135,15.0917 15.069,15.055 C15.003,15.0183 14.9425,14.9762 14.8875,14.9285 C14.8325,14.8808 14.7848,14.8332 14.7445,14.7855 C14.7042,14.7378 14.6693,14.7067 14.64,14.692 C14.64,14.736 14.6437,14.8002 14.651,14.8845 C14.6583,14.9688 14.6785,15.0513 14.7115,15.132 C14.7445,15.2127 14.7977,15.2878 14.871,15.3575 C14.9443,15.4272 15.0507,15.473 15.19,15.495 C15.2633,15.5097 15.355,15.5005 15.465,15.4675 C15.575,15.4345 15.652,15.407 15.696,15.385 L15.63,15.517 C15.5933,15.6123 15.5585,15.6967 15.5255,15.77 C15.4925,15.8433 15.443,15.9203 15.377,16.001 C15.2963,16.1037 15.2303,16.199 15.179,16.287 C15.1277,16.375 15.0763,16.4813 15.025,16.606 C14.959,16.5693 14.8692,16.5327 14.7555,16.496 C14.6418,16.4593 14.5337,16.4483 14.431,16.463 M13.738,15.451 C13.8773,15.4583 13.9855,15.4308 14.0625,15.3685 C14.1395,15.3062 14.1982,15.2328 14.2385,15.1485 C14.2788,15.0642 14.3045,14.978 14.3155,14.89 C14.3265,14.802 14.332,14.736 14.332,14.692 C14.2953,14.7067 14.2568,14.736 14.2165,14.78 C14.1762,14.824 14.1267,14.868 14.068,14.912 C14.0093,14.956 13.9415,14.9963 13.8645,15.033 C13.7875,15.0697 13.6977,15.088 13.595,15.088 C13.4923,15.1027 13.3933,15.11 13.298,15.11 C13.2027,15.11 13.1183,15.0917 13.045,15.055 C13.0597,15.1503 13.144,15.2365 13.298,15.3135 C13.452,15.3905 13.5987,15.4363 13.738,15.451 M17.731,15.979 C18.0683,16.1623 18.3488,16.276 18.5725,16.32 C18.7962,16.364 18.9685,16.3933 19.0895,16.408 C19.2105,16.4227 19.2838,16.4483 19.3095,16.485 C19.3352,16.5217 19.3223,16.6243 19.271,16.793 C19.2343,16.8957 19.1903,16.9873 19.139,17.068 C19.0877,17.1487 19.0345,17.2275 18.9795,17.3045 C18.9245,17.3815 18.8695,17.4658 18.8145,17.5575 C18.7595,17.6492 18.7137,17.7537 18.677,17.871 C18.5597,18.2377 18.358,18.5328 18.072,18.7565 C17.786,18.9802 17.4853,19.1543 17.17,19.279 C16.9353,19.3743 16.7117,19.4477 16.499,19.499 C16.2863,19.5503 16.081,19.5173 15.883,19.4 C15.685,19.2973 15.5475,19.1433 15.4705,18.938 C15.3935,18.7327 15.3293,18.5017 15.278,18.245 C15.2413,18.0763 15.2175,17.904 15.2065,17.728 C15.1955,17.552 15.201,17.376 15.223,17.2 C15.245,17.024 15.2908,16.8535 15.3605,16.6885 C15.4302,16.5235 15.5273,16.364 15.652,16.21 C15.7253,16.1147 15.784,16.0212 15.828,15.9295 C15.872,15.8378 15.9123,15.7462 15.949,15.6545 C15.9857,15.5628 16.0242,15.4748 16.0645,15.3905 C16.1048,15.3062 16.158,15.22 16.224,15.132 C16.3413,15 16.422,14.9358 16.466,14.9395 C16.51,14.9432 16.5687,14.9908 16.642,15.0825 C16.7153,15.1742 16.829,15.3007 16.983,15.462 C17.137,15.6233 17.3863,15.7957 17.731,15.979 M16.62,16.1 C16.554,16.0633 16.4843,16.045 16.411,16.045 C16.3377,16.045 16.2662,16.056 16.1965,16.078 C16.1268,16.1 16.0645,16.133 16.0095,16.177 C15.9545,16.221 15.9123,16.2723 15.883,16.331 C15.9637,16.309 16.037,16.3182 16.103,16.3585 C16.169,16.3988 16.2497,16.4667 16.345,16.562 C16.4697,16.6647 16.5668,16.782 16.6365,16.914 C16.7062,17.046 16.7557,17.1523 16.785,17.233 C16.8217,17.123 16.8455,17.0075 16.8565,16.8865 C16.8675,16.7655 16.8657,16.6537 16.851,16.551 C16.8363,16.4483 16.8107,16.3567 16.774,16.276 C16.7373,16.1953 16.686,16.1367 16.62,16.1 M16.136,18.839 C16.2533,18.905 16.3963,18.9307 16.565,18.916 C16.7337,18.9013 16.9042,18.8647 17.0765,18.806 C17.2488,18.7473 17.412,18.674 17.566,18.586 C17.72,18.498 17.841,18.4137 17.929,18.333 C17.8557,18.3697 17.7585,18.41 17.6375,18.454 C17.5165,18.498 17.3845,18.531 17.2415,18.553 C17.0985,18.575 16.9518,18.5787 16.8015,18.564 C16.6512,18.5493 16.5137,18.5053 16.389,18.432 C16.2643,18.3587 16.1635,18.2633 16.0865,18.146 C16.0095,18.0287 15.949,17.9095 15.905,17.7885 C15.861,17.6675 15.8298,17.5483 15.8115,17.431 C15.7932,17.3137 15.7767,17.2147 15.762,17.134 C15.7253,17.2733 15.7052,17.4292 15.7015,17.6015 C15.6978,17.7738 15.7088,17.9425 15.7345,18.1075 C15.7602,18.2725 15.806,18.421 15.872,18.553 C15.938,18.685 16.026,18.7803 16.136,18.839 M18.446,17.761 C18.5047,17.6437 18.5267,17.508 18.512,17.354 C18.4973,17.2 18.4277,17.09 18.303,17.024 C18.237,16.9873 18.1527,16.9672 18.05,16.9635 C17.9473,16.9598 17.841,16.9745 17.731,17.0075 C17.621,17.0405 17.511,17.0882 17.401,17.1505 C17.291,17.2128 17.1993,17.2917 17.126,17.387 C17.2067,17.3723 17.3148,17.3613 17.4505,17.354 C17.5862,17.3467 17.7383,17.3723 17.907,17.431 C18.0317,17.4677 18.1435,17.5135 18.2425,17.5685 C18.3415,17.6235 18.4093,17.6877 18.446,17.761 "/>
</g>

<g fill="#ffffff" fill-opacity="1" stroke="none" transform="matrix(1,0,0,1,0,0)"
font-family="MS Shell Dlg 2" font-size="8.25" font-weight="400" font-style="normal" 
>
</g>
</g>
</svg>
