<?xml version="1.0" encoding="UTF-8" standalone="no"?>
<svg width="11.2889mm" height="11.2889mm"
 viewBox="0 0 32 32"
 xmlns="http://www.w3.org/2000/svg" xmlns:xlink="http://www.w3.org/1999/xlink"  version="1.2" baseProfile="tiny">
<title>Qt SVG Document</title>
<desc>Generated with Qt</desc>
<defs>
</defs>
<g fill="none" stroke="black" stroke-width="1" fill-rule="evenodd" stroke-linecap="square" stroke-linejoin="bevel" >

<g fill="#33a02c" fill-opacity="1" stroke="none" transform="matrix(1,0,0,1,0,0)"
font-family="MS Shell Dlg 2" font-size="8.25" font-weight="400" font-style="normal" 
>
<path vector-effect="none" fill-rule="evenodd" d="M21.402,17.114 C21.402,17.87 21.2597,18.5817 20.975,19.249 C20.6903,19.9163 20.2983,20.4973 19.799,20.992 C19.2997,21.4867 18.7163,21.8763 18.049,22.161 C17.3817,22.4457 16.67,22.588 15.914,22.588 C15.158,22.588 14.4463,22.4457 13.779,22.161 C13.1117,21.8763 12.5307,21.4867 12.036,20.992 C11.5413,20.4973 11.1517,19.9163 10.867,19.249 C10.5823,18.5817 10.44,17.87 10.44,17.114 C10.44,16.358 10.5823,15.6463 10.867,14.979 C11.1517,14.3117 11.5413,13.7283 12.036,13.229 C12.5307,12.7297 13.1117,12.3377 13.779,12.053 C14.4463,11.7683 15.158,11.626 15.914,11.626 C16.67,11.626 17.3817,11.7683 18.049,12.053 C18.7163,12.3377 19.2997,12.7297 19.799,13.229 C20.2983,13.7283 20.6903,14.3117 20.975,14.979 C21.2597,15.6463 21.402,16.358 21.402,17.114 "/>
</g>

<g fill="#33a02c" fill-opacity="1" stroke="none" transform="matrix(1,0,0,1,0,0)"
font-family="MS Shell Dlg 2" font-size="8.25" font-weight="400" font-style="normal" 
>
</g>

<g fill="#ffffff" fill-opacity="1" stroke="none" transform="matrix(1,0,0,1,0,0)"
font-family="MS Shell Dlg 2" font-size="8.25" font-weight="400" font-style="normal" 
>
<path vector-effect="none" fill-rule="evenodd" d="M19.277,12.811 C19.299,12.811 19.3137,12.822 19.321,12.844 L19.178,13.317 C19.2953,13.5003 19.4017,13.636 19.497,13.724 L19.684,13.933 C19.684,14.0943 19.5263,14.373 19.211,14.769 C19.0423,14.989 18.892,15.1467 18.76,15.242 C18.5107,15.4033 18.078,15.693 17.462,16.111 C17.176,16.3017 17.033,16.5473 17.033,16.848 C17.033,17.3173 17.2273,17.5923 17.616,17.673 C17.8067,17.7243 18.0597,17.8123 18.375,17.937 C18.5143,18.0177 18.584,18.08 18.584,18.124 C18.584,18.3147 18.4337,18.5713 18.133,18.894 C18.089,18.9673 17.9937,19.07 17.847,19.202 C17.5757,19.3487 17.4107,19.422 17.352,19.422 C17.2713,19.422 17.2108,19.3762 17.1705,19.2845 C17.1302,19.1928 16.9963,18.828 16.769,18.19 C16.7543,18.146 16.714,18.0837 16.648,18.003 C16.538,17.9223 16.384,17.882 16.186,17.882 C15.8633,17.882 15.559,18.058 15.273,18.41 L15.053,18.674 C14.657,19.1727 14.3123,19.576 14.019,19.884 C13.843,20.0673 13.612,20.2653 13.326,20.478 C13.2893,20.5 13.249,20.511 13.205,20.511 C13.0363,20.3643 12.831,20.203 12.589,20.027 C12.5303,20.027 12.4405,20.0435 12.3195,20.0765 C12.1985,20.1095 12.116,20.126 12.072,20.126 C12.0353,20.126 12.017,20.115 12.017,20.093 C12.0243,20.071 12.0463,20.0307 12.083,19.972 C12.4203,19.18 12.622,18.7143 12.688,18.575 C12.93,18.0763 13.183,17.6437 13.447,17.277 C13.5203,17.1597 13.6413,17.024 13.81,16.87 C13.9053,16.8113 14.0832,16.7472 14.3435,16.6775 C14.6038,16.6078 14.7817,16.5217 14.877,16.419 L14.877,16.221 C14.8403,16.2063 14.778,16.1733 14.69,16.122 L14.58,15.946 C14.5067,15.8287 14.47,15.704 14.47,15.572 C14.47,15.5133 14.4883,15.4272 14.525,15.3135 C14.5617,15.1998 14.602,15.143 14.646,15.143 C15.0493,15.143 15.3207,15.2567 15.46,15.484 C15.5553,15.6307 15.6397,15.704 15.713,15.704 L15.845,15.605 C15.9037,15.583 15.9477,15.506 15.977,15.374 C15.999,15.242 16.0503,15.0147 16.131,14.692 C16.2337,14.5013 16.571,14.2373 17.143,13.9 C17.3117,13.7973 17.6673,13.614 18.21,13.35 C18.4447,13.2253 18.8003,13.0457 19.277,12.811 "/>
</g>

<g fill="#ffffff" fill-opacity="1" stroke="none" transform="matrix(1,0,0,1,0,0)"
font-family="MS Shell Dlg 2" font-size="8.25" font-weight="400" font-style="normal" 
>
</g>
</g>
</svg>
