<?xml version="1.0" encoding="UTF-8" standalone="no"?>
<svg width="11.2889mm" height="11.2889mm"
 viewBox="0 0 32 32"
 xmlns="http://www.w3.org/2000/svg" xmlns:xlink="http://www.w3.org/1999/xlink"  version="1.2" baseProfile="tiny">
<title>Qt SVG Document</title>
<desc>Generated with Qt</desc>
<defs>
</defs>
<g fill="none" stroke="black" stroke-width="1" fill-rule="evenodd" stroke-linecap="square" stroke-linejoin="bevel" >

<g fill="none" stroke="none" transform="matrix(1,0,0,1,0,0)"
font-family="MS Shell Dlg 2" font-size="8.25" font-weight="400" font-style="normal" 
>
</g>

<g fill="none" stroke="none" transform="matrix(1.33333,0,0,1.33333,0,0)"
font-family="MS Shell Dlg 2" font-size="8.25" font-weight="400" font-style="normal" 
>
</g>

<g fill="#a61215" fill-opacity="1" stroke="none" transform="matrix(1,0,0,1,0,0)"
font-family="MS Shell Dlg 2" font-size="8.25" font-weight="400" font-style="normal" 
>
<path vector-effect="none" fill-rule="evenodd" d="M21.402,17.114 C21.402,17.87 21.2597,18.5817 20.975,19.249 C20.6903,19.9163 20.2983,20.4973 19.799,20.992 C19.2997,21.4867 18.7163,21.8763 18.049,22.161 C17.3817,22.4457 16.67,22.588 15.914,22.588 C15.158,22.588 14.4463,22.4457 13.779,22.161 C13.1117,21.8763 12.5307,21.4867 12.036,20.992 C11.5413,20.4973 11.1517,19.9163 10.867,19.249 C10.5823,18.5817 10.44,17.87 10.44,17.114 C10.44,16.358 10.5823,15.6463 10.867,14.979 C11.1517,14.3117 11.5413,13.7283 12.036,13.229 C12.5307,12.7297 13.1117,12.3377 13.779,12.053 C14.4463,11.7683 15.158,11.626 15.914,11.626 C16.67,11.626 17.3817,11.7683 18.049,12.053 C18.7163,12.3377 19.2997,12.7297 19.799,13.229 C20.2983,13.7283 20.6903,14.3117 20.975,14.979 C21.2597,15.6463 21.402,16.358 21.402,17.114 "/>
</g>

<g fill="none" stroke="none" transform="matrix(1.33333,0,0,1.33333,0,0)"
font-family="MS Shell Dlg 2" font-size="8.25" font-weight="400" font-style="normal" 
>
</g>

<g fill="none" stroke="none" transform="matrix(1,0,0,1,0,0)"
font-family="MS Shell Dlg 2" font-size="8.25" font-weight="400" font-style="normal" 
>
</g>

<g fill="none" stroke="#000000" stroke-opacity="1" stroke-width="1" stroke-linecap="square" stroke-linejoin="bevel" transform="matrix(1,0,0,1,0,0)"
font-family="MS Shell Dlg 2" font-size="8.25" font-weight="400" font-style="normal" 
>
</g>

<g fill="none" stroke="none" transform="matrix(1,0,0,1,0,0)"
font-family="MS Shell Dlg 2" font-size="8.25" font-weight="400" font-style="normal" 
>
</g>

<g fill="none" stroke="none" transform="matrix(1.33333,0,0,1.33333,0,0)"
font-family="MS Shell Dlg 2" font-size="8.25" font-weight="400" font-style="normal" 
>
</g>

<g fill="#ffffff" fill-opacity="1" stroke="none" transform="matrix(1,0,0,1,0,0)"
font-family="MS Shell Dlg 2" font-size="8.25" font-weight="400" font-style="normal" 
>
<path vector-effect="none" fill-rule="evenodd" d="M15.628,13.908 L15.628,13.428 L15.304,13.428 L15.304,13.32 L15.628,13.32 L15.628,12.924 L15.76,12.924 L15.76,13.32 L16.108,13.32 L16.108,13.428 L15.76,13.428 L15.76,13.908 L16.7836,15.384 L16.7596,15.384 C16.6398,15.36 16.4862,15.336 16.2986,15.312 C16.111,15.288 15.9135,15.276 15.706,15.276 C15.4745,15.276 15.269,15.288 15.0894,15.312 C14.9098,15.336 14.7522,15.36 14.6164,15.384 L15.628,13.908 M14.836,15.756 C14.94,15.732 15.068,15.712 15.22,15.696 C15.372,15.68 15.536,15.672 15.712,15.672 C15.872,15.672 16.026,15.68 16.174,15.696 C16.322,15.712 16.456,15.732 16.576,15.756 L16.576,17.004 L16.396,16.968 L15.712,16.44 L14.992,16.968 L14.836,17.004 L14.836,15.756 M14.776,17.136 L14.464,17.4 L12.988,17.928 L12.988,17.688 L14.776,17.136 M18.388,17.688 L18.388,17.928 L16.9217,17.4 L16.6,17.136 L18.388,17.688 M12.988,18.06 L14.464,17.532 L14.464,20.1 L12.988,20.1 L12.988,18.06 M13.552,19.14 L13.828,19.14 L13.828,18.396 C13.828,18.308 13.782,18.264 13.69,18.264 C13.598,18.264 13.552,18.308 13.552,18.396 L13.552,19.14 M16.948,17.532 L18.388,18.06 L18.388,20.1 L16.948,20.1 L16.948,17.532 M17.56,19.14 L17.824,19.14 L17.824,18.396 C17.824,18.308 17.78,18.264 17.692,18.264 C17.66,18.264 17.63,18.276 17.602,18.3 C17.574,18.324 17.56,18.356 17.56,18.396 L17.56,19.14 M15.712,16.788 L16.684,17.58 L16.684,20.52 L16.024,20.52 L16.024,19.488 C16.024,19.408 15.994,19.334 15.934,19.266 C15.874,19.198 15.8,19.164 15.712,19.164 C15.6,19.164 15.514,19.198 15.454,19.266 C15.394,19.334 15.364,19.408 15.364,19.488 L15.364,20.52 L14.704,20.52 L14.704,17.58 L15.712,16.788"/>
</g>

<g fill="none" stroke="none" transform="matrix(1.33333,0,0,1.33333,0,0)"
font-family="MS Shell Dlg 2" font-size="8.25" font-weight="400" font-style="normal" 
>
</g>

<g fill="none" stroke="none" transform="matrix(1,0,0,1,0,0)"
font-family="MS Shell Dlg 2" font-size="8.25" font-weight="400" font-style="normal" 
>
</g>

<g fill="none" stroke="#000000" stroke-opacity="1" stroke-width="1" stroke-linecap="square" stroke-linejoin="bevel" transform="matrix(1,0,0,1,0,0)"
font-family="MS Shell Dlg 2" font-size="8.25" font-weight="400" font-style="normal" 
>
</g>
</g>
</svg>
