<?xml version="1.0" encoding="UTF-8" standalone="no"?>
<svg width="11.2889mm" height="11.2889mm"
 viewBox="0 0 32 32"
 xmlns="http://www.w3.org/2000/svg" xmlns:xlink="http://www.w3.org/1999/xlink"  version="1.2" baseProfile="tiny">
<title>Qt SVG Document</title>
<desc>Generated with Qt</desc>
<defs>
</defs>
<g fill="none" stroke="black" stroke-width="1" fill-rule="evenodd" stroke-linecap="square" stroke-linejoin="bevel" >

<g fill="none" stroke="none" transform="matrix(1,0,0,1,0,0)"
font-family="MS Shell Dlg 2" font-size="8.25" font-weight="400" font-style="normal" 
>
</g>

<g fill="none" stroke="none" transform="matrix(1.33333,0,0,1.33333,0,0)"
font-family="MS Shell Dlg 2" font-size="8.25" font-weight="400" font-style="normal" 
>
</g>

<g fill="#a61215" fill-opacity="1" stroke="none" transform="matrix(1,0,0,1,0,0)"
font-family="MS Shell Dlg 2" font-size="8.25" font-weight="400" font-style="normal" 
>
<path vector-effect="none" fill-rule="evenodd" d="M21.402,17.114 C21.402,17.87 21.2597,18.5817 20.975,19.249 C20.6903,19.9163 20.2983,20.4973 19.799,20.992 C19.2997,21.4867 18.7163,21.8763 18.049,22.161 C17.3817,22.4457 16.67,22.588 15.914,22.588 C15.158,22.588 14.4463,22.4457 13.779,22.161 C13.1117,21.8763 12.5307,21.4867 12.036,20.992 C11.5413,20.4973 11.1517,19.9163 10.867,19.249 C10.5823,18.5817 10.44,17.87 10.44,17.114 C10.44,16.358 10.5823,15.6463 10.867,14.979 C11.1517,14.3117 11.5413,13.7283 12.036,13.229 C12.5307,12.7297 13.1117,12.3377 13.779,12.053 C14.4463,11.7683 15.158,11.626 15.914,11.626 C16.67,11.626 17.3817,11.7683 18.049,12.053 C18.7163,12.3377 19.2997,12.7297 19.799,13.229 C20.2983,13.7283 20.6903,14.3117 20.975,14.979 C21.2597,15.6463 21.402,16.358 21.402,17.114 "/>
</g>

<g fill="none" stroke="none" transform="matrix(1.33333,0,0,1.33333,0,0)"
font-family="MS Shell Dlg 2" font-size="8.25" font-weight="400" font-style="normal" 
>
</g>

<g fill="none" stroke="none" transform="matrix(1,0,0,1,0,0)"
font-family="MS Shell Dlg 2" font-size="8.25" font-weight="400" font-style="normal" 
>
</g>

<g fill="none" stroke="#000000" stroke-opacity="1" stroke-width="1" stroke-linecap="square" stroke-linejoin="bevel" transform="matrix(1,0,0,1,0,0)"
font-family="MS Shell Dlg 2" font-size="8.25" font-weight="400" font-style="normal" 
>
</g>

<g fill="none" stroke="none" transform="matrix(1,0,0,1,0,0)"
font-family="MS Shell Dlg 2" font-size="8.25" font-weight="400" font-style="normal" 
>
</g>

<g fill="none" stroke="none" transform="matrix(1.33333,0,0,1.33333,0,0)"
font-family="MS Shell Dlg 2" font-size="8.25" font-weight="400" font-style="normal" 
>
</g>

<g fill="#ffffff" fill-opacity="1" stroke="none" transform="matrix(1,0,0,1,0,0)"
font-family="MS Shell Dlg 2" font-size="8.25" font-weight="400" font-style="normal" 
>
<path vector-effect="none" fill-rule="evenodd" d="M18.29,16.7 L18.7,16.69 L18.7,19.39 L16.93,19.39 L16.93,18.63 C16.93,18.5233 16.905,18.4217 16.855,18.325 C16.805,18.2283 16.7383,18.145 16.655,18.075 C16.5717,18.005 16.4717,17.95 16.355,17.91 C16.2383,17.87 16.1133,17.85 15.98,17.85 C15.8533,17.85 15.7333,17.87 15.62,17.91 C15.5067,17.95 15.4067,18.005 15.32,18.075 C15.2333,18.145 15.165,18.2283 15.115,18.325 C15.065,18.4217 15.04,18.5233 15.04,18.63 L15.04,19.39 L13.27,19.39 L13.27,16.7 L13.68,16.69 L13.68,17.07 L14.11,17.07 L14.11,16.7 L14.53,16.69 L14.53,17.07 L14.94,17.07 L14.94,16.7 L15.37,16.69 L15.37,17.07 L15.78,17.07 L15.78,16.7 L16.19,16.69 L16.19,17.07 L16.62,17.07 L16.62,16.7 L17.03,16.69 L17.03,17.07 L17.44,17.07 L17.44,16.7 L17.85,16.69 L17.85,17.07 L18.29,17.07 L18.29,16.7 M14.75,15.34 L13.85,15.34 L14.28,14.62 L14.28,14 L14.32,14 L14.32,14.62 L14.75,15.34 M18.02,15.15 L18.02,14.86 L17.83,14.86 L17.83,14.76 L18.02,14.76 L18.02,14.53 L18.12,14.53 L18.12,14.76 L18.31,14.76 L18.31,14.86 L18.12,14.86 L18.12,15.15 L18.72,16.05 L17.44,16.05 L18.02,15.15 M15.74,14.23 L14.4,14.4 L14.4,14.07 L15.74,14.23 M13.83,15.73 L13.76,15.61 L13.76,15.42 L14.83,15.42 L14.83,15.61 L14.79,15.73 L14.77,15.73 L14.77,16.92 L14.65,16.92 L14.65,16.53 L14.42,16.55 L14.42,16.2142 C14.42,16.1531 14.41,16.1004 14.39,16.0562 C14.37,16.0121 14.34,15.99 14.3,15.99 C14.2667,15.99 14.2383,16.0121 14.215,16.0562 C14.1917,16.1003 14.18,16.1529 14.18,16.2141 L14.18,16.55 L13.99,16.55 L13.99,16.92 L13.85,16.92 L13.85,15.73 L13.83,15.73 M18.02,16.86 L18.02,16.49 L17.57,16.49 L17.57,16.15 L18.57,16.15 L18.57,16.49 L18.12,16.49 L18.12,16.86 L18.02,16.86 M18.68,16.13 L17.48,16.13 L17.48,16.09 L18.68,16.09 L18.68,16.13 M16.56,19.02 C16.4933,19.0533 16.4383,19.0983 16.395,19.155 C16.3517,19.2117 16.3283,19.2783 16.325,19.355 C16.3217,19.4317 16.3433,19.5133 16.39,19.6 C16.4367,19.6867 16.5133,19.7733 16.62,19.86 L15.33,19.86 C15.3367,19.7333 15.3717,19.61 15.435,19.49 C15.4983,19.37 15.5833,19.26 15.69,19.16 C15.7967,19.06 15.9233,18.975 16.07,18.905 C16.2167,18.835 16.38,18.79 16.56,18.77 L16.56,19.02"/>
</g>

<g fill="none" stroke="none" transform="matrix(1.33333,0,0,1.33333,0,0)"
font-family="MS Shell Dlg 2" font-size="8.25" font-weight="400" font-style="normal" 
>
</g>

<g fill="none" stroke="none" transform="matrix(1,0,0,1,0,0)"
font-family="MS Shell Dlg 2" font-size="8.25" font-weight="400" font-style="normal" 
>
</g>

<g fill="none" stroke="#000000" stroke-opacity="1" stroke-width="1" stroke-linecap="square" stroke-linejoin="bevel" transform="matrix(1,0,0,1,0,0)"
font-family="MS Shell Dlg 2" font-size="8.25" font-weight="400" font-style="normal" 
>
</g>
</g>
</svg>
