<?xml version="1.0" encoding="UTF-8" standalone="no"?>
<svg width="11.2889mm" height="11.2889mm"
 viewBox="0 0 32 32"
 xmlns="http://www.w3.org/2000/svg" xmlns:xlink="http://www.w3.org/1999/xlink"  version="1.2" baseProfile="tiny">
<title>Qt SVG Document</title>
<desc>Generated with Qt</desc>
<defs>
</defs>
<g fill="none" stroke="black" stroke-width="1" fill-rule="evenodd" stroke-linecap="square" stroke-linejoin="bevel" >

<g fill="#33a02c" fill-opacity="1" stroke="none" transform="matrix(1,0,0,1,0,0)"
font-family="MS Shell Dlg 2" font-size="8.25" font-weight="400" font-style="normal" 
>
<path vector-effect="none" fill-rule="evenodd" d="M21.402,17.114 C21.402,17.87 21.2597,18.5817 20.975,19.249 C20.6903,19.9163 20.2983,20.4973 19.799,20.992 C19.2997,21.4867 18.7163,21.8763 18.049,22.161 C17.3817,22.4457 16.67,22.588 15.914,22.588 C15.158,22.588 14.4463,22.4457 13.779,22.161 C13.1117,21.8763 12.5307,21.4867 12.036,20.992 C11.5413,20.4973 11.1517,19.9163 10.867,19.249 C10.5823,18.5817 10.44,17.87 10.44,17.114 C10.44,16.358 10.5823,15.6463 10.867,14.979 C11.1517,14.3117 11.5413,13.7283 12.036,13.229 C12.5307,12.7297 13.1117,12.3377 13.779,12.053 C14.4463,11.7683 15.158,11.626 15.914,11.626 C16.67,11.626 17.3817,11.7683 18.049,12.053 C18.7163,12.3377 19.2997,12.7297 19.799,13.229 C20.2983,13.7283 20.6903,14.3117 20.975,14.979 C21.2597,15.6463 21.402,16.358 21.402,17.114 "/>
</g>

<g fill="#33a02c" fill-opacity="1" stroke="none" transform="matrix(1,0,0,1,0,0)"
font-family="MS Shell Dlg 2" font-size="8.25" font-weight="400" font-style="normal" 
>
</g>

<g fill="none" stroke="none" transform="matrix(1,0,0,1,0,0)"
font-family="MS Shell Dlg 2" font-size="8.25" font-weight="400" font-style="normal" 
>
</g>

<g fill="none" stroke="none" transform="matrix(1.33333,0,0,1.33333,0,0)"
font-family="MS Shell Dlg 2" font-size="8.25" font-weight="400" font-style="normal" 
>
</g>

<g fill="#ffffff" fill-opacity="1" stroke="none" transform="matrix(1,0,0,1,0,0)"
font-family="MS Shell Dlg 2" font-size="8.25" font-weight="400" font-style="normal" 
>
<path vector-effect="none" fill-rule="evenodd" d="M17.788,19.8 C17.884,19.8 17.964,19.834 18.028,19.902 C18.092,19.97 18.124,20.048 18.124,20.136 C18.124,20.232 18.092,20.312 18.028,20.376 C17.964,20.44 17.884,20.472 17.788,20.472 C17.7,20.472 17.622,20.44 17.554,20.376 C17.486,20.312 17.452,20.232 17.452,20.136 C17.452,20.048 17.486,19.97 17.554,19.902 C17.622,19.834 17.7,19.8 17.788,19.8 M17.788,20.28 C17.884,20.28 17.932,20.232 17.932,20.136 C17.932,20.096 17.918,20.062 17.89,20.034 C17.862,20.006 17.828,19.992 17.788,19.992 C17.748,19.992 17.714,20.006 17.686,20.034 C17.658,20.062 17.644,20.096 17.644,20.136 C17.644,20.176 17.658,20.21 17.686,20.238 C17.714,20.266 17.748,20.28 17.788,20.28 M13.864,14.016 C13.768,14.016 13.688,13.984 13.624,13.92 C13.56,13.856 13.528,13.776 13.528,13.68 C13.528,13.592 13.56,13.514 13.624,13.446 C13.688,13.378 13.768,13.344 13.864,13.344 C13.952,13.344 14.03,13.378 14.098,13.446 C14.166,13.514 14.2,13.592 14.2,13.68 C14.2,13.776 14.166,13.856 14.098,13.92 C14.03,13.984 13.952,14.016 13.864,14.016 M13.864,13.536 C13.824,13.536 13.79,13.55 13.762,13.578 C13.734,13.606 13.72,13.64 13.72,13.68 C13.72,13.776 13.768,13.824 13.864,13.824 C13.904,13.824 13.938,13.81 13.966,13.782 C13.994,13.754 14.008,13.72 14.008,13.68 C14.008,13.64 13.994,13.606 13.966,13.578 C13.938,13.55 13.904,13.536 13.864,13.536 M13.804,19.212 C13.684,19.212 13.582,19.254 13.498,19.338 C13.414,19.422 13.372,19.524 13.372,19.644 C13.372,19.732 13.396,19.81 13.444,19.878 C13.492,19.946 13.552,20 13.624,20.04 C13.632,20.112 13.66,20.184 13.708,20.256 C13.556,20.24 13.43,20.174 13.33,20.058 C13.23,19.942 13.18,19.804 13.18,19.644 C13.18,19.468 13.24,19.32 13.36,19.2 C13.48,19.08 13.628,19.02 13.804,19.02 C13.844,19.02 13.896,19.028 13.96,19.044 L13.876,19.224 C13.86,19.224 13.848,19.222 13.84,19.218 C13.832,19.214 13.82,19.212 13.804,19.212 M16.432,16.62 C16.712,16.468 16.962,16.242 17.182,15.942 C17.402,15.642 17.588,15.328 17.74,15 C17.892,14.672 18.012,14.362 18.1,14.07 C18.188,13.778 18.24,13.568 18.256,13.44 L18.46,13.44 C18.46,13.472 18.444,13.562 18.412,13.71 C18.38,13.858 18.33,14.038 18.262,14.25 C18.194,14.462 18.106,14.694 17.998,14.946 C17.89,15.198 17.76,15.446 17.608,15.69 C17.456,15.934 17.282,16.158 17.086,16.362 C16.89,16.566 16.672,16.728 16.432,16.848 L16.432,16.62 M15.46,15.228 C15.316,15.228 15.192,15.178 15.088,15.078 C14.984,14.978 14.932,14.852 14.932,14.7 C14.932,14.556 14.984,14.432 15.088,14.328 C15.192,14.224 15.316,14.172 15.46,14.172 C15.604,14.172 15.728,14.224 15.832,14.328 C15.936,14.432 15.988,14.556 15.988,14.7 C15.988,14.852 15.936,14.978 15.832,15.078 C15.728,15.178 15.604,15.228 15.46,15.228 M16.78,17.772 L15.82,18.216 C15.756,18.24 15.684,18.252 15.604,18.252 C15.564,18.252 15.524,18.252 15.484,18.252 C15.444,18.252 15.404,18.244 15.364,18.228 L14.512,20.184 C14.472,20.272 14.406,20.33 14.314,20.358 C14.222,20.386 14.128,20.372 14.032,20.316 C13.944,20.26 13.88,20.182 13.84,20.082 C13.8,19.982 13.8,19.888 13.84,19.8 L14.884,17.412 L16.216,17.412 L16.216,17.184 L14.884,17.184 L14.884,16.116 L14.116,16.416 C13.964,16.48 13.84,16.444 13.744,16.308 L13.072,15.276 C13.032,15.212 13.02,15.138 13.036,15.054 C13.052,14.97 13.092,14.908 13.156,14.868 C13.228,14.82 13.306,14.806 13.39,14.826 C13.474,14.846 13.536,14.888 13.576,14.952 L14.116,15.78 L15.172,15.36 C15.22,15.344 15.26,15.34 15.292,15.348 L15.904,15.336 L16.912,13.716 C16.952,13.652 17.012,13.612 17.092,13.596 C17.172,13.58 17.244,13.592 17.308,13.632 C17.38,13.672 17.426,13.734 17.446,13.818 C17.466,13.902 17.452,13.976 17.404,14.04 L16.216,15.948 L16.216,17.184 L16.888,16.872 C16.976,16.832 17.068,16.84 17.164,16.896 C17.26,16.952 17.32,17.028 17.344,17.124 L17.668,18.444 C17.692,18.54 17.68,18.628 17.632,18.708 C17.584,18.788 17.512,18.84 17.416,18.864 C17.32,18.888 17.23,18.876 17.146,18.828 C17.062,18.78 17.012,18.708 16.996,18.612 L16.78,17.772 M15.988,18.36 L16.216,18.252 L16.216,20.64 L15.988,20.64 L15.988,18.36 M17.464,19.056 C17.48,19.048 17.496,19.04 17.512,19.032 C17.528,19.024 17.544,19.016 17.56,19.008 C17.56,19.136 17.516,19.244 17.428,19.332 C17.34,19.42 17.232,19.464 17.104,19.464 C16.976,19.464 16.868,19.42 16.78,19.332 C16.692,19.244 16.648,19.136 16.648,19.008 C16.648,18.864 16.7,18.752 16.804,18.672 C16.82,18.704 16.834,18.734 16.846,18.762 C16.858,18.79 16.876,18.82 16.9,18.852 C16.86,18.892 16.84,18.944 16.84,19.008 C16.84,19.08 16.866,19.142 16.918,19.194 C16.97,19.246 17.032,19.272 17.104,19.272 C17.168,19.272 17.222,19.254 17.266,19.218 C17.31,19.182 17.34,19.132 17.356,19.068 C17.404,19.068 17.44,19.064 17.464,19.056 M13.432,16.164 C13.32,16.26 13.204,16.308 13.084,16.308 C12.948,16.308 12.83,16.258 12.73,16.158 C12.63,16.058 12.58,15.94 12.58,15.804 C12.58,15.692 12.61,15.596 12.67,15.516 C12.73,15.436 12.804,15.376 12.892,15.336 C12.9,15.344 12.904,15.352 12.904,15.36 C12.904,15.368 12.908,15.376 12.916,15.384 L13,15.516 C12.848,15.556 12.772,15.652 12.772,15.804 C12.772,15.892 12.802,15.966 12.862,16.026 C12.922,16.086 12.996,16.116 13.084,16.116 C13.18,16.116 13.256,16.076 13.312,15.996 L13.432,16.164 M16.66,13.752 C16.66,13.728 16.658,13.706 16.654,13.686 C16.65,13.666 16.648,13.644 16.648,13.62 C16.648,13.468 16.702,13.338 16.81,13.23 C16.918,13.122 17.048,13.068 17.2,13.068 C17.352,13.068 17.482,13.122 17.59,13.23 C17.698,13.338 17.752,13.468 17.752,13.62 C17.752,13.74 17.712,13.852 17.632,13.956 C17.64,13.9 17.64,13.84 17.632,13.776 C17.616,13.72 17.592,13.66 17.56,13.596 C17.552,13.508 17.514,13.43 17.446,13.362 C17.378,13.294 17.296,13.26 17.2,13.26 C17.12,13.26 17.052,13.282 16.996,13.326 C16.94,13.37 16.896,13.424 16.864,13.488 C16.832,13.512 16.792,13.556 16.744,13.62 L16.66,13.752"/>
</g>

<g fill="none" stroke="none" transform="matrix(1.33333,0,0,1.33333,0,0)"
font-family="MS Shell Dlg 2" font-size="8.25" font-weight="400" font-style="normal" 
>
</g>

<g fill="none" stroke="none" transform="matrix(1,0,0,1,0,0)"
font-family="MS Shell Dlg 2" font-size="8.25" font-weight="400" font-style="normal" 
>
</g>

<g fill="#33a02c" fill-opacity="1" stroke="none" transform="matrix(1,0,0,1,0,0)"
font-family="MS Shell Dlg 2" font-size="8.25" font-weight="400" font-style="normal" 
>
</g>
</g>
</svg>
