<?xml version="1.0" encoding="UTF-8" standalone="no"?>
<svg width="11.2889mm" height="11.2889mm"
 viewBox="0 0 32 32"
 xmlns="http://www.w3.org/2000/svg" xmlns:xlink="http://www.w3.org/1999/xlink"  version="1.2" baseProfile="tiny">
<title>Qt SVG Document</title>
<desc>Generated with Qt</desc>
<defs>
</defs>
<g fill="none" stroke="black" stroke-width="1" fill-rule="evenodd" stroke-linecap="square" stroke-linejoin="bevel" >

<g fill="#1f78b4" fill-opacity="1" stroke="none" transform="matrix(1,0,0,1,0,0)"
font-family="MS Shell Dlg 2" font-size="8.25" font-weight="400" font-style="normal" 
>
<path vector-effect="none" fill-rule="evenodd" d="M21.402,17.114 C21.402,17.87 21.2597,18.5817 20.975,19.249 C20.6903,19.9163 20.2983,20.4973 19.799,20.992 C19.2997,21.4867 18.7163,21.8763 18.049,22.161 C17.3817,22.4457 16.67,22.588 15.914,22.588 C15.158,22.588 14.4463,22.4457 13.779,22.161 C13.1117,21.8763 12.5307,21.4867 12.036,20.992 C11.5413,20.4973 11.1517,19.9163 10.867,19.249 C10.5823,18.5817 10.44,17.87 10.44,17.114 C10.44,16.358 10.5823,15.6463 10.867,14.979 C11.1517,14.3117 11.5413,13.7283 12.036,13.229 C12.5307,12.7297 13.1117,12.3377 13.779,12.053 C14.4463,11.7683 15.158,11.626 15.914,11.626 C16.67,11.626 17.3817,11.7683 18.049,12.053 C18.7163,12.3377 19.2997,12.7297 19.799,13.229 C20.2983,13.7283 20.6903,14.3117 20.975,14.979 C21.2597,15.6463 21.402,16.358 21.402,17.114 "/>
</g>

<g fill="#1f78b4" fill-opacity="1" stroke="none" transform="matrix(1,0,0,1,0,0)"
font-family="MS Shell Dlg 2" font-size="8.25" font-weight="400" font-style="normal" 
>
</g>

<g fill="#ffffff" fill-opacity="1" stroke="none" transform="matrix(1,0,0,1,0,0)"
font-family="MS Shell Dlg 2" font-size="8.25" font-weight="400" font-style="normal" 
>
<path vector-effect="none" fill-rule="evenodd" d="M15.828,15.165 C15.5493,15.165 15.3293,15.0807 15.168,14.912 C15.0653,14.8093 14.9938,14.7067 14.9535,14.604 C14.9132,14.5013 14.893,14.384 14.893,14.252 C14.893,13.9807 14.9847,13.7643 15.168,13.603 C15.344,13.427 15.564,13.339 15.828,13.339 C16.0847,13.339 16.3083,13.427 16.499,13.603 C16.6823,13.7643 16.774,13.9807 16.774,14.252 C16.774,14.384 16.7538,14.5013 16.7135,14.604 C16.6732,14.7067 16.6017,14.8093 16.499,14.912 C16.3303,15.0807 16.1067,15.165 15.828,15.165 M17.357,15.825 C17.2177,15.8763 17.0967,15.9313 16.994,15.99 C16.906,16.0413 16.8253,16.1 16.752,16.166 C16.6787,16.232 16.642,16.3017 16.642,16.375 L16.642,19.334 C16.6567,19.422 16.7007,19.4972 16.774,19.5595 C16.8473,19.6218 16.928,19.6713 17.016,19.708 C17.1187,19.752 17.2323,19.7923 17.357,19.829 L17.357,19.972 L14.321,19.972 L14.321,19.829 C14.453,19.785 14.574,19.7337 14.684,19.675 C14.772,19.6237 14.8545,19.5687 14.9315,19.51 C15.0085,19.4513 15.047,19.3853 15.047,19.312 L15.047,15.704 L17.357,15.704 L17.357,15.825"/>
</g>

<g fill="#ffffff" fill-opacity="1" stroke="none" transform="matrix(1,0,0,1,0,0)"
font-family="MS Shell Dlg 2" font-size="8.25" font-weight="400" font-style="normal" 
>
</g>
</g>
</svg>
