<?xml version="1.0" encoding="UTF-8" standalone="no"?>
<svg width="11.2889mm" height="11.2889mm"
 viewBox="0 0 32 32"
 xmlns="http://www.w3.org/2000/svg" xmlns:xlink="http://www.w3.org/1999/xlink"  version="1.2" baseProfile="tiny">
<title>Qt SVG Document</title>
<desc>Generated with Qt</desc>
<defs>
</defs>
<g fill="none" stroke="black" stroke-width="1" fill-rule="evenodd" stroke-linecap="square" stroke-linejoin="bevel" >

<g fill="#a61215" fill-opacity="1" stroke="none" transform="matrix(1,0,0,1,0,0)"
font-family="MS Shell Dlg 2" font-size="8.25" font-weight="400" font-style="normal" 
>
<path vector-effect="none" fill-rule="evenodd" d="M21.402,17.114 C21.402,17.87 21.2597,18.5817 20.975,19.249 C20.6903,19.9163 20.2983,20.4973 19.799,20.992 C19.2997,21.4867 18.7163,21.8763 18.049,22.161 C17.3817,22.4457 16.67,22.588 15.914,22.588 C15.158,22.588 14.4463,22.4457 13.779,22.161 C13.1117,21.8763 12.5307,21.4867 12.036,20.992 C11.5413,20.4973 11.1517,19.9163 10.867,19.249 C10.5823,18.5817 10.44,17.87 10.44,17.114 C10.44,16.358 10.5823,15.6463 10.867,14.979 C11.1517,14.3117 11.5413,13.7283 12.036,13.229 C12.5307,12.7297 13.1117,12.3377 13.779,12.053 C14.4463,11.7683 15.158,11.626 15.914,11.626 C16.67,11.626 17.3817,11.7683 18.049,12.053 C18.7163,12.3377 19.2997,12.7297 19.799,13.229 C20.2983,13.7283 20.6903,14.3117 20.975,14.979 C21.2597,15.6463 21.402,16.358 21.402,17.114 "/>
</g>

<g fill="#a61215" fill-opacity="1" stroke="none" transform="matrix(1,0,0,1,0,0)"
font-family="MS Shell Dlg 2" font-size="8.25" font-weight="400" font-style="normal" 
>
</g>

<g fill="#ffffff" fill-opacity="1" stroke="none" transform="matrix(1,0,0,1,0,0)"
font-family="MS Shell Dlg 2" font-size="8.25" font-weight="400" font-style="normal" 
>
<path vector-effect="none" fill-rule="evenodd" d="M18.7,16.23 L18.7,16.91 L17.78,17.51 L18.7,17.2 L18.7,18.08 L17.84,18.49 L18.7,18.2 L18.7,19.39 L18.56,18.69 L18.56,19.45 L14.95,19.25 L14.6,19.39 L14.03,19.39 L13.29,19.31 L13.17,18.33 L13.48,18.14 L13.04,18.14 L13.48,16.89 L13.09,17.57 L13.29,16.52 L13.23,16.23 L13.97,15.5 L13.13,15.72 L13.48,15.17 L14.23,14.27 L15.77,13.96 L16.45,14 L15.63,14.98 L16.92,13.96 L17.9,14.18 L17.1,15.13 L18.01,14.37 L18.36,15.21 L17.62,16.05 L18.17,15.58 L18.5,15.58 L18.7,16.23 M16.65,18.9505 L16.43,18.5095 L16.08,18.49 L16.8,17.4 L16.06,18.08 L16.24,17.14 L16.74,16.36 L16.9,15.6 L16.35,15.52 L16.9,14.06 L15.67,15.19 L15.48,15.72 L14.5,16.34 L15.14,16.23 L14.77,17.12 L14.11,17.87 L14.52,17.89 L14.25,18.53 L14.4,18.63 L14.48,19.37 L15.24,18.97 L16.65,18.9505"/>
</g>

<g fill="#ffffff" fill-opacity="1" stroke="none" transform="matrix(1,0,0,1,0,0)"
font-family="MS Shell Dlg 2" font-size="8.25" font-weight="400" font-style="normal" 
>
</g>
</g>
</svg>
