<?xml version="1.0" encoding="UTF-8" standalone="no"?>
<svg width="11.2889mm" height="11.2889mm"
 viewBox="0 0 32 32"
 xmlns="http://www.w3.org/2000/svg" xmlns:xlink="http://www.w3.org/1999/xlink"  version="1.2" baseProfile="tiny">
<title>Qt SVG Document</title>
<desc>Generated with Qt</desc>
<defs>
</defs>
<g fill="none" stroke="black" stroke-width="1" fill-rule="evenodd" stroke-linecap="square" stroke-linejoin="bevel" >

<g fill="none" stroke="none" transform="matrix(1,0,0,1,0,0)"
font-family="MS Shell Dlg 2" font-size="8.25" font-weight="400" font-style="normal" 
>
</g>

<g fill="none" stroke="none" transform="matrix(1.33333,0,0,1.33333,0,0)"
font-family="MS Shell Dlg 2" font-size="8.25" font-weight="400" font-style="normal" 
>
</g>

<g fill="#a61215" fill-opacity="1" stroke="none" transform="matrix(1,0,0,1,0,0)"
font-family="MS Shell Dlg 2" font-size="8.25" font-weight="400" font-style="normal" 
>
<path vector-effect="none" fill-rule="evenodd" d="M21.402,17.114 C21.402,17.87 21.2597,18.5817 20.975,19.249 C20.6903,19.9163 20.2983,20.4973 19.799,20.992 C19.2997,21.4867 18.7163,21.8763 18.049,22.161 C17.3817,22.4457 16.67,22.588 15.914,22.588 C15.158,22.588 14.4463,22.4457 13.779,22.161 C13.1117,21.8763 12.5307,21.4867 12.036,20.992 C11.5413,20.4973 11.1517,19.9163 10.867,19.249 C10.5823,18.5817 10.44,17.87 10.44,17.114 C10.44,16.358 10.5823,15.6463 10.867,14.979 C11.1517,14.3117 11.5413,13.7283 12.036,13.229 C12.5307,12.7297 13.1117,12.3377 13.779,12.053 C14.4463,11.7683 15.158,11.626 15.914,11.626 C16.67,11.626 17.3817,11.7683 18.049,12.053 C18.7163,12.3377 19.2997,12.7297 19.799,13.229 C20.2983,13.7283 20.6903,14.3117 20.975,14.979 C21.2597,15.6463 21.402,16.358 21.402,17.114 "/>
</g>

<g fill="none" stroke="none" transform="matrix(1.33333,0,0,1.33333,0,0)"
font-family="MS Shell Dlg 2" font-size="8.25" font-weight="400" font-style="normal" 
>
</g>

<g fill="none" stroke="none" transform="matrix(1,0,0,1,0,0)"
font-family="MS Shell Dlg 2" font-size="8.25" font-weight="400" font-style="normal" 
>
</g>

<g fill="none" stroke="#000000" stroke-opacity="1" stroke-width="1" stroke-linecap="square" stroke-linejoin="bevel" transform="matrix(1,0,0,1,0,0)"
font-family="MS Shell Dlg 2" font-size="8.25" font-weight="400" font-style="normal" 
>
</g>

<g fill="none" stroke="none" transform="matrix(1,0,0,1,0,0)"
font-family="MS Shell Dlg 2" font-size="8.25" font-weight="400" font-style="normal" 
>
</g>

<g fill="none" stroke="none" transform="matrix(1.33333,0,0,1.33333,0,0)"
font-family="MS Shell Dlg 2" font-size="8.25" font-weight="400" font-style="normal" 
>
</g>

<g fill="#f9f9f9" fill-opacity="1" stroke="none" transform="matrix(1,0,0,1,0,0)"
font-family="MS Shell Dlg 2" font-size="8.25" font-weight="400" font-style="normal" 
>
<path vector-effect="none" fill-rule="evenodd" d="M19.46,16.52 L19.46,17.13 L18.71,17.72 L19.46,17.33 L19.46,18.44 L18.79,18.95 L19.46,18.6 L19.46,20.09 L19.3,19.21 L19.3,20.16 L16.89,19.99 L17.02,19.96 L16.85,19.99 L14.78,19.99 L14.59,20.08 L14.27,20.09 L13.84,20.1 L14.06,19.98 L13.53,20 L12.89,20 L13.16,18.74 L13.57,18.52 L13,18.51 L13.56,16.94 L13.07,17.8 L13.33,16.49 L13.25,16.11 L14.21,15.19 L13.64,15.37 L14.09,14.68 L15.86,13.78 L16.73,13.91 L15.91,14.53 L17.21,13.78 L18.08,14.43 L17.83,14.72 L18.34,14.39 L18.82,15.43 L18.5,15.89 L18.77,15.71 L19.22,15.71 L19.46,16.52 M16.94,19.45 L18.4,19.58 L18.46,19.56 L18.07,17.97 L18.07,17.01 L17.89,17.15 L18.01,16.27 L17.62,16.12 L17.28,15.37 L16.56,15.22 L17.19,14.53 L16.42,14.98 L15.62,15.15 L14.68,15.22 L14.04,16.62 L14.52,16.15 L14.12,17.95 L13.91,18.12 L14.18,18.09 L13.83,18.9 L14.01,19.03 L14.13,19.95 L15.1,19.48 L15.12,19.21 L14.9,19.19 L15.08,18.87 L15.56,18.81 L15.98,18.86 L15.98,18.85 L15.98,18.82 L15.97,18.79 L15.97,18.77 L15.97,18.74 L15.97,18.72 L15.98,18.69 L15.98,18.65 L15.97,18.62 L15.98,18.61 L15.97,18.59 L15.97,18.47 L15.97,18.44 L15.97,18.42 L15.99,18.36 L15.99,18.35 L15.98,18.34 L15.98,18.33 L15.99,18.3 L16,18.28 L16,18.26 L16.02,18.25 L16.03,18.24 L16.04,18.22 L16.04,18.2 L16.05,18.19 L16.07,18.17 L16.07,18.14 L16.08,18.13 L16.12,18.12 L16.13,18.12 L16.14,18.11 L16.14,18.1 L16.14,18.04 L16.13,18.02 L16.14,18 L16.13,17.97 L16.14,17.95 L16.14,17.93 L16.13,17.92 L16.13,17.87 L16.14,17.85 L16.14,17.84 L16.14,17.59 L16.13,17.56 L16.14,17.53 L16.13,17.5 L16.13,17.46 L16.14,17.44 L16.13,17.42 L16.13,17.41 L16.14,17.38 L16.14,17.37 L16.13,17.32 L16.12,17.31 L16.1,17.31 L16.07,17.32 L16.04,17.31 L15.96,17.31 L15.93,17.31 L15.87,17.31 L15.84,17.31 L15.82,17.31 L15.74,17.31 L15.69,17.32 L15.64,17.31 L15.62,17.31 L15.6,17.32 L15.58,17.32 L15.57,17.34 L15.55,17.37 L15.54,17.38 L15.49,17.38 L15.47,17.37 L15.44,17.37 L15.43,17.37 L15.4,17.37 L15.37,17.35 L15.35,17.34 L15.33,17.32 L15.32,17.32 L15.3,17.31 L15.27,17.3 L15.27,17.29 L15.25,17.26 L15.23,17.25 L15.22,17.22 L15.22,17.21 L15.22,17.15 L15.23,17.13 L15.23,17.1 L15.23,17.09 L15.24,17.07 L15.29,17.05 L15.31,17.02 L15.32,17.02 L15.35,17.01 L15.39,16.99 L15.41,16.98 L15.43,16.97 L15.44,16.97 L15.49,16.99 L15.52,16.99 L15.53,16.99 L15.55,17 L15.57,17.03 L15.59,17.05 L15.63,17.05 L15.65,17.04 L15.67,17.04 L15.7,17.05 L15.73,17.04 L15.83,17.04 L15.85,17.05 L15.89,17.04 L15.93,17.05 L15.96,17.04 L16.14,17.04 L16.14,17.02 L16.14,17.01 L16.14,16.98 L16.13,16.96 L16.13,16.93 L16.14,16.91 L16.14,16.89 L16.13,16.87 L16.14,16.85 L16.14,16.8 L16.14,16.78 L16.13,16.77 L16.13,16.73 L16.14,16.72 L16.14,16.69 L16.14,16.67 L16.13,16.65 L16.13,16.59 L16.14,16.58 L16.14,16.57 L16.13,16.55 L16.13,16.54 L16.08,16.54 L16.07,16.53 L16.07,16.52 L16.04,16.48 L16.04,16.45 L16.05,16.43 L16.05,16.4 L16.06,16.37 L16.08,16.34 L16.09,16.33 L16.12,16.29 L16.13,16.26 L16.14,16.25 L16.17,16.24 L16.17,16.23 L16.22,16.19 L16.25,16.19 L16.28,16.17 L16.31,16.17 L16.32,16.18 L16.32,16.2 L16.33,16.21 L16.35,16.2 L16.38,16.21 L16.39,16.22 L16.4,16.24 L16.42,16.25 L16.44,16.29 L16.45,16.3 L16.48,16.3 L16.5,16.31 L16.5,16.39 L16.5,16.4 L16.52,16.42 L16.52,16.47 L16.5,16.5 L16.48,16.53 L16.45,16.54 L16.43,16.57 L16.43,16.61 L16.43,16.62 L16.43,16.65 L16.43,16.78 L16.43,16.81 L16.43,16.92 L16.43,16.96 L16.43,16.98 L16.43,16.99 L16.43,17.02 L16.43,17.03 L16.44,17.04 L16.46,17.03 L16.49,17.04 L16.68,17.04 L16.71,17.03 L16.72,17.04 L16.73,17.03 L16.83,17.03 L16.86,17.05 L16.89,17.04 L16.9,17.03 L16.92,17 L16.93,16.99 L16.95,16.98 L16.98,16.97 L17.01,16.97 L17.03,16.98 L17.06,16.98 L17.08,16.98 L17.12,16.98 L17.17,17 L17.19,17.02 L17.2,17.02 L17.2,17.04 L17.23,17.05 L17.25,17.05 L17.27,17.07 L17.27,17.09 L17.27,17.13 L17.28,17.15 L17.28,17.19 L17.27,17.22 L17.24,17.25 L17.23,17.25 L17.2,17.29 L17.19,17.3 L17.17,17.32 L17.14,17.32 L17.13,17.32 L17.11,17.33 L17.09,17.33 L17.07,17.34 L17.05,17.35 L17.03,17.35 L17,17.35 L16.93,17.32 L16.93,17.31 L16.91,17.3 L16.9,17.3 L16.88,17.3 L16.85,17.3 L16.83,17.31 L16.8,17.31 L16.79,17.31 L16.78,17.31 L16.77,17.3 L16.76,17.3 L16.74,17.31 L16.73,17.31 L16.71,17.3 L16.69,17.3 L16.68,17.31 L16.59,17.31 L16.56,17.3 L16.54,17.31 L16.5,17.31 L16.48,17.31 L16.45,17.31 L16.44,17.32 L16.43,17.33 L16.43,17.38 L16.43,17.4 L16.44,17.42 L16.44,17.44 L16.44,17.46 L16.43,17.52 L16.43,17.54 L16.43,17.55 L16.43,17.59 L16.43,17.62 L16.43,17.74 L16.43,17.77 L16.43,17.82 L16.44,17.85 L16.43,17.89 L16.43,17.92 L16.43,17.93 L16.43,17.98 L16.43,18.03 L16.43,18.05 L16.43,18.07 L16.44,18.1 L16.43,18.11 L16.44,18.12 L16.46,18.13 L16.47,18.13 L16.49,18.19 L16.5,18.19 L16.53,18.21 L16.55,18.22 L16.6,18.31 L16.6,18.33 L16.61,18.34 L16.61,18.46 L16.6,18.5 L16.6,18.7 L16.61,18.72 L16.6,18.74 L16.6,18.77 L16.61,18.81 L16.61,18.83 L16.6,18.85 L17.06,18.83 L17.28,18.89 L17.23,19.31 L16.94,19.45"/>
</g>

<g fill="none" stroke="none" transform="matrix(1.33333,0,0,1.33333,0,0)"
font-family="MS Shell Dlg 2" font-size="8.25" font-weight="400" font-style="normal" 
>
</g>

<g fill="none" stroke="none" transform="matrix(1,0,0,1,0,0)"
font-family="MS Shell Dlg 2" font-size="8.25" font-weight="400" font-style="normal" 
>
</g>

<g fill="none" stroke="#000000" stroke-opacity="1" stroke-width="1" stroke-linecap="square" stroke-linejoin="bevel" transform="matrix(1,0,0,1,0,0)"
font-family="MS Shell Dlg 2" font-size="8.25" font-weight="400" font-style="normal" 
>
</g>
</g>
</svg>
