<?xml version="1.0" encoding="UTF-8" standalone="no"?>
<svg width="11.2889mm" height="11.2889mm"
 viewBox="0 0 32 32"
 xmlns="http://www.w3.org/2000/svg" xmlns:xlink="http://www.w3.org/1999/xlink"  version="1.2" baseProfile="tiny">
<title>Qt SVG Document</title>
<desc>Generated with Qt</desc>
<defs>
</defs>
<g fill="none" stroke="black" stroke-width="1" fill-rule="evenodd" stroke-linecap="square" stroke-linejoin="bevel" >

<g fill="#66b1e3" fill-opacity="1" stroke="none" transform="matrix(1,0,0,1,0,0)"
font-family="MS Shell Dlg 2" font-size="8.25" font-weight="400" font-style="normal" 
>
<path vector-effect="none" fill-rule="evenodd" d="M21.402,17.114 C21.402,17.87 21.2597,18.5817 20.975,19.249 C20.6903,19.9163 20.2983,20.4973 19.799,20.992 C19.2997,21.4867 18.7163,21.8763 18.049,22.161 C17.3817,22.4457 16.67,22.588 15.914,22.588 C15.158,22.588 14.4463,22.4457 13.779,22.161 C13.1117,21.8763 12.5307,21.4867 12.036,20.992 C11.5413,20.4973 11.1517,19.9163 10.867,19.249 C10.5823,18.5817 10.44,17.87 10.44,17.114 C10.44,16.358 10.5823,15.6463 10.867,14.979 C11.1517,14.3117 11.5413,13.7283 12.036,13.229 C12.5307,12.7297 13.1117,12.3377 13.779,12.053 C14.4463,11.7683 15.158,11.626 15.914,11.626 C16.67,11.626 17.3817,11.7683 18.049,12.053 C18.7163,12.3377 19.2997,12.7297 19.799,13.229 C20.2983,13.7283 20.6903,14.3117 20.975,14.979 C21.2597,15.6463 21.402,16.358 21.402,17.114 "/>
</g>

<g fill="#66b1e3" fill-opacity="1" stroke="none" transform="matrix(1,0,0,1,0,0)"
font-family="MS Shell Dlg 2" font-size="8.25" font-weight="400" font-style="normal" 
>
</g>

<g fill="#ffffff" fill-opacity="1" stroke="none" transform="matrix(1,0,0,1,0,0)"
font-family="MS Shell Dlg 2" font-size="8.25" font-weight="400" font-style="normal" 
>
<path vector-effect="none" fill-rule="evenodd" d="M17.33,15.902 C17.4253,15.9313 17.5555,15.9753 17.7205,16.034 C17.8855,16.0927 18.045,16.177 18.199,16.287 C18.353,16.397 18.4868,16.5345 18.6005,16.6995 C18.7142,16.8645 18.771,17.068 18.771,17.31 C18.771,17.618 18.6647,17.8893 18.452,18.124 C18.2833,18.3147 18.0633,18.4632 17.792,18.5695 C17.5207,18.6758 17.231,18.729 16.923,18.729 C16.879,18.729 16.8332,18.729 16.7855,18.729 C16.7378,18.729 16.6847,18.7253 16.626,18.718 C16.4573,18.696 16.3015,18.6703 16.1585,18.641 C16.0155,18.6117 15.878,18.5787 15.746,18.542 C15.57,18.4907 15.3922,18.4467 15.2125,18.41 C15.0328,18.3733 14.8147,18.355 14.558,18.355 L14.426,18.355 C13.964,18.355 13.5387,18.278 13.15,18.124 C12.7613,17.97 12.4607,17.7573 12.248,17.486 C11.9767,17.1413 11.8703,16.7417 11.929,16.287 C11.9583,16.0523 12.0518,15.8305 12.2095,15.6215 C12.3672,15.4125 12.5652,15.2292 12.8035,15.0715 C13.0418,14.9138 13.3132,14.7892 13.6175,14.6975 C13.9218,14.6058 14.2353,14.56 14.558,14.56 L14.69,14.56 C14.954,14.5747 15.1868,14.6095 15.3885,14.6645 C15.5902,14.7195 15.7662,14.7873 15.9165,14.868 C16.0668,14.9487 16.1988,15.0385 16.3125,15.1375 C16.4262,15.2365 16.5307,15.33 16.626,15.418 C16.7433,15.528 16.8533,15.6252 16.956,15.7095 C17.0587,15.7938 17.1833,15.858 17.33,15.902 M18.32,17.992 C18.4153,17.8893 18.485,17.7812 18.529,17.6675 C18.573,17.5538 18.595,17.4347 18.595,17.31 C18.595,17.1267 18.5547,16.969 18.474,16.837 C18.3933,16.705 18.2907,16.5913 18.166,16.496 C18.0413,16.4007 17.902,16.32 17.748,16.254 C17.594,16.188 17.44,16.133 17.286,16.089 C17.1173,16.0377 16.9762,15.9662 16.8625,15.8745 C16.7488,15.7828 16.6333,15.6783 16.516,15.561 C16.4133,15.473 16.3088,15.3832 16.2025,15.2915 C16.0962,15.1998 15.9715,15.1155 15.8285,15.0385 C15.6855,14.9615 15.5205,14.8973 15.3335,14.846 C15.1465,14.7947 14.9283,14.7653 14.679,14.758 C14.6643,14.758 14.646,14.7562 14.624,14.7525 C14.602,14.7488 14.58,14.747 14.558,14.747 C14.2573,14.747 13.9658,14.7892 13.6835,14.8735 C13.4012,14.9578 13.1482,15.0715 12.9245,15.2145 C12.7008,15.3575 12.5157,15.5243 12.369,15.715 C12.2223,15.9057 12.1343,16.1037 12.105,16.309 C12.0463,16.705 12.138,17.057 12.38,17.365 C12.5707,17.6143 12.8493,17.8105 13.216,17.9535 C13.5827,18.0965 13.986,18.168 14.426,18.168 L14.558,18.168 C14.822,18.168 15.0475,18.1863 15.2345,18.223 C15.4215,18.2597 15.6067,18.3 15.79,18.344 C15.9147,18.3807 16.0467,18.4155 16.186,18.4485 C16.3253,18.4815 16.4793,18.5053 16.648,18.52 C16.6993,18.5273 16.747,18.5328 16.791,18.5365 C16.835,18.5402 16.879,18.542 16.923,18.542 C17.209,18.542 17.4767,18.4925 17.726,18.3935 C17.9753,18.2945 18.1733,18.1607 18.32,17.992 M17.242,16.276 C17.6453,16.4007 17.9423,16.5437 18.133,16.705 C18.3237,16.8663 18.419,17.068 18.419,17.31 C18.419,17.4713 18.3732,17.6198 18.2815,17.7555 C18.1898,17.8912 18.0633,18.0067 17.902,18.102 C17.7407,18.1973 17.5537,18.267 17.341,18.311 C17.1283,18.355 16.9047,18.3623 16.67,18.333 C16.4647,18.311 16.2813,18.278 16.12,18.234 C15.9587,18.19 15.7973,18.1478 15.636,18.1075 C15.4747,18.0672 15.3023,18.0342 15.119,18.0085 C14.9357,17.9828 14.723,17.97 14.481,17.97 C14.195,17.9773 13.9127,17.948 13.634,17.882 C13.3553,17.816 13.1097,17.7152 12.897,17.5795 C12.6843,17.4438 12.5193,17.2733 12.402,17.068 C12.2847,16.8627 12.2443,16.6207 12.281,16.342 C12.303,16.1513 12.3873,15.968 12.534,15.792 C12.6807,15.616 12.8658,15.4638 13.0895,15.3355 C13.3132,15.2072 13.5625,15.1082 13.8375,15.0385 C14.1125,14.9688 14.393,14.9377 14.679,14.945 C15.0677,14.9597 15.3757,15.0238 15.603,15.1375 C15.8303,15.2512 16.0265,15.3813 16.1915,15.528 C16.3565,15.6747 16.5142,15.8177 16.6645,15.957 C16.8148,16.0963 17.0073,16.2027 17.242,16.276 M18.122,17.7758 C18.254,17.6377 18.32,17.485 18.32,17.3177 C18.32,17.1722 18.2723,17.0413 18.177,16.925 C18.1477,16.991 18.0963,17.024 18.023,17.024 C17.9423,17.024 17.8873,16.9763 17.858,16.881 C17.8947,16.947 17.9497,16.98 18.023,16.98 C18.0743,16.98 18.122,16.9579 18.166,16.9137 C18.0047,16.7069 17.6857,16.5335 17.209,16.3932 C17.0183,16.3342 16.8552,16.2512 16.7195,16.1442 C16.5838,16.0372 16.4537,15.9246 16.329,15.8064 C16.2337,15.7179 16.1365,15.6311 16.0375,15.5462 C15.9385,15.4613 15.8267,15.3857 15.702,15.3193 C15.6653,15.4153 15.592,15.4632 15.482,15.4632 C15.3647,15.4632 15.2877,15.4005 15.251,15.275 C15.317,15.363 15.394,15.407 15.482,15.407 C15.5627,15.407 15.6287,15.374 15.68,15.308 C15.5553,15.242 15.4123,15.187 15.251,15.143 C15.0897,15.099 14.8953,15.0733 14.668,15.066 L14.558,15.066 C14.2867,15.066 14.0117,15.1063 13.733,15.187 C13.777,15.2163 13.8173,15.231 13.854,15.231 C13.9273,15.231 13.9823,15.2017 14.019,15.143 C13.997,15.231 13.942,15.275 13.854,15.275 C13.7953,15.275 13.7477,15.2457 13.711,15.187 C13.359,15.2973 13.0583,15.4597 12.809,15.674 C12.5597,15.8883 12.4167,16.1175 12.38,16.3614 C12.3653,16.4501 12.3653,16.5351 12.38,16.6163 C12.402,16.6385 12.4313,16.6589 12.468,16.6773 C12.5047,16.6958 12.5413,16.705 12.578,16.705 C12.6807,16.705 12.765,16.6573 12.831,16.562 C12.809,16.6784 12.7393,16.7444 12.622,16.76 C12.6513,16.804 12.699,16.826 12.765,16.826 C12.8457,16.826 12.9117,16.793 12.963,16.727 C12.9337,16.8297 12.8677,16.881 12.765,16.881 C12.6917,16.881 12.6367,16.8443 12.6,16.771 L12.578,16.771 C12.4973,16.771 12.4313,16.738 12.38,16.672 C12.4167,16.8609 12.4863,17.0245 12.589,17.1625 C12.7577,17.3805 13.007,17.5512 13.337,17.6747 C13.667,17.7982 14.03,17.86 14.426,17.86 L14.558,17.86 C14.8367,17.86 15.0768,17.8802 15.2785,17.9205 C15.4802,17.9608 15.6727,18.003 15.856,18.047 C15.9807,18.0837 16.109,18.1167 16.241,18.146 C16.373,18.1753 16.5197,18.1973 16.681,18.212 C16.7177,18.2193 16.758,18.2248 16.802,18.2285 C16.846,18.2322 16.8863,18.234 16.923,18.234 C17.1723,18.234 17.4033,18.194 17.616,18.114 C17.8287,18.0341 17.9973,17.9213 18.122,17.7758 M13.491,15.869 C13.4323,15.869 13.3773,15.847 13.326,15.803 C13.2747,15.759 13.238,15.7077 13.216,15.649 C13.2453,15.6857 13.2838,15.7187 13.3315,15.748 C13.3792,15.7773 13.4323,15.792 13.491,15.792 C13.557,15.792 13.6138,15.7773 13.6615,15.748 C13.7092,15.7187 13.7477,15.6857 13.777,15.649 C13.755,15.7223 13.711,15.781 13.645,15.825 C13.667,15.847 13.6927,15.8672 13.722,15.8855 C13.7513,15.9038 13.7843,15.913 13.821,15.913 C13.9017,15.913 13.9677,15.8763 14.019,15.803 C13.9897,15.9057 13.9237,15.957 13.821,15.957 C13.733,15.957 13.6707,15.913 13.634,15.825 C13.5973,15.8543 13.5497,15.869 13.491,15.869 M16.142,16.32 C16.076,16.32 16.0155,16.298 15.9605,16.254 C15.9055,16.21 15.8707,16.1513 15.856,16.078 C15.9147,16.188 16.01,16.243 16.142,16.243 C16.2813,16.243 16.3803,16.188 16.439,16.078 C16.417,16.2027 16.3473,16.276 16.23,16.298 C16.274,16.3567 16.3363,16.386 16.417,16.386 C16.5123,16.386 16.5857,16.3493 16.637,16.276 C16.6077,16.3933 16.5343,16.452 16.417,16.452 C16.329,16.452 16.2593,16.4043 16.208,16.309 C16.1933,16.309 16.1823,16.3108 16.175,16.3145 C16.1677,16.3182 16.1567,16.32 16.142,16.32 M14.943,15.891 C14.8037,15.891 14.7157,15.8213 14.679,15.682 C14.7083,15.7187 14.745,15.7517 14.789,15.781 C14.833,15.8103 14.8843,15.825 14.943,15.825 C15.0383,15.825 15.119,15.7847 15.185,15.704 L15.174,15.704 C15.108,15.704 15.0603,15.6637 15.031,15.583 C15.0677,15.6343 15.1153,15.66 15.174,15.66 C15.24,15.66 15.2913,15.6343 15.328,15.583 C15.3133,15.6563 15.2693,15.693 15.196,15.693 C15.1593,15.825 15.075,15.891 14.943,15.891 M14.371,17.728 C14.4443,17.728 14.5067,17.6962 14.558,17.6326 C14.536,17.7255 14.4737,17.772 14.371,17.772 C14.2757,17.772 14.217,17.7255 14.195,17.6326 C14.2463,17.6962 14.305,17.728 14.371,17.728 M17.891,17.849 C17.979,17.849 18.0487,17.8115 18.1,17.7366 C18.0707,17.8482 18.001,17.904 17.891,17.904 C17.8837,17.904 17.8782,17.9022 17.8745,17.8985 C17.8708,17.8948 17.8653,17.893 17.858,17.893 C17.8213,17.9737 17.7627,18.014 17.682,18.014 C17.5867,18.014 17.528,17.9663 17.506,17.871 C17.5427,17.937 17.6013,17.97 17.682,17.97 C17.7407,17.97 17.7957,17.9443 17.847,17.893 C17.759,17.8721 17.704,17.82 17.682,17.7366 C17.7333,17.8115 17.803,17.849 17.891,17.849 M17.143,18.047 C17.209,18.047 17.2603,18.0213 17.297,17.97 C17.2823,18.0507 17.231,18.091 17.143,18.091 C17.0623,18.091 17.0073,18.0507 16.978,17.97 C17.0147,18.0213 17.0697,18.047 17.143,18.047 M16.978,17.2947 C16.9633,17.3513 16.9358,17.3955 16.8955,17.4273 C16.8552,17.4591 16.8057,17.475 16.747,17.475 C16.637,17.475 16.5637,17.4149 16.527,17.2947 C16.5783,17.3856 16.6517,17.431 16.747,17.431 C16.8497,17.431 16.9267,17.3856 16.978,17.2947 M17.187,17.5367 C17.1723,17.6276 17.1173,17.673 17.022,17.673 C16.9853,17.673 16.9505,17.659 16.9175,17.6311 C16.8845,17.6031 16.8607,17.5717 16.846,17.5367 C16.8973,17.5982 16.956,17.629 17.022,17.629 C17.0953,17.629 17.1503,17.5982 17.187,17.5367 M15.229,16.694 C15.2803,16.694 15.317,16.6757 15.339,16.639 C15.3243,16.6903 15.2877,16.716 15.229,16.716 C15.185,16.716 15.1483,16.6867 15.119,16.628 C15.141,16.672 15.1777,16.694 15.229,16.694 M15.449,16.826 C15.3977,16.826 15.361,16.8003 15.339,16.749 C15.361,16.7857 15.3977,16.804 15.449,16.804 C15.5003,16.804 15.537,16.7857 15.559,16.749 C15.5443,16.8003 15.5077,16.826 15.449,16.826 M16.219,18.058 C16.307,18.058 16.3767,18.0213 16.428,17.948 C16.406,18.058 16.3363,18.113 16.219,18.113 C16.1237,18.113 16.0577,18.0617 16.021,17.959 C16.0137,17.9663 16.0063,17.97 15.999,17.97 C15.9183,17.97 15.8707,17.9311 15.856,17.8533 C15.878,17.9018 15.9257,17.926 15.999,17.926 C16.065,17.926 16.1163,17.9018 16.153,17.8533 C16.1457,17.9097 16.1053,17.9449 16.032,17.959 C16.0833,18.025 16.1457,18.058 16.219,18.058 M15.548,17.508 C15.6213,17.508 15.6763,17.4857 15.713,17.441 C15.6983,17.515 15.6433,17.552 15.548,17.552 C15.5333,17.552 15.5113,17.5447 15.482,17.53 C15.4673,17.5914 15.4362,17.6416 15.3885,17.6806 C15.3408,17.7195 15.2877,17.739 15.229,17.739 C15.0897,17.739 15.0017,17.6716 14.965,17.5367 C15.0237,17.6276 15.1117,17.673 15.229,17.673 C15.3317,17.673 15.416,17.6308 15.482,17.5465 C15.438,17.5254 15.405,17.4902 15.383,17.441 C15.4197,17.4857 15.4747,17.508 15.548,17.508 M14.03,15.385 C13.9787,15.385 13.9457,15.3593 13.931,15.308 C13.9603,15.3373 13.9933,15.352 14.03,15.352 C14.0667,15.352 14.096,15.3373 14.118,15.308 C14.0667,15.2933 14.0373,15.2603 14.03,15.209 C14.052,15.253 14.0923,15.275 14.151,15.275 C14.2097,15.275 14.25,15.253 14.272,15.209 C14.2573,15.2823 14.217,15.319 14.151,15.319 C14.1437,15.319 14.1382,15.3172 14.1345,15.3135 C14.1308,15.3098 14.1253,15.308 14.118,15.308 C14.1033,15.3593 14.074,15.385 14.03,15.385 M15.922,17.2416 C15.9073,17.3239 15.8633,17.365 15.79,17.365 C15.7167,17.365 15.6727,17.3239 15.658,17.2416 C15.68,17.3019 15.724,17.332 15.79,17.332 C15.8487,17.332 15.8927,17.3019 15.922,17.2416 M17.594,16.628 C17.5793,16.7013 17.5353,16.738 17.462,16.738 L17.451,16.727 C17.429,16.815 17.374,16.859 17.286,16.859 C17.198,16.859 17.1393,16.8113 17.11,16.716 C17.1467,16.782 17.2053,16.815 17.286,16.815 C17.3447,16.815 17.396,16.7857 17.44,16.727 C17.418,16.7197 17.396,16.7087 17.374,16.694 C17.352,16.6793 17.3373,16.6573 17.33,16.628 C17.352,16.672 17.396,16.694 17.462,16.694 C17.528,16.694 17.572,16.672 17.594,16.628 M12.82,16.32 C12.886,16.32 12.9373,16.2943 12.974,16.243 C12.9447,16.3237 12.8933,16.364 12.82,16.364 C12.7467,16.364 12.6953,16.3237 12.666,16.243 C12.7027,16.2943 12.754,16.32 12.82,16.32 M13.722,16.463 C13.7807,16.551 13.8613,16.595 13.964,16.595 C14.074,16.595 14.1583,16.551 14.217,16.463 C14.1803,16.595 14.096,16.661 13.964,16.661 C13.9127,16.661 13.8632,16.6435 13.8155,16.6086 C13.7678,16.5736 13.7367,16.5251 13.722,16.463 M13.799,17.211 C13.8577,17.211 13.909,17.1963 13.953,17.167 C13.997,17.1377 14.0337,17.1047 14.063,17.068 C14.0337,17.1853 13.9603,17.2513 13.843,17.266 C13.7917,17.4053 13.689,17.475 13.535,17.475 C13.4543,17.475 13.3828,17.452 13.3205,17.4061 C13.2582,17.3601 13.216,17.2983 13.194,17.2205 C13.2307,17.2755 13.2783,17.3206 13.337,17.356 C13.3957,17.3913 13.4617,17.409 13.535,17.409 C13.5937,17.409 13.6468,17.397 13.6945,17.373 C13.7422,17.349 13.7843,17.317 13.821,17.277 L13.799,17.277 C13.6597,17.277 13.5717,17.2073 13.535,17.068 C13.5643,17.1047 13.601,17.1377 13.645,17.167 C13.689,17.1963 13.7403,17.211 13.799,17.211 M17.858,17.178 C17.8067,17.178 17.7663,17.145 17.737,17.079 C17.7663,17.123 17.8067,17.145 17.858,17.145 C17.902,17.145 17.946,17.123 17.99,17.079 C17.9607,17.145 17.9167,17.178 17.858,17.178 M14.778,17.134 C14.8513,17.134 14.91,17.1047 14.954,17.046 C14.932,17.134 14.8733,17.178 14.778,17.178 C14.69,17.178 14.635,17.134 14.613,17.046 C14.5983,17.1047 14.569,17.1523 14.525,17.189 C14.481,17.2257 14.4297,17.244 14.371,17.244 C14.3123,17.244 14.261,17.2257 14.217,17.189 C14.173,17.1523 14.14,17.1047 14.118,17.046 C14.184,17.134 14.2683,17.178 14.371,17.178 C14.4663,17.178 14.547,17.134 14.613,17.046 C14.6497,17.1047 14.7047,17.134 14.778,17.134 M14.459,16.947 C14.3783,16.947 14.327,16.9067 14.305,16.826 C14.3417,16.8847 14.393,16.914 14.459,16.914 C14.525,16.914 14.5763,16.8847 14.613,16.826 C14.591,16.9067 14.5397,16.947 14.459,16.947 M16.076,16.595 C16.1347,16.595 16.1823,16.5657 16.219,16.507 C16.2043,16.595 16.1567,16.639 16.076,16.639 C16.0027,16.639 15.9513,16.595 15.922,16.507 C15.9587,16.5657 16.01,16.595 16.076,16.595 "/>
</g>

<g fill="#ffffff" fill-opacity="1" stroke="none" transform="matrix(1,0,0,1,0,0)"
font-family="MS Shell Dlg 2" font-size="8.25" font-weight="400" font-style="normal" 
>
</g>
</g>
</svg>
