<?xml version="1.0" encoding="UTF-8" standalone="no"?>
<svg width="11.2889mm" height="11.2889mm"
 viewBox="0 0 32 32"
 xmlns="http://www.w3.org/2000/svg" xmlns:xlink="http://www.w3.org/1999/xlink"  version="1.2" baseProfile="tiny">
<title>Qt SVG Document</title>
<desc>Generated with Qt</desc>
<defs>
</defs>
<g fill="none" stroke="black" stroke-width="1" fill-rule="evenodd" stroke-linecap="square" stroke-linejoin="bevel" >

<g fill="none" stroke="none" transform="matrix(1,0,0,1,0,0)"
font-family="MS Shell Dlg 2" font-size="8.25" font-weight="400" font-style="normal" 
>
</g>

<g fill="none" stroke="none" transform="matrix(1.33333,0,0,1.33333,0,0)"
font-family="MS Shell Dlg 2" font-size="8.25" font-weight="400" font-style="normal" 
>
</g>

<g fill="#1f78b4" fill-opacity="1" stroke="none" transform="matrix(1,0,0,1,0,0)"
font-family="MS Shell Dlg 2" font-size="8.25" font-weight="400" font-style="normal" 
>
<path vector-effect="none" fill-rule="evenodd" d="M20.916,16.812 C20.916,17.46 20.794,18.07 20.55,18.642 C20.306,19.214 19.97,19.712 19.542,20.136 C19.114,20.56 18.614,20.894 18.042,21.138 C17.47,21.382 16.86,21.504 16.212,21.504 C15.564,21.504 14.954,21.382 14.382,21.138 C13.81,20.894 13.312,20.56 12.888,20.136 C12.464,19.712 12.13,19.214 11.886,18.642 C11.642,18.07 11.52,17.46 11.52,16.812 C11.52,16.164 11.642,15.554 11.886,14.982 C12.13,14.41 12.464,13.91 12.888,13.482 C13.312,13.054 13.81,12.718 14.382,12.474 C14.954,12.23 15.564,12.108 16.212,12.108 C16.86,12.108 17.47,12.23 18.042,12.474 C18.614,12.718 19.114,13.054 19.542,13.482 C19.97,13.91 20.306,14.41 20.55,14.982 C20.794,15.554 20.916,16.164 20.916,16.812 "/>
</g>

<g fill="none" stroke="none" transform="matrix(1.33333,0,0,1.33333,0,0)"
font-family="MS Shell Dlg 2" font-size="8.25" font-weight="400" font-style="normal" 
>
</g>

<g fill="none" stroke="none" transform="matrix(1,0,0,1,0,0)"
font-family="MS Shell Dlg 2" font-size="8.25" font-weight="400" font-style="normal" 
>
</g>

<g fill="none" stroke="#000000" stroke-opacity="1" stroke-width="1" stroke-linecap="square" stroke-linejoin="bevel" transform="matrix(1,0,0,1,0,0)"
font-family="MS Shell Dlg 2" font-size="8.25" font-weight="400" font-style="normal" 
>
</g>

<g fill="none" stroke="none" transform="matrix(1,0,0,1,0,0)"
font-family="MS Shell Dlg 2" font-size="8.25" font-weight="400" font-style="normal" 
>
</g>

<g fill="none" stroke="none" transform="matrix(1.33333,0,0,1.33333,0,0)"
font-family="MS Shell Dlg 2" font-size="8.25" font-weight="400" font-style="normal" 
>
</g>

<g fill="#ffffff" fill-opacity="1" stroke="none" transform="matrix(1,0,0,1,0,0)"
font-family="MS Shell Dlg 2" font-size="8.25" font-weight="400" font-style="normal" 
>
<path vector-effect="none" fill-rule="evenodd" d="M16.322,18.475 C16.3593,18.475 16.3932,18.489 16.4235,18.517 C16.4538,18.545 16.469,18.5777 16.469,18.615 C16.469,18.6523 16.4538,18.6873 16.4235,18.72 C16.3932,18.7527 16.3593,18.769 16.322,18.769 L16.168,18.769 L15.461,18.769 L14.152,18.769 L13.445,18.769 L13.298,18.769 C13.2467,18.769 13.2082,18.7527 13.1825,18.72 C13.1568,18.6873 13.144,18.6523 13.144,18.615 C13.144,18.5777 13.1568,18.545 13.1825,18.517 C13.2082,18.489 13.2467,18.475 13.298,18.475 L13.347,18.475 L14.628,16.046 L14.516,15.822 C14.4927,15.7847 14.488,15.7485 14.502,15.7135 C14.516,15.6785 14.5417,15.6493 14.579,15.626 C14.6163,15.6167 14.6537,15.6167 14.691,15.626 C14.7283,15.6353 14.7587,15.6587 14.782,15.696 L14.81,15.717 L14.817,15.696 C14.8403,15.6587 14.8707,15.6353 14.908,15.626 C14.9453,15.6167 14.9827,15.6167 15.02,15.626 C15.0573,15.6493 15.083,15.6785 15.097,15.7135 C15.111,15.7485 15.1063,15.7847 15.083,15.822 L14.964,16.046 L16.252,18.475 L16.322,18.475 M15.209,18.475 L14.81,17.691 L14.39,18.475 L15.209,18.475 M18.555,17.768 C18.5877,17.768 18.6145,17.7785 18.6355,17.7995 C18.6565,17.8205 18.667,17.845 18.667,17.873 C18.667,17.9057 18.6565,17.9313 18.6355,17.95 C18.6145,17.9687 18.5877,17.978 18.555,17.978 L18.156,17.978 L18.303,18.419 C18.3123,18.447 18.3112,18.4738 18.2995,18.4995 C18.2878,18.5252 18.2657,18.5427 18.233,18.552 C18.2237,18.5567 18.2097,18.559 18.191,18.559 C18.1443,18.559 18.1117,18.5357 18.093,18.489 L17.932,17.978 L17.393,17.978 L17.232,18.489 C17.218,18.5357 17.183,18.559 17.127,18.559 C17.113,18.559 17.099,18.5567 17.085,18.552 C17.029,18.5287 17.0057,18.4843 17.015,18.419 L17.162,17.978 L16.77,17.978 C16.7373,17.978 16.7117,17.9687 16.693,17.95 C16.6743,17.9313 16.665,17.9057 16.665,17.873 C16.665,17.845 16.6743,17.8205 16.693,17.7995 C16.7117,17.7785 16.7373,17.768 16.77,17.768 L17.232,17.768 L17.295,17.572 L17.232,17.572 C17.1947,17.572 17.1655,17.5607 17.1445,17.5381 C17.1235,17.5156 17.113,17.4907 17.113,17.4636 C17.113,17.4365 17.1235,17.4128 17.1445,17.3925 C17.1655,17.3722 17.1947,17.362 17.232,17.362 L18.1,17.362 C18.128,17.362 18.1525,17.3722 18.1735,17.3925 C18.1945,17.4128 18.205,17.4365 18.205,17.4636 C18.205,17.4907 18.1945,17.5156 18.1735,17.5381 C18.1525,17.5607 18.128,17.572 18.1,17.572 L18.03,17.572 L18.093,17.768 L18.555,17.768 M17.855,17.768 L17.806,17.593 C17.8013,17.5883 17.799,17.5813 17.799,17.572 L17.526,17.572 C17.526,17.5813 17.5213,17.5883 17.512,17.593 L17.47,17.768 L17.855,17.768 M17.75,16.613 C17.7733,16.613 17.7955,16.622 17.8165,16.64 C17.8375,16.658 17.848,16.6783 17.848,16.7007 C17.848,16.7278 17.8375,16.7514 17.8165,16.7716 C17.7955,16.7919 17.7733,16.802 17.75,16.802 L17.645,16.802 L17.176,16.802 L16.308,16.802 L15.839,16.802 L15.741,16.802 C15.7037,16.802 15.6768,16.7919 15.6605,16.7716 C15.6442,16.7514 15.636,16.7278 15.636,16.7007 C15.636,16.6783 15.6442,16.658 15.6605,16.64 C15.6768,16.622 15.7037,16.613 15.741,16.613 L15.769,16.613 L16.623,15.003 L16.546,14.849 C16.532,14.8257 16.5297,14.8023 16.539,14.779 C16.5483,14.7557 16.5647,14.737 16.588,14.723 C16.616,14.7137 16.6417,14.7125 16.665,14.7195 C16.6883,14.7265 16.707,14.7417 16.721,14.765 L16.742,14.779 L16.749,14.765 C16.763,14.7417 16.7828,14.7265 16.8085,14.7195 C16.8342,14.7125 16.8587,14.7137 16.882,14.723 C16.9053,14.737 16.9217,14.7557 16.931,14.779 C16.9403,14.8023 16.938,14.8257 16.924,14.849 L16.847,15.003 L17.701,16.613 L17.75,16.613 M17.008,16.613 L16.742,16.095 L16.462,16.613 L17.008,16.613"/>
</g>

<g fill="none" stroke="none" transform="matrix(1.33333,0,0,1.33333,0,0)"
font-family="MS Shell Dlg 2" font-size="8.25" font-weight="400" font-style="normal" 
>
</g>

<g fill="none" stroke="none" transform="matrix(1,0,0,1,0,0)"
font-family="MS Shell Dlg 2" font-size="8.25" font-weight="400" font-style="normal" 
>
</g>

<g fill="none" stroke="#000000" stroke-opacity="1" stroke-width="1" stroke-linecap="square" stroke-linejoin="bevel" transform="matrix(1,0,0,1,0,0)"
font-family="MS Shell Dlg 2" font-size="8.25" font-weight="400" font-style="normal" 
>
</g>
</g>
</svg>
