<?xml version="1.0" encoding="UTF-8" standalone="no"?>
<svg width="11.2889mm" height="11.2889mm"
 viewBox="0 0 32 32"
 xmlns="http://www.w3.org/2000/svg" xmlns:xlink="http://www.w3.org/1999/xlink"  version="1.2" baseProfile="tiny">
<title>Qt SVG Document</title>
<desc>Generated with Qt</desc>
<defs>
</defs>
<g fill="none" stroke="black" stroke-width="1" fill-rule="evenodd" stroke-linecap="square" stroke-linejoin="bevel" >

<g fill="none" stroke="none" transform="matrix(1,0,0,1,0,0)"
font-family="MS Shell Dlg 2" font-size="8.25" font-weight="400" font-style="normal" 
>
</g>

<g fill="none" stroke="none" transform="matrix(1.33333,0,0,1.33333,0,0)"
font-family="MS Shell Dlg 2" font-size="8.25" font-weight="400" font-style="normal" 
>
</g>

<g fill="#b75800" fill-opacity="1" stroke="none" transform="matrix(1,0,0,1,0,0)"
font-family="MS Shell Dlg 2" font-size="8.25" font-weight="400" font-style="normal" 
>
<path vector-effect="none" fill-rule="evenodd" d="M21.402,17.114 C21.402,17.87 21.2597,18.5817 20.975,19.249 C20.6903,19.9163 20.2983,20.4973 19.799,20.992 C19.2997,21.4867 18.7163,21.8763 18.049,22.161 C17.3817,22.4457 16.67,22.588 15.914,22.588 C15.158,22.588 14.4463,22.4457 13.779,22.161 C13.1117,21.8763 12.5307,21.4867 12.036,20.992 C11.5413,20.4973 11.1517,19.9163 10.867,19.249 C10.5823,18.5817 10.44,17.87 10.44,17.114 C10.44,16.358 10.5823,15.6463 10.867,14.979 C11.1517,14.3117 11.5413,13.7283 12.036,13.229 C12.5307,12.7297 13.1117,12.3377 13.779,12.053 C14.4463,11.7683 15.158,11.626 15.914,11.626 C16.67,11.626 17.3817,11.7683 18.049,12.053 C18.7163,12.3377 19.2997,12.7297 19.799,13.229 C20.2983,13.7283 20.6903,14.3117 20.975,14.979 C21.2597,15.6463 21.402,16.358 21.402,17.114 "/>
</g>

<g fill="none" stroke="none" transform="matrix(1.33333,0,0,1.33333,0,0)"
font-family="MS Shell Dlg 2" font-size="8.25" font-weight="400" font-style="normal" 
>
</g>

<g fill="none" stroke="none" transform="matrix(1,0,0,1,0,0)"
font-family="MS Shell Dlg 2" font-size="8.25" font-weight="400" font-style="normal" 
>
</g>

<g fill="none" stroke="#000000" stroke-opacity="1" stroke-width="1" stroke-linecap="square" stroke-linejoin="bevel" transform="matrix(1,0,0,1,0,0)"
font-family="MS Shell Dlg 2" font-size="8.25" font-weight="400" font-style="normal" 
>
</g>

<g fill="none" stroke="none" transform="matrix(1,0,0,1,0,0)"
font-family="MS Shell Dlg 2" font-size="8.25" font-weight="400" font-style="normal" 
>
</g>

<g fill="none" stroke="none" transform="matrix(1.33333,0,0,1.33333,0,0)"
font-family="MS Shell Dlg 2" font-size="8.25" font-weight="400" font-style="normal" 
>
</g>

<g fill="#ffffff" fill-opacity="1" stroke="none" transform="matrix(1,0,0,1,0,0)"
font-family="MS Shell Dlg 2" font-size="8.25" font-weight="400" font-style="normal" 
>
<path vector-effect="none" fill-rule="evenodd" d="M14.65,19.13 C14.55,19.2633 14.47,19.3833 14.41,19.49 C14.35,19.5967 14.3367,19.68 14.37,19.74 L14.2,19.74 C14.04,19.74 13.9817,19.6767 14.025,19.55 C14.0683,19.4233 14.1633,19.2633 14.31,19.07 C14.31,18.97 14.3333,18.88 14.38,18.8 C14.4267,18.72 14.48,18.6467 14.54,18.58 C14.6,18.5133 14.66,18.45 14.72,18.39 C14.78,18.33 14.8267,18.27 14.86,18.21 C14.84,18.09 14.8233,17.9617 14.81,17.825 C14.7967,17.6883 14.78,17.5433 14.76,17.39 C14.74,17.23 14.7117,17.0733 14.675,16.92 C14.6383,16.7667 14.605,16.62 14.575,16.48 C14.545,16.34 14.5233,16.2017 14.51,16.065 C14.4967,15.9283 14.5033,15.7933 14.53,15.66 C14.5367,15.62 14.5567,15.5533 14.59,15.46 C14.6233,15.3667 14.6583,15.27 14.695,15.17 C14.7317,15.07 14.7683,14.975 14.805,14.885 C14.8417,14.795 14.8667,14.7267 14.88,14.68 C14.9267,14.54 14.985,14.4317 15.055,14.355 C15.125,14.2783 15.2,14.2233 15.28,14.19 C15.36,14.1567 15.445,14.1367 15.535,14.13 C15.625,14.1233 15.7133,14.12 15.8,14.12 C15.84,14.12 15.8767,14.1283 15.91,14.145 C15.9433,14.1617 15.98,14.1767 16.02,14.19 C15.86,14.19 15.7083,14.2217 15.565,14.285 C15.4217,14.3483 15.3033,14.5067 15.21,14.76 C15.1967,14.8 15.1733,14.865 15.14,14.955 C15.1067,15.045 15.0717,15.14 15.035,15.24 C14.9983,15.34 14.9617,15.4367 14.925,15.53 C14.8883,15.6233 14.8667,15.6933 14.86,15.74 C14.8333,15.8733 14.8283,16.0083 14.845,16.145 C14.8617,16.2817 14.8867,16.42 14.92,16.56 C14.9533,16.7 14.9883,16.8433 15.025,16.99 C15.0617,17.1367 15.0867,17.29 15.1,17.45 C15.12,17.6167 15.135,17.7683 15.145,17.905 C15.155,18.0417 15.17,18.17 15.19,18.29 C15.1633,18.35 15.12,18.4083 15.06,18.465 C15,18.5217 14.94,18.5833 14.88,18.65 C14.82,18.7167 14.7667,18.7883 14.72,18.865 C14.6733,18.9417 14.65,19.03 14.65,19.13 M16.27,16.62 C16.2367,16.64 16.21,16.665 16.19,16.695 C16.17,16.725 16.1433,16.76 16.11,16.8 C16.0967,16.8333 16.0767,16.8633 16.05,16.89 C16.0233,16.9167 16,16.94 15.98,16.96 C15.9667,16.9267 15.96,16.8917 15.96,16.855 C15.96,16.8183 15.96,16.78 15.96,16.74 C15.9467,16.56 15.9533,16.3883 15.98,16.225 C16.0067,16.0617 16.0417,15.915 16.085,15.785 C16.1283,15.655 16.1733,15.5433 16.22,15.45 C16.2667,15.3567 16.3033,15.29 16.33,15.25 C16.3633,15.27 16.41,15.3033 16.47,15.35 C16.53,15.3967 16.5917,15.4633 16.655,15.55 C16.7183,15.6367 16.775,15.745 16.825,15.875 C16.875,16.005 16.9067,16.1633 16.92,16.35 C16.92,16.3833 16.9233,16.4167 16.93,16.45 C16.9367,16.4833 16.94,16.5167 16.94,16.55 C16.9267,16.5567 16.9067,16.56 16.88,16.56 L16.84,16.58 C16.7867,16.6 16.7433,16.6083 16.71,16.605 C16.6767,16.6017 16.64,16.5933 16.6,16.58 C16.5467,16.5667 16.4933,16.5617 16.44,16.565 C16.3867,16.5683 16.33,16.5867 16.27,16.62 M16.37,15.76 C16.2967,15.7933 16.235,15.8517 16.185,15.935 C16.135,16.0183 16.1167,16.1033 16.13,16.19 C16.13,16.27 16.155,16.3317 16.205,16.375 C16.255,16.4183 16.3167,16.43 16.39,16.41 C16.4033,16.41 16.41,16.4067 16.41,16.4 C16.41,16.3933 16.4167,16.39 16.43,16.39 C16.4967,16.3567 16.555,16.2983 16.605,16.215 C16.655,16.1317 16.6733,16.0467 16.66,15.96 C16.66,15.88 16.6317,15.8183 16.575,15.775 C16.5183,15.7317 16.45,15.7267 16.37,15.76 M16.41,16.23 C16.37,16.25 16.3333,16.2517 16.3,16.235 C16.2667,16.2183 16.25,16.1833 16.25,16.13 C16.25,16.0967 16.2633,16.0583 16.29,16.015 C16.3167,15.9717 16.35,15.94 16.39,15.92 L16.41,15.92 C16.5033,15.9 16.55,15.9333 16.55,16.02 C16.55,16.0533 16.5367,16.0917 16.51,16.135 C16.4833,16.1783 16.45,16.21 16.41,16.23 M16.58,18.31 C16.5933,18.3633 16.6133,18.41 16.64,18.45 C16.6667,18.49 16.7067,18.54 16.76,18.6 C16.7933,18.64 16.8267,18.685 16.86,18.735 C16.8933,18.785 16.9267,18.84 16.96,18.9 L16.29,19.17 C16.31,19.09 16.3367,19.01 16.37,18.93 C16.4033,18.85 16.4367,18.7733 16.47,18.7 C16.55,18.5067 16.58,18.3833 16.56,18.33 C16.56,18.2967 16.555,18.2667 16.545,18.24 C16.535,18.2133 16.51,18.17 16.47,18.11 C16.3967,18.0167 16.315,17.885 16.225,17.715 C16.135,17.545 16.0667,17.3433 16.02,17.11 C16.0533,17.0767 16.0817,17.0433 16.105,17.01 C16.1283,16.9767 16.1567,16.94 16.19,16.9 C16.21,16.8667 16.23,16.8383 16.25,16.815 C16.27,16.7917 16.29,16.7733 16.31,16.76 C16.4033,16.7133 16.4833,16.7067 16.55,16.74 C16.67,16.7867 16.7867,16.78 16.9,16.72 L16.92,16.72 C16.9067,16.9733 16.87,17.2117 16.81,17.435 C16.75,17.6583 16.7,17.8433 16.66,17.99 C16.6267,18.0833 16.605,18.1517 16.595,18.195 C16.585,18.2383 16.58,18.2767 16.58,18.31 M17.92,19.23 C17.9867,19.2967 18.01,19.3683 17.99,19.445 C17.97,19.5217 17.925,19.5933 17.855,19.66 C17.785,19.7267 17.7033,19.7817 17.61,19.825 C17.5167,19.8683 17.43,19.89 17.35,19.89 L14.82,19.89 C14.6667,19.89 14.6133,19.8283 14.66,19.705 C14.7067,19.5817 14.8067,19.4233 14.96,19.23 C14.9533,19.13 14.9717,19.0433 15.015,18.97 C15.0583,18.8967 15.1117,18.8267 15.175,18.76 C15.2383,18.6933 15.3017,18.63 15.365,18.57 C15.4283,18.51 15.4767,18.45 15.51,18.39 C15.49,18.27 15.47,18.1417 15.45,18.005 C15.43,17.8683 15.41,17.72 15.39,17.56 C15.3767,17.4 15.3517,17.245 15.315,17.095 C15.2783,16.945 15.245,16.8 15.215,16.66 C15.185,16.52 15.1617,16.3817 15.145,16.245 C15.1283,16.1083 15.13,15.9733 15.15,15.84 C15.1567,15.7933 15.1783,15.7233 15.215,15.63 C15.2517,15.5367 15.29,15.44 15.33,15.34 C15.37,15.24 15.4067,15.1467 15.44,15.06 C15.4733,14.9733 15.4967,14.9067 15.51,14.86 C15.5567,14.72 15.615,14.61 15.685,14.53 C15.755,14.45 15.8317,14.3933 15.915,14.36 C15.9983,14.3267 16.0833,14.3067 16.17,14.3 C16.2567,14.2933 16.3433,14.29 16.43,14.29 C16.6167,14.29 16.7717,14.42 16.895,14.68 C17.0183,14.94 17.1433,15.28 17.27,15.7 C17.3033,15.78 17.3583,15.85 17.435,15.91 C17.5117,15.97 17.56,16.0433 17.58,16.13 C17.6267,16.31 17.66,16.4867 17.68,16.66 C17.7,16.8333 17.7133,17.015 17.72,17.205 C17.7267,17.395 17.7267,17.5967 17.72,17.81 C17.7133,18.0233 17.7067,18.26 17.7,18.52 C17.72,18.5533 17.735,18.6 17.745,18.66 C17.755,18.72 17.7667,18.785 17.78,18.855 C17.7933,18.925 17.81,18.9933 17.83,19.06 C17.85,19.1267 17.88,19.1833 17.92,19.23 M17.15,18.97 L17.11,18.88 C17.0767,18.8 17.0367,18.725 16.99,18.655 C16.9433,18.585 16.8933,18.52 16.84,18.46 C16.8067,18.4267 16.775,18.3917 16.745,18.355 C16.715,18.3183 16.7,18.29 16.7,18.27 C16.7,18.25 16.7083,18.2183 16.725,18.175 C16.7417,18.1317 16.76,18.0833 16.78,18.03 C16.8067,17.9367 16.8367,17.8267 16.87,17.7 C16.9033,17.5733 16.935,17.4333 16.965,17.28 C16.995,17.1267 17.0167,16.9667 17.03,16.8 C17.0433,16.6333 17.0433,16.4633 17.03,16.29 C17.0167,16.0567 16.9767,15.8617 16.91,15.705 C16.8433,15.5483 16.77,15.4233 16.69,15.33 C16.61,15.2367 16.535,15.1717 16.465,15.135 C16.395,15.0983 16.3567,15.08 16.35,15.08 L16.33,15.06 L16.29,15.1 C16.2833,15.1133 16.2533,15.1633 16.2,15.25 C16.1467,15.3367 16.0883,15.455 16.025,15.605 C15.9617,15.755 15.9083,15.9317 15.865,16.135 C15.8217,16.3383 15.8067,16.56 15.82,16.8 C15.8533,17.1533 15.93,17.4467 16.05,17.68 C16.17,17.9133 16.2767,18.0967 16.37,18.23 C16.39,18.2633 16.4083,18.2917 16.425,18.315 C16.4417,18.3383 16.45,18.3567 16.45,18.37 C16.45,18.39 16.4383,18.4267 16.415,18.48 C16.3917,18.5333 16.37,18.5867 16.35,18.64 C16.31,18.74 16.2717,18.845 16.235,18.955 C16.1983,19.065 16.17,19.1767 16.15,19.29 L16.13,19.4 L17.15,18.97"/>
</g>

<g fill="none" stroke="none" transform="matrix(1.33333,0,0,1.33333,0,0)"
font-family="MS Shell Dlg 2" font-size="8.25" font-weight="400" font-style="normal" 
>
</g>

<g fill="none" stroke="none" transform="matrix(1,0,0,1,0,0)"
font-family="MS Shell Dlg 2" font-size="8.25" font-weight="400" font-style="normal" 
>
</g>

<g fill="none" stroke="#000000" stroke-opacity="1" stroke-width="1" stroke-linecap="square" stroke-linejoin="bevel" transform="matrix(1,0,0,1,0,0)"
font-family="MS Shell Dlg 2" font-size="8.25" font-weight="400" font-style="normal" 
>
</g>
</g>
</svg>
