<?xml version="1.0" encoding="UTF-8" standalone="no"?>
<svg width="11.2889mm" height="11.2889mm"
 viewBox="0 0 32 32"
 xmlns="http://www.w3.org/2000/svg" xmlns:xlink="http://www.w3.org/1999/xlink"  version="1.2" baseProfile="tiny">
<title>Qt SVG Document</title>
<desc>Generated with Qt</desc>
<defs>
</defs>
<g fill="none" stroke="black" stroke-width="1" fill-rule="evenodd" stroke-linecap="square" stroke-linejoin="bevel" >

<g fill="none" stroke="none" transform="matrix(1,0,0,1,0,0)"
font-family="MS Shell Dlg 2" font-size="8.25" font-weight="400" font-style="normal" 
>
</g>

<g fill="none" stroke="none" transform="matrix(1.33333,0,0,1.33333,0,0)"
font-family="MS Shell Dlg 2" font-size="8.25" font-weight="400" font-style="normal" 
>
</g>

<g fill="#a61215" fill-opacity="1" stroke="none" transform="matrix(1,0,0,1,0,0)"
font-family="MS Shell Dlg 2" font-size="8.25" font-weight="400" font-style="normal" 
>
<path vector-effect="none" fill-rule="evenodd" d="M21.402,17.114 C21.402,17.87 21.2597,18.5817 20.975,19.249 C20.6903,19.9163 20.2983,20.4973 19.799,20.992 C19.2997,21.4867 18.7163,21.8763 18.049,22.161 C17.3817,22.4457 16.67,22.588 15.914,22.588 C15.158,22.588 14.4463,22.4457 13.779,22.161 C13.1117,21.8763 12.5307,21.4867 12.036,20.992 C11.5413,20.4973 11.1517,19.9163 10.867,19.249 C10.5823,18.5817 10.44,17.87 10.44,17.114 C10.44,16.358 10.5823,15.6463 10.867,14.979 C11.1517,14.3117 11.5413,13.7283 12.036,13.229 C12.5307,12.7297 13.1117,12.3377 13.779,12.053 C14.4463,11.7683 15.158,11.626 15.914,11.626 C16.67,11.626 17.3817,11.7683 18.049,12.053 C18.7163,12.3377 19.2997,12.7297 19.799,13.229 C20.2983,13.7283 20.6903,14.3117 20.975,14.979 C21.2597,15.6463 21.402,16.358 21.402,17.114 "/>
</g>

<g fill="none" stroke="none" transform="matrix(1.33333,0,0,1.33333,0,0)"
font-family="MS Shell Dlg 2" font-size="8.25" font-weight="400" font-style="normal" 
>
</g>

<g fill="none" stroke="none" transform="matrix(1,0,0,1,0,0)"
font-family="MS Shell Dlg 2" font-size="8.25" font-weight="400" font-style="normal" 
>
</g>

<g fill="none" stroke="#000000" stroke-opacity="1" stroke-width="1" stroke-linecap="square" stroke-linejoin="bevel" transform="matrix(1,0,0,1,0,0)"
font-family="MS Shell Dlg 2" font-size="8.25" font-weight="400" font-style="normal" 
>
</g>

<g fill="none" stroke="#000000" stroke-opacity="1" stroke-width="1" stroke-linecap="square" stroke-linejoin="bevel" transform="matrix(1,0,0,1,15.7165,16.0425)"
font-family="MS Shell Dlg 2" font-size="8.25" font-weight="400" font-style="normal" 
>
</g>

<g fill="none" stroke="#000000" stroke-opacity="1" stroke-width="1" stroke-linecap="square" stroke-linejoin="bevel" transform="matrix(1.33333,0,0,1.33333,15.7165,16.0425)"
font-family="MS Shell Dlg 2" font-size="8.25" font-weight="400" font-style="normal" 
>
</g>

<g fill="#ffffff" fill-opacity="1" stroke="none" transform="matrix(0.0147561,0,0,0.0147561,11.4646,11.7906)"
font-family="MS Shell Dlg 2" font-size="8.25" font-weight="400" font-style="normal" 
>
<path vector-effect="none" fill-rule="nonzero" d="M523.926,335.325 L513.726,335.325 C507.351,335.325 503.526,340.425 503.526,345.524 L503.526,360.825 L479.301,360.825 L479.301,345.524 C479.301,339.149 474.201,335.325 469.101,335.325 L458.901,335.325 C452.526,335.325 448.702,340.425 448.702,345.524 L448.702,360.825 L421.927,360.825 L421.927,345.524 C421.927,339.149 416.827,335.325 411.727,335.325 L390.052,335.325 L390.052,261.375 L414.277,261.375 C419.378,261.375 424.477,258.825 425.753,253.725 C428.303,248.625 427.027,243.525 423.203,239.7 L300.803,119.85 C299.528,118.575 296.978,117.3 294.428,116.025 L294.428,68.85 L379.853,68.85 C387.503,68.85 392.603,62.475 392.603,56.1 L392.603,20.4 C392.603,12.75 386.228,7.65 379.853,7.65 L294.428,7.65 L294.428,5.1 C294.428,2.55 291.878,0 289.328,0 L285.503,0 C282.953,0 280.403,2.55 280.403,5.1 L280.403,116.025 C277.853,117.3 276.578,118.575 275.303,119.85 L155.451,239.7 C151.626,243.525 150.351,248.625 152.901,253.725 C155.451,258.825 159.276,261.375 164.376,261.375 L188.601,261.375 L188.601,335.325 L168.201,335.325 C161.826,335.325 158.001,340.425 158.001,345.524 L158.001,360.825 L131.226,360.825 L131.226,345.524 C131.226,339.149 126.126,335.325 121.026,335.325 L109.551,335.325 C103.176,335.325 99.351,340.425 99.351,345.524 L99.351,360.825 L73.851,360.825 L73.851,345.524 C73.851,339.149 68.751,335.325 63.651,335.325 L53.451,335.325 C47.076,335.325 43.251,340.425 43.251,345.524 L43.251,419.474 C43.251,425.849 48.351,429.674 53.451,429.674 L77.676,429.674 L77.676,566.1 C77.676,572.475 82.776,576.3 87.876,576.3 L219.201,576.3 L219.201,457.725 C219.201,432.225 239.601,411.826 265.101,411.826 L312.276,411.826 C337.776,411.826 358.176,432.225 358.176,457.725 L358.176,576.3 L488.226,576.3 C494.601,576.3 498.426,571.2 498.426,566.1 L498.426,429.675 L522.651,429.675 C529.026,429.675 532.851,424.575 532.851,419.475 L532.851,345.525 C534.126,339.149 529.025,335.325 523.926,335.325 "/>
</g>

<g fill="none" stroke="#000000" stroke-opacity="1" stroke-width="1" stroke-linecap="square" stroke-linejoin="bevel" transform="matrix(1.33333,0,0,1.33333,15.7165,16.0425)"
font-family="MS Shell Dlg 2" font-size="8.25" font-weight="400" font-style="normal" 
>
</g>

<g fill="none" stroke="#000000" stroke-opacity="1" stroke-width="1" stroke-linecap="square" stroke-linejoin="bevel" transform="matrix(1,0,0,1,15.7165,16.0425)"
font-family="MS Shell Dlg 2" font-size="8.25" font-weight="400" font-style="normal" 
>
</g>

<g fill="none" stroke="#000000" stroke-opacity="1" stroke-width="1" stroke-linecap="square" stroke-linejoin="bevel" transform="matrix(1,0,0,1,0,0)"
font-family="MS Shell Dlg 2" font-size="8.25" font-weight="400" font-style="normal" 
>
</g>
</g>
</svg>
