<?xml version="1.0" encoding="UTF-8" standalone="no"?>
<svg width="11.2889mm" height="11.2889mm"
 viewBox="0 0 32 32"
 xmlns="http://www.w3.org/2000/svg" xmlns:xlink="http://www.w3.org/1999/xlink"  version="1.2" baseProfile="tiny">
<title>Qt SVG Document</title>
<desc>Generated with Qt</desc>
<defs>
</defs>
<g fill="none" stroke="black" stroke-width="1" fill-rule="evenodd" stroke-linecap="square" stroke-linejoin="bevel" >

<g fill="#33a02c" fill-opacity="1" stroke="none" transform="matrix(1,0,0,1,0,0)"
font-family="MS Shell Dlg 2" font-size="8.25" font-weight="400" font-style="normal" 
>
<path vector-effect="none" fill-rule="evenodd" d="M21.402,17.114 C21.402,17.87 21.2597,18.5817 20.975,19.249 C20.6903,19.9163 20.2983,20.4973 19.799,20.992 C19.2997,21.4867 18.7163,21.8763 18.049,22.161 C17.3817,22.4457 16.67,22.588 15.914,22.588 C15.158,22.588 14.4463,22.4457 13.779,22.161 C13.1117,21.8763 12.5307,21.4867 12.036,20.992 C11.5413,20.4973 11.1517,19.9163 10.867,19.249 C10.5823,18.5817 10.44,17.87 10.44,17.114 C10.44,16.358 10.5823,15.6463 10.867,14.979 C11.1517,14.3117 11.5413,13.7283 12.036,13.229 C12.5307,12.7297 13.1117,12.3377 13.779,12.053 C14.4463,11.7683 15.158,11.626 15.914,11.626 C16.67,11.626 17.3817,11.7683 18.049,12.053 C18.7163,12.3377 19.2997,12.7297 19.799,13.229 C20.2983,13.7283 20.6903,14.3117 20.975,14.979 C21.2597,15.6463 21.402,16.358 21.402,17.114 "/>
</g>

<g fill="#33a02c" fill-opacity="1" stroke="none" transform="matrix(1,0,0,1,0,0)"
font-family="MS Shell Dlg 2" font-size="8.25" font-weight="400" font-style="normal" 
>
</g>

<g fill="#ffffff" fill-opacity="1" stroke="none" transform="matrix(1,0,0,1,0,0)"
font-family="MS Shell Dlg 2" font-size="8.25" font-weight="400" font-style="normal" 
>
<path vector-effect="none" fill-rule="evenodd" d="M16.06,14.16 C16.06,14.3 16.0083,14.42 15.905,14.52 C15.8017,14.62 15.68,14.67 15.54,14.67 C15.3933,14.67 15.27,14.62 15.17,14.52 C15.07,14.42 15.02,14.3 15.02,14.16 C15.02,14.02 15.07,13.8983 15.17,13.795 C15.27,13.6917 15.3933,13.64 15.54,13.64 C15.68,13.64 15.8017,13.6917 15.905,13.795 C16.0083,13.8983 16.06,14.02 16.06,14.16 M14.75,16.6 C14.6567,16.7133 14.57,16.77 14.49,16.77 L14.46,16.77 C14.3867,16.7633 14.3067,16.69 14.22,16.55 L14.28,15.13 C14.3133,14.9967 14.3933,14.93 14.52,14.93 C14.5267,14.93 14.535,14.9317 14.545,14.935 C14.555,14.9383 14.5667,14.94 14.58,14.94 C14.6867,14.9467 14.7767,15.04 14.85,15.22 L14.86,15.22 L14.75,16.6 M19.29,19.78 C19.25,20.0267 19.15,20.1967 18.99,20.29 C18.8367,20.3767 18.5733,20.42 18.2,20.42 L13.99,20.42 C13.9567,20.4267 13.93,20.4317 13.91,20.435 C13.89,20.4383 13.8733,20.44 13.86,20.44 C13.54,20.44 13.3233,20.4067 13.21,20.34 L13.98,19.96 L14.35,19.83 L15,17.44 C15.0333,16.0667 15.0867,15.2767 15.16,15.07 C15.2867,15.03 15.4133,14.9933 15.54,14.96 C15.6667,14.9267 15.7967,14.8967 15.93,14.87 L17.44,14.58 L17.87,14.72 L18.53,13.5 C18.6167,13.48 18.6967,13.47 18.77,13.47 C18.95,13.47 19.0883,13.525 19.185,13.635 C19.2817,13.745 19.33,13.9133 19.33,14.14 L19.33,18.87 C19.33,19.0967 19.3267,19.285 19.32,19.435 C19.3133,19.585 19.3033,19.7 19.29,19.78 M17.47,14.87 L16.06,15.4 L15.89,16.8 L16.97,17.14 L16.84,18.49 L17.31,18.22 L17.47,14.87 M16.38,17.46 L15.69,17.53 L14.81,19.77 L15.36,19.63 L16.42,18.59 L16.38,17.46"/>
</g>

<g fill="#ffffff" fill-opacity="1" stroke="none" transform="matrix(1,0,0,1,0,0)"
font-family="MS Shell Dlg 2" font-size="8.25" font-weight="400" font-style="normal" 
>
</g>
</g>
</svg>
