<?xml version="1.0" encoding="UTF-8" standalone="no"?>
<svg width="11.2889mm" height="11.2889mm"
 viewBox="0 0 32 32"
 xmlns="http://www.w3.org/2000/svg" xmlns:xlink="http://www.w3.org/1999/xlink"  version="1.2" baseProfile="tiny">
<title>Qt SVG Document</title>
<desc>Generated with Qt</desc>
<defs>
</defs>
<g fill="none" stroke="black" stroke-width="1" fill-rule="evenodd" stroke-linecap="square" stroke-linejoin="bevel" >

<g fill="none" stroke="none" transform="matrix(1,0,0,1,0,0)"
font-family="MS Shell Dlg 2" font-size="8.25" font-weight="400" font-style="normal" 
>
</g>

<g fill="none" stroke="none" transform="matrix(1.33333,0,0,1.33333,0,0)"
font-family="MS Shell Dlg 2" font-size="8.25" font-weight="400" font-style="normal" 
>
</g>

<g fill="#a61215" fill-opacity="1" stroke="none" transform="matrix(1,0,0,1,0,0)"
font-family="MS Shell Dlg 2" font-size="8.25" font-weight="400" font-style="normal" 
>
<path vector-effect="none" fill-rule="evenodd" d="M21.402,17.114 C21.402,17.87 21.2597,18.5817 20.975,19.249 C20.6903,19.9163 20.2983,20.4973 19.799,20.992 C19.2997,21.4867 18.7163,21.8763 18.049,22.161 C17.3817,22.4457 16.67,22.588 15.914,22.588 C15.158,22.588 14.4463,22.4457 13.779,22.161 C13.1117,21.8763 12.5307,21.4867 12.036,20.992 C11.5413,20.4973 11.1517,19.9163 10.867,19.249 C10.5823,18.5817 10.44,17.87 10.44,17.114 C10.44,16.358 10.5823,15.6463 10.867,14.979 C11.1517,14.3117 11.5413,13.7283 12.036,13.229 C12.5307,12.7297 13.1117,12.3377 13.779,12.053 C14.4463,11.7683 15.158,11.626 15.914,11.626 C16.67,11.626 17.3817,11.7683 18.049,12.053 C18.7163,12.3377 19.2997,12.7297 19.799,13.229 C20.2983,13.7283 20.6903,14.3117 20.975,14.979 C21.2597,15.6463 21.402,16.358 21.402,17.114 "/>
</g>

<g fill="none" stroke="none" transform="matrix(1.33333,0,0,1.33333,0,0)"
font-family="MS Shell Dlg 2" font-size="8.25" font-weight="400" font-style="normal" 
>
</g>

<g fill="none" stroke="none" transform="matrix(1,0,0,1,0,0)"
font-family="MS Shell Dlg 2" font-size="8.25" font-weight="400" font-style="normal" 
>
</g>

<g fill="none" stroke="#000000" stroke-opacity="1" stroke-width="1" stroke-linecap="square" stroke-linejoin="bevel" transform="matrix(1,0,0,1,0,0)"
font-family="MS Shell Dlg 2" font-size="8.25" font-weight="400" font-style="normal" 
>
</g>

<g fill="none" stroke="none" transform="matrix(1,0,0,1,0,0)"
font-family="MS Shell Dlg 2" font-size="8.25" font-weight="400" font-style="normal" 
>
</g>

<g fill="none" stroke="none" transform="matrix(1.33333,0,0,1.33333,0,0)"
font-family="MS Shell Dlg 2" font-size="8.25" font-weight="400" font-style="normal" 
>
</g>

<g fill="#ffffff" fill-opacity="1" stroke="none" transform="matrix(1,0,0,1,0,0)"
font-family="MS Shell Dlg 2" font-size="8.25" font-weight="400" font-style="normal" 
>
<path vector-effect="none" fill-rule="evenodd" d="M18.75,16.17 C18.75,16.1833 18.735,16.2033 18.705,16.23 C18.675,16.2567 18.635,16.28 18.585,16.3 C18.535,16.32 18.4817,16.335 18.425,16.345 C18.3683,16.355 18.3167,16.3533 18.27,16.34 C18.2233,16.32 18.1533,16.2967 18.06,16.27 C17.9667,16.2433 17.8667,16.2117 17.76,16.175 C17.6533,16.1383 17.5483,16.1017 17.445,16.065 C17.3417,16.0283 17.2533,15.9933 17.18,15.96 C17.1133,15.9533 17.0417,15.935 16.965,15.905 C16.8883,15.875 16.81,15.8433 16.73,15.81 C16.65,15.7767 16.5717,15.7467 16.495,15.72 C16.4183,15.6933 16.3433,15.6767 16.27,15.67 C16.2167,15.6633 16.1467,15.6483 16.06,15.625 C15.9733,15.6017 15.8833,15.5783 15.79,15.555 C15.6967,15.5317 15.6083,15.5117 15.525,15.495 C15.4417,15.4783 15.3767,15.4667 15.33,15.46 C15.25,15.4533 15.15,15.4467 15.03,15.44 C14.91,15.4333 14.7883,15.425 14.665,15.415 C14.5417,15.405 14.4233,15.3917 14.31,15.375 C14.1967,15.3583 14.1,15.34 14.02,15.32 C13.9533,15.3067 13.9,15.2983 13.86,15.295 C13.82,15.2917 13.7467,15.2633 13.64,15.21 C13.6133,15.1967 13.6033,15.1783 13.61,15.155 C13.6167,15.1317 13.625,15.11 13.635,15.09 C13.645,15.07 13.6533,15.0517 13.66,15.035 C13.6667,15.0183 13.66,15.0067 13.64,15 C13.4733,14.94 13.3633,14.87 13.31,14.79 C13.2567,14.71 13.2367,14.6433 13.25,14.59 C13.25,14.5633 13.2767,14.5317 13.33,14.495 C13.3833,14.4583 13.4167,14.4333 13.43,14.42 C13.4367,14.38 13.4783,14.35 13.555,14.33 C13.6317,14.31 13.735,14.2983 13.865,14.295 C13.995,14.2917 14.145,14.295 14.315,14.305 C14.485,14.315 14.6633,14.3267 14.85,14.34 C14.9033,14.34 14.9467,14.3333 14.98,14.32 C15.0133,14.32 15.0533,14.315 15.1,14.305 C15.1467,14.295 15.2033,14.29 15.27,14.29 C15.4367,14.31 15.5983,14.33 15.755,14.35 C15.9117,14.37 16.075,14.3917 16.245,14.415 C16.415,14.4383 16.595,14.4667 16.785,14.5 C16.975,14.5333 17.19,14.57 17.43,14.61 C17.4633,14.61 17.5,14.6133 17.54,14.62 C17.58,14.6267 17.62,14.63 17.66,14.63 C17.7267,14.6433 17.795,14.6533 17.865,14.66 C17.935,14.6667 17.9867,14.6633 18.02,14.65 C18.08,14.6367 18.145,14.635 18.215,14.645 C18.285,14.655 18.35,14.67 18.41,14.69 C18.47,14.71 18.5167,14.7517 18.55,14.815 C18.5833,14.8783 18.6083,14.9467 18.625,15.02 C18.6417,15.0933 18.65,15.1633 18.65,15.23 C18.65,15.2967 18.6467,15.34 18.64,15.36 L18.75,16.17 M17.89,18.98 C18.0033,19.0133 18.105,19.0483 18.195,19.085 C18.285,19.1217 18.33,19.17 18.33,19.23 C18.33,19.2433 18.3367,19.2683 18.35,19.305 C18.3633,19.3417 18.37,19.3667 18.37,19.38 C18.37,19.4 18.3633,19.4317 18.35,19.475 C18.3367,19.5183 18.3217,19.5633 18.305,19.61 C18.2883,19.6567 18.2717,19.6967 18.255,19.73 C18.2383,19.7633 18.2267,19.7833 18.22,19.79 C18.18,19.8233 18.155,19.84 18.145,19.84 C18.135,19.84 18.12,19.84 18.1,19.84 C18.0467,19.8533 17.9767,19.8517 17.89,19.835 C17.8033,19.8183 17.7333,19.8033 17.68,19.79 C17.6467,19.7767 17.595,19.78 17.525,19.8 C17.455,19.82 17.4033,19.8233 17.37,19.81 C17.33,19.81 17.255,19.8033 17.145,19.79 C17.035,19.7767 16.9567,19.77 16.91,19.77 C16.8833,19.79 16.845,19.8 16.795,19.8 C16.745,19.8 16.695,19.7967 16.645,19.79 C16.595,19.7833 16.55,19.775 16.51,19.765 C16.47,19.755 16.45,19.7433 16.45,19.73 C16.4433,19.6967 16.44,19.6667 16.44,19.64 C16.4333,19.6133 16.43,19.59 16.43,19.57 C16.43,19.55 16.43,19.5333 16.43,19.52 L16.6,19.11 C16.6,19.03 16.65,18.9667 16.75,18.92 C16.7767,18.9067 16.8167,18.9133 16.87,18.94 C16.8833,18.9533 16.9017,18.9433 16.925,18.91 C16.9483,18.8767 16.9733,18.8667 17,18.88 L17.06,18.88 C17.14,18.88 17.2017,18.8733 17.245,18.86 C17.2883,18.8467 17.3267,18.8333 17.36,18.82 C17.3933,18.8067 17.4267,18.7967 17.46,18.79 C17.4933,18.7833 17.54,18.7833 17.6,18.79 C17.62,18.79 17.6633,18.8167 17.73,18.87 C17.7967,18.9233 17.8367,18.9533 17.85,18.96 C17.85,18.9733 17.8633,18.98 17.89,18.98 M18.27,16.98 C18.3167,16.9933 18.345,17.055 18.355,17.165 C18.365,17.275 18.3683,17.3967 18.365,17.53 C18.3617,17.6633 18.355,17.79 18.345,17.91 C18.335,18.03 18.33,18.1033 18.33,18.13 L18.35,18.17 C18.3633,18.1967 18.37,18.2167 18.37,18.23 C18.37,18.2433 18.3667,18.2717 18.36,18.315 C18.3533,18.3583 18.345,18.405 18.335,18.455 C18.325,18.505 18.3167,18.5483 18.31,18.585 C18.3033,18.6217 18.2967,18.6433 18.29,18.65 C18.2567,18.6833 18.2333,18.6983 18.22,18.695 C18.2067,18.6917 18.1933,18.69 18.18,18.69 C18.14,18.69 18.075,18.665 17.985,18.615 C17.895,18.565 17.83,18.5333 17.79,18.52 C17.7567,18.52 17.7117,18.5267 17.655,18.54 C17.5983,18.5533 17.5533,18.5533 17.52,18.54 C17.4733,18.5333 17.4267,18.5333 17.38,18.54 C17.3333,18.5467 17.285,18.5567 17.235,18.57 C17.185,18.5833 17.1333,18.5933 17.08,18.6 C17.0267,18.6067 16.97,18.6033 16.91,18.59 C16.87,18.61 16.83,18.6 16.79,18.56 C16.75,18.52 16.73,18.4933 16.73,18.48 C16.7233,18.46 16.7167,18.4367 16.71,18.41 C16.7033,18.3833 16.7,18.35 16.7,18.31 L17,17.13 C17,17.1233 17.0017,17.0783 17.005,16.995 C17.0083,16.9117 17.0133,16.8233 17.02,16.73 C17.0267,16.6367 17.035,16.55 17.045,16.47 C17.055,16.39 17.0667,16.3467 17.08,16.34 C17.1067,16.3267 17.1467,16.3333 17.2,16.36 C17.2133,16.3533 17.2267,16.3433 17.24,16.33 C17.2667,16.3033 17.2833,16.29 17.29,16.29 C17.3167,16.29 17.3367,16.3 17.35,16.32 C17.4167,16.3133 17.4683,16.3183 17.505,16.335 C17.5417,16.3517 17.5733,16.3717 17.6,16.395 C17.6267,16.4183 17.6533,16.44 17.68,16.46 C17.7067,16.48 17.7433,16.4933 17.79,16.5 C17.7967,16.5 17.8167,16.5117 17.85,16.535 C17.8833,16.5583 17.9217,16.585 17.965,16.615 C18.0083,16.645 18.0467,16.6733 18.08,16.7 C18.1133,16.7267 18.1333,16.7433 18.14,16.75 C18.1467,16.75 18.155,16.7617 18.165,16.785 C18.175,16.8083 18.1883,16.835 18.205,16.865 C18.2217,16.895 18.235,16.9217 18.245,16.945 C18.255,16.9683 18.2633,16.98 18.27,16.98 M14.7,16.52 C14.7067,16.7867 14.7183,16.99 14.735,17.13 C14.7517,17.27 14.7717,17.3833 14.795,17.47 C14.8183,17.5567 14.8417,17.6333 14.865,17.7 C14.8883,17.7667 14.91,17.86 14.93,17.98 C14.95,18.0933 14.9683,18.25 14.985,18.45 C15.0017,18.65 15.015,18.8467 15.025,19.04 C15.035,19.2333 15.0417,19.4017 15.045,19.545 C15.0483,19.6883 15.0467,19.7633 15.04,19.77 C15.02,19.79 15.0033,19.7983 14.99,19.795 C14.9767,19.7917 14.9633,19.7967 14.95,19.81 C14.91,19.8233 14.88,19.8317 14.86,19.835 C14.84,19.8383 14.81,19.84 14.77,19.84 C14.75,19.84 14.715,19.8283 14.665,19.805 C14.615,19.7817 14.58,19.77 14.56,19.77 C14.5133,19.77 14.4833,19.775 14.47,19.785 C14.4567,19.795 14.445,19.805 14.435,19.815 C14.425,19.825 14.4117,19.8333 14.395,19.84 C14.3783,19.8467 14.3433,19.8467 14.29,19.84 C14.2567,19.8733 14.225,19.8117 14.195,19.655 C14.165,19.4983 14.1133,19.2267 14.04,18.84 C14,18.6133 13.9533,18.3867 13.9,18.16 C13.8467,17.9333 13.7967,17.7217 13.75,17.525 C13.7033,17.3283 13.6667,17.1483 13.64,16.985 C13.6133,16.8217 13.6067,16.69 13.62,16.59 C13.6267,16.4767 13.625,16.3933 13.615,16.34 C13.605,16.2867 13.5933,16.2467 13.58,16.22 C13.56,16.1933 13.54,16.1767 13.52,16.17 C13.52,16.1633 13.5467,16.1483 13.6,16.125 C13.6533,16.1017 13.7117,16.07 13.775,16.03 C13.8383,15.99 13.8967,15.94 13.95,15.88 C14.0033,15.82 14.0267,15.75 14.02,15.67 C14.0267,15.61 14.0383,15.5717 14.055,15.555 C14.0717,15.5383 14.095,15.5317 14.125,15.535 C14.155,15.5383 14.19,15.5483 14.23,15.565 C14.27,15.5817 14.31,15.59 14.35,15.59 C14.3633,15.59 14.3983,15.6033 14.455,15.63 C14.5117,15.6567 14.5467,15.6767 14.56,15.69 C14.5667,15.69 14.5833,15.7167 14.61,15.77 C14.6233,15.7967 14.6333,15.82 14.64,15.84 C14.6867,15.8467 14.7167,15.8817 14.73,15.945 C14.7433,16.0083 14.7467,16.08 14.74,16.16 C14.7333,16.24 14.725,16.315 14.715,16.385 C14.705,16.455 14.7,16.5 14.7,16.52 M15.25,16.48 C15.23,16.76 15.2233,16.9717 15.23,17.115 C15.2367,17.2583 15.2467,17.375 15.26,17.465 C15.2733,17.555 15.2883,17.6333 15.305,17.7 C15.3217,17.7667 15.3367,17.86 15.35,17.98 C15.3633,18.1 15.3717,18.2633 15.375,18.47 C15.3783,18.6767 15.3767,18.88 15.37,19.08 C15.3633,19.28 15.3567,19.455 15.35,19.605 C15.3433,19.755 15.3367,19.8333 15.33,19.84 C15.31,19.86 15.2833,19.87 15.25,19.87 C15.2167,19.87 15.1933,19.86 15.18,19.84 C15.18,19.8267 15.1767,19.745 15.17,19.595 C15.1633,19.445 15.155,19.27 15.145,19.07 C15.135,18.87 15.1217,18.6683 15.105,18.465 C15.0883,18.2617 15.0733,18.1 15.06,17.98 C15.0467,17.86 15.0283,17.7583 15.005,17.675 C14.9817,17.5917 14.9633,17.4983 14.95,17.395 C14.9367,17.2917 14.9283,17.1617 14.925,17.005 C14.9217,16.8483 14.93,16.6333 14.95,16.36 C14.9567,16.22 14.9433,16.1 14.91,16 C14.8767,15.9 14.8417,15.8183 14.805,15.755 C14.7683,15.6917 14.7433,15.645 14.73,15.615 C14.7167,15.585 14.73,15.57 14.77,15.57 C14.7767,15.57 14.7983,15.58 14.835,15.6 C14.8717,15.62 14.9083,15.6433 14.945,15.67 C14.9817,15.6967 15.015,15.7217 15.045,15.745 C15.075,15.7683 15.0933,15.7833 15.1,15.79 L15.23,15.77 C15.2767,15.7767 15.3033,15.8133 15.31,15.88 C15.3167,15.9467 15.315,16.0217 15.305,16.105 C15.295,16.1883 15.2833,16.2667 15.27,16.34 C15.2567,16.4133 15.25,16.46 15.25,16.48 "/>
</g>

<g fill="none" stroke="none" transform="matrix(1.33333,0,0,1.33333,0,0)"
font-family="MS Shell Dlg 2" font-size="8.25" font-weight="400" font-style="normal" 
>
</g>

<g fill="none" stroke="none" transform="matrix(1,0,0,1,0,0)"
font-family="MS Shell Dlg 2" font-size="8.25" font-weight="400" font-style="normal" 
>
</g>

<g fill="none" stroke="#000000" stroke-opacity="1" stroke-width="1" stroke-linecap="square" stroke-linejoin="bevel" transform="matrix(1,0,0,1,0,0)"
font-family="MS Shell Dlg 2" font-size="8.25" font-weight="400" font-style="normal" 
>
</g>
</g>
</svg>
