<?xml version="1.0" encoding="UTF-8" standalone="no"?>
<svg width="11.2889mm" height="11.2889mm"
 viewBox="0 0 32 32"
 xmlns="http://www.w3.org/2000/svg" xmlns:xlink="http://www.w3.org/1999/xlink"  version="1.2" baseProfile="tiny">
<title>Qt SVG Document</title>
<desc>Generated with Qt</desc>
<defs>
</defs>
<g fill="none" stroke="black" stroke-width="1" fill-rule="evenodd" stroke-linecap="square" stroke-linejoin="bevel" >

<g fill="none" stroke="none" transform="matrix(1,0,0,1,0,0)"
font-family="MS Shell Dlg 2" font-size="8.25" font-weight="400" font-style="normal" 
>
</g>

<g fill="none" stroke="none" transform="matrix(1.33333,0,0,1.33333,0,0)"
font-family="MS Shell Dlg 2" font-size="8.25" font-weight="400" font-style="normal" 
>
</g>

<g fill="#b75800" fill-opacity="1" stroke="none" transform="matrix(1,0,0,1,0,0)"
font-family="MS Shell Dlg 2" font-size="8.25" font-weight="400" font-style="normal" 
>
<path vector-effect="none" fill-rule="evenodd" d="M20.8,21.006 C20.8,21.286 20.702,21.524 20.506,21.72 C20.31,21.916 20.072,22.014 19.792,22.014 L11.994,22.014 C11.714,22.014 11.476,21.916 11.28,21.72 C11.084,21.524 10.986,21.286 10.986,21.006 L10.986,13.208 C10.986,12.928 11.084,12.69 11.28,12.494 C11.476,12.298 11.714,12.2 11.994,12.2 L19.792,12.2 C20.072,12.2 20.31,12.298 20.506,12.494 C20.702,12.69 20.8,12.928 20.8,13.208 L20.8,21.006"/>
</g>

<g fill="none" stroke="none" transform="matrix(1.33333,0,0,1.33333,0,0)"
font-family="MS Shell Dlg 2" font-size="8.25" font-weight="400" font-style="normal" 
>
</g>

<g fill="none" stroke="none" transform="matrix(1,0,0,1,0,0)"
font-family="MS Shell Dlg 2" font-size="8.25" font-weight="400" font-style="normal" 
>
</g>

<g fill="none" stroke="#000000" stroke-opacity="1" stroke-width="1" stroke-linecap="square" stroke-linejoin="bevel" transform="matrix(1,0,0,1,0,0)"
font-family="MS Shell Dlg 2" font-size="8.25" font-weight="400" font-style="normal" 
>
</g>

<g fill="none" stroke="none" transform="matrix(1,0,0,1,0,0)"
font-family="MS Shell Dlg 2" font-size="8.25" font-weight="400" font-style="normal" 
>
</g>

<g fill="none" stroke="none" transform="matrix(1.33333,0,0,1.33333,0,0)"
font-family="MS Shell Dlg 2" font-size="8.25" font-weight="400" font-style="normal" 
>
</g>

<g fill="#ffffff" fill-opacity="1" stroke="none" transform="matrix(1,0,0,1,0,0)"
font-family="MS Shell Dlg 2" font-size="8.25" font-weight="400" font-style="normal" 
>
<path vector-effect="none" fill-rule="evenodd" d="M13.142,15.238 C13.0113,15.3967 12.8643,15.56 12.701,15.728 C12.5377,15.896 12.3767,16.1013 12.218,16.344 C12.1153,16.54 12.0407,16.757 11.994,16.995 C11.9473,17.233 11.938,17.4453 11.966,17.632 C12.0127,17.828 12.05,17.9983 12.078,18.143 C12.106,18.2877 12.12,18.4113 12.12,18.514 L12.12,18.696 L12.12,18.766 L12.092,18.85 C12.0733,18.8967 12.0593,18.948 12.05,19.004 C12.0407,19.06 12.036,19.1113 12.036,19.158 C11.9987,19.2513 11.966,19.3353 11.938,19.41 C11.91,19.4847 11.882,19.5547 11.854,19.62 C11.8167,19.6667 11.791,19.7133 11.777,19.76 C11.763,19.8067 11.7467,19.8533 11.728,19.9 C11.644,19.788 11.602,19.6433 11.602,19.466 L11.602,15.91 C11.6207,15.8727 11.6813,15.812 11.784,15.728 C12.0453,15.4573 12.267,15.203 12.449,14.965 C12.631,14.727 12.7687,14.524 12.862,14.356 C12.8807,14.3093 12.8947,14.2697 12.904,14.237 C12.9133,14.2043 12.9273,14.1693 12.946,14.132 C13.058,14.1133 13.1723,14.0993 13.289,14.09 C13.4057,14.0807 13.52,14.0667 13.632,14.048 C13.632,14.0947 13.6297,14.1507 13.625,14.216 C13.6203,14.2813 13.6087,14.3467 13.59,14.412 C13.5433,14.6453 13.394,14.9207 13.142,15.238 M12.61,14.174 C12.5073,14.3047 12.3743,14.461 12.211,14.643 C12.0477,14.825 11.8447,15.0233 11.602,15.238 L11.602,14.384 C11.7607,14.3373 11.9217,14.2977 12.085,14.265 C12.2483,14.2323 12.4233,14.202 12.61,14.174 M13.772,16.68 C13.6507,16.9227 13.5713,17.1747 13.534,17.436 C13.4967,17.6973 13.4873,17.9353 13.506,18.15 C13.5153,18.2527 13.5433,18.381 13.59,18.535 C13.6367,18.689 13.6833,18.8593 13.73,19.046 C13.7767,19.2327 13.814,19.431 13.842,19.641 C13.87,19.851 13.87,20.0587 13.842,20.264 L12.4,20.264 C12.3347,20.264 12.2833,20.2547 12.246,20.236 C12.3393,20.1427 12.4093,20.0307 12.456,19.9 C12.5027,19.8253 12.5423,19.7367 12.575,19.634 C12.6077,19.5313 12.6427,19.424 12.68,19.312 C12.6987,19.2467 12.7127,19.1837 12.722,19.123 C12.7313,19.0623 12.7453,18.9947 12.764,18.92 L12.764,18.822 L12.764,18.794 L12.764,18.766 L12.792,18.696 C12.792,18.668 12.7873,18.6283 12.778,18.577 C12.7687,18.5257 12.764,18.486 12.764,18.458 C12.7453,18.29 12.7127,18.129 12.666,17.975 C12.6193,17.821 12.582,17.6647 12.554,17.506 C12.5073,17.366 12.491,17.219 12.505,17.065 C12.519,16.911 12.5633,16.7407 12.638,16.554 C12.75,16.358 12.8807,16.169 13.03,15.987 C13.1793,15.805 13.3053,15.6253 13.408,15.448 C13.5387,15.28 13.6437,15.1143 13.723,14.951 C13.8023,14.7877 13.8513,14.6267 13.87,14.468 C13.8887,14.3747 13.8933,14.2907 13.884,14.216 C13.8747,14.1413 13.8607,14.076 13.842,14.02 C14.0567,14.0013 14.2713,13.985 14.486,13.971 C14.7007,13.957 14.9153,13.9407 15.13,13.922 C15.13,13.9687 15.1347,14.0153 15.144,14.062 C15.1533,14.1087 15.158,14.1647 15.158,14.23 C15.1393,14.3887 15.102,14.5543 15.046,14.727 C14.99,14.8997 14.892,15.0793 14.752,15.266 C14.6307,15.4527 14.472,15.6533 14.276,15.868 C14.08,16.0827 13.912,16.3533 13.772,16.68 M15.494,16.624 C15.4193,16.7453 15.375,16.8713 15.361,17.002 C15.347,17.1327 15.34,17.2493 15.34,17.352 C15.3493,17.604 15.4193,17.8397 15.55,18.059 C15.6807,18.2783 15.8043,18.5 15.921,18.724 C16.0377,18.948 16.11,19.1837 16.138,19.431 C16.166,19.6783 16.082,19.956 15.886,20.264 L14.794,20.264 C14.794,20.1987 14.7917,20.1427 14.787,20.096 C14.7823,20.0493 14.7707,20.0027 14.752,19.956 L14.724,19.83 L14.696,19.718 C14.696,19.662 14.6773,19.5873 14.64,19.494 C14.6027,19.4193 14.5677,19.3447 14.535,19.27 C14.5023,19.1953 14.4627,19.1207 14.416,19.046 C14.3413,18.8873 14.2713,18.731 14.206,18.577 C14.1407,18.423 14.0987,18.262 14.08,18.094 C14.052,17.8887 14.0473,17.6857 14.066,17.485 C14.0847,17.2843 14.1313,17.0767 14.206,16.862 C14.3087,16.5913 14.4487,16.3487 14.626,16.134 C14.8033,15.9193 14.962,15.7047 15.102,15.49 C15.2233,15.2567 15.3143,15.0303 15.375,14.811 C15.4357,14.5917 15.4567,14.398 15.438,14.23 C15.438,14.1647 15.431,14.1087 15.417,14.062 C15.403,14.0153 15.3867,13.9687 15.368,13.922 L16.11,13.922 L16.572,13.922 C16.572,13.9687 16.5767,14.0153 16.586,14.062 C16.5953,14.1087 16.6093,14.1553 16.628,14.202 C16.6747,14.3233 16.7307,14.4703 16.796,14.643 C16.8613,14.8157 16.8847,14.986 16.866,15.154 C16.866,15.3407 16.7867,15.5133 16.628,15.672 C16.5627,15.7467 16.4787,15.8167 16.376,15.882 C16.2733,15.9473 16.152,16.0173 16.012,16.092 C15.9187,16.1573 15.8253,16.2297 15.732,16.309 C15.6387,16.3883 15.5593,16.4933 15.494,16.624 M18.462,18.822 C18.5273,18.8967 18.5833,18.9713 18.63,19.046 C18.6767,19.1207 18.714,19.2093 18.742,19.312 C18.798,19.48 18.84,19.6527 18.868,19.83 C18.868,19.9793 18.8447,20.124 18.798,20.264 L17.272,20.264 C17.2533,20.012 17.1833,19.7717 17.062,19.543 C16.9407,19.3143 16.8007,19.0927 16.642,18.878 C16.4833,18.6633 16.3317,18.4533 16.187,18.248 C16.0423,18.0427 15.942,17.8373 15.886,17.632 C15.8393,17.492 15.83,17.3403 15.858,17.177 C15.886,17.0137 15.9187,16.9087 15.956,16.862 C16.0027,16.75 16.124,16.6287 16.32,16.498 C16.4227,16.4047 16.5323,16.316 16.649,16.232 C16.7657,16.148 16.8707,16.05 16.964,15.938 C17.0573,15.8353 17.132,15.714 17.188,15.574 C17.244,15.434 17.272,15.3033 17.272,15.182 C17.272,15.042 17.2533,14.9183 17.216,14.811 C17.1787,14.7037 17.146,14.6127 17.118,14.538 C17.0713,14.4447 17.0317,14.3607 16.999,14.286 C16.9663,14.2113 16.936,14.1413 16.908,14.076 C16.8613,14.02 16.8287,13.9687 16.81,13.922 C16.9407,13.922 17.0643,13.9267 17.181,13.936 C17.2977,13.9453 17.4073,13.95 17.51,13.95 L17.51,13.978 C17.51,14.0527 17.524,14.1297 17.552,14.209 C17.58,14.2883 17.608,14.3747 17.636,14.468 C17.6827,14.5707 17.727,14.6687 17.769,14.762 C17.811,14.8553 17.8507,14.9533 17.888,15.056 C17.9347,15.1587 17.9767,15.2707 18.014,15.392 C18.0513,15.5133 18.0793,15.6347 18.098,15.756 C18.098,15.8867 18.0747,16.0103 18.028,16.127 C17.9813,16.2437 17.9207,16.3673 17.846,16.498 C17.7527,16.638 17.6547,16.7827 17.552,16.932 C17.4493,17.0813 17.3747,17.2727 17.328,17.506 C17.3,17.5993 17.3,17.7067 17.328,17.828 C17.356,17.9493 17.4073,18.0473 17.482,18.122 C17.5473,18.1967 17.6127,18.255 17.678,18.297 C17.7433,18.339 17.7993,18.3833 17.846,18.43 C17.986,18.486 18.105,18.5467 18.203,18.612 C18.301,18.6773 18.3873,18.7473 18.462,18.822 M19.47,17.632 C19.582,17.772 19.6847,17.9027 19.778,18.024 C19.8713,18.1453 19.9647,18.2573 20.058,18.36 C20.0767,18.416 20.1187,18.4673 20.184,18.514 L20.184,19.466 C20.184,19.6713 20.1163,19.8463 19.981,19.991 C19.8457,20.1357 19.6753,20.2173 19.47,20.236 C19.5167,20.0773 19.5167,19.9047 19.47,19.718 C19.4513,19.606 19.428,19.4917 19.4,19.375 C19.372,19.2583 19.3347,19.1487 19.288,19.046 C19.2413,18.934 19.1807,18.815 19.106,18.689 C19.0313,18.563 18.9287,18.4533 18.798,18.36 C18.6953,18.2667 18.5833,18.1873 18.462,18.122 C18.3407,18.0567 18.2263,17.996 18.119,17.94 C18.0117,17.884 17.9253,17.8257 17.86,17.765 C17.7947,17.7043 17.7713,17.6367 17.79,17.562 C17.8087,17.506 17.832,17.443 17.86,17.373 C17.888,17.303 17.916,17.2353 17.944,17.17 C17.9907,17.0953 18.0373,17.0183 18.084,16.939 C18.1307,16.8597 18.1773,16.7827 18.224,16.708 C18.252,16.6333 18.2847,16.5563 18.322,16.477 C18.3593,16.3977 18.3873,16.3207 18.406,16.246 C18.434,16.1527 18.4503,16.0617 18.455,15.973 C18.4597,15.8843 18.462,15.8027 18.462,15.728 C18.434,15.56 18.3943,15.413 18.343,15.287 C18.2917,15.161 18.2427,15.042 18.196,14.93 C18.1493,14.8273 18.1027,14.7247 18.056,14.622 C18.0093,14.5193 17.9627,14.4307 17.916,14.356 C17.8693,14.2813 17.8367,14.2113 17.818,14.146 C17.7993,14.0807 17.7807,14.0247 17.762,13.978 C17.8833,13.978 18.0047,13.985 18.126,13.999 C18.2473,14.013 18.3687,14.0293 18.49,14.048 C18.5273,14.0947 18.574,14.1413 18.63,14.188 C18.686,14.2347 18.742,14.2907 18.798,14.356 C18.8447,14.4027 18.8983,14.447 18.959,14.489 C19.0197,14.531 19.078,14.5753 19.134,14.622 C19.1713,14.6593 19.197,14.6897 19.211,14.713 C19.225,14.7363 19.2413,14.7713 19.26,14.818 C19.2787,14.8647 19.295,14.9043 19.309,14.937 C19.323,14.9697 19.3393,15.0093 19.358,15.056 C19.386,15.2333 19.386,15.4293 19.358,15.644 C19.3393,15.7373 19.3043,15.8377 19.253,15.945 C19.2017,16.0523 19.1527,16.1853 19.106,16.344 C19.078,16.4467 19.064,16.568 19.064,16.708 C19.064,16.848 19.0873,16.9693 19.134,17.072 C19.1713,17.1747 19.2227,17.2773 19.288,17.38 L19.33,17.45 L19.386,17.506 L19.47,17.632 M18.896,14.076 C19.3347,14.132 19.764,14.202 20.184,14.286 L20.184,17.534 C20.1373,17.4873 20.0907,17.443 20.044,17.401 C19.9973,17.359 19.9507,17.3147 19.904,17.268 C19.7827,17.128 19.694,16.9973 19.638,16.876 C19.582,16.7547 19.568,16.61 19.596,16.442 C19.6147,16.33 19.645,16.2087 19.687,16.078 C19.729,15.9473 19.7593,15.8213 19.778,15.7 C19.7967,15.56 19.799,15.427 19.785,15.301 C19.771,15.175 19.7407,15.0607 19.694,14.958 C19.666,14.846 19.624,14.748 19.568,14.664 C19.5493,14.6173 19.5167,14.566 19.47,14.51 C19.4233,14.454 19.386,14.412 19.358,14.384 C19.2833,14.3187 19.2133,14.2673 19.148,14.23 C19.0827,14.1927 19.0267,14.1507 18.98,14.104 C18.9427,14.104 18.9147,14.0947 18.896,14.076 "/>
</g>

<g fill="none" stroke="none" transform="matrix(1.33333,0,0,1.33333,0,0)"
font-family="MS Shell Dlg 2" font-size="8.25" font-weight="400" font-style="normal" 
>
</g>

<g fill="none" stroke="none" transform="matrix(1,0,0,1,0,0)"
font-family="MS Shell Dlg 2" font-size="8.25" font-weight="400" font-style="normal" 
>
</g>

<g fill="none" stroke="#000000" stroke-opacity="1" stroke-width="1" stroke-linecap="square" stroke-linejoin="bevel" transform="matrix(1,0,0,1,0,0)"
font-family="MS Shell Dlg 2" font-size="8.25" font-weight="400" font-style="normal" 
>
</g>
</g>
</svg>
