<?xml version="1.0" encoding="UTF-8" standalone="no"?>
<svg width="11.2889mm" height="11.2889mm"
 viewBox="0 0 32 32"
 xmlns="http://www.w3.org/2000/svg" xmlns:xlink="http://www.w3.org/1999/xlink"  version="1.2" baseProfile="tiny">
<title>Qt SVG Document</title>
<desc>Generated with Qt</desc>
<defs>
</defs>
<g fill="none" stroke="black" stroke-width="1" fill-rule="evenodd" stroke-linecap="square" stroke-linejoin="bevel" >

<g fill="none" stroke="none" transform="matrix(1,0,0,1,0,0)"
font-family="MS Shell Dlg 2" font-size="8.25" font-weight="400" font-style="normal" 
>
</g>

<g fill="none" stroke="none" transform="matrix(1.33333,0,0,1.33333,0,0)"
font-family="MS Shell Dlg 2" font-size="8.25" font-weight="400" font-style="normal" 
>
</g>

<g fill="#b75800" fill-opacity="1" stroke="none" transform="matrix(1,0,0,1,0,0)"
font-family="MS Shell Dlg 2" font-size="8.25" font-weight="400" font-style="normal" 
>
<path vector-effect="none" fill-rule="evenodd" d="M21.402,17.114 C21.402,17.87 21.2597,18.5817 20.975,19.249 C20.6903,19.9163 20.2983,20.4973 19.799,20.992 C19.2997,21.4867 18.7163,21.8763 18.049,22.161 C17.3817,22.4457 16.67,22.588 15.914,22.588 C15.158,22.588 14.4463,22.4457 13.779,22.161 C13.1117,21.8763 12.5307,21.4867 12.036,20.992 C11.5413,20.4973 11.1517,19.9163 10.867,19.249 C10.5823,18.5817 10.44,17.87 10.44,17.114 C10.44,16.358 10.5823,15.6463 10.867,14.979 C11.1517,14.3117 11.5413,13.7283 12.036,13.229 C12.5307,12.7297 13.1117,12.3377 13.779,12.053 C14.4463,11.7683 15.158,11.626 15.914,11.626 C16.67,11.626 17.3817,11.7683 18.049,12.053 C18.7163,12.3377 19.2997,12.7297 19.799,13.229 C20.2983,13.7283 20.6903,14.3117 20.975,14.979 C21.2597,15.6463 21.402,16.358 21.402,17.114 "/>
</g>

<g fill="none" stroke="none" transform="matrix(1.33333,0,0,1.33333,0,0)"
font-family="MS Shell Dlg 2" font-size="8.25" font-weight="400" font-style="normal" 
>
</g>

<g fill="none" stroke="none" transform="matrix(1,0,0,1,0,0)"
font-family="MS Shell Dlg 2" font-size="8.25" font-weight="400" font-style="normal" 
>
</g>

<g fill="none" stroke="#000000" stroke-opacity="1" stroke-width="1" stroke-linecap="square" stroke-linejoin="bevel" transform="matrix(1,0,0,1,0,0)"
font-family="MS Shell Dlg 2" font-size="8.25" font-weight="400" font-style="normal" 
>
</g>

<g fill="none" stroke="none" transform="matrix(1,0,0,1,0,0)"
font-family="MS Shell Dlg 2" font-size="8.25" font-weight="400" font-style="normal" 
>
</g>

<g fill="none" stroke="none" transform="matrix(1.33333,0,0,1.33333,0,0)"
font-family="MS Shell Dlg 2" font-size="8.25" font-weight="400" font-style="normal" 
>
</g>

<g fill="#ffffff" fill-opacity="1" stroke="none" transform="matrix(1,0,0,1,0,0)"
font-family="MS Shell Dlg 2" font-size="8.25" font-weight="400" font-style="normal" 
>
<path vector-effect="none" fill-rule="evenodd" d="M18.1,17.24 C18.1,17.2133 18.1033,17.1933 18.11,17.18 C18.1167,17.1667 18.1267,17.15 18.14,17.13 C18.2267,17.19 18.3167,17.22 18.41,17.22 C18.3633,17.36 18.3033,17.4967 18.23,17.63 C18.1567,17.7633 18.0767,17.89 17.99,18.01 C17.8967,17.95 17.8067,17.92 17.72,17.92 L17.68,17.92 C17.7533,17.8333 17.82,17.7417 17.88,17.645 C17.94,17.5483 17.9967,17.4433 18.05,17.33 C17.9767,17.2967 17.8667,17.25 17.72,17.19 C17.5733,17.13 17.3733,17.0433 17.12,16.93 C17.0133,17.1633 16.86,17.34 16.66,17.46 C16.7133,17.58 16.7717,17.7167 16.835,17.87 C16.8983,18.0233 16.9767,18.2033 17.07,18.41 C17.0967,18.3967 17.12,18.3817 17.14,18.365 C17.16,18.3483 17.1833,18.3333 17.21,18.32 C17.1967,18.3667 17.1933,18.4167 17.2,18.47 C17.2067,18.5233 17.2167,18.5767 17.23,18.63 C17.2233,18.6367 17.2067,18.6467 17.18,18.66 C17.2733,18.8667 17.3717,19.0933 17.475,19.34 C17.5783,19.5867 17.6967,19.86 17.83,20.16 L17.48,20.16 L16.88,18.8 C16.8067,18.8267 16.7333,18.85 16.66,18.87 C16.5867,18.89 16.5133,18.9067 16.44,18.92 C16.4067,18.8667 16.3667,18.8183 16.32,18.775 C16.2733,18.7317 16.2167,18.7 16.15,18.68 C16.2633,18.6667 16.3717,18.6483 16.475,18.625 C16.5783,18.6017 16.6767,18.5733 16.77,18.54 C16.71,18.4067 16.6467,18.2617 16.58,18.105 C16.5133,17.9483 16.44,17.78 16.36,17.6 C16.24,17.64 16.11,17.66 15.97,17.66 C15.8567,17.66 15.74,17.6433 15.62,17.61 C15.5667,17.7233 15.5083,17.8567 15.445,18.01 C15.3817,18.1633 15.3067,18.34 15.22,18.54 C15.3133,18.5733 15.41,18.6017 15.51,18.625 C15.61,18.6483 15.7133,18.6667 15.82,18.68 C15.7,18.72 15.6033,18.8 15.53,18.92 C15.3833,18.9 15.24,18.86 15.1,18.8 C15.02,18.9933 14.93,19.2017 14.83,19.425 C14.73,19.6483 14.6233,19.8933 14.51,20.16 L14.14,20.16 L14.8,18.67 C14.7867,18.6567 14.775,18.6483 14.765,18.645 C14.755,18.6417 14.7433,18.6367 14.73,18.63 C14.7767,18.53 14.7867,18.4267 14.76,18.32 C14.78,18.3333 14.8033,18.3483 14.83,18.365 C14.8567,18.3817 14.8833,18.3967 14.91,18.41 C14.97,18.2767 15.035,18.1317 15.105,17.975 C15.175,17.8183 15.2467,17.65 15.32,17.47 C15.1133,17.3367 14.9533,17.1567 14.84,16.93 L13.89,17.3 C13.9833,17.5533 14.1233,17.76 14.31,17.92 L14.27,17.92 C14.1567,17.92 14.0667,17.95 14,18.01 C13.9,17.89 13.815,17.7633 13.745,17.63 C13.675,17.4967 13.6133,17.36 13.56,17.22 C13.6667,17.22 13.7567,17.19 13.83,17.13 C13.83,17.1433 13.83,17.1583 13.83,17.175 C13.83,17.1917 13.8367,17.2067 13.85,17.22 C13.9167,17.1867 14.0217,17.14 14.165,17.08 C14.3083,17.02 14.52,16.9333 14.8,16.82 C14.78,16.7467 14.7633,16.6767 14.75,16.61 C14.7367,16.5433 14.73,16.4733 14.73,16.4 C14.73,16.24 14.76,16.09 14.82,15.95 L13.87,15.56 C13.8233,15.6733 13.7867,15.785 13.76,15.895 C13.7333,16.005 13.72,16.12 13.72,16.24 C13.6533,16.2133 13.6,16.2 13.56,16.2 C13.54,16.2 13.5183,16.2 13.495,16.2 C13.4717,16.2 13.45,16.2067 13.43,16.22 C13.47,15.8067 13.5867,15.4367 13.78,15.11 C13.8,15.1967 13.8433,15.28 13.91,15.36 C13.9167,15.3667 13.9233,15.37 13.93,15.37 C13.9367,15.3767 13.9467,15.38 13.96,15.38 C13.9467,15.3933 13.935,15.4083 13.925,15.425 C13.915,15.4417 13.91,15.4567 13.91,15.47 C13.9833,15.5033 14.0917,15.55 14.235,15.61 C14.3783,15.67 14.59,15.7567 14.87,15.87 C14.9367,15.7367 15.0233,15.6167 15.13,15.51 C15.2367,15.4033 15.3567,15.3233 15.49,15.27 L15.09,14.32 C14.9967,14.3533 14.9083,14.395 14.825,14.445 C14.7417,14.495 14.6667,14.5467 14.6,14.6 C14.5,14.5333 14.3967,14.49 14.29,14.47 C14.49,14.3033 14.7067,14.1667 14.94,14.06 C15.1733,13.9533 15.43,13.8833 15.71,13.85 C15.6567,13.8967 15.61,13.9467 15.57,14 C15.53,14.0533 15.5033,14.1133 15.49,14.18 C15.43,14.1933 15.3767,14.2067 15.33,14.22 C15.2833,14.2333 15.2333,14.25 15.18,14.27 C15.2133,14.3433 15.2583,14.4533 15.315,14.6 C15.3717,14.7467 15.4567,14.9533 15.57,15.22 C15.71,15.18 15.85,15.16 15.99,15.16 C16.07,15.16 16.1467,15.1683 16.22,15.185 C16.2933,15.2017 16.3667,15.2233 16.44,15.25 L16.84,14.29 C16.7067,14.25 16.5867,14.2133 16.48,14.18 C16.46,14.0533 16.3933,13.9433 16.28,13.85 C16.82,13.9233 17.2867,14.13 17.68,14.47 C17.6267,14.4833 17.5767,14.5 17.53,14.52 C17.4833,14.54 17.4367,14.5667 17.39,14.6 C17.31,14.56 17.235,14.515 17.165,14.465 C17.095,14.415 17.0233,14.3733 16.95,14.34 C16.9167,14.4133 16.8667,14.5233 16.8,14.67 C16.7333,14.8167 16.6433,15.0233 16.53,15.29 C16.7967,15.4233 16.9933,15.6233 17.12,15.89 L18.07,15.51 C18.0567,15.49 18.05,15.4683 18.05,15.445 C18.05,15.4217 18.0433,15.4 18.03,15.38 L18.04,15.37 C18.0467,15.37 18.0517,15.3683 18.055,15.365 C18.0583,15.3617 18.0633,15.36 18.07,15.36 C18.1433,15.2867 18.19,15.2033 18.21,15.11 C18.2967,15.2833 18.37,15.4617 18.43,15.645 C18.49,15.8283 18.5267,16.02 18.54,16.22 C18.52,16.22 18.5017,16.2167 18.485,16.21 C18.4683,16.2033 18.45,16.2 18.43,16.2 C18.3967,16.2 18.3667,16.2033 18.34,16.21 C18.3133,16.2167 18.2833,16.2267 18.25,16.24 C18.2367,16.1267 18.22,16.0167 18.2,15.91 C18.18,15.8033 18.1533,15.7 18.12,15.6 C18.04,15.6333 17.925,15.6767 17.775,15.73 C17.625,15.7833 17.4167,15.8667 17.15,15.98 C17.2033,16.1133 17.23,16.26 17.23,16.42 C17.23,16.5867 17.2033,16.7267 17.15,16.84 L18.1,17.24 M16.22,16 C16.2933,16.0467 16.3533,16.1067 16.4,16.18 C16.5267,16.1333 16.7367,16.05 17.03,15.93 C16.9167,15.6767 16.7333,15.4933 16.48,15.38 L16.22,16 M15.99,15.25 C15.85,15.25 15.7267,15.27 15.62,15.31 L15.87,15.95 C15.9233,15.9367 15.9633,15.93 15.99,15.93 C16.0433,15.93 16.09,15.94 16.13,15.96 C16.2033,15.8133 16.2967,15.6033 16.41,15.33 C16.3433,15.31 16.2767,15.2917 16.21,15.275 C16.1433,15.2583 16.07,15.25 15.99,15.25 M15.53,15.36 C15.41,15.4067 15.2983,15.475 15.195,15.565 C15.0917,15.655 15.01,15.7633 14.95,15.89 L15.59,16.17 C15.63,16.0967 15.6933,16.0367 15.78,15.99 C15.7467,15.9167 15.71,15.83 15.67,15.73 C15.63,15.63 15.5833,15.5067 15.53,15.36 M14.82,16.4 C14.82,16.5333 14.8433,16.6667 14.89,16.8 L15.55,16.53 C15.5367,16.4767 15.53,16.4333 15.53,16.4 C15.53,16.3667 15.5367,16.3167 15.55,16.25 C15.4767,16.2167 15.3883,16.1783 15.285,16.135 C15.1817,16.0917 15.0567,16.04 14.91,15.98 C14.89,16.0467 14.87,16.1133 14.85,16.18 C14.83,16.2467 14.82,16.32 14.82,16.4 M14.93,16.88 C15.0233,17.1 15.1667,17.27 15.36,17.39 C15.4067,17.2833 15.455,17.1733 15.505,17.06 C15.555,16.9467 15.6067,16.83 15.66,16.71 C15.62,16.67 15.5933,16.6367 15.58,16.61 C15.5067,16.6433 15.4167,16.6817 15.31,16.725 C15.2033,16.7683 15.0767,16.82 14.93,16.88 M15.97,17.57 C16.09,17.57 16.2067,17.55 16.32,17.51 C16.28,17.41 16.2367,17.3067 16.19,17.2 C16.1433,17.0933 16.0933,16.98 16.04,16.86 L15.99,16.86 L15.95,16.86 L15.66,17.53 C15.7133,17.5433 15.765,17.5533 15.815,17.56 C15.865,17.5667 15.9167,17.57 15.97,17.57 M16.62,17.37 C16.8133,17.2433 16.95,17.08 17.03,16.88 L16.4,16.61 C16.3867,16.63 16.375,16.6483 16.365,16.665 C16.355,16.6817 16.3433,16.6967 16.33,16.71 L16.62,17.37 M17.06,16.8 C17.08,16.74 17.1,16.6783 17.12,16.615 C17.14,16.5517 17.15,16.4867 17.15,16.42 C17.15,16.2867 17.12,16.1533 17.06,16.02 L16.44,16.27 C16.4533,16.3233 16.46,16.3667 16.46,16.4 C16.46,16.4333 16.4533,16.4767 16.44,16.53 C16.5067,16.5633 16.59,16.6 16.69,16.64 C16.79,16.68 16.9133,16.7333 17.06,16.8 M14.51,15.22 C14.4433,15.3 14.3633,15.34 14.27,15.34 C14.1767,15.34 14.0967,15.3 14.03,15.22 C13.9567,15.1533 13.92,15.0733 13.92,14.98 C13.92,14.8867 13.9567,14.8067 14.03,14.74 C14.0967,14.6667 14.1767,14.63 14.27,14.63 C14.3633,14.63 14.4433,14.6667 14.51,14.74 C14.5767,14.8067 14.61,14.8867 14.61,14.98 C14.61,15.0733 14.5767,15.1533 14.51,15.22 M17.45,15.22 C17.3833,15.1533 17.35,15.0733 17.35,14.98 C17.35,14.8867 17.3833,14.8067 17.45,14.74 C17.53,14.6667 17.6183,14.63 17.715,14.63 C17.8117,14.63 17.8933,14.6667 17.96,14.74 C18.0333,14.8067 18.07,14.8867 18.07,14.98 C18.07,15.0733 18.0333,15.1533 17.96,15.22 C17.8933,15.3 17.8117,15.34 17.715,15.34 C17.6183,15.34 17.53,15.3 17.45,15.22 M13.89,16.71 C13.89,16.81 13.8583,16.8933 13.795,16.96 C13.7317,17.0267 13.6533,17.06 13.56,17.06 C13.46,17.06 13.3767,17.0267 13.31,16.96 C13.2433,16.8933 13.21,16.81 13.21,16.71 C13.21,16.61 13.2433,16.525 13.31,16.455 C13.3767,16.385 13.46,16.35 13.56,16.35 C13.6533,16.35 13.7317,16.3867 13.795,16.46 C13.8583,16.5333 13.89,16.6167 13.89,16.71 M15.99,14.63 C15.8967,14.63 15.815,14.595 15.745,14.525 C15.675,14.455 15.64,14.37 15.64,14.27 C15.64,14.17 15.675,14.0867 15.745,14.02 C15.815,13.9533 15.8967,13.92 15.99,13.92 C16.0833,13.92 16.1633,13.9533 16.23,14.02 C16.2967,14.0867 16.33,14.17 16.33,14.27 C16.33,14.37 16.2967,14.455 16.23,14.525 C16.1633,14.595 16.0833,14.63 15.99,14.63 M17.45,18.19 C17.53,18.1233 17.6183,18.09 17.715,18.09 C17.8117,18.09 17.8933,18.1233 17.96,18.19 C18.0333,18.2567 18.07,18.3367 18.07,18.43 C18.07,18.5233 18.0333,18.6067 17.96,18.68 C17.8933,18.7467 17.8117,18.78 17.715,18.78 C17.6183,18.78 17.53,18.7467 17.45,18.68 C17.3833,18.6067 17.35,18.5233 17.35,18.43 C17.35,18.3367 17.3833,18.2567 17.45,18.19 M14.51,18.68 C14.4433,18.7467 14.3633,18.78 14.27,18.78 C14.1767,18.78 14.0967,18.7467 14.03,18.68 C13.9567,18.6067 13.92,18.5233 13.92,18.43 C13.92,18.3367 13.9567,18.2567 14.03,18.19 C14.0967,18.1233 14.1767,18.09 14.27,18.09 C14.3633,18.09 14.4433,18.1233 14.51,18.19 C14.5767,18.2567 14.61,18.3367 14.61,18.43 C14.61,18.5233 14.5767,18.6067 14.51,18.68 M18.43,16.35 C18.53,16.35 18.6133,16.385 18.68,16.455 C18.7467,16.525 18.78,16.61 18.78,16.71 C18.78,16.81 18.7467,16.8933 18.68,16.96 C18.6133,17.0267 18.53,17.06 18.43,17.06 C18.33,17.06 18.245,17.0267 18.175,16.96 C18.105,16.8933 18.07,16.81 18.07,16.71 C18.07,16.61 18.105,16.525 18.175,16.455 C18.245,16.385 18.33,16.35 18.43,16.35 M15.99,18.81 C16.0833,18.81 16.1633,18.8417 16.23,18.905 C16.2967,18.9683 16.33,19.0467 16.33,19.14 C16.33,19.24 16.2967,19.3233 16.23,19.39 C16.1633,19.4567 16.0833,19.49 15.99,19.49 C15.8967,19.49 15.815,19.4567 15.745,19.39 C15.675,19.3233 15.64,19.24 15.64,19.14 C15.64,19.0467 15.675,18.9683 15.745,18.905 C15.815,18.8417 15.8967,18.81 15.99,18.81 "/>
</g>

<g fill="none" stroke="none" transform="matrix(1.33333,0,0,1.33333,0,0)"
font-family="MS Shell Dlg 2" font-size="8.25" font-weight="400" font-style="normal" 
>
</g>

<g fill="none" stroke="none" transform="matrix(1,0,0,1,0,0)"
font-family="MS Shell Dlg 2" font-size="8.25" font-weight="400" font-style="normal" 
>
</g>

<g fill="none" stroke="#000000" stroke-opacity="1" stroke-width="1" stroke-linecap="square" stroke-linejoin="bevel" transform="matrix(1,0,0,1,0,0)"
font-family="MS Shell Dlg 2" font-size="8.25" font-weight="400" font-style="normal" 
>
</g>
</g>
</svg>
