<?xml version="1.0" encoding="UTF-8" standalone="no"?>
<svg width="11.2889mm" height="11.2889mm"
 viewBox="0 0 32 32"
 xmlns="http://www.w3.org/2000/svg" xmlns:xlink="http://www.w3.org/1999/xlink"  version="1.2" baseProfile="tiny">
<title>Qt SVG Document</title>
<desc>Generated with Qt</desc>
<defs>
</defs>
<g fill="none" stroke="black" stroke-width="1" fill-rule="evenodd" stroke-linecap="square" stroke-linejoin="bevel" >

<g fill="none" stroke="#000000" stroke-opacity="1" stroke-width="1" stroke-linecap="square" stroke-linejoin="bevel" transform="matrix(1,0,0,1,16,16)"
font-family="MS Shell Dlg 2" font-size="8.25" font-weight="400" font-style="normal" 
>
</g>

<g fill="none" stroke="#000000" stroke-opacity="1" stroke-width="1" stroke-linecap="square" stroke-linejoin="bevel" transform="matrix(1.33333,0,0,1.33333,16,16)"
font-family="MS Shell Dlg 2" font-size="8.25" font-weight="400" font-style="normal" 
>
</g>

<g fill="#000000" fill-opacity="1" stroke="#000000" stroke-opacity="1" stroke-width="1" stroke-linecap="butt" stroke-linejoin="miter" stroke-miterlimit="4" transform="matrix(0.141732,0,0,0.141732,8.91339,8.91339)"
font-family="MS Shell Dlg 2" font-size="10" font-weight="400" font-style="normal" 
>
<path vector-effect="none" fill-rule="nonzero" d="M71.0313,44.3848 C71.0313,47.5749 70.5023,50.415 69.4443,52.9053 C68.3864,55.3955 66.9785,57.5846 65.2207,59.4727 C63.4629,61.3607 61.4691,63.1022 59.2393,64.6973 C57.0094,66.2923 54.6576,67.8385 52.1836,69.3359 L52.1836,80.4688 L43.4434,80.4688 L43.4434,65.5762 C45.2663,64.4694 47.3903,63.1429 49.8154,61.5967 C52.2406,60.0505 54.1367,58.61 55.5039,57.2754 C57.2617,55.6152 58.6289,53.8005 59.6055,51.8311 C60.582,49.8617 61.0703,47.6237 61.0703,45.1172 C61.0703,41.4388 59.9147,38.6963 57.6035,36.8896 C55.2923,35.083 52.2813,34.1797 48.5703,34.1797 C45.3151,34.1797 42.2471,34.7249 39.3662,35.8154 C36.4854,36.9059 34.1497,38.0371 32.3594,39.209 L31.8223,39.209 L31.8223,29.248 C34.0033,28.3691 36.7539,27.5798 40.0742,26.8799 C43.3945,26.18 46.5358,25.8301 49.498,25.8301 C56.1712,25.8301 61.4284,27.5309 65.2695,30.9326 C69.1107,34.3343 71.0313,38.8184 71.0313,44.3848 M52.9648,100 L43.0039,100 L43.0039,89.6973 L52.9648,89.6973 L52.9648,100"/>
</g>

<g fill="none" stroke="#000000" stroke-opacity="1" stroke-width="1" stroke-linecap="square" stroke-linejoin="bevel" transform="matrix(1.33333,0,0,1.33333,16,16)"
font-family="MS Shell Dlg 2" font-size="8.25" font-weight="400" font-style="normal" 
>
</g>

<g fill="none" stroke="#000000" stroke-opacity="1" stroke-width="1" stroke-linecap="square" stroke-linejoin="bevel" transform="matrix(1,0,0,1,16,16)"
font-family="MS Shell Dlg 2" font-size="8.25" font-weight="400" font-style="normal" 
>
</g>

<g fill="none" stroke="#000000" stroke-opacity="1" stroke-width="1" stroke-linecap="square" stroke-linejoin="bevel" transform="matrix(1,0,0,1,0,0)"
font-family="MS Shell Dlg 2" font-size="8.25" font-weight="400" font-style="normal" 
>
</g>
</g>
</svg>
