<?xml version="1.0" encoding="UTF-8" standalone="no"?>
<svg width="11.2889mm" height="11.2889mm"
 viewBox="0 0 32 32"
 xmlns="http://www.w3.org/2000/svg" xmlns:xlink="http://www.w3.org/1999/xlink"  version="1.2" baseProfile="tiny">
<title>Qt SVG Document</title>
<desc>Generated with Qt</desc>
<defs>
</defs>
<g fill="none" stroke="black" stroke-width="1" fill-rule="evenodd" stroke-linecap="square" stroke-linejoin="bevel" >

<g fill="#33a02c" fill-opacity="1" stroke="none" transform="matrix(1,0,0,1,0,0)"
font-family="MS Shell Dlg 2" font-size="8.25" font-weight="400" font-style="normal" 
>
<path vector-effect="none" fill-rule="evenodd" d="M21.402,17.114 C21.402,17.87 21.2597,18.5817 20.975,19.249 C20.6903,19.9163 20.2983,20.4973 19.799,20.992 C19.2997,21.4867 18.7163,21.8763 18.049,22.161 C17.3817,22.4457 16.67,22.588 15.914,22.588 C15.158,22.588 14.4463,22.4457 13.779,22.161 C13.1117,21.8763 12.5307,21.4867 12.036,20.992 C11.5413,20.4973 11.1517,19.9163 10.867,19.249 C10.5823,18.5817 10.44,17.87 10.44,17.114 C10.44,16.358 10.5823,15.6463 10.867,14.979 C11.1517,14.3117 11.5413,13.7283 12.036,13.229 C12.5307,12.7297 13.1117,12.3377 13.779,12.053 C14.4463,11.7683 15.158,11.626 15.914,11.626 C16.67,11.626 17.3817,11.7683 18.049,12.053 C18.7163,12.3377 19.2997,12.7297 19.799,13.229 C20.2983,13.7283 20.6903,14.3117 20.975,14.979 C21.2597,15.6463 21.402,16.358 21.402,17.114 "/>
</g>

<g fill="#33a02c" fill-opacity="1" stroke="none" transform="matrix(1,0,0,1,0,0)"
font-family="MS Shell Dlg 2" font-size="8.25" font-weight="400" font-style="normal" 
>
</g>

<g fill="#ffffff" fill-opacity="1" stroke="none" transform="matrix(1,0,0,1,0,0)"
font-family="MS Shell Dlg 2" font-size="8.25" font-weight="400" font-style="normal" 
>
<path vector-effect="none" fill-rule="evenodd" d="M15.75,15.08 C15.75,15.0667 15.6667,15.2033 15.5,15.49 L15.16,16.07 C15,16.3433 14.8667,16.48 14.76,16.48 C14.6933,16.48 14.66,16.4467 14.66,16.38 C14.66,16.22 14.7933,15.95 15.06,15.57 C15.32,15.2033 15.5167,15.02 15.65,15.02 C15.7167,15.02 15.75,15.04 15.75,15.08 M17.8,17.34 C17.7867,17.3667 17.7633,17.38 17.73,17.38 C17.6767,17.38 17.61,17.3667 17.53,17.34 L16.6,18.83 C16.6333,18.9767 16.66,19.1233 16.68,19.27 C16.7,19.4167 16.71,19.5667 16.71,19.72 C16.71,19.82 16.7,19.91 16.68,19.99 L17.17,20.06 L17.21,20.25 L17.17,20.32 L16.56,20.32 C16.4933,20.32 16.4367,20.2167 16.39,20.01 C16.3833,19.9767 16.3683,19.91 16.345,19.81 C16.3217,19.71 16.29,19.57 16.25,19.39 L15.73,20.22 L15.51,20.15 L16.16,19.16 C16.14,19.04 16.13,18.9667 16.13,18.94 C16.11,18.9133 16.0067,18.7133 15.82,18.34 C15.7067,18.14 15.6267,18.0167 15.58,17.97 L15.57,17.97 C15.5167,17.97 15.4133,18.14 15.26,18.48 L14.79,19.52 C14.79,19.5267 14.7567,19.5967 14.69,19.73 L14.99,19.86 L14.97,20.15 C14.8833,20.1367 14.8167,20.1267 14.77,20.12 C14.7233,20.1133 14.6933,20.11 14.68,20.11 L14.37,20.04 C14.3433,20.02 14.33,19.97 14.33,19.89 C14.33,19.6633 14.4333,19.23 14.64,18.59 C14.8133,18.0567 14.9367,17.72 15.01,17.58 C15.0367,17.5333 15.05,17.4633 15.05,17.37 C15.05,17.27 15.0367,17.1533 15.01,17.02 C15.4567,15.8733 15.85,15.3 16.19,15.3 C16.2367,15.3 16.2733,15.31 16.3,15.33 L16.22,15.23 C16.1333,15.1433 16.09,15.0333 16.09,14.9 C16.09,14.7667 16.1367,14.6533 16.23,14.56 C16.3233,14.4667 16.4333,14.42 16.56,14.42 C16.6867,14.42 16.7967,14.4667 16.89,14.56 C16.9833,14.6533 17.03,14.7667 17.03,14.9 C17.03,15.02 16.9833,15.1267 16.89,15.22 C16.7967,15.3133 16.6867,15.36 16.56,15.36 L16.46,15.58 C16.58,15.84 16.64,16.09 16.64,16.33 C16.64,16.39 16.6267,16.4333 16.6,16.46 C16.6,16.5733 16.7333,16.7033 17,16.85 C17.0467,16.8967 17.2033,16.9767 17.47,17.09 C17.69,17.1967 17.8,17.28 17.8,17.34 M17.28,17.31 C17.2,17.2833 17.105,17.245 16.995,17.195 C16.885,17.145 16.76,17.0867 16.62,17.02 C16.4133,16.9133 16.2867,16.86 16.24,16.86 L16.21,16.87 C16.1033,16.9233 16.05,17.1367 16.05,17.51 C16.05,17.5367 16.1067,17.6767 16.22,17.93 C16.3667,18.25 16.4533,18.4567 16.48,18.55 L17.28,17.31"/>
</g>

<g fill="#ffffff" fill-opacity="1" stroke="none" transform="matrix(1,0,0,1,0,0)"
font-family="MS Shell Dlg 2" font-size="8.25" font-weight="400" font-style="normal" 
>
</g>
</g>
</svg>
