<?xml version="1.0" encoding="UTF-8" standalone="no"?>
<svg
   xmlns:dc="http://purl.org/dc/elements/1.1/"
   xmlns:cc="http://creativecommons.org/ns#"
   xmlns:rdf="http://www.w3.org/1999/02/22-rdf-syntax-ns#"
   xmlns:svg="http://www.w3.org/2000/svg"
   xmlns="http://www.w3.org/2000/svg"
   xmlns:sodipodi="http://sodipodi.sourceforge.net/DTD/sodipodi-0.dtd"
   xmlns:inkscape="http://www.inkscape.org/namespaces/inkscape"
   width="3.8671539mm"
   height="3.8671539mm"
   viewBox="0 0 10.962 10.962"
   version="1.2"
   id="svg22"
   sodipodi:docname="200k_10.svg"
   inkscape:version="1.0 (4035a4fb49, 2020-05-01)">
  <metadata
     id="metadata26">
    <rdf:RDF>
      <cc:Work
         rdf:about="">
        <dc:format>image/svg+xml</dc:format>
        <dc:type
           rdf:resource="http://purl.org/dc/dcmitype/StillImage" />
      </cc:Work>
    </rdf:RDF>
  </metadata>
  <sodipodi:namedview
     inkscape:document-rotation="0"
     pagecolor="#ffffff"
     bordercolor="#666666"
     borderopacity="1"
     objecttolerance="10"
     gridtolerance="10"
     guidetolerance="10"
     inkscape:pageopacity="0"
     inkscape:pageshadow="2"
     inkscape:window-width="1920"
     inkscape:window-height="1013"
     id="namedview24"
     showgrid="false"
     inkscape:zoom="12.239135"
     inkscape:cx="-0.32069045"
     inkscape:cy="8.7370625"
     inkscape:window-x="-9"
     inkscape:window-y="-9"
     inkscape:window-maximized="1"
     inkscape:current-layer="svg22" />
  <title
     id="title2">Qt SVG Document</title>
  <desc
     id="desc4">Generated with Qt</desc>
  <defs
     id="defs6" />
  <g
     fill="none"
     stroke="#000000"
     stroke-width="1"
     fill-rule="evenodd"
     stroke-linecap="square"
     stroke-linejoin="bevel"
     id="g20"
     transform="translate(-10.44,-11.626)">
    <g
       fill="#66b1e3"
       fill-opacity="1"
       stroke="none"
       font-family="'MS Shell Dlg 2'"
       font-size="8.25px"
       font-weight="400"
       font-style="normal"
       id="g10">
      <path
         vector-effect="none"
         fill-rule="evenodd"
         d="m 21.402,17.114 c 0,0.756 -0.1423,1.4677 -0.427,2.135 -0.2847,0.6673 -0.6767,1.2483 -1.176,1.743 -0.4993,0.4947 -1.0827,0.8843 -1.75,1.169 -0.6673,0.2847 -1.379,0.427 -2.135,0.427 -0.756,0 -1.4677,-0.1423 -2.135,-0.427 -0.6673,-0.2847 -1.2483,-0.6743 -1.743,-1.169 -0.4947,-0.4947 -0.8843,-1.0757 -1.169,-1.743 -0.2847,-0.6673 -0.427,-1.379 -0.427,-2.135 0,-0.756 0.1423,-1.4677 0.427,-2.135 0.2847,-0.6673 0.6743,-1.2507 1.169,-1.75 0.4947,-0.4993 1.0757,-0.8913 1.743,-1.176 0.6673,-0.2847 1.379,-0.427 2.135,-0.427 0.756,0 1.4677,0.1423 2.135,0.427 0.6673,0.2847 1.2507,0.6767 1.75,1.176 0.4993,0.4993 0.8913,1.0827 1.176,1.75 0.2847,0.6673 0.427,1.379 0.427,2.135"
         id="path8" />
    </g>
    <g
       fill="#66b1e3"
       fill-opacity="1"
       stroke="none"
       font-family="'MS Shell Dlg 2'"
       font-size="8.25px"
       font-weight="400"
       font-style="normal"
       id="g12" />
    <g
       fill="#ffffff"
       fill-opacity="1"
       stroke="none"
       font-family="'MS Shell Dlg 2'"
       font-size="8.25px"
       font-weight="400"
       font-style="normal"
       id="g16">
      <path
         vector-effect="none"
         fill-rule="evenodd"
         d="m 16.163469,16.817 c -0.0533,0 -0.1033,-0.0183 -0.15,-0.055 -0.0467,-0.0367 -0.0767,-0.075 -0.09,-0.115 0.0467,0.0667 0.1267,0.1 0.24,0.1 0.1133,0 0.1933,-0.0333 0.24,-0.1 -0.0133,0.04 -0.0433,0.0783 -0.09,0.115 -0.0467,0.0367 -0.0967,0.055 -0.15,0.055 m 0,0.34 c 0.06,0.0733 0.14,0.11 0.24,0.11 0.1133,0 0.19,-0.0367 0.23,-0.11 -0.0333,0.1 -0.11,0.15 -0.23,0.15 -0.1267,0 -0.2067,-0.05 -0.24,-0.15 m -0.07,0.3 c -0.0933,0 -0.15,-0.0433 -0.17,-0.13 0.04,0.06 0.0967,0.09 0.17,0.09 0.1,0 0.1667,-0.03 0.2,-0.09 -0.0267,0.0867 -0.0933,0.13 -0.2,0.13 m 0.82,-2.24 c -0.1067,0 -0.1833,-0.05 -0.23,-0.15 0.06,0.0733 0.1367,0.11 0.23,0.11 0.12,0 0.2,-0.0367 0.24,-0.11 -0.0333,0.1 -0.1133,0.15 -0.24,0.15 m 0.26,-0.25 c -0.0333,0 -0.0633,-0.0133 -0.09,-0.04 -0.0267,-0.0267 -0.0467,-0.05 -0.06,-0.07 0.04,0.04 0.09,0.06 0.15,0.06 0.08,0 0.13,-0.02 0.15,-0.06 -0.0133,0.02 -0.03,0.0433 -0.05,0.07 -0.02,0.0267 -0.0533,0.04 -0.1,0.04 m -1.68,2.95 c -0.0933,0 -0.1567,-0.0433 -0.19,-0.13 0.02,0.02 0.0467,0.0383 0.08,0.055 0.0333,0.0167 0.07,0.025 0.11,0.025 0.0467,0 0.0883,-0.0083 0.125,-0.025 0.0367,-0.0167 0.0683,-0.035 0.095,-0.055 -0.02,0.0867 -0.0933,0.13 -0.22,0.13 m 0.86,1.59 c 0.0133,0.02 0.035,0.04 0.065,0.06 0.03,0.02 0.0683,0.03 0.115,0.03 0.0333,0 0.0633,-0.01 0.09,-0.03 0.0267,-0.02 0.0467,-0.04 0.06,-0.06 -0.0133,0.0333 -0.0333,0.0633 -0.06,0.09 -0.0267,0.0267 -0.0567,0.04 -0.09,0.04 -0.0467,0 -0.085,-0.0133 -0.115,-0.04 -0.03,-0.0267 -0.0517,-0.0567 -0.065,-0.09 m 0.93,-0.41 c 0.0533,0.0733 0.1233,0.11 0.21,0.11 0.0933,0 0.1667,-0.0367 0.22,-0.11 -0.04,0.1133 -0.1133,0.17 -0.22,0.17 -0.0333,0 -0.0667,-0.0133 -0.1,-0.04 -0.0133,0.02 -0.0333,0.04 -0.06,0.06 -0.0267,0.02 -0.0567,0.03 -0.09,0.03 -0.0867,0 -0.1467,-0.0367 -0.18,-0.11 0.0267,0.04 0.0867,0.06 0.18,0.06 0.0533,0 0.1033,-0.0133 0.15,-0.04 -0.0333,-0.0133 -0.0567,-0.03 -0.07,-0.05 -0.0133,-0.02 -0.0267,-0.0467 -0.04,-0.08 m -2.18,-0.22 c 0.0267,0.06 0.0867,0.09 0.18,0.09 0.0667,0 0.1167,-0.03 0.15,-0.09 -0.0333,0.0733 -0.0833,0.11 -0.15,0.11 h -0.09 c -0.0333,0.0733 -0.0967,0.11 -0.19,0.11 -0.1267,0 -0.2,-0.0433 -0.22,-0.13 0.02,0.02 0.05,0.04 0.09,0.06 0.04,0.02 0.0833,0.03 0.13,0.03 0.0867,0 0.15,-0.0233 0.19,-0.07 -0.02,-0.0133 -0.04,-0.0283 -0.06,-0.045 -0.02,-0.0167 -0.03,-0.0383 -0.03,-0.065 m 3.36,0.09 c 0.22,0.02 0.3817,0.0567 0.485,0.11 0.1033,0.0533 0.15,0.1117 0.14,0.175 -0.01,0.0633 -0.0717,0.125 -0.185,0.185 -0.1133,0.06 -0.2733,0.1033 -0.48,0.13 -0.0533,0.08 -0.1233,0.1467 -0.21,0.2 -0.0867,0.0533 -0.2083,0.095 -0.365,0.125 -0.1567,0.03 -0.36,0.045 -0.61,0.045 -0.25,0 -0.565,-0.0133 -0.945,-0.04 -0.2,-0.0133 -0.435,-0.015 -0.705,-0.005 -0.27,0.01 -0.535,0.0117 -0.795,0.005 -0.26,-0.0067 -0.4933,-0.0267 -0.7,-0.06 -0.2067,-0.0333 -0.3433,-0.1 -0.41,-0.2 -0.04,-0.06 -0.04,-0.1083 0,-0.145 0.04,-0.0367 0.0767,-0.0667 0.11,-0.09 0.0333,-0.0233 0.0433,-0.0433 0.03,-0.06 -0.0133,-0.0167 -0.0933,-0.035 -0.24,-0.055 -0.2333,-0.04 -0.3817,-0.1117 -0.445,-0.215 -0.0633,-0.1033 -0.025,-0.175 0.115,-0.215 0.1133,-0.02 0.2183,-0.0417 0.315,-0.065 0.0967,-0.0233 0.1633,-0.045 0.2,-0.065 0.0367,-0.02 0.0333,-0.0417 -0.01,-0.065 -0.0433,-0.0233 -0.145,-0.045 -0.305,-0.065 -0.1733,-0.02 -0.3117,-0.05 -0.415,-0.09 -0.1033,-0.04 -0.1783,-0.08 -0.225,-0.12 -0.0467,-0.04 -0.0667,-0.075 -0.06,-0.105 0.0067,-0.03 0.0367,-0.045 0.09,-0.045 0.2733,0 0.48,-0.0067 0.62,-0.02 0.14,-0.0133 0.235,-0.03 0.285,-0.05 0.05,-0.02 0.07,-0.0433 0.06,-0.07 -0.01,-0.0267 -0.0283,-0.05 -0.055,-0.07 -0.0267,-0.02 -0.05,-0.0367 -0.07,-0.05 -0.02,-0.0133 -0.0133,-0.02 0.02,-0.02 0.0533,0 0.0883,-0.005 0.105,-0.015 0.0167,-0.01 0.0283,-0.0233 0.035,-0.04 0.0067,-0.0167 0.015,-0.03 0.025,-0.04 0.01,-0.01 0.035,-0.015 0.075,-0.015 0.0467,-0.0533 0.0617,-0.13 0.045,-0.23 -0.0167,-0.1 -0.025,-0.21 -0.025,-0.33 0,-0.12 0.02,-0.22 0.06,-0.3 0.04,-0.08 0.085,-0.155 0.135,-0.225 0.05,-0.07 0.0967,-0.1383 0.14,-0.205 0.0433,-0.0667 0.0683,-0.14 0.075,-0.22 0.0267,-0.1867 0.07,-0.3233 0.13,-0.41 0.06,-0.0867 0.125,-0.1567 0.195,-0.21 0.07,-0.0533 0.1383,-0.1133 0.205,-0.18 0.0667,-0.0667 0.12,-0.1733 0.16,-0.32 0,-0.1067 0.0533,-0.2067 0.16,-0.3 0.1067,-0.0933 0.24,-0.1733 0.4,-0.24 0.16,-0.0667 0.3333,-0.12 0.52,-0.16 0.1867,-0.04 0.3567,-0.0633 0.51,-0.07 0.0467,-0.0067 0.08,-0.0033 0.1,0.01 0.02,0.0133 0.0417,0.0283 0.065,0.045 0.0233,0.0167 0.0567,0.0333 0.1,0.05 0.0433,0.0167 0.1083,0.025 0.195,0.025 0.1267,-0.0733 0.255,-0.1283 0.385,-0.165 0.13,-0.0367 0.2483,-0.065 0.355,-0.085 0.06,-0.0133 0.12,-0.0233 0.18,-0.03 0.06,-0.0067 0.12,-0.0133 0.18,-0.02 -0.06,0.04 -0.115,0.08 -0.165,0.12 -0.05,0.04 -0.0983,0.0767 -0.145,0.11 -0.0733,0.06 -0.1417,0.1183 -0.205,0.175 -0.0633,0.0567 -0.0883,0.0983 -0.075,0.125 0.08,-0.04 0.1783,-0.085 0.295,-0.135 0.1167,-0.05 0.2333,-0.0733 0.35,-0.07 0.1167,0.0033 0.2217,0.0483 0.315,0.135 0.0933,0.0867 0.1567,0.2467 0.19,0.48 0,0.02 0.0133,0.025 0.04,0.015 0.0267,-0.01 0.0483,0.0033 0.065,0.04 0.0167,0.0367 0.02,0.115 0.01,0.235 -0.01,0.12 -0.0483,0.3133 -0.115,0.58 0.06,0.0733 0.065,0.145 0.015,0.215 -0.05,0.07 -0.11,0.1333 -0.18,0.19 -0.07,0.0567 -0.1317,0.1 -0.185,0.13 -0.0533,0.03 -0.0533,0.0383 0,0.025 0.14,-0.0533 0.2617,-0.0583 0.365,-0.015 0.1033,0.0433 0.1317,0.1117 0.085,0.205 -0.0533,0.1267 -0.0883,0.2617 -0.105,0.405 -0.0167,0.1433 -0.025,0.2817 -0.025,0.415 0,0.1533 0.01,0.3033 0.03,0.45 0.0867,0.1467 0.1333,0.2767 0.14,0.39 0.0133,0.1 -0.0083,0.1967 -0.065,0.29 -0.0567,0.0933 -0.185,0.1533 -0.385,0.18 m -2.37,0.78 c 0.5,0.0333 0.935,0.0267 1.305,-0.02 0.37,-0.0467 0.6733,-0.105 0.91,-0.175 0.2367,-0.07 0.405,-0.1417 0.505,-0.215 0.1,-0.0733 0.1267,-0.1233 0.08,-0.15 -0.0133,-0.0133 -0.015,-0.0283 -0.005,-0.045 0.01,-0.0167 0.01,-0.0333 0,-0.05 -0.01,-0.0167 -0.04,-0.0317 -0.09,-0.045 -0.05,-0.0133 -0.145,-0.0267 -0.285,-0.04 -0.12,-0.0067 -0.175,-0.0217 -0.165,-0.045 0.01,-0.0233 0.045,-0.0467 0.105,-0.07 0.06,-0.0233 0.1233,-0.045 0.19,-0.065 0.0667,-0.02 0.0933,-0.03 0.08,-0.03 -0.0733,-0.0333 -0.14,-0.0483 -0.2,-0.045 -0.06,0.0033 -0.115,0.0117 -0.165,0.025 -0.05,0.0133 -0.095,0.025 -0.135,0.035 -0.04,0.01 -0.0733,0.005 -0.1,-0.015 -0.0667,-0.04 -0.16,-0.06 -0.28,-0.06 -0.12,0 -0.2,0.02 -0.24,0.06 -0.04,0.0333 -0.085,0.0467 -0.135,0.04 -0.05,-0.0067 -0.0983,-0.02 -0.145,-0.04 -0.0667,-0.06 -0.1433,-0.09 -0.23,-0.09 -0.0933,0 -0.1733,0.03 -0.24,0.09 -0.0467,0.0267 -0.0967,0.04 -0.15,0.04 v -0.13 c -0.0533,0.0333 -0.09,0.05 -0.11,0.05 -0.0667,0 -0.12,-0.0183 -0.16,-0.055 -0.04,-0.0367 -0.0667,-0.0783 -0.08,-0.125 0.0533,0.0733 0.1333,0.11 0.24,0.11 0.0133,0 0.0283,-0.0033 0.045,-0.01 0.0167,-0.0067 0.0383,-0.01 0.065,-0.01 0,-0.0333 -0.0033,-0.0617 -0.01,-0.085 -0.0067,-0.0233 -0.01,-0.0517 -0.01,-0.085 0.1333,0.02 0.2467,-0.0033 0.34,-0.07 0.06,-0.0267 0.1167,-0.04 0.17,-0.04 0.06,0 0.12,0.0133 0.18,0.04 0.06,0.0533 0.135,0.08 0.225,0.08 0.09,0 0.1717,-0.0267 0.245,-0.08 0.1067,-0.06 0.2133,-0.06 0.32,0 0.08,0.06 0.1667,0.09 0.26,0.09 0.0533,-0.0133 0.1267,-0.0417 0.22,-0.085 0.0933,-0.0433 0.15,-0.0883 0.17,-0.135 -0.0133,0.0133 -0.0383,0.025 -0.075,0.035 -0.0367,0.01 -0.0767,0.0167 -0.12,0.02 -0.0433,0.0033 -0.085,0.0067 -0.125,0.01 -0.04,0.0033 -0.0633,0.005 -0.07,0.005 -0.0467,0 -0.0967,-0.0167 -0.15,-0.05 -0.1867,-0.1067 -0.36,-0.1067 -0.52,0 -0.04,0.0333 -0.09,0.05 -0.15,0.05 -0.06,0 -0.1167,-0.0167 -0.17,-0.05 -0.0533,-0.0533 -0.1333,-0.08 -0.24,-0.08 -0.0867,0 -0.1733,0.0267 -0.26,0.08 -0.0733,0.0533 -0.1567,0.0633 -0.25,0.03 -0.0133,-0.4 -0.0067,-0.785 0.02,-1.155 0.0267,-0.37 0.0767,-0.7183 0.15,-1.045 -0.0533,0.0733 -0.12,0.11 -0.2,0.11 -0.12,0 -0.1967,-0.0567 -0.23,-0.17 0.0467,0.0667 0.1233,0.1 0.23,0.1 0.1,0 0.1667,-0.0267 0.2,-0.08 0.1067,-0.4 0.25,-0.755 0.43,-1.065 0.18,-0.31 0.43,-0.545 0.75,-0.705 -0.1133,0.02 -0.225,0.0467 -0.335,0.08 -0.11,0.0333 -0.2183,0.07 -0.325,0.11 0.02,0 0.0367,0.005 0.05,0.015 0.0133,0.01 0.0367,0.015 0.07,0.015 0.04,0 0.0767,-0.0167 0.11,-0.05 0,0.0267 -0.0117,0.045 -0.035,0.055 -0.0233,0.01 -0.0483,0.015 -0.075,0.015 -0.06,0 -0.1,-0.0167 -0.12,-0.05 -0.0533,0.0267 -0.105,0.05 -0.155,0.07 -0.05,0.02 -0.1017,0.04 -0.155,0.06 0.02,0.02 0.05,0.03 0.09,0.03 0.04,0 0.0767,-0.0167 0.11,-0.05 0,0.0267 -0.0133,0.045 -0.04,0.055 -0.0267,0.01 -0.05,0.015 -0.07,0.015 -0.0333,0 -0.0633,-0.0067 -0.09,-0.02 -0.18,0.0933 -0.3467,0.2133 -0.5,0.36 -0.1533,0.1467 -0.3,0.3133 -0.44,0.5 0.04,0 0.0767,-0.0083 0.11,-0.025 0.0333,-0.0167 0.06,-0.0317 0.08,-0.045 -0.0067,-0.02 -0.0267,-0.0467 -0.06,-0.08 0.0667,0.0667 0.1433,0.1 0.23,0.1 0.1133,0 0.1933,-0.0333 0.24,-0.1 -0.0133,0.04 -0.04,0.0783 -0.08,0.115 -0.04,0.0367 -0.0933,0.055 -0.16,0.055 -0.0667,0 -0.1233,-0.03 -0.17,-0.09 -0.0333,0.0733 -0.0967,0.11 -0.19,0.11 h -0.03 c -0.0333,0.0467 -0.065,0.0933 -0.095,0.14 -0.03,0.0467 -0.0617,0.0933 -0.095,0.14 0.0333,0.02 0.07,0.04 0.11,0.06 0.04,0.02 0.0767,0.03 0.11,0.03 0.0667,0 0.125,-0.015 0.175,-0.045 0.05,-0.03 0.0917,-0.065 0.125,-0.105 -0.0133,0.06 -0.0483,0.11 -0.105,0.15 -0.0567,0.04 -0.1217,0.06 -0.195,0.06 -0.1,0 -0.18,-0.0367 -0.24,-0.11 -0.0533,0.0733 -0.1017,0.155 -0.145,0.245 -0.0433,0.09 -0.0817,0.1817 -0.115,0.275 0.0133,0 0.03,0.0033 0.05,0.01 0.02,0.0067 0.04,0.01 0.06,0.01 0.04,0 0.0833,-0.01 0.13,-0.03 0.0467,-0.02 0.0833,-0.0467 0.11,-0.08 -0.0533,0.1 -0.1333,0.15 -0.24,0.15 -0.02,0 -0.0417,0 -0.065,0 -0.0233,0 -0.045,-0.0067 -0.065,-0.02 -0.0333,0.0733 -0.0667,0.15 -0.1,0.23 -0.0333,0.08 -0.0633,0.1633 -0.09,0.25 0.0467,0.0267 0.1033,0.04 0.17,0.04 0.12,0 0.22,-0.05 0.3,-0.15 -0.02,0.0667 -0.0583,0.1183 -0.115,0.155 -0.0567,0.0367 -0.1183,0.055 -0.185,0.055 -0.0733,0 -0.14,-0.0133 -0.2,-0.04 -0.02,0.0533 -0.0367,0.1083 -0.05,0.165 -0.0133,0.0567 -0.03,0.1183 -0.05,0.185 h 0.02 c 0.1,0 0.1767,-0.0367 0.23,-0.11 -0.0133,0.04 -0.0417,0.075 -0.085,0.105 -0.0433,0.03 -0.0917,0.045 -0.145,0.045 h -0.05 c -0.04,0.1533 -0.0767,0.3083 -0.11,0.465 -0.0333,0.1567 -0.06,0.3183 -0.08,0.485 -0.0133,0 -0.025,-0.005 -0.035,-0.015 -0.01,-0.01 -0.0283,-0.015 -0.055,-0.015 -0.0333,-0.0333 -0.07,-0.055 -0.11,-0.065 -0.04,-0.01 -0.08,-0.015 -0.12,-0.015 -0.0867,0 -0.1733,0.0267 -0.26,0.08 -0.1133,0.0733 -0.22,0.0733 -0.32,0 -0.1533,-0.1133 -0.32,-0.1133 -0.5,0 -0.0533,0.0333 -0.1033,0.05 -0.15,0.05 -0.0467,0 -0.0967,-0.0167 -0.15,-0.05 0.0067,0.0467 0.0283,0.0817 0.065,0.105 0.0367,0.0233 0.0767,0.0383 0.12,0.045 0.0433,0.0067 0.0867,0.0067 0.13,0 0.0433,-0.0067 0.075,-0.02 0.095,-0.04 0.0867,-0.06 0.1867,-0.06 0.3,0 0.18,0.1133 0.3467,0.1133 0.5,0 0.06,-0.0267 0.1167,-0.04 0.17,-0.04 0.0533,0 0.11,0.0133 0.17,0.04 0.02,0.0133 0.0417,0.025 0.065,0.035 0.0233,0.01 0.045,0.0217 0.065,0.035 -0.0067,0.02 -0.0117,0.0467 -0.015,0.08 -0.0033,0.0333 -0.0083,0.065 -0.015,0.095 -0.0067,0.03 -0.015,0.0517 -0.025,0.065 -0.01,0.0133 -0.0217,0.01 -0.035,-0.01 -0.02,0 -0.0383,-0.0033 -0.055,-0.01 -0.0167,-0.0067 -0.0317,-0.01 -0.045,-0.01 -0.0933,0 -0.1733,0.03 -0.24,0.09 -0.0933,0.06 -0.1933,0.06 -0.3,0 -0.0667,-0.0533 -0.1383,-0.08 -0.215,-0.08 -0.0767,0 -0.1483,0.0267 -0.215,0.08 -0.02,0.0067 -0.0767,0.015 -0.17,0.025 -0.0933,0.01 -0.1883,0.0217 -0.285,0.035 -0.0967,0.0133 -0.1733,0.035 -0.23,0.065 -0.0567,0.03 -0.0583,0.0683 -0.005,0.115 0.0867,0.06 0.1717,0.1 0.255,0.12 0.0833,0.02 0.185,0.0367 0.305,0.05 0.2133,0.0133 0.3683,0.0283 0.465,0.045 0.0967,0.0167 0.1433,0.0383 0.14,0.065 -0.0033,0.0267 -0.0533,0.055 -0.15,0.085 -0.0967,0.03 -0.2283,0.065 -0.395,0.105 0.1067,0.1333 0.2517,0.2167 0.435,0.25 0.1833,0.0333 0.3833,0.0483 0.6,0.045 0.2167,-0.0033 0.435,-0.0167 0.655,-0.04 0.22,-0.0233 0.4167,-0.0283 0.59,-0.015 m 2.07,-0.5 c 0.0267,0.02 0.0583,0.04 0.095,0.06 0.0367,0.02 0.0783,0.03 0.125,0.03 0.04,0 0.08,-0.01 0.12,-0.03 0.04,-0.02 0.07,-0.04 0.09,-0.06 -0.02,0.1 -0.09,0.15 -0.21,0.15 -0.1,0 -0.1733,-0.05 -0.22,-0.15 m -2.13,-1.01 c 0.0667,0 0.1283,-0.015 0.185,-0.045 0.0567,-0.03 0.1017,-0.065 0.135,-0.105 -0.02,0.0667 -0.06,0.1183 -0.12,0.155 -0.06,0.0367 -0.1267,0.055 -0.2,0.055 -0.0667,0 -0.1283,-0.0183 -0.185,-0.055 -0.0567,-0.0367 -0.095,-0.0817 -0.115,-0.135 -0.0333,0.04 -0.0767,0.06 -0.13,0.06 -0.0933,0 -0.15,-0.05 -0.17,-0.15 0.04,0.0733 0.0967,0.11 0.17,0.11 0.0733,0 0.13,-0.0367 0.17,-0.11 0,0.0333 -0.0133,0.0633 -0.04,0.09 0.0333,0.0333 0.0783,0.0633 0.135,0.09 0.0567,0.0267 0.1117,0.04 0.165,0.04 m -0.41,0.86 c 0.08,0.1 0.18,0.15 0.3,0.15 0.1133,0 0.2067,-0.05 0.28,-0.15 -0.0467,0.1467 -0.14,0.22 -0.28,0.22 -0.1533,0 -0.2533,-0.0733 -0.3,-0.22 m -1.12,0.41 c 0.02,0.02 0.0467,0.04 0.08,0.06 0.0333,0.02 0.07,0.03 0.11,0.03 0.0333,0 0.065,-0.01 0.095,-0.03 0.03,-0.02 0.0583,-0.04 0.085,-0.06 -0.0133,0.0333 -0.035,0.0633 -0.065,0.09 -0.03,0.0267 -0.0683,0.04 -0.115,0.04 -0.08,0 -0.1433,-0.0433 -0.19,-0.13"
         id="path14" />
    </g>
    <g
       fill="#ffffff"
       fill-opacity="1"
       stroke="none"
       font-family="'MS Shell Dlg 2'"
       font-size="8.25px"
       font-weight="400"
       font-style="normal"
       id="g18" />
  </g>
</svg>
