<?xml version="1.0" encoding="UTF-8" standalone="no"?>
<svg
   xmlns:dc="http://purl.org/dc/elements/1.1/"
   xmlns:cc="http://creativecommons.org/ns#"
   xmlns:rdf="http://www.w3.org/1999/02/22-rdf-syntax-ns#"
   xmlns:svg="http://www.w3.org/2000/svg"
   xmlns="http://www.w3.org/2000/svg"
   xmlns:sodipodi="http://sodipodi.sourceforge.net/DTD/sodipodi-0.dtd"
   xmlns:inkscape="http://www.inkscape.org/namespaces/inkscape"
   inkscape:version="1.0 (4035a4fb49, 2020-05-01)"
   sodipodi:docname="200k_78.svg"
   id="svg38"
   version="1.2"
   viewBox="0 0 10.962 10.962"
   height="3.8671539mm"
   width="3.8671539mm">
  <metadata
     id="metadata42">
    <rdf:RDF>
      <cc:Work
         rdf:about="">
        <dc:format>image/svg+xml</dc:format>
        <dc:type
           rdf:resource="http://purl.org/dc/dcmitype/StillImage" />
      </cc:Work>
    </rdf:RDF>
  </metadata>
  <sodipodi:namedview
     inkscape:current-layer="svg38"
     inkscape:window-maximized="1"
     inkscape:window-y="-9"
     inkscape:window-x="-9"
     inkscape:cy="4.549815"
     inkscape:cx="6.9742806"
     inkscape:zoom="18.047943"
     showgrid="false"
     id="namedview40"
     inkscape:window-height="1013"
     inkscape:window-width="1920"
     inkscape:pageshadow="2"
     inkscape:pageopacity="0"
     guidetolerance="10"
     gridtolerance="10"
     objecttolerance="10"
     borderopacity="1"
     bordercolor="#666666"
     pagecolor="#ffffff" />
  <title
     id="title2">Qt SVG Document</title>
  <desc
     id="desc4">Generated with Qt</desc>
  <defs
     id="defs6" />
  <g
     transform="translate(-10.44,-11.626)"
     id="g36"
     stroke-linejoin="bevel"
     stroke-linecap="square"
     fill-rule="evenodd"
     stroke-width="1"
     stroke="#000000"
     fill="none">
    <g
       id="g8"
       font-style="normal"
       font-weight="400"
       font-size="8.25px"
       font-family="'MS Shell Dlg 2'"
       stroke="none"
       fill="none" />
    <g
       id="g10"
       font-style="normal"
       font-weight="400"
       font-size="8.25px"
       font-family="'MS Shell Dlg 2'"
       transform="scale(1.33333)"
       stroke="none"
       fill="none" />
    <g
       id="g14"
       font-style="normal"
       font-weight="400"
       font-size="8.25px"
       font-family="'MS Shell Dlg 2'"
       stroke="none"
       fill-opacity="1"
       fill="#b75800">
      <path
         id="path12"
         d="m 21.402,17.114 c 0,0.756 -0.1423,1.4677 -0.427,2.135 -0.2847,0.6673 -0.6767,1.2483 -1.176,1.743 -0.4993,0.4947 -1.0827,0.8843 -1.75,1.169 -0.6673,0.2847 -1.379,0.427 -2.135,0.427 -0.756,0 -1.4677,-0.1423 -2.135,-0.427 -0.6673,-0.2847 -1.2483,-0.6743 -1.743,-1.169 -0.4947,-0.4947 -0.8843,-1.0757 -1.169,-1.743 -0.2847,-0.6673 -0.427,-1.379 -0.427,-2.135 0,-0.756 0.1423,-1.4677 0.427,-2.135 0.2847,-0.6673 0.6743,-1.2507 1.169,-1.75 0.4947,-0.4993 1.0757,-0.8913 1.743,-1.176 0.6673,-0.2847 1.379,-0.427 2.135,-0.427 0.756,0 1.4677,0.1423 2.135,0.427 0.6673,0.2847 1.2507,0.6767 1.75,1.176 0.4993,0.4993 0.8913,1.0827 1.176,1.75 0.2847,0.6673 0.427,1.379 0.427,2.135"
         fill-rule="evenodd"
         vector-effect="none" />
    </g>
    <g
       id="g16"
       font-style="normal"
       font-weight="400"
       font-size="8.25px"
       font-family="'MS Shell Dlg 2'"
       transform="scale(1.33333)"
       stroke="none"
       fill="none" />
    <g
       id="g18"
       font-style="normal"
       font-weight="400"
       font-size="8.25px"
       font-family="'MS Shell Dlg 2'"
       stroke="none"
       fill="none" />
    <g
       id="g20"
       font-style="normal"
       font-weight="400"
       font-size="8.25px"
       font-family="'MS Shell Dlg 2'"
       stroke-linejoin="bevel"
       stroke-linecap="square"
       stroke-width="1"
       stroke-opacity="1"
       stroke="#000000"
       fill="none" />
    <g
       id="g22"
       font-style="normal"
       font-weight="400"
       font-size="8.25px"
       font-family="'MS Shell Dlg 2'"
       stroke="none"
       fill="none" />
    <g
       id="g24"
       font-style="normal"
       font-weight="400"
       font-size="8.25px"
       font-family="'MS Shell Dlg 2'"
       transform="scale(1.33333)"
       stroke="none"
       fill="none" />
    <g
       id="g28"
       font-style="normal"
       font-weight="400"
       font-size="8.25px"
       font-family="'MS Shell Dlg 2'"
       stroke="none"
       fill-opacity="1"
       fill="#ffffff">
      <path
         id="path26"
         d="m 18.026,17.342 c 0,-0.0267 0.0033,-0.0467 0.01,-0.06 0.0067,-0.0133 0.0167,-0.03 0.03,-0.05 0.0867,0.06 0.1767,0.09 0.27,0.09 -0.0467,0.14 -0.1067,0.2767 -0.18,0.41 -0.0733,0.1333 -0.1533,0.26 -0.24,0.38 -0.0933,-0.06 -0.1833,-0.09 -0.27,-0.09 h -0.04 c 0.0733,-0.0867 0.14,-0.1783 0.2,-0.275 0.06,-0.0967 0.1167,-0.2017 0.17,-0.315 -0.0733,-0.0333 -0.1833,-0.08 -0.33,-0.14 -0.1467,-0.06 -0.3467,-0.1467 -0.6,-0.26 -0.1067,0.2333 -0.26,0.41 -0.46,0.53 0.0533,0.12 0.1117,0.2567 0.175,0.41 0.0633,0.1533 0.1417,0.3333 0.235,0.54 0.0267,-0.0133 0.05,-0.0283 0.07,-0.045 0.02,-0.0167 0.0433,-0.0317 0.07,-0.045 -0.0133,0.0467 -0.0167,0.0967 -0.01,0.15 0.0067,0.0533 0.0167,0.1067 0.03,0.16 -0.0067,0.0067 -0.0233,0.0167 -0.05,0.03 0.0933,0.2067 0.1917,0.4333 0.295,0.68 0.1033,0.2467 0.2217,0.52 0.355,0.82 h -0.35 l -0.6,-1.36 c -0.0733,0.0267 -0.1467,0.05 -0.22,0.07 -0.0733,0.02 -0.1467,0.0367 -0.22,0.05 -0.0333,-0.0533 -0.0733,-0.1017 -0.12,-0.145 -0.0467,-0.0433 -0.1033,-0.075 -0.17,-0.095 0.1133,-0.0133 0.2217,-0.0317 0.325,-0.055 0.1033,-0.0233 0.2017,-0.0517 0.295,-0.085 -0.06,-0.1333 -0.1233,-0.2783 -0.19,-0.435 -0.0667,-0.1567 -0.14,-0.325 -0.22,-0.505 -0.12,0.04 -0.25,0.06 -0.39,0.06 -0.1133,0 -0.23,-0.0167 -0.35,-0.05 -0.0533,0.1133 -0.1117,0.2467 -0.175,0.4 -0.0633,0.1533 -0.1383,0.33 -0.225,0.53 0.0933,0.0333 0.19,0.0617 0.29,0.085 0.1,0.0233 0.2033,0.0417 0.31,0.055 -0.12,0.04 -0.2167,0.12 -0.29,0.24 -0.1467,-0.02 -0.29,-0.06 -0.43,-0.12 -0.08,0.1933 -0.17,0.4017 -0.27,0.625 -0.1,0.2233 -0.2067,0.4683 -0.32,0.735 h -0.37 l 0.66,-1.49 c -0.0133,-0.0133 -0.025,-0.0217 -0.035,-0.025 -0.01,-0.0033 -0.0217,-0.0083 -0.035,-0.015 0.0467,-0.1 0.0567,-0.2033 0.03,-0.31 0.02,0.0133 0.0433,0.0283 0.07,0.045 0.0267,0.0167 0.0533,0.0317 0.08,0.045 0.06,-0.1333 0.125,-0.2783 0.195,-0.435 0.07,-0.1567 0.1417,-0.325 0.215,-0.505 -0.2067,-0.1333 -0.3667,-0.3133 -0.48,-0.54 l -0.95,0.37 c 0.0933,0.2533 0.2333,0.46 0.42,0.62 h -0.04 c -0.1133,0 -0.2033,0.03 -0.27,0.09 -0.1,-0.12 -0.185,-0.2467 -0.255,-0.38 -0.07,-0.1333 -0.1317,-0.27 -0.185,-0.41 0.1067,0 0.1967,-0.03 0.27,-0.09 0,0.0133 0,0.0283 0,0.045 0,0.0167 0.0067,0.0317 0.02,0.045 0.0667,-0.0333 0.1717,-0.08 0.315,-0.14 0.1433,-0.06 0.355,-0.1467 0.635,-0.26 -0.02,-0.0733 -0.0367,-0.1433 -0.05,-0.21 -0.0133,-0.0667 -0.02,-0.1367 -0.02,-0.21 0,-0.16 0.03,-0.31 0.09,-0.45 l -0.95,-0.39 c -0.0467,0.1133 -0.0833,0.225 -0.11,0.335 -0.0267,0.11 -0.04,0.225 -0.04,0.345 -0.0667,-0.0267 -0.12,-0.04 -0.16,-0.04 -0.02,0 -0.0417,0 -0.065,0 -0.0233,0 -0.045,0.0067 -0.065,0.02 0.04,-0.4133 0.1567,-0.7833 0.35,-1.11 0.02,0.0867 0.0633,0.17 0.13,0.25 0.0067,0.0067 0.0133,0.01 0.02,0.01 0.0067,0.0067 0.0167,0.01 0.03,0.01 -0.0133,0.0133 -0.025,0.0283 -0.035,0.045 -0.01,0.0167 -0.015,0.0317 -0.015,0.045 0.0733,0.0333 0.1817,0.08 0.325,0.14 0.1433,0.06 0.355,0.1467 0.635,0.26 0.0667,-0.1333 0.1533,-0.2533 0.26,-0.36 0.1067,-0.1067 0.2267,-0.1867 0.36,-0.24 l -0.4,-0.95 c -0.0933,0.0333 -0.1817,0.075 -0.265,0.125 -0.0833,0.05 -0.1583,0.1017 -0.225,0.155 -0.1,-0.0667 -0.2033,-0.11 -0.31,-0.13 0.2,-0.1667 0.4167,-0.3033 0.65,-0.41 0.2333,-0.1067 0.49,-0.1767 0.77,-0.21 -0.0533,0.0467 -0.1,0.0967 -0.14,0.15 -0.04,0.0533 -0.0667,0.1133 -0.08,0.18 -0.06,0.0133 -0.1133,0.0267 -0.16,0.04 -0.0467,0.0133 -0.0967,0.03 -0.15,0.05 0.0333,0.0733 0.0783,0.1833 0.135,0.33 0.0567,0.1467 0.1417,0.3533 0.255,0.62 0.14,-0.04 0.28,-0.06 0.42,-0.06 0.08,0 0.1567,0.0083 0.23,0.025 0.0733,0.0167 0.1467,0.0383 0.22,0.065 l 0.4,-0.96 c -0.1333,-0.04 -0.2533,-0.0767 -0.36,-0.11 -0.02,-0.1267 -0.0867,-0.2367 -0.2,-0.33 0.54,0.0733 1.0067,0.28 1.4,0.62 -0.0533,0.0133 -0.1033,0.03 -0.15,0.05 -0.0467,0.02 -0.0933,0.0467 -0.14,0.08 -0.08,-0.04 -0.155,-0.085 -0.225,-0.135 -0.07,-0.05 -0.1417,-0.0917 -0.215,-0.125 -0.0333,0.0733 -0.0833,0.1833 -0.15,0.33 -0.0667,0.1467 -0.1567,0.3533 -0.27,0.62 0.2667,0.1333 0.4633,0.3333 0.59,0.6 l 0.95,-0.38 c -0.0133,-0.02 -0.02,-0.0417 -0.02,-0.065 0,-0.0233 -0.0067,-0.045 -0.02,-0.065 l 0.01,-0.01 c 0.0067,0 0.0117,-0.0017 0.015,-0.005 0.0033,-0.0033 0.0083,-0.005 0.015,-0.005 0.0733,-0.0733 0.12,-0.1567 0.14,-0.25 0.0867,0.1733 0.16,0.3517 0.22,0.535 0.06,0.1833 0.0967,0.375 0.11,0.575 -0.02,0 -0.0383,-0.0033 -0.055,-0.01 -0.0167,-0.0067 -0.035,-0.01 -0.055,-0.01 -0.0333,0 -0.0633,0.0033 -0.09,0.01 -0.0267,0.0067 -0.0567,0.0167 -0.09,0.03 -0.0133,-0.1133 -0.03,-0.2233 -0.05,-0.33 -0.02,-0.1067 -0.0467,-0.21 -0.08,-0.31 -0.08,0.0333 -0.195,0.0767 -0.345,0.13 -0.15,0.0533 -0.3583,0.1367 -0.625,0.25 0.0533,0.1333 0.08,0.28 0.08,0.44 0,0.1667 -0.0267,0.3067 -0.08,0.42 l 0.95,0.4 m -1.88,-1.24 c 0.0733,0.0467 0.1333,0.1067 0.18,0.18 0.1267,-0.0467 0.3367,-0.13 0.63,-0.25 -0.1133,-0.2533 -0.2967,-0.4367 -0.55,-0.55 l -0.26,0.62 m -0.23,-0.75 c -0.14,0 -0.2633,0.02 -0.37,0.06 l 0.25,0.64 c 0.0533,-0.0133 0.0933,-0.02 0.12,-0.02 0.0533,0 0.1,0.01 0.14,0.03 0.0733,-0.1467 0.1667,-0.3567 0.28,-0.63 -0.0667,-0.02 -0.1333,-0.0383 -0.2,-0.055 -0.0667,-0.0167 -0.14,-0.025 -0.22,-0.025 m -0.46,0.11 c -0.12,0.0467 -0.2317,0.115 -0.335,0.205 -0.1033,0.09 -0.185,0.1983 -0.245,0.325 l 0.64,0.28 c 0.04,-0.0733 0.1033,-0.1333 0.19,-0.18 -0.0333,-0.0733 -0.07,-0.16 -0.11,-0.26 -0.04,-0.1 -0.0867,-0.2233 -0.14,-0.37 m -0.71,1.04 c 0,0.1333 0.0233,0.2667 0.07,0.4 l 0.66,-0.27 c -0.0133,-0.0533 -0.02,-0.0967 -0.02,-0.13 0,-0.0333 0.0067,-0.0833 0.02,-0.15 -0.0733,-0.0333 -0.1617,-0.0717 -0.265,-0.115 -0.1033,-0.0433 -0.2283,-0.095 -0.375,-0.155 -0.02,0.0667 -0.04,0.1333 -0.06,0.2 -0.02,0.0667 -0.03,0.14 -0.03,0.22 m 0.11,0.48 c 0.0933,0.22 0.2367,0.39 0.43,0.51 0.0467,-0.1067 0.095,-0.2167 0.145,-0.33 0.05,-0.1133 0.1017,-0.23 0.155,-0.35 -0.04,-0.04 -0.0667,-0.0733 -0.08,-0.1 -0.0733,0.0333 -0.1633,0.0717 -0.27,0.115 -0.1067,0.0433 -0.2333,0.095 -0.38,0.155 m 1.04,0.69 c 0.12,0 0.2367,-0.02 0.35,-0.06 -0.04,-0.1 -0.0833,-0.2033 -0.13,-0.31 -0.0467,-0.1067 -0.0967,-0.22 -0.15,-0.34 h -0.05 -0.04 l -0.29,0.67 c 0.0533,0.0133 0.105,0.0233 0.155,0.03 0.05,0.0067 0.1017,0.01 0.155,0.01 m 0.65,-0.2 c 0.1933,-0.1267 0.33,-0.29 0.41,-0.49 l -0.63,-0.27 c -0.0133,0.02 -0.025,0.0383 -0.035,0.055 -0.01,0.0167 -0.0217,0.0317 -0.035,0.045 l 0.29,0.66 m 0.44,-0.57 c 0.02,-0.06 0.04,-0.1217 0.06,-0.185 0.02,-0.0633 0.03,-0.1283 0.03,-0.195 0,-0.1333 -0.03,-0.2667 -0.09,-0.4 l -0.62,0.25 c 0.0133,0.0533 0.02,0.0967 0.02,0.13 0,0.0333 -0.0067,0.0767 -0.02,0.13 0.0667,0.0333 0.15,0.07 0.25,0.11 0.1,0.04 0.2233,0.0933 0.37,0.16 m -2.55,-1.58 c -0.0667,0.08 -0.1467,0.12 -0.24,0.12 -0.0933,0 -0.1733,-0.04 -0.24,-0.12 -0.0733,-0.0667 -0.11,-0.1467 -0.11,-0.24 0,-0.0933 0.0367,-0.1733 0.11,-0.24 0.0667,-0.0733 0.1467,-0.11 0.24,-0.11 0.0933,0 0.1733,0.0367 0.24,0.11 0.0667,0.0667 0.1,0.1467 0.1,0.24 0,0.0933 -0.0333,0.1733 -0.1,0.24 m 2.94,0 c -0.0667,-0.0667 -0.1,-0.1467 -0.1,-0.24 0,-0.0933 0.0333,-0.1733 0.1,-0.24 0.08,-0.0733 0.1683,-0.11 0.265,-0.11 0.0967,0 0.1783,0.0367 0.245,0.11 0.0733,0.0667 0.11,0.1467 0.11,0.24 0,0.0933 -0.0367,0.1733 -0.11,0.24 -0.0667,0.08 -0.1483,0.12 -0.245,0.12 -0.0967,0 -0.185,-0.04 -0.265,-0.12 m -3.56,1.49 c 0,0.1 -0.0317,0.1833 -0.095,0.25 -0.0633,0.0667 -0.1417,0.1 -0.235,0.1 -0.1,0 -0.1833,-0.0333 -0.25,-0.1 -0.0667,-0.0667 -0.1,-0.15 -0.1,-0.25 0,-0.1 0.0333,-0.185 0.1,-0.255 0.0667,-0.07 0.15,-0.105 0.25,-0.105 0.0933,0 0.1717,0.0367 0.235,0.11 0.0633,0.0733 0.095,0.1567 0.095,0.25 m 2.1,-2.08 c -0.0933,0 -0.175,-0.035 -0.245,-0.105 -0.07,-0.07 -0.105,-0.155 -0.105,-0.255 0,-0.1 0.035,-0.1833 0.105,-0.25 0.07,-0.0667 0.1517,-0.1 0.245,-0.1 0.0933,0 0.1733,0.0333 0.24,0.1 0.0667,0.0667 0.1,0.15 0.1,0.25 0,0.1 -0.0333,0.185 -0.1,0.255 -0.0667,0.07 -0.1467,0.105 -0.24,0.105 m 1.46,3.56 c 0.08,-0.0667 0.1683,-0.1 0.265,-0.1 0.0967,0 0.1783,0.0333 0.245,0.1 0.0733,0.0667 0.11,0.1467 0.11,0.24 0,0.0933 -0.0367,0.1767 -0.11,0.25 -0.0667,0.0667 -0.1483,0.1 -0.245,0.1 -0.0967,0 -0.185,-0.0333 -0.265,-0.1 -0.0667,-0.0733 -0.1,-0.1567 -0.1,-0.25 0,-0.0933 0.0333,-0.1733 0.1,-0.24 m -2.94,0.49 c -0.0667,0.0667 -0.1467,0.1 -0.24,0.1 -0.0933,0 -0.1733,-0.0333 -0.24,-0.1 -0.0733,-0.0733 -0.11,-0.1567 -0.11,-0.25 0,-0.0933 0.0367,-0.1733 0.11,-0.24 0.0667,-0.0667 0.1467,-0.1 0.24,-0.1 0.0933,0 0.1733,0.0333 0.24,0.1 0.0667,0.0667 0.1,0.1467 0.1,0.24 0,0.0933 -0.0333,0.1767 -0.1,0.25 m 3.92,-2.33 c 0.1,0 0.1833,0.035 0.25,0.105 0.0667,0.07 0.1,0.155 0.1,0.255 0,0.1 -0.0333,0.1833 -0.1,0.25 -0.0667,0.0667 -0.15,0.1 -0.25,0.1 -0.1,0 -0.185,-0.0333 -0.255,-0.1 -0.07,-0.0667 -0.105,-0.15 -0.105,-0.25 0,-0.1 0.035,-0.185 0.105,-0.255 0.07,-0.07 0.155,-0.105 0.255,-0.105 m -2.44,2.46 c 0.0933,0 0.1733,0.0317 0.24,0.095 0.0667,0.0633 0.1,0.1417 0.1,0.235 0,0.1 -0.0333,0.1833 -0.1,0.25 -0.0667,0.0667 -0.1467,0.1 -0.24,0.1 -0.0933,0 -0.175,-0.0333 -0.245,-0.1 -0.07,-0.0667 -0.105,-0.15 -0.105,-0.25 0,-0.0933 0.035,-0.1717 0.105,-0.235 0.07,-0.0633 0.1517,-0.095 0.245,-0.095"
         fill-rule="evenodd"
         vector-effect="none" />
    </g>
    <g
       id="g30"
       font-style="normal"
       font-weight="400"
       font-size="8.25px"
       font-family="'MS Shell Dlg 2'"
       transform="scale(1.33333)"
       stroke="none"
       fill="none" />
    <g
       id="g32"
       font-style="normal"
       font-weight="400"
       font-size="8.25px"
       font-family="'MS Shell Dlg 2'"
       stroke="none"
       fill="none" />
    <g
       id="g34"
       font-style="normal"
       font-weight="400"
       font-size="8.25px"
       font-family="'MS Shell Dlg 2'"
       stroke-linejoin="bevel"
       stroke-linecap="square"
       stroke-width="1"
       stroke-opacity="1"
       stroke="#000000"
       fill="none" />
  </g>
</svg>
