<?xml version="1.0" encoding="UTF-8" standalone="no"?>
<svg
   xmlns:dc="http://purl.org/dc/elements/1.1/"
   xmlns:cc="http://creativecommons.org/ns#"
   xmlns:rdf="http://www.w3.org/1999/02/22-rdf-syntax-ns#"
   xmlns:svg="http://www.w3.org/2000/svg"
   xmlns="http://www.w3.org/2000/svg"
   xmlns:sodipodi="http://sodipodi.sourceforge.net/DTD/sodipodi-0.dtd"
   xmlns:inkscape="http://www.inkscape.org/namespaces/inkscape"
   width="3.8671539mm"
   height="3.8671539mm"
   viewBox="0 0 10.962 10.962"
   version="1.2"
   id="svg38"
   sodipodi:docname="200k_2.svg"
   inkscape:version="1.0 (4035a4fb49, 2020-05-01)">
  <metadata
     id="metadata42">
    <rdf:RDF>
      <cc:Work
         rdf:about="">
        <dc:format>image/svg+xml</dc:format>
        <dc:type
           rdf:resource="http://purl.org/dc/dcmitype/StillImage" />
      </cc:Work>
    </rdf:RDF>
  </metadata>
  <sodipodi:namedview
     inkscape:document-rotation="0"
     pagecolor="#ffffff"
     bordercolor="#666666"
     borderopacity="1"
     objecttolerance="10"
     gridtolerance="10"
     guidetolerance="10"
     inkscape:pageopacity="0"
     inkscape:pageshadow="2"
     inkscape:window-width="1920"
     inkscape:window-height="1013"
     id="namedview40"
     showgrid="false"
     inkscape:zoom="12.239135"
     inkscape:cx="8.6139589"
     inkscape:cy="6.6049302"
     inkscape:window-x="-9"
     inkscape:window-y="-9"
     inkscape:window-maximized="1"
     inkscape:current-layer="svg38" />
  <title
     id="title2">Qt SVG Document</title>
  <desc
     id="desc4">Generated with Qt</desc>
  <defs
     id="defs6" />
  <g
     fill="none"
     stroke="#000000"
     stroke-width="1"
     fill-rule="evenodd"
     stroke-linecap="square"
     stroke-linejoin="bevel"
     id="g36"
     transform="translate(-10.44,-11.626)">
    <g
       fill="none"
       stroke="none"
       font-family="'MS Shell Dlg 2'"
       font-size="8.25px"
       font-weight="400"
       font-style="normal"
       id="g8" />
    <g
       fill="none"
       stroke="none"
       transform="scale(1.33333)"
       font-family="'MS Shell Dlg 2'"
       font-size="8.25px"
       font-weight="400"
       font-style="normal"
       id="g10" />
    <g
       fill="#b75800"
       fill-opacity="1"
       stroke="none"
       font-family="'MS Shell Dlg 2'"
       font-size="8.25px"
       font-weight="400"
       font-style="normal"
       id="g14">
      <path
         vector-effect="none"
         fill-rule="evenodd"
         d="m 21.402,17.114 c 0,0.756 -0.1423,1.4677 -0.427,2.135 -0.2847,0.6673 -0.6767,1.2483 -1.176,1.743 -0.4993,0.4947 -1.0827,0.8843 -1.75,1.169 -0.6673,0.2847 -1.379,0.427 -2.135,0.427 -0.756,0 -1.4677,-0.1423 -2.135,-0.427 -0.6673,-0.2847 -1.2483,-0.6743 -1.743,-1.169 -0.4947,-0.4947 -0.8843,-1.0757 -1.169,-1.743 -0.2847,-0.6673 -0.427,-1.379 -0.427,-2.135 0,-0.756 0.1423,-1.4677 0.427,-2.135 0.2847,-0.6673 0.6743,-1.2507 1.169,-1.75 0.4947,-0.4993 1.0757,-0.8913 1.743,-1.176 0.6673,-0.2847 1.379,-0.427 2.135,-0.427 0.756,0 1.4677,0.1423 2.135,0.427 0.6673,0.2847 1.2507,0.6767 1.75,1.176 0.4993,0.4993 0.8913,1.0827 1.176,1.75 0.2847,0.6673 0.427,1.379 0.427,2.135"
         id="path12" />
    </g>
    <g
       fill="none"
       stroke="none"
       transform="scale(1.33333)"
       font-family="'MS Shell Dlg 2'"
       font-size="8.25px"
       font-weight="400"
       font-style="normal"
       id="g16" />
    <g
       fill="none"
       stroke="none"
       font-family="'MS Shell Dlg 2'"
       font-size="8.25px"
       font-weight="400"
       font-style="normal"
       id="g18" />
    <g
       fill="none"
       stroke="#000000"
       stroke-opacity="1"
       stroke-width="1"
       stroke-linecap="square"
       stroke-linejoin="bevel"
       font-family="'MS Shell Dlg 2'"
       font-size="8.25px"
       font-weight="400"
       font-style="normal"
       id="g20" />
    <g
       fill="none"
       stroke="none"
       font-family="'MS Shell Dlg 2'"
       font-size="8.25px"
       font-weight="400"
       font-style="normal"
       id="g22" />
    <g
       fill="none"
       stroke="none"
       transform="scale(1.33333)"
       font-family="'MS Shell Dlg 2'"
       font-size="8.25px"
       font-weight="400"
       font-style="normal"
       id="g24" />
    <g
       fill="#ffffff"
       fill-opacity="1"
       stroke="none"
       font-family="'MS Shell Dlg 2'"
       font-size="8.25px"
       font-weight="400"
       font-style="normal"
       id="g28">
      <path
         vector-effect="none"
         fill-rule="evenodd"
         d="m 18.446,14.622 c 0.0533,-0.0067 0.0967,0 0.13,0.02 0.0333,0.02 0.0633,0.0433 0.09,0.07 0.0267,0.0267 0.05,0.06 0.07,0.1 v 4.86 c -0.44,0 -0.8117,-0.0433 -1.115,-0.13 -0.3033,-0.0867 -0.555,-0.1867 -0.755,-0.3 -0.2333,-0.12 -0.4267,-0.2633 -0.58,-0.43 -0.0267,-0.04 -0.03,-0.0717 -0.01,-0.095 0.02,-0.0233 0.0483,-0.0433 0.085,-0.06 0.0367,-0.0167 0.0767,-0.03 0.12,-0.04 0.0433,-0.01 0.0783,-0.025 0.105,-0.045 0.0733,-0.0333 0.1233,-0.065 0.15,-0.095 0.0267,-0.03 0.0417,-0.0617 0.045,-0.095 0.0033,-0.0333 0,-0.0767 -0.01,-0.13 -0.01,-0.0533 -0.015,-0.12 -0.015,-0.2 0,-0.18 -0.02,-0.3367 -0.06,-0.47 -0.04,-0.1333 -0.08,-0.2467 -0.12,-0.34 -0.04,-0.0933 -0.0717,-0.1683 -0.095,-0.225 -0.0233,-0.0567 -0.015,-0.095 0.025,-0.115 0.2133,-0.1267 0.3467,-0.2617 0.4,-0.405 0.0533,-0.1433 0.0733,-0.28 0.06,-0.41 -0.0133,-0.13 -0.0317,-0.2433 -0.055,-0.34 -0.0233,-0.0967 -0.005,-0.155 0.055,-0.175 0.0933,-0.0133 0.1517,-0.04 0.175,-0.08 0.0233,-0.04 0.0367,-0.08 0.04,-0.12 0.0033,-0.04 0.0083,-0.0783 0.015,-0.115 0.0067,-0.0367 0.0433,-0.0583 0.11,-0.065 0.0867,-0.0067 0.1317,-0.0183 0.135,-0.035 0.0033,-0.0167 -0.0083,-0.0417 -0.035,-0.075 -0.0267,-0.0333 -0.0533,-0.075 -0.08,-0.125 -0.0267,-0.05 -0.0267,-0.1117 0,-0.185 0.06,-0.02 0.14,-0.04 0.24,-0.06 0.0867,-0.0133 0.2017,-0.0283 0.345,-0.045 0.1433,-0.0167 0.3217,-0.0317 0.535,-0.045 m -3.32,4.48 c 0.0333,0.0333 0.0667,0.0717 0.1,0.115 0.0333,0.0433 0.0433,0.0817 0.03,0.115 0,0.0067 -0.005,0.0283 -0.015,0.065 -0.01,0.0367 -0.06,0.075 -0.15,0.115 -0.09,0.04 -0.235,0.0767 -0.435,0.11 -0.2,0.0333 -0.4933,0.05 -0.88,0.05 h -0.19 -0.48 v -5.05 c 0.0133,-0.0133 0.0283,-0.03 0.045,-0.05 0.0167,-0.02 0.035,-0.03 0.055,-0.03 0.2067,0 0.3617,0.0117 0.465,0.035 0.1033,0.0233 0.185,0.0483 0.245,0.075 0.06,0.0267 0.1117,0.045 0.155,0.055 0.0433,0.01 0.1083,-0.0017 0.195,-0.035 0.0133,0.04 0.045,0.0967 0.095,0.17 0.05,0.0733 0.075,0.1267 0.075,0.16 0,0.0467 0.025,0.0817 0.075,0.105 0.05,0.0233 0.105,0.045 0.165,0.065 0.06,0.02 0.11,0.0433 0.15,0.07 0.04,0.0267 0.05,0.0667 0.03,0.12 -0.02,0.06 -0.0483,0.1083 -0.085,0.145 -0.0367,0.0367 -0.07,0.07 -0.1,0.1 -0.03,0.03 -0.055,0.065 -0.075,0.105 -0.02,0.04 -0.0267,0.0933 -0.02,0.16 0,0.0467 0.0283,0.1167 0.085,0.21 0.0567,0.0933 0.1133,0.1933 0.17,0.3 0.0567,0.1067 0.1,0.2117 0.13,0.315 0.03,0.1033 0.015,0.1883 -0.045,0.255 -0.02,0.16 -0.0133,0.2783 0.02,0.355 0.0333,0.0767 0.075,0.1383 0.125,0.185 0.05,0.0467 0.0967,0.0917 0.14,0.135 0.0433,0.0433 0.0617,0.1117 0.055,0.205 -0.0067,0.0933 -0.025,0.16 -0.055,0.2 -0.03,0.04 -0.0633,0.0883 -0.1,0.145 -0.0367,0.0567 -0.07,0.135 -0.1,0.235 -0.03,0.1 -0.045,0.26 -0.045,0.48 0,0.02 0.0233,0.055 0.07,0.105 0.0467,0.05 0.08,0.085 0.1,0.105 m 0.81,-0.44 c 0.0267,0.0333 0.0133,0.0533 -0.04,0.06 -0.0533,0.0067 -0.0983,0.0217 -0.135,0.045 -0.0367,0.0233 -0.0383,0.0683 -0.005,0.135 0.0333,0.0667 0.1467,0.17 0.34,0.31 0.06,0.0467 0.1417,0.095 0.245,0.145 0.1033,0.05 0.205,0.0983 0.305,0.145 0.12,0.0533 0.2467,0.11 0.38,0.17 h -1.58 c 0.1333,-0.1333 0.1967,-0.24 0.19,-0.32 -0.0067,-0.08 -0.0433,-0.1567 -0.11,-0.23 -0.0733,-0.0733 -0.1017,-0.1583 -0.085,-0.255 0.0167,-0.0967 0.1083,-0.165 0.275,-0.205 0.0333,-0.0067 0.0517,-0.015 0.055,-0.025 0.0033,-0.01 0.005,-0.02 0.005,-0.03 0,-0.01 0.0017,-0.02 0.005,-0.03 0.0033,-0.01 0.0183,-0.0183 0.045,-0.025 0.0733,-0.0333 0.1833,-0.0583 0.33,-0.075 0.1467,-0.0167 0.2767,-0.025 0.39,-0.025 -0.1333,0.0133 -0.2467,0.0333 -0.34,0.06 -0.08,0.02 -0.1517,0.0433 -0.215,0.07 -0.0633,0.0267 -0.0817,0.0533 -0.055,0.08"
         id="path26" />
    </g>
    <g
       fill="none"
       stroke="none"
       transform="scale(1.33333)"
       font-family="'MS Shell Dlg 2'"
       font-size="8.25px"
       font-weight="400"
       font-style="normal"
       id="g30" />
    <g
       fill="none"
       stroke="none"
       font-family="'MS Shell Dlg 2'"
       font-size="8.25px"
       font-weight="400"
       font-style="normal"
       id="g32" />
    <g
       fill="none"
       stroke="#000000"
       stroke-opacity="1"
       stroke-width="1"
       stroke-linecap="square"
       stroke-linejoin="bevel"
       font-family="'MS Shell Dlg 2'"
       font-size="8.25px"
       font-weight="400"
       font-style="normal"
       id="g34" />
  </g>
</svg>
