<?xml version="1.0" encoding="UTF-8" standalone="no"?>
<svg width="11.2889mm" height="11.2889mm"
 viewBox="0 0 32 32"
 xmlns="http://www.w3.org/2000/svg" xmlns:xlink="http://www.w3.org/1999/xlink"  version="1.2" baseProfile="tiny">
<title>Qt SVG Document</title>
<desc>Generated with Qt</desc>
<defs>
</defs>
<g fill="none" stroke="black" stroke-width="1" fill-rule="evenodd" stroke-linecap="square" stroke-linejoin="bevel" >

<g fill="none" stroke="none" transform="matrix(1,0,0,1,0,0)"
font-family="MS Shell Dlg 2" font-size="8.25" font-weight="400" font-style="normal" 
>
</g>

<g fill="none" stroke="none" transform="matrix(1.33333,0,0,1.33333,0,0)"
font-family="MS Shell Dlg 2" font-size="8.25" font-weight="400" font-style="normal" 
>
</g>

<g fill="#a61215" fill-opacity="1" stroke="none" transform="matrix(1,0,0,1,0,0)"
font-family="MS Shell Dlg 2" font-size="8.25" font-weight="400" font-style="normal" 
>
<path vector-effect="none" fill-rule="evenodd" d="M21.402,17.114 C21.402,17.87 21.2597,18.5817 20.975,19.249 C20.6903,19.9163 20.2983,20.4973 19.799,20.992 C19.2997,21.4867 18.7163,21.8763 18.049,22.161 C17.3817,22.4457 16.67,22.588 15.914,22.588 C15.158,22.588 14.4463,22.4457 13.779,22.161 C13.1117,21.8763 12.5307,21.4867 12.036,20.992 C11.5413,20.4973 11.1517,19.9163 10.867,19.249 C10.5823,18.5817 10.44,17.87 10.44,17.114 C10.44,16.358 10.5823,15.6463 10.867,14.979 C11.1517,14.3117 11.5413,13.7283 12.036,13.229 C12.5307,12.7297 13.1117,12.3377 13.779,12.053 C14.4463,11.7683 15.158,11.626 15.914,11.626 C16.67,11.626 17.3817,11.7683 18.049,12.053 C18.7163,12.3377 19.2997,12.7297 19.799,13.229 C20.2983,13.7283 20.6903,14.3117 20.975,14.979 C21.2597,15.6463 21.402,16.358 21.402,17.114 "/>
</g>

<g fill="none" stroke="none" transform="matrix(1.33333,0,0,1.33333,0,0)"
font-family="MS Shell Dlg 2" font-size="8.25" font-weight="400" font-style="normal" 
>
</g>

<g fill="none" stroke="none" transform="matrix(1,0,0,1,0,0)"
font-family="MS Shell Dlg 2" font-size="8.25" font-weight="400" font-style="normal" 
>
</g>

<g fill="none" stroke="#000000" stroke-opacity="1" stroke-width="1" stroke-linecap="square" stroke-linejoin="bevel" transform="matrix(1,0,0,1,0,0)"
font-family="MS Shell Dlg 2" font-size="8.25" font-weight="400" font-style="normal" 
>
</g>

<g fill="none" stroke="none" transform="matrix(1,0,0,1,0,0)"
font-family="MS Shell Dlg 2" font-size="8.25" font-weight="400" font-style="normal" 
>
</g>

<g fill="none" stroke="none" transform="matrix(1.33333,0,0,1.33333,0,0)"
font-family="MS Shell Dlg 2" font-size="8.25" font-weight="400" font-style="normal" 
>
</g>

<g fill="#ffffff" fill-opacity="1" stroke="none" transform="matrix(1,0,0,1,0,0)"
font-family="MS Shell Dlg 2" font-size="8.25" font-weight="400" font-style="normal" 
>
<path vector-effect="none" fill-rule="evenodd" d="M18.77,19.36 L16.53,19.36 C16.53,19.0667 16.5033,18.84 16.45,18.68 C16.3967,18.52 16.3383,18.4017 16.275,18.325 C16.2117,18.2483 16.15,18.2033 16.09,18.19 C16.03,18.1767 15.9933,18.17 15.98,18.17 C15.96,18.17 15.92,18.1783 15.86,18.195 C15.8,18.2117 15.74,18.26 15.68,18.34 C15.62,18.42 15.565,18.54 15.515,18.7 C15.465,18.86 15.44,19.08 15.44,19.36 L13.22,19.36 L13.3,14.53 L13.5,14.53 L13.5,14.71 L13.64,14.71 L13.64,14.53 L13.86,14.53 L13.86,14.71 L14.07,14.71 L14.07,14.53 L14.27,14.53 L14.27,14.71 L14.45,14.71 L14.45,14.53 L14.67,14.53 L14.67,14.71 L14.87,14.71 L14.87,14.53 L15.02,14.53 L15.02,16.55 L15.18,16.55 L15.18,16.75 L15.38,16.75 L15.38,16.55 L15.56,16.55 L15.56,16.75 L15.74,16.75 L15.74,16.55 L15.98,16.55 L15.98,16.75 L16.19,16.75 L16.19,16.55 L16.37,16.55 L16.37,16.75 L16.55,16.75 L16.55,16.55 L16.75,16.55 L16.75,16.75 L16.93,16.75 L16.93,15.7 L17.09,15.7 L17.09,15.87 L17.28,15.87 L17.28,15.7 L17.52,15.7 L17.52,15.87 L17.7,15.87 L17.7,15.7 L17.9,15.7 L17.9,15.87 L18.08,15.87 L18.08,15.7 L18.31,15.7 L18.31,15.87 L18.51,15.87 L18.51,15.7 L18.71,15.7 L18.77,19.36 M14.41,16.05 C14.41,16.0167 14.41,15.96 14.41,15.88 C14.41,15.8 14.4017,15.7183 14.385,15.635 C14.3683,15.5517 14.3417,15.4783 14.305,15.415 C14.2683,15.3517 14.2167,15.32 14.15,15.32 C14.07,15.32 14.0117,15.3517 13.975,15.415 C13.9383,15.4783 13.9133,15.5517 13.9,15.635 C13.8867,15.7183 13.88,15.8 13.88,15.88 C13.88,15.96 13.88,16.0167 13.88,16.05 L14.41,16.05"/>
</g>

<g fill="none" stroke="none" transform="matrix(1.33333,0,0,1.33333,0,0)"
font-family="MS Shell Dlg 2" font-size="8.25" font-weight="400" font-style="normal" 
>
</g>

<g fill="none" stroke="none" transform="matrix(1,0,0,1,0,0)"
font-family="MS Shell Dlg 2" font-size="8.25" font-weight="400" font-style="normal" 
>
</g>

<g fill="none" stroke="#000000" stroke-opacity="1" stroke-width="1" stroke-linecap="square" stroke-linejoin="bevel" transform="matrix(1,0,0,1,0,0)"
font-family="MS Shell Dlg 2" font-size="8.25" font-weight="400" font-style="normal" 
>
</g>
</g>
</svg>
