<?xml version="1.0" encoding="UTF-8" standalone="no"?>
<svg
   xmlns:dc="http://purl.org/dc/elements/1.1/"
   xmlns:cc="http://creativecommons.org/ns#"
   xmlns:rdf="http://www.w3.org/1999/02/22-rdf-syntax-ns#"
   xmlns:svg="http://www.w3.org/2000/svg"
   xmlns="http://www.w3.org/2000/svg"
   xmlns:sodipodi="http://sodipodi.sourceforge.net/DTD/sodipodi-0.dtd"
   xmlns:inkscape="http://www.inkscape.org/namespaces/inkscape"
   inkscape:version="1.0 (4035a4fb49, 2020-05-01)"
   sodipodi:docname="200k_16.svg"
   id="svg38"
   version="1.2"
   viewBox="0 0 10.962 10.962"
   height="3.8671539mm"
   width="3.8671539mm">
  <metadata
     id="metadata42">
    <rdf:RDF>
      <cc:Work
         rdf:about="">
        <dc:format>image/svg+xml</dc:format>
        <dc:type
           rdf:resource="http://purl.org/dc/dcmitype/StillImage" />
      </cc:Work>
    </rdf:RDF>
  </metadata>
  <sodipodi:namedview
     inkscape:current-layer="svg38"
     inkscape:window-maximized="1"
     inkscape:window-y="-9"
     inkscape:window-x="-9"
     inkscape:cy="5.832006"
     inkscape:cx="7.4133409"
     inkscape:zoom="18.047943"
     showgrid="false"
     id="namedview40"
     inkscape:window-height="1013"
     inkscape:window-width="1920"
     inkscape:pageshadow="2"
     inkscape:pageopacity="0"
     guidetolerance="10"
     gridtolerance="10"
     objecttolerance="10"
     borderopacity="1"
     bordercolor="#666666"
     pagecolor="#ffffff" />
  <title
     id="title2">Qt SVG Document</title>
  <desc
     id="desc4">Generated with Qt</desc>
  <defs
     id="defs6" />
  <g
     transform="translate(-10.44,-11.626)"
     id="g36"
     stroke-linejoin="bevel"
     stroke-linecap="square"
     fill-rule="evenodd"
     stroke-width="1"
     stroke="#000000"
     fill="none">
    <g
       id="g8"
       font-style="normal"
       font-weight="400"
       font-size="8.25px"
       font-family="'MS Shell Dlg 2'"
       stroke="none"
       fill="none" />
    <g
       id="g10"
       font-style="normal"
       font-weight="400"
       font-size="8.25px"
       font-family="'MS Shell Dlg 2'"
       transform="scale(1.33333)"
       stroke="none"
       fill="none" />
    <g
       id="g14"
       font-style="normal"
       font-weight="400"
       font-size="8.25px"
       font-family="'MS Shell Dlg 2'"
       stroke="none"
       fill-opacity="1"
       fill="#b75800">
      <path
         id="path12"
         d="m 21.402,17.114 c 0,0.756 -0.1423,1.4677 -0.427,2.135 -0.2847,0.6673 -0.6767,1.2483 -1.176,1.743 -0.4993,0.4947 -1.0827,0.8843 -1.75,1.169 -0.6673,0.2847 -1.379,0.427 -2.135,0.427 -0.756,0 -1.4677,-0.1423 -2.135,-0.427 -0.6673,-0.2847 -1.2483,-0.6743 -1.743,-1.169 -0.4947,-0.4947 -0.8843,-1.0757 -1.169,-1.743 -0.2847,-0.6673 -0.427,-1.379 -0.427,-2.135 0,-0.756 0.1423,-1.4677 0.427,-2.135 0.2847,-0.6673 0.6743,-1.2507 1.169,-1.75 0.4947,-0.4993 1.0757,-0.8913 1.743,-1.176 0.6673,-0.2847 1.379,-0.427 2.135,-0.427 0.756,0 1.4677,0.1423 2.135,0.427 0.6673,0.2847 1.2507,0.6767 1.75,1.176 0.4993,0.4993 0.8913,1.0827 1.176,1.75 0.2847,0.6673 0.427,1.379 0.427,2.135"
         fill-rule="evenodd"
         vector-effect="none" />
    </g>
    <g
       id="g16"
       font-style="normal"
       font-weight="400"
       font-size="8.25px"
       font-family="'MS Shell Dlg 2'"
       transform="scale(1.33333)"
       stroke="none"
       fill="none" />
    <g
       id="g18"
       font-style="normal"
       font-weight="400"
       font-size="8.25px"
       font-family="'MS Shell Dlg 2'"
       stroke="none"
       fill="none" />
    <g
       id="g20"
       font-style="normal"
       font-weight="400"
       font-size="8.25px"
       font-family="'MS Shell Dlg 2'"
       stroke-linejoin="bevel"
       stroke-linecap="square"
       stroke-width="1"
       stroke-opacity="1"
       stroke="#000000"
       fill="none" />
    <g
       id="g22"
       font-style="normal"
       font-weight="400"
       font-size="8.25px"
       font-family="'MS Shell Dlg 2'"
       stroke="none"
       fill="none" />
    <g
       id="g24"
       font-style="normal"
       font-weight="400"
       font-size="8.25px"
       font-family="'MS Shell Dlg 2'"
       transform="scale(1.33333)"
       stroke="none"
       fill="none" />
    <g
       id="g28"
       font-style="normal"
       font-weight="400"
       font-size="8.25px"
       font-family="'MS Shell Dlg 2'"
       stroke="none"
       fill-opacity="1"
       fill="#ffffff">
      <path
         id="path26"
         d="m 18.392362,15.019451 c 0.0333,0.0133 0.08,0.0583 0.14,0.135 0.06,0.0767 0.12,0.165 0.18,0.265 0.06,0.1 0.1117,0.2017 0.155,0.305 0.0433,0.1033 0.0617,0.185 0.055,0.245 -0.0067,0.0333 -0.0217,0.0817 -0.045,0.145 -0.0233,0.0633 -0.05,0.135 -0.08,0.215 -0.03,0.08 -0.06,0.1617 -0.09,0.245 -0.03,0.0833 -0.0483,0.1583 -0.055,0.225 -0.0733,0.04 -0.1383,0.0917 -0.195,0.155 -0.0567,0.0633 -0.11,0.1283 -0.16,0.195 -0.05,0.0667 -0.0983,0.1333 -0.145,0.2 -0.0467,0.0667 -0.1,0.13 -0.16,0.19 -0.0933,0.0933 -0.1983,0.1683 -0.315,0.225 -0.1167,0.0567 -0.225,0.1317 -0.325,0.225 0.12,-0.0533 0.235,-0.1133 0.345,-0.18 0.11,-0.0667 0.2217,-0.1267 0.335,-0.18 0.0667,-0.12 0.1333,-0.2367 0.2,-0.35 0.0667,-0.1133 0.1633,-0.2033 0.29,-0.27 -0.1,0.1733 -0.17,0.325 -0.21,0.455 -0.04,0.13 -0.0683,0.2433 -0.085,0.34 -0.0167,0.0967 -0.0267,0.1767 -0.03,0.24 -0.0033,0.0633 -0.015,0.115 -0.035,0.155 -0.08,0.1533 -0.2017,0.2733 -0.365,0.36 -0.1633,0.0867 -0.3417,0.1567 -0.535,0.21 -0.1933,0.0533 -0.3883,0.1033 -0.585,0.15 -0.1967,0.0467 -0.3717,0.11 -0.525,0.19 -0.0933,0.04 -0.1817,0.085 -0.265,0.135 -0.0833,0.05 -0.1733,0.0933 -0.27,0.13 -0.0967,0.0367 -0.1983,0.06 -0.305,0.07 -0.1067,0.01 -0.23,-0.0017 -0.37,-0.035 -0.0067,-0.0133 0,-0.0333 0.02,-0.06 0.02,-0.0267 0.0417,-0.055 0.065,-0.085 0.0233,-0.03 0.05,-0.0617 0.08,-0.095 0.03,-0.0333 0.0517,-0.06 0.065,-0.08 0.1133,-0.0533 0.2283,-0.105 0.345,-0.155 0.1167,-0.05 0.2217,-0.1117 0.315,-0.185 -0.0867,0.0333 -0.1733,0.07 -0.26,0.11 -0.0867,0.04 -0.1767,0.0833 -0.27,0.13 -0.1067,0.04 -0.1983,0.0933 -0.275,0.16 -0.0767,0.0667 -0.1617,0.1333 -0.255,0.2 -0.0533,0.0333 -0.12,0.065 -0.2,0.095 -0.08,0.03 -0.1567,0.0617 -0.23,0.095 -0.0533,0.02 -0.1017,0.045 -0.145,0.075 -0.0433,0.03 -0.0883,0.0567 -0.135,0.08 -0.0467,0.0233 -0.095,0.0433 -0.145,0.06 -0.05,0.0167 -0.105,0.0217 -0.165,0.015 -0.0533,-0.0133 -0.1033,-0.035 -0.15,-0.065 -0.0467,-0.03 -0.0967,-0.0517 -0.15,-0.065 -0.0467,-0.0733 -0.0767,-0.155 -0.09,-0.245 -0.0133,-0.09 -0.02,-0.1817 -0.02,-0.275 0,-0.0933 0,-0.185 0,-0.275 0,-0.09 -0.0133,-0.1717 -0.04,-0.245 -0.02,-0.0533 -0.0533,-0.0983 -0.1,-0.135 -0.0467,-0.0367 -0.0767,-0.075 -0.09,-0.115 -0.0333,-0.0867 -0.0217,-0.1783 0.035,-0.275 0.0567,-0.0967 0.115,-0.1617 0.175,-0.195 0.1,0.0667 0.1867,0.1417 0.26,0.225 0.0733,0.0833 0.1667,0.1517 0.28,0.205 -0.0533,-0.0467 -0.0983,-0.1033 -0.135,-0.17 -0.0367,-0.0667 -0.0783,-0.13 -0.125,-0.19 -0.0333,-0.0467 -0.0733,-0.08 -0.12,-0.1 -0.0467,-0.02 -0.09,-0.05 -0.13,-0.09 -0.0667,-0.0533 -0.1183,-0.115 -0.155,-0.185 -0.0367,-0.07 -0.0917,-0.1217 -0.165,-0.155 -0.0467,-0.1333 -0.0817,-0.2717 -0.105,-0.415 -0.0233,-0.1433 -0.0017,-0.2617 0.065,-0.355 0.06,-0.0867 0.1117,-0.13 0.155,-0.13 0.0433,0 0.075,-0.0133 0.095,-0.04 0.0333,-0.04 0.045,-0.0633 0.035,-0.07 -0.01,-0.0067 -0.0183,-0.0167 -0.025,-0.03 -0.0067,-0.0133 -0.0017,-0.0383 0.015,-0.075 0.0167,-0.0367 0.0717,-0.105 0.165,-0.205 0.1133,-0.1267 0.2217,-0.23 0.325,-0.31 0.1033,-0.08 0.185,-0.1467 0.245,-0.2 0.14,-0.1067 0.2883,-0.2083 0.445,-0.305 0.1567,-0.0967 0.3217,-0.1917 0.495,-0.285 0.06,-0.04 0.1167,-0.075 0.17,-0.105 0.0533,-0.03 0.1083,-0.055 0.165,-0.075 0.0567,-0.02 0.12,-0.0333 0.19,-0.04 0.07,-0.0067 0.155,-0.0033 0.255,0.01 0.0133,0.0333 0.0033,0.065 -0.03,0.095 -0.0333,0.03 -0.0733,0.0617 -0.12,0.095 -0.1133,0.0933 -0.2483,0.1783 -0.405,0.255 -0.1567,0.0767 -0.305,0.145 -0.445,0.205 0.1867,-0.04 0.3567,-0.1067 0.51,-0.2 0.1533,-0.0933 0.3167,-0.1867 0.49,-0.28 0.16,-0.1 0.3083,-0.19 0.445,-0.27 0.1367,-0.08 0.285,-0.1533 0.445,-0.22 0.1267,-0.0333 0.235,-0.0367 0.325,-0.01 0.09,0.0267 0.1717,0.065 0.245,0.115 0.0733,0.05 0.1417,0.1033 0.205,0.16 0.0633,0.0567 0.1317,0.1017 0.205,0.135 0.0933,0.0467 0.17,0.0733 0.23,0.08 0.06,0.0067 0.1233,0.01 0.19,0.01 0.0533,0 0.1167,0.005 0.19,0.015 0.0733,0.01 0.1367,0.025 0.19,0.045 m -1.06,0.3 c -0.0333,0.0933 -0.0367,0.1583 -0.01,0.195 0.0267,0.0367 0.0533,0.055 0.08,0.055 0.02,0 0.0483,-0.01 0.085,-0.03 0.0367,-0.02 0.0783,-0.0733 0.125,-0.16 0.02,-0.04 0.0333,-0.0833 0.04,-0.13 0.0067,-0.0467 0.0133,-0.0867 0.02,-0.12 v -0.13 c -0.0467,0.0267 -0.0933,0.0567 -0.14,0.09 -0.04,0.0333 -0.08,0.0683 -0.12,0.105 -0.04,0.0367 -0.0667,0.0783 -0.08,0.125 m -0.23,-0.15 c -0.0467,0.0467 -0.0867,0.0933 -0.12,0.14 -0.0333,0.04 -0.06,0.0867 -0.08,0.14 -0.02,0.0533 -0.03,0.1067 -0.03,0.16 0.0133,0.1133 0.0383,0.185 0.075,0.215 0.0367,0.03 0.0683,0.045 0.095,0.045 0.0333,-0.0133 0.065,-0.04 0.095,-0.08 0.03,-0.04 0.045,-0.1133 0.045,-0.22 0.0067,-0.0467 0.0067,-0.0933 0,-0.14 -0.0067,-0.0467 -0.0167,-0.09 -0.03,-0.13 -0.0133,-0.0467 -0.03,-0.09 -0.05,-0.13 m -0.57,0.36 c 0,0.0067 -0.005,0.0283 -0.015,0.065 -0.01,0.0367 -0.02,0.08 -0.03,0.13 -0.01,0.05 -0.0133,0.1033 -0.01,0.16 0.0033,0.0567 0.015,0.1083 0.035,0.155 0.04,0.0933 0.0867,0.1517 0.14,0.175 0.0533,0.0233 0.09,0.0283 0.11,0.015 0.0333,-0.02 0.06,-0.055 0.08,-0.105 0.02,-0.05 0.0067,-0.1283 -0.04,-0.235 -0.0133,-0.0533 -0.035,-0.1017 -0.065,-0.145 -0.03,-0.0433 -0.0617,-0.0817 -0.095,-0.115 -0.0333,-0.0333 -0.07,-0.0667 -0.11,-0.1 m -0.41,0.47 c -0.0067,0.0067 -0.0117,0.0267 -0.015,0.06 -0.0033,0.0333 -0.0017,0.0733 0.005,0.12 0.0067,0.0467 0.0167,0.0967 0.03,0.15 0.0133,0.0533 0.0367,0.1033 0.07,0.15 0.0667,0.0933 0.1317,0.1483 0.195,0.165 0.0633,0.0167 0.105,0.0183 0.125,0.005 0.02,-0.02 0.0367,-0.0617 0.05,-0.125 0.0133,-0.0633 -0.01,-0.1417 -0.07,-0.235 -0.0733,-0.0933 -0.1533,-0.1667 -0.24,-0.22 -0.0467,-0.0267 -0.0967,-0.05 -0.15,-0.07 m 0.05,0.72 c -0.0933,-0.08 -0.19,-0.1433 -0.29,-0.19 -0.0533,-0.0267 -0.1067,-0.05 -0.16,-0.07 0.0067,0.0467 0.0167,0.0967 0.03,0.15 0.0133,0.0467 0.03,0.0967 0.05,0.15 0.02,0.0533 0.05,0.1033 0.09,0.15 0.0667,0.0933 0.1317,0.15 0.195,0.17 0.0633,0.02 0.105,0.02 0.125,0 0.0333,-0.0133 0.0533,-0.0533 0.06,-0.12 0.0067,-0.0667 -0.0267,-0.1467 -0.1,-0.24 m -0.36,0.36 c -0.0733,-0.0933 -0.1567,-0.175 -0.25,-0.245 -0.0933,-0.07 -0.1467,-0.115 -0.16,-0.135 0,0.02 0.0183,0.0733 0.055,0.16 0.0367,0.0867 0.075,0.1867 0.115,0.3 0.0333,0.1133 0.0767,0.1917 0.13,0.235 0.0533,0.0433 0.0967,0.0583 0.13,0.045 0.0333,-0.0133 0.06,-0.05 0.08,-0.11 0.02,-0.06 -0.0133,-0.1433 -0.1,-0.25 m -0.6,0.15 c -0.02,0.1333 -0.0117,0.2267 0.025,0.28 0.0367,0.0533 0.0717,0.08 0.105,0.08 0.0333,0.0133 0.0717,-0.0083 0.115,-0.065 0.0433,-0.0567 0.0483,-0.1483 0.015,-0.275 -0.0333,-0.12 -0.0667,-0.23 -0.1,-0.33 -0.0333,-0.1 -0.0567,-0.16 -0.07,-0.18 v 0.15 c -0.0133,0.04 -0.0283,0.09 -0.045,0.15 -0.0167,0.06 -0.0317,0.1233 -0.045,0.19 m -0.44,-0.05 c -0.0333,0.1333 -0.0333,0.2267 0,0.28 0.0333,0.0533 0.0667,0.08 0.1,0.08 0.0267,0.0133 0.0617,-0.0033 0.105,-0.05 0.0433,-0.0467 0.0717,-0.1267 0.085,-0.24 0.0133,-0.1333 0.01,-0.2483 -0.01,-0.345 -0.02,-0.0967 -0.03,-0.1517 -0.03,-0.165 0,0.0133 -0.0333,0.0617 -0.1,0.145 -0.0667,0.0833 -0.1167,0.1817 -0.15,0.295 m -0.49,-0.08 c -0.0133,0.1067 0,0.1817 0.04,0.225 0.04,0.0433 0.0767,0.065 0.11,0.065 0.0333,0 0.07,-0.02 0.11,-0.06 0.04,-0.04 0.06,-0.1167 0.06,-0.23 0.0067,-0.06 0.005,-0.1167 -0.005,-0.17 -0.01,-0.0533 -0.0217,-0.1 -0.035,-0.14 -0.02,-0.0467 -0.0367,-0.0933 -0.05,-0.14 -0.04,0.0467 -0.0733,0.0933 -0.1,0.14 -0.0267,0.04 -0.0517,0.0867 -0.075,0.14 -0.0233,0.0533 -0.0417,0.11 -0.055,0.17 m -0.02,0.85 c 0.0867,-0.0867 0.1283,-0.16 0.125,-0.22 -0.0033,-0.06 -0.0183,-0.1 -0.045,-0.12 -0.02,-0.0267 -0.0633,-0.0383 -0.13,-0.035 -0.0667,0.0033 -0.1433,0.0417 -0.23,0.115 -0.0533,0.04 -0.0933,0.085 -0.12,0.135 -0.0267,0.05 -0.0467,0.0983 -0.06,0.145 -0.02,0.0533 -0.03,0.11 -0.03,0.17 0.06,0 0.12,-0.01 0.18,-0.03 0.0533,-0.0133 0.1067,-0.0317 0.16,-0.055 0.0533,-0.0233 0.1033,-0.0583 0.15,-0.105 m 0.66,0.21 c 0.0333,-0.1333 0.0317,-0.2267 -0.005,-0.28 -0.0367,-0.0533 -0.0717,-0.0867 -0.105,-0.1 -0.0333,-0.0133 -0.0817,-0.0067 -0.145,0.02 -0.0633,0.0267 -0.1217,0.0967 -0.175,0.21 -0.0267,0.06 -0.0417,0.12 -0.045,0.18 -0.0033,0.06 0.0017,0.1167 0.015,0.17 0.0133,0.06 0.03,0.12 0.05,0.18 0,0.0067 0.0183,0.0017 0.055,-0.015 0.0367,-0.0167 0.0783,-0.0433 0.125,-0.08 0.0467,-0.0367 0.0917,-0.0783 0.135,-0.125 0.0433,-0.0467 0.075,-0.1 0.095,-0.16 m 0.65,0.53 c 0.0067,0 0.0233,-0.0183 0.05,-0.055 0.0267,-0.0367 0.0517,-0.0833 0.075,-0.14 0.0233,-0.0567 0.0383,-0.1183 0.045,-0.185 0.0067,-0.0667 -0.0067,-0.13 -0.04,-0.19 -0.0533,-0.1333 -0.115,-0.2133 -0.185,-0.24 -0.07,-0.0267 -0.1217,-0.04 -0.155,-0.04 -0.0333,0.0133 -0.0767,0.045 -0.13,0.095 -0.0533,0.05 -0.0733,0.1383 -0.06,0.265 0,0.0733 0.0183,0.1417 0.055,0.205 0.0367,0.0633 0.0817,0.115 0.135,0.155 0.0267,0.0267 0.0533,0.0467 0.08,0.06 0.0267,0.0133 0.05,0.0267 0.07,0.04 l 0.06,0.03 m 0.19,-1.04 c 0.1133,-0.0533 0.2117,-0.12 0.295,-0.2 0.0833,-0.08 0.155,-0.1633 0.215,-0.25 0.1333,-0.1533 0.2383,-0.3 0.315,-0.44 0.0767,-0.14 0.135,-0.2467 0.175,-0.32 0.0867,-0.1533 0.1767,-0.29 0.27,-0.41 0.0933,-0.12 0.1867,-0.2167 0.28,-0.29 0.0867,-0.0733 0.1617,-0.1233 0.225,-0.15 0.0633,-0.0267 0.0883,-0.0467 0.075,-0.06 -0.0333,0.0067 -0.0667,0.02 -0.1,0.04 -0.0733,0.04 -0.1533,0.0967 -0.24,0.17 -0.0933,0.0733 -0.1867,0.17 -0.28,0.29 -0.0933,0.12 -0.1833,0.25 -0.27,0.39 -0.0467,0.0733 -0.1067,0.1783 -0.18,0.315 -0.0733,0.1367 -0.1767,0.285 -0.31,0.445 -0.0667,0.0733 -0.1383,0.1483 -0.215,0.225 -0.0767,0.0767 -0.1683,0.1383 -0.275,0.185 -0.0933,0.0533 -0.1983,0.085 -0.315,0.095 -0.1167,0.01 -0.2283,0.005 -0.335,-0.015 -0.2267,-0.0333 -0.4367,-0.09 -0.63,-0.17 -0.1933,-0.08 -0.36,-0.1633 -0.5,-0.25 -0.0733,-0.0333 -0.1383,-0.0683 -0.195,-0.105 -0.0567,-0.0367 -0.105,-0.0683 -0.145,-0.095 -0.0467,-0.0267 -0.09,-0.0533 -0.13,-0.08 l -0.04,0.09 c 0.0333,0.0267 0.0733,0.0533 0.12,0.08 0.04,0.0267 0.09,0.0567 0.15,0.09 0.06,0.0333 0.1267,0.0667 0.2,0.1 0.1333,0.0733 0.2983,0.1533 0.495,0.24 0.1967,0.0867 0.4117,0.14 0.645,0.16 0.12,0.0267 0.24,0.0333 0.36,0.02 0.12,-0.0133 0.2333,-0.0467 0.34,-0.1 m 0.26,0.4 c 0.0467,0.0533 0.1083,0.0867 0.185,0.1 0.0767,0.0133 0.1517,0.02 0.225,0.02 0.0867,0 0.1767,-0.01 0.27,-0.03 -0.0133,-0.0667 -0.0333,-0.1333 -0.06,-0.2 -0.0467,-0.1267 -0.1267,-0.2233 -0.24,-0.29 -0.1133,-0.0667 -0.2083,-0.0917 -0.285,-0.075 -0.0767,0.0167 -0.1317,0.035 -0.165,0.055 -0.02,0.0333 -0.035,0.085 -0.045,0.155 -0.01,0.07 0.0283,0.1583 0.115,0.265 m 0.59,-0.55 c 0.0667,0.0133 0.1333,0.0167 0.2,0.01 0.0667,-0.0067 0.1267,-0.02 0.18,-0.04 0.0667,-0.02 0.13,-0.0467 0.19,-0.08 -0.04,-0.0467 -0.0833,-0.09 -0.13,-0.13 -0.04,-0.0333 -0.0867,-0.065 -0.14,-0.095 -0.0533,-0.03 -0.11,-0.0517 -0.17,-0.065 -0.1133,-0.0333 -0.1983,-0.0333 -0.255,0 -0.0567,0.0333 -0.0917,0.0667 -0.105,0.1 -0.0133,0.0333 -0.0067,0.0817 0.02,0.145 0.0267,0.0633 0.0967,0.115 0.21,0.155 m 0.81,-0.7 c -0.0133,-0.0133 -0.0633,-0.0483 -0.15,-0.105 -0.0867,-0.0567 -0.1867,-0.0917 -0.3,-0.105 -0.1067,-0.0133 -0.1817,0 -0.225,0.04 -0.0433,0.04 -0.065,0.0767 -0.065,0.11 -0.0133,0.02 0,0.0533 0.04,0.1 0.04,0.0467 0.1167,0.0767 0.23,0.09 0.1133,0 0.2167,-0.0217 0.31,-0.065 0.0933,-0.0433 0.1467,-0.065 0.16,-0.065 m -0.21,-0.32 c 0.0467,0 0.0933,-0.0033 0.14,-0.01 0.0467,-0.0067 0.0867,-0.0167 0.12,-0.03 0.04,-0.0133 0.08,-0.0267 0.12,-0.04 -0.04,-0.0333 -0.08,-0.0633 -0.12,-0.09 -0.0333,-0.0267 -0.0733,-0.05 -0.12,-0.07 -0.0467,-0.02 -0.0933,-0.0367 -0.14,-0.05 -0.1133,-0.0133 -0.1883,-0.0017 -0.225,0.035 -0.0367,0.0367 -0.055,0.0717 -0.055,0.105 0,0.0267 0.0183,0.0583 0.055,0.095 0.0367,0.0367 0.1117,0.055 0.225,0.055 m 0.53,-0.36 h -0.01 c -0.0067,-0.0133 -0.0383,-0.0533 -0.095,-0.12 -0.0567,-0.0667 -0.1283,-0.11 -0.215,-0.13 -0.0867,-0.02 -0.1517,-0.0133 -0.195,0.02 -0.0433,0.0333 -0.065,0.06 -0.065,0.08 0,0.0267 0.02,0.055 0.06,0.085 0.04,0.03 0.1067,0.0517 0.2,0.065 0.08,0.0133 0.15,0.015 0.21,0.005 0.06,-0.01 0.0933,-0.0117 0.1,-0.005 h 0.01 m -0.09,-0.25 c 0.0333,0.0133 0.0683,0.0233 0.105,0.03 0.0367,0.0067 0.0683,0.0133 0.095,0.02 0.0267,0.0067 0.0533,0.01 0.08,0.01 -0.0133,-0.0467 -0.03,-0.0867 -0.05,-0.12 -0.02,-0.0333 -0.0433,-0.065 -0.07,-0.095 -0.0267,-0.03 -0.0567,-0.0583 -0.09,-0.085 -0.0733,-0.0333 -0.1317,-0.04 -0.175,-0.02 -0.0433,0.02 -0.0717,0.0433 -0.085,0.07 0,0.0333 0.0133,0.0683 0.04,0.105 0.0267,0.0367 0.0767,0.065 0.15,0.085 m 0.32,-0.3 c 0.0733,-0.0133 0.1467,-0.0367 0.22,-0.07 0.0333,-0.02 0.0667,-0.04 0.1,-0.06 -0.0333,-0.0267 -0.07,-0.05 -0.11,-0.07 -0.0333,-0.0133 -0.0717,-0.0267 -0.115,-0.04 -0.0433,-0.0133 -0.0883,-0.0167 -0.135,-0.01 -0.0933,0.0133 -0.1517,0.0417 -0.175,0.085 -0.0233,0.0433 -0.035,0.0783 -0.035,0.105 0.0133,0.0133 0.0367,0.03 0.07,0.05 0.0333,0.02 0.0933,0.0233 0.18,0.01"
         fill-rule="evenodd"
         vector-effect="none" />
    </g>
    <g
       id="g30"
       font-style="normal"
       font-weight="400"
       font-size="8.25px"
       font-family="'MS Shell Dlg 2'"
       transform="scale(1.33333)"
       stroke="none"
       fill="none" />
    <g
       id="g32"
       font-style="normal"
       font-weight="400"
       font-size="8.25px"
       font-family="'MS Shell Dlg 2'"
       stroke="none"
       fill="none" />
    <g
       id="g34"
       font-style="normal"
       font-weight="400"
       font-size="8.25px"
       font-family="'MS Shell Dlg 2'"
       stroke-linejoin="bevel"
       stroke-linecap="square"
       stroke-width="1"
       stroke-opacity="1"
       stroke="#000000"
       fill="none" />
  </g>
</svg>
