<?xml version="1.0" encoding="UTF-8" standalone="no"?>
<svg
   xmlns:dc="http://purl.org/dc/elements/1.1/"
   xmlns:cc="http://creativecommons.org/ns#"
   xmlns:rdf="http://www.w3.org/1999/02/22-rdf-syntax-ns#"
   xmlns:svg="http://www.w3.org/2000/svg"
   xmlns="http://www.w3.org/2000/svg"
   xmlns:sodipodi="http://sodipodi.sourceforge.net/DTD/sodipodi-0.dtd"
   xmlns:inkscape="http://www.inkscape.org/namespaces/inkscape"
   inkscape:version="1.0 (4035a4fb49, 2020-05-01)"
   sodipodi:docname="200k_72.svg"
   id="svg22"
   version="1.2"
   viewBox="0 0 10.962 10.962"
   height="3.8671539mm"
   width="3.8671539mm">
  <metadata
     id="metadata26">
    <rdf:RDF>
      <cc:Work
         rdf:about="">
        <dc:format>image/svg+xml</dc:format>
        <dc:type
           rdf:resource="http://purl.org/dc/dcmitype/StillImage" />
      </cc:Work>
    </rdf:RDF>
  </metadata>
  <sodipodi:namedview
     inkscape:current-layer="svg22"
     inkscape:window-maximized="1"
     inkscape:window-y="-9"
     inkscape:window-x="-9"
     inkscape:cy="5.832006"
     inkscape:cx="7.4133409"
     inkscape:zoom="18.047943"
     showgrid="false"
     id="namedview24"
     inkscape:window-height="1013"
     inkscape:window-width="1920"
     inkscape:pageshadow="2"
     inkscape:pageopacity="0"
     guidetolerance="10"
     gridtolerance="10"
     objecttolerance="10"
     borderopacity="1"
     bordercolor="#666666"
     pagecolor="#ffffff" />
  <title
     id="title2">Qt SVG Document</title>
  <desc
     id="desc4">Generated with Qt</desc>
  <defs
     id="defs6" />
  <g
     transform="translate(-10.44,-11.626)"
     id="g20"
     stroke-linejoin="bevel"
     stroke-linecap="square"
     fill-rule="evenodd"
     stroke-width="1"
     stroke="#000000"
     fill="none">
    <g
       id="g10"
       font-style="normal"
       font-weight="400"
       font-size="8.25px"
       font-family="'MS Shell Dlg 2'"
       stroke="none"
       fill-opacity="1"
       fill="#66b1e3">
      <path
         id="path8"
         d="m 21.402,17.114 c 0,0.756 -0.1423,1.4677 -0.427,2.135 -0.2847,0.6673 -0.6767,1.2483 -1.176,1.743 -0.4993,0.4947 -1.0827,0.8843 -1.75,1.169 -0.6673,0.2847 -1.379,0.427 -2.135,0.427 -0.756,0 -1.4677,-0.1423 -2.135,-0.427 -0.6673,-0.2847 -1.2483,-0.6743 -1.743,-1.169 -0.4947,-0.4947 -0.8843,-1.0757 -1.169,-1.743 -0.2847,-0.6673 -0.427,-1.379 -0.427,-2.135 0,-0.756 0.1423,-1.4677 0.427,-2.135 0.2847,-0.6673 0.6743,-1.2507 1.169,-1.75 0.4947,-0.4993 1.0757,-0.8913 1.743,-1.176 0.6673,-0.2847 1.379,-0.427 2.135,-0.427 0.756,0 1.4677,0.1423 2.135,0.427 0.6673,0.2847 1.2507,0.6767 1.75,1.176 0.4993,0.4993 0.8913,1.0827 1.176,1.75 0.2847,0.6673 0.427,1.379 0.427,2.135"
         fill-rule="evenodd"
         vector-effect="none" />
    </g>
    <g
       id="g12"
       font-style="normal"
       font-weight="400"
       font-size="8.25px"
       font-family="'MS Shell Dlg 2'"
       stroke="none"
       fill-opacity="1"
       fill="#66b1e3" />
    <g
       id="g16"
       font-style="normal"
       font-weight="400"
       font-size="8.25px"
       font-family="'MS Shell Dlg 2'"
       stroke="none"
       fill-opacity="1"
       fill="#ffffff">
      <path
         id="path14"
         d="m 15.0245,15.62567 c -0.0807,-0.0953 -0.1687,-0.1833 -0.264,-0.264 -0.088,-0.0733 -0.1943,-0.1412 -0.319,-0.2035 -0.1247,-0.0623 -0.2713,-0.1118 -0.44,-0.1485 -0.2493,-0.044 -0.418,-0.1173 -0.506,-0.22 -0.088,-0.1027 -0.0843,-0.1907 0.011,-0.264 0.0807,-0.0587 0.1962,-0.088 0.3465,-0.088 0.1503,0 0.3208,0.066 0.5115,0.198 0.0953,0.066 0.1833,0.1558 0.264,0.2695 0.0807,0.1137 0.1503,0.2218 0.209,0.3245 0.0367,0.066 0.0697,0.132 0.099,0.198 0.0293,0.066 0.0587,0.132 0.088,0.198 m 1.353,-1.111 c -0.0513,0.066 -0.1082,0.1302 -0.1705,0.1925 -0.0623,0.0623 -0.1228,0.1522 -0.1815,0.2695 -0.0587,0.1173 -0.1137,0.2768 -0.165,0.4785 -0.0513,0.2017 -0.0953,0.4785 -0.132,0.8305 -0.022,-0.2273 -0.055,-0.4235 -0.099,-0.5885 -0.044,-0.165 -0.088,-0.3135 -0.132,-0.4455 -0.044,-0.132 -0.0807,-0.2512 -0.11,-0.3575 -0.0293,-0.1063 -0.0403,-0.2108 -0.033,-0.3135 0.0147,-0.1393 0.0513,-0.2622 0.11,-0.3685 0.0587,-0.1063 0.1283,-0.1943 0.209,-0.264 0.0807,-0.0697 0.1687,-0.1192 0.264,-0.1485 0.0953,-0.0293 0.187,-0.0367 0.275,-0.022 0.2053,0.0367 0.3153,0.1265 0.33,0.2695 0.0147,0.143 -0.0403,0.2988 -0.165,0.4675 m -3.223,0.583 c 0.0587,-0.0147 0.1265,-0.0183 0.2035,-0.011 0.077,0.0073 0.1485,0.0183 0.2145,0.033 0.0367,0.0073 0.0752,0.0147 0.1155,0.022 0.0403,0.0073 0.0788,0.0183 0.1155,0.033 -0.0367,0.0073 -0.0715,0.0147 -0.1045,0.022 -0.033,0.0073 -0.0678,0.0183 -0.1045,0.033 -0.1393,0.0367 -0.242,0.088 -0.308,0.154 -0.0807,0.0807 -0.1668,0.1155 -0.2585,0.1045 -0.0917,-0.011 -0.1485,-0.0458 -0.1705,-0.1045 -0.0147,-0.0513 -0.0018,-0.1063 0.0385,-0.165 0.0403,-0.0587 0.1265,-0.099 0.2585,-0.121 m 1.474,1.793 c -0.2787,-0.0807 -0.4602,-0.1815 -0.5445,-0.3025 -0.0843,-0.121 -0.0642,-0.2218 0.0605,-0.3025 0.1027,-0.0587 0.2383,-0.0862 0.407,-0.0825 0.1687,0.0037 0.3593,0.0898 0.572,0.2585 0.1393,0.11 0.253,0.2328 0.341,0.3685 0.088,0.1357 0.1558,0.2695 0.2035,0.4015 0.0477,0.132 0.0788,0.2567 0.0935,0.374 0.0147,0.1173 0.022,0.2127 0.022,0.286 h 0.044 c 0.088,0 0.165,0.0073 0.231,0.022 0.066,0.0147 0.099,0.033 0.099,0.055 v 0.088 c 0,0.0293 -0.033,0.0513 -0.099,0.066 -0.066,0.0147 -0.143,0.022 -0.231,0.022 -0.088,0 -0.1632,-0.0073 -0.2255,-0.022 -0.0623,-0.0147 -0.0935,-0.0367 -0.0935,-0.066 v -0.088 c 0,-0.0147 0.0238,-0.0312 0.0715,-0.0495 0.0477,-0.0183 0.1082,-0.0275 0.1815,-0.0275 -0.0147,-0.0587 -0.044,-0.1338 -0.088,-0.2255 -0.044,-0.0917 -0.1082,-0.1852 -0.1925,-0.2805 -0.0843,-0.0953 -0.1962,-0.187 -0.3355,-0.275 -0.1393,-0.088 -0.3117,-0.1613 -0.517,-0.22 m -0.396,-1.496 c 0.0513,-0.022 0.1283,-0.0165 0.231,0.0165 0.1027,0.033 0.242,0.1008 0.418,0.2035 0.1393,0.0807 0.2548,0.1742 0.3465,0.2805 0.0917,0.1063 0.1632,0.2072 0.2145,0.3025 0.0513,0.11 0.0953,0.22 0.132,0.33 -0.0293,-0.0587 -0.0623,-0.1118 -0.099,-0.1595 -0.0367,-0.0477 -0.0733,-0.0972 -0.11,-0.1485 -0.0733,-0.0807 -0.1668,-0.1632 -0.2805,-0.2475 -0.1137,-0.0843 -0.2512,-0.1448 -0.4125,-0.1815 -0.2347,-0.0513 -0.3813,-0.121 -0.44,-0.209 -0.0587,-0.088 -0.0587,-0.1503 0,-0.187 m 2.805,3.718 v 1.166 c -0.1687,0.0513 -0.3465,0.0917 -0.5335,0.121 -0.187,0.0293 -0.3832,0.044 -0.5885,0.044 -0.2127,0 -0.4217,-0.0165 -0.627,-0.0495 -0.2053,-0.033 -0.3923,-0.0788 -0.561,-0.1375 v -1.133 c -0.1467,-0.0293 -0.2658,-0.0623 -0.3575,-0.099 -0.0917,-0.0367 -0.1375,-0.0733 -0.1375,-0.11 v -0.055 c 0.1393,0.0587 0.3502,0.1045 0.6325,0.1375 0.2823,0.033 0.6105,0.0495 0.9845,0.0495 0.374,0 0.704,-0.0165 0.99,-0.0495 0.286,-0.033 0.495,-0.0788 0.627,-0.1375 v 0.055 c 0,0.0807 -0.1467,0.1467 -0.44,0.198 h 0.011 m -0.594,-2.189 c -0.0807,0.0147 -0.154,0.0477 -0.22,0.099 -0.066,0.0513 -0.1247,0.1063 -0.176,0.165 -0.0293,0.0367 -0.0568,0.0752 -0.0825,0.1155 -0.0257,0.0403 -0.0495,0.0825 -0.0715,0.1265 0,-0.066 0.011,-0.1393 0.033,-0.22 0.0147,-0.066 0.0422,-0.1375 0.0825,-0.2145 0.0403,-0.077 0.1008,-0.1522 0.1815,-0.2255 0.1247,-0.1247 0.2402,-0.1998 0.3465,-0.2255 0.1063,-0.0257 0.1925,-0.0238 0.2585,0.0055 0.044,0.022 0.0752,0.0513 0.0935,0.088 0.0183,0.0367 0.0183,0.0733 0,0.11 -0.0183,0.0367 -0.0623,0.0715 -0.132,0.1045 -0.0697,0.033 -0.1742,0.0568 -0.3135,0.0715 m 2.244,-1.958 c 0.132,0.022 0.2182,0.0623 0.2585,0.121 0.0403,0.0587 0.0532,0.1173 0.0385,0.176 -0.022,0.0733 -0.0807,0.1155 -0.176,0.1265 -0.0953,0.011 -0.1833,-0.0238 -0.264,-0.1045 -0.066,-0.066 -0.1687,-0.1173 -0.308,-0.154 -0.0367,-0.0147 -0.0715,-0.0257 -0.1045,-0.033 -0.033,-0.0073 -0.0678,-0.0147 -0.1045,-0.022 l 0.231,-0.066 c 0.066,-0.0147 0.1375,-0.0275 0.2145,-0.0385 0.077,-0.011 0.1485,-0.0128 0.2145,-0.0055 m -1.463,-0.517 c 0.1467,-0.0587 0.2713,-0.0788 0.374,-0.0605 0.1027,0.0183 0.1723,0.0532 0.209,0.1045 0.044,0.0587 0.0385,0.1228 -0.0165,0.1925 -0.055,0.0697 -0.1558,0.1008 -0.3025,0.0935 -0.22,-0.0147 -0.407,0.0092 -0.561,0.0715 -0.154,0.0623 -0.3007,0.1558 -0.44,0.2805 0.0807,-0.154 0.1852,-0.2915 0.3135,-0.4125 0.1283,-0.121 0.2695,-0.2108 0.4235,-0.2695 m 0.374,0.902 c 0.132,0.11 0.1283,0.2237 -0.011,0.341 -0.1393,0.1173 -0.3667,0.187 -0.682,0.209 -0.22,0.022 -0.3978,0.0752 -0.5335,0.1595 -0.1357,0.0843 -0.2438,0.1778 -0.3245,0.2805 -0.088,0.1247 -0.154,0.2493 -0.198,0.374 0.0073,-0.0587 0.0183,-0.1173 0.033,-0.176 0.0147,-0.0587 0.0293,-0.1173 0.044,-0.176 0.0367,-0.1027 0.088,-0.2145 0.154,-0.3355 0.066,-0.121 0.1577,-0.2402 0.275,-0.3575 0.2347,-0.2347 0.473,-0.3722 0.715,-0.4125 0.242,-0.0403 0.418,-0.0092 0.528,0.0935 m 0.022,3.344 c 0,0.0367 -0.0458,0.0697 -0.1375,0.099 -0.0917,0.0293 -0.2182,0.055 -0.3795,0.077 -0.1613,0.022 -0.3502,0.0403 -0.5665,0.055 -0.2163,0.0147 -0.4455,0.022 -0.6875,0.022 -0.242,0 -0.4693,-0.0073 -0.682,-0.022 -0.2127,-0.0147 -0.3997,-0.033 -0.561,-0.055 -0.1613,-0.022 -0.2878,-0.0477 -0.3795,-0.077 -0.0917,-0.0293 -0.1375,-0.0623 -0.1375,-0.099 0,-0.066 0.1412,-0.121 0.4235,-0.165 0.2823,-0.044 0.6362,-0.0733 1.0615,-0.088 v -0.264 c 0.066,0.0293 0.1503,0.044 0.253,0.044 0.11,0 0.198,-0.0147 0.264,-0.044 v 0.264 c 0.2127,0 0.4125,0.0073 0.5995,0.022 0.187,0.0147 0.3483,0.033 0.484,0.055 0.1357,0.022 0.2438,0.0495 0.3245,0.0825 0.0807,0.033 0.121,0.0642 0.121,0.0935 m -2.046,-0.187 c -0.308,0.0073 -0.5592,0.0275 -0.7535,0.0605 -0.1943,0.033 -0.2915,0.0752 -0.2915,0.1265 0.1393,0.0293 0.3245,0.0513 0.5555,0.066 0.231,0.0147 0.4858,0.022 0.7645,0.022 0.2787,0 0.5353,-0.0073 0.77,-0.022 0.2347,-0.0147 0.4217,-0.0367 0.561,-0.066 0,-0.0513 -0.1045,-0.0935 -0.3135,-0.1265 -0.209,-0.033 -0.4675,-0.0532 -0.7755,-0.0605 v 0.099 c 0,0 -0.022,0.0073 -0.066,0.022 -0.022,0.0073 -0.0513,0.011 -0.088,0.011 -0.0367,0 -0.0733,0 -0.11,0 -0.1027,0 -0.165,-0.0037 -0.187,-0.011 -0.044,-0.0147 -0.066,-0.022 -0.066,-0.022 v -0.099"
         fill-rule="evenodd"
         vector-effect="none" />
    </g>
    <g
       id="g18"
       font-style="normal"
       font-weight="400"
       font-size="8.25px"
       font-family="'MS Shell Dlg 2'"
       stroke="none"
       fill-opacity="1"
       fill="#ffffff" />
  </g>
</svg>
