<?xml version="1.0" encoding="UTF-8" standalone="no"?>
<svg
   xmlns:dc="http://purl.org/dc/elements/1.1/"
   xmlns:cc="http://creativecommons.org/ns#"
   xmlns:rdf="http://www.w3.org/1999/02/22-rdf-syntax-ns#"
   xmlns:svg="http://www.w3.org/2000/svg"
   xmlns="http://www.w3.org/2000/svg"
   xmlns:sodipodi="http://sodipodi.sourceforge.net/DTD/sodipodi-0.dtd"
   xmlns:inkscape="http://www.inkscape.org/namespaces/inkscape"
   inkscape:version="1.0 (4035a4fb49, 2020-05-01)"
   sodipodi:docname="200k_65.svg"
   id="svg22"
   version="1.2"
   viewBox="0 0 10.962 10.962"
   height="3.8671539mm"
   width="3.8671539mm">
  <metadata
     id="metadata26">
    <rdf:RDF>
      <cc:Work
         rdf:about="">
        <dc:format>image/svg+xml</dc:format>
        <dc:type
           rdf:resource="http://purl.org/dc/dcmitype/StillImage" />
      </cc:Work>
    </rdf:RDF>
  </metadata>
  <sodipodi:namedview
     inkscape:current-layer="svg22"
     inkscape:window-maximized="1"
     inkscape:window-y="-9"
     inkscape:window-x="-9"
     inkscape:cy="5.832006"
     inkscape:cx="7.4133409"
     inkscape:zoom="18.047943"
     showgrid="false"
     id="namedview24"
     inkscape:window-height="1013"
     inkscape:window-width="1920"
     inkscape:pageshadow="2"
     inkscape:pageopacity="0"
     guidetolerance="10"
     gridtolerance="10"
     objecttolerance="10"
     borderopacity="1"
     bordercolor="#666666"
     pagecolor="#ffffff" />
  <title
     id="title2">Qt SVG Document</title>
  <desc
     id="desc4">Generated with Qt</desc>
  <defs
     id="defs6" />
  <g
     transform="translate(-10.44,-11.626)"
     id="g20"
     stroke-linejoin="bevel"
     stroke-linecap="square"
     fill-rule="evenodd"
     stroke-width="1"
     stroke="#000000"
     fill="none">
    <g
       id="g10"
       font-style="normal"
       font-weight="400"
       font-size="8.25px"
       font-family="'MS Shell Dlg 2'"
       stroke="none"
       fill-opacity="1"
       fill="#33a02c">
      <path
         id="path8"
         d="m 21.402,17.114 c 0,0.756 -0.1423,1.4677 -0.427,2.135 -0.2847,0.6673 -0.6767,1.2483 -1.176,1.743 -0.4993,0.4947 -1.0827,0.8843 -1.75,1.169 -0.6673,0.2847 -1.379,0.427 -2.135,0.427 -0.756,0 -1.4677,-0.1423 -2.135,-0.427 -0.6673,-0.2847 -1.2483,-0.6743 -1.743,-1.169 -0.4947,-0.4947 -0.8843,-1.0757 -1.169,-1.743 -0.2847,-0.6673 -0.427,-1.379 -0.427,-2.135 0,-0.756 0.1423,-1.4677 0.427,-2.135 0.2847,-0.6673 0.6743,-1.2507 1.169,-1.75 0.4947,-0.4993 1.0757,-0.8913 1.743,-1.176 0.6673,-0.2847 1.379,-0.427 2.135,-0.427 0.756,0 1.4677,0.1423 2.135,0.427 0.6673,0.2847 1.2507,0.6767 1.75,1.176 0.4993,0.4993 0.8913,1.0827 1.176,1.75 0.2847,0.6673 0.427,1.379 0.427,2.135"
         fill-rule="evenodd"
         vector-effect="none" />
    </g>
    <g
       id="g12"
       font-style="normal"
       font-weight="400"
       font-size="8.25px"
       font-family="'MS Shell Dlg 2'"
       stroke="none"
       fill-opacity="1"
       fill="#33a02c" />
    <g
       id="g16"
       font-style="normal"
       font-weight="400"
       font-size="8.25px"
       font-family="'MS Shell Dlg 2'"
       stroke="none"
       fill-opacity="1"
       fill="#ffffff">
      <path
         id="path14"
         d="m 15.26933,15.00033 c -0.12,0 -0.22,-0.0417 -0.3,-0.125 -0.08,-0.0833 -0.12,-0.1817 -0.12,-0.295 0,-0.12 0.04,-0.2183 0.12,-0.295 0.08,-0.0767 0.18,-0.115 0.3,-0.115 0.1133,0 0.2117,0.0383 0.295,0.115 0.0833,0.0767 0.125,0.175 0.125,0.295 0,0.1133 -0.0417,0.2117 -0.125,0.295 -0.0833,0.0833 -0.1817,0.125 -0.295,0.125 m 3.47,0.68 c 0.0733,0.0467 0.1183,0.1083 0.135,0.185 0.0167,0.0767 0.0083,0.1483 -0.025,0.215 -0.0333,0.0533 -0.0783,0.0917 -0.135,0.115 -0.0567,0.0233 -0.1117,0.0283 -0.165,0.015 h -0.07 c -0.0467,0.1667 -0.135,0.3 -0.265,0.4 -0.13,0.1 -0.2817,0.15 -0.455,0.15 -0.0333,0 -0.0667,0 -0.1,0 -0.0333,0 -0.0667,-0.0067 -0.1,-0.02 l -0.62,1.27 v 1.76 c 0,0.08 -0.0267,0.145 -0.08,0.195 -0.0533,0.05 -0.1133,0.075 -0.18,0.075 -0.08,0 -0.1483,-0.025 -0.205,-0.075 -0.0567,-0.05 -0.085,-0.115 -0.085,-0.195 v -1.8 h -1.38 l -0.24,0.44 0.52,1.23 c 0.0333,0.0667 0.0417,0.135 0.025,0.205 -0.0167,0.07 -0.0617,0.125 -0.135,0.165 -0.0667,0.0333 -0.1367,0.0417 -0.21,0.025 -0.0733,-0.0167 -0.1267,-0.0617 -0.16,-0.135 l -0.59,-1.42 v -0.44 l -0.3,0.41 v 1.32 c 0,0.08 -0.025,0.145 -0.075,0.195 -0.05,0.05 -0.1117,0.075 -0.185,0.075 -0.08,0 -0.1483,-0.025 -0.205,-0.075 -0.0567,-0.05 -0.085,-0.115 -0.085,-0.195 v -1.51 l 0.24,-0.36 v -1.21 l -0.22,0.36 v 0.99 h -0.43 v -1.02 c 0,-0.1667 0.0583,-0.3067 0.175,-0.42 0.1167,-0.1133 0.2583,-0.17 0.425,-0.17 h 1.29 v -0.92 c 0,-0.1133 0.0383,-0.2117 0.115,-0.295 0.0767,-0.0833 0.1717,-0.125 0.285,-0.125 0.12,0 0.22,0.0417 0.3,0.125 0.08,0.0833 0.12,0.1817 0.12,0.295 v 0.13 l 0.61,0.18 c 0.1267,0.0267 0.18,0.1 0.16,0.22 -0.0333,0.12 -0.1133,0.17 -0.24,0.15 l -0.53,-0.11 v 0.35 h 0.61 l 1.67,-1.74 -0.04,0.44 0.83,0.55 m -0.98,0.93 c 0.14,0 0.2617,-0.04 0.365,-0.12 0.1033,-0.08 0.1717,-0.18 0.205,-0.3 l -0.44,-0.09 -0.24,0.51 h 0.11"
         fill-rule="evenodd"
         vector-effect="none" />
    </g>
    <g
       id="g18"
       font-style="normal"
       font-weight="400"
       font-size="8.25px"
       font-family="'MS Shell Dlg 2'"
       stroke="none"
       fill-opacity="1"
       fill="#ffffff" />
  </g>
</svg>
