<?xml version="1.0" encoding="UTF-8" standalone="no"?>
<svg width="11.2889mm" height="11.2889mm"
 viewBox="0 0 32 32"
 xmlns="http://www.w3.org/2000/svg" xmlns:xlink="http://www.w3.org/1999/xlink"  version="1.2" baseProfile="tiny">
<title>Qt SVG Document</title>
<desc>Generated with Qt</desc>
<defs>
</defs>
<g fill="none" stroke="black" stroke-width="1" fill-rule="evenodd" stroke-linecap="square" stroke-linejoin="bevel" >

<g fill="none" stroke="none" transform="matrix(1,0,0,1,0,0)"
font-family="MS Shell Dlg 2" font-size="8.25" font-weight="400" font-style="normal" 
>
</g>

<g fill="none" stroke="none" transform="matrix(1.33333,0,0,1.33333,0,0)"
font-family="MS Shell Dlg 2" font-size="8.25" font-weight="400" font-style="normal" 
>
</g>

<g fill="#1f78b4" fill-opacity="1" stroke="none" transform="matrix(1,0,0,1,0,0)"
font-family="MS Shell Dlg 2" font-size="8.25" font-weight="400" font-style="normal" 
>
<path vector-effect="none" fill-rule="evenodd" d="M21.402,17.114 C21.402,17.87 21.2597,18.5817 20.975,19.249 C20.6903,19.9163 20.2983,20.4973 19.799,20.992 C19.2997,21.4867 18.7163,21.8763 18.049,22.161 C17.3817,22.4457 16.67,22.588 15.914,22.588 C15.158,22.588 14.4463,22.4457 13.779,22.161 C13.1117,21.8763 12.5307,21.4867 12.036,20.992 C11.5413,20.4973 11.1517,19.9163 10.867,19.249 C10.5823,18.5817 10.44,17.87 10.44,17.114 C10.44,16.358 10.5823,15.6463 10.867,14.979 C11.1517,14.3117 11.5413,13.7283 12.036,13.229 C12.5307,12.7297 13.1117,12.3377 13.779,12.053 C14.4463,11.7683 15.158,11.626 15.914,11.626 C16.67,11.626 17.3817,11.7683 18.049,12.053 C18.7163,12.3377 19.2997,12.7297 19.799,13.229 C20.2983,13.7283 20.6903,14.3117 20.975,14.979 C21.2597,15.6463 21.402,16.358 21.402,17.114 "/>
</g>

<g fill="none" stroke="none" transform="matrix(1.33333,0,0,1.33333,0,0)"
font-family="MS Shell Dlg 2" font-size="8.25" font-weight="400" font-style="normal" 
>
</g>

<g fill="none" stroke="none" transform="matrix(1,0,0,1,0,0)"
font-family="MS Shell Dlg 2" font-size="8.25" font-weight="400" font-style="normal" 
>
</g>

<g fill="none" stroke="#000000" stroke-opacity="1" stroke-width="1" stroke-linecap="square" stroke-linejoin="bevel" transform="matrix(1,0,0,1,0,0)"
font-family="MS Shell Dlg 2" font-size="8.25" font-weight="400" font-style="normal" 
>
</g>

<g fill="none" stroke="none" transform="matrix(1,0,0,1,0,0)"
font-family="MS Shell Dlg 2" font-size="8.25" font-weight="400" font-style="normal" 
>
</g>

<g fill="none" stroke="none" transform="matrix(1.33333,0,0,1.33333,0,0)"
font-family="MS Shell Dlg 2" font-size="8.25" font-weight="400" font-style="normal" 
>
</g>

<g fill="#ffffff" fill-opacity="1" stroke="none" transform="matrix(1,0,0,1,0,0)"
font-family="MS Shell Dlg 2" font-size="8.25" font-weight="400" font-style="normal" 
>
<path vector-effect="none" fill-rule="evenodd" d="M14.96,15.8 C15.16,15.84 15.325,15.935 15.455,16.085 C15.585,16.235 15.65,16.4167 15.65,16.63 L15.65,19.75 C15.65,19.8033 15.6317,19.8467 15.595,19.88 C15.5583,19.9133 15.5167,19.93 15.47,19.93 L13.76,19.93 C13.7133,19.93 13.6717,19.9133 13.635,19.88 C13.5983,19.8467 13.58,19.8033 13.58,19.75 L13.58,16.63 C13.58,16.4167 13.645,16.235 13.775,16.085 C13.905,15.935 14.0667,15.84 14.26,15.8 L14.26,14.39 L14.96,14.39 L14.96,15.8 M14.96,14.19 L14.26,14.19 L14.26,13.89 L14.96,13.89 L14.96,14.19 M18.3,19.75 C18.3667,19.75 18.39,19.7867 18.37,19.86 C18.37,19.88 18.36,19.8967 18.34,19.91 C18.32,19.9233 18.3,19.93 18.28,19.93 L16.48,19.93 C16.4267,19.93 16.39,19.9067 16.37,19.86 C16.37,19.7867 16.4,19.75 16.46,19.75 L17.27,19.64 L17.27,18.41 C17.0167,18.35 16.8233,18.2567 16.69,18.13 C16.5567,18.0033 16.465,17.8617 16.415,17.705 C16.365,17.5483 16.3483,17.3817 16.365,17.205 C16.3817,17.0283 16.4117,16.86 16.455,16.7 C16.4983,16.54 16.5467,16.3933 16.6,16.26 C16.6533,16.1267 16.6933,16.0233 16.72,15.95 L18.02,15.95 C18.0467,16.0233 18.0883,16.1267 18.145,16.26 C18.2017,16.3933 18.2517,16.54 18.295,16.7 C18.3383,16.86 18.3683,17.0283 18.385,17.205 C18.4017,17.3817 18.385,17.5483 18.335,17.705 C18.285,17.8617 18.1917,18.0033 18.055,18.13 C17.9183,18.2567 17.7233,18.35 17.47,18.41 L17.47,19.64 L18.3,19.75"/>
</g>

<g fill="none" stroke="none" transform="matrix(1.33333,0,0,1.33333,0,0)"
font-family="MS Shell Dlg 2" font-size="8.25" font-weight="400" font-style="normal" 
>
</g>

<g fill="none" stroke="none" transform="matrix(1,0,0,1,0,0)"
font-family="MS Shell Dlg 2" font-size="8.25" font-weight="400" font-style="normal" 
>
</g>

<g fill="none" stroke="#000000" stroke-opacity="1" stroke-width="1" stroke-linecap="square" stroke-linejoin="bevel" transform="matrix(1,0,0,1,0,0)"
font-family="MS Shell Dlg 2" font-size="8.25" font-weight="400" font-style="normal" 
>
</g>
</g>
</svg>
