<?xml version="1.0" encoding="UTF-8" standalone="no"?>
<svg
   xmlns:dc="http://purl.org/dc/elements/1.1/"
   xmlns:cc="http://creativecommons.org/ns#"
   xmlns:rdf="http://www.w3.org/1999/02/22-rdf-syntax-ns#"
   xmlns:svg="http://www.w3.org/2000/svg"
   xmlns="http://www.w3.org/2000/svg"
   xmlns:sodipodi="http://sodipodi.sourceforge.net/DTD/sodipodi-0.dtd"
   xmlns:inkscape="http://www.inkscape.org/namespaces/inkscape"
   inkscape:version="1.0 (4035a4fb49, 2020-05-01)"
   sodipodi:docname="200k_77.svg"
   id="svg38"
   version="1.2"
   viewBox="0 0 10.962 10.962"
   height="3.8671539mm"
   width="3.8671539mm">
  <metadata
     id="metadata42">
    <rdf:RDF>
      <cc:Work
         rdf:about="">
        <dc:format>image/svg+xml</dc:format>
        <dc:type
           rdf:resource="http://purl.org/dc/dcmitype/StillImage" />
      </cc:Work>
    </rdf:RDF>
  </metadata>
  <sodipodi:namedview
     inkscape:current-layer="svg38"
     inkscape:window-maximized="1"
     inkscape:window-y="-9"
     inkscape:window-x="-9"
     inkscape:cy="8.4883306"
     inkscape:cx="11.573983"
     inkscape:zoom="51.047292"
     showgrid="false"
     id="namedview40"
     inkscape:window-height="1013"
     inkscape:window-width="1920"
     inkscape:pageshadow="2"
     inkscape:pageopacity="0"
     guidetolerance="10"
     gridtolerance="10"
     objecttolerance="10"
     borderopacity="1"
     bordercolor="#666666"
     pagecolor="#ffffff" />
  <title
     id="title2">Qt SVG Document</title>
  <desc
     id="desc4">Generated with Qt</desc>
  <defs
     id="defs6" />
  <g
     transform="translate(-10.44,-11.626)"
     id="g36"
     stroke-linejoin="bevel"
     stroke-linecap="square"
     fill-rule="evenodd"
     stroke-width="1"
     stroke="#000000"
     fill="none">
    <g
       id="g8"
       font-style="normal"
       font-weight="400"
       font-size="8.25px"
       font-family="'MS Shell Dlg 2'"
       stroke="none"
       fill="none" />
    <g
       id="g10"
       font-style="normal"
       font-weight="400"
       font-size="8.25px"
       font-family="'MS Shell Dlg 2'"
       transform="scale(1.33333)"
       stroke="none"
       fill="none" />
    <g
       id="g14"
       font-style="normal"
       font-weight="400"
       font-size="8.25px"
       font-family="'MS Shell Dlg 2'"
       stroke="none"
       fill-opacity="1"
       fill="#a61215">
      <path
         id="path12"
         d="m 21.402,17.114 c 0,0.756 -0.1423,1.4677 -0.427,2.135 -0.2847,0.6673 -0.6767,1.2483 -1.176,1.743 -0.4993,0.4947 -1.0827,0.8843 -1.75,1.169 -0.6673,0.2847 -1.379,0.427 -2.135,0.427 -0.756,0 -1.4677,-0.1423 -2.135,-0.427 -0.6673,-0.2847 -1.2483,-0.6743 -1.743,-1.169 -0.4947,-0.4947 -0.8843,-1.0757 -1.169,-1.743 -0.2847,-0.6673 -0.427,-1.379 -0.427,-2.135 0,-0.756 0.1423,-1.4677 0.427,-2.135 0.2847,-0.6673 0.6743,-1.2507 1.169,-1.75 0.4947,-0.4993 1.0757,-0.8913 1.743,-1.176 0.6673,-0.2847 1.379,-0.427 2.135,-0.427 0.756,0 1.4677,0.1423 2.135,0.427 0.6673,0.2847 1.2507,0.6767 1.75,1.176 0.4993,0.4993 0.8913,1.0827 1.176,1.75 0.2847,0.6673 0.427,1.379 0.427,2.135"
         fill-rule="evenodd"
         vector-effect="none" />
    </g>
    <g
       id="g16"
       font-style="normal"
       font-weight="400"
       font-size="8.25px"
       font-family="'MS Shell Dlg 2'"
       transform="scale(1.33333)"
       stroke="none"
       fill="none" />
    <g
       id="g18"
       font-style="normal"
       font-weight="400"
       font-size="8.25px"
       font-family="'MS Shell Dlg 2'"
       stroke="none"
       fill="none" />
    <g
       id="g20"
       font-style="normal"
       font-weight="400"
       font-size="8.25px"
       font-family="'MS Shell Dlg 2'"
       stroke-linejoin="bevel"
       stroke-linecap="square"
       stroke-width="1"
       stroke-opacity="1"
       stroke="#000000"
       fill="none" />
    <g
       id="g22"
       font-style="normal"
       font-weight="400"
       font-size="8.25px"
       font-family="'MS Shell Dlg 2'"
       stroke="none"
       fill="none" />
    <g
       id="g24"
       font-style="normal"
       font-weight="400"
       font-size="8.25px"
       font-family="'MS Shell Dlg 2'"
       transform="scale(1.33333)"
       stroke="none"
       fill="none" />
    <g
       id="g28"
       font-style="normal"
       font-weight="400"
       font-size="8.25px"
       font-family="'MS Shell Dlg 2'"
       stroke="none"
       fill-opacity="1"
       fill="#ffffff">
      <path
         id="path26"
         d="m 18.516,18.687215 c 0.28,0.04 0.42,0.0833 0.42,0.13 v 0.1 l -0.04,0.02 c -0.04,0.0133 -0.0733,0.0233 -0.1,0.03 v 0.57 h -0.1531 v -0.62 c -0.0272,0 -0.0595,0 -0.0969,0 -0.0374,0 -0.0799,-0.0067 -0.1275,-0.02 v -0.08 l -0.0205,-0.02 c -0.0136,-0.0133 -0.0272,-0.02 -0.0408,-0.02 -0.0204,0 -0.0374,0.0067 -0.051,0.02 -0.0068,0.0067 -0.0102,0.0133 -0.0102,0.02 0.0136,0 0.0222,-0.0033 0.0256,-0.01 0.0035,-0.0067 0.0154,-0.01 0.0358,-0.01 0.0069,0 0.0171,0.0067 0.0308,0.02 0,0.0067 0.0034,0.0133 0.0101,0.02 v 0.66 H 18.296 v -0.62 c -0.0547,0 -0.1128,-0.0033 -0.1744,-0.01 -0.0615,-0.0067 -0.1367,-0.01 -0.2256,-0.01 v 0.62 h -0.1 v -0.64 l -0.47,-0.02 v 0.64 h -0.13 v -0.57 c 0.0133,-0.02 0.025,-0.0417 0.035,-0.065 0.01,-0.0233 0.0217,-0.045 0.035,-0.065 0.02,0 0.0367,0.0067 0.05,0.02 0.0067,0.0067 0.01,0.0133 0.01,0.02 v -0.05 c -0.0067,0 -0.01,-0.0033 -0.01,-0.01 -0.0067,0 -0.01,-0.0017 -0.01,-0.005 0,-0.0033 -0.0067,-0.005 -0.02,-0.005 0.0133,-0.02 0.0217,-0.0417 0.025,-0.065 0.0033,-0.0233 0.0117,-0.045 0.0252,-0.065 0.2509,0.0133 0.4764,0.0283 0.6764,0.045 0.2,0.0167 0.3678,0.0317 0.5034,0.045 m -0.61,0.11 c -0.0067,-0.0067 -0.01,-0.0133 -0.01,-0.02 -0.0067,-0.0067 -0.01,-0.0133 -0.01,-0.02 0,-0.0067 -0.0067,-0.01 -0.02,-0.01 -0.0133,0 -0.03,0.01 -0.05,0.03 -0.0067,0.0067 -0.01,0.0133 -0.01,0.02 l 0.01,-0.01 c 0.0067,0 0.0117,-0.0017 0.015,-0.005 0.0033,-0.0033 0.0083,-0.005 0.015,-0.005 0.02,0 0.0367,0.0067 0.05,0.02 0.0067,0.0067 0.01,0.0133 0.01,0.02 v -0.02 m 0.89,0.04 -0.01,-0.01 c -0.0067,0 -0.015,-0.0017 -0.025,-0.005 -0.01,-0.0033 -0.0217,-0.005 -0.035,-0.005 -0.0133,0 -0.0233,0.0017 -0.03,0.005 -0.0067,0.0033 -0.0133,0.005 -0.02,0.005 l -0.01,0.01 h 0.06 c 0.0133,0 0.0233,0.0017 0.03,0.005 0.0067,0.0033 0.0133,0.005 0.02,0.005 0.0067,0.0067 0.0133,0.01 0.02,0.01 v -0.02 m -5.48,-0.15 c 0.149,-0.02 0.3334,-0.0383 0.5534,-0.055 0.22,-0.0167 0.4688,-0.0317 0.7463,-0.045 0.0202,0.04 0.0403,0.0783 0.0603,0.115 0.02,0.0367 0.0467,0.0717 0.08,0.105 -0.0267,0.0067 -0.0667,0.01 -0.12,0.01 v 0.64 h -0.11 v -0.64 l -0.51,0.02 v 0.64 h -0.08 v -0.62 c -0.0752,0 -0.147,0.0033 -0.2154,0.01 -0.0684,0.0067 -0.1299,0.01 -0.1846,0.01 v 0.62 h -0.1 v -0.66 c -0.0067,-0.0067 -0.0067,-0.0133 0,-0.02 0,-0.0133 0.0133,-0.02 0.04,-0.02 0.02,0 0.0317,0.0033 0.035,0.01 0.0033,0.0067 0.0117,0.01 0.025,0.01 l -0.0195,-0.02 c -0.0131,-0.0133 -0.026,-0.02 -0.0389,-0.02 -0.0196,0 -0.0359,0.0067 -0.0489,0.02 -0.0065,0.0067 -0.0097,0.0133 -0.0097,0.02 v 0.08 c -0.0452,0.0133 -0.0856,0.02 -0.121,0.02 -0.0355,0 -0.0662,0 -0.092,0 v 0.62 h -0.12 v -0.57 c -0.0533,-0.0067 -0.0967,-0.0167 -0.13,-0.03 -0.02,-0.0067 -0.0367,-0.0133 -0.05,-0.02 v -0.1 c 0,-0.02 0.0392,-0.0417 0.1176,-0.065 0.0784,-0.0233 0.1758,-0.045 0.2924,-0.065 m -0.13,0.15 c -0.0067,0 -0.01,-0.0033 -0.01,-0.01 -0.0067,0 -0.01,-0.0017 -0.01,-0.005 0,-0.0033 -0.0067,-0.005 -0.02,-0.005 -0.0133,0 -0.0233,0.0017 -0.03,0.005 -0.0067,0.0033 -0.0133,0.005 -0.02,0.005 l -0.01,0.01 v 0.02 l 0.01,-0.01 c 0.0067,0 0.0133,-0.0017 0.02,-0.005 0.0067,-0.0033 0.0167,-0.005 0.03,-0.005 h 0.04 m 0.79,-0.06 c 0.0067,0 0.0117,0.0017 0.015,0.005 0.0033,0.0033 0.0083,0.005 0.015,0.005 l 0.01,0.01 c 0,-0.0067 -0.0033,-0.0133 -0.01,-0.02 -0.02,-0.02 -0.0367,-0.03 -0.05,-0.03 -0.0267,0 -0.04,0.01 -0.04,0.03 -0.0067,0.0067 -0.0067,0.0133 0,0.02 v 0.02 c 0,-0.0067 0.0033,-0.0133 0.01,-0.02 0.0133,-0.0133 0.03,-0.02 0.05,-0.02 m 0.65,-0.04 c -0.0067,0 -0.015,-0.0017 -0.025,-0.005 -0.01,-0.0033 -0.0217,-0.005 -0.035,-0.005 -0.0067,0 -0.0117,0.0017 -0.015,0.005 -0.0033,0.0033 -0.0083,0.005 -0.015,0.005 h -0.01 c -0.0067,0.0067 -0.0067,0.01 0,0.01 v 0.05 c 0,-0.0067 0.0033,-0.0133 0.01,-0.02 0.0067,-0.0067 0.0133,-0.0133 0.02,-0.02 0.0067,-0.0067 0.02,-0.01 0.04,-0.01 0.0133,0 0.0267,0.01 0.04,0.03 v -0.03 l -0.01,-0.01 m 1.6863,-1.62 c 0.2225,0.0067 0.402,0.055 0.5387,0.145 0.1367,0.09 0.2367,0.205 0.3,0.345 0.0633,0.14 0.0917,0.2933 0.085,0.46 -0.0067,0.1667 -0.0433,0.3267 -0.11,0.48 -0.0667,0.1533 -0.16,0.2867 -0.28,0.4 -0.12,0.1133 -0.2633,0.19 -0.43,0.23 0.02,0.1667 0.0067,0.3067 -0.04,0.42 -0.0467,0.1133 -0.11,0.2083 -0.19,0.285 -0.08,0.0767 -0.1733,0.1333 -0.28,0.17 -0.1067,0.0367 -0.2133,0.0583 -0.32,0.065 -0.08,0 -0.1667,-0.015 -0.26,-0.045 -0.0933,-0.03 -0.1767,-0.0733 -0.25,-0.13 -0.0733,-0.0567 -0.125,-0.125 -0.155,-0.205 -0.03,-0.08 -0.0183,-0.1667 0.035,-0.26 0.04,-0.0333 0.095,-0.0567 0.165,-0.07 0.07,-0.0133 0.1283,0.0167 0.175,0.09 0.04,0.0533 0.0517,0.115 0.035,0.185 -0.0167,0.07 -0.0517,0.1217 -0.105,0.155 0.1121,0.0933 0.2225,0.14 0.3313,0.14 0.1088,0 0.2061,-0.03 0.2918,-0.09 0.0858,-0.06 0.155,-0.1483 0.2078,-0.265 0.0527,-0.1167 0.0791,-0.2517 0.0791,-0.405 -0.2533,0 -0.4783,-0.0417 -0.675,-0.125 -0.1967,-0.0833 -0.3567,-0.1983 -0.48,-0.345 -0.1233,-0.1467 -0.21,-0.315 -0.26,-0.505 -0.05,-0.19 -0.055,-0.395 -0.015,-0.615 0.04,-0.2267 0.1117,-0.4233 0.215,-0.59 0.1033,-0.1667 0.2233,-0.3133 0.36,-0.44 0.1367,-0.1267 0.2767,-0.2417 0.42,-0.345 0.1433,-0.1033 0.275,-0.2117 0.395,-0.325 -0.02,-0.1 -0.035,-0.2533 -0.045,-0.46 -0.01,-0.2067 0,-0.4133 0.03,-0.62 0.03,-0.2067 0.0882,-0.385 0.1745,-0.535 0.0863,-0.15 0.2064,-0.2217 0.3605,-0.215 0.1133,0 0.205,0.0333 0.275,0.1 0.07,0.0667 0.1217,0.1517 0.155,0.255 0.0333,0.1033 0.0517,0.2167 0.055,0.34 0.0033,0.1233 -0.005,0.2383 -0.025,0.345 -0.0533,0.2867 -0.16,0.5183 -0.32,0.695 -0.16,0.1767 -0.3148,0.335 -0.4644,0.475 v 0.31 c 0,0.0867 0.0017,0.175 0.0052,0.265 0.0034,0.09 0.0086,0.1683 0.0155,0.235 m -0.1763,1.91 c 0.02,-0.3133 0.035,-0.61 0.045,-0.89 0.01,-0.28 0.015,-0.57 0.015,-0.87 -0.1275,0.0133 -0.246,0.0783 -0.3556,0.195 -0.1096,0.1167 -0.1711,0.2783 -0.1844,0.485 -0.0067,0.08 0.0017,0.15 0.025,0.21 0.0233,0.06 0.0517,0.115 0.085,0.165 0.0333,0.05 0.07,0.1 0.11,0.15 0.04,0.05 0.0733,0.1017 0.1,0.155 -0.2,-0.0733 -0.34,-0.1917 -0.42,-0.355 -0.08,-0.1633 -0.105,-0.3267 -0.075,-0.49 0.03,-0.1633 0.105,-0.3117 0.225,-0.445 0.12,-0.1333 0.2767,-0.2067 0.47,-0.22 0,-0.12 -0.0014,-0.2367 -0.0041,-0.35 -0.0028,-0.1133 -0.0181,-0.2167 -0.0459,-0.31 -0.0733,0.0667 -0.1583,0.1433 -0.255,0.23 -0.0967,0.0867 -0.195,0.18 -0.295,0.28 -0.1,0.1 -0.19,0.2083 -0.27,0.325 -0.08,0.1167 -0.14,0.2417 -0.18,0.375 -0.06,0.2 -0.075,0.3833 -0.045,0.55 0.03,0.1667 0.0933,0.3117 0.19,0.435 0.0967,0.1233 0.2217,0.2183 0.375,0.285 0.1533,0.0667 0.3167,0.0967 0.49,0.09 m 0.53,-4.76 c -0.12,-0.02 -0.2133,0.0283 -0.28,0.145 -0.0667,0.1167 -0.1133,0.26 -0.14,0.43 -0.0267,0.17 -0.0383,0.3467 -0.035,0.53 0.0033,0.1833 0.0117,0.325 0.025,0.425 0.0667,-0.0333 0.1383,-0.085 0.215,-0.155 0.0767,-0.07 0.145,-0.155 0.205,-0.255 0.06,-0.1 0.11,-0.2083 0.15,-0.325 0.04,-0.1167 0.0633,-0.235 0.07,-0.355 0.0133,-0.0867 0,-0.1767 -0.04,-0.27 -0.04,-0.0933 -0.0967,-0.15 -0.17,-0.17 m -0.25,4.68 c 0.1667,-0.0533 0.2983,-0.165 0.395,-0.335 0.0967,-0.17 0.1467,-0.3483 0.15,-0.535 0.0033,-0.1867 -0.045,-0.3567 -0.145,-0.51 -0.1,-0.1533 -0.2667,-0.2467 -0.5,-0.28 0.02,0.28 0.0417,0.5533 0.065,0.82 0.0233,0.2667 0.035,0.5467 0.035,0.84 m -3.1,-1.71 c -0.0477,-0.06 -0.088,-0.1183 -0.1208,-0.175 -0.0328,-0.0567 -0.0492,-0.1183 -0.0492,-0.185 0,-0.0933 0.0667,-0.195 0.2,-0.305 0.1333,-0.11 0.3167,-0.2117 0.55,-0.305 0.2333,-0.0933 0.505,-0.1717 0.815,-0.235 0.31,-0.0633 0.6417,-0.095 0.995,-0.095 l -0.1209,0.09 c -0.0539,0.0467 -0.1127,0.0917 -0.1766,0.135 -0.0639,0.0433 -0.1227,0.0917 -0.1764,0.145 -0.269,0.0267 -0.5211,0.065 -0.7563,0.115 -0.2353,0.05 -0.4403,0.1067 -0.6151,0.17 -0.1748,0.0633 -0.3126,0.1283 -0.4135,0.195 -0.1008,0.0667 -0.1512,0.1333 -0.1512,0.2 0,0.0133 0,0.0267 0,0.04 0,0.0133 0.0067,0.0267 0.02,0.04 0.0068,-0.0533 0.0574,-0.1083 0.1518,-0.165 0.0944,-0.0567 0.2175,-0.11 0.3693,-0.16 0.1518,-0.05 0.3305,-0.095 0.5362,-0.135 0.2058,-0.04 0.4233,-0.0767 0.6527,-0.11 -0.0334,0.04 -0.0685,0.08 -0.1053,0.12 -0.0368,0.04 -0.0719,0.0833 -0.1053,0.13 -0.4415,0.0667 -0.7893,0.1617 -1.0434,0.285 -0.2541,0.1233 -0.3945,0.2417 -0.4213,0.355 0.0535,-0.0867 0.2041,-0.1683 0.4518,-0.245 0.2476,-0.0767 0.5421,-0.1417 0.8835,-0.195 -0.0533,0.0933 -0.0983,0.1917 -0.135,0.295 -0.0367,0.1033 -0.065,0.215 -0.085,0.335 -0.0133,0.0733 -0.0217,0.1417 -0.025,0.205 -0.0033,0.0633 -0.005,0.125 -0.005,0.185 -0.1933,0.02 -0.36,0.04 -0.5,0.06 v -0.53 c 0,0 -0.0116,-0.01 -0.0347,-0.03 -0.0076,-0.0067 -0.0152,-0.01 -0.023,-0.01 -0.0384,0.0133 -0.0615,0.0233 -0.0692,0.03 -0.0077,0.0067 -0.0154,0.01 -0.0231,0.01 v 0.57 c -0.129,0.0267 -0.2289,0.0533 -0.2998,0.08 -0.071,0.0267 -0.1226,0.05 -0.1549,0.07 l -0.0153,-0.98 m 3.35,-0.93 c 0.0471,-0.0467 0.0942,-0.095 0.1413,-0.145 0.0472,-0.05 0.0943,-0.105 0.1415,-0.165 0.2557,0.04 0.4913,0.095 0.7068,0.165 0.2155,0.07 0.4023,0.145 0.5605,0.225 0.1582,0.08 0.2827,0.1633 0.3736,0.25 0.0909,0.0867 0.1363,0.1667 0.1363,0.24 0,0.0667 -0.0217,0.1283 -0.065,0.185 -0.0433,0.0567 -0.0917,0.115 -0.145,0.175 v 0.98 c -0.0345,-0.02 -0.0896,-0.0433 -0.1654,-0.07 -0.0758,-0.0267 -0.1756,-0.0533 -0.2996,-0.08 v -0.57 c -0.0069,0 -0.0138,-0.0033 -0.0206,-0.01 -0.0276,-0.0133 -0.0552,-0.0233 -0.0827,-0.03 -0.0138,0 -0.0242,0.0033 -0.0311,0.01 -0.0137,0.0133 -0.0206,0.0233 -0.0206,0.03 v 0.53 c -0.06,-0.0133 -0.1283,-0.0217 -0.205,-0.025 -0.0767,-0.0033 -0.1617,-0.0117 -0.255,-0.025 v -0.06 c -0.02,-0.1733 -0.0567,-0.3167 -0.11,-0.43 v -0.1 c 0,-0.0267 -0.0233,-0.04 -0.07,-0.04 -0.1533,-0.2467 -0.39,-0.4 -0.71,-0.46 0.2351,0.0133 0.4618,0.0367 0.6801,0.07 0.2183,0.0333 0.4164,0.0733 0.5944,0.12 0.1781,0.0467 0.3258,0.0967 0.4434,0.15 0.1175,0.0533 0.1931,0.1067 0.2266,0.16 -0.0333,-0.1333 -0.2216,-0.2717 -0.565,-0.415 -0.3433,-0.1433 -0.805,-0.2383 -1.385,-0.285 -0.0066,-0.04 -0.01,-0.08 -0.01,-0.12 0,-0.04 0,-0.0767 0,-0.11 0.2534,0.0267 0.4984,0.0617 0.735,0.105 0.2367,0.0433 0.445,0.0917 0.625,0.145 0.18,0.0533 0.325,0.1117 0.435,0.175 0.11,0.0633 0.1726,0.125 0.1878,0.185 0.0151,-0.0133 0.0227,-0.0267 0.0227,-0.04 0,-0.0133 0,-0.0267 0,-0.04 0,-0.0667 -0.0489,-0.1333 -0.1466,-0.2 -0.0977,-0.0667 -0.2308,-0.13 -0.3993,-0.19 -0.1684,-0.06 -0.3673,-0.115 -0.5964,-0.165 -0.2291,-0.05 -0.4717,-0.0917 -0.7277,-0.125 m -3.35,2.0258 c 0.0609,-0.0325 0.193,-0.0618 0.3963,-0.0878 0.2033,-0.0259 0.4541,-0.052 0.7523,-0.078 0.0203,0.1098 0.0508,0.2131 0.0914,0.31 -0.2575,0.0133 -0.493,0.0267 -0.7064,0.04 -0.2134,0.0133 -0.3913,0.0267 -0.5336,0.04 v -0.2242 m 4.08,0.1442 c 0.0333,-0.1097 0.05,-0.2097 0.05,-0.3 0.28,0.0195 0.5133,0.0422 0.7,0.0682 0.1867,0.026 0.31,0.0552 0.37,0.0877 v 0.2241 c -0.1333,-0.0133 -0.295,-0.0267 -0.485,-0.04 -0.19,-0.0133 -0.4017,-0.0267 -0.635,-0.04"
         fill-rule="evenodd"
         vector-effect="none" />
    </g>
    <g
       id="g30"
       font-style="normal"
       font-weight="400"
       font-size="8.25px"
       font-family="'MS Shell Dlg 2'"
       transform="scale(1.33333)"
       stroke="none"
       fill="none" />
    <g
       id="g32"
       font-style="normal"
       font-weight="400"
       font-size="8.25px"
       font-family="'MS Shell Dlg 2'"
       stroke="none"
       fill="none" />
    <g
       id="g34"
       font-style="normal"
       font-weight="400"
       font-size="8.25px"
       font-family="'MS Shell Dlg 2'"
       stroke-linejoin="bevel"
       stroke-linecap="square"
       stroke-width="1"
       stroke-opacity="1"
       stroke="#000000"
       fill="none" />
  </g>
</svg>
