<?xml version="1.0" encoding="UTF-8" standalone="no"?>
<svg width="11.2889mm" height="11.2889mm"
 viewBox="0 0 32 32"
 xmlns="http://www.w3.org/2000/svg" xmlns:xlink="http://www.w3.org/1999/xlink"  version="1.2" baseProfile="tiny">
<title>Qt SVG Document</title>
<desc>Generated with Qt</desc>
<defs>
</defs>
<g fill="none" stroke="black" stroke-width="1" fill-rule="evenodd" stroke-linecap="square" stroke-linejoin="bevel" >

<g fill="#33a02c" fill-opacity="1" stroke="none" transform="matrix(1,0,0,1,0,0)"
font-family="MS Shell Dlg 2" font-size="8.25" font-weight="400" font-style="normal" 
>
<path vector-effect="none" fill-rule="evenodd" d="M21.402,17.114 C21.402,17.87 21.2597,18.5817 20.975,19.249 C20.6903,19.9163 20.2983,20.4973 19.799,20.992 C19.2997,21.4867 18.7163,21.8763 18.049,22.161 C17.3817,22.4457 16.67,22.588 15.914,22.588 C15.158,22.588 14.4463,22.4457 13.779,22.161 C13.1117,21.8763 12.5307,21.4867 12.036,20.992 C11.5413,20.4973 11.1517,19.9163 10.867,19.249 C10.5823,18.5817 10.44,17.87 10.44,17.114 C10.44,16.358 10.5823,15.6463 10.867,14.979 C11.1517,14.3117 11.5413,13.7283 12.036,13.229 C12.5307,12.7297 13.1117,12.3377 13.779,12.053 C14.4463,11.7683 15.158,11.626 15.914,11.626 C16.67,11.626 17.3817,11.7683 18.049,12.053 C18.7163,12.3377 19.2997,12.7297 19.799,13.229 C20.2983,13.7283 20.6903,14.3117 20.975,14.979 C21.2597,15.6463 21.402,16.358 21.402,17.114 "/>
</g>

<g fill="#33a02c" fill-opacity="1" stroke="none" transform="matrix(1,0,0,1,0,0)"
font-family="MS Shell Dlg 2" font-size="8.25" font-weight="400" font-style="normal" 
>
</g>

<g fill="#ffffff" fill-opacity="1" stroke="none" transform="matrix(1,0,0,1,0,0)"
font-family="MS Shell Dlg 2" font-size="8.25" font-weight="400" font-style="normal" 
>
<path vector-effect="none" fill-rule="evenodd" d="M15.4,14.84 C15.28,14.84 15.18,14.7983 15.1,14.715 C15.02,14.6317 14.98,14.5333 14.98,14.42 C14.98,14.3 15.02,14.2017 15.1,14.125 C15.18,14.0483 15.28,14.01 15.4,14.01 C15.5133,14.01 15.6117,14.0483 15.695,14.125 C15.7783,14.2017 15.82,14.3 15.82,14.42 C15.82,14.5333 15.7783,14.6317 15.695,14.715 C15.6117,14.7983 15.5133,14.84 15.4,14.84 M18.87,15.52 C18.9433,15.5667 18.9883,15.6283 19.005,15.705 C19.0217,15.7817 19.0133,15.8533 18.98,15.92 C18.9467,15.9733 18.9017,16.0117 18.845,16.035 C18.7883,16.0583 18.7333,16.0633 18.68,16.05 L18.61,16.05 C18.5633,16.2167 18.475,16.35 18.345,16.45 C18.215,16.55 18.0633,16.6 17.89,16.6 C17.8567,16.6 17.8233,16.6 17.79,16.6 C17.7567,16.6 17.7233,16.5933 17.69,16.58 L17.07,17.85 L17.07,19.61 C17.07,19.69 17.0433,19.755 16.99,19.805 C16.9367,19.855 16.8767,19.88 16.81,19.88 C16.73,19.88 16.6617,19.855 16.605,19.805 C16.5483,19.755 16.52,19.69 16.52,19.61 L16.52,17.81 L15.14,17.81 L14.9,18.25 L15.42,19.48 C15.4533,19.5467 15.4617,19.615 15.445,19.685 C15.4283,19.755 15.3833,19.81 15.31,19.85 C15.2433,19.8833 15.1733,19.8917 15.1,19.875 C15.0267,19.8583 14.9733,19.8133 14.94,19.74 L14.35,18.32 L14.35,17.88 L14.05,18.29 L14.05,19.61 C14.05,19.69 14.025,19.755 13.975,19.805 C13.925,19.855 13.8633,19.88 13.79,19.88 C13.71,19.88 13.6417,19.855 13.585,19.805 C13.5283,19.755 13.5,19.69 13.5,19.61 L13.5,18.1 L13.74,17.74 L13.74,16.53 L13.52,16.89 L13.52,17.88 L13.09,17.88 L13.09,16.86 C13.09,16.6933 13.1483,16.5533 13.265,16.44 C13.3817,16.3267 13.5233,16.27 13.69,16.27 L14.98,16.27 L14.98,15.35 C14.98,15.2367 15.0183,15.1383 15.095,15.055 C15.1717,14.9717 15.2667,14.93 15.38,14.93 C15.5,14.93 15.6,14.9717 15.68,15.055 C15.76,15.1383 15.8,15.2367 15.8,15.35 L15.8,15.48 L16.41,15.66 C16.5367,15.6867 16.59,15.76 16.57,15.88 C16.5367,16 16.4567,16.05 16.33,16.03 L15.8,15.92 L15.8,16.27 L16.41,16.27 L18.08,14.53 L18.04,14.97 L18.87,15.52 M17.89,16.45 C18.03,16.45 18.1517,16.41 18.255,16.33 C18.3583,16.25 18.4267,16.15 18.46,16.03 L18.02,15.94 L17.78,16.45 L17.89,16.45"/>
</g>

<g fill="#ffffff" fill-opacity="1" stroke="none" transform="matrix(1,0,0,1,0,0)"
font-family="MS Shell Dlg 2" font-size="8.25" font-weight="400" font-style="normal" 
>
</g>
</g>
</svg>
