<?xml version="1.0" encoding="UTF-8" standalone="no"?>
<svg
   xmlns:dc="http://purl.org/dc/elements/1.1/"
   xmlns:cc="http://creativecommons.org/ns#"
   xmlns:rdf="http://www.w3.org/1999/02/22-rdf-syntax-ns#"
   xmlns:svg="http://www.w3.org/2000/svg"
   xmlns="http://www.w3.org/2000/svg"
   xmlns:sodipodi="http://sodipodi.sourceforge.net/DTD/sodipodi-0.dtd"
   xmlns:inkscape="http://www.inkscape.org/namespaces/inkscape"
   width="3.8671539mm"
   height="3.8671539mm"
   viewBox="0 0 10.962 10.962"
   version="1.2"
   id="svg38"
   sodipodi:docname="200k_15.svg"
   inkscape:version="1.0 (4035a4fb49, 2020-05-01)">
  <metadata
     id="metadata42">
    <rdf:RDF>
      <cc:Work
         rdf:about="">
        <dc:format>image/svg+xml</dc:format>
        <dc:type
           rdf:resource="http://purl.org/dc/dcmitype/StillImage" />
      </cc:Work>
    </rdf:RDF>
  </metadata>
  <sodipodi:namedview
     inkscape:document-rotation="0"
     pagecolor="#ffffff"
     bordercolor="#666666"
     borderopacity="1"
     objecttolerance="10"
     gridtolerance="10"
     guidetolerance="10"
     inkscape:pageopacity="0"
     inkscape:pageshadow="2"
     inkscape:window-width="1920"
     inkscape:window-height="1013"
     id="namedview40"
     showgrid="false"
     inkscape:zoom="8.6543754"
     inkscape:cx="-2.1270354"
     inkscape:cy="0.84383271"
     inkscape:window-x="-9"
     inkscape:window-y="-9"
     inkscape:window-maximized="1"
     inkscape:current-layer="svg38" />
  <title
     id="title2">Qt SVG Document</title>
  <desc
     id="desc4">Generated with Qt</desc>
  <defs
     id="defs6" />
  <g
     fill="none"
     stroke="#000000"
     stroke-width="1"
     fill-rule="evenodd"
     stroke-linecap="square"
     stroke-linejoin="bevel"
     id="g36"
     transform="translate(-10.44,-11.626)">
    <g
       fill="none"
       stroke="none"
       font-family="'MS Shell Dlg 2'"
       font-size="8.25px"
       font-weight="400"
       font-style="normal"
       id="g8" />
    <g
       fill="none"
       stroke="none"
       transform="scale(1.33333)"
       font-family="'MS Shell Dlg 2'"
       font-size="8.25px"
       font-weight="400"
       font-style="normal"
       id="g10" />
    <g
       fill="#b75800"
       fill-opacity="1"
       stroke="none"
       font-family="'MS Shell Dlg 2'"
       font-size="8.25px"
       font-weight="400"
       font-style="normal"
       id="g14">
      <path
         vector-effect="none"
         fill-rule="evenodd"
         d="m 21.402,17.114 c 0,0.756 -0.1423,1.4677 -0.427,2.135 -0.2847,0.6673 -0.6767,1.2483 -1.176,1.743 -0.4993,0.4947 -1.0827,0.8843 -1.75,1.169 -0.6673,0.2847 -1.379,0.427 -2.135,0.427 -0.756,0 -1.4677,-0.1423 -2.135,-0.427 -0.6673,-0.2847 -1.2483,-0.6743 -1.743,-1.169 -0.4947,-0.4947 -0.8843,-1.0757 -1.169,-1.743 -0.2847,-0.6673 -0.427,-1.379 -0.427,-2.135 0,-0.756 0.1423,-1.4677 0.427,-2.135 0.2847,-0.6673 0.6743,-1.2507 1.169,-1.75 0.4947,-0.4993 1.0757,-0.8913 1.743,-1.176 0.6673,-0.2847 1.379,-0.427 2.135,-0.427 0.756,0 1.4677,0.1423 2.135,0.427 0.6673,0.2847 1.2507,0.6767 1.75,1.176 0.4993,0.4993 0.8913,1.0827 1.176,1.75 0.2847,0.6673 0.427,1.379 0.427,2.135"
         id="path12" />
    </g>
    <g
       fill="none"
       stroke="none"
       transform="scale(1.33333)"
       font-family="'MS Shell Dlg 2'"
       font-size="8.25px"
       font-weight="400"
       font-style="normal"
       id="g16" />
    <g
       fill="none"
       stroke="none"
       font-family="'MS Shell Dlg 2'"
       font-size="8.25px"
       font-weight="400"
       font-style="normal"
       id="g18" />
    <g
       fill="none"
       stroke="#000000"
       stroke-opacity="1"
       stroke-width="1"
       stroke-linecap="square"
       stroke-linejoin="bevel"
       font-family="'MS Shell Dlg 2'"
       font-size="8.25px"
       font-weight="400"
       font-style="normal"
       id="g20" />
    <g
       fill="none"
       stroke="none"
       font-family="'MS Shell Dlg 2'"
       font-size="8.25px"
       font-weight="400"
       font-style="normal"
       id="g22" />
    <g
       fill="none"
       stroke="none"
       transform="scale(1.33333)"
       font-family="'MS Shell Dlg 2'"
       font-size="8.25px"
       font-weight="400"
       font-style="normal"
       id="g24" />
    <g
       fill="#ffffff"
       fill-opacity="1"
       stroke="none"
       font-family="'MS Shell Dlg 2'"
       font-size="8.25px"
       font-weight="400"
       font-style="normal"
       id="g28">
      <path
         vector-effect="none"
         fill-rule="evenodd"
         d="m 14.566956,19.232 c -0.1,0.1333 -0.18,0.2533 -0.24,0.36 -0.06,0.1067 -0.0733,0.19 -0.04,0.25 h -0.17 c -0.16,0 -0.2183,-0.0633 -0.175,-0.19 0.0433,-0.1267 0.1383,-0.2867 0.285,-0.48 0,-0.1 0.0233,-0.19 0.07,-0.27 0.0467,-0.08 0.1,-0.1533 0.16,-0.22 0.06,-0.0667 0.12,-0.13 0.18,-0.19 0.06,-0.06 0.1067,-0.12 0.14,-0.18 -0.02,-0.12 -0.0367,-0.2483 -0.05,-0.385 -0.0133,-0.1367 -0.03,-0.2817 -0.05,-0.435 -0.02,-0.16 -0.0483,-0.3167 -0.085,-0.47 -0.0367,-0.1533 -0.07,-0.3 -0.1,-0.44 -0.03,-0.14 -0.0517,-0.2783 -0.065,-0.415 -0.0133,-0.1367 -0.0067,-0.2717 0.02,-0.405 0.0067,-0.04 0.0267,-0.1067 0.06,-0.2 0.0333,-0.0933 0.0683,-0.19 0.105,-0.29 0.0367,-0.1 0.0733,-0.195 0.11,-0.285 0.0367,-0.09 0.0617,-0.1583 0.075,-0.205 0.0467,-0.14 0.105,-0.2483 0.175,-0.325 0.07,-0.0767 0.145,-0.1317 0.225,-0.165 0.08,-0.0333 0.165,-0.0533 0.255,-0.06 0.09,-0.0067 0.1783,-0.01 0.265,-0.01 0.04,0 0.0767,0.0083 0.11,0.025 0.0333,0.0167 0.07,0.0317 0.11,0.045 -0.16,0 -0.3117,0.0317 -0.455,0.095 -0.1433,0.0633 -0.2617,0.2217 -0.355,0.475 -0.0133,0.04 -0.0367,0.105 -0.07,0.195 -0.0333,0.09 -0.0683,0.185 -0.105,0.285 -0.0367,0.1 -0.0733,0.1967 -0.11,0.29 -0.0367,0.0933 -0.0583,0.1633 -0.065,0.21 -0.0267,0.1333 -0.0317,0.2683 -0.015,0.405 0.0167,0.1367 0.0417,0.275 0.075,0.415 0.0333,0.14 0.0683,0.2833 0.105,0.43 0.0367,0.1467 0.0617,0.3 0.075,0.46 0.02,0.1667 0.035,0.3183 0.045,0.455 0.01,0.1367 0.025,0.265 0.045,0.385 -0.0267,0.06 -0.07,0.1183 -0.13,0.175 -0.06,0.0567 -0.12,0.1183 -0.18,0.185 -0.06,0.0667 -0.1133,0.1383 -0.16,0.215 -0.0467,0.0767 -0.07,0.165 -0.07,0.265 m 1.62,-2.51 c -0.0333,0.02 -0.06,0.045 -0.08,0.075 -0.02,0.03 -0.0467,0.065 -0.08,0.105 -0.0133,0.0333 -0.0333,0.0633 -0.06,0.09 -0.0267,0.0267 -0.05,0.05 -0.07,0.07 -0.0133,-0.0333 -0.02,-0.0683 -0.02,-0.105 0,-0.0367 0,-0.075 0,-0.115 -0.0133,-0.18 -0.0067,-0.3517 0.02,-0.515 0.0267,-0.1633 0.0617,-0.31 0.105,-0.44 0.0433,-0.13 0.0883,-0.2417 0.135,-0.335 0.0467,-0.0933 0.0833,-0.16 0.11,-0.2 0.0333,0.02 0.08,0.0533 0.14,0.1 0.06,0.0467 0.1217,0.1133 0.185,0.2 0.0633,0.0867 0.12,0.195 0.17,0.325 0.05,0.13 0.0817,0.2883 0.095,0.475 0,0.0333 0.0033,0.0667 0.01,0.1 0.0067,0.0333 0.01,0.0667 0.01,0.1 -0.0133,0.0067 -0.0333,0.01 -0.06,0.01 l -0.04,0.02 c -0.0533,0.02 -0.0967,0.0283 -0.13,0.025 -0.0333,-0.0033 -0.07,-0.0117 -0.11,-0.025 -0.0533,-0.0133 -0.1067,-0.0183 -0.16,-0.015 -0.0533,0.0033 -0.11,0.0217 -0.17,0.055 m 0.1,-0.86 c -0.0733,0.0333 -0.135,0.0917 -0.185,0.175 -0.05,0.0833 -0.0683,0.1683 -0.055,0.255 0,0.08 0.025,0.1417 0.075,0.185 0.05,0.0433 0.1117,0.055 0.185,0.035 0.0133,0 0.02,-0.0033 0.02,-0.01 0,-0.0067 0.0067,-0.01 0.02,-0.01 0.0667,-0.0333 0.125,-0.0917 0.175,-0.175 0.05,-0.0833 0.0683,-0.1683 0.055,-0.255 0,-0.08 -0.0283,-0.1417 -0.085,-0.185 -0.0567,-0.0433 -0.125,-0.0483 -0.205,-0.015 m 0.04,0.47 c -0.04,0.02 -0.0767,0.0217 -0.11,0.005 -0.0333,-0.0167 -0.05,-0.0517 -0.05,-0.105 0,-0.0333 0.0133,-0.0717 0.04,-0.115 0.0267,-0.0433 0.06,-0.075 0.1,-0.095 h 0.02 c 0.0933,-0.02 0.14,0.0133 0.14,0.1 0,0.0333 -0.0133,0.0717 -0.04,0.115 -0.0267,0.0433 -0.06,0.075 -0.1,0.095 m 0.17,2.08 c 0.0133,0.0533 0.0333,0.1 0.06,0.14 0.0267,0.04 0.0667,0.09 0.12,0.15 0.0333,0.04 0.0667,0.085 0.1,0.135 0.0333,0.05 0.0667,0.105 0.1,0.165 l -0.67,0.27 c 0.02,-0.08 0.0467,-0.16 0.08,-0.24 0.0333,-0.08 0.0667,-0.1567 0.1,-0.23 0.08,-0.1933 0.11,-0.3167 0.09,-0.37 0,-0.0333 -0.005,-0.0633 -0.015,-0.09 -0.01,-0.0267 -0.035,-0.07 -0.075,-0.13 -0.0733,-0.0933 -0.155,-0.225 -0.245,-0.395 -0.09,-0.17 -0.1583,-0.3717 -0.205,-0.605 0.0333,-0.0333 0.0617,-0.0667 0.085,-0.1 0.0233,-0.0333 0.0517,-0.07 0.085,-0.11 0.02,-0.0333 0.04,-0.0617 0.06,-0.085 0.02,-0.0233 0.04,-0.0417 0.06,-0.055 0.0933,-0.0467 0.1733,-0.0533 0.24,-0.02 0.12,0.0467 0.2367,0.04 0.35,-0.02 h 0.02 c -0.0133,0.2533 -0.05,0.4917 -0.11,0.715 -0.06,0.2233 -0.11,0.4083 -0.15,0.555 -0.0333,0.0933 -0.055,0.1617 -0.065,0.205 -0.01,0.0433 -0.015,0.0817 -0.015,0.115 m 1.34,0.92 c 0.0667,0.0667 0.09,0.1383 0.07,0.215 -0.02,0.0767 -0.065,0.1483 -0.135,0.215 -0.07,0.0667 -0.1517,0.1217 -0.245,0.165 -0.0933,0.0433 -0.18,0.065 -0.26,0.065 h -2.53 c -0.1533,0 -0.2067,-0.0617 -0.16,-0.185 0.0467,-0.1233 0.1467,-0.2817 0.3,-0.475 -0.0067,-0.1 0.0117,-0.1867 0.055,-0.26 0.0433,-0.0733 0.0967,-0.1433 0.16,-0.21 0.0633,-0.0667 0.1267,-0.13 0.19,-0.19 0.0633,-0.06 0.1117,-0.12 0.145,-0.18 -0.02,-0.12 -0.04,-0.2483 -0.06,-0.385 -0.02,-0.1367 -0.04,-0.285 -0.06,-0.445 -0.0133,-0.16 -0.0383,-0.315 -0.075,-0.465 -0.0367,-0.15 -0.07,-0.295 -0.1,-0.435 -0.03,-0.14 -0.0533,-0.2783 -0.07,-0.415 -0.0167,-0.1367 -0.015,-0.2717 0.005,-0.405 0.0067,-0.0467 0.0283,-0.1167 0.065,-0.21 0.0367,-0.0933 0.075,-0.19 0.115,-0.29 0.04,-0.1 0.0767,-0.1933 0.11,-0.28 0.0333,-0.0867 0.0567,-0.1533 0.07,-0.2 0.0467,-0.14 0.105,-0.25 0.175,-0.33 0.07,-0.08 0.1467,-0.1367 0.23,-0.17 0.0833,-0.0333 0.1683,-0.0533 0.255,-0.06 0.0867,-0.0067 0.1733,-0.01 0.26,-0.01 0.1867,0 0.3417,0.13 0.465,0.39 0.1233,0.26 0.2483,0.6 0.375,1.02 0.0333,0.08 0.0883,0.15 0.165,0.21 0.0767,0.06 0.125,0.1333 0.145,0.22 0.0467,0.18 0.08,0.3567 0.1,0.53 0.02,0.1733 0.0333,0.355 0.04,0.545 0.0067,0.19 0.0067,0.3917 0,0.605 -0.0067,0.2133 -0.0133,0.45 -0.02,0.71 0.02,0.0333 0.035,0.08 0.045,0.14 0.01,0.06 0.0217,0.125 0.035,0.195 0.0133,0.07 0.03,0.1383 0.05,0.205 0.02,0.0667 0.05,0.1233 0.09,0.17 m -0.77,-0.26 -0.04,-0.09 c -0.0333,-0.08 -0.0733,-0.155 -0.12,-0.225 -0.0467,-0.07 -0.0967,-0.135 -0.15,-0.195 -0.0333,-0.0333 -0.065,-0.0683 -0.095,-0.105 -0.03,-0.0367 -0.045,-0.065 -0.045,-0.085 0,-0.02 0.0083,-0.0517 0.025,-0.095 0.0167,-0.0433 0.035,-0.0917 0.055,-0.145 0.0267,-0.0933 0.0567,-0.2033 0.09,-0.33 0.0333,-0.1267 0.065,-0.2667 0.095,-0.42 0.03,-0.1533 0.0517,-0.3133 0.065,-0.48 0.0133,-0.1667 0.0133,-0.3367 0,-0.51 -0.0133,-0.2333 -0.0533,-0.4283 -0.12,-0.585 -0.0667,-0.1567 -0.14,-0.2817 -0.22,-0.375 -0.08,-0.0933 -0.155,-0.1583 -0.225,-0.195 -0.07,-0.0367 -0.1083,-0.055 -0.115,-0.055 l -0.02,-0.02 -0.04,0.04 c -0.0067,0.0133 -0.0367,0.0633 -0.09,0.15 -0.0533,0.0867 -0.1117,0.205 -0.175,0.355 -0.0633,0.15 -0.1167,0.3267 -0.16,0.53 -0.0433,0.2033 -0.0583,0.425 -0.045,0.665 0.0333,0.3533 0.11,0.6467 0.23,0.88 0.12,0.2333 0.2267,0.4167 0.32,0.55 0.02,0.0333 0.0383,0.0617 0.055,0.085 0.0167,0.0233 0.025,0.0417 0.025,0.055 0,0.02 -0.0117,0.0567 -0.035,0.11 -0.0233,0.0533 -0.045,0.1067 -0.065,0.16 -0.04,0.1 -0.0783,0.205 -0.115,0.315 -0.0367,0.11 -0.065,0.2217 -0.085,0.335 l -0.02,0.11 1.02,-0.43"
         id="path26" />
    </g>
    <g
       fill="none"
       stroke="none"
       transform="scale(1.33333)"
       font-family="'MS Shell Dlg 2'"
       font-size="8.25px"
       font-weight="400"
       font-style="normal"
       id="g30" />
    <g
       fill="none"
       stroke="none"
       font-family="'MS Shell Dlg 2'"
       font-size="8.25px"
       font-weight="400"
       font-style="normal"
       id="g32" />
    <g
       fill="none"
       stroke="#000000"
       stroke-opacity="1"
       stroke-width="1"
       stroke-linecap="square"
       stroke-linejoin="bevel"
       font-family="'MS Shell Dlg 2'"
       font-size="8.25px"
       font-weight="400"
       font-style="normal"
       id="g34" />
  </g>
</svg>
