<?xml version="1.0" encoding="UTF-8" standalone="no"?>
<svg
   xmlns:dc="http://purl.org/dc/elements/1.1/"
   xmlns:cc="http://creativecommons.org/ns#"
   xmlns:rdf="http://www.w3.org/1999/02/22-rdf-syntax-ns#"
   xmlns:svg="http://www.w3.org/2000/svg"
   xmlns="http://www.w3.org/2000/svg"
   xmlns:sodipodi="http://sodipodi.sourceforge.net/DTD/sodipodi-0.dtd"
   xmlns:inkscape="http://www.inkscape.org/namespaces/inkscape"
   inkscape:version="1.0 (4035a4fb49, 2020-05-01)"
   sodipodi:docname="200k_43.svg"
   id="svg38"
   version="1.2"
   viewBox="0 0 10.962 10.962"
   height="3.8671539mm"
   width="3.8671539mm">
  <metadata
     id="metadata42">
    <rdf:RDF>
      <cc:Work
         rdf:about="">
        <dc:format>image/svg+xml</dc:format>
        <dc:type
           rdf:resource="http://purl.org/dc/dcmitype/StillImage" />
      </cc:Work>
    </rdf:RDF>
  </metadata>
  <sodipodi:namedview
     inkscape:current-layer="svg38"
     inkscape:window-maximized="1"
     inkscape:window-y="-9"
     inkscape:window-x="-9"
     inkscape:cy="5.832006"
     inkscape:cx="7.4133409"
     inkscape:zoom="18.047943"
     showgrid="false"
     id="namedview40"
     inkscape:window-height="1013"
     inkscape:window-width="1920"
     inkscape:pageshadow="2"
     inkscape:pageopacity="0"
     guidetolerance="10"
     gridtolerance="10"
     objecttolerance="10"
     borderopacity="1"
     bordercolor="#666666"
     pagecolor="#ffffff" />
  <title
     id="title2">Qt SVG Document</title>
  <desc
     id="desc4">Generated with Qt</desc>
  <defs
     id="defs6" />
  <g
     transform="translate(-10.44,-11.626)"
     id="g36"
     stroke-linejoin="bevel"
     stroke-linecap="square"
     fill-rule="evenodd"
     stroke-width="1"
     stroke="#000000"
     fill="none">
    <g
       id="g8"
       font-style="normal"
       font-weight="400"
       font-size="8.25px"
       font-family="'MS Shell Dlg 2'"
       stroke="none"
       fill="none" />
    <g
       id="g10"
       font-style="normal"
       font-weight="400"
       font-size="8.25px"
       font-family="'MS Shell Dlg 2'"
       transform="scale(1.33333)"
       stroke="none"
       fill="none" />
    <g
       id="g14"
       font-style="normal"
       font-weight="400"
       font-size="8.25px"
       font-family="'MS Shell Dlg 2'"
       stroke="none"
       fill-opacity="1"
       fill="#a61215">
      <path
         id="path12"
         d="m 21.402,17.114 c 0,0.756 -0.1423,1.4677 -0.427,2.135 -0.2847,0.6673 -0.6767,1.2483 -1.176,1.743 -0.4993,0.4947 -1.0827,0.8843 -1.75,1.169 -0.6673,0.2847 -1.379,0.427 -2.135,0.427 -0.756,0 -1.4677,-0.1423 -2.135,-0.427 -0.6673,-0.2847 -1.2483,-0.6743 -1.743,-1.169 -0.4947,-0.4947 -0.8843,-1.0757 -1.169,-1.743 -0.2847,-0.6673 -0.427,-1.379 -0.427,-2.135 0,-0.756 0.1423,-1.4677 0.427,-2.135 0.2847,-0.6673 0.6743,-1.2507 1.169,-1.75 0.4947,-0.4993 1.0757,-0.8913 1.743,-1.176 0.6673,-0.2847 1.379,-0.427 2.135,-0.427 0.756,0 1.4677,0.1423 2.135,0.427 0.6673,0.2847 1.2507,0.6767 1.75,1.176 0.4993,0.4993 0.8913,1.0827 1.176,1.75 0.2847,0.6673 0.427,1.379 0.427,2.135"
         fill-rule="evenodd"
         vector-effect="none" />
    </g>
    <g
       id="g16"
       font-style="normal"
       font-weight="400"
       font-size="8.25px"
       font-family="'MS Shell Dlg 2'"
       transform="scale(1.33333)"
       stroke="none"
       fill="none" />
    <g
       id="g18"
       font-style="normal"
       font-weight="400"
       font-size="8.25px"
       font-family="'MS Shell Dlg 2'"
       stroke="none"
       fill="none" />
    <g
       id="g20"
       font-style="normal"
       font-weight="400"
       font-size="8.25px"
       font-family="'MS Shell Dlg 2'"
       stroke-linejoin="bevel"
       stroke-linecap="square"
       stroke-width="1"
       stroke-opacity="1"
       stroke="#000000"
       fill="none" />
    <g
       id="g22"
       font-style="normal"
       font-weight="400"
       font-size="8.25px"
       font-family="'MS Shell Dlg 2'"
       stroke="none"
       fill="none" />
    <g
       id="g24"
       font-style="normal"
       font-weight="400"
       font-size="8.25px"
       font-family="'MS Shell Dlg 2'"
       transform="scale(1.33333)"
       stroke="none"
       fill="none" />
    <g
       id="g28"
       font-style="normal"
       font-weight="400"
       font-size="8.25px"
       font-family="'MS Shell Dlg 2'"
       stroke="none"
       fill-opacity="1"
       fill="#ffffff">
      <path
         id="path26"
         d="m 14.066,16.652 h 0.24 v 0.18 l -0.24,0.2 0.04,2.8 h -0.63 l 0.04,-2.8 -0.23,-0.2 v -0.18 h 0.23 l 0.02,-0.72 -0.25,-0.2 v -0.17 h 0.25 v -0.44 c 0,-0.0467 0.0033,-0.1117 0.01,-0.195 0.0067,-0.0833 0.02,-0.165 0.04,-0.245 0.02,-0.08 0.0467,-0.15 0.08,-0.21 0.0333,-0.06 0.0767,-0.09 0.13,-0.09 0.0467,0 0.085,0.03 0.115,0.09 0.03,0.06 0.0533,0.13 0.07,0.21 0.0167,0.08 0.0283,0.1617 0.035,0.245 0.0067,0.0833 0.01,0.1483 0.01,0.195 l 0.02,0.44 h 0.24 v 0.17 l -0.24,0.2 0.02,0.72 m 4.26,-0.72 v 0.72 h 0.23 v 0.18 l -0.23,0.2 0.06,2.8 h -0.65 l 0.04,-2.8 -0.24,-0.2 v -0.18 h 0.26 v -0.72 l -0.24,-0.2 v -0.17 h 0.26 v -0.44 c 0,-0.0467 0.0033,-0.1117 0.01,-0.195 0.0067,-0.0833 0.0183,-0.165 0.035,-0.245 0.0167,-0.08 0.04,-0.15 0.07,-0.21 0.03,-0.06 0.0683,-0.09 0.115,-0.09 0.0467,0 0.0867,0.03 0.12,0.09 0.0333,0.06 0.06,0.13 0.08,0.21 0.02,0.08 0.035,0.1617 0.045,0.245 0.01,0.0833 0.015,0.1483 0.015,0.195 v 0.44 h 0.25 v 0.17 l -0.23,0.2 m -1.57,1.71 h 0.68 v 2.15 h -1.19 v -0.76 c 0,-0.04 -0.0167,-0.0833 -0.05,-0.13 -0.0333,-0.0467 -0.07,-0.0933 -0.11,-0.14 -0.0467,-0.0533 -0.1,-0.1067 -0.16,-0.16 -0.06,0.0533 -0.1133,0.1067 -0.16,0.16 -0.04,0.0467 -0.075,0.0933 -0.105,0.14 -0.03,0.0467 -0.045,0.09 -0.045,0.13 v 0.76 h -1.22 v -2.15 h 0.69 v -0.08 c -0.02,-0.06 -0.0383,-0.1167 -0.055,-0.17 -0.0167,-0.0533 -0.025,-0.11 -0.025,-0.17 0,-0.12 0.0233,-0.2417 0.07,-0.365 0.0467,-0.1233 0.1083,-0.2367 0.185,-0.34 0.0767,-0.1033 0.1683,-0.1883 0.275,-0.255 0.1067,-0.0667 0.22,-0.1067 0.34,-0.12 v -0.29 c -0.12,-0.0133 -0.2267,-0.0517 -0.32,-0.115 -0.0933,-0.0633 -0.1633,-0.1483 -0.21,-0.255 -0.0733,-0.1533 -0.075,-0.305 -0.005,-0.455 0.07,-0.15 0.1883,-0.2617 0.355,-0.335 0.0933,-0.0333 0.185,-0.0483 0.275,-0.045 0.09,0.0033 0.1817,0.0317 0.275,0.085 -0.1333,-0.0467 -0.2467,-0.04 -0.34,0.02 -0.1333,0.0533 -0.2267,0.1383 -0.28,0.255 -0.0533,0.1167 -0.05,0.2417 0.01,0.375 0.0533,0.1133 0.145,0.1967 0.275,0.25 0.13,0.0533 0.2617,0.0533 0.395,0 0.1,-0.0267 0.1833,-0.0967 0.25,-0.21 -0.06,0.1867 -0.1833,0.3167 -0.37,0.39 -0.0333,0.0133 -0.0683,0.0233 -0.105,0.03 -0.0367,0.0067 -0.075,0.01 -0.115,0.01 v 0.29 c 0.12,0.0133 0.2333,0.0533 0.34,0.12 0.1067,0.0667 0.2,0.1517 0.28,0.255 0.08,0.1033 0.1417,0.2167 0.185,0.34 0.0433,0.1233 0.065,0.245 0.065,0.365 0,0.06 -0.005,0.1183 -0.015,0.175 -0.01,0.0567 -0.0317,0.1117 -0.065,0.165 v 0.08"
         fill-rule="evenodd"
         vector-effect="none" />
    </g>
    <g
       id="g30"
       font-style="normal"
       font-weight="400"
       font-size="8.25px"
       font-family="'MS Shell Dlg 2'"
       transform="scale(1.33333)"
       stroke="none"
       fill="none" />
    <g
       id="g32"
       font-style="normal"
       font-weight="400"
       font-size="8.25px"
       font-family="'MS Shell Dlg 2'"
       stroke="none"
       fill="none" />
    <g
       id="g34"
       font-style="normal"
       font-weight="400"
       font-size="8.25px"
       font-family="'MS Shell Dlg 2'"
       stroke-linejoin="bevel"
       stroke-linecap="square"
       stroke-width="1"
       stroke-opacity="1"
       stroke="#000000"
       fill="none" />
  </g>
</svg>
