<?xml version="1.0" encoding="UTF-8" standalone="no"?>
<svg
   xmlns:dc="http://purl.org/dc/elements/1.1/"
   xmlns:cc="http://creativecommons.org/ns#"
   xmlns:rdf="http://www.w3.org/1999/02/22-rdf-syntax-ns#"
   xmlns:svg="http://www.w3.org/2000/svg"
   xmlns="http://www.w3.org/2000/svg"
   xmlns:sodipodi="http://sodipodi.sourceforge.net/DTD/sodipodi-0.dtd"
   xmlns:inkscape="http://www.inkscape.org/namespaces/inkscape"
   inkscape:version="1.0 (4035a4fb49, 2020-05-01)"
   sodipodi:docname="200k_18.svg"
   id="svg22"
   version="1.2"
   viewBox="0 0 10.962 10.962"
   height="3.8671539mm"
   width="3.8671539mm">
  <metadata
     id="metadata26">
    <rdf:RDF>
      <cc:Work
         rdf:about="">
        <dc:format>image/svg+xml</dc:format>
        <dc:type
           rdf:resource="http://purl.org/dc/dcmitype/StillImage" />
      </cc:Work>
    </rdf:RDF>
  </metadata>
  <sodipodi:namedview
     inkscape:current-layer="svg22"
     inkscape:window-maximized="1"
     inkscape:window-y="-9"
     inkscape:window-x="-9"
     inkscape:cy="5.832006"
     inkscape:cx="7.4133409"
     inkscape:zoom="18.047943"
     showgrid="false"
     id="namedview24"
     inkscape:window-height="1013"
     inkscape:window-width="1920"
     inkscape:pageshadow="2"
     inkscape:pageopacity="0"
     guidetolerance="10"
     gridtolerance="10"
     objecttolerance="10"
     borderopacity="1"
     bordercolor="#666666"
     pagecolor="#ffffff" />
  <title
     id="title2">Qt SVG Document</title>
  <desc
     id="desc4">Generated with Qt</desc>
  <defs
     id="defs6" />
  <g
     transform="translate(-10.44,-11.626)"
     id="g20"
     stroke-linejoin="bevel"
     stroke-linecap="square"
     fill-rule="evenodd"
     stroke-width="1"
     stroke="#000000"
     fill="none">
    <g
       id="g10"
       font-style="normal"
       font-weight="400"
       font-size="8.25px"
       font-family="'MS Shell Dlg 2'"
       stroke="none"
       fill-opacity="1"
       fill="#1f78b4">
      <path
         id="path8"
         d="m 21.402,17.114 c 0,0.756 -0.1423,1.4677 -0.427,2.135 -0.2847,0.6673 -0.6767,1.2483 -1.176,1.743 -0.4993,0.4947 -1.0827,0.8843 -1.75,1.169 -0.6673,0.2847 -1.379,0.427 -2.135,0.427 -0.756,0 -1.4677,-0.1423 -2.135,-0.427 -0.6673,-0.2847 -1.2483,-0.6743 -1.743,-1.169 -0.4947,-0.4947 -0.8843,-1.0757 -1.169,-1.743 -0.2847,-0.6673 -0.427,-1.379 -0.427,-2.135 0,-0.756 0.1423,-1.4677 0.427,-2.135 0.2847,-0.6673 0.6743,-1.2507 1.169,-1.75 0.4947,-0.4993 1.0757,-0.8913 1.743,-1.176 0.6673,-0.2847 1.379,-0.427 2.135,-0.427 0.756,0 1.4677,0.1423 2.135,0.427 0.6673,0.2847 1.2507,0.6767 1.75,1.176 0.4993,0.4993 0.8913,1.0827 1.176,1.75 0.2847,0.6673 0.427,1.379 0.427,2.135"
         fill-rule="evenodd"
         vector-effect="none" />
    </g>
    <g
       id="g12"
       font-style="normal"
       font-weight="400"
       font-size="8.25px"
       font-family="'MS Shell Dlg 2'"
       stroke="none"
       fill-opacity="1"
       fill="#1f78b4" />
    <g
       id="g16"
       font-style="normal"
       font-weight="400"
       font-size="8.25px"
       font-family="'MS Shell Dlg 2'"
       stroke="none"
       fill-opacity="1"
       fill="#ffffff">
      <path
         id="path14"
         d="m 18.486,16.167 c 0,0.1333 -0.0383,0.2267 -0.115,0.28 -0.0767,0.0533 -0.1517,0.08 -0.225,0.08 -0.0733,0 -0.1383,-0.0233 -0.195,-0.07 -0.0567,-0.0467 -0.0917,-0.11 -0.105,-0.19 0,-0.0333 0.005,-0.0667 0.015,-0.1 0.01,-0.0333 0.0317,-0.0667 0.065,-0.1 0.0533,-0.0533 0.1167,-0.0683 0.19,-0.045 0.0733,0.0233 0.11,0.0717 0.11,0.145 0,0.04 -0.0233,0.0633 -0.07,0.07 -0.0467,0.0067 -0.07,-0.01 -0.07,-0.05 -0.02,-0.0133 -0.0383,-0.0117 -0.055,0.005 -0.0167,0.0167 -0.025,0.0417 -0.025,0.075 0,0.0333 0.0183,0.0583 0.055,0.075 0.0367,0.0167 0.065,0.025 0.085,0.025 0.02,0 0.055,-0.0133 0.105,-0.04 0.05,-0.0267 0.075,-0.08 0.075,-0.16 0,-0.0933 -0.0333,-0.165 -0.1,-0.215 -0.0667,-0.05 -0.14,-0.075 -0.22,-0.075 h -4.17 c -0.08,0 -0.1533,0.025 -0.22,0.075 -0.0667,0.05 -0.1,0.1217 -0.1,0.215 0,0.08 0.025,0.1333 0.075,0.16 0.05,0.0267 0.085,0.04 0.105,0.04 0.0333,0 0.065,-0.0083 0.095,-0.025 0.03,-0.0167 0.045,-0.0417 0.045,-0.075 0.0133,-0.0333 0.0133,-0.0583 0,-0.075 -0.0133,-0.0167 -0.0267,-0.025 -0.04,-0.025 0,0.04 -0.03,0.06 -0.09,0.06 -0.06,0 -0.09,-0.02 -0.09,-0.06 0,-0.0733 0.0367,-0.1217 0.11,-0.145 0.0733,-0.0233 0.1367,-0.0083 0.19,0.045 0.0333,0.0333 0.055,0.0667 0.065,0.1 0.01,0.0333 0.015,0.0667 0.015,0.1 -0.0133,0.08 -0.0483,0.1433 -0.105,0.19 -0.0567,0.0467 -0.1217,0.07 -0.195,0.07 -0.0733,0 -0.1483,-0.0267 -0.225,-0.08 -0.0767,-0.0533 -0.115,-0.1467 -0.115,-0.28 0,-0.1467 0.05,-0.2583 0.15,-0.335 0.1,-0.0767 0.21,-0.115 0.33,-0.115 h 4.17 c 0.12,0 0.23,0.0383 0.33,0.115 0.1,0.0767 0.15,0.1883 0.15,0.335 m -5.15,3.26 h 5.17 v 0.36 h -5.17 v -0.36 m 4.39,-2.74 h 0.56 v 2.62 h -0.56 v -2.62 m -4.13,0 h 0.56 v 2.62 h -0.56 v -2.62 m 1.01,2.16 h 2.63 v 0.3 h -2.63 v -0.3 m 4.2,-3.47 v 0.44 l -2.9,-0.92 -2.87,0.92 v -0.44 l 2.87,-0.95 2.9,0.95 m -2.17,3.04 v -1.39 l -0.71,1.23 -0.73,-1.23 v 1.39 h -0.43 v -2.21 h 0.52 l 0.64,1.1 0.6444,-1.1 h 0.4956 v 2.21 h -0.43"
         fill-rule="evenodd"
         vector-effect="none" />
    </g>
    <g
       id="g18"
       font-style="normal"
       font-weight="400"
       font-size="8.25px"
       font-family="'MS Shell Dlg 2'"
       stroke="none"
       fill-opacity="1"
       fill="#ffffff" />
  </g>
</svg>
