<?xml version="1.0" encoding="UTF-8" standalone="no"?>
<svg
   xmlns:dc="http://purl.org/dc/elements/1.1/"
   xmlns:cc="http://creativecommons.org/ns#"
   xmlns:rdf="http://www.w3.org/1999/02/22-rdf-syntax-ns#"
   xmlns:svg="http://www.w3.org/2000/svg"
   xmlns="http://www.w3.org/2000/svg"
   xmlns:sodipodi="http://sodipodi.sourceforge.net/DTD/sodipodi-0.dtd"
   xmlns:inkscape="http://www.inkscape.org/namespaces/inkscape"
   inkscape:version="1.0 (4035a4fb49, 2020-05-01)"
   sodipodi:docname="200k_69.svg"
   id="svg22"
   version="1.2"
   viewBox="0 0 10.962 10.962"
   height="3.8671539mm"
   width="3.8671539mm">
  <metadata
     id="metadata26">
    <rdf:RDF>
      <cc:Work
         rdf:about="">
        <dc:format>image/svg+xml</dc:format>
        <dc:type
           rdf:resource="http://purl.org/dc/dcmitype/StillImage" />
      </cc:Work>
    </rdf:RDF>
  </metadata>
  <sodipodi:namedview
     inkscape:current-layer="svg22"
     inkscape:window-maximized="1"
     inkscape:window-y="-9"
     inkscape:window-x="-9"
     inkscape:cy="5.832006"
     inkscape:cx="7.4133409"
     inkscape:zoom="18.047943"
     showgrid="false"
     id="namedview24"
     inkscape:window-height="1013"
     inkscape:window-width="1920"
     inkscape:pageshadow="2"
     inkscape:pageopacity="0"
     guidetolerance="10"
     gridtolerance="10"
     objecttolerance="10"
     borderopacity="1"
     bordercolor="#666666"
     pagecolor="#ffffff" />
  <title
     id="title2">Qt SVG Document</title>
  <desc
     id="desc4">Generated with Qt</desc>
  <defs
     id="defs6" />
  <g
     transform="translate(-10.44,-11.626)"
     id="g20"
     stroke-linejoin="bevel"
     stroke-linecap="square"
     fill-rule="evenodd"
     stroke-width="1"
     stroke="#000000"
     fill="none">
    <g
       id="g10"
       font-style="normal"
       font-weight="400"
       font-size="8.25px"
       font-family="'MS Shell Dlg 2'"
       stroke="none"
       fill-opacity="1"
       fill="#b75800">
      <path
         id="path8"
         d="m 21.402,17.114 c 0,0.756 -0.1423,1.4677 -0.427,2.135 -0.2847,0.6673 -0.6767,1.2483 -1.176,1.743 -0.4993,0.4947 -1.0827,0.8843 -1.75,1.169 -0.6673,0.2847 -1.379,0.427 -2.135,0.427 -0.756,0 -1.4677,-0.1423 -2.135,-0.427 -0.6673,-0.2847 -1.2483,-0.6743 -1.743,-1.169 -0.4947,-0.4947 -0.8843,-1.0757 -1.169,-1.743 -0.2847,-0.6673 -0.427,-1.379 -0.427,-2.135 0,-0.756 0.1423,-1.4677 0.427,-2.135 0.2847,-0.6673 0.6743,-1.2507 1.169,-1.75 0.4947,-0.4993 1.0757,-0.8913 1.743,-1.176 0.6673,-0.2847 1.379,-0.427 2.135,-0.427 0.756,0 1.4677,0.1423 2.135,0.427 0.6673,0.2847 1.2507,0.6767 1.75,1.176 0.4993,0.4993 0.8913,1.0827 1.176,1.75 0.2847,0.6673 0.427,1.379 0.427,2.135"
         fill-rule="evenodd"
         vector-effect="none" />
    </g>
    <g
       id="g12"
       font-style="normal"
       font-weight="400"
       font-size="8.25px"
       font-family="'MS Shell Dlg 2'"
       stroke="none"
       fill-opacity="1"
       fill="#b75800" />
    <g
       id="g16"
       font-style="normal"
       font-weight="400"
       font-size="8.25px"
       font-family="'MS Shell Dlg 2'"
       stroke="none"
       fill-opacity="1"
       fill="#ffffff">
      <path
         id="path14"
         d="m 12.8992,20.0899 1.4856,-1.4856 -1.8201,-1.4623 0.6222,-0.14 c 0.0467,-0.0259 0.0726,-0.0415 0.0778,-0.0467 0.0052,-0.0052 0.0052,-0.0311 0,-0.0778 l -0.3967,-2.4657 0.5756,0.3578 c 0.0519,0.0208 0.0986,0.0104 0.14,-0.0311 0.0052,-0.0052 0.0078,-0.0103 0.0078,-0.0155 0,-0.0052 0.0078,-0.0156 0.0233,-0.0311 l 0.4745,-0.9412 0.4745,0.9723 c 0.0311,0.0311 0.057,0.0518 0.0778,0.0622 0.0207,0.0104 0.0492,0.0078 0.0855,-0.0078 l 0.5756,-0.5756 v 1.9913 c 0.0208,0.0103 0.0389,0.0077 0.0545,-0.0078 0.0207,-0.0208 0.0311,-0.0363 0.0311,-0.0467 l 1.4934,-2.2557 0.3733,1.0112 c 0.0104,0.0207 0.026,0.0415 0.0467,0.0622 -0.0052,-0.0052 0.0182,0.0078 0.07,0.0389 l 1.3917,-0.724 -0.7305,1.3852 c 0.0207,0.0414 0.0337,0.0648 0.0388,0.07 0.026,0.0259 0.0467,0.0414 0.0623,0.0466 l 1.0111,0.3734 -2.2556,1.4934 c -0.0104,0 -0.026,0.0104 -0.0467,0.0311 -0.0156,0.0156 -0.0156,0.0363 0,0.0622 l 1.9834,-0.0077 -0.5756,0.5755 c -0.0155,0.0363 -0.0194,0.0636 -0.0116,0.0817 0.0078,0.0182 0.0272,0.0428 0.0583,0.0739 l 0.9801,0.4822 -0.9412,0.4745 c -0.0104,0 -0.0285,0.013 -0.0544,0.0389 -0.0363,0.0363 -0.0441,0.0804 -0.0234,0.1322 l 0.3578,0.5756 -2.4734,-0.4044 c -0.0415,0 -0.0726,0.0103 -0.0934,0.0311 -0.0155,0.0155 -0.0233,0.0337 -0.0233,0.0544 l -0.14,0.6223 -1.1979,-1.5557 -1.4856,1.4857 -0.3033,-0.3034"
         fill-rule="evenodd"
         vector-effect="none" />
    </g>
    <g
       id="g18"
       font-style="normal"
       font-weight="400"
       font-size="8.25px"
       font-family="'MS Shell Dlg 2'"
       stroke="none"
       fill-opacity="1"
       fill="#ffffff" />
  </g>
</svg>
