<?xml version="1.0" encoding="UTF-8" standalone="no"?>
<svg width="11.2889mm" height="11.2889mm"
 viewBox="0 0 32 32"
 xmlns="http://www.w3.org/2000/svg" xmlns:xlink="http://www.w3.org/1999/xlink"  version="1.2" baseProfile="tiny">
<title>Qt SVG Document</title>
<desc>Generated with Qt</desc>
<defs>
</defs>
<g fill="none" stroke="black" stroke-width="1" fill-rule="evenodd" stroke-linecap="square" stroke-linejoin="bevel" >

<g fill="none" stroke="none" transform="matrix(1,0,0,1,0,0)"
font-family="MS Shell Dlg 2" font-size="8.25" font-weight="400" font-style="normal" 
>
</g>

<g fill="none" stroke="none" transform="matrix(1.33333,0,0,1.33333,0,0)"
font-family="MS Shell Dlg 2" font-size="8.25" font-weight="400" font-style="normal" 
>
</g>

<g fill="#33a02c" fill-opacity="1" stroke="none" transform="matrix(1,0,0,1,0,0)"
font-family="MS Shell Dlg 2" font-size="8.25" font-weight="400" font-style="normal" 
>
<path vector-effect="none" fill-rule="evenodd" d="M21.402,17.114 C21.402,17.87 21.2597,18.5817 20.975,19.249 C20.6903,19.9163 20.2983,20.4973 19.799,20.992 C19.2997,21.4867 18.7163,21.8763 18.049,22.161 C17.3817,22.4457 16.67,22.588 15.914,22.588 C15.158,22.588 14.4463,22.4457 13.779,22.161 C13.1117,21.8763 12.5307,21.4867 12.036,20.992 C11.5413,20.4973 11.1517,19.9163 10.867,19.249 C10.5823,18.5817 10.44,17.87 10.44,17.114 C10.44,16.358 10.5823,15.6463 10.867,14.979 C11.1517,14.3117 11.5413,13.7283 12.036,13.229 C12.5307,12.7297 13.1117,12.3377 13.779,12.053 C14.4463,11.7683 15.158,11.626 15.914,11.626 C16.67,11.626 17.3817,11.7683 18.049,12.053 C18.7163,12.3377 19.2997,12.7297 19.799,13.229 C20.2983,13.7283 20.6903,14.3117 20.975,14.979 C21.2597,15.6463 21.402,16.358 21.402,17.114 "/>
</g>

<g fill="none" stroke="none" transform="matrix(1.33333,0,0,1.33333,0,0)"
font-family="MS Shell Dlg 2" font-size="8.25" font-weight="400" font-style="normal" 
>
</g>

<g fill="none" stroke="none" transform="matrix(1,0,0,1,0,0)"
font-family="MS Shell Dlg 2" font-size="8.25" font-weight="400" font-style="normal" 
>
</g>

<g fill="none" stroke="#000000" stroke-opacity="1" stroke-width="1" stroke-linecap="square" stroke-linejoin="bevel" transform="matrix(1,0,0,1,0,0)"
font-family="MS Shell Dlg 2" font-size="8.25" font-weight="400" font-style="normal" 
>
</g>

<g fill="none" stroke="none" transform="matrix(1,0,0,1,0,0)"
font-family="MS Shell Dlg 2" font-size="8.25" font-weight="400" font-style="normal" 
>
</g>

<g fill="none" stroke="none" transform="matrix(1.33333,0,0,1.33333,0,0)"
font-family="MS Shell Dlg 2" font-size="8.25" font-weight="400" font-style="normal" 
>
</g>

<g fill="#ffffff" fill-opacity="1" stroke="none" transform="matrix(1,0,0,1,0,0)"
font-family="MS Shell Dlg 2" font-size="8.25" font-weight="400" font-style="normal" 
>
<path vector-effect="none" fill-rule="evenodd" d="M18.36,14.32 C18.3867,14.3867 18.4283,14.5067 18.485,14.68 C18.5417,14.8533 18.575,15.0667 18.585,15.32 C18.595,15.5733 18.5617,15.865 18.485,16.195 C18.4083,16.525 18.2567,16.8833 18.03,17.27 L18.09,18.05 L17.33,18.73 L17.2,18.35 C16.9933,18.5167 16.7717,18.6517 16.535,18.755 C16.2983,18.8583 16.0667,18.9367 15.84,18.99 C15.6133,19.0433 15.4017,19.08 15.205,19.1 C15.0083,19.12 14.85,19.13 14.73,19.13 L13.76,19.85 L13.74,19.85 C13.72,19.8633 13.7017,19.8617 13.685,19.845 C13.6683,19.8283 13.66,19.8067 13.66,19.78 L13.66,19.74 L13.93,18.86 L13.43,18.08 C13.4167,18.06 13.41,18.0433 13.41,18.03 C13.41,18.01 13.4167,17.9917 13.43,17.975 C13.4433,17.9583 13.4567,17.95 13.47,17.95 L13.51,17.95 L14.65,18.43 C14.9233,18.4033 15.1517,18.3183 15.335,18.175 C15.5183,18.0317 15.6667,17.87 15.78,17.69 C15.8933,17.51 15.9783,17.335 16.035,17.165 C16.0917,16.995 16.13,16.87 16.15,16.79 C16.1767,16.6567 16.2233,16.4917 16.29,16.295 C16.3567,16.0983 16.4417,15.8917 16.545,15.675 C16.6483,15.4583 16.7667,15.2483 16.9,15.045 C17.0333,14.8417 17.1767,14.67 17.33,14.53 L17.71,14.17 C17.6433,14.3033 17.5917,14.4417 17.555,14.585 C17.5183,14.7283 17.4867,14.86 17.46,14.98 C17.4333,15.12 17.41,15.26 17.39,15.4 C17.5367,15.2 17.67,15.02 17.79,14.86 C17.8967,14.7267 18.0033,14.6033 18.11,14.49 C18.2167,14.3767 18.3,14.32 18.36,14.32 M17.77,15.84 C17.7833,15.9067 17.815,15.9617 17.865,16.005 C17.915,16.0483 17.9767,16.0633 18.05,16.05 C18.1033,16.0367 18.1483,16.005 18.185,15.955 C18.2217,15.905 18.2333,15.8533 18.22,15.8 C18.22,15.7333 18.1933,15.6783 18.14,15.635 C18.0867,15.5917 18.0267,15.5767 17.96,15.59 C17.9,15.6033 17.85,15.6317 17.81,15.675 C17.77,15.7183 17.7567,15.7733 17.77,15.84 M14.73,16.45 C14.5967,16.39 14.4833,16.3133 14.39,16.22 C14.2967,16.1267 14.2283,16.02 14.185,15.9 C14.1417,15.78 14.12,15.6533 14.12,15.52 C14.12,15.3867 14.1433,15.2533 14.19,15.12 C14.2567,14.94 14.3417,14.7783 14.445,14.635 C14.5483,14.4917 14.65,14.3617 14.75,14.245 C14.85,14.1283 14.9367,14.0267 15.01,13.94 C15.0833,13.8533 15.1267,13.7767 15.14,13.71 L15.49,13.73 C15.4367,13.8433 15.3617,13.9517 15.265,14.055 C15.1683,14.1583 15.0667,14.2633 14.96,14.37 C14.8533,14.4767 14.7517,14.5883 14.655,14.705 C14.5583,14.8217 14.4867,14.9467 14.44,15.08 C14.3467,15.32 14.3333,15.5467 14.4,15.76 C14.4667,15.9733 14.6267,16.1333 14.88,16.24 C15.1133,16.3267 15.3483,16.27 15.585,16.07 C15.8217,15.87 16.0167,15.52 16.17,15.02 C16.1633,15.04 16.1583,15.1133 16.155,15.24 C16.1517,15.3667 16.15,15.5 16.15,15.64 L16.15,16.2 C16.1367,16.1533 16.1233,16.1067 16.11,16.06 C16.0967,16.0267 16.085,15.9917 16.075,15.955 C16.065,15.9183 16.0533,15.8933 16.04,15.88 C15.9933,16.0133 15.9233,16.1283 15.83,16.225 C15.7367,16.3217 15.63,16.395 15.51,16.445 C15.39,16.495 15.2633,16.5217 15.13,16.525 C14.9967,16.5283 14.8633,16.5033 14.73,16.45 "/>
</g>

<g fill="none" stroke="none" transform="matrix(1.33333,0,0,1.33333,0,0)"
font-family="MS Shell Dlg 2" font-size="8.25" font-weight="400" font-style="normal" 
>
</g>

<g fill="none" stroke="none" transform="matrix(1,0,0,1,0,0)"
font-family="MS Shell Dlg 2" font-size="8.25" font-weight="400" font-style="normal" 
>
</g>

<g fill="none" stroke="#000000" stroke-opacity="1" stroke-width="1" stroke-linecap="square" stroke-linejoin="bevel" transform="matrix(1,0,0,1,0,0)"
font-family="MS Shell Dlg 2" font-size="8.25" font-weight="400" font-style="normal" 
>
</g>
</g>
</svg>
