<?xml version="1.0" encoding="UTF-8" standalone="no"?>
<svg
   xmlns:dc="http://purl.org/dc/elements/1.1/"
   xmlns:cc="http://creativecommons.org/ns#"
   xmlns:rdf="http://www.w3.org/1999/02/22-rdf-syntax-ns#"
   xmlns:svg="http://www.w3.org/2000/svg"
   xmlns="http://www.w3.org/2000/svg"
   xmlns:sodipodi="http://sodipodi.sourceforge.net/DTD/sodipodi-0.dtd"
   xmlns:inkscape="http://www.inkscape.org/namespaces/inkscape"
   width="3.4621646mm"
   height="3.4621646mm"
   viewBox="0 0 9.814 9.814"
   version="1.2"
   id="svg38"
   sodipodi:docname="200k_6.svg"
   inkscape:version="1.0 (4035a4fb49, 2020-05-01)">
  <metadata
     id="metadata42">
    <rdf:RDF>
      <cc:Work
         rdf:about="">
        <dc:format>image/svg+xml</dc:format>
        <dc:type
           rdf:resource="http://purl.org/dc/dcmitype/StillImage" />
      </cc:Work>
    </rdf:RDF>
  </metadata>
  <sodipodi:namedview
     inkscape:document-rotation="0"
     pagecolor="#ffffff"
     bordercolor="#666666"
     borderopacity="1"
     objecttolerance="10"
     gridtolerance="10"
     guidetolerance="10"
     inkscape:pageopacity="0"
     inkscape:pageshadow="2"
     inkscape:window-width="1920"
     inkscape:window-height="1013"
     id="namedview40"
     showgrid="false"
     inkscape:zoom="12.239135"
     inkscape:cx="5.6101758"
     inkscape:cy="7.1021908"
     inkscape:window-x="-9"
     inkscape:window-y="-9"
     inkscape:window-maximized="1"
     inkscape:current-layer="svg38" />
  <title
     id="title2">Qt SVG Document</title>
  <desc
     id="desc4">Generated with Qt</desc>
  <defs
     id="defs6" />
  <g
     fill="none"
     stroke="#000000"
     stroke-width="1"
     fill-rule="evenodd"
     stroke-linecap="square"
     stroke-linejoin="bevel"
     id="g36"
     transform="translate(-10.986,-12.2)">
    <g
       fill="none"
       stroke="none"
       font-family="'MS Shell Dlg 2'"
       font-size="8.25px"
       font-weight="400"
       font-style="normal"
       id="g8" />
    <g
       fill="none"
       stroke="none"
       transform="scale(1.33333)"
       font-family="'MS Shell Dlg 2'"
       font-size="8.25px"
       font-weight="400"
       font-style="normal"
       id="g10" />
    <g
       fill="#b75800"
       fill-opacity="1"
       stroke="none"
       font-family="'MS Shell Dlg 2'"
       font-size="8.25px"
       font-weight="400"
       font-style="normal"
       id="g14">
      <path
         vector-effect="none"
         fill-rule="evenodd"
         d="m 20.8,21.006 c 0,0.28 -0.098,0.518 -0.294,0.714 -0.196,0.196 -0.434,0.294 -0.714,0.294 h -7.798 c -0.28,0 -0.518,-0.098 -0.714,-0.294 -0.196,-0.196 -0.294,-0.434 -0.294,-0.714 v -7.798 c 0,-0.28 0.098,-0.518 0.294,-0.714 0.196,-0.196 0.434,-0.294 0.714,-0.294 h 7.798 c 0.28,0 0.518,0.098 0.714,0.294 0.196,0.196 0.294,0.434 0.294,0.714 v 7.798"
         id="path12" />
    </g>
    <g
       fill="none"
       stroke="none"
       transform="scale(1.33333)"
       font-family="'MS Shell Dlg 2'"
       font-size="8.25px"
       font-weight="400"
       font-style="normal"
       id="g16" />
    <g
       fill="none"
       stroke="none"
       font-family="'MS Shell Dlg 2'"
       font-size="8.25px"
       font-weight="400"
       font-style="normal"
       id="g18" />
    <g
       fill="none"
       stroke="#000000"
       stroke-opacity="1"
       stroke-width="1"
       stroke-linecap="square"
       stroke-linejoin="bevel"
       font-family="'MS Shell Dlg 2'"
       font-size="8.25px"
       font-weight="400"
       font-style="normal"
       id="g20" />
    <g
       fill="none"
       stroke="none"
       font-family="'MS Shell Dlg 2'"
       font-size="8.25px"
       font-weight="400"
       font-style="normal"
       id="g22" />
    <g
       fill="none"
       stroke="none"
       transform="scale(1.33333)"
       font-family="'MS Shell Dlg 2'"
       font-size="8.25px"
       font-weight="400"
       font-style="normal"
       id="g24" />
    <g
       fill="#ffffff"
       fill-opacity="1"
       stroke="none"
       font-family="'MS Shell Dlg 2'"
       font-size="8.25px"
       font-weight="400"
       font-style="normal"
       id="g28">
      <path
         vector-effect="none"
         fill-rule="evenodd"
         d="m 13.142,15.252 c -0.1307,0.1587 -0.2777,0.322 -0.441,0.49 -0.1633,0.168 -0.3243,0.3733 -0.483,0.616 -0.1027,0.196 -0.1773,0.413 -0.224,0.651 -0.0467,0.238 -0.056,0.4503 -0.028,0.637 0.0467,0.196 0.084,0.3663 0.112,0.511 0.028,0.1447 0.042,0.2683 0.042,0.371 v 0.182 0.07 l -0.028,0.084 c -0.0187,0.0467 -0.0327,0.098 -0.042,0.154 -0.0093,0.056 -0.014,0.1073 -0.014,0.154 -0.0373,0.0933 -0.07,0.1773 -0.098,0.252 -0.028,0.0747 -0.056,0.1447 -0.084,0.21 -0.0373,0.0467 -0.063,0.0933 -0.077,0.14 -0.014,0.0467 -0.0303,0.0933 -0.049,0.14 -0.084,-0.112 -0.126,-0.2567 -0.126,-0.434 v -3.556 c 0.0187,-0.0373 0.0793,-0.098 0.182,-0.182 0.2613,-0.2707 0.483,-0.525 0.665,-0.763 0.182,-0.238 0.3197,-0.441 0.413,-0.609 0.0187,-0.0467 0.0327,-0.0863 0.042,-0.119 0.0093,-0.0327 0.0233,-0.0677 0.042,-0.105 0.112,-0.0187 0.2263,-0.0327 0.343,-0.042 0.1167,-0.0093 0.231,-0.0233 0.343,-0.042 0,0.0467 -0.0023,0.1027 -0.007,0.168 -0.0047,0.0653 -0.0163,0.1307 -0.035,0.196 -0.0467,0.2333 -0.196,0.5087 -0.448,0.826 M 12.61,14.188 c -0.1027,0.1307 -0.2357,0.287 -0.399,0.469 -0.1633,0.182 -0.3663,0.3803 -0.609,0.595 v -0.854 c 0.1587,-0.0467 0.3197,-0.0863 0.483,-0.119 0.1633,-0.0327 0.3383,-0.063 0.525,-0.091 m 1.162,2.506 c -0.1213,0.2427 -0.2007,0.4947 -0.238,0.756 -0.0373,0.2613 -0.0467,0.4993 -0.028,0.714 0.0093,0.1027 0.0373,0.231 0.084,0.385 0.0467,0.154 0.0933,0.3243 0.14,0.511 0.0467,0.1867 0.084,0.385 0.112,0.595 0.028,0.21 0.028,0.4177 0,0.623 H 12.4 c -0.0653,0 -0.1167,-0.0093 -0.154,-0.028 0.0933,-0.0933 0.1633,-0.2053 0.21,-0.336 0.0467,-0.0747 0.0863,-0.1633 0.119,-0.266 0.0327,-0.1027 0.0677,-0.21 0.105,-0.322 0.0187,-0.0653 0.0327,-0.1283 0.042,-0.189 0.0093,-0.0607 0.0233,-0.1283 0.042,-0.203 V 18.836 18.808 18.78 l 0.028,-0.07 c 0,-0.028 -0.0047,-0.0677 -0.014,-0.119 -0.0093,-0.0513 -0.014,-0.091 -0.014,-0.119 -0.0187,-0.168 -0.0513,-0.329 -0.098,-0.483 -0.0467,-0.154 -0.084,-0.3103 -0.112,-0.469 -0.0467,-0.14 -0.063,-0.287 -0.049,-0.441 0.014,-0.154 0.0583,-0.3243 0.133,-0.511 0.112,-0.196 0.2427,-0.385 0.392,-0.567 0.1493,-0.182 0.2753,-0.3617 0.378,-0.539 0.1307,-0.168 0.2357,-0.3337 0.315,-0.497 0.0793,-0.1633 0.1283,-0.3243 0.147,-0.483 0.0187,-0.0933 0.0233,-0.1773 0.014,-0.252 -0.0093,-0.0747 -0.0233,-0.14 -0.042,-0.196 0.2147,-0.0187 0.4293,-0.035 0.644,-0.049 0.2147,-0.014 0.4293,-0.0303 0.644,-0.049 0,0.0467 0.0047,0.0933 0.014,0.14 0.0093,0.0467 0.014,0.1027 0.014,0.168 -0.0187,0.1587 -0.056,0.3243 -0.112,0.497 -0.056,0.1727 -0.154,0.3523 -0.294,0.539 -0.1213,0.1867 -0.28,0.3873 -0.476,0.602 -0.196,0.2147 -0.364,0.4853 -0.504,0.812 m 1.722,-0.056 c -0.0747,0.1213 -0.119,0.2473 -0.133,0.378 -0.014,0.1307 -0.021,0.2473 -0.021,0.35 0.0093,0.252 0.0793,0.4877 0.21,0.707 0.1307,0.2193 0.2543,0.441 0.371,0.665 0.1167,0.224 0.189,0.4597 0.217,0.707 0.028,0.2473 -0.056,0.525 -0.252,0.833 h -1.092 c 0,-0.0653 -0.0023,-0.1213 -0.007,-0.168 -0.0047,-0.0467 -0.0163,-0.0933 -0.035,-0.14 l -0.028,-0.126 -0.028,-0.112 c 0,-0.056 -0.0187,-0.1307 -0.056,-0.224 -0.0373,-0.0747 -0.0723,-0.1493 -0.105,-0.224 -0.0327,-0.0747 -0.0723,-0.1493 -0.119,-0.224 -0.0747,-0.1587 -0.1447,-0.315 -0.21,-0.469 -0.0653,-0.154 -0.1073,-0.315 -0.126,-0.483 -0.028,-0.2053 -0.0327,-0.4083 -0.014,-0.609 0.0187,-0.2007 0.0653,-0.4083 0.14,-0.623 0.1027,-0.2707 0.2427,-0.5133 0.42,-0.728 0.1773,-0.2147 0.336,-0.4293 0.476,-0.644 0.1213,-0.2333 0.2123,-0.4597 0.273,-0.679 0.0607,-0.2193 0.0817,-0.413 0.063,-0.581 0,-0.0653 -0.007,-0.1213 -0.021,-0.168 -0.014,-0.0467 -0.0303,-0.0933 -0.049,-0.14 h 0.742 0.462 c 0,0.0467 0.0047,0.0933 0.014,0.14 0.0093,0.0467 0.0233,0.0933 0.042,0.14 0.0467,0.1213 0.1027,0.2683 0.168,0.441 0.0653,0.1727 0.0887,0.343 0.07,0.511 0,0.1867 -0.0793,0.3593 -0.238,0.518 -0.0653,0.0747 -0.1493,0.1447 -0.252,0.21 -0.1027,0.0653 -0.224,0.1353 -0.364,0.21 -0.0933,0.0653 -0.1867,0.1377 -0.28,0.217 -0.0933,0.0793 -0.1727,0.1843 -0.238,0.315 m 2.968,2.198 c 0.0653,0.0747 0.1213,0.1493 0.168,0.224 0.0467,0.0747 0.084,0.1633 0.112,0.266 0.056,0.168 0.098,0.3407 0.126,0.518 0,0.1493 -0.0233,0.294 -0.07,0.434 h -1.526 c -0.0187,-0.252 -0.0887,-0.4923 -0.21,-0.721 -0.1213,-0.2287 -0.2613,-0.4503 -0.42,-0.665 -0.1587,-0.2147 -0.3103,-0.4247 -0.455,-0.63 -0.1447,-0.2053 -0.245,-0.4107 -0.301,-0.616 -0.0467,-0.14 -0.056,-0.2917 -0.028,-0.455 0.028,-0.1633 0.0607,-0.2683 0.098,-0.315 0.0467,-0.112 0.168,-0.2333 0.364,-0.364 0.1027,-0.0933 0.2123,-0.182 0.329,-0.266 0.1167,-0.084 0.2217,-0.182 0.315,-0.294 0.0933,-0.1027 0.168,-0.224 0.224,-0.364 0.056,-0.14 0.084,-0.2707 0.084,-0.392 0,-0.14 -0.0187,-0.2637 -0.056,-0.371 -0.0373,-0.1073 -0.07,-0.1983 -0.098,-0.273 -0.0467,-0.0933 -0.0863,-0.1773 -0.119,-0.252 -0.0327,-0.0747 -0.063,-0.1447 -0.091,-0.21 -0.0467,-0.056 -0.0793,-0.1073 -0.098,-0.154 0.1307,0 0.2543,0.0047 0.371,0.014 0.1167,0.0093 0.2263,0.014 0.329,0.014 v 0.028 c 0,0.0747 0.014,0.1517 0.042,0.231 0.028,0.0793 0.056,0.1657 0.084,0.259 0.0467,0.1027 0.091,0.2007 0.133,0.294 0.042,0.0933 0.0817,0.1913 0.119,0.294 0.0467,0.1027 0.0887,0.2147 0.126,0.336 0.0373,0.1213 0.0653,0.2427 0.084,0.364 0,0.1307 -0.0233,0.2543 -0.07,0.371 -0.0467,0.1167 -0.1073,0.2403 -0.182,0.371 -0.0933,0.14 -0.1913,0.2847 -0.294,0.434 -0.1027,0.1493 -0.1773,0.3407 -0.224,0.574 -0.028,0.0933 -0.028,0.2007 0,0.322 0.028,0.1213 0.0793,0.2193 0.154,0.294 0.0653,0.0747 0.1307,0.133 0.196,0.175 0.0653,0.042 0.1213,0.0863 0.168,0.133 0.14,0.056 0.259,0.1167 0.357,0.182 0.098,0.0653 0.1843,0.1353 0.259,0.21 m 1.008,-1.19 c 0.112,0.14 0.2147,0.2707 0.308,0.392 0.0933,0.1213 0.1867,0.2333 0.28,0.336 0.0187,0.056 0.0607,0.1073 0.126,0.154 v 0.952 c 0,0.2053 -0.0677,0.3803 -0.203,0.525 -0.1353,0.1447 -0.3057,0.2263 -0.511,0.245 0.0467,-0.1587 0.0467,-0.3313 0,-0.518 C 19.4513,19.62 19.428,19.5057 19.4,19.389 19.372,19.2723 19.3347,19.1627 19.288,19.06 19.2413,18.948 19.1807,18.829 19.106,18.703 19.0313,18.577 18.9287,18.4673 18.798,18.374 18.6953,18.2807 18.5833,18.2013 18.462,18.136 18.3407,18.0707 18.2263,18.01 18.119,17.954 18.0117,17.898 17.9253,17.8397 17.86,17.779 c -0.0653,-0.0607 -0.0887,-0.1283 -0.07,-0.203 0.0187,-0.056 0.042,-0.119 0.07,-0.189 0.028,-0.07 0.056,-0.1377 0.084,-0.203 0.0467,-0.0747 0.0933,-0.1517 0.14,-0.231 0.0467,-0.0793 0.0933,-0.1563 0.14,-0.231 0.028,-0.0747 0.0607,-0.1517 0.098,-0.231 0.0373,-0.0793 0.0653,-0.1563 0.084,-0.231 0.028,-0.0933 0.0443,-0.1843 0.049,-0.273 0.0047,-0.0887 0.007,-0.1703 0.007,-0.245 -0.028,-0.168 -0.0677,-0.315 -0.119,-0.441 -0.0513,-0.126 -0.1003,-0.245 -0.147,-0.357 -0.0467,-0.1027 -0.0933,-0.2053 -0.14,-0.308 -0.0467,-0.1027 -0.0933,-0.1913 -0.14,-0.266 -0.0467,-0.0747 -0.0793,-0.1447 -0.098,-0.21 -0.0187,-0.0653 -0.0373,-0.1213 -0.056,-0.168 0.1213,0 0.2427,0.007 0.364,0.021 0.1213,0.014 0.2427,0.0303 0.364,0.049 0.0373,0.0467 0.084,0.0933 0.14,0.14 0.056,0.0467 0.112,0.1027 0.168,0.168 0.0467,0.0467 0.1003,0.091 0.161,0.133 0.0607,0.042 0.119,0.0863 0.175,0.133 0.0373,0.0373 0.063,0.0677 0.077,0.091 0.014,0.0233 0.0303,0.0583 0.049,0.105 0.0187,0.0467 0.035,0.0863 0.049,0.119 0.014,0.0327 0.0303,0.0723 0.049,0.119 0.028,0.1773 0.028,0.3733 0,0.588 -0.0187,0.0933 -0.0537,0.1937 -0.105,0.301 -0.0513,0.1073 -0.1003,0.2403 -0.147,0.399 -0.028,0.1027 -0.042,0.224 -0.042,0.364 0,0.14 0.0233,0.2613 0.07,0.364 0.0373,0.1027 0.0887,0.2053 0.154,0.308 l 0.042,0.07 0.056,0.056 0.084,0.126 M 18.896,14.09 c 0.4387,0.056 0.868,0.126 1.288,0.21 v 3.248 c -0.0467,-0.0467 -0.0933,-0.091 -0.14,-0.133 -0.0467,-0.042 -0.0933,-0.0863 -0.14,-0.133 -0.1213,-0.14 -0.21,-0.2707 -0.266,-0.392 -0.056,-0.1213 -0.07,-0.266 -0.042,-0.434 0.0187,-0.112 0.049,-0.2333 0.091,-0.364 0.042,-0.1307 0.0723,-0.2567 0.091,-0.378 0.0187,-0.14 0.021,-0.273 0.007,-0.399 -0.014,-0.126 -0.0443,-0.2403 -0.091,-0.343 -0.028,-0.112 -0.07,-0.21 -0.126,-0.294 -0.0187,-0.0467 -0.0513,-0.098 -0.098,-0.154 -0.0467,-0.056 -0.084,-0.098 -0.112,-0.126 -0.0747,-0.0653 -0.1447,-0.1167 -0.21,-0.154 -0.0653,-0.0373 -0.1213,-0.0793 -0.168,-0.126 -0.0373,0 -0.0653,-0.0093 -0.084,-0.028"
         id="path26" />
    </g>
    <g
       fill="none"
       stroke="none"
       transform="scale(1.33333)"
       font-family="'MS Shell Dlg 2'"
       font-size="8.25px"
       font-weight="400"
       font-style="normal"
       id="g30" />
    <g
       fill="none"
       stroke="none"
       font-family="'MS Shell Dlg 2'"
       font-size="8.25px"
       font-weight="400"
       font-style="normal"
       id="g32" />
    <g
       fill="none"
       stroke="#000000"
       stroke-opacity="1"
       stroke-width="1"
       stroke-linecap="square"
       stroke-linejoin="bevel"
       font-family="'MS Shell Dlg 2'"
       font-size="8.25px"
       font-weight="400"
       font-style="normal"
       id="g34" />
  </g>
</svg>
