<?xml version="1.0" encoding="UTF-8" standalone="no"?>
<svg
   xmlns:dc="http://purl.org/dc/elements/1.1/"
   xmlns:cc="http://creativecommons.org/ns#"
   xmlns:rdf="http://www.w3.org/1999/02/22-rdf-syntax-ns#"
   xmlns:svg="http://www.w3.org/2000/svg"
   xmlns="http://www.w3.org/2000/svg"
   xmlns:sodipodi="http://sodipodi.sourceforge.net/DTD/sodipodi-0.dtd"
   xmlns:inkscape="http://www.inkscape.org/namespaces/inkscape"
   inkscape:version="1.0 (4035a4fb49, 2020-05-01)"
   sodipodi:docname="200k_57.svg"
   id="svg38"
   version="1.2"
   viewBox="0 0 10.962 10.962"
   height="3.8671539mm"
   width="3.8671539mm">
  <metadata
     id="metadata42">
    <rdf:RDF>
      <cc:Work
         rdf:about="">
        <dc:format>image/svg+xml</dc:format>
        <dc:type
           rdf:resource="http://purl.org/dc/dcmitype/StillImage" />
      </cc:Work>
    </rdf:RDF>
  </metadata>
  <sodipodi:namedview
     inkscape:current-layer="svg38"
     inkscape:window-maximized="1"
     inkscape:window-y="-9"
     inkscape:window-x="-9"
     inkscape:cy="5.832006"
     inkscape:cx="7.4133409"
     inkscape:zoom="18.047943"
     showgrid="false"
     id="namedview40"
     inkscape:window-height="1013"
     inkscape:window-width="1920"
     inkscape:pageshadow="2"
     inkscape:pageopacity="0"
     guidetolerance="10"
     gridtolerance="10"
     objecttolerance="10"
     borderopacity="1"
     bordercolor="#666666"
     pagecolor="#ffffff" />
  <title
     id="title2">Qt SVG Document</title>
  <desc
     id="desc4">Generated with Qt</desc>
  <defs
     id="defs6" />
  <g
     transform="translate(-10.44,-11.626)"
     id="g36"
     stroke-linejoin="bevel"
     stroke-linecap="square"
     fill-rule="evenodd"
     stroke-width="1"
     stroke="#000000"
     fill="none">
    <g
       id="g8"
       font-style="normal"
       font-weight="400"
       font-size="8.25px"
       font-family="'MS Shell Dlg 2'"
       stroke="none"
       fill="none" />
    <g
       id="g10"
       font-style="normal"
       font-weight="400"
       font-size="8.25px"
       font-family="'MS Shell Dlg 2'"
       transform="scale(1.33333)"
       stroke="none"
       fill="none" />
    <g
       id="g14"
       font-style="normal"
       font-weight="400"
       font-size="8.25px"
       font-family="'MS Shell Dlg 2'"
       stroke="none"
       fill-opacity="1"
       fill="#a61215">
      <path
         id="path12"
         d="m 21.402,17.114 c 0,0.756 -0.1423,1.4677 -0.427,2.135 -0.2847,0.6673 -0.6767,1.2483 -1.176,1.743 -0.4993,0.4947 -1.0827,0.8843 -1.75,1.169 -0.6673,0.2847 -1.379,0.427 -2.135,0.427 -0.756,0 -1.4677,-0.1423 -2.135,-0.427 -0.6673,-0.2847 -1.2483,-0.6743 -1.743,-1.169 -0.4947,-0.4947 -0.8843,-1.0757 -1.169,-1.743 -0.2847,-0.6673 -0.427,-1.379 -0.427,-2.135 0,-0.756 0.1423,-1.4677 0.427,-2.135 0.2847,-0.6673 0.6743,-1.2507 1.169,-1.75 0.4947,-0.4993 1.0757,-0.8913 1.743,-1.176 0.6673,-0.2847 1.379,-0.427 2.135,-0.427 0.756,0 1.4677,0.1423 2.135,0.427 0.6673,0.2847 1.2507,0.6767 1.75,1.176 0.4993,0.4993 0.8913,1.0827 1.176,1.75 0.2847,0.6673 0.427,1.379 0.427,2.135"
         fill-rule="evenodd"
         vector-effect="none" />
    </g>
    <g
       id="g16"
       font-style="normal"
       font-weight="400"
       font-size="8.25px"
       font-family="'MS Shell Dlg 2'"
       transform="scale(1.33333)"
       stroke="none"
       fill="none" />
    <g
       id="g18"
       font-style="normal"
       font-weight="400"
       font-size="8.25px"
       font-family="'MS Shell Dlg 2'"
       stroke="none"
       fill="none" />
    <g
       id="g20"
       font-style="normal"
       font-weight="400"
       font-size="8.25px"
       font-family="'MS Shell Dlg 2'"
       stroke-linejoin="bevel"
       stroke-linecap="square"
       stroke-width="1"
       stroke-opacity="1"
       stroke="#000000"
       fill="none" />
    <g
       id="g22"
       font-style="normal"
       font-weight="400"
       font-size="8.25px"
       font-family="'MS Shell Dlg 2'"
       stroke="none"
       fill="none" />
    <g
       id="g24"
       font-style="normal"
       font-weight="400"
       font-size="8.25px"
       font-family="'MS Shell Dlg 2'"
       transform="scale(1.33333)"
       stroke="none"
       fill="none" />
    <g
       id="g28"
       font-style="normal"
       font-weight="400"
       font-size="8.25px"
       font-family="'MS Shell Dlg 2'"
       stroke="none"
       fill-opacity="1"
       fill="#ffffff">
      <path
         id="path26"
         d="m 15.861,14.293 v -0.48 h -0.324 v -0.108 h 0.324 v -0.396 h 0.132 v 0.396 h 0.348 v 0.108 h -0.348 v 0.48 l 1.0236,1.476 h -0.024 c -0.1198,-0.024 -0.2734,-0.048 -0.461,-0.072 -0.1876,-0.024 -0.3851,-0.036 -0.5926,-0.036 -0.2315,0 -0.437,0.012 -0.6166,0.036 -0.1796,0.024 -0.3372,0.048 -0.473,0.072 l 1.0116,-1.476 m -0.792,1.848 c 0.104,-0.024 0.232,-0.044 0.384,-0.06 0.152,-0.016 0.316,-0.024 0.492,-0.024 0.16,0 0.314,0.008 0.462,0.024 0.148,0.016 0.282,0.036 0.402,0.06 v 1.248 l -0.18,-0.036 -0.684,-0.528 -0.72,0.528 -0.156,0.036 v -1.248 m -0.06,1.38 -0.312,0.264 -1.476,0.528 v -0.24 l 1.788,-0.552 m 3.612,0.552 v 0.24 l -1.4663,-0.528 -0.3217,-0.264 1.788,0.552 m -5.4,0.372 1.476,-0.528 v 2.568 h -1.476 v -2.04 m 0.564,1.08 h 0.276 v -0.744 c 0,-0.088 -0.046,-0.132 -0.138,-0.132 -0.092,0 -0.138,0.044 -0.138,0.132 v 0.744 m 3.396,-1.608 1.44,0.528 v 2.04 h -1.44 v -2.568 m 0.612,1.608 h 0.264 v -0.744 c 0,-0.088 -0.044,-0.132 -0.132,-0.132 -0.032,0 -0.062,0.012 -0.09,0.036 -0.028,0.024 -0.042,0.056 -0.042,0.096 v 0.744 m -1.848,-2.352 0.972,0.792 v 2.94 h -0.66 v -1.032 c 0,-0.08 -0.03,-0.154 -0.09,-0.222 -0.06,-0.068 -0.134,-0.102 -0.222,-0.102 -0.112,0 -0.198,0.034 -0.258,0.102 -0.06,0.068 -0.09,0.142 -0.09,0.222 v 1.032 h -0.66 v -2.94 l 1.008,-0.792"
         fill-rule="evenodd"
         vector-effect="none" />
    </g>
    <g
       id="g30"
       font-style="normal"
       font-weight="400"
       font-size="8.25px"
       font-family="'MS Shell Dlg 2'"
       transform="scale(1.33333)"
       stroke="none"
       fill="none" />
    <g
       id="g32"
       font-style="normal"
       font-weight="400"
       font-size="8.25px"
       font-family="'MS Shell Dlg 2'"
       stroke="none"
       fill="none" />
    <g
       id="g34"
       font-style="normal"
       font-weight="400"
       font-size="8.25px"
       font-family="'MS Shell Dlg 2'"
       stroke-linejoin="bevel"
       stroke-linecap="square"
       stroke-width="1"
       stroke-opacity="1"
       stroke="#000000"
       fill="none" />
  </g>
</svg>
