<?xml version="1.0" encoding="UTF-8" standalone="no"?>
<svg
   xmlns:dc="http://purl.org/dc/elements/1.1/"
   xmlns:cc="http://creativecommons.org/ns#"
   xmlns:rdf="http://www.w3.org/1999/02/22-rdf-syntax-ns#"
   xmlns:svg="http://www.w3.org/2000/svg"
   xmlns="http://www.w3.org/2000/svg"
   xmlns:sodipodi="http://sodipodi.sourceforge.net/DTD/sodipodi-0.dtd"
   xmlns:inkscape="http://www.inkscape.org/namespaces/inkscape"
   inkscape:version="1.0 (4035a4fb49, 2020-05-01)"
   sodipodi:docname="200k_63.svg"
   id="svg30"
   version="1.2"
   viewBox="0 0 10.962 10.962"
   height="3.8671539mm"
   width="3.8671539mm">
  <metadata
     id="metadata34">
    <rdf:RDF>
      <cc:Work
         rdf:about="">
        <dc:format>image/svg+xml</dc:format>
        <dc:type
           rdf:resource="http://purl.org/dc/dcmitype/StillImage" />
      </cc:Work>
    </rdf:RDF>
  </metadata>
  <sodipodi:namedview
     inkscape:current-layer="svg30"
     inkscape:window-maximized="1"
     inkscape:window-y="-9"
     inkscape:window-x="-9"
     inkscape:cy="5.832006"
     inkscape:cx="7.4133409"
     inkscape:zoom="18.047943"
     showgrid="false"
     id="namedview32"
     inkscape:window-height="1013"
     inkscape:window-width="1920"
     inkscape:pageshadow="2"
     inkscape:pageopacity="0"
     guidetolerance="10"
     gridtolerance="10"
     objecttolerance="10"
     borderopacity="1"
     bordercolor="#666666"
     pagecolor="#ffffff" />
  <title
     id="title2">Qt SVG Document</title>
  <desc
     id="desc4">Generated with Qt</desc>
  <defs
     id="defs6" />
  <g
     transform="translate(-10.44,-11.626)"
     id="g28"
     stroke-linejoin="bevel"
     stroke-linecap="square"
     fill-rule="evenodd"
     stroke-width="1"
     stroke="#000000"
     fill="none">
    <g
       id="g10"
       font-style="normal"
       font-weight="400"
       font-size="8.25px"
       font-family="'MS Shell Dlg 2'"
       stroke="none"
       fill-opacity="1"
       fill="#33a02c">
      <path
         id="path8"
         d="m 21.402,17.114 c 0,0.756 -0.1423,1.4677 -0.427,2.135 -0.2847,0.6673 -0.6767,1.2483 -1.176,1.743 -0.4993,0.4947 -1.0827,0.8843 -1.75,1.169 -0.6673,0.2847 -1.379,0.427 -2.135,0.427 -0.756,0 -1.4677,-0.1423 -2.135,-0.427 -0.6673,-0.2847 -1.2483,-0.6743 -1.743,-1.169 -0.4947,-0.4947 -0.8843,-1.0757 -1.169,-1.743 -0.2847,-0.6673 -0.427,-1.379 -0.427,-2.135 0,-0.756 0.1423,-1.4677 0.427,-2.135 0.2847,-0.6673 0.6743,-1.2507 1.169,-1.75 0.4947,-0.4993 1.0757,-0.8913 1.743,-1.176 0.6673,-0.2847 1.379,-0.427 2.135,-0.427 0.756,0 1.4677,0.1423 2.135,0.427 0.6673,0.2847 1.2507,0.6767 1.75,1.176 0.4993,0.4993 0.8913,1.0827 1.176,1.75 0.2847,0.6673 0.427,1.379 0.427,2.135"
         fill-rule="evenodd"
         vector-effect="none" />
    </g>
    <g
       id="g12"
       font-style="normal"
       font-weight="400"
       font-size="8.25px"
       font-family="'MS Shell Dlg 2'"
       stroke="none"
       fill-opacity="1"
       fill="#33a02c" />
    <g
       id="g14"
       font-style="normal"
       font-weight="400"
       font-size="8.25px"
       font-family="'MS Shell Dlg 2'"
       stroke="none"
       fill="none" />
    <g
       id="g16"
       font-style="normal"
       font-weight="400"
       font-size="8.25px"
       font-family="'MS Shell Dlg 2'"
       transform="scale(1.33333)"
       stroke="none"
       fill="none" />
    <g
       id="g20"
       font-style="normal"
       font-weight="400"
       font-size="8.25px"
       font-family="'MS Shell Dlg 2'"
       stroke="none"
       fill-opacity="1"
       fill="#ffffff">
      <path
         id="path18"
         d="m 18.189,20.053 c 0.096,0 0.176,0.034 0.24,0.102 0.064,0.068 0.096,0.146 0.096,0.234 0,0.096 -0.032,0.176 -0.096,0.24 -0.064,0.064 -0.144,0.096 -0.24,0.096 -0.088,0 -0.166,-0.032 -0.234,-0.096 -0.068,-0.064 -0.102,-0.144 -0.102,-0.24 0,-0.088 0.034,-0.166 0.102,-0.234 0.068,-0.068 0.146,-0.102 0.234,-0.102 m 0,0.48 c 0.096,0 0.144,-0.048 0.144,-0.144 0,-0.04 -0.014,-0.074 -0.042,-0.102 -0.028,-0.028 -0.062,-0.042 -0.102,-0.042 -0.04,0 -0.074,0.014 -0.102,0.042 -0.028,0.028 -0.042,0.062 -0.042,0.102 0,0.04 0.014,0.074 0.042,0.102 0.028,0.028 0.062,0.042 0.102,0.042 m -3.924,-6.264 c -0.096,0 -0.176,-0.032 -0.24,-0.096 -0.064,-0.064 -0.096,-0.144 -0.096,-0.24 0,-0.088 0.032,-0.166 0.096,-0.234 0.064,-0.068 0.144,-0.102 0.24,-0.102 0.088,0 0.166,0.034 0.234,0.102 0.068,0.068 0.102,0.146 0.102,0.234 0,0.096 -0.034,0.176 -0.102,0.24 -0.068,0.064 -0.146,0.096 -0.234,0.096 m 0,-0.48 c -0.04,0 -0.074,0.014 -0.102,0.042 -0.028,0.028 -0.042,0.062 -0.042,0.102 0,0.096 0.048,0.144 0.144,0.144 0.04,0 0.074,-0.014 0.102,-0.042 0.028,-0.028 0.042,-0.062 0.042,-0.102 0,-0.04 -0.014,-0.074 -0.042,-0.102 -0.028,-0.028 -0.062,-0.042 -0.102,-0.042 m -0.06,5.676 c -0.12,0 -0.222,0.042 -0.306,0.126 -0.084,0.084 -0.126,0.186 -0.126,0.306 0,0.088 0.024,0.166 0.072,0.234 0.048,0.068 0.108,0.122 0.18,0.162 0.008,0.072 0.036,0.144 0.084,0.216 -0.152,-0.016 -0.278,-0.082 -0.378,-0.198 -0.1,-0.116 -0.15,-0.254 -0.15,-0.414 0,-0.176 0.06,-0.324 0.18,-0.444 0.12,-0.12 0.268,-0.18 0.444,-0.18 0.04,0 0.092,0.008 0.156,0.024 l -0.084,0.18 c -0.016,0 -0.028,-0.002 -0.036,-0.006 -0.008,-0.004 -0.02,-0.006 -0.036,-0.006 m 2.628,-2.592 c 0.28,-0.152 0.53,-0.378 0.75,-0.678 0.22,-0.3 0.406,-0.614 0.558,-0.942 0.152,-0.328 0.272,-0.638 0.36,-0.93 0.088,-0.292 0.14,-0.502 0.156,-0.63 h 0.204 c 0,0.032 -0.016,0.122 -0.048,0.27 -0.032,0.148 -0.082,0.328 -0.15,0.54 -0.068,0.212 -0.156,0.444 -0.264,0.696 -0.108,0.252 -0.238,0.5 -0.39,0.744 -0.152,0.244 -0.326,0.468 -0.522,0.672 -0.196,0.204 -0.414,0.366 -0.654,0.486 v -0.228 m -0.972,-1.392 c -0.144,0 -0.268,-0.05 -0.372,-0.15 -0.104,-0.1 -0.156,-0.226 -0.156,-0.378 0,-0.144 0.052,-0.268 0.156,-0.372 0.104,-0.104 0.228,-0.156 0.372,-0.156 0.144,0 0.268,0.052 0.372,0.156 0.104,0.104 0.156,0.228 0.156,0.372 0,0.152 -0.052,0.278 -0.156,0.378 -0.104,0.1 -0.228,0.15 -0.372,0.15 m 1.32,2.544 -0.96,0.444 c -0.064,0.024 -0.136,0.036 -0.216,0.036 -0.04,0 -0.08,0 -0.12,0 -0.04,0 -0.08,-0.008 -0.12,-0.024 l -0.852,1.956 c -0.04,0.088 -0.106,0.146 -0.198,0.174 -0.092,0.028 -0.186,0.014 -0.282,-0.042 -0.088,-0.056 -0.152,-0.134 -0.192,-0.234 -0.04,-0.1 -0.04,-0.194 0,-0.282 l 1.044,-2.388 h 1.332 v -0.228 h -1.332 v -1.068 l -0.768,0.3 c -0.152,0.064 -0.276,0.028 -0.372,-0.108 l -0.672,-1.032 c -0.04,-0.064 -0.052,-0.138 -0.036,-0.222 0.016,-0.084 0.056,-0.146 0.12,-0.186 0.072,-0.048 0.15,-0.062 0.234,-0.042 0.084,0.02 0.146,0.062 0.186,0.126 l 0.54,0.828 1.056,-0.42 c 0.048,-0.016 0.088,-0.02 0.12,-0.012 l 0.612,-0.012 1.008,-1.62 c 0.04,-0.064 0.1,-0.104 0.18,-0.12 0.08,-0.016 0.152,-0.004 0.216,0.036 0.072,0.04 0.118,0.102 0.138,0.186 0.02,0.084 0.006,0.158 -0.042,0.222 l -1.188,1.908 v 1.236 l 0.672,-0.312 c 0.088,-0.04 0.18,-0.032 0.276,0.024 0.096,0.056 0.156,0.132 0.18,0.228 l 0.324,1.32 c 0.024,0.096 0.012,0.184 -0.036,0.264 -0.048,0.08 -0.12,0.132 -0.216,0.156 -0.096,0.024 -0.186,0.012 -0.27,-0.036 -0.084,-0.048 -0.134,-0.12 -0.15,-0.216 l -0.216,-0.84 m -0.792,0.588 0.228,-0.108 v 2.388 h -0.228 v -2.28 m 1.476,0.696 c 0.016,-0.008 0.032,-0.016 0.048,-0.024 0.016,-0.008 0.032,-0.016 0.048,-0.024 0,0.128 -0.044,0.236 -0.132,0.324 -0.088,0.088 -0.196,0.132 -0.324,0.132 -0.128,0 -0.236,-0.044 -0.324,-0.132 -0.088,-0.088 -0.132,-0.196 -0.132,-0.324 0,-0.144 0.052,-0.256 0.156,-0.336 0.016,0.032 0.03,0.062 0.042,0.09 0.012,0.028 0.03,0.058 0.054,0.09 -0.04,0.04 -0.06,0.092 -0.06,0.156 0,0.072 0.026,0.134 0.078,0.186 0.052,0.052 0.114,0.078 0.186,0.078 0.064,0 0.118,-0.018 0.162,-0.054 0.044,-0.036 0.074,-0.086 0.09,-0.15 0.048,0 0.084,-0.004 0.108,-0.012 m -4.032,-2.892 c -0.112,0.096 -0.228,0.144 -0.348,0.144 -0.136,0 -0.254,-0.05 -0.354,-0.15 -0.1,-0.1 -0.15,-0.218 -0.15,-0.354 0,-0.112 0.03,-0.208 0.09,-0.288 0.06,-0.08 0.134,-0.14 0.222,-0.18 0.008,0.008 0.012,0.016 0.012,0.024 0,0.008 0.004,0.016 0.012,0.024 l 0.084,0.132 c -0.152,0.04 -0.228,0.136 -0.228,0.288 0,0.088 0.03,0.162 0.09,0.222 0.06,0.06 0.134,0.09 0.222,0.09 0.096,0 0.172,-0.04 0.228,-0.12 l 0.12,0.168 m 3.228,-2.412 c 0,-0.024 -0.002,-0.046 -0.006,-0.066 -0.004,-0.02 -0.006,-0.042 -0.006,-0.066 0,-0.152 0.054,-0.282 0.162,-0.39 0.108,-0.108 0.238,-0.162 0.39,-0.162 0.152,0 0.282,0.054 0.39,0.162 0.108,0.108 0.162,0.238 0.162,0.39 0,0.12 -0.04,0.232 -0.12,0.336 0.008,-0.056 0.008,-0.116 0,-0.18 -0.016,-0.056 -0.04,-0.116 -0.072,-0.18 -0.008,-0.088 -0.046,-0.166 -0.114,-0.234 -0.068,-0.068 -0.15,-0.102 -0.246,-0.102 -0.08,0 -0.148,0.022 -0.204,0.066 -0.056,0.044 -0.1,0.098 -0.132,0.162 -0.032,0.024 -0.072,0.068 -0.12,0.132 l -0.084,0.132"
         fill-rule="evenodd"
         vector-effect="none" />
    </g>
    <g
       id="g22"
       font-style="normal"
       font-weight="400"
       font-size="8.25px"
       font-family="'MS Shell Dlg 2'"
       transform="scale(1.33333)"
       stroke="none"
       fill="none" />
    <g
       id="g24"
       font-style="normal"
       font-weight="400"
       font-size="8.25px"
       font-family="'MS Shell Dlg 2'"
       stroke="none"
       fill="none" />
    <g
       id="g26"
       font-style="normal"
       font-weight="400"
       font-size="8.25px"
       font-family="'MS Shell Dlg 2'"
       stroke="none"
       fill-opacity="1"
       fill="#33a02c" />
  </g>
</svg>
