<?xml version="1.0" encoding="UTF-8" standalone="no"?>
<svg
   xmlns:dc="http://purl.org/dc/elements/1.1/"
   xmlns:cc="http://creativecommons.org/ns#"
   xmlns:rdf="http://www.w3.org/1999/02/22-rdf-syntax-ns#"
   xmlns:svg="http://www.w3.org/2000/svg"
   xmlns="http://www.w3.org/2000/svg"
   xmlns:sodipodi="http://sodipodi.sourceforge.net/DTD/sodipodi-0.dtd"
   xmlns:inkscape="http://www.inkscape.org/namespaces/inkscape"
   inkscape:version="1.0 (4035a4fb49, 2020-05-01)"
   sodipodi:docname="200k_41.svg"
   id="svg38"
   version="1.2"
   viewBox="0 0 10.962 10.962"
   height="3.8671539mm"
   width="3.8671539mm">
  <metadata
     id="metadata42">
    <rdf:RDF>
      <cc:Work
         rdf:about="">
        <dc:format>image/svg+xml</dc:format>
        <dc:type
           rdf:resource="http://purl.org/dc/dcmitype/StillImage" />
      </cc:Work>
    </rdf:RDF>
  </metadata>
  <sodipodi:namedview
     inkscape:current-layer="svg38"
     inkscape:window-maximized="1"
     inkscape:window-y="-9"
     inkscape:window-x="-9"
     inkscape:cy="1.3993679"
     inkscape:cx="7.4133409"
     inkscape:zoom="18.047943"
     showgrid="false"
     id="namedview40"
     inkscape:window-height="1013"
     inkscape:window-width="1920"
     inkscape:pageshadow="2"
     inkscape:pageopacity="0"
     guidetolerance="10"
     gridtolerance="10"
     objecttolerance="10"
     borderopacity="1"
     bordercolor="#666666"
     pagecolor="#ffffff" />
  <title
     id="title2">Qt SVG Document</title>
  <desc
     id="desc4">Generated with Qt</desc>
  <defs
     id="defs6" />
  <g
     transform="translate(-10.44,-11.626)"
     id="g36"
     stroke-linejoin="bevel"
     stroke-linecap="square"
     fill-rule="evenodd"
     stroke-width="1"
     stroke="#000000"
     fill="none">
    <g
       id="g8"
       font-style="normal"
       font-weight="400"
       font-size="8.25px"
       font-family="'MS Shell Dlg 2'"
       stroke="none"
       fill="none" />
    <g
       id="g10"
       font-style="normal"
       font-weight="400"
       font-size="8.25px"
       font-family="'MS Shell Dlg 2'"
       transform="scale(1.33333)"
       stroke="none"
       fill="none" />
    <g
       id="g14"
       font-style="normal"
       font-weight="400"
       font-size="8.25px"
       font-family="'MS Shell Dlg 2'"
       stroke="none"
       fill-opacity="1"
       fill="#a61215">
      <path
         id="path12"
         d="m 21.402,17.114 c 0,0.756 -0.1423,1.4677 -0.427,2.135 -0.2847,0.6673 -0.6767,1.2483 -1.176,1.743 -0.4993,0.4947 -1.0827,0.8843 -1.75,1.169 -0.6673,0.2847 -1.379,0.427 -2.135,0.427 -0.756,0 -1.4677,-0.1423 -2.135,-0.427 -0.6673,-0.2847 -1.2483,-0.6743 -1.743,-1.169 -0.4947,-0.4947 -0.8843,-1.0757 -1.169,-1.743 -0.2847,-0.6673 -0.427,-1.379 -0.427,-2.135 0,-0.756 0.1423,-1.4677 0.427,-2.135 0.2847,-0.6673 0.6743,-1.2507 1.169,-1.75 0.4947,-0.4993 1.0757,-0.8913 1.743,-1.176 0.6673,-0.2847 1.379,-0.427 2.135,-0.427 0.756,0 1.4677,0.1423 2.135,0.427 0.6673,0.2847 1.2507,0.6767 1.75,1.176 0.4993,0.4993 0.8913,1.0827 1.176,1.75 0.2847,0.6673 0.427,1.379 0.427,2.135"
         fill-rule="evenodd"
         vector-effect="none" />
    </g>
    <g
       id="g16"
       font-style="normal"
       font-weight="400"
       font-size="8.25px"
       font-family="'MS Shell Dlg 2'"
       transform="scale(1.33333)"
       stroke="none"
       fill="none" />
    <g
       id="g18"
       font-style="normal"
       font-weight="400"
       font-size="8.25px"
       font-family="'MS Shell Dlg 2'"
       stroke="none"
       fill="none" />
    <g
       id="g20"
       font-style="normal"
       font-weight="400"
       font-size="8.25px"
       font-family="'MS Shell Dlg 2'"
       stroke-linejoin="bevel"
       stroke-linecap="square"
       stroke-width="1"
       stroke-opacity="1"
       stroke="#000000"
       fill="none" />
    <g
       id="g22"
       font-style="normal"
       font-weight="400"
       font-size="8.25px"
       font-family="'MS Shell Dlg 2'"
       stroke="none"
       fill="none" />
    <g
       id="g24"
       font-style="normal"
       font-weight="400"
       font-size="8.25px"
       font-family="'MS Shell Dlg 2'"
       transform="scale(1.33333)"
       stroke="none"
       fill="none" />
    <g
       id="g28"
       font-style="normal"
       font-weight="400"
       font-size="8.25px"
       font-family="'MS Shell Dlg 2'"
       stroke="none"
       fill-opacity="1"
       fill="#f9f9f9">
      <path
         id="path26"
         d="m 19.206,16.657 v 0.61 l -0.75,0.59 0.75,-0.39 v 1.11 l -0.67,0.51 0.67,-0.35 v 1.49 l -0.16,-0.88 v 0.95 l -2.41,-0.17 0.13,-0.03 -0.17,0.03 h -2.07 l -0.19,0.09 -0.32,0.01 -0.43,0.01 0.22,-0.12 -0.53,0.02 h -0.64 l 0.27,-1.26 0.41,-0.22 -0.57,-0.01 0.56,-1.57 -0.49,0.86 0.26,-1.31 -0.08,-0.38 0.96,-0.92 -0.57,0.18 0.45,-0.69 1.77,-0.9 0.87,0.13 -0.82,0.62 1.3,-0.75 0.87,0.65 -0.25,0.29 0.51,-0.33 0.48,1.04 -0.32,0.46 0.27,-0.18 h 0.45 l 0.24,0.81 m -2.52,2.93 1.46,0.13 0.06,-0.02 -0.39,-1.59 v -0.96 l -0.18,0.14 0.12,-0.88 -0.39,-0.15 -0.34,-0.75 -0.72,-0.15 0.63,-0.69 -0.77,0.45 -0.8,0.17 -0.94,0.07 -0.64,1.4 0.48,-0.47 -0.4,1.8 -0.21,0.17 0.27,-0.03 -0.35,0.81 0.18,0.13 0.12,0.92 0.97,-0.47 0.02,-0.27 -0.22,-0.02 0.18,-0.32 0.48,-0.06 0.42,0.05 v -0.01 -0.03 l -0.01,-0.03 v -0.02 -0.03 -0.02 l 0.01,-0.03 v -0.04 l -0.01,-0.03 0.01,-0.01 -0.01,-0.02 v -0.12 -0.03 -0.02 l 0.02,-0.06 v -0.01 l -0.01,-0.01 v -0.01 l 0.01,-0.03 0.01,-0.02 v -0.02 l 0.02,-0.01 0.01,-0.01 0.01,-0.02 v -0.02 l 0.01,-0.01 0.02,-0.02 v -0.03 l 0.01,-0.01 0.04,-0.01 h 0.01 l 0.01,-0.01 v -0.01 -0.06 l -0.01,-0.02 0.01,-0.02 -0.01,-0.03 0.01,-0.02 v -0.02 l -0.01,-0.01 v -0.05 l 0.01,-0.02 v -0.01 -0.25 l -0.01,-0.03 0.01,-0.03 -0.01,-0.03 v -0.04 l 0.01,-0.02 -0.01,-0.02 v -0.01 l 0.01,-0.03 v -0.01 l -0.01,-0.05 -0.01,-0.01 h -0.02 l -0.03,0.01 -0.03,-0.01 h -0.08 -0.03 -0.06 -0.03 -0.02 -0.08 l -0.05,0.01 -0.05,-0.01 h -0.02 l -0.02,0.01 h -0.02 l -0.01,0.02 -0.02,0.03 -0.01,0.01 h -0.05 l -0.02,-0.01 h -0.03 -0.01 -0.03 l -0.03,-0.02 -0.02,-0.01 -0.02,-0.02 h -0.01 l -0.02,-0.01 -0.03,-0.01 v -0.01 l -0.02,-0.03 -0.02,-0.01 -0.01,-0.03 v -0.01 -0.06 l 0.01,-0.02 v -0.03 -0.01 l 0.01,-0.02 0.05,-0.02 0.02,-0.03 h 0.01 l 0.03,-0.01 0.04,-0.02 0.02,-0.01 0.02,-0.01 h 0.01 l 0.05,0.02 h 0.03 0.01 l 0.02,0.01 0.02,0.03 0.02,0.02 h 0.04 l 0.02,-0.01 h 0.02 l 0.03,0.01 0.03,-0.01 h 0.1 l 0.02,0.01 0.04,-0.01 0.04,0.01 0.03,-0.01 h 0.18 v -0.02 -0.01 -0.03 l -0.01,-0.02 v -0.03 l 0.01,-0.02 v -0.02 l -0.01,-0.02 0.01,-0.02 v -0.05 -0.02 l -0.01,-0.01 v -0.04 l 0.01,-0.01 v -0.03 -0.02 l -0.01,-0.02 v -0.06 l 0.01,-0.01 v -0.01 l -0.01,-0.02 v -0.01 h -0.05 l -0.01,-0.01 v -0.01 l -0.03,-0.04 v -0.03 l 0.01,-0.02 v -0.03 l 0.01,-0.03 0.02,-0.03 0.01,-0.01 0.03,-0.04 0.01,-0.03 0.01,-0.01 0.03,-0.01 v -0.01 l 0.05,-0.04 h 0.03 l 0.03,-0.02 h 0.03 l 0.01,0.01 v 0.02 l 0.01,0.01 0.02,-0.01 0.03,0.01 0.01,0.01 0.01,0.02 0.02,0.01 0.02,0.04 0.01,0.01 h 0.03 l 0.02,0.01 v 0.08 0.01 l 0.02,0.02 v 0.05 l -0.02,0.03 -0.02,0.03 -0.03,0.01 -0.02,0.03 v 0.04 0.01 0.03 0.13 0.03 0.11 0.04 0.02 0.01 0.03 0.01 l 0.01,0.01 0.02,-0.01 0.03,0.01 h 0.19 l 0.03,-0.01 0.01,0.01 0.01,-0.01 h 0.1 l 0.03,0.02 0.03,-0.01 0.01,-0.01 0.02,-0.03 0.01,-0.01 0.02,-0.01 0.03,-0.01 h 0.03 l 0.02,0.01 h 0.03 0.02 0.04 l 0.05,0.02 0.02,0.02 h 0.01 v 0.02 l 0.03,0.01 h 0.02 l 0.02,0.02 v 0.02 0.04 l 0.01,0.02 v 0.04 l -0.01,0.03 -0.03,0.03 h -0.01 l -0.03,0.04 -0.01,0.01 -0.02,0.02 h -0.03 -0.01 l -0.02,0.01 h -0.02 l -0.02,0.01 -0.02,0.01 h -0.02 -0.03 l -0.07,-0.03 v -0.01 l -0.02,-0.01 h -0.01 -0.02 -0.03 l -0.02,0.01 h -0.03 -0.01 -0.01 l -0.01,-0.01 h -0.01 l -0.02,0.01 h -0.01 l -0.02,-0.01 h -0.02 l -0.01,0.01 h -0.09 l -0.03,-0.01 -0.02,0.01 h -0.04 -0.02 -0.03 l -0.01,0.01 -0.01,0.01 v 0.05 0.02 l 0.01,0.02 v 0.02 0.02 l -0.01,0.06 v 0.02 0.01 0.04 0.03 0.12 0.03 0.05 l 0.01,0.03 -0.01,0.04 v 0.03 0.01 0.05 0.05 0.02 0.02 l 0.01,0.03 -0.01,0.01 0.01,0.01 0.02,0.01 h 0.01 l 0.02,0.06 h 0.01 l 0.03,0.02 0.02,0.01 0.05,0.09 v 0.02 l 0.01,0.01 v 0.12 l -0.01,0.04 v 0.2 l 0.01,0.02 -0.01,0.02 v 0.03 l 0.01,0.04 v 0.02 l -0.01,0.02 0.46,-0.02 0.22,0.06 -0.05,0.42 -0.29,0.14"
         fill-rule="evenodd"
         vector-effect="none" />
    </g>
    <g
       id="g30"
       font-style="normal"
       font-weight="400"
       font-size="8.25px"
       font-family="'MS Shell Dlg 2'"
       transform="scale(1.33333)"
       stroke="none"
       fill="none" />
    <g
       id="g32"
       font-style="normal"
       font-weight="400"
       font-size="8.25px"
       font-family="'MS Shell Dlg 2'"
       stroke="none"
       fill="none" />
    <g
       id="g34"
       font-style="normal"
       font-weight="400"
       font-size="8.25px"
       font-family="'MS Shell Dlg 2'"
       stroke-linejoin="bevel"
       stroke-linecap="square"
       stroke-width="1"
       stroke-opacity="1"
       stroke="#000000"
       fill="none" />
  </g>
</svg>
