<?xml version="1.0" encoding="UTF-8" standalone="no"?>
<svg
   xmlns:dc="http://purl.org/dc/elements/1.1/"
   xmlns:cc="http://creativecommons.org/ns#"
   xmlns:rdf="http://www.w3.org/1999/02/22-rdf-syntax-ns#"
   xmlns:svg="http://www.w3.org/2000/svg"
   xmlns="http://www.w3.org/2000/svg"
   xmlns:sodipodi="http://sodipodi.sourceforge.net/DTD/sodipodi-0.dtd"
   xmlns:inkscape="http://www.inkscape.org/namespaces/inkscape"
   inkscape:version="1.0 (4035a4fb49, 2020-05-01)"
   sodipodi:docname="200k_74.svg"
   id="svg22"
   version="1.2"
   viewBox="0 0 10.962 10.962"
   height="3.8671539mm"
   width="3.8671539mm">
  <metadata
     id="metadata26">
    <rdf:RDF>
      <cc:Work
         rdf:about="">
        <dc:format>image/svg+xml</dc:format>
        <dc:type
           rdf:resource="http://purl.org/dc/dcmitype/StillImage" />
      </cc:Work>
    </rdf:RDF>
  </metadata>
  <sodipodi:namedview
     inkscape:current-layer="svg22"
     inkscape:window-maximized="1"
     inkscape:window-y="-9"
     inkscape:window-x="-9"
     inkscape:cy="5.832006"
     inkscape:cx="7.4133409"
     inkscape:zoom="18.047943"
     showgrid="false"
     id="namedview24"
     inkscape:window-height="1013"
     inkscape:window-width="1920"
     inkscape:pageshadow="2"
     inkscape:pageopacity="0"
     guidetolerance="10"
     gridtolerance="10"
     objecttolerance="10"
     borderopacity="1"
     bordercolor="#666666"
     pagecolor="#ffffff" />
  <title
     id="title2">Qt SVG Document</title>
  <desc
     id="desc4">Generated with Qt</desc>
  <defs
     id="defs6" />
  <g
     transform="translate(-10.44,-11.626)"
     id="g20"
     stroke-linejoin="bevel"
     stroke-linecap="square"
     fill-rule="evenodd"
     stroke-width="1"
     stroke="#000000"
     fill="none">
    <g
       id="g10"
       font-style="normal"
       font-weight="400"
       font-size="8.25px"
       font-family="'MS Shell Dlg 2'"
       stroke="none"
       fill-opacity="1"
       fill="#1f78b4">
      <path
         id="path8"
         d="m 21.402,17.114 c 0,0.756 -0.1423,1.4677 -0.427,2.135 -0.2847,0.6673 -0.6767,1.2483 -1.176,1.743 -0.4993,0.4947 -1.0827,0.8843 -1.75,1.169 -0.6673,0.2847 -1.379,0.427 -2.135,0.427 -0.756,0 -1.4677,-0.1423 -2.135,-0.427 -0.6673,-0.2847 -1.2483,-0.6743 -1.743,-1.169 -0.4947,-0.4947 -0.8843,-1.0757 -1.169,-1.743 -0.2847,-0.6673 -0.427,-1.379 -0.427,-2.135 0,-0.756 0.1423,-1.4677 0.427,-2.135 0.2847,-0.6673 0.6743,-1.2507 1.169,-1.75 0.4947,-0.4993 1.0757,-0.8913 1.743,-1.176 0.6673,-0.2847 1.379,-0.427 2.135,-0.427 0.756,0 1.4677,0.1423 2.135,0.427 0.6673,0.2847 1.2507,0.6767 1.75,1.176 0.4993,0.4993 0.8913,1.0827 1.176,1.75 0.2847,0.6673 0.427,1.379 0.427,2.135"
         fill-rule="evenodd"
         vector-effect="none" />
    </g>
    <g
       id="g12"
       font-style="normal"
       font-weight="400"
       font-size="8.25px"
       font-family="'MS Shell Dlg 2'"
       stroke="none"
       fill-opacity="1"
       fill="#1f78b4" />
    <g
       id="g16"
       font-style="normal"
       font-weight="400"
       font-size="8.25px"
       font-family="'MS Shell Dlg 2'"
       stroke="none"
       fill-opacity="1"
       fill="#ffffff">
      <path
         id="path14"
         d="m 16.8615,19.296 h -0.198 v 0.407 h -0.352 v -1.408 c 0,-0.1027 -0.0385,-0.1925 -0.1155,-0.2695 -0.077,-0.077 -0.1705,-0.1155 -0.2805,-0.1155 -0.1027,0 -0.1925,0.0385 -0.2695,0.1155 -0.077,0.077 -0.1155,0.1668 -0.1155,0.2695 v 1.408 h -0.352 v -0.407 h -0.198 v 0.066 h -2.145 v -3.333 c 0,-0.0953 0.033,-0.176 0.099,-0.242 0.066,-0.066 0.143,-0.099 0.231,-0.099 h 0.726 l -0.11,-0.33 2.134,-1.199 2.145,1.199 -0.11,0.33 h 0.726 c 0.088,0 0.165,0.033 0.231,0.099 0.066,0.066 0.099,0.1467 0.099,0.242 v 3.333 h -2.145 v -0.066 m 0.506,-3.047 h -0.704 v 0.946 h 0.704 v -0.946 m 0.319,0.946 h 0.704 v -0.946 h -0.704 v 0.946 m 0,1.43 h 0.704 v -0.957 h -0.704 v 0.957 m -3.531,-0.957 h -0.704 v 0.957 h 0.704 v -0.957 m 0,-1.419 h -0.704 v 0.946 h 0.704 v -0.946 m 1.023,1.419 h -0.704 v 0.957 h 0.704 v -0.957 m 0,-1.419 h -0.704 v 0.946 h 0.704 v -0.946 m 2.486,-0.737 -1.749,-0.979 -1.738,0.979 h 1.199 c 0,-0.1467 0.0532,-0.2732 0.1595,-0.3795 0.1063,-0.1063 0.2328,-0.1595 0.3795,-0.1595 0.154,0 0.2842,0.0532 0.3905,0.1595 0.1063,0.1063 0.1595,0.2328 0.1595,0.3795 h 1.199 m -0.297,3.113 v -0.957 h -0.704 v 0.957 h 0.704 m 1.815,0.814 v 0.616 h -2.321 v -0.616 h 2.321 m -6.523,0 h 2.321 v 0.616 h -2.321 v -0.616 m 2.519,0.385 h 1.485 v 0.231 h -1.485 v -0.231"
         fill-rule="evenodd"
         vector-effect="none" />
    </g>
    <g
       id="g18"
       font-style="normal"
       font-weight="400"
       font-size="8.25px"
       font-family="'MS Shell Dlg 2'"
       stroke="none"
       fill-opacity="1"
       fill="#ffffff" />
  </g>
</svg>
