<?xml version="1.0" encoding="UTF-8" standalone="no"?>
<svg
   xmlns:dc="http://purl.org/dc/elements/1.1/"
   xmlns:cc="http://creativecommons.org/ns#"
   xmlns:rdf="http://www.w3.org/1999/02/22-rdf-syntax-ns#"
   xmlns:svg="http://www.w3.org/2000/svg"
   xmlns="http://www.w3.org/2000/svg"
   xmlns:sodipodi="http://sodipodi.sourceforge.net/DTD/sodipodi-0.dtd"
   xmlns:inkscape="http://www.inkscape.org/namespaces/inkscape"
   inkscape:version="1.0 (4035a4fb49, 2020-05-01)"
   sodipodi:docname="200k_67.svg"
   id="svg22"
   version="1.2"
   viewBox="0 0 10.962 10.962"
   height="3.8671539mm"
   width="3.8671539mm">
  <metadata
     id="metadata26">
    <rdf:RDF>
      <cc:Work
         rdf:about="">
        <dc:format>image/svg+xml</dc:format>
        <dc:type
           rdf:resource="http://purl.org/dc/dcmitype/StillImage" />
      </cc:Work>
    </rdf:RDF>
  </metadata>
  <sodipodi:namedview
     inkscape:current-layer="svg22"
     inkscape:window-maximized="1"
     inkscape:window-y="-9"
     inkscape:window-x="-9"
     inkscape:cy="5.832006"
     inkscape:cx="7.4133409"
     inkscape:zoom="18.047943"
     showgrid="false"
     id="namedview24"
     inkscape:window-height="1013"
     inkscape:window-width="1920"
     inkscape:pageshadow="2"
     inkscape:pageopacity="0"
     guidetolerance="10"
     gridtolerance="10"
     objecttolerance="10"
     borderopacity="1"
     bordercolor="#666666"
     pagecolor="#ffffff" />
  <title
     id="title2">Qt SVG Document</title>
  <desc
     id="desc4">Generated with Qt</desc>
  <defs
     id="defs6" />
  <g
     transform="translate(-10.44,-11.626)"
     id="g20"
     stroke-linejoin="bevel"
     stroke-linecap="square"
     fill-rule="evenodd"
     stroke-width="1"
     stroke="#000000"
     fill="none">
    <g
       id="g10"
       font-style="normal"
       font-weight="400"
       font-size="8.25px"
       font-family="'MS Shell Dlg 2'"
       stroke="none"
       fill-opacity="1"
       fill="#66b1e3">
      <path
         id="path8"
         d="m 21.402,17.114 c 0,0.756 -0.1423,1.4677 -0.427,2.135 -0.2847,0.6673 -0.6767,1.2483 -1.176,1.743 -0.4993,0.4947 -1.0827,0.8843 -1.75,1.169 -0.6673,0.2847 -1.379,0.427 -2.135,0.427 -0.756,0 -1.4677,-0.1423 -2.135,-0.427 -0.6673,-0.2847 -1.2483,-0.6743 -1.743,-1.169 -0.4947,-0.4947 -0.8843,-1.0757 -1.169,-1.743 -0.2847,-0.6673 -0.427,-1.379 -0.427,-2.135 0,-0.756 0.1423,-1.4677 0.427,-2.135 0.2847,-0.6673 0.6743,-1.2507 1.169,-1.75 0.4947,-0.4993 1.0757,-0.8913 1.743,-1.176 0.6673,-0.2847 1.379,-0.427 2.135,-0.427 0.756,0 1.4677,0.1423 2.135,0.427 0.6673,0.2847 1.2507,0.6767 1.75,1.176 0.4993,0.4993 0.8913,1.0827 1.176,1.75 0.2847,0.6673 0.427,1.379 0.427,2.135"
         fill-rule="evenodd"
         vector-effect="none" />
    </g>
    <g
       id="g12"
       font-style="normal"
       font-weight="400"
       font-size="8.25px"
       font-family="'MS Shell Dlg 2'"
       stroke="none"
       fill-opacity="1"
       fill="#66b1e3" />
    <g
       id="g16"
       font-style="normal"
       font-weight="400"
       font-size="8.25px"
       font-family="'MS Shell Dlg 2'"
       stroke="none"
       fill-opacity="1"
       fill="#ffffff">
      <path
         id="path14"
         d="m 17.908827,16.3645 c 0.0953,0.0293 0.2255,0.0733 0.3905,0.132 0.165,0.0587 0.3245,0.143 0.4785,0.253 0.154,0.11 0.2878,0.2475 0.4015,0.4125 0.1137,0.165 0.1705,0.3685 0.1705,0.6105 0,0.308 -0.1063,0.5793 -0.319,0.814 -0.1687,0.1907 -0.3887,0.3392 -0.66,0.4455 -0.2713,0.1063 -0.561,0.1595 -0.869,0.1595 -0.044,0 -0.0898,0 -0.1375,0 -0.0477,0 -0.1008,-0.0037 -0.1595,-0.011 -0.1687,-0.022 -0.3245,-0.0477 -0.4675,-0.077 -0.143,-0.0293 -0.2805,-0.0623 -0.4125,-0.099 -0.176,-0.0513 -0.3538,-0.0953 -0.5335,-0.132 -0.1797,-0.0367 -0.3978,-0.055 -0.6545,-0.055 h -0.132 c -0.462,0 -0.8873,-0.077 -1.276,-0.231 -0.3887,-0.154 -0.6893,-0.3667 -0.902,-0.638 -0.2713,-0.3447 -0.3777,-0.7443 -0.319,-1.199 0.0293,-0.2347 0.1228,-0.4565 0.2805,-0.6655 0.1577,-0.209 0.3557,-0.3923 0.594,-0.55 0.2383,-0.1577 0.5097,-0.2823 0.814,-0.374 0.3043,-0.0917 0.6178,-0.1375 0.9405,-0.1375 h 0.132 c 0.264,0.0147 0.4968,0.0495 0.6985,0.1045 0.2017,0.055 0.3777,0.1228 0.528,0.2035 0.1503,0.0807 0.2823,0.1705 0.396,0.2695 0.1137,0.099 0.2182,0.1925 0.3135,0.2805 0.1173,0.11 0.2273,0.2072 0.33,0.2915 0.1027,0.0843 0.2273,0.1485 0.374,0.1925 m 0.99,2.09 c 0.0953,-0.1027 0.165,-0.2108 0.209,-0.3245 0.044,-0.1137 0.066,-0.2328 0.066,-0.3575 0,-0.1833 -0.0403,-0.341 -0.121,-0.473 -0.0807,-0.132 -0.1833,-0.2457 -0.308,-0.341 -0.1247,-0.0953 -0.264,-0.176 -0.418,-0.242 -0.154,-0.066 -0.308,-0.121 -0.462,-0.165 -0.1687,-0.0513 -0.3098,-0.1228 -0.4235,-0.2145 -0.1137,-0.0917 -0.2292,-0.1962 -0.3465,-0.3135 -0.1027,-0.088 -0.2072,-0.1778 -0.3135,-0.2695 -0.1063,-0.0917 -0.231,-0.176 -0.374,-0.253 -0.143,-0.077 -0.308,-0.1412 -0.495,-0.1925 -0.187,-0.0513 -0.4052,-0.0807 -0.6545,-0.088 -0.0147,0 -0.033,-0.0018 -0.055,-0.0055 -0.022,-0.0037 -0.044,-0.0055 -0.066,-0.0055 -0.3007,0 -0.5922,0.0422 -0.8745,0.1265 -0.2823,0.0843 -0.5353,0.198 -0.759,0.341 -0.2237,0.143 -0.4088,0.3098 -0.5555,0.5005 -0.1467,0.1907 -0.2347,0.3887 -0.264,0.594 -0.0587,0.396 0.033,0.748 0.275,1.056 0.1907,0.2493 0.4693,0.4455 0.836,0.5885 0.3667,0.143 0.77,0.2145 1.21,0.2145 h 0.132 c 0.264,0 0.4895,0.0183 0.6765,0.055 0.187,0.0367 0.3722,0.077 0.5555,0.121 0.1247,0.0367 0.2567,0.0715 0.396,0.1045 0.1393,0.033 0.2933,0.0568 0.462,0.0715 0.0513,0.0073 0.099,0.0128 0.143,0.0165 0.044,0.0037 0.088,0.0055 0.132,0.0055 0.286,0 0.5537,-0.0495 0.803,-0.1485 0.2493,-0.099 0.4473,-0.2328 0.594,-0.4015 m -1.078,-1.716 c 0.4033,0.1247 0.7003,0.2677 0.891,0.429 0.1907,0.1613 0.286,0.363 0.286,0.605 0,0.1613 -0.0458,0.3098 -0.1375,0.4455 -0.0917,0.1357 -0.2182,0.2512 -0.3795,0.3465 -0.1613,0.0953 -0.3483,0.165 -0.561,0.209 -0.2127,0.044 -0.4363,0.0513 -0.671,0.022 -0.2053,-0.022 -0.3887,-0.055 -0.55,-0.099 -0.1613,-0.044 -0.3227,-0.0862 -0.484,-0.1265 -0.1613,-0.0403 -0.3337,-0.0733 -0.517,-0.099 -0.1833,-0.0257 -0.396,-0.0385 -0.638,-0.0385 -0.286,0.0073 -0.5683,-0.022 -0.847,-0.088 -0.2787,-0.066 -0.5243,-0.1668 -0.737,-0.3025 -0.2127,-0.1357 -0.3777,-0.3062 -0.495,-0.5115 -0.1173,-0.2053 -0.1577,-0.4473 -0.121,-0.726 0.022,-0.1907 0.1063,-0.374 0.253,-0.55 0.1467,-0.176 0.3318,-0.3282 0.5555,-0.4565 0.2237,-0.1283 0.473,-0.2273 0.748,-0.297 0.275,-0.0697 0.5555,-0.1008 0.8415,-0.0935 0.3887,0.0147 0.6967,0.0788 0.924,0.1925 0.2273,0.1137 0.4235,0.2438 0.5885,0.3905 0.165,0.1467 0.3227,0.2897 0.473,0.429 0.1503,0.1393 0.3428,0.2457 0.5775,0.319 m 0.88,1.4998 c 0.132,-0.1381 0.198,-0.2908 0.198,-0.4581 0,-0.1455 -0.0477,-0.2764 -0.143,-0.3927 -0.0293,0.066 -0.0807,0.099 -0.154,0.099 -0.0807,0 -0.1357,-0.0477 -0.165,-0.143 0.0367,0.066 0.0917,0.099 0.165,0.099 0.0513,0 0.099,-0.0221 0.143,-0.0663 -0.1613,-0.2068 -0.4803,-0.3802 -0.957,-0.5205 -0.1907,-0.059 -0.3538,-0.142 -0.4895,-0.249 -0.1357,-0.107 -0.2658,-0.2196 -0.3905,-0.3378 -0.0953,-0.0885 -0.1925,-0.1753 -0.2915,-0.2602 -0.099,-0.0849 -0.2108,-0.1605 -0.3355,-0.2269 -0.0367,0.096 -0.11,0.1439 -0.22,0.1439 -0.1173,0 -0.1943,-0.0627 -0.231,-0.1882 0.066,0.088 0.143,0.132 0.231,0.132 0.0807,0 0.1467,-0.033 0.198,-0.099 -0.1247,-0.066 -0.2677,-0.121 -0.429,-0.165 -0.1613,-0.044 -0.3557,-0.0697 -0.583,-0.077 h -0.11 c -0.2713,0 -0.5463,0.0403 -0.825,0.121 0.044,0.0293 0.0843,0.044 0.121,0.044 0.0733,0 0.1283,-0.0293 0.165,-0.088 -0.022,0.088 -0.077,0.132 -0.165,0.132 -0.0587,0 -0.1063,-0.0293 -0.143,-0.088 -0.352,0.1103 -0.6527,0.2727 -0.902,0.487 -0.2493,0.2143 -0.3923,0.4435 -0.429,0.6874 -0.0147,0.0887 -0.0147,0.1737 0,0.2549 0.022,0.0222 0.0513,0.0426 0.088,0.061 0.0367,0.0185 0.0733,0.0277 0.11,0.0277 0.1027,0 0.187,-0.0477 0.253,-0.143 -0.022,0.1164 -0.0917,0.1824 -0.209,0.198 0.0293,0.044 0.077,0.066 0.143,0.066 0.0807,0 0.1467,-0.033 0.198,-0.099 -0.0293,0.1027 -0.0953,0.154 -0.198,0.154 -0.0733,0 -0.1283,-0.0367 -0.165,-0.11 h -0.022 c -0.0807,0 -0.1467,-0.033 -0.198,-0.099 0.0367,0.1889 0.1063,0.3525 0.209,0.4905 0.1687,0.218 0.418,0.3887 0.748,0.5122 0.33,0.1235 0.693,0.1853 1.089,0.1853 h 0.132 c 0.2787,0 0.5188,0.0202 0.7205,0.0605 0.2017,0.0403 0.3942,0.0825 0.5775,0.1265 0.1247,0.0367 0.253,0.0697 0.385,0.099 0.132,0.0293 0.2787,0.0513 0.44,0.066 0.0367,0.0073 0.077,0.0128 0.121,0.0165 0.044,0.0037 0.0843,0.0055 0.121,0.0055 0.2493,0 0.4803,-0.04 0.693,-0.12 0.2127,-0.0799 0.3813,-0.1927 0.506,-0.3382 m -4.631,-1.9068 c -0.0587,0 -0.1137,-0.022 -0.165,-0.066 -0.0513,-0.044 -0.088,-0.0953 -0.11,-0.154 0.0293,0.0367 0.0678,0.0697 0.1155,0.099 0.0477,0.0293 0.1008,0.044 0.1595,0.044 0.066,0 0.1228,-0.0147 0.1705,-0.044 0.0477,-0.0293 0.0862,-0.0623 0.1155,-0.099 -0.022,0.0733 -0.066,0.132 -0.132,0.176 0.022,0.022 0.0477,0.0422 0.077,0.0605 0.0293,0.0183 0.0623,0.0275 0.099,0.0275 0.0807,0 0.1467,-0.0367 0.198,-0.11 -0.0293,0.1027 -0.0953,0.154 -0.198,0.154 -0.088,0 -0.1503,-0.044 -0.187,-0.132 -0.0367,0.0293 -0.0843,0.044 -0.143,0.044 m 2.651,0.451 c -0.066,0 -0.1265,-0.022 -0.1815,-0.066 -0.055,-0.044 -0.0898,-0.1027 -0.1045,-0.176 0.0587,0.11 0.154,0.165 0.286,0.165 0.1393,0 0.2383,-0.055 0.297,-0.165 -0.022,0.1247 -0.0917,0.198 -0.209,0.22 0.044,0.0587 0.1063,0.088 0.187,0.088 0.0953,0 0.1687,-0.0367 0.22,-0.11 -0.0293,0.1173 -0.1027,0.176 -0.22,0.176 -0.088,0 -0.1577,-0.0477 -0.209,-0.143 -0.0147,0 -0.0257,0.0018 -0.033,0.0055 -0.0073,0.0037 -0.0183,0.0055 -0.033,0.0055 m -1.199,-0.429 c -0.1393,0 -0.2273,-0.0697 -0.264,-0.209 0.0293,0.0367 0.066,0.0697 0.11,0.099 0.044,0.0293 0.0953,0.044 0.154,0.044 0.0953,0 0.176,-0.0403 0.242,-0.121 h -0.011 c -0.066,0 -0.1137,-0.0403 -0.143,-0.121 0.0367,0.0513 0.0843,0.077 0.143,0.077 0.066,0 0.1173,-0.0257 0.154,-0.077 -0.0147,0.0733 -0.0587,0.11 -0.132,0.11 -0.0367,0.132 -0.121,0.198 -0.253,0.198 m -0.572,1.837 c 0.0733,0 0.1357,-0.0318 0.187,-0.0954 -0.022,0.0929 -0.0843,0.1394 -0.187,0.1394 -0.0953,0 -0.154,-0.0465 -0.176,-0.1394 0.0513,0.0636 0.11,0.0954 0.176,0.0954 m 3.52,0.121 c 0.088,0 0.1577,-0.0375 0.209,-0.1124 -0.0293,0.1116 -0.099,0.1674 -0.209,0.1674 -0.0073,0 -0.0128,-0.0018 -0.0165,-0.0055 -0.0037,-0.0037 -0.0092,-0.0055 -0.0165,-0.0055 -0.0367,0.0807 -0.0953,0.121 -0.176,0.121 -0.0953,0 -0.154,-0.0477 -0.176,-0.143 0.0367,0.066 0.0953,0.099 0.176,0.099 0.0587,0 0.1137,-0.0257 0.165,-0.077 -0.088,-0.0209 -0.143,-0.073 -0.165,-0.1564 0.0513,0.0749 0.121,0.1124 0.209,0.1124 m -0.748,0.198 c 0.066,0 0.1173,-0.0257 0.154,-0.077 -0.0147,0.0807 -0.066,0.121 -0.154,0.121 -0.0807,0 -0.1357,-0.0403 -0.165,-0.121 0.0367,0.0513 0.0917,0.077 0.165,0.077 m -0.165,-0.7523 c -0.0147,0.0566 -0.0422,0.1008 -0.0825,0.1326 -0.0403,0.0318 -0.0898,0.0477 -0.1485,0.0477 -0.11,0 -0.1833,-0.0601 -0.22,-0.1803 0.0513,0.0909 0.1247,0.1363 0.22,0.1363 0.1027,0 0.1797,-0.0454 0.231,-0.1363 m 0.209,0.242 c -0.0147,0.0909 -0.0697,0.1363 -0.165,0.1363 -0.0367,0 -0.0715,-0.014 -0.1045,-0.0419 -0.033,-0.028 -0.0568,-0.0594 -0.0715,-0.0944 0.0513,0.0615 0.11,0.0923 0.176,0.0923 0.0733,0 0.1283,-0.0308 0.165,-0.0923 m -1.958,-0.8427 c 0.0513,0 0.088,-0.0183 0.11,-0.055 -0.0147,0.0513 -0.0513,0.077 -0.11,0.077 -0.044,0 -0.0807,-0.0293 -0.11,-0.088 0.022,0.044 0.0587,0.066 0.11,0.066 m 0.22,0.132 c -0.0513,0 -0.088,-0.0257 -0.11,-0.077 0.022,0.0367 0.0587,0.055 0.11,0.055 0.0513,0 0.088,-0.0183 0.11,-0.055 -0.0147,0.0513 -0.0513,0.077 -0.11,0.077 m 0.77,1.232 c 0.088,0 0.1577,-0.0367 0.209,-0.11 -0.022,0.11 -0.0917,0.165 -0.209,0.165 -0.0953,0 -0.1613,-0.0513 -0.198,-0.154 -0.0073,0.0073 -0.0147,0.011 -0.022,0.011 -0.0807,0 -0.1283,-0.0389 -0.143,-0.1167 0.022,0.0485 0.0697,0.0727 0.143,0.0727 0.066,0 0.1173,-0.0242 0.154,-0.0727 -0.0073,0.0564 -0.0477,0.0916 -0.121,0.1057 0.0513,0.066 0.1137,0.099 0.187,0.099 m -0.671,-0.55 c 0.0733,0 0.1283,-0.0223 0.165,-0.067 -0.0147,0.074 -0.0697,0.111 -0.165,0.111 -0.0147,0 -0.0367,-0.0073 -0.066,-0.022 -0.0147,0.0614 -0.0458,0.1116 -0.0935,0.1506 -0.0477,0.0389 -0.1008,0.0584 -0.1595,0.0584 -0.1393,0 -0.2273,-0.0674 -0.264,-0.2023 0.0587,0.0909 0.1467,0.1363 0.264,0.1363 0.1027,0 0.187,-0.0422 0.253,-0.1265 -0.044,-0.0211 -0.077,-0.0563 -0.099,-0.1055 0.0367,0.0447 0.0917,0.067 0.165,0.067 m -1.518,-2.123 c -0.0513,0 -0.0843,-0.0257 -0.099,-0.077 0.0293,0.0293 0.0623,0.044 0.099,0.044 0.0367,0 0.066,-0.0147 0.088,-0.044 -0.0513,-0.0147 -0.0807,-0.0477 -0.088,-0.099 0.022,0.044 0.0623,0.066 0.121,0.066 0.0587,0 0.099,-0.022 0.121,-0.066 -0.0147,0.0733 -0.055,0.11 -0.121,0.11 -0.0073,0 -0.0128,-0.0018 -0.0165,-0.0055 -0.0037,-0.0037 -0.0092,-0.0055 -0.0165,-0.0055 -0.0147,0.0513 -0.044,0.077 -0.088,0.077 m 1.892,1.8566 c -0.0147,0.0823 -0.0587,0.1234 -0.132,0.1234 -0.0733,0 -0.1173,-0.0411 -0.132,-0.1234 0.022,0.0603 0.066,0.0904 0.132,0.0904 0.0587,0 0.1027,-0.0301 0.132,-0.0904 m 1.672,-0.6136 c -0.0147,0.0733 -0.0587,0.11 -0.132,0.11 l -0.011,-0.011 c -0.022,0.088 -0.077,0.132 -0.165,0.132 -0.088,0 -0.1467,-0.0477 -0.176,-0.143 0.0367,0.066 0.0953,0.099 0.176,0.099 0.0587,0 0.11,-0.0293 0.154,-0.088 -0.022,-0.0073 -0.044,-0.0183 -0.066,-0.033 -0.022,-0.0147 -0.0367,-0.0367 -0.044,-0.066 0.022,0.044 0.066,0.066 0.132,0.066 0.066,0 0.11,-0.022 0.132,-0.066 m -4.774,-0.308 c 0.066,0 0.1173,-0.0257 0.154,-0.077 -0.0293,0.0807 -0.0807,0.121 -0.154,0.121 -0.0733,0 -0.1247,-0.0403 -0.154,-0.121 0.0367,0.0513 0.088,0.077 0.154,0.077 m 0.902,0.143 c 0.0587,0.088 0.1393,0.132 0.242,0.132 0.11,0 0.1943,-0.044 0.253,-0.132 -0.0367,0.132 -0.121,0.198 -0.253,0.198 -0.0513,0 -0.1008,-0.0175 -0.1485,-0.0524 -0.0477,-0.035 -0.0788,-0.0835 -0.0935,-0.1456 m 0.077,0.748 c 0.0587,0 0.11,-0.0147 0.154,-0.044 0.044,-0.0293 0.0807,-0.0623 0.11,-0.099 -0.0293,0.1173 -0.1027,0.1833 -0.22,0.198 -0.0513,0.1393 -0.154,0.209 -0.308,0.209 -0.0807,0 -0.1522,-0.023 -0.2145,-0.0689 -0.0623,-0.046 -0.1045,-0.1078 -0.1265,-0.1856 0.0367,0.055 0.0843,0.1001 0.143,0.1355 0.0587,0.0353 0.1247,0.053 0.198,0.053 0.0587,0 0.1118,-0.012 0.1595,-0.036 0.0477,-0.024 0.0898,-0.056 0.1265,-0.096 h -0.022 c -0.1393,0 -0.2273,-0.0697 -0.264,-0.209 0.0293,0.0367 0.066,0.0697 0.11,0.099 0.044,0.0293 0.0953,0.044 0.154,0.044 m 4.059,-0.033 c -0.0513,0 -0.0917,-0.033 -0.121,-0.099 0.0293,0.044 0.0697,0.066 0.121,0.066 0.044,0 0.088,-0.022 0.132,-0.066 -0.0293,0.066 -0.0733,0.099 -0.132,0.099 m -3.08,-0.044 c 0.0733,0 0.132,-0.0293 0.176,-0.088 -0.022,0.088 -0.0807,0.132 -0.176,0.132 -0.088,0 -0.143,-0.044 -0.165,-0.132 -0.0147,0.0587 -0.044,0.1063 -0.088,0.143 -0.044,0.0367 -0.0953,0.055 -0.154,0.055 -0.0587,0 -0.11,-0.0183 -0.154,-0.055 -0.044,-0.0367 -0.077,-0.0843 -0.099,-0.143 0.066,0.088 0.1503,0.132 0.253,0.132 0.0953,0 0.176,-0.044 0.242,-0.132 0.0367,0.0587 0.0917,0.088 0.165,0.088 m -0.319,-0.187 c -0.0807,0 -0.132,-0.0403 -0.154,-0.121 0.0367,0.0587 0.088,0.088 0.154,0.088 0.066,0 0.1173,-0.0293 0.154,-0.088 -0.022,0.0807 -0.0733,0.121 -0.154,0.121 m 1.617,-0.352 c 0.0587,0 0.1063,-0.0293 0.143,-0.088 -0.0147,0.088 -0.0623,0.132 -0.143,0.132 -0.0733,0 -0.1247,-0.044 -0.154,-0.132 0.0367,0.0587 0.088,0.088 0.154,0.088"
         fill-rule="evenodd"
         vector-effect="none" />
    </g>
    <g
       id="g18"
       font-style="normal"
       font-weight="400"
       font-size="8.25px"
       font-family="'MS Shell Dlg 2'"
       stroke="none"
       fill-opacity="1"
       fill="#ffffff" />
  </g>
</svg>
