<?xml version="1.0" encoding="UTF-8" standalone="no"?>
<svg width="11.2889mm" height="11.2889mm"
 viewBox="0 0 32 32"
 xmlns="http://www.w3.org/2000/svg" xmlns:xlink="http://www.w3.org/1999/xlink"  version="1.2" baseProfile="tiny">
<title>Qt SVG Document</title>
<desc>Generated with Qt</desc>
<defs>
</defs>
<g fill="none" stroke="black" stroke-width="1" fill-rule="evenodd" stroke-linecap="square" stroke-linejoin="bevel" >

<g fill="#615f66" fill-opacity="1" stroke="none" transform="matrix(1,0,0,1,0,0)"
font-family="MS Shell Dlg 2" font-size="8.25" font-weight="400" font-style="normal" 
>
<path vector-effect="none" fill-rule="evenodd" d="M14.396,14.748 L15.908,14.884 L15.82,15.804 L14.324,15.668 L14.396,14.748 M17.78,18.732 L17.508,16.98 L18.5,16.804 L18.78,18.54 L17.78,18.732 M12.628,18.404 L13.34,15.86 L14.724,16.332 L14.012,18.868 L12.628,18.404 M15.132,16.572 L17.132,17.02 L16.86,18.228 L14.868,17.796 L15.132,16.572 M16.724,15.164 L18.252,14.556 L18.612,15.5 L17.108,16.108 L16.724,15.164"/>
</g>

<g fill="#615f66" fill-opacity="1" stroke="none" transform="matrix(1,0,0,1,0,0)"
font-family="MS Shell Dlg 2" font-size="8.25" font-weight="400" font-style="normal" 
>
</g>
</g>
</svg>
