<?xml version="1.0" encoding="UTF-8" standalone="no"?>
<svg
   xmlns:dc="http://purl.org/dc/elements/1.1/"
   xmlns:cc="http://creativecommons.org/ns#"
   xmlns:rdf="http://www.w3.org/1999/02/22-rdf-syntax-ns#"
   xmlns:svg="http://www.w3.org/2000/svg"
   xmlns="http://www.w3.org/2000/svg"
   xmlns:sodipodi="http://sodipodi.sourceforge.net/DTD/sodipodi-0.dtd"
   xmlns:inkscape="http://www.inkscape.org/namespaces/inkscape"
   width="3.8671539mm"
   height="3.8671539mm"
   viewBox="0 0 10.962 10.962"
   version="1.2"
   id="svg38"
   sodipodi:docname="200k_5.svg"
   inkscape:version="1.0 (4035a4fb49, 2020-05-01)">
  <metadata
     id="metadata42">
    <rdf:RDF>
      <cc:Work
         rdf:about="">
        <dc:format>image/svg+xml</dc:format>
        <dc:type
           rdf:resource="http://purl.org/dc/dcmitype/StillImage" />
      </cc:Work>
    </rdf:RDF>
  </metadata>
  <sodipodi:namedview
     inkscape:document-rotation="0"
     pagecolor="#ffffff"
     bordercolor="#666666"
     borderopacity="1"
     objecttolerance="10"
     gridtolerance="10"
     guidetolerance="10"
     inkscape:pageopacity="0"
     inkscape:pageshadow="2"
     inkscape:window-width="1920"
     inkscape:window-height="1013"
     id="namedview40"
     showgrid="false"
     inkscape:zoom="17.308751"
     inkscape:cx="7.4789796"
     inkscape:cy="7.6621275"
     inkscape:window-x="-9"
     inkscape:window-y="-9"
     inkscape:window-maximized="1"
     inkscape:current-layer="svg38" />
  <title
     id="title2">Qt SVG Document</title>
  <desc
     id="desc4">Generated with Qt</desc>
  <defs
     id="defs6" />
  <g
     fill="none"
     stroke="#000000"
     stroke-width="1"
     fill-rule="evenodd"
     stroke-linecap="square"
     stroke-linejoin="bevel"
     id="g36"
     transform="translate(-10.44,-11.6252)">
    <g
       fill="none"
       stroke="none"
       font-family="'MS Shell Dlg 2'"
       font-size="8.25px"
       font-weight="400"
       font-style="normal"
       id="g8" />
    <g
       fill="none"
       stroke="none"
       transform="scale(1.33333)"
       font-family="'MS Shell Dlg 2'"
       font-size="8.25px"
       font-weight="400"
       font-style="normal"
       id="g10" />
    <g
       fill="#b75800"
       fill-opacity="1"
       stroke="none"
       font-family="'MS Shell Dlg 2'"
       font-size="8.25px"
       font-weight="400"
       font-style="normal"
       id="g14">
      <path
         vector-effect="none"
         fill-rule="evenodd"
         d="m 21.402,17.1132 c 0,0.756 -0.1423,1.4677 -0.427,2.135 -0.2847,0.6674 -0.6767,1.2484 -1.176,1.743 -0.4993,0.4947 -1.0827,0.8844 -1.75,1.169 -0.6673,0.2847 -1.379,0.427 -2.135,0.427 -0.756,0 -1.4677,-0.1423 -2.135,-0.427 -0.6673,-0.2846 -1.2483,-0.6743 -1.743,-1.169 -0.4947,-0.4946 -0.8843,-1.0756 -1.169,-1.743 -0.2847,-0.6673 -0.427,-1.379 -0.427,-2.135 0,-0.756 0.1423,-1.4676 0.427,-2.135 0.2847,-0.6673 0.6743,-1.2506 1.169,-1.75 0.4947,-0.4993 1.0757,-0.8913 1.743,-1.176 0.6673,-0.2846 1.379,-0.427 2.135,-0.427 0.756,0 1.4677,0.1424 2.135,0.427 0.6673,0.2847 1.2507,0.6767 1.75,1.176 0.4993,0.4994 0.8913,1.0827 1.176,1.75 0.2847,0.6674 0.427,1.379 0.427,2.135"
         id="path12" />
    </g>
    <g
       fill="none"
       stroke="none"
       transform="scale(1.33333)"
       font-family="'MS Shell Dlg 2'"
       font-size="8.25px"
       font-weight="400"
       font-style="normal"
       id="g16" />
    <g
       fill="none"
       stroke="none"
       font-family="'MS Shell Dlg 2'"
       font-size="8.25px"
       font-weight="400"
       font-style="normal"
       id="g18" />
    <g
       fill="none"
       stroke="#000000"
       stroke-opacity="1"
       stroke-width="1"
       stroke-linecap="square"
       stroke-linejoin="bevel"
       font-family="'MS Shell Dlg 2'"
       font-size="8.25px"
       font-weight="400"
       font-style="normal"
       id="g20" />
    <g
       fill="none"
       stroke="none"
       font-family="'MS Shell Dlg 2'"
       font-size="8.25px"
       font-weight="400"
       font-style="normal"
       id="g22" />
    <g
       fill="none"
       stroke="none"
       transform="scale(1.33333)"
       font-family="'MS Shell Dlg 2'"
       font-size="8.25px"
       font-weight="400"
       font-style="normal"
       id="g24" />
    <g
       fill="#ffffff"
       fill-opacity="1"
       stroke="none"
       font-family="'MS Shell Dlg 2'"
       font-size="8.25px"
       font-weight="400"
       font-style="normal"
       id="g28">
      <path
         vector-effect="none"
         fill-rule="evenodd"
         d="m 19.65735,18.246867 c 0.128,0.104 0.158,0.216 0.09,0.336 -0.068,0.12 -0.176,0.234 -0.324,0.342 -0.148,0.108 -0.314,0.2 -0.498,0.276 -0.184,0.076 -0.324,0.126 -0.42,0.15 -0.144,0.024 -0.266,0.052 -0.366,0.084 -0.1,0.032 -0.192,0.06 -0.276,0.084 -0.084,0.024 -0.162,0.044 -0.234,0.06 -0.072,0.016 -0.148,0.02 -0.228,0.012 -0.184,-0.032 -0.352,-0.106 -0.504,-0.222 -0.152,-0.116 -0.296,-0.23 -0.432,-0.342 h -0.012 c -0.008,0 -0.012,-0.008 -0.012,-0.024 -0.12,0.024 -0.23,0.072 -0.33,0.144 -0.1,0.072 -0.198,0.14 -0.294,0.204 -0.072,0.064 -0.146,0.12 -0.222,0.168 -0.076,0.048 -0.158,0.08 -0.246,0.096 -0.088,0.016 -0.182,0.014 -0.282,-0.006 -0.1,-0.02 -0.214,-0.07 -0.342,-0.15 -0.16,0.024 -0.326,0.04 -0.498,0.048 -0.172,0.008 -0.34,-0.004 -0.504,-0.036 -0.164,-0.032 -0.322,-0.084 -0.474,-0.156 -0.152,-0.072 -0.28,-0.176 -0.384,-0.312 -0.2,0.04 -0.35,0.002 -0.45,-0.114 -0.1,-0.116 -0.164,-0.27 -0.192,-0.462 -0.028,-0.192 -0.024,-0.406 0.012,-0.642 0.036,-0.236 0.086,-0.458 0.15,-0.666 -0.16,-0.032 -0.26,-0.104 -0.3,-0.216 -0.04,-0.112 -0.034,-0.238 0.018,-0.378 0.052,-0.14 0.142,-0.278 0.27,-0.414 0.128,-0.136 0.276,-0.24 0.444,-0.312 0.056,-0.024 0.104,-0.048 0.144,-0.072 0.04,-0.024 0.08,-0.044 0.12,-0.06 0.072,-0.096 0.18,-0.176 0.324,-0.24 v 0.06 c 0.016,0 0.03,-0.006 0.042,-0.018 0.012,-0.012 0.026,-0.018 0.042,-0.018 -0.016,-0.08 0.006,-0.168 0.066,-0.264 0.06,-0.096 0.142,-0.176 0.246,-0.24 0.152,-0.096 0.282,-0.178 0.39,-0.246 0.108,-0.068 0.23,-0.102 0.366,-0.102 0.064,-0.016 0.126,-0.016 0.186,0 0.06,0.016 0.122,0.032 0.186,0.048 0.056,0.032 0.11,0.064 0.162,0.096 0.052,0.032 0.098,0.064 0.138,0.096 0.192,0.136 0.3,0.244 0.324,0.324 0.112,0.056 0.212,0.108 0.3,0.156 0.088,0.048 0.176,0.092 0.264,0.132 0.144,0.072 0.27,0.142 0.378,0.21 0.108,0.068 0.198,0.142 0.27,0.222 l 0.048,-0.024 c 0.04,-0.024 0.068,-0.044 0.084,-0.06 -0.016,-0.016 -0.008,-0.05 0.024,-0.102 0.032,-0.052 0.082,-0.104 0.15,-0.156 0.068,-0.052 0.148,-0.096 0.24,-0.132 0.092,-0.036 0.194,-0.046 0.306,-0.03 0.096,0.016 0.202,0.058 0.318,0.126 0.116,0.068 0.2,0.128 0.252,0.18 0.052,0.052 0.052,0.076 0,0.072 -0.052,-0.004 -0.198,-0.07 -0.438,-0.198 0.016,0.016 0.052,0.044 0.108,0.084 0.056,0.04 0.172,0.104 0.348,0.192 0.208,0.064 0.41,0.148 0.606,0.252 0.196,0.104 0.354,0.216 0.474,0.336 0.256,0.24 0.398,0.45 0.426,0.63 0.028,0.18 0.018,0.342 -0.03,0.486 -0.048,0.144 -0.092,0.272 -0.132,0.384 -0.04,0.112 -0.004,0.22 0.108,0.324 m -6.252,-2.52 c -0.016,0.112 -0.022,0.216 -0.018,0.312 0.004,0.096 0.054,0.152 0.15,0.168 0.04,0.08 0.1,0.14 0.18,0.18 0.08,0.04 0.164,0.068 0.252,0.084 0.064,0.016 0.136,0.026 0.216,0.03 0.08,0.004 0.168,0.006 0.264,0.006 0.112,0.024 0.194,0.034 0.246,0.03 0.052,-0.004 0.106,0.002 0.162,0.018 0.04,0 0.076,-0.004 0.108,-0.012 0.032,-0.008 0.068,-0.012 0.108,-0.012 0.12,-0.032 0.228,-0.082 0.324,-0.15 0.096,-0.068 0.192,-0.118 0.288,-0.15 0.096,-0.04 0.166,-0.086 0.21,-0.138 0.044,-0.052 0.074,-0.122 0.09,-0.21 v -0.024 c 0.04,0.04 0.1,0.098 0.18,0.174 0.08,0.076 0.136,0.142 0.168,0.198 0,-0.016 -0.022,-0.064 -0.066,-0.144 -0.044,-0.08 -0.082,-0.144 -0.114,-0.192 0.064,0.04 0.12,0.08 0.168,0.12 0.048,0.04 0.076,0.06 0.084,0.06 -0.048,-0.072 -0.136,-0.156 -0.264,-0.252 -0.128,-0.096 -0.264,-0.192 -0.408,-0.288 -0.144,-0.096 -0.282,-0.192 -0.414,-0.288 -0.132,-0.096 -0.226,-0.18 -0.282,-0.252 0,0.056 0.036,0.116 0.108,0.18 0.072,0.064 0.15,0.13 0.234,0.198 0.084,0.068 0.164,0.138 0.24,0.21 0.076,0.072 0.118,0.144 0.126,0.216 0,0.056 -0.02,0.114 -0.06,0.174 -0.04,0.06 -0.092,0.102 -0.156,0.126 -0.088,0.016 -0.172,0.042 -0.252,0.078 -0.08,0.036 -0.168,0.062 -0.264,0.078 -0.032,0.024 -0.096,0.036 -0.192,0.036 -0.024,0 -0.07,-0.002 -0.138,-0.006 -0.068,-0.004 -0.146,-0.022 -0.234,-0.054 -0.08,0.016 -0.158,0.02 -0.234,0.012 -0.076,-0.008 -0.142,-0.012 -0.198,-0.012 -0.136,-0.024 -0.232,-0.096 -0.288,-0.216 -0.088,-0.016 -0.148,-0.092 -0.18,-0.228 -0.032,-0.136 0.028,-0.32 0.18,-0.552 -0.064,0.08 -0.116,0.156 -0.156,0.228 -0.04,0.064 -0.076,0.122 -0.108,0.174 -0.032,0.052 -0.052,0.082 -0.06,0.09 m 4.992,2.544 c 0.088,-0.016 0.206,-0.054 0.354,-0.114 0.148,-0.06 0.282,-0.132 0.402,-0.216 0.12,-0.084 0.2,-0.176 0.24,-0.276 0.04,-0.1 -0.004,-0.202 -0.132,-0.306 -0.112,-0.096 -0.156,-0.18 -0.132,-0.252 0.024,-0.072 0.05,-0.15 0.078,-0.234 0.028,-0.084 0.028,-0.178 0,-0.282 -0.028,-0.104 -0.146,-0.232 -0.354,-0.384 -0.064,-0.04 -0.15,-0.08 -0.258,-0.12 -0.108,-0.04 -0.218,-0.08 -0.33,-0.12 0.056,0.064 0.08,0.114 0.072,0.15 -0.008,0.036 -0.03,0.064 -0.066,0.084 -0.036,0.02 -0.082,0.032 -0.138,0.036 -0.056,0.004 -0.104,0.01 -0.144,0.018 -0.12,0.032 -0.214,0.062 -0.282,0.09 -0.068,0.028 -0.134,0.034 -0.198,0.018 -0.088,-0.016 -0.174,-0.034 -0.258,-0.054 -0.084,-0.02 -0.166,-0.09 -0.246,-0.21 -0.008,0 -0.002,0.02 0.018,0.06 0.02,0.04 0.052,0.084 0.096,0.132 0.044,0.048 0.1,0.096 0.168,0.144 0.068,0.048 0.142,0.08 0.222,0.096 0.088,0 0.168,-0.018 0.24,-0.054 0.072,-0.036 0.188,-0.074 0.348,-0.114 0.08,0 0.152,-0.016 0.216,-0.048 0.016,0.024 0.038,0.056 0.066,0.096 0.028,0.04 0.07,0.088 0.126,0.144 0.128,0.104 0.19,0.19 0.186,0.258 -0.004,0.068 -0.042,0.124 -0.114,0.168 -0.072,0.044 -0.16,0.08 -0.264,0.108 -0.104,0.028 -0.192,0.046 -0.264,0.054 -0.176,0.032 -0.314,0.054 -0.414,0.066 -0.1,0.012 -0.194,0.01 -0.282,-0.006 -0.12,-0.016 -0.232,-0.056 -0.336,-0.12 -0.104,-0.064 -0.2,-0.124 -0.288,-0.18 -0.088,-0.056 -0.158,-0.138 -0.21,-0.246 -0.052,-0.108 -0.078,-0.17 -0.078,-0.186 0,0.032 0.004,0.074 0.012,0.126 0.008,0.052 0.004,0.09 -0.012,0.114 -0.016,0.096 -0.062,0.18 -0.138,0.252 -0.076,0.072 -0.174,0.116 -0.294,0.132 -0.152,-0.008 -0.268,0.016 -0.348,0.072 -0.08,0.056 -0.18,0.104 -0.3,0.144 -0.04,0.016 -0.08,0.028 -0.12,0.036 -0.04,0.008 -0.08,0.02 -0.12,0.036 -0.064,0.016 -0.142,0.022 -0.234,0.018 -0.092,-0.004 -0.194,-0.034 -0.306,-0.09 -0.256,0.024 -0.488,0.024 -0.696,0 -0.232,-0.04 -0.4,-0.14 -0.504,-0.3 -0.112,0.008 -0.194,-0.016 -0.246,-0.072 -0.052,-0.056 -0.084,-0.128 -0.096,-0.216 -0.012,-0.088 -0.008,-0.186 0.012,-0.294 0.02,-0.108 0.05,-0.21 0.09,-0.306 -0.04,-0.024 -0.072,-0.056 -0.096,-0.096 -0.024,-0.04 -0.028,-0.08 -0.012,-0.12 -0.112,0.072 -0.216,0.154 -0.312,0.246 -0.096,0.092 -0.164,0.186 -0.204,0.282 -0.04,0.096 -0.048,0.184 -0.024,0.264 0.024,0.08 0.096,0.14 0.216,0.18 -0.064,0.144 -0.11,0.294 -0.138,0.45 -0.028,0.156 -0.032,0.3 -0.012,0.432 0.02,0.132 0.068,0.238 0.144,0.318 0.076,0.08 0.194,0.108 0.354,0.084 0.08,0.096 0.178,0.172 0.294,0.228 0.116,0.056 0.242,0.096 0.378,0.12 0.136,0.032 0.28,0.044 0.432,0.036 0.152,-0.008 0.304,-0.02 0.456,-0.036 0.136,0.072 0.256,0.112 0.36,0.12 0.104,0.008 0.196,-0.004 0.276,-0.036 0.056,-0.016 0.11,-0.036 0.162,-0.06 0.052,-0.024 0.098,-0.048 0.138,-0.072 0.136,-0.064 0.276,-0.13 0.42,-0.198 0.144,-0.068 0.316,-0.074 0.516,-0.018 0.064,0 0.128,-0.008 0.192,-0.024 0.064,-0.016 0.116,-0.044 0.156,-0.084 0.096,0.064 0.198,0.126 0.306,0.186 0.108,0.06 0.222,0.098 0.342,0.114 0.128,0.016 0.252,0.002 0.372,-0.042 0.12,-0.044 0.3,-0.086 0.54,-0.126 m -2.304,-2.412 c 0.016,0 0.024,0.004 0.024,0.012 0,0.008 0.008,0.012 0.024,0.012 l 0.012,0.012 c -0.032,-0.016 -0.052,-0.028 -0.06,-0.036 m 3.024,1.476 c 0.128,0.088 0.176,0.172 0.144,0.252 -0.032,0.08 -0.1,0.15 -0.204,0.21 -0.104,0.06 -0.226,0.112 -0.366,0.156 -0.14,0.044 -0.254,0.07 -0.342,0.078 -0.12,0.024 -0.224,0.046 -0.312,0.066 -0.088,0.02 -0.166,0.04 -0.234,0.06 -0.068,0.02 -0.13,0.034 -0.186,0.042 -0.056,0.008 -0.12,0.008 -0.192,0 -0.104,-0.016 -0.208,-0.052 -0.312,-0.108 -0.104,-0.056 -0.204,-0.112 -0.3,-0.168 -0.04,0.032 -0.088,0.058 -0.144,0.078 -0.056,0.02 -0.124,0.022 -0.204,0.006 -0.184,-0.04 -0.344,-0.03 -0.48,0.03 -0.136,0.06 -0.272,0.122 -0.408,0.186 -0.056,0.024 -0.106,0.044 -0.15,0.06 -0.044,0.016 -0.09,0.032 -0.138,0.048 -0.088,0.024 -0.184,0.034 -0.288,0.03 -0.104,-0.004 -0.224,-0.034 -0.36,-0.09 -0.136,0.016 -0.28,0.022 -0.432,0.018 -0.152,-0.004 -0.296,-0.018 -0.432,-0.042 -0.264,-0.024 -0.476,-0.124 -0.636,-0.3 -0.16,0.016 -0.278,-0.012 -0.354,-0.084 -0.076,-0.072 -0.126,-0.164 -0.15,-0.276 -0.024,-0.112 -0.022,-0.24 0.006,-0.384 0.028,-0.144 0.074,-0.28 0.138,-0.408 -0.2,-0.056 -0.274,-0.16 -0.222,-0.312 0.052,-0.152 0.174,-0.296 0.366,-0.432 0.016,0.024 0.03,0.048 0.042,0.072 0.012,0.024 0.034,0.044 0.066,0.06 -0.04,0.112 -0.07,0.228 -0.09,0.348 -0.02,0.12 -0.024,0.232 -0.012,0.336 0.012,0.104 0.044,0.188 0.096,0.252 0.052,0.064 0.134,0.092 0.246,0.084 0.128,0.176 0.304,0.284 0.528,0.324 0.208,0.024 0.444,0.024 0.708,0 0.12,0.056 0.23,0.086 0.33,0.09 0.1,0.004 0.178,-0.002 0.234,-0.018 0.056,-0.016 0.104,-0.028 0.144,-0.036 0.04,-0.008 0.08,-0.02 0.12,-0.036 0.136,-0.056 0.262,-0.116 0.378,-0.18 0.116,-0.064 0.25,-0.088 0.402,-0.072 0.064,-0.008 0.118,-0.036 0.162,-0.084 0.044,-0.048 0.084,-0.096 0.12,-0.144 0.036,-0.048 0.068,-0.082 0.096,-0.102 0.028,-0.02 0.062,-0.006 0.102,0.042 0.12,0.144 0.264,0.252 0.432,0.324 0.168,0.072 0.312,0.116 0.432,0.132 0.104,0.016 0.204,0.002 0.3,-0.042 0.096,-0.044 0.236,-0.086 0.42,-0.126 0.072,-0.008 0.162,-0.032 0.27,-0.072 0.108,-0.04 0.198,-0.09 0.27,-0.15 0.072,-0.06 0.11,-0.134 0.114,-0.222 0.004,-0.088 -0.062,-0.188 -0.198,-0.3 -0.096,-0.096 -0.156,-0.174 -0.18,-0.234 -0.024,-0.06 -0.036,-0.118 -0.036,-0.174 0.064,0.016 0.134,0.04 0.21,0.072 0.076,0.032 0.134,0.064 0.174,0.096 0.192,0.128 0.296,0.238 0.312,0.33 0.016,0.092 0.006,0.176 -0.03,0.252 -0.036,0.076 -0.066,0.15 -0.09,0.222 -0.024,0.072 0.016,0.152 0.12,0.24"
         id="path26" />
    </g>
    <g
       fill="none"
       stroke="none"
       transform="scale(1.33333)"
       font-family="'MS Shell Dlg 2'"
       font-size="8.25px"
       font-weight="400"
       font-style="normal"
       id="g30" />
    <g
       fill="none"
       stroke="none"
       font-family="'MS Shell Dlg 2'"
       font-size="8.25px"
       font-weight="400"
       font-style="normal"
       id="g32" />
    <g
       fill="none"
       stroke="#000000"
       stroke-opacity="1"
       stroke-width="1"
       stroke-linecap="square"
       stroke-linejoin="bevel"
       font-family="'MS Shell Dlg 2'"
       font-size="8.25px"
       font-weight="400"
       font-style="normal"
       id="g34" />
  </g>
</svg>
