<?xml version="1.0" encoding="UTF-8" standalone="no"?>
<svg
   xmlns:dc="http://purl.org/dc/elements/1.1/"
   xmlns:cc="http://creativecommons.org/ns#"
   xmlns:rdf="http://www.w3.org/1999/02/22-rdf-syntax-ns#"
   xmlns:svg="http://www.w3.org/2000/svg"
   xmlns="http://www.w3.org/2000/svg"
   xmlns:sodipodi="http://sodipodi.sourceforge.net/DTD/sodipodi-0.dtd"
   xmlns:inkscape="http://www.inkscape.org/namespaces/inkscape"
   width="3.8671539mm"
   height="3.8671539mm"
   viewBox="0 0 10.962 10.962"
   version="1.2"
   id="svg22"
   sodipodi:docname="200k_80.svg"
   inkscape:version="1.0 (4035a4fb49, 2020-05-01)">
  <metadata
     id="metadata26">
    <rdf:RDF>
      <cc:Work
         rdf:about="">
        <dc:format>image/svg+xml</dc:format>
        <dc:type
           rdf:resource="http://purl.org/dc/dcmitype/StillImage" />
      </cc:Work>
    </rdf:RDF>
  </metadata>
  <sodipodi:namedview
     inkscape:document-rotation="0"
     pagecolor="#ffffff"
     bordercolor="#666666"
     borderopacity="1"
     objecttolerance="10"
     gridtolerance="10"
     guidetolerance="10"
     inkscape:pageopacity="0"
     inkscape:pageshadow="2"
     inkscape:window-width="1920"
     inkscape:window-height="1013"
     id="namedview24"
     showgrid="false"
     inkscape:zoom="12.239135"
     inkscape:cx="4.9927185"
     inkscape:cy="1.9683887"
     inkscape:window-x="-9"
     inkscape:window-y="-9"
     inkscape:window-maximized="1"
     inkscape:current-layer="svg22" />
  <title
     id="title2">Qt SVG Document</title>
  <desc
     id="desc4">Generated with Qt</desc>
  <defs
     id="defs6" />
  <g
     fill="none"
     stroke="#000000"
     stroke-width="1"
     fill-rule="evenodd"
     stroke-linecap="square"
     stroke-linejoin="bevel"
     id="g20"
     transform="translate(-10.44,-11.626)">
    <g
       fill="#3d97f1"
       fill-opacity="1"
       stroke="none"
       font-family="'MS Shell Dlg 2'"
       font-size="8.25px"
       font-weight="400"
       font-style="normal"
       id="g10">
      <path
         vector-effect="none"
         fill-rule="evenodd"
         d="m 21.402,17.114 c 0,0.756 -0.1423,1.4677 -0.427,2.135 -0.2847,0.6673 -0.6767,1.2483 -1.176,1.743 -0.4993,0.4947 -1.0827,0.8843 -1.75,1.169 -0.6673,0.2847 -1.379,0.427 -2.135,0.427 -0.756,0 -1.4677,-0.1423 -2.135,-0.427 -0.6673,-0.2847 -1.2483,-0.6743 -1.743,-1.169 -0.4947,-0.4947 -0.8843,-1.0757 -1.169,-1.743 -0.2847,-0.6673 -0.427,-1.379 -0.427,-2.135 0,-0.756 0.1423,-1.4677 0.427,-2.135 0.2847,-0.6673 0.6743,-1.2507 1.169,-1.75 0.4947,-0.4993 1.0757,-0.8913 1.743,-1.176 0.6673,-0.2847 1.379,-0.427 2.135,-0.427 0.756,0 1.4677,0.1423 2.135,0.427 0.6673,0.2847 1.2507,0.6767 1.75,1.176 0.4993,0.4993 0.8913,1.0827 1.176,1.75 0.2847,0.6673 0.427,1.379 0.427,2.135"
         id="path8" />
    </g>
    <g
       fill="#3d97f1"
       fill-opacity="1"
       stroke="none"
       font-family="'MS Shell Dlg 2'"
       font-size="8.25px"
       font-weight="400"
       font-style="normal"
       id="g12" />
    <g
       fill="#ffffff"
       fill-opacity="0.94902"
       stroke="none"
       font-family="'MS Shell Dlg 2'"
       font-size="8.25px"
       font-weight="400"
       font-style="normal"
       id="g16">
      <path
         vector-effect="none"
         fill-rule="evenodd"
         d="m 17.164,18.8945 c -0.0513,0.0513 -0.077,0.0917 -0.077,0.121 l 0.913,1.54 h -0.5486 l -0.0549,-0.099 c -0.0145,-0.0147 -0.0328,-0.022 -0.0548,-0.022 h -2.8414 c -0.0366,0 -0.0548,0.0073 -0.0548,0.022 l -0.0769,0.099 H 13.842 l 0.913,-1.562 c -0.0073,-0.0073 -0.0147,-0.0183 -0.022,-0.033 L 14.7,18.8945 13.963,18.4655 C 13.9117,18.4362 13.8695,18.3977 13.8365,18.35 13.8035,18.3023 13.787,18.2382 13.787,18.1575 v -2.508 c 0,-0.0587 0.0202,-0.1173 0.0605,-0.176 0.0403,-0.0587 0.0898,-0.099 0.1485,-0.121 0.0513,-0.0293 0.088,-0.0715 0.11,-0.1265 0.022,-0.055 0.033,-0.1155 0.033,-0.1815 v -0.627 c 0,-0.1247 0.0385,-0.2292 0.1155,-0.3135 0.077,-0.0843 0.1668,-0.1412 0.2695,-0.1705 l 1.309,-0.275 h 0.11 0.066 l 1.32,0.275 c 0.1173,0.0293 0.2108,0.0862 0.2805,0.1705 0.0697,0.0843 0.1045,0.1888 0.1045,0.3135 v 0.627 c 0,0.1467 0.0568,0.2493 0.1705,0.308 0.0497,0.022 0.0906,0.0623 0.1225,0.121 0.032,0.0587 0.048,0.1173 0.048,0.176 v 2.508 c 0,0.0807 -0.0165,0.1448 -0.0495,0.1925 -0.033,0.0477 -0.0752,0.0862 -0.1265,0.1155 l -0.715,0.429 m -1.045,-4.202 c 0,0.066 0.0257,0.099 0.077,0.099 l 1.056,0.209 c 0.0293,0 0.0587,-0.011 0.088,-0.033 0.0293,-0.022 0.044,-0.0477 0.044,-0.077 v -0.473 c 0,-0.0733 -0.0367,-0.11 -0.11,-0.11 l -1.034,-0.198 h -0.022 c -0.066,0 -0.099,0.0257 -0.099,0.077 v 0.506 m 0.682,4.631 C 16.7863,19.3162 16.7717,19.296 16.757,19.263 16.7423,19.23 16.724,19.1952 16.702,19.1585 c -0.0293,-0.044 -0.055,-0.0917 -0.077,-0.143 -0.0147,0 -0.0238,-0.0037 -0.0275,-0.011 -0.0037,-0.0073 -0.0128,-0.011 -0.0275,-0.011 h -1.309 l -0.033,0.022 c -0.0073,0 -0.0183,0.0147 -0.033,0.044 -0.0147,0.0293 -0.033,0.0623 -0.055,0.099 -0.022,0.0367 -0.0403,0.0715 -0.055,0.1045 -0.0147,0.033 -0.0257,0.0532 -0.033,0.0605 -0.0147,0.0147 -0.0183,0.0257 -0.011,0.033 0.0073,0.0073 0.0183,0.011 0.033,0.011 h 1.672 c 0.0367,0 0.055,-0.0147 0.055,-0.044 m -0.858,-4.07 c -0.154,0 -0.286,0.055 -0.396,0.165 -0.11,0.11 -0.165,0.2383 -0.165,0.385 0,0.154 0.055,0.286 0.165,0.396 0.11,0.11 0.242,0.165 0.396,0.165 0.1467,0 0.2713,-0.055 0.374,-0.165 0.1027,-0.11 0.154,-0.242 0.154,-0.396 0,-0.1467 -0.0513,-0.275 -0.154,-0.385 -0.1027,-0.11 -0.2273,-0.165 -0.374,-0.165 m -1.452,-0.363 c 0,0.0733 0.0333,0.11 0.0999,0.11 h 0.0221 l 1.0433,-0.209 c 0.0518,0 0.0777,-0.033 0.0777,-0.099 l 0.033,-0.506 c 0,-0.0293 -0.0148,-0.0495 -0.0443,-0.0605 -0.0295,-0.011 -0.059,-0.0165 -0.0886,-0.0165 H 15.612 l -1.0545,0.198 c -0.0443,0 -0.0665,0.0367 -0.0665,0.11 v 0.473 m 0.209,2.86 c 0.088,0 0.165,-0.033 0.231,-0.099 0.066,-0.066 0.099,-0.143 0.099,-0.231 0,-0.1027 -0.033,-0.187 -0.099,-0.253 -0.066,-0.066 -0.143,-0.099 -0.231,-0.099 -0.1027,0 -0.187,0.033 -0.253,0.099 -0.066,0.066 -0.099,0.1503 -0.099,0.253 0,0.088 0.033,0.165 0.099,0.231 0.066,0.066 0.1503,0.099 0.253,0.099 m 2.475,2.277 c 0,-0.0073 -0.0073,-0.0257 -0.022,-0.055 C 17.1383,19.9432 17.12,19.912 17.098,19.879 17.076,19.846 17.0558,19.8148 17.0375,19.7855 17.0192,19.7562 17.0063,19.7378 16.999,19.7305 v -0.011 c 0,-0.0147 -0.0073,-0.022 -0.022,-0.022 h -2.101 c -0.0073,0 -0.0183,0.0073 -0.033,0.022 -0.0073,0.0073 -0.0147,0.011 -0.022,0.011 0,0.0147 -0.0257,0.0642 -0.077,0.1485 -0.0513,0.0843 -0.0843,0.1338 -0.099,0.1485 0,0.0367 0.0183,0.055 0.055,0.055 h 2.453 c 0.0147,0 0.0257,-0.0055 0.033,-0.0165 0.0073,-0.011 0.0037,-0.0238 -0.011,-0.0385 m -0.0277,-2.277 c 0.0867,0 0.1624,-0.033 0.2273,-0.099 0.0649,-0.066 0.0974,-0.143 0.0974,-0.231 0,-0.1027 -0.0325,-0.187 -0.0974,-0.253 -0.0649,-0.066 -0.1406,-0.099 -0.2273,-0.099 -0.101,0 -0.184,0.033 -0.2489,0.099 -0.0649,0.066 -0.0974,0.1503 -0.0974,0.253 0,0.088 0.0325,0.165 0.0974,0.231 0.0649,0.066 0.1479,0.099 0.2489,0.099"
         id="path14" />
    </g>
    <g
       fill="#ffffff"
       fill-opacity="0.94902"
       stroke="none"
       font-family="'MS Shell Dlg 2'"
       font-size="8.25px"
       font-weight="400"
       font-style="normal"
       id="g18" />
  </g>
</svg>
