<?xml version="1.0" encoding="UTF-8" standalone="no"?>
<svg
   xmlns:dc="http://purl.org/dc/elements/1.1/"
   xmlns:cc="http://creativecommons.org/ns#"
   xmlns:rdf="http://www.w3.org/1999/02/22-rdf-syntax-ns#"
   xmlns:svg="http://www.w3.org/2000/svg"
   xmlns="http://www.w3.org/2000/svg"
   xmlns:sodipodi="http://sodipodi.sourceforge.net/DTD/sodipodi-0.dtd"
   xmlns:inkscape="http://www.inkscape.org/namespaces/inkscape"
   width="3.8671539mm"
   height="3.8671539mm"
   viewBox="0 0 10.962 10.962"
   version="1.2"
   id="svg38"
   sodipodi:docname="200k_14.svg"
   inkscape:version="1.0 (4035a4fb49, 2020-05-01)">
  <metadata
     id="metadata42">
    <rdf:RDF>
      <cc:Work
         rdf:about="">
        <dc:format>image/svg+xml</dc:format>
        <dc:type
           rdf:resource="http://purl.org/dc/dcmitype/StillImage" />
      </cc:Work>
    </rdf:RDF>
  </metadata>
  <sodipodi:namedview
     inkscape:document-rotation="0"
     pagecolor="#ffffff"
     bordercolor="#666666"
     borderopacity="1"
     objecttolerance="10"
     gridtolerance="10"
     guidetolerance="10"
     inkscape:pageopacity="0"
     inkscape:pageshadow="2"
     inkscape:window-width="1920"
     inkscape:window-height="1013"
     id="namedview40"
     showgrid="false"
     inkscape:zoom="12.239135"
     inkscape:cx="2.3190923"
     inkscape:cy="7.8909782"
     inkscape:window-x="-9"
     inkscape:window-y="-9"
     inkscape:window-maximized="1"
     inkscape:current-layer="svg38" />
  <title
     id="title2">Qt SVG Document</title>
  <desc
     id="desc4">Generated with Qt</desc>
  <defs
     id="defs6" />
  <g
     fill="none"
     stroke="#000000"
     stroke-width="1"
     fill-rule="evenodd"
     stroke-linecap="square"
     stroke-linejoin="bevel"
     id="g36"
     transform="translate(-10.44,-11.626)">
    <g
       fill="none"
       stroke="none"
       font-family="'MS Shell Dlg 2'"
       font-size="8.25px"
       font-weight="400"
       font-style="normal"
       id="g8" />
    <g
       fill="none"
       stroke="none"
       transform="scale(1.33333)"
       font-family="'MS Shell Dlg 2'"
       font-size="8.25px"
       font-weight="400"
       font-style="normal"
       id="g10" />
    <g
       fill="#b75800"
       fill-opacity="1"
       stroke="none"
       font-family="'MS Shell Dlg 2'"
       font-size="8.25px"
       font-weight="400"
       font-style="normal"
       id="g14">
      <path
         vector-effect="none"
         fill-rule="evenodd"
         d="m 21.402,17.114 c 0,0.756 -0.1423,1.4677 -0.427,2.135 -0.2847,0.6673 -0.6767,1.2483 -1.176,1.743 -0.4993,0.4947 -1.0827,0.8843 -1.75,1.169 -0.6673,0.2847 -1.379,0.427 -2.135,0.427 -0.756,0 -1.4677,-0.1423 -2.135,-0.427 -0.6673,-0.2847 -1.2483,-0.6743 -1.743,-1.169 -0.4947,-0.4947 -0.8843,-1.0757 -1.169,-1.743 -0.2847,-0.6673 -0.427,-1.379 -0.427,-2.135 0,-0.756 0.1423,-1.4677 0.427,-2.135 0.2847,-0.6673 0.6743,-1.2507 1.169,-1.75 0.4947,-0.4993 1.0757,-0.8913 1.743,-1.176 0.6673,-0.2847 1.379,-0.427 2.135,-0.427 0.756,0 1.4677,0.1423 2.135,0.427 0.6673,0.2847 1.2507,0.6767 1.75,1.176 0.4993,0.4993 0.8913,1.0827 1.176,1.75 0.2847,0.6673 0.427,1.379 0.427,2.135"
         id="path12" />
    </g>
    <g
       fill="none"
       stroke="none"
       transform="scale(1.33333)"
       font-family="'MS Shell Dlg 2'"
       font-size="8.25px"
       font-weight="400"
       font-style="normal"
       id="g16" />
    <g
       fill="none"
       stroke="none"
       font-family="'MS Shell Dlg 2'"
       font-size="8.25px"
       font-weight="400"
       font-style="normal"
       id="g18" />
    <g
       fill="none"
       stroke="#000000"
       stroke-opacity="1"
       stroke-width="1"
       stroke-linecap="square"
       stroke-linejoin="bevel"
       font-family="'MS Shell Dlg 2'"
       font-size="8.25px"
       font-weight="400"
       font-style="normal"
       id="g20" />
    <g
       fill="none"
       stroke="none"
       font-family="'MS Shell Dlg 2'"
       font-size="8.25px"
       font-weight="400"
       font-style="normal"
       id="g22" />
    <g
       fill="none"
       stroke="none"
       transform="scale(1.33333)"
       font-family="'MS Shell Dlg 2'"
       font-size="8.25px"
       font-weight="400"
       font-style="normal"
       id="g24" />
    <g
       fill="#ffffff"
       fill-opacity="1"
       stroke="none"
       font-family="'MS Shell Dlg 2'"
       font-size="8.25px"
       font-weight="400"
       font-style="normal"
       id="g28">
      <path
         vector-effect="none"
         fill-rule="evenodd"
         d="m 17.956,18.712 c 0.18,0.0467 0.3517,0.1 0.515,0.16 0.1633,0.06 0.325,0.1233 0.485,0.19 v 0.23 c -0.4733,-0.0733 -0.9583,-0.13 -1.455,-0.17 -0.4967,-0.04 -1.015,-0.06 -1.555,-0.06 -0.54,0 -1.065,0.025 -1.575,0.075 -0.51,0.05 -1.005,0.1117 -1.485,0.185 v -0.24 c 0.1733,-0.0733 0.3483,-0.1417 0.525,-0.205 0.1767,-0.0633 0.3617,-0.1183 0.555,-0.165 v -0.64 h -1.08 l 0.7,-0.95 h -0.34 l 0.01,-0.01 0.02,-0.03 c 0.0067,-0.0133 0.0133,-0.025 0.02,-0.035 0.0067,-0.01 0.0167,-0.0217 0.03,-0.035 l 0.07,-0.1 c 0.0133,-0.02 0.03,-0.0433 0.05,-0.07 0.02,-0.0267 0.04,-0.0567 0.06,-0.09 l 0.15,-0.22 c 0.0333,-0.04 0.0667,-0.085 0.1,-0.135 0.0333,-0.05 0.07,-0.1017 0.11,-0.155 h -0.28 l 0.01,-0.01 c 0,0 0.0033,-0.0033 0.01,-0.01 l 0.01,-0.02 c 0,0 0.0067,-0.0067 0.02,-0.02 l 0.02,-0.04 c 0.0067,-0.0067 0.0117,-0.0133 0.015,-0.02 0.0033,-0.0067 0.0083,-0.0133 0.015,-0.02 l 0.04,-0.06 c 0.0133,-0.0133 0.0217,-0.0233 0.025,-0.03 0.0033,-0.0067 0.0117,-0.0167 0.025,-0.03 l 0.06,-0.08 c 0.0267,-0.04 0.05,-0.07 0.07,-0.09 l 0.08,-0.11 c 0.0133,-0.02 0.0283,-0.04 0.045,-0.06 0.0167,-0.02 0.0317,-0.0433 0.045,-0.07 l 0.1,-0.14 h 0.01 v 0.01 c 0.0067,0.0067 0.01,0.0117 0.01,0.015 0,0.0033 0.0033,0.0083 0.01,0.015 l 0.05,0.06 c 0.0067,0.0133 0.015,0.0283 0.025,0.045 0.01,0.0167 0.0217,0.035 0.035,0.055 l 0.11,0.14 c 0.02,0.0333 0.0417,0.0667 0.065,0.1 0.0233,0.0333 0.0483,0.0667 0.075,0.1 l 0.19,0.27 h -0.28 c 0,0.0067 0.0033,0.01 0.01,0.01 l 0.01,0.02 c 0.0067,0.0067 0.01,0.0117 0.01,0.015 0,0.0033 0.0033,0.0083 0.01,0.015 l 0.04,0.05 c 0.0133,0.0133 0.0233,0.0267 0.03,0.04 0.0067,0.0133 0.0167,0.0267 0.03,0.04 l 0.09,0.12 c 0.0133,0.02 0.03,0.0417 0.05,0.065 0.02,0.0233 0.04,0.0483 0.06,0.075 v 0.01 h -0.01 v 0.01 l -0.01,0.01 c 0,0 -0.0033,0.0033 -0.01,0.01 l -0.01,0.02 c 0,0 -0.0033,0.0067 -0.01,0.02 l -0.02,0.02 c -0.0067,0.0067 -0.01,0.0117 -0.01,0.015 0,0.0033 -0.0033,0.0083 -0.01,0.015 l -0.03,0.04 c -0.0133,0.0133 -0.0233,0.0267 -0.03,0.04 l -0.03,0.04 c -0.0133,0.0267 -0.0267,0.0467 -0.04,0.06 h 0.42 c 0,0 -0.0033,0.0033 -0.01,0.01 l -0.03,0.04 c -0.0133,0.0133 -0.0233,0.0267 -0.03,0.04 -0.0067,0.0133 -0.0167,0.0267 -0.03,0.04 l -0.09,0.13 c -0.02,0.0267 -0.04,0.055 -0.06,0.085 -0.02,0.03 -0.0467,0.065 -0.08,0.105 l -0.19,0.27 c -0.0333,0.0533 -0.0717,0.1083 -0.115,0.165 -0.0433,0.0567 -0.0917,0.1183 -0.145,0.185 h 0.1 v 0.56 c 0.2333,-0.0533 0.4683,-0.0917 0.705,-0.115 0.2367,-0.0233 0.475,-0.0417 0.715,-0.055 v -0.48 h -1.3 l 0.82,-1.11 h -0.42 l 0.74,-1.03 h -0.32 l 0.67,-0.95 0.7,0.95 h -0.34 l 0.76,1.03 h -0.42 l 0.82,1.11 h -1.32 v 0.48 c 0.2533,0.0133 0.4983,0.03 0.735,0.05 0.2367,0.02 0.465,0.0533 0.685,0.1 v -0.54 h 0.12 -0.01 l -0.01,-0.02 c 0,-0.0067 -0.01,-0.02 -0.03,-0.04 l -0.05,-0.07 c -0.0133,-0.02 -0.0283,-0.04 -0.045,-0.06 -0.0167,-0.02 -0.0317,-0.0433 -0.045,-0.07 l -0.14,-0.19 c -0.0333,-0.04 -0.065,-0.0817 -0.095,-0.125 -0.03,-0.0433 -0.0617,-0.0917 -0.095,-0.145 l -0.26,-0.35 h 0.42 l -0.18,-0.24 v -0.01 h 0.01 c 0,-0.0067 0.01,-0.02 0.03,-0.04 0,-0.0067 0.0017,-0.0117 0.005,-0.015 0.0033,-0.0033 0.005,-0.0083 0.005,-0.015 0.0133,-0.0133 0.025,-0.0283 0.035,-0.045 0.01,-0.0167 0.0217,-0.035 0.035,-0.055 0.0067,-0.0133 0.0133,-0.0217 0.02,-0.025 0.0067,-0.0033 0.0133,-0.0117 0.02,-0.025 0.0267,-0.0467 0.0733,-0.1133 0.14,-0.2 h -0.26 l 0.55,-0.77 h 0.01 c 0,0 0.0033,0.0067 0.01,0.02 0,0 0.0033,0.0067 0.01,0.02 0.0067,0.0067 0.03,0.0367 0.07,0.09 0.0133,0.0267 0.0267,0.0467 0.04,0.06 0.02,0.0267 0.0417,0.0583 0.065,0.095 0.0233,0.0367 0.0517,0.0783 0.085,0.125 0.0133,0.0133 0.025,0.03 0.035,0.05 0.01,0.02 0.0217,0.0367 0.035,0.05 0.0333,0.04 0.0633,0.08 0.09,0.12 0.0267,0.04 0.0567,0.0867 0.09,0.14 h -0.26 l 0.01,0.01 0.01,0.02 c 0.0067,0 0.01,0.0033 0.01,0.01 l 0.02,0.03 0.03,0.03 0.03,0.05 c 0.0067,0.0133 0.02,0.03 0.04,0.05 l 0.05,0.07 c 0.0067,0.0133 0.0133,0.0267 0.02,0.04 0.0067,0.0133 0.0167,0.0267 0.03,0.04 l 0.07,0.1 c 0.0133,0.0133 0.0267,0.03 0.04,0.05 0.0133,0.02 0.0267,0.04 0.04,0.06 l 0.09,0.13 c 0.02,0.0267 0.0383,0.0517 0.055,0.075 0.0167,0.0233 0.035,0.0483 0.055,0.075 h -0.32 0.01 v 0.01 l 0.01,0.01 c 0.0067,0.0067 0.01,0.0117 0.01,0.015 0,0.0033 0.0033,0.0083 0.01,0.015 l 0.02,0.02 c 0,0.0133 0.0067,0.0267 0.02,0.04 l 0.04,0.05 c 0.0067,0.0133 0.0133,0.0233 0.02,0.03 0.0067,0.0067 0.0133,0.0167 0.02,0.03 l 0.06,0.07 c 0.0067,0.0133 0.015,0.0283 0.025,0.045 0.01,0.0167 0.0217,0.0317 0.035,0.045 l 0.07,0.1 0.09,0.12 0.1,0.14 c 0.02,0.0267 0.04,0.0517 0.06,0.075 0.02,0.0233 0.04,0.0517 0.06,0.085 h -1 v 0.64"
         id="path26" />
    </g>
    <g
       fill="none"
       stroke="none"
       transform="scale(1.33333)"
       font-family="'MS Shell Dlg 2'"
       font-size="8.25px"
       font-weight="400"
       font-style="normal"
       id="g30" />
    <g
       fill="none"
       stroke="none"
       font-family="'MS Shell Dlg 2'"
       font-size="8.25px"
       font-weight="400"
       font-style="normal"
       id="g32" />
    <g
       fill="none"
       stroke="#000000"
       stroke-opacity="1"
       stroke-width="1"
       stroke-linecap="square"
       stroke-linejoin="bevel"
       font-family="'MS Shell Dlg 2'"
       font-size="8.25px"
       font-weight="400"
       font-style="normal"
       id="g34" />
  </g>
</svg>
