<?xml version="1.0" encoding="UTF-8" standalone="no"?>
<svg width="11.2889mm" height="11.2889mm"
 viewBox="0 0 32 32"
 xmlns="http://www.w3.org/2000/svg" xmlns:xlink="http://www.w3.org/1999/xlink"  version="1.2" baseProfile="tiny">
<title>Qt SVG Document</title>
<desc>Generated with Qt</desc>
<defs>
</defs>
<g fill="none" stroke="black" stroke-width="1" fill-rule="evenodd" stroke-linecap="square" stroke-linejoin="bevel" >

<g fill="none" stroke="none" transform="matrix(1,0,0,1,0,0)"
font-family="MS Shell Dlg 2" font-size="8.25" font-weight="400" font-style="normal" 
>
</g>

<g fill="none" stroke="none" transform="matrix(1.33333,0,0,1.33333,0,0)"
font-family="MS Shell Dlg 2" font-size="8.25" font-weight="400" font-style="normal" 
>
</g>

<g fill="#a61215" fill-opacity="1" stroke="none" transform="matrix(1,0,0,1,0,0)"
font-family="MS Shell Dlg 2" font-size="8.25" font-weight="400" font-style="normal" 
>
<path vector-effect="none" fill-rule="evenodd" d="M21.402,17.114 C21.402,17.87 21.2597,18.5817 20.975,19.249 C20.6903,19.9163 20.2983,20.4973 19.799,20.992 C19.2997,21.4867 18.7163,21.8763 18.049,22.161 C17.3817,22.4457 16.67,22.588 15.914,22.588 C15.158,22.588 14.4463,22.4457 13.779,22.161 C13.1117,21.8763 12.5307,21.4867 12.036,20.992 C11.5413,20.4973 11.1517,19.9163 10.867,19.249 C10.5823,18.5817 10.44,17.87 10.44,17.114 C10.44,16.358 10.5823,15.6463 10.867,14.979 C11.1517,14.3117 11.5413,13.7283 12.036,13.229 C12.5307,12.7297 13.1117,12.3377 13.779,12.053 C14.4463,11.7683 15.158,11.626 15.914,11.626 C16.67,11.626 17.3817,11.7683 18.049,12.053 C18.7163,12.3377 19.2997,12.7297 19.799,13.229 C20.2983,13.7283 20.6903,14.3117 20.975,14.979 C21.2597,15.6463 21.402,16.358 21.402,17.114 "/>
</g>

<g fill="none" stroke="none" transform="matrix(1.33333,0,0,1.33333,0,0)"
font-family="MS Shell Dlg 2" font-size="8.25" font-weight="400" font-style="normal" 
>
</g>

<g fill="none" stroke="none" transform="matrix(1,0,0,1,0,0)"
font-family="MS Shell Dlg 2" font-size="8.25" font-weight="400" font-style="normal" 
>
</g>

<g fill="none" stroke="#000000" stroke-opacity="1" stroke-width="1" stroke-linecap="square" stroke-linejoin="bevel" transform="matrix(1,0,0,1,0,0)"
font-family="MS Shell Dlg 2" font-size="8.25" font-weight="400" font-style="normal" 
>
</g>

<g fill="none" stroke="none" transform="matrix(1,0,0,1,0,0)"
font-family="MS Shell Dlg 2" font-size="8.25" font-weight="400" font-style="normal" 
>
</g>

<g fill="none" stroke="none" transform="matrix(1.33333,0,0,1.33333,0,0)"
font-family="MS Shell Dlg 2" font-size="8.25" font-weight="400" font-style="normal" 
>
</g>

<g fill="#ffffff" fill-opacity="1" stroke="none" transform="matrix(1,0,0,1,0,0)"
font-family="MS Shell Dlg 2" font-size="8.25" font-weight="400" font-style="normal" 
>
<path vector-effect="none" fill-rule="evenodd" d="M18.14,18.49 C18.42,18.53 18.56,18.5733 18.56,18.62 L18.56,18.72 L18.52,18.74 C18.48,18.7533 18.4467,18.7633 18.42,18.77 L18.42,19.34 L18.2669,19.34 L18.2669,18.72 C18.2397,18.72 18.2074,18.72 18.17,18.72 C18.1326,18.72 18.0901,18.7133 18.0425,18.7 L18.0425,18.62 L18.022,18.6 C18.0084,18.5867 17.9948,18.58 17.9812,18.58 C17.9608,18.58 17.9438,18.5867 17.9302,18.6 C17.9234,18.6067 17.92,18.6133 17.92,18.62 C17.9336,18.62 17.9422,18.6167 17.9456,18.61 C17.9491,18.6033 17.961,18.6 17.9814,18.6 C17.9883,18.6 17.9985,18.6067 18.0122,18.62 C18.0122,18.6267 18.0156,18.6333 18.0223,18.64 L18.0223,19.3 L17.92,19.3 L17.92,18.68 C17.8653,18.68 17.8072,18.6767 17.7456,18.67 C17.6841,18.6633 17.6089,18.66 17.52,18.66 L17.52,19.28 L17.42,19.28 L17.42,18.64 L16.95,18.62 L16.95,19.26 L16.82,19.26 L16.82,18.69 C16.8333,18.67 16.845,18.6483 16.855,18.625 C16.865,18.6017 16.8767,18.58 16.89,18.56 C16.91,18.56 16.9267,18.5667 16.94,18.58 C16.9467,18.5867 16.95,18.5933 16.95,18.6 L16.95,18.55 C16.9433,18.55 16.94,18.5467 16.94,18.54 C16.9333,18.54 16.93,18.5383 16.93,18.535 C16.93,18.5317 16.9233,18.53 16.91,18.53 C16.9233,18.51 16.9317,18.4883 16.935,18.465 C16.9383,18.4417 16.9467,18.42 16.9602,18.4 C17.2111,18.4133 17.4366,18.4283 17.6366,18.445 C17.8366,18.4617 18.0044,18.4767 18.14,18.49 M17.53,18.6 C17.5233,18.5933 17.52,18.5867 17.52,18.58 C17.5133,18.5733 17.51,18.5667 17.51,18.56 C17.51,18.5533 17.5033,18.55 17.49,18.55 C17.4767,18.55 17.46,18.56 17.44,18.58 C17.4333,18.5867 17.43,18.5933 17.43,18.6 L17.44,18.59 C17.4467,18.59 17.4517,18.5883 17.455,18.585 C17.4583,18.5817 17.4633,18.58 17.47,18.58 C17.49,18.58 17.5067,18.5867 17.52,18.6 C17.5267,18.6067 17.53,18.6133 17.53,18.62 L17.53,18.6 M18.42,18.64 L18.41,18.63 C18.4033,18.63 18.395,18.6283 18.385,18.625 C18.375,18.6217 18.3633,18.62 18.35,18.62 C18.3367,18.62 18.3267,18.6217 18.32,18.625 C18.3133,18.6283 18.3067,18.63 18.3,18.63 L18.29,18.64 L18.35,18.64 C18.3633,18.64 18.3733,18.6417 18.38,18.645 C18.3867,18.6483 18.3933,18.65 18.4,18.65 C18.4067,18.6567 18.4133,18.66 18.42,18.66 L18.42,18.64 M12.94,18.49 C13.089,18.47 13.2734,18.4517 13.4934,18.435 C13.7134,18.4183 13.9622,18.4033 14.2397,18.39 C14.2599,18.43 14.28,18.4683 14.3,18.505 C14.32,18.5417 14.3467,18.5767 14.38,18.61 C14.3533,18.6167 14.3133,18.62 14.26,18.62 L14.26,19.26 L14.15,19.26 L14.15,18.62 L13.64,18.64 L13.64,19.28 L13.56,19.28 L13.56,18.66 C13.4848,18.66 13.413,18.6633 13.3446,18.67 C13.2762,18.6767 13.2147,18.68 13.16,18.68 L13.16,19.3 L13.06,19.3 L13.06,18.64 C13.0533,18.6333 13.0533,18.6267 13.06,18.62 C13.06,18.6067 13.0733,18.6 13.1,18.6 C13.12,18.6 13.1317,18.6033 13.135,18.61 C13.1383,18.6167 13.1467,18.62 13.16,18.62 L13.1405,18.6 C13.1274,18.5867 13.1145,18.58 13.1016,18.58 C13.082,18.58 13.0657,18.5867 13.0527,18.6 C13.0462,18.6067 13.043,18.6133 13.043,18.62 L13.043,18.7 C12.9978,18.7133 12.9574,18.72 12.922,18.72 C12.8865,18.72 12.8558,18.72 12.83,18.72 L12.83,19.34 L12.71,19.34 L12.71,18.77 C12.6567,18.7633 12.6133,18.7533 12.58,18.74 C12.56,18.7333 12.5433,18.7267 12.53,18.72 L12.53,18.62 C12.53,18.6 12.5692,18.5783 12.6476,18.555 C12.726,18.5317 12.8234,18.51 12.94,18.49 M12.81,18.64 C12.8033,18.64 12.8,18.6367 12.8,18.63 C12.7933,18.63 12.79,18.6283 12.79,18.625 C12.79,18.6217 12.7833,18.62 12.77,18.62 C12.7567,18.62 12.7467,18.6217 12.74,18.625 C12.7333,18.6283 12.7267,18.63 12.72,18.63 L12.71,18.64 L12.71,18.66 L12.72,18.65 C12.7267,18.65 12.7333,18.6483 12.74,18.645 C12.7467,18.6417 12.7567,18.64 12.77,18.64 L12.81,18.64 M13.6,18.58 C13.6067,18.58 13.6117,18.5817 13.615,18.585 C13.6183,18.5883 13.6233,18.59 13.63,18.59 L13.64,18.6 C13.64,18.5933 13.6367,18.5867 13.63,18.58 C13.61,18.56 13.5933,18.55 13.58,18.55 C13.5533,18.55 13.54,18.56 13.54,18.58 C13.5333,18.5867 13.5333,18.5933 13.54,18.6 L13.54,18.62 C13.54,18.6133 13.5433,18.6067 13.55,18.6 C13.5633,18.5867 13.58,18.58 13.6,18.58 M14.25,18.54 C14.2433,18.54 14.235,18.5383 14.225,18.535 C14.215,18.5317 14.2033,18.53 14.19,18.53 C14.1833,18.53 14.1783,18.5317 14.175,18.535 C14.1717,18.5383 14.1667,18.54 14.16,18.54 L14.15,18.54 C14.1433,18.5467 14.1433,18.55 14.15,18.55 L14.15,18.6 C14.15,18.5933 14.1533,18.5867 14.16,18.58 C14.1667,18.5733 14.1733,18.5667 14.18,18.56 C14.1867,18.5533 14.2,18.55 14.22,18.55 C14.2333,18.55 14.2467,18.56 14.26,18.58 L14.26,18.55 L14.25,18.54 M15.9363,16.92 C16.1588,16.9267 16.3383,16.975 16.475,17.065 C16.6117,17.155 16.7117,17.27 16.775,17.41 C16.8383,17.55 16.8667,17.7033 16.86,17.87 C16.8533,18.0367 16.8167,18.1967 16.75,18.35 C16.6833,18.5033 16.59,18.6367 16.47,18.75 C16.35,18.8633 16.2067,18.94 16.04,18.98 C16.06,19.1467 16.0467,19.2867 16,19.4 C15.9533,19.5133 15.89,19.6083 15.81,19.685 C15.73,19.7617 15.6367,19.8183 15.53,19.855 C15.4233,19.8917 15.3167,19.9133 15.21,19.92 C15.13,19.92 15.0433,19.905 14.95,19.875 C14.8567,19.845 14.7733,19.8017 14.7,19.745 C14.6267,19.6883 14.575,19.62 14.545,19.54 C14.515,19.46 14.5267,19.3733 14.58,19.28 C14.62,19.2467 14.675,19.2233 14.745,19.21 C14.815,19.1967 14.8733,19.2267 14.92,19.3 C14.96,19.3533 14.9717,19.415 14.955,19.485 C14.9383,19.555 14.9033,19.6067 14.85,19.64 C14.9621,19.7333 15.0725,19.78 15.1813,19.78 C15.2901,19.78 15.3874,19.75 15.4731,19.69 C15.5589,19.63 15.6281,19.5417 15.6809,19.425 C15.7336,19.3083 15.76,19.1733 15.76,19.02 C15.5067,19.02 15.2817,18.9783 15.085,18.895 C14.8883,18.8117 14.7283,18.6967 14.605,18.55 C14.4817,18.4033 14.395,18.235 14.345,18.045 C14.295,17.855 14.29,17.65 14.33,17.43 C14.37,17.2033 14.4417,17.0067 14.545,16.84 C14.6483,16.6733 14.7683,16.5267 14.905,16.4 C15.0417,16.2733 15.1817,16.1583 15.325,16.055 C15.4683,15.9517 15.6,15.8433 15.72,15.73 C15.7,15.63 15.685,15.4767 15.675,15.27 C15.665,15.0633 15.675,14.8567 15.705,14.65 C15.735,14.4433 15.7932,14.265 15.8795,14.115 C15.9658,13.965 16.0859,13.8933 16.24,13.9 C16.3533,13.9 16.445,13.9333 16.515,14 C16.585,14.0667 16.6367,14.1517 16.67,14.255 C16.7033,14.3583 16.7217,14.4717 16.725,14.595 C16.7283,14.7183 16.72,14.8333 16.7,14.94 C16.6467,15.2267 16.54,15.4583 16.38,15.635 C16.22,15.8117 16.0652,15.97 15.9156,16.11 L15.9156,16.42 C15.9156,16.5067 15.9173,16.595 15.9208,16.685 C15.9242,16.775 15.9294,16.8533 15.9363,16.92 M15.76,18.83 C15.78,18.5167 15.795,18.22 15.805,17.94 C15.815,17.66 15.82,17.37 15.82,17.07 C15.6925,17.0833 15.574,17.1483 15.4644,17.265 C15.3548,17.3817 15.2933,17.5433 15.28,17.75 C15.2733,17.83 15.2817,17.9 15.305,17.96 C15.3283,18.02 15.3567,18.075 15.39,18.125 C15.4233,18.175 15.46,18.225 15.5,18.275 C15.54,18.325 15.5733,18.3767 15.6,18.43 C15.4,18.3567 15.26,18.2383 15.18,18.075 C15.1,17.9117 15.075,17.7483 15.105,17.585 C15.135,17.4217 15.21,17.2733 15.33,17.14 C15.45,17.0067 15.6067,16.9333 15.8,16.92 C15.8,16.8 15.7986,16.6833 15.7959,16.57 C15.7931,16.4567 15.7778,16.3533 15.75,16.26 C15.6767,16.3267 15.5917,16.4033 15.495,16.49 C15.3983,16.5767 15.3,16.67 15.2,16.77 C15.1,16.87 15.01,16.9783 14.93,17.095 C14.85,17.2117 14.79,17.3367 14.75,17.47 C14.69,17.67 14.675,17.8533 14.705,18.02 C14.735,18.1867 14.7983,18.3317 14.895,18.455 C14.9917,18.5783 15.1167,18.6733 15.27,18.74 C15.4233,18.8067 15.5867,18.8367 15.76,18.83 M16.29,14.07 C16.17,14.05 16.0767,14.0983 16.01,14.215 C15.9433,14.3317 15.8967,14.475 15.87,14.645 C15.8433,14.815 15.8317,14.9917 15.835,15.175 C15.8383,15.3583 15.8467,15.5 15.86,15.6 C15.9267,15.5667 15.9983,15.515 16.075,15.445 C16.1517,15.375 16.22,15.29 16.28,15.19 C16.34,15.09 16.39,14.9817 16.43,14.865 C16.47,14.7483 16.4933,14.63 16.5,14.51 C16.5133,14.4233 16.5,14.3333 16.46,14.24 C16.42,14.1467 16.3633,14.09 16.29,14.07 M16.04,18.75 C16.2067,18.6967 16.3383,18.585 16.435,18.415 C16.5317,18.245 16.5817,18.0667 16.585,17.88 C16.5883,17.6933 16.54,17.5233 16.44,17.37 C16.34,17.2167 16.1733,17.1233 15.94,17.09 C15.96,17.37 15.9817,17.6433 16.005,17.91 C16.0283,18.1767 16.04,18.4567 16.04,18.75 M12.94,17.04 C12.8923,16.98 12.852,16.9217 12.8192,16.865 C12.7864,16.8083 12.77,16.7467 12.77,16.68 C12.77,16.5867 12.8367,16.485 12.97,16.375 C13.1033,16.265 13.2867,16.1633 13.52,16.07 C13.7533,15.9767 14.025,15.8983 14.335,15.835 C14.645,15.7717 14.9767,15.74 15.33,15.74 L15.2091,15.83 C15.1552,15.8767 15.0964,15.9217 15.0325,15.965 C14.9686,16.0083 14.9098,16.0567 14.8561,16.11 C14.5871,16.1367 14.335,16.175 14.0998,16.225 C13.8645,16.275 13.6595,16.3317 13.4847,16.395 C13.3099,16.4583 13.1721,16.5233 13.0712,16.59 C12.9704,16.6567 12.92,16.7233 12.92,16.79 C12.92,16.8033 12.92,16.8167 12.92,16.83 C12.92,16.8433 12.9267,16.8567 12.94,16.87 C12.9468,16.8167 12.9974,16.7617 13.0918,16.705 C13.1862,16.6483 13.3093,16.595 13.4611,16.545 C13.6129,16.495 13.7916,16.45 13.9973,16.41 C14.2031,16.37 14.4206,16.3333 14.65,16.3 C14.6166,16.34 14.5815,16.38 14.5447,16.42 C14.5079,16.46 14.4728,16.5033 14.4394,16.55 C13.9979,16.6167 13.6501,16.7117 13.396,16.835 C13.1419,16.9583 13.0015,17.0767 12.9747,17.19 C13.0282,17.1033 13.1788,17.0217 13.4265,16.945 C13.6741,16.8683 13.9686,16.8033 14.31,16.75 C14.2567,16.8433 14.2117,16.9417 14.175,17.045 C14.1383,17.1483 14.11,17.26 14.09,17.38 C14.0767,17.4533 14.0683,17.5217 14.065,17.585 C14.0617,17.6483 14.06,17.71 14.06,17.77 C13.8667,17.79 13.7,17.81 13.56,17.83 L13.56,17.3 C13.56,17.3 13.5484,17.29 13.5253,17.27 C13.5177,17.2633 13.5101,17.26 13.5023,17.26 C13.4639,17.2733 13.4408,17.2833 13.4331,17.29 C13.4254,17.2967 13.4177,17.3 13.41,17.3 L13.41,17.87 C13.281,17.8967 13.1811,17.9233 13.1102,17.95 C13.0392,17.9767 12.9876,18 12.9553,18.02 L12.94,17.04 M16.29,16.11 C16.3371,16.0633 16.3842,16.015 16.4313,15.965 C16.4785,15.915 16.5256,15.86 16.5728,15.8 C16.8285,15.84 17.0641,15.895 17.2796,15.965 C17.4951,16.035 17.6819,16.11 17.8401,16.19 C17.9983,16.27 18.1228,16.3533 18.2137,16.44 C18.3046,16.5267 18.35,16.6067 18.35,16.68 C18.35,16.7467 18.3283,16.8083 18.285,16.865 C18.2417,16.9217 18.1933,16.98 18.14,17.04 L18.14,18.02 C18.1055,18 18.0504,17.9767 17.9746,17.95 C17.8988,17.9233 17.799,17.8967 17.675,17.87 L17.675,17.3 C17.6681,17.3 17.6612,17.2967 17.6544,17.29 C17.6268,17.2767 17.5992,17.2667 17.5717,17.26 C17.5579,17.26 17.5475,17.2633 17.5406,17.27 C17.5269,17.2833 17.52,17.2933 17.52,17.3 L17.52,17.83 C17.46,17.8167 17.3917,17.8083 17.315,17.805 C17.2383,17.8017 17.1533,17.7933 17.06,17.78 L17.06,17.72 C17.04,17.5467 17.0033,17.4033 16.95,17.29 L16.95,17.19 C16.95,17.1633 16.9267,17.15 16.88,17.15 C16.7267,16.9033 16.49,16.75 16.17,16.69 C16.4051,16.7033 16.6318,16.7267 16.8501,16.76 C17.0684,16.7933 17.2665,16.8333 17.4445,16.88 C17.6226,16.9267 17.7703,16.9767 17.8879,17.03 C18.0054,17.0833 18.081,17.1367 18.1145,17.19 C18.0812,17.0567 17.8929,16.9183 17.5495,16.775 C17.2062,16.6317 16.7445,16.5367 16.1645,16.49 C16.1579,16.45 16.1545,16.41 16.1545,16.37 C16.1545,16.33 16.1545,16.2933 16.1545,16.26 C16.4079,16.2867 16.6529,16.3217 16.8895,16.365 C17.1262,16.4083 17.3345,16.4567 17.5145,16.51 C17.6945,16.5633 17.8395,16.6217 17.9495,16.685 C18.0595,16.7483 18.1221,16.81 18.1373,16.87 C18.1524,16.8567 18.16,16.8433 18.16,16.83 C18.16,16.8167 18.16,16.8033 18.16,16.79 C18.16,16.7233 18.1111,16.6567 18.0134,16.59 C17.9157,16.5233 17.7826,16.46 17.6141,16.4 C17.4457,16.34 17.2468,16.285 17.0177,16.235 C16.7886,16.185 16.546,16.1433 16.29,16.11 M12.94,18.1358 C13.0009,18.1033 13.133,18.074 13.3363,18.048 C13.5396,18.0221 13.7904,17.996 14.0886,17.97 C14.1089,18.0798 14.1394,18.1831 14.18,18.28 C13.9225,18.2933 13.687,18.3067 13.4736,18.32 C13.2602,18.3333 13.0823,18.3467 12.94,18.36 L12.94,18.1358 M17.02,18.28 C17.0533,18.1703 17.07,18.0703 17.07,17.98 C17.35,17.9995 17.5833,18.0222 17.77,18.0482 C17.9567,18.0742 18.08,18.1034 18.14,18.1359 L18.14,18.36 C18.0067,18.3467 17.845,18.3333 17.655,18.32 C17.465,18.3067 17.2533,18.2933 17.02,18.28 "/>
</g>

<g fill="none" stroke="none" transform="matrix(1.33333,0,0,1.33333,0,0)"
font-family="MS Shell Dlg 2" font-size="8.25" font-weight="400" font-style="normal" 
>
</g>

<g fill="none" stroke="none" transform="matrix(1,0,0,1,0,0)"
font-family="MS Shell Dlg 2" font-size="8.25" font-weight="400" font-style="normal" 
>
</g>

<g fill="none" stroke="#000000" stroke-opacity="1" stroke-width="1" stroke-linecap="square" stroke-linejoin="bevel" transform="matrix(1,0,0,1,0,0)"
font-family="MS Shell Dlg 2" font-size="8.25" font-weight="400" font-style="normal" 
>
</g>
</g>
</svg>
