<?xml version="1.0" encoding="UTF-8" standalone="no"?>
<svg
   xmlns:dc="http://purl.org/dc/elements/1.1/"
   xmlns:cc="http://creativecommons.org/ns#"
   xmlns:rdf="http://www.w3.org/1999/02/22-rdf-syntax-ns#"
   xmlns:svg="http://www.w3.org/2000/svg"
   xmlns="http://www.w3.org/2000/svg"
   xmlns:sodipodi="http://sodipodi.sourceforge.net/DTD/sodipodi-0.dtd"
   xmlns:inkscape="http://www.inkscape.org/namespaces/inkscape"
   width="3.8671539mm"
   height="3.8671539mm"
   viewBox="0 0 10.962 10.962"
   version="1.2"
   id="svg38"
   sodipodi:docname="200k_11.svg"
   inkscape:version="1.0 (4035a4fb49, 2020-05-01)">
  <metadata
     id="metadata42">
    <rdf:RDF>
      <cc:Work
         rdf:about="">
        <dc:format>image/svg+xml</dc:format>
        <dc:type
           rdf:resource="http://purl.org/dc/dcmitype/StillImage" />
      </cc:Work>
    </rdf:RDF>
  </metadata>
  <sodipodi:namedview
     inkscape:document-rotation="0"
     pagecolor="#ffffff"
     bordercolor="#666666"
     borderopacity="1"
     objecttolerance="10"
     gridtolerance="10"
     guidetolerance="10"
     inkscape:pageopacity="0"
     inkscape:pageshadow="2"
     inkscape:window-width="1920"
     inkscape:window-height="1013"
     id="namedview40"
     showgrid="false"
     inkscape:zoom="12.239135"
     inkscape:cx="11.422959"
     inkscape:cy="5.8265327"
     inkscape:window-x="-9"
     inkscape:window-y="-9"
     inkscape:window-maximized="1"
     inkscape:current-layer="svg38" />
  <title
     id="title2">Qt SVG Document</title>
  <desc
     id="desc4">Generated with Qt</desc>
  <defs
     id="defs6" />
  <g
     fill="none"
     stroke="#000000"
     stroke-width="1"
     fill-rule="evenodd"
     stroke-linecap="square"
     stroke-linejoin="bevel"
     id="g36"
     transform="translate(-10.44,-11.626)">
    <g
       fill="none"
       stroke="none"
       font-family="'MS Shell Dlg 2'"
       font-size="8.25px"
       font-weight="400"
       font-style="normal"
       id="g8" />
    <g
       fill="none"
       stroke="none"
       transform="scale(1.33333)"
       font-family="'MS Shell Dlg 2'"
       font-size="8.25px"
       font-weight="400"
       font-style="normal"
       id="g10" />
    <g
       fill="#1a1a1a"
       fill-opacity="1"
       stroke="none"
       font-family="'MS Shell Dlg 2'"
       font-size="8.25px"
       font-weight="400"
       font-style="normal"
       id="g14">
      <path
         vector-effect="none"
         fill-rule="evenodd"
         d="m 21.402,17.114 c 0,0.756 -0.1423,1.4677 -0.427,2.135 -0.2847,0.6673 -0.6767,1.2483 -1.176,1.743 -0.4993,0.4947 -1.0827,0.8843 -1.75,1.169 -0.6673,0.2847 -1.379,0.427 -2.135,0.427 -0.756,0 -1.4677,-0.1423 -2.135,-0.427 -0.6673,-0.2847 -1.2483,-0.6743 -1.743,-1.169 -0.4947,-0.4947 -0.8843,-1.0757 -1.169,-1.743 -0.2847,-0.6673 -0.427,-1.379 -0.427,-2.135 0,-0.756 0.1423,-1.4677 0.427,-2.135 0.2847,-0.6673 0.6743,-1.2507 1.169,-1.75 0.4947,-0.4993 1.0757,-0.8913 1.743,-1.176 0.6673,-0.2847 1.379,-0.427 2.135,-0.427 0.756,0 1.4677,0.1423 2.135,0.427 0.6673,0.2847 1.2507,0.6767 1.75,1.176 0.4993,0.4993 0.8913,1.0827 1.176,1.75 0.2847,0.6673 0.427,1.379 0.427,2.135"
         id="path12" />
    </g>
    <g
       fill="none"
       stroke="none"
       transform="scale(1.33333)"
       font-family="'MS Shell Dlg 2'"
       font-size="8.25px"
       font-weight="400"
       font-style="normal"
       id="g16" />
    <g
       fill="none"
       stroke="none"
       font-family="'MS Shell Dlg 2'"
       font-size="8.25px"
       font-weight="400"
       font-style="normal"
       id="g18" />
    <g
       fill="none"
       stroke="#000000"
       stroke-opacity="1"
       stroke-width="1"
       stroke-linecap="square"
       stroke-linejoin="bevel"
       font-family="'MS Shell Dlg 2'"
       font-size="8.25px"
       font-weight="400"
       font-style="normal"
       id="g20" />
    <g
       fill="none"
       stroke="none"
       font-family="'MS Shell Dlg 2'"
       font-size="8.25px"
       font-weight="400"
       font-style="normal"
       id="g22" />
    <g
       fill="none"
       stroke="none"
       transform="scale(1.33333)"
       font-family="'MS Shell Dlg 2'"
       font-size="8.25px"
       font-weight="400"
       font-style="normal"
       id="g24" />
    <g
       fill="#ffffff"
       fill-opacity="1"
       stroke="none"
       font-family="'MS Shell Dlg 2'"
       font-size="8.25px"
       font-weight="400"
       font-style="normal"
       id="g28">
      <path
         vector-effect="none"
         fill-rule="evenodd"
         d="m 13.636,16.422 v 2.52 h -0.39 c -0.08,0 -0.15,-0.03 -0.21,-0.09 -0.06,-0.06 -0.09,-0.1267 -0.09,-0.2 v -1.94 c 0,-0.0867 0.03,-0.1567 0.09,-0.21 0.06,-0.0533 0.13,-0.08 0.21,-0.08 h 0.39 m 4.83,0.04 c 0.1267,0 0.23,0.0383 0.31,0.115 0.08,0.0767 0.12,0.1683 0.12,0.275 v 2.78 h -2.39 v -0.69 h 1.74 v -0.33 h -1.41 l 1.63,-2.15 m -1.98,2.01 v -1.4 c -0.2267,0.2933 -0.4267,0.5567 -0.6,0.79 -0.08,0.1 -0.1567,0.1983 -0.23,0.295 -0.0733,0.0967 -0.14,0.185 -0.2,0.265 -0.06,0.08 -0.1117,0.1483 -0.155,0.205 -0.0433,0.0567 -0.0717,0.0917 -0.085,0.105 -0.0533,0.0667 -0.1233,0.1067 -0.21,0.12 -0.0867,0.0133 -0.1667,-0.0133 -0.24,-0.08 -0.06,-0.0533 -0.0983,-0.1217 -0.115,-0.205 -0.0167,-0.0833 0.0083,-0.1583 0.075,-0.225 0.0133,-0.02 0.0417,-0.06 0.085,-0.12 0.0433,-0.06 0.0983,-0.1317 0.165,-0.215 0.0667,-0.0833 0.14,-0.1783 0.22,-0.285 0.08,-0.1067 0.16,-0.2133 0.24,-0.32 0.1867,-0.2533 0.4,-0.5333 0.64,-0.84 0.06,-0.08 0.1533,-0.12 0.28,-0.12 h 1.68 l -1.55,2.03 m -2.85,0.47 h 2.52 v 0.41 c 0,0.08 -0.0267,0.1467 -0.08,0.2 -0.0533,0.0533 -0.1233,0.08 -0.21,0.08 h -1.94 c -0.0733,0 -0.14,-0.0267 -0.2,-0.08 -0.06,-0.0533 -0.09,-0.12 -0.09,-0.2 v -0.41 m 3.07,-3.87 -0.3,-0.49 h 1.71 v 0.49 h -1.41 m 0,0.14 h 1.41 v 0.35 c 0,0.1867 -0.065,0.3433 -0.195,0.47 -0.13,0.1267 -0.2883,0.19 -0.475,0.19 -0.1867,0 -0.3433,-0.0633 -0.47,-0.19 -0.1267,-0.1267 -0.19,-0.2833 -0.19,-0.47 h -0.34 l 0.26,-0.35"
         id="path26" />
    </g>
    <g
       fill="none"
       stroke="none"
       transform="scale(1.33333)"
       font-family="'MS Shell Dlg 2'"
       font-size="8.25px"
       font-weight="400"
       font-style="normal"
       id="g30" />
    <g
       fill="none"
       stroke="none"
       font-family="'MS Shell Dlg 2'"
       font-size="8.25px"
       font-weight="400"
       font-style="normal"
       id="g32" />
    <g
       fill="none"
       stroke="#000000"
       stroke-opacity="1"
       stroke-width="1"
       stroke-linecap="square"
       stroke-linejoin="bevel"
       font-family="'MS Shell Dlg 2'"
       font-size="8.25px"
       font-weight="400"
       font-style="normal"
       id="g34" />
  </g>
</svg>
