<?xml version="1.0" encoding="UTF-8" standalone="no"?>
<svg
   xmlns:dc="http://purl.org/dc/elements/1.1/"
   xmlns:cc="http://creativecommons.org/ns#"
   xmlns:rdf="http://www.w3.org/1999/02/22-rdf-syntax-ns#"
   xmlns:svg="http://www.w3.org/2000/svg"
   xmlns="http://www.w3.org/2000/svg"
   xmlns:sodipodi="http://sodipodi.sourceforge.net/DTD/sodipodi-0.dtd"
   xmlns:inkscape="http://www.inkscape.org/namespaces/inkscape"
   width="3.8671539mm"
   height="3.8671539mm"
   viewBox="0 0 10.962 10.962"
   version="1.2"
   id="svg22"
   sodipodi:docname="200k_81.svg"
   inkscape:version="1.0 (4035a4fb49, 2020-05-01)">
  <metadata
     id="metadata26">
    <rdf:RDF>
      <cc:Work
         rdf:about="">
        <dc:format>image/svg+xml</dc:format>
        <dc:type
           rdf:resource="http://purl.org/dc/dcmitype/StillImage" />
      </cc:Work>
    </rdf:RDF>
  </metadata>
  <sodipodi:namedview
     inkscape:document-rotation="0"
     pagecolor="#ffffff"
     bordercolor="#666666"
     borderopacity="1"
     objecttolerance="10"
     gridtolerance="10"
     guidetolerance="10"
     inkscape:pageopacity="0"
     inkscape:pageshadow="2"
     inkscape:window-width="1920"
     inkscape:window-height="1013"
     id="namedview24"
     showgrid="false"
     inkscape:zoom="17.308751"
     inkscape:cx="7.4071869"
     inkscape:cy="9.3608426"
     inkscape:window-x="-9"
     inkscape:window-y="-9"
     inkscape:window-maximized="1"
     inkscape:current-layer="svg22" />
  <title
     id="title2">Qt SVG Document</title>
  <desc
     id="desc4">Generated with Qt</desc>
  <defs
     id="defs6" />
  <g
     fill="none"
     stroke="#000000"
     stroke-width="1"
     fill-rule="evenodd"
     stroke-linecap="square"
     stroke-linejoin="bevel"
     id="g20"
     transform="translate(-10.44,-11.626)">
    <g
       fill="#53a54f"
       fill-opacity="1"
       stroke="none"
       font-family="'MS Shell Dlg 2'"
       font-size="8.25px"
       font-weight="400"
       font-style="normal"
       id="g10">
      <path
         vector-effect="none"
         fill-rule="evenodd"
         d="m 21.402,17.114 c 0,0.756 -0.1423,1.4677 -0.427,2.135 -0.2847,0.6673 -0.6767,1.2483 -1.176,1.743 -0.4993,0.4947 -1.0827,0.8843 -1.75,1.169 -0.6673,0.2847 -1.379,0.427 -2.135,0.427 -0.756,0 -1.4677,-0.1423 -2.135,-0.427 -0.6673,-0.2847 -1.2483,-0.6743 -1.743,-1.169 -0.4947,-0.4947 -0.8843,-1.0757 -1.169,-1.743 -0.2847,-0.6673 -0.427,-1.379 -0.427,-2.135 0,-0.756 0.1423,-1.4677 0.427,-2.135 0.2847,-0.6673 0.6743,-1.2507 1.169,-1.75 0.4947,-0.4993 1.0757,-0.8913 1.743,-1.176 0.6673,-0.2847 1.379,-0.427 2.135,-0.427 0.756,0 1.4677,0.1423 2.135,0.427 0.6673,0.2847 1.2507,0.6767 1.75,1.176 0.4993,0.4993 0.8913,1.0827 1.176,1.75 0.2847,0.6673 0.427,1.379 0.427,2.135"
         id="path8" />
    </g>
    <g
       fill="#53a54f"
       fill-opacity="1"
       stroke="none"
       font-family="'MS Shell Dlg 2'"
       font-size="8.25px"
       font-weight="400"
       font-style="normal"
       id="g12" />
    <g
       fill="#ffffff"
       fill-opacity="1"
       stroke="none"
       font-family="'MS Shell Dlg 2'"
       font-size="8.25px"
       font-weight="400"
       font-style="normal"
       id="g16">
      <path
         vector-effect="none"
         fill-rule="evenodd"
         d="m 14.312022,16.83939 c -0.132,0.022 -0.2512,0.0697 -0.3575,0.143 -0.1063,0.0733 -0.1888,0.165 -0.2475,0.275 -0.0587,0.11 -0.088,0.2347 -0.088,0.374 0,0.1393 0.044,0.286 0.132,0.44 0.0073,-0.0733 0.011,-0.154 0.011,-0.242 0,-0.088 0.0165,-0.1705 0.0495,-0.2475 0.033,-0.077 0.0898,-0.1467 0.1705,-0.209 0.0807,-0.0623 0.2053,-0.1008 0.374,-0.1155 0.0953,-0.0147 0.1778,-0.0238 0.2475,-0.0275 0.0697,-0.0037 0.1412,0.0055 0.2145,0.0275 -0.0367,0.176 -0.0587,0.3593 -0.066,0.55 -0.0073,0.1907 0.0073,0.3923 0.044,0.605 -0.154,0.0953 -0.308,0.143 -0.462,0.143 -0.22,0 -0.4107,-0.0752 -0.572,-0.2255 -0.1613,-0.1503 -0.3263,-0.3318 -0.495,-0.5445 -0.0953,-0.1247 -0.187,-0.2603 -0.275,-0.407 -0.088,-0.1467 -0.1613,-0.3025 -0.22,-0.4675 -0.0587,-0.165 -0.099,-0.3355 -0.121,-0.5115 -0.022,-0.176 -0.0147,-0.3593 0.022,-0.55 0.022,-0.1247 0.0293,-0.2402 0.022,-0.3465 -0.0073,-0.1063 -0.0165,-0.2072 -0.0275,-0.3025 -0.011,-0.0953 -0.0183,-0.1907 -0.022,-0.286 -0.0037,-0.0953 0.0055,-0.198 0.0275,-0.308 0.044,-0.176 0.0862,-0.2713 0.1265,-0.286 0.0403,-0.0147 0.1137,0.0018 0.22,0.0495 0.1063,0.0477 0.264,0.1063 0.473,0.176 0.209,0.0697 0.5042,0.1045 0.8855,0.1045 0.374,0.0073 0.6655,-0.022 0.8745,-0.088 0.209,-0.066 0.3685,-0.1228 0.4785,-0.1705 0.11,-0.0477 0.1833,-0.0605 0.22,-0.0385 0.0367,0.022 0.0733,0.121 0.11,0.297 0.022,0.154 0.022,0.3007 0,0.44 -0.0953,0.0733 -0.165,0.143 -0.209,0.209 -0.0367,0.0367 -0.0623,0.0642 -0.077,0.0825 -0.0147,0.0183 -0.033,0.0532 -0.055,0.1045 -0.0587,0.022 -0.1393,0.0312 -0.242,0.0275 -0.1027,-0.0037 -0.2017,-0.0128 -0.297,-0.0275 -0.088,0 -0.165,-0.0183 -0.231,-0.055 -0.066,-0.0367 -0.1265,-0.0788 -0.1815,-0.1265 -0.055,-0.0477 -0.1027,-0.0953 -0.143,-0.143 -0.0403,-0.0477 -0.0752,-0.0788 -0.1045,-0.0935 0,0.044 0.0037,0.1082 0.011,0.1925 0.0073,0.0843 0.0275,0.1668 0.0605,0.2475 0.033,0.0807 0.0862,0.1558 0.1595,0.2255 0.0733,0.0697 0.1797,0.1155 0.319,0.1375 0.0733,0.0147 0.165,0.0055 0.275,-0.0275 0.11,-0.033 0.187,-0.0605 0.231,-0.0825 l -0.066,0.132 c -0.0367,0.0953 -0.0715,0.1797 -0.1045,0.253 -0.033,0.0733 -0.0825,0.1503 -0.1485,0.231 -0.0807,0.1027 -0.1467,0.198 -0.198,0.286 -0.0513,0.088 -0.1027,0.1943 -0.154,0.319 -0.066,-0.0367 -0.1558,-0.0733 -0.2695,-0.11 -0.1137,-0.0367 -0.2218,-0.0477 -0.3245,-0.033 m -0.693,-1.012 c 0.1393,0.0073 0.2475,-0.0202 0.3245,-0.0825 0.077,-0.0623 0.1357,-0.1357 0.176,-0.22 0.0403,-0.0843 0.066,-0.1705 0.077,-0.2585 0.011,-0.088 0.0165,-0.154 0.0165,-0.198 -0.0367,0.0147 -0.0752,0.044 -0.1155,0.088 -0.0403,0.044 -0.0898,0.088 -0.1485,0.132 -0.0587,0.044 -0.1265,0.0843 -0.2035,0.121 -0.077,0.0367 -0.1668,0.055 -0.2695,0.055 -0.1027,0.0147 -0.2017,0.022 -0.297,0.022 -0.0953,0 -0.1797,-0.0183 -0.253,-0.055 0.0147,0.0953 0.099,0.1815 0.253,0.2585 0.154,0.077 0.3007,0.1228 0.44,0.1375 m 3.993,0.528 c 0.3373,0.1833 0.6178,0.297 0.8415,0.341 0.2237,0.044 0.396,0.0733 0.517,0.088 0.121,0.0147 0.1943,0.0403 0.22,0.077 0.0257,0.0367 0.0128,0.1393 -0.0385,0.308 -0.0367,0.1027 -0.0807,0.1943 -0.132,0.275 -0.0513,0.0807 -0.1045,0.1595 -0.1595,0.2365 -0.055,0.077 -0.11,0.1613 -0.165,0.253 -0.055,0.0917 -0.1008,0.1962 -0.1375,0.3135 -0.1173,0.3667 -0.319,0.6618 -0.605,0.8855 -0.286,0.2237 -0.5867,0.3978 -0.902,0.5225 -0.2347,0.0953 -0.4583,0.1687 -0.671,0.22 -0.2127,0.0513 -0.418,0.0183 -0.616,-0.099 -0.198,-0.1027 -0.3355,-0.2567 -0.4125,-0.462 -0.077,-0.2053 -0.1412,-0.4363 -0.1925,-0.693 -0.0367,-0.1687 -0.0605,-0.341 -0.0715,-0.517 -0.011,-0.176 -0.0055,-0.352 0.0165,-0.528 0.022,-0.176 0.0678,-0.3465 0.1375,-0.5115 0.0697,-0.165 0.1668,-0.3245 0.2915,-0.4785 0.0733,-0.0953 0.132,-0.1888 0.176,-0.2805 0.044,-0.0917 0.0843,-0.1833 0.121,-0.275 0.0367,-0.0917 0.0752,-0.1797 0.1155,-0.264 0.0403,-0.0843 0.0935,-0.1705 0.1595,-0.2585 0.1173,-0.132 0.198,-0.1962 0.242,-0.1925 0.044,0.0037 0.1027,0.0513 0.176,0.143 0.0733,0.0917 0.187,0.2182 0.341,0.3795 0.154,0.1613 0.4033,0.3337 0.748,0.517 m -1.111,0.121 c -0.066,-0.0367 -0.1357,-0.055 -0.209,-0.055 -0.0733,0 -0.1448,0.011 -0.2145,0.033 -0.0697,0.022 -0.132,0.055 -0.187,0.099 -0.055,0.044 -0.0972,0.0953 -0.1265,0.154 0.0807,-0.022 0.154,-0.0128 0.22,0.0275 0.066,0.0403 0.1467,0.1082 0.242,0.2035 0.1247,0.1027 0.2218,0.22 0.2915,0.352 0.0697,0.132 0.1192,0.2383 0.1485,0.319 0.0367,-0.11 0.0605,-0.2255 0.0715,-0.3465 0.011,-0.121 0.0092,-0.2328 -0.0055,-0.3355 -0.0147,-0.1027 -0.0403,-0.1943 -0.077,-0.275 -0.0367,-0.0807 -0.088,-0.1393 -0.154,-0.176 m -0.484,2.739 c 0.1173,0.066 0.2603,0.0917 0.429,0.077 0.1687,-0.0147 0.3392,-0.0513 0.5115,-0.11 0.1723,-0.0587 0.3355,-0.132 0.4895,-0.22 0.154,-0.088 0.275,-0.1723 0.363,-0.253 -0.0733,0.0367 -0.1705,0.077 -0.2915,0.121 -0.121,0.044 -0.253,0.077 -0.396,0.099 -0.143,0.022 -0.2897,0.0257 -0.44,0.011 -0.1503,-0.0147 -0.2878,-0.0587 -0.4125,-0.132 -0.1247,-0.0733 -0.2255,-0.1687 -0.3025,-0.286 -0.077,-0.1173 -0.1375,-0.2365 -0.1815,-0.3575 -0.044,-0.121 -0.0752,-0.2402 -0.0935,-0.3575 -0.0183,-0.1173 -0.0348,-0.2163 -0.0495,-0.297 -0.0367,0.1393 -0.0568,0.2952 -0.0605,0.4675 -0.0037,0.1723 0.0073,0.341 0.033,0.506 0.0257,0.165 0.0715,0.3135 0.1375,0.4455 0.066,0.132 0.154,0.2273 0.264,0.286 m 2.31,-1.078 c 0.0587,-0.1173 0.0807,-0.253 0.066,-0.407 -0.0147,-0.154 -0.0843,-0.264 -0.209,-0.33 -0.066,-0.0367 -0.1503,-0.0568 -0.253,-0.0605 -0.1027,-0.0037 -0.209,0.011 -0.319,0.044 -0.11,0.033 -0.22,0.0807 -0.33,0.143 -0.11,0.0623 -0.2017,0.1412 -0.275,0.2365 0.0807,-0.0147 0.1888,-0.0257 0.3245,-0.033 0.1357,-0.0073 0.2878,0.0183 0.4565,0.077 0.1247,0.0367 0.2365,0.0825 0.3355,0.1375 0.099,0.055 0.1668,0.1192 0.2035,0.1925"
         id="path14" />
    </g>
    <g
       fill="#ffffff"
       fill-opacity="1"
       stroke="none"
       font-family="'MS Shell Dlg 2'"
       font-size="8.25px"
       font-weight="400"
       font-style="normal"
       id="g18" />
  </g>
</svg>
