<?xml version="1.0" encoding="UTF-8" standalone="no"?>
<svg
   xmlns:dc="http://purl.org/dc/elements/1.1/"
   xmlns:cc="http://creativecommons.org/ns#"
   xmlns:rdf="http://www.w3.org/1999/02/22-rdf-syntax-ns#"
   xmlns:svg="http://www.w3.org/2000/svg"
   xmlns="http://www.w3.org/2000/svg"
   xmlns:sodipodi="http://sodipodi.sourceforge.net/DTD/sodipodi-0.dtd"
   xmlns:inkscape="http://www.inkscape.org/namespaces/inkscape"
   inkscape:version="1.0 (4035a4fb49, 2020-05-01)"
   sodipodi:docname="200k_87.svg"
   id="svg20"
   version="1.2"
   viewBox="0 0 11.3386 11.3386"
   height="4.00001mm"
   width="4.00001mm">
  <metadata
     id="metadata24">
    <rdf:RDF>
      <cc:Work
         rdf:about="">
        <dc:format>image/svg+xml</dc:format>
        <dc:type
           rdf:resource="http://purl.org/dc/dcmitype/StillImage" />
      </cc:Work>
    </rdf:RDF>
  </metadata>
  <sodipodi:namedview
     inkscape:current-layer="svg20"
     inkscape:window-maximized="1"
     inkscape:window-y="-9"
     inkscape:window-x="-9"
     inkscape:cy="7.5590744"
     inkscape:cx="7.5590744"
     inkscape:zoom="18.047943"
     showgrid="false"
     id="namedview22"
     inkscape:window-height="1013"
     inkscape:window-width="1920"
     inkscape:pageshadow="2"
     inkscape:pageopacity="0"
     guidetolerance="10"
     gridtolerance="10"
     objecttolerance="10"
     borderopacity="1"
     bordercolor="#666666"
     pagecolor="#ffffff" />
  <title
     id="title2">Qt SVG Document</title>
  <desc
     id="desc4">Generated with Qt</desc>
  <defs
     id="defs6" />
  <g
     transform="translate(-10.3307,-10.3307)"
     id="g18"
     stroke-linejoin="bevel"
     stroke-linecap="square"
     fill-rule="evenodd"
     stroke-width="1"
     stroke="#000000"
     fill="none">
    <g
       id="g10"
       font-style="normal"
       font-weight="400"
       font-size="8.25px"
       font-family="'MS Shell Dlg 2'"
       stroke="none"
       fill-opacity="1"
       fill="#53a54f">
      <path
         id="path8"
         d="m 21.6693,16 c 0,3.1311 -2.5382,5.6693 -5.6693,5.6693 -3.1311,0 -5.6693,-2.5382 -5.6693,-5.6693 0,-3.1311 2.5382,-5.6693 5.6693,-5.6693 3.1311,0 5.6693,2.5382 5.6693,5.6693"
         fill-rule="evenodd"
         vector-effect="non-scaling-stroke" />
    </g>
    <g
       id="g14"
       font-style="normal"
       font-weight="400"
       font-size="8.25px"
       font-family="'MS Shell Dlg 2'"
       stroke="none"
       fill-opacity="0.94902"
       fill="#ffffff">
      <path
         id="path12"
         d="m 13.585,13.963 h 4.816 v 3.374 h -4.816 v -3.374 m 1.386,0.378 c -0.1493,0 -0.2777,0.052 -0.385,0.1561 -0.1073,0.104 -0.161,0.2317 -0.161,0.3829 0,0.1512 0.0537,0.2789 0.161,0.3829 0.1073,0.1041 0.2357,0.1561 0.385,0.1561 0.1493,0 0.2753,-0.052 0.378,-0.1561 0.1027,-0.104 0.154,-0.2317 0.154,-0.3829 0,-0.1512 -0.0513,-0.2789 -0.154,-0.3829 C 15.2463,14.393 15.1203,14.341 14.971,14.341 m -0.574,2.478 c -0.168,-0.0467 -0.294,-0.0583 -0.378,-0.035 -0.084,0.0233 -0.1447,0.063 -0.182,0.119 -0.0373,0.0653 -0.0607,0.1447 -0.07,0.238 h 4.424 v -1.036 l -0.322,-0.154 -0.448,0.308 -0.868,-0.56 -1.148,1.12 c -0.0653,0.0373 -0.1493,0.0653 -0.252,0.084 -0.084,0.0187 -0.1913,0.0233 -0.322,0.014 -0.1307,-0.0093 -0.2753,-0.042 -0.434,-0.098 m 4.172,-3.388 c 0.1213,0 0.224,0.0397 0.308,0.119 0.084,0.0793 0.126,0.1797 0.126,0.301 v 3.626 c 0,0.112 -0.042,0.21 -0.126,0.294 -0.084,0.084 -0.1867,0.126 -0.308,0.126 h -5.138 c -0.1213,0 -0.224,-0.042 -0.308,-0.126 -0.084,-0.084 -0.126,-0.182 -0.126,-0.294 v -3.626 c 0,-0.1213 0.042,-0.2217 0.126,-0.301 0.084,-0.0793 0.1867,-0.119 0.308,-0.119 h 5.138 m 0.154,0.406 c 0,-0.1027 -0.0513,-0.154 -0.154,-0.154 h -5.138 c -0.1027,0 -0.154,0.0513 -0.154,0.154 v 3.626 c 0,0.1027 0.0513,0.154 0.154,0.154 h 5.138 c 0.1027,0 0.154,-0.0513 0.154,-0.154 v -3.626 m -2.898,-0.686 h -0.434 l 0.266,-1.442 h 0.63 l 0.252,1.442 h -0.42 l -0.056,-0.308 h -0.182 l -0.056,0.308 m 1.974,5.166 h 0.602 v 0.35 h -0.518 l 0.322,1.624 h -0.91 l -0.252,-1.624 h -2.156 l -0.238,1.624 h -0.91 l 0.308,-1.624 h -0.462 v -0.35 h 0.56 l 0.042,-0.182 h 0.798 l -0.028,0.182 h 2.03 l -0.028,-0.182 h 0.798 l 0.042,0.182"
         fill-rule="evenodd"
         vector-effect="none" />
    </g>
    <g
       id="g16"
       font-style="normal"
       font-weight="400"
       font-size="8.25px"
       font-family="'MS Shell Dlg 2'"
       stroke="none"
       fill-opacity="0.94902"
       fill="#ffffff" />
  </g>
</svg>
