<?xml version="1.0" encoding="UTF-8" standalone="no"?>
<svg width="11.2889mm" height="11.2889mm"
 viewBox="0 0 32 32"
 xmlns="http://www.w3.org/2000/svg" xmlns:xlink="http://www.w3.org/1999/xlink"  version="1.2" baseProfile="tiny">
<title>Qt SVG Document</title>
<desc>Generated with Qt</desc>
<defs>
</defs>
<g fill="none" stroke="black" stroke-width="1" fill-rule="evenodd" stroke-linecap="square" stroke-linejoin="bevel" >

<g fill="none" stroke="none" transform="matrix(1,0,0,1,0,0)"
font-family="MS Shell Dlg 2" font-size="8.25" font-weight="400" font-style="normal" 
>
</g>

<g fill="none" stroke="none" transform="matrix(1.33333,0,0,1.33333,0,0)"
font-family="MS Shell Dlg 2" font-size="8.25" font-weight="400" font-style="normal" 
>
</g>

<g fill="#b75800" fill-opacity="1" stroke="none" transform="matrix(1,0,0,1,0,0)"
font-family="MS Shell Dlg 2" font-size="8.25" font-weight="400" font-style="normal" 
>
<path vector-effect="none" fill-rule="evenodd" d="M21.402,17.114 C21.402,17.87 21.2597,18.5817 20.975,19.249 C20.6903,19.9163 20.2983,20.4973 19.799,20.992 C19.2997,21.4867 18.7163,21.8763 18.049,22.161 C17.3817,22.4457 16.67,22.588 15.914,22.588 C15.158,22.588 14.4463,22.4457 13.779,22.161 C13.1117,21.8763 12.5307,21.4867 12.036,20.992 C11.5413,20.4973 11.1517,19.9163 10.867,19.249 C10.5823,18.5817 10.44,17.87 10.44,17.114 C10.44,16.358 10.5823,15.6463 10.867,14.979 C11.1517,14.3117 11.5413,13.7283 12.036,13.229 C12.5307,12.7297 13.1117,12.3377 13.779,12.053 C14.4463,11.7683 15.158,11.626 15.914,11.626 C16.67,11.626 17.3817,11.7683 18.049,12.053 C18.7163,12.3377 19.2997,12.7297 19.799,13.229 C20.2983,13.7283 20.6903,14.3117 20.975,14.979 C21.2597,15.6463 21.402,16.358 21.402,17.114 "/>
</g>

<g fill="none" stroke="none" transform="matrix(1.33333,0,0,1.33333,0,0)"
font-family="MS Shell Dlg 2" font-size="8.25" font-weight="400" font-style="normal" 
>
</g>

<g fill="none" stroke="none" transform="matrix(1,0,0,1,0,0)"
font-family="MS Shell Dlg 2" font-size="8.25" font-weight="400" font-style="normal" 
>
</g>

<g fill="none" stroke="#000000" stroke-opacity="1" stroke-width="1" stroke-linecap="square" stroke-linejoin="bevel" transform="matrix(1,0,0,1,0,0)"
font-family="MS Shell Dlg 2" font-size="8.25" font-weight="400" font-style="normal" 
>
</g>

<g fill="none" stroke="none" transform="matrix(1,0,0,1,0,0)"
font-family="MS Shell Dlg 2" font-size="8.25" font-weight="400" font-style="normal" 
>
</g>

<g fill="none" stroke="none" transform="matrix(1.33333,0,0,1.33333,0,0)"
font-family="MS Shell Dlg 2" font-size="8.25" font-weight="400" font-style="normal" 
>
</g>

<g fill="#ffffff" fill-opacity="1" stroke="none" transform="matrix(1,0,0,1,0,0)"
font-family="MS Shell Dlg 2" font-size="8.25" font-weight="400" font-style="normal" 
>
<path vector-effect="none" fill-rule="evenodd" d="M18.03,18.35 C18.21,18.3967 18.3817,18.45 18.545,18.51 C18.7083,18.57 18.87,18.6333 19.03,18.7 L19.03,18.93 C18.5567,18.8567 18.0717,18.8 17.575,18.76 C17.0783,18.72 16.56,18.7 16.02,18.7 C15.48,18.7 14.955,18.725 14.445,18.775 C13.935,18.825 13.44,18.8867 12.96,18.96 L12.96,18.72 C13.1333,18.6467 13.3083,18.5783 13.485,18.515 C13.6617,18.4517 13.8467,18.3967 14.04,18.35 L14.04,17.71 L12.96,17.71 L13.66,16.76 L13.32,16.76 L13.33,16.75 L13.35,16.72 C13.3567,16.7067 13.3633,16.695 13.37,16.685 C13.3767,16.675 13.3867,16.6633 13.4,16.65 L13.47,16.55 C13.4833,16.53 13.5,16.5067 13.52,16.48 C13.54,16.4533 13.56,16.4233 13.58,16.39 L13.73,16.17 C13.7633,16.13 13.7967,16.085 13.83,16.035 C13.8633,15.985 13.9,15.9333 13.94,15.88 L13.66,15.88 L13.67,15.87 C13.67,15.87 13.6733,15.8667 13.68,15.86 L13.69,15.84 C13.69,15.84 13.6967,15.8333 13.71,15.82 L13.73,15.78 C13.7367,15.7733 13.7417,15.7667 13.745,15.76 C13.7483,15.7533 13.7533,15.7467 13.76,15.74 L13.8,15.68 C13.8133,15.6667 13.8217,15.6567 13.825,15.65 C13.8283,15.6433 13.8367,15.6333 13.85,15.62 L13.91,15.54 C13.9367,15.5 13.96,15.47 13.98,15.45 L14.06,15.34 C14.0733,15.32 14.0883,15.3 14.105,15.28 C14.1217,15.26 14.1367,15.2367 14.15,15.21 L14.25,15.07 L14.26,15.07 L14.26,15.08 C14.2667,15.0867 14.27,15.0917 14.27,15.095 C14.27,15.0983 14.2733,15.1033 14.28,15.11 L14.33,15.17 C14.3367,15.1833 14.345,15.1983 14.355,15.215 C14.365,15.2317 14.3767,15.25 14.39,15.27 L14.5,15.41 C14.52,15.4433 14.5417,15.4767 14.565,15.51 C14.5883,15.5433 14.6133,15.5767 14.64,15.61 L14.83,15.88 L14.55,15.88 C14.55,15.8867 14.5533,15.89 14.56,15.89 L14.57,15.91 C14.5767,15.9167 14.58,15.9217 14.58,15.925 C14.58,15.9283 14.5833,15.9333 14.59,15.94 L14.63,15.99 C14.6433,16.0033 14.6533,16.0167 14.66,16.03 C14.6667,16.0433 14.6767,16.0567 14.69,16.07 L14.78,16.19 C14.7933,16.21 14.81,16.2317 14.83,16.255 C14.85,16.2783 14.87,16.3033 14.89,16.33 L14.89,16.34 L14.88,16.34 L14.88,16.35 L14.87,16.36 C14.87,16.36 14.8667,16.3633 14.86,16.37 L14.85,16.39 C14.85,16.39 14.8467,16.3967 14.84,16.41 L14.82,16.43 C14.8133,16.4367 14.81,16.4417 14.81,16.445 C14.81,16.4483 14.8067,16.4533 14.8,16.46 L14.77,16.5 C14.7567,16.5133 14.7467,16.5267 14.74,16.54 L14.71,16.58 C14.6967,16.6067 14.6833,16.6267 14.67,16.64 L15.09,16.64 C15.09,16.64 15.0867,16.6433 15.08,16.65 L15.05,16.69 C15.0367,16.7033 15.0267,16.7167 15.02,16.73 C15.0133,16.7433 15.0033,16.7567 14.99,16.77 L14.9,16.9 C14.88,16.9267 14.86,16.955 14.84,16.985 C14.82,17.015 14.7933,17.05 14.76,17.09 L14.57,17.36 C14.5367,17.4133 14.4983,17.4683 14.455,17.525 C14.4117,17.5817 14.3633,17.6433 14.31,17.71 L14.41,17.71 L14.41,18.27 C14.6433,18.2167 14.8783,18.1783 15.115,18.155 C15.3517,18.1317 15.59,18.1133 15.83,18.1 L15.83,17.62 L14.53,17.62 L15.35,16.51 L14.93,16.51 L15.67,15.48 L15.35,15.48 L16.02,14.53 L16.72,15.48 L16.38,15.48 L17.14,16.51 L16.72,16.51 L17.54,17.62 L16.22,17.62 L16.22,18.1 C16.4733,18.1133 16.7183,18.13 16.955,18.15 C17.1917,18.17 17.42,18.2033 17.64,18.25 L17.64,17.71 L17.76,17.71 L17.75,17.71 L17.74,17.69 C17.74,17.6833 17.73,17.67 17.71,17.65 L17.66,17.58 C17.6467,17.56 17.6317,17.54 17.615,17.52 C17.5983,17.5 17.5833,17.4767 17.57,17.45 L17.43,17.26 C17.3967,17.22 17.365,17.1783 17.335,17.135 C17.305,17.0917 17.2733,17.0433 17.24,16.99 L16.98,16.64 L17.4,16.64 L17.22,16.4 L17.22,16.39 L17.23,16.39 C17.23,16.3833 17.24,16.37 17.26,16.35 C17.26,16.3433 17.2617,16.3383 17.265,16.335 C17.2683,16.3317 17.27,16.3267 17.27,16.32 C17.2833,16.3067 17.295,16.2917 17.305,16.275 C17.315,16.2583 17.3267,16.24 17.34,16.22 C17.3467,16.2067 17.3533,16.1983 17.36,16.195 C17.3667,16.1917 17.3733,16.1833 17.38,16.17 C17.4067,16.1233 17.4533,16.0567 17.52,15.97 L17.26,15.97 L17.81,15.2 L17.82,15.2 C17.82,15.2 17.8233,15.2067 17.83,15.22 C17.83,15.22 17.8333,15.2267 17.84,15.24 C17.8467,15.2467 17.87,15.2767 17.91,15.33 C17.9233,15.3567 17.9367,15.3767 17.95,15.39 C17.97,15.4167 17.9917,15.4483 18.015,15.485 C18.0383,15.5217 18.0667,15.5633 18.1,15.61 C18.1133,15.6233 18.125,15.64 18.135,15.66 C18.145,15.68 18.1567,15.6967 18.17,15.71 C18.2033,15.75 18.2333,15.79 18.26,15.83 C18.2867,15.87 18.3167,15.9167 18.35,15.97 L18.09,15.97 L18.1,15.98 L18.11,16 C18.1167,16 18.12,16.0033 18.12,16.01 L18.14,16.04 L18.17,16.07 L18.2,16.12 C18.2067,16.1333 18.22,16.15 18.24,16.17 L18.29,16.24 C18.2967,16.2533 18.3033,16.2667 18.31,16.28 C18.3167,16.2933 18.3267,16.3067 18.34,16.32 L18.41,16.42 C18.4233,16.4333 18.4367,16.45 18.45,16.47 C18.4633,16.49 18.4767,16.51 18.49,16.53 L18.58,16.66 C18.6,16.6867 18.6183,16.7117 18.635,16.735 C18.6517,16.7583 18.67,16.7833 18.69,16.81 L18.37,16.81 L18.38,16.81 L18.38,16.82 L18.39,16.83 C18.3967,16.8367 18.4,16.8417 18.4,16.845 C18.4,16.8483 18.4033,16.8533 18.41,16.86 L18.43,16.88 C18.43,16.8933 18.4367,16.9067 18.45,16.92 L18.49,16.97 C18.4967,16.9833 18.5033,16.9933 18.51,17 C18.5167,17.0067 18.5233,17.0167 18.53,17.03 L18.59,17.1 C18.5967,17.1133 18.605,17.1283 18.615,17.145 C18.625,17.1617 18.6367,17.1767 18.65,17.19 L18.72,17.29 L18.81,17.41 L18.91,17.55 C18.93,17.5767 18.95,17.6017 18.97,17.625 C18.99,17.6483 19.01,17.6767 19.03,17.71 L18.03,17.71 L18.03,18.35"/>
</g>

<g fill="none" stroke="none" transform="matrix(1.33333,0,0,1.33333,0,0)"
font-family="MS Shell Dlg 2" font-size="8.25" font-weight="400" font-style="normal" 
>
</g>

<g fill="none" stroke="none" transform="matrix(1,0,0,1,0,0)"
font-family="MS Shell Dlg 2" font-size="8.25" font-weight="400" font-style="normal" 
>
</g>

<g fill="none" stroke="#000000" stroke-opacity="1" stroke-width="1" stroke-linecap="square" stroke-linejoin="bevel" transform="matrix(1,0,0,1,0,0)"
font-family="MS Shell Dlg 2" font-size="8.25" font-weight="400" font-style="normal" 
>
</g>
</g>
</svg>
