<?xml version="1.0" encoding="UTF-8" standalone="no"?>
<svg
   xmlns:dc="http://purl.org/dc/elements/1.1/"
   xmlns:cc="http://creativecommons.org/ns#"
   xmlns:rdf="http://www.w3.org/1999/02/22-rdf-syntax-ns#"
   xmlns:svg="http://www.w3.org/2000/svg"
   xmlns="http://www.w3.org/2000/svg"
   xmlns:sodipodi="http://sodipodi.sourceforge.net/DTD/sodipodi-0.dtd"
   xmlns:inkscape="http://www.inkscape.org/namespaces/inkscape"
   inkscape:version="1.0 (4035a4fb49, 2020-05-01)"
   sodipodi:docname="200k_84.svg"
   id="svg36"
   version="1.2"
   viewBox="0 0 10.88073 10.88073"
   height="3.8384836mm"
   width="3.8384836mm">
  <metadata
     id="metadata40">
    <rdf:RDF>
      <cc:Work
         rdf:about="">
        <dc:format>image/svg+xml</dc:format>
        <dc:type
           rdf:resource="http://purl.org/dc/dcmitype/StillImage" />
      </cc:Work>
    </rdf:RDF>
  </metadata>
  <sodipodi:namedview
     inkscape:current-layer="svg36"
     inkscape:window-maximized="1"
     inkscape:window-y="-9"
     inkscape:window-x="-9"
     inkscape:cy="8.7438738"
     inkscape:cx="12.512572"
     inkscape:zoom="18.047943"
     showgrid="false"
     id="namedview38"
     inkscape:window-height="1013"
     inkscape:window-width="1920"
     inkscape:pageshadow="2"
     inkscape:pageopacity="0"
     guidetolerance="10"
     gridtolerance="10"
     objecttolerance="10"
     borderopacity="1"
     bordercolor="#666666"
     pagecolor="#ffffff" />
  <title
     id="title2">Qt SVG Document</title>
  <desc
     id="desc4">Generated with Qt</desc>
  <defs
     id="defs6" />
  <g
     transform="translate(-10.559628,-10.559628)"
     id="g34"
     stroke-linejoin="bevel"
     stroke-linecap="square"
     fill-rule="evenodd"
     stroke-width="1"
     stroke="#000000"
     fill="none">
    <g
       id="g8"
       font-style="normal"
       font-weight="400"
       font-size="8.25px"
       font-family="'MS Shell Dlg 2'"
       transform="translate(16,16)"
       stroke-linejoin="bevel"
       stroke-linecap="square"
       stroke-width="1"
       stroke-opacity="1"
       stroke="#000000"
       fill="none" />
    <g
       id="g10"
       font-style="normal"
       font-weight="400"
       font-size="8.25px"
       font-family="'MS Shell Dlg 2'"
       transform="matrix(1.33333,0,0,1.33333,16,16)"
       stroke-linejoin="bevel"
       stroke-linecap="square"
       stroke-width="1"
       stroke-opacity="1"
       stroke="#000000"
       fill="none" />
    <g
       id="g14"
       font-style="normal"
       font-weight="400"
       font-size="8.25px"
       font-family="'MS Shell Dlg 2'"
       transform="matrix(0.575773,0,0,0.575773,8.91339,8.91339)"
       stroke="none"
       fill-opacity="1"
       fill="#ffd42a">
      <path
         id="path12"
         d="m 21.6654,12.308 c 0,5.1685 -4.1889,9.3574 -9.3574,9.3574 -5.16852,0 -9.35744,-4.1889 -9.35744,-9.3574 0,-5.16853 4.18892,-9.35744 9.35744,-9.35744 5.1685,0 9.3574,4.18891 9.3574,9.35744"
         fill-rule="nonzero"
         vector-effect="none" />
    </g>
    <g
       id="g18"
       font-style="normal"
       font-weight="400"
       font-size="8.25px"
       font-family="'MS Shell Dlg 2'"
       transform="matrix(0.575773,0,0,0.575773,8.91339,8.91339)"
       stroke-miterlimit="4"
       stroke-linejoin="miter"
       stroke-linecap="butt"
       stroke-width="0.182763"
       stroke-opacity="1"
       stroke="#aa8800"
       fill="none">
      <path
         id="path16"
         d="m 21.6654,12.308 c 0,5.1685 -4.1889,9.3574 -9.3574,9.3574 -5.16852,0 -9.35744,-4.1889 -9.35744,-9.3574 0,-5.16853 4.18892,-9.35744 9.35744,-9.35744 5.1685,0 9.3574,4.18891 9.3574,9.35744"
         fill-rule="nonzero"
         vector-effect="none" />
    </g>
    <g
       id="g22"
       opacity="0.996078"
       font-style="normal"
       font-weight="400"
       font-size="8.25px"
       font-family="'MS Shell Dlg 2'"
       transform="matrix(0.0177979,0,0,0.0177979,11.3752,11.3752)"
       stroke="none"
       fill-opacity="1"
       fill="#333333">
      <path
         id="path20"
         d="m 502.108,352.388 -39.942,-69.18 34.056,-60.99 h -40.436 l -23.778,43.773 h -58.934 l -29.61,-50.852 29.529,-51.577 h 92.588 l -20.392,-35.019 h -71.904 l -39.93,-69.1616 h -99.742 l -39.931,69.1616 h -78.919 l -45.7673,77.916 h 40.7763 l 25.166,-42.897 h 59.037 l 29.529,51.577 -29.61,50.852 h -79.152 l -49.8496,86.342 49.8066,86.999 h 99.392 l 39.761,-69.161 h 59.307 l 29.62,51.087 -29.642,51.342 h -76.053 l 20.04,35.019 h 76.23 l 39.931,-69.162 h 78.919 l 49.904,-86.069 M 313.116,335.152 h -59.264 l -29.663,-51.596 29.599,-50.833 h 59.392 l 29.599,50.833 -29.663,51.596 M 253.831,94.3999 h 59.306 l 29.674,51.3971 -29.717,51.908 H 253.873 L 224.156,145.797 253.831,94.3999 M 193.83,404.314 h -58.828 l -29.717,-51.908 29.674,-51.397 h 58.871 l 29.696,51.653 -29.696,51.652 m 179.096,-0.876 -29.462,-50.813 29.675,-51.616 h 58.869 l 29.642,51.343 -29.621,51.086 h -59.103"
         fill-rule="nonzero"
         vector-effect="none" />
    </g>
    <g
       id="g26"
       font-style="normal"
       font-weight="400"
       font-size="8.25px"
       font-family="'MS Shell Dlg 2'"
       transform="matrix(0.575773,0,0,0.575773,8.91339,8.91339)"
       stroke="none"
       fill-opacity="1"
       fill="#ffdd50">
      <path
         id="path24"
         d="m 19.1783,14.5503 -1.2347,-2.1385 1.0527,-1.8853 h -1.2499 l -0.735,1.3531 h -1.8217 l -0.9153,-1.5719 0.9128,-1.59433 h 2.862 L 17.4188,7.63091 H 15.1962 L 13.9619,5.49304 H 10.8787 L 9.64443,7.63091 H 7.20496 L 5.79023,10.0394 H 7.05068 L 7.82859,8.71337 H 9.6535 l 0.9128,1.59433 -0.91532,1.5719 H 7.20431 l -1.54092,2.6689 1.53959,2.6893 h 3.07232 l 1.2291,-2.1379 h 1.8332 l 0.9156,1.5792 -0.9163,1.587 H 10.986 l 0.6195,1.0825 h 2.3564 l 1.2343,-2.1379 h 2.4395 l 1.5426,-2.6604 m -5.842,-0.5328 h -1.8319 l -0.9169,-1.5949 0.9149,-1.5714 h 1.8359 l 0.9149,1.5714 -0.9169,1.5949 m -1.8326,-7.442 h 1.8332 l 0.9173,1.58873 -0.9186,1.60454 H 11.505 L 10.5864,8.16423 11.5037,6.5755 M 9.64901,16.1553 H 7.83057 L 6.91199,14.5508 7.82924,12.9621 h 1.81977 l 0.91789,1.5966 -0.91789,1.5966 m 5.53609,-0.027 -0.9107,-1.5707 0.9173,-1.5955 h 1.8197 l 0.9163,1.5871 -0.9156,1.5791 h -1.827"
         fill-rule="nonzero"
         vector-effect="none" />
    </g>
    <g
       id="g28"
       font-style="normal"
       font-weight="400"
       font-size="8.25px"
       font-family="'MS Shell Dlg 2'"
       transform="matrix(1.33333,0,0,1.33333,16,16)"
       stroke-linejoin="bevel"
       stroke-linecap="square"
       stroke-width="1"
       stroke-opacity="1"
       stroke="#000000"
       fill="none" />
    <g
       id="g30"
       font-style="normal"
       font-weight="400"
       font-size="8.25px"
       font-family="'MS Shell Dlg 2'"
       transform="translate(16,16)"
       stroke-linejoin="bevel"
       stroke-linecap="square"
       stroke-width="1"
       stroke-opacity="1"
       stroke="#000000"
       fill="none" />
    <g
       id="g32"
       font-style="normal"
       font-weight="400"
       font-size="8.25px"
       font-family="'MS Shell Dlg 2'"
       stroke-linejoin="bevel"
       stroke-linecap="square"
       stroke-width="1"
       stroke-opacity="1"
       stroke="#000000"
       fill="none" />
  </g>
</svg>
