<?xml version="1.0" encoding="UTF-8" standalone="no"?>
<svg
   xmlns:dc="http://purl.org/dc/elements/1.1/"
   xmlns:cc="http://creativecommons.org/ns#"
   xmlns:rdf="http://www.w3.org/1999/02/22-rdf-syntax-ns#"
   xmlns:svg="http://www.w3.org/2000/svg"
   xmlns="http://www.w3.org/2000/svg"
   xmlns:sodipodi="http://sodipodi.sourceforge.net/DTD/sodipodi-0.dtd"
   xmlns:inkscape="http://www.inkscape.org/namespaces/inkscape"
   inkscape:version="1.0 (4035a4fb49, 2020-05-01)"
   sodipodi:docname="200k_34.svg"
   id="svg38"
   version="1.2"
   viewBox="0 0 10.962 10.962"
   height="3.8671539mm"
   width="3.8671539mm">
  <metadata
     id="metadata42">
    <rdf:RDF>
      <cc:Work
         rdf:about="">
        <dc:format>image/svg+xml</dc:format>
        <dc:type
           rdf:resource="http://purl.org/dc/dcmitype/StillImage" />
      </cc:Work>
    </rdf:RDF>
  </metadata>
  <sodipodi:namedview
     inkscape:current-layer="svg38"
     inkscape:window-maximized="1"
     inkscape:window-y="-9"
     inkscape:window-x="-9"
     inkscape:cy="5.832006"
     inkscape:cx="7.4133409"
     inkscape:zoom="18.047943"
     showgrid="false"
     id="namedview40"
     inkscape:window-height="1013"
     inkscape:window-width="1920"
     inkscape:pageshadow="2"
     inkscape:pageopacity="0"
     guidetolerance="10"
     gridtolerance="10"
     objecttolerance="10"
     borderopacity="1"
     bordercolor="#666666"
     pagecolor="#ffffff" />
  <title
     id="title2">Qt SVG Document</title>
  <desc
     id="desc4">Generated with Qt</desc>
  <defs
     id="defs6" />
  <g
     transform="translate(-10.44,-11.626)"
     id="g36"
     stroke-linejoin="bevel"
     stroke-linecap="square"
     fill-rule="evenodd"
     stroke-width="1"
     stroke="#000000"
     fill="none">
    <g
       id="g8"
       font-style="normal"
       font-weight="400"
       font-size="8.25px"
       font-family="'MS Shell Dlg 2'"
       stroke="none"
       fill="none" />
    <g
       id="g10"
       font-style="normal"
       font-weight="400"
       font-size="8.25px"
       font-family="'MS Shell Dlg 2'"
       transform="scale(1.33333)"
       stroke="none"
       fill="none" />
    <g
       id="g14"
       font-style="normal"
       font-weight="400"
       font-size="8.25px"
       font-family="'MS Shell Dlg 2'"
       stroke="none"
       fill-opacity="1"
       fill="#a61215">
      <path
         id="path12"
         d="m 21.402,17.114 c 0,0.756 -0.1423,1.4677 -0.427,2.135 -0.2847,0.6673 -0.6767,1.2483 -1.176,1.743 -0.4993,0.4947 -1.0827,0.8843 -1.75,1.169 -0.6673,0.2847 -1.379,0.427 -2.135,0.427 -0.756,0 -1.4677,-0.1423 -2.135,-0.427 -0.6673,-0.2847 -1.2483,-0.6743 -1.743,-1.169 -0.4947,-0.4947 -0.8843,-1.0757 -1.169,-1.743 -0.2847,-0.6673 -0.427,-1.379 -0.427,-2.135 0,-0.756 0.1423,-1.4677 0.427,-2.135 0.2847,-0.6673 0.6743,-1.2507 1.169,-1.75 0.4947,-0.4993 1.0757,-0.8913 1.743,-1.176 0.6673,-0.2847 1.379,-0.427 2.135,-0.427 0.756,0 1.4677,0.1423 2.135,0.427 0.6673,0.2847 1.2507,0.6767 1.75,1.176 0.4993,0.4993 0.8913,1.0827 1.176,1.75 0.2847,0.6673 0.427,1.379 0.427,2.135"
         fill-rule="evenodd"
         vector-effect="none" />
    </g>
    <g
       id="g16"
       font-style="normal"
       font-weight="400"
       font-size="8.25px"
       font-family="'MS Shell Dlg 2'"
       transform="scale(1.33333)"
       stroke="none"
       fill="none" />
    <g
       id="g18"
       font-style="normal"
       font-weight="400"
       font-size="8.25px"
       font-family="'MS Shell Dlg 2'"
       stroke="none"
       fill="none" />
    <g
       id="g20"
       font-style="normal"
       font-weight="400"
       font-size="8.25px"
       font-family="'MS Shell Dlg 2'"
       stroke-linejoin="bevel"
       stroke-linecap="square"
       stroke-width="1"
       stroke-opacity="1"
       stroke="#000000"
       fill="none" />
    <g
       id="g22"
       font-style="normal"
       font-weight="400"
       font-size="8.25px"
       font-family="'MS Shell Dlg 2'"
       stroke="none"
       fill="none" />
    <g
       id="g24"
       font-style="normal"
       font-weight="400"
       font-size="8.25px"
       font-family="'MS Shell Dlg 2'"
       transform="scale(1.33333)"
       stroke="none"
       fill="none" />
    <g
       id="g28"
       font-style="normal"
       font-weight="400"
       font-size="8.25px"
       font-family="'MS Shell Dlg 2'"
       stroke="none"
       fill-opacity="1"
       fill="#ffffff">
      <path
         id="path26"
         d="m 18.216,16.877 0.41,-0.01 v 2.7 h -1.77 v -0.76 c 0,-0.1067 -0.025,-0.2083 -0.075,-0.305 -0.05,-0.0967 -0.1167,-0.18 -0.2,-0.25 -0.0833,-0.07 -0.1833,-0.125 -0.3,-0.165 -0.1167,-0.04 -0.2417,-0.06 -0.375,-0.06 -0.1267,0 -0.2467,0.02 -0.36,0.06 -0.1133,0.04 -0.2133,0.095 -0.3,0.165 -0.0867,0.07 -0.155,0.1533 -0.205,0.25 -0.05,0.0967 -0.075,0.1983 -0.075,0.305 v 0.76 h -1.77 v -2.69 l 0.41,-0.01 v 0.38 h 0.43 v -0.37 l 0.42,-0.01 v 0.38 h 0.41 v -0.37 l 0.43,-0.01 v 0.38 h 0.41 v -0.37 l 0.41,-0.01 v 0.38 h 0.43 v -0.37 l 0.41,-0.01 v 0.38 h 0.41 v -0.37 l 0.41,-0.01 v 0.38 h 0.44 v -0.37 m -3.54,-1.36 h -0.9 l 0.43,-0.72 v -0.62 h 0.04 v 0.62 l 0.43,0.72 m 3.27,-0.19 v -0.29 h -0.19 v -0.1 h 0.19 v -0.23 h 0.1 v 0.23 h 0.19 v 0.1 h -0.19 v 0.29 l 0.6,0.9 h -1.28 l 0.58,-0.9 m -2.28,-0.92 -1.34,0.17 v -0.33 l 1.34,0.16 m -1.91,1.5 -0.07,-0.12 v -0.19 h 1.07 v 0.19 l -0.04,0.12 h -0.02 v 1.19 h -0.12 v -0.39 l -0.23,0.02 v -0.3358 c 0,-0.0611 -0.01,-0.1138 -0.03,-0.158 -0.02,-0.0441 -0.05,-0.0662 -0.09,-0.0662 -0.0333,0 -0.0617,0.0221 -0.085,0.0662 -0.0233,0.0441 -0.035,0.0967 -0.035,0.1579 v 0.3359 h -0.19 v 0.37 h -0.14 v -1.19 h -0.02 m 4.19,1.13 v -0.37 h -0.45 v -0.34 h 1 v 0.34 h -0.45 v 0.37 h -0.1 m 0.66,-0.73 h -1.2 v -0.04 h 1.2 v 0.04 m -2.12,2.89 c -0.0667,0.0333 -0.1217,0.0783 -0.165,0.135 -0.0433,0.0567 -0.0667,0.1233 -0.07,0.2 -0.0033,0.0767 0.0183,0.1583 0.065,0.245 0.0467,0.0867 0.1233,0.1733 0.23,0.26 h -1.29 c 0.0067,-0.1267 0.0417,-0.25 0.105,-0.37 0.0633,-0.12 0.1483,-0.23 0.255,-0.33 0.1067,-0.1 0.2333,-0.185 0.38,-0.255 0.1467,-0.07 0.31,-0.115 0.49,-0.135 v 0.25"
         fill-rule="evenodd"
         vector-effect="none" />
    </g>
    <g
       id="g30"
       font-style="normal"
       font-weight="400"
       font-size="8.25px"
       font-family="'MS Shell Dlg 2'"
       transform="scale(1.33333)"
       stroke="none"
       fill="none" />
    <g
       id="g32"
       font-style="normal"
       font-weight="400"
       font-size="8.25px"
       font-family="'MS Shell Dlg 2'"
       stroke="none"
       fill="none" />
    <g
       id="g34"
       font-style="normal"
       font-weight="400"
       font-size="8.25px"
       font-family="'MS Shell Dlg 2'"
       stroke-linejoin="bevel"
       stroke-linecap="square"
       stroke-width="1"
       stroke-opacity="1"
       stroke="#000000"
       fill="none" />
  </g>
</svg>
