<?xml version="1.0" encoding="UTF-8" standalone="no"?>
<svg
   xmlns:dc="http://purl.org/dc/elements/1.1/"
   xmlns:cc="http://creativecommons.org/ns#"
   xmlns:rdf="http://www.w3.org/1999/02/22-rdf-syntax-ns#"
   xmlns:svg="http://www.w3.org/2000/svg"
   xmlns="http://www.w3.org/2000/svg"
   xmlns:sodipodi="http://sodipodi.sourceforge.net/DTD/sodipodi-0.dtd"
   xmlns:inkscape="http://www.inkscape.org/namespaces/inkscape"
   inkscape:version="1.0 (4035a4fb49, 2020-05-01)"
   sodipodi:docname="200k_88.svg"
   id="svg20"
   version="1.2"
   viewBox="0 0 10.63 10.63"
   height="3.7500315mm"
   width="3.7500315mm">
  <metadata
     id="metadata24">
    <rdf:RDF>
      <cc:Work
         rdf:about="">
        <dc:format>image/svg+xml</dc:format>
        <dc:type
           rdf:resource="http://purl.org/dc/dcmitype/StillImage" />
      </cc:Work>
    </rdf:RDF>
  </metadata>
  <sodipodi:namedview
     inkscape:current-layer="svg20"
     inkscape:window-maximized="1"
     inkscape:window-y="-9"
     inkscape:window-x="-9"
     inkscape:cy="7.0866739"
     inkscape:cx="7.0866739"
     inkscape:zoom="18.047943"
     showgrid="false"
     id="namedview22"
     inkscape:window-height="1013"
     inkscape:window-width="1920"
     inkscape:pageshadow="2"
     inkscape:pageopacity="0"
     guidetolerance="10"
     gridtolerance="10"
     objecttolerance="10"
     borderopacity="1"
     bordercolor="#666666"
     pagecolor="#ffffff" />
  <title
     id="title2">Qt SVG Document</title>
  <desc
     id="desc4">Generated with Qt</desc>
  <defs
     id="defs6" />
  <g
     transform="translate(-10.685,-10.685)"
     id="g18"
     stroke-linejoin="bevel"
     stroke-linecap="square"
     fill-rule="evenodd"
     stroke-width="1"
     stroke="#000000"
     fill="none">
    <g
       id="g10"
       font-style="normal"
       font-weight="400"
       font-size="8.25px"
       font-family="'MS Shell Dlg 2'"
       stroke="none"
       fill-opacity="1"
       fill="#ef4b65">
      <path
         id="path8"
         d="m 21.315,16 c 0,2.9354 -2.3796,5.315 -5.315,5.315 -2.9354,0 -5.315,-2.3796 -5.315,-5.315 0,-2.9354 2.3796,-5.315 5.315,-5.315 2.9354,0 5.315,2.3796 5.315,5.315"
         fill-rule="evenodd"
         vector-effect="non-scaling-stroke" />
    </g>
    <g
       id="g14"
       font-style="normal"
       font-weight="400"
       font-size="8.25px"
       font-family="'MS Shell Dlg 2'"
       stroke="none"
       fill-opacity="0.94902"
       fill="#ffffff">
      <path
         id="path12"
         d="m 17.06878,19.14078 c 0.0653,0 0.1237,0.0047 0.175,0.014 0.0513,0.0093 0.077,0.0233 0.077,0.042 -0.0187,0.0187 -0.0537,0.0373 -0.105,0.056 -0.0513,0.0187 -0.1097,0.042 -0.175,0.07 -0.0747,0.0373 -0.147,0.07 -0.217,0.098 -0.07,0.028 -0.1237,0.0607 -0.161,0.098 -0.0467,0.028 -0.0793,0.084 -0.098,0.168 -0.0187,0.084 -0.028,0.1633 -0.028,0.238 0,0.1027 0.0047,0.1867 0.014,0.252 0.0093,0.0653 0.014,0.1073 0.014,0.126 -0.0187,0 -0.0793,-0.0513 -0.182,-0.154 -0.0373,-0.0467 -0.0747,-0.1003 -0.112,-0.161 -0.0373,-0.0607 -0.0747,-0.1237 -0.112,-0.189 -0.0187,-0.0467 -0.0397,-0.1097 -0.063,-0.189 -0.0233,-0.0793 -0.035,-0.1517 -0.035,-0.217 -0.0093,-0.0373 -0.014,-0.0723 -0.014,-0.105 0,-0.0327 0,-0.0583 0,-0.077 0,-0.028 0.0047,-0.0513 0.014,-0.07 -0.028,-0.112 -0.0513,-0.2147 -0.07,-0.308 -0.0187,-0.0933 -0.0373,-0.182 -0.056,-0.266 -0.0187,-0.0747 -0.0373,-0.1447 -0.056,-0.21 -0.0187,-0.0653 -0.0513,-0.1307 -0.098,-0.196 -0.0187,-0.028 -0.035,-0.0583 -0.049,-0.091 -0.014,-0.0327 -0.0397,-0.063 -0.077,-0.091 l -0.028,-0.042 -0.028,-0.028 h -0.042 v -0.028 l -0.028,-0.028 -0.056,-0.07 c -0.0653,-0.0653 -0.1377,-0.1283 -0.217,-0.189 -0.0793,-0.0607 -0.1563,-0.1143 -0.231,-0.161 -0.0747,-0.028 -0.1587,-0.0653 -0.252,-0.112 -0.0933,-0.0467 -0.1867,-0.0933 -0.28,-0.14 -0.112,-0.028 -0.2217,-0.0677 -0.329,-0.119 -0.1073,-0.0513 -0.1983,-0.1143 -0.273,-0.189 h -0.028 c 0,-0.0187 0.0373,-0.028 0.112,-0.028 0.0747,0 0.154,0 0.238,0 0.0653,0 0.1283,-0.007 0.189,-0.021 0.0607,-0.014 0.091,-0.0303 0.091,-0.049 -0.0093,0 -0.0233,-0.0047 -0.042,-0.014 l -0.084,-0.042 c -0.0467,-0.0187 -0.1003,-0.035 -0.161,-0.049 -0.0607,-0.014 -0.1143,-0.0303 -0.161,-0.049 -0.0747,-0.028 -0.1353,-0.056 -0.182,-0.084 -0.028,-0.0187 -0.0513,-0.0327 -0.07,-0.042 v -0.028 l 0.028,-0.028 c 0.0093,-0.0093 0.0233,-0.0327 0.042,-0.07 0.028,-0.0187 0.0653,-0.0467 0.112,-0.084 0.0467,-0.0373 0.1027,-0.0747 0.168,-0.112 0.0653,-0.028 0.1447,-0.056 0.238,-0.084 0.0933,-0.028 0.2053,-0.042 0.336,-0.042 0.1027,-0.0187 0.2287,-0.0163 0.378,0.007 0.1493,0.0233 0.3033,0.0863 0.462,0.189 0.1773,0.0747 0.329,0.1703 0.455,0.287 0.126,0.1167 0.2263,0.2403 0.301,0.371 0.0373,0.0653 0.0747,0.1283 0.112,0.189 0.0373,0.0607 0.0653,0.1237 0.084,0.189 0.0187,0.0187 0.028,0.0513 0.028,0.098 0.0187,0.0187 0.0303,0.035 0.035,0.049 0.0047,0.014 0.0163,0.0397 0.035,0.077 0,0.028 0.0047,0.0583 0.014,0.091 0.0093,0.0327 0.014,0.063 0.014,0.091 0.0187,0.084 0.0327,0.1587 0.042,0.224 0.0093,0.0653 0.014,0.1307 0.014,0.196 0,0.0747 -0.0047,0.1447 -0.014,0.21 -0.0093,0.0653 -0.014,0.1213 -0.014,0.168 -0.0187,0.1307 -0.0327,0.238 -0.042,0.322 -0.0093,0.084 -0.0047,0.1633 0.014,0.238 0.0093,0 0.028,0.0047 0.056,0.014 0.0187,0.0093 0.0397,0.0187 0.063,0.028 0.0233,0.0093 0.0443,0.0187 0.063,0.028 0.0467,0.0187 0.0933,0.028 0.14,0.028 0.0467,0 0.084,0 0.112,0 m -2.142,-2.674 c 0.0187,-0.0467 0.014,-0.091 -0.014,-0.133 -0.028,-0.042 -0.0653,-0.0723 -0.112,-0.091 0.0653,0.028 0.098,0.0793 0.098,0.154 -0.0653,-0.0187 -0.1237,-0.0327 -0.175,-0.042 -0.0513,-0.0093 -0.1097,-0.014 -0.175,-0.014 0,-0.0373 0.014,-0.0677 0.042,-0.091 0.028,-0.0233 0.056,-0.035 0.084,-0.035 -0.0653,0 -0.112,0.0163 -0.14,0.049 -0.028,0.0327 -0.042,0.0677 -0.042,0.105 0,0.14 0.0607,0.224 0.182,0.252 0.1307,0 0.2147,-0.0513 0.252,-0.154 m 1.428,2.52 c 0.0187,0.0653 0.0537,0.126 0.105,0.182 0.0513,0.056 0.1003,0.1073 0.147,0.154 -0.0467,-0.0467 -0.0817,-0.098 -0.105,-0.154 -0.0233,-0.056 -0.0443,-0.1167 -0.063,-0.182 -0.0187,-0.0653 -0.0233,-0.1283 -0.014,-0.189 0.0093,-0.0607 0.014,-0.1143 0.014,-0.161 0,-0.0653 0.0047,-0.133 0.014,-0.203 0.0093,-0.07 0.0047,-0.1377 -0.014,-0.203 0,-0.0653 0.0047,-0.14 0.014,-0.224 0.0093,-0.084 -0.0047,-0.1493 -0.042,-0.196 -0.028,-0.1307 -0.0793,-0.2777 -0.154,-0.441 -0.0747,-0.1633 -0.1493,-0.2963 -0.224,-0.399 -0.0747,-0.1027 -0.1657,-0.2123 -0.273,-0.329 -0.1073,-0.1167 -0.2263,-0.1983 -0.357,-0.245 l -0.252,0.476 c 0.112,0.0467 0.2217,0.1027 0.329,0.168 0.1073,0.0653 0.1983,0.1447 0.273,0.238 0.0747,0.1027 0.1493,0.2007 0.224,0.294 0.0747,0.0933 0.1353,0.2053 0.182,0.336 0.0187,0.0467 0.035,0.1003 0.049,0.161 0.014,0.0607 0.0303,0.1237 0.049,0.189 0,0.0467 0.0047,0.1003 0.014,0.161 0.0093,0.0607 0.014,0.1237 0.014,0.189 0,0.112 0.0233,0.238 0.07,0.378 m 3.682,-2.114 c 0.14,-0.0187 0.259,-0.0257 0.357,-0.021 0.098,0.0047 0.147,0.021 0.147,0.049 0,0.0187 -0.0467,0.063 -0.14,0.133 -0.0933,0.07 -0.196,0.1423 -0.308,0.217 -0.0653,0.0467 -0.133,0.091 -0.203,0.133 -0.07,0.042 -0.1283,0.0817 -0.175,0.119 -0.1307,0.1027 -0.2147,0.1867 -0.252,0.252 -0.028,0.0467 -0.0443,0.1027 -0.049,0.168 -0.0047,0.0653 -0.007,0.1353 -0.007,0.21 0.0187,0.0747 0.035,0.1517 0.049,0.231 0.014,0.0793 0.0397,0.161 0.077,0.245 0.0653,0.1587 0.1237,0.2917 0.175,0.399 0.0513,0.1073 0.0677,0.1703 0.049,0.189 0,0.0187 -0.0397,0.014 -0.119,-0.014 -0.0793,-0.028 -0.1657,-0.0747 -0.259,-0.14 -0.2427,-0.14 -0.4433,-0.308 -0.602,-0.504 -0.0747,-0.0747 -0.1563,-0.175 -0.245,-0.301 -0.0887,-0.126 -0.1657,-0.245 -0.231,-0.357 -0.0373,-0.0653 -0.0653,-0.1237 -0.084,-0.175 -0.0187,-0.0513 -0.0373,-0.1003 -0.056,-0.147 l -0.042,-0.126 c -0.0653,-0.0933 -0.1237,-0.1797 -0.175,-0.259 -0.0513,-0.0793 -0.1003,-0.1703 -0.147,-0.273 -0.0467,-0.0747 -0.0933,-0.1517 -0.14,-0.231 -0.0467,-0.0793 -0.0933,-0.161 -0.14,-0.245 -0.14,-0.2613 -0.3407,-0.4993 -0.602,-0.714 -0.2147,-0.1867 -0.5087,-0.378 -0.882,-0.574 -0.1867,-0.0933 -0.3757,-0.1843 -0.567,-0.273 -0.1913,-0.0887 -0.3897,-0.1657 -0.595,-0.231 -0.2053,-0.0467 -0.413,-0.0863 -0.623,-0.119 -0.21,-0.0327 -0.4363,-0.0677 -0.679,-0.105 -0.2333,-0.028 -0.4643,-0.0583 -0.693,-0.091 -0.2287,-0.0327 -0.4457,-0.0957 -0.651,-0.189 -0.0187,-0.0187 0.0443,-0.049 0.189,-0.091 0.1447,-0.042 0.2917,-0.0863 0.441,-0.133 0.14,-0.0467 0.273,-0.091 0.399,-0.133 0.126,-0.042 0.1797,-0.0723 0.161,-0.091 0,-0.0373 -0.1027,-0.056 -0.308,-0.056 -0.1027,-0.0187 -0.21,-0.0303 -0.322,-0.035 -0.112,-0.0047 -0.2147,-0.0163 -0.308,-0.035 -0.1867,0 -0.3337,-0.0093 -0.441,-0.028 -0.1073,-0.0187 -0.161,-0.0373 -0.161,-0.056 v -0.042 c 0.0093,-0.0093 0.0187,-0.0233 0.028,-0.042 0.0187,-0.028 0.0513,-0.0747 0.098,-0.14 0.0467,-0.0653 0.105,-0.1423 0.175,-0.231 0.07,-0.0887 0.1563,-0.1703 0.259,-0.245 0.1307,-0.0933 0.2777,-0.1867 0.441,-0.28 0.1633,-0.0933 0.3663,-0.1773 0.609,-0.252 0.1027,-0.0373 0.224,-0.063 0.364,-0.077 0.14,-0.014 0.28,-0.0303 0.42,-0.049 0.1587,0 0.3173,0.0047 0.476,0.014 0.1587,0.0093 0.3267,0.0373 0.504,0.084 0.1773,0.028 0.3477,0.0723 0.511,0.133 0.1633,0.0607 0.3197,0.1283 0.469,0.203 0.14,0.084 0.273,0.1657 0.399,0.245 0.126,0.0793 0.245,0.1657 0.357,0.259 0.0653,0.0467 0.1213,0.0957 0.168,0.147 0.0467,0.0513 0.1027,0.1003 0.168,0.147 l 0.07,0.084 0.028,0.042 0.028,0.028 c 0.0373,0.028 0.07,0.056 0.098,0.084 0.028,0.028 0.0513,0.0513 0.07,0.07 0.0933,0.112 0.1797,0.224 0.259,0.336 0.0793,0.112 0.161,0.2333 0.245,0.364 0.0653,0.112 0.126,0.2287 0.182,0.35 0.056,0.1213 0.1073,0.2473 0.154,0.378 0.0467,0.1307 0.0887,0.2567 0.126,0.378 0.0373,0.1213 0.07,0.2333 0.098,0.336 0.0373,0.112 0.0653,0.2217 0.084,0.329 0.0187,0.1073 0.042,0.2077 0.07,0.301 0.0373,0.084 0.0723,0.1633 0.105,0.238 0.0327,0.0747 0.0817,0.1447 0.147,0.21 0.0373,0.0093 0.0747,0.0187 0.112,0.028 0.0373,0.0093 0.077,0.0163 0.119,0.021 0.042,0.0047 0.091,0.007 0.147,0.007 0.1027,0 0.2053,-0.0047 0.308,-0.014 0.1027,-0.0093 0.1913,-0.0233 0.266,-0.042 m -6.02,-3.724 c 0.084,-0.084 0.126,-0.1773 0.126,-0.28 0,-0.0747 -0.0303,-0.147 -0.091,-0.217 -0.0607,-0.07 -0.147,-0.1143 -0.259,-0.133 0.168,0.028 0.252,0.112 0.252,0.252 -0.1307,0 -0.2567,0.007 -0.378,0.021 -0.1213,0.014 -0.238,0.0303 -0.35,0.049 -0.0187,-0.0653 -0.007,-0.1213 0.035,-0.168 0.042,-0.0467 0.0957,-0.0887 0.161,-0.126 -0.2333,0.0747 -0.3267,0.2007 -0.28,0.378 0.0187,0.112 0.0747,0.1983 0.168,0.259 0.0933,0.0607 0.1913,0.091 0.294,0.091 0.1307,-0.028 0.238,-0.07 0.322,-0.126 m 0.756,0.378 c 0.532,0.1027 0.98,0.266 1.344,0.49 0.364,0.224 0.6697,0.4737 0.917,0.749 0.2473,0.2753 0.4573,0.5647 0.63,0.868 0.1727,0.3033 0.336,0.588 0.49,0.854 0.154,0.266 0.3197,0.4947 0.497,0.686 0.1773,0.1913 0.3967,0.3197 0.658,0.385 -0.2333,-0.1307 -0.4247,-0.3127 -0.574,-0.546 -0.1493,-0.2333 -0.287,-0.497 -0.413,-0.791 -0.126,-0.294 -0.2613,-0.5997 -0.406,-0.917 -0.1447,-0.3173 -0.336,-0.6277 -0.574,-0.931 -0.238,-0.3033 -0.5343,-0.581 -0.889,-0.833 -0.3547,-0.252 -0.8073,-0.4573 -1.358,-0.616 l -0.322,0.602 m 0.406,-0.784 c 0.532,0.1027 0.9847,0.2893 1.358,0.56 0.3733,0.2707 0.6883,0.5763 0.945,0.917 0.2567,0.3407 0.469,0.6953 0.637,1.064 0.168,0.3687 0.3173,0.7047 0.448,1.008 0.1307,0.3033 0.2567,0.5507 0.378,0.742 0.1213,0.1913 0.266,0.2823 0.434,0.273 -0.1773,-0.0467 -0.322,-0.175 -0.434,-0.385 -0.112,-0.21 -0.2217,-0.4643 -0.329,-0.763 -0.1073,-0.2987 -0.2333,-0.623 -0.378,-0.973 -0.1447,-0.35 -0.3383,-0.6953 -0.581,-1.036 -0.2427,-0.3407 -0.5553,-0.6557 -0.938,-0.945 -0.3827,-0.2893 -0.8633,-0.518 -1.442,-0.686 l -0.098,0.224"
         fill-rule="evenodd"
         vector-effect="none" />
    </g>
    <g
       id="g16"
       font-style="normal"
       font-weight="400"
       font-size="8.25px"
       font-family="'MS Shell Dlg 2'"
       stroke="none"
       fill-opacity="0.94902"
       fill="#ffffff" />
  </g>
</svg>
