<?xml version="1.0" encoding="UTF-8" standalone="no"?>
<svg
   xmlns:dc="http://purl.org/dc/elements/1.1/"
   xmlns:cc="http://creativecommons.org/ns#"
   xmlns:rdf="http://www.w3.org/1999/02/22-rdf-syntax-ns#"
   xmlns:svg="http://www.w3.org/2000/svg"
   xmlns="http://www.w3.org/2000/svg"
   xmlns:sodipodi="http://sodipodi.sourceforge.net/DTD/sodipodi-0.dtd"
   xmlns:inkscape="http://www.inkscape.org/namespaces/inkscape"
   width="4.00001mm"
   height="4.00001mm"
   viewBox="0 0 11.3386 11.3386"
   version="1.2"
   id="svg20"
   sodipodi:docname="200k_82.svg"
   inkscape:version="1.0 (4035a4fb49, 2020-05-01)">
  <metadata
     id="metadata24">
    <rdf:RDF>
      <cc:Work
         rdf:about="">
        <dc:format>image/svg+xml</dc:format>
        <dc:type
           rdf:resource="http://purl.org/dc/dcmitype/StillImage" />
      </cc:Work>
    </rdf:RDF>
  </metadata>
  <sodipodi:namedview
     inkscape:document-rotation="0"
     pagecolor="#ffffff"
     bordercolor="#666666"
     borderopacity="1"
     objecttolerance="10"
     gridtolerance="10"
     guidetolerance="10"
     inkscape:pageopacity="0"
     inkscape:pageshadow="2"
     inkscape:window-width="1920"
     inkscape:window-height="1013"
     id="namedview22"
     showgrid="false"
     inkscape:zoom="17.308751"
     inkscape:cx="6.3818221"
     inkscape:cy="10.450071"
     inkscape:window-x="-9"
     inkscape:window-y="-9"
     inkscape:window-maximized="1"
     inkscape:current-layer="svg20" />
  <title
     id="title2">Qt SVG Document</title>
  <desc
     id="desc4">Generated with Qt</desc>
  <defs
     id="defs6" />
  <g
     fill="none"
     stroke="#000000"
     stroke-width="1"
     fill-rule="evenodd"
     stroke-linecap="square"
     stroke-linejoin="bevel"
     id="g18"
     transform="translate(-10.3307,-10.3307)">
    <g
       fill="#a61215"
       fill-opacity="1"
       stroke="none"
       font-family="'MS Shell Dlg 2'"
       font-size="8.25px"
       font-weight="400"
       font-style="normal"
       id="g10">
      <path
         vector-effect="non-scaling-stroke"
         fill-rule="evenodd"
         d="m 21.6693,16 c 0,3.1311 -2.5382,5.6693 -5.6693,5.6693 -3.1311,0 -5.6693,-2.5382 -5.6693,-5.6693 0,-3.1311 2.5382,-5.6693 5.6693,-5.6693 3.1311,0 5.6693,2.5382 5.6693,5.6693"
         id="path8" />
    </g>
    <g
       fill="#ffffff"
       fill-opacity="0.94902"
       stroke="none"
       font-family="'MS Shell Dlg 2'"
       font-size="8.25px"
       font-weight="400"
       font-style="normal"
       id="g14">
      <path
         vector-effect="none"
         fill-rule="evenodd"
         d="m 16.965,13.875 c 0.0067,0.0067 0.01,0.0117 0.01,0.015 0,0.0033 -0.0033,0.0017 -0.01,-0.005 v -0.01 m 1.85,4.26 c 0.0467,0.04 0.07,0.12 0.07,0.24 0,0.0733 -0.02,0.1417 -0.06,0.205 -0.04,0.0633 -0.0867,0.095 -0.14,0.095 h -1.83 l -3.28,0.09 c -0.0133,0 -0.035,-0.005 -0.065,-0.015 -0.03,-0.01 -0.06,-0.02 -0.09,-0.03 -0.03,-0.01 -0.0583,-0.02 -0.085,-0.03 -0.0267,-0.01 -0.0433,-0.015 -0.05,-0.015 -0.0333,0 -0.0617,-0.0167 -0.085,-0.05 -0.0233,-0.0333 -0.035,-0.0667 -0.035,-0.1 0,-0.0067 0.0283,-0.0133 0.085,-0.02 0.0567,-0.0067 0.12,-0.015 0.19,-0.025 0.07,-0.01 0.135,-0.0183 0.195,-0.025 0.06,-0.0067 0.09,-0.0133 0.09,-0.02 -0.0067,-0.0067 -0.0417,-0.01 -0.105,-0.01 -0.0633,0 -0.1333,0 -0.21,0 -0.0767,0 -0.145,-0.0033 -0.205,-0.01 -0.06,-0.0067 -0.09,-0.02 -0.09,-0.04 0,-0.0933 0.0233,-0.1783 0.07,-0.255 0.0467,-0.0767 0.0967,-0.115 0.15,-0.115 l 2.68,-0.07 c -0.0067,0 -0.0767,-0.0017 -0.21,-0.005 -0.1333,-0.0033 -0.3,-0.0067 -0.5,-0.01 -0.2,-0.0033 -0.4167,-0.0067 -0.65,-0.01 -0.2333,-0.0033 -0.4483,-0.0067 -0.645,-0.01 -0.1967,-0.0033 -0.3617,-0.0083 -0.495,-0.015 -0.1333,-0.0067 -0.2,-0.0167 -0.2,-0.03 0,-0.0333 0.0033,-0.0617 0.01,-0.085 0.0067,-0.0233 0.0167,-0.045 0.03,-0.065 -0.0267,-0.0267 -0.04,-0.0633 -0.04,-0.11 0,-0.08 0.0433,-0.13 0.13,-0.15 l 0.45,-0.05 c 0,-0.0067 -0.025,-0.0117 -0.075,-0.015 -0.05,-0.0033 -0.105,-0.0067 -0.165,-0.01 -0.06,-0.0033 -0.115,-0.0067 -0.165,-0.01 -0.05,-0.0033 -0.075,-0.0117 -0.075,-0.025 0,-0.0533 0.0067,-0.1067 0.02,-0.16 0.0133,-0.0533 0.03,-0.0867 0.05,-0.1 -0.0133,-0.0333 -0.0233,-0.0667 -0.03,-0.1 -0.0067,-0.0333 -0.01,-0.07 -0.01,-0.11 0,-0.1267 0.0333,-0.2133 0.1,-0.26 v -0.11 c 0,-0.0467 0.005,-0.0867 0.015,-0.12 0.01,-0.0333 0.0217,-0.0667 0.035,-0.1 l 0.52,-0.06 -0.48,-0.02 c -0.0133,-0.0333 -0.02,-0.0933 -0.02,-0.18 0,-0.0933 0.02,-0.17 0.06,-0.23 -0.0533,0.0267 -0.0967,0.04 -0.13,0.04 -0.0867,0 -0.15,-0.0367 -0.19,-0.11 h -0.04 v -0.06 c -0.0333,-0.0533 -0.05,-0.1067 -0.05,-0.16 0,-0.0333 0.0167,-0.0733 0.05,-0.12 v -0.29 h 0.15 c 0.0133,-0.04 0.0333,-0.075 0.06,-0.105 0.0267,-0.03 0.0567,-0.045 0.09,-0.045 0.0067,0 0.0167,0.0067 0.03,0.02 l 0.01,0.01 v -0.11 h -0.04 c 0,-0.0267 0.025,-0.0417 0.075,-0.045 0.05,-0.0033 0.1117,-0.005 0.185,-0.005 h 0.75 c -0.0067,-0.0067 -0.0467,-0.0133 -0.12,-0.02 -0.0733,-0.0067 -0.1517,-0.015 -0.235,-0.025 -0.0833,-0.01 -0.16,-0.0183 -0.23,-0.025 -0.07,-0.0067 -0.105,-0.0167 -0.105,-0.03 0,-0.0467 0.0183,-0.085 0.055,-0.115 0.0367,-0.03 0.0783,-0.045 0.125,-0.045 0.0267,0 0.0467,0.01 0.06,0.03 0.0133,-0.0067 0.0133,-0.015 0,-0.025 -0.0133,-0.01 -0.0317,-0.02 -0.055,-0.03 -0.0233,-0.01 -0.0417,-0.0183 -0.055,-0.025 -0.0133,-0.0067 -0.0133,-0.01 0,-0.01 l 0.28,0.06 v -0.17 -0.02 c 0.0467,-0.04 0.1267,-0.06 0.24,-0.06 0.0067,0 0.0367,-0.0033 0.09,-0.01 0.0533,-0.0067 0.1133,-0.0117 0.18,-0.015 0.0667,-0.0033 0.1267,-0.0083 0.18,-0.015 0.0533,-0.0067 0.0833,-0.01 0.09,-0.01 l -0.84,-0.04 c 0,-0.02 0.0317,-0.045 0.095,-0.075 0.0633,-0.03 0.1017,-0.055 0.115,-0.075 v -0.04 h 0.35 v -0.24 l 0.86,-0.02 c 0.0067,0 -0.0083,-0.0017 -0.045,-0.005 -0.0367,-0.0033 -0.08,-0.0067 -0.13,-0.01 -0.05,-0.0033 -0.105,-0.0067 -0.165,-0.01 -0.06,-0.0033 -0.11,-0.005 -0.15,-0.005 l 0.17,-0.1 0.3,-0.03 c 0,-0.0067 -0.0167,-0.0133 -0.05,-0.02 -0.0333,-0.0067 -0.07,-0.0133 -0.11,-0.02 -0.04,-0.0067 -0.0767,-0.0133 -0.11,-0.02 -0.0333,-0.0067 -0.05,-0.0133 -0.05,-0.02 0,-0.0333 0.0267,-0.05 0.08,-0.05 0.0533,0 0.09,-0.0133 0.11,-0.04 v -0.11 h 0.35 c 0.0333,-0.02 0.07,-0.0383 0.11,-0.055 0.04,-0.0167 0.08,-0.025 0.12,-0.025 0.08,0 0.1483,0.0183 0.205,0.055 0.0567,0.0367 0.085,0.0883 0.085,0.155 0,0.04 -0.0233,0.0833 -0.07,0.13 h 0.07 c 0.0667,0 0.1167,0.0067 0.15,0.02 0.0133,-0.0133 0.0267,-0.02 0.04,-0.02 0.0133,0 0.0267,0 0.04,0 0.0533,0 0.1033,0.02 0.15,0.06 0.0467,0.04 0.07,0.0933 0.07,0.16 0.0133,0.0133 0.015,0.0183 0.005,0.015 -0.01,-0.0033 -0.0233,-0.005 -0.04,-0.005 -0.0167,0 -0.0333,0 -0.05,0 -0.0167,0 -0.025,0.0033 -0.025,0.01 0.06,0 0.1167,0.0133 0.17,0.04 h 0.03 v 0.02 c -0.0333,-0.0133 -0.05,-0.01 -0.05,0.01 0,0.0267 -0.0133,0.0533 -0.04,0.08 0.0133,0.0133 0.02,0.03 0.02,0.05 0,0.02 0,0.04 0,0.06 l 0.11,-0.06 v 0.04 c 0.0133,0.0067 0.0433,0.0183 0.09,0.035 0.0467,0.0167 0.095,0.035 0.145,0.055 0.05,0.02 0.095,0.0417 0.135,0.065 0.04,0.0233 0.06,0.0417 0.06,0.055 0,0.0133 -0.045,0.0217 -0.135,0.025 -0.09,0.0033 -0.1883,0.0083 -0.295,0.015 -0.1267,0.0067 -0.27,0.01 -0.43,0.01 0.0067,0.0067 0.0567,0.0133 0.15,0.02 0.0933,0.0067 0.1967,0.015 0.31,0.025 0.1133,0.01 0.2183,0.02 0.315,0.03 0.0967,0.01 0.1483,0.0217 0.155,0.035 h 0.12 c 0.0133,0 0.0383,0.015 0.075,0.045 0.0367,0.03 0.055,0.055 0.055,0.075 h 0.09 c 0.0667,0 0.1233,0.015 0.17,0.045 0.0467,0.03 0.07,0.0683 0.07,0.115 0,0.0267 -0.0067,0.0467 -0.02,0.06 0.0067,0.0067 -0.0333,0.0117 -0.12,0.015 -0.0867,0.0033 -0.1833,0.0067 -0.29,0.01 -0.1067,0.0033 -0.2033,0.0083 -0.29,0.015 -0.0867,0.0067 -0.1267,0.0167 -0.12,0.03 h 0.92 c 0.02,-0.02 0.0633,-0.03 0.13,-0.03 0.0867,0 0.13,0.0167 0.13,0.05 0.0333,0.02 0.05,0.0333 0.05,0.04 0,0.0067 -0.0167,0.02 -0.05,0.04 0.02,0.02 0.03,0.0433 0.03,0.07 v 0.02 c 0.0533,0 0.1017,0.005 0.145,0.015 0.0433,0.01 0.0717,0.025 0.085,0.045 h 0.02 l -0.13,0.54 -0.38,0.07 0.15,0.06 c 0.0267,0 0.05,0.02 0.07,0.06 0.02,0.04 0.0383,0.085 0.055,0.135 0.0167,0.05 0.0283,0.1017 0.035,0.155 0.0067,0.0533 0.01,0.09 0.01,0.11 0,0.02 -0.0033,0.04 -0.01,0.06 -0.0067,0.02 -0.0167,0.0433 -0.03,0.07 0.0133,0.02 0.0233,0.0417 0.03,0.065 0.0067,0.0233 0.01,0.0583 0.01,0.105 0,0.0333 -0.0033,0.0617 -0.01,0.085 -0.0067,0.0233 -0.01,0.045 -0.01,0.065 h 0.02 c 0.0533,0.02 0.0983,0.0667 0.135,0.14 0.0367,0.0733 0.055,0.1567 0.055,0.25 0,0.0533 -0.0083,0.105 -0.025,0.155 -0.0167,0.05 -0.035,0.0917 -0.055,0.125 0.0133,0.0333 0.0233,0.07 0.03,0.11 0.0067,0.04 0.01,0.0833 0.01,0.13 v 0.06 l -0.58,0.07 0.58,0.02 c 0.1,0.0667 0.15,0.18 0.15,0.34 v 0.07 m -1.14,-0.91 c -0.0133,-0.0133 -0.0117,-0.0267 0.005,-0.04 0.0167,-0.0133 0.0367,-0.0283 0.06,-0.045 0.0233,-0.0167 0.0467,-0.0333 0.07,-0.05 0.0233,-0.0167 0.035,-0.035 0.035,-0.055 0,-0.02 -0.01,-0.0417 -0.03,-0.065 -0.02,-0.0233 -0.0417,-0.0483 -0.065,-0.075 -0.0233,-0.0267 -0.0433,-0.0533 -0.06,-0.08 -0.0167,-0.0267 -0.0217,-0.0467 -0.015,-0.06 l -0.09,-0.48 c -0.0133,-0.0067 -0.02,-0.0383 -0.02,-0.095 0,-0.0567 0.005,-0.1167 0.015,-0.18 0.01,-0.0633 0.02,-0.1267 0.03,-0.19 0.01,-0.0633 0.015,-0.1083 0.015,-0.135 0,-0.0133 0.0233,-0.02 0.07,-0.02 0.0467,0 0.1,0 0.16,0 0.06,0 0.1167,-0.0017 0.17,-0.005 0.0533,-0.0033 0.0867,-0.0117 0.1,-0.025 l -0.69,-0.08 C 17.4217,15.525 17.4167,15.5 17.42,15.47 c 0.0033,-0.03 0.01,-0.06 0.02,-0.09 0.01,-0.03 0.0183,-0.0567 0.025,-0.08 0.0067,-0.0233 0.0033,-0.0417 -0.01,-0.055 l -1.08,-0.13 c -0.04,0.02 -0.0967,0.0283 -0.17,0.025 -0.0733,-0.0033 -0.13,-0.005 -0.17,-0.005 -0.1067,0 -0.1933,-0.0167 -0.26,-0.05 l -0.65,0.05 c -0.0133,0.0133 0.005,0.0233 0.055,0.03 0.05,0.0067 0.105,0.0117 0.165,0.015 0.06,0.0033 0.1117,0.0067 0.155,0.01 0.0433,0.0033 0.055,0.005 0.035,0.005 -0.02,0 -0.0767,0.0017 -0.17,0.005 -0.0933,0.0033 -0.1917,0.005 -0.295,0.005 -0.1033,0 -0.1983,-0.0017 -0.285,-0.005 -0.0867,-0.0033 -0.14,-0.0117 -0.16,-0.025 l -0.15,0.24 c 0,0.0067 0.0067,0.025 0.02,0.055 0.0133,0.03 0.0283,0.0633 0.045,0.1 0.0167,0.0367 0.0283,0.0733 0.035,0.11 0.0067,0.0367 0.0033,0.0617 -0.01,0.075 h -0.48 c 0.0067,0.02 0.0333,0.0333 0.08,0.04 0.0467,0.0067 0.0967,0.0133 0.15,0.02 0.0533,0.0067 0.1017,0.015 0.145,0.025 0.0433,0.01 0.065,0.025 0.065,0.045 0,0.1133 -0.0083,0.225 -0.025,0.335 -0.0167,0.11 -0.0517,0.185 -0.105,0.225 l -0.11,0.29 c 0.06,-0.0067 0.1,0.0017 0.12,0.025 0.02,0.0233 0.03,0.0517 0.03,0.085 0,0.04 -0.0067,0.0867 -0.02,0.14 0,0.0333 -0.0267,0.055 -0.08,0.065 -0.0533,0.01 -0.1133,0.0167 -0.18,0.02 -0.0667,0.0033 -0.1283,0.0067 -0.185,0.01 -0.0567,0.0033 -0.0883,0.015 -0.095,0.035 0.0067,0.0133 0.0317,0.0183 0.075,0.015 0.0433,-0.0033 0.09,-0.0067 0.14,-0.01 0.05,-0.0033 0.095,-0.0067 0.135,-0.01 0.04,-0.0033 0.06,-0.0017 0.06,0.005 0,0.0133 0.01,0.0533 0.03,0.12 0.02,0.0667 0.0233,0.1 0.01,0.1 0.02,0 0.0233,0.0067 0.01,0.02 -0.0133,0.0133 -0.03,0.0283 -0.05,0.045 -0.02,0.0167 -0.035,0.0317 -0.045,0.045 -0.01,0.0133 -0.0017,0.02 0.025,0.02 0.0133,0 0.0583,-0.0017 0.135,-0.005 0.0767,-0.0033 0.16,-0.0083 0.25,-0.015 0.09,-0.0067 0.1733,-0.0117 0.25,-0.015 0.0767,-0.0033 0.1217,-0.005 0.135,-0.005 0.02,0 0.0433,-0.0033 0.07,-0.01 0.0267,-0.0067 0.05,-0.01 0.07,-0.01 l -0.03,-0.01 0.02,-0.73 h 0.15 l -0.02,0.75 c 0.02,0 0.0367,0.0033 0.05,0.01 h 0.02 c 0.0333,-0.0133 0.0633,-0.0217 0.09,-0.025 0.0267,-0.0033 0.06,-0.005 0.1,-0.005 0.02,0 0.0333,0.0067 0.04,0.02 0.0067,0.0133 0.0117,0.03 0.015,0.05 0.0033,0.02 0.0083,0.0383 0.015,0.055 0.0067,0.0167 0.02,0.0283 0.04,0.035 l 0.22,0.05 c 0,-0.0067 0,-0.0233 0,-0.05 0,-0.0267 0.0017,-0.075 0.005,-0.145 0.0033,-0.07 0.0067,-0.17 0.01,-0.3 0.0033,-0.13 0.0117,-0.2983 0.025,-0.505 l 0.19,0.06 -0.08,0.54 0.08,0.43 h 0.02 c 0.0333,-0.02 0.0917,-0.0283 0.175,-0.025 0.0833,0.0033 0.155,0.005 0.215,0.005 0.0067,-0.0133 0.0183,-0.095 0.035,-0.245 0.0167,-0.15 0.0417,-0.305 0.075,-0.465 l -0.08,-0.5 0.25,-0.06 0.03,0.67 c 0.0067,0 0.0117,0.0317 0.015,0.095 0.0033,0.0633 0.005,0.1333 0.005,0.21 0,0.0767 0,0.1483 0,0.215 0,0.0667 0,0.1067 0,0.12 h 0.02 c 0.0267,0 0.0683,-0.01 0.125,-0.03 0.0567,-0.02 0.115,-0.0433 0.175,-0.07 0.06,-0.0267 0.1167,-0.05 0.17,-0.07 0.0533,-0.02 0.09,-0.0267 0.11,-0.02 0.0267,-0.02 0.0617,-0.0317 0.105,-0.035 0.0433,-0.0033 0.0817,-0.005 0.115,-0.005 l -0.05,-0.13 c 0,-0.0133 0.005,-0.025 0.015,-0.035 0.01,-0.01 0.0217,-0.0217 0.035,-0.035 m -2.57,-0.95 c 0,-0.0267 0.0083,-0.06 0.025,-0.1 0.0167,-0.04 0.035,-0.0767 0.055,-0.11 0.0267,-0.04 0.0567,-0.0833 0.09,-0.13 0.02,0.0467 0.0433,0.09 0.07,0.13 0.02,0.0333 0.0383,0.07 0.055,0.11 0.0167,0.04 0.025,0.0733 0.025,0.1 0,0.0467 -0.0133,0.0867 -0.04,0.12 -0.0267,0.0333 -0.0633,0.05 -0.11,0.05 -0.0467,0 -0.0867,-0.0167 -0.12,-0.05 -0.0333,-0.0333 -0.05,-0.0733 -0.05,-0.12 m 0.78,0.09 c 0,-0.02 0.0067,-0.045 0.02,-0.075 0.0133,-0.03 0.0267,-0.0617 0.04,-0.095 0.02,-0.0333 0.0433,-0.07 0.07,-0.11 0.02,0.04 0.04,0.0767 0.06,0.11 0.0133,0.0333 0.0267,0.065 0.04,0.095 0.0133,0.03 0.02,0.055 0.02,0.075 0,0.04 -0.0117,0.0783 -0.035,0.115 -0.0233,0.0367 -0.0517,0.055 -0.085,0.055 -0.0467,0 -0.08,-0.0183 -0.1,-0.055 -0.02,-0.0367 -0.03,-0.075 -0.03,-0.115 m 0.62,-0.43 c 0,-0.0333 0.01,-0.0717 0.03,-0.115 0.02,-0.0433 0.0433,-0.085 0.07,-0.125 0.0267,-0.0467 0.06,-0.0967 0.1,-0.15 0.0333,0.0533 0.0633,0.1033 0.09,0.15 0.0267,0.04 0.05,0.0817 0.07,0.125 0.02,0.0433 0.03,0.0817 0.03,0.115 0,0.0533 -0.0183,0.1017 -0.055,0.145 -0.0367,0.0433 -0.0817,0.065 -0.135,0.065 -0.0533,0 -0.1,-0.0217 -0.14,-0.065 -0.04,-0.0433 -0.06,-0.0917 -0.06,-0.145"
         id="path12" />
    </g>
    <g
       fill="#ffffff"
       fill-opacity="0.94902"
       stroke="none"
       font-family="'MS Shell Dlg 2'"
       font-size="8.25px"
       font-weight="400"
       font-style="normal"
       id="g16" />
  </g>
</svg>
