<?xml version="1.0" encoding="UTF-8" standalone="no"?>
<svg width="11.2889mm" height="11.2889mm"
 viewBox="0 0 32 32"
 xmlns="http://www.w3.org/2000/svg" xmlns:xlink="http://www.w3.org/1999/xlink"  version="1.2" baseProfile="tiny">
<title>Qt SVG Document</title>
<desc>Generated with Qt</desc>
<defs>
</defs>
<g fill="none" stroke="black" stroke-width="1" fill-rule="evenodd" stroke-linecap="square" stroke-linejoin="bevel" >

<g fill="none" stroke="none" transform="matrix(1,0,0,1,0,0)"
font-family="MS Shell Dlg 2" font-size="8.25" font-weight="400" font-style="normal" 
>
</g>

<g fill="none" stroke="none" transform="matrix(1.33333,0,0,1.33333,0,0)"
font-family="MS Shell Dlg 2" font-size="8.25" font-weight="400" font-style="normal" 
>
</g>

<g fill="#1a1a1a" fill-opacity="1" stroke="none" transform="matrix(1,0,0,1,0,0)"
font-family="MS Shell Dlg 2" font-size="8.25" font-weight="400" font-style="normal" 
>
<path vector-effect="none" fill-rule="evenodd" d="M21.402,17.114 C21.402,17.87 21.2597,18.5817 20.975,19.249 C20.6903,19.9163 20.2983,20.4973 19.799,20.992 C19.2997,21.4867 18.7163,21.8763 18.049,22.161 C17.3817,22.4457 16.67,22.588 15.914,22.588 C15.158,22.588 14.4463,22.4457 13.779,22.161 C13.1117,21.8763 12.5307,21.4867 12.036,20.992 C11.5413,20.4973 11.1517,19.9163 10.867,19.249 C10.5823,18.5817 10.44,17.87 10.44,17.114 C10.44,16.358 10.5823,15.6463 10.867,14.979 C11.1517,14.3117 11.5413,13.7283 12.036,13.229 C12.5307,12.7297 13.1117,12.3377 13.779,12.053 C14.4463,11.7683 15.158,11.626 15.914,11.626 C16.67,11.626 17.3817,11.7683 18.049,12.053 C18.7163,12.3377 19.2997,12.7297 19.799,13.229 C20.2983,13.7283 20.6903,14.3117 20.975,14.979 C21.2597,15.6463 21.402,16.358 21.402,17.114 "/>
</g>

<g fill="none" stroke="none" transform="matrix(1.33333,0,0,1.33333,0,0)"
font-family="MS Shell Dlg 2" font-size="8.25" font-weight="400" font-style="normal" 
>
</g>

<g fill="none" stroke="none" transform="matrix(1,0,0,1,0,0)"
font-family="MS Shell Dlg 2" font-size="8.25" font-weight="400" font-style="normal" 
>
</g>

<g fill="none" stroke="#000000" stroke-opacity="1" stroke-width="1" stroke-linecap="square" stroke-linejoin="bevel" transform="matrix(1,0,0,1,0,0)"
font-family="MS Shell Dlg 2" font-size="8.25" font-weight="400" font-style="normal" 
>
</g>

<g fill="none" stroke="none" transform="matrix(1,0,0,1,0,0)"
font-family="MS Shell Dlg 2" font-size="8.25" font-weight="400" font-style="normal" 
>
</g>

<g fill="none" stroke="none" transform="matrix(1.33333,0,0,1.33333,0,0)"
font-family="MS Shell Dlg 2" font-size="8.25" font-weight="400" font-style="normal" 
>
</g>

<g fill="#ffffff" fill-opacity="1" stroke="none" transform="matrix(1,0,0,1,0,0)"
font-family="MS Shell Dlg 2" font-size="8.25" font-weight="400" font-style="normal" 
>
<path vector-effect="none" fill-rule="evenodd" d="M18.63,17.63 L18.49,18.53 L18.31,18.3 C18.07,18.6 17.7817,18.86 17.445,19.08 C17.1083,19.3 16.7433,19.4367 16.35,19.49 L16.01,20.28 L15.61,19.49 C15.23,19.4167 14.8733,19.275 14.54,19.065 C14.2067,18.855 13.92,18.6 13.68,18.3 L13.52,18.64 L13.36,17.63 L14.23,18.02 L13.84,18.16 C14.0933,18.4 14.3633,18.585 14.65,18.715 C14.9367,18.845 15.2433,18.9367 15.57,18.99 C15.6167,18.99 15.655,18.9283 15.685,18.805 C15.715,18.6817 15.74,18.485 15.76,18.215 C15.78,17.945 15.795,17.595 15.805,17.165 C15.815,16.735 15.82,16.2133 15.82,15.6 L15.18,15.6 L15.18,15.23 L15.82,15.23 L15.82,14.9984 C15.6933,14.9515 15.585,14.8709 15.495,14.7569 C15.405,14.6428 15.36,14.5153 15.36,14.3742 C15.36,14.1997 15.4217,14.0488 15.545,13.9213 C15.6683,13.7937 15.8233,13.73 16.01,13.73 C16.1833,13.73 16.3333,13.7937 16.46,13.9213 C16.5867,14.0488 16.65,14.1997 16.65,14.3742 C16.65,14.5153 16.605,14.6428 16.515,14.7569 C16.425,14.8709 16.3167,14.9515 16.19,14.9984 L16.19,15.23 L16.83,15.23 L16.83,15.6 L16.19,15.6 C16.19,16.1333 16.1917,16.6083 16.195,17.025 C16.1983,17.4417 16.2067,17.7967 16.22,18.09 C16.2333,18.3833 16.2533,18.6067 16.28,18.76 C16.3067,18.9133 16.3467,18.99 16.4,18.99 C16.72,18.9567 17.0283,18.8733 17.325,18.74 C17.6217,18.6067 17.8967,18.4133 18.15,18.16 L17.83,17.95 L18.63,17.63 M15.73,14.38 C15.73,14.4933 15.7583,14.5767 15.815,14.63 C15.8717,14.6833 15.9317,14.71 15.995,14.71 C16.0583,14.71 16.1183,14.6833 16.175,14.63 C16.2317,14.5767 16.26,14.4933 16.26,14.38 C16.26,14.3 16.235,14.2383 16.185,14.195 C16.135,14.1517 16.0767,14.13 16.01,14.13 C15.8233,14.13 15.73,14.2133 15.73,14.38 "/>
</g>

<g fill="none" stroke="none" transform="matrix(1.33333,0,0,1.33333,0,0)"
font-family="MS Shell Dlg 2" font-size="8.25" font-weight="400" font-style="normal" 
>
</g>

<g fill="none" stroke="none" transform="matrix(1,0,0,1,0,0)"
font-family="MS Shell Dlg 2" font-size="8.25" font-weight="400" font-style="normal" 
>
</g>

<g fill="none" stroke="#000000" stroke-opacity="1" stroke-width="1" stroke-linecap="square" stroke-linejoin="bevel" transform="matrix(1,0,0,1,0,0)"
font-family="MS Shell Dlg 2" font-size="8.25" font-weight="400" font-style="normal" 
>
</g>
</g>
</svg>
