<?xml version="1.0" encoding="UTF-8" standalone="no"?>
<svg
   xmlns:dc="http://purl.org/dc/elements/1.1/"
   xmlns:cc="http://creativecommons.org/ns#"
   xmlns:rdf="http://www.w3.org/1999/02/22-rdf-syntax-ns#"
   xmlns:svg="http://www.w3.org/2000/svg"
   xmlns="http://www.w3.org/2000/svg"
   xmlns:sodipodi="http://sodipodi.sourceforge.net/DTD/sodipodi-0.dtd"
   xmlns:inkscape="http://www.inkscape.org/namespaces/inkscape"
   inkscape:version="1.0 (4035a4fb49, 2020-05-01)"
   sodipodi:docname="200k_26.svg"
   id="svg38"
   version="1.2"
   viewBox="0 0 10.962 10.962"
   height="3.8671539mm"
   width="3.8671539mm">
  <metadata
     id="metadata42">
    <rdf:RDF>
      <cc:Work
         rdf:about="">
        <dc:format>image/svg+xml</dc:format>
        <dc:type
           rdf:resource="http://purl.org/dc/dcmitype/StillImage" />
      </cc:Work>
    </rdf:RDF>
  </metadata>
  <sodipodi:namedview
     inkscape:current-layer="svg38"
     inkscape:window-maximized="1"
     inkscape:window-y="-9"
     inkscape:window-x="-9"
     inkscape:cy="5.832006"
     inkscape:cx="7.4133409"
     inkscape:zoom="18.047943"
     showgrid="false"
     id="namedview40"
     inkscape:window-height="1013"
     inkscape:window-width="1920"
     inkscape:pageshadow="2"
     inkscape:pageopacity="0"
     guidetolerance="10"
     gridtolerance="10"
     objecttolerance="10"
     borderopacity="1"
     bordercolor="#666666"
     pagecolor="#ffffff" />
  <title
     id="title2">Qt SVG Document</title>
  <desc
     id="desc4">Generated with Qt</desc>
  <defs
     id="defs6" />
  <g
     transform="translate(-10.44,-11.626)"
     id="g36"
     stroke-linejoin="bevel"
     stroke-linecap="square"
     fill-rule="evenodd"
     stroke-width="1"
     stroke="#000000"
     fill="none">
    <g
       id="g8"
       font-style="normal"
       font-weight="400"
       font-size="8.25px"
       font-family="'MS Shell Dlg 2'"
       stroke="none"
       fill="none" />
    <g
       id="g10"
       font-style="normal"
       font-weight="400"
       font-size="8.25px"
       font-family="'MS Shell Dlg 2'"
       transform="scale(1.33333)"
       stroke="none"
       fill="none" />
    <g
       id="g14"
       font-style="normal"
       font-weight="400"
       font-size="8.25px"
       font-family="'MS Shell Dlg 2'"
       stroke="none"
       fill-opacity="1"
       fill="#33a02c">
      <path
         id="path12"
         d="m 21.402,17.114 c 0,0.756 -0.1423,1.4677 -0.427,2.135 -0.2847,0.6673 -0.6767,1.2483 -1.176,1.743 -0.4993,0.4947 -1.0827,0.8843 -1.75,1.169 -0.6673,0.2847 -1.379,0.427 -2.135,0.427 -0.756,0 -1.4677,-0.1423 -2.135,-0.427 -0.6673,-0.2847 -1.2483,-0.6743 -1.743,-1.169 -0.4947,-0.4947 -0.8843,-1.0757 -1.169,-1.743 -0.2847,-0.6673 -0.427,-1.379 -0.427,-2.135 0,-0.756 0.1423,-1.4677 0.427,-2.135 0.2847,-0.6673 0.6743,-1.2507 1.169,-1.75 0.4947,-0.4993 1.0757,-0.8913 1.743,-1.176 0.6673,-0.2847 1.379,-0.427 2.135,-0.427 0.756,0 1.4677,0.1423 2.135,0.427 0.6673,0.2847 1.2507,0.6767 1.75,1.176 0.4993,0.4993 0.8913,1.0827 1.176,1.75 0.2847,0.6673 0.427,1.379 0.427,2.135"
         fill-rule="evenodd"
         vector-effect="none" />
    </g>
    <g
       id="g16"
       font-style="normal"
       font-weight="400"
       font-size="8.25px"
       font-family="'MS Shell Dlg 2'"
       transform="scale(1.33333)"
       stroke="none"
       fill="none" />
    <g
       id="g18"
       font-style="normal"
       font-weight="400"
       font-size="8.25px"
       font-family="'MS Shell Dlg 2'"
       stroke="none"
       fill="none" />
    <g
       id="g20"
       font-style="normal"
       font-weight="400"
       font-size="8.25px"
       font-family="'MS Shell Dlg 2'"
       stroke-linejoin="bevel"
       stroke-linecap="square"
       stroke-width="1"
       stroke-opacity="1"
       stroke="#000000"
       fill="none" />
    <g
       id="g22"
       font-style="normal"
       font-weight="400"
       font-size="8.25px"
       font-family="'MS Shell Dlg 2'"
       stroke="none"
       fill="none" />
    <g
       id="g24"
       font-style="normal"
       font-weight="400"
       font-size="8.25px"
       font-family="'MS Shell Dlg 2'"
       transform="scale(1.33333)"
       stroke="none"
       fill="none" />
    <g
       id="g28"
       font-style="normal"
       font-weight="400"
       font-size="8.25px"
       font-family="'MS Shell Dlg 2'"
       stroke="none"
       fill-opacity="1"
       fill="#ffffff">
      <path
         id="path26"
         d="m 17.918127,19.81367 -0.24,0.02 0.38,-0.22 -0.02,0.2 h -0.12 m 0.78,-1.75 c 0.0267,0.0533 0.0067,0.1133 -0.06,0.18 -0.0267,0.0267 -0.0533,0.0467 -0.08,0.06 l -0.06,-0.1 c 0.04,-0.02 0.06,-0.0333 0.06,-0.04 0.0267,-0.0133 0.04,-0.0333 0.04,-0.06 0,-0.0333 -0.0467,-0.04 -0.14,-0.02 h -0.02 l 0.08,0.26 c 0,0.0267 -0.0133,0.0533 -0.04,0.08 h -0.02 c -0.0133,0 -0.0267,-0.0033 -0.04,-0.01 -0.0133,-0.0067 -0.02,-0.0167 -0.02,-0.03 l -0.08,-0.28 c -0.0133,0.0133 -0.0267,0.0233 -0.04,0.03 -0.0133,0.0067 -0.0267,0.0167 -0.04,0.03 -0.0133,0.0133 -0.02,0.0333 -0.02,0.06 0.0067,0.0067 0.0167,0.01 0.03,0.01 0.0133,0.0067 0.0367,0.01 0.07,0.01 l 0.02,0.12 c -0.06,0 -0.1117,-0.01 -0.155,-0.03 -0.0433,-0.02 -0.0717,-0.05 -0.085,-0.09 -0.02,-0.0467 0,-0.1 0.06,-0.16 0.0333,-0.0333 0.08,-0.06 0.14,-0.08 l -0.68,-2.28 -0.79,0.34 c -0.0133,0.0133 -0.0333,0.02 -0.06,0.02 -0.0333,0 -0.0633,-0.0017 -0.09,-0.005 -0.0267,-0.0033 -0.05,-0.015 -0.07,-0.035 l -0.48,-0.3 c -0.1067,0.2067 -0.1983,0.3517 -0.275,0.435 -0.0767,0.0833 -0.135,0.1617 -0.175,0.235 l -0.44,0.16 c -0.06,0.02 -0.1,0.06 -0.12,0.12 h 0.01 c 0,0 0.0033,-0.0067 0.01,-0.02 l 0.89,-0.22 c 0.08,-0.02 0.1533,-0.0067 0.22,0.04 0.0533,0.0533 0.08,0.1267 0.08,0.22 l -0.26,1.53 v 0.04 l 0.08,0.08 c 0.04,-0.04 0.06,-0.08 0.06,-0.12 l 0.32,-1.25 0.28,0.08 c 0.0733,0.0267 0.1267,0.0733 0.16,0.14 0.0267,0.0733 0.02,0.14 -0.02,0.2 l -0.64,1.03 c -0.0133,0 -0.02,0.0067 -0.02,0.02 l 0.06,0.04 1.73,0.71 -0.11,0.08 0.43,-0.2 -0.16,0.2 -0.36,0.04 0.04,-0.02 h -0.04 l -1.05,-0.42 1.03,0.78 -0.18,0.16 -1.53,-1.25 -2.24,-0.92 0.24,-0.04 1.45,0.58 v -0.04 h 0.02 l -0.88,-0.73 0.2,-0.02 0.7,0.55 0.12,-0.69 -0.6,-0.14 c -0.0733,-0.0133 -0.1367,-0.035 -0.19,-0.065 -0.0533,-0.03 -0.09,-0.0817 -0.11,-0.155 -0.02,-0.08 -0.0233,-0.1733 -0.01,-0.28 0.0133,-0.1067 0.0317,-0.2117 0.055,-0.315 0.0233,-0.1033 0.0467,-0.1933 0.07,-0.27 0.0233,-0.0767 0.0383,-0.125 0.045,-0.145 0.0133,-0.0533 0.0233,-0.1 0.03,-0.14 0.0067,-0.04 0.0167,-0.08 0.03,-0.12 l -0.44,0.06 -0.45,0.57 c -0.02,0.02 -0.0433,0.0383 -0.07,0.055 -0.0267,0.0167 -0.0567,0.025 -0.09,0.025 -0.0667,0 -0.12,-0.02 -0.16,-0.06 -0.0533,-0.04 -0.0833,-0.0917 -0.09,-0.155 -0.0067,-0.0633 0.01,-0.1217 0.05,-0.175 l 0.04,-0.04 -0.44,-0.98 h -0.02 c -0.0533,0 -0.1033,-0.01 -0.15,-0.03 -0.0467,-0.02 -0.08,-0.05 -0.1,-0.09 -0.0133,-0.0333 -0.0217,-0.065 -0.025,-0.095 -0.0033,-0.03 0.005,-0.0617 0.025,-0.095 0.02,-0.06 0.0633,-0.1133 0.13,-0.16 0.06,-0.0333 0.1233,-0.04 0.19,-0.02 0.0667,0.02 0.1167,0.06 0.15,0.12 0.02,0.06 0.02,0.12 0,0.18 -0.02,0.0733 -0.0533,0.1167 -0.1,0.13 l 0.42,0.94 0.38,-0.48 c 0.0333,-0.0333 0.08,-0.06 0.14,-0.08 l 0.71,-0.1 c 0.02,0.0533 0.0467,0.1067 0.08,0.16 0.0333,0.06 0.08,0.1083 0.14,0.145 0.06,0.0367 0.1267,0.0617 0.2,0.075 0.02,0.0133 0.0433,0.02 0.07,0.02 0.0267,0 0.0567,0 0.09,0 0.2133,-0.02 0.3633,-0.1267 0.45,-0.32 l 0.56,0.36 0.71,-0.32 c 0.06,-0.0333 0.12,-0.0367 0.18,-0.01 0.06,0.0267 0.1,0.07 0.12,0.13 0.04,0.1067 0.0267,0.1933 -0.04,0.26 l 0.66,2.3 h 0.06 c 0.06,-0.0133 0.1117,-0.01 0.155,0.01 0.0433,0.02 0.0717,0.05 0.085,0.09 m -5.21,-3.28 c 0.0133,-0.0133 0.02,-0.025 0.02,-0.035 0,-0.01 0.0067,-0.0217 0.02,-0.035 v -0.08 c -0.0533,-0.0533 -0.0933,-0.0733 -0.12,-0.06 -0.0267,0 -0.0467,0.0067 -0.06,0.02 -0.0267,0 -0.0533,0.0267 -0.08,0.08 -0.0133,0.0133 -0.0167,0.0267 -0.01,0.04 0.0067,0.0133 0.01,0.0267 0.01,0.04 0.02,0.0467 0.06,0.07 0.12,0.07 l -0.06,-0.13 c 0.04,-0.04 0.0733,-0.06 0.1,-0.06 l 0.06,0.15 m -0.26,-0.31 c -0.0133,-0.02 -0.015,-0.0383 -0.005,-0.055 0.01,-0.0167 0.025,-0.025 0.045,-0.025 0.0133,-0.0133 0.0267,-0.0167 0.04,-0.01 0.0133,0.0067 0.02,0.0167 0.02,0.03 l 0.02,0.02 c -0.0467,0 -0.08,0.02 -0.1,0.06 l -0.02,-0.02 m 2.39,0.97 c -0.12,-0.0333 -0.2117,-0.0967 -0.275,-0.19 -0.0633,-0.0933 -0.085,-0.1967 -0.065,-0.31 0.02,-0.1267 0.08,-0.2217 0.18,-0.285 0.1,-0.0633 0.2067,-0.085 0.32,-0.065 0.1267,0.0333 0.2217,0.0983 0.285,0.195 0.0633,0.0967 0.085,0.2017 0.065,0.315 -0.0333,0.12 -0.0983,0.2117 -0.195,0.275 -0.0967,0.0633 -0.2017,0.085 -0.315,0.065"
         fill-rule="evenodd"
         vector-effect="none" />
    </g>
    <g
       id="g30"
       font-style="normal"
       font-weight="400"
       font-size="8.25px"
       font-family="'MS Shell Dlg 2'"
       transform="scale(1.33333)"
       stroke="none"
       fill="none" />
    <g
       id="g32"
       font-style="normal"
       font-weight="400"
       font-size="8.25px"
       font-family="'MS Shell Dlg 2'"
       stroke="none"
       fill="none" />
    <g
       id="g34"
       font-style="normal"
       font-weight="400"
       font-size="8.25px"
       font-family="'MS Shell Dlg 2'"
       stroke-linejoin="bevel"
       stroke-linecap="square"
       stroke-width="1"
       stroke-opacity="1"
       stroke="#000000"
       fill="none" />
  </g>
</svg>
