<?xml version="1.0" encoding="UTF-8" standalone="no"?>
<svg
   xmlns:dc="http://purl.org/dc/elements/1.1/"
   xmlns:cc="http://creativecommons.org/ns#"
   xmlns:rdf="http://www.w3.org/1999/02/22-rdf-syntax-ns#"
   xmlns:svg="http://www.w3.org/2000/svg"
   xmlns="http://www.w3.org/2000/svg"
   xmlns:sodipodi="http://sodipodi.sourceforge.net/DTD/sodipodi-0.dtd"
   xmlns:inkscape="http://www.inkscape.org/namespaces/inkscape"
   inkscape:version="1.0 (4035a4fb49, 2020-05-01)"
   sodipodi:docname="200k_70.svg"
   id="svg22"
   version="1.2"
   viewBox="0 0 10.962 10.962"
   height="3.8671539mm"
   width="3.8671539mm">
  <metadata
     id="metadata26">
    <rdf:RDF>
      <cc:Work
         rdf:about="">
        <dc:format>image/svg+xml</dc:format>
        <dc:type
           rdf:resource="http://purl.org/dc/dcmitype/StillImage" />
      </cc:Work>
    </rdf:RDF>
  </metadata>
  <sodipodi:namedview
     inkscape:current-layer="g20"
     inkscape:window-maximized="1"
     inkscape:window-y="-9"
     inkscape:window-x="-9"
     inkscape:cy="5.832006"
     inkscape:cx="2.9807029"
     inkscape:zoom="18.047943"
     showgrid="false"
     id="namedview24"
     inkscape:window-height="1013"
     inkscape:window-width="1920"
     inkscape:pageshadow="2"
     inkscape:pageopacity="0"
     guidetolerance="10"
     gridtolerance="10"
     objecttolerance="10"
     borderopacity="1"
     bordercolor="#666666"
     pagecolor="#ffffff" />
  <title
     id="title2">Qt SVG Document</title>
  <desc
     id="desc4">Generated with Qt</desc>
  <defs
     id="defs6" />
  <g
     transform="translate(-10.44,-11.626)"
     id="g20"
     stroke-linejoin="bevel"
     stroke-linecap="square"
     fill-rule="evenodd"
     stroke-width="1"
     stroke="#000000"
     fill="none">
    <g
       id="g10"
       font-style="normal"
       font-weight="400"
       font-size="8.25px"
       font-family="'MS Shell Dlg 2'"
       stroke="none"
       fill-opacity="1"
       fill="#33a02c">
      <path
         id="path8"
         d="m 21.402,17.114 c 0,0.756 -0.1423,1.4677 -0.427,2.135 -0.2847,0.6673 -0.6767,1.2483 -1.176,1.743 -0.4993,0.4947 -1.0827,0.8843 -1.75,1.169 -0.6673,0.2847 -1.379,0.427 -2.135,0.427 -0.756,0 -1.4677,-0.1423 -2.135,-0.427 -0.6673,-0.2847 -1.2483,-0.6743 -1.743,-1.169 -0.4947,-0.4947 -0.8843,-1.0757 -1.169,-1.743 -0.2847,-0.6673 -0.427,-1.379 -0.427,-2.135 0,-0.756 0.1423,-1.4677 0.427,-2.135 0.2847,-0.6673 0.6743,-1.2507 1.169,-1.75 0.4947,-0.4993 1.0757,-0.8913 1.743,-1.176 0.6673,-0.2847 1.379,-0.427 2.135,-0.427 0.756,0 1.4677,0.1423 2.135,0.427 0.6673,0.2847 1.2507,0.6767 1.75,1.176 0.4993,0.4993 0.8913,1.0827 1.176,1.75 0.2847,0.6673 0.427,1.379 0.427,2.135"
         fill-rule="evenodd"
         vector-effect="none" />
    </g>
    <g
       id="g12"
       font-style="normal"
       font-weight="400"
       font-size="8.25px"
       font-family="'MS Shell Dlg 2'"
       stroke="none"
       fill-opacity="1"
       fill="#33a02c" />
    <g
       id="g16"
       font-style="normal"
       font-weight="400"
       font-size="8.25px"
       font-family="'MS Shell Dlg 2'"
       stroke="none"
       fill-opacity="1"
       fill="#ffffff">
      <path
         id="path14"
         d="m 16.7625,15.259 c 0,0.1173 -0.044,0.2182 -0.132,0.3025 -0.088,0.0843 -0.1943,0.1265 -0.319,0.1265 -0.1173,0 -0.22,-0.0422 -0.308,-0.1265 -0.088,-0.0843 -0.132,-0.1852 -0.132,-0.3025 0,-0.1173 0.0458,-0.22 0.1375,-0.308 0.0917,-0.088 0.1962,-0.132 0.3135,-0.132 0.1173,0 0.22,0.044 0.308,0.132 0.088,0.088 0.132,0.1907 0.132,0.308 m 3.355,1.98 c -0.0367,0.638 -0.308,1.1257 -0.814,1.463 -0.506,0.3373 -1.2063,0.506 -2.101,0.506 -0.0367,0 -0.088,-0.0018 -0.154,-0.0055 -0.066,-0.0037 -0.1357,-0.0092 -0.209,-0.0165 -0.0733,-0.0073 -0.1412,-0.0128 -0.2035,-0.0165 -0.0623,-0.0037 -0.1082,-0.0092 -0.1375,-0.0165 l -0.154,0.286 0.099,0.22 c 0,0.0513 -0.0348,0.1448 -0.1045,0.2805 -0.0697,0.1357 -0.1503,0.2695 -0.242,0.4015 -0.0917,0.132 -0.1852,0.2493 -0.2805,0.352 -0.0953,0.1027 -0.1687,0.154 -0.22,0.154 l -0.44,-0.242 0.737,-1.056 0.198,-0.132 0.088,-0.286 -1.507,0.077 h -0.154 c -0.3887,0 -0.7443,-0.0589 -1.067,-0.1767 -1.1513,-0.4489 -1.727,-0.9789 -1.727,-1.5898 0,-0.1032 0.0257,-0.2246 0.077,-0.3644 0.1173,-0.3018 0.319,-0.5373 0.605,-0.7066 0.11,-0.081 0.2457,-0.1215 0.407,-0.1215 0.1687,0 0.3483,0.03 0.539,0.0901 0.3373,0.1051 0.627,0.1878 0.869,0.2479 0.242,0.0601 0.4363,0.1014 0.583,0.124 -0.0587,-0.0513 -0.088,-0.1173 -0.088,-0.198 0,-0.1393 0.1357,-0.3887 0.407,-0.748 l -0.495,-1.056 c -0.044,-0.022 -0.088,-0.044 -0.132,-0.066 -0.044,-0.022 -0.0917,-0.0477 -0.143,-0.077 -0.1027,-0.11 -0.231,-0.363 -0.385,-0.759 l 0.055,-0.352 0.275,-0.088 0.462,0.891 -0.033,0.22 0.616,1.155 c 0.0293,-0.0073 0.0697,-0.011 0.121,-0.011 0.2347,0 0.4767,0.088 0.726,0.264 l 0.319,0.22 c 0.264,0.132 0.4987,0.2512 0.704,0.3575 0.2053,0.1063 0.3923,0.1962 0.561,0.2695 0.0367,-0.0147 0.1137,-0.0367 0.231,-0.066 0.1173,-0.0293 0.275,-0.0697 0.473,-0.121 0.2933,-0.0807 0.5023,-0.121 0.627,-0.121 0.3667,0 0.6527,0.143 0.858,0.429 0.1027,0.1467 0.154,0.2677 0.154,0.363 v 0.022 m -3.696,-0.66 -0.231,0.495 1.166,-0.132 -0.935,-0.363 m -1.914,0.396 c -0.11,-0.022 -0.264,-0.0513 -0.462,-0.088 -0.198,-0.0367 -0.4437,-0.0843 -0.737,-0.143 -0.2787,-0.0587 -0.462,-0.088 -0.55,-0.088 -0.0953,0 -0.2383,0.0843 -0.429,0.253 -0.022,0.0073 -0.033,0.0257 -0.033,0.055 0,0.11 0.2237,0.275 0.671,0.495 0.5647,0.2787 0.99,0.418 1.276,0.418 0.1687,0 0.253,-0.044 0.253,-0.132 0,-0.1027 -0.253,-0.2493 -0.759,-0.44 -0.0513,-0.0147 -0.1283,-0.0403 -0.231,-0.077 -0.1027,-0.0367 -0.231,-0.0843 -0.385,-0.143 0.0587,0 0.2017,-0.0092 0.429,-0.0275 0.2273,-0.0183 0.5463,-0.0422 0.957,-0.0715 v -0.011 m 4.873,-0.022 c 0,-0.1173 -0.0477,-0.198 -0.143,-0.242 -0.0293,-0.0073 -0.0733,-0.0128 -0.132,-0.0165 -0.0587,-0.0037 -0.1357,-0.0055 -0.231,-0.0055 -0.11,0 -0.1797,0.0128 -0.209,0.0385 -0.0293,0.0257 -0.0477,0.0788 -0.055,0.1595 l -0.044,0.121 c -0.0073,0.0293 -0.0147,0.0568 -0.022,0.0825 -0.0073,0.0257 -0.0147,0.0532 -0.022,0.0825 -0.044,0.044 -0.22,0.1393 -0.528,0.286 -0.3813,0.1907 -0.5647,0.2933 -0.55,0.308 0.0073,0.0513 0.0587,0.077 0.154,0.077 0.264,0 0.6233,-0.1063 1.078,-0.319 0.4547,-0.22 0.6893,-0.3997 0.704,-0.539 v -0.033"
         fill-rule="evenodd"
         vector-effect="none" />
    </g>
    <g
       id="g18"
       font-style="normal"
       font-weight="400"
       font-size="8.25px"
       font-family="'MS Shell Dlg 2'"
       stroke="none"
       fill-opacity="1"
       fill="#ffffff" />
  </g>
</svg>
