<?xml version="1.0" encoding="UTF-8" standalone="no"?>
<svg
   xmlns:dc="http://purl.org/dc/elements/1.1/"
   xmlns:cc="http://creativecommons.org/ns#"
   xmlns:rdf="http://www.w3.org/1999/02/22-rdf-syntax-ns#"
   xmlns:svg="http://www.w3.org/2000/svg"
   xmlns="http://www.w3.org/2000/svg"
   xmlns:sodipodi="http://sodipodi.sourceforge.net/DTD/sodipodi-0.dtd"
   xmlns:inkscape="http://www.inkscape.org/namespaces/inkscape"
   inkscape:version="1.0 (4035a4fb49, 2020-05-01)"
   sodipodi:docname="200k_46.svg"
   id="svg38"
   version="1.2"
   viewBox="0 0 10.962 10.962"
   height="3.8671539mm"
   width="3.8671539mm">
  <metadata
     id="metadata42">
    <rdf:RDF>
      <cc:Work
         rdf:about="">
        <dc:format>image/svg+xml</dc:format>
        <dc:type
           rdf:resource="http://purl.org/dc/dcmitype/StillImage" />
      </cc:Work>
    </rdf:RDF>
  </metadata>
  <sodipodi:namedview
     inkscape:current-layer="svg38"
     inkscape:window-maximized="1"
     inkscape:window-y="-9"
     inkscape:window-x="-9"
     inkscape:cy="5.832006"
     inkscape:cx="7.4133409"
     inkscape:zoom="18.047943"
     showgrid="false"
     id="namedview40"
     inkscape:window-height="1013"
     inkscape:window-width="1920"
     inkscape:pageshadow="2"
     inkscape:pageopacity="0"
     guidetolerance="10"
     gridtolerance="10"
     objecttolerance="10"
     borderopacity="1"
     bordercolor="#666666"
     pagecolor="#ffffff" />
  <title
     id="title2">Qt SVG Document</title>
  <desc
     id="desc4">Generated with Qt</desc>
  <defs
     id="defs6" />
  <g
     transform="translate(-10.44,-11.626)"
     id="g36"
     stroke-linejoin="bevel"
     stroke-linecap="square"
     fill-rule="evenodd"
     stroke-width="1"
     stroke="#000000"
     fill="none">
    <g
       id="g8"
       font-style="normal"
       font-weight="400"
       font-size="8.25px"
       font-family="'MS Shell Dlg 2'"
       stroke="none"
       fill="none" />
    <g
       id="g10"
       font-style="normal"
       font-weight="400"
       font-size="8.25px"
       font-family="'MS Shell Dlg 2'"
       transform="scale(1.33333)"
       stroke="none"
       fill="none" />
    <g
       id="g14"
       font-style="normal"
       font-weight="400"
       font-size="8.25px"
       font-family="'MS Shell Dlg 2'"
       stroke="none"
       fill-opacity="1"
       fill="#a61215">
      <path
         id="path12"
         d="m 21.402,17.114 c 0,0.756 -0.1423,1.4677 -0.427,2.135 -0.2847,0.6673 -0.6767,1.2483 -1.176,1.743 -0.4993,0.4947 -1.0827,0.8843 -1.75,1.169 -0.6673,0.2847 -1.379,0.427 -2.135,0.427 -0.756,0 -1.4677,-0.1423 -2.135,-0.427 -0.6673,-0.2847 -1.2483,-0.6743 -1.743,-1.169 -0.4947,-0.4947 -0.8843,-1.0757 -1.169,-1.743 -0.2847,-0.6673 -0.427,-1.379 -0.427,-2.135 0,-0.756 0.1423,-1.4677 0.427,-2.135 0.2847,-0.6673 0.6743,-1.2507 1.169,-1.75 0.4947,-0.4993 1.0757,-0.8913 1.743,-1.176 0.6673,-0.2847 1.379,-0.427 2.135,-0.427 0.756,0 1.4677,0.1423 2.135,0.427 0.6673,0.2847 1.2507,0.6767 1.75,1.176 0.4993,0.4993 0.8913,1.0827 1.176,1.75 0.2847,0.6673 0.427,1.379 0.427,2.135"
         fill-rule="evenodd"
         vector-effect="none" />
    </g>
    <g
       id="g16"
       font-style="normal"
       font-weight="400"
       font-size="8.25px"
       font-family="'MS Shell Dlg 2'"
       transform="scale(1.33333)"
       stroke="none"
       fill="none" />
    <g
       id="g18"
       font-style="normal"
       font-weight="400"
       font-size="8.25px"
       font-family="'MS Shell Dlg 2'"
       stroke="none"
       fill="none" />
    <g
       id="g20"
       font-style="normal"
       font-weight="400"
       font-size="8.25px"
       font-family="'MS Shell Dlg 2'"
       stroke-linejoin="bevel"
       stroke-linecap="square"
       stroke-width="1"
       stroke-opacity="1"
       stroke="#000000"
       fill="none" />
    <g
       id="g22"
       font-style="normal"
       font-weight="400"
       font-size="8.25px"
       font-family="'MS Shell Dlg 2'"
       stroke="none"
       fill="none" />
    <g
       id="g24"
       font-style="normal"
       font-weight="400"
       font-size="8.25px"
       font-family="'MS Shell Dlg 2'"
       transform="scale(1.33333)"
       stroke="none"
       fill="none" />
    <g
       id="g28"
       font-style="normal"
       font-weight="400"
       font-size="8.25px"
       font-family="'MS Shell Dlg 2'"
       stroke="none"
       fill-opacity="1"
       fill="#ffffff">
      <path
         id="path26"
         d="m 17.436,15.587 c -0.0133,-0.18 -0.0317,-0.345 -0.055,-0.495 -0.0233,-0.15 -0.045,-0.2817 -0.065,-0.395 -0.0267,-0.1267 -0.0533,-0.2433 -0.08,-0.35 h 0.16 c 0.0333,0.1133 0.0667,0.2333 0.1,0.36 0.0267,0.1133 0.055,0.2433 0.085,0.39 0.03,0.1467 0.055,0.3033 0.075,0.47 h 0.12 l 0.02,0.58 -0.1,0.02 c 0.0067,0.2 0.0017,0.3867 -0.015,0.56 -0.0167,0.1733 -0.035,0.3233 -0.055,0.45 -0.02,0.1267 -0.0433,0.2267 -0.07,0.3 -0.0267,0.0733 -0.0467,0.11 -0.06,0.11 -0.0133,0.0067 -0.0217,-0.0267 -0.025,-0.1 -0.0033,-0.0733 -0.0033,-0.175 0,-0.305 0.0033,-0.13 0.0067,-0.2817 0.01,-0.455 0.0033,-0.1733 0.0017,-0.36 -0.005,-0.56 l -0.06,0.02 -0.02,-0.6 h 0.04 m -0.2,0.46 -3.29,0.2 v -0.3 l 3.27,-0.2 0.02,0.3 m 0.64,-0.04 -0.02,-0.3 0.16,-0.02 0.02,0.3 -0.16,0.02 m -1.95,3.32 c -0.0333,-0.0067 -0.0767,-0.015 -0.13,-0.025 -0.0533,-0.01 -0.1083,-0.02 -0.165,-0.03 -0.0567,-0.01 -0.1083,-0.0233 -0.155,-0.04 -0.0467,-0.0167 -0.0767,-0.0383 -0.09,-0.065 0.0067,-0.0267 0.0517,-0.025 0.135,0.005 0.0833,0.03 0.18,0.0617 0.29,0.095 0.11,0.0333 0.225,0.0517 0.345,0.055 0.12,0.0033 0.2233,-0.0417 0.31,-0.135 0.0533,-0.0467 0.085,-0.105 0.095,-0.175 0.01,-0.07 0.0083,-0.145 -0.005,-0.225 -0.0133,-0.08 -0.0333,-0.1617 -0.06,-0.245 -0.0267,-0.0833 -0.05,-0.1617 -0.07,-0.235 0.02,-0.0333 0.04,-0.025 0.06,0.025 0.02,0.05 0.04,0.1167 0.06,0.2 0.02,0.0833 0.0367,0.17 0.05,0.26 0.0133,0.09 0.0267,0.155 0.04,0.195 0.04,0.12 0.0667,0.1967 0.08,0.23 0.0133,0.0333 -0.02,0.09 -0.1,0.17 -0.04,0.0467 -0.0883,0.0733 -0.145,0.08 -0.0567,0.0067 -0.1167,0.005 -0.18,-0.005 -0.0633,-0.01 -0.1267,-0.0283 -0.19,-0.055 -0.0633,-0.0267 -0.1217,-0.0533 -0.175,-0.08 m 0.4,-1.6 c 0.06,0.04 0.0883,0.0883 0.085,0.145 -0.0033,0.0567 -0.015,0.1183 -0.035,0.185 -0.02,0.0667 -0.0333,0.1367 -0.04,0.21 -0.0067,0.0733 0.0167,0.1467 0.07,0.22 0.02,0.1 -0.0083,0.175 -0.085,0.225 -0.0767,0.05 -0.1617,0.115 -0.255,0.195 -0.0933,0.08 -0.1667,0.1517 -0.22,0.215 -0.0533,0.0633 -0.1267,0.065 -0.22,0.005 -0.0533,-0.04 -0.115,-0.0583 -0.185,-0.055 -0.07,0.0033 -0.1383,0.01 -0.205,0.02 -0.0667,0.01 -0.13,0.0117 -0.19,0.005 -0.06,-0.0067 -0.1067,-0.0433 -0.14,-0.11 -0.02,-0.04 -0.055,-0.1 -0.105,-0.18 -0.05,-0.08 -0.095,-0.1467 -0.135,-0.2 -0.0733,-0.0733 -0.1433,-0.155 -0.21,-0.245 -0.0667,-0.09 -0.11,-0.1867 -0.13,-0.29 -0.02,-0.1033 -0.0083,-0.2167 0.035,-0.34 0.0433,-0.1233 0.1383,-0.2583 0.285,-0.405 0.1267,-0.1267 0.26,-0.21 0.4,-0.25 0.14,-0.04 0.27,-0.0517 0.39,-0.035 0.12,0.0167 0.2233,0.0517 0.31,0.105 0.0867,0.0533 0.1467,0.1067 0.18,0.16 0.12,0.2133 0.2533,0.3533 0.4,0.42 m -1.08,0.86 c 0.06,-0.0533 0.0983,-0.105 0.115,-0.155 0.0167,-0.05 -0.0017,-0.105 -0.055,-0.165 -0.06,-0.06 -0.1233,-0.0933 -0.19,-0.1 -0.0667,-0.0067 -0.13,0.02 -0.19,0.08 -0.06,0.0533 -0.0917,0.135 -0.095,0.245 -0.0033,0.11 0.0217,0.195 0.075,0.255 0.06,0.06 0.1167,0.0617 0.17,0.005 0.0533,-0.0567 0.11,-0.1117 0.17,-0.165 m 0.28,-0.52 c 0.0533,0.06 0.1083,0.085 0.165,0.075 0.0567,-0.01 0.115,-0.0417 0.175,-0.095 0.06,-0.06 0.1117,-0.1167 0.155,-0.17 0.0433,-0.0533 0.0383,-0.11 -0.015,-0.17 -0.0533,-0.06 -0.1317,-0.09 -0.235,-0.09 -0.1033,0 -0.185,0.03 -0.245,0.09 -0.06,0.0533 -0.0883,0.1117 -0.085,0.175 0.0033,0.0633 0.0317,0.125 0.085,0.185 m 0.54,0.4 c -0.0667,-0.0267 -0.1267,-0.05 -0.18,-0.07 -0.0533,-0.0133 -0.1017,-0.0217 -0.145,-0.025 -0.0433,-0.0033 -0.075,0.0083 -0.095,0.035 -0.0267,0.0333 -0.0383,0.0733 -0.035,0.12 0.0033,0.0467 0.0117,0.09 0.025,0.13 0.02,0.0533 0.0433,0.1033 0.07,0.15 l 0.08,-0.16 -0.08,-0.18 0.18,0.1 0.18,-0.1 m 2.61,-0.58 v 1.98 h -5.51 v -2.64 h 0.72 v 1.46 h 0.3 l 0.2,0.76 h 1.18 c 0.0067,0.0067 0.0333,0.0133 0.08,0.02 0.0467,0.0067 0.1,0.0167 0.16,0.03 0.06,0.0133 0.1217,0.0317 0.185,0.055 0.0633,0.0233 0.115,0.0483 0.155,0.075 0.0533,0.04 0.13,0.055 0.23,0.045 0.1,-0.01 0.1933,-0.0517 0.28,-0.125 0.0133,-0.0133 0.0267,-0.0283 0.04,-0.045 0.0133,-0.0167 0.0267,-0.035 0.04,-0.055 h 0.72 v -0.76 h 0.5 v -0.8 h 0.72"
         fill-rule="evenodd"
         vector-effect="none" />
    </g>
    <g
       id="g30"
       font-style="normal"
       font-weight="400"
       font-size="8.25px"
       font-family="'MS Shell Dlg 2'"
       transform="scale(1.33333)"
       stroke="none"
       fill="none" />
    <g
       id="g32"
       font-style="normal"
       font-weight="400"
       font-size="8.25px"
       font-family="'MS Shell Dlg 2'"
       stroke="none"
       fill="none" />
    <g
       id="g34"
       font-style="normal"
       font-weight="400"
       font-size="8.25px"
       font-family="'MS Shell Dlg 2'"
       stroke-linejoin="bevel"
       stroke-linecap="square"
       stroke-width="1"
       stroke-opacity="1"
       stroke="#000000"
       fill="none" />
  </g>
</svg>
