<?xml version="1.0" encoding="UTF-8" standalone="no"?>
<svg
   xmlns:dc="http://purl.org/dc/elements/1.1/"
   xmlns:cc="http://creativecommons.org/ns#"
   xmlns:rdf="http://www.w3.org/1999/02/22-rdf-syntax-ns#"
   xmlns:svg="http://www.w3.org/2000/svg"
   xmlns="http://www.w3.org/2000/svg"
   xmlns:sodipodi="http://sodipodi.sourceforge.net/DTD/sodipodi-0.dtd"
   xmlns:inkscape="http://www.inkscape.org/namespaces/inkscape"
   inkscape:version="1.0 (4035a4fb49, 2020-05-01)"
   sodipodi:docname="200k_61.svg"
   id="svg38"
   version="1.2"
   viewBox="0 0 9.3960003 9.3960003"
   height="3.3147035mm"
   width="3.3147035mm">
  <metadata
     id="metadata42">
    <rdf:RDF>
      <cc:Work
         rdf:about="">
        <dc:format>image/svg+xml</dc:format>
        <dc:type
           rdf:resource="http://purl.org/dc/dcmitype/StillImage" />
      </cc:Work>
    </rdf:RDF>
  </metadata>
  <sodipodi:namedview
     inkscape:current-layer="svg38"
     inkscape:window-maximized="1"
     inkscape:window-y="-9"
     inkscape:window-x="-9"
     inkscape:cy="5.1893387"
     inkscape:cx="5.9733395"
     inkscape:zoom="18.047943"
     showgrid="false"
     id="namedview40"
     inkscape:window-height="1013"
     inkscape:window-width="1920"
     inkscape:pageshadow="2"
     inkscape:pageopacity="0"
     guidetolerance="10"
     gridtolerance="10"
     objecttolerance="10"
     borderopacity="1"
     bordercolor="#666666"
     pagecolor="#ffffff" />
  <title
     id="title2">Qt SVG Document</title>
  <desc
     id="desc4">Generated with Qt</desc>
  <defs
     id="defs6" />
  <g
     transform="translate(-11.52,-12.108)"
     id="g36"
     stroke-linejoin="bevel"
     stroke-linecap="square"
     fill-rule="evenodd"
     stroke-width="1"
     stroke="#000000"
     fill="none">
    <g
       id="g8"
       font-style="normal"
       font-weight="400"
       font-size="8.25px"
       font-family="'MS Shell Dlg 2'"
       stroke="none"
       fill="none" />
    <g
       id="g10"
       font-style="normal"
       font-weight="400"
       font-size="8.25px"
       font-family="'MS Shell Dlg 2'"
       transform="scale(1.33333)"
       stroke="none"
       fill="none" />
    <g
       id="g14"
       font-style="normal"
       font-weight="400"
       font-size="8.25px"
       font-family="'MS Shell Dlg 2'"
       stroke="none"
       fill-opacity="1"
       fill="#323232">
      <path
         id="path12"
         d="m 20.916,16.812 c 0,0.648 -0.122,1.258 -0.366,1.83 -0.244,0.572 -0.58,1.07 -1.008,1.494 -0.428,0.424 -0.928,0.758 -1.5,1.002 -0.572,0.244 -1.182,0.366 -1.83,0.366 -0.648,0 -1.258,-0.122 -1.83,-0.366 C 13.81,20.894 13.312,20.56 12.888,20.136 12.464,19.712 12.13,19.214 11.886,18.642 11.642,18.07 11.52,17.46 11.52,16.812 c 0,-0.648 0.122,-1.258 0.366,-1.83 0.244,-0.572 0.578,-1.072 1.002,-1.5 0.424,-0.428 0.922,-0.764 1.494,-1.008 0.572,-0.244 1.182,-0.366 1.83,-0.366 0.648,0 1.258,0.122 1.83,0.366 0.572,0.244 1.072,0.58 1.5,1.008 0.428,0.428 0.764,0.928 1.008,1.5 0.244,0.572 0.366,1.182 0.366,1.83"
         fill-rule="evenodd"
         vector-effect="none" />
    </g>
    <g
       id="g16"
       font-style="normal"
       font-weight="400"
       font-size="8.25px"
       font-family="'MS Shell Dlg 2'"
       transform="scale(1.33333)"
       stroke="none"
       fill="none" />
    <g
       id="g18"
       font-style="normal"
       font-weight="400"
       font-size="8.25px"
       font-family="'MS Shell Dlg 2'"
       stroke="none"
       fill="none" />
    <g
       id="g20"
       font-style="normal"
       font-weight="400"
       font-size="8.25px"
       font-family="'MS Shell Dlg 2'"
       stroke-linejoin="bevel"
       stroke-linecap="square"
       stroke-width="1"
       stroke-opacity="1"
       stroke="#000000"
       fill="none" />
    <g
       id="g22"
       font-style="normal"
       font-weight="400"
       font-size="8.25px"
       font-family="'MS Shell Dlg 2'"
       stroke="none"
       fill="none" />
    <g
       id="g24"
       font-style="normal"
       font-weight="400"
       font-size="8.25px"
       font-family="'MS Shell Dlg 2'"
       transform="scale(1.33333)"
       stroke="none"
       fill="none" />
    <g
       id="g28"
       font-style="normal"
       font-weight="400"
       font-size="8.25px"
       font-family="'MS Shell Dlg 2'"
       stroke="none"
       fill-opacity="1"
       fill="#ffffff">
      <path
         id="path26"
         d="m 17.8875,16.338 h -3.222 v -0.801 h 0.1087 c 0,-0.084 0.0076,-0.1665 0.0227,-0.2475 0.0152,-0.081 0.0378,-0.1575 0.068,-0.2295 0.0423,-0.072 0.0831,-0.1395 0.1223,-0.2025 0.0393,-0.063 0.0862,-0.1245 0.1405,-0.1845 0.0544,-0.054 0.1133,-0.1065 0.1767,-0.1575 0.0635,-0.051 0.1314,-0.0945 0.2039,-0.1305 0.0785,-0.048 0.1541,-0.0825 0.2266,-0.1035 0.0725,-0.021 0.151,-0.0405 0.2356,-0.0585 l -0.036,1.314 h 0.621 l -0.036,-1.314 c 0.09,0.018 0.1725,0.0375 0.2475,0.0585 0.075,0.021 0.1515,0.0555 0.2295,0.1035 0.072,0.036 0.1395,0.0795 0.2025,0.1305 0.063,0.051 0.1215,0.1035 0.1755,0.1575 0.054,0.06 0.1005,0.1215 0.1395,0.1845 0.039,0.063 0.0735,0.1305 0.1035,0.2025 0.036,0.072 0.06,0.1485 0.072,0.2295 0.012,0.081 0.018,0.1635 0.018,0.2475 h 0.18 v 0.801 m -3.627,2.682 v -1.719 h 0.351 v 1.719 h -0.351 m 0.837,0 v -1.719 h 3.249 v 1.719 h -3.249 m 2.079,-0.765 h 0.711 v -0.657 h -0.711 v 0.657 m -1.224,0 h 0.711 v -0.657 h -0.711 v 0.657 m 2.538,-1.206 h -4.401 v -0.477 h 4.401 v 0.477 m 0.108,2.097 v 0.243 h -4.761 v -0.243 h 4.761"
         fill-rule="evenodd"
         vector-effect="none" />
    </g>
    <g
       id="g30"
       font-style="normal"
       font-weight="400"
       font-size="8.25px"
       font-family="'MS Shell Dlg 2'"
       transform="scale(1.33333)"
       stroke="none"
       fill="none" />
    <g
       id="g32"
       font-style="normal"
       font-weight="400"
       font-size="8.25px"
       font-family="'MS Shell Dlg 2'"
       stroke="none"
       fill="none" />
    <g
       id="g34"
       font-style="normal"
       font-weight="400"
       font-size="8.25px"
       font-family="'MS Shell Dlg 2'"
       stroke-linejoin="bevel"
       stroke-linecap="square"
       stroke-width="1"
       stroke-opacity="1"
       stroke="#000000"
       fill="none" />
  </g>
</svg>
