<?xml version="1.0" encoding="UTF-8" standalone="no"?>
<svg width="11.2889mm" height="11.2889mm"
 viewBox="0 0 32 32"
 xmlns="http://www.w3.org/2000/svg" xmlns:xlink="http://www.w3.org/1999/xlink"  version="1.2" baseProfile="tiny">
<title>Qt SVG Document</title>
<desc>Generated with Qt</desc>
<defs>
</defs>
<g fill="none" stroke="black" stroke-width="1" fill-rule="evenodd" stroke-linecap="square" stroke-linejoin="bevel" >

<g fill="#a61215" fill-opacity="1" stroke="none" transform="matrix(1,0,0,1,0,0)"
font-family="MS Shell Dlg 2" font-size="8.25" font-weight="400" font-style="normal" 
>
<path vector-effect="none" fill-rule="evenodd" d="M21.402,17.114 C21.402,17.87 21.2597,18.5817 20.975,19.249 C20.6903,19.9163 20.2983,20.4973 19.799,20.992 C19.2997,21.4867 18.7163,21.8763 18.049,22.161 C17.3817,22.4457 16.67,22.588 15.914,22.588 C15.158,22.588 14.4463,22.4457 13.779,22.161 C13.1117,21.8763 12.5307,21.4867 12.036,20.992 C11.5413,20.4973 11.1517,19.9163 10.867,19.249 C10.5823,18.5817 10.44,17.87 10.44,17.114 C10.44,16.358 10.5823,15.6463 10.867,14.979 C11.1517,14.3117 11.5413,13.7283 12.036,13.229 C12.5307,12.7297 13.1117,12.3377 13.779,12.053 C14.4463,11.7683 15.158,11.626 15.914,11.626 C16.67,11.626 17.3817,11.7683 18.049,12.053 C18.7163,12.3377 19.2997,12.7297 19.799,13.229 C20.2983,13.7283 20.6903,14.3117 20.975,14.979 C21.2597,15.6463 21.402,16.358 21.402,17.114 "/>
</g>

<g fill="#a61215" fill-opacity="1" stroke="none" transform="matrix(1,0,0,1,0,0)"
font-family="MS Shell Dlg 2" font-size="8.25" font-weight="400" font-style="normal" 
>
</g>

<g fill="#ffffff" fill-opacity="1" stroke="none" transform="matrix(1,0,0,1,0,0)"
font-family="MS Shell Dlg 2" font-size="8.25" font-weight="400" font-style="normal" 
>
<path vector-effect="none" fill-rule="evenodd" d="M14.074,20.28 L12.446,20.28 L12.446,17.464 L14.074,17.464 L14.074,20.28 M14.206,15.473 C14.118,15.715 14.074,15.9533 14.074,16.188 L14.074,17.123 L12.479,17.123 L12.479,14.516 L14.206,15.473 M14.855,14.582 C14.745,14.6773 14.6497,14.7672 14.569,14.8515 C14.4883,14.9358 14.426,15.0257 14.382,15.121 L12.71,14.23 L13.92,13.009 L14.855,14.582 M16.67,19.554 L15.471,19.554 L15.471,18.333 C15.471,18.1643 15.5297,18.0213 15.647,17.904 C15.7643,17.7867 15.9,17.728 16.054,17.728 C16.2227,17.728 16.3675,17.7867 16.4885,17.904 C16.6095,18.0213 16.67,18.1643 16.67,18.333 L16.67,19.554 M17.913,12.932 L16.956,14.395 C16.626,14.2337 16.307,14.153 15.999,14.153 C15.7277,14.153 15.427,14.2337 15.097,14.395 L14.14,12.932 L17.913,12.932 M19.431,14.23 L17.748,15.121 C17.638,14.9303 17.4803,14.7507 17.275,14.582 L18.221,13.009 L19.431,14.23 M19.651,17.123 L18.078,17.123 L18.078,16.188 C18.078,15.946 18.034,15.7077 17.946,15.473 L19.651,14.516 L19.651,17.123 M19.695,20.28 L18.078,20.28 L18.078,17.464 L19.695,17.464 L19.695,20.28"/>
</g>

<g fill="#ffffff" fill-opacity="1" stroke="none" transform="matrix(1,0,0,1,0,0)"
font-family="MS Shell Dlg 2" font-size="8.25" font-weight="400" font-style="normal" 
>
</g>
</g>
</svg>
