<?xml version="1.0" encoding="UTF-8" standalone="no"?>
<svg
   xmlns:dc="http://purl.org/dc/elements/1.1/"
   xmlns:cc="http://creativecommons.org/ns#"
   xmlns:rdf="http://www.w3.org/1999/02/22-rdf-syntax-ns#"
   xmlns:svg="http://www.w3.org/2000/svg"
   xmlns="http://www.w3.org/2000/svg"
   xmlns:sodipodi="http://sodipodi.sourceforge.net/DTD/sodipodi-0.dtd"
   xmlns:inkscape="http://www.inkscape.org/namespaces/inkscape"
   inkscape:version="1.0 (4035a4fb49, 2020-05-01)"
   sodipodi:docname="200k_75.svg"
   id="svg22"
   version="1.2"
   viewBox="0 0 10.962 10.962"
   height="3.8671539mm"
   width="3.8671539mm">
  <metadata
     id="metadata26">
    <rdf:RDF>
      <cc:Work
         rdf:about="">
        <dc:format>image/svg+xml</dc:format>
        <dc:type
           rdf:resource="http://purl.org/dc/dcmitype/StillImage" />
      </cc:Work>
    </rdf:RDF>
  </metadata>
  <sodipodi:namedview
     inkscape:current-layer="svg22"
     inkscape:window-maximized="1"
     inkscape:window-y="-9"
     inkscape:window-x="-9"
     inkscape:cy="5.832006"
     inkscape:cx="7.4133409"
     inkscape:zoom="18.047943"
     showgrid="false"
     id="namedview24"
     inkscape:window-height="1013"
     inkscape:window-width="1920"
     inkscape:pageshadow="2"
     inkscape:pageopacity="0"
     guidetolerance="10"
     gridtolerance="10"
     objecttolerance="10"
     borderopacity="1"
     bordercolor="#666666"
     pagecolor="#ffffff" />
  <title
     id="title2">Qt SVG Document</title>
  <desc
     id="desc4">Generated with Qt</desc>
  <defs
     id="defs6" />
  <g
     transform="translate(-10.44,-11.626)"
     id="g20"
     stroke-linejoin="bevel"
     stroke-linecap="square"
     fill-rule="evenodd"
     stroke-width="1"
     stroke="#000000"
     fill="none">
    <g
       id="g10"
       font-style="normal"
       font-weight="400"
       font-size="8.25px"
       font-family="'MS Shell Dlg 2'"
       stroke="none"
       fill-opacity="1"
       fill="#1f78b4">
      <path
         id="path8"
         d="m 21.402,17.114 c 0,0.756 -0.1423,1.4677 -0.427,2.135 -0.2847,0.6673 -0.6767,1.2483 -1.176,1.743 -0.4993,0.4947 -1.0827,0.8843 -1.75,1.169 -0.6673,0.2847 -1.379,0.427 -2.135,0.427 -0.756,0 -1.4677,-0.1423 -2.135,-0.427 -0.6673,-0.2847 -1.2483,-0.6743 -1.743,-1.169 -0.4947,-0.4947 -0.8843,-1.0757 -1.169,-1.743 -0.2847,-0.6673 -0.427,-1.379 -0.427,-2.135 0,-0.756 0.1423,-1.4677 0.427,-2.135 0.2847,-0.6673 0.6743,-1.2507 1.169,-1.75 0.4947,-0.4993 1.0757,-0.8913 1.743,-1.176 0.6673,-0.2847 1.379,-0.427 2.135,-0.427 0.756,0 1.4677,0.1423 2.135,0.427 0.6673,0.2847 1.2507,0.6767 1.75,1.176 0.4993,0.4993 0.8913,1.0827 1.176,1.75 0.2847,0.6673 0.427,1.379 0.427,2.135"
         fill-rule="evenodd"
         vector-effect="none" />
    </g>
    <g
       id="g12"
       font-style="normal"
       font-weight="400"
       font-size="8.25px"
       font-family="'MS Shell Dlg 2'"
       stroke="none"
       fill-opacity="1"
       fill="#1f78b4" />
    <g
       id="g16"
       font-style="normal"
       font-weight="400"
       font-size="8.25px"
       font-family="'MS Shell Dlg 2'"
       stroke="none"
       fill-opacity="1"
       fill="#ffffff">
      <path
         id="path14"
         d="m 18.7095,14.2525 v 0.319 l -5.577,2.079 v -0.308 l 5.577,-2.09 m -3.52,1.078 c -0.1027,0 -0.1943,-0.0385 -0.275,-0.1155 -0.0807,-0.077 -0.121,-0.1668 -0.121,-0.2695 0,-0.1027 0.0403,-0.1907 0.121,-0.264 0.0807,-0.0733 0.1723,-0.11 0.275,-0.11 0.11,0 0.2017,0.0367 0.275,0.11 0.0733,0.0733 0.11,0.1613 0.11,0.264 0,0.1027 -0.0367,0.1925 -0.11,0.2695 -0.0733,0.077 -0.165,0.1155 -0.275,0.1155 m 2.662,1.727 c 0.0587,0 0.1118,0.022 0.1595,0.066 0.0477,0.044 0.0715,0.1063 0.0715,0.187 v 2.574 c 0,0.0587 -0.0238,0.1118 -0.0715,0.1595 -0.0477,0.0477 -0.1008,0.0715 -0.1595,0.0715 h -3.674 c -0.0733,0 -0.1338,-0.0238 -0.1815,-0.0715 -0.0477,-0.0477 -0.0715,-0.1008 -0.0715,-0.1595 v -2.574 c 0,-0.0807 0.0238,-0.143 0.0715,-0.187 0.0477,-0.044 0.1082,-0.066 0.1815,-0.066 h 1.54 v -1.221 l 0.429,-0.176 0.121,1.397 h 1.584 m -1.98,0.583 c 0,-0.0293 -0.0128,-0.0568 -0.0385,-0.0825 -0.0257,-0.0257 -0.0568,-0.0385 -0.0935,-0.0385 h -1.364 c -0.0367,0 -0.0678,0.0128 -0.0935,0.0385 -0.0257,0.0257 -0.0385,0.0532 -0.0385,0.0825 v 0.803 c 0,0.044 0.0128,0.0807 0.0385,0.11 0.0257,0.0293 0.0568,0.044 0.0935,0.044 h 1.364 c 0.0367,0 0.0678,-0.0147 0.0935,-0.044 0.0257,-0.0293 0.0385,-0.066 0.0385,-0.11 v -0.803 m 1.892,0 c 0,-0.0953 -0.0403,-0.143 -0.121,-0.143 h -1.309 c -0.0367,0 -0.0678,0.0147 -0.0935,0.044 -0.0257,0.0293 -0.0385,0.0623 -0.0385,0.099 v 0.803 c 0,0.0367 0.0128,0.0678 0.0385,0.0935 0.0257,0.0257 0.0568,0.0385 0.0935,0.0385 h 1.309 c 0.0367,0 0.066,-0.0128 0.088,-0.0385 0.022,-0.0257 0.033,-0.0568 0.033,-0.0935 v -0.803 m -1.265,-2.761 c -0.1027,0 -0.1907,-0.0367 -0.264,-0.11 -0.0733,-0.0733 -0.11,-0.1687 -0.11,-0.286 0,-0.1027 0.0367,-0.1925 0.11,-0.2695 0.0733,-0.077 0.1613,-0.1155 0.264,-0.1155 0.1027,0 0.1925,0.0385 0.2695,0.1155 0.077,0.077 0.1155,0.1668 0.1155,0.2695 0,0.1173 -0.0385,0.2127 -0.1155,0.286 -0.077,0.0733 -0.1668,0.11 -0.2695,0.11"
         fill-rule="evenodd"
         vector-effect="none" />
    </g>
    <g
       id="g18"
       font-style="normal"
       font-weight="400"
       font-size="8.25px"
       font-family="'MS Shell Dlg 2'"
       stroke="none"
       fill-opacity="1"
       fill="#ffffff" />
  </g>
</svg>
