<?xml version="1.0" encoding="UTF-8" standalone="no"?>
<svg width="11.2889mm" height="11.2889mm"
 viewBox="0 0 32 32"
 xmlns="http://www.w3.org/2000/svg" xmlns:xlink="http://www.w3.org/1999/xlink"  version="1.2" baseProfile="tiny">
<title>Qt SVG Document</title>
<desc>Generated with Qt</desc>
<defs>
</defs>
<g fill="none" stroke="black" stroke-width="1" fill-rule="evenodd" stroke-linecap="square" stroke-linejoin="bevel" >

<g fill="none" stroke="none" transform="matrix(1,0,0,1,0,0)"
font-family="MS Shell Dlg 2" font-size="8.25" font-weight="400" font-style="normal" 
>
</g>

<g fill="none" stroke="none" transform="matrix(1.33333,0,0,1.33333,0,0)"
font-family="MS Shell Dlg 2" font-size="8.25" font-weight="400" font-style="normal" 
>
</g>

<g fill="#b75800" fill-opacity="1" stroke="none" transform="matrix(1,0,0,1,0,0)"
font-family="MS Shell Dlg 2" font-size="8.25" font-weight="400" font-style="normal" 
>
<path vector-effect="none" fill-rule="evenodd" d="M21.402,17.114 C21.402,17.87 21.2597,18.5817 20.975,19.249 C20.6903,19.9163 20.2983,20.4973 19.799,20.992 C19.2997,21.4867 18.7163,21.8763 18.049,22.161 C17.3817,22.4457 16.67,22.588 15.914,22.588 C15.158,22.588 14.4463,22.4457 13.779,22.161 C13.1117,21.8763 12.5307,21.4867 12.036,20.992 C11.5413,20.4973 11.1517,19.9163 10.867,19.249 C10.5823,18.5817 10.44,17.87 10.44,17.114 C10.44,16.358 10.5823,15.6463 10.867,14.979 C11.1517,14.3117 11.5413,13.7283 12.036,13.229 C12.5307,12.7297 13.1117,12.3377 13.779,12.053 C14.4463,11.7683 15.158,11.626 15.914,11.626 C16.67,11.626 17.3817,11.7683 18.049,12.053 C18.7163,12.3377 19.2997,12.7297 19.799,13.229 C20.2983,13.7283 20.6903,14.3117 20.975,14.979 C21.2597,15.6463 21.402,16.358 21.402,17.114 "/>
</g>

<g fill="none" stroke="none" transform="matrix(1.33333,0,0,1.33333,0,0)"
font-family="MS Shell Dlg 2" font-size="8.25" font-weight="400" font-style="normal" 
>
</g>

<g fill="none" stroke="none" transform="matrix(1,0,0,1,0,0)"
font-family="MS Shell Dlg 2" font-size="8.25" font-weight="400" font-style="normal" 
>
</g>

<g fill="none" stroke="#000000" stroke-opacity="1" stroke-width="1" stroke-linecap="square" stroke-linejoin="bevel" transform="matrix(1,0,0,1,0,0)"
font-family="MS Shell Dlg 2" font-size="8.25" font-weight="400" font-style="normal" 
>
</g>

<g fill="none" stroke="none" transform="matrix(1,0,0,1,0,0)"
font-family="MS Shell Dlg 2" font-size="8.25" font-weight="400" font-style="normal" 
>
</g>

<g fill="none" stroke="none" transform="matrix(1.33333,0,0,1.33333,0,0)"
font-family="MS Shell Dlg 2" font-size="8.25" font-weight="400" font-style="normal" 
>
</g>

<g fill="#ffffff" fill-opacity="1" stroke="none" transform="matrix(1,0,0,1,0,0)"
font-family="MS Shell Dlg 2" font-size="8.25" font-weight="400" font-style="normal" 
>
<path vector-effect="none" fill-rule="evenodd" d="M18.52,14.86 C18.5533,14.8733 18.6,14.9183 18.66,14.995 C18.72,15.0717 18.78,15.16 18.84,15.26 C18.9,15.36 18.9517,15.4617 18.995,15.565 C19.0383,15.6683 19.0567,15.75 19.05,15.81 C19.0433,15.8433 19.0283,15.8917 19.005,15.955 C18.9817,16.0183 18.955,16.09 18.925,16.17 C18.895,16.25 18.865,16.3317 18.835,16.415 C18.805,16.4983 18.7867,16.5733 18.78,16.64 C18.7067,16.68 18.6417,16.7317 18.585,16.795 C18.5283,16.8583 18.475,16.9233 18.425,16.99 C18.375,17.0567 18.3267,17.1233 18.28,17.19 C18.2333,17.2567 18.18,17.32 18.12,17.38 C18.0267,17.4733 17.9217,17.5483 17.805,17.605 C17.6883,17.6617 17.58,17.7367 17.48,17.83 C17.6,17.7767 17.715,17.7167 17.825,17.65 C17.935,17.5833 18.0467,17.5233 18.16,17.47 C18.2267,17.35 18.2933,17.2333 18.36,17.12 C18.4267,17.0067 18.5233,16.9167 18.65,16.85 C18.55,17.0233 18.48,17.175 18.44,17.305 C18.4,17.435 18.3717,17.5483 18.355,17.645 C18.3383,17.7417 18.3283,17.8217 18.325,17.885 C18.3217,17.9483 18.31,18 18.29,18.04 C18.21,18.1933 18.0883,18.3133 17.925,18.4 C17.7617,18.4867 17.5833,18.5567 17.39,18.61 C17.1967,18.6633 17.0017,18.7133 16.805,18.76 C16.6083,18.8067 16.4333,18.87 16.28,18.95 C16.1867,18.99 16.0983,19.035 16.015,19.085 C15.9317,19.135 15.8417,19.1783 15.745,19.215 C15.6483,19.2517 15.5467,19.275 15.44,19.285 C15.3333,19.295 15.21,19.2833 15.07,19.25 C15.0633,19.2367 15.07,19.2167 15.09,19.19 C15.11,19.1633 15.1317,19.135 15.155,19.105 C15.1783,19.075 15.205,19.0433 15.235,19.01 C15.265,18.9767 15.2867,18.95 15.3,18.93 C15.4133,18.8767 15.5283,18.825 15.645,18.775 C15.7617,18.725 15.8667,18.6633 15.96,18.59 C15.8733,18.6233 15.7867,18.66 15.7,18.7 C15.6133,18.74 15.5233,18.7833 15.43,18.83 C15.3233,18.87 15.2317,18.9233 15.155,18.99 C15.0783,19.0567 14.9933,19.1233 14.9,19.19 C14.8467,19.2233 14.78,19.255 14.7,19.285 C14.62,19.315 14.5433,19.3467 14.47,19.38 C14.4167,19.4 14.3683,19.425 14.325,19.455 C14.2817,19.485 14.2367,19.5117 14.19,19.535 C14.1433,19.5583 14.095,19.5783 14.045,19.595 C13.995,19.6117 13.94,19.6167 13.88,19.61 C13.8267,19.5967 13.7767,19.575 13.73,19.545 C13.6833,19.515 13.6333,19.4933 13.58,19.48 C13.5333,19.4067 13.5033,19.325 13.49,19.235 C13.4767,19.145 13.47,19.0533 13.47,18.96 C13.47,18.8667 13.47,18.775 13.47,18.685 C13.47,18.595 13.4567,18.5133 13.43,18.44 C13.41,18.3867 13.3767,18.3417 13.33,18.305 C13.2833,18.2683 13.2533,18.23 13.24,18.19 C13.2067,18.1033 13.2183,18.0117 13.275,17.915 C13.3317,17.8183 13.39,17.7533 13.45,17.72 C13.55,17.7867 13.6367,17.8617 13.71,17.945 C13.7833,18.0283 13.8767,18.0967 13.99,18.15 C13.9367,18.1033 13.8917,18.0467 13.855,17.98 C13.8183,17.9133 13.7767,17.85 13.73,17.79 C13.6967,17.7433 13.6567,17.71 13.61,17.69 C13.5633,17.67 13.52,17.64 13.48,17.6 C13.4133,17.5467 13.3617,17.485 13.325,17.415 C13.2883,17.345 13.2333,17.2933 13.16,17.26 C13.1133,17.1267 13.0783,16.9883 13.055,16.845 C13.0317,16.7017 13.0533,16.5833 13.12,16.49 C13.18,16.4033 13.2317,16.36 13.275,16.36 C13.3183,16.36 13.35,16.3467 13.37,16.32 C13.4033,16.28 13.415,16.2567 13.405,16.25 C13.395,16.2433 13.3867,16.2333 13.38,16.22 C13.3733,16.2067 13.3783,16.1817 13.395,16.145 C13.4117,16.1083 13.4667,16.04 13.56,15.94 C13.6733,15.8133 13.7817,15.71 13.885,15.63 C13.9883,15.55 14.07,15.4833 14.13,15.43 C14.27,15.3233 14.4183,15.2217 14.575,15.125 C14.7317,15.0283 14.8967,14.9333 15.07,14.84 C15.13,14.8 15.1867,14.765 15.24,14.735 C15.2933,14.705 15.3483,14.68 15.405,14.66 C15.4617,14.64 15.525,14.6267 15.595,14.62 C15.665,14.6133 15.75,14.6167 15.85,14.63 C15.8633,14.6633 15.8533,14.695 15.82,14.725 C15.7867,14.755 15.7467,14.7867 15.7,14.82 C15.5867,14.9133 15.4517,14.9983 15.295,15.075 C15.1383,15.1517 14.99,15.22 14.85,15.28 C15.0367,15.24 15.2067,15.1733 15.36,15.08 C15.5133,14.9867 15.6767,14.8933 15.85,14.8 C16.01,14.7 16.1583,14.61 16.295,14.53 C16.4317,14.45 16.58,14.3767 16.74,14.31 C16.8667,14.2767 16.975,14.2733 17.065,14.3 C17.155,14.3267 17.2367,14.365 17.31,14.415 C17.3833,14.465 17.4517,14.5183 17.515,14.575 C17.5783,14.6317 17.6467,14.6767 17.72,14.71 C17.8133,14.7567 17.89,14.7833 17.95,14.79 C18.01,14.7967 18.0733,14.8 18.14,14.8 C18.1933,14.8 18.2567,14.805 18.33,14.815 C18.4033,14.825 18.4667,14.84 18.52,14.86 M17.46,15.16 C17.4267,15.2533 17.4233,15.3183 17.45,15.355 C17.4767,15.3917 17.5033,15.41 17.53,15.41 C17.55,15.41 17.5783,15.4 17.615,15.38 C17.6517,15.36 17.6933,15.3067 17.74,15.22 C17.76,15.18 17.7733,15.1367 17.78,15.09 C17.7867,15.0433 17.7933,15.0033 17.8,14.97 L17.8,14.84 C17.7533,14.8667 17.7067,14.8967 17.66,14.93 C17.62,14.9633 17.58,14.9983 17.54,15.035 C17.5,15.0717 17.4733,15.1133 17.46,15.16 M17.23,15.01 C17.1833,15.0567 17.1433,15.1033 17.11,15.15 C17.0767,15.19 17.05,15.2367 17.03,15.29 C17.01,15.3433 17,15.3967 17,15.45 C17.0133,15.5633 17.0383,15.635 17.075,15.665 C17.1117,15.695 17.1433,15.71 17.17,15.71 C17.2033,15.6967 17.235,15.67 17.265,15.63 C17.295,15.59 17.31,15.5167 17.31,15.41 C17.3167,15.3633 17.3167,15.3167 17.31,15.27 C17.3033,15.2233 17.2933,15.18 17.28,15.14 C17.2667,15.0933 17.25,15.05 17.23,15.01 M16.66,15.37 C16.66,15.3767 16.655,15.3983 16.645,15.435 C16.635,15.4717 16.625,15.515 16.615,15.565 C16.605,15.615 16.6017,15.6683 16.605,15.725 C16.6083,15.7817 16.62,15.8333 16.64,15.88 C16.68,15.9733 16.7267,16.0317 16.78,16.055 C16.8333,16.0783 16.87,16.0833 16.89,16.07 C16.9233,16.05 16.95,16.015 16.97,15.965 C16.99,15.915 16.9767,15.8367 16.93,15.73 C16.9167,15.6767 16.895,15.6283 16.865,15.585 C16.835,15.5417 16.8033,15.5033 16.77,15.47 C16.7367,15.4367 16.7,15.4033 16.66,15.37 M16.25,15.84 C16.2433,15.8467 16.2383,15.8667 16.235,15.9 C16.2317,15.9333 16.2333,15.9733 16.24,16.02 C16.2467,16.0667 16.2567,16.1167 16.27,16.17 C16.2833,16.2233 16.3067,16.2733 16.34,16.32 C16.4067,16.4133 16.4717,16.4683 16.535,16.485 C16.5983,16.5017 16.64,16.5033 16.66,16.49 C16.68,16.47 16.6967,16.4283 16.71,16.365 C16.7233,16.3017 16.7,16.2233 16.64,16.13 C16.5667,16.0367 16.4867,15.9633 16.4,15.91 C16.3533,15.8833 16.3033,15.86 16.25,15.84 M16.3,16.56 C16.2067,16.48 16.11,16.4167 16.01,16.37 C15.9567,16.3433 15.9033,16.32 15.85,16.3 C15.8567,16.3467 15.8667,16.3967 15.88,16.45 C15.8933,16.4967 15.91,16.5467 15.93,16.6 C15.95,16.6533 15.98,16.7033 16.02,16.75 C16.0867,16.8433 16.1517,16.9 16.215,16.92 C16.2783,16.94 16.32,16.94 16.34,16.92 C16.3733,16.9067 16.3933,16.8667 16.4,16.8 C16.4067,16.7333 16.3733,16.6533 16.3,16.56 M15.94,16.92 C15.8667,16.8267 15.7833,16.745 15.69,16.675 C15.5967,16.605 15.5433,16.56 15.53,16.54 C15.53,16.56 15.5483,16.6133 15.585,16.7 C15.6217,16.7867 15.66,16.8867 15.7,17 C15.7333,17.1133 15.7767,17.1917 15.83,17.235 C15.8833,17.2783 15.9267,17.2933 15.96,17.28 C15.9933,17.2667 16.02,17.23 16.04,17.17 C16.06,17.11 16.0267,17.0267 15.94,16.92 M15.34,17.07 C15.32,17.2033 15.3283,17.2967 15.365,17.35 C15.4017,17.4033 15.4367,17.43 15.47,17.43 C15.5033,17.4433 15.5417,17.4217 15.585,17.365 C15.6283,17.3083 15.6333,17.2167 15.6,17.09 C15.5667,16.97 15.5333,16.86 15.5,16.76 C15.4667,16.66 15.4433,16.6 15.43,16.58 L15.43,16.73 C15.4167,16.77 15.4017,16.82 15.385,16.88 C15.3683,16.94 15.3533,17.0033 15.34,17.07 M14.9,17.02 C14.8667,17.1533 14.8667,17.2467 14.9,17.3 C14.9333,17.3533 14.9667,17.38 15,17.38 C15.0267,17.3933 15.0617,17.3767 15.105,17.33 C15.1483,17.2833 15.1767,17.2033 15.19,17.09 C15.2033,16.9567 15.2,16.8417 15.18,16.745 C15.16,16.6483 15.15,16.5933 15.15,16.58 C15.15,16.5933 15.1167,16.6417 15.05,16.725 C14.9833,16.8083 14.9333,16.9067 14.9,17.02 M14.41,16.94 C14.3967,17.0467 14.41,17.1217 14.45,17.165 C14.49,17.2083 14.5267,17.23 14.56,17.23 C14.5933,17.23 14.63,17.21 14.67,17.17 C14.71,17.13 14.73,17.0533 14.73,16.94 C14.7367,16.88 14.735,16.8233 14.725,16.77 C14.715,16.7167 14.7033,16.67 14.69,16.63 C14.67,16.5833 14.6533,16.5367 14.64,16.49 C14.6,16.5367 14.5667,16.5833 14.54,16.63 C14.5133,16.67 14.4883,16.7167 14.465,16.77 C14.4417,16.8233 14.4233,16.88 14.41,16.94 M14.39,17.79 C14.4767,17.7033 14.5183,17.63 14.515,17.57 C14.5117,17.51 14.4967,17.47 14.47,17.45 C14.45,17.4233 14.4067,17.4117 14.34,17.415 C14.2733,17.4183 14.1967,17.4567 14.11,17.53 C14.0567,17.57 14.0167,17.615 13.99,17.665 C13.9633,17.715 13.9433,17.7633 13.93,17.81 C13.91,17.8633 13.9,17.92 13.9,17.98 C13.96,17.98 14.02,17.97 14.08,17.95 C14.1333,17.9367 14.1867,17.9183 14.24,17.895 C14.2933,17.8717 14.3433,17.8367 14.39,17.79 M15.05,18 C15.0833,17.8667 15.0817,17.7733 15.045,17.72 C15.0083,17.6667 14.9733,17.6333 14.94,17.62 C14.9067,17.6067 14.8583,17.6133 14.795,17.64 C14.7317,17.6667 14.6733,17.7367 14.62,17.85 C14.5933,17.91 14.5783,17.97 14.575,18.03 C14.5717,18.09 14.5767,18.1467 14.59,18.2 C14.6033,18.26 14.62,18.32 14.64,18.38 C14.64,18.3867 14.6583,18.3817 14.695,18.365 C14.7317,18.3483 14.7733,18.3217 14.82,18.285 C14.8667,18.2483 14.9117,18.2067 14.955,18.16 C14.9983,18.1133 15.03,18.06 15.05,18 M15.7,18.53 C15.7067,18.53 15.7233,18.5117 15.75,18.475 C15.7767,18.4383 15.8017,18.3917 15.825,18.335 C15.8483,18.2783 15.8633,18.2167 15.87,18.15 C15.8767,18.0833 15.8633,18.02 15.83,17.96 C15.7767,17.8267 15.715,17.7467 15.645,17.72 C15.575,17.6933 15.5233,17.68 15.49,17.68 C15.4567,17.6933 15.4133,17.725 15.36,17.775 C15.3067,17.825 15.2867,17.9133 15.3,18.04 C15.3,18.1133 15.3183,18.1817 15.355,18.245 C15.3917,18.3083 15.4367,18.36 15.49,18.4 C15.5167,18.4267 15.5433,18.4467 15.57,18.46 C15.5967,18.4733 15.62,18.4867 15.64,18.5 L15.7,18.53 M15.89,17.49 C16.0033,17.4367 16.1017,17.37 16.185,17.29 C16.2683,17.21 16.34,17.1267 16.4,17.04 C16.5333,16.8867 16.6383,16.74 16.715,16.6 C16.7917,16.46 16.85,16.3533 16.89,16.28 C16.9767,16.1267 17.0667,15.99 17.16,15.87 C17.2533,15.75 17.3467,15.6533 17.44,15.58 C17.5267,15.5067 17.6017,15.4567 17.665,15.43 C17.7283,15.4033 17.7533,15.3833 17.74,15.37 C17.7067,15.3767 17.6733,15.39 17.64,15.41 C17.5667,15.45 17.4867,15.5067 17.4,15.58 C17.3067,15.6533 17.2133,15.75 17.12,15.87 C17.0267,15.99 16.9367,16.12 16.85,16.26 C16.8033,16.3333 16.7433,16.4383 16.67,16.575 C16.5967,16.7117 16.4933,16.86 16.36,17.02 C16.2933,17.0933 16.2217,17.1683 16.145,17.245 C16.0683,17.3217 15.9767,17.3833 15.87,17.43 C15.7767,17.4833 15.6717,17.515 15.555,17.525 C15.4383,17.535 15.3267,17.53 15.22,17.51 C14.9933,17.4767 14.7833,17.42 14.59,17.34 C14.3967,17.26 14.23,17.1767 14.09,17.09 C14.0167,17.0567 13.9517,17.0217 13.895,16.985 C13.8383,16.9483 13.79,16.9167 13.75,16.89 C13.7033,16.8633 13.66,16.8367 13.62,16.81 L13.58,16.9 C13.6133,16.9267 13.6533,16.9533 13.7,16.98 C13.74,17.0067 13.79,17.0367 13.85,17.07 C13.91,17.1033 13.9767,17.1367 14.05,17.17 C14.1833,17.2433 14.3483,17.3233 14.545,17.41 C14.7417,17.4967 14.9567,17.55 15.19,17.57 C15.31,17.5967 15.43,17.6033 15.55,17.59 C15.67,17.5767 15.7833,17.5433 15.89,17.49 M16.15,17.89 C16.1967,17.9433 16.2583,17.9767 16.335,17.99 C16.4117,18.0033 16.4867,18.01 16.56,18.01 C16.6467,18.01 16.7367,18 16.83,17.98 C16.8167,17.9133 16.7967,17.8467 16.77,17.78 C16.7233,17.6533 16.6433,17.5567 16.53,17.49 C16.4167,17.4233 16.3217,17.3983 16.245,17.415 C16.1683,17.4317 16.1133,17.45 16.08,17.47 C16.06,17.5033 16.045,17.555 16.035,17.625 C16.025,17.695 16.0633,17.7833 16.15,17.89 M16.74,17.34 C16.8067,17.3533 16.8733,17.3567 16.94,17.35 C17.0067,17.3433 17.0667,17.33 17.12,17.31 C17.1867,17.29 17.25,17.2633 17.31,17.23 C17.27,17.1833 17.2267,17.14 17.18,17.1 C17.14,17.0667 17.0933,17.035 17.04,17.005 C16.9867,16.975 16.93,16.9533 16.87,16.94 C16.7567,16.9067 16.6717,16.9067 16.615,16.94 C16.5583,16.9733 16.5233,17.0067 16.51,17.04 C16.4967,17.0733 16.5033,17.1217 16.53,17.185 C16.5567,17.2483 16.6267,17.3 16.74,17.34 M17.55,16.64 C17.5367,16.6267 17.4867,16.5917 17.4,16.535 C17.3133,16.4783 17.2133,16.4433 17.1,16.43 C16.9933,16.4167 16.9183,16.43 16.875,16.47 C16.8317,16.51 16.81,16.5467 16.81,16.58 C16.7967,16.6 16.81,16.6333 16.85,16.68 C16.89,16.7267 16.9667,16.7567 17.08,16.77 C17.1933,16.77 17.2967,16.7483 17.39,16.705 C17.4833,16.6617 17.5367,16.64 17.55,16.64 M17.34,16.32 C17.3867,16.32 17.4333,16.3167 17.48,16.31 C17.5267,16.3033 17.5667,16.2933 17.6,16.28 C17.64,16.2667 17.68,16.2533 17.72,16.24 C17.68,16.2067 17.64,16.1767 17.6,16.15 C17.5667,16.1233 17.5267,16.1 17.48,16.08 C17.4333,16.06 17.3867,16.0433 17.34,16.03 C17.2267,16.0167 17.1517,16.0283 17.115,16.065 C17.0783,16.1017 17.06,16.1367 17.06,16.17 C17.06,16.1967 17.0783,16.2283 17.115,16.265 C17.1517,16.3017 17.2267,16.32 17.34,16.32 M17.87,15.96 L17.86,15.96 C17.8533,15.9467 17.8217,15.9067 17.765,15.84 C17.7083,15.7733 17.6367,15.73 17.55,15.71 C17.4633,15.69 17.3983,15.6967 17.355,15.73 C17.3117,15.7633 17.29,15.79 17.29,15.81 C17.29,15.8367 17.31,15.865 17.35,15.895 C17.39,15.925 17.4567,15.9467 17.55,15.96 C17.63,15.9733 17.7,15.975 17.76,15.965 C17.82,15.955 17.8533,15.9533 17.86,15.96 L17.87,15.96 M17.78,15.71 C17.8133,15.7233 17.8483,15.7333 17.885,15.74 C17.9217,15.7467 17.9533,15.7533 17.98,15.76 C18.0067,15.7667 18.0333,15.77 18.06,15.77 C18.0467,15.7233 18.03,15.6833 18.01,15.65 C17.99,15.6167 17.9667,15.585 17.94,15.555 C17.9133,15.525 17.8833,15.4967 17.85,15.47 C17.7767,15.4367 17.7183,15.43 17.675,15.45 C17.6317,15.47 17.6033,15.4933 17.59,15.52 C17.59,15.5533 17.6033,15.5883 17.63,15.625 C17.6567,15.6617 17.7067,15.69 17.78,15.71 M18.1,15.41 C18.1733,15.3967 18.2467,15.3733 18.32,15.34 C18.3533,15.32 18.3867,15.3 18.42,15.28 C18.3867,15.2533 18.35,15.23 18.31,15.21 C18.2767,15.1967 18.2383,15.1833 18.195,15.17 C18.1517,15.1567 18.1067,15.1533 18.06,15.16 C17.9667,15.1733 17.9083,15.2017 17.885,15.245 C17.8617,15.2883 17.85,15.3233 17.85,15.35 C17.8633,15.3633 17.8867,15.38 17.92,15.4 C17.9533,15.42 18.0133,15.4233 18.1,15.41 "/>
</g>

<g fill="none" stroke="none" transform="matrix(1.33333,0,0,1.33333,0,0)"
font-family="MS Shell Dlg 2" font-size="8.25" font-weight="400" font-style="normal" 
>
</g>

<g fill="none" stroke="none" transform="matrix(1,0,0,1,0,0)"
font-family="MS Shell Dlg 2" font-size="8.25" font-weight="400" font-style="normal" 
>
</g>

<g fill="none" stroke="#000000" stroke-opacity="1" stroke-width="1" stroke-linecap="square" stroke-linejoin="bevel" transform="matrix(1,0,0,1,0,0)"
font-family="MS Shell Dlg 2" font-size="8.25" font-weight="400" font-style="normal" 
>
</g>
</g>
</svg>
