<?xml version="1.0" encoding="UTF-8" standalone="no"?>
<svg
   xmlns:dc="http://purl.org/dc/elements/1.1/"
   xmlns:cc="http://creativecommons.org/ns#"
   xmlns:rdf="http://www.w3.org/1999/02/22-rdf-syntax-ns#"
   xmlns:svg="http://www.w3.org/2000/svg"
   xmlns="http://www.w3.org/2000/svg"
   xmlns:sodipodi="http://sodipodi.sourceforge.net/DTD/sodipodi-0.dtd"
   xmlns:inkscape="http://www.inkscape.org/namespaces/inkscape"
   inkscape:version="1.0 (4035a4fb49, 2020-05-01)"
   sodipodi:docname="200k_23.svg"
   id="svg38"
   version="1.2"
   viewBox="0 0 10.962 10.962"
   height="3.8671539mm"
   width="3.8671539mm">
  <metadata
     id="metadata42">
    <rdf:RDF>
      <cc:Work
         rdf:about="">
        <dc:format>image/svg+xml</dc:format>
        <dc:type
           rdf:resource="http://purl.org/dc/dcmitype/StillImage" />
      </cc:Work>
    </rdf:RDF>
  </metadata>
  <sodipodi:namedview
     inkscape:current-layer="svg38"
     inkscape:window-maximized="1"
     inkscape:window-y="-9"
     inkscape:window-x="-9"
     inkscape:cy="5.832006"
     inkscape:cx="7.4133409"
     inkscape:zoom="18.047943"
     showgrid="false"
     id="namedview40"
     inkscape:window-height="1013"
     inkscape:window-width="1920"
     inkscape:pageshadow="2"
     inkscape:pageopacity="0"
     guidetolerance="10"
     gridtolerance="10"
     objecttolerance="10"
     borderopacity="1"
     bordercolor="#666666"
     pagecolor="#ffffff" />
  <title
     id="title2">Qt SVG Document</title>
  <desc
     id="desc4">Generated with Qt</desc>
  <defs
     id="defs6" />
  <g
     transform="translate(-10.44,-11.626)"
     id="g36"
     stroke-linejoin="bevel"
     stroke-linecap="square"
     fill-rule="evenodd"
     stroke-width="1"
     stroke="#000000"
     fill="none">
    <g
       id="g8"
       font-style="normal"
       font-weight="400"
       font-size="8.25px"
       font-family="'MS Shell Dlg 2'"
       stroke="none"
       fill="none" />
    <g
       id="g10"
       font-style="normal"
       font-weight="400"
       font-size="8.25px"
       font-family="'MS Shell Dlg 2'"
       transform="scale(1.33333)"
       stroke="none"
       fill="none" />
    <g
       id="g14"
       font-style="normal"
       font-weight="400"
       font-size="8.25px"
       font-family="'MS Shell Dlg 2'"
       stroke="none"
       fill-opacity="1"
       fill="#33a02c">
      <path
         id="path12"
         d="m 21.402,17.114 c 0,0.756 -0.1423,1.4677 -0.427,2.135 -0.2847,0.6673 -0.6767,1.2483 -1.176,1.743 -0.4993,0.4947 -1.0827,0.8843 -1.75,1.169 -0.6673,0.2847 -1.379,0.427 -2.135,0.427 -0.756,0 -1.4677,-0.1423 -2.135,-0.427 -0.6673,-0.2847 -1.2483,-0.6743 -1.743,-1.169 -0.4947,-0.4947 -0.8843,-1.0757 -1.169,-1.743 -0.2847,-0.6673 -0.427,-1.379 -0.427,-2.135 0,-0.756 0.1423,-1.4677 0.427,-2.135 0.2847,-0.6673 0.6743,-1.2507 1.169,-1.75 0.4947,-0.4993 1.0757,-0.8913 1.743,-1.176 0.6673,-0.2847 1.379,-0.427 2.135,-0.427 0.756,0 1.4677,0.1423 2.135,0.427 0.6673,0.2847 1.2507,0.6767 1.75,1.176 0.4993,0.4993 0.8913,1.0827 1.176,1.75 0.2847,0.6673 0.427,1.379 0.427,2.135"
         fill-rule="evenodd"
         vector-effect="none" />
    </g>
    <g
       id="g16"
       font-style="normal"
       font-weight="400"
       font-size="8.25px"
       font-family="'MS Shell Dlg 2'"
       transform="scale(1.33333)"
       stroke="none"
       fill="none" />
    <g
       id="g18"
       font-style="normal"
       font-weight="400"
       font-size="8.25px"
       font-family="'MS Shell Dlg 2'"
       stroke="none"
       fill="none" />
    <g
       id="g20"
       font-style="normal"
       font-weight="400"
       font-size="8.25px"
       font-family="'MS Shell Dlg 2'"
       stroke-linejoin="bevel"
       stroke-linecap="square"
       stroke-width="1"
       stroke-opacity="1"
       stroke="#000000"
       fill="none" />
    <g
       id="g22"
       font-style="normal"
       font-weight="400"
       font-size="8.25px"
       font-family="'MS Shell Dlg 2'"
       stroke="none"
       fill="none" />
    <g
       id="g24"
       font-style="normal"
       font-weight="400"
       font-size="8.25px"
       font-family="'MS Shell Dlg 2'"
       transform="scale(1.33333)"
       stroke="none"
       fill="none" />
    <g
       id="g28"
       font-style="normal"
       font-weight="400"
       font-size="8.25px"
       font-family="'MS Shell Dlg 2'"
       stroke="none"
       fill-opacity="1"
       fill="#ffffff">
      <path
         id="path26"
         d="m 18.282634,14.642557 c 0.0267,0.0667 0.0683,0.1867 0.125,0.36 0.0567,0.1733 0.09,0.3867 0.1,0.64 0.01,0.2533 -0.0233,0.545 -0.1,0.875 -0.0767,0.33 -0.2283,0.6883 -0.455,1.075 l 0.06,0.78 -0.76,0.68 -0.13,-0.38 c -0.2067,0.1667 -0.4283,0.3017 -0.665,0.405 -0.2367,0.1033 -0.4683,0.1817 -0.695,0.235 -0.2267,0.0533 -0.4383,0.09 -0.635,0.11 -0.1967,0.02 -0.355,0.03 -0.475,0.03 l -0.97,0.72 h -0.02 c -0.02,0.0133 -0.0383,0.0117 -0.055,-0.005 -0.0167,-0.0167 -0.025,-0.0383 -0.025,-0.065 v -0.04 l 0.27,-0.88 -0.5,-0.78 c -0.0133,-0.02 -0.02,-0.0367 -0.02,-0.05 0,-0.02 0.0067,-0.0383 0.02,-0.055 0.0133,-0.0167 0.0267,-0.025 0.04,-0.025 h 0.04 l 1.14,0.48 c 0.2733,-0.0267 0.5017,-0.1117 0.685,-0.255 0.1833,-0.1433 0.3317,-0.305 0.445,-0.485 0.1133,-0.18 0.1983,-0.355 0.255,-0.525 0.0567,-0.17 0.095,-0.295 0.115,-0.375 0.0267,-0.1333 0.0733,-0.2983 0.14,-0.495 0.0667,-0.1967 0.1517,-0.4033 0.255,-0.62 0.1033,-0.2167 0.2217,-0.4267 0.355,-0.63 0.1333,-0.2033 0.2767,-0.375 0.43,-0.515 l 0.38,-0.36 c -0.0667,0.1333 -0.1183,0.2717 -0.155,0.415 -0.0367,0.1433 -0.0683,0.275 -0.095,0.395 -0.0267,0.14 -0.05,0.28 -0.07,0.42 0.1467,-0.2 0.28,-0.38 0.4,-0.54 0.1067,-0.1333 0.2133,-0.2567 0.32,-0.37 0.1067,-0.1133 0.19,-0.17 0.25,-0.17 m -0.59,1.52 c 0.0133,0.0667 0.045,0.1217 0.095,0.165 0.05,0.0433 0.1117,0.0583 0.185,0.045 0.0533,-0.0133 0.0983,-0.045 0.135,-0.095 0.0367,-0.05 0.0483,-0.1017 0.035,-0.155 0,-0.0667 -0.0267,-0.1217 -0.08,-0.165 -0.0533,-0.0433 -0.1133,-0.0583 -0.18,-0.045 -0.06,0.0133 -0.11,0.0417 -0.15,0.085 -0.04,0.0433 -0.0533,0.0983 -0.04,0.165 m -3.04,0.61 c -0.1333,-0.06 -0.2467,-0.1367 -0.34,-0.23 -0.0933,-0.0933 -0.1617,-0.2 -0.205,-0.32 -0.0433,-0.12 -0.065,-0.2467 -0.065,-0.38 0,-0.1333 0.0233,-0.2667 0.07,-0.4 0.0667,-0.18 0.1517,-0.3417 0.255,-0.485 0.1033,-0.1433 0.205,-0.2733 0.305,-0.39 0.1,-0.1167 0.1867,-0.2183 0.26,-0.305 0.0733,-0.0867 0.1167,-0.1633 0.13,-0.23 l 0.35,0.02 c -0.0533,0.1133 -0.1283,0.2217 -0.225,0.325 -0.0967,0.1033 -0.1983,0.2083 -0.305,0.315 -0.1067,0.1067 -0.2083,0.2183 -0.305,0.335 -0.0967,0.1167 -0.1683,0.2417 -0.215,0.375 -0.0933,0.24 -0.1067,0.4667 -0.04,0.68 0.0667,0.2133 0.2267,0.3733 0.48,0.48 0.2333,0.0867 0.4683,0.03 0.705,-0.17 0.2367,-0.2 0.4317,-0.55 0.585,-1.05 -0.0067,0.02 -0.0117,0.0933 -0.015,0.22 -0.0033,0.1267 -0.005,0.26 -0.005,0.4 v 0.56 c -0.0133,-0.0467 -0.0267,-0.0933 -0.04,-0.14 -0.0133,-0.0333 -0.025,-0.0683 -0.035,-0.105 -0.01,-0.0367 -0.0217,-0.0617 -0.035,-0.075 -0.0467,0.1333 -0.1167,0.2483 -0.21,0.345 -0.0933,0.0967 -0.2,0.17 -0.32,0.22 -0.12,0.05 -0.2467,0.0767 -0.38,0.08 -0.1333,0.0033 -0.2667,-0.0217 -0.4,-0.075"
         fill-rule="evenodd"
         vector-effect="none" />
    </g>
    <g
       id="g30"
       font-style="normal"
       font-weight="400"
       font-size="8.25px"
       font-family="'MS Shell Dlg 2'"
       transform="scale(1.33333)"
       stroke="none"
       fill="none" />
    <g
       id="g32"
       font-style="normal"
       font-weight="400"
       font-size="8.25px"
       font-family="'MS Shell Dlg 2'"
       stroke="none"
       fill="none" />
    <g
       id="g34"
       font-style="normal"
       font-weight="400"
       font-size="8.25px"
       font-family="'MS Shell Dlg 2'"
       stroke-linejoin="bevel"
       stroke-linecap="square"
       stroke-width="1"
       stroke-opacity="1"
       stroke="#000000"
       fill="none" />
  </g>
</svg>
