<?xml version="1.0" encoding="UTF-8" standalone="no"?>
<svg
   xmlns:dc="http://purl.org/dc/elements/1.1/"
   xmlns:cc="http://creativecommons.org/ns#"
   xmlns:rdf="http://www.w3.org/1999/02/22-rdf-syntax-ns#"
   xmlns:svg="http://www.w3.org/2000/svg"
   xmlns="http://www.w3.org/2000/svg"
   xmlns:sodipodi="http://sodipodi.sourceforge.net/DTD/sodipodi-0.dtd"
   xmlns:inkscape="http://www.inkscape.org/namespaces/inkscape"
   inkscape:version="1.0 (4035a4fb49, 2020-05-01)"
   sodipodi:docname="200k_76.svg"
   id="svg22"
   version="1.2"
   viewBox="0 0 10.962 10.962"
   height="3.8671539mm"
   width="3.8671539mm">
  <metadata
     id="metadata26">
    <rdf:RDF>
      <cc:Work
         rdf:about="">
        <dc:format>image/svg+xml</dc:format>
        <dc:type
           rdf:resource="http://purl.org/dc/dcmitype/StillImage" />
      </cc:Work>
    </rdf:RDF>
  </metadata>
  <sodipodi:namedview
     inkscape:current-layer="svg22"
     inkscape:window-maximized="1"
     inkscape:window-y="-9"
     inkscape:window-x="-9"
     inkscape:cy="5.832006"
     inkscape:cx="7.4133409"
     inkscape:zoom="18.047943"
     showgrid="false"
     id="namedview24"
     inkscape:window-height="1013"
     inkscape:window-width="1920"
     inkscape:pageshadow="2"
     inkscape:pageopacity="0"
     guidetolerance="10"
     gridtolerance="10"
     objecttolerance="10"
     borderopacity="1"
     bordercolor="#666666"
     pagecolor="#ffffff" />
  <title
     id="title2">Qt SVG Document</title>
  <desc
     id="desc4">Generated with Qt</desc>
  <defs
     id="defs6" />
  <g
     transform="translate(-10.44,-11.626)"
     id="g20"
     stroke-linejoin="bevel"
     stroke-linecap="square"
     fill-rule="evenodd"
     stroke-width="1"
     stroke="#000000"
     fill="none">
    <g
       id="g10"
       font-style="normal"
       font-weight="400"
       font-size="8.25px"
       font-family="'MS Shell Dlg 2'"
       stroke="none"
       fill-opacity="1"
       fill="#1f78b4">
      <path
         id="path8"
         d="m 21.402,17.114 c 0,0.756 -0.1423,1.4677 -0.427,2.135 -0.2847,0.6673 -0.6767,1.2483 -1.176,1.743 -0.4993,0.4947 -1.0827,0.8843 -1.75,1.169 -0.6673,0.2847 -1.379,0.427 -2.135,0.427 -0.756,0 -1.4677,-0.1423 -2.135,-0.427 -0.6673,-0.2847 -1.2483,-0.6743 -1.743,-1.169 -0.4947,-0.4947 -0.8843,-1.0757 -1.169,-1.743 -0.2847,-0.6673 -0.427,-1.379 -0.427,-2.135 0,-0.756 0.1423,-1.4677 0.427,-2.135 0.2847,-0.6673 0.6743,-1.2507 1.169,-1.75 0.4947,-0.4993 1.0757,-0.8913 1.743,-1.176 0.6673,-0.2847 1.379,-0.427 2.135,-0.427 0.756,0 1.4677,0.1423 2.135,0.427 0.6673,0.2847 1.2507,0.6767 1.75,1.176 0.4993,0.4993 0.8913,1.0827 1.176,1.75 0.2847,0.6673 0.427,1.379 0.427,2.135"
         fill-rule="evenodd"
         vector-effect="none" />
    </g>
    <g
       id="g12"
       font-style="normal"
       font-weight="400"
       font-size="8.25px"
       font-family="'MS Shell Dlg 2'"
       stroke="none"
       fill-opacity="1"
       fill="#1f78b4" />
    <g
       id="g16"
       font-style="normal"
       font-weight="400"
       font-size="8.25px"
       font-family="'MS Shell Dlg 2'"
       stroke="none"
       fill-opacity="1"
       fill="#ffffff">
      <path
         id="path14"
         d="m 16.0475,15.875 -0.693,0.66 0.649,0.341 c 0.1173,0.0733 0.187,0.154 0.209,0.242 0.0147,0.044 0.022,0.088 0.022,0.132 v 1.441 c 0,0.0807 -0.0312,0.1503 -0.0935,0.209 -0.0623,0.0587 -0.1338,0.088 -0.2145,0.088 -0.088,0 -0.1595,-0.0293 -0.2145,-0.088 -0.055,-0.0587 -0.0825,-0.1283 -0.0825,-0.209 v -1.166 l -1.122,-0.627 c -0.132,-0.066 -0.198,-0.187 -0.198,-0.363 0,-0.1173 0.0293,-0.2163 0.088,-0.297 l 1.1,-1.078 c 0.0587,-0.066 0.1283,-0.1063 0.209,-0.121 0.0367,-0.0073 0.0733,-0.011 0.11,-0.011 0.0587,0 0.1082,0.011 0.1485,0.033 0.0403,0.022 0.0752,0.0477 0.1045,0.077 0.0293,0.0293 0.0587,0.0623 0.088,0.099 l 0.572,0.891 h 0.847 c 0.0807,-0.0073 0.1412,0.0092 0.1815,0.0495 0.0403,0.0403 0.0605,0.0862 0.0605,0.1375 0,0.0513 -0.0202,0.0972 -0.0605,0.1375 -0.0403,0.0403 -0.1008,0.0605 -0.1815,0.0605 h -0.979 c -0.0367,0 -0.0752,-0.0073 -0.1155,-0.022 -0.0403,-0.0147 -0.0788,-0.0513 -0.1155,-0.11 l -0.319,-0.506 m 0.528,-0.594 c -0.1467,0 -0.2713,-0.0513 -0.374,-0.154 -0.1027,-0.1027 -0.154,-0.2273 -0.154,-0.374 0,-0.1393 0.0513,-0.2585 0.154,-0.3575 0.1027,-0.099 0.2273,-0.1485 0.374,-0.1485 0.1393,0 0.2585,0.0495 0.3575,0.1485 0.099,0.099 0.1485,0.2182 0.1485,0.3575 0,0.1467 -0.0495,0.2713 -0.1485,0.374 -0.099,0.1027 -0.2182,0.154 -0.3575,0.154 m 1.276,1.804 c 0.198,0 0.385,0.0367 0.561,0.11 0.176,0.0733 0.33,0.176 0.462,0.308 0.132,0.132 0.2347,0.286 0.308,0.462 0.0733,0.176 0.11,0.363 0.11,0.561 0,0.198 -0.0367,0.385 -0.11,0.561 -0.0733,0.176 -0.176,0.33 -0.308,0.462 -0.132,0.132 -0.286,0.2347 -0.462,0.308 -0.176,0.0733 -0.363,0.11 -0.561,0.11 -0.198,0 -0.385,-0.0367 -0.561,-0.11 -0.176,-0.0733 -0.33,-0.176 -0.462,-0.308 -0.132,-0.132 -0.2347,-0.286 -0.308,-0.462 -0.0733,-0.176 -0.11,-0.363 -0.11,-0.561 0,-0.198 0.0367,-0.385 0.11,-0.561 0.0733,-0.176 0.176,-0.33 0.308,-0.462 0.132,-0.132 0.286,-0.2347 0.462,-0.308 0.176,-0.0733 0.363,-0.11 0.561,-0.11 m 0,2.607 c 0.1613,0 0.3135,-0.0312 0.4565,-0.0935 0.143,-0.0623 0.2658,-0.1467 0.3685,-0.253 0.1027,-0.1063 0.1852,-0.2292 0.2475,-0.3685 0.0623,-0.1393 0.0935,-0.2897 0.0935,-0.451 0,-0.1613 -0.0312,-0.3117 -0.0935,-0.451 C 18.8617,17.9357 18.7792,17.8128 18.6765,17.7065 18.5738,17.6002 18.451,17.5158 18.308,17.4535 18.165,17.3912 18.0128,17.36 17.8515,17.36 c -0.1613,0 -0.3117,0.0312 -0.451,0.0935 -0.1393,0.0623 -0.2622,0.1467 -0.3685,0.253 -0.1063,0.1063 -0.1907,0.2292 -0.253,0.3685 -0.0623,0.1393 -0.0935,0.2897 -0.0935,0.451 0,0.1613 0.0312,0.3117 0.0935,0.451 0.0623,0.1393 0.1467,0.2622 0.253,0.3685 0.1063,0.1063 0.2292,0.1907 0.3685,0.253 0.1393,0.0623 0.2897,0.0935 0.451,0.0935 m -3.861,-2.629 c 0.198,0 0.385,0.0385 0.561,0.1155 0.176,0.077 0.3282,0.1815 0.4565,0.3135 0.1283,0.132 0.231,0.2842 0.308,0.4565 0.077,0.1723 0.1155,0.3575 0.1155,0.5555 0,0.198 -0.0385,0.385 -0.1155,0.561 -0.077,0.176 -0.1797,0.33 -0.308,0.462 -0.1283,0.132 -0.2805,0.2347 -0.4565,0.308 -0.176,0.0733 -0.363,0.11 -0.561,0.11 -0.198,0 -0.385,-0.0367 -0.561,-0.11 -0.176,-0.0733 -0.33,-0.176 -0.462,-0.308 -0.132,-0.132 -0.2347,-0.286 -0.308,-0.462 -0.0733,-0.176 -0.11,-0.363 -0.11,-0.561 0,-0.198 0.0367,-0.3832 0.11,-0.5555 0.0733,-0.1723 0.176,-0.3245 0.308,-0.4565 0.132,-0.132 0.286,-0.2365 0.462,-0.3135 0.176,-0.077 0.363,-0.1155 0.561,-0.1155 m 0,2.607 c 0.1613,0 0.3117,-0.0293 0.451,-0.088 0.1393,-0.0587 0.2622,-0.1412 0.3685,-0.2475 0.1063,-0.1063 0.1907,-0.2292 0.253,-0.3685 0.0623,-0.1393 0.0935,-0.2933 0.0935,-0.462 0,-0.1613 -0.0312,-0.3117 -0.0935,-0.451 -0.0623,-0.1393 -0.1467,-0.2622 -0.253,-0.3685 -0.1063,-0.1063 -0.2292,-0.1907 -0.3685,-0.253 -0.1393,-0.0623 -0.2897,-0.0935 -0.451,-0.0935 -0.1613,0 -0.3135,0.0312 -0.4565,0.0935 -0.143,0.0623 -0.2677,0.1467 -0.374,0.253 -0.1063,0.1063 -0.1907,0.2292 -0.253,0.3685 -0.0623,0.1393 -0.0935,0.2897 -0.0935,0.451 0,0.1687 0.0312,0.3227 0.0935,0.462 0.0623,0.1393 0.1467,0.2622 0.253,0.3685 0.1063,0.1063 0.231,0.1888 0.374,0.2475 0.143,0.0587 0.2952,0.088 0.4565,0.088"
         fill-rule="evenodd"
         vector-effect="none" />
    </g>
    <g
       id="g18"
       font-style="normal"
       font-weight="400"
       font-size="8.25px"
       font-family="'MS Shell Dlg 2'"
       stroke="none"
       fill-opacity="1"
       fill="#ffffff" />
  </g>
</svg>
