<?xml version="1.0" encoding="UTF-8" standalone="no"?>
<svg
   xmlns:dc="http://purl.org/dc/elements/1.1/"
   xmlns:cc="http://creativecommons.org/ns#"
   xmlns:rdf="http://www.w3.org/1999/02/22-rdf-syntax-ns#"
   xmlns:svg="http://www.w3.org/2000/svg"
   xmlns="http://www.w3.org/2000/svg"
   xmlns:sodipodi="http://sodipodi.sourceforge.net/DTD/sodipodi-0.dtd"
   xmlns:inkscape="http://www.inkscape.org/namespaces/inkscape"
   inkscape:version="1.0 (4035a4fb49, 2020-05-01)"
   sodipodi:docname="200k_21.svg"
   id="svg38"
   version="1.2"
   viewBox="0 0 10.962 10.962"
   height="3.8671539mm"
   width="3.8671539mm">
  <metadata
     id="metadata42">
    <rdf:RDF>
      <cc:Work
         rdf:about="">
        <dc:format>image/svg+xml</dc:format>
        <dc:type
           rdf:resource="http://purl.org/dc/dcmitype/StillImage" />
      </cc:Work>
    </rdf:RDF>
  </metadata>
  <sodipodi:namedview
     inkscape:current-layer="svg38"
     inkscape:window-maximized="1"
     inkscape:window-y="-9"
     inkscape:window-x="-9"
     inkscape:cy="5.832006"
     inkscape:cx="7.4133409"
     inkscape:zoom="18.047943"
     showgrid="false"
     id="namedview40"
     inkscape:window-height="1013"
     inkscape:window-width="1920"
     inkscape:pageshadow="2"
     inkscape:pageopacity="0"
     guidetolerance="10"
     gridtolerance="10"
     objecttolerance="10"
     borderopacity="1"
     bordercolor="#666666"
     pagecolor="#ffffff" />
  <title
     id="title2">Qt SVG Document</title>
  <desc
     id="desc4">Generated with Qt</desc>
  <defs
     id="defs6" />
  <g
     transform="translate(-10.44,-11.626)"
     id="g36"
     stroke-linejoin="bevel"
     stroke-linecap="square"
     fill-rule="evenodd"
     stroke-width="1"
     stroke="#000000"
     fill="none">
    <g
       id="g8"
       font-style="normal"
       font-weight="400"
       font-size="8.25px"
       font-family="'MS Shell Dlg 2'"
       stroke="none"
       fill="none" />
    <g
       id="g10"
       font-style="normal"
       font-weight="400"
       font-size="8.25px"
       font-family="'MS Shell Dlg 2'"
       transform="scale(1.33333)"
       stroke="none"
       fill="none" />
    <g
       id="g14"
       font-style="normal"
       font-weight="400"
       font-size="8.25px"
       font-family="'MS Shell Dlg 2'"
       stroke="none"
       fill-opacity="1"
       fill="#1f78b4">
      <path
         id="path12"
         d="m 21.402,17.114 c 0,0.756 -0.1423,1.4677 -0.427,2.135 -0.2847,0.6673 -0.6767,1.2483 -1.176,1.743 -0.4993,0.4947 -1.0827,0.8843 -1.75,1.169 -0.6673,0.2847 -1.379,0.427 -2.135,0.427 -0.756,0 -1.4677,-0.1423 -2.135,-0.427 -0.6673,-0.2847 -1.2483,-0.6743 -1.743,-1.169 -0.4947,-0.4947 -0.8843,-1.0757 -1.169,-1.743 -0.2847,-0.6673 -0.427,-1.379 -0.427,-2.135 0,-0.756 0.1423,-1.4677 0.427,-2.135 0.2847,-0.6673 0.6743,-1.2507 1.169,-1.75 0.4947,-0.4993 1.0757,-0.8913 1.743,-1.176 0.6673,-0.2847 1.379,-0.427 2.135,-0.427 0.756,0 1.4677,0.1423 2.135,0.427 0.6673,0.2847 1.2507,0.6767 1.75,1.176 0.4993,0.4993 0.8913,1.0827 1.176,1.75 0.2847,0.6673 0.427,1.379 0.427,2.135"
         fill-rule="evenodd"
         vector-effect="none" />
    </g>
    <g
       id="g16"
       font-style="normal"
       font-weight="400"
       font-size="8.25px"
       font-family="'MS Shell Dlg 2'"
       transform="scale(1.33333)"
       stroke="none"
       fill="none" />
    <g
       id="g18"
       font-style="normal"
       font-weight="400"
       font-size="8.25px"
       font-family="'MS Shell Dlg 2'"
       stroke="none"
       fill="none" />
    <g
       id="g20"
       font-style="normal"
       font-weight="400"
       font-size="8.25px"
       font-family="'MS Shell Dlg 2'"
       stroke-linejoin="bevel"
       stroke-linecap="square"
       stroke-width="1"
       stroke-opacity="1"
       stroke="#000000"
       fill="none" />
    <g
       id="g22"
       font-style="normal"
       font-weight="400"
       font-size="8.25px"
       font-family="'MS Shell Dlg 2'"
       stroke="none"
       fill="none" />
    <g
       id="g24"
       font-style="normal"
       font-weight="400"
       font-size="8.25px"
       font-family="'MS Shell Dlg 2'"
       transform="scale(1.33333)"
       stroke="none"
       fill="none" />
    <g
       id="g28"
       font-style="normal"
       font-weight="400"
       font-size="8.25px"
       font-family="'MS Shell Dlg 2'"
       stroke="none"
       fill-opacity="1"
       fill="#ffffff">
      <path
         id="path26"
         d="m 14.3545,17.9975 c -0.1127,0 -0.2058,-0.0368 -0.2795,-0.1105 -0.0737,-0.0737 -0.1105,-0.1668 -0.1105,-0.2795 0,-0.104 0.0368,-0.1928 0.1105,-0.2665 0.0737,-0.0737 0.1668,-0.1105 0.2795,-0.1105 0.1127,0 0.2037,0.0368 0.273,0.1105 0.0693,0.0737 0.104,0.1625 0.104,0.2665 0,0.1127 -0.0347,0.2058 -0.104,0.2795 -0.0693,0.0737 -0.1603,0.1105 -0.273,0.1105 m 2.288,-0.52 c 0.1647,0 0.3228,0.0195 0.4745,0.0585 0.1517,0.039 0.286,0.0932 0.403,0.1625 0.117,0.0693 0.2102,0.1538 0.2795,0.2535 0.0693,0.0997 0.104,0.2058 0.104,0.3185 v 0.325 h -2.405 v -1.118 h 1.144 m -1.612,-0.026 c 0.0607,0 0.1083,0.0195 0.143,0.0585 0.0347,0.039 0.052,0.0802 0.052,0.1235 v 0.767 c 0,0.13 -0.065,0.195 -0.195,0.195 h -0.871 c -0.052,0 -0.0975,-0.0179 -0.1365,-0.0538 -0.039,-0.0359 -0.0585,-0.0852 -0.0585,-0.1479 0,-0.0448 0.0195,-0.0874 0.0585,-0.1278 0.039,-0.0403 0.0845,-0.0605 0.1365,-0.0605 h 0.689 v -0.575 c 0,-0.0427 0.0173,-0.0832 0.052,-0.1215 0.0347,-0.0383 0.078,-0.0575 0.13,-0.0575 m 3.627,2.366 h 0.52 v 0.442 h -6.513 v -0.442 h 0.429 v -2.34 h -1.274 l 4.108,-3.445 1.56,1.313 v -0.871 h -0.104 v -0.52 h 0.871 v 0.52 h -0.104 v 1.417 l 1.872,1.586 h -1.365 v 2.34 m -0.351,-0.507 h -4.823 v 0.507 h 4.823 v -0.507 m 0,-2.21 h 0.715 l -3.094,-2.6 -3.107,2.6 h 0.663 v 1.859 h 4.823 v -1.859"
         fill-rule="evenodd"
         vector-effect="none" />
    </g>
    <g
       id="g30"
       font-style="normal"
       font-weight="400"
       font-size="8.25px"
       font-family="'MS Shell Dlg 2'"
       transform="scale(1.33333)"
       stroke="none"
       fill="none" />
    <g
       id="g32"
       font-style="normal"
       font-weight="400"
       font-size="8.25px"
       font-family="'MS Shell Dlg 2'"
       stroke="none"
       fill="none" />
    <g
       id="g34"
       font-style="normal"
       font-weight="400"
       font-size="8.25px"
       font-family="'MS Shell Dlg 2'"
       stroke-linejoin="bevel"
       stroke-linecap="square"
       stroke-width="1"
       stroke-opacity="1"
       stroke="#000000"
       fill="none" />
  </g>
</svg>
