<?xml version="1.0" encoding="UTF-8" standalone="no"?>
<svg
   xmlns:dc="http://purl.org/dc/elements/1.1/"
   xmlns:cc="http://creativecommons.org/ns#"
   xmlns:rdf="http://www.w3.org/1999/02/22-rdf-syntax-ns#"
   xmlns:svg="http://www.w3.org/2000/svg"
   xmlns="http://www.w3.org/2000/svg"
   xmlns:sodipodi="http://sodipodi.sourceforge.net/DTD/sodipodi-0.dtd"
   xmlns:inkscape="http://www.inkscape.org/namespaces/inkscape"
   width="3.8671539mm"
   height="3.8671539mm"
   viewBox="0 0 10.962 10.962"
   version="1.2"
   id="svg38"
   sodipodi:docname="200k_9.svg"
   inkscape:version="1.0 (4035a4fb49, 2020-05-01)">
  <metadata
     id="metadata42">
    <rdf:RDF>
      <cc:Work
         rdf:about="">
        <dc:format>image/svg+xml</dc:format>
        <dc:type
           rdf:resource="http://purl.org/dc/dcmitype/StillImage" />
      </cc:Work>
    </rdf:RDF>
  </metadata>
  <sodipodi:namedview
     inkscape:document-rotation="0"
     pagecolor="#ffffff"
     bordercolor="#666666"
     borderopacity="1"
     objecttolerance="10"
     gridtolerance="10"
     guidetolerance="10"
     inkscape:pageopacity="0"
     inkscape:pageshadow="2"
     inkscape:window-width="1920"
     inkscape:window-height="1013"
     id="namedview40"
     showgrid="false"
     inkscape:zoom="24.47827"
     inkscape:cx="2.9513278"
     inkscape:cy="10.548487"
     inkscape:window-x="-9"
     inkscape:window-y="-9"
     inkscape:window-maximized="1"
     inkscape:current-layer="svg38" />
  <title
     id="title2">Qt SVG Document</title>
  <desc
     id="desc4">Generated with Qt</desc>
  <defs
     id="defs6" />
  <g
     fill="none"
     stroke="#000000"
     stroke-width="1"
     fill-rule="evenodd"
     stroke-linecap="square"
     stroke-linejoin="bevel"
     id="g36"
     transform="translate(-10.44,-11.626)">
    <g
       fill="none"
       stroke="none"
       font-family="'MS Shell Dlg 2'"
       font-size="8.25px"
       font-weight="400"
       font-style="normal"
       id="g8" />
    <g
       fill="none"
       stroke="none"
       transform="scale(1.33333)"
       font-family="'MS Shell Dlg 2'"
       font-size="8.25px"
       font-weight="400"
       font-style="normal"
       id="g10" />
    <g
       fill="#1a1a1a"
       fill-opacity="1"
       stroke="none"
       font-family="'MS Shell Dlg 2'"
       font-size="8.25px"
       font-weight="400"
       font-style="normal"
       id="g14">
      <path
         vector-effect="none"
         fill-rule="evenodd"
         d="m 21.402,17.114 c 0,0.756 -0.1423,1.4677 -0.427,2.135 -0.2847,0.6673 -0.6767,1.2483 -1.176,1.743 -0.4993,0.4947 -1.0827,0.8843 -1.75,1.169 -0.6673,0.2847 -1.379,0.427 -2.135,0.427 -0.756,0 -1.4677,-0.1423 -2.135,-0.427 -0.6673,-0.2847 -1.2483,-0.6743 -1.743,-1.169 -0.4947,-0.4947 -0.8843,-1.0757 -1.169,-1.743 -0.2847,-0.6673 -0.427,-1.379 -0.427,-2.135 0,-0.756 0.1423,-1.4677 0.427,-2.135 0.2847,-0.6673 0.6743,-1.2507 1.169,-1.75 0.4947,-0.4993 1.0757,-0.8913 1.743,-1.176 0.6673,-0.2847 1.379,-0.427 2.135,-0.427 0.756,0 1.4677,0.1423 2.135,0.427 0.6673,0.2847 1.2507,0.6767 1.75,1.176 0.4993,0.4993 0.8913,1.0827 1.176,1.75 0.2847,0.6673 0.427,1.379 0.427,2.135"
         id="path12" />
    </g>
    <g
       fill="none"
       stroke="none"
       transform="scale(1.33333)"
       font-family="'MS Shell Dlg 2'"
       font-size="8.25px"
       font-weight="400"
       font-style="normal"
       id="g16" />
    <g
       fill="none"
       stroke="none"
       font-family="'MS Shell Dlg 2'"
       font-size="8.25px"
       font-weight="400"
       font-style="normal"
       id="g18" />
    <g
       fill="none"
       stroke="#000000"
       stroke-opacity="1"
       stroke-width="1"
       stroke-linecap="square"
       stroke-linejoin="bevel"
       font-family="'MS Shell Dlg 2'"
       font-size="8.25px"
       font-weight="400"
       font-style="normal"
       id="g20" />
    <g
       fill="none"
       stroke="none"
       font-family="'MS Shell Dlg 2'"
       font-size="8.25px"
       font-weight="400"
       font-style="normal"
       id="g22" />
    <g
       fill="none"
       stroke="none"
       transform="scale(1.33333)"
       font-family="'MS Shell Dlg 2'"
       font-size="8.25px"
       font-weight="400"
       font-style="normal"
       id="g24" />
    <g
       fill="#ffffff"
       fill-opacity="1"
       stroke="none"
       font-family="'MS Shell Dlg 2'"
       font-size="8.25px"
       font-weight="400"
       font-style="normal"
       id="g28">
      <path
         vector-effect="none"
         fill-rule="evenodd"
         d="m 18.556,17.732 -0.14,0.9 -0.18,-0.23 c -0.24,0.3 -0.5283,0.56 -0.865,0.78 -0.3367,0.22 -0.7017,0.3567 -1.095,0.41 l -0.34,0.79 -0.4,-0.79 c -0.38,-0.0733 -0.7367,-0.215 -1.07,-0.425 -0.3333,-0.21 -0.62,-0.465 -0.86,-0.765 l -0.16,0.34 -0.16,-1.01 0.87,0.39 -0.39,0.14 c 0.2533,0.24 0.5233,0.425 0.81,0.555 0.2867,0.13 0.5933,0.2217 0.92,0.275 0.0467,0 0.085,-0.0617 0.115,-0.185 0.03,-0.1233 0.055,-0.32 0.075,-0.59 0.02,-0.27 0.035,-0.62 0.045,-1.05 0.01,-0.43 0.015,-0.9517 0.015,-1.565 h -0.64 v -0.37 h 0.64 v -0.2316 c -0.1267,-0.0469 -0.235,-0.1275 -0.325,-0.2415 -0.09,-0.1141 -0.135,-0.2416 -0.135,-0.3827 0,-0.1745 0.0617,-0.3254 0.185,-0.4529 0.1233,-0.1276 0.2783,-0.1913 0.465,-0.1913 0.1733,0 0.3233,0.0637 0.45,0.1913 0.1267,0.1275 0.19,0.2784 0.19,0.4529 0,0.1411 -0.045,0.2686 -0.135,0.3827 -0.09,0.114 -0.1983,0.1946 -0.325,0.2415 v 0.2316 h 0.64 v 0.37 h -0.64 c 0,0.5333 0.0017,1.0083 0.005,1.425 0.0033,0.4167 0.0117,0.7717 0.025,1.065 0.0133,0.2933 0.0333,0.5167 0.06,0.67 0.0267,0.1533 0.0667,0.23 0.12,0.23 0.32,-0.0333 0.6283,-0.1167 0.925,-0.25 0.2967,-0.1333 0.5717,-0.3267 0.825,-0.58 l -0.32,-0.21 0.8,-0.32 m -2.9,-3.25 c 0,0.1133 0.0283,0.1967 0.085,0.25 0.0567,0.0533 0.1167,0.08 0.18,0.08 0.0633,0 0.1233,-0.0267 0.18,-0.08 0.0567,-0.0533 0.085,-0.1367 0.085,-0.25 0,-0.08 -0.025,-0.1417 -0.075,-0.185 -0.05,-0.0433 -0.1083,-0.065 -0.175,-0.065 -0.1867,0 -0.28,0.0833 -0.28,0.25"
         id="path26" />
    </g>
    <g
       fill="none"
       stroke="none"
       transform="scale(1.33333)"
       font-family="'MS Shell Dlg 2'"
       font-size="8.25px"
       font-weight="400"
       font-style="normal"
       id="g30" />
    <g
       fill="none"
       stroke="none"
       font-family="'MS Shell Dlg 2'"
       font-size="8.25px"
       font-weight="400"
       font-style="normal"
       id="g32" />
    <g
       fill="none"
       stroke="#000000"
       stroke-opacity="1"
       stroke-width="1"
       stroke-linecap="square"
       stroke-linejoin="bevel"
       font-family="'MS Shell Dlg 2'"
       font-size="8.25px"
       font-weight="400"
       font-style="normal"
       id="g34" />
  </g>
</svg>
