<?xml version="1.0" encoding="UTF-8" standalone="no"?>
<svg width="11.2889mm" height="11.2889mm"
 viewBox="0 0 32 32"
 xmlns="http://www.w3.org/2000/svg" xmlns:xlink="http://www.w3.org/1999/xlink"  version="1.2" baseProfile="tiny">
<title>Qt SVG Document</title>
<desc>Generated with Qt</desc>
<defs>
</defs>
<g fill="none" stroke="black" stroke-width="1" fill-rule="evenodd" stroke-linecap="square" stroke-linejoin="bevel" >

<g fill="none" stroke="none" transform="matrix(1,0,0,1,0,0)"
font-family="MS Shell Dlg 2" font-size="8.25" font-weight="400" font-style="normal" 
>
</g>

<g fill="none" stroke="none" transform="matrix(1.33333,0,0,1.33333,0,0)"
font-family="MS Shell Dlg 2" font-size="8.25" font-weight="400" font-style="normal" 
>
</g>

<g fill="#1a1a1a" fill-opacity="1" stroke="none" transform="matrix(1,0,0,1,0,0)"
font-family="MS Shell Dlg 2" font-size="8.25" font-weight="400" font-style="normal" 
>
<path vector-effect="none" fill-rule="evenodd" d="M21.402,17.114 C21.402,17.87 21.2597,18.5817 20.975,19.249 C20.6903,19.9163 20.2983,20.4973 19.799,20.992 C19.2997,21.4867 18.7163,21.8763 18.049,22.161 C17.3817,22.4457 16.67,22.588 15.914,22.588 C15.158,22.588 14.4463,22.4457 13.779,22.161 C13.1117,21.8763 12.5307,21.4867 12.036,20.992 C11.5413,20.4973 11.1517,19.9163 10.867,19.249 C10.5823,18.5817 10.44,17.87 10.44,17.114 C10.44,16.358 10.5823,15.6463 10.867,14.979 C11.1517,14.3117 11.5413,13.7283 12.036,13.229 C12.5307,12.7297 13.1117,12.3377 13.779,12.053 C14.4463,11.7683 15.158,11.626 15.914,11.626 C16.67,11.626 17.3817,11.7683 18.049,12.053 C18.7163,12.3377 19.2997,12.7297 19.799,13.229 C20.2983,13.7283 20.6903,14.3117 20.975,14.979 C21.2597,15.6463 21.402,16.358 21.402,17.114 "/>
</g>

<g fill="none" stroke="none" transform="matrix(1.33333,0,0,1.33333,0,0)"
font-family="MS Shell Dlg 2" font-size="8.25" font-weight="400" font-style="normal" 
>
</g>

<g fill="none" stroke="none" transform="matrix(1,0,0,1,0,0)"
font-family="MS Shell Dlg 2" font-size="8.25" font-weight="400" font-style="normal" 
>
</g>

<g fill="none" stroke="#000000" stroke-opacity="1" stroke-width="1" stroke-linecap="square" stroke-linejoin="bevel" transform="matrix(1,0,0,1,0,0)"
font-family="MS Shell Dlg 2" font-size="8.25" font-weight="400" font-style="normal" 
>
</g>

<g fill="none" stroke="none" transform="matrix(1,0,0,1,0,0)"
font-family="MS Shell Dlg 2" font-size="8.25" font-weight="400" font-style="normal" 
>
</g>

<g fill="none" stroke="none" transform="matrix(1.33333,0,0,1.33333,0,0)"
font-family="MS Shell Dlg 2" font-size="8.25" font-weight="400" font-style="normal" 
>
</g>

<g fill="#ffffff" fill-opacity="1" stroke="none" transform="matrix(1,0,0,1,0,0)"
font-family="MS Shell Dlg 2" font-size="8.25" font-weight="400" font-style="normal" 
>
<path vector-effect="none" fill-rule="evenodd" d="M16.91,17.21 C17.1967,17.3833 17.4767,17.555 17.75,17.725 C18.0233,17.895 18.2667,18.0467 18.48,18.18 C18.6933,18.3133 18.87,18.4267 19.01,18.52 C19.15,18.6133 19.23,18.6733 19.25,18.7 C19.27,18.7267 19.255,18.7483 19.205,18.765 C19.155,18.7817 19.09,18.7933 19.01,18.8 C18.93,18.8067 18.8467,18.8067 18.76,18.8 C18.6733,18.7933 18.6,18.78 18.54,18.76 C18.4933,18.7467 18.415,18.71 18.305,18.65 C18.195,18.59 18.065,18.515 17.915,18.425 C17.765,18.335 17.5983,18.2333 17.415,18.12 C17.2317,18.0067 17.04,17.89 16.84,17.77 L15.62,17.73 L15.76,18.26 C15.7933,18.26 15.82,18.2633 15.84,18.27 C15.9133,18.2833 15.9783,18.3033 16.035,18.33 C16.0917,18.3567 16.12,18.39 16.12,18.43 C16.12,18.4633 16.1033,18.4917 16.07,18.515 C16.0367,18.5383 15.995,18.5583 15.945,18.575 C15.895,18.5917 15.845,18.6033 15.795,18.61 C15.745,18.6167 15.7033,18.6133 15.67,18.6 C15.5233,18.5533 15.46,18.4933 15.48,18.42 C15.4867,18.3933 15.5033,18.365 15.53,18.335 C15.5567,18.305 15.5967,18.2833 15.65,18.27 L15.49,17.73 L15.27,17.72 C15.0567,17.7533 14.8617,17.7733 14.685,17.78 C14.5083,17.7867 14.36,17.7733 14.24,17.74 L14.15,17.71 L14.09,17.9 C14.1833,17.92 14.255,17.9517 14.305,17.995 C14.355,18.0383 14.38,18.0767 14.38,18.11 C14.38,18.1433 14.3583,18.1717 14.315,18.195 C14.2717,18.2183 14.22,18.235 14.16,18.245 C14.1,18.255 14.04,18.2617 13.98,18.265 C13.92,18.2683 13.8733,18.2633 13.84,18.25 C13.7667,18.2367 13.71,18.2083 13.67,18.165 C13.63,18.1217 13.6167,18.0833 13.63,18.05 C13.6433,18.01 13.675,17.9683 13.725,17.925 C13.775,17.8817 13.8667,17.8667 14,17.88 L14.06,17.68 C13.8733,17.6133 13.75,17.5333 13.69,17.44 C13.7167,17.4267 13.7333,17.4167 13.74,17.41 L13.75,17.4 C13.7567,17.4 13.76,17.3967 13.76,17.39 L13.77,17.38 L13.78,17.37 L13.79,17.36 L13.79,17.35 L13.8,17.34 L13.8,17.33 L13.81,17.32 C13.85,17.32 13.8967,17.32 13.95,17.32 C14.0033,17.32 14.0567,17.3167 14.11,17.31 C14.1633,17.3033 14.2167,17.2983 14.27,17.295 C14.3233,17.2917 14.37,17.2833 14.41,17.27 C14.45,17.2567 14.4867,17.2433 14.52,17.23 C14.5533,17.2167 14.57,17.1933 14.57,17.16 C14.57,17.1267 14.5433,17.1 14.49,17.08 C14.4567,17.0667 14.405,17.06 14.335,17.06 C14.265,17.06 14.1833,17.0633 14.09,17.07 C13.9767,17.0833 13.8733,17.1 13.78,17.12 C13.76,17.08 13.7233,17.0533 13.67,17.04 C13.67,17.0267 13.6683,17.0167 13.665,17.01 C13.6617,17.0033 13.66,16.9967 13.66,16.99 C13.72,16.9233 13.8,16.8717 13.9,16.835 C14,16.7983 14.1067,16.7767 14.22,16.77 L13.86,15.84 C13.6267,15.6667 13.435,15.5217 13.285,15.405 C13.135,15.2883 13.0567,15.22 13.05,15.2 C13.05,15.18 13.0717,15.1733 13.115,15.18 C13.1583,15.1867 13.215,15.2017 13.285,15.225 C13.355,15.2483 13.4333,15.2767 13.52,15.31 C13.6067,15.3433 13.6933,15.38 13.78,15.42 C13.82,15.4333 13.905,15.475 14.035,15.545 C14.165,15.615 14.3333,15.7083 14.54,15.825 C14.7467,15.9417 14.9867,16.0783 15.26,16.235 C15.5333,16.3917 15.8267,16.5633 16.14,16.75 C16.1667,16.77 16.2067,16.7833 16.26,16.79 C16.3133,16.7967 16.37,16.8 16.43,16.8 C16.49,16.8 16.5517,16.7983 16.615,16.795 C16.6783,16.7917 16.73,16.7867 16.77,16.78 C16.6367,16.6867 16.5267,16.6117 16.44,16.555 C16.3533,16.4983 16.3133,16.4633 16.32,16.45 C16.3333,16.4233 16.3817,16.415 16.465,16.425 C16.5483,16.435 16.71,16.4967 16.95,16.61 C16.97,16.6167 16.9883,16.6233 17.005,16.63 C17.0217,16.6367 17.0367,16.6433 17.05,16.65 C17.2167,16.53 17.35,16.4067 17.45,16.28 C17.55,16.1533 17.6533,16.0767 17.76,16.05 C17.7733,16.05 17.7933,16.0483 17.82,16.045 C17.8467,16.0417 17.8733,16.04 17.9,16.04 C17.9267,16.04 17.945,16.0467 17.955,16.06 C17.965,16.0733 17.9633,16.0933 17.95,16.12 C17.93,16.1467 17.9033,16.1917 17.87,16.255 C17.8367,16.3183 17.795,16.3867 17.745,16.46 C17.695,16.5333 17.6433,16.6083 17.59,16.685 C17.5367,16.7617 17.48,16.83 17.42,16.89 C17.6067,16.9833 17.7733,17.0767 17.92,17.17 C18.0667,17.2633 18.1467,17.3167 18.16,17.33 C18.1733,17.3433 18.185,17.3617 18.195,17.385 C18.205,17.4083 18.2,17.425 18.18,17.435 C18.16,17.445 18.1217,17.4467 18.065,17.44 C18.0083,17.4333 17.92,17.4067 17.8,17.36 C17.74,17.3333 17.645,17.29 17.515,17.23 C17.385,17.17 17.2833,17.1067 17.21,17.04 C17.1633,17.0733 17.115,17.1033 17.065,17.13 C17.015,17.1567 16.9633,17.1833 16.91,17.21 M16.63,17.64 C16.3233,17.4467 16.025,17.2567 15.735,17.07 C15.445,16.8833 15.1933,16.7233 14.98,16.59 C14.6333,16.3767 14.3133,16.1633 14.02,15.95 L14.3,16.75 C14.3333,16.73 14.3817,16.6983 14.445,16.655 C14.5083,16.6117 14.5733,16.5733 14.64,16.54 C14.6533,16.5533 14.6667,16.5617 14.68,16.565 C14.6933,16.5683 14.7067,16.5767 14.72,16.59 C14.64,16.6167 14.575,16.6483 14.525,16.685 C14.475,16.7217 14.4567,16.7433 14.47,16.75 C14.5033,16.7633 14.5483,16.79 14.605,16.83 C14.6617,16.87 14.7233,16.9117 14.79,16.955 C14.8567,16.9983 14.9217,17.04 14.985,17.08 C15.0483,17.12 15.1033,17.1433 15.15,17.15 C15.17,17.15 15.19,17.1283 15.21,17.085 C15.23,17.0417 15.2433,16.99 15.25,16.93 C15.3833,17.01 15.5283,17.0983 15.685,17.195 C15.8417,17.2917 16.0033,17.3933 16.17,17.5 C16.0833,17.5267 15.9983,17.5517 15.915,17.575 C15.8317,17.5983 15.75,17.6167 15.67,17.63 L16.63,17.64 M15.68,18.64 C15.7133,18.6533 15.7517,18.6583 15.795,18.655 C15.8383,18.6517 15.88,18.6433 15.92,18.63 C15.88,18.7033 15.8233,18.73 15.75,18.71 C15.7033,18.69 15.6733,18.6667 15.66,18.64 L15.68,18.64 M13.92,18.38 C13.8733,18.3667 13.8433,18.34 13.83,18.3 C13.8633,18.3067 13.9033,18.31 13.95,18.31 C13.9967,18.31 14.0467,18.3033 14.1,18.29 C14.0667,18.37 14.0067,18.4 13.92,18.38 M13.62,17.4 C13.6133,17.4333 13.6083,17.47 13.605,17.51 C13.6017,17.55 13.5933,17.5967 13.58,17.65 C13.56,17.7433 13.54,17.8233 13.52,17.89 C13.5,17.9567 13.4833,17.9867 13.47,17.98 C13.4567,17.98 13.4533,17.945 13.46,17.875 C13.4667,17.805 13.4767,17.7233 13.49,17.63 C13.5033,17.5767 13.515,17.5317 13.525,17.495 C13.535,17.4583 13.5467,17.4233 13.56,17.39 L13.55,17.39 C13.41,17.35 13.3333,17.3067 13.32,17.26 C13.3067,17.2133 13.3767,17.1633 13.53,17.11 C13.5167,17.0767 13.5033,17.045 13.49,17.015 C13.4767,16.985 13.4633,16.95 13.45,16.91 C13.4167,16.81 13.395,16.7233 13.385,16.65 C13.375,16.5767 13.3767,16.5367 13.39,16.53 C13.4033,16.5233 13.4283,16.5533 13.465,16.62 C13.5017,16.6867 13.5367,16.77 13.57,16.87 C13.5833,16.91 13.5933,16.9483 13.6,16.985 C13.6067,17.0217 13.6167,17.0567 13.63,17.09 C13.69,17.09 13.7333,17.12 13.76,17.18 C13.84,17.16 13.9533,17.1433 14.1,17.13 C14.2133,17.1167 14.31,17.1133 14.39,17.12 C14.47,17.1267 14.51,17.14 14.51,17.16 C14.5167,17.18 14.4783,17.1983 14.395,17.215 C14.3117,17.2317 14.2133,17.2467 14.1,17.26 C13.9667,17.2733 13.8567,17.2733 13.77,17.26 C13.7633,17.2933 13.7483,17.3233 13.725,17.35 C13.7017,17.3767 13.6667,17.3933 13.62,17.4 "/>
</g>

<g fill="none" stroke="none" transform="matrix(1.33333,0,0,1.33333,0,0)"
font-family="MS Shell Dlg 2" font-size="8.25" font-weight="400" font-style="normal" 
>
</g>

<g fill="none" stroke="none" transform="matrix(1,0,0,1,0,0)"
font-family="MS Shell Dlg 2" font-size="8.25" font-weight="400" font-style="normal" 
>
</g>

<g fill="none" stroke="#000000" stroke-opacity="1" stroke-width="1" stroke-linecap="square" stroke-linejoin="bevel" transform="matrix(1,0,0,1,0,0)"
font-family="MS Shell Dlg 2" font-size="8.25" font-weight="400" font-style="normal" 
>
</g>
</g>
</svg>
