<?xml version="1.0" encoding="UTF-8" standalone="no"?>
<svg
   xmlns:dc="http://purl.org/dc/elements/1.1/"
   xmlns:cc="http://creativecommons.org/ns#"
   xmlns:rdf="http://www.w3.org/1999/02/22-rdf-syntax-ns#"
   xmlns:svg="http://www.w3.org/2000/svg"
   xmlns="http://www.w3.org/2000/svg"
   xmlns:sodipodi="http://sodipodi.sourceforge.net/DTD/sodipodi-0.dtd"
   xmlns:inkscape="http://www.inkscape.org/namespaces/inkscape"
   inkscape:version="1.0 (4035a4fb49, 2020-05-01)"
   sodipodi:docname="200k_45.svg"
   id="svg38"
   version="1.2"
   viewBox="0 0 10.962 10.962"
   height="3.8671539mm"
   width="3.8671539mm">
  <metadata
     id="metadata42">
    <rdf:RDF>
      <cc:Work
         rdf:about="">
        <dc:format>image/svg+xml</dc:format>
        <dc:type
           rdf:resource="http://purl.org/dc/dcmitype/StillImage" />
      </cc:Work>
    </rdf:RDF>
  </metadata>
  <sodipodi:namedview
     inkscape:current-layer="svg38"
     inkscape:window-maximized="1"
     inkscape:window-y="-9"
     inkscape:window-x="-9"
     inkscape:cy="5.832006"
     inkscape:cx="7.4133409"
     inkscape:zoom="18.047943"
     showgrid="false"
     id="namedview40"
     inkscape:window-height="1013"
     inkscape:window-width="1920"
     inkscape:pageshadow="2"
     inkscape:pageopacity="0"
     guidetolerance="10"
     gridtolerance="10"
     objecttolerance="10"
     borderopacity="1"
     bordercolor="#666666"
     pagecolor="#ffffff" />
  <title
     id="title2">Qt SVG Document</title>
  <desc
     id="desc4">Generated with Qt</desc>
  <defs
     id="defs6" />
  <g
     transform="translate(-10.44,-11.626)"
     id="g36"
     stroke-linejoin="bevel"
     stroke-linecap="square"
     fill-rule="evenodd"
     stroke-width="1"
     stroke="#000000"
     fill="none">
    <g
       id="g8"
       font-style="normal"
       font-weight="400"
       font-size="8.25px"
       font-family="'MS Shell Dlg 2'"
       stroke="none"
       fill="none" />
    <g
       id="g10"
       font-style="normal"
       font-weight="400"
       font-size="8.25px"
       font-family="'MS Shell Dlg 2'"
       transform="scale(1.33333)"
       stroke="none"
       fill="none" />
    <g
       id="g14"
       font-style="normal"
       font-weight="400"
       font-size="8.25px"
       font-family="'MS Shell Dlg 2'"
       stroke="none"
       fill-opacity="1"
       fill="#a61215">
      <path
         id="path12"
         d="m 21.402,17.114 c 0,0.756 -0.1423,1.4677 -0.427,2.135 -0.2847,0.6673 -0.6767,1.2483 -1.176,1.743 -0.4993,0.4947 -1.0827,0.8843 -1.75,1.169 -0.6673,0.2847 -1.379,0.427 -2.135,0.427 -0.756,0 -1.4677,-0.1423 -2.135,-0.427 -0.6673,-0.2847 -1.2483,-0.6743 -1.743,-1.169 -0.4947,-0.4947 -0.8843,-1.0757 -1.169,-1.743 -0.2847,-0.6673 -0.427,-1.379 -0.427,-2.135 0,-0.756 0.1423,-1.4677 0.427,-2.135 0.2847,-0.6673 0.6743,-1.2507 1.169,-1.75 0.4947,-0.4993 1.0757,-0.8913 1.743,-1.176 0.6673,-0.2847 1.379,-0.427 2.135,-0.427 0.756,0 1.4677,0.1423 2.135,0.427 0.6673,0.2847 1.2507,0.6767 1.75,1.176 0.4993,0.4993 0.8913,1.0827 1.176,1.75 0.2847,0.6673 0.427,1.379 0.427,2.135"
         fill-rule="evenodd"
         vector-effect="none" />
    </g>
    <g
       id="g16"
       font-style="normal"
       font-weight="400"
       font-size="8.25px"
       font-family="'MS Shell Dlg 2'"
       transform="scale(1.33333)"
       stroke="none"
       fill="none" />
    <g
       id="g18"
       font-style="normal"
       font-weight="400"
       font-size="8.25px"
       font-family="'MS Shell Dlg 2'"
       stroke="none"
       fill="none" />
    <g
       id="g20"
       font-style="normal"
       font-weight="400"
       font-size="8.25px"
       font-family="'MS Shell Dlg 2'"
       stroke-linejoin="bevel"
       stroke-linecap="square"
       stroke-width="1"
       stroke-opacity="1"
       stroke="#000000"
       fill="none" />
    <g
       id="g22"
       font-style="normal"
       font-weight="400"
       font-size="8.25px"
       font-family="'MS Shell Dlg 2'"
       stroke="none"
       fill="none" />
    <g
       id="g24"
       font-style="normal"
       font-weight="400"
       font-size="8.25px"
       font-family="'MS Shell Dlg 2'"
       transform="scale(1.33333)"
       stroke="none"
       fill="none" />
    <g
       id="g28"
       font-style="normal"
       font-weight="400"
       font-size="8.25px"
       font-family="'MS Shell Dlg 2'"
       stroke="none"
       fill-opacity="1"
       fill="#ffffff">
      <path
         id="path26"
         d="m 18.672992,16.197 c 0,0.0133 -0.015,0.0333 -0.045,0.06 -0.03,0.0267 -0.07,0.05 -0.12,0.07 -0.05,0.02 -0.1033,0.035 -0.16,0.045 -0.0567,0.01 -0.1083,0.0083 -0.155,-0.005 -0.0467,-0.02 -0.1167,-0.0433 -0.21,-0.07 -0.0933,-0.0267 -0.1933,-0.0583 -0.3,-0.095 -0.1067,-0.0367 -0.2117,-0.0733 -0.315,-0.11 -0.1033,-0.0367 -0.1917,-0.0717 -0.265,-0.105 -0.0667,-0.0067 -0.1383,-0.025 -0.215,-0.055 -0.0767,-0.03 -0.155,-0.0617 -0.235,-0.095 -0.08,-0.0333 -0.1583,-0.0633 -0.235,-0.09 -0.0767,-0.0267 -0.1517,-0.0433 -0.225,-0.05 -0.0533,-0.0067 -0.1233,-0.0217 -0.21,-0.045 -0.0867,-0.0233 -0.1767,-0.0467 -0.27,-0.07 -0.0933,-0.0233 -0.1817,-0.0433 -0.265,-0.06 -0.0833,-0.0167 -0.1483,-0.0283 -0.195,-0.035 -0.08,-0.0067 -0.18,-0.0133 -0.3,-0.02 -0.12,-0.0067 -0.2417,-0.015 -0.365,-0.025 -0.1233,-0.01 -0.2417,-0.0233 -0.355,-0.04 -0.1133,-0.0167 -0.21,-0.035 -0.29,-0.055 -0.0667,-0.0133 -0.12,-0.0217 -0.16,-0.025 -0.04,-0.0033 -0.1133,-0.0317 -0.22,-0.085 -0.0267,-0.0133 -0.0367,-0.0317 -0.03,-0.055 0.0067,-0.0233 0.015,-0.045 0.025,-0.065 0.01,-0.02 0.0183,-0.0383 0.025,-0.055 0.0067,-0.0167 0,-0.0283 -0.02,-0.035 -0.1667,-0.06 -0.2767,-0.13 -0.33,-0.21 -0.0533,-0.08 -0.0733,-0.1467 -0.06,-0.2 0,-0.0267 0.0267,-0.0583 0.08,-0.095 0.0533,-0.0367 0.0867,-0.0617 0.1,-0.075 0.0067,-0.04 0.0483,-0.07 0.125,-0.09 0.0767,-0.02 0.18,-0.0317 0.31,-0.035 0.13,-0.0033 0.28,0 0.45,0.01 0.17,0.01 0.3483,0.0217 0.535,0.035 0.0533,0 0.0967,-0.0067 0.13,-0.02 0.0333,0 0.0733,-0.005 0.12,-0.015 0.0467,-0.01 0.1033,-0.015 0.17,-0.015 0.1667,0.02 0.3283,0.04 0.485,0.06 0.1567,0.02 0.32,0.0417 0.49,0.065 0.17,0.0233 0.35,0.0517 0.54,0.085 0.19,0.0333 0.405,0.07 0.645,0.11 0.0333,0 0.07,0.0033 0.11,0.01 0.04,0.0067 0.08,0.01 0.12,0.01 0.0667,0.0133 0.135,0.0233 0.205,0.03 0.07,0.0067 0.1217,0.0033 0.155,-0.01 0.06,-0.0133 0.125,-0.015 0.195,-0.005 0.07,0.01 0.135,0.025 0.195,0.045 0.06,0.02 0.1067,0.0617 0.14,0.125 0.0333,0.0633 0.0583,0.1317 0.075,0.205 0.0167,0.0733 0.025,0.1433 0.025,0.21 0,0.0667 -0.0033,0.11 -0.01,0.13 l 0.11,0.81 m -0.86,2.81 c 0.1133,0.0333 0.215,0.0683 0.305,0.105 0.09,0.0367 0.135,0.085 0.135,0.145 0,0.0133 0.0067,0.0383 0.02,0.075 0.0133,0.0367 0.02,0.0617 0.02,0.075 0,0.02 -0.0067,0.0517 -0.02,0.095 -0.0133,0.0433 -0.0283,0.0883 -0.045,0.135 -0.0167,0.0467 -0.0333,0.0867 -0.05,0.12 -0.0167,0.0333 -0.0283,0.0533 -0.035,0.06 -0.04,0.0333 -0.065,0.05 -0.075,0.05 -0.01,0 -0.025,0 -0.045,0 -0.0533,0.0133 -0.1233,0.0117 -0.21,-0.005 -0.0867,-0.0167 -0.1567,-0.0317 -0.21,-0.045 -0.0333,-0.0133 -0.085,-0.01 -0.155,0.01 -0.07,0.02 -0.1217,0.0233 -0.155,0.01 -0.04,0 -0.115,-0.0067 -0.225,-0.02 -0.11,-0.0133 -0.1883,-0.02 -0.235,-0.02 -0.0267,0.02 -0.065,0.03 -0.115,0.03 -0.05,0 -0.1,-0.0033 -0.15,-0.01 -0.05,-0.0067 -0.095,-0.015 -0.135,-0.025 -0.04,-0.01 -0.06,-0.0217 -0.06,-0.035 -0.0067,-0.0333 -0.01,-0.0633 -0.01,-0.09 -0.0067,-0.0267 -0.01,-0.05 -0.01,-0.07 0,-0.02 0,-0.0367 0,-0.05 l 0.17,-0.41 c 0,-0.08 0.05,-0.1433 0.15,-0.19 0.0267,-0.0133 0.0667,-0.0067 0.12,0.02 0.0133,0.0133 0.0317,0.0033 0.055,-0.03 0.0233,-0.0333 0.0483,-0.0433 0.075,-0.03 h 0.06 c 0.08,0 0.1417,-0.0067 0.185,-0.02 0.0433,-0.0133 0.0817,-0.0267 0.115,-0.04 0.0333,-0.0133 0.0667,-0.0233 0.1,-0.03 0.0333,-0.0067 0.08,-0.0067 0.14,0 0.02,0 0.0633,0.0267 0.13,0.08 0.0667,0.0533 0.1067,0.0833 0.12,0.09 0,0.0133 0.0133,0.02 0.04,0.02 m 0.38,-2 c 0.0467,0.0133 0.075,0.075 0.085,0.185 0.01,0.11 0.0133,0.2317 0.01,0.365 -0.0033,0.1333 -0.01,0.26 -0.02,0.38 -0.01,0.12 -0.015,0.1933 -0.015,0.22 l 0.02,0.04 c 0.0133,0.0267 0.02,0.0467 0.02,0.06 0,0.0133 -0.0033,0.0417 -0.01,0.085 -0.0067,0.0433 -0.015,0.09 -0.025,0.14 -0.01,0.05 -0.0183,0.0933 -0.025,0.13 -0.0067,0.0367 -0.0133,0.0583 -0.02,0.065 -0.0333,0.0333 -0.0567,0.0483 -0.07,0.045 -0.0133,-0.0033 -0.0267,-0.005 -0.04,-0.005 -0.04,0 -0.105,-0.025 -0.195,-0.075 -0.09,-0.05 -0.155,-0.0817 -0.195,-0.095 -0.0333,0 -0.0783,0.0067 -0.135,0.02 -0.0567,0.0133 -0.1017,0.0133 -0.135,0 -0.0467,-0.0067 -0.0933,-0.0067 -0.14,0 -0.0467,0.0067 -0.095,0.0167 -0.145,0.03 -0.05,0.0133 -0.1017,0.0233 -0.155,0.03 -0.0533,0.0067 -0.11,0.0033 -0.17,-0.01 -0.04,0.02 -0.08,0.01 -0.12,-0.03 -0.04,-0.04 -0.06,-0.0667 -0.06,-0.08 -0.0067,-0.02 -0.0133,-0.0433 -0.02,-0.07 -0.0067,-0.0267 -0.01,-0.06 -0.01,-0.1 l 0.3,-1.18 c 0,-0.0067 0.0017,-0.0517 0.005,-0.135 0.0033,-0.0833 0.0083,-0.1717 0.015,-0.265 0.0067,-0.0933 0.015,-0.18 0.025,-0.26 0.01,-0.08 0.0217,-0.1233 0.035,-0.13 0.0267,-0.0133 0.0667,-0.0067 0.12,0.02 0.0133,-0.0067 0.0267,-0.0167 0.04,-0.03 0.0267,-0.0267 0.0433,-0.04 0.05,-0.04 0.0267,0 0.0467,0.01 0.06,0.03 0.0667,-0.0067 0.1183,-0.0017 0.155,0.015 0.0367,0.0167 0.0683,0.0367 0.095,0.06 0.0267,0.0233 0.0533,0.045 0.08,0.065 0.0267,0.02 0.0633,0.0333 0.11,0.04 0.0067,0 0.0267,0.0117 0.06,0.035 0.0333,0.0233 0.0717,0.05 0.115,0.08 0.0433,0.03 0.0817,0.0583 0.115,0.085 0.0333,0.0267 0.0533,0.0433 0.06,0.05 0.0067,0 0.015,0.0117 0.025,0.035 0.01,0.0233 0.0233,0.05 0.04,0.08 0.0167,0.03 0.03,0.0567 0.04,0.08 0.01,0.0233 0.0183,0.035 0.025,0.035 m -3.57,-0.46 c 0.0067,0.2667 0.0183,0.47 0.035,0.61 0.0167,0.14 0.0367,0.2533 0.06,0.34 0.0233,0.0867 0.0467,0.1633 0.07,0.23 0.0233,0.0667 0.045,0.16 0.065,0.28 0.02,0.1133 0.0383,0.27 0.055,0.47 0.0167,0.2 0.03,0.3967 0.04,0.59 0.01,0.1933 0.0167,0.3617 0.02,0.505 0.0033,0.1433 0.0017,0.2183 -0.005,0.225 -0.02,0.02 -0.0367,0.0283 -0.05,0.025 -0.0133,-0.0033 -0.0267,0.0017 -0.04,0.015 -0.04,0.0133 -0.07,0.0217 -0.09,0.025 -0.02,0.0033 -0.05,0.005 -0.09,0.005 -0.02,0 -0.055,-0.0117 -0.105,-0.035 -0.05,-0.0233 -0.085,-0.035 -0.105,-0.035 -0.0467,0 -0.0767,0.005 -0.09,0.015 -0.0133,0.01 -0.025,0.02 -0.035,0.03 -0.01,0.01 -0.0233,0.0183 -0.04,0.025 -0.0167,0.0067 -0.0517,0.0067 -0.105,0 -0.0333,0.0333 -0.065,-0.0283 -0.095,-0.185 -0.03,-0.1567 -0.0817,-0.4283 -0.155,-0.815 -0.04,-0.2267 -0.0867,-0.4533 -0.14,-0.68 -0.0533,-0.2267 -0.1033,-0.4383 -0.15,-0.635 -0.0467,-0.1967 -0.0833,-0.3767 -0.11,-0.54 -0.0267,-0.1633 -0.0333,-0.295 -0.02,-0.395 0.0067,-0.1133 0.005,-0.1967 -0.005,-0.25 -0.01,-0.0533 -0.0217,-0.0933 -0.035,-0.12 -0.02,-0.0267 -0.04,-0.0433 -0.06,-0.05 0,-0.0067 0.0267,-0.0217 0.08,-0.045 0.0533,-0.0233 0.1117,-0.055 0.175,-0.095 0.0633,-0.04 0.1217,-0.09 0.175,-0.15 0.0533,-0.06 0.0767,-0.13 0.07,-0.21 0.0067,-0.06 0.0183,-0.0983 0.035,-0.115 0.0167,-0.0167 0.04,-0.0233 0.07,-0.02 0.03,0.0033 0.065,0.0133 0.105,0.03 0.04,0.0167 0.08,0.025 0.12,0.025 0.0133,0 0.0483,0.0133 0.105,0.04 0.0567,0.0267 0.0917,0.0467 0.105,0.06 0.0067,0 0.0233,0.0267 0.05,0.08 0.0133,0.0267 0.0233,0.05 0.03,0.07 0.0467,0.0067 0.0767,0.0417 0.09,0.105 0.0133,0.0633 0.0167,0.135 0.01,0.215 -0.0067,0.08 -0.015,0.155 -0.025,0.225 -0.01,0.07 -0.015,0.115 -0.015,0.135 m 0.55,-0.04 c -0.02,0.28 -0.0267,0.4917 -0.02,0.635 0.0067,0.1433 0.0167,0.26 0.03,0.35 0.0133,0.09 0.0283,0.1683 0.045,0.235 0.0167,0.0667 0.0317,0.16 0.045,0.28 0.0133,0.12 0.0217,0.2833 0.025,0.49 0.0033,0.2067 0.0017,0.41 -0.005,0.61 -0.0067,0.2 -0.0133,0.375 -0.02,0.525 -0.0067,0.15 -0.0133,0.2283 -0.02,0.235 -0.02,0.02 -0.0467,0.03 -0.08,0.03 -0.0333,0 -0.0567,-0.01 -0.07,-0.03 0,-0.0133 -0.0033,-0.095 -0.01,-0.245 -0.0067,-0.15 -0.015,-0.325 -0.025,-0.525 -0.01,-0.2 -0.0233,-0.4017 -0.04,-0.605 -0.0167,-0.2033 -0.0317,-0.365 -0.045,-0.485 -0.0133,-0.12 -0.0317,-0.2217 -0.055,-0.305 -0.0233,-0.0833 -0.0417,-0.1767 -0.055,-0.28 -0.0133,-0.1033 -0.0217,-0.2333 -0.025,-0.39 -0.0033,-0.1567 0.005,-0.3717 0.025,-0.645 0.0067,-0.14 -0.0067,-0.26 -0.04,-0.36 -0.0333,-0.1 -0.0683,-0.1817 -0.105,-0.245 -0.0367,-0.0633 -0.0617,-0.11 -0.075,-0.14 -0.0133,-0.03 0,-0.045 0.04,-0.045 0.0067,0 0.0283,0.01 0.065,0.03 0.0367,0.02 0.0733,0.0433 0.11,0.07 0.0367,0.0267 0.07,0.0517 0.1,0.075 0.03,0.0233 0.0483,0.0383 0.055,0.045 l 0.13,-0.02 c 0.0467,0.0067 0.0733,0.0433 0.08,0.11 0.0067,0.0667 0.005,0.1417 -0.005,0.225 -0.01,0.0833 -0.0217,0.1617 -0.035,0.235 -0.0133,0.0733 -0.02,0.12 -0.02,0.14"
         fill-rule="evenodd"
         vector-effect="none" />
    </g>
    <g
       id="g30"
       font-style="normal"
       font-weight="400"
       font-size="8.25px"
       font-family="'MS Shell Dlg 2'"
       transform="scale(1.33333)"
       stroke="none"
       fill="none" />
    <g
       id="g32"
       font-style="normal"
       font-weight="400"
       font-size="8.25px"
       font-family="'MS Shell Dlg 2'"
       stroke="none"
       fill="none" />
    <g
       id="g34"
       font-style="normal"
       font-weight="400"
       font-size="8.25px"
       font-family="'MS Shell Dlg 2'"
       stroke-linejoin="bevel"
       stroke-linecap="square"
       stroke-width="1"
       stroke-opacity="1"
       stroke="#000000"
       fill="none" />
  </g>
</svg>
