<?xml version="1.0" encoding="UTF-8" standalone="no"?>
<svg
   xmlns:dc="http://purl.org/dc/elements/1.1/"
   xmlns:cc="http://creativecommons.org/ns#"
   xmlns:rdf="http://www.w3.org/1999/02/22-rdf-syntax-ns#"
   xmlns:svg="http://www.w3.org/2000/svg"
   xmlns="http://www.w3.org/2000/svg"
   xmlns:sodipodi="http://sodipodi.sourceforge.net/DTD/sodipodi-0.dtd"
   xmlns:inkscape="http://www.inkscape.org/namespaces/inkscape"
   inkscape:version="1.0 (4035a4fb49, 2020-05-01)"
   sodipodi:docname="200k_64.svg"
   id="svg22"
   version="1.2"
   viewBox="0 0 10.962 10.962"
   height="3.8671539mm"
   width="3.8671539mm">
  <metadata
     id="metadata26">
    <rdf:RDF>
      <cc:Work
         rdf:about="">
        <dc:format>image/svg+xml</dc:format>
        <dc:type
           rdf:resource="http://purl.org/dc/dcmitype/StillImage" />
      </cc:Work>
    </rdf:RDF>
  </metadata>
  <sodipodi:namedview
     inkscape:current-layer="svg22"
     inkscape:window-maximized="1"
     inkscape:window-y="-9"
     inkscape:window-x="-9"
     inkscape:cy="5.832006"
     inkscape:cx="7.4133409"
     inkscape:zoom="18.047943"
     showgrid="false"
     id="namedview24"
     inkscape:window-height="1013"
     inkscape:window-width="1920"
     inkscape:pageshadow="2"
     inkscape:pageopacity="0"
     guidetolerance="10"
     gridtolerance="10"
     objecttolerance="10"
     borderopacity="1"
     bordercolor="#666666"
     pagecolor="#ffffff" />
  <title
     id="title2">Qt SVG Document</title>
  <desc
     id="desc4">Generated with Qt</desc>
  <defs
     id="defs6" />
  <g
     transform="translate(-10.44,-11.626)"
     id="g20"
     stroke-linejoin="bevel"
     stroke-linecap="square"
     fill-rule="evenodd"
     stroke-width="1"
     stroke="#000000"
     fill="none">
    <g
       id="g10"
       font-style="normal"
       font-weight="400"
       font-size="8.25px"
       font-family="'MS Shell Dlg 2'"
       stroke="none"
       fill-opacity="1"
       fill="#33a02c">
      <path
         id="path8"
         d="m 21.402,17.114 c 0,0.756 -0.1423,1.4677 -0.427,2.135 -0.2847,0.6673 -0.6767,1.2483 -1.176,1.743 -0.4993,0.4947 -1.0827,0.8843 -1.75,1.169 -0.6673,0.2847 -1.379,0.427 -2.135,0.427 -0.756,0 -1.4677,-0.1423 -2.135,-0.427 -0.6673,-0.2847 -1.2483,-0.6743 -1.743,-1.169 -0.4947,-0.4947 -0.8843,-1.0757 -1.169,-1.743 -0.2847,-0.6673 -0.427,-1.379 -0.427,-2.135 0,-0.756 0.1423,-1.4677 0.427,-2.135 0.2847,-0.6673 0.6743,-1.2507 1.169,-1.75 0.4947,-0.4993 1.0757,-0.8913 1.743,-1.176 0.6673,-0.2847 1.379,-0.427 2.135,-0.427 0.756,0 1.4677,0.1423 2.135,0.427 0.6673,0.2847 1.2507,0.6767 1.75,1.176 0.4993,0.4993 0.8913,1.0827 1.176,1.75 0.2847,0.6673 0.427,1.379 0.427,2.135"
         fill-rule="evenodd"
         vector-effect="none" />
    </g>
    <g
       id="g12"
       font-style="normal"
       font-weight="400"
       font-size="8.25px"
       font-family="'MS Shell Dlg 2'"
       stroke="none"
       fill-opacity="1"
       fill="#33a02c" />
    <g
       id="g16"
       font-style="normal"
       font-weight="400"
       font-size="8.25px"
       font-family="'MS Shell Dlg 2'"
       stroke="none"
       fill-opacity="1"
       fill="#ffffff">
      <path
         id="path14"
         d="m 15.606,14.817 c 0,-0.0133 -0.0833,0.1233 -0.25,0.41 l -0.34,0.58 c -0.16,0.2733 -0.2933,0.41 -0.4,0.41 -0.0667,0 -0.1,-0.0333 -0.1,-0.1 0,-0.16 0.1333,-0.43 0.4,-0.81 0.26,-0.3667 0.4567,-0.55 0.59,-0.55 0.0667,0 0.1,0.02 0.1,0.06 m 2.05,2.26 c -0.0133,0.0267 -0.0367,0.04 -0.07,0.04 -0.0533,0 -0.12,-0.0133 -0.2,-0.04 l -0.93,1.49 c 0.0333,0.1467 0.06,0.2933 0.08,0.44 0.02,0.1467 0.03,0.2967 0.03,0.45 0,0.1 -0.01,0.19 -0.03,0.27 l 0.49,0.07 0.04,0.19 -0.04,0.07 h -0.61 c -0.0667,0 -0.1233,-0.1033 -0.17,-0.31 -0.0067,-0.0333 -0.0217,-0.1 -0.045,-0.2 -0.0233,-0.1 -0.055,-0.24 -0.095,-0.42 l -0.52,0.83 -0.22,-0.07 0.65,-0.99 c -0.02,-0.12 -0.03,-0.1933 -0.03,-0.22 -0.02,-0.0267 -0.1233,-0.2267 -0.31,-0.6 -0.1133,-0.2 -0.1933,-0.3233 -0.24,-0.37 h -0.01 c -0.0533,0 -0.1567,0.17 -0.31,0.51 l -0.47,1.04 c 0,0.0067 -0.0333,0.0767 -0.1,0.21 l 0.3,0.13 -0.02,0.29 c -0.0867,-0.0133 -0.1533,-0.0233 -0.2,-0.03 -0.0467,-0.0067 -0.0767,-0.01 -0.09,-0.01 l -0.31,-0.07 c -0.0267,-0.02 -0.04,-0.07 -0.04,-0.15 0,-0.2267 0.1033,-0.66 0.31,-1.3 0.1733,-0.5333 0.2967,-0.87 0.37,-1.01 0.0267,-0.0467 0.04,-0.1167 0.04,-0.21 0,-0.1 -0.0133,-0.2167 -0.04,-0.35 0.4467,-1.1467 0.84,-1.72 1.18,-1.72 0.0467,0 0.0833,0.01 0.11,0.03 l -0.08,-0.1 c -0.0867,-0.0867 -0.13,-0.1967 -0.13,-0.33 0,-0.1333 0.0467,-0.2467 0.14,-0.34 0.0933,-0.0933 0.2033,-0.14 0.33,-0.14 0.1267,0 0.2367,0.0467 0.33,0.14 0.0933,0.0933 0.14,0.2067 0.14,0.34 0,0.12 -0.0467,0.2267 -0.14,0.32 -0.0933,0.0933 -0.2033,0.14 -0.33,0.14 l -0.1,0.22 c 0.12,0.26 0.18,0.51 0.18,0.75 0,0.06 -0.0133,0.1033 -0.04,0.13 0,0.1133 0.1333,0.2433 0.4,0.39 0.0467,0.0467 0.2033,0.1267 0.47,0.24 0.22,0.1067 0.33,0.19 0.33,0.25 m -0.52,-0.03 c -0.08,-0.0267 -0.175,-0.065 -0.285,-0.115 -0.11,-0.05 -0.235,-0.1083 -0.375,-0.175 -0.2067,-0.1067 -0.3333,-0.16 -0.38,-0.16 l -0.03,0.01 c -0.1067,0.0533 -0.16,0.2667 -0.16,0.64 0,0.0267 0.0567,0.1667 0.17,0.42 0.1467,0.32 0.2333,0.5267 0.26,0.62 l 0.8,-1.24"
         fill-rule="evenodd"
         vector-effect="none" />
    </g>
    <g
       id="g18"
       font-style="normal"
       font-weight="400"
       font-size="8.25px"
       font-family="'MS Shell Dlg 2'"
       stroke="none"
       fill-opacity="1"
       fill="#ffffff" />
  </g>
</svg>
