<?xml version="1.0" encoding="UTF-8" standalone="no"?>
<svg width="11.2889mm" height="11.2889mm"
 viewBox="0 0 32 32"
 xmlns="http://www.w3.org/2000/svg" xmlns:xlink="http://www.w3.org/1999/xlink"  version="1.2" baseProfile="tiny">
<title>Qt SVG Document</title>
<desc>Generated with Qt</desc>
<defs>
</defs>
<g fill="none" stroke="black" stroke-width="1" fill-rule="evenodd" stroke-linecap="square" stroke-linejoin="bevel" >

<g fill="none" stroke="none" transform="matrix(1,0,0,1,0,0)"
font-family="MS Shell Dlg 2" font-size="8.25" font-weight="400" font-style="normal" 
>
</g>

<g fill="none" stroke="none" transform="matrix(1.33333,0,0,1.33333,0,0)"
font-family="MS Shell Dlg 2" font-size="8.25" font-weight="400" font-style="normal" 
>
</g>

<g fill="#33a02c" fill-opacity="1" stroke="none" transform="matrix(1,0,0,1,0,0)"
font-family="MS Shell Dlg 2" font-size="8.25" font-weight="400" font-style="normal" 
>
<path vector-effect="none" fill-rule="evenodd" d="M21.402,17.114 C21.402,17.87 21.2597,18.5817 20.975,19.249 C20.6903,19.9163 20.2983,20.4973 19.799,20.992 C19.2997,21.4867 18.7163,21.8763 18.049,22.161 C17.3817,22.4457 16.67,22.588 15.914,22.588 C15.158,22.588 14.4463,22.4457 13.779,22.161 C13.1117,21.8763 12.5307,21.4867 12.036,20.992 C11.5413,20.4973 11.1517,19.9163 10.867,19.249 C10.5823,18.5817 10.44,17.87 10.44,17.114 C10.44,16.358 10.5823,15.6463 10.867,14.979 C11.1517,14.3117 11.5413,13.7283 12.036,13.229 C12.5307,12.7297 13.1117,12.3377 13.779,12.053 C14.4463,11.7683 15.158,11.626 15.914,11.626 C16.67,11.626 17.3817,11.7683 18.049,12.053 C18.7163,12.3377 19.2997,12.7297 19.799,13.229 C20.2983,13.7283 20.6903,14.3117 20.975,14.979 C21.2597,15.6463 21.402,16.358 21.402,17.114 "/>
</g>

<g fill="none" stroke="none" transform="matrix(1.33333,0,0,1.33333,0,0)"
font-family="MS Shell Dlg 2" font-size="8.25" font-weight="400" font-style="normal" 
>
</g>

<g fill="none" stroke="none" transform="matrix(1,0,0,1,0,0)"
font-family="MS Shell Dlg 2" font-size="8.25" font-weight="400" font-style="normal" 
>
</g>

<g fill="none" stroke="#000000" stroke-opacity="1" stroke-width="1" stroke-linecap="square" stroke-linejoin="bevel" transform="matrix(1,0,0,1,0,0)"
font-family="MS Shell Dlg 2" font-size="8.25" font-weight="400" font-style="normal" 
>
</g>

<g fill="none" stroke="none" transform="matrix(1,0,0,1,0,0)"
font-family="MS Shell Dlg 2" font-size="8.25" font-weight="400" font-style="normal" 
>
</g>

<g fill="none" stroke="none" transform="matrix(1.33333,0,0,1.33333,0,0)"
font-family="MS Shell Dlg 2" font-size="8.25" font-weight="400" font-style="normal" 
>
</g>

<g fill="#ffffff" fill-opacity="1" stroke="none" transform="matrix(1,0,0,1,0,0)"
font-family="MS Shell Dlg 2" font-size="8.25" font-weight="400" font-style="normal" 
>
<path vector-effect="none" fill-rule="evenodd" d="M18.08,19.8 L17.84,19.82 L18.22,19.6 L18.2,19.8 L18.08,19.8 M18.86,18.05 C18.8867,18.1033 18.8667,18.1633 18.8,18.23 C18.7733,18.2567 18.7467,18.2767 18.72,18.29 L18.66,18.19 C18.7,18.17 18.72,18.1567 18.72,18.15 C18.7467,18.1367 18.76,18.1167 18.76,18.09 C18.76,18.0567 18.7133,18.05 18.62,18.07 L18.6,18.07 L18.68,18.33 C18.68,18.3567 18.6667,18.3833 18.64,18.41 L18.62,18.41 C18.6067,18.41 18.5933,18.4067 18.58,18.4 C18.5667,18.3933 18.56,18.3833 18.56,18.37 L18.48,18.09 C18.4667,18.1033 18.4533,18.1133 18.44,18.12 C18.4267,18.1267 18.4133,18.1367 18.4,18.15 C18.3867,18.1633 18.38,18.1833 18.38,18.21 C18.3867,18.2167 18.3967,18.22 18.41,18.22 C18.4233,18.2267 18.4467,18.23 18.48,18.23 L18.5,18.35 C18.44,18.35 18.3883,18.34 18.345,18.32 C18.3017,18.3 18.2733,18.27 18.26,18.23 C18.24,18.1833 18.26,18.13 18.32,18.07 C18.3533,18.0367 18.4,18.01 18.46,17.99 L17.78,15.71 L16.99,16.05 C16.9767,16.0633 16.9567,16.07 16.93,16.07 C16.8967,16.07 16.8667,16.0683 16.84,16.065 C16.8133,16.0617 16.79,16.05 16.77,16.03 L16.29,15.73 C16.1833,15.9367 16.0917,16.0817 16.015,16.165 C15.9383,16.2483 15.88,16.3267 15.84,16.4 L15.4,16.56 C15.34,16.58 15.3,16.62 15.28,16.68 L15.29,16.68 C15.29,16.68 15.2933,16.6733 15.3,16.66 L16.19,16.44 C16.27,16.42 16.3433,16.4333 16.41,16.48 C16.4633,16.5333 16.49,16.6067 16.49,16.7 L16.23,18.23 L16.23,18.27 L16.31,18.35 C16.35,18.31 16.37,18.27 16.37,18.23 L16.69,16.98 L16.97,17.06 C17.0433,17.0867 17.0967,17.1333 17.13,17.2 C17.1567,17.2733 17.15,17.34 17.11,17.4 L16.47,18.43 C16.4567,18.43 16.45,18.4367 16.45,18.45 L16.51,18.49 L18.24,19.2 L18.13,19.28 L18.56,19.08 L18.4,19.28 L18.04,19.32 L18.08,19.3 L18.04,19.3 L16.99,18.88 L18.02,19.66 L17.84,19.82 L16.31,18.57 L14.07,17.65 L14.31,17.61 L15.76,18.19 L15.76,18.15 L15.78,18.15 L14.9,17.42 L15.1,17.4 L15.8,17.95 L15.92,17.26 L15.32,17.12 C15.2467,17.1067 15.1833,17.085 15.13,17.055 C15.0767,17.025 15.04,16.9733 15.02,16.9 C15,16.82 14.9967,16.7267 15.01,16.62 C15.0233,16.5133 15.0417,16.4083 15.065,16.305 C15.0883,16.2017 15.1117,16.1117 15.135,16.035 C15.1583,15.9583 15.1733,15.91 15.18,15.89 C15.1933,15.8367 15.2033,15.79 15.21,15.75 C15.2167,15.71 15.2267,15.67 15.24,15.63 L14.8,15.69 L14.35,16.26 C14.33,16.28 14.3067,16.2983 14.28,16.315 C14.2533,16.3317 14.2233,16.34 14.19,16.34 C14.1233,16.34 14.07,16.32 14.03,16.28 C13.9767,16.24 13.9467,16.1883 13.94,16.125 C13.9333,16.0617 13.95,16.0033 13.99,15.95 L14.03,15.91 L13.59,14.93 L13.57,14.93 C13.5167,14.93 13.4667,14.92 13.42,14.9 C13.3733,14.88 13.34,14.85 13.32,14.81 C13.3067,14.7767 13.2983,14.745 13.295,14.715 C13.2917,14.685 13.3,14.6533 13.32,14.62 C13.34,14.56 13.3833,14.5067 13.45,14.46 C13.51,14.4267 13.5733,14.42 13.64,14.44 C13.7067,14.46 13.7567,14.5 13.79,14.56 C13.81,14.62 13.81,14.68 13.79,14.74 C13.77,14.8133 13.7367,14.8567 13.69,14.87 L14.11,15.81 L14.49,15.33 C14.5233,15.2967 14.57,15.27 14.63,15.25 L15.34,15.15 C15.36,15.2033 15.3867,15.2567 15.42,15.31 C15.4533,15.37 15.5,15.4183 15.56,15.455 C15.62,15.4917 15.6867,15.5167 15.76,15.53 C15.78,15.5433 15.8033,15.55 15.83,15.55 C15.8567,15.55 15.8867,15.55 15.92,15.55 C16.1333,15.53 16.2833,15.4233 16.37,15.23 L16.93,15.59 L17.64,15.27 C17.7,15.2367 17.76,15.2333 17.82,15.26 C17.88,15.2867 17.92,15.33 17.94,15.39 C17.98,15.4967 17.9667,15.5833 17.9,15.65 L18.56,17.95 L18.62,17.95 C18.68,17.9367 18.7317,17.94 18.775,17.96 C18.8183,17.98 18.8467,18.01 18.86,18.05 M13.65,14.77 C13.6633,14.7567 13.67,14.745 13.67,14.735 C13.67,14.725 13.6767,14.7133 13.69,14.7 L13.69,14.62 C13.6367,14.5667 13.5967,14.5467 13.57,14.56 C13.5433,14.56 13.5233,14.5667 13.51,14.58 C13.4833,14.58 13.4567,14.6067 13.43,14.66 C13.4167,14.6733 13.4133,14.6867 13.42,14.7 C13.4267,14.7133 13.43,14.7267 13.43,14.74 C13.45,14.7867 13.49,14.81 13.55,14.81 L13.49,14.68 C13.53,14.64 13.5633,14.62 13.59,14.62 L13.65,14.77 M13.39,14.46 C13.3767,14.44 13.375,14.4217 13.385,14.405 C13.395,14.3883 13.41,14.38 13.43,14.38 C13.4433,14.3667 13.4567,14.3633 13.47,14.37 C13.4833,14.3767 13.49,14.3867 13.49,14.4 L13.51,14.42 C13.4633,14.42 13.43,14.44 13.41,14.48 L13.39,14.46 M15.78,15.43 C15.66,15.3967 15.5683,15.3333 15.505,15.24 C15.4417,15.1467 15.42,15.0433 15.44,14.93 C15.46,14.8033 15.52,14.7083 15.62,14.645 C15.72,14.5817 15.8267,14.56 15.94,14.58 C16.0667,14.6133 16.1617,14.6783 16.225,14.775 C16.2883,14.8717 16.31,14.9767 16.29,15.09 C16.2567,15.21 16.1917,15.3017 16.095,15.365 C15.9983,15.4283 15.8933,15.45 15.78,15.43 "/>
</g>

<g fill="none" stroke="none" transform="matrix(1.33333,0,0,1.33333,0,0)"
font-family="MS Shell Dlg 2" font-size="8.25" font-weight="400" font-style="normal" 
>
</g>

<g fill="none" stroke="none" transform="matrix(1,0,0,1,0,0)"
font-family="MS Shell Dlg 2" font-size="8.25" font-weight="400" font-style="normal" 
>
</g>

<g fill="none" stroke="#000000" stroke-opacity="1" stroke-width="1" stroke-linecap="square" stroke-linejoin="bevel" transform="matrix(1,0,0,1,0,0)"
font-family="MS Shell Dlg 2" font-size="8.25" font-weight="400" font-style="normal" 
>
</g>
</g>
</svg>
