<?xml version="1.0" encoding="UTF-8" standalone="no"?>
<svg width="11.2889mm" height="11.2889mm"
 viewBox="0 0 32 32"
 xmlns="http://www.w3.org/2000/svg" xmlns:xlink="http://www.w3.org/1999/xlink"  version="1.2" baseProfile="tiny">
<title>Qt SVG Document</title>
<desc>Generated with Qt</desc>
<defs>
</defs>
<g fill="none" stroke="black" stroke-width="1" fill-rule="evenodd" stroke-linecap="square" stroke-linejoin="bevel" >

<g fill="#1f78b4" fill-opacity="1" stroke="none" transform="matrix(1,0,0,1,0,0)"
font-family="MS Shell Dlg 2" font-size="8.25" font-weight="400" font-style="normal" 
>
<path vector-effect="none" fill-rule="evenodd" d="M21.402,17.114 C21.402,17.87 21.2597,18.5817 20.975,19.249 C20.6903,19.9163 20.2983,20.4973 19.799,20.992 C19.2997,21.4867 18.7163,21.8763 18.049,22.161 C17.3817,22.4457 16.67,22.588 15.914,22.588 C15.158,22.588 14.4463,22.4457 13.779,22.161 C13.1117,21.8763 12.5307,21.4867 12.036,20.992 C11.5413,20.4973 11.1517,19.9163 10.867,19.249 C10.5823,18.5817 10.44,17.87 10.44,17.114 C10.44,16.358 10.5823,15.6463 10.867,14.979 C11.1517,14.3117 11.5413,13.7283 12.036,13.229 C12.5307,12.7297 13.1117,12.3377 13.779,12.053 C14.4463,11.7683 15.158,11.626 15.914,11.626 C16.67,11.626 17.3817,11.7683 18.049,12.053 C18.7163,12.3377 19.2997,12.7297 19.799,13.229 C20.2983,13.7283 20.6903,14.3117 20.975,14.979 C21.2597,15.6463 21.402,16.358 21.402,17.114 "/>
</g>

<g fill="#1f78b4" fill-opacity="1" stroke="none" transform="matrix(1,0,0,1,0,0)"
font-family="MS Shell Dlg 2" font-size="8.25" font-weight="400" font-style="normal" 
>
</g>

<g fill="#ffffff" fill-opacity="1" stroke="none" transform="matrix(1,0,0,1,0,0)"
font-family="MS Shell Dlg 2" font-size="8.25" font-weight="400" font-style="normal" 
>
<path vector-effect="none" fill-rule="evenodd" d="M15.471,15.297 L14.778,15.957 L15.427,16.298 C15.5443,16.3713 15.614,16.452 15.636,16.54 C15.6507,16.584 15.658,16.628 15.658,16.672 L15.658,18.113 C15.658,18.1937 15.6268,18.2633 15.5645,18.322 C15.5022,18.3807 15.4307,18.41 15.35,18.41 C15.262,18.41 15.1905,18.3807 15.1355,18.322 C15.0805,18.2633 15.053,18.1937 15.053,18.113 L15.053,16.947 L13.931,16.32 C13.799,16.254 13.733,16.133 13.733,15.957 C13.733,15.8397 13.7623,15.7407 13.821,15.66 L14.921,14.582 C14.9797,14.516 15.0493,14.4757 15.13,14.461 C15.1667,14.4537 15.2033,14.45 15.24,14.45 C15.2987,14.45 15.3482,14.461 15.3885,14.483 C15.4288,14.505 15.4637,14.5307 15.493,14.56 C15.5223,14.5893 15.5517,14.6223 15.581,14.659 L16.153,15.55 L17,15.55 C17.0807,15.5427 17.1412,15.5592 17.1815,15.5995 C17.2218,15.6398 17.242,15.6857 17.242,15.737 C17.242,15.7883 17.2218,15.8342 17.1815,15.8745 C17.1412,15.9148 17.0807,15.935 17,15.935 L16.021,15.935 C15.9843,15.935 15.9458,15.9277 15.9055,15.913 C15.8652,15.8983 15.8267,15.8617 15.79,15.803 L15.471,15.297 M15.999,14.703 C15.8523,14.703 15.7277,14.6517 15.625,14.549 C15.5223,14.4463 15.471,14.3217 15.471,14.175 C15.471,14.0357 15.5223,13.9165 15.625,13.8175 C15.7277,13.7185 15.8523,13.669 15.999,13.669 C16.1383,13.669 16.2575,13.7185 16.3565,13.8175 C16.4555,13.9165 16.505,14.0357 16.505,14.175 C16.505,14.3217 16.4555,14.4463 16.3565,14.549 C16.2575,14.6517 16.1383,14.703 15.999,14.703 M17.275,16.507 C17.473,16.507 17.66,16.5437 17.836,16.617 C18.012,16.6903 18.166,16.793 18.298,16.925 C18.43,17.057 18.5327,17.211 18.606,17.387 C18.6793,17.563 18.716,17.75 18.716,17.948 C18.716,18.146 18.6793,18.333 18.606,18.509 C18.5327,18.685 18.43,18.839 18.298,18.971 C18.166,19.103 18.012,19.2057 17.836,19.279 C17.66,19.3523 17.473,19.389 17.275,19.389 C17.077,19.389 16.89,19.3523 16.714,19.279 C16.538,19.2057 16.384,19.103 16.252,18.971 C16.12,18.839 16.0173,18.685 15.944,18.509 C15.8707,18.333 15.834,18.146 15.834,17.948 C15.834,17.75 15.8707,17.563 15.944,17.387 C16.0173,17.211 16.12,17.057 16.252,16.925 C16.384,16.793 16.538,16.6903 16.714,16.617 C16.89,16.5437 17.077,16.507 17.275,16.507 M17.275,19.114 C17.4363,19.114 17.5885,19.0828 17.7315,19.0205 C17.8745,18.9582 17.9973,18.8738 18.1,18.7675 C18.2027,18.6612 18.2852,18.5383 18.3475,18.399 C18.4098,18.2597 18.441,18.1093 18.441,17.948 C18.441,17.7867 18.4098,17.6363 18.3475,17.497 C18.2852,17.3577 18.2027,17.2348 18.1,17.1285 C17.9973,17.0222 17.8745,16.9378 17.7315,16.8755 C17.5885,16.8132 17.4363,16.782 17.275,16.782 C17.1137,16.782 16.9633,16.8132 16.824,16.8755 C16.6847,16.9378 16.5618,17.0222 16.4555,17.1285 C16.3492,17.2348 16.2648,17.3577 16.2025,17.497 C16.1402,17.6363 16.109,17.7867 16.109,17.948 C16.109,18.1093 16.1402,18.2597 16.2025,18.399 C16.2648,18.5383 16.3492,18.6612 16.4555,18.7675 C16.5618,18.8738 16.6847,18.9582 16.824,19.0205 C16.9633,19.0828 17.1137,19.114 17.275,19.114 M13.414,16.485 C13.612,16.485 13.799,16.5235 13.975,16.6005 C14.151,16.6775 14.3032,16.782 14.4315,16.914 C14.5598,17.046 14.6625,17.1982 14.7395,17.3705 C14.8165,17.5428 14.855,17.728 14.855,17.926 C14.855,18.124 14.8165,18.311 14.7395,18.487 C14.6625,18.663 14.5598,18.817 14.4315,18.949 C14.3032,19.081 14.151,19.1837 13.975,19.257 C13.799,19.3303 13.612,19.367 13.414,19.367 C13.216,19.367 13.029,19.3303 12.853,19.257 C12.677,19.1837 12.523,19.081 12.391,18.949 C12.259,18.817 12.1563,18.663 12.083,18.487 C12.0097,18.311 11.973,18.124 11.973,17.926 C11.973,17.728 12.0097,17.5428 12.083,17.3705 C12.1563,17.1982 12.259,17.046 12.391,16.914 C12.523,16.782 12.677,16.6775 12.853,16.6005 C13.029,16.5235 13.216,16.485 13.414,16.485 M13.414,19.092 C13.5753,19.092 13.7257,19.0627 13.865,19.004 C14.0043,18.9453 14.1272,18.8628 14.2335,18.7565 C14.3398,18.6502 14.4242,18.5273 14.4865,18.388 C14.5488,18.2487 14.58,18.0947 14.58,17.926 C14.58,17.7647 14.5488,17.6143 14.4865,17.475 C14.4242,17.3357 14.3398,17.2128 14.2335,17.1065 C14.1272,17.0002 14.0043,16.9158 13.865,16.8535 C13.7257,16.7912 13.5753,16.76 13.414,16.76 C13.2527,16.76 13.1005,16.7912 12.9575,16.8535 C12.8145,16.9158 12.6898,17.0002 12.5835,17.1065 C12.4772,17.2128 12.3928,17.3357 12.3305,17.475 C12.2682,17.6143 12.237,17.7647 12.237,17.926 C12.237,18.0947 12.2682,18.2487 12.3305,18.388 C12.3928,18.5273 12.4772,18.6502 12.5835,18.7565 C12.6898,18.8628 12.8145,18.9453 12.9575,19.004 C13.1005,19.0627 13.2527,19.092 13.414,19.092 "/>
</g>

<g fill="#ffffff" fill-opacity="1" stroke="none" transform="matrix(1,0,0,1,0,0)"
font-family="MS Shell Dlg 2" font-size="8.25" font-weight="400" font-style="normal" 
>
</g>
</g>
</svg>
