<?xml version="1.0" encoding="UTF-8" standalone="no"?>
<svg width="11.2889mm" height="11.2889mm"
 viewBox="0 0 32 32"
 xmlns="http://www.w3.org/2000/svg" xmlns:xlink="http://www.w3.org/1999/xlink"  version="1.2" baseProfile="tiny">
<title>Qt SVG Document</title>
<desc>Generated with Qt</desc>
<defs>
</defs>
<g fill="none" stroke="black" stroke-width="1" fill-rule="evenodd" stroke-linecap="square" stroke-linejoin="bevel" >

<g fill="#66b1e3" fill-opacity="1" stroke="none" transform="matrix(1,0,0,1,0,0)"
font-family="MS Shell Dlg 2" font-size="8.25" font-weight="400" font-style="normal" 
>
<path vector-effect="none" fill-rule="evenodd" d="M21.402,17.114 C21.402,17.87 21.2597,18.5817 20.975,19.249 C20.6903,19.9163 20.2983,20.4973 19.799,20.992 C19.2997,21.4867 18.7163,21.8763 18.049,22.161 C17.3817,22.4457 16.67,22.588 15.914,22.588 C15.158,22.588 14.4463,22.4457 13.779,22.161 C13.1117,21.8763 12.5307,21.4867 12.036,20.992 C11.5413,20.4973 11.1517,19.9163 10.867,19.249 C10.5823,18.5817 10.44,17.87 10.44,17.114 C10.44,16.358 10.5823,15.6463 10.867,14.979 C11.1517,14.3117 11.5413,13.7283 12.036,13.229 C12.5307,12.7297 13.1117,12.3377 13.779,12.053 C14.4463,11.7683 15.158,11.626 15.914,11.626 C16.67,11.626 17.3817,11.7683 18.049,12.053 C18.7163,12.3377 19.2997,12.7297 19.799,13.229 C20.2983,13.7283 20.6903,14.3117 20.975,14.979 C21.2597,15.6463 21.402,16.358 21.402,17.114 "/>
</g>

<g fill="#66b1e3" fill-opacity="1" stroke="none" transform="matrix(1,0,0,1,0,0)"
font-family="MS Shell Dlg 2" font-size="8.25" font-weight="400" font-style="normal" 
>
</g>

<g fill="#ffffff" fill-opacity="1" stroke="none" transform="matrix(1,0,0,1,0,0)"
font-family="MS Shell Dlg 2" font-size="8.25" font-weight="400" font-style="normal" 
>
<path vector-effect="none" fill-rule="evenodd" d="M16.13,16.62 C16.0767,16.62 16.0267,16.6017 15.98,16.565 C15.9333,16.5283 15.9033,16.49 15.89,16.45 C15.9367,16.5167 16.0167,16.55 16.13,16.55 C16.2433,16.55 16.3233,16.5167 16.37,16.45 C16.3567,16.49 16.3267,16.5283 16.28,16.565 C16.2333,16.6017 16.1833,16.62 16.13,16.62 M16.13,16.96 C16.19,17.0333 16.27,17.07 16.37,17.07 C16.4833,17.07 16.56,17.0333 16.6,16.96 C16.5667,17.06 16.49,17.11 16.37,17.11 C16.2433,17.11 16.1633,17.06 16.13,16.96 M16.06,17.26 C15.9667,17.26 15.91,17.2167 15.89,17.13 C15.93,17.19 15.9867,17.22 16.06,17.22 C16.16,17.22 16.2267,17.19 16.26,17.13 C16.2333,17.2167 16.1667,17.26 16.06,17.26 M16.88,15.02 C16.7733,15.02 16.6967,14.97 16.65,14.87 C16.71,14.9433 16.7867,14.98 16.88,14.98 C17,14.98 17.08,14.9433 17.12,14.87 C17.0867,14.97 17.0067,15.02 16.88,15.02 M17.14,14.77 C17.1067,14.77 17.0767,14.7567 17.05,14.73 C17.0233,14.7033 17.0033,14.68 16.99,14.66 C17.03,14.7 17.08,14.72 17.14,14.72 C17.22,14.72 17.27,14.7 17.29,14.66 C17.2767,14.68 17.26,14.7033 17.24,14.73 C17.22,14.7567 17.1867,14.77 17.14,14.77 M15.46,17.72 C15.3667,17.72 15.3033,17.6767 15.27,17.59 C15.29,17.61 15.3167,17.6283 15.35,17.645 C15.3833,17.6617 15.42,17.67 15.46,17.67 C15.5067,17.67 15.5483,17.6617 15.585,17.645 C15.6217,17.6283 15.6533,17.61 15.68,17.59 C15.66,17.6767 15.5867,17.72 15.46,17.72 M16.32,19.31 C16.3333,19.33 16.355,19.35 16.385,19.37 C16.415,19.39 16.4533,19.4 16.5,19.4 C16.5333,19.4 16.5633,19.39 16.59,19.37 C16.6167,19.35 16.6367,19.33 16.65,19.31 C16.6367,19.3433 16.6167,19.3733 16.59,19.4 C16.5633,19.4267 16.5333,19.44 16.5,19.44 C16.4533,19.44 16.415,19.4267 16.385,19.4 C16.355,19.3733 16.3333,19.3433 16.32,19.31 M17.25,18.9 C17.3033,18.9733 17.3733,19.01 17.46,19.01 C17.5533,19.01 17.6267,18.9733 17.68,18.9 C17.64,19.0133 17.5667,19.07 17.46,19.07 C17.4267,19.07 17.3933,19.0567 17.36,19.03 C17.3467,19.05 17.3267,19.07 17.3,19.09 C17.2733,19.11 17.2433,19.12 17.21,19.12 C17.1233,19.12 17.0633,19.0833 17.03,19.01 C17.0567,19.05 17.1167,19.07 17.21,19.07 C17.2633,19.07 17.3133,19.0567 17.36,19.03 C17.3267,19.0167 17.3033,19 17.29,18.98 C17.2767,18.96 17.2633,18.9333 17.25,18.9 M15.07,18.68 C15.0967,18.74 15.1567,18.77 15.25,18.77 C15.3167,18.77 15.3667,18.74 15.4,18.68 C15.3667,18.7533 15.3167,18.79 15.25,18.79 L15.16,18.79 C15.1267,18.8633 15.0633,18.9 14.97,18.9 C14.8433,18.9 14.77,18.8567 14.75,18.77 C14.77,18.79 14.8,18.81 14.84,18.83 C14.88,18.85 14.9233,18.86 14.97,18.86 C15.0567,18.86 15.12,18.8367 15.16,18.79 C15.14,18.7767 15.12,18.7617 15.1,18.745 C15.08,18.7283 15.07,18.7067 15.07,18.68 M18.43,18.77 C18.65,18.79 18.8117,18.8267 18.915,18.88 C19.0183,18.9333 19.065,18.9917 19.055,19.055 C19.045,19.1183 18.9833,19.18 18.87,19.24 C18.7567,19.3 18.5967,19.3433 18.39,19.37 C18.3367,19.45 18.2667,19.5167 18.18,19.57 C18.0933,19.6233 17.9717,19.665 17.815,19.695 C17.6583,19.725 17.455,19.74 17.205,19.74 C16.955,19.74 16.64,19.7267 16.26,19.7 C16.06,19.6867 15.825,19.685 15.555,19.695 C15.285,19.705 15.02,19.7067 14.76,19.7 C14.5,19.6933 14.2667,19.6733 14.06,19.64 C13.8533,19.6067 13.7167,19.54 13.65,19.44 C13.61,19.38 13.61,19.3317 13.65,19.295 C13.69,19.2583 13.7267,19.2283 13.76,19.205 C13.7933,19.1817 13.8033,19.1617 13.79,19.145 C13.7767,19.1283 13.6967,19.11 13.55,19.09 C13.3167,19.05 13.1683,18.9783 13.105,18.875 C13.0417,18.7717 13.08,18.7 13.22,18.66 C13.3333,18.64 13.4383,18.6183 13.535,18.595 C13.6317,18.5717 13.6983,18.55 13.735,18.53 C13.7717,18.51 13.7683,18.4883 13.725,18.465 C13.6817,18.4417 13.58,18.42 13.42,18.4 C13.2467,18.38 13.1083,18.35 13.005,18.31 C12.9017,18.27 12.8267,18.23 12.78,18.19 C12.7333,18.15 12.7133,18.115 12.72,18.085 C12.7267,18.055 12.7567,18.04 12.81,18.04 C13.0833,18.04 13.29,18.0333 13.43,18.02 C13.57,18.0067 13.665,17.99 13.715,17.97 C13.765,17.95 13.785,17.9267 13.775,17.9 C13.765,17.8733 13.7467,17.85 13.72,17.83 C13.6933,17.81 13.67,17.7933 13.65,17.78 C13.63,17.7667 13.6367,17.76 13.67,17.76 C13.7233,17.76 13.7583,17.755 13.775,17.745 C13.7917,17.735 13.8033,17.7217 13.81,17.705 C13.8167,17.6883 13.825,17.675 13.835,17.665 C13.845,17.655 13.87,17.65 13.91,17.65 C13.9567,17.5967 13.9717,17.52 13.955,17.42 C13.9383,17.32 13.93,17.21 13.93,17.09 C13.93,16.97 13.95,16.87 13.99,16.79 C14.03,16.71 14.075,16.635 14.125,16.565 C14.175,16.495 14.2217,16.4267 14.265,16.36 C14.3083,16.2933 14.3333,16.22 14.34,16.14 C14.3667,15.9533 14.41,15.8167 14.47,15.73 C14.53,15.6433 14.595,15.5733 14.665,15.52 C14.735,15.4667 14.8033,15.4067 14.87,15.34 C14.9367,15.2733 14.99,15.1667 15.03,15.02 C15.03,14.9133 15.0833,14.8133 15.19,14.72 C15.2967,14.6267 15.43,14.5467 15.59,14.48 C15.75,14.4133 15.9233,14.36 16.11,14.32 C16.2967,14.28 16.4667,14.2567 16.62,14.25 C16.6667,14.2433 16.7,14.2467 16.72,14.26 C16.74,14.2733 16.7617,14.2883 16.785,14.305 C16.8083,14.3217 16.8417,14.3383 16.885,14.355 C16.9283,14.3717 16.9933,14.38 17.08,14.38 C17.2067,14.3067 17.335,14.2517 17.465,14.215 C17.595,14.1783 17.7133,14.15 17.82,14.13 C17.88,14.1167 17.94,14.1067 18,14.1 C18.06,14.0933 18.12,14.0867 18.18,14.08 C18.12,14.12 18.065,14.16 18.015,14.2 C17.965,14.24 17.9167,14.2767 17.87,14.31 C17.7967,14.37 17.7283,14.4283 17.665,14.485 C17.6017,14.5417 17.5767,14.5833 17.59,14.61 C17.67,14.57 17.7683,14.525 17.885,14.475 C18.0017,14.425 18.1183,14.4017 18.235,14.405 C18.3517,14.4083 18.4567,14.4533 18.55,14.54 C18.6433,14.6267 18.7067,14.7867 18.74,15.02 C18.74,15.04 18.7533,15.045 18.78,15.035 C18.8067,15.025 18.8283,15.0383 18.845,15.075 C18.8617,15.1117 18.865,15.19 18.855,15.31 C18.845,15.43 18.8067,15.6233 18.74,15.89 C18.8,15.9633 18.805,16.035 18.755,16.105 C18.705,16.175 18.645,16.2383 18.575,16.295 C18.505,16.3517 18.4433,16.395 18.39,16.425 C18.3367,16.455 18.3367,16.4633 18.39,16.45 C18.53,16.3967 18.6517,16.3917 18.755,16.435 C18.8583,16.4783 18.8867,16.5467 18.84,16.64 C18.7867,16.7667 18.7517,16.9017 18.735,17.045 C18.7183,17.1883 18.71,17.3267 18.71,17.46 C18.71,17.6133 18.72,17.7633 18.74,17.91 C18.8267,18.0567 18.8733,18.1867 18.88,18.3 C18.8933,18.4 18.8717,18.4967 18.815,18.59 C18.7583,18.6833 18.63,18.7433 18.43,18.77 M16.06,19.55 C16.56,19.5833 16.995,19.5767 17.365,19.53 C17.735,19.4833 18.0383,19.425 18.275,19.355 C18.5117,19.285 18.68,19.2133 18.78,19.14 C18.88,19.0667 18.9067,19.0167 18.86,18.99 C18.8467,18.9767 18.845,18.9617 18.855,18.945 C18.865,18.9283 18.865,18.9117 18.855,18.895 C18.845,18.8783 18.815,18.8633 18.765,18.85 C18.715,18.8367 18.62,18.8233 18.48,18.81 C18.36,18.8033 18.305,18.7883 18.315,18.765 C18.325,18.7417 18.36,18.7183 18.42,18.695 C18.48,18.6717 18.5433,18.65 18.61,18.63 C18.6767,18.61 18.7033,18.6 18.69,18.6 C18.6167,18.5667 18.55,18.5517 18.49,18.555 C18.43,18.5583 18.375,18.5667 18.325,18.58 C18.275,18.5933 18.23,18.605 18.19,18.615 C18.15,18.625 18.1167,18.62 18.09,18.6 C18.0233,18.56 17.93,18.54 17.81,18.54 C17.69,18.54 17.61,18.56 17.57,18.6 C17.53,18.6333 17.485,18.6467 17.435,18.64 C17.385,18.6333 17.3367,18.62 17.29,18.6 C17.2233,18.54 17.1467,18.51 17.06,18.51 C16.9667,18.51 16.8867,18.54 16.82,18.6 C16.7733,18.6267 16.7233,18.64 16.67,18.64 L16.67,18.51 C16.6167,18.5433 16.58,18.56 16.56,18.56 C16.4933,18.56 16.44,18.5417 16.4,18.505 C16.36,18.4683 16.3333,18.4267 16.32,18.38 C16.3733,18.4533 16.4533,18.49 16.56,18.49 C16.5733,18.49 16.5883,18.4867 16.605,18.48 C16.6217,18.4733 16.6433,18.47 16.67,18.47 C16.67,18.4367 16.6667,18.4083 16.66,18.385 C16.6533,18.3617 16.65,18.3333 16.65,18.3 C16.7833,18.32 16.8967,18.2967 16.99,18.23 C17.05,18.2033 17.1067,18.19 17.16,18.19 C17.22,18.19 17.28,18.2033 17.34,18.23 C17.4,18.2833 17.475,18.31 17.565,18.31 C17.655,18.31 17.7367,18.2833 17.81,18.23 C17.9167,18.17 18.0233,18.17 18.13,18.23 C18.21,18.29 18.2967,18.32 18.39,18.32 C18.4433,18.3067 18.5167,18.2783 18.61,18.235 C18.7033,18.1917 18.76,18.1467 18.78,18.1 C18.7667,18.1133 18.7417,18.125 18.705,18.135 C18.6683,18.145 18.6283,18.1517 18.585,18.155 C18.5417,18.1583 18.5,18.1617 18.46,18.165 C18.42,18.1683 18.3967,18.17 18.39,18.17 C18.3433,18.17 18.2933,18.1533 18.24,18.12 C18.0533,18.0133 17.88,18.0133 17.72,18.12 C17.68,18.1533 17.63,18.17 17.57,18.17 C17.51,18.17 17.4533,18.1533 17.4,18.12 C17.3467,18.0667 17.2667,18.04 17.16,18.04 C17.0733,18.04 16.9867,18.0667 16.9,18.12 C16.8267,18.1733 16.7433,18.1833 16.65,18.15 C16.6367,17.75 16.6433,17.365 16.67,16.995 C16.6967,16.625 16.7467,16.2767 16.82,15.95 C16.7667,16.0233 16.7,16.06 16.62,16.06 C16.5,16.06 16.4233,16.0033 16.39,15.89 C16.4367,15.9567 16.5133,15.99 16.62,15.99 C16.72,15.99 16.7867,15.9633 16.82,15.91 C16.9267,15.51 17.07,15.155 17.25,14.845 C17.43,14.535 17.68,14.3 18,14.14 C17.8867,14.16 17.775,14.1867 17.665,14.22 C17.555,14.2533 17.4467,14.29 17.34,14.33 C17.36,14.33 17.3767,14.335 17.39,14.345 C17.4033,14.355 17.4267,14.36 17.46,14.36 C17.5,14.36 17.5367,14.3433 17.57,14.31 C17.57,14.3367 17.5583,14.355 17.535,14.365 C17.5117,14.375 17.4867,14.38 17.46,14.38 C17.4,14.38 17.36,14.3633 17.34,14.33 C17.2867,14.3567 17.235,14.38 17.185,14.4 C17.135,14.42 17.0833,14.44 17.03,14.46 C17.05,14.48 17.08,14.49 17.12,14.49 C17.16,14.49 17.1967,14.4733 17.23,14.44 C17.23,14.4667 17.2167,14.485 17.19,14.495 C17.1633,14.505 17.14,14.51 17.12,14.51 C17.0867,14.51 17.0567,14.5033 17.03,14.49 C16.85,14.5833 16.6833,14.7033 16.53,14.85 C16.3767,14.9967 16.23,15.1633 16.09,15.35 C16.13,15.35 16.1667,15.3417 16.2,15.325 C16.2333,15.3083 16.26,15.2933 16.28,15.28 C16.2733,15.26 16.2533,15.2333 16.22,15.2 C16.2867,15.2667 16.3633,15.3 16.45,15.3 C16.5633,15.3 16.6433,15.2667 16.69,15.2 C16.6767,15.24 16.65,15.2783 16.61,15.315 C16.57,15.3517 16.5167,15.37 16.45,15.37 C16.3833,15.37 16.3267,15.34 16.28,15.28 C16.2467,15.3533 16.1833,15.39 16.09,15.39 L16.06,15.39 C16.0267,15.4367 15.995,15.4833 15.965,15.53 C15.935,15.5767 15.9033,15.6233 15.87,15.67 C15.9033,15.69 15.94,15.71 15.98,15.73 C16.02,15.75 16.0567,15.76 16.09,15.76 C16.1567,15.76 16.215,15.745 16.265,15.715 C16.315,15.685 16.3567,15.65 16.39,15.61 C16.3767,15.67 16.3417,15.72 16.285,15.76 C16.2283,15.8 16.1633,15.82 16.09,15.82 C15.99,15.82 15.91,15.7833 15.85,15.71 C15.7967,15.7833 15.7483,15.865 15.705,15.955 C15.6617,16.045 15.6233,16.1367 15.59,16.23 C15.6033,16.23 15.62,16.2333 15.64,16.24 C15.66,16.2467 15.68,16.25 15.7,16.25 C15.74,16.25 15.7833,16.24 15.83,16.22 C15.8767,16.2 15.9133,16.1733 15.94,16.14 C15.8867,16.24 15.8067,16.29 15.7,16.29 C15.68,16.29 15.6583,16.29 15.635,16.29 C15.6117,16.29 15.59,16.2833 15.57,16.27 C15.5367,16.3433 15.5033,16.42 15.47,16.5 C15.4367,16.58 15.4067,16.6633 15.38,16.75 C15.4267,16.7767 15.4833,16.79 15.55,16.79 C15.67,16.79 15.77,16.74 15.85,16.64 C15.83,16.7067 15.7917,16.7583 15.735,16.795 C15.6783,16.8317 15.6167,16.85 15.55,16.85 C15.4767,16.85 15.41,16.8367 15.35,16.81 C15.33,16.8633 15.3133,16.9183 15.3,16.975 C15.2867,17.0317 15.27,17.0933 15.25,17.16 L15.27,17.16 C15.37,17.16 15.4467,17.1233 15.5,17.05 C15.4867,17.09 15.4583,17.125 15.415,17.155 C15.3717,17.185 15.3233,17.2 15.27,17.2 L15.22,17.2 C15.18,17.3533 15.1433,17.5083 15.11,17.665 C15.0767,17.8217 15.05,17.9833 15.03,18.15 C15.0167,18.15 15.005,18.145 14.995,18.135 C14.985,18.125 14.9667,18.12 14.94,18.12 C14.9067,18.0867 14.87,18.065 14.83,18.055 C14.79,18.045 14.75,18.04 14.71,18.04 C14.6233,18.04 14.5367,18.0667 14.45,18.12 C14.3367,18.1933 14.23,18.1933 14.13,18.12 C13.9767,18.0067 13.81,18.0067 13.63,18.12 C13.5767,18.1533 13.5267,18.17 13.48,18.17 C13.4333,18.17 13.3833,18.1533 13.33,18.12 C13.3367,18.1667 13.3583,18.2017 13.395,18.225 C13.4317,18.2483 13.4717,18.2633 13.515,18.27 C13.5583,18.2767 13.6017,18.2767 13.645,18.27 C13.6883,18.2633 13.72,18.25 13.74,18.23 C13.8267,18.17 13.9267,18.17 14.04,18.23 C14.22,18.3433 14.3867,18.3433 14.54,18.23 C14.6,18.2033 14.6567,18.19 14.71,18.19 C14.7633,18.19 14.82,18.2033 14.88,18.23 C14.9,18.2433 14.9217,18.255 14.945,18.265 C14.9683,18.275 14.99,18.2867 15.01,18.3 C15.0033,18.32 14.9983,18.3467 14.995,18.38 C14.9917,18.4133 14.9867,18.445 14.98,18.475 C14.9733,18.505 14.965,18.5267 14.955,18.54 C14.945,18.5533 14.9333,18.55 14.92,18.53 C14.9,18.53 14.8817,18.5267 14.865,18.52 C14.8483,18.5133 14.8333,18.51 14.82,18.51 C14.7267,18.51 14.6467,18.54 14.58,18.6 C14.4867,18.66 14.3867,18.66 14.28,18.6 C14.2133,18.5467 14.1417,18.52 14.065,18.52 C13.9883,18.52 13.9167,18.5467 13.85,18.6 C13.83,18.6067 13.7733,18.615 13.68,18.625 C13.5867,18.635 13.4917,18.6467 13.395,18.66 C13.2983,18.6733 13.2217,18.695 13.165,18.725 C13.1083,18.755 13.1067,18.7933 13.16,18.84 C13.2467,18.9 13.3317,18.94 13.415,18.96 C13.4983,18.98 13.6,18.9967 13.72,19.01 C13.9333,19.0233 14.0883,19.0383 14.185,19.055 C14.2817,19.0717 14.3283,19.0933 14.325,19.12 C14.3217,19.1467 14.2717,19.175 14.175,19.205 C14.0783,19.235 13.9467,19.27 13.78,19.31 C13.8867,19.4433 14.0317,19.5267 14.215,19.56 C14.3983,19.5933 14.5983,19.6083 14.815,19.605 C15.0317,19.6017 15.25,19.5883 15.47,19.565 C15.69,19.5417 15.8867,19.5367 16.06,19.55 M18.13,19.05 C18.1567,19.07 18.1883,19.09 18.225,19.11 C18.2617,19.13 18.3033,19.14 18.35,19.14 C18.39,19.14 18.43,19.13 18.47,19.11 C18.51,19.09 18.54,19.07 18.56,19.05 C18.54,19.15 18.47,19.2 18.35,19.2 C18.25,19.2 18.1767,19.15 18.13,19.05 M16,18.04 C16.0667,18.04 16.1283,18.025 16.185,17.995 C16.2417,17.965 16.2867,17.93 16.32,17.89 C16.3,17.9567 16.26,18.0083 16.2,18.045 C16.14,18.0817 16.0733,18.1 16,18.1 C15.9333,18.1 15.8717,18.0817 15.815,18.045 C15.7583,18.0083 15.72,17.9633 15.7,17.91 C15.6667,17.95 15.6233,17.97 15.57,17.97 C15.4767,17.97 15.42,17.92 15.4,17.82 C15.44,17.8933 15.4967,17.93 15.57,17.93 C15.6433,17.93 15.7,17.8933 15.74,17.82 C15.74,17.8533 15.7267,17.8833 15.7,17.91 C15.7333,17.9433 15.7783,17.9733 15.835,18 C15.8917,18.0267 15.9467,18.04 16,18.04 M15.59,18.9 C15.67,19 15.77,19.05 15.89,19.05 C16.0033,19.05 16.0967,19 16.17,18.9 C16.1233,19.0467 16.03,19.12 15.89,19.12 C15.7367,19.12 15.6367,19.0467 15.59,18.9 M14.47,19.31 C14.49,19.33 14.5167,19.35 14.55,19.37 C14.5833,19.39 14.62,19.4 14.66,19.4 C14.6933,19.4 14.725,19.39 14.755,19.37 C14.785,19.35 14.8133,19.33 14.84,19.31 C14.8267,19.3433 14.805,19.3733 14.775,19.4 C14.745,19.4267 14.7067,19.44 14.66,19.44 C14.58,19.44 14.5167,19.3967 14.47,19.31 "/>
</g>

<g fill="#ffffff" fill-opacity="1" stroke="none" transform="matrix(1,0,0,1,0,0)"
font-family="MS Shell Dlg 2" font-size="8.25" font-weight="400" font-style="normal" 
>
</g>
</g>
</svg>
