<?xml version="1.0" encoding="UTF-8" standalone="no"?>
<svg
   xmlns:dc="http://purl.org/dc/elements/1.1/"
   xmlns:cc="http://creativecommons.org/ns#"
   xmlns:rdf="http://www.w3.org/1999/02/22-rdf-syntax-ns#"
   xmlns:svg="http://www.w3.org/2000/svg"
   xmlns="http://www.w3.org/2000/svg"
   xmlns:sodipodi="http://sodipodi.sourceforge.net/DTD/sodipodi-0.dtd"
   xmlns:inkscape="http://www.inkscape.org/namespaces/inkscape"
   inkscape:version="1.0 (4035a4fb49, 2020-05-01)"
   sodipodi:docname="200k_62.svg"
   id="svg22"
   version="1.2"
   viewBox="0 0 10.962 10.962"
   height="3.8671539mm"
   width="3.8671539mm">
  <metadata
     id="metadata26">
    <rdf:RDF>
      <cc:Work
         rdf:about="">
        <dc:format>image/svg+xml</dc:format>
        <dc:type
           rdf:resource="http://purl.org/dc/dcmitype/StillImage" />
      </cc:Work>
    </rdf:RDF>
  </metadata>
  <sodipodi:namedview
     inkscape:current-layer="svg22"
     inkscape:window-maximized="1"
     inkscape:window-y="-9"
     inkscape:window-x="-9"
     inkscape:cy="5.832006"
     inkscape:cx="7.4133409"
     inkscape:zoom="18.047943"
     showgrid="false"
     id="namedview24"
     inkscape:window-height="1013"
     inkscape:window-width="1920"
     inkscape:pageshadow="2"
     inkscape:pageopacity="0"
     guidetolerance="10"
     gridtolerance="10"
     objecttolerance="10"
     borderopacity="1"
     bordercolor="#666666"
     pagecolor="#ffffff" />
  <title
     id="title2">Qt SVG Document</title>
  <desc
     id="desc4">Generated with Qt</desc>
  <defs
     id="defs6" />
  <g
     transform="translate(-10.44,-11.626)"
     id="g20"
     stroke-linejoin="bevel"
     stroke-linecap="square"
     fill-rule="evenodd"
     stroke-width="1"
     stroke="#000000"
     fill="none">
    <g
       id="g10"
       font-style="normal"
       font-weight="400"
       font-size="8.25px"
       font-family="'MS Shell Dlg 2'"
       stroke="none"
       fill-opacity="1"
       fill="#33a02c">
      <path
         id="path8"
         d="m 21.402,17.114 c 0,0.756 -0.1423,1.4677 -0.427,2.135 -0.2847,0.6673 -0.6767,1.2483 -1.176,1.743 -0.4993,0.4947 -1.0827,0.8843 -1.75,1.169 -0.6673,0.2847 -1.379,0.427 -2.135,0.427 -0.756,0 -1.4677,-0.1423 -2.135,-0.427 -0.6673,-0.2847 -1.2483,-0.6743 -1.743,-1.169 -0.4947,-0.4947 -0.8843,-1.0757 -1.169,-1.743 -0.2847,-0.6673 -0.427,-1.379 -0.427,-2.135 0,-0.756 0.1423,-1.4677 0.427,-2.135 0.2847,-0.6673 0.6743,-1.2507 1.169,-1.75 0.4947,-0.4993 1.0757,-0.8913 1.743,-1.176 0.6673,-0.2847 1.379,-0.427 2.135,-0.427 0.756,0 1.4677,0.1423 2.135,0.427 0.6673,0.2847 1.2507,0.6767 1.75,1.176 0.4993,0.4993 0.8913,1.0827 1.176,1.75 0.2847,0.6673 0.427,1.379 0.427,2.135"
         fill-rule="evenodd"
         vector-effect="none" />
    </g>
    <g
       id="g12"
       font-style="normal"
       font-weight="400"
       font-size="8.25px"
       font-family="'MS Shell Dlg 2'"
       stroke="none"
       fill-opacity="1"
       fill="#33a02c" />
    <g
       id="g16"
       font-style="normal"
       font-weight="400"
       font-size="8.25px"
       font-family="'MS Shell Dlg 2'"
       stroke="none"
       fill-opacity="1"
       fill="#ffffff">
      <path
         id="path14"
         d="m 19.3475,13.257 c 0.022,0 0.0367,0.011 0.044,0.033 l -0.143,0.473 c 0.1173,0.1833 0.2237,0.319 0.319,0.407 l 0.187,0.209 c 0,0.1613 -0.1577,0.44 -0.473,0.836 -0.1687,0.22 -0.319,0.3777 -0.451,0.473 -0.2493,0.1613 -0.682,0.451 -1.298,0.869 -0.286,0.1907 -0.429,0.4363 -0.429,0.737 0,0.4693 0.1943,0.7443 0.583,0.825 0.1907,0.0513 0.4437,0.1393 0.759,0.264 0.1393,0.0807 0.209,0.143 0.209,0.187 0,0.1907 -0.1503,0.4473 -0.451,0.77 -0.044,0.0733 -0.1393,0.176 -0.286,0.308 -0.2713,0.1467 -0.4363,0.22 -0.495,0.22 -0.0807,0 -0.1412,-0.0458 -0.1815,-0.1375 -0.0403,-0.0917 -0.1742,-0.4565 -0.4015,-1.0945 -0.0147,-0.044 -0.055,-0.1063 -0.121,-0.187 -0.11,-0.0807 -0.264,-0.121 -0.462,-0.121 -0.3227,0 -0.627,0.176 -0.913,0.528 l -0.22,0.264 c -0.396,0.4987 -0.7407,0.902 -1.034,1.21 -0.176,0.1833 -0.407,0.3813 -0.693,0.594 -0.0367,0.022 -0.077,0.033 -0.121,0.033 -0.1687,-0.1467 -0.374,-0.308 -0.616,-0.484 -0.0587,0 -0.1485,0.0165 -0.2695,0.0495 -0.121,0.033 -0.2035,0.0495 -0.2475,0.0495 -0.0367,0 -0.055,-0.011 -0.055,-0.033 0.0073,-0.022 0.0293,-0.0623 0.066,-0.121 0.3373,-0.792 0.539,-1.2577 0.605,-1.397 0.242,-0.4987 0.495,-0.9313 0.759,-1.298 0.0733,-0.1173 0.1943,-0.253 0.363,-0.407 0.0953,-0.0587 0.2732,-0.1228 0.5335,-0.1925 0.2603,-0.0697 0.4382,-0.1558 0.5335,-0.2585 v -0.198 c -0.0367,-0.0147 -0.099,-0.0477 -0.187,-0.099 l -0.11,-0.176 c -0.0733,-0.1173 -0.11,-0.242 -0.11,-0.374 0,-0.0587 0.0183,-0.1448 0.055,-0.2585 0.0367,-0.1137 0.077,-0.1705 0.121,-0.1705 0.4033,0 0.6747,0.1137 0.814,0.341 0.0953,0.1467 0.1797,0.22 0.253,0.22 l 0.132,-0.099 c 0.0587,-0.022 0.1027,-0.099 0.132,-0.231 0.022,-0.132 0.0733,-0.3593 0.154,-0.682 0.1027,-0.1907 0.44,-0.4547 1.012,-0.792 0.1687,-0.1027 0.5243,-0.286 1.067,-0.55 0.2347,-0.1247 0.5903,-0.3043 1.067,-0.539"
         fill-rule="evenodd"
         vector-effect="none" />
    </g>
    <g
       id="g18"
       font-style="normal"
       font-weight="400"
       font-size="8.25px"
       font-family="'MS Shell Dlg 2'"
       stroke="none"
       fill-opacity="1"
       fill="#ffffff" />
  </g>
</svg>
