<svg xmlns="http://www.w3.org/2000/svg" version="1.2" viewBox="0 0 42.52 42.52" height="56.693" width="56.693">
   <g stroke-linejoin="bevel" stroke-linecap="square" fill-rule="evenodd" stroke="none" fill="none" font-weight="400"
      font-size="7.8" font-family="'MS Shell Dlg 2'">
      <path
         d="M42.52 21.26C42.52 33 33 42.52 21.26 42.52 9.518 42.52 0 33 0 21.26 0 9.518 9.518 0 21.26 0 33 0 42.52 9.518 42.52 21.26"
         vector-effect="non-scaling-stroke" fill="#1f78b4" />
      <path
         d="M32.505 14.871c.546-.154.97-.066 1.27.263.301.329.417.654.347.976l-.546 10.624a1.759 1.759 0 01-.515 1.019 2.583 2.583 0 01-.955.619l-15.852 6.362c-.294.14-.584.147-.871.02a1.34 1.34 0 01-.64-.545c-.21-.112-.6-.347-1.166-.704a23.129 23.129 0 01-1.753-1.228 19.555 19.555 0 01-1.596-1.354c-.462-.441-.679-.822-.65-1.144l.776-13.585c.056-.322.207-.574.452-.756.244-.182.57-.3.976-.357l4.85-.776c.056-.406.105-.83.147-1.27.042-.442.063-.781.063-1.02.056-.993.315-1.749.777-2.267.462-.518 1.308-.846 2.54-.986a10.107 10.107 0 012.341.02c.82.099 1.474.35 1.963.756a4.102 4.102 0 00-1.322-.273 10.618 10.618 0 00-1.617.042c-1.204.154-2.04.473-2.509.956-.469.483-.745 1.256-.83 2.32 0 .196-.013.483-.041.86l-.084 1.155a42.65 42.65 0 00-.105 1.428l.819-.21c0-.21.007-.451.02-.724.015-.273.029-.56.043-.861l.042-.84c.014-.259.041-.472.083-.64.056-1.008.305-1.746.746-2.215.44-.47 1.263-.774 2.467-.914a9.54 9.54 0 011.638-.105c.517.014.969.098 1.354.252.385.154.693.389.924.704.23.315.332.731.304 1.249v1.197c.084-.028.19-.05.315-.063.126-.014.28-.05.462-.105.168-.028.437.007.808.105.371.098.78.227 1.229.388.447.161.899.336 1.354.525.455.19.885.368 1.291.536a3.52 3.52 0 00-1.018-.021c-.357.042-.718.105-1.082.188-2.127.574-4 1.026-5.616 1.355-1.617.329-3.006.602-4.168.819-1.161.217-2.124.402-2.887.556-.763.154-1.371.353-1.826.598-.455.245-.784.564-.987.956-.203.392-.305.917-.305 1.574 0 .308-.007.928-.02 1.859-.015.93-.029 1.956-.043 3.075-.014 1.12-.02 2.24-.02 3.36 0 1.12.027 2.008.083 2.666.056.574.133 1.005.231 1.292.098.287.224.486.378.598 0-.196.014-.539.042-1.029l.126-2.236c.056-1 .126-2.313.21-3.937.084-1.623.196-3.667.336-6.13.07-.406.231-.693.483-.861.252-.168.581-.294.987-.378l15.747-3.738m-7.265-3.233a.882.882 0 00-.136-.472c-.091-.147-.319-.249-.683-.305.112.112.168.273.168.483-.056.392-.098.79-.126 1.197-.028.406-.056.763-.084 1.07-.028.379-.063.736-.105 1.071l.735-.21c.056-.28.109-.678.158-1.196a17.41 17.41 0 00.073-1.638m-2.582-.693c-.49.084-.865.172-1.123.263-.26.09-.459.22-.599.388-.14.168-.234.374-.283.62a7.875 7.875 0 00-.116.934v.588c.238-.028.55-.07.935-.126.384-.056.878-.112 1.48-.168.056-.322.098-.704.126-1.145.028-.44.042-.906.042-1.396a1.32 1.32 0 00-.21.021 1.53 1.53 0 01-.252.021m6.782 11.002c.35 0 .717-.133 1.102-.399a3.943 3.943 0 001.018-1.05 3.187 3.187 0 00.546-1.805c0-.14-.035-.312-.105-.515-.07-.203-.217-.374-.44-.514a.94.94 0 00-.221-.158.554.554 0 00-.263-.073c-.406 0-.801.136-1.186.41-.385.272-.69.626-.913 1.06-.406.518-.61 1.063-.61 1.637 0 .574.204.973.61 1.197.14.14.294.21.462.21m-7.265.273l-5.417 1.07-.21 3.612 5.459-1.805.168-2.877m8.293 2.96l-5.018 2.016-.483 3.234 4.787-2.373.714-2.877m-1.112 2.793l-3.738 1.722.294-2.415 3.926-1.323-.482 2.016"
         fill="#fff" />
   </g>
</svg>