<?xml version="1.0" encoding="UTF-8" standalone="no"?>
<svg
   xmlns:dc="http://purl.org/dc/elements/1.1/"
   xmlns:cc="http://creativecommons.org/ns#"
   xmlns:rdf="http://www.w3.org/1999/02/22-rdf-syntax-ns#"
   xmlns:svg="http://www.w3.org/2000/svg"
   xmlns="http://www.w3.org/2000/svg"
   xmlns:sodipodi="http://sodipodi.sourceforge.net/DTD/sodipodi-0.dtd"
   xmlns:inkscape="http://www.inkscape.org/namespaces/inkscape"
   inkscape:version="1.0 (4035a4fb49, 2020-05-01)"
   sodipodi:docname="1001.svg"
   id="svg20"
   version="1.2"
   viewBox="0 0 42.519639 42.519639"
   height="14.999999mm"
   width="14.999999mm">
  <metadata
     id="metadata24">
    <rdf:RDF>
      <cc:Work
         rdf:about="">
        <dc:format>image/svg+xml</dc:format>
        <dc:type
           rdf:resource="http://purl.org/dc/dcmitype/StillImage" />
        <dc:title>Qt SVG Document</dc:title>
      </cc:Work>
    </rdf:RDF>
  </metadata>
  <sodipodi:namedview
     inkscape:current-layer="svg20"
     inkscape:window-maximized="0"
     inkscape:window-y="0"
     inkscape:window-x="0"
     inkscape:cy="47.780652"
     inkscape:cx="23.953486"
     inkscape:zoom="2.0651243"
     fit-margin-bottom="0"
     fit-margin-right="0"
     fit-margin-left="0"
     fit-margin-top="0"
     showgrid="false"
     id="namedview22"
     inkscape:window-height="480"
     inkscape:window-width="1034"
     inkscape:pageshadow="2"
     inkscape:pageopacity="0"
     guidetolerance="10"
     gridtolerance="10"
     objecttolerance="10"
     borderopacity="1"
     bordercolor="#666666"
     pagecolor="#ffffff" />
  <title
     id="title2">Qt SVG Document</title>
  <desc
     id="desc4">Generated with Qt</desc>
  <defs
     id="defs6" />
  <g
     transform="translate(5.25984,5.25984)"
     id="g18"
     stroke-linejoin="bevel"
     stroke-linecap="square"
     fill-rule="evenodd"
     stroke-width="1"
     stroke="#000000"
     fill="none">
    <g
       id="g10"
       font-style="normal"
       font-weight="400"
       font-size="7.8px"
       font-family="'MS Shell Dlg 2'"
       stroke="none"
       fill-opacity="1"
       fill="#1f78b4">
      <path
         id="path8"
         d="M 37.2598,16 C 37.2598,27.7415 27.7415,37.2598 16,37.2598 4.25851,37.2598 -5.25984,27.7415 -5.25984,16 -5.25984,4.25851 4.25851,-5.25984 16,-5.25984 27.7415,-5.25984 37.2598,4.25851 37.2598,16"
         fill-rule="evenodd"
         vector-effect="non-scaling-stroke" />
    </g>
    <g
       id="g14"
       font-style="normal"
       font-weight="400"
       font-size="7.8px"
       font-family="'MS Shell Dlg 2'"
       transform="translate(16.5669,12.0315)"
       stroke="none"
       fill-opacity="1"
       fill="#ffffff">
      <path
         id="path12"
         d="m 10.6782,-2.41992 c 0.5459,-0.15397 0.9693,-0.06649 1.2703,0.26245 0.3009,0.32894 0.4164,0.65438 0.3464,0.97632 L 11.749,9.44287 c -0.056,0.39193 -0.2274,0.73133 -0.5144,1.01833 -0.2869,0.2869 -0.6054,0.4934 -0.9553,0.6194 l -15.85205,6.3618 c -0.29395,0.14 -0.5844,0.147 -0.87134,0.021 -0.28695,-0.126 -0.50041,-0.308 -0.64038,-0.5459 -0.20996,-0.112 -0.59839,-0.3465 -1.16529,-0.7034 -0.56689,-0.3569 -1.15128,-0.7663 -1.75314,-1.2283 -0.6019,-0.4619 -1.1338,-0.9133 -1.5957,-1.3542 -0.4619,-0.4409 -0.6789,-0.8224 -0.6509,-1.1443 l 0.7768,-13.58447 c 0.056,-0.32194 0.2065,-0.57389 0.4515,-0.75586 0.2449,-0.18196 0.5704,-0.30094 0.9763,-0.35693 l 4.85008,-0.77686 c 0.05599,-0.40592 0.10498,-0.82934 0.14697,-1.27026 0.04199,-0.44092 0.06299,-0.78035 0.06299,-1.01831 0.05599,-0.99382 0.31494,-1.74968 0.77685,-2.26758 0.46192,-0.5179 1.30876,-0.84684 2.54053,-0.98682 0.741862,-0.08398 1.522216,-0.07698 2.341064,0.021 0.818846,0.09798 1.473226,0.34994 1.963136,0.75586 -0.37793,-0.15397 -0.81885,-0.24495 -1.32276,-0.27295 -0.503901,-0.02799 -1.042801,-0.014 -1.616694,0.04199 -1.203776,0.15397 -2.040116,0.47242 -2.509036,0.95533 -0.46891,0.48291 -0.74536,1.25626 -0.82934,2.32006 0,0.19597 -0.014,0.48291 -0.042,0.86084 -0.02799,0.37793 -0.05599,0.76286 -0.08398,1.15479 -0.04199,0.46191 -0.07699,0.93782 -0.10498,1.42773 l 0.81885,-0.20996 c 0,-0.20996 0.007,-0.45141 0.02099,-0.72436 0.014,-0.27295 0.028,-0.5599 0.042,-0.86084 0.01399,-0.30095 0.02799,-0.58089 0.04199,-0.83985 0.014,-0.25895 0.04199,-0.47241 0.08398,-0.64038 0.05599,-1.00781 0.30445,-1.74617 0.74536,-2.21509 0.44092,-0.46891 1.263268,-0.77335 2.467045,-0.91333 0.573893,-0.08398 1.119795,-0.11897 1.637695,-0.10498 0.5179,0.014 0.96932,0.09799 1.35425,0.25196 0.38493,0.15397 0.69287,0.38843 0.92383,0.70337 0.23095,0.31494 0.33243,0.73136 0.30444,1.24926 v 1.19678 c 0.08398,-0.02799 0.18896,-0.04899 0.31494,-0.06299 0.12598,-0.01399 0.27995,-0.04899 0.46191,-0.10498 0.16797,-0.02799 0.43742,0.007 0.80835,0.10498 0.37094,0.09798 0.78036,0.22746 1.22828,0.38843 0.44791,0.16097 0.89933,0.33594 1.35424,0.5249 0.45492,0.18897 0.88534,0.36743 1.29122,0.5354 -0.3219,-0.05599 -0.66133,-0.06298 -1.01827,-0.02099 -0.35693,0.04199 -0.71736,0.10498 -1.0813,0.18896 -2.1276,0.5739 -3.99975,1.02531 -5.61645,1.35425 -1.6167,0.32894 -3.005941,0.601888 -4.16773,0.818848 -1.16178,0.21696 -2.1241,0.402425 -2.88696,0.5563965 -0.76286,0.1539714 -1.37174,0.3534345 -1.82666,0.5983885 -0.45491,0.244955 -0.78385,0.563397 -0.98681,0.955327 -0.20297,0.39192 -0.30445,0.91682 -0.30445,1.5747 0,0.30795 -0.007,0.92733 -0.02099,1.85816 -0.014,0.93082 -0.028,1.95613 -0.042,3.07592 -0.01399,1.1198 -0.02099,2.23956 -0.02099,3.35936 0,1.1198 0.02799,2.0086 0.08398,2.6665 0.05599,0.5739 0.13298,1.0043 0.23096,1.2913 0.09798,0.2869 0.22396,0.4864 0.37793,0.5984 0,-0.196 0.014,-0.5389 0.04199,-1.0288 0.028,-0.4899 0.06999,-1.2353 0.12598,-2.2361 0.05599,-1.0008 0.12597,-2.3131 0.20996,-3.93679 0.08398,-1.6237 0.19596,-3.66732 0.33594,-6.13086 0.06998,-0.40592 0.23095,-0.69287 0.48291,-0.86084 0.25195,-0.16797 0.58089,-0.29394 0.98681,-0.37793 l 15.74705,-3.7373 m -7.26463,-3.2334 c 0,-0.16797 -0.04549,-0.32544 -0.13647,-0.47241 -0.09098,-0.14698 -0.31844,-0.24846 -0.68237,-0.30445 0.11198,0.11198 0.16797,0.27295 0.16797,0.48291 -0.05599,0.39193 -0.09799,0.79086 -0.12598,1.19678 -0.028,0.40593 -0.05599,0.76286 -0.08399,1.0708 -0.02799,0.37793 -0.06298,0.73487 -0.10498,1.0708 L 3.18262,-2.81885 C 3.23861,-3.0988 3.2911,-3.49772 3.34009,-4.01563 3.38908,-4.53353 3.41357,-5.07943 3.41357,-5.65332 M 0.831055,-6.34619 c -0.489909,0.08398 -0.8643395,0.17147 -1.123291,0.26245 -0.258952,0.09098 -0.458415,0.22046 -0.598389,0.38843 -0.139975,0.16797 -0.234455,0.37443 -0.283445,0.61938 -0.04899,0.24496 -0.08749,0.5564 -0.11548,0.93433 v 0.58789 c 0.23795,-0.028 0.549397,-0.06999 0.934325,-0.12598 0.3849288,-0.05599 0.878337,-0.11198 1.480225,-0.16797 0.05599,-0.32194 0.09798,-0.70337 0.12598,-1.14428 0.02799,-0.44092 0.04199,-0.90633 0.04199,-1.39624 -0.05599,0 -0.12598,0.007 -0.20996,0.02099 -0.083987,0.014 -0.167971,0.021 -0.251955,0.021 M 7.61279,4.65576 c 0.34994,0 0.71737,-0.13297 1.1023,-0.39892 0.38493,-0.26595 0.72436,-0.61589 1.01831,-1.04981 0.3639,-0.5459 0.5459,-1.14779 0.5459,-1.80566 0,-0.13998 -0.035,-0.31144 -0.105,-0.514407 C 10.1043,0.684001 9.95736,0.512533 9.7334,0.372559 9.67741,0.316569 9.60392,0.264079 9.51294,0.215088 9.42196,0.166097 9.33447,0.141602 9.25049,0.141602 8.84456,0.141602 8.44914,0.278076 8.06421,0.551025 7.67928,0.823975 7.37484,1.17741 7.15088,1.61133 6.74495,2.12923 6.54199,2.67513 6.54199,3.24902 c 0,0.5739 0.20296,0.97282 0.60889,1.19678 0.13997,0.13997 0.29394,0.20996 0.46191,0.20996 M 0.348145,4.92871 -5.06885,5.99951 -5.27881,9.61084 0.180176,7.80518 0.348145,4.92871 M 8.6416,7.88916 3.62354,9.90479 3.14063,13.1382 7.92773,10.7656 8.6416,7.88916 M 7.52881,10.6816 3.7915,12.4033 4.08545,9.98877 8.01172,8.66602 7.52881,10.6816"
         fill-rule="evenodd"
         vector-effect="none" />
    </g>
    <g
       id="g16"
       font-style="normal"
       font-weight="400"
       font-size="7.8px"
       font-family="'MS Shell Dlg 2'"
       stroke="none"
       fill-opacity="1"
       fill="#1f78b4" />
  </g>
</svg>
