<svg xmlns="http://www.w3.org/2000/svg" version="1.2" viewBox="0 0 42.52 42.52" height="56.693" width="56.693">
   <g stroke-linejoin="bevel" stroke-linecap="square" fill-rule="evenodd" stroke="none" fill="none" font-weight="400"
      font-size="7.8" font-family="'MS Shell Dlg 2'">
      <path
         d="M42.52 21.26C42.52 33 33 42.52 21.26 42.52 9.518 42.52 0 33 0 21.26 0 9.518 9.518 0 21.26 0 33 0 42.52 9.518 42.52 21.26"
         vector-effect="non-scaling-stroke" fill="#1f78b4" />
      <path
         d="M25.22 19.302l2.414 5.942h5.92v2.225h-5.017l2.792 6.887h-2.708l-2.793-6.887h-9.07l-2.793 6.887h-2.813l2.897-6.887H8.97v-2.225h5.9l2.393-5.942h-5.417v-2.184h18.833v2.184H25.22m-7.558 5.942h7.264l-2.414-5.942h-2.54l-2.31 5.942m12.681-2.625h4.599v1.365h-4.599v-1.365m-18.098 0v1.365H7.646v-1.365h4.598"
         fill-opacity=".949" fill="#fff" />
   </g>
</svg>