<svg xmlns="http://www.w3.org/2000/svg" version="1.2" viewBox="0 0 42.52 42.52" height="56.693" width="56.693">
   <g stroke-linejoin="bevel" stroke-linecap="square" fill-rule="evenodd" stroke="none" fill="none" font-weight="400"
      font-size="7.8" font-family="'MS Shell Dlg 2'">
      <path
         d="M42.52 21.26C42.52 33 33 42.52 21.26 42.52 9.518 42.52 0 33 0 21.26 0 9.518 9.518 0 21.26 0 33 0 42.52 9.518 42.52 21.26"
         vector-effect="non-scaling-stroke" fill="#1f78b4" />
      <path
         d="M23.54 10.567a.898.898 0 00-.336-.735l.42-.86a.627.627 0 01.409-.378.707.707 0 01.535.042c.168.084.29.22.368.409a.578.578 0 01-.032.535l-.462.903c-.224-.084-.496-.042-.818.126h-.042l-.042-.042m-4.64 7.874c.195 0 .44.028.734.084.084.084.175.168.273.252a.877.877 0 01.231.315l-2.225 4.682-1.176-.861 2.162-4.472m-4.43 12.43l-1.385 2.792a.715.715 0 01-.41.357.647.647 0 01-.871-.43.707.707 0 01.042-.536l1.449-3.086 1.175.902m-.126-8.398c.028 0 .042.007.042.021 0 .014.014.021.042.021l3.948 2.94h.86l3.108-2.541a.965.965 0 01.703-.231.846.846 0 01.662.357l2.792 3.317h2.982c.28 0 .514.091.703.273a.896.896 0 01.283.672c0 .28-.094.515-.283.703a.955.955 0 01-.703.284H17.913c-.35 0-.637-.098-.861-.294l-4.346-3.191a1.144 1.144 0 01-.4-.483c.029 0 .05-.007.064-.021.014-.014.042-.021.084-.021.77-.224 1.357-.693 1.763-1.407l.126-.399m6.908 3.884h2.709l-1.113-1.343-1.596 1.343m-9.028-2.834a2.143 2.143 0 01-1.648-.158 2.086 2.086 0 01-1.06-1.27 2.116 2.116 0 01.178-1.659 2.079 2.079 0 011.291-1.05 2.06 2.06 0 011.638.179c.518.287.86.717 1.028 1.291a2.085 2.085 0 01-.157 1.628c-.273.51-.696.857-1.27 1.039m19.484 5.5c.252 0 .473.092.661.274a.896.896 0 01.284.672c0 .28-.095.514-.284.703a.906.906 0 01-.66.283h-1.366l.987 2.499c.14.42-.007.735-.44.945a.587.587 0 01-.253.042.626.626 0 01-.388-.137.804.804 0 01-.263-.346l-1.196-3.003H17.913l-3.276 3.255a.637.637 0 01-.483.23.657.657 0 01-.504-.23.664.664 0 01-.21-.483c0-.182.07-.35.21-.504l2.373-2.352a.955.955 0 01-.23-.126L9.135 25.58c-.238-.168-.364-.381-.378-.64a1.225 1.225 0 01.21-.745.897.897 0 01.64-.378c.26-.028.501.042.725.21l6.404 4.997h14.97m-16.65-12.346c.154-.35.41-.812.767-1.386.356-.574.829-1.147 1.417-1.721.588-.574 1.305-1.082 2.152-1.523.847-.44 1.858-.689 3.034-.745a9.152 9.152 0 00-1.743 1.7 11.19 11.19 0 00-1.165 1.827 13.342 13.342 0 00-.714 1.68c-.175.518-.304.93-.388 1.239a4.67 4.67 0 00-.861-.819 5.906 5.906 0 01-.504-.378 7.06 7.06 0 00-.735-.042 5.09 5.09 0 00-.672.042 3.63 3.63 0 00-.588.126M13 15.123c-.336-.028-.651-.042-.945-.042a6.02 6.02 0 00-.725.042c-.23.028-.402.084-.514.168.224-.336.644-.84 1.26-1.511.616-.672 1.417-1.302 2.404-1.89.987-.588 2.148-1.025 3.485-1.312 1.337-.287 2.852-.22 4.546.2-1.288.055-2.4.321-3.339.797-.937.476-1.728 1.029-2.372 1.659-.644.63-1.144 1.26-1.501 1.89-.357.63-.606 1.105-.746 1.427a9.197 9.197 0 00-.41-.472 5.167 5.167 0 00-.493-.473 15.865 15.865 0 00-.65-.483m11.442 4.179c-.461 0-.86.042-1.196.126.14-.322.3-.739.483-1.25.182-.51.332-1.095.451-1.753.119-.658.178-1.375.178-2.152 0-.777-.105-1.578-.314-2.404.895.77 1.55 1.592 1.963 2.467.413.875.672 1.718.777 2.53.105.812.112 1.557.02 2.236-.09.679-.178 1.186-.262 1.522a5.41 5.41 0 00-.399-.44l-.462-.462a5.34 5.34 0 00-.588-.42h-.65m2.582 1.595c.084-.35.175-.882.273-1.595.098-.714.098-1.523 0-2.425-.098-.903-.371-1.83-.819-2.782-.448-.952-1.155-1.841-2.12-2.667 1.567.686 2.788 1.554 3.663 2.604s1.523 2.11 1.942 3.18c.42 1.071.658 2.065.714 2.982.056.917.084 1.578.084 1.984a1.638 1.638 0 00-.325-.472 3.45 3.45 0 00-.536-.473 10.595 10.595 0 00-.776-.525 8.228 8.228 0 00-.82-.042c-.49 0-.916.077-1.28.231m-7.958-2.855c.056-.28.172-.679.347-1.197s.42-1.085.735-1.7c.315-.617.72-1.24 1.218-1.87a7.692 7.692 0 011.879-1.679c.252.84.385 1.659.399 2.457.014.797-.042 1.543-.168 2.236a10.829 10.829 0 01-.473 1.805c-.189.511-.34.9-.451 1.166a4.154 4.154 0 00-.43-.452 15.804 15.804 0 01-.473-.451 9.64 9.64 0 01-.609-.441h-.735c-.196 0-.41.007-.64.02-.231.015-.43.05-.599.106"
         fill-opacity=".949" fill="#fff" />
   </g>
</svg>