<?xml version="1.0" encoding="UTF-8" standalone="no"?>
<svg
   xmlns:dc="http://purl.org/dc/elements/1.1/"
   xmlns:cc="http://creativecommons.org/ns#"
   xmlns:rdf="http://www.w3.org/1999/02/22-rdf-syntax-ns#"
   xmlns:svg="http://www.w3.org/2000/svg"
   xmlns="http://www.w3.org/2000/svg"
   xmlns:sodipodi="http://sodipodi.sourceforge.net/DTD/sodipodi-0.dtd"
   xmlns:inkscape="http://www.inkscape.org/namespaces/inkscape"
   inkscape:version="1.0 (4035a4fb49, 2020-05-01)"
   sodipodi:docname="1004.svg"
   id="svg20"
   version="1.2"
   viewBox="0 0 42.519639 42.519639"
   height="14.999999mm"
   width="14.999999mm">
  <metadata
     id="metadata24">
    <rdf:RDF>
      <cc:Work
         rdf:about="">
        <dc:format>image/svg+xml</dc:format>
        <dc:type
           rdf:resource="http://purl.org/dc/dcmitype/StillImage" />
        <dc:title>Qt SVG Document</dc:title>
      </cc:Work>
    </rdf:RDF>
  </metadata>
  <sodipodi:namedview
     inkscape:current-layer="svg20"
     inkscape:window-maximized="1"
     inkscape:window-y="-9"
     inkscape:window-x="-9"
     inkscape:cy="28.346482"
     inkscape:cx="28.346482"
     inkscape:zoom="18.047943"
     fit-margin-bottom="0"
     fit-margin-right="0"
     fit-margin-left="0"
     fit-margin-top="0"
     showgrid="false"
     id="namedview22"
     inkscape:window-height="1013"
     inkscape:window-width="1920"
     inkscape:pageshadow="2"
     inkscape:pageopacity="0"
     guidetolerance="10"
     gridtolerance="10"
     objecttolerance="10"
     borderopacity="1"
     bordercolor="#666666"
     pagecolor="#ffffff" />
  <title
     id="title2">Qt SVG Document</title>
  <desc
     id="desc4">Generated with Qt</desc>
  <defs
     id="defs6" />
  <g
     transform="translate(5.25984,5.25984)"
     id="g18"
     stroke-linejoin="bevel"
     stroke-linecap="square"
     fill-rule="evenodd"
     stroke-width="1"
     stroke="#000000"
     fill="none">
    <g
       id="g10"
       font-style="normal"
       font-weight="400"
       font-size="7.8px"
       font-family="'MS Shell Dlg 2'"
       stroke="none"
       fill-opacity="1"
       fill="#1f78b4">
      <path
         id="path8"
         d="M 37.2598,16 C 37.2598,27.7415 27.7415,37.2598 16,37.2598 4.25851,37.2598 -5.25984,27.7415 -5.25984,16 -5.25984,4.25851 4.25851,-5.25984 16,-5.25984 27.7415,-5.25984 37.2598,4.25851 37.2598,16"
         fill-rule="evenodd"
         vector-effect="non-scaling-stroke" />
    </g>
    <g
       id="g14"
       font-style="normal"
       font-weight="400"
       font-size="7.8px"
       font-family="'MS Shell Dlg 2'"
       transform="translate(16,12.5984)"
       stroke="none"
       fill-opacity="0.94902"
       fill="#ffffff">
      <path
         id="path12"
         d="m 5.59717,8.95996 c 1.00781,0 1.94914,0.07349 2.82397,0.22046 0.87484,0.14697 1.63416,0.32544 2.27806,0.5354 0.6439,0.20996 1.1513,0.43738 1.5222,0.68238 0.371,0.2449 0.5564,0.4864 0.5564,0.7244 v 2.3515 c 0,0.4059 -0.3639,0.7944 -1.0918,1.1653 -0.7278,0.3709 -1.74264,0.6754 -3.0444,0.9133 -0.93782,0.224 -2.06811,0.399 -3.39087,0.5249 -1.32275,0.126 -2.91496,0.217 -4.776609,0.273 H 0.0961914 -0.344727 c -1.861653,-0.056 -3.443363,-0.147 -4.745113,-0.273 -1.30176,-0.1259 -2.41455,-0.3009 -3.33838,-0.5249 -1.31576,-0.2379 -2.35158,-0.5424 -3.10738,-0.9133 -0.7559,-0.3709 -1.1338,-0.7594 -1.1338,-1.1653 v -2.3515 c 0,-0.462 0.6508,-0.9379 1.9526,-1.42778 1.30176,-0.4899 3.17041,-0.73486 5.60596,-0.73486 V 9.94678 C -5.36279,9.8348 -5.63224,9.7998 -5.91919,9.8418 c -0.28695,0.04199 -0.61239,0.10848 -0.97632,0.1995 -0.36393,0.0909 -0.75936,0.1644 -1.18628,0.2204 -0.42692,0.056 -0.89933,0.042 -1.41723,-0.042 -0.19597,0.084 -0.26595,0.154 -0.20996,0.21 0.05599,0.056 0.11897,0.105 0.18896,0.147 0.06999,0.042 0.06299,0.0909 -0.021,0.1469 -0.08398,0.056 -0.37093,0.098 -0.86088,0.126 0.92387,0.3779 2.25013,0.7174 3.9788,1.0183 1.72868,0.301 3.90178,0.4514 6.5192914,0.4514 2.6035186,0 4.7661086,-0.1504 6.4877886,-0.4514 1.72168,-0.3009 3.04444,-0.6404 3.96822,-1.0183 -0.67183,-0.028 -1.04276,-0.07 -1.11275,-0.126 -0.06998,-0.056 -0.07698,-0.1189 -0.02099,-0.1889 0.05599,-0.07 0.07698,-0.14 0.06299,-0.21 -0.014,-0.07 -0.29395,-0.133 -0.83985,-0.189 -0.11198,-0.0419 -0.30444,-0.0699 -0.57739,-0.0839 -0.27295,-0.014 -0.57389,-0.021 -0.90283,-0.021 -0.32894,0 -0.63688,-0.007 -0.92383,-0.021 C 5.9506,9.99577 5.73714,9.97477 5.59717,9.94678 V 8.95996 M 1.98584,0.624512 C 2.06982,0.652507 2.08382,0.694499 2.02783,0.750488 1.97184,0.806478 1.89486,0.876465 1.79688,0.960449 1.69889,1.04443 1.60441,1.13192 1.51343,1.2229 1.42244,1.31388 1.37695,1.37337 1.37695,1.40137 1.37695,1.54134 1.25448,1.66732 1.00952,1.7793 0.764567,1.89128 0.460124,1.94727 0.0961914,1.94727 -0.253743,1.94727 -0.565186,1.89128 -0.838135,1.7793 -1.11108,1.66732 -1.24756,1.54134 -1.24756,1.40137 c 0,-0.05599 -0.12947,-0.15747 -0.38843,-0.30445 -0.25895,-0.146969 -0.33943,-0.24845 -0.24145,-0.30444 0.02799,-0.027994 0.10498,-0.020996 0.23096,0.020997 0.12597,0.041992 0.26245,0.083984 0.40942,0.125976 0.14697,0.041992 0.276448,0.087487 0.388427,0.136477 0.111979,0.04899 0.195964,0.07348 0.251953,0.07348 0.083985,0 0.199463,-0.13647 0.346436,-0.40942 0.146973,-0.272949 0.262451,-0.409424 0.3464354,-0.409424 0.1119796,0 0.2624516,0.118978 0.4514156,0.356934 0.188965,0.237956 0.311442,0.39193 0.367432,0.46191 0.111981,0 0.304441,-0.08748 0.577391,-0.262447 C 1.76538,0.711995 1.92985,0.624512 1.98584,0.624512 M 5.34521,6.46143 c 0,0.18196 -0.13647,0.34993 -0.40942,0.5039 C 4.66284,7.1193 4.28841,7.24878 3.8125,7.35376 3.33659,7.45874 2.77669,7.54622 2.13281,7.61621 1.48893,7.6862 0.810059,7.72119 0.0961914,7.72119 -1.40153,7.72119 -2.6578,7.59871 -3.67261,7.35376 -4.68742,7.10881 -5.19482,6.81136 -5.19482,6.46143 c 0,-0.27995 0.32194,-0.52141 0.96582,-0.72437 0.64388,-0.20296 1.46972,-0.36043 2.47754,-0.47241 0.05598,0.05599 0.11197,0.10498 0.16796,0.14697 0.05599,0.04199 0.11198,0.09098 0.16797,0.14697 -0.16797,0.18197 -0.25195,0.30095 -0.25195,0.35694 0,0.22396 0.17147,0.40242 0.5144,0.5354 0.34294,0.13297 0.759363,0.19946 1.2492714,0.19946 0.5179036,0 0.9483186,-0.06649 1.2912586,-0.19946 0.34294,-0.13298 0.51441,-0.31144 0.51441,-0.5354 0,-0.05599 -0.014,-0.10498 -0.042,-0.14698 C 1.83187,5.72656 1.78988,5.65658 1.73389,5.55859 1.78988,5.5026 1.83187,5.45361 1.85986,5.41162 1.88786,5.36963 1.92985,5.32064 1.98584,5.26465 2.99365,5.37663 3.8055,5.5341 4.42139,5.73706 5.03727,5.94002 5.34521,6.18148 5.34521,6.46143 M 4.44238,7.80518 c 0,0.37793 -0.41642,0.67887 -1.24926,0.90283 C 2.36027,8.93197 1.32796,9.04395 0.0961914,9.04395 -1.10758,9.04395 -2.13989,8.93197 -3.00073,8.70801 -3.86157,8.48405 -4.29199,8.18311 -4.29199,7.80518 V 7.63721 c 0.46191,0.22396 1.0778,0.39542 1.84765,0.5144 0.76986,0.11898 1.616703,0.17847 2.5405314,0.17847 C 1.00602,8.33008 1.84237,8.27059 2.60522,8.15161 3.36808,8.03263 3.98047,7.86117 4.44238,7.63721 v 0.16797 m -4.5141573,3.86332 c -0.8678387,0.028 -1.4802227,0.035 -1.8371627,0.021 -0.35693,-0.014 -0.58439,-0.035 -0.68237,-0.063 -0.09798,-0.028 -0.11898,-0.063 -0.06299,-0.105 0.05599,-0.042 0.06999,-0.098 0.042,-0.168 -0.028,-0.07 -0.15748,-0.1575 -0.38843,-0.2624 -0.23096,-0.105 -0.66138,-0.2135 -1.29126,-0.3255 V 8.45605 c 0.27995,0.25196 0.82234,0.47942 1.6272,0.68238 0.80485,0.20296 1.725174,0.30444 2.7609814,0.30444 C 1.104,9.44287 2.00684,9.34139 2.80469,9.13843 3.60254,8.93547 4.14844,8.70801 4.44238,8.45605 v 2.05765 c -0.29394,0.056 -0.47591,0.1469 -0.5459,0.2729 -0.06998,0.126 -0.20646,0.2555 -0.40942,0.3884 -0.20296,0.133 -0.5529,0.2485 -1.0498,0.3465 -0.49691,0.098 -1.33326,0.147 -2.5090373,0.147 M 1.20898,2.13623 C 1.50293,2.41618 1.6499,2.8291 1.6499,3.375 c 0,0.71387 -0.17497,1.28776 -0.5249,1.72168 0.05599,0.05599 0.08398,0.18197 0.08398,0.37793 0,0.18197 -0.10848,0.34294 -0.325435,0.48291 C 0.666585,6.09749 0.404134,6.16748 0.0961914,6.16748 -0.225749,6.16748 -0.498698,6.09749 -0.722656,5.95752 -0.946615,5.81755 -1.05859,5.65658 -1.05859,5.47461 c 0,-0.19596 0.05599,-0.32194 0.167965,-0.37793 C -1.12858,4.87272 -1.28955,4.61027 -1.37354,4.30933 -1.45752,4.00838 -1.49951,3.69694 -1.49951,3.375 c 0,-0.5459 0.14697,-0.95882 0.44092,-1.23877 0.083981,0.05599 0.230953,0.11198 0.440914,0.16797 0.209961,0.05599 0.447917,0.08398 0.7138674,0.08398 C 0.32015,2.38818 0.53361,2.36019 0.736572,2.3042 0.939535,2.24821 1.09701,2.19222 1.20898,2.13623 M 0.873047,-2.94482 c -0.027995,0 -0.041992,0.01399 -0.041992,0.04199 v -0.08399 c 0.027994,0 0.055989,0 0.083984,0 l -0.041992,0.042 M 5.89111,-6.76611 c 0,0 0.014,0.02799 0.042,0.08398 L 5.84912,-6.76611 H 5.89111 M 0.474121,-2 c -0.027995,0.02799 -0.041992,0.05599 -0.041992,0.08398 -0.027995,0.028 -0.041992,0.08399 -0.041992,0.16797 V -1.83203 -2 -2.16797 -2.33594 c 0.111979,-0.29394 0.167968,-0.45491 0.167968,-0.48291 0,-0.05599 0.013998,-0.11198 0.041993,-0.16797 0.027994,-0.05599 0.041992,-0.11198 0.041992,-0.16797 0.069987,-0.08398 0.10498,-0.17146 0.10498,-0.26245 0,-0.09098 0.027995,-0.16447 0.083985,-0.22046 0.055989,-0.13997 0.10498,-0.27294 0.146972,-0.39892 C 1.02002,-4.1626 1.06901,-4.30257 1.125,-4.45654 v 0.08398 c 0,-0.05599 0.014,-0.06999 0.04199,-0.04199 0.028,0.02799 0.04199,0.014 0.04199,-0.04199 -0.05599,0 -0.06998,-0.014 -0.04199,-0.042 0.028,-0.02799 0.04199,-0.06998 0.04199,-0.12597 0.05599,-0.05599 0.08399,-0.11198 0.08399,-0.16797 0,-0.05599 0.02799,-0.11198 0.08398,-0.16797 0,-0.08398 0.014,-0.15747 0.042,-0.22046 0.02799,-0.06299 0.06998,-0.12248 0.12597,-0.17847 h 0.06299 c 0,0 0.014,-0.02799 0.04199,-0.08398 0,-0.05599 0.028,-0.13997 0.08399,-0.25195 0,-0.05599 0.01399,-0.09798 0.04199,-0.12598 0.02799,-0.02799 0.04199,-0.06999 0.04199,-0.12598 0.08399,-0.15397 0.17497,-0.29394 0.27295,-0.41992 0.09798,-0.12597 0.18897,-0.25895 0.27295,-0.39892 0.09798,-0.18197 0.20296,-0.32894 0.31494,-0.44092 0.11198,-0.11198 0.20996,-0.23796 0.29395,-0.37793 v 0.08398 c 0.05599,0 0.10498,-0.02799 0.14697,-0.08398 0.04199,-0.05599 0.03499,-0.08399 -0.021,-0.08399 0.05599,0 0.09798,-0.03149 0.12598,-0.09448 0.02799,-0.06299 0.06999,-0.05949 0.12598,0.0105 0,-0.06999 0.03499,-0.13297 0.10498,-0.18896 0.05599,-0.05599 0.09798,-0.08399 0.12597,-0.08399 0.028,0 0.06999,-0.02799 0.12598,-0.08398 0.05599,0 0.11198,0 0.16797,0 0.05599,0 0.05599,-0.028 0,-0.08399 0.11198,0 0.21346,-0.02099 0.30444,-0.06299 0.09098,-0.04199 0.17847,-0.06298 0.26245,-0.06298 0.08399,0 0.15397,0.02099 0.20996,0.06298 0.05599,0.042 0.12598,0.06299 0.20996,0.06299 0.13998,0.05599 0.26246,0.11898 0.36744,0.18897 0.10498,0.06998 0.19946,0.15397 0.28344,0.25195 0.13998,0.13997 0.27645,0.28695 0.40943,0.44092 0.13297,0.15397 0.24145,0.30794 0.32544,0.46191 0.05599,0.05599 0.09798,0.12598 0.12597,0.20996 0.028,0.08399 0.06999,0.12598 0.12598,0.12598 l 0.04199,0.04199 c 0,0.028 -0.014,0.04199 -0.04199,0.04199 0.05599,0.05599 0.09798,0.11898 0.12598,0.18897 0.02799,0.06999 0.06998,0.13297 0.12597,0.18896 0,0.09799 0.014,0.17497 0.042,0.23096 0.02799,0.05599 0.06998,0.12598 0.12597,0.20996 H 6.83594 c 0.05599,0 0.10148,0.014 0.13647,0.04199 0.035,0.028 0.03849,0.05599 0.0105,0.08399 L 6.91992,-5.52734 c 0.04199,0.02799 0.06299,0.05599 0.06299,0.08398 H 6.91992 6.98291 c 0.08398,0.16797 0.16797,0.33944 0.25195,0.5144 0.08399,0.17497 0.16797,0.33244 0.25196,0.47242 0,0.20996 -0.014,0.28344 -0.042,0.22046 -0.02799,-0.06299 -0.01399,-0.0315 0.042,0.09448 0.05599,0.05599 0.06998,0.09798 0.04199,0.12597 -0.028,0.028 -0.04199,0.06999 -0.04199,0.12598 0.02799,-0.02799 0.05599,-0.04199 0.08398,-0.04199 v 0.04199 c 0,0.11198 0.028,0.22396 0.08399,0.33594 H 7.5708 c 0.05599,0.05599 0.09798,0.12947 0.12598,0.22046 0.02799,0.09098 0.06998,0.17846 0.12597,0.26245 0.23796,0.88184 0.39893,1.74267 0.48291,2.582519 0.05599,0.4479164 0.09799,0.881836 0.12598,1.301758 0.028,0.419923 0.04199,0.860843 0.04199,1.322753 v 0.46191 0.16797 c 0.05599,0.18197 0.08399,0.34294 0.08399,0.48291 0,0.13998 0,0.30795 0,0.50391 V 3.85791 C 8.61361,4.30583 8.6276,4.73275 8.59961,5.13867 8.57161,5.5446 8.58561,5.94352 8.6416,6.33545 v 0.73486 1.80567 c -0.02799,0 -0.04199,-0.014 -0.04199,-0.042 C 8.57161,8.80599 8.55762,8.736 8.55762,8.62402 8.50163,8.42806 8.47363,8.2286 8.47363,8.02563 c 0,-0.20296 0,-0.38842 0,-0.55639 V 7.32227 C 8.41764,7.1543 8.38965,6.93384 8.38965,6.66089 c 0,-0.27295 0.02799,-0.49341 0.08398,-0.66138 V 5.74756 5.66357 c 0,-0.06998 -0.02799,-0.10498 -0.08398,-0.10498 L 8.47363,5.47461 V 5.34863 C 8.41764,5.29264 8.40365,5.21566 8.43164,5.11768 c 0.028,-0.09799 0.014,-0.18897 -0.04199,-0.27295 0,-0.15397 0,-0.31494 0,-0.48291 0,-0.16797 -0.028,-0.33594 -0.08399,-0.50391 h 0.08399 c -0.05599,0 -0.08399,-0.06299 -0.08399,-0.18896 V 3.375 3.20703 3.12305 c -0.05599,0 -0.06998,-0.014 -0.04199,-0.042 0.028,-0.02799 0.04199,-0.06998 0.04199,-0.12597 V 2.76611 c 0,-0.11198 -0.02799,-0.16797 -0.08398,-0.16797 0.05599,-0.05599 0.08398,-0.05599 0.08398,0 0,0.05599 0,0.05599 0,0 C 8.24967,2.40218 8.22168,2.18172 8.22168,1.93677 c 0,-0.24496 0,-0.47941 0,-0.70337 V 1.14941 0.960449 0.876465 c -0.028,0.027995 -0.04199,0.027995 -0.04199,0 -0.028,0 -0.04199,-0.05599 -0.04199,-0.167969 L 8.22168,0.79248 C 8.16569,0.736491 8.1377,0.638509 8.1377,0.498535 V 0.330566 0.225586 0.141602 c 0,-0.05599 -0.014,-0.1119796 -0.042,-0.1679692 C 8.06771,-0.0823568 8.05371,-0.138346 8.05371,-0.194336 V -0.614258 -0.677246 -0.76123 -0.845215 c 0,-0.083984 -0.04199,-0.083984 -0.12598,0 V -1.18115 h 0.042 c 0,0 0.01399,-0.028 0.04199,-0.08399 0,-0.05599 -0.014,-0.09098 -0.04199,-0.10498 -0.028,-0.01399 -0.042,-0.04899 -0.042,-0.10498 0,-0.06998 -0.01749,-0.11198 -0.05249,-0.12597 -0.03499,-0.014 -0.05249,-0.06299 -0.05249,-0.14698 L 7.73877,-1.91602 h 0.04199 c 0,0 -0.014,-0.02799 -0.04199,-0.08398 v -0.16797 -0.04199 -0.12598 c 0,-0.05599 -0.014,-0.10848 -0.04199,-0.15747 -0.028,-0.04899 -0.04199,-0.04549 -0.04199,0.0105 V -2.65088 C 7.5988,-2.70687 7.5708,-2.79085 7.5708,-2.90283 c 0,-0.08399 -0.014,-0.15397 -0.04199,-0.20996 -0.028,-0.05599 -0.04199,-0.12598 -0.04199,-0.20996 v 0.08398 c -0.05599,-0.05599 -0.06999,-0.09448 -0.042,-0.11548 0.028,-0.02099 0.014,-0.05949 -0.04199,-0.11548 0.05599,0 0.06999,0 0.04199,0 -0.02799,0 -0.04199,-0.02799 -0.04199,-0.08398 0,-0.05599 -0.014,-0.11898 -0.04199,-0.18897 -0.02799,-0.06998 -0.04199,-0.14697 -0.04199,-0.23095 -0.05599,0 -0.08399,-0.014 -0.08399,-0.042 V -4.05762 -4.1416 -4.22559 c -0.05599,0 -0.08398,-0.02099 -0.08398,-0.06298 v -0.08399 h 0.04199 c 0,0 -0.014,-0.02799 -0.04199,-0.08398 V -4.54053 H 7.06689 v -0.08398 c -0.02799,0 -0.04199,-0.014 -0.04199,-0.04199 0,0 0.014,-0.014 0.04199,-0.042 0,-0.05599 -0.04899,-0.08398 -0.14697,-0.08398 v -0.04199 c 0,-0.028 -0.02799,-0.06999 -0.08398,-0.12598 0,-0.05599 -0.014,-0.10148 -0.04199,-0.13647 -0.028,-0.035 -0.042,-0.08049 -0.042,-0.13648 C 6.72396,-5.26139 6.70996,-5.28939 6.70996,-5.31738 6.68197,-5.34538 6.66797,-5.38737 6.66797,-5.44336 V -5.52734 -5.69531 H 6.58398 C 6.58398,-5.7513 6.55599,-5.7793 6.5,-5.7793 c -0.05599,0 -0.08398,-0.02799 -0.08398,-0.08398 H 6.5 c 0,-0.05599 -0.014,-0.08399 -0.04199,-0.08399 -0.028,0 -0.06999,-0.03499 -0.12598,-0.10498 -0.02799,0 -0.04199,-0.01399 -0.04199,-0.04199 0,0 0.014,-0.014 0.04199,-0.04199 -0.05599,0 -0.08398,-0.028 -0.08398,-0.08398 0,-0.05599 0,-0.05599 0,0 C 6.19206,-6.33219 6.12557,-6.41618 6.04858,-6.47217 5.9716,-6.52816 5.93311,-6.59814 5.93311,-6.68213 c 0,0 -0.014,-0.02799 -0.042,-0.08398 h 0.042 C 5.87712,-6.8221 5.83512,-6.8431 5.80713,-6.8291 5.77913,-6.8151 5.76514,-6.8571 5.76514,-6.95508 H 5.68115 v -0.08398 c -0.05599,0 -0.06998,0 -0.04199,0 0.02799,0 0.04199,-0.028 0.04199,-0.08399 -0.05599,0 -0.08398,-0.01399 -0.08398,-0.04199 V -7.20703 H 5.51318 c 0.028,0 0.042,-0.014 0.042,-0.04199 0,-0.028 -0.014,-0.05599 -0.042,-0.08399 H 5.4292 V -7.375 c 0,0 -0.028,-0.014 -0.08399,-0.04199 L 5.30322,-7.45898 c 0,0 0,-0.014 0,-0.042 H 5.26123 V -7.58496 H 5.21924 5.17725 v -0.04199 c 0,0 -0.035,0.01399 -0.10498,0.04199 0,-0.05599 -0.042,-0.08399 -0.12598,-0.08399 0,-0.05598 -0.028,-0.08398 -0.08399,-0.08398 H 4.77832 v -0.18896 c -0.05599,0 -0.09798,0.01399 -0.12598,0.04199 -0.02799,0.02799 -0.01399,0.04199 0.042,0.04199 H 4.44238 4.3584 c -0.05599,0 -0.12248,0.0175 -0.19946,0.05249 -0.07699,0.03499 -0.14348,0.05249 -0.19947,0.05249 v -0.10498 c -0.05599,0.06999 -0.08398,0.08748 -0.08398,0.05249 0,-0.03499 0,-0.0175 0,0.05249 H 3.95947 C 3.90348,-7.69694 3.84749,-7.66895 3.7915,-7.66895 H 3.70752 v 0.08399 c 0,-0.028 -0.014,-0.04199 -0.04199,-0.04199 -0.028,0 -0.04199,0.01399 -0.04199,0.04199 H 3.53955 v 0.08398 H 3.45557 c 0,0.05599 -0.035,0.11198 -0.10498,0.16797 H 3.2666 C 3.21061,-7.24902 3.15462,-7.20703 3.09863,-7.20703 2.93066,-6.96908 2.80469,-6.76611 2.7207,-6.59814 H 2.63672 c -0.028,0 -0.04199,0.04199 -0.04199,0.12597 0,-0.02799 0.01399,-0.04199 0.04199,-0.04199 0,0.05599 -0.014,0.08398 -0.04199,0.08398 -0.028,0 -0.042,0.028 -0.042,0.08399 H 2.44775 c 0.06999,-0.11198 0.06999,-0.16797 0,-0.16797 v 0.08398 c -0.05599,0 -0.06998,-0.02799 -0.04199,-0.08398 0.028,-0.05599 0.014,-0.05599 -0.04199,0 v 0.08398 c 0,0.05599 0.007,0.09099 0.021,0.10498 0.01399,0.014 0.02099,0.049 0.02099,0.10499 H 2.36377 v 0.04199 c 0,0.02799 -0.028,0.04199 -0.08398,0.04199 0.05598,0 0.08398,0.014 0.08398,0.04199 0,0.028 -0.028,0.04199 -0.08398,0.04199 v 0.10498 0.08399 c -0.05599,0 -0.08399,-0.014 -0.08399,-0.04199 0,-0.028 0,-0.014 0,0.04199 l -0.04199,0.04199 c 0,0.028 0.014,0.04199 0.04199,0.04199 -0.02799,0 -0.05599,0.014 -0.08398,0.042 v 0.04199 0.08398 H 1.98584 v 0.08399 c 0,0.02799 -0.014,0.05599 -0.04199,0.08398 V -5.48535 L 1.90186,-5.52734 v 0.08398 h 0.04199 l -0.04199,0.08398 v 0.12598 c -0.05599,0.05599 -0.08399,0.06999 -0.08399,0.04199 0,-0.02799 0,-0.01399 0,0.042 V -5.2334 c 0,0.028 -0.014,0.05599 -0.04199,0.08399 H 1.73389 c 0,0.06998 0.02799,0.10498 0.08398,0.10498 -0.05599,0.05599 -0.08398,0.06998 -0.08398,0.04199 0,-0.028 0,-0.014 0,0.04199 V -5.04443 L 1.6499,-4.96045 v 0.12598 -0.04199 0.08398 c -0.02799,0 -0.04199,0.014 -0.04199,0.04199 -0.04199,0.028 -0.06299,0.06999 -0.06299,0.12598 V -4.79248 L 1.46094,-4.7085 v 0.08399 c 0.02799,-0.028 0.04199,-0.028 0.04199,0 0,0.02799 -0.014,0.05599 -0.04199,0.08398 0,0.08399 -0.014,0.11198 -0.04199,0.08399 -0.028,-0.028 -0.042,0 -0.042,0.08398 -0.05599,0.05599 -0.08398,0.07699 -0.08398,0.06299 0,-0.014 0,0.014 0,0.08398 0,0.05599 -0.014,0.08399 -0.04199,0.08399 -0.028,0 -0.014,0 0.04199,0 0,0.05599 -0.014,0.08398 -0.04199,0.08398 -0.028,0 -0.014,0.028 0.04199,0.08399 -0.05599,0.05599 -0.06999,0.08398 -0.04199,0.08398 0.02799,0 0.04199,0.028 0.04199,0.08399 H 1.20898 c 0.028,-0.028 0.042,-0.05599 0.042,-0.08399 0,-0.05599 -0.014,-0.08398 -0.042,-0.08398 v 0.08398 c 0,0.05599 -0.01399,0.08399 -0.04199,0.08399 -0.02799,0 -0.04199,0.02799 -0.04199,0.08398 v 0.08398 c -0.05599,0 -0.06999,-0.01399 -0.04199,-0.04199 C 1.111,-3.70768 1.125,-3.74967 1.125,-3.80566 l -0.125977,0.08398 v 0.04199 0.04199 c 0,0.05599 -0.013997,0.10499 -0.041992,0.14698 -0.027995,0.04199 -0.041992,0.09798 -0.041992,0.16797 v -0.14698 c 0,0.12598 -0.013997,0.21696 -0.041992,0.27295 -0.027995,0.05599 -0.041992,0.12598 -0.041992,0.20996 0,-0.05599 -0.013998,-0.05599 -0.041992,0 -0.027995,0.05599 -0.013998,0.08399 0.041992,0.08399 H 0.74707 c 0,0.05599 0,0.06998 0,0.04199 0,-0.02799 -0.034993,-0.014 -0.10498,0.04199 v 0.25196 c -0.05599,0.05599 -0.083985,0.12947 -0.083985,0.22045 0,0.09099 0,0.17847 0,0.26246 H 0.474121 C 0.418132,-2.02799 0.404134,-2.014 0.432129,-2.04199 0.460124,-2.06999 0.474121,-2.05599 0.474121,-2 M 5.47119,-7.33301 v 0.04199 c 0,0.028 0.014,0.05599 0.04199,0.08399 L 5.4292,-7.33301 h 0.04199 m -7.39062,0.81885 -0.042,0.04199 v -0.04199 h 0.042 m 1.028805,1.97363 h 0.125977 v 0.08399 l -0.125977,-0.08399 m 0.293945,0.5249 v -0.04199 0.08399 -0.042 m 0.083985,0.25196 c 0,0.02799 0.027994,0.06999 0.083984,0.12597 -0.027995,0 -0.041992,-0.01399 -0.041992,-0.04199 -0.027995,-0.02799 -0.041992,-0.05599 -0.041992,-0.08398 m -1.406735,-2.75049 0.04199,0.08398 c -0.028,-0.05599 -0.04199,-0.08398 -0.04199,-0.08398 m -3.44336,-0.90283 c -0.05599,0 -0.06999,0 -0.042,0 0.028,0 0.042,-0.028 0.042,-0.08399 v 0.08399 M 5.9751,5.55859 C 5.9471,5.5306 5.93311,5.5026 5.93311,5.47461 5.9611,5.47461 5.9751,5.5026 5.9751,5.55859 M -0.428711,-3.6377 c 0,0.05599 -0.013997,0.06999 -0.041992,0.042 -0.027995,-0.028 -0.013998,-0.042 0.041992,-0.042 M -5.15283,-7.75293 c 0,0 0.014,-0.03499 0.04199,-0.10498 v 0.10498 h -0.04199 m 6.88672,2.87647 c -0.028,0.02799 -0.05599,0.04199 -0.08399,0.04199 0.028,-0.028 0.05599,-0.04199 0.08399,-0.04199 M 1.125,-3.6377 c 0,0.05599 -0.007,0.08399 -0.021,0.08399 -0.01399,0 -0.03499,0.02799 -0.06298,0.08398 L 1.125,-3.6377 m -0.818848,1.55372 c 0.05599,0.05599 0.083985,0.13997 0.083985,0.25195 -0.05599,0.05599 -0.083985,0.13997 -0.083985,0.25195 -0.055989,-0.05599 -0.055989,-0.11198 0,-0.16797 V -2.08398 M 0.999023,-3.46973 H 1.04102 c 0,0.028 -0.007,0.04899 -0.021,0.06299 -0.014,0.014 -0.020997,0.04199 -0.020997,0.08399 V -3.46973 M 1.29297,-4.22559 c 0.05599,0 0.08398,-0.04899 0.08398,-0.14697 v 0.14697 h 0.042 c 0,0 -0.014,0.028 -0.042,0.08399 0,-0.05599 -0.01399,-0.06999 -0.04199,-0.04199 -0.02799,0.02799 -0.04199,0.01399 -0.04199,-0.042 m 1.11279,-1.99462 c 0,0.02799 -0.014,0.05598 -0.04199,0.08398 0,-0.028 0.007,-0.04199 0.021,-0.04199 0.01399,0 0.02099,-0.014 0.02099,-0.04199 m -3.00244,4.64013 v 0.10498 0.12598 h -0.041992 c -0.027995,0 -0.041992,-0.04199 -0.041992,-0.12598 0.05599,0 0.05599,-0.03499 0,-0.10498 h 0.083984 m -1.02881,-1.97363 c 0,0 -0.014,-0.028 -0.04199,-0.08399 0.05599,0.05599 0.05599,0.08399 0,0.08399 h 0.04199 m 0.29395,0.39892 h -0.08399 c 0,-0.05598 0.014,-0.08398 0.04199,-0.08398 h 0.042 v 0.04199 0.04199 M -1.66748,-3.6377 h -0.08398 l 0.08398,-0.08398 v 0.08398 m 0.60889,0.81885 c -0.028,0.028 -0.042,0.028 -0.042,0 -0.04199,0 -0.02799,-0.02799 0.042,-0.08398 0,0.05599 0.01399,0.08398 0.04199,0.08398 0.027993,0 0.041991,0.028 0.041991,0.08399 L -1.05859,-2.81885 m 0.46191,0.98682 v 0.08398 0.08399 c -0.055989,0 -0.111979,-0.028 -0.167968,-0.08399 h 0.083984 c -0.05599,0 -0.083984,-0.02799 -0.083984,-0.08398 -0.083985,-0.05599 -0.125977,-0.13998 -0.125977,-0.25195 -0.05599,0 -0.083984,-0.028 -0.083984,-0.08399 0,-0.05599 -0.027991,-0.08398 -0.083981,-0.08398 0,-0.05599 -0.0175,-0.10848 -0.05249,-0.15747 -0.035,-0.04899 -0.05249,-0.10148 -0.05249,-0.15747 l -0.33594,-0.33594 v -0.08399 c 0,0.05599 0,0.06999 0,0.042 0,-0.028 -0.028,-0.042 -0.08399,-0.042 0,-0.11198 -0.05599,-0.16797 -0.16796,-0.16797 -0.05599,0 -0.09099,-0.01399 -0.10499,-0.04199 -0.01399,-0.02799 -0.04899,-0.06998 -0.10498,-0.12597 v -0.14698 h -0.18896 c -0.028,0 -0.04199,-0.01399 -0.04199,-0.04199 -0.028,-0.02799 -0.042,-0.06999 -0.042,-0.12598 -0.08398,0 -0.16796,-0.02799 -0.25195,-0.08398 -0.08398,-0.05599 -0.16797,-0.08398 -0.25195,-0.08398 v -0.08399 c -0.12598,0 -0.22396,-0.014 -0.29395,-0.04199 -0.06998,-0.028 -0.13297,-0.04199 -0.18896,-0.04199 v -0.08399 c -0.05599,0 -0.08399,0.028 -0.08399,0.08399 -0.05599,-0.05599 -0.08398,-0.06999 -0.08398,-0.042 0,0.028 -0.02799,0.014 -0.08398,-0.04199 v 0.04199 c 0,0.028 -0.028,0.042 -0.08399,0.042 H -3.64111 -3.7251 -3.76709 v 0.04199 c 0,0 0.014,0.014 0.04199,0.04199 -0.06998,0 -0.12597,0.014 -0.16797,0.04199 -0.04199,0.028 -0.09098,0.042 -0.14697,0.042 0,0.05599 -0.02799,0.08398 -0.08398,0.08398 0,0.05599 -0.014,0.08398 -0.042,0.08398 -0.02799,0 -0.06998,0.028 -0.12597,0.08399 -0.05599,0.15397 -0.13998,0.28695 -0.25196,0.39892 -0.08398,0.13998 -0.15747,0.25196 -0.22045,0.33594 -0.06299,0.08399 -0.12248,0.19597 -0.17847,0.33594 0,0.06999 -0.028,0.12598 -0.08399,0.16797 -0.05599,0.04199 -0.08398,0.09098 -0.08398,0.14697 0,0.05599 -0.014,0.09798 -0.04199,0.12598 -0.028,0.02799 -0.04199,0.06998 -0.04199,0.12597 -0.05599,0.05599 -0.08399,0.13998 -0.08399,0.25196 -0.05599,0 -0.06999,0.01399 -0.04199,0.04199 0.02799,0.02799 0.014,0.04199 -0.04199,0.04199 0,0.15397 -0.014,0.29395 -0.042,0.41992 -0.02799,0.12598 -0.04199,0.258956 -0.04199,0.39893 -0.05599,0.097981 -0.08398,0.129475 -0.08398,0.094482 0,-0.034994 0,-0.003499 0,0.094482 l -0.10498,0.083985 c 0.06998,0 0.08748,0.006998 0.05249,0.020996 -0.035,0.013997 -0.0175,0.048991 0.05249,0.10498 -0.06999,0.05599 -0.10498,0.111979 -0.10498,0.167969 v 0.335938 c -0.05599,0.293945 -0.08399,0.584391 -0.08399,0.871338 0,0.28695 0,0.57039 0,0.85034 -0.05599,0.32194 -0.07698,0.62638 -0.06298,0.91333 0.01399,0.28695 -0.007,0.58439 -0.06299,0.89234 v 0.27294 0.08399 c 0,0.05599 0.04199,0.08398 0.12597,0.08398 v 0.5459 0.10498 0.08399 c 0.05599,0.25195 0.08399,0.5144 0.08399,0.78735 0,0.27295 0.03499,0.5494 0.10498,0.82935 v 0.5249 c 0,0.16797 0.014,0.36043 0.04199,0.57739 0.028,0.21696 0.06999,0.40942 0.12598,0.57739 -0.028,0.028 -0.05599,0.028 -0.08399,0 -0.05599,0 -0.08398,-0.05599 -0.08398,-0.16797 -0.06999,-0.08398 -0.10498,-0.19596 -0.10498,-0.33593 0,-0.13998 -0.028,-0.27295 -0.08399,-0.39893 0,-0.05599 0.014,-0.06999 0.042,-0.04199 0.02799,0.02799 0.04199,0.014 0.04199,-0.04199 -0.19597,-0.25196 -0.22396,-0.5529 -0.08399,-0.90284 0,-0.02799 -0.02799,-0.06998 -0.08398,-0.12597 L -5.8457,6.0835 h 0.12597 c -0.08398,0 -0.12597,-0.05599 -0.12597,-0.16797 V 5.83154 c -0.05599,-0.05599 -0.06999,-0.10848 -0.042,-0.15747 0.028,-0.04899 0.028,-0.11548 0,-0.19946 0,0 0.014,0 0.042,0 -0.05599,-0.11198 -0.08399,-0.22396 -0.08399,-0.33594 0,-0.11198 -0.02799,-0.20996 -0.08398,-0.29394 h 0.08398 c -0.05599,0 -0.08398,-0.06299 -0.08398,-0.18897 0.05599,0 0.06999,-0.014 0.04199,-0.04199 -0.02799,-0.028 -0.04199,-0.06999 -0.04199,-0.12598 V 4.36182 4.27783 c -0.028,0 -0.04199,-0.014 -0.04199,-0.04199 L -6.01367,4.19385 V 4.10986 4.02588 3.94189 3.03906 2.8501 c 0,-0.05599 -0.014,-0.08399 -0.04199,-0.08399 -0.028,0 -0.014,-0.02799 0.04199,-0.08398 V 2.59814 2.47217 2.38818 2.3042 2.05225 1.7793 1.69531 1.61133 1.56934 1.31738 c 0,0.05599 0.014,0.06999 0.04199,0.042 0.028,-0.028 0.04199,-0.014 0.04199,0.04199 V 1.35938 1.31738 1.2334 c 0,-0.05599 -0.01399,-0.10148 -0.04199,-0.13648 -0.02799,-0.03499 -0.04199,-0.08048 -0.04199,-0.136471 0,0.027995 0.014,0.041991 0.04199,0.041991 L -5.92969,0.960449 -6.01367,0.876465 c 0,-0.05599 0.014,-0.069987 0.04199,-0.041992 0.028,0.027994 0.04199,0.013997 0.04199,-0.041993 H -6.01367 V 0.708496 c 0,-0.055989 0.02799,-0.083984 0.08398,-0.083984 V 0.498535 0.414551 0.330566 0.141602 0.0576172 -0.152344 -0.194336 H -5.8457 V -0.27832 -0.320313 -0.677246 -0.76123 -0.845215 h 0.12597 V -0.929199 -1.01318 -1.09717 -1.18115 h 0.08399 v -0.08399 c -0.028,0 -0.04199,-0.01399 -0.04199,-0.04199 l 0.04199,-0.04199 c 0,-0.15397 0.03499,-0.25895 0.10498,-0.31494 v -0.08399 -0.08398 h 0.04199 c 0,0 0.014,-0.028 0.04199,-0.08399 V -2 -2.16797 c 0,0.05599 0.028,0.08399 0.08399,0.08399 v -0.16797 -0.08399 c 0.02799,0 0.04199,-0.01399 0.04199,-0.04199 0,-0.06999 -0.014,-0.10498 -0.04199,-0.10498 0.05599,-0.05599 0.09798,-0.11198 0.12597,-0.16797 0.028,-0.05599 0.06999,-0.08398 0.12598,-0.08398 v -0.08399 c 0.05599,-0.05599 0.06999,-0.08398 0.04199,-0.08398 -0.02799,0 -0.04199,-0.028 -0.04199,-0.08399 h 0.08398 V -3.0708 c 0,-0.05599 0,-0.06999 0,-0.04199 0,0.02799 0.028,0.04199 0.08399,0.04199 v -0.08399 h 0.08398 c -0.02799,0 -0.04199,-0.01399 -0.04199,-0.04199 l 0.04199,-0.04199 h -0.08398 l 0.08398,-0.08398 v -0.14698 c 0,-0.02799 0.014,-0.04199 0.042,-0.04199 0.05599,0 0.08398,0.014 0.08398,0.04199 l 0.10498,-0.08398 h -0.10498 l 0.10498,-0.08399 c 0,-0.05598 0.028,-0.08398 0.08398,-0.08398 v -0.08398 h 0.042 c 0,0 0.01399,-0.028 0.04199,-0.08399 0,0.028 0.014,0.04199 0.04199,0.04199 0,0 0.014,-0.01399 0.04199,-0.04199 v -0.08398 c 0.05599,0 0.08399,-0.014 0.08399,-0.042 0,-0.02799 0.02799,-0.04199 0.08398,-0.04199 V -4.1416 c 0.05599,0 0.10498,-0.03849 0.14697,-0.11548 0.042,-0.07699 0.10499,-0.11548 0.18897,-0.11548 -0.028,0.028 -0.04199,0.05599 -0.04199,0.08399 v 0.06298 h 0.04199 v -0.14697 l 0.23096,-0.08398 h 0.08398 0.08399 c 0,-0.028 0.01399,-0.042 0.04199,-0.042 0.05599,0 0.09798,0.014 0.12597,0.042 0.05599,0 0.11198,0.02799 0.16797,0.08398 0.05599,-0.05599 0.12248,-0.06999 0.19947,-0.04199 0.07698,0.02799 0.17146,0.04199 0.28344,0.04199 l -0.08398,0.14697 c 0.05599,0 0.08398,-0.01749 0.08398,-0.05249 0,-0.03499 0,-0.01749 0,0.05249 0,0.028 0.014,0.042 0.042,0.042 l 0.04199,-0.042 c 0,0.028 0.01399,0.042 0.04199,0.042 0,0 0.014,-0.014 0.04199,-0.042 0,0.05599 -0.02799,0.08399 -0.08398,0.08399 h 0.08398 c 0,0.05599 -0.014,0.06999 -0.04199,0.04199 -0.028,-0.02799 -0.04199,-0.014 -0.04199,0.04199 0,0.05599 -0.014,0.06999 -0.04199,0.04199 -0.028,-0.02799 -0.014,-0.01399 0.04199,0.042 l 0.08398,-0.08399 h 0.08399 0.04199 0.04199 c 0.028,-0.02799 0.05599,-0.04199 0.08398,-0.04199 v 0.04199 c 0,0.05599 -0.01399,0.08399 -0.04199,0.08399 -0.02799,0 -0.01399,0 0.04199,0 h 0.08399 c 0,0.05599 0.014,0.06998 0.04199,0.04199 0.028,-0.028 0.014,-0.014 -0.04199,0.04199 h 0.08398 c 0,0.05599 0.014,0.08399 0.042,0.08399 h 0.06298 v -0.08399 c 0,0.05599 0.028,0.08399 0.08399,0.08399 0.05599,0.05599 0.07698,0.08398 0.06299,0.08398 -0.014,0 0.007,0 0.06299,0 h -0.12598 v 0.04199 c 0,0.028 0.04199,0.04199 0.12598,0.04199 l 0.08398,0.08399 h 0.08398 v 0.04199 c 0,0.028 0.028,0.04199 0.08399,0.04199 l -0.08399,0.14698 v 0.08398 c 0,-0.05599 0.014,-0.06999 0.042,-0.04199 0.02799,0.02799 0.06998,0.014 0.12597,-0.04199 -0.02799,0.02799 -0.04199,0.05599 -0.04199,0.08398 0,0.05599 0.014,0.08398 0.04199,0.08398 v 0.08399 h 0.08399 v -0.08399 c 0.05599,0.05599 0.06998,0.09799 0.04199,0.12598 -0.028,0.028 -0.014,0.014 0.04199,-0.04199 0.028,0.02799 0.05599,0.04199 0.08399,0.04199 v -0.04199 0.08398 l -0.042,-0.04199 c -0.02799,0 -0.04199,0.014 -0.04199,0.04199 h 0.08399 c -0.028,0.028 -0.028,0.08399 0,0.16797 0.06998,0.05599 0.10498,0.09798 0.10498,0.12598 0,0.02799 0.02799,0.04199 0.083981,0.04199 H -1.05859 c 0.05599,0.05599 0.083981,0.10848 0.083981,0.15747 0,0.04899 0.027994,0.10148 0.083984,0.15747 0,-0.05599 0.006999,-0.06998 0.020996,-0.04199 0.013997,0.028 0.048991,0.04199 0.104981,0.04199 -0.027995,0 -0.05599,0.014 -0.083985,0.04199 h -0.041992 v 0.042 c 0.083984,0.05599 0.153971,0.11198 0.209961,0.16797 0,0.05599 0.013997,0.09798 0.041992,0.12597 0.027995,0.028 0.041992,0.06999 0.041992,0.12598 m 0.440918,0.08398 C -0.0997721,-1.80404 -0.134766,-1.88802 -0.260742,-2 l 0.1889647,0.16797 c 0,0.11198 0.0279947,0.19596 0.0839843,0.25195 v 0.10498 0.12598 H 0.222168 V -1.4751 -1.58008 h 0.083984 v 0.10498 0.12598 H 0.64209 c 0.32194,0 0.356933,0.08398 0.10498,0.25195 -0.209961,0.111981 -0.32194,0.255455 -0.335937,0.430422 -0.013998,0.174967 0.006999,0.332438 0.062988,0.472412 C 0.530111,0.0016276 0.621094,0.20459 0.74707,0.414551 0.649089,0.330566 0.530111,0.208089 0.390137,0.0471191 0.250163,-0.113851 0.152181,-0.194336 0.0961914,-0.194336 c -0.0839844,0 -0.1784668,0.0944825 -0.2834474,0.2834473 -0.10498,0.1889647 -0.185465,0.3254397 -0.241455,0.4094237 0.05599,-0.26595 0.083984,-0.5109048 0.083984,-0.734863 0,-0.195964 -0.027994,-0.37443 -0.083984,-0.535401 -0.05599,-0.16097 -0.167969,-0.269451 -0.335937,-0.325441 -0.195964,-0.08398 -0.139974,-0.16797 0.167968,-0.25195 h 0.083985 0.4409177 V -1.4751 -1.51709 -1.58008 c -0.0279948,0 -0.0419927,-0.014 -0.0419927,-0.04199 -0.027994,-0.028 -0.041992,-0.06999 -0.041992,-0.12598 M -1.0166,-4.33057 c 0,-0.02799 -0.014,-0.04199 -0.04199,-0.04199 l 0.04199,0.04199 M -8.07129,8.95996 C -8.09928,8.93197 -8.11328,8.90397 -8.11328,8.87598 -8.14128,8.84798 -8.15527,8.764 -8.15527,8.62402 -8.21126,8.42806 -8.22526,8.2286 -8.19727,8.02563 c 0.028,-0.20296 0.014,-0.38842 -0.04199,-0.55639 0,-0.06999 0.014,-0.09448 0.04199,-0.07349 0.028,0.021 0.042,-0.0035 0.042,-0.07348 -0.05599,-0.16797 -0.06999,-0.38843 -0.042,-0.66138 0.028,-0.27295 0.042,-0.49341 0.042,-0.66138 h 0.08398 c 0,-0.05599 -0.014,-0.09798 -0.04199,-0.12597 -0.028,-0.028 -0.04199,-0.06999 -0.04199,-0.12598 h 0.08398 c -0.05599,0 -0.06999,-0.0315 -0.04199,-0.09448 0.02799,-0.06299 0.014,-0.09449 -0.04199,-0.09449 L -8.07129,5.47461 V 5.34863 C -8.12728,5.29264 -8.14128,5.21566 -8.11328,5.11768 c 0.02799,-0.09799 0.014,-0.18897 -0.04199,-0.27295 0,0.02799 0.01399,0.04199 0.04199,0.04199 0,0 0.014,-0.014 0.04199,-0.04199 -0.05599,-0.15397 -0.06999,-0.31494 -0.04199,-0.48291 0.02799,-0.16797 0.014,-0.33594 -0.04199,-0.50391 h 0.08398 V 3.58496 3.54297 c 0,-0.028 -0.007,-0.04899 -0.021,-0.06299 -0.01399,-0.014 -0.00699,-0.04899 0.021,-0.10498 -0.05599,-0.05599 -0.06999,-0.09798 -0.04199,-0.12598 0.02799,-0.02799 0.014,-0.04199 -0.04199,-0.04199 l 0.08398,-0.08398 c -0.05599,0 -0.06999,-0.014 -0.04199,-0.042 0.02799,-0.02799 0.04199,-0.06998 0.04199,-0.12597 V 2.76611 2.59814 c 0,-0.19596 0.014,-0.41642 0.04199,-0.66137 0.028,-0.24496 0.042,-0.47941 0.042,-0.70337 V 1.14941 0.960449 h 0.04199 c 0,0 0.01399,-0.027995 0.04199,-0.083984 -0.028,0 -0.04199,-0.013998 -0.04199,-0.041992 C -7.97331,0.806478 -7.9873,0.764486 -7.9873,0.708496 L -7.90332,0.79248 V 0.498535 0.330566 C -7.84733,0.232585 -7.83333,0.190592 -7.86133,0.20459 -7.88932,0.218587 -7.90332,0.197591 -7.90332,0.141602 v -0.335938 c 0,-0.083984 0.014,-0.16097 0.04199,-0.230957 0.028,-0.069987 0.04199,-0.153971 0.04199,-0.251953 V -0.76123 c 0.028,-0.027995 0.042,-0.05599 0.042,-0.083985 0,-0.055989 -0.014,-0.083984 -0.042,-0.083984 0,-0.05599 0.014,-0.111981 0.042,-0.167971 0.02799,-0.05599 0.04199,-0.11198 0.04199,-0.16797 0.02799,0 0.04199,0.014 0.04199,0.042 0.05599,-0.05599 0.08398,-0.13998 0.08398,-0.25196 0,-0.06998 -0.02099,-0.11898 -0.06298,-0.14697 -0.042,-0.028 -0.06299,-0.06999 -0.06299,-0.12598 0,0.028 0.014,0.042 0.04199,0.042 0.028,0 0.05599,-0.014 0.08398,-0.042 l -0.12597,-0.16797 c 0.05599,-0.05599 0.09098,-0.06998 0.10498,-0.04199 0.014,0.028 0.02099,0.014 0.02099,-0.04199 v -0.08398 -0.16797 c 0.05599,0 0.06999,0.01399 0.042,0.04199 -0.028,0.02799 -0.014,0.04199 0.04199,0.04199 v -0.16797 -0.14697 -0.08398 -0.08399 -0.08398 -0.25196 c 0.05599,-0.05599 0.08398,-0.11897 0.08398,-0.18896 0,-0.06999 0.014,-0.15397 0.042,-0.25195 0,0.02799 -0.014,0.02799 -0.042,0 v -0.042 c 0.06999,0 0.10498,-0.02799 0.10498,-0.08398 V -3.6377 c 0,-0.05598 0.014,-0.12597 0.042,-0.20996 0.02799,-0.08398 0.06998,-0.15397 0.12597,-0.20996 v -0.16797 c 0,-0.09798 0.028,-0.14697 0.08399,-0.14697 v -0.08398 c 0.05599,-0.08399 0.06998,-0.11898 0.04199,-0.10498 -0.028,0.01399 -0.014,-0.007 0.04199,-0.06299 V -4.7085 -4.79248 c 0,-0.05599 0.028,-0.08398 0.08399,-0.08398 v -0.08399 c 0.02799,0 0.04199,-0.014 0.04199,-0.04199 0,-0.05599 -0.014,-0.10498 -0.04199,-0.14697 l 0.20996,-0.20997 c 0,-0.11197 0.02799,-0.19596 0.08398,-0.25195 v -0.08398 c 0,0.05599 0.06299,0.02799 0.18897,-0.08399 0,-0.02799 -0.014,-0.05599 -0.042,-0.08398 h -0.06298 c 0.06998,0 0.10498,-0.0315 0.10498,-0.09448 0,-0.06299 0.02799,-0.09449 0.08398,-0.09449 0.05599,0 0.06999,-0.01399 0.04199,-0.04199 -0.02799,-0.02799 -0.01399,-0.06999 0.04199,-0.12597 V -6.3042 c 0,-0.08398 0.028,-0.09798 0.08399,-0.04199 0,-0.05599 0.014,-0.09798 0.04199,-0.12598 0.028,-0.02799 0.014,-0.04199 -0.04199,-0.04199 0.05599,-0.05599 0.11198,-0.12598 0.16797,-0.20996 0.05599,-0.08399 0.11198,-0.12598 0.16797,-0.12598 v -0.10498 c 0.05599,0 0.12597,-0.08398 0.20996,-0.25195 l 0.10498,-0.12598 v 0.12598 c 0.05599,-0.08399 0.08398,-0.15397 0.08398,-0.20996 h 0.08399 l 0.08398,-0.08399 h -0.08398 v -0.08398 c 0.05599,0.05599 0.08398,0.02799 0.08398,-0.08399 0.05599,0 0.08399,-0.02799 0.08399,-0.08398 v 0.04199 0.04199 l 0.08398,-0.08398 h 0.08398 l -0.08398,-0.10498 h 0.08398 l 0.08399,-0.08398 v -0.042 c 0,0 0.02799,-0.01399 0.08398,-0.04199 h 0.042 c 0.05599,0 0.08398,-0.02799 0.08398,-0.08398 h 0.10498 c 0.05599,0 0.08398,0.01399 0.08398,0.04199 0,0.02799 0,0.014 0,-0.04199 0.05599,0 0.08399,-0.014 0.08399,-0.042 v -0.04199 c 0.05599,0 0.11198,-0.014 0.16797,-0.04199 0.05599,-0.02799 0.11198,-0.014 0.16797,0.04199 v -0.12597 c 0.08398,0.05599 0.17146,0.09098 0.26245,0.10498 0.09098,0.01399 0.16447,0.04899 0.22046,0.10498 v 0.08398 c 0.02799,-0.02799 0.05599,-0.04199 0.08398,-0.04199 v 0.04199 -0.08398 c 0.05599,0 0.13998,0.05599 0.25195,0.16797 -0.02799,-0.028 -0.04199,-0.05599 -0.04199,-0.08399 h 0.04199 c 0,0.05599 0.028,0.08399 0.08399,0.08399 v 0.08398 c 0.05599,0 0.08398,-0.014 0.08398,-0.04199 0,-0.028 0,-0.014 0,0.04199 0.05599,0.06999 0.09798,0.10498 0.12598,0.10498 h 0.04199 l 0.10498,0.08398 c 0.08399,0.08399 0.12598,0.12598 0.12598,0.12598 v 0.04199 c 0.08398,0.05599 0.17497,0.13998 0.27295,0.25196 0.09798,0.11198 0.17497,0.20996 0.23095,0.29394 0,0.06999 0,0.08749 0,0.05249 0,-0.03499 0.028,-0.05249 0.08399,-0.05249 -0.05599,0 -0.06999,0.0175 -0.04199,0.05249 0.02799,0.035 0.01399,0.05249 -0.042,0.05249 0.05599,0.05599 0.11198,0.08399 0.16797,0.08399 v 0.04199 c 0,0.02799 0.035,0.04199 0.10498,0.04199 h -0.10498 l 0.10498,0.08399 c 0,0.05599 -0.03499,0.05599 -0.10498,0 -0.05599,0 -0.08398,0 -0.08398,0 h 0.08398 c 0,0.05599 -0.02799,0.06998 -0.08398,0.04199 -0.05599,-0.028 -0.05599,-0.014 0,0.04199 h 0.08398 c 0.028,0.02799 0.06299,0.04199 0.10498,0.04199 0.05599,0.05599 0.08399,0.09798 0.08399,0.12598 0,-0.05599 0.014,-0.08399 0.04199,-0.08399 h 0.08399 c 0,0.05599 -0.014,0.06999 -0.042,0.042 -0.02799,-0.028 -0.01399,-0.014 0.042,0.04199 0.05598,0 0.08398,0.02799 0.08398,0.08398 v 0.042 c 0,0.05598 -0.014,0.06998 -0.04199,0.04199 -0.028,-0.028 -0.014,-0.014 0.04199,0.04199 0,0.02799 0.014,0.04199 0.04199,0.04199 0,0 0.014,-0.014 0.04199,-0.04199 0,0.05599 -0.02799,0.08398 -0.08398,0.08398 0.11198,0 0.13997,0.035 0.08398,0.10498 h 0.08399 v 0.08399 c 0,0.05599 0.014,0.08398 0.04199,0.08398 0.028,0 0.04199,0.028 0.04199,0.08399 V -5.7793 c 0,0.05599 0.014,0.08399 0.04199,0.08399 h 0.042 v 0.08398 l 0.08398,0.08399 h -0.04199 c 0,0 0.014,0.02799 0.04199,0.08398 l -0.08398,-0.08398 c 0,0.05599 0.02799,0.11198 0.08398,0.16796 v 0.08399 c 0,0.02799 0.028,0.06999 0.08399,0.12598 0.06998,0 0.10498,0.01749 0.10498,0.05249 0,0.03499 0,0.01749 0,-0.05249 v 0.10498 0.16797 c -0.06999,0 -0.08749,0.01399 -0.05249,0.04199 0.03499,0.02799 0.01749,0.01399 -0.05249,-0.04199 l 0.10498,0.08398 c 0,-0.05599 0.01399,-0.05599 0.04199,0 0.027993,0.05599 0.069985,0.05599 0.125975,0 0,0.08398 -0.013997,0.13297 -0.041992,0.14697 -0.027995,0.014 -0.013998,0.04899 0.041992,0.10498 v 0.08399 c 0,0.05599 0.020996,0.09798 0.062988,0.12597 0.041992,0.028 0.062989,0.014 0.062989,-0.04199 0.055989,0.05599 0.069987,0.09448 0.041992,0.11548 -0.027995,0.021 -0.013998,0.03149 0.041992,0.03149 0.05599,0.05599 0.083984,0.06999 0.083984,0.042 0,-0.028 0,-0.014 0,0.04199 v 0.08398 c -0.027994,-0.02799 -0.041992,-0.05599 -0.041992,-0.08398 -0.027995,-0.028 -0.041992,-0.028 -0.041992,0 0,0.02799 0.027995,0.06999 0.083984,0.12597 -0.055989,0.05599 -0.055989,0.09799 0,0.12598 0.027995,0.028 0.041992,0.04899 0.041992,0.06299 0,0.014 0.013998,0.03499 0.041993,0.06299 -0.027995,0 -0.041993,-0.007 -0.041993,-0.021 0,-0.014 -0.013997,-0.02099 -0.041992,-0.02099 v -0.042 c 0,0 -0.027994,-0.01399 -0.083984,-0.04199 0.027995,0.028 0.041992,0.05599 0.041992,0.08399 h -0.041992 c 0,0.05599 0.027995,0.08398 0.083984,0.08398 v -0.08398 c 0,0.11198 0.013998,0.18196 0.041992,0.20996 0,0.02799 0.013998,0.04199 0.041993,0.04199 0.055989,0.11198 0.083984,0.19946 0.083984,0.26245 0,0.06299 0.027995,0.13647 0.083984,0.22046 v 0.08398 0.08399 c 0,0.05599 0.013998,0.09798 0.041993,0.12597 0.027994,0.028 0.041992,0.06999 0.041992,0.12598 0,0.08399 0.017497,0.16447 0.05249,0.24146 0.034994,0.07698 0.080485,0.15747 0.1364747,0.24145 H -0.11377 c -0.027994,0 -0.041992,0.028 -0.041992,0.08399 0.0559899,0.05599 0.0839847,0.05599 0.0839847,0 0,-0.05599 0,-0.05599 0,0 0,0.05599 0,0.11197 0,0.16796 0,0.05599 0.0279947,0.08399 0.0839843,0.08399 h -0.0839843 c 0,-0.05599 -0.0139974,-0.08399 -0.0419927,-0.08399 -0.027994,0 -0.041992,-0.02799 -0.041992,-0.08398 l -0.10498,-0.08398 c 0,-0.05599 -0.027995,-0.11198 -0.083985,-0.16797 0,-0.11198 -0.013997,-0.20646 -0.041992,-0.28345 -0.027995,-0.07699 -0.041992,-0.14347 -0.041992,-0.19946 v -0.08399 c -0.05599,0 -0.083984,-0.02799 -0.083984,-0.08398 0,-0.05599 0,-0.11198 0,-0.16797 -0.111979,-0.23796 -0.167969,-0.39893 -0.167969,-0.48291 -0.05599,-0.13997 -0.118978,-0.25895 -0.188965,-0.35693 C -0.939616,-4.00863 -1.0026,-4.1626 -1.05859,-4.37256 l 0.083981,0.14697 C -1.0026,-4.29557 -1.0166,-4.33057 -1.0166,-4.33057 c 0,-0.08398 -0.04899,-0.12597 -0.14697,-0.12597 0,-0.11198 -0.05599,-0.22396 -0.16797,-0.33594 -0.05599,-0.05599 -0.08399,-0.11198 -0.08399,-0.16797 0,-0.05599 -0.02799,-0.11898 -0.08398,-0.18896 V -5.2334 c -0.05599,-0.08398 -0.11198,-0.15397 -0.16797,-0.20996 0,-0.05599 -0.014,-0.11198 -0.04199,-0.16797 -0.028,-0.05599 -0.04199,-0.11198 -0.04199,-0.16797 -0.18197,-0.13997 -0.37094,-0.38493 -0.5669,-0.73486 -0.13997,-0.13997 -0.25195,-0.26945 -0.33594,-0.38843 -0.08398,-0.11898 -0.18896,-0.22046 -0.31494,-0.30444 h 0.10498 c -0.09798,-0.08399 -0.14697,-0.12598 -0.14697,-0.12598 h -0.04199 c -0.11198,0 -0.16797,-0.05599 -0.16797,-0.16797 h -0.08399 c -0.11197,-0.11198 -0.19596,-0.16797 -0.25195,-0.16797 v -0.08398 c -0.05599,0 -0.09798,-0.0175 -0.12598,-0.05249 -0.02799,-0.03499 -0.04199,-0.0175 -0.04199,0.05249 -0.06998,-0.06999 -0.13997,-0.08748 -0.20996,-0.05249 -0.06999,0.03499 -0.13297,0.0175 -0.18896,-0.05249 h -0.042 c -0.02799,0 -0.04199,0.03499 -0.04199,0.10498 -0.05599,0 -0.09798,-0.0175 -0.12597,-0.05249 -0.028,-0.03499 -0.06999,-0.0175 -0.12598,0.05249 h -0.08399 c -0.08398,0.05599 -0.17146,0.10498 -0.26245,0.14697 -0.09098,0.042 -0.16447,0.10498 -0.22046,0.18897 -0.13997,0.19596 -0.26595,0.36043 -0.37793,0.49341 -0.11197,0.13297 -0.21695,0.26945 -0.31494,0.40942 0,0.08398 -0.03499,0.13997 -0.10498,0.16797 -0.06998,0.02799 -0.10498,0.09798 -0.10498,0.20996 -0.05599,0 -0.08398,0.014 -0.08398,0.04199 0,0.028 0,0.014 0,-0.04199 0,0.09798 -0.028,0.16797 -0.08399,0.20996 -0.05599,0.04199 -0.08398,0.09098 -0.08398,0.14697 -0.08399,0.16797 -0.15397,0.29395 -0.20996,0.37793 0,-0.02799 0.014,-0.04199 0.04199,-0.04199 -0.05599,0 -0.08398,0.04199 -0.08398,0.12598 v 0.08398 c -0.09799,0.15397 -0.17497,0.32194 -0.23096,0.50391 -0.05599,0.18196 -0.13997,0.37793 -0.25195,0.58789 -0.05599,0.08398 -0.06999,0.09798 -0.042,0.04199 0.028,-0.05599 0.014,-0.014 -0.04199,0.12598 0,0.05599 -0.014,0.08398 -0.04199,0.08398 -0.028,0 -0.04199,0.028 -0.04199,0.08399 0.05599,0 0.06998,0 0.04199,0 -0.028,0 -0.014,0.02799 0.04199,0.08398 -0.11198,0.11198 -0.16797,0.19596 -0.16797,0.25195 0,0.12598 -0.01399,0.22396 -0.04199,0.29395 -0.02799,0.06999 -0.014,0.13297 0.04199,0.18896 -0.15397,0.46192 -0.24495,0.89934 -0.27295,1.31226 -0.02799,0.41292 -0.08398,0.850341 -0.16797,1.312255 -0.05598,0.3919274 -0.09098,0.804851 -0.10498,1.23877 C -7.72835,1.31038 -7.76335,1.7583 -7.81934,2.22021 -7.84733,2.3042 -7.86833,2.36019 -7.88232,2.38818 c -0.014,0.028 -0.021,0.09799 -0.021,0.20996 0.05599,0.05599 0.06999,0.09799 0.04199,0.12598 -0.02799,0.028 -0.014,0.06999 0.04199,0.12598 -0.05599,0.15397 -0.08398,0.30794 -0.08398,0.46191 0,0.15397 0,0.30095 0,0.44092 v 0.10498 c 0,0.44792 -0.014,0.87484 -0.04199,1.28076 -0.028,0.40593 -0.04199,0.80485 -0.04199,1.19678 v 0.73486 c -0.05599,0.32194 -0.08399,0.62639 -0.08399,0.91333 0,0.28695 0,0.61239 0,0.97632 m 7.47461,-10.58203 c 0,0.02799 0.027995,0.04199 0.083985,0.04199 H -0.59668 v -0.08398 0.04199 m 6.71875,4.17822 c -0.02799,0 -0.04199,-0.02799 -0.04199,-0.08398 0,0.05599 0.014,0.08398 0.04199,0.08398 m -7.28564,-5.375 v -0.08398 c 0,0 0.02099,0.02799 0.06298,0.08398 h -0.06298 m 2.45654,0.33594 c 0.05599,0 0.08398,-0.014 0.08398,-0.04199 v -0.04199 h 0.08399 c -0.05599,0.05599 -0.08399,0.13297 -0.08399,0.23095 0,-0.05599 -0.01399,-0.07698 -0.04199,-0.06299 -0.02799,0.014 -0.04199,-0.01399 -0.04199,-0.08398 m 0.20996,-0.16797 c 0,0 0.014,-0.02799 0.04199,-0.08398 H 1.6499 L 1.54492,-2.65088 H 1.46094 1.50293 m 0.77686,-0.81885 v 0.08399 c 0,0.04199 -0.028,0.06299 -0.08399,0.06299 L 2.27979,-3.46973 M 4.8623,-3.0708 H 4.77832 c 0.05599,0 0.08398,0.014 0.08398,0.04199 0,0.028 0,0.014 0,-0.04199 m -3.2124,0.20996 v -0.04199 c 0,0.02799 0.028,0.02799 0.08399,0 -0.05599,0.05599 -0.06999,0.08398 -0.042,0.08398 0.028,0 0.014,0 -0.04199,0 v -0.04199 m -0.27295,0.20996 c 0.05599,0 0.05599,0.028 0,0.08399 v -0.08399 m -6.10986,-0.81885 c 0,-0.05599 -0.014,-0.08398 -0.04199,-0.08398 -0.028,0 -0.014,0 0.04199,0 v 0.08398 m -0.46191,0.65088 c 0.05599,0 0.08398,-0.014 0.08398,-0.04199 0,-0.02799 0,-0.014 0,0.04199 h -0.08398 m 5.94189,1.34375 c -0.069987,0 -0.10498,0.04199 -0.10498,0.12598 V -1.4751 -1.74805 c 0.069987,0.05599 0.10498,0.09798 0.10498,0.12598 v 0.04199 -0.08398 -0.08399 -0.16797 c 0.05599,-0.05599 0.083985,-0.09798 0.083985,-0.12597 0,-0.028 0.027994,-0.06999 0.083984,-0.12598 0,-0.05599 0.013997,-0.10498 0.041992,-0.14697 C 0.985026,-2.35693 0.999023,-2.41292 0.999023,-2.48291 1.05501,-2.5389 1.09001,-2.58089 1.104,-2.60889 1.118,-2.63688 1.15299,-2.65088 1.20898,-2.65088 1.32096,-2.87484 1.40495,-3.01481 1.46094,-3.0708 h 0.08398 c -0.02799,0 -0.04199,-0.014 -0.04199,-0.04199 l 0.04199,-0.042 c 0.06999,-0.05598 0.10498,-0.10847 0.10498,-0.15747 0,-0.04899 0.028,-0.10148 0.08399,-0.15747 0,-0.05599 0.01399,-0.08398 0.04199,-0.08398 0.02799,0 0.06999,-0.028 0.12598,-0.08399 0,0.028 0.01399,0.042 0.04199,0.042 0,0 0.014,-0.014 0.04199,-0.042 v -0.04199 h 0.04199 c 0,0 0.028,-0.01399 0.08399,-0.04199 0,-0.05599 0.05599,-0.08398 0.16797,-0.08398 0.05598,-0.08399 0.12247,-0.15398 0.19946,-0.20997 0.07698,-0.05598 0.15747,-0.12597 0.24145,-0.20996 v 0.08399 c 0.08399,-0.12598 0.18197,-0.19597 0.29395,-0.20996 0.11198,-0.014 0.19596,-0.04899 0.25195,-0.10498 v 0.08398 c 0.05599,0 0.10148,-0.014 0.13648,-0.04199 0.03499,-0.028 0.01749,-0.04199 -0.05249,-0.04199 0.06998,0 0.11897,-0.014 0.14697,-0.042 0.02799,-0.02799 0.04199,-0.01399 0.04199,0.042 h 0.08399 0.25195 v 0.08398 c 0.02799,0.028 0.05599,0.04199 0.08398,0.04199 0,0 0,-0.01399 0,-0.04199 0.05599,0.05599 0.12248,0.09448 0.19947,0.11548 0.07698,0.021 0.14347,0.05949 0.19946,0.11548 0.11198,0.11198 0.19596,0.16797 0.25195,0.16797 0,0.05599 -0.014,0.08398 -0.04199,0.08398 -0.028,0 -0.014,0 0.04199,0 0.08399,0.05599 0.13298,0.11198 0.14697,0.16797 0.014,0.05599 0.049,0.11198 0.10498,0.16797 0.26596,0.34993 0.42693,0.62288 0.48291,0.81885 0.05599,0.05599 0.08399,0.11198 0.08399,0.16797 0,0.05599 0.02799,0.08398 0.08398,0.08398 v 0.14697 0.08399 c 0,0.05599 0.028,0.11198 0.08399,0.16797 0,0.05599 0.014,0.10498 0.04199,0.14697 0.02799,0.04199 0.04199,0.10498 0.04199,0.18896 v -0.08398 c 0,0.05599 0.014,0.08398 0.04199,0.08398 0.028,0 0.014,0.028 -0.04199,0.08399 0.05599,0.15397 0.09798,0.28694 0.12598,0.39892 0.02799,0.11198 0.06999,0.25196 0.12598,0.419925 0,0.083985 -0.014,0.111979 -0.042,0.083985 -0.02799,-0.027995 -0.01399,0 0.042,0.083984 l -0.042,0.062988 c 0,0.027995 0.014,0.041992 0.042,0.041992 v 0.041993 0.251953 c 0.05599,0.055989 0.09448,0.111979 0.11547,0.167968 0.021,0.05599 0.05949,0.1119796 0.11548,0.1679692 C 6.22005,0.379557 6.26204,0.684001 6.29004,0.970947 6.31803,1.25789 6.33203,1.55534 6.33203,1.86328 v 1.80567 c -0.05599,0.12597 -0.05599,0.24495 0,0.35693 -0.05599,0 -0.08398,-0.014 -0.08398,-0.04199 0,-0.028 0,-0.014 0,0.04199 0.05599,0 0.06998,0.014 0.04199,0.04199 -0.028,0.028 -0.014,0.04199 0.04199,0.04199 0,0.30795 -0.02799,0.52491 -0.08398,0.65088 v 0.08399 c 0,0.30794 -0.014,0.59839 -0.042,0.87133 -0.02799,0.27295 -0.06998,0.5564 -0.12597,0.85035 v 0.5039 C 5.9541,7.42025 5.84912,7.80518 5.76514,8.2251 c -0.028,0 -0.042,-0.014 -0.042,-0.04199 -0.02799,-0.028 -0.04199,-0.09799 -0.04199,-0.20997 0,-0.08398 0.014,-0.18896 0.04199,-0.31494 0.028,-0.12597 0.042,-0.26595 0.042,-0.41992 0,-0.05599 0.01399,-0.06999 0.04199,-0.04199 C 5.83512,7.22428 5.84912,7.21029 5.84912,7.1543 5.79313,7.01432 5.77913,6.86385 5.80713,6.70288 5.83512,6.54191 5.87712,6.39144 5.93311,6.25146 V 6.0835 5.91553 c 0,-0.05599 0.01399,-0.11198 0.04199,-0.16797 0.02799,-0.05599 0.02799,-0.11898 0,-0.18897 H 6.08008 C 6.01009,5.41862 5.99259,5.28564 6.02759,5.15967 6.06258,5.03369 6.08008,4.92871 6.08008,4.84473 V 4.65576 c -0.04199,0 -0.06299,-0.014 -0.06299,-0.04199 0,-0.05599 0.021,-0.09798 0.06299,-0.12598 -0.04199,0 -0.06299,-0.02799 -0.06299,-0.08398 V 4.36182 H 6.08008 V 4.27783 c -0.04199,0 -0.06299,-0.014 -0.06299,-0.04199 L 6.08008,4.19385 V 4.10986 4.02588 3.94189 3.03906 H 6.16406 C 6.16406,2.91309 6.13607,2.8501 6.08008,2.8501 h 0.08398 c 0,-0.05599 -0.01399,-0.08399 -0.04199,-0.08399 -0.02799,0 -0.04199,-0.02799 -0.04199,-0.08398 0.05599,0 0.08398,0.014 0.08398,0.04199 0,0.028 0,0.014 0,-0.04199 -0.02799,0 -0.04199,-0.04199 -0.04199,-0.12598 0,0.028 0.014,0.04199 0.04199,0.04199 C 6.10807,2.54215 6.09408,2.49316 6.12207,2.45117 6.15007,2.40918 6.13607,2.38818 6.08008,2.38818 H 6.16406 C 6.16406,2.33219 6.15007,2.3182 6.12207,2.34619 6.09408,2.37419 6.08008,2.36019 6.08008,2.3042 H 6.16406 C 6.10807,2.24821 6.08008,2.16423 6.08008,2.05225 V 1.7793 1.69531 1.61133 c 0,-0.13998 -0.04899,-0.23796 -0.14697,-0.29395 0,0.028 0.02799,0.042 0.08398,0.042 H 6.08008 V 1.31738 1.2334 C 6.08008,1.17741 6.05558,1.13192 6.00659,1.09692 5.9576,1.06193 5.93311,1.01644 5.93311,0.960449 c 0,0.027995 0.01399,0.041991 0.04199,0.041991 0.02799,0 0.06299,-0.013996 0.10498,-0.041991 L 5.93311,0.876465 V 0.834473 0.79248 c -0.028,0 -0.042,-0.013997 -0.042,-0.041992 0,0 0.014,-0.013997 0.042,-0.041992 V 0.666504 0.498535 0.456543 c 0,0 -0.028,0.013997 -0.08399,0.041992 V 0.414551 c 0,-0.125977 -0.02799,-0.21696 -0.08398,-0.272949 h 0.08398 c 0,-0.05599 -0.014,-0.0979822 -0.04199,-0.125977 -0.028,-0.0279948 -0.04199,-0.069987 -0.04199,-0.125977 V -0.194336 -0.27832 c -0.028,-0.027995 -0.042,-0.069987 -0.042,-0.125977 C 5.69515,-0.432292 5.68115,-0.488281 5.68115,-0.572266 v -0.10498 -0.083984 c 0,-0.05599 -0.014,-0.083985 -0.04199,-0.083985 -0.02799,0 -0.014,0 0.04199,0 V -0.929199 H 5.59717 V -1.01318 c -0.028,0 -0.04199,-0.014 -0.04199,-0.042 0,0 0.01399,-0.01399 0.04199,-0.04199 v -0.08398 c -0.05599,0 -0.06999,-0.014 -0.04199,-0.04199 0.02799,-0.028 0.01399,-0.042 -0.042,-0.042 V -1.4751 c 0,-0.06998 -0.01399,-0.10498 -0.04199,-0.10498 -0.02799,0 -0.04199,-0.02799 -0.04199,-0.08398 V -1.83203 H 5.34521 c 0.05599,-0.05599 0.06999,-0.08399 0.042,-0.08399 -0.028,0 -0.042,-0.02799 -0.042,-0.08398 0.05599,-0.05599 0.06999,-0.08398 0.042,-0.08398 -0.028,0 -0.042,-0.028 -0.042,-0.08399 l -0.08398,0.08399 v -0.08399 c 0,-0.05599 -0.02799,-0.08398 -0.08398,-0.08398 0,-0.05599 -0.0175,-0.12248 -0.05249,-0.19947 -0.035,-0.07698 -0.05249,-0.14347 -0.05249,-0.19946 v -0.04199 -0.04199 c 0,-0.05599 -0.021,-0.06999 -0.06299,-0.042 -0.04199,0.028 -0.06299,0.014 -0.06299,-0.04199 L 4.8623,-2.90283 4.94629,-2.98682 H 4.8623 V -3.0708 L 4.77832,-3.15479 C 4.75033,-3.18278 4.72233,-3.19678 4.69434,-3.19678 v 0.04199 -0.08398 -0.08398 H 4.61035 c -0.05599,0 -0.08398,-0.021 -0.08398,-0.06299 v -0.08399 c 0,-0.05599 -0.028,-0.08398 -0.08399,-0.08398 -0.02799,-0.028 -0.04199,-0.06999 -0.04199,-0.12598 0,-0.02799 0.014,-0.04199 0.04199,-0.04199 -0.05599,0 -0.08398,0.028 -0.08398,0.08398 -0.05599,-0.05598 -0.10148,-0.08398 -0.13648,-0.08398 -0.03499,0 -0.05249,-0.02799 -0.05249,-0.08398 -0.05599,-0.05599 -0.10498,-0.08399 -0.14697,-0.08399 -0.04199,0 -0.09098,-0.02799 -0.14697,-0.08398 -0.11198,0 -0.16797,-0.028 -0.16797,-0.08399 v 0.08399 c 0,-0.05599 -0.028,-0.08399 -0.08398,-0.08399 v 0.08399 L 3.53955,-4.05762 v 0.04199 c 0,0.028 -0.02799,0.042 -0.08398,0.042 v -0.08399 l -0.042,0.04199 c 0,0.028 0.014,0.042 0.042,0.042 -0.06999,0 -0.13298,-0.028 -0.18897,-0.08399 -0.05599,0.08399 -0.10498,0.13298 -0.14697,0.14698 -0.04199,0.01399 -0.11898,0.04899 -0.23096,0.10498 0,-0.05599 -0.014,-0.08399 -0.04199,-0.08399 -0.028,0.028 -0.04199,0.05599 -0.04199,0.08399 H 2.7627 c -0.028,0 -0.042,0.02799 -0.042,0.08398 v -0.08398 c -0.05599,0 -0.05599,-0.014 0,-0.042 0.05599,-0.02799 0.05599,-0.04199 0,-0.04199 -0.02799,-0.05599 -0.02799,-0.08398 0,-0.08398 -0.05599,0 -0.08398,0.01399 -0.08398,0.04199 0,0.02799 0.02799,0.04199 0.08398,0.04199 -0.05599,0.05599 -0.06998,0.09798 -0.04199,0.12598 0.028,0.02799 0.014,0.04199 -0.04199,0.04199 v -0.08398 0.04199 c 0,0.02799 -0.028,0.04199 -0.08399,0.04199 0.05599,0 0.05599,0.028 0,0.08398 0,0.05599 -0.01749,0.06999 -0.05249,0.042 -0.03499,-0.028 -0.05249,-0.014 -0.05249,0.04199 V -3.6377 l -0.04199,0.042 c 0,0.02799 0.014,0.04199 0.04199,0.04199 -0.05599,0 -0.08398,0.014 -0.08398,0.04199 0,0.028 0,0.014 0,-0.04199 v 0.08398 c 0,-0.05599 -0.028,-0.08398 -0.08398,-0.08398 0,0.05599 -0.028,0.08398 -0.08399,0.08398 v 0.14698 0.08398 c -0.05599,0 -0.08398,-0.014 -0.08398,-0.04199 0,-0.028 0,-0.014 0,0.04199 v 0.08398 H 1.98584 c -0.05599,0 -0.08398,0.014 -0.08398,0.042 0,0.02799 0.02799,0.01399 0.08398,-0.042 0,0.05599 -0.014,0.08399 -0.04199,0.08399 -0.028,0 -0.04199,-0.028 -0.04199,-0.08399 0,0.05599 0.01399,0.08399 0.04199,0.08399 0.02799,0 0.014,0 -0.04199,0 H 1.81787 v -0.08399 c -0.05599,0 -0.08398,0.028 -0.08398,0.08399 0.05599,0 0.06998,0.014 0.04199,0.04199 -0.028,0.028 -0.014,0.04199 0.04199,0.04199 -0.05599,0.05599 -0.09798,0.06299 -0.12598,0.021 C 1.6639,-3.00781 1.6499,-2.98682 1.6499,-2.90283 v -0.04199 c 0,0 -0.03499,0.01399 -0.10498,0.04199 v 0.08398 c 0,-0.02799 0.021,-0.04199 0.06299,-0.04199 0,0 0.014,0.014 0.04199,0.04199 -0.06998,0.05599 -0.10498,0.06999 -0.10498,0.04199 0,-0.02799 0,-0.01399 0,0.042 -0.02799,0 -0.05599,0.01399 -0.08398,0.04199 v 0.04199 L 1.41895,-2.69287 c -0.028,0 -0.042,0.014 -0.042,0.04199 L 1.29297,-2.73486 v 0.08398 H 1.37695 C 1.32096,-2.59489 1.29297,-2.5529 1.29297,-2.5249 v 0.04199 c 0,0.04199 -0.014,0.06299 -0.04199,0.06299 -0.05599,0.11198 -0.09799,0.16797 -0.12598,0.16797 0.02799,0 0.04199,0.01399 0.04199,0.04199 0,0.02799 -0.014,0.04199 -0.04199,0.04199 -0.02799,0.028 -0.05599,0.04199 -0.08398,0.04199 H 0.999023 v -0.04199 0.25195 c -0.055989,0 -0.083984,0.028 -0.083984,0.08399 0,0.05599 -0.027995,0.08398 -0.083984,0.08398 v 0.08399 c -0.027995,0 -0.041992,0.01399 -0.041992,0.04199 C 0.761068,-1.59408 0.74707,-1.54508 0.74707,-1.4751 m -1.007812,-1.67969 h -0.041992 -0.041993 0.083985 m 0,0.08399 h -0.083985 c 0,0 0.013998,-0.028 0.041993,-0.08399 l 0.041992,0.08399 m -0.587891,-1.46973 c -0.027995,0 -0.041992,-0.02799 -0.041992,-0.08398 l 0.125977,0.08398 h -0.083985 m 2.057613,2.37256 c 0,0.028 -0.01399,0.05599 -0.04199,0.08399 H 1.125 v -0.08399 h 0.08398 m -1.973628,-0.16797 c -0.027995,0 -0.041993,-0.02799 -0.041993,-0.08398 v -0.06299 h 0.041993 v 0.14697"
         fill-rule="evenodd"
         vector-effect="none" />
    </g>
    <g
       id="g16"
       font-style="normal"
       font-weight="400"
       font-size="7.8px"
       font-family="'MS Shell Dlg 2'"
       stroke="none"
       fill-opacity="1"
       fill="#1f78b4" />
  </g>
</svg>
