<?xml version="1.0" encoding="UTF-8" standalone="no"?>
<svg width="11.2889mm" height="11.2889mm"
 viewBox="0 0 32 32"
 xmlns="http://www.w3.org/2000/svg" xmlns:xlink="http://www.w3.org/1999/xlink"  version="1.2" baseProfile="tiny">
<title>Qt SVG Document</title>
<desc>Generated with Qt</desc>
<defs>
</defs>
<g fill="none" stroke="black" stroke-width="1" fill-rule="evenodd" stroke-linecap="square" stroke-linejoin="bevel" >

<g fill="#1f78b4" fill-opacity="1" stroke="none" transform="matrix(1,0,0,1,0,0)"
font-family="MS Shell Dlg 2" font-size="7.8" font-weight="400" font-style="normal" 
>
<path vector-effect="non-scaling-stroke" fill-rule="evenodd" d="M37.2598,16 C37.2598,27.7415 27.7415,37.2598 16,37.2598 C4.25851,37.2598 -5.25984,27.7415 -5.25984,16 C-5.25984,4.25851 4.25851,-5.25984 16,-5.25984 C27.7415,-5.25984 37.2598,4.25851 37.2598,16 "/>
</g>

<g fill="#ffffff" fill-opacity="0.94902" stroke="none" transform="matrix(1,0,0,1,16,12.5984)"
font-family="MS Shell Dlg 2" font-size="7.8" font-weight="400" font-style="normal" 
>
<path vector-effect="none" fill-rule="evenodd" d="M5.59717,8.95996 C6.60498,8.95996 7.54631,9.03345 8.42114,9.18042 C9.29598,9.32739 10.0553,9.50586 10.6992,9.71582 C11.3431,9.92578 11.8505,10.1532 12.2214,10.3982 C12.5924,10.6431 12.7778,10.8846 12.7778,11.1226 L12.7778,13.4741 C12.7778,13.88 12.4139,14.2685 11.686,14.6394 C10.9582,15.0103 9.94336,15.3148 8.6416,15.5527 C7.70378,15.7767 6.57349,15.9517 5.25073,16.0776 C3.92798,16.2036 2.33577,16.2946 0.474121,16.3506 L0.0961914,16.3506 L-0.344727,16.3506 C-2.20638,16.2946 -3.78809,16.2036 -5.08984,16.0776 C-6.3916,15.9517 -7.50439,15.7767 -8.42822,15.5527 C-9.74398,15.3148 -10.7798,15.0103 -11.5356,14.6394 C-12.2915,14.2685 -12.6694,13.88 -12.6694,13.4741 L-12.6694,11.1226 C-12.6694,10.6606 -12.0186,10.1847 -10.7168,9.69482 C-9.41504,9.20492 -7.54639,8.95996 -5.11084,8.95996 L-5.11084,9.94678 C-5.36279,9.8348 -5.63224,9.7998 -5.91919,9.8418 C-6.20614,9.88379 -6.53158,9.95028 -6.89551,10.0413 C-7.25944,10.1322 -7.65487,10.2057 -8.08179,10.2617 C-8.50871,10.3177 -8.98112,10.3037 -9.49902,10.2197 C-9.69499,10.3037 -9.76497,10.3737 -9.70898,10.4297 C-9.65299,10.4857 -9.59001,10.5347 -9.52002,10.5767 C-9.45003,10.6187 -9.45703,10.6676 -9.54102,10.7236 C-9.625,10.7796 -9.91195,10.8216 -10.4019,10.8496 C-9.47803,11.2275 -8.15177,11.567 -6.4231,11.8679 C-4.69442,12.1689 -2.52132,12.3193 0.0961914,12.3193 C2.69971,12.3193 4.8623,12.1689 6.58398,11.8679 C8.30566,11.567 9.62842,11.2275 10.5522,10.8496 C9.88037,10.8216 9.50944,10.7796 9.43945,10.7236 C9.36947,10.6676 9.36247,10.6047 9.41846,10.5347 C9.47445,10.4647 9.49544,10.3947 9.48145,10.3247 C9.46745,10.2547 9.1875,10.1917 8.6416,10.1357 C8.52962,10.0938 8.33716,10.0658 8.06421,10.0518 C7.79126,10.0378 7.49032,10.0308 7.16138,10.0308 C6.83244,10.0308 6.5245,10.0238 6.23755,10.0098 C5.9506,9.99577 5.73714,9.97477 5.59717,9.94678 L5.59717,8.95996 M1.98584,0.624512 C2.06982,0.652507 2.08382,0.694499 2.02783,0.750488 C1.97184,0.806478 1.89486,0.876465 1.79688,0.960449 C1.69889,1.04443 1.60441,1.13192 1.51343,1.2229 C1.42244,1.31388 1.37695,1.37337 1.37695,1.40137 C1.37695,1.54134 1.25448,1.66732 1.00952,1.7793 C0.764567,1.89128 0.460124,1.94727 0.0961914,1.94727 C-0.253743,1.94727 -0.565186,1.89128 -0.838135,1.7793 C-1.11108,1.66732 -1.24756,1.54134 -1.24756,1.40137 C-1.24756,1.34538 -1.37703,1.2439 -1.63599,1.09692 C-1.89494,0.949951 -1.97542,0.84847 -1.87744,0.79248 C-1.84945,0.764486 -1.77246,0.771484 -1.64648,0.813477 C-1.52051,0.855469 -1.38403,0.897461 -1.23706,0.939453 C-1.09009,0.981445 -0.960612,1.02694 -0.848633,1.07593 C-0.736654,1.12492 -0.652669,1.14941 -0.59668,1.14941 C-0.512695,1.14941 -0.397217,1.01294 -0.250244,0.73999 C-0.103271,0.467041 0.012207,0.330566 0.0961914,0.330566 C0.208171,0.330566 0.358643,0.449544 0.547607,0.6875 C0.736572,0.925456 0.859049,1.07943 0.915039,1.14941 C1.02702,1.14941 1.21948,1.06193 1.49243,0.886963 C1.76538,0.711995 1.92985,0.624512 1.98584,0.624512 M5.34521,6.46143 C5.34521,6.64339 5.20874,6.81136 4.93579,6.96533 C4.66284,7.1193 4.28841,7.24878 3.8125,7.35376 C3.33659,7.45874 2.77669,7.54622 2.13281,7.61621 C1.48893,7.6862 0.810059,7.72119 0.0961914,7.72119 C-1.40153,7.72119 -2.6578,7.59871 -3.67261,7.35376 C-4.68742,7.10881 -5.19482,6.81136 -5.19482,6.46143 C-5.19482,6.18148 -4.87288,5.94002 -4.229,5.73706 C-3.58512,5.5341 -2.75928,5.37663 -1.75146,5.26465 C-1.69548,5.32064 -1.63949,5.36963 -1.5835,5.41162 C-1.52751,5.45361 -1.47152,5.5026 -1.41553,5.55859 C-1.5835,5.74056 -1.66748,5.85954 -1.66748,5.91553 C-1.66748,6.13949 -1.49601,6.31795 -1.15308,6.45093 C-0.81014,6.5839 -0.393717,6.65039 0.0961914,6.65039 C0.614095,6.65039 1.04451,6.5839 1.38745,6.45093 C1.73039,6.31795 1.90186,6.13949 1.90186,5.91553 C1.90186,5.85954 1.88786,5.81055 1.85986,5.76855 C1.83187,5.72656 1.78988,5.65658 1.73389,5.55859 C1.78988,5.5026 1.83187,5.45361 1.85986,5.41162 C1.88786,5.36963 1.92985,5.32064 1.98584,5.26465 C2.99365,5.37663 3.8055,5.5341 4.42139,5.73706 C5.03727,5.94002 5.34521,6.18148 5.34521,6.46143 M4.44238,7.80518 C4.44238,8.18311 4.02596,8.48405 3.19312,8.70801 C2.36027,8.93197 1.32796,9.04395 0.0961914,9.04395 C-1.10758,9.04395 -2.13989,8.93197 -3.00073,8.70801 C-3.86157,8.48405 -4.29199,8.18311 -4.29199,7.80518 L-4.29199,7.63721 C-3.83008,7.86117 -3.21419,8.03263 -2.44434,8.15161 C-1.67448,8.27059 -0.827637,8.33008 0.0961914,8.33008 C1.00602,8.33008 1.84237,8.27059 2.60522,8.15161 C3.36808,8.03263 3.98047,7.86117 4.44238,7.63721 L4.44238,7.80518 M-0.0717773,11.6685 C-0.939616,11.6965 -1.552,11.7035 -1.90894,11.6895 C-2.26587,11.6755 -2.49333,11.6545 -2.59131,11.6265 C-2.68929,11.5985 -2.71029,11.5635 -2.6543,11.5215 C-2.59831,11.4795 -2.58431,11.4235 -2.6123,11.3535 C-2.6403,11.2835 -2.76978,11.196 -3.00073,11.0911 C-3.23169,10.9861 -3.66211,10.8776 -4.29199,10.7656 L-4.29199,8.45605 C-4.01204,8.70801 -3.46965,8.93547 -2.66479,9.13843 C-1.85994,9.34139 -0.939616,9.44287 0.0961914,9.44287 C1.104,9.44287 2.00684,9.34139 2.80469,9.13843 C3.60254,8.93547 4.14844,8.70801 4.44238,8.45605 L4.44238,10.5137 C4.14844,10.5697 3.96647,10.6606 3.89648,10.7866 C3.8265,10.9126 3.69002,11.0421 3.48706,11.175 C3.2841,11.308 2.93416,11.4235 2.43726,11.5215 C1.94035,11.6195 1.104,11.6685 -0.0717773,11.6685 M1.20898,2.13623 C1.50293,2.41618 1.6499,2.8291 1.6499,3.375 C1.6499,4.08887 1.47493,4.66276 1.125,5.09668 C1.18099,5.15267 1.20898,5.27865 1.20898,5.47461 C1.20898,5.65658 1.1005,5.81755 0.883545,5.95752 C0.666585,6.09749 0.404134,6.16748 0.0961914,6.16748 C-0.225749,6.16748 -0.498698,6.09749 -0.722656,5.95752 C-0.946615,5.81755 -1.05859,5.65658 -1.05859,5.47461 C-1.05859,5.27865 -1.0026,5.15267 -0.890625,5.09668 C-1.12858,4.87272 -1.28955,4.61027 -1.37354,4.30933 C-1.45752,4.00838 -1.49951,3.69694 -1.49951,3.375 C-1.49951,2.8291 -1.35254,2.41618 -1.05859,2.13623 C-0.974609,2.19222 -0.827637,2.24821 -0.617676,2.3042 C-0.407715,2.36019 -0.169759,2.38818 0.0961914,2.38818 C0.32015,2.38818 0.53361,2.36019 0.736572,2.3042 C0.939535,2.24821 1.09701,2.19222 1.20898,2.13623 M0.873047,-2.94482 C0.845052,-2.94482 0.831055,-2.93083 0.831055,-2.90283 L0.831055,-2.98682 C0.859049,-2.98682 0.887044,-2.98682 0.915039,-2.98682 L0.873047,-2.94482 M5.89111,-6.76611 C5.89111,-6.76611 5.90511,-6.73812 5.93311,-6.68213 L5.84912,-6.76611 L5.89111,-6.76611 M0.474121,-2 C0.446126,-1.97201 0.432129,-1.94401 0.432129,-1.91602 C0.404134,-1.88802 0.390137,-1.83203 0.390137,-1.74805 L0.390137,-1.83203 L0.390137,-2 L0.390137,-2.16797 L0.390137,-2.33594 C0.502116,-2.62988 0.558105,-2.79085 0.558105,-2.81885 C0.558105,-2.87484 0.572103,-2.93083 0.600098,-2.98682 C0.628092,-3.04281 0.64209,-3.0988 0.64209,-3.15479 C0.712077,-3.23877 0.74707,-3.32625 0.74707,-3.41724 C0.74707,-3.50822 0.775065,-3.58171 0.831055,-3.6377 C0.887044,-3.77767 0.936035,-3.91064 0.978027,-4.03662 C1.02002,-4.1626 1.06901,-4.30257 1.125,-4.45654 L1.125,-4.37256 C1.125,-4.42855 1.139,-4.44255 1.16699,-4.41455 C1.19499,-4.38656 1.20898,-4.40055 1.20898,-4.45654 C1.15299,-4.45654 1.139,-4.47054 1.16699,-4.49854 C1.19499,-4.52653 1.20898,-4.56852 1.20898,-4.62451 C1.26497,-4.6805 1.29297,-4.73649 1.29297,-4.79248 C1.29297,-4.84847 1.32096,-4.90446 1.37695,-4.96045 C1.37695,-5.04443 1.39095,-5.11792 1.41895,-5.18091 C1.44694,-5.2439 1.48893,-5.30339 1.54492,-5.35938 L1.60791,-5.35938 C1.60791,-5.35938 1.62191,-5.38737 1.6499,-5.44336 C1.6499,-5.49935 1.6779,-5.58333 1.73389,-5.69531 C1.73389,-5.7513 1.74788,-5.79329 1.77588,-5.82129 C1.80387,-5.84928 1.81787,-5.89128 1.81787,-5.94727 C1.90186,-6.10124 1.99284,-6.24121 2.09082,-6.36719 C2.1888,-6.49316 2.27979,-6.62614 2.36377,-6.76611 C2.46175,-6.94808 2.56673,-7.09505 2.67871,-7.20703 C2.79069,-7.31901 2.88867,-7.44499 2.97266,-7.58496 L2.97266,-7.50098 C3.02865,-7.50098 3.07764,-7.52897 3.11963,-7.58496 C3.16162,-7.64095 3.15462,-7.66895 3.09863,-7.66895 C3.15462,-7.66895 3.19661,-7.70044 3.22461,-7.76343 C3.2526,-7.82642 3.2946,-7.82292 3.35059,-7.75293 C3.35059,-7.82292 3.38558,-7.8859 3.45557,-7.94189 C3.51156,-7.99788 3.55355,-8.02588 3.58154,-8.02588 C3.60954,-8.02588 3.65153,-8.05387 3.70752,-8.10986 C3.76351,-8.10986 3.8195,-8.10986 3.87549,-8.10986 C3.93148,-8.10986 3.93148,-8.13786 3.87549,-8.19385 C3.98747,-8.19385 4.08895,-8.21484 4.17993,-8.25684 C4.27091,-8.29883 4.3584,-8.31982 4.44238,-8.31982 C4.52637,-8.31982 4.59635,-8.29883 4.65234,-8.25684 C4.70833,-8.21484 4.77832,-8.19385 4.8623,-8.19385 C5.00228,-8.13786 5.12476,-8.07487 5.22974,-8.00488 C5.33472,-7.9349 5.4292,-7.85091 5.51318,-7.75293 C5.65316,-7.61296 5.78963,-7.46598 5.92261,-7.31201 C6.05558,-7.15804 6.16406,-7.00407 6.24805,-6.8501 C6.30404,-6.79411 6.34603,-6.72412 6.37402,-6.64014 C6.40202,-6.55615 6.44401,-6.51416 6.5,-6.51416 L6.54199,-6.47217 C6.54199,-6.44417 6.52799,-6.43018 6.5,-6.43018 C6.55599,-6.37419 6.59798,-6.3112 6.62598,-6.24121 C6.65397,-6.17122 6.69596,-6.10824 6.75195,-6.05225 C6.75195,-5.95426 6.76595,-5.87728 6.79395,-5.82129 C6.82194,-5.7653 6.86393,-5.69531 6.91992,-5.61133 L6.83594,-5.61133 C6.89193,-5.61133 6.93742,-5.59733 6.97241,-5.56934 C7.00741,-5.54134 7.0109,-5.51335 6.98291,-5.48535 L6.91992,-5.52734 C6.96191,-5.49935 6.98291,-5.47135 6.98291,-5.44336 L6.91992,-5.44336 L6.98291,-5.44336 C7.06689,-5.27539 7.15088,-5.10392 7.23486,-4.92896 C7.31885,-4.75399 7.40283,-4.59652 7.48682,-4.45654 C7.48682,-4.24658 7.47282,-4.1731 7.44482,-4.23608 C7.41683,-4.29907 7.43083,-4.26758 7.48682,-4.1416 C7.54281,-4.08561 7.5568,-4.04362 7.52881,-4.01563 C7.50081,-3.98763 7.48682,-3.94564 7.48682,-3.88965 C7.51481,-3.91764 7.54281,-3.93164 7.5708,-3.93164 L7.5708,-3.88965 C7.5708,-3.77767 7.5988,-3.66569 7.65479,-3.55371 L7.5708,-3.55371 C7.62679,-3.49772 7.66878,-3.42424 7.69678,-3.33325 C7.72477,-3.24227 7.76676,-3.15479 7.82275,-3.0708 C8.06071,-2.18896 8.22168,-1.32813 8.30566,-0.488281 C8.36165,-0.0403646 8.40365,0.393555 8.43164,0.813477 C8.45964,1.2334 8.47363,1.67432 8.47363,2.13623 L8.47363,2.59814 L8.47363,2.76611 C8.52962,2.94808 8.55762,3.10905 8.55762,3.24902 C8.55762,3.389 8.55762,3.55697 8.55762,3.75293 L8.55762,3.85791 C8.61361,4.30583 8.6276,4.73275 8.59961,5.13867 C8.57161,5.5446 8.58561,5.94352 8.6416,6.33545 L8.6416,7.07031 L8.6416,8.87598 C8.61361,8.87598 8.59961,8.86198 8.59961,8.83398 C8.57161,8.80599 8.55762,8.736 8.55762,8.62402 C8.50163,8.42806 8.47363,8.2286 8.47363,8.02563 C8.47363,7.82267 8.47363,7.63721 8.47363,7.46924 L8.47363,7.32227 C8.41764,7.1543 8.38965,6.93384 8.38965,6.66089 C8.38965,6.38794 8.41764,6.16748 8.47363,5.99951 L8.47363,5.74756 L8.47363,5.66357 C8.47363,5.59359 8.44564,5.55859 8.38965,5.55859 L8.47363,5.47461 L8.47363,5.34863 C8.41764,5.29264 8.40365,5.21566 8.43164,5.11768 C8.45964,5.01969 8.44564,4.92871 8.38965,4.84473 C8.38965,4.69076 8.38965,4.52979 8.38965,4.36182 C8.38965,4.19385 8.36165,4.02588 8.30566,3.85791 L8.38965,3.85791 C8.33366,3.85791 8.30566,3.79492 8.30566,3.66895 L8.30566,3.375 L8.30566,3.20703 L8.30566,3.12305 C8.24967,3.12305 8.23568,3.10905 8.26367,3.08105 C8.29167,3.05306 8.30566,3.01107 8.30566,2.95508 L8.30566,2.76611 C8.30566,2.65413 8.27767,2.59814 8.22168,2.59814 C8.27767,2.54215 8.30566,2.54215 8.30566,2.59814 C8.30566,2.65413 8.30566,2.65413 8.30566,2.59814 C8.24967,2.40218 8.22168,2.18172 8.22168,1.93677 C8.22168,1.69181 8.22168,1.45736 8.22168,1.2334 L8.22168,1.14941 L8.22168,0.960449 L8.22168,0.876465 C8.19368,0.90446 8.17969,0.90446 8.17969,0.876465 C8.15169,0.876465 8.1377,0.820475 8.1377,0.708496 L8.22168,0.79248 C8.16569,0.736491 8.1377,0.638509 8.1377,0.498535 L8.1377,0.330566 L8.1377,0.225586 L8.1377,0.141602 C8.1377,0.085612 8.1237,0.0296224 8.0957,-0.0263672 C8.06771,-0.0823568 8.05371,-0.138346 8.05371,-0.194336 L8.05371,-0.614258 L8.05371,-0.677246 L8.05371,-0.76123 L8.05371,-0.845215 C8.05371,-0.929199 8.01172,-0.929199 7.92773,-0.845215 L7.92773,-1.18115 L7.96973,-1.18115 C7.96973,-1.18115 7.98372,-1.20915 8.01172,-1.26514 C8.01172,-1.32113 7.99772,-1.35612 7.96973,-1.37012 C7.94173,-1.38411 7.92773,-1.41911 7.92773,-1.4751 C7.92773,-1.54508 7.91024,-1.58708 7.87524,-1.60107 C7.84025,-1.61507 7.82275,-1.66406 7.82275,-1.74805 L7.73877,-1.91602 L7.78076,-1.91602 C7.78076,-1.91602 7.76676,-1.94401 7.73877,-2 L7.73877,-2.16797 L7.73877,-2.20996 L7.73877,-2.33594 C7.73877,-2.39193 7.72477,-2.44442 7.69678,-2.49341 C7.66878,-2.5424 7.65479,-2.5389 7.65479,-2.48291 L7.65479,-2.65088 C7.5988,-2.70687 7.5708,-2.79085 7.5708,-2.90283 C7.5708,-2.98682 7.5568,-3.0568 7.52881,-3.11279 C7.50081,-3.16878 7.48682,-3.23877 7.48682,-3.32275 L7.48682,-3.23877 C7.43083,-3.29476 7.41683,-3.33325 7.44482,-3.35425 C7.47282,-3.37524 7.45882,-3.41374 7.40283,-3.46973 C7.45882,-3.46973 7.47282,-3.46973 7.44482,-3.46973 C7.41683,-3.46973 7.40283,-3.49772 7.40283,-3.55371 C7.40283,-3.6097 7.38883,-3.67269 7.36084,-3.74268 C7.33285,-3.81266 7.31885,-3.88965 7.31885,-3.97363 C7.26286,-3.97363 7.23486,-3.98763 7.23486,-4.01563 L7.23486,-4.05762 L7.23486,-4.1416 L7.23486,-4.22559 C7.17887,-4.22559 7.15088,-4.24658 7.15088,-4.28857 L7.15088,-4.37256 L7.19287,-4.37256 C7.19287,-4.37256 7.17887,-4.40055 7.15088,-4.45654 L7.15088,-4.54053 L7.06689,-4.54053 L7.06689,-4.62451 C7.0389,-4.62451 7.0249,-4.63851 7.0249,-4.6665 C7.0249,-4.6665 7.0389,-4.6805 7.06689,-4.7085 C7.06689,-4.76449 7.0179,-4.79248 6.91992,-4.79248 L6.91992,-4.83447 C6.91992,-4.86247 6.89193,-4.90446 6.83594,-4.96045 C6.83594,-5.01644 6.82194,-5.06193 6.79395,-5.09692 C6.76595,-5.13192 6.75195,-5.17741 6.75195,-5.2334 C6.72396,-5.26139 6.70996,-5.28939 6.70996,-5.31738 C6.68197,-5.34538 6.66797,-5.38737 6.66797,-5.44336 L6.66797,-5.52734 L6.66797,-5.69531 L6.58398,-5.69531 C6.58398,-5.7513 6.55599,-5.7793 6.5,-5.7793 C6.44401,-5.7793 6.41602,-5.80729 6.41602,-5.86328 L6.5,-5.86328 C6.5,-5.91927 6.486,-5.94727 6.45801,-5.94727 C6.43001,-5.94727 6.38802,-5.98226 6.33203,-6.05225 C6.30404,-6.05225 6.29004,-6.06624 6.29004,-6.09424 C6.29004,-6.09424 6.30404,-6.10824 6.33203,-6.13623 C6.27604,-6.13623 6.24805,-6.16423 6.24805,-6.22021 C6.24805,-6.2762 6.24805,-6.2762 6.24805,-6.22021 C6.19206,-6.33219 6.12557,-6.41618 6.04858,-6.47217 C5.9716,-6.52816 5.93311,-6.59814 5.93311,-6.68213 C5.93311,-6.68213 5.91911,-6.71012 5.89111,-6.76611 L5.93311,-6.76611 C5.87712,-6.8221 5.83512,-6.8431 5.80713,-6.8291 C5.77913,-6.8151 5.76514,-6.8571 5.76514,-6.95508 L5.68115,-6.95508 L5.68115,-7.03906 C5.62516,-7.03906 5.61117,-7.03906 5.63916,-7.03906 C5.66715,-7.03906 5.68115,-7.06706 5.68115,-7.12305 C5.62516,-7.12305 5.59717,-7.13704 5.59717,-7.16504 L5.59717,-7.20703 L5.51318,-7.20703 C5.54118,-7.20703 5.55518,-7.22103 5.55518,-7.24902 C5.55518,-7.27702 5.54118,-7.30501 5.51318,-7.33301 L5.4292,-7.33301 L5.4292,-7.375 C5.4292,-7.375 5.4012,-7.389 5.34521,-7.41699 L5.30322,-7.45898 C5.30322,-7.45898 5.30322,-7.47298 5.30322,-7.50098 L5.26123,-7.50098 L5.26123,-7.58496 L5.21924,-7.58496 L5.17725,-7.58496 L5.17725,-7.62695 C5.17725,-7.62695 5.14225,-7.61296 5.07227,-7.58496 C5.07227,-7.64095 5.03027,-7.66895 4.94629,-7.66895 C4.94629,-7.72493 4.91829,-7.75293 4.8623,-7.75293 L4.77832,-7.75293 L4.77832,-7.94189 C4.72233,-7.94189 4.68034,-7.9279 4.65234,-7.8999 C4.62435,-7.87191 4.63835,-7.85791 4.69434,-7.85791 L4.44238,-7.85791 L4.3584,-7.85791 C4.30241,-7.85791 4.23592,-7.84041 4.15894,-7.80542 C4.08195,-7.77043 4.01546,-7.75293 3.95947,-7.75293 L3.95947,-7.85791 C3.90348,-7.78792 3.87549,-7.77043 3.87549,-7.80542 C3.87549,-7.84041 3.87549,-7.82292 3.87549,-7.75293 L3.95947,-7.75293 C3.90348,-7.69694 3.84749,-7.66895 3.7915,-7.66895 L3.70752,-7.66895 L3.70752,-7.58496 C3.70752,-7.61296 3.69352,-7.62695 3.66553,-7.62695 C3.63753,-7.62695 3.62354,-7.61296 3.62354,-7.58496 L3.53955,-7.58496 L3.53955,-7.50098 L3.45557,-7.50098 C3.45557,-7.44499 3.42057,-7.389 3.35059,-7.33301 L3.2666,-7.33301 C3.21061,-7.24902 3.15462,-7.20703 3.09863,-7.20703 C2.93066,-6.96908 2.80469,-6.76611 2.7207,-6.59814 L2.63672,-6.59814 C2.60872,-6.59814 2.59473,-6.55615 2.59473,-6.47217 C2.59473,-6.50016 2.60872,-6.51416 2.63672,-6.51416 C2.63672,-6.45817 2.62272,-6.43018 2.59473,-6.43018 C2.56673,-6.43018 2.55273,-6.40218 2.55273,-6.34619 L2.44775,-6.34619 C2.51774,-6.45817 2.51774,-6.51416 2.44775,-6.51416 L2.44775,-6.43018 C2.39176,-6.43018 2.37777,-6.45817 2.40576,-6.51416 C2.43376,-6.57015 2.41976,-6.57015 2.36377,-6.51416 L2.36377,-6.43018 C2.36377,-6.37419 2.37077,-6.33919 2.38477,-6.3252 C2.39876,-6.3112 2.40576,-6.2762 2.40576,-6.22021 L2.36377,-6.22021 L2.36377,-6.17822 C2.36377,-6.15023 2.33577,-6.13623 2.27979,-6.13623 C2.33577,-6.13623 2.36377,-6.12223 2.36377,-6.09424 C2.36377,-6.06624 2.33577,-6.05225 2.27979,-6.05225 L2.27979,-5.94727 L2.27979,-5.86328 C2.2238,-5.86328 2.1958,-5.87728 2.1958,-5.90527 C2.1958,-5.93327 2.1958,-5.91927 2.1958,-5.86328 L2.15381,-5.82129 C2.15381,-5.79329 2.16781,-5.7793 2.1958,-5.7793 C2.16781,-5.7793 2.13981,-5.7653 2.11182,-5.7373 L2.11182,-5.69531 L2.11182,-5.61133 L1.98584,-5.61133 L1.98584,-5.52734 C1.98584,-5.49935 1.97184,-5.47135 1.94385,-5.44336 L1.94385,-5.48535 L1.90186,-5.52734 L1.90186,-5.44336 L1.94385,-5.44336 L1.90186,-5.35938 L1.90186,-5.2334 C1.84587,-5.17741 1.81787,-5.16341 1.81787,-5.19141 C1.81787,-5.2194 1.81787,-5.2054 1.81787,-5.14941 L1.81787,-5.2334 C1.81787,-5.2054 1.80387,-5.17741 1.77588,-5.14941 L1.73389,-5.14941 C1.73389,-5.07943 1.76188,-5.04443 1.81787,-5.04443 C1.76188,-4.98844 1.73389,-4.97445 1.73389,-5.00244 C1.73389,-5.03044 1.73389,-5.01644 1.73389,-4.96045 L1.73389,-5.04443 L1.6499,-4.96045 L1.6499,-4.83447 L1.6499,-4.87646 L1.6499,-4.79248 C1.62191,-4.79248 1.60791,-4.77848 1.60791,-4.75049 C1.56592,-4.72249 1.54492,-4.6805 1.54492,-4.62451 L1.54492,-4.79248 L1.46094,-4.7085 L1.46094,-4.62451 C1.48893,-4.65251 1.50293,-4.65251 1.50293,-4.62451 C1.50293,-4.59652 1.48893,-4.56852 1.46094,-4.54053 C1.46094,-4.45654 1.44694,-4.42855 1.41895,-4.45654 C1.39095,-4.48454 1.37695,-4.45654 1.37695,-4.37256 C1.32096,-4.31657 1.29297,-4.29557 1.29297,-4.30957 C1.29297,-4.32357 1.29297,-4.29557 1.29297,-4.22559 C1.29297,-4.1696 1.27897,-4.1416 1.25098,-4.1416 C1.22298,-4.1416 1.23698,-4.1416 1.29297,-4.1416 C1.29297,-4.08561 1.27897,-4.05762 1.25098,-4.05762 C1.22298,-4.05762 1.23698,-4.02962 1.29297,-3.97363 C1.23698,-3.91764 1.22298,-3.88965 1.25098,-3.88965 C1.27897,-3.88965 1.29297,-3.86165 1.29297,-3.80566 L1.20898,-3.80566 C1.23698,-3.83366 1.25098,-3.86165 1.25098,-3.88965 C1.25098,-3.94564 1.23698,-3.97363 1.20898,-3.97363 L1.20898,-3.88965 C1.20898,-3.83366 1.19499,-3.80566 1.16699,-3.80566 C1.139,-3.80566 1.125,-3.77767 1.125,-3.72168 L1.125,-3.6377 C1.06901,-3.6377 1.05501,-3.65169 1.08301,-3.67969 C1.111,-3.70768 1.125,-3.74967 1.125,-3.80566 L0.999023,-3.72168 L0.999023,-3.67969 L0.999023,-3.6377 C0.999023,-3.58171 0.985026,-3.53271 0.957031,-3.49072 C0.929036,-3.44873 0.915039,-3.39274 0.915039,-3.32275 L0.915039,-3.46973 C0.915039,-3.34375 0.901042,-3.25277 0.873047,-3.19678 C0.845052,-3.14079 0.831055,-3.0708 0.831055,-2.98682 C0.831055,-3.04281 0.817057,-3.04281 0.789063,-2.98682 C0.761068,-2.93083 0.775065,-2.90283 0.831055,-2.90283 L0.74707,-2.90283 C0.74707,-2.84684 0.74707,-2.83285 0.74707,-2.86084 C0.74707,-2.88883 0.712077,-2.87484 0.64209,-2.81885 L0.64209,-2.56689 C0.5861,-2.5109 0.558105,-2.43742 0.558105,-2.34644 C0.558105,-2.25545 0.558105,-2.16797 0.558105,-2.08398 L0.474121,-2.08398 C0.418132,-2.02799 0.404134,-2.014 0.432129,-2.04199 C0.460124,-2.06999 0.474121,-2.05599 0.474121,-2 M5.47119,-7.33301 L5.47119,-7.29102 C5.47119,-7.26302 5.48519,-7.23503 5.51318,-7.20703 L5.4292,-7.33301 L5.47119,-7.33301 M-1.91943,-6.51416 L-1.96143,-6.47217 L-1.96143,-6.51416 L-1.91943,-6.51416 M-0.890625,-4.54053 L-0.764648,-4.54053 L-0.764648,-4.45654 L-0.890625,-4.54053 M-0.59668,-4.01563 L-0.59668,-4.05762 L-0.59668,-3.97363 L-0.59668,-4.01563 M-0.512695,-3.76367 C-0.512695,-3.73568 -0.484701,-3.69368 -0.428711,-3.6377 C-0.456706,-3.6377 -0.470703,-3.65169 -0.470703,-3.67969 C-0.498698,-3.70768 -0.512695,-3.73568 -0.512695,-3.76367 M-1.91943,-6.51416 L-1.87744,-6.43018 C-1.90544,-6.48617 -1.91943,-6.51416 -1.91943,-6.51416 M-5.36279,-7.41699 C-5.41878,-7.41699 -5.43278,-7.41699 -5.40479,-7.41699 C-5.37679,-7.41699 -5.36279,-7.44499 -5.36279,-7.50098 L-5.36279,-7.41699 M5.9751,5.55859 C5.9471,5.5306 5.93311,5.5026 5.93311,5.47461 C5.9611,5.47461 5.9751,5.5026 5.9751,5.55859 M-0.428711,-3.6377 C-0.428711,-3.58171 -0.442708,-3.56771 -0.470703,-3.5957 C-0.498698,-3.6237 -0.484701,-3.6377 -0.428711,-3.6377 M-5.15283,-7.75293 C-5.15283,-7.75293 -5.13883,-7.78792 -5.11084,-7.85791 L-5.11084,-7.75293 L-5.15283,-7.75293 M1.73389,-4.87646 C1.70589,-4.84847 1.6779,-4.83447 1.6499,-4.83447 C1.6779,-4.86247 1.70589,-4.87646 1.73389,-4.87646 M1.125,-3.6377 C1.125,-3.58171 1.118,-3.55371 1.104,-3.55371 C1.09001,-3.55371 1.06901,-3.52572 1.04102,-3.46973 L1.125,-3.6377 M0.306152,-2.08398 C0.362142,-2.02799 0.390137,-1.94401 0.390137,-1.83203 C0.334147,-1.77604 0.306152,-1.69206 0.306152,-1.58008 C0.250163,-1.63607 0.250163,-1.69206 0.306152,-1.74805 L0.306152,-2.08398 M0.999023,-3.46973 L1.04102,-3.46973 C1.04102,-3.44173 1.03402,-3.42074 1.02002,-3.40674 C1.00602,-3.39274 0.999023,-3.36475 0.999023,-3.32275 L0.999023,-3.46973 M1.29297,-4.22559 C1.34896,-4.22559 1.37695,-4.27458 1.37695,-4.37256 L1.37695,-4.22559 L1.41895,-4.22559 C1.41895,-4.22559 1.40495,-4.19759 1.37695,-4.1416 C1.37695,-4.19759 1.36296,-4.21159 1.33496,-4.18359 C1.30697,-4.1556 1.29297,-4.1696 1.29297,-4.22559 M2.40576,-6.22021 C2.40576,-6.19222 2.39176,-6.16423 2.36377,-6.13623 C2.36377,-6.16423 2.37077,-6.17822 2.38477,-6.17822 C2.39876,-6.17822 2.40576,-6.19222 2.40576,-6.22021 M-0.59668,-1.58008 L-0.59668,-1.4751 L-0.59668,-1.34912 L-0.638672,-1.34912 C-0.666667,-1.34912 -0.680664,-1.39111 -0.680664,-1.4751 C-0.624674,-1.4751 -0.624674,-1.51009 -0.680664,-1.58008 L-0.59668,-1.58008 M-1.62549,-3.55371 C-1.62549,-3.55371 -1.63949,-3.58171 -1.66748,-3.6377 C-1.61149,-3.58171 -1.61149,-3.55371 -1.66748,-3.55371 L-1.62549,-3.55371 M-1.33154,-3.15479 L-1.41553,-3.15479 C-1.41553,-3.21077 -1.40153,-3.23877 -1.37354,-3.23877 L-1.33154,-3.23877 L-1.33154,-3.19678 L-1.33154,-3.15479 M-1.66748,-3.6377 L-1.75146,-3.6377 L-1.66748,-3.72168 L-1.66748,-3.6377 M-1.05859,-2.81885 C-1.08659,-2.79085 -1.10059,-2.79085 -1.10059,-2.81885 C-1.14258,-2.81885 -1.12858,-2.84684 -1.05859,-2.90283 C-1.05859,-2.84684 -1.0446,-2.81885 -1.0166,-2.81885 C-0.988607,-2.81885 -0.974609,-2.79085 -0.974609,-2.73486 L-1.05859,-2.81885 M-0.59668,-1.83203 L-0.59668,-1.74805 L-0.59668,-1.66406 C-0.652669,-1.66406 -0.708659,-1.69206 -0.764648,-1.74805 L-0.680664,-1.74805 C-0.736654,-1.74805 -0.764648,-1.77604 -0.764648,-1.83203 C-0.848633,-1.88802 -0.890625,-1.97201 -0.890625,-2.08398 C-0.946615,-2.08398 -0.974609,-2.11198 -0.974609,-2.16797 C-0.974609,-2.22396 -1.0026,-2.25195 -1.05859,-2.25195 C-1.05859,-2.30794 -1.07609,-2.36043 -1.11108,-2.40942 C-1.14608,-2.45841 -1.16357,-2.5109 -1.16357,-2.56689 L-1.49951,-2.90283 L-1.49951,-2.98682 C-1.49951,-2.93083 -1.49951,-2.91683 -1.49951,-2.94482 C-1.49951,-2.97282 -1.52751,-2.98682 -1.5835,-2.98682 C-1.5835,-3.0988 -1.63949,-3.15479 -1.75146,-3.15479 C-1.80745,-3.15479 -1.84245,-3.16878 -1.85645,-3.19678 C-1.87044,-3.22477 -1.90544,-3.26676 -1.96143,-3.32275 L-1.96143,-3.46973 L-2.15039,-3.46973 C-2.17839,-3.46973 -2.19238,-3.48372 -2.19238,-3.51172 C-2.22038,-3.53971 -2.23438,-3.58171 -2.23438,-3.6377 C-2.31836,-3.6377 -2.40234,-3.66569 -2.48633,-3.72168 C-2.57031,-3.77767 -2.6543,-3.80566 -2.73828,-3.80566 L-2.73828,-3.88965 C-2.86426,-3.88965 -2.96224,-3.90365 -3.03223,-3.93164 C-3.10221,-3.95964 -3.1652,-3.97363 -3.22119,-3.97363 L-3.22119,-4.05762 C-3.27718,-4.05762 -3.30518,-4.02962 -3.30518,-3.97363 C-3.36117,-4.02962 -3.38916,-4.04362 -3.38916,-4.01563 C-3.38916,-3.98763 -3.41715,-4.00163 -3.47314,-4.05762 L-3.47314,-4.01563 C-3.47314,-3.98763 -3.50114,-3.97363 -3.55713,-3.97363 L-3.64111,-3.97363 L-3.7251,-3.97363 L-3.76709,-3.97363 L-3.76709,-3.93164 C-3.76709,-3.93164 -3.75309,-3.91764 -3.7251,-3.88965 C-3.79508,-3.88965 -3.85107,-3.87565 -3.89307,-3.84766 C-3.93506,-3.81966 -3.98405,-3.80566 -4.04004,-3.80566 C-4.04004,-3.74967 -4.06803,-3.72168 -4.12402,-3.72168 C-4.12402,-3.66569 -4.13802,-3.6377 -4.16602,-3.6377 C-4.19401,-3.6377 -4.236,-3.6097 -4.29199,-3.55371 C-4.34798,-3.39974 -4.43197,-3.26676 -4.54395,-3.15479 C-4.62793,-3.01481 -4.70142,-2.90283 -4.7644,-2.81885 C-4.82739,-2.73486 -4.88688,-2.62288 -4.94287,-2.48291 C-4.94287,-2.41292 -4.97087,-2.35693 -5.02686,-2.31494 C-5.08285,-2.27295 -5.11084,-2.22396 -5.11084,-2.16797 C-5.11084,-2.11198 -5.12484,-2.06999 -5.15283,-2.04199 C-5.18083,-2.014 -5.19482,-1.97201 -5.19482,-1.91602 C-5.25081,-1.86003 -5.27881,-1.77604 -5.27881,-1.66406 C-5.3348,-1.66406 -5.3488,-1.65007 -5.3208,-1.62207 C-5.29281,-1.59408 -5.3068,-1.58008 -5.36279,-1.58008 C-5.36279,-1.42611 -5.37679,-1.28613 -5.40479,-1.16016 C-5.43278,-1.03418 -5.44678,-0.901204 -5.44678,-0.76123 C-5.50277,-0.663249 -5.53076,-0.631755 -5.53076,-0.666748 C-5.53076,-0.701742 -5.53076,-0.670247 -5.53076,-0.572266 L-5.63574,-0.488281 C-5.56576,-0.488281 -5.54826,-0.481283 -5.58325,-0.467285 C-5.61825,-0.453288 -5.60075,-0.418294 -5.53076,-0.362305 C-5.60075,-0.306315 -5.63574,-0.250326 -5.63574,-0.194336 L-5.63574,0.141602 C-5.69173,0.435547 -5.71973,0.725993 -5.71973,1.01294 C-5.71973,1.29989 -5.71973,1.58333 -5.71973,1.86328 C-5.77572,2.18522 -5.79671,2.48966 -5.78271,2.77661 C-5.76872,3.06356 -5.78971,3.361 -5.8457,3.66895 L-5.8457,3.94189 L-5.8457,4.02588 C-5.8457,4.08187 -5.80371,4.10986 -5.71973,4.10986 L-5.71973,4.65576 L-5.71973,4.76074 L-5.71973,4.84473 C-5.66374,5.09668 -5.63574,5.35913 -5.63574,5.63208 C-5.63574,5.90503 -5.60075,6.18148 -5.53076,6.46143 L-5.53076,6.98633 C-5.53076,7.1543 -5.51676,7.34676 -5.48877,7.56372 C-5.46077,7.78068 -5.41878,7.97314 -5.36279,8.14111 C-5.39079,8.16911 -5.41878,8.16911 -5.44678,8.14111 C-5.50277,8.14111 -5.53076,8.08512 -5.53076,7.97314 C-5.60075,7.88916 -5.63574,7.77718 -5.63574,7.63721 C-5.63574,7.49723 -5.66374,7.36426 -5.71973,7.23828 C-5.71973,7.18229 -5.70573,7.16829 -5.67773,7.19629 C-5.64974,7.22428 -5.63574,7.21029 -5.63574,7.1543 C-5.83171,6.90234 -5.8597,6.6014 -5.71973,6.25146 C-5.71973,6.22347 -5.74772,6.18148 -5.80371,6.12549 L-5.8457,6.0835 L-5.71973,6.0835 C-5.80371,6.0835 -5.8457,6.02751 -5.8457,5.91553 L-5.8457,5.83154 C-5.90169,5.77555 -5.91569,5.72306 -5.8877,5.67407 C-5.8597,5.62508 -5.8597,5.55859 -5.8877,5.47461 C-5.8877,5.47461 -5.8737,5.47461 -5.8457,5.47461 C-5.90169,5.36263 -5.92969,5.25065 -5.92969,5.13867 C-5.92969,5.02669 -5.95768,4.92871 -6.01367,4.84473 L-5.92969,4.84473 C-5.98568,4.84473 -6.01367,4.78174 -6.01367,4.65576 C-5.95768,4.65576 -5.94368,4.64176 -5.97168,4.61377 C-5.99967,4.58577 -6.01367,4.54378 -6.01367,4.48779 L-6.01367,4.36182 L-6.01367,4.27783 C-6.04167,4.27783 -6.05566,4.26383 -6.05566,4.23584 L-6.01367,4.19385 L-6.01367,4.10986 L-6.01367,4.02588 L-6.01367,3.94189 L-6.01367,3.03906 L-6.01367,2.8501 C-6.01367,2.79411 -6.02767,2.76611 -6.05566,2.76611 C-6.08366,2.76611 -6.06966,2.73812 -6.01367,2.68213 L-6.01367,2.59814 L-6.01367,2.47217 L-6.01367,2.38818 L-6.01367,2.3042 L-6.01367,2.05225 L-6.01367,1.7793 L-6.01367,1.69531 L-6.01367,1.61133 L-6.01367,1.56934 L-6.01367,1.31738 C-6.01367,1.37337 -5.99967,1.38737 -5.97168,1.35938 C-5.94368,1.33138 -5.92969,1.34538 -5.92969,1.40137 L-5.92969,1.35938 L-5.92969,1.31738 L-5.92969,1.2334 C-5.92969,1.17741 -5.94368,1.13192 -5.97168,1.09692 C-5.99967,1.06193 -6.01367,1.01644 -6.01367,0.960449 C-6.01367,0.988444 -5.99967,1.00244 -5.97168,1.00244 L-5.92969,0.960449 L-6.01367,0.876465 C-6.01367,0.820475 -5.99967,0.806478 -5.97168,0.834473 C-5.94368,0.862467 -5.92969,0.84847 -5.92969,0.79248 L-6.01367,0.79248 L-6.01367,0.708496 C-6.01367,0.652507 -5.98568,0.624512 -5.92969,0.624512 L-5.92969,0.498535 L-5.92969,0.414551 L-5.92969,0.330566 L-5.92969,0.141602 L-5.92969,0.0576172 L-5.92969,-0.152344 L-5.92969,-0.194336 L-5.8457,-0.194336 L-5.8457,-0.27832 L-5.8457,-0.320313 L-5.8457,-0.677246 L-5.8457,-0.76123 L-5.8457,-0.845215 L-5.71973,-0.845215 L-5.71973,-0.929199 L-5.71973,-1.01318 L-5.71973,-1.09717 L-5.71973,-1.18115 L-5.63574,-1.18115 L-5.63574,-1.26514 C-5.66374,-1.26514 -5.67773,-1.27913 -5.67773,-1.30713 L-5.63574,-1.34912 C-5.63574,-1.50309 -5.60075,-1.60807 -5.53076,-1.66406 L-5.53076,-1.74805 L-5.53076,-1.83203 L-5.48877,-1.83203 C-5.48877,-1.83203 -5.47477,-1.86003 -5.44678,-1.91602 L-5.44678,-2 L-5.44678,-2.16797 C-5.44678,-2.11198 -5.41878,-2.08398 -5.36279,-2.08398 L-5.36279,-2.25195 L-5.36279,-2.33594 C-5.3348,-2.33594 -5.3208,-2.34993 -5.3208,-2.37793 C-5.3208,-2.44792 -5.3348,-2.48291 -5.36279,-2.48291 C-5.3068,-2.5389 -5.26481,-2.59489 -5.23682,-2.65088 C-5.20882,-2.70687 -5.16683,-2.73486 -5.11084,-2.73486 L-5.11084,-2.81885 C-5.05485,-2.87484 -5.04085,-2.90283 -5.06885,-2.90283 C-5.09684,-2.90283 -5.11084,-2.93083 -5.11084,-2.98682 L-5.02686,-2.98682 L-5.02686,-3.0708 C-5.02686,-3.12679 -5.02686,-3.14079 -5.02686,-3.11279 C-5.02686,-3.0848 -4.99886,-3.0708 -4.94287,-3.0708 L-4.94287,-3.15479 L-4.85889,-3.15479 C-4.88688,-3.15479 -4.90088,-3.16878 -4.90088,-3.19678 L-4.85889,-3.23877 L-4.94287,-3.23877 L-4.85889,-3.32275 L-4.85889,-3.46973 C-4.85889,-3.49772 -4.84489,-3.51172 -4.81689,-3.51172 C-4.7609,-3.51172 -4.73291,-3.49772 -4.73291,-3.46973 L-4.62793,-3.55371 L-4.73291,-3.55371 L-4.62793,-3.6377 C-4.62793,-3.69368 -4.59993,-3.72168 -4.54395,-3.72168 L-4.54395,-3.80566 L-4.50195,-3.80566 C-4.50195,-3.80566 -4.48796,-3.83366 -4.45996,-3.88965 C-4.45996,-3.86165 -4.44596,-3.84766 -4.41797,-3.84766 C-4.41797,-3.84766 -4.40397,-3.86165 -4.37598,-3.88965 L-4.37598,-3.97363 C-4.31999,-3.97363 -4.29199,-3.98763 -4.29199,-4.01563 C-4.29199,-4.04362 -4.264,-4.05762 -4.20801,-4.05762 L-4.20801,-4.1416 C-4.15202,-4.1416 -4.10303,-4.18009 -4.06104,-4.25708 C-4.01904,-4.33407 -3.95605,-4.37256 -3.87207,-4.37256 C-3.90007,-4.34456 -3.91406,-4.31657 -3.91406,-4.28857 L-3.91406,-4.22559 L-3.87207,-4.22559 L-3.87207,-4.37256 L-3.64111,-4.45654 L-3.55713,-4.45654 L-3.47314,-4.45654 C-3.47314,-4.48454 -3.45915,-4.49854 -3.43115,-4.49854 C-3.37516,-4.49854 -3.33317,-4.48454 -3.30518,-4.45654 C-3.24919,-4.45654 -3.1932,-4.42855 -3.13721,-4.37256 C-3.08122,-4.42855 -3.01473,-4.44255 -2.93774,-4.41455 C-2.86076,-4.38656 -2.76628,-4.37256 -2.6543,-4.37256 L-2.73828,-4.22559 C-2.68229,-4.22559 -2.6543,-4.24308 -2.6543,-4.27808 C-2.6543,-4.31307 -2.6543,-4.29557 -2.6543,-4.22559 C-2.6543,-4.19759 -2.6403,-4.18359 -2.6123,-4.18359 L-2.57031,-4.22559 C-2.57031,-4.19759 -2.55632,-4.18359 -2.52832,-4.18359 C-2.52832,-4.18359 -2.51432,-4.19759 -2.48633,-4.22559 C-2.48633,-4.1696 -2.51432,-4.1416 -2.57031,-4.1416 L-2.48633,-4.1416 C-2.48633,-4.08561 -2.50033,-4.07161 -2.52832,-4.09961 C-2.55632,-4.1276 -2.57031,-4.11361 -2.57031,-4.05762 C-2.57031,-4.00163 -2.58431,-3.98763 -2.6123,-4.01563 C-2.6403,-4.04362 -2.6263,-4.02962 -2.57031,-3.97363 L-2.48633,-4.05762 L-2.40234,-4.05762 L-2.36035,-4.05762 L-2.31836,-4.05762 C-2.29036,-4.08561 -2.26237,-4.09961 -2.23438,-4.09961 L-2.23438,-4.05762 C-2.23438,-4.00163 -2.24837,-3.97363 -2.27637,-3.97363 C-2.30436,-3.97363 -2.29036,-3.97363 -2.23438,-3.97363 L-2.15039,-3.97363 C-2.15039,-3.91764 -2.13639,-3.90365 -2.1084,-3.93164 C-2.0804,-3.95964 -2.0944,-3.94564 -2.15039,-3.88965 L-2.06641,-3.88965 C-2.06641,-3.83366 -2.05241,-3.80566 -2.02441,-3.80566 L-1.96143,-3.80566 L-1.96143,-3.88965 C-1.96143,-3.83366 -1.93343,-3.80566 -1.87744,-3.80566 C-1.82145,-3.74967 -1.80046,-3.72168 -1.81445,-3.72168 C-1.82845,-3.72168 -1.80745,-3.72168 -1.75146,-3.72168 L-1.87744,-3.72168 L-1.87744,-3.67969 C-1.87744,-3.65169 -1.83545,-3.6377 -1.75146,-3.6377 L-1.66748,-3.55371 L-1.5835,-3.55371 L-1.5835,-3.51172 C-1.5835,-3.48372 -1.5555,-3.46973 -1.49951,-3.46973 L-1.5835,-3.32275 L-1.5835,-3.23877 C-1.5835,-3.29476 -1.5695,-3.30876 -1.5415,-3.28076 C-1.51351,-3.25277 -1.47152,-3.26676 -1.41553,-3.32275 C-1.44352,-3.29476 -1.45752,-3.26676 -1.45752,-3.23877 C-1.45752,-3.18278 -1.44352,-3.15479 -1.41553,-3.15479 L-1.41553,-3.0708 L-1.33154,-3.0708 L-1.33154,-3.15479 C-1.27555,-3.0988 -1.26156,-3.0568 -1.28955,-3.02881 C-1.31755,-3.00081 -1.30355,-3.01481 -1.24756,-3.0708 C-1.21956,-3.04281 -1.19157,-3.02881 -1.16357,-3.02881 L-1.16357,-3.0708 L-1.16357,-2.98682 L-1.20557,-3.02881 C-1.23356,-3.02881 -1.24756,-3.01481 -1.24756,-2.98682 L-1.16357,-2.98682 C-1.19157,-2.95882 -1.19157,-2.90283 -1.16357,-2.81885 C-1.09359,-2.76286 -1.05859,-2.72087 -1.05859,-2.69287 C-1.05859,-2.66488 -1.0306,-2.65088 -0.974609,-2.65088 L-1.05859,-2.65088 C-1.0026,-2.59489 -0.974609,-2.5424 -0.974609,-2.49341 C-0.974609,-2.44442 -0.946615,-2.39193 -0.890625,-2.33594 C-0.890625,-2.39193 -0.883626,-2.40592 -0.869629,-2.37793 C-0.855632,-2.34993 -0.820638,-2.33594 -0.764648,-2.33594 C-0.792643,-2.33594 -0.820638,-2.32194 -0.848633,-2.29395 L-0.890625,-2.29395 L-0.890625,-2.25195 C-0.806641,-2.19596 -0.736654,-2.13997 -0.680664,-2.08398 C-0.680664,-2.02799 -0.666667,-1.986 -0.638672,-1.95801 C-0.610677,-1.93001 -0.59668,-1.88802 -0.59668,-1.83203 M-0.155762,-1.74805 C-0.0997721,-1.80404 -0.134766,-1.88802 -0.260742,-2 L-0.0717773,-1.83203 C-0.0717773,-1.72005 -0.0437826,-1.63607 0.012207,-1.58008 L0.012207,-1.4751 L0.012207,-1.34912 L0.222168,-1.34912 L0.222168,-1.4751 L0.222168,-1.58008 L0.306152,-1.58008 L0.306152,-1.4751 L0.306152,-1.34912 L0.64209,-1.34912 C0.96403,-1.34912 0.999023,-1.26514 0.74707,-1.09717 C0.537109,-0.985189 0.42513,-0.841715 0.411133,-0.666748 C0.397135,-0.491781 0.418132,-0.33431 0.474121,-0.194336 C0.530111,0.0016276 0.621094,0.20459 0.74707,0.414551 C0.649089,0.330566 0.530111,0.208089 0.390137,0.0471191 C0.250163,-0.113851 0.152181,-0.194336 0.0961914,-0.194336 C0.012207,-0.194336 -0.0822754,-0.0998535 -0.187256,0.0891113 C-0.292236,0.278076 -0.372721,0.414551 -0.428711,0.498535 C-0.372721,0.232585 -0.344727,-0.0123698 -0.344727,-0.236328 C-0.344727,-0.432292 -0.372721,-0.610758 -0.428711,-0.771729 C-0.484701,-0.932699 -0.59668,-1.04118 -0.764648,-1.09717 C-0.960612,-1.18115 -0.904622,-1.26514 -0.59668,-1.34912 L-0.512695,-1.34912 L-0.0717773,-1.34912 L-0.0717773,-1.4751 L-0.0717773,-1.51709 L-0.0717773,-1.58008 C-0.0997721,-1.58008 -0.11377,-1.59408 -0.11377,-1.62207 C-0.141764,-1.65007 -0.155762,-1.69206 -0.155762,-1.74805 M-1.0166,-4.33057 C-1.0166,-4.35856 -1.0306,-4.37256 -1.05859,-4.37256 L-1.0166,-4.33057 M-8.07129,8.95996 C-8.09928,8.93197 -8.11328,8.90397 -8.11328,8.87598 C-8.14128,8.84798 -8.15527,8.764 -8.15527,8.62402 C-8.21126,8.42806 -8.22526,8.2286 -8.19727,8.02563 C-8.16927,7.82267 -8.18327,7.63721 -8.23926,7.46924 C-8.23926,7.39925 -8.22526,7.37476 -8.19727,7.39575 C-8.16927,7.41675 -8.15527,7.39225 -8.15527,7.32227 C-8.21126,7.1543 -8.22526,6.93384 -8.19727,6.66089 C-8.16927,6.38794 -8.15527,6.16748 -8.15527,5.99951 L-8.07129,5.99951 C-8.07129,5.94352 -8.08529,5.90153 -8.11328,5.87354 C-8.14128,5.84554 -8.15527,5.80355 -8.15527,5.74756 L-8.07129,5.74756 C-8.12728,5.74756 -8.14128,5.71606 -8.11328,5.65308 C-8.08529,5.59009 -8.09928,5.55859 -8.15527,5.55859 L-8.07129,5.47461 L-8.07129,5.34863 C-8.12728,5.29264 -8.14128,5.21566 -8.11328,5.11768 C-8.08529,5.01969 -8.09928,4.92871 -8.15527,4.84473 C-8.15527,4.87272 -8.14128,4.88672 -8.11328,4.88672 C-8.11328,4.88672 -8.09928,4.87272 -8.07129,4.84473 C-8.12728,4.69076 -8.14128,4.52979 -8.11328,4.36182 C-8.08529,4.19385 -8.09928,4.02588 -8.15527,3.85791 L-8.07129,3.85791 L-8.07129,3.58496 L-8.07129,3.54297 C-8.07129,3.51497 -8.07829,3.49398 -8.09229,3.47998 C-8.10628,3.46598 -8.09928,3.43099 -8.07129,3.375 C-8.12728,3.31901 -8.14128,3.27702 -8.11328,3.24902 C-8.08529,3.22103 -8.09928,3.20703 -8.15527,3.20703 L-8.07129,3.12305 C-8.12728,3.12305 -8.14128,3.10905 -8.11328,3.08105 C-8.08529,3.05306 -8.07129,3.01107 -8.07129,2.95508 L-8.07129,2.76611 L-8.07129,2.59814 C-8.07129,2.40218 -8.05729,2.18172 -8.0293,1.93677 C-8.0013,1.69181 -7.9873,1.45736 -7.9873,1.2334 L-7.9873,1.14941 L-7.9873,0.960449 L-7.94531,0.960449 C-7.94531,0.960449 -7.93132,0.932454 -7.90332,0.876465 C-7.93132,0.876465 -7.94531,0.862467 -7.94531,0.834473 C-7.97331,0.806478 -7.9873,0.764486 -7.9873,0.708496 L-7.90332,0.79248 L-7.90332,0.498535 L-7.90332,0.330566 C-7.84733,0.232585 -7.83333,0.190592 -7.86133,0.20459 C-7.88932,0.218587 -7.90332,0.197591 -7.90332,0.141602 L-7.90332,-0.194336 C-7.90332,-0.27832 -7.88932,-0.355306 -7.86133,-0.425293 C-7.83333,-0.49528 -7.81934,-0.579264 -7.81934,-0.677246 L-7.81934,-0.76123 C-7.79134,-0.789225 -7.77734,-0.81722 -7.77734,-0.845215 C-7.77734,-0.901204 -7.79134,-0.929199 -7.81934,-0.929199 C-7.81934,-0.985189 -7.80534,-1.04118 -7.77734,-1.09717 C-7.74935,-1.15316 -7.73535,-1.20915 -7.73535,-1.26514 C-7.70736,-1.26514 -7.69336,-1.25114 -7.69336,-1.22314 C-7.63737,-1.27913 -7.60938,-1.36312 -7.60938,-1.4751 C-7.60938,-1.54508 -7.63037,-1.59408 -7.67236,-1.62207 C-7.71436,-1.65007 -7.73535,-1.69206 -7.73535,-1.74805 C-7.73535,-1.72005 -7.72135,-1.70605 -7.69336,-1.70605 C-7.66536,-1.70605 -7.63737,-1.72005 -7.60938,-1.74805 L-7.73535,-1.91602 C-7.67936,-1.97201 -7.64437,-1.986 -7.63037,-1.95801 C-7.61637,-1.93001 -7.60938,-1.94401 -7.60938,-2 L-7.60938,-2.08398 L-7.60938,-2.25195 C-7.55339,-2.25195 -7.53939,-2.23796 -7.56738,-2.20996 C-7.59538,-2.18197 -7.58138,-2.16797 -7.52539,-2.16797 L-7.52539,-2.33594 L-7.52539,-2.48291 L-7.52539,-2.56689 L-7.52539,-2.65088 L-7.52539,-2.73486 L-7.52539,-2.98682 C-7.4694,-3.04281 -7.44141,-3.10579 -7.44141,-3.17578 C-7.44141,-3.24577 -7.42741,-3.32975 -7.39941,-3.42773 C-7.39941,-3.39974 -7.41341,-3.39974 -7.44141,-3.42773 L-7.44141,-3.46973 C-7.37142,-3.46973 -7.33643,-3.49772 -7.33643,-3.55371 L-7.33643,-3.6377 C-7.33643,-3.69368 -7.32243,-3.76367 -7.29443,-3.84766 C-7.26644,-3.93164 -7.22445,-4.00163 -7.16846,-4.05762 L-7.16846,-4.22559 C-7.16846,-4.32357 -7.14046,-4.37256 -7.08447,-4.37256 L-7.08447,-4.45654 C-7.02848,-4.54053 -7.01449,-4.57552 -7.04248,-4.56152 C-7.07048,-4.54753 -7.05648,-4.56852 -7.00049,-4.62451 L-7.00049,-4.7085 L-7.00049,-4.79248 C-7.00049,-4.84847 -6.97249,-4.87646 -6.9165,-4.87646 L-6.9165,-4.96045 C-6.88851,-4.96045 -6.87451,-4.97445 -6.87451,-5.00244 C-6.87451,-5.05843 -6.88851,-5.10742 -6.9165,-5.14941 L-6.70654,-5.35938 C-6.70654,-5.47135 -6.67855,-5.55534 -6.62256,-5.61133 L-6.62256,-5.69531 C-6.62256,-5.63932 -6.55957,-5.66732 -6.43359,-5.7793 C-6.43359,-5.80729 -6.44759,-5.83529 -6.47559,-5.86328 L-6.53857,-5.86328 C-6.46859,-5.86328 -6.43359,-5.89478 -6.43359,-5.95776 C-6.43359,-6.02075 -6.4056,-6.05225 -6.34961,-6.05225 C-6.29362,-6.05225 -6.27962,-6.06624 -6.30762,-6.09424 C-6.33561,-6.12223 -6.32161,-6.16423 -6.26563,-6.22021 L-6.26563,-6.3042 C-6.26563,-6.38818 -6.23763,-6.40218 -6.18164,-6.34619 C-6.18164,-6.40218 -6.16764,-6.44417 -6.13965,-6.47217 C-6.11165,-6.50016 -6.12565,-6.51416 -6.18164,-6.51416 C-6.12565,-6.57015 -6.06966,-6.64014 -6.01367,-6.72412 C-5.95768,-6.80811 -5.90169,-6.8501 -5.8457,-6.8501 L-5.8457,-6.95508 C-5.78971,-6.95508 -5.71973,-7.03906 -5.63574,-7.20703 L-5.53076,-7.33301 L-5.53076,-7.20703 C-5.47477,-7.29102 -5.44678,-7.361 -5.44678,-7.41699 L-5.36279,-7.41699 L-5.27881,-7.50098 L-5.36279,-7.50098 L-5.36279,-7.58496 C-5.3068,-7.52897 -5.27881,-7.55697 -5.27881,-7.66895 C-5.22282,-7.66895 -5.19482,-7.69694 -5.19482,-7.75293 L-5.19482,-7.71094 L-5.19482,-7.66895 L-5.11084,-7.75293 L-5.02686,-7.75293 L-5.11084,-7.85791 L-5.02686,-7.85791 L-4.94287,-7.94189 L-4.94287,-7.98389 C-4.94287,-7.98389 -4.91488,-7.99788 -4.85889,-8.02588 L-4.81689,-8.02588 C-4.7609,-8.02588 -4.73291,-8.05387 -4.73291,-8.10986 L-4.62793,-8.10986 C-4.57194,-8.10986 -4.54395,-8.09587 -4.54395,-8.06787 C-4.54395,-8.03988 -4.54395,-8.05387 -4.54395,-8.10986 C-4.48796,-8.10986 -4.45996,-8.12386 -4.45996,-8.15186 L-4.45996,-8.19385 C-4.40397,-8.19385 -4.34798,-8.20785 -4.29199,-8.23584 C-4.236,-8.26383 -4.18001,-8.24984 -4.12402,-8.19385 L-4.12402,-8.31982 C-4.04004,-8.26383 -3.95256,-8.22884 -3.86157,-8.21484 C-3.77059,-8.20085 -3.6971,-8.16585 -3.64111,-8.10986 L-3.64111,-8.02588 C-3.61312,-8.05387 -3.58512,-8.06787 -3.55713,-8.06787 L-3.55713,-8.02588 L-3.55713,-8.10986 C-3.50114,-8.10986 -3.41715,-8.05387 -3.30518,-7.94189 C-3.33317,-7.96989 -3.34717,-7.99788 -3.34717,-8.02588 L-3.30518,-8.02588 C-3.30518,-7.96989 -3.27718,-7.94189 -3.22119,-7.94189 L-3.22119,-7.85791 C-3.1652,-7.85791 -3.13721,-7.87191 -3.13721,-7.8999 C-3.13721,-7.9279 -3.13721,-7.9139 -3.13721,-7.85791 C-3.08122,-7.78792 -3.03923,-7.75293 -3.01123,-7.75293 L-2.96924,-7.75293 L-2.86426,-7.66895 C-2.78027,-7.58496 -2.73828,-7.54297 -2.73828,-7.54297 L-2.73828,-7.50098 C-2.6543,-7.44499 -2.56331,-7.361 -2.46533,-7.24902 C-2.36735,-7.13704 -2.29036,-7.03906 -2.23438,-6.95508 C-2.23438,-6.88509 -2.23438,-6.86759 -2.23438,-6.90259 C-2.23438,-6.93758 -2.20638,-6.95508 -2.15039,-6.95508 C-2.20638,-6.95508 -2.22038,-6.93758 -2.19238,-6.90259 C-2.16439,-6.86759 -2.17839,-6.8501 -2.23438,-6.8501 C-2.17839,-6.79411 -2.1224,-6.76611 -2.06641,-6.76611 L-2.06641,-6.72412 C-2.06641,-6.69613 -2.03141,-6.68213 -1.96143,-6.68213 L-2.06641,-6.68213 L-1.96143,-6.59814 C-1.96143,-6.54215 -1.99642,-6.54215 -2.06641,-6.59814 C-2.1224,-6.59814 -2.15039,-6.59814 -2.15039,-6.59814 L-2.06641,-6.59814 C-2.06641,-6.54215 -2.0944,-6.52816 -2.15039,-6.55615 C-2.20638,-6.58415 -2.20638,-6.57015 -2.15039,-6.51416 L-2.06641,-6.51416 C-2.03841,-6.48617 -2.00342,-6.47217 -1.96143,-6.47217 C-1.90544,-6.41618 -1.87744,-6.37419 -1.87744,-6.34619 C-1.87744,-6.40218 -1.86344,-6.43018 -1.83545,-6.43018 L-1.75146,-6.43018 C-1.75146,-6.37419 -1.76546,-6.36019 -1.79346,-6.38818 C-1.82145,-6.41618 -1.80745,-6.40218 -1.75146,-6.34619 C-1.69548,-6.34619 -1.66748,-6.3182 -1.66748,-6.26221 L-1.66748,-6.22021 C-1.66748,-6.16423 -1.68148,-6.15023 -1.70947,-6.17822 C-1.73747,-6.20622 -1.72347,-6.19222 -1.66748,-6.13623 C-1.66748,-6.10824 -1.65348,-6.09424 -1.62549,-6.09424 C-1.62549,-6.09424 -1.61149,-6.10824 -1.5835,-6.13623 C-1.5835,-6.08024 -1.61149,-6.05225 -1.66748,-6.05225 C-1.5555,-6.05225 -1.52751,-6.01725 -1.5835,-5.94727 L-1.49951,-5.94727 L-1.49951,-5.86328 C-1.49951,-5.80729 -1.48551,-5.7793 -1.45752,-5.7793 C-1.42952,-5.7793 -1.41553,-5.7513 -1.41553,-5.69531 L-1.41553,-5.7793 C-1.41553,-5.72331 -1.40153,-5.69531 -1.37354,-5.69531 L-1.33154,-5.69531 L-1.33154,-5.61133 L-1.24756,-5.52734 L-1.28955,-5.52734 C-1.28955,-5.52734 -1.27555,-5.49935 -1.24756,-5.44336 L-1.33154,-5.52734 C-1.33154,-5.47135 -1.30355,-5.41536 -1.24756,-5.35938 L-1.24756,-5.27539 C-1.24756,-5.2474 -1.21956,-5.2054 -1.16357,-5.14941 C-1.09359,-5.14941 -1.05859,-5.13192 -1.05859,-5.09692 C-1.05859,-5.06193 -1.05859,-5.07943 -1.05859,-5.14941 L-1.05859,-5.04443 L-1.05859,-4.87646 C-1.12858,-4.87646 -1.14608,-4.86247 -1.11108,-4.83447 C-1.07609,-4.80648 -1.09359,-4.82048 -1.16357,-4.87646 L-1.05859,-4.79248 C-1.05859,-4.84847 -1.0446,-4.84847 -1.0166,-4.79248 C-0.988607,-4.73649 -0.946615,-4.73649 -0.890625,-4.79248 C-0.890625,-4.7085 -0.904622,-4.65951 -0.932617,-4.64551 C-0.960612,-4.63151 -0.946615,-4.59652 -0.890625,-4.54053 L-0.890625,-4.45654 C-0.890625,-4.40055 -0.869629,-4.35856 -0.827637,-4.33057 C-0.785645,-4.30257 -0.764648,-4.31657 -0.764648,-4.37256 C-0.708659,-4.31657 -0.694661,-4.27808 -0.722656,-4.25708 C-0.750651,-4.23608 -0.736654,-4.22559 -0.680664,-4.22559 C-0.624674,-4.1696 -0.59668,-4.1556 -0.59668,-4.18359 C-0.59668,-4.21159 -0.59668,-4.19759 -0.59668,-4.1416 L-0.59668,-4.05762 C-0.624674,-4.08561 -0.638672,-4.11361 -0.638672,-4.1416 C-0.666667,-4.1696 -0.680664,-4.1696 -0.680664,-4.1416 C-0.680664,-4.11361 -0.652669,-4.07161 -0.59668,-4.01563 C-0.652669,-3.95964 -0.652669,-3.91764 -0.59668,-3.88965 C-0.568685,-3.86165 -0.554688,-3.84066 -0.554688,-3.82666 C-0.554688,-3.81266 -0.54069,-3.79167 -0.512695,-3.76367 C-0.54069,-3.76367 -0.554688,-3.77067 -0.554688,-3.78467 C-0.554688,-3.79867 -0.568685,-3.80566 -0.59668,-3.80566 L-0.59668,-3.84766 C-0.59668,-3.84766 -0.624674,-3.86165 -0.680664,-3.88965 C-0.652669,-3.86165 -0.638672,-3.83366 -0.638672,-3.80566 L-0.680664,-3.80566 C-0.680664,-3.74967 -0.652669,-3.72168 -0.59668,-3.72168 L-0.59668,-3.80566 C-0.59668,-3.69368 -0.582682,-3.6237 -0.554688,-3.5957 C-0.554688,-3.56771 -0.54069,-3.55371 -0.512695,-3.55371 C-0.456706,-3.44173 -0.428711,-3.35425 -0.428711,-3.29126 C-0.428711,-3.22827 -0.400716,-3.15479 -0.344727,-3.0708 L-0.344727,-2.98682 L-0.344727,-2.90283 C-0.344727,-2.84684 -0.330729,-2.80485 -0.302734,-2.77686 C-0.27474,-2.74886 -0.260742,-2.70687 -0.260742,-2.65088 C-0.260742,-2.56689 -0.243245,-2.48641 -0.208252,-2.40942 C-0.173258,-2.33244 -0.127767,-2.25195 -0.0717773,-2.16797 L-0.11377,-2.16797 C-0.141764,-2.16797 -0.155762,-2.13997 -0.155762,-2.08398 C-0.0997721,-2.02799 -0.0717773,-2.02799 -0.0717773,-2.08398 C-0.0717773,-2.13997 -0.0717773,-2.13997 -0.0717773,-2.08398 C-0.0717773,-2.02799 -0.0717773,-1.97201 -0.0717773,-1.91602 C-0.0717773,-1.86003 -0.0437826,-1.83203 0.012207,-1.83203 L-0.0717773,-1.83203 C-0.0717773,-1.88802 -0.0857747,-1.91602 -0.11377,-1.91602 C-0.141764,-1.91602 -0.155762,-1.94401 -0.155762,-2 L-0.260742,-2.08398 C-0.260742,-2.13997 -0.288737,-2.19596 -0.344727,-2.25195 C-0.344727,-2.36393 -0.358724,-2.45841 -0.386719,-2.5354 C-0.414714,-2.61239 -0.428711,-2.67887 -0.428711,-2.73486 L-0.428711,-2.81885 C-0.484701,-2.81885 -0.512695,-2.84684 -0.512695,-2.90283 C-0.512695,-2.95882 -0.512695,-3.01481 -0.512695,-3.0708 C-0.624674,-3.30876 -0.680664,-3.46973 -0.680664,-3.55371 C-0.736654,-3.69368 -0.799642,-3.81266 -0.869629,-3.91064 C-0.939616,-4.00863 -1.0026,-4.1626 -1.05859,-4.37256 L-0.974609,-4.22559 C-1.0026,-4.29557 -1.0166,-4.33057 -1.0166,-4.33057 C-1.0166,-4.41455 -1.06559,-4.45654 -1.16357,-4.45654 C-1.16357,-4.56852 -1.21956,-4.6805 -1.33154,-4.79248 C-1.38753,-4.84847 -1.41553,-4.90446 -1.41553,-4.96045 C-1.41553,-5.01644 -1.44352,-5.07943 -1.49951,-5.14941 L-1.49951,-5.2334 C-1.5555,-5.31738 -1.61149,-5.38737 -1.66748,-5.44336 C-1.66748,-5.49935 -1.68148,-5.55534 -1.70947,-5.61133 C-1.73747,-5.66732 -1.75146,-5.72331 -1.75146,-5.7793 C-1.93343,-5.91927 -2.1224,-6.16423 -2.31836,-6.51416 C-2.45833,-6.65413 -2.57031,-6.78361 -2.6543,-6.90259 C-2.73828,-7.02157 -2.84326,-7.12305 -2.96924,-7.20703 L-2.86426,-7.20703 C-2.96224,-7.29102 -3.01123,-7.33301 -3.01123,-7.33301 L-3.05322,-7.33301 C-3.1652,-7.33301 -3.22119,-7.389 -3.22119,-7.50098 L-3.30518,-7.50098 C-3.41715,-7.61296 -3.50114,-7.66895 -3.55713,-7.66895 L-3.55713,-7.75293 C-3.61312,-7.75293 -3.65511,-7.77043 -3.68311,-7.80542 C-3.7111,-7.84041 -3.7251,-7.82292 -3.7251,-7.75293 C-3.79508,-7.82292 -3.86507,-7.84041 -3.93506,-7.80542 C-4.00505,-7.77043 -4.06803,-7.78792 -4.12402,-7.85791 L-4.16602,-7.85791 C-4.19401,-7.85791 -4.20801,-7.82292 -4.20801,-7.75293 C-4.264,-7.75293 -4.30599,-7.77043 -4.33398,-7.80542 C-4.36198,-7.84041 -4.40397,-7.82292 -4.45996,-7.75293 L-4.54395,-7.75293 C-4.62793,-7.69694 -4.71541,-7.64795 -4.8064,-7.60596 C-4.89738,-7.56396 -4.97087,-7.50098 -5.02686,-7.41699 C-5.16683,-7.22103 -5.29281,-7.05656 -5.40479,-6.92358 C-5.51676,-6.79061 -5.62174,-6.65413 -5.71973,-6.51416 C-5.71973,-6.43018 -5.75472,-6.37419 -5.82471,-6.34619 C-5.89469,-6.3182 -5.92969,-6.24821 -5.92969,-6.13623 C-5.98568,-6.13623 -6.01367,-6.12223 -6.01367,-6.09424 C-6.01367,-6.06624 -6.01367,-6.08024 -6.01367,-6.13623 C-6.01367,-6.03825 -6.04167,-5.96826 -6.09766,-5.92627 C-6.15365,-5.88428 -6.18164,-5.83529 -6.18164,-5.7793 C-6.26563,-5.61133 -6.33561,-5.48535 -6.3916,-5.40137 C-6.3916,-5.42936 -6.3776,-5.44336 -6.34961,-5.44336 C-6.4056,-5.44336 -6.43359,-5.40137 -6.43359,-5.31738 L-6.43359,-5.2334 C-6.53158,-5.07943 -6.60856,-4.91146 -6.66455,-4.72949 C-6.72054,-4.54753 -6.80452,-4.35156 -6.9165,-4.1416 C-6.97249,-4.05762 -6.98649,-4.04362 -6.9585,-4.09961 C-6.9305,-4.1556 -6.9445,-4.11361 -7.00049,-3.97363 C-7.00049,-3.91764 -7.01449,-3.88965 -7.04248,-3.88965 C-7.07048,-3.88965 -7.08447,-3.86165 -7.08447,-3.80566 C-7.02848,-3.80566 -7.01449,-3.80566 -7.04248,-3.80566 C-7.07048,-3.80566 -7.05648,-3.77767 -7.00049,-3.72168 C-7.11247,-3.6097 -7.16846,-3.52572 -7.16846,-3.46973 C-7.16846,-3.34375 -7.18245,-3.24577 -7.21045,-3.17578 C-7.23844,-3.10579 -7.22445,-3.04281 -7.16846,-2.98682 C-7.32243,-2.5249 -7.41341,-2.08748 -7.44141,-1.67456 C-7.4694,-1.26164 -7.52539,-0.824219 -7.60938,-0.362305 C-7.66536,0.0296224 -7.70036,0.442546 -7.71436,0.876465 C-7.72835,1.31038 -7.76335,1.7583 -7.81934,2.22021 C-7.84733,2.3042 -7.86833,2.36019 -7.88232,2.38818 C-7.89632,2.41618 -7.90332,2.48617 -7.90332,2.59814 C-7.84733,2.65413 -7.83333,2.69613 -7.86133,2.72412 C-7.88932,2.75212 -7.87533,2.79411 -7.81934,2.8501 C-7.87533,3.00407 -7.90332,3.15804 -7.90332,3.31201 C-7.90332,3.46598 -7.90332,3.61296 -7.90332,3.75293 L-7.90332,3.85791 C-7.90332,4.30583 -7.91732,4.73275 -7.94531,5.13867 C-7.97331,5.5446 -7.9873,5.94352 -7.9873,6.33545 L-7.9873,7.07031 C-8.04329,7.39225 -8.07129,7.6967 -8.07129,7.98364 C-8.07129,8.27059 -8.07129,8.59603 -8.07129,8.95996 M-0.59668,-1.62207 C-0.59668,-1.59408 -0.568685,-1.58008 -0.512695,-1.58008 L-0.59668,-1.58008 L-0.59668,-1.66406 L-0.59668,-1.62207 M6.12207,2.55615 C6.09408,2.55615 6.08008,2.52816 6.08008,2.47217 C6.08008,2.52816 6.09408,2.55615 6.12207,2.55615 M-1.16357,-2.81885 L-1.16357,-2.90283 C-1.16357,-2.90283 -1.14258,-2.87484 -1.10059,-2.81885 L-1.16357,-2.81885 M1.29297,-2.48291 C1.34896,-2.48291 1.37695,-2.49691 1.37695,-2.5249 L1.37695,-2.56689 L1.46094,-2.56689 C1.40495,-2.5109 1.37695,-2.43392 1.37695,-2.33594 C1.37695,-2.39193 1.36296,-2.41292 1.33496,-2.39893 C1.30697,-2.38493 1.29297,-2.41292 1.29297,-2.48291 M1.50293,-2.65088 C1.50293,-2.65088 1.51693,-2.67887 1.54492,-2.73486 L1.6499,-2.73486 L1.54492,-2.65088 L1.46094,-2.65088 L1.50293,-2.65088 M2.27979,-3.46973 L2.27979,-3.38574 C2.27979,-3.34375 2.25179,-3.32275 2.1958,-3.32275 L2.27979,-3.46973 M4.8623,-3.0708 L4.77832,-3.0708 C4.83431,-3.0708 4.8623,-3.0568 4.8623,-3.02881 C4.8623,-3.00081 4.8623,-3.01481 4.8623,-3.0708 M1.6499,-2.86084 L1.6499,-2.90283 C1.6499,-2.87484 1.6779,-2.87484 1.73389,-2.90283 C1.6779,-2.84684 1.6639,-2.81885 1.69189,-2.81885 C1.71989,-2.81885 1.70589,-2.81885 1.6499,-2.81885 L1.6499,-2.86084 M1.37695,-2.65088 C1.43294,-2.65088 1.43294,-2.62288 1.37695,-2.56689 L1.37695,-2.65088 M-4.73291,-3.46973 C-4.73291,-3.52572 -4.74691,-3.55371 -4.7749,-3.55371 C-4.8029,-3.55371 -4.7889,-3.55371 -4.73291,-3.55371 L-4.73291,-3.46973 M-5.19482,-2.81885 C-5.13883,-2.81885 -5.11084,-2.83285 -5.11084,-2.86084 C-5.11084,-2.88883 -5.11084,-2.87484 -5.11084,-2.81885 L-5.19482,-2.81885 M0.74707,-1.4751 C0.677083,-1.4751 0.64209,-1.43311 0.64209,-1.34912 L0.64209,-1.4751 L0.64209,-1.74805 C0.712077,-1.69206 0.74707,-1.65007 0.74707,-1.62207 L0.74707,-1.58008 L0.74707,-1.66406 L0.74707,-1.74805 L0.74707,-1.91602 C0.80306,-1.97201 0.831055,-2.014 0.831055,-2.04199 C0.831055,-2.06999 0.859049,-2.11198 0.915039,-2.16797 C0.915039,-2.22396 0.929036,-2.27295 0.957031,-2.31494 C0.985026,-2.35693 0.999023,-2.41292 0.999023,-2.48291 C1.05501,-2.5389 1.09001,-2.58089 1.104,-2.60889 C1.118,-2.63688 1.15299,-2.65088 1.20898,-2.65088 C1.32096,-2.87484 1.40495,-3.01481 1.46094,-3.0708 L1.54492,-3.0708 C1.51693,-3.0708 1.50293,-3.0848 1.50293,-3.11279 L1.54492,-3.15479 C1.61491,-3.21077 1.6499,-3.26326 1.6499,-3.31226 C1.6499,-3.36125 1.6779,-3.41374 1.73389,-3.46973 C1.73389,-3.52572 1.74788,-3.55371 1.77588,-3.55371 C1.80387,-3.55371 1.84587,-3.58171 1.90186,-3.6377 C1.90186,-3.6097 1.91585,-3.5957 1.94385,-3.5957 C1.94385,-3.5957 1.95785,-3.6097 1.98584,-3.6377 L1.98584,-3.67969 L2.02783,-3.67969 C2.02783,-3.67969 2.05583,-3.69368 2.11182,-3.72168 C2.11182,-3.77767 2.16781,-3.80566 2.27979,-3.80566 C2.33577,-3.88965 2.40226,-3.95964 2.47925,-4.01563 C2.55623,-4.07161 2.63672,-4.1416 2.7207,-4.22559 L2.7207,-4.1416 C2.80469,-4.26758 2.90267,-4.33757 3.01465,-4.35156 C3.12663,-4.36556 3.21061,-4.40055 3.2666,-4.45654 L3.2666,-4.37256 C3.32259,-4.37256 3.36808,-4.38656 3.40308,-4.41455 C3.43807,-4.44255 3.42057,-4.45654 3.35059,-4.45654 C3.42057,-4.45654 3.46956,-4.47054 3.49756,-4.49854 C3.52555,-4.52653 3.53955,-4.51253 3.53955,-4.45654 L3.62354,-4.45654 L3.87549,-4.45654 L3.87549,-4.37256 C3.90348,-4.34456 3.93148,-4.33057 3.95947,-4.33057 C3.95947,-4.33057 3.95947,-4.34456 3.95947,-4.37256 C4.01546,-4.31657 4.08195,-4.27808 4.15894,-4.25708 C4.23592,-4.23608 4.30241,-4.19759 4.3584,-4.1416 C4.47038,-4.02962 4.55436,-3.97363 4.61035,-3.97363 C4.61035,-3.91764 4.59635,-3.88965 4.56836,-3.88965 C4.54036,-3.88965 4.55436,-3.88965 4.61035,-3.88965 C4.69434,-3.83366 4.74333,-3.77767 4.75732,-3.72168 C4.77132,-3.66569 4.80632,-3.6097 4.8623,-3.55371 C5.12826,-3.20378 5.28923,-2.93083 5.34521,-2.73486 C5.4012,-2.67887 5.4292,-2.62288 5.4292,-2.56689 C5.4292,-2.5109 5.45719,-2.48291 5.51318,-2.48291 L5.51318,-2.33594 L5.51318,-2.25195 C5.51318,-2.19596 5.54118,-2.13997 5.59717,-2.08398 C5.59717,-2.02799 5.61117,-1.979 5.63916,-1.93701 C5.66715,-1.89502 5.68115,-1.83203 5.68115,-1.74805 L5.68115,-1.83203 C5.68115,-1.77604 5.69515,-1.74805 5.72314,-1.74805 C5.75114,-1.74805 5.73714,-1.72005 5.68115,-1.66406 C5.73714,-1.51009 5.77913,-1.37712 5.80713,-1.26514 C5.83512,-1.15316 5.87712,-1.01318 5.93311,-0.845215 C5.93311,-0.76123 5.91911,-0.733236 5.89111,-0.76123 C5.86312,-0.789225 5.87712,-0.76123 5.93311,-0.677246 L5.89111,-0.614258 C5.89111,-0.586263 5.90511,-0.572266 5.93311,-0.572266 L5.93311,-0.530273 L5.93311,-0.27832 C5.9891,-0.222331 6.02759,-0.166341 6.04858,-0.110352 C6.06958,-0.054362 6.10807,0.0016276 6.16406,0.0576172 C6.22005,0.379557 6.26204,0.684001 6.29004,0.970947 C6.31803,1.25789 6.33203,1.55534 6.33203,1.86328 L6.33203,3.66895 C6.27604,3.79492 6.27604,3.9139 6.33203,4.02588 C6.27604,4.02588 6.24805,4.01188 6.24805,3.98389 C6.24805,3.95589 6.24805,3.96989 6.24805,4.02588 C6.30404,4.02588 6.31803,4.03988 6.29004,4.06787 C6.26204,4.09587 6.27604,4.10986 6.33203,4.10986 C6.33203,4.41781 6.30404,4.63477 6.24805,4.76074 L6.24805,4.84473 C6.24805,5.15267 6.23405,5.44312 6.20605,5.71606 C6.17806,5.98901 6.13607,6.27246 6.08008,6.56641 L6.08008,7.07031 C5.9541,7.42025 5.84912,7.80518 5.76514,8.2251 C5.73714,8.2251 5.72314,8.2111 5.72314,8.18311 C5.69515,8.15511 5.68115,8.08512 5.68115,7.97314 C5.68115,7.88916 5.69515,7.78418 5.72314,7.6582 C5.75114,7.53223 5.76514,7.39225 5.76514,7.23828 C5.76514,7.18229 5.77913,7.16829 5.80713,7.19629 C5.83512,7.22428 5.84912,7.21029 5.84912,7.1543 C5.79313,7.01432 5.77913,6.86385 5.80713,6.70288 C5.83512,6.54191 5.87712,6.39144 5.93311,6.25146 L5.93311,6.0835 L5.93311,5.91553 C5.93311,5.85954 5.9471,5.80355 5.9751,5.74756 C6.00309,5.69157 6.00309,5.62858 5.9751,5.55859 L6.08008,5.55859 C6.01009,5.41862 5.99259,5.28564 6.02759,5.15967 C6.06258,5.03369 6.08008,4.92871 6.08008,4.84473 L6.08008,4.65576 C6.03809,4.65576 6.01709,4.64176 6.01709,4.61377 C6.01709,4.55778 6.03809,4.51579 6.08008,4.48779 C6.03809,4.48779 6.01709,4.4598 6.01709,4.40381 L6.01709,4.36182 L6.08008,4.36182 L6.08008,4.27783 C6.03809,4.27783 6.01709,4.26383 6.01709,4.23584 L6.08008,4.19385 L6.08008,4.10986 L6.08008,4.02588 L6.08008,3.94189 L6.08008,3.03906 L6.16406,3.03906 C6.16406,2.91309 6.13607,2.8501 6.08008,2.8501 L6.16406,2.8501 C6.16406,2.79411 6.15007,2.76611 6.12207,2.76611 C6.09408,2.76611 6.08008,2.73812 6.08008,2.68213 C6.13607,2.68213 6.16406,2.69613 6.16406,2.72412 C6.16406,2.75212 6.16406,2.73812 6.16406,2.68213 C6.13607,2.68213 6.12207,2.64014 6.12207,2.55615 C6.12207,2.58415 6.13607,2.59814 6.16406,2.59814 C6.10807,2.54215 6.09408,2.49316 6.12207,2.45117 C6.15007,2.40918 6.13607,2.38818 6.08008,2.38818 L6.16406,2.38818 C6.16406,2.33219 6.15007,2.3182 6.12207,2.34619 C6.09408,2.37419 6.08008,2.36019 6.08008,2.3042 L6.16406,2.3042 C6.10807,2.24821 6.08008,2.16423 6.08008,2.05225 L6.08008,1.7793 L6.08008,1.69531 L6.08008,1.61133 C6.08008,1.47135 6.03109,1.37337 5.93311,1.31738 C5.93311,1.34538 5.9611,1.35938 6.01709,1.35938 L6.08008,1.35938 L6.08008,1.31738 L6.08008,1.2334 C6.08008,1.17741 6.05558,1.13192 6.00659,1.09692 C5.9576,1.06193 5.93311,1.01644 5.93311,0.960449 C5.93311,0.988444 5.9471,1.00244 5.9751,1.00244 C6.00309,1.00244 6.03809,0.988444 6.08008,0.960449 L5.93311,0.876465 L5.93311,0.834473 L5.93311,0.79248 C5.90511,0.79248 5.89111,0.778483 5.89111,0.750488 C5.89111,0.750488 5.90511,0.736491 5.93311,0.708496 L5.93311,0.666504 L5.93311,0.498535 L5.93311,0.456543 C5.93311,0.456543 5.90511,0.47054 5.84912,0.498535 L5.84912,0.414551 C5.84912,0.288574 5.82113,0.197591 5.76514,0.141602 L5.84912,0.141602 C5.84912,0.085612 5.83512,0.0436198 5.80713,0.015625 C5.77913,-0.0123698 5.76514,-0.054362 5.76514,-0.110352 L5.76514,-0.194336 L5.76514,-0.27832 C5.73714,-0.306315 5.72314,-0.348307 5.72314,-0.404297 C5.69515,-0.432292 5.68115,-0.488281 5.68115,-0.572266 L5.68115,-0.677246 L5.68115,-0.76123 C5.68115,-0.81722 5.66715,-0.845215 5.63916,-0.845215 C5.61117,-0.845215 5.62516,-0.845215 5.68115,-0.845215 L5.68115,-0.929199 L5.59717,-0.929199 L5.59717,-1.01318 C5.56917,-1.01318 5.55518,-1.02718 5.55518,-1.05518 C5.55518,-1.05518 5.56917,-1.06917 5.59717,-1.09717 L5.59717,-1.18115 C5.54118,-1.18115 5.52718,-1.19515 5.55518,-1.22314 C5.58317,-1.25114 5.56917,-1.26514 5.51318,-1.26514 L5.51318,-1.4751 C5.51318,-1.54508 5.49919,-1.58008 5.47119,-1.58008 C5.4432,-1.58008 5.4292,-1.60807 5.4292,-1.66406 L5.4292,-1.83203 L5.34521,-1.83203 C5.4012,-1.88802 5.4152,-1.91602 5.38721,-1.91602 C5.35921,-1.91602 5.34521,-1.94401 5.34521,-2 C5.4012,-2.05599 5.4152,-2.08398 5.38721,-2.08398 C5.35921,-2.08398 5.34521,-2.11198 5.34521,-2.16797 L5.26123,-2.08398 L5.26123,-2.16797 C5.26123,-2.22396 5.23324,-2.25195 5.17725,-2.25195 C5.17725,-2.30794 5.15975,-2.37443 5.12476,-2.45142 C5.08976,-2.5284 5.07227,-2.59489 5.07227,-2.65088 L5.07227,-2.69287 L5.07227,-2.73486 C5.07227,-2.79085 5.05127,-2.80485 5.00928,-2.77686 C4.96729,-2.74886 4.94629,-2.76286 4.94629,-2.81885 L4.8623,-2.90283 L4.94629,-2.98682 L4.8623,-2.98682 L4.8623,-3.0708 L4.77832,-3.15479 C4.75033,-3.18278 4.72233,-3.19678 4.69434,-3.19678 L4.69434,-3.15479 L4.69434,-3.23877 L4.69434,-3.32275 L4.61035,-3.32275 C4.55436,-3.32275 4.52637,-3.34375 4.52637,-3.38574 L4.52637,-3.46973 C4.52637,-3.52572 4.49837,-3.55371 4.44238,-3.55371 C4.41439,-3.58171 4.40039,-3.6237 4.40039,-3.67969 C4.40039,-3.70768 4.41439,-3.72168 4.44238,-3.72168 C4.38639,-3.72168 4.3584,-3.69368 4.3584,-3.6377 C4.30241,-3.69368 4.25692,-3.72168 4.22192,-3.72168 C4.18693,-3.72168 4.16943,-3.74967 4.16943,-3.80566 C4.11344,-3.86165 4.06445,-3.88965 4.02246,-3.88965 C3.98047,-3.88965 3.93148,-3.91764 3.87549,-3.97363 C3.76351,-3.97363 3.70752,-4.00163 3.70752,-4.05762 L3.70752,-3.97363 C3.70752,-4.02962 3.67952,-4.05762 3.62354,-4.05762 L3.62354,-3.97363 L3.53955,-4.05762 L3.53955,-4.01563 C3.53955,-3.98763 3.51156,-3.97363 3.45557,-3.97363 L3.45557,-4.05762 L3.41357,-4.01563 C3.41357,-3.98763 3.42757,-3.97363 3.45557,-3.97363 C3.38558,-3.97363 3.32259,-4.00163 3.2666,-4.05762 C3.21061,-3.97363 3.16162,-3.92464 3.11963,-3.91064 C3.07764,-3.89665 3.00065,-3.86165 2.88867,-3.80566 C2.88867,-3.86165 2.87467,-3.88965 2.84668,-3.88965 C2.81868,-3.86165 2.80469,-3.83366 2.80469,-3.80566 L2.7627,-3.80566 C2.7347,-3.80566 2.7207,-3.77767 2.7207,-3.72168 L2.7207,-3.80566 C2.66471,-3.80566 2.66471,-3.81966 2.7207,-3.84766 C2.77669,-3.87565 2.77669,-3.88965 2.7207,-3.88965 C2.69271,-3.94564 2.69271,-3.97363 2.7207,-3.97363 C2.66471,-3.97363 2.63672,-3.95964 2.63672,-3.93164 C2.63672,-3.90365 2.66471,-3.88965 2.7207,-3.88965 C2.66471,-3.83366 2.65072,-3.79167 2.67871,-3.76367 C2.70671,-3.73568 2.69271,-3.72168 2.63672,-3.72168 L2.63672,-3.80566 L2.63672,-3.76367 C2.63672,-3.73568 2.60872,-3.72168 2.55273,-3.72168 C2.60872,-3.72168 2.60872,-3.69368 2.55273,-3.6377 C2.55273,-3.58171 2.53524,-3.56771 2.50024,-3.5957 C2.46525,-3.6237 2.44775,-3.6097 2.44775,-3.55371 L2.44775,-3.6377 L2.40576,-3.5957 C2.40576,-3.56771 2.41976,-3.55371 2.44775,-3.55371 C2.39176,-3.55371 2.36377,-3.53971 2.36377,-3.51172 C2.36377,-3.48372 2.36377,-3.49772 2.36377,-3.55371 L2.36377,-3.46973 C2.36377,-3.52572 2.33577,-3.55371 2.27979,-3.55371 C2.27979,-3.49772 2.25179,-3.46973 2.1958,-3.46973 L2.1958,-3.32275 L2.1958,-3.23877 C2.13981,-3.23877 2.11182,-3.25277 2.11182,-3.28076 C2.11182,-3.30876 2.11182,-3.29476 2.11182,-3.23877 L2.11182,-3.15479 L1.98584,-3.15479 C1.92985,-3.15479 1.90186,-3.14079 1.90186,-3.11279 C1.90186,-3.0848 1.92985,-3.0988 1.98584,-3.15479 C1.98584,-3.0988 1.97184,-3.0708 1.94385,-3.0708 C1.91585,-3.0708 1.90186,-3.0988 1.90186,-3.15479 C1.90186,-3.0988 1.91585,-3.0708 1.94385,-3.0708 C1.97184,-3.0708 1.95785,-3.0708 1.90186,-3.0708 L1.81787,-3.0708 L1.81787,-3.15479 C1.76188,-3.15479 1.73389,-3.12679 1.73389,-3.0708 C1.78988,-3.0708 1.80387,-3.0568 1.77588,-3.02881 C1.74788,-3.00081 1.76188,-2.98682 1.81787,-2.98682 C1.76188,-2.93083 1.71989,-2.92383 1.69189,-2.96582 C1.6639,-3.00781 1.6499,-2.98682 1.6499,-2.90283 L1.6499,-2.94482 C1.6499,-2.94482 1.61491,-2.93083 1.54492,-2.90283 L1.54492,-2.81885 C1.54492,-2.84684 1.56592,-2.86084 1.60791,-2.86084 C1.60791,-2.86084 1.62191,-2.84684 1.6499,-2.81885 C1.57992,-2.76286 1.54492,-2.74886 1.54492,-2.77686 C1.54492,-2.80485 1.54492,-2.79085 1.54492,-2.73486 C1.51693,-2.73486 1.48893,-2.72087 1.46094,-2.69287 L1.46094,-2.65088 L1.41895,-2.69287 C1.39095,-2.69287 1.37695,-2.67887 1.37695,-2.65088 L1.29297,-2.73486 L1.29297,-2.65088 L1.37695,-2.65088 C1.32096,-2.59489 1.29297,-2.5529 1.29297,-2.5249 L1.29297,-2.48291 C1.29297,-2.44092 1.27897,-2.41992 1.25098,-2.41992 C1.19499,-2.30794 1.15299,-2.25195 1.125,-2.25195 C1.15299,-2.25195 1.16699,-2.23796 1.16699,-2.20996 C1.16699,-2.18197 1.15299,-2.16797 1.125,-2.16797 C1.09701,-2.13997 1.06901,-2.12598 1.04102,-2.12598 L0.999023,-2.12598 L0.999023,-2.16797 L0.999023,-1.91602 C0.943034,-1.91602 0.915039,-1.88802 0.915039,-1.83203 C0.915039,-1.77604 0.887044,-1.74805 0.831055,-1.74805 L0.831055,-1.66406 C0.80306,-1.66406 0.789063,-1.65007 0.789063,-1.62207 C0.761068,-1.59408 0.74707,-1.54508 0.74707,-1.4751 M-0.260742,-3.15479 L-0.302734,-3.15479 L-0.344727,-3.15479 L-0.260742,-3.15479 M-0.260742,-3.0708 L-0.344727,-3.0708 C-0.344727,-3.0708 -0.330729,-3.0988 -0.302734,-3.15479 L-0.260742,-3.0708 M-0.848633,-4.54053 C-0.876628,-4.54053 -0.890625,-4.56852 -0.890625,-4.62451 L-0.764648,-4.54053 L-0.848633,-4.54053 M1.20898,-2.16797 C1.20898,-2.13997 1.19499,-2.11198 1.16699,-2.08398 L1.125,-2.08398 L1.125,-2.16797 L1.20898,-2.16797 M-0.764648,-2.33594 C-0.792643,-2.33594 -0.806641,-2.36393 -0.806641,-2.41992 L-0.806641,-2.48291 L-0.764648,-2.48291 L-0.764648,-2.33594"/>
</g>

<g fill="#1f78b4" fill-opacity="1" stroke="none" transform="matrix(1,0,0,1,0,0)"
font-family="MS Shell Dlg 2" font-size="7.8" font-weight="400" font-style="normal" 
>
</g>
</g>
</svg>
