<svg xmlns="http://www.w3.org/2000/svg" version="1.2" viewBox="0 0 42.52 42.52" height="56.693" width="56.693">
   <g stroke-linejoin="bevel" stroke-linecap="square" fill-rule="evenodd" stroke="none" fill="none" font-weight="400"
      font-size="7.8" font-family="'MS Shell Dlg 2'">
      <path
         d="M42.52 21.26C42.52 33 33 42.52 21.26 42.52 9.518 42.52 0 33 0 21.26 0 9.518 9.518 0 21.26 0 33 0 42.52 9.518 42.52 21.26"
         vector-effect="non-scaling-stroke" fill="#1f78b4" />
      <path
         d="M26.857 26.818c1.008 0 1.95.074 2.824.22a15.94 15.94 0 012.278.536c.644.21 1.151.437 1.522.682.371.245.557.487.557.725v2.351c0 .406-.364.795-1.092 1.166-.728.37-1.743.675-3.045.913-.937.224-2.068.399-3.39.525a75.308 75.308 0 01-4.777.273H20.916c-1.863-.056-3.444-.147-4.746-.273-1.302-.126-2.415-.301-3.338-.525-1.316-.238-2.352-.542-3.108-.913-.756-.371-1.134-.76-1.134-1.166v-2.351c0-.462.651-.938 1.953-1.428s3.17-.735 5.606-.735v.987a1.438 1.438 0 00-.808-.105 10.11 10.11 0 00-.977.2c-.364.09-.759.164-1.186.22-.427.056-.9.042-1.417-.042-.196.084-.266.154-.21.21a.976.976 0 00.189.147c.07.042.063.09-.021.147-.084.056-.371.098-.861.126.924.378 2.25.717 3.979 1.018 1.728.301 3.902.452 6.519.452 2.604 0 4.766-.15 6.488-.452 1.721-.3 3.044-.64 3.968-1.018-.672-.028-1.043-.07-1.113-.126-.07-.056-.077-.12-.02-.19.055-.07.076-.14.062-.21-.014-.07-.294-.132-.84-.188-.112-.042-.304-.07-.577-.084a17.735 17.735 0 00-.903-.021c-.329 0-.637-.007-.924-.021a4.746 4.746 0 01-.64-.063v-.987m-3.611-8.335c.084.028.098.07.042.126a4.25 4.25 0 01-.231.21 5.027 5.027 0 00-.284.262c-.09.091-.136.15-.136.179 0 .14-.123.266-.368.378-.245.112-.549.168-.913.168-.35 0-.661-.056-.934-.168-.273-.112-.41-.238-.41-.378 0-.056-.13-.158-.388-.305-.26-.147-.34-.248-.242-.304.028-.028.105-.021.231.02.126.043.263.085.41.127.147.042.276.087.388.136a.711.711 0 00.252.074c.084 0 .2-.137.347-.41.147-.273.262-.41.346-.41.112 0 .262.12.451.358l.368.462c.112 0 .304-.088.577-.263.273-.175.438-.262.494-.262m3.36 5.837c0 .182-.137.35-.41.504-.273.154-.648.283-1.124.388-.476.105-1.035.192-1.68.262-.643.07-1.322.105-2.036.105-1.498 0-2.754-.122-3.769-.367-1.015-.245-1.522-.542-1.522-.892 0-.28.322-.522.966-.725.644-.203 1.47-.36 2.477-.472.056.056.112.105.168.147.056.042.112.09.168.147-.168.182-.252.3-.252.357 0 .224.172.402.515.535s.76.2 1.249.2c.518 0 .948-.067 1.291-.2.343-.133.515-.311.515-.535a.259.259 0 00-.042-.147 4.012 4.012 0 01-.126-.21c.056-.056.098-.105.126-.147.028-.042.07-.091.126-.147 1.007.112 1.82.27 2.435.472.616.203.924.445.924.725m-.903 1.343c0 .378-.416.68-1.249.903-.833.224-1.865.336-3.097.336-1.204 0-2.236-.112-3.097-.336-.86-.224-1.291-.525-1.291-.903v-.168c.462.224 1.078.396 1.847.515.77.119 1.617.178 2.541.178.91 0 1.746-.06 2.51-.178.762-.12 1.374-.29 1.836-.515v.168m-4.514 3.864a29.77 29.77 0 01-1.837.02c-.357-.013-.584-.034-.682-.062-.098-.028-.12-.063-.063-.105.056-.042.07-.098.042-.168-.028-.07-.158-.158-.389-.263-.23-.105-.661-.213-1.291-.325v-2.31c.28.252.822.48 1.627.683.805.203 1.725.304 2.761.304 1.008 0 1.91-.101 2.709-.304.797-.203 1.343-.43 1.637-.683v2.058c-.294.056-.476.147-.546.273-.07.126-.206.255-.41.388-.202.133-.552.249-1.049.347-.497.098-1.333.147-2.509.147m1.28-9.533c.295.28.442.693.442 1.24 0 .713-.175 1.287-.525 1.72.056.057.084.183.084.379 0 .182-.109.343-.326.483-.217.14-.479.21-.787.21-.322 0-.595-.07-.819-.21-.224-.14-.336-.301-.336-.483 0-.196.056-.322.168-.378a1.69 1.69 0 01-.483-.787 3.46 3.46 0 01-.126-.935c0-.546.147-.959.441-1.239.084.056.231.112.441.168.21.056.448.084.714.084.224 0 .437-.028.64-.084a2.71 2.71 0 00.473-.168m-.336-5.08c-.028 0-.042.013-.042.041v-.084h.084l-.042.042m5.018-3.82l.042.083-.084-.084h.042m-5.417 4.766c-.028.028-.042.056-.042.084-.028.028-.042.084-.042.168V15.522c.112-.294.168-.455.168-.483 0-.056.014-.112.042-.168a.373.373 0 00.042-.168.406.406 0 00.105-.262c0-.091.028-.164.084-.22.056-.14.105-.273.147-.4.042-.125.09-.265.147-.42v.085c0-.056.014-.07.042-.042.028.028.042.014.042-.042-.056 0-.07-.014-.042-.042.028-.028.042-.07.042-.126.056-.056.084-.112.084-.168 0-.056.028-.112.084-.168 0-.084.014-.158.042-.22a.595.595 0 01.126-.18h.063l.042-.083c0-.056.028-.14.084-.252 0-.056.014-.098.042-.126.028-.028.042-.07.042-.126.084-.154.175-.294.273-.42.098-.126.189-.259.273-.399a1.88 1.88 0 01.315-.44c.112-.113.21-.239.294-.379v.084c.055 0 .104-.028.146-.084.042-.056.035-.084-.02-.084.055 0 .097-.031.125-.094.028-.063.07-.06.126.01 0-.07.035-.133.105-.189.056-.056.098-.084.126-.084.028 0 .07-.028.126-.084h.168c.056 0 .056-.028 0-.084a.718.718 0 00.305-.063.626.626 0 01.262-.063.34.34 0 01.21.063.34.34 0 00.21.063c.14.056.263.12.368.19.105.07.199.153.283.251.14.14.276.287.41.441.132.154.24.308.325.462a.527.527 0 01.126.21c.028.084.07.126.126.126l.042.042c0 .028-.014.042-.042.042a.56.56 0 01.126.189.56.56 0 00.126.189c0 .098.014.175.042.23.028.057.07.127.126.21h-.084c.056 0 .101.015.136.043.035.028.039.056.01.084l-.062-.042c.042.028.063.056.063.084h-.063.063c.084.168.168.34.252.514.084.175.168.333.252.473 0 .21-.014.283-.042.22l.042.095c.056.056.07.098.042.126-.028.028-.042.07-.042.126.028-.028.056-.042.084-.042v.042c0 .112.028.224.084.336h-.084c.056.056.098.129.126.22.028.091.07.178.126.262.238.882.399 1.743.482 2.583a19.908 19.908 0 01.168 2.625v.629c.056.182.084.343.084.483v.609c.056.448.07.875.042 1.28-.028.407-.014.806.042 1.198v2.54c-.028 0-.042-.014-.042-.042-.028-.028-.042-.098-.042-.21a2.168 2.168 0 01-.084-.598V25.18a2.142 2.142 0 01-.084-.662c0-.273.028-.493.084-.661v-.336c0-.07-.028-.105-.084-.105l.084-.084v-.126c-.056-.056-.07-.133-.042-.231a.315.315 0 00-.042-.273v-.483c0-.168-.028-.336-.084-.504h.084c-.056 0-.084-.063-.084-.189V20.981c-.055 0-.07-.014-.041-.042.028-.028.041-.07.041-.126v-.189c0-.112-.027-.168-.083-.168.056-.056.083-.056.083 0s0 .056 0 0a2.407 2.407 0 01-.083-.661V18.735c-.028.028-.042.028-.042 0-.028 0-.042-.056-.042-.168l.084.084c-.056-.056-.084-.154-.084-.294V18a.373.373 0 00-.042-.168.373.373 0 01-.042-.168V17.013c0-.084-.042-.084-.126 0v-.336h.042l.042-.084c0-.056-.014-.09-.042-.105-.028-.014-.042-.049-.042-.105 0-.07-.018-.112-.053-.126-.035-.014-.052-.063-.052-.147l-.084-.168h.042l-.042-.084v-.336a.312.312 0 00-.042-.157c-.028-.05-.042-.046-.042.01v-.168c-.056-.056-.084-.14-.084-.252a.467.467 0 00-.042-.21.467.467 0 01-.042-.21v.084c-.056-.056-.07-.094-.042-.115.028-.021.014-.06-.042-.115h.042c-.028 0-.042-.028-.042-.084a.516.516 0 00-.042-.19.617.617 0 01-.042-.23c-.056 0-.084-.014-.084-.042V13.633c-.056 0-.084-.021-.084-.063v-.084h.042l-.042-.084v-.084h-.084v-.084c-.028 0-.042-.014-.042-.042l.042-.042c0-.056-.05-.084-.147-.084v-.042c0-.028-.028-.07-.084-.126a.212.212 0 00-.042-.137.212.212 0 01-.042-.136c-.028-.028-.042-.056-.042-.084-.028-.028-.042-.07-.042-.126v-.252h-.084c0-.056-.028-.084-.084-.084-.056 0-.084-.028-.084-.084h.084c0-.056-.014-.084-.042-.084-.028 0-.07-.035-.126-.105-.028 0-.042-.014-.042-.042l.042-.042c-.056 0-.084-.028-.084-.084 0-.056 0-.056 0 0a.678.678 0 00-.2-.252.251.251 0 01-.115-.21l-.042-.084h.042c-.056-.056-.098-.077-.126-.063-.028.014-.042-.028-.042-.126h-.084v-.084h-.042c.028 0 .042-.028.042-.084-.056 0-.084-.014-.084-.042v-.042h-.084c.028 0 .042-.014.042-.042 0-.028-.014-.056-.042-.084h-.084v-.042l-.084-.042-.042-.042v-.042h-.042v-.084h-.084v-.042l-.105.042c0-.056-.042-.084-.126-.084 0-.056-.028-.084-.084-.084h-.084v-.189c-.056 0-.098.014-.126.042-.028.028-.014.042.042.042h-.336a.497.497 0 00-.2.053.498.498 0 01-.199.052V10c-.056.07-.084.088-.084.053v.052h.084c-.056.056-.112.084-.168.084h-.084v.084c0-.028-.014-.042-.042-.042-.028 0-.042.014-.042.042H24.8v.084h-.084c0 .056-.035.112-.105.168h-.084c-.056.084-.112.126-.168.126-.167.238-.293.441-.377.61h-.084c-.028 0-.042.041-.042.125 0-.028.014-.042.042-.042 0 .056-.014.084-.042.084-.028 0-.042.028-.042.084h-.105c.07-.112.07-.168 0-.168v.084c-.056 0-.07-.028-.042-.084.028-.056.014-.056-.042 0v.084c0 .056.007.091.02.105.015.014.022.049.022.105h-.042v.042c0 .028-.028.042-.084.042.056 0 .084.014.084.042 0 .028-.028.042-.084.042v.189c-.056 0-.084-.014-.084-.042v.042l-.042.042c0 .028.014.042.042.042-.028 0-.056.014-.084.042v.126h-.126v.084c0 .028-.014.056-.042.084v-.042l-.042-.042v.084h.042l-.042.084v.126c-.056.056-.084.07-.084.042v.042-.084c0 .028-.014.056-.042.084h-.042c0 .07.028.105.084.105-.056.056-.084.07-.084.042v.042-.084l-.084.084v.126-.042.084c-.028 0-.042.014-.042.042a.141.141 0 00-.063.126v-.168l-.084.084v.084c.028-.028.042-.028.042 0s-.014.056-.042.084c0 .084-.014.112-.042.084-.028-.028-.042 0-.042.084-.056.056-.084.077-.084.063v.084c0 .056-.014.084-.042.084h.042c0 .056-.014.084-.042.084-.028 0-.014.028.042.084-.056.056-.07.084-.042.084.028 0 .042.028.042.084h-.084c.028-.028.042-.056.042-.084 0-.056-.014-.084-.042-.084v.084c0 .056-.014.084-.042.084-.028 0-.042.028-.042.084v.084c-.056 0-.07-.014-.042-.042.028-.028.042-.07.042-.126l-.126.084v.084a.259.259 0 01-.042.147.298.298 0 00-.042.167v-.146a.65.65 0 01-.042.272.467.467 0 00-.042.21c0-.056-.014-.056-.042 0-.028.056-.014.084.042.084h-.084v.042c0-.028-.035-.014-.105.042v.252a.298.298 0 00-.084.22v.263h-.084l-.042.042c.028-.028.042-.014.042.042m4.997-5.333v.042c0 .028.014.056.042.084l-.084-.126h.042m-7.39.82l-.043.041v-.042h.042m1.03 1.974h.125v.084l-.126-.084m.294.525V13.8v.084-.042m.084.252c0 .028.028.07.084.126-.028 0-.042-.014-.042-.042-.028-.028-.042-.056-.042-.084m-1.407-2.75l.042.083-.042-.084m-3.443-.903h-.042c.028 0 .042-.028.042-.084v.084m11.338 12.976c-.028-.028-.042-.056-.042-.084.028 0 .042.028.042.084M20.83 14.22c0 .056-.014.07-.042.042-.028-.028-.014-.042.042-.042m-4.724-4.116l.042-.105v.105h-.042m6.887 2.877c-.028.028-.056.042-.084.042.028-.028.056-.042.084-.042m-.61 1.239c0 .056-.006.084-.02.084s-.035.028-.063.084l.084-.168m-.819 1.553c.056.056.084.14.084.252-.056.056-.084.14-.084.252-.056-.056-.056-.112 0-.168v-.336m.693-1.385h.042c0 .028-.007.048-.021.062-.014.014-.021.042-.021.084v-.146m.294-.756c.056 0 .084-.05.084-.147v.147h.042l-.042.084c0-.056-.014-.07-.042-.042-.028.028-.042.014-.042-.042m1.113-1.995c0 .028-.014.056-.042.084 0-.028.007-.042.02-.042.015 0 .022-.014.022-.042m-3.003 4.64V16.51h-.042c-.028 0-.042-.042-.042-.126.056 0 .056-.035 0-.105h.084m-1.029-1.973l-.042-.084c.056.056.056.084 0 .084h.042m.294.398h-.084c0-.056.014-.084.042-.084h.042v.084m-.336-.482h-.084l.084-.084v.084m.61.818c-.029.028-.043.028-.043 0-.042 0-.028-.028.042-.084 0 .056.014.084.042.084.028 0 .042.028.042.084l-.084-.084m.462.987v.168c-.056 0-.112-.028-.168-.084h.084c-.056 0-.084-.028-.084-.084a.283.283 0 01-.126-.252c-.056 0-.084-.028-.084-.084 0-.056-.028-.084-.084-.084a.266.266 0 00-.052-.157.266.266 0 01-.053-.158l-.336-.336v-.084.042c0-.028-.028-.042-.084-.042 0-.112-.056-.168-.168-.168-.056 0-.09-.014-.105-.042a.597.597 0 00-.105-.126v-.146h-.189c-.028 0-.042-.014-.042-.042-.028-.028-.042-.07-.042-.126a.452.452 0 01-.251-.084.452.452 0 00-.252-.084v-.084a.818.818 0 01-.294-.042.516.516 0 00-.19-.042V13.8c-.055 0-.083.028-.083.084-.056-.056-.084-.07-.084-.042 0 .028-.028.014-.084-.042v.042c0 .028-.028.042-.084.042H17.493v.042l.042.042a.299.299 0 00-.168.042.259.259 0 01-.147.042c0 .056-.028.084-.084.084 0 .056-.014.084-.042.084-.028 0-.07.028-.126.084-.056.153-.14.286-.252.398-.084.14-.158.252-.22.336a1.48 1.48 0 00-.179.336.2.2 0 01-.084.168c-.056.042-.084.091-.084.147 0 .056-.014.098-.042.126-.028.028-.042.07-.042.126-.056.056-.084.14-.084.252-.056 0-.07.014-.042.042.028.028.014.042-.042.042 0 .154-.014.294-.042.42a1.835 1.835 0 00-.042.399c-.056.098-.084.13-.084.094v.095l-.105.084c.07 0 .088.007.053.021-.035.014-.018.049.052.105-.07.056-.105.112-.105.168V18a4.649 4.649 0 00-.084.871v.85a4.152 4.152 0 00-.063.914c.014.287-.007.584-.063.892V21.884c0 .056.042.084.126.084v.735c.056.252.084.514.084.787s.035.55.105.83v.525c0 .168.014.36.042.577.028.217.07.41.126.577-.028.028-.056.028-.084 0-.056 0-.084-.056-.084-.168a.508.508 0 01-.105-.336.971.971 0 00-.084-.398c0-.056.014-.07.042-.042.028.028.042.014.042-.042-.196-.252-.224-.553-.084-.903 0-.028-.028-.07-.084-.126l-.042-.042h.126c-.084 0-.126-.056-.126-.168v-.084c-.056-.056-.07-.109-.042-.158.028-.049.028-.115 0-.2h.042a.745.745 0 01-.084-.335.517.517 0 00-.084-.294h.084c-.056 0-.084-.063-.084-.189.056 0 .07-.014.042-.042-.028-.028-.042-.07-.042-.126V22.136c-.028 0-.042-.014-.042-.042l.042-.042v-1.344c0-.056-.014-.084-.042-.084-.028 0-.014-.028.042-.084v-1.364c0 .056.014.07.042.042.028-.028.042-.014.042.042v-.168a.212.212 0 00-.042-.137.212.212 0 01-.042-.136c0 .028.014.042.042.042l.042-.042-.084-.084c0-.056.014-.07.042-.042.028.028.042.014.042-.042h-.084v-.084c0-.056.028-.084.084-.084V17.664h.084V17.013h.126v-.336h.084v-.084c-.028 0-.042-.014-.042-.042l.042-.042c0-.154.035-.259.105-.315v-.168h.042l.042-.084v-.252c0 .056.028.084.084.084v-.252c.028 0 .042-.014.042-.042 0-.07-.014-.105-.042-.105a.658.658 0 00.126-.168c.028-.056.07-.084.126-.084v-.084c.056-.056.07-.084.042-.084-.028 0-.042-.028-.042-.084h.084v-.084-.042c0 .028.028.042.084.042v-.084h.084c-.028 0-.042-.014-.042-.042l.042-.042h-.084l.084-.084v-.146c0-.028.014-.042.042-.042.056 0 .084.014.084.042l.105-.084h-.105l.105-.084c0-.056.028-.084.084-.084v-.084h.042l.042-.084c0 .028.014.042.042.042l.042-.042v-.084c.056 0 .084-.014.084-.042 0-.028.028-.042.084-.042v-.084c.056 0 .105-.039.147-.116a.203.203 0 01.189-.115c-.028.028-.042.056-.042.084v.063h.042v-.147l.23-.084h.169c0-.028.014-.042.042-.042.056 0 .098.014.126.042.056 0 .112.028.168.084a.176.176 0 01.2-.042.835.835 0 00.283.042l-.084.147c.056 0 .084-.018.084-.053v.053c0 .028.014.042.042.042l.042-.042c0 .028.014.042.042.042l.042-.042c0 .056-.028.084-.084.084h.084c0 .056-.014.07-.042.042-.028-.028-.042-.014-.042.042s-.014.07-.042.042l.042.042.084-.084h.167c.028-.028.056-.042.084-.042v.042c0 .056-.014.084-.042.084h.126c0 .056.014.07.042.042l-.042.042h.084c0 .056.014.084.042.084h.063v-.084c0 .056.028.084.084.084.056.056.077.084.063.084h.063-.126v.042c0 .028.042.042.126.042l.084.084h.084v.042c0 .028.028.042.084.042l-.084.146v.084c0-.056.014-.07.042-.042.028.028.07.014.126-.042-.028.028-.042.056-.042.084 0 .056.014.084.042.084v.084h.084v-.084c.056.056.07.098.042.126l.042-.042c.028.028.056.042.084.042v-.042.084l-.042-.042c-.028 0-.042.014-.042.042h.084c-.028.028-.028.084 0 .168.07.056.105.098.105.126 0 .028.028.042.084.042h-.084c.056.056.084.109.084.158s.028.101.084.157c0-.056.007-.07.021-.042.014.028.05.042.105.042-.028 0-.056.014-.084.042h-.042v.042c.084.056.154.112.21.168 0 .056.014.098.042.126.028.028.042.07.042.126m.441.084c.056-.056.021-.14-.105-.252l.19.168c0 .112.027.196.083.252V16.51h.21V16.278h.084V16.51h.336c.322 0 .357.084.105.252-.21.112-.322.256-.336.43-.014.175.007.333.063.473.056.196.147.399.273.609a3.666 3.666 0 01-.357-.368c-.14-.16-.238-.241-.294-.241-.084 0-.178.094-.283.283a6.544 6.544 0 01-.242.41c.056-.266.084-.511.084-.735 0-.196-.028-.375-.084-.535a.504.504 0 00-.336-.326c-.196-.084-.14-.168.168-.252h.525v-.231c-.028 0-.042-.014-.042-.042-.028-.028-.042-.07-.042-.126m-.86-2.582c0-.028-.015-.042-.043-.042l.042.042m-7.054 13.29c-.028-.028-.042-.056-.042-.084-.028-.028-.042-.112-.042-.252a1.44 1.44 0 01-.042-.598 1.216 1.216 0 00-.042-.557c0-.07.014-.094.042-.073.028.021.042-.004.042-.073-.056-.168-.07-.389-.042-.662a6.78 6.78 0 00.042-.661h.084c0-.056-.014-.098-.042-.126-.028-.028-.042-.07-.042-.126h.084c-.056 0-.07-.032-.042-.095.028-.063.014-.094-.042-.094l.084-.084v-.126c-.056-.056-.07-.133-.042-.231a.315.315 0 00-.042-.273c0 .028.014.042.042.042l.042-.042a.938.938 0 01-.042-.483 1.034 1.034 0 00-.042-.504h.084v-.315c0-.028-.007-.049-.021-.063-.014-.014-.007-.049.02-.105-.055-.056-.07-.098-.041-.126.028-.028.014-.042-.042-.042l.084-.084c-.056 0-.07-.014-.042-.042.028-.028.042-.07.042-.126v-.357c0-.196.014-.416.042-.661a6.2 6.2 0 00.042-.703v-.274h.042l.042-.083c-.028 0-.042-.014-.042-.042-.028-.028-.042-.07-.042-.126l.084.084V18.189c.056-.098.07-.14.042-.126-.028.014-.042-.007-.042-.063v-.336c0-.084.014-.161.042-.231a.678.678 0 00.042-.252v-.084c.028-.028.042-.056.042-.084 0-.056-.014-.084-.042-.084 0-.056.014-.112.042-.168a.373.373 0 00.041-.168c.028 0 .042.014.042.042.056-.056.084-.14.084-.252 0-.07-.02-.119-.063-.147a.141.141 0 01-.063-.126c0 .028.014.042.042.042.028 0 .056-.014.084-.042l-.126-.168c.056-.056.091-.07.105-.042.014.028.021.014.021-.042v-.252c.056 0 .07.014.042.042-.028.028-.014.042.042.042V14.871a.261.261 0 00.084-.189.94.94 0 01.042-.251c0 .027-.014.027-.042 0v-.042c.07 0 .105-.028.105-.084v-.084a.69.69 0 01.168-.42v-.168c0-.098.028-.147.084-.147v-.084c.056-.084.07-.12.042-.105-.028.014-.014-.007.042-.063v-.168c0-.056.028-.084.084-.084v-.084c.028 0 .042-.014.042-.042a.259.259 0 00-.042-.147l.21-.21c0-.112.028-.196.084-.252v-.084c0 .056.063.028.19-.084 0-.028-.015-.056-.043-.084h-.063c.07 0 .105-.032.105-.095s.028-.094.084-.094c.056 0 .07-.014.042-.042-.028-.028-.014-.07.042-.126v-.084c0-.084.028-.098.084-.042 0-.056.014-.098.042-.126.028-.028.014-.042-.042-.042.056-.056.112-.126.168-.21.056-.084.112-.126.168-.126v-.105c.056 0 .126-.084.21-.252l.105-.126v.126a.408.408 0 00.084-.21h.084l.084-.084h-.084v-.084c.056.056.084.028.084-.084.056 0 .084-.028.084-.084v.084l.084-.084h.084L16.149 10h.084l.084-.084v-.042l.084-.042h.042c.056 0 .084-.028.084-.084h.105c.056 0 .084.014.084.042v-.042c.056 0 .084-.014.084-.042v-.042a.373.373 0 00.168-.042c.056-.028.112-.014.168.042v-.126a.648.648 0 00.262.105.385.385 0 01.22.105v.084c.029-.028.057-.042.085-.042v.042-.084c.056 0 .14.056.252.168-.028-.028-.042-.056-.042-.084h.042c0 .056.028.084.084.084V10c.056 0 .084-.014.084-.042V10c.056.07.098.105.126.105h.042l.105.084.126.126v.042c.084.056.175.14.273.252.097.112.174.21.23.294v.053c0-.035.028-.053.084-.053-.056 0-.07.018-.042.053.028.035.014.052-.042.052.056.056.112.084.168.084v.042c0 .028.035.042.105.042h-.105l.105.084c0 .056-.035.056-.105 0h-.084.084c0 .056-.028.07-.084.042-.056-.028-.056-.014 0 .042h.084a.142.142 0 00.105.042c.056.056.084.098.084.126 0-.056.014-.084.042-.084h.084c0 .056-.014.07-.042.042l.042.042c.056 0 .084.028.084.084v.042c0 .056-.014.07-.042.042l.042.042c0 .028.014.042.042.042l.042-.042c0 .056-.028.084-.084.084.112 0 .14.035.084.105h.084v.084c0 .056.014.084.042.084.028 0 .042.028.042.084v-.084c0 .056.014.084.042.084h.042v.084l.084.084h-.042l.042.084-.084-.084c0 .056.028.112.084.168v.084c0 .028.028.07.084.126.07 0 .105.017.105.052v-.052.273c-.07 0-.087.014-.052.042l-.053-.042.105.084c0-.056.014-.056.042 0 .028.056.07.056.126 0 0 .084-.014.133-.042.147-.028.014-.014.049.042.105v.084c0 .056.021.098.063.126.042.028.063.014.063-.042.056.056.07.094.042.115-.028.021-.014.032.042.032.056.056.084.07.084.042v.126c-.028-.028-.042-.056-.042-.084-.028-.028-.042-.028-.042 0s.028.07.084.126c-.056.056-.056.098 0 .126.028.028.042.049.042.063 0 .014.014.035.042.063-.028 0-.042-.007-.042-.021 0-.014-.014-.021-.042-.021v-.042l-.084-.042c.028.028.042.056.042.084h-.042c0 .056.028.084.084.084v-.084c0 .112.014.182.042.21 0 .028.014.042.042.042.056.112.084.199.084.262s.028.136.084.22v.168c0 .056.014.098.042.126.028.028.042.07.042.126 0 .084.018.165.053.242.035.077.08.157.136.241h-.042c-.028 0-.042.028-.042.084.056.056.084.056.084 0s0-.056 0 0v.168c0 .056.028.084.084.084h-.084c0-.056-.014-.084-.042-.084-.028 0-.042-.028-.042-.084L21 15.774c0-.056-.028-.112-.084-.168a.835.835 0 00-.042-.283.6.6 0 01-.042-.2v-.084c-.056 0-.084-.028-.084-.084v-.168c-.112-.238-.168-.398-.168-.482a1.699 1.699 0 00-.189-.357 1.478 1.478 0 01-.189-.462l.084.147-.042-.105c0-.084-.049-.126-.147-.126 0-.112-.056-.224-.168-.336-.056-.056-.084-.112-.084-.168 0-.056-.028-.12-.084-.19v-.083a1.376 1.376 0 00-.168-.21.373.373 0 00-.042-.168.373.373 0 01-.042-.168c-.182-.14-.37-.385-.567-.735a3.06 3.06 0 01-.335-.388 1.187 1.187 0 00-.315-.305h.105l-.147-.126h-.042c-.112 0-.168-.056-.168-.168h-.084c-.112-.112-.196-.168-.252-.168v-.084c-.056 0-.098-.017-.126-.052-.028-.035-.042-.018-.042.052-.07-.07-.14-.087-.21-.052-.07.035-.133.017-.19-.053h-.041c-.028 0-.042.035-.042.105-.056 0-.098-.017-.126-.052-.028-.035-.07-.018-.126.052h-.084a1.931 1.931 0 01-.263.147.524.524 0 00-.22.19 7.96 7.96 0 01-.378.493c-.112.133-.217.27-.315.41 0 .083-.035.139-.105.167-.07.028-.105.098-.105.21-.056 0-.084.014-.084.042v-.042c0 .098-.028.168-.084.21-.056.042-.084.09-.084.147a3.736 3.736 0 01-.21.378c0-.028.014-.042.042-.042-.056 0-.084.042-.084.126v.084a2.064 2.064 0 00-.23.504 3.37 3.37 0 01-.253.588c-.056.084-.07.098-.042.042.028-.056.014-.014-.042.126 0 .056-.014.084-.042.084-.028 0-.042.028-.042.084h.042c-.028 0-.014.028.042.084-.112.112-.168.196-.168.252a.818.818 0 01-.042.293c-.028.07-.014.133.042.19-.154.461-.245.899-.273 1.312-.028.413-.084.85-.168 1.312-.056.392-.09.805-.105 1.239a15.26 15.26 0 01-.104 1.343c-.028.084-.05.14-.063.168a.614.614 0 00-.021.21c.056.056.07.098.042.126-.028.028-.014.07.042.126a1.344 1.344 0 00-.084.462v.546c0 .448-.014.875-.042 1.28-.028.407-.042.806-.042 1.198v.735a5.34 5.34 0 00-.084.913v.976m7.474-10.582c0 .028.028.042.084.042h-.084v-.084.042m6.719 4.178c-.028 0-.042-.028-.042-.084 0 .056.014.084.042.084m-7.286-5.375v-.084l.063.084h-.063m2.457.336c.056 0 .084-.014.084-.042v-.042h.084a.312.312 0 00-.084.231c0-.056-.014-.077-.042-.063-.028.014-.042-.014-.042-.084m.21-.168l.042-.084h.105l-.105.084h-.084.042m.777-.818v.083c0 .042-.028.063-.084.063l.084-.146m2.582.398h-.084c.056 0 .084.014.084.042v-.042m-3.212.21v-.042c0 .028.028.028.084 0-.056.056-.07.084-.042.084h-.042v-.042m-.273.21c.056 0 .056.028 0 .084v-.084m-6.11-.818c0-.056-.014-.084-.042-.084h.042v.084m-.462.65c.056 0 .084-.014.084-.042v.042h-.084m5.942 1.344c-.07 0-.105.042-.105.126v-.399c.07.056.105.098.105.126v.042-.336c.056-.056.084-.098.084-.126 0-.028.028-.07.084-.126 0-.056.014-.105.042-.147a.298.298 0 00.042-.168.597.597 0 00.105-.126c.014-.028.049-.042.105-.042.112-.224.196-.364.252-.42h.084c-.028 0-.042-.014-.042-.042l.042-.042c.07-.056.105-.108.105-.157s.028-.102.084-.157c0-.056.014-.084.042-.084.028 0 .07-.028.126-.084 0 .028.014.042.042.042l.042-.042v-.042h.042l.084-.042c0-.056.056-.084.168-.084a.816.816 0 01.2-.21 2.06 2.06 0 00.24-.21v.084c.085-.126.183-.196.294-.21a.42.42 0 00.252-.105v.084a.212.212 0 00.137-.042c.035-.028.017-.042-.053-.042.07 0 .12-.014.147-.042.028-.028.042-.014.042.042h.336v.084c.028.028.056.042.084.042v-.042a.442.442 0 00.2.115c.077.021.143.06.2.116.111.112.195.168.251.168 0 .056-.014.084-.042.084h.042c.084.056.133.112.147.168a.372.372 0 00.105.168c.266.35.427.622.483.818.056.056.084.112.084.168 0 .056.028.084.084.084V15.606c0 .056.028.112.084.168 0 .056.014.105.042.147a.344.344 0 01.042.19v-.085c0 .056.014.084.042.084.028 0 .014.028-.042.084.056.154.098.287.126.4.028.111.07.251.126.419 0 .084-.014.112-.042.084-.028-.028-.014 0 .042.084l-.042.063c0 .028.014.042.042.042v.294a.483.483 0 01.115.168c.021.056.06.112.116.168.056.322.098.626.126.913.028.287.042.585.042.893v1.805a.4.4 0 000 .357c-.056 0-.084-.014-.084-.042v.042c.056 0 .07.014.042.042-.028.028-.014.042.042.042 0 .308-.028.525-.084.651v.084a8.553 8.553 0 01-.168 1.722v.504c-.126.35-.231.734-.315 1.154-.028 0-.042-.014-.042-.042-.028-.028-.042-.098-.042-.21 0-.084.014-.189.042-.315.028-.126.042-.266.042-.42 0-.055.014-.07.042-.041.028.028.042.014.042-.042a.816.816 0 01-.042-.452 2.25 2.25 0 01.126-.451v-.336c0-.056.014-.112.042-.168a.223.223 0 000-.19h.105a.546.546 0 01-.053-.398c.035-.126.053-.231.053-.315v-.189c-.042 0-.063-.014-.063-.042 0-.056.02-.098.063-.126-.042 0-.063-.028-.063-.084v-.042h.063v-.084c-.042 0-.063-.014-.063-.042l.063-.042v-1.155h.084c0-.126-.028-.189-.084-.189h.084c0-.056-.014-.084-.042-.084-.028 0-.042-.028-.042-.084.056 0 .084.014.084.042v-.042c-.028 0-.042-.042-.042-.126 0 .028.014.042.042.042-.056-.056-.07-.105-.042-.147.028-.042.014-.063-.042-.063h.084c0-.056-.014-.07-.042-.042-.028.028-.042.014-.042-.042h.084c-.056-.056-.084-.14-.084-.252V19.47c0-.14-.05-.238-.147-.294 0 .028.028.042.084.042h.063v-.126a.16.16 0 00-.074-.137.16.16 0 01-.073-.136c0 .028.014.042.042.042a.204.204 0 00.105-.042l-.147-.084v-.084c-.028 0-.042-.014-.042-.042l.042-.042v-.252l-.084.042v-.084c0-.126-.028-.217-.084-.273h.084c0-.056-.014-.098-.042-.126-.028-.028-.042-.07-.042-.126v-.168c-.028-.028-.042-.07-.042-.126-.028-.028-.042-.084-.042-.168v-.189c0-.056-.014-.084-.042-.084h.042v-.084h-.084v-.084c-.028 0-.042-.014-.042-.042l.042-.042v-.084c-.056 0-.07-.014-.042-.042.028-.028.014-.042-.042-.042v-.21c0-.07-.014-.105-.042-.105-.028 0-.042-.028-.042-.084v-.168h-.084c.056-.056.07-.084.042-.084-.028 0-.042-.028-.042-.084.056-.056.07-.084.042-.084-.028 0-.042-.028-.042-.084l-.084.084v-.084c0-.056-.028-.084-.084-.084a.498.498 0 00-.052-.2.497.497 0 01-.053-.199v-.084c0-.056-.02-.07-.063-.042-.042.028-.063.014-.063-.042l-.084-.084.084-.084h-.084v-.084l-.084-.084c-.028-.028-.056-.042-.084-.042v.042-.168h-.084c-.056 0-.084-.02-.084-.063v-.083c0-.056-.028-.084-.084-.084-.028-.028-.042-.07-.042-.126 0-.028.014-.042.042-.042-.056 0-.084.028-.084.084-.056-.056-.101-.084-.136-.084s-.053-.028-.053-.084c-.056-.056-.105-.084-.147-.084-.042 0-.09-.028-.147-.084-.112 0-.168-.028-.168-.084v.084c0-.056-.028-.084-.084-.084v.084L24.8 13.8v.042c0 .028-.028.042-.084.042V13.8l-.042.042c0 .028.014.042.042.042a.261.261 0 01-.189-.084c-.056.084-.105.133-.147.147a2.182 2.182 0 00-.23.105c0-.056-.014-.084-.042-.084-.028.028-.042.056-.042.084h-.042c-.028 0-.042.028-.042.084v-.084c-.056 0-.056-.014 0-.042.056-.028.056-.042 0-.042-.028-.056-.028-.084 0-.084-.056 0-.084.014-.084.042 0 .028.028.042.084.042-.056.056-.07.098-.042.126.028.028.014.042-.042.042v-.084.042c0 .028-.028.042-.084.042.056 0 .056.028 0 .084 0 .056-.018.07-.053.042-.035-.028-.052-.014-.052.042v-.084l-.042.042c0 .028.014.042.042.042-.056 0-.084.014-.084.042v-.042.084c0-.056-.028-.084-.084-.084 0 .056-.028.084-.084.084V14.619c-.056 0-.084-.014-.084-.042v.126h-.126c-.056 0-.084.014-.084.042 0 .028.028.014.084-.042 0 .056-.014.084-.042.084-.028 0-.042-.028-.042-.084 0 .056.014.084.042.084h-.126v-.084c-.056 0-.084.028-.084.084.056 0 .07.014.042.042-.028.028-.014.042.042.042-.056.056-.098.063-.126.021-.028-.042-.042-.02-.042.063v-.042l-.105.042v.084c0-.028.02-.042.063-.042l.042.042c-.07.056-.105.07-.105.042v.042c-.028 0-.056.014-.084.042v.042l-.042-.042c-.028 0-.042.014-.042.042l-.084-.084v.084h.084c-.056.056-.084.098-.084.126v.042c0 .042-.014.063-.042.063-.056.112-.098.168-.126.168.028 0 .042.014.042.042 0 .028-.014.042-.042.042-.028.028-.056.042-.084.042h-.042v-.042.252c-.056 0-.084.028-.084.084 0 .056-.028.084-.084.084v.084c-.028 0-.042.014-.042.042-.028.028-.042.077-.042.147m-1.008-1.68h-.084H21m0 .084h-.084l.042-.084.042.084m-.588-1.47c-.028 0-.042-.027-.042-.083l.126.084h-.084m2.058 2.372c0 .028-.014.056-.042.084h-.042v-.084h.084m-1.974-.168c-.028 0-.042-.028-.042-.084v-.063h.042v.147"
         fill-opacity=".949" fill="#fff" />
   </g>
</svg>