<svg xmlns="http://www.w3.org/2000/svg" version="1.2" viewBox="0 0 42.52 42.52" height="56.693" width="56.693">
   <g stroke-linejoin="bevel" stroke-linecap="square" fill-rule="evenodd" stroke="none" fill="none" font-weight="400"
      font-size="7.8" font-family="'MS Shell Dlg 2'">
      <path
         d="M42.52 21.26C42.52 33 33 42.52 21.26 42.52 9.518 42.52 0 33 0 21.26 0 9.518 9.518 0 21.26 0 33 0 42.52 9.518 42.52 21.26"
         vector-effect="non-scaling-stroke" fill="#1f78b4" />
      <path
         d="M20.663 15.942c-1.092 0-1.952-.329-2.582-.987-.406-.406-.686-.808-.84-1.207-.154-.399-.231-.857-.231-1.375 0-1.064.357-1.91 1.07-2.54.687-.687 1.547-1.03 2.583-1.03.994 0 1.869.343 2.625 1.03.714.63 1.07 1.476 1.07 2.54 0 .518-.08.976-.241 1.375-.161.4-.437.801-.83 1.207-.657.658-1.532.987-2.624.987m5.963 2.583a8.931 8.931 0 00-1.407.63c-.35.21-.668.444-.955.703-.287.259-.43.528-.43.808v11.57c.056.335.227.626.514.87.287.245.605.445.955.599.406.168.847.322 1.323.462v.567H14.763v-.567c.518-.168.994-.371 1.428-.61a9.09 9.09 0 00.955-.64c.301-.23.452-.486.452-.766v-14.11h9.028v.484"
         fill="#fff" />
   </g>
</svg>