<?xml version="1.0" encoding="UTF-8" standalone="no"?>
<svg
   xmlns:dc="http://purl.org/dc/elements/1.1/"
   xmlns:cc="http://creativecommons.org/ns#"
   xmlns:rdf="http://www.w3.org/1999/02/22-rdf-syntax-ns#"
   xmlns:svg="http://www.w3.org/2000/svg"
   xmlns="http://www.w3.org/2000/svg"
   xmlns:sodipodi="http://sodipodi.sourceforge.net/DTD/sodipodi-0.dtd"
   xmlns:inkscape="http://www.inkscape.org/namespaces/inkscape"
   inkscape:version="1.0 (4035a4fb49, 2020-05-01)"
   sodipodi:docname="1006.svg"
   id="svg20"
   version="1.2"
   viewBox="0 0 42.519639 42.519639"
   height="14.999999mm"
   width="14.999999mm">
  <metadata
     id="metadata24">
    <rdf:RDF>
      <cc:Work
         rdf:about="">
        <dc:format>image/svg+xml</dc:format>
        <dc:type
           rdf:resource="http://purl.org/dc/dcmitype/StillImage" />
        <dc:title>Qt SVG Document</dc:title>
      </cc:Work>
    </rdf:RDF>
  </metadata>
  <sodipodi:namedview
     inkscape:current-layer="svg20"
     inkscape:window-maximized="1"
     inkscape:window-y="-9"
     inkscape:window-x="-9"
     inkscape:cy="28.346482"
     inkscape:cx="28.346482"
     inkscape:zoom="18.047943"
     fit-margin-bottom="0"
     fit-margin-right="0"
     fit-margin-left="0"
     fit-margin-top="0"
     showgrid="false"
     id="namedview22"
     inkscape:window-height="1013"
     inkscape:window-width="1920"
     inkscape:pageshadow="2"
     inkscape:pageopacity="0"
     guidetolerance="10"
     gridtolerance="10"
     objecttolerance="10"
     borderopacity="1"
     bordercolor="#666666"
     pagecolor="#ffffff" />
  <title
     id="title2">Qt SVG Document</title>
  <desc
     id="desc4">Generated with Qt</desc>
  <defs
     id="defs6" />
  <g
     transform="translate(5.25984,5.25984)"
     id="g18"
     stroke-linejoin="bevel"
     stroke-linecap="square"
     fill-rule="evenodd"
     stroke-width="1"
     stroke="#000000"
     fill="none">
    <g
       id="g10"
       font-style="normal"
       font-weight="400"
       font-size="7.8px"
       font-family="'MS Shell Dlg 2'"
       stroke="none"
       fill-opacity="1"
       fill="#1f78b4">
      <path
         id="path8"
         d="M 37.2598,16 C 37.2598,27.7415 27.7415,37.2598 16,37.2598 4.25851,37.2598 -5.25984,27.7415 -5.25984,16 -5.25984,4.25851 4.25851,-5.25984 16,-5.25984 27.7415,-5.25984 37.2598,4.25851 37.2598,16"
         fill-rule="evenodd"
         vector-effect="non-scaling-stroke" />
    </g>
    <g
       id="g14"
       font-style="normal"
       font-weight="400"
       font-size="7.8px"
       font-family="'MS Shell Dlg 2'"
       transform="translate(15.4331,12.0315)"
       stroke="none"
       fill-opacity="1"
       fill="#ffffff">
      <path
         id="path12"
         d="m -0.0297852,-1.34912 c -1.0917948,0 -1.9526348,-0.32894 -2.5825148,-0.98682 -0.40593,-0.40592 -0.68588,-0.80835 -0.83985,-1.20727 -0.15397,-0.39893 -0.23096,-0.85734 -0.23096,-1.37525 0,-1.0638 0.35694,-1.91064 1.07081,-2.54052 0.68587,-0.68588 1.54671,-1.02881 2.5825148,-1.02881 0.9938152,0 1.8686552,0.34293 2.6245152,1.02881 0.71386,0.62988 1.0708,1.47672 1.0708,2.54052 0,0.51791 -0.08049,0.97632 -0.24146,1.37525 -0.16097,0.39892 -0.43742,0.80135 -0.82934,1.20727 -0.65788,0.65788 -1.53272,0.98682 -2.6245152,0.98682 M 5.93311,1.2334 C 5.38721,1.42936 4.91829,1.63932 4.52637,1.86328 4.17643,2.07324 3.85799,2.3077 3.57104,2.56665 3.2841,2.8256 3.14063,3.09505 3.14063,3.375 v 11.5688 c 0.05598,0.336 0.22745,0.6264 0.5144,0.8714 0.28695,0.2449 0.60539,0.4444 0.95532,0.5984 0.40593,0.1679 0.84684,0.3219 1.32276,0.4619 v 0.5669 h -11.8628 v -0.5669 c 0.51791,-0.168 0.99382,-0.3709 1.42774,-0.6089 0.33593,-0.196 0.65438,-0.4094 0.95532,-0.6404 0.30094,-0.2309 0.45142,-0.4864 0.45142,-0.7663 V 0.750488 H 5.93311 V 1.2334"
         fill-rule="evenodd"
         vector-effect="none" />
    </g>
    <g
       id="g16"
       font-style="normal"
       font-weight="400"
       font-size="7.8px"
       font-family="'MS Shell Dlg 2'"
       stroke="none"
       fill-opacity="1"
       fill="#1f78b4" />
  </g>
</svg>
