<?xml version="1.0" encoding="UTF-8" standalone="no"?>
<svg width="11.2889mm" height="11.2889mm"
 viewBox="0 0 32 32"
 xmlns="http://www.w3.org/2000/svg" xmlns:xlink="http://www.w3.org/1999/xlink"  version="1.2" baseProfile="tiny">
<title>Qt SVG Document</title>
<desc>Generated with Qt</desc>
<defs>
</defs>
<g fill="none" stroke="black" stroke-width="1" fill-rule="evenodd" stroke-linecap="square" stroke-linejoin="bevel" >

<g fill="#1f78b4" fill-opacity="1" stroke="none" transform="matrix(1,0,0,1,0,0)"
font-family="MS Shell Dlg 2" font-size="7.8" font-weight="400" font-style="normal" 
>
<path vector-effect="non-scaling-stroke" fill-rule="evenodd" d="M37.2598,16 C37.2598,27.7415 27.7415,37.2598 16,37.2598 C4.25851,37.2598 -5.25984,27.7415 -5.25984,16 C-5.25984,4.25851 4.25851,-5.25984 16,-5.25984 C27.7415,-5.25984 37.2598,4.25851 37.2598,16 "/>
</g>

<g fill="#ffffff" fill-opacity="1" stroke="none" transform="matrix(1,0,0,1,15.4331,12.0315)"
font-family="MS Shell Dlg 2" font-size="7.8" font-weight="400" font-style="normal" 
>
<path vector-effect="none" fill-rule="evenodd" d="M-0.0297852,-1.34912 C-1.12158,-1.34912 -1.98242,-1.67806 -2.6123,-2.33594 C-3.01823,-2.74186 -3.29818,-3.14429 -3.45215,-3.54321 C-3.60612,-3.94214 -3.68311,-4.40055 -3.68311,-4.91846 C-3.68311,-5.98226 -3.32617,-6.8291 -2.6123,-7.45898 C-1.92643,-8.14486 -1.06559,-8.48779 -0.0297852,-8.48779 C0.96403,-8.48779 1.83887,-8.14486 2.59473,-7.45898 C3.30859,-6.8291 3.66553,-5.98226 3.66553,-4.91846 C3.66553,-4.40055 3.58504,-3.94214 3.42407,-3.54321 C3.2631,-3.14429 2.98665,-2.74186 2.59473,-2.33594 C1.93685,-1.67806 1.06201,-1.34912 -0.0297852,-1.34912 M5.93311,1.2334 C5.38721,1.42936 4.91829,1.63932 4.52637,1.86328 C4.17643,2.07324 3.85799,2.3077 3.57104,2.56665 C3.2841,2.8256 3.14063,3.09505 3.14063,3.375 L3.14063,14.9438 C3.19661,15.2798 3.36808,15.5702 3.65503,15.8152 C3.94198,16.0601 4.26042,16.2596 4.61035,16.4136 C5.01628,16.5815 5.45719,16.7355 5.93311,16.8755 L5.93311,17.4424 L-5.92969,17.4424 L-5.92969,16.8755 C-5.41178,16.7075 -4.93587,16.5046 -4.50195,16.2666 C-4.16602,16.0706 -3.84757,15.8572 -3.54663,15.6262 C-3.24569,15.3953 -3.09521,15.1398 -3.09521,14.8599 L-3.09521,0.750488 L5.93311,0.750488 L5.93311,1.2334"/>
</g>

<g fill="#1f78b4" fill-opacity="1" stroke="none" transform="matrix(1,0,0,1,0,0)"
font-family="MS Shell Dlg 2" font-size="7.8" font-weight="400" font-style="normal" 
>
</g>
</g>
</svg>
