<svg xmlns="http://www.w3.org/2000/svg" version="1.2" viewBox="0 0 42.52 42.52" height="56.693" width="56.693">
   <g stroke-linejoin="bevel" stroke-linecap="square" fill-rule="evenodd" stroke="none" fill="none" font-weight="400"
      font-size="7.8" font-family="'MS Shell Dlg 2'">
      <path
         d="M42.52 21.26C42.52 33 33 42.52 21.26 42.52 9.518 42.52 0 33 0 21.26 0 9.518 9.518 0 21.26 0 33 0 42.52 9.518 42.52 21.26"
         vector-effect="non-scaling-stroke" fill="#1f78b4" />
      <path
         d="M31.854 11.785l-5.648 4.304c-.056.14-.112.298-.168.473a9.696 9.696 0 00-.168.598c-.14.21-.29.399-.451.567-.161.168-.354.35-.578.546l-3.107 2.246a.866.866 0 01.315.389c.056.147.084.29.084.43v4.305c0 .447-.161.804-.483 1.07a1.06 1.06 0 01-.252.126 1.092 1.092 0 01-.336.042l-4.472.82 2.708 8.46h-7.37l-1.28-8.083c-.084-.392-.014-.79.21-1.197.168-.308.469-.609.903-.903.112-.112.3-.168.567-.168 1.022.28 1.952.091 2.792-.566l.357-.357c.098-.098.196-.224.294-.378.14-.224.266-.43.378-.62.112-.189.168-.367.168-.535l.357-.462.462-1.638.609.63.294-.252-.084-.294 3.359-2.54.336-1.239-2.058 1.533-.483-.546 4.998-3.737.461.63-1.364.986-.252 1.218 8.545-6.362.357.504m-11.443 9.763l-2.372 3.276 2.288-.084.084-3.192m-6.194 2.877a2.524 2.524 0 01-1.826.504 2.222 2.222 0 01-1.617-.924c-.406-.574-.556-1.197-.451-1.869.105-.672.43-1.21.976-1.617.574-.405 1.197-.563 1.869-.472.671.091 1.21.403 1.616.934a2.37 2.37 0 01.42 1.838 2.376 2.376 0 01-.987 1.606"
         fill="#fff" />
   </g>
</svg>