<?xml version="1.0" encoding="UTF-8" standalone="no"?>
<svg width="11.25008mm" height="11.25008mm"
 viewBox="-5.3 -5.3 42.52000 42.52000"
 xmlns="http://www.w3.org/2000/svg" xmlns:xlink="http://www.w3.org/1999/xlink"  version="1.2" baseProfile="tiny">
<title>Qt SVG Document</title>
<desc>Generated with Qt</desc>
<defs>
</defs>
<g fill="none" stroke="black" stroke-width="1" fill-rule="evenodd" stroke-linecap="square" stroke-linejoin="bevel" >

<g fill="#1f78b4" fill-opacity="1" stroke="none" transform="matrix(1,0,0,1,0,0)"
font-family="MS Shell Dlg 2" font-size="7.8" font-weight="400" font-style="normal" 
>
<path vector-effect="non-scaling-stroke" fill-rule="evenodd" d="M37.2598,16 C37.2598,27.7415 27.7415,37.2598 16,37.2598 C4.25851,37.2598 -5.25984,27.7415 -5.25984,16 C-5.25984,4.25851 4.25851,-5.25984 16,-5.25984 C27.7415,-5.25984 37.2598,4.25851 37.2598,16 "/>
</g>

<g fill="#ffffff" fill-opacity="1" stroke="none" transform="matrix(1,0,0,1,14.8661,11.4646)"
font-family="MS Shell Dlg 2" font-size="7.8" font-weight="400" font-style="normal" 
>
<path vector-effect="none" fill-rule="evenodd" d="M7.96973,7.59521 L7.96973,8.75 L5.55518,8.75 L6.91992,12.0254 L5.47119,12.0254 L4.16943,8.75 L-0.197754,8.75 L-1.49951,12.0254 L-2.96924,12.0254 L-1.5835,8.75 L-3.99805,8.75 L-3.99805,7.59521 L-1.05859,7.59521 L0.0541992,4.76074 L-1.91943,4.76074 L-1.91943,3.62695 L5.89111,3.62695 L5.89111,4.76074 L3.91748,4.76074 L5.11426,7.59521 L7.96973,7.59521 M0.306152,7.59521 L3.66553,7.59521 L2.55273,4.76074 L1.41895,4.76074 L0.306152,7.59521 M11.1401,-6.59814 L11.1401,-4.37256 L-7.73535,4.23584 L-7.73535,13.3901 L11.1401,13.3901 L11.1401,15.5527 L-9.87695,15.5527 L-9.87695,5.18066 L-12.2915,6.20947 L-12.2915,3.98389 L11.1401,-6.59814"/>
</g>

<g fill="#1f78b4" fill-opacity="1" stroke="none" transform="matrix(1,0,0,1,0,0)"
font-family="MS Shell Dlg 2" font-size="7.8" font-weight="400" font-style="normal" 
>
</g>
</g>
</svg>
