<svg xmlns="http://www.w3.org/2000/svg" version="1.2" viewBox="0 0 42.52 42.52" height="56.693" width="56.693">
   <g stroke-linejoin="bevel" stroke-linecap="square" fill-rule="evenodd" stroke="none" fill="none" font-weight="400"
      font-size="7.8" font-family="'MS Shell Dlg 2'">
      <path
         d="M42.52 21.26C42.52 33 33 42.52 21.26 42.52 9.518 42.52 0 33 0 21.26 0 9.518 9.518 0 21.26 0 33 0 42.52 9.518 42.52 21.26"
         vector-effect="non-scaling-stroke" fill="#1f78b4" />
      <path
         d="M28.096 24.32v1.154H25.68l1.365 3.276h-1.449l-1.302-3.276h-4.367l-1.302 3.276h-1.47l1.386-3.276h-2.414V24.32h2.94l1.112-2.835h-1.973v-1.134h7.81v1.134h-1.974l1.197 2.835h2.856m-7.664 0h3.36l-1.113-2.835h-1.134l-1.113 2.835m10.834-14.194v2.226L12.391 20.96v9.155h18.875v2.162H10.249V21.905l-2.415 1.029v-2.226l23.432-10.582"
         fill="#fff" />
   </g>
</svg>