<?xml version="1.0" encoding="UTF-8" standalone="no"?>
<svg width="11.25008mm" height="11.25008mm"
 viewBox="-5.3 -5.3 42.52000 42.52000"
 xmlns="http://www.w3.org/2000/svg" xmlns:xlink="http://www.w3.org/1999/xlink"  version="1.2" baseProfile="tiny">
<title>Qt SVG Document</title>
<desc>Generated with Qt</desc>
<defs>
</defs>
<g fill="none" stroke="black" stroke-width="1" fill-rule="evenodd" stroke-linecap="square" stroke-linejoin="bevel" >

<g fill="#1f78b4" fill-opacity="1" stroke="none" transform="matrix(1,0,0,1,0,0)"
font-family="MS Shell Dlg 2" font-size="7.8" font-weight="400" font-style="normal" 
>
<path vector-effect="non-scaling-stroke" fill-rule="evenodd" d="M37.2598,16 C37.2598,27.7415 27.7415,37.2598 16,37.2598 C4.25851,37.2598 -5.25984,27.7415 -5.25984,16 C-5.25984,4.25851 4.25851,-5.25984 16,-5.25984 C27.7415,-5.25984 37.2598,4.25851 37.2598,16 "/>
</g>

<g fill="#ffffff" fill-opacity="1" stroke="none" transform="matrix(1,0,0,1,16,13.7323)"
font-family="MS Shell Dlg 2" font-size="7.8" font-weight="400" font-style="normal" 
>
<path vector-effect="none" fill-rule="evenodd" d="M10.1953,-7.08105 C10.3073,-6.78711 10.4858,-6.26921 10.7307,-5.52734 C10.9757,-4.78548 11.1191,-3.86865 11.1611,-2.77686 C11.2031,-1.68506 11.0597,-0.428792 10.7307,0.991943 C10.4018,2.41268 9.75439,3.94889 8.78857,5.60059 L9.04053,8.95996 L5.76514,11.8994 L5.21924,10.2617 C4.3234,10.9756 3.36808,11.553 2.35327,11.9939 C1.33846,12.4348 0.341146,12.7708 -0.638672,13.0017 C-1.61849,13.2327 -2.52832,13.3901 -3.36816,13.4741 C-4.20801,13.5581 -4.88688,13.6001 -5.40479,13.6001 L-9.58301,16.7075 L-9.66699,16.7075 C-9.75098,16.7635 -9.82796,16.7565 -9.89795,16.6865 C-9.96794,16.6165 -10.0029,16.5256 -10.0029,16.4136 L-10.0029,16.2246 L-8.84814,12.4453 L-11.0107,9.08594 C-11.0667,9.00195 -11.0947,8.93197 -11.0947,8.87598 C-11.0947,8.79199 -11.0632,8.71501 -11.0002,8.64502 C-10.9373,8.57503 -10.8778,8.54004 -10.8218,8.54004 L-10.6538,8.54004 L-5.76172,10.5977 C-4.58594,10.4857 -3.60262,10.1217 -2.81177,9.50586 C-2.02091,8.88997 -1.38053,8.1936 -0.890625,7.41675 C-0.400716,6.63989 -0.0367839,5.88753 0.201172,5.15967 C0.439128,4.4318 0.607096,3.8929 0.705078,3.54297 C0.817057,2.96908 1.01652,2.25871 1.30347,1.41187 C1.59041,0.565023 1.95435,-0.323812 2.39526,-1.25464 C2.83618,-2.18547 3.34359,-3.0883 3.91748,-3.96313 C4.49137,-4.83797 5.10726,-5.57633 5.76514,-6.17822 L7.40283,-7.71094 C7.12288,-7.13704 6.90243,-6.54215 6.74146,-5.92627 C6.58049,-5.31038 6.44401,-4.74349 6.33203,-4.22559 C6.22005,-3.6237 6.11507,-3.02181 6.01709,-2.41992 C6.66097,-3.28776 7.23486,-4.06462 7.73877,-4.75049 C8.20068,-5.32438 8.6626,-5.85628 9.12451,-6.34619 C9.58643,-6.8361 9.94336,-7.08105 10.1953,-7.08105 M7.65479,-0.530273 C7.71077,-0.250326 7.84725,-0.0158691 8.06421,0.173096 C8.28117,0.362061 8.55062,0.428548 8.87256,0.372559 C9.09652,0.316569 9.28898,0.180094 9.44995,-0.0368652 C9.61092,-0.253825 9.65641,-0.481283 9.58643,-0.719238 C9.58643,-0.999186 9.47445,-1.23364 9.25049,-1.42261 C9.02653,-1.61157 8.76758,-1.67806 8.47363,-1.62207 C8.22168,-1.55208 8.00822,-1.42611 7.83325,-1.24414 C7.65828,-1.06217 7.5988,-0.824219 7.65479,-0.530273 M-5.40479,2.09424 C-5.97868,1.82829 -6.46859,1.49585 -6.87451,1.09692 C-7.28044,0.697998 -7.57438,0.239583 -7.75635,-0.27832 C-7.93831,-0.796224 -8.0293,-1.34212 -8.0293,-1.91602 C-8.0293,-2.48991 -7.93132,-3.0638 -7.73535,-3.6377 C-7.44141,-4.40755 -7.07397,-5.10042 -6.63306,-5.71631 C-6.19214,-6.33219 -5.75472,-6.89209 -5.3208,-7.396 C-4.88688,-7.8999 -4.51245,-8.33732 -4.19751,-8.70825 C-3.88257,-9.07918 -3.6971,-9.41162 -3.64111,-9.70557 L-2.15039,-9.60059 C-2.37435,-9.12467 -2.69279,-8.66276 -3.10571,-8.21484 C-3.51864,-7.76693 -3.95605,-7.31551 -4.41797,-6.8606 C-4.87988,-6.40568 -5.3173,-5.92627 -5.73022,-5.42236 C-6.14315,-4.91846 -6.45459,-4.37956 -6.66455,-3.80566 C-7.05648,-2.76986 -7.10897,-1.79354 -6.82202,-0.876709 C-6.53507,0.0401204 -5.8527,0.729492 -4.7749,1.19141 C-3.76709,1.55534 -2.75228,1.30688 -1.73047,0.446045 C-0.708659,-0.414795 0.131185,-1.91602 0.789063,-4.05762 C0.761068,-3.97363 0.740072,-3.65869 0.726074,-3.11279 C0.712077,-2.56689 0.705078,-1.993 0.705078,-1.39111 L0.705078,1.00244 C0.635091,0.806478 0.572103,0.610514 0.516113,0.414551 C0.460124,0.260579 0.411133,0.106608 0.369141,-0.0473633 C0.327148,-0.201335 0.278158,-0.306315 0.222168,-0.362305 C0.0262044,0.211589 -0.27474,0.704997 -0.680664,1.11792 C-1.08659,1.53084 -1.545,1.84578 -2.05591,2.06274 C-2.56681,2.2797 -3.10921,2.39518 -3.68311,2.40918 C-4.257,2.42318 -4.83089,2.3182 -5.40479,2.09424 "/>
</g>

<g fill="#1f78b4" fill-opacity="1" stroke="none" transform="matrix(1,0,0,1,0,0)"
font-family="MS Shell Dlg 2" font-size="7.8" font-weight="400" font-style="normal" 
>
</g>
</g>
</svg>
