<svg xmlns="http://www.w3.org/2000/svg" version="1.2" viewBox="0 0 42.52 42.52" height="56.693" width="56.693">
   <g stroke-linejoin="bevel" stroke-linecap="square" fill-rule="evenodd" stroke="none" fill="none" font-weight="400"
      font-size="7.8" font-family="'MS Shell Dlg 2'">
      <path
         d="M42.52 21.26C42.52 33 33 42.52 21.26 42.52 9.518 42.52 0 33 0 21.26 0 9.518 9.518 0 21.26 0 33 0 42.52 9.518 42.52 21.26"
         vector-effect="non-scaling-stroke" fill="#1f78b4" />
      <path
         d="M20.39 20.33l1.218 6.656h-3.737l-2.583-5.627-3.065 5.732H8.737l1.386-6.929 5.165-4.052 5.102 4.22m7.286-8.776h-1.869v-.42l1.428-1.68.525.61.588-.61 1.427 1.68v.42h-2.099m2.435 3.926c.756 0 1.369.277 1.838.83.468.553.703 1.165.703 1.837v6.089c0 .322-.084.56-.252.714-.168.154-.346.23-.535.23-.19 0-.371-.076-.546-.23-.175-.154-.263-.392-.263-.714v-5.921h-.672v15.768c0 .322-.108.591-.325.808a1.098 1.098 0 01-.808.326c-.308 0-.578-.109-.809-.326a1.064 1.064 0 01-.346-.808v-9.028h-.693v9.028c0 .322-.116.591-.347.808-.23.217-.5.326-.808.326-.322 0-.588-.109-.798-.326a1.117 1.117 0 01-.315-.808V18.315h-.819v5.92c0 .323-.08.56-.241.715a.758.758 0 01-.535.23.758.758 0 01-.536-.23c-.16-.154-.241-.392-.241-.714v-6.09c0-.755.252-1.388.756-1.9.504-.51 1.126-.766 1.868-.766h4.724m-5.417-2.54c-.252 0-.378-.12-.378-.357 0-.224.126-.336.378-.336h6.11a.56.56 0 01.252.063c.084.042.126.133.126.273 0 .084-.042.164-.126.241a.377.377 0 01-.252.116h-1.029v.168c0 .546-.21 1.018-.63 1.417-.42.399-.881.598-1.385.598-.574 0-1.057-.2-1.449-.598a1.954 1.954 0 01-.588-1.417v-.168h-1.029m-7.306 2.267c-.056 0-.112-.056-.168-.168-.056-.112-.203-.168-.441-.168h-1.49V12.08h1.49c.238 0 .385.056.44.168a.977.977 0 00.169.252c.168.182.357.273.567.273h1.28v2.708h-1.28c-.21 0-.4-.09-.567-.273"
         fill-opacity=".949" fill="#fff" />
   </g>
</svg>