<?xml version="1.0" encoding="UTF-8" standalone="no"?>
<svg
   xmlns:dc="http://purl.org/dc/elements/1.1/"
   xmlns:cc="http://creativecommons.org/ns#"
   xmlns:rdf="http://www.w3.org/1999/02/22-rdf-syntax-ns#"
   xmlns:svg="http://www.w3.org/2000/svg"
   xmlns="http://www.w3.org/2000/svg"
   xmlns:sodipodi="http://sodipodi.sourceforge.net/DTD/sodipodi-0.dtd"
   xmlns:inkscape="http://www.inkscape.org/namespaces/inkscape"
   inkscape:version="1.0 (4035a4fb49, 2020-05-01)"
   sodipodi:docname="1010.svg"
   id="svg20"
   version="1.2"
   viewBox="0 0 42.519639 42.519639"
   height="14.999999mm"
   width="14.999999mm">
  <metadata
     id="metadata24">
    <rdf:RDF>
      <cc:Work
         rdf:about="">
        <dc:format>image/svg+xml</dc:format>
        <dc:type
           rdf:resource="http://purl.org/dc/dcmitype/StillImage" />
        <dc:title>Qt SVG Document</dc:title>
      </cc:Work>
    </rdf:RDF>
  </metadata>
  <sodipodi:namedview
     inkscape:current-layer="svg20"
     inkscape:window-maximized="1"
     inkscape:window-y="-9"
     inkscape:window-x="-9"
     inkscape:cy="30.337505"
     inkscape:cx="5.8449971"
     inkscape:zoom="6.3809115"
     fit-margin-bottom="0"
     fit-margin-right="0"
     fit-margin-left="0"
     fit-margin-top="0"
     showgrid="false"
     id="namedview22"
     inkscape:window-height="1013"
     inkscape:window-width="1920"
     inkscape:pageshadow="2"
     inkscape:pageopacity="0"
     guidetolerance="10"
     gridtolerance="10"
     objecttolerance="10"
     borderopacity="1"
     bordercolor="#666666"
     pagecolor="#ffffff" />
  <title
     id="title2">Qt SVG Document</title>
  <desc
     id="desc4">Generated with Qt</desc>
  <defs
     id="defs6" />
  <g
     transform="translate(5.25984,5.25984)"
     id="g18"
     stroke-linejoin="bevel"
     stroke-linecap="square"
     fill-rule="evenodd"
     stroke-width="1"
     stroke="#000000"
     fill="none">
    <g
       id="g10"
       font-style="normal"
       font-weight="400"
       font-size="7.8px"
       font-family="'MS Shell Dlg 2'"
       stroke="none"
       fill-opacity="1"
       fill="#1f78b4">
      <path
         id="path8"
         d="M 37.2598,16 C 37.2598,27.7415 27.7415,37.2598 16,37.2598 4.25851,37.2598 -5.25984,27.7415 -5.25984,16 -5.25984,4.25851 4.25851,-5.25984 16,-5.25984 27.7415,-5.25984 37.2598,4.25851 37.2598,16"
         fill-rule="evenodd"
         vector-effect="non-scaling-stroke" />
    </g>
    <g
       id="g14"
       font-style="normal"
       font-weight="400"
       font-size="7.8px"
       font-family="'MS Shell Dlg 2'"
       transform="translate(15.4331,12.5984)"
       stroke="none"
       fill-opacity="0.94902"
       fill="#ffffff">
      <path
         id="path12"
         d="M -0.302734,2.47217 0.915039,9.12793 H -2.82227 L -5.40479,3.50098 -8.47021,9.23291 h -3.48539 l 1.3858,-6.92871 5.16501,-4.05225 5.102056,4.22022 M 6.98291,-6.3042 H 5.11426 v -0.41992 l 1.42773,-1.67969 0.5249,0.60889 0.5879,-0.60889 1.42773,1.67969 V -6.3042 H 7.23486 6.98291 m 2.43555,3.92627 c 0.75584,0 1.36824,0.27645 1.83714,0.82935 0.4689,0.552893 0.7034,1.165279 0.7034,1.837154 V 6.37744 c 0,0.32194 -0.084,0.5599 -0.252,0.71387 -0.1679,0.15397 -0.3464,0.23096 -0.5354,0.23096 -0.1889,0 -0.3709,-0.07699 -0.5459,-0.23096 C 10.4508,6.93734 10.3633,6.69938 10.3633,6.37744 V 0.456543 H 9.69141 V 16.2246 c 0,0.3219 -0.10848,0.5914 -0.32544,0.8084 -0.21696,0.2169 -0.48641,0.3254 -0.80835,0.3254 -0.30795,0 -0.5774,-0.1085 -0.80835,-0.3254 C 7.51831,16.816 7.40283,16.5465 7.40283,16.2246 V 7.19629 H 6.70996 v 9.02831 c 0,0.3219 -0.11548,0.5914 -0.34643,0.8084 -0.23096,0.2169 -0.50041,0.3254 -0.80835,0.3254 -0.32194,0 -0.58789,-0.1085 -0.79786,-0.3254 C 4.54736,16.816 4.44238,16.5465 4.44238,16.2246 V 0.456543 H 3.62354 V 6.37744 c 0,0.32194 -0.08049,0.5599 -0.24146,0.71387 C 3.22111,7.24528 3.04264,7.32227 2.84668,7.32227 2.65072,7.32227 2.47225,7.24528 2.31128,7.09131 2.15031,6.93734 2.06982,6.69938 2.06982,6.37744 V 0.288574 c 0,-0.755859 0.25196,-1.389244 0.75586,-1.900144 0.50391,-0.51091 1.12679,-0.76636 1.86866,-0.76636 h 4.72412 m -5.417,-2.54053 c -0.25195,0 -0.37792,-0.11897 -0.37792,-0.35693 0,-0.22396 0.12597,-0.33594 0.37792,-0.33594 h 6.10984 c 0.084,0 0.168,0.021 0.252,0.06299 0.084,0.04199 0.126,0.13298 0.126,0.27295 0,0.08398 -0.042,0.16447 -0.126,0.24145 -0.084,0.07699 -0.168,0.11548 -0.252,0.11548 H 9.08252 v 0.16797 c 0,0.5459 -0.20996,1.01831 -0.62988,1.41724 -0.41993,0.39892 -0.88184,0.59839 -1.38575,0.59839 -0.57389,0 -1.0568,-0.19947 -1.44873,-0.59839 C 5.22624,-3.73218 5.03027,-4.20459 5.03027,-4.75049 V -4.91846 H 4.00146 m -7.30664,2.26758 c -0.05599,0 -0.11197,-0.05599 -0.16796,-0.16797 -0.05599,-0.11198 -0.20297,-0.16797 -0.44092,-0.16797 H -5.40479 V -5.7793 h 1.49073 c 0.23795,0 0.38493,0.05599 0.44092,0.16797 0.05599,0.11198 0.11197,0.19597 0.16796,0.25195 0.16797,0.18197 0.35694,0.27295 0.5669,0.27295 h 1.28076 v 2.7085 h -1.28076 c -0.20996,0 -0.39893,-0.09098 -0.5669,-0.27295"
         fill-rule="evenodd"
         vector-effect="none" />
    </g>
    <g
       id="g16"
       font-style="normal"
       font-weight="400"
       font-size="7.8px"
       font-family="'MS Shell Dlg 2'"
       stroke="none"
       fill-opacity="1"
       fill="#1f78b4" />
  </g>
</svg>
