<svg xmlns="http://www.w3.org/2000/svg" version="1.2" viewBox="0 0 42.52 42.52" height="56.693" width="56.693">
   <g stroke-linejoin="bevel" stroke-linecap="square" fill-rule="evenodd" stroke="none" fill="none" font-weight="400"
      font-size="7.8" font-family="'MS Shell Dlg 2'">
      <path
         d="M42.52 21.26C42.52 33 33 42.52 21.26 42.52 9.518 42.52 0 33 0 21.26 0 9.518 9.518 0 21.26 0 33 0 42.52 9.518 42.52 21.26"
         vector-effect="non-scaling-stroke" fill="#1f78b4" />
      <path
         d="M16.8 30.829l-.987-.735h11.044l-.86.735H16.8m12.157 3.737v1.554H13.692v-1.554h15.265m-2.1-.462H15.813l1.07-2.981h8.903l1.071 2.98m-1.239-4.87h-8.566v-.861h.86l1.24-18.393v-.126c0-.126.076-.189.23-.189h3.822c.168 0 .28.063.336.19a.322.322 0 01.042.125l1.175 18.393h.861v.86"
         fill-opacity=".949" fill="#fff" />
   </g>
</svg>