<svg xmlns="http://www.w3.org/2000/svg" version="1.2" viewBox="0 0 42.52 42.52" height="56.693" width="56.693">
   <g stroke-linejoin="bevel" stroke-linecap="square" fill-rule="evenodd" stroke="none" fill="none" font-weight="400"
      font-size="7.8" font-family="'MS Shell Dlg 2'">
      <path
         d="M42.52 21.26C42.52 33 33 42.52 21.26 42.52 9.518 42.52 0 33 0 21.26 0 9.518 9.518 0 21.26 0 33 0 42.52 9.518 42.52 21.26"
         vector-effect="non-scaling-stroke" fill="#1f78b4" />
      <path
         d="M26.332 14.053c.154.63.504 1.273 1.05 1.931.252.252.528.466.83.64.3.176.626.333.976.473l-2.247 2.499c0 .056-.056.14-.168.251-.434.406-.966.581-1.596.525-.63-.056-1.175-.343-1.637-.86-.49-.49-.75-1.043-.777-1.66-.028-.615.175-1.126.609-1.532l.252-.252 2.708-2.015m6.152-2.94c.686.756 1.053 1.6 1.102 2.53.05.931-.227 1.711-.83 2.341-.671.574-1.458.795-2.361.662-.903-.133-1.711-.57-2.425-1.313-.686-.742-1.064-1.564-1.134-2.467-.07-.903.224-1.669.882-2.299.602-.546 1.375-.77 2.32-.672.945.098 1.76.504 2.446 1.218m-3.737 3.527c.294.294.56.49.798.588.237.098.45.147.64.147.189 0 .332-.042.43-.126a.42.42 0 00.147-.336.81.81 0 00-.23-.462 3.11 3.11 0 00-.494-.388 13.725 13.725 0 00-.63-.388 2.235 2.235 0 01-.577-.483c-.28-.378-.406-.76-.378-1.145.028-.384.09-.72.189-1.007.098-.287.16-.476.189-.567.028-.091-.084-.004-.336.262-.238.196-.4.466-.483.809-.084.342-.12.71-.105 1.102.014.392.094.766.241 1.123s.347.648.599.871m-1.281 5.648c.028-.07.09-.175.189-.315.098-.14.203-.293.315-.461l.44-.693c.14.49.21.976.21 1.459 0 .483-.125.955-.377 1.417-.182.63-.532 1.204-1.05 1.722-.42.406-.917.686-1.49.84a4.483 4.483 0 01-1.785.105 5.541 5.541 0 01-1.827-.599 5.828 5.828 0 01-1.638-1.291 5.623 5.623 0 01-1.186-1.7 5.11 5.11 0 01-.452-1.848 4.522 4.522 0 01.263-1.764c.203-.56.514-1.057.934-1.49.238-.253.508-.449.809-.589.3-.14.605-.259.913-.357a2.938 2.938 0 011.449-.314c.532.014 1.07.09 1.616.23l-.86.441c-.238.112-.441.217-.61.315a2.153 2.153 0 00-.293.19c-.574.545-.84 1.228-.798 2.046.042.82.364 1.558.966 2.215.63.63 1.357 1.015 2.183 1.155.406 0 .788-.056 1.145-.168.357-.112.668-.294.934-.546m-6.278-4.829c0 .056-.042.126-.126.21a2.58 2.58 0 00-.462.998 4.007 4.007 0 00-.084 1.312c.042.476.158.955.347 1.438.189.483.479.941.871 1.375.322.406.591.672.808.798.217.126.396.19.536.19s.266-.057.378-.169c0-.112-.063-.227-.19-.346a5.215 5.215 0 00-.472-.389c-.189-.14-.406-.311-.65-.514a3.248 3.248 0 01-.662-.766c-.35-.518-.567-1.008-.65-1.47-.085-.462-.113-.872-.085-1.228a3.11 3.11 0 01.2-.924c.105-.26.185-.43.241-.515m6.446 6.929c-.056.056-.098.084-.126.084-.028 0-.042.028-.042.084-.238.112-.385.196-.441.252-.056 0-.098.014-.126.042-.028.028-.07.042-.126.042-.224.126-.399.189-.525.189h-.168c-.112.056-.315.084-.609.084h-.756a.424.424 0 00-.273-.084.483.483 0 00-.272-.084.418.418 0 01-.273-.105.44.44 0 01-.179-.042.44.44 0 00-.178-.042c-.224-.112-.364-.196-.42-.252-.238-.112-.385-.196-.441-.252a1.316 1.316 0 01-.336-.252l-.389-.273a3.06 3.06 0 01-.388-.336 3.161 3.161 0 00-.294-.41 5.792 5.792 0 01-.315-.409c0-.056-.014-.098-.042-.126-.028-.028-.042-.07-.042-.126a.919.919 0 01-.189-.262 1.933 1.933 0 00-.147-.263.408.408 0 01-.084-.21.408.408 0 00-.084-.21.6.6 0 00-.042-.199.701.701 0 01-.042-.241c-.056-.056-.084-.196-.084-.42a.739.739 0 01-.105-.357v-.777c0-.14.018-.252.053-.336a.65.65 0 00.052-.252v-.042c0-.028.028-.07.084-.126 0-.126.056-.3.168-.525 0-.056.014-.084.042-.084.028 0 .042-.028.042-.084.056-.112.112-.206.168-.283.056-.077.112-.144.168-.2 0-.056.014-.084.042-.084.028 0 .042-.028.042-.084l-.084.084a3.324 3.324 0 00-.85 1.334 3.986 3.986 0 00-.2 1.606c.042.56.193 1.127.452 1.7.259.574.633 1.12 1.123 1.638a5.415 5.415 0 003.128 1.68c.546.084 1.071.063 1.575-.063a3.078 3.078 0 001.365-.756l.168-.168m-9.47 4.766c.155.266.267.543.337.83.07.286.133.556.189.808a4.603 4.603 0 01-.2 1.847 4.474 4.474 0 01-.86 1.533 4.013 4.013 0 01-1.418 1.05 4.92 4.92 0 01-1.827.42 4.683 4.683 0 01-1.952-.284 5.487 5.487 0 01-1.659-.976 5.31 5.31 0 01-1.207-1.49 5.165 5.165 0 01-.599-1.848c-.056-.63.01-1.239.2-1.827a3.98 3.98 0 01.882-1.522c.399-.427.878-.77 1.438-1.029a4.298 4.298 0 011.827-.388c.713-.084 1.441.063 2.183.44l-.588.672c-.63-.196-1.232-.237-1.805-.126a3.174 3.174 0 00-1.47.683 3.33 3.33 0 00-.924 1.25c-.21.489-.287.993-.231 1.51.028.519.172 1.005.43 1.46.26.455.581.847.966 1.176.385.329.83.588 1.334.777.503.189 1.007.27 1.511.241a2.683 2.683 0 001.47-.514c.434-.315.78-.697 1.04-1.145.258-.447.409-.934.45-1.459a2.7 2.7 0 00-.293-1.48l.777-.609m-4.074-.504c-1.12 0-1.637.54-1.553 1.617.056.574.308 1.05.756 1.428a1.99 1.99 0 001.532.483c1.106 0 1.617-.49 1.533-1.47l.609-.525a.44.44 0 00.042.178.44.44 0 01.042.179c.084.742-.109 1.379-.578 1.91-.468.532-1.08.798-1.837.798-.798.056-1.483-.182-2.057-.713-.574-.532-.903-1.141-.987-1.827-.084-.742.108-1.372.577-1.89.47-.518 1.082-.777 1.837-.777h.63l-.42.61h-.126m6.005-3.843c.098.154.203.273.315.357.112.084.21.168.294.252l-6.404 4.85 5.291-6.047c.084.084.168.182.252.294.084.112.168.21.252.294"
         fill-opacity=".949" fill="#fff" />
   </g>
</svg>