<?xml version="1.0" encoding="UTF-8" standalone="no"?>
<svg width="11.25008mm" height="11.25008mm"
 viewBox="-5.3 -5.3 42.52000 42.52000"
 xmlns="http://www.w3.org/2000/svg" xmlns:xlink="http://www.w3.org/1999/xlink"  version="1.2" baseProfile="tiny">
<title>Qt SVG Document</title>
<desc>Generated with Qt</desc>
<defs>
</defs>
<g fill="none" stroke="black" stroke-width="1" fill-rule="evenodd" stroke-linecap="square" stroke-linejoin="bevel" >

<g fill="#1f78b4" fill-opacity="1" stroke="none" transform="matrix(1,0,0,1,0,0)"
font-family="MS Shell Dlg 2" font-size="7.8" font-weight="400" font-style="normal" 
>
<path vector-effect="non-scaling-stroke" fill-rule="evenodd" d="M37.2598,16 C37.2598,27.7415 27.7415,37.2598 16,37.2598 C4.25851,37.2598 -5.25984,27.7415 -5.25984,16 C-5.25984,4.25851 4.25851,-5.25984 16,-5.25984 C27.7415,-5.25984 37.2598,4.25851 37.2598,16 "/>
</g>

<g fill="#ffffff" fill-opacity="0.94902" stroke="none" transform="matrix(1,0,0,1,16,12.0315)"
font-family="MS Shell Dlg 2" font-size="7.8" font-weight="400" font-style="normal" 
>
<path vector-effect="none" fill-rule="evenodd" d="M5.07227,-3.23877 C5.22624,-2.60889 5.57617,-1.96501 6.12207,-1.30713 C6.37402,-1.05518 6.65047,-0.841715 6.95142,-0.666748 C7.25236,-0.491781 7.5778,-0.33431 7.92773,-0.194336 L5.68115,2.3042 C5.68115,2.36019 5.62516,2.44417 5.51318,2.55615 C5.07926,2.96208 4.54736,3.13704 3.91748,3.08105 C3.2876,3.02507 2.7417,2.73812 2.27979,2.22021 C1.78988,1.73031 1.53092,1.17741 1.50293,0.561523 C1.47493,-0.054362 1.6779,-0.565267 2.11182,-0.971191 L2.36377,-1.22314 L5.07227,-3.23877 M11.2241,-6.17822 C11.91,-5.42236 12.2774,-4.57902 12.3264,-3.64819 C12.3754,-2.71737 12.099,-1.93701 11.4971,-1.30713 C10.8252,-0.733236 10.0378,-0.512777 9.13501,-0.645752 C8.23218,-0.778727 7.42383,-1.21615 6.70996,-1.95801 C6.02409,-2.69987 5.64616,-3.52222 5.57617,-4.42505 C5.50618,-5.32788 5.80013,-6.09424 6.45801,-6.72412 C7.0599,-7.27002 7.83325,-7.49398 8.77808,-7.396 C9.7229,-7.29801 10.5382,-6.89209 11.2241,-6.17822 M7.48682,-2.65088 C7.78076,-2.35693 8.04671,-2.16097 8.28467,-2.06299 C8.52262,-1.96501 8.73608,-1.91602 8.92505,-1.91602 C9.11401,-1.91602 9.25749,-1.95801 9.35547,-2.04199 C9.45345,-2.12598 9.50244,-2.23796 9.50244,-2.37793 C9.47445,-2.5599 9.39746,-2.71387 9.27148,-2.83984 C9.14551,-2.96582 8.98104,-3.0953 8.77808,-3.22827 C8.57511,-3.36125 8.36515,-3.49072 8.14819,-3.6167 C7.93123,-3.74268 7.73877,-3.90365 7.5708,-4.09961 C7.29085,-4.47754 7.16488,-4.85897 7.19287,-5.2439 C7.22087,-5.62882 7.28385,-5.96476 7.38184,-6.25171 C7.47982,-6.53866 7.54281,-6.72762 7.5708,-6.8186 C7.5988,-6.90959 7.48682,-6.8221 7.23486,-6.55615 C6.99691,-6.36019 6.83594,-6.09074 6.75195,-5.7478 C6.66797,-5.40487 6.63298,-5.03743 6.64697,-4.64551 C6.66097,-4.25358 6.74146,-3.87915 6.88843,-3.52222 C7.0354,-3.16528 7.23486,-2.87484 7.48682,-2.65088 M6.20605,2.99707 C6.23405,2.92708 6.29704,2.8221 6.39502,2.68213 C6.493,2.54215 6.59798,2.38818 6.70996,2.22021 L7.15088,1.52734 C7.29085,2.01725 7.36084,2.50366 7.36084,2.98657 C7.36084,3.46948 7.23486,3.94189 6.98291,4.40381 C6.80094,5.03369 6.45101,5.60758 5.93311,6.12549 C5.51318,6.53141 5.01628,6.81136 4.44238,6.96533 C3.86849,7.1193 3.2736,7.1543 2.65771,7.07031 C2.04183,6.98633 1.43294,6.78687 0.831055,6.47192 C0.229167,6.15698 -0.316732,5.72656 -0.806641,5.18066 C-1.32454,4.66276 -1.71997,4.09587 -1.99292,3.47998 C-2.26587,2.8641 -2.41634,2.24821 -2.44434,1.63232 C-2.47233,1.01644 -2.38485,0.428548 -2.18188,-0.131348 C-1.97892,-0.691243 -1.66748,-1.18815 -1.24756,-1.62207 C-1.0096,-1.87402 -0.740153,-2.06999 -0.439209,-2.20996 C-0.138265,-2.34993 0.166178,-2.46891 0.474121,-2.56689 C0.90804,-2.79085 1.39095,-2.89583 1.92285,-2.88184 C2.45475,-2.86784 2.99365,-2.79085 3.53955,-2.65088 L2.67871,-2.20996 C2.44076,-2.09798 2.23779,-1.993 2.06982,-1.89502 C1.90186,-1.79704 1.80387,-1.73405 1.77588,-1.70605 C1.20199,-1.16016 0.936035,-0.477783 0.978027,0.341064 C1.02002,1.15991 1.34196,1.89827 1.94385,2.55615 C2.57373,3.18604 3.3016,3.57096 4.12744,3.71094 C4.53337,3.71094 4.91479,3.65495 5.27173,3.54297 C5.62866,3.43099 5.9401,3.24902 6.20605,2.99707 M-0.0717773,-1.83203 C-0.0717773,-1.77604 -0.11377,-1.70605 -0.197754,-1.62207 C-0.407715,-1.35612 -0.561686,-1.02368 -0.659668,-0.624756 C-0.75765,-0.22583 -0.785645,0.211589 -0.743652,0.6875 C-0.70166,1.16341 -0.586182,1.64282 -0.397217,2.12573 C-0.208252,2.60864 0.082194,3.06706 0.474121,3.50098 C0.796061,3.9069 1.06551,4.17285 1.28247,4.29883 C1.49943,4.4248 1.6779,4.48779 1.81787,4.48779 C1.95785,4.48779 2.08382,4.4318 2.1958,4.31982 C2.1958,4.20785 2.13281,4.09237 2.00684,3.97339 C1.88086,3.85441 1.72339,3.72493 1.53442,3.58496 C1.34546,3.44499 1.1285,3.27352 0.883545,3.07056 C0.63859,2.86759 0.418132,2.61214 0.222168,2.3042 C-0.127767,1.7863 -0.344727,1.29639 -0.428711,0.834473 C-0.512695,0.372559 -0.54069,-0.0368652 -0.512695,-0.393799 C-0.484701,-0.750732 -0.418213,-1.05868 -0.313232,-1.31763 C-0.208252,-1.57658 -0.127767,-1.74805 -0.0717773,-1.83203 M6.37402,5.09668 C6.31803,5.15267 6.27604,5.18066 6.24805,5.18066 C6.22005,5.18066 6.20605,5.20866 6.20605,5.26465 C5.9681,5.37663 5.82113,5.46061 5.76514,5.5166 C5.70915,5.5166 5.66715,5.5306 5.63916,5.55859 C5.61117,5.58659 5.56917,5.60059 5.51318,5.60059 C5.28923,5.72656 5.11426,5.78955 4.98828,5.78955 L4.82031,5.78955 C4.70833,5.84554 4.50537,5.87354 4.21143,5.87354 L4.04346,5.87354 L3.45557,5.87354 C3.38558,5.81755 3.2946,5.78955 3.18262,5.78955 C3.09863,5.73356 3.00765,5.70557 2.90967,5.70557 C2.81169,5.70557 2.7207,5.67057 2.63672,5.60059 C2.58073,5.60059 2.52124,5.58659 2.45825,5.55859 C2.39526,5.5306 2.33577,5.5166 2.27979,5.5166 C2.05583,5.40462 1.91585,5.32064 1.85986,5.26465 C1.62191,5.15267 1.47493,5.06868 1.41895,5.0127 C1.30697,4.95671 1.19499,4.87272 1.08301,4.76074 C0.943034,4.66276 0.813558,4.57178 0.69458,4.48779 C0.575602,4.40381 0.446126,4.29183 0.306152,4.15186 C0.222168,4.01188 0.124186,3.87541 0.012207,3.74243 C-0.0997721,3.60946 -0.204753,3.47298 -0.302734,3.33301 C-0.302734,3.27702 -0.316732,3.23503 -0.344727,3.20703 C-0.372721,3.17904 -0.386719,3.13704 -0.386719,3.08105 C-0.470703,2.99707 -0.533691,2.90959 -0.575684,2.8186 C-0.617676,2.72762 -0.666667,2.64014 -0.722656,2.55615 C-0.778646,2.47217 -0.806641,2.40218 -0.806641,2.34619 C-0.806641,2.2902 -0.834635,2.22021 -0.890625,2.13623 C-0.890625,2.08024 -0.904622,2.01375 -0.932617,1.93677 C-0.960612,1.85978 -0.974609,1.7793 -0.974609,1.69531 C-1.0306,1.63932 -1.05859,1.49935 -1.05859,1.27539 C-1.12858,1.14941 -1.16357,1.03044 -1.16357,0.918457 L-1.16357,0.414551 L-1.16357,0.141602 C-1.16357,0.0016276 -1.14608,-0.110352 -1.11108,-0.194336 C-1.07609,-0.27832 -1.05859,-0.362305 -1.05859,-0.446289 L-1.05859,-0.488281 C-1.05859,-0.516276 -1.0306,-0.558268 -0.974609,-0.614258 C-0.974609,-0.740234 -0.91862,-0.915202 -0.806641,-1.13916 C-0.806641,-1.19515 -0.792643,-1.22314 -0.764648,-1.22314 C-0.736654,-1.22314 -0.722656,-1.25114 -0.722656,-1.30713 C-0.666667,-1.41911 -0.610677,-1.51359 -0.554688,-1.59058 C-0.498698,-1.66756 -0.442708,-1.73405 -0.386719,-1.79004 C-0.386719,-1.84603 -0.372721,-1.87402 -0.344727,-1.87402 C-0.316732,-1.87402 -0.302734,-1.90202 -0.302734,-1.95801 L-0.386719,-1.87402 C-0.778646,-1.49609 -1.06209,-1.05168 -1.23706,-0.540771 C-1.41203,-0.0298665 -1.47852,0.505534 -1.43652,1.06543 C-1.39453,1.62533 -1.24406,2.19222 -0.985107,2.76611 C-0.726156,3.34001 -0.351725,3.8859 0.138184,4.40381 C0.600098,4.89372 1.1005,5.27515 1.6394,5.5481 C2.1783,5.82104 2.7207,5.99951 3.2666,6.0835 C3.8125,6.16748 4.3374,6.14648 4.84131,6.02051 C5.34521,5.89453 5.80013,5.64258 6.20605,5.26465 L6.37402,5.09668 M-3.09521,9.86279 C-2.94124,10.1287 -2.82926,10.4052 -2.75928,10.6921 C-2.68929,10.9791 -2.6263,11.2485 -2.57031,11.5005 C-2.51432,12.1584 -2.58081,12.7743 -2.76978,13.3481 C-2.95874,13.922 -3.24569,14.4329 -3.63062,14.8809 C-4.01554,15.3288 -4.48796,15.6787 -5.04785,15.9307 C-5.60775,16.1826 -6.21663,16.3226 -6.87451,16.3506 C-7.56038,16.3926 -8.21126,16.2981 -8.82715,16.0671 C-9.44303,15.8362 -9.99593,15.5107 -10.4858,15.0908 C-10.9757,14.6709 -11.3782,14.174 -11.6931,13.6001 C-12.0081,13.0262 -12.2075,12.4103 -12.2915,11.7524 C-12.3475,11.1226 -12.281,10.5137 -12.092,9.92578 C-11.9031,9.33789 -11.6091,8.83049 -11.2102,8.40356 C-10.8113,7.97664 -10.3319,7.63371 -9.77197,7.37476 C-9.21208,7.1158 -8.60319,6.98633 -7.94531,6.98633 C-7.23145,6.90234 -6.50358,7.04932 -5.76172,7.42725 L-6.34961,8.09912 C-6.97949,7.90316 -7.58138,7.86117 -8.15527,7.97314 C-8.72917,8.08512 -9.21908,8.31258 -9.625,8.65552 C-10.0309,8.99845 -10.3389,9.41488 -10.5488,9.90479 C-10.7588,10.3947 -10.8358,10.8986 -10.7798,11.4165 C-10.7518,11.9344 -10.6083,12.4208 -10.3494,12.8757 C-10.0904,13.3306 -9.76847,13.7226 -9.38354,14.0515 C-8.99862,14.3805 -8.5542,14.6394 -8.05029,14.8284 C-7.54639,15.0173 -7.04248,15.0978 -6.53857,15.0698 C-5.99268,15.0418 -5.50277,14.8704 -5.06885,14.5554 C-4.63493,14.2405 -4.28849,13.859 -4.02954,13.4111 C-3.77059,12.9632 -3.62012,12.4768 -3.57813,11.9519 C-3.53613,11.427 -3.63411,10.9336 -3.87207,10.4717 L-3.09521,9.86279 M-7.16846,9.35889 C-8.28825,9.35889 -8.80615,9.89779 -8.72217,10.9756 C-8.66618,11.5495 -8.41423,12.0254 -7.96631,12.4033 C-7.51839,12.7813 -7.00749,12.9422 -6.43359,12.8862 C-5.3278,12.8862 -4.81689,12.3963 -4.90088,11.4165 L-4.29199,10.8916 C-4.29199,10.9476 -4.27799,11.0071 -4.25,11.0701 C-4.22201,11.1331 -4.20801,11.1925 -4.20801,11.2485 C-4.12402,11.9904 -4.31649,12.6273 -4.7854,13.1592 C-5.25431,13.6911 -5.8667,13.957 -6.62256,13.957 C-7.42041,14.013 -8.10628,13.7751 -8.68018,13.2432 C-9.25407,12.7113 -9.58301,12.1024 -9.66699,11.4165 C-9.75098,10.6746 -9.55851,10.0448 -9.0896,9.52686 C-8.62069,9.00895 -8.0083,8.75 -7.25244,8.75 L-6.62256,8.75 L-7.04248,9.35889 L-7.16846,9.35889 M-1.16357,5.5166 C-1.06559,5.67057 -0.960612,5.78955 -0.848633,5.87354 C-0.736654,5.95752 -0.638672,6.0415 -0.554688,6.12549 L-6.9585,10.9756 L-1.66748,4.92871 C-1.5835,5.0127 -1.49951,5.11068 -1.41553,5.22266 C-1.33154,5.33464 -1.24756,5.43262 -1.16357,5.5166 "/>
</g>

<g fill="#1f78b4" fill-opacity="1" stroke="none" transform="matrix(1,0,0,1,0,0)"
font-family="MS Shell Dlg 2" font-size="7.8" font-weight="400" font-style="normal" 
>
</g>
</g>
</svg>
