<?xml version="1.0" encoding="UTF-8" standalone="no"?>
<svg
   xmlns:dc="http://purl.org/dc/elements/1.1/"
   xmlns:cc="http://creativecommons.org/ns#"
   xmlns:rdf="http://www.w3.org/1999/02/22-rdf-syntax-ns#"
   xmlns:svg="http://www.w3.org/2000/svg"
   xmlns="http://www.w3.org/2000/svg"
   xmlns:sodipodi="http://sodipodi.sourceforge.net/DTD/sodipodi-0.dtd"
   xmlns:inkscape="http://www.inkscape.org/namespaces/inkscape"
   inkscape:version="1.0 (4035a4fb49, 2020-05-01)"
   sodipodi:docname="1012.svg"
   id="svg20"
   version="1.2"
   viewBox="0 0 42.519639 42.519639"
   height="14.999999mm"
   width="14.999999mm">
  <metadata
     id="metadata24">
    <rdf:RDF>
      <cc:Work
         rdf:about="">
        <dc:format>image/svg+xml</dc:format>
        <dc:type
           rdf:resource="http://purl.org/dc/dcmitype/StillImage" />
        <dc:title>Qt SVG Document</dc:title>
      </cc:Work>
    </rdf:RDF>
  </metadata>
  <sodipodi:namedview
     inkscape:current-layer="svg20"
     inkscape:window-maximized="1"
     inkscape:window-y="-9"
     inkscape:window-x="-9"
     inkscape:cy="35.074079"
     inkscape:cx="4.9537593"
     inkscape:zoom="9.0239716"
     fit-margin-bottom="0"
     fit-margin-right="0"
     fit-margin-left="0"
     fit-margin-top="0"
     showgrid="false"
     id="namedview22"
     inkscape:window-height="1013"
     inkscape:window-width="1920"
     inkscape:pageshadow="2"
     inkscape:pageopacity="0"
     guidetolerance="10"
     gridtolerance="10"
     objecttolerance="10"
     borderopacity="1"
     bordercolor="#666666"
     pagecolor="#ffffff" />
  <title
     id="title2">Qt SVG Document</title>
  <desc
     id="desc4">Generated with Qt</desc>
  <defs
     id="defs6" />
  <g
     transform="translate(5.25984,5.25984)"
     id="g18"
     stroke-linejoin="bevel"
     stroke-linecap="square"
     fill-rule="evenodd"
     stroke-width="1"
     stroke="#000000"
     fill="none">
    <g
       id="g10"
       font-style="normal"
       font-weight="400"
       font-size="7.8px"
       font-family="'MS Shell Dlg 2'"
       stroke="none"
       fill-opacity="1"
       fill="#1f78b4">
      <path
         id="path8"
         d="M 37.2598,16 C 37.2598,27.7415 27.7415,37.2598 16,37.2598 4.25851,37.2598 -5.25984,27.7415 -5.25984,16 -5.25984,4.25851 4.25851,-5.25984 16,-5.25984 27.7415,-5.25984 37.2598,4.25851 37.2598,16"
         fill-rule="evenodd"
         vector-effect="non-scaling-stroke" />
    </g>
    <g
       id="g14"
       font-style="normal"
       font-weight="400"
       font-size="7.8px"
       font-family="'MS Shell Dlg 2'"
       transform="translate(16,12.0315)"
       stroke="none"
       fill-opacity="0.94902"
       fill="#ffffff">
      <path
         id="path12"
         d="m 5.07227,-3.23877 c 0.15397,0.62988 0.5039,1.27376 1.0498,1.93164 0.25195,0.25195 0.5284,0.465415 0.82935,0.640382 0.30094,0.174967 0.62638,0.332438 0.97631,0.472412 L 5.68115,2.3042 c 0,0.05599 -0.05599,0.13997 -0.16797,0.25195 C 5.07926,2.96208 4.54736,3.13704 3.91748,3.08105 3.2876,3.02507 2.7417,2.73812 2.27979,2.22021 1.78988,1.73031 1.53092,1.17741 1.50293,0.561523 1.47493,-0.054362 1.6779,-0.565267 2.11182,-0.971191 l 0.25195,-0.251949 2.7085,-2.01563 m 6.15183,-2.93945 c 0.6859,0.75586 1.0533,1.5992 1.1023,2.53003 0.049,0.93082 -0.2274,1.71118 -0.8293,2.34106 -0.6719,0.573894 -1.4593,0.794353 -2.36209,0.661378 C 8.23218,-0.778727 7.42383,-1.21615 6.70996,-1.95801 6.02409,-2.69987 5.64616,-3.52222 5.57617,-4.42505 5.50618,-5.32788 5.80013,-6.09424 6.45801,-6.72412 7.0599,-7.27002 7.83325,-7.49398 8.77808,-7.396 c 0.94482,0.09799 1.76012,0.50391 2.44602,1.21778 m -3.73728,3.52734 c 0.29394,0.29395 0.55989,0.48991 0.79785,0.58789 0.23795,0.09798 0.45141,0.14697 0.64038,0.14697 0.18896,0 0.33244,-0.04199 0.43042,-0.12597 C 9.45345,-2.12598 9.50244,-2.23796 9.50244,-2.37793 9.47445,-2.5599 9.39746,-2.71387 9.27148,-2.83984 9.14551,-2.96582 8.98104,-3.0953 8.77808,-3.22827 8.57511,-3.36125 8.36515,-3.49072 8.14819,-3.6167 7.93123,-3.74268 7.73877,-3.90365 7.5708,-4.09961 7.29085,-4.47754 7.16488,-4.85897 7.19287,-5.2439 7.22087,-5.62882 7.28385,-5.96476 7.38184,-6.25171 7.47982,-6.53866 7.54281,-6.72762 7.5708,-6.8186 7.5988,-6.90959 7.48682,-6.8221 7.23486,-6.55615 6.99691,-6.36019 6.83594,-6.09074 6.75195,-5.7478 c -0.08398,0.34293 -0.11897,0.71037 -0.10498,1.10229 0.014,0.39193 0.09449,0.76636 0.24146,1.12329 0.14697,0.35694 0.34643,0.64738 0.59839,0.87134 M 6.20605,2.99707 C 6.23405,2.92708 6.29704,2.8221 6.39502,2.68213 6.493,2.54215 6.59798,2.38818 6.70996,2.22021 L 7.15088,1.52734 c 0.13997,0.48991 0.20996,0.97632 0.20996,1.45923 0,0.48291 -0.12598,0.95532 -0.37793,1.41724 C 6.80094,5.03369 6.45101,5.60758 5.93311,6.12549 5.51318,6.53141 5.01628,6.81136 4.44238,6.96533 3.86849,7.1193 3.2736,7.1543 2.65771,7.07031 2.04183,6.98633 1.43294,6.78687 0.831055,6.47192 0.229167,6.15698 -0.316732,5.72656 -0.806641,5.18066 -1.32454,4.66276 -1.71997,4.09587 -1.99292,3.47998 -2.26587,2.8641 -2.41634,2.24821 -2.44434,1.63232 c -0.02799,-0.61588 0.05949,-1.203772 0.26246,-1.763668 0.20296,-0.559895 0.5144,-1.056802 0.93432,-1.490722 0.23796,-0.25195 0.507407,-0.44792 0.808351,-0.58789 0.300944,-0.13997 0.605387,-0.25895 0.91333,-0.35693 0.433919,-0.22396 0.916829,-0.32894 1.448729,-0.31495 0.5319,0.014 1.0708,0.09099 1.6167,0.23096 L 2.67871,-2.20996 C 2.44076,-2.09798 2.23779,-1.993 2.06982,-1.89502 1.90186,-1.79704 1.80387,-1.73405 1.77588,-1.70605 1.20199,-1.16016 0.936035,-0.477783 0.978027,0.341064 1.02002,1.15991 1.34196,1.89827 1.94385,2.55615 2.57373,3.18604 3.3016,3.57096 4.12744,3.71094 4.53337,3.71094 4.91479,3.65495 5.27173,3.54297 5.62866,3.43099 5.9401,3.24902 6.20605,2.99707 m -6.2778273,-4.8291 c 0,0.05599 -0.0419927,0.12598 -0.1259767,0.20996 -0.209961,0.26595 -0.363932,0.59839 -0.461914,0.997314 -0.097982,0.398926 -0.125977,0.836345 -0.083984,1.312256 0.041992,0.47591 0.15747,0.95532 0.346435,1.43823 0.188965,0.48291 0.479411,0.94133 0.871338,1.37525 C 0.796061,3.9069 1.06551,4.17285 1.28247,4.29883 1.49943,4.4248 1.6779,4.48779 1.81787,4.48779 1.95785,4.48779 2.08382,4.4318 2.1958,4.31982 2.1958,4.20785 2.13281,4.09237 2.00684,3.97339 1.88086,3.85441 1.72339,3.72493 1.53442,3.58496 1.34546,3.44499 1.1285,3.27352 0.883545,3.07056 0.63859,2.86759 0.418132,2.61214 0.222168,2.3042 -0.127767,1.7863 -0.344727,1.29639 -0.428711,0.834473 -0.512695,0.372559 -0.54069,-0.0368652 -0.512695,-0.393799 c 0.027994,-0.356933 0.094482,-0.664881 0.199463,-0.923831 0.10498,-0.25895 0.185465,-0.43042 0.2414547,-0.5144 M 6.37402,5.09668 C 6.31803,5.15267 6.27604,5.18066 6.24805,5.18066 c -0.028,0 -0.042,0.028 -0.042,0.08399 C 5.9681,5.37663 5.82113,5.46061 5.76514,5.5166 c -0.05599,0 -0.09799,0.014 -0.12598,0.04199 -0.02799,0.028 -0.06999,0.042 -0.12598,0.042 C 5.28923,5.72656 5.11426,5.78955 4.98828,5.78955 H 4.82031 C 4.70833,5.84554 4.50537,5.87354 4.21143,5.87354 H 4.04346 3.45557 C 3.38558,5.81755 3.2946,5.78955 3.18262,5.78955 3.09863,5.73356 3.00765,5.70557 2.90967,5.70557 c -0.09798,0 -0.18897,-0.035 -0.27295,-0.10498 -0.05599,0 -0.11548,-0.014 -0.17847,-0.042 C 2.39526,5.5306 2.33577,5.5166 2.27979,5.5166 2.05583,5.40462 1.91585,5.32064 1.85986,5.26465 1.62191,5.15267 1.47493,5.06868 1.41895,5.0127 1.30697,4.95671 1.19499,4.87272 1.08301,4.76074 0.943034,4.66276 0.813558,4.57178 0.69458,4.48779 0.575602,4.40381 0.446126,4.29183 0.306152,4.15186 0.222168,4.01188 0.124186,3.87541 0.012207,3.74243 -0.0997721,3.60946 -0.204753,3.47298 -0.302734,3.33301 c 0,-0.05599 -0.013998,-0.09798 -0.041993,-0.12598 C -0.372721,3.17904 -0.386719,3.13704 -0.386719,3.08105 -0.470703,2.99707 -0.533691,2.90959 -0.575684,2.8186 -0.617676,2.72762 -0.666667,2.64014 -0.722656,2.55615 -0.778646,2.47217 -0.806641,2.40218 -0.806641,2.34619 c 0,-0.05599 -0.027994,-0.12598 -0.083984,-0.20996 0,-0.05599 -0.013997,-0.12248 -0.041992,-0.19946 C -0.960612,1.85978 -0.974609,1.7793 -0.974609,1.69531 -1.0306,1.63932 -1.05859,1.49935 -1.05859,1.27539 -1.12858,1.14941 -1.16357,1.03044 -1.16357,0.918457 V 0.414551 0.141602 c 0,-0.1399744 0.01749,-0.251954 0.05249,-0.335938 0.03499,-0.083984 0.05249,-0.167969 0.05249,-0.251953 v -0.041992 c 0,-0.027995 0.02799,-0.069987 0.083981,-0.125977 0,-0.125976 0.055989,-0.300944 0.167968,-0.524902 0,-0.05599 0.013998,-0.08398 0.041993,-0.08398 0.027994,0 0.041992,-0.028 0.041992,-0.08399 0.055989,-0.11198 0.111979,-0.20646 0.167968,-0.28345 0.05599,-0.07698 0.11198,-0.14347 0.167969,-0.19946 0,-0.05599 0.013998,-0.08398 0.041992,-0.08398 0.027995,0 0.041993,-0.028 0.041993,-0.08399 l -0.083985,0.08399 c -0.391927,0.37793 -0.675371,0.82234 -0.850341,1.333249 -0.17497,0.5109045 -0.24146,1.046305 -0.19946,1.606201 0.04199,0.5599 0.19246,1.12679 0.451413,1.70068 0.258951,0.5739 0.633382,1.11979 1.123291,1.6377 C 0.600098,4.89372 1.1005,5.27515 1.6394,5.5481 2.1783,5.82104 2.7207,5.99951 3.2666,6.0835 3.8125,6.16748 4.3374,6.14648 4.84131,6.02051 5.34521,5.89453 5.80013,5.64258 6.20605,5.26465 L 6.37402,5.09668 m -9.46923,4.76611 c 0.15397,0.26591 0.26595,0.54241 0.33593,0.82931 0.06999,0.287 0.13298,0.5564 0.18897,0.8084 0.05599,0.6579 -0.0105,1.2738 -0.19947,1.8476 -0.18896,0.5739 -0.47591,1.0848 -0.86084,1.5328 -0.38492,0.4479 -0.85734,0.7978 -1.41723,1.0498 -0.5599,0.2519 -1.16878,0.3919 -1.82666,0.4199 -0.68587,0.042 -1.33675,-0.0525 -1.95264,-0.2835 -0.61588,-0.2309 -1.16878,-0.5564 -1.65865,-0.9763 -0.4899,-0.4199 -0.8924,-0.9168 -1.2073,-1.4907 -0.315,-0.5739 -0.5144,-1.1898 -0.5984,-1.8477 -0.056,-0.6298 0.0105,-1.2387 0.1995,-1.82662 0.1889,-0.58789 0.4829,-1.09529 0.8818,-1.52222 0.3989,-0.42692 0.8783,-0.76985 1.43823,-1.0288 0.55989,-0.25896 1.16878,-0.38843 1.82666,-0.38843 0.71386,-0.08399 1.44173,0.06299 2.18359,0.44092 L -6.34961,8.09912 C -6.97949,7.90316 -7.58138,7.86117 -8.15527,7.97314 -8.72917,8.08512 -9.21908,8.31258 -9.625,8.65552 c -0.4059,0.34293 -0.7139,0.75936 -0.9238,1.24927 -0.21,0.48991 -0.287,0.99381 -0.231,1.51171 0.028,0.5179 0.1715,1.0043 0.4304,1.4592 0.259,0.4549 0.58093,0.8469 0.96586,1.1758 0.38492,0.329 0.82934,0.5879 1.33325,0.7769 0.5039,0.1889 1.00781,0.2694 1.51172,0.2414 0.54589,-0.028 1.0358,-0.1994 1.46972,-0.5144 0.43392,-0.3149 0.78036,-0.6964 1.03931,-1.1443 0.25895,-0.4479 0.40942,-0.9343 0.45141,-1.4592 0.042,-0.5249 -0.05598,-1.0183 -0.29394,-1.4802 l 0.77686,-0.60891 m -4.07325,-0.5039 c -1.11979,0 -1.63769,0.5389 -1.55371,1.61671 0.05599,0.5739 0.30794,1.0498 0.75586,1.4277 0.44792,0.378 0.95882,0.5389 1.53272,0.4829 1.10579,0 1.6167,-0.4899 1.53271,-1.4697 l 0.60889,-0.5249 c 0,0.056 0.014,0.1155 0.04199,0.1785 0.02799,0.063 0.04199,0.1224 0.04199,0.1784 0.08399,0.7419 -0.10848,1.3788 -0.57739,1.9107 -0.46891,0.5319 -1.0813,0.7978 -1.83716,0.7978 -0.79785,0.056 -1.48372,-0.1819 -2.05762,-0.7138 C -9.25407,12.7113 -9.58301,12.1024 -9.66699,11.4165 -9.75098,10.6746 -9.55851,10.0448 -9.0896,9.52686 -8.62069,9.00895 -8.0083,8.75 -7.25244,8.75 h 0.62988 L -7.04248,9.35889 H -7.16846 M -1.16357,5.5166 c 0.09798,0.15397 0.202958,0.27295 0.314937,0.35694 0.111979,0.08398 0.209961,0.16796 0.293945,0.25195 L -6.9585,10.9756 -1.66748,4.92871 c 0.08398,0.08399 0.16797,0.18197 0.25195,0.29395 0.08399,0.11198 0.16797,0.20996 0.25196,0.29394"
         fill-rule="evenodd"
         vector-effect="none" />
    </g>
    <g
       id="g16"
       font-style="normal"
       font-weight="400"
       font-size="7.8px"
       font-family="'MS Shell Dlg 2'"
       stroke="none"
       fill-opacity="1"
       fill="#1f78b4" />
  </g>
</svg>
