<?xml version="1.0" encoding="UTF-8" standalone="no"?>
<svg width="11.25008mm" height="11.25008mm"
 viewBox="-5.3 -5.3 42.52000 42.52000"
 xmlns="http://www.w3.org/2000/svg" xmlns:xlink="http://www.w3.org/1999/xlink"  version="1.2" baseProfile="tiny">
<title>Qt SVG Document</title>
<desc>Generated with Qt</desc>
<defs>
</defs>
<g fill="none" stroke="black" stroke-width="1" fill-rule="evenodd" stroke-linecap="square" stroke-linejoin="bevel" >

<g fill="#1f78b4" fill-opacity="1" stroke="none" transform="matrix(1,0,0,1,0,0)"
font-family="MS Shell Dlg 2" font-size="7.8" font-weight="400" font-style="normal" 
>
<path vector-effect="non-scaling-stroke" fill-rule="evenodd" d="M37.2598,16 C37.2598,27.7415 27.7415,37.2598 16,37.2598 C4.25851,37.2598 -5.25984,27.7415 -5.25984,16 C-5.25984,4.25851 4.25851,-5.25984 16,-5.25984 C27.7415,-5.25984 37.2598,4.25851 37.2598,16 "/>
</g>

<g fill="#ffffff" fill-opacity="0.94902" stroke="none" transform="matrix(1,0,0,1,16.5669,13.1654)"
font-family="MS Shell Dlg 2" font-size="7.8" font-weight="400" font-style="normal" 
>
<path vector-effect="none" fill-rule="evenodd" d="M-8.97412,-4.18359 L-2.15039,-4.18359 L-2.15039,4.76074 C-2.15039,5.29264 -2.42334,5.55859 -2.96924,5.55859 L-3.68311,5.55859 L-3.68311,14.293 C-3.68311,14.7829 -3.95605,15.0278 -4.50195,15.0278 L-11.1787,15.0278 C-11.6686,15.0278 -11.9136,14.7829 -11.9136,14.293 L-11.9136,8.87598 L-11.9136,8.05713 L-8.97412,-4.18359 M6.75195,-5.2334 L2.27979,-5.2334 L2.27979,-8.52979 L6.75195,-8.52979 L6.75195,-5.2334 M11.959,8.05713 L11.959,14.293 C11.959,14.7829 11.714,15.0278 11.2241,15.0278 L4.56836,15.0278 C4.07845,15.0278 3.8335,14.7829 3.8335,14.293 L3.8335,5.55859 L3.01465,5.55859 C2.52474,5.55859 2.27979,5.29264 2.27979,4.76074 L2.27979,-4.18359 L9.04053,-4.18359 L11.959,8.05713 M-1.10059,-4.18359 L1.16699,-4.18359 L1.16699,4.10986 L-1.10059,4.10986 L-1.10059,-4.18359 M-6.70654,-8.52979 L-2.15039,-8.52979 L-2.15039,-5.2334 L-6.70654,-5.2334 L-6.70654,-8.52979"/>
</g>

<g fill="#1f78b4" fill-opacity="1" stroke="none" transform="matrix(1,0,0,1,0,0)"
font-family="MS Shell Dlg 2" font-size="7.8" font-weight="400" font-style="normal" 
>
</g>
</g>
</svg>
