<svg xmlns="http://www.w3.org/2000/svg" version="1.2" viewBox="0 0 42.52 42.52" height="56.693" width="56.693">
   <g stroke-linejoin="bevel" stroke-linecap="square" fill-rule="evenodd" stroke="none" fill="none" font-weight="400"
      font-size="7.8" font-family="'MS Shell Dlg 2'">
      <path
         d="M42.52 21.26C42.52 33 33 42.52 21.26 42.52 9.518 42.52 0 33 0 21.26 0 9.518 9.518 0 21.26 0 33 0 42.52 9.518 42.52 21.26"
         vector-effect="non-scaling-stroke" fill="#1f78b4" />
      <path
         d="M12.853 14.242h6.823v8.944c0 .532-.273.798-.818.798h-.714v8.734c0 .49-.273.735-.82.735h-6.676c-.49 0-.735-.245-.735-.735v-6.236l2.94-12.24m15.726-1.05h-4.472V9.895h4.472v3.297m5.207 13.29v6.236c0 .49-.245.735-.735.735h-6.656c-.49 0-.735-.245-.735-.735v-8.734h-.819c-.49 0-.734-.266-.734-.798v-8.944h6.76l2.919 12.24m-13.06-12.24h2.268v8.293h-2.268v-8.293M15.12 9.895h4.556v3.297H15.12V9.895"
         fill-opacity=".949" fill="#fff" />
   </g>
</svg>