<svg xmlns="http://www.w3.org/2000/svg" version="1.2" viewBox="0 0 42.52 42.52" height="56.693" width="56.693">
   <g stroke-linejoin="bevel" stroke-linecap="square" fill-rule="evenodd" stroke="none" fill="none" font-weight="400"
      font-size="7.8" font-family="'MS Shell Dlg 2'">
      <path
         d="M42.52 21.26C42.52 33 33 42.52 21.26 42.52 9.518 42.52 0 33 0 21.26 0 9.518 9.518 0 21.26 0 33 0 42.52 9.518 42.52 21.26"
         vector-effect="non-scaling-stroke" fill="#1f78b4" />
      <path
         d="M34.143 27.742a.732.732 0 01-.357.21c-.714.224-1.435.451-2.163.682-.728.231-1.449.466-2.162.704-.238.056-.392.077-.462.063-.07-.014-.147-.14-.231-.378a213.215 213.215 0 01-2.74-4.703 498.725 498.725 0 00-2.72-4.746c-.49-.84-.979-1.676-1.469-2.509-.49-.832-.98-1.676-1.47-2.53-.112-.196-.16-.308-.147-.336.014-.028.14-.042.378-.042h4.514c.364 0 .623.126.777.378a221.54 221.54 0 002.247 3.57 396.992 396.992 0 012.267 3.569c.658.98 1.288 1.956 1.89 2.929.602.973 1.218 1.963 1.848 2.97v.169M18.27 20.519l-.084.168a386.86 386.86 0 00-1.68 3.57 386.967 386.967 0 01-1.68 3.569c-.112.224-.21.451-.294.682a6.466 6.466 0 01-.294.683c-.098.154-.196.28-.293.378-.098.098-.26.147-.483.147a20.049 20.049 0 00-1.292-.042h-1.29c-.323 0-.42-.126-.295-.378 0-.07.014-.12.042-.147a.489.489 0 00.084-.126c.252-.518.508-1.012.766-1.48.26-.47.529-.949.809-1.439.126-.294.126-.553 0-.777a91.26 91.26 0 01-.504-.85 5.021 5.021 0 00-.567-.787 4.235 4.235 0 00-.493-.64 27.953 27.953 0 01-.578-.641c-.168-.196-.154-.385.042-.567a468.82 468.82 0 013.034-1.585c.987-.511 1.984-1.026 2.992-1.543.28-.154.497-.385.651-.693.336-.546.654-1.092.955-1.638.301-.546.613-1.092.935-1.638.056-.056.105-.112.147-.168.042-.056.077-.112.105-.168.14.14.238.252.294.336 1.26 2.212 2.509 4.42 3.747 6.625a2014.49 2014.49 0 013.706 6.624c.14.196.26.388.357.577.098.19.217.396.357.62.098.322 0 .483-.294.483h-7.957c-.308 0-.543-.063-.704-.19-.16-.125-.241-.363-.241-.713v-8.252m-.21-1.637c-.028 0-.05.007-.063.02-.014.015-.035.022-.063.022-.98.573-1.97 1.12-2.971 1.637-1.001.518-2.005 1.05-3.013 1.596-.14.084-.21.14-.21.168 0 .028.056.112.168.252.49.49.871 1 1.144 1.533.273.531.522 1.098.746 1.7 0 .14.028.28.084.42.056.14.084.301.084.483 0 .028.014.042.042.042.027 0 .041.007.041.021 0 .014.014.021.042.021.672-1.316 1.344-2.635 2.016-3.958a700.81 700.81 0 001.995-3.957h-.042m.042 0h-.042c-.028 0-.05.007-.063.02-.014.015-.035.022-.063.022-.98.573-1.97 1.12-2.971 1.637-1.001.518-2.005 1.05-3.013 1.596-.14.084-.21.14-.21.168 0 .028.056.112.168.252.49.49.871 1 1.144 1.533.273.531.522 1.098.746 1.7 0 .14.028.28.084.42.056.14.084.301.084.483 0 .028.014.042.042.042.027 0 .041.007.041.021 0 .014.014.021.042.021.672-1.316 1.344-2.635 2.016-3.958a700.81 700.81 0 001.995-3.957"
         fill-opacity=".949" fill="#fff" />
   </g>
</svg>