<?xml version="1.0" encoding="UTF-8" standalone="no"?>
<svg
   xmlns:dc="http://purl.org/dc/elements/1.1/"
   xmlns:cc="http://creativecommons.org/ns#"
   xmlns:rdf="http://www.w3.org/1999/02/22-rdf-syntax-ns#"
   xmlns:svg="http://www.w3.org/2000/svg"
   xmlns="http://www.w3.org/2000/svg"
   xmlns:sodipodi="http://sodipodi.sourceforge.net/DTD/sodipodi-0.dtd"
   xmlns:inkscape="http://www.inkscape.org/namespaces/inkscape"
   inkscape:version="1.0 (4035a4fb49, 2020-05-01)"
   sodipodi:docname="1014.svg"
   id="svg20"
   version="1.2"
   viewBox="0 0 42.519639 42.519639"
   height="14.999999mm"
   width="14.999999mm">
  <metadata
     id="metadata24">
    <rdf:RDF>
      <cc:Work
         rdf:about="">
        <dc:format>image/svg+xml</dc:format>
        <dc:type
           rdf:resource="http://purl.org/dc/dcmitype/StillImage" />
        <dc:title>Qt SVG Document</dc:title>
      </cc:Work>
    </rdf:RDF>
  </metadata>
  <sodipodi:namedview
     inkscape:current-layer="svg20"
     inkscape:window-maximized="1"
     inkscape:window-y="-9"
     inkscape:window-x="-9"
     inkscape:cy="48.71697"
     inkscape:cx="28.566225"
     inkscape:zoom="6.3809115"
     fit-margin-bottom="0"
     fit-margin-right="0"
     fit-margin-left="0"
     fit-margin-top="0"
     showgrid="false"
     id="namedview22"
     inkscape:window-height="1013"
     inkscape:window-width="1920"
     inkscape:pageshadow="2"
     inkscape:pageopacity="0"
     guidetolerance="10"
     gridtolerance="10"
     objecttolerance="10"
     borderopacity="1"
     bordercolor="#666666"
     pagecolor="#ffffff" />
  <title
     id="title2">Qt SVG Document</title>
  <desc
     id="desc4">Generated with Qt</desc>
  <defs
     id="defs6" />
  <g
     transform="translate(5.25984,5.25984)"
     id="g18"
     stroke-linejoin="bevel"
     stroke-linecap="square"
     fill-rule="evenodd"
     stroke-width="1"
     stroke="#000000"
     fill="none">
    <g
       id="g10"
       font-style="normal"
       font-weight="400"
       font-size="7.8px"
       font-family="'MS Shell Dlg 2'"
       stroke="none"
       fill-opacity="1"
       fill="#1f78b4">
      <path
         id="path8"
         d="M 37.2598,16 C 37.2598,27.7415 27.7415,37.2598 16,37.2598 4.25851,37.2598 -5.25984,27.7415 -5.25984,16 -5.25984,4.25851 4.25851,-5.25984 16,-5.25984 27.7415,-5.25984 37.2598,4.25851 37.2598,16"
         fill-rule="evenodd"
         vector-effect="non-scaling-stroke" />
    </g>
    <g
       id="g14"
       font-style="normal"
       font-weight="400"
       font-size="7.8px"
       font-family="'MS Shell Dlg 2'"
       transform="translate(17.1339,10.3307)"
       stroke="none"
       fill-opacity="0.94902"
       fill="#ffffff">
      <path
         id="path12"
         d="m 11.749,12.1514 c -0.112,0.1119 -0.2309,0.1819 -0.3569,0.2099 -0.7139,0.224 -1.43474,0.4514 -2.16261,0.6824 -0.72786,0.231 -1.44873,0.4654 -2.1626,0.7034 -0.23795,0.056 -0.39192,0.077 -0.46191,0.063 -0.06999,-0.014 -0.14697,-0.14 -0.23096,-0.378 C 5.4502,11.8924 4.53687,10.3247 3.63403,8.729 2.7312,7.1333 1.82487,5.5516 0.915039,3.98389 0.42513,3.14404 -0.0647786,2.3077 -0.554688,1.47485 -1.0446,0.642008 -1.53451,-0.201335 -2.02441,-1.05518 c -0.11198,-0.19596 -0.16097,-0.30794 -0.14698,-0.33593 0.014,-0.028 0.13998,-0.042 0.37793,-0.042 H 2.7207 c 0.36394,0 0.62289,0.12598 0.77686,0.37793 C 4.23942,0.1486 4.98828,1.33838 5.74414,2.51416 6.5,3.68994 7.25586,4.87972 8.01172,6.0835 8.6696,7.06331 9.29948,8.03963 9.90137,9.01245 10.5033,9.98527 11.1191,10.9756 11.749,11.9834 v 0.168 M -4.12402,4.92871 C -4.18001,5.04069 -4.20801,5.09668 -4.20801,5.09668 -4.7819,6.30046 -5.3418,7.49023 -5.8877,8.66602 -6.43359,9.8418 -6.99349,11.0316 -7.56738,12.2354 c -0.11198,0.2239 -0.20996,0.4514 -0.29395,0.6823 -0.08398,0.231 -0.18196,0.4584 -0.29394,0.6824 -0.09799,0.154 -0.19597,0.2799 -0.29395,0.3779 -0.09798,0.098 -0.25895,0.147 -0.48291,0.147 -0.43392,-0.028 -0.86434,-0.042 -1.29127,-0.042 -0.4269,0 -0.8573,0 -1.2912,0 -0.322,0 -0.42,-0.126 -0.294,-0.3779 0,-0.07 0.014,-0.119 0.042,-0.147 0.028,-0.028 0.056,-0.07 0.084,-0.126 0.2519,-0.5179 0.5074,-1.0113 0.7663,-1.4802 0.259,-0.4689 0.5284,-0.9483 0.8084,-1.4382 0.12597,-0.294 0.12597,-0.55293 0,-0.77688 -0.168,-0.27995 -0.3359,-0.5634 -0.5039,-0.85035 -0.168,-0.28694 -0.357,-0.54939 -0.5669,-0.78735 -0.14,-0.22396 -0.3045,-0.43742 -0.4934,-0.64038 -0.189,-0.20296 -0.3814,-0.41642 -0.5774,-0.64038 -0.168,-0.19596 -0.154,-0.38493 0.042,-0.5669 1.0358,-0.54589 2.0471,-1.0743 3.03392,-1.5852 0.98681,-0.51091 1.98413,-1.02531 2.99194,-1.54321 0.27995,-0.15397 0.49691,-0.38493 0.65088,-0.69287 0.33594,-0.5459 0.65438,-1.0918 0.95532,-1.6377 0.30094,-0.545898 0.61239,-1.091796 0.93433,-1.637695 0.05599,-0.055989 0.10498,-0.111979 0.14697,-0.167965 0.04199,-0.05599 0.07699,-0.11198 0.10498,-0.16797 0.13997,0.13997 0.23796,0.251951 0.29395,0.335935 C -1.83545,1.36637 -0.586182,3.57446 0.652588,5.77905 1.89136,7.98364 3.12663,10.1917 4.3584,12.4033 c 0.13997,0.196 0.25895,0.3884 0.35693,0.5774 0.09798,0.189 0.21696,0.3954 0.35694,0.6194 0.09798,0.3219 0,0.4829 -0.29395,0.4829 H -3.1792 c -0.30794,0 -0.5424,-0.063 -0.70337,-0.189 -0.16097,-0.1259 -0.24145,-0.3639 -0.24145,-0.7138 V 5.18066 4.92871 M -4.33398,3.29102 c -0.028,0 -0.049,0.00699 -0.06299,0.02099 -0.014,0.014 -0.035,0.021 -0.06299,0.021 -0.97982,0.57389 -1.97013,1.11979 -2.97095,1.63769 -1.00081,0.51791 -2.00513,1.04981 -3.01289,1.59571 -0.14,0.08398 -0.21,0.13997 -0.21,0.16797 0,0.02799 0.056,0.11197 0.168,0.25195 0.48987,0.48991 0.8713,1.00081 1.14425,1.53271 0.27295,0.5319 0.5214,1.0988 0.74536,1.70066 0,0.14 0.02799,0.28 0.08398,0.4199 0.05599,0.14 0.08399,0.301 0.08399,0.483 0,0.028 0.01399,0.042 0.04199,0.042 0.02799,0 0.04199,0.0069 0.04199,0.0209 0,0.014 0.014,0.021 0.04199,0.021 0.67188,-1.31571 1.34375,-2.63497 2.01563,-3.95772 0.67187,-1.32275 1.33675,-2.64201 1.99463,-3.95776 h -0.04199 m 0.04199,0 h -0.04199 c -0.028,0 -0.049,0.00699 -0.06299,0.02099 -0.014,0.014 -0.035,0.021 -0.06299,0.021 -0.97982,0.57389 -1.97013,1.11979 -2.97095,1.63769 -1.00081,0.51791 -2.00513,1.04981 -3.01289,1.59571 -0.14,0.08398 -0.21,0.13997 -0.21,0.16797 0,0.02799 0.056,0.11197 0.168,0.25195 0.48987,0.48991 0.8713,1.00081 1.14425,1.53271 0.27295,0.5319 0.5214,1.0988 0.74536,1.70066 0,0.14 0.02799,0.28 0.08398,0.4199 0.05599,0.14 0.08399,0.301 0.08399,0.483 0,0.028 0.01399,0.042 0.04199,0.042 0.02799,0 0.04199,0.0069 0.04199,0.0209 0,0.014 0.014,0.021 0.04199,0.021 0.67188,-1.31571 1.34375,-2.63497 2.01563,-3.95772 0.67187,-1.32275 1.33675,-2.64201 1.99463,-3.95776"
         fill-rule="evenodd"
         vector-effect="none" />
    </g>
    <g
       id="g16"
       font-style="normal"
       font-weight="400"
       font-size="7.8px"
       font-family="'MS Shell Dlg 2'"
       stroke="none"
       fill-opacity="1"
       fill="#1f78b4" />
  </g>
</svg>
