<svg xmlns="http://www.w3.org/2000/svg" version="1.2" viewBox="0 0 42.52 42.52" height="56.693" width="56.693">
   <g stroke-linejoin="bevel" stroke-linecap="square" fill-rule="evenodd" stroke="none" fill="none" font-weight="400"
      font-size="7.8" font-family="'MS Shell Dlg 2'">
      <path
         d="M42.52 21.26C42.52 33 33 42.52 21.26 42.52 9.518 42.52 0 33 0 21.26 0 9.518 9.518 0 21.26 0 33 0 42.52 9.518 42.52 21.26"
         vector-effect="non-scaling-stroke" fill="#1f78b4" />
      <path
         d="M30.048 16.425a73.318 73.318 0 012.352 4.85 48.287 48.287 0 011.659 4.546c.504 1.617.756 3.118.756 4.504H7.772c0-1.386.241-2.887.724-4.504a43.072 43.072 0 011.627-4.546 49.933 49.933 0 012.373-4.85l8.776-6.068 8.776 6.068M12.496 21.8c-.574 0-1.068.2-1.48.599-.413.399-.62.913-.62 1.543 0 .574.207 1.064.62 1.47.412.405.906.608 1.48.608.602 0 1.109-.203 1.522-.608.413-.406.62-.896.62-1.47 0-.63-.207-1.144-.62-1.543-.413-.4-.92-.599-1.522-.599m4.85 1.68c0-.266-.098-.511-.294-.735-.196-.224-.427-.336-.693-.336a.99.99 0 00-.766.336c-.203.224-.305.469-.305.735v3.128h-3.821a.866.866 0 00-.714.347c-.182.23-.273.48-.273.745 0 .28.091.529.273.746.182.216.42.325.714.325h4.892a.906.906 0 00.693-.325 1.08 1.08 0 00.294-.746v-4.22m.273-1.596c.336.168.598.56.787 1.176.19.616.305 1.284.347 2.005.042.721.02 1.431-.063 2.131-.084.7-.26 1.225-.525 1.575H33.26l-.777-1.596c0-.63-.123-1.232-.367-1.805-.245-.574-.71-1.06-1.397-1.46-.686-.399-1.637-.686-2.855-.86-1.218-.175-2.814-.179-4.787-.011a16.049 16.049 0 00-2.12-.903 9.467 9.467 0 00-1.786-.42c-.615-.084-1.133-.028-1.553.168"
         fill-opacity=".949" fill="#fff" />
   </g>
</svg>