<?xml version="1.0" encoding="UTF-8" standalone="no"?>
<svg
   xmlns:dc="http://purl.org/dc/elements/1.1/"
   xmlns:cc="http://creativecommons.org/ns#"
   xmlns:rdf="http://www.w3.org/1999/02/22-rdf-syntax-ns#"
   xmlns:svg="http://www.w3.org/2000/svg"
   xmlns="http://www.w3.org/2000/svg"
   xmlns:sodipodi="http://sodipodi.sourceforge.net/DTD/sodipodi-0.dtd"
   xmlns:inkscape="http://www.inkscape.org/namespaces/inkscape"
   inkscape:version="1.0 (4035a4fb49, 2020-05-01)"
   sodipodi:docname="1015.svg"
   id="svg20"
   version="1.2"
   viewBox="0 0 42.519639 42.519639"
   height="14.999999mm"
   width="14.999999mm">
  <metadata
     id="metadata24">
    <rdf:RDF>
      <cc:Work
         rdf:about="">
        <dc:format>image/svg+xml</dc:format>
        <dc:type
           rdf:resource="http://purl.org/dc/dcmitype/StillImage" />
        <dc:title>Qt SVG Document</dc:title>
      </cc:Work>
    </rdf:RDF>
  </metadata>
  <sodipodi:namedview
     inkscape:current-layer="svg20"
     inkscape:window-maximized="1"
     inkscape:window-y="-9"
     inkscape:window-x="-9"
     inkscape:cy="36.080253"
     inkscape:cx="19.29986"
     inkscape:zoom="9.0239716"
     fit-margin-bottom="0"
     fit-margin-right="0"
     fit-margin-left="0"
     fit-margin-top="0"
     showgrid="false"
     id="namedview22"
     inkscape:window-height="1013"
     inkscape:window-width="1920"
     inkscape:pageshadow="2"
     inkscape:pageopacity="0"
     guidetolerance="10"
     gridtolerance="10"
     objecttolerance="10"
     borderopacity="1"
     bordercolor="#666666"
     pagecolor="#ffffff" />
  <title
     id="title2">Qt SVG Document</title>
  <desc
     id="desc4">Generated with Qt</desc>
  <defs
     id="defs6" />
  <g
     transform="translate(5.25984,5.25984)"
     id="g18"
     stroke-linejoin="bevel"
     stroke-linecap="square"
     fill-rule="evenodd"
     stroke-width="1"
     stroke="#000000"
     fill="none">
    <g
       id="g10"
       font-style="normal"
       font-weight="400"
       font-size="7.8px"
       font-family="'MS Shell Dlg 2'"
       stroke="none"
       fill-opacity="1"
       fill="#1f78b4">
      <path
         id="path8"
         d="M 37.2598,16 C 37.2598,27.7415 27.7415,37.2598 16,37.2598 4.25851,37.2598 -5.25984,27.7415 -5.25984,16 -5.25984,4.25851 4.25851,-5.25984 16,-5.25984 27.7415,-5.25984 37.2598,4.25851 37.2598,16"
         fill-rule="evenodd"
         vector-effect="non-scaling-stroke" />
    </g>
    <g
       id="g14"
       font-style="normal"
       font-weight="400"
       font-size="7.8px"
       font-family="'MS Shell Dlg 2'"
       transform="translate(16,13.1654)"
       stroke="none"
       fill-opacity="0.94902"
       fill="#ffffff">
      <path
         id="path12"
         d="m 8.78857,-2 c 0.85385,1.609701 1.63773,3.2264 2.35153,4.8501 0.6019,1.41373 1.1548,2.92895 1.6587,4.54565 0.5039,1.6167 0.7559,3.11795 0.7559,4.50365 h -27.043 c 0,-1.3857 0.2415,-2.88695 0.7244,-4.50365 0.4829,-1.6167 1.0253,-3.13192 1.6272,-4.54565 C -10.4508,1.2264 -9.65999,-0.390299 -8.76416,-2 L 0.012207,-8.06787 8.78857,-2 M -8.76416,3.375 c -0.57389,0 -1.0673,0.19946 -1.48024,0.59839 -0.4129,0.39892 -0.6194,0.91333 -0.6194,1.54321 0,0.57389 0.2065,1.0638 0.6194,1.46973 0.41294,0.40592 0.90635,0.60888 1.48024,0.60888 0.60189,0 1.10929,-0.20296 1.52222,-0.60888 0.41292,-0.40593 0.61938,-0.89584 0.61938,-1.46973 0,-0.62988 -0.20646,-1.14429 -0.61938,-1.54321 C -7.65487,3.57446 -8.16227,3.375 -8.76416,3.375 m 4.8501,1.67969 c 0,-0.26595 -0.09798,-0.51091 -0.29395,-0.73487 -0.19596,-0.22395 -0.42692,-0.33593 -0.69287,-0.33593 -0.30794,0 -0.56339,0.11198 -0.76636,0.33593 -0.20296,0.22396 -0.30444,0.46892 -0.30444,0.73487 v 3.12842 h -3.82129 c -0.29393,0 -0.53193,0.11547 -0.71383,0.34643 -0.182,0.23096 -0.273,0.47941 -0.273,0.74536 0,0.27995 0.091,0.5284 0.273,0.7454 0.1819,0.2169 0.4199,0.3254 0.71383,0.3254 h 4.89209 c 0.26595,0 0.49691,-0.1085 0.69287,-0.3254 0.19597,-0.217 0.29395,-0.46545 0.29395,-0.7454 V 5.05469 m 0.27295,-1.59571 c 0.33593,0.16797 0.59839,0.5599 0.78735,1.17579 0.18897,0.61588 0.30444,1.28426 0.34644,2.00512 0.04199,0.72087 0.02099,1.43124 -0.06299,2.13111 -0.08399,0.69987 -0.25895,1.22477 -0.5249,1.5747 H 12.001 L 11.2241,8.75 c 0,-0.62988 -0.1225,-1.23177 -0.3674,-1.80566 C 10.6117,6.37044 10.1463,5.88403 9.46045,5.48511 8.77458,5.08618 7.82275,4.79924 6.60498,4.62427 5.38721,4.4493 3.7915,4.4458 1.81787,4.61377 1.104,4.24984 0.397135,3.94889 -0.302734,3.71094 -0.876628,3.51497 -1.47152,3.375 -2.0874,3.29102 -2.70329,3.20703 -3.22119,3.26302 -3.64111,3.45898"
         fill-rule="evenodd"
         vector-effect="none" />
    </g>
    <g
       id="g16"
       font-style="normal"
       font-weight="400"
       font-size="7.8px"
       font-family="'MS Shell Dlg 2'"
       stroke="none"
       fill-opacity="1"
       fill="#1f78b4" />
  </g>
</svg>
