<svg xmlns="http://www.w3.org/2000/svg" version="1.2" viewBox="0 0 42.52 42.52" height="56.693" width="56.693">
   <g stroke-linejoin="bevel" stroke-linecap="square" fill-rule="evenodd" stroke="none" fill="none" font-weight="400"
      font-size="7.8" font-family="'MS Shell Dlg 2'">
      <path
         d="M42.52 21.26C42.52 33 33 42.52 21.26 42.52 9.518 42.52 0 33 0 21.26 0 9.518 9.518 0 21.26 0 33 0 42.52 9.518 42.52 21.26"
         vector-effect="non-scaling-stroke" fill="#1f78b4" />
      <path
         d="M12.706 26.146c-.546-.238-.903-.357-1.071-.357l9.406-5.186-2.498-4.514c-.168-.378-.252-.679-.252-.903 0-.461.112-.825.336-1.091.237-.308.538-.504.902-.588l9.554-1.764a1.95 1.95 0 01.692.042c.168.056.347.133.536.231.189.098.34.266.451.504.168.392.168.826 0 1.302-.168.476-.525.756-1.07.84l-6.803 1.511 5.858 9.973c-.49.168-.91.252-1.26.252-.224 0-.48-.035-.766-.105-.287-.07-.592-.147-.914-.23-.364-.183-.675-.302-.934-.357a3.44 3.44 0 00-.724-.084c-.238 0-.494.028-.767.084-.273.055-.605.174-.997.356-.378.084-.697.161-.955.231a2.66 2.66 0 01-.683.105 2.74 2.74 0 01-.735-.105c-.252-.07-.567-.147-.945-.23a3.61 3.61 0 00-1.68-.441c-.223 0-.479.028-.766.084-.287.055-.619.174-.997.356l-.913.231c-.273.07-.5.105-.683.105-.448 0-.888-.084-1.322-.252m19.82 2.058c.378.084.693.165.945.242.252.076.497.115.735.115v2.478a60.706 60.706 0 00-.735-.168 7.56 7.56 0 01-.945-.294c-.35-.084-.675-.165-.976-.242a3.051 3.051 0 00-.704-.115c-.224 0-.472.038-.745.115a24.77 24.77 0 01-.934.242c-.336.14-.655.238-.956.294-.3.056-.542.112-.724.168a18.028 18.028 0 00-.745-.168 8.472 8.472 0 01-1.019-.294 15.825 15.825 0 01-.934-.242 2.345 2.345 0 00-.64-.115 2.83 2.83 0 00-.767.115 16.44 16.44 0 01-.997.242c-.378.14-.697.238-.955.294-.26.056-.487.112-.683.168a60.712 60.712 0 00-.735-.168 7.56 7.56 0 01-.945-.294c-.35-.084-.668-.165-.955-.242a2.886 2.886 0 00-.724-.115c-.224 0-.48.038-.767.115-.287.077-.619.158-.997.242-.336.14-.64.238-.913.294-.273.056-.5.112-.683.168a18.027 18.027 0 00-.745-.168 8.472 8.472 0 01-1.018-.294 15.825 15.825 0 01-.935-.242 2.613 2.613 0 00-.745-.115c-.168 0-.388.038-.661.115a31.78 31.78 0 01-.914.242c-.406.14-.745.238-1.018.294-.273.056-.521.112-.745.168V28.56c.224 0 .472-.039.745-.115.273-.077.612-.158 1.018-.242.336-.196.64-.322.914-.378.273-.056.493-.084.661-.084.238 0 .486.028.745.084.26.056.57.182.935.378.406.084.745.165 1.018.242.273.076.521.115.745.115.182 0 .41-.039.683-.115.273-.077.577-.158.913-.242.378-.196.71-.322.997-.378.287-.056.543-.084.767-.084.196 0 .423.028.682.084.26.056.564.182.913.378.364.084.69.165.977.242.287.076.55.115.787.115.196 0 .424-.039.683-.115.258-.077.577-.158.955-.242.392-.196.724-.322.997-.378.273-.056.529-.084.767-.084.167 0 .38.028.64.084.259.056.57.182.934.378.406.084.746.165 1.019.242.272.076.52.115.745.115.182 0 .423-.039.724-.115.301-.077.62-.158.956-.242.35-.196.661-.322.934-.378.273-.056.521-.084.745-.084.168 0 .403.028.704.084.3.056.626.182.976.378m-5.375-7.79c0-.91.308-1.672.924-2.288.616-.616 1.337-.924 2.162-.924.84 0 1.568.308 2.184.924.616.616.924 1.379.924 2.288 0 .84-.308 1.568-.924 2.184-.616.616-1.344.924-2.184.924-.825 0-1.546-.308-2.162-.924-.616-.616-.924-1.344-.924-2.184"
         fill-opacity=".949" fill="#fff" />
   </g>
</svg>