<?xml version="1.0" encoding="UTF-8" standalone="no"?>
<svg
   xmlns:dc="http://purl.org/dc/elements/1.1/"
   xmlns:cc="http://creativecommons.org/ns#"
   xmlns:rdf="http://www.w3.org/1999/02/22-rdf-syntax-ns#"
   xmlns:svg="http://www.w3.org/2000/svg"
   xmlns="http://www.w3.org/2000/svg"
   xmlns:sodipodi="http://sodipodi.sourceforge.net/DTD/sodipodi-0.dtd"
   xmlns:inkscape="http://www.inkscape.org/namespaces/inkscape"
   inkscape:version="1.0 (4035a4fb49, 2020-05-01)"
   sodipodi:docname="1016.svg"
   id="svg20"
   version="1.2"
   viewBox="0 0 42.519639 42.519639"
   height="14.999999mm"
   width="14.999999mm">
  <metadata
     id="metadata24">
    <rdf:RDF>
      <cc:Work
         rdf:about="">
        <dc:format>image/svg+xml</dc:format>
        <dc:type
           rdf:resource="http://purl.org/dc/dcmitype/StillImage" />
        <dc:title>Qt SVG Document</dc:title>
      </cc:Work>
    </rdf:RDF>
  </metadata>
  <sodipodi:namedview
     inkscape:current-layer="svg20"
     inkscape:window-maximized="1"
     inkscape:window-y="-9"
     inkscape:window-x="-9"
     inkscape:cy="55.418585"
     inkscape:cx="22.874443"
     inkscape:zoom="6.3809115"
     fit-margin-bottom="0"
     fit-margin-right="0"
     fit-margin-left="0"
     fit-margin-top="0"
     showgrid="false"
     id="namedview22"
     inkscape:window-height="1013"
     inkscape:window-width="1920"
     inkscape:pageshadow="2"
     inkscape:pageopacity="0"
     guidetolerance="10"
     gridtolerance="10"
     objecttolerance="10"
     borderopacity="1"
     bordercolor="#666666"
     pagecolor="#ffffff" />
  <title
     id="title2">Qt SVG Document</title>
  <desc
     id="desc4">Generated with Qt</desc>
  <defs
     id="defs6" />
  <g
     transform="translate(5.25984,5.25984)"
     id="g18"
     stroke-linejoin="bevel"
     stroke-linecap="square"
     fill-rule="evenodd"
     stroke-width="1"
     stroke="#000000"
     fill="none">
    <g
       id="g10"
       font-style="normal"
       font-weight="400"
       font-size="7.8px"
       font-family="'MS Shell Dlg 2'"
       stroke="none"
       fill-opacity="1"
       fill="#1f78b4">
      <path
         id="path8"
         d="M 37.2598,16 C 37.2598,27.7415 27.7415,37.2598 16,37.2598 4.25851,37.2598 -5.25984,27.7415 -5.25984,16 -5.25984,4.25851 4.25851,-5.25984 16,-5.25984 27.7415,-5.25984 37.2598,4.25851 37.2598,16"
         fill-rule="evenodd"
         vector-effect="non-scaling-stroke" />
    </g>
    <g
       id="g14"
       font-style="normal"
       font-weight="400"
       font-size="7.8px"
       font-family="'MS Shell Dlg 2'"
       transform="translate(15.4331,13.1654)"
       stroke="none"
       fill-opacity="0.94902"
       fill="#ffffff">
      <path
         id="path12"
         d="M -7.9873,7.72119 C -8.5332,7.48324 -8.89014,7.36426 -9.05811,7.36426 L 0.348145,2.17822 -2.15039,-2.33594 c -0.16797,-0.37793 -0.25195,-0.67887 -0.25195,-0.90283 0,-0.46191 0.11198,-0.82585 0.33593,-1.0918 0.23796,-0.30794 0.5389,-0.5039 0.90284,-0.58789 l 9.55322,-1.76367 c 0.22396,-0.02799 0.45491,-0.014 0.69287,0.04199 0.16797,0.05599 0.34644,0.13298 0.5354,0.23096 0.18896,0.09798 0.33944,0.26595 0.45138,0.50391 0.168,0.39192 0.168,0.82584 0,1.30175 -0.16793,0.47592 -0.52487,0.75586 -1.07076,0.83985 L 2.1958,-2.25195 8.05371,7.72119 C 7.5638,7.88916 7.14388,7.97314 6.79395,7.97314 6.56999,7.97314 6.31453,7.93815 6.02759,7.86816 5.74064,7.79818 5.4362,7.72119 5.11426,7.63721 4.75033,7.45524 4.43888,7.33626 4.17993,7.28027 3.92098,7.22428 3.67952,7.19629 3.45557,7.19629 3.21761,7.19629 2.96216,7.22428 2.68921,7.28027 2.41626,7.33626 2.08382,7.45524 1.69189,7.63721 1.31396,7.72119 0.995524,7.79818 0.736572,7.86816 0.47762,7.93815 0.250163,7.97314 0.0541992,7.97314 -0.183757,7.97314 -0.428711,7.93815 -0.680664,7.86816 -0.932617,7.79818 -1.24756,7.72119 -1.62549,7.63721 -1.97542,7.45524 -2.29386,7.33626 -2.58081,7.28027 -2.86776,7.22428 -3.10921,7.19629 -3.30518,7.19629 c -0.22395,0 -0.47941,0.02799 -0.76635,0.08398 -0.28695,0.05599 -0.61939,0.17497 -0.99732,0.35694 -0.33594,0.08398 -0.64038,0.16097 -0.91333,0.23095 -0.27295,0.06999 -0.5004,0.10498 -0.68237,0.10498 -0.44792,0 -0.88884,-0.08398 -1.32275,-0.25195 M 11.833,9.77881 c 0.3779,0.08398 0.6929,0.16447 0.9448,0.24149 0.252,0.0769 0.4969,0.1154 0.7349,0.1154 v 2.4776 c -0.238,-0.056 -0.4829,-0.112 -0.7349,-0.168 -0.2519,-0.056 -0.5669,-0.154 -0.9448,-0.2939 -0.3499,-0.084 -0.6754,-0.1645 -0.9763,-0.2415 -0.301,-0.077 -0.5354,-0.1155 -0.7034,-0.1155 -0.22394,0 -0.47239,0.0385 -0.74534,0.1155 -0.27295,0.077 -0.58439,0.1575 -0.93433,0.2415 -0.33593,0.1399 -0.65438,0.2379 -0.95532,0.2939 -0.30094,0.056 -0.5424,0.112 -0.72436,0.168 C 6.56999,12.5573 6.32153,12.5013 6.04858,12.4453 5.77563,12.3893 5.4362,12.2913 5.03027,12.1514 4.66634,12.0674 4.3549,11.9869 4.09595,11.9099 3.837,11.8329 3.62354,11.7944 3.45557,11.7944 c -0.23796,0 -0.49341,0.0385 -0.76636,0.1155 -0.27295,0.077 -0.60539,0.1575 -0.99732,0.2415 -0.37793,0.1399 -0.696366,0.2379 -0.955318,0.2939 -0.258952,0.056 -0.486409,0.112 -0.6823728,0.168 -0.2379562,-0.056 -0.4829102,-0.112 -0.7348632,-0.168 -0.251953,-0.056 -0.566896,-0.154 -0.944826,-0.2939 -0.34993,-0.084 -0.66837,-0.1645 -0.95532,-0.2415 -0.28695,-0.077 -0.5284,-0.1155 -0.72437,-0.1155 -0.22395,0 -0.47941,0.0385 -0.76635,0.1155 -0.28695,0.077 -0.61939,0.1575 -0.99732,0.2415 -0.33594,0.1399 -0.64038,0.2379 -0.91333,0.2939 -0.27295,0.056 -0.5004,0.112 -0.68237,0.168 -0.22396,-0.056 -0.47241,-0.112 -0.74536,-0.168 -0.27295,-0.056 -0.61239,-0.154 -1.01831,-0.2939 -0.36393,-0.084 -0.67538,-0.1645 -0.93433,-0.2415 -0.25895,-0.077 -0.5074,-0.1155 -0.74535,-0.1155 -0.168,0 -0.3884,0.0385 -0.6614,0.1155 -0.2729,0.077 -0.5774,0.1575 -0.9133,0.2415 -0.4059,0.1399 -0.7454,0.2379 -1.0183,0.2939 -0.273,0.056 -0.5214,0.112 -0.7454,0.168 v -2.4776 c 0.224,0 0.4724,-0.0385 0.7454,-0.1154 0.2729,-0.07702 0.6124,-0.15751 1.0183,-0.24149 0.3359,-0.19596 0.6404,-0.32194 0.9133,-0.37793 0.273,-0.05599 0.4934,-0.08399 0.6614,-0.08399 0.23795,0 0.4864,0.028 0.74535,0.08399 0.25895,0.05599 0.5704,0.18197 0.93433,0.37793 0.40592,0.08398 0.74536,0.16447 1.01831,0.24149 0.27295,0.0769 0.5214,0.1154 0.74536,0.1154 0.18197,0 0.40942,-0.0385 0.68237,-0.1154 0.27295,-0.07702 0.57739,-0.15751 0.91333,-0.24149 0.37793,-0.19596 0.71037,-0.32194 0.99732,-0.37793 0.28694,-0.05599 0.5424,-0.08399 0.76635,-0.08399 0.19597,0 0.42343,0.028 0.68238,0.08399 0.25895,0.05599 0.56339,0.18197 0.91333,0.37793 0.36393,0.08398 0.68937,0.16447 0.976316,0.24149 0.286946,0.0769 0.549397,0.1154 0.7873532,0.1154 0.1959638,0 0.4234208,-0.0385 0.6823728,-0.1154 C 0.995524,9.94328 1.31396,9.86279 1.69189,9.77881 2.08382,9.58285 2.41626,9.45687 2.68921,9.40088 2.96216,9.34489 3.21761,9.31689 3.45557,9.31689 c 0.16797,0 0.38143,0.028 0.64038,0.08399 0.25895,0.05599 0.57039,0.18197 0.93432,0.37793 0.40593,0.08398 0.74536,0.16447 1.01831,0.24149 0.27295,0.0769 0.52141,0.1154 0.74537,0.1154 0.18196,0 0.42342,-0.0385 0.72436,-0.1154 C 7.81925,9.94328 8.1377,9.86279 8.47363,9.77881 8.82357,9.58285 9.13501,9.45687 9.40796,9.40088 9.68091,9.34489 9.92936,9.31689 10.1533,9.31689 c 0.168,0 0.4024,0.028 0.7034,0.08399 0.3009,0.05599 0.6264,0.18197 0.9763,0.37793 M 6.45801,1.98926 c 0,-0.90983 0.30794,-1.672691 0.92383,-2.288576 0.61588,-0.615886 1.33675,-0.923824 2.16259,-0.923824 0.83987,0 1.56767,0.307938 2.18357,0.923824 0.6159,0.615885 0.9239,1.378746 0.9239,2.288576 0,0.83984 -0.308,1.56771 -0.9239,2.18359 C 11.1121,4.78874 10.3843,5.09668 9.54443,5.09668 8.71859,5.09668 7.99772,4.78874 7.38184,4.17285 6.76595,3.55697 6.45801,2.8291 6.45801,1.98926"
         fill-rule="evenodd"
         vector-effect="none" />
    </g>
    <g
       id="g16"
       font-style="normal"
       font-weight="400"
       font-size="7.8px"
       font-family="'MS Shell Dlg 2'"
       stroke="none"
       fill-opacity="1"
       fill="#1f78b4" />
  </g>
</svg>
