<?xml version="1.0" encoding="UTF-8" standalone="no"?>
<svg width="11.25008mm" height="11.25008mm"
 viewBox="-5.3 -5.3 42.52000 42.52000"
 xmlns="http://www.w3.org/2000/svg" xmlns:xlink="http://www.w3.org/1999/xlink"  version="1.2" baseProfile="tiny">
<title>Qt SVG Document</title>
<desc>Generated with Qt</desc>
<defs>
</defs>
<g fill="none" stroke="black" stroke-width="1" fill-rule="evenodd" stroke-linecap="square" stroke-linejoin="bevel" >

<g fill="#3d97f1" fill-opacity="1" stroke="none" transform="matrix(1,0,0,1,0,0)"
font-family="MS Shell Dlg 2" font-size="7.8" font-weight="400" font-style="normal" 
>
<path vector-effect="non-scaling-stroke" fill-rule="evenodd" d="M37.2598,16 C37.2598,27.7415 27.7415,37.2598 16,37.2598 C4.25851,37.2598 -5.25984,27.7415 -5.25984,16 C-5.25984,4.25851 4.25851,-5.25984 16,-5.25984 C27.7415,-5.25984 37.2598,4.25851 37.2598,16 "/>
</g>

<g fill="#ffffff" fill-opacity="0.94902" stroke="none" transform="matrix(1,0,0,1,16,13.7323)"
font-family="MS Shell Dlg 2" font-size="7.8" font-weight="400" font-style="normal" 
>
<path vector-effect="none" fill-rule="evenodd" d="M4.55859,10.8325 C4.37174,11.0194 4.27832,11.1729 4.27832,11.293 L7.68164,17.0186 L5.63965,17.0186 L5.41943,16.6582 C5.36605,16.6048 5.29932,16.5781 5.21924,16.5781 L-5.39111,16.5781 C-5.53792,16.5781 -5.61133,16.6048 -5.61133,16.6582 L-5.8916,17.0186 L-7.85352,17.0186 L-4.4502,11.1929 C-4.47689,11.1662 -4.50358,11.1261 -4.53027,11.0728 L-4.65039,10.8325 L-7.41309,9.23096 C-7.59993,9.12419 -7.75342,8.98071 -7.87354,8.80054 C-7.99365,8.62036 -8.05371,8.38346 -8.05371,8.08984 L-8.05371,-1.25928 C-8.05371,-1.48617 -7.98031,-1.70638 -7.8335,-1.91992 C-7.68669,-2.13346 -7.50651,-2.28027 -7.29297,-2.36035 C-7.09277,-2.48047 -6.95264,-2.64063 -6.87256,-2.84082 C-6.79248,-3.04102 -6.75244,-3.2679 -6.75244,-3.52148 L-6.75244,-5.86377 C-6.75244,-6.31755 -6.60897,-6.70125 -6.32202,-7.01489 C-6.03507,-7.32853 -5.69808,-7.54541 -5.31104,-7.66553 L-0.446289,-8.68652 L-0.0258789,-8.68652 L0.214355,-8.68652 L5.13916,-7.66553 C5.57959,-7.54541 5.92993,-7.32853 6.19019,-7.01489 C6.45044,-6.70125 6.58057,-6.31755 6.58057,-5.86377 L6.58057,-3.52148 C6.58057,-2.97428 6.79411,-2.58724 7.22119,-2.36035 C7.42139,-2.28027 7.58154,-2.13346 7.70166,-1.91992 C7.82178,-1.70638 7.88184,-1.48617 7.88184,-1.25928 L7.88184,8.08984 C7.88184,8.38346 7.82178,8.62036 7.70166,8.80054 C7.58154,8.98071 7.42139,9.12419 7.22119,9.23096 L4.55859,10.8325 M0.634766,-4.82275 C0.634766,-4.58252 0.72819,-4.4624 0.915039,-4.4624 L4.85889,-3.68164 C4.96566,-3.68164 5.07243,-3.72168 5.1792,-3.80176 C5.28597,-3.88184 5.33936,-3.97526 5.33936,-4.08203 L5.33936,-5.86377 C5.33936,-6.1307 5.20589,-6.26416 4.93896,-6.26416 L1.0752,-7.00488 L0.995117,-7.00488 C0.754883,-7.00488 0.634766,-6.91146 0.634766,-6.72461 L0.634766,-4.82275 M3.17725,12.4341 C3.12386,12.4074 3.06714,12.3306 3.00708,12.2039 C2.94702,12.0771 2.87695,11.9469 2.79688,11.8135 C2.6901,11.6533 2.59668,11.4798 2.5166,11.293 C2.46322,11.293 2.42985,11.2763 2.4165,11.2429 C2.40316,11.2096 2.36979,11.1929 2.31641,11.1929 L-2.56836,11.1929 L-2.68848,11.293 C-2.71517,11.293 -2.75521,11.3464 -2.80859,11.4531 C-2.86198,11.5599 -2.93205,11.68 -3.0188,11.8135 C-3.10555,11.9469 -3.17562,12.0771 -3.229,12.2039 C-3.28239,12.3306 -3.32243,12.4074 -3.34912,12.4341 C-3.40251,12.4875 -3.41585,12.5275 -3.38916,12.5542 C-3.36247,12.5809 -3.32243,12.5942 -3.26904,12.5942 L2.95703,12.5942 C3.10384,12.5942 3.17725,12.5409 3.17725,12.4341 M-0.0258789,-2.74072 C-0.599772,-2.74072 -1.09359,-2.53385 -1.50732,-2.12012 C-1.92106,-1.70638 -2.12793,-1.22591 -2.12793,-0.678711 C-2.12793,-0.104818 -1.92106,0.385661 -1.50732,0.792725 C-1.09359,1.19979 -0.599772,1.40332 -0.0258789,1.40332 C0.521322,1.40332 0.985107,1.19979 1.36548,0.792725 C1.74585,0.385661 1.93604,-0.104818 1.93604,-0.678711 C1.93604,-1.22591 1.74585,-1.70638 1.36548,-2.12012 C0.985107,-2.53385 0.521322,-2.74072 -0.0258789,-2.74072 M-5.39111,-4.08203 C-5.39111,-3.8151 -5.271,-3.68164 -5.03076,-3.68164 L-4.95068,-3.68164 L-1.08691,-4.4624 C-0.900065,-4.4624 -0.806641,-4.58252 -0.806641,-4.82275 L-0.686523,-6.72461 C-0.686523,-6.83138 -0.739909,-6.90479 -0.84668,-6.94482 C-0.953451,-6.98486 -1.06022,-7.00488 -1.16699,-7.00488 L-1.24707,-7.00488 L-5.15088,-6.26416 C-5.31104,-6.26416 -5.39111,-6.1307 -5.39111,-5.86377 L-5.39111,-4.08203 M-4.65039,6.56836 C-4.33008,6.56836 -4.04647,6.44491 -3.79956,6.198 C-3.55265,5.95109 -3.4292,5.66748 -3.4292,5.34717 C-3.4292,4.96012 -3.55265,4.64315 -3.79956,4.39624 C-4.04647,4.14933 -4.33008,4.02588 -4.65039,4.02588 C-5.03743,4.02588 -5.35441,4.14933 -5.60132,4.39624 C-5.84823,4.64315 -5.97168,4.96012 -5.97168,5.34717 C-5.97168,5.66748 -5.84823,5.95109 -5.60132,6.198 C-5.35441,6.44491 -5.03743,6.56836 -4.65039,6.56836 M4.55859,15.0566 C4.55859,15.0299 4.5319,14.9632 4.47852,14.8564 C4.42513,14.7497 4.3584,14.6329 4.27832,14.5061 C4.19824,14.3793 4.12484,14.2625 4.05811,14.1558 C3.99137,14.049 3.94466,13.9823 3.91797,13.9556 L3.91797,13.9155 C3.91797,13.8621 3.8846,13.8354 3.81787,13.8354 L-4.00977,13.8354 C-4.03646,13.8354 -4.0765,13.8621 -4.12988,13.9155 C-4.15658,13.9422 -4.18327,13.9556 -4.20996,13.9556 C-4.20996,14.009 -4.30672,14.1925 -4.50024,14.5061 C-4.69377,14.8197 -4.81722,15.0033 -4.87061,15.0566 C-4.87061,15.1901 -4.7972,15.2568 -4.65039,15.2568 L4.47852,15.2568 C4.5319,15.2568 4.57194,15.2368 4.59863,15.1968 C4.62533,15.1567 4.61198,15.11 4.55859,15.0566 M4.47852,6.56836 C4.81217,6.56836 5.10246,6.44491 5.34937,6.198 C5.59627,5.95109 5.71973,5.66748 5.71973,5.34717 C5.71973,4.96012 5.59627,4.64315 5.34937,4.39624 C5.10246,4.14933 4.81217,4.02588 4.47852,4.02588 C4.10482,4.02588 3.79451,4.14933 3.54761,4.39624 C3.3007,4.64315 3.17725,4.96012 3.17725,5.34717 C3.17725,5.66748 3.3007,5.95109 3.54761,6.198 C3.79451,6.44491 4.10482,6.56836 4.47852,6.56836 "/>
</g>

<g fill="#3d97f1" fill-opacity="1" stroke="none" transform="matrix(1,0,0,1,0,0)"
font-family="MS Shell Dlg 2" font-size="7.8" font-weight="400" font-style="normal" 
>
</g>
</g>
</svg>
