<?xml version="1.0" encoding="UTF-8" standalone="no"?>
<svg
   xmlns:dc="http://purl.org/dc/elements/1.1/"
   xmlns:cc="http://creativecommons.org/ns#"
   xmlns:rdf="http://www.w3.org/1999/02/22-rdf-syntax-ns#"
   xmlns:svg="http://www.w3.org/2000/svg"
   xmlns="http://www.w3.org/2000/svg"
   xmlns:sodipodi="http://sodipodi.sourceforge.net/DTD/sodipodi-0.dtd"
   xmlns:inkscape="http://www.inkscape.org/namespaces/inkscape"
   inkscape:version="1.0 (4035a4fb49, 2020-05-01)"
   sodipodi:docname="1101.svg"
   id="svg20"
   version="1.2"
   viewBox="0 0 42.519639 42.519639"
   height="14.999999mm"
   width="14.999999mm">
  <metadata
     id="metadata24">
    <rdf:RDF>
      <cc:Work
         rdf:about="">
        <dc:format>image/svg+xml</dc:format>
        <dc:type
           rdf:resource="http://purl.org/dc/dcmitype/StillImage" />
        <dc:title>Qt SVG Document</dc:title>
      </cc:Work>
    </rdf:RDF>
  </metadata>
  <sodipodi:namedview
     inkscape:current-layer="svg20"
     inkscape:window-maximized="1"
     inkscape:window-y="-9"
     inkscape:window-x="-9"
     inkscape:cy="40.981297"
     inkscape:cx="9.3354868"
     inkscape:zoom="9.0239716"
     fit-margin-bottom="0"
     fit-margin-right="0"
     fit-margin-left="0"
     fit-margin-top="0"
     showgrid="false"
     id="namedview22"
     inkscape:window-height="1013"
     inkscape:window-width="1920"
     inkscape:pageshadow="2"
     inkscape:pageopacity="0"
     guidetolerance="10"
     gridtolerance="10"
     objecttolerance="10"
     borderopacity="1"
     bordercolor="#666666"
     pagecolor="#ffffff" />
  <title
     id="title2">Qt SVG Document</title>
  <desc
     id="desc4">Generated with Qt</desc>
  <defs
     id="defs6" />
  <g
     transform="translate(5.25984,5.25984)"
     id="g18"
     stroke-linejoin="bevel"
     stroke-linecap="square"
     fill-rule="evenodd"
     stroke-width="1"
     stroke="#000000"
     fill="none">
    <g
       id="g10"
       font-style="normal"
       font-weight="400"
       font-size="7.8px"
       font-family="'MS Shell Dlg 2'"
       stroke="none"
       fill-opacity="1"
       fill="#3d97f1">
      <path
         id="path8"
         d="M 37.2598,16 C 37.2598,27.7415 27.7415,37.2598 16,37.2598 4.25851,37.2598 -5.25984,27.7415 -5.25984,16 -5.25984,4.25851 4.25851,-5.25984 16,-5.25984 27.7415,-5.25984 37.2598,4.25851 37.2598,16"
         fill-rule="evenodd"
         vector-effect="non-scaling-stroke" />
    </g>
    <g
       id="g14"
       font-style="normal"
       font-weight="400"
       font-size="7.8px"
       font-family="'MS Shell Dlg 2'"
       transform="translate(16,13.7323)"
       stroke="none"
       fill-opacity="0.94902"
       fill="#ffffff">
      <path
         id="path12"
         d="M 4.55859,10.8325 C 4.37174,11.0194 4.27832,11.1729 4.27832,11.293 l 3.40332,5.7256 H 5.63965 L 5.41943,16.6582 C 5.36605,16.6048 5.29932,16.5781 5.21924,16.5781 H -5.39111 c -0.14681,0 -0.22022,0.0267 -0.22022,0.0801 L -5.8916,17.0186 H -7.85352 L -4.4502,11.1929 C -4.47689,11.1662 -4.50358,11.1261 -4.53027,11.0728 L -4.65039,10.8325 -7.41309,9.23096 C -7.59993,9.12419 -7.75342,8.98071 -7.87354,8.80054 -7.99365,8.62036 -8.05371,8.38346 -8.05371,8.08984 v -9.34912 c 0,-0.22689 0.0734,-0.4471 0.22021,-0.66064 0.14681,-0.21354 0.32699,-0.36035 0.54053,-0.44043 0.2002,-0.12012 0.34033,-0.28028 0.42041,-0.48047 0.08008,-0.2002 0.12012,-0.42708 0.12012,-0.68066 v -2.34229 c 0,-0.45378 0.14347,-0.83748 0.43042,-1.15112 0.28695,-0.31364 0.62394,-0.53052 1.01098,-0.65064 l 4.864751,-1.02099 h 0.4204101 0.2402339 l 4.924805,1.02099 c 0.44043,0.12012 0.79077,0.337 1.05103,0.65064 0.26025,0.31364 0.39038,0.69734 0.39038,1.15112 v 2.34229 c 0,0.5472 0.21354,0.93424 0.64062,1.16113 0.2002,0.08008 0.36035,0.22689 0.48047,0.44043 0.12012,0.21354 0.18018,0.43375 0.18018,0.66064 v 9.34912 c 0,0.29362 -0.06006,0.53052 -0.18018,0.7107 C 7.58154,8.98071 7.42139,9.12419 7.22119,9.23096 L 4.55859,10.8325 M 0.634766,-4.82275 c 0,0.24023 0.093424,0.36035 0.280273,0.36035 l 3.943851,0.78076 c 0.10677,0 0.21354,-0.04004 0.32031,-0.12012 0.10677,-0.08008 0.16016,-0.1735 0.16016,-0.28027 v -1.78174 c 0,-0.26693 -0.13347,-0.40039 -0.4004,-0.40039 L 1.0752,-7.00488 H 0.995117 c -0.240234,0 -0.360351,0.09342 -0.360351,0.28027 v 1.90186 M 3.17725,12.4341 C 3.12386,12.4074 3.06714,12.3306 3.00708,12.2039 2.94702,12.0771 2.87695,11.9469 2.79688,11.8135 2.6901,11.6533 2.59668,11.4798 2.5166,11.293 c -0.05338,0 -0.08675,-0.0167 -0.1001,-0.0501 -0.01334,-0.0333 -0.04671,-0.05 -0.10009,-0.05 h -4.88477 l -0.12012,0.1001 c -0.02669,0 -0.06673,0.0534 -0.12011,0.1601 -0.05339,0.1068 -0.12346,0.2269 -0.21021,0.3604 -0.08675,0.1334 -0.15682,0.2636 -0.2102,0.3904 -0.05339,0.1267 -0.09343,0.2035 -0.12012,0.2302 -0.05339,0.0534 -0.06673,0.0934 -0.04004,0.1201 0.02669,0.0267 0.06673,0.04 0.12012,0.04 h 6.22607 c 0.14681,0 0.22022,-0.0533 0.22022,-0.1601 M -0.0258789,-2.74072 c -0.5738931,0 -1.0677111,0.20687 -1.4814411,0.6206 -0.41374,0.41374 -0.62061,0.89421 -0.62061,1.441409 0,0.573893 0.20687,1.064372 0.62061,1.471436 0.41373,0.407065 0.907548,0.610595 1.4814411,0.610595 0.5472009,0 1.0109859,-0.20353 1.3913589,-0.610595 0.38037,-0.407064 0.57056,-0.897543 0.57056,-1.471436 0,-0.547199 -0.19019,-1.027669 -0.57056,-1.441409 -0.380373,-0.41373 -0.844158,-0.6206 -1.3913589,-0.6206 M -5.39111,-4.08203 c 0,0.26693 0.12011,0.40039 0.36035,0.40039 h 0.08008 l 3.86377,-0.78076 c 0.186845,0 0.280269,-0.12012 0.280269,-0.36035 l 0.120118,-1.90186 c 0,-0.10677 -0.053386,-0.18018 -0.160157,-0.22021 -0.106771,-0.04004 -0.21354,-0.06006 -0.32031,-0.06006 h -0.08008 l -3.90381,0.74072 c -0.16016,0 -0.24023,0.13346 -0.24023,0.40039 v 1.78174 m 0.74072,10.65039 c 0.32031,0 0.60392,-0.12345 0.85083,-0.37036 0.24691,-0.24691 0.37036,-0.53052 0.37036,-0.85083 0,-0.38705 -0.12345,-0.70402 -0.37036,-0.95093 -0.24691,-0.24691 -0.53052,-0.37036 -0.85083,-0.37036 -0.38704,0 -0.70402,0.12345 -0.95093,0.37036 -0.24691,0.24691 -0.37036,0.56388 -0.37036,0.95093 0,0.32031 0.12345,0.60392 0.37036,0.85083 0.24691,0.24691 0.56389,0.37036 0.95093,0.37036 m 9.20898,8.48824 c 0,-0.0267 -0.02669,-0.0934 -0.08007,-0.2002 C 4.42513,14.7497 4.3584,14.6329 4.27832,14.5061 4.19824,14.3793 4.12484,14.2625 4.05811,14.1558 3.99137,14.049 3.94466,13.9823 3.91797,13.9556 v -0.0401 c 0,-0.0534 -0.03337,-0.0801 -0.1001,-0.0801 h -7.82764 c -0.02669,0 -0.06673,0.0267 -0.12011,0.0801 -0.0267,0.0267 -0.05339,0.0401 -0.08008,0.0401 0,0.0534 -0.09676,0.2369 -0.29028,0.5505 -0.19353,0.3136 -0.31698,0.4972 -0.37037,0.5505 0,0.1335 0.07341,0.2002 0.22022,0.2002 h 9.12891 c 0.05338,0 0.09342,-0.02 0.12011,-0.06 C 4.62533,15.1567 4.61198,15.11 4.55859,15.0566 M 4.47852,6.56836 C 4.81217,6.56836 5.10246,6.44491 5.34937,6.198 5.59627,5.95109 5.71973,5.66748 5.71973,5.34717 5.71973,4.96012 5.59627,4.64315 5.34937,4.39624 5.10246,4.14933 4.81217,4.02588 4.47852,4.02588 c -0.3737,0 -0.68401,0.12345 -0.93091,0.37036 -0.24691,0.24691 -0.37036,0.56388 -0.37036,0.95093 0,0.32031 0.12345,0.60392 0.37036,0.85083 0.2469,0.24691 0.55721,0.37036 0.93091,0.37036"
         fill-rule="evenodd"
         vector-effect="none" />
    </g>
    <g
       id="g16"
       font-style="normal"
       font-weight="400"
       font-size="7.8px"
       font-family="'MS Shell Dlg 2'"
       stroke="none"
       fill-opacity="1"
       fill="#3d97f1" />
  </g>
</svg>
