<svg xmlns="http://www.w3.org/2000/svg" version="1.2" viewBox="0 0 42.52 42.52" height="56.693" width="56.693">
   <g stroke-linejoin="bevel" stroke-linecap="square" fill-rule="evenodd" stroke="none" fill="none" font-weight="400"
      font-size="7.8" font-family="'MS Shell Dlg 2'">
      <path
         d="M42.52 21.26C42.52 33 33 42.52 21.26 42.52 9.518 42.52 0 33 0 21.26 0 9.518 9.518 0 21.26 0 33 0 42.52 9.518 42.52 21.26"
         vector-effect="non-scaling-stroke" fill="#3d97f1" />
      <path
         d="M14.952 16.425a.81.81 0 01.599.273.932.932 0 01.262.672.758.758 0 01-.262.577.86.86 0 01-.599.242.713.713 0 01-.567-.242.85.85 0 01-.21-.577c0-.266.07-.49.21-.672a.678.678 0 01.567-.273m0 2.1a.86.86 0 01.599.241.804.804 0 01.262.62c0 .14-.02.433-.063.881-.042.448-.108.914-.2 1.397-.09.483-.185.92-.283 1.312-.098.392-.203.588-.315.588-.112 0-.213-.196-.304-.588-.091-.392-.172-.83-.242-1.312-.07-.483-.126-.949-.168-1.397a12.158 12.158 0 01-.063-.881.91.91 0 01.21-.62.713.713 0 01.567-.241m15.516 8.734c-.196.28-.252.42-.168.42l2.793 4.955H31.37l-.126-.44c-.056 0-.084-.015-.084-.043 0-.028-.028-.042-.084-.042h-9.07a.13.13 0 00-.074.021.13.13 0 01-.073.021l-.042.042-.168.441h-1.68l2.898-5.039-.19-.336-2.267-1.302c-.406-.196-.609-.51-.609-.944v-7.916c0-.42.203-.735.61-.945.335-.252.503-.595.503-1.029v-2.057c0-.35.123-.662.368-.935s.542-.437.892-.493l4.073-.86h.609l4.136.86c.308.056.578.22.809.493.23.273.346.585.346.935v2.057c0 .406.203.75.609 1.03.336.181.504.496.504.944v7.916c0 .461-.168.776-.504.944l-2.289 1.302M27.11 14.011c0 .168.09.252.273.252l3.338.692h.084c.238 0 .357-.084.357-.252v-1.637c0-.056-.035-.112-.105-.168a.39.39 0 00-.252-.084l-3.338-.651c-.238 0-.357.098-.357.294v1.554m2.079 14.739c.056 0 .098-.014.126-.042.028-.028.014-.07-.042-.126-.056-.056-.158-.207-.305-.452-.147-.244-.22-.395-.22-.451-.056 0-.084-.014-.084-.042 0-.028-.028-.042-.084-.042h-4.095c-.056 0-.084.014-.084.042 0 .028-.028.042-.084.042 0 .056-.083.207-.251.451-.168.245-.252.396-.252.452-.07.056-.088.098-.053.126.035.028.08.042.137.042h5.29m-2.666-12.934c-.462 0-.857.172-1.186.515-.33.343-.494.759-.494 1.249 0 .49.165.9.494 1.228.329.33.724.494 1.186.494a1.8 1.8 0 001.28-.494c.35-.329.526-.738.526-1.228s-.175-.906-.525-1.25a1.76 1.76 0 00-1.28-.514m-4.515-1.113c0 .168.112.252.336.252h.084l3.275-.692c.168 0 .252-.084.252-.252l.084-1.554c0-.196-.112-.294-.336-.294h-.084l-3.36.65c-.055 0-.111.029-.167.085-.056.056-.084.112-.084.168v1.637m.588 9.029c.322 0 .588-.109.798-.326.21-.217.315-.48.315-.787a.931.931 0 00-.315-.724c-.21-.19-.476-.284-.798-.284-.308 0-.557.095-.746.284a.98.98 0 00-.283.724c0 .308.094.57.283.787a.94.94 0 00.746.326m7.957 7.18c-.056-.056-.154-.227-.294-.514-.14-.287-.245-.43-.315-.43 0-.056-.028-.084-.084-.084h-6.697c-.028 0-.042.028-.042.084-.056 0-.158.143-.305.43-.147.287-.248.458-.304.514 0 .056.028.084.084.084h7.873c.056 0 .084-.028.084-.084m-1.196-8.293c0 .308.09.57.272.787.182.217.434.326.756.326.308 0 .564-.109.767-.326.203-.217.304-.48.304-.787a.946.946 0 00-.304-.724 1.08 1.08 0 00-.767-.284c-.322 0-.574.095-.756.284-.181.189-.272.43-.272.724m-17.763 2.058h5.71v7.957H9.305V12.163l6.51 1.407.713 1.301h-4.934v9.806"
         fill-opacity=".949" fill="#fff" />
   </g>
</svg>