<?xml version="1.0" encoding="UTF-8" standalone="no"?>
<svg width="11.25008mm" height="11.25008mm"
 viewBox="-5.3 -5.3 42.52000 42.52000"
 xmlns="http://www.w3.org/2000/svg" xmlns:xlink="http://www.w3.org/1999/xlink"  version="1.2" baseProfile="tiny">
<title>Qt SVG Document</title>
<desc>Generated with Qt</desc>
<defs>
</defs>
<g fill="none" stroke="black" stroke-width="1" fill-rule="evenodd" stroke-linecap="square" stroke-linejoin="bevel" >

<g fill="#3d97f1" fill-opacity="1" stroke="none" transform="matrix(1,0,0,1,0,0)"
font-family="MS Shell Dlg 2" font-size="7.8" font-weight="400" font-style="normal" 
>
<path vector-effect="non-scaling-stroke" fill-rule="evenodd" d="M37.2598,16 C37.2598,27.7415 27.7415,37.2598 16,37.2598 C4.25851,37.2598 -5.25984,27.7415 -5.25984,16 C-5.25984,4.25851 4.25851,-5.25984 16,-5.25984 C27.7415,-5.25984 37.2598,4.25851 37.2598,16 "/>
</g>

<g fill="#ffffff" fill-opacity="0.94902" stroke="none" transform="matrix(1,0,0,1,16,12.5984)"
font-family="MS Shell Dlg 2" font-size="7.8" font-weight="400" font-style="normal" 
>
<path vector-effect="none" fill-rule="evenodd" d="M-8.5542,0.288574 L-9.20508,4.40381 C-9.26107,4.69775 -9.40104,4.90072 -9.625,5.0127 C-9.84896,5.15267 -10.0694,5.20166 -10.2864,5.15967 C-10.5033,5.11768 -10.6818,4.9847 -10.8218,4.76074 C-10.9757,4.57878 -11.0177,4.33382 -10.9478,4.02588 L-10.2339,-0.404297 C-10.2339,-0.698242 -10.1009,-0.915202 -9.83496,-1.05518 L-6.22363,-3.32275 C-5.94368,-3.50472 -5.65674,-3.55371 -5.36279,-3.46973 L-1.24756,-2.48291 L2.97266,-2.5249 C3.02865,-2.49691 3.08464,-2.48291 3.14063,-2.48291 C3.19661,-2.48291 3.2526,-2.44792 3.30859,-2.37793 L8.17969,-7.29102 L9.25049,-7.33301 L3.7915,-1.87402 C3.90348,-1.52409 3.8335,-1.22314 3.58154,-0.971191 C3.46956,-0.831217 3.2946,-0.733236 3.05664,-0.677246 L2.59473,-0.677246 L-2.86426,4.80273 L-3.38916,4.27783 L1.54492,-0.677246 L-0.722656,-0.614258 C-1.0446,-0.586263 -1.35604,-0.610758 -1.65698,-0.687744 C-1.95793,-0.76473 -2.24837,-0.831217 -2.52832,-0.887207 C-2.85026,-0.971191 -3.1652,-1.06917 -3.47314,-1.18115 L-4.41797,4.31982 C-4.19401,4.51579 -3.96305,4.70475 -3.7251,4.88672 C-3.52913,5.05469 -3.30868,5.23315 -3.06372,5.42212 C-2.81877,5.61108 -2.57031,5.81755 -2.31836,6.0415 C-1.91243,6.39144 -1.566,6.69938 -1.27905,6.96533 C-0.992106,7.23128 -0.820638,7.48324 -0.764648,7.72119 L1.29297,13.4741 C1.37695,13.7401 1.37695,14.0025 1.29297,14.2615 C1.20898,14.5204 1.05501,14.7199 0.831055,14.8599 C0.565104,15.0278 0.274658,15.0768 -0.0402832,15.0068 C-0.355225,14.9368 -0.59668,14.7689 -0.764648,14.5029 C-0.820638,14.391 -0.848633,14.307 -0.848633,14.251 L-2.52832,9.48486 C-3.1862,8.96696 -3.80208,8.47705 -4.37598,8.01514 C-4.86589,7.62321 -5.35579,7.24528 -5.8457,6.88135 C-6.33561,6.51742 -6.69255,6.23747 -6.9165,6.0415 C-7.19645,5.81755 -7.4589,5.5481 -7.70386,5.23315 C-7.94881,4.91821 -8.04329,4.50179 -7.9873,3.98389 C-7.93132,3.66195 -7.86133,3.24202 -7.77734,2.72412 C-7.69336,2.20622 -7.60938,1.70931 -7.52539,1.2334 C-7.39941,0.659505 -7.29443,0.0576172 -7.21045,-0.572266 L-8.5542,0.288574 M9.37646,15.5527 C9.43245,15.5527 9.50244,15.4757 9.58643,15.3218 C9.65641,15.2378 9.7054,15.1538 9.7334,15.0698 L10.4893,15.0698 C10.4613,15.2658 10.3913,15.4548 10.2793,15.6367 C10.1953,15.7767 10.0903,15.9097 9.96436,16.0356 C9.83838,16.1616 9.65641,16.2386 9.41846,16.2666 L-9.01611,16.3086 L-9.01611,15.5947 L9.37646,15.5527 M-4.12402,-4.05762 C-4.52995,-3.80566 -4.97437,-3.73568 -5.45728,-3.84766 C-5.94019,-3.95964 -6.31462,-4.21859 -6.58057,-4.62451 C-6.83252,-5.03044 -6.90251,-5.46785 -6.79053,-5.93677 C-6.67855,-6.40568 -6.4196,-6.77311 -6.01367,-7.03906 C-5.60775,-7.29102 -5.16333,-7.361 -4.68042,-7.24902 C-4.19751,-7.13704 -3.82308,-6.87809 -3.55713,-6.47217 C-3.30518,-6.06624 -3.23519,-5.62882 -3.34717,-5.15991 C-3.45915,-4.691 -3.7181,-4.32357 -4.12402,-4.05762 M-11.3467,4.65576 L-10.6118,5.60059 L-13.8032,7.93115 L-13.8032,7.1123 L-11.5566,5.39063 L-13.7192,5.70557 L-13.7612,4.9707 L-11.3467,4.65576 M-7.65137,7.28027 L-6.9165,6.46143 L-5.02686,8.2251 L-5.76172,9.04395 L-7.65137,7.28027 M12.9878,12.6553 C13.0438,13.1452 12.9143,13.5931 12.5994,13.999 C12.2844,14.4049 11.882,14.6359 11.3921,14.6919 L10.8882,14.7759 L10.9302,14.4189 L9.50244,14.4609 L9.37646,14.9019 L5.93311,15.3218 L2.55273,15.2798 L2.80469,14.9438 L11.3081,13.957 C11.63,13.901 11.8855,13.7576 12.0745,13.5266 C12.2634,13.2957 12.3229,13.0192 12.2529,12.6973 L12.9878,12.6553 M-3.09521,9.61084 L-1.5835,13.7471 C-1.63949,13.999 -1.76196,14.2195 -1.95093,14.4084 C-2.13989,14.5974 -2.37435,14.6919 -2.6543,14.6919 C-2.97624,14.7199 -3.24219,14.6254 -3.45215,14.4084 C-3.66211,14.1915 -3.78809,13.922 -3.83008,13.6001 C-3.83008,13.4601 -3.80908,13.3621 -3.76709,13.3062 L-3.09521,9.61084"/>
</g>

<g fill="#3d97f1" fill-opacity="1" stroke="none" transform="matrix(1,0,0,1,0,0)"
font-family="MS Shell Dlg 2" font-size="7.8" font-weight="400" font-style="normal" 
>
</g>
</g>
</svg>
