<svg xmlns="http://www.w3.org/2000/svg" version="1.2" viewBox="0 0 42.52 42.52" height="56.693" width="56.693"><title>Qt SVG Document</title><g stroke-linejoin="bevel" stroke-linecap="square" fill-rule="evenodd" stroke="none" fill="none" font-weight="400" font-size="7.8" font-family="'MS Shell Dlg 2'"><path d="M42.52 21.26C42.52 33 33 42.52 21.26 42.52 9.518 42.52 0 33 0 21.26 0 9.518 9.518 0 21.26 0 33 0 42.52 9.518 42.52 21.26" vector-effect="non-scaling-stroke" fill="#3d97f1"/><path d="M12.706 18.147l-.651 4.115c-.056.294-.196.497-.42.609-.224.14-.445.189-.662.147-.216-.042-.395-.175-.535-.399-.154-.182-.196-.427-.126-.735l.714-4.43a.69.69 0 01.399-.65l3.611-2.269c.28-.181.567-.23.861-.146l4.115.986 4.22-.042a.373.373 0 00.168.042c.056 0 .112.035.168.105l4.872-4.913 1.07-.042-5.459 5.46c.112.35.042.65-.21.902-.112.14-.287.238-.525.294h-.461l-5.46 5.48-.524-.525 4.934-4.955-2.268.063a2.774 2.774 0 01-.934-.074 16.873 16.873 0 00-.871-.199 10.57 10.57 0 01-.945-.294l-.945 5.501c.224.196.455.385.693.567.196.168.416.346.661.535.245.19.494.396.745.62.406.35.753.658 1.04.924.287.266.458.517.514.755l2.058 5.753c.084.266.084.529 0 .788a1.073 1.073 0 01-.462.598 1.118 1.118 0 01-.871.147 1.106 1.106 0 01-.725-.504.644.644 0 01-.084-.252l-1.68-4.766a219.36 219.36 0 01-1.847-1.47c-.49-.392-.98-.77-1.47-1.133-.49-.364-.847-.644-1.07-.84a4.806 4.806 0 01-.788-.809c-.245-.315-.34-.731-.283-1.249.056-.322.126-.742.21-1.26.083-.518.167-1.014.251-1.49.126-.574.231-1.176.315-1.806l-1.343.86m17.93 15.265c.056 0 .126-.077.21-.231a.787.787 0 00.147-.252h.756a1.471 1.471 0 01-.21.567c-.084.14-.189.273-.315.399s-.308.203-.546.23l-18.434.043v-.714l18.392-.042m-13.5-19.61c-.406.252-.85.322-1.333.21a1.771 1.771 0 01-1.124-.777 1.663 1.663 0 01-.21-1.313c.112-.468.371-.836.777-1.102.406-.252.85-.322 1.333-.21.483.112.858.371 1.124.777.252.406.322.843.21 1.312-.112.47-.371.837-.777 1.103m-7.223 8.713l.735.945-3.191 2.33v-.818l2.246-1.722-2.162.315-.042-.735 2.414-.315m3.695 2.625l.735-.82 1.89 1.764-.735.82-1.89-1.764m20.64 5.375c.056.49-.074.937-.389 1.343a1.727 1.727 0 01-1.207.693l-.504.084.042-.357-1.428.042-.126.441-3.443.42-3.38-.042.252-.336 8.503-.987c.322-.056.577-.2.766-.43.19-.231.249-.508.179-.83l.735-.041m-16.083-3.045l1.511 4.136a1.327 1.327 0 01-.367.662.955.955 0 01-.703.283c-.322.028-.588-.066-.798-.283a1.386 1.386 0 01-.378-.809c0-.14.02-.238.063-.294l.672-3.695" fill-opacity=".949" fill="#fff"/></g></svg>