<?xml version="1.0" encoding="UTF-8" standalone="no"?>
<svg
   xmlns:dc="http://purl.org/dc/elements/1.1/"
   xmlns:cc="http://creativecommons.org/ns#"
   xmlns:rdf="http://www.w3.org/1999/02/22-rdf-syntax-ns#"
   xmlns:svg="http://www.w3.org/2000/svg"
   xmlns="http://www.w3.org/2000/svg"
   xmlns:sodipodi="http://sodipodi.sourceforge.net/DTD/sodipodi-0.dtd"
   xmlns:inkscape="http://www.inkscape.org/namespaces/inkscape"
   inkscape:version="1.0 (4035a4fb49, 2020-05-01)"
   sodipodi:docname="1104.svg"
   id="svg20"
   version="1.2"
   viewBox="0 0 42.519639 42.519639"
   height="14.999999mm"
   width="14.999999mm">
  <metadata
     id="metadata24">
    <rdf:RDF>
      <cc:Work
         rdf:about="">
        <dc:format>image/svg+xml</dc:format>
        <dc:type
           rdf:resource="http://purl.org/dc/dcmitype/StillImage" />
        <dc:title>Qt SVG Document</dc:title>
      </cc:Work>
    </rdf:RDF>
  </metadata>
  <sodipodi:namedview
     inkscape:current-layer="svg20"
     inkscape:window-maximized="0"
     inkscape:window-y="0"
     inkscape:window-x="0"
     inkscape:cy="28.346482"
     inkscape:cx="28.346482"
     inkscape:zoom="5.8410537"
     fit-margin-bottom="0"
     fit-margin-right="0"
     fit-margin-left="0"
     fit-margin-top="0"
     showgrid="false"
     id="namedview22"
     inkscape:window-height="480"
     inkscape:window-width="1034"
     inkscape:pageshadow="2"
     inkscape:pageopacity="0"
     guidetolerance="10"
     gridtolerance="10"
     objecttolerance="10"
     borderopacity="1"
     bordercolor="#666666"
     pagecolor="#ffffff" />
  <title
     id="title2">Qt SVG Document</title>
  <desc
     id="desc4">Generated with Qt</desc>
  <defs
     id="defs6" />
  <g
     transform="translate(5.25984,5.25984)"
     id="g18"
     stroke-linejoin="bevel"
     stroke-linecap="square"
     fill-rule="evenodd"
     stroke-width="1"
     stroke="#000000"
     fill="none">
    <g
       id="g10"
       font-style="normal"
       font-weight="400"
       font-size="7.8px"
       font-family="'MS Shell Dlg 2'"
       stroke="none"
       fill-opacity="1"
       fill="#3d97f1">
      <path
         id="path8"
         d="M 37.2598,16 C 37.2598,27.7415 27.7415,37.2598 16,37.2598 4.25851,37.2598 -5.25984,27.7415 -5.25984,16 -5.25984,4.25851 4.25851,-5.25984 16,-5.25984 27.7415,-5.25984 37.2598,4.25851 37.2598,16"
         fill-rule="evenodd"
         vector-effect="non-scaling-stroke" />
    </g>
    <g
       id="g14"
       font-style="normal"
       font-weight="400"
       font-size="7.8px"
       font-family="'MS Shell Dlg 2'"
       transform="translate(16,12.5984)"
       stroke="none"
       fill-opacity="0.94902"
       fill="#ffffff">
      <path
         id="path12"
         d="m -6.34961,-5.35938 c -0.26595,0 -0.47591,-0.09098 -0.62988,-0.27294 -0.15397,-0.18197 -0.23096,-0.40593 -0.23096,-0.67188 0.028,-0.25195 0.13298,-0.45841 0.31494,-0.61938 0.18197,-0.16097 0.40593,-0.22746 0.67188,-0.19947 0.22396,0 0.42342,0.09449 0.59839,0.28345 0.17496,0.18897 0.24845,0.40942 0.22045,0.66138 -0.02799,0.23795 -0.13647,0.44092 -0.32543,0.60888 -0.18897,0.16797 -0.39543,0.23796 -0.61939,0.20996 m 2.22559,-0.86083 c -0.25196,-0.028 -0.46542,-0.13298 -0.64038,-0.31495 -0.17497,-0.18196 -0.24846,-0.40592 -0.22046,-0.67187 0.02799,-0.22396 0.13647,-0.42342 0.32544,-0.59839 0.18896,-0.17497 0.39542,-0.24845 0.61938,-0.22046 0.26595,0 0.48291,0.10148 0.65088,0.30444 0.16797,0.20297 0.23796,0.41643 0.20996,0.64039 -0.02799,0.26595 -0.13297,0.47591 -0.31494,0.62988 -0.18197,0.15397 -0.39193,0.23096 -0.62988,0.23096 m 0.56689,8.60839 C -4.01904,2.2762 -4.37948,2.02425 -4.63843,1.63232 -4.89738,1.2404 -4.97087,0.806478 -4.85889,0.330566 c 0.08399,-0.4059241 0.30095,-0.745361 0.65088,-1.01831 0.34994,-0.272949 0.73487,-0.381426 1.15479,-0.325436 0.08398,0 0.16097,0.013994 0.23095,0.041989 0.47592,0.083984 0.84335,0.32194 1.1023,0.713867 0.25895,0.391927 0.33244,0.825846 0.22046,1.301754 -0.08399,0.43392 -0.29745,0.78036 -0.64038,1.03931 -0.34294,0.25895 -0.73137,0.36043 -1.16529,0.30444 H -3.55713 M -7.33643,7.07031 -8.34424,5.91553 C -8.40023,5.85954 -8.42822,5.78955 -8.42822,5.70557 l 0.08398,-7.5376 c 0.06999,-0.19596 0.16097,-0.30794 0.27295,-0.33594 l 3.40137,-1.25976 0.08398,-0.50391 -2.54052,0.90283 0.04199,-0.56689 -2.01563,0.73486 c -0.02799,0.02799 -0.07698,0.04199 -0.14697,0.04199 -0.13997,-0.05599 -0.25195,-0.13997 -0.33594,-0.25195 -0.05599,-0.23796 0.028,-0.39893 0.25196,-0.48291 l 2.28857,-0.81885 0.04199,-0.29394 4.64014,-1.84766 -0.04199,0.46191 8.25146,-2.96045 c 0.20996,-0.08398 0.37093,-0.01399 0.48291,0.20997 0.05599,0.23795 -0.02799,0.39892 -0.25195,0.48291 l -8.52442,3.04443 -0.04199,0.56689 -1.34375,0.48291 -0.12597,1.1128 c -0.05599,0.16797 -0.13998,0.26595 -0.25196,0.29394 l -3.40137,1.23877 -0.08398,7.13867 0.39893,0.44092 V 4.80273 c 0,-0.32194 0.09798,-0.5249 0.29394,-0.60888 0.19597,-0.08399 0.32194,-0.12598 0.37793,-0.12598 0.15397,0 0.31494,0.04199 0.48291,0.12598 0.16797,0.08398 0.26595,0.28694 0.29395,0.60888 l -0.08399,3.65332 v 0.08399 l -0.65088,0.37793 c -0.19596,0.13997 -0.31494,0.31144 -0.35693,0.5144 -0.04199,0.20297 -0.007,0.40243 0.10498,0.59843 0.13997,0.2379 0.34294,0.3569 0.60889,0.3569 0.16797,0 0.32194,-0.042 0.46191,-0.126 l 0.39893,-0.2309 c 0.25195,0.2379 0.56689,0.3989 0.94482,0.4829 0.39193,0.084 0.87484,0.1924 1.44873,0.3254 0.57389,0.133 0.99382,0.2275 1.25977,0.2835 0.22396,0.0559 0.38143,0.1609 0.47241,0.3149 0.09098,0.154 0.11898,0.3184 0.08398,0.4934 -0.03499,0.175 -0.12947,0.3254 -0.28344,0.4514 -0.15397,0.126 -0.34994,0.161 -0.58789,0.105 -0.33594,-0.084 -0.61939,-0.147 -0.85035,-0.189 -0.23095,-0.042 -0.43741,-0.0839 -0.61938,-0.1259 -0.18197,-0.042 -0.38143,-0.084 -0.59839,-0.126 -0.21696,-0.042 -0.48641,-0.091 -0.80835,-0.147 -0.22396,-0.07 -0.47241,-0.175 -0.74536,-0.3149 -0.27295,-0.14 -0.5389,-0.3465 -0.79785,-0.6194 -0.25895,-0.273 -0.47241,-0.6089 -0.64038,-1.00782 -0.16797,-0.39893 -0.25196,-0.88534 -0.25196,-1.45923 0,-0.26595 0,-0.51091 0,-0.73487 0,-0.22395 0.014,-0.45491 0.042,-0.69287 h -0.042 m 1.97364,1.1128 c 0,-0.19597 0.007,-0.48641 0.02099,-0.87134 0.014,-0.38493 0.028,-0.78036 0.042,-1.18628 0.01399,-0.40593 0.02099,-0.79435 0.02099,-1.16528 0,-0.37094 0,-0.65438 0,-0.85035 0.028,-0.5179 0.20646,-0.89933 0.5354,-1.14428 0.32894,-0.24496 0.66838,-0.35344 1.01831,-0.32544 0.028,0 0.04199,0 0.04199,0 0.33594,0.02799 0.66138,0.16447 0.97632,0.40942 0.31494,0.24495 0.47241,0.57039 0.47241,0.97632 L -2.27637,6.6084 -3.01123,6.77637 c -0.08398,0 -0.18197,0.02799 -0.29395,0.08398 L -5.36279,8.18311 M 1.73389,6.56641 C 1.78988,6.70638 1.77238,6.83936 1.6814,6.96533 1.59041,7.09131 1.47493,7.16829 1.33496,7.19629 L -2.6543,8.01514 -5.8877,10.0308 c -0.05598,0.0699 -0.15397,0.1049 -0.29394,0.1049 -0.16797,0 -0.31494,-0.0909 -0.44092,-0.27291 -0.05599,-0.11198 -0.07698,-0.23795 -0.06299,-0.37793 0.014,-0.13997 0.09798,-0.24495 0.25196,-0.31494 l 3.29638,-2.09961 c 0.028,0 0.04899,-0.007 0.06299,-0.02099 0.014,-0.014 0.04899,-0.021 0.10498,-0.021 L 1.125,6.16748 C 1.47493,6.11149 1.6779,6.24447 1.73389,6.56641 M 0.432129,8.66602 C 0.64209,8.72201 0.890544,8.83748 1.17749,9.01245 1.46444,9.18742 1.60791,9.54085 1.60791,10.0728 l 0.25195,3.8422 -1.553708,0.5879 -0.2099606,0.147 C 0.0402018,14.4679 0.012207,14.307 0.012207,14.167 l -0.356934,-3.1914 c -0.391927,-0.056 -0.790853,-0.14 -1.196773,-0.252 -0.34994,-0.084 -0.72437,-0.1679 -1.12329,-0.2519 -0.39893,-0.084 -0.76636,-0.168 -1.1023,-0.252 -0.18197,-0.056 -0.37793,-0.1085 -0.58789,-0.1574 -0.20996,-0.049 -0.39193,-0.15751 -0.5459,-0.32548 L -2.57031,8.26709 -1.91943,8.14111 0.432129,8.66602 M 12.6519,10.8076 c 0.0839,0.322 0.0454,0.6334 -0.1155,0.9343 -0.161,0.301 -0.3954,0.4935 -0.7034,0.5774 l -0.3779,0.084 -0.063,-0.1679 -0.5039,0.0839 -0.5249,0.084 -0.50392,0.084 0.04199,0.3989 -3.65332,1.0288 -4.17823,0.7349 9.59518,-2.8135 c 0.196,-0.056 0.343,-0.1679 0.441,-0.3359 0.0979,-0.168 0.1189,-0.3569 0.0629,-0.5669 l 0.483,-0.126 m -1.6797,2.0366 c 0.056,0.364 -0.0245,0.6964 -0.2415,0.9974 -0.2169,0.3009 -0.5074,0.4794 -0.87132,0.5354 L -7.25244,17.2744 -7.33643,16.7495 9.77539,13.873 c 0.22396,-0.0559 0.40941,-0.1714 0.55641,-0.3464 0.147,-0.175 0.1855,-0.3744 0.1155,-0.5984 l 0.5249,-0.084"
         fill-rule="evenodd"
         vector-effect="none" />
    </g>
    <g
       id="g16"
       font-style="normal"
       font-weight="400"
       font-size="7.8px"
       font-family="'MS Shell Dlg 2'"
       stroke="none"
       fill-opacity="1"
       fill="#3d97f1" />
  </g>
</svg>
