<svg xmlns="http://www.w3.org/2000/svg" version="1.2" viewBox="0 0 42.52 42.52" height="56.693" width="56.693"><title>Qt SVG Document</title><g stroke-linejoin="bevel" stroke-linecap="square" fill-rule="evenodd" stroke="none" fill="none" font-weight="400" font-size="7.8" font-family="'MS Shell Dlg 2'"><path d="M42.52 21.26C42.52 33 33 42.52 21.26 42.52 9.518 42.52 0 33 0 21.26 0 9.518 9.518 0 21.26 0 33 0 42.52 9.518 42.52 21.26" vector-effect="non-scaling-stroke" fill="#3d97f1"/><path d="M14.91 12.499c-.266 0-.476-.091-.63-.273a1.005 1.005 0 01-.23-.672.935.935 0 01.314-.62.836.836 0 01.672-.199c.224 0 .424.095.599.284.175.189.248.41.22.661a.94.94 0 01-.325.609.76.76 0 01-.62.21m2.226-.861a1.018 1.018 0 01-.64-.315.802.802 0 01-.221-.672.968.968 0 01.325-.598c.19-.175.396-.249.62-.22.266 0 .483.1.65.304.169.203.239.416.21.64a.915.915 0 01-.314.63.946.946 0 01-.63.231m.567 8.608a1.743 1.743 0 01-1.082-.755 1.601 1.601 0 01-.22-1.302c.084-.406.3-.746.65-1.019.35-.272.736-.38 1.156-.325.084 0 .16.014.23.042.476.084.844.322 1.103.714.259.392.332.826.22 1.302a1.65 1.65 0 01-.64 1.039c-.343.259-.731.36-1.165.304h-.252m-3.78 4.683l-1.007-1.155a.285.285 0 01-.084-.21l.084-7.538c.07-.196.16-.308.273-.336l3.4-1.26.085-.503-2.54.902.041-.566-2.015.734c-.028.028-.077.042-.147.042a.764.764 0 01-.336-.252c-.056-.238.028-.398.252-.482l2.288-.82.042-.293 4.64-1.848-.042.462 8.252-2.96c.21-.084.37-.014.483.21.056.237-.028.398-.252.482l-8.524 3.045-.042.567-1.344.483-.126 1.112c-.056.168-.14.266-.252.294l-3.402 1.24-.084 7.138.4.44v-1.196c0-.322.097-.525.293-.609.196-.084.322-.126.378-.126.154 0 .315.042.483.126.168.084.266.287.294.609l-.084 3.653v.084l-.65.378a.834.834 0 00-.358.515.833.833 0 00.105.598c.14.238.343.357.61.357a.88.88 0 00.461-.126l.4-.231c.251.238.566.399.944.483.392.084.875.192 1.449.325.573.133.993.228 1.26.284.223.056.38.16.472.315a.678.678 0 01.084.493.77.77 0 01-.284.452c-.154.126-.35.16-.588.105-.336-.084-.619-.147-.85-.19-.23-.041-.437-.083-.62-.125a17.26 17.26 0 00-.598-.126 44.507 44.507 0 00-.808-.147 4.802 4.802 0 01-.745-.315 3.008 3.008 0 01-.798-.62 3.316 3.316 0 01-.64-1.007c-.169-.4-.253-.886-.253-1.46v-.735c0-.224.014-.454.042-.692h-.042m1.974 1.112c0-.196.007-.486.021-.871l.042-1.186c.014-.406.021-.795.021-1.166v-.85c.028-.518.206-.9.535-1.144.33-.245.669-.354 1.019-.326h.042c.336.028.661.165.976.41.315.245.472.57.472.976l-.042 2.583-.734.168a.677.677 0 00-.294.084l-2.058 1.322m7.097-1.616a.393.393 0 01-.053.399.552.552 0 01-.346.23l-3.99.82-3.233 2.015c-.056.07-.154.105-.294.105-.168 0-.315-.091-.44-.273a.678.678 0 01-.064-.378c.014-.14.098-.245.252-.315l3.297-2.1c.028 0 .049-.006.063-.02.014-.014.049-.021.105-.021l4.094-.861c.35-.056.553.077.609.399m-1.302 2.1c.21.055.458.17.745.346.287.175.43.528.43 1.06l.253 3.842-1.554.588-.21.147a1.669 1.669 0 01-.084-.483l-.357-3.191a9.611 9.611 0 01-1.197-.252c-.35-.084-.724-.168-1.123-.252a30.312 30.312 0 01-1.102-.252 8.752 8.752 0 00-.588-.157 1.053 1.053 0 01-.546-.326l2.33-1.47.651-.126 2.352.525m12.22 2.142a1.25 1.25 0 01-.116.934 1.106 1.106 0 01-.703.578l-.378.084-.063-.168-.504.084-.525.084-.504.084.042.398-3.653 1.03-4.178.734 9.595-2.813a.717.717 0 00.504-.903l.483-.126m-1.68 2.036c.056.364-.024.697-.241.998-.217.3-.508.48-.872.535l-17.112 2.898-.084-.525 17.112-2.877c.224-.056.41-.171.557-.346a.598.598 0 00.115-.599l.525-.084" fill-opacity=".949" fill="#fff"/></g></svg>