<?xml version="1.0" encoding="UTF-8" standalone="no"?>
<svg
   xmlns:dc="http://purl.org/dc/elements/1.1/"
   xmlns:cc="http://creativecommons.org/ns#"
   xmlns:rdf="http://www.w3.org/1999/02/22-rdf-syntax-ns#"
   xmlns:svg="http://www.w3.org/2000/svg"
   xmlns="http://www.w3.org/2000/svg"
   xmlns:sodipodi="http://sodipodi.sourceforge.net/DTD/sodipodi-0.dtd"
   xmlns:inkscape="http://www.inkscape.org/namespaces/inkscape"
   inkscape:version="1.0 (4035a4fb49, 2020-05-01)"
   sodipodi:docname="1105.svg"
   id="svg20"
   version="1.2"
   viewBox="0 0 42.519639 42.519639"
   height="14.999999mm"
   width="14.999999mm">
  <metadata
     id="metadata24">
    <rdf:RDF>
      <cc:Work
         rdf:about="">
        <dc:format>image/svg+xml</dc:format>
        <dc:type
           rdf:resource="http://purl.org/dc/dcmitype/StillImage" />
        <dc:title>Qt SVG Document</dc:title>
      </cc:Work>
    </rdf:RDF>
  </metadata>
  <sodipodi:namedview
     inkscape:current-layer="svg20"
     inkscape:window-maximized="1"
     inkscape:window-y="-9"
     inkscape:window-x="-9"
     inkscape:cy="28.346482"
     inkscape:cx="28.346482"
     inkscape:zoom="18.047943"
     fit-margin-bottom="0"
     fit-margin-right="0"
     fit-margin-left="0"
     fit-margin-top="0"
     showgrid="false"
     id="namedview22"
     inkscape:window-height="1013"
     inkscape:window-width="1920"
     inkscape:pageshadow="2"
     inkscape:pageopacity="0"
     guidetolerance="10"
     gridtolerance="10"
     objecttolerance="10"
     borderopacity="1"
     bordercolor="#666666"
     pagecolor="#ffffff" />
  <title
     id="title2">Qt SVG Document</title>
  <desc
     id="desc4">Generated with Qt</desc>
  <defs
     id="defs6" />
  <g
     transform="translate(5.25984,5.25984)"
     id="g18"
     stroke-linejoin="bevel"
     stroke-linecap="square"
     fill-rule="evenodd"
     stroke-width="1"
     stroke="#000000"
     fill="none">
    <g
       id="g10"
       font-style="normal"
       font-weight="400"
       font-size="7.8px"
       font-family="'MS Shell Dlg 2'"
       stroke="none"
       fill-opacity="1"
       fill="#3d97f1">
      <path
         id="path8"
         d="M 37.2598,16 C 37.2598,27.7415 27.7415,37.2598 16,37.2598 4.25851,37.2598 -5.25984,27.7415 -5.25984,16 -5.25984,4.25851 4.25851,-5.25984 16,-5.25984 27.7415,-5.25984 37.2598,4.25851 37.2598,16"
         fill-rule="evenodd"
         vector-effect="non-scaling-stroke" />
    </g>
    <g
       id="g14"
       font-style="normal"
       font-weight="400"
       font-size="7.8px"
       font-family="'MS Shell Dlg 2'"
       transform="translate(16,12.5984)"
       stroke="none"
       fill-opacity="0.94902"
       fill="#ffffff">
      <path
         id="path12"
         d="M 9.76367,-6.46436 V -5.2832 L -11.0166,2.46436 V 1.32324 l 20.78027,-7.7876 m -13.11279,4.00391 c -0.38705,0 -0.73071,-0.14347 -1.03101,-0.43042 -0.30029,-0.28695 -0.45044,-0.61727 -0.45044,-0.99097 0,-0.38704 0.15015,-0.71736 0.45044,-0.99096 0.3003,-0.2736 0.64396,-0.4104 1.03101,-0.4104 0.41374,0 0.7574,0.1368 1.031,0.4104 0.27361,0.2736 0.41041,0.60392 0.41041,0.99096 0,0.3737 -0.1368,0.70402 -0.41041,0.99097 -0.2736,0.28695 -0.61726,0.43042 -1.031,0.43042 m 9.92969,6.44629 c 0.21354,0 0.4104,0.08341 0.59057,0.25024 0.18018,0.16683 0.27027,0.39706 0.27027,0.69068 v 9.58934 c 0,0.2269 -0.09009,0.4271 -0.27027,0.6006 C 6.99097,15.2902 6.79411,15.377 6.58057,15.377 H -7.11279 c -0.28028,0 -0.50716,-0.0868 -0.68067,-0.2603 -0.1735,-0.1735 -0.26025,-0.3737 -0.26025,-0.6006 V 4.92676 c 0,-0.29362 0.08675,-0.52385 0.26025,-0.69068 0.17351,-0.16683 0.40039,-0.25024 0.68067,-0.25024 h 5.72558 V -0.558594 L 0.214355,-1.21924 0.674805,3.98584 H 6.58057 m -7.387211,2.18213 c 0,-0.12012 -0.046712,-0.22689 -0.140136,-0.32031 C -1.0402,5.75423 -1.16032,5.70752 -1.30713,5.70752 h -5.06494 c -0.14681,0 -0.26693,0.04671 -0.36035,0.14014 -0.09343,0.09342 -0.14014,0.20019 -0.14014,0.32031 v 2.98291 c 0,0.16016 0.04671,0.29696 0.14014,0.4104 0.09342,0.11344 0.21354,0.17017 0.36035,0.17017 h 5.06494 c 0.14681,0 0.26693,-0.05673 0.360353,-0.17017 0.093424,-0.11344 0.140136,-0.25024 0.140136,-0.4104 V 6.16797 m 7.046871,0 C 6.24023,5.80762 6.09342,5.62744 5.7998,5.62744 H 0.915039 C 0.781576,5.62744 0.664795,5.68083 0.564697,5.7876 0.4646,5.89437 0.414551,6.02116 0.414551,6.16797 v 2.98291 c 0,0.13346 0.050049,0.25024 0.150146,0.35034 0.100098,0.1001 0.216879,0.15015 0.350342,0.15015 H 5.7998 c 0.13347,0 0.24024,-0.05005 0.32032,-0.15015 C 6.2002,9.40112 6.24023,9.28434 6.24023,9.15088 V 6.16797 M 1.53564,-4.12207 c -0.38704,0 -0.717362,-0.1368 -0.990962,-0.4104 -0.273601,-0.2736 -0.410401,-0.63062 -0.410401,-1.07105 0,-0.38704 0.1368,-0.72404 0.410401,-1.01098 0.2736,-0.28695 0.603922,-0.43042 0.990962,-0.43042 0.3737,0 0.70402,0.14347 0.99097,0.43042 0.28695,0.28694 0.43042,0.62394 0.43042,1.01098 0,0.44043 -0.14347,0.79745 -0.43042,1.07105 -0.28695,0.2736 -0.61727,0.4104 -0.99097,0.4104"
         fill-rule="evenodd"
         vector-effect="none" />
    </g>
    <g
       id="g16"
       font-style="normal"
       font-weight="400"
       font-size="7.8px"
       font-family="'MS Shell Dlg 2'"
       stroke="none"
       fill-opacity="1"
       fill="#3d97f1" />
  </g>
</svg>
