<?xml version="1.0" encoding="UTF-8" standalone="no"?>
<svg width="11.25008mm" height="11.25008mm"
 viewBox="-5.3 -5.3 42.52000 42.52000"
 xmlns="http://www.w3.org/2000/svg" xmlns:xlink="http://www.w3.org/1999/xlink"  version="1.2" baseProfile="tiny">
<title>Qt SVG Document</title>
<desc>Generated with Qt</desc>
<defs>
</defs>
<g fill="none" stroke="black" stroke-width="1" fill-rule="evenodd" stroke-linecap="square" stroke-linejoin="bevel" >

<g fill="#3d97f1" fill-opacity="1" stroke="none" transform="matrix(1,0,0,1,0,0)"
font-family="MS Shell Dlg 2" font-size="7.8" font-weight="400" font-style="normal" 
>
<path vector-effect="non-scaling-stroke" fill-rule="evenodd" d="M37.2598,16 C37.2598,27.7415 27.7415,37.2598 16,37.2598 C4.25851,37.2598 -5.25984,27.7415 -5.25984,16 C-5.25984,4.25851 4.25851,-5.25984 16,-5.25984 C27.7415,-5.25984 37.2598,4.25851 37.2598,16 "/>
</g>

<g fill="#ffffff" fill-opacity="0.94902" stroke="none" transform="matrix(1,0,0,1,16,12.5984)"
font-family="MS Shell Dlg 2" font-size="7.8" font-weight="400" font-style="normal" 
>
<path vector-effect="none" fill-rule="evenodd" d="M9.76367,-6.46436 L9.76367,-5.2832 L-11.0166,2.46436 L-11.0166,1.32324 L9.76367,-6.46436 M-3.34912,-2.46045 C-3.73617,-2.46045 -4.07983,-2.60392 -4.38013,-2.89087 C-4.68042,-3.17782 -4.83057,-3.50814 -4.83057,-3.88184 C-4.83057,-4.26888 -4.68042,-4.5992 -4.38013,-4.8728 C-4.07983,-5.1464 -3.73617,-5.2832 -3.34912,-5.2832 C-2.93538,-5.2832 -2.59172,-5.1464 -2.31812,-4.8728 C-2.04451,-4.5992 -1.90771,-4.26888 -1.90771,-3.88184 C-1.90771,-3.50814 -2.04451,-3.17782 -2.31812,-2.89087 C-2.59172,-2.60392 -2.93538,-2.46045 -3.34912,-2.46045 M6.58057,3.98584 C6.79411,3.98584 6.99097,4.06925 7.17114,4.23608 C7.35132,4.40291 7.44141,4.63314 7.44141,4.92676 L7.44141,14.5161 C7.44141,14.743 7.35132,14.9432 7.17114,15.1167 C6.99097,15.2902 6.79411,15.377 6.58057,15.377 L-7.11279,15.377 C-7.39307,15.377 -7.61995,15.2902 -7.79346,15.1167 C-7.96696,14.9432 -8.05371,14.743 -8.05371,14.5161 L-8.05371,4.92676 C-8.05371,4.63314 -7.96696,4.40291 -7.79346,4.23608 C-7.61995,4.06925 -7.39307,3.98584 -7.11279,3.98584 L-1.38721,3.98584 L-1.38721,-0.558594 L0.214355,-1.21924 L0.674805,3.98584 L6.58057,3.98584 M-0.806641,6.16797 C-0.806641,6.04785 -0.853353,5.94108 -0.946777,5.84766 C-1.0402,5.75423 -1.16032,5.70752 -1.30713,5.70752 L-6.37207,5.70752 C-6.51888,5.70752 -6.639,5.75423 -6.73242,5.84766 C-6.82585,5.94108 -6.87256,6.04785 -6.87256,6.16797 L-6.87256,9.15088 C-6.87256,9.31104 -6.82585,9.44784 -6.73242,9.56128 C-6.639,9.67472 -6.51888,9.73145 -6.37207,9.73145 L-1.30713,9.73145 C-1.16032,9.73145 -1.0402,9.67472 -0.946777,9.56128 C-0.853353,9.44784 -0.806641,9.31104 -0.806641,9.15088 L-0.806641,6.16797 M6.24023,6.16797 C6.24023,5.80762 6.09342,5.62744 5.7998,5.62744 L0.915039,5.62744 C0.781576,5.62744 0.664795,5.68083 0.564697,5.7876 C0.4646,5.89437 0.414551,6.02116 0.414551,6.16797 L0.414551,9.15088 C0.414551,9.28434 0.4646,9.40112 0.564697,9.50122 C0.664795,9.60132 0.781576,9.65137 0.915039,9.65137 L5.7998,9.65137 C5.93327,9.65137 6.04004,9.60132 6.12012,9.50122 C6.2002,9.40112 6.24023,9.28434 6.24023,9.15088 L6.24023,6.16797 M1.53564,-4.12207 C1.1486,-4.12207 0.818278,-4.25887 0.544678,-4.53247 C0.271077,-4.80607 0.134277,-5.16309 0.134277,-5.60352 C0.134277,-5.99056 0.271077,-6.32756 0.544678,-6.6145 C0.818278,-6.90145 1.1486,-7.04492 1.53564,-7.04492 C1.90934,-7.04492 2.23966,-6.90145 2.52661,-6.6145 C2.81356,-6.32756 2.95703,-5.99056 2.95703,-5.60352 C2.95703,-5.16309 2.81356,-4.80607 2.52661,-4.53247 C2.23966,-4.25887 1.90934,-4.12207 1.53564,-4.12207 "/>
</g>

<g fill="#3d97f1" fill-opacity="1" stroke="none" transform="matrix(1,0,0,1,0,0)"
font-family="MS Shell Dlg 2" font-size="7.8" font-weight="400" font-style="normal" 
>
</g>
</g>
</svg>
