<svg xmlns="http://www.w3.org/2000/svg" version="1.2" viewBox="0 0 42.52 42.52" height="56.693" width="56.693">
   <g stroke-linejoin="bevel" stroke-linecap="square" fill-rule="evenodd" stroke="none" fill="none" font-weight="400"
      font-size="7.8" font-family="'MS Shell Dlg 2'">
      <path
         d="M42.52 21.26C42.52 33 33 42.52 21.26 42.52 9.518 42.52 0 33 0 21.26 0 9.518 9.518 0 21.26 0 33 0 42.52 9.518 42.52 21.26"
         vector-effect="non-scaling-stroke" fill="#3d97f1" />
      <path
         d="M32.215 28.33l-21.857 6.278-.336-1.197 21.836-6.278.357 1.197M14.41 29.359c0-.448.158-.83.473-1.144a1.558 1.558 0 011.144-.473c.462 0 .843.158 1.144.473.301.314.452.696.452 1.144 0 .462-.15.843-.452 1.144-.3.301-.682.452-1.144.452-.448 0-.83-.151-1.144-.452-.315-.3-.473-.682-.473-1.144m10.225-2.919c0-.462.158-.85.473-1.165a1.583 1.583 0 011.165-.472c.462 0 .843.157 1.144.472.301.315.452.703.452 1.165 0 .462-.15.844-.452 1.145-.3.3-.682.451-1.144.451-.462 0-.85-.15-1.165-.451-.315-.301-.473-.683-.473-1.145m-13.416.525l-1.029.252V16.173l20.072-5.648V21.59l-1.029.294v1.197L11.22 28.288v-1.323m16.335-9.805l1.554-.483V12.08l-1.554.483v4.598m-6.698 1.974l5.417-1.596v-4.64l-5.417 1.596v4.64m-6.152 1.805l4.892-1.427v-4.64l-4.892 1.427v4.64m-3.086.903l1.805-.525v-4.64l-1.805.525v4.64"
         fill-opacity=".949" fill="#fff" />
   </g>
</svg>