<?xml version="1.0" encoding="UTF-8" standalone="no"?>
<svg width="11.25008mm" height="11.25008mm"
 viewBox="-5.3 -5.3 42.52000 42.52000"
 xmlns="http://www.w3.org/2000/svg" xmlns:xlink="http://www.w3.org/1999/xlink"  version="1.2" baseProfile="tiny">
<title>Qt SVG Document</title>
<desc>Generated with Qt</desc>
<defs>
</defs>
<g fill="none" stroke="black" stroke-width="1" fill-rule="evenodd" stroke-linecap="square" stroke-linejoin="bevel" >

<g fill="#3d97f1" fill-opacity="1" stroke="none" transform="matrix(1,0,0,1,0,0)"
font-family="MS Shell Dlg 2" font-size="7.8" font-weight="400" font-style="normal" 
>
<path vector-effect="non-scaling-stroke" fill-rule="evenodd" d="M37.2598,16 C37.2598,27.7415 27.7415,37.2598 16,37.2598 C4.25851,37.2598 -5.25984,27.7415 -5.25984,16 C-5.25984,4.25851 4.25851,-5.25984 16,-5.25984 C27.7415,-5.25984 37.2598,4.25851 37.2598,16 "/>
</g>

<g fill="#ffffff" fill-opacity="0.94902" stroke="none" transform="matrix(1,0,0,1,16,13.1654)"
font-family="MS Shell Dlg 2" font-size="7.8" font-weight="400" font-style="normal" 
>
<path vector-effect="none" fill-rule="evenodd" d="M10.9551,9.90479 L-10.9019,16.1826 L-11.2378,14.9858 L10.5981,8.70801 L10.9551,9.90479 M-6.84961,10.9336 C-6.84961,10.4857 -6.69214,10.1042 -6.3772,9.78931 C-6.06226,9.47437 -5.68083,9.31689 -5.23291,9.31689 C-4.771,9.31689 -4.38957,9.47437 -4.08862,9.78931 C-3.78768,10.1042 -3.63721,10.4857 -3.63721,10.9336 C-3.63721,11.3955 -3.78768,11.7769 -4.08862,12.0779 C-4.38957,12.3788 -4.771,12.5293 -5.23291,12.5293 C-5.68083,12.5293 -6.06226,12.3788 -6.3772,12.0779 C-6.69214,11.7769 -6.84961,11.3955 -6.84961,10.9336 M3.37549,8.01514 C3.37549,7.55322 3.53296,7.16479 3.8479,6.84985 C4.16284,6.53491 4.55127,6.37744 5.01318,6.37744 C5.4751,6.37744 5.85653,6.53491 6.15747,6.84985 C6.45841,7.16479 6.60889,7.55322 6.60889,8.01514 C6.60889,8.47705 6.45841,8.85848 6.15747,9.15942 C5.85653,9.46037 5.4751,9.61084 5.01318,9.61084 C4.55127,9.61084 4.16284,9.46037 3.8479,9.15942 C3.53296,8.85848 3.37549,8.47705 3.37549,8.01514 M-10.041,8.54004 L-11.0698,8.79199 L-11.0698,-2.25195 L9.00244,-7.8999 L9.00244,3.16504 L7.97363,3.45898 L7.97363,4.65576 L-10.041,9.86279 L-10.041,8.54004 M6.29395,-1.26514 L7.84766,-1.74805 L7.84766,-6.34619 L6.29395,-5.86328 L6.29395,-1.26514 M-0.403809,0.708496 L5.01318,-0.887207 L5.01318,-5.52734 L-0.403809,-3.93164 L-0.403809,0.708496 M-6.55566,2.51416 L-1.66357,1.08643 L-1.66357,-3.55371 L-6.55566,-2.12598 L-6.55566,2.51416 M-9.64209,3.41699 L-7.83643,2.89209 L-7.83643,-1.74805 L-9.64209,-1.22314 L-9.64209,3.41699"/>
</g>

<g fill="#3d97f1" fill-opacity="1" stroke="none" transform="matrix(1,0,0,1,0,0)"
font-family="MS Shell Dlg 2" font-size="7.8" font-weight="400" font-style="normal" 
>
</g>
</g>
</svg>
