<?xml version="1.0" encoding="UTF-8" standalone="no"?>
<svg width="11.2889mm" height="11.2889mm"
 viewBox="0 0 32 32"
 xmlns="http://www.w3.org/2000/svg" xmlns:xlink="http://www.w3.org/1999/xlink"  version="1.2" baseProfile="tiny">
<title>Qt SVG Document</title>
<desc>Generated with Qt</desc>
<defs>
</defs>
<g fill="none" stroke="black" stroke-width="1" fill-rule="evenodd" stroke-linecap="square" stroke-linejoin="bevel" >

<g fill="#3d97f1" fill-opacity="1" stroke="none" transform="matrix(1,0,0,1,0,0)"
font-family="MS Shell Dlg 2" font-size="7.8" font-weight="400" font-style="normal" 
>
<path vector-effect="non-scaling-stroke" fill-rule="evenodd" d="M37.2598,16 C37.2598,27.7415 27.7415,37.2598 16,37.2598 C4.25851,37.2598 -5.25984,27.7415 -5.25984,16 C-5.25984,4.25851 4.25851,-5.25984 16,-5.25984 C27.7415,-5.25984 37.2598,4.25851 37.2598,16 "/>
</g>

<g fill="#ffffff" fill-opacity="0.94902" stroke="none" transform="matrix(1,0,0,1,16.5669,13.1654)"
font-family="MS Shell Dlg 2" font-size="7.8" font-weight="400" font-style="normal" 
>
<path vector-effect="none" fill-rule="evenodd" d="M-2.68848,5.42725 C-2.82194,5.53402 -2.95207,5.62744 -3.07886,5.70752 C-3.20565,5.7876 -3.33577,5.89437 -3.46924,6.02783 L-3.70947,6.02783 L-3.70947,6.44824 C-3.8029,6.55501 -3.85628,6.64844 -3.86963,6.72852 C-3.88298,6.80859 -3.91634,6.89535 -3.96973,6.98877 L-4.99072,6.98877 L-4.99072,6.02783 L-6.29199,6.02783 L-6.29199,6.98877 L-4.99072,6.98877 L-4.99072,7.92969 L-4.16992,7.92969 L-4.16992,8.00977 L-4.16992,11.9336 L-8.19385,11.9336 L-8.19385,13.4951 C-8.19385,13.8288 -8.30062,14.1257 -8.51416,14.386 C-8.7277,14.6462 -9.01465,14.7764 -9.375,14.7764 C-9.73535,14.7764 -10.0223,14.6462 -10.2358,14.386 C-10.4494,14.1257 -10.5562,13.8288 -10.5562,13.4951 L-10.5562,11.9336 L-12.1978,11.9336 L-12.1978,3.28516 C-12.1444,2.44434 -12.0643,1.62354 -11.9575,0.822754 C-11.9041,0.14209 -11.8307,-0.551921 -11.7373,-1.25928 C-11.6439,-1.96663 -11.5638,-2.55387 -11.4971,-3.021 C-11.4704,-3.5415 -11.4103,-3.97192 -11.3169,-4.31226 C-11.2235,-4.65259 -11.1034,-4.94621 -10.9565,-5.19312 C-10.8097,-5.44002 -10.6195,-5.66024 -10.386,-5.85376 C-10.1524,-6.04728 -9.86882,-6.22412 -9.53516,-6.38428 C-8.54753,-6.8514 -7.52319,-7.18172 -6.46216,-7.37524 C-5.40112,-7.56877 -4.29671,-7.66553 -3.14893,-7.66553 C-1.97445,-7.66553 -0.853353,-7.56877 0.214355,-7.37524 C1.28206,-7.18172 2.30973,-6.8514 3.29736,-6.38428 C3.61768,-6.22412 3.89461,-6.04728 4.12817,-5.85376 C4.36174,-5.66024 4.55526,-5.44002 4.70874,-5.19312 C4.86222,-4.94621 4.979,-4.65259 5.05908,-4.31226 C5.13916,-3.97192 5.20589,-3.5415 5.25928,-3.021 C5.33936,-2.58057 5.40609,-2.02002 5.45947,-1.33936 C5.51286,-0.658691 5.58626,0.035319 5.67969,0.742676 L4.23828,0.742676 C4.1849,0.115397 4.13151,-0.465169 4.07813,-0.999023 C4.02474,-1.53288 3.92464,-2.18018 3.77783,-2.94092 C3.77783,-3.46143 3.47754,-3.72168 2.87695,-3.72168 L-9.13477,-3.72168 C-9.62858,-3.72168 -9.94222,-3.48812 -10.0757,-3.021 C-10.1291,-2.50049 -10.1758,-2.0367 -10.2158,-1.62964 C-10.2559,-1.22257 -10.2959,-0.818848 -10.3359,-0.418457 C-10.376,-0.0180664 -10.416,0.385661 -10.4561,0.792725 C-10.4961,1.19979 -10.5295,1.66357 -10.5562,2.18408 C-10.5562,2.45101 -10.4827,2.67456 -10.3359,2.85474 C-10.1891,3.03491 -9.97559,3.125 -9.69531,3.125 L-1.74756,3.125 L-2.68848,5.42725 M-6.87256,-6.02393 C-7.23291,-6.02393 -7.41309,-5.8304 -7.41309,-5.44336 C-7.41309,-5.02962 -7.23291,-4.82275 -6.87256,-4.82275 L0.634766,-4.82275 C1.03516,-4.82275 1.23535,-5.02962 1.23535,-5.44336 C1.23535,-5.8304 1.03516,-6.02393 0.634766,-6.02393 L-6.87256,-6.02393 M-9.375,8.49023 C-8.98796,8.49023 -8.64429,8.34676 -8.34399,8.05981 C-8.0437,7.77287 -7.89355,7.41585 -7.89355,6.98877 C-7.89355,6.60173 -8.0437,6.24471 -8.34399,5.91772 C-8.64429,5.59074 -8.98796,5.42725 -9.375,5.42725 C-9.76204,5.42725 -10.099,5.59074 -10.386,5.91772 C-10.6729,6.24471 -10.8164,6.60173 -10.8164,6.98877 C-10.8164,7.41585 -10.6729,7.77287 -10.386,8.05981 C-10.099,8.34676 -9.76204,8.49023 -9.375,8.49023 M1.93604,13.0547 L4.31836,13.0547 L4.31836,13.4951 C4.31836,13.8288 4.20158,14.1257 3.96802,14.386 C3.73446,14.6462 3.45752,14.7764 3.13721,14.7764 C2.77686,14.7764 2.48657,14.6462 2.26636,14.386 C2.04614,14.1257 1.93604,13.8288 1.93604,13.4951 L1.93604,13.0547 M10.4644,6.02783 C10.8514,6.17464 11.1817,6.42489 11.4553,6.77856 C11.7289,7.13224 11.8657,7.54264 11.8657,8.00977 L11.8657,12.2739 L10.5444,12.2739 L10.5444,13.6553 C10.5444,13.9889 10.451,14.2859 10.2642,14.5461 C10.0773,14.8064 9.80371,14.9365 9.44336,14.9365 C9.08301,14.9365 8.78271,14.8064 8.54248,14.5461 C8.30225,14.2859 8.18213,13.9889 8.18213,13.6553 L8.18213,12.2739 L0.214355,12.2739 L0.214355,13.6553 C0.214355,13.9889 0.0975749,14.2859 -0.135986,14.5461 C-0.369548,14.8064 -0.646484,14.9365 -0.966797,14.9365 C-1.27376,14.9365 -1.55737,14.8064 -1.81763,14.5461 C-2.07788,14.2859 -2.20801,13.9889 -2.20801,13.6553 L-2.20801,12.2739 L-3.38916,12.2739 L-3.38916,8.00977 C-3.38916,7.54264 -3.26571,7.13224 -3.0188,6.77856 C-2.77189,6.42489 -2.42822,6.17464 -1.98779,6.02783 L-0.646484,2.34424 C-0.566406,2.1307 -0.402913,1.93384 -0.156006,1.75366 C0.0909017,1.57349 0.327799,1.4834 0.554688,1.4834 L7.8418,1.4834 C8.14876,1.4834 8.40234,1.57349 8.60254,1.75366 C8.80273,1.93384 8.97624,2.1307 9.12305,2.34424 L10.4644,6.02783 M-0.966797,9.57129 C-0.726563,9.57129 -0.496338,9.46785 -0.276123,9.26099 C-0.0559082,9.05412 0.0541992,8.7972 0.0541992,8.49023 C0.0541992,8.16992 -0.0559082,7.90633 -0.276123,7.69946 C-0.496338,7.49259 -0.726563,7.38916 -0.966797,7.38916 C-1.27376,7.38916 -1.52067,7.49259 -1.70752,7.69946 C-1.89437,7.90633 -1.98779,8.16992 -1.98779,8.49023 C-1.98779,8.7972 -1.89437,9.05412 -1.70752,9.26099 C-1.52067,9.46785 -1.27376,9.57129 -0.966797,9.57129 M9.20313,6.02783 L8.08203,2.88477 C8.00195,2.71126 7.88184,2.62451 7.72168,2.62451 L0.714844,2.62451 C0.58138,2.62451 0.467936,2.71126 0.374512,2.88477 L-0.806641,6.02783 L9.20313,6.02783 M9.44336,9.57129 C9.75033,9.57129 9.99723,9.46785 10.1841,9.26099 C10.3709,9.05412 10.4644,8.7972 10.4644,8.49023 C10.4644,8.16992 10.3709,7.90633 10.1841,7.69946 C9.99723,7.49259 9.75033,7.38916 9.44336,7.38916 C9.14974,7.38916 8.90617,7.49259 8.71265,7.69946 C8.51912,7.90633 8.42236,8.16992 8.42236,8.49023 C8.42236,8.7972 8.51912,9.05412 8.71265,9.26099 C8.90617,9.46785 9.14974,9.57129 9.44336,9.57129 "/>
</g>

<g fill="#3d97f1" fill-opacity="1" stroke="none" transform="matrix(1,0,0,1,0,0)"
font-family="MS Shell Dlg 2" font-size="7.8" font-weight="400" font-style="normal" 
>
</g>
</g>
</svg>
