<?xml version="1.0" encoding="UTF-8" standalone="no"?>
<svg
   xmlns:dc="http://purl.org/dc/elements/1.1/"
   xmlns:cc="http://creativecommons.org/ns#"
   xmlns:rdf="http://www.w3.org/1999/02/22-rdf-syntax-ns#"
   xmlns:svg="http://www.w3.org/2000/svg"
   xmlns="http://www.w3.org/2000/svg"
   xmlns:sodipodi="http://sodipodi.sourceforge.net/DTD/sodipodi-0.dtd"
   xmlns:inkscape="http://www.inkscape.org/namespaces/inkscape"
   inkscape:version="1.0 (4035a4fb49, 2020-05-01)"
   sodipodi:docname="1107.svg"
   id="svg20"
   version="1.2"
   viewBox="0 0 42.519639 42.519639"
   height="14.999999mm"
   width="14.999999mm">
  <metadata
     id="metadata24">
    <rdf:RDF>
      <cc:Work
         rdf:about="">
        <dc:format>image/svg+xml</dc:format>
        <dc:type
           rdf:resource="http://purl.org/dc/dcmitype/StillImage" />
        <dc:title>Qt SVG Document</dc:title>
      </cc:Work>
    </rdf:RDF>
  </metadata>
  <sodipodi:namedview
     inkscape:current-layer="svg20"
     inkscape:window-maximized="1"
     inkscape:window-y="-9"
     inkscape:window-x="-9"
     inkscape:cy="28.346482"
     inkscape:cx="28.346482"
     inkscape:zoom="18.047943"
     showgrid="false"
     id="namedview22"
     inkscape:window-height="1013"
     inkscape:window-width="1920"
     inkscape:pageshadow="2"
     inkscape:pageopacity="0"
     guidetolerance="10"
     gridtolerance="10"
     objecttolerance="10"
     borderopacity="1"
     bordercolor="#666666"
     pagecolor="#ffffff" />
  <title
     id="title2">Qt SVG Document</title>
  <desc
     id="desc4">Generated with Qt</desc>
  <defs
     id="defs6" />
  <g
     transform="translate(5.25984,5.25984)"
     id="g18"
     stroke-linejoin="bevel"
     stroke-linecap="square"
     fill-rule="evenodd"
     stroke-width="1"
     stroke="#000000"
     fill="none">
    <g
       id="g10"
       font-style="normal"
       font-weight="400"
       font-size="7.8px"
       font-family="'MS Shell Dlg 2'"
       stroke="none"
       fill-opacity="1"
       fill="#3d97f1">
      <path
         id="path8"
         d="M 37.2598,16 C 37.2598,27.7415 27.7415,37.2598 16,37.2598 4.25851,37.2598 -5.25984,27.7415 -5.25984,16 -5.25984,4.25851 4.25851,-5.25984 16,-5.25984 27.7415,-5.25984 37.2598,4.25851 37.2598,16"
         fill-rule="evenodd"
         vector-effect="non-scaling-stroke" />
    </g>
    <g
       id="g14"
       font-style="normal"
       font-weight="400"
       font-size="7.8px"
       font-family="'MS Shell Dlg 2'"
       transform="translate(16.5669,13.1654)"
       stroke="none"
       fill-opacity="0.94902"
       fill="#ffffff">
      <path
         id="path12"
         d="M -2.68848,5.42725 C -2.82194,5.53402 -2.95207,5.62744 -3.07886,5.70752 -3.20565,5.7876 -3.33577,5.89437 -3.46924,6.02783 h -0.24023 v 0.42041 c -0.09343,0.10677 -0.14681,0.2002 -0.16016,0.28028 -0.01335,0.08007 -0.04671,0.16683 -0.1001,0.26025 H -4.99072 V 6.02783 h -1.30127 v 0.96094 h 1.30127 v 0.94092 h 0.8208 v 0.08008 3.92383 h -4.02393 v 1.5615 c 0,0.3337 -0.10677,0.6306 -0.32031,0.8909 -0.21354,0.2602 -0.50049,0.3904 -0.86084,0.3904 -0.36035,0 -0.6473,-0.1302 -0.8608,-0.3904 -0.2136,-0.2603 -0.3204,-0.5572 -0.3204,-0.8909 v -1.5615 h -1.6416 V 3.28516 c 0.0534,-0.84082 0.1335,-1.66162 0.2403,-2.462406 0.0534,-0.680664 0.1268,-1.374675 0.2202,-2.082034 0.0934,-0.70735 0.1735,-1.29459 0.2402,-1.76172 0.0267,-0.5205 0.0868,-0.95092 0.1802,-1.29126 0.0934,-0.34033 0.2135,-0.63395 0.3604,-0.88086 0.1468,-0.2469 0.337,-0.46712 0.5705,-0.66064 0.2336,-0.19352 0.51718,-0.37036 0.85084,-0.53052 0.98763,-0.46712 2.01197,-0.79744 3.073,-0.99096 1.06104,-0.19353 2.16545,-0.29029 3.31323,-0.29029 1.17448,0 2.295577,0.09676 3.363285,0.29029 1.067705,0.19352 2.095375,0.52384 3.083005,0.99096 0.32032,0.16016 0.59725,0.337 0.83081,0.53052 0.23357,0.19352 0.42709,0.41374 0.58057,0.66064 0.15348,0.24691 0.27026,0.54053 0.35034,0.88086 0.08008,0.34034 0.14681,0.77076 0.2002,1.29126 0.08008,0.44043 0.14681,1.00098 0.20019,1.68164 0.05339,0.680669 0.12679,1.374679 0.22022,2.082036 H 4.23828 C 4.1849,0.115397 4.13151,-0.465169 4.07813,-0.999023 4.02474,-1.53288 3.92464,-2.18018 3.77783,-2.94092 c 0,-0.52051 -0.30029,-0.78076 -0.90088,-0.78076 H -9.13477 c -0.49381,0 -0.80745,0.23356 -0.94093,0.70068 -0.0534,0.52051 -0.1001,0.9843 -0.1401,1.39136 -0.0401,0.40707 -0.0801,0.810792 -0.1201,1.211183 -0.0401,0.4003906 -0.0801,0.804118 -0.1202,1.211182 -0.04,0.407065 -0.0734,0.870845 -0.1001,1.391355 0,0.26693 0.0735,0.49048 0.2203,0.67066 0.1468,0.18017 0.36031,0.27026 0.64059,0.27026 h 7.94775 L -2.68848,5.42725 M -6.87256,-6.02393 c -0.36035,0 -0.54053,0.19353 -0.54053,0.58057 0,0.41374 0.18018,0.62061 0.54053,0.62061 h 7.507326 c 0.400394,0 0.600584,-0.20687 0.600584,-0.62061 0,-0.38704 -0.20019,-0.58057 -0.600584,-0.58057 H -6.87256 M -9.375,8.49023 c 0.38704,0 0.73071,-0.14347 1.03101,-0.43042 0.30029,-0.28694 0.45044,-0.64396 0.45044,-1.07104 0,-0.38704 -0.15015,-0.74406 -0.45044,-1.07105 -0.3003,-0.32698 -0.64397,-0.49047 -1.03101,-0.49047 -0.38704,0 -0.724,0.16349 -1.011,0.49047 -0.2869,0.32699 -0.4304,0.68401 -0.4304,1.07105 0,0.42708 0.1435,0.7841 0.4304,1.07104 0.287,0.28695 0.62396,0.43042 1.011,0.43042 M 1.93604,13.0547 h 2.38232 v 0.4404 c 0,0.3337 -0.11678,0.6306 -0.35034,0.8909 -0.23356,0.2602 -0.5105,0.3904 -0.83081,0.3904 -0.36035,0 -0.65064,-0.1302 -0.87085,-0.3904 C 2.04614,14.1257 1.93604,13.8288 1.93604,13.4951 V 13.0547 M 10.4644,6.02783 c 0.387,0.14681 0.7173,0.39706 0.9909,0.75073 0.2736,0.35368 0.4104,0.76408 0.4104,1.23121 v 4.26413 h -1.3213 v 1.3814 c 0,0.3336 -0.0934,0.6306 -0.2802,0.8908 -0.1869,0.2603 -0.46049,0.3904 -0.82084,0.3904 -0.36035,0 -0.66065,-0.1301 -0.90088,-0.3904 C 8.30225,14.2859 8.18213,13.9889 8.18213,13.6553 V 12.2739 H 0.214355 v 1.3814 c 0,0.3336 -0.1167801,0.6306 -0.350341,0.8908 -0.233562,0.2603 -0.510498,0.3904 -0.830811,0.3904 -0.306963,0 -0.590573,-0.1301 -0.850833,-0.3904 -0.26025,-0.2602 -0.39038,-0.5572 -0.39038,-0.8908 V 12.2739 H -3.38916 V 8.00977 c 0,-0.46713 0.12345,-0.87753 0.37036,-1.23121 0.24691,-0.35367 0.59058,-0.60392 1.03101,-0.75073 L -0.646484,2.34424 C -0.566406,2.1307 -0.402913,1.93384 -0.156006,1.75366 0.0909017,1.57349 0.327799,1.4834 0.554688,1.4834 H 7.8418 c 0.30696,0 0.56054,0.09009 0.76074,0.27026 0.20019,0.18018 0.3737,0.37704 0.52051,0.59058 L 10.4644,6.02783 M -0.966797,9.57129 c 0.240234,0 0.470459,-0.10344 0.690674,-0.3103 0.2202148,-0.20687 0.3303222,-0.46379 0.3303222,-0.77076 0,-0.32031 -0.1101074,-0.5839 -0.3303222,-0.79077 -0.220215,-0.20687 -0.45044,-0.3103 -0.690674,-0.3103 -0.306963,0 -0.553873,0.10343 -0.740723,0.3103 -0.18685,0.20687 -0.28027,0.47046 -0.28027,0.79077 0,0.30697 0.09342,0.56389 0.28027,0.77076 0.18685,0.20686 0.43376,0.3103 0.740723,0.3103 M 9.20313,6.02783 8.08203,2.88477 C 8.00195,2.71126 7.88184,2.62451 7.72168,2.62451 H 0.714844 c -0.133464,0 -0.246908,0.08675 -0.340332,0.26026 L -0.806641,6.02783 H 9.20313 m 0.24023,3.54346 c 0.30697,0 0.55387,-0.10344 0.74074,-0.3103 0.1868,-0.20687 0.2803,-0.46379 0.2803,-0.77076 0,-0.32031 -0.0935,-0.5839 -0.2803,-0.79077 -0.18687,-0.20687 -0.43377,-0.3103 -0.74074,-0.3103 -0.29362,0 -0.53719,0.10343 -0.73071,0.3103 -0.19353,0.20687 -0.29029,0.47046 -0.29029,0.79077 0,0.30697 0.09676,0.56389 0.29029,0.77076 0.19352,0.20686 0.43709,0.3103 0.73071,0.3103"
         fill-rule="evenodd"
         vector-effect="none" />
    </g>
    <g
       id="g16"
       font-style="normal"
       font-weight="400"
       font-size="7.8px"
       font-family="'MS Shell Dlg 2'"
       stroke="none"
       fill-opacity="1"
       fill="#3d97f1" />
  </g>
</svg>
