<svg xmlns="http://www.w3.org/2000/svg" version="1.2" viewBox="0 0 42.52 42.52" height="56.693" width="56.693">
   <title>Qt SVG Document</title>
   <g stroke-linejoin="bevel" stroke-linecap="square" fill-rule="evenodd" stroke="none" fill="none" font-weight="400"
      font-size="7.8" font-family="'MS Shell Dlg 2'">
      <path
         d="M42.52 21.26C42.52 33 33 42.52 21.26 42.52 9.518 42.52 0 33 0 21.26 0 9.518 9.518 0 21.26 0 33 0 42.52 9.518 42.52 21.26"
         vector-effect="non-scaling-stroke" fill="#3d97f1" />
      <path
         d="M19.138 23.852c-.133.107-.263.2-.39.28-.127.08-.257.188-.39.321h-.24v.42a.615.615 0 00-.16.28.798.798 0 01-.101.261h-1.021v-.96h-1.301v.96h1.301v.94h.82v4.005h-4.023v1.561c0 .334-.107.63-.32.891-.214.26-.5.39-.861.39-.36 0-.648-.13-.861-.39a1.365 1.365 0 01-.32-.89v-1.562H9.629V21.71c.053-.84.133-1.661.24-2.462.054-.68.127-1.375.22-2.082.094-.707.174-1.295.24-1.762.027-.52.087-.95.18-1.291.094-.34.214-.634.361-.88.147-.248.337-.468.57-.662a4.13 4.13 0 01.852-.53 12.336 12.336 0 013.073-.991 18.436 18.436 0 013.313-.29c1.174 0 2.295.096 3.363.29a12.32 12.32 0 013.083.991c.32.16.597.337.83.53.234.194.428.414.581.661.154.247.27.54.35.881.08.34.148.77.201 1.291.08.44.147 1.001.2 1.682.054.68.127 1.375.22 2.082h-1.441c-.053-.627-.107-1.208-.16-1.742a22.152 22.152 0 00-.3-1.942c0-.52-.3-.78-.901-.78H12.692c-.494 0-.807.233-.941.7l-.14 1.392a882.488 882.488 0 01-.24 2.422c-.04.407-.074.87-.1 1.391 0 .267.073.49.22.671.147.18.36.27.64.27h7.948l-.94 2.302m-4.185-11.45c-.36 0-.54.193-.54.58 0 .414.18.62.54.62h7.508c.4 0 .6-.206.6-.62 0-.387-.2-.58-.6-.58h-7.508m-2.502 14.513c.387 0 .73-.143 1.03-.43.301-.287.451-.644.451-1.071 0-.387-.15-.744-.45-1.071-.3-.327-.644-.49-1.031-.49-.387 0-.724.163-1.011.49-.287.327-.43.684-.43 1.071 0 .427.143.784.43 1.071.287.287.624.43 1.01.43m11.312 4.565h2.382v.44c0 .334-.117.63-.35.891-.234.26-.51.39-.831.39-.36 0-.65-.13-.87-.39a1.34 1.34 0 01-.331-.89v-.441m8.528-7.027c.387.147.717.397.991.75.274.354.41.765.41 1.232v4.264h-1.32v1.382c0 .333-.094.63-.281.89-.187.26-.46.39-.82.39-.361 0-.662-.13-.902-.39s-.36-.557-.36-.89v-1.382H22.04v1.382c0 .333-.117.63-.35.89-.234.26-.51.39-.831.39-.307 0-.59-.13-.85-.39-.261-.26-.391-.557-.391-.89v-1.382h-1.181v-4.264c0-.467.123-.878.37-1.231a1.98 1.98 0 011.031-.75l1.341-3.685c.08-.213.244-.41.49-.59.248-.18.485-.27.711-.27h7.288c.307 0 .56.09.76.27.2.18.374.377.52.59l1.342 3.684M20.86 27.997c.24 0 .47-.104.69-.31.22-.208.33-.465.33-.772 0-.32-.11-.583-.33-.79-.22-.207-.45-.31-.69-.31-.307 0-.554.103-.74.31-.188.207-.281.47-.281.79 0 .307.093.564.28.771.187.207.434.31.74.31m10.17-3.543l-1.12-3.143c-.08-.174-.2-.26-.36-.26h-7.007c-.134 0-.247.086-.34.26l-1.182 3.143h10.01m.24 3.544c.307 0 .554-.104.74-.31.188-.208.281-.465.281-.772 0-.32-.093-.583-.28-.79-.187-.207-.434-.31-.74-.31a.958.958 0 00-.732.31c-.193.207-.29.47-.29.79 0 .307.097.564.29.771.194.207.437.31.731.31"
         fill-opacity=".949" fill="#fff" />
   </g>
</svg>