<svg xmlns="http://www.w3.org/2000/svg" version="1.2" viewBox="0 0 42.52 42.52" height="56.693" width="56.693">
   <g stroke-linejoin="bevel" stroke-linecap="square" fill-rule="evenodd" stroke="none" fill="none" font-weight="400"
      font-size="7.8" font-family="'MS Shell Dlg 2'">
      <path
         d="M42.52 21.26C42.52 33 33 42.52 21.26 42.52 9.518 42.52 0 33 0 21.26 0 9.518 9.518 0 21.26 0 33 0 42.52 9.518 42.52 21.26"
         vector-effect="non-scaling-stroke" fill="#3d97f1" />
      <path
         d="M11.152 19.638c0 .237-.12.356-.357.356H8.086c-.224 0-.336-.119-.336-.356v-3.17c0-.239.112-.358.336-.358h2.709c.238 0 .357.12.357.357v3.17M9.85 31.375h2.079v1.134H9.073V20.246h.777v11.128m22.067-15.768c.056.448.119 1.019.189 1.711.07.693.133 1.369.189 2.027l.273 2.414v8.42H30.93v1.47c0 .335-.122.619-.367.85a1.202 1.202 0 01-.85.346c-.337 0-.627-.115-.872-.346a1.123 1.123 0 01-.367-.85v-1.47H18.29v1.47c0 .335-.122.619-.367.85a1.202 1.202 0 01-.85.346c-.336 0-.627-.115-.872-.346a1.123 1.123 0 01-.367-.85v-1.47h-1.596v-8.42l.084-1.207c.028-.4.07-.801.126-1.207.07-.658.14-1.334.21-2.027.07-.692.133-1.263.19-1.71.111-.98.31-1.677.598-2.09.286-.413.773-.78 1.459-1.102a12.43 12.43 0 013.076-.987 18.943 18.943 0 013.412-.294c1.203 0 2.337.098 3.4.294 1.065.196 2.1.525 3.108.987.336.168.62.34.85.514.232.175.428.378.589.61.16.23.283.51.367.839.084.329.154.738.21 1.228m-12.304-2.834c-.364 0-.546.182-.546.546 0 .378.182.567.546.567h7.622c.364 0 .546-.19.546-.567 0-.364-.182-.546-.546-.546h-7.622m-2.54 14.32c.322 0 .605-.123.85-.368s.367-.543.367-.893c0-.336-.122-.619-.367-.85a1.202 1.202 0 00-.85-.346c-.336 0-.627.115-.872.346a1.123 1.123 0 00-.367.85c0 .35.122.648.367.893s.536.367.872.367m12.64 0c.321 0 .605-.122.85-.367s.367-.543.367-.893c0-.336-.122-.619-.367-.85a1.202 1.202 0 00-.85-.346c-.337 0-.627.115-.872.346a1.123 1.123 0 00-.367.85c0 .35.122.648.367.893s.535.367.871.367m.441-5.48c.546 0 .805-.315.777-.945-.028-.476-.056-.91-.084-1.301a24.663 24.663 0 00-.105-1.124 224.55 224.55 0 00-.136-1.133 96.616 96.616 0 01-.158-1.376c-.14-.518-.469-.777-.987-.777H17.304c-.574 0-.89.245-.945.735a82.986 82.986 0 00-.294 2.51c-.07.706-.133 1.543-.19 2.508a.793.793 0 00.19.63c.154.182.364.273.63.273h13.458"
         fill-opacity=".949" fill="#fff" />
   </g>
</svg>