<?xml version="1.0" encoding="UTF-8" standalone="no"?>
<svg
   xmlns:dc="http://purl.org/dc/elements/1.1/"
   xmlns:cc="http://creativecommons.org/ns#"
   xmlns:rdf="http://www.w3.org/1999/02/22-rdf-syntax-ns#"
   xmlns:svg="http://www.w3.org/2000/svg"
   xmlns="http://www.w3.org/2000/svg"
   xmlns:sodipodi="http://sodipodi.sourceforge.net/DTD/sodipodi-0.dtd"
   xmlns:inkscape="http://www.inkscape.org/namespaces/inkscape"
   inkscape:version="1.0 (4035a4fb49, 2020-05-01)"
   sodipodi:docname="1108.svg"
   id="svg20"
   version="1.2"
   viewBox="0 0 42.519639 42.519639"
   height="14.999999mm"
   width="14.999999mm">
  <metadata
     id="metadata24">
    <rdf:RDF>
      <cc:Work
         rdf:about="">
        <dc:format>image/svg+xml</dc:format>
        <dc:type
           rdf:resource="http://purl.org/dc/dcmitype/StillImage" />
        <dc:title>Qt SVG Document</dc:title>
      </cc:Work>
    </rdf:RDF>
  </metadata>
  <sodipodi:namedview
     inkscape:current-layer="svg20"
     inkscape:window-maximized="1"
     inkscape:window-y="-9"
     inkscape:window-x="-9"
     inkscape:cy="28.346482"
     inkscape:cx="28.346482"
     inkscape:zoom="18.047943"
     fit-margin-bottom="0"
     fit-margin-right="0"
     fit-margin-left="0"
     fit-margin-top="0"
     showgrid="false"
     id="namedview22"
     inkscape:window-height="1013"
     inkscape:window-width="1920"
     inkscape:pageshadow="2"
     inkscape:pageopacity="0"
     guidetolerance="10"
     gridtolerance="10"
     objecttolerance="10"
     borderopacity="1"
     bordercolor="#666666"
     pagecolor="#ffffff" />
  <title
     id="title2">Qt SVG Document</title>
  <desc
     id="desc4">Generated with Qt</desc>
  <defs
     id="defs6" />
  <g
     transform="translate(5.25984,5.25984)"
     id="g18"
     stroke-linejoin="bevel"
     stroke-linecap="square"
     fill-rule="evenodd"
     stroke-width="1"
     stroke="#000000"
     fill="none">
    <g
       id="g10"
       font-style="normal"
       font-weight="400"
       font-size="7.8px"
       font-family="'MS Shell Dlg 2'"
       stroke="none"
       fill-opacity="1"
       fill="#3d97f1">
      <path
         id="path8"
         d="M 37.2598,16 C 37.2598,27.7415 27.7415,37.2598 16,37.2598 4.25851,37.2598 -5.25984,27.7415 -5.25984,16 -5.25984,4.25851 4.25851,-5.25984 16,-5.25984 27.7415,-5.25984 37.2598,4.25851 37.2598,16"
         fill-rule="evenodd"
         vector-effect="non-scaling-stroke" />
    </g>
    <g
       id="g14"
       font-style="normal"
       font-weight="400"
       font-size="7.8px"
       font-family="'MS Shell Dlg 2'"
       transform="translate(14.8661,12.5984)"
       stroke="none"
       fill-opacity="0.94902"
       fill="#ffffff">
      <path
         id="path12"
         d="m -8.97412,1.7793 c 0,0.23795 -0.11898,0.35693 -0.35693,0.35693 h -2.70855 c -0.2239,0 -0.3359,-0.11898 -0.3359,-0.35693 v -3.17041 c 0,-0.23796 0.112,-0.35694 0.3359,-0.35694 h 2.70855 c 0.23795,0 0.35693,0.11898 0.35693,0.35694 V 1.7793 m -1.30178,11.7368 h 2.07863 v 1.1338 H -11.0527 V 2.38818 h 0.7768 V 13.5161 M 11.791,-2.25195 c 0.056,0.44791 0.119,1.01831 0.189,1.711179 0.07,0.692871 0.133,1.368245 0.1889,2.026121 l 0.273,2.41455 v 8.4194 h -1.6377 v 1.4698 c 0,0.3359 -0.1225,0.6193 -0.3674,0.8503 -0.245,0.231 -0.52843,0.3464 -0.85037,0.3464 -0.33594,0 -0.62639,-0.1154 -0.87134,-0.3464 C 8.47013,14.4084 8.34766,14.125 8.34766,13.7891 V 12.3193 H -1.83545 v 1.4698 c 0,0.3359 -0.12248,0.6193 -0.36743,0.8503 -0.24496,0.231 -0.5284,0.3464 -0.85034,0.3464 -0.33594,0 -0.62639,-0.1154 -0.87134,-0.3464 -0.24495,-0.231 -0.36743,-0.5144 -0.36743,-0.8503 V 12.3193 H -5.8877 V 3.8999 c 0.028,-0.40592 0.05599,-0.80835 0.08399,-1.20727 0.02799,-0.39893 0.06999,-0.80135 0.12598,-1.20728 0.06998,-0.657876 0.13997,-1.33325 0.20996,-2.026121 0.06998,-0.692869 0.13297,-1.263269 0.18896,-1.711179 0.11198,-0.97982 0.31144,-1.67619 0.59839,-2.08911 0.28695,-0.41293 0.77336,-0.78036 1.45923,-1.1023 0.97982,-0.46191 2.00513,-0.79085 3.075926,-0.98682 1.070801,-0.19596 2.208094,-0.29394 3.411864,-0.29394 1.20378,0 2.33757,0.09798 3.40137,0.29394 1.0638,0.19597 2.09961,0.52491 3.10742,0.98682 0.33591,0.16797 0.61941,0.33944 0.85031,0.5144 0.231,0.17497 0.427,0.37793 0.5879,0.60889 0.161,0.23096 0.2835,0.51091 0.3675,0.83985 0.0839,0.32893 0.1539,0.73836 0.2099,1.22827 M -0.512695,-5.08643 c -0.363933,0 -0.545895,0.18197 -0.545895,0.5459 0,0.37793 0.181962,0.5669 0.545895,0.5669 H 7.10889 c 0.36393,0 0.5459,-0.18897 0.5459,-0.5669 0,-0.36393 -0.18197,-0.5459 -0.5459,-0.5459 H -0.512695 M -3.05322,9.23291 c 0.32194,0 0.60538,-0.12248 0.85034,-0.36743 0.24495,-0.24496 0.36743,-0.5424 0.36743,-0.89234 0,-0.33593 -0.12248,-0.61938 -0.36743,-0.85034 -0.24496,-0.23095 -0.5284,-0.34643 -0.85034,-0.34643 -0.33594,0 -0.62639,0.11548 -0.87134,0.34643 -0.24495,0.23096 -0.36743,0.51441 -0.36743,0.85034 0,0.34994 0.12248,0.64738 0.36743,0.89234 0.24495,0.24495 0.5354,0.36743 0.87134,0.36743 m 12.63965,0 c 0.32194,0 0.60537,-0.12248 0.85037,-0.36743 0.2449,-0.24496 0.3674,-0.5424 0.3674,-0.89234 0,-0.33593 -0.1225,-0.61938 -0.3674,-0.85034 C 10.1918,6.89185 9.90837,6.77637 9.58643,6.77637 9.25049,6.77637 8.96004,6.89185 8.71509,7.1228 8.47013,7.35376 8.34766,7.63721 8.34766,7.97314 c 0,0.34994 0.12247,0.64738 0.36743,0.89234 0.24495,0.24495 0.5354,0.36743 0.87134,0.36743 M 10.0273,3.75293 c 0.5459,0 0.8049,-0.31494 0.7769,-0.94482 -0.028,-0.47592 -0.056,-0.90984 -0.084,-1.30176 -0.028,-0.39193 -0.063,-0.76636 -0.105,-1.123293 -0.042,-0.356934 -0.0874,-0.734864 -0.1364,-1.133789 -0.049,-0.398928 -0.1015,-0.857338 -0.1575,-1.375248 -0.14,-0.5179 -0.46892,-0.77685 -0.98683,-0.77685 H -2.82227 c -0.57389,0 -0.88883,0.24495 -0.94482,0.73486 -0.12598,0.96582 -0.22396,1.802166 -0.29395,2.509034 C -4.13102,1.04793 -4.19401,1.88428 -4.25,2.8501 c -0.02799,0.23795 0.03499,0.44791 0.18896,0.62988 0.15398,0.18197 0.36394,0.27295 0.62989,0.27295 H 10.0273"
         fill-rule="evenodd"
         vector-effect="none" />
    </g>
    <g
       id="g16"
       font-style="normal"
       font-weight="400"
       font-size="7.8px"
       font-family="'MS Shell Dlg 2'"
       stroke="none"
       fill-opacity="1"
       fill="#3d97f1" />
  </g>
</svg>
