<?xml version="1.0" encoding="UTF-8" standalone="no"?>
<svg
   xmlns:dc="http://purl.org/dc/elements/1.1/"
   xmlns:cc="http://creativecommons.org/ns#"
   xmlns:rdf="http://www.w3.org/1999/02/22-rdf-syntax-ns#"
   xmlns:svg="http://www.w3.org/2000/svg"
   xmlns="http://www.w3.org/2000/svg"
   xmlns:sodipodi="http://sodipodi.sourceforge.net/DTD/sodipodi-0.dtd"
   xmlns:inkscape="http://www.inkscape.org/namespaces/inkscape"
   inkscape:version="1.0 (4035a4fb49, 2020-05-01)"
   sodipodi:docname="1110.svg"
   id="svg20"
   version="1.2"
   viewBox="0 0 42.519639 42.519639"
   height="14.999999mm"
   width="14.999999mm">
  <metadata
     id="metadata24">
    <rdf:RDF>
      <cc:Work
         rdf:about="">
        <dc:format>image/svg+xml</dc:format>
        <dc:type
           rdf:resource="http://purl.org/dc/dcmitype/StillImage" />
        <dc:title>Qt SVG Document</dc:title>
      </cc:Work>
    </rdf:RDF>
  </metadata>
  <sodipodi:namedview
     inkscape:current-layer="svg20"
     inkscape:window-maximized="1"
     inkscape:window-y="-9"
     inkscape:window-x="-9"
     inkscape:cy="28.346482"
     inkscape:cx="28.346482"
     inkscape:zoom="18.047943"
     fit-margin-bottom="0"
     fit-margin-right="0"
     fit-margin-left="0"
     fit-margin-top="0"
     showgrid="false"
     id="namedview22"
     inkscape:window-height="1013"
     inkscape:window-width="1920"
     inkscape:pageshadow="2"
     inkscape:pageopacity="0"
     guidetolerance="10"
     gridtolerance="10"
     objecttolerance="10"
     borderopacity="1"
     bordercolor="#666666"
     pagecolor="#ffffff" />
  <title
     id="title2">Qt SVG Document</title>
  <desc
     id="desc4">Generated with Qt</desc>
  <defs
     id="defs6" />
  <g
     transform="translate(5.25984,5.25984)"
     id="g18"
     stroke-linejoin="bevel"
     stroke-linecap="square"
     fill-rule="evenodd"
     stroke-width="1"
     stroke="#000000"
     fill="none">
    <g
       id="g10"
       font-style="normal"
       font-weight="400"
       font-size="7.8px"
       font-family="'MS Shell Dlg 2'"
       stroke="none"
       fill-opacity="1"
       fill="#3d97f1">
      <path
         id="path8"
         d="M 37.2598,16 C 37.2598,27.7415 27.7415,37.2598 16,37.2598 4.25851,37.2598 -5.25984,27.7415 -5.25984,16 -5.25984,4.25851 4.25851,-5.25984 16,-5.25984 27.7415,-5.25984 37.2598,4.25851 37.2598,16"
         fill-rule="evenodd"
         vector-effect="non-scaling-stroke" />
    </g>
    <g
       id="g14"
       font-style="normal"
       font-weight="400"
       font-size="7.8px"
       font-family="'MS Shell Dlg 2'"
       transform="translate(16,12.5984)"
       stroke="none"
       fill-opacity="0.94902"
       fill="#ffffff">
      <path
         id="path12"
         d="M 8.51563,15.0698 C 9.27148,14.5799 10.0203,14.335 10.7622,14.335 v 1.4277 c -0.2939,0 -0.5459,0.028 -0.7559,0.084 -0.20991,0.056 -0.43387,0.1819 -0.67183,0.3779 -0.71386,0.4339 -1.45923,0.6509 -2.23608,0.6509 -0.77686,0 -1.49422,-0.217 -2.1521,-0.6509 -0.25195,-0.196 -0.51441,-0.3219 -0.78735,-0.3779 -0.27295,-0.056 -0.5424,-0.084 -0.80835,-0.084 H 3.09863 c -0.16797,0.056 -0.33943,0.126 -0.5144,0.21 -0.17497,0.0839 -0.33244,0.1679 -0.47241,0.2519 -0.74187,0.4619 -1.455733,0.6929 -2.1416052,0.6929 H -0.11377 c -0.783854,0 -1.54671,-0.231 -2.28857,-0.6929 -0.13998,-0.084 -0.29045,-0.168 -0.45142,-0.2519 -0.16097,-0.084 -0.31144,-0.154 -0.45142,-0.21 -0.30794,-0.056 -0.60538,-0.042 -0.89233,0.042 -0.28695,0.084 -0.59139,0.2239 -0.91333,0.4199 -0.74186,0.4619 -1.46973,0.6929 -2.18359,0.6929 -0.40593,0 -0.78736,-0.056 -1.14429,-0.168 -0.35693,-0.112 -0.72437,-0.2869 -1.1023,-0.5249 -0.16796,-0.14 -0.34643,-0.2379 -0.53538,-0.2939 -0.189,-0.056 -0.3954,-0.112 -0.6194,-0.168 v -1.3438 c 0.168,0 0.3324,0.014 0.4934,0.042 0.161,0.028 0.32545,0.077 0.49342,0.147 0.16796,0.056 0.33943,0.112 0.5144,0.168 0.17497,0.056 0.33244,0.154 0.47241,0.2939 0.16797,0.084 0.33944,0.161 0.51441,0.231 0.17496,0.07 0.34643,0.14 0.5144,0.2099 0.29395,0 0.58439,-0.0315 0.87134,-0.0944 0.28695,-0.063 0.57039,-0.1785 0.85034,-0.3465 0.26595,-0.1679 0.5494,-0.3044 0.85034,-0.4094 0.30095,-0.105 0.57739,-0.1855 0.82935,-0.2415 0.48991,-0.0839 0.96932,-0.0734 1.43823,0.0315 0.46891,0.105 0.90633,0.3115 1.31226,0.6194 0.19596,0.084 0.38143,0.161 0.556393,0.231 0.174967,0.07 0.346435,0.14 0.514404,0.2099 0.32194,0.056 0.619385,0.0385 0.892334,-0.0524 0.272949,-0.091 0.563395,-0.2205 0.871339,-0.3885 0.65788,-0.4899 1.34375,-0.7348 2.05762,-0.7348 0.86783,0 1.67268,0.2449 2.41455,0.7348 0.92382,0.6019 1.84065,0.6019 2.75049,0 M -0.302734,-4.87646 -7.29443,-2.37793 v -0.60889 l 2.09961,-1.34375 v -1.0708 l 3.04443,-0.5039 V -8.9707 c 0,-0.13998 0.18896,-0.24496 0.56689,-0.31494 0.37793,-0.06999 0.804854,-0.10499 1.280766,-0.10499 0.545898,0 1.000813,0.035 1.364744,0.10499 0.36393,0.06998 0.5459,0.17496 0.5459,0.31494 v 3.06543 l 3.08643,0.5039 v 1.0708 l 2.05761,1.34375 v 0.60889 l -7.054684,-2.49853 m 0,3.04443 -8.335446,2.666503 V 0.183594 L -0.302734,-3.23877 8.17969,0.183594 V 0.834473 L -0.302734,-1.83203 M -10.3599,3.33301 c -0.0839,-0.16797 -0.0839,-0.35694 0,-0.5669 0.14,-0.25195 0.44095,-0.43392 0.90287,-0.5459 0.46191,-0.11197 0.84684,-0.24495 1.15478,-0.39892 L -0.302734,-0.572266 7.69678,1.82129 c 0.37793,0.15397 0.78035,0.28695 1.20727,0.39892 0.42692,0.11198 0.71737,0.29395 0.87134,0.5459 0.16797,0.20996 0.16797,0.39893 0,0.5669 C 9.45345,3.99089 9.11401,4.64176 8.75708,5.28564 8.40015,5.92952 8.01872,6.5804 7.61279,7.23828 7.33285,8.1901 7.0599,9.07894 6.79395,9.90479 6.56999,10.6187 6.34253,11.336 6.11157,12.0569 c -0.23095,0.7209 -0.43042,1.2493 -0.59839,1.5852 -0.29394,-0.084 -0.55289,-0.154 -0.77685,-0.21 -0.22396,-0.056 -0.46891,-0.084 -0.73487,-0.084 -0.46191,0 -0.90633,0.0665 -1.33325,0.1995 -0.42692,0.133 -0.84334,0.2835 -1.24926,0.4514 -1.049809,0.5459 -2.092615,0.5459 -3.12842,0 C -3.1792,13.2572 -4.65592,13.1732 -6.13965,13.7471 -6.36361,13.4251 -6.58407,12.9142 -6.80103,12.2144 -7.01799,11.5145 -7.24544,10.7866 -7.4834,10.0308 -7.73535,9.17692 -7.97331,8.24609 -8.19727,7.23828 L -10.3599,3.33301 m 5.08109,3.98926 0.5459,3.19143 0.44092,-1.07083 c 0.46191,0.48991 0.95532,0.90633 1.48022,1.24923 0.5249,0.343 1.1093,0.5564 1.75318,0.6404 l 0.755856,1.8477 0.818847,-1.8477 C 1.146,11.2485 1.74089,11.0351 2.30078,10.6921 2.86068,10.3492 3.35758,9.93278 3.7915,9.44287 L 4.3584,10.0728 4.77832,7.42725 2.36377,8.41406 3.09863,8.75 C 2.35677,9.43587 1.49593,9.8208 0.516113,9.90479 0.432129,9.68083 0.383138,9.06144 0.369141,8.04663 0.355143,7.03182 0.348145,5.84554 0.348145,4.48779 H 1.50293 V 3.33301 H 0.432129 C 0.894043,3.01107 1.125,2.59814 1.125,2.09424 1.125,1.68831 0.988525,1.34888 0.715576,1.07593 0.442627,0.802979 0.10319,0.666504 -0.302734,0.666504 c -0.335938,0 -0.640381,0.136475 -0.913326,0.409426 -0.27295,0.27295 -0.40943,0.61238 -0.40943,1.01831 0,0.5039 0.24496,0.91683 0.734865,1.23877 H -1.96143 v 1.15478 h 1.154789 c 0,0.43392 0,0.93083 0,1.49073 0,0.55989 -0.006998,1.11279 -0.020996,1.65869 -0.013997,0.5459 -0.041992,1.02531 -0.083984,1.43823 C -0.953613,9.48836 -1.0026,9.76481 -1.05859,9.90479 -1.89844,9.8208 -2.73128,9.46387 -3.55713,8.83398 L -2.6123,8.58203 -5.27881,7.32227 m 4.976076,-4.97608 c -0.11198,0 -0.167969,-0.08398 -0.167969,-0.25195 0,-0.12598 0.055989,-0.18897 0.167969,-0.18897 0.125976,0 0.188964,0.06299 0.188964,0.18897 0,0.16797 -0.062988,0.25195 -0.188964,0.25195"
         fill-rule="evenodd"
         vector-effect="none" />
    </g>
    <g
       id="g16"
       font-style="normal"
       font-weight="400"
       font-size="7.8px"
       font-family="'MS Shell Dlg 2'"
       stroke="none"
       fill-opacity="1"
       fill="#3d97f1" />
  </g>
</svg>
