<svg xmlns="http://www.w3.org/2000/svg" version="1.2" viewBox="0 0 42.52 42.52" height="56.693" width="56.693">
   <g stroke-linejoin="bevel" stroke-linecap="square" fill-rule="evenodd" stroke="none" fill="none" font-weight="400"
      font-size="7.8" font-family="'MS Shell Dlg 2'">
      <path
         d="M42.52 21.26C42.52 33 33 42.52 21.26 42.52 9.518 42.52 0 33 0 21.26 0 9.518 9.518 0 21.26 0 33 0 42.52 9.518 42.52 21.26"
         vector-effect="non-scaling-stroke" fill="#3d97f1" />
      <path
         d="M29.775 32.928c.756-.49 1.505-.735 2.247-.735v1.428c-.294 0-.546.028-.756.084-.21.056-.434.182-.672.378-.714.434-1.459.65-2.236.65a3.83 3.83 0 01-2.152-.65 1.902 1.902 0 00-.787-.378 4.014 4.014 0 00-.809-.084h-.252c-.168.056-.339.126-.514.21a5.763 5.763 0 00-.472.252c-.742.462-1.456.693-2.142.693h-.084c-.784 0-1.547-.231-2.289-.693a8.631 8.631 0 00-.45-.252 4.99 4.99 0 00-.452-.21 1.915 1.915 0 00-.893.042 3.868 3.868 0 00-.913.42c-.742.462-1.47.693-2.184.693-.406 0-.787-.056-1.144-.168a4.754 4.754 0 01-1.102-.525 1.5 1.5 0 00-.536-.294 14.963 14.963 0 00-.619-.168v-1.344c.168 0 .332.014.493.042.161.028.326.077.494.147.168.056.34.112.514.168.175.056.333.154.473.294.168.084.34.161.514.231.175.07.347.14.514.21.294 0 .585-.032.872-.094a2.83 2.83 0 00.85-.347c.266-.168.55-.304.85-.41.301-.104.578-.185.83-.24.49-.085.97-.074 1.438.03.469.106.906.312 1.312.62.196.084.382.161.557.231.175.07.346.14.514.21.322.056.62.038.892-.052.273-.091.564-.221.872-.389.658-.49 1.344-.735 2.057-.735.868 0 1.673.245 2.415.735.924.602 1.84.602 2.75 0m-8.818-19.946l-6.992 2.498v-.609l2.1-1.343v-1.071l3.044-.504V8.888c0-.14.19-.245.567-.315.378-.07.805-.105 1.281-.105.546 0 1 .035 1.365.105.364.07.546.175.546.315v3.065l3.086.504v1.07l2.058 1.344v.61l-7.055-2.5m0 3.045l-8.335 2.667v-.651l8.335-3.423 8.483 3.423v.65l-8.483-2.666M10.9 21.191c-.084-.168-.084-.357 0-.567.14-.252.44-.434.903-.546a5.511 5.511 0 001.155-.398l8-2.394 7.999 2.394c.378.153.78.286 1.207.398.427.112.717.294.871.546.168.21.168.4 0 .567a43.118 43.118 0 01-1.018 1.953 48.509 48.509 0 01-1.144 1.953c-.28.951-.553 1.84-.82 2.666-.223.714-.45 1.431-.682 2.152-.23.721-.43 1.25-.598 1.585a24.501 24.501 0 00-.777-.21 3.026 3.026 0 00-.735-.084c-.462 0-.906.067-1.333.2-.427.133-.843.283-1.25.451-1.049.546-2.092.546-3.128 0-1.47-.742-2.946-.826-4.43-.252-.224-.322-.444-.833-.661-1.532-.217-.7-.445-1.428-.683-2.184a42.4 42.4 0 01-.713-2.792L10.9 21.19m5.081 3.99l.546 3.19.44-1.07a8.2 8.2 0 001.481 1.25 4.14 4.14 0 001.753.64l.756 1.847.819-1.847a4.531 4.531 0 001.785-.64 6.55 6.55 0 001.49-1.25l.567.63.42-2.646-2.414.987.734.336c-.741.686-1.602 1.071-2.582 1.155-.084-.224-.133-.843-.147-1.858a262.153 262.153 0 01-.021-3.559h1.155v-1.155h-1.071c.462-.322.693-.735.693-1.239 0-.405-.137-.745-.41-1.018a1.382 1.382 0 00-1.018-.41c-.336 0-.64.137-.913.41-.273.273-.41.613-.41 1.018 0 .504.245.917.735 1.24H19.3v1.154h1.154v1.49c0 .56-.007 1.114-.02 1.66a19.296 19.296 0 01-.085 1.438c-.042.413-.09.689-.147.829-.84-.084-1.672-.44-2.498-1.07l.945-.253-2.667-1.26m4.976-4.976c-.112 0-.168-.084-.168-.252 0-.126.056-.188.168-.188.126 0 .19.062.19.188 0 .168-.064.252-.19.252"
         fill-opacity=".949" fill="#fff" />
   </g>
</svg>