<svg xmlns="http://www.w3.org/2000/svg" version="1.2" viewBox="0 0 42.52 42.52" height="56.693" width="56.693">
   <g stroke-linejoin="bevel" stroke-linecap="square" fill-rule="evenodd" stroke="none" fill="none" font-weight="400"
      font-size="7.8" font-family="'MS Shell Dlg 2'">
      <path
         d="M42.52 21.26C42.52 33 33 42.52 21.26 42.52 9.518 42.52 0 33 0 21.26 0 9.518 9.518 0 21.26 0 33 0 42.52 9.518 42.52 21.26"
         vector-effect="non-scaling-stroke" fill="#3d97f1" />
      <path
         d="M32.61 25.58l-.588 3.884-.777-1.008a15.635 15.635 0 01-3.727 3.37 11.219 11.219 0 01-4.713 1.753l-1.449 3.401-1.722-3.401a13.142 13.142 0 01-4.608-1.816 14.375 14.375 0 01-3.685-3.307l-.693 1.47-.693-4.346 3.737 1.68-1.68.608c1.093 1.022 2.254 1.813 3.486 2.373 1.232.56 2.555.959 3.968 1.196.196 0 .36-.265.494-.797.133-.532.241-1.38.325-2.54.084-1.163.147-2.667.19-4.515.041-1.848.062-4.094.062-6.74h-2.75V15.27h2.75v-.986a3.264 3.264 0 01-1.396-1.04 2.544 2.544 0 01-.577-1.627c0-.756.266-1.403.797-1.942.532-.539 1.197-.808 1.995-.808.742 0 1.386.27 1.932.808.546.539.819 1.186.819 1.942 0 .602-.193 1.144-.578 1.627-.385.483-.85.83-1.396 1.04v.986h2.75v1.575h-2.75c0 2.296.007 4.34.02 6.131.015 1.792.05 3.32.106 4.588.056 1.266.14 2.229.252 2.887.112.658.287.986.525.986a12.754 12.754 0 003.968-1.07c1.274-.574 2.457-1.407 3.548-2.499l-1.364-.903 3.422-1.385M20.16 11.617c0 .476.118.83.356 1.06.238.231.494.347.767.347.272 0 .531-.116.776-.347.245-.23.368-.584.368-1.06 0-.35-.109-.62-.326-.808a1.102 1.102 0 00-.745-.284c-.798 0-1.197.364-1.197 1.092"
         fill-opacity=".949" fill="#fff" />
   </g>
</svg>