<?xml version="1.0" encoding="UTF-8" standalone="no"?>
<svg
   xmlns:dc="http://purl.org/dc/elements/1.1/"
   xmlns:cc="http://creativecommons.org/ns#"
   xmlns:rdf="http://www.w3.org/1999/02/22-rdf-syntax-ns#"
   xmlns:svg="http://www.w3.org/2000/svg"
   xmlns="http://www.w3.org/2000/svg"
   xmlns:sodipodi="http://sodipodi.sourceforge.net/DTD/sodipodi-0.dtd"
   xmlns:inkscape="http://www.inkscape.org/namespaces/inkscape"
   inkscape:version="1.0 (4035a4fb49, 2020-05-01)"
   sodipodi:docname="1111.svg"
   id="svg20"
   version="1.2"
   viewBox="0 0 42.519639 42.519639"
   height="14.999999mm"
   width="14.999999mm">
  <metadata
     id="metadata24">
    <rdf:RDF>
      <cc:Work
         rdf:about="">
        <dc:format>image/svg+xml</dc:format>
        <dc:type
           rdf:resource="http://purl.org/dc/dcmitype/StillImage" />
        <dc:title>Qt SVG Document</dc:title>
      </cc:Work>
    </rdf:RDF>
  </metadata>
  <sodipodi:namedview
     inkscape:current-layer="svg20"
     inkscape:window-maximized="1"
     inkscape:window-y="-9"
     inkscape:window-x="-9"
     inkscape:cy="28.346482"
     inkscape:cx="28.346482"
     inkscape:zoom="18.047943"
     fit-margin-bottom="0"
     fit-margin-right="0"
     fit-margin-left="0"
     fit-margin-top="0"
     showgrid="false"
     id="namedview22"
     inkscape:window-height="1013"
     inkscape:window-width="1920"
     inkscape:pageshadow="2"
     inkscape:pageopacity="0"
     guidetolerance="10"
     gridtolerance="10"
     objecttolerance="10"
     borderopacity="1"
     bordercolor="#666666"
     pagecolor="#ffffff" />
  <title
     id="title2">Qt SVG Document</title>
  <desc
     id="desc4">Generated with Qt</desc>
  <defs
     id="defs6" />
  <g
     transform="translate(5.25984,5.25984)"
     id="g18"
     stroke-linejoin="bevel"
     stroke-linecap="square"
     fill-rule="evenodd"
     stroke-width="1"
     stroke="#000000"
     fill="none">
    <g
       id="g10"
       font-style="normal"
       font-weight="400"
       font-size="7.8px"
       font-family="'MS Shell Dlg 2'"
       stroke="none"
       fill-opacity="1"
       fill="#3d97f1">
      <path
         id="path8"
         d="M 37.2598,16 C 37.2598,27.7415 27.7415,37.2598 16,37.2598 4.25851,37.2598 -5.25984,27.7415 -5.25984,16 -5.25984,4.25851 4.25851,-5.25984 16,-5.25984 27.7415,-5.25984 37.2598,4.25851 37.2598,16"
         fill-rule="evenodd"
         vector-effect="non-scaling-stroke" />
    </g>
    <g
       id="g14"
       font-style="normal"
       font-weight="400"
       font-size="7.8px"
       font-family="'MS Shell Dlg 2'"
       transform="translate(16,13.1654)"
       stroke="none"
       fill-opacity="0.94902"
       fill="#ffffff">
      <path
         id="path12"
         d="m 11.3501,7.1543 -0.5879,3.8843 -0.77685,-1.0078 c -1.03581,1.3017 -2.27807,2.425 -3.72681,3.3698 -1.44873,0.9449 -3.01993,1.5293 -4.71362,1.7532 L 0.0961914,18.5552 -1.62549,15.1538 C -3.26318,14.8459 -4.7994,14.2405 -6.23413,13.3376 -7.66886,12.4348 -8.89714,11.3325 -9.91895,10.0308 l -0.69285,1.4697 -0.6929,-4.3462 3.73732,1.67968 -1.67969,0.60889 c 1.0918,1.02183 2.25358,1.81263 3.48535,2.37253 1.23177,0.5599 2.55453,0.9589 3.96826,1.1968 0.19597,0 0.36044,-0.2659 0.49341,-0.7978 0.13298,-0.5319 0.24146,-1.3788 0.325441,-2.54057 0.083984,-1.16179 0.146972,-2.66651 0.188964,-4.51416 0.041993,-1.84766 0.062989,-4.09424 0.062989,-6.73975 H -3.47314 v -1.57471 h 2.750484 V -4.1416 C -1.26855,-4.35156 -1.73397,-4.698 -2.1189,-5.18091 c -0.38492,-0.48291 -0.57739,-1.02531 -0.57739,-1.6272 0,-0.75585 0.26595,-1.40323 0.79785,-1.94213 0.5319,-0.5389 1.19678,-0.80835 1.9946314,-0.80835 0.7418616,0 1.3857386,0.26945 1.9316386,0.80835 0.5459,0.5389 0.81885,1.18628 0.81885,1.94213 0,0.60189 -0.19246,1.14429 -0.57739,1.6272 C 1.88436,-4.698 1.41895,-4.35156 0.873047,-4.1416 v 0.98681 H 3.62354 v 1.57471 H 0.873047 c 0,2.295575 0.006999,4.33919 0.020996,6.13086 C 0.90804,6.34245 0.943034,7.87166 0.999023,9.13843 1.05501,10.4052 1.139,11.3675 1.25098,12.0254 c 0.11198,0.6579 0.28694,0.9868 0.5249,0.9868 1.37174,-0.14 2.6945,-0.4969 3.96826,-1.0708 C 7.0179,11.3675 8.20068,10.5347 9.29248,9.44287 L 7.92773,8.54004 11.3501,7.1543 M -1.10059,-6.80811 c 0,0.47592 0.118982,0.82935 0.356938,1.06031 0.237955,0.23095 0.493408,0.34643 0.7663571,0.34643 0.2729489,0 0.5319009,-0.11548 0.7768559,-0.34643 0.244949,-0.23096 0.367429,-0.58439 0.367429,-1.06031 0,-0.34993 -0.10848,-0.61938 -0.325437,-0.80835 -0.21696,-0.18896 -0.465414,-0.28344 -0.7453616,-0.28344 -0.7978514,0 -1.1967814,0.36393 -1.1967814,1.09179"
         fill-rule="evenodd"
         vector-effect="none" />
    </g>
    <g
       id="g16"
       font-style="normal"
       font-weight="400"
       font-size="7.8px"
       font-family="'MS Shell Dlg 2'"
       stroke="none"
       fill-opacity="1"
       fill="#3d97f1" />
  </g>
</svg>
