<svg xmlns="http://www.w3.org/2000/svg" version="1.2" viewBox="0 0 42.52 42.52" height="56.693" width="56.693">
   <g stroke-linejoin="bevel" stroke-linecap="square" fill-rule="evenodd" stroke="none" fill="none" font-weight="400"
      font-size="7.8" font-family="'MS Shell Dlg 2'">
      <path
         d="M42.52 21.26C42.52 33 33 42.52 21.26 42.52 9.518 42.52 0 33 0 21.26 0 9.518 9.518 0 21.26 0 33 0 42.52 9.518 42.52 21.26"
         vector-effect="non-scaling-stroke" fill="#3d97f1" />
      <path
         d="M16.065 18.882c-.084-.154-.084-.371 0-.651.112-.252.34-.438.682-.556.343-.12.662-.249.956-.389l6.488-2.582 6.487 2.582c.266.14.578.27.935.389.357.118.605.304.745.556.084.28.084.497 0 .65a77.044 77.044 0 01-1.764 4.158 49.496 49.496 0 01-.65 2.897c-.197.77-.403 1.54-.62 2.31-.217.77-.395 1.344-.535 1.722a2.548 2.548 0 00-1.155-.252c-.714 0-1.386.245-2.016.735-.896.546-1.756.546-2.582 0-1.148-.812-2.338-.945-3.57-.4-.182-.307-.37-.85-.567-1.626a106.25 106.25 0 01-.566-2.363 66.276 66.276 0 01-.546-3.023l-1.722-4.157m3.653 3.989l.483 2.33.336-.734c.406.462.858.85 1.354 1.165a4.052 4.052 0 001.565.598l.735 1.47.692-1.47a4.225 4.225 0 001.607-.619c.524-.329.99-.738 1.396-1.228l.399.504.336-1.932-1.764.693.609.378a6.839 6.839 0 01-1.228.787 4.1 4.1 0 01-1.355.389c-.056-.084-.105-.277-.147-.578a12.73 12.73 0 01-.094-1.144 35.045 35.045 0 01-.032-1.575v-1.868h1.092v-.903H24.61v-.168c.238-.084.434-.228.588-.43.154-.204.231-.417.231-.641 0-.322-.126-.598-.378-.83a1.239 1.239 0 00-.86-.346c-.322 0-.595.116-.82.347a1.15 1.15 0 00-.335.829c0 .224.056.437.168.64.112.203.28.347.504.43v.169h-.945v.903h.945v1.406c0 .56-.007 1.103-.021 1.628-.014.524-.042.99-.084 1.396-.042.406-.091.65-.147.735a8.477 8.477 0 01-1.313-.43 4.597 4.597 0 01-1.186-.746l.735-.252-1.974-.903m4.473-9.49l-6.488 2.561V13.97h1.931v-1.764h2.835v-2.31h3.485v2.31h2.75v1.764h1.974v1.973l-6.488-2.561M12.37 30.45c-.896.546-1.757.546-2.583 0-.546-.378-1.05-.567-1.512-.567v-7.748h4.095l3.002-2.561.441.168-2.75 2.393h1.406L13.86 29.8a3.296 3.296 0 00-1.49.65m19.904.673c.322-.224.654-.378.997-.462a4.268 4.268 0 011.019-.126v1.238c-.224 0-.445.028-.662.084a1.763 1.763 0 00-.661.357 3.733 3.733 0 01-2.005.588 3.33 3.33 0 01-1.921-.588 2.052 2.052 0 00-.767-.357 3.439 3.439 0 00-.724-.084h-.273a3.525 3.525 0 00-.462.19c-.14.07-.315.153-.525.251-.308.168-.62.308-.934.42a2.954 2.954 0 01-.998.168c-.363 0-.734-.056-1.112-.168a5.273 5.273 0 01-1.03-.42c-.21-.21-.51-.357-.902-.44a3.57 3.57 0 00-.777.083 1.882 1.882 0 00-.735.357 3.172 3.172 0 01-1.05.462 4.666 4.666 0 01-1.05.126 3.46 3.46 0 01-1.08-.168 6.553 6.553 0 01-.998-.42c-.882-.63-1.77-.63-2.666 0-.308.168-.62.308-.935.42a2.954 2.954 0 01-.997.168c-.364 0-.717-.056-1.06-.168a6.552 6.552 0 01-.998-.42 2.962 2.962 0 00-.693-.357v-1.322c.49.084.966.252 1.428.504.224.181.445.3.662.356.217.056.437.084.66.084.49 0 .91-.119 1.26-.356a3.308 3.308 0 011.544-.588c.539-.056 1.081 0 1.627.168.322.084.651.196.987.336.154.154.3.251.44.293.14.042.28.091.42.147.295.056.571.05.83-.02.26-.07.529-.183.808-.336a3.774 3.774 0 011.596-.588 2.899 2.899 0 011.25.02c.426.099.843.26 1.249.484.168.154.322.251.462.293.14.042.315.091.525.147.461.084.993-.063 1.595-.44a3.9 3.9 0 011.932-.504 2.524 2.524 0 011.113.084c.378.112.72.28 1.028.504.896.573 1.757.573 2.583 0m-2.583 3.716a9.354 9.354 0 00-.314-.19 3.748 3.748 0 00-.336-.167 2.233 2.233 0 00-.767-.336 3.439 3.439 0 00-.724-.084h-.273a3.525 3.525 0 00-.462.189c-.14.07-.315.147-.525.23-.308.169-.62.312-.934.431a2.8 2.8 0 01-.998.179c-.363 0-.734-.06-1.112-.179a5.749 5.749 0 01-1.03-.43c-.21-.196-.51-.336-.902-.42a3.57 3.57 0 00-.777.084 2.04 2.04 0 00-.735.336 2.963 2.963 0 01-1.05.483 4.672 4.672 0 01-1.05.126c-.377 0-.738-.06-1.08-.179a7.388 7.388 0 01-.998-.43c-.882-.63-1.77-.63-2.666 0-.224.14-.448.259-.672.357V33.41c.49-.35 1.004-.553 1.543-.609.539-.056 1.081 0 1.627.168.322.098.651.217.987.357.154.14.3.231.44.273.14.042.28.091.42.147.295.056.571.049.83-.021a4.36 4.36 0 00.808-.315 3.62 3.62 0 011.596-.609 2.9 2.9 0 011.25.021c.426.098.843.266 1.249.504.168.14.322.231.462.273.14.042.315.091.525.147.461.084.993-.056 1.595-.42a3.78 3.78 0 011.932-.525 2.433 2.433 0 011.113.095c.378.119.72.29 1.028.514v1.428"
         fill-opacity=".949" fill="#fff" />
   </g>
</svg>