<?xml version="1.0" encoding="UTF-8" standalone="no"?>
<svg
   xmlns:dc="http://purl.org/dc/elements/1.1/"
   xmlns:cc="http://creativecommons.org/ns#"
   xmlns:rdf="http://www.w3.org/1999/02/22-rdf-syntax-ns#"
   xmlns:svg="http://www.w3.org/2000/svg"
   xmlns="http://www.w3.org/2000/svg"
   xmlns:sodipodi="http://sodipodi.sourceforge.net/DTD/sodipodi-0.dtd"
   xmlns:inkscape="http://www.inkscape.org/namespaces/inkscape"
   inkscape:version="1.0 (4035a4fb49, 2020-05-01)"
   sodipodi:docname="1112.svg"
   id="svg20"
   version="1.2"
   viewBox="0 0 42.519639 42.519639"
   height="14.999999mm"
   width="14.999999mm">
  <metadata
     id="metadata24">
    <rdf:RDF>
      <cc:Work
         rdf:about="">
        <dc:format>image/svg+xml</dc:format>
        <dc:type
           rdf:resource="http://purl.org/dc/dcmitype/StillImage" />
        <dc:title>Qt SVG Document</dc:title>
      </cc:Work>
    </rdf:RDF>
  </metadata>
  <sodipodi:namedview
     inkscape:current-layer="svg20"
     inkscape:window-maximized="1"
     inkscape:window-y="-9"
     inkscape:window-x="-9"
     inkscape:cy="28.346482"
     inkscape:cx="28.346482"
     inkscape:zoom="18.047943"
     showgrid="false"
     id="namedview22"
     inkscape:window-height="1013"
     inkscape:window-width="1920"
     inkscape:pageshadow="2"
     inkscape:pageopacity="0"
     guidetolerance="10"
     gridtolerance="10"
     objecttolerance="10"
     borderopacity="1"
     bordercolor="#666666"
     pagecolor="#ffffff" />
  <title
     id="title2">Qt SVG Document</title>
  <desc
     id="desc4">Generated with Qt</desc>
  <defs
     id="defs6" />
  <g
     transform="translate(5.25984,5.25984)"
     id="g18"
     stroke-linejoin="bevel"
     stroke-linecap="square"
     fill-rule="evenodd"
     stroke-width="1"
     stroke="#000000"
     fill="none">
    <g
       id="g10"
       font-style="normal"
       font-weight="400"
       font-size="7.8px"
       font-family="'MS Shell Dlg 2'"
       stroke="none"
       fill-opacity="1"
       fill="#3d97f1">
      <path
         id="path8"
         d="M 37.2598,16 C 37.2598,27.7415 27.7415,37.2598 16,37.2598 4.25851,37.2598 -5.25984,27.7415 -5.25984,16 -5.25984,4.25851 4.25851,-5.25984 16,-5.25984 27.7415,-5.25984 37.2598,4.25851 37.2598,16"
         fill-rule="evenodd"
         vector-effect="non-scaling-stroke" />
    </g>
    <g
       id="g14"
       font-style="normal"
       font-weight="400"
       font-size="7.8px"
       font-family="'MS Shell Dlg 2'"
       transform="translate(16,13.1654)"
       stroke="none"
       fill-opacity="0.94902"
       fill="#ffffff">
      <path
         id="path12"
         d="m -5.19482,0.456543 c -0.08399,-0.153971 -0.08399,-0.370931 0,-0.650879 0.11197,-0.251953 0.33943,-0.437419 0.68237,-0.556396 0.34294,-0.118978 0.66138,-0.248454 0.95532,-0.388428 l 6.48779,-2.58252 6.4878,2.58252 c 0.26595,0.139974 0.57739,0.26945 0.93434,0.388428 0.3569,0.118977 0.6054,0.304443 0.7453,0.556396 0.084,0.279948 0.084,0.496908 0,0.650879 C 10.5522,1.85628 9.96436,3.24202 9.33447,4.61377 9.13851,5.62158 8.92155,6.5874 8.68359,7.51123 8.48763,8.28109 8.28117,9.05094 8.06421,9.8208 c -0.21696,0.7699 -0.39543,1.3438 -0.5354,1.7217 -0.33594,-0.168 -0.72087,-0.252 -1.15479,-0.252 -0.71386,0 -1.38574,0.245 -2.01562,0.7349 -0.89583,0.5459 -1.75667,0.5459 -2.58252,0 C 0.628092,11.2135 -0.561686,11.0806 -1.79346,11.6265 -1.97542,11.3185 -2.16439,10.7761 -2.36035,9.99927 -2.55632,9.22241 -2.74528,8.43506 -2.92725,7.63721 -3.12321,6.68538 -3.30518,5.67757 -3.47314,4.61377 L -5.19482,0.456543 M -1.5415,4.4458 -1.05859,6.77637 -0.722656,6.0415 C -0.316732,6.50342 0.134684,6.89185 0.631592,7.20679 1.1285,7.52173 1.6499,7.72119 2.1958,7.80518 L 2.93066,9.2749 3.62354,7.80518 C 4.16943,7.72119 4.70483,7.51473 5.22974,7.18579 5.75464,6.85685 6.22005,6.44743 6.62598,5.95752 L 7.0249,6.46143 7.36084,4.52979 5.59717,5.22266 6.20605,5.60059 C 5.80013,5.92253 5.39071,6.18498 4.97778,6.38794 4.56486,6.5909 4.11344,6.72038 3.62354,6.77637 3.56755,6.69238 3.51855,6.49992 3.47656,6.19897 3.43457,5.89803 3.40308,5.5166 3.38208,5.05469 3.36108,4.59277 3.35059,4.06787 3.35059,3.47998 c 0,-0.58789 0,-1.21077 0,-1.86865 H 4.44238 V 0.708496 H 3.35059 V 0.540527 C 3.58854,0.456543 3.78451,0.31307 3.93848,0.110107 4.09245,-0.0928548 4.16943,-0.306315 4.16943,-0.530273 4.16943,-0.852214 4.04346,-1.12866 3.7915,-1.35962 3.53955,-1.59058 3.2526,-1.70605 2.93066,-1.70605 c -0.32194,0 -0.59489,0.11547 -0.81884,0.34643 -0.22396,0.23096 -0.33594,0.507406 -0.33594,0.829347 0,0.223958 0.05599,0.4374182 0.16797,0.64038 0.11198,0.202963 0.27995,0.346436 0.5039,0.43042 V 0.708496 H 1.50293 V 1.61133 h 0.94482 c 0,0.37793 0,0.84684 0,1.40674 0,0.55989 -0.00699,1.10229 -0.02099,1.62719 C 2.41276,5.17017 2.38477,5.63558 2.34277,6.0415 2.30078,6.44743 2.25179,6.69238 2.1958,6.77637 1.73389,6.66439 1.29647,6.52091 0.883545,6.34595 0.470622,6.17098 0.0751953,5.92253 -0.302734,5.60059 L 0.432129,5.34863 -1.5415,4.4458 m 4.47216,-9.49023 -6.48779,2.56152 v -1.97363 h 1.93164 v -1.76367 h 2.83447 v -2.30958 h 3.48536 v 2.30958 h 2.75048 v 1.76367 h 1.97364 v 1.97363 L 2.93066,-5.04443 M -8.89014,12.0254 c -0.89583,0.5459 -1.75666,0.5459 -2.58256,0 -0.5459,-0.3779 -1.0498,-0.5669 -1.5117,-0.5669 V 3.71094 h 4.09426 l 3.00244,-2.56153 0.44092,0.16797 -2.75049,2.39356 h 1.40674 l -0.60888,7.66356 c -0.53191,0.084 -1.02881,0.301 -1.49073,0.6509 m 19.90434,0.6719 c 0.3219,-0.224 0.6543,-0.378 0.9973,-0.4619 0.3429,-0.084 0.6823,-0.126 1.0183,-0.126 v 1.2387 c -0.224,0 -0.4444,0.028 -0.6614,0.084 -0.217,0.056 -0.4374,0.175 -0.6614,0.357 -0.6299,0.3919 -1.2982,0.5879 -2.0051,0.5879 -0.70686,0 -1.34725,-0.196 -1.92114,-0.5879 -0.25195,-0.182 -0.5074,-0.301 -0.76636,-0.357 -0.25895,-0.056 -0.5004,-0.084 -0.72436,-0.084 H 6.01709 c -0.16797,0.056 -0.32194,0.119 -0.46191,0.189 -0.13998,0.07 -0.31495,0.154 -0.52491,0.252 C 4.72233,13.957 4.41089,14.097 4.09595,14.209 3.78101,14.321 3.44857,14.377 3.09863,14.377 2.7347,14.377 2.36377,14.321 1.98584,14.209 1.60791,14.097 1.26497,13.957 0.957031,13.7891 c -0.209961,-0.21 -0.510905,-0.357 -0.9028318,-0.441 -0.2659502,0 -0.5249022,0.028 -0.7768552,0.084 -0.251953,0.056 -0.496904,0.175 -0.734864,0.357 -0.33594,0.2239 -0.68587,0.3779 -1.0498,0.4619 -0.36394,0.084 -0.71387,0.126 -1.04981,0.126 -0.37793,0 -0.73836,-0.056 -1.0813,-0.168 -0.34293,-0.112 -0.67537,-0.252 -0.99731,-0.4199 -0.88184,-0.6299 -1.77067,-0.6299 -2.66651,0 -0.30794,0.1679 -0.61938,0.3079 -0.93432,0.4199 -0.31494,0.112 -0.64738,0.168 -0.99733,0.168 -0.3639,0 -0.7174,-0.056 -1.0603,-0.168 -0.3429,-0.112 -0.6754,-0.252 -0.9973,-0.4199 -0.224,-0.154 -0.4549,-0.273 -0.6929,-0.357 v -1.3227 c 0.4899,0.084 0.9658,0.2519 1.4278,0.5039 0.2239,0.1819 0.4444,0.3009 0.6613,0.3569 0.217,0.056 0.4375,0.084 0.6614,0.084 0.48992,0 0.90984,-0.119 1.25978,-0.3569 0.48991,-0.336 1.00431,-0.5319 1.54321,-0.5879 0.5389,-0.056 1.0813,0 1.6272,0.1679 0.32194,0.084 0.65088,0.196 0.98682,0.336 0.15397,0.154 0.30094,0.2519 0.44091,0.2939 0.13998,0.042 0.27995,0.091 0.41993,0.147 0.29394,0.056 0.57039,0.049 0.82934,-0.021 0.25895,-0.07 0.5284,-0.182 0.80835,-0.3359 0.46191,-0.308 0.99382,-0.5039 1.595704,-0.5879 0.405924,-0.084 0.8223468,-0.077 1.249267,0.021 0.426921,0.098 0.843339,0.2589 1.249269,0.4829 0.16797,0.154 0.32194,0.2519 0.46191,0.2939 0.13998,0.042 0.31494,0.091 0.52491,0.147 0.46191,0.084 0.99381,-0.063 1.5957,-0.4409 0.60189,-0.336 1.24577,-0.5039 1.93164,-0.5039 0.36393,-0.056 0.73486,-0.028 1.11279,0.084 0.37793,0.1119 0.72087,0.2799 1.02881,0.5039 0.89583,0.5739 1.75666,0.5739 2.58256,0 M 8.43164,16.4136 C 8.31966,16.3436 8.21468,16.2806 8.1167,16.2246 8.01872,16.1686 7.90674,16.1126 7.78076,16.0566 7.52881,15.8887 7.27336,15.7767 7.0144,15.7207 6.75545,15.6647 6.514,15.6367 6.29004,15.6367 H 6.01709 c -0.16797,0.056 -0.32194,0.119 -0.46191,0.189 -0.13998,0.07 -0.31495,0.147 -0.52491,0.2309 -0.30794,0.168 -0.61938,0.3115 -0.93432,0.4305 C 3.78101,16.606 3.44857,16.6655 3.09863,16.6655 2.7347,16.6655 2.36377,16.606 1.98584,16.4871 1.60791,16.3681 1.26497,16.2246 0.957031,16.0566 0.74707,15.8607 0.446126,15.7207 0.0541992,15.6367 c -0.2659502,0 -0.5249022,0.028 -0.7768552,0.084 -0.251953,0.056 -0.496904,0.168 -0.734864,0.3359 -0.33594,0.238 -0.68587,0.399 -1.0498,0.483 -0.36394,0.0839 -0.71387,0.1259 -1.04981,0.1259 -0.37793,0 -0.73836,-0.0595 -1.0813,-0.1784 -0.34293,-0.119 -0.67537,-0.2625 -0.99731,-0.4305 -0.88184,-0.6298 -1.77067,-0.6298 -2.66651,0 -0.22395,0.14 -0.44791,0.259 -0.67187,0.357 v -1.4278 c 0.48991,-0.3499 1.00431,-0.5529 1.54321,-0.6088 0.5389,-0.056 1.0813,0 1.6272,0.1679 0.32194,0.098 0.65088,0.217 0.98682,0.357 0.15397,0.1399 0.30094,0.2309 0.44091,0.2729 0.13998,0.042 0.27995,0.091 0.41993,0.147 0.29394,0.056 0.57039,0.049 0.82934,-0.021 0.25895,-0.07 0.5284,-0.175 0.80835,-0.315 0.46191,-0.3219 0.99382,-0.5249 1.595704,-0.6088 0.405924,-0.084 0.8223468,-0.077 1.249267,0.0209 0.426921,0.098 0.843339,0.266 1.249269,0.504 0.16797,0.1399 0.32194,0.2309 0.46191,0.2729 0.13998,0.042 0.31494,0.091 0.52491,0.147 0.46191,0.084 0.99381,-0.056 1.5957,-0.4199 0.60189,-0.35 1.24577,-0.5249 1.93164,-0.5249 0.36393,-0.056 0.73486,-0.0245 1.11279,0.0944 0.37793,0.119 0.72087,0.2905 1.02881,0.5144 v 1.4278"
         fill-rule="evenodd"
         vector-effect="none" />
    </g>
    <g
       id="g16"
       font-style="normal"
       font-weight="400"
       font-size="7.8px"
       font-family="'MS Shell Dlg 2'"
       stroke="none"
       fill-opacity="1"
       fill="#3d97f1" />
  </g>
</svg>
