<?xml version="1.0" encoding="UTF-8" standalone="no"?>
<svg width="11.25008mm" height="11.25008mm"
 viewBox="-5.3 -5.3 42.52000 42.52000"
 xmlns="http://www.w3.org/2000/svg" xmlns:xlink="http://www.w3.org/1999/xlink"  version="1.2" baseProfile="tiny">
<title>Qt SVG Document</title>
<desc>Generated with Qt</desc>
<defs>
</defs>
<g fill="none" stroke="black" stroke-width="1" fill-rule="evenodd" stroke-linecap="square" stroke-linejoin="bevel" >

<g fill="#3d97f1" fill-opacity="1" stroke="none" transform="matrix(1,0,0,1,0,0)"
font-family="MS Shell Dlg 2" font-size="7.8" font-weight="400" font-style="normal" 
>
<path vector-effect="non-scaling-stroke" fill-rule="evenodd" d="M37.2598,16 C37.2598,27.7415 27.7415,37.2598 16,37.2598 C4.25851,37.2598 -5.25984,27.7415 -5.25984,16 C-5.25984,4.25851 4.25851,-5.25984 16,-5.25984 C27.7415,-5.25984 37.2598,4.25851 37.2598,16 "/>
</g>

<g fill="#ffffff" fill-opacity="0.94902" stroke="none" transform="matrix(1,0,0,1,16,13.1654)"
font-family="MS Shell Dlg 2" font-size="7.8" font-weight="400" font-style="normal" 
>
<path vector-effect="none" fill-rule="evenodd" d="M-5.19482,0.456543 C-5.27881,0.302572 -5.27881,0.085612 -5.19482,-0.194336 C-5.08285,-0.446289 -4.85539,-0.631755 -4.51245,-0.750732 C-4.16951,-0.86971 -3.85107,-0.999186 -3.55713,-1.13916 L2.93066,-3.72168 L9.41846,-1.13916 C9.68441,-0.999186 9.99585,-0.86971 10.3528,-0.750732 C10.7097,-0.631755 10.9582,-0.446289 11.0981,-0.194336 C11.1821,0.085612 11.1821,0.302572 11.0981,0.456543 C10.5522,1.85628 9.96436,3.24202 9.33447,4.61377 C9.13851,5.62158 8.92155,6.5874 8.68359,7.51123 C8.48763,8.28109 8.28117,9.05094 8.06421,9.8208 C7.84725,10.5907 7.66878,11.1646 7.52881,11.5425 C7.19287,11.3745 6.80794,11.2905 6.37402,11.2905 C5.66016,11.2905 4.98828,11.5355 4.3584,12.0254 C3.46257,12.5713 2.60173,12.5713 1.77588,12.0254 C0.628092,11.2135 -0.561686,11.0806 -1.79346,11.6265 C-1.97542,11.3185 -2.16439,10.7761 -2.36035,9.99927 C-2.55632,9.22241 -2.74528,8.43506 -2.92725,7.63721 C-3.12321,6.68538 -3.30518,5.67757 -3.47314,4.61377 L-5.19482,0.456543 M-1.5415,4.4458 L-1.05859,6.77637 L-0.722656,6.0415 C-0.316732,6.50342 0.134684,6.89185 0.631592,7.20679 C1.1285,7.52173 1.6499,7.72119 2.1958,7.80518 L2.93066,9.2749 L3.62354,7.80518 C4.16943,7.72119 4.70483,7.51473 5.22974,7.18579 C5.75464,6.85685 6.22005,6.44743 6.62598,5.95752 L7.0249,6.46143 L7.36084,4.52979 L5.59717,5.22266 L6.20605,5.60059 C5.80013,5.92253 5.39071,6.18498 4.97778,6.38794 C4.56486,6.5909 4.11344,6.72038 3.62354,6.77637 C3.56755,6.69238 3.51855,6.49992 3.47656,6.19897 C3.43457,5.89803 3.40308,5.5166 3.38208,5.05469 C3.36108,4.59277 3.35059,4.06787 3.35059,3.47998 C3.35059,2.89209 3.35059,2.26921 3.35059,1.61133 L4.44238,1.61133 L4.44238,0.708496 L3.35059,0.708496 L3.35059,0.540527 C3.58854,0.456543 3.78451,0.31307 3.93848,0.110107 C4.09245,-0.0928548 4.16943,-0.306315 4.16943,-0.530273 C4.16943,-0.852214 4.04346,-1.12866 3.7915,-1.35962 C3.53955,-1.59058 3.2526,-1.70605 2.93066,-1.70605 C2.60872,-1.70605 2.33577,-1.59058 2.11182,-1.35962 C1.88786,-1.12866 1.77588,-0.852214 1.77588,-0.530273 C1.77588,-0.306315 1.83187,-0.0928548 1.94385,0.110107 C2.05583,0.31307 2.2238,0.456543 2.44775,0.540527 L2.44775,0.708496 L1.50293,0.708496 L1.50293,1.61133 L2.44775,1.61133 C2.44775,1.98926 2.44775,2.45817 2.44775,3.01807 C2.44775,3.57796 2.44076,4.12036 2.42676,4.64526 C2.41276,5.17017 2.38477,5.63558 2.34277,6.0415 C2.30078,6.44743 2.25179,6.69238 2.1958,6.77637 C1.73389,6.66439 1.29647,6.52091 0.883545,6.34595 C0.470622,6.17098 0.0751953,5.92253 -0.302734,5.60059 L0.432129,5.34863 L-1.5415,4.4458 M2.93066,-5.04443 L-3.55713,-2.48291 L-3.55713,-4.45654 L-1.62549,-4.45654 L-1.62549,-6.22021 L1.20898,-6.22021 L1.20898,-8.52979 L4.69434,-8.52979 L4.69434,-6.22021 L7.44482,-6.22021 L7.44482,-4.45654 L9.41846,-4.45654 L9.41846,-2.48291 L2.93066,-5.04443 M-8.89014,12.0254 C-9.78597,12.5713 -10.6468,12.5713 -11.4727,12.0254 C-12.0186,11.6475 -12.5225,11.4585 -12.9844,11.4585 L-12.9844,3.71094 L-8.89014,3.71094 L-5.8877,1.14941 L-5.44678,1.31738 L-8.19727,3.71094 L-6.79053,3.71094 L-7.39941,11.3745 C-7.93132,11.4585 -8.42822,11.6755 -8.89014,12.0254 M11.0142,12.6973 C11.3361,12.4733 11.6685,12.3193 12.0115,12.2354 C12.3544,12.1514 12.6938,12.1094 13.0298,12.1094 L13.0298,13.3481 C12.8058,13.3481 12.5854,13.3761 12.3684,13.4321 C12.1514,13.4881 11.931,13.6071 11.707,13.7891 C11.0771,14.181 10.4088,14.377 9.7019,14.377 C8.99504,14.377 8.35465,14.181 7.78076,13.7891 C7.52881,13.6071 7.27336,13.4881 7.0144,13.4321 C6.75545,13.3761 6.514,13.3481 6.29004,13.3481 L6.01709,13.3481 C5.84912,13.4041 5.69515,13.4671 5.55518,13.5371 C5.4152,13.6071 5.24023,13.6911 5.03027,13.7891 C4.72233,13.957 4.41089,14.097 4.09595,14.209 C3.78101,14.321 3.44857,14.377 3.09863,14.377 C2.7347,14.377 2.36377,14.321 1.98584,14.209 C1.60791,14.097 1.26497,13.957 0.957031,13.7891 C0.74707,13.5791 0.446126,13.4321 0.0541992,13.3481 C-0.211751,13.3481 -0.470703,13.3761 -0.722656,13.4321 C-0.974609,13.4881 -1.21956,13.6071 -1.45752,13.7891 C-1.79346,14.013 -2.14339,14.167 -2.50732,14.251 C-2.87126,14.335 -3.22119,14.377 -3.55713,14.377 C-3.93506,14.377 -4.29549,14.321 -4.63843,14.209 C-4.98136,14.097 -5.3138,13.957 -5.63574,13.7891 C-6.51758,13.1592 -7.40641,13.1592 -8.30225,13.7891 C-8.61019,13.957 -8.92163,14.097 -9.23657,14.209 C-9.55151,14.321 -9.88395,14.377 -10.2339,14.377 C-10.5978,14.377 -10.9513,14.321 -11.2942,14.209 C-11.6371,14.097 -11.9696,13.957 -12.2915,13.7891 C-12.5155,13.6351 -12.7464,13.5161 -12.9844,13.4321 L-12.9844,12.1094 C-12.4945,12.1934 -12.0186,12.3613 -11.5566,12.6133 C-11.3327,12.7952 -11.1122,12.9142 -10.8953,12.9702 C-10.6783,13.0262 -10.4578,13.0542 -10.2339,13.0542 C-9.74398,13.0542 -9.32406,12.9352 -8.97412,12.6973 C-8.48421,12.3613 -7.96981,12.1654 -7.43091,12.1094 C-6.89201,12.0534 -6.34961,12.1094 -5.80371,12.2773 C-5.48177,12.3613 -5.15283,12.4733 -4.81689,12.6133 C-4.66292,12.7673 -4.51595,12.8652 -4.37598,12.9072 C-4.236,12.9492 -4.09603,12.9982 -3.95605,13.0542 C-3.66211,13.1102 -3.38566,13.1032 -3.12671,13.0332 C-2.86776,12.9632 -2.59831,12.8512 -2.31836,12.6973 C-1.85645,12.3893 -1.32454,12.1934 -0.722656,12.1094 C-0.316732,12.0254 0.0996908,12.0324 0.526611,12.1304 C0.953532,12.2284 1.36995,12.3893 1.77588,12.6133 C1.94385,12.7673 2.09782,12.8652 2.23779,12.9072 C2.37777,12.9492 2.55273,12.9982 2.7627,13.0542 C3.22461,13.1382 3.75651,12.9912 4.3584,12.6133 C4.96029,12.2773 5.60417,12.1094 6.29004,12.1094 C6.65397,12.0534 7.0249,12.0814 7.40283,12.1934 C7.78076,12.3053 8.1237,12.4733 8.43164,12.6973 C9.32747,13.2712 10.1883,13.2712 11.0142,12.6973 M8.43164,16.4136 C8.31966,16.3436 8.21468,16.2806 8.1167,16.2246 C8.01872,16.1686 7.90674,16.1126 7.78076,16.0566 C7.52881,15.8887 7.27336,15.7767 7.0144,15.7207 C6.75545,15.6647 6.514,15.6367 6.29004,15.6367 L6.01709,15.6367 C5.84912,15.6927 5.69515,15.7557 5.55518,15.8257 C5.4152,15.8957 5.24023,15.9727 5.03027,16.0566 C4.72233,16.2246 4.41089,16.3681 4.09595,16.4871 C3.78101,16.606 3.44857,16.6655 3.09863,16.6655 C2.7347,16.6655 2.36377,16.606 1.98584,16.4871 C1.60791,16.3681 1.26497,16.2246 0.957031,16.0566 C0.74707,15.8607 0.446126,15.7207 0.0541992,15.6367 C-0.211751,15.6367 -0.470703,15.6647 -0.722656,15.7207 C-0.974609,15.7767 -1.21956,15.8887 -1.45752,16.0566 C-1.79346,16.2946 -2.14339,16.4556 -2.50732,16.5396 C-2.87126,16.6235 -3.22119,16.6655 -3.55713,16.6655 C-3.93506,16.6655 -4.29549,16.606 -4.63843,16.4871 C-4.98136,16.3681 -5.3138,16.2246 -5.63574,16.0566 C-6.51758,15.4268 -7.40641,15.4268 -8.30225,16.0566 C-8.5262,16.1966 -8.75016,16.3156 -8.97412,16.4136 L-8.97412,14.9858 C-8.48421,14.6359 -7.96981,14.4329 -7.43091,14.377 C-6.89201,14.321 -6.34961,14.377 -5.80371,14.5449 C-5.48177,14.6429 -5.15283,14.7619 -4.81689,14.9019 C-4.66292,15.0418 -4.51595,15.1328 -4.37598,15.1748 C-4.236,15.2168 -4.09603,15.2658 -3.95605,15.3218 C-3.66211,15.3778 -3.38566,15.3708 -3.12671,15.3008 C-2.86776,15.2308 -2.59831,15.1258 -2.31836,14.9858 C-1.85645,14.6639 -1.32454,14.4609 -0.722656,14.377 C-0.316732,14.293 0.0996908,14.3 0.526611,14.3979 C0.953532,14.4959 1.36995,14.6639 1.77588,14.9019 C1.94385,15.0418 2.09782,15.1328 2.23779,15.1748 C2.37777,15.2168 2.55273,15.2658 2.7627,15.3218 C3.22461,15.4058 3.75651,15.2658 4.3584,14.9019 C4.96029,14.5519 5.60417,14.377 6.29004,14.377 C6.65397,14.321 7.0249,14.3525 7.40283,14.4714 C7.78076,14.5904 8.1237,14.7619 8.43164,14.9858 L8.43164,16.4136"/>
</g>

<g fill="#3d97f1" fill-opacity="1" stroke="none" transform="matrix(1,0,0,1,0,0)"
font-family="MS Shell Dlg 2" font-size="7.8" font-weight="400" font-style="normal" 
>
</g>
</g>
</svg>
