<svg xmlns="http://www.w3.org/2000/svg" version="1.2" viewBox="0 0 42.52 42.52" height="56.693" width="56.693">
   <g stroke-linejoin="bevel" stroke-linecap="square" fill-rule="evenodd" stroke="none" fill="none" font-weight="400"
      font-size="7.8" font-family="'MS Shell Dlg 2'">
      <path
         d="M42.52 21.26C42.52 33 33 42.52 21.26 42.52 9.518 42.52 0 33 0 21.26 0 9.518 9.518 0 21.26 0 33 0 42.52 9.518 42.52 21.26"
         vector-effect="non-scaling-stroke" fill="#3d97f1" />
      <path
         d="M24.397 9.58c1.147 0 2.225.22 3.233.662a8.382 8.382 0 012.625 1.784 8.798 8.798 0 011.784 2.625c.448 1 .672 2.075.672 3.223a7.799 7.799 0 01-.672 3.223 9.08 9.08 0 01-1.784 2.645 7.937 7.937 0 01-2.625 1.785 8.203 8.203 0 01-3.233.64h-5.333v7.874h-4.808V9.58h10.14m.043 11.862c1.035 0 1.914-.36 2.635-1.081.72-.721 1.081-1.578 1.081-2.572 0-.518-.095-1-.283-1.449a3.458 3.458 0 00-.798-1.165 4.033 4.033 0 00-1.187-.787 3.574 3.574 0 00-1.448-.294h-5.375v7.348h5.375"
         fill-opacity=".949" fill="#fff" />
   </g>
</svg>