<?xml version="1.0" encoding="UTF-8" standalone="no"?>
<svg
   xmlns:dc="http://purl.org/dc/elements/1.1/"
   xmlns:cc="http://creativecommons.org/ns#"
   xmlns:rdf="http://www.w3.org/1999/02/22-rdf-syntax-ns#"
   xmlns:svg="http://www.w3.org/2000/svg"
   xmlns="http://www.w3.org/2000/svg"
   xmlns:sodipodi="http://sodipodi.sourceforge.net/DTD/sodipodi-0.dtd"
   xmlns:inkscape="http://www.inkscape.org/namespaces/inkscape"
   inkscape:version="1.0 (4035a4fb49, 2020-05-01)"
   sodipodi:docname="1114.svg"
   id="svg20"
   version="1.2"
   viewBox="0 0 42.519639 42.519639"
   height="14.999999mm"
   width="14.999999mm">
  <metadata
     id="metadata24">
    <rdf:RDF>
      <cc:Work
         rdf:about="">
        <dc:format>image/svg+xml</dc:format>
        <dc:type
           rdf:resource="http://purl.org/dc/dcmitype/StillImage" />
        <dc:title>Qt SVG Document</dc:title>
      </cc:Work>
    </rdf:RDF>
  </metadata>
  <sodipodi:namedview
     inkscape:current-layer="svg20"
     inkscape:window-maximized="0"
     inkscape:window-y="0"
     inkscape:window-x="0"
     inkscape:cy="28.346482"
     inkscape:cx="28.346482"
     inkscape:zoom="5.8410537"
     showgrid="false"
     id="namedview22"
     inkscape:window-height="480"
     inkscape:window-width="1034"
     inkscape:pageshadow="2"
     inkscape:pageopacity="0"
     guidetolerance="10"
     gridtolerance="10"
     objecttolerance="10"
     borderopacity="1"
     bordercolor="#666666"
     pagecolor="#ffffff" />
  <title
     id="title2">Qt SVG Document</title>
  <desc
     id="desc4">Generated with Qt</desc>
  <defs
     id="defs6" />
  <g
     transform="translate(5.25984,5.25984)"
     id="g18"
     stroke-linejoin="bevel"
     stroke-linecap="square"
     fill-rule="evenodd"
     stroke-width="1"
     stroke="#000000"
     fill="none">
    <g
       id="g10"
       font-style="normal"
       font-weight="400"
       font-size="7.8px"
       font-family="'MS Shell Dlg 2'"
       stroke="none"
       fill-opacity="1"
       fill="#3d97f1">
      <path
         id="path8"
         d="M 37.2598,16 C 37.2598,27.7415 27.7415,37.2598 16,37.2598 4.25851,37.2598 -5.25984,27.7415 -5.25984,16 -5.25984,4.25851 4.25851,-5.25984 16,-5.25984 27.7415,-5.25984 37.2598,4.25851 37.2598,16"
         fill-rule="evenodd"
         vector-effect="non-scaling-stroke" />
    </g>
    <g
       id="g14"
       font-style="normal"
       font-weight="400"
       font-size="7.8px"
       font-family="'MS Shell Dlg 2'"
       transform="translate(17.1339,13.1654)"
       stroke="none"
       fill-opacity="0.94902"
       fill="#ffffff">
      <path
         id="path12"
         d="M 10.6362,4.06787 8.72559,7.46924 7.88574,6.98633 9.85938,3.58496 10.6362,4.06787 M 14.0166,4.80273 10.6362,10.3877 8.91455,8.58203 11.5811,4.06787 14.0166,4.80273 M 9.85938,1.48535 5.59717,8.49805 1.16699,5.87354 C 1.48893,5.24365 1.56942,4.58228 1.40845,3.8894 1.24748,3.19653 0.852051,2.68213 0.222168,2.34619 -0.407715,1.96826 -1.0516,1.85978 -1.70947,2.02075 -2.36735,2.18172 -2.88525,2.57715 -3.26318,3.20703 L -7.73535,0.540527 -5.63574,-3.02881 c -0.47591,-0.11198 -0.93783,-0.12598 -1.38574,-0.04199 -0.44792,0.08398 -0.83985,0.22396 -1.17579,0.41992 -1.0638,0.57389 -1.5957,1.6377 -1.5957,3.191407 0,0.405925 -0.10848,0.734863 -0.32543,0.986813 -0.217,0.25196 -0.4934,0.52491 -0.8294,0.81885 -0.2939,0.33594 -0.5913,0.69287 -0.8923,1.0708 -0.3009,0.37793 -0.5214,0.83985 -0.6614,1.38574 h 0.9869 v 1.88965 c 0.6298,0.13998 1.0428,0.49691 1.2387,1.0708 0.154,0.40593 0.1435,0.81535 -0.0315,1.22828 -0.1749,0.41292 -0.4794,0.68937 -0.9133,0.82934 h -0.2939 v 1.7217 h -2.5406 V 4.80273 h 0.7769 c 0.14,-0.67187 0.3954,-1.24226 0.7663,-1.71118 0.371,-0.46891 0.7314,-0.87833 1.0813,-1.22827 0.224,-0.22396 0.4235,-0.45141 0.5984,-0.68237 0.175,-0.230959 0.2625,-0.444419 0.2625,-0.640383 0,-1.119791 0.2064,-1.973637 0.61936,-2.561527 0.41292,-0.58789 0.86434,-1.02181 1.35425,-1.30175 1.00781,-0.51791 2.1556,-0.65088 3.44336,-0.39893 l 1.67969,-2.83447 13.33252,8.0415 M -3.7251,4.80273 -3.26318,6.20947 -9.54102,8.33008 -10.0029,6.98633 -3.7251,4.80273 M -0.0717773,2.80811 C 0.404134,3.10205 0.722575,3.51497 0.883545,4.04688 1.04451,4.57878 0.985026,5.08268 0.705078,5.55859 0.411133,6.0485 -0.0157878,6.37394 -0.575684,6.53491 -1.13558,6.69588 -1.66048,6.62939 -2.15039,6.33545 -2.6263,5.99951 -2.93075,5.56559 -3.06372,5.03369 -3.1967,4.50179 -3.10221,3.99089 -2.78027,3.50098 -2.50033,3.01107 -2.1014,2.70313 -1.5835,2.57715 -1.06559,2.45117 -0.561686,2.52816 -0.0717773,2.80811"
         fill-rule="evenodd"
         vector-effect="none" />
    </g>
    <g
       id="g16"
       font-style="normal"
       font-weight="400"
       font-size="7.8px"
       font-family="'MS Shell Dlg 2'"
       stroke="none"
       fill-opacity="1"
       fill="#3d97f1" />
  </g>
</svg>
