<svg xmlns="http://www.w3.org/2000/svg" version="1.2" viewBox="0 0 42.52 42.52" height="56.693" width="56.693">
   <g stroke-linejoin="bevel" stroke-linecap="square" fill-rule="evenodd" stroke="none" fill="none" font-weight="400"
      font-size="7.8" font-family="'MS Shell Dlg 2'">
      <path
         d="M42.52 21.26C42.52 33 33 42.52 21.26 42.52 9.518 42.52 0 33 0 21.26 0 9.518 9.518 0 21.26 0 33 0 42.52 9.518 42.52 21.26"
         vector-effect="non-scaling-stroke" fill="#3d97f1" />
      <path
         d="M33.03 22.493l-1.91 3.401-.84-.482 1.973-3.402.777.483m3.38.735l-3.38 5.585-1.722-1.806 2.667-4.514 2.435.735m-4.157-3.317l-4.262 7.012-4.43-2.624c.322-.63.402-1.291.241-1.984a2.254 2.254 0 00-1.186-1.544c-.63-.377-1.274-.486-1.932-.325-.658.161-1.176.556-1.553 1.186l-4.473-2.666 2.1-3.57a3.32 3.32 0 00-1.386-.042c-.448.084-.84.224-1.176.42-1.063.574-1.595 1.638-1.595 3.192 0 .406-.109.735-.326.987a8.392 8.392 0 01-.83.818c-.293.336-.59.693-.891 1.071-.301.378-.522.84-.662 1.386h.987v1.89c.63.14 1.043.497 1.239 1.07.154.406.143.816-.032 1.229a1.42 1.42 0 01-.913.829h-.294v1.722H8.34v-6.74h.776c.14-.672.396-1.242.767-1.711a14.2 14.2 0 011.081-1.228c.224-.224.424-.452.598-.683.175-.23.263-.444.263-.64 0-1.12.206-1.974.62-2.562.412-.588.864-1.022 1.354-1.302 1.007-.517 2.155-.65 3.443-.398l1.68-2.835 13.332 8.042M18.67 23.228l.462 1.407-6.278 2.12-.462-1.343 6.278-2.184m3.653-1.995c.476.294.794.707.955 1.24a1.821 1.821 0 01-.178 1.51c-.294.49-.721.816-1.28.977a1.912 1.912 0 01-1.576-.2c-.476-.335-.78-.77-.913-1.301-.133-.532-.038-1.043.283-1.533.28-.49.68-.798 1.197-.924.518-.126 1.022-.049 1.512.231"
         fill-opacity=".949" fill="#fff" />
   </g>
</svg>