<?xml version="1.0" encoding="UTF-8" standalone="no"?>
<svg width="11.25008mm" height="11.25008mm"
 viewBox="-5.3 -5.3 42.52000 42.52000"
 xmlns="http://www.w3.org/2000/svg" xmlns:xlink="http://www.w3.org/1999/xlink"  version="1.2" baseProfile="tiny">
<title>Qt SVG Document</title>
<desc>Generated with Qt</desc>
<defs>
</defs>
<g fill="none" stroke="black" stroke-width="1" fill-rule="evenodd" stroke-linecap="square" stroke-linejoin="bevel" >

<g fill="#3d97f1" fill-opacity="1" stroke="none" transform="matrix(1,0,0,1,0,0)"
font-family="MS Shell Dlg 2" font-size="7.8" font-weight="400" font-style="normal" 
>
<path vector-effect="non-scaling-stroke" fill-rule="evenodd" d="M37.2598,16 C37.2598,27.7415 27.7415,37.2598 16,37.2598 C4.25851,37.2598 -5.25984,27.7415 -5.25984,16 C-5.25984,4.25851 4.25851,-5.25984 16,-5.25984 C27.7415,-5.25984 37.2598,4.25851 37.2598,16 "/>
</g>

<g fill="#ffffff" fill-opacity="0.94902" stroke="none" transform="matrix(1,0,0,1,17.1339,13.1654)"
font-family="MS Shell Dlg 2" font-size="7.8" font-weight="400" font-style="normal" 
>
<path vector-effect="none" fill-rule="evenodd" d="M10.6362,4.06787 L8.72559,7.46924 L7.88574,6.98633 L9.85938,3.58496 L10.6362,4.06787 M14.0166,4.80273 L10.6362,10.3877 L8.91455,8.58203 L11.5811,4.06787 L14.0166,4.80273 M9.85938,1.48535 L5.59717,8.49805 L1.16699,5.87354 C1.48893,5.24365 1.56942,4.58228 1.40845,3.8894 C1.24748,3.19653 0.852051,2.68213 0.222168,2.34619 C-0.407715,1.96826 -1.0516,1.85978 -1.70947,2.02075 C-2.36735,2.18172 -2.88525,2.57715 -3.26318,3.20703 L-7.73535,0.540527 L-5.63574,-3.02881 C-6.11165,-3.14079 -6.57357,-3.15479 -7.02148,-3.0708 C-7.4694,-2.98682 -7.86133,-2.84684 -8.19727,-2.65088 C-9.26107,-2.07699 -9.79297,-1.01318 -9.79297,0.540527 C-9.79297,0.946452 -9.90145,1.27539 -10.1184,1.52734 C-10.3354,1.7793 -10.6118,2.05225 -10.9478,2.34619 C-11.2417,2.68213 -11.5391,3.03906 -11.8401,3.41699 C-12.141,3.79492 -12.3615,4.25684 -12.5015,4.80273 L-11.5146,4.80273 L-11.5146,6.69238 C-10.8848,6.83236 -10.4718,7.18929 -10.2759,7.76318 C-10.1219,8.16911 -10.1324,8.57853 -10.3074,8.99146 C-10.4823,9.40438 -10.7868,9.68083 -11.2207,9.8208 L-11.5146,9.8208 L-11.5146,11.5425 L-14.0552,11.5425 L-14.0552,4.80273 L-13.2783,4.80273 C-13.1383,4.13086 -12.8829,3.56047 -12.512,3.09155 C-12.141,2.62264 -11.7806,2.21322 -11.4307,1.86328 C-11.2067,1.63932 -11.0072,1.41187 -10.8323,1.18091 C-10.6573,0.949951 -10.5698,0.736491 -10.5698,0.540527 C-10.5698,-0.579264 -10.3634,-1.43311 -9.95044,-2.021 C-9.53752,-2.60889 -9.0861,-3.04281 -8.59619,-3.32275 C-7.58838,-3.84066 -6.44059,-3.97363 -5.15283,-3.72168 L-3.47314,-6.55615 L9.85938,1.48535 M-3.7251,4.80273 L-3.26318,6.20947 L-9.54102,8.33008 L-10.0029,6.98633 L-3.7251,4.80273 M-0.0717773,2.80811 C0.404134,3.10205 0.722575,3.51497 0.883545,4.04688 C1.04451,4.57878 0.985026,5.08268 0.705078,5.55859 C0.411133,6.0485 -0.0157878,6.37394 -0.575684,6.53491 C-1.13558,6.69588 -1.66048,6.62939 -2.15039,6.33545 C-2.6263,5.99951 -2.93075,5.56559 -3.06372,5.03369 C-3.1967,4.50179 -3.10221,3.99089 -2.78027,3.50098 C-2.50033,3.01107 -2.1014,2.70313 -1.5835,2.57715 C-1.06559,2.45117 -0.561686,2.52816 -0.0717773,2.80811 "/>
</g>

<g fill="#3d97f1" fill-opacity="1" stroke="none" transform="matrix(1,0,0,1,0,0)"
font-family="MS Shell Dlg 2" font-size="7.8" font-weight="400" font-style="normal" 
>
</g>
</g>
</svg>
