<?xml version="1.0" encoding="UTF-8" standalone="no"?>
<svg
   xmlns:dc="http://purl.org/dc/elements/1.1/"
   xmlns:cc="http://creativecommons.org/ns#"
   xmlns:rdf="http://www.w3.org/1999/02/22-rdf-syntax-ns#"
   xmlns:svg="http://www.w3.org/2000/svg"
   xmlns="http://www.w3.org/2000/svg"
   xmlns:sodipodi="http://sodipodi.sourceforge.net/DTD/sodipodi-0.dtd"
   xmlns:inkscape="http://www.inkscape.org/namespaces/inkscape"
   inkscape:version="1.0 (4035a4fb49, 2020-05-01)"
   sodipodi:docname="1115.svg"
   id="svg20"
   version="1.2"
   viewBox="0 0 42.519639 42.519639"
   height="14.999999mm"
   width="14.999999mm">
  <metadata
     id="metadata24">
    <rdf:RDF>
      <cc:Work
         rdf:about="">
        <dc:format>image/svg+xml</dc:format>
        <dc:type
           rdf:resource="http://purl.org/dc/dcmitype/StillImage" />
        <dc:title>Qt SVG Document</dc:title>
      </cc:Work>
    </rdf:RDF>
  </metadata>
  <sodipodi:namedview
     inkscape:current-layer="svg20"
     inkscape:window-maximized="1"
     inkscape:window-y="-9"
     inkscape:window-x="-9"
     inkscape:cy="28.346482"
     inkscape:cx="28.346482"
     inkscape:zoom="18.047943"
     fit-margin-bottom="0"
     fit-margin-right="0"
     fit-margin-left="0"
     fit-margin-top="0"
     showgrid="false"
     id="namedview22"
     inkscape:window-height="1013"
     inkscape:window-width="1920"
     inkscape:pageshadow="2"
     inkscape:pageopacity="0"
     guidetolerance="10"
     gridtolerance="10"
     objecttolerance="10"
     borderopacity="1"
     bordercolor="#666666"
     pagecolor="#ffffff" />
  <title
     id="title2">Qt SVG Document</title>
  <desc
     id="desc4">Generated with Qt</desc>
  <defs
     id="defs6" />
  <g
     transform="translate(5.25984,5.25984)"
     id="g18"
     stroke-linejoin="bevel"
     stroke-linecap="square"
     fill-rule="evenodd"
     stroke-width="1"
     stroke="#000000"
     fill="none">
    <g
       id="g10"
       font-style="normal"
       font-weight="400"
       font-size="7.8px"
       font-family="'MS Shell Dlg 2'"
       stroke="none"
       fill-opacity="1"
       fill="#3d97f1">
      <path
         id="path8"
         d="M 37.2598,16 C 37.2598,27.7415 27.7415,37.2598 16,37.2598 4.25851,37.2598 -5.25984,27.7415 -5.25984,16 -5.25984,4.25851 4.25851,-5.25984 16,-5.25984 27.7415,-5.25984 37.2598,4.25851 37.2598,16"
         fill-rule="evenodd"
         vector-effect="non-scaling-stroke" />
    </g>
    <g
       id="g14"
       font-style="normal"
       font-weight="400"
       font-size="7.8px"
       font-family="'MS Shell Dlg 2'"
       transform="translate(16,12.5984)"
       stroke="none"
       fill-opacity="0.94902"
       fill="#ffffff">
      <path
         id="path12"
         d="m 9.2085,10.9756 c 0.08398,0.098 0.16796,0.189 0.25195,0.2729 0.08398,0.084 0.12598,0.182 0.12598,0.294 0,0.2659 -0.16447,0.4829 -0.49341,0.6509 -0.32894,0.1679 -0.68937,0.2519 -1.0813,0.2519 -0.48991,0 -0.89234,-0.084 -1.20728,-0.2519 -0.31494,-0.168 -0.47241,-0.385 -0.47241,-0.6509 0,-0.196 0.15397,-0.3849 0.46192,-0.5669 V 3.79492 c 0,-0.36393 0.12247,-0.66837 0.36743,-0.91333 0.24495,-0.24495 0.5284,-0.36743 0.85034,-0.36743 0.30794,0 0.58439,0.12248 0.82934,0.36743 0.24496,0.24496 0.36744,0.5494 0.36744,0.91333 v 7.18068 m -15.01221,0.5669 c 0,0.2659 -0.16447,0.4829 -0.49341,0.6509 -0.32894,0.1679 -0.69637,0.2519 -1.10229,0.2519 -0.47592,0 -0.85734,-0.084 -1.14429,-0.2519 -0.28695,-0.168 -0.43042,-0.385 -0.43042,-0.6509 0,-0.196 0.09798,-0.3849 0.29394,-0.5669 V 3.79492 c 0,-0.36393 0.12248,-0.66837 0.36744,-0.91333 0.24495,-0.24495 0.54939,-0.36743 0.91333,-0.36743 0.32194,0 0.60538,0.12248 0.85034,0.36743 0.24495,0.24496 0.36743,0.5494 0.36743,0.91333 v 7.18068 c 0.08398,0.098 0.16797,0.189 0.25195,0.2729 0.08399,0.084 0.12598,0.182 0.12598,0.294 M 3.74951,-4.87646 0.705078,-3.32275 V -4.7085 L 3.74951,-6.3042 v 1.42774 m -5.85791,3.04443 -3.04443,1.595702 V -1.66406 l 3.04443,-1.53272 v 1.36475 M 9.2085,-8.48779 c 0.19596,0.39192 0.13997,0.69287 -0.16797,0.90283 L 6.5,-6.38818 v -1.36475 l 1.88965,-0.94482 c 0.13997,-0.09799 0.29744,-0.12248 0.47241,-0.07349 0.17497,0.04899 0.29045,0.14347 0.34644,0.28345 M -7.94531,1.2334 -12.1235,3.45898 -12.7744,2.34619 -7.94531,-0.152344 V 1.2334 m 10.75,8.41943 c 1.09179,0.92387 2.02962,1.86517 2.81347,2.82397 0.78386,0.9588 1.42074,1.8232 1.91065,2.593 0.48991,0.7699 0.82934,1.4068 1.01831,1.9107 0.18896,0.5039 0.22046,0.7558 0.09448,0.7558 H 3.18262 c 0,-0.6858 -0.09798,-1.3297 -0.29395,-1.9316 v -0.084 H 0.873047 v 0.168 c 0,0.2799 0,0.5634 0,0.8503 0,0.287 -0.027995,0.5914 -0.083984,0.9133 v 0.084 H -6.58057 c 0.20996,-0.2799 0.45842,-0.6718 0.74536,-1.1758 0.28695,-0.5039 0.5529,-1.0358 0.79786,-1.5957 0.24495,-0.5599 0.45141,-1.1337 0.61938,-1.7216 0.16797,-0.5879 0.25195,-1.1268 0.25195,-1.6167 0.028,-0.9379 0.27295,-1.73221 0.73487,-2.38309 0.46191,-0.65088 1.0498,-1.19678 1.76367,-1.6377 C -0.953613,7.16479 -0.131266,6.81486 0.799561,6.55591 1.73039,6.29696 2.68571,6.09749 3.66553,5.95752 L 5.93311,5.70557 V 6.0415 C 5.56917,6.0695 5.18424,6.12549 4.77832,6.20947 4.44238,6.26546 4.05046,6.34595 3.60254,6.45093 3.15462,6.55591 2.7277,6.67839 2.32178,6.81836 L 2.97266,7.07031 V 6.98633 C 3.40658,6.84635 3.87199,6.72388 4.3689,6.6189 4.8658,6.51392 5.38721,6.41943 5.93311,6.33545 V 6.90234 C 5.24723,7.04232 4.64535,7.22778 4.12744,7.45874 3.60954,7.6897 3.21061,7.93465 2.93066,8.1936 2.65072,8.45256 2.48625,8.71151 2.43726,8.97046 2.38826,9.22941 2.51074,9.45687 2.80469,9.65283 M 1.50293,7.07031 C 1.19499,7.1543 0.925537,7.26278 0.69458,7.39575 0.463623,7.52873 0.278158,7.6652 0.138184,7.80518 L 0.957031,8.01514 C 1.15299,7.79118 1.57992,7.56022 2.23779,7.32227 L 1.50293,7.07031 M -0.512695,8.37207 C -0.652669,8.51204 -0.764648,8.65902 -0.848633,8.81299 -0.932617,8.96696 -1.0026,9.16292 -1.05859,9.40088 h 0.902828 c 0,-0.43392 0.1259768,-0.72087 0.37793,-0.86084 L -0.512695,8.37207 m -0.461914,1.93163 c 0,0.056 0.076985,0.2415 0.230957,0.5564 0.153971,0.3149 0.258951,0.5424 0.314941,0.6824 l 1.217774,-0.126 C 0.635091,11.2485 0.495117,11.0421 0.369141,10.7971 0.243164,10.5522 0.124186,10.3597 0.012207,10.2197 l -0.0839843,-0.084 H -1.05859 l 0.083981,0.168 M 2.32178,14.377 C 2.15381,14.013 1.99284,13.6736 1.83887,13.3586 1.6849,13.0437 1.51693,12.7673 1.33496,12.5293 l -0.12598,-0.084 h -1.2807573 l 0.0839843,0.168 c 0.139974,0.3499 0.258952,0.6684 0.356934,0.9553 0.097981,0.287 0.209961,0.5984 0.335937,0.9343 L 2.32178,14.377"
         fill-rule="evenodd"
         vector-effect="none" />
    </g>
    <g
       id="g16"
       font-style="normal"
       font-weight="400"
       font-size="7.8px"
       font-family="'MS Shell Dlg 2'"
       stroke="none"
       fill-opacity="1"
       fill="#3d97f1" />
  </g>
</svg>
