<svg xmlns="http://www.w3.org/2000/svg" version="1.2" viewBox="0 0 42.52 42.52" height="56.693" width="56.693">
   <g stroke-linejoin="bevel" stroke-linecap="square" fill-rule="evenodd" stroke="none" fill="none" font-weight="400"
      font-size="7.8" font-family="'MS Shell Dlg 2'">
      <path
         d="M42.52 21.26C42.52 33 33 42.52 21.26 42.52 9.518 42.52 0 33 0 21.26 0 9.518 9.518 0 21.26 0 33 0 42.52 9.518 42.52 21.26"
         vector-effect="non-scaling-stroke" fill="#3d97f1" />
      <path
         d="M30.468 28.834c.084.098.168.189.252.273a.403.403 0 01.126.294c0 .266-.164.483-.493.65-.33.169-.69.253-1.081.253-.49 0-.893-.084-1.208-.252-.315-.168-.472-.385-.472-.651 0-.196.154-.385.462-.567v-7.18c0-.365.122-.67.367-.914.245-.245.529-.368.85-.368.308 0 .585.123.83.368s.367.55.367.913v7.18m-15.012.568c0 .266-.164.483-.493.65a2.39 2.39 0 01-1.103.253c-.475 0-.857-.084-1.144-.252-.287-.168-.43-.385-.43-.651 0-.196.098-.385.294-.567v-7.18c0-.365.122-.67.367-.914a1.24 1.24 0 01.913-.368c.322 0 .606.123.85.368.246.245.368.55.368.913v7.18c.084.099.168.19.252.274a.403.403 0 01.126.294m9.553-16.42l-3.044 1.554V13.15l3.044-1.596v1.428m-5.858 3.044l-3.044 1.596v-1.428l3.044-1.533v1.365M30.468 9.37c.196.392.14.693-.168.903l-2.54 1.197v-1.365l1.89-.945a.534.534 0 01.472-.073c.175.049.29.143.346.283m-17.153 9.722l-4.179 2.225-.65-1.113 4.829-2.498v1.386m10.75 8.42c1.091.923 2.03 1.864 2.813 2.823.784.959 1.42 1.823 1.91 2.593s.83 1.407 1.019 1.91c.189.505.22.757.094.757h-5.459c0-.686-.098-1.33-.293-1.932v-.084h-2.016v1.018c0 .287-.028.592-.084.914v.084h-7.37c.21-.28.459-.672.746-1.176.287-.504.553-1.036.797-1.596.245-.56.452-1.134.62-1.722a5.925 5.925 0 00.252-1.616c.028-.938.273-1.732.735-2.383a5.996 5.996 0 011.763-1.638c.714-.441 1.537-.79 2.467-1.05.931-.259 1.887-.458 2.866-.598l2.268-.252v.336a9.197 9.197 0 00-1.155.168c-.336.056-.728.136-1.176.241-.448.105-.874.228-1.28.368l.65.252v-.084c.434-.14.9-.263 1.397-.368.497-.105 1.018-.2 1.564-.283v.567a8.725 8.725 0 00-1.806.556c-.518.23-.917.476-1.197.735s-.444.518-.493.777c-.049.259.074.486.368.682m-1.302-2.582a3.419 3.419 0 00-.809.325c-.23.133-.416.27-.556.41l.819.21c.196-.225.623-.456 1.28-.693l-.734-.252m-2.016 1.301a1.94 1.94 0 00-.336.441c-.084.154-.154.35-.21.588h.903c0-.434.126-.72.378-.86l-.735-.169m-.462 1.932c0 .056.077.241.231.556.154.315.26.543.315.683l1.218-.126a2.818 2.818 0 01-.42-.62 3.52 3.52 0 00-.357-.577l-.084-.084h-.987l.084.168m3.297 4.073a50.69 50.69 0 00-.483-1.018 4.92 4.92 0 00-.504-.83l-.126-.083h-1.28l.083.168a20 20 0 01.357.955c.098.287.21.598.336.934l1.617-.126"
         fill-opacity=".949" fill="#fff" />
   </g>
</svg>