<?xml version="1.0" encoding="UTF-8" standalone="no"?>
<svg width="11.25008mm" height="11.25008mm"
 viewBox="-5.3 -5.3 42.52000 42.52000"
 xmlns="http://www.w3.org/2000/svg" xmlns:xlink="http://www.w3.org/1999/xlink"  version="1.2" baseProfile="tiny">
<title>Qt SVG Document</title>
<desc>Generated with Qt</desc>
<defs>
</defs>
<g fill="none" stroke="black" stroke-width="1" fill-rule="evenodd" stroke-linecap="square" stroke-linejoin="bevel" >

<g fill="#3d97f1" fill-opacity="1" stroke="none" transform="matrix(1,0,0,1,0,0)"
font-family="MS Shell Dlg 2" font-size="7.8" font-weight="400" font-style="normal" 
>
<path vector-effect="non-scaling-stroke" fill-rule="evenodd" d="M37.2598,16 C37.2598,27.7415 27.7415,37.2598 16,37.2598 C4.25851,37.2598 -5.25984,27.7415 -5.25984,16 C-5.25984,4.25851 4.25851,-5.25984 16,-5.25984 C27.7415,-5.25984 37.2598,4.25851 37.2598,16 "/>
</g>

<g fill="#ffffff" fill-opacity="0.94902" stroke="none" transform="matrix(1,0,0,1,16,12.5984)"
font-family="MS Shell Dlg 2" font-size="7.8" font-weight="400" font-style="normal" 
>
<path vector-effect="none" fill-rule="evenodd" d="M9.2085,10.9756 C9.29248,11.0736 9.37646,11.1646 9.46045,11.2485 C9.54443,11.3325 9.58643,11.4305 9.58643,11.5425 C9.58643,11.8084 9.42196,12.0254 9.09302,12.1934 C8.76408,12.3613 8.40365,12.4453 8.01172,12.4453 C7.52181,12.4453 7.11938,12.3613 6.80444,12.1934 C6.4895,12.0254 6.33203,11.8084 6.33203,11.5425 C6.33203,11.3465 6.486,11.1576 6.79395,10.9756 L6.79395,3.79492 C6.79395,3.43099 6.91642,3.12655 7.16138,2.88159 C7.40633,2.63664 7.68978,2.51416 8.01172,2.51416 C8.31966,2.51416 8.59611,2.63664 8.84106,2.88159 C9.08602,3.12655 9.2085,3.43099 9.2085,3.79492 L9.2085,10.9756 M-5.80371,11.5425 C-5.80371,11.8084 -5.96818,12.0254 -6.29712,12.1934 C-6.62606,12.3613 -6.99349,12.4453 -7.39941,12.4453 C-7.87533,12.4453 -8.25675,12.3613 -8.5437,12.1934 C-8.83065,12.0254 -8.97412,11.8084 -8.97412,11.5425 C-8.97412,11.3465 -8.87614,11.1576 -8.68018,10.9756 L-8.68018,3.79492 C-8.68018,3.43099 -8.5577,3.12655 -8.31274,2.88159 C-8.06779,2.63664 -7.76335,2.51416 -7.39941,2.51416 C-7.07747,2.51416 -6.79403,2.63664 -6.54907,2.88159 C-6.30412,3.12655 -6.18164,3.43099 -6.18164,3.79492 L-6.18164,10.9756 C-6.09766,11.0736 -6.01367,11.1646 -5.92969,11.2485 C-5.8457,11.3325 -5.80371,11.4305 -5.80371,11.5425 M3.74951,-4.87646 L0.705078,-3.32275 L0.705078,-4.7085 L3.74951,-6.3042 L3.74951,-4.87646 M-2.1084,-1.83203 L-5.15283,-0.236328 L-5.15283,-1.66406 L-2.1084,-3.19678 L-2.1084,-1.83203 M9.2085,-8.48779 C9.40446,-8.09587 9.34847,-7.79492 9.04053,-7.58496 L6.5,-6.38818 L6.5,-7.75293 L8.38965,-8.69775 C8.52962,-8.79574 8.68709,-8.82023 8.86206,-8.77124 C9.03703,-8.72225 9.15251,-8.62777 9.2085,-8.48779 M-7.94531,1.2334 L-12.1235,3.45898 L-12.7744,2.34619 L-7.94531,-0.152344 L-7.94531,1.2334 M2.80469,9.65283 C3.89648,10.5767 4.83431,11.518 5.61816,12.4768 C6.40202,13.4356 7.0389,14.3 7.52881,15.0698 C8.01872,15.8397 8.35815,16.4766 8.54712,16.9805 C8.73608,17.4844 8.76758,17.7363 8.6416,17.7363 L3.18262,17.7363 C3.18262,17.0505 3.08464,16.4066 2.88867,15.8047 L2.88867,15.7207 L0.873047,15.7207 L0.873047,15.8887 C0.873047,16.1686 0.873047,16.4521 0.873047,16.739 C0.873047,17.026 0.845052,17.3304 0.789063,17.6523 L0.789063,17.7363 L-6.58057,17.7363 C-6.37061,17.4564 -6.12215,17.0645 -5.83521,16.5605 C-5.54826,16.0566 -5.28231,15.5247 -5.03735,14.9648 C-4.7924,14.4049 -4.58594,13.8311 -4.41797,13.2432 C-4.25,12.6553 -4.16602,12.1164 -4.16602,11.6265 C-4.13802,10.6886 -3.89307,9.89429 -3.43115,9.24341 C-2.96924,8.59253 -2.38135,8.04663 -1.66748,7.60571 C-0.953613,7.16479 -0.131266,6.81486 0.799561,6.55591 C1.73039,6.29696 2.68571,6.09749 3.66553,5.95752 L5.93311,5.70557 L5.93311,6.0415 C5.56917,6.0695 5.18424,6.12549 4.77832,6.20947 C4.44238,6.26546 4.05046,6.34595 3.60254,6.45093 C3.15462,6.55591 2.7277,6.67839 2.32178,6.81836 L2.97266,7.07031 L2.97266,6.98633 C3.40658,6.84635 3.87199,6.72388 4.3689,6.6189 C4.8658,6.51392 5.38721,6.41943 5.93311,6.33545 L5.93311,6.90234 C5.24723,7.04232 4.64535,7.22778 4.12744,7.45874 C3.60954,7.6897 3.21061,7.93465 2.93066,8.1936 C2.65072,8.45256 2.48625,8.71151 2.43726,8.97046 C2.38826,9.22941 2.51074,9.45687 2.80469,9.65283 M1.50293,7.07031 C1.19499,7.1543 0.925537,7.26278 0.69458,7.39575 C0.463623,7.52873 0.278158,7.6652 0.138184,7.80518 L0.957031,8.01514 C1.15299,7.79118 1.57992,7.56022 2.23779,7.32227 L1.50293,7.07031 M-0.512695,8.37207 C-0.652669,8.51204 -0.764648,8.65902 -0.848633,8.81299 C-0.932617,8.96696 -1.0026,9.16292 -1.05859,9.40088 L-0.155762,9.40088 C-0.155762,8.96696 -0.0297852,8.68001 0.222168,8.54004 L-0.512695,8.37207 M-0.974609,10.3037 C-0.974609,10.3597 -0.897624,10.5452 -0.743652,10.8601 C-0.589681,11.175 -0.484701,11.4025 -0.428711,11.5425 L0.789063,11.4165 C0.635091,11.2485 0.495117,11.0421 0.369141,10.7971 C0.243164,10.5522 0.124186,10.3597 0.012207,10.2197 L-0.0717773,10.1357 L-1.05859,10.1357 L-0.974609,10.3037 M2.32178,14.377 C2.15381,14.013 1.99284,13.6736 1.83887,13.3586 C1.6849,13.0437 1.51693,12.7673 1.33496,12.5293 L1.20898,12.4453 L-0.0717773,12.4453 L0.012207,12.6133 C0.152181,12.9632 0.271159,13.2817 0.369141,13.5686 C0.467122,13.8556 0.579102,14.167 0.705078,14.5029 L2.32178,14.377"/>
</g>

<g fill="#3d97f1" fill-opacity="1" stroke="none" transform="matrix(1,0,0,1,0,0)"
font-family="MS Shell Dlg 2" font-size="7.8" font-weight="400" font-style="normal" 
>
</g>
</g>
</svg>
