<svg xmlns="http://www.w3.org/2000/svg" version="1.2" viewBox="0 0 42.52 42.52" height="56.693" width="56.693">
   <g stroke-linejoin="bevel" stroke-linecap="square" fill-rule="evenodd" stroke="none" fill="none" font-weight="400"
      font-size="7.8" font-family="'MS Shell Dlg 2'">
      <path
         d="M42.52 21.26C42.52 33 33 42.52 21.26 42.52 9.518 42.52 0 33 0 21.26 0 9.518 9.518 0 21.26 0 33 0 42.52 9.518 42.52 21.26"
         vector-effect="non-scaling-stroke" fill="#3d97f1" />
      <path
         d="M21.566 27.448c.952.77 1.764 1.463 2.436 2.079.671.616 1.252 1.19 1.742 1.721.49.532.9 1.047 1.228 1.544.33.497.62 1.004.872 1.522H14.427c.112-.112.326-.319.64-.62.316-.3.63-.65.946-1.05.314-.398.573-.829.776-1.29.203-.462.249-.903.137-1.323a6.975 6.975 0 00-.494-1.26 8.197 8.197 0 01-.514-1.27 3.046 3.046 0 01-.126-1.218c.042-.399.273-.787.693-1.165a7.445 7.445 0 011.638-.998 13.39 13.39 0 011.91-.703 26.588 26.588 0 011.827-.451 32.305 32.305 0 011.386-.263c.196.056.399.12.609.189.168.056.353.119.556.189.203.07.402.133.598.189-.084.028-.29.105-.619.23-.329.127-.696.291-1.102.494-.406.203-.809.434-1.208.693a3.98 3.98 0 00-.944.82c-.231.286-.333.594-.305.923.028.329.273.668.735 1.018m12.43-7.79h-.126c.196.085.35.183.462.295a.7.7 0 01.483.189v3.779c-1.61-1.47-3.563-2.674-5.858-3.611-2.352-.924-4.843-1.386-7.475-1.386-1.456 0-2.831.13-4.126.388a23.07 23.07 0 00-3.748 1.082c-2.407 1.035-4.38 2.365-5.92 3.989V20.31l.399-.158a.9.9 0 00.314-.2 6.55 6.55 0 01.357-.146c.112-.042.238-.091.378-.147v-3.612c-.14.112-.266.19-.378.231-.112.042-.23.091-.357.147-.14.056-.259.102-.356.137-.098.035-.217.08-.357.136v-1.092c.224-.112.461-.21.713-.294.126-.056.245-.098.357-.126a2.98 2.98 0 00.378-.126v-.21c0-.181.105-.272.315-.272.168 0 .252.09.252.273.434-.154.858-.294 1.27-.42.413-.126.865-.26 1.355-.4.462-.083.941-.178 1.438-.283.497-.105 1.004-.2 1.522-.283v-.084c0-.084.007-.154.021-.21.014-.056.091-.084.231-.084.126 0 .19.098.19.294a46.5 46.5 0 012.697-.347c.917-.09 1.88-.136 2.887-.136v-.084c0-.112.084-.168.252-.168.168 0 .252.056.252.168v.084c1.008.07 1.963.133 2.866.189.903.056 1.816.154 2.74.294 0-.084.007-.154.02-.21.015-.056.092-.084.232-.084.112 0 .168.098.168.294v.084c1.008.168 1.966.385 2.876.65.49.085.96.197 1.407.337.448.14.882.3 1.302.483v-.084c0-.182.09-.273.273-.273.196 0 .294.09.294.273v.21c.112.111.224.167.336.167a.438.438 0 00.241.084c.077 0 .158.028.242.084v1.113a.438.438 0 00-.242-.084.438.438 0 01-.241-.084.372.372 0 00-.168-.105.372.372 0 01-.168-.105v3.528m-19.4-5.081c-.449.084-.823.164-1.124.241-.301.077-.682.186-1.144.325-.49.084-.85.161-1.082.231-.23.07-.563.21-.997.42v3.528c.434-.21.78-.357 1.04-.441.258-.084.633-.196 1.123-.336.462-.154.829-.26 1.102-.315.273-.056.633-.14 1.081-.252v-3.401m6.236-.63c-.966.056-1.774.119-2.425.189-.65.07-1.417.16-2.299.273v3.401c.462-.084.878-.161 1.25-.231.37-.07.734-.13 1.091-.178.357-.05.72-.088 1.092-.116.37-.028.801-.042 1.291-.042v-3.296m6.026.336a8.735 8.735 0 00-1.081-.084c-.287 0-.676-.028-1.166-.084a9.45 9.45 0 00-1.144-.084c-.315 0-.731-.028-1.25-.084v3.296c.49 0 .886.007 1.187.021.301.014.704.084 1.207.21.49.056.865.084 1.124.084.259 0 .633.028 1.123.084v-3.36m6.11 1.512a39.87 39.87 0 00-2.31-.693 36.865 36.865 0 00-2.414-.524v3.401c.476.112.896.206 1.26.283.363.077.77.214 1.217.41.49.14.865.245 1.124.315.259.07.633.21 1.123.42v-3.612"
         fill-opacity=".949" fill="#fff" />
   </g>
</svg>