<?xml version="1.0" encoding="UTF-8" standalone="no"?>
<svg
   xmlns:dc="http://purl.org/dc/elements/1.1/"
   xmlns:cc="http://creativecommons.org/ns#"
   xmlns:rdf="http://www.w3.org/1999/02/22-rdf-syntax-ns#"
   xmlns:svg="http://www.w3.org/2000/svg"
   xmlns="http://www.w3.org/2000/svg"
   xmlns:sodipodi="http://sodipodi.sourceforge.net/DTD/sodipodi-0.dtd"
   xmlns:inkscape="http://www.inkscape.org/namespaces/inkscape"
   inkscape:version="1.0 (4035a4fb49, 2020-05-01)"
   sodipodi:docname="1116.svg"
   id="svg20"
   version="1.2"
   viewBox="0 0 42.519639 42.519639"
   height="14.999999mm"
   width="14.999999mm">
  <metadata
     id="metadata24">
    <rdf:RDF>
      <cc:Work
         rdf:about="">
        <dc:format>image/svg+xml</dc:format>
        <dc:type
           rdf:resource="http://purl.org/dc/dcmitype/StillImage" />
        <dc:title>Qt SVG Document</dc:title>
      </cc:Work>
    </rdf:RDF>
  </metadata>
  <sodipodi:namedview
     inkscape:current-layer="svg20"
     inkscape:window-maximized="1"
     inkscape:window-y="-9"
     inkscape:window-x="-9"
     inkscape:cy="28.346482"
     inkscape:cx="28.346482"
     inkscape:zoom="18.047943"
     fit-margin-bottom="0"
     fit-margin-right="0"
     fit-margin-left="0"
     fit-margin-top="0"
     showgrid="false"
     id="namedview22"
     inkscape:window-height="1013"
     inkscape:window-width="1920"
     inkscape:pageshadow="2"
     inkscape:pageopacity="0"
     guidetolerance="10"
     gridtolerance="10"
     objecttolerance="10"
     borderopacity="1"
     bordercolor="#666666"
     pagecolor="#ffffff" />
  <title
     id="title2">Qt SVG Document</title>
  <desc
     id="desc4">Generated with Qt</desc>
  <defs
     id="defs6" />
  <g
     transform="translate(5.25984,5.25984)"
     id="g18"
     stroke-linejoin="bevel"
     stroke-linecap="square"
     fill-rule="evenodd"
     stroke-width="1"
     stroke="#000000"
     fill="none">
    <g
       id="g10"
       font-style="normal"
       font-weight="400"
       font-size="7.8px"
       font-family="'MS Shell Dlg 2'"
       stroke="none"
       fill-opacity="1"
       fill="#3d97f1">
      <path
         id="path8"
         d="M 37.2598,16 C 37.2598,27.7415 27.7415,37.2598 16,37.2598 4.25851,37.2598 -5.25984,27.7415 -5.25984,16 -5.25984,4.25851 4.25851,-5.25984 16,-5.25984 27.7415,-5.25984 37.2598,4.25851 37.2598,16"
         fill-rule="evenodd"
         vector-effect="non-scaling-stroke" />
    </g>
    <g
       id="g14"
       font-style="normal"
       font-weight="400"
       font-size="7.8px"
       font-family="'MS Shell Dlg 2'"
       transform="translate(16,13.7323)"
       stroke="none"
       fill-opacity="0.94902"
       fill="#ffffff">
      <path
         id="path12"
         d="M 0.306152,8.45605 C 1.25798,9.22591 2.06982,9.91878 2.7417,10.5347 c 0.67187,0.6159 1.25277,1.1897 1.74268,1.7216 0.4899,0.5319 0.89933,1.0464 1.22827,1.5433 0.32894,0.4969 0.61938,1.0043 0.87133,1.5222 h -13.4165 c 0.11198,-0.112 0.32544,-0.3185 0.64038,-0.6194 0.31494,-0.301 0.62988,-0.6509 0.94483,-1.0498 0.31494,-0.3989 0.57389,-0.8294 0.77685,-1.2913 0.20296,-0.4619 0.24845,-0.9028 0.13648,-1.3227 C -4.44596,10.6326 -4.61043,10.2127 -4.82739,9.77881 -5.04435,9.34489 -5.21582,8.92147 -5.3418,8.50854 -5.46777,8.09562 -5.50977,7.6897 -5.46777,7.29077 -5.42578,6.89185 -5.19482,6.50342 -4.7749,6.12549 -4.31299,5.74756 -3.76709,5.41512 -3.13721,5.12817 -2.50732,4.84123 -1.87044,4.60677 -1.22656,4.4248 -0.582682,4.24284 0.0262044,4.09237 0.600098,3.97339 1.17399,3.85441 1.6359,3.76693 1.98584,3.71094 2.1818,3.76693 2.38477,3.82992 2.59473,3.8999 2.7627,3.95589 2.94816,4.01888 3.15112,4.08887 3.35409,4.15885 3.55355,4.22184 3.74951,4.27783 3.66553,4.30583 3.45907,4.38281 3.13013,4.50879 2.80119,4.63477 2.43376,4.79924 2.02783,5.0022 1.62191,5.20516 1.21948,5.43612 0.820557,5.69507 0.421631,5.95402 0.106689,6.22697 -0.124268,6.51392 -0.355225,6.80086 -0.456706,7.10881 -0.428711,7.43774 -0.400716,7.76668 -0.155762,8.10612 0.306152,8.45605 M 12.7358,0.666504 h -0.1259 c 0.1959,0.083984 0.3499,0.181966 0.4619,0.293945 0.084,0 0.1644,0.013998 0.2414,0.041991 0.077,0.028 0.1575,0.07699 0.2415,0.14697 v 3.7793 C 11.945,3.45898 9.99235,2.25521 7.69678,1.31738 5.34521,0.393555 2.85368,-0.0683594 0.222168,-0.0683594 c -1.455728,0 -2.830978,0.1294759 -4.125728,0.3884274 -1.29476,0.258952 -2.54403,0.619385 -3.74781,1.081302 -2.40753,1.0358 -4.38123,2.36556 -5.92093,3.98926 V 1.31738 c 0.14,-0.05599 0.273,-0.10848 0.399,-0.15747 0.1259,-0.04899 0.2309,-0.11548 0.3149,-0.199461 0.126,-0.055989 0.245,-0.10498 0.3569,-0.146972 0.112,-0.041993 0.238,-0.090984 0.378,-0.146973 V -2.94482 c -0.14,0.11197 -0.266,0.18896 -0.378,0.23095 -0.1119,0.04199 -0.2309,0.09099 -0.3569,0.14698 -0.14,0.05599 -0.259,0.10148 -0.3569,0.13647 -0.098,0.03499 -0.217,0.08049 -0.357,0.13647 v -1.09179 c 0.224,-0.11198 0.4619,-0.20996 0.7139,-0.29395 0.126,-0.05599 0.245,-0.09798 0.3569,-0.12597 0.112,-0.028 0.238,-0.06999 0.378,-0.12598 V -4.1416 c 0,-0.18197 0.1049,-0.27295 0.3149,-0.27295 0.168,0 0.252,0.09098 0.252,0.27295 0.4339,-0.15397 0.8573,-0.29395 1.2702,-0.41992 0.41295,-0.12598 0.86436,-0.25896 1.35427,-0.39893 0.46192,-0.08398 0.94133,-0.17847 1.43823,-0.28345 0.49691,-0.10498 1.00432,-0.19946 1.52222,-0.28344 v -0.08399 c 0,-0.08398 0.007,-0.15397 0.021,-0.20996 0.01399,-0.05599 0.09098,-0.08398 0.23095,-0.08398 0.12598,0 0.18897,0.09798 0.18897,0.29394 0.88183,-0.13997 1.78117,-0.25545 2.698,-0.34643 0.91683,-0.09099 1.879147,-0.13648 2.8869592,-0.13648 v -0.08398 c 0,-0.11198 0.0839848,-0.16797 0.2519528,-0.16797 0.167969,0 0.251953,0.05599 0.251953,0.16797 v 0.08398 c 1.007815,0.06999 1.963135,0.13298 2.865965,0.18897 0.90283,0.05599 1.81616,0.15397 2.73999,0.29394 0,-0.08398 0.007,-0.15397 0.021,-0.20996 0.014,-0.05599 0.09098,-0.08398 0.23096,-0.08398 0.11197,0 0.16796,0.09798 0.16796,0.29394 v 0.08399 c 1.00782,0.16796 1.96664,0.38492 2.87647,0.65088 0.48991,0.08398 0.95885,0.19596 1.40675,0.33593 0.4479,0.13998 0.8818,0.30095 1.3017,0.48291 V -4.1416 c 0,-0.18197 0.091,-0.27295 0.273,-0.27295 0.196,0 0.2939,0.09098 0.2939,0.27295 v 0.20996 c 0.112,0.11198 0.224,0.16797 0.336,0.16797 0.084,0.05599 0.1644,0.08398 0.2414,0.08398 0.077,0 0.1575,0.028 0.2415,0.08399 v 1.11279 c -0.084,-0.05599 -0.1645,-0.08398 -0.2415,-0.08398 -0.077,0 -0.1574,-0.028 -0.2414,-0.08399 -0.056,-0.05599 -0.112,-0.09098 -0.168,-0.10498 -0.056,-0.014 -0.112,-0.04899 -0.168,-0.10498 V 0.666504 M -6.66455,-4.41455 c -0.44792,0.08398 -0.82235,0.16447 -1.12329,0.24145 -0.30095,0.07699 -0.68237,0.18547 -1.14429,0.32544 -0.48991,0.08399 -0.85034,0.16097 -1.08127,0.23096 -0.231,0.06999 -0.5634,0.20996 -0.9973,0.41992 v 3.527346 c 0.4339,-0.209961 0.7803,-0.3569332 1.03926,-0.440918 0.25896,-0.083984 0.63339,-0.195963 1.1233,-0.335937 0.46191,-0.153971 0.82934,-0.258952 1.10229,-0.314941 0.27295,-0.05599 0.63338,-0.139974 1.0813,-0.25195 v -3.40137 m 6.235839,-0.62988 c -0.965819,0.05599 -1.774169,0.11897 -2.425049,0.18896 -0.65088,0.06999 -1.41724,0.16097 -2.29907,0.27295 v 3.40137 c 0.46191,-0.08399 0.87833,-0.16097 1.24927,-0.23096 0.37093,-0.06999 0.73486,-0.12948 1.09179,-0.17847 0.35694,-0.04899 0.72087,-0.08748 1.0918,-0.11547 0.37093,-0.028 0.80135,-0.042 1.291259,-0.042 V -5.04443 M 5.59717,-4.7085 c -0.43392,-0.05599 -0.79435,-0.08398 -1.0813,-0.08398 -0.28695,0 -0.67538,-0.028 -1.16528,-0.08398 -0.44792,-0.05599 -0.82935,-0.08399 -1.14429,-0.08399 -0.31494,0 -0.73137,-0.02799 -1.249269,-0.08398 v 3.29638 c 0.489909,0 0.885339,0.007 1.186279,0.021 0.30094,0.014 0.70337,0.08398 1.20728,0.20996 0.4899,0.05599 0.86434,0.08398 1.12329,0.08398 0.25895,0 0.63338,0.028 1.12329,0.08399 V -4.7085 M 11.707,-3.19678 C 10.8112,-3.49072 10.0413,-3.72168 9.39746,-3.88965 8.75358,-4.05762 7.94873,-4.23258 6.98291,-4.41455 v 3.40137 c 0.47591,0.111976 0.89583,0.206458 1.25977,0.283444 0.36393,0.076985 0.76985,0.21346 1.21777,0.409423 0.48991,0.139974 0.86435,0.2449549 1.12325,0.31494191 C 10.8427,0.0646159 11.2171,0.20459 11.707,0.414551 V -3.19678"
         fill-rule="evenodd"
         vector-effect="none" />
    </g>
    <g
       id="g16"
       font-style="normal"
       font-weight="400"
       font-size="7.8px"
       font-family="'MS Shell Dlg 2'"
       stroke="none"
       fill-opacity="1"
       fill="#3d97f1" />
  </g>
</svg>
