<svg xmlns="http://www.w3.org/2000/svg" version="1.2" viewBox="0 0 42.52 42.52" height="56.693" width="56.693">
   <g stroke-linejoin="bevel" stroke-linecap="square" fill-rule="evenodd" stroke="none" fill="none" font-weight="400"
      font-size="7.8" font-family="'MS Shell Dlg 2'">
      <path
         d="M42.52 21.26C42.52 33 33 42.52 21.26 42.52 9.518 42.52 0 33 0 21.26 0 9.518 9.518 0 21.26 0 33 0 42.52 9.518 42.52 21.26"
         vector-effect="non-scaling-stroke" fill="#3d97f1" />
      <path
         d="M34.164 15.564v1.281H8.4v-1.28h25.763M19.424 26.65l.168 2.373h-4.304l.252-2.373h3.884m7.685 0l.273 2.373h-4.304l.168-2.373h3.863m4.01 0h3.045v2.373h-3.318l.273-2.373m-19.652 0l.252 2.373H8.4V26.65h3.066M8.4 18h25.763v8.23h-2.709v-2.54c0-.49-.227-.893-.682-1.207-.455-.315-1.019-.473-1.69-.473-.658 0-1.208.158-1.649.473-.44.314-.661.717-.661 1.207v2.54h-3.191v-2.54c0-.49-.22-.893-.662-1.207-.44-.315-.976-.473-1.606-.473-.658 0-1.21.158-1.659.473-.448.314-.672.717-.672 1.207v2.54h-3.17v-2.54c0-.49-.23-.893-.693-1.207-.462-.315-1.022-.473-1.68-.473-.657 0-1.21.158-1.658.473-.448.314-.672.717-.672 1.207v2.54H8.4V18"
         fill-opacity=".949" fill="#fff" />
   </g>
</svg>