<?xml version="1.0" encoding="UTF-8" standalone="no"?>
<svg width="11.25008mm" height="11.25008mm"
 viewBox="-5.3 -5.3 42.52000 42.52000"
 xmlns="http://www.w3.org/2000/svg" xmlns:xlink="http://www.w3.org/1999/xlink"  version="1.2" baseProfile="tiny">
<title>Qt SVG Document</title>
<desc>Generated with Qt</desc>
<defs>
</defs>
<g fill="none" stroke="black" stroke-width="1" fill-rule="evenodd" stroke-linecap="square" stroke-linejoin="bevel" >

<g fill="#3d97f1" fill-opacity="1" stroke="none" transform="matrix(1,0,0,1,0,0)"
font-family="MS Shell Dlg 2" font-size="7.8" font-weight="400" font-style="normal" 
>
<path vector-effect="non-scaling-stroke" fill-rule="evenodd" d="M37.2598,16 C37.2598,27.7415 27.7415,37.2598 16,37.2598 C4.25851,37.2598 -5.25984,27.7415 -5.25984,16 C-5.25984,4.25851 4.25851,-5.25984 16,-5.25984 C27.7415,-5.25984 37.2598,4.25851 37.2598,16 "/>
</g>

<g fill="#ffffff" fill-opacity="0.94902" stroke="none" transform="matrix(1,0,0,1,16,12.9386)"
font-family="MS Shell Dlg 2" font-size="7.8" font-weight="400" font-style="normal" 
>
<path vector-effect="none" fill-rule="evenodd" d="M0.180176,-6.22021 C1.32796,-6.22021 2.43026,-6.00326 3.48706,-5.56934 C4.54386,-5.13542 5.47469,-4.54053 6.27954,-3.78467 C7.08439,-3.02881 7.73877,-2.13298 8.24268,-1.09717 C8.74658,-0.0613607 9.04053,1.05843 9.12451,2.26221 L9.12451,13.999 L3.30859,7.32227 L3.30859,2.09424 C3.30859,1.2264 2.99365,0.477539 2.36377,-0.152344 C1.73389,-0.782227 0.96403,-1.09717 0.0541992,-1.09717 C-0.813639,-1.09717 -1.5555,-0.782227 -2.17139,-0.152344 C-2.78727,0.477539 -3.09521,1.2264 -3.09521,2.09424 L-3.09521,7.32227 L-8.89014,14.083 L-8.89014,2.72412 L-8.89014,2.26221 C-8.80615,1.05843 -8.51221,-0.0613607 -8.0083,-1.09717 C-7.50439,-2.13298 -6.84652,-3.02881 -6.03467,-3.78467 C-5.22282,-4.54053 -4.28499,-5.13542 -3.22119,-5.56934 C-2.15739,-6.00326 -1.0236,-6.22021 0.180176,-6.22021 M0.180176,-9.26465 C1.84587,-9.26465 3.41007,-8.94971 4.8728,-8.31982 C6.33553,-7.68994 7.60229,-6.8221 8.6731,-5.71631 C9.7439,-4.61051 10.5942,-3.32625 11.2241,-1.86353 C11.854,-0.400798 12.1689,1.15641 12.1689,2.80811 L12.1689,14.9438 L10.5522,14.9438 L10.5522,1.48535 C10.3703,0.169596 9.97835,-1.04818 9.37646,-2.16797 C8.77458,-3.28776 8.00822,-4.25708 7.07739,-5.07593 C6.14657,-5.89478 5.09326,-6.53166 3.91748,-6.98657 C2.7417,-7.44149 1.49593,-7.66895 0.180176,-7.66895 C-1.16357,-7.66895 -2.43734,-7.44149 -3.64111,-6.98657 C-4.84489,-6.53166 -5.91219,-5.89478 -6.84302,-5.07593 C-7.77384,-4.25708 -8.5402,-3.28776 -9.14209,-2.16797 C-9.74398,-1.04818 -10.1359,0.169596 -10.3179,1.48535 L-10.3179,14.9438 L-11.9556,14.9438 L-11.9556,2.80811 C-11.9556,1.15641 -11.6371,-0.400798 -11.0002,-1.86353 C-10.3634,-3.32625 -9.49552,-4.61051 -8.39673,-5.71631 C-7.29793,-6.8221 -6.01717,-7.68994 -4.55444,-8.31982 C-3.09172,-8.94971 -1.51351,-9.26465 0.180176,-9.26465 M-0.197754,9.98877 L0.516113,9.98877 L0.64209,10.9336 L-0.344727,10.9336 L-0.197754,9.98877 M0.831055,14.8599 L1.125,16.7495 L-0.806641,16.7495 L-0.512695,14.8599 L0.831055,14.8599 M-0.11377,8.26709 L0.348145,8.26709 L0.432129,9.00195 L-0.11377,9.00195 L-0.11377,8.26709 M0.348145,7.80518 L-0.0297852,7.80518 L-0.0297852,7.32227 L0.348145,7.32227 L0.348145,7.80518 M-0.428711,12.1934 L0.64209,12.1934 L0.831055,13.5161 L-0.512695,13.5161 L-0.428711,12.1934"/>
</g>

<g fill="#3d97f1" fill-opacity="1" stroke="none" transform="matrix(1,0,0,1,0,0)"
font-family="MS Shell Dlg 2" font-size="7.8" font-weight="400" font-style="normal" 
>
</g>
</g>
</svg>
