<svg xmlns="http://www.w3.org/2000/svg" version="1.2" viewBox="0 0 42.52 42.52" height="56.693" width="56.693">
   <g stroke-linejoin="bevel" stroke-linecap="square" fill-rule="evenodd" stroke="none" fill="none" font-weight="400"
      font-size="7.8" font-family="'MS Shell Dlg 2'">
      <path
         d="M42.52 21.26C42.52 33 33 42.52 21.26 42.52 9.518 42.52 0 33 0 21.26 0 9.518 9.518 0 21.26 0 33 0 42.52 9.518 42.52 21.26"
         vector-effect="non-scaling-stroke" fill="#3d97f1" />
      <path
         d="M21.44 11.978c1.148 0 2.25.217 3.307.651a9.072 9.072 0 012.792 1.785 9.122 9.122 0 011.964 2.687 9.042 9.042 0 01.881 3.36v11.736l-5.816-6.676v-5.228c0-.868-.315-1.617-.944-2.247-.63-.63-1.4-.945-2.31-.945-.868 0-1.61.315-2.226.945-.615.63-.923 1.379-.923 2.247v5.228l-5.795 6.76v-11.82a9.042 9.042 0 01.882-3.36 9.03 9.03 0 011.973-2.687 9.171 9.171 0 012.814-1.785 8.918 8.918 0 013.401-.65m0-3.045c1.666 0 3.23.315 4.693.945 1.462.63 2.73 1.497 3.8 2.603a12.71 12.71 0 012.55 3.853c.63 1.463.946 3.02.946 4.672v12.135h-1.617V19.684a10.762 10.762 0 00-1.176-3.654 10.384 10.384 0 00-5.459-4.818 10.266 10.266 0 00-3.737-.683c-1.344 0-2.617.228-3.821.683a10.328 10.328 0 00-3.202 1.91 10.384 10.384 0 00-2.3 2.908 10.764 10.764 0 00-1.175 3.654v13.458H9.304V21.007c0-1.652.319-3.21.956-4.672a12.48 12.48 0 012.603-3.853 12.117 12.117 0 013.842-2.603c1.463-.63 3.041-.945 4.735-.945m-.378 19.253h.714l.126.945h-.987l.147-.945m1.029 4.871l.294 1.89h-1.932l.294-1.89h1.344m-.945-6.592h.462l.084.734h-.546v-.734m.462-.462h-.378v-.483h.378v.483m-.777 4.388h1.07l.19 1.323h-1.344l.084-1.323"
         fill-opacity=".949" fill="#fff" />
   </g>
</svg>