<?xml version="1.0" encoding="UTF-8" standalone="no"?>
<svg
   xmlns:dc="http://purl.org/dc/elements/1.1/"
   xmlns:cc="http://creativecommons.org/ns#"
   xmlns:rdf="http://www.w3.org/1999/02/22-rdf-syntax-ns#"
   xmlns:svg="http://www.w3.org/2000/svg"
   xmlns="http://www.w3.org/2000/svg"
   xmlns:sodipodi="http://sodipodi.sourceforge.net/DTD/sodipodi-0.dtd"
   xmlns:inkscape="http://www.inkscape.org/namespaces/inkscape"
   inkscape:version="1.0 (4035a4fb49, 2020-05-01)"
   sodipodi:docname="1119.svg"
   id="svg20"
   version="1.2"
   viewBox="0 0 42.519639 42.519639"
   height="14.999999mm"
   width="14.999999mm">
  <metadata
     id="metadata24">
    <rdf:RDF>
      <cc:Work
         rdf:about="">
        <dc:format>image/svg+xml</dc:format>
        <dc:type
           rdf:resource="http://purl.org/dc/dcmitype/StillImage" />
        <dc:title>Qt SVG Document</dc:title>
      </cc:Work>
    </rdf:RDF>
  </metadata>
  <sodipodi:namedview
     inkscape:current-layer="svg20"
     inkscape:window-maximized="1"
     inkscape:window-y="-9"
     inkscape:window-x="-9"
     inkscape:cy="28.346482"
     inkscape:cx="28.346482"
     inkscape:zoom="18.047943"
     fit-margin-bottom="0"
     fit-margin-right="0"
     fit-margin-left="0"
     fit-margin-top="0"
     showgrid="false"
     id="namedview22"
     inkscape:window-height="1013"
     inkscape:window-width="1920"
     inkscape:pageshadow="2"
     inkscape:pageopacity="0"
     guidetolerance="10"
     gridtolerance="10"
     objecttolerance="10"
     borderopacity="1"
     bordercolor="#666666"
     pagecolor="#ffffff" />
  <title
     id="title2">Qt SVG Document</title>
  <desc
     id="desc4">Generated with Qt</desc>
  <defs
     id="defs6" />
  <g
     transform="translate(5.25984,5.25984)"
     id="g18"
     stroke-linejoin="bevel"
     stroke-linecap="square"
     fill-rule="evenodd"
     stroke-width="1"
     stroke="#000000"
     fill="none">
    <g
       id="g10"
       font-style="normal"
       font-weight="400"
       font-size="7.8px"
       font-family="'MS Shell Dlg 2'"
       stroke="none"
       fill-opacity="1"
       fill="#3d97f1">
      <path
         id="path8"
         d="M 37.2598,16 C 37.2598,27.7415 27.7415,37.2598 16,37.2598 4.25851,37.2598 -5.25984,27.7415 -5.25984,16 -5.25984,4.25851 4.25851,-5.25984 16,-5.25984 27.7415,-5.25984 37.2598,4.25851 37.2598,16"
         fill-rule="evenodd"
         vector-effect="non-scaling-stroke" />
    </g>
    <g
       id="g14"
       font-style="normal"
       font-weight="400"
       font-size="7.8px"
       font-family="'MS Shell Dlg 2'"
       transform="translate(16,12.5984)"
       stroke="none"
       fill-opacity="0.94902"
       fill="#ffffff">
      <path
         id="path12"
         d="m 4.40039,9.31689 c 0,-0.20996 0.08399,-0.38492 0.25195,-0.5249 0.16797,-0.13997 0.35694,-0.20996 0.5669,-0.20996 h 1.6167 v 6.27787 h -1.6167 c -0.20996,0 -0.39893,-0.0805 -0.5669,-0.2415 C 4.48438,14.4574 4.40039,14.265 4.40039,14.041 V 9.31689 m 0,-15.62109 c 0,-0.22396 0.08399,-0.40242 0.25195,-0.5354 0.16797,-0.13297 0.35694,-0.19946 0.5669,-0.19946 h 1.6167 v 6.27783 h -1.6167 c -0.20996,0 -0.39893,-0.083985 -0.5669,-0.25195 C 4.48438,-1.18115 4.40039,-1.37012 4.40039,-1.58008 V -6.3042 m 3.08643,-0.73486 c 0.13997,0 0.35343,0.05249 0.64038,0.15747 0.28694,0.10498 0.61238,0.30094 0.97632,0.58789 0.36393,0.28695 0.73136,0.67887 1.10228,1.17578 0.3709,0.49691 0.7139,1.15479 1.0288,1.97363 0.315,0.81885 0.5704,1.80217 0.7664,2.949954 0.1959,1.147787 0.2939,2.512536 0.2939,4.094236 0,2.37956 -0.2134,4.28321 -0.6404,5.71094 -0.4269,1.42776 -0.9133,2.53006 -1.4592,3.30686 -0.54589,0.7769 -1.08479,1.2948 -1.61669,1.5537 -0.5319,0.259 -0.89583,0.3885 -1.09179,0.3885 H 7.36084 V 8.54004 h 0.04199 c 0.11198,0 0.24846,-0.04549 0.40943,-0.13648 C 7.97323,8.31258 8.1237,8.11662 8.26367,7.81567 8.40365,7.51473 8.51563,7.05632 8.59961,6.44043 8.68359,5.82454 8.72559,4.9777 8.72559,3.8999 8.72559,2.8361 8.68359,1.99626 8.59961,1.38037 8.51563,0.764486 8.40365,0.299072 8.26367,-0.0158691 8.1237,-0.330811 7.97323,-0.533773 7.81226,-0.624756 7.65129,-0.715739 7.51481,-0.76123 7.40283,-0.76123 H 7.36084 V -7.03906 H 7.48682 M -4.94287,3.62695 H 1.16699 V 15.1118 H -0.974609 V 11.3745 H -3.1792 v 3.7373 h -7.8735 V 3.62695 h 3.23336 V 2.43018 h 0.98682 l 0.08398,-4.55616 0.20997,-1.67968 C -7.16846,-3.86165 -7.4834,-4.1766 -7.4834,-4.75049 c 0,-0.29394 0.10848,-0.5319 0.32544,-0.71387 0.21696,-0.18196 0.50041,-0.27294 0.85034,-0.27294 0.27995,0 0.52141,0.09098 0.72437,0.27294 0.20296,0.18197 0.30444,0.41993 0.30444,0.71387 0,0.25195 -0.08748,0.46542 -0.26245,0.64038 -0.17497,0.17497 -0.38843,0.27645 -0.64038,0.30445 l 0.16797,1.67968 0.08398,4.55616 h 0.98682 v 1.19677 m -1.53272,7.91555 h -2.37255 v 2.4985 h 2.37255 v -2.4985 m 0,-5.87893 h -2.37255 v 2.51954 h 2.37255 V 5.66357 m 3.21241,2.51954 h 2.372555 V 5.66357 H -3.26318 v 2.51954 m 0.08398,6.92869 h 2.204591 v 0.4829 H -3.1792 V 15.1118 M -2.92725,0.540527 c 0.78386,-0.4899085 1.43474,-1.084798 1.952641,-1.784667 0.517903,-0.69987 0.8748369,-1.45223 1.0708004,-2.25708 0.1959636,-0.80485 0.2379556,-1.6237 0.1259766,-2.45654 -0.111979,-0.83285 -0.398926,-1.6202 -0.86084,-2.36206 L 0.0961914,-8.76074 C 0.614095,-7.9209 0.929036,-7.04256 1.04102,-6.12573 1.15299,-5.2089 1.09351,-4.29907 0.862549,-3.39624 0.631592,-2.49341 0.229167,-1.63957 -0.344727,-0.834717 -0.91862,-0.0298665 -1.64648,0.645508 -2.52832,1.19141 L -2.92725,0.540527 M -4.12402,-1.34912 c 0.5179,-0.29395 0.94132,-0.66838 1.27026,-1.12329 0.32894,-0.45492 0.5599,-0.94833 0.69287,-1.48023 0.13298,-0.5319 0.16797,-1.0708 0.10498,-1.6167 -0.06299,-0.54589 -0.23445,-1.0638 -0.5144,-1.55371 l 0.65088,-0.33593 c 0.36393,0.57389 0.59139,1.17578 0.68237,1.80566 0.09098,0.62988 0.05599,1.25277 -0.10498,1.86865 -0.16097,0.61589 -0.43392,1.19678 -0.81885,1.74268 -0.38493,0.5459 -0.87834,1.00081 -1.48022,1.364744 L -4.12402,-1.34912 M -3.7251,-6.3042 c 0.39193,0.65788 0.48991,1.36125 0.29395,2.11011 -0.19597,0.74886 -0.65788,1.35425 -1.38574,1.81616 l -0.37793,-0.65088 c 0.54589,-0.32194 0.88183,-0.76986 1.00781,-1.34375 0.12597,-0.57389 0.03499,-1.09879 -0.27295,-1.57471 L -3.7251,-6.3042"
         fill-rule="evenodd"
         vector-effect="none" />
    </g>
    <g
       id="g16"
       font-style="normal"
       font-weight="400"
       font-size="7.8px"
       font-family="'MS Shell Dlg 2'"
       stroke="none"
       fill-opacity="1"
       fill="#3d97f1" />
  </g>
</svg>
