<?xml version="1.0" encoding="UTF-8" standalone="no"?>
<svg width="11.25008mm" height="11.25008mm"
 viewBox="-5.3 -5.3 42.52000 42.52000"
 xmlns="http://www.w3.org/2000/svg" xmlns:xlink="http://www.w3.org/1999/xlink"  version="1.2" baseProfile="tiny">
<title>Qt SVG Document</title>
<desc>Generated with Qt</desc>
<defs>
</defs>
<g fill="none" stroke="black" stroke-width="1" fill-rule="evenodd" stroke-linecap="square" stroke-linejoin="bevel" >

<g fill="#3d97f1" fill-opacity="1" stroke="none" transform="matrix(1,0,0,1,0,0)"
font-family="MS Shell Dlg 2" font-size="7.8" font-weight="400" font-style="normal" 
>
<path vector-effect="non-scaling-stroke" fill-rule="evenodd" d="M37.2598,16 C37.2598,27.7415 27.7415,37.2598 16,37.2598 C4.25851,37.2598 -5.25984,27.7415 -5.25984,16 C-5.25984,4.25851 4.25851,-5.25984 16,-5.25984 C27.7415,-5.25984 37.2598,4.25851 37.2598,16 "/>
</g>

<g fill="#ffffff" fill-opacity="0.94902" stroke="none" transform="matrix(1,0,0,1,16,12.5984)"
font-family="MS Shell Dlg 2" font-size="7.8" font-weight="400" font-style="normal" 
>
<path vector-effect="none" fill-rule="evenodd" d="M4.40039,9.31689 C4.40039,9.10693 4.48438,8.93197 4.65234,8.79199 C4.82031,8.65202 5.00928,8.58203 5.21924,8.58203 L6.83594,8.58203 L6.83594,14.8599 L5.21924,14.8599 C5.00928,14.8599 4.82031,14.7794 4.65234,14.6184 C4.48438,14.4574 4.40039,14.265 4.40039,14.041 L4.40039,9.31689 M4.40039,-6.3042 C4.40039,-6.52816 4.48438,-6.70662 4.65234,-6.8396 C4.82031,-6.97257 5.00928,-7.03906 5.21924,-7.03906 L6.83594,-7.03906 L6.83594,-0.76123 L5.21924,-0.76123 C5.00928,-0.76123 4.82031,-0.845215 4.65234,-1.01318 C4.48438,-1.18115 4.40039,-1.37012 4.40039,-1.58008 L4.40039,-6.3042 M7.48682,-7.03906 C7.62679,-7.03906 7.84025,-6.98657 8.1272,-6.88159 C8.41414,-6.77661 8.73958,-6.58065 9.10352,-6.2937 C9.46745,-6.00675 9.83488,-5.61483 10.2058,-5.11792 C10.5767,-4.62101 10.9197,-3.96313 11.2346,-3.14429 C11.5496,-2.32544 11.805,-1.34212 12.001,-0.194336 C12.1969,0.953451 12.2949,2.3182 12.2949,3.8999 C12.2949,6.27946 12.0815,8.18311 11.6545,9.61084 C11.2276,11.0386 10.7412,12.1409 10.1953,12.9177 C9.64941,13.6946 9.11051,14.2125 8.57861,14.4714 C8.04671,14.7304 7.68278,14.8599 7.48682,14.8599 L7.36084,14.8599 L7.36084,8.54004 L7.40283,8.54004 C7.51481,8.54004 7.65129,8.49455 7.81226,8.40356 C7.97323,8.31258 8.1237,8.11662 8.26367,7.81567 C8.40365,7.51473 8.51563,7.05632 8.59961,6.44043 C8.68359,5.82454 8.72559,4.9777 8.72559,3.8999 C8.72559,2.8361 8.68359,1.99626 8.59961,1.38037 C8.51563,0.764486 8.40365,0.299072 8.26367,-0.0158691 C8.1237,-0.330811 7.97323,-0.533773 7.81226,-0.624756 C7.65129,-0.715739 7.51481,-0.76123 7.40283,-0.76123 L7.36084,-0.76123 L7.36084,-7.03906 L7.48682,-7.03906 M-4.94287,3.62695 L1.16699,3.62695 L1.16699,15.1118 L-0.974609,15.1118 L-0.974609,11.3745 L-3.1792,11.3745 L-3.1792,15.1118 L-11.0527,15.1118 L-11.0527,3.62695 L-7.81934,3.62695 L-7.81934,2.43018 L-6.83252,2.43018 L-6.74854,-2.12598 L-6.53857,-3.80566 C-7.16846,-3.86165 -7.4834,-4.1766 -7.4834,-4.75049 C-7.4834,-5.04443 -7.37492,-5.28239 -7.15796,-5.46436 C-6.941,-5.64632 -6.65755,-5.7373 -6.30762,-5.7373 C-6.02767,-5.7373 -5.78621,-5.64632 -5.58325,-5.46436 C-5.38029,-5.28239 -5.27881,-5.04443 -5.27881,-4.75049 C-5.27881,-4.49854 -5.36629,-4.28507 -5.54126,-4.11011 C-5.71623,-3.93514 -5.92969,-3.83366 -6.18164,-3.80566 L-6.01367,-2.12598 L-5.92969,2.43018 L-4.94287,2.43018 L-4.94287,3.62695 M-6.47559,11.5425 L-8.84814,11.5425 L-8.84814,14.041 L-6.47559,14.041 L-6.47559,11.5425 M-6.47559,5.66357 L-8.84814,5.66357 L-8.84814,8.18311 L-6.47559,8.18311 L-6.47559,5.66357 M-3.26318,8.18311 L-0.890625,8.18311 L-0.890625,5.66357 L-3.26318,5.66357 L-3.26318,8.18311 M-3.1792,15.1118 L-0.974609,15.1118 L-0.974609,15.5947 L-3.1792,15.5947 L-3.1792,15.1118 M-2.92725,0.540527 C-2.14339,0.0506185 -1.49251,-0.544271 -0.974609,-1.24414 C-0.456706,-1.94401 -0.0997721,-2.69637 0.0961914,-3.50122 C0.292155,-4.30607 0.334147,-5.12492 0.222168,-5.95776 C0.110189,-6.79061 -0.176758,-7.57796 -0.638672,-8.31982 L0.0961914,-8.76074 C0.614095,-7.9209 0.929036,-7.04256 1.04102,-6.12573 C1.15299,-5.2089 1.09351,-4.29907 0.862549,-3.39624 C0.631592,-2.49341 0.229167,-1.63957 -0.344727,-0.834717 C-0.91862,-0.0298665 -1.64648,0.645508 -2.52832,1.19141 L-2.92725,0.540527 M-4.12402,-1.34912 C-3.60612,-1.64307 -3.1827,-2.0175 -2.85376,-2.47241 C-2.52482,-2.92733 -2.29386,-3.42074 -2.16089,-3.95264 C-2.02791,-4.48454 -1.99292,-5.02344 -2.05591,-5.56934 C-2.1189,-6.11523 -2.29036,-6.63314 -2.57031,-7.12305 L-1.91943,-7.45898 C-1.5555,-6.88509 -1.32804,-6.2832 -1.23706,-5.65332 C-1.14608,-5.02344 -1.18107,-4.40055 -1.34204,-3.78467 C-1.50301,-3.16878 -1.77596,-2.58789 -2.16089,-2.04199 C-2.54582,-1.49609 -3.03923,-1.04118 -3.64111,-0.677246 L-4.12402,-1.34912 M-3.7251,-6.3042 C-3.33317,-5.64632 -3.23519,-4.94295 -3.43115,-4.19409 C-3.62712,-3.44523 -4.08903,-2.83984 -4.81689,-2.37793 L-5.19482,-3.02881 C-4.64893,-3.35075 -4.31299,-3.79867 -4.18701,-4.37256 C-4.06104,-4.94645 -4.15202,-5.47135 -4.45996,-5.94727 L-3.7251,-6.3042"/>
</g>

<g fill="#3d97f1" fill-opacity="1" stroke="none" transform="matrix(1,0,0,1,0,0)"
font-family="MS Shell Dlg 2" font-size="7.8" font-weight="400" font-style="normal" 
>
</g>
</g>
</svg>
