<svg xmlns="http://www.w3.org/2000/svg" version="1.2" viewBox="0 0 42.52 42.52" height="56.693" width="56.693">
   <g stroke-linejoin="bevel" stroke-linecap="square" fill-rule="evenodd" stroke="none" fill="none" font-weight="400"
      font-size="7.8" font-family="'MS Shell Dlg 2'">
      <path
         d="M42.52 21.26C42.52 33 33 42.52 21.26 42.52 9.518 42.52 0 33 0 21.26 0 9.518 9.518 0 21.26 0 33 0 42.52 9.518 42.52 21.26"
         vector-effect="non-scaling-stroke" fill="#3d97f1" />
      <path
         d="M25.66 27.175c0-.21.084-.385.252-.525a.863.863 0 01.567-.21h1.617v6.278h-1.617a.8.8 0 01-.567-.241.772.772 0 01-.252-.578v-4.724m0-15.621c0-.224.084-.402.252-.535a.89.89 0 01.567-.2h1.617v6.278h-1.617a.783.783 0 01-.567-.252.783.783 0 01-.252-.567v-4.724m3.087-.735c.14 0 .353.053.64.158.287.105.612.3.976.588.364.286.732.678 1.103 1.175.37.497.714 1.155 1.028 1.974.315.819.57 1.802.767 2.95.196 1.148.294 2.512.294 4.094 0 2.38-.214 4.283-.64 5.711-.428 1.428-.914 2.53-1.46 3.307-.546.777-1.085 1.295-1.617 1.554-.531.259-.895.388-1.091.388h-.126v-6.32h.042c.112 0 .248-.045.41-.136.16-.091.31-.287.45-.588s.252-.76.336-1.375c.084-.616.126-1.463.126-2.54 0-1.065-.042-1.904-.126-2.52-.084-.616-.196-1.082-.335-1.397-.14-.315-.29-.518-.452-.609-.16-.09-.297-.136-.41-.136h-.041v-6.278h.126m-12.43 10.666h6.11V32.97h-2.142v-3.737h-2.204v3.737h-7.874V21.485h3.233v-1.197h.987l.084-4.556.21-1.68c-.63-.055-.945-.37-.945-.944 0-.294.109-.532.326-.714.217-.182.5-.273.85-.273.28 0 .522.09.725.273.203.182.304.42.304.714a.871.871 0 01-.262.64 1.042 1.042 0 01-.64.305l.167 1.68.084 4.555h.987v1.197m-1.533 7.916h-2.372v2.498h2.372v-2.498m0-5.88h-2.372v2.52h2.372v-2.52m3.213 2.52h2.372v-2.52h-2.372v2.52m.084 6.929h2.204v.483h-2.204v-.483m.252-14.571a7.036 7.036 0 001.952-1.785c.518-.7.875-1.452 1.071-2.257a6.585 6.585 0 00.126-2.457 5.92 5.92 0 00-.86-2.362l.734-.44c.518.84.833 1.718.945 2.635a7.333 7.333 0 01-.179 2.729 7.658 7.658 0 01-1.207 2.562 7.481 7.481 0 01-2.183 2.026l-.4-.651m-1.196-1.89a3.945 3.945 0 001.27-1.123c.329-.455.56-.948.693-1.48a4.49 4.49 0 00.105-1.617 4.036 4.036 0 00-.514-1.554l.65-.336c.364.574.592 1.176.683 1.806.09.63.056 1.253-.105 1.869a5.359 5.359 0 01-.82 1.742c-.384.546-.877 1.001-1.48 1.365l-.482-.672m.399-4.955c.392.658.49 1.361.294 2.11-.196.749-.658 1.354-1.386 1.816l-.378-.65c.546-.323.882-.77 1.008-1.344.126-.574.035-1.1-.273-1.575l.735-.357"
         fill-opacity=".949" fill="#fff" />
   </g>
</svg>