<?xml version="1.0" encoding="UTF-8" standalone="no"?>
<svg width="11.2889mm" height="11.2889mm"
 viewBox="0 0 32 32"
 xmlns="http://www.w3.org/2000/svg" xmlns:xlink="http://www.w3.org/1999/xlink"  version="1.2" baseProfile="tiny">
<title>Qt SVG Document</title>
<desc>Generated with Qt</desc>
<defs>
</defs>
<g fill="none" stroke="black" stroke-width="1" fill-rule="evenodd" stroke-linecap="square" stroke-linejoin="bevel" >

<g fill="#3d97f1" fill-opacity="1" stroke="none" transform="matrix(1,0,0,1,0,0)"
font-family="MS Shell Dlg 2" font-size="7.8" font-weight="400" font-style="normal" 
>
<path vector-effect="non-scaling-stroke" fill-rule="evenodd" d="M37.2598,16 C37.2598,27.7415 27.7415,37.2598 16,37.2598 C4.25851,37.2598 -5.25984,27.7415 -5.25984,16 C-5.25984,4.25851 4.25851,-5.25984 16,-5.25984 C27.7415,-5.25984 37.2598,4.25851 37.2598,16 "/>
</g>

<g fill="#ffffff" fill-opacity="0.94902" stroke="none" transform="matrix(1,0,0,1,16,13.1654)"
font-family="MS Shell Dlg 2" font-size="7.8" font-weight="400" font-style="normal" 
>
<path vector-effect="none" fill-rule="evenodd" d="M0.415039,-5.7793 C0.30306,-5.72331 0.187581,-5.69531 0.0686035,-5.69531 C-0.0503743,-5.69531 -0.151855,-5.69531 -0.23584,-5.69531 C-0.61377,-5.69531 -0.858724,-5.72331 -0.970703,-5.7793 L-0.970703,-8.27783 C-0.970703,-8.71175 -0.725749,-8.92871 -0.23584,-8.92871 C-0.0678711,-8.92871 0.0826009,-8.86922 0.215576,-8.75024 C0.348551,-8.63127 0.415039,-8.4738 0.415039,-8.27783 L0.415039,-5.7793 M2.05273,3.24902 C2.05273,3.41699 1.96525,3.58846 1.79028,3.76343 C1.61532,3.9384 1.36686,4.06787 1.04492,4.15186 L5.26514,17.7783 L3.81641,17.7783 L2.7666,14.6499 L-0.151855,17.6104 L-0.23584,17.7783 L-2.0835,17.7783 L-0.970703,4.23584 L-1.26465,4.23584 C-2.10449,4.06787 -2.56641,3.76693 -2.65039,3.33301 C-2.46842,3.27702 -2.25146,3.20703 -1.99951,3.12305 C-1.77555,3.06706 -1.5131,3.00757 -1.21216,2.94458 C-0.911214,2.88159 -0.55778,2.8501 -0.151855,2.8501 C0.254069,2.8501 0.593506,2.87459 0.866455,2.92358 C1.1394,2.97257 1.35986,3.02507 1.52783,3.08105 C1.7238,3.13704 1.89876,3.19303 2.05273,3.24902 M2.13672,13.6421 L0.100098,12.1934 L-0.0678711,15.8467 L2.13672,13.6421 M0.415039,6.90234 L0.205078,10.6816 L2.05273,12.0674 L0.415039,6.90234 M2.51465,1.94727 C2.34668,1.86328 2.12972,1.7653 1.86377,1.65332 C1.63981,1.56934 1.34937,1.49235 0.992432,1.42236 C0.635498,1.35238 0.198079,1.31738 -0.319824,1.31738 C-0.837728,1.31738 -1.27515,1.35238 -1.63208,1.42236 C-1.98901,1.49235 -2.28646,1.55534 -2.52441,1.61133 C-2.77637,1.69531 -2.97233,1.7793 -3.1123,1.86328 C-3.1123,1.80729 -3.1263,1.70231 -3.1543,1.54834 C-3.18229,1.39437 -3.19629,1.28939 -3.19629,1.2334 C-3.19629,0.939453 -2.98983,0.690999 -2.5769,0.488037 C-2.16398,0.285075 -1.62858,0.155599 -0.970703,0.0996094 L-0.970703,-4.7085 C-0.858724,-4.62451 -0.61377,-4.58252 -0.23584,-4.58252 C-0.151855,-4.58252 -0.0503743,-4.58952 0.0686035,-4.60352 C0.187581,-4.61751 0.30306,-4.65251 0.415039,-4.7085 L0.415039,0.0996094 C1.07292,0.155599 1.60132,0.285075 2.00024,0.488037 C2.39917,0.690999 2.59863,0.939453 2.59863,1.2334 C2.59863,1.28939 2.58464,1.40837 2.55664,1.59033 C2.52865,1.7723 2.51465,1.89128 2.51465,1.94727 M4.27832,-4.96045 C5.42611,-4.21859 6.33594,-3.23877 7.00781,-2.021 C7.67969,-0.803223 8.01563,0.554525 8.01563,2.05225 C8.01563,3.25602 7.78117,4.38631 7.31226,5.44312 C6.84334,6.49992 6.18896,7.41325 5.34912,8.18311 L4.80322,7.36426 C5.51709,6.67839 6.08049,5.88403 6.49341,4.9812 C6.90633,4.07837 7.11279,3.10205 7.11279,2.05225 C7.11279,0.750488 6.79785,-0.449788 6.16797,-1.54858 C5.53809,-2.64738 4.71924,-3.53971 3.71143,-4.22559 L4.27832,-4.96045 M-7.89941,2.05225 C-7.89941,3.396 -7.56698,4.61027 -6.9021,5.69507 C-6.23722,6.77987 -5.40788,7.6582 -4.41406,8.33008 L-4.66602,9.23291 C-5.92578,8.47705 -6.93709,7.47624 -7.69995,6.23047 C-8.46281,4.9847 -8.84424,3.59196 -8.84424,2.05225 C-8.84424,0.554525 -8.4978,-0.803223 -7.80493,-2.021 C-7.11206,-3.23877 -6.19173,-4.21859 -5.04395,-4.96045 L-4.58203,-4.1416 C-5.54785,-3.48372 -6.3422,-2.61239 -6.96509,-1.52759 C-7.58797,-0.44279 -7.89941,0.750488 -7.89941,2.05225 M-10.377,2.05225 C-10.377,3.9139 -9.90454,5.61108 -8.95972,7.1438 C-8.01489,8.67651 -6.80062,9.85579 -5.31689,10.6816 L-5.77881,11.9834 C-7.58447,11.0036 -9.0332,9.64583 -10.125,7.91016 C-11.2168,6.17448 -11.7627,4.22184 -11.7627,2.05225 C-11.7627,0.0646159 -11.2973,-1.76554 -10.3665,-3.43823 C-9.43563,-5.11092 -8.17936,-6.45117 -6.59766,-7.45898 L-5.86279,-6.26221 C-7.24854,-5.36637 -8.34733,-4.20109 -9.15918,-2.76636 C-9.97103,-1.33162 -10.377,0.274577 -10.377,2.05225 M5.91602,-7.375 C7.45573,-6.36719 8.6875,-5.04093 9.61133,-3.39624 C10.5352,-1.75155 10.9971,0.0646159 10.9971,2.05225 C10.9971,3.75993 10.6366,5.35913 9.91577,6.84985 C9.19491,8.34058 8.23258,9.58984 7.02881,10.5977 L6.20996,9.48486 C7.27376,8.56104 8.10661,7.45524 8.7085,6.16748 C9.31038,4.87972 9.61133,3.50798 9.61133,2.05225 C9.61133,0.274577 9.2089,-1.33162 8.40405,-2.76636 C7.5992,-4.20109 6.5249,-5.36637 5.18115,-6.26221 L5.91602,-7.375 M4.71924,2.05225 C4.71924,1.15641 4.50928,0.344564 4.08936,-0.383301 C3.66943,-1.11117 3.08854,-1.72005 2.34668,-2.20996 L2.7666,-2.77686 C3.57845,-2.25895 4.21183,-1.57658 4.66675,-0.729736 C5.12166,0.117106 5.34912,1.04443 5.34912,2.05225 C5.34912,3.53597 4.83822,4.82373 3.81641,5.91553 L3.41748,5.34863 C3.79541,4.88672 4.10685,4.38631 4.35181,3.84741 C4.59676,3.30851 4.71924,2.71012 4.71924,2.05225 M-3.28027,-2.20996 C-3.93815,-1.72005 -4.47005,-1.11117 -4.87598,-0.383301 C-5.2819,0.344564 -5.48486,1.15641 -5.48486,2.05225 C-5.48486,2.87809 -5.2994,3.62695 -4.92847,4.29883 C-4.55754,4.9707 -4.07113,5.5376 -3.46924,5.99951 L-3.76318,6.73438 C-4.50505,6.16048 -5.08594,5.47811 -5.50586,4.68726 C-5.92578,3.8964 -6.13574,3.01807 -6.13574,2.05225 C-6.13574,1.04443 -5.91178,0.117106 -5.46387,-0.729736 C-5.01595,-1.57658 -4.42106,-2.25895 -3.6792,-2.77686 L-3.28027,-2.20996"/>
</g>

<g fill="#3d97f1" fill-opacity="1" stroke="none" transform="matrix(1,0,0,1,0,0)"
font-family="MS Shell Dlg 2" font-size="7.8" font-weight="400" font-style="normal" 
>
</g>
</g>
</svg>
