<?xml version="1.0" encoding="UTF-8" standalone="no"?>
<svg
   xmlns:dc="http://purl.org/dc/elements/1.1/"
   xmlns:cc="http://creativecommons.org/ns#"
   xmlns:rdf="http://www.w3.org/1999/02/22-rdf-syntax-ns#"
   xmlns:svg="http://www.w3.org/2000/svg"
   xmlns="http://www.w3.org/2000/svg"
   xmlns:sodipodi="http://sodipodi.sourceforge.net/DTD/sodipodi-0.dtd"
   xmlns:inkscape="http://www.inkscape.org/namespaces/inkscape"
   inkscape:version="1.0 (4035a4fb49, 2020-05-01)"
   sodipodi:docname="1120.svg"
   id="svg20"
   version="1.2"
   viewBox="0 0 42.519639 42.519639"
   height="14.999999mm"
   width="14.999999mm">
  <metadata
     id="metadata24">
    <rdf:RDF>
      <cc:Work
         rdf:about="">
        <dc:format>image/svg+xml</dc:format>
        <dc:type
           rdf:resource="http://purl.org/dc/dcmitype/StillImage" />
        <dc:title>Qt SVG Document</dc:title>
      </cc:Work>
    </rdf:RDF>
  </metadata>
  <sodipodi:namedview
     inkscape:current-layer="svg20"
     inkscape:window-maximized="0"
     inkscape:window-y="0"
     inkscape:window-x="0"
     inkscape:cy="28.346482"
     inkscape:cx="28.346482"
     inkscape:zoom="5.8410537"
     showgrid="false"
     id="namedview22"
     inkscape:window-height="480"
     inkscape:window-width="1034"
     inkscape:pageshadow="2"
     inkscape:pageopacity="0"
     guidetolerance="10"
     gridtolerance="10"
     objecttolerance="10"
     borderopacity="1"
     bordercolor="#666666"
     pagecolor="#ffffff" />
  <title
     id="title2">Qt SVG Document</title>
  <desc
     id="desc4">Generated with Qt</desc>
  <defs
     id="defs6" />
  <g
     transform="translate(5.25984,5.25984)"
     id="g18"
     stroke-linejoin="bevel"
     stroke-linecap="square"
     fill-rule="evenodd"
     stroke-width="1"
     stroke="#000000"
     fill="none">
    <g
       id="g10"
       font-style="normal"
       font-weight="400"
       font-size="7.8px"
       font-family="'MS Shell Dlg 2'"
       stroke="none"
       fill-opacity="1"
       fill="#3d97f1">
      <path
         id="path8"
         d="M 37.2598,16 C 37.2598,27.7415 27.7415,37.2598 16,37.2598 4.25851,37.2598 -5.25984,27.7415 -5.25984,16 -5.25984,4.25851 4.25851,-5.25984 16,-5.25984 27.7415,-5.25984 37.2598,4.25851 37.2598,16"
         fill-rule="evenodd"
         vector-effect="non-scaling-stroke" />
    </g>
    <g
       id="g14"
       font-style="normal"
       font-weight="400"
       font-size="7.8px"
       font-family="'MS Shell Dlg 2'"
       transform="translate(16,13.1654)"
       stroke="none"
       fill-opacity="0.94902"
       fill="#ffffff">
      <path
         id="path12"
         d="m 0.415039,-5.7793 c -0.111979,0.05599 -0.227458,0.08399 -0.3464355,0.08399 -0.1189778,0 -0.2204585,0 -0.3044435,0 -0.37793,0 -0.622884,-0.028 -0.734863,-0.08399 v -2.49853 c 0,-0.43392 0.244954,-0.65088 0.734863,-0.65088 0.1679689,0 0.3184409,0.05949 0.451416,0.17847 0.132975,0.11897 0.199463,0.27644 0.199463,0.47241 V -5.7793 M 2.05273,3.24902 c 0,0.16797 -0.08748,0.33944 -0.26245,0.51441 C 1.61532,3.9384 1.36686,4.06787 1.04492,4.15186 L 5.26514,17.7783 H 3.81641 L 2.7666,14.6499 -0.151855,17.6104 -0.23584,17.7783 H -2.0835 L -0.970703,4.23584 H -1.26465 C -2.10449,4.06787 -2.56641,3.76693 -2.65039,3.33301 -2.46842,3.27702 -2.25146,3.20703 -1.99951,3.12305 -1.77555,3.06706 -1.5131,3.00757 -1.21216,2.94458 -0.911214,2.88159 -0.55778,2.8501 -0.151855,2.8501 c 0.405924,0 0.745361,0.02449 1.01831,0.07348 C 1.1394,2.97257 1.35986,3.02507 1.52783,3.08105 1.7238,3.13704 1.89876,3.19303 2.05273,3.24902 M 2.13672,13.6421 0.100098,12.1934 -0.0678711,15.8467 2.13672,13.6421 M 0.415039,6.90234 0.205078,10.6816 2.05273,12.0674 0.415039,6.90234 M 2.51465,1.94727 C 2.34668,1.86328 2.12972,1.7653 1.86377,1.65332 1.63981,1.56934 1.34937,1.49235 0.992432,1.42236 0.635498,1.35238 0.198079,1.31738 -0.319824,1.31738 c -0.517904,0 -0.955326,0.035 -1.312256,0.10498 -0.35693,0.06999 -0.65438,0.13298 -0.89233,0.18897 -0.25196,0.08398 -0.44792,0.16797 -0.58789,0.25195 0,-0.05599 -0.014,-0.16097 -0.042,-0.31494 -0.02799,-0.15397 -0.04199,-0.25895 -0.04199,-0.31494 0,-0.293947 0.20646,-0.542401 0.61939,-0.745363 0.41292,-0.202962 0.94832,-0.332438 1.606197,-0.3884276 V -4.7085 c 0.111979,0.08399 0.356933,0.12598 0.734863,0.12598 0.083985,0 0.1854657,-0.007 0.3044435,-0.021 C 0.187581,-4.61751 0.30306,-4.65251 0.415039,-4.7085 V 0.0996094 C 1.07292,0.155599 1.60132,0.285075 2.00024,0.488037 2.39917,0.690999 2.59863,0.939453 2.59863,1.2334 2.59863,1.28939 2.58464,1.40837 2.55664,1.59033 2.52865,1.7723 2.51465,1.89128 2.51465,1.94727 m 1.76367,-6.90772 c 1.14779,0.74186 2.05762,1.72168 2.72949,2.93945 0.67188,1.217777 1.00782,2.575525 1.00782,4.07325 0,1.20377 -0.23446,2.33406 -0.70337,3.39087 -0.46892,1.0568 -1.1233,1.97013 -1.96314,2.73999 L 4.80322,7.36426 C 5.51709,6.67839 6.08049,5.88403 6.49341,4.9812 6.90633,4.07837 7.11279,3.10205 7.11279,2.05225 7.11279,0.750488 6.79785,-0.449788 6.16797,-1.54858 5.53809,-2.64738 4.71924,-3.53971 3.71143,-4.22559 l 0.56689,-0.73486 m -12.17773,7.0127 c 0,1.34375 0.33243,2.55802 0.99731,3.64282 0.66488,1.0848 1.49422,1.96313 2.48804,2.63501 L -4.66602,9.23291 C -5.92578,8.47705 -6.93709,7.47624 -7.69995,6.23047 -8.46281,4.9847 -8.84424,3.59196 -8.84424,2.05225 c 0,-1.497725 0.34644,-2.855473 1.03931,-4.07325 0.69287,-1.21777 1.6132,-2.19759 2.76098,-2.93945 l 0.46192,0.81885 c -0.96582,0.65788 -1.76017,1.52921 -2.38306,2.61401 -0.62288,1.0848 -0.93432,2.278078 -0.93432,3.57984 m -2.47759,0 c 0,1.86165 0.47246,3.55883 1.41728,5.09155 0.94483,1.53271 2.1591,2.71199 3.64283,3.5378 l -0.46192,1.3018 C -7.58447,11.0036 -9.0332,9.64583 -10.125,7.91016 c -1.0918,-1.73568 -1.6377,-3.68832 -1.6377,-5.85791 0,-1.9876341 0.4654,-3.81779 1.3962,-5.49048 0.93087,-1.67269 2.18714,-3.01294 3.76884,-4.02075 l 0.73487,1.19677 c -1.38575,0.89584 -2.48454,2.06112 -3.29639,3.49585 -0.81185,1.43474 -1.21782,3.040937 -1.21782,4.81861 M 5.91602,-7.375 c 1.53971,1.00781 2.77148,2.33407 3.69531,3.97876 0.92387,1.64469 1.38577,3.4608559 1.38577,5.44849 0,1.70768 -0.3605,3.30688 -1.08133,4.7976 C 9.19491,8.34058 8.23258,9.58984 7.02881,10.5977 L 6.20996,9.48486 C 7.27376,8.56104 8.10661,7.45524 8.7085,6.16748 9.31038,4.87972 9.61133,3.50798 9.61133,2.05225 9.61133,0.274577 9.2089,-1.33162 8.40405,-2.76636 7.5992,-4.20109 6.5249,-5.36637 5.18115,-6.26221 L 5.91602,-7.375 M 4.71924,2.05225 C 4.71924,1.15641 4.50928,0.344564 4.08936,-0.383301 3.66943,-1.11117 3.08854,-1.72005 2.34668,-2.20996 l 0.41992,-0.5669 c 0.81185,0.51791 1.44523,1.20028 1.90015,2.047124 0.45491,0.846842 0.68237,1.774166 0.68237,2.781986 0,1.48372 -0.5109,2.77148 -1.53271,3.86328 L 3.41748,5.34863 C 3.79541,4.88672 4.10685,4.38631 4.35181,3.84741 4.59676,3.30851 4.71924,2.71012 4.71924,2.05225 m -7.99951,-4.26221 c -0.65788,0.48991 -1.18978,1.09879 -1.59571,1.826659 -0.40592,0.727865 -0.60888,1.539711 -0.60888,2.435551 0,0.82584 0.18546,1.5747 0.55639,2.24658 0.37093,0.67187 0.85734,1.23877 1.45923,1.70068 L -3.76318,6.73438 C -4.50505,6.16048 -5.08594,5.47811 -5.50586,4.68726 -5.92578,3.8964 -6.13574,3.01807 -6.13574,2.05225 c 0,-1.00782 0.22396,-1.935144 0.67187,-2.781986 0.44792,-0.846844 1.04281,-1.529214 1.78467,-2.047124 l 0.39893,0.5669"
         fill-rule="evenodd"
         vector-effect="none" />
    </g>
    <g
       id="g16"
       font-style="normal"
       font-weight="400"
       font-size="7.8px"
       font-family="'MS Shell Dlg 2'"
       stroke="none"
       fill-opacity="1"
       fill="#3d97f1" />
  </g>
</svg>
