<svg xmlns="http://www.w3.org/2000/svg" version="1.2" viewBox="0 0 42.52 42.52" height="56.693" width="56.693">
   <g stroke-linejoin="bevel" stroke-linecap="square" fill-rule="evenodd" stroke="none" fill="none" font-weight="400"
      font-size="7.8" font-family="'MS Shell Dlg 2'">
      <path
         d="M42.52 21.26C42.52 33 33 42.52 21.26 42.52 9.518 42.52 0 33 0 21.26 0 9.518 9.518 0 21.26 0 33 0 42.52 9.518 42.52 21.26"
         vector-effect="non-scaling-stroke" fill="#3d97f1" />
      <path
         d="M21.675 12.646a.766.766 0 01-.347.084h-.304c-.378 0-.623-.028-.735-.084v-2.499c0-.434.245-.65.735-.65.168 0 .318.059.451.178s.2.276.2.472v2.499m1.638 9.028c0 .168-.088.34-.263.515-.175.175-.423.304-.745.388l4.22 13.627h-1.449l-1.05-3.129-2.918 2.96-.084.169h-1.848L20.29 22.66h-.294c-.84-.168-1.302-.469-1.386-.903.182-.056.4-.126.651-.21.224-.056.487-.115.788-.178a5.23 5.23 0 011.06-.095c.406 0 .745.025 1.018.074.273.049.494.101.662.157.196.056.37.112.525.168m.084 10.393L21.36 30.62l-.168 3.653 2.205-2.205m-1.722-6.74l-.21 3.78 1.848 1.386-1.638-5.165m2.1-4.955a11.348 11.348 0 00-.651-.294 5.639 5.639 0 00-.872-.231 6.956 6.956 0 00-1.312-.105c-.518 0-.955.035-1.312.105-.357.07-.655.133-.893.189a3.055 3.055 0 00-.587.252c0-.056-.014-.161-.042-.315a2.149 2.149 0 01-.042-.315c0-.294.206-.543.619-.746.413-.203.948-.332 1.606-.388v-4.808c.112.084.357.126.735.126.084 0 .185-.007.304-.021.12-.014.235-.05.347-.105v4.808c.658.056 1.186.185 1.585.388s.598.452.598.746c0 .056-.014.175-.042.357a3.058 3.058 0 00-.042.357m1.764-6.908a8.1 8.1 0 012.73 2.94c.672 1.217 1.007 2.575 1.007 4.072a8.266 8.266 0 01-.703 3.391 8.169 8.169 0 01-1.963 2.74l-.546-.819a7.739 7.739 0 001.69-2.383c.413-.902.62-1.879.62-2.929a7.115 7.115 0 00-.945-3.6A7.995 7.995 0 0024.97 14.2l.567-.735M13.36 20.477c0 1.344.333 2.559.998 3.643.665 1.085 1.494 1.963 2.488 2.635l-.252.903a8.835 8.835 0 01-3.034-3.002c-.763-1.246-1.144-2.639-1.144-4.179 0-1.497.346-2.855 1.039-4.073a8.37 8.37 0 012.76-2.94l.463.82c-.966.658-1.76 1.529-2.383 2.614-.623 1.084-.935 2.278-.935 3.58m-2.477 0c0 1.861.472 3.558 1.417 5.091.945 1.533 2.16 2.712 3.643 3.538l-.462 1.302a11.57 11.57 0 01-4.346-4.074c-1.092-1.735-1.638-3.688-1.638-5.858 0-1.987.466-3.817 1.396-5.49a11.065 11.065 0 013.77-4.02l.734 1.196a9.923 9.923 0 00-3.296 3.496c-.812 1.435-1.218 3.04-1.218 4.818m16.293-9.427c1.54 1.008 2.771 2.334 3.695 3.979.924 1.645 1.386 3.46 1.386 5.448 0 1.708-.36 3.307-1.081 4.798-.721 1.49-1.684 2.74-2.887 3.748l-.82-1.113a9.89 9.89 0 002.5-3.317 9.6 9.6 0 00.902-4.116c0-1.777-.402-3.383-1.207-4.818a10.039 10.039 0 00-3.223-3.496l.735-1.113m-1.197 9.427c0-.895-.21-1.707-.63-2.435-.42-.728-1-1.337-1.742-1.827l.42-.567a5.449 5.449 0 011.9 2.048c.455.846.682 1.774.682 2.781 0 1.484-.51 2.772-1.533 3.864l-.399-.567c.378-.462.69-.962.935-1.501a4.288 4.288 0 00.367-1.796m-8-4.262a5.728 5.728 0 00-1.595 1.827c-.406.728-.609 1.54-.609 2.435 0 .826.185 1.575.556 2.247.371.672.858 1.239 1.46 1.7l-.294.736a6.316 6.316 0 01-1.743-2.047c-.42-.791-.63-1.67-.63-2.636 0-1.007.224-1.935.672-2.781a5.698 5.698 0 011.785-2.048l.399.567"
         fill-opacity=".949" fill="#fff" />
   </g>
</svg>