<?xml version="1.0" encoding="UTF-8" standalone="no"?>
<svg
   xmlns:dc="http://purl.org/dc/elements/1.1/"
   xmlns:cc="http://creativecommons.org/ns#"
   xmlns:rdf="http://www.w3.org/1999/02/22-rdf-syntax-ns#"
   xmlns:svg="http://www.w3.org/2000/svg"
   xmlns="http://www.w3.org/2000/svg"
   xmlns:sodipodi="http://sodipodi.sourceforge.net/DTD/sodipodi-0.dtd"
   xmlns:inkscape="http://www.inkscape.org/namespaces/inkscape"
   inkscape:version="1.0 (4035a4fb49, 2020-05-01)"
   sodipodi:docname="1121.svg"
   id="svg20"
   version="1.2"
   viewBox="0 0 42.519639 42.519639"
   height="14.999999mm"
   width="14.999999mm">
  <metadata
     id="metadata24">
    <rdf:RDF>
      <cc:Work
         rdf:about="">
        <dc:format>image/svg+xml</dc:format>
        <dc:type
           rdf:resource="http://purl.org/dc/dcmitype/StillImage" />
        <dc:title>Qt SVG Document</dc:title>
      </cc:Work>
    </rdf:RDF>
  </metadata>
  <sodipodi:namedview
     inkscape:current-layer="svg20"
     inkscape:window-maximized="0"
     inkscape:window-y="0"
     inkscape:window-x="0"
     inkscape:cy="28.346482"
     inkscape:cx="28.346482"
     inkscape:zoom="5.8410537"
     showgrid="false"
     id="namedview22"
     inkscape:window-height="480"
     inkscape:window-width="1034"
     inkscape:pageshadow="2"
     inkscape:pageopacity="0"
     guidetolerance="10"
     gridtolerance="10"
     objecttolerance="10"
     borderopacity="1"
     bordercolor="#666666"
     pagecolor="#ffffff" />
  <title
     id="title2">Qt SVG Document</title>
  <desc
     id="desc4">Generated with Qt</desc>
  <defs
     id="defs6" />
  <g
     transform="translate(5.25984,5.25984)"
     id="g18"
     stroke-linejoin="bevel"
     stroke-linecap="square"
     fill-rule="evenodd"
     stroke-width="1"
     stroke="#000000"
     fill="none">
    <g
       id="g10"
       font-style="normal"
       font-weight="400"
       font-size="7.8px"
       font-family="'MS Shell Dlg 2'"
       stroke="none"
       fill-opacity="1"
       fill="#3d97f1">
      <path
         id="path8"
         d="M 37.2598,16 C 37.2598,27.7415 27.7415,37.2598 16,37.2598 4.25851,37.2598 -5.25984,27.7415 -5.25984,16 -5.25984,4.25851 4.25851,-5.25984 16,-5.25984 27.7415,-5.25984 37.2598,4.25851 37.2598,16"
         fill-rule="evenodd"
         vector-effect="non-scaling-stroke" />
    </g>
    <g
       id="g14"
       font-style="normal"
       font-weight="400"
       font-size="7.8px"
       font-family="'MS Shell Dlg 2'"
       transform="translate(16,13.1654)"
       stroke="none"
       fill-opacity="0.94902"
       fill="#ffffff">
      <path
         id="path12"
         d="m 11.3921,1.14941 c -0.224,0 -0.3919,-0.07348 -0.5039,-0.220455 -0.112,-0.146973 -0.168,-0.304443 -0.168,-0.472412 0,-0.181966 0.056,-0.335938 0.168,-0.46191409 0.112,-0.12597691 0.2799,-0.18896491 0.5039,-0.18896491 0.2939,0 0.5039,0.062988 0.6299,0.18896491 0.1259,0.12597609 0.1889,0.27994809 0.1889,0.46191409 0,0.167969 -0.063,0.325439 -0.1889,0.472412 C 11.896,1.07593 11.686,1.14941 11.3921,1.14941 m -0.6719,0.5459 h 1.4907 v 7.5376 H 10.7202 V 1.69531 M 3.45557,-0.194336 H 9.29248 V 0.960449 H 4.77832 V 2.89209 H 9.29248 V 4.06787 H 4.77832 V 9.23291 H 3.45557 V -0.194336 M -12.1655,-4.45654 c 0,-0.82585 0.3429,-1.53272 1.0288,-2.12061 0.6859,-0.58789 1.5327,-0.88183 2.54051,-0.88183 H 2.97266 c -0.51791,0.37793 -0.94133,0.82234 -1.27027,1.33325 -0.32894,0.5109 -0.49341,1.0673 -0.49341,1.66919 V 13.4741 c 0,0.8119 -0.342932,1.5047 -1.028804,2.0786 -0.685873,0.5739 -1.518716,0.8609 -2.498536,0.8609 h -6.27783 c -1.00781,0 -1.85461,-0.287 -2.54051,-0.8609 -0.6859,-0.5739 -1.0288,-1.2667 -1.0288,-2.0786 V -4.45654 M -0.638672,1.94727 H -1.96143 v 6.84472 h 1.322758 V 1.94727 M -1.33154,0.288574 c -0.48991,0 -0.73487,0.195964 -0.73487,0.587891 0,0.139975 0.06649,0.262455 0.19947,0.367435 0.13297,0.10498 0.31144,0.15747 0.5354,0.15747 0.23795,0 0.41292,-0.05249 0.524899,-0.15747 0.11198,-0.10498 0.167969,-0.22746 0.167969,-0.367435 0,-0.391927 -0.230957,-0.587891 -0.692868,-0.587891 m -6.4878,0 -1.0708,5.668946 -1.02881,-5.668946 h -1.17575 l 1.51169,8.503416 h 1.42774 l 0.94482,-5.66894 1.0708,5.66894 h 1.32276 L -3.30518,0.288574 H -4.45996 L -5.48877,5.83154 -6.47559,0.288574 h -1.34375"
         fill-rule="evenodd"
         vector-effect="none" />
    </g>
    <g
       id="g16"
       font-style="normal"
       font-weight="400"
       font-size="7.8px"
       font-family="'MS Shell Dlg 2'"
       stroke="none"
       fill-opacity="1"
       fill="#3d97f1" />
  </g>
</svg>
