<svg xmlns="http://www.w3.org/2000/svg" version="1.2" viewBox="0 0 42.52 42.52" height="56.693" width="56.693">
   <g stroke-linejoin="bevel" stroke-linecap="square" fill-rule="evenodd" stroke="none" fill="none" font-weight="400"
      font-size="7.8" font-family="'MS Shell Dlg 2'">
      <path
         d="M42.52 21.26C42.52 33 33 42.52 21.26 42.52 9.518 42.52 0 33 0 21.26 0 9.518 9.518 0 21.26 0 33 0 42.52 9.518 42.52 21.26"
         vector-effect="non-scaling-stroke" fill="#3d97f1" />
      <path
         d="M32.652 19.575c-.224 0-.392-.074-.504-.22a.765.765 0 01-.168-.473.67.67 0 01.168-.462c.112-.126.28-.19.504-.19.294 0 .504.064.63.19s.189.28.189.462a.714.714 0 01-.19.472c-.125.147-.335.22-.63.22m-.671.547h1.49v7.537h-1.49v-7.537m-7.265-1.89h5.837v1.155h-4.514v1.931h4.514v1.176h-4.514v5.165h-1.323v-9.427m-15.62-4.262c0-.826.342-1.533 1.028-2.12.686-.589 1.533-.883 2.54-.883h11.57a4.988 4.988 0 00-1.27 1.334 3.023 3.023 0 00-.494 1.669v17.93c0 .812-.343 1.505-1.029 2.079-.686.574-1.519.86-2.499.86h-6.277c-1.008 0-1.855-.286-2.54-.86-.687-.574-1.03-1.267-1.03-2.079V13.97m11.527 6.404h-1.323v6.844h1.323v-6.844m-.693-1.66c-.49 0-.735.197-.735.589 0 .14.067.262.2.367.133.105.311.158.535.158.238 0 .413-.053.525-.158a.489.489 0 00.168-.367c0-.392-.23-.588-.693-.588m-6.488 0l-1.07 5.669-1.03-5.67h-1.175l1.512 8.504h1.428l.944-5.669 1.071 5.67h1.323l1.512-8.504H16.8l-1.029 5.543-.987-5.543H13.44"
         fill-opacity=".949" fill="#fff" />
   </g>
</svg>