<?xml version="1.0" encoding="UTF-8" standalone="no"?>
<svg width="11.2889mm" height="11.2889mm"
 viewBox="0 0 32 32"
 xmlns="http://www.w3.org/2000/svg" xmlns:xlink="http://www.w3.org/1999/xlink"  version="1.2" baseProfile="tiny">
<title>Qt SVG Document</title>
<desc>Generated with Qt</desc>
<defs>
</defs>
<g fill="none" stroke="black" stroke-width="1" fill-rule="evenodd" stroke-linecap="square" stroke-linejoin="bevel" >

<g fill="#3d97f1" fill-opacity="1" stroke="none" transform="matrix(1,0,0,1,0,0)"
font-family="MS Shell Dlg 2" font-size="7.8" font-weight="400" font-style="normal" 
>
<path vector-effect="non-scaling-stroke" fill-rule="evenodd" d="M37.2598,16 C37.2598,27.7415 27.7415,37.2598 16,37.2598 C4.25851,37.2598 -5.25984,27.7415 -5.25984,16 C-5.25984,4.25851 4.25851,-5.25984 16,-5.25984 C27.7415,-5.25984 37.2598,4.25851 37.2598,16 "/>
</g>

<g fill="#ffffff" fill-opacity="0.94902" stroke="none" transform="matrix(1,0,0,1,16,13.1654)"
font-family="MS Shell Dlg 2" font-size="7.8" font-weight="400" font-style="normal" 
>
<path vector-effect="none" fill-rule="evenodd" d="M11.3921,1.14941 C11.1681,1.14941 11.0002,1.07593 10.8882,0.928955 C10.7762,0.781982 10.7202,0.624512 10.7202,0.456543 C10.7202,0.274577 10.7762,0.120605 10.8882,-0.00537109 C11.0002,-0.131348 11.1681,-0.194336 11.3921,-0.194336 C11.686,-0.194336 11.896,-0.131348 12.022,-0.00537109 C12.1479,0.120605 12.2109,0.274577 12.2109,0.456543 C12.2109,0.624512 12.1479,0.781982 12.022,0.928955 C11.896,1.07593 11.686,1.14941 11.3921,1.14941 M10.7202,1.69531 L12.2109,1.69531 L12.2109,9.23291 L10.7202,9.23291 L10.7202,1.69531 M3.45557,-0.194336 L9.29248,-0.194336 L9.29248,0.960449 L4.77832,0.960449 L4.77832,2.89209 L9.29248,2.89209 L9.29248,4.06787 L4.77832,4.06787 L4.77832,9.23291 L3.45557,9.23291 L3.45557,-0.194336 M-12.1655,-4.45654 C-12.1655,-5.28239 -11.8226,-5.98926 -11.1367,-6.57715 C-10.4508,-7.16504 -9.604,-7.45898 -8.59619,-7.45898 L2.97266,-7.45898 C2.45475,-7.08105 2.03133,-6.63664 1.70239,-6.12573 C1.37345,-5.61483 1.20898,-5.05843 1.20898,-4.45654 L1.20898,13.4741 C1.20898,14.286 0.866048,14.9788 0.180176,15.5527 C-0.505697,16.1266 -1.33854,16.4136 -2.31836,16.4136 L-8.59619,16.4136 C-9.604,16.4136 -10.4508,16.1266 -11.1367,15.5527 C-11.8226,14.9788 -12.1655,14.286 -12.1655,13.4741 L-12.1655,-4.45654 M-0.638672,1.94727 L-1.96143,1.94727 L-1.96143,8.79199 L-0.638672,8.79199 L-0.638672,1.94727 M-1.33154,0.288574 C-1.82145,0.288574 -2.06641,0.484538 -2.06641,0.876465 C-2.06641,1.01644 -1.99992,1.13892 -1.86694,1.2439 C-1.73397,1.34888 -1.5555,1.40137 -1.33154,1.40137 C-1.09359,1.40137 -0.91862,1.34888 -0.806641,1.2439 C-0.694661,1.13892 -0.638672,1.01644 -0.638672,0.876465 C-0.638672,0.484538 -0.869629,0.288574 -1.33154,0.288574 M-7.81934,0.288574 L-8.89014,5.95752 L-9.91895,0.288574 L-11.0947,0.288574 L-9.58301,8.79199 L-8.15527,8.79199 L-7.21045,3.12305 L-6.13965,8.79199 L-4.81689,8.79199 L-3.30518,0.288574 L-4.45996,0.288574 L-5.48877,5.83154 L-6.47559,0.288574 L-7.81934,0.288574"/>
</g>

<g fill="#3d97f1" fill-opacity="1" stroke="none" transform="matrix(1,0,0,1,0,0)"
font-family="MS Shell Dlg 2" font-size="7.8" font-weight="400" font-style="normal" 
>
</g>
</g>
</svg>
