<svg xmlns="http://www.w3.org/2000/svg" version="1.2" viewBox="0 0 42.52 42.52" height="56.693" width="56.693">
   <g stroke-linejoin="bevel" stroke-linecap="square" fill-rule="evenodd" stroke="none" fill="none" font-weight="400"
      font-size="7.8" font-family="'MS Shell Dlg 2'">
      <path
         d="M42.52 21.26C42.52 33 33 42.52 21.26 42.52 9.518 42.52 0 33 0 21.26 0 9.518 9.518 0 21.26 0 33 0 42.52 9.518 42.52 21.26"
         vector-effect="non-scaling-stroke" fill="#3d97f1" />
      <path
         d="M14.347 17.632H10.82v-2.12h9.301v2.12h-3.38v9.47h-2.394v-9.47m10.225 9.47l-3.779-11.59h2.478l2.414 8.797 2.54-8.797h2.478l-3.905 11.59h-2.226m10.855-15.79V32.54H6.222V11.313h29.205m-9.322 20.45c.378 0 .567-.196.567-.588a.658.658 0 00-.147-.389.49.49 0 00-.42-.2H15.502a.527.527 0 00-.42.2c-.112.133-.168.263-.168.389 0 .392.196.588.588.588h10.603m6.278 0c.308 0 .462-.196.462-.588a.658.658 0 00-.147-.389c-.098-.133-.203-.2-.315-.2-.21 0-.36.067-.452.2a.689.689 0 00-.136.389c0 .392.196.588.588.588m1.974-19.212H7.335v16.944h27.022V12.551"
         fill-opacity=".949" fill="#fff" />
   </g>
</svg>