<svg xmlns="http://www.w3.org/2000/svg" version="1.2" viewBox="0 0 42.52 42.52" height="56.693" width="56.693">
   <g stroke-linejoin="bevel" stroke-linecap="square" fill-rule="evenodd" stroke="none" fill="none" font-weight="400"
      font-size="7.8" font-family="'MS Shell Dlg 2'">
      <path
         d="M42.52 21.26C42.52 33 33 42.52 21.26 42.52 9.518 42.52 0 33 0 21.26 0 9.518 9.518 0 21.26 0 33 0 42.52 9.518 42.52 21.26"
         vector-effect="non-scaling-stroke" fill="#3d97f1" />
      <path
         d="M24.484 16.383c1.148-1.204 2.226-2.204 3.234-3.002.434-.35.871-.676 1.312-.977.441-.3.864-.538 1.27-.713a3.61 3.61 0 011.124-.305c.343-.028.626.063.85.273.196.224.287.508.273.85-.014.343-.105.732-.273 1.166-.168.434-.41.878-.724 1.333-.315.455-.648.9-.998 1.333-.826 1.036-1.826 2.142-3.002 3.318l1.28 14.319-1.805 2.352-3.317-13.06-7.559 6.404-.294 4.892-.777.777-2.372-3.906-4.116-2.582.861-.693 5.102-.084 6.11-7.873-12.597-3.822 1.973-1.155 14.445 1.155"
         fill-opacity=".949" fill="#fff" />
   </g>
</svg>