<svg xmlns="http://www.w3.org/2000/svg" version="1.2" viewBox="0 0 42.52 42.52" height="56.693" width="56.693">
   <g stroke-linejoin="bevel" stroke-linecap="square" fill-rule="evenodd" stroke="none" fill="none" font-weight="400"
      font-size="7.8" font-family="'MS Shell Dlg 2'">
      <path
         d="M42.52 21.26C42.52 33 33 42.52 21.26 42.52 9.518 42.52 0 33 0 21.26 0 9.518 9.518 0 21.26 0 33 0 42.52 9.518 42.52 21.26"
         vector-effect="non-scaling-stroke" fill="#3d97f1" />
      <path
         d="M25.345 23.396c0 .196-.098.294-.294.294-.168 0-.252-.098-.252-.294 0-.238.084-.357.252-.357.196 0 .294.119.294.357m-7.81.294a.405.405 0 01-.21-.063c-.07-.042-.105-.12-.105-.231 0-.084.035-.165.105-.242.07-.077.14-.115.21-.115.224 0 .336.119.336.357 0 .196-.112.294-.336.294m6.236-.651c.224 0 .336.119.336.357 0 .196-.112.294-.336.294a.405.405 0 01-.21-.063c-.07-.042-.105-.12-.105-.231 0-.084.035-.165.105-.242.07-.077.14-.115.21-.115m-.966.357c0 .196-.084.294-.252.294-.196 0-.294-.098-.294-.294 0-.238.098-.357.294-.357.168 0 .252.119.252.357m-1.197 0c0 .112-.028.189-.084.23a.28.28 0 01-.168.064c-.266 0-.399-.098-.399-.294 0-.238.133-.357.399-.357.056 0 .112.038.168.115a.405.405 0 01.084.242m-1.197 0c0 .196-.133.294-.399.294-.168 0-.252-.098-.252-.294 0-.238.084-.357.252-.357.266 0 .4.119.4.357m-1.596.294a.56.56 0 01-.252-.063c-.084-.042-.126-.12-.126-.231 0-.084.042-.165.126-.242a.376.376 0 01.251-.115c.196 0 .294.119.294.357 0 .196-.098.294-.294.294m9.197-3.821v3.905l1.595 1.596v1.28l-2.498-.798-2.54.798v-1.28l1.595-1.596v-3.905l-7.265 2.31v-1.765l7.265-4.556v-5.29a.79.79 0 01.263-.589c.175-.168.402-.252.682-.252.238 0 .448.084.63.252a.777.777 0 01.273.588v5.291l7.264 4.556v1.764l-7.264-2.31M16.4 23.859l7.37 4.556v1.764l-7.37-2.31v3.905l1.596 1.596v1.197l-2.457-.735-2.477.735v-1.197l1.574-1.596v-3.905l-7.348 2.31v-1.764l7.348-4.556v-5.291a.86.86 0 01.242-.599.758.758 0 01.577-.262h.084c.238 0 .441.087.609.262a.84.84 0 01.252.599v5.29"
         fill-opacity=".949" fill="#fff" />
   </g>
</svg>