<svg xmlns="http://www.w3.org/2000/svg" version="1.2" viewBox="0 0 42.52 42.52" height="56.693" width="56.693">
   <g stroke-linejoin="bevel" stroke-linecap="square" fill-rule="evenodd" stroke="none" fill="none" font-weight="400"
      font-size="7.8" font-family="'MS Shell Dlg 2'">
      <path
         d="M42.52 21.26C42.52 33 33 42.52 21.26 42.52 9.518 42.52 0 33 0 21.26 0 9.518 9.518 0 21.26 0 33 0 42.52 9.518 42.52 21.26"
         vector-effect="non-scaling-stroke" fill="#3d97f1" />
      <path
         d="M26.689 19.931l-1.848 2.058.987 6.278.861-.798 2.058-1.302-1.365 1.974-1.344 1.344.4 2.414-1.68 1.617-.945-1.722v-.084l-.441.441.609.693-.777.672-.61-.588-.587.588-.693-.672.588-.609-.588-.609.777-.777.588.61.65-.652-3.989-4.03-1.68 1.637.42 4.85-.944.945-2.415-2.499.357-2.351-1.638 1.574-1.07-.168-.252-1.154 1.574-1.638-2.351.44-2.499-2.498.945-.944 4.85.42 1.638-1.68-4.031-3.99-.735.735.504.588-.756.777-.525-.588-.693.588-.693-.672.61-.609-.61-.609.777-.776.693.609.525-.525-1.89-1.03 1.7-1.679 2.457.441 1.218-1.197 2.058-1.302-1.386 1.974-.714.735 6.362 1.113 1.974-1.848 1.196-.168 5.375-4.031 2.457-1.344-1.239 2.457-4.052 5.375-.168 1.196"
         fill-opacity=".949" fill="#fff" />
   </g>
</svg>