<svg xmlns="http://www.w3.org/2000/svg" version="1.2" viewBox="0 0 42.52 42.52" height="56.693" width="56.693">
   <g stroke-linejoin="bevel" stroke-linecap="square" fill-rule="evenodd" stroke="none" fill="none" font-weight="400"
      font-size="7.8" font-family="'MS Shell Dlg 2'">
      <path
         d="M42.52 21.26C42.52 33 33 42.52 21.26 42.52 9.518 42.52 0 33 0 21.26 0 9.518 9.518 0 21.26 0 33 0 42.52 9.518 42.52 21.26"
         vector-effect="non-scaling-stroke" fill="#3d97f1" />
      <path
         d="M25.22 22.64c1.231.742 2.435 1.48 3.61 2.215l3.14 1.963c.916.574 1.676 1.06 2.278 1.46.602.398.944.654 1.028.766.098.126.039.224-.178.294-.217.07-.497.119-.84.147a6.966 6.966 0 01-1.081 0 3.96 3.96 0 01-.945-.168c-.196-.056-.532-.214-1.008-.473a40.984 40.984 0 01-1.68-.976l-2.152-1.312a976.88 976.88 0 00-2.467-1.501l-5.249-.168.61 2.267c.14 0 .251.014.335.042.322.056.602.144.84.263.238.119.357.262.357.43 0 .14-.07.262-.21.367-.14.105-.318.193-.535.263a3.63 3.63 0 01-.651.147c-.217.028-.396.014-.536-.042-.63-.196-.903-.455-.819-.777a.912.912 0 01.22-.367c.12-.133.291-.228.515-.284l-.693-2.31-.944-.041c-.91.14-1.747.224-2.51.252-.762.028-1.403-.028-1.92-.168l-.378-.126-.252.818c.391.084.696.217.913.4.217.181.325.35.325.503 0 .14-.094.26-.283.357-.19.098-.41.168-.661.21-.252.042-.508.07-.767.084-.259.014-.465-.007-.62-.063-.307-.056-.549-.178-.724-.367-.175-.19-.234-.354-.178-.494.07-.168.21-.346.42-.535.21-.19.602-.256 1.176-.2l.252-.86c-.798-.28-1.323-.623-1.575-1.03a.972.972 0 00.21-.125l.042-.042c.028 0 .042-.014.042-.042l.042-.042.042-.042.042-.042v-.042l.042-.042v-.042l.042-.042h.609c.224 0 .455-.014.693-.042.224-.028.451-.05.682-.063.23-.014.43-.056.598-.126.168-.056.326-.112.473-.168.147-.056.22-.154.22-.294 0-.14-.112-.252-.336-.336-.154-.07-.381-.105-.682-.105-.301 0-.648.021-1.04.063-.49.056-.937.126-1.343.21-.084-.182-.238-.3-.462-.357a.293.293 0 00-.021-.126.186.186 0 01-.021-.084c.252-.28.591-.5 1.018-.661a4.623 4.623 0 011.375-.284l-1.532-3.989a234.346 234.346 0 01-2.478-1.88c-.644-.496-.98-.786-1.008-.87 0-.098.091-.13.273-.095.182.035.424.102.725.2.3.098.64.217 1.018.356.378.14.749.301 1.113.483.168.056.532.235 1.092.536.56.3 1.284.7 2.173 1.197a261.34 261.34 0 013.097 1.763c1.175.68 2.435 1.417 3.779 2.215.126.084.3.14.525.168.224.028.465.042.724.042.26 0 .525-.007.798-.02a6.08 6.08 0 00.661-.064 27.04 27.04 0 00-1.406-.965c-.378-.238-.553-.385-.525-.441.056-.126.266-.165.63-.116.364.05 1.056.312 2.078.787.098.028.182.056.252.084.07.028.133.063.19.105.713-.517 1.283-1.05 1.71-1.595.427-.546.872-.875 1.334-.987.056 0 .143-.007.262-.021.12-.014.235-.021.347-.021.112 0 .188.028.23.084.042.056.035.14-.02.252a4.415 4.415 0 00-.336.577c-.14.273-.319.567-.536.882-.217.315-.44.637-.672.966a7.869 7.869 0 01-.724.892c.798.392 1.512.791 2.141 1.197.63.406.973.637 1.03.693a.73.73 0 01.146.23c.042.099.021.169-.063.21-.084.043-.248.05-.493.022-.245-.028-.626-.14-1.144-.336-.252-.112-.658-.298-1.218-.557-.56-.258-.994-.535-1.302-.829-.21.154-.42.287-.63.399-.21.112-.434.224-.672.336m-1.196 1.848c-1.316-.826-2.6-1.642-3.853-2.446a471.485 471.485 0 00-3.244-2.069 57.323 57.323 0 01-4.136-2.75l1.217 3.443c.14-.084.347-.22.62-.41.273-.188.55-.353.83-.492a.366.366 0 00.178.104.366.366 0 01.178.105c-.35.112-.633.249-.85.41-.217.16-.298.255-.242.283.154.056.354.172.599.347s.507.353.787.535l.83.536c.272.175.514.276.724.304.084 0 .168-.094.252-.283.084-.19.14-.41.168-.662.574.336 1.196.714 1.868 1.134.672.42 1.372.86 2.1 1.323-.378.112-.745.217-1.102.315-.357.098-.71.175-1.06.23l4.136.043m-4.095 4.304c.154.056.322.077.504.063.182-.014.357-.05.525-.105-.168.322-.406.434-.714.336-.21-.084-.343-.182-.399-.294h.084m-7.558-1.113c-.21-.056-.343-.175-.4-.357a2.861 2.861 0 001.176-.042c-.153.35-.412.483-.776.399m-1.302-4.22c-.028.14-.05.297-.063.472a3.728 3.728 0 01-.105.599c-.084.406-.168.752-.252 1.039-.084.287-.154.416-.21.388-.056 0-.07-.15-.042-.451.028-.301.07-.654.126-1.06.056-.224.105-.417.147-.578.042-.16.091-.311.147-.451h-.042c-.602-.168-.93-.357-.987-.567-.056-.196.245-.406.903-.63a6.548 6.548 0 00-.168-.42 4.947 4.947 0 01-.168-.44 5.717 5.717 0 01-.294-1.124c-.042-.315-.035-.486.021-.514.056-.028.165.101.326.388.16.287.311.647.45 1.081.057.168.099.33.127.483.028.154.07.308.126.462.266 0 .455.126.567.378.35-.084.84-.154 1.47-.21.475-.056.888-.07 1.238-.042.35.028.525.084.525.168.028.084-.14.161-.504.231s-.784.133-1.26.189c-.573.07-1.05.07-1.427 0a.815.815 0 01-.19.399c-.097.112-.251.182-.461.21"
         fill-opacity=".949" fill="#fff" />
   </g>
</svg>