<?xml version="1.0" encoding="UTF-8" standalone="no"?>
<svg
   xmlns:dc="http://purl.org/dc/elements/1.1/"
   xmlns:cc="http://creativecommons.org/ns#"
   xmlns:rdf="http://www.w3.org/1999/02/22-rdf-syntax-ns#"
   xmlns:svg="http://www.w3.org/2000/svg"
   xmlns="http://www.w3.org/2000/svg"
   xmlns:sodipodi="http://sodipodi.sourceforge.net/DTD/sodipodi-0.dtd"
   xmlns:inkscape="http://www.inkscape.org/namespaces/inkscape"
   inkscape:version="1.0 (4035a4fb49, 2020-05-01)"
   sodipodi:docname="1126.svg"
   id="svg20"
   version="1.2"
   viewBox="0 0 42.519639 42.519639"
   height="14.999999mm"
   width="14.999999mm">
  <metadata
     id="metadata24">
    <rdf:RDF>
      <cc:Work
         rdf:about="">
        <dc:format>image/svg+xml</dc:format>
        <dc:type
           rdf:resource="http://purl.org/dc/dcmitype/StillImage" />
        <dc:title>Qt SVG Document</dc:title>
      </cc:Work>
    </rdf:RDF>
  </metadata>
  <sodipodi:namedview
     inkscape:current-layer="svg20"
     inkscape:window-maximized="0"
     inkscape:window-y="0"
     inkscape:window-x="0"
     inkscape:cy="28.346482"
     inkscape:cx="28.346482"
     inkscape:zoom="5.8410537"
     showgrid="false"
     id="namedview22"
     inkscape:window-height="480"
     inkscape:window-width="1034"
     inkscape:pageshadow="2"
     inkscape:pageopacity="0"
     guidetolerance="10"
     gridtolerance="10"
     objecttolerance="10"
     borderopacity="1"
     bordercolor="#666666"
     pagecolor="#ffffff" />
  <title
     id="title2">Qt SVG Document</title>
  <desc
     id="desc4">Generated with Qt</desc>
  <defs
     id="defs6" />
  <g
     transform="translate(5.25984,5.25984)"
     id="g18"
     stroke-linejoin="bevel"
     stroke-linecap="square"
     fill-rule="evenodd"
     stroke-width="1"
     stroke="#000000"
     fill="none">
    <g
       id="g10"
       font-style="normal"
       font-weight="400"
       font-size="7.8px"
       font-family="'MS Shell Dlg 2'"
       stroke="none"
       fill-opacity="1"
       fill="#3d97f1">
      <path
         id="path8"
         d="M 37.2598,16 C 37.2598,27.7415 27.7415,37.2598 16,37.2598 4.25851,37.2598 -5.25984,27.7415 -5.25984,16 -5.25984,4.25851 4.25851,-5.25984 16,-5.25984 27.7415,-5.25984 37.2598,4.25851 37.2598,16"
         fill-rule="evenodd"
         vector-effect="non-scaling-stroke" />
    </g>
    <g
       id="g14"
       font-style="normal"
       font-weight="400"
       font-size="7.8px"
       font-family="'MS Shell Dlg 2'"
       transform="translate(16,12.0315)"
       stroke="none"
       fill-opacity="0.94902"
       fill="#ffffff">
      <path
         id="path12"
         d="m 3.95947,5.34863 c 1.23177,0.74186 2.43555,1.48023 3.61133,2.21509 1.17578,0.73486 2.22209,1.38924 3.1389,1.96314 0.9168,0.57384 1.6762,1.06034 2.2781,1.45924 0.6019,0.3989 0.9448,0.6544 1.0288,0.7663 0.098,0.126 0.0385,0.224 -0.1785,0.294 -0.2169,0.07 -0.4969,0.119 -0.8398,0.147 -0.3429,0.028 -0.7034,0.028 -1.0813,0 -0.3779,-0.028 -0.6929,-0.084 -0.9448,-0.168 C 10.7762,11.9694 10.4403,11.8119 9.96436,11.553 9.48844,11.294 8.92855,10.9686 8.28467,10.5767 7.64079,10.1847 6.92342,9.74731 6.13257,9.2644 5.34172,8.78149 4.51937,8.28109 3.66553,7.76318 L -1.5835,7.59521 -0.974609,9.86279 c 0.139974,0 0.251953,0.014 0.335937,0.042 0.32194,0.05598 0.6018881,0.14351 0.839844,0.26241 0.237956,0.119 0.356933,0.2625 0.356933,0.4305 0,0.1399 -0.069987,0.2624 -0.20996,0.3674 -0.139974,0.105 -0.3184412,0.1925 -0.535401,0.2624 -0.216959,0.07 -0.433919,0.119 -0.650879,0.147 -0.216955,0.028 -0.395425,0.014 -0.535405,-0.042 -0.62988,-0.1959 -0.90283,-0.4549 -0.81884,-0.7768 0.02799,-0.112 0.10148,-0.2345 0.22046,-0.3675 0.11897,-0.1329 0.29044,-0.22743 0.5144,-0.28341 L -2.15039,7.59521 -3.09521,7.55322 C -4.00505,7.6932 -4.84139,7.77718 -5.60425,7.80518 -6.36711,7.83317 -7.00749,7.77718 -7.52539,7.63721 L -7.90332,7.51123 -8.15527,8.33008 c 0.39192,0.08398 0.69637,0.21696 0.91333,0.39892 0.21696,0.18197 0.32544,0.34994 0.32544,0.50391 0,0.13997 -0.09449,0.25895 -0.28345,0.35693 -0.18897,0.09799 -0.40943,0.16797 -0.66138,0.20996 -0.25195,0.042 -0.5074,0.06999 -0.76636,0.08399 C -8.88664,9.89779 -9.0931,9.87679 -9.24707,9.8208 -9.55501,9.76481 -9.79647,9.64233 -9.97144,9.45337 -10.1464,9.2644 -10.2059,9.09993 -10.1499,8.95996 -10.0799,8.79199 -9.93994,8.61353 -9.72998,8.42456 -9.52002,8.2356 -9.12809,8.16911 -8.5542,8.2251 L -8.30225,7.36426 C -9.1001,7.08431 -9.625,6.74137 -9.87695,6.33545 -9.76497,6.27946 -9.69499,6.23747 -9.66699,6.20947 L -9.625,6.16748 c 0.02799,0 0.04199,-0.014 0.04199,-0.04199 l 0.04199,-0.04199 0.042,-0.042 0.04199,-0.04199 V 5.95752 L -9.41504,5.91553 V 5.87354 l 0.04199,-0.042 c 0.18197,0 0.38493,0 0.60889,0 0.22396,0 0.45492,-0.01399 0.69287,-0.04199 0.22396,-0.02799 0.45142,-0.04899 0.68237,-0.06299 0.23096,-0.01399 0.43042,-0.05599 0.59839,-0.12597 0.16797,-0.05599 0.32544,-0.11198 0.47241,-0.16797 0.14698,-0.05599 0.22046,-0.15397 0.22046,-0.29395 0,-0.13997 -0.11198,-0.25195 -0.33593,-0.33594 -0.15398,-0.06998 -0.38143,-0.10498 -0.68238,-0.10498 -0.30094,0 -0.64738,0.021 -1.0393,0.06299 C -8.64518,4.81673 -9.0931,4.88672 -9.49902,4.9707 -9.58301,4.78874 -9.73698,4.66976 -9.96094,4.61377 c 0,-0.05599 -0.007,-0.09798 -0.02099,-0.12598 C -9.99593,4.4598 -10.0029,4.4318 -10.0029,4.40381 -9.75098,4.12386 -9.41154,3.9034 -8.98462,3.74243 -8.5577,3.58146 -8.09928,3.48698 -7.60938,3.45898 L -9.14209,-0.530273 C -10.1499,-1.28613 -10.9757,-1.91252 -11.6196,-2.40942 c -0.6439,-0.49691 -0.9798,-0.78736 -1.0078,-0.87134 0,-0.09798 0.0909,-0.12948 0.2729,-0.09448 0.182,0.03499 0.4234,0.10148 0.7244,0.19946 0.3009,0.09798 0.6404,0.21696 1.0183,0.35693 0.3779,0.13998 0.74884,0.30095 1.11278,0.48291 0.16797,0.05599 0.5319,0.23446 1.09179,0.5354 0.5599,0.30095 1.28426,0.69987 2.1731,1.19678 0.88883,0.496908 1.92114,1.084798 3.09692,1.76367 1.17578,0.67888 2.43555,1.41724 3.7793,2.21509 0.125976,0.08398 0.300944,0.13997 0.5249,0.16797 0.22396,0.02799 0.46542,0.04199 0.72437,0.04199 0.25895,0 0.5249,-0.007 0.79785,-0.021 C 2.96216,3.54997 3.18262,3.52897 3.35059,3.50098 2.79069,3.09505 2.32178,2.77311 1.94385,2.53516 1.56592,2.2972 1.39095,2.15023 1.41895,2.09424 1.47493,1.96826 1.6849,1.92977 2.04883,1.97876 2.41276,2.02775 3.10563,2.2902 4.12744,2.76611 4.22542,2.79411 4.30941,2.8221 4.37939,2.8501 4.44938,2.87809 4.51237,2.91309 4.56836,2.95508 5.28223,2.43717 5.85262,1.90527 6.27954,1.35938 6.70646,0.813477 7.15088,0.484538 7.61279,0.372559 c 0.05599,0 0.14348,-0.006999 0.26245,-0.020996 0.11898,-0.013998 0.23446,-0.020997 0.34644,-0.020997 0.11198,0 0.18896,0.027995 0.23096,0.083985 C 8.49463,0.47054 8.48763,0.554525 8.43164,0.666504 8.34766,0.778483 8.23568,0.970947 8.0957,1.2439 7.95573,1.51685 7.77726,1.81079 7.5603,2.12573 7.34334,2.44067 7.11938,2.76261 6.88843,3.09155 6.65747,3.42049 6.41602,3.71794 6.16406,3.98389 6.96191,4.37581 7.67578,4.77474 8.30566,5.18066 8.93555,5.58659 9.27848,5.81755 9.33447,5.87354 9.39046,5.92952 9.43945,6.00651 9.48145,6.10449 9.52344,6.20247 9.50244,6.27246 9.41846,6.31445 9.33447,6.35645 9.17,6.36344 8.92505,6.33545 8.68009,6.30745 8.29867,6.19548 7.78076,5.99951 7.52881,5.88753 7.12288,5.70207 6.56299,5.44312 6.00309,5.18416 5.56917,4.90771 5.26123,4.61377 5.05127,4.76774 4.84131,4.90072 4.63135,5.0127 4.42139,5.12467 4.19743,5.23665 3.95947,5.34863 M 2.7627,7.19629 C 1.44694,6.37044 0.162679,5.55509 -1.09009,4.75024 -2.34285,3.94539 -3.42415,3.25602 -4.33398,2.68213 -5.83171,1.7723 -7.21045,0.855469 -8.47021,-0.0683594 L -7.25244,3.375 c 0.13997,-0.08398 0.34643,-0.22046 0.61938,-0.40942 0.27295,-0.18897 0.5494,-0.35344 0.82935,-0.49341 0.05599,0.05599 0.11548,0.09098 0.17847,0.10498 0.06298,0.014 0.12247,0.04899 0.17846,0.10498 -0.34993,0.11198 -0.63338,0.24845 -0.85034,0.40942 -0.21696,0.16097 -0.29744,0.25546 -0.24145,0.28345 0.15397,0.05599 0.35343,0.17147 0.59838,0.34644 0.24496,0.17496 0.50741,0.35343 0.78736,0.5354 0.27995,0.18196 0.55639,0.36043 0.82934,0.5354 0.27295,0.17496 0.51441,0.27644 0.72437,0.30444 0.08398,0 0.16797,-0.09448 0.25195,-0.28345 0.08399,-0.18896 0.13998,-0.40942 0.16797,-0.66137 0.57389,0.33593 1.19678,0.71386 1.86865,1.13378 C -0.638672,5.70557 0.0611979,6.14648 0.789063,6.6084 0.411133,6.72038 0.0437012,6.82536 -0.313232,6.92334 -0.670166,7.02132 -1.0236,7.09831 -1.37354,7.1543 L 2.7627,7.19629 m -4.09424,4.30421 c 0.15397,0.056 0.32194,0.077 0.503903,0.063 0.181966,-0.014 0.356934,-0.049 0.524903,-0.105 -0.167969,0.3219 -0.405925,0.4339 -0.713866,0.3359 -0.20996,-0.084 -0.34294,-0.1819 -0.39893,-0.2939 h 0.08399 m -7.5586,-1.1128 c -0.20996,-0.056 -0.34293,-0.175 -0.39892,-0.3569 0.15397,0.028 0.32894,0.042 0.5249,0.042 0.19596,0 0.41292,-0.028 0.65088,-0.08403 -0.15397,0.34993 -0.41292,0.48293 -0.77686,0.39893 M -10.1919,6.16748 c -0.028,0.13997 -0.049,0.29745 -0.063,0.47241 -0.014,0.17497 -0.049,0.37443 -0.105,0.59839 -0.0839,0.40593 -0.1679,0.75236 -0.2519,1.03931 -0.084,0.28694 -0.154,0.41642 -0.21,0.38843 -0.056,0 -0.07,-0.15048 -0.042,-0.45142 0.028,-0.30094 0.07,-0.65438 0.126,-1.0603 0.056,-0.22396 0.105,-0.41643 0.147,-0.5774 0.042,-0.16097 0.091,-0.31144 0.147,-0.45141 h -0.042 c -0.6019,-0.16797 -0.9309,-0.35694 -0.9869,-0.5669 -0.0559,-0.19596 0.245,-0.40592 0.9029,-0.62988 -0.056,-0.15397 -0.112,-0.29394 -0.168,-0.41992 -0.056,-0.12598 -0.112,-0.27295 -0.168,-0.44092 -0.1539,-0.43392 -0.2519,-0.80835 -0.2939,-1.12329 -0.042,-0.31494 -0.035,-0.48641 0.021,-0.5144 0.056,-0.028 0.1645,0.10148 0.3254,0.38842 0.161,0.28695 0.3115,0.64738 0.4514,1.0813 0.056,0.16797 0.098,0.32894 0.126,0.48291 0.028,0.15397 0.07,0.30795 0.126,0.46192 0.26595,0 0.45491,0.12597 0.56689,0.37793 0.34994,-0.08399 0.83985,-0.15398 1.46973,-0.20996 0.47591,-0.05599 0.88883,-0.06999 1.23877,-0.042 0.34993,0.028 0.5249,0.08399 0.5249,0.16797 0.028,0.08399 -0.13997,0.16097 -0.50391,0.23096 -0.36393,0.06999 -0.78385,0.13297 -1.25976,0.18896 -0.57389,0.06999 -1.04981,0.06999 -1.42774,0 C -9.56901,5.71257 -9.632,5.84554 -9.72998,5.95752 -9.82796,6.0695 -9.98193,6.13949 -10.1919,6.16748"
         fill-rule="evenodd"
         vector-effect="none" />
    </g>
    <g
       id="g16"
       font-style="normal"
       font-weight="400"
       font-size="7.8px"
       font-family="'MS Shell Dlg 2'"
       stroke="none"
       fill-opacity="1"
       fill="#3d97f1" />
  </g>
</svg>
