<?xml version="1.0" encoding="UTF-8" standalone="no"?>
<svg width="11.25008mm" height="11.25008mm"
 viewBox="-5.3 -5.3 42.52000 42.52000"
 xmlns="http://www.w3.org/2000/svg" xmlns:xlink="http://www.w3.org/1999/xlink"  version="1.2" baseProfile="tiny">
<title>Qt SVG Document</title>
<desc>Generated with Qt</desc>
<defs>
</defs>
<g fill="none" stroke="black" stroke-width="1" fill-rule="evenodd" stroke-linecap="square" stroke-linejoin="bevel" >

<g fill="#3d97f1" fill-opacity="1" stroke="none" transform="matrix(1,0,0,1,0,0)"
font-family="MS Shell Dlg 2" font-size="7.8" font-weight="400" font-style="normal" 
>
<path vector-effect="non-scaling-stroke" fill-rule="evenodd" d="M37.2598,16 C37.2598,27.7415 27.7415,37.2598 16,37.2598 C4.25851,37.2598 -5.25984,27.7415 -5.25984,16 C-5.25984,4.25851 4.25851,-5.25984 16,-5.25984 C27.7415,-5.25984 37.2598,4.25851 37.2598,16 "/>
</g>

<g fill="#ffffff" fill-opacity="0.94902" stroke="none" transform="matrix(1,0,0,1,14.8661,13.1654)"
font-family="MS Shell Dlg 2" font-size="7.8" font-weight="400" font-style="normal" 
>
<path vector-effect="none" fill-rule="evenodd" d="M-2.69629,6.46143 L-8.68018,4.15186 C-9.28206,4.75374 -9.99593,5.05469 -10.8218,5.05469 C-11.6056,5.05469 -12.2775,4.79574 -12.8374,4.27783 C-13.3973,3.75993 -13.6772,3.10205 -13.6772,2.3042 C-13.6772,1.53434 -13.3973,0.883464 -12.8374,0.351563 C-12.2775,-0.180339 -11.6056,-0.446289 -10.8218,-0.446289 C-10.2199,-0.446289 -9.68449,-0.28182 -9.21558,0.0471191 C-8.74666,0.376058 -8.42122,0.799479 -8.23926,1.31738 L1.08301,1.31738 L1.08301,-3.67969 L-0.512695,-3.67969 C-0.680664,-3.35775 -0.897624,-3.19678 -1.16357,-3.19678 L-8.59619,-3.19678 C-8.70817,-3.19678 -8.84465,-3.25627 -9.00562,-3.37524 C-9.16659,-3.49422 -9.24707,-3.69368 -9.24707,-3.97363 C-9.24707,-4.21159 -9.16659,-4.37956 -9.00562,-4.47754 C-8.84465,-4.57552 -8.70817,-4.62451 -8.59619,-4.62451 L-1.16357,-4.62451 C-0.925618,-4.62451 -0.771647,-4.57552 -0.70166,-4.47754 C-0.631673,-4.37956 -0.568685,-4.29557 -0.512695,-4.22559 L3.74951,-4.22559 C3.8055,-4.32357 3.87549,-4.42855 3.95947,-4.54053 C4.04346,-4.65251 4.24642,-4.7085 4.56836,-4.7085 L11.665,-4.7085 C11.945,-4.7085 12.1444,-4.62101 12.2634,-4.44604 C12.3824,-4.27108 12.4419,-4.11361 12.4419,-3.97363 C12.4419,-3.53971 12.1549,-3.32275 11.5811,-3.32275 L4.48438,-3.32275 C4.42839,-3.32275 4.31291,-3.32275 4.13794,-3.32275 C3.96297,-3.32275 3.8335,-3.44173 3.74951,-3.67969 L2.1958,-3.67969 L2.1958,1.31738 L7.44482,1.31738 C8.1307,1.31738 8.80957,1.48185 9.48145,1.81079 C10.1533,2.13973 10.7342,2.78711 11.2241,3.75293 L12.5259,6.90234 C12.6379,7.1263 12.7078,7.35726 12.7358,7.59521 C12.7638,7.79118 12.7568,8.00464 12.7148,8.2356 C12.6729,8.46655 12.5819,8.66602 12.4419,8.83398 C12.1479,9.23991 11.8015,9.44987 11.4026,9.46387 C11.0037,9.47786 10.5732,9.48486 10.1113,9.48486 L-0.197754,9.48486 C-0.869629,9.48486 -1.28955,9.36239 -1.45752,9.11743 C-1.62549,8.87248 -1.76546,8.63802 -1.87744,8.41406 L-2.69629,6.46143 M6.98291,5.5166 L10.6782,5.5166 C10.6222,5.29264 10.5487,5.07218 10.4578,4.85522 C10.3668,4.63826 10.2793,4.4598 10.1953,4.31982 C9.99935,3.85791 9.7509,3.50448 9.44995,3.25952 C9.14901,3.01457 8.84806,2.8431 8.54712,2.74512 C8.24618,2.64714 7.95223,2.59814 7.66528,2.59814 C7.37834,2.59814 7.15088,2.59814 6.98291,2.59814 L6.98291,5.5166 M-0.0297852,5.5166 L5.21924,5.5166 L5.21924,2.38818 L-0.0297852,2.38818 L-0.0297852,5.5166 M-10.7378,3.41699 C-10.9757,3.33301 -11.1997,3.20353 -11.4097,3.02856 C-11.6196,2.8536 -11.7246,2.61214 -11.7246,2.3042 C-11.7246,1.98226 -11.6266,1.7373 -11.4307,1.56934 C-11.2347,1.40137 -11.0037,1.31738 -10.7378,1.31738 L-9.24707,1.31738 C-9.44303,1.07943 -9.67749,0.876465 -9.95044,0.708496 C-10.2234,0.540527 -10.5138,0.456543 -10.8218,0.456543 C-11.3117,0.456543 -11.7421,0.642008 -12.113,1.01294 C-12.484,1.38387 -12.6694,1.81429 -12.6694,2.3042 C-12.6694,2.8221 -12.484,3.25952 -12.113,3.61646 C-11.7421,3.97339 -11.3117,4.15186 -10.8218,4.15186 C-10.4019,4.15186 -10.0309,4.01888 -9.70898,3.75293 L-10.7378,3.41699 M11.3081,11.6265 C11.63,11.6265 11.9555,11.7139 12.2844,11.8889 C12.6134,12.0639 12.7778,12.3053 12.7778,12.6133 C12.7778,12.9072 12.6484,13.1522 12.3894,13.3481 C12.1305,13.5441 11.77,13.6421 11.3081,13.6421 L-1.66748,13.6421 C-1.96143,13.6421 -2.27287,13.5651 -2.60181,13.4111 C-2.93075,13.2572 -3.12321,13.0192 -3.1792,12.6973 C-3.1792,12.3893 -3.00773,12.1339 -2.66479,11.9309 C-2.32186,11.7279 -1.98942,11.6265 -1.66748,11.6265 L11.3081,11.6265"/>
</g>

<g fill="#3d97f1" fill-opacity="1" stroke="none" transform="matrix(1,0,0,1,0,0)"
font-family="MS Shell Dlg 2" font-size="7.8" font-weight="400" font-style="normal" 
>
</g>
</g>
</svg>
