<svg xmlns="http://www.w3.org/2000/svg" version="1.2" viewBox="0 0 42.52 42.52" height="56.693" width="56.693">
   <g stroke-linejoin="bevel" stroke-linecap="square" fill-rule="evenodd" stroke="none" fill="none" font-weight="400"
      font-size="7.8" font-family="'MS Shell Dlg 2'">
      <path
         d="M42.52 21.26C42.52 33 33 42.52 21.26 42.52 9.518 42.52 0 33 0 21.26 0 9.518 9.518 0 21.26 0 33 0 42.52 9.518 42.52 21.26"
         vector-effect="non-scaling-stroke" fill="#3d97f1" />
      <path
         d="M17.43 24.887l-5.984-2.31c-.602.602-1.316.903-2.142.903-.784 0-1.456-.259-2.015-.777-.56-.518-.84-1.176-.84-1.974 0-.77.28-1.42.84-1.952a2.823 2.823 0 012.015-.798c.602 0 1.137.164 1.606.493.47.33.795.753.977 1.27h9.322v-4.996h-1.596c-.168.321-.385.482-.65.482H11.53c-.112 0-.249-.059-.41-.178-.16-.119-.241-.318-.241-.598 0-.238.08-.406.241-.504.161-.098.298-.147.41-.147h7.432c.238 0 .392.049.462.147.07.098.133.182.19.252h4.261a3.07 3.07 0 01.21-.315c.084-.112.287-.168.61-.168h7.096c.28 0 .48.087.598.262.12.175.179.333.179.473 0 .434-.287.65-.861.65H24.264c-.175 0-.305-.118-.389-.356h-1.553v4.997h5.249a4.59 4.59 0 012.036.493c.672.329 1.253.976 1.743 1.942l1.302 3.15a2.084 2.084 0 01.189 1.333 1.27 1.27 0 01-.273.598c-.294.406-.64.616-1.04.63-.398.014-.829.021-1.29.021h-10.31c-.672 0-1.092-.122-1.26-.367a5.99 5.99 0 01-.42-.704l-.818-1.952m9.679-.945h3.695a4.593 4.593 0 00-.22-.662 4.264 4.264 0 00-.263-.535c-.196-.462-.444-.815-.745-1.06a2.835 2.835 0 00-.903-.515 2.84 2.84 0 00-.882-.147h-.682v2.919m-7.013 0h5.25v-3.129h-5.25v3.129m-10.708-2.1a2.181 2.181 0 01-.672-.388c-.21-.175-.315-.417-.315-.725 0-.321.098-.566.294-.734.196-.168.427-.252.693-.252h1.49a2.812 2.812 0 00-.703-.61 1.635 1.635 0 00-.87-.251c-.49 0-.921.185-1.292.556-.371.371-.556.802-.556 1.291 0 .518.185.956.556 1.313.37.357.801.535 1.291.535.42 0 .791-.133 1.113-.399l-1.029-.336m22.046 8.21c.322 0 .647.087.976.262.33.175.494.417.494.725 0 .293-.13.538-.389.734-.259.196-.62.294-1.081.294H18.458c-.293 0-.605-.077-.934-.23-.329-.155-.521-.393-.577-.714 0-.308.171-.564.514-.767.343-.203.676-.304.997-.304h12.976"
         fill-opacity=".949" fill="#fff" />
   </g>
</svg>