<?xml version="1.0" encoding="UTF-8" standalone="no"?>
<svg
   xmlns:dc="http://purl.org/dc/elements/1.1/"
   xmlns:cc="http://creativecommons.org/ns#"
   xmlns:rdf="http://www.w3.org/1999/02/22-rdf-syntax-ns#"
   xmlns:svg="http://www.w3.org/2000/svg"
   xmlns="http://www.w3.org/2000/svg"
   xmlns:sodipodi="http://sodipodi.sourceforge.net/DTD/sodipodi-0.dtd"
   xmlns:inkscape="http://www.inkscape.org/namespaces/inkscape"
   inkscape:version="1.0 (4035a4fb49, 2020-05-01)"
   sodipodi:docname="1127.svg"
   id="svg20"
   version="1.2"
   viewBox="0 0 42.519639 42.519639"
   height="14.999999mm"
   width="14.999999mm">
  <metadata
     id="metadata24">
    <rdf:RDF>
      <cc:Work
         rdf:about="">
        <dc:format>image/svg+xml</dc:format>
        <dc:type
           rdf:resource="http://purl.org/dc/dcmitype/StillImage" />
        <dc:title>Qt SVG Document</dc:title>
      </cc:Work>
    </rdf:RDF>
  </metadata>
  <sodipodi:namedview
     inkscape:current-layer="svg20"
     inkscape:window-maximized="0"
     inkscape:window-y="0"
     inkscape:window-x="0"
     inkscape:cy="28.346482"
     inkscape:cx="28.346482"
     inkscape:zoom="5.8410537"
     showgrid="false"
     id="namedview22"
     inkscape:window-height="480"
     inkscape:window-width="1034"
     inkscape:pageshadow="2"
     inkscape:pageopacity="0"
     guidetolerance="10"
     gridtolerance="10"
     objecttolerance="10"
     borderopacity="1"
     bordercolor="#666666"
     pagecolor="#ffffff" />
  <title
     id="title2">Qt SVG Document</title>
  <desc
     id="desc4">Generated with Qt</desc>
  <defs
     id="defs6" />
  <g
     transform="translate(5.25984,5.25984)"
     id="g18"
     stroke-linejoin="bevel"
     stroke-linecap="square"
     fill-rule="evenodd"
     stroke-width="1"
     stroke="#000000"
     fill="none">
    <g
       id="g10"
       font-style="normal"
       font-weight="400"
       font-size="7.8px"
       font-family="'MS Shell Dlg 2'"
       stroke="none"
       fill-opacity="1"
       fill="#3d97f1">
      <path
         id="path8"
         d="M 37.2598,16 C 37.2598,27.7415 27.7415,37.2598 16,37.2598 4.25851,37.2598 -5.25984,27.7415 -5.25984,16 -5.25984,4.25851 4.25851,-5.25984 16,-5.25984 27.7415,-5.25984 37.2598,4.25851 37.2598,16"
         fill-rule="evenodd"
         vector-effect="non-scaling-stroke" />
    </g>
    <g
       id="g14"
       font-style="normal"
       font-weight="400"
       font-size="7.8px"
       font-family="'MS Shell Dlg 2'"
       transform="translate(14.8661,13.1654)"
       stroke="none"
       fill-opacity="0.94902"
       fill="#ffffff">
      <path
         id="path12"
         d="M -2.69629,6.46143 -8.68018,4.15186 c -0.60188,0.60188 -1.31575,0.90283 -2.14162,0.90283 -0.7838,0 -1.4557,-0.25895 -2.0156,-0.77686 -0.5599,-0.5179 -0.8398,-1.17578 -0.8398,-1.97363 0,-0.76986 0.2799,-1.420736 0.8398,-1.952637 0.5599,-0.531902 1.2318,-0.797852 2.0156,-0.797852 0.6019,0 1.13731,0.164469 1.60622,0.4934081 0.46892,0.3289389 0.79436,0.7523599 0.97632,1.2702609 h 9.32227 v -4.99707 h -1.595705 c -0.167969,0.32194 -0.384929,0.48291 -0.650875,0.48291 h -7.43262 c -0.11198,0 -0.24846,-0.05949 -0.40943,-0.17846 -0.16097,-0.11898 -0.24145,-0.31844 -0.24145,-0.59839 0,-0.23796 0.08048,-0.40593 0.24145,-0.50391 0.16097,-0.09798 0.29745,-0.14697 0.40943,-0.14697 h 7.43262 c 0.237952,0 0.391923,0.04899 0.46191,0.14697 0.069987,0.09798 0.132975,0.18197 0.188965,0.25195 H 3.74951 C 3.8055,-4.32357 3.87549,-4.42855 3.95947,-4.54053 4.04346,-4.65251 4.24642,-4.7085 4.56836,-4.7085 H 11.665 c 0.28,0 0.4794,0.08749 0.5984,0.26246 0.119,0.17496 0.1785,0.33243 0.1785,0.47241 0,0.43392 -0.287,0.65088 -0.8608,0.65088 H 4.48438 c -0.05599,0 -0.17147,0 -0.34644,0 -0.17497,0 -0.30444,-0.11898 -0.38843,-0.35694 H 2.1958 v 4.99707 h 5.24902 c 0.68588,0 1.36475,0.16447 2.03663,0.49341 0.67185,0.32894 1.25275,0.97632 1.74265,1.94214 l 1.3018,3.14941 c 0.112,0.22396 0.1819,0.45492 0.2099,0.69287 0.028,0.19597 0.021,0.40943 -0.021,0.64039 -0.0419,0.23095 -0.1329,0.43042 -0.2729,0.59838 -0.294,0.40593 -0.6404,0.61589 -1.0393,0.62989 -0.3989,0.01399 -0.8294,0.02099 -1.2913,0.02099 H -0.197754 C -0.869629,9.48486 -1.28955,9.36239 -1.45752,9.11743 -1.62549,8.87248 -1.76546,8.63802 -1.87744,8.41406 L -2.69629,6.46143 M 6.98291,5.5166 H 10.6782 C 10.6222,5.29264 10.5487,5.07218 10.4578,4.85522 10.3668,4.63826 10.2793,4.4598 10.1953,4.31982 9.99935,3.85791 9.7509,3.50448 9.44995,3.25952 9.14901,3.01457 8.84806,2.8431 8.54712,2.74512 8.24618,2.64714 7.95223,2.59814 7.66528,2.59814 c -0.28694,0 -0.5144,0 -0.68237,0 V 5.5166 m -7.0126952,0 H 5.21924 V 2.38818 H -0.0297852 V 5.5166 M -10.7378,3.41699 c -0.2379,-0.08398 -0.4619,-0.21346 -0.6719,-0.38843 -0.2099,-0.17496 -0.3149,-0.41642 -0.3149,-0.72436 0,-0.32194 0.098,-0.5669 0.2939,-0.73486 0.196,-0.16797 0.427,-0.25196 0.6929,-0.25196 h 1.49073 C -9.44303,1.07943 -9.67749,0.876465 -9.95044,0.708496 -10.2234,0.540527 -10.5138,0.456543 -10.8218,0.456543 c -0.4899,0 -0.9203,0.185465 -1.2912,0.556397 -0.371,0.37093 -0.5564,0.80135 -0.5564,1.29126 0,0.5179 0.1854,0.95532 0.5564,1.31226 0.3709,0.35693 0.8013,0.5354 1.2912,0.5354 0.4199,0 0.7909,-0.13298 1.11282,-0.39893 L -10.7378,3.41699 m 22.0459,8.20951 c 0.3219,0 0.6474,0.0874 0.9763,0.2624 0.329,0.175 0.4934,0.4164 0.4934,0.7244 0,0.2939 -0.1294,0.5389 -0.3884,0.7348 -0.2589,0.196 -0.6194,0.294 -1.0813,0.294 H -1.66748 c -0.29395,0 -0.60539,-0.077 -0.93433,-0.231 -0.32894,-0.1539 -0.5214,-0.3919 -0.57739,-0.7138 0,-0.308 0.17147,-0.5634 0.51441,-0.7664 0.34293,-0.203 0.67537,-0.3044 0.99731,-0.3044 H 11.3081"
         fill-rule="evenodd"
         vector-effect="none" />
    </g>
    <g
       id="g16"
       font-style="normal"
       font-weight="400"
       font-size="7.8px"
       font-family="'MS Shell Dlg 2'"
       stroke="none"
       fill-opacity="1"
       fill="#3d97f1" />
  </g>
</svg>
