<?xml version="1.0" encoding="UTF-8" standalone="no"?>
<svg
   xmlns:dc="http://purl.org/dc/elements/1.1/"
   xmlns:cc="http://creativecommons.org/ns#"
   xmlns:rdf="http://www.w3.org/1999/02/22-rdf-syntax-ns#"
   xmlns:svg="http://www.w3.org/2000/svg"
   xmlns="http://www.w3.org/2000/svg"
   xmlns:sodipodi="http://sodipodi.sourceforge.net/DTD/sodipodi-0.dtd"
   xmlns:inkscape="http://www.inkscape.org/namespaces/inkscape"
   inkscape:version="1.0 (4035a4fb49, 2020-05-01)"
   sodipodi:docname="1128.svg"
   id="svg20"
   version="1.2"
   viewBox="0 0 42.519639 42.519639"
   height="14.999999mm"
   width="14.999999mm">
  <metadata
     id="metadata24">
    <rdf:RDF>
      <cc:Work
         rdf:about="">
        <dc:format>image/svg+xml</dc:format>
        <dc:type
           rdf:resource="http://purl.org/dc/dcmitype/StillImage" />
        <dc:title>Qt SVG Document</dc:title>
      </cc:Work>
    </rdf:RDF>
  </metadata>
  <sodipodi:namedview
     inkscape:current-layer="svg20"
     inkscape:window-maximized="0"
     inkscape:window-y="0"
     inkscape:window-x="0"
     inkscape:cy="28.346482"
     inkscape:cx="28.346482"
     inkscape:zoom="5.8410537"
     showgrid="false"
     id="namedview22"
     inkscape:window-height="480"
     inkscape:window-width="1034"
     inkscape:pageshadow="2"
     inkscape:pageopacity="0"
     guidetolerance="10"
     gridtolerance="10"
     objecttolerance="10"
     borderopacity="1"
     bordercolor="#666666"
     pagecolor="#ffffff" />
  <title
     id="title2">Qt SVG Document</title>
  <desc
     id="desc4">Generated with Qt</desc>
  <defs
     id="defs6" />
  <g
     transform="translate(5.25984,5.25984)"
     id="g18"
     stroke-linejoin="bevel"
     stroke-linecap="square"
     fill-rule="evenodd"
     stroke-width="1"
     stroke="#000000"
     fill="none">
    <g
       id="g10"
       font-style="normal"
       font-weight="400"
       font-size="7.8px"
       font-family="'MS Shell Dlg 2'"
       stroke="none"
       fill-opacity="1"
       fill="#3d97f1">
      <path
         id="path8"
         d="M 37.2598,16 C 37.2598,27.7415 27.7415,37.2598 16,37.2598 4.25851,37.2598 -5.25984,27.7415 -5.25984,16 -5.25984,4.25851 4.25851,-5.25984 16,-5.25984 27.7415,-5.25984 37.2598,4.25851 37.2598,16"
         fill-rule="evenodd"
         vector-effect="non-scaling-stroke" />
    </g>
    <g
       id="g14"
       font-style="normal"
       font-weight="400"
       font-size="7.8px"
       font-family="'MS Shell Dlg 2'"
       transform="translate(16,11.9181)"
       stroke="none"
       fill-opacity="0.94902"
       fill="#ffffff">
      <path
         id="path12"
         d="m 10.4473,-6.68213 v 1.23877 l -21.794,8.12549 V 1.48535 l 21.794,-8.16748 m -13.75248,4.19922 c -0.40592,0 -0.76635,-0.15047 -1.08129,-0.45142 -0.31495,-0.30094 -0.47242,-0.64738 -0.47242,-1.0393 0,-0.40593 0.15747,-0.75236 0.47242,-1.03931 0.31494,-0.28695 0.67537,-0.43042 1.08129,-0.43042 0.43392,0 0.79436,0.14347 1.0813,0.43042 0.28695,0.28695 0.43042,0.63338 0.43042,1.03931 0,0.39192 -0.14347,0.73836 -0.43042,1.0393 -0.28694,0.30095 -0.64738,0.45142 -1.0813,0.45142 M 7.10889,4.27783 c 0.22396,0 0.43042,0.08749 0.61938,0.26245 0.18897,0.17497 0.28345,0.41643 0.28345,0.72437 V 15.3218 c 0,0.2379 -0.09448,0.4479 -0.28345,0.6299 -0.18896,0.1819 -0.39542,0.2729 -0.61938,0.2729 H -7.25244 c -0.29395,0 -0.5319,-0.091 -0.71387,-0.2729 -0.18196,-0.182 -0.27295,-0.392 -0.27295,-0.6299 V 5.26465 c 0,-0.30794 0.09099,-0.5494 0.27295,-0.72437 0.18197,-0.17496 0.41992,-0.26245 0.71387,-0.26245 h 6.00488 V -0.488281 L 0.432129,-1.18115 0.915039,4.27783 H 7.10889 M 2.97266,6.56641 c 0,-0.37793 -0.15398,-0.5669 -0.46192,-0.5669 H -2.6123 c -0.13998,0 -0.26246,0.05599 -0.36744,0.16797 -0.10498,0.11198 -0.15747,0.24495 -0.15747,0.39893 v 0.41992 c 0,0.13997 0.05249,0.26245 0.15747,0.36743 0.10498,0.10498 0.22746,0.15747 0.36744,0.15747 h 5.12304 c 0.13998,0 0.25196,-0.05249 0.33594,-0.15747 C 2.93066,7.24878 2.97266,7.1263 2.97266,6.98633 V 6.56641 m -1.15479,-10.792 c -0.40592,0 -0.75236,-0.14347 -1.039306,-0.43042 -0.286946,-0.28694 -0.430419,-0.66137 -0.430419,-1.12329 0,-0.40592 0.143473,-0.75936 0.430419,-1.0603 0.286946,-0.30094 0.633386,-0.45142 1.039306,-0.45142 0.39193,0 0.73836,0.15048 1.03931,0.45142 0.30094,0.30094 0.45141,0.65438 0.45141,1.0603 0,0.46192 -0.15047,0.83635 -0.45141,1.12329 -0.30095,0.28695 -0.64738,0.43042 -1.03931,0.43042"
         fill-rule="evenodd"
         vector-effect="none" />
    </g>
    <g
       id="g16"
       font-style="normal"
       font-weight="400"
       font-size="7.8px"
       font-family="'MS Shell Dlg 2'"
       stroke="none"
       fill-opacity="1"
       fill="#3d97f1" />
  </g>
</svg>
