<svg xmlns="http://www.w3.org/2000/svg" version="1.2" viewBox="0 0 42.52 42.52" height="56.693" width="56.693">
   <g stroke-linejoin="bevel" stroke-linecap="square" fill-rule="evenodd" stroke="none" fill="none" font-weight="400"
      font-size="7.8" font-family="'MS Shell Dlg 2'">
      <path
         d="M42.52 21.26C42.52 33 33 42.52 21.26 42.52 9.518 42.52 0 33 0 21.26 0 9.518 9.518 0 21.26 0 33 0 42.52 9.518 42.52 21.26"
         vector-effect="non-scaling-stroke" fill="#3d97f1" />
      <path
         d="M31.707 10.496v1.239L9.913 19.86v-1.197l21.794-8.167m-13.752 4.199c-.406 0-.767-.15-1.082-.451-.315-.301-.472-.648-.472-1.04 0-.406.157-.752.472-1.039a1.56 1.56 0 011.082-.43c.434 0 .794.143 1.081.43.287.287.43.633.43 1.04 0 .391-.143.738-.43 1.039a1.431 1.431 0 01-1.081.451m10.414 6.76c.224 0 .43.088.62.263.188.175.283.417.283.725V32.5a.85.85 0 01-.284.63c-.189.182-.395.273-.62.273h-14.36c-.295 0-.532-.091-.714-.273a.865.865 0 01-.273-.63V22.443c0-.308.09-.55.273-.725.182-.175.42-.262.713-.262h6.005V16.69l1.68-.693.483 5.459h6.194m-4.136 2.288c0-.378-.154-.567-.462-.567h-5.123a.489.489 0 00-.368.168.563.563 0 00-.157.4v.42c0 .14.052.262.157.367a.504.504 0 00.368.157h5.123c.14 0 .252-.052.336-.157a.57.57 0 00.126-.368v-.42m-1.155-10.792c-.406 0-.753-.143-1.04-.43-.287-.287-.43-.661-.43-1.123 0-.406.143-.76.43-1.06.287-.302.634-.452 1.04-.452.392 0 .738.15 1.039.451.301.301.451.655.451 1.06 0 .463-.15.837-.451 1.124-.3.287-.647.43-1.04.43"
         fill-opacity=".949" fill="#fff" />
   </g>
</svg>