<?xml version="1.0" encoding="UTF-8" standalone="no"?>
<svg
   xmlns:dc="http://purl.org/dc/elements/1.1/"
   xmlns:cc="http://creativecommons.org/ns#"
   xmlns:rdf="http://www.w3.org/1999/02/22-rdf-syntax-ns#"
   xmlns:svg="http://www.w3.org/2000/svg"
   xmlns="http://www.w3.org/2000/svg"
   xmlns:sodipodi="http://sodipodi.sourceforge.net/DTD/sodipodi-0.dtd"
   xmlns:inkscape="http://www.inkscape.org/namespaces/inkscape"
   inkscape:version="1.0 (4035a4fb49, 2020-05-01)"
   sodipodi:docname="1301.svg"
   id="svg20"
   version="1.2"
   viewBox="0 0 42.519639 42.519639"
   height="14.999999mm"
   width="14.999999mm">
  <metadata
     id="metadata24">
    <rdf:RDF>
      <cc:Work
         rdf:about="">
        <dc:format>image/svg+xml</dc:format>
        <dc:type
           rdf:resource="http://purl.org/dc/dcmitype/StillImage" />
        <dc:title>Qt SVG Document</dc:title>
      </cc:Work>
    </rdf:RDF>
  </metadata>
  <sodipodi:namedview
     inkscape:current-layer="svg20"
     inkscape:window-maximized="0"
     inkscape:window-y="0"
     inkscape:window-x="0"
     inkscape:cy="28.346482"
     inkscape:cx="28.346482"
     inkscape:zoom="5.8410537"
     showgrid="false"
     id="namedview22"
     inkscape:window-height="480"
     inkscape:window-width="1034"
     inkscape:pageshadow="2"
     inkscape:pageopacity="0"
     guidetolerance="10"
     gridtolerance="10"
     objecttolerance="10"
     borderopacity="1"
     bordercolor="#666666"
     pagecolor="#ffffff" />
  <title
     id="title2">Qt SVG Document</title>
  <desc
     id="desc4">Generated with Qt</desc>
  <defs
     id="defs6" />
  <g
     transform="translate(5.25984,5.25984)"
     id="g18"
     stroke-linejoin="bevel"
     stroke-linecap="square"
     fill-rule="evenodd"
     stroke-width="1"
     stroke="#000000"
     fill="none">
    <g
       id="g10"
       font-style="normal"
       font-weight="400"
       font-size="7.8px"
       font-family="'MS Shell Dlg 2'"
       stroke="none"
       fill-opacity="1"
       fill="#f7901e">
      <path
         id="path8"
         d="M 37.2598,16 C 37.2598,27.7415 27.7415,37.2598 16,37.2598 4.25851,37.2598 -5.25984,27.7415 -5.25984,16 -5.25984,4.25851 4.25851,-5.25984 16,-5.25984 27.7415,-5.25984 37.2598,4.25851 37.2598,16"
         fill-rule="evenodd"
         vector-effect="non-scaling-stroke" />
    </g>
    <g
       id="g14"
       font-style="normal"
       font-weight="400"
       font-size="7.8px"
       font-family="'MS Shell Dlg 2'"
       transform="translate(16,13.7323)"
       stroke="none"
       fill-opacity="1"
       fill="#ffffff">
      <path
         id="path12"
         d="m -6.53857,5.87354 c 0.23795,0.13997 0.40592,0.34643 0.5039,0.61938 0.09798,0.27295 0.07699,0.5214 -0.06299,0.74536 l -0.65088,1.55371 c -0.16796,0.37793 -0.4969,0.5669 -0.98681,0.5669 -0.05599,0 -0.11898,0 -0.18897,0 -0.06998,0 -0.13297,-0.028 -0.18896,-0.08399 C -8.35124,9.17692 -8.5262,8.99495 -8.63818,8.729 -8.75016,8.46305 -8.73617,8.18311 -8.59619,7.88916 l 0.65088,-1.46973 c 0.30794,-0.60188 0.77685,-0.78385 1.40674,-0.54589 m 2.37255,0.73486 c 0.22396,0.08398 0.39543,0.26245 0.51441,0.5354 0.11898,0.27295 0.13647,0.5214 0.05249,0.74536 l -0.90283,2.18364 c -0.11198,0.2379 -0.26245,0.4059 -0.45142,0.5039 -0.18896,0.0979 -0.38143,0.1469 -0.57739,0.1469 -0.06999,0 -0.13298,0 -0.18897,0 -0.05599,0 -0.11198,-0.028 -0.16797,-0.084 -0.27994,-0.0839 -0.47241,-0.2624 -0.57739,-0.5354 -0.10498,-0.2729 -0.09448,-0.52135 0.0315,-0.74531 L -5.53076,7.1543 c 0.08398,-0.27995 0.26245,-0.47941 0.5354,-0.59839 0.27295,-0.11898 0.5494,-0.10148 0.82934,0.05249 m 2.33057,0.71387 c 0.27995,0.09798 0.47941,0.27994 0.59839,0.54589 0.11898,0.26595 0.12948,0.51791 0.03149,0.75586 l -0.94482,2.49858 c -0.08399,0.2239 -0.22396,0.3849 -0.41992,0.4829 -0.19597,0.098 -0.38493,0.1469 -0.5669,0.1469 -0.05599,0 -0.11897,0 -0.18896,0 -0.06999,0 -0.13298,-0.028 -0.18897,-0.0839 -0.23795,-0.112 -0.41292,-0.2905 -0.5249,-0.5354 -0.11198,-0.245 -0.12598,-0.4935 -0.04199,-0.7454 l 0.94482,-2.49854 c 0.08399,-0.22396 0.26245,-0.39543 0.5354,-0.5144 0.27295,-0.11898 0.52841,-0.13648 0.76636,-0.05249 m 2.09961,1.55371 c 0.293945,0.11198 0.496908,0.28344 0.608887,0.5144 0.111979,0.23096 0.097982,0.49341 -0.041992,0.78732 l -0.650879,1.9317 c -0.1959638,0.4199 -0.5389,0.6299 -1.028809,0.6299 -0.111979,0 -0.195967,-0.028 -0.251957,-0.084 -0.29394,-0.084 -0.4969,-0.2485 -0.60888,-0.4934 -0.11198,-0.245 -0.12598,-0.5074 -0.04199,-0.7874 L -1.10059,9.44287 C -0.960612,9.14893 -0.768148,8.94596 -0.523193,8.83398 -0.278239,8.72201 -0.0157878,8.736 0.26416,8.87598 M 7.69678,-2.25195 10.0273,5.87354 9.46045,6.12549 3.30859,-0.236328 1.16699,-0.320313 -0.302734,1.98926 c -0.223959,0.34993 -0.493409,0.55289 -0.808346,0.60888 -0.31495,0.05599 -0.63339,0.05599 -0.95533,0 -0.33593,-0.08398 -0.69287,-0.22395 -1.0708,-0.41992 l 2.750491,-4.34619 c 0.181966,-0.34993 0.524903,-0.5249 1.028809,-0.5249 l 6.71875,0.35693 0.33594,0.08399 m 5.37502,-1.84766 c 0.2939,0.79785 0.4969,1.79867 0.6089,3.00244 0.1119,1.0358093 0.1539,2.35506 0.1259,3.95777 -0.028,1.6027 -0.2099,3.55183 -0.5459,5.84741 L 11.959,8.87598 8.55762,-2.81885 13.0718,-4.09961 M 2.67871,11.2905 c 0.16797,0.224 0.25195,0.4794 0.25195,0.7664 0,0.2869 -0.11198,0.5144 -0.33593,0.6824 -0.20996,0.2099 -0.46892,0.3149 -0.77686,0.3149 -0.29394,0 -0.5389,-0.105 -0.73486,-0.3149 l -0.33594,-0.42 0.71387,-1.8476 c 0,-0.056 0.01399,-0.105 0.04199,-0.147 0.02799,-0.042 0.04199,-0.091 0.04199,-0.147 l 1.13379,1.1128 m 6.4458,-4.1362 c 0.22396,0.18196 0.33594,0.40592 0.33594,0.67187 0,0.26595 -0.11198,0.50391 -0.33594,0.71387 C 8.90055,8.79199 8.6416,8.87598 8.34766,8.79199 8.06771,8.79199 7.82275,8.70801 7.61279,8.54004 7.15088,8.05013 6.73796,7.60221 6.37402,7.19629 6.05208,6.86035 5.74064,6.54191 5.4397,6.24097 5.13875,5.94002 4.94629,5.74756 4.8623,5.66357 4.72233,5.48161 4.57186,5.46411 4.41089,5.61108 4.24992,5.75806 4.24642,5.90153 4.40039,6.0415 l 2.79248,2.91846 c 0.22396,0.23796 0.32194,0.50041 0.29395,0.78735 -0.028,0.28699 -0.12598,0.52839 -0.29395,0.72439 -0.23795,0.1679 -0.49691,0.2519 -0.77685,0.2519 -0.29395,0 -0.5389,-0.1119 -0.73487,-0.3359 C 5.10726,9.8138 4.60335,9.2819 4.16943,8.79199 3.77751,8.38607 3.43107,8.00464 3.13013,7.64771 2.82918,7.29077 2.65072,7.08431 2.59473,7.02832 2.46875,6.88835 2.34977,6.86735 2.23779,6.96533 2.12581,7.06331 2.11182,7.18229 2.1958,7.32227 2.25179,7.39225 2.43026,7.58472 2.7312,7.89966 3.03215,8.2146 3.35758,8.54004 3.70752,8.87598 4.11344,9.2819 4.55436,9.74382 5.03027,10.2617 c 0.20996,0.224 0.30795,0.4794 0.29395,0.7664 -0.014,0.2869 -0.13998,0.5284 -0.37793,0.7243 -0.16797,0.182 -0.41292,0.273 -0.73486,0.273 -0.25196,0 -0.48991,-0.119 -0.71387,-0.3569 L 1.54492,9.61084 C 1.54492,9.49886 1.48893,9.32389 1.37695,9.08594 1.18099,8.66602 0.866048,8.35107 0.432129,8.14111 0.32015,8.08512 0.138184,8.05713 -0.11377,8.05713 h -0.440918 c 0,-0.08399 0,-0.16797 0,-0.25195 0,-0.08399 -0.027994,-0.15398 -0.083984,-0.20997 C -0.750651,7.35726 -0.894124,7.1613 -1.06909,7.00732 -1.24406,6.85335 -1.44352,6.74837 -1.66748,6.69238 -1.77946,6.5804 -1.94043,6.52441 -2.15039,6.52441 c -0.33594,0 -0.63688,0.08399 -0.90283,0.25196 -0.19597,-0.40593 -0.51091,-0.70687 -0.94483,-0.90283 -0.08398,0 -0.16797,-0.014 -0.25195,-0.042 -0.08398,-0.02799 -0.16797,-0.04199 -0.25195,-0.04199 -0.20996,0 -0.39893,0.014 -0.5669,0.04199 -0.16797,0.028 -0.32194,0.06999 -0.46191,0.12598 C -5.71273,5.66357 -5.98568,5.41862 -6.34961,5.22266 -6.43359,5.16667 -6.52808,5.13167 -6.63306,5.11768 c -0.10498,-0.014 -0.22745,-0.049 -0.36743,-0.10498 -0.32194,0 -0.64738,0.10848 -0.97632,0.32543 -0.32894,0.21696 -0.56339,0.47942 -0.70337,0.78736 L -8.93213,6.77637 -9.96094,6.6084 -6.83252,-1.39111 -1.83545,-1.30713 -4.25,2.43018 -3.59912,2.80811 c 0.05599,0.05599 0.24145,0.15047 0.5564,0.28344 0.31494,0.13298 0.71736,0.22746 1.20727,0.28345 0.44792,0.05599 0.839845,-0.0105 1.175782,-0.19946 C -0.32373,2.98657 -0.0157878,2.73812 0.26416,2.43018 V 2.34619 L 1.46094,0.414551 2.84668,0.498535 6.87793,4.76074 9.12451,7.1543 M -7.56738,-2.16797 -12.2495,9.08594 -13.5303,8.79199 c -0.126,-2.32357 -0.1015,-4.2867 0.0735,-5.8894 0.175,-1.6027 0.3744,-2.9219585 0.5984,-3.95777 0.2939,-1.17578 0.6089,-2.1486 0.9448,-2.91845 l 4.34622,1.80566"
         fill-rule="evenodd"
         vector-effect="none" />
    </g>
    <g
       id="g16"
       font-style="normal"
       font-weight="400"
       font-size="7.8px"
       font-family="'MS Shell Dlg 2'"
       stroke="none"
       fill-opacity="1"
       fill="#f7901e" />
  </g>
</svg>
