<svg xmlns="http://www.w3.org/2000/svg" version="1.2" viewBox="0 0 42.52 42.52" height="56.693" width="56.693">
   <g stroke-linejoin="bevel" stroke-linecap="square" fill-rule="evenodd" stroke="none" fill="none" font-weight="400"
      font-size="7.8" font-family="'MS Shell Dlg 2'">
      <path
         d="M42.52 21.26C42.52 33 33 42.52 21.26 42.52 9.518 42.52 0 33 0 21.26 0 9.518 9.518 0 21.26 0 33 0 42.52 9.518 42.52 21.26"
         vector-effect="non-scaling-stroke" fill="#f7901e" />
      <path
         d="M14.721 24.866c.238.14.406.346.504.62.098.272.077.52-.063.744l-.65 1.554c-.169.378-.498.567-.988.567h-.188a.261.261 0 01-.19-.084.96.96 0 01-.524-.546c-.112-.266-.098-.546.042-.84l.65-1.47c.308-.601.777-.783 1.407-.545m2.373.735c.224.084.395.262.514.535.12.273.137.521.053.745l-.903 2.184c-.112.238-.263.406-.452.504a1.242 1.242 0 01-.577.147h-.189c-.056 0-.112-.028-.168-.084a.85.85 0 01-.577-.536c-.105-.273-.095-.521.031-.745l.903-2.205a.913.913 0 01.535-.598c.273-.119.55-.101.83.053m2.33.713c.28.098.48.28.599.546s.13.518.031.756l-.945 2.499a.848.848 0 01-.42.483 1.266 1.266 0 01-.566.147h-.19a.261.261 0 01-.188-.084 1.058 1.058 0 01-.525-.536.984.984 0 01-.042-.745l.945-2.499c.084-.224.262-.395.535-.514.273-.12.528-.137.766-.053m2.1 1.554c.294.112.497.284.609.515.112.23.098.493-.042.787l-.651 1.932c-.196.42-.539.63-1.029.63-.112 0-.196-.029-.252-.085-.294-.084-.497-.248-.609-.493a1.086 1.086 0 01-.042-.787l.651-1.932c.14-.294.333-.497.578-.609.245-.112.507-.098.787.042m7.433-11.128l2.33 8.126-.567.252-6.152-6.362-2.141-.084-1.47 2.31c-.224.35-.493.552-.808.608a2.738 2.738 0 01-.956 0 4.962 4.962 0 01-1.07-.42l2.75-4.346c.182-.35.525-.525 1.029-.525l6.719.357.336.084m5.375-1.847c.294.797.497 1.798.609 3.002.111 1.036.153 2.355.125 3.958-.028 1.602-.21 3.552-.545 5.847l-1.302.168-3.402-11.695 4.515-1.28m-10.393 15.39c.168.224.251.479.251.766a.808.808 0 01-.335.682c-.21.21-.47.315-.777.315a.964.964 0 01-.735-.315l-.336-.42.714-1.847c0-.056.014-.105.042-.147a.259.259 0 00.042-.147l1.134 1.113m6.445-4.137a.835.835 0 01.336.672c0 .266-.112.504-.336.714-.224.252-.483.336-.777.252-.28 0-.524-.084-.734-.252-.462-.49-.875-.938-1.24-1.344a62.895 62.895 0 00-.933-.955l-.578-.577c-.14-.182-.29-.2-.451-.053-.161.147-.165.29-.01.43l2.792 2.92c.224.237.322.5.294.786a1.272 1.272 0 01-.294.725 1.32 1.32 0 01-.777.252.936.936 0 01-.735-.336 36.632 36.632 0 01-1.512-1.596 23.102 23.102 0 01-1.039-1.144c-.301-.357-.48-.564-.535-.62-.126-.14-.245-.16-.357-.063-.112.098-.126.217-.042.357.056.07.234.263.535.578.301.315.626.64.976.976.406.406.847.868 1.323 1.386.21.224.308.48.294.766a.97.97 0 01-.378.725c-.168.182-.413.273-.735.273-.252 0-.49-.12-.714-.357l-1.952-2.058c0-.112-.056-.287-.168-.525a1.938 1.938 0 00-.945-.945c-.112-.056-.294-.084-.546-.084h-.44v-.252a.285.285 0 00-.085-.21 1.78 1.78 0 00-.43-.588 1.412 1.412 0 00-.599-.314c-.112-.112-.273-.168-.483-.168-.335 0-.636.084-.902.252a1.86 1.86 0 00-.945-.903.792.792 0 01-.252-.042.793.793 0 00-.252-.042c-.21 0-.399.014-.567.042-.168.028-.322.07-.462.126-.182-.294-.455-.54-.819-.735a.661.661 0 00-.283-.105 1.576 1.576 0 01-.368-.105c-.322 0-.647.108-.976.325-.329.217-.563.48-.703.788l-.252.65-1.03-.167 3.13-8 4.996.084-2.414 3.737.65.378c.057.056.242.15.557.284.315.133.717.227 1.207.283.448.056.84-.01 1.176-.2a3.7 3.7 0 00.924-.745v-.084l1.197-1.931 1.386.084 4.03 4.262 2.247 2.393m-16.692-9.322L9.01 28.078l-1.28-.294c-.126-2.323-.102-4.287.073-5.89.175-1.602.374-2.921.598-3.957.294-1.176.61-2.149.945-2.918l4.346 1.805"
         fill="#fff" />
   </g>
</svg>