<svg xmlns="http://www.w3.org/2000/svg" version="1.2" viewBox="0 0 42.52 42.52" height="56.693" width="56.693">
   <g stroke-linejoin="bevel" stroke-linecap="square" fill-rule="evenodd" stroke="none" fill="none" font-weight="400"
      font-size="7.8" font-family="'MS Shell Dlg 2'">
      <path
         d="M42.52 21.26C42.52 33 33 42.52 21.26 42.52 9.518 42.52 0 33 0 21.26 0 9.518 9.518 0 21.26 0 33 0 42.52 9.518 42.52 21.26"
         vector-effect="non-scaling-stroke" fill="#f7901e" />
      <path
         d="M21.44 7.859c1.89 0 3.674.364 5.354 1.092a13.847 13.847 0 014.388 2.981 14.215 14.215 0 012.96 4.43c.729 1.694 1.092 3.5 1.092 5.417 0 1.918-.363 3.716-1.091 5.396a14.283 14.283 0 01-2.96 4.41 13.993 13.993 0 01-4.389 2.991 13.21 13.21 0 01-5.354 1.103c-1.918 0-3.723-.368-5.417-1.103a14.18 14.18 0 01-4.43-2.992A14.246 14.246 0 018.6 27.175c-.735-1.68-1.102-3.478-1.102-5.396 0-1.918.367-3.723 1.102-5.417a14.178 14.178 0 012.992-4.43 14.033 14.033 0 014.43-2.981c1.694-.728 3.5-1.092 5.417-1.092m12.03 12.975a12.517 12.517 0 00-.829-3.548 11.434 11.434 0 00-1.732-2.981l-1.448.577c-.476.189-.973.34-1.491.451.238.826.42 1.701.546 2.625.126.924.217 1.882.273 2.876h4.682m-3.822-8a15.794 15.794 0 00-1.805-1.332 13.533 13.533 0 00-2.058-1.06c.308.475.599.972.872 1.49.272.518.542 1.092.808 1.722.364-.112.724-.238 1.081-.378s.725-.287 1.102-.441m-2.708 8c0-.883-.063-1.747-.189-2.594a15.043 15.043 0 00-.546-2.383c-.742.14-1.515.238-2.32.294-.805.056-1.592.084-2.362.084-.882 0-1.74-.028-2.572-.084a10.818 10.818 0 01-2.425-.44 20.692 20.692 0 00-.525 2.508c-.126.861-.189 1.732-.189 2.614h11.128m-11.128 1.764a18.042 18.042 0 00.714 5.081c.784-.14 1.568-.262 2.351-.367a18.33 18.33 0 012.436-.158c.826 0 1.655.053 2.488.158.833.105 1.634.227 2.404.367.238-.742.42-1.543.546-2.404.126-.86.189-1.753.189-2.677H15.813M21.44 9.622c-.896 0-1.722.4-2.478 1.197-.755.798-1.392 1.89-1.91 3.276.742.14 1.48.238 2.215.294.735.055 1.487.083 2.257.083.658 0 1.347-.028 2.068-.083.721-.056 1.424-.154 2.11-.294-.518-1.386-1.151-2.478-1.9-3.276-.749-.798-1.536-1.197-2.362-1.197m-4.472.82a9.18 9.18 0 00-1.953.997c-.616.412-1.21.878-1.784 1.396a43.372 43.372 0 002.058.819c.265-.63.531-1.204.797-1.722s.56-1.015.882-1.49m-4.997 3.737c-1.568 1.89-2.47 4.108-2.709 6.655h4.703c.056-.994.147-1.952.273-2.876.126-.924.308-1.799.546-2.625-.49-.168-.98-.346-1.47-.535-.49-.189-.937-.395-1.343-.62m-2.709 8.42c.238 2.492 1.099 4.717 2.583 6.677.49-.238.973-.455 1.449-.651.475-.196.972-.371 1.49-.525a18.556 18.556 0 01-.546-2.614 35.822 35.822 0 01-.273-2.887H9.262m3.843 8c.573.517 1.19.983 1.847 1.396.658.413 1.33.752 2.016 1.018a9.282 9.282 0 01-.882-1.47 36.052 36.052 0 01-.798-1.763l-1.102.409c-.357.133-.718.27-1.081.41m8.335 3.233c.826 0 1.613-.389 2.362-1.165.749-.777 1.382-1.852 1.9-3.223-.756-.14-1.49-.263-2.204-.368a15 15 0 00-2.184-.157c-.742 0-1.466.045-2.173.136-.707.091-1.403.193-2.09.305.519 1.371 1.156 2.46 1.911 3.265.756.804 1.582 1.207 2.478 1.207m4.346-.819a12.06 12.06 0 001.995-.997 10.809 10.809 0 001.743-1.334c-.322-.14-.655-.283-.998-.43a10.61 10.61 0 00-1.06-.388c-.266.63-.536 1.203-.808 1.721-.273.518-.564.994-.872 1.428m5.123-3.737a12.43 12.43 0 001.732-3.066c.441-1.12.718-2.323.83-3.611h-4.682a36.855 36.855 0 01-.273 2.95c-.126.93-.308 1.81-.546 2.635.518.182 1.015.35 1.49.504.476.154.96.35 1.45.588"
         fill-opacity=".949" fill="#fff" />
   </g>
</svg>