<?xml version="1.0" encoding="UTF-8" standalone="no"?>
<svg
   xmlns:dc="http://purl.org/dc/elements/1.1/"
   xmlns:cc="http://creativecommons.org/ns#"
   xmlns:rdf="http://www.w3.org/1999/02/22-rdf-syntax-ns#"
   xmlns:svg="http://www.w3.org/2000/svg"
   xmlns="http://www.w3.org/2000/svg"
   xmlns:sodipodi="http://sodipodi.sourceforge.net/DTD/sodipodi-0.dtd"
   xmlns:inkscape="http://www.inkscape.org/namespaces/inkscape"
   inkscape:version="1.0 (4035a4fb49, 2020-05-01)"
   sodipodi:docname="1303.svg"
   id="svg20"
   version="1.2"
   viewBox="0 0 42.519639 42.519639"
   height="14.999999mm"
   width="14.999999mm">
  <metadata
     id="metadata24">
    <rdf:RDF>
      <cc:Work
         rdf:about="">
        <dc:format>image/svg+xml</dc:format>
        <dc:type
           rdf:resource="http://purl.org/dc/dcmitype/StillImage" />
        <dc:title>Qt SVG Document</dc:title>
      </cc:Work>
    </rdf:RDF>
  </metadata>
  <sodipodi:namedview
     inkscape:current-layer="svg20"
     inkscape:window-maximized="0"
     inkscape:window-y="0"
     inkscape:window-x="0"
     inkscape:cy="28.346482"
     inkscape:cx="28.346482"
     inkscape:zoom="5.8410537"
     showgrid="false"
     id="namedview22"
     inkscape:window-height="480"
     inkscape:window-width="1034"
     inkscape:pageshadow="2"
     inkscape:pageopacity="0"
     guidetolerance="10"
     gridtolerance="10"
     objecttolerance="10"
     borderopacity="1"
     bordercolor="#666666"
     pagecolor="#ffffff" />
  <title
     id="title2">Qt SVG Document</title>
  <desc
     id="desc4">Generated with Qt</desc>
  <defs
     id="defs6" />
  <g
     transform="translate(5.25984,5.25984)"
     id="g18"
     stroke-linejoin="bevel"
     stroke-linecap="square"
     fill-rule="evenodd"
     stroke-width="1"
     stroke="#000000"
     fill="none">
    <g
       id="g10"
       font-style="normal"
       font-weight="400"
       font-size="7.8px"
       font-family="'MS Shell Dlg 2'"
       stroke="none"
       fill-opacity="1"
       fill="#f7901e">
      <path
         id="path8"
         d="M 37.2598,16 C 37.2598,27.7415 27.7415,37.2598 16,37.2598 4.25851,37.2598 -5.25984,27.7415 -5.25984,16 -5.25984,4.25851 4.25851,-5.25984 16,-5.25984 27.7415,-5.25984 37.2598,4.25851 37.2598,16"
         fill-rule="evenodd"
         vector-effect="non-scaling-stroke" />
    </g>
    <g
       id="g14"
       font-style="normal"
       font-weight="400"
       font-size="7.8px"
       font-family="'MS Shell Dlg 2'"
       transform="translate(16,12.0315)"
       stroke="none"
       fill-opacity="0.94902"
       fill="#ffffff">
      <path
         id="path12"
         d="m 12.6099,5.70557 c 0.056,0.19596 0.1399,0.40242 0.2519,0.61938 0.112,0.21696 0.224,0.40943 0.336,0.57739 0.1259,0.22396 0.2729,0.44092 0.4409,0.65088 C 13.1208,7.60921 12.5259,7.54972 11.854,7.37476 11.1821,7.19979 10.5033,6.96883 9.81738,6.68188 9.13151,6.39494 8.45614,6.073 7.79126,5.71606 7.12638,5.35913 6.53499,5.0057 6.01709,4.65576 5.51318,4.34782 5.02327,4.14486 4.54736,4.04688 4.07145,3.94889 3.64453,3.9139 3.2666,3.94189 2.84668,3.96989 2.44775,4.05387 2.06982,4.19385 l 0.81885,-8.81836 c 0.40593,0.02799 0.81885,0.09798 1.23877,0.20996 0.34994,0.08398 0.73137,0.20646 1.14429,0.36743 0.41292,0.16097 0.78035,0.40243 1.10229,0.72437 0.43392,0.36393 0.82935,0.77685 1.18628,1.23877 0.35694,0.46191 0.72087,0.92032 1.0918,1.37524 0.37093,0.454915 0.78735,0.878336 1.24927,1.270263 0.46193,0.391928 1.03583,0.699867 1.72163,0.923827 0.056,0.43392 0.14,0.88884 0.252,1.36475 0.084,0.40592 0.1855,0.86084 0.3044,1.36474 0.119,0.50391 0.2625,1.00082 0.4305,1.49073 M -1.91943,4.19385 C -2.29736,4.05387 -2.70329,3.96989 -3.13721,3.94189 -3.50114,3.9139 -3.92806,3.94889 -4.41797,4.04688 -4.90788,4.14486 -5.39779,4.34782 -5.8877,4.65576 -6.43359,5.0057 -7.04248,5.35913 -7.71436,5.71606 -8.38623,6.073 -9.0651,6.39494 -9.75098,6.68188 c -0.68582,0.28695 -1.36822,0.51791 -2.04712,0.69288 -0.6789,0.17496 -1.2703,0.23445 -1.7742,0.17846 0.168,-0.20996 0.308,-0.42692 0.42,-0.65088 0.1119,-0.16796 0.2274,-0.36043 0.3464,-0.57739 0.119,-0.21696 0.2065,-0.42342 0.2624,-0.61938 0.168,-0.48991 0.3255,-0.98682 0.4725,-1.49073 0.1469,-0.5039 0.2624,-0.95882 0.3464,-1.36474 0.112,-0.47591 0.196,-0.93083 0.2519,-1.36475 0.6579,-0.22396 1.2178,-0.531899 1.67973,-0.923827 0.46192,-0.391927 0.87834,-0.815348 1.24927,-1.270263 0.37093,-0.45492 0.72786,-0.91333 1.0708,-1.37524 0.34294,-0.46192 0.73136,-0.87484 1.16528,-1.23877 0.30795,-0.32194 0.66488,-0.5634 1.0708,-0.72437 0.40593,-0.16097 0.79086,-0.28345 1.15479,-0.36743 0.40592,-0.11198 0.82585,-0.18197 1.25976,-0.20996 l 0.90284,8.81836 m 2.96045,7.64255 c 1.11979,0.098 2.06461,0.3185 2.83447,0.6614 0.76986,0.3429 1.39974,0.7104 1.88965,1.1023 0.5459,0.4619 1.00781,0.9518 1.38574,1.4697 H -7.12646 c 0.33593,-0.5179 0.79085,-1.0078 1.36474,-1.4697 0.48991,-0.3919 1.13029,-0.7594 1.92114,-1.1023 0.79086,-0.3429 1.74618,-0.5634 2.865971,-0.6614 L -2.73828,-4.7085 c -0.23796,-0.11198 -0.35693,-0.28694 -0.35693,-0.5249 -0.05599,-0.13997 -0.0315,-0.32544 0.07348,-0.55639 0.10498,-0.23096 0.22746,-0.37444 0.36743,-0.43042 0.16797,0 0.33244,0.10148 0.49341,0.30444 0.16097,0.20296 0.24146,0.38843 0.24146,0.55639 0,0.20997 -0.09099,0.39893 -0.27295,0.5669 L -0.470703,11.7524 H 0.0541992 0.516113 L 2.23779,-4.79248 C 2.06982,-4.96045 1.98584,-5.14941 1.98584,-5.35938 2.04183,-5.52734 2.12581,-5.71281 2.23779,-5.91577 2.34977,-6.11873 2.51074,-6.22021 2.7207,-6.22021 c 0.13998,0.05598 0.25895,0.19946 0.35694,0.43042 0.09798,0.23095 0.11897,0.41642 0.06299,0.55639 0,0.23796 -0.11198,0.41292 -0.33594,0.5249 L 1.04102,11.8364"
         fill-rule="evenodd"
         vector-effect="none" />
    </g>
    <g
       id="g16"
       font-style="normal"
       font-weight="400"
       font-size="7.8px"
       font-family="'MS Shell Dlg 2'"
       stroke="none"
       fill-opacity="1"
       fill="#f7901e" />
  </g>
</svg>
