<svg xmlns="http://www.w3.org/2000/svg" version="1.2" viewBox="0 0 42.52 42.52" height="56.693" width="56.693">
   <g stroke-linejoin="bevel" stroke-linecap="square" fill-rule="evenodd" stroke="none" fill="none" font-weight="400"
      font-size="7.8" font-family="'MS Shell Dlg 2'">
      <path
         d="M42.52 21.26C42.52 33 33 42.52 21.26 42.52 9.518 42.52 0 33 0 21.26 0 9.518 9.518 0 21.26 0 33 0 42.52 9.518 42.52 21.26"
         vector-effect="non-scaling-stroke" fill="#f7901e" />
      <path
         d="M33.87 22.997c.056.196.14.402.252.62.112.216.224.409.336.577.126.224.273.44.44.65-.517.057-1.112-.003-1.784-.178a15.213 15.213 0 01-2.037-.693 23.266 23.266 0 01-3.8-2.026c-.504-.308-.994-.51-1.47-.609a4.686 4.686 0 00-1.28-.105c-.42.028-.82.112-1.197.252l.819-8.818c.405.028.818.098 1.238.21.35.084.732.206 1.145.367.412.161.78.403 1.102.725.434.364.83.776 1.186 1.238.357.462.721.92 1.092 1.376.37.455.787.878 1.25 1.27.461.392 1.035.7 1.72.924.057.434.14.889.253 1.364.084.406.185.861.304 1.365.12.504.263 1.001.43 1.49m-14.529-1.51a4.281 4.281 0 00-1.217-.253c-.364-.028-.791.007-1.281.105-.49.098-.98.301-1.47.61-.546.349-1.155.702-1.827 1.06-.671.356-1.35.678-2.036.965-.686.287-1.368.518-2.047.693-.68.175-1.27.235-1.774.179a3.67 3.67 0 00.42-.651c.111-.168.227-.36.346-.578.119-.217.206-.423.262-.62.168-.489.326-.986.473-1.49.147-.504.262-.959.346-1.365.112-.475.196-.93.252-1.364.658-.224 1.218-.532 1.68-.924a9.723 9.723 0 001.25-1.27c.37-.455.727-.914 1.07-1.376a7.252 7.252 0 011.165-1.238 2.995 2.995 0 011.071-.725c.406-.16.79-.283 1.155-.367a6.233 6.233 0 011.26-.21l.902 8.818m2.96 7.643c1.12.098 2.065.318 2.835.661s1.4.71 1.89 1.102a8.491 8.491 0 011.386 1.47H14.133c.336-.518.791-1.008 1.365-1.47.49-.391 1.13-.759 1.921-1.102.791-.343 1.746-.563 2.866-.661l-1.763-16.545c-.238-.112-.357-.287-.357-.525-.056-.14-.032-.325.073-.556.105-.231.228-.375.368-.43.168 0 .332.1.493.304.16.203.241.388.241.556 0 .21-.09.399-.273.567l1.722 16.545H21.776l1.722-16.545a.783.783 0 01-.252-.567c.056-.168.14-.353.252-.556.112-.203.273-.305.483-.305.14.056.258.2.356.43.098.232.12.417.063.557 0 .238-.112.413-.335.525L22.3 29.128"
         fill-opacity=".949" fill="#fff" />
   </g>
</svg>