<?xml version="1.0" encoding="UTF-8" standalone="no"?>
<svg
   xmlns:dc="http://purl.org/dc/elements/1.1/"
   xmlns:cc="http://creativecommons.org/ns#"
   xmlns:rdf="http://www.w3.org/1999/02/22-rdf-syntax-ns#"
   xmlns:svg="http://www.w3.org/2000/svg"
   xmlns="http://www.w3.org/2000/svg"
   xmlns:sodipodi="http://sodipodi.sourceforge.net/DTD/sodipodi-0.dtd"
   xmlns:inkscape="http://www.inkscape.org/namespaces/inkscape"
   inkscape:version="1.0 (4035a4fb49, 2020-05-01)"
   sodipodi:docname="1304.svg"
   id="svg20"
   version="1.2"
   viewBox="0 0 42.519639 42.519639"
   height="14.999999mm"
   width="14.999999mm">
  <metadata
     id="metadata24">
    <rdf:RDF>
      <cc:Work
         rdf:about="">
        <dc:format>image/svg+xml</dc:format>
        <dc:type
           rdf:resource="http://purl.org/dc/dcmitype/StillImage" />
        <dc:title>Qt SVG Document</dc:title>
      </cc:Work>
    </rdf:RDF>
  </metadata>
  <sodipodi:namedview
     inkscape:current-layer="svg20"
     inkscape:window-maximized="0"
     inkscape:window-y="0"
     inkscape:window-x="0"
     inkscape:cy="28.346482"
     inkscape:cx="28.346482"
     inkscape:zoom="5.8410537"
     showgrid="false"
     id="namedview22"
     inkscape:window-height="480"
     inkscape:window-width="1034"
     inkscape:pageshadow="2"
     inkscape:pageopacity="0"
     guidetolerance="10"
     gridtolerance="10"
     objecttolerance="10"
     borderopacity="1"
     bordercolor="#666666"
     pagecolor="#ffffff" />
  <title
     id="title2">Qt SVG Document</title>
  <desc
     id="desc4">Generated with Qt</desc>
  <defs
     id="defs6" />
  <g
     transform="translate(5.25984,5.25984)"
     id="g18"
     stroke-linejoin="bevel"
     stroke-linecap="square"
     fill-rule="evenodd"
     stroke-width="1"
     stroke="#000000"
     fill="none">
    <g
       id="g10"
       font-style="normal"
       font-weight="400"
       font-size="7.8px"
       font-family="'MS Shell Dlg 2'"
       stroke="none"
       fill-opacity="1"
       fill="#f7901e">
      <path
         id="path8"
         d="M 37.2598,16 C 37.2598,27.7415 27.7415,37.2598 16,37.2598 4.25851,37.2598 -5.25984,27.7415 -5.25984,16 -5.25984,4.25851 4.25851,-5.25984 16,-5.25984 27.7415,-5.25984 37.2598,4.25851 37.2598,16"
         fill-rule="evenodd"
         vector-effect="non-scaling-stroke" />
    </g>
    <g
       id="g14"
       font-style="normal"
       font-weight="400"
       font-size="7.8px"
       font-family="'MS Shell Dlg 2'"
       transform="translate(16,13.1654)"
       stroke="none"
       fill-opacity="0.94902"
       fill="#ffffff">
      <path
         id="path12"
         d="m -5.71973,-1.87402 c 0.40593,0 0.75936,0.15047 1.06031,0.45141 0.30094,0.30095 0.45141,0.654381 0.45141,1.060305 0,0.4339196 -0.15047,0.801351 -0.45141,1.102295 -0.30095,0.30094 -0.65438,0.45142 -1.06031,0.45142 -0.41992,0 -0.78035,-0.15048 -1.0813,-0.45142 -0.30094,-0.300944 -0.45141,-0.6683754 -0.45141,-1.102295 0,-0.405924 0.15047,-0.759355 0.45141,-1.060305 0.30095,-0.30094 0.66138,-0.45141 1.0813,-0.45141 m 1.76368,3.40136 c 0.60188,0 1.0743,0.19247 1.41723,0.5774 0.34294,0.38492 0.51441,0.83634 0.51441,1.35424 v 4.55616 c 0,0.23795 -0.05599,0.41992 -0.16797,0.5459 C -2.30436,8.68701 -2.43734,8.75 -2.59131,8.75 -2.74528,8.75 -2.88175,8.68701 -3.00073,8.56104 -3.11971,8.43506 -3.1792,8.25309 -3.1792,8.01514 V 3.54297 H -3.76709 V 15.7207 c 0,0.224 -0.08048,0.4234 -0.24145,0.5984 -0.16097,0.175 -0.36744,0.2624 -0.61939,0.2624 -0.20996,0 -0.39893,-0.0874 -0.56689,-0.2624 -0.16797,-0.175 -0.25196,-0.3744 -0.25196,-0.5984 V 8.62402 h -0.5249 v 7.09668 c 0,0.224 -0.08398,0.4234 -0.25195,0.5984 -0.16797,0.175 -0.37093,0.2624 -0.60889,0.2624 -0.25195,0 -0.45142,-0.0874 -0.59839,-0.2624 -0.14697,-0.175 -0.22046,-0.3744 -0.22046,-0.5984 V 3.54297 h -0.58789 v 4.47217 c 0,0.23795 -0.06649,0.41992 -0.19946,0.5459 C -8.5717,8.68701 -8.70817,8.75 -8.84814,8.75 -8.98812,8.75 -9.12459,8.68701 -9.25757,8.56104 -9.39054,8.43506 -9.45703,8.25309 -9.45703,8.01514 V 3.45898 c 0,-0.57389 0.18546,-1.0393 0.5564,-1.39624 0.37093,-0.35693 0.84334,-0.5354 1.41723,-0.5354 h 3.52735 m -2.09961,-8.0415 c -0.05599,0.13997 -0.09799,0.25195 -0.12598,0.33594 -0.028,0.08398 -0.04199,0.20296 -0.04199,0.35693 h -1.34375 c 0,-0.71387 0.21696,-1.28776 0.65088,-1.72168 0.43392,-0.34993 1.0358,-0.5249 1.80566,-0.5249 0.97982,0 1.67969,0.34294 2.09961,1.02881 0.18197,0.34993 0.27295,0.66487 0.27295,0.94482 0,0.48991 -0.20296,0.93783 -0.60889,1.34375 -0.08398,0.08399 -0.16797,0.15397 -0.25195,0.20996 -0.08399,0.05599 -0.17497,0.12598 -0.27295,0.20996 l -0.58789,0.44092 c -0.48991,0.43392 -0.73486,0.96582 -0.73486,1.5957 h -1.1128 v -0.44091 c 0,-0.30795 0.06999,-0.61939 0.20996,-0.93433 0.13998,-0.31494 0.38493,-0.59139 0.73487,-0.82935 0.05599,-0.05598 0.11897,-0.11897 0.18896,-0.18896 0.06999,-0.06999 0.16097,-0.14697 0.27295,-0.23096 0.15397,-0.15397 0.26595,-0.25895 0.33594,-0.31494 0.06999,-0.05599 0.13297,-0.12598 0.18896,-0.20996 0.08399,-0.08398 0.13298,-0.17497 0.14698,-0.27295 0.01399,-0.09798 0.02099,-0.22396 0.02099,-0.37793 0,-0.62988 -0.32894,-0.94482 -0.98681,-0.94482 -0.40593,0 -0.69288,0.17496 -0.86084,0.5249 M 4.00146,-1.34912 H 2.32178 v -6.71875 h 1.95263 l 3.38038,4.68213 v -4.68213 h 1.5957 v 6.71875 H 7.48682 L 4.00146,-6.09424 v 4.74512 M 2.7207,6.77637 C 2.00684,6.17448 1.6499,5.32764 1.6499,4.23584 1.6499,3.11605 2.00684,2.24121 2.7207,1.61133 3.51855,0.981445 4.53337,0.666504 5.76514,0.666504 c 1.11979,0 1.99463,0.202962 2.62451,0.608886 C 9.04753,1.7513 9.41846,2.3112 9.50244,2.95508 H 7.78076 C 7.66878,2.43717 7.33984,2.08724 6.79395,1.90527 6.62598,1.87728 6.47201,1.84928 6.33203,1.82129 6.19206,1.79329 6.00309,1.7793 5.76514,1.7793 5.16325,1.7793 4.60335,1.99626 4.08545,2.43018 3.86149,2.59814 3.70752,2.8396 3.62354,3.15454 3.53955,3.46948 3.49756,3.82992 3.49756,4.23584 c 0,0.85384 0.22396,1.44173 0.67187,1.76367 0.51791,0.34994 1.04981,0.5249 1.59571,0.5249 0.5459,0 1.0638,-0.14697 1.55371,-0.44091 C 7.65479,5.83154 7.87174,5.48861 7.96973,5.05469 H 6.01709 V 3.98389 H 9.58643 V 7.51123 H 8.38965 L 8.22168,6.69238 C 8.05371,6.83236 7.89624,6.95133 7.74927,7.04932 7.60229,7.1473 7.45882,7.23828 7.31885,7.32227 6.85693,7.56022 6.25505,7.6792 5.51318,7.6792 4.47738,7.6792 3.54655,7.37826 2.7207,6.77637 m 5.9209,3.44333 c 0.86784,0.6019 1.30176,1.5327 1.30176,2.7925 0,1.2038 -0.43392,2.1066 -1.30176,2.7085 -0.65788,0.5739 -1.6167,0.8608 -2.87646,0.8608 -1.20378,0 -2.13461,-0.2869 -2.79248,-0.8608 -0.82585,-0.6019 -1.23877,-1.5047 -1.23877,-2.7085 0,-1.2598 0.41292,-2.1906 1.23877,-2.7925 0.68587,-0.51788 1.6167,-0.77683 2.79248,-0.77683 1.23177,0 2.19059,0.25895 2.87646,0.77683 M 7.48682,14.6919 C 7.92074,14.342 8.1377,13.7821 8.1377,13.0122 8.1377,12.6063 8.07821,12.2668 7.95923,11.9939 7.84025,11.7209 7.68278,11.4725 7.48682,11.2485 7.08089,10.8426 6.507,10.6396 5.76514,10.6396 c -0.71387,0 -1.27377,0.203 -1.67969,0.6089 -0.16797,0.224 -0.30794,0.4724 -0.41992,0.7454 -0.11198,0.2729 -0.16797,0.6124 -0.16797,1.0183 0,0.7699 0.19596,1.3298 0.58789,1.6797 0.46191,0.4479 1.02181,0.6719 1.67969,0.6719 0.40592,0 0.73836,-0.056 0.99731,-0.168 0.25895,-0.112 0.50041,-0.2799 0.72437,-0.5039"
         fill-rule="evenodd"
         vector-effect="none" />
    </g>
    <g
       id="g16"
       font-style="normal"
       font-weight="400"
       font-size="7.8px"
       font-family="'MS Shell Dlg 2'"
       stroke="none"
       fill-opacity="1"
       fill="#f7901e" />
  </g>
</svg>
