<svg xmlns="http://www.w3.org/2000/svg" version="1.2" viewBox="0 0 42.52 42.52" height="56.693" width="56.693">
   <g stroke-linejoin="bevel" stroke-linecap="square" fill-rule="evenodd" stroke="none" fill="none" font-weight="400"
      font-size="7.8" font-family="'MS Shell Dlg 2'">
      <path
         d="M42.52 21.26C42.52 33 33 42.52 21.26 42.52 9.518 42.52 0 33 0 21.26 0 9.518 9.518 0 21.26 0 33 0 42.52 9.518 42.52 21.26"
         vector-effect="non-scaling-stroke" fill="#f7901e" />
      <path
         d="M15.54 16.551c.406 0 .76.15 1.06.452.301.3.452.654.452 1.06a1.5 1.5 0 01-.452 1.102c-.3.301-.654.452-1.06.452-.42 0-.78-.15-1.081-.452a1.5 1.5 0 01-.452-1.102c0-.406.15-.76.452-1.06.3-.301.661-.452 1.081-.452m1.764 3.402c.602 0 1.074.192 1.417.577.343.385.514.836.514 1.354v4.556c0 .238-.056.42-.168.546a.517.517 0 01-.398.19.549.549 0 01-.41-.19c-.119-.126-.178-.308-.178-.546v-4.472h-.588v12.178a.86.86 0 01-.242.598.804.804 0 01-.62.263c-.21 0-.398-.088-.566-.263a.84.84 0 01-.252-.598v-7.097h-.525v7.097a.84.84 0 01-.252.598.813.813 0 01-.609.263.74.74 0 01-.598-.263.904.904 0 01-.22-.598V21.968h-.588v4.472c0 .238-.067.42-.2.546-.133.126-.27.19-.41.19-.14 0-.276-.064-.409-.19-.133-.126-.2-.308-.2-.546v-4.556c0-.574.186-1.04.557-1.396.371-.357.844-.535 1.417-.535h3.528m-2.1-8.042a6.43 6.43 0 00-.126.336 1.18 1.18 0 00-.042.357h-1.344c0-.714.217-1.288.651-1.722.434-.35 1.036-.525 1.806-.525.98 0 1.68.343 2.1 1.03.182.35.273.664.273.944 0 .49-.203.938-.61 1.344a1.668 1.668 0 01-.251.21 2.886 2.886 0 00-.273.21l-.588.44c-.49.435-.735.966-.735 1.596h-1.113v-.44c0-.309.07-.62.21-.935.14-.315.385-.591.735-.83l.189-.188c.07-.07.161-.147.273-.231.154-.154.266-.26.336-.315a.918.918 0 00.189-.21.481.481 0 00.147-.273c.014-.098.02-.224.02-.378 0-.63-.328-.945-.986-.945-.406 0-.693.175-.86.525m10.056 5.165h-1.68v-6.719h1.953l3.38 4.682v-4.682h1.596v6.72h-1.763L25.26 12.33v4.745m-1.28 8.126c-.714-.602-1.071-1.45-1.071-2.54 0-1.12.357-1.996 1.07-2.625.798-.63 1.813-.945 3.045-.945 1.12 0 1.995.203 2.624.609.658.476 1.03 1.035 1.113 1.68h-1.721c-.112-.519-.441-.869-.987-1.05a14.648 14.648 0 01-.462-.084 3.021 3.021 0 00-.567-.042c-.602 0-1.162.216-1.68.65-.224.168-.378.41-.462.725a4.21 4.21 0 00-.126 1.081c0 .854.224 1.442.672 1.764.518.35 1.05.525 1.596.525s1.064-.147 1.554-.441c.336-.252.553-.595.65-1.03h-1.952v-1.07h3.57v3.527h-1.198l-.167-.818c-.168.14-.326.259-.473.357-.147.098-.29.189-.43.273-.462.237-1.064.356-1.806.356-1.036 0-1.967-.3-2.792-.902m5.92 3.443c.868.602 1.302 1.533 1.302 2.792 0 1.204-.434 2.107-1.302 2.709-.657.574-1.616.86-2.876.86-1.204 0-2.135-.286-2.792-.86-.826-.602-1.24-1.505-1.24-2.709 0-1.26.414-2.19 1.24-2.792.685-.518 1.616-.777 2.792-.777 1.232 0 2.19.26 2.876.777m-1.154 4.472c.434-.35.65-.91.65-1.68 0-.405-.059-.745-.178-1.018a2.862 2.862 0 00-.472-.745c-.406-.406-.98-.61-1.722-.61-.714 0-1.274.204-1.68.61a3.363 3.363 0 00-.42.745c-.112.273-.168.613-.168 1.018 0 .77.196 1.33.588 1.68a2.324 2.324 0 001.68.672c.406 0 .738-.056.997-.168.26-.112.5-.28.725-.504"
         fill-opacity=".949" fill="#fff" />
   </g>
</svg>