<svg xmlns="http://www.w3.org/2000/svg" version="1.2" viewBox="0 0 42.52 42.52" height="56.693" width="56.693">
   <g stroke-linejoin="bevel" stroke-linecap="square" fill-rule="evenodd" stroke="none" fill="none" font-weight="400"
      font-size="7.8" font-family="'MS Shell Dlg 2'">
      <path
         d="M42.52 21.26C42.52 33 33 42.52 21.26 42.52 9.518 42.52 0 33 0 21.26 0 9.518 9.518 0 21.26 0 33 0 42.52 9.518 42.52 21.26"
         vector-effect="non-scaling-stroke" fill="#8a5aa5" />
      <path
         d="M31.371 23.984c.518.602.777 1.343.777 2.225 0 .98-.259 1.827-.777 2.54-.546.715-1.246 1.303-2.1 1.765-.895.461-1.945.846-3.149 1.154-.77.182-1.484.315-2.141.4v2.624h-1.638v-2.415l-2.1.084v2.33h-1.68V32.32c-.265 0-.528-.007-.787-.02a10.37 10.37 0 01-.724-.064c-.546-.056-1.078-.112-1.596-.168a7.42 7.42 0 01-1.49-.315c-.98-.252-1.813-.595-2.5-1.029-.685-.461-1.028-1.063-1.028-1.805 0-.336.098-.61.294-.82.196-.223.455-.405.777-.545.168-.084.346-.15.535-.2l.62-.157a7.056 7.056 0 011.343-.126 9.325 9.325 0 011.281.084v.567c0 1.036.413 1.806 1.239 2.31.462.294 1.14.525 2.037.692v-7.768c-.35-.098-.69-.196-1.019-.294a16.975 16.975 0 01-.955-.315 17.444 17.444 0 01-1.617-.556 9.422 9.422 0 01-1.407-.704 8.398 8.398 0 01-2.1-1.659 3.826 3.826 0 01-.776-2.33c0-.882.259-1.673.777-2.373.49-.657 1.162-1.196 2.015-1.616.742-.462 1.73-.826 2.96-1.092l2.122-.336V8.846h1.68v2.708l2.099-.042V8.846h1.638v2.708c.196 0 .381.007.556.021.175.014.36.021.556.021.49.056.97.119 1.439.189.468.07.934.161 1.396.273.924.21 1.686.525 2.288.945.63.378.945.91.945 1.595 0 .322-.105.581-.315.777a1.584 1.584 0 01-.798.567l-.545.168a3.574 3.574 0 01-.63.126 6.114 6.114 0 01-1.281.126c-.21 0-.42-.007-.63-.02a13.4 13.4 0 01-.672-.064v-.567c0-.826-.357-1.455-1.07-1.89a4.407 4.407 0 00-1.24-.545v7.264l1.092.252c.364.084.7.182 1.008.294 1.26.35 2.31.756 3.15 1.218.881.49 1.595 1.05 2.141 1.68M20.243 12.96v6.719l2.1.42v-7.14h-2.1m-1.994 6.11l.315.085v-5.963l-.441.084c-.49.168-.973.378-1.45.63-.433.238-.762.538-.986.902-.266.35-.399.742-.399 1.176 0 .546.133.987.4 1.323.307.434.65.763 1.028.987a6.434 6.434 0 001.533.777m4.094 11.736v-6.991l-2.1-.441v7.474l2.1-.042m4.724-2.183c.294-.406.44-.84.44-1.302 0-.476-.146-.903-.44-1.28-.28-.379-.665-.708-1.155-.987a5.073 5.073 0 00-1.596-.693l-.335-.084v6.236c.223-.056.35-.084.377-.084.658-.224 1.204-.483 1.638-.777.462-.28.819-.623 1.071-1.03"
         fill="#fff" />
   </g>
</svg>