<?xml version="1.0" encoding="UTF-8" standalone="no"?>
<svg width="11.2889mm" height="11.2889mm"
 viewBox="0 0 32 32"
 xmlns="http://www.w3.org/2000/svg" xmlns:xlink="http://www.w3.org/1999/xlink"  version="1.2" baseProfile="tiny">
<title>Qt SVG Document</title>
<desc>Generated with Qt</desc>
<defs>
</defs>
<g fill="none" stroke="black" stroke-width="1" fill-rule="evenodd" stroke-linecap="square" stroke-linejoin="bevel" >

<g fill="#8a5aa5" fill-opacity="1" stroke="none" transform="matrix(1,0,0,1,0,0)"
font-family="MS Shell Dlg 2" font-size="7.8" font-weight="400" font-style="normal" 
>
<path vector-effect="non-scaling-stroke" fill-rule="evenodd" d="M37.2598,16 C37.2598,27.7415 27.7415,37.2598 16,37.2598 C4.25851,37.2598 -5.25984,27.7415 -5.25984,16 C-5.25984,4.25851 4.25851,-5.25984 16,-5.25984 C27.7415,-5.25984 37.2598,4.25851 37.2598,16 "/>
</g>

<g fill="#ffffff" fill-opacity="1" stroke="none" transform="matrix(1,0,0,1,16,12.0315)"
font-family="MS Shell Dlg 2" font-size="7.8" font-weight="400" font-style="normal" 
>
<path vector-effect="none" fill-rule="evenodd" d="M10.1113,6.69238 C10.6292,7.29427 10.8882,8.03613 10.8882,8.91797 C10.8882,9.89779 10.6292,10.7446 10.1113,11.4585 C9.56543,12.1724 8.86556,12.7603 8.01172,13.2222 C7.11589,13.6841 6.06608,14.069 4.8623,14.377 C4.09245,14.5589 3.37858,14.6919 2.7207,14.7759 L2.7207,17.4004 L1.08301,17.4004 L1.08301,14.9858 L-1.0166,15.0698 L-1.0166,17.4004 L-2.69629,17.4004 L-2.69629,15.0278 C-2.96224,15.0278 -3.22469,15.0208 -3.48364,15.0068 C-3.74259,14.9928 -3.98405,14.9718 -4.20801,14.9438 C-4.75391,14.8879 -5.28581,14.8319 -5.80371,14.7759 C-6.32161,14.7199 -6.81852,14.6149 -7.29443,14.4609 C-8.27425,14.209 -9.1071,13.866 -9.79297,13.4321 C-10.4788,12.9702 -10.8218,12.3683 -10.8218,11.6265 C-10.8218,11.2905 -10.7238,11.0176 -10.5278,10.8076 C-10.3319,10.5837 -10.0729,10.4017 -9.75098,10.2617 C-9.58301,10.1777 -9.40454,10.1112 -9.21558,10.0623 C-9.02661,10.0133 -8.82015,9.96077 -8.59619,9.90479 C-8.16227,9.8208 -7.71436,9.77881 -7.25244,9.77881 C-7.02848,9.77881 -6.81502,9.78581 -6.61206,9.7998 C-6.4091,9.8138 -6.19564,9.8348 -5.97168,9.86279 L-5.97168,10.4297 C-5.97168,11.4655 -5.55876,12.2354 -4.73291,12.7393 C-4.271,13.0332 -3.59212,13.2642 -2.69629,13.4321 L-2.69629,5.66357 C-3.04622,5.56559 -3.38566,5.46761 -3.7146,5.36963 C-4.04354,5.27165 -4.36198,5.16667 -4.66992,5.05469 C-5.24382,4.88672 -5.78271,4.70125 -6.28662,4.49829 C-6.79053,4.29533 -7.25944,4.06087 -7.69336,3.79492 C-8.09928,3.57096 -8.48071,3.31551 -8.83765,3.02856 C-9.19458,2.74162 -9.51302,2.44417 -9.79297,2.13623 C-10.3109,1.43636 -10.5698,0.659505 -10.5698,-0.194336 C-10.5698,-1.07617 -10.3109,-1.86702 -9.79297,-2.56689 C-9.30306,-3.22477 -8.63118,-3.76367 -7.77734,-4.18359 C-7.03548,-4.64551 -6.04867,-5.00944 -4.81689,-5.27539 L-2.69629,-5.61133 L-2.69629,-8.4458 L-1.0166,-8.4458 L-1.0166,-5.7373 L1.08301,-5.7793 L1.08301,-8.4458 L2.7207,-8.4458 L2.7207,-5.7373 C2.91667,-5.7373 3.10213,-5.73031 3.2771,-5.71631 C3.45207,-5.70231 3.63753,-5.69531 3.8335,-5.69531 C4.3234,-5.63932 4.80282,-5.57633 5.27173,-5.50635 C5.74064,-5.43636 6.20605,-5.34538 6.66797,-5.2334 C7.5918,-5.02344 8.35465,-4.7085 8.95654,-4.28857 C9.58643,-3.91064 9.90137,-3.37874 9.90137,-2.69287 C9.90137,-2.37093 9.79639,-2.11198 9.58643,-1.91602 C9.39046,-1.65007 9.12451,-1.4611 8.78857,-1.34912 C8.60661,-1.29313 8.42464,-1.23714 8.24268,-1.18115 C8.06071,-1.12516 7.85075,-1.08317 7.61279,-1.05518 C7.22087,-0.971191 6.79395,-0.929199 6.33203,-0.929199 C6.12207,-0.929199 5.91211,-0.936198 5.70215,-0.950195 C5.49219,-0.964193 5.26823,-0.985189 5.03027,-1.01318 L5.03027,-1.58008 C5.03027,-2.40592 4.67334,-3.03581 3.95947,-3.46973 C3.62354,-3.69368 3.21061,-3.87565 2.7207,-4.01563 L2.7207,3.24902 C3.08464,3.33301 3.44857,3.41699 3.8125,3.50098 C4.17643,3.58496 4.51237,3.68294 4.82031,3.79492 C6.08008,4.14486 7.12988,4.55078 7.96973,5.0127 C8.85156,5.5026 9.56543,6.0625 10.1113,6.69238 M-1.0166,-4.33057 L-1.0166,2.38818 L1.08301,2.80811 L1.08301,-4.33057 L-1.0166,-4.33057 M-3.01123,1.7793 L-2.69629,1.86328 L-2.69629,-4.09961 L-3.13721,-4.01563 C-3.62712,-3.84766 -4.11003,-3.6377 -4.58594,-3.38574 C-5.01986,-3.14779 -5.3488,-2.84684 -5.57275,-2.48291 C-5.8387,-2.13298 -5.97168,-1.74105 -5.97168,-1.30713 C-5.97168,-0.76123 -5.8387,-0.320313 -5.57275,0.015625 C-5.26481,0.449544 -4.92188,0.778483 -4.54395,1.00244 C-4.31999,1.15641 -4.08553,1.29639 -3.84058,1.42236 C-3.59562,1.54834 -3.31917,1.66732 -3.01123,1.7793 M1.08301,13.5161 L1.08301,6.52441 L-1.0166,6.0835 L-1.0166,13.5581 L1.08301,13.5161 M5.80713,11.3325 C6.10107,10.9266 6.24805,10.4927 6.24805,10.0308 C6.24805,9.55485 6.10107,9.12793 5.80713,8.75 C5.52718,8.37207 5.14225,8.04313 4.65234,7.76318 C4.16243,7.44124 3.63053,7.21029 3.05664,7.07031 C2.83268,7.01432 2.7207,6.98633 2.7207,6.98633 L2.7207,13.2222 C2.94466,13.1662 3.07064,13.1382 3.09863,13.1382 C3.75651,12.9142 4.30241,12.6553 4.73633,12.3613 C5.19824,12.0814 5.55518,11.7384 5.80713,11.3325 "/>
</g>

<g fill="#8a5aa5" fill-opacity="1" stroke="none" transform="matrix(1,0,0,1,0,0)"
font-family="MS Shell Dlg 2" font-size="7.8" font-weight="400" font-style="normal" 
>
</g>
</g>
</svg>
