<svg xmlns="http://www.w3.org/2000/svg" version="1.2" viewBox="0 0 42.52 42.52" height="56.693" width="56.693">
   <g stroke-linejoin="bevel" stroke-linecap="square" fill-rule="evenodd" stroke="none" fill="none" font-weight="400"
      font-size="7.8" font-family="'MS Shell Dlg 2'">
      <path
         d="M42.52 21.26C42.52 33 33 42.52 21.26 42.52 9.518 42.52 0 33 0 21.26 0 9.518 9.518 0 21.26 0 33 0 42.52 9.518 42.52 21.26"
         vector-effect="non-scaling-stroke" fill="#8a5aa5" />
      <path
         d="M18.732 20.75c.223-.14.496-.252.818-.336.14 0 .224-.014.252-.042v3.213c-.056 0-.09-.007-.105-.021-.014-.014-.049-.021-.105-.021l-.818-.378c-.196-.112-.4-.301-.61-.567a1.36 1.36 0 01-.21-.735c0-.196.07-.406.21-.63.155-.21.344-.37.568-.483m1.973-.504h1.155v3.864l-1.155-.21v-3.654m0 5.627l1.155.21v3.78l-1.155.042v-4.032m10.834 1.974c0 .224.046.472.137.745.09.273.192.529.304.767.056.14.119.28.189.42.07.14.16.287.273.44-.49.225-.97.438-1.438.64-.47.204-.92.39-1.355.557l-3.61 1.512c-.547.224-1.236.364-2.069.42-.833.056-1.69.084-2.572.084a24.565 24.565 0 01-3.653-.126l-1.68-.126-2.33-.378c-.63-.154-1.26-.329-1.89-.525-.63-.196-1.099-.455-1.407-.777-.238-.168-.35-.367-.336-.598a2.72 2.72 0 01.158-.735c.09-.259.192-.51.304-.756.112-.245.168-.451.168-.62-.056-.741.046-1.55.304-2.424.26-.875.616-1.729 1.071-2.562.455-.833.984-1.613 1.585-2.34.602-.729 1.232-1.324 1.89-1.785a36.253 36.253 0 001.942-1.491c.721-.588 1.452-1.197 2.194-1.827 0-.168.056-.332.168-.493.112-.161.249-.319.41-.473.16-.154.311-.304.451-.451.14-.147.245-.29.315-.43v-.085c0-1.035.193-1.896.577-2.582.385-.686 1.033-1.218 1.943-1.596.434-.168 1.039-.157 1.816.032.777.189 1.522.455 2.236.798.714.343 1.277.706 1.69 1.091.413.385.48.683.2.893-.056.168-.182.252-.378.252-.952.14-1.645.322-2.079.546-.462.266-.812.549-1.05.85-.238.3-.49.605-.756.913.14.294.21.57.21.83 0 .259-.056.5-.168.724.294.49.714.987 1.26 1.49.546.505 1.26 1.127 2.142 1.87.462.405.864.937 1.207 1.595.343.658.637 1.337.882 2.037s.43 1.378.556 2.036c.126.658.19 1.204.19 1.638m-4.683.903c.28-.406.42-.847.42-1.323 0-.462-.14-.882-.42-1.26a1.812 1.812 0 00-.535-.493 8.774 8.774 0 00-.662-.368c-.238-.112-.5-.223-.787-.335a75.438 75.438 0 00-.934-.357 18.02 18.02 0 00-.588-.147 17.993 17.993 0 01-.588-.147v-3.906c.322.084.553.182.693.294.406.252.609.595.609 1.03v.314c.14.028.258.042.356.042h.714c.112 0 .224-.014.336-.042l.61-.189c.195-.084.356-.182.482-.294a.57.57 0 00.168-.42c0-.35-.175-.637-.525-.86a4.85 4.85 0 00-1.239-.525c-.63-.14-1.161-.21-1.595-.21-.084-.028-.287-.042-.61-.042v-1.47h-.902v1.428l-1.155.042v-1.47h-.903v1.512c-.224.056-.43.09-.62.105a2.872 2.872 0 00-.576.105c-.322.055-.62.132-.893.23s-.521.21-.745.336a2.965 2.965 0 00-1.113.903c-.266.336-.399.75-.399 1.239 0 .546.147.959.441 1.239.252.35.623.65 1.113.903.462.294 1.022.525 1.68.692.167.056.346.105.535.147.189.042.381.098.577.168v4.2c-.49-.084-.875-.21-1.154-.378-.434-.266-.651-.686-.651-1.26v-.294c-.14 0-.26-.007-.357-.021a2.765 2.765 0 00-.378-.021c-.112 0-.224.007-.336.021a7.513 7.513 0 00-.4.063c-.139.028-.265.056-.377.084a1.301 1.301 0 00-.252.084 6.366 6.366 0 00-.44.315.57.57 0 00-.169.42c0 .406.19.735.567.987.196.112.41.22.64.325.231.105.487.186.767.242a7.82 7.82 0 001.68.251c.14 0 .283.007.43.021.147.014.29.021.43.021v1.302h.903v-1.302l1.155-.042v1.344h.903v-1.427c.238-.056.448-.091.63-.105.182-.014.378-.05.588-.105a12.334 12.334 0 001.721-.651c.49-.252.875-.567 1.155-.945m-3.002-1.974c.252.168.461.336.63.504.153.238.23.469.23.693 0 .266-.077.51-.23.735-.14.168-.336.357-.588.567l-.903.378a.186.186 0 00-.084.02.36.36 0 01-.147.022v-3.36c.07 0 .112.007.126.021.014.014.035.021.063.021l.903.4"
         fill-opacity=".949" fill="#fff" />
   </g>
</svg>