<?xml version="1.0" encoding="UTF-8" standalone="no"?>
<svg width="11.25008mm" height="11.25008mm"
 viewBox="-5.3 -5.3 42.52000 42.52000"
 xmlns="http://www.w3.org/2000/svg" xmlns:xlink="http://www.w3.org/1999/xlink"  version="1.2" baseProfile="tiny">
<title>Qt SVG Document</title>
<desc>Generated with Qt</desc>
<defs>
</defs>
<g fill="none" stroke="black" stroke-width="1" fill-rule="evenodd" stroke-linecap="square" stroke-linejoin="bevel" >

<g fill="#8a5aa5" fill-opacity="1" stroke="none" transform="matrix(1,0,0,1,0,0)"
font-family="MS Shell Dlg 2" font-size="7.8" font-weight="400" font-style="normal" 
>
<path vector-effect="non-scaling-stroke" fill-rule="evenodd" d="M37.2598,16 C37.2598,27.7415 27.7415,37.2598 16,37.2598 C4.25851,37.2598 -5.25984,27.7415 -5.25984,16 C-5.25984,4.25851 4.25851,-5.25984 16,-5.25984 C27.7415,-5.25984 37.2598,4.25851 37.2598,16 "/>
</g>

<g fill="#ffffff" fill-opacity="0.94902" stroke="none" transform="matrix(1,0,0,1,16,12.0315)"
font-family="MS Shell Dlg 2" font-size="7.8" font-weight="400" font-style="normal" 
>
<path vector-effect="none" fill-rule="evenodd" d="M-2.52832,3.45898 C-2.30436,3.31901 -2.03141,3.20703 -1.70947,3.12305 C-1.5695,3.12305 -1.48551,3.10905 -1.45752,3.08105 L-1.45752,6.29346 C-1.51351,6.29346 -1.5485,6.28646 -1.5625,6.27246 C-1.5765,6.25846 -1.61149,6.25146 -1.66748,6.25146 L-2.48633,5.87354 C-2.68229,5.76156 -2.88525,5.57259 -3.09521,5.30664 C-3.23519,5.08268 -3.30518,4.83773 -3.30518,4.57178 C-3.30518,4.37581 -3.23519,4.16585 -3.09521,3.94189 C-2.94124,3.73193 -2.75228,3.57096 -2.52832,3.45898 M-0.554688,2.95508 L0.600098,2.95508 L0.600098,6.81836 L-0.554688,6.6084 L-0.554688,2.95508 M-0.554688,8.58203 L0.600098,8.79199 L0.600098,12.5713 L-0.554688,12.6133 L-0.554688,8.58203 M10.2793,10.5557 C10.2793,10.7796 10.3248,11.0281 10.4158,11.301 C10.5068,11.574 10.6082,11.8294 10.7202,12.0674 C10.7762,12.2074 10.8392,12.3473 10.9092,12.4873 C10.9792,12.6273 11.0701,12.7743 11.1821,12.9282 C10.6922,13.1522 10.2128,13.3656 9.7439,13.5686 C9.27498,13.7716 8.82357,13.957 8.38965,14.125 L4.77832,15.6367 C4.23242,15.8607 3.54305,16.0007 2.71021,16.0566 C1.87736,16.1126 1.02002,16.1406 0.138184,16.1406 C-0.519694,16.1686 -1.17057,16.1686 -1.81445,16.1406 C-2.45833,16.1126 -3.02523,16.0706 -3.51514,16.0146 L-5.19482,15.8887 L-7.52539,15.5107 C-8.15527,15.3568 -8.78516,15.1818 -9.41504,14.9858 C-10.0449,14.7899 -10.5138,14.5309 -10.8218,14.209 C-11.0597,14.041 -11.1717,13.8416 -11.1577,13.6106 C-11.1437,13.3796 -11.0912,13.1347 -11.0002,12.8757 C-10.9093,12.6168 -10.8078,12.3648 -10.6958,12.1199 C-10.5838,11.8749 -10.5278,11.6685 -10.5278,11.5005 C-10.5838,10.7586 -10.4823,9.95028 -10.2234,9.07544 C-9.96444,8.2006 -9.6075,7.34676 -9.15259,6.51392 C-8.69767,5.68107 -8.16927,4.90072 -7.56738,4.17285 C-6.96549,3.44499 -6.33561,2.8501 -5.67773,2.38818 C-5.10384,1.98226 -4.45646,1.48535 -3.7356,0.897461 C-3.01473,0.30957 -2.28337,-0.299316 -1.5415,-0.929199 C-1.5415,-1.09717 -1.48551,-1.26164 -1.37354,-1.42261 C-1.26156,-1.58358 -1.12508,-1.74105 -0.964111,-1.89502 C-0.803141,-2.04899 -0.652669,-2.19946 -0.512695,-2.34644 C-0.372721,-2.49341 -0.267741,-2.63688 -0.197754,-2.77686 L-0.197754,-2.86084 C-0.197754,-3.89665 -0.00528971,-4.75749 0.379639,-5.44336 C0.764567,-6.12923 1.41195,-6.66113 2.32178,-7.03906 C2.7557,-7.20703 3.36108,-7.19653 4.13794,-7.00757 C4.91479,-6.8186 5.66016,-6.55265 6.37402,-6.20972 C7.08789,-5.86678 7.65129,-5.50285 8.06421,-5.11792 C8.47713,-4.73299 8.54362,-4.43555 8.26367,-4.22559 C8.20768,-4.05762 8.08171,-3.97363 7.88574,-3.97363 C6.93392,-3.83366 6.24105,-3.65169 5.80713,-3.42773 C5.34521,-3.16178 4.99528,-2.87834 4.75732,-2.57739 C4.51937,-2.27645 4.26742,-1.97201 4.00146,-1.66406 C4.14144,-1.37012 4.21143,-1.09367 4.21143,-0.834717 C4.21143,-0.575765 4.15544,-0.33431 4.04346,-0.110352 C4.3374,0.379557 4.75732,0.876465 5.30322,1.38037 C5.84912,1.88428 6.56299,2.50716 7.44482,3.24902 C7.90674,3.65495 8.30916,4.18685 8.6521,4.84473 C8.99504,5.5026 9.28898,6.18148 9.53394,6.88135 C9.77889,7.58122 9.96436,8.26009 10.0903,8.91797 C10.2163,9.57585 10.2793,10.1217 10.2793,10.5557 M5.59717,11.4585 C5.87712,11.0526 6.01709,10.6117 6.01709,10.1357 C6.01709,9.67383 5.87712,9.25391 5.59717,8.87598 C5.45719,8.68001 5.27873,8.51554 5.06177,8.38257 C4.84481,8.24959 4.62435,8.12712 4.40039,8.01514 C4.16243,7.90316 3.89998,7.79118 3.61304,7.6792 C3.32609,7.56722 3.01465,7.44824 2.67871,7.32227 C2.46875,7.26628 2.27279,7.21729 2.09082,7.17529 C1.90885,7.1333 1.71289,7.08431 1.50293,7.02832 L1.50293,3.12305 C1.82487,3.20703 2.05583,3.30501 2.1958,3.41699 C2.60173,3.66895 2.80469,4.01188 2.80469,4.4458 L2.80469,4.76074 C2.94466,4.78874 3.06364,4.80273 3.16162,4.80273 C3.2596,4.80273 3.38558,4.80273 3.53955,4.80273 C3.65153,4.80273 3.76351,4.80273 3.87549,4.80273 C3.98747,4.80273 4.09945,4.78874 4.21143,4.76074 L4.82031,4.57178 C5.01628,4.48779 5.17725,4.38981 5.30322,4.27783 C5.4152,4.16585 5.47119,4.02588 5.47119,3.85791 C5.47119,3.50798 5.29622,3.22103 4.94629,2.99707 C4.61035,2.78711 4.19743,2.61214 3.70752,2.47217 C3.07764,2.33219 2.54574,2.26221 2.11182,2.26221 C2.02783,2.23421 1.82487,2.22021 1.50293,2.22021 L1.50293,0.750488 L0.600098,0.750488 L0.600098,2.17822 L-0.554688,2.22021 L-0.554688,0.750488 L-1.45752,0.750488 L-1.45752,2.26221 C-1.68148,2.3182 -1.88794,2.35319 -2.0769,2.36719 C-2.26587,2.38118 -2.45833,2.41618 -2.6543,2.47217 C-2.97624,2.52816 -3.27368,2.60514 -3.54663,2.70313 C-3.81958,2.80111 -4.06803,2.91309 -4.29199,3.03906 C-4.75391,3.26302 -5.12484,3.56396 -5.40479,3.94189 C-5.67074,4.27783 -5.80371,4.69076 -5.80371,5.18066 C-5.80371,5.72656 -5.65674,6.13949 -5.36279,6.41943 C-5.11084,6.76937 -4.73991,7.07031 -4.25,7.32227 C-3.78809,7.61621 -3.22819,7.84717 -2.57031,8.01514 C-2.40234,8.07113 -2.22388,8.12012 -2.03491,8.16211 C-1.84595,8.2041 -1.65348,8.26009 -1.45752,8.33008 L-1.45752,12.5293 C-1.94743,12.4453 -2.33236,12.3193 -2.6123,12.1514 C-3.04622,11.8854 -3.26318,11.4655 -3.26318,10.8916 L-3.26318,10.5977 C-3.40316,10.5977 -3.52214,10.5907 -3.62012,10.5767 C-3.7181,10.5627 -3.84408,10.5557 -3.99805,10.5557 C-4.11003,10.5557 -4.22201,10.5627 -4.33398,10.5767 C-4.44596,10.5907 -4.57894,10.6117 -4.73291,10.6396 C-4.87288,10.6676 -4.99886,10.6956 -5.11084,10.7236 C-5.22282,10.7516 -5.3068,10.7796 -5.36279,10.8076 C-5.62874,10.9896 -5.77572,11.0946 -5.80371,11.1226 C-5.91569,11.2345 -5.97168,11.3745 -5.97168,11.5425 C-5.97168,11.9484 -5.78271,12.2773 -5.40479,12.5293 C-5.20882,12.6413 -4.99536,12.7498 -4.7644,12.8547 C-4.53345,12.9597 -4.27799,13.0402 -3.99805,13.0962 C-3.48014,13.2362 -2.92025,13.3201 -2.31836,13.3481 C-2.17839,13.3481 -2.03491,13.3551 -1.88794,13.3691 C-1.74097,13.3831 -1.59749,13.3901 -1.45752,13.3901 L-1.45752,14.6919 L-0.554688,14.6919 L-0.554688,13.3901 L0.600098,13.3481 L0.600098,14.6919 L1.50293,14.6919 L1.50293,13.2642 C1.74089,13.2082 1.95085,13.1732 2.13281,13.1592 C2.31478,13.1452 2.51074,13.1102 2.7207,13.0542 C3.2946,12.8862 3.86849,12.6693 4.44238,12.4033 C4.93229,12.1514 5.31722,11.8364 5.59717,11.4585 M2.59473,9.48486 C2.84668,9.65283 3.05664,9.8208 3.22461,9.98877 C3.37858,10.2267 3.45557,10.4577 3.45557,10.6816 C3.45557,10.9476 3.37858,11.1925 3.22461,11.4165 C3.08464,11.5845 2.88867,11.7734 2.63672,11.9834 L1.73389,12.3613 C1.70589,12.3613 1.6779,12.3683 1.6499,12.3823 C1.62191,12.3963 1.57292,12.4033 1.50293,12.4033 L1.50293,9.04395 C1.57292,9.04395 1.61491,9.05094 1.62891,9.06494 C1.6429,9.07894 1.6639,9.08594 1.69189,9.08594 L2.59473,9.48486"/>
</g>

<g fill="#8a5aa5" fill-opacity="1" stroke="none" transform="matrix(1,0,0,1,0,0)"
font-family="MS Shell Dlg 2" font-size="7.8" font-weight="400" font-style="normal" 
>
</g>
</g>
</svg>
