<?xml version="1.0" encoding="UTF-8" standalone="no"?>
<svg
   xmlns:dc="http://purl.org/dc/elements/1.1/"
   xmlns:cc="http://creativecommons.org/ns#"
   xmlns:rdf="http://www.w3.org/1999/02/22-rdf-syntax-ns#"
   xmlns:svg="http://www.w3.org/2000/svg"
   xmlns="http://www.w3.org/2000/svg"
   xmlns:sodipodi="http://sodipodi.sourceforge.net/DTD/sodipodi-0.dtd"
   xmlns:inkscape="http://www.inkscape.org/namespaces/inkscape"
   inkscape:version="1.0 (4035a4fb49, 2020-05-01)"
   sodipodi:docname="1402.svg"
   id="svg20"
   version="1.2"
   viewBox="0 0 42.519639 42.519639"
   height="14.999999mm"
   width="14.999999mm">
  <metadata
     id="metadata24">
    <rdf:RDF>
      <cc:Work
         rdf:about="">
        <dc:format>image/svg+xml</dc:format>
        <dc:type
           rdf:resource="http://purl.org/dc/dcmitype/StillImage" />
        <dc:title>Qt SVG Document</dc:title>
      </cc:Work>
    </rdf:RDF>
  </metadata>
  <sodipodi:namedview
     inkscape:current-layer="svg20"
     inkscape:window-maximized="0"
     inkscape:window-y="0"
     inkscape:window-x="0"
     inkscape:cy="28.346482"
     inkscape:cx="28.346482"
     inkscape:zoom="5.8410537"
     showgrid="false"
     id="namedview22"
     inkscape:window-height="480"
     inkscape:window-width="1034"
     inkscape:pageshadow="2"
     inkscape:pageopacity="0"
     guidetolerance="10"
     gridtolerance="10"
     objecttolerance="10"
     borderopacity="1"
     bordercolor="#666666"
     pagecolor="#ffffff" />
  <title
     id="title2">Qt SVG Document</title>
  <desc
     id="desc4">Generated with Qt</desc>
  <defs
     id="defs6" />
  <g
     transform="translate(5.25984,5.25984)"
     id="g18"
     stroke-linejoin="bevel"
     stroke-linecap="square"
     fill-rule="evenodd"
     stroke-width="1"
     stroke="#000000"
     fill="none">
    <g
       id="g10"
       font-style="normal"
       font-weight="400"
       font-size="7.8px"
       font-family="'MS Shell Dlg 2'"
       stroke="none"
       fill-opacity="1"
       fill="#8a5aa5">
      <path
         id="path8"
         d="M 37.2598,16 C 37.2598,27.7415 27.7415,37.2598 16,37.2598 4.25851,37.2598 -5.25984,27.7415 -5.25984,16 -5.25984,4.25851 4.25851,-5.25984 16,-5.25984 27.7415,-5.25984 37.2598,4.25851 37.2598,16"
         fill-rule="evenodd"
         vector-effect="non-scaling-stroke" />
    </g>
    <g
       id="g14"
       font-style="normal"
       font-weight="400"
       font-size="7.8px"
       font-family="'MS Shell Dlg 2'"
       transform="translate(16,12.0315)"
       stroke="none"
       fill-opacity="0.94902"
       fill="#ffffff">
      <path
         id="path12"
         d="m -2.52832,3.45898 c 0.22396,-0.13997 0.49691,-0.25195 0.81885,-0.33593 0.13997,0 0.22396,-0.014 0.25195,-0.042 v 3.21241 c -0.05599,0 -0.09098,-0.007 -0.10498,-0.021 -0.014,-0.014 -0.04899,-0.021 -0.10498,-0.021 L -2.48633,5.87354 C -2.68229,5.76156 -2.88525,5.57259 -3.09521,5.30664 -3.23519,5.08268 -3.30518,4.83773 -3.30518,4.57178 c 0,-0.19597 0.06999,-0.40593 0.20997,-0.62989 0.15397,-0.20996 0.34293,-0.37093 0.56689,-0.48291 m 1.973632,-0.5039 H 0.600098 V 6.81836 L -0.554688,6.6084 V 2.95508 m 0,5.62695 1.154786,0.20996 v 3.77931 l -1.154786,0.042 V 8.58203 M 10.2793,10.5557 c 0,0.2239 0.0455,0.4724 0.1365,0.7453 0.091,0.273 0.1924,0.5284 0.3044,0.7664 0.056,0.14 0.119,0.2799 0.189,0.4199 0.07,0.14 0.1609,0.287 0.2729,0.4409 -0.4899,0.224 -0.9693,0.4374 -1.4382,0.6404 -0.46892,0.203 -0.92033,0.3884 -1.35425,0.5564 l -3.61133,1.5117 c -0.5459,0.224 -1.23527,0.364 -2.06811,0.4199 -0.83285,0.056 -1.69019,0.084 -2.572026,0.084 -0.657878,0.028 -1.308754,0.028 -1.952634,0 -0.64388,-0.028 -1.21078,-0.07 -1.70069,-0.126 l -1.67968,-0.1259 -2.33057,-0.378 c -0.62988,-0.1539 -1.25977,-0.3289 -1.88965,-0.5249 -0.62986,-0.1959 -1.09876,-0.4549 -1.40676,-0.7768 -0.2379,-0.168 -0.3499,-0.3674 -0.3359,-0.5984 0.014,-0.231 0.0665,-0.4759 0.1575,-0.7349 0.0909,-0.2589 0.1924,-0.5109 0.3044,-0.7558 0.112,-0.245 0.168,-0.4514 0.168,-0.6194 -0.056,-0.7419 0.0455,-1.55022 0.3044,-2.42506 0.25896,-0.87484 0.6159,-1.72868 1.07081,-2.56152 0.45492,-0.83285 0.98332,-1.6132 1.58521,-2.34107 0.60189,-0.72786 1.23177,-1.32275 1.88965,-1.78467 0.57389,-0.40592 1.22127,-0.90283 1.94213,-1.490719 0.72087,-0.587891 1.45223,-1.196777 2.1941,-1.82666 0,-0.167971 0.05599,-0.332441 0.16796,-0.493411 0.11198,-0.16097 0.24846,-0.31844 0.409429,-0.47241 0.16097,-0.15397 0.311442,-0.30444 0.451416,-0.45142 0.139974,-0.14697 0.244954,-0.29044 0.314941,-0.43042 v -0.08398 c 0,-1.03581 0.19246429,-1.89665 0.577393,-2.58252 0.384928,-0.68587 1.032311,-1.21777 1.942141,-1.5957 0.43392,-0.16797 1.0393,-0.15747 1.81616,0.03149 0.77685,0.18897 1.52222,0.45492 2.23608,0.79785 0.71387,0.34294 1.27727,0.70687 1.69019,1.0918 0.41292,0.38493 0.47941,0.68237 0.19946,0.89233 -0.05599,0.16797 -0.18196,0.25196 -0.37793,0.25196 -0.95182,0.13997 -1.64469,0.32194 -2.07861,0.5459 -0.46192,0.26595 -0.81185,0.54939 -1.04981,0.85034 -0.23795,0.30094 -0.4899,0.60538 -0.75586,0.91333 0.13998,0.29394 0.20997,0.57039 0.20997,0.829343 0,0.258952 -0.05599,0.500407 -0.16797,0.724365 0.29394,0.489909 0.71386,0.986817 1.25976,1.490722 0.5459,0.50391 1.25977,1.12679 2.1416,1.86865 0.46192,0.40593 0.86434,0.93783 1.20728,1.59571 0.34294,0.65787 0.63688,1.33675 0.88184,2.03662 0.24495,0.69987 0.43042,1.37874 0.55636,2.03662 0.126,0.65788 0.189,1.20373 0.189,1.63773 M 5.59717,11.4585 C 5.87712,11.0526 6.01709,10.6117 6.01709,10.1357 6.01709,9.67383 5.87712,9.25391 5.59717,8.87598 5.45719,8.68001 5.27873,8.51554 5.06177,8.38257 4.84481,8.24959 4.62435,8.12712 4.40039,8.01514 4.16243,7.90316 3.89998,7.79118 3.61304,7.6792 3.32609,7.56722 3.01465,7.44824 2.67871,7.32227 2.46875,7.26628 2.27279,7.21729 2.09082,7.17529 1.90885,7.1333 1.71289,7.08431 1.50293,7.02832 V 3.12305 C 1.82487,3.20703 2.05583,3.30501 2.1958,3.41699 2.60173,3.66895 2.80469,4.01188 2.80469,4.4458 v 0.31494 c 0.13997,0.028 0.25895,0.04199 0.35693,0.04199 0.09798,0 0.22396,0 0.37793,0 0.11198,0 0.22396,0 0.33594,0 0.11198,0 0.22396,-0.01399 0.33594,-0.04199 L 4.82031,4.57178 C 5.01628,4.48779 5.17725,4.38981 5.30322,4.27783 5.4152,4.16585 5.47119,4.02588 5.47119,3.85791 5.47119,3.50798 5.29622,3.22103 4.94629,2.99707 4.61035,2.78711 4.19743,2.61214 3.70752,2.47217 3.07764,2.33219 2.54574,2.26221 2.11182,2.26221 2.02783,2.23421 1.82487,2.22021 1.50293,2.22021 V 0.750488 H 0.600098 V 2.17822 L -0.554688,2.22021 V 0.750488 H -1.45752 V 2.26221 c -0.22396,0.05599 -0.43042,0.09098 -0.61938,0.10498 -0.18897,0.01399 -0.38143,0.04899 -0.5774,0.10498 -0.32194,0.05599 -0.61938,0.13297 -0.89233,0.23096 -0.27295,0.09798 -0.5214,0.20996 -0.74536,0.33593 -0.46192,0.22396 -0.83285,0.5249 -1.1128,0.90283 -0.26595,0.33594 -0.39892,0.74887 -0.39892,1.23877 0,0.5459 0.14697,0.95883 0.44092,1.23877 0.25195,0.34994 0.62288,0.65088 1.11279,0.90284 0.46191,0.29394 1.02181,0.5249 1.67969,0.69287 0.16797,0.05599 0.34643,0.10498 0.5354,0.14697 0.18896,0.04199 0.38143,0.09798 0.57739,0.16797 v 4.19922 c -0.48991,-0.084 -0.87484,-0.21 -1.15478,-0.3779 -0.43392,-0.266 -0.65088,-0.6859 -0.65088,-1.2598 v -0.2939 c -0.13998,0 -0.25896,-0.007 -0.35694,-0.021 -0.09798,-0.014 -0.22396,-0.021 -0.37793,-0.021 -0.11198,0 -0.22396,0.007 -0.33593,0.021 -0.11198,0.014 -0.24496,0.035 -0.39893,0.0629 -0.13997,0.028 -0.26595,0.056 -0.37793,0.084 -0.11198,0.028 -0.19596,0.056 -0.25195,0.084 -0.26595,0.182 -0.41293,0.287 -0.44092,0.315 -0.11198,0.1119 -0.16797,0.2519 -0.16797,0.4199 0,0.4059 0.18897,0.7348 0.56689,0.9868 0.19597,0.112 0.40943,0.2205 0.64039,0.3254 0.23095,0.105 0.48641,0.1855 0.76635,0.2415 0.51791,0.14 1.0778,0.2239 1.67969,0.2519 0.13997,0 0.28345,0.007 0.43042,0.021 0.14697,0.014 0.29045,0.021 0.43042,0.021 v 1.3018 h 0.902832 v -1.3018 l 1.154786,-0.042 v 1.3438 H 1.50293 v -1.4277 c 0.23796,-0.056 0.44792,-0.091 0.62988,-0.105 0.18197,-0.014 0.37793,-0.049 0.58789,-0.105 0.5739,-0.168 1.14779,-0.3849 1.72168,-0.6509 0.48991,-0.2519 0.87484,-0.5669 1.15479,-0.9448 M 2.59473,9.48486 c 0.25195,0.16797 0.46191,0.33594 0.62988,0.50391 0.15397,0.23793 0.23096,0.46893 0.23096,0.69283 0,0.266 -0.07699,0.5109 -0.23096,0.7349 -0.13997,0.168 -0.33594,0.3569 -0.58789,0.5669 l -0.90283,0.3779 c -0.028,0 -0.05599,0.007 -0.08399,0.021 -0.02799,0.014 -0.07698,0.021 -0.14697,0.021 V 9.04395 c 0.06999,0 0.11198,0.00699 0.12598,0.02099 0.01399,0.014 0.03499,0.021 0.06298,0.021 l 0.90284,0.39892"
         fill-rule="evenodd"
         vector-effect="none" />
    </g>
    <g
       id="g16"
       font-style="normal"
       font-weight="400"
       font-size="7.8px"
       font-family="'MS Shell Dlg 2'"
       stroke="none"
       fill-opacity="1"
       fill="#8a5aa5" />
  </g>
</svg>
