<svg xmlns="http://www.w3.org/2000/svg" version="1.2" viewBox="0 0 42.52 42.52" height="56.693" width="56.693">
   <g stroke-linejoin="bevel" stroke-linecap="square" fill-rule="evenodd" stroke="none" fill="none" font-weight="400"
      font-size="7.8" font-family="'MS Shell Dlg 2'">
      <path
         d="M42.52 21.26C42.52 33 33 42.52 21.26 42.52 9.518 42.52 0 33 0 21.26 0 9.518 9.518 0 21.26 0 33 0 42.52 9.518 42.52 21.26"
         vector-effect="non-scaling-stroke" fill="#8a5aa5" />
      <path
         d="M32.799 13.57c.308 0 .577.115.808.346.231.231.347.508.347.83v14.739c0 .322-.116.605-.347.85-.23.245-.5.367-.808.367H10.123c-.308 0-.577-.122-.808-.367a1.202 1.202 0 01-.347-.85v-14.74c0-.321.116-.598.347-.829.23-.23.5-.346.808-.346H32.8M18.438 28.288l-3.36-12.346h-1.763L10.08 28.288h1.764l.819-3.737h3.065l.86 3.737h1.849m5.228-12.346h-6.572v1.428h2.456v10.918h1.68V17.37h2.436v-1.428m9.175 0h-2.499l-1.511 9.68-1.491-9.68H24.8v12.346h1.574v-10.54l1.638 10.54h1.637l1.638-10.54v10.54h1.554V15.942m-18.666 1.974l1.24 5.249H13.02l1.154-5.25"
         fill-opacity=".949" fill="#fff" />
   </g>
</svg>