<svg xmlns="http://www.w3.org/2000/svg" version="1.2" viewBox="0 0 42.52 42.52" height="56.693" width="56.693">
   <g stroke-linejoin="bevel" stroke-linecap="square" fill-rule="evenodd" stroke="none" fill="none" font-weight="400"
      font-size="7.8" font-family="'MS Shell Dlg 2'">
      <path
         d="M42.52 21.26C42.52 33 33 42.52 21.26 42.52 9.518 42.52 0 33 0 21.26 0 9.518 9.518 0 21.26 0 33 0 42.52 9.518 42.52 21.26"
         vector-effect="non-scaling-stroke" fill="#4c62ad" />
      <path
         d="M11.45 16.51a1.145 1.145 0 01-.735-.578c-.168-.301-.21-.627-.126-.976.14-.308.36-.543.661-.704.301-.16.613-.2.935-.115.308.098.55.297.724.598a.908.908 0 01.032.913c-.084.35-.277.595-.578.735-.3.14-.605.182-.913.126m6.614 7.622c-.224-.126-.364-.245-.42-.357h-.735c.056-.084.126-.182.21-.294.056-.084.105-.179.147-.284a.868.868 0 00.063-.325c0-.252.101-.48.304-.682a1.04 1.04 0 01.766-.305c.266 0 .5.102.704.305.203.203.304.458.304.766 0 .154.07.329.21.525.056.112.126.21.21.294h-.735c-.224.322-.567.44-1.028.357m5.71 0a.86.86 0 01-.745-.095c-.245-.147-.41-.332-.493-.556-.084-.322-.056-.595.084-.819a1.19 1.19 0 01.567-.483c.252-.084.507-.066.766.053s.43.332.514.64a1.089 1.089 0 01-.693 1.26m6.635-7.412a1.28 1.28 0 01-.65 0 1.145 1.145 0 01-.505-.294h-.944c.084-.14.168-.266.252-.378l.168-.378a.88.88 0 00.084-.357c0-.321.129-.598.388-.829.259-.23.542-.346.85-.346.35-.056.655.045.914.304.259.26.388.55.388.871 0 .252.07.497.21.735.084.112.168.238.252.378h-.903c-.112.084-.28.182-.504.294m3.78 5.9a.611.611 0 01-.021.472.582.582 0 01-.315.305h-.168c-.294 0-.483-.119-.567-.357l-1.302-3.527v-.084a.426.426 0 01-.084-.231.417.417 0 00-.042-.19h-.336l2.016 5.88h-1.764v5.816c0 .14-.07.269-.21.388a.724.724 0 01-.483.178c-.392 0-.588-.188-.588-.566v-5.816h-.483v5.816c0 .378-.196.566-.588.566-.405 0-.608-.188-.608-.566v-5.816H26.63l2.016-5.88h-.252a.539.539 0 00-.19.42l-.083.085-1.24 3.527a.393.393 0 01-.251.315v.042c.056.056.07.112.042.168a.275.275 0 01-.126.126l-.735.777-.168.168c-.154.14-.315.276-.483.41a1.53 1.53 0 01-.609.283v5.375c0 .252-.14.378-.42.378a.647.647 0 01-.367-.105c-.105-.07-.157-.161-.157-.273v-1.848h-.336v1.848c0 .252-.147.378-.441.378-.252 0-.378-.126-.378-.378v-5.249c-.056.056-.14.203-.252.44l-.61 1.365c-.083.14-.223.21-.419.21h-.147c-.056 0-.084-.014-.084-.042-.028.028-.056.042-.084.042h-.168c-.196 0-.336-.07-.42-.21l-.609-1.365c-.084-.237-.203-.398-.357-.482l1.218 3.527h-1.113v1.764c0 .252-.133.378-.399.378-.28 0-.42-.126-.42-.378v-1.764h-.44v1.764c0 .252-.14.378-.42.378-.266 0-.4-.126-.4-.378v-1.764h-1.112l1.239-3.611c-.308-.056-.557-.15-.746-.284a3.737 3.737 0 01-.493-.41l-.168-.167-.735-.777a.275.275 0 01-.126-.126c-.028-.056-.014-.112.042-.168l.042-.042c-.168-.112-.266-.217-.294-.315l-1.26-3.527v-.084c-.112-.224-.168-.364-.168-.42h-.252v11.695c0 .378-.203.566-.608.566-.434 0-.651-.188-.651-.566v-6.677h-.42v6.677c0 .14-.074.269-.22.388a.738.738 0 01-.473.178c-.406 0-.609-.188-.609-.566V19.008h-.21a.745.745 0 00-.084.336v4.052c0 .308-.203.462-.609.462a.53.53 0 01-.357-.126.42.42 0 01-.147-.336v-4.052c0-.518.15-.984.452-1.397.3-.412.766-.647 1.396-.703h2.267c.49.056.872.284 1.145.682.273.4.451.76.535 1.082l.084.084v.084l1.26 3.443v.336l-.084.126v.042l.693.65.168.169c.14.154.259.266.357.336.098.07.224.105.378.105h1.448c.63 0 1.134.385 1.512 1.155a7.45 7.45 0 00.42.986 5.89 5.89 0 00.178-.399c.063-.154.137-.35.22-.587.365-.77.862-1.155 1.492-1.155h1.469c.14 0 .263-.035.368-.105.105-.07.227-.182.367-.336l.168-.168.693-.651c0-.028.014-.042.042-.042l-.126-.126c0-.112.028-.224.084-.336l1.239-3.443v-.168c.14-.322.332-.676.577-1.06.245-.385.613-.62 1.103-.704H31.186c.546.084.938.319 1.176.703.238.385.406.739.504 1.06l.084.085v.084l1.239 3.443"
         fill="#fff" />
   </g>
</svg>