<?xml version="1.0" encoding="UTF-8" standalone="no"?>
<svg
   xmlns:dc="http://purl.org/dc/elements/1.1/"
   xmlns:cc="http://creativecommons.org/ns#"
   xmlns:rdf="http://www.w3.org/1999/02/22-rdf-syntax-ns#"
   xmlns:svg="http://www.w3.org/2000/svg"
   xmlns="http://www.w3.org/2000/svg"
   xmlns:sodipodi="http://sodipodi.sourceforge.net/DTD/sodipodi-0.dtd"
   xmlns:inkscape="http://www.inkscape.org/namespaces/inkscape"
   inkscape:version="1.0 (4035a4fb49, 2020-05-01)"
   sodipodi:docname="1501.svg"
   id="svg20"
   version="1.2"
   viewBox="0 0 42.519639 42.519639"
   height="14.999999mm"
   width="14.999999mm">
  <metadata
     id="metadata24">
    <rdf:RDF>
      <cc:Work
         rdf:about="">
        <dc:format>image/svg+xml</dc:format>
        <dc:type
           rdf:resource="http://purl.org/dc/dcmitype/StillImage" />
        <dc:title>Qt SVG Document</dc:title>
      </cc:Work>
    </rdf:RDF>
  </metadata>
  <sodipodi:namedview
     inkscape:current-layer="svg20"
     inkscape:window-maximized="0"
     inkscape:window-y="0"
     inkscape:window-x="0"
     inkscape:cy="28.346482"
     inkscape:cx="28.346482"
     inkscape:zoom="5.8410537"
     showgrid="false"
     id="namedview22"
     inkscape:window-height="480"
     inkscape:window-width="1034"
     inkscape:pageshadow="2"
     inkscape:pageopacity="0"
     guidetolerance="10"
     gridtolerance="10"
     objecttolerance="10"
     borderopacity="1"
     bordercolor="#666666"
     pagecolor="#ffffff" />
  <title
     id="title2">Qt SVG Document</title>
  <desc
     id="desc4">Generated with Qt</desc>
  <defs
     id="defs6" />
  <g
     transform="translate(5.25984,5.25984)"
     id="g18"
     stroke-linejoin="bevel"
     stroke-linecap="square"
     fill-rule="evenodd"
     stroke-width="1"
     stroke="#000000"
     fill="none">
    <g
       id="g10"
       font-style="normal"
       font-weight="400"
       font-size="7.8px"
       font-family="'MS Shell Dlg 2'"
       stroke="none"
       fill-opacity="1"
       fill="#4c62ad">
      <path
         id="path8"
         d="M 37.2598,16 C 37.2598,27.7415 27.7415,37.2598 16,37.2598 4.25851,37.2598 -5.25984,27.7415 -5.25984,16 -5.25984,4.25851 4.25851,-5.25984 16,-5.25984 27.7415,-5.25984 37.2598,4.25851 37.2598,16"
         fill-rule="evenodd"
         vector-effect="non-scaling-stroke" />
    </g>
    <g
       id="g14"
       font-style="normal"
       font-weight="400"
       font-size="7.8px"
       font-family="'MS Shell Dlg 2'"
       transform="translate(16.5669,13.1654)"
       stroke="none"
       fill-opacity="1"
       fill="#ffffff">
      <path
         id="path12"
         d="M -10.377,-1.91602 C -10.6989,-2 -10.9438,-2.19246 -11.1118,-2.49341 c -0.168,-0.30094 -0.21,-0.62638 -0.126,-0.97632 0.14,-0.30794 0.3604,-0.5424 0.6614,-0.70337 0.3009,-0.16097 0.61237,-0.19946 0.93431,-0.11547 0.30794,0.09798 0.5494,0.29744 0.72437,0.59838 0.17496,0.30095 0.18546,0.60539 0.03149,0.91333 -0.08398,0.34994 -0.27645,0.59489 -0.57739,0.73487 -0.30095,0.13997 -0.60538,0.18196 -0.91338,0.12597 m 6.61382,7.62159 C -3.98714,5.57959 -4.12712,5.46061 -4.18311,5.34863 h -0.73486 c 0.05599,-0.08398 0.12598,-0.18196 0.20996,-0.29394 0.05599,-0.08399 0.10498,-0.17847 0.14697,-0.28345 0.042,-0.10498 0.06299,-0.21346 0.06299,-0.32544 0,-0.25195 0.10148,-0.47941 0.30445,-0.68237 0.20296,-0.20296 0.45841,-0.30445 0.76635,-0.30445 0.26595,0 0.50041,0.10149 0.70337,0.30445 0.20297,0.20296 0.30445,0.45841 0.30445,0.76636 0,0.15397 0.06998,0.32893 0.20996,0.5249 0.05599,0.11198 0.12597,0.20996 0.20996,0.29394 h -0.73487 c -0.22395,0.32194 -0.56689,0.44092 -1.0288,0.35694 m 5.71093,0 C 1.6958,5.78955 1.44735,5.75806 1.20239,5.61108 0.957438,5.46411 0.792969,5.27865 0.708984,5.05469 0.625,4.73275 0.652995,4.4598 0.792969,4.23584 0.932943,4.01188 1.12191,3.85091 1.35986,3.75293 1.61182,3.66895 1.86727,3.68644 2.12622,3.80542 2.38517,3.9244 2.55664,4.13786 2.64063,4.4458 2.69661,4.71175 2.66162,4.9637 2.53564,5.20166 2.40967,5.43962 2.2137,5.60758 1.94775,5.70557 m 6.63477,-7.41162 c -0.23796,0.05598 -0.45492,0.05598 -0.65088,0 C 7.73568,-1.76204 7.56771,-1.86003 7.42773,-2 H 6.48291 c 0.08398,-0.13997 0.16797,-0.26595 0.25195,-0.37793 0.05599,-0.12598 0.11198,-0.25195 0.16797,-0.37793 0.05599,-0.12598 0.08399,-0.24495 0.08399,-0.35693 0,-0.32194 0.12947,-0.59839 0.38842,-0.82935 0.25896,-0.23096 0.5424,-0.34643 0.85035,-0.34643 0.34993,-0.05599 0.65437,0.04549 0.91333,0.30444 0.25895,0.25895 0.38842,0.5494 0.38842,0.87134 0,0.25195 0.06999,0.4969 0.20996,0.73486 C 9.82129,-2.26595 9.90527,-2.13997 9.98926,-2 H 9.08643 c -0.11198,0.08398 -0.27995,0.18197 -0.50391,0.29395 m 3.77928,5.8999 c 0.056,0.16797 0.049,0.32544 -0.021,0.47241 -0.07,0.14697 -0.1749,0.24845 -0.3149,0.30444 h -0.168 C 11.564,4.9707 11.375,4.85173 11.291,4.61377 L 9.98926,1.08643 V 1.00244 C 9.93327,0.918457 9.90527,0.841471 9.90527,0.771484 9.90527,0.701497 9.89128,0.638509 9.86328,0.58252 H 9.52734 L 11.543,6.46143 H 9.7793 v 5.81587 c 0,0.14 -0.06999,0.2695 -0.20996,0.3885 -0.13998,0.1189 -0.30095,0.1784 -0.48291,0.1784 -0.39193,0 -0.58789,-0.1889 -0.58789,-0.5669 V 6.46143 H 8.01563 v 5.81587 c 0,0.378 -0.19597,0.5669 -0.5879,0.5669 -0.40592,0 -0.60888,-0.1889 -0.60888,-0.5669 V 6.46143 H 4.80322 L 6.81885,0.58252 H 6.56689 C 6.44092,0.694499 6.37793,0.834473 6.37793,1.00244 L 6.29395,1.08643 5.05518,4.61377 C 5.02718,4.76774 4.9432,4.87272 4.80322,4.92871 V 4.9707 C 4.85921,5.02669 4.87321,5.08268 4.84521,5.13867 4.81722,5.19466 4.77523,5.23665 4.71924,5.26465 L 3.98438,6.0415 3.81641,6.20947 C 3.66243,6.34945 3.50146,6.48592 3.3335,6.6189 3.16553,6.75187 2.96257,6.84635 2.72461,6.90234 v 3.52736 1.8476 c 0,0.252 -0.13997,0.378 -0.41992,0.378 -0.13998,0 -0.26245,-0.035 -0.36743,-0.105 -0.10498,-0.07 -0.15747,-0.161 -0.15747,-0.273 V 10.4297 H 1.44385 v 1.8476 c 0,0.252 -0.14697,0.378 -0.44092,0.378 -0.251953,0 -0.37793,-0.126 -0.37793,-0.378 V 10.4297 7.02832 C 0.56901,7.08431 0.485026,7.23128 0.373047,7.46924 L -0.23584,8.83398 c -0.083984,0.13998 -0.223958,0.20997 -0.419922,0.20997 h -0.146972 c -0.05599,0 -0.083985,-0.014 -0.083985,-0.042 -0.027995,0.028 -0.055989,0.042 -0.083984,0.042 H -1.13867 c -0.19597,0 -0.33594,-0.06999 -0.41992,-0.20997 L -2.16748,7.46924 C -2.25146,7.23128 -2.37044,7.07031 -2.52441,6.98633 l 1.21777,3.52737 h -1.11279 v 1.7636 c 0,0.252 -0.13298,0.378 -0.39893,0.378 -0.27995,0 -0.41992,-0.126 -0.41992,-0.378 V 10.5137 H -3.6792 v 1.7636 c 0,0.252 -0.13997,0.378 -0.41992,0.378 -0.26595,0 -0.39893,-0.126 -0.39893,-0.378 V 10.5137 H -5.61084 L -4.37207,6.90234 C -4.68001,6.84635 -4.92847,6.75187 -5.11743,6.6189 -5.3064,6.48592 -5.47087,6.34945 -5.61084,6.20947 L -5.77881,6.0415 -6.51367,5.26465 C -6.56966,5.23665 -6.61165,5.19466 -6.63965,5.13867 -6.66764,5.08268 -6.65365,5.02669 -6.59766,4.9707 l 0.042,-0.04199 C -6.72363,4.81673 -6.82161,4.71175 -6.84961,4.61377 L -8.10938,1.08643 V 1.00244 C -8.22135,0.778483 -8.27734,0.638509 -8.27734,0.58252 H -8.5293 V 4.9707 5.05469 12.2773 c 0,0.378 -0.20296,0.5669 -0.60888,0.5669 -0.43392,0 -0.65088,-0.1889 -0.65088,-0.5669 V 5.60059 H -10.209 v 6.67671 c 0,0.14 -0.0735,0.2695 -0.2204,0.3885 -0.147,0.1189 -0.3045,0.1784 -0.4725,0.1784 -0.4059,0 -0.6088,-0.1889 -0.6088,-0.5669 V 5.05469 4.9707 0.58252 h -0.21 c -0.056,0.111979 -0.084,0.223958 -0.084,0.335937 V 4.9707 c 0,0.30795 -0.2029,0.46192 -0.6089,0.46192 -0.1399,0 -0.2589,-0.04199 -0.3569,-0.12598 -0.098,-0.08398 -0.147,-0.19596 -0.147,-0.33594 V 0.918457 c 0,-0.517904 0.1505,-0.983317 0.4514,-1.39624 0.301,-0.412923 0.7664,-0.647377 1.3963,-0.703367 h 0.084 0.0839 1.8477 0.08399 0.16796 c 0.48991,0.05599 0.87134,0.283445 1.14429,0.682371 0.27295,0.3989255 0.45142,0.759358 0.5354,1.081299 l 0.08399,0.083984 v 0.083984 l 1.25976,3.443362 v 0.33594 l -0.08398,0.12597 v 0.04199 l 0.69287,0.65088 0.16797,0.16797 c 0.13997,0.15397 0.25895,0.26595 0.35693,0.33594 0.09798,0.06999 0.22396,0.10498 0.37793,0.10498 h 0.50391 0.44091 0.50391 c 0.62988,0 1.13379,0.38493 1.51172,1.15478 0.08398,0.23796 0.16097,0.43392 0.23096,0.5879 0.06998,0.15397 0.132972,0.28694 0.188961,0.39892 C -0.830729,7.98714 -0.77124,7.85417 -0.708252,7.7002 -0.645264,7.54622 -0.571777,7.35026 -0.487793,7.1123 -0.123861,6.34245 0.373047,5.95752 1.00293,5.95752 h 0.5249 0.41992 0.52491 c 0.13997,0 0.26245,-0.03499 0.36743,-0.10498 C 2.94507,5.78255 3.06755,5.67057 3.20752,5.5166 L 3.37549,5.34863 4.06836,4.69775 c 0,-0.02799 0.014,-0.04199 0.04199,-0.04199 L 3.98438,4.52979 c 0,-0.11198 0.02799,-0.22396 0.08398,-0.33594 L 5.30713,0.750488 V 0.666504 0.58252 C 5.4471,0.260579 5.63957,-0.0928548 5.88452,-0.477783 6.12948,-0.862712 6.49691,-1.09717 6.98682,-1.18115 h 0.16797 0.08398 1.84766 0.18896 0.08399 c 0.54589,0.08398 0.93782,0.318438 1.17582,0.703367 0.2379,0.3849282 0.4059,0.738362 0.5039,1.060303 l 0.0839,0.083984 v 0.083984 l 1.2388,3.443362"
         fill-rule="evenodd"
         vector-effect="none" />
    </g>
    <g
       id="g16"
       font-style="normal"
       font-weight="400"
       font-size="7.8px"
       font-family="'MS Shell Dlg 2'"
       stroke="none"
       fill-opacity="1"
       fill="#4c62ad" />
  </g>
</svg>
