<svg xmlns="http://www.w3.org/2000/svg" version="1.2" viewBox="0 0 42.52 42.52" height="56.693" width="56.693">
   <g stroke-linejoin="bevel" stroke-linecap="square" fill-rule="evenodd" stroke="none" fill="none" font-weight="400"
      font-size="7.8" font-family="'MS Shell Dlg 2'">
      <path
         d="M42.52 21.26C42.52 33 33 42.52 21.26 42.52 9.518 42.52 0 33 0 21.26 0 9.518 9.518 0 21.26 0 33 0 42.52 9.518 42.52 21.26"
         vector-effect="non-scaling-stroke" fill="#4c62ad" />
      <path
         d="M21.524 16.404c-.91 0-1.704-.329-2.383-.987-.679-.658-1.018-1.462-1.018-2.414 0-.966.34-1.792 1.018-2.478.679-.686 1.473-1.029 2.383-1.029.98 0 1.813.343 2.499 1.03a3.377 3.377 0 011.028 2.477c0 .952-.343 1.756-1.028 2.414-.686.658-1.52.987-2.499.987m-3.128-3.17c0 .49.014.647.042.472.028-.175.133-.455.315-.84.181-.385.49-.78.923-1.186.434-.406 1.05-.609 1.848-.609.826 0 1.463.203 1.91.609.449.406.767.801.956 1.186.189.385.29.665.304.84.014.175.021.018.021-.472 0-.952-.308-1.757-.923-2.415-.616-.658-1.372-.987-2.268-.987-.854 0-1.589.33-2.205.987-.615.658-.923 1.463-.923 2.415m-6.026 15.39c-.574 0-1.04-.186-1.397-.557-.356-.37-.535-.829-.535-1.375 0-.462.112-.854.336-1.176l5.081-6.907a2.65 2.65 0 01.546-.651c.21-.14.451-.284.724-.43.273-.148.606-.235.998-.263h6.844a2.5 2.5 0 01.987.262c.28.147.511.29.693.43.196.197.364.414.504.652l5.081 6.907c.224.322.336.714.336 1.176 0 .546-.186 1.005-.556 1.375-.371.371-.83.557-1.376.557-.14 0-.259-.014-.357-.042a5.948 5.948 0 01-.378-.126l-3.086-.819v2.058H16.191v-2.058l-3.086.819c-.154.056-.28.098-.378.126a1.314 1.314 0 01-.357.042m3.212-9.028l.609 4.073.336-.084c.7-.196 1.277-.158 1.732.115.455.273.749.637.882 1.092.133.455.084.92-.147 1.396-.231.476-.69.812-1.375 1.008h-.084l3.989 1.344 3.947-1.344h-.084c-.686-.196-1.144-.532-1.375-1.008-.23-.476-.28-.941-.147-1.396.133-.455.427-.819.882-1.092.455-.273 1.032-.311 1.732-.115l.336.084.567-4.073-5.858 1.763-5.942-1.763m16.65 11.043c.35 0 .525.33.525.987 0 .294-.046.532-.137.714-.09.182-.22.273-.388.273H10.774c-.14 0-.262-.09-.367-.273-.105-.182-.158-.42-.158-.714 0-.308.053-.55.158-.724.105-.175.227-.263.367-.263h21.458"
         fill-opacity=".949" fill="#fff" />
   </g>
</svg>