<?xml version="1.0" encoding="UTF-8" standalone="no"?>
<svg
   xmlns:dc="http://purl.org/dc/elements/1.1/"
   xmlns:cc="http://creativecommons.org/ns#"
   xmlns:rdf="http://www.w3.org/1999/02/22-rdf-syntax-ns#"
   xmlns:svg="http://www.w3.org/2000/svg"
   xmlns="http://www.w3.org/2000/svg"
   xmlns:sodipodi="http://sodipodi.sourceforge.net/DTD/sodipodi-0.dtd"
   xmlns:inkscape="http://www.inkscape.org/namespaces/inkscape"
   inkscape:version="1.0 (4035a4fb49, 2020-05-01)"
   sodipodi:docname="1504.svg"
   id="svg20"
   version="1.2"
   viewBox="0 0 42.519639 42.519639"
   height="14.999999mm"
   width="14.999999mm">
  <metadata
     id="metadata24">
    <rdf:RDF>
      <cc:Work
         rdf:about="">
        <dc:format>image/svg+xml</dc:format>
        <dc:type
           rdf:resource="http://purl.org/dc/dcmitype/StillImage" />
        <dc:title>Qt SVG Document</dc:title>
      </cc:Work>
    </rdf:RDF>
  </metadata>
  <sodipodi:namedview
     inkscape:current-layer="svg20"
     inkscape:window-maximized="0"
     inkscape:window-y="0"
     inkscape:window-x="0"
     inkscape:cy="28.346482"
     inkscape:cx="28.346482"
     inkscape:zoom="5.8410537"
     showgrid="false"
     id="namedview22"
     inkscape:window-height="480"
     inkscape:window-width="1034"
     inkscape:pageshadow="2"
     inkscape:pageopacity="0"
     guidetolerance="10"
     gridtolerance="10"
     objecttolerance="10"
     borderopacity="1"
     bordercolor="#666666"
     pagecolor="#ffffff" />
  <title
     id="title2">Qt SVG Document</title>
  <desc
     id="desc4">Generated with Qt</desc>
  <defs
     id="defs6" />
  <g
     transform="translate(5.25984,5.25984)"
     id="g18"
     stroke-linejoin="bevel"
     stroke-linecap="square"
     fill-rule="evenodd"
     stroke-width="1"
     stroke="#000000"
     fill="none">
    <g
       id="g10"
       font-style="normal"
       font-weight="400"
       font-size="7.8px"
       font-family="'MS Shell Dlg 2'"
       stroke="none"
       fill-opacity="1"
       fill="#4c62ad">
      <path
         id="path8"
         d="M 37.2598,16 C 37.2598,27.7415 27.7415,37.2598 16,37.2598 4.25851,37.2598 -5.25984,27.7415 -5.25984,16 -5.25984,4.25851 4.25851,-5.25984 16,-5.25984 27.7415,-5.25984 37.2598,4.25851 37.2598,16"
         fill-rule="evenodd"
         vector-effect="non-scaling-stroke" />
    </g>
    <g
       id="g14"
       font-style="normal"
       font-weight="400"
       font-size="7.8px"
       font-family="'MS Shell Dlg 2'"
       transform="translate(16,13.1654)"
       stroke="none"
       fill-opacity="0.94902"
       fill="#ffffff">
      <path
         id="path12"
         d="M -0.680664,2.8501 6.41602,4.52979 C 6.19206,4.85173 5.9576,5.24715 5.71265,5.71606 5.46769,6.18498 5.22624,6.5944 4.98828,6.94434 4.82031,7.19629 4.51587,7.33976 4.07495,7.37476 3.63403,7.40975 3.09513,7.33976 2.45825,7.16479 1.82137,6.98983 1.125,6.73088 0.369141,6.38794 -0.386719,6.045 -1.16357,5.62858 -1.96143,5.13867 -2.77327,4.64876 -3.50114,4.13786 -4.14502,3.60596 -4.7889,3.07406 -5.3243,2.56665 -5.75122,2.08374 -6.17814,1.60083 -6.47909,1.15641 -6.65405,0.750488 -6.82902,0.344564 -6.84652,0.0296224 -6.70654,-0.194336 c 0.23795,-0.405924 0.5004,-0.822344 0.78735,-1.249264 0.28695,-0.42692 0.50041,-0.80135 0.64038,-1.12329 L -0.680664,2.8501 M 12.001,4.4458 11.5811,5.05469 11.3921,4.9707 10.4053,9.04395 c 0.3219,0.18196 0.4409,0.44091 0.3569,0.77685 0,0.11198 -0.0525,0.2065 -0.1575,0.2834 -0.1049,0.077 -0.2274,0.1155 -0.3674,0.1155 -0.056,0.4759 -0.112,0.9728 -0.168,1.4907 -0.056,0.518 -0.11194,0.8959 -0.16793,1.1338 -0.05599,0.224 -0.09798,0.406 -0.12598,0.5459 -0.02799,0.14 -0.06649,0.2485 -0.11548,0.3255 -0.04899,0.077 -0.10848,0.1225 -0.17846,0.1365 -0.06999,0.0139 -0.18897,-0.007 -0.35694,-0.063 -0.32194,-0.056 -0.46891,-0.1505 -0.44092,-0.2835 0.028,-0.133 0.11898,-0.4164 0.27295,-0.8503 0.05599,-0.224 0.16797,-0.5809 0.33594,-1.0708 0.16797,-0.4899 0.34294,-0.9728 0.5249,-1.4488 C 9.66341,10.0658 9.56543,9.97477 9.52344,9.86279 9.48145,9.75081 9.48844,9.62484 9.54443,9.48486 9.61442,9.34489 9.6984,9.22241 9.79639,9.11743 9.89437,9.01245 10.0133,8.95996 10.1533,8.95996 L 11.0981,4.88672 0.138184,1.7373 -7.9873,-6.95508 -7.65137,-7.54297 3.87549,-4.22559 12.001,4.4458 M 0.012207,9.8208 c 0.0559896,0.21 0.118978,0.4409 0.188965,0.6929 0.069987,0.2519 0.132975,0.4969 0.188965,0.7348 0.083984,0.308 -0.167969,0.6579 -0.75586,1.0498 -0.58789,0.392 -1.350747,0.7139 -2.288577,0.9659 -0.97981,0.3219 -1.81966,0.4654 -2.51953,0.4304 -0.69987,-0.035 -1.0918,-0.2065 -1.17578,-0.5144 -0.08398,-0.168 -0.16447,-0.3885 -0.24145,-0.6614 -0.07699,-0.273 -0.14348,-0.5004 -0.19947,-0.6824 l 3.92627,0.189 2.876467,-2.2046 m 1.847653,-2.30957 0.16797,0.41992 -5.33301,3.23345 -5.94189,0.0839 -0.08398,2.1836 c 0.08398,0 0.15047,0.028 0.19946,0.084 0.04899,0.056 0.07348,0.119 0.07348,0.189 0,0.2239 -0.09098,0.3359 -0.27294,0.3359 0.05598,0.252 0.10148,0.5074 0.13647,0.7664 0.03499,0.2589 0.05249,0.4584 0.05249,0.5984 -0.06999,0.2379 -0.10498,0.3919 -0.10498,0.4619 0,0.07 -0.08398,0.105 -0.25195,0.105 -0.16797,0 -0.25196,-0.035 -0.25196,-0.105 0,-0.07 0.028,-0.224 0.08399,-0.4619 0,-0.14 0.014,-0.3395 0.04199,-0.5984 0.02799,-0.259 0.06999,-0.5144 0.12598,-0.7664 -0.16797,-0.084 -0.25196,-0.1959 -0.25196,-0.3359 0,-0.182 0.11198,-0.273 0.33594,-0.273 l 0.08399,-2.1836 H -9.49902 L -9.58301,10.8916 -4.33398,7.59521 1.85986,7.51123"
         fill-rule="evenodd"
         vector-effect="none" />
    </g>
    <g
       id="g16"
       font-style="normal"
       font-weight="400"
       font-size="7.8px"
       font-family="'MS Shell Dlg 2'"
       stroke="none"
       fill-opacity="1"
       fill="#4c62ad" />
  </g>
</svg>
