<?xml version="1.0" encoding="UTF-8" standalone="no"?>
<svg width="11.2889mm" height="11.2889mm"
 viewBox="0 0 32 32"
 xmlns="http://www.w3.org/2000/svg" xmlns:xlink="http://www.w3.org/1999/xlink"  version="1.2" baseProfile="tiny">
<title>Qt SVG Document</title>
<desc>Generated with Qt</desc>
<defs>
</defs>
<g fill="none" stroke="black" stroke-width="1" fill-rule="evenodd" stroke-linecap="square" stroke-linejoin="bevel" >

<g fill="#4c62ad" fill-opacity="1" stroke="none" transform="matrix(1,0,0,1,0,0)"
font-family="MS Shell Dlg 2" font-size="7.8" font-weight="400" font-style="normal" 
>
<path vector-effect="non-scaling-stroke" fill-rule="evenodd" d="M37.2598,16 C37.2598,27.7415 27.7415,37.2598 16,37.2598 C4.25851,37.2598 -5.25984,27.7415 -5.25984,16 C-5.25984,4.25851 4.25851,-5.25984 16,-5.25984 C27.7415,-5.25984 37.2598,4.25851 37.2598,16 "/>
</g>

<g fill="#ffffff" fill-opacity="0.94902" stroke="none" transform="matrix(1,0,0,1,16,13.1654)"
font-family="MS Shell Dlg 2" font-size="7.8" font-weight="400" font-style="normal" 
>
<path vector-effect="none" fill-rule="evenodd" d="M-0.680664,2.8501 L6.41602,4.52979 C6.19206,4.85173 5.9576,5.24715 5.71265,5.71606 C5.46769,6.18498 5.22624,6.5944 4.98828,6.94434 C4.82031,7.19629 4.51587,7.33976 4.07495,7.37476 C3.63403,7.40975 3.09513,7.33976 2.45825,7.16479 C1.82137,6.98983 1.125,6.73088 0.369141,6.38794 C-0.386719,6.045 -1.16357,5.62858 -1.96143,5.13867 C-2.77327,4.64876 -3.50114,4.13786 -4.14502,3.60596 C-4.7889,3.07406 -5.3243,2.56665 -5.75122,2.08374 C-6.17814,1.60083 -6.47909,1.15641 -6.65405,0.750488 C-6.82902,0.344564 -6.84652,0.0296224 -6.70654,-0.194336 C-6.46859,-0.60026 -6.20614,-1.01668 -5.91919,-1.4436 C-5.63224,-1.87052 -5.41878,-2.24495 -5.27881,-2.56689 L-0.680664,2.8501 M12.001,4.4458 L11.5811,5.05469 L11.3921,4.9707 L10.4053,9.04395 C10.7272,9.22591 10.8462,9.48486 10.7622,9.8208 C10.7622,9.93278 10.7097,10.0273 10.6047,10.1042 C10.4998,10.1812 10.3773,10.2197 10.2373,10.2197 C10.1813,10.6956 10.1253,11.1925 10.0693,11.7104 C10.0133,12.2284 9.95736,12.6063 9.90137,12.8442 C9.84538,13.0682 9.80339,13.2502 9.77539,13.3901 C9.7474,13.5301 9.7089,13.6386 9.65991,13.7156 C9.61092,13.7926 9.55143,13.8381 9.48145,13.8521 C9.41146,13.866 9.29248,13.8451 9.12451,13.7891 C8.80257,13.7331 8.6556,13.6386 8.68359,13.5056 C8.71159,13.3726 8.80257,13.0892 8.95654,12.6553 C9.01253,12.4313 9.12451,12.0744 9.29248,11.5845 C9.46045,11.0946 9.63542,10.6117 9.81738,10.1357 C9.66341,10.0658 9.56543,9.97477 9.52344,9.86279 C9.48145,9.75081 9.48844,9.62484 9.54443,9.48486 C9.61442,9.34489 9.6984,9.22241 9.79639,9.11743 C9.89437,9.01245 10.0133,8.95996 10.1533,8.95996 L11.0981,4.88672 L0.138184,1.7373 L-7.9873,-6.95508 L-7.65137,-7.54297 L3.87549,-4.22559 L12.001,4.4458 M0.012207,9.8208 C0.0681966,10.0308 0.131185,10.2617 0.201172,10.5137 C0.271159,10.7656 0.334147,11.0106 0.390137,11.2485 C0.474121,11.5565 0.222168,11.9064 -0.365723,12.2983 C-0.953613,12.6903 -1.71647,13.0122 -2.6543,13.2642 C-3.63411,13.5861 -4.47396,13.7296 -5.17383,13.6946 C-5.8737,13.6596 -6.26563,13.4881 -6.34961,13.1802 C-6.43359,13.0122 -6.51408,12.7917 -6.59106,12.5188 C-6.66805,12.2458 -6.73454,12.0184 -6.79053,11.8364 L-2.86426,12.0254 L0.012207,9.8208 M1.85986,7.51123 L2.02783,7.93115 L-3.30518,11.1646 L-9.24707,11.2485 L-9.33105,13.4321 C-9.24707,13.4321 -9.18058,13.4601 -9.13159,13.5161 C-9.0826,13.5721 -9.05811,13.6351 -9.05811,13.7051 C-9.05811,13.929 -9.14909,14.041 -9.33105,14.041 C-9.27507,14.293 -9.22957,14.5484 -9.19458,14.8074 C-9.15959,15.0663 -9.14209,15.2658 -9.14209,15.4058 C-9.21208,15.6437 -9.24707,15.7977 -9.24707,15.8677 C-9.24707,15.9377 -9.33105,15.9727 -9.49902,15.9727 C-9.66699,15.9727 -9.75098,15.9377 -9.75098,15.8677 C-9.75098,15.7977 -9.72298,15.6437 -9.66699,15.4058 C-9.66699,15.2658 -9.65299,15.0663 -9.625,14.8074 C-9.59701,14.5484 -9.55501,14.293 -9.49902,14.041 C-9.66699,13.957 -9.75098,13.8451 -9.75098,13.7051 C-9.75098,13.5231 -9.639,13.4321 -9.41504,13.4321 L-9.33105,11.2485 L-9.49902,11.2485 L-9.58301,10.8916 L-4.33398,7.59521 L1.85986,7.51123"/>
</g>

<g fill="#4c62ad" fill-opacity="1" stroke="none" transform="matrix(1,0,0,1,0,0)"
font-family="MS Shell Dlg 2" font-size="7.8" font-weight="400" font-style="normal" 
>
</g>
</g>
</svg>
