<?xml version="1.0" encoding="UTF-8" standalone="no"?>
<svg
   xmlns:dc="http://purl.org/dc/elements/1.1/"
   xmlns:cc="http://creativecommons.org/ns#"
   xmlns:rdf="http://www.w3.org/1999/02/22-rdf-syntax-ns#"
   xmlns:svg="http://www.w3.org/2000/svg"
   xmlns="http://www.w3.org/2000/svg"
   xmlns:sodipodi="http://sodipodi.sourceforge.net/DTD/sodipodi-0.dtd"
   xmlns:inkscape="http://www.inkscape.org/namespaces/inkscape"
   inkscape:version="1.0 (4035a4fb49, 2020-05-01)"
   sodipodi:docname="1505.svg"
   id="svg20"
   version="1.2"
   viewBox="0 0 42.519639 42.519639"
   height="14.999999mm"
   width="14.999999mm">
  <metadata
     id="metadata24">
    <rdf:RDF>
      <cc:Work
         rdf:about="">
        <dc:format>image/svg+xml</dc:format>
        <dc:type
           rdf:resource="http://purl.org/dc/dcmitype/StillImage" />
        <dc:title>Qt SVG Document</dc:title>
      </cc:Work>
    </rdf:RDF>
  </metadata>
  <sodipodi:namedview
     inkscape:current-layer="svg20"
     inkscape:window-maximized="0"
     inkscape:window-y="0"
     inkscape:window-x="0"
     inkscape:cy="28.346482"
     inkscape:cx="28.346482"
     inkscape:zoom="5.8410537"
     showgrid="false"
     id="namedview22"
     inkscape:window-height="480"
     inkscape:window-width="1034"
     inkscape:pageshadow="2"
     inkscape:pageopacity="0"
     guidetolerance="10"
     gridtolerance="10"
     objecttolerance="10"
     borderopacity="1"
     bordercolor="#666666"
     pagecolor="#ffffff" />
  <title
     id="title2">Qt SVG Document</title>
  <desc
     id="desc4">Generated with Qt</desc>
  <defs
     id="defs6" />
  <g
     transform="translate(5.25984,5.25984)"
     id="g18"
     stroke-linejoin="bevel"
     stroke-linecap="square"
     fill-rule="evenodd"
     stroke-width="1"
     stroke="#000000"
     fill="none">
    <g
       id="g10"
       font-style="normal"
       font-weight="400"
       font-size="7.8px"
       font-family="'MS Shell Dlg 2'"
       stroke="none"
       fill-opacity="1"
       fill="#4c62ad">
      <path
         id="path8"
         d="M 37.2598,16 C 37.2598,27.7415 27.7415,37.2598 16,37.2598 4.25851,37.2598 -5.25984,27.7415 -5.25984,16 -5.25984,4.25851 4.25851,-5.25984 16,-5.25984 27.7415,-5.25984 37.2598,4.25851 37.2598,16"
         fill-rule="evenodd"
         vector-effect="non-scaling-stroke" />
    </g>
    <g
       id="g14"
       font-style="normal"
       font-weight="400"
       font-size="7.8px"
       font-family="'MS Shell Dlg 2'"
       transform="translate(16,13.9591)"
       stroke="none"
       fill-opacity="0.94902"
       fill="#ffffff">
      <path
         id="path12"
         d="M -5.8877,3.75293 C -6.43359,3.9069 -7.08447,4.03288 -7.84033,4.13086 -8.59619,4.22884 -9.53402,4.27783 -10.6538,4.27783 L -7.12646,-6.3042 c 0.71386,0 1.45922,-0.12248 2.23608,-0.36743 0.77685,-0.24496 1.50822,-0.36743 2.19409,-0.36743 0.39193,0 0.79085,0.05249 1.19678,0.15747 0.40592,0.10498 0.762856,0.21346 1.070799,0.32544 L 0.0961914,2.13623 -5.8877,3.75293 m 16.9439,0.5249 C 10.0483,4.27783 9.1945,4.23584 8.49463,4.15186 7.79476,4.06787 7.17887,3.96639 6.64697,3.84741 6.11507,3.72843 5.64966,3.61296 5.25073,3.50098 4.85181,3.389 4.46338,3.29102 4.08545,3.20703 L 0.306152,2.22021 0.915039,-6.55615 C 1.19499,-6.66813 1.53092,-6.77661 1.92285,-6.88159 c 0.39193,-0.10498 0.78386,-0.15747 1.17578,-0.15747 0.68588,0 1.42424,0.12247 2.21509,0.36743 0.79085,0.24495 1.55721,0.36743 2.29907,0.36743 L 11.0562,4.27783 M 0.0961914,11.2905 6.54199,9.08594 v 2.75046 c 0,0.266 -0.17147,0.5214 -0.5144,0.7664 -0.34294,0.2449 -0.80835,0.4584 -1.39624,0.6404 -0.58789,0.1819 -1.27726,0.3254 -2.06812,0.4304 -0.79085,0.105 -1.613197,0.1575 -2.4670386,0.1575 -0.8958334,0 -1.7356814,-0.0525 -2.5195314,-0.1575 -0.78385,-0.105 -1.46973,-0.2485 -2.05762,-0.4304 -0.58789,-0.182 -1.0533,-0.3955 -1.39624,-0.6404 -0.34293,-0.245 -0.5144,-0.5004 -0.5144,-0.7664 V 9.08594 L 0.0961914,11.2905 M 10.7202,12.1094 c 0.084,0.3919 0.161,0.8398 0.231,1.3437 0.07,0.5039 0.105,0.8679 0.105,1.0918 0,0.4059 -0.007,0.6754 -0.021,0.8084 -0.014,0.1329 -0.175,0.1994 -0.483,0.1994 -0.2939,0 -0.4339,-0.0665 -0.4199,-0.1994 0.014,-0.133 0.021,-0.4025 0.021,-0.8084 0,-0.2239 0.021,-0.5879 0.063,-1.0918 0.042,-0.5039 0.091,-0.9518 0.147,-1.3437 -0.252,-0.112 -0.37795,-0.301 -0.37795,-0.5669 0,-0.308 0.15395,-0.4969 0.46195,-0.5669 V 7.19629 L 0.0961914,9.98877 -10.6958,7.02832 V 6.37744 L 0.0961914,3.45898 10.8882,6.37744 v 0.65088 l -0.168,0.08398 v 3.8633 c 0.308,0.07 0.4619,0.2589 0.4619,0.5669 0,0.2659 -0.1539,0.4549 -0.4619,0.5669"
         fill-rule="evenodd"
         vector-effect="none" />
    </g>
    <g
       id="g16"
       font-style="normal"
       font-weight="400"
       font-size="7.8px"
       font-family="'MS Shell Dlg 2'"
       stroke="none"
       fill-opacity="1"
       fill="#4c62ad" />
  </g>
</svg>
