<?xml version="1.0" encoding="UTF-8" standalone="no"?>
<svg
   xmlns:dc="http://purl.org/dc/elements/1.1/"
   xmlns:cc="http://creativecommons.org/ns#"
   xmlns:rdf="http://www.w3.org/1999/02/22-rdf-syntax-ns#"
   xmlns:svg="http://www.w3.org/2000/svg"
   xmlns="http://www.w3.org/2000/svg"
   xmlns:sodipodi="http://sodipodi.sourceforge.net/DTD/sodipodi-0.dtd"
   xmlns:inkscape="http://www.inkscape.org/namespaces/inkscape"
   inkscape:version="1.0 (4035a4fb49, 2020-05-01)"
   sodipodi:docname="1506.svg"
   id="svg20"
   version="1.2"
   viewBox="0 0 42.519639 42.519639"
   height="14.999999mm"
   width="14.999999mm">
  <metadata
     id="metadata24">
    <rdf:RDF>
      <cc:Work
         rdf:about="">
        <dc:format>image/svg+xml</dc:format>
        <dc:type
           rdf:resource="http://purl.org/dc/dcmitype/StillImage" />
        <dc:title>Qt SVG Document</dc:title>
      </cc:Work>
    </rdf:RDF>
  </metadata>
  <sodipodi:namedview
     inkscape:current-layer="svg20"
     inkscape:window-maximized="0"
     inkscape:window-y="0"
     inkscape:window-x="0"
     inkscape:cy="28.346482"
     inkscape:cx="28.346482"
     inkscape:zoom="5.8410537"
     showgrid="false"
     id="namedview22"
     inkscape:window-height="480"
     inkscape:window-width="1034"
     inkscape:pageshadow="2"
     inkscape:pageopacity="0"
     guidetolerance="10"
     gridtolerance="10"
     objecttolerance="10"
     borderopacity="1"
     bordercolor="#666666"
     pagecolor="#ffffff" />
  <title
     id="title2">Qt SVG Document</title>
  <desc
     id="desc4">Generated with Qt</desc>
  <defs
     id="defs6" />
  <g
     transform="translate(5.25984,5.25984)"
     id="g18"
     stroke-linejoin="bevel"
     stroke-linecap="square"
     fill-rule="evenodd"
     stroke-width="1"
     stroke="#000000"
     fill="none">
    <g
       id="g10"
       font-style="normal"
       font-weight="400"
       font-size="7.8px"
       font-family="'MS Shell Dlg 2'"
       stroke="none"
       fill-opacity="1"
       fill="#4c62ad">
      <path
         id="path8"
         d="M 37.2598,16 C 37.2598,27.7415 27.7415,37.2598 16,37.2598 4.25851,37.2598 -5.25984,27.7415 -5.25984,16 -5.25984,4.25851 4.25851,-5.25984 16,-5.25984 27.7415,-5.25984 37.2598,4.25851 37.2598,16"
         fill-rule="evenodd"
         vector-effect="non-scaling-stroke" />
    </g>
    <g
       id="g14"
       font-style="normal"
       font-weight="400"
       font-size="7.8px"
       font-family="'MS Shell Dlg 2'"
       transform="translate(16,12.5984)"
       stroke="none"
       fill-opacity="0.94902"
       fill="#ffffff">
      <path
         id="path12"
         d="M 8.30566,5.39063 C 8.85156,5.5306 9.28198,5.83854 9.59692,6.31445 9.91187,6.79036 10.0693,7.31527 10.0693,7.88916 V 13.4741 H 8.47363 v 1.7637 c 0,0.4619 -0.13647,0.8503 -0.40942,1.1653 -0.27295,0.3149 -0.60539,0.4724 -0.99732,0.4724 -0.46191,0 -0.86433,-0.1575 -1.20727,-0.4724 C 5.51668,16.0881 5.34521,15.6997 5.34521,15.2378 V 13.4741 H -4.90088 v 1.7637 c 0,0.4619 -0.16447,0.8503 -0.49341,1.1653 -0.32894,0.3149 -0.72436,0.4724 -1.18628,0.4724 -0.33593,0 -0.65437,-0.1575 -0.95532,-0.4724 -0.30094,-0.315 -0.45141,-0.7034 -0.45141,-1.1653 V 13.4741 H -9.58301 V 7.88916 c 0,-0.57389 0.15747,-1.0988 0.47241,-1.57471 0.31495,-0.47591 0.74537,-0.78385 1.29126,-0.92382 l 1.72168,-4.724126 c 0.16797,-0.251953 0.40943,-0.507406 0.72437,-0.7663575 0.31494,-0.2589515 0.63338,-0.3884275 0.95532,-0.3884275 H 4.9043 c 0.40592,0 0.74536,0.129476 1.01831,0.3884275 C 6.19556,0.159098 6.41602,0.414551 6.58398,0.666504 L 8.30566,5.39063 M -6.58057,9.90479 c 0.89584,0 1.34375,-0.44092 1.34375,-1.32276 0,-0.40592 -0.12247,-0.74536 -0.36743,-1.01831 C -5.8492,7.29077 -6.17464,7.1543 -6.58057,7.1543 c -0.33593,0 -0.62638,0.13647 -0.87133,0.40942 -0.24496,0.27295 -0.36744,0.61239 -0.36744,1.01831 0,0.39193 0.12248,0.71037 0.36744,0.95532 0.24495,0.24496 0.5354,0.36744 0.87133,0.36744 M 6.66797,5.39063 5.26123,1.31738 C 5.05127,1.05143 4.9043,0.918457 4.82031,0.918457 h -9.15429 c -0.08399,0 -0.23096,0.132973 -0.44092,0.398923 l -1.44873,4.07325 h 12.8916 m 0.39892,4.51416 c 0.33594,0 0.62639,-0.12248 0.87134,-0.36744 C 8.18319,9.2924 8.30566,8.97396 8.30566,8.58203 8.30566,8.17611 8.18319,7.83667 7.93823,7.56372 7.69328,7.29077 7.40283,7.1543 7.06689,7.1543 6.66097,7.1543 6.33553,7.29077 6.09058,7.56372 5.84562,7.83667 5.72314,8.17611 5.72314,8.58203 c 0,0.88184 0.44792,1.32276 1.34375,1.32276 M 0.558105,-2.08398 c -0.545898,0 -0.902832,-0.17497 -1.0708,-0.52491 -0.167969,-0.27994 -0.251953,-0.58089 -0.251953,-0.90283 v -2.58252 h 0.6928707 v 2.49854 c 0,0.43392 0.0839843,0.69287 0.2519533,0.77685 0.055989,0.05599 0.111979,0.10498 0.167969,0.14697 0.055989,0.042 0.125976,0.06299 0.20996,0.06299 0.153972,0 0.265951,-0.04199 0.335938,-0.12597 C 0.96403,-2.81885 1.02702,-2.90283 1.08301,-2.98682 1.139,-3.04281 1.16699,-3.15479 1.16699,-3.32275 1.16699,-3.39274 1.15299,-3.46273 1.125,-3.53271 1.09701,-3.6027 1.05501,-3.70768 0.999023,-3.84766 0.943034,-3.90365 0.915039,-3.95264 0.915039,-3.99463 c 0,-0.04199 -0.027995,-0.09098 -0.083984,-0.14697 V -4.22559 -4.41455 H 1.50293 v 0.18896 l 0.10498,0.08399 c 0.02799,0.02799 0.06999,0.09798 0.12598,0.20996 0.11198,0.22396 0.16797,0.42692 0.16797,0.60889 0,0.47591 -0.21696,0.83284 -0.65088,1.0708 -0.08399,0.05599 -0.17497,0.09798 -0.272953,0.12597 -0.097981,0.028 -0.237955,0.042 -0.419922,0.042 m -3.989255,0.98681 c -0.22396,0 -0.43042,-0.08748 -0.61939,-0.26245 C -4.2395,-1.53459 -4.33398,-1.74805 -4.33398,-2 c 0,-0.05599 0.05599,-0.19596 0.16796,-0.41992 l 3.653325,-6.34082 c 0.209961,-0.30794 0.4689124,-0.46192 0.776855,-0.46192 0.293945,0 0.5389,0.15398 0.734863,0.46192 L 4.65234,-2.41992 C 4.76432,-2.19596 4.82031,-2.05599 4.82031,-2 c 0,0.25195 -0.09098,0.46541 -0.27295,0.64038 -0.18196,0.17497 -0.39192,0.26245 -0.62988,0.26245 h -7.34863 m -0.29395,-1.0708 c -0.06998,0.05599 -0.10498,0.09798 -0.10498,0.12598 V -2 c 0,0.27995 0.13298,0.41992 0.39893,0.41992 h 7.34863 c 0.08398,0 0.17147,-0.03499 0.26245,-0.10498 C 4.27091,-1.75505 4.31641,-1.86003 4.31641,-2 v -0.04199 c 0,-0.028 -0.035,-0.06999 -0.10498,-0.12598 L 0.558105,-8.48779 C 0.446126,-8.59977 0.348145,-8.65576 0.26416,-8.65576 c -0.111979,0 -0.2239582,0.05599 -0.3359373,0.16797 L -3.7251,-2.16797"
         fill-rule="evenodd"
         vector-effect="none" />
    </g>
    <g
       id="g16"
       font-style="normal"
       font-weight="400"
       font-size="7.8px"
       font-family="'MS Shell Dlg 2'"
       stroke="none"
       fill-opacity="1"
       fill="#4c62ad" />
  </g>
</svg>
