<?xml version="1.0" encoding="UTF-8" standalone="no"?>
<svg
   xmlns:dc="http://purl.org/dc/elements/1.1/"
   xmlns:cc="http://creativecommons.org/ns#"
   xmlns:rdf="http://www.w3.org/1999/02/22-rdf-syntax-ns#"
   xmlns:svg="http://www.w3.org/2000/svg"
   xmlns="http://www.w3.org/2000/svg"
   xmlns:sodipodi="http://sodipodi.sourceforge.net/DTD/sodipodi-0.dtd"
   xmlns:inkscape="http://www.inkscape.org/namespaces/inkscape"
   inkscape:version="1.0 (4035a4fb49, 2020-05-01)"
   sodipodi:docname="1507.svg"
   id="svg20"
   version="1.2"
   viewBox="0 0 42.519639 42.519639"
   height="14.999999mm"
   width="14.999999mm">
  <metadata
     id="metadata24">
    <rdf:RDF>
      <cc:Work
         rdf:about="">
        <dc:format>image/svg+xml</dc:format>
        <dc:type
           rdf:resource="http://purl.org/dc/dcmitype/StillImage" />
        <dc:title>Qt SVG Document</dc:title>
      </cc:Work>
    </rdf:RDF>
  </metadata>
  <sodipodi:namedview
     inkscape:current-layer="svg20"
     inkscape:window-maximized="0"
     inkscape:window-y="0"
     inkscape:window-x="0"
     inkscape:cy="28.346482"
     inkscape:cx="28.346482"
     inkscape:zoom="5.8410537"
     showgrid="false"
     id="namedview22"
     inkscape:window-height="480"
     inkscape:window-width="1034"
     inkscape:pageshadow="2"
     inkscape:pageopacity="0"
     guidetolerance="10"
     gridtolerance="10"
     objecttolerance="10"
     borderopacity="1"
     bordercolor="#666666"
     pagecolor="#ffffff" />
  <title
     id="title2">Qt SVG Document</title>
  <desc
     id="desc4">Generated with Qt</desc>
  <defs
     id="defs6" />
  <g
     transform="translate(5.25984,5.25984)"
     id="g18"
     stroke-linejoin="bevel"
     stroke-linecap="square"
     fill-rule="evenodd"
     stroke-width="1"
     stroke="#000000"
     fill="none">
    <g
       id="g10"
       font-style="normal"
       font-weight="400"
       font-size="7.8px"
       font-family="'MS Shell Dlg 2'"
       stroke="none"
       fill-opacity="1"
       fill="#4c62ad">
      <path
         id="path8"
         d="M 37.2598,16 C 37.2598,27.7415 27.7415,37.2598 16,37.2598 4.25851,37.2598 -5.25984,27.7415 -5.25984,16 -5.25984,4.25851 4.25851,-5.25984 16,-5.25984 27.7415,-5.25984 37.2598,4.25851 37.2598,16"
         fill-rule="evenodd"
         vector-effect="non-scaling-stroke" />
    </g>
    <g
       id="g14"
       font-style="normal"
       font-weight="400"
       font-size="7.8px"
       font-family="'MS Shell Dlg 2'"
       transform="translate(16.5669,12.5984)"
       stroke="none"
       fill-opacity="0.94902"
       fill="#ffffff">
      <path
         id="path12"
         d="m -7.81934,8.95996 c 0,-0.13997 0.035,-0.25895 0.10498,-0.35693 0.06999,-0.09798 0.14698,-0.14698 0.23096,-0.14698 H 4.3584 C 4.41439,8.2181 4.48438,7.86466 4.56836,7.39575 4.65234,6.92684 4.69434,6.32845 4.69434,5.60059 4.69434,4.91471 4.65234,4.33732 4.56836,3.86841 4.48438,3.3995 4.41439,3.04606 4.3584,2.80811 H -7.4834 c -0.22396,0 -0.33594,-0.18197 -0.33594,-0.5459 0,-0.13998 0.035,-0.26245 0.10498,-0.36743 C -7.64437,1.78979 -7.56738,1.7373 -7.4834,1.7373 H 4.69434 c 0.13997,0 0.24495,0.07349 0.31494,0.22046 0.06998,0.14698 0.10498,0.30445 0.10498,0.47242 0.06998,0.22395 0.14697,0.4969 0.23095,0.81884 0.05599,0.25196 0.11198,0.5809 0.16797,0.98682 0.05599,0.40592 0.08399,0.86084 0.08399,1.36475 0,0.54589 -0.028,1.02181 -0.08399,1.42773 C 5.45719,7.43424 5.4012,7.76318 5.34521,8.01514 5.26123,8.33708 5.18424,8.59603 5.11426,8.79199 c 0,0.16797 -0.035,0.33244 -0.10498,0.49341 C 4.93929,9.44637 4.83431,9.52686 4.69434,9.52686 H -7.4834 c -0.22396,0 -0.33594,-0.18897 -0.33594,-0.5669 m 2.28858,-2.01562 c 1.0778,0 2.09961,0 3.06543,0 0.96582,0 1.812661,0 2.5405253,0 0.7278647,0 1.2982547,-0.007 1.7111847,-0.021 C 2.1993,6.90934 2.40576,6.88835 2.40576,6.86035 2.40576,6.83236 2.1993,6.81136 1.78638,6.79736 1.37345,6.78337 0.80306,6.76937 0.0751953,6.75537 -0.652669,6.74137 -1.49951,6.72738 -2.46533,6.71338 c -0.96582,-0.014 -1.98763,-0.021 -3.06543,-0.021 h -1.17578 c 0,-0.15397 0.01399,-0.30794 0.04199,-0.46191 0.02799,-0.15397 0.04199,-0.30095 0.04199,-0.44092 h 1.0918 c 1.0778,0 2.09961,-0.007 3.06543,-0.021 C -1.49951,5.75456 -0.652669,5.74056 0.0751953,5.72656 0.80306,5.71257 1.37345,5.69857 1.78638,5.68457 2.1993,5.67057 2.40576,5.64258 2.40576,5.60059 2.40576,5.57259 2.1993,5.5516 1.78638,5.5376 1.37345,5.5236 0.80306,5.5096 0.0751953,5.49561 -0.652669,5.48161 -1.49951,5.46761 -2.46533,5.45361 -3.43115,5.43962 -4.45296,5.43262 -5.53076,5.43262 h -1.0918 c 0,-0.13998 -0.014,-0.27995 -0.04199,-0.41992 -0.028,-0.13998 -0.04199,-0.28695 -0.04199,-0.44092 h 1.17578 c 1.0778,0 2.09961,-0.007 3.06543,-0.021 0.96582,-0.014 1.812661,-0.02799 2.5405253,-0.04199 C 0.80306,4.49479 1.37345,4.48079 1.78638,4.4668 2.1993,4.4528 2.40576,4.4318 2.40576,4.40381 c 0,-0.028 -0.20646,-0.04899 -0.61938,-0.06299 -0.41293,-0.014 -0.98332,-0.021 -1.7111847,-0.021 -0.7278643,0 -1.5747053,0 -2.5405253,0 -0.96582,0 -1.98763,0 -3.06543,0 H -6.79053 C -6.84652,4.15186 -6.90251,3.99438 -6.9585,3.84741 -7.01449,3.70044 -7.07048,3.57096 -7.12646,3.45898 -7.18245,3.34701 -7.23844,3.24902 -7.29443,3.16504 H 3.91748 c 0.028,0.16797 0.05599,0.37793 0.08398,0.62988 0.028,0.23796 0.049,0.50741 0.06299,0.80835 0.014,0.30095 0.021,0.63338 0.021,0.99732 0,0.40592 -0.007,0.75236 -0.021,1.0393 C 4.05046,6.92684 4.02946,7.18929 4.00146,7.42725 3.97347,7.6792 3.94548,7.90316 3.91748,8.09912 H -7.29443 C -7.23844,8.01514 -7.18245,7.91715 -7.12646,7.80518 -7.07048,7.6932 -7.01449,7.57072 -6.9585,7.43774 -6.90251,7.30477 -6.84652,7.1403 -6.79053,6.94434 h 1.25977 M 7.27686,11.2065 c 0,0.084 -0.042,0.175 -0.12598,0.273 -0.08399,0.098 -0.20296,0.147 -0.35693,0.147 H -8.63818 c -0.08399,0.1819 -0.18897,0.4514 -0.31495,0.8083 -0.12597,0.3569 -0.18896,0.7944 -0.18896,1.3123 0,0.5739 0.06299,1.0393 0.18896,1.3962 0.12598,0.3569 0.23096,0.6334 0.31495,0.8294 H 6.79395 c 0.32194,0 0.48291,0.1469 0.48291,0.4409 0,0.2239 -0.16097,0.3359 -0.48291,0.3359 H -9.24707 c -0.13997,0 -0.24495,-0.049 -0.31494,-0.147 -0.06999,-0.0979 -0.10498,-0.2239 -0.10498,-0.3779 -0.11198,-0.14 -0.22396,-0.3359 -0.33591,-0.5879 -0.098,-0.2379 -0.175,-0.5074 -0.231,-0.8083 -0.056,-0.301 -0.084,-0.6614 -0.084,-1.0813 0,-0.7279 0.105,-1.3158 0.315,-1.7637 0.11195,-0.238 0.22393,-0.4409 0.33591,-0.6089 0,-0.168 0.03499,-0.3184 0.10498,-0.4514 0.06999,-0.133 0.17497,-0.1995 0.31494,-0.1995 H 6.79395 c 0.32194,0 0.48291,0.161 0.48291,0.4829 m -1.76368,1.5957 c -1.80566,0 -3.46785,0.007 -4.986569,0.021 -1.518717,0.014 -2.816971,0.028 -3.894771,0.042 -1.0778,0.014 -1.91765,0.028 -2.51954,0.042 -0.60188,0.014 -0.90283,0.035 -0.90283,0.063 0,0.056 0.29395,0.091 0.88184,0.105 0.58789,0.014 1.42073,0.028 2.49853,0.042 1.0778,0.014 2.36906,0.028 3.873783,0.042 1.504717,0.014 3.159917,0.035 4.965577,0.063 -0.08399,0.1119 -0.12598,0.2869 -0.12598,0.5249 0,0.1399 0.007,0.2519 0.021,0.3359 0.014,0.084 0.04899,0.182 0.10498,0.294 -1.80566,0 -3.46086,0.007 -4.965577,0.0209 -1.504723,0.014 -2.795983,0.028 -3.873783,0.042 -1.0778,0.014 -1.91064,0.028 -2.49853,0.042 -0.58789,0.014 -0.88184,0.035 -0.88184,0.063 0,0.042 0.30095,0.07 0.90283,0.084 0.60189,0.014 1.44174,0.035 2.51954,0.063 1.0778,0.028 2.376054,0.049 3.894771,0.063 1.518719,0.014 3.180909,0.035 4.986569,0.063 0.13998,0.2799 0.27995,0.4899 0.41993,0.6299 0.09798,0.1259 0.18896,0.2029 0.27294,0.2309 H -8.5542 c -0.02799,-0.154 -0.05599,-0.3289 -0.08398,-0.5249 -0.028,-0.168 -0.04899,-0.3674 -0.06299,-0.5984 -0.014,-0.2309 -0.021,-0.5004 -0.021,-0.8083 0,-0.294 0.007,-0.5564 0.021,-0.7874 0.014,-0.2309 0.03499,-0.4304 0.06299,-0.5984 0.02799,-0.1959 0.05599,-0.3849 0.08398,-0.5669 H 6.20605 c -0.08398,0.098 -0.17496,0.203 -0.27294,0.315 -0.16797,0.2239 -0.30795,0.4549 -0.41993,0.6928 M 12.2109,-0.110352 c 0.154,0.05599 0.28,0.136475 0.378,0.241456 0.0979,0.10498 0.1469,0.227457 0.1469,0.367431 0,0.363932 -0.2029,0.545895 -0.6088,0.545895 L 2.32178,0.666504 C 2.32178,0.862467 2.24479,1.01994 2.09082,1.13892 1.93685,1.25789 1.77588,1.28939 1.60791,1.2334 L -1.75146,0.666504 c -0.18197,0 -0.31495,-0.062988 -0.39893,-0.188965 C -2.23438,0.351563 -2.27637,0.211589 -2.27637,0.0576172 L -11.8086,-2.60889 c -0.182,-0.05599 -0.3009,-0.14697 -0.3569,-0.27295 -0.056,-0.12597 -0.084,-0.25895 -0.084,-0.39892 0.056,-0.15397 0.1505,-0.27995 0.2834,-0.37793 0.133,-0.09798 0.2695,-0.11898 0.4095,-0.06299 1.4557,0.43392 2.84143,0.84684 4.15719,1.23877 1.11979,0.34993 2.23958,0.71737 3.35937,1.10229 1.11979,0.384933 1.99463,0.696375 2.62451,0.934331 l 3.02344,0.4199218 C 2.26579,-0.0823568 3.18262,-0.110352 4.3584,-0.110352 c 1.17578,0 2.35156,0 3.52734,0 H 12.2109 M -0.59668,-0.803223 -10.4858,-4.05762 c 0.54586,-0.11198 0.97628,-0.37793 1.29122,-0.79785 0.31494,-0.41992 0.58439,-0.90283 0.80835,-1.44873 0.60189,0 1.31925,0.15747 2.1521,0.47241 0.83284,0.31494 1.6202,0.67538 2.36206,1.0813 0.89583,0.46192 1.81966,0.97982 2.77148,1.55371 -0.43392,-0.62988 -0.97981,-1.23177 -1.63769,-1.80566 -0.57389,-0.48991 -1.27726,-0.98682 -2.11011,-1.49072 -0.83284,-0.50391 -1.85115,-0.90983 -3.05493,-1.21778 0.05599,-0.12597 0.08398,-0.21696 0.08398,-0.27295 0,-0.05599 0.014,-0.11198 0.042,-0.16797 0,-0.05599 0.01399,-0.08398 0.04199,-0.08398 1.25976,0.37793 2.43555,0.86784 3.52734,1.46973 0.92383,0.5179 1.83716,1.18278 2.73999,1.99463 0.902834,0.81184 1.550214,1.80566 1.942141,2.98144 C 1.6779,-2.72786 2.92017,-3.42773 4.20093,-3.88965 5.48169,-4.35156 6.66097,-4.6665 7.73877,-4.83447 c 1.27376,-0.20996 2.52653,-0.27995 3.75833,-0.20996 -0.028,0.19596 -0.042,0.36393 -0.042,0.5039 -0.042,0.13998 -0.063,0.28345 -0.063,0.43042 0,0.14698 0,0.27645 0,0.38843 -1.0218,-0.05599 -2.03663,-0.0035 -3.04444,0.15747 -1.00782,0.16097 -1.91065,0.35344 -2.7085,0.57739 -0.95182,0.27995 -1.82666,0.59489 -2.62451,0.94483 0.79785,-0.19597 1.67269,-0.35694 2.62451,-0.48291 0.79785,-0.11198 1.70068,-0.19597 2.7085,-0.25196 1.00781,-0.05599 2.02264,-0.02799 3.04444,0.08399 0,0.20996 0.063,0.42692 0.189,0.65088 -0.6859,-0.028 -1.3823,-0.014 -2.08916,0.04199 -0.70687,0.05599 -1.34725,0.11198 -1.92114,0.16797 -0.68587,0.08398 -1.34375,0.18896 -1.97363,0.31494 0.71387,0.02799 1.44173,0.05599 2.18359,0.08398 0.67188,0.028 1.38574,0.06299 2.1416,0.10498 0.75584,0.042 1.49074,0.09099 2.20464,0.14698 0.0839,0.08398 0.1119,0.11198 0.0839,0.08398 -0.028,-0.02799 0.035,0 0.189,0.08399 L 0.915039,-0.530273 -0.59668,-0.803223"
         fill-rule="evenodd"
         vector-effect="none" />
    </g>
    <g
       id="g16"
       font-style="normal"
       font-weight="400"
       font-size="7.8px"
       font-family="'MS Shell Dlg 2'"
       stroke="none"
       fill-opacity="1"
       fill="#4c62ad" />
  </g>
</svg>
