<svg xmlns="http://www.w3.org/2000/svg" version="1.2" viewBox="0 0 42.52 42.52" height="56.693" width="56.693">
   <g stroke-linejoin="bevel" stroke-linecap="square" fill-rule="evenodd" stroke="none" fill="none" font-weight="400"
      font-size="7.8" font-family="'MS Shell Dlg 2'">
      <path
         d="M42.52 21.26C42.52 33 33 42.52 21.26 42.52 9.518 42.52 0 33 0 21.26 0 9.518 9.518 0 21.26 0 33 0 42.52 9.518 42.52 21.26"
         vector-effect="non-scaling-stroke" fill="#4c62ad" />
      <path
         d="M14.007 26.818c0-.14.035-.259.105-.357.07-.098.147-.147.231-.147h11.842c.056-.238.126-.591.21-1.06.084-.469.126-1.067.126-1.795 0-.686-.042-1.263-.126-1.732a21.797 21.797 0 00-.21-1.06H14.343c-.224 0-.336-.183-.336-.547 0-.14.035-.262.105-.367.07-.105.147-.157.231-.157h12.178c.14 0 .245.073.315.22.07.147.105.304.105.472.07.224.147.497.23.82.057.251.113.58.169.986.056.406.084.86.084 1.365 0 .546-.028 1.022-.084 1.428-.056.405-.112.734-.168.986-.084.322-.161.581-.231.777 0 .168-.035.333-.105.494-.07.16-.175.241-.315.241H14.343c-.224 0-.336-.189-.336-.567m2.289-2.015h5.605c.729 0 1.3-.007 1.712-.021.413-.014.62-.035.62-.063 0-.028-.207-.05-.62-.063a124.17 124.17 0 00-1.711-.042c-.728-.014-1.575-.028-2.54-.042a211.97 211.97 0 00-3.066-.021H15.12c0-.154.014-.308.042-.462.028-.154.042-.301.042-.441h1.092c1.078 0 2.1-.007 3.065-.021a543.17 543.17 0 002.54-.042 123.85 123.85 0 001.712-.042c.413-.014.62-.042.62-.084 0-.028-.207-.05-.62-.063a123.85 123.85 0 00-1.711-.042c-.728-.014-1.575-.028-2.54-.042a212.12 212.12 0 00-3.066-.021h-1.092c0-.14-.014-.28-.042-.42a2.244 2.244 0 01-.042-.441h1.176c1.078 0 2.1-.007 3.065-.021.966-.014 1.813-.028 2.54-.042a124.17 124.17 0 001.712-.042c.413-.014.62-.035.62-.063 0-.028-.207-.049-.62-.063a53.611 53.611 0 00-1.711-.02h-6.866a11.907 11.907 0 00-.168-.473 4.29 4.29 0 00-.168-.389 2.746 2.746 0 00-.168-.294h11.212c.028.168.056.378.084.63.028.238.05.508.063.809.014.3.021.633.021.997 0 .406-.007.752-.02 1.04-.015.286-.036.549-.064.786-.028.252-.056.476-.084.672H14.532c.056-.084.112-.182.168-.294a4.432 4.432 0 00.336-.86h1.26m12.808 4.262c0 .084-.042.175-.126.273a.444.444 0 01-.357.147H13.189c-.084.182-.19.451-.315.808-.126.357-.19.794-.19 1.312 0 .574.064 1.04.19 1.397.126.356.23.633.315.829H28.62c.322 0 .483.147.483.44 0 .225-.161.337-.483.337H12.58c-.14 0-.245-.05-.315-.147a.635.635 0 01-.105-.378 2.728 2.728 0 01-.336-.588 4.086 4.086 0 01-.231-.808 6.003 6.003 0 01-.084-1.082c0-.728.105-1.315.315-1.763a4.75 4.75 0 01.336-.61c0-.167.035-.318.105-.45.07-.134.175-.2.315-.2h16.04c.323 0 .484.16.484.483M27.34 30.66c-1.806 0-3.468.007-4.987.021-1.518.014-2.817.028-3.894.042-1.078.014-1.918.028-2.52.042-.602.014-.903.035-.903.063 0 .056.294.091.882.105.588.014 1.42.028 2.499.042 1.077.014 2.369.028 3.873.042 1.505.014 3.16.035 4.966.063-.084.112-.126.287-.126.525 0 .14.007.252.021.336.014.084.049.182.105.294-1.806 0-3.46.007-4.966.021-1.504.014-2.796.028-3.873.042-1.078.014-1.911.028-2.499.042-.588.014-.882.035-.882.063 0 .042.301.07.903.084.602.014 1.442.035 2.52.063 1.077.028 2.376.05 3.894.063 1.52.014 3.181.035 4.987.063.14.28.28.49.42.63.098.126.189.203.273.23h-14.76a14.148 14.148 0 01-.084-.524 5.851 5.851 0 01-.063-.598c-.014-.231-.021-.5-.021-.809 0-.294.007-.556.02-.787.015-.231.036-.43.064-.598.028-.196.056-.385.084-.567h14.76l-.273.315a3.977 3.977 0 00-.42.692m6.698-12.912c.154.056.28.136.378.241a.522.522 0 01.147.368c0 .364-.203.546-.61.546l-9.804-.378a.568.568 0 01-.231.472.495.495 0 01-.483.095l-3.36-.567c-.182 0-.315-.063-.399-.19a.74.74 0 01-.126-.42l-9.532-2.666c-.182-.056-.3-.147-.357-.273a.971.971 0 01-.084-.399.8.8 0 01.284-.377.402.402 0 01.41-.063l4.156 1.238c1.12.35 2.24.718 3.36 1.103 1.12.385 1.994.696 2.624.934l3.024.42c.658-.056 1.574-.084 2.75-.084h7.853m-12.808-.693l-9.89-3.254c.547-.112.977-.378 1.292-.798.315-.42.585-.903.809-1.449.601 0 1.319.158 2.152.472.832.315 1.62.676 2.362 1.082.896.462 1.82.98 2.771 1.553a9.76 9.76 0 00-1.638-1.805c-.573-.49-1.277-.987-2.11-1.49-.832-.505-1.85-.91-3.055-1.219a.793.793 0 00.084-.273c0-.056.014-.112.042-.168 0-.056.014-.084.042-.084 1.26.378 2.436.868 3.528 1.47a15.343 15.343 0 012.74 1.995 6.851 6.851 0 011.942 2.981c1.204-.938 2.446-1.637 3.727-2.1 1.28-.461 2.46-.776 3.538-.944 1.273-.21 2.526-.28 3.758-.21a3.642 3.642 0 00-.042.504 1.49 1.49 0 00-.063.43v.389a14.29 14.29 0 00-3.045.157c-1.007.161-1.91.353-2.708.577-.952.28-1.827.595-2.625.945a24.527 24.527 0 012.625-.483 32.71 32.71 0 012.708-.252 18.488 18.488 0 013.045.084c0 .21.063.427.189.651a17.434 17.434 0 00-2.09.042c-.706.056-1.347.112-1.92.168-.686.084-1.344.19-1.974.315l2.183.084c.672.028 1.386.063 2.142.105.756.042 1.49.091 2.205.147l.084.084c-.028-.028.035 0 .189.084l-11.485.483-1.512-.273"
         fill-opacity=".949" fill="#fff" />
   </g>
</svg>