<?xml version="1.0" encoding="UTF-8" standalone="no"?>
<svg width="11.25008mm" height="11.25008mm"
 viewBox="-5.3 -5.3 42.52000 42.52000"
 xmlns="http://www.w3.org/2000/svg" xmlns:xlink="http://www.w3.org/1999/xlink"  version="1.2" baseProfile="tiny">
<title>Qt SVG Document</title>
<desc>Generated with Qt</desc>
<defs>
</defs>
<g fill="none" stroke="black" stroke-width="1" fill-rule="evenodd" stroke-linecap="square" stroke-linejoin="bevel" >

<g fill="#4c62ad" fill-opacity="1" stroke="none" transform="matrix(1,0,0,1,0,0)"
font-family="MS Shell Dlg 2" font-size="7.8" font-weight="400" font-style="normal" 
>
<path vector-effect="non-scaling-stroke" fill-rule="evenodd" d="M37.2598,16 C37.2598,27.7415 27.7415,37.2598 16,37.2598 C4.25851,37.2598 -5.25984,27.7415 -5.25984,16 C-5.25984,4.25851 4.25851,-5.25984 16,-5.25984 C27.7415,-5.25984 37.2598,4.25851 37.2598,16 "/>
</g>

<g fill="#ffffff" fill-opacity="0.94902" stroke="none" transform="matrix(1,0,0,1,16.5669,12.5984)"
font-family="MS Shell Dlg 2" font-size="7.8" font-weight="400" font-style="normal" 
>
<path vector-effect="none" fill-rule="evenodd" d="M-7.81934,8.95996 C-7.81934,8.81999 -7.78434,8.70101 -7.71436,8.60303 C-7.64437,8.50505 -7.56738,8.45605 -7.4834,8.45605 L4.3584,8.45605 C4.41439,8.2181 4.48438,7.86466 4.56836,7.39575 C4.65234,6.92684 4.69434,6.32845 4.69434,5.60059 C4.69434,4.91471 4.65234,4.33732 4.56836,3.86841 C4.48438,3.3995 4.41439,3.04606 4.3584,2.80811 L-7.4834,2.80811 C-7.70736,2.80811 -7.81934,2.62614 -7.81934,2.26221 C-7.81934,2.12223 -7.78434,1.99976 -7.71436,1.89478 C-7.64437,1.78979 -7.56738,1.7373 -7.4834,1.7373 L4.69434,1.7373 C4.83431,1.7373 4.93929,1.81079 5.00928,1.95776 C5.07926,2.10474 5.11426,2.26221 5.11426,2.43018 C5.18424,2.65413 5.26123,2.92708 5.34521,3.24902 C5.4012,3.50098 5.45719,3.82992 5.51318,4.23584 C5.56917,4.64176 5.59717,5.09668 5.59717,5.60059 C5.59717,6.14648 5.56917,6.6224 5.51318,7.02832 C5.45719,7.43424 5.4012,7.76318 5.34521,8.01514 C5.26123,8.33708 5.18424,8.59603 5.11426,8.79199 C5.11426,8.95996 5.07926,9.12443 5.00928,9.2854 C4.93929,9.44637 4.83431,9.52686 4.69434,9.52686 L-7.4834,9.52686 C-7.70736,9.52686 -7.81934,9.33789 -7.81934,8.95996 M-5.53076,6.94434 C-4.45296,6.94434 -3.43115,6.94434 -2.46533,6.94434 C-1.49951,6.94434 -0.652669,6.94434 0.0751953,6.94434 C0.80306,6.94434 1.37345,6.93734 1.78638,6.92334 C2.1993,6.90934 2.40576,6.88835 2.40576,6.86035 C2.40576,6.83236 2.1993,6.81136 1.78638,6.79736 C1.37345,6.78337 0.80306,6.76937 0.0751953,6.75537 C-0.652669,6.74137 -1.49951,6.72738 -2.46533,6.71338 C-3.43115,6.69938 -4.45296,6.69238 -5.53076,6.69238 L-6.70654,6.69238 C-6.70654,6.53841 -6.69255,6.38444 -6.66455,6.23047 C-6.63656,6.0765 -6.62256,5.92952 -6.62256,5.78955 L-5.53076,5.78955 C-4.45296,5.78955 -3.43115,5.78255 -2.46533,5.76855 C-1.49951,5.75456 -0.652669,5.74056 0.0751953,5.72656 C0.80306,5.71257 1.37345,5.69857 1.78638,5.68457 C2.1993,5.67057 2.40576,5.64258 2.40576,5.60059 C2.40576,5.57259 2.1993,5.5516 1.78638,5.5376 C1.37345,5.5236 0.80306,5.5096 0.0751953,5.49561 C-0.652669,5.48161 -1.49951,5.46761 -2.46533,5.45361 C-3.43115,5.43962 -4.45296,5.43262 -5.53076,5.43262 L-6.62256,5.43262 C-6.62256,5.29264 -6.63656,5.15267 -6.66455,5.0127 C-6.69255,4.87272 -6.70654,4.72575 -6.70654,4.57178 L-5.53076,4.57178 C-4.45296,4.57178 -3.43115,4.56478 -2.46533,4.55078 C-1.49951,4.53678 -0.652669,4.52279 0.0751953,4.50879 C0.80306,4.49479 1.37345,4.48079 1.78638,4.4668 C2.1993,4.4528 2.40576,4.4318 2.40576,4.40381 C2.40576,4.37581 2.1993,4.35482 1.78638,4.34082 C1.37345,4.32682 0.80306,4.31982 0.0751953,4.31982 C-0.652669,4.31982 -1.49951,4.31982 -2.46533,4.31982 C-3.43115,4.31982 -4.45296,4.31982 -5.53076,4.31982 L-6.79053,4.31982 C-6.84652,4.15186 -6.90251,3.99438 -6.9585,3.84741 C-7.01449,3.70044 -7.07048,3.57096 -7.12646,3.45898 C-7.18245,3.34701 -7.23844,3.24902 -7.29443,3.16504 L3.91748,3.16504 C3.94548,3.33301 3.97347,3.54297 4.00146,3.79492 C4.02946,4.03288 4.05046,4.30233 4.06445,4.60327 C4.07845,4.90422 4.08545,5.23665 4.08545,5.60059 C4.08545,6.00651 4.07845,6.35295 4.06445,6.63989 C4.05046,6.92684 4.02946,7.18929 4.00146,7.42725 C3.97347,7.6792 3.94548,7.90316 3.91748,8.09912 L-7.29443,8.09912 C-7.23844,8.01514 -7.18245,7.91715 -7.12646,7.80518 C-7.07048,7.6932 -7.01449,7.57072 -6.9585,7.43774 C-6.90251,7.30477 -6.84652,7.1403 -6.79053,6.94434 L-5.53076,6.94434 M7.27686,11.2065 C7.27686,11.2905 7.23486,11.3815 7.15088,11.4795 C7.06689,11.5775 6.94792,11.6265 6.79395,11.6265 L-8.63818,11.6265 C-8.72217,11.8084 -8.82715,12.0779 -8.95313,12.4348 C-9.0791,12.7917 -9.14209,13.2292 -9.14209,13.7471 C-9.14209,14.321 -9.0791,14.7864 -8.95313,15.1433 C-8.82715,15.5002 -8.72217,15.7767 -8.63818,15.9727 L6.79395,15.9727 C7.11589,15.9727 7.27686,16.1196 7.27686,16.4136 C7.27686,16.6375 7.11589,16.7495 6.79395,16.7495 L-9.24707,16.7495 C-9.38704,16.7495 -9.49202,16.7005 -9.56201,16.6025 C-9.632,16.5046 -9.66699,16.3786 -9.66699,16.2246 C-9.77897,16.0846 -9.89095,15.8887 -10.0029,15.6367 C-10.1009,15.3988 -10.1779,15.1293 -10.2339,14.8284 C-10.2899,14.5274 -10.3179,14.167 -10.3179,13.7471 C-10.3179,13.0192 -10.2129,12.4313 -10.0029,11.9834 C-9.89095,11.7454 -9.77897,11.5425 -9.66699,11.3745 C-9.66699,11.2065 -9.632,11.0561 -9.56201,10.9231 C-9.49202,10.7901 -9.38704,10.7236 -9.24707,10.7236 L6.79395,10.7236 C7.11589,10.7236 7.27686,10.8846 7.27686,11.2065 M5.51318,12.8022 C3.70752,12.8022 2.04533,12.8092 0.526611,12.8232 C-0.992106,12.8372 -2.29036,12.8512 -3.36816,12.8652 C-4.44596,12.8792 -5.28581,12.8932 -5.8877,12.9072 C-6.48958,12.9212 -6.79053,12.9422 -6.79053,12.9702 C-6.79053,13.0262 -6.49658,13.0612 -5.90869,13.0752 C-5.3208,13.0892 -4.48796,13.1032 -3.41016,13.1172 C-2.33236,13.1312 -1.0411,13.1452 0.463623,13.1592 C1.96834,13.1732 3.62354,13.1942 5.4292,13.2222 C5.34521,13.3341 5.30322,13.5091 5.30322,13.7471 C5.30322,13.887 5.31022,13.999 5.32422,14.083 C5.33822,14.167 5.37321,14.265 5.4292,14.377 C3.62354,14.377 1.96834,14.384 0.463623,14.3979 C-1.0411,14.4119 -2.33236,14.4259 -3.41016,14.4399 C-4.48796,14.4539 -5.3208,14.4679 -5.90869,14.4819 C-6.49658,14.4959 -6.79053,14.5169 -6.79053,14.5449 C-6.79053,14.5869 -6.48958,14.6149 -5.8877,14.6289 C-5.28581,14.6429 -4.44596,14.6639 -3.36816,14.6919 C-2.29036,14.7199 -0.992106,14.7409 0.526611,14.7549 C2.04533,14.7689 3.70752,14.7899 5.51318,14.8179 C5.65316,15.0978 5.79313,15.3078 5.93311,15.4478 C6.03109,15.5737 6.12207,15.6507 6.20605,15.6787 L-8.5542,15.6787 C-8.58219,15.5247 -8.61019,15.3498 -8.63818,15.1538 C-8.66618,14.9858 -8.68717,14.7864 -8.70117,14.5554 C-8.71517,14.3245 -8.72217,14.055 -8.72217,13.7471 C-8.72217,13.4531 -8.71517,13.1907 -8.70117,12.9597 C-8.68717,12.7288 -8.66618,12.5293 -8.63818,12.3613 C-8.61019,12.1654 -8.58219,11.9764 -8.5542,11.7944 L6.20605,11.7944 C6.12207,11.8924 6.03109,11.9974 5.93311,12.1094 C5.76514,12.3333 5.62516,12.5643 5.51318,12.8022 M12.2109,-0.110352 C12.3649,-0.054362 12.4909,0.026123 12.5889,0.131104 C12.6868,0.236084 12.7358,0.358561 12.7358,0.498535 C12.7358,0.862467 12.5329,1.04443 12.127,1.04443 L2.32178,0.666504 C2.32178,0.862467 2.24479,1.01994 2.09082,1.13892 C1.93685,1.25789 1.77588,1.28939 1.60791,1.2334 L-1.75146,0.666504 C-1.93343,0.666504 -2.06641,0.603516 -2.15039,0.477539 C-2.23438,0.351563 -2.27637,0.211589 -2.27637,0.0576172 L-11.8086,-2.60889 C-11.9906,-2.66488 -12.1095,-2.75586 -12.1655,-2.88184 C-12.2215,-3.00781 -12.2495,-3.14079 -12.2495,-3.28076 C-12.1935,-3.43473 -12.099,-3.56071 -11.9661,-3.65869 C-11.8331,-3.75667 -11.6966,-3.77767 -11.5566,-3.72168 C-10.1009,-3.28776 -8.71517,-2.87484 -7.39941,-2.48291 C-6.27962,-2.13298 -5.15983,-1.76554 -4.04004,-1.38062 C-2.92025,-0.995687 -2.04541,-0.684245 -1.41553,-0.446289 L1.60791,-0.0263672 C2.26579,-0.0823568 3.18262,-0.110352 4.3584,-0.110352 C5.53418,-0.110352 6.70996,-0.110352 7.88574,-0.110352 L12.2109,-0.110352 M-0.59668,-0.803223 L-10.4858,-4.05762 C-9.93994,-4.1696 -9.50952,-4.43555 -9.19458,-4.85547 C-8.87964,-5.27539 -8.61019,-5.7583 -8.38623,-6.3042 C-7.78434,-6.3042 -7.06698,-6.14673 -6.23413,-5.83179 C-5.40129,-5.51685 -4.61393,-5.15641 -3.87207,-4.75049 C-2.97624,-4.28857 -2.05241,-3.77067 -1.10059,-3.19678 C-1.53451,-3.82666 -2.0804,-4.42855 -2.73828,-5.00244 C-3.31217,-5.49235 -4.01554,-5.98926 -4.84839,-6.49316 C-5.68123,-6.99707 -6.69954,-7.40299 -7.90332,-7.71094 C-7.84733,-7.83691 -7.81934,-7.9279 -7.81934,-7.98389 C-7.81934,-8.03988 -7.80534,-8.09587 -7.77734,-8.15186 C-7.77734,-8.20785 -7.76335,-8.23584 -7.73535,-8.23584 C-6.47559,-7.85791 -5.2998,-7.368 -4.20801,-6.76611 C-3.28418,-6.24821 -2.37085,-5.58333 -1.46802,-4.77148 C-0.565186,-3.95964 0.082194,-2.96582 0.474121,-1.79004 C1.6779,-2.72786 2.92017,-3.42773 4.20093,-3.88965 C5.48169,-4.35156 6.66097,-4.6665 7.73877,-4.83447 C9.01253,-5.04443 10.2653,-5.11442 11.4971,-5.04443 C11.4691,-4.84847 11.4551,-4.6805 11.4551,-4.54053 C11.4131,-4.40055 11.3921,-4.25708 11.3921,-4.11011 C11.3921,-3.96313 11.3921,-3.83366 11.3921,-3.72168 C10.3703,-3.77767 9.35547,-3.72518 8.34766,-3.56421 C7.33984,-3.40324 6.43701,-3.21077 5.63916,-2.98682 C4.68734,-2.70687 3.8125,-2.39193 3.01465,-2.04199 C3.8125,-2.23796 4.68734,-2.39893 5.63916,-2.5249 C6.43701,-2.63688 7.33984,-2.72087 8.34766,-2.77686 C9.35547,-2.83285 10.3703,-2.80485 11.3921,-2.69287 C11.3921,-2.48291 11.4551,-2.26595 11.5811,-2.04199 C10.8952,-2.06999 10.1988,-2.05599 9.49194,-2 C8.78507,-1.94401 8.14469,-1.88802 7.5708,-1.83203 C6.88493,-1.74805 6.22705,-1.64307 5.59717,-1.51709 C6.31104,-1.4891 7.0389,-1.4611 7.78076,-1.43311 C8.45264,-1.40511 9.1665,-1.37012 9.92236,-1.32813 C10.6782,-1.28613 11.4131,-1.23714 12.127,-1.18115 C12.2109,-1.09717 12.2389,-1.06917 12.2109,-1.09717 C12.1829,-1.12516 12.2459,-1.09717 12.3999,-1.01318 L0.915039,-0.530273 L-0.59668,-0.803223"/>
</g>

<g fill="#4c62ad" fill-opacity="1" stroke="none" transform="matrix(1,0,0,1,0,0)"
font-family="MS Shell Dlg 2" font-size="7.8" font-weight="400" font-style="normal" 
>
</g>
</g>
</svg>
