<?xml version="1.0" encoding="UTF-8" standalone="no"?>
<svg width="11.2889mm" height="11.2889mm"
 viewBox="0 0 32 32"
 xmlns="http://www.w3.org/2000/svg" xmlns:xlink="http://www.w3.org/1999/xlink"  version="1.2" baseProfile="tiny">
<title>Qt SVG Document</title>
<desc>Generated with Qt</desc>
<defs>
</defs>
<g fill="none" stroke="black" stroke-width="1" fill-rule="evenodd" stroke-linecap="square" stroke-linejoin="bevel" >

<g fill="#4c62ad" fill-opacity="1" stroke="none" transform="matrix(1,0,0,1,0,0)"
font-family="MS Shell Dlg 2" font-size="7.8" font-weight="400" font-style="normal" 
>
<path vector-effect="non-scaling-stroke" fill-rule="evenodd" d="M37.2598,16 C37.2598,27.7415 27.7415,37.2598 16,37.2598 C4.25851,37.2598 -5.25984,27.7415 -5.25984,16 C-5.25984,4.25851 4.25851,-5.25984 16,-5.25984 C27.7415,-5.25984 37.2598,4.25851 37.2598,16 "/>
</g>

<g fill="#ffffff" fill-opacity="0.94902" stroke="none" transform="matrix(1,0,0,1,14.8661,12.5984)"
font-family="MS Shell Dlg 2" font-size="7.8" font-weight="400" font-style="normal" 
>
<path vector-effect="none" fill-rule="evenodd" d="M10.0273,-6.8501 C10.0273,-6.97607 10.0903,-7.06006 10.2163,-7.10205 C10.3423,-7.14404 10.4788,-7.16504 10.6257,-7.16504 C10.7727,-7.16504 10.9092,-7.14404 11.0352,-7.10205 C11.1611,-7.06006 11.2101,-6.97607 11.1821,-6.8501 L10.4473,15.7627 C10.4473,15.8467 10.3423,15.9307 10.1323,16.0146 C9.92236,16.0986 9.76139,16.1406 9.64941,16.1406 C9.41146,16.1406 9.29248,15.9867 9.29248,15.6787 L10.0273,-4.83447 C9.15951,-3.51872 8.36865,-2.32894 7.65479,-1.26514 C7.0529,-0.355306 6.4895,0.47404 5.9646,1.2229 C5.4397,1.97176 5.10026,2.37419 4.94629,2.43018 L3.66553,3.50098 C3.2876,3.76693 2.7557,3.95589 2.06982,4.06787 C1.49593,4.15186 0.715576,4.16585 -0.27124,4.10986 C-1.25806,4.05387 -2.51432,3.82292 -4.04004,3.41699 C-5.06185,3.16504 -5.93319,2.99357 -6.65405,2.90259 C-7.37492,2.8116 -8.0083,2.80461 -8.5542,2.88159 C-9.1001,2.95858 -9.6005,3.10205 -10.0554,3.31201 C-10.5103,3.52197 -10.9827,3.80192 -11.4727,4.15186 C-12.2705,4.75374 -12.7779,4.9952 -12.9949,4.87622 C-13.2118,4.75724 -13.2643,4.49129 -13.1523,4.07837 C-13.0404,3.66545 -12.8409,3.18604 -12.554,2.64014 C-12.267,2.09424 -12.0046,1.69531 -11.7666,1.44336 C-11.2627,0.841471 -10.7518,0.330566 -10.2339,-0.0893555 C-9.71598,-0.509277 -9.15609,-0.86971 -8.5542,-1.17065 C-7.95231,-1.4716 -7.29093,-1.74105 -6.57007,-1.979 C-5.8492,-2.21696 -5.06185,-2.48291 -4.20801,-2.77686 C-3.49414,-3.00081 -2.85726,-3.23527 -2.29736,-3.48022 C-1.73747,-3.72518 -1.26855,-3.94564 -0.890625,-4.1416 C-0.470703,-4.37956 -0.0997721,-4.61051 0.222168,-4.83447 C0.418132,-4.89046 0.635091,-4.91846 0.873047,-4.91846 C1.06901,-4.91846 1.28947,-4.90446 1.53442,-4.87646 C1.77938,-4.84847 2.04183,-4.77848 2.32178,-4.6665 C2.34977,-4.6665 2.47925,-4.6735 2.71021,-4.6875 C2.94116,-4.7015 3.23511,-4.72949 3.59204,-4.77148 C3.94897,-4.81348 4.3584,-4.86947 4.82031,-4.93945 C5.28223,-5.00944 5.75814,-5.07943 6.24805,-5.14941 L10.0273,-5.65332 L10.0273,-6.8501 M-10.4019,3.24902 C-10.3459,3.22103 -10.2374,3.17904 -10.0764,3.12305 C-9.91545,3.06706 -9.75098,3.00057 -9.58301,2.92358 C-9.41504,2.8466 -9.26457,2.78711 -9.13159,2.74512 C-8.99862,2.70313 -8.90413,2.65413 -8.84814,2.59814 C-9.25407,2.59814 -9.6425,2.59814 -10.0134,2.59814 C-10.3844,2.59814 -10.6678,2.41618 -10.8638,2.05225 C-11.0177,1.81429 -11.0422,1.52384 -10.9373,1.18091 C-10.8323,0.837972 -10.6258,0.554525 -10.3179,0.330566 C-10.4019,0.330566 -10.5803,0.47404 -10.8533,0.760986 C-11.1262,1.04793 -11.3047,1.2334 -11.3887,1.31738 C-11.5846,1.62533 -11.7631,1.91577 -11.9241,2.18872 C-12.085,2.46167 -12.1235,2.71712 -12.0396,2.95508 C-11.8856,3.23503 -11.6756,3.41699 -11.4097,3.50098 C-11.1437,3.58496 -10.8078,3.50098 -10.4019,3.24902 M-1.05859,3.08105 C-2.06641,2.87109 -2.85726,2.63664 -3.43115,2.37769 C-4.00505,2.11873 -4.38997,1.56234 -4.58594,0.708496 C-4.68392,0.106608 -4.64543,-0.467285 -4.47046,-1.01318 C-4.29549,-1.55908 -3.79508,-2.07699 -2.96924,-2.56689 C-3.05322,-2.56689 -3.2002,-2.5284 -3.41016,-2.45142 C-3.62012,-2.37443 -3.85457,-2.28695 -4.11353,-2.18896 C-4.37248,-2.09098 -4.62443,-2 -4.86938,-1.91602 C-5.11434,-1.83203 -5.29281,-1.77604 -5.40479,-1.74805 C-6.18864,-1.51009 -6.69954,-1.10417 -6.9375,-0.530273 C-7.17546,0.0436198 -7.18245,0.701497 -6.9585,1.44336 C-6.76253,1.93327 -6.50008,2.26921 -6.17114,2.45117 C-5.8422,2.63314 -5.3418,2.68213 -4.66992,2.59814 C-4.58594,2.57015 -4.36548,2.59814 -4.00854,2.68213 C-3.65161,2.76611 -3.26668,2.8606 -2.85376,2.96558 C-2.44084,3.07056 -2.05591,3.15104 -1.69897,3.20703 C-1.34204,3.26302 -1.12858,3.24902 -1.05859,3.16504 L-1.05859,3.08105 M4.04346,2.68213 C4.53337,2.45817 4.82731,1.92977 4.92529,1.09692 C5.02327,0.264079 4.8763,-0.628255 4.48438,-1.58008 C4.10645,-2.5179 3.58854,-3.25977 2.93066,-3.80566 C2.27279,-4.35156 1.69889,-4.51253 1.20898,-4.28857 C0.663086,-4.10661 0.348145,-3.5992 0.26416,-2.76636 C0.180176,-1.93351 0.327148,-1.02018 0.705078,-0.0263672 C1.09701,0.925456 1.60791,1.66732 2.23779,2.19922 C2.86768,2.73112 3.46956,2.89209 4.04346,2.68213 M10.0273,-5.31738 L2.93066,-4.28857 C3.33659,-3.96663 3.71102,-3.58521 4.05396,-3.14429 C4.39689,-2.70337 4.66634,-2.14697 4.8623,-1.4751 C5.10026,-0.81722 5.20174,-0.17334 5.16675,0.456543 C5.13175,1.08643 5.03027,1.64632 4.8623,2.13623 L10.0273,-5.31738"/>
</g>

<g fill="#4c62ad" fill-opacity="1" stroke="none" transform="matrix(1,0,0,1,0,0)"
font-family="MS Shell Dlg 2" font-size="7.8" font-weight="400" font-style="normal" 
>
</g>
</g>
</svg>
