<?xml version="1.0" encoding="UTF-8" standalone="no"?>
<svg
   xmlns:dc="http://purl.org/dc/elements/1.1/"
   xmlns:cc="http://creativecommons.org/ns#"
   xmlns:rdf="http://www.w3.org/1999/02/22-rdf-syntax-ns#"
   xmlns:svg="http://www.w3.org/2000/svg"
   xmlns="http://www.w3.org/2000/svg"
   xmlns:sodipodi="http://sodipodi.sourceforge.net/DTD/sodipodi-0.dtd"
   xmlns:inkscape="http://www.inkscape.org/namespaces/inkscape"
   inkscape:version="1.0 (4035a4fb49, 2020-05-01)"
   sodipodi:docname="1508.svg"
   id="svg20"
   version="1.2"
   viewBox="0 0 42.519639 42.519639"
   height="14.999999mm"
   width="14.999999mm">
  <metadata
     id="metadata24">
    <rdf:RDF>
      <cc:Work
         rdf:about="">
        <dc:format>image/svg+xml</dc:format>
        <dc:type
           rdf:resource="http://purl.org/dc/dcmitype/StillImage" />
        <dc:title>Qt SVG Document</dc:title>
      </cc:Work>
    </rdf:RDF>
  </metadata>
  <sodipodi:namedview
     inkscape:current-layer="svg20"
     inkscape:window-maximized="0"
     inkscape:window-y="0"
     inkscape:window-x="0"
     inkscape:cy="28.346482"
     inkscape:cx="28.346482"
     inkscape:zoom="5.8410537"
     showgrid="false"
     id="namedview22"
     inkscape:window-height="480"
     inkscape:window-width="1034"
     inkscape:pageshadow="2"
     inkscape:pageopacity="0"
     guidetolerance="10"
     gridtolerance="10"
     objecttolerance="10"
     borderopacity="1"
     bordercolor="#666666"
     pagecolor="#ffffff" />
  <title
     id="title2">Qt SVG Document</title>
  <desc
     id="desc4">Generated with Qt</desc>
  <defs
     id="defs6" />
  <g
     transform="translate(5.25984,5.25984)"
     id="g18"
     stroke-linejoin="bevel"
     stroke-linecap="square"
     fill-rule="evenodd"
     stroke-width="1"
     stroke="#000000"
     fill="none">
    <g
       id="g10"
       font-style="normal"
       font-weight="400"
       font-size="7.8px"
       font-family="'MS Shell Dlg 2'"
       stroke="none"
       fill-opacity="1"
       fill="#4c62ad">
      <path
         id="path8"
         d="M 37.2598,16 C 37.2598,27.7415 27.7415,37.2598 16,37.2598 4.25851,37.2598 -5.25984,27.7415 -5.25984,16 -5.25984,4.25851 4.25851,-5.25984 16,-5.25984 27.7415,-5.25984 37.2598,4.25851 37.2598,16"
         fill-rule="evenodd"
         vector-effect="non-scaling-stroke" />
    </g>
    <g
       id="g14"
       font-style="normal"
       font-weight="400"
       font-size="7.8px"
       font-family="'MS Shell Dlg 2'"
       transform="translate(14.8661,12.5984)"
       stroke="none"
       fill-opacity="0.94902"
       fill="#ffffff">
      <path
         id="path12"
         d="m 10.0273,-6.8501 c 0,-0.12597 0.063,-0.20996 0.189,-0.25195 0.126,-0.04199 0.2625,-0.06299 0.4094,-0.06299 0.147,0 0.2835,0.021 0.4095,0.06299 0.1259,0.04199 0.1749,0.12598 0.1469,0.25195 l -0.7348,22.6128 c 0,0.084 -0.105,0.168 -0.315,0.2519 -0.20994,0.084 -0.37091,0.126 -0.48289,0.126 -0.23795,0 -0.35693,-0.1539 -0.35693,-0.4619 L 10.0273,-4.83447 C 9.15951,-3.51872 8.36865,-2.32894 7.65479,-1.26514 7.0529,-0.355306 6.4895,0.47404 5.9646,1.2229 5.4397,1.97176 5.10026,2.37419 4.94629,2.43018 L 3.66553,3.50098 C 3.2876,3.76693 2.7557,3.95589 2.06982,4.06787 1.49593,4.15186 0.715576,4.16585 -0.27124,4.10986 -1.25806,4.05387 -2.51432,3.82292 -4.04004,3.41699 -5.06185,3.16504 -5.93319,2.99357 -6.65405,2.90259 -7.37492,2.8116 -8.0083,2.80461 -8.5542,2.88159 c -0.5459,0.07699 -1.0463,0.22046 -1.5012,0.43042 -0.4549,0.20996 -0.9273,0.48991 -1.4173,0.83985 -0.7978,0.60188 -1.3052,0.84334 -1.5222,0.72436 -0.2169,-0.11898 -0.2694,-0.38493 -0.1574,-0.79785 0.1119,-0.41292 0.3114,-0.89233 0.5983,-1.43823 0.287,-0.5459 0.5494,-0.94483 0.7874,-1.19678 0.5039,-0.601889 1.0148,-1.112794 1.5327,-1.5327155 0.51792,-0.4199215 1.07781,-0.7803545 1.6797,-1.0812945 0.60189,-0.30095 1.26327,-0.5704 1.98413,-0.80835 0.72087,-0.23796 1.50822,-0.50391 2.36206,-0.79786 0.71387,-0.22395 1.35075,-0.45841 1.91065,-0.70336 0.55989,-0.24496 1.02881,-0.46542 1.406735,-0.66138 0.419922,-0.23796 0.7908529,-0.46891 1.112793,-0.69287 0.195964,-0.05599 0.412923,-0.08399 0.650879,-0.08399 0.195963,0 0.416423,0.014 0.661373,0.042 0.24496,0.02799 0.50741,0.09798 0.78736,0.20996 0.02799,0 0.15747,-0.007 0.38843,-0.021 0.23095,-0.014 0.5249,-0.04199 0.88183,-0.08398 0.35693,-0.042 0.76636,-0.09799 1.22827,-0.16797 0.46192,-0.06999 0.93783,-0.13998 1.42774,-0.20996 L 10.0273,-5.65332 V -6.8501 M -10.4019,3.24902 c 0.056,-0.02799 0.1645,-0.06998 0.3255,-0.12597 0.16095,-0.05599 0.32542,-0.12248 0.49339,-0.19947 0.16797,-0.07698 0.31844,-0.13647 0.45142,-0.17846 0.13297,-0.04199 0.22746,-0.09099 0.28345,-0.14698 -0.40593,0 -0.79436,0 -1.16526,0 -0.371,0 -0.6544,-0.18196 -0.8504,-0.54589 -0.1539,-0.23796 -0.1784,-0.52841 -0.0735,-0.87134 0.105,-0.342938 0.3115,-0.626385 0.6194,-0.850344 -0.084,0 -0.2624,0.143474 -0.5354,0.43042 -0.2729,0.286944 -0.4514,0.472414 -0.5354,0.556394 -0.1959,0.30795 -0.3744,0.59839 -0.5354,0.87134 -0.1609,0.27295 -0.1994,0.5284 -0.1155,0.76636 0.154,0.27995 0.364,0.46191 0.6299,0.5459 0.266,0.08398 0.6019,0 1.0078,-0.25196 M -1.05859,3.08105 C -2.06641,2.87109 -2.85726,2.63664 -3.43115,2.37769 -4.00505,2.11873 -4.38997,1.56234 -4.58594,0.708496 -4.68392,0.106608 -4.64543,-0.467285 -4.47046,-1.01318 c 0.17497,-0.5459 0.67538,-1.06381 1.50122,-1.55371 -0.08398,0 -0.23096,0.03849 -0.44092,0.11547 -0.20996,0.07699 -0.44441,0.16447 -0.70337,0.26246 -0.25895,0.09798 -0.5109,0.18896 -0.75585,0.27294 -0.24496,0.08399 -0.42343,0.13998 -0.53541,0.16797 -0.78385,0.23796 -1.29475,0.64388 -1.53271,1.217777 -0.23796,0.5738928 -0.24495,1.23177 -0.021,1.973633 0.19597,0.48991 0.45842,0.82585 0.78736,1.00781 0.32894,0.18197 0.82934,0.23096 1.50122,0.14697 0.08398,-0.02799 0.30444,0 0.66138,0.08399 0.35693,0.08398 0.74186,0.17847 1.15478,0.28345 0.41292,0.10498 0.79785,0.18546 1.15479,0.24145 0.35693,0.05599 0.57039,0.04199 0.64038,-0.04199 V 3.08105 M 4.04346,2.68213 C 4.53337,2.45817 4.82731,1.92977 4.92529,1.09692 5.02327,0.264079 4.8763,-0.628255 4.48438,-1.58008 4.10645,-2.5179 3.58854,-3.25977 2.93066,-3.80566 2.27279,-4.35156 1.69889,-4.51253 1.20898,-4.28857 0.663086,-4.10661 0.348145,-3.5992 0.26416,-2.76636 0.180176,-1.93351 0.327148,-1.02018 0.705078,-0.0263672 1.09701,0.925456 1.60791,1.66732 2.23779,2.19922 2.86768,2.73112 3.46956,2.89209 4.04346,2.68213 m 5.98384,-7.99951 -7.09664,1.02881 c 0.40593,0.32194 0.78036,0.70336 1.1233,1.14428 0.34293,0.44092 0.61238,0.99732 0.80834,1.66919 0.23796,0.65788 0.33944,1.30176 0.30445,1.931643 C 5.13175,1.08643 5.03027,1.64632 4.8623,2.13623 l 5.165,-7.45361"
         fill-rule="evenodd"
         vector-effect="none" />
    </g>
    <g
       id="g16"
       font-style="normal"
       font-weight="400"
       font-size="7.8px"
       font-family="'MS Shell Dlg 2'"
       stroke="none"
       fill-opacity="1"
       fill="#4c62ad" />
  </g>
</svg>
