<svg xmlns="http://www.w3.org/2000/svg" version="1.2" viewBox="0 0 42.52 42.52" height="56.693" width="56.693">
   <g stroke-linejoin="bevel" stroke-linecap="square" fill-rule="evenodd" stroke="none" fill="none" font-weight="400"
      font-size="7.8" font-family="'MS Shell Dlg 2'">
      <path
         d="M42.52 21.26C42.52 33 33 42.52 21.26 42.52 9.518 42.52 0 33 0 21.26 0 9.518 9.518 0 21.26 0 33 0 42.52 9.518 42.52 21.26"
         vector-effect="non-scaling-stroke" fill="#4c62ad" />
      <path
         d="M30.153 11.008c0-.126.063-.21.19-.252.125-.042.262-.063.409-.063.147 0 .283.021.41.063.125.042.174.126.146.252l-.735 22.613c0 .084-.105.168-.315.252-.21.084-.37.126-.483.126-.238 0-.357-.154-.357-.462l.735-20.513a541.574 541.574 0 01-2.372 3.57c-.602.909-1.166 1.738-1.69 2.487-.525.749-.865 1.151-1.019 1.207l-1.28 1.071c-.378.266-.91.455-1.596.567-.574.084-1.354.098-2.341.042-.987-.056-2.243-.287-3.77-.693-1.02-.252-1.892-.423-2.613-.514-.721-.091-1.354-.098-1.9-.021a5.342 5.342 0 00-1.501.43c-.455.21-.928.49-1.418.84-.798.602-1.305.843-1.522.724-.217-.119-.27-.384-.157-.797.112-.413.311-.893.598-1.439s.55-.944.787-1.196a11.31 11.31 0 011.533-1.533 9.17 9.17 0 011.68-1.081c.602-.301 1.263-.57 1.984-.809.72-.238 1.508-.504 2.362-.798a18.92 18.92 0 001.91-.703c.56-.245 1.03-.465 1.407-.661.42-.238.791-.47 1.113-.693.196-.056.413-.084.651-.084.196 0 .416.014.661.042.245.028.508.098.788.21a16.239 16.239 0 001.27-.105c.357-.042.766-.098 1.228-.168.462-.07.938-.14 1.428-.21l3.78-.504v-1.197m-20.43 10.1c.056-.029.165-.07.326-.127.16-.056.325-.122.493-.2.168-.076.318-.136.451-.178a.704.704 0 00.284-.147h-1.165c-.371 0-.655-.182-.85-.546-.155-.237-.18-.528-.074-.87a1.62 1.62 0 01.619-.851c-.084 0-.262.143-.535.43-.273.287-.452.473-.536.557-.196.308-.374.598-.535.871-.161.273-.2.528-.116.766.154.28.364.462.63.546.266.084.602 0 1.008-.252m9.343-.168c-1.007-.21-1.798-.444-2.372-.703-.574-.259-.959-.815-1.155-1.67a3.646 3.646 0 01.115-1.72c.175-.547.676-1.065 1.502-1.555-.084 0-.231.039-.441.116-.21.077-.445.164-.704.262-.259.098-.51.19-.755.273-.245.084-.424.14-.536.168-.784.238-1.295.644-1.533 1.218s-.245 1.232-.02 1.974c.195.49.458.825.787 1.007.329.182.83.231 1.501.147.084-.028.304 0 .661.084.357.084.742.179 1.155.284.413.105.798.185 1.155.241.357.056.57.042.64-.042v-.084m5.102-.399c.49-.224.784-.752.882-1.585.098-.833-.049-1.725-.44-2.677-.379-.938-.897-1.68-1.554-2.225-.658-.546-1.232-.707-1.722-.483-.546.182-.86.689-.945 1.522-.084.833.063 1.746.441 2.74.392.952.903 1.694 1.533 2.225.63.532 1.231.693 1.805.483m5.984-8l-7.096 1.03c.406.322.78.703 1.123 1.144.343.44.612.997.808 1.67.238.657.34 1.3.305 1.93a6.248 6.248 0 01-.305 1.68l5.165-7.453"
         fill-opacity=".949" fill="#fff" />
   </g>
</svg>