<svg xmlns="http://www.w3.org/2000/svg" version="1.2" viewBox="0 0 42.52 42.52" height="56.693" width="56.693">
   <g stroke-linejoin="bevel" stroke-linecap="square" fill-rule="evenodd" stroke="none" fill="none" font-weight="400"
      font-size="7.8" font-family="'MS Shell Dlg 2'">
      <path
         d="M42.52 21.26C42.52 33 33 42.52 21.26 42.52 9.518 42.52 0 33 0 21.26 0 9.518 9.518 0 21.26 0 33 0 42.52 9.518 42.52 21.26"
         vector-effect="non-scaling-stroke" fill="#4c62ad" />
      <path
         d="M28.663 18.378h-15.37v-3.822h.525c0-.391.035-.783.105-1.175.07-.392.182-.756.336-1.092.196-.35.389-.675.578-.976.189-.301.41-.592.661-.872.252-.266.529-.521.83-.766a4.9 4.9 0 01.976-.62 5.029 5.029 0 011.081-.493c.343-.105.71-.2 1.102-.283l-.168 6.277h2.982l-.19-6.277c.435.084.83.178 1.187.283.357.105.725.27 1.102.493.336.168.655.375.956.62.3.245.584.5.85.766a6.07 6.07 0 011.155 1.848c.168.336.283.7.346 1.092.063.392.095.784.095 1.175h.86v3.822M11.32 31.206v-8.21h1.722v8.21H11.32m4.01 0v-8.21h15.516v8.21H15.33m9.931-3.653h3.402v-3.15H25.26v3.15m-5.858 0h3.402v-3.15h-3.402v3.15m12.136-5.774H10.501v-2.267h21.038v2.267m.504 10.015v1.176H9.304v-1.176h22.739"
         fill-opacity=".949" fill="#fff" />
   </g>
</svg>