<?xml version="1.0" encoding="UTF-8" standalone="no"?>
<svg
   xmlns:dc="http://purl.org/dc/elements/1.1/"
   xmlns:cc="http://creativecommons.org/ns#"
   xmlns:rdf="http://www.w3.org/1999/02/22-rdf-syntax-ns#"
   xmlns:svg="http://www.w3.org/2000/svg"
   xmlns="http://www.w3.org/2000/svg"
   xmlns:sodipodi="http://sodipodi.sourceforge.net/DTD/sodipodi-0.dtd"
   xmlns:inkscape="http://www.inkscape.org/namespaces/inkscape"
   inkscape:version="1.0 (4035a4fb49, 2020-05-01)"
   sodipodi:docname="1509.svg"
   id="svg20"
   version="1.2"
   viewBox="0 0 42.519639 42.519639"
   height="14.999999mm"
   width="14.999999mm">
  <metadata
     id="metadata24">
    <rdf:RDF>
      <cc:Work
         rdf:about="">
        <dc:format>image/svg+xml</dc:format>
        <dc:type
           rdf:resource="http://purl.org/dc/dcmitype/StillImage" />
        <dc:title>Qt SVG Document</dc:title>
      </cc:Work>
    </rdf:RDF>
  </metadata>
  <sodipodi:namedview
     inkscape:current-layer="svg20"
     inkscape:window-maximized="0"
     inkscape:window-y="0"
     inkscape:window-x="0"
     inkscape:cy="28.346482"
     inkscape:cx="28.346482"
     inkscape:zoom="5.8410537"
     showgrid="false"
     id="namedview22"
     inkscape:window-height="480"
     inkscape:window-width="1034"
     inkscape:pageshadow="2"
     inkscape:pageopacity="0"
     guidetolerance="10"
     gridtolerance="10"
     objecttolerance="10"
     borderopacity="1"
     bordercolor="#666666"
     pagecolor="#ffffff" />
  <title
     id="title2">Qt SVG Document</title>
  <desc
     id="desc4">Generated with Qt</desc>
  <defs
     id="defs6" />
  <g
     transform="translate(5.25984,5.25984)"
     id="g18"
     stroke-linejoin="bevel"
     stroke-linecap="square"
     fill-rule="evenodd"
     stroke-width="1"
     stroke="#000000"
     fill="none">
    <g
       id="g10"
       font-style="normal"
       font-weight="400"
       font-size="7.8px"
       font-family="'MS Shell Dlg 2'"
       stroke="none"
       fill-opacity="1"
       fill="#4c62ad">
      <path
         id="path8"
         d="M 37.2598,16 C 37.2598,27.7415 27.7415,37.2598 16,37.2598 4.25851,37.2598 -5.25984,27.7415 -5.25984,16 -5.25984,4.25851 4.25851,-5.25984 16,-5.25984 27.7415,-5.25984 37.2598,4.25851 37.2598,16"
         fill-rule="evenodd"
         vector-effect="non-scaling-stroke" />
    </g>
    <g
       id="g14"
       font-style="normal"
       font-weight="400"
       font-size="7.8px"
       font-family="'MS Shell Dlg 2'"
       transform="translate(15.4331,12.0315)"
       stroke="none"
       fill-opacity="0.94902"
       fill="#ffffff">
      <path
         id="path12"
         d="M 7.96973,1.08643 H -7.39941 v -3.82129 h 0.5249 c 0,-0.39193 0.03499,-0.78386 0.10498,-1.17578 0.06999,-0.39193 0.18196,-0.75586 0.33594,-1.0918 0.19596,-0.34994 0.38842,-0.67538 0.57739,-0.97632 0.18896,-0.30094 0.40942,-0.59139 0.66138,-0.87134 0.25195,-0.26595 0.5284,-0.5214 0.82934,-0.76636 0.30095,-0.24495 0.62638,-0.45141 0.97632,-0.61938 0.37793,-0.22396 0.73836,-0.38843 1.0813,-0.49341 0.34293,-0.10498 0.71037,-0.19946 1.10229,-0.28345 l -0.16797,6.27784 H 1.60791 L 1.41895,-9.0127 c 0.43391,0.08399 0.82934,0.17847 1.18627,0.28345 0.35694,0.10498 0.72437,0.26945 1.1023,0.49341 0.33594,0.16797 0.65438,0.37443 0.95532,0.61938 0.30095,0.24496 0.58439,0.50041 0.85034,0.76636 0.25196,0.27995 0.47242,0.5704 0.66138,0.87134 0.18897,0.30094 0.35343,0.62638 0.49341,0.97632 0.16797,0.33594 0.28345,0.69987 0.34643,1.0918 0.06299,0.39192 0.09449,0.78385 0.09449,1.17578 H 7.96973 V 1.08643 M -9.37305,13.915 V 5.70557 h 1.72168 V 13.915 h -1.72168 m 4.01026,0 V 5.70557 H 10.1533 V 13.915 H -5.36279 M 4.56836,10.2617 H 7.96973 V 7.1123 H 4.56836 v 3.1494 m -5.85791,0 H 2.11182 V 7.1123 h -3.40137 v 3.1494 M 10.8462,4.48779 H -10.1919 V 2.22021 h 21.0381 v 2.26758 m 0.5039,10.01511 v 1.1758 h -22.7388 v -1.1758 h 22.7388"
         fill-rule="evenodd"
         vector-effect="none" />
    </g>
    <g
       id="g16"
       font-style="normal"
       font-weight="400"
       font-size="7.8px"
       font-family="'MS Shell Dlg 2'"
       stroke="none"
       fill-opacity="1"
       fill="#4c62ad" />
  </g>
</svg>
