<?xml version="1.0" encoding="UTF-8" standalone="no"?>
<svg width="11.2889mm" height="11.2889mm"
 viewBox="0 0 32 32"
 xmlns="http://www.w3.org/2000/svg" xmlns:xlink="http://www.w3.org/1999/xlink"  version="1.2" baseProfile="tiny">
<title>Qt SVG Document</title>
<desc>Generated with Qt</desc>
<defs>
</defs>
<g fill="none" stroke="black" stroke-width="1" fill-rule="evenodd" stroke-linecap="square" stroke-linejoin="bevel" >

<g fill="#53a54f" fill-opacity="1" stroke="none" transform="matrix(1,0,0,1,0,0)"
font-family="MS Shell Dlg 2" font-size="7.8" font-weight="400" font-style="normal" 
>
<path vector-effect="non-scaling-stroke" fill-rule="evenodd" d="M37.2598,16 C37.2598,27.7415 27.7415,37.2598 16,37.2598 C4.25851,37.2598 -5.25984,27.7415 -5.25984,16 C-5.25984,4.25851 4.25851,-5.25984 16,-5.25984 C27.7415,-5.25984 37.2598,4.25851 37.2598,16 "/>
</g>

<g fill="#ffffff" fill-opacity="1" stroke="none" transform="matrix(1,0,0,1,16,13.7323)"
font-family="MS Shell Dlg 2" font-size="7.8" font-weight="400" font-style="normal" 
>
<path vector-effect="none" fill-rule="evenodd" d="M-5.48877,3.71094 C-6.00667,3.80892 -6.47559,3.99788 -6.89551,4.27783 C-7.31543,4.55778 -7.63737,4.91471 -7.86133,5.34863 C-8.08529,5.78255 -8.19727,6.27246 -8.19727,6.81836 C-8.19727,7.36426 -8.0293,7.93815 -7.69336,8.54004 C-7.66536,8.24609 -7.65137,7.92765 -7.65137,7.58472 C-7.65137,7.24178 -7.58488,6.91984 -7.4519,6.6189 C-7.31893,6.31795 -7.09497,6.045 -6.78003,5.80005 C-6.46509,5.55509 -5.97868,5.40462 -5.3208,5.34863 C-4.95687,5.29264 -4.63843,5.25765 -4.36548,5.24365 C-4.09253,5.22965 -3.80908,5.26465 -3.51514,5.34863 C-3.65511,6.03451 -3.74259,6.75187 -3.77759,7.50073 C-3.81258,8.24959 -3.75309,9.03695 -3.59912,9.86279 C-4.20101,10.2407 -4.8029,10.4297 -5.40479,10.4297 C-6.27262,10.4297 -7.02148,10.1357 -7.65137,9.54785 C-8.28125,8.95996 -8.92513,8.25309 -9.58301,7.42725 C-9.96094,6.93734 -10.3214,6.40544 -10.6643,5.83154 C-11.0072,5.25765 -11.2907,4.64876 -11.5146,4.00488 C-11.7386,3.361 -11.8961,2.69263 -11.9871,1.99976 C-12.078,1.30688 -12.0535,0.589518 -11.9136,-0.152344 C-11.8156,-0.642253 -11.7806,-1.09367 -11.8086,-1.50659 C-11.8366,-1.91951 -11.8751,-2.31144 -11.9241,-2.68237 C-11.9731,-3.0533 -12.0046,-3.42773 -12.0186,-3.80566 C-12.0326,-4.18359 -11.9976,-4.58252 -11.9136,-5.00244 C-11.7316,-5.70231 -11.5636,-6.08024 -11.4097,-6.13623 C-11.2557,-6.19222 -10.9688,-6.12573 -10.5488,-5.93677 C-10.1289,-5.7478 -9.51302,-5.51685 -8.70117,-5.2439 C-7.88932,-4.97095 -6.73454,-4.83447 -5.23682,-4.83447 C-3.78109,-4.80648 -2.6438,-4.92196 -1.82495,-5.18091 C-1.0061,-5.43986 -0.37972,-5.66382 0.0541992,-5.85278 C0.488118,-6.04175 0.775065,-6.09074 0.915039,-5.99976 C1.05501,-5.90877 1.19499,-5.52035 1.33496,-4.83447 C1.41895,-4.23258 1.41895,-3.65869 1.33496,-3.11279 C0.971029,-2.83285 0.698079,-2.5599 0.516113,-2.29395 C0.376139,-2.15397 0.278158,-2.04899 0.222168,-1.979 C0.166178,-1.90902 0.0961914,-1.77604 0.012207,-1.58008 C-0.225749,-1.4821 -0.544189,-1.4401 -0.943115,-1.4541 C-1.34204,-1.4681 -1.73047,-1.51009 -2.1084,-1.58008 C-2.44434,-1.58008 -2.74178,-1.65007 -3.00073,-1.79004 C-3.25968,-1.93001 -3.49764,-2.09448 -3.7146,-2.28345 C-3.93156,-2.47241 -4.11702,-2.65788 -4.271,-2.83984 C-4.42497,-3.02181 -4.55794,-3.14079 -4.66992,-3.19678 C-4.66992,-3.02881 -4.65592,-2.78035 -4.62793,-2.45142 C-4.59993,-2.12248 -4.52295,-1.80054 -4.39697,-1.4856 C-4.271,-1.17065 -4.06453,-0.876709 -3.77759,-0.60376 C-3.49064,-0.330811 -3.07422,-0.152344 -2.52832,-0.0683594 C-2.24837,-0.0123698 -1.89144,-0.0473633 -1.45752,-0.17334 C-1.0236,-0.299316 -0.722656,-0.404297 -0.554688,-0.488281 L-0.806641,0.015625 C-0.946615,0.393555 -1.08309,0.725993 -1.21606,1.01294 C-1.34904,1.29989 -1.5415,1.59733 -1.79346,1.90527 C-2.1154,2.3112 -2.37435,2.68563 -2.57031,3.02856 C-2.76628,3.3715 -2.96924,3.78792 -3.1792,4.27783 C-3.43115,4.13786 -3.78109,3.99438 -4.229,3.84741 C-4.67692,3.70044 -5.09684,3.65495 -5.48877,3.71094 M-8.19727,-0.236328 C-7.66536,-0.208333 -7.24544,-0.316813 -6.9375,-0.561768 C-6.62956,-0.806722 -6.3986,-1.09367 -6.24463,-1.42261 C-6.09066,-1.75155 -5.99268,-2.08748 -5.95068,-2.43042 C-5.90869,-2.77336 -5.8877,-3.02881 -5.8877,-3.19678 C-6.02767,-3.14079 -6.17814,-3.02881 -6.33911,-2.86084 C-6.50008,-2.69287 -6.69255,-2.5214 -6.9165,-2.34644 C-7.14046,-2.17147 -7.40291,-2.014 -7.70386,-1.87402 C-8.0048,-1.73405 -8.35824,-1.66406 -8.76416,-1.66406 C-9.17008,-1.60807 -9.55851,-1.58008 -9.92944,-1.58008 C-10.3004,-1.58008 -10.6258,-1.65007 -10.9058,-1.79004 C-10.8498,-1.41211 -10.5208,-1.07267 -9.91895,-0.771729 C-9.31706,-0.470785 -8.74316,-0.292318 -8.19727,-0.236328 M7.40283,1.82129 C8.71859,2.53516 9.81388,2.97957 10.6887,3.15454 C11.5636,3.32951 12.2389,3.44499 12.7148,3.50098 C13.1908,3.55697 13.4777,3.65845 13.5757,3.80542 C13.6737,3.95239 13.6247,4.35482 13.4287,5.0127 C13.2747,5.40462 13.0998,5.76156 12.9038,6.0835 C12.7078,6.40544 12.5014,6.71688 12.2844,7.01782 C12.0675,7.31877 11.8505,7.64771 11.6335,8.00464 C11.4166,8.36157 11.2381,8.771 11.0981,9.23291 C10.6362,10.6606 9.84888,11.8119 8.73608,12.6868 C7.62329,13.5616 6.45101,14.244 5.21924,14.7339 C4.29541,15.0978 3.41707,15.3813 2.58423,15.5842 C1.75138,15.7872 0.950033,15.6577 0.180176,15.1958 C-0.589681,14.8039 -1.12508,14.2055 -1.42603,13.4006 C-1.72697,12.5958 -1.98242,11.6895 -2.19238,10.6816 C-2.33236,10.0238 -2.42334,9.35189 -2.46533,8.66602 C-2.50732,7.98014 -2.48633,7.29077 -2.40234,6.5979 C-2.31836,5.90503 -2.13989,5.23665 -1.86694,4.59277 C-1.59399,3.94889 -1.21257,3.32601 -0.722656,2.72412 C-0.442708,2.36019 -0.215251,1.99626 -0.0402832,1.63232 C0.134684,1.26839 0.292155,0.907959 0.432129,0.551025 C0.572103,0.194092 0.722575,-0.148844 0.883545,-0.477783 C1.04451,-0.806722 1.25098,-1.13916 1.50293,-1.4751 C1.96484,-1.993 2.28328,-2.24495 2.45825,-2.23096 C2.63322,-2.21696 2.86418,-2.03149 3.15112,-1.67456 C3.43807,-1.31763 3.88249,-0.824219 4.48438,-0.194336 C5.08626,0.435547 6.05908,1.10742 7.40283,1.82129 M3.05664,2.3042 C2.80469,2.16423 2.53524,2.09424 2.24829,2.09424 C1.96134,2.09424 1.6814,2.13623 1.40845,2.22021 C1.1355,2.3042 0.890544,2.43018 0.673584,2.59814 C0.456624,2.76611 0.292155,2.96908 0.180176,3.20703 C0.488118,3.12305 0.771566,3.15804 1.03052,3.31201 C1.28947,3.46598 1.60791,3.73193 1.98584,4.10986 C2.47575,4.50179 2.85718,4.95671 3.13013,5.47461 C3.40308,5.99251 3.59554,6.41243 3.70752,6.73438 C3.84749,6.30046 3.93848,5.84554 3.98047,5.36963 C4.02246,4.89372 4.01546,4.4563 3.95947,4.05737 C3.90348,3.65845 3.8055,3.30151 3.66553,2.98657 C3.52555,2.67163 3.32259,2.44417 3.05664,2.3042 M1.16699,13.0122 C1.62891,13.2642 2.1888,13.3621 2.84668,13.3062 C3.50456,13.2502 4.16943,13.1067 4.84131,12.8757 C5.51318,12.6448 6.15007,12.3578 6.75195,12.0149 C7.35384,11.672 7.82975,11.3465 8.17969,11.0386 C7.88574,11.1785 7.50431,11.3325 7.0354,11.5005 C6.56649,11.6685 6.05208,11.7979 5.49219,11.8889 C4.93229,11.9799 4.3584,11.9939 3.77051,11.9309 C3.18262,11.8679 2.64372,11.6965 2.15381,11.4165 C1.6639,11.1226 1.26847,10.7481 0.967529,10.2932 C0.666585,9.8383 0.432129,9.37288 0.26416,8.89697 C0.0961914,8.42106 -0.0227865,7.95565 -0.0927734,7.50073 C-0.16276,7.04582 -0.232747,6.65739 -0.302734,6.33545 C-0.442708,6.88135 -0.519694,7.49023 -0.533691,8.16211 C-0.547689,8.83398 -0.505697,9.49536 -0.407715,10.1462 C-0.309733,10.7971 -0.131266,11.378 0.127686,11.8889 C0.386637,12.3998 0.733073,12.7743 1.16699,13.0122 M10.1953,8.79199 C10.4333,8.33008 10.5208,7.79818 10.4578,7.19629 C10.3948,6.5944 10.1253,6.16748 9.64941,5.91553 C9.38346,5.77555 9.05103,5.69857 8.6521,5.68457 C8.25317,5.67057 7.83675,5.72656 7.40283,5.85254 C6.96891,5.97852 6.53849,6.16398 6.11157,6.40894 C5.68465,6.65389 5.32422,6.95833 5.03027,7.32227 C5.35221,7.26628 5.77913,7.22428 6.31104,7.19629 C6.84294,7.16829 7.43783,7.27327 8.0957,7.51123 C8.58561,7.6512 9.02303,7.82967 9.40796,8.04663 C9.79289,8.26359 10.0553,8.51204 10.1953,8.79199 "/>
</g>

<g fill="#53a54f" fill-opacity="1" stroke="none" transform="matrix(1,0,0,1,0,0)"
font-family="MS Shell Dlg 2" font-size="7.8" font-weight="400" font-style="normal" 
>
</g>
</g>
</svg>
