<svg xmlns="http://www.w3.org/2000/svg" version="1.2" viewBox="0 0 42.52 42.52" height="56.693" width="56.693">
   <g stroke-linejoin="bevel" stroke-linecap="square" fill-rule="evenodd" stroke="none" fill="none" font-weight="400"
      font-size="7.8" font-family="'MS Shell Dlg 2'">
      <path
         d="M42.52 21.26C42.52 33 33 42.52 21.26 42.52 9.518 42.52 0 33 0 21.26 0 9.518 9.518 0 21.26 0 33 0 42.52 9.518 42.52 21.26"
         vector-effect="non-scaling-stroke" fill="#53a54f" />
      <path
         d="M15.771 22.703a3.771 3.771 0 00-1.407.567c-.42.28-.742.637-.965 1.07a3.157 3.157 0 00-.336 1.47c0 .546.168 1.12.503 1.722.028-.294.042-.612.042-.955 0-.343.067-.665.2-.966.133-.3.357-.574.672-.819.315-.245.801-.395 1.459-.451.364-.056.682-.091.955-.105a2.6 2.6 0 01.85.105c-.14.686-.227 1.403-.262 2.152-.035.749.025 1.536.179 2.362-.602.378-1.204.567-1.806.567a3.18 3.18 0 01-2.247-.882 19.631 19.631 0 01-1.931-2.12 16.28 16.28 0 01-1.081-1.596 9.873 9.873 0 01-.85-1.827 10.08 10.08 0 01-.473-2.005 6.79 6.79 0 01.073-2.152 5.15 5.15 0 00.105-1.354 18.6 18.6 0 00-.115-1.176 11.95 11.95 0 01-.095-1.124 5.133 5.133 0 01.105-1.196c.182-.7.35-1.078.504-1.134.154-.056.441.01.861.2.42.188 1.036.42 1.848.692.812.273 1.966.41 3.464.41 1.456.028 2.593-.088 3.412-.347s1.445-.483 1.879-.672c.434-.189.72-.238.86-.147s.28.48.42 1.166a5.91 5.91 0 010 1.721c-.363.28-.636.553-.818.82-.14.14-.238.244-.294.314a1.92 1.92 0 00-.21.4c-.238.097-.556.139-.955.125a7.916 7.916 0 01-1.166-.126c-.336 0-.633-.07-.892-.21a3.923 3.923 0 01-.714-.493 5.21 5.21 0 01-.556-.557c-.154-.182-.287-.3-.4-.357 0 .168.015.417.043.746.028.329.105.65.23.966.127.314.333.608.62.881s.704.452 1.25.536c.28.056.636.02 1.07-.105.434-.126.735-.231.903-.315l-.252.504c-.14.378-.276.71-.41.997a4.258 4.258 0 01-.577.892c-.322.406-.58.78-.776 1.124-.196.343-.4.76-.61 1.249a6.243 6.243 0 00-1.05-.43c-.447-.147-.867-.193-1.259-.137m-2.708-3.947c.531.028.951-.08 1.26-.326a2.39 2.39 0 00.692-.86c.154-.33.252-.665.294-1.008.042-.343.063-.599.063-.767-.14.056-.29.168-.451.336-.161.168-.354.34-.578.515a4.044 4.044 0 01-.787.472c-.301.14-.654.21-1.06.21a8.536 8.536 0 01-1.166.084c-.37 0-.696-.07-.976-.21.056.378.385.717.987 1.018.602.301 1.176.48 1.722.536m15.6 2.057c1.315.714 2.41 1.159 3.286 1.334.874.175 1.55.29 2.026.346.476.056.763.158.86.305.099.147.05.549-.146 1.207a6.926 6.926 0 01-.525 1.07c-.196.323-.403.634-.62.935-.217.3-.434.63-.65.987a5.336 5.336 0 00-.536 1.228c-.462 1.428-1.25 2.579-2.362 3.454a14.132 14.132 0 01-3.517 2.047c-.924.364-1.802.647-2.635.85-.833.203-1.634.074-2.404-.388a3.213 3.213 0 01-1.606-1.795c-.301-.805-.557-1.711-.767-2.72a13.69 13.69 0 01-.272-2.015 11.375 11.375 0 01.063-2.068 7.391 7.391 0 01.535-2.005 7.766 7.766 0 011.144-1.869c.28-.364.508-.728.683-1.092.175-.363.332-.724.472-1.08.14-.358.29-.7.451-1.03.161-.329.368-.661.62-.997.462-.518.78-.77.955-.756.175.014.406.2.693.557.287.357.731.85 1.333 1.48s1.575 1.302 2.919 2.015m-4.347.483a1.639 1.639 0 00-.808-.21 2.84 2.84 0 00-.84.126c-.273.084-.518.21-.735.378-.217.168-.381.371-.493.61.308-.085.591-.05.85.104.26.154.578.42.956.798.49.392.871.847 1.144 1.365.273.518.465.938.577 1.26.14-.434.231-.89.273-1.365a5.796 5.796 0 00-.02-1.312 3.995 3.995 0 00-.295-1.071c-.14-.315-.343-.543-.609-.683m-1.89 10.708c.463.252 1.023.35 1.68.294a8.285 8.285 0 001.995-.43 11.21 11.21 0 001.91-.861c.603-.343 1.079-.668 1.429-.976-.294.14-.676.294-1.145.462a8.722 8.722 0 01-1.543.388 6.422 6.422 0 01-1.722.042 4.1 4.1 0 01-1.616-.514 3.65 3.65 0 01-1.187-1.124c-.3-.455-.535-.92-.703-1.396a7.728 7.728 0 01-.357-1.396c-.07-.455-.14-.843-.21-1.165a8.037 8.037 0 00-.23 1.826c-.015.672.027 1.333.125 1.984s.277 1.232.536 1.743c.258.51.605.885 1.039 1.123m9.028-4.22c.238-.462.326-.994.263-1.596-.063-.601-.333-1.028-.809-1.28-.266-.14-.598-.217-.997-.231a3.972 3.972 0 00-1.25.168 5.9 5.9 0 00-1.29.556c-.428.245-.788.55-1.082.913.322-.056.749-.098 1.28-.126.533-.028 1.128.077 1.786.315.49.14.927.319 1.312.536.385.217.647.465.787.745"
         fill="#fff" />
   </g>
</svg>