<?xml version="1.0" encoding="UTF-8" standalone="no"?>
<svg
   xmlns:dc="http://purl.org/dc/elements/1.1/"
   xmlns:cc="http://creativecommons.org/ns#"
   xmlns:rdf="http://www.w3.org/1999/02/22-rdf-syntax-ns#"
   xmlns:svg="http://www.w3.org/2000/svg"
   xmlns="http://www.w3.org/2000/svg"
   xmlns:sodipodi="http://sodipodi.sourceforge.net/DTD/sodipodi-0.dtd"
   xmlns:inkscape="http://www.inkscape.org/namespaces/inkscape"
   inkscape:version="1.0 (4035a4fb49, 2020-05-01)"
   sodipodi:docname="1602.svg"
   id="svg20"
   version="1.2"
   viewBox="0 0 42.519639 42.519639"
   height="14.999999mm"
   width="14.999999mm">
  <metadata
     id="metadata24">
    <rdf:RDF>
      <cc:Work
         rdf:about="">
        <dc:format>image/svg+xml</dc:format>
        <dc:type
           rdf:resource="http://purl.org/dc/dcmitype/StillImage" />
        <dc:title>Qt SVG Document</dc:title>
      </cc:Work>
    </rdf:RDF>
  </metadata>
  <sodipodi:namedview
     inkscape:current-layer="svg20"
     inkscape:window-maximized="0"
     inkscape:window-y="0"
     inkscape:window-x="0"
     inkscape:cy="28.346482"
     inkscape:cx="28.346482"
     inkscape:zoom="5.8410537"
     showgrid="false"
     id="namedview22"
     inkscape:window-height="480"
     inkscape:window-width="1034"
     inkscape:pageshadow="2"
     inkscape:pageopacity="0"
     guidetolerance="10"
     gridtolerance="10"
     objecttolerance="10"
     borderopacity="1"
     bordercolor="#666666"
     pagecolor="#ffffff" />
  <title
     id="title2">Qt SVG Document</title>
  <desc
     id="desc4">Generated with Qt</desc>
  <defs
     id="defs6" />
  <g
     transform="translate(5.25984,5.25984)"
     id="g18"
     stroke-linejoin="bevel"
     stroke-linecap="square"
     fill-rule="evenodd"
     stroke-width="1"
     stroke="#000000"
     fill="none">
    <g
       id="g10"
       font-style="normal"
       font-weight="400"
       font-size="7.8px"
       font-family="'MS Shell Dlg 2'"
       stroke="none"
       fill-opacity="1"
       fill="#53a54f">
      <path
         id="path8"
         d="M 37.2598,16 C 37.2598,27.7415 27.7415,37.2598 16,37.2598 4.25851,37.2598 -5.25984,27.7415 -5.25984,16 -5.25984,4.25851 4.25851,-5.25984 16,-5.25984 27.7415,-5.25984 37.2598,4.25851 37.2598,16"
         fill-rule="evenodd"
         vector-effect="non-scaling-stroke" />
    </g>
    <g
       id="g14"
       font-style="normal"
       font-weight="400"
       font-size="7.8px"
       font-family="'MS Shell Dlg 2'"
       transform="translate(16.5669,12.5984)"
       stroke="none"
       fill-opacity="0.94902"
       fill="#ffffff">
      <path
         id="path12"
         d="m -7.60938,3.16504 c -0.65787,0 -1.28076,-0.12248 -1.86865,-0.36743 -0.58787,-0.24496 -1.10227,-0.58089 -1.54317,-1.00782 -0.441,-0.42692 -0.7909,-0.934321 -1.0498,-1.522212 -0.259,-0.587891 -0.3885,-1.231771 -0.3885,-1.931638 0,-0.68587 0.1295,-1.32276 0.3885,-1.91065 0.2589,-0.58789 0.6088,-1.10929 1.0498,-1.56421 0.4409,-0.45491 0.9553,-0.81184 1.54317,-1.0708 0.58789,-0.25895 1.21078,-0.38842 1.86865,-0.38842 1.17579,0 2.20809,0.37793 3.09693,1.13378 0.88883,0.75586 1.46623,1.67969 1.73218,2.77149 0.22395,-1.0918 0.77335,-2.01563 1.64819,-2.77149 0.874837,-0.75585 1.914144,-1.13378 3.11792,-1.13378 0.65788,0 1.28076,0.12947 1.86865,0.38842 0.58789,0.25896 1.1058,0.61589 1.55371,1.0708 0.44792,0.45492 0.79785,0.97632 1.04981,1.56421 0.25195,0.58789 0.37793,1.22478 0.37793,1.91065 0,0.699867 -0.12598,1.343747 -0.37793,1.931638 C 6.20605,0.855469 5.85612,1.36287 5.4082,1.78979 4.96029,2.21672 4.44238,2.55265 3.85449,2.79761 3.2666,3.04256 2.64372,3.16504 1.98584,3.16504 c -1.203776,0 -2.243083,-0.36043 -3.11792,-1.0813 -0.87484,-0.72087 -1.42424,-1.620198 -1.64819,-2.697998 -0.26595,1.0778 -0.83635,1.977128 -1.71119,2.697998 -0.87483,0.72087 -1.91414,1.0813 -3.11792,1.0813 M 12.001,5.74756 c 0.2659,0 0.4899,0.32894 0.6719,0.98682 0.1819,0.65787 0.2729,1.45572 0.2729,2.39355 0,0.92387 -0.091,1.72167 -0.2729,2.39357 -0.182,0.6719 -0.406,1.0078 -0.6719,1.0078 L 5.72314,11.1646 v 0.8608 H 4.52637 v 1.1128 H 5.72314 V 14.041 H -11.2627 v -0.9028 h 1.1548 v -1.1128 h -1.1548 V 6.33545 h 1.1548 V 5.22266 h -1.1548 V 4.36182 H 5.72314 V 5.22266 H 4.52637 V 6.33545 H 5.72314 V 7.07031 L 12.001,5.74756 M -6.70654,12.0254 h -2.26758 v 1.1128 h 2.26758 v -1.1128 m 0,-6.80274 h -2.26758 v 1.11279 h 2.26758 V 5.22266 m 3.40136,6.80274 h -2.26757 v 1.1128 h 2.26757 v -1.1128 m 0,-6.80274 h -2.26757 v 1.11279 h 2.26757 V 5.22266 M 0.0541992,12.0254 H -2.19238 v 1.1128 h 2.2465792 v -1.1128 m 0,-6.80274 H -2.19238 V 6.33545 H 0.0541992 V 5.22266 M 3.45557,12.0254 H 1.125 v 1.1128 h 2.33057 v -1.1128 m 0,-6.80274 H 1.125 V 6.33545 H 3.45557 V 5.22266"
         fill-rule="evenodd"
         vector-effect="none" />
    </g>
    <g
       id="g16"
       font-style="normal"
       font-weight="400"
       font-size="7.8px"
       font-family="'MS Shell Dlg 2'"
       stroke="none"
       fill-opacity="1"
       fill="#53a54f" />
  </g>
</svg>
