<svg xmlns="http://www.w3.org/2000/svg" version="1.2" viewBox="0 0 42.52 42.52" height="56.693" width="56.693">
   <g stroke-linejoin="bevel" stroke-linecap="square" fill-rule="evenodd" stroke="none" fill="none" font-weight="400"
      font-size="7.8" font-family="'MS Shell Dlg 2'">
      <path
         d="M42.52 21.26C42.52 33 33 42.52 21.26 42.52 9.518 42.52 0 33 0 21.26 0 9.518 9.518 0 21.26 0 33 0 42.52 9.518 42.52 21.26"
         vector-effect="non-scaling-stroke" fill="#53a54f" />
      <path
         d="M14.217 21.023a4.909 4.909 0 01-3.412-1.375 4.738 4.738 0 01-1.438-3.454c0-.686.13-1.323.389-1.91a5.293 5.293 0 011.05-1.565 4.85 4.85 0 011.543-1.07 4.585 4.585 0 011.868-.389c1.176 0 2.208.378 3.097 1.134.89.756 1.467 1.68 1.732 2.771.224-1.091.774-2.015 1.649-2.771.874-.756 1.914-1.134 3.118-1.134.657 0 1.28.13 1.868.389a5.04 5.04 0 012.604 2.635c.252.587.378 1.224.378 1.91 0 .7-.126 1.344-.378 1.932a4.557 4.557 0 01-1.05 1.522 5.038 5.038 0 01-1.554 1.008 4.81 4.81 0 01-1.868.367c-1.204 0-2.244-.36-3.118-1.081-.875-.72-1.425-1.62-1.649-2.698a4.956 4.956 0 01-1.71 2.698c-.876.72-1.915 1.081-3.119 1.081m19.61 2.583c.267 0 .49.329.673.987.182.657.273 1.455.273 2.393 0 .924-.091 1.722-.273 2.394-.182.672-.406 1.008-.672 1.008l-6.278-1.365v.86h-1.197v1.113h1.197v.903H10.564v-.903h1.155v-1.112h-1.155v-5.69h1.155V23.08h-1.155v-.86H27.55v.86h-1.197v1.113h1.197v.735l6.278-1.323M15.12 29.884h-2.267v1.112h2.267v-1.112m0-6.803h-2.267v1.113h2.267V23.08m3.402 6.803h-2.268v1.112h2.268v-1.112m0-6.803h-2.268v1.113h2.268V23.08m3.359 6.803h-2.247v1.112h2.247v-1.112m0-6.803h-2.247v1.113h2.247V23.08m3.401 6.803h-2.33v1.112h2.33v-1.112m0-6.803h-2.33v1.113h2.33V23.08"
         fill-opacity=".949" fill="#fff" />
   </g>
</svg>