<svg xmlns="http://www.w3.org/2000/svg" version="1.2" viewBox="0 0 42.52 42.52" height="56.693" width="56.693">
   <g stroke-linejoin="bevel" stroke-linecap="square" fill-rule="evenodd" stroke="none" fill="none" font-weight="400"
      font-size="7.8" font-family="'MS Shell Dlg 2'">
      <path
         d="M42.52 21.26C42.52 33 33 42.52 21.26 42.52 9.518 42.52 0 33 0 21.26 0 9.518 9.518 0 21.26 0 33 0 42.52 9.518 42.52 21.26"
         vector-effect="non-scaling-stroke" fill="#53a54f" />
      <path
         d="M32.526 17.706c0 .574-.165.976-.493 1.207-.33.231-.648.347-.956.347-.322 0-.605-.102-.85-.305a1.286 1.286 0 01-.452-.808c0-.154.021-.301.063-.441.042-.14.14-.28.294-.42.224-.238.494-.304.809-.2.315.105.472.312.472.62 0 .168-.101.266-.304.294-.203.028-.305-.042-.305-.21-.084-.056-.16-.05-.23.02s-.106.183-.106.337c0 .14.08.245.242.315.16.07.283.105.367.105.084 0 .235-.056.452-.168.217-.112.325-.343.325-.693 0-.406-.143-.714-.43-.924a1.58 1.58 0 00-.956-.315h-17.93c-.35 0-.669.105-.956.315-.287.21-.43.518-.43.924 0 .35.108.58.325.693.217.112.368.168.452.168a.85.85 0 00.42-.105.34.34 0 00.189-.315c.056-.154.056-.266 0-.336s-.112-.105-.168-.105c0 .168-.13.252-.389.252s-.388-.084-.388-.252c0-.308.157-.515.472-.62.315-.104.585-.038.809.2.154.14.252.28.294.42.042.14.063.287.063.44a1.286 1.286 0 01-.452.81 1.294 1.294 0 01-.85.304c-.308 0-.627-.116-.956-.347-.328-.23-.493-.633-.493-1.207 0-.63.214-1.11.64-1.438.427-.33.9-.494 1.418-.494h17.93c.518 0 .99.165 1.418.494.427.329.64.808.64 1.438M10.396 31.73H32.61v1.533H10.396v-1.533m18.876-11.779h2.393v11.254h-2.393V19.952m-17.763 0h2.414v11.254H11.51V19.952m4.346 9.323h11.296v1.239H15.855v-1.24m18.057-14.97v1.89L21.44 12.247 9.094 16.194v-1.89l12.346-4.073 12.472 4.074m-9.344 13.08v-5.984l-3.044 5.291-3.086-5.29v5.983h-1.911v-9.511h2.247l2.75 4.745 2.792-4.745h2.163v9.511h-1.91"
         fill-opacity=".949" fill="#fff" />
   </g>
</svg>