<?xml version="1.0" encoding="UTF-8" standalone="no"?>
<svg
   xmlns:dc="http://purl.org/dc/elements/1.1/"
   xmlns:cc="http://creativecommons.org/ns#"
   xmlns:rdf="http://www.w3.org/1999/02/22-rdf-syntax-ns#"
   xmlns:svg="http://www.w3.org/2000/svg"
   xmlns="http://www.w3.org/2000/svg"
   xmlns:sodipodi="http://sodipodi.sourceforge.net/DTD/sodipodi-0.dtd"
   xmlns:inkscape="http://www.inkscape.org/namespaces/inkscape"
   inkscape:version="1.0 (4035a4fb49, 2020-05-01)"
   sodipodi:docname="1603.svg"
   id="svg20"
   version="1.2"
   viewBox="0 0 42.519639 42.519639"
   height="14.999999mm"
   width="14.999999mm">
  <metadata
     id="metadata24">
    <rdf:RDF>
      <cc:Work
         rdf:about="">
        <dc:format>image/svg+xml</dc:format>
        <dc:type
           rdf:resource="http://purl.org/dc/dcmitype/StillImage" />
        <dc:title>Qt SVG Document</dc:title>
      </cc:Work>
    </rdf:RDF>
  </metadata>
  <sodipodi:namedview
     inkscape:current-layer="svg20"
     inkscape:window-maximized="0"
     inkscape:window-y="0"
     inkscape:window-x="0"
     inkscape:cy="28.346482"
     inkscape:cx="28.346482"
     inkscape:zoom="5.8410537"
     showgrid="false"
     id="namedview22"
     inkscape:window-height="480"
     inkscape:window-width="1034"
     inkscape:pageshadow="2"
     inkscape:pageopacity="0"
     guidetolerance="10"
     gridtolerance="10"
     objecttolerance="10"
     borderopacity="1"
     bordercolor="#666666"
     pagecolor="#ffffff" />
  <title
     id="title2">Qt SVG Document</title>
  <desc
     id="desc4">Generated with Qt</desc>
  <defs
     id="defs6" />
  <g
     transform="translate(5.25984,5.25984)"
     id="g18"
     stroke-linejoin="bevel"
     stroke-linecap="square"
     fill-rule="evenodd"
     stroke-width="1"
     stroke="#000000"
     fill="none">
    <g
       id="g10"
       font-style="normal"
       font-weight="400"
       font-size="7.8px"
       font-family="'MS Shell Dlg 2'"
       stroke="none"
       fill-opacity="1"
       fill="#53a54f">
      <path
         id="path8"
         d="M 37.2598,16 C 37.2598,27.7415 27.7415,37.2598 16,37.2598 4.25851,37.2598 -5.25984,27.7415 -5.25984,16 -5.25984,4.25851 4.25851,-5.25984 16,-5.25984 27.7415,-5.25984 37.2598,4.25851 37.2598,16"
         fill-rule="evenodd"
         vector-effect="non-scaling-stroke" />
    </g>
    <g
       id="g14"
       font-style="normal"
       font-weight="400"
       font-size="7.8px"
       font-family="'MS Shell Dlg 2'"
       transform="translate(16,12.5984)"
       stroke="none"
       fill-opacity="0.94902"
       fill="#ffffff">
      <path
         id="path12"
         d="m 11.2661,-0.152344 c 0,0.573893 -0.1645,0.976319 -0.4934,1.207274 C 10.4438,1.28589 10.1253,1.40137 9.81738,1.40137 9.49544,1.40137 9.212,1.29989 8.96704,1.09692 8.72209,0.893962 8.57161,0.624512 8.51563,0.288574 c 0,-0.153971 0.02099,-0.3009438 0.06298,-0.440918 0.042,-0.139974 0.13998,-0.279948 0.29395,-0.419922 0.22396,-0.237955 0.49341,-0.304443 0.80835,-0.199463 0.31494,0.104981 0.47239,0.311443 0.47239,0.619385 0,0.167969 -0.1015,0.265951 -0.30442,0.293946 C 9.64591,0.169596 9.54443,0.0996094 9.54443,-0.0683594 9.46045,-0.124349 9.38346,-0.11735 9.31348,-0.0473633 9.24349,0.0226237 9.2085,0.134603 9.2085,0.288574 c 0,0.139974 0.08048,0.244955 0.24145,0.314942 0.16097,0.069987 0.28345,0.10498 0.36743,0.10498 0.08399,0 0.23442,-0.055989 0.45142,-0.167969 0.217,-0.111979 0.3254,-0.342936 0.3254,-0.692871 0,-0.405924 -0.1434,-0.713867 -0.4304,-0.923826 C 9.87687,-1.28613 9.55843,-1.39111 9.2085,-1.39111 H -8.72217 c -0.34993,0 -0.66837,0.10498 -0.95532,0.31494 -0.28695,0.209959 -0.43041,0.517902 -0.43041,0.923826 0,0.349935 0.10847,0.580892 0.32543,0.692871 0.21696,0.11198 0.36743,0.167969 0.45142,0.167969 0.15397,0 0.29394,-0.034993 0.41992,-0.10498 0.12597,-0.069987 0.18896,-0.174968 0.18896,-0.314942 0.05599,-0.153971 0.05599,-0.2659503 0,-0.3359373 -0.05599,-0.0699867 -0.11198,-0.1049807 -0.16797,-0.1049807 0,0.167969 -0.12947,0.2519534 -0.38842,0.2519534 -0.25896,0 -0.38843,-0.0839844 -0.38843,-0.2519534 0,-0.307942 0.15747,-0.514404 0.47241,-0.619385 0.31494,-0.10498 0.58439,-0.038492 0.80835,0.199463 0.15397,0.139974 0.25195,0.279948 0.29394,0.419922 0.042,0.1399742 0.06299,0.286947 0.06299,0.440918 -0.05599,0.335938 -0.20646,0.605388 -0.45141,0.808346 -0.24496,0.20297 -0.5284,0.30445 -0.85034,0.30445 -0.30795,0 -0.62639,-0.11548 -0.95535,-0.34644 -0.3289,-0.230955 -0.4934,-0.633381 -0.4934,-1.207274 0,-0.629883 0.2135,-1.109296 0.6404,-1.438236 0.42692,-0.32893 0.89933,-0.4934 1.41723,-0.4934 H 9.2085 c 0.5179,0 0.9903,0.16447 1.4172,0.4934 0.427,0.32894 0.6404,0.808353 0.6404,1.438236 M -10.8638,13.873 h 22.2139 v 1.5328 H -10.8638 V 13.873 M 8.01172,2.09424 H 10.4053 V 13.3481 H 8.01172 V 2.09424 m -17.7627,0 h 2.41455 V 13.3481 H -9.75098 V 2.09424 m 4.34619,9.32226 h 11.2959 v 1.2388 H -5.40479 V 11.4165 M 12.6519,-3.55371 v 1.88965 L 0.180176,-5.61133 -12.1655,-1.66406 V -3.55371 L 0.180176,-7.62695 12.6519,-3.55371 M 3.30859,9.52686 V 3.54297 L 0.26416,8.83398 -2.82227,3.54297 V 9.52686 H -4.73291 V 0.015625 h 2.24658 L 0.26416,4.76074 3.05664,0.015625 h 2.1626 V 9.52686 H 3.30859"
         fill-rule="evenodd"
         vector-effect="none" />
    </g>
    <g
       id="g16"
       font-style="normal"
       font-weight="400"
       font-size="7.8px"
       font-family="'MS Shell Dlg 2'"
       stroke="none"
       fill-opacity="1"
       fill="#53a54f" />
  </g>
</svg>
