<?xml version="1.0" encoding="UTF-8" standalone="no"?>
<svg width="11.25008mm" height="11.25008mm"
 viewBox="-5.3 -5.3 42.52000 42.52000"
 xmlns="http://www.w3.org/2000/svg" xmlns:xlink="http://www.w3.org/1999/xlink"  version="1.2" baseProfile="tiny">
<title>Qt SVG Document</title>
<desc>Generated with Qt</desc>
<defs>
</defs>
<g fill="none" stroke="black" stroke-width="1" fill-rule="evenodd" stroke-linecap="square" stroke-linejoin="bevel" >

<g fill="#53a54f" fill-opacity="1" stroke="none" transform="matrix(1,0,0,1,0,0)"
font-family="MS Shell Dlg 2" font-size="7.8" font-weight="400" font-style="normal" 
>
<path vector-effect="non-scaling-stroke" fill-rule="evenodd" d="M37.2598,16 C37.2598,27.7415 27.7415,37.2598 16,37.2598 C4.25851,37.2598 -5.25984,27.7415 -5.25984,16 C-5.25984,4.25851 4.25851,-5.25984 16,-5.25984 C27.7415,-5.25984 37.2598,4.25851 37.2598,16 "/>
</g>

<g fill="#ffffff" fill-opacity="0.94902" stroke="none" transform="matrix(1,0,0,1,16,11.4646)"
font-family="MS Shell Dlg 2" font-size="7.8" font-weight="400" font-style="normal" 
>
<path vector-effect="none" fill-rule="evenodd" d="M12.4839,12.9282 L12.4839,15.4478 L-11.9976,15.4478 L-11.9976,12.9282 L-9.20508,12.9282 L-9.20508,-0.677246 L-11.3887,-0.677246 L0.26416,-7.375 L11.959,-0.677246 L9.77539,-0.677246 L9.77539,12.9282 L12.4839,12.9282 M2.51074,-0.929199 C1.90885,-0.929199 1.49943,-0.71224 1.28247,-0.27832 C1.06551,0.155599 0.957031,0.701497 0.957031,1.35938 C0.957031,1.93327 1.1075,2.44067 1.40845,2.88159 C1.70939,3.32251 2.07682,3.51497 2.51074,3.45898 C2.95866,3.45898 3.33309,3.23853 3.63403,2.79761 C3.93498,2.35669 4.05745,1.84928 4.00146,1.27539 C4.00146,0.617513 3.85099,0.085612 3.55005,-0.320313 C3.2491,-0.726237 2.90267,-0.929199 2.51074,-0.929199 M-3.43115,0.918457 C-3.51514,1.54834 -3.44165,2.08724 -3.21069,2.53516 C-2.97974,2.98307 -2.6403,3.23503 -2.19238,3.29102 C-1.70247,3.375 -1.25806,3.21753 -0.859131,2.8186 C-0.460205,2.41968 -0.211751,1.93327 -0.11377,1.35938 C0.0262044,0.701497 -0.00528971,0.155599 -0.208252,-0.27832 C-0.411214,-0.71224 -0.813639,-0.957194 -1.41553,-1.01318 C-1.90544,-1.09717 -2.34285,-0.946696 -2.72778,-0.561768 C-3.11271,-0.176839 -3.34717,0.316569 -3.43115,0.918457 M-6.13965,4.88672 C-5.99967,5.48861 -5.73022,5.97502 -5.3313,6.34595 C-4.93237,6.71688 -4.52995,6.86035 -4.12402,6.77637 C-3.63411,6.72038 -3.27368,6.45443 -3.04272,5.97852 C-2.81177,5.5026 -2.73828,4.9777 -2.82227,4.40381 C-2.97624,3.82992 -3.21069,3.3505 -3.52563,2.96558 C-3.84058,2.58065 -4.29899,2.43018 -4.90088,2.51416 C-5.3488,2.59814 -5.68823,2.87809 -5.91919,3.354 C-6.15015,3.82992 -6.22363,4.34082 -6.13965,4.88672 M2.32178,12.1514 C3.24561,12.0954 3.93498,11.7804 4.38989,11.2065 C4.84481,10.6326 5.03027,9.97477 4.94629,9.23291 C4.8903,8.68701 4.73283,8.27759 4.47388,8.00464 C4.21493,7.73169 3.92798,7.52173 3.61304,7.37476 C3.2981,7.22778 3.01115,7.1263 2.7522,7.07031 C2.49325,7.01432 2.34977,6.94434 2.32178,6.86035 C2.15381,5.71257 1.89836,4.88672 1.55542,4.38281 C1.21248,3.87891 0.754069,3.65495 0.180176,3.71094 C-0.365723,3.71094 -0.838135,4.03638 -1.23706,4.68726 C-1.63599,5.33813 -1.83545,6.09049 -1.83545,6.94434 C-1.83545,7.1123 -1.98592,7.21729 -2.28687,7.25928 C-2.58781,7.30127 -2.92025,7.38175 -3.28418,7.50073 C-3.64811,7.61971 -3.99455,7.84367 -4.32349,8.17261 C-4.65243,8.50155 -4.84489,9.03695 -4.90088,9.77881 C-4.95687,10.5487 -4.73991,11.1646 -4.25,11.6265 C-3.76009,12.0884 -3.07422,12.3193 -2.19238,12.3193 C-1.78646,12.3193 -1.37703,12.2843 -0.964111,12.2144 C-0.551188,12.1444 -0.11377,12.0814 0.348145,12.0254 C0.544108,11.9974 0.708577,11.9834 0.841553,11.9834 C0.974528,11.9834 1.104,11.9974 1.22998,12.0254 C1.35596,12.0534 1.49943,12.0814 1.6604,12.1094 C1.82137,12.1374 2.04183,12.1514 2.32178,12.1514 M6.54199,5.13867 C6.70996,4.56478 6.68896,4.03988 6.479,3.56396 C6.26904,3.08805 5.9471,2.8221 5.51318,2.76611 C4.93929,2.62614 4.48088,2.74162 4.13794,3.11255 C3.795,3.48348 3.55355,3.96989 3.41357,4.57178 C3.23161,5.14567 3.2491,5.66357 3.46606,6.12549 C3.68302,6.5874 4.00846,6.86035 4.44238,6.94434 C4.83431,7.00033 5.24723,6.86385 5.68115,6.53491 C6.11507,6.20597 6.40202,5.74056 6.54199,5.13867 "/>
</g>

<g fill="#53a54f" fill-opacity="1" stroke="none" transform="matrix(1,0,0,1,0,0)"
font-family="MS Shell Dlg 2" font-size="7.8" font-weight="400" font-style="normal" 
>
</g>
</g>
</svg>
