<svg xmlns="http://www.w3.org/2000/svg" version="1.2" viewBox="0 0 42.52 42.52" height="56.693" width="56.693">
   <g stroke-linejoin="bevel" stroke-linecap="square" fill-rule="evenodd" stroke="none" fill="none" font-weight="400"
      font-size="7.8" font-family="'MS Shell Dlg 2'">
      <path
         d="M42.52 21.26C42.52 33 33 42.52 21.26 42.52 9.518 42.52 0 33 0 21.26 0 9.518 9.518 0 21.26 0 33 0 42.52 9.518 42.52 21.26"
         vector-effect="non-scaling-stroke" fill="#53a54f" />
      <path
         d="M33.744 29.653v2.52H9.262v-2.52h2.793V16.047H9.87L21.524 9.35l11.695 6.698h-2.184v13.606h2.709M23.77 15.795c-.602 0-1.012.217-1.229.651-.217.434-.325.98-.325 1.638 0 .574.15 1.081.451 1.522.301.44.669.633 1.103.577.448 0 .822-.22 1.123-.66.3-.442.423-.95.367-1.523 0-.658-.15-1.19-.451-1.596-.301-.406-.647-.609-1.04-.609m-5.941 1.848c-.084.63-.01 1.169.22 1.617.231.448.57.7 1.018.755.49.084.935-.073 1.334-.472a2.64 2.64 0 00.745-1.46c.14-.657.109-1.203-.094-1.637-.203-.434-.606-.679-1.208-.735-.49-.084-.927.067-1.312.452s-.62.878-.703 1.48M15.12 21.61c.14.602.41 1.088.809 1.46.398.37.8.514 1.207.43.49-.056.85-.322 1.081-.798.231-.476.305-1 .22-1.575-.153-.574-.388-1.053-.703-1.438-.315-.385-.773-.535-1.375-.451-.448.084-.787.364-1.018.84a2.545 2.545 0 00-.22 1.532m8.46 7.265c.924-.056 1.614-.371 2.069-.945a2.59 2.59 0 00.556-1.974c-.056-.546-.213-.955-.472-1.228a2.839 2.839 0 00-.861-.63 4.134 4.134 0 00-.861-.304c-.259-.056-.402-.126-.43-.21-.168-1.148-.424-1.974-.767-2.478-.343-.504-.801-.728-1.375-.672-.546 0-1.018.326-1.417.977-.4.65-.599 1.403-.599 2.257 0 .168-.15.273-.451.315a5.84 5.84 0 00-.997.241c-.364.12-.71.343-1.04.672-.329.329-.521.864-.577 1.606-.056.77.16 1.386.65 1.848.49.462 1.177.693 2.058.693.406 0 .816-.035 1.229-.105.413-.07.85-.133 1.312-.19.196-.027.36-.041.493-.041s.263.014.389.042c.126.028.27.056.43.084.161.028.382.042.662.042m4.22-7.013c.168-.574.147-1.099-.063-1.575s-.532-.741-.966-.797c-.574-.14-1.032-.025-1.375.346-.343.37-.585.857-.725 1.46-.182.573-.164 1.091.053 1.553.217.462.542.735.976.819.392.056.805-.08 1.239-.41.434-.329.72-.794.86-1.396"
         fill-opacity=".949" fill="#fff" />
   </g>
</svg>