<?xml version="1.0" encoding="UTF-8" standalone="no"?>
<svg
   xmlns:dc="http://purl.org/dc/elements/1.1/"
   xmlns:cc="http://creativecommons.org/ns#"
   xmlns:rdf="http://www.w3.org/1999/02/22-rdf-syntax-ns#"
   xmlns:svg="http://www.w3.org/2000/svg"
   xmlns="http://www.w3.org/2000/svg"
   xmlns:sodipodi="http://sodipodi.sourceforge.net/DTD/sodipodi-0.dtd"
   xmlns:inkscape="http://www.inkscape.org/namespaces/inkscape"
   inkscape:version="1.0 (4035a4fb49, 2020-05-01)"
   sodipodi:docname="1605.svg"
   id="svg20"
   version="1.2"
   viewBox="0 0 42.519639 42.519639"
   height="14.999999mm"
   width="14.999999mm">
  <metadata
     id="metadata24">
    <rdf:RDF>
      <cc:Work
         rdf:about="">
        <dc:format>image/svg+xml</dc:format>
        <dc:type
           rdf:resource="http://purl.org/dc/dcmitype/StillImage" />
        <dc:title>Qt SVG Document</dc:title>
      </cc:Work>
    </rdf:RDF>
  </metadata>
  <sodipodi:namedview
     inkscape:current-layer="svg20"
     inkscape:window-maximized="0"
     inkscape:window-y="0"
     inkscape:window-x="0"
     inkscape:cy="28.346482"
     inkscape:cx="28.346482"
     inkscape:zoom="5.8410537"
     showgrid="false"
     id="namedview22"
     inkscape:window-height="480"
     inkscape:window-width="1034"
     inkscape:pageshadow="2"
     inkscape:pageopacity="0"
     guidetolerance="10"
     gridtolerance="10"
     objecttolerance="10"
     borderopacity="1"
     bordercolor="#666666"
     pagecolor="#ffffff" />
  <title
     id="title2">Qt SVG Document</title>
  <desc
     id="desc4">Generated with Qt</desc>
  <defs
     id="defs6" />
  <g
     transform="translate(5.25984,5.25984)"
     id="g18"
     stroke-linejoin="bevel"
     stroke-linecap="square"
     fill-rule="evenodd"
     stroke-width="1"
     stroke="#000000"
     fill="none">
    <g
       id="g10"
       font-style="normal"
       font-weight="400"
       font-size="7.8px"
       font-family="'MS Shell Dlg 2'"
       stroke="none"
       fill-opacity="1"
       fill="#53a54f">
      <path
         id="path8"
         d="M 37.2598,16 C 37.2598,27.7415 27.7415,37.2598 16,37.2598 4.25851,37.2598 -5.25984,27.7415 -5.25984,16 -5.25984,4.25851 4.25851,-5.25984 16,-5.25984 27.7415,-5.25984 37.2598,4.25851 37.2598,16"
         fill-rule="evenodd"
         vector-effect="non-scaling-stroke" />
    </g>
    <g
       id="g14"
       font-style="normal"
       font-weight="400"
       font-size="7.8px"
       font-family="'MS Shell Dlg 2'"
       transform="translate(16,12.5984)"
       stroke="none"
       fill-opacity="1"
       fill="#ffffff">
      <path
         id="path12"
         d="m 8.78857,10.2617 c 0.76986,0.196 1.50473,0.4234 2.20463,0.6824 0.6998,0.2589 1.3927,0.5284 2.0786,0.8083 v 0.9869 c -2.0296,-0.308 -4.11176,-0.5494 -6.24636,-0.7244 -2.1346,-0.175 -4.36369,-0.2625 -6.687256,-0.2625 -2.323564,0 -4.580644,0.1085 -6.771244,0.3255 -2.19059,0.2169 -4.32174,0.4864 -6.39334,0.8083 v -1.0498 c 0.7419,-0.3079 1.4943,-0.5984 2.2571,-0.8713 0.7629,-0.273 1.55722,-0.5074 2.38307,-0.7034 V 7.51123 h -4.64017 l 3.0235,-4.09424 h -1.4698 l 0.042,-0.04199 0.084,-0.12598 c 0.028,-0.05599 0.056,-0.10498 0.084,-0.14697 0.028,-0.04199 0.07,-0.09098 0.126,-0.14697 l 0.3149,-0.44092 c 0.056,-0.08398 0.126,-0.18197 0.21,-0.29395 0.084,-0.11197 0.168,-0.24495 0.2519,-0.39892 l 0.65092,-0.944825 c 0.13997,-0.167969 0.28344,-0.360433 0.43042,-0.577393 0.14697,-0.2169594 0.30444,-0.437418 0.47241,-0.661377 h -1.19675 l 0.04196,-0.041992 c 0,0 0.014,-0.013997 0.04199,-0.041992 l 0.042,-0.083984 c 0,0 0.02799,-0.027995 0.08398,-0.083985 l 0.08399,-0.188965 c 0.02799,-0.027994 0.04899,-0.055989 0.06298,-0.083984 0.014,-0.027995 0.035,-0.05599 0.06299,-0.083984 l 0.16797,-0.251949 c 0.05599,-0.05599 0.09098,-0.09799 0.10498,-0.12598 0.014,-0.028 0.04899,-0.06999 0.10498,-0.12598 l 0.27295,-0.35693 C -8.82015,-2 -8.72217,-2.12598 -8.63818,-2.20996 l 0.33593,-0.48291 c 0.06999,-0.08399 0.13998,-0.16797 0.20996,-0.25195 0.06999,-0.08399 0.13298,-0.18197 0.18897,-0.29395 l 0.41992,-0.60889 h 0.04199 v 0.042 c 0.028,0.02799 0.042,0.04899 0.042,0.06298 0,0.014 0.02099,0.035 0.06298,0.06299 l 0.20997,0.25196 c 0.02799,0.06998 0.06298,0.13997 0.10498,0.20996 0.04199,0.06998 0.09098,0.14697 0.14697,0.23095 l 0.48291,0.60889 c 0.08398,0.13997 0.17497,0.27995 0.27295,0.41992 0.09798,0.13998 0.20296,0.28695 0.31494,0.44092 l 0.81885,1.154785 h -1.19678 c 0,0.027995 0.014,0.041992 0.04199,0.041992 l 0.04199,0.083985 c 0.028,0.027995 0.042,0.048991 0.042,0.062988 0,0.013998 0.01399,0.034994 0.04199,0.062988 l 0.16797,0.2099614 c 0.05599,0.0559896 0.09798,0.1154786 0.12597,0.1784666 0.028,0.062988 0.07699,0.122477 0.14698,0.178467 l 0.37793,0.503906 c 0.05599,0.083981 0.12597,0.178471 0.20996,0.283451 0.08398,0.10498 0.16797,0.21346 0.25195,0.32544 V 1.61133 H -4.7749 v 0.04199 l -0.04199,0.04199 c 0,0 -0.014,0.014 -0.042,0.04199 l -0.04199,0.08399 c 0,0 -0.014,0.02799 -0.04199,0.08398 l -0.08399,0.08399 c -0.02799,0.04199 -0.04199,0.06998 -0.04199,0.08398 0,0.014 -0.014,0.035 -0.04199,0.06299 L -5.23682,2.3042 C -5.29281,2.36019 -5.3348,2.41618 -5.36279,2.47217 L -5.48877,2.64014 C -5.54476,2.75212 -5.60775,2.8361 -5.67773,2.89209 h 1.80566 c 0,0 -0.014,0.021 -0.04199,0.06299 L -4.04004,3.12305 C -4.09603,3.17904 -4.13802,3.23503 -4.16602,3.29102 -4.19401,3.34701 -4.236,3.40299 -4.29199,3.45898 l -0.37793,0.5669 C -4.7679,4.13786 -4.85889,4.25684 -4.94287,4.38281 -5.02686,4.50879 -5.13883,4.66276 -5.27881,4.84473 l -0.81885,1.15478 c -0.13997,0.22396 -0.30444,0.45842 -0.4934,0.70337 -0.18897,0.24496 -0.39543,0.51441 -0.61939,0.80835 h 0.41992 V 9.90479 C -5.78271,9.68083 -4.7714,9.51986 -3.75659,9.42188 -2.74178,9.32389 -1.71647,9.23991 -0.680664,9.16992 V 7.1123 H -6.26563 l 3.52735,-4.76611 h -1.80567 l 3.17041,-4.43017 H -2.73828 L 0.138184,-6.17822 3.14063,-2.08398 H 1.69189 l 3.2544,4.43017 H 3.14063 L 6.66797,7.1123 H 0.999023 V 9.16992 C 2.09082,9.23991 3.14412,9.31689 4.15894,9.40088 5.17375,9.48486 6.15706,9.62484 7.10889,9.8208 V 7.51123 H 7.61279 7.5708 L 7.52881,7.42725 c 0,-0.042 -0.04199,-0.10498 -0.12598,-0.18897 L 7.19287,6.94434 C 7.13688,6.86035 7.07039,6.77637 6.99341,6.69238 6.91642,6.6084 6.84993,6.50342 6.79395,6.37744 L 6.20605,5.55859 C 6.05208,5.39063 5.91211,5.21566 5.78613,5.03369 5.66016,4.85173 5.52718,4.64176 5.38721,4.40381 L 4.27441,2.89209 H 6.08008 L 5.30322,1.86328 V 1.82129 h 0.04199 c 0,-0.028 0.042,-0.08399 0.12598,-0.16797 0,-0.02799 0.007,-0.04899 0.021,-0.06299 C 5.50618,1.57633 5.51318,1.55534 5.51318,1.52734 5.56917,1.47135 5.61816,1.40837 5.66016,1.33838 5.70215,1.26839 5.75114,1.18441 5.80713,1.08643 5.83512,1.03044 5.86312,0.995443 5.89111,0.981445 5.91911,0.967448 5.9471,0.932454 5.9751,0.876465 6.10107,0.680501 6.30404,0.393555 6.58398,0.015625 H 5.47119 L 7.82275,-3.28076 h 0.06299 c 0,0 0.014,0.02799 0.04199,0.08398 0,0 0.014,0.028 0.042,0.08399 0.02799,0.02799 0.12597,0.15397 0.29394,0.37793 0.05599,0.11198 0.11198,0.19596 0.16797,0.25195 0.08399,0.12598 0.17847,0.26595 0.28345,0.41992 0.10498,0.15397 0.22746,0.33594 0.36743,0.5459 0.05599,0.05599 0.10498,0.12598 0.14697,0.20996 0.04199,0.08399 0.09099,0.15397 0.14697,0.20996 0.13998,0.167971 0.26945,0.339439 0.38843,0.514406 0.11898,0.174968 0.24841,0.374431 0.38841,0.598389 H 9.04053 L 9.08252,0.0576172 9.12451,0.141602 c 0.028,0 0.04199,0.013997 0.04199,0.041992 l 0.08399,0.146972 0.12597,0.125977 0.12598,0.209961 c 0.028,0.055989 0.09098,0.125976 0.18897,0.209961 L 9.90137,1.19141 C 9.92936,1.2474 9.95736,1.30339 9.98535,1.35938 10.0133,1.41536 10.0553,1.47135 10.1113,1.52734 l 0.294,0.41993 c 0.056,0.06998 0.1155,0.14697 0.1784,0.23095 0.063,0.08399 0.1225,0.16797 0.1785,0.25196 l 0.3779,0.56689 c 0.084,0.11198 0.1645,0.21696 0.2415,0.31494 0.077,0.09798 0.1575,0.20296 0.2414,0.31494 h -1.3857 0.042 v 0.042 l 0.042,0.04199 c 0.028,0.02799 0.042,0.04899 0.042,0.06299 0,0.01399 0.014,0.04199 0.042,0.08398 l 0.084,0.08398 c 0,0.05599 0.035,0.11198 0.1049,0.16797 l 0.168,0.20996 c 0.028,0.05599 0.056,0.09799 0.084,0.12598 0.028,0.028 0.056,0.06999 0.084,0.12598 l 0.2519,0.31494 c 0.028,0.05599 0.063,0.11898 0.105,0.18896 0.042,0.06999 0.098,0.13298 0.168,0.18897 l 0.2939,0.44092 0.378,0.5039 0.4409,0.60889 c 0.084,0.11198 0.1679,0.21696 0.2519,0.31494 0.084,0.09798 0.168,0.22396 0.252,0.37793 H 8.78857 v 2.75047"
         fill-rule="evenodd"
         vector-effect="none" />
    </g>
    <g
       id="g16"
       font-style="normal"
       font-weight="400"
       font-size="7.8px"
       font-family="'MS Shell Dlg 2'"
       stroke="none"
       fill-opacity="1"
       fill="#53a54f" />
  </g>
</svg>
