<svg xmlns="http://www.w3.org/2000/svg" version="1.2" viewBox="0 0 42.52 42.52" height="56.693" width="56.693">
   <g stroke-linejoin="bevel" stroke-linecap="square" fill-rule="evenodd" stroke="none" fill="none" font-weight="400"
      font-size="7.8" font-family="'MS Shell Dlg 2'">
      <path
         d="M42.52 21.26C42.52 33 33 42.52 21.26 42.52 9.518 42.52 0 33 0 21.26 0 9.518 9.518 0 21.26 0 33 0 42.52 9.518 42.52 21.26"
         vector-effect="non-scaling-stroke" fill="#53a54f" />
      <path
         d="M30.048 28.12c.77.196 1.505.423 2.205.682.7.26 1.393.529 2.079.809v.987a91.415 91.415 0 00-6.247-.725 81.905 81.905 0 00-6.687-.262c-2.324 0-4.58.108-6.771.325-2.19.217-4.322.487-6.394.808v-1.05a48.571 48.571 0 012.258-.87 22.463 22.463 0 012.383-.704v-2.75h-4.64l3.023-4.095h-1.47l.042-.042.084-.126a1.018 1.018 0 01.21-.294l.315-.44c.056-.085.126-.183.21-.295a3.29 3.29 0 00.252-.398l.65-.945c.14-.168.284-.36.431-.578.147-.217.305-.437.473-.661h-1.197l.042-.042.042-.042.042-.084.084-.084.084-.189a.329.329 0 00.063-.084.33.33 0 01.063-.084l.168-.252a.598.598 0 00.105-.126.597.597 0 01.105-.126l.273-.357c.112-.168.21-.294.294-.378l.336-.483.21-.252c.07-.084.133-.182.189-.294l.42-.608h.041v.042c.028.028.042.049.042.063 0 .014.021.035.063.063l.21.252c.028.07.063.14.105.21a5.8 5.8 0 00.147.23l.483.61c.084.14.175.28.273.42.098.14.203.286.315.44l.819 1.155h-1.197c0 .028.014.042.042.042l.042.084c.028.028.042.049.042.063 0 .014.014.035.042.063l.168.21a.595.595 0 01.126.178.488.488 0 00.147.179l.378.504c.056.084.126.178.21.283.084.105.168.214.252.326v.042h-.042v.042l-.042.042-.042.042-.042.084-.042.084-.084.084c-.028.041-.042.07-.042.083 0 .014-.014.035-.042.063l-.126.168a.658.658 0 00-.126.168l-.126.168a.741.741 0 01-.189.252h1.806l-.042.063-.126.168a.658.658 0 00-.126.168.658.658 0 01-.126.168l-.378.567a3.434 3.434 0 00-.273.357c-.084.126-.196.28-.336.462l-.819 1.155c-.14.224-.304.458-.493.703-.19.245-.396.515-.62.808h.42v2.394a25.088 25.088 0 013.034-.483 107.19 107.19 0 013.076-.252v-2.057h-5.585l3.528-4.767h-1.806l3.17-4.43h-1.364l2.876-4.094 3.002 4.094h-1.448l3.254 4.43H24.4l3.528 4.767h-5.67v2.057c1.093.07 2.146.147 3.16.231 1.016.084 1.999.224 2.95.42v-2.31h.505-.042l-.042-.084c0-.042-.042-.104-.126-.188l-.21-.294a2.093 2.093 0 00-.2-.252 1.157 1.157 0 01-.2-.315l-.587-.82a4.926 4.926 0 01-.42-.524 10.193 10.193 0 01-.399-.63l-1.113-1.512h1.806l-.777-1.028v-.042h.042c0-.028.042-.084.126-.168 0-.028.007-.05.021-.063.014-.014.021-.035.021-.063a.976.976 0 00.147-.19c.042-.07.091-.153.147-.251.028-.056.056-.091.084-.105.028-.014.056-.05.084-.105.126-.196.329-.483.609-.861H26.73l2.352-3.297h.063a492.81 492.81 0 00.084.168c.028.028.126.154.294.378a.977.977 0 00.167.252l.284.42c.105.154.227.336.367.546a.8.8 0 01.147.21.8.8 0 00.147.21c.14.168.27.34.389.514.119.175.248.375.388.599H30.3l.042.042.042.084c.028 0 .042.014.042.042l.084.147.126.126.126.21a.78.78 0 00.19.21l.21.315.083.168c.028.056.07.112.126.168l.294.42c.056.07.116.146.179.23.063.084.122.168.178.252l.378.567c.084.112.164.217.241.315.077.098.158.203.242.315h-1.386.042v.042l.042.042c.028.028.042.05.042.063 0 .014.014.042.042.084l.084.084c0 .056.035.112.105.168l.168.21a.488.488 0 00.084.126c.028.028.056.07.084.126l.252.315c.028.056.063.119.105.189a.71.71 0 00.168.189l.294.44.378.505.44.609c.085.112.169.217.253.315.084.098.168.223.252.377h-4.284v2.75"
         fill="#fff" />
   </g>
</svg>