<?xml version="1.0" encoding="UTF-8" standalone="no"?>
<svg
   xmlns:dc="http://purl.org/dc/elements/1.1/"
   xmlns:cc="http://creativecommons.org/ns#"
   xmlns:rdf="http://www.w3.org/1999/02/22-rdf-syntax-ns#"
   xmlns:svg="http://www.w3.org/2000/svg"
   xmlns="http://www.w3.org/2000/svg"
   xmlns:sodipodi="http://sodipodi.sourceforge.net/DTD/sodipodi-0.dtd"
   xmlns:inkscape="http://www.inkscape.org/namespaces/inkscape"
   inkscape:version="1.0 (4035a4fb49, 2020-05-01)"
   sodipodi:docname="1606.svg"
   id="svg20"
   version="1.2"
   viewBox="0 0 42.519639 42.519639"
   height="14.999999mm"
   width="14.999999mm">
  <metadata
     id="metadata24">
    <rdf:RDF>
      <cc:Work
         rdf:about="">
        <dc:format>image/svg+xml</dc:format>
        <dc:type
           rdf:resource="http://purl.org/dc/dcmitype/StillImage" />
        <dc:title>Qt SVG Document</dc:title>
      </cc:Work>
    </rdf:RDF>
  </metadata>
  <sodipodi:namedview
     inkscape:current-layer="svg20"
     inkscape:window-maximized="0"
     inkscape:window-y="0"
     inkscape:window-x="0"
     inkscape:cy="28.346482"
     inkscape:cx="28.346482"
     inkscape:zoom="5.8410537"
     showgrid="false"
     id="namedview22"
     inkscape:window-height="480"
     inkscape:window-width="1034"
     inkscape:pageshadow="2"
     inkscape:pageopacity="0"
     guidetolerance="10"
     gridtolerance="10"
     objecttolerance="10"
     borderopacity="1"
     bordercolor="#666666"
     pagecolor="#ffffff" />
  <title
     id="title2">Qt SVG Document</title>
  <desc
     id="desc4">Generated with Qt</desc>
  <defs
     id="defs6" />
  <g
     transform="translate(5.25984,5.25984)"
     id="g18"
     stroke-linejoin="bevel"
     stroke-linecap="square"
     fill-rule="evenodd"
     stroke-width="1"
     stroke="#000000"
     fill="none">
    <g
       id="g10"
       font-style="normal"
       font-weight="400"
       font-size="7.8px"
       font-family="'MS Shell Dlg 2'"
       stroke="none"
       fill-opacity="1"
       fill="#66b1e3">
      <path
         id="path8"
         d="M 37.2598,16 C 37.2598,27.7415 27.7415,37.2598 16,37.2598 4.25851,37.2598 -5.25984,27.7415 -5.25984,16 -5.25984,4.25851 4.25851,-5.25984 16,-5.25984 27.7415,-5.25984 37.2598,4.25851 37.2598,16"
         fill-rule="evenodd"
         vector-effect="non-scaling-stroke" />
    </g>
    <g
       id="g14"
       font-style="normal"
       font-weight="400"
       font-size="7.8px"
       font-family="'MS Shell Dlg 2'"
       transform="translate(16.5669,12.0315)"
       stroke="none"
       fill-opacity="0.94902"
       fill="#ffffff">
      <path
         id="path12"
         d="m -1.10059,-4.45654 c -0.06998,-0.13998 -0.07348,-0.27995 -0.01049,-0.41992 0.06298,-0.13998 0.164465,-0.24496 0.304439,-0.31495 0.139974,-0.05599 0.283448,-0.06298 0.43042,-0.02099 0.146973,0.04199 0.248454,0.13997 0.3044437,0.29394 L 0.516113,-3.32275 2.27979,-1.87402 0.306152,-2.16797 -0.260742,-2.65088 c -0.05599,0 -0.083985,-0.014 -0.083985,-0.04199 0,-0.028 -0.027994,-0.06999 -0.083984,-0.12598 L -1.10059,-4.45654 M 5.9751,-1.62207 C 5.77913,-1.76204 5.66715,-1.95451 5.63916,-2.19946 5.61117,-2.44442 5.66715,-2.66488 5.80713,-2.86084 5.9891,-3.0848 6.20605,-3.20378 6.45801,-3.21777 c 0.25195,-0.014 0.49691,0.04899 0.73486,0.18896 0.19596,0.13998 0.29395,0.34644 0.29395,0.61939 0,0.27295 -0.08399,0.5074 -0.25196,0.70337 C 7.09489,-1.55208 6.90243,-1.4611 6.65747,-1.43311 6.41252,-1.40511 6.18506,-1.4681 5.9751,-1.62207 m -7.18067,0.48291 C -1.83545,-1.62907 -2.32186,-2.0105 -2.66479,-2.28345 -3.00773,-2.5564 -3.25618,-2.76986 -3.41016,-2.92383 -3.56413,-3.0778 -3.64811,-3.19328 -3.66211,-3.27026 c -0.014,-0.07699 -0.007,-0.15747 0.021,-0.24146 0,-0.08398 0.03499,-0.15397 0.10498,-0.20996 0.06998,-0.05599 0.13297,-0.11198 0.18896,-0.16797 0.19597,-0.05599 0.38493,-0.014 0.5669,0.12598 0.02799,0 0.13297,0.07348 0.31494,0.22046 0.18196,0.14697 0.39542,0.31844 0.64038,0.5144 0.24495,0.19596 0.48991,0.38143 0.73486,0.5564 0.244957,0.17497 0.423423,0.30444 0.535402,0.38843 L 1.90186,-1.43311 C 2.12581,-1.4891 2.57723,-1.56958 3.2561,-1.67456 3.93498,-1.77954 4.61735,-1.88802 5.30322,-2 c 0.05599,0.34993 0.18197,0.58089 0.37793,0.69287 0.19597,0.22396 0.42692,0.335939 0.69287,0.335939 l 1.76368,0.566894 1.9736,-0.083984 c 0.252,0 0.378,0.097982 0.378,0.293945 0,0.083984 -0.021,0.1679688 -0.063,0.2519532 -0.042,0.0839848 -0.105,0.1259768 -0.189,0.1259768 h -0.084 L 8.05371,0.372559 5.80713,-0.404297 5.76514,-0.362305 H 5.68115 C 5.16325,-0.306315 4.52637,-0.285319 3.77051,-0.299316 3.01465,-0.313314 2.1748,-0.348307 1.25098,-0.404297 L -0.932617,-1.05518 c -0.05599,0 -0.097983,-0.01399 -0.125973,-0.04199 -0.028,-0.02799 -0.07699,-0.04199 -0.14698,-0.04199 M -2.44434,4.06787 C -2.85026,4.01188 -3.1897,3.83341 -3.46265,3.53247 -3.7356,3.23153 -3.85807,2.87809 -3.83008,2.47217 c 0.06999,-0.40593 0.25545,-0.74536 0.5564,-1.01831 0.30094,-0.27295 0.64738,-0.37443 1.0393,-0.30445 0.43392,0.05599 0.78036,0.23446 1.03931,0.5354 0.258953,0.30095 0.360435,0.64738 0.304445,1.03931 0,0.43392 -0.157475,0.78036 -0.472415,1.03931 -0.31494,0.25895 -0.67537,0.36043 -1.0813,0.30444 m -6.4038,-2.1206 c 0.11197,-0.16797 0.26945,-0.25896 0.47241,-0.27295 0.20296,-0.014 0.38843,0.04899 0.55639,0.18896 l 2.91846,2.66651 h 1.80567 L -0.932617,4.23584 0.957031,3.20703 3.14063,1.2334 C 3.2806,1.10742 3.45207,1.06193 3.65503,1.09692 3.85799,1.13192 4.02946,1.2334 4.16943,1.40137 4.29541,1.51335 4.3514,1.67082 4.3374,1.87378 4.3234,2.07674 4.23942,2.26221 4.08545,2.43018 L 1.81787,4.36182 -0.428711,5.55859 c -0.027995,0.06999 -0.069987,0.10498 -0.125977,0.10498 0.05599,0.5739 0.227458,1.01831 0.5144048,1.33326 C 0.246663,7.31177 0.733073,7.62321 1.41895,7.93115 L 4.00146,5.55859 C 4.05745,5.41862 4.21842,5.34863 4.48438,5.34863 L 8.34766,5.26465 c 0.5179,0 0.77685,0.25895 0.77685,0.77685 0,0.19597 -0.06649,0.36744 -0.19946,0.51441 C 8.79207,6.70288 8.6276,6.77637 8.43164,6.77637 L 4.82031,6.81836 3.45557,8.09912 4.8623,7.55322 C 4.97428,7.49723 5.13525,7.46924 5.34521,7.46924 l 4.3462,1.23877 c 0.44789,0.19596 0.62989,0.5109 0.54589,0.94482 -0.056,0.22396 -0.1785,0.38147 -0.36743,0.47237 -0.18896,0.091 -0.38143,0.1085 -0.57739,0.0525 L 5.21924,8.95996 4.3584,9.2749 C 4.30241,9.2749 4.25692,9.25741 4.22192,9.22241 4.18693,9.18742 4.14144,9.16992 4.08545,9.16992 3.2596,9.05794 2.27279,8.87948 1.125,8.63452 -0.0227865,8.38957 -1.24056,8.05713 -2.52832,7.63721 -2.66829,7.42725 -2.76978,7.18929 -2.83276,6.92334 -2.89575,6.65739 -2.95524,6.36344 -3.01123,6.0415 L -5.23682,5.95752 h -0.04199 c -0.08398,0 -0.16447,-0.014 -0.24145,-0.04199 -0.07699,-0.028 -0.14348,-0.05599 -0.19947,-0.08399 L -8.84814,2.95508 C -8.98812,2.8291 -9.05811,2.66813 -9.05811,2.47217 c 0,-0.19597 0.06999,-0.37093 0.20997,-0.5249 M 11.0981,13.999 c 0.084,0.084 0.1855,0.147 0.3045,0.189 0.119,0.042 0.2064,0.091 0.2624,0.147 v 1.1128 c -0.4059,0 -0.7978,-0.168 -1.1757,-0.504 -0.392,-0.2659 -0.7629,-0.3989 -1.11284,-0.3989 -0.13997,0 -0.31144,0.0385 -0.5144,0.1155 -0.20296,0.077 -0.37443,0.1715 -0.5144,0.2834 -0.82585,0.6019 -1.71468,0.7419 -2.66651,0.42 -0.13997,-0.056 -0.25895,-0.119 -0.35693,-0.189 -0.09798,-0.07 -0.22396,-0.147 -0.37793,-0.231 -0.13997,-0.0559 -0.27295,-0.1189 -0.39893,-0.1889 -0.12597,-0.07 -0.25195,-0.105 -0.37793,-0.105 -0.44791,-0.098 -0.88883,0 -1.32275,0.2939 -0.40592,0.308 -0.86784,0.497 -1.38574,0.5669 -0.33594,0.056 -0.675377,0.0385 -1.018313,-0.0524 -0.3429362,-0.091 -0.675374,-0.2625 -0.997315,-0.5145 -0.139973,-0.0559 -0.276448,-0.1189 -0.409423,-0.1889 -0.132979,-0.07 -0.269449,-0.105 -0.409429,-0.105 -0.22395,-0.07 -0.45141,-0.0665 -0.68237,0.0105 -0.23096,0.077 -0.44442,0.1715 -0.64038,0.2834 -0.23795,0.224 -0.49341,0.3745 -0.76636,0.4515 -0.27295,0.0769 -0.54939,0.1154 -0.82934,0.1154 -0.32194,0 -0.63338,-0.0385 -0.93433,-0.1154 -0.30094,-0.077 -0.59139,-0.2275 -0.87134,-0.4515 -0.74186,-0.5179 -1.44173,-0.5179 -2.09961,0 -0.29394,0.224 -0.59139,0.3745 -0.89233,0.4515 -0.30094,0.0769 -0.59139,0.1154 -0.87134,0.1154 H -11.5986 V -6.59814 h 1.63766 c 0.19597,0.05599 0.5319,0.20646 1.00781,0.45141 0.47592,0.24496 0.99732,0.51091 1.56421,0.79785 0.5669,0.28695 1.16179,0.5669 1.78467,0.83985 0.62289,0.27295 1.17228,0.47941 1.6482,0.61938 -0.11198,0.16797 -0.16797,0.32194 -0.16797,0.46192 -0.05599,0.09798 -0.08399,0.23095 -0.08399,0.39892 -0.27995,-0.05599 -0.67887,-0.19946 -1.19678,-0.43042 -0.5179,-0.23096 -1.0638,-0.47591 -1.63769,-0.73486 -0.57389,-0.25895 -1.12679,-0.51791 -1.65869,-0.77686 -0.5319,-0.25895 -0.95182,-0.45841 -1.25977,-0.59839 v 1.88965 c 0.19597,0.08399 0.41643,0.18547 0.66138,0.30445 0.24495,0.11897 0.5214,0.29044 0.82935,0.5144 0.23795,0.11198 0.4934,0.23446 0.76635,0.36743 0.27295,0.13298 0.5494,0.26945 0.82935,0.40943 0.05599,0 0.09798,0.02799 0.12597,0.08398 0.29395,0.11198 0.5774,0.20996 0.85035,0.29395 0.27295,0.08398 0.54939,0.18896 0.82934,0.31494 h 0.16797 c 0.60189,0.27994 1.17578,0.433916 1.72168,0.461911 v 0.083984 c 0.32194,0.05599 0.64038,0.115479 0.95532,0.178467 0.31494,0.062988 0.62639,0.122477 0.93433,0.178467 1.441731,0.279948 2.79248,0.4409177 4.05225,0.48290991 1.25976,0.04199219 2.27457,0.03499349 3.04443,-0.02099611 0.18197,0 0.31494,0.0524902 0.39892,0.1574712 0.08399,0.10498 0.16797,0.241455 0.25196,0.409423 V 0.58252 c 0.02799,0 0.05599,0.013997 0.08398,0.041992 v 0.041992 0.041992 c 0,0.027995 0.028,0.041992 0.08399,0.041992 0,0.111979 0.02799,0.167969 0.08398,0.167969 v 0.041992 c 0,0.027995 0.014,0.041991 0.04199,0.041991 l 0.08399,0.04199 h 0.08398 0.18897 c 0,0 0.01399,-0.01399 0.04199,-0.04199 h 0.04199 c 0.028,-0.055988 0.05599,-0.083983 0.08399,-0.083983 0.02799,0 0.04199,-0.027995 0.04199,-0.083984 H 7.40283 V 0.750488 c 0.028,0 0.05599,0.013998 0.08399,0.041992 0.02799,0.027995 0.05599,0.048991 0.08398,0.062989 0.028,0.013997 0.05599,0.034993 0.08399,0.062988 H 7.78076 C 7.64079,1.12842 7.42033,1.27539 7.11938,1.35938 6.81844,1.44336 6.38102,1.49935 5.80713,1.52734 c -0.13998,0 -0.30444,0 -0.49341,0 -0.18896,0 -0.35343,0.028 -0.49341,0.08399 C 4.76432,1.49935 4.72933,1.40137 4.71533,1.31738 4.70133,1.2334 4.65234,1.14242 4.56836,1.04443 4.45638,0.90446 4.30591,0.79248 4.11694,0.708496 3.92798,0.624512 3.76351,0.58252 3.62354,0.58252 3.48356,0.58252 3.34709,0.617513 3.21411,0.6875 3.08114,0.757487 2.95866,0.834473 2.84668,0.918457 L 2.02783,1.52734 C 1.59391,1.52734 1.1285,1.50635 0.631592,1.46436 0.134684,1.42236 -0.372721,1.37337 -0.890625,1.31738 -1.24056,0.883464 -1.66048,0.666504 -2.15039,0.666504 h -0.25195 c -0.13998,0 -0.27645,0.013997 -0.40943,0.041992 C -2.94474,0.736491 -3.09521,0.778483 -3.26318,0.834473 -4.271,0.638509 -5.27531,0.362061 -6.27612,0.00512695 -7.27694,-0.351807 -8.21826,-0.81722 -9.1001,-1.39111 -9.36605,-1.60107 -9.65299,-1.77604 -9.96094,-1.91602 v 7.0127 c 0.11198,0.05599 0.33944,0.16447 0.68238,0.32544 0.34293,0.16097 0.70686,0.32544 1.09179,0.49341 0.38493,0.16797 0.74886,0.33244 1.0918,0.49341 0.34294,0.16097 0.57739,0.25545 0.70337,0.28344 0.08398,0.08399 0.18196,0.12598 0.29394,0.12598 0.22396,0.08398 0.43742,0.16797 0.64038,0.25195 0.20297,0.08399 0.41643,0.15397 0.64039,0.20996 0.05599,0.05599 0.11547,0.08399 0.17846,0.08399 0.06299,0 0.13648,0.03499 0.22046,0.10498 0.19596,0.08398 0.40243,0.15397 0.61939,0.20996 0.21696,0.05599 0.42342,0.11198 0.61938,0.16797 1.38574,0.43392 2.670004,0.78735 3.852784,1.0603 1.182776,0.27295 2.194096,0.47941 3.033936,0.61939 0.19596,0 0.34993,0.15397 0.46191,0.46191 0.09799,0.15393 0.16797,0.32193 0.20996,0.50393 0.042,0.1819 0.10499,0.3639 0.18897,0.5459 v 0.126 h 0.04199 c 0,0 0.014,0.0279 0.04199,0.0839 l 0.042,0.042 c 0,0.028 0.00699,0.049 0.02099,0.063 0.014,0.014 0.021,0.035 0.021,0.063 h 0.08398 c 0.028,0 0.04199,0.014 0.04199,0.042 0,0.028 0.028,0.042 0.08399,0.042 0.05599,0 0.11548,0 0.17847,0 0.06298,0 0.12247,-0.028 0.17846,-0.084 h 0.04199 c 0.05599,-0.056 0.11198,-0.098 0.16797,-0.126 0.05599,-0.028 0.11198,-0.07 0.16797,-0.1259 0.05599,-0.028 0.17147,-0.1505 0.34644,-0.3675 0.17497,-0.2169 0.31844,-0.5144 0.43042,-0.89231 L 7.10889,10.1777 C 6.89893,10.8356 6.55249,11.329 6.06958,11.658 5.58667,11.9869 5.05827,12.1234 4.48438,12.0674 4.40039,12.0394 3.91398,11.9519 3.02515,11.8049 2.13631,11.658 1.00952,11.42 -0.355225,11.0911 -1.71997,10.7621 -3.24919,10.3317 -4.94287,9.7998 -6.63656,9.2679 -8.30924,8.61702 -9.96094,7.84717 v 6.57173 c 0.39193,0 0.76286,-0.1399 1.1128,-0.4199 0.5179,-0.3499 1.0708,-0.5249 1.65869,-0.5249 0.58789,0 1.14078,0.175 1.65869,0.5249 0.41992,0.28 0.83284,0.4199 1.23877,0.4199 V 14.335 h 0.16797 c 0.13997,0 0.27645,-0.035 0.40942,-0.105 0.13298,-0.07 0.25545,-0.147 0.36743,-0.231 0.27995,-0.1959 0.5564,-0.3324 0.82935,-0.4094 0.27295,-0.077 0.55639,-0.1155 0.85034,-0.1155 0.713867,0 1.28776,0.175 1.7216792,0.5249 0.1399738,0.084 0.2589518,0.161 0.3569338,0.231 0.097982,0.07 0.223958,0.105 0.37793,0.105 0.503907,0.0839 0.944827,-0.028 1.322757,-0.336 0.29394,-0.1959 0.59139,-0.3324 0.89233,-0.4094 0.30094,-0.077 0.60539,-0.1155 0.91333,-0.1155 0.29395,0 0.57739,0.0385 0.85034,0.1155 0.27295,0.077 0.5494,0.2135 0.82935,0.4094 0.68587,0.4899 1.41373,0.4899 2.18359,0 0.43392,-0.3499 0.96582,-0.5249 1.5957,-0.5249 0.68584,0 1.25974,0.175 1.72164,0.5249"
         fill-rule="evenodd"
         vector-effect="none" />
    </g>
    <g
       id="g16"
       font-style="normal"
       font-weight="400"
       font-size="7.8px"
       font-family="'MS Shell Dlg 2'"
       stroke="none"
       fill-opacity="1"
       fill="#66b1e3" />
  </g>
</svg>
