<svg xmlns="http://www.w3.org/2000/svg" version="1.2" viewBox="0 0 42.52 42.52" height="56.693" width="56.693">
   <g stroke-linejoin="bevel" stroke-linecap="square" fill-rule="evenodd" stroke="none" fill="none" font-weight="400"
      font-size="7.8" font-family="'MS Shell Dlg 2'">
      <path
         d="M42.52 21.26C42.52 33 33 42.52 21.26 42.52 9.518 42.52 0 33 0 21.26 0 9.518 9.518 0 21.26 0 33 0 42.52 9.518 42.52 21.26"
         vector-effect="non-scaling-stroke" fill="#66b1e3" />
      <path
         d="M20.726 12.835a.467.467 0 01-.01-.42.634.634 0 01.304-.315.649.649 0 01.43-.021c.147.042.249.14.305.294l.588 1.596 1.764 1.448-1.974-.294-.567-.483c-.056 0-.084-.014-.084-.042 0-.028-.028-.07-.084-.126l-.672-1.637m7.076 2.834a.788.788 0 01-.336-.577.92.92 0 01.168-.662c.182-.223.399-.342.65-.356.253-.014.498.049.736.189.196.14.294.346.294.619s-.084.507-.252.703a.884.884 0 01-.578.273.94.94 0 01-.682-.189m-7.18.483c-.63-.49-1.117-.871-1.46-1.144a9.515 9.515 0 01-.745-.64c-.154-.154-.238-.27-.252-.347a.482.482 0 01.02-.241c0-.084.036-.154.106-.21.07-.056.133-.112.189-.168.196-.056.384-.014.566.126.028 0 .133.073.315.22l.64.515c.246.195.49.381.736.556.245.175.423.304.535.388l2.457.651c.224-.056.675-.136 1.354-.241.679-.105 1.361-.214 2.047-.326.056.35.182.581.378.693.196.224.427.336.693.336l1.763.567 1.974-.084c.252 0 .378.098.378.294a.559.559 0 01-.063.252c-.042.084-.105.126-.189.126h-.084l-2.1.189-2.246-.777-.042.042h-.084a15.54 15.54 0 01-1.91.063 60.478 60.478 0 01-2.52-.105l-2.184-.65c-.056 0-.098-.015-.126-.043-.028-.028-.077-.042-.147-.042m-1.239 5.207a1.635 1.635 0 01-1.018-.535 1.377 1.377 0 01-.367-1.06c.07-.406.255-.746.556-1.019.301-.273.647-.374 1.04-.304.433.056.78.234 1.039.535.259.301.36.648.304 1.04 0 .433-.157.78-.472 1.039-.315.259-.676.36-1.082.304m-6.403-2.12a.588.588 0 01.472-.273.762.762 0 01.556.189l2.919 2.666h1.806l2.162-.294 1.89-1.029 2.183-1.973a.582.582 0 01.515-.137.84.84 0 01.514.305c.126.112.182.27.168.472a.902.902 0 01-.252.557l-2.267 1.931-2.247 1.197c-.028.07-.07.105-.126.105.056.574.228 1.018.514 1.333.287.315.774.627 1.46.934l2.582-2.372c.056-.14.217-.21.483-.21l3.863-.084c.518 0 .777.259.777.777a.743.743 0 01-.2.514.639.639 0 01-.493.22l-3.61.043-1.366 1.28 1.407-.545c.112-.056.273-.084.483-.084l4.346 1.238c.448.196.63.511.546.945a.674.674 0 01-.367.473.79.79 0 01-.578.052l-4.073-1.218-.86.315a.185.185 0 01-.137-.052.185.185 0 00-.137-.053 40.73 40.73 0 01-2.96-.535 36.213 36.213 0 01-3.654-.997 2.18 2.18 0 01-.304-.714c-.063-.266-.122-.56-.178-.882l-2.226-.084h-.042a.701.701 0 01-.242-.042 1.909 1.909 0 01-.199-.084l-3.128-2.877a.62.62 0 01-.21-.482c0-.196.07-.371.21-.525M32.925 31.29a.8.8 0 00.304.19.7.7 0 01.263.146v1.113c-.406 0-.798-.168-1.176-.504-.392-.266-.763-.399-1.113-.399-.14 0-.311.039-.514.116a1.893 1.893 0 00-.515.283c-.825.602-1.714.742-2.666.42a1.699 1.699 0 01-.357-.189 3.76 3.76 0 00-.378-.23 3.47 3.47 0 01-.399-.19.772.772 0 00-.378-.105c-.448-.098-.889 0-1.323.294a2.893 2.893 0 01-1.385.567 2.395 2.395 0 01-1.019-.052 2.774 2.774 0 01-.997-.515 4.31 4.31 0 01-.41-.189.87.87 0 00-.409-.105 1.084 1.084 0 00-.682.01 3.555 3.555 0 00-.64.284 1.85 1.85 0 01-.767.452c-.273.077-.55.115-.83.115a3.76 3.76 0 01-.934-.115 2.313 2.313 0 01-.87-.452c-.743-.518-1.443-.518-2.1 0a2.502 2.502 0 01-.893.452c-.3.077-.591.115-.871.115h-1.638V10.693h1.638c.196.056.532.207 1.008.452.476.245.997.51 1.564.797.567.287 1.162.567 1.784.84.623.273 1.173.48 1.649.62-.112.168-.168.322-.168.462a.805.805 0 00-.084.399c-.28-.056-.68-.2-1.197-.43l-1.638-.736a62.777 62.777 0 01-1.658-.777 55.94 55.94 0 00-1.26-.598v1.89c.196.084.416.185.661.304.245.12.522.29.83.515a63.355 63.355 0 011.595.776c.056 0 .098.028.126.084.294.112.578.21.85.294.274.084.55.19.83.315h.168c.602.28 1.176.434 1.722.462v.084c.321.056.64.116.955.179.315.063.626.122.934.178 1.442.28 2.793.441 4.052.483 1.26.042 2.275.035 3.045-.021.182 0 .315.052.399.157.084.105.168.242.252.41v.042c.028 0 .056.014.084.042V18c0 .028.028.042.084.042 0 .112.028.168.084.168v.042c0 .028.014.042.042.042l.084.042h.273l.042-.042h.042c.028-.056.056-.084.084-.084.028 0 .042-.028.042-.084h.084v-.084c.028 0 .056.014.084.042a.329.329 0 00.084.063.329.329 0 01.084.063h.126c-.14.21-.36.357-.662.44-.3.085-.738.14-1.312.169h-.494c-.188 0-.353.028-.493.084a1.073 1.073 0 01-.105-.294.586.586 0 00-.147-.273 1.177 1.177 0 00-.451-.336 1.249 1.249 0 00-.494-.126.87.87 0 00-.41.105 2.73 2.73 0 00-.367.23l-.818.61c-.434 0-.9-.021-1.397-.063a65.465 65.465 0 01-1.522-.147c-.35-.434-.77-.651-1.26-.651h-.252c-.14 0-.276.014-.409.042-.133.028-.283.07-.451.126a20.754 20.754 0 01-3.013-.83c-1.001-.356-1.943-.822-2.824-1.396a4.167 4.167 0 00-.861-.525v7.013a43.8 43.8 0 001.774.819c.385.168.749.332 1.092.493.343.161.577.256.703.284a.403.403 0 00.294.126c.224.084.438.168.64.252.203.084.417.154.64.21a.25.25 0 00.18.084c.062 0 .136.035.22.105.196.084.402.154.62.21.216.056.423.112.619.168 1.385.433 2.67.787 3.852 1.06 1.183.273 2.194.48 3.034.62.196 0 .35.153.462.461.098.154.168.322.21.504.042.182.105.364.19.546v.126h.041l.042.084.042.042c0 .028.007.049.021.063.014.014.021.035.021.063h.084c.028 0 .042.014.042.042 0 .028.028.042.084.042h.179a.25.25 0 00.178-.084h.042a.658.658 0 01.168-.126.66.66 0 00.168-.126c.056-.028.171-.15.346-.368.175-.216.319-.514.43-.892l.652.273c-.21.658-.557 1.151-1.04 1.48a2.334 2.334 0 01-1.585.41c-.084-.028-.57-.116-1.46-.263-.888-.147-2.015-.385-3.38-.714a71.078 71.078 0 01-4.587-1.29 40.825 40.825 0 01-5.018-1.953v6.571c.392 0 .763-.14 1.113-.42a2.91 2.91 0 011.658-.525c.588 0 1.141.175 1.659.525.42.28.833.42 1.239.42v-.084h.168c.14 0 .276-.035.41-.105a2.73 2.73 0 00.367-.23c.28-.197.556-.333.829-.41.273-.077.556-.116.85-.116.714 0 1.288.175 1.722.525.14.084.259.161.357.231.098.07.224.105.378.105.504.084.945-.028 1.323-.336.294-.196.591-.332.892-.41.3-.076.605-.115.913-.115.294 0 .578.039.85.116.274.077.55.213.83.41.686.49 1.414.49 2.184 0 .433-.35.965-.526 1.595-.526.686 0 1.26.175 1.722.525"
         fill-opacity=".949" fill="#fff" />
   </g>
</svg>