<svg xmlns="http://www.w3.org/2000/svg" version="1.2" viewBox="0 0 42.52 42.52" height="56.693" width="56.693">
   <g stroke-linejoin="bevel" stroke-linecap="square" fill-rule="evenodd" stroke="none" fill="none" font-weight="400"
      font-size="7.8" font-family="'MS Shell Dlg 2'">
      <path
         d="M42.52 21.26C42.52 33 33 42.52 21.26 42.52 9.518 42.52 0 33 0 21.26 0 9.518 9.518 0 21.26 0 33 0 42.52 9.518 42.52 21.26"
         vector-effect="non-scaling-stroke" fill="#66b1e3" />
      <path
         d="M31.287 20.75a.507.507 0 01.19.315c.013.112.02.224.02.336-.056.056-.084.098-.084.126v.126c0 .098-.07.175-.21.231l-.168.084c-.084.084-.28.182-.588.294-.308.112-.462.196-.462.252h-.273c-.126 0-.216.035-.272.105-.056.056-.256.133-.599.23-.343.099-.605.176-.787.232-.112.028-.308.07-.588.126a1.648 1.648 0 01-.357.042c-.084.084-.147.213-.189.388-.042.175-.077.36-.105.557l-.084.735h-.084l-.084-.084h-.084v-.084h-.105l-.126-.084h-.084v.084h-.336v-.084h-.126l-.084.084-.084-.084h-.189v-.126h-.084c-.14-.056-.14-.273 0-.651.084-.14.175-.33.273-.567-.07.056-.23.07-.483.042a5.942 5.942 0 00-.483-.042l-.084.189a1.375 1.375 0 01-.084.147 1.372 1.372 0 00-.084.147c-.056.084-.199.29-.43.62a3.166 3.166 0 01-.766.786c-.294.154-.525.203-.693.147a.255.255 0 01-.168-.147c-.196.042-.357.028-.483-.041-.056-.028-.084-.056-.084-.084a1.875 1.875 0 01-.126-.662c0-.217.028-.395.084-.535.056-.168.14-.33.252-.483l.105-.084.084-.084v-.084l.084-.084a5.395 5.395 0 01-1.344 0 52.634 52.634 0 00-.819-.084c0 .056-.09.178-.273.367-.182.19-.3.284-.357.284a1.18 1.18 0 00-.178.252 2.928 2.928 0 01-.389.483c-.14.14-.283.252-.43.336-.147.084-.248.126-.304.126l-.042-.042c.028.028.042.014.042-.042h-.378l-.084-.084v-.399l-.084-.168v-1.113l-.147-.126v-.735c0-.056.087-.084.262-.084h.43a.285.285 0 00.21-.084c.029-.028.043-.056.043-.084-.056 0-.263-.014-.62-.042a3.497 3.497 0 00-.955.042c-.238.056-.686.263-1.344.62-.658.356-1.302.71-1.932 1.06-.573.308-1.004.49-1.29.546-.288.056-.473.056-.557 0-.056-.028-.056-.098 0-.21.056-.112.126-.235.21-.368.084-.133.178-.27.283-.41.105-.14.186-.251.242-.335.084-.056.182-.165.294-.325.112-.161.213-.326.304-.494.091-.168.165-.332.22-.493.057-.161.099-.284.127-.368.14-.238.056-.455-.252-.65-.21-.14-.515-.347-.914-.62s-.696-.521-.892-.745c-.182-.21-.214-.392-.095-.546a.946.946 0 01.389-.315c.056-.028.178-.035.367-.021l.599.042c.21.014.416.035.62.063.202.028.36.056.471.084.14.056.371.133.693.23l.998.305c.343.105.672.193.986.263.315.07.543.119.683.147.28.056.602.056.966 0s.602-.084.714-.084c.223 0 .335-.028.335-.084 0-.028-.049-.05-.147-.063a2.577 2.577 0 00-.356-.021h-.525l-.168-.147v-.168l.084-.084v-.084h.084v-.084h.126v-.126h.168v-.084h.189l.084-.084H18.732v-.084h.251v-.105l.126-.084h.084v-.126h.189l.084-.084H19.676l.084-.084h.084v-.084h.168l.084-.084h.147v-.084h.168l.084-.126.084-.105.084-.084h.126l.084-.084h.084v-.168l.19-.126v-.084h.083l.126-.084v-.126c0-.028.028-.077.084-.147h.084V16.068l.084-.084h.084c.21-.14.42-.182.63-.126.21.056.406.154.588.294.084.056.203.158.357.305.154.147.332.297.535.451.203.154.382.304.535.451.154.147.28.249.378.305.14.14.26.21.357.21.098 0 .252.028.462.084h1.03c.223.056.5.15.828.283.33.133.55.228.662.284.084.056.206.119.367.189s.312.147.452.23c.14.127.325.26.556.4.231.14.416.266.556.378.07.056.161.122.273.199l.294.2c.112.083.21.167.294.251.07-.056.105-.07.105-.042 0 .028.014.056.042.084 0 .056.014.098.042.126l.042.042c.084.084.154.14.21.168M19.508 33.306c-.028 0-.042-.028-.042-.084.028 0 .056.014.084.042v.042h-.042m8.735-23.075c2.113 1.204 3.758 2.852 4.934 4.945 1.176 2.092 1.764 4.357 1.764 6.792 0 1.89-.357 3.66-1.071 5.312a14.233 14.233 0 01-2.898 4.346 13.367 13.367 0 01-4.304 2.94c-1.652.714-3.422 1.07-5.312 1.07-1.89 0-3.667-.356-5.333-1.07a13.796 13.796 0 01-4.367-2.94 13.862 13.862 0 01-2.94-4.346c-.713-1.652-1.07-3.422-1.07-5.312 0-2.435.608-4.7 1.826-6.792a13.383 13.383 0 014.955-4.945.833.833 0 01.599-.105.572.572 0 01.43.357c.084.14.105.305.063.494-.042.189-.16.34-.357.451a61.68 61.68 0 00-1.228.913c-.413.315-.78.627-1.102.935.84.406 1.658.35 2.456-.168a3.511 3.511 0 011.018-.494 3.814 3.814 0 011.082-.157c.406 0 .801.052 1.186.157.385.105.752.27 1.102.494.518.35 1.106.476 1.764.378.14 0 .283-.042.43-.126.147-.084.305-.168.473-.252.63-.434 1.372-.651 2.225-.651.406 0 .788.052 1.145.157.357.105.696.27 1.018.494.196.084.367.168.514.252.147.084.319.126.515.126.056 0 .105.014.147.042a.259.259 0 00.147.042c.238 0 .486-.028.745-.084.26-.056.529-.182.808-.378a10.683 10.683 0 00-2.1-1.596c-.405-.308-.51-.65-.314-1.029a.625.625 0 01.44-.357.878.878 0 01.61.105m-7.664 19.17c0-.056.014-.154.042-.294.028-.14.042-.287.042-.441 0-.056.028-.168.084-.336a.527.527 0 01.126-.21h-.294c.056.056.07.147.042.273a1.436 1.436 0 00-.042.273.536.536 0 00-.084.304v.913c0-.055.014-.118.042-.188 0-.056.007-.105.021-.147a.465.465 0 00.021-.147m.378-.82a.564.564 0 01.19-.293c0-.056.013-.098.041-.126.028-.028.042-.07.042-.126v-.315c-.056.14-.112.273-.168.399-.126.28-.189.518-.189.714l.084-.252m1.176-.651l-.042.105h.084l-.042-.105m.042.357a.527.527 0 00-.126.21c-.098.14-.147.252-.147.336.042-.056.09-.126.147-.21l.084-.168a.373.373 0 00.042-.168m-.483.294c.056-.056.112-.126.168-.21.126-.112.14-.196.042-.252a.658.658 0 00-.126.168.677.677 0 00-.084.294m.483 5.585a11.87 11.87 0 004.44-1.197 12.72 12.72 0 003.643-2.666 12.017 12.017 0 002.425-3.78c.581-1.427.872-2.946.872-4.556 0-1.47-.263-2.87-.788-4.2a12.446 12.446 0 00-2.215-3.631c0 .056-.056.084-.168.084-.825.517-1.602.734-2.33.65v.084c-.392 0-.77-.056-1.134-.168a3.72 3.72 0 01-1.008-.482c-.574-.392-1.134-.546-1.68-.462-.195.056-.38.112-.556.168a1.166 1.166 0 00-.472.294 3.632 3.632 0 01-2.709.566 10.923 10.923 0 01-.892-.21 1.867 1.867 0 01-.788-.44 5.423 5.423 0 00-.829-.336 1.742 1.742 0 00-.85-.042c-.434.084-.777.238-1.029.462a7.408 7.408 0 00-.514.241 7.407 7.407 0 01-.515.241v-.084a3.996 3.996 0 01-1.638.168 3.763 3.763 0 01-1.637-.566 13.731 13.731 0 00-1.953 3.59 11.77 11.77 0 00-.714 4.073c0 1.568.28 3.055.84 4.462a12.346 12.346 0 002.32 3.748 12.097 12.097 0 003.486 2.666 11.675 11.675 0 004.314 1.239c0-.252.05-.406.147-.462l.042-.042c0-.028.007-.05.021-.063.014-.014.021-.05.021-.105l-.084-.273a.8.8 0 01-.147-.21.644.644 0 01-.084-.252.467.467 0 01-.042.21c-.056.112-.154.168-.294.168v.084c0 .056.028.084.084.084.056 0 .098.014.126.042.028.028.014.042-.042.042a.373.373 0 01-.168-.042c-.084-.028-.126-.098-.126-.21l-.042-.042c-.028 0-.042.014-.042.042v.168c-.056 0-.084-.014-.084-.042v-.042a.901.901 0 00-.042-.231.441.441 0 00-.147-.23.329.329 0 01-.063-.085.33.33 0 00-.063-.084l-.084-.105a.142.142 0 01-.042.105c-.056.056-.098.084-.126.084l-.083-.084v.168a.999.999 0 01-.063.273c-.042.126-.12.189-.231.189-.098 0-.147-.028-.147-.084 0-.028.014-.056.042-.084-.028.028-.056.042-.084.042-.028.028-.084.042-.168.042l-.084.084c-.028.028-.042.028-.042 0h-.042c.028 0 .042-.028.042-.084l.042-.042c.056-.056.084-.112.084-.168 0-.056.014-.126.042-.21a.744.744 0 01.126-.23c-.056 0-.12.03-.19.094-.07.063-.216.066-.44.01h.084a.445.445 0 01.294-.105c.112 0 .196-.07.252-.21.098-.14.16-.259.189-.357a.537.537 0 01.21-.273c-.028 0-.056-.02-.084-.063a.186.186 0 01-.084-.02.36.36 0 00-.147-.022h-.536c-.3 0-.521.035-.661.105a.317.317 0 01.126-.105.99.99 0 01.44-.084c-.027 0-.055-.014-.083-.042a.45.45 0 01-.116-.02.45.45 0 00-.115-.022.973.973 0 01-.19-.02.664.664 0 01-.23-.106c-.196 0-.294-.112-.294-.336v-.566a.489.489 0 01-.084-.126c-.07-.112-.105-.196-.105-.252 0-.126-.028-.217-.084-.273-.056 0-.091-.014-.105-.042-.014-.028-.021-.112-.021-.252v-.651a2.59 2.59 0 01-.21-.452c-.084-.217-.126-.353-.126-.409 0-.056.028-.024.084.095.056.118.112.22.168.304l.22.23.389.41c.14.147.266.284.378.41.112.126.182.203.21.23.07.029.16.102.273.221.112.12.23.235.357.347.126.112.248.217.367.315.12.098.207.147.263.147.223.126.335.153.335.084.084 0 .126-.014.126-.042v-.042c0-.056-.084-.175-.252-.357-.167-.182-.28-.301-.335-.357 0-.028-.046-.102-.137-.22a23.075 23.075 0 00-.304-.39c-.112-.14-.21-.269-.294-.388a2.22 2.22 0 00-.168-.22.322.322 0 00-.042-.126l-.19-.168c-.027-.028-.07-.126-.125-.294a.997.997 0 01-.042-.273h.042l.042-.084a1.07 1.07 0 01-.252-.252c-.14-.14-.238-.3-.294-.483 0-.196.035-.23.105-.105.07.126.133.224.189.294.084.168.168.294.252.378.266.196.427.385.483.567.028.056.084.14.168.252.084.112.16.23.23.357.07.126.137.248.2.367.063.12.109.193.137.22a3.344 3.344 0 00-.231-.524l-.336-.672a.994.994 0 01-.147-.273.603.603 0 00-.273-.294.382.382 0 01-.19-.23l-.083-.295a1.149 1.149 0 01-.042-.252c.056 0 .084.05.084.147a.39.39 0 00.084.252c0 .084.045.161.136.231.091.07.179.147.263.231.056.056.133.172.23.347a4.1 4.1 0 01.232.472c.098.14.175.276.23.41a.907.907 0 00.169.283c.056.056.185.2.388.43.203.231.346.389.43.473a.373.373 0 00-.042-.168 3.227 3.227 0 01-.063-.168 1.15 1.15 0 00-.063-.147c-.07-.084-.168-.256-.294-.515-.126-.259-.216-.416-.272-.472a.259.259 0 00-.042-.147.259.259 0 01-.042-.147v-.399c-.056-.056-.084-.112-.084-.168 0-.056.028-.084.084-.084 0 .112.028.196.084.252a.323.323 0 01.042.126c0 .098-.014.16-.042.189v.042c0 .028.028.042.083.042 0 .056.081.234.242.535.16.301.27.494.325.578a.468.468 0 01-.042-.21 1.18 1.18 0 01-.042-.357 2.9 2.9 0 00-.052-.378 2.76 2.76 0 01-.053-.441 1.045 1.045 0 00-.378-.294.75.75 0 01-.21-.21l-.083-.168a.596.596 0 00-.179-.126c-.063-.028-.066-.042-.01-.042h.105l.147.147.147.147.251.252c.112 0 .217.133.315.399.056.14.098.332.126.577.028.245.07.396.126.452 0 .056.035.192.105.41.07.216.133.325.19.325.055 0 .055-.053 0-.158a.578.578 0 01-.085-.241c0-.056-.049-.235-.147-.536-.098-.3-.147-.521-.147-.661-.056-.14-.115-.297-.178-.472-.063-.175-.123-.29-.179-.347-.028-.028-.042-.056-.042-.084 0-.056.014-.098.042-.126a.807.807 0 01.179-.136c.063-.035.066-.018.01.052-.07.056-.07.112 0 .168 0 .056.042.182.126.378.084.196.126.329.126.399h.042c.056 0 .084.028.084.084.056 0 .098.028.126.084a.373.373 0 01.042.168c.056.056.112.119.168.189.056.07.084.133.084.189v-.252c.07-.056.126-.154.168-.294.042-.14.063-.273.063-.399 0-.056.028-.161.084-.315.056-.154.084-.259.084-.315v-.651c0-.056.014-.098.042-.126.028-.028.042-.014.042.042.112.196.112.35 0 .462v.483c0 .14-.042.347-.126.62-.084.272-.126.465-.126.577V28.949a.5.5 0 01.084-.283c0-.084.021-.228.063-.43.042-.204.105-.27.19-.2v-.042h.041l.084.042h.168c0-.07.014-.133.042-.189 0-.056.01-.098.032-.126a.14.14 0 00.031-.084.522.522 0 00.168-.378c0-.056.014-.15.042-.283.028-.133.014-.228-.042-.284 0-.112-.056-.168-.168-.168-.042 0-.042-.014 0-.042h.042c.056 0 .098.014.126.042.196.084.294.21.294.378l.084.084c.056.07.084.161.084.273 0 .14-.014.266-.042.378-.028.112-.07.245-.126.399a8.373 8.373 0 01-.168.462c-.084.266-.126.455-.126.567 0-.028.014-.056.042-.084.056-.056.084-.105.084-.147.056-.056.112-.168.168-.336.056-.168.112-.294.168-.378 0-.084.105-.189.315-.315a.93.93 0 01-.042-.294.523.523 0 01-.063-.23v-.19-.189c0-.056.035-.084.105-.084.056 0 .084.056.084.168v.651l.168.168c.056-.084.126-.182.21-.294.056-.056.126-.119.21-.189a.892.892 0 01.23-.147c.113-.056.176-.056.19 0 .014.056-.007.084-.063.084a1.675 1.675 0 01-.2.168.816.816 0 00-.2.21 1.93 1.93 0 00-.146.263.757.757 0 01-.147.22c.028.028.042.056.042.084a.373.373 0 01-.042.168l-.326.64c-.16.315-.241.543-.241.683.028-.084.07-.182.126-.294a.743.743 0 00.147-.273c.028-.098.07-.196.126-.294.056-.084.14-.217.252-.4a2.26 2.26 0 01.294-.398c.098-.126.189-.273.273-.44.084-.169.126-.28.126-.337.056-.056.112-.077.168-.063.056.014.056.077 0 .19a2.457 2.457 0 00-.19.367.82.82 0 01-.293.367c-.084.084-.231.325-.441.724-.21.4-.364.802-.462 1.208h.063l.042-.084c.056 0 .098-.046.126-.137a.523.523 0 01.126-.22c-.028-.056-.028-.126 0-.21.028-.056.056-.105.084-.147.028-.042.098-.077.21-.105 0-.056.028-.14.084-.252a1.315 1.315 0 01.273-.525 5.35 5.35 0 00.378-.556c.14-.231.238-.347.294-.347.084 0 .105.028.063.084a.28.28 0 00-.063.168 2.213 2.213 0 00-.168.22 6.214 6.214 0 00-.252.389c-.084.14-.165.276-.242.41-.077.132-.115.24-.115.325h.063v-.042l.042-.084c.056 0 .09-.046.105-.137.014-.09.049-.136.105-.136.028 0 .042.014.042.042 0 .028-.014.042-.042.042a.385.385 0 00-.105.157.384.384 0 01-.105.158c-.126.112-.19.196-.19.252l.085-.084c.098-.084.175-.14.23-.168a1.2 1.2 0 00.169-.22 8.58 8.58 0 01.168-.263l.168-.336c.084-.168.16-.343.23-.525.057-.084.113-.126.169-.126.056 0 .056.042 0 .126-.056.112-.116.22-.179.325-.063.105-.06.158.01.158.057 0 .134-.067.232-.2.098-.132.175-.339.23-.619 0-.294.028-.497.084-.609a.645.645 0 00.084-.252c.056 0 .084.056.084.168-.056.056-.084.137-.084.242v.241c0 .056-.014.19-.042.4-.028.209-.14.419-.335.629-.14.168-.21.266-.21.294 0 .028.014.028.042 0 .084-.056.168-.126.252-.21.167-.168.265-.385.293-.651.056-.14.084-.276.084-.41 0-.132.014-.24.042-.325 0-.112.014-.182.042-.21.07-.056.126-.084.168-.084.042 0 .063.098.063.294a1.838 1.838 0 00-.105.42 1.192 1.192 0 01-.126.399 5.78 5.78 0 01-.189.346c-.07.12-.216.29-.44.515v.084c0 .056.028.084.084.084a.57.57 0 01.084-.19c.056-.097.111-.202.167-.314.084-.112.182-.26.294-.441.07 0 .088.046.053.137a1.34 1.34 0 01-.137.262c-.056.14-.14.28-.252.42a7.64 7.64 0 00-.377.525c-.098.14-.245.34-.441.598-.196.26-.322.459-.378.599 0 .084.042.07.126-.042.084-.112.154-.224.21-.336.112-.056.27-.186.472-.389.203-.203.416-.374.64-.514l.273-.441a1.04 1.04 0 00.105-.315c.014-.098-.007-.161-.063-.19v-.041l.084.042c.084.056.12.14.105.252a1.554 1.554 0 01-.105.378l.252-.168c.168-.112.266-.21.294-.294.07-.084.053-.186-.052-.305a1.098 1.098 0 00-.326-.262c-.056-.056-.07-.098-.042-.126.028-.028.07-.014.126.042.112.056.207.098.284.126.077.028.143.147.2.357a.275.275 0 01.125-.126c.112-.07.252-.056.42.042h.168c.154 0 .203.028.147.084-.07 0-.182.014-.336.042-.154.028-.259.07-.315.126-.056 0-.084.056-.084.168 0 .112-.07.21-.21.294.028.028.056.042.084.042a.467.467 0 00.21-.042c0-.056.035-.133.105-.231a.905.905 0 01.231-.231.81.81 0 01.368-.084c.133 0 .227.028.283.084 0 .056-.035.07-.105.042-.07-.028-.147-.014-.23.042-.155 0-.316.126-.484.378.056 0 .112.014.168.042l.21.147h.063v.042c0 .028.014.056.042.084a.615.615 0 01-.073.273c-.05.098-.214.217-.494.357a.56.56 0 01-.126.189 1.018 1.018 0 00-.126.147c-.028.042-.07.09-.126.147-.182.112-.3.182-.357.21a.322.322 0 01-.126.042.793.793 0 00-.252.042.743.743 0 01-.2.063.742.742 0 00-.199.063c.182.042.357.062.525.062.14 0 .277.007.41.021.133.014.227-.014.283-.083.14 0 .354-.063.64-.19.288-.125.473-.244.557-.356.056-.084.098-.098.126-.042.028.056-.014.112-.126.168a4.465 4.465 0 01-.493.388c-.245.175-.48.262-.704.262-.238.056-.465.07-.682.042-.217-.028-.396-.014-.536.042.112.028.231.042.357.042.112.028.308.042.588.042.154.056.403.084.746.084.343 0 .556-.028.64-.084a.972.972 0 00.21-.126c.028-.028.056-.042.084-.042h.084a.69.69 0 01-.021.168c-.014.056-.063.112-.147.168-.112.056-.297.105-.556.147a4.328 4.328 0 01-.683.063 9.434 9.434 0 00-.766-.189c-.33-.07-.536-.077-.62-.02a.275.275 0 01-.126.125.381.381 0 01-.42 0h-.062l.063.084a.34.34 0 01.21.063c.056.042.14.112.251.21.056.112.151.217.284.315.133.098.227.147.283.147a.967.967 0 00.252-.273c.084-.126.154-.189.21-.189.084 0 .084.07 0 .21 0 .056-.084.161-.252.315-.168.154-.315.161-.44.021.07.084.132.154.188.21.112.182.21.245.294.19a.456.456 0 00.231-.242c.042-.105.091-.158.147-.158.126 0 .161.028.105.084 0 .056-.045.137-.136.242a.438.438 0 01-.347.157l-.042.042c0 .028.014.042.042.042a.977.977 0 01.252-.168.316.316 0 01.315 0c0-.056.014-.101.042-.136.028-.035.042-.018.042.052a.466.466 0 01-.02.147c-.015.042-.099.105-.253.189-.028.028-.028.042 0 .042h.042c.07 0 .12-.014.147-.042.056-.056.112-.084.168-.084h.126c.056-.056.084-.098.084-.126v-.042c.112 0 .112.056 0 .168 0 .056-.035.091-.105.105a.366.366 0 00-.189.105.312.312 0 00-.157.042c-.05.028-.144.014-.284-.042a2.732 2.732 0 00-.294-.105.69.69 0 00-.168-.021h-.042c-.056 0-.119-.028-.189-.084-.056 0-.112-.06-.168-.178-.056-.12-.112-.179-.168-.179a.186.186 0 00-.02-.084.186.186 0 01-.022-.084l-.041-.042c-.14 0-.238-.056-.294-.168-.056-.112-.12-.168-.19-.168l.095.19.095.188.084.273.21-.105c.055 0 .083.018.083.053s-.028.052-.083.052c0 .056-.042.084-.126.084h-.084c.056.112.126.175.21.19.083.013.153.02.21.02a.467.467 0 00.21-.042c0 .056-.015.098-.043.126a.285.285 0 01-.21.084c.028.028.07.042.126.042a.998.998 0 00.273-.042c.112 0 .112.028 0 .084-.07 0-.182.021-.336.063a.546.546 0 01-.44-.063c-.028-.028-.056-.042-.084-.042-.056 0-.084.014-.084.042-.042 0-.147.056-.315.168-.056 0-.147.014-.273.042-.126.028-.252-.07-.378-.294-.028.028-.07.042-.126.042-.112 0-.182-.056-.21-.168-.028.028-.056.042-.084.042-.084 0-.126-.014-.126-.042l-.084.126v1.197m.378-1.323c0 .028.014.042.042.042.028 0 .056.007.084.021.028.014.07-.007.126-.063v-.168l-.252.168m-.084-.084c.056 0 .084-.014.084-.042v-.042c-.056 0-.084-.119-.084-.357v-.378c-.112.252-.14.455-.084.61.028.083.056.153.084.21m.252-.358c0-.252-.021-.427-.063-.525a.678.678 0 00-.105-.189c.028.056.035.154.02.294-.013.14-.02.238-.02.294 0 .21.028.315.084.315l.084-.189m-.378-2.351c.056 0 .105-.042.147-.126.042-.084.09-.161.147-.231-.056.07-.12.133-.19.189-.07.056-.104.112-.104.168m.777 2.708a.658.658 0 01-.126-.168.814.814 0 01-.084-.315v.567h.084c.084 0 .126-.028.126-.084m-.084-.609c0 .028.028.07.084.126a.65.65 0 00.042.273c0 .056.014.098.042.126v-.273-.23c0-.099-.028-.148-.084-.148l-.084.084v.042m.168.693c-.056 0-.112.028-.168.084a.322.322 0 01-.126.042l.084.084a.9.9 0 00.21.168.677.677 0 00.294-.084l.084-.084a.645.645 0 01-.252-.084.275.275 0 01-.126-.126m.462-.084a4.127 4.127 0 00-.168-.567c-.056-.14-.105-.259-.147-.357-.042-.098-.091-.133-.147-.105 0 .056.014.098.042.126 0 .056.007.091.02.105.015.014.022.035.022.063v.231c0 .098.007.2.02.305a.406.406 0 00.106.241c.056.056.14.042.252-.042m-.084-1.029c0 .056.028.084.084.084 0-.056-.028-.084-.084-.084m.084 1.113h-.084l.189.126-.105-.126m.273-.084c0 .028.014.056.042.084.084.084.154.126.21.126a.263.263 0 00-.105-.063c-.042-.014-.091-.063-.147-.147m.377-.65c.028.083.056.153.084.21l.084.272c.028 0 .056.014.084.042v.042h.042l-.042-.084a.632.632 0 01-.168-.273 1.628 1.628 0 01-.084-.21m.4.567c0 .056.013.084.041.084h.042v-.084h-.084m.42-3.527c0-.14-.028-.21-.084-.21v-.105c-.224.154-.41.3-.556.44-.147.14-.277.267-.388.379-.112.126-.224.259-.336.399.028.028.112 0 .252-.084s.29-.186.45-.305c.162-.119.305-.227.431-.325s.203-.161.231-.19m.777-.21a.903.903 0 00-.21.169 37.944 37.944 0 01-.735.693c.14-.07.266-.147.378-.231.126-.056.238-.112.336-.168.098-.056.175-.112.231-.168.168-.084.224-.182.168-.294-.056 0-.098-.018-.126-.053-.028-.035-.042-.017-.042.053m-.65.378c.027 0 .097-.056.21-.168a.443.443 0 00.146-.21.204.204 0 00-.042-.105h-.042a1.213 1.213 0 00-.23.315.373.373 0 00-.043.168m.987-.168a.488.488 0 01-.126.084.901.901 0 00-.21.168v.042c0 .028.028.042.084.042l.252-.252c.028-.028.042-.056.042-.084h-.042m-1.197.735c.112 0 .256-.046.43-.137.176-.09.291-.136.347-.136v-.126l-.777.399m.567 0c-.154.028-.287.07-.399.126a5.006 5.006 0 01-.378.168c-.154.084-.3.168-.44.252.055 0 .143-.014.262-.042.119-.028.22-.042.304-.042a2.85 2.85 0 00.19-.105.98.98 0 00.188-.147c.084-.056.175-.126.273-.21m-4.178-2.499l-.042.042c.028-.028.042-.014.042.042v.336c0-.084.014-.182.042-.294 0-.056.007-.119.021-.189a.885.885 0 00.021-.147c-.056 0-.084.042-.084.126v.084m-1.344 1.764a.272.272 0 01-.084-.2.273.273 0 00-.084-.2 2.754 2.754 0 01-.168-.293.645.645 0 01-.084-.252v.21c0 .112.028.224.084.336a.793.793 0 01.084.273v.126c0-.028.014-.042.042-.042l.042.042c0 .056.014.147.042.273.028.126.07.189.126.189v-.462m-.336 3.611c-.056 0-.07.028-.042.084.028.056.07.028.126-.084h-.084m-.65-2.96c.055.084.118.182.188.294.112.196.238.336.378.42a6.637 6.637 0 00-.21-.294 7.29 7.29 0 00-.357-.42m.084 1.028c.07 0 .105-.014.105-.042 0-.028-.035-.042-.105-.042v.042c0 .028-.028.042-.084.042h.084m-1.238-2.246a1.486 1.486 0 00-.294-.546 1.527 1.527 0 00-.273-.315c.07.056.112.137.126.241a.407.407 0 00.105.242c.028.056.098.14.21.252l.126.126m.567 3.36a.462.462 0 01.23-.232.637.637 0 01.231-.063h.042c.056 0 .084-.028.084-.084h-.294c-.055 0-.111.07-.167.21a.658.658 0 00-.126.168m-.357.903c.294 0 .385-.112.273-.336l.084-.189.126-.126c-.084-.028-.19.077-.315.315l-.168.336m-.378-1.932a.388.388 0 01-.252 0c-.154 0-.26-.056-.315-.168.028.028.056.042.084.042.028.028.105.042.23.042.085 0 .21.021.379.063.168.042.343.105.525.19l-.105-.085a.329.329 0 01-.063-.084c-.014-.028-.05-.056-.105-.084h-.452c-.189 0-.353-.028-.493-.084a.98.98 0 00-.294-.293c-.112-.07-.168-.133-.168-.19v.253c0 .056.014.164.042.325.028.16.14.241.336.241.14.056.304.07.493.042a3.25 3.25 0 01.452-.042c-.056 0-.098-.014-.126-.042-.056 0-.091-.007-.105-.02-.014-.015-.035-.022-.063-.022h-.347c-.147 0-.248-.028-.304-.084h.651M16.59 28.94a.58.58 0 000 .378c.056.252.182.44.378.567.168.084.367.182.598.294.231.112.403.196.515.252l-.168-.168a2.556 2.556 0 01-.378-.294c-.07-.028-.154-.102-.252-.22a2.776 2.776 0 00-.315-.326 1.744 1.744 0 01-.273-.294c-.07-.098-.105-.161-.105-.19"
         fill-opacity=".949" fill="#fff" />
   </g>
</svg>