<?xml version="1.0" encoding="UTF-8" standalone="no"?>
<svg
   xmlns:dc="http://purl.org/dc/elements/1.1/"
   xmlns:cc="http://creativecommons.org/ns#"
   xmlns:rdf="http://www.w3.org/1999/02/22-rdf-syntax-ns#"
   xmlns:svg="http://www.w3.org/2000/svg"
   xmlns="http://www.w3.org/2000/svg"
   xmlns:sodipodi="http://sodipodi.sourceforge.net/DTD/sodipodi-0.dtd"
   xmlns:inkscape="http://www.inkscape.org/namespaces/inkscape"
   inkscape:version="1.0 (4035a4fb49, 2020-05-01)"
   sodipodi:docname="1608.svg"
   id="svg20"
   version="1.2"
   viewBox="0 0 42.519639 42.519639"
   height="14.999999mm"
   width="14.999999mm">
  <metadata
     id="metadata24">
    <rdf:RDF>
      <cc:Work
         rdf:about="">
        <dc:format>image/svg+xml</dc:format>
        <dc:type
           rdf:resource="http://purl.org/dc/dcmitype/StillImage" />
        <dc:title>Qt SVG Document</dc:title>
      </cc:Work>
    </rdf:RDF>
  </metadata>
  <sodipodi:namedview
     inkscape:current-layer="svg20"
     inkscape:window-maximized="0"
     inkscape:window-y="0"
     inkscape:window-x="0"
     inkscape:cy="37.918878"
     inkscape:cx="13.548942"
     inkscape:zoom="2.9205268"
     showgrid="false"
     id="namedview22"
     inkscape:window-height="480"
     inkscape:window-width="1034"
     inkscape:pageshadow="2"
     inkscape:pageopacity="0"
     guidetolerance="10"
     gridtolerance="10"
     objecttolerance="10"
     borderopacity="1"
     bordercolor="#666666"
     pagecolor="#ffffff" />
  <title
     id="title2">Qt SVG Document</title>
  <desc
     id="desc4">Generated with Qt</desc>
  <defs
     id="defs6" />
  <g
     transform="translate(5.25984,5.25984)"
     id="g18"
     stroke-linejoin="bevel"
     stroke-linecap="square"
     fill-rule="evenodd"
     stroke-width="1"
     stroke="#000000"
     fill="none">
    <g
       id="g10"
       font-style="normal"
       font-weight="400"
       font-size="7.8px"
       font-family="'MS Shell Dlg 2'"
       stroke="none"
       fill-opacity="1"
       fill="#66b1e3">
      <path
         id="path8"
         d="M 37.2598,16 C 37.2598,27.7415 27.7415,37.2598 16,37.2598 4.25851,37.2598 -5.25984,27.7415 -5.25984,16 -5.25984,4.25851 4.25851,-5.25984 16,-5.25984 27.7415,-5.25984 37.2598,4.25851 37.2598,16"
         fill-rule="evenodd"
         vector-effect="non-scaling-stroke" />
    </g>
    <g
       id="g14"
       font-style="normal"
       font-weight="400"
       font-size="7.8px"
       font-family="'MS Shell Dlg 2'"
       transform="translate(14.8661,13.1654)"
       stroke="none"
       fill-opacity="0.94902"
       fill="#ffffff">
      <path
         id="path12"
         d="M -0.932617,1.48535 C -1.08659,1.62533 -1.29655,1.83179 -1.5625,2.10474 -1.82845,2.37769 -2.1119,2.65763 -2.41284,2.94458 -2.71379,3.23153 -3.00073,3.49748 -3.27368,3.74243 -3.54663,3.98739 -3.77409,4.15186 -3.95605,4.23584 -4.264,4.4598 -4.62093,4.80273 -5.02686,5.26465 -5.43278,5.72656 -5.70573,6.0695 -5.8457,6.29346 -5.90169,6.37744 -5.99268,6.5769 -6.11865,6.89185 -6.24463,7.20679 -6.3951,7.54622 -6.57007,7.91016 c -0.17497,0.36393 -0.33244,0.71736 -0.47241,1.0603 -0.13997,0.34294 -0.22396,0.57039 -0.25195,0.68237 -0.028,0.11198 -0.06649,0.27645 -0.11548,0.49337 -0.04899,0.217 -0.10848,0.455 -0.17847,0.7139 -0.06999,0.259 -0.13997,0.5109 -0.20996,0.7559 -0.06999,0.2449 -0.13298,0.4514 -0.18896,0.6194 -0.16797,0.3079 -0.11898,0.5773 0.14697,0.8083 0.26595,0.231 0.5319,0.3884 0.79785,0.4724 0.43392,0.266 0.57389,0.4409 0.41992,0.5249 -0.08398,0.056 -0.31144,0.042 -0.68237,-0.042 -0.37093,-0.084 -0.68237,-0.126 -0.93433,-0.126 -0.26595,0 -0.56339,0.112 -0.89233,0.336 -0.32894,0.2239 -0.60539,0.4269 -0.82935,0.6089 -0.12596,0.056 -0.23096,0.1609 -0.31496,0.3149 -0.084,0.154 -0.1679,0.3045 -0.2519,0.4514 -0.084,0.147 -0.161,0.2695 -0.231,0.3675 -0.07,0.0979 -0.154,0.1189 -0.2519,0.0629 -0.056,-0.0559 -0.0385,-0.1784 0.0524,-0.3674 0.091,-0.1889 0.1995,-0.3884 0.3255,-0.5984 0.126,-0.2099 0.2694,-0.4234 0.4304,-0.6404 0.161,-0.2169 0.26946,-0.3954 0.32545,-0.5354 0.16797,-0.2659 0.38143,-0.5843 0.64038,-0.9553 0.25895,-0.3709 0.33244,-0.7103 0.22046,-1.0183 C -9.1001,11.5495 -9.19458,10.8881 -9.29956,9.91528 -9.40454,8.94246 -9.33805,7.82617 -9.1001,6.56641 -8.93213,5.26465 -8.65568,4.10636 -8.27075,3.09155 -7.88582,2.07674 -7.65137,1.2264 -7.56738,0.540527 c 0.02799,-0.349935 -0.021,-0.6298825 -0.14698,-0.839843 -0.12597,-0.209961 -0.27644,-0.374431 -0.45141,-0.493409 -0.17497,-0.118977 -0.33944,-0.199463 -0.49341,-0.241455 -0.15397,-0.04199 -0.24495,-0.06299 -0.27295,-0.06299 -0.05599,0 -0.18546,0.014 -0.38843,0.04199 -0.20296,0.028 -0.39192,0.035 -0.56689,0.021 -0.17495,-0.014 -0.26945,-0.05599 -0.28345,-0.12598 -0.014,-0.06998 0.14,-0.22395 0.46192,-0.46191 0.65787,-0.41992 1.20027,-0.63688 1.62719,-0.65088 0.42692,-0.014 0.80135,-0.021 1.12329,-0.021 0.32194,-0.05598 0.66138,-0.12247 1.01831,-0.19946 0.35694,-0.07698 0.64738,-0.15747 0.87134,-0.24145 0.08399,-0.05599 0.38493,-0.29045 0.90283,-0.70337 0.51791,-0.41293 1.1128,-0.87134 1.78467,-1.37525 0.67188,-0.5039 1.36125,-0.98681 2.068118,-1.44873 0.706868,-0.46191 1.298258,-0.77685 1.774172,-0.94482 0.95182,-0.33594 1.85815,-0.51091 2.71899,-0.5249 0.86084,-0.014 1.59221,0.04899 2.19409,0.18896 0.30795,0.05599 0.5634,0.13998 0.76636,0.25195 0.20296,0.11198 0.37443,0.24496 0.51441,0.39893 0.15397,0.13997 0.30094,0.29395 0.44091,0.46191 h 0.77686 c 0.19596,0 0.38843,0.014 0.57739,0.042 0.18897,0.02799 0.31144,0.06998 0.36743,0.12597 0.22392,0.23796 0.22392,0.46892 0,0.69287 -0.05599,0.08399 -0.20646,0.16797 -0.45141,0.25196 -0.24496,0.08398 -0.51791,0.17147 -0.81885,0.26245 -0.30094,0.09098 -0.61589,0.17847 -0.94483,0.26245 -0.32893,0.08398 -0.62638,0.16797 -0.89233,0.25195 -0.27995,0.11198 -0.59839,0.26945 -0.95532,0.47241 -0.35693,0.20297 -0.69637,0.41643 -1.01831,0.64039 -0.37793,0.26595 -0.74886,0.5249 -1.11279,0.77685 -0.05599,0.78386 -0.26596,1.36125 -0.62989,1.732179 -0.36393,0.370931 -0.67187,0.626383 -0.92383,0.766357 -0.25195,0.0839846 -0.40592,0.1259768 -0.46191,0.1259768 -0.06999,0 -0.09098,-0.0139974 -0.06299,-0.0419922 C 1.6709,-0.152344 1.70589,-0.264323 1.6499,-0.404297 L 1.54492,-0.677246 C 1.48893,-0.705241 1.36296,-0.631755 1.16699,-0.456787 0.971029,-0.28182 0.743571,-0.0788574 0.484619,0.1521 0.225667,0.383057 -0.0402832,0.628011 -0.313232,0.886963 -0.586182,1.14591 -0.792643,1.34538 -0.932617,1.48535 M -6.70654,5.87354 c 0.60189,-0.71387 1.20377,-1.42074 1.80566,-2.12061 0.5179,-0.57389 1.0708,-1.16878 1.65869,-1.78467 0.58789,-0.61588 1.12679,-1.11979 1.6167,-1.511717 0.60189,-0.5179037 1.088299,-0.920329 1.45923,-1.207275 0.370931,-0.286948 0.374431,-0.542398 0.010498,-0.766358 -0.26595,-0.15397 -0.612386,-0.16447 -1.039308,-0.03149 -0.42692,0.13297 -0.88533,0.45841 -1.37524,0.976314 -0.40593,0.447917 -0.85034,1.039307 -1.33325,1.774166 -0.48291,0.73487 -0.92733,1.44524 -1.33326,2.13111 -0.5179,0.79785 -1.00781,1.64469 -1.46972,2.54053 M 13.8486,2.34619 c 0.056,0.08399 0.091,0.16797 0.105,0.25195 0.014,0.08399 -0.049,0.16797 -0.189,0.25196 -0.0559,0.06998 -0.1644,0.12597 -0.3254,0.16797 -0.161,0.04199 -0.3464,0.07698 -0.5564,0.10498 -0.2099,0.02799 -0.4374,0.05599 -0.6824,0.08398 -0.2449,0.028 -0.4654,0.05599 -0.6613,0.08399 -0.21,0.05599 -0.4445,0.13297 -0.7034,0.23095 -0.259,0.09798 -0.5004,0.20996 -0.7244,0.33594 C 9.83138,3.96989 9.55843,4.09587 9.29248,4.23584 9.2085,4.80973 9.03003,5.19816 8.75708,5.40112 8.48413,5.60409 8.23568,5.73356 8.01172,5.78955 7.82975,5.87354 7.72477,5.91553 7.69678,5.91553 c -0.028,0 -0.04199,-0.014 -0.04199,-0.04199 C 7.71077,5.81755 7.73877,5.72656 7.73877,5.60059 V 5.43262 C 7.68278,5.40462 7.5848,5.44312 7.44482,5.5481 7.30485,5.65308 7.13338,5.76855 6.93042,5.89453 6.72746,6.02051 6.5245,6.15698 6.32153,6.30396 6.11857,6.45093 5.9611,6.56641 5.84912,6.65039 5.70915,6.73438 5.53768,6.85335 5.33472,7.00732 5.13175,7.1613 4.91829,7.32576 4.69434,7.50073 4.47038,7.6757 4.24992,7.83317 4.03296,7.97314 3.816,8.11312 3.65153,8.2111 3.53955,8.26709 3.3016,8.42106 3.03215,8.62752 2.7312,8.88647 2.43026,9.14543 2.2098,9.34489 2.06982,9.48486 2.01383,9.54085 1.92985,9.66333 1.81787,9.85229 1.70589,10.0413 1.57642,10.2477 1.42944,10.4717 1.28247,10.6956 1.146,10.9161 1.02002,11.1331 0.894043,11.35 0.817057,11.4865 0.789063,11.5425 c -0.05599,0.1679 -0.16447,0.4409 -0.32544,0.8188 -0.16097,0.378 -0.283447,0.6789 -0.3674316,0.9029 -0.139974,0.1679 -0.1329753,0.3464 0.0209966,0.5354 0.153971,0.1889 0.314941,0.3534 0.48291,0.4934 0.237955,0.1679 0.328938,0.2869 0.272949,0.3569 -0.083984,0.056 -0.248454,0.0245 -0.493408,-0.0945 -0.244955,-0.119 -0.458415,-0.2064 -0.640381,-0.2624 -0.167969,0 -0.374431,0.0665 -0.619385,0.1994 -0.244953,0.133 -0.437423,0.2415 -0.577393,0.3255 -0.16797,0.084 -0.33244,0.2554 -0.49341,0.5144 -0.16097,0.2589 -0.28345,0.3464 -0.36743,0.2624 -0.08398,-0.1539 0.0175,-0.3814 0.30444,-0.6823 0.28695,-0.301 0.50041,-0.5354 0.64038,-0.7034 0.13998,-0.168 0.32544,-0.3674 0.556401,-0.5984 0.230957,-0.231 0.304444,-0.4584 0.220459,-0.6824 -0.055989,-0.2379 -0.062988,-0.6858 -0.020996,-1.3437 0.041992,-0.6579 0.195964,-1.4138 0.461914,-2.26761 C 0.0961914,8.44906 0.393636,7.6932 0.736572,7.04932 1.07951,6.40544 1.32096,5.83854 1.46094,5.34863 1.51693,5.15267 1.50993,4.9742 1.43994,4.81323 1.36995,4.65226 1.27897,4.52979 1.16699,4.4458 1.05501,4.36182 0.939535,4.29883 0.820557,4.25684 0.701579,4.21484 0.628092,4.17985 0.600098,4.15186 c -0.027995,0 -0.104981,0 -0.230957,0 -0.125977,0 -0.244955,-0.007 -0.356934,-0.021 -0.1119791,-0.014 -0.167969,-0.04899 -0.167969,-0.10498 0,-0.05599 0.1119794,-0.16097 0.335938,-0.31494 C 0.670085,3.48698 1.06551,3.389 1.36646,3.41699 c 0.30094,0.028 0.56339,0.06999 0.78735,0.12598 0.23795,0 0.46891,-0.007 0.69287,-0.021 C 3.07064,3.50798 3.2736,3.45898 3.45557,3.375 3.51156,3.34701 3.73201,3.21753 4.11694,2.98657 4.50187,2.75562 4.94629,2.50366 5.4502,2.23071 5.9541,1.95776 6.46151,1.69181 6.97241,1.43286 7.48332,1.17391 7.91374,1.01644 8.26367,0.960449 8.94954,0.820475 9.57943,0.785482 10.1533,0.855469 10.7272,0.925456 11.2171,1.05143 11.623,1.2334 c 0.224,0.05599 0.392,0.13297 0.504,0.23096 0.1119,0.09798 0.2169,0.18896 0.3149,0.27294 0.084,0.11198 0.154,0.23096 0.21,0.35694 0.1679,0.02799 0.3359,0.05599 0.5039,0.08398 0.1539,0.028 0.2939,0.04899 0.4199,0.06299 0.126,0.014 0.2169,0.04899 0.2729,0.10498 M 5.68115,5.60059 C 6.08708,5.34863 6.40552,5.13517 6.63647,4.96021 6.86743,4.78524 6.89193,4.65576 6.70996,4.57178 6.62598,4.48779 6.45451,4.48779 6.19556,4.57178 5.9366,4.65576 5.65316,4.83073 5.34521,5.09668 5.05127,5.32064 4.71883,5.62858 4.3479,6.02051 3.97697,6.41243 3.63053,6.79036 3.30859,7.1543 2.94466,7.58822 2.55973,8.05013 2.15381,8.54004 2.55973,8.16211 2.97965,7.79118 3.41357,7.42725 3.74951,7.10531 4.12744,6.77987 4.54736,6.45093 4.96729,6.12199 5.34521,5.83854 5.68115,5.60059"
         fill-rule="evenodd"
         vector-effect="none" />
    </g>
    <g
       id="g16"
       font-style="normal"
       font-weight="400"
       font-size="7.8px"
       font-family="'MS Shell Dlg 2'"
       stroke="none"
       fill-opacity="1"
       fill="#66b1e3" />
  </g>
</svg>
