<svg xmlns="http://www.w3.org/2000/svg" version="1.2" viewBox="0 0 42.52 42.52" height="56.693" width="56.693">
   <g stroke-linejoin="bevel" stroke-linecap="square" fill-rule="evenodd" stroke="none" fill="none" font-weight="400"
      font-size="7.8" font-family="'MS Shell Dlg 2'">
      <path
         d="M42.52 21.26C42.52 33 33 42.52 21.26 42.52 9.518 42.52 0 33 0 21.26 0 9.518 9.518 0 21.26 0 33 0 42.52 9.518 42.52 21.26"
         vector-effect="non-scaling-stroke" fill="#66b1e3" />
      <path
         d="M19.193 19.91c-.154.14-.364.347-.63.62s-.549.553-.85.84c-.3.287-.588.553-.86.798-.274.245-.501.41-.683.493-.308.224-.665.567-1.07 1.029-.407.462-.68.805-.82 1.029-.056.084-.147.283-.273.598-.126.315-.276.654-.451 1.018s-.333.718-.473 1.06c-.14.344-.223.571-.251.683-.028.112-.067.277-.116.493a17.64 17.64 0 01-.178.714c-.07.26-.14.511-.21.756-.07.245-.133.452-.19.62-.167.308-.118.577.148.808.266.23.532.388.797.472.434.266.574.441.42.525-.084.056-.311.042-.682-.042a4.366 4.366 0 00-.934-.126c-.266 0-.564.112-.893.336-.329.224-.605.427-.829.61a.684.684 0 00-.315.314c-.084.154-.168.305-.252.451-.084.147-.16.27-.23.368-.07.098-.155.119-.253.063-.056-.056-.038-.179.053-.368a7.91 7.91 0 01.756-1.239c.16-.216.269-.395.325-.535.168-.266.381-.584.64-.955.26-.371.333-.71.22-1.018-.083-.35-.178-1.012-.283-1.984-.105-.973-.038-2.09.2-3.35.168-1.301.444-2.46.83-3.474.384-1.015.619-1.865.703-2.551.028-.35-.021-.63-.147-.84a1.544 1.544 0 00-.452-.493 1.82 1.82 0 00-.766-.304c-.056 0-.186.013-.389.041a2.624 2.624 0 01-.567.021c-.174-.014-.269-.056-.283-.126-.014-.07.14-.224.462-.462.658-.42 1.2-.637 1.627-.65.427-.015.801-.022 1.123-.022.322-.056.662-.122 1.019-.2.357-.076.647-.157.871-.24.084-.057.385-.291.903-.704a76.966 76.966 0 011.785-1.375 39.037 39.037 0 012.068-1.449c.707-.462 1.298-.777 1.774-.945.952-.336 1.858-.51 2.719-.525.86-.014 1.592.05 2.194.19.308.055.563.14.766.251.203.112.375.245.515.4.154.14.3.293.44.461h.777c.196 0 .389.014.578.042.189.028.311.07.367.126.224.238.224.469 0 .693-.056.084-.206.168-.451.252a23.6 23.6 0 01-1.764.525c-.329.084-.626.168-.892.252-.28.112-.598.27-.955.472-.357.203-.697.417-1.019.64-.378.266-.749.525-1.113.777-.056.784-.265 1.362-.63 1.733-.363.37-.671.626-.923.766-.252.084-.406.126-.462.126-.07 0-.091-.014-.063-.042.126-.084.16-.196.105-.336l-.105-.273c-.056-.028-.182.045-.378.22l-.682.61c-.26.23-.525.475-.798.734-.273.26-.48.459-.62.599m-5.774 4.388c.602-.714 1.204-1.421 1.806-2.12a87.224 87.224 0 011.659-1.786 16.815 16.815 0 011.616-1.511c.602-.518 1.089-.92 1.46-1.207.37-.287.374-.543.01-.767-.266-.154-.612-.164-1.04-.031-.426.133-.884.458-1.374.976-.406.448-.85 1.04-1.334 1.774a53.61 53.61 0 00-1.333 2.131 29.453 29.453 0 00-1.47 2.54m20.556-3.527a.647.647 0 01.105.252c.014.084-.05.168-.19.252-.055.07-.164.126-.325.168a4.668 4.668 0 01-.556.105c-.21.028-.438.056-.683.084-.245.028-.465.056-.661.084-.21.056-.444.133-.703.231-.26.098-.5.21-.725.336-.28.112-.553.238-.819.378-.084.574-.262.962-.535 1.165-.273.203-.521.333-.745.389-.182.084-.287.126-.315.126-.028 0-.042-.014-.042-.042.056-.056.084-.147.084-.273v-.168c-.056-.028-.154.01-.294.115-.14.105-.312.22-.515.347-.203.126-.406.262-.609.41-.202.146-.36.262-.472.346-.14.084-.311.203-.514.357-.203.154-.417.318-.64.493a9.02 9.02 0 01-.662.472 5.79 5.79 0 01-.494.294c-.237.154-.507.36-.808.62-.3.259-.521.458-.661.598-.056.056-.14.179-.252.368a16.07 16.07 0 01-.389.619 14.187 14.187 0 00-.64 1.07c-.056.169-.164.442-.325.82-.161.378-.284.678-.368.902-.14.168-.133.347.021.536a3.6 3.6 0 00.483.493c.238.168.329.287.273.357-.084.056-.248.025-.493-.094a4.609 4.609 0 00-.64-.263c-.169 0-.375.067-.62.2s-.438.241-.578.325c-.168.084-.332.256-.493.515-.161.258-.283.346-.367.262-.084-.154.017-.381.304-.682.287-.301.5-.536.64-.704a9.29 9.29 0 01.557-.598c.23-.231.304-.459.22-.683-.056-.237-.063-.685-.02-1.343.041-.658.195-1.414.461-2.268.252-.868.55-1.624.893-2.267.342-.644.584-1.211.724-1.701a.775.775 0 00-.021-.536.889.889 0 00-.273-.367 1.297 1.297 0 00-.347-.189.702.702 0 01-.22-.105h-.23a2.88 2.88 0 01-.358-.02c-.112-.015-.168-.05-.168-.106 0-.056.112-.16.336-.315.49-.224.885-.322 1.186-.294.301.028.564.07.788.126.238 0 .469-.007.693-.02.224-.015.427-.064.609-.148.055-.028.276-.157.66-.388.386-.231.83-.483 1.334-.756a62.916 62.916 0 011.522-.798c.511-.259.942-.416 1.292-.472.685-.14 1.315-.175 1.89-.105.573.07 1.063.196 1.469.378.224.056.392.133.504.23.112.099.217.19.315.274.084.112.154.23.21.356l.504.084c.154.028.294.05.42.063.126.014.217.05.273.105m-8.168 3.255c.406-.252.724-.466.955-.64.231-.176.256-.305.074-.389-.084-.084-.256-.084-.515 0-.258.084-.542.259-.85.525a8.625 8.625 0 00-.997.924 45.8 45.8 0 00-1.04 1.134c-.363.433-.748.895-1.154 1.385.406-.378.826-.749 1.26-1.113.335-.321.713-.647 1.133-.976.42-.329.798-.612 1.134-.85"
         fill-opacity=".949" fill="#fff" />
   </g>
</svg>