<?xml version="1.0" encoding="UTF-8" standalone="no"?>
<svg width="11.25008mm" height="11.25008mm"
 viewBox="-5.3 -5.3 42.52000 42.52000"
 xmlns="http://www.w3.org/2000/svg" xmlns:xlink="http://www.w3.org/1999/xlink"  version="1.2" baseProfile="tiny">
<title>Qt SVG Document</title>
<desc>Generated with Qt</desc>
<defs>
</defs>
<g fill="none" stroke="black" stroke-width="1" fill-rule="evenodd" stroke-linecap="square" stroke-linejoin="bevel" >

<g fill="#66b1e3" fill-opacity="1" stroke="none" transform="matrix(1,0,0,1,0,0)"
font-family="MS Shell Dlg 2" font-size="7.8" font-weight="400" font-style="normal" 
>
<path vector-effect="non-scaling-stroke" fill-rule="evenodd" d="M37.2598,16 C37.2598,27.7415 27.7415,37.2598 16,37.2598 C4.25851,37.2598 -5.25984,27.7415 -5.25984,16 C-5.25984,4.25851 4.25851,-5.25984 16,-5.25984 C27.7415,-5.25984 37.2598,4.25851 37.2598,16 "/>
</g>

<g fill="#ffffff" fill-opacity="0.94902" stroke="none" transform="matrix(1,0,0,1,14.8661,13.1654)"
font-family="MS Shell Dlg 2" font-size="7.8" font-weight="400" font-style="normal" 
>
<path vector-effect="none" fill-rule="evenodd" d="M-0.932617,1.48535 C-1.08659,1.62533 -1.29655,1.83179 -1.5625,2.10474 C-1.82845,2.37769 -2.1119,2.65763 -2.41284,2.94458 C-2.71379,3.23153 -3.00073,3.49748 -3.27368,3.74243 C-3.54663,3.98739 -3.77409,4.15186 -3.95605,4.23584 C-4.264,4.4598 -4.62093,4.80273 -5.02686,5.26465 C-5.43278,5.72656 -5.70573,6.0695 -5.8457,6.29346 C-5.90169,6.37744 -5.99268,6.5769 -6.11865,6.89185 C-6.24463,7.20679 -6.3951,7.54622 -6.57007,7.91016 C-6.74504,8.27409 -6.90251,8.62752 -7.04248,8.97046 C-7.18245,9.3134 -7.26644,9.54085 -7.29443,9.65283 C-7.32243,9.76481 -7.36092,9.92928 -7.40991,10.1462 C-7.4589,10.3632 -7.51839,10.6012 -7.58838,10.8601 C-7.65837,11.1191 -7.72835,11.371 -7.79834,11.616 C-7.86833,11.8609 -7.93132,12.0674 -7.9873,12.2354 C-8.15527,12.5433 -8.10628,12.8127 -7.84033,13.0437 C-7.57438,13.2747 -7.30843,13.4321 -7.04248,13.5161 C-6.60856,13.7821 -6.46859,13.957 -6.62256,14.041 C-6.70654,14.097 -6.934,14.083 -7.30493,13.999 C-7.67586,13.915 -7.9873,13.873 -8.23926,13.873 C-8.50521,13.873 -8.80265,13.985 -9.13159,14.209 C-9.46053,14.4329 -9.73698,14.6359 -9.96094,14.8179 C-10.0869,14.8739 -10.1919,14.9788 -10.2759,15.1328 C-10.3599,15.2868 -10.4438,15.4373 -10.5278,15.5842 C-10.6118,15.7312 -10.6888,15.8537 -10.7588,15.9517 C-10.8288,16.0496 -10.9128,16.0706 -11.0107,16.0146 C-11.0667,15.9587 -11.0492,15.8362 -10.9583,15.6472 C-10.8673,15.4583 -10.7588,15.2588 -10.6328,15.0488 C-10.5068,14.8389 -10.3634,14.6254 -10.2024,14.4084 C-10.0414,14.1915 -9.93294,14.013 -9.87695,13.873 C-9.70898,13.6071 -9.49552,13.2887 -9.23657,12.9177 C-8.97762,12.5468 -8.90413,12.2074 -9.01611,11.8994 C-9.1001,11.5495 -9.19458,10.8881 -9.29956,9.91528 C-9.40454,8.94246 -9.33805,7.82617 -9.1001,6.56641 C-8.93213,5.26465 -8.65568,4.10636 -8.27075,3.09155 C-7.88582,2.07674 -7.65137,1.2264 -7.56738,0.540527 C-7.53939,0.190592 -7.58838,-0.0893555 -7.71436,-0.299316 C-7.84033,-0.509277 -7.9908,-0.673747 -8.16577,-0.792725 C-8.34074,-0.911702 -8.50521,-0.992188 -8.65918,-1.03418 C-8.81315,-1.07617 -8.90413,-1.09717 -8.93213,-1.09717 C-8.98812,-1.09717 -9.11759,-1.08317 -9.32056,-1.05518 C-9.52352,-1.02718 -9.71248,-1.02018 -9.88745,-1.03418 C-10.0624,-1.04818 -10.1569,-1.09017 -10.1709,-1.16016 C-10.1849,-1.23014 -10.0309,-1.38411 -9.70898,-1.62207 C-9.05111,-2.04199 -8.50871,-2.25895 -8.08179,-2.27295 C-7.65487,-2.28695 -7.28044,-2.29395 -6.9585,-2.29395 C-6.63656,-2.34993 -6.29712,-2.41642 -5.94019,-2.49341 C-5.58325,-2.57039 -5.29281,-2.65088 -5.06885,-2.73486 C-4.98486,-2.79085 -4.68392,-3.02531 -4.16602,-3.43823 C-3.64811,-3.85116 -3.05322,-4.30957 -2.38135,-4.81348 C-1.70947,-5.31738 -1.0201,-5.80029 -0.313232,-6.26221 C0.393636,-6.72412 0.985026,-7.03906 1.46094,-7.20703 C2.41276,-7.54297 3.31909,-7.71794 4.17993,-7.73193 C5.04077,-7.74593 5.77214,-7.68294 6.37402,-7.54297 C6.68197,-7.48698 6.93742,-7.40299 7.14038,-7.29102 C7.34334,-7.17904 7.51481,-7.04606 7.65479,-6.89209 C7.80876,-6.75212 7.95573,-6.59814 8.0957,-6.43018 L8.87256,-6.43018 C9.06852,-6.43018 9.26099,-6.41618 9.44995,-6.38818 C9.63892,-6.36019 9.76139,-6.3182 9.81738,-6.26221 C10.0413,-6.02425 10.0413,-5.79329 9.81738,-5.56934 C9.76139,-5.48535 9.61092,-5.40137 9.36597,-5.31738 C9.12101,-5.2334 8.84806,-5.14591 8.54712,-5.05493 C8.24618,-4.96395 7.93123,-4.87646 7.60229,-4.79248 C7.27336,-4.7085 6.97591,-4.62451 6.70996,-4.54053 C6.43001,-4.42855 6.11157,-4.27108 5.75464,-4.06812 C5.39771,-3.86515 5.05827,-3.65169 4.73633,-3.42773 C4.3584,-3.16178 3.98747,-2.90283 3.62354,-2.65088 C3.56755,-1.86702 3.35758,-1.28963 2.99365,-0.918701 C2.62972,-0.54777 2.32178,-0.292318 2.06982,-0.152344 C1.81787,-0.0683594 1.6639,-0.0263672 1.60791,-0.0263672 C1.53792,-0.0263672 1.51693,-0.0403646 1.54492,-0.0683594 C1.6709,-0.152344 1.70589,-0.264323 1.6499,-0.404297 L1.54492,-0.677246 C1.48893,-0.705241 1.36296,-0.631755 1.16699,-0.456787 C0.971029,-0.28182 0.743571,-0.0788574 0.484619,0.1521 C0.225667,0.383057 -0.0402832,0.628011 -0.313232,0.886963 C-0.586182,1.14591 -0.792643,1.34538 -0.932617,1.48535 M-6.70654,5.87354 C-6.10465,5.15967 -5.50277,4.4528 -4.90088,3.75293 C-4.38298,3.17904 -3.83008,2.58415 -3.24219,1.96826 C-2.6543,1.35238 -2.1154,0.84847 -1.62549,0.456543 C-1.0236,-0.0613607 -0.537191,-0.463786 -0.16626,-0.750732 C0.204671,-1.03768 0.208171,-1.29313 -0.155762,-1.51709 C-0.421712,-1.67106 -0.768148,-1.68156 -1.19507,-1.54858 C-1.62199,-1.41561 -2.0804,-1.09017 -2.57031,-0.572266 C-2.97624,-0.124349 -3.42065,0.467041 -3.90356,1.2019 C-4.38647,1.93677 -4.83089,2.64714 -5.23682,3.33301 C-5.75472,4.13086 -6.24463,4.9777 -6.70654,5.87354 M13.8486,2.34619 C13.9046,2.43018 13.9396,2.51416 13.9536,2.59814 C13.9676,2.68213 13.9046,2.76611 13.7646,2.8501 C13.7087,2.92008 13.6002,2.97607 13.4392,3.01807 C13.2782,3.06006 13.0928,3.09505 12.8828,3.12305 C12.6729,3.15104 12.4454,3.17904 12.2004,3.20703 C11.9555,3.23503 11.735,3.26302 11.5391,3.29102 C11.3291,3.34701 11.0946,3.42399 10.8357,3.52197 C10.5767,3.61995 10.3353,3.73193 10.1113,3.85791 C9.83138,3.96989 9.55843,4.09587 9.29248,4.23584 C9.2085,4.80973 9.03003,5.19816 8.75708,5.40112 C8.48413,5.60409 8.23568,5.73356 8.01172,5.78955 C7.82975,5.87354 7.72477,5.91553 7.69678,5.91553 C7.66878,5.91553 7.65479,5.90153 7.65479,5.87354 C7.71077,5.81755 7.73877,5.72656 7.73877,5.60059 L7.73877,5.43262 C7.68278,5.40462 7.5848,5.44312 7.44482,5.5481 C7.30485,5.65308 7.13338,5.76855 6.93042,5.89453 C6.72746,6.02051 6.5245,6.15698 6.32153,6.30396 C6.11857,6.45093 5.9611,6.56641 5.84912,6.65039 C5.70915,6.73438 5.53768,6.85335 5.33472,7.00732 C5.13175,7.1613 4.91829,7.32576 4.69434,7.50073 C4.47038,7.6757 4.24992,7.83317 4.03296,7.97314 C3.816,8.11312 3.65153,8.2111 3.53955,8.26709 C3.3016,8.42106 3.03215,8.62752 2.7312,8.88647 C2.43026,9.14543 2.2098,9.34489 2.06982,9.48486 C2.01383,9.54085 1.92985,9.66333 1.81787,9.85229 C1.70589,10.0413 1.57642,10.2477 1.42944,10.4717 C1.28247,10.6956 1.146,10.9161 1.02002,11.1331 C0.894043,11.35 0.817057,11.4865 0.789063,11.5425 C0.733073,11.7104 0.624593,11.9834 0.463623,12.3613 C0.302653,12.7393 0.180176,13.0402 0.0961914,13.2642 C-0.0437826,13.4321 -0.0367839,13.6106 0.117188,13.7996 C0.271159,13.9885 0.432129,14.153 0.600098,14.293 C0.838053,14.4609 0.929036,14.5799 0.873047,14.6499 C0.789063,14.7059 0.624593,14.6744 0.379639,14.5554 C0.134684,14.4364 -0.078776,14.349 -0.260742,14.293 C-0.428711,14.293 -0.635173,14.3595 -0.880127,14.4924 C-1.12508,14.6254 -1.31755,14.7339 -1.45752,14.8179 C-1.62549,14.9019 -1.78996,15.0733 -1.95093,15.3323 C-2.1119,15.5912 -2.23438,15.6787 -2.31836,15.5947 C-2.40234,15.4408 -2.30086,15.2133 -2.01392,14.9124 C-1.72697,14.6114 -1.51351,14.377 -1.37354,14.209 C-1.23356,14.041 -1.0481,13.8416 -0.817139,13.6106 C-0.586182,13.3796 -0.512695,13.1522 -0.59668,12.9282 C-0.652669,12.6903 -0.659668,12.2424 -0.617676,11.5845 C-0.575684,10.9266 -0.421712,10.1707 -0.155762,9.31689 C0.0961914,8.44906 0.393636,7.6932 0.736572,7.04932 C1.07951,6.40544 1.32096,5.83854 1.46094,5.34863 C1.51693,5.15267 1.50993,4.9742 1.43994,4.81323 C1.36995,4.65226 1.27897,4.52979 1.16699,4.4458 C1.05501,4.36182 0.939535,4.29883 0.820557,4.25684 C0.701579,4.21484 0.628092,4.17985 0.600098,4.15186 C0.572103,4.15186 0.495117,4.15186 0.369141,4.15186 C0.243164,4.15186 0.124186,4.14486 0.012207,4.13086 C-0.0997721,4.11686 -0.155762,4.08187 -0.155762,4.02588 C-0.155762,3.96989 -0.0437826,3.86491 0.180176,3.71094 C0.670085,3.48698 1.06551,3.389 1.36646,3.41699 C1.6674,3.44499 1.92985,3.48698 2.15381,3.54297 C2.39176,3.54297 2.62272,3.53597 2.84668,3.52197 C3.07064,3.50798 3.2736,3.45898 3.45557,3.375 C3.51156,3.34701 3.73201,3.21753 4.11694,2.98657 C4.50187,2.75562 4.94629,2.50366 5.4502,2.23071 C5.9541,1.95776 6.46151,1.69181 6.97241,1.43286 C7.48332,1.17391 7.91374,1.01644 8.26367,0.960449 C8.94954,0.820475 9.57943,0.785482 10.1533,0.855469 C10.7272,0.925456 11.2171,1.05143 11.623,1.2334 C11.847,1.28939 12.015,1.36637 12.127,1.46436 C12.2389,1.56234 12.3439,1.65332 12.4419,1.7373 C12.5259,1.84928 12.5959,1.96826 12.6519,2.09424 C12.8198,2.12223 12.9878,2.15023 13.1558,2.17822 C13.3097,2.20622 13.4497,2.22721 13.5757,2.24121 C13.7017,2.25521 13.7926,2.2902 13.8486,2.34619 M5.68115,5.60059 C6.08708,5.34863 6.40552,5.13517 6.63647,4.96021 C6.86743,4.78524 6.89193,4.65576 6.70996,4.57178 C6.62598,4.48779 6.45451,4.48779 6.19556,4.57178 C5.9366,4.65576 5.65316,4.83073 5.34521,5.09668 C5.05127,5.32064 4.71883,5.62858 4.3479,6.02051 C3.97697,6.41243 3.63053,6.79036 3.30859,7.1543 C2.94466,7.58822 2.55973,8.05013 2.15381,8.54004 C2.55973,8.16211 2.97965,7.79118 3.41357,7.42725 C3.74951,7.10531 4.12744,6.77987 4.54736,6.45093 C4.96729,6.12199 5.34521,5.83854 5.68115,5.60059 "/>
</g>

<g fill="#66b1e3" fill-opacity="1" stroke="none" transform="matrix(1,0,0,1,0,0)"
font-family="MS Shell Dlg 2" font-size="7.8" font-weight="400" font-style="normal" 
>
</g>
</g>
</svg>
