<svg xmlns="http://www.w3.org/2000/svg" version="1.2" viewBox="0 0 42.52 42.52" height="56.693" width="56.693">
   <g stroke-linejoin="bevel" stroke-linecap="square" fill-rule="evenodd" stroke="none" fill="none" font-weight="400"
      font-size="7.8" font-family="'MS Shell Dlg 2'">
      <path
         d="M42.52 21.26C42.52 33 33 42.52 21.26 42.52 9.518 42.52 0 33 0 21.26 0 9.518 9.518 0 21.26 0 33 0 42.52 9.518 42.52 21.26"
         vector-effect="non-scaling-stroke" fill="#53a54f" />
      <path
         d="M14.423 16.068h14.782V26.44H14.423V16.068m4.242 1.218c-.448 0-.84.157-1.176.472a1.511 1.511 0 00-.504 1.145c0 .462.168.85.504 1.165.336.315.728.472 1.176.472.462 0 .85-.157 1.165-.472.315-.315.472-.703.472-1.165 0-.448-.157-.83-.472-1.145a1.583 1.583 0 00-1.165-.472M16.9 24.803c-.518-.14-.903-.175-1.155-.105-.252.07-.44.189-.567.357-.112.21-.182.454-.21.734h13.585v-3.17l-.987-.483-1.365.945-2.666-1.722-3.528 3.444c-.21.112-.469.196-.776.252-.266.056-.599.07-.998.042a5.305 5.305 0 01-1.333-.294M29.73 14.389c.364 0 .675.122.934.367s.388.556.388.934v11.128c0 .35-.13.655-.388.914-.26.258-.57.388-.934.388H13.94c-.377 0-.692-.13-.944-.388a1.267 1.267 0 01-.378-.914V15.69c0-.378.126-.69.378-.934.252-.245.567-.367.945-.367H29.73m.461 1.301c0-.322-.153-.483-.461-.483H13.94c-.321 0-.482.161-.482.483v11.128c0 .322.16.483.483.483H29.73c.308 0 .461-.16.461-.483V15.69m-8.902-2.12h-1.323l.82-4.41h1.93l.778 4.41h-1.302l-.168-.945h-.567l-.168.945m6.068 15.873h1.848v1.07h-1.596l.987 4.998h-2.793l-.777-4.997h-6.613l-.735 4.997h-2.793l.945-4.997h-1.407v-1.071h1.701l.147-.546h2.436l-.084.546h6.235l-.084-.546h2.457l.126.546"
         fill-opacity=".949" fill="#fff" />
   </g>
</svg>