<?xml version="1.0" encoding="UTF-8" standalone="no"?>
<svg
   xmlns:dc="http://purl.org/dc/elements/1.1/"
   xmlns:cc="http://creativecommons.org/ns#"
   xmlns:rdf="http://www.w3.org/1999/02/22-rdf-syntax-ns#"
   xmlns:svg="http://www.w3.org/2000/svg"
   xmlns="http://www.w3.org/2000/svg"
   xmlns:sodipodi="http://sodipodi.sourceforge.net/DTD/sodipodi-0.dtd"
   xmlns:inkscape="http://www.inkscape.org/namespaces/inkscape"
   inkscape:version="1.0 (4035a4fb49, 2020-05-01)"
   sodipodi:docname="1609.svg"
   id="svg20"
   version="1.2"
   viewBox="0 0 42.519639 42.519639"
   height="14.999999mm"
   width="14.999999mm">
  <metadata
     id="metadata24">
    <rdf:RDF>
      <cc:Work
         rdf:about="">
        <dc:format>image/svg+xml</dc:format>
        <dc:type
           rdf:resource="http://purl.org/dc/dcmitype/StillImage" />
        <dc:title>Qt SVG Document</dc:title>
      </cc:Work>
    </rdf:RDF>
  </metadata>
  <sodipodi:namedview
     inkscape:current-layer="svg20"
     inkscape:window-maximized="0"
     inkscape:window-y="0"
     inkscape:window-x="0"
     inkscape:cy="28.346482"
     inkscape:cx="28.346482"
     inkscape:zoom="5.8410537"
     showgrid="false"
     id="namedview22"
     inkscape:window-height="480"
     inkscape:window-width="1034"
     inkscape:pageshadow="2"
     inkscape:pageopacity="0"
     guidetolerance="10"
     gridtolerance="10"
     objecttolerance="10"
     borderopacity="1"
     bordercolor="#666666"
     pagecolor="#ffffff" />
  <title
     id="title2">Qt SVG Document</title>
  <desc
     id="desc4">Generated with Qt</desc>
  <defs
     id="defs6" />
  <g
     transform="translate(5.25984,5.25984)"
     id="g18"
     stroke-linejoin="bevel"
     stroke-linecap="square"
     fill-rule="evenodd"
     stroke-width="1"
     stroke="#000000"
     fill="none">
    <g
       id="g10"
       font-style="normal"
       font-weight="400"
       font-size="7.8px"
       font-family="'MS Shell Dlg 2'"
       stroke="none"
       fill-opacity="1"
       fill="#53a54f">
      <path
         id="path8"
         d="M 37.2598,16 C 37.2598,27.7415 27.7415,37.2598 16,37.2598 4.25851,37.2598 -5.25984,27.7415 -5.25984,16 -5.25984,4.25851 4.25851,-5.25984 16,-5.25984 27.7415,-5.25984 37.2598,4.25851 37.2598,16"
         fill-rule="evenodd"
         vector-effect="non-scaling-stroke" />
    </g>
    <g
       id="g14"
       font-style="normal"
       font-weight="400"
       font-size="7.8px"
       font-family="'MS Shell Dlg 2'"
       transform="translate(16,12.5984)"
       stroke="none"
       fill-opacity="0.94902"
       fill="#ffffff">
      <path
         id="path12"
         d="M -6.83643,-1.79004 H 7.94482 V 8.58203 H -6.83643 V -1.79004 m 4.24122,1.217774 c -0.44792,0 -0.83985,0.157471 -1.17579,0.4724125 -0.33593,0.3149415 -0.5039,0.6963705 -0.5039,1.1442835 0,0.46192 0.16797,0.85035 0.5039,1.16529 0.33594,0.31494 0.72787,0.47241 1.17579,0.47241 0.46191,0 0.85034,-0.15747 1.16528,-0.47241 0.31494,-0.31494 0.47241,-0.70337 0.47241,-1.16529 0,-0.447913 -0.15747,-0.829342 -0.47241,-1.1442835 C -1.74487,-0.414795 -2.1333,-0.572266 -2.59521,-0.572266 M -4.35889,6.94434 C -4.87679,6.80436 -5.26172,6.76937 -5.51367,6.83936 -5.76563,6.90934 -5.95459,7.02832 -6.08057,7.19629 -6.19255,7.40625 -6.26253,7.6512 -6.29053,7.93115 H 7.29395 V 4.76074 L 6.30713,4.27783 4.94238,5.22266 2.27588,3.50098 -1.25146,6.94434 C -1.46143,7.05632 -1.72038,7.1403 -2.02832,7.19629 -2.29427,7.25228 -2.62671,7.26628 -3.02563,7.23828 -3.42456,7.21029 -3.86898,7.1123 -4.35889,6.94434 M 8.46973,-3.46973 c 0.36393,0 0.67537,0.12248 0.93432,0.36744 0.25895,0.24495 0.38843,0.55639 0.38843,0.93432 V 8.95996 C 9.79248,9.3099 9.663,9.61434 9.40405,9.87329 9.1451,10.1322 8.83366,10.2617 8.46973,10.2617 H -7.31934 c -0.37793,0 -0.69287,-0.1295 -0.94482,-0.38841 C -8.51611,9.61434 -8.64209,9.3099 -8.64209,8.95996 V -2.16797 c 0,-0.37793 0.12598,-0.68937 0.37793,-0.93432 0.25195,-0.24496 0.56689,-0.36744 0.94482,-0.36744 H 8.46973 m 0.46191,1.30176 c 0,-0.32194 -0.15397,-0.48291 -0.46191,-0.48291 H -7.31934 c -0.32194,0 -0.48291,0.16097 -0.48291,0.48291 V 8.95996 c 0,0.32194 0.16097,0.48291 0.48291,0.48291 H 8.46973 c 0.30794,0 0.46191,-0.16097 0.46191,-0.48291 V -2.16797 M 0.0292969,-4.28857 H -1.29346 l 0.818851,-4.40918 H 1.45703 l 0.77686,4.40918 H 0.932129 L 0.76416,-5.2334 H 0.197266 L 0.0292969,-4.28857 M 6.09717,11.5845 h 1.84765 v 1.0708 h -1.5957 l 0.98682,4.997 H 4.54346 L 3.7666,12.6553 h -6.61377 l -0.73486,4.997 h -2.79248 l 0.94482,-4.997 h -1.40674 v -1.0708 h 1.70069 l 0.14697,-0.5459 h 2.43555 l -0.08399,0.5459 H 3.59863 L 3.51465,11.0386 h 2.45654 l 0.12598,0.5459"
         fill-rule="evenodd"
         vector-effect="none" />
    </g>
    <g
       id="g16"
       font-style="normal"
       font-weight="400"
       font-size="7.8px"
       font-family="'MS Shell Dlg 2'"
       stroke="none"
       fill-opacity="1"
       fill="#53a54f" />
  </g>
</svg>
