<?xml version="1.0" encoding="UTF-8" standalone="no"?>
<svg
   xmlns:dc="http://purl.org/dc/elements/1.1/"
   xmlns:cc="http://creativecommons.org/ns#"
   xmlns:rdf="http://www.w3.org/1999/02/22-rdf-syntax-ns#"
   xmlns:svg="http://www.w3.org/2000/svg"
   xmlns="http://www.w3.org/2000/svg"
   xmlns:sodipodi="http://sodipodi.sourceforge.net/DTD/sodipodi-0.dtd"
   xmlns:inkscape="http://www.inkscape.org/namespaces/inkscape"
   inkscape:version="1.0 (4035a4fb49, 2020-05-01)"
   sodipodi:docname="1610.svg"
   id="svg20"
   version="1.2"
   viewBox="0 0 42.519639 42.519639"
   height="14.999999mm"
   width="14.999999mm">
  <metadata
     id="metadata24">
    <rdf:RDF>
      <cc:Work
         rdf:about="">
        <dc:format>image/svg+xml</dc:format>
        <dc:type
           rdf:resource="http://purl.org/dc/dcmitype/StillImage" />
        <dc:title>Qt SVG Document</dc:title>
      </cc:Work>
    </rdf:RDF>
  </metadata>
  <sodipodi:namedview
     inkscape:current-layer="svg20"
     inkscape:window-maximized="0"
     inkscape:window-y="0"
     inkscape:window-x="0"
     inkscape:cy="28.346482"
     inkscape:cx="28.346482"
     inkscape:zoom="5.8410537"
     showgrid="false"
     id="namedview22"
     inkscape:window-height="480"
     inkscape:window-width="1034"
     inkscape:pageshadow="2"
     inkscape:pageopacity="0"
     guidetolerance="10"
     gridtolerance="10"
     objecttolerance="10"
     borderopacity="1"
     bordercolor="#666666"
     pagecolor="#ffffff" />
  <title
     id="title2">Qt SVG Document</title>
  <desc
     id="desc4">Generated with Qt</desc>
  <defs
     id="defs6" />
  <g
     transform="translate(5.25984,5.25984)"
     id="g18"
     stroke-linejoin="bevel"
     stroke-linecap="square"
     fill-rule="evenodd"
     stroke-width="1"
     stroke="#000000"
     fill="none">
    <g
       id="g10"
       font-style="normal"
       font-weight="400"
       font-size="7.8px"
       font-family="'MS Shell Dlg 2'"
       stroke="none"
       fill-opacity="1"
       fill="#53a54f">
      <path
         id="path8"
         d="M 37.2598,16 C 37.2598,27.7415 27.7415,37.2598 16,37.2598 4.25851,37.2598 -5.25984,27.7415 -5.25984,16 -5.25984,4.25851 4.25851,-5.25984 16,-5.25984 27.7415,-5.25984 37.2598,4.25851 37.2598,16"
         fill-rule="evenodd"
         vector-effect="non-scaling-stroke" />
    </g>
    <g
       id="g14"
       font-style="normal"
       font-weight="400"
       font-size="7.8px"
       font-family="'MS Shell Dlg 2'"
       transform="translate(16,13.1654)"
       stroke="none"
       fill-opacity="0.94902"
       fill="#ffffff">
      <path
         id="path12"
         d="m -7.33643,-2.29395 c -0.4899,0.13998 -0.94482,0.08749 -1.36474,-0.15747 -0.41992,-0.24495 -0.69987,-0.61238 -0.83985,-1.10229 -0.13997,-0.48991 -0.09448,-0.95532 0.13648,-1.39624 0.23096,-0.44092 0.57039,-0.73137 1.01831,-0.87134 0.48991,-0.20996 0.94482,-0.18546 1.36475,0.07349 0.41992,0.25895 0.69987,0.63338 0.83984,1.12329 0.16797,0.48991 0.13647,0.96232 -0.09448,1.41723 -0.23096,0.45492 -0.58439,0.75936 -1.06031,0.91333 M 8.05371,-0.362305 C 7.5638,-0.194336 7.08789,-0.246826 6.62598,-0.519775 6.16406,-0.792725 5.84912,-1.18815 5.68115,-1.70605 5.54118,-2.18197 5.59367,-2.65788 5.83862,-3.13379 6.08358,-3.6097 6.479,-3.91764 7.0249,-4.05762 c 0.47591,-0.20996 0.93783,-0.17846 1.38574,0.09449 0.44792,0.27294 0.74187,0.66837 0.88184,1.18627 0.13997,0.48991 0.09098,0.97982 -0.14697,1.46973 -0.23796,0.48991 -0.60189,0.804851 -1.0918,0.944825 M 7.61279,9.98877 C 8.01872,10.3947 8.1377,10.8426 7.96973,11.3325 l -2.03662,4.9761 c -0.05599,0.2379 -0.16797,0.4199 -0.33594,0.5459 -0.16797,0.126 -0.37093,0.189 -0.60889,0.189 -0.05599,0 -0.11898,0 -0.18896,0 -0.06999,0 -0.13298,-0.028 -0.18897,-0.084 C 4.3444,16.8195 4.15544,16.613 4.04346,16.3401 3.93148,16.0671 3.91748,15.8047 4.00146,15.5527 L 5.68115,11.2485 4.82031,10.5137 c 0,-0.084 -0.02099,-0.154 -0.06299,-0.21 -0.04199,-0.056 -0.09098,-0.133 -0.14697,-0.2309 L 2.32178,7.63721 4.00146,9.98877 C 4.21143,10.3107 4.26742,10.5977 4.16943,10.8496 L 2.7627,16.7075 c -0.05599,0.252 -0.17147,0.4584 -0.34644,0.6194 -0.17497,0.161 -0.37443,0.2415 -0.59839,0.2415 H 1.54492 C 1.23698,17.4844 1.00952,17.3059 0.862549,17.033 0.715576,16.76 0.677083,16.4626 0.74707,16.1406 l 1.23877,-5.291 -2.456543,-3.38036 c -0.279948,-0.43392 -0.279948,-0.85384 0,-1.25977 L 0.474121,4.36182 7.61279,9.98877 M 10.8042,5.5166 c 0.168,0.05599 0.3254,0.17147 0.4724,0.34644 0.147,0.17496 0.1855,0.34643 0.1155,0.5144 0,0.23796 -0.07,0.41292 -0.21,0.5249 -0.1399,0.11198 -0.2939,0.16797 -0.4619,0.16797 h -0.084 L 7.44482,6.65039 C 7.27686,6.65039 7.13338,6.5769 7.0144,6.42993 6.89543,6.28296 6.83594,6.12549 6.83594,5.95752 L 6.66797,3.85791 4.82031,6.98633 0.74707,4.02588 2.88867,0.498535 H 0.558105 V 3.29102 c 0,0.54589 -0.223958,0.81884 -0.671875,0.81884 -0.237955,0 -0.42692,-0.08048 -0.566894,-0.24145 C -0.820638,3.70744 -0.890625,3.51497 -0.890625,3.29102 v -3.56934 c 0,-0.223959 0.069987,-0.416423 0.209961,-0.577393 0.139974,-0.160967 0.328939,-0.241457 0.566894,-0.241457 h 4.2832 c 0.09799,0 0.17497,0.014 0.23096,0.04199 0.05599,0.028 0.12598,0.042 0.20996,0.042 v 0.083981 L 7.52881,0.918457 C 7.79476,1.00244 7.96973,1.2474 8.05371,1.65332 L 8.22168,5.13867 10.8042,5.5166 M -8.30225,4.69775 c -0.08398,0 -0.18896,-0.03499 -0.31494,-0.10498 C -8.74316,4.52279 -8.84814,4.4458 -8.93213,4.36182 L -11.2207,0.918457 c -0.14,-0.167969 -0.189,-0.360433 -0.147,-0.577393 0.042,-0.216959 0.147,-0.395426 0.315,-0.5354 0.1819,-0.139974 0.3709,-0.188965 0.5669,-0.146973 0.1959,0.041993 0.3709,0.146973 0.52486,0.3149418 l 1.28076,1.9316372 0.5669,-2.750485 c 0.11198,-0.307945 0.27995,-0.503905 0.5039,-0.587895 l 3.44336,-1.84765 0.08399,-3.02344 -3.94727,-0.86084 c -0.18196,-0.05599 -0.32894,-0.17497 -0.44091,-0.35693 -0.11198,-0.18197 -0.13998,-0.39193 -0.08399,-0.62989 0.05599,-0.16796 0.15747,-0.31844 0.30444,-0.45141 0.14698,-0.13298 0.33244,-0.15047 0.5564,-0.05249 l 4.47217,0.98681 c 0.23795,0.05599 0.40592,0.15398 0.5039,0.29395 0.09799,0.13997 0.14698,0.30094 0.14698,0.48291 l -0.16797,5.54297 0.25195,4.64014 h -3.94726 l -0.73487,-1.1128 -0.35693,1.84766 c -0.08399,0.36393 -0.27995,0.58789 -0.58789,0.67187 h -0.18897 m 4.91309,3.88428 -0.60889,2.18357 0.94483,5.459 c 0.05599,0.3219 0.007,0.6124 -0.14698,0.8713 -0.15397,0.259 -0.36393,0.4165 -0.62988,0.4725 h -0.25195 c -0.22396,0 -0.43742,-0.0805 -0.64038,-0.2415 -0.20296,-0.161 -0.34644,-0.3674 -0.43042,-0.6194 l -0.94483,-5.7319 c -0.05599,-0.112 -0.06998,-0.21 -0.04199,-0.294 0.028,-0.0839 0.04199,-0.1679 0.04199,-0.2519 L -5.48877,8.05713 -5.92969,7.97314 -7.25244,10.1777 v 6.2359 c 0,0.3079 -0.09448,0.5774 -0.28345,0.8083 -0.18896,0.231 -0.44442,0.3465 -0.76636,0.3465 -0.30794,0 -0.56339,-0.1155 -0.76635,-0.3465 -0.20297,-0.2309 -0.30445,-0.5004 -0.30445,-0.8083 V 9.90479 c 0,-0.13998 0.014,-0.25196 0.042,-0.33594 0.02799,-0.08399 0.06998,-0.16797 0.12597,-0.25196 l 1.0918,-1.84765 -0.81885,-0.18897 2.18359,-3.25439 h 4.3462 l 0.25195,4.8081 -1.23877,-0.25195"
         fill-rule="evenodd"
         vector-effect="none" />
    </g>
    <g
       id="g16"
       font-style="normal"
       font-weight="400"
       font-size="7.8px"
       font-family="'MS Shell Dlg 2'"
       stroke="none"
       fill-opacity="1"
       fill="#53a54f" />
  </g>
</svg>
