<?xml version="1.0" encoding="UTF-8" standalone="no"?>
<svg width="11.2889mm" height="11.2889mm"
 viewBox="0 0 32 32"
 xmlns="http://www.w3.org/2000/svg" xmlns:xlink="http://www.w3.org/1999/xlink"  version="1.2" baseProfile="tiny">
<title>Qt SVG Document</title>
<desc>Generated with Qt</desc>
<defs>
</defs>
<g fill="none" stroke="black" stroke-width="1" fill-rule="evenodd" stroke-linecap="square" stroke-linejoin="bevel" >

<g fill="#53a54f" fill-opacity="1" stroke="none" transform="matrix(1,0,0,1,0,0)"
font-family="MS Shell Dlg 2" font-size="7.8" font-weight="400" font-style="normal" 
>
<path vector-effect="non-scaling-stroke" fill-rule="evenodd" d="M37.2598,16 C37.2598,27.7415 27.7415,37.2598 16,37.2598 C4.25851,37.2598 -5.25984,27.7415 -5.25984,16 C-5.25984,4.25851 4.25851,-5.25984 16,-5.25984 C27.7415,-5.25984 37.2598,4.25851 37.2598,16 "/>
</g>

<g fill="#ffffff" fill-opacity="0.94902" stroke="none" transform="matrix(1,0,0,1,16,13.1654)"
font-family="MS Shell Dlg 2" font-size="7.8" font-weight="400" font-style="normal" 
>
<path vector-effect="none" fill-rule="evenodd" d="M-7.33643,-2.29395 C-7.82633,-2.15397 -8.28125,-2.20646 -8.70117,-2.45142 C-9.12109,-2.69637 -9.40104,-3.0638 -9.54102,-3.55371 C-9.68099,-4.04362 -9.6355,-4.50903 -9.40454,-4.94995 C-9.17358,-5.39087 -8.83415,-5.68132 -8.38623,-5.82129 C-7.89632,-6.03125 -7.44141,-6.00675 -7.02148,-5.7478 C-6.60156,-5.48885 -6.32161,-5.11442 -6.18164,-4.62451 C-6.01367,-4.1346 -6.04517,-3.66219 -6.27612,-3.20728 C-6.50708,-2.75236 -6.86051,-2.44792 -7.33643,-2.29395 M8.05371,-0.362305 C7.5638,-0.194336 7.08789,-0.246826 6.62598,-0.519775 C6.16406,-0.792725 5.84912,-1.18815 5.68115,-1.70605 C5.54118,-2.18197 5.59367,-2.65788 5.83862,-3.13379 C6.08358,-3.6097 6.479,-3.91764 7.0249,-4.05762 C7.50081,-4.26758 7.96273,-4.23608 8.41064,-3.96313 C8.85856,-3.69019 9.15251,-3.29476 9.29248,-2.77686 C9.43245,-2.28695 9.38346,-1.79704 9.14551,-1.30713 C8.90755,-0.81722 8.54362,-0.502279 8.05371,-0.362305 M7.61279,9.98877 C8.01872,10.3947 8.1377,10.8426 7.96973,11.3325 L5.93311,16.3086 C5.87712,16.5465 5.76514,16.7285 5.59717,16.8545 C5.4292,16.9805 5.22624,17.0435 4.98828,17.0435 C4.93229,17.0435 4.8693,17.0435 4.79932,17.0435 C4.72933,17.0435 4.66634,17.0155 4.61035,16.9595 C4.3444,16.8195 4.15544,16.613 4.04346,16.3401 C3.93148,16.0671 3.91748,15.8047 4.00146,15.5527 L5.68115,11.2485 L4.82031,10.5137 C4.82031,10.4297 4.79932,10.3597 4.75732,10.3037 C4.71533,10.2477 4.66634,10.1707 4.61035,10.0728 L2.32178,7.63721 L4.00146,9.98877 C4.21143,10.3107 4.26742,10.5977 4.16943,10.8496 L2.7627,16.7075 C2.70671,16.9595 2.59123,17.1659 2.41626,17.3269 C2.24129,17.4879 2.04183,17.5684 1.81787,17.5684 L1.54492,17.5684 C1.23698,17.4844 1.00952,17.3059 0.862549,17.033 C0.715576,16.76 0.677083,16.4626 0.74707,16.1406 L1.98584,10.8496 L-0.470703,7.46924 C-0.750651,7.03532 -0.750651,6.6154 -0.470703,6.20947 L0.474121,4.36182 L7.61279,9.98877 M10.8042,5.5166 C10.9722,5.57259 11.1296,5.68807 11.2766,5.86304 C11.4236,6.038 11.4621,6.20947 11.3921,6.37744 C11.3921,6.6154 11.3221,6.79036 11.1821,6.90234 C11.0422,7.01432 10.8882,7.07031 10.7202,7.07031 L10.6362,7.07031 L7.44482,6.65039 C7.27686,6.65039 7.13338,6.5769 7.0144,6.42993 C6.89543,6.28296 6.83594,6.12549 6.83594,5.95752 L6.66797,3.85791 L4.82031,6.98633 L0.74707,4.02588 L2.88867,0.498535 L0.558105,0.498535 L0.558105,3.29102 C0.558105,3.83691 0.334147,4.10986 -0.11377,4.10986 C-0.351725,4.10986 -0.54069,4.02938 -0.680664,3.86841 C-0.820638,3.70744 -0.890625,3.51497 -0.890625,3.29102 L-0.890625,-0.27832 C-0.890625,-0.502279 -0.820638,-0.694743 -0.680664,-0.855713 C-0.54069,-1.01668 -0.351725,-1.09717 -0.11377,-1.09717 L4.16943,-1.09717 C4.26742,-1.09717 4.3444,-1.08317 4.40039,-1.05518 C4.45638,-1.02718 4.52637,-1.01318 4.61035,-1.01318 L4.61035,-0.929199 L7.52881,0.918457 C7.79476,1.00244 7.96973,1.2474 8.05371,1.65332 L8.22168,5.13867 L10.8042,5.5166 M-8.30225,4.69775 C-8.38623,4.69775 -8.49121,4.66276 -8.61719,4.59277 C-8.74316,4.52279 -8.84814,4.4458 -8.93213,4.36182 L-11.2207,0.918457 C-11.3607,0.750488 -11.4097,0.558024 -11.3677,0.341064 C-11.3257,0.124105 -11.2207,-0.054362 -11.0527,-0.194336 C-10.8708,-0.33431 -10.6818,-0.383301 -10.4858,-0.341309 C-10.2899,-0.299316 -10.1149,-0.194336 -9.96094,-0.0263672 L-8.68018,1.90527 L-8.11328,-0.845215 C-8.0013,-1.15316 -7.83333,-1.34912 -7.60938,-1.43311 L-4.16602,-3.28076 L-4.08203,-6.3042 L-8.0293,-7.16504 C-8.21126,-7.22103 -8.35824,-7.34001 -8.47021,-7.52197 C-8.58219,-7.70394 -8.61019,-7.9139 -8.5542,-8.15186 C-8.49821,-8.31982 -8.39673,-8.4703 -8.24976,-8.60327 C-8.10278,-8.73625 -7.91732,-8.75374 -7.69336,-8.65576 L-3.22119,-7.66895 C-2.98324,-7.61296 -2.81527,-7.51497 -2.71729,-7.375 C-2.6193,-7.23503 -2.57031,-7.07406 -2.57031,-6.89209 L-2.73828,-1.34912 L-2.48633,3.29102 L-6.43359,3.29102 L-7.16846,2.17822 L-7.52539,4.02588 C-7.60938,4.38981 -7.80534,4.61377 -8.11328,4.69775 L-8.30225,4.69775 M-3.38916,8.58203 L-3.99805,10.7656 L-3.05322,16.2246 C-2.99723,16.5465 -3.04622,16.837 -3.2002,17.0959 C-3.35417,17.3549 -3.56413,17.5124 -3.83008,17.5684 L-4.08203,17.5684 C-4.30599,17.5684 -4.51945,17.4879 -4.72241,17.3269 C-4.92537,17.1659 -5.06885,16.9595 -5.15283,16.7075 L-6.09766,10.9756 C-6.15365,10.8636 -6.16764,10.7656 -6.13965,10.6816 C-6.11165,10.5977 -6.09766,10.5137 -6.09766,10.4297 L-5.48877,8.05713 L-5.92969,7.97314 L-7.25244,10.1777 L-7.25244,16.4136 C-7.25244,16.7215 -7.34692,16.991 -7.53589,17.2219 C-7.72485,17.4529 -7.98031,17.5684 -8.30225,17.5684 C-8.61019,17.5684 -8.86564,17.4529 -9.0686,17.2219 C-9.27157,16.991 -9.37305,16.7215 -9.37305,16.4136 L-9.37305,9.90479 C-9.37305,9.76481 -9.35905,9.65283 -9.33105,9.56885 C-9.30306,9.48486 -9.26107,9.40088 -9.20508,9.31689 L-8.11328,7.46924 L-8.93213,7.28027 L-6.74854,4.02588 L-2.40234,4.02588 L-2.15039,8.83398 L-3.38916,8.58203"/>
</g>

<g fill="#53a54f" fill-opacity="1" stroke="none" transform="matrix(1,0,0,1,0,0)"
font-family="MS Shell Dlg 2" font-size="7.8" font-weight="400" font-style="normal" 
>
</g>
</g>
</svg>
