<svg xmlns="http://www.w3.org/2000/svg" version="1.2" viewBox="0 0 42.52 42.52" height="56.693" width="56.693">
   <g stroke-linejoin="bevel" stroke-linecap="square" fill-rule="evenodd" stroke="none" fill="none" font-weight="400"
      font-size="7.8" font-family="'MS Shell Dlg 2'">
      <path
         d="M42.52 21.26C42.52 33 33 42.52 21.26 42.52 9.518 42.52 0 33 0 21.26 0 9.518 9.518 0 21.26 0 33 0 42.52 9.518 42.52 21.26"
         vector-effect="non-scaling-stroke" fill="#53a54f" />
      <path
         d="M29.398 25.936c-.14 0-.217-.045-.231-.136a6.967 6.967 0 01-.021-.724c0-.266-.01-.564-.032-.893a8.015 8.015 0 00-.157-1.102.677.677 0 01-.021-.44.696.696 0 01.21-.358c.196-.294.42-.44.671-.44h.168c.238.083.434.276.588.577.154.3.203.668.147 1.102a7.653 7.653 0 01-.23.808c-.099.287-.221.546-.368.777a7.48 7.48 0 01-.41.588c-.126.161-.23.241-.314.241m-15.622-3.653a.696.696 0 01.21.357.677.677 0 01-.02.441 5.794 5.794 0 00-.169 1.102c-.014.33-.02.627-.02.893.055.392.062.633.02.724-.042.091-.133.136-.273.136-.195 0-.43-.272-.703-.818a5.57 5.57 0 01-.535-1.596c-.084-.434-.063-.801.063-1.102.126-.301.3-.494.525-.578h.189c.28 0 .517.147.713.441m18.939-6.76c.42 0 .794.15 1.123.45.33.302.494.67.494 1.103 0 .336-.13.654-.389.955-.259.301-.584.48-.976.536-.322 0-.581.147-.777.44-.084.28-.084.568 0 .862a.476.476 0 01.147.252c.014.084.02.203.02.356 0 .224-.027.392-.083.504-.196.378-.168.693.084.945.196.322.252.77.168 1.344-.028.224-.091.48-.19.766-.097.287-.22.56-.366.82-.147.258-.29.472-.43.64-.14.168-.267.252-.379.252h-.168a.96.96 0 00-.357.052c-.084.035-.168.08-.252.136-.266.196-.427.392-.483.588-.056.924-.262 1.652-.619 2.184a3.164 3.164 0 01-1.438 1.176 7.67 7.67 0 01-2.646 2.75c-1.105.686-2.344 1.029-3.716 1.029-1.344 0-2.569-.343-3.674-1.029a7.78 7.78 0 01-2.646-2.708 3.43 3.43 0 01-1.48-1.176c-.385-.532-.626-1.274-.724-2.226 0-.196-.14-.392-.42-.588-.224-.126-.4-.188-.525-.188h-.252c-.112 0-.242-.084-.389-.252a2.89 2.89 0 01-.41-.64 11.073 11.073 0 01-.356-.82 3.262 3.262 0 01-.21-.766 2.029 2.029 0 01-.021-.766c.042-.245.133-.438.273-.578.14-.224.168-.539.084-.945-.112-.224-.168-.392-.168-.504 0-.153.014-.272.042-.356a1.06 1.06 0 01.126-.252c.196-.294.196-.581 0-.861-.196-.294-.427-.441-.693-.441a1.62 1.62 0 01-.997-.536c-.273-.3-.41-.619-.41-.955 0-.434.158-.801.473-1.102.315-.301.682-.452 1.102-.452.406 0 .693-.175.86-.524.099-.392.015-.75-.251-1.071-.336-.252-.504-.567-.504-.945 0-.336.126-.634.378-.892.252-.26.58-.389.987-.389.658 0 1.085.287 1.28.861.07.168.162.294.274.378.112.084.237.154.377.21h.252c.098 0 .203-.007.315-.021a.493.493 0 00.294-.147c.084-.084.193-.161.326-.231s.311-.105.535-.105c.322 0 .602.09.84.273.238.182.392.434.462.756.084.28.224.469.42.567a6.75 6.75 0 00-2.257 2.32c-.553.945-.83 1.99-.83 3.139 0 .224.014.465.042.724.028.259.05.483.063.672.014.189.014.325 0 .41-.014.083-.049.083-.105 0-.294-.295-.57-.456-.829-.484-.259-.028-.48.007-.661.105a1.576 1.576 0 00-.494.43 1.842 1.842 0 00-.304.536 2.476 2.476 0 00-.063 1.144c.07.357.171.68.304.966.133.287.27.546.41.777.14.231.238.403.294.515.224.573.437.962.64 1.165.203.203.507.304.913.304a2.543 2.543 0 01-.042-.493v-.536c0-.657.077-1.298.231-1.92.154-.624.364-1.201.63-1.733a1.917 1.917 0 01-.084-.567v-.567a6.907 6.907 0 011.932-4.829 6.852 6.852 0 012.078-1.459 6.108 6.108 0 012.562-.535 6.03 6.03 0 012.509.535 6.751 6.751 0 013.506 3.632c.343.833.515 1.719.515 2.656v.567c0 .196-.028.385-.084.567.63 1.106.945 2.324.945 3.653v.504c0 .168-.014.343-.042.525.35-.028.623-.143.818-.346.196-.203.413-.578.651-1.123.056-.112.154-.284.294-.515.14-.23.277-.49.41-.777.133-.287.234-.609.304-.966.07-.356.05-.738-.063-1.144a2.103 2.103 0 00-.283-.535 1.32 1.32 0 00-.494-.43 1.208 1.208 0 00-.682-.106c-.259.028-.535.19-.83.483-.055.084-.083.084-.083 0s.014-.22.042-.41c.028-.188.056-.412.084-.671.028-.259.042-.5.042-.724a5.823 5.823 0 00-.882-3.14 7.168 7.168 0 00-2.33-2.32c.223-.097.377-.286.461-.566a1.51 1.51 0 01.483-.756c.224-.182.497-.273.819-.273.224 0 .402.035.535.105.133.07.242.147.326.23a.493.493 0 00.294.148c.112.014.21.02.294.02h.273c.28-.083.503-.28.671-.587.098-.266.266-.476.504-.63.238-.154.49-.23.756-.23.406 0 .735.129.987.388.252.258.378.556.378.892 0 .378-.168.693-.504.945-.266.322-.35.679-.252 1.07.168.35.455.525.86.525m-9.636.525c-.238 0-.357.14-.357.42 0 .224.119.336.357.336.392 0 .756.06 1.092.179.335.119.615.248.84.388.223.14.416.284.577.43.16.147.27.249.325.305l.147.147a.201.201 0 00.147.063.339.339 0 00.273-.126c.14-.14.168-.315.084-.525a4.027 4.027 0 00-.41-.44 4.119 4.119 0 00-.713-.536 4.684 4.684 0 00-1.029-.452 4.414 4.414 0 00-1.333-.189m-.273 4.326c-.224 0-.336.118-.336.356 0 .28.112.42.336.42h1.134v.861c0 .238.112.357.335.357.294 0 .441-.119.441-.357v-.86h1.113c.252 0 .378-.14.378-.42 0-.239-.126-.357-.378-.357h-1.113v-.42c0-.294-.147-.441-.44-.441-.224 0-.336.147-.336.44v.42h-1.134m.525 4.788c0-.518-.172-.963-.515-1.334-.343-.37-.787-.556-1.333-.556-.518 0-.962.185-1.333.556-.371.371-.557.816-.557 1.334 0 .574.186 1.053.557 1.438.37.385.815.577 1.333.577.546 0 .99-.192 1.333-.577.343-.385.515-.864.515-1.438m-2.877-4.43c0-.239-.119-.357-.357-.357h-1.113v-.42c0-.294-.112-.441-.335-.441-.238 0-.357.147-.357.44v.42h-1.155c-.28 0-.42.12-.42.357 0 .28.14.42.42.42h1.155v.861c0 .238.119.357.357.357.223 0 .335-.119.335-.357v-.86h1.113c.238 0 .357-.14.357-.42m-4.01-3.066c-.112.126-.112.301 0 .525.056.084.147.126.273.126a.141.141 0 00.126-.063c.028-.042.07-.091.126-.147.056-.056.164-.158.325-.305.161-.146.36-.29.599-.43.238-.14.521-.27.85-.388a3.223 3.223 0 011.102-.179c.238 0 .357-.112.357-.336 0-.28-.119-.42-.357-.42a4.414 4.414 0 00-2.34.64 4.49 4.49 0 00-.694.536c-.189.182-.311.329-.367.441m5.039 13.941c.77 0 1.501-.157 2.194-.472a7.678 7.678 0 001.806-1.123c.51-.434.917-.872 1.218-1.313.3-.44.45-.808.45-1.102 0-.28-.143-.378-.43-.294a9.902 9.902 0 00-1.196.473c-.511.23-1.113.462-1.806.693a7.03 7.03 0 01-2.236.346 7.169 7.169 0 01-2.278-.346 19.065 19.065 0 01-1.806-.693 9.902 9.902 0 00-1.197-.473c-.286-.084-.43.014-.43.294 0 .294.15.662.451 1.102.301.441.714.879 1.24 1.313a8.128 8.128 0 001.826 1.123 5.242 5.242 0 002.194.472"
         fill-opacity=".949" fill="#fff" />
   </g>
</svg>