<?xml version="1.0" encoding="UTF-8" standalone="no"?>
<svg
   xmlns:dc="http://purl.org/dc/elements/1.1/"
   xmlns:cc="http://creativecommons.org/ns#"
   xmlns:rdf="http://www.w3.org/1999/02/22-rdf-syntax-ns#"
   xmlns:svg="http://www.w3.org/2000/svg"
   xmlns="http://www.w3.org/2000/svg"
   xmlns:sodipodi="http://sodipodi.sourceforge.net/DTD/sodipodi-0.dtd"
   xmlns:inkscape="http://www.inkscape.org/namespaces/inkscape"
   inkscape:version="1.0 (4035a4fb49, 2020-05-01)"
   sodipodi:docname="1611.svg"
   id="svg20"
   version="1.2"
   viewBox="0 0 42.519639 42.519639"
   height="14.999999mm"
   width="14.999999mm">
  <metadata
     id="metadata24">
    <rdf:RDF>
      <cc:Work
         rdf:about="">
        <dc:format>image/svg+xml</dc:format>
        <dc:type
           rdf:resource="http://purl.org/dc/dcmitype/StillImage" />
        <dc:title>Qt SVG Document</dc:title>
      </cc:Work>
    </rdf:RDF>
  </metadata>
  <sodipodi:namedview
     inkscape:current-layer="svg20"
     inkscape:window-maximized="0"
     inkscape:window-y="0"
     inkscape:window-x="0"
     inkscape:cy="28.346482"
     inkscape:cx="28.346482"
     inkscape:zoom="5.8410537"
     showgrid="false"
     id="namedview22"
     inkscape:window-height="480"
     inkscape:window-width="1034"
     inkscape:pageshadow="2"
     inkscape:pageopacity="0"
     guidetolerance="10"
     gridtolerance="10"
     objecttolerance="10"
     borderopacity="1"
     bordercolor="#666666"
     pagecolor="#ffffff" />
  <title
     id="title2">Qt SVG Document</title>
  <desc
     id="desc4">Generated with Qt</desc>
  <defs
     id="defs6" />
  <g
     transform="translate(5.25984,5.25984)"
     id="g18"
     stroke-linejoin="bevel"
     stroke-linecap="square"
     fill-rule="evenodd"
     stroke-width="1"
     stroke="#000000"
     fill="none">
    <g
       id="g10"
       font-style="normal"
       font-weight="400"
       font-size="7.8px"
       font-family="'MS Shell Dlg 2'"
       stroke="none"
       fill-opacity="1"
       fill="#53a54f">
      <path
         id="path8"
         d="M 37.2598,16 C 37.2598,27.7415 27.7415,37.2598 16,37.2598 4.25851,37.2598 -5.25984,27.7415 -5.25984,16 -5.25984,4.25851 4.25851,-5.25984 16,-5.25984 27.7415,-5.25984 37.2598,4.25851 37.2598,16"
         fill-rule="evenodd"
         vector-effect="non-scaling-stroke" />
    </g>
    <g
       id="g14"
       font-style="normal"
       font-weight="400"
       font-size="7.8px"
       font-family="'MS Shell Dlg 2'"
       transform="translate(16,13.1654)"
       stroke="none"
       fill-opacity="0.94902"
       fill="#ffffff">
      <path
         id="path12"
         d="M 8.1377,7.51123 C 7.99772,7.51123 7.92074,7.46574 7.90674,7.37476 7.89274,7.28377 7.88574,7.04232 7.88574,6.65039 7.88574,6.38444 7.87524,6.087 7.85425,5.75806 7.83325,5.42912 7.78076,5.06169 7.69678,4.65576 7.64079,4.51579 7.63379,4.36882 7.67578,4.21484 7.71777,4.06087 7.78776,3.94189 7.88574,3.85791 8.08171,3.56396 8.30566,3.41699 8.55762,3.41699 H 8.72559 C 8.96354,3.50098 9.15951,3.69344 9.31348,3.99438 9.46745,4.29533 9.51644,4.66276 9.46045,5.09668 9.40446,5.34863 9.32747,5.61808 9.22949,5.90503 9.13151,6.19198 9.00903,6.45093 8.86206,6.68188 8.71509,6.91284 8.57861,7.10881 8.45264,7.26978 8.32666,7.43075 8.22168,7.51123 8.1377,7.51123 M -7.4834,3.85791 c 0.09798,0.08398 0.16797,0.20296 0.20996,0.35693 0.04199,0.15398 0.035,0.30095 -0.02099,0.44092 -0.09799,0.40593 -0.15397,0.77336 -0.16797,1.1023 -0.014,0.32894 -0.021,0.62638 -0.021,0.89233 0.05599,0.39193 0.06299,0.63338 0.021,0.72437 -0.04199,0.09098 -0.13298,0.13647 -0.27295,0.13647 -0.19597,0 -0.43042,-0.27295 -0.70337,-0.81885 -0.27295,-0.5459 -0.45142,-1.0778 -0.5354,-1.5957 -0.08399,-0.43392 -0.06299,-0.80135 0.06299,-1.1023 0.12597,-0.30094 0.30094,-0.4934 0.5249,-0.57739 h 0.18896 c 0.27995,0 0.51791,0.14697 0.71387,0.44092 m 18.9385,-6.76074 c 0.4199,0 0.7943,0.15047 1.1233,0.45141 0.3289,0.30095 0.4934,0.66838 0.4934,1.1023 0,0.33594 -0.1295,0.654377 -0.3885,0.955321 -0.2589,0.3009442 -0.5843,0.479411 -0.9763,0.535401 -0.3219,0 -0.5809,0.146972 -0.7768,0.440918 -0.084,0.279947 -0.084,0.56689 0,0.86084 0.084,0.08398 0.133,0.16797 0.1469,0.25195 0.014,0.08399 0.021,0.20296 0.021,0.35694 0,0.22395 -0.028,0.39192 -0.0839,0.5039 -0.196,0.37793 -0.168,0.69287 0.0839,0.94483 0.196,0.32194 0.252,0.76985 0.168,1.34375 -0.028,0.22395 -0.091,0.47941 -0.189,0.76635 -0.0979,0.28695 -0.2204,0.5599 -0.3674,0.81885 -0.147,0.25895 -0.2904,0.47241 -0.4304,0.64038 -0.14,0.16797 -0.266,0.25196 -0.37793,0.25196 H 9.7334 c -0.15397,0 -0.27295,0.01749 -0.35694,0.05249 C 9.29248,7.40975 9.2085,7.45524 9.12451,7.51123 8.85856,7.70719 8.69759,7.90316 8.6416,8.09912 8.58561,9.02295 8.37915,9.75081 8.02222,10.2827 c -0.35694,0.5319 -0.83635,0.9238 -1.43824,1.1758 -0.65787,1.1478 -1.53971,2.0646 -2.6455,2.7505 -1.1058,0.6859 -2.34457,1.0288 -3.716312,1.0288 -1.343748,0 -2.568518,-0.3429 -3.674318,-1.0288 -1.10579,-0.6859 -1.98763,-1.5887 -2.64551,-2.7085 -0.60188,-0.252 -1.09529,-0.6439 -1.48022,-1.1758 -0.38493,-0.53189 -0.62638,-1.27376 -0.72437,-2.22558 0,-0.19596 -0.13997,-0.39193 -0.41992,-0.58789 -0.22396,-0.12598 -0.39892,-0.18896 -0.5249,-0.18896 h -0.25195 c -0.11198,0 -0.24146,-0.08399 -0.38843,-0.25196 -0.14695,-0.16797 -0.28345,-0.38143 -0.40945,-0.64038 -0.126,-0.25895 -0.2449,-0.5319 -0.3569,-0.81885 -0.112,-0.28694 -0.182,-0.5424 -0.21,-0.76635 -0.056,-0.26595 -0.063,-0.52141 -0.021,-0.76636 0.042,-0.24496 0.133,-0.43742 0.273,-0.57739 0.14,-0.22396 0.168,-0.5389 0.084,-0.94483 -0.112,-0.22396 -0.168,-0.39192 -0.168,-0.5039 0,-0.15398 0.014,-0.27295 0.042,-0.35694 0.028,-0.08398 0.07,-0.16797 0.126,-0.25195 0.1959,-0.29395 0.1959,-0.580893 0,-0.86084 -0.196,-0.293946 -0.427,-0.440918 -0.6929,-0.440918 -0.3919,-0.05599 -0.7244,-0.2344568 -0.9973,-0.535401 -0.273,-0.300944 -0.4094,-0.619381 -0.4094,-0.955321 0,-0.43392 0.1574,-0.80135 0.4724,-1.1023 0.3149,-0.30094 0.6823,-0.45141 1.1023,-0.45141 0.4059,0 0.6928,-0.17497 0.8608,-0.5249 0.098,-0.39193 0.014,-0.74887 -0.2519,-1.07081 -0.336,-0.25195 -0.504,-0.56689 -0.504,-0.94482 0,-0.33594 0.126,-0.63338 0.378,-0.89233 0.2519,-0.25896 0.58087,-0.38843 0.98679,-0.38843 0.65788,0 1.0848,0.28695 1.28076,0.86084 0.06999,0.16797 0.16097,0.29394 0.27295,0.37793 0.11198,0.08398 0.23796,0.15397 0.37793,0.20996 h 0.25196 c 0.09798,0 0.20296,-0.007 0.31494,-0.021 0.11198,-0.01399 0.20996,-0.06299 0.29394,-0.14697 0.08399,-0.08398 0.19247,-0.16097 0.32544,-0.23096 0.13298,-0.06998 0.31144,-0.10498 0.5354,-0.10498 0.32194,0 0.60189,0.09099 0.83985,0.27295 0.23795,0.18197 0.39192,0.43392 0.46191,0.75586 0.08398,0.27995 0.22396,0.46891 0.41992,0.5669 -0.95182,0.60188 -1.70418,1.37524 -2.25708,2.32006 -0.5529,0.944829 -0.82934,1.991134 -0.82934,3.13892 0,0.22396 0.01399,0.46541 0.04199,0.72437 0.02799,0.25895 0.04899,0.48291 0.06299,0.67187 0.01399,0.18897 0.01399,0.32544 0,0.40942 -0.014,0.08399 -0.04899,0.08399 -0.10498,0 -0.29395,-0.29394 -0.5704,-0.45491 -0.82935,-0.48291 -0.25895,-0.02799 -0.47941,0.007 -0.66138,0.10499 -0.18196,0.09798 -0.34643,0.24145 -0.4934,0.43041 -0.14698,0.18897 -0.24846,0.36744 -0.30445,0.53541 -0.11198,0.40592 -0.13297,0.78735 -0.06299,1.14428 0.06999,0.35694 0.17147,0.67888 0.30445,0.96582 0.13297,0.28695 0.26945,0.5459 0.40942,0.77686 0.13998,0.23096 0.23796,0.40242 0.29395,0.5144 0.22395,0.5739 0.43742,0.96232 0.64038,1.16529 0.20296,0.20296 0.5074,0.30444 0.91333,0.30444 -0.028,-0.13997 -0.04199,-0.30444 -0.04199,-0.49341 0,-0.18896 0,-0.36743 0,-0.5354 0,-0.65788 0.07698,-1.29826 0.23095,-1.92114 0.15397,-0.62289 0.36393,-1.20028 0.62988,-1.73218 -0.05598,-0.18197 -0.08398,-0.37093 -0.08398,-0.56689 0,-0.19597 0,-0.38493 0,-0.5669 0,-0.93782 0.17147,-1.82316 0.5144,-2.6560048 0.34294,-0.8328452 0.81535,-1.5572152 1.41724,-2.1730952 0.60189,-0.61589 1.29476,-1.1023 2.07861,-1.45923 0.78386,-0.35693 1.6377,-0.5354 2.561528,-0.5354 0.881832,0 1.718182,0.17847 2.509032,0.5354 0.79085,0.35693 1.48722,0.84334 2.08911,1.45923 0.60189,0.61588 1.0743,1.34025 1.41724,2.1730952 C 6.58049,0.90096 6.75195,1.7863 6.75195,2.72412 c 0,0.18197 0,0.37093 0,0.5669 0,0.19596 -0.02799,0.38492 -0.08398,0.56689 0.62988,1.10579 0.94482,2.32357 0.94482,3.65332 0,0.16797 0,0.33594 0,0.50391 0,0.16797 -0.01399,0.34293 -0.04199,0.5249 C 7.92074,8.51204 8.19368,8.39657 8.38965,8.1936 8.58561,7.99064 8.80257,7.61621 9.04053,7.07031 9.09652,6.95833 9.1945,6.78687 9.33447,6.55591 9.47445,6.32495 9.61092,6.066 9.7439,5.77905 9.87687,5.49211 9.97835,5.17017 10.0483,4.81323 10.1183,4.4563 10.0973,4.07487 9.98535,3.66895 9.92936,3.50098 9.83488,3.32251 9.7019,3.13354 9.56893,2.94458 9.40446,2.80111 9.2085,2.70313 9.01253,2.60514 8.78507,2.57015 8.52612,2.59814 c -0.25895,0.028 -0.5354,0.18897 -0.82934,0.48291 -0.05599,0.08399 -0.08399,0.08399 -0.08399,0 0,-0.08398 0.014,-0.22045 0.042,-0.40942 C 7.68278,2.48267 7.71077,2.25871 7.73877,1.99976 7.76676,1.7408 7.78076,1.49935 7.78076,1.27539 7.78076,0.127604 7.48682,-0.918701 6.89893,-1.86353 6.31104,-2.80835 5.53418,-3.58171 4.56836,-4.18359 4.79232,-4.28158 4.94629,-4.47054 5.03027,-4.75049 5.12826,-5.07243 5.28923,-5.32438 5.51318,-5.50635 5.73714,-5.68831 6.01009,-5.7793 6.33203,-5.7793 c 0.22396,0 0.40243,0.035 0.5354,0.10498 0.13298,0.06999 0.24146,0.14698 0.32544,0.23096 0.08399,0.08398 0.18197,0.13298 0.29395,0.14697 0.11198,0.014 0.20996,0.021 0.29394,0.021 h 0.27295 c 0.27995,-0.08399 0.50391,-0.27995 0.67188,-0.58789 0.09798,-0.26595 0.26595,-0.47591 0.5039,-0.62988 0.23796,-0.15398 0.48991,-0.23096 0.75586,-0.23096 0.40595,0 0.73485,0.12947 0.98685,0.38843 0.2519,0.25895 0.3779,0.55639 0.3779,0.89233 0,0.37793 -0.168,0.69287 -0.5039,0.94482 -0.266,0.32194 -0.3499,0.67888 -0.252,1.07081 0.168,0.34993 0.455,0.5249 0.8609,0.5249 m -9.63723,0.5249 c -0.23795,0 -0.35693,0.13997 -0.35693,0.41992 0,0.22396 0.11898,0.33594 0.35693,0.33594 0.39193,0 0.75586,0.05949 1.0918,0.17847 0.33594,0.11897 0.61588,0.24845 0.83984,0.38842 0.22396,0.139978 0.41642,0.283451 0.57739,0.430424 0.16097,0.146973 0.26945,0.248454 0.32544,0.304443 0.05599,0.05599 0.10498,0.104981 0.14698,0.146973 0.04199,0.041992 0.09098,0.062988 0.14697,0.062988 0.11198,0 0.20296,-0.041992 0.27295,-0.125976 C 5.35921,-0.376302 5.38721,-0.55127 5.30322,-0.76123 5.21924,-0.87321 5.08276,-1.02018 4.8938,-1.20215 4.70483,-1.38411 4.46688,-1.56258 4.17993,-1.73755 3.89299,-1.91252 3.55005,-2.06299 3.15112,-2.18896 2.7522,-2.31494 2.30778,-2.37793 1.81787,-2.37793 m -0.27295,4.3252 c -0.22396,0 -0.33594,0.11897 -0.33594,0.35693 0,0.27995 0.11198,0.41992 0.33594,0.41992 h 1.13379 v 0.86084 c 0,0.23796 0.11198,0.35693 0.33594,0.35693 0.29394,0 0.44092,-0.11897 0.44092,-0.35693 V 2.72412 h 1.11279 c 0.25195,0 0.37793,-0.13997 0.37793,-0.41992 0,-0.23796 -0.12598,-0.35693 -0.37793,-0.35693 H 3.45557 V 1.52734 c 0,-0.29394 -0.14698,-0.44091 -0.44092,-0.44091 -0.22396,0 -0.33594,0.14697 -0.33594,0.44091 V 1.94727 H 1.54492 m 0.5249,4.78711 C 2.06982,6.21647 1.89836,5.77205 1.55542,5.40112 1.21248,5.03019 0.768066,4.84473 0.222168,4.84473 c -0.517904,0 -0.962321,0.18546 -1.333248,0.55639 -0.37093,0.37093 -0.5564,0.81535 -0.5564,1.33326 0,0.57389 0.18547,1.0533 0.5564,1.43823 C -0.740153,8.55754 -0.295736,8.75 0.222168,8.75 0.768066,8.75 1.21248,8.55754 1.55542,8.17261 1.89836,7.78768 2.06982,7.30827 2.06982,6.73438 M -0.806641,2.3042 c 0,-0.23796 -0.118977,-0.35693 -0.356929,-0.35693 h -1.1128 V 1.52734 c 0,-0.29394 -0.11198,-0.44091 -0.33593,-0.44091 -0.23796,0 -0.35694,0.14697 -0.35694,0.44091 v 0.41993 h -1.15478 c -0.27995,0 -0.41993,0.11897 -0.41993,0.35693 0,0.27995 0.13998,0.41992 0.41993,0.41992 h 1.15478 v 0.86084 c 0,0.23796 0.11898,0.35693 0.35694,0.35693 0.22395,0 0.33593,-0.11897 0.33593,-0.35693 V 2.72412 h 1.1128 c 0.237952,0 0.356929,-0.13997 0.356929,-0.41992 M -4.81689,-0.76123 c -0.11198,0.125976 -0.11198,0.300944 0,0.524902 0.05599,0.083984 0.14697,0.125976 0.27294,0.125976 0.05599,0 0.09799,-0.020996 0.12598,-0.062988 0.028,-0.041992 0.06999,-0.090983 0.12598,-0.146973 0.05599,-0.055989 0.16447,-0.15747 0.32544,-0.304443 0.16097,-0.146973 0.36043,-0.290446 0.59839,-0.430424 0.23795,-0.13997 0.5214,-0.26945 0.85034,-0.38842 0.32894,-0.11898 0.69637,-0.17847 1.10229,-0.17847 0.23796,0 0.35694,-0.11198 0.35694,-0.33594 0,-0.27995 -0.11898,-0.41992 -0.35694,-0.41992 -0.48991,0 -0.93432,0.06299 -1.33325,0.18897 -0.39893,0.12597 -0.73486,0.27644 -1.00781,0.45141 -0.27295,0.17497 -0.50391,0.35344 -0.69287,0.5354 -0.18897,0.18197 -0.31144,0.32894 -0.36743,0.44092 M 0.222168,13.1802 c 0.769857,0 1.501222,-0.1575 2.194092,-0.4724 0.69287,-0.315 1.29476,-0.6894 1.80566,-1.1233 C 4.73283,11.1506 5.13875,10.7131 5.4397,10.2722 5.74064,9.8313 5.89111,9.46387 5.89111,9.16992 5.89111,8.88997 5.74764,8.79199 5.46069,8.87598 5.17375,8.95996 4.77482,9.11743 4.26392,9.34839 3.75301,9.57935 3.15112,9.8103 2.45825,10.0413 1.76538,10.2722 1.02002,10.3877 0.222168,10.3877 -0.603678,10.3877 -1.36304,10.2722 -2.05591,10.0413 -2.74878,9.8103 -3.35067,9.57935 -3.86157,9.34839 -4.37248,9.11743 -4.7714,8.95996 -5.05835,8.87598 -5.3453,8.79199 -5.48877,8.88997 -5.48877,9.16992 c 0,0.29395 0.15047,0.66138 0.45142,1.10228 0.30094,0.4409 0.71386,0.8784 1.23877,1.3123 0.5249,0.4339 1.13379,0.8083 1.82666,1.1233 0.69287,0.3149 1.424231,0.4724 2.194088,0.4724"
         fill-rule="evenodd"
         vector-effect="none" />
    </g>
    <g
       id="g16"
       font-style="normal"
       font-weight="400"
       font-size="7.8px"
       font-family="'MS Shell Dlg 2'"
       stroke="none"
       fill-opacity="1"
       fill="#53a54f" />
  </g>
</svg>
