<?xml version="1.0" encoding="UTF-8" standalone="no"?>
<svg width="11.2889mm" height="11.2889mm"
 viewBox="0 0 32 32"
 xmlns="http://www.w3.org/2000/svg" xmlns:xlink="http://www.w3.org/1999/xlink"  version="1.2" baseProfile="tiny">
<title>Qt SVG Document</title>
<desc>Generated with Qt</desc>
<defs>
</defs>
<g fill="none" stroke="black" stroke-width="1" fill-rule="evenodd" stroke-linecap="square" stroke-linejoin="bevel" >

<g fill="#53a54f" fill-opacity="1" stroke="none" transform="matrix(1,0,0,1,0,0)"
font-family="MS Shell Dlg 2" font-size="7.8" font-weight="400" font-style="normal" 
>
<path vector-effect="non-scaling-stroke" fill-rule="evenodd" d="M37.2598,16 C37.2598,27.7415 27.7415,37.2598 16,37.2598 C4.25851,37.2598 -5.25984,27.7415 -5.25984,16 C-5.25984,4.25851 4.25851,-5.25984 16,-5.25984 C27.7415,-5.25984 37.2598,4.25851 37.2598,16 "/>
</g>

<g fill="#ffffff" fill-opacity="0.94902" stroke="none" transform="matrix(1,0,0,1,16,13.1654)"
font-family="MS Shell Dlg 2" font-size="7.8" font-weight="400" font-style="normal" 
>
<path vector-effect="none" fill-rule="evenodd" d="M8.1377,7.51123 C7.99772,7.51123 7.92074,7.46574 7.90674,7.37476 C7.89274,7.28377 7.88574,7.04232 7.88574,6.65039 C7.88574,6.38444 7.87524,6.087 7.85425,5.75806 C7.83325,5.42912 7.78076,5.06169 7.69678,4.65576 C7.64079,4.51579 7.63379,4.36882 7.67578,4.21484 C7.71777,4.06087 7.78776,3.94189 7.88574,3.85791 C8.08171,3.56396 8.30566,3.41699 8.55762,3.41699 L8.72559,3.41699 C8.96354,3.50098 9.15951,3.69344 9.31348,3.99438 C9.46745,4.29533 9.51644,4.66276 9.46045,5.09668 C9.40446,5.34863 9.32747,5.61808 9.22949,5.90503 C9.13151,6.19198 9.00903,6.45093 8.86206,6.68188 C8.71509,6.91284 8.57861,7.10881 8.45264,7.26978 C8.32666,7.43075 8.22168,7.51123 8.1377,7.51123 M-7.4834,3.85791 C-7.38542,3.94189 -7.31543,4.06087 -7.27344,4.21484 C-7.23145,4.36882 -7.23844,4.51579 -7.29443,4.65576 C-7.39242,5.06169 -7.4484,5.42912 -7.4624,5.75806 C-7.4764,6.087 -7.4834,6.38444 -7.4834,6.65039 C-7.42741,7.04232 -7.42041,7.28377 -7.4624,7.37476 C-7.50439,7.46574 -7.59538,7.51123 -7.73535,7.51123 C-7.93132,7.51123 -8.16577,7.23828 -8.43872,6.69238 C-8.71167,6.14648 -8.89014,5.61458 -8.97412,5.09668 C-9.05811,4.66276 -9.03711,4.29533 -8.91113,3.99438 C-8.78516,3.69344 -8.61019,3.50098 -8.38623,3.41699 L-8.19727,3.41699 C-7.91732,3.41699 -7.67936,3.56396 -7.4834,3.85791 M11.4551,-2.90283 C11.875,-2.90283 12.2494,-2.75236 12.5784,-2.45142 C12.9073,-2.15047 13.0718,-1.78304 13.0718,-1.34912 C13.0718,-1.01318 12.9423,-0.694743 12.6833,-0.393799 C12.4244,-0.0928548 12.099,0.085612 11.707,0.141602 C11.3851,0.141602 11.1261,0.288574 10.9302,0.58252 C10.8462,0.862467 10.8462,1.14941 10.9302,1.44336 C11.0142,1.52734 11.0632,1.61133 11.0771,1.69531 C11.0911,1.7793 11.0981,1.89827 11.0981,2.05225 C11.0981,2.2762 11.0701,2.44417 11.0142,2.55615 C10.8182,2.93408 10.8462,3.24902 11.0981,3.50098 C11.2941,3.82292 11.3501,4.27083 11.2661,4.84473 C11.2381,5.06868 11.1751,5.32414 11.0771,5.61108 C10.9792,5.89803 10.8567,6.17098 10.7097,6.42993 C10.5627,6.68888 10.4193,6.90234 10.2793,7.07031 C10.1393,7.23828 10.0133,7.32227 9.90137,7.32227 L9.7334,7.32227 C9.57943,7.32227 9.46045,7.33976 9.37646,7.37476 C9.29248,7.40975 9.2085,7.45524 9.12451,7.51123 C8.85856,7.70719 8.69759,7.90316 8.6416,8.09912 C8.58561,9.02295 8.37915,9.75081 8.02222,10.2827 C7.66528,10.8146 7.18587,11.2065 6.58398,11.4585 C5.92611,12.6063 5.04427,13.5231 3.93848,14.209 C2.83268,14.8949 1.59391,15.2378 0.222168,15.2378 C-1.12158,15.2378 -2.34635,14.8949 -3.45215,14.209 C-4.55794,13.5231 -5.43978,12.6203 -6.09766,11.5005 C-6.69954,11.2485 -7.19295,10.8566 -7.57788,10.3247 C-7.96281,9.79281 -8.20426,9.05094 -8.30225,8.09912 C-8.30225,7.90316 -8.44222,7.70719 -8.72217,7.51123 C-8.94613,7.38525 -9.12109,7.32227 -9.24707,7.32227 L-9.49902,7.32227 C-9.611,7.32227 -9.74048,7.23828 -9.88745,7.07031 C-10.0344,6.90234 -10.1709,6.68888 -10.2969,6.42993 C-10.4229,6.17098 -10.5418,5.89803 -10.6538,5.61108 C-10.7658,5.32414 -10.8358,5.06868 -10.8638,4.84473 C-10.9198,4.57878 -10.9268,4.32332 -10.8848,4.07837 C-10.8428,3.83341 -10.7518,3.64095 -10.6118,3.50098 C-10.4718,3.27702 -10.4438,2.96208 -10.5278,2.55615 C-10.6398,2.33219 -10.6958,2.16423 -10.6958,2.05225 C-10.6958,1.89827 -10.6818,1.7793 -10.6538,1.69531 C-10.6258,1.61133 -10.5838,1.52734 -10.5278,1.44336 C-10.3319,1.14941 -10.3319,0.862467 -10.5278,0.58252 C-10.7238,0.288574 -10.9548,0.141602 -11.2207,0.141602 C-11.6126,0.085612 -11.9451,-0.0928548 -12.218,-0.393799 C-12.491,-0.694743 -12.6274,-1.01318 -12.6274,-1.34912 C-12.6274,-1.78304 -12.47,-2.15047 -12.155,-2.45142 C-11.8401,-2.75236 -11.4727,-2.90283 -11.0527,-2.90283 C-10.6468,-2.90283 -10.3599,-3.0778 -10.1919,-3.42773 C-10.0939,-3.81966 -10.1779,-4.1766 -10.4438,-4.49854 C-10.7798,-4.75049 -10.9478,-5.06543 -10.9478,-5.44336 C-10.9478,-5.7793 -10.8218,-6.07674 -10.5698,-6.33569 C-10.3179,-6.59465 -9.98893,-6.72412 -9.58301,-6.72412 C-8.92513,-6.72412 -8.49821,-6.43717 -8.30225,-5.86328 C-8.23226,-5.69531 -8.14128,-5.56934 -8.0293,-5.48535 C-7.91732,-5.40137 -7.79134,-5.33138 -7.65137,-5.27539 L-7.39941,-5.27539 C-7.30143,-5.27539 -7.19645,-5.28239 -7.08447,-5.29639 C-6.97249,-5.31038 -6.87451,-5.35938 -6.79053,-5.44336 C-6.70654,-5.52734 -6.59806,-5.60433 -6.46509,-5.67432 C-6.33211,-5.7443 -6.15365,-5.7793 -5.92969,-5.7793 C-5.60775,-5.7793 -5.3278,-5.68831 -5.08984,-5.50635 C-4.85189,-5.32438 -4.69792,-5.07243 -4.62793,-4.75049 C-4.54395,-4.47054 -4.40397,-4.28158 -4.20801,-4.18359 C-5.15983,-3.58171 -5.91219,-2.80835 -6.46509,-1.86353 C-7.01799,-0.918701 -7.29443,0.127604 -7.29443,1.27539 C-7.29443,1.49935 -7.28044,1.7408 -7.25244,1.99976 C-7.22445,2.25871 -7.20345,2.48267 -7.18945,2.67163 C-7.17546,2.8606 -7.17546,2.99707 -7.18945,3.08105 C-7.20345,3.16504 -7.23844,3.16504 -7.29443,3.08105 C-7.58838,2.78711 -7.86483,2.62614 -8.12378,2.59814 C-8.38273,2.57015 -8.60319,2.60514 -8.78516,2.70313 C-8.96712,2.80111 -9.13159,2.94458 -9.27856,3.13354 C-9.42554,3.32251 -9.52702,3.50098 -9.58301,3.66895 C-9.69499,4.07487 -9.71598,4.4563 -9.646,4.81323 C-9.57601,5.17017 -9.47453,5.49211 -9.34155,5.77905 C-9.20858,6.066 -9.0721,6.32495 -8.93213,6.55591 C-8.79215,6.78687 -8.69417,6.95833 -8.63818,7.07031 C-8.41423,7.64421 -8.20076,8.03263 -7.9978,8.2356 C-7.79484,8.43856 -7.4904,8.54004 -7.08447,8.54004 C-7.11247,8.40007 -7.12646,8.2356 -7.12646,8.04663 C-7.12646,7.85767 -7.12646,7.6792 -7.12646,7.51123 C-7.12646,6.85335 -7.04948,6.21297 -6.89551,5.59009 C-6.74154,4.9672 -6.53158,4.38981 -6.26563,3.85791 C-6.32161,3.67594 -6.34961,3.48698 -6.34961,3.29102 C-6.34961,3.09505 -6.34961,2.90609 -6.34961,2.72412 C-6.34961,1.7863 -6.17814,0.90096 -5.83521,0.0681152 C-5.49227,-0.76473 -5.01986,-1.4891 -4.41797,-2.10498 C-3.81608,-2.72087 -3.12321,-3.20728 -2.33936,-3.56421 C-1.5555,-3.92114 -0.70166,-4.09961 0.222168,-4.09961 C1.104,-4.09961 1.94035,-3.92114 2.7312,-3.56421 C3.52205,-3.20728 4.21842,-2.72087 4.82031,-2.10498 C5.4222,-1.4891 5.89461,-0.76473 6.23755,0.0681152 C6.58049,0.90096 6.75195,1.7863 6.75195,2.72412 C6.75195,2.90609 6.75195,3.09505 6.75195,3.29102 C6.75195,3.48698 6.72396,3.67594 6.66797,3.85791 C7.29785,4.9637 7.61279,6.18148 7.61279,7.51123 C7.61279,7.6792 7.61279,7.84717 7.61279,8.01514 C7.61279,8.18311 7.5988,8.35807 7.5708,8.54004 C7.92074,8.51204 8.19368,8.39657 8.38965,8.1936 C8.58561,7.99064 8.80257,7.61621 9.04053,7.07031 C9.09652,6.95833 9.1945,6.78687 9.33447,6.55591 C9.47445,6.32495 9.61092,6.066 9.7439,5.77905 C9.87687,5.49211 9.97835,5.17017 10.0483,4.81323 C10.1183,4.4563 10.0973,4.07487 9.98535,3.66895 C9.92936,3.50098 9.83488,3.32251 9.7019,3.13354 C9.56893,2.94458 9.40446,2.80111 9.2085,2.70313 C9.01253,2.60514 8.78507,2.57015 8.52612,2.59814 C8.26717,2.62614 7.99072,2.78711 7.69678,3.08105 C7.64079,3.16504 7.61279,3.16504 7.61279,3.08105 C7.61279,2.99707 7.62679,2.8606 7.65479,2.67163 C7.68278,2.48267 7.71077,2.25871 7.73877,1.99976 C7.76676,1.7408 7.78076,1.49935 7.78076,1.27539 C7.78076,0.127604 7.48682,-0.918701 6.89893,-1.86353 C6.31104,-2.80835 5.53418,-3.58171 4.56836,-4.18359 C4.79232,-4.28158 4.94629,-4.47054 5.03027,-4.75049 C5.12826,-5.07243 5.28923,-5.32438 5.51318,-5.50635 C5.73714,-5.68831 6.01009,-5.7793 6.33203,-5.7793 C6.55599,-5.7793 6.73446,-5.7443 6.86743,-5.67432 C7.00041,-5.60433 7.10889,-5.52734 7.19287,-5.44336 C7.27686,-5.35938 7.37484,-5.31038 7.48682,-5.29639 C7.5988,-5.28239 7.69678,-5.27539 7.78076,-5.27539 L8.05371,-5.27539 C8.33366,-5.35938 8.55762,-5.55534 8.72559,-5.86328 C8.82357,-6.12923 8.99154,-6.33919 9.22949,-6.49316 C9.46745,-6.64714 9.7194,-6.72412 9.98535,-6.72412 C10.3913,-6.72412 10.7202,-6.59465 10.9722,-6.33569 C11.2241,-6.07674 11.3501,-5.7793 11.3501,-5.44336 C11.3501,-5.06543 11.1821,-4.75049 10.8462,-4.49854 C10.5802,-4.1766 10.4963,-3.81966 10.5942,-3.42773 C10.7622,-3.0778 11.0492,-2.90283 11.4551,-2.90283 M1.81787,-2.37793 C1.57992,-2.37793 1.46094,-2.23796 1.46094,-1.95801 C1.46094,-1.73405 1.57992,-1.62207 1.81787,-1.62207 C2.2098,-1.62207 2.57373,-1.56258 2.90967,-1.4436 C3.24561,-1.32463 3.52555,-1.19515 3.74951,-1.05518 C3.97347,-0.915202 4.16593,-0.771729 4.3269,-0.624756 C4.48787,-0.477783 4.59635,-0.376302 4.65234,-0.320313 C4.70833,-0.264323 4.75732,-0.215332 4.79932,-0.17334 C4.84131,-0.131348 4.8903,-0.110352 4.94629,-0.110352 C5.05827,-0.110352 5.14925,-0.152344 5.21924,-0.236328 C5.35921,-0.376302 5.38721,-0.55127 5.30322,-0.76123 C5.21924,-0.87321 5.08276,-1.02018 4.8938,-1.20215 C4.70483,-1.38411 4.46688,-1.56258 4.17993,-1.73755 C3.89299,-1.91252 3.55005,-2.06299 3.15112,-2.18896 C2.7522,-2.31494 2.30778,-2.37793 1.81787,-2.37793 M1.54492,1.94727 C1.32096,1.94727 1.20898,2.06624 1.20898,2.3042 C1.20898,2.58415 1.32096,2.72412 1.54492,2.72412 L2.67871,2.72412 L2.67871,3.58496 C2.67871,3.82292 2.79069,3.94189 3.01465,3.94189 C3.30859,3.94189 3.45557,3.82292 3.45557,3.58496 L3.45557,2.72412 L4.56836,2.72412 C4.82031,2.72412 4.94629,2.58415 4.94629,2.3042 C4.94629,2.06624 4.82031,1.94727 4.56836,1.94727 L3.45557,1.94727 L3.45557,1.52734 C3.45557,1.2334 3.30859,1.08643 3.01465,1.08643 C2.79069,1.08643 2.67871,1.2334 2.67871,1.52734 L2.67871,1.94727 L1.54492,1.94727 M2.06982,6.73438 C2.06982,6.21647 1.89836,5.77205 1.55542,5.40112 C1.21248,5.03019 0.768066,4.84473 0.222168,4.84473 C-0.295736,4.84473 -0.740153,5.03019 -1.11108,5.40112 C-1.48201,5.77205 -1.66748,6.21647 -1.66748,6.73438 C-1.66748,7.30827 -1.48201,7.78768 -1.11108,8.17261 C-0.740153,8.55754 -0.295736,8.75 0.222168,8.75 C0.768066,8.75 1.21248,8.55754 1.55542,8.17261 C1.89836,7.78768 2.06982,7.30827 2.06982,6.73438 M-0.806641,2.3042 C-0.806641,2.06624 -0.925618,1.94727 -1.16357,1.94727 L-2.27637,1.94727 L-2.27637,1.52734 C-2.27637,1.2334 -2.38835,1.08643 -2.6123,1.08643 C-2.85026,1.08643 -2.96924,1.2334 -2.96924,1.52734 L-2.96924,1.94727 L-4.12402,1.94727 C-4.40397,1.94727 -4.54395,2.06624 -4.54395,2.3042 C-4.54395,2.58415 -4.40397,2.72412 -4.12402,2.72412 L-2.96924,2.72412 L-2.96924,3.58496 C-2.96924,3.82292 -2.85026,3.94189 -2.6123,3.94189 C-2.38835,3.94189 -2.27637,3.82292 -2.27637,3.58496 L-2.27637,2.72412 L-1.16357,2.72412 C-0.925618,2.72412 -0.806641,2.58415 -0.806641,2.3042 M-4.81689,-0.76123 C-4.92887,-0.635254 -4.92887,-0.460286 -4.81689,-0.236328 C-4.7609,-0.152344 -4.66992,-0.110352 -4.54395,-0.110352 C-4.48796,-0.110352 -4.44596,-0.131348 -4.41797,-0.17334 C-4.38997,-0.215332 -4.34798,-0.264323 -4.29199,-0.320313 C-4.236,-0.376302 -4.12752,-0.477783 -3.96655,-0.624756 C-3.80558,-0.771729 -3.60612,-0.915202 -3.36816,-1.05518 C-3.13021,-1.19515 -2.84676,-1.32463 -2.51782,-1.4436 C-2.18888,-1.56258 -1.82145,-1.62207 -1.41553,-1.62207 C-1.17757,-1.62207 -1.05859,-1.73405 -1.05859,-1.95801 C-1.05859,-2.23796 -1.17757,-2.37793 -1.41553,-2.37793 C-1.90544,-2.37793 -2.34985,-2.31494 -2.74878,-2.18896 C-3.14771,-2.06299 -3.48364,-1.91252 -3.75659,-1.73755 C-4.02954,-1.56258 -4.2605,-1.38411 -4.44946,-1.20215 C-4.63843,-1.02018 -4.7609,-0.87321 -4.81689,-0.76123 M0.222168,13.1802 C0.992025,13.1802 1.72339,13.0227 2.41626,12.7078 C3.10913,12.3928 3.71102,12.0184 4.22192,11.5845 C4.73283,11.1506 5.13875,10.7131 5.4397,10.2722 C5.74064,9.8313 5.89111,9.46387 5.89111,9.16992 C5.89111,8.88997 5.74764,8.79199 5.46069,8.87598 C5.17375,8.95996 4.77482,9.11743 4.26392,9.34839 C3.75301,9.57935 3.15112,9.8103 2.45825,10.0413 C1.76538,10.2722 1.02002,10.3877 0.222168,10.3877 C-0.603678,10.3877 -1.36304,10.2722 -2.05591,10.0413 C-2.74878,9.8103 -3.35067,9.57935 -3.86157,9.34839 C-4.37248,9.11743 -4.7714,8.95996 -5.05835,8.87598 C-5.3453,8.79199 -5.48877,8.88997 -5.48877,9.16992 C-5.48877,9.46387 -5.3383,9.8313 -5.03735,10.2722 C-4.73641,10.7131 -4.32349,11.1506 -3.79858,11.5845 C-3.27368,12.0184 -2.66479,12.3928 -1.97192,12.7078 C-1.27905,13.0227 -0.547689,13.1802 0.222168,13.1802 "/>
</g>

<g fill="#53a54f" fill-opacity="1" stroke="none" transform="matrix(1,0,0,1,0,0)"
font-family="MS Shell Dlg 2" font-size="7.8" font-weight="400" font-style="normal" 
>
</g>
</g>
</svg>
