<svg xmlns="http://www.w3.org/2000/svg" version="1.2" viewBox="0 0 42.52 42.52" height="56.693" width="56.693">
   <g stroke-linejoin="bevel" stroke-linecap="square" fill-rule="evenodd" stroke="none" fill="none" font-weight="400"
      font-size="7.8" font-family="'MS Shell Dlg 2'">
      <path
         d="M42.52 21.26C42.52 33 33 42.52 21.26 42.52 9.518 42.52 0 33 0 21.26 0 9.518 9.518 0 21.26 0 33 0 42.52 9.518 42.52 21.26"
         vector-effect="non-scaling-stroke" fill="#53a54f" />
      <path
         d="M24.128 32.088a7.36 7.36 0 01-5.291-2.205 7.874 7.874 0 01-1.607-2.414 7.387 7.387 0 01-.598-2.96c0-1.036.192-2.012.577-2.93a7.517 7.517 0 011.596-2.403 7.662 7.662 0 012.373-1.627 7.114 7.114 0 012.908-.599c1.021 0 1.987.196 2.897.588a7.569 7.569 0 014 3.99c.399.91.598 1.882.598 2.918 0 1.05-.192 2.04-.577 2.97a7.546 7.546 0 01-1.585 2.426 7.645 7.645 0 01-2.373 1.637 7.081 7.081 0 01-2.918.61m3.947-9.449a4.02 4.02 0 00-.305-1.554 3.989 3.989 0 00-2.1-2.152 3.722 3.722 0 00-1.542-.325 3.942 3.942 0 00-2.814 1.155c-.364.364-.654.79-.871 1.28a3.845 3.845 0 00-.326 1.575c0 .546.102 1.06.305 1.543.203.483.483.91.84 1.281.356.371.773.665 1.249.882.476.217.987.325 1.533.325a3.996 3.996 0 003.705-2.414c.217-.49.326-1.022.326-1.596m-7.58 14.235h-3.422a.22.22 0 01-.158-.073.607.607 0 01-.115-.158 816.936 816.936 0 01-1.323-3.075 366.983 366.983 0 00-1.323-3.055c-1.035-2.366-2.064-4.721-3.086-7.066-1.022-2.344-2.044-4.7-3.065-7.065-.028-.028-.063-.105-.105-.23.224-.127.45-.246.682-.358.23-.112.472-.238.724-.378 1.876 3.598 3.738 7.17 5.585 10.719 1.848 3.548 3.717 7.128 5.606 10.74m-5.144-25.868c1.162-.35 2.247-.252 3.255.294a4.174 4.174 0 011.774 1.89c.385.812.5 1.659.346 2.54-.028.098-.06.179-.094.242a.628.628 0 01-.22.2c-1.429.63-2.618 1.588-3.57 2.876-.07.112-.19.168-.357.168a3.87 3.87 0 01-1.617-.389 4.188 4.188 0 01-1.302-.976 4.505 4.505 0 01-.85-1.396 3.754 3.754 0 01-.241-1.648v-.179c0-.063.007-.136.02-.22.295.294.606.5.935.619.329.119.69.13 1.081.031a2.37 2.37 0 001.365-.944c.14-.196.248-.427.325-.693.077-.266.105-.54.084-.82a2.065 2.065 0 00-.251-.828c-.147-.273-.375-.529-.683-.767m8.294 4.346a4.925 4.925 0 011.091-1.89 5.841 5.841 0 011.712-1.29 5.839 5.839 0 012.047-.578 4.872 4.872 0 012.141.273c-.448.308-.77.665-.966 1.07a3.021 3.021 0 00-.105 2.457c.154.392.364.735.63 1.03.238.265.532.49.882.671.35.182.718.294 1.103.336.384.042.776-.01 1.175-.157.4-.147.767-.41 1.103-.788.112.364.143.788.094 1.27a6.35 6.35 0 01-.325 1.45 6.23 6.23 0 01-.662 1.353c-.273.42-.57.742-.892.966-.686-1.945-1.848-3.478-3.485-4.598-1.624-1.12-3.472-1.645-5.543-1.575m7.957-.566a21.252 21.252 0 00-.483-.872 69.784 69.784 0 01-.525-.913c.196-.098.385-.196.567-.294l.546-.294a.188.188 0 01.137.01.847.847 0 01.136.074c.056.028.116.07.179.126.063.056.136.112.22.168-.14.084-.27.164-.388.241a64.45 64.45 0 01-.41.263c.084.182.175.336.273.462.14-.07.273-.133.399-.19a4.19 4.19 0 01.378-.146c.252-.084.448-.028.588.168.098.168.203.325.315.472.112.147.217.305.315.473a.84.84 0 01.042.524c-.084.294-.26.574-.525.84-.266.266-.553.434-.861.504-.042-.098-.088-.2-.137-.304a4.578 4.578 0 01-.136-.326c.098-.042.192-.087.283-.136.091-.05.172-.109.242-.179.182-.112.329-.245.44-.399.183-.265.169-.51-.041-.734a.512.512 0 00-.326-.19.524.524 0 00-.346.085c-.154.084-.301.175-.441.273-.14.098-.287.196-.44.294m-17.91-.504a1.314 1.314 0 00-.253-.168 2.348 2.348 0 01-.251-.147l.587-.966c.196-.322.406-.651.63-.987a1.855 1.855 0 00-.304-.052 2.996 2.996 0 01-.263-.032c.196-.266.4-.402.61-.41.21-.006.475.123.797.39-.14.195-.27.391-.388.587a9.448 9.448 0 01-.389.588c-.126.196-.252.395-.378.598-.126.203-.259.403-.399.599m-6.004 1.47c-.098-.253-.109-.48-.032-.683a.8.8 0 01.43-.451c.448-.182.805-.042 1.071.42l-.724.335c-.245.112-.493.238-.745.378m15.41 6.572a4.245 4.245 0 00-.178-.136 8.478 8.478 0 01-.157-.116c-.154-.14-.26-.3-.315-.483a1.254 1.254 0 01.136-1.07c.105-.168.249-.308.43-.42.323-.196.655-.305.998-.326a2.26 2.26 0 011.018.179c.224.098.403.234.536.409.133.175.21.364.23.567.022.203-.01.406-.094.609a1.27 1.27 0 01-.44.535.329.329 0 01-.085.063.329.329 0 00-.084.063c.042.028.08.05.116.063a.28.28 0 01.094.063c.224.126.392.29.504.494a1.4 1.4 0 01.042 1.29c-.098.21-.252.393-.462.547a1.866 1.866 0 01-.588.252 3.205 3.205 0 01-.682.094 2.786 2.786 0 01-.682-.063 1.706 1.706 0 01-.588-.241 1.273 1.273 0 01-.63-1.092c0-.21.052-.413.157-.609.105-.196.263-.364.473-.504.07-.042.154-.098.252-.168m1.7 1.26a.831.831 0 00-.23-.556.854.854 0 00-.525-.305c-.154 0-.298.077-.43.231a.86.86 0 00-.221.504c0 .21.066.388.2.535.132.147.304.22.514.22a.621.621 0 00.493-.167c.133-.126.2-.28.2-.462m-1.323-2.457c0 .168.08.336.241.504.161.168.319.245.473.231.125 0 .244-.073.356-.22a.738.738 0 00.168-.452.643.643 0 00-.168-.44.562.562 0 00-.44-.19c-.196 0-.35.056-.462.168a.545.545 0 00-.168.4"
         fill-opacity=".949" fill="#fff" />
   </g>
</svg>