<?xml version="1.0" encoding="UTF-8" standalone="no"?>
<svg
   xmlns:dc="http://purl.org/dc/elements/1.1/"
   xmlns:cc="http://creativecommons.org/ns#"
   xmlns:rdf="http://www.w3.org/1999/02/22-rdf-syntax-ns#"
   xmlns:svg="http://www.w3.org/2000/svg"
   xmlns="http://www.w3.org/2000/svg"
   xmlns:sodipodi="http://sodipodi.sourceforge.net/DTD/sodipodi-0.dtd"
   xmlns:inkscape="http://www.inkscape.org/namespaces/inkscape"
   inkscape:version="1.0 (4035a4fb49, 2020-05-01)"
   sodipodi:docname="1612.svg"
   id="svg20"
   version="1.2"
   viewBox="0 0 42.519639 42.519639"
   height="14.999999mm"
   width="14.999999mm">
  <metadata
     id="metadata24">
    <rdf:RDF>
      <cc:Work
         rdf:about="">
        <dc:format>image/svg+xml</dc:format>
        <dc:type
           rdf:resource="http://purl.org/dc/dcmitype/StillImage" />
        <dc:title>Qt SVG Document</dc:title>
      </cc:Work>
    </rdf:RDF>
  </metadata>
  <sodipodi:namedview
     inkscape:current-layer="svg20"
     inkscape:window-maximized="0"
     inkscape:window-y="0"
     inkscape:window-x="0"
     inkscape:cy="28.346482"
     inkscape:cx="28.346482"
     inkscape:zoom="5.8410537"
     showgrid="false"
     id="namedview22"
     inkscape:window-height="480"
     inkscape:window-width="1034"
     inkscape:pageshadow="2"
     inkscape:pageopacity="0"
     guidetolerance="10"
     gridtolerance="10"
     objecttolerance="10"
     borderopacity="1"
     bordercolor="#666666"
     pagecolor="#ffffff" />
  <title
     id="title2">Qt SVG Document</title>
  <desc
     id="desc4">Generated with Qt</desc>
  <defs
     id="defs6" />
  <g
     transform="translate(5.25984,5.25984)"
     id="g18"
     stroke-linejoin="bevel"
     stroke-linecap="square"
     fill-rule="evenodd"
     stroke-width="1"
     stroke="#000000"
     fill="none">
    <g
       id="g10"
       font-style="normal"
       font-weight="400"
       font-size="7.8px"
       font-family="'MS Shell Dlg 2'"
       stroke="none"
       fill-opacity="1"
       fill="#53a54f">
      <path
         id="path8"
         d="M 37.2598,16 C 37.2598,27.7415 27.7415,37.2598 16,37.2598 4.25851,37.2598 -5.25984,27.7415 -5.25984,16 -5.25984,4.25851 4.25851,-5.25984 16,-5.25984 27.7415,-5.25984 37.2598,4.25851 37.2598,16"
         fill-rule="evenodd"
         vector-effect="non-scaling-stroke" />
    </g>
    <g
       id="g14"
       font-style="normal"
       font-weight="400"
       font-size="7.8px"
       font-family="'MS Shell Dlg 2'"
       transform="translate(16,13.1654)"
       stroke="none"
       fill-opacity="0.94902"
       fill="#ffffff">
      <path
         id="path12"
         d="m 2.86768,13.6631 c -1.03581,0 -2.008631,-0.196 -2.9184613,-0.5879 C -0.960612,12.6833 -1.75146,12.1444 -2.42334,11.4585 -3.09521,10.7726 -3.63062,9.96777 -4.02954,9.04395 -4.42847,8.12012 -4.62793,7.1333 -4.62793,6.0835 c 0,-1.03581 0.19246,-2.01213 0.57739,-2.92896 0.38493,-0.91683 0.91683,-1.71818 1.59571,-2.404052 0.67887,-0.6858721 1.469723,-1.228271 2.3725546,-1.627197 C 0.820557,-1.27563 1.78988,-1.4751 2.82568,-1.4751 c 1.02181,0 1.98763,0.19597 2.89746,0.587893 0.90984,0.391927 1.70419,0.9273274 2.38306,1.606201 0.67887,0.678876 1.21777,1.473226 1.6167,2.383056 0.3989,0.90983 0.5984,1.88265 0.5984,2.91846 0,1.0498 -0.1925,2.04012 -0.5774,2.97095 C 9.35897,9.92228 8.83057,10.7306 8.15869,11.4165 7.48682,12.1024 6.69596,12.6483 5.78613,13.0542 4.8763,13.4601 3.90348,13.6631 2.86768,13.6631 M 6.81494,4.21484 C 6.81494,3.66895 6.71346,3.15104 6.5105,2.66113 6.30754,2.17122 6.02759,1.7443 5.67065,1.38037 5.31372,1.01644 4.8938,0.725993 4.41089,0.509033 3.92798,0.292074 3.41357,0.183594 2.86768,0.183594 c -0.5459,0 -1.06031,0.101481 -1.54322,0.304443 C 0.841553,0.690999 0.418132,0.974447 0.0541992,1.33838 -0.309733,1.70231 -0.600179,2.12923 -0.817139,2.61914 -1.0341,3.10905 -1.14258,3.63395 -1.14258,4.19385 c 0,0.5459 0.10148,1.0603 0.304445,1.54321 0.202962,0.48291 0.48291,0.90983 0.83984398,1.28076 C 0.358643,7.38875 0.775065,7.6827 1.25098,7.89966 1.72689,8.11662 2.23779,8.2251 2.78369,8.2251 3.34359,8.2251 3.86499,8.12362 4.3479,7.92065 4.83081,7.71769 5.25423,7.43774 5.61816,7.08081 5.9821,6.72388 6.27254,6.30046 6.4895,5.81055 6.70646,5.32064 6.81494,4.78874 6.81494,4.21484 M -0.764648,18.4502 H -4.18701 c -0.05599,0 -0.10848,-0.0245 -0.15747,-0.0735 -0.04899,-0.049 -0.08749,-0.1015 -0.11548,-0.1575 -0.44792,-1.0358 -0.88884,-2.0611 -1.32275,-3.0759 -0.43392,-1.0148 -0.87484,-2.0331 -1.32276,-3.0549 -1.03581,-2.36558 -2.06461,-4.72064 -3.08643,-7.06521 -1.0218,-2.34456 -2.0436,-4.699622 -3.0654,-7.06518 -0.028,-0.028 -0.063,-0.10498 -0.105,-0.23096 0.224,-0.12598 0.4514,-0.24495 0.6824,-0.35693 0.2309,-0.11198 0.4724,-0.23796 0.7243,-0.37793 1.8757,3.597328 3.73734,7.17016 5.58499,10.7185 1.84766,3.54831 3.71631,7.12821 5.605962,10.73951 M -5.90869,-7.41699 c 1.16178,-0.34994 2.24658,-0.25196 3.25439,0.29394 0.79785,0.44792 1.38924,1.0778 1.774173,1.88965 0.384928,0.81185 0.500407,1.65869 0.346436,2.54053 -0.027995,0.09798 -0.059489,0.17847 -0.094483,0.24145 -0.034993,0.06299 -0.10848,0.12948 -0.220459,0.19947 C -2.27637,-1.62207 -3.46615,-0.663249 -4.41797,0.624512 -4.48796,0.736491 -4.60693,0.79248 -4.7749,0.79248 -5.3488,0.778483 -5.8877,0.649007 -6.3916,0.404053 -6.89551,0.159098 -7.32943,-0.166341 -7.69336,-0.572266 -8.05729,-0.97819 -8.34074,-1.4436 -8.5437,-1.96851 c -0.20296,-0.5249 -0.28345,-1.0743 -0.24146,-1.64819 0,-0.05599 0,-0.11548 0,-0.17847 0,-0.06298 0.007,-0.13647 0.021,-0.22046 0.29395,0.29395 0.60539,0.50041 0.93433,0.61939 0.32893,0.11898 0.68937,0.12948 1.08129,0.03149 0.5739,-0.15397 1.02881,-0.46891 1.36475,-0.94482 0.13997,-0.19596 0.24845,-0.42692 0.32544,-0.69287 0.07699,-0.26595 0.10498,-0.5389 0.08398,-0.81885 -0.02099,-0.27995 -0.10498,-0.5564 -0.25195,-0.82934 -0.14697,-0.27295 -0.37443,-0.52841 -0.68237,-0.76636 m 8.29346,4.34619 c 0.22395,-0.71387 0.58789,-1.34375 1.09179,-1.88965 0.50391,-0.5459 1.0743,-0.97632 1.71118,-1.29126 0.63689,-0.31494 1.31926,-0.5074 2.04712,-0.57739 0.72787,-0.06999 1.44174,0.02099 2.1416,0.27295 -0.44791,0.30794 -0.76985,0.66487 -0.96582,1.0708 C 8.21468,-5.07943 8.1097,-4.6665 8.0957,-4.24658 8.08171,-3.82666 8.15169,-3.42074 8.30566,-3.02881 8.45964,-2.63688 8.6696,-2.29395 8.93555,-2 c 0.23795,0.26595 0.5319,0.48991 0.88183,0.67187 0.34992,0.18197 0.71732,0.29395 1.10232,0.335942 0.3849,0.041993 0.7768,-0.010502 1.1758,-0.157472 0.3989,-0.14697 0.7663,-0.40942 1.1023,-0.78735 0.1119,0.36393 0.1434,0.78735 0.0944,1.270262 -0.049,0.48291 -0.1574,0.96582 -0.3254,1.44873 C 12.7988,1.26489 12.5784,1.71631 12.3054,2.13623 12.0325,2.55615 11.735,2.87809 11.4131,3.10205 10.7272,1.15641 9.56543,-0.376302 7.92773,-1.49609 6.30404,-2.61589 4.45638,-3.14079 2.38477,-3.0708 m 7.95753,-0.5669 c -0.154,-0.29394 -0.315,-0.58439 -0.48292,-0.87133 -0.16797,-0.28695 -0.34294,-0.59139 -0.52491,-0.91333 0.19597,-0.09799 0.38493,-0.19597 0.5669,-0.29395 0.18193,-0.09798 0.36393,-0.19596 0.54593,-0.29394 0.042,-0.014 0.0874,-0.0105 0.1364,0.01049 0.049,0.021 0.0945,0.0455 0.1365,0.07349 0.056,0.028 0.1155,0.06999 0.1785,0.12598 0.063,0.05599 0.1365,0.11198 0.2204,0.16797 -0.1399,0.08398 -0.2694,0.16447 -0.3884,0.24145 -0.119,0.07699 -0.2554,0.16447 -0.4094,0.26245 0.084,0.18197 0.175,0.33594 0.2729,0.46192 0.14,-0.06999 0.273,-0.13298 0.399,-0.18897 0.1259,-0.05599 0.2519,-0.10498 0.3779,-0.14697 0.2519,-0.08399 0.4479,-0.028 0.5879,0.16797 0.098,0.16797 0.2029,0.32544 0.3149,0.47241 0.112,0.14697 0.217,0.30444 0.315,0.47241 0.07,0.16797 0.084,0.34294 0.042,0.5249 -0.084,0.29395 -0.259,0.5739 -0.5249,0.83985 -0.266,0.26595 -0.5529,0.43392 -0.8609,0.5039 -0.042,-0.09798 -0.0875,-0.19946 -0.1365,-0.30444 -0.0489,-0.10498 -0.0944,-0.21346 -0.1364,-0.32544 0.0979,-0.04199 0.1924,-0.08748 0.2834,-0.13647 0.091,-0.04899 0.1715,-0.10848 0.2415,-0.17847 0.1819,-0.11198 0.3289,-0.24495 0.4409,-0.39893 0.182,-0.26595 0.168,-0.5109 -0.042,-0.73486 -0.098,-0.11198 -0.2065,-0.17497 -0.3254,-0.18896 -0.119,-0.014 -0.2345,0.01399 -0.3465,0.08398 -0.154,0.08398 -0.3009,0.17497 -0.4409,0.27295 -0.14,0.09798 -0.2869,0.19596 -0.4409,0.29394 M -7.56738,-4.1416 c -0.08399,-0.06999 -0.16797,-0.12598 -0.25196,-0.16797 -0.08398,-0.04199 -0.16796,-0.09098 -0.25195,-0.14697 0.19596,-0.32194 0.39193,-0.64388 0.58789,-0.96582 0.19597,-0.32194 0.40593,-0.65088 0.62988,-0.98682 -0.11197,-0.02799 -0.21346,-0.04549 -0.30444,-0.05249 -0.09098,-0.007 -0.17847,-0.0175 -0.26245,-0.03149 0.19596,-0.26595 0.39893,-0.40243 0.60889,-0.40943 0.20996,-0.007 0.47591,0.12248 0.79785,0.38843 -0.13998,0.19596 -0.26945,0.39193 -0.38843,0.58789 -0.11898,0.19596 -0.24845,0.39193 -0.38843,0.58789 -0.12597,0.19596 -0.25195,0.39543 -0.37793,0.59839 -0.12597,0.20296 -0.25895,0.40242 -0.39892,0.59839 m -6.00492,1.46972 c -0.0979,-0.25195 -0.1084,-0.47941 -0.0315,-0.68237 0.077,-0.20296 0.2205,-0.35343 0.4305,-0.45141 0.4479,-0.18197 0.8048,-0.042 1.0708,0.41992 -0.238,0.11198 -0.4794,0.22396 -0.7244,0.33594 -0.245,0.11197 -0.4934,0.23795 -0.7454,0.37792 M 1.83887,3.8999 C 1.76888,3.84391 1.70939,3.79842 1.6604,3.76343 1.61141,3.72843 1.55892,3.68994 1.50293,3.64795 1.34896,3.50798 1.24398,3.34701 1.18799,3.16504 1.132,2.98307 1.1145,2.80111 1.1355,2.61914 1.15649,2.43717 1.21948,2.26221 1.32446,2.09424 1.42944,1.92627 1.57292,1.7863 1.75488,1.67432 2.07682,1.47835 2.40926,1.36987 2.7522,1.34888 3.09513,1.32788 3.43457,1.38737 3.77051,1.52734 3.99447,1.62533 4.17293,1.7618 4.30591,1.93677 4.43888,2.11174 4.51587,2.3007 4.53687,2.50366 4.55786,2.70662 4.52637,2.90959 4.44238,3.11255 4.3584,3.31551 4.21143,3.49398 4.00146,3.64795 3.97347,3.67594 3.94548,3.69694 3.91748,3.71094 3.88949,3.72493 3.86149,3.74593 3.8335,3.77393 c 0.04199,0.02799 0.08048,0.04899 0.11547,0.06298 0.035,0.014 0.06649,0.035 0.09449,0.06299 0.22396,0.12598 0.39192,0.29045 0.5039,0.49341 C 4.65934,4.59627 4.71883,4.80973 4.72583,5.03369 4.73283,5.25765 4.68734,5.47461 4.58936,5.68457 4.49137,5.89453 4.3374,6.0765 4.12744,6.23047 3.95947,6.34245 3.76351,6.42643 3.53955,6.48242 3.31559,6.53841 3.08813,6.56991 2.85718,6.5769 2.62622,6.5839 2.39876,6.56291 2.1748,6.51392 1.95085,6.46493 1.75488,6.38444 1.58691,6.27246 1.37695,6.14648 1.21948,5.98551 1.1145,5.78955 1.00952,5.59359 0.957031,5.39063 0.957031,5.18066 0.957031,4.9707 1.00952,4.76774 1.1145,4.57178 1.21948,4.37581 1.37695,4.20785 1.58691,4.06787 1.6569,4.02588 1.74089,3.96989 1.83887,3.8999 M 3.53955,5.15967 C 3.53955,4.9637 3.46257,4.77824 3.30859,4.60327 3.15462,4.4283 2.97965,4.32682 2.78369,4.29883 c -0.15397,0 -0.29744,0.07698 -0.43042,0.23096 -0.13297,0.15397 -0.20646,0.32194 -0.22046,0.5039 0,0.20996 0.06649,0.38843 0.19947,0.5354 0.13297,0.14697 0.30444,0.22046 0.5144,0.22046 C 3.04264,5.80355 3.20711,5.74756 3.34009,5.62158 3.47306,5.49561 3.53955,5.34163 3.53955,5.15967 M 2.2168,2.70313 c 0,0.16796 0.08048,0.33593 0.24145,0.5039 C 2.61922,3.375 2.77669,3.45199 2.93066,3.43799 3.05664,3.43799 3.17562,3.3645 3.2876,3.21753 3.39958,3.07056 3.45557,2.92008 3.45557,2.76611 3.45557,2.59814 3.39958,2.45117 3.2876,2.3252 3.17562,2.19922 3.02865,2.13623 2.84668,2.13623 2.65072,2.13623 2.49674,2.19222 2.38477,2.3042 2.27279,2.41618 2.2168,2.54915 2.2168,2.70313"
         fill-rule="evenodd"
         vector-effect="none" />
    </g>
    <g
       id="g16"
       font-style="normal"
       font-weight="400"
       font-size="7.8px"
       font-family="'MS Shell Dlg 2'"
       stroke="none"
       fill-opacity="1"
       fill="#53a54f" />
  </g>
</svg>
