<?xml version="1.0" encoding="UTF-8" standalone="no"?>
<svg width="11.25008mm" height="11.25008mm"
 viewBox="-5.3 -5.3 42.52000 42.52000"
 xmlns="http://www.w3.org/2000/svg" xmlns:xlink="http://www.w3.org/1999/xlink"  version="1.2" baseProfile="tiny">
<title>Qt SVG Document</title>
<desc>Generated with Qt</desc>
<defs>
</defs>
<g fill="none" stroke="black" stroke-width="1" fill-rule="evenodd" stroke-linecap="square" stroke-linejoin="bevel" >

<g fill="#53a54f" fill-opacity="1" stroke="none" transform="matrix(1,0,0,1,0,0)"
font-family="MS Shell Dlg 2" font-size="7.8" font-weight="400" font-style="normal" 
>
<path vector-effect="non-scaling-stroke" fill-rule="evenodd" d="M37.2598,16 C37.2598,27.7415 27.7415,37.2598 16,37.2598 C4.25851,37.2598 -5.25984,27.7415 -5.25984,16 C-5.25984,4.25851 4.25851,-5.25984 16,-5.25984 C27.7415,-5.25984 37.2598,4.25851 37.2598,16 "/>
</g>

<g fill="#ffffff" fill-opacity="0.94902" stroke="none" transform="matrix(1,0,0,1,16,12.5984)"
font-family="MS Shell Dlg 2" font-size="7.8" font-weight="400" font-style="normal" 
>
<path vector-effect="none" fill-rule="evenodd" d="M12.7358,-1.95801 C12.7918,-1.81803 12.8198,-1.68156 12.8198,-1.54858 C12.8198,-1.41561 12.8198,-1.30713 12.8198,-1.22314 C12.7918,-1.13916 12.7148,-0.754232 12.5889,-0.0683594 C12.4629,0.617513 12.3194,1.35588 12.1584,2.14673 C11.9975,2.93758 11.847,3.67594 11.707,4.36182 C11.5671,5.04769 11.4831,5.44661 11.4551,5.55859 C11.3851,5.88053 11.2381,6.11149 11.0142,6.25146 C10.7902,6.39144 10.6012,6.49642 10.4473,6.56641 C10.3353,6.56641 9.97135,6.6084 9.35547,6.69238 C8.73958,6.77637 8.06771,6.87435 7.33984,6.98633 C6.61198,7.09831 5.92611,7.19979 5.28223,7.29077 C4.63835,7.38175 4.22542,7.44124 4.04346,7.46924 C3.73551,7.46924 3.53955,7.33626 3.45557,7.07031 C3.38558,6.98633 3.33659,6.89535 3.30859,6.79736 C3.2806,6.69938 3.2946,6.55941 3.35059,6.37744 C3.39258,6.23747 3.46257,5.85954 3.56055,5.24365 C3.65853,4.62777 3.77051,3.96289 3.89648,3.24902 C4.02246,2.53516 4.13794,1.86328 4.24292,1.2334 C4.3479,0.603516 4.41439,0.211589 4.44238,0.0576172 C4.47038,-0.250326 4.56136,-0.54777 4.71533,-0.834717 C4.8693,-1.12166 5.27523,-1.30713 5.93311,-1.39111 C6.22705,-1.4471 6.68197,-1.52759 7.29785,-1.63257 C7.91374,-1.73755 8.55062,-1.83203 9.2085,-1.91602 C9.95036,-2.02799 10.7692,-2.12598 11.665,-2.20996 C12.2109,-2.29395 12.5679,-2.20996 12.7358,-1.95801 M6.41602,6.0835 C6.58398,5.85954 6.66797,5.61808 6.66797,5.35913 C6.66797,5.10018 6.58398,4.90072 6.41602,4.76074 C6.27604,4.60677 6.09058,4.55078 5.85962,4.59277 C5.62866,4.63477 5.4292,4.74674 5.26123,4.92871 C5.05127,5.15267 4.93229,5.38713 4.9043,5.63208 C4.8763,5.87703 4.96729,6.09749 5.17725,6.29346 C5.31722,6.44743 5.50968,6.49992 5.75464,6.45093 C5.99959,6.40194 6.22005,6.27946 6.41602,6.0835 M6.75195,3.75293 C6.96191,3.55697 7.06689,3.32951 7.06689,3.07056 C7.06689,2.8116 6.98991,2.61214 6.83594,2.47217 C6.66797,2.3042 6.46151,2.24121 6.21655,2.2832 C5.9716,2.3252 5.76514,2.45817 5.59717,2.68213 C5.4292,2.8641 5.33822,3.08105 5.32422,3.33301 C5.31022,3.58496 5.37321,3.78792 5.51318,3.94189 C5.68115,4.10986 5.88761,4.17985 6.13257,4.15186 C6.37752,4.12386 6.58398,3.99089 6.75195,3.75293 M7.06689,1.2334 C7.29085,1.05143 7.40283,0.830973 7.40283,0.572021 C7.40283,0.31307 7.31885,0.113607 7.15088,-0.0263672 C6.99691,-0.222331 6.80794,-0.299316 6.58398,-0.257324 C6.36003,-0.215332 6.14307,-0.0823568 5.93311,0.141602 C5.76514,0.323568 5.66715,0.544027 5.63916,0.802979 C5.61117,1.06193 5.68115,1.26139 5.84912,1.40137 C6.00309,1.59733 6.19206,1.67432 6.41602,1.63232 C6.63997,1.59033 6.85693,1.45736 7.06689,1.2334 M10.7622,5.26465 C10.9302,5.04069 11.0212,4.80623 11.0352,4.56128 C11.0492,4.31632 10.9862,4.10986 10.8462,3.94189 C10.4123,3.64795 9.97835,3.70394 9.54443,4.10986 C9.37646,4.33382 9.28548,4.58228 9.27148,4.85522 C9.25749,5.12817 9.32048,5.33464 9.46045,5.47461 C9.67041,5.62858 9.88737,5.68807 10.1113,5.65308 C10.3353,5.61808 10.5522,5.48861 10.7622,5.26465 M11.1821,3.03906 C11.3921,2.80111 11.4971,2.54565 11.4971,2.27271 C11.4971,1.99976 11.4201,1.79329 11.2661,1.65332 C11.0981,1.51335 10.8917,1.46436 10.6467,1.50635 C10.4018,1.54834 10.1953,1.66732 10.0273,1.86328 C9.83138,2.10124 9.7334,2.34269 9.7334,2.58765 C9.7334,2.8326 9.80339,3.03906 9.94336,3.20703 C10.1113,3.34701 10.3178,3.396 10.5627,3.354 C10.8077,3.31201 11.0142,3.20703 11.1821,3.03906 M11.5811,0.666504 C11.749,0.498535 11.847,0.285075 11.875,0.026123 C11.903,-0.232829 11.833,-0.432292 11.665,-0.572266 C11.2311,-0.950195 10.7972,-0.894206 10.3633,-0.404297 C10.1953,-0.208333 10.1043,0.0191243 10.0903,0.278076 C10.0763,0.537028 10.1393,0.736491 10.2793,0.876465 C10.7132,1.25439 11.1471,1.18441 11.5811,0.666504 M0.831055,-4.91846 C0.74707,-4.97445 0.673584,-5.03394 0.610596,-5.09692 C0.547607,-5.15991 0.488118,-5.2194 0.432129,-5.27539 C0.32015,-5.47135 0.32015,-5.62533 0.432129,-5.7373 C0.488118,-5.87728 0.568604,-5.95426 0.673584,-5.96826 C0.778564,-5.98226 0.859049,-5.98926 0.915039,-5.98926 C1.02702,-6.03125 1.28947,-6.06624 1.70239,-6.09424 C2.11532,-6.12223 2.58073,-6.15723 3.09863,-6.19922 C3.61654,-6.24121 4.14144,-6.2832 4.67334,-6.3252 C5.20524,-6.36719 5.65316,-6.40218 6.01709,-6.43018 C6.14307,-6.43018 6.26204,-6.44417 6.37402,-6.47217 C6.59798,-6.52816 6.72396,-6.55615 6.75195,-6.55615 C6.98991,-6.55615 7.26636,-6.52116 7.5813,-6.45117 C7.89624,-6.38118 8.16569,-6.26221 8.38965,-6.09424 C8.50163,-5.99626 8.72209,-5.81429 9.05103,-5.54834 C9.37996,-5.28239 9.7334,-4.99544 10.1113,-4.6875 C10.4893,-4.37956 10.8427,-4.09961 11.1716,-3.84766 C11.5006,-3.5957 11.721,-3.44173 11.833,-3.38574 C11.889,-3.31576 11.917,-3.26676 11.917,-3.23877 C11.917,-3.21077 11.945,-3.19678 12.001,-3.19678 L12.001,-2.86084 C11.945,-2.69287 11.672,-2.56689 11.1821,-2.48291 C10.9862,-2.44092 10.6012,-2.38493 10.0273,-2.31494 C9.45345,-2.24495 8.85156,-2.17497 8.22168,-2.10498 C7.5918,-2.03499 7.0109,-1.97201 6.479,-1.91602 C5.9471,-1.86003 5.62516,-1.83203 5.51318,-1.83203 C5.28923,-1.77604 5.00228,-1.79704 4.65234,-1.89502 C4.30241,-1.993 4.01546,-2.12598 3.7915,-2.29395 C3.62354,-2.41992 3.2876,-2.69637 2.78369,-3.12329 C2.27979,-3.55021 1.82487,-3.96663 1.41895,-4.37256 C1.27897,-4.45654 1.16699,-4.54753 1.08301,-4.64551 C0.999023,-4.74349 0.915039,-4.83447 0.831055,-4.91846 M9.2085,-4.09961 C8.57861,-4.18359 8.22168,-4.09961 8.1377,-3.84766 C8.1377,-3.73568 8.22868,-3.6132 8.41064,-3.48022 C8.59261,-3.34725 8.83057,-3.25277 9.12451,-3.19678 C9.37646,-3.19678 9.60392,-3.21777 9.80688,-3.25977 C10.0098,-3.30176 10.1113,-3.37174 10.1113,-3.46973 C10.1673,-3.6097 10.1043,-3.73568 9.92236,-3.84766 C9.7404,-3.95964 9.50244,-4.04362 9.2085,-4.09961 M6.24805,-4.83447 C5.9541,-4.89046 5.71615,-4.89046 5.53418,-4.83447 C5.35221,-4.77848 5.26123,-4.6805 5.26123,-4.54053 C5.26123,-4.45654 5.33822,-4.36206 5.49219,-4.25708 C5.64616,-4.1521 5.87012,-4.07161 6.16406,-4.01563 C6.41602,-3.95964 6.64347,-3.95264 6.84644,-3.99463 C7.0494,-4.03662 7.15088,-4.1346 7.15088,-4.28857 C7.15088,-4.37256 7.0634,-4.47054 6.88843,-4.58252 C6.71346,-4.6945 6.5,-4.77848 6.24805,-4.83447 M2.23779,-5.35938 C2.1818,-5.27539 2.25529,-5.18091 2.45825,-5.07593 C2.66121,-4.97095 2.88867,-4.89046 3.14063,-4.83447 C3.74251,-4.75049 4.12044,-4.83447 4.27441,-5.08643 C4.27441,-5.18441 4.17293,-5.28939 3.96997,-5.40137 C3.76701,-5.51335 3.51855,-5.59733 3.22461,-5.65332 C2.97266,-5.70931 2.7452,-5.70931 2.54224,-5.65332 C2.33927,-5.59733 2.23779,-5.49935 2.23779,-5.35938 M2.97266,-2.29395 C3.43457,-1.84603 3.72852,-1.4716 3.85449,-1.17065 C3.98047,-0.86971 4.01546,-0.586263 3.95947,-0.320313 C3.95947,-0.180339 3.91748,0.218587 3.8335,0.876465 C3.74951,1.53434 3.65153,2.24121 3.53955,2.99707 C3.41357,3.87891 3.2806,4.85173 3.14063,5.91553 C3.05664,6.6014 2.93766,6.95833 2.78369,6.98633 C2.62972,7.01432 2.47575,6.98633 2.32178,6.90234 C2.1818,6.76237 1.95435,6.53491 1.6394,6.21997 C1.32446,5.90503 0.992025,5.55859 0.64209,5.18066 C0.334147,4.85872 0.0367025,4.57878 -0.250244,4.34082 C-0.537191,4.10286 -0.722656,3.9069 -0.806641,3.75293 C-0.890625,3.69694 -0.953613,3.62695 -0.995605,3.54297 C-1.0376,3.45898 -1.09359,3.375 -1.16357,3.29102 C-1.35954,3.06706 -1.45752,2.73812 -1.45752,2.3042 C-1.42952,2.19222 -1.37354,1.80379 -1.28955,1.13892 C-1.20557,0.47404 -1.11108,-0.243327 -1.0061,-1.01318 C-0.901123,-1.78304 -0.799642,-2.5109 -0.70166,-3.19678 C-0.603678,-3.88265 -0.526693,-4.30257 -0.470703,-4.45654 C-0.414714,-4.84847 -0.306234,-5.03743 -0.145264,-5.02344 C0.0157064,-5.00944 0.180176,-4.91846 0.348145,-4.75049 C0.698079,-4.47054 1.02702,-4.1696 1.33496,-3.84766 C1.62891,-3.5957 1.91935,-3.32625 2.2063,-3.03931 C2.49325,-2.75236 2.7487,-2.50391 2.97266,-2.29395 M-0.0717773,3.03906 C0.0961914,3.03906 0.222168,2.93758 0.306152,2.73462 C0.390137,2.53166 0.432129,2.26921 0.432129,1.94727 C0.376139,1.66732 0.299154,1.43286 0.201172,1.2439 C0.10319,1.05493 -0.0157878,0.960449 -0.155762,0.960449 C-0.561686,0.960449 -0.722656,1.32438 -0.638672,2.05225 C-0.638672,2.3042 -0.582682,2.53166 -0.470703,2.73462 C-0.358724,2.93758 -0.225749,3.03906 -0.0717773,3.03906 M2.7207,0.960449 C2.88867,0.90446 3.01465,0.778483 3.09863,0.58252 C3.18262,0.386556 3.19661,0.141602 3.14063,-0.152344 C3.14063,-0.460286 3.09163,-0.715739 2.99365,-0.918701 C2.89567,-1.12166 2.77669,-1.22314 2.63672,-1.22314 C2.42676,-1.22314 2.27979,-1.10767 2.1958,-0.876709 C2.11182,-0.645752 2.06982,-0.404297 2.06982,-0.152344 C2.12581,0.169596 2.2133,0.435547 2.33228,0.645508 C2.45125,0.855469 2.58073,0.960449 2.7207,0.960449 M-3.51514,7.80518 C-3.48714,7.97314 -3.41715,8.35807 -3.30518,8.95996 C-3.1932,9.56185 -3.07072,10.2162 -2.93774,10.9231 C-2.80477,11.63 -2.68229,12.2843 -2.57031,12.8862 C-2.45833,13.4881 -2.38835,13.873 -2.36035,14.041 C-2.33236,14.097 -2.31836,14.174 -2.31836,14.272 C-2.31836,14.37 -2.31836,14.4469 -2.31836,14.5029 C-2.31836,14.6289 -2.33236,14.7199 -2.36035,14.7759 C-2.44434,14.8599 -2.54932,14.9368 -2.67529,15.0068 C-2.80127,15.0768 -2.94124,15.0838 -3.09521,15.0278 C-3.23519,14.9998 -3.64111,14.9508 -4.31299,14.8809 C-4.98486,14.8109 -5.70223,14.7374 -6.46509,14.6604 C-7.22795,14.5834 -7.93831,14.5099 -8.59619,14.4399 C-9.25407,14.37 -9.639,14.321 -9.75098,14.293 C-9.91895,14.237 -10.1324,14.146 -10.3914,14.02 C-10.6503,13.894 -10.8218,13.6841 -10.9058,13.3901 C-10.9338,13.2782 -11.0212,12.8722 -11.1682,12.1724 C-11.3152,11.4725 -11.4762,10.6991 -11.6511,9.85229 C-11.8261,9.00545 -11.9766,8.2286 -12.1025,7.52173 C-12.2285,6.81486 -12.2915,6.40544 -12.2915,6.29346 C-12.4035,6.12549 -12.3755,5.91553 -12.2075,5.66357 C-12.1515,5.5096 -12.0151,5.43962 -11.7981,5.45361 C-11.5811,5.46761 -11.2837,5.5026 -10.9058,5.55859 C-10.0239,5.65658 -9.21208,5.76156 -8.47021,5.87354 C-7.81234,5.95752 -7.17546,6.03451 -6.55957,6.10449 C-5.94368,6.17448 -5.47477,6.23747 -5.15283,6.29346 C-4.46696,6.44743 -4.03654,6.65739 -3.86157,6.92334 C-3.6866,7.18929 -3.57113,7.48324 -3.51514,7.80518 M-8.59619,7.63721 C-8.76416,7.80518 -8.84115,8.01164 -8.82715,8.25659 C-8.81315,8.50155 -8.69417,8.736 -8.47021,8.95996 C-8.28825,9.16992 -8.07829,9.2959 -7.84033,9.33789 C-7.60238,9.37988 -7.39242,9.32389 -7.21045,9.16992 C-7.04248,9.02995 -6.97249,8.82349 -7.00049,8.55054 C-7.02848,8.27759 -7.12646,8.02913 -7.29443,7.80518 C-7.50439,7.63721 -7.73885,7.53223 -7.9978,7.49023 C-8.25675,7.44824 -8.45622,7.49723 -8.59619,7.63721 M-10.7378,8.70801 C-10.2199,9.22591 -9.76497,9.2819 -9.37305,8.87598 C-9.21908,8.736 -9.15259,8.53654 -9.17358,8.27759 C-9.19458,8.01864 -9.30306,7.80518 -9.49902,7.63721 C-9.72298,7.39925 -9.95744,7.25928 -10.2024,7.21729 C-10.4473,7.17529 -10.6538,7.25928 -10.8218,7.46924 C-11.0037,7.60921 -11.0807,7.80868 -11.0527,8.06763 C-11.0247,8.32658 -10.9198,8.54004 -10.7378,8.70801 M-8.68018,13.0542 C-8.48421,12.8862 -8.40023,12.6728 -8.42822,12.4138 C-8.45622,12.1549 -8.5682,11.9064 -8.76416,11.6685 C-8.98812,11.4445 -9.22257,11.3185 -9.46753,11.2905 C-9.71248,11.2625 -9.92594,11.3325 -10.1079,11.5005 C-10.2479,11.6405 -10.3179,11.8399 -10.3179,12.0989 C-10.3179,12.3578 -10.2129,12.5923 -10.0029,12.8022 C-9.77897,13.0262 -9.54451,13.1592 -9.29956,13.2012 C-9.05461,13.2432 -8.84814,13.1942 -8.68018,13.0542 M-6.47559,13.2222 C-6.30762,13.0822 -6.22363,12.8827 -6.22363,12.6238 C-6.22363,12.3648 -6.34261,12.1514 -6.58057,11.9834 C-6.97249,11.4935 -7.39941,11.3885 -7.86133,11.6685 C-8.0293,11.8784 -8.09928,12.1024 -8.07129,12.3403 C-8.04329,12.5783 -7.94531,12.8162 -7.77734,13.0542 C-7.58138,13.2782 -7.35392,13.4111 -7.09497,13.4531 C-6.83602,13.4951 -6.62956,13.4181 -6.47559,13.2222 M-6.30762,7.88916 C-6.51758,8.02913 -6.59806,8.2356 -6.54907,8.50854 C-6.50008,8.78149 -6.3916,9.03695 -6.22363,9.2749 C-5.99967,9.44287 -5.76522,9.54785 -5.52026,9.58984 C-5.27531,9.63184 -5.06885,9.58285 -4.90088,9.44287 C-4.55094,9.03695 -4.57894,8.57503 -4.98486,8.05713 C-5.20882,7.88916 -5.44328,7.78418 -5.68823,7.74219 C-5.93319,7.7002 -6.13965,7.74919 -6.30762,7.88916 M-4.16602,13.4741 C-3.97005,13.3062 -3.88607,13.0997 -3.91406,12.8547 C-3.94206,12.6098 -4.05404,12.3753 -4.25,12.1514 C-4.47396,11.9834 -4.70841,11.8749 -4.95337,11.8259 C-5.19832,11.7769 -5.40479,11.8294 -5.57275,11.9834 C-5.72673,12.1514 -5.80371,12.3578 -5.80371,12.6028 C-5.80371,12.8477 -5.69873,13.0822 -5.48877,13.3062 C-5.26481,13.5021 -5.03035,13.6176 -4.7854,13.6526 C-4.54045,13.6876 -4.33398,13.6281 -4.16602,13.4741 M1.54492,7.55322 C1.69889,7.63721 1.83187,7.71419 1.94385,7.78418 C2.05583,7.85417 2.1818,7.91715 2.32178,7.97314 C2.44775,8.54704 2.54574,9.03345 2.61572,9.43237 C2.68571,9.8313 2.7207,10.0798 2.7207,10.1777 C2.7207,10.3177 2.70671,10.4647 2.67871,10.6187 C2.65072,10.7726 2.60872,10.9546 2.55273,11.1646 C2.34277,11.3045 2.2098,11.4445 2.15381,11.5845 C2.01383,11.6965 1.80737,11.8819 1.53442,12.1409 C1.26147,12.3998 0.96403,12.6763 0.64209,12.9702 C0.250163,13.3341 -0.11027,13.6736 -0.439209,13.9885 C-0.768148,14.3035 -1.0096,14.5379 -1.16357,14.6919 C-1.30355,14.7759 -1.46452,14.7969 -1.64648,14.7549 C-1.82845,14.7129 -1.96842,14.363 -2.06641,13.7051 C-2.23438,12.6413 -2.38835,11.6615 -2.52832,10.7656 C-2.66829,10.0238 -2.79077,9.32389 -2.89575,8.66602 C-3.00073,8.00814 -3.06722,7.60921 -3.09521,7.46924 C-3.09521,7.17529 -3.02873,6.88485 -2.89575,6.5979 C-2.76278,6.31095 -2.45133,5.96452 -1.96143,5.55859 C-1.87744,5.41862 -1.77946,5.29964 -1.66748,5.20166 C-1.5555,5.10368 -1.42952,4.9847 -1.28955,4.84473 C-1.07959,4.9847 -0.890625,5.13867 -0.722656,5.30664 C-0.554688,5.47461 -0.365723,5.64958 -0.155762,5.83154 C-0.0437826,5.94352 0.0681966,6.02751 0.180176,6.0835 L0.180176,6.16748 C0.180176,6.54541 0.334147,6.73438 0.64209,6.73438 L0.74707,6.73438 C0.915039,6.90234 1.07601,7.05981 1.22998,7.20679 C1.38395,7.35376 1.48893,7.46924 1.54492,7.55322 M-1.62549,8.70801 C-1.48551,8.70801 -1.35604,8.60653 -1.23706,8.40356 C-1.11808,8.2006 -1.0306,7.94515 -0.974609,7.63721 C-0.974609,7.00732 -1.16357,6.65039 -1.5415,6.56641 C-1.68148,6.56641 -1.82495,6.66439 -1.97192,6.86035 C-2.1189,7.05632 -2.19238,7.31527 -2.19238,7.63721 C-2.19238,8.26709 -2.00342,8.62402 -1.62549,8.70801 M-0.386719,11.7944 C-0.330729,11.5145 -0.351725,11.259 -0.449707,11.0281 C-0.547689,10.7971 -0.666667,10.6816 -0.806641,10.6816 C-0.974609,10.6816 -1.12508,10.7831 -1.25806,10.9861 C-1.39103,11.189 -1.45752,11.4165 -1.45752,11.6685 C-1.51351,11.9904 -1.48551,12.2598 -1.37354,12.4768 C-1.26156,12.6938 -1.12858,12.8022 -0.974609,12.8022 C-0.806641,12.8582 -0.666667,12.7847 -0.554688,12.5818 C-0.442708,12.3788 -0.386719,12.1164 -0.386719,11.7944 M-0.155762,9.77881 C0.236165,9.77881 0.432129,9.42188 0.432129,8.70801 C0.432129,8.45605 0.390137,8.2286 0.306152,8.02563 C0.222168,7.82267 0.0961914,7.6932 -0.0717773,7.63721 C-0.421712,7.63721 -0.638672,7.99414 -0.722656,8.70801 C-0.722656,8.98796 -0.666667,9.23641 -0.554688,9.45337 C-0.442708,9.67033 -0.309733,9.77881 -0.155762,9.77881 M1.90186,9.77881 C1.95785,9.52686 1.92985,9.2854 1.81787,9.05444 C1.70589,8.82349 1.57292,8.70801 1.41895,8.70801 C1.25098,8.70801 1.111,8.80949 0.999023,9.01245 C0.887044,9.21541 0.831055,9.44287 0.831055,9.69482 C0.775065,10.0168 0.796061,10.2827 0.894043,10.4927 C0.992025,10.7026 1.111,10.8356 1.25098,10.8916 C1.44694,10.8916 1.60441,10.7866 1.72339,10.5767 C1.84237,10.3667 1.90186,10.1007 1.90186,9.77881 M-10.6538,5.26465 C-11.1157,5.18066 -11.3887,5.06868 -11.4727,4.92871 C-11.5566,4.77474 -11.5566,4.65576 -11.4727,4.57178 C-11.4727,4.51579 -11.4587,4.48079 -11.4307,4.4668 C-11.4027,4.4528 -11.3887,4.41781 -11.3887,4.36182 C-11.2767,4.30583 -11.0492,4.14836 -10.7063,3.8894 C-10.3634,3.63045 -9.99593,3.3575 -9.604,3.07056 C-9.21208,2.78361 -8.85164,2.51066 -8.52271,2.25171 C-8.19377,1.99276 -7.97331,1.83529 -7.86133,1.7793 C-7.63737,1.58333 -7.33643,1.44336 -6.9585,1.35938 C-6.58057,1.27539 -6.27962,1.2334 -6.05566,1.2334 C-5.83171,1.26139 -5.55526,1.28939 -5.22632,1.31738 C-4.89738,1.34538 -4.55094,1.37337 -4.18701,1.40137 C-3.82308,1.42936 -3.47664,1.45736 -3.14771,1.48535 C-2.81877,1.51335 -2.52832,1.54134 -2.27637,1.56934 C-2.27637,1.82129 -2.30436,2.01025 -2.36035,2.13623 C-2.6123,2.19222 -2.83976,2.26921 -3.04272,2.36719 C-3.24569,2.46517 -3.34717,2.57015 -3.34717,2.68213 C-3.26318,2.94808 -2.93424,3.03906 -2.36035,2.95508 C-2.30436,3.26302 -2.18188,3.57446 -1.99292,3.8894 C-1.80396,4.20435 -1.68148,4.36182 -1.62549,4.36182 C-1.84945,4.58577 -2.1049,4.82023 -2.39185,5.06519 C-2.67879,5.31014 -2.87126,5.47461 -2.96924,5.55859 C-3.1932,5.74056 -3.48364,5.85954 -3.84058,5.91553 C-4.19751,5.97152 -4.50895,5.99951 -4.7749,5.99951 C-4.88688,5.97152 -5.22282,5.92952 -5.78271,5.87354 C-6.34261,5.81755 -6.9445,5.74406 -7.58838,5.65308 C-8.23226,5.56209 -8.85514,5.48161 -9.45703,5.41162 C-10.0589,5.34163 -10.4578,5.29264 -10.6538,5.26465 M-3.51514,4.27783 C-3.57113,4.13786 -3.7006,4.04688 -3.90356,4.00488 C-4.10653,3.96289 -4.33398,3.96989 -4.58594,4.02588 C-4.90788,4.08187 -5.17033,4.15885 -5.37329,4.25684 C-5.57625,4.35482 -5.64274,4.4598 -5.57275,4.57178 C-5.57275,4.72575 -5.46777,4.82373 -5.25781,4.86572 C-5.04785,4.90771 -4.7959,4.90072 -4.50195,4.84473 C-4.25,4.78874 -4.02254,4.70825 -3.81958,4.60327 C-3.61662,4.49829 -3.51514,4.38981 -3.51514,4.27783 M-6.13965,1.7793 C-6.43359,1.83529 -6.67155,1.91577 -6.85352,2.02075 C-7.03548,2.12573 -7.12646,2.22021 -7.12646,2.3042 C-7.07048,2.44417 -6.941,2.53516 -6.73804,2.57715 C-6.53507,2.61914 -6.30762,2.61214 -6.05566,2.55615 C-5.77572,2.50016 -5.54126,2.42318 -5.35229,2.3252 C-5.16333,2.22721 -5.06885,2.13623 -5.06885,2.05225 C-5.18083,1.73031 -5.53776,1.63932 -6.13965,1.7793 M-8.59619,3.58496 C-8.84814,3.64095 -9.0756,3.72144 -9.27856,3.82642 C-9.48153,3.9314 -9.55501,4.05387 -9.49902,4.19385 C-9.49902,4.33382 -9.39054,4.4318 -9.17358,4.48779 C-8.95662,4.54378 -8.69417,4.54378 -8.38623,4.48779 C-8.12028,4.4318 -7.88932,4.34782 -7.69336,4.23584 C-7.4974,4.12386 -7.42741,3.99788 -7.4834,3.85791 C-7.4834,3.75993 -7.58838,3.67594 -7.79834,3.60596 C-8.0083,3.53597 -8.27425,3.52897 -8.59619,3.58496 "/>
</g>

<g fill="#53a54f" fill-opacity="1" stroke="none" transform="matrix(1,0,0,1,0,0)"
font-family="MS Shell Dlg 2" font-size="7.8" font-weight="400" font-style="normal" 
>
</g>
</g>
</svg>
