<?xml version="1.0" encoding="UTF-8" standalone="no"?>
<svg
   xmlns:dc="http://purl.org/dc/elements/1.1/"
   xmlns:cc="http://creativecommons.org/ns#"
   xmlns:rdf="http://www.w3.org/1999/02/22-rdf-syntax-ns#"
   xmlns:svg="http://www.w3.org/2000/svg"
   xmlns="http://www.w3.org/2000/svg"
   xmlns:sodipodi="http://sodipodi.sourceforge.net/DTD/sodipodi-0.dtd"
   xmlns:inkscape="http://www.inkscape.org/namespaces/inkscape"
   inkscape:version="1.0 (4035a4fb49, 2020-05-01)"
   sodipodi:docname="1613.svg"
   id="svg20"
   version="1.2"
   viewBox="0 0 42.519639 42.519639"
   height="14.999999mm"
   width="14.999999mm">
  <metadata
     id="metadata24">
    <rdf:RDF>
      <cc:Work
         rdf:about="">
        <dc:format>image/svg+xml</dc:format>
        <dc:type
           rdf:resource="http://purl.org/dc/dcmitype/StillImage" />
        <dc:title>Qt SVG Document</dc:title>
      </cc:Work>
    </rdf:RDF>
  </metadata>
  <sodipodi:namedview
     inkscape:current-layer="svg20"
     inkscape:window-maximized="0"
     inkscape:window-y="0"
     inkscape:window-x="0"
     inkscape:cy="28.346482"
     inkscape:cx="28.346482"
     inkscape:zoom="5.8410537"
     showgrid="false"
     id="namedview22"
     inkscape:window-height="480"
     inkscape:window-width="1034"
     inkscape:pageshadow="2"
     inkscape:pageopacity="0"
     guidetolerance="10"
     gridtolerance="10"
     objecttolerance="10"
     borderopacity="1"
     bordercolor="#666666"
     pagecolor="#ffffff" />
  <title
     id="title2">Qt SVG Document</title>
  <desc
     id="desc4">Generated with Qt</desc>
  <defs
     id="defs6" />
  <g
     transform="translate(5.25984,5.25984)"
     id="g18"
     stroke-linejoin="bevel"
     stroke-linecap="square"
     fill-rule="evenodd"
     stroke-width="1"
     stroke="#000000"
     fill="none">
    <g
       id="g10"
       font-style="normal"
       font-weight="400"
       font-size="7.8px"
       font-family="'MS Shell Dlg 2'"
       stroke="none"
       fill-opacity="1"
       fill="#53a54f">
      <path
         id="path8"
         d="M 37.2598,16 C 37.2598,27.7415 27.7415,37.2598 16,37.2598 4.25851,37.2598 -5.25984,27.7415 -5.25984,16 -5.25984,4.25851 4.25851,-5.25984 16,-5.25984 27.7415,-5.25984 37.2598,4.25851 37.2598,16"
         fill-rule="evenodd"
         vector-effect="non-scaling-stroke" />
    </g>
    <g
       id="g14"
       font-style="normal"
       font-weight="400"
       font-size="7.8px"
       font-family="'MS Shell Dlg 2'"
       transform="translate(16,12.5984)"
       stroke="none"
       fill-opacity="0.94902"
       fill="#ffffff">
      <path
         id="path12"
         d="m 12.7358,-1.95801 c 0.056,0.13998 0.084,0.27645 0.084,0.40943 0,0.13297 0,0.24145 0,0.32544 -0.028,0.08398 -0.105,0.468908 -0.2309,1.1547806 C 12.4629,0.617513 12.3194,1.35588 12.1584,2.14673 11.9975,2.93758 11.847,3.67594 11.707,4.36182 c -0.1399,0.68587 -0.2239,1.08479 -0.2519,1.19677 -0.07,0.32194 -0.217,0.5529 -0.4409,0.69287 -0.224,0.13998 -0.413,0.24496 -0.5669,0.31495 -0.112,0 -0.47595,0.04199 -1.09183,0.12597 C 8.73958,6.77637 8.06771,6.87435 7.33984,6.98633 6.61198,7.09831 5.92611,7.19979 5.28223,7.29077 4.63835,7.38175 4.22542,7.44124 4.04346,7.46924 3.73551,7.46924 3.53955,7.33626 3.45557,7.07031 3.38558,6.98633 3.33659,6.89535 3.30859,6.79736 3.2806,6.69938 3.2946,6.55941 3.35059,6.37744 3.39258,6.23747 3.46257,5.85954 3.56055,5.24365 3.65853,4.62777 3.77051,3.96289 3.89648,3.24902 4.02246,2.53516 4.13794,1.86328 4.24292,1.2334 4.3479,0.603516 4.41439,0.211589 4.44238,0.0576172 4.47038,-0.250326 4.56136,-0.54777 4.71533,-0.834717 4.8693,-1.12166 5.27523,-1.30713 5.93311,-1.39111 6.22705,-1.4471 6.68197,-1.52759 7.29785,-1.63257 7.91374,-1.73755 8.55062,-1.83203 9.2085,-1.91602 c 0.74186,-0.11197 1.5607,-0.20996 2.4565,-0.29394 0.5459,-0.08399 0.9029,0 1.0708,0.25195 M 6.41602,6.0835 C 6.58398,5.85954 6.66797,5.61808 6.66797,5.35913 6.66797,5.10018 6.58398,4.90072 6.41602,4.76074 6.27604,4.60677 6.09058,4.55078 5.85962,4.59277 5.62866,4.63477 5.4292,4.74674 5.26123,4.92871 5.05127,5.15267 4.93229,5.38713 4.9043,5.63208 4.8763,5.87703 4.96729,6.09749 5.17725,6.29346 5.31722,6.44743 5.50968,6.49992 5.75464,6.45093 5.99959,6.40194 6.22005,6.27946 6.41602,6.0835 M 6.75195,3.75293 C 6.96191,3.55697 7.06689,3.32951 7.06689,3.07056 7.06689,2.8116 6.98991,2.61214 6.83594,2.47217 6.66797,2.3042 6.46151,2.24121 6.21655,2.2832 5.9716,2.3252 5.76514,2.45817 5.59717,2.68213 5.4292,2.8641 5.33822,3.08105 5.32422,3.33301 5.31022,3.58496 5.37321,3.78792 5.51318,3.94189 5.68115,4.10986 5.88761,4.17985 6.13257,4.15186 6.37752,4.12386 6.58398,3.99089 6.75195,3.75293 M 7.06689,1.2334 C 7.29085,1.05143 7.40283,0.830973 7.40283,0.572021 7.40283,0.31307 7.31885,0.113607 7.15088,-0.0263672 6.99691,-0.222331 6.80794,-0.299316 6.58398,-0.257324 6.36003,-0.215332 6.14307,-0.0823568 5.93311,0.141602 5.76514,0.323568 5.66715,0.544027 5.63916,0.802979 5.61117,1.06193 5.68115,1.26139 5.84912,1.40137 6.00309,1.59733 6.19206,1.67432 6.41602,1.63232 6.63997,1.59033 6.85693,1.45736 7.06689,1.2334 m 3.69531,4.03125 c 0.168,-0.22396 0.259,-0.45842 0.273,-0.70337 0.014,-0.24496 -0.049,-0.45142 -0.189,-0.61939 C 10.4123,3.64795 9.97835,3.70394 9.54443,4.10986 9.37646,4.33382 9.28548,4.58228 9.27148,4.85522 c -0.01399,0.27295 0.049,0.47942 0.18897,0.61939 0.20996,0.15397 0.42692,0.21346 0.65085,0.17847 0.224,-0.035 0.4409,-0.16447 0.6509,-0.38843 m 0.4199,-2.22559 c 0.21,-0.23795 0.315,-0.49341 0.315,-0.76635 0,-0.27295 -0.077,-0.47942 -0.231,-0.61939 C 11.0981,1.51335 10.8917,1.46436 10.6467,1.50635 10.4018,1.54834 10.1953,1.66732 10.0273,1.86328 9.83138,2.10124 9.7334,2.34269 9.7334,2.58765 9.7334,2.8326 9.80339,3.03906 9.94336,3.20703 10.1113,3.34701 10.3178,3.396 10.5627,3.354 10.8077,3.31201 11.0142,3.20703 11.1821,3.03906 m 0.399,-2.372556 C 11.749,0.498535 11.847,0.285075 11.875,0.026123 c 0.028,-0.258952 -0.042,-0.458415 -0.21,-0.598389 -0.4339,-0.377929 -0.8678,-0.32194 -1.3017,0.167969 -0.168,0.195964 -0.259,0.4234213 -0.273,0.682373 -0.014,0.258952 0.049,0.458415 0.189,0.598389 0.4339,0.377925 0.8678,0.307945 1.3018,-0.209961 M 0.831055,-4.91846 C 0.74707,-4.97445 0.673584,-5.03394 0.610596,-5.09692 0.547607,-5.15991 0.488118,-5.2194 0.432129,-5.27539 c -0.111979,-0.19596 -0.111979,-0.34994 0,-0.46191 0.055989,-0.13998 0.136475,-0.21696 0.241455,-0.23096 0.10498,-0.014 0.185465,-0.021 0.241455,-0.021 C 1.02702,-6.03125 1.28947,-6.06624 1.70239,-6.09424 2.11532,-6.12223 2.58073,-6.15723 3.09863,-6.19922 3.61654,-6.24121 4.14144,-6.2832 4.67334,-6.3252 c 0.5319,-0.04199 0.97982,-0.07698 1.34375,-0.10498 0.12598,0 0.24495,-0.01399 0.35693,-0.04199 0.22396,-0.05599 0.34994,-0.08398 0.37793,-0.08398 0.23796,0 0.51441,0.03499 0.82935,0.10498 0.31494,0.06999 0.58439,0.18896 0.80835,0.35693 0.11198,0.09798 0.33244,0.27995 0.66138,0.5459 0.32893,0.26595 0.68237,0.5529 1.06027,0.86084 0.378,0.30794 0.7314,0.58789 1.0603,0.83984 0.329,0.25196 0.5494,0.40593 0.6614,0.46192 0.056,0.06998 0.084,0.11898 0.084,0.14697 0,0.028 0.028,0.04199 0.084,0.04199 v 0.33594 c -0.056,0.16797 -0.329,0.29395 -0.8189,0.37793 -0.1959,0.04199 -0.5809,0.09798 -1.1548,0.16797 C 9.45345,-2.24495 8.85156,-2.17497 8.22168,-2.10498 7.5918,-2.03499 7.0109,-1.97201 6.479,-1.91602 5.9471,-1.86003 5.62516,-1.83203 5.51318,-1.83203 5.28923,-1.77604 5.00228,-1.79704 4.65234,-1.89502 4.30241,-1.993 4.01546,-2.12598 3.7915,-2.29395 3.62354,-2.41992 3.2876,-2.69637 2.78369,-3.12329 2.27979,-3.55021 1.82487,-3.96663 1.41895,-4.37256 1.27897,-4.45654 1.16699,-4.54753 1.08301,-4.64551 0.999023,-4.74349 0.915039,-4.83447 0.831055,-4.91846 M 9.2085,-4.09961 c -0.62989,-0.08398 -0.98682,0 -1.0708,0.25195 0,0.11198 0.09098,0.23446 0.27294,0.36744 0.18197,0.13297 0.41993,0.22745 0.71387,0.28344 0.25195,0 0.47941,-0.02099 0.68237,-0.06299 0.20292,-0.04199 0.30442,-0.11197 0.30442,-0.20996 0.056,-0.13997 -0.007,-0.26595 -0.18894,-0.37793 C 9.7404,-3.95964 9.50244,-4.04362 9.2085,-4.09961 M 6.24805,-4.83447 c -0.29395,-0.05599 -0.5319,-0.05599 -0.71387,0 -0.18197,0.05599 -0.27295,0.15397 -0.27295,0.29394 0,0.08399 0.07699,0.17847 0.23096,0.28345 0.15397,0.10498 0.37793,0.18547 0.67187,0.24145 0.25196,0.05599 0.47941,0.06299 0.68238,0.021 0.20296,-0.04199 0.30444,-0.13997 0.30444,-0.29394 0,-0.08399 -0.08748,-0.18197 -0.26245,-0.29395 C 6.71346,-4.6945 6.5,-4.77848 6.24805,-4.83447 M 2.23779,-5.35938 c -0.05599,0.08399 0.0175,0.17847 0.22046,0.28345 0.20296,0.10498 0.43042,0.18547 0.68238,0.24146 0.60188,0.08398 0.97981,0 1.13378,-0.25196 0,-0.09798 -0.10148,-0.20296 -0.30444,-0.31494 -0.20296,-0.11198 -0.45142,-0.19596 -0.74536,-0.25195 -0.25195,-0.05599 -0.47941,-0.05599 -0.68237,0 -0.20297,0.05599 -0.30445,0.15397 -0.30445,0.29394 m 0.73487,3.06543 c 0.46191,0.44792 0.75586,0.82235 0.88183,1.1233 0.12598,0.30094 0.16097,0.584387 0.10498,0.850337 0,0.139974 -0.04199,0.5389 -0.12597,1.196778 C 3.74951,1.53434 3.65153,2.24121 3.53955,2.99707 3.41357,3.87891 3.2806,4.85173 3.14063,5.91553 3.05664,6.6014 2.93766,6.95833 2.78369,6.98633 2.62972,7.01432 2.47575,6.98633 2.32178,6.90234 2.1818,6.76237 1.95435,6.53491 1.6394,6.21997 1.32446,5.90503 0.992025,5.55859 0.64209,5.18066 0.334147,4.85872 0.0367025,4.57878 -0.250244,4.34082 -0.537191,4.10286 -0.722656,3.9069 -0.806641,3.75293 -0.890625,3.69694 -0.953613,3.62695 -0.995605,3.54297 -1.0376,3.45898 -1.09359,3.375 -1.16357,3.29102 -1.35954,3.06706 -1.45752,2.73812 -1.45752,2.3042 c 0.028,-0.11198 0.08398,-0.50041 0.16797,-1.16528 0.08398,-0.66488 0.17847,-1.382247 0.28345,-2.1521 0.104977,-0.76986 0.206458,-1.49772 0.30444,-2.1836 0.097982,-0.68587 0.174967,-1.10579 0.230957,-1.25976 0.055989,-0.39193 0.164469,-0.58089 0.325439,-0.5669 0.1609704,0.014 0.32544,0.10498 0.493409,0.27295 0.349934,0.27995 0.678875,0.58089 0.986815,0.90283 0.29395,0.25196 0.58439,0.52141 0.87134,0.80835 0.28695,0.28695 0.5424,0.5354 0.76636,0.74536 M -0.0717773,3.03906 C 0.0961914,3.03906 0.222168,2.93758 0.306152,2.73462 0.390137,2.53166 0.432129,2.26921 0.432129,1.94727 0.376139,1.66732 0.299154,1.43286 0.201172,1.2439 0.10319,1.05493 -0.0157878,0.960449 -0.155762,0.960449 c -0.405924,0 -0.566894,0.363931 -0.48291,1.091801 0,0.25195 0.05599,0.47941 0.167969,0.68237 0.111979,0.20296 0.244954,0.30444 0.3989257,0.30444 M 2.7207,0.960449 C 2.88867,0.90446 3.01465,0.778483 3.09863,0.58252 c 0.08399,-0.195964 0.09798,-0.440918 0.042,-0.734864 0,-0.307942 -0.049,-0.563395 -0.14698,-0.766357 C 2.89567,-1.12166 2.77669,-1.22314 2.63672,-1.22314 c -0.20996,0 -0.35693,0.11547 -0.44092,0.346431 -0.08398,0.230957 -0.12598,0.472412 -0.12598,0.724365 0.05599,0.32194 0.14348,0.587891 0.26246,0.797852 0.11897,0.209961 0.24845,0.314941 0.38842,0.314941 M -3.51514,7.80518 c 0.028,0.16796 0.09799,0.55289 0.20996,1.15478 0.11198,0.60189 0.23446,1.25624 0.36744,1.96314 0.13297,0.7069 0.25545,1.3612 0.36743,1.9631 0.11198,0.6019 0.18196,0.9868 0.20996,1.1548 0.02799,0.056 0.04199,0.133 0.04199,0.231 0,0.098 0,0.1749 0,0.2309 0,0.126 -0.014,0.217 -0.04199,0.273 -0.08399,0.084 -0.18897,0.1609 -0.31494,0.2309 -0.12598,0.07 -0.26595,0.077 -0.41992,0.021 -0.13998,-0.028 -0.5459,-0.077 -1.21778,-0.1469 -0.67187,-0.07 -1.38924,-0.1435 -2.1521,-0.2205 -0.76286,-0.077 -1.47322,-0.1505 -2.1311,-0.2205 C -9.25407,14.37 -9.639,14.321 -9.75098,14.293 -9.91895,14.237 -10.1324,14.146 -10.3914,14.02 c -0.2589,-0.126 -0.4304,-0.3359 -0.5144,-0.6299 -0.028,-0.1119 -0.1154,-0.5179 -0.2624,-1.2177 -0.147,-0.6999 -0.308,-1.4733 -0.4829,-2.32011 -0.175,-0.84684 -0.3255,-1.62369 -0.4514,-2.33056 -0.126,-0.70687 -0.189,-1.11629 -0.189,-1.22827 -0.112,-0.16797 -0.084,-0.37793 0.084,-0.62989 0.056,-0.15397 0.1924,-0.22395 0.4094,-0.20996 0.217,0.014 0.5144,0.04899 0.8923,0.10498 0.8819,0.09799 1.69372,0.20297 2.43559,0.31495 0.65787,0.08398 1.29475,0.16097 1.91064,0.23095 0.61589,0.06999 1.0848,0.13298 1.40674,0.18897 0.68587,0.15397 1.11629,0.36393 1.29126,0.62988 0.17497,0.26595 0.29044,0.5599 0.34643,0.88184 M -8.59619,7.63721 c -0.16797,0.16797 -0.24496,0.37443 -0.23096,0.61938 0.014,0.24496 0.13298,0.47941 0.35694,0.70337 0.18196,0.20996 0.39192,0.33594 0.62988,0.37793 0.23795,0.04199 0.44791,-0.014 0.62988,-0.16797 C -7.04248,9.02995 -6.97249,8.82349 -7.00049,8.55054 -7.02848,8.27759 -7.12646,8.02913 -7.29443,7.80518 -7.50439,7.63721 -7.73885,7.53223 -7.9978,7.49023 -8.25675,7.44824 -8.45622,7.49723 -8.59619,7.63721 m -2.14161,1.0708 c 0.5179,0.5179 0.97283,0.57389 1.36475,0.16797 C -9.21908,8.736 -9.15259,8.53654 -9.17358,8.27759 -9.19458,8.01864 -9.30306,7.80518 -9.49902,7.63721 -9.72298,7.39925 -9.95744,7.25928 -10.2024,7.21729 c -0.2449,-0.042 -0.4514,0.04199 -0.6194,0.25195 -0.1819,0.13997 -0.2589,0.33944 -0.2309,0.59839 0.028,0.25895 0.1329,0.47241 0.3149,0.64038 m 2.05762,4.34619 c 0.19597,-0.168 0.27995,-0.3814 0.25196,-0.6404 -0.028,-0.2589 -0.13998,-0.5074 -0.33594,-0.7453 -0.22396,-0.224 -0.45841,-0.35 -0.70337,-0.378 -0.24495,-0.028 -0.45841,0.042 -0.64037,0.21 -0.14,0.14 -0.21,0.3394 -0.21,0.5984 0,0.2589 0.105,0.4934 0.315,0.7033 0.22393,0.224 0.45839,0.357 0.70334,0.399 0.24495,0.042 0.45142,-0.007 0.61938,-0.147 m 2.20459,0.168 c 0.16797,-0.14 0.25196,-0.3395 0.25196,-0.5984 0,-0.259 -0.11898,-0.4724 -0.35694,-0.6404 -0.39192,-0.4899 -0.81884,-0.5949 -1.28076,-0.3149 -0.16797,0.2099 -0.23795,0.4339 -0.20996,0.6718 0.028,0.238 0.12598,0.4759 0.29395,0.7139 0.19596,0.224 0.42342,0.3569 0.68237,0.3989 0.25895,0.042 0.46541,-0.035 0.61938,-0.2309 m 0.16797,-5.33304 c -0.20996,0.13997 -0.29044,0.34644 -0.24145,0.61938 0.04899,0.27295 0.15747,0.52841 0.32544,0.76636 0.22396,0.16797 0.45841,0.27295 0.70337,0.31494 0.24495,0.042 0.45141,-0.00699 0.61938,-0.14697 C -4.55094,9.03695 -4.57894,8.57503 -4.98486,8.05713 -5.20882,7.88916 -5.44328,7.78418 -5.68823,7.74219 -5.93319,7.7002 -6.13965,7.74919 -6.30762,7.88916 m 2.1416,5.58494 c 0.19597,-0.1679 0.27995,-0.3744 0.25196,-0.6194 -0.028,-0.2449 -0.13998,-0.4794 -0.33594,-0.7033 -0.22396,-0.168 -0.45841,-0.2765 -0.70337,-0.3255 -0.24495,-0.049 -0.45142,0.0035 -0.61938,0.1575 -0.15398,0.168 -0.23096,0.3744 -0.23096,0.6194 0,0.2449 0.10498,0.4794 0.31494,0.7034 0.22396,0.1959 0.45842,0.3114 0.70337,0.3464 0.24495,0.035 0.45142,-0.0245 0.61938,-0.1785 M 1.54492,7.55322 C 1.69889,7.63721 1.83187,7.71419 1.94385,7.78418 2.05583,7.85417 2.1818,7.91715 2.32178,7.97314 2.44775,8.54704 2.54574,9.03345 2.61572,9.43237 2.68571,9.8313 2.7207,10.0798 2.7207,10.1777 c 0,0.14 -0.01399,0.287 -0.04199,0.441 -0.02799,0.1539 -0.06999,0.3359 -0.12598,0.5459 -0.20996,0.1399 -0.34293,0.2799 -0.39892,0.4199 -0.13998,0.112 -0.34644,0.2974 -0.61939,0.5564 -0.27295,0.2589 -0.57039,0.5354 -0.89233,0.8293 -0.391927,0.3639 -0.75236,0.7034 -1.081299,1.0183 -0.328939,0.315 -0.570391,0.5494 -0.724361,0.7034 -0.13998,0.084 -0.30095,0.105 -0.48291,0.063 C -1.82845,14.7129 -1.96842,14.363 -2.06641,13.7051 -2.23438,12.6413 -2.38835,11.6615 -2.52832,10.7656 -2.66829,10.0238 -2.79077,9.32389 -2.89575,8.66602 -3.00073,8.00814 -3.06722,7.60921 -3.09521,7.46924 c 0,-0.29395 0.06648,-0.58439 0.19946,-0.87134 0.13297,-0.28695 0.44442,-0.63338 0.93432,-1.03931 0.08399,-0.13997 0.18197,-0.25895 0.29395,-0.35693 0.11198,-0.09798 0.23796,-0.21696 0.37793,-0.35693 0.20996,0.13997 0.398925,0.29394 0.566894,0.46191 0.167968,0.16797 0.356933,0.34294 0.566894,0.5249 0.1119794,0.11198 0.2239586,0.19597 0.335938,0.25196 v 0.08398 c 0,0.37793 0.153971,0.5669 0.461914,0.5669 h 0.10498 c 0.167969,0.16796 0.32894,0.32543 0.48291,0.47241 0.15397,0.14697 0.25895,0.26245 0.31494,0.34643 m -3.17041,1.15479 c 0.13998,0 0.26945,-0.10148 0.38843,-0.30445 0.11898,-0.20296 0.20646,-0.45841 0.262451,-0.76635 0,-0.62989 -0.188961,-0.98682 -0.566891,-1.0708 -0.13998,0 -0.28345,0.09798 -0.43042,0.29394 -0.14698,0.19597 -0.22046,0.45492 -0.22046,0.77686 0,0.62988 0.18896,0.98681 0.56689,1.0708 m 1.238771,3.08639 c 0.05599,-0.2799 0.034994,-0.5354 -0.062988,-0.7663 -0.097982,-0.231 -0.21696,-0.3465 -0.356934,-0.3465 -0.167968,0 -0.318439,0.1015 -0.451419,0.3045 -0.13297,0.2029 -0.19946,0.4304 -0.19946,0.6824 -0.05599,0.3219 -0.02799,0.5913 0.08398,0.8083 0.11198,0.217 0.24496,0.3254 0.398931,0.3254 0.167968,0.056 0.307942,-0.0175 0.419921,-0.2204 0.11198,-0.203 0.167969,-0.4654 0.167969,-0.7874 m 0.230957,-2.01559 c 0.391927,0 0.587891,-0.35693 0.587891,-1.0708 0,-0.25196 -0.041992,-0.47941 -0.125977,-0.68238 C 0.222168,7.82267 0.0961914,7.6932 -0.0717773,7.63721 c -0.3499347,0 -0.5668947,0.35693 -0.6508787,1.0708 0,0.27995 0.055989,0.5284 0.167968,0.74536 0.11198,0.21696 0.244955,0.32544 0.398926,0.32544 m 2.057622,0 C 1.95785,9.52686 1.92985,9.2854 1.81787,9.05444 1.70589,8.82349 1.57292,8.70801 1.41895,8.70801 1.25098,8.70801 1.111,8.80949 0.999023,9.01245 0.887044,9.21541 0.831055,9.44287 0.831055,9.69482 0.775065,10.0168 0.796061,10.2827 0.894043,10.4927 0.992025,10.7026 1.111,10.8356 1.25098,10.8916 c 0.19596,0 0.35343,-0.105 0.47241,-0.3149 0.11898,-0.21 0.17847,-0.476 0.17847,-0.79789 M -10.6538,5.26465 c -0.4619,-0.08399 -0.7349,-0.19597 -0.8189,-0.33594 -0.0839,-0.15397 -0.0839,-0.27295 0,-0.35693 0,-0.05599 0.014,-0.09099 0.042,-0.10498 0.028,-0.014 0.042,-0.04899 0.042,-0.10498 0.112,-0.05599 0.3395,-0.21346 0.6824,-0.47242 0.3429,-0.25895 0.71037,-0.5319 1.1023,-0.81884 0.39192,-0.28695 0.75236,-0.5599 1.08129,-0.81885 0.32894,-0.25895 0.5494,-0.41642 0.66138,-0.47241 0.22396,-0.19597 0.5249,-0.33594 0.90283,-0.41992 0.37793,-0.08399 0.67888,-0.12598 0.90284,-0.12598 0.22395,0.02799 0.5004,0.05599 0.82934,0.08398 0.32894,0.028 0.67538,0.05599 1.03931,0.08399 0.36393,0.02799 0.71037,0.05599 1.0393,0.08398 0.32894,0.028 0.61939,0.05599 0.87134,0.08399 0,0.25195 -0.02799,0.44091 -0.08398,0.56689 -0.25195,0.05599 -0.47941,0.13298 -0.68237,0.23096 -0.20297,0.09798 -0.30445,0.20296 -0.30445,0.31494 0.08399,0.26595 0.41293,0.35693 0.98682,0.27295 0.05599,0.30794 0.17847,0.61938 0.36743,0.93432 0.18896,0.31495 0.31144,0.47242 0.36743,0.47242 C -1.84945,4.58577 -2.1049,4.82023 -2.39185,5.06519 -2.67879,5.31014 -2.87126,5.47461 -2.96924,5.55859 -3.1932,5.74056 -3.48364,5.85954 -3.84058,5.91553 -4.19751,5.97152 -4.50895,5.99951 -4.7749,5.99951 -4.88688,5.97152 -5.22282,5.92952 -5.78271,5.87354 -6.34261,5.81755 -6.9445,5.74406 -7.58838,5.65308 -8.23226,5.56209 -8.85514,5.48161 -9.45703,5.41162 -10.0589,5.34163 -10.4578,5.29264 -10.6538,5.26465 M -3.51514,4.27783 C -3.57113,4.13786 -3.7006,4.04688 -3.90356,4.00488 -4.10653,3.96289 -4.33398,3.96989 -4.58594,4.02588 -4.90788,4.08187 -5.17033,4.15885 -5.37329,4.25684 -5.57625,4.35482 -5.64274,4.4598 -5.57275,4.57178 c 0,0.15397 0.10498,0.25195 0.31494,0.29394 0.20996,0.04199 0.46191,0.035 0.75586,-0.02099 C -4.25,4.78874 -4.02254,4.70825 -3.81958,4.60327 -3.61662,4.49829 -3.51514,4.38981 -3.51514,4.27783 M -6.13965,1.7793 c -0.29394,0.05599 -0.5319,0.13647 -0.71387,0.24145 -0.18196,0.10498 -0.27294,0.19946 -0.27294,0.28345 0.05598,0.13997 0.18546,0.23096 0.38842,0.27295 0.20297,0.04199 0.43042,0.03499 0.68238,-0.021 C -5.77572,2.50016 -5.54126,2.42318 -5.35229,2.3252 -5.16333,2.22721 -5.06885,2.13623 -5.06885,2.05225 -5.18083,1.73031 -5.53776,1.63932 -6.13965,1.7793 m -2.45654,1.80566 c -0.25195,0.05599 -0.47941,0.13648 -0.68237,0.24146 -0.20297,0.10498 -0.27645,0.22745 -0.22046,0.36743 0,0.13997 0.10848,0.23795 0.32544,0.29394 0.21696,0.05599 0.47941,0.05599 0.78735,0 0.26595,-0.05599 0.49691,-0.13997 0.69287,-0.25195 0.19596,-0.11198 0.26595,-0.23796 0.20996,-0.37793 0,-0.09798 -0.10498,-0.18197 -0.31494,-0.25195 -0.20996,-0.06999 -0.47591,-0.07699 -0.79785,-0.021"
         fill-rule="evenodd"
         vector-effect="none" />
    </g>
    <g
       id="g16"
       font-style="normal"
       font-weight="400"
       font-size="7.8px"
       font-family="'MS Shell Dlg 2'"
       stroke="none"
       fill-opacity="1"
       fill="#53a54f" />
  </g>
</svg>
