<svg xmlns="http://www.w3.org/2000/svg" version="1.2" viewBox="0 0 42.52 42.52" height="56.693" width="56.693">
   <g stroke-linejoin="bevel" stroke-linecap="square" fill-rule="evenodd" stroke="none" fill="none" font-weight="400"
      font-size="7.8" font-family="'MS Shell Dlg 2'">
      <path
         d="M42.52 21.26C42.52 33 33 42.52 21.26 42.52 9.518 42.52 0 33 0 21.26 0 9.518 9.518 0 21.26 0 33 0 42.52 9.518 42.52 21.26"
         vector-effect="non-scaling-stroke" fill="#53a54f" />
      <path
         d="M33.996 15.9c.056.14.084.277.084.41v.325c-.028.084-.105.469-.231 1.155s-.27 1.424-.43 2.215l-.452 2.215c-.14.686-.224 1.085-.252 1.197-.07.322-.217.553-.441.693-.224.14-.413.245-.567.315-.112 0-.476.042-1.092.126-.616.084-1.287.182-2.015.294-.728.112-1.414.213-2.058.304-.644.091-1.057.15-1.239.178-.308 0-.504-.133-.588-.398a.742.742 0 01-.147-.273c-.028-.098-.014-.238.042-.42.042-.14.112-.518.21-1.134.098-.616.21-1.28.336-1.995.126-.714.242-1.385.347-2.015.105-.63.171-1.022.2-1.176.027-.308.118-.606.272-.892.154-.287.56-.473 1.218-.557.294-.056.749-.136 1.365-.241.616-.105 1.252-.2 1.91-.284.742-.112 1.561-.21 2.457-.294.546-.084.903 0 1.07.252m-6.32 8.042c.169-.224.253-.466.253-.725 0-.259-.084-.458-.252-.598-.14-.154-.326-.21-.557-.168-.23.042-.43.154-.598.336-.21.224-.329.458-.357.703-.028.245.063.466.273.662.14.154.333.206.577.157a1.28 1.28 0 00.662-.367m.336-2.33a.907.907 0 00.315-.683c0-.26-.077-.459-.231-.599a.668.668 0 00-.62-.189.965.965 0 00-.619.4 1.014 1.014 0 00-.273.65c-.014.252.05.455.189.61a.717.717 0 00.62.21c.244-.029.45-.162.619-.4m.315-2.52c.224-.181.336-.402.336-.66 0-.26-.084-.46-.252-.6-.154-.195-.343-.272-.567-.23-.224.042-.441.175-.651.399a1.127 1.127 0 00-.294.661c-.028.26.042.459.21.599.154.196.343.273.567.23.224-.041.44-.174.65-.398m3.696 4.03c.168-.223.259-.458.273-.702a.854.854 0 00-.189-.62c-.434-.294-.868-.238-1.302.168a1.331 1.331 0 00-.273.745c-.014.273.05.48.19.62.21.154.426.213.65.178.224-.035.441-.164.651-.388m.42-2.226c.21-.238.315-.493.315-.766s-.077-.48-.231-.62c-.168-.14-.374-.188-.62-.146a1.024 1.024 0 00-.619.357c-.196.237-.294.479-.294.724s.07.451.21.62c.168.14.375.188.62.146a1.12 1.12 0 00.619-.315m.399-2.372c.168-.168.266-.382.294-.64.028-.26-.042-.46-.21-.599-.434-.378-.868-.322-1.302.168a1.113 1.113 0 00-.273.682c-.014.26.05.459.19.599.433.378.867.308 1.3-.21M22.09 12.94a1.44 1.44 0 01-.22-.179l-.178-.178c-.112-.196-.112-.35 0-.462.056-.14.136-.217.241-.231.105-.014.186-.021.242-.021.112-.042.374-.077.787-.105.413-.028.879-.063 1.396-.105a752.309 752.309 0 012.919-.23c.126 0 .245-.015.357-.043.224-.056.35-.084.378-.084.238 0 .514.035.83.105.314.07.584.189.807.357.112.098.333.28.662.546l1.06.86c.378.309.732.589 1.06.84.33.253.55.407.662.462.056.07.084.12.084.147 0 .028.028.042.084.042v.336c-.056.168-.33.294-.82.378-.195.042-.58.098-1.154.168s-1.176.14-1.805.21c-.63.07-1.211.133-1.743.19-.532.055-.854.083-.966.083-.224.056-.51.035-.86-.063a2.587 2.587 0 01-.862-.399 28.015 28.015 0 01-1.007-.83 22.5 22.5 0 01-1.365-1.248 1.356 1.356 0 01-.336-.273 4.848 4.848 0 00-.252-.273m8.377.819c-.63-.084-.986 0-1.07.252 0 .112.09.234.272.367.182.133.42.227.714.283.252 0 .48-.02.683-.063.203-.042.304-.112.304-.21.056-.14-.007-.265-.189-.377a2.122 2.122 0 00-.714-.252m-2.96-.735c-.294-.056-.532-.056-.714 0-.182.056-.273.154-.273.294 0 .084.077.178.231.283.154.105.378.186.672.242.252.056.48.063.682.02.203-.041.305-.14.305-.293 0-.084-.088-.182-.263-.294a1.975 1.975 0 00-.64-.252m-4.01-.525c-.056.084.017.178.22.283.203.105.43.186.682.242.602.084.98 0 1.134-.252 0-.098-.101-.203-.304-.315a2.516 2.516 0 00-.746-.252 1.403 1.403 0 00-.682 0c-.203.056-.304.154-.304.294m.735 3.065c.461.448.755.823.881 1.124.126.3.161.584.105.85 0 .14-.042.539-.126 1.197-.084.658-.182 1.364-.294 2.12-.126.882-.259 1.855-.399 2.919-.084.686-.202 1.043-.356 1.07a.687.687 0 01-.462-.083l-.683-.683a37.617 37.617 0 01-.997-1.04 10.69 10.69 0 00-.892-.839c-.287-.238-.473-.434-.557-.588a.542.542 0 01-.189-.21 1.315 1.315 0 00-.168-.252c-.196-.224-.294-.553-.294-.987.028-.112.084-.5.168-1.165s.179-1.382.284-2.152c.105-.77.206-1.498.304-2.184.098-.685.175-1.105.231-1.26.056-.391.165-.58.326-.566.16.014.325.105.493.273.35.28.679.58.987.903.294.252.584.521.871.808.287.287.543.535.767.745m-3.045 5.333c.168 0 .294-.101.378-.304.084-.203.126-.466.126-.787a2.674 2.674 0 00-.231-.704c-.098-.189-.217-.283-.357-.283-.406 0-.567.364-.483 1.091 0 .252.056.48.168.683.112.203.245.304.4.304m2.792-2.078c.168-.056.293-.182.377-.378.084-.196.098-.441.042-.735 0-.308-.049-.563-.147-.766-.097-.203-.216-.305-.356-.305-.21 0-.357.116-.441.347a2.103 2.103 0 00-.126.724c.056.322.143.588.262.798.12.21.249.315.389.315m-6.236 6.844c.028.168.098.553.21 1.155l.367 1.963.368 1.963c.112.602.181.987.21 1.155a.524.524 0 01.041.231v.231a.65.65 0 01-.042.273c-.083.084-.188.161-.314.231a.486.486 0 01-.42.021c-.14-.028-.546-.077-1.218-.147-.672-.07-1.39-.143-2.152-.22-.763-.077-1.473-.15-2.131-.22-.658-.07-1.043-.12-1.155-.148a5.554 5.554 0 01-.64-.273.957.957 0 01-.515-.63 59.866 59.866 0 01-.262-1.217c-.147-.7-.308-1.474-.483-2.32a86.828 86.828 0 01-.452-2.331c-.126-.707-.189-1.116-.189-1.228-.112-.168-.084-.378.084-.63.056-.154.193-.224.41-.21.217.014.514.049.892.105.882.098 1.694.203 2.436.315.658.084 1.294.16 1.91.23.616.07 1.085.134 1.407.19.686.154 1.116.364 1.291.63.175.266.29.56.347.881m-5.081-.168a.775.775 0 00-.231.62c.014.245.133.48.357.703.182.21.392.336.63.378a.733.733 0 00.63-.168c.167-.14.237-.346.21-.62a1.472 1.472 0 00-.295-.745 1.492 1.492 0 00-.703-.315c-.259-.042-.458.007-.598.147m-2.142 1.071c.518.518.973.574 1.365.168.154-.14.22-.34.2-.598a.91.91 0 00-.326-.64c-.224-.239-.459-.378-.704-.42-.244-.042-.451.042-.619.251-.182.14-.259.34-.23.599a.985.985 0 00.314.64m2.058 4.346a.698.698 0 00.252-.64 1.405 1.405 0 00-.336-.745c-.224-.224-.459-.35-.704-.378a.774.774 0 00-.64.21c-.14.14-.21.34-.21.598 0 .259.105.494.315.703.224.224.458.357.703.4.245.041.452-.008.62-.148m2.204.168c.168-.14.252-.34.252-.598 0-.259-.119-.472-.357-.64-.392-.49-.819-.595-1.28-.315a.88.88 0 00-.21.672c.028.238.126.475.294.713.195.224.423.357.682.4.259.041.465-.036.62-.232m.167-5.333c-.21.14-.29.347-.241.62.049.273.157.528.325.766.224.168.459.273.704.315.245.042.451-.007.619-.147.35-.406.322-.868-.084-1.386a1.624 1.624 0 00-.703-.315c-.245-.042-.452.007-.62.147m2.142 5.585a.674.674 0 00.252-.62c-.028-.244-.14-.478-.336-.702a1.734 1.734 0 00-.704-.326c-.244-.049-.45.004-.619.158a.883.883 0 00-.23.619c0 .245.104.48.314.703.224.196.458.312.703.347a.72.72 0 00.62-.179m5.71-5.92a7.9 7.9 0 01.4.23c.112.07.238.133.378.19.126.573.224 1.06.294 1.459.07.399.105.647.105.745 0 .14-.014.287-.042.44-.028.155-.07.337-.126.547-.21.14-.343.28-.4.42-.14.112-.346.297-.619.556-.273.259-.57.536-.892.83-.392.363-.752.703-1.081 1.018-.33.315-.57.55-.725.703a.63.63 0 01-.483.063c-.182-.042-.322-.392-.42-1.05-.168-1.063-.322-2.043-.461-2.94a75.658 75.658 0 01-.368-2.099 47.752 47.752 0 00-.2-1.197c0-.293.067-.584.2-.87.133-.288.445-.634.934-1.04.084-.14.182-.26.294-.357.112-.098.238-.217.378-.357.21.14.4.294.567.462.168.168.357.343.567.525.112.112.224.196.336.252v.084c0 .378.154.567.462.567h.105c.168.168.329.325.483.472.154.147.259.262.315.346m-3.17 1.155c.14 0 .269-.101.388-.304.119-.203.206-.459.262-.767 0-.63-.189-.986-.567-1.07-.14 0-.283.098-.43.294-.147.196-.22.455-.22.776 0 .63.188.987.566 1.071m1.24 3.087a1.28 1.28 0 00-.064-.767c-.098-.23-.217-.346-.357-.346-.168 0-.318.101-.451.304-.133.203-.2.43-.2.683-.056.322-.028.591.084.808.112.217.245.325.4.325.167.056.307-.017.42-.22.111-.203.167-.465.167-.787m.231-2.016c.392 0 .588-.357.588-1.07 0-.253-.042-.48-.126-.683-.084-.203-.21-.333-.378-.389-.35 0-.567.357-.65 1.071 0 .28.055.529.167.746.112.217.245.325.4.325m2.057 0a1.079 1.079 0 00-.084-.724c-.112-.231-.245-.347-.4-.347-.167 0-.307.102-.42.305-.111.203-.167.43-.167.682-.056.322-.035.588.063.798.098.21.217.343.357.399.196 0 .353-.105.472-.315.12-.21.179-.476.179-.798m-12.556-4.514c-.462-.084-.735-.196-.819-.336-.084-.154-.084-.273 0-.357 0-.056.014-.091.042-.105.028-.014.042-.049.042-.105.112-.056.34-.213.683-.472.342-.26.71-.532 1.102-.82.392-.286.752-.56 1.081-.818.33-.259.55-.416.662-.472.223-.196.524-.336.902-.42.378-.084.68-.126.903-.126.224.028.5.056.83.084.328.028.675.056 1.039.084.364.028.71.056 1.04.084.328.028.619.056.87.084 0 .252-.028.44-.084.566-.251.056-.479.133-.682.231-.203.098-.304.203-.304.315.084.266.413.357.986.273.056.308.179.62.368.935.189.315.311.472.367.472-.224.224-.48.458-.766.703l-.577.494c-.224.182-.515.3-.872.357a6.133 6.133 0 01-.934.084c-.112-.028-.448-.07-1.008-.126-.56-.056-1.162-.13-1.806-.22a76.594 76.594 0 00-1.868-.242c-.602-.07-1.001-.12-1.197-.147m7.139-.987c-.056-.14-.186-.23-.389-.273a1.624 1.624 0 00-.682.021 3.029 3.029 0 00-.787.231c-.203.098-.27.203-.2.315 0 .154.105.252.315.294.21.042.462.035.756-.021.252-.056.48-.137.682-.241.203-.105.305-.214.305-.326m-2.625-2.498a2.298 2.298 0 00-.714.241c-.182.105-.273.2-.273.283.056.14.186.231.389.273.203.042.43.035.682-.02.28-.057.515-.134.704-.232.189-.098.283-.189.283-.273-.112-.321-.469-.412-1.07-.272m-2.457 1.805c-.252.056-.48.137-.683.242-.203.105-.276.227-.22.367 0 .14.108.238.325.294.217.056.48.056.788 0 .266-.056.497-.14.692-.252.196-.112.266-.238.21-.378 0-.098-.105-.182-.314-.252-.21-.07-.476-.077-.798-.02"
         fill-opacity=".949" fill="#fff" />
   </g>
</svg>