<svg xmlns="http://www.w3.org/2000/svg" version="1.2" viewBox="0 0 42.52 42.52" height="56.693" width="56.693">
   <g stroke-linejoin="bevel" stroke-linecap="square" fill-rule="evenodd" stroke="none" fill="none" font-weight="400"
      font-size="7.8" font-family="'MS Shell Dlg 2'">
      <path
         d="M42.52 21.26C42.52 33 33 42.52 21.26 42.52 9.518 42.52 0 33 0 21.26 0 9.518 9.518 0 21.26 0 33 0 42.52 9.518 42.52 21.26"
         vector-effect="non-scaling-stroke" fill="#53a54f" />
      <path
         d="M32.043 28.14c1.204.183 1.806.372 1.806.568v.42l-.168.105a5.91 5.91 0 01-.42.126v2.435h-.651v-2.666h-.41c-.16 0-.339-.028-.535-.084v-.336l-.084-.084c-.056-.056-.112-.084-.168-.084a.361.361 0 00-.23.084c-.029.028-.043.056-.043.084.07 0 .112-.014.126-.042.014-.028.063-.042.147-.042.028 0 .07.028.126.084 0 .028.014.056.042.084v2.834h-.44V28.96c-.225 0-.466-.014-.725-.042a8.865 8.865 0 00-.934-.042v2.666h-.441v-2.75l-2.016-.084v2.75h-.567v-2.456c.056-.084.105-.175.147-.273.042-.098.098-.19.168-.273.084 0 .154.028.21.084.028.028.042.056.042.084v-.21c-.028 0-.042-.014-.042-.042-.028 0-.042-.007-.042-.021 0-.014-.028-.021-.084-.021a.828.828 0 00.105-.294.653.653 0 01.105-.273 94.95 94.95 0 012.855.189c.84.07 1.547.133 2.121.189m-2.561.483c-.042-.028-.063-.056-.063-.084-.028-.028-.042-.056-.042-.084 0-.028-.028-.042-.084-.042-.056 0-.126.042-.21.126-.028.028-.042.056-.042.084l.042-.042c.028 0 .049-.007.063-.021.014-.014.035-.021.063-.021.084 0 .154.028.21.084.042.028.063.056.063.084v-.084m3.779.168l-.042-.042a.345.345 0 01-.105-.021.546.546 0 00-.294 0 .186.186 0 01-.084.02l-.042.043h.252a.36.36 0 01.147.02.186.186 0 00.084.022c.028.028.056.042.084.042v-.084M9.829 28.14c.63-.084 1.41-.161 2.341-.231.931-.07 1.984-.133 3.16-.189.084.168.168.332.252.493.084.161.196.312.336.452-.112.028-.28.042-.504.042v2.75h-.483v-2.75l-2.1.084v2.75h-.44v-2.666a9.19 9.19 0 00-.893.042 7.984 7.984 0 01-.766.042v2.666h-.441v-2.834c-.028-.028-.028-.056 0-.084 0-.056.056-.084.168-.084.084 0 .137.014.158.042.02.028.059.042.115.042l-.084-.084c-.07-.056-.133-.084-.189-.084a.285.285 0 00-.21.084c-.028.028-.042.056-.042.084v.336a1.965 1.965 0 01-.535.084h-.41v2.666h-.525V29.36a2.253 2.253 0 01-.546-.126.736.736 0 01-.21-.105v-.42c0-.084.172-.179.515-.284.343-.105.787-.2 1.333-.283m-.65.65c-.029 0-.043-.013-.043-.041-.028 0-.042-.007-.042-.021 0-.014-.028-.021-.084-.021a.292.292 0 00-.126.02.234.234 0 01-.105.022l-.042.042v.084l.042-.042a.234.234 0 00.105-.021.292.292 0 01.126-.021h.168m3.486-.252c.028 0 .049.007.063.02.014.015.035.022.063.022l.042.042c0-.028-.014-.056-.042-.084-.084-.084-.154-.126-.21-.126-.126 0-.19.042-.19.126-.027.028-.027.056 0 .084v.084c0-.028.022-.056.064-.084a.285.285 0 01.21-.084m2.708-.168a.345.345 0 01-.105-.021.465.465 0 00-.147-.021c-.042 0-.07.007-.084.02-.014.015-.035.022-.063.022h-.042c-.028.028-.028.042 0 .042v.21c0-.028.014-.056.042-.084.028-.028.06-.056.095-.084.035-.028.094-.042.178-.042.056 0 .112.042.168.126v-.126l-.042-.042m7.265-6.97c.938.027 1.7.234 2.288.619a3.455 3.455 0 011.292 1.48c.273.602.395 1.263.367 1.984a5.679 5.679 0 01-.472 2.068 5.174 5.174 0 01-1.197 1.711 4.1 4.1 0 01-1.858.998c.098.713.045 1.315-.158 1.805s-.476.9-.819 1.229c-.343.328-.745.57-1.207.724a5.401 5.401 0 01-1.386.273c-.336 0-.706-.063-1.112-.19a3.37 3.37 0 01-1.082-.556 1.968 1.968 0 01-.661-.881c-.126-.343-.077-.718.147-1.124.182-.14.423-.238.724-.294.301-.056.55.07.746.378a.963.963 0 01.147.809c-.07.3-.217.521-.441.661.476.406.951.609 1.427.609.476 0 .9-.13 1.27-.389.372-.258.673-.64.903-1.144.231-.504.347-1.085.347-1.742-1.092 0-2.061-.179-2.908-.536-.847-.357-1.533-.85-2.058-1.48a5.583 5.583 0 01-1.112-2.173c-.217-.819-.242-1.704-.074-2.656.182-.966.493-1.81.934-2.53.441-.721.956-1.354 1.544-1.9.587-.546 1.19-1.04 1.805-1.48a16.15 16.15 0 001.701-1.397c-.084-.434-.147-1.095-.189-1.984-.042-.889 0-1.778.126-2.666.126-.89.367-1.656.724-2.3.357-.643.865-.951 1.523-.923.49 0 .885.143 1.186.43.3.287.525.654.672 1.102.147.448.227.938.241 1.47a6.987 6.987 0 01-.105 1.47c-.238 1.232-.7 2.229-1.386 2.992a37.69 37.69 0 01-1.973 2.047v1.323c0 .378.007.759.02 1.144.015.385.036.724.064 1.018m-.735 8.21c.084-1.344.147-2.618.189-3.822.042-1.203.063-2.45.063-3.737-.574.056-1.095.333-1.564.83-.47.496-.732 1.193-.788 2.089-.028.335.007.633.105.892.098.259.22.497.368.714.147.217.304.434.472.65.168.218.308.438.42.662-.854-.308-1.452-.815-1.795-1.522-.343-.707-.452-1.41-.326-2.11s.448-1.337.966-1.911c.518-.574 1.204-.889 2.058-.945 0-.518-.007-1.022-.021-1.512a4.283 4.283 0 00-.231-1.322c-.322.28-.69.605-1.102.976-.413.371-.833.773-1.26 1.207-.427.434-.815.9-1.165 1.397a5.414 5.414 0 00-.777 1.606c-.252.868-.315 1.658-.19 2.372.127.714.4 1.337.82 1.869.42.532.958.941 1.616 1.228a4.846 4.846 0 002.142.389M24.19 9.139c-.517-.083-.92.126-1.207.63-.287.504-.49 1.12-.609 1.848a12.708 12.708 0 00-.157 2.278c.014.791.056 1.396.126 1.816.28-.14.584-.36.913-.661.33-.301.623-.665.882-1.092a7.3 7.3 0 00.65-1.396 5.569 5.569 0 00.305-1.533c.056-.364-.003-.749-.178-1.155s-.417-.65-.725-.735m-1.133 20.136c.728-.238 1.298-.721 1.71-1.449a4.764 4.764 0 00.641-2.3 3.819 3.819 0 00-.62-2.193c-.426-.658-1.143-1.057-2.151-1.197.084 1.204.175 2.376.273 3.517a42.39 42.39 0 01.147 3.622m-13.228-7.37a4.883 4.883 0 01-.588-.745 1.454 1.454 0 01-.23-.788c0-.406.286-.846.86-1.322.574-.476 1.361-.914 2.362-1.313 1.001-.399 2.166-.734 3.496-1.007a21.29 21.29 0 014.283-.41l-.525.4a8.338 8.338 0 01-.745.576 5.387 5.387 0 00-.745.62 28.554 28.554 0 00-3.234.493 19.647 19.647 0 00-2.624.735c-.742.273-1.327.553-1.753.84-.427.287-.64.57-.64.85v.168c0 .056.027.12.083.19.028-.239.242-.48.64-.725.4-.245.92-.473 1.565-.682.644-.21 1.403-.403 2.278-.578a50.936 50.936 0 012.782-.472c-.154.168-.308.34-.462.514-.154.175-.301.36-.441.557-1.89.293-3.38.703-4.472 1.228-1.092.525-1.694 1.032-1.806 1.522.224-.378.868-.731 1.932-1.06 1.064-.33 2.323-.606 3.78-.83a9.05 9.05 0 00-.578 1.27c-.161.442-.284.92-.368 1.439a7.481 7.481 0 00-.105.882c-.014.266-.02.532-.02.798-.84.084-1.561.167-2.163.251V23.04l-.126-.147c-.028-.028-.056-.042-.084-.042-.14.07-.224.119-.252.147-.028.028-.056.042-.084.042v2.435c-.574.126-1.019.245-1.333.357-.315.112-.543.21-.683.294v-4.22m14.361-3.99c.196-.195.396-.402.599-.619.203-.216.402-.458.598-.724 1.092.182 2.096.424 3.013.724.917.301 1.711.623 2.383.966.672.343 1.2.7 1.585 1.071s.578.717.578 1.04c0 .28-.091.542-.273.787a8.297 8.297 0 01-.63.745v4.22a4.11 4.11 0 00-.682-.294 13.129 13.129 0 00-1.25-.357V23.04c-.028 0-.056-.014-.084-.042a1.171 1.171 0 00-.336-.147c-.056 0-.098.014-.126.042-.055.07-.083.119-.083.147v2.267a5.48 5.48 0 00-.893-.104 11.816 11.816 0 01-1.102-.105v-.252c-.084-.756-.238-1.372-.462-1.848v-.441c0-.112-.105-.168-.315-.168-.658-1.064-1.673-1.722-3.044-1.974 1.007.056 1.977.154 2.908.294.93.14 1.774.312 2.53.515.755.203 1.385.42 1.89.65.503.232.825.459.965.683-.14-.574-.948-1.169-2.425-1.785-1.477-.616-3.46-1.021-5.952-1.217a3.454 3.454 0 01-.042-.525v-.462c1.091.112 2.145.259 3.16.44 1.014.183 1.91.39 2.687.62.777.231 1.4.483 1.869.756.469.273.731.542.787.808.07-.07.105-.133.105-.189v-.168c0-.28-.21-.563-.63-.85-.42-.287-.987-.56-1.7-.819a20.58 20.58 0 00-2.541-.714 35.326 35.326 0 00-3.087-.535M9.83 26.608c.251-.154.808-.287 1.668-.399a80.7 80.7 0 013.181-.336c.084.49.21.945.378 1.365-1.078.056-2.068.116-2.97.179-.904.063-1.656.122-2.258.178v-.987m17.406.63c.14-.476.21-.917.21-1.323 1.204.084 2.208.182 3.013.294.805.112 1.333.245 1.585.4v.986a126.573 126.573 0 00-4.808-.357"
         fill-opacity=".949" fill="#fff" />
   </g>
</svg>