<?xml version="1.0" encoding="UTF-8" standalone="no"?>
<svg
   xmlns:dc="http://purl.org/dc/elements/1.1/"
   xmlns:cc="http://creativecommons.org/ns#"
   xmlns:rdf="http://www.w3.org/1999/02/22-rdf-syntax-ns#"
   xmlns:svg="http://www.w3.org/2000/svg"
   xmlns="http://www.w3.org/2000/svg"
   xmlns:sodipodi="http://sodipodi.sourceforge.net/DTD/sodipodi-0.dtd"
   xmlns:inkscape="http://www.inkscape.org/namespaces/inkscape"
   inkscape:version="1.0 (4035a4fb49, 2020-05-01)"
   sodipodi:docname="1614.svg"
   id="svg20"
   version="1.2"
   viewBox="0 0 42.519639 42.519639"
   height="14.999999mm"
   width="14.999999mm">
  <metadata
     id="metadata24">
    <rdf:RDF>
      <cc:Work
         rdf:about="">
        <dc:format>image/svg+xml</dc:format>
        <dc:type
           rdf:resource="http://purl.org/dc/dcmitype/StillImage" />
        <dc:title>Qt SVG Document</dc:title>
      </cc:Work>
    </rdf:RDF>
  </metadata>
  <sodipodi:namedview
     inkscape:current-layer="svg20"
     inkscape:window-maximized="0"
     inkscape:window-y="0"
     inkscape:window-x="0"
     inkscape:cy="28.346482"
     inkscape:cx="28.346482"
     inkscape:zoom="5.8410537"
     showgrid="false"
     id="namedview22"
     inkscape:window-height="480"
     inkscape:window-width="1034"
     inkscape:pageshadow="2"
     inkscape:pageopacity="0"
     guidetolerance="10"
     gridtolerance="10"
     objecttolerance="10"
     borderopacity="1"
     bordercolor="#666666"
     pagecolor="#ffffff" />
  <title
     id="title2">Qt SVG Document</title>
  <desc
     id="desc4">Generated with Qt</desc>
  <defs
     id="defs6" />
  <g
     transform="translate(5.25984,5.25984)"
     id="g18"
     stroke-linejoin="bevel"
     stroke-linecap="square"
     fill-rule="evenodd"
     stroke-width="1"
     stroke="#000000"
     fill="none">
    <g
       id="g10"
       font-style="normal"
       font-weight="400"
       font-size="7.8px"
       font-family="'MS Shell Dlg 2'"
       stroke="none"
       fill-opacity="1"
       fill="#53a54f">
      <path
         id="path8"
         d="M 37.2598,16 C 37.2598,27.7415 27.7415,37.2598 16,37.2598 4.25851,37.2598 -5.25984,27.7415 -5.25984,16 -5.25984,4.25851 4.25851,-5.25984 16,-5.25984 27.7415,-5.25984 37.2598,4.25851 37.2598,16"
         fill-rule="evenodd"
         vector-effect="non-scaling-stroke" />
    </g>
    <g
       id="g14"
       font-style="normal"
       font-weight="400"
       font-size="7.8px"
       font-family="'MS Shell Dlg 2'"
       transform="translate(15.4331,12.0315)"
       stroke="none"
       fill-opacity="0.94902"
       fill="#ffffff">
      <path
         id="path12"
         d="m 11.3501,10.8496 c 1.2038,0.182 1.8057,0.3709 1.8057,0.5669 v 0.4199 l -0.168,0.105 c -0.168,0.056 -0.3079,0.098 -0.4199,0.126 v 2.4355 H 11.917 v -2.6665 c -0.112,0 -0.2485,0 -0.4094,0 -0.161,0 -0.3395,-0.028 -0.5354,-0.084 v -0.3359 l -0.084,-0.084 c -0.056,-0.056 -0.112,-0.084 -0.168,-0.084 -0.084,0 -0.161,0.028 -0.2309,0.084 -0.028,0.028 -0.042,0.056 -0.042,0.084 0.07,0 0.1119,-0.014 0.1259,-0.042 0.014,-0.028 0.063,-0.042 0.147,-0.042 0.028,0 0.07,0.028 0.126,0.084 0,0.028 0.014,0.056 0.042,0.084 v 2.8345 h -0.4409 v -2.6665 c -0.224,0 -0.46545,-0.014 -0.7244,-0.042 -0.25895,-0.028 -0.57039,-0.042 -0.93433,-0.042 V 14.251 H 8.34766 V 11.5005 L 6.33203,11.4165 V 14.167 H 5.76514 v -2.4566 c 0.05599,-0.0839 0.10498,-0.1749 0.14697,-0.2729 0.04199,-0.098 0.09798,-0.189 0.16797,-0.2729 0.08398,0 0.15397,0.0279 0.20996,0.0839 0.02799,0.028 0.04199,0.056 0.04199,0.084 v -0.2099 c -0.02799,0 -0.04199,-0.014 -0.04199,-0.042 -0.028,0 -0.04199,-0.007 -0.04199,-0.021 0,-0.014 -0.028,-0.021 -0.08399,-0.021 0.05599,-0.098 0.09099,-0.196 0.10498,-0.294 0.014,-0.098 0.04899,-0.1889 0.10498,-0.2729 1.06381,0.056 2.01563,0.119 2.85547,0.1889 0.83981,0.07 1.54671,0.133 2.12061,0.189 m -2.56153,0.4829 c -0.04199,-0.028 -0.06298,-0.056 -0.06298,-0.084 -0.028,-0.028 -0.042,-0.056 -0.042,-0.0839 0,-0.028 -0.02799,-0.042 -0.08398,-0.042 -0.05599,0 -0.12598,0.042 -0.20996,0.1259 -0.028,0.028 -0.04199,0.056 -0.04199,0.084 l 0.04199,-0.042 c 0.02799,0 0.04899,-0.007 0.06299,-0.021 0.01399,-0.014 0.03499,-0.021 0.06299,-0.021 0.08398,0 0.15397,0.028 0.20996,0.084 0.04199,0.028 0.06298,0.056 0.06298,0.084 v -0.084 m 3.77933,0.168 -0.042,-0.042 c -0.028,0 -0.063,-0.007 -0.105,-0.021 -0.042,-0.014 -0.098,-0.021 -0.168,-0.021 -0.056,0 -0.098,0.007 -0.1259,0.021 -0.028,0.014 -0.056,0.021 -0.084,0.021 l -0.042,0.042 h 0.2519 c 0.07,0 0.119,0.007 0.147,0.021 0.028,0.014 0.056,0.021 0.084,0.021 0.028,0.028 0.056,0.042 0.084,0.042 v -0.084 m -23.4317,-0.6509 c 0.6299,-0.084 1.41027,-0.161 2.34109,-0.2309 0.93083,-0.07 1.98414,-0.133 3.15992,-0.189 0.08398,0.168 0.16797,0.3324 0.25195,0.4934 0.08398,0.161 0.19596,0.3114 0.33594,0.4514 -0.11198,0.028 -0.27995,0.042 -0.50391,0.042 v 2.7505 h -0.48291 v -2.7505 l -2.09961,0.084 v 2.7505 h -0.44092 v -2.6665 c -0.30794,0 -0.60538,0.014 -0.89233,0.042 -0.28695,0.028 -0.5424,0.042 -0.76636,0.042 v 2.6665 h -0.44096 v -2.8345 c -0.028,-0.028 -0.028,-0.056 0,-0.084 0,-0.056 0.056,-0.084 0.168,-0.084 0.084,0 0.1365,0.014 0.1575,0.042 0.021,0.028 0.0595,0.042 0.11546,0.042 l -0.08396,-0.084 c -0.07,-0.056 -0.133,-0.084 -0.189,-0.084 -0.084,0 -0.154,0.028 -0.2099,0.084 -0.028,0.028 -0.042,0.056 -0.042,0.084 v 0.3359 c -0.196,0.056 -0.3745,0.084 -0.5354,0.084 -0.161,0 -0.2975,0 -0.4095,0 v 2.6665 h -0.5249 v -2.4355 c -0.2239,-0.028 -0.4059,-0.07 -0.5459,-0.126 -0.0839,-0.028 -0.1539,-0.063 -0.2099,-0.105 v -0.4199 c 0,-0.084 0.1714,-0.1785 0.5144,-0.2834 0.3429,-0.105 0.7873,-0.1995 1.3332,-0.2835 m -0.6508,0.6509 c -0.028,0 -0.042,-0.014 -0.042,-0.042 -0.028,0 -0.042,-0.007 -0.042,-0.021 0,-0.014 -0.028,-0.021 -0.084,-0.021 -0.056,0 -0.098,0.007 -0.126,0.021 -0.028,0.014 -0.063,0.021 -0.105,0.021 l -0.042,0.042 v 0.084 l 0.042,-0.042 c 0.042,0 0.077,-0.007 0.105,-0.021 0.028,-0.014 0.07,-0.021 0.126,-0.021 h 0.168 m 3.4853,-0.252 c 0.028,0 0.04899,0.007 0.06299,0.021 0.014,0.014 0.03499,0.021 0.06299,0.021 l 0.04199,0.042 c 0,-0.028 -0.014,-0.056 -0.04199,-0.084 -0.08398,-0.0839 -0.15397,-0.1259 -0.20996,-0.1259 -0.12598,0 -0.18897,0.042 -0.18897,0.1259 -0.02799,0.028 -0.02799,0.056 0,0.084 v 0.084 c 0,-0.028 0.021,-0.056 0.06299,-0.084 0.05599,-0.056 0.12598,-0.084 0.20996,-0.084 m 2.7085,-0.1679 c -0.028,0 -0.06299,-0.007 -0.10498,-0.021 -0.04199,-0.014 -0.09098,-0.021 -0.14697,-0.021 -0.042,0 -0.06999,0.007 -0.08399,0.021 -0.014,0.014 -0.03499,0.021 -0.06299,0.021 h -0.04199 c -0.02799,0.028 -0.02799,0.042 0,0.042 v 0.2099 c 0,-0.028 0.014,-0.056 0.04199,-0.084 0.028,-0.028 0.05949,-0.056 0.09449,-0.0839 0.03499,-0.028 0.09448,-0.042 0.17846,-0.042 0.05599,0 0.11198,0.042 0.16797,0.1259 V 11.1226 L -5.3208,11.0806 M 1.94385,4.10986 C 2.88167,4.13786 3.64453,4.34432 4.23242,4.72925 4.82031,5.11418 5.25073,5.60758 5.52368,6.20947 5.79663,6.81136 5.91911,7.47274 5.89111,8.1936 5.86312,8.91447 5.70565,9.60384 5.4187,10.2617 5.13175,10.9196 4.73283,11.49 4.22192,11.9729 c -0.5109,0.4829 -1.13029,0.8153 -1.85815,0.9973 0.09798,0.7139 0.04549,1.3158 -0.15747,1.8057 -0.20296,0.4899 -0.47591,0.8993 -0.81885,1.2283 -0.34294,0.3289 -0.74536,0.5703 -1.207274,0.7243 -0.461914,0.154 -0.923828,0.245 -1.385746,0.273 -0.33593,0 -0.70686,-0.063 -1.11279,-0.189 -0.40592,-0.126 -0.76636,-0.3114 -1.0813,-0.5564 -0.31494,-0.245 -0.5354,-0.5389 -0.66138,-0.8818 -0.12597,-0.343 -0.07698,-0.7174 0.14698,-1.1233 0.18196,-0.14 0.42342,-0.238 0.72436,-0.294 0.30095,-0.056 0.5494,0.07 0.74536,0.378 0.16797,0.2379 0.21696,0.5074 0.14698,0.8083 -0.06999,0.301 -0.21696,0.5214 -0.44092,0.6614 0.47591,0.4059 0.95182,0.6089 1.42773,0.6089 0.475915,0 0.899336,-0.1295 1.2702668,-0.3885 C 0.330648,15.7662 0.631592,15.3848 0.862549,14.8809 1.09351,14.377 1.20898,13.7961 1.20898,13.1382 c -1.091792,0 -2.061112,-0.1785 -2.90795,-0.5354 -0.84685,-0.357 -1.53272,-0.8504 -2.05762,-1.4802 C -4.28149,10.4927 -4.65243,9.76831 -4.86938,8.94946 -5.08634,8.13062 -5.11084,7.24528 -4.94287,6.29346 -4.7609,5.32764 -4.44946,4.48429 -4.00854,3.76343 -3.56763,3.04256 -3.05322,2.40918 -2.46533,1.86328 -1.87744,1.31738 -1.27555,0.823975 -0.659668,0.383057 -0.0437826,-0.0578613 0.523112,-0.523275 1.04102,-1.01318 0.957031,-1.4471 0.894043,-2.10848 0.852051,-2.99731 c -0.041992,-0.88884 0,-1.77767 0.125976,-2.66651 C 1.104,-6.55265 1.34546,-7.31901 1.70239,-7.96289 c 0.35694,-0.64388 0.86434,-0.95182 1.52222,-0.92383 0.48991,0 0.88533,0.14347 1.18628,0.43042 0.30094,0.28695 0.5249,0.65438 0.67187,1.1023 0.14698,0.44791 0.22746,0.93782 0.24146,1.46972 0.014,0.5319 -0.021,1.02181 -0.10498,1.46973 C 4.98128,-3.18278 4.51937,-2.18547 3.8335,-1.42261 3.14762,-0.659749 2.48975,0.0226237 1.85986,0.624512 V 1.94727 c 0,0.37793 0.007,0.75935 0.021,1.14428 0.014,0.38493 0.03499,0.72437 0.06299,1.01831 M 1.20898,12.3193 C 1.29297,10.9756 1.35596,9.70182 1.39795,8.49805 1.43994,7.29427 1.46094,6.0485 1.46094,4.76074 0.887044,4.81673 0.365641,5.09318 -0.103271,5.59009 -0.572184,6.087 -0.834635,6.78337 -0.890625,7.6792 -0.91862,8.01514 -0.883626,8.31258 -0.785645,8.57153 -0.687663,8.83049 -0.565186,9.06844 -0.418213,9.2854 -0.27124,9.50236 -0.11377,9.71932 0.0541992,9.93628 0.222168,10.1532 0.362142,10.3737 0.474121,10.5977 -0.37972,10.2897 -0.978109,9.78231 -1.32104,9.07544 -1.66398,8.36857 -1.77246,7.6652 -1.64648,6.96533 -1.52051,6.26546 -1.19857,5.62858 -0.680664,5.05469 -0.16276,4.48079 0.523112,4.16585 1.37695,4.10986 1.37695,3.59196 1.36995,3.08805 1.35596,2.59814 1.34196,2.10824 1.26497,1.66732 1.125,1.27539 0.80306,1.55534 0.435628,1.88078 0.0227051,2.25171 -0.390218,2.62264 -0.81014,3.02507 -1.23706,3.45898 -1.66398,3.8929 -2.05241,4.35832 -2.40234,4.85522 -2.75228,5.35213 -3.01123,5.88753 -3.1792,6.46143 c -0.25195,0.86783 -0.31494,1.65869 -0.18896,2.37255 0.12597,0.71387 0.39892,1.33672 0.81884,1.86862 0.41993,0.5319 0.95883,0.9414 1.616703,1.2283 0.657877,0.287 1.371745,0.4164 2.141597,0.3884 M 3.49756,-8.15186 C 2.97965,-8.23584 2.57723,-8.02588 2.29028,-7.52197 2.00334,-7.01807 1.80037,-6.40218 1.6814,-5.67432 1.56242,-4.94645 1.50993,-4.18709 1.52393,-3.39624 1.53792,-2.60539 1.57992,-2 1.6499,-1.58008 1.92985,-1.72005 2.23429,-1.94051 2.56323,-2.24146 2.89217,-2.5424 3.18612,-2.90633 3.44507,-3.33325 3.70402,-3.76017 3.92098,-4.22559 4.09595,-4.72949 4.27091,-5.2334 4.3724,-5.7443 4.40039,-6.26221 4.45638,-6.62614 4.39689,-7.01107 4.22192,-7.41699 4.04696,-7.82292 3.8055,-8.06787 3.49756,-8.15186 M 2.36377,11.9834 C 3.09163,11.7454 3.66203,11.2625 4.07495,10.5347 4.48787,9.8068 4.70133,9.04045 4.71533,8.2356 4.72933,7.43075 4.52287,6.69938 4.09595,6.0415 3.66903,5.38363 2.95166,4.9847 1.94385,4.84473 2.02783,6.0485 2.11882,7.22078 2.2168,8.36157 2.31478,9.50236 2.36377,10.7096 2.36377,11.9834 M -10.8638,4.61377 c -0.2379,-0.25195 -0.4339,-0.50041 -0.5879,-0.74536 -0.1539,-0.24496 -0.2309,-0.50741 -0.2309,-0.78736 0,-0.40592 0.2869,-0.84684 0.8608,-1.32275 0.5739,-0.47591 1.36127,-0.913329 2.36208,-1.312255 1.00082,-0.3989259 2.1661,-0.734863 3.49585,-1.007813 1.32976,-0.272949 2.75749,-0.409423 4.283206,-0.409423 L -1.20557,-0.572266 C -1.42952,-0.376302 -1.67798,-0.183838 -1.95093,0.00512695 -2.22388,0.194092 -2.47233,0.400553 -2.69629,0.624512 -3.84408,0.736491 -4.92188,0.90096 -5.92969,1.11792 -6.9375,1.33488 -7.81234,1.57983 -8.5542,1.85278 c -0.74186,0.27295 -1.32625,0.5529 -1.7532,0.83985 -0.4269,0.28694 -0.6404,0.57039 -0.6404,0.85034 0,0.05599 0,0.11198 0,0.16797 0,0.05599 0.028,0.11898 0.084,0.18896 0.028,-0.23795 0.2415,-0.47941 0.6404,-0.72436 C -9.82446,2.93058 -9.30306,2.70313 -8.65918,2.49316 -8.0153,2.2832 -7.25594,2.09074 -6.3811,1.91577 -5.50627,1.7408 -4.57894,1.58333 -3.59912,1.44336 -3.75309,1.61133 -3.90706,1.7828 -4.06104,1.95776 -4.21501,2.13273 -4.36198,2.3182 -4.50195,2.51416 -6.3916,2.80811 -7.88232,3.21753 -8.97412,3.74243 c -1.09178,0.5249 -1.69368,1.03231 -1.80568,1.52222 0.224,-0.37793 0.86785,-0.73137 1.93166,-1.0603 1.0638,-0.32894 2.32356,-0.60539 3.77929,-0.82935 -0.22396,0.40592 -0.41642,0.82935 -0.57739,1.27026 -0.16097,0.44092 -0.28345,0.92033 -0.36743,1.43824 -0.05599,0.32194 -0.09098,0.61588 -0.10498,0.88183 -0.014,0.26595 -0.021,0.5319 -0.021,0.79785 -0.83984,0.08399 -1.56071,0.16797 -2.1626,0.25196 V 5.74756 c 0,0 -0.04199,-0.04899 -0.12597,-0.14697 -0.028,-0.028 -0.05599,-0.042 -0.08399,-0.042 -0.13997,0.06999 -0.22396,0.11898 -0.25195,0.14698 -0.02799,0.02799 -0.05599,0.04199 -0.08398,0.04199 v 2.43555 c -0.5739,0.12597 -1.01832,0.24495 -1.33326,0.35693 -0.3149,0.11198 -0.5424,0.20996 -0.6824,0.29394 V 4.61377 M 3.49756,0.624512 C 3.69352,0.428548 3.89299,0.222087 4.09595,0.00512695 4.29891,-0.211833 4.49837,-0.453288 4.69434,-0.719238 5.78613,-0.537272 6.79045,-0.295817 7.70728,0.00512695 8.6241,0.306071 9.41846,0.628011 10.0903,0.970947 c 0.6719,0.342933 1.2003,0.699873 1.5852,1.070803 0.385,0.37093 0.5774,0.71736 0.5774,1.0393 0,0.27995 -0.091,0.5424 -0.2729,0.78736 -0.182,0.24495 -0.3919,0.49341 -0.6299,0.74536 V 8.83398 C 11.2101,8.75 10.9827,8.65202 10.6677,8.54004 10.3528,8.42806 9.93636,8.30908 9.41846,8.18311 V 5.74756 c -0.028,0 -0.05599,-0.014 -0.08399,-0.04199 C 9.22249,5.63558 9.11051,5.58659 8.99854,5.55859 c -0.05599,0 -0.09799,0.014 -0.12598,0.042 C 8.81657,5.67057 8.78857,5.71956 8.78857,5.74756 V 8.01514 C 8.52262,7.95915 8.22518,7.92415 7.89624,7.91016 7.5673,7.89616 7.19987,7.86117 6.79395,7.80518 V 7.55322 C 6.70996,6.79736 6.55599,6.18148 6.33203,5.70557 V 5.26465 C 6.33203,5.15267 6.22705,5.09668 6.01709,5.09668 5.35921,4.03288 4.3444,3.375 2.97266,3.12305 3.98047,3.17904 4.94979,3.27702 5.88062,3.41699 6.81144,3.55697 7.65479,3.72843 8.41064,3.9314 9.1665,4.13436 9.79639,4.35132 10.3003,4.58228 10.8042,4.81323 11.1261,5.04069 11.2661,5.26465 11.1261,4.69076 10.3178,4.09587 8.84106,3.47998 7.36434,2.8641 5.38021,2.45817 2.88867,2.26221 2.86068,2.08024 2.84668,1.90527 2.84668,1.7373 c 0,-0.16796 0,-0.32194 0,-0.46191 1.0918,0.11198 2.1451,0.25895 3.15991,0.44092 1.01481,0.18196 1.91065,0.38843 2.6875,0.61938 0.77686,0.23096 1.39971,0.48291 1.86861,0.75586 0.469,0.27295 0.7314,0.5424 0.7874,0.80835 0.07,-0.06998 0.105,-0.13297 0.105,-0.18896 0,-0.05599 0,-0.11198 0,-0.16797 0,-0.27995 -0.21,-0.5634 -0.6299,-0.85034 C 10.4053,2.40568 9.83838,2.13273 9.12451,1.87378 8.41064,1.61483 7.5638,1.37687 6.58398,1.15991 5.60417,0.942952 4.57536,0.764486 3.49756,0.624512 M -10.8638,9.31689 c 0.252,-0.15397 0.8084,-0.28694 1.66922,-0.39892 0.86084,-0.11198 1.92114,-0.22396 3.18091,-0.33594 0.08398,0.48991 0.20996,0.94483 0.37793,1.36475 -1.0778,0.05602 -2.06812,0.11552 -2.97095,0.17842 -0.90283,0.063 -1.65521,0.1225 -2.25711,0.1785 V 9.31689 M 6.54199,9.94678 C 6.68197,9.47087 6.75195,9.02995 6.75195,8.62402 7.95573,8.70801 8.96004,8.80599 9.76489,8.91797 10.5697,9.02995 11.0981,9.16292 11.3501,9.31689 V 10.3037 C 10.7762,10.2477 10.0833,10.1882 9.27148,10.1252 8.45964,10.0623 7.5498,10.0028 6.54199,9.94678"
         fill-rule="evenodd"
         vector-effect="none" />
    </g>
    <g
       id="g16"
       font-style="normal"
       font-weight="400"
       font-size="7.8px"
       font-family="'MS Shell Dlg 2'"
       stroke="none"
       fill-opacity="1"
       fill="#53a54f" />
  </g>
</svg>
