<?xml version="1.0" encoding="UTF-8" standalone="no"?>
<svg width="11.25008mm" height="11.25008mm"
 viewBox="-5.3 -5.3 42.52000 42.52000"
 xmlns="http://www.w3.org/2000/svg" xmlns:xlink="http://www.w3.org/1999/xlink"  version="1.2" baseProfile="tiny">
<title>Qt SVG Document</title>
<desc>Generated with Qt</desc>
<defs>
</defs>
<g fill="none" stroke="black" stroke-width="1" fill-rule="evenodd" stroke-linecap="square" stroke-linejoin="bevel" >

<g fill="#53a54f" fill-opacity="1" stroke="none" transform="matrix(1,0,0,1,0,0)"
font-family="MS Shell Dlg 2" font-size="7.8" font-weight="400" font-style="normal" 
>
<path vector-effect="non-scaling-stroke" fill-rule="evenodd" d="M37.2598,16 C37.2598,27.7415 27.7415,37.2598 16,37.2598 C4.25851,37.2598 -5.25984,27.7415 -5.25984,16 C-5.25984,4.25851 4.25851,-5.25984 16,-5.25984 C27.7415,-5.25984 37.2598,4.25851 37.2598,16 "/>
</g>

<g fill="#ffffff" fill-opacity="0.94902" stroke="none" transform="matrix(1,0,0,1,15.4331,12.0315)"
font-family="MS Shell Dlg 2" font-size="7.8" font-weight="400" font-style="normal" 
>
<path vector-effect="none" fill-rule="evenodd" d="M11.3501,10.8496 C12.5539,11.0316 13.1558,11.2205 13.1558,11.4165 L13.1558,11.8364 L12.9878,11.9414 C12.8198,11.9974 12.6799,12.0394 12.5679,12.0674 L12.5679,14.5029 L11.917,14.5029 L11.917,11.8364 C11.805,11.8364 11.6685,11.8364 11.5076,11.8364 C11.3466,11.8364 11.1681,11.8084 10.9722,11.7524 L10.9722,11.4165 L10.8882,11.3325 C10.8322,11.2765 10.7762,11.2485 10.7202,11.2485 C10.6362,11.2485 10.5592,11.2765 10.4893,11.3325 C10.4613,11.3605 10.4473,11.3885 10.4473,11.4165 C10.5173,11.4165 10.5592,11.4025 10.5732,11.3745 C10.5872,11.3465 10.6362,11.3325 10.7202,11.3325 C10.7482,11.3325 10.7902,11.3605 10.8462,11.4165 C10.8462,11.4445 10.8602,11.4725 10.8882,11.5005 L10.8882,14.335 L10.4473,14.335 L10.4473,11.6685 C10.2233,11.6685 9.98185,11.6545 9.7229,11.6265 C9.46395,11.5985 9.15251,11.5845 8.78857,11.5845 L8.78857,14.251 L8.34766,14.251 L8.34766,11.5005 L6.33203,11.4165 L6.33203,14.167 L5.76514,14.167 L5.76514,11.7104 C5.82113,11.6265 5.87012,11.5355 5.91211,11.4375 C5.9541,11.3395 6.01009,11.2485 6.08008,11.1646 C6.16406,11.1646 6.23405,11.1925 6.29004,11.2485 C6.31803,11.2765 6.33203,11.3045 6.33203,11.3325 L6.33203,11.1226 C6.30404,11.1226 6.29004,11.1086 6.29004,11.0806 C6.26204,11.0806 6.24805,11.0736 6.24805,11.0596 C6.24805,11.0456 6.22005,11.0386 6.16406,11.0386 C6.22005,10.9406 6.25505,10.8426 6.26904,10.7446 C6.28304,10.6466 6.31803,10.5557 6.37402,10.4717 C7.43783,10.5277 8.38965,10.5907 9.22949,10.6606 C10.0693,10.7306 10.7762,10.7936 11.3501,10.8496 M8.78857,11.3325 C8.74658,11.3045 8.72559,11.2765 8.72559,11.2485 C8.69759,11.2205 8.68359,11.1925 8.68359,11.1646 C8.68359,11.1366 8.6556,11.1226 8.59961,11.1226 C8.54362,11.1226 8.47363,11.1646 8.38965,11.2485 C8.36165,11.2765 8.34766,11.3045 8.34766,11.3325 L8.38965,11.2905 C8.41764,11.2905 8.43864,11.2835 8.45264,11.2695 C8.46663,11.2555 8.48763,11.2485 8.51563,11.2485 C8.59961,11.2485 8.6696,11.2765 8.72559,11.3325 C8.76758,11.3605 8.78857,11.3885 8.78857,11.4165 L8.78857,11.3325 M12.5679,11.5005 L12.5259,11.4585 C12.4979,11.4585 12.4629,11.4515 12.4209,11.4375 C12.3789,11.4235 12.3229,11.4165 12.2529,11.4165 C12.1969,11.4165 12.1549,11.4235 12.127,11.4375 C12.099,11.4515 12.071,11.4585 12.043,11.4585 L12.001,11.5005 L12.2529,11.5005 C12.3229,11.5005 12.3719,11.5075 12.3999,11.5215 C12.4279,11.5355 12.4559,11.5425 12.4839,11.5425 C12.5119,11.5705 12.5399,11.5845 12.5679,11.5845 L12.5679,11.5005 M-10.8638,10.8496 C-10.2339,10.7656 -9.45353,10.6886 -8.52271,10.6187 C-7.59188,10.5487 -6.53857,10.4857 -5.36279,10.4297 C-5.27881,10.5977 -5.19482,10.7621 -5.11084,10.9231 C-5.02686,11.0841 -4.91488,11.2345 -4.7749,11.3745 C-4.88688,11.4025 -5.05485,11.4165 -5.27881,11.4165 L-5.27881,14.167 L-5.76172,14.167 L-5.76172,11.4165 L-7.86133,11.5005 L-7.86133,14.251 L-8.30225,14.251 L-8.30225,11.5845 C-8.61019,11.5845 -8.90763,11.5985 -9.19458,11.6265 C-9.48153,11.6545 -9.73698,11.6685 -9.96094,11.6685 L-9.96094,14.335 L-10.4019,14.335 L-10.4019,11.5005 C-10.4299,11.4725 -10.4299,11.4445 -10.4019,11.4165 C-10.4019,11.3605 -10.3459,11.3325 -10.2339,11.3325 C-10.1499,11.3325 -10.0974,11.3465 -10.0764,11.3745 C-10.0554,11.4025 -10.0169,11.4165 -9.96094,11.4165 L-10.0449,11.3325 C-10.1149,11.2765 -10.1779,11.2485 -10.2339,11.2485 C-10.3179,11.2485 -10.3879,11.2765 -10.4438,11.3325 C-10.4718,11.3605 -10.4858,11.3885 -10.4858,11.4165 L-10.4858,11.7524 C-10.6818,11.8084 -10.8603,11.8364 -11.0212,11.8364 C-11.1822,11.8364 -11.3187,11.8364 -11.4307,11.8364 L-11.4307,14.5029 L-11.9556,14.5029 L-11.9556,12.0674 C-12.1795,12.0394 -12.3615,11.9974 -12.5015,11.9414 C-12.5854,11.9134 -12.6554,11.8784 -12.7114,11.8364 L-12.7114,11.4165 C-12.7114,11.3325 -12.54,11.238 -12.197,11.1331 C-11.8541,11.0281 -11.4097,10.9336 -10.8638,10.8496 M-11.5146,11.5005 C-11.5426,11.5005 -11.5566,11.4865 -11.5566,11.4585 C-11.5846,11.4585 -11.5986,11.4515 -11.5986,11.4375 C-11.5986,11.4235 -11.6266,11.4165 -11.6826,11.4165 C-11.7386,11.4165 -11.7806,11.4235 -11.8086,11.4375 C-11.8366,11.4515 -11.8716,11.4585 -11.9136,11.4585 L-11.9556,11.5005 L-11.9556,11.5845 L-11.9136,11.5425 C-11.8716,11.5425 -11.8366,11.5355 -11.8086,11.5215 C-11.7806,11.5075 -11.7386,11.5005 -11.6826,11.5005 L-11.5146,11.5005 M-8.0293,11.2485 C-8.0013,11.2485 -7.98031,11.2555 -7.96631,11.2695 C-7.95231,11.2835 -7.93132,11.2905 -7.90332,11.2905 L-7.86133,11.3325 C-7.86133,11.3045 -7.87533,11.2765 -7.90332,11.2485 C-7.9873,11.1646 -8.05729,11.1226 -8.11328,11.1226 C-8.23926,11.1226 -8.30225,11.1646 -8.30225,11.2485 C-8.33024,11.2765 -8.33024,11.3045 -8.30225,11.3325 L-8.30225,11.4165 C-8.30225,11.3885 -8.28125,11.3605 -8.23926,11.3325 C-8.18327,11.2765 -8.11328,11.2485 -8.0293,11.2485 M-5.3208,11.0806 C-5.3488,11.0806 -5.38379,11.0736 -5.42578,11.0596 C-5.46777,11.0456 -5.51676,11.0386 -5.57275,11.0386 C-5.61475,11.0386 -5.64274,11.0456 -5.65674,11.0596 C-5.67074,11.0736 -5.69173,11.0806 -5.71973,11.0806 L-5.76172,11.0806 C-5.78971,11.1086 -5.78971,11.1226 -5.76172,11.1226 L-5.76172,11.3325 C-5.76172,11.3045 -5.74772,11.2765 -5.71973,11.2485 C-5.69173,11.2205 -5.66024,11.1925 -5.62524,11.1646 C-5.59025,11.1366 -5.53076,11.1226 -5.44678,11.1226 C-5.39079,11.1226 -5.3348,11.1646 -5.27881,11.2485 L-5.27881,11.1226 L-5.3208,11.0806 M1.94385,4.10986 C2.88167,4.13786 3.64453,4.34432 4.23242,4.72925 C4.82031,5.11418 5.25073,5.60758 5.52368,6.20947 C5.79663,6.81136 5.91911,7.47274 5.89111,8.1936 C5.86312,8.91447 5.70565,9.60384 5.4187,10.2617 C5.13175,10.9196 4.73283,11.49 4.22192,11.9729 C3.71102,12.4558 3.09163,12.7882 2.36377,12.9702 C2.46175,13.6841 2.40926,14.286 2.2063,14.7759 C2.00334,15.2658 1.73039,15.6752 1.38745,16.0042 C1.04451,16.3331 0.64209,16.5745 0.180176,16.7285 C-0.281738,16.8825 -0.743652,16.9735 -1.20557,17.0015 C-1.5415,17.0015 -1.91243,16.9385 -2.31836,16.8125 C-2.72428,16.6865 -3.08472,16.5011 -3.39966,16.2561 C-3.7146,16.0111 -3.93506,15.7172 -4.06104,15.3743 C-4.18701,15.0313 -4.13802,14.6569 -3.91406,14.251 C-3.7321,14.111 -3.49064,14.013 -3.1897,13.957 C-2.88875,13.901 -2.6403,14.027 -2.44434,14.335 C-2.27637,14.5729 -2.22738,14.8424 -2.29736,15.1433 C-2.36735,15.4443 -2.51432,15.6647 -2.73828,15.8047 C-2.26237,16.2106 -1.78646,16.4136 -1.31055,16.4136 C-0.834635,16.4136 -0.411214,16.2841 -0.0402832,16.0251 C0.330648,15.7662 0.631592,15.3848 0.862549,14.8809 C1.09351,14.377 1.20898,13.7961 1.20898,13.1382 C0.117188,13.1382 -0.852132,12.9597 -1.69897,12.6028 C-2.54582,12.2458 -3.23169,11.7524 -3.75659,11.1226 C-4.28149,10.4927 -4.65243,9.76831 -4.86938,8.94946 C-5.08634,8.13062 -5.11084,7.24528 -4.94287,6.29346 C-4.7609,5.32764 -4.44946,4.48429 -4.00854,3.76343 C-3.56763,3.04256 -3.05322,2.40918 -2.46533,1.86328 C-1.87744,1.31738 -1.27555,0.823975 -0.659668,0.383057 C-0.0437826,-0.0578613 0.523112,-0.523275 1.04102,-1.01318 C0.957031,-1.4471 0.894043,-2.10848 0.852051,-2.99731 C0.810059,-3.88615 0.852051,-4.77498 0.978027,-5.66382 C1.104,-6.55265 1.34546,-7.31901 1.70239,-7.96289 C2.05933,-8.60677 2.56673,-8.91471 3.22461,-8.88672 C3.71452,-8.88672 4.10994,-8.74325 4.41089,-8.4563 C4.71183,-8.16935 4.93579,-7.80192 5.08276,-7.354 C5.22974,-6.90609 5.31022,-6.41618 5.32422,-5.88428 C5.33822,-5.35238 5.30322,-4.86247 5.21924,-4.41455 C4.98128,-3.18278 4.51937,-2.18547 3.8335,-1.42261 C3.14762,-0.659749 2.48975,0.0226237 1.85986,0.624512 L1.85986,1.94727 C1.85986,2.3252 1.86686,2.70662 1.88086,3.09155 C1.89486,3.47648 1.91585,3.81592 1.94385,4.10986 M1.20898,12.3193 C1.29297,10.9756 1.35596,9.70182 1.39795,8.49805 C1.43994,7.29427 1.46094,6.0485 1.46094,4.76074 C0.887044,4.81673 0.365641,5.09318 -0.103271,5.59009 C-0.572184,6.087 -0.834635,6.78337 -0.890625,7.6792 C-0.91862,8.01514 -0.883626,8.31258 -0.785645,8.57153 C-0.687663,8.83049 -0.565186,9.06844 -0.418213,9.2854 C-0.27124,9.50236 -0.11377,9.71932 0.0541992,9.93628 C0.222168,10.1532 0.362142,10.3737 0.474121,10.5977 C-0.37972,10.2897 -0.978109,9.78231 -1.32104,9.07544 C-1.66398,8.36857 -1.77246,7.6652 -1.64648,6.96533 C-1.52051,6.26546 -1.19857,5.62858 -0.680664,5.05469 C-0.16276,4.48079 0.523112,4.16585 1.37695,4.10986 C1.37695,3.59196 1.36995,3.08805 1.35596,2.59814 C1.34196,2.10824 1.26497,1.66732 1.125,1.27539 C0.80306,1.55534 0.435628,1.88078 0.0227051,2.25171 C-0.390218,2.62264 -0.81014,3.02507 -1.23706,3.45898 C-1.66398,3.8929 -2.05241,4.35832 -2.40234,4.85522 C-2.75228,5.35213 -3.01123,5.88753 -3.1792,6.46143 C-3.43115,7.32926 -3.49414,8.12012 -3.36816,8.83398 C-3.24219,9.54785 -2.96924,10.1707 -2.54932,10.7026 C-2.12939,11.2345 -1.59049,11.644 -0.932617,11.9309 C-0.27474,12.2179 0.439128,12.3473 1.20898,12.3193 M3.49756,-8.15186 C2.97965,-8.23584 2.57723,-8.02588 2.29028,-7.52197 C2.00334,-7.01807 1.80037,-6.40218 1.6814,-5.67432 C1.56242,-4.94645 1.50993,-4.18709 1.52393,-3.39624 C1.53792,-2.60539 1.57992,-2 1.6499,-1.58008 C1.92985,-1.72005 2.23429,-1.94051 2.56323,-2.24146 C2.89217,-2.5424 3.18612,-2.90633 3.44507,-3.33325 C3.70402,-3.76017 3.92098,-4.22559 4.09595,-4.72949 C4.27091,-5.2334 4.3724,-5.7443 4.40039,-6.26221 C4.45638,-6.62614 4.39689,-7.01107 4.22192,-7.41699 C4.04696,-7.82292 3.8055,-8.06787 3.49756,-8.15186 M2.36377,11.9834 C3.09163,11.7454 3.66203,11.2625 4.07495,10.5347 C4.48787,9.8068 4.70133,9.04045 4.71533,8.2356 C4.72933,7.43075 4.52287,6.69938 4.09595,6.0415 C3.66903,5.38363 2.95166,4.9847 1.94385,4.84473 C2.02783,6.0485 2.11882,7.22078 2.2168,8.36157 C2.31478,9.50236 2.36377,10.7096 2.36377,11.9834 M-10.8638,4.61377 C-11.1017,4.36182 -11.2977,4.11336 -11.4517,3.86841 C-11.6056,3.62345 -11.6826,3.361 -11.6826,3.08105 C-11.6826,2.67513 -11.3957,2.23421 -10.8218,1.7583 C-10.2479,1.28239 -9.46053,0.844971 -8.45972,0.446045 C-7.4589,0.0471191 -6.29362,-0.288818 -4.96387,-0.561768 C-3.63411,-0.834717 -2.20638,-0.971191 -0.680664,-0.971191 L-1.20557,-0.572266 C-1.42952,-0.376302 -1.67798,-0.183838 -1.95093,0.00512695 C-2.22388,0.194092 -2.47233,0.400553 -2.69629,0.624512 C-3.84408,0.736491 -4.92188,0.90096 -5.92969,1.11792 C-6.9375,1.33488 -7.81234,1.57983 -8.5542,1.85278 C-9.29606,2.12573 -9.88045,2.40568 -10.3074,2.69263 C-10.7343,2.97957 -10.9478,3.26302 -10.9478,3.54297 C-10.9478,3.59896 -10.9478,3.65495 -10.9478,3.71094 C-10.9478,3.76693 -10.9198,3.82992 -10.8638,3.8999 C-10.8358,3.66195 -10.6223,3.42049 -10.2234,3.17554 C-9.82446,2.93058 -9.30306,2.70313 -8.65918,2.49316 C-8.0153,2.2832 -7.25594,2.09074 -6.3811,1.91577 C-5.50627,1.7408 -4.57894,1.58333 -3.59912,1.44336 C-3.75309,1.61133 -3.90706,1.7828 -4.06104,1.95776 C-4.21501,2.13273 -4.36198,2.3182 -4.50195,2.51416 C-6.3916,2.80811 -7.88232,3.21753 -8.97412,3.74243 C-10.0659,4.26733 -10.6678,4.77474 -10.7798,5.26465 C-10.5558,4.88672 -9.91195,4.53328 -8.84814,4.20435 C-7.78434,3.87541 -6.52458,3.59896 -5.06885,3.375 C-5.29281,3.78092 -5.48527,4.20435 -5.64624,4.64526 C-5.80721,5.08618 -5.92969,5.56559 -6.01367,6.0835 C-6.06966,6.40544 -6.10465,6.69938 -6.11865,6.96533 C-6.13265,7.23128 -6.13965,7.49723 -6.13965,7.76318 C-6.97949,7.84717 -7.70036,7.93115 -8.30225,8.01514 L-8.30225,5.74756 C-8.30225,5.74756 -8.34424,5.69857 -8.42822,5.60059 C-8.45622,5.57259 -8.48421,5.55859 -8.51221,5.55859 C-8.65218,5.62858 -8.73617,5.67757 -8.76416,5.70557 C-8.79215,5.73356 -8.82015,5.74756 -8.84814,5.74756 L-8.84814,8.18311 C-9.42204,8.30908 -9.86646,8.42806 -10.1814,8.54004 C-10.4963,8.65202 -10.7238,8.75 -10.8638,8.83398 L-10.8638,4.61377 M3.49756,0.624512 C3.69352,0.428548 3.89299,0.222087 4.09595,0.00512695 C4.29891,-0.211833 4.49837,-0.453288 4.69434,-0.719238 C5.78613,-0.537272 6.79045,-0.295817 7.70728,0.00512695 C8.6241,0.306071 9.41846,0.628011 10.0903,0.970947 C10.7622,1.31388 11.2906,1.67082 11.6755,2.04175 C12.0605,2.41268 12.2529,2.75911 12.2529,3.08105 C12.2529,3.361 12.1619,3.62345 11.98,3.86841 C11.798,4.11336 11.5881,4.36182 11.3501,4.61377 L11.3501,8.83398 C11.2101,8.75 10.9827,8.65202 10.6677,8.54004 C10.3528,8.42806 9.93636,8.30908 9.41846,8.18311 L9.41846,5.74756 C9.39046,5.74756 9.36247,5.73356 9.33447,5.70557 C9.22249,5.63558 9.11051,5.58659 8.99854,5.55859 C8.94255,5.55859 8.90055,5.57259 8.87256,5.60059 C8.81657,5.67057 8.78857,5.71956 8.78857,5.74756 L8.78857,8.01514 C8.52262,7.95915 8.22518,7.92415 7.89624,7.91016 C7.5673,7.89616 7.19987,7.86117 6.79395,7.80518 L6.79395,7.55322 C6.70996,6.79736 6.55599,6.18148 6.33203,5.70557 L6.33203,5.26465 C6.33203,5.15267 6.22705,5.09668 6.01709,5.09668 C5.35921,4.03288 4.3444,3.375 2.97266,3.12305 C3.98047,3.17904 4.94979,3.27702 5.88062,3.41699 C6.81144,3.55697 7.65479,3.72843 8.41064,3.9314 C9.1665,4.13436 9.79639,4.35132 10.3003,4.58228 C10.8042,4.81323 11.1261,5.04069 11.2661,5.26465 C11.1261,4.69076 10.3178,4.09587 8.84106,3.47998 C7.36434,2.8641 5.38021,2.45817 2.88867,2.26221 C2.86068,2.08024 2.84668,1.90527 2.84668,1.7373 C2.84668,1.56934 2.84668,1.41536 2.84668,1.27539 C3.93848,1.38737 4.99178,1.53434 6.00659,1.71631 C7.0214,1.89827 7.91724,2.10474 8.69409,2.33569 C9.47095,2.56665 10.0938,2.8186 10.5627,3.09155 C11.0317,3.3645 11.2941,3.63395 11.3501,3.8999 C11.4201,3.82992 11.4551,3.76693 11.4551,3.71094 C11.4551,3.65495 11.4551,3.59896 11.4551,3.54297 C11.4551,3.26302 11.2451,2.97957 10.8252,2.69263 C10.4053,2.40568 9.83838,2.13273 9.12451,1.87378 C8.41064,1.61483 7.5638,1.37687 6.58398,1.15991 C5.60417,0.942952 4.57536,0.764486 3.49756,0.624512 M-10.8638,9.31689 C-10.6118,9.16292 -10.0554,9.02995 -9.19458,8.91797 C-8.33374,8.80599 -7.27344,8.69401 -6.01367,8.58203 C-5.92969,9.07194 -5.80371,9.52686 -5.63574,9.94678 C-6.71354,10.0028 -7.70386,10.0623 -8.60669,10.1252 C-9.50952,10.1882 -10.2619,10.2477 -10.8638,10.3037 L-10.8638,9.31689 M6.54199,9.94678 C6.68197,9.47087 6.75195,9.02995 6.75195,8.62402 C7.95573,8.70801 8.96004,8.80599 9.76489,8.91797 C10.5697,9.02995 11.0981,9.16292 11.3501,9.31689 L11.3501,10.3037 C10.7762,10.2477 10.0833,10.1882 9.27148,10.1252 C8.45964,10.0623 7.5498,10.0028 6.54199,9.94678 "/>
</g>

<g fill="#53a54f" fill-opacity="1" stroke="none" transform="matrix(1,0,0,1,0,0)"
font-family="MS Shell Dlg 2" font-size="7.8" font-weight="400" font-style="normal" 
>
</g>
</g>
</svg>
