<?xml version="1.0" encoding="UTF-8" standalone="no"?>
<svg
   xmlns:dc="http://purl.org/dc/elements/1.1/"
   xmlns:cc="http://creativecommons.org/ns#"
   xmlns:rdf="http://www.w3.org/1999/02/22-rdf-syntax-ns#"
   xmlns:svg="http://www.w3.org/2000/svg"
   xmlns="http://www.w3.org/2000/svg"
   xmlns:sodipodi="http://sodipodi.sourceforge.net/DTD/sodipodi-0.dtd"
   xmlns:inkscape="http://www.inkscape.org/namespaces/inkscape"
   inkscape:version="1.0 (4035a4fb49, 2020-05-01)"
   sodipodi:docname="1615.svg"
   id="svg20"
   version="1.2"
   viewBox="0 0 42.519639 42.519639"
   height="14.999999mm"
   width="14.999999mm">
  <metadata
     id="metadata24">
    <rdf:RDF>
      <cc:Work
         rdf:about="">
        <dc:format>image/svg+xml</dc:format>
        <dc:type
           rdf:resource="http://purl.org/dc/dcmitype/StillImage" />
        <dc:title>Qt SVG Document</dc:title>
      </cc:Work>
    </rdf:RDF>
  </metadata>
  <sodipodi:namedview
     inkscape:current-layer="svg20"
     inkscape:window-maximized="0"
     inkscape:window-y="0"
     inkscape:window-x="0"
     inkscape:cy="28.346482"
     inkscape:cx="28.346482"
     inkscape:zoom="5.8410537"
     showgrid="false"
     id="namedview22"
     inkscape:window-height="480"
     inkscape:window-width="1034"
     inkscape:pageshadow="2"
     inkscape:pageopacity="0"
     guidetolerance="10"
     gridtolerance="10"
     objecttolerance="10"
     borderopacity="1"
     bordercolor="#666666"
     pagecolor="#ffffff" />
  <title
     id="title2">Qt SVG Document</title>
  <desc
     id="desc4">Generated with Qt</desc>
  <defs
     id="defs6" />
  <g
     transform="translate(5.25984,5.25984)"
     id="g18"
     stroke-linejoin="bevel"
     stroke-linecap="square"
     fill-rule="evenodd"
     stroke-width="1"
     stroke="#000000"
     fill="none">
    <g
       id="g10"
       font-style="normal"
       font-weight="400"
       font-size="7.8px"
       font-family="'MS Shell Dlg 2'"
       stroke="none"
       fill-opacity="1"
       fill="#53a54f">
      <path
         id="path8"
         d="M 37.2598,16 C 37.2598,27.7415 27.7415,37.2598 16,37.2598 4.25851,37.2598 -5.25984,27.7415 -5.25984,16 -5.25984,4.25851 4.25851,-5.25984 16,-5.25984 27.7415,-5.25984 37.2598,4.25851 37.2598,16"
         fill-rule="evenodd"
         vector-effect="non-scaling-stroke" />
    </g>
    <g
       id="g14"
       font-style="normal"
       font-weight="400"
       font-size="7.8px"
       font-family="'MS Shell Dlg 2'"
       transform="translate(16,13.7323)"
       stroke="none"
       fill-opacity="0.94902"
       fill="#ffffff">
      <path
         id="path12"
         d="m -2.31836,-5.27539 c -0.22396,-0.25195 -0.47941,-0.5214 -0.76636,-0.80835 -0.28694,-0.28695 -0.5459,-0.5529 -0.77685,-0.79785 -0.23096,-0.24496 -0.43392,-0.45142 -0.60889,-0.61939 -0.17497,-0.16797 -0.26245,-0.25195 -0.26245,-0.25195 -0.25195,-0.26595 -0.23096,-0.5389 0.06299,-0.81885 0.25195,-0.26595 0.5179,-0.25195 0.79785,0.04199 0.29394,0.25196 0.58089,0.5389 0.86084,0.86084 0.23796,0.25196 0.50041,0.52841 0.78735,0.82935 0.28695,0.30094 0.5424,0.58439 0.76636,0.85034 0.34994,0.27995 0.706869,0.41992 1.070801,0.41992 h 0.86084 c 0.433919,0 0.790849,-0.13997 1.070799,-0.41992 0.23796,-0.26595 0.50741,-0.5494 0.80835,-0.85034 0.30095,-0.30094 0.5634,-0.57739 0.78736,-0.82935 0.29394,-0.32194 0.58089,-0.60888 0.86083,-0.86084 0.11198,-0.15397 0.24846,-0.23095 0.40943,-0.23095 0.16097,0 0.29744,0.06299 0.40942,0.18896 0.29395,0.27995 0.29395,0.5529 0,0.81885 0,0 -0.12947,0.14347 -0.38843,0.43042 -0.25895,0.28695 -0.55289,0.59489 -0.88183,0.92383 -0.32894,0.32894 -0.62988,0.63688 -0.90283,0.92383 -0.27295,0.28694 -0.40943,0.43042 -0.40943,0.43042 -0.33593,0.36393 -0.5109,0.61238 -0.5249,0.74536 -0.014,0.13297 -0.021,0.35343 -0.021,0.66137 v 9.38526 c 0,0.44792 -0.23095,0.67187 -0.692867,0.67187 -0.167968,0 -0.31844,-0.06298 -0.451416,-0.18896 C 0.414632,6.10449 0.348145,5.94352 0.348145,5.74756 V 0.288574 H -0.197754 V 5.74756 c 0,0.44792 -0.230957,0.67187 -0.692871,0.67187 -0.181965,0 -0.335935,-0.06298 -0.461915,-0.18896 C -1.47852,6.10449 -1.5415,5.94352 -1.5415,5.74756 V -3.6377 c 0,-0.16796 0,-0.30094 0,-0.39892 0,-0.09798 -0.014,-0.19946 -0.042,-0.30444 -0.02799,-0.10498 -0.09798,-0.22046 -0.20996,-0.34644 -0.11198,-0.12598 -0.27295,-0.30794 -0.48291,-0.5459 l -0.04199,-0.04199 m 2.708497,-0.67188 c -0.307943,0.08399 -0.612386,0.0455 -0.91333,-0.11547 -0.300944,-0.16097 -0.493407,-0.39543 -0.577397,-0.70337 -0.12597,-0.32194 -0.10148,-0.62639 0.07349,-0.91333 0.174968,-0.28695 0.416423,-0.47242 0.724366,-0.5564 0.3219397,-0.11198 0.626383,-0.09098 0.91333,0.06299 0.286946,0.15397 0.472414,0.39193 0.556394,0.71387 C 1.27897,-7.15104 1.25798,-6.8536 1.104,-6.56665 0.950033,-6.2797 0.712077,-6.07324 0.390137,-5.94727 M 0.0541992,8.91797 c -2.4915392,0 -4.7731092,-1.11979 -6.8447292,-3.35938 -0.16797,-0.13997 -0.16797,-0.29394 0,-0.46191 0.20996,-0.13997 0.37093,-0.13997 0.48291,0 1.91765,2.08561 4.03825,3.12842 6.3618192,3.12842 2.2395808,0 4.3182008,-1.00082 6.2358408,-3.00244 0.13997,-0.13998 0.29394,-0.13998 0.46191,0 0.15397,0.16797 0.15397,0.32894 0,0.48291 -2.00162,2.1416 -4.23421,3.2124 -6.6977508,3.2124 M -9.83496,7.97314 C -10.1569,7.6652 -10.1709,7.35026 -9.87695,7.02832 -9.56901,6.72038 -9.25407,6.70638 -8.93213,6.98633 -6.24463,9.42188 -3.24919,10.6396 0.0541992,10.6396 1.69189,10.6396 3.2771,10.3247 4.80981,9.69482 6.34253,9.06494 7.79476,8.14811 9.1665,6.94434 9.48844,6.6224 9.80339,6.63639 10.1113,6.98633 c 0.294,0.32194 0.28,0.63688 -0.042,0.94482 C 7.0599,10.6326 3.72152,11.9834 0.0541992,11.9834 -1.72347,11.9834 -3.45215,11.644 -5.13184,10.9651 -6.81152,10.2862 -8.37923,9.2889 -9.83496,7.97314 M 13.5547,9.8208 c 0.168,0.238 0.2449,0.4899 0.2309,0.7559 -0.014,0.2659 -0.1329,0.4899 -0.3569,0.6718 -1.9876,1.6937 -4.10473,2.978 -6.35131,3.8528 -2.24658,0.8749 -4.58764,1.3123 -7.0231908,1.3123 -2.4355492,0 -4.7801092,-0.4374 -7.0336892,-1.3123 -2.25358,-0.8748 -4.36721,-2.1591 -6.34081,-3.8528 -0.196,-0.1819 -0.3045,-0.4059 -0.3255,-0.6718 -0.0209,-0.266 0.0595,-0.5179 0.2415,-0.7559 0.168,-0.22396 0.3884,-0.34294 0.6614,-0.35693 0.2729,-0.014 0.5214,0.07698 0.7453,0.27295 1.7777,1.52568 3.68486,2.68048 5.72148,3.46438 2.03662,0.7838 4.14673,1.1758 6.3303192,1.1758 2.1975908,0 4.3147008,-0.392 6.3513208,-1.1758 2.03662,-0.7839 3.94378,-1.9387 5.72148,-3.46438 0.2379,-0.19597 0.4934,-0.28695 0.7663,-0.27295 0.273,0.01399 0.4934,0.13297 0.6614,0.35693"
         fill-rule="evenodd"
         vector-effect="none" />
    </g>
    <g
       id="g16"
       font-style="normal"
       font-weight="400"
       font-size="7.8px"
       font-family="'MS Shell Dlg 2'"
       stroke="none"
       fill-opacity="1"
       fill="#53a54f" />
  </g>
</svg>
