<svg xmlns="http://www.w3.org/2000/svg" version="1.2" viewBox="0 0 42.52 42.52" height="56.693" width="56.693">
   <g stroke-linejoin="bevel" stroke-linecap="square" fill-rule="evenodd" stroke="none" fill="none" font-weight="400"
      font-size="7.8" font-family="'MS Shell Dlg 2'">
      <path
         d="M42.52 21.26C42.52 33 33 42.52 21.26 42.52 9.518 42.52 0 33 0 21.26 0 9.518 9.518 0 21.26 0 33 0 42.52 9.518 42.52 21.26"
         vector-effect="non-scaling-stroke" fill="#53a54f" />
      <path
         d="M18.941 13.717c-.223-.252-.479-.522-.766-.809a38.138 38.138 0 01-.777-.797 17.789 17.789 0 00-.871-.872c-.252-.266-.231-.539.063-.819.252-.266.518-.252.798.042.294.252.58.54.86.861l.788.83c.287.3.542.584.766.85.35.28.707.42 1.071.42h.861c.434 0 .79-.14 1.07-.42.239-.266.508-.55.81-.85.3-.301.563-.578.786-.83.294-.322.581-.609.861-.86.112-.155.249-.232.41-.232.16 0 .297.063.41.19.293.28.293.552 0 .818l-.39.43a25.08 25.08 0 01-.881.924c-.329.33-.63.637-.903.924l-.41.43c-.335.365-.51.613-.524.746a7.18 7.18 0 00-.021.661v9.386c0 .448-.231.672-.693.672a.64.64 0 01-.452-.19.636.636 0 01-.199-.482v-5.46h-.546v5.46c0 .448-.23.672-.693.672a.628.628 0 01-.462-.19.654.654 0 01-.189-.482v-9.386-.398c0-.098-.014-.2-.042-.305a.898.898 0 00-.21-.346 213.98 213.98 0 01-.483-.546l-.042-.042m2.709-.672a1.204 1.204 0 01-.913-.116 1.106 1.106 0 01-.578-.703.981.981 0 01.074-.913c.175-.287.416-.473.724-.557.322-.112.626-.09.913.063.287.154.473.392.557.714a1.05 1.05 0 01-.063.892 1.328 1.328 0 01-.714.62m-.336 14.865c-2.492 0-4.773-1.12-6.845-3.36-.168-.14-.168-.293 0-.461.21-.14.371-.14.483 0 1.918 2.085 4.038 3.128 6.362 3.128 2.24 0 4.318-1 6.236-3.002.14-.14.294-.14.462 0 .154.168.154.329 0 .483-2.002 2.141-4.234 3.212-6.698 3.212m-9.89-.945c-.321-.308-.335-.623-.041-.945.308-.307.623-.321.945-.042 2.687 2.436 5.683 3.654 8.986 3.654 1.638 0 3.223-.315 4.756-.945 1.532-.63 2.985-1.547 4.356-2.75.322-.322.637-.308.945.041.294.322.28.637-.042.945-3.01 2.702-6.348 4.053-10.015 4.053a13.72 13.72 0 01-5.186-1.019c-1.68-.679-3.247-1.676-4.703-2.992m23.39 1.848c.168.238.244.49.23.756a.9.9 0 01-.356.672c-1.988 1.693-4.105 2.978-6.352 3.852a19.186 19.186 0 01-7.023 1.313c-2.436 0-4.78-.438-7.034-1.313-2.253-.874-4.367-2.159-6.34-3.852a.993.993 0 01-.326-.672c-.02-.266.06-.518.242-.756a.846.846 0 01.66-.357 1.02 1.02 0 01.746.273c1.778 1.526 3.685 2.68 5.722 3.464a17.478 17.478 0 006.33 1.176c2.198 0 4.315-.392 6.351-1.176 2.037-.784 3.944-1.938 5.722-3.464.238-.196.493-.287.766-.273a.846.846 0 01.662.357"
         fill-opacity=".949" fill="#fff" />
   </g>
</svg>