<?xml version="1.0" encoding="UTF-8" standalone="no"?>
<svg width="11.25008mm" height="11.25008mm"
 viewBox="-5.3 -5.3 42.52000 42.52000"
 xmlns="http://www.w3.org/2000/svg" xmlns:xlink="http://www.w3.org/1999/xlink"  version="1.2" baseProfile="tiny">
<title>Qt SVG Document</title>
<desc>Generated with Qt</desc>
<defs>
</defs>
<g fill="none" stroke="black" stroke-width="1" fill-rule="evenodd" stroke-linecap="square" stroke-linejoin="bevel" >

<g fill="#53a54f" fill-opacity="1" stroke="none" transform="matrix(1,0,0,1,0,0)"
font-family="MS Shell Dlg 2" font-size="7.8" font-weight="400" font-style="normal" 
>
<path vector-effect="non-scaling-stroke" fill-rule="evenodd" d="M37.2598,16 C37.2598,27.7415 27.7415,37.2598 16,37.2598 C4.25851,37.2598 -5.25984,27.7415 -5.25984,16 C-5.25984,4.25851 4.25851,-5.25984 16,-5.25984 C27.7415,-5.25984 37.2598,4.25851 37.2598,16 "/>
</g>

<g fill="#ffffff" fill-opacity="0.94902" stroke="none" transform="matrix(1,0,0,1,16,13.7323)"
font-family="MS Shell Dlg 2" font-size="7.8" font-weight="400" font-style="normal" 
>
<path vector-effect="none" fill-rule="evenodd" d="M-2.31836,-5.27539 C-2.54232,-5.52734 -2.79777,-5.79679 -3.08472,-6.08374 C-3.37166,-6.37069 -3.63062,-6.63664 -3.86157,-6.88159 C-4.09253,-7.12655 -4.29549,-7.33301 -4.47046,-7.50098 C-4.64543,-7.66895 -4.73291,-7.75293 -4.73291,-7.75293 C-4.98486,-8.01888 -4.96387,-8.29183 -4.66992,-8.57178 C-4.41797,-8.83773 -4.15202,-8.82373 -3.87207,-8.52979 C-3.57813,-8.27783 -3.29118,-7.99089 -3.01123,-7.66895 C-2.77327,-7.41699 -2.51082,-7.14054 -2.22388,-6.8396 C-1.93693,-6.53866 -1.68148,-6.25521 -1.45752,-5.98926 C-1.10758,-5.70931 -0.750651,-5.56934 -0.386719,-5.56934 L0.474121,-5.56934 C0.90804,-5.56934 1.26497,-5.70931 1.54492,-5.98926 C1.78288,-6.25521 2.05233,-6.53866 2.35327,-6.8396 C2.65422,-7.14054 2.91667,-7.41699 3.14063,-7.66895 C3.43457,-7.99089 3.72152,-8.27783 4.00146,-8.52979 C4.11344,-8.68376 4.24992,-8.76074 4.41089,-8.76074 C4.57186,-8.76074 4.70833,-8.69775 4.82031,-8.57178 C5.11426,-8.29183 5.11426,-8.01888 4.82031,-7.75293 C4.82031,-7.75293 4.69084,-7.60946 4.43188,-7.32251 C4.17293,-7.03556 3.87899,-6.72762 3.55005,-6.39868 C3.22111,-6.06974 2.92017,-5.7618 2.64722,-5.47485 C2.37427,-5.18791 2.23779,-5.04443 2.23779,-5.04443 C1.90186,-4.6805 1.72689,-4.43205 1.71289,-4.29907 C1.69889,-4.1661 1.69189,-3.94564 1.69189,-3.6377 L1.69189,5.74756 C1.69189,6.19548 1.46094,6.41943 0.999023,6.41943 C0.831055,6.41943 0.680583,6.35645 0.547607,6.23047 C0.414632,6.10449 0.348145,5.94352 0.348145,5.74756 L0.348145,0.288574 L-0.197754,0.288574 L-0.197754,5.74756 C-0.197754,6.19548 -0.428711,6.41943 -0.890625,6.41943 C-1.07259,6.41943 -1.22656,6.35645 -1.35254,6.23047 C-1.47852,6.10449 -1.5415,5.94352 -1.5415,5.74756 L-1.5415,-3.6377 C-1.5415,-3.80566 -1.5415,-3.93864 -1.5415,-4.03662 C-1.5415,-4.1346 -1.5555,-4.23608 -1.5835,-4.34106 C-1.61149,-4.44604 -1.68148,-4.56152 -1.79346,-4.6875 C-1.90544,-4.81348 -2.06641,-4.99544 -2.27637,-5.2334 L-2.31836,-5.27539 M0.390137,-5.94727 C0.082194,-5.86328 -0.222249,-5.90177 -0.523193,-6.06274 C-0.824137,-6.22371 -1.0166,-6.45817 -1.10059,-6.76611 C-1.22656,-7.08805 -1.20207,-7.3925 -1.0271,-7.67944 C-0.852132,-7.96639 -0.610677,-8.15186 -0.302734,-8.23584 C0.0192057,-8.34782 0.323649,-8.32682 0.610596,-8.17285 C0.897542,-8.01888 1.08301,-7.78092 1.16699,-7.45898 C1.27897,-7.15104 1.25798,-6.8536 1.104,-6.56665 C0.950033,-6.2797 0.712077,-6.07324 0.390137,-5.94727 M0.0541992,8.91797 C-2.43734,8.91797 -4.71891,7.79818 -6.79053,5.55859 C-6.9585,5.41862 -6.9585,5.26465 -6.79053,5.09668 C-6.58057,4.95671 -6.4196,4.95671 -6.30762,5.09668 C-4.38997,7.18229 -2.26937,8.2251 0.0541992,8.2251 C2.29378,8.2251 4.3724,7.22428 6.29004,5.22266 C6.43001,5.08268 6.58398,5.08268 6.75195,5.22266 C6.90592,5.39063 6.90592,5.5516 6.75195,5.70557 C4.75033,7.84717 2.51774,8.91797 0.0541992,8.91797 M-9.83496,7.97314 C-10.1569,7.6652 -10.1709,7.35026 -9.87695,7.02832 C-9.56901,6.72038 -9.25407,6.70638 -8.93213,6.98633 C-6.24463,9.42188 -3.24919,10.6396 0.0541992,10.6396 C1.69189,10.6396 3.2771,10.3247 4.80981,9.69482 C6.34253,9.06494 7.79476,8.14811 9.1665,6.94434 C9.48844,6.6224 9.80339,6.63639 10.1113,6.98633 C10.4053,7.30827 10.3913,7.62321 10.0693,7.93115 C7.0599,10.6326 3.72152,11.9834 0.0541992,11.9834 C-1.72347,11.9834 -3.45215,11.644 -5.13184,10.9651 C-6.81152,10.2862 -8.37923,9.2889 -9.83496,7.97314 M13.5547,9.8208 C13.7227,10.0588 13.7996,10.3107 13.7856,10.5767 C13.7716,10.8426 13.6527,11.0666 13.4287,11.2485 C11.4411,12.9422 9.32397,14.2265 7.07739,15.1013 C4.83081,15.9762 2.48975,16.4136 0.0541992,16.4136 C-2.38135,16.4136 -4.72591,15.9762 -6.97949,15.1013 C-9.23307,14.2265 -11.3467,12.9422 -13.3203,11.2485 C-13.5163,11.0666 -13.6248,10.8426 -13.6458,10.5767 C-13.6667,10.3107 -13.5863,10.0588 -13.4043,9.8208 C-13.2363,9.59684 -13.0159,9.47786 -12.7429,9.46387 C-12.47,9.44987 -12.2215,9.54085 -11.9976,9.73682 C-10.2199,11.2625 -8.31274,12.4173 -6.27612,13.2012 C-4.2395,13.985 -2.12939,14.377 0.0541992,14.377 C2.25179,14.377 4.3689,13.985 6.40552,13.2012 C8.44214,12.4173 10.3493,11.2625 12.127,9.73682 C12.3649,9.54085 12.6204,9.44987 12.8933,9.46387 C13.1663,9.47786 13.3867,9.59684 13.5547,9.8208 "/>
</g>

<g fill="#53a54f" fill-opacity="1" stroke="none" transform="matrix(1,0,0,1,0,0)"
font-family="MS Shell Dlg 2" font-size="7.8" font-weight="400" font-style="normal" 
>
</g>
</g>
</svg>
