<svg xmlns="http://www.w3.org/2000/svg" version="1.2" viewBox="0 0 42.52 42.52" height="56.693" width="56.693">
   <g stroke-linejoin="bevel" stroke-linecap="square" fill-rule="evenodd" stroke="none" fill="none" font-weight="400"
      font-size="7.8" font-family="'MS Shell Dlg 2'">
      <path
         d="M42.52 21.26C42.52 33 33 42.52 21.26 42.52 9.518 42.52 0 33 0 21.26 0 9.518 9.518 0 21.26 0 33 0 42.52 9.518 42.52 21.26"
         vector-effect="non-scaling-stroke" fill="#53a54f" />
      <path
         d="M30.342 24.694c0-.112.014-.196.042-.252.028-.056.07-.126.126-.21.378.252.763.378 1.155.378-.196.601-.451 1.19-.766 1.763-.315.574-.662 1.12-1.04 1.638-.391-.252-.776-.378-1.154-.378h-.168c.308-.378.591-.773.85-1.186.259-.413.507-.865.745-1.355-.322-.14-.797-.339-1.427-.598-.63-.259-1.491-.633-2.583-1.123-.462 1.008-1.12 1.763-1.973 2.267.223.518.472 1.106.745 1.764.273.658.612 1.435 1.018 2.33.112-.055.21-.118.294-.188a1.34 1.34 0 01.315-.19c-.056.197-.07.41-.042.641.028.231.07.458.126.682a.954.954 0 01-.23.126c.405.896.832 1.873 1.28 2.93.448 1.056.959 2.228 1.533 3.516h-1.512l-2.583-5.837c-.322.112-.64.21-.955.294a11.86 11.86 0 01-.934.21 3.061 3.061 0 00-.515-.62 1.808 1.808 0 00-.724-.409c.476-.056.938-.133 1.386-.23.448-.099.868-.218 1.26-.357-.253-.574-.522-1.2-.809-1.88-.287-.679-.598-1.403-.934-2.173a5.415 5.415 0 01-1.68.252c-.49 0-.994-.07-1.512-.21-.224.49-.472 1.064-.745 1.722-.273.658-.598 1.42-.976 2.289a12.226 12.226 0 002.582.587c-.518.182-.93.525-1.239 1.03a7.248 7.248 0 01-1.868-.505c-.336.826-.721 1.718-1.155 2.677-.434.96-.889 2.012-1.365 3.16h-1.595l2.834-6.404a.414.414 0 00-.147-.105 1.152 1.152 0 01-.147-.063 1.97 1.97 0 00.126-1.322c.084.056.182.119.294.189.112.07.23.133.357.189.252-.574.528-1.197.83-1.869.3-.672.612-1.4.934-2.184a5.813 5.813 0 01-2.079-2.31l-4.073 1.596c.392 1.078.994 1.967 1.805 2.667h-.189c-.475 0-.86.126-1.154.378a9.2 9.2 0 01-1.103-1.638 15.223 15.223 0 01-.787-1.763c.462 0 .847-.126 1.155-.378v.189c0 .07.028.133.084.189.294-.14.749-.34 1.365-.599.615-.259 1.525-.633 2.729-1.123a12.483 12.483 0 01-.21-.892 4.764 4.764 0 01-.084-.914c0-.686.126-1.33.378-1.931l-4.073-1.68c-.21.49-.371.973-.483 1.449a6.488 6.488 0 00-.168 1.49c-.294-.126-.525-.189-.693-.189h-.273a.588.588 0 00-.294.084c.182-1.777.686-3.366 1.512-4.766.084.378.273.735.567 1.071.028.028.056.042.084.042.028.028.07.042.126.042a1.91 1.91 0 00-.147.21.377.377 0 00-.063.189c.308.14.77.34 1.385.598.616.26 1.526.634 2.73 1.124a6.286 6.286 0 011.123-1.554c.455-.462.97-.805 1.543-1.029l-1.721-4.094a7.931 7.931 0 00-1.124.546c-.356.21-.682.434-.976.672a3.51 3.51 0 00-1.323-.567 12.463 12.463 0 012.782-1.764c1.001-.462 2.104-.763 3.307-.903-.224.196-.423.41-.598.64-.175.232-.29.494-.347.788-.251.056-.479.112-.682.168a7.543 7.543 0 00-.64.21c.14.322.332.798.577 1.428.245.63.612 1.518 1.102 2.666a6.212 6.212 0 011.806-.273c.336 0 .661.039.976.116.315.077.634.171.956.283l1.721-4.136c-.574-.168-1.091-.322-1.553-.462-.084-.546-.371-1.022-.861-1.428 2.323.322 4.332 1.211 6.026 2.667a3.946 3.946 0 00-.651.21 3.117 3.117 0 00-.61.357 9.95 9.95 0 01-.954-.588 6.634 6.634 0 00-.935-.546c-.14.322-.353.798-.64 1.428-.287.63-.675 1.518-1.165 2.666a5.417 5.417 0 012.54 2.583l4.094-1.638a.482.482 0 01-.084-.273.588.588 0 00-.084-.294l.042-.042c.028 0 .05-.007.063-.021.014-.014.035-.021.063-.021.308-.308.504-.665.588-1.07.378.741.697 1.507.956 2.298a10 10 0 01.472 2.467.617.617 0 01-.231-.042.678.678 0 00-.252-.042c-.14 0-.266.014-.378.042a1.886 1.886 0 00-.378.147 17.91 17.91 0 00-.22-1.427c-.091-.462-.207-.91-.347-1.344-.35.154-.847.343-1.49.567-.644.224-1.54.58-2.688 1.07.238.574.357 1.204.357 1.89 0 .728-.119 1.33-.357 1.806l4.094 1.722M22.26 19.36c.308.21.567.468.777.776a73.463 73.463 0 002.708-1.07 4.568 4.568 0 00-2.372-2.373l-1.113 2.667m-.987-3.213c-.602 0-1.134.084-1.596.252l1.071 2.75c.238-.055.413-.083.525-.083.224 0 .42.042.588.126.322-.63.728-1.533 1.218-2.709a23.07 23.07 0 00-.872-.23 3.938 3.938 0 00-.934-.106m-1.974.462c-.517.21-1 .507-1.448.892-.448.385-.798.85-1.05 1.397l2.75 1.196c.168-.308.441-.566.82-.776a28.45 28.45 0 01-.473-1.113 41.897 41.897 0 01-.599-1.596m-3.065 4.472a5.3 5.3 0 00.294 1.722l2.855-1.155a2.41 2.41 0 01-.084-.567c0-.14.028-.35.084-.63a23.22 23.22 0 00-1.144-.504c-.44-.182-.976-.405-1.606-.671-.098.294-.19.584-.273.87a3.314 3.314 0 00-.126.935m.483 2.079a4.563 4.563 0 001.848 2.183c.196-.461.402-.934.619-1.417.217-.483.437-.983.661-1.501-.168-.168-.28-.315-.336-.441-.322.154-.71.322-1.165.504-.455.182-.997.406-1.627.672m4.472 2.96c.518 0 1.015-.084 1.49-.252a32.602 32.602 0 00-.556-1.343c-.203-.462-.416-.945-.64-1.45h-.378l-1.26 2.877c.238.056.462.098.672.126.21.028.434.042.672.042m2.793-.86c.825-.546 1.413-1.246 1.763-2.1l-2.708-1.176c-.056.084-.109.165-.158.242a1.166 1.166 0 01-.157.199l1.26 2.834m1.89-2.456c.083-.252.167-.515.251-.787.084-.273.126-.557.126-.85 0-.575-.126-1.149-.378-1.722l-2.666 1.091c.056.224.084.406.084.546 0 .154-.028.343-.084.567.28.14.637.298 1.07.473.434.174.966.402 1.596.682m-10.96-6.782c-.294.336-.64.504-1.04.504-.398 0-.744-.168-1.038-.504-.308-.294-.462-.64-.462-1.04 0-.398.154-.745.462-1.038.294-.308.64-.462 1.039-.462.399 0 .745.154 1.04.462.28.293.42.64.42 1.039 0 .399-.14.745-.42 1.04m12.639 0a1.422 1.422 0 01-.441-1.04c0-.4.147-.746.44-1.04.337-.307.715-.461 1.135-.461.42 0 .77.154 1.05.462.321.293.482.64.482 1.039 0 .399-.16.745-.483 1.04-.28.335-.63.503-1.05.503-.42 0-.797-.168-1.133-.504m-15.306 6.404c0 .434-.137.79-.41 1.07-.273.28-.612.42-1.018.42-.434 0-.794-.14-1.081-.42-.287-.28-.43-.636-.43-1.07 0-.434.143-.801.43-1.102a1.431 1.431 0 011.081-.452c.406 0 .745.158 1.018.473.273.315.41.675.41 1.081m9.028-8.944c-.406 0-.76-.15-1.06-.452a1.5 1.5 0 01-.452-1.102c0-.434.15-.794.452-1.081.3-.287.654-.43 1.06-.43.392 0 .731.143 1.018.43.287.287.43.647.43 1.08 0 .435-.143.802-.43 1.103-.287.301-.626.452-1.018.452m6.278 15.306c.336-.294.714-.441 1.134-.441.42 0 .77.147 1.05.44.321.28.482.624.482 1.03s-.16.762-.483 1.07c-.28.294-.63.441-1.05.441-.42 0-.797-.147-1.133-.44a1.504 1.504 0 01-.441-1.071c0-.406.147-.75.44-1.03m-12.639 2.1c-.294.294-.64.441-1.04.441-.398 0-.744-.147-1.038-.44-.308-.309-.462-.665-.462-1.071 0-.406.154-.75.462-1.03.294-.293.64-.44 1.039-.44.399 0 .745.147 1.04.44.28.28.42.624.42 1.03s-.14.762-.42 1.07m16.838-10.015c.434 0 .794.15 1.081.452.287.3.43.668.43 1.102 0 .434-.143.79-.43 1.07-.287.28-.647.42-1.08.42-.42 0-.781-.14-1.082-.42-.301-.28-.452-.636-.452-1.07 0-.434.15-.801.452-1.102.3-.301.661-.452 1.081-.452M21.272 31.454c.392 0 .731.137 1.018.41.287.273.43.605.43.997 0 .434-.143.794-.43 1.081-.287.287-.626.43-1.018.43-.406 0-.76-.143-1.06-.43a1.431 1.431 0 01-.452-1.081c0-.392.15-.724.452-.997.3-.273.654-.41 1.06-.41"
         fill-opacity=".949" fill="#fff" />
   </g>
</svg>