<?xml version="1.0" encoding="UTF-8" standalone="no"?>
<svg width="11.25008mm" height="11.25008mm"
 viewBox="-5.3 -5.3 42.52000 42.52000"
 xmlns="http://www.w3.org/2000/svg" xmlns:xlink="http://www.w3.org/1999/xlink"  version="1.2" baseProfile="tiny">
<title>Qt SVG Document</title>
<desc>Generated with Qt</desc>
<defs>
</defs>
<g fill="none" stroke="black" stroke-width="1" fill-rule="evenodd" stroke-linecap="square" stroke-linejoin="bevel" >

<g fill="#53a54f" fill-opacity="1" stroke="none" transform="matrix(1,0,0,1,0,0)"
font-family="MS Shell Dlg 2" font-size="7.8" font-weight="400" font-style="normal" 
>
<path vector-effect="non-scaling-stroke" fill-rule="evenodd" d="M37.2598,16 C37.2598,27.7415 27.7415,37.2598 16,37.2598 C4.25851,37.2598 -5.25984,27.7415 -5.25984,16 C-5.25984,4.25851 4.25851,-5.25984 16,-5.25984 C27.7415,-5.25984 37.2598,4.25851 37.2598,16 "/>
</g>

<g fill="#ffffff" fill-opacity="0.94902" stroke="none" transform="matrix(1,0,0,1,16,13.9591)"
font-family="MS Shell Dlg 2" font-size="7.8" font-weight="400" font-style="normal" 
>
<path vector-effect="none" fill-rule="evenodd" d="M9.08252,5.47461 C9.08252,5.36263 9.09652,5.27865 9.12451,5.22266 C9.15251,5.16667 9.1945,5.09668 9.25049,5.0127 C9.62842,5.26465 10.0133,5.39063 10.4053,5.39063 C10.2093,5.99251 9.95386,6.5804 9.63892,7.1543 C9.32397,7.72819 8.97754,8.27409 8.59961,8.79199 C8.20768,8.54004 7.82275,8.41406 7.44482,8.41406 L7.27686,8.41406 C7.5848,8.03613 7.86825,7.64071 8.1272,7.22778 C8.38615,6.81486 8.6346,6.36344 8.87256,5.87354 C8.55062,5.73356 8.07471,5.5341 7.44482,5.27515 C6.81494,5.01619 5.9541,4.64176 4.8623,4.15186 C4.40039,5.15967 3.74251,5.91553 2.88867,6.41943 C3.11263,6.93734 3.36108,7.52523 3.63403,8.18311 C3.90698,8.84098 4.24642,9.61784 4.65234,10.5137 C4.76432,10.4577 4.8623,10.3947 4.94629,10.3247 C5.03027,10.2547 5.13525,10.1917 5.26123,10.1357 C5.20524,10.3317 5.19124,10.5452 5.21924,10.7761 C5.24723,11.0071 5.28923,11.2345 5.34521,11.4585 C5.31722,11.4865 5.24023,11.5285 5.11426,11.5845 C5.52018,12.4803 5.9471,13.4566 6.39502,14.5134 C6.84294,15.5702 7.35384,16.7425 7.92773,18.0303 L6.41602,18.0303 L3.8335,12.1934 C3.51156,12.3053 3.19312,12.4033 2.87817,12.4873 C2.56323,12.5713 2.25179,12.6413 1.94385,12.6973 C1.80387,12.4733 1.63241,12.2668 1.42944,12.0779 C1.22648,11.8889 0.985026,11.7524 0.705078,11.6685 C1.18099,11.6125 1.6429,11.5355 2.09082,11.4375 C2.53874,11.3395 2.95866,11.2205 3.35059,11.0806 C3.09863,10.5067 2.82918,9.88029 2.54224,9.20142 C2.25529,8.52254 1.94385,7.79818 1.60791,7.02832 C1.09001,7.19629 0.530111,7.28027 -0.0717773,7.28027 C-0.561686,7.28027 -1.06559,7.21029 -1.5835,7.07031 C-1.80745,7.56022 -2.05591,8.13411 -2.32886,8.79199 C-2.60181,9.44987 -2.92725,10.2127 -3.30518,11.0806 C-2.89925,11.2205 -2.48283,11.3395 -2.05591,11.4375 C-1.62899,11.5355 -1.18457,11.6125 -0.722656,11.6685 C-1.24056,11.8504 -1.65348,12.1934 -1.96143,12.6973 C-2.60531,12.6133 -3.22819,12.4453 -3.83008,12.1934 C-4.16602,13.0192 -4.55094,13.9115 -4.98486,14.8704 C-5.41878,15.8292 -5.8737,16.8825 -6.34961,18.0303 L-7.94531,18.0303 L-5.11084,11.6265 C-5.16683,11.5705 -5.21582,11.5355 -5.25781,11.5215 C-5.2998,11.5075 -5.3488,11.4865 -5.40479,11.4585 C-5.20882,11.0246 -5.16683,10.5837 -5.27881,10.1357 C-5.19482,10.1917 -5.09684,10.2547 -4.98486,10.3247 C-4.87288,10.3947 -4.75391,10.4577 -4.62793,10.5137 C-4.37598,9.93978 -4.09953,9.31689 -3.79858,8.64502 C-3.49764,7.97314 -3.1862,7.24528 -2.86426,6.46143 C-3.76009,5.88753 -4.45296,5.11768 -4.94287,4.15186 L-9.01611,5.74756 C-8.62419,6.82536 -8.0223,7.71419 -7.21045,8.41406 L-7.39941,8.41406 C-7.87533,8.41406 -8.26025,8.54004 -8.5542,8.79199 C-8.98812,8.27409 -9.35555,7.72819 -9.65649,7.1543 C-9.95744,6.5804 -10.2199,5.99251 -10.4438,5.39063 C-9.98193,5.39063 -9.59701,5.26465 -9.28906,5.0127 C-9.28906,5.06868 -9.28906,5.13167 -9.28906,5.20166 C-9.28906,5.27165 -9.26107,5.33464 -9.20508,5.39063 C-8.91113,5.25065 -8.45622,5.05119 -7.84033,4.79224 C-7.22445,4.53328 -6.31462,4.15885 -5.11084,3.66895 C-5.19482,3.361 -5.26481,3.06356 -5.3208,2.77661 C-5.37679,2.48966 -5.40479,2.18522 -5.40479,1.86328 C-5.40479,1.17741 -5.27881,0.533529 -5.02686,-0.0683594 L-9.1001,-1.74805 C-9.31006,-1.25814 -9.47103,-0.775228 -9.58301,-0.299316 C-9.69499,0.176595 -9.75098,0.673503 -9.75098,1.19141 C-10.0449,1.06543 -10.2759,1.00244 -10.4438,1.00244 C-10.5278,1.00244 -10.6188,1.00244 -10.7168,1.00244 C-10.8148,1.00244 -10.9128,1.03044 -11.0107,1.08643 C-10.8288,-0.691243 -10.3249,-2.27995 -9.49902,-3.67969 C-9.41504,-3.30176 -9.22607,-2.94482 -8.93213,-2.60889 C-8.90413,-2.58089 -8.87614,-2.56689 -8.84814,-2.56689 C-8.82015,-2.5389 -8.77816,-2.5249 -8.72217,-2.5249 C-8.77816,-2.45492 -8.82715,-2.38493 -8.86914,-2.31494 C-8.91113,-2.24495 -8.93213,-2.18197 -8.93213,-2.12598 C-8.62419,-1.986 -8.16227,-1.78654 -7.54639,-1.52759 C-6.9305,-1.26864 -6.02067,-0.894206 -4.81689,-0.404297 C-4.52295,-0.97819 -4.14852,-1.49609 -3.6936,-1.95801 C-3.23869,-2.41992 -2.72428,-2.76286 -2.15039,-2.98682 L-3.87207,-7.08105 C-4.264,-6.92708 -4.63843,-6.74512 -4.99536,-6.53516 C-5.35229,-6.3252 -5.67773,-6.10124 -5.97168,-5.86328 C-6.4056,-6.15723 -6.84652,-6.34619 -7.29443,-6.43018 C-6.44059,-7.14404 -5.51326,-7.73193 -4.51245,-8.19385 C-3.51164,-8.65576 -2.40934,-8.95671 -1.20557,-9.09668 C-1.42952,-8.90072 -1.62899,-8.68726 -1.80396,-8.4563 C-1.97892,-8.22534 -2.0944,-7.96289 -2.15039,-7.66895 C-2.40234,-7.61296 -2.6298,-7.55697 -2.83276,-7.50098 C-3.03573,-7.44499 -3.24919,-7.375 -3.47314,-7.29102 C-3.33317,-6.96908 -3.14071,-6.49316 -2.89575,-5.86328 C-2.6508,-5.2334 -2.28337,-4.34456 -1.79346,-3.19678 C-1.19157,-3.37874 -0.589681,-3.46973 0.012207,-3.46973 C0.348145,-3.46973 0.673584,-3.43123 0.988525,-3.35425 C1.30347,-3.27726 1.62191,-3.18278 1.94385,-3.0708 L3.66553,-7.20703 C3.09163,-7.375 2.57373,-7.52897 2.11182,-7.66895 C2.02783,-8.21484 1.74089,-8.69076 1.25098,-9.09668 C3.57454,-8.77474 5.58317,-7.8859 7.27686,-6.43018 C7.0389,-6.37419 6.82194,-6.3042 6.62598,-6.22021 C6.43001,-6.13623 6.22705,-6.01725 6.01709,-5.86328 C5.68115,-6.04525 5.36271,-6.24121 5.06177,-6.45117 C4.76082,-6.66113 4.44938,-6.8431 4.12744,-6.99707 C3.98747,-6.67513 3.77401,-6.19922 3.48706,-5.56934 C3.20011,-4.93945 2.81169,-4.05062 2.32178,-2.90283 C3.46956,-2.32894 4.31641,-1.4681 4.8623,-0.320313 L8.95654,-1.95801 C8.90055,-2.04199 8.87256,-2.13298 8.87256,-2.23096 C8.87256,-2.32894 8.84456,-2.42692 8.78857,-2.5249 L8.83057,-2.56689 C8.85856,-2.56689 8.87956,-2.57389 8.89355,-2.58789 C8.90755,-2.60189 8.92855,-2.60889 8.95654,-2.60889 C9.26449,-2.91683 9.46045,-3.27376 9.54443,-3.67969 C9.92236,-2.93783 10.2408,-2.17147 10.4998,-1.38062 C10.7587,-0.589762 10.9162,0.232585 10.9722,1.08643 C10.8882,1.08643 10.8112,1.07243 10.7412,1.04443 C10.6712,1.01644 10.5872,1.00244 10.4893,1.00244 C10.3493,1.00244 10.2233,1.01644 10.1113,1.04443 C9.99935,1.07243 9.87337,1.12142 9.7334,1.19141 C9.67741,0.701497 9.60392,0.225586 9.51294,-0.236328 C9.42196,-0.698242 9.30648,-1.14616 9.1665,-1.58008 C8.81657,-1.42611 8.31966,-1.23714 7.67578,-1.01318 C7.0319,-0.789225 6.13607,-0.432292 4.98828,0.0576172 C5.22624,0.63151 5.34521,1.26139 5.34521,1.94727 C5.34521,2.67513 5.22624,3.27702 4.98828,3.75293 L9.08252,5.47461 M0.999023,0.141602 C1.30697,0.351563 1.56592,0.610514 1.77588,0.918457 C2.32178,0.722493 3.22461,0.36556 4.48438,-0.152344 C3.99447,-1.24414 3.20361,-2.03499 2.11182,-2.5249 L0.999023,0.141602 M0.012207,-3.0708 C-0.589681,-3.0708 -1.12158,-2.98682 -1.5835,-2.81885 L-0.512695,-0.0683594 C-0.27474,-0.124349 -0.0997721,-0.152344 0.012207,-0.152344 C0.236165,-0.152344 0.432129,-0.110352 0.600098,-0.0263672 C0.922038,-0.65625 1.32796,-1.55908 1.81787,-2.73486 C1.52393,-2.81885 1.23348,-2.89583 0.946533,-2.96582 C0.659587,-3.03581 0.348145,-3.0708 0.012207,-3.0708 M-1.96143,-2.60889 C-2.47933,-2.39893 -2.96224,-2.10148 -3.41016,-1.71655 C-3.85807,-1.33162 -4.20801,-0.866211 -4.45996,-0.320313 L-1.70947,0.876465 C-1.5415,0.568522 -1.26855,0.30957 -0.890625,0.0996094 C-1.0306,-0.208333 -1.18807,-0.579264 -1.36304,-1.01318 C-1.538,-1.4471 -1.73747,-1.979 -1.96143,-2.60889 M-5.02686,1.86328 C-5.02686,2.43717 -4.92887,3.01107 -4.73291,3.58496 L-1.87744,2.43018 C-1.93343,2.20622 -1.96143,2.01725 -1.96143,1.86328 C-1.96143,1.72331 -1.93343,1.51335 -1.87744,1.2334 C-2.19938,1.07943 -2.58081,0.911458 -3.02173,0.729492 C-3.46265,0.547526 -3.99805,0.323568 -4.62793,0.0576172 C-4.72591,0.351563 -4.81689,0.642008 -4.90088,0.928955 C-4.98486,1.2159 -5.02686,1.52734 -5.02686,1.86328 M-4.54395,3.94189 C-4.15202,4.87972 -3.53613,5.60758 -2.69629,6.12549 C-2.50033,5.66357 -2.29386,5.19116 -2.0769,4.70825 C-1.85994,4.22534 -1.63949,3.72493 -1.41553,3.20703 C-1.5835,3.03906 -1.69548,2.89209 -1.75146,2.76611 C-2.0734,2.92008 -2.46183,3.08805 -2.91675,3.27002 C-3.37166,3.45199 -3.91406,3.67594 -4.54395,3.94189 M-0.0717773,6.90234 C0.446126,6.90234 0.943034,6.81836 1.41895,6.65039 C1.25098,6.21647 1.06551,5.76855 0.862549,5.30664 C0.659587,4.84473 0.446126,4.36182 0.222168,3.85791 L0.012207,3.85791 L-0.155762,3.85791 L-1.41553,6.73438 C-1.17757,6.79036 -0.953613,6.83236 -0.743652,6.86035 C-0.533691,6.88835 -0.309733,6.90234 -0.0717773,6.90234 M2.7207,6.0415 C3.54655,5.49561 4.13444,4.79574 4.48438,3.94189 L1.77588,2.76611 C1.71989,2.8501 1.6674,2.93058 1.61841,3.00757 C1.56942,3.08455 1.51693,3.15104 1.46094,3.20703 L2.7207,6.0415 M4.61035,3.58496 C4.69434,3.33301 4.77832,3.07056 4.8623,2.79761 C4.94629,2.52466 4.98828,2.24121 4.98828,1.94727 C4.98828,1.37337 4.8623,0.799479 4.61035,0.225586 L1.94385,1.31738 C1.99984,1.54134 2.02783,1.72331 2.02783,1.86328 C2.02783,2.01725 1.99984,2.20622 1.94385,2.43018 C2.2238,2.57015 2.58073,2.72762 3.01465,2.90259 C3.44857,3.07756 3.98047,3.30501 4.61035,3.58496 M-6.34961,-3.19678 C-6.64355,-2.86084 -6.98999,-2.69287 -7.38892,-2.69287 C-7.78784,-2.69287 -8.13428,-2.86084 -8.42822,-3.19678 C-8.73617,-3.49072 -8.89014,-3.83716 -8.89014,-4.23608 C-8.89014,-4.63501 -8.73617,-4.98145 -8.42822,-5.27539 C-8.13428,-5.58333 -7.78784,-5.7373 -7.38892,-5.7373 C-6.98999,-5.7373 -6.64355,-5.58333 -6.34961,-5.27539 C-6.06966,-4.98145 -5.92969,-4.63501 -5.92969,-4.23608 C-5.92969,-3.83716 -6.06966,-3.49072 -6.34961,-3.19678 M6.29004,-3.19678 C5.99609,-3.49072 5.84912,-3.83716 5.84912,-4.23608 C5.84912,-4.63501 5.99609,-4.98145 6.29004,-5.27539 C6.62598,-5.58333 7.00391,-5.7373 7.42383,-5.7373 C7.84375,-5.7373 8.19368,-5.58333 8.47363,-5.27539 C8.79557,-4.98145 8.95654,-4.63501 8.95654,-4.23608 C8.95654,-3.83716 8.79557,-3.49072 8.47363,-3.19678 C8.19368,-2.86084 7.84375,-2.69287 7.42383,-2.69287 C7.00391,-2.69287 6.62598,-2.86084 6.29004,-3.19678 M-9.01611,3.20703 C-9.01611,3.64095 -9.15259,3.99788 -9.42554,4.27783 C-9.69849,4.55778 -10.0379,4.69775 -10.4438,4.69775 C-10.8778,4.69775 -11.2382,4.55778 -11.5251,4.27783 C-11.8121,3.99788 -11.9556,3.64095 -11.9556,3.20703 C-11.9556,2.77311 -11.8121,2.40568 -11.5251,2.10474 C-11.2382,1.80379 -10.8778,1.65332 -10.4438,1.65332 C-10.0379,1.65332 -9.69849,1.81079 -9.42554,2.12573 C-9.15259,2.44067 -9.01611,2.80111 -9.01611,3.20703 M0.012207,-5.7373 C-0.393717,-5.7373 -0.747152,-5.88778 -1.0481,-6.18872 C-1.34904,-6.48966 -1.49951,-6.8571 -1.49951,-7.29102 C-1.49951,-7.72493 -1.34904,-8.08537 -1.0481,-8.37231 C-0.747152,-8.65926 -0.393717,-8.80273 0.012207,-8.80273 C0.404134,-8.80273 0.743571,-8.65926 1.03052,-8.37231 C1.31746,-8.08537 1.46094,-7.72493 1.46094,-7.29102 C1.46094,-6.8571 1.31746,-6.48966 1.03052,-6.18872 C0.743571,-5.88778 0.404134,-5.7373 0.012207,-5.7373 M6.29004,9.56885 C6.62598,9.2749 7.00391,9.12793 7.42383,9.12793 C7.84375,9.12793 8.19368,9.2749 8.47363,9.56885 C8.79557,9.8488 8.95654,10.1917 8.95654,10.5977 C8.95654,11.0036 8.79557,11.3605 8.47363,11.6685 C8.19368,11.9624 7.84375,12.1094 7.42383,12.1094 C7.00391,12.1094 6.62598,11.9624 6.29004,11.6685 C5.99609,11.3605 5.84912,11.0036 5.84912,10.5977 C5.84912,10.1917 5.99609,9.8488 6.29004,9.56885 M-6.34961,11.6685 C-6.64355,11.9624 -6.98999,12.1094 -7.38892,12.1094 C-7.78784,12.1094 -8.13428,11.9624 -8.42822,11.6685 C-8.73617,11.3605 -8.89014,11.0036 -8.89014,10.5977 C-8.89014,10.1917 -8.73617,9.8488 -8.42822,9.56885 C-8.13428,9.2749 -7.78784,9.12793 -7.38892,9.12793 C-6.98999,9.12793 -6.64355,9.2749 -6.34961,9.56885 C-6.06966,9.8488 -5.92969,10.1917 -5.92969,10.5977 C-5.92969,11.0036 -6.06966,11.3605 -6.34961,11.6685 M10.4893,1.65332 C10.9232,1.65332 11.2836,1.80379 11.5706,2.10474 C11.8575,2.40568 12.001,2.77311 12.001,3.20703 C12.001,3.64095 11.8575,3.99788 11.5706,4.27783 C11.2836,4.55778 10.9232,4.69775 10.4893,4.69775 C10.0693,4.69775 9.7089,4.55778 9.40796,4.27783 C9.10701,3.99788 8.95654,3.64095 8.95654,3.20703 C8.95654,2.77311 9.10701,2.40568 9.40796,2.10474 C9.7089,1.80379 10.0693,1.65332 10.4893,1.65332 M0.012207,12.2354 C0.404134,12.2354 0.743571,12.3718 1.03052,12.6448 C1.31746,12.9177 1.46094,13.2502 1.46094,13.6421 C1.46094,14.076 1.31746,14.4364 1.03052,14.7234 C0.743571,15.0103 0.404134,15.1538 0.012207,15.1538 C-0.393717,15.1538 -0.747152,15.0103 -1.0481,14.7234 C-1.34904,14.4364 -1.49951,14.076 -1.49951,13.6421 C-1.49951,13.2502 -1.34904,12.9177 -1.0481,12.6448 C-0.747152,12.3718 -0.393717,12.2354 0.012207,12.2354 "/>
</g>

<g fill="#53a54f" fill-opacity="1" stroke="none" transform="matrix(1,0,0,1,0,0)"
font-family="MS Shell Dlg 2" font-size="7.8" font-weight="400" font-style="normal" 
>
</g>
</g>
</svg>
