<?xml version="1.0" encoding="UTF-8" standalone="no"?>
<svg
   xmlns:dc="http://purl.org/dc/elements/1.1/"
   xmlns:cc="http://creativecommons.org/ns#"
   xmlns:rdf="http://www.w3.org/1999/02/22-rdf-syntax-ns#"
   xmlns:svg="http://www.w3.org/2000/svg"
   xmlns="http://www.w3.org/2000/svg"
   xmlns:sodipodi="http://sodipodi.sourceforge.net/DTD/sodipodi-0.dtd"
   xmlns:inkscape="http://www.inkscape.org/namespaces/inkscape"
   inkscape:version="1.0 (4035a4fb49, 2020-05-01)"
   sodipodi:docname="1616.svg"
   id="svg20"
   version="1.2"
   viewBox="0 0 42.519639 42.519639"
   height="14.999999mm"
   width="14.999999mm">
  <metadata
     id="metadata24">
    <rdf:RDF>
      <cc:Work
         rdf:about="">
        <dc:format>image/svg+xml</dc:format>
        <dc:type
           rdf:resource="http://purl.org/dc/dcmitype/StillImage" />
        <dc:title>Qt SVG Document</dc:title>
      </cc:Work>
    </rdf:RDF>
  </metadata>
  <sodipodi:namedview
     inkscape:current-layer="svg20"
     inkscape:window-maximized="0"
     inkscape:window-y="0"
     inkscape:window-x="0"
     inkscape:cy="28.346482"
     inkscape:cx="28.346482"
     inkscape:zoom="5.8410537"
     showgrid="false"
     id="namedview22"
     inkscape:window-height="480"
     inkscape:window-width="1034"
     inkscape:pageshadow="2"
     inkscape:pageopacity="0"
     guidetolerance="10"
     gridtolerance="10"
     objecttolerance="10"
     borderopacity="1"
     bordercolor="#666666"
     pagecolor="#ffffff" />
  <title
     id="title2">Qt SVG Document</title>
  <desc
     id="desc4">Generated with Qt</desc>
  <defs
     id="defs6" />
  <g
     transform="translate(5.25984,5.25984)"
     id="g18"
     stroke-linejoin="bevel"
     stroke-linecap="square"
     fill-rule="evenodd"
     stroke-width="1"
     stroke="#000000"
     fill="none">
    <g
       id="g10"
       font-style="normal"
       font-weight="400"
       font-size="7.8px"
       font-family="'MS Shell Dlg 2'"
       stroke="none"
       fill-opacity="1"
       fill="#53a54f">
      <path
         id="path8"
         d="M 37.2598,16 C 37.2598,27.7415 27.7415,37.2598 16,37.2598 4.25851,37.2598 -5.25984,27.7415 -5.25984,16 -5.25984,4.25851 4.25851,-5.25984 16,-5.25984 27.7415,-5.25984 37.2598,4.25851 37.2598,16"
         fill-rule="evenodd"
         vector-effect="non-scaling-stroke" />
    </g>
    <g
       id="g14"
       font-style="normal"
       font-weight="400"
       font-size="7.8px"
       font-family="'MS Shell Dlg 2'"
       transform="translate(16,13.9591)"
       stroke="none"
       fill-opacity="0.94902"
       fill="#ffffff">
      <path
         id="path12"
         d="m 9.08252,5.47461 c 0,-0.11198 0.014,-0.19596 0.04199,-0.25195 C 9.15251,5.16667 9.1945,5.09668 9.25049,5.0127 9.62842,5.26465 10.0133,5.39063 10.4053,5.39063 10.2093,5.99251 9.95386,6.5804 9.63892,7.1543 9.32397,7.72819 8.97754,8.27409 8.59961,8.79199 8.20768,8.54004 7.82275,8.41406 7.44482,8.41406 H 7.27686 C 7.5848,8.03613 7.86825,7.64071 8.1272,7.22778 8.38615,6.81486 8.6346,6.36344 8.87256,5.87354 8.55062,5.73356 8.07471,5.5341 7.44482,5.27515 6.81494,5.01619 5.9541,4.64176 4.8623,4.15186 4.40039,5.15967 3.74251,5.91553 2.88867,6.41943 c 0.22396,0.51791 0.47241,1.1058 0.74536,1.76368 0.27295,0.65787 0.61239,1.43473 1.01831,2.33059 0.11198,-0.056 0.20996,-0.119 0.29395,-0.189 0.08398,-0.07 0.18896,-0.133 0.31494,-0.189 -0.05599,0.196 -0.06999,0.4095 -0.04199,0.6404 0.02799,0.231 0.06999,0.4584 0.12597,0.6824 -0.02799,0.028 -0.10498,0.07 -0.23095,0.126 0.40592,0.8958 0.83284,1.8721 1.28076,2.9289 0.44792,1.0568 0.95882,2.2291 1.53271,3.5169 H 6.41602 L 3.8335,12.1934 c -0.32194,0.1119 -0.64038,0.2099 -0.95533,0.2939 -0.31494,0.084 -0.62638,0.154 -0.93432,0.21 C 1.80387,12.4733 1.63241,12.2668 1.42944,12.0779 1.22648,11.8889 0.985026,11.7524 0.705078,11.6685 1.18099,11.6125 1.6429,11.5355 2.09082,11.4375 2.53874,11.3395 2.95866,11.2205 3.35059,11.0806 3.09863,10.5067 2.82918,9.88029 2.54224,9.20142 2.25529,8.52254 1.94385,7.79818 1.60791,7.02832 1.09001,7.19629 0.530111,7.28027 -0.0717773,7.28027 -0.561686,7.28027 -1.06559,7.21029 -1.5835,7.07031 c -0.22395,0.48991 -0.47241,1.0638 -0.74536,1.72168 -0.27295,0.65788 -0.59839,1.42071 -0.97632,2.28861 0.40593,0.1399 0.82235,0.2589 1.24927,0.3569 0.42692,0.098 0.87134,0.175 1.333254,0.231 -0.517904,0.1819 -0.930824,0.5249 -1.238774,1.0288 -0.64388,-0.084 -1.26676,-0.252 -1.86865,-0.5039 -0.33594,0.8258 -0.72086,1.7181 -1.15478,2.677 -0.43392,0.9588 -0.88884,2.0121 -1.36475,3.1599 h -1.5957 l 2.83447,-6.4038 c -0.05599,-0.056 -0.10498,-0.091 -0.14697,-0.105 -0.04199,-0.014 -0.09099,-0.035 -0.14698,-0.063 0.19597,-0.4339 0.23796,-0.8748 0.12598,-1.3228 0.08399,0.056 0.18197,0.119 0.29395,0.189 0.11198,0.07 0.23095,0.133 0.35693,0.189 0.25195,-0.57392 0.5284,-1.19681 0.82935,-1.86868 0.30094,-0.67188 0.61238,-1.39974 0.93432,-2.18359 -0.89583,-0.5739 -1.5887,-1.34375 -2.07861,-2.30957 l -4.07324,1.5957 c 0.39192,1.0778 0.99381,1.96663 1.80566,2.6665 h -0.18896 c -0.47592,0 -0.86084,0.12598 -1.15479,0.37793 C -8.98812,8.27409 -9.35555,7.72819 -9.65649,7.1543 -9.95744,6.5804 -10.2199,5.99251 -10.4438,5.39063 c 0.46187,0 0.84679,-0.12598 1.15474,-0.37793 0,0.05598 0,0.11897 0,0.18896 0,0.06999 0.02799,0.13298 0.08398,0.18897 C -8.91113,5.25065 -8.45622,5.05119 -7.84033,4.79224 -7.22445,4.53328 -6.31462,4.15885 -5.11084,3.66895 -5.19482,3.361 -5.26481,3.06356 -5.3208,2.77661 -5.37679,2.48966 -5.40479,2.18522 -5.40479,1.86328 c 0,-0.68587 0.12598,-1.329751 0.37793,-1.9316394 L -9.1001,-1.74805 c -0.20996,0.48991 -0.37093,0.972822 -0.48291,1.448734 -0.11198,0.475911 -0.16797,0.972819 -0.16797,1.490726 -0.29392,-0.12598 -0.52492,-0.18897 -0.69282,-0.18897 -0.084,0 -0.175,0 -0.273,0 -0.098,0 -0.196,0.028 -0.2939,0.08399 0.1819,-1.777673 0.6858,-3.36638 1.51168,-4.76612 0.08398,0.37793 0.27295,0.73487 0.56689,1.0708 0.028,0.028 0.05599,0.042 0.08399,0.042 0.02799,0.02799 0.06998,0.04199 0.12597,0.04199 -0.05599,0.06998 -0.10498,0.13997 -0.14697,0.20996 -0.04199,0.06999 -0.06299,0.13297 -0.06299,0.18896 0.30794,0.13998 0.76986,0.33944 1.38574,0.59839 0.61589,0.25895 1.52572,0.633384 2.7295,1.123293 0.29394,-0.573893 0.66837,-1.091793 1.12329,-1.553713 0.45491,-0.46191 0.96932,-0.80485 1.54321,-1.02881 l -1.72168,-4.09423 c -0.39193,0.15397 -0.76636,0.33593 -1.12329,0.54589 -0.35693,0.20996 -0.68237,0.43392 -0.97632,0.67188 -0.43392,-0.29395 -0.87484,-0.48291 -1.32275,-0.5669 0.85384,-0.71386 1.78117,-1.30175 2.78198,-1.76367 1.00081,-0.46191 2.10311,-0.76286 3.30688,-0.90283 -0.22395,0.19596 -0.42342,0.40942 -0.59839,0.64038 -0.17496,0.23096 -0.29044,0.49341 -0.34643,0.78735 -0.25195,0.05599 -0.47941,0.11198 -0.68237,0.16797 -0.20297,0.05599 -0.41643,0.12598 -0.64038,0.20996 0.13997,0.32194 0.33243,0.79786 0.57739,1.42774 0.24495,0.62988 0.61238,1.51872 1.10229,2.6665 0.60189,-0.18196 1.203779,-0.27295 1.805667,-0.27295 0.335938,0 0.661377,0.0385 0.976318,0.11548 0.314945,0.07699 0.633385,0.17147 0.955325,0.28345 L 3.66553,-7.20703 C 3.09163,-7.375 2.57373,-7.52897 2.11182,-7.66895 2.02783,-8.21484 1.74089,-8.69076 1.25098,-9.09668 3.57454,-8.77474 5.58317,-7.8859 7.27686,-6.43018 7.0389,-6.37419 6.82194,-6.3042 6.62598,-6.22021 6.43001,-6.13623 6.22705,-6.01725 6.01709,-5.86328 5.68115,-6.04525 5.36271,-6.24121 5.06177,-6.45117 4.76082,-6.66113 4.44938,-6.8431 4.12744,-6.99707 3.98747,-6.67513 3.77401,-6.19922 3.48706,-5.56934 3.20011,-4.93945 2.81169,-4.05062 2.32178,-2.90283 3.46956,-2.32894 4.31641,-1.4681 4.8623,-0.320313 L 8.95654,-1.95801 C 8.90055,-2.04199 8.87256,-2.13298 8.87256,-2.23096 c 0,-0.09798 -0.028,-0.19596 -0.08399,-0.29394 l 0.042,-0.04199 c 0.02799,0 0.04899,-0.007 0.06298,-0.021 0.014,-0.014 0.035,-0.021 0.06299,-0.021 0.30795,-0.30794 0.50391,-0.66487 0.58789,-1.0708 0.37793,0.74186 0.69637,1.50822 0.95537,2.29907 0.2589,0.790858 0.4164,1.613205 0.4724,2.46705 -0.084,0 -0.161,-0.014 -0.231,-0.042 -0.07,-0.02799 -0.154,-0.04199 -0.2519,-0.04199 -0.14,0 -0.266,0.014 -0.378,0.04199 C 9.99935,1.07243 9.87337,1.12142 9.7334,1.19141 9.67741,0.701497 9.60392,0.225586 9.51294,-0.236328 9.42196,-0.698242 9.30648,-1.14616 9.1665,-1.58008 8.81657,-1.42611 8.31966,-1.23714 7.67578,-1.01318 7.0319,-0.789225 6.13607,-0.432292 4.98828,0.0576172 5.22624,0.63151 5.34521,1.26139 5.34521,1.94727 c 0,0.72786 -0.11897,1.32975 -0.35693,1.80566 L 9.08252,5.47461 M 0.999023,0.141602 C 1.30697,0.351563 1.56592,0.610514 1.77588,0.918457 2.32178,0.722493 3.22461,0.36556 4.48438,-0.152344 3.99447,-1.24414 3.20361,-2.03499 2.11182,-2.5249 L 0.999023,0.141602 M 0.012207,-3.0708 c -0.601888,0 -1.133787,0.08398 -1.595707,0.25195 l 1.070805,2.7504906 c 0.237955,-0.0559896 0.4129229,-0.0839846 0.524902,-0.0839846 0.223958,0 0.419922,0.041992 0.587891,0.1259768 C 0.922038,-0.65625 1.32796,-1.55908 1.81787,-2.73486 1.52393,-2.81885 1.23348,-2.89583 0.946533,-2.96582 0.659587,-3.03581 0.348145,-3.0708 0.012207,-3.0708 m -1.973637,0.46191 c -0.5179,0.20996 -1.00081,0.50741 -1.44873,0.89234 -0.44791,0.38493 -0.79785,0.850339 -1.0498,1.396237 l 2.75049,1.196778 C -1.5415,0.568522 -1.26855,0.30957 -0.890625,0.0996094 -1.0306,-0.208333 -1.18807,-0.579264 -1.36304,-1.01318 -1.538,-1.4471 -1.73747,-1.979 -1.96143,-2.60889 m -3.06543,4.47217 c 0,0.57389 0.09799,1.14779 0.29395,1.72168 l 2.85547,-1.15478 c -0.05599,-0.22396 -0.08399,-0.41293 -0.08399,-0.5669 0,-0.13997 0.028,-0.34993 0.08399,-0.62988 C -2.19938,1.07943 -2.58081,0.911458 -3.02173,0.729492 -3.46265,0.547526 -3.99805,0.323568 -4.62793,0.0576172 -4.72591,0.351563 -4.81689,0.642008 -4.90088,0.928955 -4.98486,1.2159 -5.02686,1.52734 -5.02686,1.86328 m 0.48291,2.07861 c 0.39193,0.93783 1.00782,1.66569 1.84766,2.1836 C -2.50033,5.66357 -2.29386,5.19116 -2.0769,4.70825 -1.85994,4.22534 -1.63949,3.72493 -1.41553,3.20703 -1.5835,3.03906 -1.69548,2.89209 -1.75146,2.76611 -2.0734,2.92008 -2.46183,3.08805 -2.91675,3.27002 -3.37166,3.45199 -3.91406,3.67594 -4.54395,3.94189 m 4.4721727,2.96045 C 0.446126,6.90234 0.943034,6.81836 1.41895,6.65039 1.25098,6.21647 1.06551,5.76855 0.862549,5.30664 0.659587,4.84473 0.446126,4.36182 0.222168,3.85791 H 0.012207 -0.155762 L -1.41553,6.73438 c 0.23796,0.05598 0.461917,0.09798 0.671878,0.12597 0.209961,0.028 0.433919,0.04199 0.6718747,0.04199 M 2.7207,6.0415 C 3.54655,5.49561 4.13444,4.79574 4.48438,3.94189 L 1.77588,2.76611 C 1.71989,2.8501 1.6674,2.93058 1.61841,3.00757 1.56942,3.08455 1.51693,3.15104 1.46094,3.20703 L 2.7207,6.0415 M 4.61035,3.58496 C 4.69434,3.33301 4.77832,3.07056 4.8623,2.79761 4.94629,2.52466 4.98828,2.24121 4.98828,1.94727 4.98828,1.37337 4.8623,0.799479 4.61035,0.225586 L 1.94385,1.31738 c 0.05599,0.22396 0.08398,0.40593 0.08398,0.5459 0,0.15397 -0.02799,0.34294 -0.08398,0.5669 0.27995,0.13997 0.63688,0.29744 1.0708,0.47241 0.43392,0.17497 0.96582,0.40242 1.5957,0.68237 M -6.34961,-3.19678 c -0.29394,0.33594 -0.64038,0.50391 -1.03931,0.50391 -0.39892,0 -0.74536,-0.16797 -1.0393,-0.50391 -0.30795,-0.29394 -0.46192,-0.64038 -0.46192,-1.0393 0,-0.39893 0.15397,-0.74537 0.46192,-1.03931 0.29394,-0.30794 0.64038,-0.46191 1.0393,-0.46191 0.39893,0 0.74537,0.15397 1.03931,0.46191 0.27995,0.29394 0.41992,0.64038 0.41992,1.03931 0,0.39892 -0.13997,0.74536 -0.41992,1.0393 m 12.63965,0 c -0.29395,-0.29394 -0.44092,-0.64038 -0.44092,-1.0393 0,-0.39893 0.14697,-0.74537 0.44092,-1.03931 0.33594,-0.30794 0.71387,-0.46191 1.13379,-0.46191 0.41992,0 0.76985,0.15397 1.0498,0.46191 0.32194,0.29394 0.48291,0.64038 0.48291,1.03931 0,0.39892 -0.16097,0.74536 -0.48291,1.0393 -0.27995,0.33594 -0.62988,0.50391 -1.0498,0.50391 -0.41992,0 -0.79785,-0.16797 -1.13379,-0.50391 M -9.01611,3.20703 c 0,0.43392 -0.13648,0.79085 -0.40943,1.0708 -0.27295,0.27995 -0.61236,0.41992 -1.01826,0.41992 -0.434,0 -0.7944,-0.13997 -1.0813,-0.41992 -0.287,-0.27995 -0.4305,-0.63688 -0.4305,-1.0708 0,-0.43392 0.1435,-0.80135 0.4305,-1.10229 0.2869,-0.30095 0.6473,-0.45142 1.0813,-0.45142 0.4059,0 0.74531,0.15747 1.01826,0.47241 0.27295,0.31494 0.40943,0.67538 0.40943,1.0813 M 0.012207,-5.7373 c -0.405924,0 -0.759359,-0.15048 -1.060307,-0.45142 -0.30094,-0.30094 -0.45141,-0.66838 -0.45141,-1.1023 0,-0.43391 0.15047,-0.79435 0.45141,-1.08129 0.300948,-0.28695 0.654383,-0.43042 1.060307,-0.43042 0.391927,0 0.731364,0.14347 1.018313,0.43042 0.28694,0.28694 0.43042,0.64738 0.43042,1.08129 0,0.43392 -0.14348,0.80136 -0.43042,1.1023 C 0.743571,-5.88778 0.404134,-5.7373 0.012207,-5.7373 M 6.29004,9.56885 C 6.62598,9.2749 7.00391,9.12793 7.42383,9.12793 c 0.41992,0 0.76985,0.14697 1.0498,0.44092 0.32194,0.27995 0.48291,0.62285 0.48291,1.02885 0,0.4059 -0.16097,0.7628 -0.48291,1.0708 -0.27995,0.2939 -0.62988,0.4409 -1.0498,0.4409 -0.41992,0 -0.79785,-0.147 -1.13379,-0.4409 -0.29395,-0.308 -0.44092,-0.6649 -0.44092,-1.0708 0,-0.406 0.14697,-0.7489 0.44092,-1.02885 M -6.34961,11.6685 c -0.29394,0.2939 -0.64038,0.4409 -1.03931,0.4409 -0.39892,0 -0.74536,-0.147 -1.0393,-0.4409 -0.30795,-0.308 -0.46192,-0.6649 -0.46192,-1.0708 0,-0.406 0.15397,-0.7489 0.46192,-1.02885 0.29394,-0.29395 0.64038,-0.44092 1.0393,-0.44092 0.39893,0 0.74537,0.14697 1.03931,0.44092 0.27995,0.27995 0.41992,0.62285 0.41992,1.02885 0,0.4059 -0.13997,0.7628 -0.41992,1.0708 M 10.4893,1.65332 c 0.4339,0 0.7943,0.15047 1.0813,0.45142 0.2869,0.30094 0.4304,0.66837 0.4304,1.10229 0,0.43392 -0.1435,0.79085 -0.4304,1.0708 -0.287,0.27995 -0.6474,0.41992 -1.0813,0.41992 -0.42,0 -0.7804,-0.13997 -1.08134,-0.41992 C 9.10701,3.99788 8.95654,3.64095 8.95654,3.20703 8.95654,2.77311 9.10701,2.40568 9.40796,2.10474 9.7089,1.80379 10.0693,1.65332 10.4893,1.65332 M 0.012207,12.2354 c 0.391927,0 0.731364,0.1364 1.018313,0.4094 0.28694,0.2729 0.43042,0.6054 0.43042,0.9973 0,0.4339 -0.14348,0.7943 -0.43042,1.0813 -0.286949,0.2869 -0.626386,0.4304 -1.018313,0.4304 -0.405924,0 -0.759359,-0.1435 -1.060307,-0.4304 -0.30094,-0.287 -0.45141,-0.6474 -0.45141,-1.0813 0,-0.3919 0.15047,-0.7244 0.45141,-0.9973 0.300948,-0.273 0.654383,-0.4094 1.060307,-0.4094"
         fill-rule="evenodd"
         vector-effect="none" />
    </g>
    <g
       id="g16"
       font-style="normal"
       font-weight="400"
       font-size="7.8px"
       font-family="'MS Shell Dlg 2'"
       stroke="none"
       fill-opacity="1"
       fill="#53a54f" />
  </g>
</svg>
