<svg xmlns="http://www.w3.org/2000/svg" version="1.2" viewBox="0 0 42.52 42.52" height="56.693" width="56.693">
   <g stroke-linejoin="bevel" stroke-linecap="square" fill-rule="evenodd" stroke="none" fill="none" font-weight="400"
      font-size="7.8" font-family="'MS Shell Dlg 2'">
      <path
         d="M42.52 21.26C42.52 33 33 42.52 21.26 42.52 9.518 42.52 0 33 0 21.26 0 9.518 9.518 0 21.26 0 33 0 42.52 9.518 42.52 21.26"
         vector-effect="non-scaling-stroke" fill="#53a54f" />
      <path
         d="M21.776 23.795l1.029 1.113v3.317h-2.1v-3.317l1.071-1.113m12.87-3.444l-3.275.945c.322-.308.602-.577.84-.808.238-.231.385-.389.44-.473.183-.265.274-.496.274-.692l1.365-.336.357 1.364m-24.566 5.46a.536.536 0 00.305.083c.119 0 .248.035.388.105.056 0 .241.035.556.105.315.07.676.147 1.082.231l-3.696.945-.44-1.386h.083l1.302-.42c.168.168.308.28.42.336m17.3-9.028a1.434 1.434 0 01-1.101-.189 1.377 1.377 0 01-.62-.924c-.084-.35-.035-.69.147-1.018.182-.329.476-.563.882-.703a1.399 1.399 0 011.092.2c.336.216.546.492.63.828.084.406.031.774-.158 1.103-.189.329-.48.563-.871.703m5.102 2.625a34.19 34.19 0 01-1.197 1.113c-.322.293-.665.615-1.029.965l-.776 3.17c-.084.49-.385.735-.903.735-.112 0-.196-.028-.252-.084a.832.832 0 01-.588-.43 1.01 1.01 0 01-.105-.724l.86-3.36a.65.65 0 00.106-.241c.014-.077.063-.144.147-.2l1.154-1.196-1.028-.693c-.14.686-.672 1.176-1.596 1.47l-1.365.335.252.861 1.806-.504c-.056.056-.084.112-.084.168 0 .056-.028.112-.084.168l-.336 1.281-11.485 3.15-1.302-1.24 1.638-.44-.336-1.029c-.112.028-.27.063-.472.105-.203.042-.508.119-.914.23-.14.057-.273.085-.399.085h-.336c-.601 0-1.056-.196-1.364-.588l-.525 1.113 1.637.525c.112 0 .231.056.357.168l2.52 2.54a.834.834 0 01.273.64.833.833 0 01-.273.64c-.14.225-.364.337-.672.337a.945.945 0 01-.304-.063.594.594 0 01-.305-.273l-2.372-2.247c-.42-.084-.805-.182-1.155-.294a8.711 8.711 0 01-.83-.189 3.584 3.584 0 00-.409-.105c-.238 0-.413-.042-.525-.126a2.014 2.014 0 01-.23-.178 4.972 4.972 0 01-.19-.178l-1.553.482 1.637-1.931 1.113-2.33c.378-.63.896-.806 1.554-.526.028.042.105.12.23.231.127.112.256.231.39.357.132.126.255.249.367.368.112.119.182.178.21.178 0 .056.048.105.146.147.098.042.308.021.63-.063l1.68-.44a.535.535 0 01.472.052c.147.09.249.22.305.388.056.252-.021.483-.231.693.028.14.073.294.136.462.063.168.123.385.179.65l8.902-2.33-.23-.86c-.28-.029-.463-.169-.547-.42a.486.486 0 01.084-.473.862.862 0 01.42-.304l1.554-.441c.322-.084.518-.182.588-.294a.577.577 0 00.105-.294c.028-.266.07-.511.126-.735.056-.196.105-.374.147-.535.042-.161.09-.27.147-.326.182-.252.43-.416.745-.493a.987.987 0 01.85.157l2.499 1.617c.252.21.41.465.472.766.063.301.018.578-.136.83m-19.568.944a1.51 1.51 0 01-1.082-.147 1.642 1.642 0 01-.724-.797 1.576 1.576 0 01.157-1.113 1.57 1.57 0 01.788-.735c.406-.14.773-.109 1.102.094.329.203.563.5.703.893.154.406.137.773-.052 1.102-.189.329-.486.563-.892.703"
         fill-opacity=".949" fill="#fff" />
   </g>
</svg>