<?xml version="1.0" encoding="UTF-8" standalone="no"?>
<svg width="11.2889mm" height="11.2889mm"
 viewBox="0 0 32 32"
 xmlns="http://www.w3.org/2000/svg" xmlns:xlink="http://www.w3.org/1999/xlink"  version="1.2" baseProfile="tiny">
<title>Qt SVG Document</title>
<desc>Generated with Qt</desc>
<defs>
</defs>
<g fill="none" stroke="black" stroke-width="1" fill-rule="evenodd" stroke-linecap="square" stroke-linejoin="bevel" >

<g fill="#53a54f" fill-opacity="1" stroke="none" transform="matrix(1,0,0,1,0,0)"
font-family="MS Shell Dlg 2" font-size="7.8" font-weight="400" font-style="normal" 
>
<path vector-effect="non-scaling-stroke" fill-rule="evenodd" d="M37.2598,16 C37.2598,27.7415 27.7415,37.2598 16,37.2598 C4.25851,37.2598 -5.25984,27.7415 -5.25984,16 C-5.25984,4.25851 4.25851,-5.25984 16,-5.25984 C27.7415,-5.25984 37.2598,4.25851 37.2598,16 "/>
</g>

<g fill="#ffffff" fill-opacity="0.94902" stroke="none" transform="matrix(1,0,0,1,16,9.19685)"
font-family="MS Shell Dlg 2" font-size="7.8" font-weight="400" font-style="normal" 
>
<path vector-effect="none" fill-rule="evenodd" d="M11.6021,8.51904 L11.665,8.54004 C11.665,8.59603 11.658,8.64852 11.644,8.69751 C11.63,8.7465 11.623,8.79199 11.623,8.83398 L11.6021,8.51904 M-7.86133,-1.89502 C-7.83333,-1.92301 -7.80184,-1.95801 -7.76685,-2 C-7.73185,-2.04199 -7.70036,-2.07699 -7.67236,-2.10498 L-7.60938,-2.06299 L-7.86133,-1.89502 M-7.04248,-2.60889 C-6.9585,-2.66488 -6.90251,-2.69987 -6.87451,-2.71387 C-6.52458,-2.92383 -6.17114,-3.0778 -5.81421,-3.17578 C-5.45728,-3.27376 -5.12834,-3.34375 -4.82739,-3.38574 C-4.52645,-3.42773 -4.264,-3.44873 -4.04004,-3.44873 C-3.81608,-3.44873 -3.64811,-3.44173 -3.53613,-3.42773 C-3.2002,-3.39974 -2.91325,-3.37524 -2.67529,-3.35425 C-2.43734,-3.33325 -2.21688,-3.31226 -2.01392,-3.29126 C-1.81095,-3.27026 -1.60799,-3.24927 -1.40503,-3.22827 C-1.20207,-3.20728 -0.960612,-3.18278 -0.680664,-3.15479 C-0.400716,-3.12679 -0.0997721,-3.14779 0.222168,-3.21777 C0.544108,-3.28776 0.796061,-3.48372 0.978027,-3.80566 C1.03402,-3.93164 1.04102,-4.09261 0.999023,-4.28857 C0.957031,-4.48454 0.887044,-4.691 0.789063,-4.90796 C0.691081,-5.12492 0.582601,-5.33838 0.463623,-5.54834 C0.344645,-5.7583 0.236165,-5.93327 0.138184,-6.07324 C-0.0157878,-6.3112 -0.0227865,-6.56315 0.117188,-6.8291 L0.306152,-7.16504 C0.404134,-7.34701 0.551107,-7.46248 0.74707,-7.51147 C0.943034,-7.56047 1.118,-7.54297 1.27197,-7.45898 L6.35303,-4.6665 L11.4131,-1.87402 C11.5951,-1.77604 11.714,-1.63257 11.77,-1.4436 C11.826,-1.25464 11.798,-1.06917 11.686,-0.887207 L11.4971,-0.55127 C11.3571,-0.285319 11.1471,-0.152344 10.8672,-0.152344 C10.6992,-0.152344 10.4928,-0.148844 10.2478,-0.141846 C10.0028,-0.134847 9.76489,-0.11735 9.53394,-0.0893555 C9.30298,-0.0613607 9.09302,-0.0123698 8.90405,0.0576172 C8.71509,0.127604 8.58561,0.225586 8.51563,0.351563 C8.34766,0.659505 8.31616,0.974447 8.42114,1.29639 C8.52612,1.61833 8.6626,1.87728 8.83057,2.07324 C9.01253,2.2972 9.1665,2.49316 9.29248,2.66113 C9.41846,2.8291 9.54443,2.99357 9.67041,3.15454 C9.79639,3.31551 9.93286,3.49048 10.0798,3.67944 C10.2268,3.86841 10.3983,4.09587 10.5942,4.36182 C10.6502,4.4458 10.7447,4.58228 10.8777,4.77124 C11.0107,4.96021 11.1401,5.19116 11.2661,5.46411 C11.3921,5.73706 11.5041,6.052 11.6021,6.40894 C11.7,6.76587 11.756,7.1473 11.77,7.55322 C11.756,7.58122 11.7525,7.61271 11.7595,7.64771 C11.7665,7.6827 11.763,7.71419 11.749,7.74219 L-0.617676,0.918457 L-6.64355,-2.39893 L-7.04248,-2.60889 M9.1665,13.4111 C8.74658,13.859 8.32666,14.279 7.90674,14.6709 C7.29085,15.2448 6.60498,15.8117 5.84912,16.3716 C5.20524,16.8475 4.44588,17.3479 3.57104,17.8728 C2.69621,18.3977 1.75488,18.8491 0.74707,19.2271 C0.397135,19.353 -0.0297852,19.4965 -0.533691,19.6575 C-1.0376,19.8184 -1.5695,19.9689 -2.12939,20.1089 C-2.50732,20.2069 -2.87826,20.3014 -3.24219,20.3923 C-3.60612,20.4833 -3.99805,20.5568 -4.41797,20.6128 C-4.83789,20.6688 -5.3033,20.7073 -5.81421,20.7283 C-6.32511,20.7493 -6.9235,20.7318 -7.60938,20.6758 C-8.0153,20.1299 -8.35124,19.6365 -8.61719,19.1956 C-8.88314,18.7546 -9.1036,18.3382 -9.27856,17.9463 C-9.45353,17.5544 -9.59701,17.1799 -9.70898,16.823 C-9.82096,16.4661 -9.93994,16.1056 -10.0659,15.7417 C-10.2479,15.1958 -10.4019,14.6674 -10.5278,14.1565 C-10.6538,13.6456 -10.7588,13.2082 -10.8428,12.8442 C-11.0807,11.7804 -11.2102,10.7411 -11.2312,9.72632 C-11.2522,8.71151 -11.2347,7.80518 -11.1787,7.00732 C-11.1227,6.0695 -11.0107,5.18766 -10.8428,4.36182 C-10.7728,4.08187 -10.7063,3.79492 -10.6433,3.50098 C-10.5803,3.20703 -10.5068,2.91309 -10.4229,2.61914 L-6.62256,4.71875 L-0.617676,8.01514 L5.36621,11.3115 L9.1665,13.4111 M-6.87451,3.71094 L-10.1919,1.88428 C-9.92594,0.988444 -9.52002,0.155599 -8.97412,-0.614258 L-7.10547,-1.79004 L-6.87451,-1.66406 L-6.87451,3.71094 M-9.45703,1.54834 C-9.34505,1.60433 -9.23657,1.61483 -9.13159,1.57983 C-9.02661,1.54484 -8.94613,1.47835 -8.89014,1.38037 C-8.75016,1.11442 -8.79915,0.918457 -9.03711,0.79248 C-9.28906,0.652507 -9.48503,0.715495 -9.625,0.981445 C-9.68099,1.07943 -9.69499,1.18091 -9.66699,1.28589 C-9.639,1.39087 -9.56901,1.47835 -9.45703,1.54834 M-8.30225,0.0576172 C-8.35824,0.169596 -8.36873,0.274577 -8.33374,0.372559 C-8.29875,0.47054 -8.23226,0.554525 -8.13428,0.624512 C-8.0223,0.680501 -7.91382,0.694499 -7.80884,0.666504 C-7.70386,0.638509 -7.62337,0.568522 -7.56738,0.456543 C-7.4974,0.344564 -7.4764,0.236084 -7.50439,0.131104 C-7.53239,0.026123 -7.60238,-0.054362 -7.71436,-0.110352 C-7.82633,-0.180339 -7.93481,-0.197835 -8.03979,-0.162842 C-8.14478,-0.127848 -8.23226,-0.054362 -8.30225,0.0576172 M-8.19727,2.24121 C-8.08529,2.2972 -7.97681,2.3077 -7.87183,2.27271 C-7.76685,2.23771 -7.68636,2.17122 -7.63037,2.07324 C-7.4904,1.80729 -7.53939,1.61133 -7.77734,1.48535 C-7.88932,1.41536 -7.9978,1.39787 -8.10278,1.43286 C-8.20776,1.46785 -8.29525,1.54134 -8.36523,1.65332 C-8.42122,1.7653 -8.43522,1.87378 -8.40723,1.97876 C-8.37923,2.08374 -8.30924,2.17122 -8.19727,2.24121 M11.1191,10.4507 C10.9232,10.8986 10.7027,11.315 10.4578,11.7 C10.2128,12.0849 9.95036,12.4593 9.67041,12.8232 L6.35303,10.9966 L10.8882,8.12012 L11.1191,8.24609 L11.1191,10.4507 M8.28467,11.3115 C8.39665,11.3815 8.50513,11.399 8.61011,11.364 C8.71509,11.329 8.80257,11.2555 8.87256,11.1436 C8.92855,11.0316 8.94255,10.9231 8.91455,10.8181 C8.88656,10.7131 8.81657,10.6257 8.70459,10.5557 C8.60661,10.4997 8.49813,10.4892 8.37915,10.5242 C8.26017,10.5592 8.17269,10.6326 8.1167,10.7446 C8.04671,10.8426 8.03271,10.9476 8.07471,11.0596 C8.1167,11.1715 8.18669,11.2555 8.28467,11.3115 M9.43945,9.8208 C9.36947,9.93278 9.35547,10.0413 9.39746,10.1462 C9.43945,10.2512 9.50944,10.3317 9.60742,10.3877 C9.7194,10.4577 9.83138,10.4787 9.94336,10.4507 C10.0553,10.4227 10.1463,10.3527 10.2163,10.2407 C10.2723,10.1287 10.2793,10.0203 10.2373,9.91528 C10.1953,9.8103 10.1253,9.72282 10.0273,9.65283 C9.91536,9.59684 9.80339,9.58285 9.69141,9.61084 C9.57943,9.63883 9.49544,9.70882 9.43945,9.8208 M9.54443,12.0044 C9.65641,12.0744 9.76839,12.0919 9.88037,12.0569 C9.99235,12.0219 10.0763,11.9554 10.1323,11.8574 C10.2023,11.7454 10.2198,11.6335 10.1848,11.5215 C10.1498,11.4095 10.0763,11.3185 9.96436,11.2485 C9.85238,11.1925 9.7439,11.182 9.63892,11.217 C9.53394,11.252 9.44645,11.3255 9.37646,11.4375 C9.32048,11.5495 9.30648,11.658 9.33447,11.7629 C9.36247,11.8679 9.43245,11.9484 9.54443,12.0044 M4.40039,4.55078 L-0.155762,7.40625 L-0.386719,7.28027 L-0.407715,1.90527 L4.40039,4.55078 M0.411133,3.75293 C0.341146,3.86491 0.323649,3.97689 0.358643,4.08887 C0.393636,4.20085 0.467122,4.29183 0.579102,4.36182 C0.677083,4.41781 0.782064,4.4283 0.894043,4.39331 C1.00602,4.35832 1.09001,4.28483 1.146,4.17285 C1.21598,4.06087 1.23348,3.95239 1.19849,3.84741 C1.16349,3.74243 1.09701,3.66195 0.999023,3.60596 C0.887044,3.53597 0.775065,3.51847 0.663086,3.55347 C0.551107,3.58846 0.467122,3.65495 0.411133,3.75293 M0.516113,5.95752 C0.614095,6.01351 0.719076,6.02751 0.831055,5.99951 C0.943034,5.97152 1.02702,5.90153 1.08301,5.78955 C1.15299,5.67757 1.17049,5.56559 1.1355,5.45361 C1.1005,5.34163 1.03402,5.25765 0.936035,5.20166 C0.824056,5.14567 0.712077,5.13167 0.600098,5.15967 C0.488118,5.18766 0.397135,5.25765 0.327148,5.36963 C0.271159,5.48161 0.260661,5.59009 0.295654,5.69507 C0.330648,5.80005 0.404134,5.88753 0.516113,5.95752 M1.81787,5.05469 C1.92985,5.11068 2.04533,5.12118 2.16431,5.08618 C2.28328,5.05119 2.37077,4.9777 2.42676,4.86572 C2.48275,4.76774 2.49325,4.66276 2.45825,4.55078 C2.42326,4.4388 2.34977,4.35482 2.23779,4.29883 C2.12581,4.22884 2.01383,4.20785 1.90186,4.23584 C1.78988,4.26383 1.70589,4.33382 1.6499,4.4458 C1.59391,4.55778 1.58341,4.66976 1.61841,4.78174 C1.6534,4.89372 1.71989,4.9847 1.81787,5.05469 M5.11426,4.94971 L5.13525,10.3247 L0.327148,7.6792 L4.8833,4.80273 L5.11426,4.94971 M2.42676,8.07813 C2.53874,8.14811 2.64722,8.16561 2.7522,8.13062 C2.85718,8.09562 2.93766,8.02913 2.99365,7.93115 C3.06364,7.81917 3.08114,7.70719 3.04614,7.59521 C3.01115,7.48324 2.94466,7.39925 2.84668,7.34326 C2.7347,7.27327 2.62272,7.25578 2.51074,7.29077 C2.39876,7.32576 2.30778,7.39925 2.23779,7.51123 C2.1818,7.60921 2.17131,7.71419 2.2063,7.82617 C2.24129,7.93815 2.31478,8.02214 2.42676,8.07813 M4.27441,8.62402 C4.38639,8.35807 4.3234,8.15511 4.08545,8.01514 C3.98747,7.95915 3.88249,7.94865 3.77051,7.98364 C3.65853,8.01864 3.57454,8.09212 3.51855,8.2041 C3.44857,8.31608 3.43107,8.42456 3.46606,8.52954 C3.50106,8.63452 3.57454,8.71501 3.68652,8.771 C3.78451,8.84098 3.88949,8.85848 4.00146,8.82349 C4.11344,8.78849 4.20443,8.72201 4.27441,8.62402 M4.31641,7.00732 C4.38639,6.89535 4.40389,6.78687 4.3689,6.68188 C4.3339,6.5769 4.26042,6.48942 4.14844,6.41943 C4.05046,6.36344 3.94548,6.34945 3.8335,6.37744 C3.72152,6.40544 3.63053,6.47542 3.56055,6.5874 C3.50456,6.69938 3.49406,6.80786 3.52905,6.91284 C3.56405,7.01782 3.63753,7.09831 3.74951,7.1543 C3.98747,7.29427 4.17643,7.24528 4.31641,7.00732 M-1.60449,1.2334 L-6.13965,4.10986 L-6.3916,3.98389 L-6.3916,-1.39111 L-1.60449,1.2334 M-5.59375,0.456543 C-5.64974,0.568522 -5.66374,0.680501 -5.63574,0.79248 C-5.60775,0.90446 -5.54476,0.988444 -5.44678,1.04443 C-5.3348,1.11442 -5.21932,1.12842 -5.10034,1.08643 C-4.98136,1.04443 -4.89388,0.974447 -4.83789,0.876465 C-4.7819,0.764486 -4.7714,0.656006 -4.8064,0.551025 C-4.84139,0.446045 -4.91488,0.358561 -5.02686,0.288574 C-5.12484,0.232585 -5.22982,0.218587 -5.3418,0.246582 C-5.45378,0.274577 -5.53776,0.344564 -5.59375,0.456543 M-5.48877,2.64014 C-5.37679,2.71012 -5.26831,2.72762 -5.16333,2.69263 C-5.05835,2.65763 -4.97786,2.59115 -4.92188,2.49316 C-4.7819,2.22721 -4.83089,2.03125 -5.06885,1.90527 C-5.3348,1.7653 -5.53776,1.82129 -5.67773,2.07324 C-5.73372,2.17122 -5.74422,2.2762 -5.70923,2.38818 C-5.67424,2.50016 -5.60075,2.58415 -5.48877,2.64014 M-4.16602,1.7373 C-4.06803,1.80729 -3.96305,1.82129 -3.85107,1.7793 C-3.7391,1.7373 -3.65511,1.66732 -3.59912,1.56934 C-3.52913,1.45736 -3.51164,1.34888 -3.54663,1.2439 C-3.58162,1.13892 -3.64811,1.05143 -3.74609,0.981445 C-3.85807,0.925456 -3.97005,0.911458 -4.08203,0.939453 C-4.19401,0.967448 -4.27799,1.03743 -4.33398,1.14941 C-4.40397,1.2474 -4.42147,1.35588 -4.38647,1.47485 C-4.35148,1.59383 -4.27799,1.68132 -4.16602,1.7373 M10.4053,7.84717 L5.84912,10.7236 L5.59717,10.5767 L5.59717,5.20166 L10.4053,7.84717 M6.39502,7.07031 C6.33903,7.16829 6.32853,7.27677 6.36353,7.39575 C6.39852,7.51473 6.46501,7.60221 6.56299,7.6582 C6.67497,7.71419 6.78695,7.72469 6.89893,7.6897 C7.0109,7.6547 7.09489,7.58122 7.15088,7.46924 C7.20687,7.37126 7.22087,7.26628 7.19287,7.1543 C7.16488,7.04232 7.09489,6.95833 6.98291,6.90234 C6.87093,6.84635 6.75895,6.83236 6.64697,6.86035 C6.53499,6.88835 6.45101,6.95833 6.39502,7.07031 M6.5,9.25391 C6.61198,9.3099 6.72396,9.32389 6.83594,9.2959 C6.94792,9.2679 7.0319,9.20492 7.08789,9.10693 C7.15788,8.99495 7.17537,8.87948 7.14038,8.7605 C7.10539,8.64152 7.0319,8.55404 6.91992,8.49805 C6.80794,8.44206 6.69946,8.43156 6.59448,8.46655 C6.4895,8.50155 6.40202,8.57503 6.33203,8.68701 C6.27604,8.79899 6.26554,8.90747 6.30054,9.01245 C6.33553,9.11743 6.40202,9.19792 6.5,9.25391 M7.82275,8.35107 C7.93473,8.42106 8.04671,8.43506 8.15869,8.39307 C8.27067,8.35107 8.35465,8.28109 8.41064,8.18311 C8.48063,8.07113 8.49813,7.96265 8.46313,7.85767 C8.42814,7.75269 8.35465,7.6652 8.24268,7.59521 C8.1307,7.53923 8.02222,7.52523 7.91724,7.55322 C7.81226,7.58122 7.72477,7.6512 7.65479,7.76318 C7.5988,7.86117 7.5848,7.96965 7.61279,8.08862 C7.64079,8.2076 7.71077,8.29508 7.82275,8.35107 M-0.869629,1.63232 L-0.890625,7.00732 L-5.65674,4.36182 L-1.12158,1.50635 L-0.869629,1.63232 M-3.57813,4.78174 C-3.46615,4.83773 -3.35767,4.85173 -3.25269,4.82373 C-3.14771,4.79574 -3.06022,4.72575 -2.99023,4.61377 C-2.93424,4.50179 -2.92375,4.39331 -2.95874,4.28833 C-2.99373,4.18335 -3.06722,4.09587 -3.1792,4.02588 C-3.27718,3.95589 -3.37866,3.9384 -3.48364,3.97339 C-3.58862,4.00838 -3.67611,4.08187 -3.74609,4.19385 C-3.81608,4.30583 -3.83358,4.41431 -3.79858,4.51929 C-3.76359,4.62427 -3.6901,4.71175 -3.57813,4.78174 M-1.73047,5.32764 C-1.66048,5.21566 -1.64648,5.10018 -1.68848,4.9812 C-1.73047,4.86222 -1.80046,4.77474 -1.89844,4.71875 C-2.01042,4.66276 -2.1224,4.64876 -2.23438,4.67676 C-2.34635,4.70475 -2.43734,4.77474 -2.50732,4.88672 C-2.56331,4.9987 -2.57381,5.11068 -2.53882,5.22266 C-2.50382,5.33464 -2.43034,5.41862 -2.31836,5.47461 C-2.20638,5.5306 -2.0944,5.5446 -1.98242,5.5166 C-1.87044,5.48861 -1.78646,5.42562 -1.73047,5.32764 M-1.66748,3.68994 C-1.61149,3.59196 -1.60099,3.48698 -1.63599,3.375 C-1.67098,3.26302 -1.73747,3.17904 -1.83545,3.12305 C-1.94743,3.05306 -2.05941,3.03556 -2.17139,3.07056 C-2.28337,3.10555 -2.36735,3.17204 -2.42334,3.27002 C-2.56331,3.52197 -2.50033,3.71794 -2.23438,3.85791 C-2.13639,3.9139 -2.03491,3.9279 -1.92993,3.8999 C-1.82495,3.87191 -1.73747,3.80192 -1.66748,3.68994 "/>
</g>

<g fill="#53a54f" fill-opacity="1" stroke="none" transform="matrix(1,0,0,1,0,0)"
font-family="MS Shell Dlg 2" font-size="7.8" font-weight="400" font-style="normal" 
>
</g>
</g>
</svg>
