<?xml version="1.0" encoding="UTF-8" standalone="no"?>
<svg
   xmlns:dc="http://purl.org/dc/elements/1.1/"
   xmlns:cc="http://creativecommons.org/ns#"
   xmlns:rdf="http://www.w3.org/1999/02/22-rdf-syntax-ns#"
   xmlns:svg="http://www.w3.org/2000/svg"
   xmlns="http://www.w3.org/2000/svg"
   xmlns:sodipodi="http://sodipodi.sourceforge.net/DTD/sodipodi-0.dtd"
   xmlns:inkscape="http://www.inkscape.org/namespaces/inkscape"
   inkscape:version="1.0 (4035a4fb49, 2020-05-01)"
   sodipodi:docname="1618.svg"
   id="svg20"
   version="1.2"
   viewBox="0 0 42.519639 42.519639"
   height="14.999999mm"
   width="14.999999mm">
  <metadata
     id="metadata24">
    <rdf:RDF>
      <cc:Work
         rdf:about="">
        <dc:format>image/svg+xml</dc:format>
        <dc:type
           rdf:resource="http://purl.org/dc/dcmitype/StillImage" />
        <dc:title>Qt SVG Document</dc:title>
      </cc:Work>
    </rdf:RDF>
  </metadata>
  <sodipodi:namedview
     inkscape:current-layer="svg20"
     inkscape:window-maximized="0"
     inkscape:window-y="0"
     inkscape:window-x="0"
     inkscape:cy="28.346482"
     inkscape:cx="28.346482"
     inkscape:zoom="5.8410537"
     showgrid="false"
     id="namedview22"
     inkscape:window-height="480"
     inkscape:window-width="1034"
     inkscape:pageshadow="2"
     inkscape:pageopacity="0"
     guidetolerance="10"
     gridtolerance="10"
     objecttolerance="10"
     borderopacity="1"
     bordercolor="#666666"
     pagecolor="#ffffff" />
  <title
     id="title2">Qt SVG Document</title>
  <desc
     id="desc4">Generated with Qt</desc>
  <defs
     id="defs6" />
  <g
     transform="translate(5.25984,5.25984)"
     id="g18"
     stroke-linejoin="bevel"
     stroke-linecap="square"
     fill-rule="evenodd"
     stroke-width="1"
     stroke="#000000"
     fill="none">
    <g
       id="g10"
       font-style="normal"
       font-weight="400"
       font-size="7.8px"
       font-family="'MS Shell Dlg 2'"
       stroke="none"
       fill-opacity="1"
       fill="#53a54f">
      <path
         id="path8"
         d="M 37.2598,16 C 37.2598,27.7415 27.7415,37.2598 16,37.2598 4.25851,37.2598 -5.25984,27.7415 -5.25984,16 -5.25984,4.25851 4.25851,-5.25984 16,-5.25984 27.7415,-5.25984 37.2598,4.25851 37.2598,16"
         fill-rule="evenodd"
         vector-effect="non-scaling-stroke" />
    </g>
    <g
       id="g14"
       font-style="normal"
       font-weight="400"
       font-size="7.8px"
       font-family="'MS Shell Dlg 2'"
       transform="translate(16,9.19685)"
       stroke="none"
       fill-opacity="0.94902"
       fill="#ffffff">
      <path
         id="path12"
         d="m 11.6021,8.51904 0.0629,0.021 c 0,0.05599 -0.007,0.10848 -0.021,0.15747 C 11.63,8.7465 11.623,8.79199 11.623,8.83398 L 11.6021,8.51904 M -7.86133,-1.89502 c 0.028,-0.02799 0.05949,-0.06299 0.09448,-0.10498 0.035,-0.04199 0.06649,-0.07699 0.09449,-0.10498 l 0.06298,0.04199 -0.25195,0.16797 m 0.81885,-0.71387 c 0.08398,-0.05599 0.13997,-0.09098 0.16797,-0.10498 0.34993,-0.20996 0.70337,-0.36393 1.0603,-0.46191 0.35693,-0.09798 0.68587,-0.16797 0.98682,-0.20996 0.30094,-0.04199 0.56339,-0.06299 0.78735,-0.06299 0.22396,0 0.39193,0.007 0.50391,0.021 0.33593,0.02799 0.62288,0.05249 0.86084,0.07348 0.23795,0.021 0.45841,0.04199 0.66137,0.06299 0.20297,0.021 0.40593,0.04199 0.60889,0.06299 0.20296,0.02099 0.444418,0.04549 0.724366,0.07348 0.279948,0.028 0.5808919,0.007 0.902832,-0.06298 0.32194,-0.06999 0.573893,-0.26595 0.755859,-0.58789 C 1.03402,-3.93164 1.04102,-4.09261 0.999023,-4.28857 0.957031,-4.48454 0.887044,-4.691 0.789063,-4.90796 0.691081,-5.12492 0.582601,-5.33838 0.463623,-5.54834 0.344645,-5.7583 0.236165,-5.93327 0.138184,-6.07324 -0.0157878,-6.3112 -0.0227865,-6.56315 0.117188,-6.8291 l 0.188964,-0.33594 c 0.097982,-0.18197 0.244955,-0.29744 0.440918,-0.34643 0.195964,-0.049 0.37093,-0.0315 0.5249,0.05249 l 5.08106,2.79248 5.06007,2.79248 c 0.182,0.09798 0.3009,0.24145 0.3569,0.43042 0.056,0.18896 0.028,0.37443 -0.084,0.556393 l -0.1889,0.335937 c -0.14,0.265951 -0.35,0.398926 -0.6299,0.398926 -0.168,0 -0.3744,0.0035 -0.6194,0.010498 -0.245,0.006999 -0.48291,0.024496 -0.71386,0.0524905 C 9.30298,-0.0613607 9.09302,-0.0123698 8.90405,0.0576172 8.71509,0.127604 8.58561,0.225586 8.51563,0.351563 8.34766,0.659505 8.31616,0.974447 8.42114,1.29639 8.52612,1.61833 8.6626,1.87728 8.83057,2.07324 9.01253,2.2972 9.1665,2.49316 9.29248,2.66113 9.41846,2.8291 9.54443,2.99357 9.67041,3.15454 c 0.12598,0.16097 0.26245,0.33594 0.40939,0.5249 0.147,0.18897 0.3185,0.41643 0.5144,0.68238 0.056,0.08398 0.1505,0.22046 0.2835,0.40942 0.133,0.18897 0.2624,0.41992 0.3884,0.69287 0.126,0.27295 0.238,0.58789 0.336,0.94483 C 11.7,6.76587 11.756,7.1473 11.77,7.55322 11.756,7.58122 11.7525,7.61271 11.7595,7.64771 11.7665,7.6827 11.763,7.71419 11.749,7.74219 L -0.617676,0.918457 -6.64355,-2.39893 -7.04248,-2.60889 M 9.1665,13.4111 C 8.74658,13.859 8.32666,14.279 7.90674,14.6709 7.29085,15.2448 6.60498,15.8117 5.84912,16.3716 5.20524,16.8475 4.44588,17.3479 3.57104,17.8728 2.69621,18.3977 1.75488,18.8491 0.74707,19.2271 0.397135,19.353 -0.0297852,19.4965 -0.533691,19.6575 -1.0376,19.8184 -1.5695,19.9689 -2.12939,20.1089 c -0.37793,0.098 -0.74887,0.1925 -1.1128,0.2834 -0.36393,0.091 -0.75586,0.1645 -1.17578,0.2205 -0.41992,0.056 -0.88533,0.0945 -1.39624,0.1155 -0.5109,0.021 -1.10929,0.0035 -1.79517,-0.0525 -0.40592,-0.5459 -0.74186,-1.0393 -1.00781,-1.4802 -0.26595,-0.441 -0.48641,-0.8574 -0.66137,-1.2493 -0.17497,-0.3919 -0.31845,-0.7664 -0.43042,-1.1233 -0.11198,-0.3569 -0.23096,-0.7174 -0.35692,-1.0813 -0.182,-0.5459 -0.336,-1.0743 -0.4619,-1.5852 -0.126,-0.5109 -0.231,-0.9483 -0.315,-1.3123 -0.2379,-1.0638 -0.3674,-2.1031 -0.3884,-3.11788 -0.021,-1.01481 -0.0035,-1.92114 0.0525,-2.719 0.056,-0.93782 0.168,-1.81966 0.3359,-2.6455 0.07,-0.27995 0.1365,-0.5669 0.1995,-0.86084 0.063,-0.29395 0.1365,-0.58789 0.2204,-0.88184 l 3.80034,2.09961 6.004884,3.29639 5.983886,3.29636 3.80029,2.0996 M -6.87451,3.71094 -10.1919,1.88428 c 0.26596,-0.895836 0.67188,-1.728681 1.21778,-2.498538 l 1.86865,-1.175782 0.23096,0.12598 v 5.375 m -2.58252,-2.1626 c 0.11198,0.05599 0.22046,0.06649 0.32544,0.03149 C -9.02661,1.54484 -8.94613,1.47835 -8.89014,1.38037 -8.75016,1.11442 -8.79915,0.918457 -9.03711,0.79248 -9.28906,0.652507 -9.48503,0.715495 -9.625,0.981445 -9.68099,1.07943 -9.69499,1.18091 -9.66699,1.28589 -9.639,1.39087 -9.56901,1.47835 -9.45703,1.54834 M -8.30225,0.0576172 C -8.35824,0.169596 -8.36873,0.274577 -8.33374,0.372559 c 0.03499,0.097981 0.10148,0.181966 0.19946,0.251953 0.11198,0.055989 0.22046,0.069987 0.32544,0.041992 0.10498,-0.027995 0.18547,-0.097982 0.24146,-0.209961 0.06998,-0.111979 0.09098,-0.220459 0.06299,-0.325439 -0.028,-0.104981 -0.09799,-0.185466 -0.20997,-0.241456 -0.11197,-0.069987 -0.22045,-0.087483 -0.32543,-0.05249 -0.10499,0.034994 -0.19247,0.10848 -0.26246,0.2204592 M -8.19727,2.24121 c 0.11198,0.05599 0.22046,0.06649 0.32544,0.0315 0.10498,-0.035 0.18547,-0.10149 0.24146,-0.19947 C -7.4904,1.80729 -7.53939,1.61133 -7.77734,1.48535 -7.88932,1.41536 -7.9978,1.39787 -8.10278,1.43286 c -0.10498,0.03499 -0.19247,0.10848 -0.26245,0.22046 -0.05599,0.11198 -0.06999,0.22046 -0.042,0.32544 0.028,0.10498 0.09799,0.19246 0.20996,0.26245 M 11.1191,10.4507 c -0.1959,0.4479 -0.4164,0.8643 -0.6613,1.2493 -0.245,0.3849 -0.50744,0.7593 -0.78739,1.1232 L 6.35303,10.9966 10.8882,8.12012 11.1191,8.24609 v 2.20461 m -2.83443,0.8608 c 0.11198,0.07 0.22046,0.0875 0.32544,0.0525 0.10498,-0.035 0.19246,-0.1085 0.26245,-0.2204 0.05599,-0.112 0.06999,-0.2205 0.04199,-0.3255 -0.02799,-0.105 -0.09798,-0.1924 -0.20996,-0.2624 -0.09798,-0.056 -0.20646,-0.0665 -0.32544,-0.0315 -0.11898,0.035 -0.20646,0.1084 -0.26245,0.2204 -0.06999,0.098 -0.08399,0.203 -0.04199,0.315 0.04199,0.1119 0.11198,0.1959 0.20996,0.2519 M 9.43945,9.8208 c -0.06998,0.11198 -0.08398,0.2205 -0.04199,0.3254 0.04199,0.105 0.11198,0.1855 0.20996,0.2415 0.11198,0.07 0.22396,0.091 0.33594,0.063 0.11194,-0.028 0.20294,-0.098 0.27294,-0.21 0.056,-0.112 0.063,-0.2204 0.021,-0.32542 C 10.1953,9.8103 10.1253,9.72282 10.0273,9.65283 9.91536,9.59684 9.80339,9.58285 9.69141,9.61084 9.57943,9.63883 9.49544,9.70882 9.43945,9.8208 m 0.10498,2.1836 c 0.11198,0.07 0.22396,0.0875 0.33594,0.0525 0.11198,-0.035 0.19593,-0.1015 0.25193,-0.1995 0.07,-0.112 0.0875,-0.2239 0.0525,-0.3359 -0.035,-0.112 -0.1085,-0.203 -0.22044,-0.273 C 9.85238,11.1925 9.7439,11.182 9.63892,11.217 c -0.10498,0.035 -0.19247,0.1085 -0.26246,0.2205 -0.05598,0.112 -0.06998,0.2205 -0.04199,0.3254 0.028,0.105 0.09798,0.1855 0.20996,0.2415 M 4.40039,4.55078 -0.155762,7.40625 -0.386719,7.28027 -0.407715,1.90527 4.40039,4.55078 M 0.411133,3.75293 C 0.341146,3.86491 0.323649,3.97689 0.358643,4.08887 0.393636,4.20085 0.467122,4.29183 0.579102,4.36182 0.677083,4.41781 0.782064,4.4283 0.894043,4.39331 1.00602,4.35832 1.09001,4.28483 1.146,4.17285 1.21598,4.06087 1.23348,3.95239 1.19849,3.84741 1.16349,3.74243 1.09701,3.66195 0.999023,3.60596 0.887044,3.53597 0.775065,3.51847 0.663086,3.55347 0.551107,3.58846 0.467122,3.65495 0.411133,3.75293 m 0.10498,2.20459 C 0.614095,6.01351 0.719076,6.02751 0.831055,5.99951 0.943034,5.97152 1.02702,5.90153 1.08301,5.78955 1.15299,5.67757 1.17049,5.56559 1.1355,5.45361 1.1005,5.34163 1.03402,5.25765 0.936035,5.20166 0.824056,5.14567 0.712077,5.13167 0.600098,5.15967 0.488118,5.18766 0.397135,5.25765 0.327148,5.36963 0.271159,5.48161 0.260661,5.59009 0.295654,5.69507 0.330648,5.80005 0.404134,5.88753 0.516113,5.95752 M 1.81787,5.05469 C 1.92985,5.11068 2.04533,5.12118 2.16431,5.08618 2.28328,5.05119 2.37077,4.9777 2.42676,4.86572 2.48275,4.76774 2.49325,4.66276 2.45825,4.55078 2.42326,4.4388 2.34977,4.35482 2.23779,4.29883 2.12581,4.22884 2.01383,4.20785 1.90186,4.23584 1.78988,4.26383 1.70589,4.33382 1.6499,4.4458 1.59391,4.55778 1.58341,4.66976 1.61841,4.78174 1.6534,4.89372 1.71989,4.9847 1.81787,5.05469 M 5.11426,4.94971 5.13525,10.3247 0.327148,7.6792 4.8833,4.80273 5.11426,4.94971 M 2.42676,8.07813 C 2.53874,8.14811 2.64722,8.16561 2.7522,8.13062 2.85718,8.09562 2.93766,8.02913 2.99365,7.93115 3.06364,7.81917 3.08114,7.70719 3.04614,7.59521 3.01115,7.48324 2.94466,7.39925 2.84668,7.34326 2.7347,7.27327 2.62272,7.25578 2.51074,7.29077 2.39876,7.32576 2.30778,7.39925 2.23779,7.51123 2.1818,7.60921 2.17131,7.71419 2.2063,7.82617 2.24129,7.93815 2.31478,8.02214 2.42676,8.07813 M 4.27441,8.62402 C 4.38639,8.35807 4.3234,8.15511 4.08545,8.01514 3.98747,7.95915 3.88249,7.94865 3.77051,7.98364 3.65853,8.01864 3.57454,8.09212 3.51855,8.2041 3.44857,8.31608 3.43107,8.42456 3.46606,8.52954 3.50106,8.63452 3.57454,8.71501 3.68652,8.771 3.78451,8.84098 3.88949,8.85848 4.00146,8.82349 4.11344,8.78849 4.20443,8.72201 4.27441,8.62402 m 0.042,-1.6167 C 4.38639,6.89535 4.40389,6.78687 4.3689,6.68188 4.3339,6.5769 4.26042,6.48942 4.14844,6.41943 4.05046,6.36344 3.94548,6.34945 3.8335,6.37744 3.72152,6.40544 3.63053,6.47542 3.56055,6.5874 3.50456,6.69938 3.49406,6.80786 3.52905,6.91284 3.56405,7.01782 3.63753,7.09831 3.74951,7.1543 3.98747,7.29427 4.17643,7.24528 4.31641,7.00732 M -1.60449,1.2334 -6.13965,4.10986 -6.3916,3.98389 v -5.375 L -1.60449,1.2334 M -5.59375,0.456543 c -0.05599,0.111979 -0.06999,0.223958 -0.04199,0.335937 0.02799,0.11198 0.09098,0.195964 0.18896,0.25195 0.11198,0.06999 0.22746,0.08399 0.34644,0.042 0.11898,-0.042 0.20646,-0.111983 0.26245,-0.209965 C -4.7819,0.764486 -4.7714,0.656006 -4.8064,0.551025 -4.84139,0.446045 -4.91488,0.358561 -5.02686,0.288574 -5.12484,0.232585 -5.22982,0.218587 -5.3418,0.246582 -5.45378,0.274577 -5.53776,0.344564 -5.59375,0.456543 m 0.10498,2.183597 c 0.11198,0.06998 0.22046,0.08748 0.32544,0.05249 0.10498,-0.035 0.18547,-0.10148 0.24145,-0.19947 C -4.7819,2.22721 -4.83089,2.03125 -5.06885,1.90527 -5.3348,1.7653 -5.53776,1.82129 -5.67773,2.07324 c -0.05599,0.09798 -0.06649,0.20296 -0.0315,0.31494 0.03499,0.11198 0.10848,0.19597 0.22046,0.25196 M -4.16602,1.7373 c 0.09799,0.06999 0.20297,0.08399 0.31495,0.042 C -3.7391,1.7373 -3.65511,1.66732 -3.59912,1.56934 -3.52913,1.45736 -3.51164,1.34888 -3.54663,1.2439 -3.58162,1.13892 -3.64811,1.05143 -3.74609,0.981445 -3.85807,0.925456 -3.97005,0.911458 -4.08203,0.939453 -4.19401,0.967448 -4.27799,1.03743 -4.33398,1.14941 -4.40397,1.2474 -4.42147,1.35588 -4.38647,1.47485 -4.35148,1.59383 -4.27799,1.68132 -4.16602,1.7373 M 10.4053,7.84717 5.84912,10.7236 5.59717,10.5767 V 5.20166 L 10.4053,7.84717 M 6.39502,7.07031 C 6.33903,7.16829 6.32853,7.27677 6.36353,7.39575 6.39852,7.51473 6.46501,7.60221 6.56299,7.6582 6.67497,7.71419 6.78695,7.72469 6.89893,7.6897 7.0109,7.6547 7.09489,7.58122 7.15088,7.46924 7.20687,7.37126 7.22087,7.26628 7.19287,7.1543 7.16488,7.04232 7.09489,6.95833 6.98291,6.90234 6.87093,6.84635 6.75895,6.83236 6.64697,6.86035 6.53499,6.88835 6.45101,6.95833 6.39502,7.07031 M 6.5,9.25391 C 6.61198,9.3099 6.72396,9.32389 6.83594,9.2959 6.94792,9.2679 7.0319,9.20492 7.08789,9.10693 7.15788,8.99495 7.17537,8.87948 7.14038,8.7605 7.10539,8.64152 7.0319,8.55404 6.91992,8.49805 6.80794,8.44206 6.69946,8.43156 6.59448,8.46655 6.4895,8.50155 6.40202,8.57503 6.33203,8.68701 6.27604,8.79899 6.26554,8.90747 6.30054,9.01245 6.33553,9.11743 6.40202,9.19792 6.5,9.25391 M 7.82275,8.35107 C 7.93473,8.42106 8.04671,8.43506 8.15869,8.39307 8.27067,8.35107 8.35465,8.28109 8.41064,8.18311 8.48063,8.07113 8.49813,7.96265 8.46313,7.85767 8.42814,7.75269 8.35465,7.6652 8.24268,7.59521 8.1307,7.53923 8.02222,7.52523 7.91724,7.55322 7.81226,7.58122 7.72477,7.6512 7.65479,7.76318 7.5988,7.86117 7.5848,7.96965 7.61279,8.08862 7.64079,8.2076 7.71077,8.29508 7.82275,8.35107 m -8.692379,-6.71875 -0.020996,5.375 -4.766115,-2.6455 4.53516,-2.85547 0.251951,0.12597 M -3.57813,4.78174 c 0.11198,0.05599 0.22046,0.06999 0.32544,0.04199 C -3.14771,4.79574 -3.06022,4.72575 -2.99023,4.61377 -2.93424,4.50179 -2.92375,4.39331 -2.95874,4.28833 -2.99373,4.18335 -3.06722,4.09587 -3.1792,4.02588 -3.27718,3.95589 -3.37866,3.9384 -3.48364,3.97339 c -0.10498,0.03499 -0.19247,0.10848 -0.26245,0.22046 -0.06999,0.11198 -0.08749,0.22046 -0.05249,0.32544 0.03499,0.10498 0.10848,0.19246 0.22045,0.26245 m 1.84766,0.5459 C -1.66048,5.21566 -1.64648,5.10018 -1.68848,4.9812 -1.73047,4.86222 -1.80046,4.77474 -1.89844,4.71875 -2.01042,4.66276 -2.1224,4.64876 -2.23438,4.67676 c -0.11197,0.02799 -0.20296,0.09798 -0.27294,0.20996 -0.05599,0.11198 -0.06649,0.22396 -0.0315,0.33594 0.035,0.11198 0.10848,0.19596 0.22046,0.25195 0.11198,0.05599 0.22396,0.06999 0.33594,0.04199 0.11198,-0.02799 0.19596,-0.09098 0.25195,-0.18896 m 0.06299,-1.6377 C -1.61149,3.59196 -1.60099,3.48698 -1.63599,3.375 -1.67098,3.26302 -1.73747,3.17904 -1.83545,3.12305 -1.94743,3.05306 -2.05941,3.03556 -2.17139,3.07056 -2.28337,3.10555 -2.36735,3.17204 -2.42334,3.27002 -2.56331,3.52197 -2.50033,3.71794 -2.23438,3.85791 -2.13639,3.9139 -2.03491,3.9279 -1.92993,3.8999 -1.82495,3.87191 -1.73747,3.80192 -1.66748,3.68994"
         fill-rule="evenodd"
         vector-effect="none" />
    </g>
    <g
       id="g16"
       font-style="normal"
       font-weight="400"
       font-size="7.8px"
       font-family="'MS Shell Dlg 2'"
       stroke="none"
       fill-opacity="1"
       fill="#53a54f" />
  </g>
</svg>
