<svg xmlns="http://www.w3.org/2000/svg" version="1.2" viewBox="0 0 42.52 42.52" height="56.693" width="56.693">
   <g stroke-linejoin="bevel" stroke-linecap="square" fill-rule="evenodd" stroke="none" fill="none" font-weight="400"
      font-size="7.8" font-family="'MS Shell Dlg 2'">
      <path
         d="M42.52 21.26C42.52 33 33 42.52 21.26 42.52 9.518 42.52 0 33 0 21.26 0 9.518 9.518 0 21.26 0 33 0 42.52 9.518 42.52 21.26"
         vector-effect="non-scaling-stroke" fill="#53a54f" />
      <path
         d="M32.862 22.976l.063.02a.57.57 0 01-.021.158.499.499 0 00-.021.137l-.021-.315M13.399 12.562c.028-.028.059-.063.094-.105.035-.042.066-.077.094-.105l.063.042-.251.168m.818-.714a4.245 4.245 0 011.228-.567c.358-.098.687-.168.987-.21.301-.042.564-.063.788-.063.224 0 .392.007.504.021l.86.073c.239.021.459.042.662.063l.609.063.724.074c.28.028.581.007.903-.063.322-.07.574-.266.756-.588.056-.126.063-.287.02-.483a3.083 3.083 0 00-.21-.62 7.862 7.862 0 00-.65-1.165c-.154-.238-.16-.49-.021-.755l.189-.336a.666.666 0 01.44-.347.704.704 0 01.526.053l5.08 2.792 5.06 2.793c.183.098.302.241.358.43a.662.662 0 01-.084.556l-.19.336c-.14.266-.35.4-.629.4-.168 0-.374.003-.62.01a7.777 7.777 0 00-.713.052 2.77 2.77 0 00-.63.147c-.19.07-.319.168-.389.294-.167.308-.199.623-.094.945.105.322.241.581.41.777.181.224.335.42.461.588.126.168.252.332.378.493l.41.525c.147.19.318.417.514.683.056.083.15.22.284.409.133.189.262.42.388.693.126.273.238.588.336.945.098.357.154.738.168 1.144a.143.143 0 00-.01.094.143.143 0 01-.011.095l-12.367-6.824-6.026-3.317-.399-.21m16.21 16.02c-.42.448-.84.868-1.26 1.26a23.763 23.763 0 01-2.058 1.7c-.644.476-1.403.977-2.278 1.501-.875.525-1.816.977-2.824 1.355-.35.126-.777.27-1.28.43-.505.161-1.037.312-1.597.452-.377.098-.748.192-1.112.283-.364.091-.756.164-1.176.22-.42.056-.885.095-1.396.116-.511.021-1.11.003-1.796-.053a18.803 18.803 0 01-1.007-1.48 11.582 11.582 0 01-.662-1.249 10.413 10.413 0 01-.43-1.123 39.003 39.003 0 00-.357-1.082 20.619 20.619 0 01-.462-1.585c-.126-.51-.231-.948-.315-1.312a15.766 15.766 0 01-.388-3.118 30.278 30.278 0 01.052-2.719c.056-.938.168-1.82.336-2.645.07-.28.137-.567.2-.861.063-.294.136-.588.22-.882l3.8 2.1 6.005 3.296 5.984 3.296 3.8 2.1m-16.04-9.7l-3.318-1.827a8.45 8.45 0 011.218-2.499l1.868-1.175.231.126v5.375m-2.582-2.163c.112.056.22.067.325.032a.425.425 0 00.242-.2c.14-.266.09-.462-.147-.588-.252-.14-.448-.077-.588.19a.39.39 0 00-.042.304.446.446 0 00.21.262m1.155-1.49a.39.39 0 00-.032.314.527.527 0 00.2.252.45.45 0 00.325.042.375.375 0 00.241-.21.403.403 0 00.063-.325.375.375 0 00-.21-.242c-.111-.07-.22-.087-.325-.052a.495.495 0 00-.262.22m.105 2.184c.112.056.22.066.325.031a.425.425 0 00.241-.2c.14-.265.091-.461-.147-.587-.111-.07-.22-.087-.325-.052a.495.495 0 00-.262.22.45.45 0 00-.042.325.446.446 0 00.21.263m19.316 8.21a9.168 9.168 0 01-.661 1.249c-.245.385-.508.759-.788 1.123l-3.317-1.827 4.535-2.876.23.126v2.204m-2.833.861c.111.07.22.088.325.053a.495.495 0 00.262-.22.45.45 0 00.042-.326.446.446 0 00-.21-.263.402.402 0 00-.325-.031.412.412 0 00-.262.22.32.32 0 00-.042.315.47.47 0 00.21.252m1.154-1.49c-.07.111-.084.22-.042.325a.473.473 0 00.21.241c.112.07.224.091.336.063a.446.446 0 00.273-.21.382.382 0 00.021-.325.586.586 0 00-.21-.262.474.474 0 00-.336-.042.376.376 0 00-.252.21m.105 2.183a.39.39 0 00.336.053.425.425 0 00.252-.2.39.39 0 00.053-.336.492.492 0 00-.22-.273.413.413 0 00-.326-.031.495.495 0 00-.263.22.45.45 0 00-.042.326.375.375 0 00.21.241m-5.144-7.454l-4.556 2.856-.23-.126-.022-5.375 4.808 2.645m-3.989-.797a.39.39 0 00-.053.336.491.491 0 00.22.273.412.412 0 00.567-.189c.07-.112.088-.22.053-.326a.425.425 0 00-.2-.241.39.39 0 00-.335-.053.425.425 0 00-.252.2m.105 2.204c.098.056.203.07.315.042a.376.376 0 00.252-.21.39.39 0 00.052-.336.425.425 0 00-.2-.252.446.446 0 00-.609.168.413.413 0 00-.03.326.495.495 0 00.22.262m1.302-.903a.46.46 0 00.346.032.412.412 0 00.263-.22.412.412 0 00-.189-.567.422.422 0 00-.336-.063.376.376 0 00-.252.21.436.436 0 00-.032.335.518.518 0 00.2.273m3.296-.105l.021 5.375-4.808-2.645 4.556-2.877.231.147m-2.687 3.129c.112.07.22.087.325.052a.425.425 0 00.241-.2.39.39 0 00.053-.335.425.425 0 00-.2-.252.39.39 0 00-.335-.053.491.491 0 00-.273.22.412.412 0 00.189.567m1.847.547c.112-.266.05-.47-.189-.61a.412.412 0 00-.567.189c-.07.113-.087.221-.052.326a.413.413 0 00.22.242.34.34 0 00.315.052.518.518 0 00.273-.2m.042-1.616c.07-.112.088-.22.053-.325a.495.495 0 00-.22-.263.411.411 0 00-.316-.042.446.446 0 00-.273.21.413.413 0 00-.031.326.413.413 0 00.22.241c.238.14.427.091.567-.147m-5.92-5.774l-4.536 2.877-.252-.126v-5.375l4.787 2.624m-3.989-.777a.474.474 0 00-.042.336.386.386 0 00.19.252c.111.07.227.084.346.042a.468.468 0 00.262-.21.413.413 0 00.031-.325.495.495 0 00-.22-.263.411.411 0 00-.315-.042.376.376 0 00-.252.21m.105 2.184c.112.07.22.087.326.052a.425.425 0 00.241-.2c.14-.265.09-.461-.147-.587-.266-.14-.469-.084-.609.168a.412.412 0 00.189.567m1.323-.903a.32.32 0 00.315.042.47.47 0 00.252-.21c.07-.112.087-.22.052-.325a.521.521 0 00-.2-.263.474.474 0 00-.335-.042.376.376 0 00-.252.21.359.359 0 00-.053.326.412.412 0 00.22.262m14.572 6.11L27.11 25.18l-.252-.147v-5.375l4.808 2.646m-4.01-.777a.402.402 0 00-.032.325.427.427 0 00.2.263.436.436 0 00.336.031.412.412 0 00.252-.22.411.411 0 00.042-.315.376.376 0 00-.21-.252.474.474 0 00-.336-.042.376.376 0 00-.252.21m.105 2.184c.112.056.224.07.336.042a.386.386 0 00.252-.19.41.41 0 00.052-.346.412.412 0 00-.22-.262.413.413 0 00-.326-.032.495.495 0 00-.262.22.413.413 0 00-.032.326.425.425 0 00.2.242m1.323-.903c.112.07.224.084.336.042a.47.47 0 00.251-.21c.07-.112.088-.22.053-.326a.495.495 0 00-.22-.262.45.45 0 00-.326-.042.446.446 0 00-.304.535.379.379 0 00.21.263m-8.693-6.719l-.02 5.375-4.767-2.645 4.535-2.856.252.126m-2.708 3.15a.45.45 0 00.325.041.446.446 0 00.263-.21.413.413 0 00.031-.325.495.495 0 00-.22-.262.323.323 0 00-.305-.053.495.495 0 00-.262.22c-.07.113-.088.221-.053.326a.495.495 0 00.22.262m1.848.546a.383.383 0 00.042-.346.468.468 0 00-.21-.263.446.446 0 00-.609.168.436.436 0 00-.031.336.412.412 0 00.22.252c.112.056.224.07.336.042a.386.386 0 00.252-.189m.063-1.637a.38.38 0 00.032-.315.425.425 0 00-.2-.252.39.39 0 00-.336-.053.425.425 0 00-.251.2c-.14.252-.077.448.188.588.098.056.2.07.305.042a.446.446 0 00.262-.21"
         fill-opacity=".949" fill="#fff" />
   </g>
</svg>