<svg xmlns="http://www.w3.org/2000/svg" version="1.2" viewBox="0 0 42.52 42.52" height="56.693" width="56.693">
   <g stroke-linejoin="bevel" stroke-linecap="square" fill-rule="evenodd" stroke="none" fill="none" font-weight="400"
      font-size="7.8" font-family="'MS Shell Dlg 2'">
      <path
         d="M42.52 21.26C42.52 33 33 42.52 21.26 42.52 9.518 42.52 0 33 0 21.26 0 9.518 9.518 0 21.26 0 33 0 42.52 9.518 42.52 21.26"
         vector-effect="non-scaling-stroke" fill="#66b1e3" />
      <path
         d="M26.122 16.74c0 .98-.259 1.858-.777 2.635a4.629 4.629 0 01-2.015 1.711h.126c.168.896.182 1.645.042 2.247-.14.602-.36 1.116-.662 1.543-.3.427-.65.791-1.05 1.092-.398.3-.787.588-1.165.86-.378.274-.686.56-.924.862-.238.3-.357.668-.357 1.102 0 .308.056.584.168.83.112.244.256.475.43.692.176.217.354.448.536.693.182.245.343.507.483.787.322.63.462 1.418.42 2.362-.042.945-.406 1.978-1.092 3.097.42-1.203.525-2.25.315-3.139-.21-.888-.532-1.662-.966-2.32a13.828 13.828 0 00-1.312-1.71c-.44-.484-.661-.9-.661-1.25-.028-.518.007-.948.105-1.291.098-.343.234-.637.41-.882.174-.245.367-.462.577-.651.21-.189.42-.367.63-.535.335-.308.64-.599.913-.872s.437-.574.493-.903c.056-.329-.028-.703-.252-1.123-.224-.42-.672-.917-1.344-1.49 0-.029-.007-.043-.02-.043-.015 0-.022-.014-.022-.042a4.82 4.82 0 01-1.89-1.732 4.586 4.586 0 01-.734-2.53c0-.658.13-1.28.388-1.868a4.856 4.856 0 011.04-1.523 4.847 4.847 0 011.511-1.007 4.657 4.657 0 011.848-.368 4.81 4.81 0 013.39 1.375c.428.427.77.935 1.03 1.523.259.587.388 1.21.388 1.868"
         fill="#fff" />
   </g>
</svg>