<svg xmlns="http://www.w3.org/2000/svg" version="1.2" viewBox="0 0 42.52 42.52" height="56.693" width="56.693">
   <g stroke-linejoin="bevel" stroke-linecap="square" fill-rule="evenodd" stroke="none" fill="none" font-weight="400"
      font-size="7.8" font-family="'MS Shell Dlg 2'">
      <path
         d="M42.52 21.26C42.52 33 33 42.52 21.26 42.52 9.518 42.52 0 33 0 21.26 0 9.518 9.518 0 21.26 0 33 0 42.52 9.518 42.52 21.26"
         vector-effect="non-scaling-stroke" fill="#66b1e3" />
      <path
         d="M23.036 19.995c-.434-.378-.882-.378-1.344 0-.14.14-.28.21-.42.21-.112 0-.245-.07-.399-.21-.476-.406-.93-.406-1.365 0-.322.322-.609.322-.86 0-.266-.168-.497-.252-.693-.252a.927.927 0 00-.651.252c-.308.322-.61.322-.903 0-.42-.378-.86-.378-1.323 0L16.8 31.983c.252.182.623.343 1.113.483.168.056.367.105.598.147.231.042.493.091.787.147.532.084 1.204.126 2.016.126.742 0 1.4-.042 1.974-.126.28-.056.535-.105.766-.147.231-.042.437-.09.62-.147.447-.112.804-.273 1.07-.483l1.764-11.988c-.462-.378-.924-.378-1.386 0-.308.322-.595.322-.86 0-.225-.168-.442-.252-.652-.252-.252 0-.475.084-.671.252-.322.322-.623.322-.903 0m-9.847-5.627c.363.196.86.378 1.49.546l1.995.398c.714.112 1.47.196 2.267.252.406.028.802.042 1.187.042h2.341c.378 0 .763-.014 1.155-.042a26.61 26.61 0 002.288-.252l1.932-.398c.322-.112.609-.21.86-.294.253-.084.484-.168.694-.252l-3.024 19.568c0 .14-.14.266-.42.378-.196.112-.567.21-1.113.294a51.907 51.907 0 01-1.637.168c-.322.042-.64.07-.956.084a21.039 21.039 0 01-1.931 0 10.293 10.293 0 01-.935-.084c-.322-.028-.619-.056-.892-.084a34.11 34.11 0 01-.745-.084c-.602-.084-.987-.182-1.155-.294-.294-.112-.441-.238-.441-.378l-2.96-19.568m8.125-3.444c1.12 0 2.19.042 3.212.126a96.317 96.317 0 012.625.336c.35.056.675.123.976.2.301.077.564.171.788.283.434.168.65.357.65.567v.126c-.14.14-.398.294-.776.462-.406.168-.966.343-1.68.525-.336.084-.714.154-1.134.21-.42.056-.875.112-1.365.168-.475.056-.986.098-1.532.126-.546.028-1.134.042-1.764.042-.63 0-1.225-.014-1.785-.042-.56-.028-1.084-.07-1.574-.126-.49-.056-.949-.112-1.376-.168a11.328 11.328 0 01-1.165-.21c-.658-.14-1.204-.315-1.638-.525-.42-.168-.671-.322-.755-.462v-.126c0-.21.21-.399.63-.567.237-.112.507-.206.808-.283.3-.077.62-.144.955-.2a59.94 59.94 0 011.228-.168c.441-.056.907-.112 1.397-.168a40.586 40.586 0 013.275-.126"
         fill-opacity=".949" fill="#fff" />
   </g>
</svg>