<?xml version="1.0" encoding="UTF-8" standalone="no"?>
<svg
   xmlns:dc="http://purl.org/dc/elements/1.1/"
   xmlns:cc="http://creativecommons.org/ns#"
   xmlns:rdf="http://www.w3.org/1999/02/22-rdf-syntax-ns#"
   xmlns:svg="http://www.w3.org/2000/svg"
   xmlns="http://www.w3.org/2000/svg"
   xmlns:sodipodi="http://sodipodi.sourceforge.net/DTD/sodipodi-0.dtd"
   xmlns:inkscape="http://www.inkscape.org/namespaces/inkscape"
   inkscape:version="1.0 (4035a4fb49, 2020-05-01)"
   sodipodi:docname="1702.svg"
   id="svg20"
   version="1.2"
   viewBox="0 0 42.519639 42.519639"
   height="14.999999mm"
   width="14.999999mm">
  <metadata
     id="metadata24">
    <rdf:RDF>
      <cc:Work
         rdf:about="">
        <dc:format>image/svg+xml</dc:format>
        <dc:type
           rdf:resource="http://purl.org/dc/dcmitype/StillImage" />
        <dc:title>Qt SVG Document</dc:title>
      </cc:Work>
    </rdf:RDF>
  </metadata>
  <sodipodi:namedview
     inkscape:current-layer="svg20"
     inkscape:window-maximized="0"
     inkscape:window-y="0"
     inkscape:window-x="0"
     inkscape:cy="28.346482"
     inkscape:cx="28.346482"
     inkscape:zoom="5.8410537"
     showgrid="false"
     id="namedview22"
     inkscape:window-height="480"
     inkscape:window-width="1034"
     inkscape:pageshadow="2"
     inkscape:pageopacity="0"
     guidetolerance="10"
     gridtolerance="10"
     objecttolerance="10"
     borderopacity="1"
     bordercolor="#666666"
     pagecolor="#ffffff" />
  <title
     id="title2">Qt SVG Document</title>
  <desc
     id="desc4">Generated with Qt</desc>
  <defs
     id="defs6" />
  <g
     transform="translate(5.25984,5.25984)"
     id="g18"
     stroke-linejoin="bevel"
     stroke-linecap="square"
     fill-rule="evenodd"
     stroke-width="1"
     stroke="#000000"
     fill="none">
    <g
       id="g10"
       font-style="normal"
       font-weight="400"
       font-size="7.8px"
       font-family="'MS Shell Dlg 2'"
       stroke="none"
       fill-opacity="1"
       fill="#66b1e3">
      <path
         id="path8"
         d="M 37.2598,16 C 37.2598,27.7415 27.7415,37.2598 16,37.2598 4.25851,37.2598 -5.25984,27.7415 -5.25984,16 -5.25984,4.25851 4.25851,-5.25984 16,-5.25984 27.7415,-5.25984 37.2598,4.25851 37.2598,16"
         fill-rule="evenodd"
         vector-effect="non-scaling-stroke" />
    </g>
    <g
       id="g14"
       font-style="normal"
       font-weight="400"
       font-size="7.8px"
       font-family="'MS Shell Dlg 2'"
       transform="translate(16,13.1654)"
       stroke="none"
       fill-opacity="0.94902"
       fill="#ffffff">
      <path
         id="path12"
         d="M 1.77588,1.56934 C 1.34196,1.19141 0.894043,1.19141 0.432129,1.56934 0.292155,1.70931 0.152181,1.7793 0.012207,1.7793 c -0.1119791,0 -0.244954,-0.06999 -0.398926,-0.20996 -0.475911,-0.40593 -0.930831,-0.40593 -1.364741,0 -0.32194,0.32194 -0.60889,0.32194 -0.86084,0 -0.26596,-0.16797 -0.49691,-0.25196 -0.69288,-0.25196 -0.25195,0 -0.46891,0.08399 -0.65087,0.25196 -0.30795,0.32194 -0.60889,0.32194 -0.90284,0 -0.41992,-0.37793 -0.86084,-0.37793 -1.32275,0 l 1.72168,11.98876 c 0.25195,0.182 0.62288,0.3429 1.11279,0.4829 0.16797,0.056 0.36743,0.105 0.59839,0.147 0.23096,0.042 0.49341,0.091 0.78735,0.147 0.53191,0.0839 1.20378,0.1259 2.0156292,0.1259 0.7418618,0 1.3997408,-0.042 1.9736308,-0.1259 0.27995,-0.056 0.5354,-0.105 0.76636,-0.147 0.23096,-0.042 0.43742,-0.091 0.61938,-0.147 0.44792,-0.112 0.80485,-0.2729 1.07081,-0.4829 L 6.24805,1.56934 c -0.46192,-0.37793 -0.92383,-0.37793 -1.38575,0 -0.30794,0.32194 -0.59488,0.32194 -0.86084,0 C 3.77751,1.40137 3.56055,1.31738 3.35059,1.31738 c -0.25196,0 -0.47592,0.08399 -0.67188,0.25196 -0.32194,0.32194 -0.62288,0.32194 -0.90283,0 m -9.84717,-5.62696 c 0.36393,0.19597 0.86084,0.37793 1.49072,0.5459 l 1.99463,0.39893 c 0.71387,0.11198 1.46973,0.19596 2.26758,0.25195 0.40593,0.02799 0.80135,0.04199 1.18628,0.04199 0.384928,0 0.780355,0 1.1862792,0 0.3919268,0 0.7768558,0 1.1547808,0 0.37793,0 0.76286,-0.014 1.15479,-0.04199 0.81185,-0.05599 1.57471,-0.13997 2.28857,-0.25195 L 6.58398,-3.51172 C 6.90592,-3.6237 7.19287,-3.72168 7.44482,-3.80566 7.69678,-3.88965 7.92773,-3.97363 8.1377,-4.05762 L 5.11426,15.5107 c 0,0.14 -0.13998,0.266 -0.41992,0.378 -0.19597,0.112 -0.5669,0.2099 -1.1128,0.2939 -0.23795,0.028 -0.49341,0.056 -0.76635,0.084 -0.27295,0.028 -0.5634,0.056 -0.87134,0.084 -0.32194,0.042 -0.64038,0.07 -0.955325,0.084 -0.314941,0.014 -0.626383,0.021 -0.9343258,0.021 -0.3499352,0 -0.6823732,-0.007 -0.9973142,-0.021 -0.314945,-0.014 -0.626385,-0.042 -0.934325,-0.084 -0.32194,-0.028 -0.61939,-0.056 -0.89234,-0.084 -0.27294,-0.028 -0.5214,-0.056 -0.74536,-0.084 -0.60188,-0.084 -0.98681,-0.1819 -1.15478,-0.2939 -0.29395,-0.112 -0.44092,-0.238 -0.44092,-0.378 L -8.07129,-4.05762 m 8.1254892,-3.44336 c 1.1197908,0 2.1905908,0.042 3.2124008,0.12598 0.48991,0.05599 0.95182,0.11198 1.38574,0.16797 0.43392,0.05599 0.84685,0.11198 1.23877,0.16797 0.34994,0.05599 0.67538,0.12247 0.97632,0.19946 0.30095,0.07699 0.5634,0.17147 0.78736,0.28345 0.43391,0.16797 0.65087,0.35693 0.65087,0.56689 v 0.08399 0.04199 c -0.13997,0.13997 -0.39892,0.29394 -0.77685,0.46191 -0.40593,0.16797 -0.96582,0.34294 -1.67969,0.52491 -0.33594,0.08398 -0.71387,0.15397 -1.13379,0.20996 -0.41992,0.05599 -0.87484,0.11198 -1.36474,0.16796 -0.47592,0.05599 -0.98682,0.09799 -1.53272,0.12598 -0.5459,0.028 -1.133788,0.04199 -1.7636708,0.04199 -0.6298832,0 -1.2247692,-0.01399 -1.7846692,-0.04199 -0.55989,-0.02799 -1.0848,-0.06999 -1.57471,-0.12598 -0.4899,-0.05598 -0.94832,-0.11197 -1.37524,-0.16796 -0.42692,-0.05599 -0.81535,-0.12598 -1.16528,-0.20996 -0.65788,-0.13998 -1.20378,-0.31495 -1.6377,-0.52491 -0.41992,-0.16797 -0.67187,-0.32194 -0.75586,-0.46191 v -0.04199 -0.08399 c 0,-0.20996 0.20996,-0.39892 0.62988,-0.56689 0.23796,-0.11198 0.50741,-0.20646 0.80835,-0.28345 0.30095,-0.07699 0.61939,-0.14347 0.95533,-0.19946 0.37793,-0.05599 0.78735,-0.11198 1.22827,-0.16797 0.44092,-0.05599 0.90633,-0.11198 1.39624,-0.16797 1.03581,-0.08398 2.1276,-0.12598 3.2753892,-0.12598"
         fill-rule="evenodd"
         vector-effect="none" />
    </g>
    <g
       id="g16"
       font-style="normal"
       font-weight="400"
       font-size="7.8px"
       font-family="'MS Shell Dlg 2'"
       stroke="none"
       fill-opacity="1"
       fill="#66b1e3" />
  </g>
</svg>
