<svg xmlns="http://www.w3.org/2000/svg" version="1.2" viewBox="0 0 42.52 42.52" height="56.693" width="56.693">
   <g stroke-linejoin="bevel" stroke-linecap="square" fill-rule="evenodd" stroke="none" fill="none" font-weight="400"
      font-size="7.8" font-family="'MS Shell Dlg 2'">
      <path
         d="M42.52 21.26C42.52 33 33 42.52 21.26 42.52 9.518 42.52 0 33 0 21.26 0 9.518 9.518 0 21.26 0 33 0 42.52 9.518 42.52 21.26"
         vector-effect="non-scaling-stroke" fill="#66b1e3" />
      <path
         d="M12.958 17.706c.755.378 1.798.661 3.128.85 1.33.19 2.702.284 4.115.284 1.456 0 2.842-.095 4.157-.284 1.316-.189 2.352-.472 3.108-.85l-2.667 17.51c0 .113-.13.221-.388.326-.259.105-.605.2-1.04.284-.433.084-.92.147-1.459.189-.538.042-1.109.063-1.71.063-.575 0-1.135-.021-1.68-.063a13.058 13.058 0 01-1.47-.19 5.772 5.772 0 01-1.04-.283c-.258-.105-.388-.213-.388-.325l-2.666-17.511m8.818 5.04c-.392-.35-.79-.35-1.197 0a.522.522 0 01-.378.167.545.545 0 01-.399-.168c-.406-.35-.805-.35-1.196 0-.238.224-.497.224-.777 0a.83.83 0 00-.61-.252c-.195 0-.391.084-.587.252-.266.252-.525.252-.777 0-.406-.35-.812-.35-1.218 0l1.554 11.695.987.399c.322.112.731.203 1.228.273s1.095.105 1.795.105c.686 0 1.278-.035 1.774-.105.497-.07.907-.161 1.229-.273l.987-.4 1.553-11.694c-.378-.378-.784-.378-1.218 0-.224.224-.475.224-.755 0a.877.877 0 00-.61-.252c-.195 0-.398.084-.608.252-.252.252-.511.252-.777 0m-1.575 9.973c-.644 0-1.186-.22-1.627-.661-.44-.441-.661-.99-.661-1.648 0-.322.115-.812.346-1.47.231-.658.487-1.316.766-1.974.294-.714.686-1.546 1.176-2.498l1.155 2.498c.28.658.542 1.316.787 1.974.245.658.368 1.148.368 1.47 0 .658-.22 1.207-.662 1.648-.44.44-.99.661-1.648.661m3.906-17.238c1.063.112 1.917.27 2.561.473.644.203.966.416.966.64v.084l-.042.042c-.168.266-.885.564-2.152.893-1.267.328-3.013.493-5.239.493-2.24 0-3.982-.165-5.228-.493-1.246-.33-1.973-.627-2.183-.893v-.126c0-.28.448-.525 1.343-.735a1.204 1.204 0 01-.126-.546c0-.461.158-.843.473-1.144.315-.3.682-.451 1.102-.451.462 0 .843.15 1.144.451.301.301.452.683.452 1.144v.084a51.612 51.612 0 013.023-.084h1.449c.238-.517.644-.776 1.218-.776.308 0 .57.094.787.283.217.189.368.41.452.661m-4.557-.524c-.49 0-.899-.165-1.228-.494-.329-.329-.493-.738-.493-1.228 0-.476.164-.889.493-1.239.329-.35.738-.525 1.228-.525.252 0 .483.063.693.19a.186.186 0 00-.02-.085.234.234 0 01-.022-.105c0-.364.182-.546.546-.546.378 0 .567.182.567.546 0 .378-.175.567-.525.567.322.322.483.72.483 1.197 0 .49-.164.9-.493 1.228-.33.329-.739.494-1.229.494m4.599-1.197a.98.98 0 01-.735-.305 1.007 1.007 0 01-.294-.724c0-.322.098-.574.294-.756.196-.182.44-.273.735-.273.713 0 1.07.343 1.07 1.029a.99.99 0 01-.304.724 1.04 1.04 0 01-.766.305m2.918-1.596c.378 0 .567.189.567.567 0 .364-.19.546-.567.546-.364 0-.546-.182-.546-.546 0-.378.182-.567.546-.567m1.848-2.31a.87.87 0 01.609.231c.167.154.251.35.251.588a.74.74 0 01-.251.567.869.869 0 01-.61.231c-.545 0-.818-.266-.818-.798 0-.546.273-.819.819-.819"
         fill-opacity=".949" fill="#fff" />
   </g>
</svg>