<?xml version="1.0" encoding="UTF-8" standalone="no"?>
<svg width="11.25008mm" height="11.25008mm"
 viewBox="-5.3 -5.3 42.52000 42.52000"
 xmlns="http://www.w3.org/2000/svg" xmlns:xlink="http://www.w3.org/1999/xlink"  version="1.2" baseProfile="tiny">
<title>Qt SVG Document</title>
<desc>Generated with Qt</desc>
<defs>
</defs>
<g fill="none" stroke="black" stroke-width="1" fill-rule="evenodd" stroke-linecap="square" stroke-linejoin="bevel" >

<g fill="#66b1e3" fill-opacity="1" stroke="none" transform="matrix(1,0,0,1,0,0)"
font-family="MS Shell Dlg 2" font-size="7.8" font-weight="400" font-style="normal" 
>
<path vector-effect="non-scaling-stroke" fill-rule="evenodd" d="M37.2598,16 C37.2598,27.7415 27.7415,37.2598 16,37.2598 C4.25851,37.2598 -5.25984,27.7415 -5.25984,16 C-5.25984,4.25851 4.25851,-5.25984 16,-5.25984 C27.7415,-5.25984 37.2598,4.25851 37.2598,16 "/>
</g>

<g fill="#ffffff" fill-opacity="0.94902" stroke="none" transform="matrix(1,0,0,1,16,13.1654)"
font-family="MS Shell Dlg 2" font-size="7.8" font-weight="400" font-style="normal" 
>
<path vector-effect="none" fill-rule="evenodd" d="M-8.30225,-0.719238 C-7.54639,-0.341309 -6.50358,-0.0578613 -5.17383,0.131104 C-3.84408,0.320068 -2.47233,0.414551 -1.05859,0.414551 C0.397135,0.414551 1.78288,0.320068 3.09863,0.131104 C4.41439,-0.0578613 5.4502,-0.341309 6.20605,-0.719238 L3.53955,16.7915 C3.53955,16.9035 3.41007,17.012 3.15112,17.1169 C2.89217,17.2219 2.54574,17.3164 2.11182,17.4004 C1.6779,17.4844 1.19149,17.5474 0.652588,17.5894 C0.113688,17.6313 -0.456706,17.6523 -1.05859,17.6523 C-1.63249,17.6523 -2.19238,17.6313 -2.73828,17.5894 C-3.28418,17.5474 -3.77409,17.4844 -4.20801,17.4004 C-4.64193,17.3164 -4.98836,17.2219 -5.24731,17.1169 C-5.50627,17.012 -5.63574,16.9035 -5.63574,16.7915 L-8.30225,-0.719238 M0.516113,4.31982 C0.124186,3.96989 -0.27474,3.96989 -0.680664,4.31982 C-0.792643,4.4318 -0.91862,4.48779 -1.05859,4.48779 C-1.21257,4.48779 -1.34554,4.4318 -1.45752,4.31982 C-1.86344,3.96989 -2.26237,3.96989 -2.6543,4.31982 C-2.89225,4.54378 -3.1512,4.54378 -3.43115,4.31982 C-3.59912,4.15186 -3.80208,4.06787 -4.04004,4.06787 C-4.236,4.06787 -4.43197,4.15186 -4.62793,4.31982 C-4.89388,4.57178 -5.15283,4.57178 -5.40479,4.31982 C-5.81071,3.96989 -6.21663,3.96989 -6.62256,4.31982 L-5.06885,16.0146 L-4.08203,16.4136 C-3.76009,16.5256 -3.35067,16.6165 -2.85376,16.6865 C-2.35685,16.7565 -1.75846,16.7915 -1.05859,16.7915 C-0.372721,16.7915 0.218669,16.7565 0.715576,16.6865 C1.21248,16.6165 1.62191,16.5256 1.94385,16.4136 L2.93066,16.0146 L4.48438,4.31982 C4.10645,3.94189 3.70052,3.94189 3.2666,4.31982 C3.04264,4.54378 2.79069,4.54378 2.51074,4.31982 C2.32878,4.15186 2.12581,4.06787 1.90186,4.06787 C1.70589,4.06787 1.50293,4.15186 1.29297,4.31982 C1.04102,4.57178 0.782064,4.57178 0.516113,4.31982 M-1.05859,14.293 C-1.70247,14.293 -2.24487,14.0725 -2.68579,13.6316 C-3.12671,13.1907 -3.34717,12.6413 -3.34717,11.9834 C-3.34717,11.6615 -3.23169,11.1715 -3.00073,10.5137 C-2.76978,9.85579 -2.51432,9.19792 -2.23438,8.54004 C-1.94043,7.82617 -1.5485,6.99333 -1.05859,6.0415 L0.0961914,8.54004 C0.376139,9.19792 0.63859,9.85579 0.883545,10.5137 C1.1285,11.1715 1.25098,11.6615 1.25098,11.9834 C1.25098,12.6413 1.03052,13.1907 0.5896,13.6316 C0.148682,14.0725 -0.400716,14.293 -1.05859,14.293 M2.84668,-2.94482 C3.91048,-2.83285 4.76432,-2.67537 5.4082,-2.47241 C6.05208,-2.26945 6.37402,-2.05599 6.37402,-1.83203 L6.37402,-1.74805 L6.33203,-1.70605 C6.16406,-1.4401 5.4467,-1.14266 4.17993,-0.813721 C2.91317,-0.484782 1.16699,-0.320313 -1.05859,-0.320313 C-3.29818,-0.320313 -5.04085,-0.484782 -6.28662,-0.813721 C-7.53239,-1.14266 -8.26025,-1.4401 -8.47021,-1.70605 L-8.47021,-1.74805 L-8.47021,-1.83203 C-8.47021,-2.11198 -8.0223,-2.35693 -7.12646,-2.56689 C-7.21045,-2.73486 -7.25244,-2.91683 -7.25244,-3.11279 C-7.25244,-3.57471 -7.09497,-3.95614 -6.78003,-4.25708 C-6.46509,-4.55802 -6.09766,-4.7085 -5.67773,-4.7085 C-5.21582,-4.7085 -4.83439,-4.55802 -4.53345,-4.25708 C-4.2325,-3.95614 -4.08203,-3.57471 -4.08203,-3.11279 L-4.08203,-3.02881 C-3.59212,-3.0568 -3.10221,-3.0778 -2.6123,-3.0918 C-2.1224,-3.10579 -1.60449,-3.11279 -1.05859,-3.11279 L0.390137,-3.11279 C0.628092,-3.6307 1.03402,-3.88965 1.60791,-3.88965 C1.91585,-3.88965 2.1783,-3.79517 2.39526,-3.6062 C2.61222,-3.41724 2.7627,-3.19678 2.84668,-2.94482 M-1.70947,-3.46973 C-2.19938,-3.46973 -2.60881,-3.6342 -2.93774,-3.96313 C-3.26668,-4.29207 -3.43115,-4.7015 -3.43115,-5.19141 C-3.43115,-5.66732 -3.26668,-6.08024 -2.93774,-6.43018 C-2.60881,-6.78011 -2.19938,-6.95508 -1.70947,-6.95508 C-1.45752,-6.95508 -1.22656,-6.89209 -1.0166,-6.76611 C-1.0166,-6.79411 -1.0236,-6.8221 -1.0376,-6.8501 C-1.0516,-6.87809 -1.05859,-6.91309 -1.05859,-6.95508 C-1.05859,-7.31901 -0.876628,-7.50098 -0.512695,-7.50098 C-0.134766,-7.50098 0.0541992,-7.31901 0.0541992,-6.95508 C0.0541992,-6.57715 -0.120768,-6.38818 -0.470703,-6.38818 C-0.148763,-6.06624 0.012207,-5.66732 0.012207,-5.19141 C0.012207,-4.7015 -0.152262,-4.29207 -0.481201,-3.96313 C-0.81014,-3.6342 -1.21956,-3.46973 -1.70947,-3.46973 M2.88867,-4.6665 C2.59473,-4.6665 2.34977,-4.76799 2.15381,-4.97095 C1.95785,-5.17391 1.85986,-5.41536 1.85986,-5.69531 C1.85986,-6.01725 1.95785,-6.26921 2.15381,-6.45117 C2.34977,-6.63314 2.59473,-6.72412 2.88867,-6.72412 C3.60254,-6.72412 3.95947,-6.38118 3.95947,-5.69531 C3.95947,-5.41536 3.85799,-5.17391 3.65503,-4.97095 C3.45207,-4.76799 3.19661,-4.6665 2.88867,-4.6665 M5.80713,-6.26221 C6.18506,-6.26221 6.37402,-6.07324 6.37402,-5.69531 C6.37402,-5.33138 6.18506,-5.14941 5.80713,-5.14941 C5.4432,-5.14941 5.26123,-5.33138 5.26123,-5.69531 C5.26123,-6.07324 5.4432,-6.26221 5.80713,-6.26221 M7.65479,-8.57178 C7.89274,-8.57178 8.0957,-8.49479 8.26367,-8.34082 C8.43164,-8.18685 8.51563,-7.99089 8.51563,-7.75293 C8.51563,-7.52897 8.43164,-7.34001 8.26367,-7.18604 C8.0957,-7.03206 7.89274,-6.95508 7.65479,-6.95508 C7.10889,-6.95508 6.83594,-7.22103 6.83594,-7.75293 C6.83594,-8.29883 7.10889,-8.57178 7.65479,-8.57178 "/>
</g>

<g fill="#66b1e3" fill-opacity="1" stroke="none" transform="matrix(1,0,0,1,0,0)"
font-family="MS Shell Dlg 2" font-size="7.8" font-weight="400" font-style="normal" 
>
</g>
</g>
</svg>
