<svg xmlns="http://www.w3.org/2000/svg" version="1.2" viewBox="0 0 42.52 42.52" height="56.693" width="56.693">
   <g stroke-linejoin="bevel" stroke-linecap="square" fill-rule="evenodd" stroke="none" fill="none" font-weight="400"
      font-size="7.8" font-family="'MS Shell Dlg 2'">
      <path
         d="M42.52 21.26C42.52 33 33 42.52 21.26 42.52 9.518 42.52 0 33 0 21.26 0 9.518 9.518 0 21.26 0 33 0 42.52 9.518 42.52 21.26"
         vector-effect="non-scaling-stroke" fill="#66b1e3" />
      <path
         d="M17.87 17.328a8.926 8.926 0 00-1.028-1.029 6.18 6.18 0 00-1.25-.798c-.482-.238-1.06-.434-1.732-.587-.965-.168-1.62-.452-1.963-.85-.343-.4-.332-.746.032-1.04.322-.224.777-.336 1.365-.336.587 0 1.252.259 1.994.777.378.252.725.602 1.04 1.05.314.448.584.867.808 1.26.14.265.27.528.388.787.12.259.235.514.347.766m5.29-4.346a6.091 6.091 0 01-.66.756c-.246.238-.484.588-.715 1.05-.23.461-.447 1.088-.65 1.879-.203.79-.375 1.872-.515 3.244-.084-.896-.213-1.666-.388-2.31a34.862 34.862 0 00-.515-1.732 35.44 35.44 0 01-.43-1.396 3.607 3.607 0 01-.137-1.24c.056-.531.2-1.007.43-1.427.232-.42.505-.766.82-1.04a2.782 2.782 0 011.039-.577 2.37 2.37 0 011.07-.084c.799.14 1.23.49 1.292 1.05.063.56-.15 1.169-.64 1.827M10.564 15.27c.224-.056.486-.07.787-.042.301.028.585.07.85.126.14.028.288.056.442.084.154.028.308.07.462.126-.154.028-.294.056-.42.084-.126.028-.26.07-.4.126-.545.154-.951.357-1.217.61-.308.307-.64.44-.997.398-.357-.042-.578-.175-.662-.399-.07-.196-.024-.41.137-.64.16-.231.5-.389 1.018-.473m5.753 6.95c-1.092-.308-1.802-.7-2.131-1.176-.33-.476-.249-.867.241-1.175.406-.238.938-.347 1.596-.326.658.021 1.4.36 2.226 1.018.546.42.99.896 1.333 1.428.343.532.609 1.057.798 1.575.189.518.311 1.004.367 1.46.056.454.084.828.084 1.122H21c.35 0 .654.028.913.084.26.056.389.126.389.21v.357c0 .112-.13.196-.389.252a4.366 4.366 0 01-.913.084c-.336 0-.626-.028-.871-.084-.245-.056-.368-.14-.368-.252v-.357c0-.056.095-.119.284-.189a2.04 2.04 0 01.703-.105 4.764 4.764 0 00-.336-.892 4.524 4.524 0 00-.756-1.092c-.336-.37-.773-.728-1.312-1.07-.539-.343-1.214-.634-2.026-.872m-1.533-5.795c.196-.084.494-.063.893.063s.94.392 1.627.798c.546.308.997.672 1.354 1.092.357.42.64.819.85 1.197.196.42.364.846.504 1.28a4.173 4.173 0 00-.378-.619c-.14-.189-.287-.381-.44-.577a6.689 6.689 0 00-1.092-.977c-.448-.329-.987-.563-1.617-.703-.91-.21-1.48-.486-1.711-.83-.231-.342-.228-.584.01-.724m10.96 14.53v4.556a13.6 13.6 0 01-2.089.483c-.735.112-1.501.168-2.299.168-.84 0-1.659-.063-2.457-.19a11.861 11.861 0 01-2.183-.545v-4.43c-.574-.112-1.04-.238-1.396-.378-.357-.14-.536-.287-.536-.441v-.21c.532.238 1.351.42 2.457.546 1.106.126 2.393.189 3.863.189 1.456 0 2.744-.063 3.863-.19 1.12-.125 1.939-.307 2.457-.545v.21c0 .322-.574.58-1.722.777h.042m-2.33-8.546a1.98 1.98 0 00-.85.378 4.787 4.787 0 00-.704.65c-.112.14-.217.291-.315.452a6.78 6.78 0 00-.273.494c0-.266.042-.553.126-.861a3.236 3.236 0 011.029-1.722c.49-.49.941-.784 1.354-.882.413-.098.752-.09 1.018.021.168.084.287.2.357.347.07.147.07.29 0 .43s-.241.277-.514.41c-.273.133-.682.227-1.228.283m8.776-7.663c.518.084.854.241 1.008.472.154.23.203.458.147.682-.084.294-.312.462-.683.504-.37.042-.717-.09-1.039-.399-.252-.266-.65-.469-1.197-.609a2.48 2.48 0 00-.41-.126 41.74 41.74 0 00-.408-.084l.902-.272c.266-.056.55-.105.85-.147.302-.042.578-.05.83-.021m-5.71-2.016c.573-.238 1.06-.319 1.458-.242.4.077.669.214.809.41.168.224.147.472-.063.745s-.602.396-1.176.368c-.868-.056-1.603.038-2.205.283a5.93 5.93 0 00-1.721 1.102 6.296 6.296 0 011.238-1.616 4.89 4.89 0 011.66-1.05m1.448 3.527c.518.434.504.879-.042 1.334-.546.454-1.435.724-2.667.808-.854.084-1.546.29-2.078.62-.532.328-.96.696-1.281 1.102-.336.49-.588.98-.756 1.47.028-.239.07-.47.126-.694a51.4 51.4 0 00.168-.692c.14-.392.34-.826.598-1.302a6.21 6.21 0 011.082-1.407c.91-.91 1.837-1.445 2.782-1.606.945-.161 1.634-.039 2.068.367m.084 13.06c0 .154-.179.287-.536.399-.357.112-.85.21-1.48.294a38.782 38.782 0 01-4.892.315c-.952 0-1.844-.032-2.677-.095a39.187 39.187 0 01-2.194-.22c-.63-.084-1.123-.182-1.48-.294-.357-.112-.536-.245-.536-.4 0-.251.553-.465 1.66-.64 1.105-.174 2.484-.29 4.135-.346v-1.029c.266.112.595.168.987.168.434 0 .784-.056 1.05-.168v1.029c.826 0 1.603.028 2.33.084.728.056 1.358.13 1.89.22.532.091.955.2 1.27.326.315.126.473.245.473.357m-8-.714c-1.203.028-2.183.105-2.94.23-.755.127-1.133.288-1.133.484.546.126 1.27.217 2.173.273.903.056 1.9.084 2.992.084 1.078 0 2.075-.028 2.992-.084.917-.056 1.648-.147 2.194-.273 0-.196-.406-.357-1.218-.483-.812-.126-1.82-.203-3.023-.231v.378l-.273.084a1.092 1.092 0 01-.336.042H21c-.393 0-.63-.014-.715-.042l-.273-.084v-.378"
         fill-opacity=".949" fill="#fff" />
   </g>
</svg>