<svg xmlns="http://www.w3.org/2000/svg" version="1.2" viewBox="0 0 42.52 42.52" height="56.693" width="56.693">
   <g stroke-linejoin="bevel" stroke-linecap="square" fill-rule="evenodd" stroke="none" fill="none" font-weight="400"
      font-size="7.8" font-family="'MS Shell Dlg 2'">
      <path
         d="M42.52 21.26C42.52 33 33 42.52 21.26 42.52 9.518 42.52 0 33 0 21.26 0 9.518 9.518 0 21.26 0 33 0 42.52 9.518 42.52 21.26"
         vector-effect="non-scaling-stroke" fill="#66b1e3" />
      <path
         d="M18.669 18.483c.196.252.51.378.944.378.392 0 .693-.126.903-.378a.867.867 0 01-.325.472.944.944 0 01-.578.179c-.545 0-.86-.217-.944-.651m-1.47 9.889c.518 0 .917-.19 1.197-.567-.112.238-.27.434-.473.588-.203.154-.444.23-.724.23-.294 0-.56-.076-.798-.23a1.151 1.151 0 01-.483-.588c.252.378.679.567 1.28.567m3.78-1.029c-.406 0-.72-.217-.945-.65.224.321.54.482.945.482.168 0 .34-.045.515-.136a.946.946 0 00.388-.347.888.888 0 01-.315.473.933.933 0 01-.588.178m-1.68-.357c-.307 0-.605-.105-.892-.315a1.41 1.41 0 01-.556-.798c.252.49.735.735 1.449.735.63 0 1.12-.245 1.47-.735-.085.378-.33.651-.736.82-.168.195-.413.293-.734.293m-2.478-5.375a.798.798 0 00.714.4.69.69 0 00.65-.4c-.083.378-.3.567-.65.567-.392 0-.63-.189-.714-.567m3.947 3.716c.308 0 .525-.118.651-.356 0 .14-.06.262-.178.367a.688.688 0 01-.473.157.576.576 0 01-.388-.157.963.963 0 01-.263-.367c.168.238.385.356.651.356m.126 7.727a2 2 0 00.662.525c.273.14.57.21.892.21.308 0 .598-.07.871-.21.273-.14.515-.315.725-.525a1.774 1.774 0 01-.62.798c-.287.21-.612.315-.976.315-.378 0-.71-.105-.997-.315a1.411 1.411 0 01-.557-.798m2.667-.735c.49 0 .819-.154.987-.462a.903.903 0 01-.368.536c-.189.133-.395.2-.62.2-.28 0-.52-.067-.724-.2a.878.878 0 01-.388-.536c.084.14.234.252.451.336.217.084.438.126.662.126m-3.78-1.659c.392 0 .763-.146 1.113-.44-.252.49-.623.734-1.113.734-.545 0-.916-.245-1.112-.734.196.294.567.44 1.112.44m-1.847-10.036c.196.294.567.441 1.113.441.461 0 .79-.147.986-.44a.867.867 0 01-.367.545 1.094 1.094 0 01-.62.19c-.545 0-.916-.246-1.112-.736m-1.218-9.49c.098.168.259.252.483.252.28 0 .469-.084.567-.252 0 .14-.06.252-.179.336a.66.66 0 01-.388.126c-.084 0-.186-.042-.305-.126a.392.392 0 01-.178-.336m2.33 11.779c-.223.63-.65.945-1.28.945a1.36 1.36 0 01-.809-.263 1.267 1.267 0 01-.493-.682c.294.434.728.65 1.302.65.504 0 .93-.216 1.28-.65m-.21 1.113c.225.322.568.483 1.03.483.377 0 .72-.161 1.028-.483-.224.49-.567.735-1.029.735-.545 0-.888-.245-1.028-.735m4.346 1.847c-.056.084-.13.172-.22.263a.47.47 0 01-.347.136c-.084 0-.161-.045-.231-.136a4.796 4.796 0 01-.189-.263.434.434 0 00.42.252c.28 0 .469-.084.567-.252m-8.567 3.885c.294.42.728.63 1.302.63.63 0 1.085-.21 1.365-.63-.084.28-.256.5-.515.661a1.58 1.58 0 01-.85.241c-.294 0-.563-.08-.808-.241a1.171 1.171 0 01-.494-.661m3.15-19.842c-.238 0-.4-.126-.483-.378.084.196.245.294.483.294.252 0 .434-.098.546-.294-.112.252-.294.378-.546.378m-3.444 4.053c.224.308.567.462 1.03.462.223 0 .416-.042.577-.126.16-.084.311-.196.451-.336-.224.518-.567.776-1.029.776-.546 0-.889-.258-1.029-.776m1.596 18.75c.448 0 .843-.102 1.186-.305.343-.203.62-.417.83-.64-.084.363-.322.682-.714.955-.392.273-.826.409-1.302.409-.378 0-.717-.098-1.018-.294a2.4 2.4 0 01-.746-.777 3.421 3.421 0 01-.524-.21 1.87 1.87 0 01-.483-.357l.525 1.554.86 1.302h-2.141l-.273-.567c-.14-.406-.266-.815-.378-1.228a9.148 9.148 0 01-.252-1.355c0-.224.007-.465.02-.724.015-.259.064-.5.148-.724.056-.238.126-.459.21-.662.084-.203.168-.416.252-.64a9.953 9.953 0 011.575-2.016c.587-.574 1.007-1.162 1.26-1.763.293-.602.339-1.264.136-1.985a9.676 9.676 0 00-.85-2.068 17.726 17.726 0 00-.61-.955 30.902 30.902 0 00-.692-.976l-.735-.945a3.834 3.834 0 01-.4-.473 2.55 2.55 0 01-.314-.598 2.37 2.37 0 01-.21-.682 1.244 1.244 0 01.105-.746c.182-.448.427-.804.735-1.07.322-.28.647-.543.976-.788.33-.245.648-.486.955-.724.378-.224.725-.438 1.04-.64.315-.204.62-.445.913-.725.392-.266.63-.539.714-.819.098-.196.13-.367.094-.514a3.25 3.25 0 00-.178-.515l-.084-.084h.273l.294.546v.336a.556.556 0 01-.084.315 1.22 1.22 0 01-.325.578l-.452.451a4.722 4.722 0 01-.724.63 8.592 8.592 0 00-.746.588.927.927 0 00.651.252c.196 0 .347-.035.452-.105.105-.07.2-.168.283-.294-.112.378-.357.567-.735.567a.87.87 0 01-.41-.105 1.337 1.337 0 01-.325-.231c-.028.028-.154.084-.378.168l-1.721 1.553c-.112.112-.193.21-.242.294a4.963 4.963 0 01-.157.252c.182.21.427.315.735.315.49 0 .833-.16 1.029-.483a.982.982 0 01-.378.515 1.06 1.06 0 01-.651.22c.14.084.304.168.493.252.19.084.396.126.62.126.321 0 .598-.063.829-.189.23-.126.416-.273.556-.44-.084.28-.255.514-.514.703-.26.189-.55.283-.872.283-.223 0-.458-.08-.703-.241-.245-.161-.41-.354-.493-.578-.28 0-.525-.133-.735-.399-.168.406-.168.784 0 1.134.084.14.192.273.325.4.133.125.27.258.41.398l.735.966a19.896 19.896 0 011.511 2.015c.14.084.273.168.4.252.125.084.293.126.503.126.42 0 .763-.154 1.029-.462a1.207 1.207 0 01-.346.494c-.175.16-.403.241-.683.241-.294 0-.539-.133-.735-.399.168.322.34.648.515.977.175.329.304.647.388.955.308.98.28 1.91-.084 2.793a4.23 4.23 0 01-.325.703c-.133.23-.27.458-.41.682.084.056.161.098.231.126.07.028.182.042.336.042a.81.81 0 00.4-.105 1.41 1.41 0 00.314-.23c-.056.14-.147.265-.273.377a.643.643 0 01-.44.168.635.635 0 01-.379-.105c-.098-.07-.189-.133-.273-.189-.322.49-.647.928-.976 1.313a4.876 4.876 0 00-.787 1.27 1.67 1.67 0 00-.19.472 2.201 2.201 0 01-.167.473 2.146 2.146 0 00-.105.472c-.014.147-.021.29-.021.43 0 .056.014.098.042.126.028.028.056.042.084.042.154.14.329.256.525.347.196.09.412.136.65.136.742 0 1.274-.245 1.596-.735-.098.308-.29.57-.577.788a1.64 1.64 0 01-1.019.325c.196.168.438.319.725.452s.577.2.871.2m7.076-8.861c.462 0 .812-.161 1.05-.483-.154.49-.504.735-1.05.735-.448 0-.791-.245-1.029-.735.322.322.665.483 1.029.483m-5.795-6.446c0 .056-.014.084-.042.084-.028 0-.042.028-.042.084-.112.28-.312.5-.598.661a1.838 1.838 0 01-.914.242c-.308 0-.605-.102-.892-.305a2.05 2.05 0 01-.662-.766c.434.49.952.735 1.554.735.322 0 .606-.067.85-.2a3.79 3.79 0 00.662-.451l.084-.084m11.863 16.293c.602 0 1.036-.19 1.301-.567a1.047 1.047 0 01-.451.693 1.467 1.467 0 01-.85.252c-.392 0-.704-.112-.935-.336-.23-.224-.374-.455-.43-.693.336.434.79.65 1.365.65m2.582-.251c.224.084.466.21.725.378.259.168.493.343.703.525h-.777c-.028-.098-.122-.203-.283-.315a5.061 5.061 0 00-.567-.336c-.217-.112-.43-.22-.64-.326a4.596 4.596 0 01-.442-.241 32.956 32.956 0 01-1.102-.682 33.11 33.11 0 00-1.102-.683c-.308-.182-.62-.385-.934-.609-.315-.224-.62-.455-.914-.692a9.249 9.249 0 01-.62-.683c-.188-.23-.38-.458-.577-.682a7.342 7.342 0 01-.346-.567 27.99 27.99 0 00-.304-.546 5.126 5.126 0 01-.43-1.554 6.399 6.399 0 01.01-1.595V22.346c-.294.378-.672.567-1.134.567-.686 0-1.14-.315-1.365-.945-.266-.056-.455-.259-.567-.609.112.322.357.483.735.483.35 0 .623-.16.819-.483a.995.995 0 01-.326.452.77.77 0 01-.493.2h-.126c.14.167.319.318.535.45.217.133.48.2.788.2.434 0 .812-.161 1.134-.483a.272.272 0 00-.147-.252c-.084-.63-.385-1.246-.903-1.848-.196.308-.462.462-.798.462a.901.901 0 01-.63-.252 1.695 1.695 0 01-.42-.608c.098.21.245.356.441.44.196.084.399.126.609.126.168 0 .3-.02.399-.063a1.56 1.56 0 00.315-.189l-.462-.482a10.751 10.751 0 00-1.165-.83 15.465 15.465 0 00-1.334-.724c-.084-.14-.196-.21-.336-.21a2.123 2.123 0 01-.503.472c-.182.12-.42.179-.714.179-.28 0-.543-.08-.788-.242-.245-.16-.41-.353-.493-.577.14.14.318.27.535.388.217.12.466.179.746.179.462 0 .819-.161 1.07-.483a15.65 15.65 0 01-1.123-.577 3.937 3.937 0 01-1.06-.893 1.837 1.837 0 01-.462-.714h-.273c-.308 0-.518-.16-.63-.483.084.084.175.168.273.252a.53.53 0 00.357.126.141.141 0 00.126-.063c.028-.042.077-.063.147-.063a.86.86 0 01-.105-.378v-.336c.098-.321.21-.605.336-.85.126-.245.259-.48.399-.703.112-.084.213-.193.304-.326s.179-.241.263-.325h-.168c-.546 0-.924-.245-1.134-.735.21.294.588.44 1.134.44h.336c.14-.237.27-.468.388-.692.12-.224.207-.455.263-.693a.556.556 0 01-.525.315.509.509 0 01-.378-.178 1.627 1.627 0 01-.273-.389c.098.084.196.161.294.231.098.07.217.105.357.105.238 0 .413-.056.525-.168.056-.224.049-.416-.021-.577a2.524 2.524 0 00-.336-.536V9.37h1.133c.196.42.252.847.168 1.281-.084.658-.297 1.19-.64 1.596a26.45 26.45 0 00-.955 1.197c-.14.238-.27.448-.389.63a2.163 2.163 0 00-.262.545c-.084.42.049.791.399 1.113.28.308.63.592 1.05.85.42.26.867.508 1.343.746.84.392 1.701.966 2.583 1.722.378.364.71.776.997 1.238.287.462.5.98.64 1.554.113.476.14.987.085 1.533-.056.546-.112 1.078-.168 1.596 0 .461.014.937.042 1.427.028.49.14.96.335 1.407.182.462.424.885.725 1.27.3.385.647.739 1.04 1.06a18.442 18.442 0 002.403 1.848 23.639 23.639 0 002.635 1.47m-9.448-4.262c.364.434.819.65 1.365.65.378 0 .686-.073.924-.22.238-.147.447-.318.63-.514-.085.308-.27.57-.557.787-.287.217-.62.326-.997.326-.28 0-.543-.102-.788-.305a2.704 2.704 0 01-.577-.64.65.65 0 00-.273.042.467.467 0 01-.21.042 1.03 1.03 0 01-.577-.19.867.867 0 01-.368-.545c.224.322.54.483.945.483h.336c.294-.084.483-.245.567-.483 0 .294-.14.483-.42.567m5.06 2.96c.462 0 .763-.126.903-.378a.836.836 0 01-.315.462.975.975 0 01-.588.168.917.917 0 01-.535-.168.818.818 0 01-.326-.462c.112.084.249.168.41.252a.982.982 0 00.451.126"
         fill-opacity=".949" fill="#fff" />
   </g>
</svg>