<?xml version="1.0" encoding="UTF-8" standalone="no"?>
<svg
   xmlns:dc="http://purl.org/dc/elements/1.1/"
   xmlns:cc="http://creativecommons.org/ns#"
   xmlns:rdf="http://www.w3.org/1999/02/22-rdf-syntax-ns#"
   xmlns:svg="http://www.w3.org/2000/svg"
   xmlns="http://www.w3.org/2000/svg"
   xmlns:sodipodi="http://sodipodi.sourceforge.net/DTD/sodipodi-0.dtd"
   xmlns:inkscape="http://www.inkscape.org/namespaces/inkscape"
   inkscape:version="1.0 (4035a4fb49, 2020-05-01)"
   sodipodi:docname="1705.svg"
   id="svg20"
   version="1.2"
   viewBox="0 0 42.519639 42.519639"
   height="14.999999mm"
   width="14.999999mm">
  <metadata
     id="metadata24">
    <rdf:RDF>
      <cc:Work
         rdf:about="">
        <dc:format>image/svg+xml</dc:format>
        <dc:type
           rdf:resource="http://purl.org/dc/dcmitype/StillImage" />
        <dc:title>Qt SVG Document</dc:title>
      </cc:Work>
    </rdf:RDF>
  </metadata>
  <sodipodi:namedview
     inkscape:current-layer="svg20"
     inkscape:window-maximized="0"
     inkscape:window-y="0"
     inkscape:window-x="0"
     inkscape:cy="28.346482"
     inkscape:cx="28.346482"
     inkscape:zoom="5.8410537"
     showgrid="false"
     id="namedview22"
     inkscape:window-height="480"
     inkscape:window-width="1034"
     inkscape:pageshadow="2"
     inkscape:pageopacity="0"
     guidetolerance="10"
     gridtolerance="10"
     objecttolerance="10"
     borderopacity="1"
     bordercolor="#666666"
     pagecolor="#ffffff" />
  <title
     id="title2">Qt SVG Document</title>
  <desc
     id="desc4">Generated with Qt</desc>
  <defs
     id="defs6" />
  <g
     transform="translate(5.25984,5.25984)"
     id="g18"
     stroke-linejoin="bevel"
     stroke-linecap="square"
     fill-rule="evenodd"
     stroke-width="1"
     stroke="#000000"
     fill="none">
    <g
       id="g10"
       font-style="normal"
       font-weight="400"
       font-size="7.8px"
       font-family="'MS Shell Dlg 2'"
       stroke="none"
       fill-opacity="1"
       fill="#66b1e3">
      <path
         id="path8"
         d="M 37.2598,16 C 37.2598,27.7415 27.7415,37.2598 16,37.2598 4.25851,37.2598 -5.25984,27.7415 -5.25984,16 -5.25984,4.25851 4.25851,-5.25984 16,-5.25984 27.7415,-5.25984 37.2598,4.25851 37.2598,16"
         fill-rule="evenodd"
         vector-effect="non-scaling-stroke" />
    </g>
    <g
       id="g14"
       font-style="normal"
       font-weight="400"
       font-size="7.8px"
       font-family="'MS Shell Dlg 2'"
       transform="translate(17.1339,12.5984)"
       stroke="none"
       fill-opacity="0.94902"
       fill="#ffffff">
      <path
         id="path12"
         d="m -3.7251,0.624512 c 0.19597,0.251953 0.51091,0.377928 0.94483,0.377928 0.39192,0 0.69287,-0.125975 0.90283,-0.377928 -0.05599,0.195963 -0.16447,0.353434 -0.32544,0.472408 -0.16097,0.11898 -0.35344,0.17847 -0.57739,0.17847 -0.5459,0 -0.86084,-0.21696 -0.94483,-0.650878 M -5.19482,10.5137 c 0.5179,0 0.91683,-0.189 1.19677,-0.56692 -0.11198,0.23792 -0.26945,0.43392 -0.47241,0.58792 -0.20296,0.1539 -0.44442,0.2309 -0.72436,0.2309 -0.29395,0 -0.5599,-0.077 -0.79786,-0.2309 -0.23795,-0.154 -0.39892,-0.35 -0.48291,-0.58792 0.25196,0.37792 0.67888,0.56692 1.28077,0.56692 m 3.77929,-1.02884 c -0.40592,0 -0.72086,-0.21696 -0.94482,-0.65088 0.22396,0.32194 0.5389,0.48291 0.94482,0.48291 0.16797,0 0.33944,-0.04549 0.514407,-0.13647 C -0.726156,9.08944 -0.59668,8.97396 -0.512695,8.83398 -0.568685,9.02995 -0.673665,9.18742 -0.827637,9.3064 -0.981608,9.42537 -1.17757,9.48486 -1.41553,9.48486 M -3.09521,9.12793 c -0.30795,0 -0.60539,-0.10498 -0.89234,-0.31494 C -4.2745,8.60303 -4.45996,8.33708 -4.54395,8.01514 -4.29199,8.50505 -3.80908,8.75 -3.09521,8.75 c 0.62988,0 1.11979,-0.24495 1.46972,-0.73486 -0.08398,0.37793 -0.32894,0.65088 -0.73486,0.81884 -0.16797,0.19597 -0.41292,0.29395 -0.73486,0.29395 m -2.47754,-5.375 c 0.16796,0.26595 0.40592,0.39893 0.71386,0.39893 0.29395,0 0.51091,-0.13298 0.65088,-0.39893 -0.08398,0.37793 -0.30094,0.56689 -0.65088,0.56689 -0.39192,0 -0.62988,-0.18896 -0.71386,-0.56689 m 3.94726,3.71631 c 0.30794,0 0.5249,-0.11898 0.650881,-0.35694 0,0.13998 -0.059491,0.26246 -0.178471,0.36744 -0.11897,0.10498 -0.27644,0.15747 -0.47241,0.15747 -0.13997,0 -0.26945,-0.05249 -0.38843,-0.15747 -0.11897,-0.10498 -0.20646,-0.22746 -0.26245,-0.36744 0.16797,0.23796 0.38493,0.35694 0.65088,0.35694 m 0.12598,7.72656 c 0.16797,0.21 0.38843,0.3849 0.661375,0.5249 0.272949,0.14 0.570394,0.21 0.8923342,0.21 0.3079428,0 0.5983888,-0.07 0.8713378,-0.21 0.272953,-0.14 0.514403,-0.3149 0.724363,-0.5249 -0.12597,0.3219 -0.33244,0.5879 -0.61938,0.7979 -0.286949,0.2099 -0.612388,0.3149 -0.9763208,0.3149 -0.3779292,0 -0.7103682,-0.105 -0.9973142,-0.3149 -0.286945,-0.21 -0.472415,-0.476 -0.556395,-0.7979 m 2.6665,-0.7349 c 0.48991,0 0.81885,-0.1539 0.98682,-0.4619 -0.05599,0.224 -0.17847,0.4024 -0.36743,0.5354 -0.18897,0.133 -0.39543,0.1995 -0.61939,0.1995 -0.279946,0 -0.521401,-0.0665 -0.724363,-0.1995 -0.202962,-0.133 -0.332438,-0.3114 -0.3884278,-0.5354 0.0839848,0.14 0.2344568,0.252 0.4514158,0.336 0.21696,0.0839 0.437419,0.1259 0.661375,0.1259 M -2.6123,12.8022 c 0.39192,0 0.76285,-0.1469 1.11279,-0.4409 -0.25195,0.4899 -0.62289,0.7349 -1.11279,0.7349 -0.5459,0 -0.91683,-0.245 -1.1128,-0.7349 0.19597,0.294 0.5669,0.4409 1.1128,0.4409 M -4.45996,2.76611 c 0.19596,0.29395 0.56689,0.44092 1.11279,0.44092 0.46192,0 0.79085,-0.14697 0.98682,-0.44092 -0.05599,0.23796 -0.17847,0.41993 -0.36743,0.5459 -0.18897,0.12598 -0.39543,0.18897 -0.61939,0.18897 -0.5459,0 -0.91683,-0.24496 -1.11279,-0.73487 m -1.21777,-9.49023 c 0.09798,0.16797 0.25895,0.25195 0.48291,0.25195 0.27994,0 0.46891,-0.08398 0.56689,-0.25195 0,0.13997 -0.05949,0.25195 -0.17847,0.33594 -0.11897,0.08398 -0.24845,0.12597 -0.38842,0.12597 -0.08399,0 -0.18547,-0.04199 -0.30445,-0.12597 -0.11898,-0.08399 -0.17846,-0.19597 -0.17846,-0.33594 m 2.33056,11.77881 c -0.22396,0.62988 -0.65088,0.94482 -1.28076,0.94482 -0.29395,0 -0.56339,-0.08748 -0.80835,-0.26245 -0.24495,-0.17497 -0.40942,-0.40242 -0.49341,-0.68237 0.29395,0.43392 0.72787,0.65088 1.30176,0.65088 0.50391,0 0.93083,-0.21696 1.28076,-0.65088 m -0.20996,1.11279 c 0.22396,0.32194 0.5669,0.48291 1.02881,0.48291 0.37793,0 0.72087,-0.16097 1.02881,-0.48291 -0.22396,0.48991 -0.5669,0.73486 -1.02881,0.73486 -0.5459,0 -0.88883,-0.24495 -1.02881,-0.73486 M 0.789063,8.01514 C 0.733073,8.09912 0.659587,8.1866 0.568604,8.27759 0.47762,8.36857 0.362142,8.41406 0.222168,8.41406 0.138184,8.41406 0.0611979,8.36857 -0.00878906,8.27759 -0.078776,8.1866 -0.141764,8.09912 -0.197754,8.01514 c 0.083984,0.16797 0.2239584,0.25195 0.419922,0.25195 0.279948,0 0.468913,-0.08398 0.566895,-0.25195 M -7.77734,11.8994 c 0.29394,0.4199 0.72786,0.6299 1.30175,0.6299 0.62989,0 1.0848,-0.21 1.36475,-0.6299 -0.08398,0.28 -0.25545,0.5004 -0.5144,0.6614 -0.25896,0.161 -0.5424,0.2414 -0.85035,0.2414 -0.29394,0 -0.56339,-0.0804 -0.80835,-0.2414 -0.24495,-0.161 -0.40942,-0.3814 -0.4934,-0.6614 m 3.14941,-19.84129 c -0.23796,0 -0.39893,-0.12598 -0.48291,-0.37793 0.08398,0.19596 0.24495,0.29394 0.48291,0.29394 0.25195,0 0.43392,-0.09798 0.5459,-0.29394 -0.11198,0.25195 -0.29395,0.37793 -0.5459,0.37793 m -3.44336,4.05224 c 0.22396,0.30794 0.5669,0.46192 1.02881,0.46192 0.22396,0 0.41642,-0.042 0.57739,-0.12598 0.16097,-0.08399 0.31144,-0.19596 0.45142,-0.33594 -0.22396,0.51791 -0.5669,0.77686 -1.02881,0.77686 -0.5459,0 -0.88884,-0.25895 -1.02881,-0.77686 m 1.5957,18.74955 c 0.44792,0 0.84335,-0.1015 1.18628,-0.3045 0.34294,-0.2029 0.61939,-0.4164 0.82935,-0.6404 -0.08399,0.364 -0.32194,0.6824 -0.71387,0.9554 -0.39193,0.2729 -0.82584,0.4094 -1.30176,0.4094 -0.37793,0 -0.71736,-0.098 -1.01831,-0.294 -0.30094,-0.1959 -0.54939,-0.4549 -0.74536,-0.7768 -0.18196,-0.056 -0.35693,-0.126 -0.5249,-0.21 -0.16797,-0.084 -0.32894,-0.2029 -0.48291,-0.3569 l 0.5249,1.5537 0.86084,1.3018 h -2.14157 l -0.273,-0.5669 c -0.14,-0.406 -0.2659,-0.8154 -0.3779,-1.2283 -0.112,-0.4129 -0.196,-0.8643 -0.252,-1.3543 0,-0.2239 0.007,-0.4654 0.021,-0.7243 0.014,-0.259 0.063,-0.5004 0.147,-0.7244 0.056,-0.2379 0.126,-0.4584 0.21,-0.6614 0.084,-0.2029 0.1679,-0.4164 0.2519,-0.6403 C -9.81396,9.8278 -9.28906,9.15592 -8.70117,8.58203 -8.11328,8.00814 -7.69336,7.42025 -7.44141,6.81836 -7.14746,6.21647 -7.10197,5.55509 -7.30493,4.83423 -7.50789,4.11336 -7.79134,3.42399 -8.15527,2.76611 -8.33724,2.45817 -8.5402,2.13973 -8.76416,1.81079 -8.98812,1.48185 -9.21908,1.15641 -9.45703,0.834473 l -0.73487,-0.944825 c -0.14,-0.139974 -0.2729,-0.297444 -0.3989,-0.472412 -0.126,-0.174967 -0.231,-0.37443 -0.315,-0.598386 -0.0979,-0.19597 -0.1679,-0.42342 -0.2099,-0.68238 -0.042,-0.25895 -0.007,-0.5074 0.105,-0.74536 0.1819,-0.44791 0.4269,-0.80485 0.7348,-1.0708 0.32196,-0.27995 0.6474,-0.5424 0.97634,-0.78735 0.32894,-0.24496 0.64738,-0.48641 0.95532,-0.72437 0.37793,-0.22395 0.72437,-0.43741 1.03931,-0.64038 0.31494,-0.20296 0.61938,-0.44441 0.91333,-0.72436 0.39193,-0.26595 0.62988,-0.5389 0.71387,-0.81885 0.09798,-0.19596 0.12947,-0.36743 0.09448,-0.5144 -0.035,-0.14698 -0.09448,-0.31845 -0.17847,-0.51441 L -5.8457,-8.48779 h 0.27295 l 0.29394,0.5459 c 0,0.09798 0,0.20996 0,0.33593 0,0.12598 -0.02799,0.23096 -0.08398,0.31494 -0.05599,0.22396 -0.16447,0.41643 -0.32544,0.5774 -0.16097,0.16097 -0.31144,0.31144 -0.45142,0.45141 -0.22396,0.23796 -0.46541,0.44792 -0.72436,0.62989 -0.25896,0.18196 -0.50741,0.37793 -0.74537,0.58789 0.18197,0.16797 0.39893,0.25195 0.65088,0.25195 0.19597,0 0.34644,-0.03499 0.45142,-0.10498 0.10498,-0.06999 0.19946,-0.16797 0.28345,-0.29395 -0.11198,0.37793 -0.35694,0.5669 -0.73487,0.5669 -0.13997,0 -0.27644,-0.035 -0.40942,-0.10498 -0.13298,-0.06999 -0.24146,-0.14697 -0.32544,-0.23096 -0.02799,0.028 -0.15397,0.08399 -0.37793,0.16797 l -1.72168,1.55371 c -0.11198,0.11198 -0.19246,0.20996 -0.24143,0.29395 -0.049,0.08398 -0.1015,0.16796 -0.1575,0.25195 0.182,0.20996 0.42693,0.31494 0.73487,0.31494 0.48991,0 0.83284,-0.16097 1.02881,-0.48291 -0.05599,0.19596 -0.18197,0.36743 -0.37793,0.5144 -0.19597,0.14698 -0.41293,0.22046 -0.65088,0.22046 0.13997,0.08399 0.30444,0.16797 0.49341,0.25196 0.18896,0.08398 0.39542,0.12597 0.61938,0.12597 0.32194,0 0.59839,-0.06299 0.82935,-0.18896 0.23095,-0.12598 0.41642,-0.27295 0.55639,-0.44092 -0.08398,0.27995 -0.25545,0.5144 -0.5144,0.70337 -0.25895,0.18896 -0.5494,0.28345 -0.87134,0.28345 -0.22396,0 -0.45841,-0.08049 -0.70337,-0.24146 -0.24495,-0.16097 -0.40942,-0.35343 -0.49341,-0.57739 -0.27994,0 -0.52488,-0.13298 -0.73488,-0.39893 -0.1679,0.40593 -0.1679,0.78386 0,1.13379 0.084,0.13998 0.1925,0.27295 0.32546,0.39893 0.13298,0.125975 0.26945,0.25895 0.40942,0.398924 l 0.73487,0.96582 c 0.5179,0.601888 1.02181,1.273766 1.51172,2.015626 0.13997,0.08398 0.27295,0.16797 0.39892,0.25195 0.12598,0.08399 0.29395,0.12598 0.50391,0.12598 0.41992,0 0.76286,-0.15397 1.02881,-0.46192 -0.05599,0.16797 -0.17147,0.33244 -0.34644,0.49341 -0.17497,0.16097 -0.40242,0.24146 -0.68237,0.24146 -0.29395,0 -0.5389,-0.13298 -0.73486,-0.39893 0.16796,0.32194 0.33943,0.64738 0.5144,0.97632 0.17497,0.32894 0.30444,0.64738 0.38843,0.95532 0.30794,0.97982 0.27995,1.91065 -0.08399,2.79248 -0.08398,0.23796 -0.19246,0.47242 -0.32544,0.70337 -0.13297,0.23096 -0.26945,0.45842 -0.40942,0.68238 0.08398,0.05599 0.16097,0.09798 0.23096,0.12597 0.06998,0.028 0.18196,0.04199 0.33593,0.04199 0.13998,0 0.27295,-0.03499 0.39893,-0.10498 0.12598,-0.06998 0.23096,-0.14697 0.31494,-0.23095 -0.05599,0.13997 -0.14697,0.26595 -0.27295,0.37793 -0.12597,0.11198 -0.27295,0.16797 -0.44092,0.16797 -0.15397,0 -0.27994,-0.035 -0.37793,-0.10499 C -6.9515,8.86898 -7.04248,8.80599 -7.12646,8.75 c -0.32194,0.48991 -0.64738,0.92733 -0.97632,1.3123 -0.32894,0.3849 -0.59139,0.8083 -0.78736,1.2702 -0.08398,0.14 -0.14697,0.2975 -0.18896,0.4724 -0.04199,0.175 -0.09798,0.3325 -0.16797,0.4724 -0.05599,0.168 -0.09098,0.3255 -0.10498,0.4725 -0.014,0.1469 -0.021,0.2904 -0.021,0.4304 0,0.056 0.014,0.098 0.042,0.126 0.02799,0.0279 0.05598,0.0419 0.08398,0.0419 0.15397,0.14 0.32894,0.2555 0.5249,0.3465 0.19597,0.091 0.41293,0.1365 0.65088,0.1365 0.74186,0 1.27376,-0.245 1.5957,-0.7349 -0.09798,0.3079 -0.29044,0.5704 -0.57739,0.7873 -0.28695,0.217 -0.62638,0.3255 -1.01831,0.3255 0.19596,0.168 0.43742,0.3184 0.72437,0.4514 0.28694,0.133 0.57739,0.1995 0.87133,0.1995 M 0.600098,5.99951 C 1.06201,5.99951 1.41195,5.83854 1.6499,5.5166 1.49593,6.00651 1.146,6.25146 0.600098,6.25146 c -0.447917,0 -0.790853,-0.24495 -1.028809,-0.73486 0.32194,0.32194 0.664876,0.48291 1.028809,0.48291 M -5.19482,-0.446289 c 0,0.05599 -0.014,0.083984 -0.042,0.083984 -0.02799,0 -0.04199,0.027995 -0.04199,0.083985 -0.11198,0.2799476 -0.31144,0.500407 -0.59839,0.661377 -0.28694,0.16097 -0.59139,0.241455 -0.91333,0.241455 -0.30794,0 -0.60538,-0.101481 -0.89233,-0.304444 -0.28695,-0.202962 -0.50741,-0.458414 -0.66138,-0.766357 0.43392,0.4899088 0.95182,0.734863 1.55371,0.734863 0.32194,0 0.60539,-0.066487 0.85034,-0.1994627 0.24496,-0.1329752 0.46542,-0.2834473 0.66138,-0.4514163 l 0.08399,-0.083984 M 6.66797,15.8467 c 0.60189,0 1.03581,-0.189 1.30176,-0.5669 -0.05599,0.2939 -0.20647,0.5249 -0.45142,0.6929 -0.24495,0.1679 -0.5284,0.2519 -0.85034,0.2519 -0.39193,0 -0.70337,-0.112 -0.93433,-0.3359 -0.23095,-0.224 -0.37443,-0.4549 -0.43042,-0.6929 0.33594,0.4339 0.79086,0.6509 1.36475,0.6509 m 2.58252,-0.252 c 0.22396,0.084 0.46541,0.21 0.72436,0.378 0.25895,0.1679 0.49345,0.3429 0.70335,0.5249 H 9.90137 C 9.87337,16.3996 9.77889,16.2946 9.61792,16.1826 9.45695,16.0706 9.26799,15.9587 9.05103,15.8467 8.83407,15.7347 8.62061,15.6262 8.41064,15.5212 8.20068,15.4163 8.05371,15.3358 7.96973,15.2798 7.5918,15.0558 7.22437,14.8284 6.86743,14.5974 6.5105,14.3665 6.14307,14.139 5.76514,13.915 5.45719,13.7331 5.14575,13.5301 4.83081,13.3062 4.51587,13.0822 4.21143,12.8512 3.91748,12.6133 3.69352,12.3893 3.48706,12.1619 3.2981,11.9309 3.10913,11.7 2.91667,11.4725 2.7207,11.2485 2.58073,11.0386 2.46525,10.8496 2.37427,10.6816 2.28328,10.5137 2.1818,10.3317 2.06982,10.1357 1.84587,9.64583 1.70239,9.12793 1.6394,8.58203 1.57642,8.03613 1.57992,7.50423 1.6499,6.98633 V 5.5166 4.48779 c -0.29394,0.37793 -0.671873,0.5669 -1.133787,0.5669 -0.685872,0 -1.140787,-0.31494 -1.364746,-0.94483 C -1.11458,4.05387 -1.30355,3.85091 -1.41553,3.50098 c 0.11198,0.32194 0.35694,0.48291 0.734866,0.48291 0.349935,0 0.6228841,-0.16097 0.818848,-0.48291 -0.05599,0.16797 -0.1644698,0.31844 -0.32544,0.45141 -0.16097,0.13298 -0.325439,0.19947 -0.493408,0.19947 H -0.806641 C -0.666667,4.31982 -0.4882,4.4703 -0.27124,4.60327 -0.0542806,4.73625 0.208171,4.80273 0.516113,4.80273 0.950033,4.80273 1.32796,4.64176 1.6499,4.31982 1.6499,4.20785 1.60091,4.12386 1.50293,4.06787 1.41895,3.43799 1.118,2.8221 0.600098,2.22021 0.404134,2.52816 0.138184,2.68213 -0.197754,2.68213 -0.43571,2.68213 -0.645671,2.59814 -0.827637,2.43018 -1.0096,2.26221 -1.14958,2.05924 -1.24756,1.82129 c 0.09798,0.20996 0.24496,0.35693 0.440919,0.44092 0.195964,0.08398 0.398926,0.12597 0.608887,0.12597 0.1679688,0 0.300944,-0.02099 0.398926,-0.06298 C 0.299154,2.2832 0.404134,2.22021 0.516113,2.13623 L 0.0541992,1.65332 C -0.32373,1.34538 -0.712158,1.06893 -1.11108,0.823975 -1.51001,0.57902 -1.95443,0.337565 -2.44434,0.0996094 -2.52832,-0.0403646 -2.6403,-0.110352 -2.78027,-0.110352 -2.93424,0.085612 -3.10221,0.243083 -3.28418,0.362061 -3.46615,0.481038 -3.7041,0.540527 -3.99805,0.540527 c -0.27994,0 -0.5424,-0.080485 -0.78735,-0.241455 -0.24495,-0.16097 -0.40942,-0.353434 -0.49341,-0.577392 0.13998,0.139974 0.31844,0.26944956 0.5354,0.388427 0.21696,0.118978 0.46542,0.178467 0.74536,0.178467 0.46192,0 0.81885,-0.16097 1.0708,-0.48291 C -3.29118,-0.362305 -3.66561,-0.554769 -4.05054,-0.771729 -4.43547,-0.988688 -4.7889,-1.28613 -5.11084,-1.66406 -5.3348,-1.88802 -5.48877,-2.12598 -5.57275,-2.37793 H -5.8457 c -0.30795,0 -0.51791,-0.16097 -0.62989,-0.48291 0.08399,0.08398 0.17497,0.16797 0.27295,0.25195 0.09799,0.08399 0.21696,0.12598 0.35694,0.12598 0.05599,0 0.09798,-0.021 0.12597,-0.06299 0.028,-0.04199 0.07699,-0.06299 0.14698,-0.06299 -0.06999,-0.13997 -0.10498,-0.26595 -0.10498,-0.37793 0,-0.11198 0,-0.22395 0,-0.33593 0.09798,-0.32194 0.20996,-0.60539 0.33593,-0.85035 0.12598,-0.24495 0.25895,-0.47941 0.39893,-0.70336 0.11198,-0.08399 0.21346,-0.19247 0.30444,-0.32544 0.09099,-0.13298 0.17847,-0.24146 0.26245,-0.32544 h -0.16797 c -0.54589,0 -0.92382,-0.24496 -1.13378,-0.73487 0.20996,0.29395 0.58789,0.44092 1.13378,0.44092 h 0.33594 c 0.13998,-0.23795 0.26945,-0.46891 0.38843,-0.69287 0.11898,-0.22396 0.20646,-0.45492 0.26245,-0.69287 -0.11198,0.20996 -0.28695,0.31494 -0.5249,0.31494 -0.13998,0 -0.26595,-0.05949 -0.37793,-0.17847 -0.11198,-0.11897 -0.20296,-0.24845 -0.27295,-0.38842 0.09798,0.08398 0.19596,0.16097 0.29395,0.23095 0.09798,0.06999 0.21695,0.10498 0.35693,0.10498 0.23795,0 0.41292,-0.05599 0.5249,-0.16797 0.05599,-0.22395 0.04899,-0.41642 -0.021,-0.57739 -0.06998,-0.16097 -0.18196,-0.33944 -0.33593,-0.5354 v -0.08398 h 1.13379 c 0.19596,0.41992 0.25195,0.84684 0.16797,1.28076 -0.08399,0.65788 -0.29745,1.18978 -0.64039,1.5957 -0.34293,0.40593 -0.66137,0.80485 -0.95532,1.19678 -0.13997,0.23795 -0.26945,0.44792 -0.38843,0.62988 -0.11897,0.18197 -0.20646,0.36393 -0.26245,0.5459 -0.08398,0.41992 0.04899,0.79085 0.39893,1.11279 0.27995,0.30795 0.62988,0.59139 1.0498,0.85035 0.41993,0.25895 0.86784,0.507401 1.34375,0.745357 0.83985,0.391927 1.700687,0.96582 2.582523,1.721683 C 0.894043,1.55534 1.22648,1.96826 1.51343,2.43018 1.80037,2.89209 2.01383,3.40999 2.15381,3.98389 2.26579,4.4598 2.29378,4.9707 2.23779,5.5166 2.1818,6.0625 2.12581,6.5944 2.06982,7.1123 c 0,0.46192 0.014,0.93783 0.042,1.42774 0.02799,0.48991 0.13997,0.95882 0.33593,1.40674 0.18197,0.46192 0.42343,0.88532 0.72437,1.27022 0.30094,0.385 0.64738,0.7384 1.03931,1.0603 0.75586,0.6859 1.55721,1.3018 2.40405,1.8477 0.84684,0.5459 1.72518,1.0358 2.63501,1.4697 m -9.448244,-4.2622 c 0.363932,0.4339 0.818848,0.6509 1.364744,0.6509 0.37793,0 0.68587,-0.0735 0.92383,-0.2205 0.23796,-0.1469 0.44792,-0.3184 0.62988,-0.5144 -0.08398,0.308 -0.26945,0.5704 -0.55639,0.7874 -0.28695,0.2169 -0.61939,0.3254 -0.99732,0.3254 -0.279946,0 -0.542397,-0.1015 -0.787351,-0.3044 -0.244955,-0.203 -0.4374189,-0.4164 -0.577393,-0.6404 -0.125976,0 -0.21696,0.014 -0.272949,0.042 -0.05599,0.028 -0.125977,0.042 -0.209961,0.042 -0.195964,0 -0.388426,-0.063 -0.577396,-0.189 -0.18896,-0.126 -0.31144,-0.3079 -0.36743,-0.5459 0.22396,0.322 0.5389,0.4829 0.944826,0.4829 h 0.335937 c 0.2939457,-0.0839 0.482911,-0.2449 0.566895,-0.4829 0,0.294 -0.139974,0.4829 -0.419922,0.5669 M 4.8623,14.293 c 0.46192,0 0.76286,-0.126 0.90284,-0.378 -0.05599,0.196 -0.16097,0.35 -0.31494,0.462 -0.15398,0.1119 -0.34994,0.1679 -0.5879,0.1679 -0.19596,0 -0.37443,-0.056 -0.5354,-0.1679 -0.16097,-0.112 -0.26945,-0.266 -0.32544,-0.462 0.11198,0.084 0.24846,0.168 0.40943,0.252 0.16097,0.084 0.31144,0.126 0.45141,0.126"
         fill-rule="evenodd"
         vector-effect="none" />
    </g>
    <g
       id="g16"
       font-style="normal"
       font-weight="400"
       font-size="7.8px"
       font-family="'MS Shell Dlg 2'"
       stroke="none"
       fill-opacity="1"
       fill="#66b1e3" />
  </g>
</svg>
