<?xml version="1.0" encoding="UTF-8" standalone="no"?>
<svg width="11.25008mm" height="11.25008mm"
 viewBox="-5.3 -5.3 42.52000 42.52000"
 xmlns="http://www.w3.org/2000/svg" xmlns:xlink="http://www.w3.org/1999/xlink"  version="1.2" baseProfile="tiny">
<title>Qt SVG Document</title>
<desc>Generated with Qt</desc>
<defs>
</defs>
<g fill="none" stroke="black" stroke-width="1" fill-rule="evenodd" stroke-linecap="square" stroke-linejoin="bevel" >

<g fill="#66b1e3" fill-opacity="1" stroke="none" transform="matrix(1,0,0,1,0,0)"
font-family="MS Shell Dlg 2" font-size="7.8" font-weight="400" font-style="normal" 
>
<path vector-effect="non-scaling-stroke" fill-rule="evenodd" d="M37.2598,16 C37.2598,27.7415 27.7415,37.2598 16,37.2598 C4.25851,37.2598 -5.25984,27.7415 -5.25984,16 C-5.25984,4.25851 4.25851,-5.25984 16,-5.25984 C27.7415,-5.25984 37.2598,4.25851 37.2598,16 "/>
</g>

<g fill="#ffffff" fill-opacity="0.94902" stroke="none" transform="matrix(1,0,0,1,17.1339,12.5984)"
font-family="MS Shell Dlg 2" font-size="7.8" font-weight="400" font-style="normal" 
>
<path vector-effect="none" fill-rule="evenodd" d="M-3.7251,0.624512 C-3.52913,0.876465 -3.21419,1.00244 -2.78027,1.00244 C-2.38835,1.00244 -2.0874,0.876465 -1.87744,0.624512 C-1.93343,0.820475 -2.04191,0.977946 -2.20288,1.09692 C-2.36385,1.2159 -2.55632,1.27539 -2.78027,1.27539 C-3.32617,1.27539 -3.64111,1.05843 -3.7251,0.624512 M-5.19482,10.5137 C-4.67692,10.5137 -4.27799,10.3247 -3.99805,9.94678 C-4.11003,10.1847 -4.2675,10.3807 -4.47046,10.5347 C-4.67342,10.6886 -4.91488,10.7656 -5.19482,10.7656 C-5.48877,10.7656 -5.75472,10.6886 -5.99268,10.5347 C-6.23063,10.3807 -6.3916,10.1847 -6.47559,9.94678 C-6.22363,10.3247 -5.79671,10.5137 -5.19482,10.5137 M-1.41553,9.48486 C-1.82145,9.48486 -2.13639,9.2679 -2.36035,8.83398 C-2.13639,9.15592 -1.82145,9.31689 -1.41553,9.31689 C-1.24756,9.31689 -1.07609,9.2714 -0.901123,9.18042 C-0.726156,9.08944 -0.59668,8.97396 -0.512695,8.83398 C-0.568685,9.02995 -0.673665,9.18742 -0.827637,9.3064 C-0.981608,9.42537 -1.17757,9.48486 -1.41553,9.48486 M-3.09521,9.12793 C-3.40316,9.12793 -3.7006,9.02295 -3.98755,8.81299 C-4.2745,8.60303 -4.45996,8.33708 -4.54395,8.01514 C-4.29199,8.50505 -3.80908,8.75 -3.09521,8.75 C-2.46533,8.75 -1.97542,8.50505 -1.62549,8.01514 C-1.70947,8.39307 -1.95443,8.66602 -2.36035,8.83398 C-2.52832,9.02995 -2.77327,9.12793 -3.09521,9.12793 M-5.57275,3.75293 C-5.40479,4.01888 -5.16683,4.15186 -4.85889,4.15186 C-4.56494,4.15186 -4.34798,4.01888 -4.20801,3.75293 C-4.29199,4.13086 -4.50895,4.31982 -4.85889,4.31982 C-5.25081,4.31982 -5.48877,4.13086 -5.57275,3.75293 M-1.62549,7.46924 C-1.31755,7.46924 -1.10059,7.35026 -0.974609,7.1123 C-0.974609,7.25228 -1.0341,7.37476 -1.15308,7.47974 C-1.27205,7.58472 -1.42952,7.63721 -1.62549,7.63721 C-1.76546,7.63721 -1.89494,7.58472 -2.01392,7.47974 C-2.13289,7.37476 -2.22038,7.25228 -2.27637,7.1123 C-2.1084,7.35026 -1.89144,7.46924 -1.62549,7.46924 M-1.49951,15.1958 C-1.33154,15.4058 -1.11108,15.5807 -0.838135,15.7207 C-0.565186,15.8607 -0.267741,15.9307 0.0541992,15.9307 C0.362142,15.9307 0.652588,15.8607 0.925537,15.7207 C1.19849,15.5807 1.43994,15.4058 1.6499,15.1958 C1.52393,15.5177 1.31746,15.7837 1.03052,15.9937 C0.743571,16.2036 0.418132,16.3086 0.0541992,16.3086 C-0.32373,16.3086 -0.656169,16.2036 -0.943115,15.9937 C-1.23006,15.7837 -1.41553,15.5177 -1.49951,15.1958 M1.16699,14.4609 C1.6569,14.4609 1.98584,14.307 2.15381,13.999 C2.09782,14.223 1.97534,14.4014 1.78638,14.5344 C1.59741,14.6674 1.39095,14.7339 1.16699,14.7339 C0.887044,14.7339 0.645589,14.6674 0.442627,14.5344 C0.239665,14.4014 0.110189,14.223 0.0541992,13.999 C0.138184,14.139 0.288656,14.251 0.505615,14.335 C0.722575,14.4189 0.943034,14.4609 1.16699,14.4609 M-2.6123,12.8022 C-2.22038,12.8022 -1.84945,12.6553 -1.49951,12.3613 C-1.75146,12.8512 -2.1224,13.0962 -2.6123,13.0962 C-3.1582,13.0962 -3.52913,12.8512 -3.7251,12.3613 C-3.52913,12.6553 -3.1582,12.8022 -2.6123,12.8022 M-4.45996,2.76611 C-4.264,3.06006 -3.89307,3.20703 -3.34717,3.20703 C-2.88525,3.20703 -2.55632,3.06006 -2.36035,2.76611 C-2.41634,3.00407 -2.53882,3.18604 -2.72778,3.31201 C-2.91675,3.43799 -3.12321,3.50098 -3.34717,3.50098 C-3.89307,3.50098 -4.264,3.25602 -4.45996,2.76611 M-5.67773,-6.72412 C-5.57975,-6.55615 -5.41878,-6.47217 -5.19482,-6.47217 C-4.91488,-6.47217 -4.72591,-6.55615 -4.62793,-6.72412 C-4.62793,-6.58415 -4.68742,-6.47217 -4.8064,-6.38818 C-4.92537,-6.3042 -5.05485,-6.26221 -5.19482,-6.26221 C-5.27881,-6.26221 -5.38029,-6.3042 -5.49927,-6.38818 C-5.61825,-6.47217 -5.67773,-6.58415 -5.67773,-6.72412 M-3.34717,5.05469 C-3.57113,5.68457 -3.99805,5.99951 -4.62793,5.99951 C-4.92188,5.99951 -5.19132,5.91203 -5.43628,5.73706 C-5.68123,5.56209 -5.8457,5.33464 -5.92969,5.05469 C-5.63574,5.48861 -5.20182,5.70557 -4.62793,5.70557 C-4.12402,5.70557 -3.6971,5.48861 -3.34717,5.05469 M-3.55713,6.16748 C-3.33317,6.48942 -2.99023,6.65039 -2.52832,6.65039 C-2.15039,6.65039 -1.80745,6.48942 -1.49951,6.16748 C-1.72347,6.65739 -2.06641,6.90234 -2.52832,6.90234 C-3.07422,6.90234 -3.41715,6.65739 -3.55713,6.16748 M0.789063,8.01514 C0.733073,8.09912 0.659587,8.1866 0.568604,8.27759 C0.47762,8.36857 0.362142,8.41406 0.222168,8.41406 C0.138184,8.41406 0.0611979,8.36857 -0.00878906,8.27759 C-0.078776,8.1866 -0.141764,8.09912 -0.197754,8.01514 C-0.11377,8.18311 0.0262044,8.26709 0.222168,8.26709 C0.502116,8.26709 0.691081,8.18311 0.789063,8.01514 M-7.77734,11.8994 C-7.4834,12.3193 -7.04948,12.5293 -6.47559,12.5293 C-5.8457,12.5293 -5.39079,12.3193 -5.11084,11.8994 C-5.19482,12.1794 -5.36629,12.3998 -5.62524,12.5608 C-5.8842,12.7218 -6.16764,12.8022 -6.47559,12.8022 C-6.76953,12.8022 -7.03898,12.7218 -7.28394,12.5608 C-7.52889,12.3998 -7.69336,12.1794 -7.77734,11.8994 M-4.62793,-7.94189 C-4.86589,-7.94189 -5.02686,-8.06787 -5.11084,-8.31982 C-5.02686,-8.12386 -4.86589,-8.02588 -4.62793,-8.02588 C-4.37598,-8.02588 -4.19401,-8.12386 -4.08203,-8.31982 C-4.19401,-8.06787 -4.37598,-7.94189 -4.62793,-7.94189 M-8.07129,-3.88965 C-7.84733,-3.58171 -7.50439,-3.42773 -7.04248,-3.42773 C-6.81852,-3.42773 -6.62606,-3.46973 -6.46509,-3.55371 C-6.30412,-3.6377 -6.15365,-3.74967 -6.01367,-3.88965 C-6.23763,-3.37174 -6.58057,-3.11279 -7.04248,-3.11279 C-7.58838,-3.11279 -7.93132,-3.37174 -8.07129,-3.88965 M-6.47559,14.8599 C-6.02767,14.8599 -5.63224,14.7584 -5.28931,14.5554 C-4.94637,14.3525 -4.66992,14.139 -4.45996,13.915 C-4.54395,14.279 -4.7819,14.5974 -5.17383,14.8704 C-5.56576,15.1433 -5.99967,15.2798 -6.47559,15.2798 C-6.85352,15.2798 -7.19295,15.1818 -7.4939,14.9858 C-7.79484,14.7899 -8.04329,14.5309 -8.23926,14.209 C-8.42122,14.153 -8.59619,14.083 -8.76416,13.999 C-8.93213,13.915 -9.0931,13.7961 -9.24707,13.6421 L-8.72217,15.1958 L-7.86133,16.4976 L-10.0029,16.4976 L-10.2759,15.9307 C-10.4159,15.5247 -10.5418,15.1153 -10.6538,14.7024 C-10.7658,14.2895 -10.8498,13.8381 -10.9058,13.3481 C-10.9058,13.1242 -10.8988,12.8827 -10.8848,12.6238 C-10.8708,12.3648 -10.8218,12.1234 -10.7378,11.8994 C-10.6818,11.6615 -10.6118,11.441 -10.5278,11.238 C-10.4438,11.0351 -10.3599,10.8216 -10.2759,10.5977 C-9.81396,9.8278 -9.28906,9.15592 -8.70117,8.58203 C-8.11328,8.00814 -7.69336,7.42025 -7.44141,6.81836 C-7.14746,6.21647 -7.10197,5.55509 -7.30493,4.83423 C-7.50789,4.11336 -7.79134,3.42399 -8.15527,2.76611 C-8.33724,2.45817 -8.5402,2.13973 -8.76416,1.81079 C-8.98812,1.48185 -9.21908,1.15641 -9.45703,0.834473 L-10.1919,-0.110352 C-10.3319,-0.250326 -10.4648,-0.407796 -10.5908,-0.582764 C-10.7168,-0.757731 -10.8218,-0.957194 -10.9058,-1.18115 C-11.0037,-1.37712 -11.0737,-1.60457 -11.1157,-1.86353 C-11.1577,-2.12248 -11.1227,-2.37093 -11.0107,-2.60889 C-10.8288,-3.0568 -10.5838,-3.41374 -10.2759,-3.67969 C-9.95394,-3.95964 -9.6285,-4.22209 -9.29956,-4.46704 C-8.97062,-4.712 -8.65218,-4.95345 -8.34424,-5.19141 C-7.96631,-5.41536 -7.61987,-5.62882 -7.30493,-5.83179 C-6.98999,-6.03475 -6.68555,-6.2762 -6.3916,-6.55615 C-5.99967,-6.8221 -5.76172,-7.09505 -5.67773,-7.375 C-5.57975,-7.57096 -5.54826,-7.74243 -5.58325,-7.8894 C-5.61825,-8.03638 -5.67773,-8.20785 -5.76172,-8.40381 L-5.8457,-8.48779 L-5.57275,-8.48779 L-5.27881,-7.94189 C-5.27881,-7.84391 -5.27881,-7.73193 -5.27881,-7.60596 C-5.27881,-7.47998 -5.3068,-7.375 -5.36279,-7.29102 C-5.41878,-7.06706 -5.52726,-6.87459 -5.68823,-6.71362 C-5.8492,-6.55265 -5.99967,-6.40218 -6.13965,-6.26221 C-6.36361,-6.02425 -6.60506,-5.81429 -6.86401,-5.63232 C-7.12297,-5.45036 -7.37142,-5.25439 -7.60938,-5.04443 C-7.42741,-4.87646 -7.21045,-4.79248 -6.9585,-4.79248 C-6.76253,-4.79248 -6.61206,-4.82747 -6.50708,-4.89746 C-6.4021,-4.96745 -6.30762,-5.06543 -6.22363,-5.19141 C-6.33561,-4.81348 -6.58057,-4.62451 -6.9585,-4.62451 C-7.09847,-4.62451 -7.23494,-4.65951 -7.36792,-4.72949 C-7.5009,-4.79948 -7.60938,-4.87646 -7.69336,-4.96045 C-7.72135,-4.93245 -7.84733,-4.87646 -8.07129,-4.79248 L-9.79297,-3.23877 C-9.90495,-3.12679 -9.98543,-3.02881 -10.0344,-2.94482 C-10.0834,-2.86084 -10.1359,-2.77686 -10.1919,-2.69287 C-10.0099,-2.48291 -9.76497,-2.37793 -9.45703,-2.37793 C-8.96712,-2.37793 -8.62419,-2.5389 -8.42822,-2.86084 C-8.48421,-2.66488 -8.61019,-2.49341 -8.80615,-2.34644 C-9.00212,-2.19946 -9.21908,-2.12598 -9.45703,-2.12598 C-9.31706,-2.04199 -9.15259,-1.95801 -8.96362,-1.87402 C-8.77466,-1.79004 -8.5682,-1.74805 -8.34424,-1.74805 C-8.0223,-1.74805 -7.74585,-1.81104 -7.51489,-1.93701 C-7.28394,-2.06299 -7.09847,-2.20996 -6.9585,-2.37793 C-7.04248,-2.09798 -7.21395,-1.86353 -7.4729,-1.67456 C-7.73185,-1.4856 -8.0223,-1.39111 -8.34424,-1.39111 C-8.5682,-1.39111 -8.80265,-1.4716 -9.04761,-1.63257 C-9.29256,-1.79354 -9.45703,-1.986 -9.54102,-2.20996 C-9.82096,-2.20996 -10.0659,-2.34294 -10.2759,-2.60889 C-10.4438,-2.20296 -10.4438,-1.82503 -10.2759,-1.4751 C-10.1919,-1.33512 -10.0834,-1.20215 -9.95044,-1.07617 C-9.81746,-0.950195 -9.68099,-0.81722 -9.54102,-0.677246 L-8.80615,0.288574 C-8.28825,0.890462 -7.78434,1.56234 -7.29443,2.3042 C-7.15446,2.38818 -7.02148,2.47217 -6.89551,2.55615 C-6.76953,2.64014 -6.60156,2.68213 -6.3916,2.68213 C-5.97168,2.68213 -5.62874,2.52816 -5.36279,2.22021 C-5.41878,2.38818 -5.53426,2.55265 -5.70923,2.71362 C-5.8842,2.87459 -6.11165,2.95508 -6.3916,2.95508 C-6.68555,2.95508 -6.9305,2.8221 -7.12646,2.55615 C-6.9585,2.87809 -6.78703,3.20353 -6.61206,3.53247 C-6.43709,3.86141 -6.30762,4.17985 -6.22363,4.48779 C-5.91569,5.46761 -5.94368,6.39844 -6.30762,7.28027 C-6.3916,7.51823 -6.50008,7.75269 -6.63306,7.98364 C-6.76603,8.2146 -6.90251,8.44206 -7.04248,8.66602 C-6.9585,8.72201 -6.88151,8.764 -6.81152,8.79199 C-6.74154,8.81999 -6.62956,8.83398 -6.47559,8.83398 C-6.33561,8.83398 -6.20264,8.79899 -6.07666,8.729 C-5.95068,8.65902 -5.8457,8.58203 -5.76172,8.49805 C-5.81771,8.63802 -5.90869,8.764 -6.03467,8.87598 C-6.16064,8.98796 -6.30762,9.04395 -6.47559,9.04395 C-6.62956,9.04395 -6.75553,9.00895 -6.85352,8.93896 C-6.9515,8.86898 -7.04248,8.80599 -7.12646,8.75 C-7.4484,9.23991 -7.77384,9.67733 -8.10278,10.0623 C-8.43172,10.4472 -8.69417,10.8706 -8.89014,11.3325 C-8.97412,11.4725 -9.03711,11.63 -9.0791,11.8049 C-9.12109,11.9799 -9.17708,12.1374 -9.24707,12.2773 C-9.30306,12.4453 -9.33805,12.6028 -9.35205,12.7498 C-9.36605,12.8967 -9.37305,13.0402 -9.37305,13.1802 C-9.37305,13.2362 -9.35905,13.2782 -9.33105,13.3062 C-9.30306,13.3341 -9.27507,13.3481 -9.24707,13.3481 C-9.0931,13.4881 -8.91813,13.6036 -8.72217,13.6946 C-8.5262,13.7856 -8.30924,13.8311 -8.07129,13.8311 C-7.32943,13.8311 -6.79753,13.5861 -6.47559,13.0962 C-6.57357,13.4041 -6.76603,13.6666 -7.05298,13.8835 C-7.33993,14.1005 -7.67936,14.209 -8.07129,14.209 C-7.87533,14.377 -7.63387,14.5274 -7.34692,14.6604 C-7.05998,14.7934 -6.76953,14.8599 -6.47559,14.8599 M0.600098,5.99951 C1.06201,5.99951 1.41195,5.83854 1.6499,5.5166 C1.49593,6.00651 1.146,6.25146 0.600098,6.25146 C0.152181,6.25146 -0.190755,6.00651 -0.428711,5.5166 C-0.106771,5.83854 0.236165,5.99951 0.600098,5.99951 M-5.19482,-0.446289 C-5.19482,-0.390299 -5.20882,-0.362305 -5.23682,-0.362305 C-5.26481,-0.362305 -5.27881,-0.33431 -5.27881,-0.27832 C-5.39079,0.0016276 -5.59025,0.222087 -5.8772,0.383057 C-6.16414,0.544027 -6.46859,0.624512 -6.79053,0.624512 C-7.09847,0.624512 -7.39591,0.523031 -7.68286,0.320068 C-7.96981,0.117106 -8.19027,-0.138346 -8.34424,-0.446289 C-7.91032,0.0436198 -7.39242,0.288574 -6.79053,0.288574 C-6.46859,0.288574 -6.18514,0.222087 -5.94019,0.0891113 C-5.69523,-0.0438639 -5.47477,-0.194336 -5.27881,-0.362305 L-5.19482,-0.446289 M6.66797,15.8467 C7.26986,15.8467 7.70378,15.6577 7.96973,15.2798 C7.91374,15.5737 7.76326,15.8047 7.51831,15.9727 C7.27336,16.1406 6.98991,16.2246 6.66797,16.2246 C6.27604,16.2246 5.9646,16.1126 5.73364,15.8887 C5.50269,15.6647 5.35921,15.4338 5.30322,15.1958 C5.63916,15.6297 6.09408,15.8467 6.66797,15.8467 M9.25049,15.5947 C9.47445,15.6787 9.7159,15.8047 9.97485,15.9727 C10.2338,16.1406 10.4683,16.3156 10.6782,16.4976 L9.90137,16.4976 C9.87337,16.3996 9.77889,16.2946 9.61792,16.1826 C9.45695,16.0706 9.26799,15.9587 9.05103,15.8467 C8.83407,15.7347 8.62061,15.6262 8.41064,15.5212 C8.20068,15.4163 8.05371,15.3358 7.96973,15.2798 C7.5918,15.0558 7.22437,14.8284 6.86743,14.5974 C6.5105,14.3665 6.14307,14.139 5.76514,13.915 C5.45719,13.7331 5.14575,13.5301 4.83081,13.3062 C4.51587,13.0822 4.21143,12.8512 3.91748,12.6133 C3.69352,12.3893 3.48706,12.1619 3.2981,11.9309 C3.10913,11.7 2.91667,11.4725 2.7207,11.2485 C2.58073,11.0386 2.46525,10.8496 2.37427,10.6816 C2.28328,10.5137 2.1818,10.3317 2.06982,10.1357 C1.84587,9.64583 1.70239,9.12793 1.6394,8.58203 C1.57642,8.03613 1.57992,7.50423 1.6499,6.98633 L1.6499,5.5166 L1.6499,4.48779 C1.35596,4.86572 0.978027,5.05469 0.516113,5.05469 C-0.169759,5.05469 -0.624674,4.73975 -0.848633,4.10986 C-1.11458,4.05387 -1.30355,3.85091 -1.41553,3.50098 C-1.30355,3.82292 -1.05859,3.98389 -0.680664,3.98389 C-0.330729,3.98389 -0.0577799,3.82292 0.138184,3.50098 C0.082194,3.66895 -0.0262858,3.81942 -0.187256,3.95239 C-0.348226,4.08537 -0.512695,4.15186 -0.680664,4.15186 L-0.806641,4.15186 C-0.666667,4.31982 -0.4882,4.4703 -0.27124,4.60327 C-0.0542806,4.73625 0.208171,4.80273 0.516113,4.80273 C0.950033,4.80273 1.32796,4.64176 1.6499,4.31982 C1.6499,4.20785 1.60091,4.12386 1.50293,4.06787 C1.41895,3.43799 1.118,2.8221 0.600098,2.22021 C0.404134,2.52816 0.138184,2.68213 -0.197754,2.68213 C-0.43571,2.68213 -0.645671,2.59814 -0.827637,2.43018 C-1.0096,2.26221 -1.14958,2.05924 -1.24756,1.82129 C-1.14958,2.03125 -1.0026,2.17822 -0.806641,2.26221 C-0.610677,2.34619 -0.407715,2.38818 -0.197754,2.38818 C-0.0297852,2.38818 0.10319,2.36719 0.201172,2.3252 C0.299154,2.2832 0.404134,2.22021 0.516113,2.13623 L0.0541992,1.65332 C-0.32373,1.34538 -0.712158,1.06893 -1.11108,0.823975 C-1.51001,0.57902 -1.95443,0.337565 -2.44434,0.0996094 C-2.52832,-0.0403646 -2.6403,-0.110352 -2.78027,-0.110352 C-2.93424,0.085612 -3.10221,0.243083 -3.28418,0.362061 C-3.46615,0.481038 -3.7041,0.540527 -3.99805,0.540527 C-4.27799,0.540527 -4.54045,0.460042 -4.7854,0.299072 C-5.03035,0.138102 -5.19482,-0.054362 -5.27881,-0.27832 C-5.13883,-0.138346 -4.96037,-0.00887044 -4.74341,0.110107 C-4.52645,0.229085 -4.27799,0.288574 -3.99805,0.288574 C-3.53613,0.288574 -3.1792,0.127604 -2.92725,-0.194336 C-3.29118,-0.362305 -3.66561,-0.554769 -4.05054,-0.771729 C-4.43547,-0.988688 -4.7889,-1.28613 -5.11084,-1.66406 C-5.3348,-1.88802 -5.48877,-2.12598 -5.57275,-2.37793 L-5.8457,-2.37793 C-6.15365,-2.37793 -6.36361,-2.5389 -6.47559,-2.86084 C-6.3916,-2.77686 -6.30062,-2.69287 -6.20264,-2.60889 C-6.10465,-2.5249 -5.98568,-2.48291 -5.8457,-2.48291 C-5.78971,-2.48291 -5.74772,-2.50391 -5.71973,-2.5459 C-5.69173,-2.58789 -5.64274,-2.60889 -5.57275,-2.60889 C-5.64274,-2.74886 -5.67773,-2.87484 -5.67773,-2.98682 C-5.67773,-3.0988 -5.67773,-3.21077 -5.67773,-3.32275 C-5.57975,-3.64469 -5.46777,-3.92814 -5.3418,-4.1731 C-5.21582,-4.41805 -5.08285,-4.65251 -4.94287,-4.87646 C-4.83089,-4.96045 -4.72941,-5.06893 -4.63843,-5.2019 C-4.54744,-5.33488 -4.45996,-5.44336 -4.37598,-5.52734 L-4.54395,-5.52734 C-5.08984,-5.52734 -5.46777,-5.7723 -5.67773,-6.26221 C-5.46777,-5.96826 -5.08984,-5.82129 -4.54395,-5.82129 L-4.20801,-5.82129 C-4.06803,-6.05924 -3.93856,-6.2902 -3.81958,-6.51416 C-3.7006,-6.73812 -3.61312,-6.96908 -3.55713,-7.20703 C-3.66911,-6.99707 -3.84408,-6.89209 -4.08203,-6.89209 C-4.22201,-6.89209 -4.34798,-6.95158 -4.45996,-7.07056 C-4.57194,-7.18953 -4.66292,-7.31901 -4.73291,-7.45898 C-4.63493,-7.375 -4.53695,-7.29801 -4.43896,-7.22803 C-4.34098,-7.15804 -4.22201,-7.12305 -4.08203,-7.12305 C-3.84408,-7.12305 -3.66911,-7.17904 -3.55713,-7.29102 C-3.50114,-7.51497 -3.50814,-7.70744 -3.57813,-7.86841 C-3.64811,-8.02938 -3.76009,-8.20785 -3.91406,-8.40381 L-3.91406,-8.48779 L-2.78027,-8.48779 C-2.58431,-8.06787 -2.52832,-7.64095 -2.6123,-7.20703 C-2.69629,-6.54915 -2.90975,-6.01725 -3.25269,-5.61133 C-3.59562,-5.2054 -3.91406,-4.80648 -4.20801,-4.41455 C-4.34798,-4.1766 -4.47746,-3.96663 -4.59644,-3.78467 C-4.71541,-3.6027 -4.8029,-3.42074 -4.85889,-3.23877 C-4.94287,-2.81885 -4.8099,-2.44792 -4.45996,-2.12598 C-4.18001,-1.81803 -3.83008,-1.53459 -3.41016,-1.27563 C-2.99023,-1.01668 -2.54232,-0.768229 -2.06641,-0.530273 C-1.22656,-0.138346 -0.365723,0.435547 0.516113,1.19141 C0.894043,1.55534 1.22648,1.96826 1.51343,2.43018 C1.80037,2.89209 2.01383,3.40999 2.15381,3.98389 C2.26579,4.4598 2.29378,4.9707 2.23779,5.5166 C2.1818,6.0625 2.12581,6.5944 2.06982,7.1123 C2.06982,7.57422 2.08382,8.05013 2.11182,8.54004 C2.13981,9.02995 2.25179,9.49886 2.44775,9.94678 C2.62972,10.4087 2.87118,10.8321 3.17212,11.217 C3.47306,11.602 3.8195,11.9554 4.21143,12.2773 C4.96729,12.9632 5.76864,13.5791 6.61548,14.125 C7.46232,14.6709 8.34066,15.1608 9.25049,15.5947 M-0.197754,11.3325 C0.166178,11.7664 0.621094,11.9834 1.16699,11.9834 C1.54492,11.9834 1.85286,11.9099 2.09082,11.7629 C2.32878,11.616 2.53874,11.4445 2.7207,11.2485 C2.63672,11.5565 2.45125,11.8189 2.16431,12.0359 C1.87736,12.2528 1.54492,12.3613 1.16699,12.3613 C0.887044,12.3613 0.624593,12.2598 0.379639,12.0569 C0.134684,11.8539 -0.0577799,11.6405 -0.197754,11.4165 C-0.32373,11.4165 -0.414714,11.4305 -0.470703,11.4585 C-0.526693,11.4865 -0.59668,11.5005 -0.680664,11.5005 C-0.876628,11.5005 -1.06909,11.4375 -1.25806,11.3115 C-1.44702,11.1855 -1.5695,11.0036 -1.62549,10.7656 C-1.40153,11.0876 -1.08659,11.2485 -0.680664,11.2485 L-0.344727,11.2485 C-0.0507813,11.1646 0.138184,11.0036 0.222168,10.7656 C0.222168,11.0596 0.082194,11.2485 -0.197754,11.3325 M4.8623,14.293 C5.32422,14.293 5.62516,14.167 5.76514,13.915 C5.70915,14.111 5.60417,14.265 5.4502,14.377 C5.29622,14.4889 5.10026,14.5449 4.8623,14.5449 C4.66634,14.5449 4.48787,14.4889 4.3269,14.377 C4.16593,14.265 4.05745,14.111 4.00146,13.915 C4.11344,13.999 4.24992,14.083 4.41089,14.167 C4.57186,14.251 4.72233,14.293 4.8623,14.293 "/>
</g>

<g fill="#66b1e3" fill-opacity="1" stroke="none" transform="matrix(1,0,0,1,0,0)"
font-family="MS Shell Dlg 2" font-size="7.8" font-weight="400" font-style="normal" 
>
</g>
</g>
</svg>
