<?xml version="1.0" encoding="UTF-8" standalone="no"?>
<svg width="11.25008mm" height="11.25008mm"
 viewBox="-5.3 -5.3 42.52000 42.52000"
 xmlns="http://www.w3.org/2000/svg" xmlns:xlink="http://www.w3.org/1999/xlink"  version="1.2" baseProfile="tiny">
<title>Qt SVG Document</title>
<desc>Generated with Qt</desc>
<defs>
</defs>
<g fill="none" stroke="black" stroke-width="1" fill-rule="evenodd" stroke-linecap="square" stroke-linejoin="bevel" >

<g fill="#b75800" fill-opacity="1" stroke="none" transform="matrix(1,0,0,1,0,0)"
font-family="MS Shell Dlg 2" font-size="7.8" font-weight="400" font-style="normal" 
>
<path vector-effect="non-scaling-stroke" fill-rule="evenodd" d="M37.2598,16 C37.2598,27.7415 27.7415,37.2598 16,37.2598 C4.25851,37.2598 -5.25984,27.7415 -5.25984,16 C-5.25984,4.25851 4.25851,-5.25984 16,-5.25984 C27.7415,-5.25984 37.2598,4.25851 37.2598,16 "/>
</g>

<g fill="#ffffff" fill-opacity="1" stroke="none" transform="matrix(1,0,0,1,16,12.0315)"
font-family="MS Shell Dlg 2" font-size="7.8" font-weight="400" font-style="normal" 
>
<path vector-effect="none" fill-rule="evenodd" d="M12.6938,13.1802 C11.952,13.6701 11.0072,14.097 9.85938,14.4609 C8.85156,14.7829 7.5603,15.0803 5.9856,15.3533 C4.41089,15.6262 2.48975,15.7627 0.222168,15.7627 C-2.04541,15.7627 -3.95256,15.6262 -5.49927,15.3533 C-7.04598,15.0803 -8.30924,14.7829 -9.28906,14.4609 C-10.4368,14.097 -11.3537,13.6701 -12.0396,13.1802 C-11.2837,11.4585 -10.4403,9.86629 -9.50952,8.40356 C-8.57869,6.94084 -7.66886,5.59359 -6.78003,4.36182 C-5.89119,3.13005 -5.07585,2.01375 -4.33398,1.01294 C-3.59212,0.0121257 -3.04622,-0.880208 -2.69629,-1.66406 C-2.58431,-1.86003 -2.46533,-1.93701 -2.33936,-1.89502 C-2.21338,-1.85303 -2.0839,-1.75155 -1.95093,-1.59058 C-1.81795,-1.42961 -1.70247,-1.27214 -1.60449,-1.11816 C-1.50651,-0.964193 -1.44352,-0.87321 -1.41553,-0.845215 C-1.33154,-0.663249 -1.25106,-0.166341 -1.17407,0.645508 C-1.09709,1.45736 -1.0446,2.41618 -1.0166,3.52197 C-0.988607,4.62777 -0.988607,5.78955 -1.0166,7.00732 C-1.0446,8.2251 -1.12158,9.3099 -1.24756,10.2617 C-1.87744,10.3177 -2.69279,10.4437 -3.6936,10.6396 C-4.69442,10.8356 -5.66724,11.0701 -6.61206,11.343 C-7.55688,11.616 -8.36523,11.9169 -9.03711,12.2458 C-9.70898,12.5748 -10.0449,12.8862 -10.0449,13.1802 C-9.24707,13.4881 -8.33024,13.7611 -7.29443,13.999 C-6.4126,14.223 -5.3418,14.4154 -4.08203,14.5764 C-2.82227,14.7374 -1.38753,14.8179 0.222168,14.8179 C1.88786,14.8179 3.2946,14.7374 4.44238,14.5764 C5.59017,14.4154 6.521,14.223 7.23486,13.999 C8.06071,13.7611 8.73258,13.4881 9.25049,13.1802 C9.25049,12.8862 8.92155,12.5818 8.26367,12.2668 C7.60579,11.9519 6.80444,11.651 5.85962,11.364 C4.91479,11.0771 3.93148,10.8356 2.90967,10.6396 C1.88786,10.4437 1.03402,10.3177 0.348145,10.2617 C0.292155,9.8278 0.271159,9.11743 0.285156,8.13062 C0.299154,7.1438 0.341146,6.0765 0.411133,4.92871 C0.48112,3.78092 0.561605,2.64714 0.652588,1.52734 C0.743571,0.407552 0.817057,-0.49528 0.873047,-1.18115 C0.873047,-1.20915 0.901042,-1.28263 0.957031,-1.40161 C1.01302,-1.52059 1.08301,-1.63607 1.16699,-1.74805 C1.25098,-1.86003 1.33496,-1.93001 1.41895,-1.95801 C1.50293,-1.986 1.57992,-1.91602 1.6499,-1.74805 C1.70589,-1.42611 1.87736,-1.07267 2.16431,-0.687744 C2.45125,-0.302816 2.78019,0.120605 3.15112,0.58252 C3.52205,1.04443 3.89998,1.52384 4.28491,2.02075 C4.66984,2.51766 5.00928,3.03906 5.30322,3.58496 L5.93311,2.95508 C6.71696,3.80892 7.45182,4.71525 8.1377,5.67407 C8.82357,6.63289 9.45345,7.57772 10.0273,8.50854 C10.6012,9.43937 11.1086,10.3142 11.5496,11.1331 C11.9905,11.9519 12.3719,12.6343 12.6938,13.1802 M5.34521,-4.05762 C4.65934,-4.00163 3.99097,-3.99463 3.34009,-4.03662 C2.68921,-4.07861 2.10832,-4.05062 1.59741,-3.95264 C1.08651,-3.85465 0.649089,-3.6202 0.285156,-3.24927 C-0.078776,-2.87834 -0.316732,-2.24495 -0.428711,-1.34912 C-0.428711,-2.30094 -0.299235,-3.04281 -0.0402832,-3.57471 C0.218669,-4.10661 0.572103,-4.50903 1.02002,-4.78198 C1.46794,-5.05493 1.98584,-5.2264 2.57373,-5.29639 C3.16162,-5.36637 3.77051,-5.40137 4.40039,-5.40137 C4.94629,-5.40137 5.4257,-5.53784 5.83862,-5.81079 C6.25155,-6.08374 6.67147,-6.35669 7.09839,-6.62964 C7.52531,-6.90259 7.98372,-7.09505 8.47363,-7.20703 C8.96354,-7.31901 9.53743,-7.23503 10.1953,-6.95508 C10.4613,-6.80111 10.6572,-6.60164 10.7832,-6.35669 C10.9092,-6.11174 11.0002,-5.86328 11.0562,-5.61133 C11.1121,-5.30339 11.1261,-4.98844 11.0981,-4.6665 C10.6362,-5.15641 10.1708,-5.40837 9.7019,-5.42236 C9.23299,-5.43636 8.75358,-5.35588 8.26367,-5.18091 C7.77376,-5.00594 7.28735,-4.78898 6.80444,-4.53003 C6.32153,-4.27108 5.83512,-4.11361 5.34521,-4.05762 "/>
</g>

<g fill="#b75800" fill-opacity="1" stroke="none" transform="matrix(1,0,0,1,0,0)"
font-family="MS Shell Dlg 2" font-size="7.8" font-weight="400" font-style="normal" 
>
</g>
</g>
</svg>
