<svg xmlns="http://www.w3.org/2000/svg" version="1.2" viewBox="0 0 42.52 42.52" height="56.693" width="56.693">
   <g stroke-linejoin="bevel" stroke-linecap="square" fill-rule="evenodd" stroke="none" fill="none" font-weight="400"
      font-size="7.8" font-family="'MS Shell Dlg 2'">
      <path
         d="M42.52 21.26C42.52 33 33 42.52 21.26 42.52 9.518 42.52 0 33 0 21.26 0 9.518 9.518 0 21.26 0 33 0 42.52 9.518 42.52 21.26"
         vector-effect="non-scaling-stroke" fill="#b75800" />
      <path
         d="M33.954 30.472c-.742.49-1.687.916-2.835 1.28-1.008.322-2.299.62-3.874.893-1.574.273-3.495.409-5.763.409s-4.175-.136-5.721-.41c-1.547-.272-2.81-.57-3.79-.892-1.148-.364-2.065-.79-2.75-1.28a35.355 35.355 0 012.53-4.777c.93-1.463 1.84-2.81 2.729-4.042a325.974 325.974 0 012.446-3.349c.742-1 1.288-1.893 1.638-2.677.112-.196.23-.273.356-.23.126.041.256.143.389.304.133.16.248.318.346.472.098.154.161.245.19.273.083.182.164.679.24 1.49.078.813.13 1.772.158 2.877a72.294 72.294 0 010 3.486 30.354 30.354 0 01-.23 3.254c-.63.056-1.446.182-2.447.378-1 .196-1.973.43-2.918.703-.945.273-1.753.574-2.425.903-.672.33-1.008.64-1.008.935.798.307 1.715.58 2.75.818.882.224 1.953.417 3.213.578 1.26.16 2.694.241 4.304.241 1.666 0 3.072-.08 4.22-.241 1.148-.161 2.079-.354 2.793-.578.826-.238 1.497-.51 2.015-.818 0-.294-.329-.599-.986-.914-.658-.315-1.46-.616-2.405-.903a28.858 28.858 0 00-2.95-.724c-1.021-.196-1.875-.322-2.561-.378-.056-.434-.077-1.144-.063-2.131a68.89 68.89 0 01.126-3.202c.07-1.148.15-2.282.241-3.401l.22-2.709c0-.028.029-.101.085-.22.056-.12.126-.235.21-.347a.56.56 0 01.252-.21c.084-.028.16.042.23.21.057.322.228.676.515 1.06.287.386.616.809.987 1.27.37.463.749.942 1.134 1.44.385.496.724 1.017 1.018 1.563l.63-.63c.784.854 1.519 1.76 2.205 2.72a52.11 52.11 0 013.412 5.459c.44.818.822 1.5 1.144 2.047m-7.349-17.238c-.686.056-1.354.063-2.005.02a6.929 6.929 0 00-1.743.085c-.51.098-.948.332-1.312.703-.364.371-.602 1.004-.714 1.9 0-.952.13-1.693.389-2.225s.612-.935 1.06-1.208a3.813 3.813 0 011.554-.514 15.45 15.45 0 011.826-.105c.546 0 1.026-.137 1.438-.41.413-.272.833-.545 1.26-.818a4.324 4.324 0 011.375-.578c.49-.112 1.064-.028 1.722.252.266.154.462.354.588.599.126.245.217.493.273.745.056.308.07.623.042.945-.462-.49-.927-.742-1.396-.756a3.908 3.908 0 00-1.438.241c-.49.175-.977.392-1.46.651a4.05 4.05 0 01-1.459.473"
         fill="#fff" />
   </g>
</svg>