<?xml version="1.0" encoding="UTF-8" standalone="no"?>
<svg
   xmlns:dc="http://purl.org/dc/elements/1.1/"
   xmlns:cc="http://creativecommons.org/ns#"
   xmlns:rdf="http://www.w3.org/1999/02/22-rdf-syntax-ns#"
   xmlns:svg="http://www.w3.org/2000/svg"
   xmlns="http://www.w3.org/2000/svg"
   xmlns:sodipodi="http://sodipodi.sourceforge.net/DTD/sodipodi-0.dtd"
   xmlns:inkscape="http://www.inkscape.org/namespaces/inkscape"
   inkscape:version="1.0 (4035a4fb49, 2020-05-01)"
   sodipodi:docname="1706.svg"
   id="svg20"
   version="1.2"
   viewBox="0 0 42.519639 42.519639"
   height="14.999999mm"
   width="14.999999mm">
  <metadata
     id="metadata24">
    <rdf:RDF>
      <cc:Work
         rdf:about="">
        <dc:format>image/svg+xml</dc:format>
        <dc:type
           rdf:resource="http://purl.org/dc/dcmitype/StillImage" />
        <dc:title>Qt SVG Document</dc:title>
      </cc:Work>
    </rdf:RDF>
  </metadata>
  <sodipodi:namedview
     inkscape:current-layer="svg20"
     inkscape:window-maximized="0"
     inkscape:window-y="0"
     inkscape:window-x="0"
     inkscape:cy="28.346482"
     inkscape:cx="28.346482"
     inkscape:zoom="5.8410537"
     showgrid="false"
     id="namedview22"
     inkscape:window-height="480"
     inkscape:window-width="1034"
     inkscape:pageshadow="2"
     inkscape:pageopacity="0"
     guidetolerance="10"
     gridtolerance="10"
     objecttolerance="10"
     borderopacity="1"
     bordercolor="#666666"
     pagecolor="#ffffff" />
  <title
     id="title2">Qt SVG Document</title>
  <desc
     id="desc4">Generated with Qt</desc>
  <defs
     id="defs6" />
  <g
     transform="translate(5.25984,5.25984)"
     id="g18"
     stroke-linejoin="bevel"
     stroke-linecap="square"
     fill-rule="evenodd"
     stroke-width="1"
     stroke="#000000"
     fill="none">
    <g
       id="g10"
       font-style="normal"
       font-weight="400"
       font-size="7.8px"
       font-family="'MS Shell Dlg 2'"
       stroke="none"
       fill-opacity="1"
       fill="#b75800">
      <path
         id="path8"
         d="M 37.2598,16 C 37.2598,27.7415 27.7415,37.2598 16,37.2598 4.25851,37.2598 -5.25984,27.7415 -5.25984,16 -5.25984,4.25851 4.25851,-5.25984 16,-5.25984 27.7415,-5.25984 37.2598,4.25851 37.2598,16"
         fill-rule="evenodd"
         vector-effect="non-scaling-stroke" />
    </g>
    <g
       id="g14"
       font-style="normal"
       font-weight="400"
       font-size="7.8px"
       font-family="'MS Shell Dlg 2'"
       transform="translate(16,12.0315)"
       stroke="none"
       fill-opacity="1"
       fill="#ffffff">
      <path
         id="path12"
         d="m 12.6938,13.1802 c -0.7418,0.4899 -1.6866,0.9168 -2.83442,1.2807 -1.00782,0.322 -2.29908,0.6194 -3.87378,0.8924 -1.57471,0.2729 -3.49585,0.4094 -5.763432,0.4094 -2.267578,0 -4.174728,-0.1365 -5.721438,-0.4094 -1.54671,-0.273 -2.80997,-0.5704 -3.78979,-0.8924 -1.14774,-0.3639 -2.06464,-0.7908 -2.75054,-1.2807 0.7559,-1.7217 1.5993,-3.31391 2.53008,-4.77664 0.93083,-1.46272 1.84066,-2.80997 2.72949,-4.04174 0.88884,-1.23177 1.70418,-2.34807 2.44605,-3.34888 0.74186,-1.0008143 1.28776,-1.893148 1.63769,-2.677 0.11198,-0.19597 0.23096,-0.27295 0.35693,-0.23096 0.12598,0.04199 0.25546,0.14347 0.38843,0.30444 0.13298,0.16097 0.24846,0.31844 0.34644,0.47242 0.09798,0.153967 0.16097,0.24495 0.18896,0.272945 0.08399,0.181966 0.16447,0.678874 0.24146,1.490723 0.07698,0.811852 0.12947,1.770672 0.15747,2.876462 0.027993,1.1058 0.027993,2.26758 0,3.48535 -0.028,1.21778 -0.10498,2.30258 -0.23096,3.25438 -0.62988,0.056 -1.44523,0.182 -2.44604,0.3779 -1.00082,0.196 -1.97364,0.4305 -2.91846,0.7034 -0.94482,0.273 -1.75317,0.5739 -2.42505,0.9028 -0.67187,0.329 -1.00779,0.6404 -1.00779,0.9344 0.79783,0.3079 1.71466,0.5809 2.75047,0.8188 0.88183,0.224 1.95263,0.4164 3.2124,0.5774 1.25976,0.161 2.6945,0.2415 4.304198,0.2415 1.665692,0 3.072432,-0.0805 4.220212,-0.2415 1.14779,-0.161 2.07862,-0.3534 2.79248,-0.5774 0.82585,-0.2379 1.49772,-0.5109 2.01563,-0.8188 0,-0.294 -0.32894,-0.5984 -0.98682,-0.9134 C 7.60579,11.9519 6.80444,11.651 5.85962,11.364 4.91479,11.0771 3.93148,10.8356 2.90967,10.6396 1.88786,10.4437 1.03402,10.3177 0.348145,10.2617 0.292155,9.8278 0.271159,9.11743 0.285156,8.13062 0.299154,7.1438 0.341146,6.0765 0.411133,4.92871 0.48112,3.78092 0.561605,2.64714 0.652588,1.52734 0.743571,0.407552 0.817057,-0.49528 0.873047,-1.18115 c 0,-0.028 0.027995,-0.10148 0.083984,-0.22046 0.055989,-0.11898 0.125979,-0.23446 0.209959,-0.34644 0.08399,-0.11198 0.16797,-0.18196 0.25196,-0.20996 0.08398,-0.02799 0.16097,0.04199 0.23095,0.20996 0.05599,0.32194 0.22746,0.67538 0.51441,1.060306 0.28694,0.384928 0.61588,0.808349 0.98681,1.270264 0.37093,0.46191 0.74886,0.94132 1.13379,1.43823 0.38493,0.49691 0.72437,1.01831 1.01831,1.56421 L 5.93311,2.95508 c 0.78385,0.85384 1.51871,1.76017 2.20459,2.71899 0.68587,0.95882 1.31575,1.90365 1.8896,2.83447 0.5739,0.93083 1.0813,1.80566 1.5223,2.62456 0.4409,0.8188 0.8223,1.5012 1.1442,2.0471 M 5.34521,-4.05762 c -0.68587,0.05599 -1.35424,0.06299 -2.00512,0.021 -0.65088,-0.04199 -1.23177,-0.014 -1.74268,0.08398 -0.5109,0.09799 -0.948321,0.33244 -1.312254,0.70337 -0.363932,0.37093 -0.601888,1.00432 -0.713867,1.90015 0,-0.95182 0.129476,-1.69369 0.3884278,-2.22559 0.2589522,-0.5319 0.6123862,-0.93432 1.0603032,-1.20727 0.44792,-0.27295 0.96582,-0.44442 1.55371,-0.51441 0.58789,-0.06998 1.19678,-0.10498 1.82666,-0.10498 0.5459,0 1.02531,-0.13647 1.43823,-0.40942 0.41293,-0.27295 0.83285,-0.5459 1.25977,-0.81885 0.42692,-0.27295 0.88533,-0.46541 1.37524,-0.57739 0.48991,-0.11198 1.0638,-0.028 1.72167,0.25195 0.266,0.15397 0.4619,0.35344 0.5879,0.59839 0.126,0.24495 0.217,0.49341 0.273,0.74536 0.0559,0.30794 0.0699,0.62289 0.0419,0.94483 -0.4619,-0.48991 -0.9273,-0.74187 -1.3962,-0.75586 -0.46891,-0.014 -0.94832,0.06648 -1.43823,0.24145 -0.48991,0.17497 -0.97632,0.39193 -1.45923,0.65088 -0.48291,0.25895 -0.96932,0.41642 -1.45923,0.47241"
         fill-rule="evenodd"
         vector-effect="none" />
    </g>
    <g
       id="g16"
       font-style="normal"
       font-weight="400"
       font-size="7.8px"
       font-family="'MS Shell Dlg 2'"
       stroke="none"
       fill-opacity="1"
       fill="#b75800" />
  </g>
</svg>
