<svg xmlns="http://www.w3.org/2000/svg" version="1.2" viewBox="0 0 42.52 42.52" height="56.693" width="56.693">
   <g stroke-linejoin="bevel" stroke-linecap="square" fill-rule="evenodd" stroke="none" fill="none" font-weight="400"
      font-size="7.8" font-family="'MS Shell Dlg 2'">
      <path
         d="M42.52 21.26C42.52 33 33 42.52 21.26 42.52 9.518 42.52 0 33 0 21.26 0 9.518 9.518 0 21.26 0 33 0 42.52 9.518 42.52 21.26"
         vector-effect="non-scaling-stroke" fill="#b75800" />
      <path
         d="M34.122 22.808v3.401H8.884v-3.401h25.238m-9.554-6.005c1.148 0 1.995.2 2.541.598.546.4.948.872 1.207 1.418.26.546.438 1.098.536 1.658.098.56.294.994.588 1.302H13.566c.294-.252.483-.65.567-1.197a7.923 7.923 0 01.452-1.658 3.706 3.706 0 011.07-1.48c.498-.427 1.306-.64 2.426-.64h6.487"
         fill-opacity=".949" fill="#fff" />
   </g>
</svg>