<svg xmlns="http://www.w3.org/2000/svg" version="1.2" viewBox="0 0 42.52 42.52" height="56.693" width="56.693">
   <g stroke-linejoin="bevel" stroke-linecap="square" fill-rule="evenodd" stroke="none" fill="none" font-weight="400"
      font-size="7.8" font-family="'MS Shell Dlg 2'">
      <path
         d="M42.52 21.26C42.52 33 33 42.52 21.26 42.52 9.518 42.52 0 33 0 21.26 0 9.518 9.518 0 21.26 0 33 0 42.52 9.518 42.52 21.26"
         vector-effect="non-scaling-stroke" fill="#66b1e3" />
      <path
         d="M28.54 19.386c.379.112.89.283 1.533.514a7.75 7.75 0 011.869.987 6.488 6.488 0 011.575 1.606c.448.644.672 1.442.672 2.394 0 1.203-.42 2.267-1.26 3.19-.658.743-1.515 1.32-2.572 1.733a9.234 9.234 0 01-3.391.62h-.546c-.182 0-.392-.014-.63-.042a26.44 26.44 0 01-1.827-.294 16.604 16.604 0 01-1.595-.4 28.6 28.6 0 00-2.1-.503c-.7-.14-1.554-.21-2.561-.21h-.504c-1.806 0-3.468-.301-4.987-.903-1.519-.602-2.698-1.435-3.538-2.499-1.063-1.343-1.476-2.904-1.238-4.682.112-.924.475-1.795 1.091-2.614a9.259 9.259 0 012.32-2.152c.931-.616 1.992-1.102 3.181-1.459a12.718 12.718 0 013.675-.535h.525c1.035.056 1.945.192 2.729.409.784.217 1.47.483 2.058.798a8.613 8.613 0 011.553 1.05c.448.385.854.752 1.218 1.102.462.434.892.815 1.291 1.144.4.33.886.578 1.46.746m3.884 8.167c.364-.406.633-.83.808-1.27a3.75 3.75 0 00.263-1.396c0-.714-.158-1.33-.473-1.848a4.764 4.764 0 00-1.207-1.333 7.82 7.82 0 00-1.638-.945 14.283 14.283 0 00-1.805-.64c-.658-.21-1.208-.494-1.649-.85-.44-.358-.892-.767-1.354-1.23a74.992 74.992 0 01-1.228-1.038 8.048 8.048 0 00-1.46-.987 9.418 9.418 0 00-1.93-.756c-.729-.203-1.583-.319-2.562-.347-.056 0-.13-.007-.22-.02a1.726 1.726 0 00-.263-.022c-1.176 0-2.313.165-3.412.494a11.664 11.664 0 00-2.96 1.333c-.876.56-1.6 1.21-2.174 1.953-.574.742-.917 1.518-1.029 2.33-.238 1.54.12 2.912 1.071 4.116.742.98 1.83 1.75 3.265 2.31 1.435.559 3.013.839 4.735.839h.504c1.035 0 1.92.07 2.656.21.734.14 1.459.3 2.173.483.49.14 1.004.273 1.543.399.539.126 1.137.217 1.795.273.21.028.399.049.567.063a8.452 8.452 0 003.664-.556c.973-.386 1.746-.907 2.32-1.565m-4.22-6.698c1.581.476 2.743 1.03 3.485 1.659.742.63 1.113 1.42 1.113 2.373 0 .63-.179 1.21-.536 1.742-.357.532-.85.984-1.48 1.354-.63.371-1.361.644-2.194.82a7.927 7.927 0 01-2.614.094 15.795 15.795 0 01-2.163-.4c-.63-.167-1.26-.332-1.89-.493-.63-.16-1.3-.29-2.015-.388a18.61 18.61 0 00-2.498-.147 12.917 12.917 0 01-3.318-.346c-1.092-.26-2.05-.655-2.876-1.187-.826-.532-1.47-1.196-1.932-1.994-.462-.798-.623-1.743-.483-2.835.098-.742.43-1.459.998-2.152.566-.693 1.287-1.288 2.162-1.785a11.73 11.73 0 012.93-1.154 12.13 12.13 0 013.296-.368c1.511.056 2.712.305 3.6.746.89.44 1.659.948 2.31 1.522a97.39 97.39 0 011.858 1.68c.588.545 1.337.965 2.247 1.26m3.443 5.836c.518-.546.777-1.148.777-1.805a2.39 2.39 0 00-.567-1.554c-.112.266-.315.399-.609.399-.308 0-.518-.19-.63-.567.14.266.35.399.63.399.21 0 .399-.091.567-.273-.63-.798-1.876-1.47-3.737-2.016-.742-.224-1.38-.546-1.911-.966a27.787 27.787 0 01-1.533-1.301c-.378-.35-.759-.69-1.144-1.019a7.57 7.57 0 00-1.312-.892c-.14.378-.427.567-.861.567-.448 0-.749-.245-.903-.735.266.35.567.525.903.525a.92.92 0 00.777-.399 8.85 8.85 0 00-1.68-.64c-.63-.175-1.386-.277-2.267-.305h-.441c-1.05 0-2.121.161-3.213.483.168.112.322.168.462.168.294 0 .511-.112.651-.336-.084.336-.3.504-.65.504-.225 0-.407-.112-.547-.336-1.386.434-2.565 1.064-3.538 1.89-.972.826-1.529 1.714-1.669 2.666a2.919 2.919 0 000 .987c.084.084.196.161.336.231s.287.105.441.105c.392 0 .72-.168.987-.504-.084.434-.357.679-.819.735.112.168.3.252.567.252.308 0 .56-.133.756-.399-.112.406-.364.609-.756.609-.294 0-.511-.14-.651-.42H9.98a.92.92 0 01-.777-.399c.14.742.413 1.386.819 1.932.658.868 1.63 1.543 2.918 2.026 1.288.483 2.709.724 4.263.724h.504c1.091 0 2.033.08 2.824.242.79.16 1.543.325 2.257.493.49.154.993.287 1.511.399.518.112 1.092.196 1.722.252a4.1 4.1 0 00.462.063 7.564 7.564 0 003.18-.451c.834-.315 1.495-.76 1.985-1.334M13.549 19.26a.955.955 0 01-.65-.263 1.726 1.726 0 01-.441-.598c.126.14.28.266.462.378.181.112.391.168.63.168.251 0 .472-.056.66-.168.19-.112.34-.238.452-.378a1.27 1.27 0 01-.525.693c.098.084.203.16.315.23.112.07.238.106.378.106.322 0 .581-.14.777-.42-.112.392-.37.588-.777.588-.336 0-.58-.168-.735-.504-.14.112-.322.168-.546.168M23.9 21.023c-.251 0-.486-.087-.703-.262a1.135 1.135 0 01-.41-.683c.225.42.596.63 1.113.63.546 0 .938-.21 1.176-.63-.098.49-.37.777-.819.861.168.224.406.336.714.336.378 0 .665-.14.861-.42-.112.448-.399.672-.86.672-.337 0-.603-.182-.799-.546a.36.36 0 00-.147.021.292.292 0 01-.126.021m-4.682-1.68c-.546 0-.889-.272-1.028-.818.112.14.255.27.43.388.175.12.374.179.598.179.378 0 .693-.161.945-.483h-.042c-.252 0-.44-.154-.567-.462.154.196.343.294.567.294a.737.737 0 00.61-.294c-.057.28-.232.42-.526.42-.14.518-.469.777-.987.777m-2.225 7.138c.28 0 .518-.133.714-.399-.084.378-.322.567-.714.567-.378 0-.61-.189-.693-.567.196.266.427.4.693.4m13.752.503c.336 0 .609-.154.819-.462-.112.462-.385.693-.819.693-.028 0-.049-.007-.063-.02-.014-.015-.035-.022-.063-.022-.14.308-.37.462-.693.462-.378 0-.609-.182-.693-.546.14.252.371.378.693.378.224 0 .441-.098.651-.294-.35-.098-.567-.315-.65-.65.195.307.468.461.818.461m-2.918.777a.681.681 0 00.588-.294c-.056.308-.252.462-.588.462-.322 0-.54-.154-.651-.462.14.196.357.294.65.294m-.65-2.96a.98.98 0 01-.326.535.878.878 0 01-.577.2c-.434 0-.72-.246-.86-.735a.948.948 0 00.86.482c.406 0 .707-.16.903-.482m.819.902c-.056.378-.273.567-.651.567a.613.613 0 01-.41-.178 1.046 1.046 0 01-.283-.389c.21.252.44.378.693.378.294 0 .51-.126.65-.378m-7.663-3.275c.21 0 .357-.07.441-.21-.056.224-.203.336-.44.336-.169 0-.309-.112-.42-.336.083.14.223.21.42.21m.86.525c-.196 0-.336-.098-.42-.294.084.14.224.21.42.21.21 0 .357-.07.44-.21-.055.196-.202.294-.44.294m3.023 4.85c.336 0 .61-.14.82-.42-.099.434-.372.65-.82.65-.378 0-.636-.202-.776-.608-.028.028-.056.042-.084.042-.322 0-.511-.16-.567-.483.084.21.273.315.567.315a.668.668 0 00.587-.315c-.028.238-.182.385-.461.441.196.252.44.378.734.378m-2.624-2.142c.28 0 .49-.112.63-.336-.056.336-.266.504-.63.504a.793.793 0 01-.273-.084c-.056.224-.175.41-.357.557a.974.974 0 01-.63.22c-.546 0-.889-.273-1.029-.819.238.378.581.567 1.03.567.405 0 .734-.175.986-.525a.8.8 0 01-.378-.42c.14.224.357.336.65.336M15.65 17.37c-.196 0-.322-.105-.378-.315a.498.498 0 00.378.189c.14 0 .252-.063.336-.189a.43.43 0 01-.336-.378c.084.168.245.252.483.252.224 0 .378-.084.462-.252-.056.28-.21.42-.462.42a.13.13 0 01-.074-.021.13.13 0 00-.073-.021c-.056.21-.168.315-.336.315m7.39 7.223c-.055.28-.223.42-.503.42-.294 0-.47-.14-.525-.42.084.196.259.294.525.294a.545.545 0 00.504-.294m6.55-2.415c-.07.294-.245.441-.525.441l-.041-.063c-.084.35-.301.525-.651.525-.336 0-.567-.19-.693-.567a.751.751 0 00.693.399c.238 0 .44-.12.609-.357a1.273 1.273 0 01-.263-.126.395.395 0 01-.178-.252c.098.168.273.252.524.252.252 0 .427-.084.525-.252m-18.665-1.155a.668.668 0 00.588-.315c-.112.322-.308.483-.588.483-.294 0-.497-.16-.609-.483.14.21.343.315.609.315m3.527.546c.224.322.54.483.945.483.42 0 .749-.16.987-.483-.14.49-.47.735-.987.735-.21 0-.406-.063-.588-.189a.881.881 0 01-.357-.546m.294 2.898c.224 0 .424-.06.599-.179s.318-.248.43-.388c-.112.462-.399.72-.86.777-.197.573-.596.86-1.198.86a1.31 1.31 0 01-.84-.283 1.512 1.512 0 01-.503-.745c.154.196.343.357.566.483.224.126.483.189.777.189.224 0 .43-.042.62-.126.189-.084.353-.196.493-.336h-.084c-.546 0-.889-.273-1.029-.82.112.14.256.27.43.39.176.118.375.178.6.178m15.872-.147c-.21 0-.37-.126-.483-.378a.546.546 0 00.483.252c.168 0 .336-.084.504-.252-.112.252-.28.378-.504.378m-12.052-.168a.819.819 0 00.693-.336c-.084.336-.315.504-.693.504-.335 0-.545-.168-.63-.504-.07.224-.188.41-.356.556a.865.865 0 01-.588.22.893.893 0 01-.61-.22 1.554 1.554 0 01-.398-.556c.266.336.602.504 1.008.504.364 0 .679-.168.945-.504.14.224.35.336.63.336m-1.24-.735c-.321 0-.524-.154-.608-.462.14.224.343.336.609.336.252 0 .455-.112.609-.336-.098.308-.301.462-.61.462m6.32-1.365c.224 0 .413-.098.567-.294-.07.308-.259.462-.566.462-.294 0-.497-.154-.61-.462a.737.737 0 00.61.294"
         fill-opacity=".949" fill="#fff" />
   </g>
</svg>