<?xml version="1.0" encoding="UTF-8" standalone="no"?>
<svg
   xmlns:dc="http://purl.org/dc/elements/1.1/"
   xmlns:cc="http://creativecommons.org/ns#"
   xmlns:rdf="http://www.w3.org/1999/02/22-rdf-syntax-ns#"
   xmlns:svg="http://www.w3.org/2000/svg"
   xmlns="http://www.w3.org/2000/svg"
   xmlns:sodipodi="http://sodipodi.sourceforge.net/DTD/sodipodi-0.dtd"
   xmlns:inkscape="http://www.inkscape.org/namespaces/inkscape"
   inkscape:version="1.0 (4035a4fb49, 2020-05-01)"
   sodipodi:docname="1708.svg"
   id="svg20"
   version="1.2"
   viewBox="0 0 42.519639 42.519639"
   height="14.999999mm"
   width="14.999999mm">
  <metadata
     id="metadata24">
    <rdf:RDF>
      <cc:Work
         rdf:about="">
        <dc:format>image/svg+xml</dc:format>
        <dc:type
           rdf:resource="http://purl.org/dc/dcmitype/StillImage" />
        <dc:title>Qt SVG Document</dc:title>
      </cc:Work>
    </rdf:RDF>
  </metadata>
  <sodipodi:namedview
     inkscape:current-layer="svg20"
     inkscape:window-maximized="0"
     inkscape:window-y="0"
     inkscape:window-x="0"
     inkscape:cy="28.346482"
     inkscape:cx="28.346482"
     inkscape:zoom="5.8410537"
     showgrid="false"
     id="namedview22"
     inkscape:window-height="480"
     inkscape:window-width="1034"
     inkscape:pageshadow="2"
     inkscape:pageopacity="0"
     guidetolerance="10"
     gridtolerance="10"
     objecttolerance="10"
     borderopacity="1"
     bordercolor="#666666"
     pagecolor="#ffffff" />
  <title
     id="title2">Qt SVG Document</title>
  <desc
     id="desc4">Generated with Qt</desc>
  <defs
     id="defs6" />
  <g
     transform="translate(5.25984,5.25984)"
     id="g18"
     stroke-linejoin="bevel"
     stroke-linecap="square"
     fill-rule="evenodd"
     stroke-width="1"
     stroke="#000000"
     fill="none">
    <g
       id="g10"
       font-style="normal"
       font-weight="400"
       font-size="7.8px"
       font-family="'MS Shell Dlg 2'"
       stroke="none"
       fill-opacity="1"
       fill="#66b1e3">
      <path
         id="path8"
         d="M 37.2598,16 C 37.2598,27.7415 27.7415,37.2598 16,37.2598 4.25851,37.2598 -5.25984,27.7415 -5.25984,16 -5.25984,4.25851 4.25851,-5.25984 16,-5.25984 27.7415,-5.25984 37.2598,4.25851 37.2598,16"
         fill-rule="evenodd"
         vector-effect="non-scaling-stroke" />
    </g>
    <g
       id="g14"
       font-style="normal"
       font-weight="400"
       font-size="7.8px"
       font-family="'MS Shell Dlg 2'"
       transform="translate(16,12.5984)"
       stroke="none"
       fill-opacity="0.94902"
       fill="#ffffff">
      <path
         id="path12"
         d="m 7.28076,1.52734 c 0.37793,0.11198 0.88884,0.28345 1.53272,0.51441 0.64388,0.23096 1.26672,0.55989 1.86862,0.98681 0.6019,0.42693 1.1268,0.96233 1.5747,1.60621 0.448,0.64388 0.6719,1.44173 0.6719,2.39355 0,1.20378 -0.4199,2.26758 -1.2598,3.19138 -0.6578,0.7419 -1.5152,1.3193 -2.57198,1.7322 -1.0568,0.4129 -2.18709,0.6194 -3.39087,0.6194 -0.18196,0 -0.36393,0 -0.54589,0 -0.18197,0 -0.39193,-0.014 -0.62989,-0.042 C 3.8724,12.4453 3.26351,12.3473 2.70361,12.2354 2.14372,12.1234 1.61182,11.9904 1.10791,11.8364 0.40804,11.6405 -0.291829,11.4725 -0.991699,11.3325 -1.69157,11.1925 -2.54541,11.1226 -3.55322,11.1226 h -0.50391 c -1.80566,0 -3.46785,-0.301 -4.98657,-0.9029 -1.5187,-0.60186 -2.698,-1.43471 -3.5378,-2.49851 -1.0638,-1.34375 -1.4768,-2.90446 -1.2388,-4.68213 0.112,-0.92383 0.4759,-1.79516 1.0918,-2.614011 0.6159,-0.818848 1.3892,-1.536219 2.3201,-2.152099 0.93078,-0.61589 1.99108,-1.1023 3.18086,-1.45923 1.18978,-0.35693 2.41455,-0.5354 3.67432,-0.5354 h 0.5249 c 1.03581,0.05599 1.94564,0.19246 2.729492,0.40942 0.783854,0.21696 1.469728,0.48291 2.057618,0.79786 0.58789,0.31494 1.10579,0.66487 1.55371,1.0498 0.44792,0.38493 0.85384,0.75236 1.21777,1.102295 C 4.99219,0.0716146 5.42261,0.453044 5.82153,0.781982 6.22046,1.11092 6.70687,1.35938 7.28076,1.52734 M 11.165,9.69482 c 0.364,-0.40592 0.6334,-0.82934 0.8084,-1.27026 0.175,-0.44092 0.2624,-0.90633 0.2624,-1.39624 0,-0.71387 -0.1574,-1.32975 -0.4724,-1.84766 C 11.4485,4.66276 11.0461,4.21834 10.5562,3.84741 10.0662,3.47648 9.52035,3.16154 8.91846,2.90259 8.31657,2.64364 7.71468,2.43018 7.11279,2.26221 6.45492,2.05225 5.90552,1.7688 5.4646,1.41187 5.02368,1.05493 4.57227,0.645508 4.11035,0.183594 3.70443,-0.152344 3.295,-0.498779 2.88208,-0.855713 2.46916,-1.21265 1.98275,-1.54159 1.42285,-1.84253 0.862956,-2.14347 0.219076,-2.39543 -0.508789,-2.59839 -1.23665,-2.80135 -2.09049,-2.91683 -3.07031,-2.94482 c -0.05599,0 -0.12948,-0.007 -0.22046,-0.021 -0.09098,-0.014 -0.17847,-0.021 -0.26245,-0.021 -1.17578,0 -2.31307,0.16447 -3.41187,0.49341 -1.09879,0.32894 -2.08561,0.77336 -2.96045,1.33325 -0.87486,0.5599 -1.59916,1.2107785 -2.17306,1.95264 -0.5739,0.74186 -0.9169,1.51872 -1.0288,2.33057 -0.238,1.53971 0.1189,2.91146 1.0708,4.11523 0.7418,0.97982 1.8301,1.74968 3.26485,2.30957 1.43474,0.55985 3.01294,0.83985 4.73462,0.83985 h 0.50391 c 1.0358,0 1.92114,0.07 2.656003,0.21 0.734863,0.1399 1.459229,0.3009 2.173097,0.4829 0.48991,0.1399 1.00431,0.2729 1.54321,0.3989 0.5389,0.126 1.13729,0.217 1.79517,0.2729 0.20996,0.028 0.39892,0.049 0.56689,0.063 0.16797,0.014 0.34294,0.021 0.5249,0.021 1.1198,0 2.1661,-0.1924 3.13892,-0.5774 C 9.81779,10.8741 10.5911,10.3527 11.165,9.69482 M 6.94482,2.99707 c 1.58171,0.47591 2.74349,1.02881 3.48538,1.65869 0.7418,0.62988 1.1128,1.42074 1.1128,2.37256 0,0.62988 -0.1785,1.21078 -0.5354,1.74268 -0.357,0.5319 -0.8504,0.98331 -1.48026,1.3542 -0.62988,0.371 -1.36124,0.6439 -2.19409,0.8189 -0.83284,0.175 -1.70418,0.2065 -2.61401,0.0945 -0.81185,-0.098 -1.53272,-0.231 -2.1626,-0.399 C 1.92676,10.4717 1.29688,10.3072 0.666992,10.1462 0.0371094,9.98527 -0.634766,9.85579 -1.34863,9.75781 -2.0625,9.65983 -2.89535,9.61084 -3.84717,9.61084 -4.96696,9.63883 -6.07275,9.52336 -7.16455,9.2644 -8.25635,9.00545 -9.21517,8.61003 -10.041,8.07813 -10.8669,7.54622 -11.5107,6.88135 -11.9727,6.0835 c -0.4619,-0.79786 -0.6228,-1.74268 -0.4829,-2.83448 0.098,-0.74186 0.4305,-1.45923 0.9973,-2.1521 0.5669,-0.692867 1.2878,-1.287757 2.16265,-1.784664 0.87483,-0.496906 1.85115,-0.881836 2.92895,-1.154786 1.0778,-0.27295 2.1766,-0.39543 3.29639,-0.36743 1.51172,0.05599 2.711993,0.30444 3.600828,0.74536 C 1.41935,-1.02368 2.18921,-0.516276 2.84009,0.0576172 3.49097,0.63151 4.11035,1.19141 4.69824,1.7373 5.28613,2.2832 6.03499,2.70313 6.94482,2.99707 M 10.3882,8.83398 C 10.9061,8.28809 11.165,7.6862 11.165,7.02832 c 0,-0.57389 -0.1889,-1.0918 -0.5669,-1.55371 -0.1119,0.26595 -0.3149,0.39893 -0.60884,0.39893 -0.30794,0 -0.51791,-0.18897 -0.62988,-0.5669 0.13997,0.26595 0.34993,0.39893 0.62988,0.39893 0.20994,0 0.39894,-0.09099 0.56694,-0.27295 C 9.92627,4.63477 8.6805,3.96289 6.81885,3.41699 6.07699,3.19303 5.4401,2.87109 4.9082,2.45117 4.3763,2.03125 3.8654,1.59733 3.37549,1.14941 2.99756,0.799479 2.61613,0.460042 2.2312,0.131104 1.84627,-0.197835 1.40885,-0.49528 0.918945,-0.76123 c -0.139974,0.377929 -0.42692,0.566894 -0.8608395,0.566894 -0.4479165,0 -0.7488605,-0.244954 -0.9028325,-0.734863 0.265951,0.349935 0.566895,0.524902 0.9028325,0.524902 0.3219405,0 0.5808915,-0.132975 0.7768555,-0.398926 C 0.345052,-1.05518 -0.214844,-1.26864 -0.844727,-1.4436 -1.47461,-1.61857 -2.23047,-1.72005 -3.1123,-1.74805 h -0.44092 c -1.04981,0 -2.12061,0.16097 -3.21241,0.48291 0.16797,0.11198 0.32195,0.16797 0.46192,0.16797 0.29394,0 0.5109,-0.11198 0.65088,-0.33594 -0.08399,0.33594 -0.30095,0.503911 -0.65088,0.503911 -0.22396,0 -0.40593,-0.111981 -0.5459,-0.335941 -1.38574,0.433923 -2.56502,1.063805 -3.53789,1.889652 -0.9728,0.825848 -1.5292,1.714678 -1.6691,2.666508 -0.056,0.33593 -0.056,0.66487 0,0.98681 0.0839,0.08399 0.1959,0.16097 0.3359,0.23096 0.14,0.06999 0.2869,0.10498 0.4409,0.10498 0.3919,0 0.7209,-0.16797 0.9868,-0.50391 -0.084,0.43392 -0.3569,0.67888 -0.8188,0.73487 0.112,0.16797 0.3009,0.25195 0.5669,0.25195 0.3079,0 0.55987,-0.13298 0.75584,-0.39893 -0.11198,0.40593 -0.36394,0.60889 -0.75584,0.60889 -0.294,0 -0.5109,-0.13997 -0.6509,-0.41992 h -0.084 c -0.3219,0 -0.5809,-0.13298 -0.7768,-0.39893 0.1399,0.74186 0.4129,1.38575 0.8188,1.93164 0.6579,0.86784 1.6307,1.54322 2.91846,2.02613 1.28776,0.48291 2.7085,0.72436 4.26221,0.72436 h 0.50391 c 1.09179,0 2.03312,0.08049 2.823972,0.24146 0.7908528,0.16097 1.543213,0.32544 2.257078,0.49341 0.48991,0.15401 0.99382,0.28691 1.51172,0.39891 0.5179,0.112 1.0918,0.196 1.72168,0.252 0.13997,0.028 0.29395,0.049 0.46191,0.063 0.16797,0.0139 0.32894,0.0209 0.48291,0.0209 0.96583,0 1.86516,-0.1574 2.698,-0.4724 C 9.2369,9.85229 9.89827,9.40788 10.3882,8.83398 M -7.71045,1.40137 c -0.23795,0 -0.45491,-0.08749 -0.65088,-0.26245 -0.19596,-0.174971 -0.34293,-0.374434 -0.44092,-0.598393 0.12598,0.139974 0.27995,0.265951 0.46192,0.37793 0.18196,0.111983 0.39193,0.167973 0.62988,0.167973 0.25195,0 0.47241,-0.05599 0.66138,-0.167973 0.18896,-0.111979 0.33943,-0.237956 0.45141,-0.37793 -0.08398,0.279948 -0.25895,0.510903 -0.5249,0.692873 0.09798,0.08398 0.20296,0.16097 0.31494,0.23096 0.11198,0.06998 0.23796,0.10498 0.37793,0.10498 0.32194,0 0.58089,-0.13998 0.77686,-0.41993 -0.11198,0.39193 -0.37093,0.58789 -0.77686,0.58789 -0.33594,0 -0.58089,-0.16796 -0.73486,-0.5039 -0.13997,0.11198 -0.32194,0.16797 -0.5459,0.16797 M 2.64063,3.16504 C 2.38867,3.16504 2.15422,3.07756 1.93726,2.90259 1.7203,2.72762 1.58382,2.50016 1.52783,2.22021 1.75179,2.64014 2.12272,2.8501 2.64063,2.8501 c 0.54589,0 0.93782,-0.20996 1.17578,-0.62989 -0.09799,0.48991 -0.37093,0.77686 -0.81885,0.86084 0.16797,0.22396 0.40592,0.33594 0.71387,0.33594 0.37793,0 0.66487,-0.13997 0.86084,-0.41992 -0.11198,0.44792 -0.39893,0.67188 -0.86084,0.67188 -0.33594,0 -0.60189,-0.18197 -0.79786,-0.5459 -0.06998,0 -0.11897,0.007 -0.14697,0.02099 -0.02799,0.014 -0.06999,0.021 -0.12597,0.021 M -2.0415,1.48535 c -0.5459,0 -0.88884,-0.27295 -1.02881,-0.818846 0.11198,0.139974 0.25545,0.26945 0.43042,0.388426 0.17496,0.11898 0.37443,0.17847 0.59839,0.17847 0.37793,0 0.69287,-0.16097 0.94482,-0.482912 h -0.04199 c -0.25196,0 -0.44092,-0.153971 -0.5669,-0.461914 0.15397,0.195964 0.34294,0.293946 0.5669,0.293946 0.251951,0 0.454913,-0.097982 0.608885,-0.293946 C -0.585775,0.568522 -0.760742,0.708496 -1.05469,0.708496 -1.19466,1.2264 -1.5236,1.48535 -2.0415,1.48535 m -2.22559,7.13867 c 0.27995,0 0.5179,-0.13297 0.71387,-0.39892 -0.08399,0.37793 -0.32194,0.56689 -0.71387,0.56689 -0.37793,0 -0.60889,-0.18896 -0.69287,-0.56689 0.19596,0.26595 0.42692,0.39892 0.69287,0.39892 M 9.48535,9.12793 c 0.33594,0 0.60885,-0.15397 0.81885,-0.46191 -0.112,0.46191 -0.38493,0.69287 -0.81885,0.69287 -0.02799,0 -0.04899,-0.007 -0.06299,-0.021 C 9.40837,9.32389 9.38737,9.31689 9.35938,9.31689 9.2194,9.62484 8.98844,9.77881 8.6665,9.77881 c -0.37793,0 -0.60888,-0.18197 -0.69287,-0.5459 0.13998,0.25195 0.37093,0.37793 0.69287,0.37793 0.22396,0 0.44092,-0.09798 0.65088,-0.29395 C 8.96745,9.21891 8.75049,9.00195 8.6665,8.66602 8.86247,8.97396 9.13542,9.12793 9.48535,9.12793 M 6.56689,9.90479 c 0.25196,0 0.44792,-0.09799 0.5879,-0.29395 C 7.0988,9.91878 6.90283,10.0728 6.56689,10.0728 6.24495,10.0728 6.02799,9.91878 5.91602,9.61084 6.05599,9.8068 6.27295,9.90479 6.56689,9.90479 M 5.91602,6.94434 C 5.86003,7.16829 5.75155,7.34676 5.59058,7.47974 5.42961,7.61271 5.23714,7.6792 5.01318,7.6792 c -0.43392,0 -0.72086,-0.24496 -0.86084,-0.73486 0.19597,0.32194 0.48291,0.48291 0.86084,0.48291 0.40593,0 0.70687,-0.16097 0.90284,-0.48291 M 6.73486,7.84717 C 6.67887,8.2251 6.46191,8.41406 6.08398,8.41406 5.94401,8.41406 5.80754,8.35457 5.67456,8.2356 5.54159,8.11662 5.4471,7.98714 5.39111,7.84717 5.60107,8.09912 5.83203,8.2251 6.08398,8.2251 c 0.29395,0 0.51091,-0.12598 0.65088,-0.37793 M -0.928711,4.57178 c 0.209961,0 0.356934,-0.06999 0.440918,-0.20996 -0.05599,0.22395 -0.202962,0.33593 -0.440918,0.33593 -0.167969,0 -0.307939,-0.11198 -0.419919,-0.33593 0.08398,0.13997 0.22396,0.20996 0.419919,0.20996 m 0.8608399,0.5249 C -0.263835,5.09668 -0.403809,4.9987 -0.487793,4.80273 -0.403809,4.94271 -0.263835,5.0127 -0.0678711,5.0127 0.14209,5.0127 0.289063,4.94271 0.373047,4.80273 0.317057,4.9987 0.170085,5.09668 -0.0678711,5.09668 M 2.95557,9.94678 C 3.2915,9.94678 3.56445,9.8068 3.77441,9.52686 3.67643,9.96077 3.40348,10.1777 2.95557,10.1777 2.57764,10.1777 2.31868,9.97477 2.17871,9.56885 2.15072,9.59684 2.12272,9.61084 2.09473,9.61084 c -0.32194,0 -0.51091,-0.16097 -0.5669,-0.48291 0.08399,0.20996 0.27295,0.31494 0.5669,0.31494 0.25195,0 0.44791,-0.10498 0.58789,-0.31494 C 2.65462,9.36589 2.50065,9.51286 2.2207,9.56885 2.41667,9.8208 2.66162,9.94678 2.95557,9.94678 M 0.331055,7.80518 c 0.279948,0 0.489909,-0.11198 0.629883,-0.33594 -0.05599,0.33594 -0.265951,0.5039 -0.629883,0.5039 -0.05599,0 -0.146973,-0.02799 -0.2729495,-0.08398 -0.05598961,0.22396 -0.1749675,0.40942 -0.3569335,0.5564 -0.181966,0.14697 -0.391927,0.22046 -0.629883,0.22046 -0.545899,0 -0.888839,-0.27295 -1.028809,-0.81885 0.23796,0.37793 0.58089,0.56689 1.028809,0.56689 0.405925,0 0.734863,-0.17496 0.9868165,-0.5249 C -0.109863,7.80518 -0.23584,7.6652 -0.319824,7.46924 -0.17985,7.6932 0.0371094,7.80518 0.331055,7.80518 M -5.61084,-0.488281 c -0.19596,0 -0.32194,-0.104981 -0.37793,-0.314942 0.11198,0.125977 0.23796,0.188965 0.37793,0.188965 0.13997,0 0.25195,-0.062988 0.33594,-0.188965 -0.19597,-0.055989 -0.30795,-0.181966 -0.33594,-0.377927 0.08398,0.16797 0.24495,0.251951 0.48291,0.251951 0.22396,0 0.37793,-0.083981 0.46191,-0.251951 -0.05599,0.279946 -0.20996,0.41992 -0.46191,0.41992 -0.02799,0 -0.05249,-0.006999 -0.07349,-0.020997 -0.02099,-0.013997 -0.04549,-0.020996 -0.07348,-0.020996 -0.05599,0.209961 -0.16797,0.314942 -0.33594,0.314942 M 1.77979,6.73438 C 1.7238,7.01432 1.55583,7.1543 1.27588,7.1543 0.981934,7.1543 0.806966,7.01432 0.750977,6.73438 0.834961,6.93034 1.00993,7.02832 1.27588,7.02832 c 0.22396,0 0.39193,-0.09798 0.50391,-0.29394 M 8.33057,4.31982 C 8.26058,4.61377 8.08561,4.76074 7.80566,4.76074 L 7.76367,4.69775 C 7.67969,5.04769 7.46273,5.22266 7.11279,5.22266 c -0.33593,0 -0.56689,-0.18897 -0.69287,-0.5669 0.15397,0.26595 0.38493,0.39893 0.69287,0.39893 0.23796,0 0.44092,-0.11898 0.60889,-0.35694 C 7.6377,4.66976 7.55021,4.62777 7.45923,4.57178 7.36825,4.51579 7.30876,4.4318 7.28076,4.31982 c 0.09798,0.16797 0.27295,0.25196 0.5249,0.25196 0.25196,0 0.42692,-0.08399 0.52491,-0.25196 M -10.335,3.16504 c 0.252,0 0.44796,-0.10498 0.58793,-0.31494 -0.11198,0.32194 -0.30793,0.48291 -0.58793,0.48291 -0.2939,0 -0.4969,-0.16097 -0.6088,-0.48291 0.1399,0.20996 0.3429,0.31494 0.6088,0.31494 m 3.52738,0.5459 c 0.22396,0.32194 0.5389,0.48291 0.94483,0.48291 0.41992,0 0.74886,-0.16097 0.98681,-0.48291 -0.13997,0.48991 -0.46891,0.73486 -0.98681,0.73486 -0.20996,0 -0.40593,-0.06299 -0.58789,-0.18896 -0.18197,-0.12598 -0.30095,-0.30795 -0.35694,-0.5459 m 0.29395,2.89746 c 0.22396,0 0.42342,-0.05949 0.59839,-0.17847 0.17496,-0.11898 0.31844,-0.24845 0.43042,-0.38843 -0.11198,0.46192 -0.39893,0.72087 -0.86084,0.77686 -0.19597,0.57389 -0.59489,0.86084 -1.19678,0.86084 -0.32194,0 -0.60189,-0.09448 -0.83984,-0.28345 -0.23796,-0.18896 -0.40593,-0.43742 -0.50391,-0.74536 0.15397,0.19596 0.34294,0.35693 0.56689,0.48291 0.22396,0.12598 0.48291,0.18897 0.77686,0.18897 0.22396,0 0.43042,-0.042 0.61938,-0.12598 0.18897,-0.08399 0.35344,-0.19596 0.49341,-0.33594 h -0.08398 c -0.5459,0 -0.88884,-0.27295 -1.02881,-0.81885 0.11198,0.13998 0.25545,0.26945 0.43042,0.38843 0.17497,0.11898 0.37443,0.17847 0.59839,0.17847 M 9.35938,6.46143 c -0.20997,0 -0.37094,-0.12598 -0.48292,-0.37793 0.11198,0.16796 0.27295,0.25195 0.48292,0.25195 0.16796,0 0.33593,-0.08399 0.5039,-0.25195 C 9.7513,6.33545 9.58333,6.46143 9.35938,6.46143 M -2.69238,6.29346 c 0.29394,0 0.5249,-0.11198 0.69287,-0.33594 -0.08399,0.33594 -0.31494,0.50391 -0.69287,0.50391 -0.33594,0 -0.5459,-0.16797 -0.62989,-0.50391 -0.06998,0.22396 -0.18896,0.40942 -0.35693,0.5564 -0.16797,0.14697 -0.36393,0.22046 -0.58789,0.22046 -0.23796,0 -0.44092,-0.07349 -0.60889,-0.22046 -0.16797,-0.14698 -0.30094,-0.33244 -0.39892,-0.5564 0.26595,0.33594 0.60189,0.50391 1.00781,0.50391 0.36393,0 0.67887,-0.16797 0.94482,-0.50391 0.13998,0.22396 0.34994,0.33594 0.62989,0.33594 M -3.93115,5.55859 c -0.32194,0 -0.5249,-0.15397 -0.60889,-0.46191 0.13997,0.22396 0.34294,0.33594 0.60889,0.33594 0.25195,0 0.45491,-0.11198 0.60888,-0.33594 -0.09798,0.30794 -0.30094,0.46191 -0.60888,0.46191 M 2.38867,4.19385 c 0.22396,0 0.41293,-0.09798 0.5669,-0.29395 -0.06999,0.30795 -0.25896,0.46192 -0.5669,0.46192 -0.29394,0 -0.49691,-0.15397 -0.60888,-0.46192 0.15397,0.19597 0.35693,0.29395 0.60888,0.29395"
         fill-rule="evenodd"
         vector-effect="none" />
    </g>
    <g
       id="g16"
       font-style="normal"
       font-weight="400"
       font-size="7.8px"
       font-family="'MS Shell Dlg 2'"
       stroke="none"
       fill-opacity="1"
       fill="#66b1e3" />
  </g>
</svg>
