<?xml version="1.0" encoding="UTF-8" standalone="no"?>
<svg width="11.2889mm" height="11.2889mm"
 viewBox="0 0 32 32"
 xmlns="http://www.w3.org/2000/svg" xmlns:xlink="http://www.w3.org/1999/xlink"  version="1.2" baseProfile="tiny">
<title>Qt SVG Document</title>
<desc>Generated with Qt</desc>
<defs>
</defs>
<g fill="none" stroke="black" stroke-width="1" fill-rule="evenodd" stroke-linecap="square" stroke-linejoin="bevel" >

<g fill="#66b1e3" fill-opacity="1" stroke="none" transform="matrix(1,0,0,1,0,0)"
font-family="MS Shell Dlg 2" font-size="7.8" font-weight="400" font-style="normal" 
>
<path vector-effect="non-scaling-stroke" fill-rule="evenodd" d="M37.2598,16 C37.2598,27.7415 27.7415,37.2598 16,37.2598 C4.25851,37.2598 -5.25984,27.7415 -5.25984,16 C-5.25984,4.25851 4.25851,-5.25984 16,-5.25984 C27.7415,-5.25984 37.2598,4.25851 37.2598,16 "/>
</g>

<g fill="#ffffff" fill-opacity="0.94902" stroke="none" transform="matrix(1,0,0,1,16,12.5984)"
font-family="MS Shell Dlg 2" font-size="7.8" font-weight="400" font-style="normal" 
>
<path vector-effect="none" fill-rule="evenodd" d="M7.28076,1.52734 C7.65869,1.63932 8.1696,1.81079 8.81348,2.04175 C9.45736,2.27271 10.0802,2.60164 10.6821,3.02856 C11.284,3.45549 11.8089,3.99089 12.2568,4.63477 C12.7048,5.27865 12.9287,6.0765 12.9287,7.02832 C12.9287,8.2321 12.5088,9.2959 11.6689,10.2197 C11.0111,10.9616 10.1537,11.539 9.09692,11.9519 C8.04012,12.3648 6.90983,12.5713 5.70605,12.5713 C5.52409,12.5713 5.34212,12.5713 5.16016,12.5713 C4.97819,12.5713 4.76823,12.5573 4.53027,12.5293 C3.8724,12.4453 3.26351,12.3473 2.70361,12.2354 C2.14372,12.1234 1.61182,11.9904 1.10791,11.8364 C0.40804,11.6405 -0.291829,11.4725 -0.991699,11.3325 C-1.69157,11.1925 -2.54541,11.1226 -3.55322,11.1226 L-4.05713,11.1226 C-5.86279,11.1226 -7.52498,10.8216 -9.0437,10.2197 C-10.5624,9.61784 -11.7417,8.78499 -12.5815,7.72119 C-13.6453,6.37744 -14.0583,4.81673 -13.8203,3.03906 C-13.7083,2.11523 -13.3444,1.2439 -12.7285,0.425049 C-12.1126,-0.393799 -11.3393,-1.11117 -10.4084,-1.72705 C-9.47762,-2.34294 -8.41732,-2.82935 -7.22754,-3.18628 C-6.03776,-3.54321 -4.81299,-3.72168 -3.55322,-3.72168 L-3.02832,-3.72168 C-1.99251,-3.66569 -1.08268,-3.52922 -0.298828,-3.31226 C0.485026,-3.0953 1.1709,-2.82935 1.75879,-2.5144 C2.34668,-2.19946 2.86458,-1.84953 3.3125,-1.4646 C3.76042,-1.07967 4.16634,-0.71224 4.53027,-0.362305 C4.99219,0.0716146 5.42261,0.453044 5.82153,0.781982 C6.22046,1.11092 6.70687,1.35938 7.28076,1.52734 M11.165,9.69482 C11.529,9.2889 11.7984,8.86548 11.9734,8.42456 C12.1484,7.98364 12.2358,7.51823 12.2358,7.02832 C12.2358,6.31445 12.0784,5.69857 11.7634,5.18066 C11.4485,4.66276 11.0461,4.21834 10.5562,3.84741 C10.0662,3.47648 9.52035,3.16154 8.91846,2.90259 C8.31657,2.64364 7.71468,2.43018 7.11279,2.26221 C6.45492,2.05225 5.90552,1.7688 5.4646,1.41187 C5.02368,1.05493 4.57227,0.645508 4.11035,0.183594 C3.70443,-0.152344 3.295,-0.498779 2.88208,-0.855713 C2.46916,-1.21265 1.98275,-1.54159 1.42285,-1.84253 C0.862956,-2.14347 0.219076,-2.39543 -0.508789,-2.59839 C-1.23665,-2.80135 -2.09049,-2.91683 -3.07031,-2.94482 C-3.1263,-2.94482 -3.19979,-2.95182 -3.29077,-2.96582 C-3.38175,-2.97982 -3.46924,-2.98682 -3.55322,-2.98682 C-4.729,-2.98682 -5.86629,-2.82235 -6.96509,-2.49341 C-8.06388,-2.16447 -9.0507,-1.72005 -9.92554,-1.16016 C-10.8004,-0.60026 -11.5247,0.0506185 -12.0986,0.79248 C-12.6725,1.53434 -13.0155,2.3112 -13.1274,3.12305 C-13.3654,4.66276 -13.0085,6.03451 -12.0566,7.23828 C-11.3148,8.2181 -10.2265,8.98796 -8.79175,9.54785 C-7.35701,10.1077 -5.77881,10.3877 -4.05713,10.3877 L-3.55322,10.3877 C-2.51742,10.3877 -1.63208,10.4577 -0.897217,10.5977 C-0.162354,10.7376 0.562012,10.8986 1.27588,11.0806 C1.76579,11.2205 2.28019,11.3535 2.81909,11.4795 C3.35799,11.6055 3.95638,11.6965 4.61426,11.7524 C4.82422,11.7804 5.01318,11.8014 5.18115,11.8154 C5.34912,11.8294 5.52409,11.8364 5.70605,11.8364 C6.82585,11.8364 7.87215,11.644 8.84497,11.259 C9.81779,10.8741 10.5911,10.3527 11.165,9.69482 M6.94482,2.99707 C8.52653,3.47298 9.68831,4.02588 10.4302,4.65576 C11.172,5.28564 11.543,6.0765 11.543,7.02832 C11.543,7.6582 11.3645,8.2391 11.0076,8.771 C10.6506,9.3029 10.1572,9.75431 9.52734,10.1252 C8.89746,10.4962 8.1661,10.7691 7.33325,10.9441 C6.50041,11.1191 5.62907,11.1506 4.71924,11.0386 C3.90739,10.9406 3.18652,10.8076 2.55664,10.6396 C1.92676,10.4717 1.29688,10.3072 0.666992,10.1462 C0.0371094,9.98527 -0.634766,9.85579 -1.34863,9.75781 C-2.0625,9.65983 -2.89535,9.61084 -3.84717,9.61084 C-4.96696,9.63883 -6.07275,9.52336 -7.16455,9.2644 C-8.25635,9.00545 -9.21517,8.61003 -10.041,8.07813 C-10.8669,7.54622 -11.5107,6.88135 -11.9727,6.0835 C-12.4346,5.28564 -12.5955,4.34082 -12.4556,3.24902 C-12.3576,2.50716 -12.0251,1.78979 -11.4583,1.09692 C-10.8914,0.404053 -10.1705,-0.190837 -9.29565,-0.687744 C-8.42082,-1.18465 -7.4445,-1.56958 -6.3667,-1.84253 C-5.2889,-2.11548 -4.1901,-2.23796 -3.07031,-2.20996 C-1.55859,-2.15397 -0.358317,-1.90552 0.530518,-1.4646 C1.41935,-1.02368 2.18921,-0.516276 2.84009,0.0576172 C3.49097,0.63151 4.11035,1.19141 4.69824,1.7373 C5.28613,2.2832 6.03499,2.70313 6.94482,2.99707 M10.3882,8.83398 C10.9061,8.28809 11.165,7.6862 11.165,7.02832 C11.165,6.45443 10.9761,5.93652 10.5981,5.47461 C10.4862,5.74056 10.2832,5.87354 9.98926,5.87354 C9.68132,5.87354 9.47135,5.68457 9.35938,5.30664 C9.49935,5.57259 9.70931,5.70557 9.98926,5.70557 C10.1992,5.70557 10.3882,5.61458 10.5562,5.43262 C9.92627,4.63477 8.6805,3.96289 6.81885,3.41699 C6.07699,3.19303 5.4401,2.87109 4.9082,2.45117 C4.3763,2.03125 3.8654,1.59733 3.37549,1.14941 C2.99756,0.799479 2.61613,0.460042 2.2312,0.131104 C1.84627,-0.197835 1.40885,-0.49528 0.918945,-0.76123 C0.778971,-0.383301 0.492025,-0.194336 0.0581055,-0.194336 C-0.389811,-0.194336 -0.690755,-0.43929 -0.844727,-0.929199 C-0.578776,-0.579264 -0.277832,-0.404297 0.0581055,-0.404297 C0.380046,-0.404297 0.638997,-0.537272 0.834961,-0.803223 C0.345052,-1.05518 -0.214844,-1.26864 -0.844727,-1.4436 C-1.47461,-1.61857 -2.23047,-1.72005 -3.1123,-1.74805 L-3.55322,-1.74805 C-4.60303,-1.74805 -5.67383,-1.58708 -6.76563,-1.26514 C-6.59766,-1.15316 -6.44368,-1.09717 -6.30371,-1.09717 C-6.00977,-1.09717 -5.79281,-1.20915 -5.65283,-1.43311 C-5.73682,-1.09717 -5.95378,-0.929199 -6.30371,-0.929199 C-6.52767,-0.929199 -6.70964,-1.04118 -6.84961,-1.26514 C-8.23535,-0.831217 -9.41463,-0.201335 -10.3875,0.624512 C-11.3603,1.45036 -11.9167,2.33919 -12.0566,3.29102 C-12.1126,3.62695 -12.1126,3.95589 -12.0566,4.27783 C-11.9727,4.36182 -11.8607,4.4388 -11.7207,4.50879 C-11.5807,4.57878 -11.4338,4.61377 -11.2798,4.61377 C-10.8879,4.61377 -10.5589,4.4458 -10.293,4.10986 C-10.377,4.54378 -10.6499,4.78874 -11.1118,4.84473 C-10.9998,5.0127 -10.8109,5.09668 -10.5449,5.09668 C-10.237,5.09668 -9.98503,4.9637 -9.78906,4.69775 C-9.90104,5.10368 -10.153,5.30664 -10.5449,5.30664 C-10.8389,5.30664 -11.0558,5.16667 -11.1958,4.88672 L-11.2798,4.88672 C-11.6017,4.88672 -11.8607,4.75374 -12.0566,4.48779 C-11.9167,5.22965 -11.6437,5.87354 -11.2378,6.41943 C-10.5799,7.28727 -9.6071,7.96265 -8.31934,8.44556 C-7.03158,8.92847 -5.61084,9.16992 -4.05713,9.16992 L-3.55322,9.16992 C-2.46143,9.16992 -1.5201,9.25041 -0.729248,9.41138 C0.0616048,9.57235 0.813965,9.73682 1.52783,9.90479 C2.01774,10.0588 2.52165,10.1917 3.03955,10.3037 C3.55745,10.4157 4.13135,10.4997 4.76123,10.5557 C4.9012,10.5837 5.05518,10.6047 5.22314,10.6187 C5.39111,10.6326 5.55208,10.6396 5.70605,10.6396 C6.67188,10.6396 7.57121,10.4822 8.40405,10.1672 C9.2369,9.85229 9.89827,9.40788 10.3882,8.83398 M-7.71045,1.40137 C-7.9484,1.40137 -8.16536,1.31388 -8.36133,1.13892 C-8.55729,0.963949 -8.70426,0.764486 -8.80225,0.540527 C-8.67627,0.680501 -8.5223,0.806478 -8.34033,0.918457 C-8.15837,1.03044 -7.9484,1.08643 -7.71045,1.08643 C-7.4585,1.08643 -7.23804,1.03044 -7.04907,0.918457 C-6.86011,0.806478 -6.70964,0.680501 -6.59766,0.540527 C-6.68164,0.820475 -6.85661,1.05143 -7.12256,1.2334 C-7.02458,1.31738 -6.9196,1.39437 -6.80762,1.46436 C-6.69564,1.53434 -6.56966,1.56934 -6.42969,1.56934 C-6.10775,1.56934 -5.8488,1.42936 -5.65283,1.14941 C-5.76481,1.54134 -6.02376,1.7373 -6.42969,1.7373 C-6.76563,1.7373 -7.01058,1.56934 -7.16455,1.2334 C-7.30452,1.34538 -7.48649,1.40137 -7.71045,1.40137 M2.64063,3.16504 C2.38867,3.16504 2.15422,3.07756 1.93726,2.90259 C1.7203,2.72762 1.58382,2.50016 1.52783,2.22021 C1.75179,2.64014 2.12272,2.8501 2.64063,2.8501 C3.18652,2.8501 3.57845,2.64014 3.81641,2.22021 C3.71842,2.71012 3.44548,2.99707 2.99756,3.08105 C3.16553,3.30501 3.40348,3.41699 3.71143,3.41699 C4.08936,3.41699 4.3763,3.27702 4.57227,2.99707 C4.46029,3.44499 4.17334,3.66895 3.71143,3.66895 C3.37549,3.66895 3.10954,3.48698 2.91357,3.12305 C2.84359,3.12305 2.7946,3.13005 2.7666,3.14404 C2.73861,3.15804 2.69661,3.16504 2.64063,3.16504 M-2.0415,1.48535 C-2.5874,1.48535 -2.93034,1.2124 -3.07031,0.666504 C-2.95833,0.806478 -2.81486,0.935954 -2.63989,1.05493 C-2.46493,1.17391 -2.26546,1.2334 -2.0415,1.2334 C-1.66357,1.2334 -1.34863,1.07243 -1.09668,0.750488 L-1.13867,0.750488 C-1.39063,0.750488 -1.57959,0.596517 -1.70557,0.288574 C-1.5516,0.484538 -1.36263,0.58252 -1.13867,0.58252 C-0.886719,0.58252 -0.683757,0.484538 -0.529785,0.288574 C-0.585775,0.568522 -0.760742,0.708496 -1.05469,0.708496 C-1.19466,1.2264 -1.5236,1.48535 -2.0415,1.48535 M-4.26709,8.62402 C-3.98714,8.62402 -3.74919,8.49105 -3.55322,8.2251 C-3.63721,8.60303 -3.87516,8.79199 -4.26709,8.79199 C-4.64502,8.79199 -4.87598,8.60303 -4.95996,8.2251 C-4.764,8.49105 -4.53304,8.62402 -4.26709,8.62402 M9.48535,9.12793 C9.82129,9.12793 10.0942,8.97396 10.3042,8.66602 C10.1922,9.12793 9.91927,9.35889 9.48535,9.35889 C9.45736,9.35889 9.43636,9.35189 9.42236,9.33789 C9.40837,9.32389 9.38737,9.31689 9.35938,9.31689 C9.2194,9.62484 8.98844,9.77881 8.6665,9.77881 C8.28857,9.77881 8.05762,9.59684 7.97363,9.23291 C8.11361,9.48486 8.34456,9.61084 8.6665,9.61084 C8.89046,9.61084 9.10742,9.51286 9.31738,9.31689 C8.96745,9.21891 8.75049,9.00195 8.6665,8.66602 C8.86247,8.97396 9.13542,9.12793 9.48535,9.12793 M6.56689,9.90479 C6.81885,9.90479 7.01481,9.8068 7.15479,9.61084 C7.0988,9.91878 6.90283,10.0728 6.56689,10.0728 C6.24495,10.0728 6.02799,9.91878 5.91602,9.61084 C6.05599,9.8068 6.27295,9.90479 6.56689,9.90479 M5.91602,6.94434 C5.86003,7.16829 5.75155,7.34676 5.59058,7.47974 C5.42961,7.61271 5.23714,7.6792 5.01318,7.6792 C4.57926,7.6792 4.29232,7.43424 4.15234,6.94434 C4.34831,7.26628 4.63525,7.42725 5.01318,7.42725 C5.41911,7.42725 5.72005,7.26628 5.91602,6.94434 M6.73486,7.84717 C6.67887,8.2251 6.46191,8.41406 6.08398,8.41406 C5.94401,8.41406 5.80754,8.35457 5.67456,8.2356 C5.54159,8.11662 5.4471,7.98714 5.39111,7.84717 C5.60107,8.09912 5.83203,8.2251 6.08398,8.2251 C6.37793,8.2251 6.59489,8.09912 6.73486,7.84717 M-0.928711,4.57178 C-0.71875,4.57178 -0.571777,4.50179 -0.487793,4.36182 C-0.543783,4.58577 -0.690755,4.69775 -0.928711,4.69775 C-1.09668,4.69775 -1.23665,4.58577 -1.34863,4.36182 C-1.26465,4.50179 -1.12467,4.57178 -0.928711,4.57178 M-0.0678711,5.09668 C-0.263835,5.09668 -0.403809,4.9987 -0.487793,4.80273 C-0.403809,4.94271 -0.263835,5.0127 -0.0678711,5.0127 C0.14209,5.0127 0.289063,4.94271 0.373047,4.80273 C0.317057,4.9987 0.170085,5.09668 -0.0678711,5.09668 M2.95557,9.94678 C3.2915,9.94678 3.56445,9.8068 3.77441,9.52686 C3.67643,9.96077 3.40348,10.1777 2.95557,10.1777 C2.57764,10.1777 2.31868,9.97477 2.17871,9.56885 C2.15072,9.59684 2.12272,9.61084 2.09473,9.61084 C1.77279,9.61084 1.58382,9.44987 1.52783,9.12793 C1.61182,9.33789 1.80078,9.44287 2.09473,9.44287 C2.34668,9.44287 2.54264,9.33789 2.68262,9.12793 C2.65462,9.36589 2.50065,9.51286 2.2207,9.56885 C2.41667,9.8208 2.66162,9.94678 2.95557,9.94678 M0.331055,7.80518 C0.611003,7.80518 0.820964,7.6932 0.960938,7.46924 C0.904948,7.80518 0.694987,7.97314 0.331055,7.97314 C0.275065,7.97314 0.184082,7.94515 0.0581055,7.88916 C0.00211589,8.11312 -0.116862,8.29858 -0.298828,8.44556 C-0.480794,8.59253 -0.690755,8.66602 -0.928711,8.66602 C-1.47461,8.66602 -1.81755,8.39307 -1.95752,7.84717 C-1.71956,8.2251 -1.37663,8.41406 -0.928711,8.41406 C-0.522786,8.41406 -0.193848,8.2391 0.0581055,7.88916 C-0.109863,7.80518 -0.23584,7.6652 -0.319824,7.46924 C-0.17985,7.6932 0.0371094,7.80518 0.331055,7.80518 M-5.61084,-0.488281 C-5.8068,-0.488281 -5.93278,-0.593262 -5.98877,-0.803223 C-5.87679,-0.677246 -5.75081,-0.614258 -5.61084,-0.614258 C-5.47087,-0.614258 -5.35889,-0.677246 -5.2749,-0.803223 C-5.47087,-0.859212 -5.58285,-0.985189 -5.61084,-1.18115 C-5.52686,-1.01318 -5.36589,-0.929199 -5.12793,-0.929199 C-4.90397,-0.929199 -4.75,-1.01318 -4.66602,-1.18115 C-4.72201,-0.901204 -4.87598,-0.76123 -5.12793,-0.76123 C-5.15592,-0.76123 -5.18042,-0.768229 -5.20142,-0.782227 C-5.22241,-0.796224 -5.24691,-0.803223 -5.2749,-0.803223 C-5.33089,-0.593262 -5.44287,-0.488281 -5.61084,-0.488281 M1.77979,6.73438 C1.7238,7.01432 1.55583,7.1543 1.27588,7.1543 C0.981934,7.1543 0.806966,7.01432 0.750977,6.73438 C0.834961,6.93034 1.00993,7.02832 1.27588,7.02832 C1.49984,7.02832 1.66781,6.93034 1.77979,6.73438 M8.33057,4.31982 C8.26058,4.61377 8.08561,4.76074 7.80566,4.76074 L7.76367,4.69775 C7.67969,5.04769 7.46273,5.22266 7.11279,5.22266 C6.77686,5.22266 6.5459,5.03369 6.41992,4.65576 C6.57389,4.92171 6.80485,5.05469 7.11279,5.05469 C7.35075,5.05469 7.55371,4.93571 7.72168,4.69775 C7.6377,4.66976 7.55021,4.62777 7.45923,4.57178 C7.36825,4.51579 7.30876,4.4318 7.28076,4.31982 C7.37874,4.48779 7.55371,4.57178 7.80566,4.57178 C8.05762,4.57178 8.23258,4.48779 8.33057,4.31982 M-10.335,3.16504 C-10.083,3.16504 -9.88704,3.06006 -9.74707,2.8501 C-9.85905,3.17204 -10.055,3.33301 -10.335,3.33301 C-10.6289,3.33301 -10.8319,3.17204 -10.9438,2.8501 C-10.8039,3.06006 -10.6009,3.16504 -10.335,3.16504 M-6.80762,3.71094 C-6.58366,4.03288 -6.26872,4.19385 -5.86279,4.19385 C-5.44287,4.19385 -5.11393,4.03288 -4.87598,3.71094 C-5.01595,4.20085 -5.34489,4.4458 -5.86279,4.4458 C-6.07275,4.4458 -6.26872,4.38281 -6.45068,4.25684 C-6.63265,4.13086 -6.75163,3.94889 -6.80762,3.71094 M-6.51367,6.6084 C-6.28971,6.6084 -6.09025,6.54891 -5.91528,6.42993 C-5.74032,6.31095 -5.59684,6.18148 -5.48486,6.0415 C-5.59684,6.50342 -5.88379,6.76237 -6.3457,6.81836 C-6.54167,7.39225 -6.94059,7.6792 -7.54248,7.6792 C-7.86442,7.6792 -8.14437,7.58472 -8.38232,7.39575 C-8.62028,7.20679 -8.78825,6.95833 -8.88623,6.65039 C-8.73226,6.84635 -8.54329,7.00732 -8.31934,7.1333 C-8.09538,7.25928 -7.83643,7.32227 -7.54248,7.32227 C-7.31852,7.32227 -7.11206,7.28027 -6.9231,7.19629 C-6.73413,7.1123 -6.56966,7.00033 -6.42969,6.86035 L-6.51367,6.86035 C-7.05957,6.86035 -7.40251,6.5874 -7.54248,6.0415 C-7.4305,6.18148 -7.28703,6.31095 -7.11206,6.42993 C-6.93709,6.54891 -6.73763,6.6084 -6.51367,6.6084 M9.35938,6.46143 C9.14941,6.46143 8.98844,6.33545 8.87646,6.0835 C8.98844,6.25146 9.14941,6.33545 9.35938,6.33545 C9.52734,6.33545 9.69531,6.25146 9.86328,6.0835 C9.7513,6.33545 9.58333,6.46143 9.35938,6.46143 M-2.69238,6.29346 C-2.39844,6.29346 -2.16748,6.18148 -1.99951,5.95752 C-2.0835,6.29346 -2.31445,6.46143 -2.69238,6.46143 C-3.02832,6.46143 -3.23828,6.29346 -3.32227,5.95752 C-3.39225,6.18148 -3.51123,6.36694 -3.6792,6.51392 C-3.84717,6.66089 -4.04313,6.73438 -4.26709,6.73438 C-4.50505,6.73438 -4.70801,6.66089 -4.87598,6.51392 C-5.04395,6.36694 -5.17692,6.18148 -5.2749,5.95752 C-5.00895,6.29346 -4.67301,6.46143 -4.26709,6.46143 C-3.90316,6.46143 -3.58822,6.29346 -3.32227,5.95752 C-3.18229,6.18148 -2.97233,6.29346 -2.69238,6.29346 M-3.93115,5.55859 C-4.25309,5.55859 -4.45605,5.40462 -4.54004,5.09668 C-4.40007,5.32064 -4.1971,5.43262 -3.93115,5.43262 C-3.6792,5.43262 -3.47624,5.32064 -3.32227,5.09668 C-3.42025,5.40462 -3.62321,5.55859 -3.93115,5.55859 M2.38867,4.19385 C2.61263,4.19385 2.8016,4.09587 2.95557,3.8999 C2.88558,4.20785 2.69661,4.36182 2.38867,4.36182 C2.09473,4.36182 1.89176,4.20785 1.77979,3.8999 C1.93376,4.09587 2.13672,4.19385 2.38867,4.19385 "/>
</g>

<g fill="#66b1e3" fill-opacity="1" stroke="none" transform="matrix(1,0,0,1,0,0)"
font-family="MS Shell Dlg 2" font-size="7.8" font-weight="400" font-style="normal" 
>
</g>
</g>
</svg>
