<?xml version="1.0" encoding="UTF-8" standalone="no"?>
<svg width="11.25008mm" height="11.25008mm"
 viewBox="-5.3 -5.3 42.52000 42.52000"
 xmlns="http://www.w3.org/2000/svg" xmlns:xlink="http://www.w3.org/1999/xlink"  version="1.2" baseProfile="tiny">
<title>Qt SVG Document</title>
<desc>Generated with Qt</desc>
<defs>
</defs>
<g fill="none" stroke="black" stroke-width="1" fill-rule="evenodd" stroke-linecap="square" stroke-linejoin="bevel" >

<g fill="#66b1e3" fill-opacity="1" stroke="none" transform="matrix(1,0,0,1,0,0)"
font-family="MS Shell Dlg 2" font-size="7.8" font-weight="400" font-style="normal" 
>
<path vector-effect="non-scaling-stroke" fill-rule="evenodd" d="M37.2598,16 C37.2598,27.7415 27.7415,37.2598 16,37.2598 C4.25851,37.2598 -5.25984,27.7415 -5.25984,16 C-5.25984,4.25851 4.25851,-5.25984 16,-5.25984 C27.7415,-5.25984 37.2598,4.25851 37.2598,16 "/>
</g>

<g fill="#ffffff" fill-opacity="0.94902" stroke="none" transform="matrix(1,0,0,1,16,12.5984)"
font-family="MS Shell Dlg 2" font-size="7.8" font-weight="400" font-style="normal" 
>
<path vector-effect="none" fill-rule="evenodd" d="M-1.41553,-1.34912 C-1.66748,-1.53109 -1.88094,-1.73405 -2.05591,-1.95801 C-2.23088,-2.18197 -2.36035,-2.41292 -2.44434,-2.65088 C-2.55632,-2.90283 -2.6403,-3.16178 -2.69629,-3.42773 C-2.03841,-4.71549 -1.51001,-5.73031 -1.11108,-6.47217 C-0.712158,-7.21403 -0.309733,-7.62695 0.0961914,-7.71094 C0.376139,-7.76693 0.705078,-7.58846 1.08301,-7.17554 C1.46094,-6.76261 1.83187,-6.2972 2.1958,-5.7793 C2.60173,-5.17741 3.03564,-4.47754 3.49756,-3.67969 L3.8335,-3.67969 C3.94548,-3.65169 4.06795,-3.6237 4.20093,-3.5957 C4.3339,-3.56771 4.47038,-3.47673 4.61035,-3.32275 C4.98828,-3.01481 5.34172,-2.57389 5.67065,-2 C5.99959,-1.42611 6.34603,-0.810221 6.70996,-0.152344 C6.43001,-0.502279 6.13257,-0.81722 5.81763,-1.09717 C5.50269,-1.37712 5.19474,-1.59058 4.8938,-1.73755 C4.59285,-1.88452 4.3339,-1.93001 4.11694,-1.87402 C3.89998,-1.81803 3.76351,-1.61507 3.70752,-1.26514 C3.65153,-0.929199 3.58854,-0.624756 3.51855,-0.351807 C3.44857,-0.0788574 3.32609,0.124105 3.15112,0.25708 C2.97616,0.390055 2.7312,0.435547 2.41626,0.393555 C2.10132,0.351563 1.6849,0.155599 1.16699,-0.194336 C0.915039,-0.362305 0.687581,-0.474284 0.484619,-0.530273 C0.281657,-0.586263 0.0856934,-0.645752 -0.103271,-0.70874 C-0.292236,-0.771729 -0.491699,-0.845215 -0.70166,-0.929199 C-0.911621,-1.01318 -1.14958,-1.15316 -1.41553,-1.34912 M-7.4834,1.08643 C-7.79134,0.778483 -8.07479,0.645508 -8.33374,0.6875 C-8.59269,0.729492 -8.85164,0.837972 -9.1106,1.01294 C-9.36955,1.18791 -9.6215,1.37337 -9.86646,1.56934 C-10.1114,1.7653 -10.3459,1.84928 -10.5698,1.82129 C-10.2619,1.2194 -9.99243,0.677002 -9.76147,0.194092 C-9.53052,-0.288818 -9.35905,-0.607259 -9.24707,-0.76123 C-9.03711,-1.06917 -8.86214,-1.29663 -8.72217,-1.4436 C-8.58219,-1.59058 -8.44222,-1.69206 -8.30225,-1.74805 C-8.17627,-1.80404 -8.04329,-1.80404 -7.90332,-1.74805 C-7.62337,-2.5179 -7.32243,-3.18978 -7.00049,-3.76367 C-6.74854,-4.25358 -6.47209,-4.691 -6.17114,-5.07593 C-5.8702,-5.46086 -5.57275,-5.59733 -5.27881,-5.48535 C-5.19482,-5.42936 -5.06535,-5.30688 -4.89038,-5.11792 C-4.71541,-4.92896 -4.52995,-4.705 -4.33398,-4.44604 C-4.13802,-4.18709 -3.93856,-3.91414 -3.7356,-3.6272 C-3.53263,-3.34025 -3.36117,-3.0848 -3.22119,-2.86084 C-3.08122,-2.63688 -2.97974,-2.40942 -2.91675,-2.17847 C-2.85376,-1.94751 -2.77327,-1.68856 -2.67529,-1.40161 C-2.57731,-1.11466 -2.41284,-0.792725 -2.18188,-0.435791 C-1.95093,-0.0788574 -1.61149,0.330566 -1.16357,0.79248 C-0.925618,1.05843 -0.806641,1.28939 -0.806641,1.48535 C-0.806641,1.68132 -0.876628,1.84928 -1.0166,1.98926 C-1.17057,2.17122 -1.38753,2.33219 -1.66748,2.47217 C-2.18538,2.55615 -2.60881,2.43368 -2.93774,2.10474 C-3.26668,1.7758 -3.54663,1.40487 -3.77759,0.991943 C-4.00854,0.57902 -4.2255,0.208089 -4.42847,-0.12085 C-4.63143,-0.449788 -4.85889,-0.572266 -5.11084,-0.488281 C-5.39079,-0.376302 -5.61825,-0.176839 -5.79321,0.110107 C-5.96818,0.397054 -6.12565,0.670003 -6.26563,0.928955 C-6.4056,1.18791 -6.57007,1.35938 -6.75903,1.44336 C-6.948,1.52734 -7.18945,1.40837 -7.4834,1.08643 M-1.66748,6.46143 C-1.47152,6.95133 -1.38053,7.42725 -1.39453,7.88916 C-1.40853,8.35107 -1.538,8.90397 -1.78296,9.54785 C-2.02791,10.1917 -2.40584,10.9581 -2.91675,11.8469 C-3.42765,12.7358 -4.08903,13.8381 -4.90088,15.1538 C-5.04085,15.1538 -5.24731,15.1608 -5.52026,15.1748 C-5.79321,15.1888 -6.09766,15.1958 -6.43359,15.1958 C-7.03548,15.1958 -7.71785,15.1678 -8.48071,15.1118 C-9.24357,15.0558 -9.96094,14.9403 -10.6328,14.7654 C-11.3047,14.5904 -11.8716,14.3385 -12.3335,14.0095 C-12.7954,13.6806 -13.0264,13.2292 -13.0264,12.6553 L-13.0264,5.05469 C-12.8164,4.67676 -12.463,4.25334 -11.9661,3.78442 C-11.4692,3.31551 -11.1017,2.8641 -10.8638,2.43018 C-10.7518,2.48617 -10.6538,2.51416 -10.5698,2.51416 C-10.2619,2.51416 -9.99243,2.43717 -9.76147,2.2832 C-9.53052,2.12923 -9.29606,1.97526 -9.05811,1.82129 C-8.91813,1.70931 -8.77816,1.60433 -8.63818,1.50635 C-8.49821,1.40837 -8.38623,1.35938 -8.30225,1.35938 C-8.17627,1.35938 -8.07129,1.42936 -7.9873,1.56934 C-7.55339,1.94727 -7.18245,2.13623 -6.87451,2.13623 C-6.52458,2.13623 -6.25163,2.00675 -6.05566,1.7478 C-5.8597,1.48885 -5.68473,1.2404 -5.53076,1.00244 C-5.3348,0.610514 -5.15283,0.337565 -4.98486,0.183594 C-4.92887,0.281576 -4.85539,0.393555 -4.7644,0.519531 C-4.67342,0.645508 -4.59993,0.764486 -4.54395,0.876465 C-4.31999,1.33838 -4.01554,1.81429 -3.63062,2.3042 C-3.24569,2.79411 -2.68929,3.03906 -1.96143,3.03906 C-1.76546,3.03906 -1.66748,3.01107 -1.66748,2.95508 L-1.62549,2.95508 C-1.59749,2.95508 -1.53451,2.92358 -1.43652,2.8606 C-1.33854,2.79761 -1.26156,2.76611 -1.20557,2.76611 C-1.20557,2.76611 -1.19157,2.78011 -1.16357,2.80811 L-1.33154,2.99707 L-1.49951,3.16504 C-1.90544,3.65495 -2.1154,4.13436 -2.12939,4.60327 C-2.14339,5.07218 -1.98942,5.69157 -1.66748,6.46143 M-2.44434,9.31689 C-2.22038,8.71501 -2.1084,8.2181 -2.1084,7.82617 C-2.1084,7.43424 -2.17839,7.08431 -2.31836,6.77637 C-2.54232,6.17448 -2.69979,5.62858 -2.79077,5.13867 C-2.88175,4.64876 -2.82227,4.15885 -2.6123,3.66895 C-3.1862,3.52897 -3.6901,3.22803 -4.12402,2.76611 C-4.48796,2.40218 -4.7889,1.98926 -5.02686,1.52734 C-5.19482,1.7793 -5.36279,2.02425 -5.53076,2.26221 C-5.93669,2.65413 -6.3846,2.8501 -6.87451,2.8501 C-7.36442,2.8501 -7.86833,2.62614 -8.38623,2.17822 C-8.44222,2.23421 -8.48421,2.26921 -8.51221,2.2832 C-8.5402,2.2972 -8.58219,2.33219 -8.63818,2.38818 C-8.86214,2.55615 -9.13159,2.74162 -9.44653,2.94458 C-9.76147,3.14754 -10.1219,3.24902 -10.5278,3.24902 C-10.6678,3.41699 -10.8253,3.59546 -11.0002,3.78442 C-11.1752,3.97339 -11.3327,4.15186 -11.4727,4.31982 C-11.6126,4.4598 -11.7631,4.61727 -11.9241,4.79224 C-12.085,4.9672 -12.2075,5.12467 -12.2915,5.26465 L-12.2915,12.6553 C-12.2915,12.9772 -12.1445,13.2362 -11.8506,13.4321 C-11.5706,13.6981 -11.1017,13.915 -10.4438,14.083 C-9.46403,14.335 -8.12728,14.4609 -6.43359,14.4609 L-5.36279,14.4609 L-5.3208,14.4609 C-4.57894,13.2292 -3.97005,12.2074 -3.49414,11.3955 C-3.01823,10.5837 -2.66829,9.89079 -2.44434,9.31689 M7.0249,0.414551 C7.33285,0.960449 7.82275,1.43986 8.49463,1.85278 C9.1665,2.26571 9.84188,2.66463 10.5208,3.04956 C11.1996,3.43449 11.7945,3.82992 12.3054,4.23584 C12.8163,4.64176 13.0718,5.11768 13.0718,5.66357 L13.0718,11.5845 C13.0718,12.7043 12.7498,13.5861 12.106,14.23 C11.4621,14.8739 10.6432,15.1958 9.64941,15.1958 C9.32747,15.1958 9.10352,15.1958 8.97754,15.1958 C8.85156,15.1958 8.69409,15.1958 8.50513,15.1958 C8.31616,15.1958 8.03621,15.1888 7.66528,15.1748 C7.29435,15.1608 6.70296,15.1538 5.89111,15.1538 C6.10107,14.118 6.19906,13.2012 6.18506,12.4033 C6.17106,11.6055 6.05558,10.8776 5.83862,10.2197 C5.62166,9.56185 5.32072,8.95296 4.93579,8.39307 C4.55086,7.83317 4.09945,7.26628 3.58154,6.69238 C3.14762,6.23047 2.7242,5.78255 2.31128,5.34863 C1.89836,4.91471 1.6429,4.4738 1.54492,4.02588 L1.54492,3.45898 C1.54492,3.29102 1.56592,3.15104 1.60791,3.03906 C1.77588,2.40918 1.83887,1.89128 1.79688,1.48535 C1.75488,1.07943 1.6429,0.736491 1.46094,0.456543 C2.03483,0.84847 2.51074,1.04443 2.88867,1.04443 C3.14063,1.04443 3.35409,0.981445 3.52905,0.855469 C3.70402,0.729492 3.84049,0.572021 3.93848,0.383057 C4.03646,0.194092 4.11694,-0.0123698 4.17993,-0.236328 C4.24292,-0.460286 4.28841,-0.677246 4.31641,-0.887207 C4.3444,-0.943197 4.3584,-0.999186 4.3584,-1.05518 C4.3584,-1.16715 4.3724,-1.23714 4.40039,-1.26514 C4.54036,-1.20915 4.78182,-1.05868 5.12476,-0.813721 C5.46769,-0.568766 5.82813,-0.201335 6.20605,0.288574 C6.31803,0.456543 6.486,0.540527 6.70996,0.540527 C6.82194,0.540527 6.92692,0.498535 7.0249,0.414551 M12.3579,5.66357 C12.3579,5.28564 12.092,4.91821 11.5601,4.56128 C11.0282,4.20435 10.4473,3.85091 9.81738,3.50098 C9.24349,3.16504 8.6766,2.8221 8.1167,2.47217 C7.5568,2.12223 7.08789,1.72331 6.70996,1.27539 C6.29004,1.27539 5.93311,1.08643 5.63916,0.708496 C5.33122,0.358561 5.07227,0.0996094 4.8623,-0.0683594 C4.80632,0.197591 4.72233,0.456543 4.61035,0.708496 C4.38639,1.14242 4.10645,1.42236 3.77051,1.54834 C3.43457,1.67432 3.14063,1.7373 2.88867,1.7373 L2.51074,1.7373 C2.51074,1.97526 2.49325,2.21322 2.45825,2.45117 C2.42326,2.68913 2.36377,2.94108 2.27979,3.20703 L2.27979,3.45898 L2.27979,3.94189 C2.33577,4.19385 2.49325,4.4703 2.7522,4.77124 C3.01115,5.07218 3.3016,5.38363 3.62354,5.70557 C3.67952,5.78955 3.74951,5.87354 3.8335,5.95752 C3.91748,6.0415 4.00146,6.12549 4.08545,6.20947 C4.54736,6.69938 5.00228,7.25228 5.4502,7.86816 C5.89811,8.48405 6.24805,9.19092 6.5,9.98877 C6.93392,11.2905 7.0179,12.7813 6.75195,14.4609 L8.0957,14.4609 L9.64941,14.4609 C10.4473,14.4609 11.0911,14.209 11.5811,13.7051 C12.099,13.1872 12.3579,12.4803 12.3579,11.5845 L12.3579,5.66357 M1.08301,2.89209 C0.971029,3.32601 0.957031,3.72843 1.04102,4.09937 C1.125,4.4703 1.26147,4.83073 1.45044,5.18066 C1.6394,5.5306 1.86336,5.86304 2.12231,6.17798 C2.38127,6.49292 2.63672,6.79036 2.88867,7.07031 C3.35059,7.58822 3.76701,8.11312 4.13794,8.64502 C4.50887,9.17692 4.80282,9.76481 5.01978,10.4087 C5.23674,11.0526 5.35921,11.7629 5.38721,12.5398 C5.4152,13.3167 5.32422,14.202 5.11426,15.1958 L-3.99805,15.1958 C-2.93424,13.6001 -2.16439,12.2493 -1.68848,11.1436 C-1.21257,10.0378 -0.911621,9.11043 -0.785645,8.36157 C-0.659668,7.61271 -0.659668,6.99683 -0.785645,6.51392 C-0.911621,6.03101 -1.0411,5.62508 -1.17407,5.29614 C-1.30705,4.9672 -1.39453,4.67326 -1.43652,4.41431 C-1.47852,4.15535 -1.35254,3.85091 -1.05859,3.50098 C-0.722656,3.06706 -0.481201,2.67163 -0.334229,2.3147 C-0.187256,1.95776 -0.127767,1.64982 -0.155762,1.39087 C-0.183757,1.13192 -0.264242,0.918457 -0.397217,0.750488 C-0.530192,0.58252 -0.694661,0.442546 -0.890625,0.330566 C-1.15658,0.176595 -1.38053,-0.0193685 -1.5625,-0.257324 C-1.74447,-0.49528 -1.91243,-0.733236 -2.06641,-0.971191 C-2.20638,-1.22314 -2.33236,-1.49609 -2.44434,-1.79004 C-2.16439,-1.21615 -1.77246,-0.827718 -1.26855,-0.624756 C-0.764648,-0.421794 -0.295736,-0.218831 0.138184,-0.0158691 C0.572103,0.187093 0.901042,0.481038 1.125,0.865967 C1.34896,1.2509 1.33496,1.92627 1.08301,2.89209 "/>
</g>

<g fill="#66b1e3" fill-opacity="1" stroke="none" transform="matrix(1,0,0,1,0,0)"
font-family="MS Shell Dlg 2" font-size="7.8" font-weight="400" font-style="normal" 
>
</g>
</g>
</svg>
