<svg xmlns="http://www.w3.org/2000/svg" version="1.2" viewBox="0 0 42.52 42.52" height="56.693" width="56.693">
   <g stroke-linejoin="bevel" stroke-linecap="square" fill-rule="evenodd" stroke="none" fill="none" font-weight="400"
      font-size="7.8" font-family="'MS Shell Dlg 2'">
      <path
         d="M42.52 21.26C42.52 33 33 42.52 21.26 42.52 9.518 42.52 0 33 0 21.26 0 9.518 9.518 0 21.26 0 33 0 42.52 9.518 42.52 21.26"
         vector-effect="non-scaling-stroke" fill="#66b1e3" />
      <path
         d="M19.844 16.51a3.132 3.132 0 01-.64-.61 2.454 2.454 0 01-.389-.693 3.872 3.872 0 01-.251-.776 172 172 0 011.585-3.045c.399-.742.801-1.155 1.207-1.239.28-.056.609.123.987.536.378.413.749.878 1.113 1.396.406.602.84 1.302 1.301 2.1h.336c.112.028.235.056.368.084.133.028.27.119.41.272.377.308.73.75 1.06 1.323.328.574.675 1.19 1.039 1.848a7.672 7.672 0 00-.893-.945 4.162 4.162 0 00-.923-.64c-.301-.147-.56-.193-.777-.137-.217.056-.354.26-.41.61-.056.335-.119.64-.189.912-.07.273-.192.476-.367.61-.175.132-.42.178-.735.136-.315-.042-.731-.238-1.25-.588a2.44 2.44 0 00-.682-.336 10.886 10.886 0 01-1.186-.399 3.339 3.339 0 01-.714-.42m-6.068 2.436c-.307-.308-.59-.441-.85-.4-.259.043-.518.151-.777.326-.259.175-.51.36-.756.557-.245.196-.48.28-.703.252.308-.602.577-1.145.808-1.628.231-.483.403-.801.515-.955a5.67 5.67 0 01.525-.682c.14-.147.28-.249.42-.305a.494.494 0 01.399 0c.28-.77.58-1.442.902-2.015.252-.49.529-.928.83-1.313.3-.385.598-.521.892-.41.084.057.213.18.388.368.175.19.36.413.557.672.196.26.395.532.598.819.203.287.375.542.515.766.14.224.241.452.304.683.063.23.144.49.242.777.098.287.262.609.493.965.23.357.57.767 1.018 1.229.238.266.357.497.357.693 0 .196-.07.364-.21.504-.154.181-.37.342-.65.482-.519.084-.942-.038-1.27-.367a5.054 5.054 0 01-.84-1.113c-.232-.413-.449-.784-.652-1.113-.203-.329-.43-.451-.682-.367-.28.112-.507.311-.682.598-.175.287-.333.56-.473.82-.14.258-.304.43-.493.514-.19.084-.43-.035-.725-.357m5.816 5.375c.196.49.287.965.273 1.427-.014.462-.143 1.015-.388 1.66-.245.643-.623 1.41-1.134 2.298-.51.889-1.172 1.991-1.984 3.307-.14 0-.346.007-.62.021-.272.014-.577.021-.913.021a28.26 28.26 0 01-2.047-.084 12.03 12.03 0 01-2.152-.346c-.672-.175-1.239-.427-1.7-.756-.463-.33-.694-.78-.694-1.354v-7.601c.21-.378.564-.801 1.06-1.27.498-.47.865-.92 1.103-1.355.112.056.21.084.294.084.308 0 .577-.077.808-.23.231-.155.466-.309.704-.462.14-.112.28-.217.42-.315.14-.098.252-.147.336-.147.126 0 .23.07.315.21.433.378.804.566 1.112.566.35 0 .623-.129.82-.388.195-.259.37-.507.524-.745.196-.392.378-.665.546-.82.056.099.13.21.22.337.091.126.165.245.22.357.225.462.53.938.914 1.427.385.49.942.735 1.67.735.195 0 .293-.028.293-.084h.042c.028 0 .091-.031.19-.094.097-.063.174-.095.23-.095l.042.042-.168.19-.168.167c-.406.49-.616.97-.63 1.439-.014.468.14 1.088.462 1.858m-.777 2.855c.224-.602.336-1.099.336-1.49 0-.393-.07-.742-.21-1.05a9.989 9.989 0 01-.472-1.638 2.5 2.5 0 01.179-1.47 3.033 3.033 0 01-1.512-.903 4.94 4.94 0 01-.903-1.238 33.39 33.39 0 01-.504.734c-.406.392-.854.588-1.344.588-.49 0-.993-.224-1.511-.672a.597.597 0 01-.126.105.598.598 0 00-.126.105c-.224.168-.494.354-.809.557a1.952 1.952 0 01-1.081.304c-.14.168-.297.347-.472.536-.175.189-.333.367-.473.535-.14.14-.29.298-.451.472-.161.175-.284.333-.368.473v7.39c0 .322.147.581.441.777.28.266.75.483 1.407.651.98.252 2.317.378 4.01.378h1.113a309.45 309.45 0 001.827-3.065c.476-.812.826-1.505 1.05-2.079m9.469-8.902c.308.546.798 1.025 1.47 1.438.671.413 1.347.812 2.026 1.197.678.385 1.273.78 1.784 1.186.511.406.767.882.767 1.428v5.92c0 1.12-.322 2.002-.966 2.646-.644.644-1.463.966-2.457.966H29.765c-.189 0-.469-.007-.84-.021-.37-.014-.962-.021-1.774-.021.21-1.036.308-1.953.294-2.75a7.36 7.36 0 00-.347-2.184 7.17 7.17 0 00-.902-1.827 16.53 16.53 0 00-1.355-1.7c-.434-.462-.857-.91-1.27-1.344-.413-.434-.668-.875-.766-1.323v-.567c0-.168.02-.308.063-.42.168-.63.23-1.147.189-1.553-.042-.406-.154-.75-.336-1.03.574.393 1.05.589 1.428.589.251 0 .465-.063.64-.19.175-.125.311-.283.41-.472.097-.189.178-.395.24-.62.064-.223.11-.44.137-.65a.373.373 0 00.042-.168c0-.112.014-.182.042-.21.14.056.382.207.725.452.343.244.703.612 1.08 1.102.113.168.28.252.505.252a.476.476 0 00.315-.126m5.333 5.249c0-.378-.266-.746-.798-1.102a24.355 24.355 0 00-1.743-1.06 68.552 68.552 0 01-1.7-1.03 5.936 5.936 0 01-1.407-1.196c-.42 0-.777-.19-1.071-.567a6.662 6.662 0 00-.777-.777c-.056.266-.14.525-.252.777-.224.434-.504.714-.84.84-.336.126-.63.189-.881.189h-.378a4.9 4.9 0 01-.053.713c-.035.238-.094.49-.178.756v.735c.056.252.213.529.472.83.259.3.55.612.871.934.056.084.126.168.21.252l.252.252c.462.49.917 1.043 1.365 1.658a7.324 7.324 0 011.05 2.121c.434 1.302.518 2.793.252 4.472H30.909c.798 0 1.442-.252 1.932-.756.518-.518.777-1.224.777-2.12v-5.921M22.343 20.75c-.112.434-.126.837-.042 1.208.084.37.22.731.41 1.08.188.35.412.683.671.998.26.315.515.613.767.893a16.85 16.85 0 011.249 1.574c.37.532.665 1.12.882 1.764.217.644.34 1.354.367 2.131.028.777-.063 1.662-.273 2.656h-9.112c1.064-1.596 1.833-2.946 2.31-4.052.475-1.106.776-2.033.902-2.782.126-.749.126-1.365 0-1.848a10.126 10.126 0 00-.388-1.218 4.185 4.185 0 01-.263-.881c-.042-.26.084-.564.378-.914.336-.434.578-.83.725-1.186.147-.357.206-.665.178-.924a1.22 1.22 0 00-.241-.64 1.692 1.692 0 00-.494-.42 2.264 2.264 0 01-.672-.588c-.182-.238-.35-.476-.504-.714a6.308 6.308 0 01-.378-.819c.28.574.672.963 1.176 1.165.504.203.973.406 1.407.61.434.202.763.496.987.881.224.385.21 1.06-.042 2.026"
         fill-opacity=".949" fill="#fff" />
   </g>
</svg>