<svg xmlns="http://www.w3.org/2000/svg" version="1.2" viewBox="0 0 42.52 42.52" height="56.693" width="56.693">
   <g stroke-linejoin="bevel" stroke-linecap="square" fill-rule="evenodd" stroke="none" fill="none" font-weight="400"
      font-size="7.8" font-family="'MS Shell Dlg 2'">
      <path
         d="M42.52 21.26C42.52 33 33 42.52 21.26 42.52 9.518 42.52 0 33 0 21.26 0 9.518 9.518 0 21.26 0 33 0 42.52 9.518 42.52 21.26"
         vector-effect="non-scaling-stroke" fill="#b75800" />
      <path
         d="M33.786 25.222c1.092-.307 1.592-.356 1.5-.146-.09.21-.59.49-1.5.84-1.988.657-3.77.986-5.344.986a21.64 21.64 0 01-4.493-.451c-1.42-.301-2.803-.651-4.147-1.05a19.469 19.469 0 00-4.304-.745c-1.484-.056-2.827.01-4.031.2-1.204.188-2.212.471-3.024.85-.657.335-1.035.44-1.133.314-.098-.126.21-.392.923-.798.84-.433 1.876-.755 3.108-.965 1.232-.21 2.617-.26 4.157-.147a18.69 18.69 0 014.304.724c1.344.399 2.726.742 4.147 1.029 1.42.287 2.919.423 4.493.41 1.575-.015 3.356-.365 5.344-1.05m-.126-.861c-1.47.49-2.8.804-3.99.944-1.19.14-2.306.168-3.348.084a17.68 17.68 0 01-2.992-.493c-.952-.245-1.914-.486-2.887-.724a59.72 59.72 0 00-3.066-.662 21.458 21.458 0 00-3.517-.346c-1.05 0-2.04.084-2.97.252-.931.168-1.775.37-2.53.609.265-.35.556-.725.87-1.124.316-.399.617-.79.904-1.175.287-.385.546-.728.776-1.03.231-.3.389-.5.473-.598.224-.224.416-.384.577-.482.161-.098.312-.161.452-.19.14-.027.28-.027.42 0 .322-.517.636-.98.944-1.385.294-.35.592-.644.893-.882.3-.238.605-.329.913-.273.266.056.672.336 1.218.84a30.698 30.698 0 011.764 1.785c.63.685 1.252 1.4 1.868 2.141a88.972 88.972 0 011.533 1.89 10.629 10.629 0 00-.64-1.239c-.273-.462-.581-.93-.924-1.407a42.724 42.724 0 00-1.05-1.396 20.27 20.27 0 00-1.018-1.207c.671-.91 1.322-1.63 1.952-2.163.63-.532 1.26-.798 1.89-.798.364 0 .756.15 1.176.452.42.3.812.64 1.175 1.018.434.42.854.889 1.26 1.407a1.38 1.38 0 01.336-.042c.266 0 .525.07.777.21a6.369 6.369 0 011.806 1.616c.518.672 1.021 1.323 1.511 1.953.49.63.998 1.183 1.523 1.659.525.476 1.165.728 1.92.756"
         fill-opacity=".949" fill="#fff" />
   </g>
</svg>