<?xml version="1.0" encoding="UTF-8" standalone="no"?>
<svg width="11.2889mm" height="11.2889mm"
 viewBox="0 0 32 32"
 xmlns="http://www.w3.org/2000/svg" xmlns:xlink="http://www.w3.org/1999/xlink"  version="1.2" baseProfile="tiny">
<title>Qt SVG Document</title>
<desc>Generated with Qt</desc>
<defs>
</defs>
<g fill="none" stroke="black" stroke-width="1" fill-rule="evenodd" stroke-linecap="square" stroke-linejoin="bevel" >

<g fill="#b75800" fill-opacity="1" stroke="none" transform="matrix(1,0,0,1,0,0)"
font-family="MS Shell Dlg 2" font-size="7.8" font-weight="400" font-style="normal" 
>
<path vector-effect="non-scaling-stroke" fill-rule="evenodd" d="M37.2598,16 C37.2598,27.7415 27.7415,37.2598 16,37.2598 C4.25851,37.2598 -5.25984,27.7415 -5.25984,16 C-5.25984,4.25851 4.25851,-5.25984 16,-5.25984 C27.7415,-5.25984 37.2598,4.25851 37.2598,16 "/>
</g>

<g fill="#ffffff" fill-opacity="0.94902" stroke="none" transform="matrix(1,0,0,1,16,12.0315)"
font-family="MS Shell Dlg 2" font-size="7.8" font-weight="400" font-style="normal" 
>
<path vector-effect="none" fill-rule="evenodd" d="M12.5259,7.93115 C13.6177,7.62321 14.1181,7.57422 14.0271,7.78418 C13.9361,7.99414 13.4357,8.27409 12.5259,8.62402 C10.5382,9.2819 8.75708,9.61084 7.18237,9.61084 C5.60767,9.61084 4.10994,9.46037 2.68921,9.15942 C1.26847,8.85848 -0.11377,8.50854 -1.45752,8.10962 C-2.80127,7.71069 -4.236,7.46224 -5.76172,7.36426 C-7.24544,7.30827 -8.58919,7.37476 -9.79297,7.56372 C-10.9967,7.75269 -12.0046,8.03613 -12.8164,8.41406 C-13.4743,8.75 -13.8522,8.85498 -13.9502,8.729 C-14.0482,8.60303 -13.7402,8.33708 -13.0264,7.93115 C-12.1865,7.49723 -11.1507,7.17529 -9.91895,6.96533 C-8.68717,6.75537 -7.30143,6.70638 -5.76172,6.81836 C-4.236,6.90234 -2.80127,7.1438 -1.45752,7.54272 C-0.11377,7.94165 1.26847,8.28459 2.68921,8.57153 C4.10994,8.85848 5.60767,8.99495 7.18237,8.98096 C8.75708,8.96696 10.5382,8.61702 12.5259,7.93115 M12.3999,7.07031 C10.9302,7.56022 9.60042,7.87516 8.41064,8.01514 C7.22087,8.15511 6.10457,8.18311 5.06177,8.09912 C4.01896,8.01514 3.02165,7.85067 2.06982,7.60571 C1.118,7.36076 0.15568,7.1193 -0.817139,6.88135 C-1.78996,6.64339 -2.81177,6.42293 -3.88257,6.21997 C-4.95337,6.01701 -6.12565,5.90153 -7.39941,5.87354 C-8.44922,5.87354 -9.43953,5.95752 -10.3704,6.12549 C-11.3012,6.29346 -12.1445,6.49642 -12.9004,6.73438 C-12.6344,6.38444 -12.344,6.01001 -12.0291,5.61108 C-11.7141,5.21216 -11.4132,4.82023 -11.1262,4.4353 C-10.8393,4.05037 -10.5803,3.70744 -10.3494,3.40649 C-10.1184,3.10555 -9.96094,2.90609 -9.87695,2.80811 C-9.65299,2.58415 -9.46053,2.42318 -9.29956,2.3252 C-9.13859,2.22721 -8.98812,2.16423 -8.84814,2.13623 C-8.70817,2.10824 -8.5682,2.10824 -8.42822,2.13623 C-8.10628,1.61833 -7.79134,1.15641 -7.4834,0.750488 C-7.18945,0.400553 -6.89201,0.106608 -6.59106,-0.131348 C-6.29012,-0.369303 -5.98568,-0.460286 -5.67773,-0.404297 C-5.41178,-0.348307 -5.00586,-0.0683594 -4.45996,0.435547 C-3.91406,0.939453 -3.32617,1.53434 -2.69629,2.22021 C-2.06641,2.90609 -1.44352,3.61995 -0.827637,4.36182 C-0.211751,5.10368 0.299154,5.73356 0.705078,6.25146 C0.551107,5.88753 0.337646,5.47461 0.0646973,5.0127 C-0.208252,4.55078 -0.516195,4.08187 -0.859131,3.60596 C-1.20207,3.13005 -1.552,2.66463 -1.90894,2.20972 C-2.26587,1.7548 -2.60531,1.35238 -2.92725,1.00244 C-2.25537,0.0926107 -1.60449,-0.628255 -0.974609,-1.16016 C-0.344727,-1.69206 0.285156,-1.95801 0.915039,-1.95801 C1.27897,-1.95801 1.6709,-1.80754 2.09082,-1.50659 C2.51074,-1.20565 2.90267,-0.866211 3.2666,-0.488281 C3.70052,-0.0683594 4.12044,0.400553 4.52637,0.918457 C4.63835,0.890462 4.75033,0.876465 4.8623,0.876465 C5.12826,0.876465 5.38721,0.946452 5.63916,1.08643 C6.32503,1.49235 6.92692,2.03125 7.44482,2.70313 C7.96273,3.375 8.46663,4.02588 8.95654,4.65576 C9.44645,5.28564 9.95386,5.83854 10.4788,6.31445 C11.0037,6.79036 11.644,7.04232 12.3999,7.07031 "/>
</g>

<g fill="#b75800" fill-opacity="1" stroke="none" transform="matrix(1,0,0,1,0,0)"
font-family="MS Shell Dlg 2" font-size="7.8" font-weight="400" font-style="normal" 
>
</g>
</g>
</svg>
