<svg xmlns="http://www.w3.org/2000/svg" version="1.2" viewBox="0 0 42.52 42.52" height="56.693" width="56.693">
   <g stroke-linejoin="bevel" stroke-linecap="square" fill-rule="evenodd" stroke="none" fill="none" font-weight="400"
      font-size="7.8" font-family="'MS Shell Dlg 2'">
      <path
         d="M42.52 21.26C42.52 33 33 42.52 21.26 42.52 9.518 42.52 0 33 0 21.26 0 9.518 9.518 0 21.26 0 33 0 42.52 9.518 42.52 21.26"
         vector-effect="non-scaling-stroke" fill="#b75800" />
      <path
         d="M32.757 16.95V29.716c0 .63-.451 1.361-1.354 2.194s-2.432 1.473-4.588 1.921a19.053 19.053 0 01-1.04-.399 39.078 39.078 0 01-2.099-.945 7.732 7.732 0 01-.766-.42c-.7-.42-1.208-.801-1.522-1.144-.315-.343-.508-.658-.578-.945a1.321 1.321 0 01.021-.777c.084-.23.179-.44.284-.63a1.77 1.77 0 00.199-.493c.028-.14-.056-.266-.252-.378-.462-.294-.65-.518-.567-.672.084-.154.238-.28.462-.378.238-.056.42-.14.546-.252.126-.112.245-.21.357-.294a1.86 1.86 0 00.315-.356c-.028 0-.056.013-.084.041.168-.223.294-.49.378-.797.028-.182.136-.308.325-.378.19-.07.406-.105.651-.105s.487.007.725.02c.237.015.447.008.63-.02v-.945h-1.218l.776-1.029h-.377l.734-.903h-.357l.693-.86.651.86h-.315l.4.462-.253.315h.462l-.86 1.155h.083v.903a11.947 11.947 0 011.638-.126v-.861h-1.512l.945-1.197h-.462l.861-1.092h-.399l.777-1.028.777 1.028h-.336l.86 1.092h-.482l.903 1.197h-1.512v.86c.574 0 1.12.043 1.638.127v-.903h.126l-.861-1.155h.44l-.167-.273.336-.42h-.294l.588-.819.65.82h-.293l.692.86h-.399l.777.987h-1.154v1.029c.657.14 1.22.311 1.69.514.469.203.85.375 1.144.515v-7.727l-2.058.945-5.123-2.667-2.456 2.016-4.556-3.233-1.365.986-6.236-2.918v12.472c.364-.112.952-.238 1.764-.378V23.69h-1.47l.987-1.239h-.525l.903-1.134h-.378l.777-.986.819.986h-.4l.484.61-.294.398h.545l-1.07 1.365h.168v1.344c.14-.028.29-.05.451-.063.161-.014.326-.056.493-.126l.987-.084v-1.155h-1.805l1.133-1.47H13.4l1.028-1.28h-.42l.945-1.24.945 1.24h-.483l1.029 1.28h-.546l1.113 1.47h-1.806v1.113h.976c.33 0 .648.028.956.084V23.69h.168l-1.071-1.365h.567l-.273-.315.44-.546h-.335l.714-.987.777.987h-.336l.819 1.071h-.483l.902 1.155h-1.322v1.26c.392.084.738.203 1.039.357.301.154.528.35.682.587.14.28.525.448 1.155.504-.35.084-.623.207-.819.368-.196.16-.21.41-.042.745.14.266.06.508-.241.725-.301.217-.606.423-.913.619-.378.224-.616.472-.714.745-.098.273-.126.56-.084.861.042.301.126.602.252.903.126.3.23.57.315.808.126.392.168.69.126.893-.042.203-.224.577-.546 1.123-1.484-.168-2.737-.427-3.759-.777-1.021-.35-1.854-.745-2.498-1.186-.644-.441-1.11-.914-1.396-1.417-.287-.504-.43-.987-.43-1.45V11.618l7.222 3.422 1.386-1.028 4.514 3.275 2.435-2.016 5.165 2.667 2.205-.987"
         fill-opacity=".949" fill="#fff" />
   </g>
</svg>