<?xml version="1.0" encoding="UTF-8" standalone="no"?>
<svg width="11.25008mm" height="11.25008mm"
 viewBox="-5.3 -5.3 42.52000 42.52000"
 xmlns="http://www.w3.org/2000/svg" xmlns:xlink="http://www.w3.org/1999/xlink"  version="1.2" baseProfile="tiny">
<title>Qt SVG Document</title>
<desc>Generated with Qt</desc>
<defs>
</defs>
<g fill="none" stroke="black" stroke-width="1" fill-rule="evenodd" stroke-linecap="square" stroke-linejoin="bevel" >

<g fill="#b75800" fill-opacity="1" stroke="none" transform="matrix(1,0,0,1,0,0)"
font-family="MS Shell Dlg 2" font-size="7.8" font-weight="400" font-style="normal" 
>
<path vector-effect="non-scaling-stroke" fill-rule="evenodd" d="M37.2598,16 C37.2598,27.7415 27.7415,37.2598 16,37.2598 C4.25851,37.2598 -5.25984,27.7415 -5.25984,16 C-5.25984,4.25851 4.25851,-5.25984 16,-5.25984 C27.7415,-5.25984 37.2598,4.25851 37.2598,16 "/>
</g>

<g fill="#ffffff" fill-opacity="0.94902" stroke="none" transform="matrix(1,0,0,1,16,13.1654)"
font-family="MS Shell Dlg 2" font-size="7.8" font-weight="400" font-style="normal" 
>
<path vector-effect="none" fill-rule="evenodd" d="M11.4971,-1.4751 L11.4971,7.55322 L11.4971,7.88916 L11.4971,11.2905 C11.4971,11.9204 11.0457,12.6518 10.1428,13.4846 C9.23999,14.3175 7.71077,14.9578 5.55518,15.4058 C5.23324,15.2938 4.8868,15.1608 4.51587,15.0068 C4.14494,14.8529 3.78101,14.6954 3.42407,14.5344 C3.06714,14.3735 2.7312,14.216 2.41626,14.062 C2.10132,13.908 1.84587,13.7681 1.6499,13.6421 C0.950033,13.2222 0.442627,12.8407 0.127686,12.4978 C-0.187256,12.1549 -0.37972,11.8399 -0.449707,11.553 C-0.519694,11.266 -0.512695,11.0071 -0.428711,10.7761 C-0.344727,10.5452 -0.250244,10.3352 -0.145264,10.1462 C-0.0402832,9.95728 0.0262044,9.79281 0.0541992,9.65283 C0.082194,9.51286 -0.00179036,9.38688 -0.197754,9.2749 C-0.659668,8.98096 -0.848633,8.757 -0.764648,8.60303 C-0.680664,8.44906 -0.526693,8.32308 -0.302734,8.2251 C-0.0647786,8.16911 0.117188,8.08512 0.243164,7.97314 C0.369141,7.86117 0.488118,7.76318 0.600098,7.6792 C0.726074,7.56722 0.831055,7.44824 0.915039,7.32227 C0.887044,7.32227 0.859049,7.33626 0.831055,7.36426 C0.999023,7.1403 1.125,6.87435 1.20898,6.56641 C1.23698,6.38444 1.34546,6.25846 1.53442,6.18848 C1.72339,6.11849 1.94035,6.0835 2.1853,6.0835 C2.43026,6.0835 2.67171,6.09049 2.90967,6.10449 C3.14762,6.11849 3.35758,6.11149 3.53955,6.0835 L3.53955,5.13867 L2.32178,5.13867 L3.09863,4.10986 L2.7207,4.10986 L3.45557,3.20703 L3.09863,3.20703 L3.7915,2.34619 L4.44238,3.20703 L4.12744,3.20703 L4.52637,3.66895 L4.27441,3.98389 L4.73633,3.98389 L3.87549,5.13867 L3.95947,5.13867 L3.95947,6.0415 C4.56136,5.95752 5.10726,5.91553 5.59717,5.91553 L5.59717,5.05469 L4.08545,5.05469 L5.03027,3.85791 L4.56836,3.85791 L5.4292,2.76611 L5.03027,2.76611 L5.80713,1.7373 L6.58398,2.76611 L6.24805,2.76611 L7.10889,3.85791 L6.62598,3.85791 L7.52881,5.05469 L6.01709,5.05469 L6.01709,5.91553 C6.59098,5.91553 7.13688,5.95752 7.65479,6.0415 L7.65479,5.13867 L7.78076,5.13867 L6.91992,3.98389 L7.36084,3.98389 L7.19287,3.71094 L7.52881,3.29102 L7.23486,3.29102 L7.82275,2.47217 L8.47363,3.29102 L8.17969,3.29102 L8.87256,4.15186 L8.47363,4.15186 L9.25049,5.13867 L8.0957,5.13867 L8.0957,6.16748 C8.75358,6.30745 9.31698,6.47892 9.78589,6.68188 C10.2548,6.88485 10.6362,7.05632 10.9302,7.19629 L10.9302,-0.530273 L8.87256,0.414551 L3.74951,-2.25195 L1.29297,-0.236328 L-3.26318,-3.46973 L-4.62793,-2.48291 L-10.8638,-5.40137 L-10.8638,7.07031 C-10.4998,6.95833 -9.91195,6.83236 -9.1001,6.69238 L-9.1001,5.26465 L-10.5698,5.26465 L-9.58301,4.02588 L-10.1079,4.02588 L-9.20508,2.89209 L-9.58301,2.89209 L-8.80615,1.90527 L-7.9873,2.89209 L-8.38623,2.89209 L-7.90332,3.50098 L-8.19727,3.8999 L-7.65137,3.8999 L-8.72217,5.26465 L-8.5542,5.26465 L-8.5542,6.6084 C-8.41423,6.5804 -8.26375,6.55941 -8.10278,6.54541 C-7.94181,6.53141 -7.77734,6.48942 -7.60938,6.41943 L-6.62256,6.33545 L-6.62256,5.18066 L-8.42822,5.18066 L-7.29443,3.71094 L-7.86133,3.71094 L-6.83252,2.43018 L-7.25244,2.43018 L-6.30762,1.19141 L-5.36279,2.43018 L-5.8457,2.43018 L-4.81689,3.71094 L-5.36279,3.71094 L-4.25,5.18066 L-6.05566,5.18066 L-6.05566,6.29346 C-5.73372,6.29346 -5.40828,6.29346 -5.07935,6.29346 C-4.75041,6.29346 -4.43197,6.32145 -4.12402,6.37744 L-4.12402,5.26465 L-3.95605,5.26465 L-5.02686,3.8999 L-4.45996,3.8999 L-4.73291,3.58496 L-4.29199,3.03906 L-4.62793,3.03906 L-3.91406,2.05225 L-3.13721,3.03906 L-3.47314,3.03906 L-2.6543,4.10986 L-3.13721,4.10986 L-2.23438,5.26465 L-3.55713,5.26465 L-3.55713,6.52441 C-3.1652,6.6084 -2.81877,6.72738 -2.51782,6.88135 C-2.21688,7.03532 -1.98942,7.23128 -1.83545,7.46924 C-1.69548,7.74919 -1.31055,7.91715 -0.680664,7.97314 C-1.0306,8.05713 -1.30355,8.17961 -1.49951,8.34058 C-1.69548,8.50155 -1.70947,8.75 -1.5415,9.08594 C-1.40153,9.35189 -1.48201,9.59334 -1.78296,9.8103 C-2.0839,10.0273 -2.38835,10.2337 -2.69629,10.4297 C-3.07422,10.6536 -3.31217,10.9021 -3.41016,11.175 C-3.50814,11.448 -3.53613,11.7349 -3.49414,12.0359 C-3.45215,12.3368 -3.36816,12.6378 -3.24219,12.9387 C-3.11621,13.2397 -3.01123,13.5091 -2.92725,13.7471 C-2.80127,14.139 -2.75928,14.4364 -2.80127,14.6394 C-2.84326,14.8424 -3.02523,15.2168 -3.34717,15.7627 C-4.83089,15.5947 -6.08366,15.3358 -7.10547,14.9858 C-8.12728,14.6359 -8.96012,14.2405 -9.604,13.7996 C-10.2479,13.3586 -10.7133,12.8862 -11.0002,12.3823 C-11.2872,11.8784 -11.4307,11.3955 -11.4307,10.9336 L-11.4307,7.88916 L-11.4307,7.19629 L-11.4307,-6.80811 L-4.20801,-3.38574 L-2.82227,-4.41455 L1.69189,-1.13916 L4.12744,-3.15479 L9.29248,-0.488281 L11.4971,-1.4751"/>
</g>

<g fill="#b75800" fill-opacity="1" stroke="none" transform="matrix(1,0,0,1,0,0)"
font-family="MS Shell Dlg 2" font-size="7.8" font-weight="400" font-style="normal" 
>
</g>
</g>
</svg>
