<?xml version="1.0" encoding="UTF-8" standalone="no"?>
<svg
   xmlns:dc="http://purl.org/dc/elements/1.1/"
   xmlns:cc="http://creativecommons.org/ns#"
   xmlns:rdf="http://www.w3.org/1999/02/22-rdf-syntax-ns#"
   xmlns:svg="http://www.w3.org/2000/svg"
   xmlns="http://www.w3.org/2000/svg"
   xmlns:sodipodi="http://sodipodi.sourceforge.net/DTD/sodipodi-0.dtd"
   xmlns:inkscape="http://www.inkscape.org/namespaces/inkscape"
   inkscape:version="1.0 (4035a4fb49, 2020-05-01)"
   sodipodi:docname="1711.svg"
   id="svg20"
   version="1.2"
   viewBox="0 0 42.519639 42.519639"
   height="14.999999mm"
   width="14.999999mm">
  <metadata
     id="metadata24">
    <rdf:RDF>
      <cc:Work
         rdf:about="">
        <dc:format>image/svg+xml</dc:format>
        <dc:type
           rdf:resource="http://purl.org/dc/dcmitype/StillImage" />
        <dc:title>Qt SVG Document</dc:title>
      </cc:Work>
    </rdf:RDF>
  </metadata>
  <sodipodi:namedview
     inkscape:current-layer="svg20"
     inkscape:window-maximized="0"
     inkscape:window-y="0"
     inkscape:window-x="0"
     inkscape:cy="28.346482"
     inkscape:cx="28.346482"
     inkscape:zoom="5.8410537"
     showgrid="false"
     id="namedview22"
     inkscape:window-height="480"
     inkscape:window-width="1034"
     inkscape:pageshadow="2"
     inkscape:pageopacity="0"
     guidetolerance="10"
     gridtolerance="10"
     objecttolerance="10"
     borderopacity="1"
     bordercolor="#666666"
     pagecolor="#ffffff" />
  <title
     id="title2">Qt SVG Document</title>
  <desc
     id="desc4">Generated with Qt</desc>
  <defs
     id="defs6" />
  <g
     transform="translate(5.25984,5.25984)"
     id="g18"
     stroke-linejoin="bevel"
     stroke-linecap="square"
     fill-rule="evenodd"
     stroke-width="1"
     stroke="#000000"
     fill="none">
    <g
       id="g10"
       font-style="normal"
       font-weight="400"
       font-size="7.8px"
       font-family="'MS Shell Dlg 2'"
       stroke="none"
       fill-opacity="1"
       fill="#b75800">
      <path
         id="path8"
         d="M 37.2598,16 C 37.2598,27.7415 27.7415,37.2598 16,37.2598 4.25851,37.2598 -5.25984,27.7415 -5.25984,16 -5.25984,4.25851 4.25851,-5.25984 16,-5.25984 27.7415,-5.25984 37.2598,4.25851 37.2598,16"
         fill-rule="evenodd"
         vector-effect="non-scaling-stroke" />
    </g>
    <g
       id="g14"
       font-style="normal"
       font-weight="400"
       font-size="7.8px"
       font-family="'MS Shell Dlg 2'"
       transform="translate(16,13.1654)"
       stroke="none"
       fill-opacity="0.94902"
       fill="#ffffff">
      <path
         id="path12"
         d="m 11.4971,-1.4751 v 9.02832 0.33594 3.40134 c 0,0.6299 -0.4514,1.3613 -1.3543,2.1941 C 9.23999,14.3175 7.71077,14.9578 5.55518,15.4058 5.23324,15.2938 4.8868,15.1608 4.51587,15.0068 4.14494,14.8529 3.78101,14.6954 3.42407,14.5344 3.06714,14.3735 2.7312,14.216 2.41626,14.062 2.10132,13.908 1.84587,13.7681 1.6499,13.6421 0.950033,13.2222 0.442627,12.8407 0.127686,12.4978 -0.187256,12.1549 -0.37972,11.8399 -0.449707,11.553 -0.519694,11.266 -0.512695,11.0071 -0.428711,10.7761 -0.344727,10.5452 -0.250244,10.3352 -0.145264,10.1462 -0.0402832,9.95728 0.0262044,9.79281 0.0541992,9.65283 0.082194,9.51286 -0.00179036,9.38688 -0.197754,9.2749 -0.659668,8.98096 -0.848633,8.757 -0.764648,8.60303 -0.680664,8.44906 -0.526693,8.32308 -0.302734,8.2251 -0.0647786,8.16911 0.117188,8.08512 0.243164,7.97314 0.369141,7.86117 0.488118,7.76318 0.600098,7.6792 0.726074,7.56722 0.831055,7.44824 0.915039,7.32227 0.887044,7.32227 0.859049,7.33626 0.831055,7.36426 0.999023,7.1403 1.125,6.87435 1.20898,6.56641 1.23698,6.38444 1.34546,6.25846 1.53442,6.18848 1.72339,6.11849 1.94035,6.0835 2.1853,6.0835 c 0.24496,0 0.48641,0.00699 0.72437,0.02099 0.23795,0.014 0.44791,0.007 0.62988,-0.02099 V 5.13867 H 2.32178 L 3.09863,4.10986 H 2.7207 L 3.45557,3.20703 H 3.09863 L 3.7915,2.34619 4.44238,3.20703 H 4.12744 L 4.52637,3.66895 4.27441,3.98389 H 4.73633 L 3.87549,5.13867 H 3.95947 V 6.0415 C 4.56136,5.95752 5.10726,5.91553 5.59717,5.91553 V 5.05469 H 4.08545 L 5.03027,3.85791 H 4.56836 L 5.4292,2.76611 H 5.03027 L 5.80713,1.7373 6.58398,2.76611 H 6.24805 l 0.86084,1.0918 H 6.62598 L 7.52881,5.05469 H 6.01709 v 0.86084 c 0.57389,0 1.11979,0.04199 1.6377,0.12597 V 5.13867 H 7.78076 L 6.91992,3.98389 H 7.36084 L 7.19287,3.71094 7.52881,3.29102 H 7.23486 L 7.82275,2.47217 8.47363,3.29102 H 8.17969 L 8.87256,4.15186 H 8.47363 L 9.25049,5.13867 H 8.0957 v 1.02881 c 0.65788,0.13997 1.22128,0.31144 1.69019,0.5144 0.46891,0.20297 0.85031,0.37444 1.14431,0.51441 V -0.530273 L 8.87256,0.414551 3.74951,-2.25195 1.29297,-0.236328 -3.26318,-3.46973 -4.62793,-2.48291 -10.8638,-5.40137 V 7.07031 c 0.364,-0.11198 0.95185,-0.23795 1.7637,-0.37793 V 5.26465 h -1.4697 l 0.98679,-1.23877 h -0.52489 l 0.90282,-1.13379 h -0.37793 l 0.77686,-0.98682 0.81885,0.98682 h -0.39893 l 0.48291,0.60889 -0.29395,0.39892 h 0.5459 l -1.0708,1.36475 H -8.5542 V 6.6084 c 0.13997,-0.028 0.29045,-0.04899 0.45142,-0.06299 0.16097,-0.014 0.32544,-0.05599 0.4934,-0.12598 L -6.62256,6.33545 V 5.18066 h -1.80566 l 1.13379,-1.46972 h -0.5669 l 1.02881,-1.28076 h -0.41992 l 0.94482,-1.23877 0.94483,1.23877 H -5.8457 l 1.02881,1.28076 h -0.5459 L -4.25,5.18066 h -1.80566 v 1.1128 c 0.32194,0 0.64738,0 0.97631,0 0.32894,0 0.64738,0.02799 0.95533,0.08398 V 5.26465 h 0.16797 L -5.02686,3.8999 h 0.5669 l -0.27295,-0.31494 0.44092,-0.5459 h -0.33594 l 0.71387,-0.98681 0.77685,0.98681 h -0.33593 l 0.81884,1.0708 h -0.48291 l 0.90283,1.15479 h -1.32275 v 1.25976 c 0.39193,0.08399 0.73836,0.20297 1.03931,0.35694 0.30094,0.15397 0.5284,0.34993 0.68237,0.58789 0.13997,0.27995 0.5249,0.44791 1.154786,0.5039 C -1.0306,8.05713 -1.30355,8.17961 -1.49951,8.34058 -1.69548,8.50155 -1.70947,8.75 -1.5415,9.08594 c 0.13997,0.26595 0.05949,0.5074 -0.24146,0.72436 -0.30094,0.217 -0.60539,0.4234 -0.91333,0.6194 -0.37793,0.2239 -0.61588,0.4724 -0.71387,0.7453 -0.09798,0.273 -0.12597,0.5599 -0.08398,0.8609 0.04199,0.3009 0.12598,0.6019 0.25195,0.9028 0.12598,0.301 0.23096,0.5704 0.31494,0.8084 0.12598,0.3919 0.16797,0.6893 0.12598,0.8923 -0.04199,0.203 -0.22396,0.5774 -0.5459,1.1233 -1.48372,-0.168 -2.73649,-0.4269 -3.7583,-0.7769 -1.02181,-0.3499 -1.85465,-0.7453 -2.49853,-1.1862 -0.6439,-0.441 -1.1093,-0.9134 -1.3962,-1.4173 -0.287,-0.5039 -0.4305,-0.9868 -0.4305,-1.4487 V 7.88916 7.19629 -6.80811 l 7.22269,3.42237 1.38574,-1.02881 4.51416,3.27539 2.43555,-2.01563 5.16504,2.666509 2.20462,-0.986819"
         fill-rule="evenodd"
         vector-effect="none" />
    </g>
    <g
       id="g16"
       font-style="normal"
       font-weight="400"
       font-size="7.8px"
       font-family="'MS Shell Dlg 2'"
       stroke="none"
       fill-opacity="1"
       fill="#b75800" />
  </g>
</svg>
