<svg xmlns="http://www.w3.org/2000/svg" version="1.2" viewBox="0 0 42.52 42.52" height="56.693" width="56.693">
   <g stroke-linejoin="bevel" stroke-linecap="square" fill-rule="evenodd" stroke="none" fill="none" font-weight="400"
      font-size="7.8" font-family="'MS Shell Dlg 2'">
      <path
         d="M42.52 21.26C42.52 33 33 42.52 21.26 42.52 9.518 42.52 0 33 0 21.26 0 9.518 9.518 0 21.26 0 33 0 42.52 9.518 42.52 21.26"
         vector-effect="non-scaling-stroke" fill="#b75800" />
      <path
         d="M27.067 14.494c1.61 0 2.873.252 3.79.755.917.504 1.64 1.12 2.173 1.848a8.82 8.82 0 011.228 2.341c.287.833.627 1.564 1.018 2.194.378.686.41 1.494.095 2.425-.315.931-.868 1.841-1.659 2.73-.79.889-1.742 1.683-2.855 2.383a10.927 10.927 0 01-3.475 1.449 20.44 20.44 0 00-1.963.556c-.791.259-1.746.437-2.866.535-1.12.098-2.404.063-3.853-.105-1.449-.168-3.09-.643-4.924-1.427-1.077-.42-1.903-.82-2.477-1.197-.574-.378-1.011-.745-1.312-1.102-.301-.357-.532-.721-.693-1.092a8.505 8.505 0 00-.662-1.207 37.67 37.67 0 01-.787-1.302 5.654 5.654 0 01-.577-1.386 5.198 5.198 0 01-.168-1.48c.014-.511.16-1.053.44-1.627.519-1.064 1.064-1.841 1.638-2.331a5.815 5.815 0 011.9-1.092c.693-.238 1.467-.43 2.32-.577.854-.147 1.827-.438 2.919-.871 1.204-.448 2.222-.718 3.055-.809a13.16 13.16 0 012.393-.052c.763.056 1.544.15 2.342.283.797.133 1.784.186 2.96.158M21.356 26.88c.252 0 .609-.045 1.07-.136.463-.091.967-.214 1.513-.368a13.894 13.894 0 001.68-.598 8.786 8.786 0 001.532-.83 4.502 4.502 0 001.46-1.795c.314-.706.416-1.214.304-1.522-.252-.63-.658-1.018-1.218-1.165a5.824 5.824 0 00-1.848-.157c-.672.042-1.337.101-1.994.178-.658.077-1.204.01-1.638-.2a4.325 4.325 0 00-1.27-.293 5.76 5.76 0 00-1.208.042 8.212 8.212 0 00-1.186.262l-1.165.346c-.658.224-1.274.417-1.848.578-.574.16-.973.41-1.197.745-.28.434-.308.924-.084 1.47.224.546.651 1.06 1.281 1.543.63.483 1.442.906 2.436 1.27.993.364 2.12.574 3.38.63"
         fill-opacity=".949" fill="#fff" />
   </g>
</svg>