<?xml version="1.0" encoding="UTF-8" standalone="no"?>
<svg
   xmlns:dc="http://purl.org/dc/elements/1.1/"
   xmlns:cc="http://creativecommons.org/ns#"
   xmlns:rdf="http://www.w3.org/1999/02/22-rdf-syntax-ns#"
   xmlns:svg="http://www.w3.org/2000/svg"
   xmlns="http://www.w3.org/2000/svg"
   xmlns:sodipodi="http://sodipodi.sourceforge.net/DTD/sodipodi-0.dtd"
   xmlns:inkscape="http://www.inkscape.org/namespaces/inkscape"
   inkscape:version="1.0 (4035a4fb49, 2020-05-01)"
   sodipodi:docname="1713.svg"
   id="svg20"
   version="1.2"
   viewBox="0 0 42.519639 42.519639"
   height="14.999999mm"
   width="14.999999mm">
  <metadata
     id="metadata24">
    <rdf:RDF>
      <cc:Work
         rdf:about="">
        <dc:format>image/svg+xml</dc:format>
        <dc:type
           rdf:resource="http://purl.org/dc/dcmitype/StillImage" />
        <dc:title>Qt SVG Document</dc:title>
      </cc:Work>
    </rdf:RDF>
  </metadata>
  <sodipodi:namedview
     inkscape:current-layer="svg20"
     inkscape:window-maximized="0"
     inkscape:window-y="0"
     inkscape:window-x="0"
     inkscape:cy="28.346482"
     inkscape:cx="28.346482"
     inkscape:zoom="5.8410537"
     showgrid="false"
     id="namedview22"
     inkscape:window-height="480"
     inkscape:window-width="1034"
     inkscape:pageshadow="2"
     inkscape:pageopacity="0"
     guidetolerance="10"
     gridtolerance="10"
     objecttolerance="10"
     borderopacity="1"
     bordercolor="#666666"
     pagecolor="#ffffff" />
  <title
     id="title2">Qt SVG Document</title>
  <desc
     id="desc4">Generated with Qt</desc>
  <defs
     id="defs6" />
  <g
     transform="translate(5.25984,5.25984)"
     id="g18"
     stroke-linejoin="bevel"
     stroke-linecap="square"
     fill-rule="evenodd"
     stroke-width="1"
     stroke="#000000"
     fill="none">
    <g
       id="g10"
       font-style="normal"
       font-weight="400"
       font-size="7.8px"
       font-family="'MS Shell Dlg 2'"
       stroke="none"
       fill-opacity="1"
       fill="#b75800">
      <path
         id="path8"
         d="M 37.2598,16 C 37.2598,27.7415 27.7415,37.2598 16,37.2598 4.25851,37.2598 -5.25984,27.7415 -5.25984,16 -5.25984,4.25851 4.25851,-5.25984 16,-5.25984 27.7415,-5.25984 37.2598,4.25851 37.2598,16"
         fill-rule="evenodd"
         vector-effect="non-scaling-stroke" />
    </g>
    <g
       id="g14"
       font-style="normal"
       font-weight="400"
       font-size="7.8px"
       font-family="'MS Shell Dlg 2'"
       transform="translate(16,13.1654)"
       stroke="none"
       fill-opacity="0.94902"
       fill="#ffffff">
      <path
         id="path12"
         d="M 0.0541992,9.73682 C 1.22998,9.73682 2.24829,9.44987 3.10913,8.87598 3.96997,8.30208 4.72233,7.6722 5.36621,6.98633 6.01009,6.30046 6.58049,5.67057 7.07739,5.09668 7.5743,4.52279 8.06771,4.23584 8.55762,4.23584 H 13.4707 V 6.73438 H 8.55762 c -0.30795,0 -0.62639,0.18546 -0.95533,0.55639 C 7.27336,7.6617 6.91992,8.12012 6.54199,8.66602 6.16406,9.21191 5.76164,9.8138 5.33472,10.4717 4.9078,11.1296 4.43538,11.7314 3.91748,12.2773 3.39958,12.8232 2.81868,13.2817 2.1748,13.6526 1.53092,14.0235 0.824056,14.209 0.0541992,14.209 -0.715658,14.209 -1.42603,14.0235 -2.0769,13.6526 -2.72778,13.2817 -3.32267,12.8232 -3.86157,12.2773 -4.40047,11.7314 -4.89388,11.1296 -5.3418,10.4717 -5.78971,9.8138 -6.19914,9.21191 -6.57007,8.66602 -6.941,8.12012 -7.27694,7.6617 -7.57788,7.29077 -7.87882,6.91984 -8.16227,6.73438 -8.42822,6.73438 H -13.3203 V 4.23584 h 4.89208 c 0.40592,0 0.85384,0.28695 1.34375,0.86084 0.48991,0.57389 1.0708,1.20378 1.74267,1.88965 0.67188,0.68587 1.44523,1.31575 2.32007,1.88965 0.87484,0.57389 1.90015,0.86084 3.0759292,0.86084 M 13.4707,-2.04199 V 1.82129 H 8.55762 C 8.06771,1.82129 7.5743,2.12223 7.07739,2.72412 6.58049,3.32601 6.01009,3.98739 5.36621,4.70825 4.72233,5.42912 3.96997,6.09049 3.10913,6.69238 2.24829,7.29427 1.22998,7.59521 0.0541992,7.59521 -1.12158,7.59521 -2.14689,7.29427 -3.02173,6.69238 -3.89657,6.09049 -4.66992,5.42912 -5.3418,4.70825 -6.01367,3.98739 -6.59456,3.32601 -7.08447,2.72412 -7.57438,2.12223 -8.0223,1.82129 -8.42822,1.82129 h -4.89208 v -3.86328 h 5.62694 c 0.34994,0 0.75236,0.30094 1.20728,0.90283 0.45491,0.601888 0.99031,1.266764 1.6062,1.994629 C -4.264,1.58333 -3.55363,2.24821 -2.74878,2.8501 -1.94393,3.45199 -1.0096,3.75293 0.0541992,3.75293 1.118,3.75293 2.04183,3.45199 2.82568,2.8501 3.60954,2.24821 4.30241,1.58333 4.9043,0.855469 5.50618,0.127604 6.03809,-0.537272 6.5,-1.13916 6.96191,-1.74105 7.40283,-2.04199 7.82275,-2.04199 h 5.64795"
         fill-rule="evenodd"
         vector-effect="none" />
    </g>
    <g
       id="g16"
       font-style="normal"
       font-weight="400"
       font-size="7.8px"
       font-family="'MS Shell Dlg 2'"
       stroke="none"
       fill-opacity="1"
       fill="#b75800" />
  </g>
</svg>
