<?xml version="1.0" encoding="UTF-8" standalone="no"?>
<svg width="11.25008mm" height="11.25008mm"
 viewBox="-5.3 -5.3 42.52000 42.52000"
 xmlns="http://www.w3.org/2000/svg" xmlns:xlink="http://www.w3.org/1999/xlink"  version="1.2" baseProfile="tiny">
<title>Qt SVG Document</title>
<desc>Generated with Qt</desc>
<defs>
</defs>
<g fill="none" stroke="black" stroke-width="1" fill-rule="evenodd" stroke-linecap="square" stroke-linejoin="bevel" >

<g fill="#b75800" fill-opacity="1" stroke="none" transform="matrix(1,0,0,1,0,0)"
font-family="MS Shell Dlg 2" font-size="7.8" font-weight="400" font-style="normal" 
>
<path vector-effect="non-scaling-stroke" fill-rule="evenodd" d="M37.2598,16 C37.2598,27.7415 27.7415,37.2598 16,37.2598 C4.25851,37.2598 -5.25984,27.7415 -5.25984,16 C-5.25984,4.25851 4.25851,-5.25984 16,-5.25984 C27.7415,-5.25984 37.2598,4.25851 37.2598,16 "/>
</g>

<g fill="#ffffff" fill-opacity="0.94902" stroke="none" transform="matrix(1,0,0,1,16,13.1654)"
font-family="MS Shell Dlg 2" font-size="7.8" font-weight="400" font-style="normal" 
>
<path vector-effect="none" fill-rule="evenodd" d="M0.0541992,9.73682 C1.22998,9.73682 2.24829,9.44987 3.10913,8.87598 C3.96997,8.30208 4.72233,7.6722 5.36621,6.98633 C6.01009,6.30046 6.58049,5.67057 7.07739,5.09668 C7.5743,4.52279 8.06771,4.23584 8.55762,4.23584 L13.4707,4.23584 L13.4707,6.73438 L8.55762,6.73438 C8.24967,6.73438 7.93123,6.91984 7.60229,7.29077 C7.27336,7.6617 6.91992,8.12012 6.54199,8.66602 C6.16406,9.21191 5.76164,9.8138 5.33472,10.4717 C4.9078,11.1296 4.43538,11.7314 3.91748,12.2773 C3.39958,12.8232 2.81868,13.2817 2.1748,13.6526 C1.53092,14.0235 0.824056,14.209 0.0541992,14.209 C-0.715658,14.209 -1.42603,14.0235 -2.0769,13.6526 C-2.72778,13.2817 -3.32267,12.8232 -3.86157,12.2773 C-4.40047,11.7314 -4.89388,11.1296 -5.3418,10.4717 C-5.78971,9.8138 -6.19914,9.21191 -6.57007,8.66602 C-6.941,8.12012 -7.27694,7.6617 -7.57788,7.29077 C-7.87882,6.91984 -8.16227,6.73438 -8.42822,6.73438 L-13.3203,6.73438 L-13.3203,4.23584 L-8.42822,4.23584 C-8.0223,4.23584 -7.57438,4.52279 -7.08447,5.09668 C-6.59456,5.67057 -6.01367,6.30046 -5.3418,6.98633 C-4.66992,7.6722 -3.89657,8.30208 -3.02173,8.87598 C-2.14689,9.44987 -1.12158,9.73682 0.0541992,9.73682 M13.4707,-2.04199 L13.4707,1.82129 L8.55762,1.82129 C8.06771,1.82129 7.5743,2.12223 7.07739,2.72412 C6.58049,3.32601 6.01009,3.98739 5.36621,4.70825 C4.72233,5.42912 3.96997,6.09049 3.10913,6.69238 C2.24829,7.29427 1.22998,7.59521 0.0541992,7.59521 C-1.12158,7.59521 -2.14689,7.29427 -3.02173,6.69238 C-3.89657,6.09049 -4.66992,5.42912 -5.3418,4.70825 C-6.01367,3.98739 -6.59456,3.32601 -7.08447,2.72412 C-7.57438,2.12223 -8.0223,1.82129 -8.42822,1.82129 L-13.3203,1.82129 L-13.3203,-2.04199 L-7.69336,-2.04199 C-7.34342,-2.04199 -6.941,-1.74105 -6.48608,-1.13916 C-6.03117,-0.537272 -5.49577,0.127604 -4.87988,0.855469 C-4.264,1.58333 -3.55363,2.24821 -2.74878,2.8501 C-1.94393,3.45199 -1.0096,3.75293 0.0541992,3.75293 C1.118,3.75293 2.04183,3.45199 2.82568,2.8501 C3.60954,2.24821 4.30241,1.58333 4.9043,0.855469 C5.50618,0.127604 6.03809,-0.537272 6.5,-1.13916 C6.96191,-1.74105 7.40283,-2.04199 7.82275,-2.04199 L13.4707,-2.04199"/>
</g>

<g fill="#b75800" fill-opacity="1" stroke="none" transform="matrix(1,0,0,1,0,0)"
font-family="MS Shell Dlg 2" font-size="7.8" font-weight="400" font-style="normal" 
>
</g>
</g>
</svg>
