<svg xmlns="http://www.w3.org/2000/svg" version="1.2" viewBox="0 0 42.52 42.52" height="56.693" width="56.693">
   <g stroke-linejoin="bevel" stroke-linecap="square" fill-rule="evenodd" stroke="none" fill="none" font-weight="400"
      font-size="7.8" font-family="'MS Shell Dlg 2'">
      <path
         d="M42.52 21.26C42.52 33 33 42.52 21.26 42.52 9.518 42.52 0 33 0 21.26 0 9.518 9.518 0 21.26 0 33 0 42.52 9.518 42.52 21.26"
         vector-effect="non-scaling-stroke" fill="#b75800" />
      <path
         d="M21.314 28.162c1.176 0 2.194-.287 3.055-.86a12.865 12.865 0 002.257-1.89 63.947 63.947 0 001.711-1.89c.497-.574.99-.86 1.48-.86h4.914v2.498h-4.914c-.307 0-.626.185-.955.556-.329.37-.682.83-1.06 1.375-.378.546-.78 1.148-1.207 1.806-.427.658-.9 1.26-1.418 1.806a7.666 7.666 0 01-1.742 1.375c-.644.37-1.351.556-2.121.556a4.23 4.23 0 01-2.131-.556 8.214 8.214 0 01-1.785-1.375 12.88 12.88 0 01-1.48-1.806L14.69 27.09a20.506 20.506 0 00-1.008-1.375c-.301-.37-.584-.556-.85-.556H7.94V22.66h4.892c.406 0 .853.287 1.343.86a37.95 37.95 0 001.743 1.89 13.916 13.916 0 002.32 1.89c.875.574 1.9.861 3.076.861m13.417-11.779v3.864h-4.914c-.49 0-.983.3-1.48.902a67.907 67.907 0 01-1.711 1.984 12.98 12.98 0 01-2.257 1.985c-.86.602-1.88.902-3.055.902-1.176 0-2.201-.3-3.076-.902a14.009 14.009 0 01-2.32-1.985 39.807 39.807 0 01-1.743-1.984c-.49-.602-.937-.902-1.343-.902H7.94v-3.864h5.626c.35 0 .753.301 1.208.903.455.602.99 1.267 1.606 1.995a12.884 12.884 0 002.131 1.994c.805.602 1.74.903 2.803.903 1.064 0 1.988-.3 2.772-.903a12.794 12.794 0 002.078-1.994 70.868 70.868 0 001.596-1.995c.462-.602.903-.903 1.323-.903h5.648"
         fill-opacity=".949" fill="#fff" />
   </g>
</svg>