<?xml version="1.0" encoding="UTF-8" standalone="no"?>
<svg
   xmlns:dc="http://purl.org/dc/elements/1.1/"
   xmlns:cc="http://creativecommons.org/ns#"
   xmlns:rdf="http://www.w3.org/1999/02/22-rdf-syntax-ns#"
   xmlns:svg="http://www.w3.org/2000/svg"
   xmlns="http://www.w3.org/2000/svg"
   xmlns:sodipodi="http://sodipodi.sourceforge.net/DTD/sodipodi-0.dtd"
   xmlns:inkscape="http://www.inkscape.org/namespaces/inkscape"
   inkscape:version="1.0 (4035a4fb49, 2020-05-01)"
   sodipodi:docname="1714.svg"
   id="svg20"
   version="1.2"
   viewBox="0 0 42.519639 42.519639"
   height="14.999999mm"
   width="14.999999mm">
  <metadata
     id="metadata24">
    <rdf:RDF>
      <cc:Work
         rdf:about="">
        <dc:format>image/svg+xml</dc:format>
        <dc:type
           rdf:resource="http://purl.org/dc/dcmitype/StillImage" />
        <dc:title>Qt SVG Document</dc:title>
      </cc:Work>
    </rdf:RDF>
  </metadata>
  <sodipodi:namedview
     inkscape:current-layer="svg20"
     inkscape:window-maximized="0"
     inkscape:window-y="0"
     inkscape:window-x="0"
     inkscape:cy="28.346482"
     inkscape:cx="28.346482"
     inkscape:zoom="5.8410537"
     showgrid="false"
     id="namedview22"
     inkscape:window-height="480"
     inkscape:window-width="1034"
     inkscape:pageshadow="2"
     inkscape:pageopacity="0"
     guidetolerance="10"
     gridtolerance="10"
     objecttolerance="10"
     borderopacity="1"
     bordercolor="#666666"
     pagecolor="#ffffff" />
  <title
     id="title2">Qt SVG Document</title>
  <desc
     id="desc4">Generated with Qt</desc>
  <defs
     id="defs6" />
  <g
     transform="translate(5.25984,5.25984)"
     id="g18"
     stroke-linejoin="bevel"
     stroke-linecap="square"
     fill-rule="evenodd"
     stroke-width="1"
     stroke="#000000"
     fill="none">
    <g
       id="g10"
       font-style="normal"
       font-weight="400"
       font-size="7.8px"
       font-family="'MS Shell Dlg 2'"
       stroke="none"
       fill-opacity="1"
       fill="#b75800">
      <path
         id="path8"
         d="M 37.2598,16 C 37.2598,27.7415 27.7415,37.2598 16,37.2598 4.25851,37.2598 -5.25984,27.7415 -5.25984,16 -5.25984,4.25851 4.25851,-5.25984 16,-5.25984 27.7415,-5.25984 37.2598,4.25851 37.2598,16"
         fill-rule="evenodd"
         vector-effect="non-scaling-stroke" />
    </g>
    <g
       id="g14"
       font-style="normal"
       font-weight="400"
       font-size="7.8px"
       font-family="'MS Shell Dlg 2'"
       transform="translate(16,11.4646)"
       stroke="none"
       fill-opacity="0.94902"
       fill="#ffffff">
      <path
         id="path12"
         d="m 11.3501,15.2378 h -22.5708 l 1.0288,-2.6245 1.34376,-5.62697 h 0.94482 L -6.83252,4.4458 C -6.53857,4.41781 -6.27962,4.34782 -6.05566,4.23584 -5.8597,4.15186 -5.69523,4.01538 -5.56226,3.82642 -5.42928,3.63745 -5.39079,3.389 -5.44678,3.08105 -5.50277,2.78711 -5.57625,2.45467 -5.66724,2.08374 -5.75822,1.71281 -5.82471,1.36287 -5.8667,1.03394 -5.90869,0.704997 -5.90169,0.411051 -5.8457,0.1521 c 0.05599,-0.258952 0.20296,-0.43042 0.44091,-0.514405 0.22396,-0.111979 0.49341,-0.276448 0.80835,-0.493408 0.31495,-0.216957 0.61589,-0.454917 0.90284,-0.713867 0.28694,-0.25895 0.54589,-0.5179 0.77685,-0.77686 0.23096,-0.25895 0.37443,-0.48641 0.43042,-0.68237 0.05599,-0.19596 0.24146,-0.47591 0.5564,-0.83984 0.31494,-0.36393 0.63338,-0.72787 0.955321,-1.0918 0.363932,-0.43392 0.790852,-0.88184 1.280761,-1.34375 L 3.70752,-5.86328 5.89111,-6.3042 c 0.18197,0.08399 0.37093,0.24496 0.5669,0.48291 0.16797,0.19596 0.35343,0.47941 0.55639,0.85034 0.20297,0.37093 0.38843,0.85734 0.5564,1.45923 0.16797,0.60189 0.23796,1.19678 0.20996,1.78467 C 7.75277,-1.13916 7.68978,-0.572266 7.5918,-0.0263672 7.49382,0.519531 7.37484,1.05843 7.23486,1.59033 7.09489,2.12223 7.0109,2.64714 6.98291,3.16504 6.94092,3.68294 6.89193,4.29883 6.83594,5.0127 6.77995,5.72656 6.71696,6.41943 6.64697,7.09131 6.57699,7.76318 6.521,8.36507 6.479,8.89697 6.43701,9.42887 6.41602,9.76481 6.41602,9.90479 c 0,0.18201 0.07698,0.41641 0.23095,0.70341 0.15397,0.2869 0.33594,0.5843 0.5459,0.8923 0.22396,0.3499 0.49691,0.7209 0.81885,1.1128 l 2.26758,1.1758 1.0708,1.4487 M 5.26123,-0.971191 C 5.10726,-0.831217 4.96729,-0.701742 4.84131,-0.582764 4.71533,-0.463786 4.61035,-0.362305 4.52637,-0.27832 L 5.72314,1.98926 V 1.94727 L 7.15088,-1.51709 C 7.09489,-1.78304 7.0179,-2.02799 6.91992,-2.25195 6.86393,-2.46191 6.80794,-2.65788 6.75195,-2.83984 6.69596,-3.02181 6.65397,-3.16878 6.62598,-3.28076 6.59798,-3.37874 6.54199,-3.50472 6.45801,-3.65869 6.37402,-3.81266 6.27604,-3.95964 6.16406,-4.09961 6.03809,-4.28158 5.89111,-4.47054 5.72314,-4.6665 v 3.23339 L 5.26123,-0.971191 M -1.05859,13.8311 c -0.06999,0.0559 -0.0245,0.1049 0.136471,0.1469 0.16097,0.042 0.37793,0.07 0.650879,0.084 0.27294898,0.014 0.58789,0.035 0.944824,0.063 0.356936,0.028 0.724366,0.042 1.102296,0.042 L 0.138184,12.3193 c -0.321941,0.322 -0.587891,0.6334 -0.797852,0.9344 -0.209961,0.3009 -0.342932,0.4934 -0.398922,0.5774 m 3.69531,-0.273 C 3.86849,14.104 4.79932,14.349 5.4292,14.293 6.05908,14.237 6.58748,14.195 7.0144,14.167 7.44132,14.139 7.78426,14.104 8.04321,14.062 8.30216,14.02 8.34766,13.957 8.17969,13.873 7.63379,13.4671 7.43083,13.3271 7.5708,13.4531 7.71077,13.5791 7.08089,13.2712 5.68115,12.5293 L 4.40039,11.6685 3.58154,8.83398 5.47119,10.9756 C 5.38721,10.7516 5.31722,10.5417 5.26123,10.3457 5.23324,10.2337 5.21924,10.1427 5.21924,10.0728 L 5.59717,4.15186 4.48438,2.68213 V 4.76074 L 3.49756,3.24902 C 3.44157,3.52897 3.38208,3.87891 3.31909,4.29883 3.2561,4.71875 3.18262,5.13517 3.09863,5.5481 3.01465,5.96102 2.91667,6.34595 2.80469,6.70288 2.69271,7.05981 2.54574,7.32926 2.36377,7.51123 2.16781,7.6792 2.10482,7.96965 2.1748,8.38257 2.24479,8.79549 2.32528,9.22591 2.41626,9.67383 2.50724,10.1217 2.52824,10.5172 2.47925,10.8601 2.43026,11.203 2.2098,11.4025 1.81787,11.4585 c -0.23795,0.056 -0.42692,0.112 -0.56689,0.168 l 1.38574,1.9316"
         fill-rule="evenodd"
         vector-effect="none" />
    </g>
    <g
       id="g16"
       font-style="normal"
       font-weight="400"
       font-size="7.8px"
       font-family="'MS Shell Dlg 2'"
       stroke="none"
       fill-opacity="1"
       fill="#b75800" />
  </g>
</svg>
