<svg xmlns="http://www.w3.org/2000/svg" version="1.2" viewBox="0 0 42.52 42.52" height="56.693" width="56.693">
   <g stroke-linejoin="bevel" stroke-linecap="square" fill-rule="evenodd" stroke="none" fill="none" font-weight="400"
      font-size="7.8" font-family="'MS Shell Dlg 2'">
      <path
         d="M42.52 21.26C42.52 33 33 42.52 21.26 42.52 9.518 42.52 0 33 0 21.26 0 9.518 9.518 0 21.26 0 33 0 42.52 9.518 42.52 21.26"
         vector-effect="non-scaling-stroke" fill="#b75800" />
      <path
         d="M32.61 31.962H10.04l1.028-2.624 1.344-5.627h.945l1.07-2.54c.294-.029.553-.099.777-.21.196-.085.36-.221.494-.41.133-.19.171-.438.115-.746-.056-.293-.13-.626-.22-.997a9.443 9.443 0 01-.2-1.05 2.614 2.614 0 01.021-.881.654.654 0 01.441-.515 8.787 8.787 0 001.711-1.207c.287-.26.546-.518.777-.777.231-.259.375-.486.43-.682.057-.196.242-.476.557-.84.315-.364.633-.728.955-1.092.364-.434.791-.882 1.281-1.344l3.401.441 2.184-.44c.182.083.37.244.567.482.168.196.353.48.556.85.203.371.389.858.557 1.46.168.602.238 1.196.21 1.784a13.165 13.165 0 01-.19 1.701 20.76 20.76 0 01-.356 1.617 7.842 7.842 0 00-.252 1.574l-.147 1.848a81.826 81.826 0 01-.19 2.079c-.07.672-.125 1.274-.167 1.805-.042.532-.063.868-.063 1.008 0 .182.077.417.23.704.155.287.337.584.547.892.224.35.497.72.819 1.113l2.267 1.176 1.07 1.448m-6.088-16.209a30.291 30.291 0 00-.735.693l1.197 2.268v-.042l1.428-3.465a3.764 3.764 0 00-.231-.735c-.056-.21-.112-.405-.168-.587a8.972 8.972 0 01-.126-.441 1.976 1.976 0 00-.168-.378 3.02 3.02 0 00-.294-.441 6.993 6.993 0 00-.441-.567v3.233l-.462.462m-6.32 14.803c-.07.055-.024.104.137.146.16.042.378.07.65.084.274.014.588.035.945.063.357.028.725.042 1.103.042l-1.638-1.847a7.029 7.029 0 00-.798.934c-.21.301-.343.494-.399.578m3.696-.273c1.231.545 2.162.79 2.792.734.63-.056 1.158-.098 1.585-.126.427-.028.77-.063 1.03-.105.258-.042.304-.105.136-.189-.546-.405-.75-.545-.61-.42.14.127-.49-.181-1.889-.923l-1.28-.861-.82-2.835 1.89 2.142a8.293 8.293 0 01-.21-.63 1.18 1.18 0 01-.042-.273l.378-5.92-1.113-1.47v2.078l-.987-1.512c-.056.28-.115.63-.178 1.05-.063.42-.137.837-.22 1.25-.085.412-.182.797-.294 1.154-.112.357-.26.627-.441.809-.196.168-.26.458-.19.871s.151.843.242 1.291c.091.448.112.844.063 1.187-.049.342-.27.542-.661.598a4.132 4.132 0 00-.567.168l1.386 1.932"
         fill-opacity=".949" fill="#fff" />
   </g>
</svg>