<?xml version="1.0" encoding="UTF-8" standalone="no"?>
<svg width="11.2889mm" height="11.2889mm"
 viewBox="0 0 32 32"
 xmlns="http://www.w3.org/2000/svg" xmlns:xlink="http://www.w3.org/1999/xlink"  version="1.2" baseProfile="tiny">
<title>Qt SVG Document</title>
<desc>Generated with Qt</desc>
<defs>
</defs>
<g fill="none" stroke="black" stroke-width="1" fill-rule="evenodd" stroke-linecap="square" stroke-linejoin="bevel" >

<g fill="#b75800" fill-opacity="1" stroke="none" transform="matrix(1,0,0,1,0,0)"
font-family="MS Shell Dlg 2" font-size="7.8" font-weight="400" font-style="normal" 
>
<path vector-effect="non-scaling-stroke" fill-rule="evenodd" d="M37.2598,16 C37.2598,27.7415 27.7415,37.2598 16,37.2598 C4.25851,37.2598 -5.25984,27.7415 -5.25984,16 C-5.25984,4.25851 4.25851,-5.25984 16,-5.25984 C27.7415,-5.25984 37.2598,4.25851 37.2598,16 "/>
</g>

<g fill="#ffffff" fill-opacity="0.94902" stroke="none" transform="matrix(1,0,0,1,16.5669,12.0315)"
font-family="MS Shell Dlg 2" font-size="7.8" font-weight="400" font-style="normal" 
>
<path vector-effect="none" fill-rule="evenodd" d="M2.17725,-3.19678 L13.0112,13.2642 L12.6543,13.873 L4.19287,13.873 L-8.97168,13.873 L-13.0029,13.873 L-13.3599,13.3062 L-4.75146,-6.99707 L-4.0166,-6.99707 L-0.888184,0.456543 L1.52637,-3.19678 L2.17725,-3.19678 M-4.5835,3.29102 L-3.59668,3.29102 L-2.04297,1.44336 L-4.37354,-5.69531 L-8.8877,5.83154 L-4.05859,0.750488 L-4.5835,3.29102 M5.47363,6.33545 L6.77539,6.33545 L1.8623,-1.39111 L-1.53906,3.75293 L-0.195313,3.66895 L-2.04297,9.69482 L2.38721,3.20703 L5.47363,6.33545"/>
</g>

<g fill="#b75800" fill-opacity="1" stroke="none" transform="matrix(1,0,0,1,0,0)"
font-family="MS Shell Dlg 2" font-size="7.8" font-weight="400" font-style="normal" 
>
</g>
</g>
</svg>
