<svg xmlns="http://www.w3.org/2000/svg" version="1.2" viewBox="0 0 42.52 42.52" height="56.693" width="56.693">
   <g stroke-linejoin="bevel" stroke-linecap="square" fill-rule="evenodd" stroke="none" fill="none" font-weight="400"
      font-size="7.8" font-family="'MS Shell Dlg 2'">
      <path
         d="M42.52 21.26C42.52 33 33 42.52 21.26 42.52 9.518 42.52 0 33 0 21.26 0 9.518 9.518 0 21.26 0 33 0 42.52 9.518 42.52 21.26"
         vector-effect="non-scaling-stroke" fill="#b75800" />
      <path
         d="M31.858 11.995c.238-.028.427 0 .567.084.14.084.266.182.378.294.112.126.217.273.315.44v20.892c-1.904 0-3.507-.185-4.808-.556-1.302-.371-2.38-.802-3.234-1.292-1.008-.518-1.84-1.133-2.498-1.847-.112-.168-.126-.301-.042-.4.084-.097.203-.185.357-.262.154-.077.325-.136.514-.178.189-.042.34-.105.451-.19.322-.14.54-.276.651-.409a.752.752 0 00.19-.409c.013-.14 0-.325-.043-.556a4.854 4.854 0 01-.063-.85c0-.785-.087-1.463-.262-2.037a15.378 15.378 0 00-.515-1.46c-.167-.398-.3-.72-.398-.965-.098-.245-.063-.41.105-.494.91-.546 1.48-1.127 1.71-1.742.232-.616.32-1.204.263-1.764a11.245 11.245 0 00-.23-1.46c-.099-.412-.022-.66.23-.745.406-.056.658-.171.756-.346a1.28 1.28 0 00.168-.525c.014-.175.035-.34.063-.493.028-.154.189-.245.483-.273.364-.028.553-.077.567-.147.014-.07-.035-.179-.147-.326a3.723 3.723 0 01-.336-.546c-.112-.217-.112-.48 0-.787.252-.084.595-.175 1.029-.273a46.28 46.28 0 011.49-.189c.616-.07 1.38-.133 2.289-.189M17.58 31.27c.14.14.283.301.43.483.147.182.193.35.137.504 0 .028-.021.12-.063.273-.042.154-.26.319-.651.494-.392.175-1.015.332-1.869.472-.854.14-2.114.21-3.78.21H8.91v-21.71c.056-.056.12-.126.19-.21.07-.084.146-.126.23-.126.882 0 1.547.05 1.995.147.448.098.801.203 1.06.315a5 5 0 00.661.242c.182.048.462-.004.84-.158.056.182.193.43.41.745.217.315.325.543.325.683 0 .196.109.346.326.451.217.105.451.2.703.284.252.084.465.182.64.294.175.112.22.287.137.524a1.554 1.554 0 01-.368.62l-.43.43c-.126.126-.231.277-.315.452-.084.175-.112.402-.084.682 0 .196.12.497.357.903.238.406.48.836.724 1.291.245.455.434.906.567 1.354.133.448.067.812-.2 1.092-.083.686-.052 1.193.095 1.522.147.33.326.595.536.798.21.203.41.4.598.588.19.19.27.48.242.872-.028.405-.109.696-.242.87a8.717 8.717 0 00-.43.63c-.154.246-.298.582-.43 1.009-.134.426-.2 1.116-.2 2.068 0 .084.101.23.304.44.203.21.347.365.43.462m3.486-1.91c.112.154.056.245-.168.273a1.442 1.442 0 00-.577.189c-.161.098-.172.29-.032.577.14.287.63.732 1.47 1.333.252.196.602.403 1.05.62.448.217.882.423 1.301.62.518.237 1.064.482 1.638.734h-6.782c.574-.574.847-1.032.82-1.375-.029-.343-.19-.669-.484-.977-.308-.321-.427-.689-.357-1.102.07-.413.462-.71 1.176-.892.14-.028.217-.063.231-.105a.396.396 0 00.021-.126c0-.042.007-.084.021-.126.014-.042.084-.077.21-.105.308-.14.777-.249 1.407-.326a14.03 14.03 0 011.68-.115c-.574.07-1.064.16-1.47.273-.336.084-.64.182-.914.294-.273.112-.353.224-.241.336"
         fill-opacity=".949" fill="#fff" />
   </g>
</svg>