<?xml version="1.0" encoding="UTF-8" standalone="no"?>
<svg width="11.25008mm" height="11.25008mm"
 viewBox="-5.3 -5.3 42.52000 42.52000"
 xmlns="http://www.w3.org/2000/svg" xmlns:xlink="http://www.w3.org/1999/xlink"  version="1.2" baseProfile="tiny">
<title>Qt SVG Document</title>
<desc>Generated with Qt</desc>
<defs>
</defs>
<g fill="none" stroke="black" stroke-width="1" fill-rule="evenodd" stroke-linecap="square" stroke-linejoin="bevel" >

<g fill="#b75800" fill-opacity="1" stroke="none" transform="matrix(1,0,0,1,0,0)"
font-family="MS Shell Dlg 2" font-size="7.8" font-weight="400" font-style="normal" 
>
<path vector-effect="non-scaling-stroke" fill-rule="evenodd" d="M37.2598,16 C37.2598,27.7415 27.7415,37.2598 16,37.2598 C4.25851,37.2598 -5.25984,27.7415 -5.25984,16 C-5.25984,4.25851 4.25851,-5.25984 16,-5.25984 C27.7415,-5.25984 37.2598,4.25851 37.2598,16 "/>
</g>

<g fill="#ffffff" fill-opacity="0.94902" stroke="none" transform="matrix(1,0,0,1,16,13.1654)"
font-family="MS Shell Dlg 2" font-size="7.8" font-weight="400" font-style="normal" 
>
<path vector-effect="none" fill-rule="evenodd" d="M10.5981,-6.43018 C10.8361,-6.45817 11.0251,-6.43018 11.165,-6.34619 C11.305,-6.26221 11.431,-6.16423 11.543,-6.05225 C11.6549,-5.92627 11.7599,-5.7793 11.8579,-5.61133 L11.8579,15.2798 C9.95426,15.2798 8.35156,15.0943 7.0498,14.7234 C5.74805,14.3525 4.67025,13.922 3.81641,13.4321 C2.80859,12.9142 1.97575,12.2983 1.31787,11.5845 C1.20589,11.4165 1.19189,11.2835 1.27588,11.1855 C1.35986,11.0876 1.47884,11.0001 1.63281,10.9231 C1.78678,10.8461 1.95825,10.7866 2.14722,10.7446 C2.33618,10.7026 2.48665,10.6396 2.59863,10.5557 C2.92057,10.4157 3.13753,10.2792 3.24951,10.1462 C3.36149,10.0133 3.42448,9.87679 3.43848,9.73682 C3.45247,9.59684 3.43848,9.41138 3.39648,9.18042 C3.35449,8.94946 3.3335,8.66602 3.3335,8.33008 C3.3335,7.54622 3.24601,6.86735 3.07104,6.29346 C2.89608,5.71956 2.72461,5.23315 2.55664,4.83423 C2.38867,4.4353 2.2557,4.11336 2.15771,3.86841 C2.05973,3.62345 2.09473,3.45898 2.2627,3.375 C3.17253,2.8291 3.74292,2.24821 3.97388,1.63232 C4.20483,1.01644 4.29232,0.428548 4.23633,-0.131348 C4.18034,-0.691243 4.10335,-1.17765 4.00537,-1.59058 C3.90739,-2.0035 3.98438,-2.25195 4.23633,-2.33594 C4.64225,-2.39193 4.89421,-2.50741 4.99219,-2.68237 C5.09017,-2.85734 5.14616,-3.03231 5.16016,-3.20728 C5.17415,-3.38224 5.19515,-3.54671 5.22314,-3.70068 C5.25114,-3.85465 5.41211,-3.94564 5.70605,-3.97363 C6.06999,-4.00163 6.25895,-4.05062 6.27295,-4.12061 C6.28695,-4.19059 6.23796,-4.29907 6.12598,-4.44604 C6.014,-4.59302 5.90202,-4.77498 5.79004,-4.99194 C5.67806,-5.2089 5.67806,-5.47135 5.79004,-5.7793 C6.04199,-5.86328 6.38493,-5.95426 6.81885,-6.05225 C7.19678,-6.10824 7.69368,-6.17122 8.30957,-6.24121 C8.92546,-6.3112 9.68831,-6.37419 10.5981,-6.43018 M-3.6792,12.8442 C-3.53923,12.9842 -3.39575,13.1452 -3.24878,13.3271 C-3.10181,13.5091 -3.05632,13.6771 -3.1123,13.8311 C-3.1123,13.859 -3.1333,13.95 -3.17529,14.104 C-3.21729,14.258 -3.43424,14.4224 -3.82617,14.5974 C-4.2181,14.7724 -4.84098,14.9299 -5.69482,15.0698 C-6.54867,15.2098 -7.80843,15.2798 -9.47412,15.2798 L-10.293,15.2798 L-12.3506,15.2798 L-12.3506,-6.43018 C-12.2946,-6.48617 -12.2316,-6.55615 -12.1616,-6.64014 C-12.0916,-6.72412 -12.0146,-6.76611 -11.9307,-6.76611 C-11.0488,-6.76611 -10.384,-6.71712 -9.93604,-6.61914 C-9.48812,-6.52116 -9.13468,-6.41618 -8.87573,-6.3042 C-8.61678,-6.19222 -8.39632,-6.11174 -8.21436,-6.06274 C-8.03239,-6.01375 -7.75244,-6.06624 -7.37451,-6.22021 C-7.31852,-6.03825 -7.18205,-5.78979 -6.96509,-5.47485 C-6.74813,-5.15991 -6.63965,-4.93245 -6.63965,-4.79248 C-6.63965,-4.59652 -6.53117,-4.44604 -6.31421,-4.34106 C-6.09725,-4.23608 -5.86279,-4.1416 -5.61084,-4.05762 C-5.35889,-3.97363 -5.14543,-3.87565 -4.97046,-3.76367 C-4.79549,-3.65169 -4.75,-3.47673 -4.83398,-3.23877 C-4.91797,-2.98682 -5.04045,-2.78035 -5.20142,-2.61938 C-5.36239,-2.45841 -5.50586,-2.31494 -5.63184,-2.18896 C-5.75781,-2.06299 -5.86279,-1.91252 -5.94678,-1.73755 C-6.03076,-1.56258 -6.05876,-1.33512 -6.03076,-1.05518 C-6.03076,-0.859212 -5.91178,-0.558268 -5.67383,-0.152344 C-5.43587,0.253581 -5.19442,0.684001 -4.94946,1.13892 C-4.70451,1.59383 -4.51554,2.04525 -4.38257,2.49316 C-4.24959,2.94108 -4.31608,3.30501 -4.58203,3.58496 C-4.66602,4.27083 -4.63452,4.77824 -4.48755,5.10718 C-4.34058,5.43612 -4.16211,5.70207 -3.95215,5.90503 C-3.74219,6.10799 -3.54272,6.30396 -3.35376,6.49292 C-3.16479,6.68188 -3.08431,6.97233 -3.1123,7.36426 C-3.1403,7.77018 -3.22078,8.06063 -3.35376,8.2356 C-3.48674,8.41056 -3.63021,8.62052 -3.78418,8.86548 C-3.93815,9.11043 -4.08162,9.44637 -4.2146,9.87329 C-4.34757,10.3002 -4.41406,10.9896 -4.41406,11.9414 C-4.41406,12.0254 -4.31258,12.1724 -4.10962,12.3823 C-3.90666,12.5923 -3.76318,12.7463 -3.6792,12.8442 M-0.193848,10.9336 C-0.0818685,11.0876 -0.137858,11.1785 -0.361816,11.2065 C-0.585775,11.2345 -0.778239,11.2975 -0.939209,11.3955 C-1.10018,11.4935 -1.11068,11.686 -0.970703,11.9729 C-0.830729,12.2598 -0.34082,12.7043 0.499023,13.3062 C0.750977,13.5021 1.10091,13.7086 1.54883,13.9255 C1.99674,14.1425 2.43066,14.349 2.85059,14.5449 C3.36849,14.7829 3.91439,15.0278 4.48828,15.2798 L-2.29346,15.2798 C-1.71956,14.7059 -1.44661,14.2475 -1.47461,13.9045 C-1.5026,13.5616 -1.66357,13.2362 -1.95752,12.9282 C-2.26546,12.6063 -2.38444,12.2389 -2.31445,11.8259 C-2.24447,11.413 -1.85254,11.1156 -1.13867,10.9336 C-0.998698,10.9056 -0.921712,10.8706 -0.907715,10.8286 C-0.893717,10.7866 -0.886719,10.7446 -0.886719,10.7026 C-0.886719,10.6606 -0.87972,10.6187 -0.865723,10.5767 C-0.851725,10.5347 -0.781738,10.4997 -0.655762,10.4717 C-0.347819,10.3317 0.121094,10.2232 0.750977,10.1462 C1.38086,10.0693 1.94076,10.0308 2.43066,10.0308 C1.85677,10.1007 1.36686,10.1917 0.960938,10.3037 C0.625,10.3877 0.320557,10.4857 0.0476074,10.5977 C-0.225342,10.7096 -0.305827,10.8216 -0.193848,10.9336 "/>
</g>

<g fill="#b75800" fill-opacity="1" stroke="none" transform="matrix(1,0,0,1,0,0)"
font-family="MS Shell Dlg 2" font-size="7.8" font-weight="400" font-style="normal" 
>
</g>
</g>
</svg>
