<svg xmlns="http://www.w3.org/2000/svg" version="1.2" viewBox="0 0 42.52 42.52" height="56.693" width="56.693">
   <g stroke-linejoin="bevel" stroke-linecap="square" fill-rule="evenodd" stroke="none" fill="none" font-weight="400"
      font-size="7.8" font-family="'MS Shell Dlg 2'">
      <path
         d="M42.52 21.26C42.52 33 33 42.52 21.26 42.52 9.518 42.52 0 33 0 21.26 0 9.518 9.518 0 21.26 0 33 0 42.52 9.518 42.52 21.26"
         vector-effect="non-scaling-stroke" fill="#66b1e3" />
      <path
         d="M21.293 21.233c-.224 0-.437-.077-.64-.23-.203-.155-.333-.316-.389-.484.21.28.553.42 1.029.42.49 0 .84-.14 1.05-.42-.07.168-.203.33-.4.483a1.029 1.029 0 01-.65.231m0 1.47c.266.322.616.483 1.05.483.476 0 .805-.161.987-.483-.154.434-.483.65-.987.65-.546 0-.896-.216-1.05-.65m-.294 1.28c-.406 0-.65-.181-.735-.545a.86.86 0 00.735.378c.434 0 .721-.126.86-.378-.111.364-.398.546-.86.546m3.527-9.616c-.461 0-.79-.217-.986-.651.252.322.58.483.986.483.518 0 .861-.161 1.03-.483-.14.434-.484.65-1.03.65m1.113-1.091a.522.522 0 01-.378-.168 2.035 2.035 0 01-.252-.294.855.855 0 00.63.252c.35 0 .567-.084.651-.252a6.641 6.641 0 01-.21.294c-.084.112-.23.168-.44.168m-7.223 12.702c-.392 0-.665-.189-.82-.566a1.241 1.241 0 00.82.336c.21 0 .391-.035.545-.105.154-.07.287-.147.4-.231-.085.377-.4.566-.945.566m3.695 6.824c.056.084.15.172.283.263a.853.853 0 00.494.136c.14 0 .27-.045.388-.136.12-.091.207-.179.263-.263a1.019 1.019 0 01-.263.4.557.557 0 01-.388.167.74.74 0 01-.494-.168.933.933 0 01-.283-.399m4.01-1.763c.224.321.525.482.903.482.392 0 .707-.16.945-.482-.168.49-.483.734-.945.734-.14 0-.287-.056-.44-.168-.057.084-.14.168-.253.252a.614.614 0 01-.378.126c-.378 0-.637-.154-.777-.462.112.168.371.252.777.252.224 0 .434-.056.63-.168a.614.614 0 01-.294-.21 1.72 1.72 0 01-.168-.356m-9.385-.945c.126.266.385.399.777.399a.69.69 0 00.65-.4c-.14.323-.356.484-.65.484h-.378c-.14.308-.413.462-.819.462-.546 0-.86-.182-.945-.546.084.084.214.168.389.252.175.084.36.126.556.126.364 0 .637-.098.819-.294a2.9 2.9 0 01-.263-.2.358.358 0 01-.136-.283m14.445.399c.952.084 1.652.241 2.1.472.448.231.647.483.598.756-.049.273-.315.535-.798.787-.483.252-1.172.441-2.068.567-.224.336-.521.62-.892.85-.371.231-.896.41-1.575.536-.679.126-1.554.189-2.624.189-1.071 0-2.425-.056-4.063-.168a30.333 30.333 0 00-3.024-.021 55.991 55.991 0 01-3.422.02 23.241 23.241 0 01-3.013-.251c-.889-.14-1.473-.427-1.753-.861-.182-.266-.185-.476-.01-.63a5.55 5.55 0 01.472-.378c.14-.098.182-.185.126-.262-.056-.077-.399-.158-1.029-.242-1.008-.168-1.648-.476-1.921-.923-.273-.448-.109-.756.493-.924.49-.084.945-.175 1.365-.273.42-.098.707-.193.86-.284.155-.09.14-.185-.041-.283-.182-.098-.623-.19-1.323-.273-.742-.084-1.333-.214-1.774-.388-.44-.175-.763-.347-.966-.515-.203-.168-.29-.318-.262-.451.028-.133.154-.2.378-.2 1.175 0 2.064-.028 2.666-.084.602-.056 1.012-.126 1.228-.21.217-.084.305-.185.263-.304a.647.647 0 00-.231-.305 4.085 4.085 0 00-.304-.21c-.091-.056-.06-.084.094-.084.224 0 .37-.02.44-.063a.336.336 0 00.148-.178.482.482 0 01.105-.178c.042-.042.154-.063.336-.063.196-.224.259-.553.189-.987a8.847 8.847 0 01-.105-1.407c0-.518.084-.948.252-1.291.168-.343.36-.665.577-.966.217-.301.42-.595.609-.882.189-.287.297-.605.325-.955.112-.798.298-1.386.557-1.764.259-.378.539-.679.84-.903.3-.224.595-.48.882-.766.286-.287.514-.745.682-1.375 0-.462.23-.893.693-1.292.462-.399 1.036-.742 1.721-1.028a12.867 12.867 0 012.237-.693 13.028 13.028 0 012.194-.305c.196-.028.336-.014.42.042l.283.19c.105.07.248.143.43.22.182.077.462.115.84.115a6.827 6.827 0 011.659-.714c.56-.154 1.07-.28 1.533-.378.252-.056.507-.098.766-.126l.766-.084a9.62 9.62 0 00-.703.515 13.38 13.38 0 01-.62.472c-.321.266-.619.522-.892.767-.273.244-.381.423-.325.535.35-.182.777-.378 1.28-.588a3.61 3.61 0 011.502-.294c.497.014.948.207 1.354.578.406.37.679 1.06.819 2.068 0 .084.056.105.168.063.112-.042.206.014.283.168.077.154.091.49.042 1.007-.049.518-.213 1.351-.493 2.499.252.308.273.612.063.913-.21.301-.465.574-.766.82-.301.244-.567.433-.798.566-.231.133-.235.171-.01.115.601-.237 1.126-.262 1.574-.073.448.189.567.48.357.871a6.505 6.505 0 00-.441 1.743 15.81 15.81 0 00-.105 1.785c0 .672.042 1.322.126 1.952.378.63.58 1.183.609 1.659.056.434-.039.854-.284 1.26-.245.406-.801.665-1.669.777M21 33.83c2.156.154 4.028.13 5.617-.073 1.588-.203 2.89-.455 3.905-.756 1.015-.301 1.739-.61 2.173-.924.434-.315.553-.529.357-.64-.07-.057-.08-.123-.032-.2.05-.077.05-.15 0-.22-.049-.07-.178-.133-.388-.19-.21-.055-.616-.111-1.218-.167-.518-.028-.756-.091-.714-.19.042-.097.193-.199.452-.304.259-.105.532-.2.819-.283.287-.084.402-.126.346-.126-.322-.14-.612-.203-.871-.19a3.46 3.46 0 00-.704.106c-.21.056-.402.105-.577.147-.175.042-.319.02-.43-.063-.294-.168-.697-.252-1.208-.252-.51 0-.857.084-1.04.252a.722.722 0 01-.577.168 2.317 2.317 0 01-.619-.168 1.386 1.386 0 00-.987-.4c-.406 0-.749.134-1.029.4-.21.112-.426.168-.65.168v-.567c-.224.154-.385.23-.483.23-.28 0-.508-.08-.683-.24a1.16 1.16 0 01-.346-.536c.238.308.58.462 1.029.462.07 0 .14-.014.21-.042a.745.745 0 01.273-.042c0-.14-.014-.26-.042-.357a1.409 1.409 0 01-.042-.378c.574.098 1.063 0 1.47-.294.251-.112.49-.168.713-.168.266 0 .525.056.777.168.266.224.591.336.976.336s.732-.112 1.04-.336a1.365 1.365 0 011.385 0c.35.266.721.399 1.113.399.238-.07.557-.196.956-.378.398-.182.64-.378.724-.588-.056.07-.161.126-.315.168-.154.042-.325.07-.514.084l-.546.042a7 7 0 01-.305.021c-.196 0-.406-.07-.63-.21-.811-.462-1.56-.462-2.246 0a.966.966 0 01-.64.21c-.26 0-.501-.07-.725-.21-.238-.238-.588-.357-1.05-.357-.364 0-.735.12-1.113.357-.308.224-.664.266-1.07.126a48.319 48.319 0 01.084-4.965c.112-1.59.329-3.09.65-4.504-.237.322-.524.483-.86.483-.518 0-.847-.245-.987-.735.196.28.525.42.987.42.42 0 .707-.112.86-.336.462-1.722 1.078-3.247 1.848-4.577a7.658 7.658 0 013.213-3.045 17.73 17.73 0 00-1.428.357c-.476.14-.945.294-1.407.462.084 0 .158.025.22.074.064.049.165.073.305.073.168 0 .322-.077.462-.23a.25.25 0 01-.147.24.695.695 0 01-.315.074c-.266 0-.44-.077-.525-.23a5.13 5.13 0 01-.661.314c-.217.084-.438.168-.662.252.084.084.21.126.378.126s.33-.07.483-.21c0 .112-.06.189-.178.231a.943.943 0 01-.305.063.833.833 0 01-.378-.084 9.302 9.302 0 00-2.162 1.554 17.777 17.777 0 00-1.89 2.141c.182 0 .343-.035.483-.105.14-.07.252-.133.336-.189-.028-.084-.112-.196-.252-.336.28.28.609.42.987.42.49 0 .833-.14 1.029-.42a1.137 1.137 0 01-.347.483c-.175.154-.402.231-.682.231-.294 0-.54-.126-.735-.378-.14.308-.413.462-.819.462H21c-.14.21-.276.413-.41.61-.132.195-.269.398-.409.608.14.084.298.168.473.252.175.084.332.126.472.126.294 0 .546-.063.756-.189.21-.126.392-.273.546-.44-.056.251-.207.465-.452.64a1.425 1.425 0 01-.85.262c-.42 0-.763-.161-1.029-.483-.224.322-.43.675-.62 1.06-.188.385-.353.78-.493 1.187a.69.69 0 01.21.042.793.793 0 00.252.042c.182 0 .371-.046.567-.137.196-.09.357-.206.483-.346-.238.434-.588.65-1.05.65h-.273a.483.483 0 01-.273-.083c-.153.308-.3.633-.44.976-.14.343-.266.703-.378 1.081.196.112.44.168.735.168.517 0 .944-.217 1.28-.65a1.13 1.13 0 01-.493.671 1.453 1.453 0 01-.787.231 2.1 2.1 0 01-.861-.168 9.277 9.277 0 00-.22.714 42.71 42.71 0 01-.221.798h.084c.434 0 .763-.161.987-.483a.872.872 0 01-.357.462 1.08 1.08 0 01-.63.189h-.21a56.034 56.034 0 00-.473 2.005 22.036 22.036 0 00-.346 2.09.201.201 0 01-.147-.064c-.042-.042-.119-.063-.231-.063a1.05 1.05 0 00-.483-.294 2.07 2.07 0 00-.504-.063c-.378 0-.756.12-1.134.357-.476.308-.93.308-1.364 0-.658-.49-1.38-.49-2.163 0-.224.14-.434.21-.63.21-.21 0-.427-.07-.65-.21a.586.586 0 00.283.441c.16.098.332.161.514.189.182.028.368.028.557 0 .188-.028.325-.084.409-.168.378-.252.805-.252 1.28 0 .785.49 1.505.49 2.163 0 .252-.112.497-.168.735-.168.224 0 .462.056.714.168.098.056.196.105.294.147.098.042.189.091.273.147a2.066 2.066 0 00-.063.357c-.014.14-.035.273-.063.399a.862.862 0 01-.105.283c-.042.063-.091.053-.147-.031a.558.558 0 01-.252-.053.43.43 0 00-.189-.052c-.406 0-.749.133-1.029.399-.406.252-.833.252-1.28 0-.294-.238-.606-.357-.935-.357-.329 0-.64.119-.934.357-.084.028-.326.063-.724.105a41.01 41.01 0 00-1.218.147c-.413.056-.742.15-.987.283-.245.133-.256.298-.032.494.378.252.746.423 1.103.514.357.09.794.164 1.312.22.91.056 1.575.12 1.995.19.42.07.622.164.608.283-.014.119-.23.241-.65.367-.42.126-.987.273-1.701.441.462.574 1.088.935 1.88 1.082.79.146 1.65.213 2.582.199.93-.014 1.868-.074 2.813-.179.945-.104 1.788-.129 2.53-.073m8.902-2.142c.112.084.249.168.41.252.16.084.34.126.535.126.168 0 .34-.042.515-.126.175-.084.304-.168.388-.252-.084.434-.385.651-.903.651-.434 0-.749-.217-.945-.65m-9.154-4.347c.28 0 .543-.063.787-.189.245-.126.438-.28.578-.462a1.107 1.107 0 01-.515.672 1.633 1.633 0 01-.85.231c-.294 0-.56-.077-.798-.23a1.295 1.295 0 01-.504-.568.677.677 0 01-.546.252c-.405 0-.65-.217-.734-.65.168.321.413.482.734.482.308 0 .553-.16.735-.483 0 .14-.063.273-.189.4.154.14.35.265.588.377.238.112.476.168.714.168m-1.764 3.696c.336.433.763.65 1.281.65.49 0 .896-.217 1.218-.65-.21.63-.616.944-1.218.944-.658 0-1.085-.315-1.28-.944m-4.83 1.763c.098.084.217.172.357.263a.83.83 0 00.462.136.7.7 0 00.42-.136c.126-.091.245-.179.357-.263a.972.972 0 01-.273.4c-.126.111-.294.167-.504.167-.336 0-.609-.189-.819-.567"
         fill-opacity=".949" fill="#fff" />
   </g>
</svg>