<?xml version="1.0" encoding="UTF-8" standalone="no"?>
<svg width="11.2889mm" height="11.2889mm"
 viewBox="0 0 32 32"
 xmlns="http://www.w3.org/2000/svg" xmlns:xlink="http://www.w3.org/1999/xlink"  version="1.2" baseProfile="tiny">
<title>Qt SVG Document</title>
<desc>Generated with Qt</desc>
<defs>
</defs>
<g fill="none" stroke="black" stroke-width="1" fill-rule="evenodd" stroke-linecap="square" stroke-linejoin="bevel" >

<g fill="#66b1e3" fill-opacity="1" stroke="none" transform="matrix(1,0,0,1,0,0)"
font-family="MS Shell Dlg 2" font-size="7.8" font-weight="400" font-style="normal" 
>
<path vector-effect="non-scaling-stroke" fill-rule="evenodd" d="M37.2598,16 C37.2598,27.7415 27.7415,37.2598 16,37.2598 C4.25851,37.2598 -5.25984,27.7415 -5.25984,16 C-5.25984,4.25851 4.25851,-5.25984 16,-5.25984 C27.7415,-5.25984 37.2598,4.25851 37.2598,16 "/>
</g>

<g fill="#ffffff" fill-opacity="0.94902" stroke="none" transform="matrix(1,0,0,1,15.4331,13.1654)"
font-family="MS Shell Dlg 2" font-size="7.8" font-weight="400" font-style="normal" 
>
<path vector-effect="none" fill-rule="evenodd" d="M0.600098,2.80811 C0.376139,2.80811 0.162679,2.73112 -0.0402832,2.57715 C-0.243245,2.42318 -0.372721,2.26221 -0.428711,2.09424 C-0.21875,2.37419 0.124186,2.51416 0.600098,2.51416 C1.09001,2.51416 1.43994,2.37419 1.6499,2.09424 C1.57992,2.26221 1.44694,2.42318 1.25098,2.57715 C1.05501,2.73112 0.838053,2.80811 0.600098,2.80811 M0.600098,4.27783 C0.866048,4.59977 1.21598,4.76074 1.6499,4.76074 C2.12581,4.76074 2.45475,4.59977 2.63672,4.27783 C2.48275,4.71175 2.15381,4.92871 1.6499,4.92871 C1.104,4.92871 0.754069,4.71175 0.600098,4.27783 M0.306152,5.55859 C-0.0997721,5.55859 -0.344727,5.37663 -0.428711,5.0127 C-0.246745,5.26465 -0.00179036,5.39063 0.306152,5.39063 C0.740072,5.39063 1.02702,5.26465 1.16699,5.0127 C1.05501,5.37663 0.768066,5.55859 0.306152,5.55859 M3.8335,-4.05762 C3.37158,-4.05762 3.04264,-4.27458 2.84668,-4.7085 C3.09863,-4.38656 3.42757,-4.22559 3.8335,-4.22559 C4.3514,-4.22559 4.69434,-4.38656 4.8623,-4.7085 C4.72233,-4.27458 4.37939,-4.05762 3.8335,-4.05762 M4.94629,-5.14941 C4.80632,-5.14941 4.68034,-5.2054 4.56836,-5.31738 C4.45638,-5.42936 4.3724,-5.52734 4.31641,-5.61133 C4.48438,-5.44336 4.69434,-5.35938 4.94629,-5.35938 C5.29622,-5.35938 5.51318,-5.44336 5.59717,-5.61133 C5.54118,-5.52734 5.47119,-5.42936 5.38721,-5.31738 C5.30322,-5.2054 5.15625,-5.14941 4.94629,-5.14941 M-2.27637,7.55322 C-2.66829,7.55322 -2.94124,7.36426 -3.09521,6.98633 C-3.01123,7.07031 -2.89575,7.1473 -2.74878,7.21729 C-2.60181,7.28727 -2.44434,7.32227 -2.27637,7.32227 C-2.06641,7.32227 -1.88444,7.28727 -1.73047,7.21729 C-1.5765,7.1473 -1.44352,7.07031 -1.33154,6.98633 C-1.41553,7.36426 -1.73047,7.55322 -2.27637,7.55322 M1.41895,14.377 C1.47493,14.4609 1.56942,14.5484 1.70239,14.6394 C1.83537,14.7304 1.99984,14.7759 2.1958,14.7759 C2.33577,14.7759 2.46525,14.7304 2.58423,14.6394 C2.70321,14.5484 2.79069,14.4609 2.84668,14.377 C2.79069,14.5309 2.70321,14.6639 2.58423,14.7759 C2.46525,14.8879 2.33577,14.9438 2.1958,14.9438 C1.99984,14.9438 1.83537,14.8879 1.70239,14.7759 C1.56942,14.6639 1.47493,14.5309 1.41895,14.377 M5.4292,12.6133 C5.65316,12.9352 5.9541,13.0962 6.33203,13.0962 C6.72396,13.0962 7.0389,12.9352 7.27686,12.6133 C7.10889,13.1032 6.79395,13.3481 6.33203,13.3481 C6.19206,13.3481 6.04508,13.2922 5.89111,13.1802 C5.83512,13.2642 5.75114,13.3481 5.63916,13.4321 C5.52718,13.5161 5.4012,13.5581 5.26123,13.5581 C4.8833,13.5581 4.62435,13.4041 4.48438,13.0962 C4.59635,13.2642 4.85531,13.3481 5.26123,13.3481 C5.48519,13.3481 5.69515,13.2922 5.89111,13.1802 C5.75114,13.1242 5.65316,13.0542 5.59717,12.9702 C5.54118,12.8862 5.48519,12.7673 5.4292,12.6133 M-3.95605,11.6685 C-3.83008,11.9344 -3.57113,12.0674 -3.1792,12.0674 C-2.88525,12.0674 -2.66829,11.9344 -2.52832,11.6685 C-2.66829,11.9904 -2.88525,12.1514 -3.1792,12.1514 L-3.55713,12.1514 C-3.6971,12.4593 -3.97005,12.6133 -4.37598,12.6133 C-4.92188,12.6133 -5.23682,12.4313 -5.3208,12.0674 C-5.23682,12.1514 -5.10734,12.2354 -4.93237,12.3193 C-4.75741,12.4033 -4.57194,12.4453 -4.37598,12.4453 C-4.01204,12.4453 -3.7391,12.3473 -3.55713,12.1514 C-3.64111,12.0954 -3.7286,12.0289 -3.81958,11.9519 C-3.91056,11.8749 -3.95605,11.7804 -3.95605,11.6685 M10.4893,12.0674 C11.4411,12.1514 12.141,12.3088 12.5889,12.5398 C13.0368,12.7708 13.2362,13.0227 13.1873,13.2957 C13.1383,13.5686 12.8723,13.8311 12.3894,14.083 C11.9065,14.335 11.2171,14.5239 10.3213,14.6499 C10.0973,14.9858 9.79989,15.2693 9.42896,15.5002 C9.05802,15.7312 8.53312,15.9097 7.85425,16.0356 C7.17537,16.1616 6.30054,16.2246 5.22974,16.2246 C4.15894,16.2246 2.80469,16.1686 1.16699,16.0566 C0.313151,16.0007 -0.694661,15.9937 -1.85645,16.0356 C-3.01823,16.0776 -4.15902,16.0846 -5.27881,16.0566 C-6.3986,16.0286 -7.40291,15.9447 -8.29175,15.8047 C-9.18058,15.6647 -9.76497,15.3778 -10.0449,14.9438 C-10.2269,14.6779 -10.2304,14.4679 -10.0554,14.314 C-9.88045,14.16 -9.72298,14.034 -9.58301,13.936 C-9.44303,13.8381 -9.40104,13.7506 -9.45703,13.6736 C-9.51302,13.5966 -9.85596,13.5161 -10.4858,13.4321 C-11.4937,13.2642 -12.134,12.9562 -12.407,12.5083 C-12.6799,12.0604 -12.5155,11.7524 -11.9136,11.5845 C-11.4237,11.5005 -10.9688,11.4095 -10.5488,11.3115 C-10.1289,11.2135 -9.84196,11.1191 -9.68799,11.0281 C-9.53402,10.9371 -9.54801,10.8426 -9.72998,10.7446 C-9.91195,10.6466 -10.3529,10.5557 -11.0527,10.4717 C-11.7946,10.3877 -12.386,10.2582 -12.8269,10.0833 C-13.2678,9.90828 -13.5898,9.73682 -13.7927,9.56885 C-13.9957,9.40088 -14.0832,9.25041 -14.0552,9.11743 C-14.0272,8.98446 -13.9012,8.91797 -13.6772,8.91797 C-12.5015,8.91797 -11.6126,8.88997 -11.0107,8.83398 C-10.4089,8.77799 -9.99943,8.70801 -9.78247,8.62402 C-9.56551,8.54004 -9.47803,8.43856 -9.52002,8.31958 C-9.56201,8.2006 -9.639,8.09912 -9.75098,8.01514 C-9.86296,7.93115 -9.96444,7.86117 -10.0554,7.80518 C-10.1464,7.74919 -10.1149,7.72119 -9.96094,7.72119 C-9.73698,7.72119 -9.59001,7.7002 -9.52002,7.6582 C-9.45003,7.61621 -9.40104,7.55672 -9.37305,7.47974 C-9.34505,7.40275 -9.31006,7.34326 -9.26807,7.30127 C-9.22607,7.25928 -9.1141,7.23828 -8.93213,7.23828 C-8.73617,7.01432 -8.67318,6.68538 -8.74316,6.25146 C-8.81315,5.81755 -8.84814,5.34863 -8.84814,4.84473 C-8.84814,4.32682 -8.76416,3.8964 -8.59619,3.55347 C-8.42822,3.21053 -8.23576,2.88859 -8.0188,2.58765 C-7.80184,2.2867 -7.59888,1.99276 -7.40991,1.70581 C-7.22095,1.41886 -7.11247,1.10042 -7.08447,0.750488 C-6.97249,-0.0473633 -6.78703,-0.635254 -6.52808,-1.01318 C-6.26912,-1.39111 -5.98918,-1.69206 -5.68823,-1.91602 C-5.38729,-2.13997 -5.09334,-2.39543 -4.8064,-2.68237 C-4.51945,-2.96932 -4.29199,-3.42773 -4.12402,-4.05762 C-4.12402,-4.51953 -3.89307,-4.94995 -3.43115,-5.34888 C-2.96924,-5.7478 -2.39535,-6.09074 -1.70947,-6.37769 C-1.0236,-6.66463 -0.278239,-6.89559 0.526611,-7.07056 C1.33146,-7.24552 2.06283,-7.34701 2.7207,-7.375 C2.91667,-7.40299 3.05664,-7.389 3.14063,-7.33301 C3.22461,-7.27702 3.31909,-7.21403 3.42407,-7.14404 C3.52905,-7.07406 3.67253,-7.00057 3.85449,-6.92358 C4.03646,-6.8466 4.31641,-6.80811 4.69434,-6.80811 C5.24023,-7.13005 5.79313,-7.368 6.35303,-7.52197 C6.91292,-7.67594 7.42383,-7.80192 7.88574,-7.8999 C8.1377,-7.95589 8.39315,-7.99788 8.6521,-8.02588 C8.91105,-8.05387 9.1665,-8.08187 9.41846,-8.10986 C9.1665,-7.94189 8.93205,-7.77043 8.71509,-7.59546 C8.49813,-7.42049 8.29167,-7.26302 8.0957,-7.12305 C7.77376,-6.8571 7.47632,-6.60164 7.20337,-6.35669 C6.93042,-6.11174 6.82194,-5.93327 6.87793,-5.82129 C7.22786,-6.00326 7.65479,-6.19922 8.15869,-6.40918 C8.6626,-6.61914 9.163,-6.71712 9.65991,-6.70313 C10.1568,-6.68913 10.6082,-6.49666 11.0142,-6.12573 C11.4201,-5.7548 11.693,-5.06543 11.833,-4.05762 C11.833,-3.97363 11.889,-3.95264 12.001,-3.99463 C12.113,-4.03662 12.2074,-3.98063 12.2844,-3.82666 C12.3614,-3.67269 12.3754,-3.33675 12.3264,-2.81885 C12.2774,-2.30094 12.113,-1.4681 11.833,-0.320313 C12.085,-0.0123698 12.106,0.292074 11.896,0.593018 C11.686,0.893962 11.4306,1.16691 11.1296,1.41187 C10.8287,1.65682 10.5627,1.84578 10.3318,1.97876 C10.1008,2.11174 10.0973,2.15023 10.3213,2.09424 C10.9232,1.85628 11.4481,1.83179 11.896,2.02075 C12.3439,2.20972 12.4629,2.50016 12.2529,2.89209 C12.029,3.43799 11.882,4.01888 11.812,4.63477 C11.742,5.25065 11.707,5.84554 11.707,6.41943 C11.707,7.09131 11.749,7.74219 11.833,8.37207 C12.2109,9.00195 12.4139,9.55485 12.4419,10.0308 C12.4979,10.4647 12.4034,10.8846 12.1584,11.2905 C11.9135,11.6965 11.3571,11.9554 10.4893,12.0674 M0.306152,15.4058 C2.46175,15.5597 4.3339,15.5352 5.92261,15.3323 C7.51131,15.1293 8.81307,14.8774 9.82788,14.5764 C10.8427,14.2755 11.5671,13.9675 12.001,13.6526 C12.4349,13.3376 12.5539,13.1242 12.3579,13.0122 C12.2879,12.9562 12.2774,12.8897 12.3264,12.8127 C12.3754,12.7358 12.3754,12.6623 12.3264,12.5923 C12.2774,12.5223 12.1479,12.4593 11.938,12.4033 C11.728,12.3473 11.3221,12.2913 10.7202,12.2354 C10.2023,12.2074 9.96436,12.1444 10.0063,12.0464 C10.0483,11.9484 10.1988,11.8469 10.4578,11.7419 C10.7167,11.637 10.9897,11.5425 11.2766,11.4585 C11.5636,11.3745 11.679,11.3325 11.623,11.3325 C11.3011,11.1925 11.0107,11.1296 10.7517,11.1436 C10.4928,11.1576 10.2583,11.1925 10.0483,11.2485 C9.83838,11.3045 9.64591,11.3535 9.47095,11.3955 C9.29598,11.4375 9.15251,11.4165 9.04053,11.3325 C8.74658,11.1646 8.34416,11.0806 7.83325,11.0806 C7.32235,11.0806 6.97591,11.1646 6.79395,11.3325 C6.62598,11.4725 6.43351,11.5285 6.21655,11.5005 C5.99959,11.4725 5.79313,11.4165 5.59717,11.3325 C5.31722,11.0666 4.98828,10.9336 4.61035,10.9336 C4.20443,10.9336 3.86149,11.0666 3.58154,11.3325 C3.37158,11.4445 3.15462,11.5005 2.93066,11.5005 L2.93066,10.9336 C2.70671,11.0876 2.54574,11.1646 2.44775,11.1646 C2.16781,11.1646 1.94035,11.0841 1.76538,10.9231 C1.59041,10.7621 1.47493,10.5837 1.41895,10.3877 C1.6569,10.6956 1.99984,10.8496 2.44775,10.8496 C2.51774,10.8496 2.58773,10.8356 2.65771,10.8076 C2.7277,10.7796 2.81868,10.7656 2.93066,10.7656 C2.93066,10.6257 2.91667,10.5067 2.88867,10.4087 C2.86068,10.3107 2.84668,10.1847 2.84668,10.0308 C3.42057,10.1287 3.91048,10.0308 4.31641,9.73682 C4.56836,9.62484 4.80632,9.56885 5.03027,9.56885 C5.29622,9.56885 5.55518,9.62484 5.80713,9.73682 C6.07308,9.96077 6.39852,10.0728 6.78345,10.0728 C7.16838,10.0728 7.51481,9.96077 7.82275,9.73682 C8.28467,9.48486 8.74658,9.48486 9.2085,9.73682 C9.55843,10.0028 9.92936,10.1357 10.3213,10.1357 C10.5592,10.0658 10.8777,9.93978 11.2766,9.75781 C11.6755,9.57585 11.917,9.37988 12.001,9.16992 C11.945,9.23991 11.84,9.2959 11.686,9.33789 C11.5321,9.37988 11.3606,9.40788 11.1716,9.42188 C10.9827,9.43587 10.8007,9.44987 10.6257,9.46387 C10.4508,9.47786 10.3493,9.48486 10.3213,9.48486 C10.1253,9.48486 9.91536,9.41488 9.69141,9.2749 C8.87956,8.81299 8.1307,8.81299 7.44482,9.2749 C7.27686,9.41488 7.0634,9.48486 6.80444,9.48486 C6.54549,9.48486 6.30404,9.41488 6.08008,9.2749 C5.84212,9.03695 5.49219,8.91797 5.03027,8.91797 C4.66634,8.91797 4.29541,9.03695 3.91748,9.2749 C3.60954,9.49886 3.2526,9.54085 2.84668,9.40088 C2.79069,7.6792 2.81868,6.02401 2.93066,4.4353 C3.04264,2.8466 3.2596,1.34538 3.58154,-0.0683594 C3.34359,0.253581 3.05664,0.414551 2.7207,0.414551 C2.2028,0.414551 1.87386,0.169596 1.73389,-0.320313 C1.92985,-0.0403646 2.25879,0.0996094 2.7207,0.0996094 C3.14063,0.0996094 3.42757,-0.0123698 3.58154,-0.236328 C4.04346,-1.95801 4.65934,-3.48372 5.4292,-4.81348 C6.19906,-6.14323 7.26986,-7.15804 8.6416,-7.85791 C8.16569,-7.75993 7.68978,-7.64095 7.21387,-7.50098 C6.73796,-7.361 6.26904,-7.20703 5.80713,-7.03906 C5.89111,-7.03906 5.9646,-7.01457 6.02759,-6.96558 C6.09058,-6.91659 6.19206,-6.89209 6.33203,-6.89209 C6.5,-6.89209 6.65397,-6.96908 6.79395,-7.12305 C6.79395,-7.01107 6.74495,-6.93058 6.64697,-6.88159 C6.54899,-6.8326 6.44401,-6.80811 6.33203,-6.80811 C6.06608,-6.80811 5.89111,-6.88509 5.80713,-7.03906 C5.58317,-6.91309 5.36271,-6.80811 5.14575,-6.72412 C4.92879,-6.64014 4.70833,-6.55615 4.48438,-6.47217 C4.56836,-6.38818 4.69434,-6.34619 4.8623,-6.34619 C5.03027,-6.34619 5.19124,-6.41618 5.34521,-6.55615 C5.34521,-6.44417 5.28573,-6.36719 5.16675,-6.3252 C5.04777,-6.2832 4.94629,-6.26221 4.8623,-6.26221 C4.72233,-6.26221 4.59635,-6.2902 4.48438,-6.34619 C3.70052,-5.94027 2.97965,-5.42236 2.32178,-4.79248 C1.6639,-4.1626 1.03402,-3.44873 0.432129,-2.65088 C0.614095,-2.65088 0.775065,-2.68587 0.915039,-2.75586 C1.05501,-2.82585 1.16699,-2.88883 1.25098,-2.94482 C1.22298,-3.02881 1.139,-3.14079 0.999023,-3.28076 C1.27897,-3.00081 1.60791,-2.86084 1.98584,-2.86084 C2.47575,-2.86084 2.81868,-3.00081 3.01465,-3.28076 C2.95866,-3.11279 2.84318,-2.95182 2.66821,-2.79785 C2.49325,-2.64388 2.26579,-2.56689 1.98584,-2.56689 C1.69189,-2.56689 1.44694,-2.69287 1.25098,-2.94482 C1.111,-2.63688 0.838053,-2.48291 0.432129,-2.48291 L0.306152,-2.48291 C0.166178,-2.27295 0.0297038,-2.06999 -0.103271,-1.87402 C-0.236247,-1.67806 -0.372721,-1.4751 -0.512695,-1.26514 C-0.372721,-1.18115 -0.215251,-1.09717 -0.0402832,-1.01318 C0.134684,-0.929199 0.292155,-0.887207 0.432129,-0.887207 C0.726074,-0.887207 0.978027,-0.950195 1.18799,-1.07617 C1.39795,-1.20215 1.57992,-1.34912 1.73389,-1.51709 C1.6779,-1.26514 1.52743,-1.05168 1.28247,-0.876709 C1.03752,-0.701742 0.754069,-0.614258 0.432129,-0.614258 C0.012207,-0.614258 -0.330729,-0.775228 -0.59668,-1.09717 C-0.820638,-0.775228 -1.0271,-0.421794 -1.21606,-0.0368652 C-1.40503,0.348063 -1.5695,0.74349 -1.70947,1.14941 C-1.65348,1.14941 -1.5835,1.16341 -1.49951,1.19141 C-1.41553,1.2194 -1.33154,1.2334 -1.24756,1.2334 C-1.06559,1.2334 -0.876628,1.18791 -0.680664,1.09692 C-0.484701,1.00594 -0.32373,0.890462 -0.197754,0.750488 C-0.43571,1.18441 -0.785645,1.40137 -1.24756,1.40137 C-1.33154,1.40137 -1.42253,1.40137 -1.52051,1.40137 C-1.61849,1.40137 -1.70947,1.37337 -1.79346,1.31738 C-1.94743,1.62533 -2.0944,1.95076 -2.23438,2.2937 C-2.37435,2.63664 -2.50033,2.99707 -2.6123,3.375 C-2.41634,3.48698 -2.17139,3.54297 -1.87744,3.54297 C-1.35954,3.54297 -0.932617,3.32601 -0.59668,2.89209 C-0.680664,3.18604 -0.845133,3.40999 -1.09009,3.56396 C-1.33504,3.71794 -1.59749,3.79492 -1.87744,3.79492 C-2.19938,3.79492 -2.48633,3.73893 -2.73828,3.62695 C-2.82227,3.86491 -2.89575,4.10286 -2.95874,4.34082 C-3.02173,4.57878 -3.09521,4.84473 -3.1792,5.13867 L-3.09521,5.13867 C-2.6613,5.13867 -2.33236,4.9777 -2.1084,4.65576 C-2.16439,4.83773 -2.28337,4.9917 -2.46533,5.11768 C-2.6473,5.24365 -2.85726,5.30664 -3.09521,5.30664 L-3.30518,5.30664 C-3.47314,5.96452 -3.63062,6.63289 -3.77759,7.31177 C-3.92456,7.99064 -4.04004,8.68701 -4.12402,9.40088 C-4.18001,9.40088 -4.229,9.37988 -4.271,9.33789 C-4.31299,9.2959 -4.38997,9.2749 -4.50195,9.2749 C-4.65592,9.12093 -4.81689,9.02295 -4.98486,8.98096 C-5.15283,8.93896 -5.3208,8.91797 -5.48877,8.91797 C-5.8667,8.91797 -6.24463,9.03695 -6.62256,9.2749 C-7.09847,9.58285 -7.55339,9.58285 -7.9873,9.2749 C-8.64518,8.78499 -9.36605,8.78499 -10.1499,9.2749 C-10.3739,9.41488 -10.5838,9.48486 -10.7798,9.48486 C-10.9897,9.48486 -11.2067,9.41488 -11.4307,9.2749 C-11.4027,9.47087 -11.3082,9.61784 -11.1472,9.71582 C-10.9862,9.8138 -10.8148,9.87679 -10.6328,9.90479 C-10.4508,9.93278 -10.2654,9.93278 -10.0764,9.90479 C-9.88745,9.87679 -9.75098,9.8208 -9.66699,9.73682 C-9.28906,9.48486 -8.86214,9.48486 -8.38623,9.73682 C-7.60238,10.2267 -6.88151,10.2267 -6.22363,9.73682 C-5.97168,9.62484 -5.72673,9.56885 -5.48877,9.56885 C-5.26481,9.56885 -5.02686,9.62484 -4.7749,9.73682 C-4.67692,9.79281 -4.57894,9.8418 -4.48096,9.88379 C-4.38298,9.92578 -4.29199,9.97477 -4.20801,10.0308 C-4.236,10.1287 -4.257,10.2477 -4.271,10.3877 C-4.28499,10.5277 -4.30599,10.6606 -4.33398,10.7866 C-4.36198,10.9126 -4.39697,11.0071 -4.43896,11.0701 C-4.48096,11.1331 -4.52995,11.1226 -4.58594,11.0386 C-4.68392,11.0386 -4.7679,11.0211 -4.83789,10.9861 C-4.90788,10.9511 -4.97087,10.9336 -5.02686,10.9336 C-5.43278,10.9336 -5.77572,11.0666 -6.05566,11.3325 C-6.46159,11.5845 -6.88851,11.5845 -7.33643,11.3325 C-7.63037,11.0946 -7.94181,10.9756 -8.27075,10.9756 C-8.59969,10.9756 -8.91113,11.0946 -9.20508,11.3325 C-9.28906,11.3605 -9.53052,11.3955 -9.92944,11.4375 C-10.3284,11.4795 -10.7343,11.5285 -11.1472,11.5845 C-11.5601,11.6405 -11.8891,11.7349 -12.134,11.8679 C-12.379,12.0009 -12.3895,12.1654 -12.1655,12.3613 C-11.7876,12.6133 -11.4202,12.7847 -11.0632,12.8757 C-10.7063,12.9667 -10.2689,13.0402 -9.75098,13.0962 C-8.84115,13.1522 -8.17627,13.2152 -7.75635,13.2852 C-7.33643,13.3551 -7.13346,13.4496 -7.14746,13.5686 C-7.16146,13.6876 -7.37842,13.8101 -7.79834,13.936 C-8.21826,14.062 -8.78516,14.209 -9.49902,14.377 C-9.03711,14.9508 -8.41073,15.3113 -7.61987,15.4583 C-6.82902,15.6052 -5.96818,15.6717 -5.03735,15.6577 C-4.10653,15.6437 -3.1687,15.5842 -2.22388,15.4792 C-1.27905,15.3743 -0.43571,15.3498 0.306152,15.4058 M9.2085,13.2642 C9.32048,13.3481 9.45695,13.4321 9.61792,13.5161 C9.77889,13.6001 9.95736,13.6421 10.1533,13.6421 C10.3213,13.6421 10.4928,13.6001 10.6677,13.5161 C10.8427,13.4321 10.9722,13.3481 11.0562,13.2642 C10.9722,13.6981 10.6712,13.915 10.1533,13.915 C9.7194,13.915 9.40446,13.6981 9.2085,13.2642 M0.0541992,8.91797 C0.334147,8.91797 0.596598,8.85498 0.841553,8.729 C1.08651,8.60303 1.27897,8.44906 1.41895,8.26709 C1.33496,8.56104 1.16349,8.78499 0.904541,8.93896 C0.645589,9.09294 0.362142,9.16992 0.0541992,9.16992 C-0.239746,9.16992 -0.505697,9.09294 -0.743652,8.93896 C-0.981608,8.78499 -1.14958,8.59603 -1.24756,8.37207 C-1.38753,8.54004 -1.5695,8.62402 -1.79346,8.62402 C-2.19938,8.62402 -2.44434,8.40706 -2.52832,7.97314 C-2.36035,8.29508 -2.1154,8.45605 -1.79346,8.45605 C-1.48551,8.45605 -1.24056,8.29508 -1.05859,7.97314 C-1.05859,8.11312 -1.12158,8.24609 -1.24756,8.37207 C-1.09359,8.51204 -0.897624,8.63802 -0.659668,8.75 C-0.421712,8.86198 -0.183757,8.91797 0.0541992,8.91797 M-1.70947,12.6133 C-1.37354,13.0472 -0.946615,13.2642 -0.428711,13.2642 C0.0611979,13.2642 0.467122,13.0472 0.789063,12.6133 C0.579102,13.2432 0.173177,13.5581 -0.428711,13.5581 C-1.08659,13.5581 -1.51351,13.2432 -1.70947,12.6133 M-6.53857,14.377 C-6.44059,14.4609 -6.32161,14.5484 -6.18164,14.6394 C-6.04167,14.7304 -5.8877,14.7759 -5.71973,14.7759 C-5.56576,14.7759 -5.42578,14.7304 -5.2998,14.6394 C-5.17383,14.5484 -5.05485,14.4609 -4.94287,14.377 C-4.99886,14.5309 -5.08984,14.6639 -5.21582,14.7759 C-5.3418,14.8879 -5.50977,14.9438 -5.71973,14.9438 C-6.05566,14.9438 -6.32861,14.7549 -6.53857,14.377 "/>
</g>

<g fill="#66b1e3" fill-opacity="1" stroke="none" transform="matrix(1,0,0,1,0,0)"
font-family="MS Shell Dlg 2" font-size="7.8" font-weight="400" font-style="normal" 
>
</g>
</g>
</svg>
