<?xml version="1.0" encoding="UTF-8" standalone="no"?>
<svg width="11.2889mm" height="11.2889mm"
 viewBox="0 0 32 32"
 xmlns="http://www.w3.org/2000/svg" xmlns:xlink="http://www.w3.org/1999/xlink"  version="1.2" baseProfile="tiny">
<title>Qt SVG Document</title>
<desc>Generated with Qt</desc>
<defs>
</defs>
<g fill="none" stroke="black" stroke-width="1" fill-rule="evenodd" stroke-linecap="square" stroke-linejoin="bevel" >

<g fill="#b75800" fill-opacity="1" stroke="none" transform="matrix(1,0,0,1,0,0)"
font-family="MS Shell Dlg 2" font-size="7.8" font-weight="400" font-style="normal" 
>
<path vector-effect="non-scaling-stroke" fill-rule="evenodd" d="M37.2598,16 C37.2598,27.7415 27.7415,37.2598 16,37.2598 C4.25851,37.2598 -5.25984,27.7415 -5.25984,16 C-5.25984,4.25851 4.25851,-5.25984 16,-5.25984 C27.7415,-5.25984 37.2598,4.25851 37.2598,16 "/>
</g>

<g fill="#ffffff" fill-opacity="0.94902" stroke="none" transform="matrix(1,0,0,1,17.1339,12.0315)"
font-family="MS Shell Dlg 2" font-size="7.8" font-weight="400" font-style="normal" 
>
<path vector-effect="none" fill-rule="evenodd" d="M7.23486,17.1694 C7.23486,17.1694 7.22087,17.2044 7.19287,17.2744 C7.16488,17.3024 7.15088,17.3024 7.15088,17.2744 L7.15088,17.2114 L7.23486,17.1694 M7.15088,17.2114 C7.12288,17.2534 7.09489,17.2744 7.06689,17.2744 L7.10889,17.1694 L7.15088,17.1274 L7.15088,17.2114 M7.27686,17.2744 C7.30485,17.2324 7.33285,17.2324 7.36084,17.2744 C7.36084,17.2744 7.34684,17.2744 7.31885,17.2744 C7.29085,17.3024 7.27686,17.3024 7.27686,17.2744 M7.23486,17.2744 L7.27686,17.2744 L7.27686,17.3584 L7.19287,17.3584 C7.19287,17.3304 7.20687,17.3164 7.23486,17.3164 C7.20687,17.3164 7.19287,17.3094 7.19287,17.2954 C7.19287,17.2814 7.17887,17.2744 7.15088,17.2744 L7.19287,17.3164 L7.19287,17.4004 L7.15088,17.4004 L7.15088,17.3164 C7.12288,17.3164 7.12288,17.3024 7.15088,17.2744 L7.06689,17.2744 L7.15088,17.2744 L7.23486,17.2744 C7.20687,17.2744 7.19287,17.2534 7.19287,17.2114 L7.27686,17.1694 L7.23486,17.2744 M7.0249,17.3164 C7.0249,17.3444 7.0109,17.3724 6.98291,17.4004 L6.98291,17.3164 L6.98291,17.2744 C7.0109,17.2744 7.0249,17.2884 7.0249,17.3164 M7.06689,17.3164 C7.09489,17.2884 7.10889,17.3024 7.10889,17.3584 L7.10889,17.4004 L7.06689,17.4004 C7.0389,17.4004 7.0249,17.3864 7.0249,17.3584 C7.0249,17.3304 7.0389,17.3164 7.06689,17.3164 M6.62598,16.2666 C6.59798,16.2386 6.58398,16.2106 6.58398,16.1826 C6.58398,16.1826 6.56999,16.1686 6.54199,16.1406 C6.56999,16.1406 6.58398,16.1476 6.58398,16.1616 C6.58398,16.1756 6.59798,16.1826 6.62598,16.1826 L6.62598,16.1406 L6.62598,16.1826 L6.79395,16.1826 C6.82194,16.1826 6.84993,16.1966 6.87793,16.2246 C6.82194,16.2246 6.77995,16.2106 6.75195,16.1826 L6.75195,16.2246 C6.75195,16.2526 6.74495,16.2666 6.73096,16.2666 C6.71696,16.2666 6.70996,16.2806 6.70996,16.3086 L6.70996,16.3506 C6.70996,16.3506 6.69596,16.3226 6.66797,16.2666 C6.69596,16.2386 6.70996,16.2106 6.70996,16.1826 L6.62598,16.1826 L6.66797,16.1826 C6.66797,16.2106 6.65397,16.2386 6.62598,16.2666 L6.62598,16.3086 L6.62598,16.2666 M6.37402,17.3164 C6.40202,17.2884 6.5,17.2394 6.66797,17.1694 C6.61198,17.1974 6.56299,17.2289 6.521,17.2639 C6.479,17.2989 6.43001,17.3164 6.37402,17.3164 M5.68115,15.4478 C5.65316,15.4198 5.63916,15.3848 5.63916,15.3428 C5.63916,15.3008 5.62516,15.2658 5.59717,15.2378 C5.56917,15.2098 5.55518,15.1818 5.55518,15.1538 C5.58317,15.1258 5.61117,15.1468 5.63916,15.2168 C5.66715,15.2868 5.68115,15.3638 5.68115,15.4478 M7.06689,17.2114 C7.0389,17.2114 7.0109,17.2324 6.98291,17.2744 C7.0389,17.2044 7.0529,17.1694 7.0249,17.1694 C7.0529,17.1694 7.06689,17.1554 7.06689,17.1274 L7.06689,17.2114 M6.58398,17.3164 C6.58398,17.3444 6.56999,17.3724 6.54199,17.4004 C6.54199,17.4004 6.52799,17.3724 6.5,17.3164 C6.5,17.2184 6.52799,17.2044 6.58398,17.2744 L6.58398,17.3164 M5.9751,16.4556 C6.24105,16.2456 6.43001,16.1406 6.54199,16.1406 C6.45801,16.1406 6.26904,16.2456 5.9751,16.4556 M5.76514,16.3086 C5.76514,16.3366 5.77214,16.3506 5.78613,16.3506 C5.80013,16.3506 5.80713,16.3716 5.80713,16.4136 L5.80713,16.4556 L5.80713,16.4976 C5.77913,16.5256 5.75114,16.5256 5.72314,16.4976 L5.72314,16.4136 L5.68115,16.4136 C5.65316,16.3716 5.65316,16.3366 5.68115,16.3086 C5.68115,16.2806 5.70915,16.2806 5.76514,16.3086 M6.83594,17.1694 C6.83594,17.1694 6.83594,17.1414 6.83594,17.0854 C6.83594,17.0575 6.84993,17.0295 6.87793,17.0015 L6.87793,17.0435 L6.87793,17.1274 L6.83594,17.1694 M6.66797,17.2114 L6.70996,17.2114 C6.70996,17.2114 6.72396,17.2324 6.75195,17.2744 C6.75195,17.3024 6.73796,17.3304 6.70996,17.3584 C6.70996,17.3584 6.69596,17.3444 6.66797,17.3164 L6.66797,17.2114 M6.75195,17.1274 L6.70996,17.1694 L6.70996,17.0854 C6.70996,17.0575 6.72396,17.0295 6.75195,17.0015 L6.75195,17.1274 M6.79395,16.1406 C6.79395,16.1406 6.76595,16.1406 6.70996,16.1406 C6.70996,16.1406 6.72396,16.1266 6.75195,16.0986 C6.77995,16.0986 6.80094,16.0916 6.81494,16.0776 C6.82894,16.0636 6.84993,16.0566 6.87793,16.0566 L6.91992,16.0566 L6.87793,16.0986 C6.84993,16.0986 6.83594,16.1056 6.83594,16.1196 C6.83594,16.1336 6.82194,16.1406 6.79395,16.1406 M5.84912,15.7207 C5.82113,15.7487 5.79313,15.7487 5.76514,15.7207 L5.72314,15.7207 C5.72314,15.6647 5.75114,15.6227 5.80713,15.5947 L5.89111,15.5947 C5.91911,15.5947 5.9471,15.5807 5.9751,15.5527 C5.9471,15.5807 5.93311,15.6087 5.93311,15.6367 C5.87712,15.6927 5.84912,15.7207 5.84912,15.7207 M6.62598,17.2114 C6.62598,17.2114 6.63997,17.2464 6.66797,17.3164 C6.63997,17.3164 6.62598,17.3304 6.62598,17.3584 C6.62598,17.3584 6.62598,17.3444 6.62598,17.3164 L6.62598,17.2114 M6.83594,17.2744 C6.83594,17.3024 6.82894,17.3164 6.81494,17.3164 C6.80094,17.3164 6.79395,17.3304 6.79395,17.3584 L6.75195,17.4004 L6.75195,17.2744 C6.75195,17.2324 6.77995,17.2114 6.83594,17.2114 L6.83594,17.2744 M5.93311,16.5396 C5.9611,16.5116 6.01009,16.5116 6.08008,16.5396 C6.08008,16.5675 6.06958,16.5885 6.04858,16.6025 C6.02759,16.6165 6.01709,16.6375 6.01709,16.6655 L6.01709,16.7075 L5.9751,16.6655 C5.9471,16.6655 5.93311,16.6515 5.93311,16.6235 L5.93311,16.5396 M6.83594,16.2246 C6.83594,16.2246 6.84993,16.2386 6.87793,16.2666 C6.87793,16.2946 6.87093,16.3086 6.85693,16.3086 C6.84294,16.3086 6.83594,16.3226 6.83594,16.3506 L6.79395,16.4136 C6.79395,16.4136 6.79395,16.3786 6.79395,16.3086 C6.79395,16.2806 6.80794,16.2526 6.83594,16.2246 M6.70996,16.0146 C6.73796,16.0146 6.75195,16.0007 6.75195,15.9727 L6.75195,16.0146 C6.75195,16.0426 6.74495,16.0566 6.73096,16.0566 C6.71696,16.0566 6.70996,16.0706 6.70996,16.0986 C6.65397,16.1546 6.62598,16.1546 6.62598,16.0986 C6.62598,16.0986 6.62598,16.0706 6.62598,16.0146 L6.70996,16.0146 M7.0249,17.1274 C7.0249,17.1554 7.0109,17.1694 6.98291,17.1694 C6.98291,17.1974 6.96191,17.2114 6.91992,17.2114 C6.89193,17.1834 6.89193,17.1554 6.91992,17.1274 C6.96191,17.1274 6.99691,17.1134 7.0249,17.0854 L7.0249,17.1274 M6.87793,16.1826 C6.87793,16.2106 6.86393,16.2106 6.83594,16.1826 C6.83594,16.1826 6.84993,16.1686 6.87793,16.1406 C6.87793,16.1406 6.91292,16.1546 6.98291,16.1826 L7.0249,16.1826 L6.87793,16.1826 M6.98291,16.2666 C7.0109,16.2666 7.0249,16.2806 7.0249,16.3086 L6.98291,16.3086 C6.94092,16.3086 6.91992,16.3086 6.91992,16.3086 C6.89193,16.2806 6.87793,16.2526 6.87793,16.2246 C6.87793,16.2246 6.91292,16.2386 6.98291,16.2666 M6.87793,17.3584 C6.87793,17.3584 6.86393,17.3444 6.83594,17.3164 L6.87793,17.2114 C6.87793,17.2114 6.89193,17.2464 6.91992,17.3164 L6.87793,17.3584 M5.93311,16.4556 C5.90511,16.4836 5.87712,16.4836 5.84912,16.4556 C5.84912,16.4556 5.84912,16.4066 5.84912,16.3086 L5.84912,16.2666 L5.93311,16.3086 L5.93311,16.4556 M5.55518,16.0986 C5.58317,16.1546 5.59717,16.1826 5.59717,16.1826 C5.62516,16.1826 5.63216,16.1896 5.61816,16.2036 C5.60417,16.2176 5.58317,16.2246 5.55518,16.2246 C5.52718,16.2246 5.49919,16.2106 5.47119,16.1826 C5.4432,16.1826 5.4292,16.1686 5.4292,16.1406 L5.47119,16.1406 C5.49919,16.1406 5.51318,16.1336 5.51318,16.1196 C5.51318,16.1056 5.52718,16.0986 5.55518,16.0986 M5.80713,16.1406 C5.80713,16.1406 5.83512,16.1546 5.89111,16.1826 L5.93311,16.2246 C5.93311,16.2526 5.91911,16.2666 5.89111,16.2666 L5.76514,16.2666 C5.73714,16.2666 5.70915,16.2526 5.68115,16.2246 L5.68115,16.1826 C5.70915,16.1546 5.75114,16.1406 5.80713,16.1406 M6.5,16.0566 C6.5,16.0566 6.514,16.0286 6.54199,15.9727 C6.54199,15.9447 6.55599,15.9307 6.58398,15.9307 L6.58398,15.9727 L6.58398,16.0566 C6.55599,16.0846 6.54199,16.1126 6.54199,16.1406 L6.5,16.1406 C6.44401,16.1406 6.44401,16.1126 6.5,16.0566 M6.08008,16.3506 C6.01009,16.3506 5.9751,16.3366 5.9751,16.3086 C5.9751,16.3086 5.9751,16.2806 5.9751,16.2246 L5.9751,16.1826 L6.01709,16.1826 C6.01709,16.1826 6.03809,16.2106 6.08008,16.2666 C6.10807,16.2946 6.10807,16.3226 6.08008,16.3506 M5.80713,15.9307 C5.83512,15.9587 5.87712,15.9727 5.93311,15.9727 L5.9751,15.9727 C5.9751,16.0007 5.91911,16.0426 5.80713,16.0986 C5.77913,16.0986 5.75114,16.0846 5.72314,16.0566 L5.72314,16.0146 L5.72314,15.9727 C5.72314,15.9727 5.75114,15.9587 5.80713,15.9307 M5.72314,15.8887 C5.72314,15.8607 5.76514,15.8187 5.84912,15.7627 L5.9751,15.7627 C5.9471,15.7907 5.93311,15.8187 5.93311,15.8467 C5.90511,15.8747 5.87712,15.8887 5.84912,15.8887 L5.72314,15.8887 M5.68115,15.0278 L5.68115,15.1538 C5.68115,15.1818 5.66715,15.1958 5.63916,15.1958 L5.59717,15.1958 L5.59717,15.1118 L5.68115,15.0278 M5.80713,15.3218 C5.72314,15.4058 5.68115,15.4338 5.68115,15.4058 C5.68115,15.4058 5.69515,15.3778 5.72314,15.3218 C5.72314,15.3218 5.75114,15.3078 5.80713,15.2798 C5.83512,15.2798 5.84912,15.2658 5.84912,15.2378 L5.80713,15.3218 M5.80713,15.5527 C5.77913,15.5807 5.75114,15.5807 5.72314,15.5527 L5.72314,15.5107 C5.72314,15.5107 5.73714,15.4757 5.76514,15.4058 C5.76514,15.4058 5.79313,15.3918 5.84912,15.3638 L5.89111,15.3638 L5.80713,15.5527 M6.29004,16.1406 C6.29004,16.0846 6.30404,16.0426 6.33203,16.0146 C6.33203,15.9867 6.34603,15.9727 6.37402,15.9727 L6.37402,16.0146 C6.37402,16.0426 6.38102,16.0566 6.39502,16.0566 C6.40902,16.0566 6.41602,16.0706 6.41602,16.0986 C6.38802,16.1266 6.37402,16.1546 6.37402,16.1826 C6.31803,16.1826 6.29004,16.1686 6.29004,16.1406 M6.12207,16.0566 C6.12207,16.0846 6.13607,16.0986 6.16406,16.0986 C6.22005,16.1546 6.24805,16.1826 6.24805,16.1826 C6.24805,16.2106 6.23405,16.2386 6.20605,16.2666 C6.20605,16.3226 6.17806,16.2946 6.12207,16.1826 L6.12207,16.0566 M5.72314,15.2378 C5.72314,15.2658 5.70915,15.2798 5.68115,15.2798 C5.68115,15.2798 5.68115,15.2518 5.68115,15.1958 C5.68115,15.1958 5.69515,15.1818 5.72314,15.1538 L5.76514,15.1118 L5.76514,15.1538 C5.76514,15.1818 5.75814,15.1958 5.74414,15.1958 C5.73014,15.1958 5.72314,15.2098 5.72314,15.2378 M5.4292,15.1958 C5.4292,15.1678 5.4432,15.1538 5.47119,15.1538 L5.55518,15.1538 C5.58317,15.1538 5.59717,15.1818 5.59717,15.2378 C5.59717,15.2378 5.56917,15.2238 5.51318,15.1958 L5.4292,15.1958 M6.62598,17.0854 L6.62598,17.1694 L6.58398,17.1274 L6.58398,17.0435 L6.62598,17.0854 M5.55518,15.0278 C5.61117,15.0838 5.61117,15.1118 5.55518,15.1118 L5.47119,15.0698 L5.47119,14.9858 L5.55518,15.0278 M6.45801,16.4136 C6.45801,16.4136 6.43001,16.3926 6.37402,16.3506 C6.37402,16.3506 6.37402,16.3226 6.37402,16.2666 L6.37402,16.2246 C6.37402,16.2246 6.40202,16.2386 6.45801,16.2666 L6.45801,16.4136 M6.54199,16.2246 C6.56999,16.2526 6.57699,16.2806 6.56299,16.3086 C6.54899,16.3366 6.55599,16.3506 6.58398,16.3506 L6.54199,16.3086 C6.514,16.3086 6.5,16.2946 6.5,16.2666 C6.47201,16.2386 6.47201,16.2106 6.5,16.1826 L6.54199,16.2246 M6.12207,16.4136 C6.12207,16.4136 6.15007,16.4276 6.20605,16.4556 L6.20605,16.5396 L6.20605,16.5815 L6.16406,16.5815 C6.10807,16.5815 6.08008,16.5675 6.08008,16.5396 L6.08008,16.4136 L6.12207,16.4136 M6.45801,17.1274 C6.45801,17.1274 6.47201,17.1414 6.5,17.1694 C6.55599,17.1974 6.56999,17.2114 6.54199,17.2114 L6.5,17.1694 C6.47201,17.1694 6.45801,17.1554 6.45801,17.1274 M6.33203,16.4976 C6.27604,16.4976 6.24805,16.4836 6.24805,16.4556 C6.22005,16.4276 6.20605,16.3926 6.20605,16.3506 L6.20605,16.3086 C6.26204,16.3086 6.30404,16.3226 6.33203,16.3506 C6.33203,16.3926 6.33903,16.4136 6.35303,16.4136 C6.36702,16.4136 6.37402,16.4276 6.37402,16.4556 L6.37402,16.4976 L6.33203,16.4976 M5.59717,15.9307 C5.62516,15.9587 5.65316,15.9727 5.68115,15.9727 L5.68115,16.0146 C5.65316,16.0426 5.63216,16.0566 5.61816,16.0566 C5.60417,16.0566 5.58317,16.0706 5.55518,16.0986 C5.52718,16.0986 5.49919,16.0846 5.47119,16.0566 C5.4432,16.0566 5.4292,16.0426 5.4292,16.0146 C5.4292,15.9867 5.4432,15.9727 5.47119,15.9727 C5.49919,15.9727 5.54118,15.9587 5.59717,15.9307 M5.68115,15.7627 L5.59717,15.7627 C5.56917,15.7627 5.54118,15.7487 5.51318,15.7207 C5.48519,15.7207 5.47119,15.7067 5.47119,15.6787 L5.51318,15.6787 L5.59717,15.6787 C5.65316,15.6787 5.68115,15.6927 5.68115,15.7207 L5.68115,15.7627 M5.51318,15.8467 C5.54118,15.8467 5.55518,15.8397 5.55518,15.8257 C5.55518,15.8117 5.56917,15.8047 5.59717,15.8047 C5.62516,15.8047 5.65316,15.8187 5.68115,15.8467 C5.68115,15.9027 5.65316,15.9167 5.59717,15.8887 L5.51318,15.8887 C5.48519,15.8887 5.47119,15.8747 5.47119,15.8467 L5.51318,15.8467 M5.4292,16.3086 C5.4292,16.3086 5.45719,16.2946 5.51318,16.2666 C5.56917,16.2666 5.59717,16.2806 5.59717,16.3086 L5.59717,16.3506 L5.51318,16.3506 L5.38721,16.3506 L5.4292,16.3086 M5.59717,15.5107 C5.62516,15.5107 5.65316,15.5247 5.68115,15.5527 C5.68115,15.5807 5.65316,15.5947 5.59717,15.5947 L5.51318,15.5947 C5.48519,15.5947 5.47119,15.5807 5.47119,15.5527 L5.51318,15.5527 C5.54118,15.5527 5.55518,15.5457 5.55518,15.5317 C5.55518,15.5177 5.56917,15.5107 5.59717,15.5107 M5.59717,15.3638 C5.62516,15.3638 5.63916,15.3778 5.63916,15.4058 C5.66715,15.4338 5.63916,15.4478 5.55518,15.4478 C5.52718,15.4478 5.49919,15.4338 5.47119,15.4058 L5.51318,15.4058 C5.54118,15.4058 5.55518,15.3988 5.55518,15.3848 C5.55518,15.3708 5.56917,15.3638 5.59717,15.3638 M5.55518,15.2378 L5.59717,15.2798 C5.59717,15.3358 5.59017,15.3638 5.57617,15.3638 C5.56217,15.3638 5.55518,15.3498 5.55518,15.3218 L5.47119,15.3218 L5.47119,15.2798 L5.55518,15.2378 M4.31641,16.3086 C4.31641,16.3086 4.3304,16.3436 4.3584,16.4136 L4.3584,16.4556 L4.31641,16.4136 L4.31641,16.3086 M4.27441,16.4136 L4.27441,16.3086 L4.31641,16.4136 C4.31641,16.4416 4.30241,16.4696 4.27441,16.4976 L4.27441,16.4136 M4.48438,16.2666 C4.48438,16.2666 4.47038,16.2806 4.44238,16.3086 C4.47038,16.3366 4.47038,16.3506 4.44238,16.3506 L4.44238,16.3086 C4.44238,16.2806 4.45638,16.2666 4.48438,16.2666 M4.3584,16.4556 C4.3304,16.4556 4.31641,16.4626 4.31641,16.4766 C4.31641,16.4906 4.30241,16.4976 4.27441,16.4976 C4.30241,16.4976 4.31641,16.4906 4.31641,16.4766 C4.31641,16.4626 4.3304,16.4556 4.3584,16.4556 C4.3584,16.4556 4.3724,16.4416 4.40039,16.4136 L4.3584,16.3506 L4.3584,16.2666 C4.3584,16.2666 4.3724,16.2946 4.40039,16.3506 L4.40039,16.4136 C4.40039,16.3716 4.41439,16.3506 4.44238,16.3506 C4.47038,16.3506 4.48438,16.3716 4.48438,16.4136 C4.48438,16.4136 4.47038,16.4276 4.44238,16.4556 C4.41439,16.4556 4.40039,16.4416 4.40039,16.4136 L4.3584,16.4556 L4.40039,16.4556 C4.42839,16.4556 4.45638,16.4696 4.48438,16.4976 L4.44238,16.4976 C4.38639,16.4976 4.3584,16.4976 4.3584,16.4976 L4.3584,16.4556 M4.31641,16.6655 C4.31641,16.6655 4.30241,16.6515 4.27441,16.6235 C4.23242,16.5955 4.21143,16.5675 4.21143,16.5396 L4.27441,16.5815 L4.31641,16.6235 L4.31641,16.6655 M4.31641,16.5396 C4.31641,16.5116 4.3304,16.5116 4.3584,16.5396 C4.38639,16.5396 4.40039,16.5535 4.40039,16.5815 C4.40039,16.5815 4.3724,16.5815 4.31641,16.5815 C4.28841,16.5535 4.28841,16.5396 4.31641,16.5396 M3.30859,16.0986 C3.2806,16.0706 3.2666,16.0426 3.2666,16.0146 C3.23861,16.0146 3.21061,16.0286 3.18262,16.0566 L3.22461,16.0566 C3.2526,16.0846 3.2806,16.0986 3.30859,16.0986 L3.30859,16.1406 L3.22461,16.1406 C3.19661,16.1406 3.18262,16.1126 3.18262,16.0566 L3.14063,16.0986 C3.14063,16.0706 3.15462,16.0566 3.18262,16.0566 L3.14063,16.0566 L3.18262,16.0566 C3.2666,15.9727 3.30859,15.9307 3.30859,15.9307 L3.41357,15.9307 L3.35059,15.9727 L3.2666,15.9727 C3.2946,15.9727 3.30859,15.9867 3.30859,16.0146 L3.35059,16.0566 L3.35059,16.0986 L3.30859,16.0986 M2.02783,16.2246 C1.94385,16.2246 1.87386,16.1966 1.81787,16.1406 C1.78988,16.1126 1.76188,16.0986 1.73389,16.0986 C1.76188,16.1266 1.78988,16.1406 1.81787,16.1406 C1.84587,16.1686 1.87386,16.1826 1.90186,16.1826 C1.92985,16.1826 1.97184,16.1966 2.02783,16.2246 M4.21143,16.5396 C4.21143,16.5116 4.20443,16.4976 4.19043,16.4976 C4.17643,16.4976 4.16943,16.4836 4.16943,16.4556 L4.21143,16.4136 L4.21143,16.4556 L4.21143,16.5396 M3.14063,16.0986 C3.08464,16.1266 3.04964,16.2001 3.03564,16.3191 C3.02165,16.4381 3.00065,16.5675 2.97266,16.7075 C2.97266,16.5675 2.98665,16.4381 3.01465,16.3191 C3.04264,16.2001 3.08464,16.1266 3.14063,16.0986 M4.04346,16.5815 C4.04346,16.5815 4.02946,16.5815 4.00146,16.5815 C4.00146,16.5815 4.00146,16.5535 4.00146,16.4976 L4.00146,16.4556 C4.00146,16.4556 4.01546,16.4836 4.04346,16.5396 C4.07145,16.5675 4.07145,16.5815 4.04346,16.5815 M3.91748,16.6655 C3.88949,16.6655 3.87549,16.6375 3.87549,16.5815 L3.87549,16.5396 L3.95947,16.6235 L3.95947,16.6655 L3.91748,16.6655 M3.2666,15.8887 C3.2666,15.9447 3.2526,15.9727 3.22461,15.9727 C3.22461,15.9727 3.22461,15.9447 3.22461,15.8887 C3.22461,15.8607 3.23861,15.8327 3.2666,15.8047 L3.30859,15.7627 L3.30859,15.8047 C3.30859,15.8327 3.2946,15.8607 3.2666,15.8887 M2.27979,16.0986 L2.27979,16.1826 C2.27979,16.2106 2.28678,16.2316 2.30078,16.2456 C2.31478,16.2596 2.32178,16.2806 2.32178,16.3086 L2.23779,16.4136 C2.1818,16.3436 2.16781,16.2946 2.1958,16.2666 L2.27979,16.0986 M4.08545,16.7075 C4.08545,16.7075 4.08545,16.6795 4.08545,16.6235 C4.08545,16.6235 4.09945,16.6375 4.12744,16.6655 L4.12744,16.7495 C4.12744,16.7775 4.14144,16.7915 4.16943,16.7915 L4.08545,16.7075 M3.35059,15.9727 C3.35059,15.9727 3.38558,15.9587 3.45557,15.9307 C3.45557,15.9587 3.46257,15.9727 3.47656,15.9727 C3.49056,15.9727 3.49756,15.9867 3.49756,16.0146 L3.49756,16.0566 L3.45557,16.0566 C3.42757,16.0566 3.41357,16.0426 3.41357,16.0146 L3.35059,15.9727 M3.09863,16.0146 L3.09863,15.9307 L3.09863,15.8467 C3.09863,15.8187 3.11263,15.8047 3.14063,15.8047 L3.14063,15.8467 C3.14063,15.8747 3.14762,15.8887 3.16162,15.8887 C3.17562,15.8887 3.18262,15.9027 3.18262,15.9307 C3.18262,15.9587 3.16862,15.9867 3.14063,16.0146 L3.09863,16.0146 M4.16943,16.4976 C4.16943,16.5256 4.15544,16.5396 4.12744,16.5396 C4.09945,16.5396 4.08545,16.5256 4.08545,16.4976 L4.12744,16.4136 C4.12744,16.4136 4.14144,16.4416 4.16943,16.4976 M3.41357,15.8887 C3.41357,15.9167 3.39258,15.9307 3.35059,15.9307 C3.2946,15.9307 3.2946,15.9027 3.35059,15.8467 C3.35059,15.8467 3.37158,15.8327 3.41357,15.8047 L3.45557,15.8047 L3.41357,15.8887 M3.49756,15.8467 C3.52555,15.8467 3.55355,15.8607 3.58154,15.8887 C3.58154,15.8887 3.55355,15.9027 3.49756,15.9307 C3.46956,15.9307 3.45557,15.9167 3.45557,15.8887 L3.49756,15.8467 M4.12744,16.5815 C4.12744,16.5815 4.15544,16.5955 4.21143,16.6235 L4.21143,16.7075 C4.21143,16.7075 4.18343,16.6935 4.12744,16.6655 L4.12744,16.5815 M3.01465,16.1406 L3.01465,16.0566 C2.98665,16.0566 2.97266,16.0286 2.97266,15.9727 L2.97266,15.9307 L3.01465,15.9307 C3.01465,15.9307 3.02865,15.9587 3.05664,16.0146 L3.05664,16.0986 L3.05664,16.1406 L3.01465,16.1406 M2.80469,16.5396 L2.88867,16.5396 C2.91667,16.5396 2.93066,16.5535 2.93066,16.5815 C2.93066,16.6655 2.90267,16.6795 2.84668,16.6235 C2.81868,16.6235 2.80469,16.6095 2.80469,16.5815 L2.7627,16.5396 L2.80469,16.5396 M2.44775,16.4976 L2.63672,16.4136 C2.60872,16.4136 2.59473,16.4276 2.59473,16.4556 L2.59473,16.5815 C2.56673,16.6095 2.53874,16.6235 2.51074,16.6235 L2.44775,16.6235 L2.44775,16.4976 M2.32178,16.3086 C2.32178,16.3086 2.34977,16.2946 2.40576,16.2666 C2.43376,16.2666 2.44775,16.2526 2.44775,16.2246 L2.44775,16.3086 L2.44775,16.4136 C2.41976,16.4416 2.40576,16.4696 2.40576,16.4976 L2.36377,16.4976 C2.33577,16.4696 2.32178,16.4066 2.32178,16.3086 M1.73389,16.0986 L1.69189,15.9727 L1.77588,16.0566 C1.80387,16.0566 1.80387,16.0706 1.77588,16.0986 L1.73389,16.0986 M2.02783,16.0986 C2.02783,16.1826 2.01383,16.2246 1.98584,16.2246 C1.98584,16.2246 1.97184,16.1966 1.94385,16.1406 L1.94385,16.0146 C1.94385,15.9867 1.95785,15.9727 1.98584,15.9727 L1.98584,16.0146 C1.98584,16.0426 1.99984,16.0706 2.02783,16.0986 M2.15381,16.1826 C2.15381,16.2386 2.13981,16.2666 2.11182,16.2666 C2.11182,16.2666 2.09782,16.2386 2.06982,16.1826 C2.06982,16.1826 2.06982,16.1546 2.06982,16.0986 L2.11182,16.0566 L2.11182,16.0986 C2.11182,16.1266 2.11882,16.1406 2.13281,16.1406 C2.14681,16.1406 2.15381,16.1546 2.15381,16.1826 M3.01465,16.2666 C2.98665,16.2946 2.95866,16.2946 2.93066,16.2666 C2.90267,16.2386 2.88867,16.2106 2.88867,16.1826 L2.88867,16.1406 C2.88867,16.1406 2.91667,16.1406 2.97266,16.1406 C2.97266,16.1686 2.98665,16.1966 3.01465,16.2246 L3.01465,16.2666 M2.88867,16.4556 C2.83268,16.4556 2.80469,16.4206 2.80469,16.3506 L2.7627,16.3086 L2.80469,16.3086 C2.86068,16.3086 2.90267,16.3226 2.93066,16.3506 C2.95866,16.3926 2.97266,16.4276 2.97266,16.4556 C2.97266,16.4556 2.94466,16.4556 2.88867,16.4556 M1.85986,16.1406 C1.85986,16.1406 1.84587,16.1126 1.81787,16.0566 L1.81787,15.9727 L1.85986,15.9727 C1.85986,15.9727 1.87386,16.0007 1.90186,16.0566 L1.90186,16.1406 L1.85986,16.1406 M1.77588,16.1406 C1.77588,16.1406 1.76188,16.1546 1.73389,16.1826 C1.70589,16.2106 1.6779,16.2246 1.6499,16.2246 L1.6499,16.1826 C1.6499,16.1826 1.6779,16.1686 1.73389,16.1406 C1.73389,16.1126 1.74788,16.1126 1.77588,16.1406 M3.8335,16.7915 C3.8335,16.7635 3.8195,16.7355 3.7915,16.7075 L3.8335,16.7075 L3.87549,16.7075 C3.90348,16.7075 3.91748,16.7215 3.91748,16.7495 L3.8335,16.7915 M1.69189,16.0986 C1.69189,16.1266 1.6639,16.1406 1.60791,16.1406 L1.54492,16.0566 L1.6499,16.0566 C1.6779,16.0566 1.69889,16.0636 1.71289,16.0776 C1.72689,16.0916 1.71989,16.0986 1.69189,16.0986 M3.22461,16.3086 C3.22461,16.3086 3.19661,16.3226 3.14063,16.3506 L3.05664,16.3506 L3.05664,16.3086 L3.09863,16.2666 C3.12663,16.2666 3.14063,16.2736 3.14063,16.2876 C3.14063,16.3016 3.15462,16.3086 3.18262,16.3086 L3.22461,16.3086 M3.2666,16.2246 C3.2666,16.2246 3.23861,16.2106 3.18262,16.1826 C3.15462,16.2106 3.12663,16.2106 3.09863,16.1826 C3.09863,16.1546 3.12663,16.1406 3.18262,16.1406 L3.2666,16.2246 M3.14063,16.6235 C3.14063,16.6515 3.15462,16.6655 3.18262,16.6655 L3.14063,16.7075 C3.08464,16.7075 3.05664,16.7075 3.05664,16.7075 C3.02865,16.7075 3.01465,16.6935 3.01465,16.6655 L2.97266,16.6235 L3.01465,16.6235 C3.01465,16.6235 3.04264,16.6095 3.09863,16.5815 L3.14063,16.6235 M3.01465,16.4556 C3.01465,16.4276 3.04264,16.4136 3.09863,16.4136 C3.12663,16.4136 3.14063,16.4206 3.14063,16.4346 C3.14063,16.4486 3.15462,16.4556 3.18262,16.4556 C3.18262,16.4836 3.19661,16.4976 3.22461,16.4976 L3.18262,16.5396 L3.09863,16.5396 L3.01465,16.4556 M2.11182,16.4556 C2.16781,16.3856 2.1958,16.3856 2.1958,16.4556 C2.1958,16.4556 2.1818,16.4836 2.15381,16.5396 C2.12581,16.5675 2.09782,16.5815 2.06982,16.5815 L2.02783,16.5815 C2.05583,16.5815 2.06982,16.5675 2.06982,16.5396 C2.06982,16.5116 2.08382,16.4836 2.11182,16.4556 M2.06982,16.3086 C2.09782,16.3086 2.08382,16.3436 2.02783,16.4136 C1.99984,16.4416 1.97184,16.4556 1.94385,16.4556 L1.94385,16.4136 C1.94385,16.3716 1.95785,16.3366 1.98584,16.3086 C2.01383,16.2806 2.04183,16.2806 2.06982,16.3086 M1.94385,16.3086 L1.85986,16.4136 L1.85986,16.3506 C1.85986,16.3226 1.87386,16.2946 1.90186,16.2666 C1.92985,16.2386 1.95785,16.2386 1.98584,16.2666 L1.94385,16.3086 M1.85986,16.1826 C1.91585,16.2386 1.90186,16.2666 1.81787,16.2666 C1.81787,16.2946 1.80387,16.2946 1.77588,16.2666 L1.73389,16.2666 L1.77588,16.1826 L1.85986,16.1826 M4.40039,8.18311 L4.3584,8.14111 L4.40039,8.14111 L4.44238,8.18311 L4.40039,8.18311 M4.9043,7.07031 C4.9043,7.01432 4.93229,6.98633 4.98828,6.98633 C4.98828,6.98633 4.97428,6.97233 4.94629,6.94434 C4.97428,6.97233 4.98828,6.98633 4.98828,6.98633 L4.98828,7.02832 C5.04427,7.1403 5.07227,7.19629 5.07227,7.19629 L5.07227,7.23828 C5.04427,7.23828 5.03027,7.21029 5.03027,7.1543 L4.98828,7.1543 C4.96029,7.18229 4.93229,7.19629 4.9043,7.19629 L4.8623,7.19629 C4.8623,7.19629 4.8763,7.16829 4.9043,7.1123 L5.03027,7.1123 C5.00228,7.08431 4.98828,7.05632 4.98828,7.02832 L4.98828,7.07031 C4.96029,7.09831 4.93229,7.1123 4.9043,7.1123 L4.8623,7.1123 C4.8623,7.1123 4.8763,7.09831 4.9043,7.07031 M5.34521,5.55859 C5.37321,5.58659 5.29622,5.69157 5.11426,5.87354 C5.15625,5.84554 5.18424,5.81055 5.19824,5.76855 C5.21224,5.72656 5.23324,5.69157 5.26123,5.66357 L5.34521,5.55859 M5.11426,7.1123 C5.15625,7.1403 5.19124,7.1543 5.21924,7.1543 L5.26123,7.19629 L5.21924,7.19629 C5.14925,7.19629 5.11426,7.18229 5.11426,7.1543 C5.03027,7.1543 5.01628,7.1263 5.07227,7.07031 C5.07227,7.07031 5.08626,7.08431 5.11426,7.1123 M4.98828,6.12549 C4.96029,6.12549 4.93229,6.11149 4.9043,6.0835 L4.9043,6.0415 C4.93229,6.0415 4.94629,6.03451 4.94629,6.02051 C4.94629,6.00651 4.96029,5.99951 4.98828,5.99951 L5.03027,5.99951 C5.08626,6.0555 5.13525,6.0835 5.17725,6.0835 L5.21924,6.12549 L5.11426,6.12549 C5.03027,6.12549 4.98828,6.12549 4.98828,6.12549 M5.03027,7.19629 C5.03027,7.19629 5.03027,7.22428 5.03027,7.28027 C5.03027,7.28027 5.00228,7.28027 4.94629,7.28027 L4.9043,7.28027 C4.9043,7.28027 4.91829,7.26628 4.94629,7.23828 C4.97428,7.21029 5.00228,7.19629 5.03027,7.19629 M5.11426,7.07031 C5.05827,7.04232 5.03027,7.01432 5.03027,6.98633 C5.03027,6.98633 5.05827,6.97233 5.11426,6.94434 L5.21924,7.02832 C5.21924,7.02832 5.18424,7.04232 5.11426,7.07031 M5.11426,7.23828 L5.07227,7.23828 C5.07227,7.18229 5.10726,7.18229 5.17725,7.23828 L5.17725,7.32227 L5.11426,7.23828 M5.07227,7.36426 C5.07227,7.40625 5.05827,7.42725 5.03027,7.42725 C5.03027,7.42725 5.01628,7.39225 4.98828,7.32227 C5.01628,7.29427 5.04427,7.28027 5.07227,7.28027 L5.07227,7.36426 M5.11426,6.90234 C5.05827,6.90234 5.03027,6.90234 5.03027,6.90234 C5.00228,6.93034 4.97428,6.93034 4.94629,6.90234 C4.94629,6.84635 4.97428,6.83236 5.03027,6.86035 L5.11426,6.86035 L5.17725,6.86035 L5.11426,6.90234 M4.69434,6.16748 C4.69434,6.16748 4.72233,6.18148 4.77832,6.20947 C4.77832,6.23747 4.78532,6.25846 4.79932,6.27246 C4.81331,6.28646 4.82031,6.30745 4.82031,6.33545 L4.82031,6.37744 C4.82031,6.37744 4.76432,6.34945 4.65234,6.29346 C4.65234,6.29346 4.65234,6.26546 4.65234,6.20947 L4.65234,6.16748 L4.69434,6.16748 M4.77832,6.12549 C4.80632,6.09749 4.8623,6.09749 4.94629,6.12549 C4.94629,6.15348 4.95329,6.16748 4.96729,6.16748 C4.98128,6.16748 4.98828,6.18148 4.98828,6.20947 L4.98828,6.25146 L4.94629,6.25146 C4.8903,6.25146 4.8623,6.23747 4.8623,6.20947 L4.77832,6.12549 M5.47119,5.60059 L5.38721,5.66357 C5.35921,5.69157 5.33122,5.69157 5.30322,5.66357 C5.30322,5.66357 5.33122,5.64258 5.38721,5.60059 L5.47119,5.60059 M5.26123,5.83154 C5.28923,5.83154 5.30322,5.83854 5.30322,5.85254 C5.30322,5.86654 5.31722,5.87354 5.34521,5.87354 L5.38721,5.87354 L5.34521,5.87354 C5.28923,5.87354 5.26123,5.87354 5.26123,5.87354 C5.20524,5.87354 5.17725,5.85954 5.17725,5.83154 C5.17725,5.83154 5.20524,5.83154 5.26123,5.83154 M5.11426,5.99951 C5.08626,5.99951 5.07227,5.97152 5.07227,5.91553 L5.21924,5.91553 L5.26123,5.95752 C5.26123,5.98551 5.27523,5.99951 5.30322,5.99951 L5.11426,5.99951 M4.98828,6.73438 C4.98828,6.76237 4.97428,6.77637 4.94629,6.77637 C4.91829,6.80436 4.8903,6.81836 4.8623,6.81836 L4.82031,6.81836 C4.79232,6.79036 4.80632,6.74837 4.8623,6.69238 L4.94629,6.69238 L4.98828,6.69238 L4.98828,6.73438 M4.82031,6.6084 C4.82031,6.66439 4.80632,6.69238 4.77832,6.69238 C4.75033,6.72038 4.72233,6.73438 4.69434,6.73438 C4.66634,6.70638 4.66634,6.66439 4.69434,6.6084 C4.69434,6.6084 4.72233,6.5944 4.77832,6.56641 C4.80632,6.56641 4.82031,6.55241 4.82031,6.52441 L4.82031,6.6084 M5.34521,5.70557 C5.34521,5.70557 5.37321,5.71956 5.4292,5.74756 L5.47119,5.74756 L5.4292,5.78955 L5.34521,5.78955 C5.31722,5.78955 5.28923,5.77555 5.26123,5.74756 C5.26123,5.74756 5.28923,5.73356 5.34521,5.70557 M5.26123,5.66357 L5.26123,5.55859 C5.23324,5.5306 5.21924,5.5026 5.21924,5.47461 C5.21924,5.5026 5.23324,5.5166 5.26123,5.5166 L5.30322,5.55859 C5.33122,5.58659 5.33122,5.62158 5.30322,5.66357 L5.26123,5.66357 M5.4292,5.5166 C5.4292,5.5446 5.4222,5.56559 5.4082,5.57959 C5.39421,5.59359 5.38721,5.58659 5.38721,5.55859 C5.35921,5.55859 5.34521,5.5306 5.34521,5.47461 C5.34521,5.47461 5.35921,5.46061 5.38721,5.43262 L5.4292,5.43262 L5.4292,5.5166 M4.69434,6.90234 C4.69434,6.87435 4.70833,6.84635 4.73633,6.81836 L4.77832,6.81836 C4.77832,6.81836 4.79232,6.84635 4.82031,6.90234 L4.73633,6.98633 C4.73633,6.98633 4.72233,6.95833 4.69434,6.90234 M4.9043,6.98633 C4.82031,7.07031 4.77832,7.09831 4.77832,7.07031 L4.77832,7.02832 C4.77832,7.02832 4.79232,7.01432 4.82031,6.98633 C4.82031,6.95833 4.83431,6.93034 4.8623,6.90234 L4.9043,6.90234 L4.9043,6.98633 M4.56836,6.90234 C4.56836,6.90234 4.56836,6.87435 4.56836,6.81836 L4.65234,6.73438 C4.68034,6.76237 4.70133,6.77637 4.71533,6.77637 C4.72933,6.77637 4.70833,6.80436 4.65234,6.86035 C4.65234,6.88835 4.63835,6.90234 4.61035,6.90234 C4.58236,6.90234 4.56836,6.91634 4.56836,6.94434 L4.56836,6.90234 M5.03027,5.87354 C5.03027,5.90153 5.00228,5.88753 4.94629,5.83154 L4.94629,5.74756 L4.98828,5.74756 C4.98828,5.74756 5.00228,5.77555 5.03027,5.83154 C5.05827,5.85954 5.05827,5.87354 5.03027,5.87354 M5.07227,5.74756 C5.04427,5.71956 5.03027,5.69157 5.03027,5.66357 C5.03027,5.69157 5.04427,5.70557 5.07227,5.70557 L5.11426,5.74756 C5.15625,5.77555 5.15625,5.78955 5.11426,5.78955 C5.11426,5.81755 5.10726,5.82454 5.09326,5.81055 C5.07926,5.79655 5.07227,5.77555 5.07227,5.74756 M5.21924,5.70557 C5.19124,5.73356 5.17725,5.71956 5.17725,5.66357 C5.13525,5.62158 5.13525,5.58659 5.17725,5.55859 L5.26123,5.66357 C5.26123,5.69157 5.24723,5.70557 5.21924,5.70557 M0.873047,-8.36182 L0.831055,-8.36182 C0.859049,-8.33382 0.845052,-8.30583 0.789063,-8.27783 C0.789063,-8.24984 0.775065,-8.23584 0.74707,-8.23584 L0.74707,-8.27783 C0.74707,-8.27783 0.761068,-8.30583 0.789063,-8.36182 L0.831055,-8.36182 C0.80306,-8.38981 0.775065,-8.40381 0.74707,-8.40381 L0.74707,-8.27783 C0.719076,-8.24984 0.684082,-8.23584 0.64209,-8.23584 L0.64209,-8.36182 C0.64209,-8.38981 0.663086,-8.40381 0.705078,-8.40381 L0.558105,-8.40381 L0.64209,-8.40381 C0.712077,-8.40381 0.775065,-8.38981 0.831055,-8.36182 L0.873047,-8.36182 M2.06982,-8.84473 C2.04183,-8.78874 1.99984,-8.72575 1.94385,-8.65576 C1.99984,-8.75374 2.05583,-8.83073 2.11182,-8.88672 C2.16781,-8.94271 2.1958,-8.95671 2.1958,-8.92871 L2.15381,-8.88672 C2.12581,-8.88672 2.11182,-8.87972 2.11182,-8.86572 C2.11182,-8.85173 2.09782,-8.84473 2.06982,-8.84473 L2.15381,-8.84473 L2.23779,-8.76074 C2.23779,-8.76074 2.2098,-8.76074 2.15381,-8.76074 C2.09782,-8.69076 2.06982,-8.70475 2.06982,-8.80273 L2.06982,-8.84473 M0.74707,-8.4458 C0.719076,-8.41781 0.684082,-8.4318 0.64209,-8.48779 C0.614095,-8.48779 0.600098,-8.50179 0.600098,-8.52979 L0.600098,-8.57178 L0.64209,-8.57178 L0.74707,-8.48779 C0.775065,-8.48779 0.775065,-8.4738 0.74707,-8.4458 M1.81787,-8.4458 C1.81787,-8.4458 1.78988,-8.4598 1.73389,-8.48779 C1.70589,-8.51579 1.69189,-8.55778 1.69189,-8.61377 C1.69189,-8.64176 1.6779,-8.66976 1.6499,-8.69775 C1.6499,-8.66976 1.6639,-8.65576 1.69189,-8.65576 C1.71989,-8.62777 1.74089,-8.61377 1.75488,-8.61377 C1.76888,-8.61377 1.78988,-8.59977 1.81787,-8.57178 C1.81787,-8.57178 1.81787,-8.52979 1.81787,-8.4458 M0.558105,-8.27783 C0.558105,-8.33382 0.558105,-8.36182 0.558105,-8.36182 C0.558105,-8.38981 0.572103,-8.40381 0.600098,-8.40381 L0.600098,-8.31982 C0.600098,-8.29183 0.5861,-8.26383 0.558105,-8.23584 L0.558105,-8.27783 M0.873047,-8.4458 C0.817057,-8.38981 0.789063,-8.40381 0.789063,-8.48779 C0.789063,-8.48779 0.789063,-8.51579 0.789063,-8.57178 L0.789063,-8.61377 L0.873047,-8.52979 L0.873047,-8.4458 M0.600098,-8.4458 C0.600098,-8.4458 0.5861,-8.4458 0.558105,-8.4458 L0.474121,-8.48779 C0.474121,-8.48779 0.502116,-8.48779 0.558105,-8.48779 C0.5861,-8.48779 0.607096,-8.48079 0.621094,-8.4668 C0.635091,-8.4528 0.628092,-8.4458 0.600098,-8.4458 M0.516113,-8.40381 C0.544108,-8.37581 0.530111,-8.36182 0.474121,-8.36182 C0.446126,-8.33382 0.418132,-8.33382 0.390137,-8.36182 C0.390137,-8.36182 0.418132,-8.37581 0.474121,-8.40381 C0.502116,-8.4318 0.516113,-8.4318 0.516113,-8.40381 M0.999023,-8.4458 C1.02702,-8.41781 1.01302,-8.37581 0.957031,-8.31982 C0.929036,-8.31982 0.915039,-8.33382 0.915039,-8.36182 L0.915039,-8.4458 L0.915039,-8.52979 L0.957031,-8.57178 L0.957031,-8.52979 C0.957031,-8.50179 0.971029,-8.4738 0.999023,-8.4458 M1.69189,-8.15186 C1.69189,-8.15186 1.6639,-8.15186 1.60791,-8.15186 C1.50993,-8.23584 1.46094,-8.29183 1.46094,-8.31982 C1.46094,-8.29183 1.47493,-8.27783 1.50293,-8.27783 L1.6499,-8.27783 C1.76188,-8.22184 1.77588,-8.19385 1.69189,-8.19385 L1.69189,-8.15186 M1.73389,-8.31982 C1.70589,-8.31982 1.6779,-8.33382 1.6499,-8.36182 C1.62191,-8.36182 1.60791,-8.37581 1.60791,-8.40381 L1.60791,-8.48779 C1.60791,-8.48779 1.6359,-8.4738 1.69189,-8.4458 C1.74788,-8.41781 1.77588,-8.37581 1.77588,-8.31982 L1.73389,-8.31982 M2.11182,-8.88672 C2.11182,-8.88672 2.11182,-8.91471 2.11182,-8.9707 L2.15381,-9.05469 L2.1958,-8.9707 L2.11182,-8.88672 M1.98584,-8.69775 C1.95785,-8.69775 1.92985,-8.74674 1.90186,-8.84473 L1.90186,-8.92871 L1.94385,-8.88672 C1.94385,-8.85872 1.95785,-8.83073 1.98584,-8.80273 L1.98584,-8.69775 M1.90186,-8.61377 C1.84587,-8.61377 1.81787,-8.62777 1.81787,-8.65576 C1.81787,-8.65576 1.81787,-8.70475 1.81787,-8.80273 L1.81787,-8.84473 L1.90186,-8.76074 L1.90186,-8.61377 M1.16699,-8.27783 C1.139,-8.24984 1.09701,-8.23584 1.04102,-8.23584 L1.04102,-8.36182 L1.125,-8.4458 C1.15299,-8.4458 1.16699,-8.4318 1.16699,-8.40381 L1.16699,-8.27783 M1.25098,-8.15186 C1.22298,-8.12386 1.19499,-8.10986 1.16699,-8.10986 L1.16699,-8.19385 C1.16699,-8.27783 1.19499,-8.31982 1.25098,-8.31982 L1.33496,-8.31982 L1.25098,-8.15186 M2.06982,-8.92871 C2.06982,-8.90072 2.05583,-8.87272 2.02783,-8.84473 C2.02783,-8.84473 2.01383,-8.85872 1.98584,-8.88672 L1.98584,-8.9707 L2.02783,-9.0127 C2.02783,-9.0127 2.04183,-8.9847 2.06982,-8.92871 M2.1958,-8.88672 C2.2238,-8.88672 2.25179,-8.87272 2.27979,-8.84473 C2.27979,-8.84473 2.25179,-8.84473 2.1958,-8.84473 C2.16781,-8.84473 2.15381,-8.85872 2.15381,-8.88672 C2.15381,-8.91471 2.16781,-8.91471 2.1958,-8.88672 M2.27979,-8.9707 C2.25179,-8.94271 2.2238,-8.94271 2.1958,-8.9707 C2.1958,-8.9707 2.2098,-8.9847 2.23779,-9.0127 L2.32178,-9.05469 L2.32178,-9.0127 C2.32178,-8.9847 2.30778,-8.9707 2.27979,-8.9707 M0.873047,-8.10986 C0.901042,-8.10986 0.915039,-8.12386 0.915039,-8.15186 C0.915039,-8.15186 0.929036,-8.17985 0.957031,-8.23584 C0.985026,-8.23584 1.01302,-8.22184 1.04102,-8.19385 C1.04102,-8.19385 1.02702,-8.16585 0.999023,-8.10986 L0.873047,-8.10986 M0.873047,-8.31982 C0.901042,-8.31982 0.929036,-8.30583 0.957031,-8.27783 L0.873047,-8.23584 C0.873047,-8.20785 0.859049,-8.19385 0.831055,-8.19385 C0.80306,-8.19385 0.789063,-8.17985 0.789063,-8.15186 C0.817057,-8.17985 0.831055,-8.20785 0.831055,-8.23584 C0.831055,-8.26383 0.845052,-8.29183 0.873047,-8.31982 M1.94385,-8.36182 C1.83187,-8.41781 1.81787,-8.4458 1.90186,-8.4458 C1.87386,-8.4738 1.86686,-8.48779 1.88086,-8.48779 C1.89486,-8.48779 1.91585,-8.4738 1.94385,-8.4458 C1.97184,-8.4458 1.98584,-8.4388 1.98584,-8.4248 C1.98584,-8.41081 1.99984,-8.40381 2.02783,-8.40381 C2.02783,-8.37581 2.04183,-8.36182 2.06982,-8.36182 L1.94385,-8.36182 M1.81787,-8.27783 C1.81787,-8.33382 1.85986,-8.34782 1.94385,-8.31982 L1.98584,-8.27783 C1.98584,-8.24984 1.99984,-8.23584 2.02783,-8.23584 L1.90186,-8.23584 L1.81787,-8.23584 L1.81787,-8.27783 M2.11182,-8.52979 L2.06982,-8.52979 C2.01383,-8.52979 1.98584,-8.52979 1.98584,-8.52979 C1.95785,-8.52979 1.93685,-8.53678 1.92285,-8.55078 C1.90885,-8.56478 1.91585,-8.57178 1.94385,-8.57178 C1.94385,-8.57178 1.97184,-8.58577 2.02783,-8.61377 L2.11182,-8.52979 M2.06982,-8.61377 C2.01383,-8.64176 1.99984,-8.66976 2.02783,-8.69775 C2.02783,-8.69775 2.04183,-8.69775 2.06982,-8.69775 C2.06982,-8.69775 2.09782,-8.68376 2.15381,-8.65576 L2.1958,-8.61377 L2.06982,-8.61377 M-6.83252,-5.08643 C-6.80452,-5.08643 -6.79053,-5.08643 -6.79053,-5.08643 C-6.79053,-5.08643 -6.80452,-5.08643 -6.83252,-5.08643 C-6.77653,-5.08643 -6.77653,-5.05843 -6.83252,-5.00244 L-6.83252,-4.91846 C-6.86051,-4.91846 -6.87451,-4.93245 -6.87451,-4.96045 C-6.87451,-5.01644 -6.87451,-5.04443 -6.87451,-5.04443 L-6.87451,-5.08643 C-6.87451,-5.08643 -6.88851,-5.07243 -6.9165,-5.04443 L-6.9165,-5.00244 L-6.9165,-4.91846 C-6.9165,-4.91846 -6.9305,-4.94645 -6.9585,-5.00244 C-6.98649,-5.03044 -6.98649,-5.04443 -6.9585,-5.04443 C-7.04248,-5.04443 -7.08447,-5.04443 -7.08447,-5.04443 L-7.04248,-5.04443 C-7.01449,-5.04443 -6.98649,-5.05143 -6.9585,-5.06543 C-6.9305,-5.07943 -6.88851,-5.08643 -6.83252,-5.08643 L-6.83252,-5.14941 L-6.83252,-5.08643 M-5.92969,-6.09424 C-5.92969,-6.06624 -5.93669,-6.03475 -5.95068,-5.99976 C-5.96468,-5.96476 -5.97168,-5.93327 -5.97168,-5.90527 C-5.97168,-6.00326 -5.96468,-6.08724 -5.95068,-6.15723 C-5.93669,-6.22721 -5.91569,-6.24821 -5.8877,-6.22021 L-5.8877,-6.17822 C-5.8877,-6.15023 -5.89469,-6.13623 -5.90869,-6.13623 C-5.92269,-6.13623 -5.92969,-6.12223 -5.92969,-6.09424 C-5.92969,-6.09424 -5.91569,-6.10824 -5.8877,-6.13623 L-5.76172,-6.13623 L-5.80371,-6.09424 C-5.80371,-6.06624 -5.81771,-6.05225 -5.8457,-6.05225 C-5.8457,-6.01025 -5.8597,-5.98926 -5.8877,-5.98926 C-5.91569,-5.98926 -5.92969,-6.02425 -5.92969,-6.09424 M-6.9585,-5.14941 C-6.9585,-5.07943 -6.98649,-5.07943 -7.04248,-5.14941 C-7.07048,-5.14941 -7.09847,-5.16341 -7.12646,-5.19141 L-7.08447,-5.19141 L-7.00049,-5.19141 C-6.97249,-5.19141 -6.9585,-5.17741 -6.9585,-5.14941 M-6.09766,-5.65332 C-6.15365,-5.65332 -6.19564,-5.66732 -6.22363,-5.69531 C-6.25163,-5.72331 -6.26563,-5.7513 -6.26563,-5.7793 L-6.18164,-5.7793 C-6.15365,-5.7793 -6.13265,-5.7723 -6.11865,-5.7583 C-6.10465,-5.7443 -6.08366,-5.7373 -6.05566,-5.7373 C-6.02767,-5.7373 -6.01367,-5.70931 -6.01367,-5.65332 C-6.01367,-5.65332 -6.04167,-5.65332 -6.09766,-5.65332 M-7.00049,-4.96045 C-6.97249,-4.93245 -6.97249,-4.90446 -7.00049,-4.87646 L-7.04248,-4.91846 C-7.07048,-4.91846 -7.08447,-4.93245 -7.08447,-4.96045 L-7.08447,-5.00244 L-7.04248,-5.00244 C-7.04248,-5.00244 -7.02848,-4.98844 -7.00049,-4.96045 M-6.83252,-5.19141 C-6.86051,-5.16341 -6.90251,-5.16341 -6.9585,-5.19141 C-6.98649,-5.2194 -7.00049,-5.2474 -7.00049,-5.27539 L-6.87451,-5.27539 L-6.83252,-5.19141 M-7.08447,-5.04443 L-7.21045,-5.04443 C-7.21045,-5.04443 -7.18245,-5.05843 -7.12646,-5.08643 C-7.07048,-5.08643 -7.04248,-5.07243 -7.04248,-5.04443 L-7.08447,-5.04443 M-7.16846,-4.96045 C-7.16846,-4.98844 -7.15446,-5.00244 -7.12646,-5.00244 L-7.08447,-5.00244 C-7.08447,-4.97445 -7.09847,-4.94645 -7.12646,-4.91846 L-7.21045,-4.91846 C-7.21045,-4.91846 -7.19645,-4.93245 -7.16846,-4.96045 M-6.74854,-5.14941 C-6.74854,-5.14941 -6.76253,-5.17741 -6.79053,-5.2334 C-6.81852,-5.2334 -6.83252,-5.26139 -6.83252,-5.31738 L-6.83252,-5.35938 C-6.83252,-5.33138 -6.81852,-5.31738 -6.79053,-5.31738 C-6.73454,-5.26139 -6.70654,-5.2334 -6.70654,-5.2334 C-6.70654,-5.2334 -6.70654,-5.2054 -6.70654,-5.14941 L-6.74854,-5.14941 M-6.09766,-5.61133 C-6.04167,-5.58333 -6.01367,-5.54134 -6.01367,-5.48535 C-6.01367,-5.48535 -6.04167,-5.48535 -6.09766,-5.48535 C-6.15365,-5.48535 -6.18164,-5.49935 -6.18164,-5.52734 C-6.20964,-5.52734 -6.22363,-5.54134 -6.22363,-5.56934 L-6.18164,-5.56934 C-6.15365,-5.56934 -6.13965,-5.57633 -6.13965,-5.59033 C-6.13965,-5.60433 -6.12565,-5.61133 -6.09766,-5.61133 M-6.01367,-6.34619 L-5.92969,-6.26221 C-5.90169,-6.23421 -5.90169,-6.20622 -5.92969,-6.17822 C-5.92969,-6.17822 -5.94368,-6.19222 -5.97168,-6.22021 L-6.01367,-6.34619 M-6.09766,-5.98926 C-6.12565,-5.98926 -6.13965,-6.02425 -6.13965,-6.09424 L-6.13965,-6.13623 C-6.13965,-6.10824 -6.12565,-6.09424 -6.09766,-6.09424 C-6.06966,-6.09424 -6.05566,-6.08724 -6.05566,-6.07324 C-6.05566,-6.05924 -6.04167,-6.05225 -6.01367,-6.05225 C-5.98568,-6.01025 -5.97168,-5.97526 -5.97168,-5.94727 C-5.99967,-5.91927 -6.04167,-5.93327 -6.09766,-5.98926 M-6.09766,-5.82129 C-6.12565,-5.82129 -6.13965,-5.84928 -6.13965,-5.90527 C-6.13965,-5.93327 -6.15365,-5.94727 -6.18164,-5.94727 L-6.13965,-5.94727 C-6.11165,-5.94727 -6.08366,-5.93327 -6.05566,-5.90527 C-6.02767,-5.87728 -6.01367,-5.84928 -6.01367,-5.82129 C-6.01367,-5.7653 -6.04167,-5.7653 -6.09766,-5.82129 M-6.53857,-5.27539 C-6.53857,-5.2474 -6.51758,-5.2194 -6.47559,-5.19141 C-6.47559,-5.12142 -6.51058,-5.08643 -6.58057,-5.08643 C-6.60856,-5.08643 -6.62256,-5.10742 -6.62256,-5.14941 L-6.62256,-5.2334 C-6.65055,-5.2334 -6.65055,-5.2474 -6.62256,-5.27539 L-6.58057,-5.31738 L-6.53857,-5.27539 M-6.34961,-5.14941 C-6.34961,-5.07943 -6.35661,-5.03743 -6.37061,-5.02344 C-6.3846,-5.00944 -6.3916,-5.01644 -6.3916,-5.04443 C-6.3916,-5.04443 -6.4056,-5.07943 -6.43359,-5.14941 C-6.43359,-5.17741 -6.4196,-5.2054 -6.3916,-5.2334 L-6.34961,-5.27539 L-6.34961,-5.2334 L-6.34961,-5.14941 M-6.05566,-6.09424 C-6.08366,-6.12223 -6.09766,-6.15023 -6.09766,-6.17822 L-6.09766,-6.22021 L-6.05566,-6.22021 C-6.02767,-6.22021 -6.01367,-6.21322 -6.01367,-6.19922 C-6.01367,-6.18522 -5.99967,-6.17822 -5.97168,-6.17822 L-5.97168,-6.09424 L-6.05566,-6.09424 M-5.80371,-6.22021 L-5.76172,-6.17822 L-5.8457,-6.17822 L-5.8877,-6.13623 C-5.8877,-6.19222 -5.8737,-6.22021 -5.8457,-6.22021 L-5.80371,-6.22021 M-5.80371,-6.38818 L-5.80371,-6.3042 C-5.83171,-6.2762 -5.8597,-6.26221 -5.8877,-6.26221 C-5.94368,-6.26221 -5.94368,-6.2902 -5.8877,-6.34619 L-5.80371,-6.38818 M-6.58057,-5.04443 C-6.58057,-5.04443 -6.58057,-5.01644 -6.58057,-4.96045 C-6.60856,-4.93245 -6.63656,-4.91846 -6.66455,-4.91846 L-6.66455,-5.04443 L-6.58057,-5.04443 M-6.70654,-5.00244 C-6.70654,-4.97445 -6.72054,-4.94645 -6.74854,-4.91846 C-6.77653,-4.91846 -6.79053,-4.93245 -6.79053,-4.96045 L-6.79053,-5.04443 C-6.76253,-5.07243 -6.73454,-5.08643 -6.70654,-5.08643 C-6.70654,-5.08643 -6.70654,-5.05843 -6.70654,-5.00244 M-6.53857,-4.96045 C-6.49658,-4.98844 -6.44759,-5.00244 -6.3916,-5.00244 L-6.3916,-4.96045 C-6.3916,-4.93245 -6.4056,-4.90446 -6.43359,-4.87646 L-6.53857,-4.79248 L-6.53857,-4.83447 C-6.53857,-4.91846 -6.53857,-4.96045 -6.53857,-4.96045 M-5.76172,-5.65332 C-5.78971,-5.65332 -5.80371,-5.64632 -5.80371,-5.63232 C-5.80371,-5.61833 -5.81771,-5.61133 -5.8457,-5.61133 C-5.90169,-5.61133 -5.93669,-5.61833 -5.95068,-5.63232 C-5.96468,-5.64632 -5.95768,-5.65332 -5.92969,-5.65332 C-5.95768,-5.68132 -5.94368,-5.69531 -5.8877,-5.69531 L-5.76172,-5.69531 L-5.71973,-5.69531 L-5.76172,-5.65332 M-5.92969,-5.82129 C-5.92969,-5.82129 -5.91569,-5.83529 -5.8877,-5.86328 C-5.8877,-5.86328 -5.8597,-5.84928 -5.80371,-5.82129 L-5.76172,-5.82129 L-5.80371,-5.82129 C-5.83171,-5.82129 -5.8457,-5.81429 -5.8457,-5.80029 C-5.8457,-5.7863 -5.8597,-5.7793 -5.8877,-5.7793 C-5.94368,-5.7793 -5.95768,-5.79329 -5.92969,-5.82129 M-5.76172,-5.94727 C-5.76172,-5.94727 -5.78971,-5.93327 -5.8457,-5.90527 C-5.92969,-5.90527 -5.95768,-5.91927 -5.92969,-5.94727 C-5.92969,-5.94727 -5.91569,-5.96126 -5.8877,-5.98926 C-5.8877,-5.98926 -5.8597,-5.97526 -5.80371,-5.94727 L-5.76172,-5.94727 M9.33447,12.6553 C9.30648,12.7533 9.1945,12.8302 8.99854,12.8862 C9.1945,13.1662 9.15251,13.4811 8.87256,13.8311 C8.6626,14.027 8.47363,14.111 8.30566,14.083 C8.30566,14.139 8.31266,14.181 8.32666,14.209 C8.34066,14.237 8.31966,14.279 8.26367,14.335 C8.15169,14.4749 8.02572,14.4749 7.88574,14.335 L7.82275,14.293 C7.82275,14.349 7.80876,14.4049 7.78076,14.4609 C7.75277,14.5169 7.72477,14.5799 7.69678,14.6499 C7.5568,14.8179 7.37834,14.9159 7.16138,14.9438 C6.94442,14.9718 6.76595,14.9159 6.62598,14.7759 C6.486,14.6219 6.40902,14.4469 6.39502,14.251 C6.38102,14.055 6.44401,13.873 6.58398,13.7051 C6.5,13.6631 6.40202,13.6211 6.29004,13.5791 C6.17806,13.5371 6.05908,13.5301 5.93311,13.5581 C5.76514,13.6561 5.59717,13.7891 5.4292,13.957 C5.34521,14.097 5.25773,14.2475 5.16675,14.4084 C5.07576,14.5694 4.97428,14.7199 4.8623,14.8599 C4.80632,14.9159 4.74333,14.9788 4.67334,15.0488 C4.60335,15.1188 4.54036,15.1818 4.48438,15.2378 C4.62435,15.3778 4.70133,15.5142 4.71533,15.6472 C4.72933,15.7802 4.76432,15.8747 4.82031,15.9307 C4.93229,16.0706 5.04777,16.1861 5.16675,16.2771 C5.28573,16.3681 5.4012,16.4696 5.51318,16.5815 C5.54118,16.5256 5.56917,16.4591 5.59717,16.3821 C5.62516,16.3051 5.65316,16.2106 5.68115,16.0986 C5.70915,15.9587 5.71615,15.8327 5.70215,15.7207 C5.68815,15.6087 5.68115,15.5177 5.68115,15.4478 C5.73714,15.5457 5.73714,15.7627 5.68115,16.0986 C5.65316,16.3086 5.61117,16.4556 5.55518,16.5396 L5.59717,16.5815 C5.62516,16.5815 5.69515,16.5535 5.80713,16.4976 C5.89111,16.4976 5.9471,16.4836 5.9751,16.4556 C5.86312,16.5675 5.75114,16.6235 5.63916,16.6235 L5.72314,16.7075 L5.76514,16.6655 L5.80713,16.5815 C5.86312,16.5815 5.87712,16.6095 5.84912,16.6655 L5.84912,16.7495 C6.05908,16.8895 6.23405,17.0785 6.37402,17.3164 C6.40202,17.4004 6.44401,17.4424 6.5,17.4424 C6.55599,17.5824 6.66447,17.6523 6.82544,17.6523 C6.98641,17.6523 7.0389,17.6803 6.98291,17.7363 C6.91292,17.8203 6.61548,17.9148 6.09058,18.0198 C5.56567,18.1248 4.96029,18.1772 4.27441,18.1772 L4.16943,18.1772 L-7.29443,18.1772 C-7.78434,18.1353 -8.10978,18.0863 -8.27075,18.0303 C-8.43172,17.9743 -8.48421,17.9113 -8.42822,17.8413 C-8.37223,17.7713 -8.25675,17.6943 -8.08179,17.6104 C-7.90682,17.5264 -7.73885,17.4389 -7.57788,17.3479 C-7.41691,17.2569 -7.29443,17.1764 -7.21045,17.1064 C-7.12646,17.0365 -7.14046,16.9735 -7.25244,16.9175 C-7.30843,16.8895 -7.37142,16.7355 -7.44141,16.4556 L-7.4834,16.4976 C-7.84733,16.6375 -8.12028,16.5465 -8.30225,16.2246 C-8.33024,16.1966 -8.34424,16.1126 -8.34424,15.9727 L-8.38623,16.0146 C-8.47021,16.0706 -8.5542,16.0566 -8.63818,15.9727 C-8.66618,15.9167 -8.66618,15.8467 -8.63818,15.7627 C-8.80615,15.7067 -8.93213,15.6017 -9.01611,15.4478 C-9.19808,15.1398 -9.18408,14.9159 -8.97412,14.7759 C-9.12809,14.7199 -9.20508,14.6289 -9.20508,14.5029 C-9.20508,14.4469 -9.14209,14.4189 -9.01611,14.4189 C-9.14209,14.111 -9.0721,13.887 -8.80615,13.7471 C-8.89014,13.5931 -8.91813,13.4461 -8.89014,13.3062 C-8.86214,13.1662 -8.79215,13.0682 -8.68018,13.0122 C-8.62419,12.9562 -8.5542,12.9282 -8.47021,12.9282 C-8.47021,12.8442 -8.42822,12.7673 -8.34424,12.6973 C-8.37223,12.6413 -8.33724,12.5853 -8.23926,12.5293 C-8.21126,12.5013 -8.14128,12.5293 -8.0293,12.6133 C-8.0293,12.5573 -8.0013,12.5013 -7.94531,12.4453 C-7.77734,12.3893 -7.63737,12.4033 -7.52539,12.4873 L-7.4834,12.4453 C-7.35742,12.3893 -7.23844,12.4313 -7.12646,12.5713 C-7.09847,12.5993 -7.08447,12.6903 -7.08447,12.8442 C-7.00049,12.4383 -6.9165,12.0254 -6.83252,11.6055 C-6.74854,11.1855 -6.62956,10.7796 -6.47559,10.3877 C-6.30762,9.78581 -6.15365,9.20492 -6.01367,8.64502 C-5.8737,8.08512 -5.77572,7.58822 -5.71973,7.1543 L-5.80371,7.1543 C-5.94368,7.1543 -6.04167,7.16829 -6.09766,7.19629 C-6.12565,7.22428 -6.14665,7.25928 -6.16064,7.30127 C-6.17464,7.34326 -6.19564,7.39925 -6.22363,7.46924 C-5.99967,7.46924 -5.8877,7.58122 -5.8877,7.80518 C-5.8877,8.02913 -6.01367,8.14111 -6.26563,8.14111 C-6.34961,8.14111 -6.3916,8.12712 -6.3916,8.09912 L-6.3916,8.14111 C-6.3916,8.2251 -6.44059,8.26709 -6.53857,8.26709 C-6.56657,8.2391 -6.58757,8.2251 -6.60156,8.2251 C-6.61556,8.2251 -6.63656,8.2111 -6.66455,8.18311 C-6.72054,8.30908 -6.80452,8.33708 -6.9165,8.26709 C-7.11247,8.26709 -7.23844,8.1971 -7.29443,8.05713 C-7.32243,8.08512 -7.38542,8.09912 -7.4834,8.09912 C-7.53939,8.07113 -7.53939,8.02913 -7.4834,7.97314 C-7.67936,7.91715 -7.77734,7.80518 -7.77734,7.63721 C-8.05729,7.63721 -8.16927,7.53223 -8.11328,7.32227 L-8.11328,7.19629 C-8.16927,7.1403 -8.19727,7.09831 -8.19727,7.07031 C-8.19727,7.04232 -8.20426,7.02832 -8.21826,7.02832 C-8.23226,7.02832 -8.23926,7.00033 -8.23926,6.94434 C-8.23926,6.94434 -8.21126,6.91634 -8.15527,6.86035 L-8.15527,6.77637 C-8.15527,6.69238 -8.11328,6.6224 -8.0293,6.56641 L-8.0293,6.52441 C-8.0293,6.42643 -7.97331,6.37744 -7.86133,6.37744 C-7.77734,6.37744 -7.73535,6.39144 -7.73535,6.41943 C-7.67936,6.33545 -7.60938,6.26546 -7.52539,6.20947 L-7.56738,6.20947 C-7.56738,6.12549 -7.52539,6.0835 -7.44141,6.0835 C-7.41341,6.0835 -7.38892,6.09049 -7.36792,6.10449 C-7.34692,6.11849 -7.32243,6.12549 -7.29443,6.12549 C-7.29443,5.98551 -7.19645,5.91553 -7.00049,5.91553 C-6.9445,5.85954 -6.90251,5.83154 -6.87451,5.83154 C-6.84652,5.83154 -6.80452,5.87354 -6.74854,5.95752 L-6.70654,5.95752 C-6.59456,5.90153 -6.50358,5.87354 -6.43359,5.87354 C-6.18164,5.87354 -6.05566,5.98551 -6.05566,6.20947 C-6.05566,6.23747 -6.06266,6.25846 -6.07666,6.27246 C-6.09066,6.28646 -6.09766,6.32145 -6.09766,6.37744 C-5.95768,6.43343 -5.8877,6.52441 -5.8877,6.65039 C-5.8877,6.81836 -5.98568,6.90234 -6.18164,6.90234 C-6.06966,6.95833 -5.90169,7.00033 -5.67773,7.02832 C-5.67773,6.80436 -5.68473,6.6119 -5.69873,6.45093 C-5.71273,6.28996 -5.76172,6.16748 -5.8457,6.0835 C-6.23763,5.59359 -6.56307,5.27865 -6.82202,5.13867 C-7.08097,4.9987 -7.31543,4.80973 -7.52539,4.57178 C-7.77734,4.37581 -7.88932,3.9279 -7.86133,3.22803 C-7.83333,2.52816 -7.75635,1.7688 -7.63037,0.949951 C-7.50439,0.131104 -7.36792,-0.659749 -7.22095,-1.42261 C-7.07397,-2.18547 -7.00049,-2.72087 -7.00049,-3.02881 C-7.00049,-3.57471 -6.79753,-4.1626 -6.3916,-4.79248 C-6.3916,-4.79248 -6.3776,-4.82048 -6.34961,-4.87646 L-6.30762,-4.87646 C-6.30762,-4.90446 -6.29362,-4.91846 -6.26563,-4.91846 C-6.53158,-5.07243 -6.70654,-5.12842 -6.79053,-5.08643 C-6.70654,-5.12842 -6.53158,-5.07243 -6.26563,-4.91846 L-6.26563,-4.96045 C-6.26563,-4.96045 -6.26563,-4.98844 -6.26563,-5.04443 C-6.26563,-5.2264 -6.23763,-5.28939 -6.18164,-5.2334 C-6.12565,-5.17741 -6.13965,-5.2194 -6.22363,-5.35938 C-6.13965,-5.44336 -6.05566,-5.42936 -5.97168,-5.31738 C-5.94368,-5.37337 -5.91569,-5.40837 -5.8877,-5.42236 C-5.8597,-5.43636 -5.81771,-5.47135 -5.76172,-5.52734 C-5.78971,-5.49935 -5.81771,-5.48535 -5.8457,-5.48535 C-5.90169,-5.45736 -5.92969,-5.47135 -5.92969,-5.52734 C-5.92969,-5.52734 -5.90169,-5.54134 -5.8457,-5.56934 L-5.71973,-5.56934 C-5.66374,-5.62533 -5.60425,-5.68132 -5.54126,-5.7373 C-5.47827,-5.79329 -5.41878,-5.84928 -5.36279,-5.90527 C-5.36279,-5.96126 -5.36979,-6.02775 -5.38379,-6.10474 C-5.39779,-6.18172 -5.40479,-6.26221 -5.40479,-6.34619 C-5.43278,-6.40218 -5.46077,-6.45817 -5.48877,-6.51416 C-5.51676,-6.57015 -5.54476,-6.62614 -5.57275,-6.68213 C-5.64274,-6.71012 -5.76172,-6.75212 -5.92969,-6.80811 C-5.8737,-6.66813 -5.8737,-6.55615 -5.92969,-6.47217 C-5.98568,-6.38818 -6.05566,-6.34619 -6.13965,-6.34619 C-6.33561,-6.2902 -6.49658,-6.40218 -6.62256,-6.68213 C-6.62256,-6.8221 -6.62256,-6.89209 -6.62256,-6.89209 L-6.66455,-6.89209 C-6.74854,-6.89209 -6.80452,-6.94108 -6.83252,-7.03906 C-6.83252,-7.09505 -6.81852,-7.13704 -6.79053,-7.16504 C-6.87451,-7.22103 -6.9445,-7.31901 -7.00049,-7.45898 C-7.05648,-7.68294 -7.01449,-7.84391 -6.87451,-7.94189 C-6.9585,-8.02588 -6.98649,-8.09587 -6.9585,-8.15186 C-6.9585,-8.20785 -6.9305,-8.20785 -6.87451,-8.15186 C-6.87451,-8.37581 -6.79053,-8.51579 -6.62256,-8.57178 C-6.73454,-8.86572 -6.67155,-9.0127 -6.43359,-9.0127 C-6.3776,-9.04069 -6.34261,-9.04769 -6.32861,-9.03369 C-6.31462,-9.01969 -6.29362,-9.0127 -6.26563,-9.0127 C-6.26563,-9.09668 -6.23763,-9.13867 -6.18164,-9.13867 C-6.18164,-9.19466 -6.15365,-9.22266 -6.09766,-9.22266 C-6.06966,-9.22266 -6.02767,-9.18066 -5.97168,-9.09668 C-5.91569,-9.15267 -5.8737,-9.18066 -5.8457,-9.18066 C-5.76172,-9.18066 -5.69173,-9.13867 -5.63574,-9.05469 L-5.53076,-9.05469 C-5.44678,-9.05469 -5.39079,-8.9987 -5.36279,-8.88672 C-5.36279,-8.73275 -5.36279,-8.65576 -5.36279,-8.65576 C-5.27881,-8.65576 -5.18083,-8.59977 -5.06885,-8.48779 L-5.06885,-8.52979 C-4.98486,-8.52979 -4.92887,-8.4738 -4.90088,-8.36182 C-4.90088,-8.30583 -4.91488,-8.27783 -4.94287,-8.27783 C-4.7609,-8.22184 -4.64193,-8.10986 -4.58594,-7.94189 C-4.50195,-7.8859 -4.45996,-7.83691 -4.45996,-7.79492 C-4.43197,-7.73893 -4.45996,-7.68294 -4.54395,-7.62695 C-4.51595,-7.62695 -4.51595,-7.61296 -4.54395,-7.58496 C-4.43197,-7.47298 -4.36198,-7.375 -4.33398,-7.29102 C-4.27799,-6.96908 -4.36198,-6.80811 -4.58594,-6.80811 C-4.58594,-6.80811 -4.63493,-6.80811 -4.73291,-6.80811 C-4.7609,-6.66813 -4.83089,-6.57015 -4.94287,-6.51416 C-5.11084,-6.51416 -5.23682,-6.61214 -5.3208,-6.80811 C-5.3208,-6.72412 -5.3138,-6.61914 -5.2998,-6.49316 C-5.28581,-6.36719 -5.26481,-6.22021 -5.23682,-6.05225 C-5.20882,-6.05225 -5.19482,-6.03125 -5.19482,-5.98926 C-4.53695,-6.47917 -3.79508,-6.76611 -2.96924,-6.8501 C-2.21338,-6.92008 -1.50651,-7.09505 -0.848633,-7.375 C-0.190755,-7.65495 0.42513,-7.87191 0.999023,-8.02588 C0.999023,-8.05387 1.01302,-8.06787 1.04102,-8.06787 C1.09701,-8.17985 1.125,-8.17985 1.125,-8.06787 L1.16699,-8.10986 C0.999023,-8.27783 0.901042,-8.36182 0.873047,-8.36182 C0.957031,-8.36182 1.05501,-8.27783 1.16699,-8.10986 L1.41895,-8.10986 C1.47493,-8.13786 1.59391,-8.15186 1.77588,-8.15186 C1.77588,-8.15186 1.80387,-8.16585 1.85986,-8.19385 C1.88786,-8.19385 1.90186,-8.17985 1.90186,-8.15186 C2.26579,-8.15186 2.56323,-8.07137 2.79419,-7.9104 C3.02515,-7.74943 3.21411,-7.53947 3.36108,-7.28052 C3.50806,-7.02157 3.64453,-6.73462 3.77051,-6.41968 C3.89648,-6.10474 4.06445,-5.7793 4.27441,-5.44336 C4.38639,-5.2474 4.41439,-5.04793 4.3584,-4.84497 C4.30241,-4.64201 4.22192,-4.43205 4.11694,-4.21509 C4.01196,-3.99813 3.91048,-3.78817 3.8125,-3.58521 C3.71452,-3.38224 3.66553,-3.18278 3.66553,-2.98682 C3.66553,-2.73486 3.75651,-2.46541 3.93848,-2.17847 C4.12044,-1.89152 4.31291,-1.59757 4.51587,-1.29663 C4.71883,-0.995687 4.8798,-0.70874 4.99878,-0.435791 C5.11776,-0.162842 5.10026,0.0786133 4.94629,0.288574 C4.80632,0.456543 4.75732,0.806478 4.79932,1.33838 C4.84131,1.87028 4.8903,2.43717 4.94629,3.03906 C5.00228,3.64095 5.03727,4.20435 5.05127,4.72925 C5.06527,5.25415 4.98828,5.60758 4.82031,5.78955 C4.82031,5.81755 4.83431,5.83154 4.8623,5.83154 C4.8623,5.85954 4.8693,5.87354 4.8833,5.87354 C4.8973,5.87354 4.9043,5.88753 4.9043,5.91553 C4.93229,5.91553 4.94629,5.92253 4.94629,5.93652 C4.94629,5.95052 4.93229,5.95752 4.9043,5.95752 C4.9043,6.0415 4.8763,6.02751 4.82031,5.91553 L4.82031,5.78955 C4.79232,5.78955 4.77832,5.79655 4.77832,5.81055 C4.77832,5.82454 4.76432,5.83154 4.73633,5.83154 L4.73633,5.87354 C4.73633,5.90153 4.74333,5.91553 4.75732,5.91553 C4.77132,5.91553 4.77832,5.92952 4.77832,5.95752 C4.83431,6.01351 4.83431,6.0415 4.77832,6.0415 C4.77832,6.12549 4.75033,6.11149 4.69434,5.99951 L4.69434,5.95752 C4.69434,6.0415 4.68034,6.11849 4.65234,6.18848 C4.62435,6.25846 4.59635,6.33545 4.56836,6.41943 L4.56836,6.52441 C4.59635,6.48242 4.62435,6.46143 4.65234,6.46143 L4.65234,6.52441 L4.65234,6.6084 C4.54036,6.66439 4.51237,6.66439 4.56836,6.6084 L4.52637,6.6084 L4.52637,6.65039 C4.80632,6.76237 4.94629,6.86035 4.94629,6.94434 C4.94629,6.88835 4.80632,6.80436 4.52637,6.69238 L4.52637,6.73438 L4.52637,6.77637 C4.52637,6.80436 4.51237,6.81836 4.48438,6.81836 C4.45638,6.95833 4.43538,7.10181 4.42139,7.24878 C4.40739,7.39575 4.38639,7.53923 4.3584,7.6792 L4.40039,7.6792 C4.40039,7.6792 4.38639,7.6932 4.3584,7.72119 L4.3584,7.80518 L4.40039,7.84717 L4.31641,7.84717 L4.31641,7.88916 L4.3584,7.88916 C4.3584,7.91715 4.3444,7.93115 4.31641,7.93115 L4.3584,7.97314 L4.44238,7.97314 L4.3584,7.97314 L4.31641,7.97314 L4.31641,8.01514 L4.3584,8.01514 L4.44238,8.01514 C4.44238,8.01514 4.41439,8.02913 4.3584,8.05713 C4.3304,8.05713 4.31641,8.04313 4.31641,8.01514 C4.31641,8.01514 4.3304,8.04313 4.3584,8.09912 C4.3584,8.07113 4.3724,8.05713 4.40039,8.05713 L4.44238,8.05713 C4.44238,8.05713 4.41439,8.07113 4.3584,8.09912 L4.3584,8.14111 L4.31641,8.18311 L4.31641,8.14111 C4.19043,8.79899 4.09245,9.53035 4.02246,10.3352 C3.95247,11.1401 3.90348,11.9134 3.87549,12.6553 C3.87549,12.9772 3.88949,13.3236 3.91748,13.6946 C3.94548,14.0655 3.98747,14.4539 4.04346,14.8599 C4.07145,14.8599 4.08545,14.8669 4.08545,14.8809 C4.08545,14.8949 4.09945,14.9019 4.12744,14.9019 L4.16943,14.9019 C4.26742,14.7899 4.37939,14.6744 4.50537,14.5554 C4.63135,14.4364 4.76432,14.321 4.9043,14.209 C5.28223,13.6911 5.52718,13.2922 5.63916,13.0122 C5.33122,13.2642 5.04427,13.2922 4.77832,13.0962 C4.58236,12.9282 4.54036,12.6833 4.65234,12.3613 C4.59635,12.3333 4.54736,12.3123 4.50537,12.2983 C4.46338,12.2843 4.42839,12.2633 4.40039,12.2354 C4.21842,12.0954 4.12044,11.9169 4.10645,11.7 C4.09245,11.483 4.16243,11.3045 4.31641,11.1646 C4.48438,10.9546 4.66634,10.8496 4.8623,10.8496 C4.8623,10.7656 4.8763,10.7236 4.9043,10.7236 C4.82031,10.6117 4.80632,10.4997 4.8623,10.3877 C4.91829,10.3317 5.02327,10.3037 5.17725,10.3037 C5.45719,10.0378 5.73714,9.98177 6.01709,10.1357 C6.01709,10.0098 6.03809,9.93278 6.08008,9.90479 C6.19206,9.73682 6.30404,9.70882 6.41602,9.8208 L6.41602,9.90479 C6.61198,9.76481 6.81494,9.76481 7.0249,9.90479 C7.0249,9.8488 7.0389,9.7998 7.06689,9.75781 C7.09489,9.71582 7.12288,9.66683 7.15088,9.61084 C7.34684,9.41488 7.50081,9.37288 7.61279,9.48486 L7.69678,9.52686 C7.90674,9.47087 8.08171,9.49886 8.22168,9.61084 C8.27767,9.66683 8.30566,9.70882 8.30566,9.73682 C8.30566,9.76481 8.31966,9.79281 8.34766,9.8208 C8.48763,9.76481 8.57161,9.76481 8.59961,9.8208 C8.72559,9.87679 8.75358,9.94678 8.68359,10.0308 C8.78158,10.1567 8.81657,10.2757 8.78857,10.3877 C8.87256,10.3877 8.95654,10.4297 9.04053,10.5137 C9.1805,10.6257 9.25049,10.7831 9.25049,10.9861 C9.25049,11.189 9.1805,11.3605 9.04053,11.5005 C9.32048,11.7944 9.34847,12.1094 9.12451,12.4453 C9.26449,12.5013 9.33447,12.5713 9.33447,12.6553 M-5.06885,-7.45898 L-5.06885,-7.50098 L-5.06885,-7.45898 M-5.23682,-7.85791 C-5.23682,-7.78792 -5.26481,-7.72493 -5.3208,-7.66895 C-5.26481,-7.66895 -5.20882,-7.64095 -5.15283,-7.58496 C-5.20882,-7.64095 -5.23682,-7.69694 -5.23682,-7.75293 L-5.23682,-7.85791 M-6.26563,-7.20703 L-6.26563,-7.24902 L-6.30762,-7.375 C-6.30762,-7.31901 -6.31462,-7.28402 -6.32861,-7.27002 C-6.34261,-7.25602 -6.34961,-7.23503 -6.34961,-7.20703 L-6.26563,-7.20703 M-5.67773,-7.62695 C-5.73372,-7.62695 -5.78971,-7.65495 -5.8457,-7.71094 L-5.80371,-7.62695 L-5.76172,-7.54297 C-5.76172,-7.54297 -5.73372,-7.57096 -5.67773,-7.62695 M-5.97168,-8.40381 L-5.8457,-8.40381 C-5.90169,-8.4598 -5.94368,-8.51579 -5.97168,-8.57178 L-5.97168,-8.40381 M-5.92969,-6.80811 C-5.8737,-6.78011 -5.82471,-6.76611 -5.78271,-6.76611 C-5.74072,-6.76611 -5.69173,-6.75212 -5.63574,-6.72412 C-5.66374,-6.78011 -5.69173,-6.8221 -5.71973,-6.8501 C-5.74772,-6.87809 -5.77572,-6.92708 -5.80371,-6.99707 C-5.80371,-6.92708 -5.83171,-6.89209 -5.8877,-6.89209 L-5.97168,-6.89209 C-5.94368,-6.8641 -5.92969,-6.8361 -5.92969,-6.80811 M-5.40479,-6.51416 C-5.43278,-6.59814 -5.43978,-6.68213 -5.42578,-6.76611 C-5.41178,-6.8501 -5.40479,-6.92708 -5.40479,-6.99707 L-5.40479,-7.03906 C-5.43278,-7.03906 -5.44678,-7.03206 -5.44678,-7.01807 C-5.44678,-7.00407 -5.46077,-6.99707 -5.48877,-6.99707 C-5.61475,-6.99707 -5.69173,-7.03906 -5.71973,-7.12305 C-5.71973,-7.09505 -5.72673,-7.07406 -5.74072,-7.06006 C-5.75472,-7.04606 -5.76172,-7.02507 -5.76172,-6.99707 C-5.70573,-6.92708 -5.64624,-6.8501 -5.58325,-6.76611 C-5.52026,-6.68213 -5.46077,-6.59814 -5.40479,-6.51416 M-7.56738,6.94434 C-7.56738,6.91634 -7.60938,6.94434 -7.69336,7.02832 C-7.66536,7.02832 -7.64437,7.03532 -7.63037,7.04932 C-7.61637,7.06331 -7.59538,7.07031 -7.56738,7.07031 L-7.56738,6.94434 M-6.83252,7.1123 C-6.86051,7.1123 -6.87451,7.08431 -6.87451,7.02832 C-6.9305,7.08431 -6.9585,7.1123 -6.9585,7.1123 L-6.9165,7.1123 L-6.83252,7.1123 M-6.87451,6.69238 C-6.87451,6.6084 -6.84652,6.56641 -6.79053,6.56641 L-6.9585,6.56641 L-7.00049,6.56641 C-6.97249,6.5944 -6.9515,6.6084 -6.9375,6.6084 C-6.9235,6.6084 -6.90251,6.63639 -6.87451,6.69238 M-6.62256,7.76318 L-6.62256,7.6792 L-6.66455,7.6792 L-6.74854,7.6792 C-6.69255,7.73519 -6.65055,7.76318 -6.62256,7.76318 M-6.13965,7.19629 C-6.25163,7.25228 -6.32161,7.28027 -6.34961,7.28027 C-6.32161,7.30827 -6.30762,7.35726 -6.30762,7.42725 L-6.30762,7.46924 L-6.26563,7.46924 L-6.13965,7.19629 M-6.3916,7.28027 C-6.33561,7.22428 -6.26563,7.18929 -6.18164,7.17529 C-6.09766,7.1613 -6.01367,7.1263 -5.92969,7.07031 C-6.04167,7.04232 -6.18164,7.00033 -6.34961,6.94434 L-6.34961,7.02832 C-6.34961,7.1123 -6.3916,7.16829 -6.47559,7.19629 C-6.4196,7.19629 -6.3916,7.22428 -6.3916,7.28027 M-8.07129,15.4058 C-8.0153,15.4058 -7.97331,15.3918 -7.94531,15.3638 L-7.9873,15.3218 L-8.07129,15.1958 C-8.04329,15.2798 -8.04329,15.3498 -8.07129,15.4058 M-7.86133,13.5581 C-7.80534,13.5301 -7.77035,13.5161 -7.75635,13.5161 C-7.74235,13.5161 -7.70736,13.5021 -7.65137,13.4741 C-7.73535,13.4741 -7.81934,13.4321 -7.90332,13.3481 C-7.87533,13.4041 -7.86133,13.4741 -7.86133,13.5581 M-7.39941,14.6079 C-7.35742,14.5659 -7.33643,14.5169 -7.33643,14.4609 C-7.37842,14.4329 -7.42741,14.4189 -7.4834,14.4189 L-7.39941,14.5449 L-7.39941,14.6079 M4.31641,8.01514 L4.31641,8.09912 L4.31641,8.01514 M4.08545,16.7915 C4.49137,16.7915 4.70133,16.69 4.71533,16.4871 C4.72933,16.2841 4.65934,16.0321 4.50537,15.7312 C4.3514,15.4303 4.16593,15.1013 3.94897,14.7444 C3.73201,14.3875 3.60954,14.069 3.58154,13.7891 C3.52555,13.4671 3.44507,13.1837 3.34009,12.9387 C3.23511,12.6938 3.11263,12.4873 2.97266,12.3193 C2.91667,11.7454 2.83968,11.0876 2.7417,10.3457 C2.64372,9.60384 2.51774,9.02995 2.36377,8.62402 C2.46175,8.54004 2.58073,8.33708 2.7207,8.01514 C2.88867,7.62321 3.02865,7.29777 3.14063,7.03882 C3.2526,6.77987 3.34009,6.56291 3.40308,6.38794 C3.46606,6.21297 3.50456,6.0765 3.51855,5.97852 C3.53255,5.88053 3.55355,5.78955 3.58154,5.70557 C3.60954,5.60758 3.57804,5.68107 3.48706,5.92603 C3.39608,6.17098 3.2946,6.42993 3.18262,6.70288 C3.07064,6.97583 2.97965,7.18579 2.90967,7.33276 C2.83968,7.47974 2.83268,7.39225 2.88867,7.07031 C2.91667,6.76237 2.90267,6.53491 2.84668,6.38794 C2.79069,6.24097 2.7347,6.11849 2.67871,6.02051 C2.62272,5.92253 2.59473,5.80705 2.59473,5.67407 C2.59473,5.5411 2.66471,5.32064 2.80469,5.0127 C2.97266,4.71875 3.05664,4.50879 3.05664,4.38281 C3.05664,4.25684 3.03564,4.14486 2.99365,4.04688 C2.95166,3.94889 2.92367,3.81942 2.90967,3.65845 C2.89567,3.49748 2.95866,3.22803 3.09863,2.8501 C3.21061,2.48617 3.38208,2.08024 3.61304,1.63232 C3.84399,1.18441 4.03296,0.802979 4.17993,0.488037 C4.3269,0.173096 4.40039,-0.0473633 4.40039,-0.17334 C4.40039,-0.299316 4.25342,-0.236328 3.95947,0.015625 C3.67952,0.281576 3.45907,0.47054 3.2981,0.58252 C3.13713,0.694499 3.00765,0.757487 2.90967,0.771484 C2.81169,0.785482 2.7277,0.771484 2.65771,0.729492 C2.58773,0.6875 2.50374,0.638509 2.40576,0.58252 C2.26579,0.52653 2.14681,0.446045 2.04883,0.341064 C1.95085,0.236084 1.83187,0.155599 1.69189,0.0996094 C1.69189,-0.0403646 1.75488,-0.166341 1.88086,-0.27832 C2.00684,-0.390299 2.24479,-0.502279 2.59473,-0.614258 C3.2526,-0.796224 3.58154,-0.929199 3.58154,-1.01318 C3.58154,-1.09717 3.45907,-1.16016 3.21411,-1.20215 C2.96916,-1.24414 2.71021,-1.27214 2.43726,-1.28613 C2.16431,-1.30013 2.11182,-1.33512 2.27979,-1.39111 C2.43376,-1.4471 2.52474,-1.54858 2.55273,-1.69556 C2.58073,-1.84253 2.57023,-1.986 2.52124,-2.12598 C2.47225,-2.26595 2.39876,-2.39543 2.30078,-2.5144 C2.2028,-2.63338 2.09782,-2.72087 1.98584,-2.77686 C1.78988,-2.86084 1.59041,-2.93783 1.38745,-3.00781 C1.18449,-3.0778 0.894043,-3.23177 0.516113,-3.46973 C0.348145,-3.58171 0.271159,-3.69368 0.285156,-3.80566 C0.299154,-3.91764 0.355143,-4.03312 0.453125,-4.1521 C0.551107,-4.27108 0.680583,-4.38656 0.841553,-4.49854 C1.00252,-4.61051 1.125,-4.72249 1.20898,-4.83447 C1.32096,-4.94645 1.32796,-5.01644 1.22998,-5.04443 C1.132,-5.07243 0.995524,-5.07943 0.820557,-5.06543 C0.645589,-5.05143 0.453125,-5.01644 0.243164,-4.96045 C0.0332031,-4.90446 -0.134766,-4.86247 -0.260742,-4.83447 C-0.54069,-4.77848 -0.894124,-4.7085 -1.32104,-4.62451 C-1.74797,-4.54053 -2.03841,-4.44255 -2.19238,-4.33057 C-2.33236,-4.20459 -2.47933,-4.20109 -2.6333,-4.32007 C-2.78727,-4.43905 -2.91325,-4.55452 -3.01123,-4.6665 C-3.12321,-4.75049 -3.27018,-4.7085 -3.45215,-4.54053 C-3.63411,-4.37256 -3.87207,-4.1696 -4.16602,-3.93164 L-4.33398,-3.67969 C-4.38997,-3.5957 -4.43896,-3.50822 -4.48096,-3.41724 C-4.52295,-3.32625 -4.55794,-3.23877 -4.58594,-3.15479 C-4.64193,-2.95882 -4.73641,-2.84684 -4.86938,-2.81885 C-5.00236,-2.79085 -5.19482,-3.11979 -5.44678,-3.80566 C-5.25081,-3.77767 -5.03735,-3.92814 -4.8064,-4.25708 C-4.57544,-4.58602 -4.29199,-4.86247 -3.95605,-5.08643 C-3.57813,-5.32438 -3.13721,-5.49235 -2.6333,-5.59033 C-2.12939,-5.68831 -1.5485,-5.7793 -0.890625,-5.86328 C-0.204753,-5.94727 0.330648,-6.09074 0.715576,-6.2937 C1.1005,-6.49666 1.46794,-6.78711 1.81787,-7.16504 C1.98584,-7.33301 2.04183,-7.45898 1.98584,-7.54297 C1.92985,-7.62695 1.81437,-7.66895 1.6394,-7.66895 C1.46444,-7.66895 1.24748,-7.65495 0.988525,-7.62695 C0.729574,-7.59896 0.502116,-7.57096 0.306152,-7.54297 C-0.0997721,-7.48698 -0.407715,-7.3645 -0.617676,-7.17554 C-0.827637,-6.98657 -1.07959,-6.8501 -1.37354,-6.76611 C-1.68148,-6.68213 -2.03841,-6.57015 -2.44434,-6.43018 C-2.85026,-6.2902 -3.29118,-6.19222 -3.76709,-6.13623 C-3.97705,-5.92627 -4.15202,-5.7653 -4.29199,-5.65332 C-4.43197,-5.51335 -4.57544,-5.40137 -4.72241,-5.31738 C-4.86938,-5.2334 -4.98486,-5.15641 -5.06885,-5.08643 C-5.18083,-5.03044 -5.29281,-4.89746 -5.40479,-4.6875 C-5.51676,-4.47754 -5.59375,-4.28158 -5.63574,-4.09961 C-5.71973,-4.22559 -5.78971,-4.18709 -5.8457,-3.98413 C-5.90169,-3.78117 -5.93669,-3.52222 -5.95068,-3.20728 C-5.96468,-2.89233 -5.97868,-2.5564 -5.99268,-2.19946 C-6.00667,-1.84253 -6.01367,-1.57308 -6.01367,-1.39111 C-6.01367,-0.971191 -5.96468,-0.624756 -5.8667,-0.351807 C-5.76872,-0.0788574 -5.62874,0.246582 -5.44678,0.624512 C-5.36279,0.79248 -5.3068,0.942952 -5.27881,1.07593 C-5.25081,1.2089 -5.24382,1.34538 -5.25781,1.48535 C-5.27181,1.62533 -5.3208,1.79679 -5.40479,1.99976 C-5.48877,2.20272 -5.62174,2.48617 -5.80371,2.8501 C-5.97168,3.22803 -6.03467,3.46598 -5.99268,3.56396 C-5.95068,3.66195 -5.8562,3.68994 -5.70923,3.64795 C-5.56226,3.60596 -5.40479,3.51497 -5.23682,3.375 C-5.06885,3.23503 -4.94287,3.12305 -4.85889,3.03906 C-4.64893,2.8291 -4.44596,2.42318 -4.25,1.82129 C-4.05404,1.2194 -3.80908,0.302572 -3.51514,-0.929199 C-3.37516,-1.53109 -3.26318,-1.92301 -3.1792,-2.10498 C-3.09521,-2.28695 -3.00773,-2.38493 -2.91675,-2.39893 C-2.82576,-2.41292 -2.69629,-2.39893 -2.52832,-2.35693 C-2.36035,-2.31494 -2.1154,-2.38493 -1.79346,-2.56689 C-1.48551,-2.70687 -1.30355,-2.74886 -1.24756,-2.69287 C-1.19157,-2.63688 -1.17757,-2.49341 -1.20557,-2.26245 C-1.23356,-2.03149 -1.27555,-1.73055 -1.33154,-1.35962 C-1.38753,-0.988688 -1.35954,-0.586263 -1.24756,-0.152344 C-1.14958,0.281576 -1.18807,0.614014 -1.36304,0.844971 C-1.538,1.07593 -1.73747,1.26139 -1.96143,1.40137 C-2.0874,1.45736 -2.19238,1.51335 -2.27637,1.56934 C-2.44434,1.68132 -2.55632,1.7793 -2.6123,1.86328 C-2.6403,1.86328 -2.66829,1.87728 -2.69629,1.90527 C-3.01823,2.19922 -3.1722,2.53866 -3.1582,2.92358 C-3.14421,3.30851 -3.01823,3.52897 -2.78027,3.58496 C-2.69629,3.61296 -2.59131,3.66545 -2.46533,3.74243 C-2.33936,3.81942 -2.23438,3.8999 -2.15039,3.98389 C-2.06641,4.06787 -2.03141,4.15186 -2.04541,4.23584 C-2.05941,4.31982 -2.15039,4.40381 -2.31836,4.48779 C-2.51432,4.57178 -2.6403,4.70125 -2.69629,4.87622 C-2.75228,5.05119 -2.79427,5.22616 -2.82227,5.40112 C-2.85026,5.57609 -2.86426,5.73356 -2.86426,5.87354 C-2.86426,6.01351 -2.91325,6.0835 -3.01123,6.0835 C-3.09521,6.0835 -3.13721,6.10449 -3.13721,6.14648 C-3.13721,6.18848 -3.12321,6.24447 -3.09521,6.31445 C-3.06722,6.38444 -3.03923,6.47892 -3.01123,6.5979 C-2.98324,6.71688 -2.98324,6.83236 -3.01123,6.94434 C-3.06722,7.05632 -3.09521,7.1473 -3.09521,7.21729 C-3.09521,7.28727 -3.09521,7.36076 -3.09521,7.43774 C-3.09521,7.51473 -3.10221,7.60221 -3.11621,7.7002 C-3.13021,7.79818 -3.1932,7.94515 -3.30518,8.14111 C-3.50114,8.51904 -3.61312,8.79549 -3.64111,8.97046 C-3.66911,9.14543 -3.6971,9.34489 -3.7251,9.56885 C-3.75309,9.68083 -3.76009,9.8243 -3.74609,9.99927 C-3.7321,10.1742 -3.7111,10.3317 -3.68311,10.4717 C-3.65511,10.6117 -3.62012,10.7236 -3.57813,10.8076 C-3.53613,10.8916 -3.50114,10.9056 -3.47314,10.8496 C-3.44515,10.7936 -3.43815,10.7936 -3.45215,10.8496 C-3.46615,10.9056 -3.48014,10.9861 -3.49414,11.0911 C-3.50814,11.196 -3.50814,11.2905 -3.49414,11.3745 C-3.48014,11.4585 -3.41715,11.4865 -3.30518,11.4585 C-3.22119,11.4305 -3.1652,11.511 -3.13721,11.7 C-3.10921,11.8889 -3.08822,12.0744 -3.07422,12.2563 C-3.06022,12.4383 -3.04622,12.5958 -3.03223,12.7288 C-3.01823,12.8617 -2.96224,12.8512 -2.86426,12.6973 C-2.78027,12.5573 -2.68229,12.4383 -2.57031,12.3403 C-2.45833,12.2424 -2.34635,12.1514 -2.23438,12.0674 C-2.1224,11.9834 -2.04191,11.9169 -1.99292,11.8679 C-1.94393,11.8189 -1.96842,11.7804 -2.06641,11.7524 C-2.15039,11.7244 -2.29736,11.6965 -2.50732,11.6685 C-2.71729,11.6405 -2.90275,11.5775 -3.06372,11.4795 C-3.22469,11.3815 -3.31217,11.252 -3.32617,11.0911 C-3.34017,10.9301 -3.1862,10.7096 -2.86426,10.4297 C-2.55632,10.1357 -2.32186,9.96077 -2.16089,9.90479 C-1.99992,9.8488 -1.87744,9.7998 -1.79346,9.75781 C-1.70947,9.71582 -1.65348,9.63883 -1.62549,9.52686 C-1.59749,9.41488 -1.5555,9.16992 -1.49951,8.79199 C-1.44352,8.41406 -1.48551,8.26359 -1.62549,8.34058 C-1.76546,8.41756 -1.91593,8.51904 -2.0769,8.64502 C-2.23787,8.771 -2.36035,8.84098 -2.44434,8.85498 C-2.52832,8.86898 -2.48633,8.63102 -2.31836,8.14111 L-2.02441,7.23828 C-1.78646,7.18229 -1.52401,7.09131 -1.23706,6.96533 C-0.950114,6.83936 -0.750651,6.70638 -0.638672,6.56641 C-0.526693,6.44043 -0.456706,6.28646 -0.428711,6.10449 C-0.400716,5.92253 -0.37972,5.71606 -0.365723,5.48511 C-0.351725,5.25415 -0.330729,4.9882 -0.302734,4.68726 C-0.27474,4.38631 -0.197754,4.04688 -0.0717773,3.66895 C0.012207,3.361 0.0332031,3.13354 -0.00878906,2.98657 C-0.0507813,2.8396 -0.11377,2.72412 -0.197754,2.64014 C0.0262044,2.61214 0.281657,2.58415 0.568604,2.55615 C0.85555,2.52816 1.16699,2.48617 1.50293,2.43018 L1.60791,2.43018 C1.6359,2.48617 1.6499,2.56315 1.6499,2.66113 C1.6499,2.75911 1.60091,2.92708 1.50293,3.16504 C1.41895,3.361 1.41545,3.51497 1.49243,3.62695 C1.56942,3.73893 1.6569,3.84041 1.75488,3.9314 C1.85286,4.02238 1.93685,4.09587 2.00684,4.15186 C2.07682,4.20785 2.06982,4.29183 1.98584,4.40381 C1.92985,4.48779 1.90186,4.65926 1.90186,4.91821 C1.90186,5.17716 1.90186,5.44312 1.90186,5.71606 C1.90186,5.98901 1.90186,6.25496 1.90186,6.51392 C1.90186,6.77287 1.85986,6.95833 1.77588,7.07031 C1.62191,7.30827 1.50993,7.53923 1.43994,7.76318 C1.36995,7.98714 1.29297,8.15511 1.20898,8.26709 L1.20898,8.41406 C0.985026,8.69401 0.820557,9.03345 0.715576,9.43237 C0.610596,9.8313 0.649089,10.2337 0.831055,10.6396 C0.971029,10.9896 1.01302,11.2415 0.957031,11.3955 C0.901042,11.5495 0.806559,11.672 0.673584,11.7629 C0.540609,11.8539 0.432129,11.9414 0.348145,12.0254 C0.26416,12.1094 0.278158,12.2354 0.390137,12.4033 C0.502116,12.5993 0.551107,12.7568 0.537109,12.8757 C0.523112,12.9947 0.509115,13.1382 0.495117,13.3062 C0.48112,13.4741 0.48112,13.6876 0.495117,13.9465 C0.509115,14.2055 0.593099,14.5799 0.74707,15.0698 C0.887044,15.5597 0.971029,15.8887 0.999023,16.0566 C1.02702,16.2246 1.06201,16.3331 1.104,16.3821 C1.146,16.4311 1.21598,16.4556 1.31396,16.4556 C1.41195,16.4556 1.62191,16.4976 1.94385,16.5815 C1.99984,16.5815 2.03483,16.5885 2.04883,16.6025 C2.06283,16.6165 2.09782,16.6235 2.15381,16.6235 C2.15381,16.5955 2.16081,16.5815 2.1748,16.5815 C2.1888,16.5815 2.1958,16.5675 2.1958,16.5396 C2.25179,16.4836 2.27979,16.4836 2.27979,16.5396 C2.33577,16.5396 2.33577,16.5675 2.27979,16.6235 C2.25179,16.6235 2.23779,16.6375 2.23779,16.6655 L2.27979,16.6655 L2.32178,16.6655 C2.34977,16.6375 2.37777,16.6375 2.40576,16.6655 L2.40576,16.7075 L2.55273,16.7075 C2.55273,16.7075 2.56673,16.6795 2.59473,16.6235 L2.67871,16.6235 L2.7627,16.6235 C2.7347,16.6235 2.7207,16.6375 2.7207,16.6655 C2.7207,16.6935 2.70671,16.7215 2.67871,16.7495 L2.80469,16.7495 C2.77669,16.7215 2.7487,16.7075 2.7207,16.7075 L2.84668,16.6655 C2.87467,16.6935 2.88867,16.7215 2.88867,16.7495 C2.88867,16.7775 2.91667,16.7915 2.97266,16.7915 C2.97266,16.7635 3.00065,16.7495 3.05664,16.7495 C3.08464,16.7495 3.09863,16.7635 3.09863,16.7915 C3.88249,16.7915 4.43888,16.7985 4.76782,16.8125 C5.09676,16.8265 5.28223,16.8405 5.32422,16.8545 C5.36621,16.8685 5.30672,16.8755 5.14575,16.8755 C4.98478,16.8755 4.81331,16.8755 4.63135,16.8755 C4.44938,16.8755 4.27791,16.8615 4.11694,16.8335 C3.95597,16.8055 3.90348,16.7635 3.95947,16.7075 C3.93148,16.7355 3.91748,16.7635 3.91748,16.7915 L3.95947,16.7915 L3.95947,16.7495 C3.95947,16.7495 3.97347,16.7635 4.00146,16.7915 L4.00146,16.7075 C4.00146,16.7075 4.01546,16.7075 4.04346,16.7075 C4.07145,16.7355 4.08545,16.7635 4.08545,16.7915 M6.16406,11.3325 C6.06608,11.4165 5.9751,11.4865 5.89111,11.5425 C6.04508,11.4865 6.16406,11.4865 6.24805,11.5425 C6.22005,11.4865 6.20605,11.3745 6.20605,11.2065 C6.20605,11.2625 6.19206,11.3045 6.16406,11.3325 M5.63916,11.6265 C5.66715,11.6265 5.69515,11.6125 5.72314,11.5845 L5.68115,11.6265 L5.63916,11.6265 M5.55518,13.6421 C5.72314,13.5581 5.88761,13.4741 6.04858,13.3901 C6.20955,13.3062 6.36003,13.2362 6.5,13.1802 C6.44401,13.1242 6.44401,13.0542 6.5,12.9702 C6.30404,13.0262 6.14307,13.0122 6.01709,12.9282 C5.9891,12.9002 5.9751,12.8722 5.9751,12.8442 C5.9751,12.8162 5.9471,12.7813 5.89111,12.7393 L5.89111,12.8022 C5.83512,12.9422 5.78613,13.0822 5.74414,13.2222 C5.70215,13.3621 5.63916,13.5021 5.55518,13.6421 M6.62598,13.7051 C6.62598,13.6631 6.66797,13.6141 6.75195,13.5581 C6.69596,13.5581 6.65397,13.5441 6.62598,13.5161 C6.54199,13.4881 6.5,13.4041 6.5,13.2642 C6.44401,13.2922 6.38102,13.3201 6.31104,13.3481 C6.24105,13.3761 6.16406,13.4181 6.08008,13.4741 C6.16406,13.5021 6.34603,13.5791 6.62598,13.7051 M7.10889,12.0674 C6.98291,12.0954 6.87793,12.0954 6.79395,12.0674 C6.84993,12.1794 6.87793,12.2633 6.87793,12.3193 L6.98291,12.1934 L7.10889,12.0674 M7.61279,13.5161 C7.61279,13.3761 7.64079,13.2642 7.69678,13.1802 L7.5708,13.3481 L7.48682,13.4321 C7.54281,13.4881 7.5848,13.5161 7.61279,13.5161 M7.82275,11.0806 C7.86475,11.0106 7.89274,10.9476 7.90674,10.8916 C7.92074,10.8356 7.94173,10.7796 7.96973,10.7236 C7.84375,10.8356 7.72477,10.8916 7.61279,10.8916 C7.66878,10.9196 7.73877,10.9826 7.82275,11.0806 M-1.33154,5.09668 C-1.30355,5.0127 -1.28955,4.90072 -1.28955,4.76074 C-1.28955,5.0127 -1.29655,5.33813 -1.31055,5.73706 C-1.32454,6.13599 -1.48551,6.49642 -1.79346,6.81836 C-1.68148,6.52441 -1.59049,6.28646 -1.52051,6.10449 C-1.45052,5.92253 -1.38753,5.58659 -1.33154,5.09668 "/>
</g>

<g fill="#b75800" fill-opacity="1" stroke="none" transform="matrix(1,0,0,1,0,0)"
font-family="MS Shell Dlg 2" font-size="7.8" font-weight="400" font-style="normal" 
>
</g>
</g>
</svg>
