<?xml version="1.0" encoding="UTF-8" standalone="no"?>
<svg
   xmlns:dc="http://purl.org/dc/elements/1.1/"
   xmlns:cc="http://creativecommons.org/ns#"
   xmlns:rdf="http://www.w3.org/1999/02/22-rdf-syntax-ns#"
   xmlns:svg="http://www.w3.org/2000/svg"
   xmlns="http://www.w3.org/2000/svg"
   xmlns:sodipodi="http://sodipodi.sourceforge.net/DTD/sodipodi-0.dtd"
   xmlns:inkscape="http://www.inkscape.org/namespaces/inkscape"
   inkscape:version="1.0 (4035a4fb49, 2020-05-01)"
   sodipodi:docname="1718.svg"
   id="svg20"
   version="1.2"
   viewBox="0 0 42.519639 42.519639"
   height="14.999999mm"
   width="14.999999mm">
  <metadata
     id="metadata24">
    <rdf:RDF>
      <cc:Work
         rdf:about="">
        <dc:format>image/svg+xml</dc:format>
        <dc:type
           rdf:resource="http://purl.org/dc/dcmitype/StillImage" />
        <dc:title>Qt SVG Document</dc:title>
      </cc:Work>
    </rdf:RDF>
  </metadata>
  <sodipodi:namedview
     inkscape:current-layer="svg20"
     inkscape:window-maximized="0"
     inkscape:window-y="0"
     inkscape:window-x="0"
     inkscape:cy="28.346482"
     inkscape:cx="28.346482"
     inkscape:zoom="5.8410537"
     showgrid="false"
     id="namedview22"
     inkscape:window-height="480"
     inkscape:window-width="1034"
     inkscape:pageshadow="2"
     inkscape:pageopacity="0"
     guidetolerance="10"
     gridtolerance="10"
     objecttolerance="10"
     borderopacity="1"
     bordercolor="#666666"
     pagecolor="#ffffff" />
  <title
     id="title2">Qt SVG Document</title>
  <desc
     id="desc4">Generated with Qt</desc>
  <defs
     id="defs6" />
  <g
     transform="translate(5.25984,5.25984)"
     id="g18"
     stroke-linejoin="bevel"
     stroke-linecap="square"
     fill-rule="evenodd"
     stroke-width="1"
     stroke="#000000"
     fill="none">
    <g
       id="g10"
       font-style="normal"
       font-weight="400"
       font-size="7.8px"
       font-family="'MS Shell Dlg 2'"
       stroke="none"
       fill-opacity="1"
       fill="#b75800">
      <path
         id="path8"
         d="M 37.2598,16 C 37.2598,27.7415 27.7415,37.2598 16,37.2598 4.25851,37.2598 -5.25984,27.7415 -5.25984,16 -5.25984,4.25851 4.25851,-5.25984 16,-5.25984 27.7415,-5.25984 37.2598,4.25851 37.2598,16"
         fill-rule="evenodd"
         vector-effect="non-scaling-stroke" />
    </g>
    <g
       id="g14"
       font-style="normal"
       font-weight="400"
       font-size="7.8px"
       font-family="'MS Shell Dlg 2'"
       transform="translate(17.1339,12.0315)"
       stroke="none"
       fill-opacity="0.94902"
       fill="#ffffff">
      <path
         id="path12"
         d="m 7.23486,17.1694 c 0,0 -0.01399,0.035 -0.04199,0.105 -0.02799,0.028 -0.04199,0.028 -0.04199,0 v -0.063 l 0.08398,-0.042 m -0.08398,0.042 c -0.028,0.042 -0.05599,0.063 -0.08399,0.063 l 0.042,-0.105 0.04199,-0.042 v 0.084 m 0.12598,0.063 c 0.02799,-0.042 0.05599,-0.042 0.08398,0 0,0 -0.014,0 -0.04199,0 -0.028,0.028 -0.04199,0.028 -0.04199,0 m -0.042,0 h 0.042 v 0.084 H 7.19287 c 0,-0.028 0.014,-0.042 0.04199,-0.042 -0.02799,0 -0.04199,-0.007 -0.04199,-0.021 0,-0.014 -0.014,-0.021 -0.04199,-0.021 l 0.04199,0.042 v 0.084 H 7.15088 v -0.084 c -0.028,0 -0.028,-0.014 0,-0.042 H 7.06689 7.15088 7.23486 c -0.02799,0 -0.04199,-0.021 -0.04199,-0.063 l 0.08399,-0.042 -0.042,0.105 m -0.20996,0.042 c 0,0.028 -0.014,0.056 -0.04199,0.084 v -0.084 -0.042 c 0.02799,0 0.04199,0.014 0.04199,0.042 m 0.04199,0 c 0.028,-0.028 0.042,-0.014 0.042,0.042 v 0.042 h -0.042 c -0.02799,0 -0.04199,-0.014 -0.04199,-0.042 0,-0.028 0.014,-0.042 0.04199,-0.042 M 6.62598,16.2666 c -0.028,-0.028 -0.042,-0.056 -0.042,-0.084 0,0 -0.01399,-0.014 -0.04199,-0.042 0.028,0 0.04199,0.007 0.04199,0.021 0,0.014 0.014,0.021 0.042,0.021 v -0.042 0.042 h 0.16797 c 0.02799,0 0.05598,0.014 0.08398,0.042 -0.05599,0 -0.09798,-0.014 -0.12598,-0.042 v 0.042 c 0,0.028 -0.007,0.042 -0.02099,0.042 -0.014,0 -0.021,0.014 -0.021,0.042 v 0.042 c 0,0 -0.014,-0.028 -0.04199,-0.084 0.02799,-0.028 0.04199,-0.056 0.04199,-0.084 H 6.62598 6.66797 c 0,0.028 -0.014,0.056 -0.04199,0.084 v 0.042 -0.042 m -0.25196,1.0498 c 0.028,-0.028 0.12598,-0.077 0.29395,-0.147 -0.05599,0.028 -0.10498,0.0595 -0.14697,0.0945 -0.042,0.035 -0.09099,0.0525 -0.14698,0.0525 M 5.68115,15.4478 c -0.02799,-0.028 -0.04199,-0.063 -0.04199,-0.105 0,-0.042 -0.014,-0.077 -0.04199,-0.105 -0.028,-0.028 -0.04199,-0.056 -0.04199,-0.084 0.02799,-0.028 0.05599,-0.007 0.08398,0.063 0.02799,0.07 0.04199,0.147 0.04199,0.231 m 1.38574,1.7636 c -0.02799,0 -0.05599,0.021 -0.08398,0.063 0.05599,-0.07 0.06999,-0.105 0.04199,-0.105 0.028,0 0.04199,-0.014 0.04199,-0.042 v 0.084 m -0.48291,0.105 c 0,0.028 -0.01399,0.056 -0.04199,0.084 0,0 -0.014,-0.028 -0.04199,-0.084 0,-0.098 0.02799,-0.112 0.08398,-0.042 v 0.042 M 5.9751,16.4556 c 0.26595,-0.21 0.45491,-0.315 0.56689,-0.315 -0.08398,0 -0.27295,0.105 -0.56689,0.315 m -0.20996,-0.147 c 0,0.028 0.007,0.042 0.02099,0.042 0.014,0 0.021,0.021 0.021,0.063 v 0.042 0.042 c -0.028,0.028 -0.05599,0.028 -0.08399,0 v -0.084 H 5.68115 c -0.02799,-0.042 -0.02799,-0.077 0,-0.105 0,-0.028 0.028,-0.028 0.08399,0 m 1.0708,0.8608 c 0,0 0,-0.028 0,-0.084 0,-0.0279 0.01399,-0.0559 0.04199,-0.0839 v 0.042 0.0839 l -0.04199,0.042 m -0.16797,0.042 h 0.04199 c 0,0 0.014,0.021 0.04199,0.063 0,0.028 -0.01399,0.056 -0.04199,0.084 0,0 -0.014,-0.014 -0.04199,-0.042 v -0.105 m 0.08398,-0.084 -0.04199,0.042 v -0.084 c 0,-0.0279 0.014,-0.0559 0.04199,-0.0839 v 0.1259 m 0.042,-0.9868 c 0,0 -0.028,0 -0.08399,0 0,0 0.014,-0.014 0.04199,-0.042 0.028,0 0.04899,-0.007 0.06299,-0.021 0.014,-0.014 0.03499,-0.021 0.06299,-0.021 h 0.04199 l -0.04199,0.042 c -0.028,0 -0.04199,0.007 -0.04199,0.021 0,0.014 -0.014,0.021 -0.04199,0.021 M 5.84912,15.7207 c -0.02799,0.028 -0.05599,0.028 -0.08398,0 h -0.042 c 0,-0.056 0.028,-0.098 0.08399,-0.126 h 0.08398 c 0.028,0 0.05599,-0.014 0.08399,-0.042 -0.028,0.028 -0.04199,0.056 -0.04199,0.084 -0.05599,0.056 -0.08399,0.084 -0.08399,0.084 m 0.77686,1.4907 c 0,0 0.01399,0.035 0.04199,0.105 -0.028,0 -0.04199,0.014 -0.04199,0.042 0,0 0,-0.014 0,-0.042 v -0.105 m 0.20996,0.063 c 0,0.028 -0.007,0.042 -0.021,0.042 -0.014,0 -0.02099,0.014 -0.02099,0.042 l -0.042,0.042 v -0.126 c 0,-0.042 0.028,-0.063 0.08399,-0.063 v 0.063 M 5.93311,16.5396 c 0.02799,-0.028 0.07698,-0.028 0.14697,0 0,0.0279 -0.0105,0.0489 -0.0315,0.0629 -0.02099,0.014 -0.03149,0.035 -0.03149,0.063 v 0.042 L 5.9751,16.6655 c -0.028,0 -0.04199,-0.014 -0.04199,-0.042 v -0.0839 m 0.90283,-0.315 c 0,0 0.01399,0.014 0.04199,0.042 0,0.028 -0.007,0.042 -0.021,0.042 -0.01399,0 -0.02099,0.014 -0.02099,0.042 l -0.04199,0.063 c 0,0 0,-0.035 0,-0.105 0,-0.028 0.01399,-0.056 0.04199,-0.084 m -0.12598,-0.21 c 0.028,0 0.04199,-0.0139 0.04199,-0.0419 v 0.0419 c 0,0.028 -0.007,0.042 -0.02099,0.042 -0.014,0 -0.021,0.014 -0.021,0.042 -0.05599,0.056 -0.08398,0.056 -0.08398,0 0,0 0,-0.028 0,-0.084 h 0.08398 m 0.31494,1.1128 c 0,0.028 -0.014,0.042 -0.04199,0.042 0,0.028 -0.021,0.042 -0.06299,0.042 -0.02799,-0.028 -0.02799,-0.056 0,-0.084 0.04199,0 0.07699,-0.014 0.10498,-0.042 v 0.042 M 6.87793,16.1826 c 0,0.028 -0.014,0.028 -0.04199,0 0,0 0.01399,-0.014 0.04199,-0.042 0,0 0.03499,0.014 0.10498,0.042 H 7.0249 6.87793 m 0.10498,0.084 c 0.02799,0 0.04199,0.014 0.04199,0.042 H 6.98291 c -0.04199,0 -0.06299,0 -0.06299,0 -0.02799,-0.028 -0.04199,-0.056 -0.04199,-0.084 0,0 0.03499,0.014 0.10498,0.042 m -0.10498,1.0918 c 0,0 -0.014,-0.014 -0.04199,-0.042 l 0.04199,-0.105 c 0,0 0.014,0.035 0.04199,0.105 l -0.04199,0.042 M 5.93311,16.4556 c -0.028,0.028 -0.05599,0.028 -0.08399,0 0,0 0,-0.049 0,-0.147 v -0.042 l 0.08399,0.042 v 0.147 m -0.37793,-0.357 c 0.02799,0.056 0.04199,0.084 0.04199,0.084 0.02799,0 0.03499,0.007 0.02099,0.021 -0.01399,0.014 -0.03499,0.021 -0.06298,0.021 -0.028,0 -0.05599,-0.014 -0.08399,-0.042 -0.02799,0 -0.04199,-0.014 -0.04199,-0.042 h 0.04199 c 0.028,0 0.04199,-0.007 0.04199,-0.021 0,-0.014 0.014,-0.021 0.042,-0.021 m 0.25195,0.042 c 0,0 0.02799,0.014 0.08398,0.042 l 0.042,0.042 c 0,0.028 -0.014,0.042 -0.042,0.042 H 5.76514 c -0.028,0 -0.05599,-0.014 -0.08399,-0.042 v -0.042 c 0.028,-0.028 0.06999,-0.042 0.12598,-0.042 M 6.5,16.0566 c 0,0 0.014,-0.028 0.04199,-0.0839 0,-0.028 0.014,-0.042 0.04199,-0.042 v 0.042 0.0839 c -0.02799,0.028 -0.04199,0.056 -0.04199,0.084 H 6.5 c -0.05599,0 -0.05599,-0.028 0,-0.084 m -0.41992,0.294 c -0.06999,0 -0.10498,-0.014 -0.10498,-0.042 0,0 0,-0.028 0,-0.084 v -0.042 h 0.04199 c 0,0 0.021,0.028 0.06299,0.084 0.02799,0.028 0.02799,0.056 0,0.084 M 5.80713,15.9307 c 0.02799,0.028 0.06999,0.042 0.12598,0.042 H 5.9751 c 0,0.028 -0.05599,0.0699 -0.16797,0.1259 -0.028,0 -0.05599,-0.014 -0.08399,-0.042 v -0.042 -0.0419 c 0,0 0.028,-0.014 0.08399,-0.042 m -0.08399,-0.042 c 0,-0.028 0.042,-0.07 0.12598,-0.126 H 5.9751 c -0.028,0.028 -0.04199,0.056 -0.04199,0.084 -0.028,0.028 -0.05599,0.042 -0.08399,0.042 H 5.72314 M 5.68115,15.0278 v 0.126 c 0,0.028 -0.014,0.042 -0.04199,0.042 H 5.59717 v -0.084 l 0.08398,-0.084 m 0.12598,0.294 c -0.08399,0.084 -0.12598,0.112 -0.12598,0.084 0,0 0.014,-0.028 0.04199,-0.084 0,0 0.028,-0.014 0.08399,-0.042 0.02799,0 0.04199,-0.014 0.04199,-0.042 l -0.04199,0.084 m 0,0.2309 c -0.028,0.028 -0.05599,0.028 -0.08399,0 v -0.042 c 0,0 0.014,-0.035 0.042,-0.1049 0,0 0.02799,-0.014 0.08398,-0.042 h 0.04199 l -0.08398,0.1889 m 0.48291,0.5879 c 0,-0.056 0.014,-0.098 0.04199,-0.126 0,-0.0279 0.014,-0.0419 0.04199,-0.0419 v 0.0419 c 0,0.028 0.007,0.042 0.021,0.042 0.014,0 0.021,0.014 0.021,0.042 -0.028,0.028 -0.042,0.056 -0.042,0.084 -0.05599,0 -0.08398,-0.014 -0.08398,-0.042 m -0.16797,-0.084 c 0,0.028 0.014,0.042 0.04199,0.042 0.05599,0.056 0.08399,0.084 0.08399,0.084 0,0.028 -0.014,0.056 -0.042,0.084 0,0.056 -0.02799,0.028 -0.08398,-0.084 v -0.126 M 5.72314,15.2378 c 0,0.028 -0.01399,0.042 -0.04199,0.042 0,0 0,-0.028 0,-0.084 0,0 0.014,-0.014 0.04199,-0.042 l 0.042,-0.042 v 0.042 c 0,0.028 -0.007,0.042 -0.021,0.042 -0.014,0 -0.021,0.014 -0.021,0.042 M 5.4292,15.1958 c 0,-0.028 0.014,-0.042 0.04199,-0.042 h 0.08399 c 0.02799,0 0.04199,0.028 0.04199,0.084 0,0 -0.028,-0.014 -0.08399,-0.042 H 5.4292 m 1.19678,1.8896 v 0.084 l -0.042,-0.042 v -0.0839 l 0.042,0.0419 m -1.0708,-2.0576 c 0.05599,0.056 0.05599,0.084 0,0.084 l -0.08399,-0.042 v -0.084 l 0.08399,0.042 m 0.90283,1.3858 c 0,0 -0.028,-0.021 -0.08399,-0.063 0,0 0,-0.028 0,-0.084 v -0.042 c 0,0 0.028,0.014 0.08399,0.042 v 0.147 m 0.08398,-0.189 c 0.028,0.028 0.035,0.056 0.021,0.084 -0.014,0.028 -0.007,0.042 0.02099,0.042 L 6.54199,16.3086 C 6.514,16.3086 6.5,16.2946 6.5,16.2666 c -0.02799,-0.028 -0.02799,-0.056 0,-0.084 l 0.04199,0.042 m -0.41992,0.189 c 0,0 0.028,0.014 0.08398,0.042 v 0.084 0.0419 H 6.16406 c -0.05599,0 -0.08398,-0.014 -0.08398,-0.0419 v -0.126 h 0.04199 m 0.33594,0.7138 c 0,0 0.014,0.014 0.04199,0.042 0.05599,0.028 0.06999,0.042 0.04199,0.042 L 6.5,17.1694 c -0.02799,0 -0.04199,-0.014 -0.04199,-0.042 M 6.33203,16.4976 c -0.05599,0 -0.08398,-0.014 -0.08398,-0.042 -0.028,-0.028 -0.042,-0.063 -0.042,-0.105 v -0.042 c 0.05599,0 0.09799,0.014 0.12598,0.042 0,0.042 0.007,0.063 0.021,0.063 0.01399,0 0.02099,0.014 0.02099,0.042 v 0.042 H 6.33203 M 5.59717,15.9307 c 0.02799,0.028 0.05599,0.042 0.08398,0.042 v 0.0419 c -0.02799,0.028 -0.04899,0.042 -0.06299,0.042 -0.01399,0 -0.03499,0.014 -0.06298,0.042 -0.028,0 -0.05599,-0.014 -0.08399,-0.042 -0.02799,0 -0.04199,-0.014 -0.04199,-0.042 0,-0.0279 0.014,-0.0419 0.04199,-0.0419 0.028,0 0.06999,-0.014 0.12598,-0.042 m 0.08398,-0.168 H 5.59717 c -0.028,0 -0.05599,-0.014 -0.08399,-0.042 -0.02799,0 -0.04199,-0.014 -0.04199,-0.042 h 0.04199 0.08399 c 0.05599,0 0.08398,0.014 0.08398,0.042 v 0.042 m -0.16797,0.084 c 0.028,0 0.042,-0.007 0.042,-0.021 0,-0.014 0.01399,-0.021 0.04199,-0.021 0.02799,0 0.05599,0.014 0.08398,0.042 0,0.056 -0.02799,0.07 -0.08398,0.042 H 5.51318 c -0.02799,0 -0.04199,-0.014 -0.04199,-0.042 H 5.51318 M 5.4292,16.3086 c 0,0 0.02799,-0.014 0.08398,-0.042 0.05599,0 0.08399,0.014 0.08399,0.042 v 0.042 H 5.51318 5.38721 l 0.04199,-0.042 m 0.16797,-0.7979 c 0.02799,0 0.05599,0.014 0.08398,0.042 0,0.028 -0.02799,0.042 -0.08398,0.042 H 5.51318 c -0.02799,0 -0.04199,-0.014 -0.04199,-0.042 h 0.04199 c 0.028,0 0.042,-0.007 0.042,-0.021 0,-0.014 0.01399,-0.021 0.04199,-0.021 m 0,-0.1469 c 0.02799,0 0.04199,0.014 0.04199,0.042 0.02799,0.028 0,0.042 -0.08398,0.042 -0.028,0 -0.05599,-0.014 -0.08399,-0.042 h 0.04199 c 0.028,0 0.042,-0.007 0.042,-0.021 0,-0.014 0.01399,-0.021 0.04199,-0.021 m -0.04199,-0.126 0.04199,0.042 c 0,0.056 -0.007,0.084 -0.021,0.084 -0.014,0 -0.02099,-0.014 -0.02099,-0.042 H 5.47119 v -0.042 l 0.08399,-0.042 m -1.23877,1.0708 c 0,0 0.01399,0.035 0.04199,0.105 v 0.042 l -0.04199,-0.042 v -0.105 m -0.042,0.105 v -0.105 l 0.042,0.105 c 0,0.028 -0.014,0.056 -0.042,0.084 v -0.084 m 0.20997,-0.147 c 0,0 -0.014,0.014 -0.042,0.042 0.028,0.028 0.028,0.042 0,0.042 v -0.042 c 0,-0.028 0.014,-0.042 0.042,-0.042 m -0.12598,0.189 c -0.028,0 -0.04199,0.007 -0.04199,0.021 0,0.014 -0.014,0.021 -0.042,0.021 0.028,0 0.042,-0.007 0.042,-0.021 0,-0.014 0.01399,-0.021 0.04199,-0.021 0,0 0.014,-0.014 0.04199,-0.042 L 4.3584,16.3506 v -0.084 c 0,0 0.014,0.028 0.04199,0.084 v 0.063 c 0,-0.042 0.014,-0.063 0.04199,-0.063 0.028,0 0.042,0.021 0.042,0.063 0,0 -0.014,0.014 -0.042,0.042 -0.02799,0 -0.04199,-0.014 -0.04199,-0.042 l -0.04199,0.042 h 0.04199 c 0.028,0 0.05599,0.014 0.08399,0.042 h -0.042 c -0.05599,0 -0.08398,0 -0.08398,0 v -0.042 m -0.04199,0.2099 c 0,0 -0.014,-0.014 -0.042,-0.042 -0.04199,-0.028 -0.06298,-0.056 -0.06298,-0.0839 l 0.06298,0.0419 0.042,0.042 v 0.042 m 0,-0.1259 c 0,-0.028 0.01399,-0.028 0.04199,0 0.02799,0 0.04199,0.0139 0.04199,0.0419 0,0 -0.02799,0 -0.08398,0 -0.028,-0.028 -0.028,-0.0419 0,-0.0419 M 3.30859,16.0986 C 3.2806,16.0706 3.2666,16.0426 3.2666,16.0146 c -0.02799,0 -0.05599,0.014 -0.08398,0.042 h 0.04199 c 0.02799,0.028 0.05599,0.042 0.08398,0.042 v 0.042 H 3.22461 c -0.028,0 -0.04199,-0.028 -0.04199,-0.084 l -0.04199,0.042 c 0,-0.028 0.01399,-0.042 0.04199,-0.042 H 3.14063 3.18262 C 3.2666,15.9727 3.30859,15.9307 3.30859,15.9307 h 0.10498 l -0.06298,0.042 H 3.2666 c 0.028,0 0.04199,0.014 0.04199,0.0419 l 0.042,0.042 v 0.042 h -0.042 m -1.28076,0.126 c -0.08398,0 -0.15397,-0.028 -0.20996,-0.084 -0.02799,-0.028 -0.05599,-0.042 -0.08398,-0.042 0.02799,0.028 0.05599,0.042 0.08398,0.042 0.028,0.028 0.05599,0.042 0.08399,0.042 0.02799,0 0.06998,0.014 0.12597,0.042 m 2.1836,0.315 c 0,-0.028 -0.007,-0.042 -0.021,-0.042 -0.014,0 -0.021,-0.014 -0.021,-0.042 l 0.042,-0.042 v 0.042 0.084 m -1.0708,-0.441 c -0.05599,0.028 -0.09099,0.1015 -0.10499,0.2205 -0.01399,0.119 -0.03499,0.2484 -0.06298,0.3884 0,-0.14 0.01399,-0.2694 0.04199,-0.3884 0.02799,-0.119 0.06999,-0.1925 0.12598,-0.2205 m 0.90283,0.4829 c 0,0 -0.014,0 -0.042,0 0,0 0,-0.028 0,-0.0839 v -0.042 c 0,0 0.014,0.028 0.042,0.084 0.02799,0.0279 0.02799,0.0419 0,0.0419 m -0.12598,0.084 c -0.02799,0 -0.04199,-0.028 -0.04199,-0.084 v -0.0419 l 0.08398,0.0839 v 0.042 H 3.91748 M 3.2666,15.8887 c 0,0.056 -0.014,0.084 -0.04199,0.084 0,0 0,-0.028 0,-0.084 0,-0.028 0.014,-0.056 0.04199,-0.084 l 0.04199,-0.042 v 0.042 c 0,0.028 -0.01399,0.056 -0.04199,0.084 m -0.98681,0.2099 v 0.084 c 0,0.028 0.00699,0.049 0.02099,0.063 0.014,0.014 0.021,0.035 0.021,0.063 l -0.08399,0.105 C 2.1818,16.3436 2.16781,16.2946 2.1958,16.2666 l 0.08399,-0.168 m 1.80566,0.6089 c 0,0 0,-0.028 0,-0.084 0,0 0.014,0.014 0.04199,0.042 v 0.084 c 0,0.028 0.014,0.042 0.04199,0.042 L 4.08545,16.7075 M 3.35059,15.9727 c 0,0 0.03499,-0.014 0.10498,-0.042 0,0.028 0.007,0.042 0.02099,0.042 0.014,0 0.021,0.014 0.021,0.0419 v 0.042 H 3.45557 c -0.028,0 -0.042,-0.014 -0.042,-0.042 L 3.35059,15.9727 m -0.25196,0.0419 v -0.0839 -0.084 c 0,-0.028 0.014,-0.042 0.042,-0.042 v 0.042 c 0,0.028 0.00699,0.042 0.02099,0.042 0.014,0 0.021,0.014 0.021,0.042 0,0.028 -0.014,0.056 -0.04199,0.0839 h -0.042 m 1.0708,0.483 c 0,0.028 -0.01399,0.042 -0.04199,0.042 -0.02799,0 -0.04199,-0.014 -0.04199,-0.042 l 0.04199,-0.084 c 0,0 0.014,0.028 0.04199,0.084 M 3.41357,15.8887 c 0,0.028 -0.02099,0.042 -0.06298,0.042 -0.05599,0 -0.05599,-0.028 0,-0.084 0,0 0.02099,-0.014 0.06298,-0.042 h 0.042 l -0.042,0.084 m 0.08399,-0.042 c 0.02799,0 0.05599,0.014 0.08398,0.042 0,0 -0.02799,0.014 -0.08398,0.042 -0.028,0 -0.04199,-0.014 -0.04199,-0.042 l 0.04199,-0.042 m 0.62988,0.7348 c 0,0 0.028,0.014 0.08399,0.042 v 0.084 c 0,0 -0.028,-0.014 -0.08399,-0.042 v -0.084 M 3.01465,16.1406 v -0.084 c -0.028,0 -0.04199,-0.028 -0.04199,-0.0839 v -0.042 h 0.04199 c 0,0 0.014,0.028 0.04199,0.0839 v 0.084 0.042 H 3.01465 m -0.20996,0.399 h 0.08398 c 0.028,0 0.04199,0.0139 0.04199,0.0419 0,0.084 -0.02799,0.098 -0.08398,0.042 -0.028,0 -0.04199,-0.014 -0.04199,-0.042 L 2.7627,16.5396 h 0.04199 m -0.35694,-0.042 0.18897,-0.084 c -0.028,0 -0.04199,0.014 -0.04199,0.042 v 0.1259 c -0.028,0.028 -0.05599,0.042 -0.08399,0.042 H 2.44775 v -0.1259 m -0.12597,-0.189 c 0,0 0.02799,-0.014 0.08398,-0.042 0.028,0 0.04199,-0.014 0.04199,-0.042 v 0.084 0.105 c -0.02799,0.028 -0.04199,0.056 -0.04199,0.084 H 2.36377 c -0.028,-0.028 -0.04199,-0.091 -0.04199,-0.189 m -0.58789,-0.21 -0.042,-0.1259 0.08399,0.0839 c 0.02799,0 0.02799,0.014 0,0.042 H 1.73389 m 0.29394,0 c 0,0.084 -0.014,0.126 -0.04199,0.126 0,0 -0.014,-0.028 -0.04199,-0.084 v -0.126 c 0,-0.0279 0.014,-0.0419 0.04199,-0.0419 v 0.0419 c 0,0.028 0.014,0.056 0.04199,0.084 m 0.12598,0.084 c 0,0.056 -0.014,0.084 -0.04199,0.084 0,0 -0.014,-0.028 -0.042,-0.084 0,0 0,-0.028 0,-0.084 l 0.042,-0.042 v 0.042 c 0,0.028 0.007,0.042 0.02099,0.042 0.014,0 0.021,0.014 0.021,0.042 m 0.86084,0.084 c -0.028,0.028 -0.05599,0.028 -0.08399,0 -0.02799,-0.028 -0.04199,-0.056 -0.04199,-0.084 v -0.042 c 0,0 0.028,0 0.08399,0 0,0.028 0.01399,0.056 0.04199,0.084 v 0.042 m -0.12598,0.189 c -0.05599,0 -0.08398,-0.035 -0.08398,-0.105 L 2.7627,16.3086 h 0.04199 c 0.05599,0 0.09798,0.014 0.12597,0.042 0.028,0.042 0.042,0.077 0.042,0.105 0,0 -0.028,0 -0.08399,0 m -1.02881,-0.315 c 0,0 -0.01399,-0.028 -0.04199,-0.084 v -0.0839 h 0.04199 c 0,0 0.014,0.028 0.042,0.0839 v 0.084 h -0.042 m -0.08398,0 c 0,0 -0.014,0.014 -0.04199,0.042 -0.028,0.028 -0.05599,0.042 -0.08399,0.042 v -0.042 c 0,0 0.028,-0.014 0.08399,-0.042 0,-0.028 0.01399,-0.028 0.04199,0 m 2.05762,0.6509 c 0,-0.028 -0.014,-0.056 -0.042,-0.084 h 0.042 0.04199 c 0.02799,0 0.04199,0.014 0.04199,0.042 L 3.8335,16.7915 M 1.69189,16.0986 c 0,0.028 -0.02799,0.042 -0.08398,0.042 L 1.54492,16.0566 H 1.6499 c 0.028,0 0.04899,0.007 0.06299,0.021 0.014,0.014 0.007,0.021 -0.021,0.021 m 1.53272,0.21 c 0,0 -0.028,0.014 -0.08398,0.042 H 3.05664 v -0.042 l 0.04199,-0.042 c 0.028,0 0.042,0.007 0.042,0.021 0,0.014 0.01399,0.021 0.04199,0.021 h 0.04199 m 0.04199,-0.084 c 0,0 -0.02799,-0.014 -0.08398,-0.042 -0.028,0.028 -0.05599,0.028 -0.08399,0 0,-0.028 0.028,-0.042 0.08399,-0.042 l 0.08398,0.084 m -0.12597,0.3989 c 0,0.028 0.01399,0.042 0.04199,0.042 l -0.04199,0.042 c -0.05599,0 -0.08399,0 -0.08399,0 -0.02799,0 -0.04199,-0.014 -0.04199,-0.042 l -0.04199,-0.042 h 0.04199 c 0,0 0.02799,-0.014 0.08398,-0.042 l 0.042,0.042 M 3.01465,16.4556 c 0,-0.028 0.02799,-0.042 0.08398,-0.042 0.028,0 0.042,0.007 0.042,0.021 0,0.014 0.01399,0.021 0.04199,0.021 0,0.028 0.01399,0.042 0.04199,0.042 l -0.04199,0.042 H 3.09863 l -0.08398,-0.084 m -0.90283,0 c 0.05599,-0.07 0.08398,-0.07 0.08398,0 0,0 -0.014,0.028 -0.04199,0.084 -0.028,0.0279 -0.05599,0.0419 -0.08399,0.0419 H 2.02783 c 0.028,0 0.04199,-0.014 0.04199,-0.0419 0,-0.028 0.014,-0.056 0.042,-0.084 m -0.042,-0.147 c 0.028,0 0.014,0.035 -0.04199,0.105 -0.02799,0.028 -0.05599,0.042 -0.08398,0.042 v -0.042 c 0,-0.042 0.014,-0.077 0.04199,-0.105 0.02799,-0.028 0.05599,-0.028 0.08398,0 m -0.12597,0 -0.08399,0.105 v -0.063 c 0,-0.028 0.014,-0.056 0.042,-0.084 0.02799,-0.028 0.05599,-0.028 0.08398,0 l -0.04199,0.042 m -0.08399,-0.126 c 0.05599,0.056 0.042,0.084 -0.04199,0.084 0,0.028 -0.014,0.028 -0.04199,0 H 1.73389 l 0.04199,-0.084 H 1.85986 M 4.40039,8.18311 4.3584,8.14111 h 0.04199 l 0.04199,0.042 H 4.40039 M 4.9043,7.07031 c 0,-0.05599 0.02799,-0.08398 0.08398,-0.08398 0,0 -0.014,-0.014 -0.04199,-0.04199 0.02799,0.02799 0.04199,0.04199 0.04199,0.04199 V 7.02832 C 5.04427,7.1403 5.07227,7.19629 5.07227,7.19629 v 0.04199 c -0.028,0 -0.042,-0.02799 -0.042,-0.08398 H 4.98828 C 4.96029,7.18229 4.93229,7.19629 4.9043,7.19629 h -0.042 c 0,0 0.014,-0.028 0.042,-0.08399 H 5.03027 C 5.00228,7.08431 4.98828,7.05632 4.98828,7.02832 V 7.07031 C 4.96029,7.09831 4.93229,7.1123 4.9043,7.1123 h -0.042 c 0,0 0.014,-0.01399 0.042,-0.04199 M 5.34521,5.55859 c 0.028,0.028 -0.04899,0.13298 -0.23095,0.31495 0.04199,-0.028 0.06998,-0.06299 0.08398,-0.10499 0.014,-0.04199 0.035,-0.07698 0.06299,-0.10498 L 5.34521,5.55859 M 5.11426,7.1123 c 0.04199,0.028 0.07698,0.042 0.10498,0.042 L 5.26123,7.19629 H 5.21924 c -0.06999,0 -0.10498,-0.014 -0.10498,-0.04199 -0.08399,0 -0.09798,-0.028 -0.04199,-0.08399 0,0 0.01399,0.014 0.04199,0.04199 M 4.98828,6.12549 c -0.02799,0 -0.05599,-0.014 -0.08398,-0.04199 v -0.042 c 0.02799,0 0.04199,-0.00699 0.04199,-0.02099 0,-0.014 0.014,-0.021 0.04199,-0.021 H 5.03027 C 5.08626,6.0555 5.13525,6.0835 5.17725,6.0835 L 5.21924,6.12549 H 5.11426 c -0.08399,0 -0.12598,0 -0.12598,0 m 0.04199,1.0708 c 0,0 0,0.02799 0,0.08398 0,0 -0.02799,0 -0.08398,0 H 4.9043 c 0,0 0.01399,-0.01399 0.04199,-0.04199 C 4.97428,7.21029 5.00228,7.19629 5.03027,7.19629 M 5.11426,7.07031 C 5.05827,7.04232 5.03027,7.01432 5.03027,6.98633 c 0,0 0.028,-0.014 0.08399,-0.04199 l 0.10498,0.08398 c 0,0 -0.035,0.014 -0.10498,0.04199 m 0,0.16797 H 5.07227 c 0,-0.05599 0.03499,-0.05599 0.10498,0 V 7.32227 L 5.11426,7.23828 M 5.07227,7.36426 c 0,0.04199 -0.014,0.06299 -0.042,0.06299 0,0 -0.01399,-0.035 -0.04199,-0.10498 0.028,-0.028 0.05599,-0.042 0.08399,-0.042 V 7.36426 M 5.11426,6.90234 c -0.05599,0 -0.08399,0 -0.08399,0 -0.02799,0.028 -0.05599,0.028 -0.08398,0 0,-0.05599 0.02799,-0.06998 0.08398,-0.04199 H 5.11426 5.17725 L 5.11426,6.90234 M 4.69434,6.16748 c 0,0 0.02799,0.014 0.08398,0.04199 0,0.028 0.007,0.04899 0.021,0.06299 0.01399,0.014 0.02099,0.03499 0.02099,0.06299 v 0.04199 c 0,0 -0.05599,-0.02799 -0.16797,-0.08398 0,0 0,-0.028 0,-0.08399 V 6.16748 h 0.042 M 4.77832,6.12549 c 0.028,-0.028 0.08398,-0.028 0.16797,0 0,0.02799 0.007,0.04199 0.021,0.04199 0.01399,0 0.02099,0.014 0.02099,0.04199 V 6.25146 H 4.94629 C 4.8903,6.25146 4.8623,6.23747 4.8623,6.20947 L 4.77832,6.12549 M 5.47119,5.60059 5.38721,5.66357 c -0.028,0.028 -0.05599,0.028 -0.08399,0 0,0 0.028,-0.02099 0.08399,-0.06298 H 5.47119 M 5.26123,5.83154 c 0.028,0 0.04199,0.007 0.04199,0.021 0,0.014 0.014,0.021 0.04199,0.021 h 0.042 -0.042 c -0.05598,0 -0.08398,0 -0.08398,0 -0.05599,0 -0.08398,-0.014 -0.08398,-0.042 0,0 0.02799,0 0.08398,0 M 5.11426,5.99951 c -0.028,0 -0.04199,-0.02799 -0.04199,-0.08398 h 0.14697 l 0.04199,0.04199 c 0,0.02799 0.014,0.04199 0.04199,0.04199 H 5.11426 M 4.98828,6.73438 c 0,0.02799 -0.014,0.04199 -0.04199,0.04199 C 4.91829,6.80436 4.8903,6.81836 4.8623,6.81836 H 4.82031 C 4.79232,6.79036 4.80632,6.74837 4.8623,6.69238 h 0.08399 0.04199 v 0.042 M 4.82031,6.6084 c 0,0.05599 -0.01399,0.08398 -0.04199,0.08398 -0.02799,0.028 -0.05599,0.042 -0.08398,0.042 -0.028,-0.028 -0.028,-0.06999 0,-0.12598 0,0 0.02799,-0.014 0.08398,-0.04199 0.028,0 0.04199,-0.014 0.04199,-0.042 V 6.6084 m 0.5249,-0.90283 c 0,0 0.028,0.01399 0.08399,0.04199 H 5.47119 L 5.4292,5.78955 H 5.34521 c -0.02799,0 -0.05598,-0.014 -0.08398,-0.04199 0,0 0.028,-0.014 0.08398,-0.04199 M 5.26123,5.66357 V 5.55859 C 5.23324,5.5306 5.21924,5.5026 5.21924,5.47461 c 0,0.02799 0.014,0.04199 0.04199,0.04199 l 0.04199,0.04199 c 0.028,0.028 0.028,0.06299 0,0.10498 H 5.26123 M 5.4292,5.5166 c 0,0.028 -0.007,0.04899 -0.021,0.06299 -0.01399,0.014 -0.02099,0.007 -0.02099,-0.021 -0.028,0 -0.042,-0.02799 -0.042,-0.08398 0,0 0.014,-0.014 0.042,-0.04199 H 5.4292 V 5.5166 M 4.69434,6.90234 c 0,-0.02799 0.01399,-0.05599 0.04199,-0.08398 h 0.04199 c 0,0 0.014,0.02799 0.04199,0.08398 L 4.73633,6.98633 c 0,0 -0.014,-0.028 -0.04199,-0.08399 M 4.9043,6.98633 C 4.82031,7.07031 4.77832,7.09831 4.77832,7.07031 V 7.02832 c 0,0 0.014,-0.014 0.04199,-0.04199 0,-0.028 0.014,-0.05599 0.04199,-0.08399 h 0.042 V 6.98633 M 4.56836,6.90234 c 0,0 0,-0.02799 0,-0.08398 L 4.65234,6.73438 c 0.028,0.02799 0.04899,0.04199 0.06299,0.04199 0.014,0 -0.007,0.02799 -0.06299,0.08398 0,0.028 -0.01399,0.04199 -0.04199,0.04199 -0.02799,0 -0.04199,0.014 -0.04199,0.042 v -0.042 m 0.46191,-1.0288 c 0,0.02799 -0.02799,0.01399 -0.08398,-0.042 V 5.74756 h 0.04199 c 0,0 0.014,0.02799 0.04199,0.08398 0.028,0.028 0.028,0.042 0,0.042 m 0.042,-0.12598 c -0.028,-0.028 -0.042,-0.05599 -0.042,-0.08399 0,0.028 0.014,0.042 0.042,0.042 l 0.04199,0.04199 c 0.04199,0.02799 0.04199,0.04199 0,0.04199 0,0.028 -0.007,0.03499 -0.021,0.021 -0.014,-0.014 -0.02099,-0.035 -0.02099,-0.06299 M 5.21924,5.70557 c -0.028,0.02799 -0.04199,0.01399 -0.04199,-0.042 -0.042,-0.04199 -0.042,-0.07698 0,-0.10498 l 0.08398,0.10498 c 0,0.028 -0.014,0.042 -0.04199,0.042 M 0.873047,-8.36182 H 0.831055 c 0.027994,0.028 0.013997,0.05599 -0.041992,0.08399 0,0.02799 -0.013998,0.04199 -0.041993,0.04199 v -0.04199 c 0,0 0.013998,-0.028 0.041993,-0.08399 H 0.831055 C 0.80306,-8.38981 0.775065,-8.40381 0.74707,-8.40381 v 0.12598 c -0.027994,0.02799 -0.062988,0.04199 -0.10498,0.04199 v -0.12598 c 0,-0.02799 0.020996,-0.04199 0.062988,-0.04199 H 0.558105 0.64209 c 0.069987,0 0.132975,0.014 0.188965,0.04199 H 0.873047 M 2.06982,-8.84473 C 2.04183,-8.78874 1.99984,-8.72575 1.94385,-8.65576 1.99984,-8.75374 2.05583,-8.83073 2.11182,-8.88672 2.16781,-8.94271 2.1958,-8.95671 2.1958,-8.92871 l -0.04199,0.04199 c -0.028,0 -0.04199,0.007 -0.04199,0.021 0,0.01399 -0.014,0.02099 -0.042,0.02099 h 0.08399 l 0.08398,0.08399 c 0,0 -0.02799,0 -0.08398,0 -0.05599,0.06998 -0.08399,0.05599 -0.08399,-0.04199 v -0.042 M 0.74707,-8.4458 c -0.027994,0.02799 -0.062988,0.014 -0.10498,-0.04199 -0.027995,0 -0.041992,-0.014 -0.041992,-0.042 V -8.57178 H 0.64209 l 0.10498,0.08399 c 0.027995,0 0.027995,0.01399 0,0.04199 m 1.0708,0 c 0,0 -0.02799,-0.014 -0.08398,-0.04199 -0.028,-0.028 -0.042,-0.06999 -0.042,-0.12598 0,-0.02799 -0.01399,-0.05599 -0.04199,-0.08398 0,0.02799 0.014,0.04199 0.04199,0.04199 0.028,0.02799 0.049,0.04199 0.06299,0.04199 0.014,0 0.035,0.014 0.06299,0.04199 0,0 0,0.04199 0,0.12598 m -1.259765,0.16797 c 0,-0.05599 0,-0.08399 0,-0.08399 0,-0.02799 0.013998,-0.04199 0.041993,-0.04199 v 0.08399 c 0,0.02799 -0.013998,0.05599 -0.041993,0.08398 V -8.27783 M 0.873047,-8.4458 c -0.05599,0.05599 -0.083984,0.04199 -0.083984,-0.04199 0,0 0,-0.028 0,-0.08399 v -0.04199 l 0.083984,0.08398 v 0.08399 m -0.272949,0 c 0,0 -0.013998,0 -0.041993,0 L 0.474121,-8.48779 c 0,0 0.027995,0 0.083984,0 0.027995,0 0.048991,0.007 0.062989,0.02099 0.013997,0.014 0.006998,0.021 -0.020996,0.021 m -0.083985,0.04199 c 0.027995,0.028 0.013998,0.04199 -0.041992,0.04199 -0.027995,0.028 -0.055989,0.028 -0.083984,0 0,0 0.027995,-0.01399 0.083984,-0.04199 0.027995,-0.02799 0.041992,-0.02799 0.041992,0 m 0.48291,-0.04199 c 0.027997,0.02799 0.013997,0.06999 -0.041992,0.12598 -0.027995,0 -0.041992,-0.014 -0.041992,-0.042 V -8.4458 -8.52979 l 0.041992,-0.04199 v 0.04199 c 0,0.028 0.013998,0.05599 0.041992,0.08399 m 0.692867,0.29394 c 0,0 -0.02799,0 -0.08398,0 -0.09798,-0.08398 -0.14697,-0.13997 -0.14697,-0.16796 0,0.02799 0.01399,0.04199 0.04199,0.04199 H 1.6499 c 0.11198,0.05599 0.12598,0.08398 0.04199,0.08398 v 0.04199 m 0.042,-0.16796 c -0.028,0 -0.05599,-0.014 -0.08399,-0.042 -0.02799,0 -0.04199,-0.01399 -0.04199,-0.04199 v -0.08398 c 0,0 0.02799,0.01399 0.08398,0.04199 0.05599,0.02799 0.08399,0.06999 0.08399,0.12598 H 1.73389 m 0.37793,-0.5669 c 0,0 0,-0.02799 0,-0.08398 L 2.15381,-9.05469 2.1958,-8.9707 2.11182,-8.88672 m -0.12598,0.18897 c -0.02799,0 -0.05599,-0.04899 -0.08398,-0.14698 v -0.08398 l 0.04199,0.04199 c 0,0.028 0.014,0.05599 0.04199,0.08399 v 0.10498 m -0.08398,0.08398 c -0.05599,0 -0.08399,-0.014 -0.08399,-0.04199 0,0 0,-0.04899 0,-0.14697 v -0.042 l 0.08399,0.08399 v 0.14697 M 1.16699,-8.27783 C 1.139,-8.24984 1.09701,-8.23584 1.04102,-8.23584 V -8.36182 L 1.125,-8.4458 c 0.02799,0 0.04199,0.014 0.04199,0.04199 v 0.12598 m 0.08399,0.12597 c -0.028,0.028 -0.05599,0.042 -0.08399,0.042 v -0.08399 c 0,-0.08398 0.028,-0.12597 0.08399,-0.12597 h 0.08398 l -0.08398,0.16796 m 0.81884,-0.77685 c 0,0.02799 -0.01399,0.05599 -0.04199,0.08398 0,0 -0.014,-0.01399 -0.04199,-0.04199 V -8.9707 l 0.04199,-0.042 c 0,0 0.014,0.028 0.04199,0.08399 m 0.12598,0.04199 c 0.028,0 0.05599,0.014 0.08399,0.04199 0,0 -0.028,0 -0.08399,0 -0.02799,0 -0.04199,-0.01399 -0.04199,-0.04199 0,-0.02799 0.014,-0.02799 0.04199,0 M 2.27979,-8.9707 c -0.028,0.02799 -0.05599,0.02799 -0.08399,0 0,0 0.014,-0.014 0.04199,-0.042 l 0.08399,-0.04199 v 0.04199 c 0,0.028 -0.014,0.042 -0.04199,0.042 m -1.406743,0.86084 c 0.027995,0 0.041992,-0.014 0.041992,-0.042 0,0 0.013997,-0.02799 0.041992,-0.08398 0.027995,0 0.055989,0.014 0.083989,0.04199 0,0 -0.014,0.028 -0.041997,0.08399 H 0.873047 m 0,-0.20996 c 0.027995,0 0.055989,0.01399 0.083984,0.04199 l -0.083984,0.04199 c 0,0.02799 -0.013998,0.04199 -0.041992,0.04199 -0.027995,0 -0.041992,0.014 -0.041992,0.04199 0.027994,-0.02799 0.041992,-0.05599 0.041992,-0.08398 0,-0.02799 0.013997,-0.05599 0.041992,-0.08398 m 1.070803,-0.042 C 1.83187,-8.41781 1.81787,-8.4458 1.90186,-8.4458 c -0.028,-0.028 -0.035,-0.04199 -0.021,-0.04199 0.014,0 0.03499,0.01399 0.06299,0.04199 0.02799,0 0.04199,0.007 0.04199,0.021 0,0.01399 0.014,0.02099 0.04199,0.02099 0,0.028 0.014,0.04199 0.04199,0.04199 H 1.94385 m -0.12598,0.08399 c 0,-0.05599 0.04199,-0.06999 0.12598,-0.04199 l 0.04199,0.04199 c 0,0.02799 0.014,0.04199 0.04199,0.04199 H 1.90186 1.81787 v -0.04199 m 0.29395,-0.25196 h -0.042 c -0.05599,0 -0.08398,0 -0.08398,0 -0.02799,0 -0.04899,-0.00699 -0.06299,-0.02099 -0.014,-0.014 -0.007,-0.021 0.021,-0.021 0,0 0.02799,-0.01399 0.08398,-0.04199 l 0.08399,0.08398 m -0.042,-0.08398 C 2.01383,-8.64176 1.99984,-8.66976 2.02783,-8.69775 c 0,0 0.014,0 0.04199,0 0,0 0.028,0.01399 0.08399,0.04199 L 2.1958,-8.61377 H 2.06982 m -8.90234,3.52734 c 0.028,0 0.04199,0 0.04199,0 0,0 -0.01399,0 -0.04199,0 0.05599,0 0.05599,0.028 0,0.08399 v 0.08398 c -0.02799,0 -0.04199,-0.01399 -0.04199,-0.04199 0,-0.05599 0,-0.08398 0,-0.08398 v -0.042 c 0,0 -0.014,0.014 -0.04199,0.042 v 0.04199 0.08398 c 0,0 -0.014,-0.02799 -0.042,-0.08398 -0.02799,-0.028 -0.02799,-0.04199 0,-0.04199 -0.08398,0 -0.12597,0 -0.12597,0 h 0.04199 c 0.02799,0 0.05599,-0.007 0.08398,-0.021 0.028,-0.014 0.06999,-0.021 0.12598,-0.021 v -0.06298 0.06298 m 0.90283,-1.00781 c 0,0.028 -0.007,0.05949 -0.02099,0.09448 -0.014,0.035 -0.021,0.06649 -0.021,0.09449 0,-0.09799 0.007,-0.18197 0.021,-0.25196 0.01399,-0.06998 0.03499,-0.09098 0.06298,-0.06298 v 0.04199 c 0,0.02799 -0.00699,0.04199 -0.02099,0.04199 -0.014,0 -0.021,0.014 -0.021,0.04199 0,0 0.014,-0.014 0.04199,-0.04199 h 0.12598 l -0.04199,0.04199 c 0,0.028 -0.014,0.04199 -0.04199,0.04199 0,0.042 -0.014,0.06299 -0.042,0.06299 -0.02799,0 -0.04199,-0.03499 -0.04199,-0.10498 m -1.02881,0.94483 c 0,0.06998 -0.02799,0.06998 -0.08398,0 -0.028,0 -0.05599,-0.014 -0.08398,-0.042 h 0.04199 0.08398 c 0.028,0 0.04199,0.014 0.04199,0.042 m 0.86084,-0.50391 c -0.05599,0 -0.09798,-0.014 -0.12597,-0.04199 -0.028,-0.028 -0.042,-0.05599 -0.042,-0.08399 h 0.08399 c 0.02799,0 0.04899,0.007 0.06299,0.021 0.014,0.014 0.03499,0.021 0.06299,0.021 0.02799,0 0.04199,0.02799 0.04199,0.08398 0,0 -0.028,0 -0.08399,0 m -0.90283,0.69287 c 0.028,0.028 0.028,0.05599 0,0.08399 l -0.04199,-0.042 c -0.028,0 -0.04199,-0.01399 -0.04199,-0.04199 v -0.04199 h 0.04199 c 0,0 0.014,0.014 0.04199,0.04199 m 0.16797,-0.23096 c -0.02799,0.028 -0.06999,0.028 -0.12598,0 -0.02799,-0.02799 -0.04199,-0.05599 -0.04199,-0.08398 h 0.12598 l 0.04199,0.08398 m -0.25195,0.14698 h -0.12598 c 0,0 0.028,-0.014 0.08399,-0.042 0.05598,0 0.08398,0.014 0.08398,0.042 h -0.04199 m -0.08399,0.08398 c 0,-0.02799 0.014,-0.04199 0.042,-0.04199 h 0.04199 c 0,0.02799 -0.014,0.05599 -0.04199,0.08398 h -0.08399 c 0,0 0.014,-0.01399 0.04199,-0.04199 m 0.41992,-0.18896 c 0,0 -0.01399,-0.028 -0.04199,-0.08399 -0.02799,0 -0.04199,-0.02799 -0.04199,-0.08398 v -0.042 c 0,0.028 0.014,0.042 0.04199,0.042 0.05599,0.05599 0.08399,0.08398 0.08399,0.08398 0,0 0,0.028 0,0.08399 h -0.042 m 0.65088,-0.46192 c 0.05599,0.028 0.08399,0.06999 0.08399,0.12598 0,0 -0.028,0 -0.08399,0 -0.05599,0 -0.08398,-0.014 -0.08398,-0.04199 -0.028,0 -0.04199,-0.014 -0.04199,-0.042 h 0.04199 c 0.02799,0 0.04199,-0.00699 0.04199,-0.02099 0,-0.014 0.014,-0.021 0.04199,-0.021 m 0.08399,-0.73486 0.08398,0.08398 c 0.028,0.028 0.028,0.05599 0,0.08399 0,0 -0.01399,-0.014 -0.04199,-0.04199 l -0.04199,-0.12598 m -0.08399,0.35693 c -0.02799,0 -0.04199,-0.03499 -0.04199,-0.10498 v -0.04199 c 0,0.02799 0.014,0.04199 0.04199,0.04199 0.028,0 0.042,0.007 0.042,0.021 0,0.014 0.01399,0.02099 0.04199,0.02099 0.02799,0.042 0.04199,0.07699 0.04199,0.10498 -0.02799,0.028 -0.06999,0.014 -0.12598,-0.04199 m 0,0.16797 c -0.02799,0 -0.04199,-0.02799 -0.04199,-0.08398 0,-0.028 -0.014,-0.042 -0.04199,-0.042 h 0.04199 c 0.028,0 0.05599,0.014 0.08399,0.042 0.02799,0.02799 0.04199,0.05599 0.04199,0.08398 0,0.05599 -0.028,0.05599 -0.08399,0 m -0.44091,0.5459 c 0,0.02799 0.02099,0.05599 0.06298,0.08398 0,0.06999 -0.03499,0.10498 -0.10498,0.10498 -0.02799,0 -0.04199,-0.02099 -0.04199,-0.06298 V -5.2334 c -0.02799,0 -0.02799,-0.014 0,-0.04199 l 0.04199,-0.04199 0.042,0.04199 m 0.18896,0.12598 c 0,0.06998 -0.007,0.11198 -0.021,0.12597 -0.01399,0.014 -0.02099,0.007 -0.02099,-0.02099 0,0 -0.014,-0.035 -0.04199,-0.10498 0,-0.028 0.01399,-0.05599 0.04199,-0.08399 l 0.04199,-0.04199 v 0.04199 0.08399 m 0.29395,-0.94483 c -0.028,-0.02799 -0.042,-0.05599 -0.042,-0.08398 v -0.04199 h 0.042 c 0.02799,0 0.04199,0.00699 0.04199,0.02099 0,0.014 0.014,0.021 0.04199,0.021 v 0.08398 h -0.08398 m 0.25195,-0.12597 0.04199,0.04199 H -5.8457 l -0.042,0.04199 c 0,-0.05599 0.014,-0.08398 0.042,-0.08398 h 0.04199 m 0,-0.16797 v 0.08398 c -0.028,0.028 -0.05599,0.04199 -0.08399,0.04199 -0.05598,0 -0.05598,-0.02799 0,-0.08398 l 0.08399,-0.04199 m -0.77686,1.34375 c 0,0 0,0.02799 0,0.08398 -0.02799,0.028 -0.05599,0.04199 -0.08398,0.04199 v -0.12597 h 0.08398 m -0.12597,0.04199 c 0,0.02799 -0.014,0.05599 -0.042,0.08398 -0.02799,0 -0.04199,-0.01399 -0.04199,-0.04199 v -0.08398 c 0.028,-0.028 0.05599,-0.042 0.08399,-0.042 0,0 0,0.028 0,0.08399 m 0.16797,0.04199 c 0.04199,-0.02799 0.09098,-0.04199 0.14697,-0.04199 v 0.04199 c 0,0.028 -0.014,0.05599 -0.04199,0.08399 l -0.10498,0.08398 v -0.04199 c 0,-0.08399 0,-0.12598 0,-0.12598 m 0.77685,-0.69287 c -0.02799,0 -0.04199,0.007 -0.04199,0.021 0,0.01399 -0.014,0.02099 -0.04199,0.02099 -0.05599,0 -0.09099,-0.007 -0.10498,-0.02099 -0.014,-0.014 -0.007,-0.021 0.02099,-0.021 -0.02799,-0.028 -0.01399,-0.04199 0.04199,-0.04199 h 0.12598 0.04199 l -0.04199,0.04199 m -0.16797,-0.16797 c 0,0 0.014,-0.014 0.04199,-0.04199 0,0 0.028,0.014 0.08399,0.04199 h 0.04199 -0.04199 c -0.028,0 -0.04199,0.007 -0.04199,0.021 0,0.01399 -0.014,0.02099 -0.042,0.02099 -0.05598,0 -0.06998,-0.01399 -0.04199,-0.04199 m 0.16797,-0.12598 c 0,0 -0.02799,0.014 -0.08398,0.042 -0.08399,0 -0.11198,-0.014 -0.08399,-0.042 0,0 0.014,-0.01399 0.04199,-0.04199 0,0 0.028,0.014 0.08399,0.04199 h 0.04199 M 9.33447,12.6553 c -0.02799,0.098 -0.13997,0.1749 -0.33593,0.2309 0.19596,0.28 0.15397,0.5949 -0.12598,0.9449 -0.20996,0.1959 -0.39893,0.2799 -0.5669,0.2519 0,0.056 0.007,0.098 0.021,0.126 0.014,0.028 -0.007,0.07 -0.06299,0.126 -0.11198,0.1399 -0.23795,0.1399 -0.37793,0 L 7.82275,14.293 c 0,0.056 -0.01399,0.1119 -0.04199,0.1679 -0.02799,0.056 -0.05599,0.119 -0.08398,0.189 -0.13998,0.168 -0.31844,0.266 -0.5354,0.2939 C 6.94442,14.9718 6.76595,14.9159 6.62598,14.7759 6.486,14.6219 6.40902,14.4469 6.39502,14.251 6.38102,14.055 6.44401,13.873 6.58398,13.7051 6.5,13.6631 6.40202,13.6211 6.29004,13.5791 c -0.11198,-0.042 -0.23096,-0.049 -0.35693,-0.021 -0.16797,0.098 -0.33594,0.231 -0.50391,0.3989 -0.08399,0.14 -0.17147,0.2905 -0.26245,0.4514 -0.09099,0.161 -0.19247,0.3115 -0.30445,0.4515 -0.05598,0.056 -0.11897,0.1189 -0.18896,0.1889 -0.06999,0.07 -0.13298,0.133 -0.18896,0.189 0.13997,0.14 0.21695,0.2764 0.23095,0.4094 0.014,0.133 0.04899,0.2275 0.10498,0.2835 0.11198,0.1399 0.22746,0.2554 0.34644,0.3464 0.11898,0.091 0.23445,0.1925 0.34643,0.3044 0.028,-0.0559 0.05599,-0.1224 0.08399,-0.1994 0.02799,-0.077 0.05599,-0.1715 0.08398,-0.2835 0.028,-0.1399 0.035,-0.2659 0.021,-0.3779 -0.014,-0.112 -0.021,-0.203 -0.021,-0.2729 0.05599,0.0979 0.05599,0.3149 0,0.6508 -0.02799,0.21 -0.06998,0.357 -0.12597,0.441 l 0.04199,0.0419 c 0.02799,0 0.09798,-0.028 0.20996,-0.0839 0.08398,0 0.13997,-0.014 0.16797,-0.042 -0.11198,0.1119 -0.22396,0.1679 -0.33594,0.1679 l 0.08398,0.084 0.042,-0.042 0.04199,-0.084 c 0.05599,0 0.06999,0.028 0.04199,0.084 v 0.084 c 0.20996,0.14 0.38493,0.329 0.5249,0.5669 0.028,0.084 0.06999,0.126 0.12598,0.126 0.05599,0.14 0.16447,0.2099 0.32544,0.2099 0.16097,0 0.21346,0.028 0.15747,0.084 -0.06999,0.084 -0.36743,0.1785 -0.89233,0.2835 -0.52491,0.105 -1.13029,0.1574 -1.81617,0.1574 H 4.16943 -7.29443 c -0.48991,-0.0419 -0.81535,-0.0909 -0.97632,-0.1469 -0.16097,-0.056 -0.21346,-0.119 -0.15747,-0.189 0.05599,-0.07 0.17147,-0.147 0.34643,-0.2309 0.17497,-0.084 0.34294,-0.1715 0.50391,-0.2625 0.16097,-0.091 0.28345,-0.1715 0.36743,-0.2415 0.08399,-0.0699 0.06999,-0.1329 -0.04199,-0.1889 -0.05599,-0.028 -0.11898,-0.182 -0.18897,-0.4619 l -0.04199,0.042 c -0.36393,0.1399 -0.63688,0.0489 -0.81885,-0.273 -0.02799,-0.028 -0.04199,-0.112 -0.04199,-0.2519 l -0.04199,0.0419 c -0.08398,0.056 -0.16797,0.042 -0.25195,-0.0419 -0.028,-0.056 -0.028,-0.126 0,-0.21 -0.16797,-0.056 -0.29395,-0.161 -0.37793,-0.3149 -0.18197,-0.308 -0.16797,-0.5319 0.04199,-0.6719 -0.15397,-0.056 -0.23096,-0.147 -0.23096,-0.273 0,-0.056 0.06299,-0.084 0.18897,-0.084 -0.12598,-0.3079 -0.05599,-0.5319 0.20996,-0.6718 -0.08399,-0.154 -0.11198,-0.301 -0.08399,-0.4409 0.028,-0.14 0.09799,-0.238 0.20996,-0.294 0.05599,-0.056 0.12598,-0.084 0.20997,-0.084 0,-0.084 0.04199,-0.1609 0.12597,-0.2309 -0.02799,-0.056 0.007,-0.112 0.10498,-0.168 0.028,-0.028 0.09798,0 0.20996,0.084 0,-0.056 0.028,-0.112 0.08399,-0.168 0.16797,-0.056 0.30794,-0.042 0.41992,0.042 l 0.04199,-0.042 c 0.12598,-0.056 0.24496,-0.014 0.35694,0.126 0.02799,0.028 0.04199,0.119 0.04199,0.2729 0.08398,-0.4059 0.16797,-0.8188 0.25195,-1.2387 0.08398,-0.42 0.20296,-0.8259 0.35693,-1.2178 0.16797,-0.60189 0.32194,-1.18278 0.46192,-1.74268 0.13997,-0.5599 0.23795,-1.0568 0.29394,-1.49072 h -0.08398 c -0.13997,0 -0.23796,0.01399 -0.29395,0.04199 -0.02799,0.02799 -0.04899,0.06299 -0.06298,0.10498 -0.014,0.04199 -0.035,0.09798 -0.06299,0.16797 0.22396,0 0.33593,0.11198 0.33593,0.33594 0,0.22395 -0.12597,0.33593 -0.37793,0.33593 -0.08398,0 -0.12597,-0.01399 -0.12597,-0.04199 v 0.04199 c 0,0.08399 -0.04899,0.12598 -0.14697,0.12598 -0.028,-0.02799 -0.049,-0.04199 -0.06299,-0.04199 -0.014,0 -0.035,-0.014 -0.06299,-0.04199 -0.05599,0.12597 -0.13997,0.15397 -0.25195,0.08398 -0.19597,0 -0.32194,-0.06999 -0.37793,-0.20996 -0.028,0.02799 -0.09099,0.04199 -0.18897,0.04199 -0.05599,-0.02799 -0.05599,-0.06999 0,-0.12598 -0.19596,-0.05599 -0.29394,-0.16796 -0.29394,-0.33593 -0.27995,0 -0.39193,-0.10498 -0.33594,-0.31494 V 7.19629 C -8.16927,7.1403 -8.19727,7.09831 -8.19727,7.07031 c 0,-0.02799 -0.00699,-0.04199 -0.02099,-0.04199 -0.014,0 -0.021,-0.02799 -0.021,-0.08398 0,0 0.028,-0.028 0.08399,-0.08399 V 6.77637 c 0,-0.08399 0.04199,-0.15397 0.12597,-0.20996 v -0.042 c 0,-0.09798 0.05599,-0.14697 0.16797,-0.14697 0.08399,0 0.12598,0.014 0.12598,0.04199 0.05599,-0.08398 0.12597,-0.15397 0.20996,-0.20996 h -0.04199 c 0,-0.08398 0.04199,-0.12597 0.12597,-0.12597 0.028,0 0.05249,0.00699 0.07349,0.02099 0.021,0.014 0.04549,0.021 0.07349,0.021 0,-0.13998 0.09798,-0.20996 0.29394,-0.20996 0.05599,-0.05599 0.09798,-0.08399 0.12598,-0.08399 0.02799,0 0.06999,0.042 0.12597,0.12598 h 0.042 c 0.11198,-0.05599 0.20296,-0.08398 0.27295,-0.08398 0.25195,0 0.37793,0.11197 0.37793,0.33593 0,0.028 -0.007,0.04899 -0.021,0.06299 -0.014,0.014 -0.021,0.04899 -0.021,0.10498 0.13998,0.05599 0.20996,0.14697 0.20996,0.27295 0,0.16797 -0.09798,0.25195 -0.29394,0.25195 0.11198,0.05599 0.27995,0.09799 0.50391,0.12598 0,-0.22396 -0.007,-0.41642 -0.021,-0.57739 C -5.71273,6.28996 -5.76172,6.16748 -5.8457,6.0835 -6.23763,5.59359 -6.56307,5.27865 -6.82202,5.13867 -7.08097,4.9987 -7.31543,4.80973 -7.52539,4.57178 -7.77734,4.37581 -7.88932,3.9279 -7.86133,3.22803 c 0.028,-0.69987 0.10498,-1.45923 0.23096,-2.278079 0.12598,-0.818847 0.26245,-1.6097 0.40942,-2.372561 0.14698,-0.76286 0.22046,-1.29826 0.22046,-1.6062 0,-0.5459 0.20296,-1.13379 0.60889,-1.76367 0,0 0.014,-0.028 0.04199,-0.08398 h 0.04199 c 0,-0.028 0.014,-0.042 0.04199,-0.042 -0.26595,-0.15397 -0.44091,-0.20996 -0.5249,-0.16797 0.08399,-0.04199 0.25895,0.014 0.5249,0.16797 v -0.04199 c 0,0 0,-0.02799 0,-0.08398 0,-0.18197 0.028,-0.24496 0.08399,-0.18897 0.05599,0.05599 0.04199,0.014 -0.04199,-0.12598 0.08398,-0.08398 0.16797,-0.06998 0.25195,0.042 0.028,-0.05599 0.05599,-0.09099 0.08398,-0.10498 0.028,-0.014 0.06999,-0.04899 0.12598,-0.10498 -0.02799,0.02799 -0.05599,0.04199 -0.08398,0.04199 -0.05599,0.02799 -0.08399,0.014 -0.08399,-0.04199 0,0 0.028,-0.014 0.08399,-0.042 h 0.12597 c 0.05599,-0.05599 0.11548,-0.11198 0.17847,-0.16796 0.06299,-0.05599 0.12248,-0.11198 0.17847,-0.16797 0,-0.05599 -0.007,-0.12248 -0.021,-0.19947 -0.014,-0.07698 -0.021,-0.15747 -0.021,-0.24145 -0.02799,-0.05599 -0.05598,-0.11198 -0.08398,-0.16797 -0.02799,-0.05599 -0.05599,-0.11198 -0.08398,-0.16797 -0.06999,-0.02799 -0.18897,-0.06999 -0.35694,-0.12598 0.05599,0.13998 0.05599,0.25196 0,0.33594 -0.05599,0.08399 -0.12597,0.12598 -0.20996,0.12598 -0.19596,0.05599 -0.35693,-0.05599 -0.48291,-0.33594 0,-0.13997 0,-0.20996 0,-0.20996 h -0.04199 c -0.08399,0 -0.13997,-0.04899 -0.16797,-0.14697 0,-0.05599 0.014,-0.09798 0.04199,-0.12598 -0.08398,-0.05599 -0.15397,-0.15397 -0.20996,-0.29394 -0.05599,-0.22396 -0.014,-0.38493 0.12598,-0.48291 -0.08399,-0.08399 -0.11198,-0.15398 -0.08399,-0.20997 0,-0.05599 0.028,-0.05599 0.08399,0 0,-0.22395 0.08398,-0.36393 0.25195,-0.41992 -0.11198,-0.29394 -0.04899,-0.44092 0.18897,-0.44092 0.05599,-0.02799 0.09098,-0.03499 0.10498,-0.02099 0.01399,0.014 0.03499,0.02099 0.06298,0.02099 0,-0.08398 0.028,-0.12597 0.08399,-0.12597 0,-0.05599 0.02799,-0.08399 0.08398,-0.08399 0.028,0 0.06999,0.042 0.12598,0.12598 0.05599,-0.05599 0.09798,-0.08398 0.12598,-0.08398 0.08398,0 0.15397,0.04199 0.20996,0.12597 h 0.10498 c 0.08398,0 0.13997,0.05599 0.16797,0.16797 0,0.15397 0,0.23096 0,0.23096 0.08398,0 0.18196,0.05599 0.29394,0.16797 v -0.042 c 0.08399,0 0.13998,0.05599 0.16797,0.16797 0,0.05599 -0.014,0.08399 -0.04199,0.08399 0.18197,0.05599 0.30094,0.16797 0.35693,0.33594 0.08399,0.05599 0.12598,0.10498 0.12598,0.14697 0.02799,0.05599 0,0.11198 -0.08399,0.16797 0.028,0 0.028,0.01399 0,0.04199 0.11198,0.11198 0.18197,0.20996 0.20997,0.29394 0.05599,0.32194 -0.028,0.48291 -0.25196,0.48291 0,0 -0.04899,0 -0.14697,0 -0.02799,0.13998 -0.09798,0.23796 -0.20996,0.29395 -0.16797,0 -0.29395,-0.09798 -0.37793,-0.29395 0,0.08399 0.007,0.18897 0.021,0.31495 0.01399,0.12597 0.03499,0.27295 0.06298,0.44091 0.028,0 0.042,0.021 0.042,0.06299 0.65787,-0.48991 1.39974,-0.77685 2.22558,-0.86084 0.75586,-0.06998 1.46273,-0.24495 2.120607,-0.5249 0.657878,-0.27995 1.273763,-0.49691 1.847656,-0.65088 0,-0.02799 0.013997,-0.04199 0.041997,-0.04199 0.05599,-0.11198 0.08398,-0.11198 0.08398,0 L 1.16699,-8.10986 C 0.999023,-8.27783 0.901042,-8.36182 0.873047,-8.36182 c 0.083984,0 0.181963,0.08399 0.293943,0.25196 h 0.25196 c 0.05598,-0.028 0.17496,-0.042 0.35693,-0.042 0,0 0.02799,-0.01399 0.08398,-0.04199 0.028,0 0.042,0.014 0.042,0.04199 0.36393,0 0.66137,0.08049 0.89233,0.24146 0.23096,0.16097 0.41992,0.37093 0.56689,0.62988 0.14698,0.25895 0.28345,0.5459 0.40943,0.86084 0.12597,0.31494 0.29394,0.64038 0.5039,0.97632 0.11198,0.19596 0.13998,0.39543 0.08399,0.59839 -0.05599,0.20296 -0.13648,0.41292 -0.24146,0.62988 -0.10498,0.21696 -0.20646,0.42692 -0.30444,0.62988 -0.09798,0.20297 -0.14697,0.40243 -0.14697,0.59839 0,0.25196 0.09098,0.52141 0.27295,0.80835 0.18196,0.28695 0.37443,0.5809 0.57739,0.88184 0.20296,0.300943 0.36393,0.58789 0.48291,0.860839 0.11898,0.272949 0.10148,0.5144043 -0.05249,0.724365 -0.13997,0.167969 -0.18897,0.517904 -0.14697,1.049806 0.04199,0.5319 0.09098,1.09879 0.14697,1.70068 0.05599,0.60189 0.09098,1.16529 0.10498,1.69019 0.014,0.5249 -0.06299,0.87833 -0.23096,1.0603 0,0.028 0.014,0.04199 0.04199,0.04199 0,0.028 0.007,0.042 0.021,0.042 0.014,0 0.021,0.01399 0.021,0.04199 0.02799,0 0.04199,0.007 0.04199,0.02099 0,0.014 -0.014,0.021 -0.04199,0.021 0,0.08398 -0.028,0.06999 -0.08399,-0.04199 V 5.78955 c -0.02799,0 -0.04199,0.007 -0.04199,0.021 0,0.01399 -0.014,0.02099 -0.04199,0.02099 v 0.042 c 0,0.02799 0.007,0.04199 0.02099,0.04199 0.014,0 0.021,0.01399 0.021,0.04199 0.05599,0.05599 0.05599,0.08398 0,0.08398 0,0.08399 -0.02799,0.06999 -0.08398,-0.04199 V 5.95752 c 0,0.08398 -0.014,0.16097 -0.042,0.23096 C 4.62435,6.25846 4.59635,6.33545 4.56836,6.41943 V 6.52441 C 4.59635,6.48242 4.62435,6.46143 4.65234,6.46143 V 6.52441 6.6084 c -0.11198,0.05599 -0.13997,0.05599 -0.08398,0 H 4.52637 v 0.04199 c 0.27995,0.11198 0.41992,0.20996 0.41992,0.29395 0,-0.05599 -0.13997,-0.13998 -0.41992,-0.25196 v 0.042 0.04199 c 0,0.02799 -0.014,0.04199 -0.04199,0.04199 -0.028,0.13997 -0.049,0.28345 -0.06299,0.43042 -0.014,0.14697 -0.035,0.29045 -0.06299,0.43042 h 0.04199 c 0,0 -0.014,0.014 -0.04199,0.04199 V 7.80518 L 4.40039,7.84717 H 4.31641 V 7.88916 H 4.3584 c 0,0.02799 -0.014,0.04199 -0.04199,0.04199 L 4.3584,7.97314 H 4.44238 4.3584 4.31641 v 0.042 H 4.3584 4.44238 c 0,0 -0.02799,0.01399 -0.08398,0.04199 -0.028,0 -0.04199,-0.014 -0.04199,-0.04199 0,0 0.01399,0.02799 0.04199,0.08398 0,-0.02799 0.014,-0.04199 0.04199,-0.04199 h 0.04199 c 0,0 -0.02799,0.014 -0.08398,0.04199 v 0.04199 l -0.04199,0.042 v -0.042 C 4.19043,8.79899 4.09245,9.53035 4.02246,10.3352 c -0.06999,0.8049 -0.11898,1.5782 -0.14697,2.3201 0,0.3219 0.014,0.6683 0.04199,1.0393 0.028,0.3709 0.06999,0.7593 0.12598,1.1653 0.02799,0 0.04199,0.007 0.04199,0.021 0,0.014 0.014,0.021 0.04199,0.021 h 0.04199 c 0.09799,-0.112 0.20996,-0.2275 0.33594,-0.3465 0.12598,-0.119 0.25895,-0.2344 0.39893,-0.3464 0.37793,-0.5179 0.62288,-0.9168 0.73486,-1.1968 -0.30794,0.252 -0.59489,0.28 -0.86084,0.084 C 4.58236,12.9282 4.54036,12.6833 4.65234,12.3613 4.59635,12.3333 4.54736,12.3123 4.50537,12.2983 4.46338,12.2843 4.42839,12.2633 4.40039,12.2354 4.21842,12.0954 4.12044,11.9169 4.10645,11.7 c -0.014,-0.217 0.05598,-0.3955 0.20996,-0.5354 0.16797,-0.21 0.34993,-0.315 0.54589,-0.315 0,-0.084 0.014,-0.126 0.042,-0.126 -0.08399,-0.1119 -0.09798,-0.2239 -0.042,-0.3359 0.05599,-0.056 0.16097,-0.084 0.31495,-0.084 0.27994,-0.2659 0.55989,-0.32193 0.83984,-0.168 0,-0.1259 0.021,-0.20292 0.06299,-0.23091 C 6.19206,9.73682 6.30404,9.70882 6.41602,9.8208 v 0.08399 c 0.19596,-0.13998 0.39892,-0.13998 0.60888,0 0,-0.05599 0.014,-0.10499 0.04199,-0.14698 C 7.09489,9.71582 7.12288,9.66683 7.15088,9.61084 7.34684,9.41488 7.50081,9.37288 7.61279,9.48486 l 0.08399,0.042 c 0.20996,-0.05599 0.38493,-0.028 0.5249,0.08398 0.05599,0.05599 0.08398,0.09798 0.08398,0.12598 0,0.02799 0.014,0.05599 0.042,0.08398 0.13997,-0.05599 0.22395,-0.05599 0.25195,0 0.12598,0.05599 0.15397,0.12598 0.08398,0.21 0.09799,0.1259 0.13298,0.2449 0.10498,0.3569 0.08399,0 0.16797,0.042 0.25196,0.126 0.13997,0.112 0.20996,0.2694 0.20996,0.4724 0,0.2029 -0.06999,0.3744 -0.20996,0.5144 0.27995,0.2939 0.30794,0.6089 0.08398,0.9448 0.13998,0.056 0.20996,0.126 0.20996,0.21 M -5.06885,-7.45898 v -0.042 0.042 m -0.16797,-0.39893 c 0,0.06999 -0.02799,0.13298 -0.08398,0.18896 0.05599,0 0.11198,0.028 0.16797,0.08399 -0.05599,-0.05599 -0.08399,-0.11198 -0.08399,-0.16797 v -0.10498 m -1.02881,0.65088 V -7.24902 L -6.30762,-7.375 c 0,0.05599 -0.007,0.09098 -0.02099,0.10498 -0.014,0.014 -0.021,0.03499 -0.021,0.06299 h 0.08398 m 0.5879,-0.41992 c -0.05599,0 -0.11198,-0.028 -0.16797,-0.08399 l 0.04199,0.08399 0.04199,0.08398 c 0,0 0.028,-0.02799 0.08399,-0.08398 M -5.97168,-8.40381 H -5.8457 C -5.90169,-8.4598 -5.94368,-8.51579 -5.97168,-8.57178 v 0.16797 m 0.04199,1.5957 c 0.05599,0.028 0.10498,0.042 0.14698,0.042 0.04199,0 0.09098,0.01399 0.14697,0.04199 -0.028,-0.05599 -0.05599,-0.09798 -0.08399,-0.12598 -0.02799,-0.02799 -0.05599,-0.07698 -0.08398,-0.14697 0,0.06999 -0.028,0.10498 -0.08399,0.10498 h -0.08398 c 0.028,0.02799 0.04199,0.05599 0.04199,0.08398 m 0.5249,0.29395 c -0.02799,-0.08398 -0.03499,-0.16797 -0.02099,-0.25195 0.014,-0.08399 0.02099,-0.16097 0.02099,-0.23096 v -0.04199 c -0.02799,0 -0.04199,0.007 -0.04199,0.02099 0,0.014 -0.01399,0.021 -0.04199,0.021 -0.12598,0 -0.20296,-0.04199 -0.23096,-0.12598 0,0.028 -0.007,0.04899 -0.02099,0.06299 -0.014,0.014 -0.021,0.03499 -0.021,0.06299 0.05599,0.06999 0.11548,0.14697 0.17847,0.23096 0.06299,0.08398 0.12248,0.16797 0.17846,0.25195 m -2.16259,13.4585 c 0,-0.028 -0.042,0 -0.12598,0.08398 0.028,0 0.04899,0.007 0.06299,0.021 0.014,0.01399 0.03499,0.02099 0.06299,0.02099 V 6.94434 m 0.73486,0.16796 c -0.02799,0 -0.04199,-0.02799 -0.04199,-0.08398 C -6.9305,7.08431 -6.9585,7.1123 -6.9585,7.1123 h 0.042 0.08398 M -6.87451,6.69238 c 0,-0.08398 0.02799,-0.12597 0.08398,-0.12597 H -6.9585 -7.00049 c 0.028,0.02799 0.04899,0.04199 0.06299,0.04199 0.014,0 0.03499,0.02799 0.06299,0.08398 m 0.25195,1.0708 V 7.6792 h -0.04199 -0.08399 c 0.05599,0.05599 0.09799,0.08398 0.12598,0.08398 m 0.48291,-0.56689 c -0.11198,0.05599 -0.18196,0.08398 -0.20996,0.08398 0.028,0.028 0.04199,0.07699 0.04199,0.14698 v 0.04199 h 0.04199 L -6.13965,7.19629 M -6.3916,7.28027 C -6.33561,7.22428 -6.26563,7.18929 -6.18164,7.17529 -6.09766,7.1613 -6.01367,7.1263 -5.92969,7.07031 -6.04167,7.04232 -6.18164,7.00033 -6.34961,6.94434 v 0.08398 c 0,0.08398 -0.04199,0.13997 -0.12598,0.16797 0.05599,0 0.08399,0.02799 0.08399,0.08398 m -1.67969,8.12553 c 0.05599,0 0.09798,-0.014 0.12598,-0.042 l -0.04199,-0.042 -0.08399,-0.126 c 0.028,0.084 0.028,0.154 0,0.21 m 0.20996,-1.8477 c 0.05599,-0.028 0.09098,-0.042 0.10498,-0.042 0.014,0 0.04899,-0.014 0.10498,-0.042 -0.08398,0 -0.16797,-0.042 -0.25195,-0.126 0.02799,0.056 0.04199,0.126 0.04199,0.21 m 0.46192,1.0498 c 0.04199,-0.042 0.06298,-0.091 0.06298,-0.147 -0.04199,-0.028 -0.09098,-0.042 -0.14697,-0.042 l 0.08399,0.126 v 0.063 M 4.31641,8.01514 V 8.09912 8.01514 M 4.08545,16.7915 c 0.40592,0 0.61588,-0.1015 0.62988,-0.3044 0.014,-0.203 -0.05599,-0.455 -0.20996,-0.7559 C 4.3514,15.4303 4.16593,15.1013 3.94897,14.7444 3.73201,14.3875 3.60954,14.069 3.58154,13.7891 3.52555,13.4671 3.44507,13.1837 3.34009,12.9387 3.23511,12.6938 3.11263,12.4873 2.97266,12.3193 2.91667,11.7454 2.83968,11.0876 2.7417,10.3457 2.64372,9.60384 2.51774,9.02995 2.36377,8.62402 2.46175,8.54004 2.58073,8.33708 2.7207,8.01514 2.88867,7.62321 3.02865,7.29777 3.14063,7.03882 3.2526,6.77987 3.34009,6.56291 3.40308,6.38794 3.46606,6.21297 3.50456,6.0765 3.51855,5.97852 3.53255,5.88053 3.55355,5.78955 3.58154,5.70557 3.60954,5.60758 3.57804,5.68107 3.48706,5.92603 3.39608,6.17098 3.2946,6.42993 3.18262,6.70288 3.07064,6.97583 2.97965,7.18579 2.90967,7.33276 2.83968,7.47974 2.83268,7.39225 2.88867,7.07031 2.91667,6.76237 2.90267,6.53491 2.84668,6.38794 2.79069,6.24097 2.7347,6.11849 2.67871,6.02051 2.62272,5.92253 2.59473,5.80705 2.59473,5.67407 2.59473,5.5411 2.66471,5.32064 2.80469,5.0127 2.97266,4.71875 3.05664,4.50879 3.05664,4.38281 3.05664,4.25684 3.03564,4.14486 2.99365,4.04688 2.95166,3.94889 2.92367,3.81942 2.90967,3.65845 2.89567,3.49748 2.95866,3.22803 3.09863,2.8501 3.21061,2.48617 3.38208,2.08024 3.61304,1.63232 3.84399,1.18441 4.03296,0.802979 4.17993,0.488037 4.3269,0.173096 4.40039,-0.0473633 4.40039,-0.17334 4.40039,-0.299316 4.25342,-0.236328 3.95947,0.015625 3.67952,0.281576 3.45907,0.47054 3.2981,0.58252 3.13713,0.694499 3.00765,0.757487 2.90967,0.771484 2.81169,0.785482 2.7277,0.771484 2.65771,0.729492 2.58773,0.6875 2.50374,0.638509 2.40576,0.58252 2.26579,0.52653 2.14681,0.446045 2.04883,0.341064 1.95085,0.236084 1.83187,0.155599 1.69189,0.0996094 c 0,-0.139974 0.06299,-0.2659504 0.18897,-0.3779294 0.12598,-0.111979 0.36393,-0.223959 0.71387,-0.335938 0.65787,-0.181966 0.98681,-0.314941 0.98681,-0.398922 0,-0.08399 -0.12247,-0.14698 -0.36743,-0.18897 C 2.96916,-1.24414 2.71021,-1.27214 2.43726,-1.28613 2.16431,-1.30013 2.11182,-1.33512 2.27979,-1.39111 2.43376,-1.4471 2.52474,-1.54858 2.55273,-1.69556 2.58073,-1.84253 2.57023,-1.986 2.52124,-2.12598 2.47225,-2.26595 2.39876,-2.39543 2.30078,-2.5144 2.2028,-2.63338 2.09782,-2.72087 1.98584,-2.77686 1.78988,-2.86084 1.59041,-2.93783 1.38745,-3.00781 1.18449,-3.0778 0.894043,-3.23177 0.516113,-3.46973 0.348145,-3.58171 0.271159,-3.69368 0.285156,-3.80566 0.299154,-3.91764 0.355143,-4.03312 0.453125,-4.1521 0.551107,-4.27108 0.680583,-4.38656 0.841553,-4.49854 1.00252,-4.61051 1.125,-4.72249 1.20898,-4.83447 c 0.11198,-0.11198 0.11898,-0.18197 0.021,-0.20996 -0.09798,-0.028 -0.234456,-0.035 -0.409423,-0.021 -0.174968,0.014 -0.367432,0.04899 -0.577393,0.10498 -0.2099609,0.05599 -0.37793,0.09798 -0.503906,0.12598 -0.279948,0.05599 -0.633382,0.12597 -1.060298,0.20996 -0.42693,0.08398 -0.71737,0.18196 -0.87134,0.29394 -0.13998,0.12598 -0.28695,0.12948 -0.44092,0.0105 -0.15397,-0.11898 -0.27995,-0.23445 -0.37793,-0.34643 -0.11198,-0.08399 -0.25895,-0.042 -0.44092,0.12597 -0.18196,0.16797 -0.41992,0.37093 -0.71387,0.60889 l -0.16796,0.25195 c -0.05599,0.08399 -0.10498,0.17147 -0.14698,0.26245 -0.04199,0.09099 -0.07698,0.17847 -0.10498,0.26245 -0.05599,0.19597 -0.15047,0.30795 -0.28344,0.33594 -0.13298,0.028 -0.32544,-0.30094 -0.5774,-0.98681 0.19597,0.02799 0.40943,-0.12248 0.64038,-0.45142 0.23096,-0.32894 0.51441,-0.60539 0.85035,-0.82935 0.37792,-0.23795 0.81884,-0.40592 1.32275,-0.5039 0.50391,-0.09798 1.0848,-0.18897 1.742675,-0.27295 C -0.204753,-5.94727 0.330648,-6.09074 0.715576,-6.2937 1.1005,-6.49666 1.46794,-6.78711 1.81787,-7.16504 1.98584,-7.33301 2.04183,-7.45898 1.98584,-7.54297 1.92985,-7.62695 1.81437,-7.66895 1.6394,-7.66895 c -0.17496,0 -0.39192,0.014 -0.650875,0.042 -0.258951,0.02799 -0.486409,0.05599 -0.682373,0.08398 -0.4059241,0.05599 -0.713867,0.17847 -0.923828,0.36743 -0.209961,0.18897 -0.461914,0.32544 -0.755864,0.40943 -0.30794,0.08398 -0.66487,0.19596 -1.0708,0.33593 -0.40592,0.13998 -0.84684,0.23796 -1.32275,0.29395 -0.20996,0.20996 -0.38493,0.37093 -0.5249,0.48291 -0.13998,0.13997 -0.28345,0.25195 -0.43042,0.33594 -0.14697,0.08398 -0.26245,0.16097 -0.34644,0.23095 -0.11198,0.05599 -0.22396,0.18897 -0.33594,0.39893 -0.11197,0.20996 -0.18896,0.40592 -0.23095,0.58789 -0.08399,-0.12598 -0.15397,-0.08748 -0.20996,0.11548 -0.05599,0.20296 -0.09099,0.46191 -0.10498,0.77685 -0.014,0.31495 -0.028,0.65088 -0.042,1.00782 -0.01399,0.35693 -0.02099,0.62638 -0.02099,0.80835 0,0.419919 0.04899,0.766354 0.14697,1.039303 0.09798,0.2729496 0.23796,0.598389 0.41992,0.976319 0.08399,0.167968 0.13998,0.31844 0.16797,0.451418 0.028,0.13297 0.03499,0.26945 0.021,0.40942 -0.014,0.13998 -0.06299,0.31144 -0.14698,0.51441 -0.08398,0.20296 -0.21695,0.48641 -0.39892,0.85034 -0.16797,0.37793 -0.23096,0.61588 -0.18897,0.71386 0.042,0.09799 0.13648,0.12598 0.28345,0.08399 C -5.56226,3.60596 -5.40479,3.51497 -5.23682,3.375 -5.06885,3.23503 -4.94287,3.12305 -4.85889,3.03906 -4.64893,2.8291 -4.44596,2.42318 -4.25,1.82129 -4.05404,1.2194 -3.80908,0.302572 -3.51514,-0.929199 -3.37516,-1.53109 -3.26318,-1.92301 -3.1792,-2.10498 c 0.08399,-0.18197 0.17147,-0.27995 0.26245,-0.29395 0.09099,-0.01399 0.22046,0 0.38843,0.042 0.16797,0.04199 0.41292,-0.028 0.73486,-0.20996 0.30795,-0.13998 0.48991,-0.18197 0.5459,-0.12598 0.05599,0.05599 0.06999,0.19946 0.04199,0.43042 -0.02799,0.23096 -0.06998,0.5319 -0.12597,0.90283 -0.05599,0.370932 -0.028,0.773357 0.08398,1.207276 0.09798,0.43392 0.05949,0.766358 -0.11548,0.997315 C -1.538,1.07593 -1.73747,1.26139 -1.96143,1.40137 -2.0874,1.45736 -2.19238,1.51335 -2.27637,1.56934 -2.44434,1.68132 -2.55632,1.7793 -2.6123,1.86328 c -0.028,0 -0.05599,0.014 -0.08399,0.04199 -0.32194,0.29395 -0.47591,0.63339 -0.46191,1.01831 0.01399,0.38493 0.13997,0.60539 0.37793,0.66138 0.08398,0.028 0.18896,0.08049 0.31494,0.15747 0.12597,0.07699 0.23095,0.15747 0.31494,0.24146 0.08398,0.08398 0.11898,0.16797 0.10498,0.25195 -0.014,0.08398 -0.10498,0.16797 -0.27295,0.25195 -0.19596,0.08399 -0.32194,0.21346 -0.37793,0.38843 -0.05599,0.17497 -0.09798,0.34994 -0.12598,0.5249 -0.02799,0.17497 -0.04199,0.33244 -0.04199,0.47242 0,0.13997 -0.04899,0.20996 -0.14697,0.20996 -0.08398,0 -0.12598,0.02099 -0.12598,0.06298 0,0.042 0.014,0.09799 0.042,0.16797 0.02799,0.06999 0.05598,0.16447 0.08398,0.28345 0.02799,0.11898 0.02799,0.23446 0,0.34644 -0.05599,0.11198 -0.08398,0.20296 -0.08398,0.27295 0,0.06998 0,0.14347 0,0.22045 0,0.07699 -0.007,0.16447 -0.021,0.26246 -0.014,0.09798 -0.07699,0.24495 -0.18897,0.44091 -0.19596,0.37793 -0.30794,0.65438 -0.33593,0.82935 -0.028,0.17497 -0.05599,0.37443 -0.08399,0.59839 -0.02799,0.11198 -0.03499,0.25545 -0.02099,0.43042 0.01399,0.17493 0.03499,0.33243 0.06298,0.47243 0.028,0.14 0.06299,0.2519 0.10498,0.3359 0.042,0.084 0.07699,0.098 0.10499,0.042 0.02799,-0.056 0.03499,-0.056 0.02099,0 -0.014,0.056 -0.02799,0.1365 -0.04199,0.2415 -0.014,0.1049 -0.014,0.1994 0,0.2834 0.014,0.084 0.07699,0.112 0.18896,0.084 0.08399,-0.028 0.13998,0.0525 0.16797,0.2415 0.028,0.1889 0.04899,0.3744 0.06299,0.5563 0.014,0.182 0.028,0.3395 0.04199,0.4725 0.014,0.1329 0.06999,0.1224 0.16797,-0.0315 0.08399,-0.14 0.18197,-0.259 0.29395,-0.357 0.11198,-0.0979 0.22396,-0.1889 0.33593,-0.2729 0.11198,-0.084 0.19247,-0.1505 0.24146,-0.1995 0.04899,-0.049 0.0245,-0.0875 -0.07349,-0.1155 -0.08398,-0.028 -0.23095,-0.0559 -0.44091,-0.0839 -0.20997,-0.028 -0.39543,-0.091 -0.5564,-0.189 -0.16097,-0.098 -0.24845,-0.2275 -0.26245,-0.3884 -0.014,-0.161 0.13997,-0.3815 0.46191,-0.6614 0.30794,-0.294 0.5424,-0.46893 0.70337,-0.52491 0.16097,-0.05599 0.28345,-0.10499 0.36743,-0.14698 0.08399,-0.04199 0.13998,-0.11898 0.16797,-0.23095 0.028,-0.11198 0.06999,-0.35694 0.12598,-0.73487 0.05599,-0.37793 0.014,-0.5284 -0.12598,-0.45141 C -1.76546,8.41756 -1.91593,8.51904 -2.0769,8.64502 -2.23787,8.771 -2.36035,8.84098 -2.44434,8.85498 -2.52832,8.86898 -2.48633,8.63102 -2.31836,8.14111 L -2.02441,7.23828 C -1.78646,7.18229 -1.52401,7.09131 -1.23706,6.96533 -0.950114,6.83936 -0.750651,6.70638 -0.638672,6.56641 -0.526693,6.44043 -0.456706,6.28646 -0.428711,6.10449 -0.400716,5.92253 -0.37972,5.71606 -0.365723,5.48511 -0.351725,5.25415 -0.330729,4.9882 -0.302734,4.68726 -0.27474,4.38631 -0.197754,4.04688 -0.0717773,3.66895 0.012207,3.361 0.0332031,3.13354 -0.00878906,2.98657 -0.0507813,2.8396 -0.11377,2.72412 -0.197754,2.64014 0.0262044,2.61214 0.281657,2.58415 0.568604,2.55615 0.85555,2.52816 1.16699,2.48617 1.50293,2.43018 H 1.60791 C 1.6359,2.48617 1.6499,2.56315 1.6499,2.66113 1.6499,2.75911 1.60091,2.92708 1.50293,3.16504 1.41895,3.361 1.41545,3.51497 1.49243,3.62695 1.56942,3.73893 1.6569,3.84041 1.75488,3.9314 1.85286,4.02238 1.93685,4.09587 2.00684,4.15186 2.07682,4.20785 2.06982,4.29183 1.98584,4.40381 1.92985,4.48779 1.90186,4.65926 1.90186,4.91821 c 0,0.25895 0,0.52491 0,0.79785 0,0.27295 0,0.5389 0,0.79786 0,0.25895 -0.042,0.44441 -0.12598,0.55639 C 1.62191,7.30827 1.50993,7.53923 1.43994,7.76318 1.36995,7.98714 1.29297,8.15511 1.20898,8.26709 V 8.41406 C 0.985026,8.69401 0.820557,9.03345 0.715576,9.43237 0.610596,9.8313 0.649089,10.2337 0.831055,10.6396 c 0.139974,0.35 0.181965,0.6019 0.125976,0.7559 -0.055989,0.154 -0.150472,0.2765 -0.283447,0.3674 -0.132975,0.091 -0.241455,0.1785 -0.325439,0.2625 -0.083985,0.084 -0.069987,0.21 0.041992,0.3779 0.111979,0.196 0.16097,0.3535 0.146972,0.4724 -0.013997,0.119 -0.027994,0.2625 -0.041992,0.4305 -0.013997,0.1679 -0.013997,0.3814 0,0.6403 0.013998,0.259 0.097982,0.6334 0.251953,1.1233 0.139974,0.4899 0.223959,0.8189 0.251953,0.9868 0.027997,0.168 0.062987,0.2765 0.104977,0.3255 0.042,0.049 0.11198,0.0735 0.20996,0.0735 0.09799,0 0.30795,0.042 0.62989,0.1259 0.05599,0 0.09098,0.007 0.10498,0.021 0.014,0.014 0.04899,0.021 0.10498,0.021 0,-0.028 0.007,-0.042 0.02099,-0.042 0.014,0 0.021,-0.014 0.021,-0.0419 0.05599,-0.056 0.08399,-0.056 0.08399,0 0.05598,0 0.05598,0.0279 0,0.0839 -0.028,0 -0.042,0.014 -0.042,0.042 h 0.042 0.04199 c 0.02799,-0.028 0.05599,-0.028 0.08398,0 v 0.042 h 0.14697 c 0,0 0.014,-0.028 0.042,-0.084 H 2.67871 2.7627 c -0.028,0 -0.042,0.014 -0.042,0.042 0,0.028 -0.01399,0.056 -0.04199,0.084 h 0.12598 c -0.028,-0.028 -0.05599,-0.042 -0.08399,-0.042 l 0.12598,-0.042 c 0.02799,0.028 0.04199,0.056 0.04199,0.084 0,0.028 0.028,0.042 0.08399,0.042 0,-0.028 0.02799,-0.042 0.08398,-0.042 0.028,0 0.04199,0.014 0.04199,0.042 0.78386,0 1.34025,0.007 1.66919,0.021 0.32894,0.014 0.51441,0.028 0.5564,0.042 0.04199,0.014 -0.0175,0.021 -0.17847,0.021 -0.16097,0 -0.33244,0 -0.5144,0 -0.18197,0 -0.35344,-0.014 -0.51441,-0.042 -0.16097,-0.028 -0.21346,-0.07 -0.15747,-0.126 -0.02799,0.028 -0.04199,0.056 -0.04199,0.084 h 0.04199 v -0.042 c 0,0 0.014,0.014 0.04199,0.042 v -0.084 c 0,0 0.014,0 0.042,0 0.02799,0.028 0.04199,0.056 0.04199,0.084 m 2.07861,-5.459 c -0.09798,0.084 -0.18896,0.154 -0.27295,0.21 0.15397,-0.056 0.27295,-0.056 0.35694,0 -0.028,-0.056 -0.042,-0.168 -0.042,-0.336 0,0.056 -0.01399,0.098 -0.04199,0.126 m -0.5249,0.294 c 0.02799,0 0.05599,-0.014 0.08398,-0.042 l -0.04199,0.042 H 5.63916 m -0.08398,2.0156 c 0.16796,-0.084 0.33243,-0.168 0.4934,-0.252 0.16097,-0.0839 0.31145,-0.1539 0.45142,-0.2099 -0.05599,-0.056 -0.05599,-0.126 0,-0.21 -0.19596,0.056 -0.35693,0.042 -0.48291,-0.042 -0.02799,-0.028 -0.04199,-0.056 -0.04199,-0.084 0,-0.028 -0.028,-0.0629 -0.08399,-0.1049 v 0.0629 c -0.05599,0.14 -0.10498,0.28 -0.14697,0.42 -0.04199,0.1399 -0.10498,0.2799 -0.18896,0.4199 m 1.0708,0.063 c 0,-0.042 0.04199,-0.091 0.12597,-0.147 -0.05599,0 -0.09798,-0.014 -0.12597,-0.042 C 6.54199,13.4881 6.5,13.4041 6.5,13.2642 c -0.05599,0.028 -0.11898,0.0559 -0.18896,0.0839 -0.06999,0.028 -0.14698,0.07 -0.23096,0.126 0.08398,0.028 0.26595,0.105 0.5459,0.231 m 0.48291,-1.6377 c -0.12598,0.028 -0.23096,0.028 -0.31494,0 0.05598,0.112 0.08398,0.1959 0.08398,0.2519 l 0.10498,-0.1259 0.12598,-0.126 m 0.5039,1.4487 c 0,-0.14 0.028,-0.2519 0.08399,-0.3359 l -0.12598,0.1679 -0.08398,0.084 c 0.05599,0.056 0.09798,0.084 0.12597,0.084 m 0.20996,-2.4355 c 0.042,-0.07 0.06999,-0.133 0.08399,-0.189 0.014,-0.056 0.03499,-0.112 0.06299,-0.168 -0.12598,0.112 -0.24496,0.168 -0.35694,0.168 0.05599,0.028 0.12598,0.091 0.20996,0.189 M -1.33154,5.09668 c 0.02799,-0.08398 0.04199,-0.19596 0.04199,-0.33594 0,0.25196 -0.007,0.57739 -0.021,0.97632 -0.01399,0.39893 -0.17496,0.75936 -0.48291,1.0813 0.11198,-0.29395 0.20297,-0.5319 0.27295,-0.71387 0.06999,-0.18196 0.13298,-0.5179 0.18897,-1.00781"
         fill-rule="evenodd"
         vector-effect="none" />
    </g>
    <g
       id="g16"
       font-style="normal"
       font-weight="400"
       font-size="7.8px"
       font-family="'MS Shell Dlg 2'"
       stroke="none"
       fill-opacity="1"
       fill="#b75800" />
  </g>
</svg>
