<svg xmlns="http://www.w3.org/2000/svg" version="1.2" viewBox="0 0 42.52 42.52" height="56.693" width="56.693">
   <g stroke-linejoin="bevel" stroke-linecap="square" fill-rule="evenodd" stroke="none" fill="none" font-weight="400"
      font-size="7.8" font-family="'MS Shell Dlg 2'">
      <path
         d="M42.52 21.26C42.52 33 33 42.52 21.26 42.52 9.518 42.52 0 33 0 21.26 0 9.518 9.518 0 21.26 0 33 0 42.52 9.518 42.52 21.26"
         vector-effect="non-scaling-stroke" fill="#b75800" />
      <path
         d="M29.629 34.46l-.042.106c-.028.028-.042.028-.042 0v-.063l.084-.042m-.084.042c-.028.042-.056.063-.084.063l.042-.105.042-.042v.084m.126.063c.028-.042.056-.042.084 0h-.042c-.028.028-.042.028-.042 0m-.042 0h.042v.084h-.084c0-.028.014-.042.042-.042-.028 0-.042-.007-.042-.021 0-.014-.014-.021-.042-.021l.042.042v.084h-.042v-.084c-.028 0-.028-.014 0-.042h-.084.168c-.028 0-.042-.021-.042-.063l.084-.042-.042.105m-.21.042c0 .028-.014.056-.042.084v-.126c.028 0 .042.014.042.042m.042 0c.028-.028.042-.014.042.042v.042h-.042c-.028 0-.042-.014-.042-.042 0-.028.014-.042.042-.042m-.441-1.05c-.028-.028-.042-.056-.042-.084l-.042-.042c.028 0 .042.007.042.02 0 .015.014.022.042.022v-.042.042h.168c.028 0 .056.014.084.042-.056 0-.098-.014-.126-.042v.042c0 .028-.007.042-.021.042-.014 0-.021.014-.021.042v.042l-.042-.084c.028-.028.042-.056.042-.084h-.084.042c0 .028-.014.056-.042.084v.042-.042m-.252 1.05c.028-.028.126-.077.294-.147a.758.758 0 00-.147.094.223.223 0 01-.147.053m-.693-1.869a.142.142 0 01-.042-.105.142.142 0 00-.042-.105c-.028-.028-.042-.056-.042-.084.028-.028.056-.007.084.063.028.07.042.147.042.231m1.386 1.764c-.028 0-.056.02-.084.063.056-.07.07-.105.042-.105.028 0 .042-.014.042-.042v.084m-.483.105c0 .028-.014.056-.042.084l-.042-.084c0-.098.028-.112.084-.042v.042m-.61-.861c.267-.21.456-.315.568-.315-.084 0-.273.105-.567.315m-.21-.147c0 .028.007.042.02.042.015 0 .022.02.022.063v.084c-.028.028-.056.028-.084 0v-.084h-.042c-.028-.042-.028-.077 0-.105 0-.028.028-.028.084 0m1.07.86v-.083c0-.028.015-.056.043-.084v.126l-.042.042m-.168.042h.042l.042.063c0 .028-.014.056-.042.084l-.042-.042v-.105m.084-.084l-.042.042v-.084c0-.028.014-.056.042-.084v.126m.042-.987h-.084l.042-.042c.028 0 .049-.007.063-.021.014-.014.035-.021.063-.021h.042l-.042.042c-.028 0-.042.007-.042.02 0 .015-.014.022-.042.022m-.945-.42c-.028.028-.056.028-.084 0h-.042c0-.056.028-.098.084-.126h.084c.028 0 .056-.014.084-.042-.028.028-.042.056-.042.084l-.084.084m.777 1.49l.042.106c-.028 0-.042.014-.042.042v-.147m.21.063c0 .028-.007.042-.021.042-.014 0-.021.014-.021.042l-.042.042v-.126c0-.042.028-.063.084-.063v.063m-.903-.735c.028-.028.077-.028.147 0a.07.07 0 01-.032.063.07.07 0 00-.031.063v.042l-.042-.042c-.028 0-.042-.014-.042-.042v-.084m.903-.315l.042.042c0 .028-.007.042-.021.042-.014 0-.021.014-.021.042l-.042.063V33.6c0-.028.014-.056.042-.084m-.126-.21c.028 0 .042-.014.042-.042v.042c0 .028-.007.042-.021.042-.014 0-.021.014-.021.042-.056.056-.084.056-.084 0v-.084h.084m.315 1.113c0 .028-.014.042-.042.042 0 .028-.021.042-.063.042-.028-.028-.028-.056 0-.084a.142.142 0 00.105-.042v.042m-.147-.945c0 .028-.014.028-.042 0l.042-.042.105.042h.042-.147m.105.084c.028 0 .042.014.042.042H29.314c-.028-.028-.042-.056-.042-.084l.105.042m-.105 1.092l-.042-.042.042-.105.042.105-.042.042m-.945-.903c-.028.028-.056.028-.084 0v-.189l.084.042v.147m-.378-.357l.042.084c.028 0 .035.007.02.02-.013.015-.034.022-.062.022-.028 0-.056-.014-.084-.042-.028 0-.042-.014-.042-.042h.042c.028 0 .042-.007.042-.021 0-.014.014-.021.042-.021m.252.042l.084.042.042.042c0 .028-.014.042-.042.042h-.126c-.028 0-.056-.014-.084-.042v-.042c.028-.028.07-.042.126-.042m.693-.084l.042-.084c0-.028.014-.042.042-.042v.126c-.028.028-.042.056-.042.084h-.042c-.056 0-.056-.028 0-.084m-.42.294c-.07 0-.105-.014-.105-.042v-.126h.042l.063.084c.028.028.028.056 0 .084m-.273-.42c.028.028.07.042.126.042h.042c0 .028-.056.07-.168.126-.028 0-.056-.014-.084-.042v-.084l.084-.042m-.084-.042c0-.028.042-.07.126-.126h.126c-.028.028-.042.056-.042.084-.028.028-.056.042-.084.042h-.126m-.042-.86v.125c0 .028-.014.042-.042.042h-.042v-.084l.084-.084m.126.294c-.084.084-.126.112-.126.084l.042-.084.084-.042c.028 0 .042-.014.042-.042l-.042.084m0 .231c-.028.028-.056.028-.084 0v-.042l.042-.105.084-.042h.042l-.084.189m.483.588c0-.056.014-.098.042-.126 0-.028.014-.042.042-.042v.042c0 .028.007.042.02.042.015 0 .022.014.022.042-.028.028-.042.056-.042.084-.056 0-.084-.014-.084-.042m-.168-.084c0 .028.014.042.042.042l.084.084c0 .028-.014.056-.042.084 0 .056-.028.028-.084-.084v-.126m-.4-.819c0 .028-.013.042-.041.042v-.084l.042-.042.042-.042v.042c0 .028-.007.042-.021.042-.014 0-.021.014-.021.042m-.294-.042c0-.028.014-.042.042-.042h.084c.028 0 .042.028.042.084l-.084-.042h-.084m1.197 1.89v.084l-.042-.042v-.084l.042.042m-1.071-2.058c.056.056.056.084 0 .084l-.084-.042v-.084l.084.042m.903 1.386l-.084-.063v-.126l.084.042v.147m.084-.19c.028.029.035.057.02.085-.013.028-.006.042.022.042l-.042-.042c-.028 0-.042-.014-.042-.042-.028-.028-.028-.056 0-.084l.042.042m-.42.189l.084.042v.126h-.042c-.056 0-.084-.014-.084-.042v-.126h.042m.336.714l.042.042c.056.028.07.042.042.042l-.042-.042c-.028 0-.042-.014-.042-.042m-.126-.63c-.056 0-.084-.014-.084-.042a.142.142 0 01-.042-.105V33.6c.056 0 .098.014.126.042 0 .042.007.063.02.063.015 0 .022.014.022.042v.042h-.042m-.735-.567c.028.028.056.042.084.042v.042c-.028.028-.05.042-.063.042-.014 0-.035.014-.063.042-.028 0-.056-.014-.084-.042-.028 0-.042-.014-.042-.042 0-.028.014-.042.042-.042.028 0 .07-.014.126-.042m.084-.168h-.084c-.028 0-.056-.014-.084-.042-.028 0-.042-.014-.042-.042h.126c.056 0 .084.014.084.042v.042m-.168.084c.028 0 .042-.007.042-.021 0-.014.014-.021.042-.021.028 0 .056.014.084.042 0 .056-.028.07-.084.042h-.084c-.028 0-.042-.014-.042-.042h.042m-.084.462l.084-.042c.056 0 .084.014.084.042v.042H27.78l.042-.042m.168-.798c.028 0 .056.014.084.042 0 .028-.028.042-.084.042h-.084c-.028 0-.042-.014-.042-.042h.042c.028 0 .042-.007.042-.021 0-.014.014-.021.042-.021m0-.147c.028 0 .042.014.042.042.028.028 0 .042-.084.042-.028 0-.056-.014-.084-.042h.042c.028 0 .042-.007.042-.02 0-.015.014-.022.042-.022m-.042-.126l.042.042c0 .056-.007.084-.021.084-.014 0-.021-.014-.021-.042h-.084v-.042l.084-.042M26.71 33.6l.042.106v.042l-.042-.042V33.6m-.042.105V33.6l.042.105c0 .028-.014.056-.042.084v-.084m.21-.147l-.042.042c.028.028.028.042 0 .042V33.6c0-.028.014-.042.042-.042m-.126.189c-.028 0-.042.007-.042.02 0 .015-.014.022-.042.022.028 0 .042-.007.042-.021 0-.014.014-.021.042-.021l.042-.042-.042-.063v-.084l.042.084v.063c0-.042.014-.063.042-.063.028 0 .042.02.042.063l-.042.042c-.028 0-.042-.014-.042-.042l-.042.042h.042c.028 0 .056.014.084.042h-.126v-.042m-.042.21l-.042-.042c-.042-.028-.063-.056-.063-.084l.063.042.042.042v.042m0-.126c0-.028.014-.028.042 0 .028 0 .042.014.042.042h-.084c-.028-.028-.028-.042 0-.042m-1.008-.441c-.028-.028-.042-.056-.042-.084-.028 0-.056.014-.084.042h.042c.028.028.056.042.084.042v.042h-.084c-.028 0-.042-.028-.042-.084l-.042.042c0-.028.014-.042.042-.042h-.042.042l.126-.126h.105l-.063.042h-.084c.028 0 .042.014.042.042l.042.042v.042h-.042m-1.28.126a.285.285 0 01-.21-.084c-.028-.028-.056-.042-.084-.042.028.028.056.042.084.042.028.028.056.042.084.042.028 0 .07.014.126.042m2.183.315c0-.028-.007-.042-.02-.042-.015 0-.022-.014-.022-.042l.042-.042v.126m-1.07-.441c-.057.028-.092.101-.106.22a4.927 4.927 0 01-.063.389c0-.14.014-.27.042-.389.028-.119.07-.192.126-.22m.903.483h-.042v-.126l.042.084c.028.028.028.042 0 .042m-.126.084c-.028 0-.042-.028-.042-.084v-.042l.084.084v.042h-.042m-.65-.777c0 .056-.015.084-.043.084v-.084c0-.028.014-.056.042-.084l.042-.042v.042c0 .028-.014.056-.042.084m-.986.21v.084c0 .028.007.049.02.063.015.014.022.035.022.063l-.084.105c-.056-.07-.07-.12-.042-.147l.084-.168m1.805.609v-.084l.042.042v.084c0 .028.014.042.042.042l-.084-.084m-.735-.735l.105-.042c0 .028.007.042.021.042.014 0 .021.014.021.042v.042h-.042c-.028 0-.042-.014-.042-.042l-.063-.042m-.252.042v-.168c0-.028.014-.042.042-.042v.042c0 .028.007.042.021.042.014 0 .021.014.021.042 0 .028-.014.056-.042.084h-.042m1.071.483c0 .028-.014.042-.042.042-.028 0-.042-.014-.042-.042l.042-.084.042.084m-.756-.609c0 .028-.02.042-.063.042-.056 0-.056-.028 0-.084l.063-.042h.042l-.042.084m.084-.042c.028 0 .056.014.084.042l-.084.042c-.028 0-.042-.014-.042-.042l.042-.042m.63.735l.084.042v.084l-.084-.042v-.084m-1.113-.441v-.084c-.028 0-.042-.028-.042-.084v-.042h.042l.042.084v.126h-.042m-.21.399h.084c.028 0 .042.014.042.042 0 .084-.028.098-.084.042-.028 0-.042-.014-.042-.042l-.042-.042h.042m-.357-.042l.19-.084c-.029 0-.043.014-.043.042v.126c-.028.028-.056.042-.084.042h-.063v-.126m-.125-.19l.083-.041c.028 0 .042-.014.042-.042v.189c-.028.028-.042.056-.042.084h-.041c-.028-.028-.042-.091-.042-.19m-.588-.21l-.042-.125.084.084c.028 0 .028.014 0 .042h-.042m.294 0c0 .084-.014.126-.042.126l-.042-.084v-.126c0-.028.014-.042.042-.042v.042c0 .028.014.056.042.084m.126.084c0 .056-.014.084-.042.084l-.042-.084v-.084l.042-.042v.042c0 .028.007.042.02.042.015 0 .022.014.022.042m.86.084c-.028.028-.056.028-.084 0-.028-.028-.042-.056-.042-.084v-.042h.084c0 .028.014.056.042.084v.042m-.126.189c-.056 0-.084-.035-.084-.105l-.042-.042h.042c.056 0 .098.014.126.042a.204.204 0 01.042.105h-.084m-1.028-.315l-.042-.084v-.084h.042l.042.084v.084h-.042m-.084 0l-.042.042c-.028.028-.056.042-.084.042v-.042l.084-.042c0-.028.014-.028.042 0m2.057.65c0-.027-.014-.055-.042-.083h.084c.028 0 .042.014.042.042l-.084.042m-2.141-.693c0 .028-.028.042-.084.042l-.063-.084h.105c.028 0 .049.007.063.02.014.015.007.022-.021.022m1.532.21l-.084.042h-.084V33.6l.042-.042c.028 0 .042.007.042.02 0 .015.014.022.042.022h.042m.042-.084l-.084-.042c-.028.028-.056.028-.084 0 0-.028.028-.042.084-.042l.084.084m-.126.399c0 .028.014.042.042.042l-.042.042h-.084c-.028 0-.042-.014-.042-.042l-.042-.042h.042l.084-.042.042.042m-.126-.168c0-.028.028-.042.084-.042.028 0 .042.007.042.02 0 .015.014.022.042.022 0 .028.014.042.042.042l-.042.042h-.084l-.084-.084m-.902 0c.056-.07.084-.07.084 0l-.042.084c-.028.028-.056.042-.084.042h-.042c.028 0 .042-.014.042-.042 0-.028.014-.056.042-.084m-.042-.147c.028 0 .014.035-.042.105-.028.028-.056.042-.084.042v-.042c0-.042.014-.077.042-.105.028-.028.056-.028.084 0m-.126 0l-.084.105v-.063c0-.028.014-.056.042-.084.028-.028.056-.028.084 0l-.042.042m-.084-.126c.056.056.042.084-.042.084 0 .028-.014.028-.042 0h-.042l.042-.084h.084m2.54-8l-.042-.042h.042l.042.042h-.042m.504-1.112c0-.056.028-.084.084-.084l-.042-.042.042.042v.042l.084.168v.042c-.028 0-.042-.028-.042-.084h-.042c-.028.028-.056.042-.084.042h-.042l.042-.084h.126c-.028-.028-.042-.056-.042-.084v.042c-.028.028-.056.042-.084.042h-.042l.042-.042m.44-1.512c.029.028-.048.133-.23.315a.202.202 0 00.084-.105.264.264 0 01.063-.105l.084-.105m-.231 1.554a.204.204 0 00.105.042l.042.042h-.042c-.07 0-.105-.014-.105-.042-.084 0-.098-.028-.042-.084l.042.042m-.126-.987c-.028 0-.056-.014-.084-.042v-.042c.028 0 .042-.007.042-.021 0-.014.014-.021.042-.021h.042c.056.056.105.084.147.084l.042.042H27.382m.042 1.07v.085h-.126l.042-.042c.028-.028.056-.042.084-.042m.084-.126c-.056-.028-.084-.056-.084-.084l.084-.042.105.084-.105.042m0 .168h-.042c0-.056.035-.056.105 0v.084l-.063-.084m-.042.126c0 .042-.014.063-.042.063l-.042-.105c.028-.028.056-.042.084-.042v.084m.042-.462h-.084c-.028.028-.056.028-.084 0 0-.056.028-.07.084-.042H27.571l-.063.042m-.42-.735l.084.042c0 .028.007.049.021.063.014.014.021.035.021.063v.042l-.168-.084v-.126h.042m.084-.042c.028-.028.084-.028.168 0 0 .028.007.042.021.042.014 0 .021.014.021.042v.042h-.042c-.056 0-.084-.014-.084-.042l-.084-.084m.693-.525l-.084.063c-.028.028-.056.028-.084 0l.084-.063h.084m-.21.23c.028 0 .042.008.042.022 0 .014.014.02.042.02h.042-.126c-.056 0-.084-.013-.084-.041h.084m-.147.168c-.028 0-.042-.028-.042-.084h.147l.042.042c0 .028.014.042.042.042h-.189m-.126.735c0 .028-.014.042-.042.042-.028.028-.056.042-.084.042h-.042c-.028-.028-.014-.07.042-.126h.126v.042m-.168-.126c0 .056-.014.084-.042.084-.028.028-.056.042-.084.042-.028-.028-.028-.07 0-.126l.084-.042c.028 0 .042-.014.042-.042v.084m.525-.903l.084.042h.042l-.042.042h-.084c-.028 0-.056-.014-.084-.042l.084-.042m-.084-.042v-.105c-.028-.028-.042-.056-.042-.084 0 .028.014.042.042.042l.042.042c.028.028.028.063 0 .105h-.042m.168-.147c0 .028-.007.049-.021.063-.014.014-.021.007-.021-.021-.028 0-.042-.028-.042-.084l.042-.042h.042v.084m-.735 1.386c0-.028.014-.056.042-.084h.042l.042.084-.084.084-.042-.084m.21.084c-.084.084-.126.112-.126.084v-.042l.042-.042c0-.028.014-.056.042-.084h.042v.084m-.336-.084v-.084l.084-.084c.028.028.05.042.063.042.014 0-.007.028-.063.084 0 .028-.014.042-.042.042-.028 0-.042.014-.042.042v-.042m.462-1.03c0 .029-.028.015-.084-.041v-.084h.042l.042.084c.028.028.028.042 0 .042m.042-.126c-.028-.028-.042-.056-.042-.084 0 .028.014.042.042.042l.042.042c.042.028.042.042 0 .042 0 .028-.007.035-.021.02-.014-.013-.021-.034-.021-.062m.147-.042c-.028.028-.042.014-.042-.042-.042-.042-.042-.077 0-.105l.084.105c0 .028-.014.042-.042.042M23.267 8.93h-.042c.028.028.014.056-.042.084 0 .027-.014.041-.042.041v-.041l.042-.084h.042c-.028-.028-.056-.042-.084-.042v.126a.142.142 0 01-.105.041V8.93c0-.028.02-.042.063-.042h-.147.084c.07 0 .133.014.189.042h.042m1.197-.483a1.1 1.1 0 01-.126.189c.056-.098.112-.175.168-.231.056-.056.084-.07.084-.042l-.042.042c-.028 0-.042.007-.042.02 0 .015-.014.022-.042.022h.084l.084.084h-.084c-.056.07-.084.056-.084-.042v-.042m-1.323.399c-.028.028-.063.014-.105-.042-.028 0-.042-.014-.042-.042V8.72h.042l.105.084c.028 0 .028.014 0 .042m1.07 0l-.083-.042c-.028-.028-.042-.07-.042-.126 0-.028-.014-.056-.042-.084 0 .028.014.042.042.042.028.028.049.042.063.042.014 0 .035.014.063.042v.126m-1.26.168V8.93c0-.028.014-.042.042-.042v.084c0 .028-.014.056-.042.083v-.041m.315-.168c-.056.056-.084.042-.084-.042v-.126l.084.084v.084m-.273 0h-.042l-.084-.042h.084c.028 0 .049.007.063.02.014.015.007.022-.021.022m-.084.042c.028.028.014.042-.042.042-.028.028-.056.028-.084 0l.084-.042c.028-.028.042-.028.042 0m.483-.042c.028.028.014.07-.042.126-.028 0-.042-.014-.042-.042v-.168l.042-.042v.042c0 .028.014.056.042.084m.693.293h-.084c-.098-.084-.147-.14-.147-.167 0 .028.014.042.042.042h.147c.112.055.126.083.042.083v.042m.042-.167c-.028 0-.056-.014-.084-.042-.028 0-.042-.014-.042-.042v-.084l.084.042c.056.028.084.07.084.126h-.042m.378-.567V8.32l.042-.084.042.084-.084.084m-.126.189c-.028 0-.056-.05-.084-.147v-.084l.042.042c0 .028.014.056.042.084v.105m-.084.084c-.056 0-.084-.014-.084-.042v-.189l.084.084v.147m-.735.336c-.028.027-.07.041-.126.041V8.93l.084-.084c.028 0 .042.014.042.042v.126m.084.125c-.028.028-.056.042-.084.042v-.084c0-.083.028-.125.084-.125h.084l-.084.167m.819-.776c0 .028-.014.056-.042.084l-.042-.042V8.32l.042-.042.042.084m.126.042c.028 0 .056.014.084.042h-.084c-.028 0-.042-.014-.042-.042 0-.028.014-.028.042 0m.084-.084c-.028.028-.056.028-.084 0l.042-.042.084-.042v.042c0 .028-.014.042-.042.042m-1.407.86c.028 0 .042-.014.042-.042l.042-.084c.028 0 .056.014.084.042l-.042.084h-.126m0-.21c.028 0 .056.015.084.043l-.084.041c0 .028-.014.042-.042.042-.028 0-.042.014-.042.042.028-.028.042-.056.042-.084 0-.027.014-.055.042-.083m1.07-.042c-.111-.056-.125-.084-.041-.084-.028-.028-.035-.042-.021-.042.014 0 .035.014.063.042.028 0 .042.007.042.02 0 .015.014.022.042.022 0 .028.014.042.042.042h-.126m-.126.084c0-.056.042-.07.126-.042l.042.042c0 .027.014.041.042.041H24.212v-.041m.294-.252h-.126c-.028 0-.05-.007-.063-.021-.014-.014-.007-.021.02-.021l.085-.042.084.084m-.042-.084c-.056-.028-.07-.056-.042-.084h.042l.084.042.042.042h-.126m-8.903 3.527h0c.056 0 .056.028 0 .084v.084c-.028 0-.042-.014-.042-.042v-.126l-.042.042v.126l-.042-.084c-.028-.028-.028-.042 0-.042h-.126.042a.186.186 0 00.084-.021.292.292 0 01.126-.021v-.063.063m.903-1.008c0 .028-.007.06-.02.095a.258.258 0 00-.022.094c0-.098.007-.182.021-.252.014-.07.035-.09.063-.063v.042c0 .028-.007.042-.021.042-.014 0-.021.014-.021.042l.042-.042h.126l-.042.042c0 .028-.014.042-.042.042 0 .042-.014.063-.042.063-.028 0-.042-.035-.042-.105m-1.029.945c0 .07-.028.07-.084 0-.028 0-.056-.014-.084-.042h.126c.028 0 .042.014.042.042m.861-.504c-.056 0-.098-.014-.126-.042-.028-.028-.042-.056-.042-.084h.084c.028 0 .05.007.063.021.014.014.035.021.063.021.028 0 .042.028.042.084h-.084m-.903.693c.028.028.028.056 0 .084l-.042-.042c-.028 0-.042-.014-.042-.042v-.042h.042l.042.042m.168-.231c-.028.028-.07.028-.126 0-.028-.028-.042-.056-.042-.084h.126l.042.084m-.252.147h-.126l.084-.042c.056 0 .084.014.084.042h-.042m-.084.084c0-.028.014-.042.042-.042h.042c0 .028-.014.056-.042.084h-.084l.042-.042m.42-.19l-.042-.083c-.028 0-.042-.028-.042-.084v-.042c0 .028.014.042.042.042l.084.084v.084h-.042m.651-.462c.056.028.084.07.084.126h-.084c-.056 0-.084-.014-.084-.042-.028 0-.042-.014-.042-.042h.042c.028 0 .042-.007.042-.021 0-.014.014-.021.042-.021m.084-.735l.084.084c.028.028.028.056 0 .084l-.042-.042-.042-.126m-.084.357c-.028 0-.042-.035-.042-.105v-.042c0 .028.014.042.042.042.028 0 .042.007.042.021 0 .014.014.021.042.021a.204.204 0 01.042.105c-.028.028-.07.014-.126-.042m0 .168c-.028 0-.042-.028-.042-.084 0-.028-.014-.042-.042-.042h.042c.028 0 .056.014.084.042.028.028.042.056.042.084 0 .056-.028.056-.084 0m-.44.546c0 .028.02.056.062.084 0 .07-.035.105-.105.105-.028 0-.042-.021-.042-.063v-.084c-.028 0-.028-.014 0-.042l.042-.042.042.042m.19.126c0 .07-.008.112-.022.126-.014.014-.02.007-.02-.021l-.043-.105c0-.028.014-.056.042-.084l.042-.042v.126m.294-.945c-.028-.028-.042-.056-.042-.084v-.042h.042c.028 0 .042.007.042.021 0 .014.014.021.042.021v.084h-.084m.252-.126l.042.042h-.084l-.042.042c0-.056.014-.084.042-.084h.042m0-.168v.084c-.028.028-.056.042-.084.042-.056 0-.056-.028 0-.084l.084-.042m-.777 1.344v.084c-.028.028-.056.042-.084.042v-.126h.084m-.126.042c0 .028-.014.056-.042.084-.028 0-.042-.014-.042-.042v-.084c.028-.028.056-.042.084-.042v.084m.168.042a.259.259 0 01.147-.042v.042c0 .028-.014.056-.042.084l-.105.084v-.042-.126m.777-.693c-.028 0-.042.007-.042.021 0 .014-.014.021-.042.021-.056 0-.091-.007-.105-.021-.014-.014-.007-.021.021-.021-.028-.028-.014-.042.042-.042h.168l-.042.042m-.168-.168l.042-.042.084.042h.042-.042c-.028 0-.042.007-.042.021 0 .014-.014.021-.042.021-.056 0-.07-.014-.042-.042m.168-.126l-.084.042c-.084 0-.112-.014-.084-.042l.042-.042.084.042h.042m15.096 18.603c-.028.098-.14.175-.336.23.196.28.154.595-.126.945-.21.196-.399.28-.567.252 0 .056.007.098.021.126.014.028-.007.07-.063.126-.112.14-.238.14-.378 0l-.063-.042a.372.372 0 01-.042.168 2.504 2.504 0 00-.083.19.808.808 0 01-.536.293.606.606 0 01-.535-.168.854.854 0 01-.231-.525.747.747 0 01.189-.546 3.081 3.081 0 00-.294-.126.616.616 0 00-.357-.02 2.516 2.516 0 00-.504.398c-.084.14-.172.29-.263.452a3.397 3.397 0 01-.304.451l-.189.19-.189.188c.14.14.217.277.231.41.014.133.05.227.105.283.112.14.228.255.346.346.12.091.235.193.347.305.028-.056.056-.123.084-.2.028-.077.056-.171.084-.283.028-.14.035-.266.02-.378a2.297 2.297 0 01-.02-.273c.056.098.056.315 0 .65-.028.21-.07.358-.126.442l.042.042a.738.738 0 00.21-.084c.084 0 .14-.014.168-.042-.112.112-.224.168-.336.168l.084.084.042-.042.042-.084c.056 0 .07.028.042.084v.084c.21.14.385.329.525.567.028.084.07.126.126.126.056.14.164.21.325.21s.214.028.158.084c-.07.084-.368.178-.893.283a9.334 9.334 0 01-1.816.158H15.1c-.49-.042-.815-.091-.976-.147-.161-.056-.213-.12-.157-.19.056-.07.171-.146.346-.23a8.49 8.49 0 00.504-.263c.16-.09.283-.171.367-.241.084-.07.07-.133-.042-.19-.056-.027-.119-.181-.189-.461l-.042.042c-.364.14-.637.049-.819-.273-.028-.028-.042-.112-.042-.252l-.041.042c-.084.056-.168.042-.252-.042-.028-.056-.028-.126 0-.21a.65.65 0 01-.378-.315c-.182-.308-.168-.532.042-.672-.154-.056-.231-.147-.231-.273 0-.056.063-.084.189-.084-.126-.308-.056-.532.21-.672-.084-.154-.112-.3-.084-.44a.393.393 0 01.21-.294.285.285 0 01.21-.084c0-.084.042-.161.125-.231-.027-.056.007-.112.105-.168.028-.028.098 0 .21.084 0-.056.028-.112.084-.168.168-.056.308-.042.42.042l.042-.042c.126-.056.245-.014.357.126.028.028.042.119.042.273.084-.406.168-.82.252-1.24.084-.42.203-.825.357-1.217.168-.602.322-1.183.462-1.743s.238-1.056.294-1.49h-.084a.72.72 0 00-.294.042.263.263 0 00-.063.105 3.228 3.228 0 01-.063.168c.224 0 .336.112.336.336 0 .223-.126.335-.378.335-.084 0-.126-.014-.126-.042v.042c0 .084-.049.126-.147.126-.028-.028-.049-.042-.063-.042-.014 0-.035-.014-.063-.042-.056.126-.14.154-.252.084-.196 0-.322-.07-.378-.21-.028.028-.09.042-.189.042-.056-.028-.056-.07 0-.126-.196-.056-.294-.167-.294-.335-.28 0-.392-.105-.336-.315v-.126c-.056-.056-.084-.098-.084-.126 0-.028-.007-.042-.02-.042-.015 0-.022-.028-.022-.084l.084-.084v-.084c0-.084.042-.154.126-.21v-.042c0-.098.056-.147.168-.147.084 0 .126.014.126.042a.75.75 0 01.21-.21h-.042c0-.084.042-.126.126-.126a.13.13 0 01.074.02.13.13 0 00.073.022c0-.14.098-.21.294-.21.056-.056.098-.084.126-.084.028 0 .07.042.126.126h.042a.654.654 0 01.273-.084c.252 0 .378.112.378.336 0 .028-.007.049-.02.063-.015.014-.022.049-.022.105.14.056.21.147.21.273 0 .168-.098.252-.294.252.112.056.28.098.504.126 0-.224-.007-.417-.021-.578a.572.572 0 00-.147-.367c-.392-.49-.717-.805-.976-.945a2.56 2.56 0 01-.704-.567c-.252-.196-.364-.644-.336-1.344.028-.7.105-1.459.231-2.278s.263-1.61.41-2.372c.147-.763.22-1.299.22-1.606 0-.546.203-1.134.61-1.764l.041-.084h.042c0-.028.014-.042.042-.042-.266-.154-.44-.21-.525-.168.084-.042.26.014.525.168v-.042-.084c0-.182.028-.245.084-.19.056.057.042.015-.042-.125.084-.084.168-.07.252.042.028-.056.056-.091.084-.105a.597.597 0 00.126-.105c-.028.028-.056.042-.084.042-.056.028-.084.014-.084-.042l.084-.042h.126c.056-.056.115-.112.178-.168.063-.056.123-.112.179-.168 0-.056-.007-.122-.021-.2a1.348 1.348 0 01-.021-.24l-.084-.169-.084-.168a7.384 7.384 0 00-.357-.126c.056.14.056.252 0 .336-.056.084-.126.126-.21.126-.196.056-.357-.056-.483-.336v-.21h-.042c-.084 0-.14-.049-.168-.147 0-.056.014-.098.042-.126a.614.614 0 01-.21-.294c-.056-.224-.014-.385.126-.483-.084-.084-.112-.154-.084-.21 0-.056.028-.056.084 0 0-.223.084-.363.252-.42-.112-.293-.049-.44.19-.44.055-.028.09-.035.104-.021.014.014.035.02.063.02 0-.083.028-.125.084-.125 0-.056.028-.084.084-.084.028 0 .07.042.126.126.056-.056.098-.084.126-.084.084 0 .154.042.21.126h.105c.084 0 .14.056.168.168v.23c.084 0 .182.057.294.169v-.042c.084 0 .14.056.168.168 0 .056-.014.084-.042.084.182.055.3.167.357.335.084.056.126.105.126.147.028.056 0 .112-.084.168.028 0 .028.014 0 .042.112.112.182.21.21.294.056.322-.028.483-.252.483h-.147a.393.393 0 01-.21.294c-.168 0-.294-.098-.378-.294 0 .084.007.19.02.315.015.126.036.273.064.441.028 0 .042.021.042.063.658-.49 1.4-.777 2.225-.86a7.038 7.038 0 002.121-.526c.658-.28 1.274-.497 1.848-.65 0-.029.014-.043.042-.043.056-.112.084-.112.084 0l.042-.042c-.168-.167-.266-.251-.294-.251.084 0 .182.084.294.251h.252c.056-.028.175-.042.357-.042l.084-.042c.028 0 .042.014.042.042.364 0 .661.081.892.242.23.16.42.37.567.63.147.259.283.546.41.86.125.316.293.641.503.977.112.196.14.395.084.598a3.727 3.727 0 01-.241.63l-.305.63a1.37 1.37 0 00-.147.599c0 .251.091.52.273.808.182.287.375.58.578.882.203.3.364.588.483.86.118.273.101.515-.053.725-.14.168-.189.518-.147 1.05.042.532.091 1.099.147 1.7.056.602.091 1.166.105 1.69.014.525-.063.879-.231 1.06 0 .029.014.043.042.043 0 .028.007.042.021.042.014 0 .021.014.021.042.028 0 .042.007.042.02 0 .015-.014.022-.042.022 0 .084-.028.07-.084-.042v-.126c-.028 0-.042.007-.042.02 0 .015-.014.022-.042.022v.042c0 .028.007.042.021.042.014 0 .021.014.021.042.056.056.056.084 0 .084 0 .084-.028.07-.084-.042v-.042a.616.616 0 01-.042.23c-.028.07-.056.148-.084.232v.105c.028-.042.056-.063.084-.063V23.9c-.112.056-.14.056-.084 0h-.042v.042c.28.112.42.21.42.294 0-.056-.14-.14-.42-.252v.084c0 .028-.014.042-.042.042-.028.14-.049.283-.063.43-.014.147-.035.29-.063.43h.042l-.042.043v.084l.042.042h-.084v.041h.042c0 .028-.014.042-.042.042l.042.042h.084-.126v.042h.126l-.084.042c-.028 0-.042-.014-.042-.042l.042.084c0-.028.014-.042.042-.042h.042l-.084.042v.042l-.042.042v-.042c-.126.658-.224 1.39-.294 2.195-.07.804-.119 1.578-.147 2.32 0 .322.014.668.042 1.039.028.37.07.76.126 1.165.028 0 .042.007.042.021 0 .014.014.021.042.021h.042c.098-.112.21-.227.336-.346.126-.12.26-.235.399-.347.378-.518.623-.916.735-1.196-.308.252-.595.28-.86.084-.197-.168-.239-.413-.127-.735a1.152 1.152 0 00-.147-.063.265.265 0 01-.105-.063.71.71 0 01-.294-.536.632.632 0 01.21-.535c.168-.21.35-.315.546-.315 0-.084.014-.126.042-.126-.084-.112-.098-.224-.042-.336.056-.056.161-.084.315-.084.28-.266.56-.322.84-.168 0-.126.02-.203.063-.23.112-.169.224-.197.336-.085v.084c.196-.14.399-.14.609 0 0-.056.014-.105.042-.147.028-.042.056-.09.084-.147.196-.196.35-.238.462-.126l.084.042c.21-.056.384-.028.524.084.056.056.084.098.084.126 0 .028.014.056.042.084.14-.056.224-.056.252 0 .126.056.154.126.084.21.098.126.133.245.105.357.084 0 .168.042.252.126.14.112.21.27.21.472a.7.7 0 01-.21.515c.28.294.308.609.084.945.14.056.21.126.21.21M17.325 9.832V9.79v.042m-.168-.399c0 .07-.028.133-.084.19.056 0 .112.027.168.083-.056-.056-.084-.112-.084-.168v-.105m-1.029.651v-.042l-.042-.126c0 .056-.007.091-.02.105-.015.014-.022.035-.022.063h.084m.588-.42c-.056 0-.112-.028-.168-.084l.042.084.042.084.084-.084m-.294-.776h.126a.658.658 0 01-.126-.168v.168m.042 1.595a.338.338 0 00.147.042c.042 0 .091.014.147.042a.489.489 0 00-.084-.126.45.45 0 01-.084-.147c0 .07-.028.105-.084.105h-.084c.028.028.042.056.042.084m.525.294a.517.517 0 01-.021-.252c.014-.084.02-.16.02-.23v-.043c-.027 0-.041.007-.041.021 0 .014-.014.021-.042.021-.126 0-.203-.042-.231-.126 0 .028-.007.05-.021.063-.014.014-.021.035-.021.063.056.07.115.147.178.231.063.084.123.168.179.252m-2.163 13.459c0-.028-.042 0-.126.084.028 0 .05.007.063.02.014.015.035.022.063.022v-.126m.735.168c-.028 0-.042-.028-.042-.084l-.084.084h.126m-.042-.42c0-.084.028-.126.084-.126H15.393c.028.028.05.042.063.042.014 0 .035.028.063.084m.252 1.07v-.083h-.126c.056.056.098.084.126.084m.483-.567a.736.736 0 01-.21.084c.028.028.042.077.042.147v.042h.042l.126-.273m-.252.084a.376.376 0 01.21-.105.647.647 0 00.252-.105 5.906 5.906 0 01-.42-.126v.084c0 .084-.042.14-.126.168.056 0 .084.028.084.084m-1.68 8.125c.056 0 .098-.014.126-.042l-.042-.042-.084-.126c.028.084.028.154 0 .21m.21-1.848a.368.368 0 01.105-.042.368.368 0 00.105-.042c-.084 0-.168-.042-.252-.126a.468.468 0 01.042.21m.462 1.05a.201.201 0 00.063-.147.259.259 0 00-.147-.042l.084.126v.063m11.716-6.593v.084-.084m-.23 8.777c.405 0 .615-.102.63-.305.013-.203-.057-.455-.21-.755-.155-.301-.34-.63-.557-.987-.217-.357-.34-.676-.368-.956a3.825 3.825 0 00-.241-.85 2.5 2.5 0 00-.368-.62 59.098 59.098 0 00-.23-1.973c-.099-.742-.225-1.316-.378-1.722.097-.084.216-.287.356-.609l.42-.976c.112-.259.2-.476.263-.65.063-.176.101-.312.115-.41a1.56 1.56 0 01.063-.273c.028-.098-.003-.025-.094.22s-.193.504-.305.777c-.112.273-.203.483-.273.63-.07.147-.077.06-.02-.262.027-.308.013-.536-.043-.683a2.657 2.657 0 00-.168-.367.686.686 0 01-.084-.347c0-.133.07-.353.21-.661.168-.294.252-.504.252-.63a.846.846 0 00-.063-.336 1.288 1.288 0 01-.084-.388c-.014-.161.05-.43.19-.809a7.55 7.55 0 01.514-1.217c.23-.448.42-.83.567-1.145.147-.315.22-.535.22-.661s-.147-.063-.44.189c-.28.266-.501.455-.662.567-.161.112-.29.175-.389.189a.374.374 0 01-.252-.042c-.07-.042-.154-.091-.252-.147a.977.977 0 01-.356-.242.977.977 0 00-.357-.241c0-.14.063-.266.189-.378.126-.112.364-.224.713-.336.658-.182.987-.315.987-.399 0-.084-.122-.147-.367-.189a6.6 6.6 0 00-.777-.084c-.273-.014-.325-.049-.157-.105.153-.056.244-.157.272-.304a.818.818 0 00-.031-.43 1.265 1.265 0 00-.22-.39.985.985 0 00-.315-.262 8.804 8.804 0 00-.599-.23c-.203-.07-.493-.224-.871-.462-.168-.112-.245-.224-.231-.336a.69.69 0 01.168-.347c.098-.119.227-.234.388-.346.161-.112.284-.224.368-.336.112-.112.119-.182.02-.21a1.207 1.207 0 00-.409-.021 3.272 3.272 0 00-.577.105c-.21.056-.378.098-.504.126l-1.06.21c-.427.084-.718.182-.872.294-.14.126-.287.13-.44.01a2.676 2.676 0 01-.378-.346c-.112-.084-.26-.042-.441.126-.182.168-.42.37-.714.609l-.168.252a1.934 1.934 0 00-.147.262 2.564 2.564 0 00-.105.263c-.056.196-.15.307-.284.335-.133.028-.325-.3-.577-.986.196.028.41-.123.64-.452.231-.329.515-.605.85-.83a3.83 3.83 0 011.323-.503 27.438 27.438 0 011.743-.273c.686-.084 1.221-.227 1.606-.43a4.162 4.162 0 001.103-.872c.168-.168.224-.294.168-.378-.056-.084-.172-.126-.347-.126s-.392.014-.65.042c-.26.028-.487.056-.683.084-.406.056-.714.179-.924.368-.21.189-.462.325-.756.41-.308.083-.665.195-1.07.335-.407.14-.847.238-1.323.294-.21.21-.385.371-.525.483-.14.14-.284.252-.43.336a2.457 2.457 0 00-.347.23c-.112.057-.224.19-.336.4-.112.21-.189.406-.231.588-.084-.126-.154-.088-.21.115a3.592 3.592 0 00-.105.777l-.042 1.008c-.014.357-.02.626-.02.808 0 .42.048.767.146 1.04.098.272.238.598.42.976.084.168.14.318.168.451.028.133.035.27.02.41-.013.14-.062.311-.146.514-.084.203-.217.487-.399.85-.168.378-.23.616-.189.714.042.098.137.126.284.084.146-.042.304-.133.472-.273.168-.14.294-.252.378-.336.21-.21.413-.615.609-1.217.196-.602.44-1.52.735-2.75.14-.603.252-.995.336-1.177.084-.182.171-.28.262-.294.091-.014.22 0 .388.042s.413-.028.735-.21c.308-.14.49-.182.546-.126.056.056.07.2.042.43-.028.232-.07.533-.126.904-.056.37-.028.773.084 1.207.098.434.06.766-.115.997a2.243 2.243 0 01-.599.557 2.14 2.14 0 00-.315.168c-.168.112-.28.21-.336.294-.028 0-.056.014-.084.042-.321.294-.475.633-.461 1.018.014.385.14.605.377.661.084.028.19.08.315.158.126.077.231.157.315.241.084.084.12.168.105.252-.014.084-.105.168-.273.252-.196.084-.322.214-.378.389a3.574 3.574 0 00-.168.997c0 .14-.049.21-.146.21-.084 0-.126.02-.126.063 0 .042.014.098.042.168.028.07.056.164.084.283a.725.725 0 010 .347.654.654 0 00-.084.273v.22c0 .077-.007.165-.021.263-.014.098-.077.244-.19.44-.195.378-.307.655-.335.83a17.81 17.81 0 00-.084.598 1.369 1.369 0 00-.021.43c.014.176.035.333.063.473.028.14.063.252.105.336.042.084.077.098.105.042.028-.056.035-.056.02 0a2.336 2.336 0 00-.041.241.958.958 0 000 .284c.014.084.077.112.189.084.084-.028.14.052.168.241.028.19.049.375.063.557.014.182.028.34.042.472.014.133.07.123.167-.031.084-.14.182-.26.294-.357.112-.098.224-.19.336-.273a2.42 2.42 0 00.242-.2c.049-.049.024-.087-.074-.115a2.734 2.734 0 00-.44-.084 1.417 1.417 0 01-.557-.19c-.161-.097-.248-.227-.262-.388-.014-.16.14-.381.461-.661.308-.294.543-.469.704-.525a3.28 3.28 0 00.367-.147c.084-.042.14-.119.168-.23.028-.113.07-.358.126-.736.056-.378.014-.528-.126-.451-.14.077-.29.178-.451.304-.161.126-.284.196-.368.21-.084.014-.042-.224.126-.714l.294-.902c.238-.056.5-.147.788-.273.287-.126.486-.26.598-.4a.88.88 0 00.21-.461c.028-.182.049-.389.063-.62.014-.23.035-.496.063-.797a4.62 4.62 0 01.231-1.019c.084-.308.105-.535.063-.682a.784.784 0 00-.189-.347c.224-.028.48-.056.766-.084.287-.028.599-.07.935-.125h.105a.524.524 0 01.042.23c0 .098-.05.266-.147.504-.084.196-.088.35-.01.462.076.112.164.214.262.305.098.09.182.164.252.22.07.056.063.14-.021.252-.056.084-.084.256-.084.515V23.805c0 .26-.042.445-.126.557a2.852 2.852 0 00-.336.693c-.07.223-.147.391-.231.503v.147c-.224.28-.389.62-.494 1.019-.105.399-.066.801.116 1.207.14.35.182.602.126.756a.74.74 0 01-.284.367 2.294 2.294 0 00-.325.263c-.084.084-.07.21.042.378.112.196.16.353.147.472a13.02 13.02 0 00-.042.43 4.832 4.832 0 000 .64c.014.26.098.634.252 1.124.14.49.224.819.252.987.028.168.063.276.105.325.042.05.112.074.21.074.098 0 .308.042.63.126.056 0 .09.007.105.02.014.015.049.022.105.022 0-.028.007-.042.02-.042.015 0 .022-.014.022-.042.056-.056.084-.056.084 0 .056 0 .056.028 0 .084-.028 0-.042.014-.042.042h.084c.028-.028.056-.028.083 0v.042h.147l.042-.084h.168c-.028 0-.042.014-.042.042 0 .028-.014.056-.042.084h.126c-.028-.028-.056-.042-.084-.042l.126-.042c.028.028.042.056.042.084 0 .028.028.042.084.042 0-.028.028-.042.084-.042.028 0 .042.014.042.042.784 0 1.34.007 1.67.02.328.015.514.029.556.043.042.014-.018.02-.179.02h-.514c-.182 0-.353-.013-.514-.041-.161-.028-.214-.07-.158-.126-.028.028-.042.056-.042.084h.042v-.042l.042.042v-.084h.042c.028.028.042.056.042.084m2.079-5.46a2.886 2.886 0 01-.273.21c.154-.055.273-.055.357 0-.028-.055-.042-.167-.042-.335 0 .056-.014.098-.042.126m-.525.294c.028 0 .056-.014.084-.042l-.042.042h-.042m-.084 2.015c.168-.084.332-.168.493-.252.161-.083.312-.153.452-.21-.056-.055-.056-.125 0-.21-.196.057-.357.043-.483-.041-.028-.028-.042-.056-.042-.084 0-.028-.028-.063-.084-.105v.063c-.056.14-.105.28-.147.42-.042.14-.105.28-.19.42m1.072.062c0-.042.042-.09.126-.147-.056 0-.098-.014-.126-.042-.084-.028-.126-.112-.126-.251a2.505 2.505 0 01-.19.083c-.07.028-.146.07-.23.126.084.028.266.105.546.231m.483-1.637a.595.595 0 01-.315 0 .645.645 0 01.084.252l.105-.126.126-.126m.504 1.448c0-.14.028-.251.084-.335l-.126.167-.084.084c.056.056.098.084.126.084m.21-2.435a.715.715 0 00.083-.19.82.82 0 01.063-.167c-.126.112-.244.168-.356.168a.78.78 0 01.21.189m-9.155-5.984c.028-.084.042-.196.042-.336 0 .252-.007.577-.02.976-.015.4-.176.76-.484 1.082l.273-.714c.07-.182.133-.518.19-1.008"
         fill-opacity=".949" fill="#fff" />
   </g>
</svg>