<svg xmlns="http://www.w3.org/2000/svg" version="1.2" viewBox="0 0 42.52 42.52" height="56.693" width="56.693">
   <g stroke-linejoin="bevel" stroke-linecap="square" fill-rule="evenodd" stroke="none" fill="none" font-weight="400"
      font-size="7.8" font-family="'MS Shell Dlg 2'">
      <path
         d="M42.52 21.26C42.52 33 33 42.52 21.26 42.52 9.518 42.52 0 33 0 21.26 0 9.518 9.518 0 21.26 0 33 0 42.52 9.518 42.52 21.26"
         vector-effect="non-scaling-stroke" fill="#b75800" />
      <path
         d="M33.786 9.035c.308-.028.542.007.703.104.161.098.298.217.41.357.07.07.14.15.21.242.07.09.14.185.21.283v25.196c-1.148 0-2.202-.06-3.16-.179a20.11 20.11 0 01-2.635-.493 15.939 15.939 0 01-2.163-.725 15.176 15.176 0 01-1.722-.85 14.621 14.621 0 01-1.68-1.018 8.147 8.147 0 01-1.343-1.187c-.14-.21-.161-.374-.063-.493s.245-.217.44-.294c.197-.077.407-.147.63-.21a1.53 1.53 0 00.526-.241c.391-.168.66-.326.808-.473a.788.788 0 00.241-.514 2.541 2.541 0 00-.063-.693 5.02 5.02 0 01-.084-1.008c0-.924-.101-1.735-.304-2.435a16.43 16.43 0 00-.62-1.796c-.21-.496-.37-.888-.482-1.175-.112-.287-.07-.48.126-.578 1.063-.644 1.75-1.35 2.057-2.12.266-.714.371-1.414.315-2.1-.042-.35-.084-.668-.126-.955a5.02 5.02 0 00-.168-.767c-.056-.28-.056-.486 0-.619s.147-.255.273-.367c.21-.182.333-.378.368-.588.035-.21.066-.41.094-.599.028-.189.095-.353.2-.493.105-.14.325-.224.66-.252.169-.07.291-.14.368-.21a.962.962 0 00.2-.262c.056-.105.108-.235.157-.389.05-.154.116-.35.2-.588.084-.028.178-.077.283-.147l.347-.23c.126-.085.255-.165.388-.242.133-.077.262-.137.388-.179a5.64 5.64 0 00.704-.136c.245-.063.521-.133.83-.21.307-.077.66-.147 1.06-.21.398-.063.87-.116 1.417-.157M17.829 32.277c.168.168.34.364.514.588.175.224.235.427.179.609v.126a.443.443 0 01-.074.21 1.238 1.238 0 01-.252.283 2.315 2.315 0 01-.535.326c-.476.182-1.225.357-2.247.525a15.66 15.66 0 01-1.932.21c-.755.042-1.637.063-2.645.063H7.373V9.035c.07-.07.15-.154.241-.252s.186-.147.284-.147c.531 0 .993.017 1.385.052.392.035.728.077 1.008.126s.522.109.724.179c.203.07.382.14.536.21l.43.178c.12.049.245.084.378.105.133.02.277.017.43-.01.155-.029.344-.092.568-.19.083.252.251.56.503.924.154.182.26.34.315.473a.917.917 0 01.084.346c0 .168.063.301.19.4.125.097.28.185.461.262.182.076.378.146.588.21.21.062.396.136.557.22.16.084.283.185.367.304.084.12.09.277.02.473-.111.322-.255.57-.43.745l-.503.504a2.27 2.27 0 00-.4.535c-.104.196-.136.476-.094.84 0 .112.039.263.116.452.077.189.178.399.304.63a160.176 160.176 0 01.84 1.564c.154.28.297.56.43.84.133.28.228.549.284.808.056.259.07.5.042.724-.028.224-.12.42-.273.588-.07.546-.074.994-.01 1.344.062.35.16.64.293.871.133.231.29.424.473.578.182.154.35.311.504.472.154.161.28.34.378.536.098.196.14.454.126.776a3.497 3.497 0 01-.116.599 2.21 2.21 0 01-.178.43c-.07.126-.15.249-.242.368a5.822 5.822 0 00-.567.913 3.433 3.433 0 00-.241.693c-.07.28-.126.623-.168 1.029-.042.406-.063.895-.063 1.47 0 .097.119.272.357.524.14.14.252.249.336.326.084.077.147.15.189.22m.882-16.482a43.964 43.964 0 01-.85-.252 5.202 5.202 0 01-.736-.283 1.88 1.88 0 01-.514-.347.604.604 0 01-.19-.44.578.578 0 00-.041-.158 3.203 3.203 0 00-.095-.23 3.21 3.21 0 01-.094-.232.578.578 0 01-.042-.157.558.558 0 01.094-.231c.05-.07.098-.15.147-.242.05-.09.098-.2.147-.325.05-.126.074-.28.074-.462 0-.126.045-.294.136-.504.091-.21.172-.343.242-.399.112-.07.2-.122.262-.157a.978.978 0 01.158-.074.345.345 0 01.105-.02h.105c.266-.085.637-.07 1.113.041.237.028.444.06.619.095s.332.073.472.115c.21.098.49.077.84-.063.168-.056.326-.09.473-.105a.646.646 0 01.346.042c.182 0 .58.042 1.197.126.56.084.98.126 1.26.126.112-.112.3-.175.566-.189a4.158 4.158 0 011.501.21c.204.07.305.133.305.189.042.196.063.343.063.44.042.155.067.288.074.4.007.112.003.21-.01.294a1.866 1.866 0 01-.085.304 3.43 3.43 0 01-.168.389c-.21.238-.37.49-.483.755-.112.266-.168.497-.168.693 0 .238-.066.43-.2.578-.132.147-.325.29-.577.43-.154.07-.37.014-.65-.168-.042-.042-.126.014-.252.168-.126.182-.273.252-.441.21h-.273c-.42 0-.746.028-.977.084a5.956 5.956 0 00-.609.179 4.698 4.698 0 01-.535.157c-.182.042-.42.049-.714.021-.154 0-.392-.14-.714-.42-.322-.28-.539-.448-.65-.504-.029-.056-.106-.084-.231-.084"
         fill-opacity=".949" fill="#fff" />
   </g>
</svg>