<?xml version="1.0" encoding="UTF-8" standalone="no"?>
<svg
   xmlns:dc="http://purl.org/dc/elements/1.1/"
   xmlns:cc="http://creativecommons.org/ns#"
   xmlns:rdf="http://www.w3.org/1999/02/22-rdf-syntax-ns#"
   xmlns:svg="http://www.w3.org/2000/svg"
   xmlns="http://www.w3.org/2000/svg"
   xmlns:sodipodi="http://sodipodi.sourceforge.net/DTD/sodipodi-0.dtd"
   xmlns:inkscape="http://www.inkscape.org/namespaces/inkscape"
   inkscape:version="1.0 (4035a4fb49, 2020-05-01)"
   sodipodi:docname="1719.svg"
   id="svg20"
   version="1.2"
   viewBox="0 0 42.519639 42.519639"
   height="14.999999mm"
   width="14.999999mm">
  <metadata
     id="metadata24">
    <rdf:RDF>
      <cc:Work
         rdf:about="">
        <dc:format>image/svg+xml</dc:format>
        <dc:type
           rdf:resource="http://purl.org/dc/dcmitype/StillImage" />
        <dc:title>Qt SVG Document</dc:title>
      </cc:Work>
    </rdf:RDF>
  </metadata>
  <sodipodi:namedview
     inkscape:current-layer="svg20"
     inkscape:window-maximized="0"
     inkscape:window-y="0"
     inkscape:window-x="0"
     inkscape:cy="28.346482"
     inkscape:cx="28.346482"
     inkscape:zoom="5.8410537"
     showgrid="false"
     id="namedview22"
     inkscape:window-height="480"
     inkscape:window-width="1034"
     inkscape:pageshadow="2"
     inkscape:pageopacity="0"
     guidetolerance="10"
     gridtolerance="10"
     objecttolerance="10"
     borderopacity="1"
     bordercolor="#666666"
     pagecolor="#ffffff" />
  <title
     id="title2">Qt SVG Document</title>
  <desc
     id="desc4">Generated with Qt</desc>
  <defs
     id="defs6" />
  <g
     transform="translate(5.25984,5.25984)"
     id="g18"
     stroke-linejoin="bevel"
     stroke-linecap="square"
     fill-rule="evenodd"
     stroke-width="1"
     stroke="#000000"
     fill="none">
    <g
       id="g10"
       font-style="normal"
       font-weight="400"
       font-size="7.8px"
       font-family="'MS Shell Dlg 2'"
       stroke="none"
       fill-opacity="1"
       fill="#b75800">
      <path
         id="path8"
         d="M 37.2598,16 C 37.2598,27.7415 27.7415,37.2598 16,37.2598 4.25851,37.2598 -5.25984,27.7415 -5.25984,16 -5.25984,4.25851 4.25851,-5.25984 16,-5.25984 27.7415,-5.25984 37.2598,4.25851 37.2598,16"
         fill-rule="evenodd"
         vector-effect="non-scaling-stroke" />
    </g>
    <g
       id="g14"
       font-style="normal"
       font-weight="400"
       font-size="7.8px"
       font-family="'MS Shell Dlg 2'"
       transform="translate(16,11.4646)"
       stroke="none"
       fill-opacity="0.94902"
       fill="#ffffff">
      <path
         id="path12"
         d="m 12.5259,-7.68994 c 0.3079,-0.028 0.5424,0.007 0.7033,0.10498 0.161,0.09798 0.2975,0.21696 0.4095,0.35693 0.07,0.06999 0.1399,0.15047 0.2099,0.24146 0.07,0.09098 0.14,0.18546 0.21,0.28344 V 18.4922 c -1.1478,0 -2.2011,-0.0595 -3.1599,-0.1785 C 9.93986,18.1947 9.06152,18.0303 8.26367,17.8203 7.46582,17.6104 6.74495,17.3689 6.10107,17.0959 5.45719,16.823 4.8833,16.5396 4.37939,16.2456 3.76351,15.9237 3.20361,15.5842 2.69971,15.2273 2.1958,14.8704 1.74788,14.4749 1.35596,14.041 1.21598,13.8311 1.19499,13.6666 1.29297,13.5476 c 0.09798,-0.119 0.24495,-0.217 0.44092,-0.2939 0.19596,-0.077 0.40592,-0.147 0.62988,-0.21 0.22396,-0.063 0.39893,-0.1435 0.5249,-0.2415 C 3.2806,12.6343 3.55005,12.4768 3.69702,12.3298 3.84399,12.1829 3.92448,12.0114 3.93848,11.8154 3.95247,11.6195 3.93148,11.3885 3.87549,11.1226 3.8195,10.8566 3.7915,10.5207 3.7915,10.1147 3.7915,9.19092 3.69002,8.37907 3.48706,7.6792 3.2841,6.97933 3.07764,6.38094 2.86768,5.88403 2.65771,5.38713 2.49674,4.9952 2.38477,4.70825 2.27279,4.42131 2.31478,4.22884 2.51074,4.13086 3.57454,3.48698 4.26042,2.78011 4.56836,2.01025 4.83431,1.29639 4.93929,0.596517 4.8833,-0.0893555 4.84131,-0.43929 4.79932,-0.757731 4.75732,-1.04468 4.71533,-1.33162 4.65934,-1.58708 4.58936,-1.81104 c -0.05599,-0.27994 -0.05599,-0.4864 0,-0.61938 C 4.64535,-2.5634 4.73633,-2.68587 4.8623,-2.79785 5.07227,-2.97982 5.19474,-3.17578 5.22974,-3.38574 5.26473,-3.5957 5.29622,-3.79517 5.32422,-3.98413 5.35221,-4.1731 5.4187,-4.33757 5.52368,-4.47754 5.62866,-4.61751 5.84912,-4.7015 6.18506,-4.72949 6.35303,-4.79948 6.4755,-4.86947 6.55249,-4.93945 6.62948,-5.00944 6.69596,-5.09692 6.75195,-5.2019 6.80794,-5.30688 6.86043,-5.43636 6.90942,-5.59033 6.95841,-5.7443 7.0249,-5.94027 7.10889,-6.17822 c 0.08398,-0.028 0.17846,-0.07699 0.28344,-0.14698 0.10498,-0.06998 0.22046,-0.14697 0.34644,-0.23095 0.12598,-0.08399 0.25545,-0.16447 0.38843,-0.24146 0.13297,-0.07698 0.26245,-0.13647 0.38843,-0.17846 0.22395,-0.028 0.45841,-0.07349 0.70336,-0.13648 0.24496,-0.06299 0.52141,-0.13297 0.82931,-0.20996 0.308,-0.07699 0.6614,-0.14697 1.0603,-0.20996 0.399,-0.06299 0.8714,-0.11548 1.4173,-0.15747 M -3.43115,15.5527 c 0.16797,0.168 0.33943,0.364 0.5144,0.5879 0.17497,0.224 0.23446,0.4269 0.17847,0.6089 0,0.028 0,0.07 0,0.126 0,0.056 -0.0245,0.126 -0.07349,0.2099 -0.04899,0.084 -0.13297,0.1785 -0.25195,0.2835 -0.11898,0.105 -0.29745,0.2135 -0.5354,0.3254 -0.47591,0.182 -1.22477,0.357 -2.24658,0.5249 -0.5319,0.098 -1.17578,0.168 -1.93164,0.21 -0.75586,0.042 -1.6377,0.063 -2.64556,0.063 h -0.9658 -2.4985 V -7.68994 c 0.07,-0.06999 0.1505,-0.15397 0.2414,-0.25195 0.091,-0.09799 0.1855,-0.14698 0.2835,-0.14698 0.5319,0 0.9938,0.0175 1.3857,0.05249 0.392,0.035 0.7279,0.07699 1.0078,0.12598 0.28,0.04899 0.5215,0.10848 0.7244,0.17847 0.203,0.06998 0.38144,0.13997 0.53542,0.20996 0.16796,0.06998 0.31144,0.12947 0.43042,0.17846 0.11897,0.049 0.24495,0.08399 0.37793,0.10498 0.13297,0.021 0.27644,0.0175 0.43042,-0.01049 0.15397,-0.028 0.34293,-0.09099 0.56689,-0.18897 0.08398,0.25195 0.25195,0.5599 0.50391,0.92383 0.15397,0.18197 0.25895,0.33944 0.31494,0.47241 0.05599,0.13298 0.08398,0.24846 0.08398,0.34644 0,0.16797 0.06299,0.30094 0.18897,0.39892 0.12597,0.09799 0.27994,0.18547 0.46191,0.26245 0.18197,0.07699 0.37793,0.14698 0.58789,0.20997 0.20996,0.06298 0.39543,0.13647 0.5564,0.22045 0.16097,0.08399 0.28344,0.18547 0.36743,0.30445 0.08398,0.11898 0.09098,0.27645 0.021,0.47241 -0.11198,0.32194 -0.25546,0.57039 -0.43042,0.74536 -0.17497,0.17497 -0.34294,0.34294 -0.50391,0.50391 -0.16097,0.16097 -0.29395,0.33943 -0.39893,0.5354 -0.10498,0.19596 -0.13647,0.47591 -0.09448,0.83984 0,0.11198 0.03849,0.262453 0.11548,0.451418 0.07699,0.188964 0.17847,0.398925 0.30444,0.629882 0.12598,0.230957 0.26245,0.482911 0.40943,0.75586 0.14697,0.272949 0.29044,0.5424 0.43042,0.80835 0.15397,0.27995 0.29744,0.5599 0.43042,0.83984 0.13297,0.27995 0.22745,0.5494 0.28344,0.80835 0.05599,0.25895 0.06999,0.50041 0.042,0.72437 -0.028,0.22396 -0.11898,0.41992 -0.27295,0.58789 -0.06999,0.5459 -0.07349,0.99381 -0.0105,1.34375 0.06299,0.34993 0.16097,0.64038 0.29394,0.87134 0.13298,0.23095 0.29045,0.42342 0.47242,0.57739 0.18196,0.15397 0.34993,0.31144 0.5039,0.47241 0.15397,0.16097 0.27995,0.33944 0.37793,0.5354 0.09798,0.19597 0.13998,0.45492 0.12598,0.77686 -0.028,0.23795 -0.06649,0.43742 -0.11548,0.59839 -0.04899,0.16097 -0.10848,0.30444 -0.17847,0.43045 -0.06998,0.1259 -0.15047,0.2484 -0.24145,0.3674 -0.09098,0.119 -0.18547,0.2554 -0.28345,0.4094 -0.09798,0.154 -0.19246,0.322 -0.28345,0.5039 -0.09098,0.182 -0.17146,0.413 -0.24145,0.6929 -0.06999,0.2799 -0.12598,0.6229 -0.16797,1.0288 -0.04199,0.4059 -0.06299,0.8958 -0.06299,1.4697 0,0.098 0.11898,0.273 0.35694,0.5249 0.13997,0.14 0.25195,0.2485 0.33593,0.3255 0.08399,0.077 0.14698,0.1504 0.18897,0.2204 M -2.54932,-0.929199 C -2.84326,-1.01318 -3.12671,-1.09717 -3.39966,-1.18115 -3.67261,-1.26514 -3.91756,-1.35962 -4.13452,-1.4646 -4.35148,-1.56958 -4.52295,-1.68506 -4.64893,-1.81104 -4.7749,-1.93701 -4.83789,-2.08398 -4.83789,-2.25195 c 0,-0.028 -0.014,-0.08049 -0.04199,-0.15747 -0.028,-0.07699 -0.05949,-0.15398 -0.09449,-0.23096 -0.03499,-0.07699 -0.06648,-0.15397 -0.09448,-0.23096 -0.02799,-0.07698 -0.04199,-0.12947 -0.04199,-0.15747 0.014,-0.08398 0.04549,-0.16097 0.09448,-0.23096 0.04899,-0.06998 0.09798,-0.15047 0.14698,-0.24145 0.04899,-0.09098 0.09798,-0.19946 0.14697,-0.32544 0.04899,-0.12598 0.07348,-0.27995 0.07348,-0.46191 0,-0.12598 0.0455,-0.29395 0.13648,-0.50391 0.09098,-0.20996 0.17147,-0.34294 0.24145,-0.39893 0.11198,-0.06998 0.19947,-0.12247 0.26246,-0.15747 0.06298,-0.03499 0.11547,-0.05949 0.15747,-0.07348 0.04199,-0.014 0.07698,-0.021 0.10498,-0.021 0.02799,0 0.06298,0 0.10498,0 0.26595,-0.08398 0.63688,-0.06999 1.11279,0.04199 0.23796,0.028 0.44442,0.05949 0.61938,0.09449 0.17497,0.03499 0.33244,0.07348 0.47242,0.11547 0.20996,0.09799 0.489905,0.07699 0.83984,-0.06298 0.167969,-0.05599 0.32544,-0.09099 0.472412,-0.10499 0.1469731,-0.01399 0.262452,0 0.346436,0.042 0.181966,0 0.580892,0.04199 1.196782,0.12597 0.55989,0.08399 0.97981,0.12598 1.25976,0.12598 0.11198,-0.11198 0.30094,-0.17497 0.5669,-0.18896 0.26595,-0.014 0.5319,0 0.79785,0.04199 0.26595,0.04199 0.5004,0.09798 0.70337,0.16797 0.20296,0.06998 0.30444,0.13297 0.30444,0.18896 0.04199,0.19596 0.06299,0.34294 0.06299,0.44092 0.04199,0.15397 0.06649,0.28695 0.07348,0.39892 0.007,0.11198 0.0035,0.20997 -0.01049,0.29395 -0.014,0.08398 -0.042,0.18547 -0.08399,0.30444 -0.04199,0.11898 -0.09798,0.24846 -0.16797,0.38843 -0.20996,0.23796 -0.37093,0.48991 -0.48291,0.75586 -0.11198,0.26595 -0.16797,0.49691 -0.16797,0.69287 0,0.23796 -0.06648,0.43042 -0.19946,0.57739 C 3.94198,-0.855713 3.74951,-0.71224 3.49756,-0.572266 3.34359,-0.502279 3.12663,-0.558268 2.84668,-0.740234 2.80469,-0.782227 2.7207,-0.726237 2.59473,-0.572266 2.46875,-0.390299 2.32178,-0.320313 2.15381,-0.362305 H 1.88086 c -0.41992,0 -0.74536,0.027995 -0.976319,0.083985 -0.230957,0.055989 -0.433919,0.115478 -0.608887,0.1784665 -0.174967,0.0629883 -0.3534339,0.1154785 -0.5354,0.1574707 -0.181966,0.0419922 -0.419922,0.0489908 -0.713867,0.0209961 -0.153967,0 -0.391927,-0.139974 -0.713867,-0.4199223 -0.32194,-0.279948 -0.5389,-0.447916 -0.65088,-0.503906 -0.02799,-0.055989 -0.10498,-0.083984 -0.23096,-0.083984"
         fill-rule="evenodd"
         vector-effect="none" />
    </g>
    <g
       id="g16"
       font-style="normal"
       font-weight="400"
       font-size="7.8px"
       font-family="'MS Shell Dlg 2'"
       stroke="none"
       fill-opacity="1"
       fill="#b75800" />
  </g>
</svg>
