<?xml version="1.0" encoding="UTF-8" standalone="no"?>
<svg width="11.25008mm" height="11.25008mm"
 viewBox="-5.3 -5.3 42.52000 42.52000"
 xmlns="http://www.w3.org/2000/svg" xmlns:xlink="http://www.w3.org/1999/xlink"  version="1.2" baseProfile="tiny">
<title>Qt SVG Document</title>
<desc>Generated with Qt</desc>
<defs>
</defs>
<g fill="none" stroke="black" stroke-width="1" fill-rule="evenodd" stroke-linecap="square" stroke-linejoin="bevel" >

<g fill="#b75800" fill-opacity="1" stroke="none" transform="matrix(1,0,0,1,0,0)"
font-family="MS Shell Dlg 2" font-size="7.8" font-weight="400" font-style="normal" 
>
<path vector-effect="non-scaling-stroke" fill-rule="evenodd" d="M37.2598,16 C37.2598,27.7415 27.7415,37.2598 16,37.2598 C4.25851,37.2598 -5.25984,27.7415 -5.25984,16 C-5.25984,4.25851 4.25851,-5.25984 16,-5.25984 C27.7415,-5.25984 37.2598,4.25851 37.2598,16 "/>
</g>

<g fill="#ffffff" fill-opacity="0.94902" stroke="none" transform="matrix(1,0,0,1,16,11.4646)"
font-family="MS Shell Dlg 2" font-size="7.8" font-weight="400" font-style="normal" 
>
<path vector-effect="none" fill-rule="evenodd" d="M12.5259,-7.68994 C12.8338,-7.71794 13.0683,-7.68294 13.2292,-7.58496 C13.3902,-7.48698 13.5267,-7.368 13.6387,-7.22803 C13.7087,-7.15804 13.7786,-7.07756 13.8486,-6.98657 C13.9186,-6.89559 13.9886,-6.80111 14.0586,-6.70313 L14.0586,18.4922 C12.9108,18.4922 11.8575,18.4327 10.8987,18.3137 C9.93986,18.1947 9.06152,18.0303 8.26367,17.8203 C7.46582,17.6104 6.74495,17.3689 6.10107,17.0959 C5.45719,16.823 4.8833,16.5396 4.37939,16.2456 C3.76351,15.9237 3.20361,15.5842 2.69971,15.2273 C2.1958,14.8704 1.74788,14.4749 1.35596,14.041 C1.21598,13.8311 1.19499,13.6666 1.29297,13.5476 C1.39095,13.4286 1.53792,13.3306 1.73389,13.2537 C1.92985,13.1767 2.13981,13.1067 2.36377,13.0437 C2.58773,12.9807 2.7627,12.9002 2.88867,12.8022 C3.2806,12.6343 3.55005,12.4768 3.69702,12.3298 C3.84399,12.1829 3.92448,12.0114 3.93848,11.8154 C3.95247,11.6195 3.93148,11.3885 3.87549,11.1226 C3.8195,10.8566 3.7915,10.5207 3.7915,10.1147 C3.7915,9.19092 3.69002,8.37907 3.48706,7.6792 C3.2841,6.97933 3.07764,6.38094 2.86768,5.88403 C2.65771,5.38713 2.49674,4.9952 2.38477,4.70825 C2.27279,4.42131 2.31478,4.22884 2.51074,4.13086 C3.57454,3.48698 4.26042,2.78011 4.56836,2.01025 C4.83431,1.29639 4.93929,0.596517 4.8833,-0.0893555 C4.84131,-0.43929 4.79932,-0.757731 4.75732,-1.04468 C4.71533,-1.33162 4.65934,-1.58708 4.58936,-1.81104 C4.53337,-2.09098 4.53337,-2.29744 4.58936,-2.43042 C4.64535,-2.5634 4.73633,-2.68587 4.8623,-2.79785 C5.07227,-2.97982 5.19474,-3.17578 5.22974,-3.38574 C5.26473,-3.5957 5.29622,-3.79517 5.32422,-3.98413 C5.35221,-4.1731 5.4187,-4.33757 5.52368,-4.47754 C5.62866,-4.61751 5.84912,-4.7015 6.18506,-4.72949 C6.35303,-4.79948 6.4755,-4.86947 6.55249,-4.93945 C6.62948,-5.00944 6.69596,-5.09692 6.75195,-5.2019 C6.80794,-5.30688 6.86043,-5.43636 6.90942,-5.59033 C6.95841,-5.7443 7.0249,-5.94027 7.10889,-6.17822 C7.19287,-6.20622 7.28735,-6.25521 7.39233,-6.3252 C7.49731,-6.39518 7.61279,-6.47217 7.73877,-6.55615 C7.86475,-6.64014 7.99422,-6.72062 8.1272,-6.79761 C8.26017,-6.87459 8.38965,-6.93408 8.51563,-6.97607 C8.73958,-7.00407 8.97404,-7.04956 9.21899,-7.11255 C9.46395,-7.17554 9.7404,-7.24552 10.0483,-7.32251 C10.3563,-7.3995 10.7097,-7.46948 11.1086,-7.53247 C11.5076,-7.59546 11.98,-7.64795 12.5259,-7.68994 M-3.43115,15.5527 C-3.26318,15.7207 -3.09172,15.9167 -2.91675,16.1406 C-2.74178,16.3646 -2.68229,16.5675 -2.73828,16.7495 C-2.73828,16.7775 -2.73828,16.8195 -2.73828,16.8755 C-2.73828,16.9315 -2.76278,17.0015 -2.81177,17.0854 C-2.86076,17.1694 -2.94474,17.2639 -3.06372,17.3689 C-3.1827,17.4739 -3.36117,17.5824 -3.59912,17.6943 C-4.07503,17.8763 -4.82389,18.0513 -5.8457,18.2192 C-6.3776,18.3172 -7.02148,18.3872 -7.77734,18.4292 C-8.5332,18.4712 -9.41504,18.4922 -10.4229,18.4922 L-11.3887,18.4922 L-13.8872,18.4922 L-13.8872,-7.68994 C-13.8172,-7.75993 -13.7367,-7.84391 -13.6458,-7.94189 C-13.5548,-8.03988 -13.4603,-8.08887 -13.3623,-8.08887 C-12.8304,-8.08887 -12.3685,-8.07137 -11.9766,-8.03638 C-11.5846,-8.00138 -11.2487,-7.95939 -10.9688,-7.9104 C-10.6888,-7.86141 -10.4473,-7.80192 -10.2444,-7.73193 C-10.0414,-7.66195 -9.86296,-7.59196 -9.70898,-7.52197 C-9.54102,-7.45199 -9.39754,-7.3925 -9.27856,-7.34351 C-9.15959,-7.29451 -9.03361,-7.25952 -8.90063,-7.23853 C-8.76766,-7.21753 -8.62419,-7.22103 -8.47021,-7.24902 C-8.31624,-7.27702 -8.12728,-7.34001 -7.90332,-7.43799 C-7.81934,-7.18604 -7.65137,-6.87809 -7.39941,-6.51416 C-7.24544,-6.33219 -7.14046,-6.17472 -7.08447,-6.04175 C-7.02848,-5.90877 -7.00049,-5.79329 -7.00049,-5.69531 C-7.00049,-5.52734 -6.9375,-5.39437 -6.81152,-5.29639 C-6.68555,-5.1984 -6.53158,-5.11092 -6.34961,-5.03394 C-6.16764,-4.95695 -5.97168,-4.88696 -5.76172,-4.82397 C-5.55176,-4.76099 -5.36629,-4.6875 -5.20532,-4.60352 C-5.04435,-4.51953 -4.92188,-4.41805 -4.83789,-4.29907 C-4.75391,-4.18009 -4.74691,-4.02262 -4.81689,-3.82666 C-4.92887,-3.50472 -5.07235,-3.25627 -5.24731,-3.0813 C-5.42228,-2.90633 -5.59025,-2.73836 -5.75122,-2.57739 C-5.91219,-2.41642 -6.04517,-2.23796 -6.15015,-2.04199 C-6.25513,-1.84603 -6.28662,-1.56608 -6.24463,-1.20215 C-6.24463,-1.09017 -6.20614,-0.939697 -6.12915,-0.750732 C-6.05216,-0.561768 -5.95068,-0.351807 -5.82471,-0.12085 C-5.69873,0.110107 -5.56226,0.362061 -5.41528,0.63501 C-5.26831,0.907959 -5.12484,1.17741 -4.98486,1.44336 C-4.83089,1.72331 -4.68742,2.00326 -4.55444,2.2832 C-4.42147,2.56315 -4.32699,2.8326 -4.271,3.09155 C-4.21501,3.3505 -4.20101,3.59196 -4.229,3.81592 C-4.257,4.03988 -4.34798,4.23584 -4.50195,4.40381 C-4.57194,4.94971 -4.57544,5.39762 -4.51245,5.74756 C-4.44946,6.09749 -4.35148,6.38794 -4.21851,6.6189 C-4.08553,6.84985 -3.92806,7.04232 -3.74609,7.19629 C-3.56413,7.35026 -3.39616,7.50773 -3.24219,7.6687 C-3.08822,7.82967 -2.96224,8.00814 -2.86426,8.2041 C-2.76628,8.40007 -2.72428,8.65902 -2.73828,8.98096 C-2.76628,9.21891 -2.80477,9.41838 -2.85376,9.57935 C-2.90275,9.74032 -2.96224,9.88379 -3.03223,10.0098 C-3.10221,10.1357 -3.1827,10.2582 -3.27368,10.3772 C-3.36466,10.4962 -3.45915,10.6326 -3.55713,10.7866 C-3.65511,10.9406 -3.74959,11.1086 -3.84058,11.2905 C-3.93156,11.4725 -4.01204,11.7035 -4.08203,11.9834 C-4.15202,12.2633 -4.20801,12.6063 -4.25,13.0122 C-4.29199,13.4181 -4.31299,13.908 -4.31299,14.4819 C-4.31299,14.5799 -4.19401,14.7549 -3.95605,15.0068 C-3.81608,15.1468 -3.7041,15.2553 -3.62012,15.3323 C-3.53613,15.4093 -3.47314,15.4827 -3.43115,15.5527 M-2.54932,-0.929199 C-2.84326,-1.01318 -3.12671,-1.09717 -3.39966,-1.18115 C-3.67261,-1.26514 -3.91756,-1.35962 -4.13452,-1.4646 C-4.35148,-1.56958 -4.52295,-1.68506 -4.64893,-1.81104 C-4.7749,-1.93701 -4.83789,-2.08398 -4.83789,-2.25195 C-4.83789,-2.27995 -4.85189,-2.33244 -4.87988,-2.40942 C-4.90788,-2.48641 -4.93937,-2.5634 -4.97437,-2.64038 C-5.00936,-2.71737 -5.04085,-2.79435 -5.06885,-2.87134 C-5.09684,-2.94832 -5.11084,-3.00081 -5.11084,-3.02881 C-5.09684,-3.11279 -5.06535,-3.18978 -5.01636,-3.25977 C-4.96737,-3.32975 -4.91838,-3.41024 -4.86938,-3.50122 C-4.82039,-3.5922 -4.7714,-3.70068 -4.72241,-3.82666 C-4.67342,-3.95264 -4.64893,-4.10661 -4.64893,-4.28857 C-4.64893,-4.41455 -4.60343,-4.58252 -4.51245,-4.79248 C-4.42147,-5.00244 -4.34098,-5.13542 -4.271,-5.19141 C-4.15902,-5.26139 -4.07153,-5.31388 -4.00854,-5.34888 C-3.94556,-5.38387 -3.89307,-5.40837 -3.85107,-5.42236 C-3.80908,-5.43636 -3.77409,-5.44336 -3.74609,-5.44336 C-3.7181,-5.44336 -3.68311,-5.44336 -3.64111,-5.44336 C-3.37516,-5.52734 -3.00423,-5.51335 -2.52832,-5.40137 C-2.29036,-5.37337 -2.0839,-5.34188 -1.90894,-5.30688 C-1.73397,-5.27189 -1.5765,-5.2334 -1.43652,-5.19141 C-1.22656,-5.09342 -0.946615,-5.11442 -0.59668,-5.25439 C-0.428711,-5.31038 -0.27124,-5.34538 -0.124268,-5.35938 C0.0227051,-5.37337 0.138184,-5.35938 0.222168,-5.31738 C0.404134,-5.31738 0.80306,-5.27539 1.41895,-5.19141 C1.97884,-5.10742 2.39876,-5.06543 2.67871,-5.06543 C2.79069,-5.17741 2.97965,-5.2404 3.24561,-5.25439 C3.51156,-5.26839 3.77751,-5.25439 4.04346,-5.2124 C4.30941,-5.17041 4.54386,-5.11442 4.74683,-5.04443 C4.94979,-4.97445 5.05127,-4.91146 5.05127,-4.85547 C5.09326,-4.65951 5.11426,-4.51253 5.11426,-4.41455 C5.15625,-4.26058 5.18075,-4.1276 5.18774,-4.01563 C5.19474,-3.90365 5.19124,-3.80566 5.17725,-3.72168 C5.16325,-3.6377 5.13525,-3.53621 5.09326,-3.41724 C5.05127,-3.29826 4.99528,-3.16878 4.92529,-3.02881 C4.71533,-2.79085 4.55436,-2.5389 4.44238,-2.27295 C4.3304,-2.007 4.27441,-1.77604 4.27441,-1.58008 C4.27441,-1.34212 4.20793,-1.14966 4.07495,-1.00269 C3.94198,-0.855713 3.74951,-0.71224 3.49756,-0.572266 C3.34359,-0.502279 3.12663,-0.558268 2.84668,-0.740234 C2.80469,-0.782227 2.7207,-0.726237 2.59473,-0.572266 C2.46875,-0.390299 2.32178,-0.320313 2.15381,-0.362305 L1.88086,-0.362305 C1.46094,-0.362305 1.1355,-0.33431 0.904541,-0.27832 C0.673584,-0.222331 0.470622,-0.162842 0.295654,-0.0998535 C0.120687,-0.0368652 -0.0577799,0.015625 -0.239746,0.0576172 C-0.421712,0.0996094 -0.659668,0.106608 -0.953613,0.0786133 C-1.10758,0.0786133 -1.34554,-0.0613607 -1.66748,-0.341309 C-1.98942,-0.621257 -2.20638,-0.789225 -2.31836,-0.845215 C-2.34635,-0.901204 -2.42334,-0.929199 -2.54932,-0.929199 "/>
</g>

<g fill="#b75800" fill-opacity="1" stroke="none" transform="matrix(1,0,0,1,0,0)"
font-family="MS Shell Dlg 2" font-size="7.8" font-weight="400" font-style="normal" 
>
</g>
</g>
</svg>
