<svg xmlns="http://www.w3.org/2000/svg" version="1.2" viewBox="0 0 42.52 42.52" height="56.693" width="56.693">
   <g stroke-linejoin="bevel" stroke-linecap="square" fill-rule="evenodd" stroke="none" fill="none" font-weight="400"
      font-size="7.8" font-family="'MS Shell Dlg 2'">
      <path
         d="M42.52 21.26C42.52 33 33 42.52 21.26 42.52 9.518 42.52 0 33 0 21.26 0 9.518 9.518 0 21.26 0 33 0 42.52 9.518 42.52 21.26"
         vector-effect="non-scaling-stroke" fill="#b75800" />
      <path
         d="M32.925 19.575v2.918l-3.968 2.583 3.968-1.344v3.78l-3.695 1.763 3.695-1.239v5.123l-.609-3.023v3.275l-15.516-.86-1.512.608h-2.456l-3.17-.357-.526-4.2 1.344-.818H8.59l1.89-5.375-1.68 2.919.861-4.515-.252-1.238 3.17-3.15-3.61.945 1.511-2.372 3.212-3.864 6.635-1.323 2.919.168-3.528 4.22 5.543-4.388 4.22.945-3.443 4.074 3.905-3.255 1.512 3.611-3.17 3.612 2.351-2.037h1.428l.86 2.814M24.108 31.31l-.945-1.952-1.512-.084 3.107-4.682-3.191 2.918.777-4.031 2.141-3.36.693-3.275-2.372-.336 2.372-6.278-5.29 4.871-.82 2.268-4.199 2.667 2.75-.462-1.595 3.82-2.834 3.213 1.763.084-1.176 2.772.651.42.357 3.191 3.255-1.68 6.068-.084"
         fill-opacity=".949" fill="#fff" />
   </g>
</svg>