<?xml version="1.0" encoding="UTF-8" standalone="no"?>
<svg width="11.25008mm" height="11.25008mm"
 viewBox="-5.3 -5.3 42.52000 42.52000"
 xmlns="http://www.w3.org/2000/svg" xmlns:xlink="http://www.w3.org/1999/xlink"  version="1.2" baseProfile="tiny">
<title>Qt SVG Document</title>
<desc>Generated with Qt</desc>
<defs>
</defs>
<g fill="none" stroke="black" stroke-width="1" fill-rule="evenodd" stroke-linecap="square" stroke-linejoin="bevel" >

<g fill="#b75800" fill-opacity="1" stroke="none" transform="matrix(1,0,0,1,0,0)"
font-family="MS Shell Dlg 2" font-size="7.8" font-weight="400" font-style="normal" 
>
<path vector-effect="non-scaling-stroke" fill-rule="evenodd" d="M37.2598,16 C37.2598,27.7415 27.7415,37.2598 16,37.2598 C4.25851,37.2598 -5.25984,27.7415 -5.25984,16 C-5.25984,4.25851 4.25851,-5.25984 16,-5.25984 C27.7415,-5.25984 37.2598,4.25851 37.2598,16 "/>
</g>

<g fill="#ffffff" fill-opacity="0.94902" stroke="none" transform="matrix(1,0,0,1,16,13.1654)"
font-family="MS Shell Dlg 2" font-size="7.8" font-weight="400" font-style="normal" 
>
<path vector-effect="none" fill-rule="evenodd" d="M11.665,1.14941 L11.665,4.06787 L7.69678,6.65039 L11.665,5.30664 L11.665,9.08594 L7.96973,10.8496 L11.665,9.61084 L11.665,14.7339 L11.0562,11.7104 L11.0562,14.9858 L-4.45996,14.125 L-5.97168,14.7339 L-8.42822,14.7339 L-11.5986,14.377 L-12.1235,10.1777 L-10.7798,9.35889 L-12.6694,9.35889 L-10.7798,3.98389 L-12.4595,6.90234 L-11.5986,2.38818 L-11.8506,1.14941 L-8.68018,-2 L-12.2915,-1.05518 L-10.7798,-3.42773 L-7.56738,-7.29102 L-0.932617,-8.61377 L1.98584,-8.4458 L-1.5415,-4.22559 L4.00146,-8.61377 L8.22168,-7.66895 L4.77832,-3.5957 L8.68359,-6.8501 L10.1953,-3.23877 L7.0249,0.372559 L9.37646,-1.66406 L10.8042,-1.66406 L11.665,1.14941 M2.84668,12.8862 L1.90186,10.9336 L0.390137,10.8496 L3.49756,6.16748 L0.306152,9.08594 L1.08301,5.05469 L3.22461,1.69531 L3.91748,-1.58008 L1.54492,-1.91602 L3.91748,-8.19385 L-1.37354,-3.32275 L-2.19238,-1.05518 L-6.3916,1.61133 L-3.64111,1.14941 L-5.23682,4.9707 L-8.07129,8.18311 L-6.30762,8.26709 L-7.4834,11.0386 L-6.83252,11.4585 L-6.47559,14.6499 L-3.22119,12.9702 L2.84668,12.8862"/>
</g>

<g fill="#b75800" fill-opacity="1" stroke="none" transform="matrix(1,0,0,1,0,0)"
font-family="MS Shell Dlg 2" font-size="7.8" font-weight="400" font-style="normal" 
>
</g>
</g>
</svg>
