<svg xmlns="http://www.w3.org/2000/svg" version="1.2" viewBox="0 0 42.52 42.52" height="56.693" width="56.693">
   <g stroke-linejoin="bevel" stroke-linecap="square" fill-rule="evenodd" stroke="none" fill="none" font-weight="400"
      font-size="7.8" font-family="'MS Shell Dlg 2'">
      <path
         d="M42.52 21.26C42.52 33 33 42.52 21.26 42.52 9.518 42.52 0 33 0 21.26 0 9.518 9.518 0 21.26 0 33 0 42.52 9.518 42.52 21.26"
         vector-effect="non-scaling-stroke" fill="#b75800" />
      <path
         d="M34.773 26.146c.461.364.57.763.325 1.197-.245.434-.633.844-1.165 1.228a8.746 8.746 0 01-1.785.987c-.658.273-1.162.452-1.512.536a8.526 8.526 0 00-1.312.304c-.357.12-.686.22-.987.305-.3.084-.58.154-.84.21-.259.056-.528.07-.808.042a4.094 4.094 0 01-1.806-.788 44.722 44.722 0 01-1.553-1.228h-.042c-.028 0-.042-.028-.042-.084a2.95 2.95 0 00-1.187.514c-.357.26-.71.5-1.06.725a4.85 4.85 0 01-.787.609c-.273.168-.567.28-.882.336-.315.056-.651.049-1.008-.021s-.766-.245-1.228-.525c-.574.084-1.169.14-1.785.168a7.744 7.744 0 01-1.806-.126 7.02 7.02 0 01-1.7-.557 3.6 3.6 0 01-1.365-1.123c-.728.14-1.27.003-1.627-.41-.357-.412-.585-.965-.682-1.658-.098-.693-.084-1.46.041-2.3.126-.84.308-1.637.546-2.393-.574-.112-.934-.367-1.081-.766-.147-.4-.126-.85.063-1.354.189-.504.51-1.001.966-1.491a4.53 4.53 0 011.585-1.113c.21-.084.385-.168.525-.252.14-.084.287-.154.44-.21.253-.35.638-.637 1.156-.86v.21a.201.201 0 00.147-.064.201.201 0 01.147-.063c-.056-.294.024-.612.241-.955.217-.343.508-.626.871-.85.546-.35 1.015-.648 1.407-.893a2.407 2.407 0 011.302-.367c.238-.056.465-.056.682 0l.662.168c.196.126.388.245.577.357.19.112.354.224.493.336.686.49 1.071.882 1.155 1.175.406.196.767.378 1.082.546.315.168.633.33.955.483.518.252.97.5 1.354.746.385.245.704.507.955.787l.168-.084c.154-.084.26-.154.315-.21-.056-.056-.028-.178.084-.367.112-.19.29-.375.536-.557.245-.182.532-.34.86-.472a2.123 2.123 0 011.103-.116c.336.056.714.207 1.134.452.42.245.72.462.903.65.181.19.181.277 0 .263-.182-.014-.707-.252-1.575-.714.056.056.185.158.388.305s.62.374 1.25.682c.741.238 1.466.542 2.173.913.706.371 1.27.774 1.69 1.208.924.853 1.435 1.602 1.533 2.246.097.644.062 1.225-.105 1.743-.168.518-.326.976-.473 1.375-.147.4-.017.788.389 1.165M12.37 17.118a6.142 6.142 0 00-.063 1.113c.014.35.189.553.525.609.154.28.374.493.661.64.287.147.584.249.892.305.224.056.48.09.767.105.287.014.605.02.955.02.406.085.7.12.882.106.182-.014.378.007.588.063.14 0 .266-.014.378-.042a1.56 1.56 0 01.378-.042 3.48 3.48 0 001.165-.536 3.77 3.77 0 011.04-.535c.35-.14.601-.305.755-.494.154-.189.259-.444.315-.766v-.084c.14.154.353.364.64.63.287.266.494.504.62.714 0-.056-.08-.228-.242-.515a20.845 20.845 0 00-.41-.703c.225.154.424.3.6.44.174.14.276.21.304.21-.168-.251-.483-.549-.945-.891-.462-.343-.952-.69-1.47-1.04a48.598 48.598 0 01-1.48-1.04c-.469-.342-.808-.64-1.018-.891 0 .196.13.409.388.64.259.23.539.469.84.714.3.245.588.497.86.756.274.259.424.514.452.766 0 .196-.07.402-.21.62-.14.216-.329.367-.567.45a3.68 3.68 0 00-.892.284 3.623 3.623 0 01-.955.284c-.112.084-.343.126-.693.126-.084 0-.245-.007-.483-.021a3.19 3.19 0 01-.84-.19c-.28.057-.556.07-.83.043a7.194 7.194 0 00-.724-.042c-.49-.084-.833-.343-1.029-.777-.307-.056-.52-.329-.64-.819-.119-.49.095-1.148.64-1.974a6.67 6.67 0 00-.566.82c-.14.223-.266.43-.378.619a2.63 2.63 0 01-.21.325m17.888 9.112c.308-.056.728-.192 1.26-.409a7.505 7.505 0 001.449-.777c.434-.3.72-.63.86-.987s-.02-.724-.482-1.102c-.392-.336-.546-.633-.462-.892l.273-.84c.098-.301.098-.637 0-1.008-.098-.37-.518-.83-1.26-1.375-.238-.154-.55-.301-.934-.441-.385-.14-.78-.28-1.187-.42.21.224.298.402.263.535a.476.476 0 01-.242.305c-.126.07-.29.112-.493.126a4.126 4.126 0 00-.514.063c-.434.112-.77.217-1.008.315a1.145 1.145 0 01-.714.063 19.172 19.172 0 01-.913-.19c-.301-.07-.599-.321-.893-.755-.028 0-.007.073.063.22.07.147.186.305.347.473.16.168.364.34.609.514.245.175.507.29.787.347.322 0 .612-.063.871-.19.26-.125.676-.265 1.25-.42.28 0 .531-.055.755-.167.07.084.154.2.252.346.098.147.245.319.441.515.462.377.686.689.672.934-.014.245-.15.444-.41.598-.258.154-.573.28-.944.378-.371.098-.69.161-.955.19-.63.125-1.124.21-1.48.251-.358.042-.69.035-.998-.02a2.98 2.98 0 01-1.207-.431 58.83 58.83 0 01-1.04-.662c-.307-.196-.556-.486-.745-.871-.189-.385-.283-.605-.283-.661 0 .112.014.262.042.451.028.189.014.325-.042.41-.056.335-.22.633-.494.892-.273.259-.626.416-1.06.472-.546-.028-.962.06-1.25.263-.286.203-.64.374-1.06.514-.154.056-.3.098-.44.126-.14.028-.28.07-.42.126a3.164 3.164 0 01-.85.063c-.33-.014-.69-.119-1.082-.315-.924.084-1.757.084-2.499 0-.84-.14-1.441-.497-1.805-1.07-.406.027-.704-.06-.893-.263a1.373 1.373 0 01-.346-.777 3.205 3.205 0 01.052-1.05c.077-.385.186-.752.326-1.102a1.059 1.059 0 01-.347-.336.473.473 0 01-.052-.441c-.392.266-.76.563-1.102.892-.343.33-.588.665-.735 1.008-.147.343-.179.658-.095.945.084.287.343.5.777.64a7.583 7.583 0 00-.493 1.617 4.508 4.508 0 00-.042 1.554c.077.476.248.857.514 1.144.266.287.686.388 1.26.304.294.336.647.606 1.06.809.413.203.865.346 1.354.43.49.112 1.008.154 1.554.126.546-.028 1.092-.07 1.638-.126.476.252.903.392 1.28.42.379.028.708-.014.987-.126.21-.056.406-.126.588-.21a5.08 5.08 0 00.483-.252c.49-.238.994-.476 1.512-.714s1.134-.259 1.848-.063c.238 0 .469-.028.693-.084.223-.056.412-.16.566-.314.336.237.697.465 1.082.682.385.217.794.353 1.228.41.462.055.906.003 1.333-.158.427-.161 1.075-.312 1.942-.452m-8.251-8.65c.056 0 .084.014.084.042 0 .028.028.042.084.042l.042.042a.972.972 0 01-.21-.126m10.834 5.291c.448.322.616.626.504.913-.112.287-.354.536-.725.746-.37.21-.808.395-1.312.556-.504.161-.91.256-1.218.284-.434.084-.808.16-1.123.23-.315.07-.595.144-.84.221-.245.077-.469.13-.672.157-.203.028-.43.028-.682 0a3.36 3.36 0 01-1.123-.388c-.371-.203-.732-.402-1.082-.598-.14.112-.308.203-.503.273-.196.07-.441.077-.735.02-.658-.14-1.232-.104-1.722.106s-.973.433-1.449.671c-.21.084-.392.154-.546.21-.154.056-.322.112-.504.168a3.376 3.376 0 01-1.018.105c-.37-.014-.801-.119-1.291-.315a11.17 11.17 0 01-1.554.063 10.839 10.839 0 01-1.554-.147c-.937-.084-1.693-.44-2.267-1.07-.574.056-.997-.046-1.27-.305a1.847 1.847 0 01-.536-.987c-.084-.399-.077-.857.021-1.375a5.84 5.84 0 01.483-1.47c-.714-.196-.976-.566-.787-1.112.189-.546.626-1.064 1.312-1.554.056.084.105.168.147.252a.604.604 0 00.23.23c-.14.393-.244.806-.314 1.24-.07.434-.084.836-.042 1.207.042.37.158.672.346.903.19.23.48.332.872.304.462.63 1.092 1.015 1.89 1.155.755.084 1.602.084 2.54 0 .434.196.83.3 1.186.315.357.014.634-.007.83-.063.21-.056.385-.098.524-.126.14-.028.287-.07.441-.126.476-.196.924-.41 1.344-.64.42-.231.903-.319 1.449-.263a.92.92 0 00.577-.304 6.71 6.71 0 00.43-.515c.127-.168.239-.287.337-.357.098-.07.224-.02.378.147.42.518.93.907 1.532 1.166.602.259 1.12.416 1.554.472.378.056.738.003 1.081-.157.343-.161.844-.312 1.502-.452.251-.028.573-.115.965-.262.392-.147.718-.326.977-.536.259-.21.395-.472.409-.787.014-.315-.224-.675-.714-1.081-.35-.35-.567-.63-.65-.84a1.685 1.685 0 01-.127-.63c.224.056.473.143.746.262.273.12.48.235.62.347.699.462 1.077.857 1.133 1.186.056.329.017.63-.116.903a6.178 6.178 0 00-.325.798c-.084.259.063.542.44.85"
         fill-opacity=".949" fill="#fff" />
   </g>
</svg>