<?xml version="1.0" encoding="UTF-8" standalone="no"?>
<svg width="11.25008mm" height="11.25008mm"
 viewBox="-5.3 -5.3 42.52000 42.52000"
 xmlns="http://www.w3.org/2000/svg" xmlns:xlink="http://www.w3.org/1999/xlink"  version="1.2" baseProfile="tiny">
<title>Qt SVG Document</title>
<desc>Generated with Qt</desc>
<defs>
</defs>
<g fill="none" stroke="black" stroke-width="1" fill-rule="evenodd" stroke-linecap="square" stroke-linejoin="bevel" >

<g fill="#b75800" fill-opacity="1" stroke="none" transform="matrix(1,0,0,1,0,0)"
font-family="MS Shell Dlg 2" font-size="7.8" font-weight="400" font-style="normal" 
>
<path vector-effect="non-scaling-stroke" fill-rule="evenodd" d="M37.2598,16 C37.2598,27.7415 27.7415,37.2598 16,37.2598 C4.25851,37.2598 -5.25984,27.7415 -5.25984,16 C-5.25984,4.25851 4.25851,-5.25984 16,-5.25984 C27.7415,-5.25984 37.2598,4.25851 37.2598,16 "/>
</g>

<g fill="#ffffff" fill-opacity="0.94902" stroke="none" transform="matrix(1,0,0,1,16,13.1654)"
font-family="MS Shell Dlg 2" font-size="7.8" font-weight="400" font-style="normal" 
>
<path vector-effect="none" fill-rule="evenodd" d="M13.5127,7.72119 C13.9746,8.08512 14.0831,8.48405 13.8381,8.91797 C13.5932,9.35189 13.2048,9.76131 12.6729,10.1462 C12.141,10.5312 11.5461,10.8601 10.8882,11.1331 C10.2303,11.406 9.7264,11.5845 9.37646,11.6685 C8.85856,11.7524 8.42114,11.8539 8.06421,11.9729 C7.70728,12.0919 7.37834,12.1934 7.07739,12.2773 C6.77645,12.3613 6.4965,12.4313 6.23755,12.4873 C5.9786,12.5433 5.70915,12.5573 5.4292,12.5293 C4.77132,12.4173 4.16943,12.1549 3.62354,11.7419 C3.07764,11.329 2.55973,10.9196 2.06982,10.5137 L2.02783,10.5137 C1.99984,10.5137 1.98584,10.4857 1.98584,10.4297 C1.55192,10.5137 1.15649,10.6851 0.799561,10.9441 C0.442627,11.203 0.0891927,11.4445 -0.260742,11.6685 C-0.512695,11.9064 -0.775146,12.1094 -1.0481,12.2773 C-1.32104,12.4453 -1.61499,12.5573 -1.92993,12.6133 C-2.24487,12.6693 -2.58081,12.6623 -2.93774,12.5923 C-3.29468,12.5223 -3.7041,12.3473 -4.16602,12.0674 C-4.73991,12.1514 -5.3348,12.2074 -5.95068,12.2354 C-6.56657,12.2633 -7.16846,12.2214 -7.75635,12.1094 C-8.34424,11.9974 -8.91113,11.8119 -9.45703,11.553 C-10.0029,11.294 -10.4578,10.9196 -10.8218,10.4297 C-11.5496,10.5697 -12.092,10.4332 -12.449,10.0203 C-12.8059,9.60734 -13.0334,9.05444 -13.1313,8.36157 C-13.2293,7.6687 -13.2153,6.90234 -13.0894,6.0625 C-12.9634,5.22266 -12.7814,4.4248 -12.5435,3.66895 C-13.1174,3.55697 -13.4778,3.30151 -13.6248,2.90259 C-13.7717,2.50366 -13.7507,2.05225 -13.5618,1.54834 C-13.3728,1.04443 -13.0509,0.547526 -12.5959,0.0576172 C-12.141,-0.432292 -11.6126,-0.803223 -11.0107,-1.05518 C-10.8008,-1.13916 -10.6258,-1.22314 -10.4858,-1.30713 C-10.3459,-1.39111 -10.1989,-1.4611 -10.0449,-1.51709 C-9.79297,-1.86702 -9.40804,-2.15397 -8.89014,-2.37793 L-8.89014,-2.16797 C-8.83415,-2.16797 -8.78516,-2.18896 -8.74316,-2.23096 C-8.70117,-2.27295 -8.65218,-2.29395 -8.59619,-2.29395 C-8.65218,-2.58789 -8.5717,-2.90633 -8.35474,-3.24927 C-8.13778,-3.5922 -7.84733,-3.87565 -7.4834,-4.09961 C-6.9375,-4.44954 -6.46859,-4.74699 -6.07666,-4.99194 C-5.68473,-5.2369 -5.25081,-5.35938 -4.7749,-5.35938 C-4.53695,-5.41536 -4.30949,-5.41536 -4.09253,-5.35938 C-3.87557,-5.30339 -3.65511,-5.2474 -3.43115,-5.19141 C-3.23519,-5.06543 -3.04272,-4.94645 -2.85376,-4.83447 C-2.66479,-4.72249 -2.50033,-4.61051 -2.36035,-4.49854 C-1.67448,-4.00863 -1.28955,-3.6167 -1.20557,-3.32275 C-0.799642,-3.12679 -0.439209,-2.94482 -0.124268,-2.77686 C0.190674,-2.60889 0.509115,-2.44792 0.831055,-2.29395 C1.34896,-2.04199 1.80037,-1.79354 2.1853,-1.54858 C2.57023,-1.30363 2.88867,-1.04118 3.14063,-0.76123 L3.30859,-0.845215 C3.46257,-0.929199 3.56755,-0.999186 3.62354,-1.05518 C3.56755,-1.11117 3.59554,-1.23364 3.70752,-1.42261 C3.8195,-1.61157 3.99797,-1.79704 4.24292,-1.979 C4.48787,-2.16097 4.77482,-2.31844 5.10376,-2.45142 C5.4327,-2.58439 5.80013,-2.62288 6.20605,-2.56689 C6.54199,-2.5109 6.91992,-2.36043 7.33984,-2.11548 C7.75977,-1.87052 8.06071,-1.65356 8.24268,-1.4646 C8.42464,-1.27563 8.42464,-1.18815 8.24268,-1.20215 C8.06071,-1.21615 7.53581,-1.4541 6.66797,-1.91602 C6.72396,-1.86003 6.85343,-1.75854 7.0564,-1.61157 C7.25936,-1.4646 7.67578,-1.23714 8.30566,-0.929199 C9.04753,-0.691243 9.77189,-0.3868 10.4788,-0.0158691 C11.1856,0.355062 11.749,0.757487 12.1689,1.19141 C13.0928,2.04525 13.6037,2.79411 13.7017,3.43799 C13.7996,4.08187 13.7646,4.66276 13.5967,5.18066 C13.4287,5.69857 13.2712,6.15698 13.1243,6.55591 C12.9773,6.95483 13.1068,7.34326 13.5127,7.72119 M-8.89014,-1.30713 C-8.94613,-0.915202 -8.96712,-0.544271 -8.95313,-0.194336 C-8.93913,0.155599 -8.76416,0.358561 -8.42822,0.414551 C-8.27425,0.694499 -8.05379,0.907959 -7.76685,1.05493 C-7.4799,1.2019 -7.18245,1.30339 -6.87451,1.35938 C-6.65055,1.41536 -6.3951,1.45036 -6.10815,1.46436 C-5.82121,1.47835 -5.50277,1.48535 -5.15283,1.48535 C-4.74691,1.56934 -4.45296,1.60433 -4.271,1.59033 C-4.08903,1.57633 -3.89307,1.59733 -3.68311,1.65332 C-3.54313,1.65332 -3.41715,1.63932 -3.30518,1.61133 C-3.1932,1.58333 -3.06722,1.56934 -2.92725,1.56934 C-2.49333,1.45736 -2.1049,1.27889 -1.76196,1.03394 C-1.41903,0.788981 -1.07259,0.610514 -0.722656,0.498535 C-0.372721,0.358561 -0.120768,0.194092 0.0332031,0.00512695 C0.187174,-0.183838 0.292155,-0.43929 0.348145,-0.76123 L0.348145,-0.845215 C0.488118,-0.691243 0.701579,-0.481283 0.988525,-0.215332 C1.27547,0.0506185 1.48193,0.288574 1.60791,0.498535 C1.60791,0.442546 1.52743,0.271077 1.36646,-0.0158691 C1.20549,-0.302816 1.06901,-0.537272 0.957031,-0.719238 C1.18099,-0.565267 1.38045,-0.418294 1.55542,-0.27832 C1.73039,-0.138346 1.83187,-0.0683594 1.85986,-0.0683594 C1.69189,-0.320313 1.37695,-0.617757 0.915039,-0.960693 C0.453125,-1.30363 -0.0367839,-1.65007 -0.554688,-2 C-1.07259,-2.34993 -1.566,-2.69637 -2.03491,-3.03931 C-2.50382,-3.38224 -2.84326,-3.67969 -3.05322,-3.93164 C-3.05322,-3.73568 -2.92375,-3.52222 -2.66479,-3.29126 C-2.40584,-3.0603 -2.1259,-2.82235 -1.82495,-2.57739 C-1.52401,-2.33244 -1.23706,-2.08049 -0.964111,-1.82153 C-0.691162,-1.56258 -0.54069,-1.30713 -0.512695,-1.05518 C-0.512695,-0.859212 -0.582682,-0.652751 -0.722656,-0.435791 C-0.86263,-0.218831 -1.0516,-0.0683594 -1.28955,0.015625 C-1.59749,0.0716146 -1.89494,0.166097 -2.18188,0.299072 C-2.46883,0.432048 -2.78727,0.52653 -3.13721,0.58252 C-3.24919,0.666504 -3.48014,0.708496 -3.83008,0.708496 C-3.91406,0.708496 -4.07503,0.701497 -4.31299,0.6875 C-4.55094,0.673503 -4.83089,0.610514 -5.15283,0.498535 C-5.43278,0.554525 -5.70923,0.568522 -5.98218,0.540527 C-6.25513,0.512533 -6.49658,0.498535 -6.70654,0.498535 C-7.19645,0.414551 -7.53939,0.155599 -7.73535,-0.27832 C-8.04329,-0.33431 -8.25675,-0.607259 -8.37573,-1.09717 C-8.49471,-1.58708 -8.28125,-2.24495 -7.73535,-3.0708 C-7.95931,-2.79085 -8.14827,-2.5179 -8.30225,-2.25195 C-8.44222,-2.02799 -8.5682,-1.82153 -8.68018,-1.63257 C-8.79215,-1.4436 -8.86214,-1.33512 -8.89014,-1.30713 M8.99854,7.80518 C9.30648,7.74919 9.7264,7.61271 10.2583,7.39575 C10.7902,7.17879 11.2731,6.91984 11.707,6.6189 C12.141,6.31795 12.4279,5.98901 12.5679,5.63208 C12.7078,5.27515 12.5469,4.90771 12.085,4.52979 C11.693,4.19385 11.5391,3.8964 11.623,3.63745 C11.707,3.3785 11.798,3.09855 11.896,2.79761 C11.994,2.49666 11.994,2.16073 11.896,1.78979 C11.798,1.41886 11.3781,0.960449 10.6362,0.414551 C10.3983,0.260579 10.0868,0.113607 9.7019,-0.0263672 C9.31698,-0.166341 8.92155,-0.306315 8.51563,-0.446289 C8.72559,-0.222331 8.81307,-0.0438639 8.77808,0.0891113 C8.74308,0.222087 8.6626,0.323568 8.53662,0.393555 C8.41064,0.463542 8.24618,0.505534 8.04321,0.519531 C7.84025,0.533529 7.66878,0.554525 7.52881,0.58252 C7.09489,0.694499 6.75895,0.799479 6.521,0.897461 C6.28304,0.995443 6.04508,1.01644 5.80713,0.960449 C5.49919,0.90446 5.19474,0.841471 4.8938,0.771484 C4.59285,0.701497 4.29541,0.449544 4.00146,0.015625 C3.97347,0.015625 3.99447,0.0891113 4.06445,0.236084 C4.13444,0.383057 4.24992,0.540527 4.41089,0.708496 C4.57186,0.876465 4.77482,1.04793 5.01978,1.2229 C5.26473,1.39787 5.52718,1.51335 5.80713,1.56934 C6.12907,1.56934 6.41951,1.50635 6.67847,1.38037 C6.93742,1.25439 7.35384,1.11442 7.92773,0.960449 C8.20768,0.960449 8.45964,0.90446 8.68359,0.79248 C8.75358,0.876465 8.83757,0.991943 8.93555,1.13892 C9.03353,1.28589 9.1805,1.45736 9.37646,1.65332 C9.83838,2.03125 10.0623,2.34269 10.0483,2.58765 C10.0343,2.8326 9.89787,3.03206 9.63892,3.18604 C9.37996,3.34001 9.06502,3.46598 8.69409,3.56396 C8.32316,3.66195 8.00472,3.72493 7.73877,3.75293 C7.10889,3.87891 6.61548,3.96289 6.25854,4.00488 C5.90161,4.04688 5.56917,4.03988 5.26123,3.98389 C4.82731,3.9279 4.42489,3.78442 4.05396,3.55347 C3.68302,3.32251 3.33659,3.10205 3.01465,2.89209 C2.70671,2.69613 2.45825,2.40568 2.26929,2.02075 C2.08032,1.63582 1.98584,1.41536 1.98584,1.35938 C1.98584,1.47135 1.99984,1.62183 2.02783,1.81079 C2.05583,1.99976 2.04183,2.13623 1.98584,2.22021 C1.92985,2.55615 1.76538,2.8536 1.49243,3.11255 C1.21948,3.3715 0.866048,3.52897 0.432129,3.58496 C-0.11377,3.55697 -0.530192,3.64445 -0.817139,3.84741 C-1.10409,4.05037 -1.45752,4.22184 -1.87744,4.36182 C-2.03141,4.41781 -2.17839,4.4598 -2.31836,4.48779 C-2.45833,4.51579 -2.59831,4.55778 -2.73828,4.61377 C-2.97624,4.66976 -3.25968,4.69076 -3.58862,4.67676 C-3.91756,4.66276 -4.27799,4.55778 -4.66992,4.36182 C-5.59375,4.4458 -6.4266,4.4458 -7.16846,4.36182 C-8.0083,4.22184 -8.61019,3.86491 -8.97412,3.29102 C-9.38005,3.31901 -9.67749,3.23153 -9.86646,3.02856 C-10.0554,2.8256 -10.1709,2.56665 -10.2129,2.25171 C-10.2549,1.93677 -10.2374,1.58683 -10.1604,1.2019 C-10.0834,0.816976 -9.97493,0.449544 -9.83496,0.0996094 C-9.97493,0.015625 -10.0904,-0.0963542 -10.1814,-0.236328 C-10.2724,-0.376302 -10.2899,-0.523275 -10.2339,-0.677246 C-10.6258,-0.411296 -10.9932,-0.113851 -11.3362,0.215088 C-11.6791,0.544027 -11.9241,0.879964 -12.071,1.2229 C-12.218,1.56584 -12.2495,1.88078 -12.1655,2.16772 C-12.0815,2.45467 -11.8226,2.66813 -11.3887,2.80811 C-11.6126,3.32601 -11.7771,3.86491 -11.8821,4.4248 C-11.9871,4.9847 -12.0011,5.5026 -11.9241,5.97852 C-11.8471,6.45443 -11.6756,6.83586 -11.4097,7.1228 C-11.1437,7.40975 -10.7238,7.51123 -10.1499,7.42725 C-9.85596,7.76318 -9.50252,8.03263 -9.0896,8.2356 C-8.67668,8.43856 -8.22526,8.58203 -7.73535,8.66602 C-7.24544,8.77799 -6.72754,8.81999 -6.18164,8.79199 C-5.63574,8.764 -5.08984,8.72201 -4.54395,8.66602 C-4.06803,8.91797 -3.64111,9.05794 -3.26318,9.08594 C-2.88525,9.11393 -2.55632,9.07194 -2.27637,8.95996 C-2.06641,8.90397 -1.87044,8.83398 -1.68848,8.75 C-1.50651,8.66602 -1.34554,8.58203 -1.20557,8.49805 C-0.715658,8.26009 -0.211751,8.02214 0.306152,7.78418 C0.824056,7.54622 1.43994,7.52523 2.15381,7.72119 C2.39176,7.72119 2.62272,7.6932 2.84668,7.63721 C3.07064,7.58122 3.2596,7.47624 3.41357,7.32227 C3.74951,7.56022 4.10994,7.78768 4.49487,8.00464 C4.8798,8.2216 5.28923,8.35807 5.72314,8.41406 C6.18506,8.47005 6.62948,8.41756 7.0564,8.25659 C7.48332,8.09562 8.1307,7.94515 8.99854,7.80518 M0.74707,-0.845215 C0.80306,-0.845215 0.831055,-0.831217 0.831055,-0.803223 C0.831055,-0.775228 0.859049,-0.76123 0.915039,-0.76123 L0.957031,-0.719238 C0.845052,-0.775228 0.775065,-0.81722 0.74707,-0.845215 M11.5811,4.4458 C12.029,4.76774 12.1969,5.07218 12.085,5.35913 C11.973,5.64608 11.7315,5.89453 11.3606,6.10449 C10.9897,6.31445 10.5522,6.49992 10.0483,6.66089 C9.54443,6.82186 9.13851,6.91634 8.83057,6.94434 C8.39665,7.02832 8.02222,7.10531 7.70728,7.17529 C7.39233,7.24528 7.11239,7.31877 6.86743,7.39575 C6.62248,7.47274 6.39852,7.52523 6.19556,7.55322 C5.99259,7.58122 5.76514,7.58122 5.51318,7.55322 C5.13525,7.49723 4.76082,7.36776 4.38989,7.16479 C4.01896,6.96183 3.65853,6.76237 3.30859,6.56641 C3.16862,6.67839 3.00065,6.76937 2.80469,6.83936 C2.60872,6.90934 2.36377,6.91634 2.06982,6.86035 C1.41195,6.72038 0.838053,6.75537 0.348145,6.96533 C-0.141764,7.17529 -0.624674,7.39925 -1.10059,7.63721 C-1.31055,7.72119 -1.49251,7.79118 -1.64648,7.84717 C-1.80046,7.90316 -1.96842,7.95915 -2.15039,8.01514 C-2.45833,8.09912 -2.79777,8.13411 -3.1687,8.12012 C-3.53963,8.10612 -3.97005,8.00114 -4.45996,7.80518 C-4.94987,7.86117 -5.46777,7.88216 -6.01367,7.86816 C-6.55957,7.85417 -7.07747,7.80518 -7.56738,7.72119 C-8.50521,7.63721 -9.26107,7.28027 -9.83496,6.65039 C-10.4089,6.70638 -10.8323,6.6049 -11.1052,6.34595 C-11.3782,6.087 -11.5566,5.75806 -11.6406,5.35913 C-11.7246,4.96021 -11.7176,4.50179 -11.6196,3.98389 C-11.5216,3.46598 -11.3607,2.97607 -11.1367,2.51416 C-11.8506,2.3182 -12.113,1.94727 -11.9241,1.40137 C-11.7351,0.855469 -11.2977,0.337565 -10.6118,-0.152344 C-10.5558,-0.0683594 -10.5068,0.015625 -10.4648,0.0996094 C-10.4229,0.183594 -10.3459,0.260579 -10.2339,0.330566 C-10.3739,0.722493 -10.4788,1.13542 -10.5488,1.56934 C-10.6188,2.00326 -10.6328,2.40568 -10.5908,2.77661 C-10.5488,3.14754 -10.4333,3.44849 -10.2444,3.67944 C-10.0554,3.9104 -9.76497,4.01188 -9.37305,3.98389 C-8.91113,4.61377 -8.28125,4.9987 -7.4834,5.13867 C-6.72754,5.22266 -5.8807,5.22266 -4.94287,5.13867 C-4.50895,5.33464 -4.11353,5.43962 -3.75659,5.45361 C-3.39966,5.46761 -3.12321,5.44661 -2.92725,5.39063 C-2.71729,5.33464 -2.54232,5.29264 -2.40234,5.26465 C-2.26237,5.23665 -2.1154,5.19466 -1.96143,5.13867 C-1.48551,4.94271 -1.0376,4.72925 -0.617676,4.49829 C-0.197754,4.26733 0.285156,4.17985 0.831055,4.23584 C1.05501,4.20785 1.24748,4.10636 1.40845,3.9314 C1.56942,3.75643 1.71289,3.58496 1.83887,3.41699 C1.96484,3.24902 2.07682,3.13005 2.1748,3.06006 C2.27279,2.99007 2.39876,3.03906 2.55273,3.20703 C2.97266,3.72493 3.48356,4.11336 4.08545,4.37231 C4.68734,4.63127 5.20524,4.78874 5.63916,4.84473 C6.01709,4.90072 6.37752,4.84823 6.72046,4.68726 C7.0634,4.52629 7.5638,4.37581 8.22168,4.23584 C8.47363,4.20785 8.79557,4.12036 9.1875,3.97339 C9.57943,3.82642 9.90487,3.64795 10.1638,3.43799 C10.4228,3.22803 10.5592,2.96558 10.5732,2.65063 C10.5872,2.33569 10.3493,1.97526 9.85938,1.56934 C9.50944,1.2194 9.29248,0.939453 9.2085,0.729492 C9.12451,0.519531 9.08252,0.30957 9.08252,0.0996094 C9.30648,0.155599 9.55493,0.243083 9.82788,0.362061 C10.1008,0.481038 10.3073,0.596517 10.4473,0.708496 C11.1471,1.17041 11.5251,1.56584 11.5811,1.89478 C11.637,2.22371 11.5986,2.52466 11.4656,2.79761 C11.3326,3.07056 11.2241,3.33651 11.1401,3.59546 C11.0562,3.85441 11.2031,4.13786 11.5811,4.4458 "/>
</g>

<g fill="#b75800" fill-opacity="1" stroke="none" transform="matrix(1,0,0,1,0,0)"
font-family="MS Shell Dlg 2" font-size="7.8" font-weight="400" font-style="normal" 
>
</g>
</g>
</svg>
