<?xml version="1.0" encoding="UTF-8" standalone="no"?>
<svg
   xmlns:dc="http://purl.org/dc/elements/1.1/"
   xmlns:cc="http://creativecommons.org/ns#"
   xmlns:rdf="http://www.w3.org/1999/02/22-rdf-syntax-ns#"
   xmlns:svg="http://www.w3.org/2000/svg"
   xmlns="http://www.w3.org/2000/svg"
   xmlns:sodipodi="http://sodipodi.sourceforge.net/DTD/sodipodi-0.dtd"
   xmlns:inkscape="http://www.inkscape.org/namespaces/inkscape"
   inkscape:version="1.0 (4035a4fb49, 2020-05-01)"
   sodipodi:docname="1721.svg"
   id="svg20"
   version="1.2"
   viewBox="0 0 42.519639 42.519639"
   height="14.999999mm"
   width="14.999999mm">
  <metadata
     id="metadata24">
    <rdf:RDF>
      <cc:Work
         rdf:about="">
        <dc:format>image/svg+xml</dc:format>
        <dc:type
           rdf:resource="http://purl.org/dc/dcmitype/StillImage" />
        <dc:title>Qt SVG Document</dc:title>
      </cc:Work>
    </rdf:RDF>
  </metadata>
  <sodipodi:namedview
     inkscape:current-layer="svg20"
     inkscape:window-maximized="0"
     inkscape:window-y="0"
     inkscape:window-x="0"
     inkscape:cy="28.346482"
     inkscape:cx="28.346482"
     inkscape:zoom="5.8410537"
     showgrid="false"
     id="namedview22"
     inkscape:window-height="480"
     inkscape:window-width="1034"
     inkscape:pageshadow="2"
     inkscape:pageopacity="0"
     guidetolerance="10"
     gridtolerance="10"
     objecttolerance="10"
     borderopacity="1"
     bordercolor="#666666"
     pagecolor="#ffffff" />
  <title
     id="title2">Qt SVG Document</title>
  <desc
     id="desc4">Generated with Qt</desc>
  <defs
     id="defs6" />
  <g
     transform="translate(5.25984,5.25984)"
     id="g18"
     stroke-linejoin="bevel"
     stroke-linecap="square"
     fill-rule="evenodd"
     stroke-width="1"
     stroke="#000000"
     fill="none">
    <g
       id="g10"
       font-style="normal"
       font-weight="400"
       font-size="7.8px"
       font-family="'MS Shell Dlg 2'"
       stroke="none"
       fill-opacity="1"
       fill="#b75800">
      <path
         id="path8"
         d="M 37.2598,16 C 37.2598,27.7415 27.7415,37.2598 16,37.2598 4.25851,37.2598 -5.25984,27.7415 -5.25984,16 -5.25984,4.25851 4.25851,-5.25984 16,-5.25984 27.7415,-5.25984 37.2598,4.25851 37.2598,16"
         fill-rule="evenodd"
         vector-effect="non-scaling-stroke" />
    </g>
    <g
       id="g14"
       font-style="normal"
       font-weight="400"
       font-size="7.8px"
       font-family="'MS Shell Dlg 2'"
       transform="translate(16,13.1654)"
       stroke="none"
       fill-opacity="0.94902"
       fill="#ffffff">
      <path
         id="path12"
         d="m 13.5127,7.72119 c 0.4619,0.36393 0.5704,0.76286 0.3254,1.19678 -0.2449,0.43392 -0.6333,0.84334 -1.1652,1.22823 -0.5319,0.385 -1.1268,0.7139 -1.7847,0.9869 -0.6579,0.2729 -1.1618,0.4514 -1.51174,0.5354 -0.5179,0.0839 -0.95532,0.1854 -1.31225,0.3044 -0.35693,0.119 -0.68587,0.2205 -0.98682,0.3044 -0.30094,0.084 -0.58089,0.154 -0.83984,0.21 -0.25895,0.056 -0.5284,0.07 -0.80835,0.042 C 4.77132,12.4173 4.16943,12.1549 3.62354,11.7419 3.07764,11.329 2.55973,10.9196 2.06982,10.5137 H 2.02783 c -0.02799,0 -0.04199,-0.028 -0.04199,-0.084 -0.43392,0.084 -0.82935,0.2554 -1.186279,0.5144 -0.356934,0.2589 -0.7103683,0.5004 -1.060303,0.7244 -0.251953,0.2379 -0.514404,0.4409 -0.787358,0.6088 -0.27294,0.168 -0.56689,0.28 -0.88183,0.336 -0.31494,0.056 -0.65088,0.049 -1.00781,-0.021 -0.35694,-0.07 -0.76636,-0.245 -1.22828,-0.5249 -0.57389,0.084 -1.16878,0.14 -1.78466,0.168 -0.61589,0.0279 -1.21778,-0.014 -1.80567,-0.126 -0.58789,-0.112 -1.15478,-0.2975 -1.70068,-0.5564 -0.54587,-0.259 -1.00077,-0.6334 -1.36477,-1.1233 -0.7278,0.14 -1.2702,0.0035 -1.6272,-0.4094 -0.3569,-0.41296 -0.5844,-0.96586 -0.6823,-1.65873 -0.098,-0.69287 -0.084,-1.45923 0.0419,-2.29907 0.126,-0.83984 0.308,-1.6377 0.5459,-2.39355 -0.5739,-0.11198 -0.9343,-0.36744 -1.0813,-0.76636 -0.1469,-0.39893 -0.1259,-0.85034 0.063,-1.35425 0.189,-0.50391 0.5109,-1.000814 0.9659,-1.4907228 0.4549,-0.4899092 0.9833,-0.8608402 1.5852,-1.1127972 0.2099,-0.08398 0.3849,-0.16796 0.5249,-0.25195 0.1399,-0.08398 0.2869,-0.15397 0.4409,-0.20996 0.25193,-0.34993 0.63686,-0.63688 1.15476,-0.86084 v 0.20996 c 0.05599,0 0.10498,-0.02099 0.14698,-0.06299 0.04199,-0.04199 0.09098,-0.06299 0.14697,-0.06299 -0.05599,-0.29394 0.02449,-0.61238 0.24145,-0.95532 0.21696,-0.34293 0.50741,-0.62638 0.87134,-0.85034 0.5459,-0.34993 1.01481,-0.64738 1.40674,-0.89233 0.39193,-0.24496 0.82585,-0.36744 1.30176,-0.36744 0.23795,-0.05598 0.46541,-0.05598 0.68237,0 0.21696,0.05599 0.43742,0.11198 0.66138,0.16797 0.19596,0.12598 0.38843,0.24496 0.57739,0.35694 0.18897,0.11198 0.35343,0.22396 0.49341,0.33593 0.68587,0.48991 1.0708,0.88184 1.15478,1.17579 0.405928,0.19596 0.766361,0.37793 1.081302,0.54589 0.314942,0.16797 0.633383,0.32894 0.955323,0.48291 0.517905,0.25196 0.969315,0.50041 1.354245,0.74537 0.38493,0.24495 0.70337,0.5074 0.95533,0.78735 L 3.30859,-0.845215 C 3.46257,-0.929199 3.56755,-0.999186 3.62354,-1.05518 3.56755,-1.11117 3.59554,-1.23364 3.70752,-1.42261 3.8195,-1.61157 3.99797,-1.79704 4.24292,-1.979 c 0.24495,-0.18197 0.5319,-0.33944 0.86084,-0.47242 0.32894,-0.13297 0.69637,-0.17146 1.10229,-0.11547 0.33594,0.05599 0.71387,0.20646 1.13379,0.45141 0.41993,0.24496 0.72087,0.46192 0.90284,0.65088 0.18196,0.18897 0.18196,0.27645 0,0.26245 -0.18197,-0.014 -0.70687,-0.25195 -1.57471,-0.71387 0.05599,0.05599 0.18546,0.15748 0.38843,0.30445 0.20296,0.14697 0.61938,0.37443 1.24926,0.682371 0.74187,0.237956 1.46623,0.542399 2.17314,0.9133299 0.7068,0.3709311 1.2702,0.7733561 1.6901,1.2072791 0.9239,0.85384 1.4348,1.6027 1.5328,2.24658 0.0979,0.64388 0.0629,1.22477 -0.105,1.74267 -0.168,0.51791 -0.3255,0.97632 -0.4724,1.37525 -0.147,0.39892 -0.0175,0.78735 0.3884,1.16528 M -8.89014,-1.30713 c -0.05599,0.391928 -0.07698,0.762859 -0.06299,1.112794 0.014,0.349935 0.18897,0.552897 0.52491,0.608887 0.15397,0.279948 0.37443,0.493408 0.66137,0.640379 0.28695,0.14697 0.5844,0.24846 0.89234,0.30445 0.22396,0.05598 0.47941,0.09098 0.76636,0.10498 0.28694,0.01399 0.60538,0.02099 0.95532,0.02099 0.40592,0.08399 0.69987,0.11898 0.88183,0.10498 0.18197,-0.014 0.37793,0.007 0.58789,0.06299 0.13998,0 0.26596,-0.014 0.37793,-0.04199 0.11198,-0.028 0.23796,-0.04199 0.37793,-0.04199 C -2.49333,1.45736 -2.1049,1.27889 -1.76196,1.03394 -1.41903,0.788981 -1.07259,0.610514 -0.722656,0.498535 -0.372721,0.358561 -0.120768,0.194092 0.0332031,0.00512695 0.187174,-0.183838 0.292155,-0.43929 0.348145,-0.76123 v -0.083985 c 0.139973,0.153972 0.353434,0.363932 0.64038,0.629883 C 1.27547,0.0506185 1.48193,0.288574 1.60791,0.498535 1.60791,0.442546 1.52743,0.271077 1.36646,-0.0158691 1.20549,-0.302816 1.06901,-0.537272 0.957031,-0.719238 1.18099,-0.565267 1.38045,-0.418294 1.55542,-0.27832 1.73039,-0.138346 1.83187,-0.0683594 1.85986,-0.0683594 1.69189,-0.320313 1.37695,-0.617757 0.915039,-0.960693 0.453125,-1.30363 -0.0367839,-1.65007 -0.554688,-2 -1.07259,-2.34993 -1.566,-2.69637 -2.03491,-3.03931 c -0.46891,-0.34293 -0.80835,-0.64038 -1.01831,-0.89233 0,0.19596 0.12947,0.40942 0.38843,0.64038 0.25895,0.23096 0.53889,0.46891 0.83984,0.71387 0.30094,0.24495 0.58789,0.4969 0.860839,0.75586 0.272949,0.25895 0.423421,0.5144 0.451416,0.76635 0,0.195968 -0.069987,0.402429 -0.209961,0.619389 C -0.86263,-0.218831 -1.0516,-0.0683594 -1.28955,0.015625 -1.59749,0.0716146 -1.89494,0.166097 -2.18188,0.299072 -2.46883,0.432048 -2.78727,0.52653 -3.13721,0.58252 -3.24919,0.666504 -3.48014,0.708496 -3.83008,0.708496 -3.91406,0.708496 -4.07503,0.701497 -4.31299,0.6875 -4.55094,0.673503 -4.83089,0.610514 -5.15283,0.498535 -5.43278,0.554525 -5.70923,0.568522 -5.98218,0.540527 -6.25513,0.512533 -6.49658,0.498535 -6.70654,0.498535 -7.19645,0.414551 -7.53939,0.155599 -7.73535,-0.27832 c -0.30794,-0.05599 -0.5214,-0.328939 -0.64038,-0.81885 -0.11898,-0.48991 0.09448,-1.14778 0.64038,-1.97363 -0.22396,0.27995 -0.41292,0.5529 -0.5669,0.81885 -0.13997,0.22396 -0.26595,0.43042 -0.37793,0.61938 -0.11197,0.18897 -0.18196,0.29745 -0.20996,0.32544 M 8.99854,7.80518 C 9.30648,7.74919 9.7264,7.61271 10.2583,7.39575 10.7902,7.17879 11.2731,6.91984 11.707,6.6189 12.141,6.31795 12.4279,5.98901 12.5679,5.63208 12.7078,5.27515 12.5469,4.90771 12.085,4.52979 11.693,4.19385 11.5391,3.8964 11.623,3.63745 11.707,3.3785 11.798,3.09855 11.896,2.79761 11.994,2.49666 11.994,2.16073 11.896,1.78979 11.798,1.41886 11.3781,0.960449 10.6362,0.414551 10.3983,0.260579 10.0868,0.113607 9.7019,-0.0263672 9.31698,-0.166341 8.92155,-0.306315 8.51563,-0.446289 8.72559,-0.222331 8.81307,-0.0438639 8.77808,0.0891113 8.74308,0.222087 8.6626,0.323568 8.53662,0.393555 8.41064,0.463542 8.24618,0.505534 8.04321,0.519531 7.84025,0.533529 7.66878,0.554525 7.52881,0.58252 7.09489,0.694499 6.75895,0.799479 6.521,0.897461 6.28304,0.995443 6.04508,1.01644 5.80713,0.960449 5.49919,0.90446 5.19474,0.841471 4.8938,0.771484 4.59285,0.701497 4.29541,0.449544 4.00146,0.015625 c -0.02799,0 -0.00699,0.0734863 0.06299,0.220459 0.06999,0.146973 0.18547,0.304443 0.34644,0.472412 0.16097,0.167969 0.36393,0.339434 0.60889,0.514404 0.24495,0.17497 0.5074,0.29045 0.78735,0.34644 0.32194,0 0.61238,-0.06299 0.87134,-0.18897 C 6.93742,1.25439 7.35384,1.11442 7.92773,0.960449 8.20768,0.960449 8.45964,0.90446 8.68359,0.79248 8.75358,0.876465 8.83757,0.991943 8.93555,1.13892 9.03353,1.28589 9.1805,1.45736 9.37646,1.65332 9.83838,2.03125 10.0623,2.34269 10.0483,2.58765 10.0343,2.8326 9.89787,3.03206 9.63892,3.18604 9.37996,3.34001 9.06502,3.46598 8.69409,3.56396 8.32316,3.66195 8.00472,3.72493 7.73877,3.75293 7.10889,3.87891 6.61548,3.96289 6.25854,4.00488 5.90161,4.04688 5.56917,4.03988 5.26123,3.98389 4.82731,3.9279 4.42489,3.78442 4.05396,3.55347 3.68302,3.32251 3.33659,3.10205 3.01465,2.89209 2.70671,2.69613 2.45825,2.40568 2.26929,2.02075 2.08032,1.63582 1.98584,1.41536 1.98584,1.35938 c 0,0.11197 0.014,0.26245 0.04199,0.45141 0.028,0.18897 0.014,0.32544 -0.04199,0.40942 C 1.92985,2.55615 1.76538,2.8536 1.49243,3.11255 1.21948,3.3715 0.866048,3.52897 0.432129,3.58496 -0.11377,3.55697 -0.530192,3.64445 -0.817139,3.84741 -1.10409,4.05037 -1.45752,4.22184 -1.87744,4.36182 -2.03141,4.41781 -2.17839,4.4598 -2.31836,4.48779 c -0.13997,0.028 -0.27995,0.06999 -0.41992,0.12598 -0.23796,0.05599 -0.5214,0.07699 -0.85034,0.06299 -0.32894,-0.014 -0.68937,-0.11898 -1.0813,-0.31494 -0.92383,0.08398 -1.75668,0.08398 -2.49854,0 C -8.0083,4.22184 -8.61019,3.86491 -8.97412,3.29102 -9.38005,3.31901 -9.67749,3.23153 -9.86646,3.02856 -10.0554,2.8256 -10.1709,2.56665 -10.2129,2.25171 c -0.042,-0.31494 -0.0245,-0.66488 0.0525,-1.04981 0.077,-0.384924 0.18547,-0.752356 0.32544,-1.1022906 -0.13997,-0.0839844 -0.25544,-0.1959636 -0.34644,-0.3359374 -0.091,-0.139974 -0.1085,-0.286947 -0.0525,-0.440918 -0.3919,0.26595 -0.7593,0.563395 -1.1023,0.892334 -0.3429,0.328939 -0.5879,0.664876 -0.7348,1.007812 -0.147,0.34294 -0.1785,0.65788 -0.0945,0.94482 0.084,0.28695 0.3429,0.50041 0.7768,0.64039 -0.2239,0.5179 -0.3884,1.0568 -0.4934,1.61669 -0.105,0.5599 -0.119,1.0778 -0.042,1.55372 0.077,0.47591 0.2485,0.85734 0.5144,1.14428 0.266,0.28695 0.6859,0.38843 1.2598,0.30445 0.29394,0.33593 0.64738,0.60538 1.0603,0.80835 0.41292,0.20296 0.86434,0.34643 1.35425,0.43042 0.48991,0.11197 1.00781,0.15397 1.55371,0.12597 0.5459,-0.02799 1.0918,-0.06998 1.63769,-0.12597 0.47592,0.25195 0.90284,0.39192 1.28077,0.41992 0.37793,0.02799 0.70686,-0.014 0.98681,-0.12598 C -2.06641,8.90397 -1.87044,8.83398 -1.68848,8.75 -1.50651,8.66602 -1.34554,8.58203 -1.20557,8.49805 -0.715658,8.26009 -0.211751,8.02214 0.306152,7.78418 0.824056,7.54622 1.43994,7.52523 2.15381,7.72119 2.39176,7.72119 2.62272,7.6932 2.84668,7.63721 3.07064,7.58122 3.2596,7.47624 3.41357,7.32227 3.74951,7.56022 4.10994,7.78768 4.49487,8.00464 4.8798,8.2216 5.28923,8.35807 5.72314,8.41406 6.18506,8.47005 6.62948,8.41756 7.0564,8.25659 7.48332,8.09562 8.1307,7.94515 8.99854,7.80518 M 0.74707,-0.845215 c 0.05599,0 0.083985,0.013998 0.083985,0.041992 0,0.027995 0.027994,0.041993 0.083984,0.041993 l 0.041992,0.041992 C 0.845052,-0.775228 0.775065,-0.81722 0.74707,-0.845215 M 11.5811,4.4458 c 0.4479,0.32194 0.6158,0.62638 0.5039,0.91333 -0.112,0.28695 -0.3535,0.5354 -0.7244,0.74536 -0.3709,0.20996 -0.8084,0.39543 -1.3123,0.5564 C 9.54443,6.82186 9.13851,6.91634 8.83057,6.94434 8.39665,7.02832 8.02222,7.10531 7.70728,7.17529 7.39233,7.24528 7.11239,7.31877 6.86743,7.39575 6.62248,7.47274 6.39852,7.52523 6.19556,7.55322 c -0.20297,0.028 -0.43042,0.028 -0.68238,0 C 5.13525,7.49723 4.76082,7.36776 4.38989,7.16479 4.01896,6.96183 3.65853,6.76237 3.30859,6.56641 3.16862,6.67839 3.00065,6.76937 2.80469,6.83936 2.60872,6.90934 2.36377,6.91634 2.06982,6.86035 1.41195,6.72038 0.838053,6.75537 0.348145,6.96533 -0.141764,7.17529 -0.624674,7.39925 -1.10059,7.63721 -1.31055,7.72119 -1.49251,7.79118 -1.64648,7.84717 -1.80046,7.90316 -1.96842,7.95915 -2.15039,8.01514 -2.45833,8.09912 -2.79777,8.13411 -3.1687,8.12012 -3.53963,8.10612 -3.97005,8.00114 -4.45996,7.80518 -4.94987,7.86117 -5.46777,7.88216 -6.01367,7.86816 -6.55957,7.85417 -7.07747,7.80518 -7.56738,7.72119 -8.50521,7.63721 -9.26107,7.28027 -9.83496,6.65039 -10.4089,6.70638 -10.8323,6.6049 -11.1052,6.34595 -11.3782,6.087 -11.5566,5.75806 -11.6406,5.35913 c -0.084,-0.39892 -0.077,-0.85734 0.021,-1.37524 0.098,-0.51791 0.2589,-1.00782 0.4829,-1.46973 -0.7139,-0.19596 -0.9763,-0.56689 -0.7874,-1.11279 0.189,-0.545901 0.6264,-1.063805 1.3123,-1.553714 0.056,0.0839846 0.105,0.167969 0.147,0.2519534 0.0419,0.0839846 0.1189,0.1609696 0.2309,0.2309566 -0.14,0.391927 -0.2449,0.804854 -0.3149,1.238774 -0.07,0.43392 -0.084,0.83634 -0.042,1.20727 0.042,0.37093 0.1575,0.67188 0.3464,0.90283 0.189,0.23096 0.47943,0.33244 0.87135,0.30445 0.46192,0.62988 1.0918,1.01481 1.88965,1.15478 0.75586,0.08399 1.6027,0.08399 2.54053,0 0.43392,0.19597 0.82934,0.30095 1.18628,0.31494 0.35693,0.014 0.63338,-0.007 0.82934,-0.06298 0.20996,-0.05599 0.38493,-0.09799 0.52491,-0.12598 0.13997,-0.028 0.28694,-0.06999 0.44091,-0.12598 C -1.48551,4.94271 -1.0376,4.72925 -0.617676,4.49829 -0.197754,4.26733 0.285156,4.17985 0.831055,4.23584 1.05501,4.20785 1.24748,4.10636 1.40845,3.9314 1.56942,3.75643 1.71289,3.58496 1.83887,3.41699 1.96484,3.24902 2.07682,3.13005 2.1748,3.06006 2.27279,2.99007 2.39876,3.03906 2.55273,3.20703 2.97266,3.72493 3.48356,4.11336 4.08545,4.37231 4.68734,4.63127 5.20524,4.78874 5.63916,4.84473 6.01709,4.90072 6.37752,4.84823 6.72046,4.68726 7.0634,4.52629 7.5638,4.37581 8.22168,4.23584 8.47363,4.20785 8.79557,4.12036 9.1875,3.97339 9.57943,3.82642 9.90487,3.64795 10.1638,3.43799 10.4228,3.22803 10.5592,2.96558 10.5732,2.65063 10.5872,2.33569 10.3493,1.97526 9.85938,1.56934 9.50944,1.2194 9.29248,0.939453 9.2085,0.729492 9.12451,0.519531 9.08252,0.30957 9.08252,0.0996094 9.30648,0.155599 9.55493,0.243083 9.82788,0.362061 c 0.27292,0.118977 0.47942,0.234456 0.61942,0.346435 0.6998,0.461914 1.0778,0.857344 1.1338,1.186284 0.0559,0.32893 0.0175,0.62988 -0.1155,0.90283 -0.133,0.27295 -0.2415,0.5389 -0.3255,0.79785 -0.0839,0.25895 0.063,0.5424 0.441,0.85034"
         fill-rule="evenodd"
         vector-effect="none" />
    </g>
    <g
       id="g16"
       font-style="normal"
       font-weight="400"
       font-size="7.8px"
       font-family="'MS Shell Dlg 2'"
       stroke="none"
       fill-opacity="1"
       fill="#b75800" />
  </g>
</svg>
