<?xml version="1.0" encoding="UTF-8" standalone="no"?>
<svg
   xmlns:dc="http://purl.org/dc/elements/1.1/"
   xmlns:cc="http://creativecommons.org/ns#"
   xmlns:rdf="http://www.w3.org/1999/02/22-rdf-syntax-ns#"
   xmlns:svg="http://www.w3.org/2000/svg"
   xmlns="http://www.w3.org/2000/svg"
   xmlns:sodipodi="http://sodipodi.sourceforge.net/DTD/sodipodi-0.dtd"
   xmlns:inkscape="http://www.inkscape.org/namespaces/inkscape"
   inkscape:version="1.0 (4035a4fb49, 2020-05-01)"
   sodipodi:docname="1722.svg"
   id="svg20"
   version="1.2"
   viewBox="0 0 42.519639 42.519639"
   height="14.999999mm"
   width="14.999999mm">
  <metadata
     id="metadata24">
    <rdf:RDF>
      <cc:Work
         rdf:about="">
        <dc:format>image/svg+xml</dc:format>
        <dc:type
           rdf:resource="http://purl.org/dc/dcmitype/StillImage" />
        <dc:title>Qt SVG Document</dc:title>
      </cc:Work>
    </rdf:RDF>
  </metadata>
  <sodipodi:namedview
     inkscape:current-layer="svg20"
     inkscape:window-maximized="0"
     inkscape:window-y="0"
     inkscape:window-x="0"
     inkscape:cy="28.346482"
     inkscape:cx="28.346482"
     inkscape:zoom="5.8410537"
     showgrid="false"
     id="namedview22"
     inkscape:window-height="480"
     inkscape:window-width="1034"
     inkscape:pageshadow="2"
     inkscape:pageopacity="0"
     guidetolerance="10"
     gridtolerance="10"
     objecttolerance="10"
     borderopacity="1"
     bordercolor="#666666"
     pagecolor="#ffffff" />
  <title
     id="title2">Qt SVG Document</title>
  <desc
     id="desc4">Generated with Qt</desc>
  <defs
     id="defs6" />
  <g
     transform="translate(5.25984,5.25984)"
     id="g18"
     stroke-linejoin="bevel"
     stroke-linecap="square"
     fill-rule="evenodd"
     stroke-width="1"
     stroke="#000000"
     fill="none">
    <g
       id="g10"
       font-style="normal"
       font-weight="400"
       font-size="7.8px"
       font-family="'MS Shell Dlg 2'"
       stroke="none"
       fill-opacity="1"
       fill="#b75800">
      <path
         id="path8"
         d="M 37.2598,16 C 37.2598,27.7415 27.7415,37.2598 16,37.2598 4.25851,37.2598 -5.25984,27.7415 -5.25984,16 -5.25984,4.25851 4.25851,-5.25984 16,-5.25984 27.7415,-5.25984 37.2598,4.25851 37.2598,16"
         fill-rule="evenodd"
         vector-effect="non-scaling-stroke" />
    </g>
    <g
       id="g14"
       font-style="normal"
       font-weight="400"
       font-size="7.8px"
       font-family="'MS Shell Dlg 2'"
       transform="translate(16,12.5984)"
       stroke="none"
       fill-opacity="0.94902"
       fill="#ffffff">
      <path
         id="path12"
         d="m -8.42822,-1.26514 c -0.39193,0.489912 -0.83985,0.990319 -1.34375,1.501224 -0.50393,0.510905 -1.00083,1.144286 -1.49073,1.900146 -0.3079,0.60189 -0.5354,1.26676 -0.6824,1.99463 -0.1469,0.72786 -0.1784,1.37874 -0.0945,1.95264 0.154,0.60188 0.273,1.12679 0.357,1.5747 0.084,0.44792 0.126,0.82585 0.126,1.13379 v 0.5669 0.20996 l -0.084,0.25195 c -0.056,0.13997 -0.098,0.2974 -0.126,0.4724 -0.028,0.175 -0.042,0.3325 -0.042,0.4724 -0.126,0.294 -0.231,0.5564 -0.3149,0.7874 -0.084,0.2309 -0.168,0.4444 -0.252,0.6404 -0.112,0.1399 -0.189,0.2834 -0.2309,0.4304 -0.042,0.147 -0.098,0.2904 -0.168,0.4304 -0.252,-0.3499 -0.3779,-0.7979 -0.3779,-1.3438 V 0.79248 c 0.0559,-0.111979 0.2449,-0.300944 0.5669,-0.566894 0.7978,-0.825846 1.4767,-1.602706 2.0366,-2.330566 0.55987,-0.72787 0.97979,-1.35075 1.25974,-1.86865 0.05599,-0.13998 0.10148,-0.26245 0.13647,-0.36743 0.035,-0.10498 0.08049,-0.21346 0.13648,-0.32544 0.33593,-0.05599 0.68237,-0.09799 1.0393,-0.12598 0.35694,-0.028 0.71037,-0.06999 1.06031,-0.12598 0,0.13998 -0.007,0.31145 -0.021,0.51441 -0.014,0.20296 -0.04899,0.40242 -0.10498,0.59839 -0.13997,0.71386 -0.60189,1.56071 -1.38574,2.54052 m -1.61668,-3.27539 c -0.322,0.40593 -0.7349,0.88884 -1.2388,1.44873 -0.5039,0.5599 -1.1268,1.16879 -1.8686,1.82666 v -2.62451 c 0.4899,-0.13997 0.9868,-0.26245 1.4907,-0.36743 0.5039,-0.10498 1.0428,-0.19946 1.6167,-0.28345 m 3.56931,7.70557 c -0.37793,0.74186 -0.62638,1.51522 -0.74536,2.32007 -0.11898,0.80485 -0.14347,1.53621 -0.07348,2.19409 0.02799,0.30794 0.11198,0.69987 0.25195,1.17578 0.13997,0.47591 0.28345,1.00081 0.43042,1.57472 0.14697,0.5739 0.26245,1.1828 0.34643,1.8266 0.08399,0.6439 0.08399,1.2808 0,1.9107 h -4.43017 c -0.21,0 -0.3709,-0.028 -0.4829,-0.084 0.2939,-0.2939 0.5109,-0.6369 0.6509,-1.0288 0.1399,-0.238 0.2624,-0.5144 0.3674,-0.8293 0.105,-0.315 0.21346,-0.6404 0.32544,-0.9764 0.05599,-0.2099 0.09798,-0.4059 0.12598,-0.5879 0.02799,-0.1819 0.06998,-0.3919 0.12597,-0.6298 V 9.73682 9.65283 9.56885 l 0.08399,-0.20996 c 0,-0.08399 -0.014,-0.20646 -0.042,-0.36743 C -9.56901,8.83049 -9.58301,8.70801 -9.58301,8.62402 -9.639,8.10612 -9.74048,7.60921 -9.88745,7.1333 -10.0344,6.65739 -10.1499,6.18148 -10.2339,5.70557 c -0.14,-0.43392 -0.189,-0.88884 -0.147,-1.36475 0.042,-0.47591 0.182,-1.00081 0.41996,-1.57471 0.33594,-0.60188 0.73487,-1.18278 1.19678,-1.74267 0.46191,-0.559898 0.84684,-1.1057968 1.15478,-1.637698 0.40593,-0.517902 0.73137,-1.028812 0.97632,-1.532712 0.24496,-0.50391 0.39543,-1.00082 0.45142,-1.49073 0.05599,-0.27994 0.06999,-0.5354 0.04199,-0.76635 -0.02799,-0.23096 -0.06999,-0.43042 -0.12598,-0.59839 0.65788,-0.05599 1.31576,-0.10848 1.97364,-0.15747 0.65788,-0.04899 1.31575,-0.10148 1.97363,-0.15747 0,0.15397 0.014,0.30094 0.04199,0.44092 0.028,0.13997 0.04199,0.30794 0.04199,0.5039 -0.05598,0.48991 -0.16796,1.00082 -0.33593,1.53272 -0.16797,0.5319 -0.46892,1.08479 -0.90283,1.65869 -0.37793,0.573891 -0.86784,1.1897763 -1.46973,1.847654 C -5.54476,1.32438 -6.05566,2.15723 -6.47559,3.16504 M -1.20557,2.99707 C -1.42952,3.361 -1.5625,3.74593 -1.60449,4.15186 c -0.04199,0.40592 -0.06299,0.76285 -0.06299,1.0708 0.02799,0.76985 0.24145,1.49422 0.64038,2.17309 0.398926,0.67888 0.776856,1.36125 1.133789,2.04712 0.356934,0.68583 0.580892,1.40673 0.671875,2.16263 0.090984,0.7558 -0.164469,1.6097 -0.766357,2.5615 H -3.34717 c 0,-0.196 -0.007,-0.3674 -0.02099,-0.5144 -0.014,-0.147 -0.04899,-0.2905 -0.10498,-0.4304 l -0.08399,-0.378 -0.08398,-0.3569 c 0,-0.168 -0.06299,-0.3989 -0.18897,-0.6929 C -3.94206,11.5705 -4.04704,11.343 -4.14502,11.1121 -4.243,10.8811 -4.36198,10.6536 -4.50195,10.4297 -4.73991,9.93978 -4.95687,9.45687 -5.15283,8.98096 -5.3488,8.50505 -5.47477,8.01514 -5.53076,7.51123 -5.62874,6.88135 -5.64624,6.25496 -5.58325,5.63208 -5.52026,5.0092 -5.37679,4.36882 -5.15283,3.71094 c 0.32194,-0.82585 0.75236,-1.56771 1.29126,-2.22559 0.5389,-0.657876 1.02531,-1.315754 1.45923,-1.973631 0.37793,-0.727869 0.65787,-1.427739 0.83984,-2.099609 0.18197,-0.67188 0.24495,-1.26676 0.18896,-1.78467 0,-0.19596 -0.02099,-0.36393 -0.06298,-0.5039 -0.042,-0.13998 -0.09099,-0.28695 -0.14698,-0.44092 H 0.705078 2.11182 c 0,0.15397 0.01399,0.30094 0.04199,0.44092 0.02799,0.13997 0.06999,0.27994 0.12598,0.41992 0.15397,0.37793 0.32893,0.83284 0.5249,1.36474 0.19596,0.5319 0.26595,1.05681 0.20996,1.57471 0,0.559896 -0.24496,1.084798 -0.73486,1.5747072 C 2.08382,0.295573 1.82837,0.512533 1.51343,0.708496 1.19849,0.90446 0.824056,1.12142 0.390137,1.35938 0.110189,1.55534 -0.173258,1.7758 -0.460205,2.02075 c -0.286947,0.24496 -0.5354,0.5704 -0.745365,0.97632 m 9.1333,6.73975 c 0.19597,0.22395 0.36394,0.45138 0.50391,0.68238 0.13997,0.2309 0.25895,0.5074 0.35693,0.8293 0.16797,0.5179 0.29395,1.0498 0.37793,1.5957 0,0.448 -0.06998,0.8889 -0.20996,1.3228 H 4.27441 C 4.20443,13.3971 3.98397,12.6588 3.61304,11.9519 3.24211,11.245 2.81519,10.5627 2.33228,9.90479 1.84937,9.24691 1.38395,8.60303 0.936035,7.97314 0.488118,7.34326 0.180176,6.71338 0.012207,6.0835 -0.127767,5.64958 -0.155762,5.18416 -0.0717773,4.68726 0.012207,4.19035 0.110189,3.86491 0.222168,3.71094 0.362142,3.375 0.733073,3.00407 1.33496,2.59814 1.6569,2.3182 1.99634,2.04875 2.35327,1.78979 2.71021,1.53084 3.02865,1.2264 3.30859,0.876465 3.60254,0.568522 3.837,0.197591 4.01196,-0.236328 4.18693,-0.670247 4.27441,-1.06917 4.27441,-1.43311 4.27441,-1.86702 4.21493,-2.24845 4.09595,-2.57739 3.97697,-2.90633 3.87549,-3.18978 3.7915,-3.42773 3.65153,-3.70768 3.52905,-3.96313 3.42407,-4.19409 3.31909,-4.42505 3.22461,-4.63851 3.14063,-4.83447 3.00065,-5.00244 2.90267,-5.16341 2.84668,-5.31738 c 0.40592,0 0.78735,0.01399 1.14429,0.04199 0.35693,0.02799 0.68937,0.04199 0.99731,0.04199 v 0.08399 c 0,0.23795 0.04549,0.47941 0.13648,0.72436 0.09098,0.24496 0.17846,0.50741 0.26245,0.78735 0.13997,0.32194 0.27295,0.62639 0.39892,0.91333 0.12598,0.28695 0.25196,0.5844 0.37793,0.89234 0.13998,0.32194 0.26595,0.66837 0.37793,1.039305 0.11198,0.370931 0.19597,0.7453617 0.25196,1.123291 0,0.391927 -0.06999,0.766354 -0.20997,1.123294 C 6.44401,1.81079 6.25505,2.19222 6.01709,2.59814 5.73714,3.03206 5.4397,3.47648 5.12476,3.9314 4.80981,4.38631 4.58236,4.9777 4.44238,5.70557 4.3584,5.98551 4.3584,6.31095 4.44238,6.68188 4.52637,7.05282 4.68034,7.35726 4.9043,7.59521 5.11426,7.81917 5.31722,7.99764 5.51318,8.13062 5.70915,8.26359 5.87712,8.40007 6.01709,8.54004 6.45101,8.70801 6.81844,8.89347 7.11938,9.09644 7.42033,9.2994 7.68978,9.51286 7.92773,9.73682 M 11.0142,6.0835 c 0.3499,0.43392 0.6683,0.83634 0.9553,1.20727 0.2869,0.37093 0.5704,0.71737 0.8503,1.03931 0.056,0.16797 0.182,0.32194 0.378,0.46191 v 2.91841 c 0,0.6299 -0.2065,1.1688 -0.6194,1.6167 -0.413,0.448 -0.9344,0.6999 -1.5642,0.7559 0.1399,-0.4899 0.1399,-1.0218 0,-1.5957 -0.056,-0.3359 -0.126,-0.6859 -0.21,-1.0498 -0.084,-0.3639 -0.203,-0.6999 -0.3569,-1.0078 C 10.3073,10.0798 10.1218,9.71232 9.89087,9.32739 9.65991,8.94246 9.34847,8.61003 8.95654,8.33008 8.6346,8.03613 8.28817,7.78768 7.91724,7.58472 7.54631,7.38175 7.19637,7.19629 6.86743,7.02832 6.53849,6.86035 6.27254,6.68188 6.06958,6.49292 5.86662,6.30396 5.79313,6.09749 5.84912,5.87354 5.90511,5.69157 5.9786,5.49561 6.06958,5.28564 6.16056,5.07568 6.24805,4.86572 6.33203,4.65576 6.47201,4.4318 6.61548,4.19735 6.76245,3.95239 6.90942,3.70744 7.0529,3.47298 7.19287,3.24902 7.27686,3.01107 7.37484,2.77311 7.48682,2.53516 7.5988,2.2972 7.68278,2.05924 7.73877,1.82129 7.83675,1.54134 7.89274,1.26489 7.90674,0.991943 7.92074,0.718994 7.92773,0.463542 7.92773,0.225586 7.82975,-0.27832 7.70378,-0.726237 7.5498,-1.11816 7.39583,-1.51009 7.24886,-1.87402 7.10889,-2.20996 6.95492,-2.5319 6.80794,-2.85034 6.66797,-3.16528 6.52799,-3.48022 6.38802,-3.74967 6.24805,-3.97363 6.09408,-4.21159 5.9891,-4.42855 5.93311,-4.62451 5.87712,-4.82048 5.82113,-4.99544 5.76514,-5.14941 c 0.37793,0 0.75236,0.02449 1.12329,0.07348 0.37093,0.04899 0.74536,0.10148 1.12329,0.15747 0.11198,0.13998 0.25195,0.27995 0.41992,0.41992 0.16797,0.13998 0.34294,0.31495 0.5249,0.52491 0.13998,0.13997 0.30445,0.27295 0.49341,0.39892 0.18897,0.12598 0.36743,0.26595 0.5354,0.41992 0.11195,0.11198 0.18895,0.20297 0.23095,0.27295 0.042,0.06999 0.091,0.17497 0.147,0.31495 0.056,0.15397 0.1085,0.27994 0.1575,0.37793 0.0489,0.09798 0.1014,0.21695 0.1574,0.35693 0.084,0.5459 0.084,1.147785 0,1.8056628 C 10.6222,0.267578 10.5138,0.57902 10.3528,0.907959 10.1918,1.2369 10.0413,1.64632 9.90137,2.13623 9.81738,2.44417 9.77539,2.8151 9.77539,3.24902 c 0,0.43392 0.06999,0.80485 0.20996,1.1128 0.11195,0.32194 0.26595,0.63688 0.46195,0.94482 l 0.1469,0.20996 0.168,0.18897 0.252,0.37793 M 9.25049,-4.83447 c 1.34371,0.16797 2.65951,0.38493 3.94731,0.65088 v 9.97314 c -0.14,-0.15397 -0.28,-0.29394 -0.42,-0.41992 C 12.6379,5.24365 12.4979,5.11068 12.3579,4.9707 11.98,4.53678 11.7035,4.13436 11.5286,3.76343 11.3536,3.3925 11.3081,2.94808 11.3921,2.43018 c 0.07,-0.34994 0.168,-0.72437 0.2939,-1.1233 0.126,-0.398921 0.217,-0.787349 0.273,-1.165278 0.056,-0.419922 0.063,-0.825847 0.021,-1.217772 -0.042,-0.39193 -0.133,-0.74186 -0.273,-1.04981 -0.084,-0.34993 -0.2169,-0.65088 -0.3989,-0.90283 -0.056,-0.13997 -0.154,-0.29744 -0.2939,-0.47241 -0.14,-0.17497 -0.252,-0.30444 -0.336,-0.38843 -0.2379,-0.19596 -0.4549,-0.35343 -0.6509,-0.47241 -0.19592,-0.11898 -0.37089,-0.24845 -0.52486,-0.38843 -0.11198,0 -0.19596,-0.02799 -0.25195,-0.08398"
         fill-rule="evenodd"
         vector-effect="none" />
    </g>
    <g
       id="g16"
       font-style="normal"
       font-weight="400"
       font-size="7.8px"
       font-family="'MS Shell Dlg 2'"
       stroke="none"
       fill-opacity="1"
       fill="#b75800" />
  </g>
</svg>
