<svg xmlns="http://www.w3.org/2000/svg" version="1.2" viewBox="0 0 42.52 42.52" height="56.693" width="56.693">
   <g stroke-linejoin="bevel" stroke-linecap="square" fill-rule="evenodd" stroke="none" fill="none" font-weight="400"
      font-size="7.8" font-family="'MS Shell Dlg 2'">
      <path
         d="M42.52 21.26C42.52 33 33 42.52 21.26 42.52 9.518 42.52 0 33 0 21.26 0 9.518 9.518 0 21.26 0 33 0 42.52 9.518 42.52 21.26"
         vector-effect="non-scaling-stroke" fill="#b75800" />
      <path
         d="M12.832 16.593c-.392.49-.84.99-1.344 1.501-.504.511-1.001 1.145-1.49 1.9a7.707 7.707 0 00-.683 1.995c-.147.728-.179 1.379-.095 1.953.154.602.273 1.127.357 1.574.084.448.126.826.126 1.134V27.427l-.084.252c-.056.14-.098.297-.126.472a3.02 3.02 0 00-.042.473 15.21 15.21 0 00-.315.787c-.084.231-.168.445-.252.64-.112.14-.189.284-.23.431a2.49 2.49 0 01-.169.43c-.252-.35-.377-.797-.377-1.343V18.65c.055-.112.244-.301.566-.567a27.783 27.783 0 002.037-2.33c.56-.729.98-1.351 1.26-1.87a6.79 6.79 0 00.136-.367c.035-.105.08-.213.137-.325.336-.056.682-.098 1.039-.126.357-.028.71-.07 1.06-.126 0 .14-.007.311-.02.514a2.898 2.898 0 01-.106.599c-.14.713-.602 1.56-1.385 2.54m-1.617-3.275c-.322.406-.735.889-1.239 1.448a23.557 23.557 0 01-1.868 1.827V13.97c.49-.14.986-.263 1.49-.368.504-.105 1.043-.2 1.617-.283m3.57 7.705a7.496 7.496 0 00-.746 2.32c-.12.805-.144 1.537-.074 2.194.028.308.112.7.252 1.176s.284 1.001.43 1.575c.148.574.263 1.183.347 1.827.084.643.084 1.28 0 1.91h-4.43c-.21 0-.37-.028-.483-.084.294-.294.511-.637.651-1.029.14-.238.262-.514.367-.829l.326-.976c.056-.21.098-.406.126-.588.028-.182.07-.392.126-.63v-.462l.084-.21c0-.084-.014-.206-.042-.367a2.332 2.332 0 01-.042-.368 7.928 7.928 0 00-.305-1.49 11.772 11.772 0 01-.346-1.428 3.42 3.42 0 01-.147-1.365c.042-.476.182-1 .42-1.575.336-.602.735-1.182 1.197-1.742.462-.56.847-1.106 1.154-1.638a8.593 8.593 0 00.977-1.533c.245-.504.395-1 .451-1.49.056-.28.07-.536.042-.767a3.08 3.08 0 00-.126-.598c.658-.056 1.316-.109 1.974-.158.658-.049 1.316-.101 1.973-.157 0 .154.014.3.042.44.028.14.042.309.042.505-.056.49-.167 1-.335 1.532s-.47 1.085-.903 1.66c-.378.573-.868 1.189-1.47 1.847-.602.658-1.113 1.49-1.533 2.498m5.27-.168a2.714 2.714 0 00-.399 1.155 10.56 10.56 0 00-.063 1.07c.028.77.242 1.495.64 2.174.4.679.778 1.361 1.135 2.047.356.686.58 1.407.671 2.163.091.756-.164 1.61-.766 2.561h-3.36c0-.196-.006-.367-.02-.514a1.548 1.548 0 00-.105-.43l-.084-.379-.084-.356c0-.168-.063-.4-.19-.693a12.035 12.035 0 01-.314-.683 4.888 4.888 0 00-.357-.682c-.238-.49-.455-.973-.651-1.449a5.412 5.412 0 01-.378-1.47 7.36 7.36 0 01-.052-1.879 8.669 8.669 0 01.43-1.92 8.165 8.165 0 011.291-2.226 23.797 23.797 0 001.46-1.974 10.59 10.59 0 00.84-2.1c.181-.672.244-1.266.188-1.784 0-.196-.02-.364-.063-.504a8.133 8.133 0 00-.147-.441h3.696a2.244 2.244 0 00.168.86c.154.379.329.834.525 1.365.195.532.265 1.057.21 1.575 0 .56-.245 1.085-.735 1.575a3.105 3.105 0 01-.767.65c-.315.197-.69.414-1.123.652-.28.196-.563.416-.85.661-.287.245-.536.57-.746.976m9.134 6.74c.196.224.364.451.503.682.14.231.26.508.357.83.168.518.294 1.05.378 1.595 0 .448-.07.89-.21 1.323h-4.682a5.871 5.871 0 00-.661-2.215c-.371-.707-.798-1.39-1.28-2.047-.484-.658-.95-1.302-1.397-1.932-.448-.63-.756-1.26-.924-1.89a2.91 2.91 0 01-.084-1.396c.084-.496.182-.822.294-.976.14-.336.51-.707 1.113-1.113.322-.28.661-.549 1.018-.808s.675-.563.955-.913a3.47 3.47 0 00.704-1.113c.175-.434.262-.833.262-1.197 0-.434-.06-.815-.178-1.144-.12-.33-.22-.613-.305-.85a23.153 23.153 0 01-.65-1.407 1.656 1.656 0 01-.294-.483c.405 0 .787.014 1.144.042.357.028.69.042.997.042v.084c0 .238.046.48.137.724.09.245.178.508.262.788l.399.913c.126.287.252.584.378.892.14.322.266.669.378 1.04.112.37.196.745.252 1.123 0 .392-.07.766-.21 1.123a8.22 8.22 0 01-.567 1.144c-.28.434-.577.879-.892 1.334-.315.455-.543 1.046-.683 1.774-.084.28-.084.605 0 .976s.238.675.462.913c.21.224.413.403.609.536s.364.27.504.41a5.57 5.57 0 011.91 1.196m3.087-3.653c.35.434.668.836.955 1.207.287.37.57.717.85 1.04.057.167.183.321.379.461v2.919c0 .63-.207 1.168-.62 1.616-.413.448-.934.7-1.564.756.14-.49.14-1.022 0-1.595a17.39 17.39 0 00-.21-1.05 4.518 4.518 0 00-.357-1.008 7.77 7.77 0 00-.556-1.102 3.324 3.324 0 00-.935-.998 5.339 5.339 0 00-1.039-.745 41.74 41.74 0 00-1.05-.556 3.51 3.51 0 01-.798-.536c-.203-.189-.276-.395-.22-.62.056-.181.13-.377.22-.587.091-.21.179-.42.263-.63.14-.224.283-.458.43-.703.147-.245.29-.48.43-.704a7.68 7.68 0 01.295-.714c.112-.238.196-.476.252-.713.098-.28.154-.557.168-.83.014-.273.02-.528.02-.766a7.708 7.708 0 00-.377-1.344c-.154-.392-.301-.756-.441-1.092-.154-.322-.301-.64-.441-.955a6.575 6.575 0 00-.42-.808 2.489 2.489 0 01-.315-.651 7.888 7.888 0 00-.168-.525c.378 0 .752.024 1.123.073.371.05.746.102 1.124.158.112.14.252.28.42.42.167.14.342.315.524.525.14.14.305.273.494.399s.367.265.535.42c.112.111.19.202.231.272.042.07.091.175.147.315.056.154.109.28.158.378.049.098.101.217.157.357a6.487 6.487 0 010 1.806 3.73 3.73 0 01-.325.934 7.543 7.543 0 00-.452 1.228 4.275 4.275 0 00-.126 1.113c0 .434.07.805.21 1.113.112.322.266.637.462.945l.147.21.168.189.252.378M30.51 13.024c1.344.168 2.66.385 3.948.65v9.974a5.94 5.94 0 00-.42-.42c-.14-.126-.28-.26-.42-.4-.378-.433-.655-.835-.83-1.206-.175-.371-.22-.816-.136-1.334.07-.35.168-.724.294-1.123.126-.399.217-.787.273-1.165.056-.42.063-.826.02-1.218a3.398 3.398 0 00-.272-1.05 2.533 2.533 0 00-.4-.903 1.947 1.947 0 00-.293-.472 5.003 5.003 0 00-.336-.388 5.697 5.697 0 00-.65-.473 3.403 3.403 0 01-.526-.388c-.112 0-.196-.028-.252-.084"
         fill-opacity=".949" fill="#fff" />
   </g>
</svg>