<?xml version="1.0" encoding="UTF-8" standalone="no"?>
<svg
   xmlns:dc="http://purl.org/dc/elements/1.1/"
   xmlns:cc="http://creativecommons.org/ns#"
   xmlns:rdf="http://www.w3.org/1999/02/22-rdf-syntax-ns#"
   xmlns:svg="http://www.w3.org/2000/svg"
   xmlns="http://www.w3.org/2000/svg"
   xmlns:sodipodi="http://sodipodi.sourceforge.net/DTD/sodipodi-0.dtd"
   xmlns:inkscape="http://www.inkscape.org/namespaces/inkscape"
   inkscape:version="1.0 (4035a4fb49, 2020-05-01)"
   sodipodi:docname="1723.svg"
   id="svg20"
   version="1.2"
   viewBox="0 0 42.519639 42.519639"
   height="14.999999mm"
   width="14.999999mm">
  <metadata
     id="metadata24">
    <rdf:RDF>
      <cc:Work
         rdf:about="">
        <dc:format>image/svg+xml</dc:format>
        <dc:type
           rdf:resource="http://purl.org/dc/dcmitype/StillImage" />
        <dc:title>Qt SVG Document</dc:title>
      </cc:Work>
    </rdf:RDF>
  </metadata>
  <sodipodi:namedview
     inkscape:current-layer="svg20"
     inkscape:window-maximized="0"
     inkscape:window-y="0"
     inkscape:window-x="0"
     inkscape:cy="28.346482"
     inkscape:cx="28.346482"
     inkscape:zoom="5.8410537"
     showgrid="false"
     id="namedview22"
     inkscape:window-height="480"
     inkscape:window-width="1034"
     inkscape:pageshadow="2"
     inkscape:pageopacity="0"
     guidetolerance="10"
     gridtolerance="10"
     objecttolerance="10"
     borderopacity="1"
     bordercolor="#666666"
     pagecolor="#ffffff" />
  <title
     id="title2">Qt SVG Document</title>
  <desc
     id="desc4">Generated with Qt</desc>
  <defs
     id="defs6" />
  <g
     transform="translate(5.25984,5.25984)"
     id="g18"
     stroke-linejoin="bevel"
     stroke-linecap="square"
     fill-rule="evenodd"
     stroke-width="1"
     stroke="#000000"
     fill="none">
    <g
       id="g10"
       font-style="normal"
       font-weight="400"
       font-size="7.8px"
       font-family="'MS Shell Dlg 2'"
       stroke="none"
       fill-opacity="1"
       fill="#b75800">
      <path
         id="path8"
         d="M 37.2598,16 C 37.2598,27.7415 27.7415,37.2598 16,37.2598 4.25851,37.2598 -5.25984,27.7415 -5.25984,16 -5.25984,4.25851 4.25851,-5.25984 16,-5.25984 27.7415,-5.25984 37.2598,4.25851 37.2598,16"
         fill-rule="evenodd"
         vector-effect="non-scaling-stroke" />
    </g>
    <g
       id="g14"
       font-style="normal"
       font-weight="400"
       font-size="7.8px"
       font-family="'MS Shell Dlg 2'"
       transform="translate(16,13.1654)"
       stroke="none"
       fill-opacity="0.94902"
       fill="#ffffff">
      <path
         id="path12"
         d="m 10.8882,-4.75049 c 0.14,0.05599 0.3394,0.24846 0.5984,0.57739 0.2589,0.32894 0.5179,0.71037 0.7768,1.14429 0.259,0.43392 0.4794,0.87134 0.6614,1.31226 0.182,0.44092 0.259,0.787351 0.231,1.039304 -0.028,0.153971 -0.091,0.367432 -0.189,0.6403808 C 12.8688,0.236084 12.7568,0.544027 12.6309,0.886963 12.5049,1.2299 12.3754,1.57983 12.2424,1.93677 12.1095,2.2937 12.029,2.61214 12.001,2.89209 11.693,3.07406 11.4166,3.30151 11.1716,3.57446 10.9267,3.84741 10.6957,4.12736 10.4788,4.41431 10.2618,4.70125 10.0518,4.9882 9.84888,5.27515 9.64591,5.56209 9.41846,5.83154 9.1665,6.0835 8.76058,6.48942 8.30916,6.81486 7.81226,7.05981 7.31535,7.30477 6.84993,7.62321 6.41602,8.01514 6.93392,7.79118 7.42733,7.53573 7.89624,7.24878 8.36515,6.96183 8.84456,6.69938 9.33447,6.46143 9.62842,5.95752 9.91886,5.46061 10.2058,4.9707 c 0.287,-0.48991 0.7034,-0.88183 1.2493,-1.17578 -0.4339,0.75586 -0.7384,1.41374 -0.9134,1.97363 -0.1749,0.5599 -0.2974,1.04631 -0.3674,1.45923 -0.07,0.41293 -0.112,0.75586 -0.126,1.02881 C 10.0343,8.52954 9.98535,8.75 9.90137,8.91797 9.55143,9.57585 9.02653,10.0938 8.32666,10.4717 c -0.69987,0.3779 -1.46623,0.6789 -2.29907,0.9028 -0.83285,0.224 -1.67269,0.4374 -2.51953,0.6404 -0.84685,0.203 -1.59921,0.4794 -2.25708,0.8293 -0.405928,0.168 -0.787357,0.3605 -1.144291,0.5774 -0.356933,0.217 -0.741862,0.4025 -1.154789,0.5564 -0.41292,0.154 -0.85034,0.252 -1.31225,0.294 -0.46192,0.042 -0.99382,-0.007 -1.5957,-0.147 -0.028,-0.056 0.00349,-0.14 0.09448,-0.252 0.09098,-0.1119 0.18546,-0.2344 0.28344,-0.3674 0.09799,-0.133 0.20997,-0.2694 0.33594,-0.4094 0.12598,-0.14 0.21696,-0.259 0.27295,-0.3569 0.48991,-0.224 0.98682,-0.4445 1.49072,-0.6614 0.503911,-0.217 0.958826,-0.4794 1.36475,-0.7874 -0.377929,0.14 -0.75236,0.2975 -1.12329,0.4724 -0.37093,0.175 -0.75936,0.3605 -1.16528,0.5564 -0.46192,0.168 -0.85734,0.3955 -1.18628,0.6824 -0.32894,0.287 -0.68937,0.5774 -1.0813,0.8713 -0.23796,0.14 -0.5284,0.273 -0.87134,0.399 -0.34294,0.1259 -0.67537,0.2659 -0.99731,0.4199 -0.22396,0.084 -0.43042,0.189 -0.61939,0.3149 -0.18896,0.126 -0.38143,0.2415 -0.57739,0.3465 -0.19597,0.105 -0.40243,0.1924 -0.61939,0.2624 -0.21696,0.07 -0.45141,0.091 -0.70337,0.063 -0.23795,-0.056 -0.45491,-0.1505 -0.65087,-0.2834 -0.19597,-0.133 -0.41292,-0.2275 -0.65092,-0.2835 -0.1959,-0.3079 -0.3219,-0.6579 -0.3779,-1.0498 -0.056,-0.3919 -0.084,-0.7873 -0.084,-1.1863 0,-0.3989 0,-0.7908 0,-1.1757 0,-0.385 -0.063,-0.7384 -0.1889,-1.0604 -0.084,-0.2239 -0.224,-0.4164 -0.42,-0.5773 -0.1959,-0.16101 -0.3219,-0.32548 -0.3779,-0.49345 -0.154,-0.37793 -0.1085,-0.77336 0.1365,-1.18628 0.2449,-0.41292 0.5004,-0.68937 0.7663,-0.82935 0.42,0.27995 0.7874,0.59839 1.10233,0.95532 0.31494,0.35694 0.71737,0.65438 1.20728,0.89234 C -8.82015,9.19092 -9.01261,8.94246 -9.17358,8.65552 -9.33455,8.36857 -9.51302,8.09912 -9.70898,7.84717 -9.84896,7.6512 -10.0204,7.50773 -10.2234,7.41675 c -0.203,-0.09099 -0.3884,-0.22046 -0.5564,-0.38843 -0.2939,-0.22396 -0.5179,-0.48641 -0.6719,-0.78735 -0.1539,-0.30095 -0.3919,-0.5284 -0.7138,-0.68238 -0.196,-0.57389 -0.3465,-1.16878 -0.4514,-1.78466 -0.105,-0.61589 -0.0105,-1.1198 0.2834,-1.51172 0.252,-0.37793 0.4724,-0.5669 0.6614,-0.5669 0.1889,0 0.3254,-0.05599 0.4094,-0.16797 0.14,-0.16796 0.189,-0.26595 0.147,-0.29394 -0.042,-0.028 -0.077,-0.07349 -0.105,-0.13648 -0.028,-0.06298 -0.007,-0.171464 0.063,-0.325436 0.07,-0.153971 0.3079,-0.447916 0.7139,-0.881836 0.48986,-0.545898 0.95527,-0.990318 1.39619,-1.333248 0.44092,-0.34294 0.79435,-0.62639 1.06031,-0.85035 0.60188,-0.46191 1.23876,-0.89933 1.91064,-1.31225 0.67187,-0.41292 1.37874,-0.82235 2.12061,-1.22827 0.26595,-0.16797 0.5144,-0.31844 0.74536,-0.45142 0.23095,-0.13297 0.46541,-0.24145 0.70337,-0.32544 0.23795,-0.08398 0.5074,-0.13997 0.80835,-0.16797 0.30094,-0.02799 0.66837,-0.01399 1.10229,0.042 0.05599,0.13997 0.013998,0.27294 -0.125976,0.39892 -0.139974,0.12598 -0.314944,0.26595 -0.524904,0.41992 -0.47591,0.39193 -1.0533,0.75586 -1.73218,1.0918 -0.67887,0.33594 -1.31925,0.62988 -1.92114,0.88184 0.81185,-0.16797 1.54671,-0.45492 2.20459,-0.86084 0.65788,-0.40593 1.35775,-0.80485 2.09961,-1.19678 0.6858727,-0.43392 1.322754,-0.82235 1.91064,-1.16528 0.5879,-0.34294 1.22478,-0.66138 1.91065,-0.95533 0.5459,-0.13997 1.01481,-0.15397 1.40674,-0.04199 0.39192,0.11198 0.74536,0.27645 1.0603,0.49341 0.31494,0.21696 0.60889,0.44792 0.88184,0.69287 0.27295,0.24495 0.56339,0.43742 0.87133,0.57739 0.40593,0.20996 0.73837,0.32894 0.99732,0.35694 0.25895,0.02799 0.5284,0.04199 0.80835,0.04199 0.22396,0 0.49691,0.02099 0.81881,0.06299 0.322,0.04199 0.5949,0.10498 0.8189,0.18896 m -4.55617,1.28076 c -0.13997,0.40593 -0.15397,0.68938 -0.04199,0.85035 0.11198,0.16097 0.22396,0.24145 0.33594,0.24145 0.08398,0 0.20646,-0.04549 0.36743,-0.13647 0.16097,-0.09099 0.33944,-0.31845 0.5354,-0.68238 0.08398,-0.18196 0.13997,-0.37093 0.16797,-0.56689 0.02799,-0.19597 0.05599,-0.37093 0.08398,-0.5249 v -0.5459 C 7.5848,-4.72249 7.38883,-4.59652 7.19287,-4.45654 7.0109,-4.30257 6.83594,-4.1486 6.66797,-3.99463 6.5,-3.84066 6.38802,-3.66569 6.33203,-3.46973 M 5.34521,-4.09961 c -0.20996,0.19596 -0.38492,0.39193 -0.5249,0.58789 -0.13997,0.18197 -0.25195,0.38493 -0.33593,0.60889 -0.08399,0.22396 -0.12598,0.45491 -0.12598,0.69287 0.05599,0.48991 0.16097,0.79785 0.31494,0.92383 0.15397,0.12597 0.28695,0.18896 0.39893,0.18896 0.15397,-0.05599 0.29394,-0.17147 0.41992,-0.34643 0.12597,-0.17497 0.18896,-0.48641 0.18896,-0.93433 0.028,-0.20996 0.028,-0.41292 0,-0.60889 C 5.65316,-3.18278 5.61117,-3.37174 5.55518,-3.55371 5.49919,-3.74967 5.4292,-3.93164 5.34521,-4.09961 m -2.45654,1.53272 c 0,0.02799 -0.02099,0.12247 -0.06299,0.28344 -0.04199,0.16097 -0.08398,0.34994 -0.12597,0.5669 -0.042,0.21696 -0.05599,0.44441 -0.042,0.68237 0.014,0.237956 0.06299,0.461914 0.14698,0.671875 C 2.97266,0.0296224 3.17212,0.278076 3.40308,0.383057 3.63403,0.488037 3.7915,0.512533 3.87549,0.456543 4.01546,0.372559 4.13094,0.222087 4.22192,0.00512695 4.31291,-0.211833 4.25342,-0.55127 4.04346,-1.01318 3.98747,-1.23714 3.89648,-1.4436 3.77051,-1.63257 3.64453,-1.82153 3.50456,-1.986 3.35059,-2.12598 3.21061,-2.26595 3.05664,-2.41292 2.88867,-2.56689 M 1.125,-0.530273 c -0.02799,0.027994 -0.04899,0.111979 -0.06299,0.251953 -0.014,0.139974 -0.007,0.3114417 0.021,0.514404 C 1.111,0.439046 1.15299,0.656006 1.20898,0.886963 1.26497,1.11792 1.36296,1.33138 1.50293,1.52734 1.79688,1.93327 2.08032,2.17122 2.35327,2.24121 2.62622,2.3112 2.80469,2.3182 2.88867,2.26221 2.97266,2.17822 3.04264,1.99976 3.09863,1.72681 3.15462,1.45386 3.05664,1.11442 2.80469,0.708496 2.48275,0.302572 2.13981,-0.0123698 1.77588,-0.236328 1.56592,-0.348307 1.34896,-0.446289 1.125,-0.530273 M 1.33496,2.55615 C 0.943034,2.22021 0.530111,1.94727 0.0961914,1.7373 -0.141764,1.62533 -0.372721,1.52734 -0.59668,1.44336 c 0.027995,0.19596 0.069987,0.41292 0.125977,0.65088 0.055989,0.19596 0.129476,0.40942 0.220459,0.64038 0.090983,0.23096 0.2204588,0.44442 0.388428,0.64038 0.279948,0.40592 0.556396,0.65088 0.829345,0.73486 0.272951,0.08399 0.451421,0.08399 0.535401,0 C 1.6569,4.05387 1.74788,3.88241 1.77588,3.59546 1.80387,3.30851 1.6569,2.96208 1.33496,2.55615 M -0.197754,4.10986 C -0.519694,3.70394 -0.880127,3.3505 -1.27905,3.04956 -1.67798,2.74862 -1.90544,2.55615 -1.96143,2.47217 c 0,0.08398 0.07699,0.31144 0.23096,0.68237 0.15397,0.37093 0.31494,0.80135 0.48291,1.29126 0.15397,0.48991 0.342938,0.82935 0.566896,1.01831 0.223958,0.18897 0.412923,0.25545 0.566894,0.19946 C 0.0262044,5.59359 0.138184,5.43262 0.222168,5.18066 0.306152,4.92871 0.166178,4.57178 -0.197754,4.10986 M -2.78027,4.76074 c -0.09799,0.5599 -0.06649,0.95532 0.09448,1.18628 0.16097,0.23096 0.31144,0.34644 0.45141,0.34644 0.13998,0.05599 0.30445,-0.035 0.49341,-0.27295 C -1.552,5.78255 -1.52751,5.39063 -1.66748,4.84473 -1.80745,4.32682 -1.95093,3.85091 -2.0979,3.41699 -2.24487,2.98307 -2.34635,2.72412 -2.40234,2.64014 V 3.29102 C -2.45833,3.45898 -2.52132,3.67244 -2.59131,3.9314 -2.6613,4.19035 -2.72428,4.4668 -2.78027,4.76074 M -4.66992,4.52979 C -4.82389,5.10368 -4.82739,5.5061 -4.68042,5.73706 -4.53345,5.96802 -4.38997,6.0835 -4.25,6.0835 -4.13802,6.13949 -3.98755,6.066 -3.79858,5.86304 -3.60962,5.66007 -3.48714,5.32064 -3.43115,4.84473 -3.37516,4.27083 -3.38916,3.77393 -3.47314,3.354 -3.55713,2.93408 -3.59912,2.69613 -3.59912,2.64014 c 0,0.05599 -0.14347,0.26245 -0.43042,0.61938 -0.28695,0.35694 -0.50041,0.78036 -0.64038,1.27027 M -6.79053,4.19385 c -0.05599,0.46191 0.0035,0.78385 0.17847,0.96582 0.17497,0.18196 0.33244,0.27295 0.47241,0.27295 0.13998,0 0.29745,-0.08399 0.47241,-0.25196 0.17497,-0.16796 0.26245,-0.4969 0.26245,-0.98681 0.028,-0.26595 0.021,-0.51091 -0.02099,-0.73487 C -5.46777,3.23503 -5.51676,3.03206 -5.57275,2.8501 -5.67074,2.65413 -5.74772,2.45817 -5.80371,2.26221 -5.97168,2.45817 -6.11165,2.65413 -6.22363,2.8501 -6.33561,3.03206 -6.44409,3.23503 -6.54907,3.45898 -6.65405,3.68294 -6.73454,3.9279 -6.79053,4.19385 M -6.87451,7.84717 C -6.49658,7.46924 -6.31462,7.1543 -6.32861,6.90234 -6.34261,6.65039 -6.4126,6.47542 -6.53857,6.37744 -6.62256,6.26546 -6.80802,6.21647 -7.09497,6.23047 c -0.28695,0.014 -0.61239,0.18196 -0.97632,0.50391 -0.23795,0.16796 -0.41292,0.36043 -0.5249,0.57739 -0.11198,0.21696 -0.19596,0.42342 -0.25195,0.61938 -0.08399,0.22396 -0.12598,0.46892 -0.12598,0.73487 0.25195,0 0.5109,-0.042 0.77685,-0.12598 0.22396,-0.05599 0.45142,-0.13648 0.68238,-0.24146 0.23095,-0.10498 0.44441,-0.25545 0.64038,-0.45141 M -4.04004,8.75 C -3.90007,8.17611 -3.90706,7.77368 -4.06104,7.54272 -4.21501,7.31177 -4.36198,7.16829 -4.50195,7.1123 -4.65592,7.05632 -4.86589,7.08431 -5.13184,7.19629 c -0.26595,0.11198 -0.5179,0.41292 -0.75586,0.90283 -0.11197,0.26595 -0.17496,0.5284 -0.18896,0.78735 -0.014,0.25896 0.007,0.50041 0.06299,0.72437 0.05599,0.25195 0.12597,0.51086 0.20996,0.77686 0,0.028 0.08048,0.007 0.24145,-0.063 0.16097,-0.07 0.33944,-0.1855 0.5354,-0.34643 0.19597,-0.16097 0.38843,-0.34293 0.5774,-0.5459 C -4.2605,9.22941 -4.12402,9.00195 -4.04004,8.75 m 2.79248,2.2886 c 0.028,0 0.10148,-0.0805 0.22046,-0.2415 0.118978,-0.161 0.227458,-0.3639 0.32544,-0.6089 C -0.603678,9.94328 -0.54069,9.67733 -0.512695,9.39038 -0.484701,9.10343 -0.54069,8.83398 -0.680664,8.58203 -0.904622,8.00814 -1.16707,7.6617 -1.46802,7.54272 -1.76896,7.42375 -1.99642,7.36426 -2.15039,7.36426 c -0.13997,0.06998 -0.32544,0.20996 -0.5564,0.41992 -0.23095,0.20996 -0.31844,0.58789 -0.26245,1.13379 0,0.32194 0.08049,0.61938 0.24146,0.89233 0.16097,0.273 0.35343,0.4934 0.57739,0.6614 0.12598,0.112 0.24495,0.1959 0.35693,0.2519 0.11198,0.056 0.20996,0.112 0.29395,0.168 l 0.25195,0.147 M -0.428711,6.56641 C 0.0611979,6.32845 0.484619,6.038 0.841553,5.69507 1.19849,5.35213 1.50993,4.9917 1.77588,4.61377 2.34977,3.95589 2.80119,3.32601 3.13013,2.72412 3.45907,2.12223 3.70752,1.66732 3.87549,1.35938 4.25342,0.701497 4.64185,0.113607 5.04077,-0.404297 5.4397,-0.922201 5.84212,-1.34212 6.24805,-1.66406 6.61198,-1.97201 6.93042,-2.18547 7.20337,-2.30444 7.47632,-2.42342 7.5848,-2.5109 7.52881,-2.56689 7.38883,-2.5389 7.24886,-2.47591 7.10889,-2.37793 6.78695,-2.20996 6.44401,-1.97201 6.08008,-1.66406 5.67415,-1.34212 5.27173,-0.922201 4.8728,-0.404297 4.47388,0.113607 4.08545,0.673503 3.70752,1.27539 3.51156,1.58333 3.2526,2.03125 2.93066,2.61914 2.60872,3.20703 2.16781,3.84391 1.60791,4.52979 1.31396,4.85173 1.00252,5.17716 0.673584,5.5061 0.344645,5.83504 -0.0507813,6.09749 -0.512695,6.29346 -0.904622,6.53141 -1.35254,6.67139 -1.85645,6.71338 -2.36035,6.75537 -2.84326,6.73438 -3.30518,6.65039 -4.28499,6.49642 -5.18783,6.24797 -6.01367,5.90503 -6.83952,5.56209 -7.55339,5.20866 -8.15527,4.84473 -8.47721,4.69076 -8.76066,4.53678 -9.00562,4.38281 -9.25057,4.22884 -9.45703,4.09587 -9.625,3.98389 -9.82096,3.85791 -10.0099,3.73893 -10.1919,3.62695 l -0.168,0.39893 c 0.14,0.11198 0.315,0.22396 0.52494,0.33594 0.16797,0.11198 0.38143,0.24145 0.64038,0.38842 0.25895,0.14698 0.5424,0.29045 0.85034,0.43042 0.57389,0.32194 1.28426,0.66838 2.13111,1.03931 0.84684,0.37093 1.77417,0.59839 2.78198,0.68237 0.5179,0.11198 1.0358,0.13998 1.55371,0.08399 0.5179,-0.05599 1.000812,-0.19597 1.448729,-0.41992 M 0.705078,8.26709 C 0.901042,8.50505 1.16349,8.65202 1.49243,8.70801 1.82137,8.764 2.13981,8.79199 2.44775,8.79199 2.82568,8.79199 3.21761,8.75 3.62354,8.66602 3.56755,8.37207 3.47656,8.08512 3.35059,7.80518 3.15462,7.25928 2.81169,6.84635 2.32178,6.56641 1.84587,6.27246 1.43994,6.16048 1.104,6.23047 0.768066,6.30046 0.530111,6.37744 0.390137,6.46143 0.306152,6.6154 0.243164,6.84285 0.201172,7.1438 0.15918,7.44474 0.327148,7.81917 0.705078,8.26709 M 3.22461,5.91553 C 3.51855,5.97152 3.809,5.98551 4.09595,5.95752 4.38289,5.92952 4.63835,5.87354 4.8623,5.78955 5.15625,5.70557 5.4292,5.58659 5.68115,5.43262 5.51318,5.23665 5.32422,5.05469 5.11426,4.88672 4.94629,4.73275 4.74683,4.59277 4.51587,4.4668 4.28491,4.34082 4.04346,4.24984 3.7915,4.19385 3.3016,4.05387 2.93416,4.05387 2.68921,4.19385 2.44425,4.33382 2.29378,4.4738 2.23779,4.61377 2.1818,4.76774 2.2133,4.9812 2.33228,5.25415 2.45125,5.5271 2.7487,5.74756 3.22461,5.91553 M 6.70996,2.89209 C 6.65397,2.8361 6.44051,2.68913 6.06958,2.45117 5.69865,2.21322 5.26823,2.05924 4.77832,1.98926 4.31641,1.93327 3.99447,1.99276 3.8125,2.16772 3.63053,2.34269 3.53955,2.50016 3.53955,2.64014 c -0.05599,0.08398 0,0.22745 0.16797,0.43042 0.16797,0.20296 0.49691,0.33243 0.98682,0.38842 0.4899,0 0.93432,-0.09448 1.33325,-0.28344 C 6.42651,2.98657 6.65397,2.89209 6.70996,2.89209 M 5.80713,1.52734 c 0.20996,0 0.41292,-0.01399 0.60889,-0.04199 C 6.61198,1.45736 6.77995,1.41536 6.91992,1.35938 7.10189,1.30339 7.27686,1.2474 7.44482,1.19141 7.27686,1.03743 7.10189,0.90446 6.91992,0.79248 6.77995,0.680501 6.61198,0.58252 6.41602,0.498535 6.22005,0.414551 6.01709,0.344564 5.80713,0.288574 5.31722,0.218587 4.99528,0.264079 4.84131,0.425049 4.68734,0.586019 4.61035,0.736491 4.61035,0.876465 c 0,0.111979 0.07699,0.248455 0.23096,0.409425 0.15397,0.16097 0.47591,0.24145 0.96582,0.24145 M 8.0957,-0.0263672 H 8.05371 C 8.02572,-0.0823568 7.88924,-0.253825 7.64429,-0.540771 7.39933,-0.827718 7.08789,-1.01318 6.70996,-1.09717 6.34603,-1.18115 6.06958,-1.15316 5.88062,-1.01318 c -0.18897,0.13997 -0.28345,0.25195 -0.28345,0.335934 0,0.125976 0.08748,0.251953 0.26245,0.37793 0.17497,0.125976 0.45841,0.2169592 0.85034,0.2729488 C 7.0599,0.0296224 7.36434,0.0366211 7.62329,-0.00537109 7.88224,-0.0473633 8.02572,-0.054362 8.05371,-0.0263672 H 8.0957 M 7.69678,-1.09717 c 0.15397,0.05599 0.30794,0.097984 0.46191,0.125979 0.15397,0.027994 0.28695,0.055989 0.39893,0.083984 0.11198,0.027995 0.23095,0.041992 0.35693,0.041992 C 8.85856,-1.04118 8.78158,-1.20915 8.68359,-1.34912 8.59961,-1.50309 8.50163,-1.64307 8.38965,-1.76904 8.27767,-1.89502 8.15169,-2.014 8.01172,-2.12598 7.68978,-2.26595 7.43783,-2.29395 7.25586,-2.20996 c -0.18197,0.08398 -0.30794,0.18197 -0.37793,0.29394 0,0.13998 0.05949,0.29045 0.17847,0.45142 0.11897,0.16097 0.33243,0.28345 0.64038,0.36743 m 1.38574,-1.28076 c 0.30794,-0.06999 0.62288,-0.17497 0.94478,-0.31494 0.14,-0.08399 0.28,-0.16797 0.42,-0.25195 -0.14,-0.11198 -0.294,-0.20997 -0.46195,-0.29395 C 9.84538,-3.29476 9.68091,-3.35425 9.49194,-3.41724 9.30298,-3.48022 9.11051,-3.49772 8.91455,-3.46973 c -0.40592,0.05599 -0.65788,0.17847 -0.75586,0.36744 -0.09798,0.18896 -0.14697,0.33943 -0.14697,0.45141 0.05599,0.05599 0.15397,0.12948 0.29394,0.22046 0.13998,0.09098 0.39893,0.10848 0.77686,0.05249"
         fill-rule="evenodd"
         vector-effect="none" />
    </g>
    <g
       id="g16"
       font-style="normal"
       font-weight="400"
       font-size="7.8px"
       font-family="'MS Shell Dlg 2'"
       stroke="none"
       fill-opacity="1"
       fill="#b75800" />
  </g>
</svg>
