<svg xmlns="http://www.w3.org/2000/svg" version="1.2" viewBox="0 0 42.52 42.52" height="56.693" width="56.693">
   <g stroke-linejoin="bevel" stroke-linecap="square" fill-rule="evenodd" fill="none" font-weight="400" font-size="7.8"
      font-family="'MS Shell Dlg 2'">
      <path
         d="M42.52 21.26C42.52 33 33 42.52 21.26 42.52 9.518 42.52 0 33 0 21.26 0 9.518 9.518 0 21.26 0 33 0 42.52 9.518 42.52 21.26"
         vector-effect="non-scaling-stroke" fill="#b75800" />
      <path
         d="M32.148 13.675c.14.056.34.248.598.577.26.33.518.71.777 1.144.26.434.48.872.662 1.313.182.44.259.787.23 1.039a4.347 4.347 0 01-.188.64 139.25 139.25 0 01-.725 1.974 3.9 3.9 0 00-.241.955c-.308.182-.585.41-.83.683a13.28 13.28 0 00-.692.84c-.217.286-.427.573-.63.86-.203.287-.43.557-.683.809a5.09 5.09 0 01-1.354.976 6.11 6.11 0 00-1.396.955 11.81 11.81 0 001.48-.766c.469-.287.948-.55 1.438-.787l.872-1.491c.287-.49.703-.882 1.249-1.176-.434.756-.738 1.414-.913 1.974-.175.56-.298 1.046-.368 1.459a9.19 9.19 0 00-.126 1.029c-.014.273-.063.493-.147.661-.35.658-.875 1.176-1.574 1.554-.7.378-1.467.679-2.3.903a94.66 94.66 0 01-2.52.64 9.518 9.518 0 00-2.256.83 8.16 8.16 0 00-1.144.577 6.763 6.763 0 01-1.155.556c-.413.154-.85.252-1.313.294-.461.042-.993-.007-1.595-.147-.028-.056.003-.14.094-.252a9.76 9.76 0 00.284-.367c.098-.133.21-.27.336-.41.126-.14.217-.259.273-.356.49-.224.986-.445 1.49-.662.504-.217.96-.48 1.365-.787-.378.14-.752.297-1.123.472s-.76.36-1.165.557a3.714 3.714 0 00-1.187.682c-.329.287-.69.577-1.081.871-.238.14-.528.273-.871.4a11.47 11.47 0 00-.998.42c-.224.083-.43.188-.62.314a6.999 6.999 0 01-.577.347 3.74 3.74 0 01-.619.262c-.217.07-.451.09-.703.063a1.941 1.941 0 01-.651-.283 1.94 1.94 0 00-.651-.284 2.621 2.621 0 01-.378-1.05 8.375 8.375 0 01-.084-1.186v-1.176c0-.385-.063-.738-.189-1.06a1.355 1.355 0 00-.42-.577c-.196-.161-.322-.326-.378-.494-.154-.378-.108-.773.137-1.186.245-.413.5-.69.766-.83.42.28.787.599 1.102.956.315.357.718.654 1.208.892a3.074 3.074 0 01-.578-.745 6.47 6.47 0 00-.535-.809 1.262 1.262 0 00-.515-.43 1.86 1.86 0 01-.556-.388 2.312 2.312 0 01-.672-.788 1.503 1.503 0 00-.714-.682 11.472 11.472 0 01-.451-1.785c-.105-.616-.01-1.12.283-1.512.252-.377.473-.566.662-.566.189 0 .325-.056.41-.168.14-.168.188-.266.146-.294a.309.309 0 01-.105-.137c-.028-.063-.007-.171.063-.325s.308-.448.714-.882c.49-.546.955-.99 1.396-1.333a36.5 36.5 0 001.06-.85c.602-.463 1.24-.9 1.911-1.313a48.651 48.651 0 012.12-1.228c.267-.168.515-.319.746-.452.231-.133.466-.241.704-.325.237-.084.507-.14.808-.168.3-.028.668-.014 1.102.042.056.14.014.273-.126.399s-.315.266-.525.42a8.987 8.987 0 01-1.732 1.092c-.679.336-1.32.63-1.921.881a6.774 6.774 0 002.205-.86 36.216 36.216 0 012.1-1.197 62.502 62.502 0 011.91-1.165 17.365 17.365 0 011.91-.956c.546-.14 1.015-.154 1.407-.042.392.112.746.277 1.06.494.315.217.61.448.882.692.273.245.564.438.872.578.406.21.738.329.997.357.259.028.528.042.808.042.224 0 .497.02.82.063.321.042.594.105.818.189m-4.556 1.28c-.14.406-.154.69-.042.85.112.162.224.242.336.242.084 0 .206-.045.367-.136.161-.091.34-.319.536-.683.084-.182.14-.37.168-.566.028-.196.056-.371.084-.525v-.546a6.915 6.915 0 00-.588.378 17.62 17.62 0 00-.525.462c-.168.154-.28.329-.336.525m-.987-.63c-.21.196-.385.392-.525.588-.14.181-.252.384-.336.608a1.958 1.958 0 00-.126.693c.056.49.161.798.315.924s.287.19.4.19a.917.917 0 00.419-.347c.126-.175.189-.487.189-.935.028-.21.028-.413 0-.609a3.707 3.707 0 00-.126-.566 3.157 3.157 0 00-.21-.546m-2.456 1.532c0 .028-.021.123-.063.284a9.05 9.05 0 00-.126.567 2.735 2.735 0 00-.042.682c.014.238.063.462.147.672.168.392.367.64.598.745.23.105.388.13.472.074.14-.084.256-.235.347-.452.09-.217.031-.556-.179-1.018a1.969 1.969 0 00-.273-.62 2.646 2.646 0 00-.42-.493 14.76 14.76 0 00-.461-.44m-1.764 2.036c-.028.028-.05.112-.063.252a2.23 2.23 0 00.02.514c.029.203.07.42.127.651.056.231.154.445.294.64.294.407.577.644.85.714.273.07.452.077.536.021.084-.084.153-.262.21-.535.055-.273-.043-.612-.294-1.018a4.025 4.025 0 00-1.03-.945 5.442 5.442 0 00-.65-.294m.21 3.086a5.754 5.754 0 00-1.239-.818 9.3 9.3 0 00-.693-.294c.028.196.07.413.126.65.056.196.13.41.22.64.092.232.221.445.389.641.28.406.556.651.83.735.272.084.45.084.535 0 .154-.056.245-.227.273-.514.028-.287-.12-.634-.441-1.04m-1.533 1.554a5.957 5.957 0 00-1.081-1.06c-.4-.301-.627-.494-.683-.578 0 .084.077.312.231.683.154.37.315.801.483 1.291.154.49.343.83.567 1.018.224.19.413.256.567.2.14-.07.252-.231.336-.483.084-.252-.056-.609-.42-1.07m-2.582.65c-.098.56-.067.955.094 1.186.161.231.311.347.451.347.14.056.305-.035.494-.273.189-.238.213-.63.073-1.176-.14-.518-.283-.994-.43-1.428-.147-.434-.249-.693-.304-.777v.651a11.93 11.93 0 00-.378 1.47m-1.89-.231c-.154.574-.158.976-.01 1.207.146.231.29.347.43.347.112.056.262-.018.451-.22.19-.204.312-.543.368-1.019.056-.574.042-1.07-.042-1.49-.084-.42-.126-.659-.126-.715 0 .056-.144.263-.43.62-.288.357-.501.78-.641 1.27m-2.12-.336c-.057.462.003.784.178.966.175.182.332.273.472.273.14 0 .298-.084.473-.252.175-.168.262-.497.262-.987a2.54 2.54 0 00-.02-.735 5.567 5.567 0 00-.148-.609 3.408 3.408 0 01-.23-.588 3.822 3.822 0 00-.42.588 5.833 5.833 0 00-.326.61 3.353 3.353 0 00-.242.734m-.084 3.653c.378-.378.56-.692.546-.944-.014-.252-.084-.427-.21-.525-.084-.112-.27-.161-.556-.147-.287.014-.613.182-.976.504-.238.168-.413.36-.525.577a3.392 3.392 0 00-.252.62 2.077 2.077 0 00-.126.734c.252 0 .51-.042.777-.126.224-.056.451-.136.682-.241.23-.105.444-.256.64-.452m2.835.903c.14-.574.133-.976-.021-1.207-.154-.231-.301-.374-.441-.43-.154-.056-.364-.028-.63.084s-.518.412-.756.902a2.35 2.35 0 00-.189.788c-.014.259.007.5.063.724.056.252.126.51.21.777 0 .028.08.007.242-.063.16-.07.339-.186.535-.346a5.96 5.96 0 00.577-.546c.19-.203.326-.43.41-.683m2.792 2.289c.028 0 .102-.08.22-.242.12-.16.228-.364.326-.609.098-.244.161-.51.19-.797a1.356 1.356 0 00-.169-.809c-.224-.574-.486-.92-.787-1.039-.301-.119-.529-.178-.683-.178-.14.07-.325.21-.556.42-.23.21-.318.587-.262 1.133 0 .322.08.62.241.893.161.273.353.493.577.66.126.113.245.197.357.253.112.056.21.112.294.168l.252.147m.82-4.472a4.95 4.95 0 001.27-.872c.356-.343.668-.703.934-1.081.574-.658 1.025-1.288 1.354-1.89l.745-1.364c.378-.658.767-1.246 1.166-1.764a7.217 7.217 0 011.207-1.26c.364-.308.682-.521.955-.64.273-.12.382-.207.326-.263-.14.028-.28.091-.42.19a5.73 5.73 0 00-1.03.713 7.217 7.217 0 00-1.206 1.26 21.396 21.396 0 00-1.166 1.68c-.196.308-.455.755-.776 1.343-.322.588-.763 1.225-1.323 1.911a29.8 29.8 0 01-.935.976 3.7 3.7 0 01-1.186.788c-.392.238-.84.378-1.344.42a5.512 5.512 0 01-1.448-.063 11.827 11.827 0 01-2.709-.746 16.07 16.07 0 01-2.141-1.06 8.479 8.479 0 01-.85-.462 28.13 28.13 0 01-.62-.399 33.913 33.913 0 00-.567-.357l-.168.4c.14.111.315.223.525.335a11.009 11.009 0 001.49.818 24.62 24.62 0 002.132 1.04 8.68 8.68 0 002.782.683c.518.112 1.035.14 1.553.084a4.24 4.24 0 001.45-.42m1.133 1.7c.196.238.458.385.787.441.33.056.648.084.956.084a5.8 5.8 0 001.175-.126 3.845 3.845 0 00-.273-.86 2.257 2.257 0 00-1.028-1.24c-.476-.293-.882-.405-1.218-.335-.336.07-.574.147-.714.23-.084.155-.147.382-.189.683-.042.301.126.675.504 1.123m2.52-2.351c.293.056.584.07.87.042a3.01 3.01 0 00.767-.168 3.3 3.3 0 00.819-.357 4.197 4.197 0 00-.567-.546 3.021 3.021 0 00-1.323-.693c-.49-.14-.857-.14-1.102 0-.245.14-.395.28-.451.42-.056.154-.025.367.094.64.12.273.417.494.892.662m3.486-3.024c-.056-.056-.27-.203-.64-.44a3.197 3.197 0 00-1.292-.462c-.462-.056-.784.003-.966.178-.182.175-.273.332-.273.472-.056.084 0 .228.168.43.168.204.497.333.987.39.49 0 .935-.095 1.333-.284.4-.19.627-.284.683-.284m-.903-1.364c.21 0 .413-.014.609-.042.196-.028.364-.07.504-.126.182-.056.357-.112.525-.168a3.464 3.464 0 00-.525-.4 2.17 2.17 0 00-.504-.293 4.463 4.463 0 00-.609-.21c-.49-.07-.812-.025-.966.136-.154.161-.23.312-.23.452 0 .112.076.248.23.41.154.16.476.24.966.24m2.289-1.553h-.042c-.028-.056-.165-.228-.41-.515a1.671 1.671 0 00-.934-.556c-.364-.084-.64-.056-.83.084-.189.14-.283.252-.283.336 0 .126.087.252.262.378.175.126.459.217.85.273.35.056.655.063.914.02.26-.041.403-.048.43-.02h.043m-.4-1.07c.155.055.309.097.463.125.154.028.286.056.398.084.112.028.231.042.357.042a1.673 1.673 0 00-.23-.504 2.253 2.253 0 00-.295-.42 3.069 3.069 0 00-.377-.357c-.322-.14-.574-.168-.756-.084-.182.084-.308.182-.378.294 0 .14.06.29.178.452.12.16.333.283.64.367m1.386-1.28a5.35 5.35 0 00.945-.316l.42-.252a2.594 2.594 0 00-.462-.294 9.058 9.058 0 00-.493-.178 1.245 1.245 0 00-.578-.052c-.406.056-.657.178-.755.367-.098.189-.147.34-.147.451.056.056.154.13.294.22.14.092.398.11.776.053"
         fill-opacity=".949" fill="#fff" />
   </g>
</svg>