<?xml version="1.0" encoding="UTF-8" standalone="no"?>
<svg width="11.2889mm" height="11.2889mm"
 viewBox="0 0 32 32"
 xmlns="http://www.w3.org/2000/svg" xmlns:xlink="http://www.w3.org/1999/xlink"  version="1.2" baseProfile="tiny">
<title>Qt SVG Document</title>
<desc>Generated with Qt</desc>
<defs>
</defs>
<g fill="none" stroke="black" stroke-width="1" fill-rule="evenodd" stroke-linecap="square" stroke-linejoin="bevel" >

<g fill="#b75800" fill-opacity="1" stroke="none" transform="matrix(1,0,0,1,0,0)"
font-family="MS Shell Dlg 2" font-size="7.8" font-weight="400" font-style="normal" 
>
<path vector-effect="non-scaling-stroke" fill-rule="evenodd" d="M37.2598,16 C37.2598,27.7415 27.7415,37.2598 16,37.2598 C4.25851,37.2598 -5.25984,27.7415 -5.25984,16 C-5.25984,4.25851 4.25851,-5.25984 16,-5.25984 C27.7415,-5.25984 37.2598,4.25851 37.2598,16 "/>
</g>

<g fill="#ffffff" fill-opacity="0.94902" stroke="none" transform="matrix(1,0,0,1,16,13.1654)"
font-family="MS Shell Dlg 2" font-size="7.8" font-weight="400" font-style="normal" 
>
<path vector-effect="none" fill-rule="evenodd" d="M10.8882,-4.75049 C11.0282,-4.6945 11.2276,-4.50203 11.4866,-4.1731 C11.7455,-3.84416 12.0045,-3.46273 12.2634,-3.02881 C12.5224,-2.59489 12.7428,-2.15747 12.9248,-1.71655 C13.1068,-1.27563 13.1838,-0.929199 13.1558,-0.677246 C13.1278,-0.523275 13.0648,-0.309814 12.9668,-0.0368652 C12.8688,0.236084 12.7568,0.544027 12.6309,0.886963 C12.5049,1.2299 12.3754,1.57983 12.2424,1.93677 C12.1095,2.2937 12.029,2.61214 12.001,2.89209 C11.693,3.07406 11.4166,3.30151 11.1716,3.57446 C10.9267,3.84741 10.6957,4.12736 10.4788,4.41431 C10.2618,4.70125 10.0518,4.9882 9.84888,5.27515 C9.64591,5.56209 9.41846,5.83154 9.1665,6.0835 C8.76058,6.48942 8.30916,6.81486 7.81226,7.05981 C7.31535,7.30477 6.84993,7.62321 6.41602,8.01514 C6.93392,7.79118 7.42733,7.53573 7.89624,7.24878 C8.36515,6.96183 8.84456,6.69938 9.33447,6.46143 C9.62842,5.95752 9.91886,5.46061 10.2058,4.9707 C10.4928,4.48079 10.9092,4.08887 11.4551,3.79492 C11.0212,4.55078 10.7167,5.20866 10.5417,5.76855 C10.3668,6.32845 10.2443,6.81486 10.1743,7.22778 C10.1043,7.64071 10.0623,7.98364 10.0483,8.25659 C10.0343,8.52954 9.98535,8.75 9.90137,8.91797 C9.55143,9.57585 9.02653,10.0938 8.32666,10.4717 C7.62679,10.8496 6.86043,11.1506 6.02759,11.3745 C5.19474,11.5985 4.3549,11.8119 3.50806,12.0149 C2.66121,12.2179 1.90885,12.4943 1.25098,12.8442 C0.845052,13.0122 0.463623,13.2047 0.106689,13.4216 C-0.250244,13.6386 -0.635173,13.8241 -1.0481,13.978 C-1.46102,14.132 -1.89844,14.23 -2.36035,14.272 C-2.82227,14.314 -3.35417,14.265 -3.95605,14.125 C-3.98405,14.069 -3.95256,13.985 -3.86157,13.873 C-3.77059,13.7611 -3.67611,13.6386 -3.57813,13.5056 C-3.48014,13.3726 -3.36816,13.2362 -3.24219,13.0962 C-3.11621,12.9562 -3.02523,12.8372 -2.96924,12.7393 C-2.47933,12.5153 -1.98242,12.2948 -1.47852,12.0779 C-0.974609,11.8609 -0.519694,11.5985 -0.11377,11.2905 C-0.491699,11.4305 -0.86613,11.588 -1.23706,11.7629 C-1.60799,11.9379 -1.99642,12.1234 -2.40234,12.3193 C-2.86426,12.4873 -3.25968,12.7148 -3.58862,13.0017 C-3.91756,13.2887 -4.27799,13.5791 -4.66992,13.873 C-4.90788,14.013 -5.19832,14.146 -5.54126,14.272 C-5.8842,14.3979 -6.21663,14.5379 -6.53857,14.6919 C-6.76253,14.7759 -6.96899,14.8809 -7.15796,15.0068 C-7.34692,15.1328 -7.53939,15.2483 -7.73535,15.3533 C-7.93132,15.4583 -8.13778,15.5457 -8.35474,15.6157 C-8.5717,15.6857 -8.80615,15.7067 -9.05811,15.6787 C-9.29606,15.6227 -9.51302,15.5282 -9.70898,15.3953 C-9.90495,15.2623 -10.1219,15.1678 -10.3599,15.1118 C-10.5558,14.8039 -10.6818,14.4539 -10.7378,14.062 C-10.7938,13.6701 -10.8218,13.2747 -10.8218,12.8757 C-10.8218,12.4768 -10.8218,12.0849 -10.8218,11.7 C-10.8218,11.315 -10.8848,10.9616 -11.0107,10.6396 C-11.0947,10.4157 -11.2347,10.2232 -11.4307,10.0623 C-11.6266,9.90129 -11.7526,9.73682 -11.8086,9.56885 C-11.9626,9.19092 -11.9171,8.79549 -11.6721,8.38257 C-11.4272,7.96965 -11.1717,7.6932 -10.9058,7.55322 C-10.4858,7.83317 -10.1184,8.15161 -9.80347,8.50854 C-9.48853,8.86548 -9.0861,9.16292 -8.59619,9.40088 C-8.82015,9.19092 -9.01261,8.94246 -9.17358,8.65552 C-9.33455,8.36857 -9.51302,8.09912 -9.70898,7.84717 C-9.84896,7.6512 -10.0204,7.50773 -10.2234,7.41675 C-10.4264,7.32576 -10.6118,7.19629 -10.7798,7.02832 C-11.0737,6.80436 -11.2977,6.54191 -11.4517,6.24097 C-11.6056,5.94002 -11.8436,5.71257 -12.1655,5.55859 C-12.3615,4.9847 -12.512,4.38981 -12.6169,3.77393 C-12.7219,3.15804 -12.6274,2.65413 -12.3335,2.26221 C-12.0815,1.88428 -11.8611,1.69531 -11.6721,1.69531 C-11.4832,1.69531 -11.3467,1.63932 -11.2627,1.52734 C-11.1227,1.35938 -11.0737,1.26139 -11.1157,1.2334 C-11.1577,1.2054 -11.1927,1.15991 -11.2207,1.09692 C-11.2487,1.03394 -11.2277,0.925456 -11.1577,0.771484 C-11.0877,0.617513 -10.8498,0.323568 -10.4438,-0.110352 C-9.95394,-0.65625 -9.48853,-1.10067 -9.04761,-1.4436 C-8.60669,-1.78654 -8.25326,-2.06999 -7.9873,-2.29395 C-7.38542,-2.75586 -6.74854,-3.19328 -6.07666,-3.6062 C-5.40479,-4.01912 -4.69792,-4.42855 -3.95605,-4.83447 C-3.6901,-5.00244 -3.44165,-5.15291 -3.21069,-5.28589 C-2.97974,-5.41886 -2.74528,-5.52734 -2.50732,-5.61133 C-2.26937,-5.69531 -1.99992,-5.7513 -1.69897,-5.7793 C-1.39803,-5.80729 -1.0306,-5.79329 -0.59668,-5.7373 C-0.54069,-5.59733 -0.582682,-5.46436 -0.722656,-5.33838 C-0.86263,-5.2124 -1.0376,-5.07243 -1.24756,-4.91846 C-1.72347,-4.52653 -2.30086,-4.1626 -2.97974,-3.82666 C-3.65861,-3.49072 -4.29899,-3.19678 -4.90088,-2.94482 C-4.08903,-3.11279 -3.35417,-3.39974 -2.69629,-3.80566 C-2.03841,-4.21159 -1.33854,-4.61051 -0.59668,-5.00244 C0.0891927,-5.43636 0.726074,-5.82479 1.31396,-6.16772 C1.90186,-6.51066 2.53874,-6.8291 3.22461,-7.12305 C3.77051,-7.26302 4.23942,-7.27702 4.63135,-7.16504 C5.02327,-7.05306 5.37671,-6.88859 5.69165,-6.67163 C6.00659,-6.45467 6.30054,-6.22371 6.57349,-5.97876 C6.84644,-5.73381 7.13688,-5.54134 7.44482,-5.40137 C7.85075,-5.19141 8.18319,-5.07243 8.44214,-5.04443 C8.70109,-5.01644 8.97054,-5.00244 9.25049,-5.00244 C9.47445,-5.00244 9.7474,-4.98145 10.0693,-4.93945 C10.3913,-4.89746 10.6642,-4.83447 10.8882,-4.75049 M6.33203,-3.46973 C6.19206,-3.0638 6.17806,-2.78035 6.29004,-2.61938 C6.40202,-2.45841 6.514,-2.37793 6.62598,-2.37793 C6.70996,-2.37793 6.83244,-2.42342 6.99341,-2.5144 C7.15438,-2.60539 7.33285,-2.83285 7.52881,-3.19678 C7.61279,-3.37874 7.66878,-3.56771 7.69678,-3.76367 C7.72477,-3.95964 7.75277,-4.1346 7.78076,-4.28857 L7.78076,-4.83447 C7.5848,-4.72249 7.38883,-4.59652 7.19287,-4.45654 C7.0109,-4.30257 6.83594,-4.1486 6.66797,-3.99463 C6.5,-3.84066 6.38802,-3.66569 6.33203,-3.46973 M5.34521,-4.09961 C5.13525,-3.90365 4.96029,-3.70768 4.82031,-3.51172 C4.68034,-3.32975 4.56836,-3.12679 4.48438,-2.90283 C4.40039,-2.67887 4.3584,-2.44792 4.3584,-2.20996 C4.41439,-1.72005 4.51937,-1.41211 4.67334,-1.28613 C4.82731,-1.16016 4.96029,-1.09717 5.07227,-1.09717 C5.22624,-1.15316 5.36621,-1.26864 5.49219,-1.4436 C5.61816,-1.61857 5.68115,-1.93001 5.68115,-2.37793 C5.70915,-2.58789 5.70915,-2.79085 5.68115,-2.98682 C5.65316,-3.18278 5.61117,-3.37174 5.55518,-3.55371 C5.49919,-3.74967 5.4292,-3.93164 5.34521,-4.09961 M2.88867,-2.56689 C2.88867,-2.5389 2.86768,-2.44442 2.82568,-2.28345 C2.78369,-2.12248 2.7417,-1.93351 2.69971,-1.71655 C2.65771,-1.49959 2.64372,-1.27214 2.65771,-1.03418 C2.67171,-0.796224 2.7207,-0.572266 2.80469,-0.362305 C2.97266,0.0296224 3.17212,0.278076 3.40308,0.383057 C3.63403,0.488037 3.7915,0.512533 3.87549,0.456543 C4.01546,0.372559 4.13094,0.222087 4.22192,0.00512695 C4.31291,-0.211833 4.25342,-0.55127 4.04346,-1.01318 C3.98747,-1.23714 3.89648,-1.4436 3.77051,-1.63257 C3.64453,-1.82153 3.50456,-1.986 3.35059,-2.12598 C3.21061,-2.26595 3.05664,-2.41292 2.88867,-2.56689 M1.125,-0.530273 C1.09701,-0.502279 1.07601,-0.418294 1.06201,-0.27832 C1.04801,-0.138346 1.05501,0.0331217 1.08301,0.236084 C1.111,0.439046 1.15299,0.656006 1.20898,0.886963 C1.26497,1.11792 1.36296,1.33138 1.50293,1.52734 C1.79688,1.93327 2.08032,2.17122 2.35327,2.24121 C2.62622,2.3112 2.80469,2.3182 2.88867,2.26221 C2.97266,2.17822 3.04264,1.99976 3.09863,1.72681 C3.15462,1.45386 3.05664,1.11442 2.80469,0.708496 C2.48275,0.302572 2.13981,-0.0123698 1.77588,-0.236328 C1.56592,-0.348307 1.34896,-0.446289 1.125,-0.530273 M1.33496,2.55615 C0.943034,2.22021 0.530111,1.94727 0.0961914,1.7373 C-0.141764,1.62533 -0.372721,1.52734 -0.59668,1.44336 C-0.568685,1.63932 -0.526693,1.85628 -0.470703,2.09424 C-0.414714,2.2902 -0.341227,2.50366 -0.250244,2.73462 C-0.159261,2.96558 -0.0297852,3.17904 0.138184,3.375 C0.418132,3.78092 0.69458,4.02588 0.967529,4.10986 C1.24048,4.19385 1.41895,4.19385 1.50293,4.10986 C1.6569,4.05387 1.74788,3.88241 1.77588,3.59546 C1.80387,3.30851 1.6569,2.96208 1.33496,2.55615 M-0.197754,4.10986 C-0.519694,3.70394 -0.880127,3.3505 -1.27905,3.04956 C-1.67798,2.74862 -1.90544,2.55615 -1.96143,2.47217 C-1.96143,2.55615 -1.88444,2.78361 -1.73047,3.15454 C-1.5765,3.52547 -1.41553,3.95589 -1.24756,4.4458 C-1.09359,4.93571 -0.904622,5.27515 -0.680664,5.46411 C-0.456706,5.65308 -0.267741,5.71956 -0.11377,5.66357 C0.0262044,5.59359 0.138184,5.43262 0.222168,5.18066 C0.306152,4.92871 0.166178,4.57178 -0.197754,4.10986 M-2.78027,4.76074 C-2.87826,5.32064 -2.84676,5.71606 -2.68579,5.94702 C-2.52482,6.17798 -2.37435,6.29346 -2.23438,6.29346 C-2.0944,6.34945 -1.92993,6.25846 -1.74097,6.02051 C-1.552,5.78255 -1.52751,5.39063 -1.66748,4.84473 C-1.80745,4.32682 -1.95093,3.85091 -2.0979,3.41699 C-2.24487,2.98307 -2.34635,2.72412 -2.40234,2.64014 L-2.40234,3.29102 C-2.45833,3.45898 -2.52132,3.67244 -2.59131,3.9314 C-2.6613,4.19035 -2.72428,4.4668 -2.78027,4.76074 M-4.66992,4.52979 C-4.82389,5.10368 -4.82739,5.5061 -4.68042,5.73706 C-4.53345,5.96802 -4.38997,6.0835 -4.25,6.0835 C-4.13802,6.13949 -3.98755,6.066 -3.79858,5.86304 C-3.60962,5.66007 -3.48714,5.32064 -3.43115,4.84473 C-3.37516,4.27083 -3.38916,3.77393 -3.47314,3.354 C-3.55713,2.93408 -3.59912,2.69613 -3.59912,2.64014 C-3.59912,2.69613 -3.74259,2.90259 -4.02954,3.25952 C-4.31649,3.61646 -4.52995,4.03988 -4.66992,4.52979 M-6.79053,4.19385 C-6.84652,4.65576 -6.78703,4.9777 -6.61206,5.15967 C-6.43709,5.34163 -6.27962,5.43262 -6.13965,5.43262 C-5.99967,5.43262 -5.8422,5.34863 -5.66724,5.18066 C-5.49227,5.0127 -5.40479,4.68376 -5.40479,4.19385 C-5.37679,3.9279 -5.38379,3.68294 -5.42578,3.45898 C-5.46777,3.23503 -5.51676,3.03206 -5.57275,2.8501 C-5.67074,2.65413 -5.74772,2.45817 -5.80371,2.26221 C-5.97168,2.45817 -6.11165,2.65413 -6.22363,2.8501 C-6.33561,3.03206 -6.44409,3.23503 -6.54907,3.45898 C-6.65405,3.68294 -6.73454,3.9279 -6.79053,4.19385 M-6.87451,7.84717 C-6.49658,7.46924 -6.31462,7.1543 -6.32861,6.90234 C-6.34261,6.65039 -6.4126,6.47542 -6.53857,6.37744 C-6.62256,6.26546 -6.80802,6.21647 -7.09497,6.23047 C-7.38192,6.24447 -7.70736,6.41243 -8.07129,6.73438 C-8.30924,6.90234 -8.48421,7.09481 -8.59619,7.31177 C-8.70817,7.52873 -8.79215,7.73519 -8.84814,7.93115 C-8.93213,8.15511 -8.97412,8.40007 -8.97412,8.66602 C-8.72217,8.66602 -8.46322,8.62402 -8.19727,8.54004 C-7.97331,8.48405 -7.74585,8.40356 -7.51489,8.29858 C-7.28394,8.1936 -7.07048,8.04313 -6.87451,7.84717 M-4.04004,8.75 C-3.90007,8.17611 -3.90706,7.77368 -4.06104,7.54272 C-4.21501,7.31177 -4.36198,7.16829 -4.50195,7.1123 C-4.65592,7.05632 -4.86589,7.08431 -5.13184,7.19629 C-5.39779,7.30827 -5.64974,7.60921 -5.8877,8.09912 C-5.99967,8.36507 -6.06266,8.62752 -6.07666,8.88647 C-6.09066,9.14543 -6.06966,9.38688 -6.01367,9.61084 C-5.95768,9.86279 -5.8877,10.1217 -5.80371,10.3877 C-5.80371,10.4157 -5.72323,10.3947 -5.56226,10.3247 C-5.40129,10.2547 -5.22282,10.1392 -5.02686,9.97827 C-4.83089,9.8173 -4.63843,9.63534 -4.44946,9.43237 C-4.2605,9.22941 -4.12402,9.00195 -4.04004,8.75 M-1.24756,11.0386 C-1.21956,11.0386 -1.14608,10.9581 -1.0271,10.7971 C-0.908122,10.6361 -0.799642,10.4332 -0.70166,10.1882 C-0.603678,9.94328 -0.54069,9.67733 -0.512695,9.39038 C-0.484701,9.10343 -0.54069,8.83398 -0.680664,8.58203 C-0.904622,8.00814 -1.16707,7.6617 -1.46802,7.54272 C-1.76896,7.42375 -1.99642,7.36426 -2.15039,7.36426 C-2.29036,7.43424 -2.47583,7.57422 -2.70679,7.78418 C-2.93774,7.99414 -3.02523,8.37207 -2.96924,8.91797 C-2.96924,9.23991 -2.88875,9.53735 -2.72778,9.8103 C-2.56681,10.0833 -2.37435,10.3037 -2.15039,10.4717 C-2.02441,10.5837 -1.90544,10.6676 -1.79346,10.7236 C-1.68148,10.7796 -1.5835,10.8356 -1.49951,10.8916 L-1.24756,11.0386 M-0.428711,6.56641 C0.0611979,6.32845 0.484619,6.038 0.841553,5.69507 C1.19849,5.35213 1.50993,4.9917 1.77588,4.61377 C2.34977,3.95589 2.80119,3.32601 3.13013,2.72412 C3.45907,2.12223 3.70752,1.66732 3.87549,1.35938 C4.25342,0.701497 4.64185,0.113607 5.04077,-0.404297 C5.4397,-0.922201 5.84212,-1.34212 6.24805,-1.66406 C6.61198,-1.97201 6.93042,-2.18547 7.20337,-2.30444 C7.47632,-2.42342 7.5848,-2.5109 7.52881,-2.56689 C7.38883,-2.5389 7.24886,-2.47591 7.10889,-2.37793 C6.78695,-2.20996 6.44401,-1.97201 6.08008,-1.66406 C5.67415,-1.34212 5.27173,-0.922201 4.8728,-0.404297 C4.47388,0.113607 4.08545,0.673503 3.70752,1.27539 C3.51156,1.58333 3.2526,2.03125 2.93066,2.61914 C2.60872,3.20703 2.16781,3.84391 1.60791,4.52979 C1.31396,4.85173 1.00252,5.17716 0.673584,5.5061 C0.344645,5.83504 -0.0507813,6.09749 -0.512695,6.29346 C-0.904622,6.53141 -1.35254,6.67139 -1.85645,6.71338 C-2.36035,6.75537 -2.84326,6.73438 -3.30518,6.65039 C-4.28499,6.49642 -5.18783,6.24797 -6.01367,5.90503 C-6.83952,5.56209 -7.55339,5.20866 -8.15527,4.84473 C-8.47721,4.69076 -8.76066,4.53678 -9.00562,4.38281 C-9.25057,4.22884 -9.45703,4.09587 -9.625,3.98389 C-9.82096,3.85791 -10.0099,3.73893 -10.1919,3.62695 L-10.3599,4.02588 C-10.2199,4.13786 -10.0449,4.24984 -9.83496,4.36182 C-9.66699,4.4738 -9.45353,4.60327 -9.19458,4.75024 C-8.93563,4.89722 -8.65218,5.04069 -8.34424,5.18066 C-7.77035,5.5026 -7.05998,5.84904 -6.21313,6.21997 C-5.36629,6.5909 -4.43896,6.81836 -3.43115,6.90234 C-2.91325,7.01432 -2.39535,7.04232 -1.87744,6.98633 C-1.35954,6.93034 -0.876628,6.79036 -0.428711,6.56641 M0.705078,8.26709 C0.901042,8.50505 1.16349,8.65202 1.49243,8.70801 C1.82137,8.764 2.13981,8.79199 2.44775,8.79199 C2.82568,8.79199 3.21761,8.75 3.62354,8.66602 C3.56755,8.37207 3.47656,8.08512 3.35059,7.80518 C3.15462,7.25928 2.81169,6.84635 2.32178,6.56641 C1.84587,6.27246 1.43994,6.16048 1.104,6.23047 C0.768066,6.30046 0.530111,6.37744 0.390137,6.46143 C0.306152,6.6154 0.243164,6.84285 0.201172,7.1438 C0.15918,7.44474 0.327148,7.81917 0.705078,8.26709 M3.22461,5.91553 C3.51855,5.97152 3.809,5.98551 4.09595,5.95752 C4.38289,5.92952 4.63835,5.87354 4.8623,5.78955 C5.15625,5.70557 5.4292,5.58659 5.68115,5.43262 C5.51318,5.23665 5.32422,5.05469 5.11426,4.88672 C4.94629,4.73275 4.74683,4.59277 4.51587,4.4668 C4.28491,4.34082 4.04346,4.24984 3.7915,4.19385 C3.3016,4.05387 2.93416,4.05387 2.68921,4.19385 C2.44425,4.33382 2.29378,4.4738 2.23779,4.61377 C2.1818,4.76774 2.2133,4.9812 2.33228,5.25415 C2.45125,5.5271 2.7487,5.74756 3.22461,5.91553 M6.70996,2.89209 C6.65397,2.8361 6.44051,2.68913 6.06958,2.45117 C5.69865,2.21322 5.26823,2.05924 4.77832,1.98926 C4.31641,1.93327 3.99447,1.99276 3.8125,2.16772 C3.63053,2.34269 3.53955,2.50016 3.53955,2.64014 C3.48356,2.72412 3.53955,2.86759 3.70752,3.07056 C3.87549,3.27352 4.20443,3.40299 4.69434,3.45898 C5.18424,3.45898 5.62866,3.3645 6.02759,3.17554 C6.42651,2.98657 6.65397,2.89209 6.70996,2.89209 M5.80713,1.52734 C6.01709,1.52734 6.22005,1.51335 6.41602,1.48535 C6.61198,1.45736 6.77995,1.41536 6.91992,1.35938 C7.10189,1.30339 7.27686,1.2474 7.44482,1.19141 C7.27686,1.03743 7.10189,0.90446 6.91992,0.79248 C6.77995,0.680501 6.61198,0.58252 6.41602,0.498535 C6.22005,0.414551 6.01709,0.344564 5.80713,0.288574 C5.31722,0.218587 4.99528,0.264079 4.84131,0.425049 C4.68734,0.586019 4.61035,0.736491 4.61035,0.876465 C4.61035,0.988444 4.68734,1.12492 4.84131,1.28589 C4.99528,1.44686 5.31722,1.52734 5.80713,1.52734 M8.0957,-0.0263672 L8.05371,-0.0263672 C8.02572,-0.0823568 7.88924,-0.253825 7.64429,-0.540771 C7.39933,-0.827718 7.08789,-1.01318 6.70996,-1.09717 C6.34603,-1.18115 6.06958,-1.15316 5.88062,-1.01318 C5.69165,-0.87321 5.59717,-0.76123 5.59717,-0.677246 C5.59717,-0.55127 5.68465,-0.425293 5.85962,-0.299316 C6.03459,-0.17334 6.31803,-0.0823568 6.70996,-0.0263672 C7.0599,0.0296224 7.36434,0.0366211 7.62329,-0.00537109 C7.88224,-0.0473633 8.02572,-0.054362 8.05371,-0.0263672 L8.0957,-0.0263672 M7.69678,-1.09717 C7.85075,-1.04118 8.00472,-0.999186 8.15869,-0.971191 C8.31266,-0.943197 8.44564,-0.915202 8.55762,-0.887207 C8.6696,-0.859212 8.78857,-0.845215 8.91455,-0.845215 C8.85856,-1.04118 8.78158,-1.20915 8.68359,-1.34912 C8.59961,-1.50309 8.50163,-1.64307 8.38965,-1.76904 C8.27767,-1.89502 8.15169,-2.014 8.01172,-2.12598 C7.68978,-2.26595 7.43783,-2.29395 7.25586,-2.20996 C7.07389,-2.12598 6.94792,-2.02799 6.87793,-1.91602 C6.87793,-1.77604 6.93742,-1.62557 7.0564,-1.4646 C7.17537,-1.30363 7.38883,-1.18115 7.69678,-1.09717 M9.08252,-2.37793 C9.39046,-2.44792 9.7054,-2.5529 10.0273,-2.69287 C10.1673,-2.77686 10.3073,-2.86084 10.4473,-2.94482 C10.3073,-3.0568 10.1533,-3.15479 9.98535,-3.23877 C9.84538,-3.29476 9.68091,-3.35425 9.49194,-3.41724 C9.30298,-3.48022 9.11051,-3.49772 8.91455,-3.46973 C8.50863,-3.41374 8.25667,-3.29126 8.15869,-3.10229 C8.06071,-2.91333 8.01172,-2.76286 8.01172,-2.65088 C8.06771,-2.59489 8.16569,-2.5214 8.30566,-2.43042 C8.44564,-2.33944 8.70459,-2.32194 9.08252,-2.37793 "/>
</g>

<g fill="#b75800" fill-opacity="1" stroke="none" transform="matrix(1,0,0,1,0,0)"
font-family="MS Shell Dlg 2" font-size="7.8" font-weight="400" font-style="normal" 
>
</g>
</g>
</svg>
