<svg xmlns="http://www.w3.org/2000/svg" version="1.2" viewBox="0 0 42.52 42.52" height="56.693" width="56.693">
   <g stroke-linejoin="bevel" stroke-linecap="square" fill-rule="evenodd" stroke="none" fill="none" font-weight="400"
      font-size="7.8" font-family="'MS Shell Dlg 2'">
      <path
         d="M42.52 21.26C42.52 33 33 42.52 21.26 42.52 9.518 42.52 0 33 0 21.26 0 9.518 9.518 0 21.26 0 33 0 42.52 9.518 42.52 21.26"
         vector-effect="non-scaling-stroke" fill="#b75800" />
      <path
         d="M15.498 30.891c-.42.574-.76 1.092-1.018 1.554-.26.462-.319.819-.179 1.07h-.735c-.685 0-.934-.268-.745-.807.19-.54.599-1.229 1.228-2.069 0-.433.098-.822.294-1.165.196-.343.424-.658.683-.945.259-.287.518-.56.777-.818.259-.26.458-.515.598-.767a25.472 25.472 0 01-.21-1.659 58.857 58.857 0 00-.21-1.868 17.34 17.34 0 00-.367-2.016 57.71 57.71 0 01-.43-1.89 16.21 16.21 0 01-.274-1.784 6.055 6.055 0 01.084-1.743c.028-.182.112-.472.252-.871.14-.4.29-.812.452-1.239.16-.427.318-.836.472-1.228.154-.392.259-.686.315-.882.21-.602.465-1.067.766-1.396.301-.33.623-.567.966-.714a3.372 3.372 0 011.092-.263c.385-.028.766-.042 1.144-.042.168 0 .326.039.473.116.147.077.304.143.472.2-.686 0-1.337.136-1.953.409-.615.273-1.126.948-1.532 2.026-.056.182-.158.465-.305.85-.147.385-.297.791-.451 1.218-.154.427-.312.843-.473 1.25-.16.405-.255.706-.283.902a5.593 5.593 0 00-.063 1.743c.07.588.178 1.183.325 1.784l.452 1.848c.154.63.259 1.288.315 1.974.098.728.168 1.386.21 1.973.042.588.105 1.134.189 1.638a2.295 2.295 0 01-.557.766c-.259.245-.518.511-.777.798-.259.287-.49.595-.692.924a2.095 2.095 0 00-.305 1.123m6.97-10.792c-.14.098-.251.21-.335.336a3.8 3.8 0 01-.357.441c-.056.14-.14.27-.252.389-.112.119-.21.22-.294.304a1.204 1.204 0 01-.084-.451v-.494a9.65 9.65 0 01.084-2.215c.112-.707.263-1.34.451-1.9.19-.56.382-1.04.578-1.438a8.27 8.27 0 01.462-.85c.154.084.357.227.609.43.252.203.514.49.787.86.273.372.518.837.735 1.397.217.56.353 1.239.41 2.037 0 .14.013.283.041.43.028.147.042.29.042.43a.585.585 0 01-.252.042l-.168.084c-.238.084-.427.12-.567.105a2.152 2.152 0 01-.461-.105 2.37 2.37 0 00-.693-.063 1.848 1.848 0 00-.735.231m.44-3.695c-.321.14-.59.392-.808.756-.217.364-.297.728-.241 1.092 0 .35.108.62.325.808.217.19.487.235.809.137.056 0 .084-.014.084-.042 0-.028.028-.042.084-.042.28-.14.528-.389.745-.746.217-.357.298-.724.242-1.102 0-.336-.123-.598-.368-.787-.245-.19-.535-.214-.871-.074m.168 2.037c-.182.084-.343.087-.483.01-.14-.077-.21-.227-.21-.451 0-.14.056-.305.168-.494a.992.992 0 01.44-.409h.085c.392-.084.588.056.588.42 0 .154-.056.322-.168.504a1.206 1.206 0 01-.42.42m.735 8.923c.056.238.14.441.252.609.112.168.28.385.503.65.154.169.301.361.441.578.14.217.28.452.42.704l-2.876 1.175c.084-.35.2-.696.346-1.039.147-.343.29-.675.43-.997.35-.826.477-1.351.379-1.575 0-.154-.021-.287-.063-.399-.042-.112-.147-.294-.315-.546-.308-.406-.658-.976-1.05-1.71-.392-.736-.686-1.6-.882-2.594.14-.154.259-.3.357-.44.098-.14.224-.295.378-.463.084-.154.168-.28.252-.378.084-.098.168-.175.252-.23.406-.197.749-.225 1.029-.085a1.787 1.787 0 001.511-.084h.084a14.653 14.653 0 01-.472 3.076c-.26.96-.473 1.753-.64 2.383-.14.406-.231.7-.273.882a2.179 2.179 0 00-.063.483m5.753 3.968c.28.28.377.585.293.914-.084.329-.276.637-.577.924a3.97 3.97 0 01-1.05.713c-.399.19-.773.284-1.123.284H16.233c-.658 0-.885-.266-.682-.798.203-.532.633-1.21 1.29-2.037-.027-.434.05-.808.232-1.123.182-.315.41-.616.682-.903.273-.287.546-.56.82-.819.272-.259.478-.514.618-.766a89.21 89.21 0 01-.503-3.57 12.355 12.355 0 00-.326-1.994 49.647 49.647 0 01-.43-1.869 20.595 20.595 0 01-.294-1.784 6.598 6.598 0 01.02-1.743c.029-.21.12-.514.274-.913.154-.4.318-.812.493-1.239.175-.427.333-.83.472-1.207.14-.378.238-.665.294-.861.21-.602.466-1.074.767-1.417.3-.343.63-.588.987-.735.357-.147.72-.235 1.091-.263.371-.028.746-.042 1.124-.042.798 0 1.462.56 1.994 1.68.532 1.12 1.071 2.583 1.617 4.388.14.35.374.651.703.903.33.252.536.567.62.945.21.77.357 1.529.44 2.278.085.749.14 1.533.169 2.351.028.82.028 1.687 0 2.604s-.056 1.928-.084 3.034c.084.154.147.36.189.62.042.258.09.538.147.84.056.3.13.594.22.881.091.287.22.528.389.724m-3.318-1.112l-.168-.4a5.46 5.46 0 00-.514-.955 9.992 9.992 0 00-.64-.85c-.14-.14-.277-.29-.41-.451-.133-.161-.2-.284-.2-.368 0-.084.035-.217.105-.399.07-.182.154-.392.252-.63.112-.406.238-.878.378-1.417s.277-1.14.41-1.806a17.53 17.53 0 00.283-2.068c.056-.714.056-1.441 0-2.183-.056-1.008-.227-1.848-.514-2.52-.287-.672-.602-1.207-.945-1.606-.343-.399-.665-.679-.966-.84-.3-.16-.472-.241-.514-.241l-.084-.084-.168.168c-.028.056-.158.27-.389.64-.23.371-.483.882-.755 1.533-.273.65-.5 1.413-.683 2.288a10.997 10.997 0 00-.189 2.845c.14 1.526.47 2.79.987 3.79.518 1 .98 1.788 1.386 2.362.084.14.16.263.23.368.07.105.106.185.106.241 0 .084-.05.242-.147.472a66.45 66.45 0 01-.294.683c-.168.434-.33.885-.483 1.354-.154.469-.273.948-.357 1.438l-.105.483 4.388-1.847"
         fill-opacity=".949" fill="#fff" />
   </g>
</svg>