<?xml version="1.0" encoding="UTF-8" standalone="no"?>
<svg
   xmlns:dc="http://purl.org/dc/elements/1.1/"
   xmlns:cc="http://creativecommons.org/ns#"
   xmlns:rdf="http://www.w3.org/1999/02/22-rdf-syntax-ns#"
   xmlns:svg="http://www.w3.org/2000/svg"
   xmlns="http://www.w3.org/2000/svg"
   xmlns:sodipodi="http://sodipodi.sourceforge.net/DTD/sodipodi-0.dtd"
   xmlns:inkscape="http://www.inkscape.org/namespaces/inkscape"
   inkscape:version="1.0 (4035a4fb49, 2020-05-01)"
   sodipodi:docname="1724.svg"
   id="svg20"
   version="1.2"
   viewBox="0 0 42.519639 42.519639"
   height="14.999999mm"
   width="14.999999mm">
  <metadata
     id="metadata24">
    <rdf:RDF>
      <cc:Work
         rdf:about="">
        <dc:format>image/svg+xml</dc:format>
        <dc:type
           rdf:resource="http://purl.org/dc/dcmitype/StillImage" />
        <dc:title>Qt SVG Document</dc:title>
      </cc:Work>
    </rdf:RDF>
  </metadata>
  <sodipodi:namedview
     inkscape:current-layer="svg20"
     inkscape:window-maximized="0"
     inkscape:window-y="0"
     inkscape:window-x="0"
     inkscape:cy="28.346482"
     inkscape:cx="28.346482"
     inkscape:zoom="5.8410537"
     showgrid="false"
     id="namedview22"
     inkscape:window-height="480"
     inkscape:window-width="1034"
     inkscape:pageshadow="2"
     inkscape:pageopacity="0"
     guidetolerance="10"
     gridtolerance="10"
     objecttolerance="10"
     borderopacity="1"
     bordercolor="#666666"
     pagecolor="#ffffff" />
  <title
     id="title2">Qt SVG Document</title>
  <desc
     id="desc4">Generated with Qt</desc>
  <defs
     id="defs6" />
  <g
     transform="translate(5.25984,5.25984)"
     id="g18"
     stroke-linejoin="bevel"
     stroke-linecap="square"
     fill-rule="evenodd"
     stroke-width="1"
     stroke="#000000"
     fill="none">
    <g
       id="g10"
       font-style="normal"
       font-weight="400"
       font-size="7.8px"
       font-family="'MS Shell Dlg 2'"
       stroke="none"
       fill-opacity="1"
       fill="#b75800">
      <path
         id="path8"
         d="M 37.2598,16 C 37.2598,27.7415 27.7415,37.2598 16,37.2598 4.25851,37.2598 -5.25984,27.7415 -5.25984,16 -5.25984,4.25851 4.25851,-5.25984 16,-5.25984 27.7415,-5.25984 37.2598,4.25851 37.2598,16"
         fill-rule="evenodd"
         vector-effect="non-scaling-stroke" />
    </g>
    <g
       id="g14"
       font-style="normal"
       font-weight="400"
       font-size="7.8px"
       font-family="'MS Shell Dlg 2'"
       transform="translate(16,12.0315)"
       stroke="none"
       fill-opacity="0.94902"
       fill="#ffffff">
      <path
         id="path12"
         d="m -5.76172,13.6001 c -0.41992,0.5739 -0.75936,1.0918 -1.01831,1.5537 -0.25895,0.4619 -0.31844,0.8189 -0.17847,1.0708 h -0.73486 c -0.68587,0 -0.93433,-0.2694 -0.74536,-0.8083 0.18896,-0.5389 0.59839,-1.2283 1.22827,-2.0682 0,-0.4339 0.09798,-0.8223 0.29395,-1.1652 0.19596,-0.343 0.42342,-0.6579 0.68237,-0.9449 0.25895,-0.2869 0.5179,-0.5599 0.77685,-0.8188 0.25896,-0.259 0.45842,-0.51441 0.59839,-0.76637 C -4.94287,9.13493 -5.01286,8.58203 -5.06885,7.99414 -5.12484,7.40625 -5.19482,6.78337 -5.27881,6.12549 -5.36279,5.43962 -5.48527,4.76774 -5.64624,4.10986 -5.80721,3.45199 -5.95068,2.8221 -6.07666,2.22021 -6.20264,1.61833 -6.29362,1.02344 -6.34961,0.435547 -6.4056,-0.152344 -6.3776,-0.733236 -6.26563,-1.30713 c 0.028,-0.18197 0.11198,-0.47241 0.25196,-0.87134 0.13997,-0.39892 0.29044,-0.81185 0.45141,-1.23877 0.16097,-0.42692 0.31844,-0.83634 0.47242,-1.22827 0.15397,-0.39192 0.25895,-0.68587 0.31494,-0.88183 0.20996,-0.60189 0.46541,-1.06731 0.76636,-1.39624 0.30094,-0.32894 0.62288,-0.5669 0.96582,-0.71387 0.34293,-0.14697 0.70686,-0.23446 1.09179,-0.26245 0.38493,-0.028 0.76636,-0.04199 1.144289,-0.04199 0.167969,0 0.32544,0.03849 0.472412,0.11547 0.146973,0.07699 0.3044438,0.14348 0.472413,0.19947 -0.685873,0 -1.336754,0.13647 -1.952634,0.40942 -0.61589,0.27295 -1.12679,0.94832 -1.53272,2.02612 -0.05599,0.18197 -0.15747,0.46542 -0.30444,0.85035 -0.14697,0.38492 -0.29745,0.79085 -0.45142,1.21777 -0.15397,0.42692 -0.31144,0.84334 -0.47241,1.24927 -0.16097,0.40592 -0.25545,0.70687 -0.28345,0.902829 -0.11198,0.573893 -0.13297,1.154785 -0.06299,1.742675 0.06999,0.587896 0.17847,1.182776 0.32544,1.784666 0.14698,0.60189 0.29745,1.21778 0.45142,1.84766 0.15397,0.62988 0.25895,1.28776 0.31494,1.97363 0.09798,0.72787 0.16797,1.38574 0.20996,1.97363 0.04199,0.58789 0.10498,1.13379 0.18897,1.6377 -0.11198,0.26593 -0.29745,0.52143 -0.5564,0.76633 -0.25895,0.245 -0.5179,0.5109 -0.77685,0.7979 -0.25896,0.2869 -0.48991,0.5949 -0.69288,0.9238 -0.20296,0.3289 -0.30444,0.7034 -0.30444,1.1233 M 1.20898,2.80811 C 1.06901,2.90609 0.957031,3.01807 0.873047,3.14404 0.789063,3.27002 0.670085,3.41699 0.516113,3.58496 0.460124,3.72493 0.376139,3.85441 0.26416,3.97339 0.152181,4.09237 0.0541992,4.19385 -0.0297852,4.27783 -0.0857747,4.13786 -0.11377,3.98739 -0.11377,3.82642 c 0,-0.16097 0,-0.32544 0,-0.49341 C -0.169759,2.56315 -0.141764,1.82479 -0.0297852,1.11792 0.082194,0.411051 0.232666,-0.222331 0.421631,-0.782227 0.610596,-1.34212 0.80306,-1.82153 0.999023,-2.22046 1.19499,-2.61938 1.34896,-2.90283 1.46094,-3.0708 c 0.15397,0.08398 0.35693,0.22746 0.60888,0.43042 0.25196,0.20296 0.51441,0.48991 0.78736,0.86084 0.27295,0.37093 0.5179,0.836343 0.73486,1.396239 0.21696,0.559896 0.35344,1.23877 0.40942,2.036621 0,0.13997 0.014,0.28345 0.042,0.43042 C 4.07145,2.23071 4.08545,2.37419 4.08545,2.51416 4.02946,2.54215 3.94548,2.55615 3.8335,2.55615 L 3.66553,2.64014 C 3.42757,2.72412 3.23861,2.75911 3.09863,2.74512 2.95866,2.73112 2.80469,2.69613 2.63672,2.64014 2.39876,2.58415 2.16781,2.56315 1.94385,2.57715 1.71989,2.59115 1.47493,2.66813 1.20898,2.80811 M 1.6499,-0.887207 C 1.32796,-0.747233 1.05851,-0.49528 0.841553,-0.131348 0.624593,0.232585 0.544108,0.596517 0.600098,0.960449 0.600098,1.31038 0.708577,1.57983 0.925537,1.7688 1.1425,1.95776 1.41195,2.00326 1.73389,1.90527 c 0.05599,0 0.08398,-0.01399 0.08398,-0.04199 0,-0.02799 0.028,-0.04199 0.08399,-0.04199 C 2.1818,1.68132 2.43026,1.43286 2.64722,1.07593 2.86418,0.718994 2.94466,0.351563 2.88867,-0.0263672 2.88867,-0.362305 2.76619,-0.624756 2.52124,-0.813721 2.27629,-1.00269 1.98584,-1.02718 1.6499,-0.887207 M 1.81787,1.14941 C 1.6359,1.2334 1.47493,1.2369 1.33496,1.15991 1.19499,1.08293 1.125,0.932454 1.125,0.708496 1.125,0.568522 1.18099,0.404053 1.29297,0.215088 1.40495,0.026123 1.55192,-0.110352 1.73389,-0.194336 h 0.08398 c 0.39193,-0.083984 0.58789,0.05599 0.58789,0.419922 0,0.153971 -0.05599,0.32194 -0.16797,0.503906 C 2.12581,0.911458 1.98584,1.05143 1.81787,1.14941 m 0.73486,8.92339 c 0.05599,0.2379 0.13998,0.4409 0.25196,0.6088 0.11198,0.168 0.27995,0.385 0.5039,0.6509 0.15398,0.168 0.30095,0.3605 0.44092,0.5774 0.13998,0.217 0.27995,0.4514 0.41992,0.7034 l -2.87646,1.1758 c 0.08398,-0.35 0.19946,-0.6964 0.34643,-1.0393 0.14698,-0.343 0.29045,-0.6754 0.43042,-0.9974 0.34994,-0.8258 0.47592,-1.3507 0.37793,-1.5747 0,-0.1539 -0.02099,-0.28691 -0.06298,-0.39889 C 2.34277,9.66683 2.23779,9.48486 2.06982,9.23291 1.76188,8.82699 1.41195,8.25659 1.02002,7.52173 0.628092,6.78687 0.334147,5.92253 0.138184,4.92871 0.278158,4.77474 0.397135,4.62777 0.495117,4.48779 0.593099,4.34782 0.719076,4.19385 0.873047,4.02588 0.957031,3.87191 1.04102,3.74593 1.125,3.64795 1.20898,3.54997 1.29297,3.47298 1.37695,3.41699 1.78288,3.22103 2.12581,3.19303 2.40576,3.33301 2.92367,3.52897 3.42757,3.50098 3.91748,3.24902 H 4.00146 C 3.94548,4.34082 3.788,5.36613 3.52905,6.32495 3.2701,7.28377 3.05664,8.07813 2.88867,8.70801 2.7487,9.11393 2.65771,9.40788 2.61572,9.58984 2.57373,9.77181 2.55273,9.93278 2.55273,10.0728 m 5.75293,3.9682 c 0.27995,0.28 0.37793,0.5844 0.29395,0.9133 -0.08398,0.329 -0.27645,0.6369 -0.57739,0.9239 -0.30095,0.2869 -0.65088,0.5249 -1.04981,0.7138 -0.39892,0.189 -0.77335,0.2835 -1.12329,0.2835 H -5.02686 c -0.65787,0 -0.88533,-0.266 -0.68237,-0.7979 0.20296,-0.5319 0.63338,-1.2107 1.29126,-2.0366 -0.02799,-0.4339 0.04899,-0.8083 0.23096,-1.1233 0.18196,-0.3149 0.40942,-0.6159 0.68237,-0.9028 0.27295,-0.287 0.5459,-0.5599 0.81885,-0.8189 0.27295,-0.2589 0.47941,-0.5144 0.61938,-0.7663 C -2.15039,9.91178 -2.23438,9.35889 -2.31836,8.771 -2.40234,8.18311 -2.48633,7.54622 -2.57031,6.86035 -2.6263,6.17448 -2.73478,5.5096 -2.89575,4.86572 -3.05672,4.22184 -3.2002,3.59896 -3.32617,2.99707 -3.45215,2.39518 -3.55013,1.80029 -3.62012,1.2124 c -0.06998,-0.587888 -0.06299,-1.1687802 0.021,-1.742673 0.02799,-0.209961 0.11898,-0.514407 0.27295,-0.913327 0.15397,-0.39893 0.31844,-0.81185 0.49341,-1.23877 0.17496,-0.42692 0.33243,-0.82935 0.47241,-1.20728 0.13997,-0.37793 0.23795,-0.66487 0.29394,-0.86084 0.20996,-0.60189 0.46542,-1.0743 0.76636,-1.41723 0.300945,-0.34294 0.629884,-0.5879 0.986818,-0.73487 0.3569332,-0.14697 0.720865,-0.23445 1.091796,-0.26245 0.370936,-0.02799 0.745366,-0.04199 1.123296,-0.04199 0.79785,0 1.46272,0.55989 1.99462,1.67969 0.53191,1.11979 1.07081,2.58252 1.6167,4.38818 0.13998,0.349935 0.37443,0.650879 0.70337,0.902832 0.32894,0.251953 0.5354,0.566894 0.61939,0.944824 0.20996,0.769854 0.35693,1.529214 0.44092,2.278074 0.08398,0.74886 0.13997,1.53272 0.16796,2.35156 0.028,0.81885 0.028,1.68669 0,2.60352 -0.02799,0.91683 -0.05599,1.92814 -0.08398,3.03395 0.08398,0.154 0.14697,0.3604 0.18896,0.6194 0.042,0.2589 0.09099,0.5389 0.14698,0.8398 0.05599,0.301 0.12947,0.5949 0.22046,0.8819 0.09098,0.2869 0.22046,0.5284 0.38842,0.7243 M 4.98828,12.9282 4.82031,12.5293 C 4.68034,12.1934 4.50887,11.8749 4.30591,11.574 4.10295,11.273 3.88949,10.9896 3.66553,10.7236 3.52555,10.5837 3.38908,10.4332 3.2561,10.2722 3.12313,10.1112 3.05664,9.98877 3.05664,9.90479 3.05664,9.8208 3.09163,9.68783 3.16162,9.50586 3.23161,9.32389 3.31559,9.11393 3.41357,8.87598 3.52555,8.47005 3.65153,7.99764 3.7915,7.45874 3.93148,6.91984 4.06795,6.31795 4.20093,5.65308 4.3339,4.9882 4.42839,4.29883 4.48438,3.58496 4.54036,2.87109 4.54036,2.14323 4.48438,1.40137 4.42839,0.393555 4.25692,-0.446289 3.96997,-1.11816 3.68302,-1.79004 3.36808,-2.32544 3.02515,-2.72437 2.68221,-3.12329 2.36027,-3.40324 2.05933,-3.56421 1.75838,-3.72518 1.58691,-3.80566 1.54492,-3.80566 L 1.46094,-3.88965 1.29297,-3.72168 c -0.028,0.05599 -0.15747,0.26945 -0.388429,0.64038 -0.230957,0.37093 -0.48291,0.88184 -0.755859,1.53272 -0.27295,0.650875 -0.500407,1.413733 -0.682373,2.28857 -0.181967,0.87484 -0.244955,1.82316 -0.188965,2.84497 0.139974,1.52572 0.468913,2.78898 0.986816,3.7898 0.517904,1.00081 0.97982,1.78816 1.38574,2.36206 0.08399,0.13997 0.16097,0.26245 0.23096,0.36738 0.06999,0.105 0.10498,0.1855 0.10498,0.2415 0,0.084 -0.04899,0.2415 -0.14697,0.4724 -0.09798,0.231 -0.19597,0.4584 -0.29395,0.6824 -0.16797,0.4339 -0.32894,0.8853 -0.48291,1.3542 -0.15397,0.4689 -0.272947,0.9484 -0.356932,1.4383 l -0.10498,0.4829 4.388182,-1.8477"
         fill-rule="evenodd"
         vector-effect="none" />
    </g>
    <g
       id="g16"
       font-style="normal"
       font-weight="400"
       font-size="7.8px"
       font-family="'MS Shell Dlg 2'"
       stroke="none"
       fill-opacity="1"
       fill="#b75800" />
  </g>
</svg>
