<?xml version="1.0" encoding="UTF-8" standalone="no"?>
<svg
   xmlns:dc="http://purl.org/dc/elements/1.1/"
   xmlns:cc="http://creativecommons.org/ns#"
   xmlns:rdf="http://www.w3.org/1999/02/22-rdf-syntax-ns#"
   xmlns:svg="http://www.w3.org/2000/svg"
   xmlns="http://www.w3.org/2000/svg"
   xmlns:sodipodi="http://sodipodi.sourceforge.net/DTD/sodipodi-0.dtd"
   xmlns:inkscape="http://www.inkscape.org/namespaces/inkscape"
   inkscape:version="1.0 (4035a4fb49, 2020-05-01)"
   sodipodi:docname="1725.svg"
   id="svg20"
   version="1.2"
   viewBox="0 0 42.519639 42.519639"
   height="14.999999mm"
   width="14.999999mm">
  <metadata
     id="metadata24">
    <rdf:RDF>
      <cc:Work
         rdf:about="">
        <dc:format>image/svg+xml</dc:format>
        <dc:type
           rdf:resource="http://purl.org/dc/dcmitype/StillImage" />
        <dc:title>Qt SVG Document</dc:title>
      </cc:Work>
    </rdf:RDF>
  </metadata>
  <sodipodi:namedview
     inkscape:current-layer="svg20"
     inkscape:window-maximized="0"
     inkscape:window-y="0"
     inkscape:window-x="0"
     inkscape:cy="28.346482"
     inkscape:cx="28.346482"
     inkscape:zoom="5.8410537"
     showgrid="false"
     id="namedview22"
     inkscape:window-height="480"
     inkscape:window-width="1034"
     inkscape:pageshadow="2"
     inkscape:pageopacity="0"
     guidetolerance="10"
     gridtolerance="10"
     objecttolerance="10"
     borderopacity="1"
     bordercolor="#666666"
     pagecolor="#ffffff" />
  <title
     id="title2">Qt SVG Document</title>
  <desc
     id="desc4">Generated with Qt</desc>
  <defs
     id="defs6" />
  <g
     transform="translate(5.25984,5.25984)"
     id="g18"
     stroke-linejoin="bevel"
     stroke-linecap="square"
     fill-rule="evenodd"
     stroke-width="1"
     stroke="#000000"
     fill="none">
    <g
       id="g10"
       font-style="normal"
       font-weight="400"
       font-size="7.8px"
       font-family="'MS Shell Dlg 2'"
       stroke="none"
       fill-opacity="1"
       fill="#b75800">
      <path
         id="path8"
         d="M 37.2598,16 C 37.2598,27.7415 27.7415,37.2598 16,37.2598 4.25851,37.2598 -5.25984,27.7415 -5.25984,16 -5.25984,4.25851 4.25851,-5.25984 16,-5.25984 27.7415,-5.25984 37.2598,4.25851 37.2598,16"
         fill-rule="evenodd"
         vector-effect="non-scaling-stroke" />
    </g>
    <g
       id="g14"
       font-style="normal"
       font-weight="400"
       font-size="7.8px"
       font-family="'MS Shell Dlg 2'"
       transform="translate(16,12.1732)"
       stroke="none"
       fill-opacity="0.94902"
       fill="#ffffff">
      <path
         id="path12"
         d="m 9.19141,8.83398 c 0.19596,0 0.39542,0.042 0.59838,0.12598 C 9.99276,9.04395 10.1922,9.14893 10.3882,9.2749 9.40837,11.3885 7.94564,13.0822 6,14.356 c -1.94564,1.2737 -4.12223,1.9106 -6.529785,1.9106 -2.155595,0 -4.157225,-0.5494 -6.004885,-1.6482 -1.84765,-1.0988 -3.28939,-2.614 -4.32523,-4.5456 0.168,-0.11203 0.3885,-0.18901 0.6614,-0.231 0.27296,-0.042 0.57041,-0.06299 0.89235,-0.06299 0.22396,0 0.41642,0 0.57739,0 0.16097,0 0.31144,0.02799 0.45142,0.08398 0.43392,0.18201 0.77335,0.37091 1.01831,0.56691 0.24495,0.196 0.4934,0.4269 0.74536,0.6929 0.11198,0.1119 0.22746,0.2169 0.34643,0.3149 0.11898,0.098 0.24846,0.203 0.38843,0.3149 0.25195,0.21 0.48641,0.371 0.70337,0.483 0.21696,0.1119 0.42342,0.2239 0.61939,0.3359 0.23795,0.056 0.5004,0.1085 0.78735,0.1575 0.28695,0.049 0.58439,0.0734 0.89233,0.0734 h 0.31494 c 0.05599,0 0.11198,-0.0489 0.16797,-0.1469 -0.11198,-0.028 -0.21696,-0.056 -0.31494,-0.084 -0.05599,-0.028 -0.11198,-0.056 -0.16797,-0.084 -0.05599,-0.028 -0.05599,-0.042 0,-0.042 0,-0.028 0.13298,-0.014 0.39893,0.042 l 0.41992,0.084 c 0.11198,0 0.16797,-0.042 0.16797,-0.126 0.23795,-0.084 0.35693,-0.182 0.35693,-0.2939 -0.18196,0 -0.32894,-0.014 -0.44092,-0.042 -0.25195,-0.056 -0.34993,-0.112 -0.29394,-0.168 0.05599,-0.07 0.22746,-0.0875 0.5144,-0.0525 0.28695,0.035 0.45842,0.0525 0.51441,0.0525 0.05599,-0.07 0.10498,-0.119 0.146971,-0.147 0.041992,-0.028 0.090983,-0.1119 0.146972,-0.2519 -0.027994,-0.084 -0.125976,-0.147 -0.293943,-0.189 -0.16797,-0.042 -0.35344,-0.084 -0.5564,-0.126 -0.20296,-0.042 -0.38143,-0.0769 -0.5354,-0.1049 -0.15397,-0.028 -0.23096,-0.056 -0.23096,-0.084 -0.04199,-0.07 0.0035,-0.105 0.13648,-0.105 0.13297,0 0.30094,0.007 0.50391,0.021 0.20296,0.014 0.38842,0.021 0.55639,0.021 0.16797,0 0.279949,-0.028 0.335939,-0.084 0.05599,-0.056 0.013997,-0.154 -0.125979,-0.2939 -0.11198,-0.112 -0.38493,-0.21 -0.81885,-0.294 -0.11197,-0.056 -0.23095,-0.091 -0.35693,-0.105 -0.12598,-0.014 -0.25195,-0.056 -0.37793,-0.1259 C -2.91634,9.96077 -3.16479,9.86279 -3.35376,9.77881 -3.54272,9.69482 -3.63721,9.59684 -3.63721,9.48486 l 0.12598,-0.12597 c 0.02799,-0.028 0.07699,-0.042 0.14697,-0.042 0.08399,0 0.13998,0.014 0.16797,0.042 0.11198,0.11198 0.19596,0.20996 0.25195,0.29394 0.05599,0.08399 0.11198,0.12598 0.16797,0.12598 0.11198,0 0.21696,-0.028 0.31494,-0.08399 0,-0.22395 -0.06648,-0.40942 -0.19946,-0.55639 C -2.79386,8.99146 -2.94434,8.86198 -3.1123,8.75 -3.28027,8.55404 -3.62321,8.45605 -4.14111,8.45605 c -0.15397,0 -0.30795,0 -0.46192,0 -0.15397,0 -0.30094,0.028 -0.44092,0.08399 -0.23795,0 -0.43391,0.021 -0.58789,0.06299 -0.15397,0.04199 -0.34993,0.06299 -0.58789,0.06299 -0.90983,0 -1.5957,-0.31495 -2.05761,-0.94483 C -8.5293,7.45524 -8.66927,7.1298 -8.69727,6.74487 -8.72526,6.35994 -8.71126,5.96452 -8.65527,5.55859 -8.59928,5.30664 -8.5083,5.12467 -8.38232,5.0127 c 0.12597,-0.11198 0.28344,-0.19947 0.47241,-0.26246 0.18896,-0.06298 0.39892,-0.10148 0.62988,-0.11547 0.23096,-0.014 0.45842,-0.049 0.68237,-0.10498 0.11198,-0.028 0.29045,-0.06299 0.5354,-0.10499 0.24496,-0.04199 0.47592,-0.09098 0.69288,-0.14697 0.21695,-0.05599 0.39542,-0.15047 0.5354,-0.28345 0.13997,-0.13297 0.19596,-0.29744 0.16796,-0.4934 0,-0.16797 -0.06298,-0.23796 -0.18896,-0.20996 C -4.98096,3.31901 -5.15243,3.382 -5.36938,3.47998 -5.58634,3.57796 -5.8453,3.67944 -6.14624,3.78442 -6.44718,3.8894 -6.77262,3.9279 -7.12256,3.8999 -7.51449,3.87191 -7.81893,3.79142 -8.03589,3.65845 -8.25285,3.52547 -8.41732,3.3645 -8.5293,3.17554 -8.64128,2.98657 -8.71476,2.79411 -8.74976,2.59814 -8.78475,2.40218 -8.80225,2.22021 -8.80225,2.05225 c 0.042,-0.34994 0.13998,-0.71737 0.29395,-1.102299 0.15397,-0.384928 0.35343,-0.727864 0.59839,-1.0288084 0.24495,-0.3009436 0.5109,-0.5528976 0.79785,-0.7558596 0.28695,-0.202963 0.58439,-0.304443 0.89233,-0.304443 0.29395,0 0.5389,0.09798 0.73487,0.293945 0.13997,-0.083984 0.13997,-0.181965 0,-0.293945 -0.05599,-0.13997 -0.11198,-0.32544 -0.16797,-0.5564 -0.05599,-0.23095 -0.028,-0.5354 0.08398,-0.91333 0.11198,-0.39192 0.37093,-0.75936 0.77686,-1.10229 0.40592,-0.34294 0.73486,-0.61939 0.98681,-0.82935 0.19597,-0.11198 0.40943,-0.22396 0.64039,-0.33593 0.23095,-0.11198 0.46541,-0.16797 0.70336,-0.16797 0.05599,0 0.11198,0.02799 0.16797,0.08398 0.22396,0.08399 0.36394,0.26245 0.41992,0.5354 0.05599,0.27295 0.07699,0.5599 0.06299,0.86084 -0.01399,0.30095 -0.02799,0.57389 -0.04199,0.81885 -0.014,0.24495 0.04899,0.36743 0.18897,0.36743 0.18196,0 0.30794,-0.07349 0.37793,-0.22046 0.06998,-0.14697 0.09798,-0.32194 0.08398,-0.5249 -0.014,-0.20296 -0.04899,-0.40243 -0.10498,-0.59839 -0.05599,-0.19596 -0.09798,-0.36393 -0.12598,-0.50391 -0.05599,-0.15397 -0.09798,-0.32893 -0.12597,-0.5249 -0.028,-0.19596 0.01399,-0.37093 0.12597,-0.5249 0.08399,-0.27995 0.38493,-0.41992 0.902835,-0.41992 h 0.5039061 C 0.604004,-5.52734 1.12191,-5.2509 1.52783,-4.86597 c 0.40593,0.38493 0.72087,0.76636 0.94483,1.14429 0.05599,0.05599 0.10498,0.12598 0.14697,0.20996 0.04199,0.08399 0.06299,0.16097 0.06299,0.23096 0.08398,0.08398 0.15747,0.19596 0.22046,0.33594 0.06298,0.13997 0.12247,0.25195 0.17846,0.33593 0.22396,0.26595 0.47941,0.46192 0.76636,0.58789 0.28695,0.12598 0.59139,0.24496 0.91333,0.35694 0.13997,0.05599 0.30094,0.10848 0.48291,0.15747 0.18197,0.04899 0.36393,0.10148 0.5459,0.15747 0.08398,0.05599 0.20296,0.13997 0.35693,0.25195 0.15397,0.111981 0.31144,0.255455 0.47241,0.430422 0.16097,0.174967 0.30445,0.37793 0.43042,0.6088867 C 7.17578,0.173096 7.25277,0.428548 7.28076,0.708496 7.43473,2.02425 7.16878,2.78711 6.48291,2.99707 6.35693,2.99707 6.20296,2.97257 6.021,2.92358 5.83903,2.87459 5.69206,2.8501 5.58008,2.8501 5.42611,2.8501 5.25114,2.86759 5.05518,2.90259 4.85921,2.93758 4.65975,2.99007 4.45679,3.06006 4.25382,3.13005 4.08936,3.21403 3.96338,3.31201 3.8374,3.40999 3.78841,3.54297 3.81641,3.71094 3.8444,3.86491 3.92139,3.94889 4.04736,3.96289 c 0.12598,0.014 0.27645,0 0.45142,-0.04199 C 4.67375,3.87891 4.86621,3.81242 5.07617,3.72144 5.28613,3.63045 5.4821,3.55697 5.66406,3.50098 5.97201,3.389 6.24845,3.389 6.49341,3.50098 6.73836,3.61296 6.97282,3.78792 7.19678,4.02588 7.51872,4.33382 7.72168,4.75374 7.80566,5.28564 7.88965,5.81755 7.86165,6.28646 7.72168,6.69238 7.6097,6.94434 7.43823,7.1438 7.20728,7.29077 6.97632,7.43774 6.73486,7.51123 6.48291,7.51123 6.27295,7.51123 6.09098,7.46574 5.93701,7.37476 5.78304,7.28377 5.61507,7.19629 5.43311,7.1123 5.23714,7.00033 5.03768,6.90234 4.83472,6.81836 4.63175,6.73438 4.43229,6.69238 4.23633,6.69238 4.01237,6.69238 3.75692,6.75537 3.46997,6.88135 3.18302,7.00732 2.97656,7.1403 2.85059,7.28027 v 0.23096 c 0,0.13997 0.11897,0.20996 0.35693,0.20996 0.05599,0 0.11898,-0.014 0.18896,-0.04199 C 3.46647,7.6512 3.52946,7.63721 3.58545,7.63721 3.71143,7.58122 3.80241,7.54622 3.8584,7.53223 3.91439,7.51823 3.97038,7.51123 4.02637,7.51123 4.08236,7.6512 4.02287,7.75618 3.8479,7.82617 3.67293,7.89616 3.45947,7.93115 3.20752,7.93115 3.06755,7.93115 2.94857,7.88916 2.85059,7.80518 H 2.2627 C 2.15072,7.74919 2.04224,7.72119 1.93726,7.72119 c -0.10498,0 -0.19947,0 -0.28345,0 H 1.44385 C 1.33187,7.77718 1.28288,7.82617 1.29688,7.86816 c 0.01399,0.042 -0.007,0.09099 -0.06299,0.14698 -0.028,0.05599 0.04199,0.11198 0.20996,0.16797 0.16797,0.05599 0.36043,0.11547 0.57739,0.17846 0.21696,0.06299 0.40942,0.12248 0.57739,0.17847 0.16797,0.05599 0.25196,0.09798 0.25196,0.12598 -0.028,0 -0.13298,-0.021 -0.31495,-0.06299 C 2.35368,8.56104 2.15422,8.51204 1.93726,8.45605 1.7203,8.40007 1.51733,8.34757 1.32837,8.29858 1.1394,8.24959 1.03092,8.2251 1.00293,8.2251 0.94694,8.29508 0.897949,8.33708 0.855957,8.35107 0.813965,8.36507 0.792969,8.42806 0.792969,8.54004 c 0,0.11198 0.020996,0.17497 0.062988,0.18896 C 0.897949,8.743 0.94694,8.77799 1.00293,8.83398 1.07292,8.91797 1.1849,8.98796 1.33887,9.04395 1.49284,9.09993 1.65731,9.15243 1.83228,9.20142 2.00724,9.25041 2.15771,9.2819 2.28369,9.2959 c 0.12598,0.014 0.18897,0.03499 0.18897,0.06299 0,0.02799 -0.06299,0.03499 -0.18897,0.02099 C 2.15771,9.36589 2.01424,9.35189 1.85327,9.33789 1.6923,9.32389 1.54883,9.31689 1.42285,9.31689 c -0.12597,0 -0.18896,0.014 -0.18896,0.042 v 0.20996 c 0.05599,0.13997 0.17496,0.22396 0.35693,0.25195 0.18197,0.028 0.38143,0.04899 0.59839,0.06299 0.21696,0.014 0.41292,0.02799 0.58789,0.04199 0.17497,0.014 0.27645,0.06299 0.30444,0.14702 0,0.0699 -0.07348,0.1049 -0.22046,0.1049 -0.14697,0 -0.29744,-0.007 -0.45141,-0.021 -0.15397,-0.014 -0.30445,-0.021 -0.45142,-0.021 -0.14697,0 -0.22046,0.028 -0.22046,0.084 0.23796,0.252 0.59139,0.4269 1.06031,0.5249 0.46891,0.098 0.94832,0.147 1.43823,0.147 h 0.37793 c 0.48991,-0.056 0.91333,-0.189 1.27026,-0.3989 0.35694,-0.21 0.72437,-0.4479 1.1023,-0.71389 C 7.30876,9.55485 7.6062,9.37638 7.87915,9.24341 8.1521,9.11043 8.44255,9.01595 8.75049,8.95996 8.80648,8.90397 8.87646,8.86898 8.96045,8.85498 c 0.08398,-0.014 0.16097,-0.021 0.23096,-0.021 M -0.403809,-9.70557 c 1.917639,0 3.730309,0.37443 5.437989,1.12329 1.70768,0.74887 3.2054,1.76718 4.49316,3.05494 1.28776,1.28776 2.30606,2.79948 3.05496,4.535152 0.7488,1.735678 1.1233,3.576338 1.1233,5.521978 0,1.95963 -0.3745,3.79679 -1.1233,5.51151 -0.7489,1.7146 -1.7672,3.2124 -3.05496,4.4931 -1.28776,1.2808 -2.78548,2.2851 -4.49316,3.013 -1.70768,0.7278 -3.52035,1.0918 -5.437989,1.0918 -1.973631,0 -3.821291,-0.364 -5.542971,-1.0918 -1.72168,-0.7279 -3.2299,-1.7322 -4.52462,-3.013 -1.2948,-1.2807 -2.3131,-2.7785 -3.055,-4.4931 -0.7418,-1.71472 -1.1128,-3.55188 -1.1128,-5.51151 0,-1.94564 0.371,-3.7863 1.1128,-5.521978 0.7419,-1.735672 1.7602,-3.247392 3.055,-4.535152 1.29472,-1.28776 2.80294,-2.30607 4.52462,-3.05494 1.72168,-0.74886 3.56934,-1.12329 5.542971,-1.12329 m 0,27.31597 c 1.805669,0 3.495849,-0.343 5.070559,-1.0289 1.57471,-0.6858 2.95695,-1.6167 4.14673,-2.7924 1.18982,-1.1758 2.12762,-2.5616 2.81352,-4.15726 0.6858,-1.59571 1.0288,-3.29639 1.0288,-5.10205 0,-1.83366 -0.343,-3.551844 -1.0288,-5.154546 C 10.9411,-2.22746 10.0033,-3.6237 8.81348,-4.81348 7.6237,-6.00326 6.24146,-6.94108 4.66675,-7.62695 3.09204,-8.31283 1.40186,-8.65576 -0.403809,-8.65576 c -1.833661,0 -3.555341,0.34293 -5.165041,1.02881 -1.6097,0.68587 -3.00944,1.62369 -4.19922,2.81347 -1.18973,1.18978 -2.12763,2.58602 -2.81343,4.188724 -0.6859,1.602702 -1.0289,3.320886 -1.0289,5.154546 0,1.80566 0.343,3.50634 1.0289,5.10205 0.6858,1.59566 1.6237,2.98146 2.81343,4.15726 1.18978,1.1757 2.58952,2.1066 4.19922,2.7924 1.6097,0.6859 3.33138,1.0289 5.165041,1.0289"
         fill-rule="evenodd"
         vector-effect="none" />
    </g>
    <g
       id="g16"
       font-style="normal"
       font-weight="400"
       font-size="7.8px"
       font-family="'MS Shell Dlg 2'"
       stroke="none"
       fill-opacity="1"
       fill="#b75800" />
  </g>
</svg>
