<svg xmlns="http://www.w3.org/2000/svg" version="1.2" viewBox="0 0 42.52 42.52" height="56.693" width="56.693">
   <g stroke-linejoin="bevel" stroke-linecap="square" fill-rule="evenodd" stroke="none" fill="none" font-weight="400"
      font-size="7.8" font-family="'MS Shell Dlg 2'">
      <path
         d="M42.52 21.26C42.52 33 33 42.52 21.26 42.52 9.518 42.52 0 33 0 21.26 0 9.518 9.518 0 21.26 0 33 0 42.52 9.518 42.52 21.26"
         vector-effect="non-scaling-stroke" fill="#b75800" />
      <path
         d="M30.451 26.267c.196 0 .396.042.599.126.203.084.402.189.598.315a11.98 11.98 0 01-4.388 5.081c-1.946 1.274-4.122 1.91-6.53 1.91a11.54 11.54 0 01-6.005-1.648c-1.847-1.098-3.29-2.614-4.325-4.545.168-.112.388-.19.661-.231.273-.042.57-.063.893-.063h.577c.161 0 .312.028.452.084.433.182.773.37 1.018.567.245.196.493.427.745.693.112.112.228.217.347.315.119.098.248.203.388.314.252.21.486.371.703.483.217.112.424.224.62.336.238.056.5.109.787.158.287.049.585.073.892.073h.315c.056 0 .112-.049.168-.147a9.807 9.807 0 01-.315-.084l-.168-.084c-.056-.028-.056-.042 0-.042 0-.028.133-.014.4.042l.42.084c.111 0 .167-.042.167-.126.238-.084.357-.182.357-.294-.182 0-.329-.014-.44-.042-.253-.056-.35-.112-.295-.168.056-.07.228-.087.515-.052.287.035.458.052.514.052a.717.717 0 01.147-.147c.042-.028.091-.111.147-.251-.028-.084-.126-.147-.294-.19a14.011 14.011 0 00-.556-.125 22.86 22.86 0 00-.536-.105c-.154-.028-.23-.056-.23-.084-.043-.07.003-.105.136-.105s.3.007.504.02c.203.015.388.022.556.022.168 0 .28-.028.336-.084.056-.056.014-.154-.126-.294-.112-.112-.385-.21-.819-.294a1.051 1.051 0 00-.357-.105 1.006 1.006 0 01-.378-.126c-.307-.112-.556-.21-.745-.294-.189-.084-.283-.182-.283-.294l.126-.126c.028-.028.077-.042.147-.042.084 0 .14.014.168.042.112.112.196.21.252.294.055.084.111.126.167.126a.625.625 0 00.315-.084.798.798 0 00-.199-.557 2.405 2.405 0 00-.451-.388c-.168-.196-.511-.294-1.03-.294h-.461c-.154 0-.301.028-.441.084-.238 0-.434.021-.588.063-.154.042-.35.063-.588.063-.91 0-1.596-.315-2.057-.945a1.537 1.537 0 01-.42-.976 5.66 5.66 0 01.042-1.186c.056-.252.147-.434.273-.546.125-.112.283-.2.472-.263s.399-.101.63-.115c.23-.014.458-.05.682-.105.112-.028.29-.063.536-.105.245-.042.476-.091.692-.147.217-.056.396-.15.536-.284a.539.539 0 00.168-.493c0-.168-.063-.238-.19-.21a2.857 2.857 0 00-.514.189c-.216.098-.475.2-.776.304-.301.105-.627.144-.977.116-.392-.028-.696-.109-.913-.242a1.42 1.42 0 01-.493-.482 1.724 1.724 0 01-.22-.578 3.119 3.119 0 01-.053-.546c.042-.35.14-.717.294-1.102a4.042 4.042 0 011.396-1.785c.287-.203.584-.304.892-.304.294 0 .539.098.735.294.14-.084.14-.182 0-.294a4.233 4.233 0 01-.168-.557c-.056-.23-.028-.535.084-.913.112-.392.37-.76.777-1.102.406-.343.735-.62.987-.83.196-.111.41-.223.64-.335.231-.112.465-.168.703-.168.056 0 .112.028.168.084.224.084.364.262.42.535.056.273.077.56.063.86-.014.302-.028.575-.042.82-.014.245.05.367.19.367.181 0 .307-.073.377-.22a1.04 1.04 0 00.084-.525 2.898 2.898 0 00-.105-.599 6.575 6.575 0 01-.126-.504 2.624 2.624 0 01-.126-.524.693.693 0 01.126-.525c.084-.28.385-.42.903-.42h.504c.63.168 1.148.444 1.554.83.406.384.72.765.945 1.143a.8.8 0 01.146.21.523.523 0 01.063.231c.084.084.158.196.22.336.064.14.123.252.18.336.223.266.479.462.766.588.287.126.591.245.913.357.14.056.301.108.483.157a16 16 0 01.546.158c.084.056.203.14.357.252a3.251 3.251 0 01.903 1.04c.126.23.203.486.23.766.155 1.315-.111 2.078-.797 2.288a1.83 1.83 0 01-.462-.073 1.786 1.786 0 00-.441-.074 3.02 3.02 0 00-.525.053 3.984 3.984 0 00-.598.157c-.203.07-.368.154-.494.252a.389.389 0 00-.147.399c.028.154.105.238.231.252.126.014.277 0 .452-.042a3.56 3.56 0 00.577-.2 5.72 5.72 0 01.588-.22c.308-.112.584-.112.83 0 .244.112.479.287.703.525.322.308.525.728.609 1.26.083.532.055 1-.084 1.406a1.338 1.338 0 01-.515.599 1.33 1.33 0 01-.724.22c-.21 0-.392-.045-.546-.136a5.621 5.621 0 00-.504-.263 5.258 5.258 0 00-.598-.294 1.558 1.558 0 00-.599-.126c-.224 0-.48.063-.766.19-.287.125-.494.258-.62.398v.231c0 .14.12.21.357.21a.516.516 0 00.19-.042.516.516 0 01.188-.042c.126-.056.217-.09.273-.105a.69.69 0 01.168-.02c.056.14-.003.244-.178.314s-.389.105-.64.105a.53.53 0 01-.358-.126h-.587a.726.726 0 00-.326-.084h-.493c-.112.056-.161.105-.147.147.014.042-.007.091-.063.147-.028.056.042.112.21.168.168.056.36.116.577.179.217.063.41.122.577.178.168.056.252.098.252.126-.028 0-.133-.02-.315-.063a24.07 24.07 0 01-.598-.147l-.609-.157a2.584 2.584 0 00-.325-.074c-.056.07-.105.112-.147.126-.042.014-.063.077-.063.19 0 .111.02.174.063.188a.414.414 0 01.147.105.77.77 0 00.336.21c.154.056.318.108.493.157.175.05.326.08.452.095.126.014.189.035.189.063 0 .028-.063.035-.19.02-.125-.013-.269-.027-.43-.041a5.024 5.024 0 00-.43-.021c-.126 0-.19.014-.19.042v.21c.057.14.176.224.358.252.182.028.381.049.598.063.217.014.413.028.588.042.175.014.276.063.304.147 0 .07-.073.105-.22.105-.147 0-.298-.007-.451-.021a4.985 4.985 0 00-.452-.021c-.147 0-.22.028-.22.084.238.252.591.427 1.06.525.469.098.948.147 1.438.147h.378c.49-.056.913-.19 1.27-.4.357-.21.725-.447 1.103-.713.322-.224.619-.403.892-.536s.563-.227.871-.283a.376.376 0 01.21-.105c.084-.014.161-.021.231-.021m-9.595-18.54c1.918 0 3.73.375 5.438 1.124a14.561 14.561 0 014.493 3.055 14.426 14.426 0 013.055 4.535 13.791 13.791 0 011.123 5.522c0 1.96-.374 3.797-1.123 5.511a14.398 14.398 0 01-3.055 4.493 14.205 14.205 0 01-4.493 3.013 13.725 13.725 0 01-5.438 1.092c-1.974 0-3.821-.364-5.543-1.092a14.265 14.265 0 01-4.525-3.013 14.165 14.165 0 01-3.055-4.493c-.741-1.714-1.112-3.552-1.112-5.511 0-1.946.37-3.786 1.112-5.522a14.193 14.193 0 013.055-4.535 14.62 14.62 0 014.525-3.055c1.722-.75 3.57-1.124 5.543-1.124m0 27.316c1.806 0 3.496-.343 5.07-1.028a13.523 13.523 0 004.147-2.793 12.991 12.991 0 002.814-4.157c.686-1.596 1.029-3.297 1.029-5.102 0-1.834-.343-3.552-1.03-5.155a13.207 13.207 0 00-2.813-4.188 13.34 13.34 0 00-4.146-2.814c-1.575-.686-3.265-1.029-5.071-1.029-1.834 0-3.555.343-5.165 1.03a13.176 13.176 0 00-4.2 2.813 13.206 13.206 0 00-2.813 4.188c-.686 1.603-1.029 3.321-1.029 5.155 0 1.805.343 3.506 1.03 5.102a12.99 12.99 0 002.813 4.157 13.354 13.354 0 004.199 2.793c1.61.685 3.331 1.028 5.165 1.028"
         fill-opacity=".949" fill="#fff" />
   </g>
</svg>