<?xml version="1.0" encoding="UTF-8" standalone="no"?>
<svg width="11.25008mm" height="11.25008mm"
 viewBox="-5.3 -5.3 42.52000 42.52000"
 xmlns="http://www.w3.org/2000/svg" xmlns:xlink="http://www.w3.org/1999/xlink"  version="1.2" baseProfile="tiny">
<title>Qt SVG Document</title>
<desc>Generated with Qt</desc>
<defs>
</defs>
<g fill="none" stroke="black" stroke-width="1" fill-rule="evenodd" stroke-linecap="square" stroke-linejoin="bevel" >

<g fill="#b75800" fill-opacity="1" stroke="none" transform="matrix(1,0,0,1,0,0)"
font-family="MS Shell Dlg 2" font-size="7.8" font-weight="400" font-style="normal" 
>
<path vector-effect="non-scaling-stroke" fill-rule="evenodd" d="M37.2598,16 C37.2598,27.7415 27.7415,37.2598 16,37.2598 C4.25851,37.2598 -5.25984,27.7415 -5.25984,16 C-5.25984,4.25851 4.25851,-5.25984 16,-5.25984 C27.7415,-5.25984 37.2598,4.25851 37.2598,16 "/>
</g>

<g fill="#ffffff" fill-opacity="0.94902" stroke="none" transform="matrix(1,0,0,1,16,12.1732)"
font-family="MS Shell Dlg 2" font-size="7.8" font-weight="400" font-style="normal" 
>
<path vector-effect="none" fill-rule="evenodd" d="M9.19141,8.83398 C9.38737,8.83398 9.58683,8.87598 9.78979,8.95996 C9.99276,9.04395 10.1922,9.14893 10.3882,9.2749 C9.40837,11.3885 7.94564,13.0822 6,14.356 C4.05436,15.6297 1.87777,16.2666 -0.529785,16.2666 C-2.68538,16.2666 -4.68701,15.7172 -6.53467,14.6184 C-8.38232,13.5196 -9.82406,12.0044 -10.8599,10.0728 C-10.6919,9.96077 -10.4714,9.88379 -10.1985,9.8418 C-9.92554,9.7998 -9.62809,9.77881 -9.30615,9.77881 C-9.08219,9.77881 -8.88973,9.77881 -8.72876,9.77881 C-8.56779,9.77881 -8.41732,9.8068 -8.27734,9.86279 C-7.84342,10.0448 -7.50399,10.2337 -7.25903,10.4297 C-7.01408,10.6257 -6.76563,10.8566 -6.51367,11.1226 C-6.40169,11.2345 -6.28621,11.3395 -6.16724,11.4375 C-6.04826,11.5355 -5.91878,11.6405 -5.77881,11.7524 C-5.52686,11.9624 -5.2924,12.1234 -5.07544,12.2354 C-4.85848,12.3473 -4.65202,12.4593 -4.45605,12.5713 C-4.2181,12.6273 -3.95565,12.6798 -3.6687,12.7288 C-3.38175,12.7778 -3.08431,12.8022 -2.77637,12.8022 L-2.46143,12.8022 C-2.40544,12.8022 -2.34945,12.7533 -2.29346,12.6553 C-2.40544,12.6273 -2.51042,12.5993 -2.6084,12.5713 C-2.66439,12.5433 -2.72038,12.5153 -2.77637,12.4873 C-2.83236,12.4593 -2.83236,12.4453 -2.77637,12.4453 C-2.77637,12.4173 -2.64339,12.4313 -2.37744,12.4873 L-1.95752,12.5713 C-1.84554,12.5713 -1.78955,12.5293 -1.78955,12.4453 C-1.5516,12.3613 -1.43262,12.2633 -1.43262,12.1514 C-1.61458,12.1514 -1.76156,12.1374 -1.87354,12.1094 C-2.12549,12.0534 -2.22347,11.9974 -2.16748,11.9414 C-2.11149,11.8714 -1.94002,11.8539 -1.65308,11.8889 C-1.36613,11.9239 -1.19466,11.9414 -1.13867,11.9414 C-1.08268,11.8714 -1.03369,11.8224 -0.991699,11.7944 C-0.949707,11.7664 -0.900716,11.6825 -0.844727,11.5425 C-0.872721,11.4585 -0.970703,11.3955 -1.13867,11.3535 C-1.30664,11.3115 -1.49211,11.2695 -1.69507,11.2275 C-1.89803,11.1855 -2.0765,11.1506 -2.23047,11.1226 C-2.38444,11.0946 -2.46143,11.0666 -2.46143,11.0386 C-2.50342,10.9686 -2.45793,10.9336 -2.32495,10.9336 C-2.19198,10.9336 -2.02401,10.9406 -1.82104,10.9546 C-1.61808,10.9686 -1.43262,10.9756 -1.26465,10.9756 C-1.09668,10.9756 -0.984701,10.9476 -0.928711,10.8916 C-0.872721,10.8356 -0.914714,10.7376 -1.05469,10.5977 C-1.16667,10.4857 -1.43962,10.3877 -1.87354,10.3037 C-1.98551,10.2477 -2.10449,10.2127 -2.23047,10.1987 C-2.35645,10.1847 -2.48242,10.1427 -2.6084,10.0728 C-2.91634,9.96077 -3.16479,9.86279 -3.35376,9.77881 C-3.54272,9.69482 -3.63721,9.59684 -3.63721,9.48486 L-3.51123,9.35889 C-3.48324,9.33089 -3.43424,9.31689 -3.36426,9.31689 C-3.28027,9.31689 -3.22428,9.33089 -3.19629,9.35889 C-3.08431,9.47087 -3.00033,9.56885 -2.94434,9.65283 C-2.88835,9.73682 -2.83236,9.77881 -2.77637,9.77881 C-2.66439,9.77881 -2.55941,9.75081 -2.46143,9.69482 C-2.46143,9.47087 -2.52791,9.2854 -2.66089,9.13843 C-2.79386,8.99146 -2.94434,8.86198 -3.1123,8.75 C-3.28027,8.55404 -3.62321,8.45605 -4.14111,8.45605 C-4.29508,8.45605 -4.44906,8.45605 -4.60303,8.45605 C-4.757,8.45605 -4.90397,8.48405 -5.04395,8.54004 C-5.2819,8.54004 -5.47786,8.56104 -5.63184,8.60303 C-5.78581,8.64502 -5.98177,8.66602 -6.21973,8.66602 C-7.12956,8.66602 -7.81543,8.35107 -8.27734,7.72119 C-8.5293,7.45524 -8.66927,7.1298 -8.69727,6.74487 C-8.72526,6.35994 -8.71126,5.96452 -8.65527,5.55859 C-8.59928,5.30664 -8.5083,5.12467 -8.38232,5.0127 C-8.25635,4.90072 -8.09888,4.81323 -7.90991,4.75024 C-7.72095,4.68726 -7.51099,4.64876 -7.28003,4.63477 C-7.04907,4.62077 -6.82161,4.58577 -6.59766,4.52979 C-6.48568,4.50179 -6.30721,4.4668 -6.06226,4.4248 C-5.8173,4.38281 -5.58634,4.33382 -5.36938,4.27783 C-5.15243,4.22184 -4.97396,4.12736 -4.83398,3.99438 C-4.69401,3.86141 -4.63802,3.69694 -4.66602,3.50098 C-4.66602,3.33301 -4.729,3.26302 -4.85498,3.29102 C-4.98096,3.31901 -5.15243,3.382 -5.36938,3.47998 C-5.58634,3.57796 -5.8453,3.67944 -6.14624,3.78442 C-6.44718,3.8894 -6.77262,3.9279 -7.12256,3.8999 C-7.51449,3.87191 -7.81893,3.79142 -8.03589,3.65845 C-8.25285,3.52547 -8.41732,3.3645 -8.5293,3.17554 C-8.64128,2.98657 -8.71476,2.79411 -8.74976,2.59814 C-8.78475,2.40218 -8.80225,2.22021 -8.80225,2.05225 C-8.76025,1.70231 -8.66227,1.33488 -8.5083,0.949951 C-8.35433,0.565023 -8.15487,0.222087 -7.90991,-0.0788574 C-7.66496,-0.379801 -7.39901,-0.631755 -7.11206,-0.834717 C-6.82511,-1.03768 -6.52767,-1.13916 -6.21973,-1.13916 C-5.92578,-1.13916 -5.68083,-1.04118 -5.48486,-0.845215 C-5.34489,-0.929199 -5.34489,-1.02718 -5.48486,-1.13916 C-5.54085,-1.27913 -5.59684,-1.4646 -5.65283,-1.69556 C-5.70882,-1.92651 -5.68083,-2.23096 -5.56885,-2.60889 C-5.45687,-3.00081 -5.19792,-3.36825 -4.79199,-3.71118 C-4.38607,-4.05412 -4.05713,-4.33057 -3.80518,-4.54053 C-3.60921,-4.65251 -3.39575,-4.76449 -3.16479,-4.87646 C-2.93384,-4.98844 -2.69938,-5.04443 -2.46143,-5.04443 C-2.40544,-5.04443 -2.34945,-5.01644 -2.29346,-4.96045 C-2.0695,-4.87646 -1.92952,-4.698 -1.87354,-4.42505 C-1.81755,-4.1521 -1.79655,-3.86515 -1.81055,-3.56421 C-1.82454,-3.26326 -1.83854,-2.99032 -1.85254,-2.74536 C-1.86654,-2.50041 -1.80355,-2.37793 -1.66357,-2.37793 C-1.48161,-2.37793 -1.35563,-2.45142 -1.28564,-2.59839 C-1.21566,-2.74536 -1.18766,-2.92033 -1.20166,-3.12329 C-1.21566,-3.32625 -1.25065,-3.52572 -1.30664,-3.72168 C-1.36263,-3.91764 -1.40462,-4.08561 -1.43262,-4.22559 C-1.48861,-4.37956 -1.5306,-4.55452 -1.55859,-4.75049 C-1.58659,-4.94645 -1.5446,-5.12142 -1.43262,-5.27539 C-1.34863,-5.55534 -1.04769,-5.69531 -0.529785,-5.69531 L-0.0258789,-5.69531 C0.604004,-5.52734 1.12191,-5.2509 1.52783,-4.86597 C1.93376,-4.48104 2.2487,-4.09961 2.47266,-3.72168 C2.52865,-3.66569 2.57764,-3.5957 2.61963,-3.51172 C2.66162,-3.42773 2.68262,-3.35075 2.68262,-3.28076 C2.7666,-3.19678 2.84009,-3.0848 2.90308,-2.94482 C2.96606,-2.80485 3.02555,-2.69287 3.08154,-2.60889 C3.3055,-2.34294 3.56095,-2.14697 3.8479,-2.021 C4.13485,-1.89502 4.43929,-1.77604 4.76123,-1.66406 C4.9012,-1.60807 5.06217,-1.55558 5.24414,-1.50659 C5.42611,-1.4576 5.60807,-1.40511 5.79004,-1.34912 C5.87402,-1.29313 5.993,-1.20915 6.14697,-1.09717 C6.30094,-0.985189 6.45841,-0.841715 6.61938,-0.666748 C6.78035,-0.491781 6.92383,-0.288818 7.0498,-0.0578613 C7.17578,0.173096 7.25277,0.428548 7.28076,0.708496 C7.43473,2.02425 7.16878,2.78711 6.48291,2.99707 C6.35693,2.99707 6.20296,2.97257 6.021,2.92358 C5.83903,2.87459 5.69206,2.8501 5.58008,2.8501 C5.42611,2.8501 5.25114,2.86759 5.05518,2.90259 C4.85921,2.93758 4.65975,2.99007 4.45679,3.06006 C4.25382,3.13005 4.08936,3.21403 3.96338,3.31201 C3.8374,3.40999 3.78841,3.54297 3.81641,3.71094 C3.8444,3.86491 3.92139,3.94889 4.04736,3.96289 C4.17334,3.97689 4.32381,3.96289 4.49878,3.9209 C4.67375,3.87891 4.86621,3.81242 5.07617,3.72144 C5.28613,3.63045 5.4821,3.55697 5.66406,3.50098 C5.97201,3.389 6.24845,3.389 6.49341,3.50098 C6.73836,3.61296 6.97282,3.78792 7.19678,4.02588 C7.51872,4.33382 7.72168,4.75374 7.80566,5.28564 C7.88965,5.81755 7.86165,6.28646 7.72168,6.69238 C7.6097,6.94434 7.43823,7.1438 7.20728,7.29077 C6.97632,7.43774 6.73486,7.51123 6.48291,7.51123 C6.27295,7.51123 6.09098,7.46574 5.93701,7.37476 C5.78304,7.28377 5.61507,7.19629 5.43311,7.1123 C5.23714,7.00033 5.03768,6.90234 4.83472,6.81836 C4.63175,6.73438 4.43229,6.69238 4.23633,6.69238 C4.01237,6.69238 3.75692,6.75537 3.46997,6.88135 C3.18302,7.00732 2.97656,7.1403 2.85059,7.28027 L2.85059,7.51123 C2.85059,7.6512 2.96956,7.72119 3.20752,7.72119 C3.26351,7.72119 3.3265,7.70719 3.39648,7.6792 C3.46647,7.6512 3.52946,7.63721 3.58545,7.63721 C3.71143,7.58122 3.80241,7.54622 3.8584,7.53223 C3.91439,7.51823 3.97038,7.51123 4.02637,7.51123 C4.08236,7.6512 4.02287,7.75618 3.8479,7.82617 C3.67293,7.89616 3.45947,7.93115 3.20752,7.93115 C3.06755,7.93115 2.94857,7.88916 2.85059,7.80518 L2.2627,7.80518 C2.15072,7.74919 2.04224,7.72119 1.93726,7.72119 C1.83228,7.72119 1.73779,7.72119 1.65381,7.72119 L1.44385,7.72119 C1.33187,7.77718 1.28288,7.82617 1.29688,7.86816 C1.31087,7.91016 1.28988,7.95915 1.23389,8.01514 C1.20589,8.07113 1.27588,8.12712 1.44385,8.18311 C1.61182,8.2391 1.80428,8.29858 2.02124,8.36157 C2.2382,8.42456 2.43066,8.48405 2.59863,8.54004 C2.7666,8.59603 2.85059,8.63802 2.85059,8.66602 C2.82259,8.66602 2.71761,8.64502 2.53564,8.60303 C2.35368,8.56104 2.15422,8.51204 1.93726,8.45605 C1.7203,8.40007 1.51733,8.34757 1.32837,8.29858 C1.1394,8.24959 1.03092,8.2251 1.00293,8.2251 C0.94694,8.29508 0.897949,8.33708 0.855957,8.35107 C0.813965,8.36507 0.792969,8.42806 0.792969,8.54004 C0.792969,8.65202 0.813965,8.71501 0.855957,8.729 C0.897949,8.743 0.94694,8.77799 1.00293,8.83398 C1.07292,8.91797 1.1849,8.98796 1.33887,9.04395 C1.49284,9.09993 1.65731,9.15243 1.83228,9.20142 C2.00724,9.25041 2.15771,9.2819 2.28369,9.2959 C2.40967,9.3099 2.47266,9.33089 2.47266,9.35889 C2.47266,9.38688 2.40967,9.39388 2.28369,9.37988 C2.15771,9.36589 2.01424,9.35189 1.85327,9.33789 C1.6923,9.32389 1.54883,9.31689 1.42285,9.31689 C1.29688,9.31689 1.23389,9.33089 1.23389,9.35889 L1.23389,9.56885 C1.28988,9.70882 1.40885,9.79281 1.59082,9.8208 C1.77279,9.8488 1.97225,9.86979 2.18921,9.88379 C2.40617,9.89779 2.60213,9.91178 2.7771,9.92578 C2.95207,9.93978 3.05355,9.98877 3.08154,10.0728 C3.08154,10.1427 3.00806,10.1777 2.86108,10.1777 C2.71411,10.1777 2.56364,10.1707 2.40967,10.1567 C2.2557,10.1427 2.10522,10.1357 1.95825,10.1357 C1.81128,10.1357 1.73779,10.1637 1.73779,10.2197 C1.97575,10.4717 2.32918,10.6466 2.7981,10.7446 C3.26701,10.8426 3.74642,10.8916 4.23633,10.8916 L4.61426,10.8916 C5.10417,10.8356 5.52759,10.7026 5.88452,10.4927 C6.24146,10.2827 6.60889,10.0448 6.98682,9.77881 C7.30876,9.55485 7.6062,9.37638 7.87915,9.24341 C8.1521,9.11043 8.44255,9.01595 8.75049,8.95996 C8.80648,8.90397 8.87646,8.86898 8.96045,8.85498 C9.04443,8.84098 9.12142,8.83398 9.19141,8.83398 M-0.403809,-9.70557 C1.51383,-9.70557 3.3265,-9.33114 5.03418,-8.58228 C6.74186,-7.83341 8.23958,-6.8151 9.52734,-5.52734 C10.8151,-4.23958 11.8334,-2.72786 12.5823,-0.992188 C13.3311,0.74349 13.7056,2.58415 13.7056,4.52979 C13.7056,6.48942 13.3311,8.32658 12.5823,10.0413 C11.8334,11.7559 10.8151,13.2537 9.52734,14.5344 C8.23958,15.8152 6.74186,16.8195 5.03418,17.5474 C3.3265,18.2752 1.51383,18.6392 -0.403809,18.6392 C-2.37744,18.6392 -4.2251,18.2752 -5.94678,17.5474 C-7.66846,16.8195 -9.17668,15.8152 -10.4714,14.5344 C-11.7662,13.2537 -12.7845,11.7559 -13.5264,10.0413 C-14.2682,8.32658 -14.6392,6.48942 -14.6392,4.52979 C-14.6392,2.58415 -14.2682,0.74349 -13.5264,-0.992188 C-12.7845,-2.72786 -11.7662,-4.23958 -10.4714,-5.52734 C-9.17668,-6.8151 -7.66846,-7.83341 -5.94678,-8.58228 C-4.2251,-9.33114 -2.37744,-9.70557 -0.403809,-9.70557 M-0.403809,17.6104 C1.40186,17.6104 3.09204,17.2674 4.66675,16.5815 C6.24146,15.8957 7.6237,14.9648 8.81348,13.7891 C10.0033,12.6133 10.9411,11.2275 11.627,9.63184 C12.3128,8.03613 12.6558,6.33545 12.6558,4.52979 C12.6558,2.69613 12.3128,0.977946 11.627,-0.624756 C10.9411,-2.22746 10.0033,-3.6237 8.81348,-4.81348 C7.6237,-6.00326 6.24146,-6.94108 4.66675,-7.62695 C3.09204,-8.31283 1.40186,-8.65576 -0.403809,-8.65576 C-2.23747,-8.65576 -3.95915,-8.31283 -5.56885,-7.62695 C-7.17855,-6.94108 -8.57829,-6.00326 -9.76807,-4.81348 C-10.9578,-3.6237 -11.8957,-2.22746 -12.5815,-0.624756 C-13.2674,0.977946 -13.6104,2.69613 -13.6104,4.52979 C-13.6104,6.33545 -13.2674,8.03613 -12.5815,9.63184 C-11.8957,11.2275 -10.9578,12.6133 -9.76807,13.7891 C-8.57829,14.9648 -7.17855,15.8957 -5.56885,16.5815 C-3.95915,17.2674 -2.23747,17.6104 -0.403809,17.6104 "/>
</g>

<g fill="#b75800" fill-opacity="1" stroke="none" transform="matrix(1,0,0,1,0,0)"
font-family="MS Shell Dlg 2" font-size="7.8" font-weight="400" font-style="normal" 
>
</g>
</g>
</svg>
