<?xml version="1.0" encoding="UTF-8" standalone="no"?>
<svg
   xmlns:dc="http://purl.org/dc/elements/1.1/"
   xmlns:cc="http://creativecommons.org/ns#"
   xmlns:rdf="http://www.w3.org/1999/02/22-rdf-syntax-ns#"
   xmlns:svg="http://www.w3.org/2000/svg"
   xmlns="http://www.w3.org/2000/svg"
   xmlns:sodipodi="http://sodipodi.sourceforge.net/DTD/sodipodi-0.dtd"
   xmlns:inkscape="http://www.inkscape.org/namespaces/inkscape"
   inkscape:version="1.0 (4035a4fb49, 2020-05-01)"
   sodipodi:docname="1726.svg"
   id="svg20"
   version="1.2"
   viewBox="0 0 42.519639 42.519639"
   height="14.999999mm"
   width="14.999999mm">
  <metadata
     id="metadata24">
    <rdf:RDF>
      <cc:Work
         rdf:about="">
        <dc:format>image/svg+xml</dc:format>
        <dc:type
           rdf:resource="http://purl.org/dc/dcmitype/StillImage" />
        <dc:title>Qt SVG Document</dc:title>
      </cc:Work>
    </rdf:RDF>
  </metadata>
  <sodipodi:namedview
     inkscape:current-layer="svg20"
     inkscape:window-maximized="0"
     inkscape:window-y="0"
     inkscape:window-x="0"
     inkscape:cy="28.346482"
     inkscape:cx="28.346482"
     inkscape:zoom="5.8410537"
     showgrid="false"
     id="namedview22"
     inkscape:window-height="480"
     inkscape:window-width="1034"
     inkscape:pageshadow="2"
     inkscape:pageopacity="0"
     guidetolerance="10"
     gridtolerance="10"
     objecttolerance="10"
     borderopacity="1"
     bordercolor="#666666"
     pagecolor="#ffffff" />
  <title
     id="title2">Qt SVG Document</title>
  <desc
     id="desc4">Generated with Qt</desc>
  <defs
     id="defs6" />
  <g
     transform="translate(5.25984,5.25984)"
     id="g18"
     stroke-linejoin="bevel"
     stroke-linecap="square"
     fill-rule="evenodd"
     stroke-width="1"
     stroke="#000000"
     fill="none">
    <g
       id="g10"
       font-style="normal"
       font-weight="400"
       font-size="7.8px"
       font-family="'MS Shell Dlg 2'"
       stroke="none"
       fill-opacity="1"
       fill="#ef4b65">
      <path
         id="path8"
         d="M 37.2598,16 C 37.2598,27.7415 27.7415,37.2598 16,37.2598 4.25851,37.2598 -5.25984,27.7415 -5.25984,16 -5.25984,4.25851 4.25851,-5.25984 16,-5.25984 27.7415,-5.25984 37.2598,4.25851 37.2598,16"
         fill-rule="evenodd"
         vector-effect="non-scaling-stroke" />
    </g>
    <g
       id="g14"
       font-style="normal"
       font-weight="400"
       font-size="7.8px"
       font-family="'MS Shell Dlg 2'"
       transform="translate(16,14.8661)"
       stroke="none"
       fill-opacity="1"
       fill="#ffffff">
      <path
         id="path12"
         d="m 4.8623,-3.38574 c 0,0.97982 -0.25895,1.85815 -0.77685,2.635008 C 3.56755,0.026123 2.89567,0.596517 2.06982,0.960449 H 2.1958 C 2.36377,1.85628 2.37777,2.60514 2.23779,3.20703 2.09782,3.80892 1.87736,4.32332 1.57642,4.75024 1.27547,5.17716 0.925537,5.5411 0.526611,5.84204 0.127686,6.14299 -0.260742,6.42993 -0.638672,6.70288 -1.0166,6.97583 -1.32454,7.26278 -1.5625,7.56372 c -0.23796,0.30094 -0.35693,0.66838 -0.35693,1.1023 0,0.30794 0.05599,0.58439 0.16797,0.82934 0.11197,0.24496 0.25545,0.47591 0.43042,0.69284 0.17496,0.217 0.353429,0.4479 0.535395,0.6929 0.181967,0.245 0.342937,0.5074 0.482911,0.7874 0.3219397,0.6298 0.461914,1.4172 0.419922,2.362 -0.0419927,0.9448 -0.405925,1.9771 -1.091797,3.0969 0.419921,-1.2037 0.524902,-2.25 0.314941,-3.1389 C -0.869629,13.0997 -1.19157,12.3263 -1.62549,11.6685 -2.05941,11.0106 -2.49683,10.4402 -2.93774,9.95728 -3.37866,9.47437 -3.59912,9.05794 -3.59912,8.70801 -3.62712,8.1901 -3.59212,7.75968 -3.49414,7.41675 -3.39616,7.07381 -3.25968,6.77987 -3.08472,6.53491 -2.90975,6.28996 -2.71729,6.073 -2.50732,5.88403 -2.29736,5.69507 -2.0874,5.5166 -1.87744,5.34863 -1.5415,5.04069 -1.23706,4.75024 -0.964111,4.47729 -0.691162,4.20435 -0.526693,3.9034 -0.470703,3.57446 -0.414714,3.24552 -0.498698,2.87109 -0.722656,2.45117 -0.946615,2.03125 -1.39453,1.53434 -2.06641,0.960449 c 0,-0.027995 -0.00699,-0.041992 -0.02099,-0.041992 -0.014,0 -0.021,-0.013997 -0.021,-0.041992 -0.76986,-0.391927 -1.39974,-0.9693198 -1.88965,-1.732178 -0.48991,-0.762857 -0.73486,-1.606197 -0.73486,-2.530027 0,-0.65788 0.12948,-1.28076 0.38843,-1.86865 0.25895,-0.5879 0.60538,-1.0953 1.0393,-1.52222 0.43392,-0.42692 0.93783,-0.76286 1.51172,-1.00781 0.5739,-0.24496 1.189782,-0.36744 1.8476592,-0.36744 0.6578778,0 1.2807608,0.12248 1.8686508,0.36744 0.58789,0.24495 1.0953,0.58089 1.52222,1.00781 0.42692,0.42692 0.76986,0.93432 1.02881,1.52222 0.25895,0.58789 0.38842,1.21077 0.38842,1.86865"
         fill-rule="evenodd"
         vector-effect="none" />
    </g>
    <g
       id="g16"
       font-style="normal"
       font-weight="400"
       font-size="7.8px"
       font-family="'MS Shell Dlg 2'"
       stroke="none"
       fill-opacity="1"
       fill="#ef4b65" />
  </g>
</svg>
