<?xml version="1.0" encoding="UTF-8" standalone="no"?>
<svg width="11.25008mm" height="11.25008mm"
 viewBox="-5.3 -5.3 42.52000 42.52000"
 xmlns="http://www.w3.org/2000/svg" xmlns:xlink="http://www.w3.org/1999/xlink"  version="1.2" baseProfile="tiny">
<title>Qt SVG Document</title>
<desc>Generated with Qt</desc>
<defs>
</defs>
<g fill="none" stroke="black" stroke-width="1" fill-rule="evenodd" stroke-linecap="square" stroke-linejoin="bevel" >

<g fill="#a61215" fill-opacity="1" stroke="none" transform="matrix(1,0,0,1,0,0)"
font-family="MS Shell Dlg 2" font-size="7.8" font-weight="400" font-style="normal" 
>
<path vector-effect="non-scaling-stroke" fill-rule="evenodd" d="M37.2598,16 C37.2598,27.7415 27.7415,37.2598 16,37.2598 C4.25851,37.2598 -5.25984,27.7415 -5.25984,16 C-5.25984,4.25851 4.25851,-5.25984 16,-5.25984 C27.7415,-5.25984 37.2598,4.25851 37.2598,16 "/>
</g>

<g fill="#ffffff" fill-opacity="1" stroke="none" transform="matrix(1,0,0,1,16,12.0315)"
font-family="MS Shell Dlg 2" font-size="7.8" font-weight="400" font-style="normal" 
>
<path vector-effect="none" fill-rule="evenodd" d="M9.90137,3.16504 L11.665,3.16504 L11.665,14.7339 L4.04346,14.7339 L4.04346,11.4585 C4.04346,10.9966 3.93848,10.5592 3.72852,10.1462 C3.51855,9.73332 3.23161,9.37638 2.86768,9.07544 C2.50374,8.7745 2.07332,8.53654 1.57642,8.36157 C1.07951,8.1866 0.544108,8.09912 -0.0297852,8.09912 C-0.575684,8.09912 -1.09359,8.1866 -1.5835,8.36157 C-2.0734,8.53654 -2.50382,8.7745 -2.87476,9.07544 C-3.24569,9.37638 -3.53963,9.73332 -3.75659,10.1462 C-3.97355,10.5592 -4.08203,10.9966 -4.08203,11.4585 L-4.08203,14.7339 L-11.6826,14.7339 L-11.6826,3.16504 L-9.91895,3.16504 L-9.91895,4.76074 L-8.07129,4.76074 L-8.07129,3.16504 L-6.26563,3.16504 L-6.26563,4.76074 L-4.50195,4.76074 L-4.50195,3.16504 L-2.6543,3.16504 L-2.6543,4.76074 L-0.890625,4.76074 L-0.890625,3.16504 L0.873047,3.16504 L0.873047,4.76074 L2.7207,4.76074 L2.7207,3.16504 L4.48438,3.16504 L4.48438,4.76074 L6.24805,4.76074 L6.24805,3.16504 L8.01172,3.16504 L8.01172,4.76074 L9.90137,4.76074 L9.90137,3.16504 M-5.3208,-2.69287 L-9.20508,-2.69287 L-7.33643,-5.7793 L-7.33643,-8.4458 L-7.16846,-8.4458 L-7.16846,-5.7793 L-5.3208,-2.69287 M8.72559,-3.46973 L8.72559,-4.7085 L7.92773,-4.7085 L7.92773,-5.14941 L8.72559,-5.14941 L8.72559,-6.13623 L9.1665,-6.13623 L9.1665,-5.14941 L9.98535,-5.14941 L9.98535,-4.7085 L9.1665,-4.7085 L9.1665,-3.46973 L11.749,0.414551 L6.24805,0.414551 L8.72559,-3.46973 M-1.05859,-7.45898 L-6.83252,-6.72412 L-6.83252,-8.15186 L-1.05859,-7.45898 M-9.28906,-1.01318 L-9.58301,-1.51709 L-9.58301,-2.33594 L-4.98486,-2.33594 L-4.98486,-1.51709 L-5.15283,-1.01318 L-5.23682,-1.01318 L-5.23682,4.10986 L-5.76172,4.10986 L-5.76172,2.43018 L-6.74854,2.51416 L-6.74854,1.08643 C-6.74854,0.834473 -6.79053,0.614014 -6.87451,0.425049 C-6.9585,0.236084 -7.08447,0.141602 -7.25244,0.141602 C-7.40641,0.141602 -7.53239,0.236084 -7.63037,0.425049 C-7.72835,0.614014 -7.77734,0.834473 -7.77734,1.08643 L-7.77734,2.51416 L-8.59619,2.51416 L-8.59619,4.10986 L-9.20508,4.10986 L-9.20508,-1.01318 L-9.28906,-1.01318 M8.72559,3.85791 L8.72559,2.26221 L6.79395,2.26221 L6.79395,0.834473 L11.0981,0.834473 L11.0981,2.26221 L9.1665,2.26221 L9.1665,3.85791 L8.72559,3.85791 M11.5811,0.750488 L6.41602,0.750488 L6.41602,0.58252 L11.5811,0.58252 L11.5811,0.750488 M2.44775,13.1382 C2.16781,13.2782 1.93335,13.4706 1.74438,13.7156 C1.55542,13.9605 1.45394,14.2475 1.43994,14.5764 C1.42594,14.9054 1.52043,15.2553 1.72339,15.6262 C1.92635,15.9972 2.25879,16.3716 2.7207,16.7495 L-2.82227,16.7495 C-2.79427,16.2036 -2.6438,15.6717 -2.37085,15.1538 C-2.0979,14.6359 -1.73397,14.1635 -1.27905,13.7366 C-0.824137,13.3097 -0.281738,12.9457 0.348145,12.6448 C0.978027,12.3438 1.6779,12.1514 2.44775,12.0674 L2.44775,13.1382"/>
</g>

<g fill="#a61215" fill-opacity="1" stroke="none" transform="matrix(1,0,0,1,0,0)"
font-family="MS Shell Dlg 2" font-size="7.8" font-weight="400" font-style="normal" 
>
</g>
</g>
</svg>
