<svg xmlns="http://www.w3.org/2000/svg" version="1.2" viewBox="0 0 42.52 42.52" height="56.693" width="56.693">
   <g stroke-linejoin="bevel" stroke-linecap="square" fill-rule="evenodd" stroke="none" fill="none" font-weight="400"
      font-size="7.8" font-family="'MS Shell Dlg 2'">
      <path
         d="M42.52 21.26C42.52 33 33 42.52 21.26 42.52 9.518 42.52 0 33 0 21.26 0 9.518 9.518 0 21.26 0 33 0 42.52 9.518 42.52 21.26"
         vector-effect="non-scaling-stroke" fill="#a61215" />
      <path
         d="M31.161 20.456h1.764v11.57h-7.622V28.75c0-.462-.105-.9-.315-1.312a3.345 3.345 0 00-.86-1.071 4.186 4.186 0 00-1.292-.714 4.803 4.803 0 00-1.606-.263c-.546 0-1.064.088-1.554.263-.49.175-.92.413-1.29.714-.372.3-.666.658-.883 1.07-.217.414-.325.85-.325 1.313v3.275h-7.6V20.456h1.763v1.596h1.848v-1.596h1.805v1.596h1.764v-1.596h1.848v1.596h1.763v-1.596h1.764v1.596h1.848v-1.596h1.763v1.596h1.764v-1.596h1.764v1.596h1.89v-1.596m-15.223-5.858h-3.884l1.868-3.086V8.846h.168v2.666l1.848 3.086m14.046-.776v-1.24h-.797v-.44h.797v-.987h.441v.987h.82v.44h-.82v1.24l2.583 3.884h-5.501l2.477-3.884m-9.784-3.99l-5.774.735V9.14l5.774.693m-8.23 6.446l-.294-.504v-.819h4.598v.82l-.168.503h-.084v5.123h-.525v-1.68l-.987.084v-1.427c0-.252-.042-.473-.126-.662-.084-.189-.21-.283-.378-.283-.154 0-.28.094-.378.283-.098.19-.146.41-.146.662v1.427h-.82v1.596h-.608v-5.123h-.084m18.014 4.871v-1.595h-1.931v-1.428h4.304v1.428h-1.932v1.595h-.44m2.855-3.107h-5.165v-.168h5.165v.168M23.708 30.43c-.28.14-.515.332-.704.577-.189.245-.29.532-.304.86-.014.33.08.68.283 1.05.203.372.536.746.998 1.124h-5.543a3.812 3.812 0 01.451-1.596c.273-.518.637-.99 1.092-1.417a6.458 6.458 0 013.727-1.67v1.072"
         fill="#fff" />
   </g>
</svg>