<?xml version="1.0" encoding="UTF-8" standalone="no"?>
<svg width="11.25008mm" height="11.25008mm"
 viewBox="-5.3 -5.3 42.52000 42.52000"
 xmlns="http://www.w3.org/2000/svg" xmlns:xlink="http://www.w3.org/1999/xlink"  version="1.2" baseProfile="tiny">
<title>Qt SVG Document</title>
<desc>Generated with Qt</desc>
<defs>
</defs>
<g fill="none" stroke="black" stroke-width="1" fill-rule="evenodd" stroke-linecap="square" stroke-linejoin="bevel" >

<g fill="#a61215" fill-opacity="1" stroke="none" transform="matrix(1,0,0,1,0,0)"
font-family="MS Shell Dlg 2" font-size="7.8" font-weight="400" font-style="normal" 
>
<path vector-effect="non-scaling-stroke" fill-rule="evenodd" d="M37.2598,16 C37.2598,27.7415 27.7415,37.2598 16,37.2598 C4.25851,37.2598 -5.25984,27.7415 -5.25984,16 C-5.25984,4.25851 4.25851,-5.25984 16,-5.25984 C27.7415,-5.25984 37.2598,4.25851 37.2598,16 "/>
</g>

<g fill="#ffffff" fill-opacity="0.94902" stroke="none" transform="matrix(1,0,0,1,16,11.4646)"
font-family="MS Shell Dlg 2" font-size="7.8" font-weight="400" font-style="normal" 
>
<path vector-effect="none" fill-rule="evenodd" d="M-0.197754,-5.90527 L-0.197754,-7.62695 L-1.37354,-7.62695 L-1.37354,-8.02588 L-0.197754,-8.02588 L-0.197754,-9.43262 L0.26416,-9.43262 L0.26416,-8.02588 L1.50293,-8.02588 L1.50293,-7.62695 L0.26416,-7.62695 L0.26416,-5.90527 L3.95947,-0.614258 L3.87549,-0.614258 C3.44157,-0.71224 2.88867,-0.803223 2.2168,-0.887207 C1.54492,-0.971191 0.838053,-1.01318 0.0961914,-1.01318 C-0.743652,-1.01318 -1.48551,-0.971191 -2.12939,-0.887207 C-2.77327,-0.803223 -3.34017,-0.71224 -3.83008,-0.614258 L-0.197754,-5.90527 M-3.05322,0.708496 C-2.67529,0.624512 -2.21338,0.554525 -1.66748,0.498535 C-1.12158,0.442546 -0.533691,0.414551 0.0961914,0.414551 C0.670085,0.414551 1.22298,0.442546 1.75488,0.498535 C2.28678,0.554525 2.7627,0.624512 3.18262,0.708496 L3.18262,5.18066 L2.55273,5.05469 L0.0961914,3.16504 L-2.48633,5.05469 L-3.05322,5.18066 L-3.05322,0.708496 M-3.26318,5.66357 L-4.37598,6.6084 L-9.66699,8.49805 L-9.66699,7.63721 L-3.26318,5.66357 M9.7334,7.63721 L9.7334,8.49805 L4.44238,6.6084 L3.2666,5.66357 L9.7334,7.63721 M-9.66699,8.95996 L-4.37598,7.07031 L-4.37598,16.2666 L-9.66699,16.2666 L-9.66699,8.95996 M-7.60938,12.8442 L-6.66455,12.8442 L-6.66455,10.1777 C-6.66455,9.85579 -6.81852,9.69482 -7.12646,9.69482 C-7.4484,9.69482 -7.60938,9.85579 -7.60938,10.1777 L-7.60938,12.8442 M4.52637,7.07031 L9.7334,8.95996 L9.7334,16.2666 L4.52637,16.2666 L4.52637,7.07031 M6.70996,12.8442 L7.65479,12.8442 L7.65479,10.1777 C7.65479,9.85579 7.50081,9.69482 7.19287,9.69482 C7.08089,9.69482 6.97241,9.73682 6.86743,9.8208 C6.76245,9.90479 6.70996,10.0238 6.70996,10.1777 L6.70996,12.8442 M0.0961914,4.40381 L3.58154,7.23828 L3.58154,17.7783 L1.20898,17.7783 L1.20898,14.083 C1.20898,13.7891 1.1005,13.5231 0.883545,13.2852 C0.666585,13.0472 0.404134,12.9282 0.0961914,12.9282 C-0.309733,12.9282 -0.621175,13.0472 -0.838135,13.2852 C-1.05509,13.5231 -1.16357,13.7891 -1.16357,14.083 L-1.16357,17.7783 L-3.51514,17.7783 L-3.51514,7.23828 L0.0961914,4.40381"/>
</g>

<g fill="#a61215" fill-opacity="1" stroke="none" transform="matrix(1,0,0,1,0,0)"
font-family="MS Shell Dlg 2" font-size="7.8" font-weight="400" font-style="normal" 
>
</g>
</g>
</svg>
