<svg xmlns="http://www.w3.org/2000/svg" version="1.2" height="42.52" width="42.52">
   <g stroke-linejoin="bevel" stroke-linecap="square" fill-rule="evenodd" stroke="none" fill="none" font-weight="400"
      font-size="7.8" font-family="'MS Shell Dlg 2'">
      <path
         d="M42.52 21.26C42.52 33 33 42.52 21.26 42.52 9.518 42.52 0 33 0 21.26 0 9.518 9.518 0 21.26 0 33 0 42.52 9.518 42.52 21.26"
         vector-effect="non-scaling-stroke" fill="#a61215" />
      <path
         d="M21.062 10.82V9.096h-1.176V8.7h1.176V7.292h.462v1.407h1.239v.398h-1.239v1.722l3.695 5.291h-.084a17.776 17.776 0 00-1.658-.273 17.104 17.104 0 00-2.121-.126c-.84 0-1.582.042-2.226.126-.643.084-1.21.175-1.7.273l3.632-5.29m-2.855 6.613c.378-.084.84-.154 1.385-.21a17.334 17.334 0 011.764-.084c.574 0 1.127.028 1.659.084a15.74 15.74 0 011.427.21v4.472l-.63-.126-2.456-1.89-2.582 1.89-.567.126v-4.472m-.21 4.955l-1.113.945-5.291 1.89v-.861l6.404-1.974m12.996 1.974v.86l-5.29-1.89-1.177-.944 6.467 1.974m-19.4 1.322l5.29-1.89v9.197h-5.29v-7.307m2.057 3.885h.945v-2.667c0-.322-.154-.483-.462-.483-.322 0-.483.161-.483.483v2.667m12.136-5.774l5.207 1.89v7.306h-5.207v-9.196m2.184 5.774h.945v-2.667c0-.322-.154-.483-.462-.483a.516.516 0 00-.326.126.43.43 0 00-.157.357v2.667m-6.614-8.44l3.485 2.834v10.54H22.47v-3.696c0-.293-.109-.56-.326-.797a1.027 1.027 0 00-.787-.357c-.406 0-.717.119-.934.357a1.155 1.155 0 00-.326.797v3.696h-2.351v-10.54l3.611-2.835"
         fill-opacity=".949" fill="#fff" />
   </g>
</svg>