<svg xmlns="http://www.w3.org/2000/svg" version="1.2" viewBox="0 0 42.52 42.52" height="56.693" width="56.693">
   <g stroke-linejoin="bevel" stroke-linecap="square" fill-rule="evenodd" stroke="none" fill="none" font-weight="400"
      font-size="7.8" font-family="'MS Shell Dlg 2'">
      <path
         d="M42.52 21.26C42.52 33 33 42.52 21.26 42.52 9.518 42.52 0 33 0 21.26 0 9.518 9.518 0 21.26 0 33 0 42.52 9.518 42.52 21.26"
         vector-effect="non-scaling-stroke" fill="#a61215" />
      <path
         d="M20.642 11.554V9.832h-1.176v-.44h1.176V8.026h.462V9.39h1.26v.441h-1.26v1.722l3.696 5.333a29.677 29.677 0 00-1.712-.241 18.76 18.76 0 00-2.152-.116c-.826 0-1.578.039-2.257.116-.679.077-1.256.157-1.732.241l3.695-5.333m2.1 11.4v-2.288c0-.574-.144-1.074-.43-1.5-.287-.428-.746-.641-1.376-.641-.658 0-1.137.213-1.438.64-.301.427-.451.927-.451 1.501v2.289h-1.281v-5.816c.798-.168 1.854-.252 3.17-.252 1.204 0 2.226.084 3.066.252v5.816h-1.26m-1.806 1.89h4.514V35.51h-2.96v-3.8c0-.28-.123-.606-.367-.977-.245-.371-.64-.556-1.187-.556-.602 0-1.025.185-1.27.556-.245.37-.367.696-.367.976v3.8h-2.96V24.846h4.597m-5.08-1.47h10.12v1.029h-10.12v-1.03m13.122 6.888v5.249h-2.625v-6.425l2.625 1.176"
         fill-opacity=".949" fill="#fff" />
   </g>
</svg>