<?xml version="1.0" encoding="UTF-8" standalone="no"?>
<svg
   xmlns:dc="http://purl.org/dc/elements/1.1/"
   xmlns:cc="http://creativecommons.org/ns#"
   xmlns:rdf="http://www.w3.org/1999/02/22-rdf-syntax-ns#"
   xmlns:svg="http://www.w3.org/2000/svg"
   xmlns="http://www.w3.org/2000/svg"
   xmlns:sodipodi="http://sodipodi.sourceforge.net/DTD/sodipodi-0.dtd"
   xmlns:inkscape="http://www.inkscape.org/namespaces/inkscape"
   inkscape:version="1.0 (4035a4fb49, 2020-05-01)"
   sodipodi:docname="1804.svg"
   id="svg20"
   version="1.2"
   viewBox="0 0 42.519639 42.519639"
   height="14.999999mm"
   width="14.999999mm">
  <metadata
     id="metadata24">
    <rdf:RDF>
      <cc:Work
         rdf:about="">
        <dc:format>image/svg+xml</dc:format>
        <dc:type
           rdf:resource="http://purl.org/dc/dcmitype/StillImage" />
        <dc:title>Qt SVG Document</dc:title>
      </cc:Work>
    </rdf:RDF>
  </metadata>
  <sodipodi:namedview
     inkscape:current-layer="svg20"
     inkscape:window-maximized="0"
     inkscape:window-y="0"
     inkscape:window-x="0"
     inkscape:cy="28.346482"
     inkscape:cx="28.346482"
     inkscape:zoom="5.8410537"
     showgrid="false"
     id="namedview22"
     inkscape:window-height="480"
     inkscape:window-width="1034"
     inkscape:pageshadow="2"
     inkscape:pageopacity="0"
     guidetolerance="10"
     gridtolerance="10"
     objecttolerance="10"
     borderopacity="1"
     bordercolor="#666666"
     pagecolor="#ffffff" />
  <title
     id="title2">Qt SVG Document</title>
  <desc
     id="desc4">Generated with Qt</desc>
  <defs
     id="defs6" />
  <g
     transform="translate(5.25984,5.25984)"
     id="g18"
     stroke-linejoin="bevel"
     stroke-linecap="square"
     fill-rule="evenodd"
     stroke-width="1"
     stroke="#000000"
     fill="none">
    <g
       id="g10"
       font-style="normal"
       font-weight="400"
       font-size="7.8px"
       font-family="'MS Shell Dlg 2'"
       stroke="none"
       fill-opacity="1"
       fill="#a61215">
      <path
         id="path8"
         d="M 37.2598,16 C 37.2598,27.7415 27.7415,37.2598 16,37.2598 4.25851,37.2598 -5.25984,27.7415 -5.25984,16 -5.25984,4.25851 4.25851,-5.25984 16,-5.25984 27.7415,-5.25984 37.2598,4.25851 37.2598,16"
         fill-rule="evenodd"
         vector-effect="non-scaling-stroke" />
    </g>
    <g
       id="g14"
       font-style="normal"
       font-weight="400"
       font-size="7.8px"
       font-family="'MS Shell Dlg 2'"
       transform="translate(16,11.4646)"
       stroke="none"
       fill-opacity="0.94902"
       fill="#ffffff">
      <path
         id="path12"
         d="M -0.11377,6.41943 8.34766,9.16992 V 17.4424 H 1.41895 v -4.2622 c 0,-0.4059 -0.19247,-0.7454 -0.577397,-1.0183 -0.384929,-0.273 -0.8643395,-0.4095 -1.438233,-0.4095 -0.5179,0 -0.96232,0.1365 -1.33325,0.4095 -0.37093,0.2729 -0.5564,0.6124 -0.5564,1.0183 v 4.2622 H -8.30225 V 9.16992 L -0.11377,6.41943 M 5.51318,0.540527 C 5.10726,0.428548 4.67334,0.30957 4.21143,0.183594 3.8195,0.0996094 3.38558,0.0226237 2.90967,-0.0473633 2.43376,-0.11735 1.93685,-0.152344 1.41895,-0.152344 c -0.573898,0 -1.109298,0.034994 -1.606206,0.1049807 C -0.684163,0.0226237 -1.13558,0.0996094 -1.5415,0.183594 -2.03141,0.30957 -2.47233,0.428548 -2.86426,0.540527 V -0.152344 L 1.04102,-5.94727 V -7.85791 H -0.0297852 V -8.23584 H 1.04102 v -1.02881 h 0.46191 v 1.02881 h 1.0498 v 0.37793 h -1.0498 v 1.80566 l 4.01025,5.899906 V 0.540527 M 9.12451,7.93115 8.51563,8.79199 0.0961914,5.55859 -8.51221,8.79199 -9.05811,7.93115 -8.38623,7.55322 v -3.2334 c 0.09798,-0.02799 0.20296,-0.06998 0.31494,-0.12597 0.11198,-0.05599 0.24496,-0.09798 0.39893,-0.12598 0.15397,-0.02799 0.36393,-0.04199 0.62988,-0.04199 0.22396,0 0.40242,0.014 0.5354,0.04199 0.13298,0.028 0.25545,0.06999 0.36743,0.12598 0.11198,0.05599 0.20996,0.09798 0.29395,0.12597 V 6.33545 L -2.23438,4.52979 V 0.79248 C -1.96842,0.708496 -1.66748,0.624512 -1.33154,0.540527 -1.0096,0.484538 -0.621175,0.41805 -0.16626,0.341064 0.288656,0.264079 0.817057,0.225586 1.41895,0.225586 c 0.57389,0 1.07779,0.038493 1.51171,0.115478 C 3.36458,0.41805 3.70752,0.484538 3.95947,0.540527 4.28141,0.624512 4.54036,0.708496 4.73633,0.79248 V 4.40381 L 9.12451,7.93115 M -5.23682,4.15186 C -5.40479,4.09587 -5.59375,4.03988 -5.80371,3.98389 -5.97168,3.9279 -6.16414,3.87541 -6.3811,3.82642 -6.59806,3.77743 -6.81852,3.75293 -7.04248,3.75293 c -0.26595,0 -0.51091,0.0245 -0.73486,0.07349 C -8.0013,3.87541 -8.21826,3.9279 -8.42822,3.98389 -8.65218,4.03988 -8.86214,4.09587 -9.05811,4.15186 V 3.66895 L -7.25244,0.330566 V -0.803223 H -7.73535 V -1.09717 h 0.48291 v -0.56689 h 0.29394 v 0.56689 h 0.37793 v 0.293947 H -6.9585 v 1.028809 l 1.72168,3.443364 v 0.48291"
         fill-rule="evenodd"
         vector-effect="none" />
    </g>
    <g
       id="g16"
       font-style="normal"
       font-weight="400"
       font-size="7.8px"
       font-family="'MS Shell Dlg 2'"
       stroke="none"
       fill-opacity="1"
       fill="#a61215" />
  </g>
</svg>
