<?xml version="1.0" encoding="UTF-8" standalone="no"?>
<svg width="11.25008mm" height="11.25008mm"
 viewBox="-5.3 -5.3 42.52000 42.52000"
 xmlns="http://www.w3.org/2000/svg" xmlns:xlink="http://www.w3.org/1999/xlink"  version="1.2" baseProfile="tiny">
<title>Qt SVG Document</title>
<desc>Generated with Qt</desc>
<defs>
</defs>
<g fill="none" stroke="black" stroke-width="1" fill-rule="evenodd" stroke-linecap="square" stroke-linejoin="bevel" >

<g fill="#a61215" fill-opacity="1" stroke="none" transform="matrix(1,0,0,1,0,0)"
font-family="MS Shell Dlg 2" font-size="7.8" font-weight="400" font-style="normal" 
>
<path vector-effect="non-scaling-stroke" fill-rule="evenodd" d="M37.2598,16 C37.2598,27.7415 27.7415,37.2598 16,37.2598 C4.25851,37.2598 -5.25984,27.7415 -5.25984,16 C-5.25984,4.25851 4.25851,-5.25984 16,-5.25984 C27.7415,-5.25984 37.2598,4.25851 37.2598,16 "/>
</g>

<g fill="#ffffff" fill-opacity="0.94902" stroke="none" transform="matrix(1,0,0,1,16,11.4646)"
font-family="MS Shell Dlg 2" font-size="7.8" font-weight="400" font-style="normal" 
>
<path vector-effect="none" fill-rule="evenodd" d="M-0.11377,6.41943 L8.34766,9.16992 L8.34766,17.4424 L1.41895,17.4424 L1.41895,13.1802 C1.41895,12.7743 1.22648,12.4348 0.841553,12.1619 C0.456624,11.8889 -0.0227865,11.7524 -0.59668,11.7524 C-1.11458,11.7524 -1.559,11.8889 -1.92993,12.1619 C-2.30086,12.4348 -2.48633,12.7743 -2.48633,13.1802 L-2.48633,17.4424 L-8.30225,17.4424 L-8.30225,9.16992 L-0.11377,6.41943 M5.51318,0.540527 C5.10726,0.428548 4.67334,0.30957 4.21143,0.183594 C3.8195,0.0996094 3.38558,0.0226237 2.90967,-0.0473633 C2.43376,-0.11735 1.93685,-0.152344 1.41895,-0.152344 C0.845052,-0.152344 0.309652,-0.11735 -0.187256,-0.0473633 C-0.684163,0.0226237 -1.13558,0.0996094 -1.5415,0.183594 C-2.03141,0.30957 -2.47233,0.428548 -2.86426,0.540527 L-2.86426,-0.152344 L1.04102,-5.94727 L1.04102,-7.85791 L-0.0297852,-7.85791 L-0.0297852,-8.23584 L1.04102,-8.23584 L1.04102,-9.26465 L1.50293,-9.26465 L1.50293,-8.23584 L2.55273,-8.23584 L2.55273,-7.85791 L1.50293,-7.85791 L1.50293,-6.05225 L5.51318,-0.152344 L5.51318,0.540527 M9.12451,7.93115 L8.51563,8.79199 L0.0961914,5.55859 L-8.51221,8.79199 L-9.05811,7.93115 L-8.38623,7.55322 L-8.38623,4.31982 C-8.28825,4.29183 -8.18327,4.24984 -8.07129,4.19385 C-7.95931,4.13786 -7.82633,4.09587 -7.67236,4.06787 C-7.51839,4.03988 -7.30843,4.02588 -7.04248,4.02588 C-6.81852,4.02588 -6.64006,4.03988 -6.50708,4.06787 C-6.3741,4.09587 -6.25163,4.13786 -6.13965,4.19385 C-6.02767,4.24984 -5.92969,4.29183 -5.8457,4.31982 L-5.8457,6.33545 L-2.23438,4.52979 L-2.23438,0.79248 C-1.96842,0.708496 -1.66748,0.624512 -1.33154,0.540527 C-1.0096,0.484538 -0.621175,0.41805 -0.16626,0.341064 C0.288656,0.264079 0.817057,0.225586 1.41895,0.225586 C1.99284,0.225586 2.49674,0.264079 2.93066,0.341064 C3.36458,0.41805 3.70752,0.484538 3.95947,0.540527 C4.28141,0.624512 4.54036,0.708496 4.73633,0.79248 L4.73633,4.40381 L9.12451,7.93115 M-5.23682,4.15186 C-5.40479,4.09587 -5.59375,4.03988 -5.80371,3.98389 C-5.97168,3.9279 -6.16414,3.87541 -6.3811,3.82642 C-6.59806,3.77743 -6.81852,3.75293 -7.04248,3.75293 C-7.30843,3.75293 -7.55339,3.77743 -7.77734,3.82642 C-8.0013,3.87541 -8.21826,3.9279 -8.42822,3.98389 C-8.65218,4.03988 -8.86214,4.09587 -9.05811,4.15186 L-9.05811,3.66895 L-7.25244,0.330566 L-7.25244,-0.803223 L-7.73535,-0.803223 L-7.73535,-1.09717 L-7.25244,-1.09717 L-7.25244,-1.66406 L-6.9585,-1.66406 L-6.9585,-1.09717 L-6.58057,-1.09717 L-6.58057,-0.803223 L-6.9585,-0.803223 L-6.9585,0.225586 L-5.23682,3.66895 L-5.23682,4.15186"/>
</g>

<g fill="#a61215" fill-opacity="1" stroke="none" transform="matrix(1,0,0,1,0,0)"
font-family="MS Shell Dlg 2" font-size="7.8" font-weight="400" font-style="normal" 
>
</g>
</g>
</svg>
