<svg xmlns="http://www.w3.org/2000/svg" version="1.2" viewBox="0 0 42.52 42.52" height="56.693" width="56.693">
   <g stroke-linejoin="bevel" stroke-linecap="square" fill-rule="evenodd" stroke="none" fill="none" font-weight="400"
      font-size="7.8" font-family="'MS Shell Dlg 2'">
      <path
         d="M42.52 21.26C42.52 33 33 42.52 21.26 42.52 9.518 42.52 0 33 0 21.26 0 9.518 9.518 0 21.26 0 33 0 42.52 9.518 42.52 21.26"
         vector-effect="non-scaling-stroke" fill="#a61215" />
      <path
         d="M21.146 23.144l8.462 2.75v8.273h-6.93v-4.262c0-.406-.192-.746-.577-1.019-.385-.273-.864-.41-1.438-.41-.518 0-.962.137-1.333.41-.371.273-.556.613-.556 1.019v4.262h-5.816v-8.273l8.188-2.75m5.627-5.879l-1.302-.357a20.44 20.44 0 00-1.301-.23 11.538 11.538 0 00-3.097 0c-.497.07-.949.146-1.355.23-.49.126-.93.245-1.322.357v-.693l3.905-5.795v-1.91h-1.07v-.378h1.07v-1.03h.462v1.03h1.05v.378h-1.05v1.805l4.01 5.9v.693m3.611 7.39l-.609.861-8.419-3.233-8.608 3.233-.546-.86.672-.378v-3.234c.098-.028.203-.07.315-.126.112-.056.245-.098.398-.126.154-.028.364-.042.63-.042.224 0 .403.014.536.042.133.028.255.07.367.126.112.056.21.098.294.126v2.016l3.611-1.806v-3.737c.266-.084.567-.168.903-.252.322-.056.71-.123 1.166-.2a9.602 9.602 0 011.585-.115c.574 0 1.078.039 1.512.116.433.076.776.143 1.028.199.322.084.581.168.777.252v3.611l4.388 3.528m-14.361-3.78a9.745 9.745 0 00-.567-.168 6.062 6.062 0 00-.577-.157 2.993 2.993 0 00-.662-.074c-.266 0-.51.025-.734.074-.224.049-.441.101-.651.157-.224.056-.434.112-.63.168v-.483l1.805-3.338v-1.134h-.483v-.294h.483v-.567h.294v.567h.378v.294h-.378v1.029l1.722 3.443v.483"
         fill-opacity=".949" fill="#fff" />
   </g>
</svg>