<?xml version="1.0" encoding="UTF-8" standalone="no"?>
<svg
   xmlns:dc="http://purl.org/dc/elements/1.1/"
   xmlns:cc="http://creativecommons.org/ns#"
   xmlns:rdf="http://www.w3.org/1999/02/22-rdf-syntax-ns#"
   xmlns:svg="http://www.w3.org/2000/svg"
   xmlns="http://www.w3.org/2000/svg"
   xmlns:sodipodi="http://sodipodi.sourceforge.net/DTD/sodipodi-0.dtd"
   xmlns:inkscape="http://www.inkscape.org/namespaces/inkscape"
   inkscape:version="1.0 (4035a4fb49, 2020-05-01)"
   sodipodi:docname="1805.svg"
   id="svg20"
   version="1.2"
   viewBox="0 0 42.519639 42.519639"
   height="14.999999mm"
   width="14.999999mm">
  <metadata
     id="metadata24">
    <rdf:RDF>
      <cc:Work
         rdf:about="">
        <dc:format>image/svg+xml</dc:format>
        <dc:type
           rdf:resource="http://purl.org/dc/dcmitype/StillImage" />
        <dc:title>Qt SVG Document</dc:title>
      </cc:Work>
    </rdf:RDF>
  </metadata>
  <sodipodi:namedview
     inkscape:current-layer="svg20"
     inkscape:window-maximized="0"
     inkscape:window-y="0"
     inkscape:window-x="0"
     inkscape:cy="28.346482"
     inkscape:cx="28.346482"
     inkscape:zoom="5.8410537"
     showgrid="false"
     id="namedview22"
     inkscape:window-height="480"
     inkscape:window-width="1034"
     inkscape:pageshadow="2"
     inkscape:pageopacity="0"
     guidetolerance="10"
     gridtolerance="10"
     objecttolerance="10"
     borderopacity="1"
     bordercolor="#666666"
     pagecolor="#ffffff" />
  <title
     id="title2">Qt SVG Document</title>
  <desc
     id="desc4">Generated with Qt</desc>
  <defs
     id="defs6" />
  <g
     transform="translate(5.25984,5.25984)"
     id="g18"
     stroke-linejoin="bevel"
     stroke-linecap="square"
     fill-rule="evenodd"
     stroke-width="1"
     stroke="#000000"
     fill="none">
    <g
       id="g10"
       font-style="normal"
       font-weight="400"
       font-size="7.8px"
       font-family="'MS Shell Dlg 2'"
       stroke="none"
       fill-opacity="1"
       fill="#a61215">
      <path
         id="path8"
         d="M 37.2598,16 C 37.2598,27.7415 27.7415,37.2598 16,37.2598 4.25851,37.2598 -5.25984,27.7415 -5.25984,16 -5.25984,4.25851 4.25851,-5.25984 16,-5.25984 27.7415,-5.25984 37.2598,4.25851 37.2598,16"
         fill-rule="evenodd"
         vector-effect="non-scaling-stroke" />
    </g>
    <g
       id="g14"
       font-style="normal"
       font-weight="400"
       font-size="7.8px"
       font-family="'MS Shell Dlg 2'"
       transform="translate(17.1339,11.4646)"
       stroke="none"
       fill-opacity="0.94902"
       fill="#ffffff">
      <path
         id="path12"
         d="M 10.6782,8.49805 H -5.67773 L -4.90088,4.31982 H 8.51563 L 10.6782,8.49805 M -7.12646,1.56934 H -9.49902 V -0.110352 L -8.5542,-4.83447 v -2.20459 h -0.69287 v -0.41992 h 0.69287 v -1.02881 h 0.44092 v 1.02881 h 0.71387 v 0.41992 h -0.71387 v 2.20459 l 0.98682,4.724118 V 1.56934 m 0.86083,0 H -6.9585 V 0.79248 l 0.33594,-2.7085 0.35693,2.7085 v 0.77686 m -3.48535,0 H -10.4438 V 0.79248 l 0.3359,-2.7085 0.35692,2.7085 v 0.77686 m -0.86082,0.86084 h 4.51414 V 6.20947 H -10.6118 V 2.43018 m 1.72166,3.00244 h 1.23877 v -2.1416 h -1.23877 v 2.1416 m -1.72166,1.38574 h 4.51414 v 9.72124 h -1.11279 v -2.7925 c 0,-0.35 -0.10148,-0.6404 -0.30444,-0.8714 -0.20296,-0.2309 -0.43042,-0.3464 -0.68238,-0.3464 -0.32194,0 -0.59139,0.1155 -0.80835,0.3464 -0.21695,0.231 -0.32543,0.5214 -0.32543,0.8714 v 2.7925 H -10.6118 V 6.81836 m 2.30955,1.32275 c -0.39192,0 -0.73136,0.14348 -1.01831,0.43042 -0.28694,0.28695 -0.43042,0.63339 -0.43042,1.03931 0,0.40596 0.14348,0.73486 0.43042,0.98686 0.28695,0.2519 0.62639,0.3779 1.01831,0.3779 0.37793,0 0.69637,-0.126 0.95533,-0.3779 0.25895,-0.252 0.38842,-0.5809 0.38842,-0.98686 0,-0.40592 -0.12947,-0.75236 -0.38842,-1.03931 -0.25896,-0.28694 -0.5774,-0.43042 -0.95533,-0.43042 m 2.62452,1.46973 H 10.6782 V 16.5396 H 9.29248 v -3.9263 c 0,-0.4199 -0.12948,-0.7979 -0.38843,-1.1338 -0.25895,-0.3359 -0.58439,-0.5039 -0.97632,-0.5039 -0.40592,0 -0.73136,0.168 -0.97631,0.5039 -0.24496,0.3359 -0.36744,0.7139 -0.36744,1.1338 v 3.9263 h -1.0288 v -3.9263 c 0,-0.4199 -0.14348,-0.7979 -0.43042,-1.1338 -0.28695,-0.3359 -0.63339,-0.5039 -1.03931,-0.5039 -0.33594,0 -0.64738,0.168 -0.93433,0.5039 -0.28694,0.3359 -0.43042,0.7139 -0.43042,1.1338 v 3.9263 H 1.69189 v -3.9263 c 0,-0.4199 -0.12947,-0.7979 -0.38842,-1.1338 -0.25896,-0.3359 -0.591393,-0.5039 -0.997318,-0.5039 -0.3779293,0 -0.692871,0.168 -0.944824,0.5039 -0.251953,0.3359 -0.377928,0.7139 -0.377928,1.1338 v 3.9263 h -1.04981 v -3.9263 c 0,-0.4199 -0.12597,-0.7979 -0.37793,-1.1338 -0.25195,-0.3359 -0.58089,-0.5039 -0.98681,-0.5039 -0.40593,0 -0.73836,0.168 -0.99732,0.5039 -0.25895,0.3359 -0.38842,0.7139 -0.38842,1.1338 v 3.9263 H -5.67773 V 9.61084 M -8.51221,9.8208 c 0,0 -0.01399,-0.014 -0.04199,-0.04199 -0.08398,0.05599 -0.18197,0.11898 -0.29394,0.18896 -0.11198,0.07003 -0.27295,0.18193 -0.48291,0.33593 -0.11198,-0.112 -0.16797,-0.2309 -0.16797,-0.35692 0,-0.05599 -0.014,-0.11198 -0.042,-0.16797 C -9.56901,9.72282 -9.58301,9.66683 -9.58301,9.61084 h 0.94483 V 9.52686 C -8.72217,9.47087 -8.82715,9.42188 -8.95313,9.37988 -9.0791,9.33789 -9.26107,9.2679 -9.49902,9.16992 c 0,-0.05599 0.05599,-0.13997 0.16797,-0.25195 C -9.24707,8.75 -9.15609,8.66602 -9.05811,8.66602 l 0.5459,0.69287 c 0.028,0 0.042,-0.007 0.042,-0.021 0,-0.014 0.01399,-0.021 0.04199,-0.021 -0.028,-0.09798 -0.05599,-0.21696 -0.08399,-0.35693 -0.02799,-0.13997 -0.06998,-0.32194 -0.12597,-0.5459 0.05599,-0.05599 0.16797,-0.08398 0.33593,-0.08398 0.06999,0 0.13298,0 0.18897,0 0.05599,0 0.11198,0.02799 0.16797,0.08398 l -0.25196,0.90283 c 0,0 0.028,0.014 0.08399,0.042 0.05599,-0.05599 0.11898,-0.15048 0.18896,-0.28345 0.06999,-0.13298 0.16097,-0.29745 0.27295,-0.49341 0.05599,0.05599 0.09798,0.09098 0.12598,0.10498 0.02799,0.014 0.06999,0.06299 0.12598,0.14697 0.12597,0.11198 0.18896,0.19597 0.18896,0.25196 l -0.86084,0.44092 c 0,0 0.014,0.02799 0.04199,0.08398 0.08399,0 0.19597,-0.007 0.33594,-0.021 0.13997,-0.01399 0.32894,-0.03499 0.5669,-0.06298 0.05598,0.05599 0.06998,0.10498 0.04199,0.14697 -0.028,0.04199 -0.04199,0.10498 -0.04199,0.18896 0,0.05599 -0.014,0.10498 -0.042,0.14701 -0.02799,0.042 -0.04199,0.1119 -0.04199,0.2099 L -8.07129,9.73682 c 0,0.02799 -0.007,0.04199 -0.021,0.04199 -0.01399,0 -0.02099,0.014 -0.02099,0.04199 0.05599,0.05599 0.13997,0.13648 0.25195,0.2415 0.11198,0.1049 0.23796,0.2414 0.37793,0.4094 -0.11198,0.112 -0.18196,0.1959 -0.20996,0.2519 -0.08398,0 -0.14697,0.014 -0.18896,0.042 -0.042,0.028 -0.09099,0.042 -0.14698,0.042 L -8.23926,9.86279 h -0.06299 -0.04199 c -0.05599,0.18201 -0.09798,0.49691 -0.12597,0.94481 -0.11198,0 -0.22396,-0.028 -0.33594,-0.084 -0.05599,0 -0.13998,-0.056 -0.25196,-0.1679 l 0.5459,-0.7349"
         fill-rule="evenodd"
         vector-effect="none" />
    </g>
    <g
       id="g16"
       font-style="normal"
       font-weight="400"
       font-size="7.8px"
       font-family="'MS Shell Dlg 2'"
       stroke="none"
       fill-opacity="1"
       fill="#a61215" />
  </g>
</svg>
