<?xml version="1.0" encoding="UTF-8" standalone="no"?>
<svg width="11.25008mm" height="11.25008mm"
 viewBox="-5.3 -5.3 42.52000 42.52000"
 xmlns="http://www.w3.org/2000/svg" xmlns:xlink="http://www.w3.org/1999/xlink"  version="1.2" baseProfile="tiny">
<title>Qt SVG Document</title>
<desc>Generated with Qt</desc>
<defs>
</defs>
<g fill="none" stroke="black" stroke-width="1" fill-rule="evenodd" stroke-linecap="square" stroke-linejoin="bevel" >

<g fill="#a61215" fill-opacity="1" stroke="none" transform="matrix(1,0,0,1,0,0)"
font-family="MS Shell Dlg 2" font-size="7.8" font-weight="400" font-style="normal" 
>
<path vector-effect="non-scaling-stroke" fill-rule="evenodd" d="M37.2598,16 C37.2598,27.7415 27.7415,37.2598 16,37.2598 C4.25851,37.2598 -5.25984,27.7415 -5.25984,16 C-5.25984,4.25851 4.25851,-5.25984 16,-5.25984 C27.7415,-5.25984 37.2598,4.25851 37.2598,16 "/>
</g>

<g fill="#ffffff" fill-opacity="0.94902" stroke="none" transform="matrix(1,0,0,1,16,13.1654)"
font-family="MS Shell Dlg 2" font-size="7.8" font-weight="400" font-style="normal" 
>
<path vector-effect="none" fill-rule="evenodd" d="M9.85938,2.59814 L2.06982,2.59814 L2.06982,18.0303 L-1.83545,18.0303 L-1.83545,2.59814 L-9.625,2.59814 L-9.625,-1.30713 L-1.83545,-1.30713 L-1.83545,-9.09668 L2.06982,-9.09668 L2.06982,-1.30713 L9.85938,-1.30713 L9.85938,2.59814 M-4.58594,11.2065 C-4.08203,11.5425 -3.7286,11.8679 -3.52563,12.1829 C-3.32267,12.4978 -3.1652,12.7463 -3.05322,12.9282 C-2.84326,13.3761 -2.73828,13.8521 -2.73828,14.356 C-2.73828,14.8599 -2.82576,15.3498 -3.00073,15.8257 C-3.1757,16.3016 -3.44865,16.718 -3.81958,17.075 C-4.19051,17.4319 -4.64893,17.6943 -5.19482,17.8623 C-6.11865,18.1003 -7.02498,18.0303 -7.91382,17.6523 C-8.80265,17.2744 -9.44303,16.6025 -9.83496,15.6367 C-10.0729,15.2028 -10.2409,14.8214 -10.3389,14.4924 C-10.4368,14.1635 -10.5488,13.8765 -10.6748,13.6316 C-10.8008,13.3866 -10.9722,13.1767 -11.1892,13.0017 C-11.4062,12.8267 -11.7316,12.6833 -12.1655,12.5713 C-12.3055,12.5153 -12.197,12.4523 -11.8401,12.3823 C-11.4832,12.3123 -11.0457,12.3753 -10.5278,12.5713 C-10.2479,12.6553 -10.0204,12.7847 -9.84546,12.9597 C-9.67049,13.1347 -9.50952,13.3027 -9.36255,13.4636 C-9.21558,13.6246 -9.0721,13.7541 -8.93213,13.8521 C-8.79215,13.95 -8.62419,13.971 -8.42822,13.915 C-8.16227,13.859 -8.0293,13.6876 -8.0293,13.4006 C-8.0293,13.1137 -8.26025,12.8372 -8.72217,12.5713 C-9.46403,12.1514 -9.95744,11.6895 -10.2024,11.1855 C-10.4473,10.6816 -10.5558,10.1847 -10.5278,9.69482 C-10.4998,9.20492 -10.3844,8.7535 -10.1814,8.34058 C-9.97843,7.92765 -9.79297,7.58822 -9.625,7.32227 C-9.51302,7.1263 -9.49202,7.1368 -9.56201,7.35376 C-9.632,7.57072 -9.68799,7.87166 -9.72998,8.25659 C-9.77197,8.64152 -9.72998,9.05094 -9.604,9.48486 C-9.47803,9.91878 -9.15609,10.2477 -8.63818,10.4717 C-8.12028,10.6956 -7.71086,10.9231 -7.40991,11.1541 C-7.10897,11.385 -6.85701,11.581 -6.65405,11.7419 C-6.45109,11.9029 -6.29362,12.0254 -6.18164,12.1094 C-6.06966,12.1934 -5.94368,12.1934 -5.80371,12.1094 C-5.59375,11.9694 -5.61125,11.7454 -5.8562,11.4375 C-6.10116,11.1296 -6.27962,10.7796 -6.3916,10.3877 C-6.51758,10.0658 -6.58057,9.7998 -6.58057,9.58984 C-6.58057,9.37988 -6.51758,9.37288 -6.3916,9.56885 C-6.19564,9.97477 -5.94718,10.2687 -5.64624,10.4507 C-5.3453,10.6326 -4.99186,10.8846 -4.58594,11.2065 M10.7622,12.5713 C11.2801,12.3753 11.7175,12.3123 12.0745,12.3823 C12.4314,12.4523 12.5399,12.5153 12.3999,12.5713 C11.966,12.6833 11.6405,12.8267 11.4236,13.0017 C11.2066,13.1767 11.0422,13.3866 10.9302,13.6316 C10.8182,13.8765 10.7097,14.1635 10.6047,14.4924 C10.4998,14.8214 10.3493,15.2028 10.1533,15.6367 C9.69141,16.6025 9.01603,17.2744 8.1272,17.6523 C7.23836,18.0303 6.33903,18.1003 5.4292,17.8623 C4.85531,17.6943 4.38989,17.4319 4.03296,17.075 C3.67603,16.718 3.41007,16.3016 3.23511,15.8257 C3.06014,15.3498 2.97266,14.8599 2.97266,14.356 C2.97266,13.8521 3.07064,13.3761 3.2666,12.9282 C3.39258,12.7463 3.55355,12.4978 3.74951,12.1829 C3.94548,11.8679 4.30241,11.5425 4.82031,11.2065 C5.22624,10.8846 5.57267,10.6326 5.85962,10.4507 C6.14657,10.2687 6.40202,9.97477 6.62598,9.56885 C6.73796,9.37288 6.79395,9.37988 6.79395,9.58984 C6.79395,9.7998 6.76595,10.0658 6.70996,10.3877 C6.62598,10.5837 6.52799,10.7691 6.41602,10.9441 C6.30404,11.1191 6.19556,11.2835 6.09058,11.4375 C5.9856,11.5915 5.91911,11.7209 5.89111,11.8259 C5.86312,11.9309 5.90511,12.0254 6.01709,12.1094 C6.14307,12.1934 6.26904,12.1934 6.39502,12.1094 C6.521,12.0254 6.67847,11.9029 6.86743,11.7419 C7.0564,11.581 7.30835,11.385 7.62329,11.1541 C7.93823,10.9231 8.34066,10.6956 8.83057,10.4717 C9.37646,10.2477 9.7124,9.91878 9.83838,9.48486 C9.96436,9.05094 10.0063,8.64152 9.96436,8.25659 C9.92236,7.87166 9.85938,7.57072 9.77539,7.35376 C9.69141,7.1368 9.7194,7.1263 9.85938,7.32227 C10.0273,7.58822 10.2128,7.92765 10.4158,8.34058 C10.6187,8.7535 10.7342,9.20492 10.7622,9.69482 C10.7902,10.1847 10.6747,10.6816 10.4158,11.1855 C10.1568,11.6895 9.67041,12.1514 8.95654,12.5713 C8.49463,12.8372 8.26367,13.1137 8.26367,13.4006 C8.26367,13.6876 8.38965,13.859 8.6416,13.915 C8.85156,13.971 9.02653,13.95 9.1665,13.8521 C9.30648,13.7541 9.44995,13.6246 9.59692,13.4636 C9.7439,13.3027 9.90137,13.1347 10.0693,12.9597 C10.2373,12.7847 10.4683,12.6553 10.7622,12.5713 "/>
</g>

<g fill="#a61215" fill-opacity="1" stroke="none" transform="matrix(1,0,0,1,0,0)"
font-family="MS Shell Dlg 2" font-size="7.8" font-weight="400" font-style="normal" 
>
</g>
</g>
</svg>
