<svg xmlns="http://www.w3.org/2000/svg" version="1.2" viewBox="0 0 42.52 42.52" height="56.693" width="56.693">
   <g stroke-linejoin="bevel" stroke-linecap="square" fill-rule="evenodd" stroke="none" fill="none" font-weight="400"
      font-size="7.8" font-family="'MS Shell Dlg 2'">
      <path
         d="M42.52 21.26C42.52 33 33 42.52 21.26 42.52 9.518 42.52 0 33 0 21.26 0 9.518 9.518 0 21.26 0 33 0 42.52 9.518 42.52 21.26"
         vector-effect="non-scaling-stroke" fill="#a61215" />
      <path
         d="M31.12 21.023h-7.79v15.433h-3.906V21.023h-7.79v-3.905h7.79v-7.79h3.906v7.79h7.79v3.905m-14.446 8.609c.504.336.857.661 1.06.976.203.315.36.564.473.745.21.448.315.924.315 1.428 0 .504-.088.994-.263 1.47a3.29 3.29 0 01-2.194 2.037 4.134 4.134 0 01-2.719-.21c-.889-.378-1.53-1.05-1.921-2.016a6.04 6.04 0 01-.504-1.144 5.014 5.014 0 00-.336-.861 1.943 1.943 0 00-.514-.63c-.217-.175-.543-.318-.977-.43-.14-.056-.031-.12.326-.19s.794-.006 1.312.19c.28.084.507.213.682.388.175.175.336.343.483.504.147.16.29.29.43.388.14.098.309.12.505.063.266-.056.399-.227.399-.514 0-.287-.231-.564-.693-.83-.742-.42-1.236-.881-1.48-1.385-.245-.504-.354-1.001-.326-1.49.028-.49.143-.942.346-1.355.203-.413.389-.753.557-1.018.112-.196.133-.186.063.031s-.126.518-.168.903c-.042.385 0 .794.126 1.228.126.434.448.763.966.987.518.224.927.451 1.228.682.3.231.553.427.756.588.203.161.36.284.472.368.112.084.238.084.378 0 .21-.14.193-.364-.052-.672a2.985 2.985 0 01-.536-1.05c-.126-.322-.189-.588-.189-.798 0-.21.063-.217.19-.02.195.405.444.699.745.88.3.183.654.435 1.06.757m15.348 1.365c.518-.196.955-.26 1.312-.19.357.07.466.134.326.19-.434.112-.76.255-.977.43a1.72 1.72 0 00-.493.63c-.112.245-.22.532-.325.86-.105.33-.256.711-.452 1.145-.462.966-1.137 1.638-2.026 2.016a4.08 4.08 0 01-2.698.21c-.574-.168-1.04-.43-1.396-.788a3.41 3.41 0 01-.798-1.25 4.227 4.227 0 01-.263-1.469c0-.504.098-.98.294-1.428.126-.181.287-.43.483-.745s.553-.64 1.071-.976c.406-.322.753-.574 1.04-.756.286-.182.542-.476.766-.882.112-.196.168-.189.168.021s-.028.476-.084.798a3.826 3.826 0 01-.294.556c-.112.175-.22.34-.326.494a1.362 1.362 0 00-.2.388c-.027.105.015.2.127.284a.315.315 0 00.378 0c.126-.084.283-.207.472-.368.19-.16.441-.357.756-.588a6.92 6.92 0 011.207-.682c.546-.224.882-.553 1.008-.987.126-.434.168-.843.126-1.228-.042-.385-.105-.686-.189-.903-.084-.217-.056-.227.084-.031.168.265.354.605.557 1.018.203.413.318.864.346 1.354.028.49-.087.987-.346 1.49-.26.505-.746.967-1.46 1.387-.462.265-.692.542-.692.829 0 .287.125.458.377.514.21.056.385.035.525-.063a2.66 2.66 0 00.43-.388c.148-.161.305-.33.473-.504.168-.175.4-.304.693-.388"
         fill-opacity=".949" fill="#fff" />
   </g>
</svg>