<?xml version="1.0" encoding="UTF-8" standalone="no"?>
<svg
   xmlns:dc="http://purl.org/dc/elements/1.1/"
   xmlns:cc="http://creativecommons.org/ns#"
   xmlns:rdf="http://www.w3.org/1999/02/22-rdf-syntax-ns#"
   xmlns:svg="http://www.w3.org/2000/svg"
   xmlns="http://www.w3.org/2000/svg"
   xmlns:sodipodi="http://sodipodi.sourceforge.net/DTD/sodipodi-0.dtd"
   xmlns:inkscape="http://www.inkscape.org/namespaces/inkscape"
   inkscape:version="1.0 (4035a4fb49, 2020-05-01)"
   sodipodi:docname="1806.svg"
   id="svg20"
   version="1.2"
   viewBox="0 0 42.519639 42.519639"
   height="14.999999mm"
   width="14.999999mm">
  <metadata
     id="metadata24">
    <rdf:RDF>
      <cc:Work
         rdf:about="">
        <dc:format>image/svg+xml</dc:format>
        <dc:type
           rdf:resource="http://purl.org/dc/dcmitype/StillImage" />
        <dc:title>Qt SVG Document</dc:title>
      </cc:Work>
    </rdf:RDF>
  </metadata>
  <sodipodi:namedview
     inkscape:current-layer="svg20"
     inkscape:window-maximized="0"
     inkscape:window-y="0"
     inkscape:window-x="0"
     inkscape:cy="28.346482"
     inkscape:cx="28.346482"
     inkscape:zoom="5.8410537"
     showgrid="false"
     id="namedview22"
     inkscape:window-height="480"
     inkscape:window-width="1034"
     inkscape:pageshadow="2"
     inkscape:pageopacity="0"
     guidetolerance="10"
     gridtolerance="10"
     objecttolerance="10"
     borderopacity="1"
     bordercolor="#666666"
     pagecolor="#ffffff" />
  <title
     id="title2">Qt SVG Document</title>
  <desc
     id="desc4">Generated with Qt</desc>
  <defs
     id="defs6" />
  <g
     transform="translate(5.25984,5.25984)"
     id="g18"
     stroke-linejoin="bevel"
     stroke-linecap="square"
     fill-rule="evenodd"
     stroke-width="1"
     stroke="#000000"
     fill="none">
    <g
       id="g10"
       font-style="normal"
       font-weight="400"
       font-size="7.8px"
       font-family="'MS Shell Dlg 2'"
       stroke="none"
       fill-opacity="1"
       fill="#a61215">
      <path
         id="path8"
         d="M 37.2598,16 C 37.2598,27.7415 27.7415,37.2598 16,37.2598 4.25851,37.2598 -5.25984,27.7415 -5.25984,16 -5.25984,4.25851 4.25851,-5.25984 16,-5.25984 27.7415,-5.25984 37.2598,4.25851 37.2598,16"
         fill-rule="evenodd"
         vector-effect="non-scaling-stroke" />
    </g>
    <g
       id="g14"
       font-style="normal"
       font-weight="400"
       font-size="7.8px"
       font-family="'MS Shell Dlg 2'"
       transform="translate(16,13.1654)"
       stroke="none"
       fill-opacity="0.94902"
       fill="#ffffff">
      <path
         id="path12"
         d="M 9.85938,2.59814 H 2.06982 V 18.0303 H -1.83545 V 2.59814 H -9.625 v -3.90527 h 7.78955 v -7.78955 h 3.90527 v 7.78955 H 9.85938 V 2.59814 M -4.58594,11.2065 c 0.50391,0.336 0.85734,0.6614 1.06031,0.9764 0.20296,0.3149 0.36043,0.5634 0.47241,0.7453 0.20996,0.4479 0.31494,0.9239 0.31494,1.4278 0,0.5039 -0.08748,0.9938 -0.26245,1.4697 -0.17497,0.4759 -0.44792,0.8923 -0.81885,1.2493 -0.37093,0.3569 -0.82935,0.6193 -1.37524,0.7873 -0.92383,0.238 -1.83016,0.168 -2.719,-0.21 -0.88883,-0.3779 -1.52921,-1.0498 -1.92114,-2.0156 -0.23794,-0.4339 -0.40594,-0.8153 -0.50394,-1.1443 -0.0979,-0.3289 -0.2099,-0.6159 -0.3359,-0.8608 -0.126,-0.245 -0.2974,-0.4549 -0.5144,-0.6299 -0.217,-0.175 -0.5424,-0.3184 -0.9763,-0.4304 -0.14,-0.056 -0.0315,-0.119 0.3254,-0.189 0.3569,-0.07 0.7944,-0.007 1.3123,0.189 0.2799,0.084 0.5074,0.2134 0.68234,0.3884 0.17497,0.175 0.33594,0.343 0.48291,0.5039 0.14697,0.161 0.29045,0.2905 0.43042,0.3885 0.13998,0.0979 0.30794,0.1189 0.50391,0.0629 0.26595,-0.056 0.39892,-0.2274 0.39892,-0.5144 0,-0.2869 -0.23095,-0.5634 -0.69287,-0.8293 -0.74186,-0.4199 -1.23527,-0.8818 -1.48023,-1.3858 -0.2449,-0.5039 -0.3534,-1.0008 -0.3254,-1.49068 0.028,-0.4899 0.1434,-0.94132 0.3464,-1.35424 0.20297,-0.41293 0.38843,-0.75236 0.5564,-1.01831 0.11198,-0.19597 0.13298,-0.18547 0.06299,0.03149 -0.06999,0.21696 -0.12598,0.5179 -0.16797,0.90283 -0.04199,0.38493 0,0.79435 0.12598,1.22827 0.12597,0.43392 0.44791,0.76284 0.96582,0.98684 0.5179,0.2239 0.92732,0.4514 1.22827,0.6824 0.30094,0.2309 0.5529,0.4269 0.75586,0.5878 0.20296,0.161 0.36043,0.2835 0.47241,0.3675 0.11198,0.084 0.23796,0.084 0.37793,0 0.20996,-0.14 0.19246,-0.364 -0.05249,-0.6719 -0.24496,-0.3079 -0.42342,-0.6579 -0.5354,-1.0498 -0.12598,-0.3219 -0.18897,-0.5879 -0.18897,-0.79786 0,-0.20996 0.06299,-0.21696 0.18897,-0.02099 0.19596,0.40592 0.44442,0.69985 0.74536,0.88185 0.30094,0.1819 0.65438,0.4339 1.0603,0.7558 m 15.34814,1.3648 c 0.5179,-0.196 0.9553,-0.259 1.3123,-0.189 0.3569,0.07 0.4654,0.133 0.3254,0.189 -0.4339,0.112 -0.7594,0.2554 -0.9763,0.4304 -0.217,0.175 -0.3814,0.3849 -0.4934,0.6299 -0.112,0.2449 -0.2205,0.5319 -0.3255,0.8608 -0.1049,0.329 -0.2554,0.7104 -0.4514,1.1443 -0.46189,0.9658 -1.13727,1.6377 -2.0261,2.0156 -0.88884,0.378 -1.78817,0.448 -2.698,0.21 C 4.85531,17.6943 4.38989,17.4319 4.03296,17.075 3.67603,16.718 3.41007,16.3016 3.23511,15.8257 3.06014,15.3498 2.97266,14.8599 2.97266,14.356 c 0,-0.5039 0.09798,-0.9799 0.29394,-1.4278 0.12598,-0.1819 0.28695,-0.4304 0.48291,-0.7453 0.19597,-0.315 0.5529,-0.6404 1.0708,-0.9764 0.40593,-0.3219 0.75236,-0.5739 1.03931,-0.7558 0.28695,-0.182 0.5424,-0.47593 0.76636,-0.88185 0.11198,-0.19597 0.16797,-0.18897 0.16797,0.02099 0,0.20996 -0.028,0.47596 -0.08399,0.79786 -0.08398,0.196 -0.18197,0.3814 -0.29394,0.5564 -0.11198,0.175 -0.22046,0.3394 -0.32544,0.4934 -0.10498,0.154 -0.17147,0.2834 -0.19947,0.3884 -0.02799,0.105 0.014,0.1995 0.12598,0.2835 0.12598,0.084 0.25195,0.084 0.37793,0 C 6.521,12.0254 6.67847,11.9029 6.86743,11.7419 7.0564,11.581 7.30835,11.385 7.62329,11.1541 7.93823,10.9231 8.34066,10.6956 8.83057,10.4717 9.37646,10.2477 9.7124,9.91878 9.83838,9.48486 9.96436,9.05094 10.0063,8.64152 9.96436,8.25659 9.92236,7.87166 9.85938,7.57072 9.77539,7.35376 9.69141,7.1368 9.7194,7.1263 9.85938,7.32227 c 0.16792,0.26595 0.35342,0.60538 0.55642,1.01831 0.2029,0.41292 0.3184,0.86434 0.3464,1.35424 0.028,0.48988 -0.0875,0.98678 -0.3464,1.49068 -0.259,0.504 -0.74539,0.9659 -1.45926,1.3858 -0.46191,0.2659 -0.69287,0.5424 -0.69287,0.8293 0,0.287 0.12598,0.4584 0.37793,0.5144 0.20996,0.056 0.38493,0.035 0.5249,-0.0629 0.13998,-0.098 0.28345,-0.2275 0.43042,-0.3885 0.14698,-0.1609 0.30445,-0.3289 0.47238,-0.5039 0.168,-0.175 0.399,-0.3044 0.6929,-0.3884"
         fill-rule="evenodd"
         vector-effect="none" />
    </g>
    <g
       id="g16"
       font-style="normal"
       font-weight="400"
       font-size="7.8px"
       font-family="'MS Shell Dlg 2'"
       stroke="none"
       fill-opacity="1"
       fill="#a61215" />
  </g>
</svg>
