<?xml version="1.0" encoding="UTF-8" standalone="no"?>
<svg
   xmlns:dc="http://purl.org/dc/elements/1.1/"
   xmlns:cc="http://creativecommons.org/ns#"
   xmlns:rdf="http://www.w3.org/1999/02/22-rdf-syntax-ns#"
   xmlns:svg="http://www.w3.org/2000/svg"
   xmlns="http://www.w3.org/2000/svg"
   xmlns:sodipodi="http://sodipodi.sourceforge.net/DTD/sodipodi-0.dtd"
   xmlns:inkscape="http://www.inkscape.org/namespaces/inkscape"
   inkscape:version="1.0 (4035a4fb49, 2020-05-01)"
   sodipodi:docname="1807.svg"
   id="svg20"
   version="1.2"
   viewBox="0 0 42.519639 42.519639"
   height="14.999999mm"
   width="14.999999mm">
  <metadata
     id="metadata24">
    <rdf:RDF>
      <cc:Work
         rdf:about="">
        <dc:format>image/svg+xml</dc:format>
        <dc:type
           rdf:resource="http://purl.org/dc/dcmitype/StillImage" />
        <dc:title>Qt SVG Document</dc:title>
      </cc:Work>
    </rdf:RDF>
  </metadata>
  <sodipodi:namedview
     inkscape:current-layer="svg20"
     inkscape:window-maximized="0"
     inkscape:window-y="0"
     inkscape:window-x="0"
     inkscape:cy="28.346482"
     inkscape:cx="28.346482"
     inkscape:zoom="5.8410537"
     showgrid="false"
     id="namedview22"
     inkscape:window-height="480"
     inkscape:window-width="1034"
     inkscape:pageshadow="2"
     inkscape:pageopacity="0"
     guidetolerance="10"
     gridtolerance="10"
     objecttolerance="10"
     borderopacity="1"
     bordercolor="#666666"
     pagecolor="#ffffff" />
  <title
     id="title2">Qt SVG Document</title>
  <desc
     id="desc4">Generated with Qt</desc>
  <defs
     id="defs6" />
  <g
     transform="translate(5.25984,5.25984)"
     id="g18"
     stroke-linejoin="bevel"
     stroke-linecap="square"
     fill-rule="evenodd"
     stroke-width="1"
     stroke="#000000"
     fill="none">
    <g
       id="g10"
       font-style="normal"
       font-weight="400"
       font-size="7.8px"
       font-family="'MS Shell Dlg 2'"
       stroke="none"
       fill-opacity="1"
       fill="#a61215">
      <path
         id="path8"
         d="M 37.2598,16 C 37.2598,27.7415 27.7415,37.2598 16,37.2598 4.25851,37.2598 -5.25984,27.7415 -5.25984,16 -5.25984,4.25851 4.25851,-5.25984 16,-5.25984 27.7415,-5.25984 37.2598,4.25851 37.2598,16"
         fill-rule="evenodd"
         vector-effect="non-scaling-stroke" />
    </g>
    <g
       id="g14"
       font-style="normal"
       font-weight="400"
       font-size="7.8px"
       font-family="'MS Shell Dlg 2'"
       transform="translate(16,12.0315)"
       stroke="none"
       fill-opacity="0.94902"
       fill="#ffffff">
      <path
         id="path12"
         d="m 12.6099,10.7656 c 0.0839,0 0.1749,0.014 0.2729,0.042 0.098,0.028 0.189,0.042 0.273,0.042 v 2.5825 h -0.378 -0.4199 c -0.154,0 -0.3289,0 -0.5249,0 -0.196,0 -0.4549,-0.028 -0.7768,-0.084 H 9.04053 c -0.37793,0 -0.76636,-0.014 -1.16529,-0.0419 -0.39892,-0.028 -0.82934,-0.042 -1.29126,-0.042 -0.46191,-0.056 -0.91333,-0.084 -1.35424,-0.084 -0.44092,0 -0.90634,0 -1.39624,0 L 1.94385,10.4297 H -1.5415 c -0.85385,0 -1.79867,0.084 -2.83448,0.2519 -0.46191,0.084 -0.91333,0.1855 -1.35424,0.3045 -0.44092,0.119 -0.89234,0.2624 -1.35425,0.4304 -0.92383,0.3219 -1.78467,0.6649 -2.58252,1.0288 -0.40591,0.168 -0.79431,0.3604 -1.16531,0.5774 -0.3709,0.217 -0.7103,0.4444 -1.0183,0.6824 h -1.0078 V 6.94434 c 0.3219,-0.05599 0.6194,-0.08399 0.8923,-0.08399 0.273,0 0.4934,-0.02799 0.6614,-0.08398 0.4899,-0.08399 0.7349,-0.20297 0.7349,-0.35694 0,-0.11198 -0.014,-0.20996 -0.042,-0.29394 -0.028,-0.08399 -0.042,-0.16797 -0.042,-0.25195 0,-0.13998 -0.014,-0.27645 -0.042,-0.40943 -0.028,-0.13297 -0.042,-0.24145 -0.042,-0.32544 0,-0.25195 0.056,-0.44092 0.168,-0.56689 0,-0.16797 0.126,-0.25196 0.3779,-0.25196 h 1.80567 V 1.08643 c 0.12598,-0.111983 0.25895,-0.167973 0.39893,-0.167973 0.11197,-0.05599 0.25195,-0.083984 0.41992,-0.083984 0.29394,0.083984 0.5109,0.083984 0.65088,0 0.08398,0 0.19246,-0.006999 0.32544,-0.020996 0.13297,-0.013998 0.24145,-0.062989 0.32543,-0.146973 0.05599,-0.293945 0.09799,-0.5738933 0.12598,-0.839844 0.028,-0.26595 0.06999,-0.531901 0.12598,-0.797851 0.05599,-0.307939 0.10498,-0.605389 0.14697,-0.892339 0.04199,-0.28694 0.11898,-0.54939 0.23096,-0.78735 0.06998,-0.25195 0.16097,-0.5144 0.27295,-0.78735 0.11198,-0.27295 0.23795,-0.52141 0.37793,-0.74536 0.20996,-0.48991 0.5389,-0.90983 0.98681,-1.25977 0.15397,-0.19596 0.31494,-0.34643 0.48291,-0.45142 0.16797,-0.10498 0.33594,-0.22745 0.50391,-0.36743 0.26595,-0.16797 0.61588,-0.34993 1.0498,-0.5459 v 0.5459 h 2.792485 v 2.07862 C 0.677083,-4.25358 0.537109,-4.28857 0.411133,-4.28857 c -0.125977,0 -0.258952,0 -0.398926,0 -0.209961,0 -0.454915,0.10498 -0.734863,0.31494 -0.251953,0.16797 -0.426924,0.36393 -0.524904,0.58789 -0.19596,0.29394 -0.29394,0.64388 -0.29394,1.0498 V 7.97314 H 1.94385 V -2.25195 c 0,-0.15397 -0.014,-0.27995 -0.04199,-0.37793 -0.028,-0.09798 -0.042,-0.18897 -0.042,-0.27295 C 1.77588,-3.15479 1.6709,-3.34375 1.54492,-3.46973 h 2.77149 v 1.21778 H 5.68115 V 5.05469 H 7.78076 V 8.2251 h 2.07862 c 0.11197,0.18196 0.11197,0.37093 0,0.56689 C 9.7474,8.98796 9.78939,9.13493 9.98535,9.23291 h 0.25195 0.3569 0.378 0.2519 c 0.056,0.05599 0.084,0.09798 0.084,0.12598 v 0.08398 0.16797 c 0,0.05599 -0.014,0.08398 -0.042,0.08398 -0.028,0 -0.042,0.028 -0.042,0.08399 0,0.05599 0.028,0.11198 0.084,0.16797 0.126,0.05602 0.196,0.12252 0.21,0.19942 0.014,0.077 0.049,0.1155 0.1049,0.1155 0,0.056 0.014,0.098 0.042,0.126 0.028,0.028 0.042,0.07 0.042,0.126 0,0.056 0.056,0.1399 0.168,0.2519 h 0.252 0.4829"
         fill-rule="evenodd"
         vector-effect="none" />
    </g>
    <g
       id="g16"
       font-style="normal"
       font-weight="400"
       font-size="7.8px"
       font-family="'MS Shell Dlg 2'"
       stroke="none"
       fill-opacity="1"
       fill="#a61215" />
  </g>
</svg>
