<svg xmlns="http://www.w3.org/2000/svg" version="1.2" viewBox="0 0 42.52 42.52" height="56.693" width="56.693">
   <g stroke-linejoin="bevel" stroke-linecap="square" fill-rule="evenodd" stroke="none" fill="none" font-weight="400"
      font-size="7.8" font-family="'MS Shell Dlg 2'">
      <path
         d="M42.52 21.26C42.52 33 33 42.52 21.26 42.52 9.518 42.52 0 33 0 21.26 0 9.518 9.518 0 21.26 0 33 0 42.52 9.518 42.52 21.26"
         vector-effect="non-scaling-stroke" fill="#a61215" />
      <path
         d="M33.87 28.057c.084 0 .175.014.273.042a.998.998 0 00.273.042v2.582h-1.323a4.76 4.76 0 01-.777-.084H30.3c-.378 0-.766-.014-1.165-.041-.399-.028-.83-.042-1.291-.042a11.25 11.25 0 00-1.354-.084h-1.397l-1.89-2.751h-3.485c-.854 0-1.798.084-2.834.252-.462.084-.913.185-1.354.304-.441.12-.893.263-1.355.43-.923.323-1.784.666-2.582 1.03a9.551 9.551 0 00-2.184 1.26H8.401v-6.761c.322-.056.62-.084.893-.084s.493-.028.661-.084c.49-.084.735-.203.735-.357a.93.93 0 00-.042-.294.793.793 0 01-.042-.252c0-.14-.014-.277-.042-.41a1.65 1.65 0 01-.042-.325c0-.252.056-.44.168-.567 0-.168.126-.252.378-.252h1.806v-3.233a.594.594 0 01.399-.168.935.935 0 01.42-.084c.293.084.51.084.65 0 .084 0 .193-.007.326-.021a.522.522 0 00.325-.147c.056-.294.098-.574.126-.84.028-.266.07-.532.126-.798.056-.308.105-.605.147-.892.042-.287.12-.55.231-.788.07-.251.161-.514.273-.787.112-.273.238-.521.378-.745.21-.49.539-.91.987-1.26.154-.196.315-.346.483-.451.168-.105.336-.228.504-.368a8.78 8.78 0 011.05-.546v.546h2.792v2.079a1.028 1.028 0 00-.42-.105h-.399c-.21 0-.455.105-.735.315-.252.168-.427.364-.525.588-.196.294-.294.643-.294 1.05v10.308h3.486V15.04c0-.154-.014-.28-.042-.378a.998.998 0 01-.042-.272c-.084-.252-.19-.441-.315-.567h2.771v1.217h1.365v7.307h2.1v3.17h2.078a.52.52 0 010 .567c-.112.196-.07.343.126.441H32.484c.056.056.084.098.084.126v.252c0 .056-.014.084-.042.084-.028 0-.042.028-.042.084 0 .056.028.112.084.168.126.056.196.123.21.2.014.077.049.115.105.115 0 .056.014.098.042.126.028.028.042.07.042.126 0 .056.056.14.168.252h.735"
         fill-opacity=".949" fill="#fff" />
   </g>
</svg>