<?xml version="1.0" encoding="UTF-8" standalone="no"?>
<svg width="11.25008mm" height="11.25008mm"
 viewBox="-5.3 -5.3 42.52000 42.52000"
 xmlns="http://www.w3.org/2000/svg" xmlns:xlink="http://www.w3.org/1999/xlink"  version="1.2" baseProfile="tiny">
<title>Qt SVG Document</title>
<desc>Generated with Qt</desc>
<defs>
</defs>
<g fill="none" stroke="black" stroke-width="1" fill-rule="evenodd" stroke-linecap="square" stroke-linejoin="bevel" >

<g fill="#a61215" fill-opacity="1" stroke="none" transform="matrix(1,0,0,1,0,0)"
font-family="MS Shell Dlg 2" font-size="7.8" font-weight="400" font-style="normal" 
>
<path vector-effect="non-scaling-stroke" fill-rule="evenodd" d="M37.2598,16 C37.2598,27.7415 27.7415,37.2598 16,37.2598 C4.25851,37.2598 -5.25984,27.7415 -5.25984,16 C-5.25984,4.25851 4.25851,-5.25984 16,-5.25984 C27.7415,-5.25984 37.2598,4.25851 37.2598,16 "/>
</g>

<g fill="#ffffff" fill-opacity="0.94902" stroke="none" transform="matrix(1,0,0,1,16,13.1654)"
font-family="MS Shell Dlg 2" font-size="7.8" font-weight="400" font-style="normal" 
>
<path vector-effect="none" fill-rule="evenodd" d="M-7.94531,1.98926 L-6.9165,1.98926 L-6.9165,2.76611 L-7.94531,3.62695 L-7.77734,15.6787 L-10.4858,15.6787 L-10.3179,3.62695 L-11.3047,2.76611 L-11.3047,1.98926 L-10.3179,1.98926 L-10.2339,-1.09717 L-11.3047,-1.95801 L-11.3047,-2.69287 L-10.2339,-2.69287 L-10.2339,-4.58252 C-10.2339,-4.77848 -10.2199,-5.05493 -10.1919,-5.41187 C-10.1639,-5.7688 -10.1044,-6.12223 -10.0134,-6.47217 C-9.92244,-6.8221 -9.80697,-7.12305 -9.66699,-7.375 C-9.52702,-7.62695 -9.33805,-7.75293 -9.1001,-7.75293 C-8.90413,-7.75293 -8.74316,-7.62695 -8.61719,-7.375 C-8.49121,-7.12305 -8.38973,-6.8221 -8.31274,-6.47217 C-8.23576,-6.12223 -8.18327,-5.7688 -8.15527,-5.41187 C-8.12728,-5.05493 -8.11328,-4.77848 -8.11328,-4.58252 L-8.0293,-2.69287 L-7.00049,-2.69287 L-7.00049,-1.95801 L-8.0293,-1.09717 L-7.94531,1.98926 M10.3633,-1.09717 L10.3633,1.98926 L11.3501,1.98926 L11.3501,2.76611 L10.3633,3.62695 L10.6362,15.6787 L7.82275,15.6787 L8.01172,3.62695 L6.98291,2.76611 L6.98291,1.98926 L8.0957,1.98926 L8.0957,-1.09717 L7.06689,-1.95801 L7.06689,-2.69287 L8.17969,-2.69287 L8.17969,-4.58252 C8.17969,-4.77848 8.19368,-5.05493 8.22168,-5.41187 C8.24967,-5.7688 8.29867,-6.12223 8.36865,-6.47217 C8.43864,-6.8221 8.54012,-7.12305 8.6731,-7.375 C8.80607,-7.62695 8.97054,-7.75293 9.1665,-7.75293 C9.36247,-7.75293 9.53394,-7.62695 9.68091,-7.375 C9.82788,-7.12305 9.94336,-6.8221 10.0273,-6.47217 C10.1113,-6.12223 10.1743,-5.7688 10.2163,-5.41187 C10.2583,-5.05493 10.2793,-4.77848 10.2793,-4.58252 L10.2793,-2.69287 L11.3501,-2.69287 L11.3501,-1.95801 L10.3633,-1.09717 M3.62354,6.25146 L6.54199,6.25146 L6.54199,15.5107 L1.41895,15.5107 L1.41895,12.2354 C1.41895,12.0674 1.34896,11.8819 1.20898,11.679 C1.06901,11.476 0.915039,11.2765 0.74707,11.0806 C0.537109,10.8426 0.306152,10.6117 0.0541992,10.3877 C-0.211751,10.6117 -0.442708,10.8426 -0.638672,11.0806 C-0.806641,11.2765 -0.957113,11.476 -1.09009,11.679 C-1.22306,11.8819 -1.28955,12.0674 -1.28955,12.2354 L-1.28955,15.5107 L-6.53857,15.5107 L-6.53857,6.25146 L-3.55713,6.25146 L-3.55713,5.91553 C-3.64111,5.64958 -3.7216,5.40462 -3.79858,5.18066 C-3.87557,4.95671 -3.91406,4.71175 -3.91406,4.4458 C-3.91406,3.9279 -3.81258,3.40649 -3.60962,2.88159 C-3.40666,2.35669 -3.14071,1.87028 -2.81177,1.42236 C-2.48283,0.974447 -2.0874,0.607015 -1.62549,0.320068 C-1.16357,0.0331217 -0.673665,-0.138346 -0.155762,-0.194336 L-0.155762,-1.43311 C-0.673665,-1.4891 -1.13558,-1.65356 -1.5415,-1.92651 C-1.94743,-2.19946 -2.24837,-2.56689 -2.44434,-3.02881 C-2.76628,-3.68669 -2.77677,-4.33757 -2.47583,-4.98145 C-2.17489,-5.62533 -1.66048,-6.10824 -0.932617,-6.43018 C-0.54069,-6.57015 -0.148763,-6.63314 0.243164,-6.61914 C0.635091,-6.60514 1.02702,-6.48617 1.41895,-6.26221 C0.845052,-6.45817 0.362142,-6.43018 -0.0297852,-6.17822 C-0.603678,-5.94027 -1.0061,-5.57284 -1.23706,-5.07593 C-1.46802,-4.57902 -1.45752,-4.04362 -1.20557,-3.46973 C-0.967611,-2.97982 -0.568685,-2.61938 -0.00878906,-2.38843 C0.551107,-2.15747 1.118,-2.15397 1.69189,-2.37793 C2.11182,-2.50391 2.46875,-2.80485 2.7627,-3.28076 C2.49674,-2.48291 1.96484,-1.93001 1.16699,-1.62207 C1.02702,-1.55208 0.876546,-1.50309 0.715576,-1.4751 C0.554606,-1.4471 0.390137,-1.43311 0.222168,-1.43311 L0.222168,-0.194336 C0.740072,-0.138346 1.22648,0.0331217 1.6814,0.320068 C2.13631,0.607015 2.53874,0.974447 2.88867,1.42236 C3.23861,1.87028 3.50456,2.35669 3.68652,2.88159 C3.86849,3.40649 3.95947,3.9279 3.95947,4.4458 C3.95947,4.71175 3.93848,4.9637 3.89648,5.20166 C3.85449,5.43962 3.76351,5.67757 3.62354,5.91553 L3.62354,6.25146"/>
</g>

<g fill="#a61215" fill-opacity="1" stroke="none" transform="matrix(1,0,0,1,0,0)"
font-family="MS Shell Dlg 2" font-size="7.8" font-weight="400" font-style="normal" 
>
</g>
</g>
</svg>
