<svg xmlns="http://www.w3.org/2000/svg" version="1.2" viewBox="0 0 42.52 42.52" height="56.693" width="56.693">
   <g stroke-linejoin="bevel" stroke-linecap="square" fill-rule="evenodd" stroke="none" fill="none" font-weight="400"
      font-size="7.8" font-family="'MS Shell Dlg 2'">
      <path
         d="M42.52 21.26C42.52 33 33 42.52 21.26 42.52 9.518 42.52 0 33 0 21.26 0 9.518 9.518 0 21.26 0 33 0 42.52 9.518 42.52 21.26"
         vector-effect="non-scaling-stroke" fill="#a61215" />
      <path
         d="M13.315 20.415h1.028v.776l-1.028.861.168 12.052h-2.709l.168-12.052-.987-.86v-.778h.987l.084-3.086-1.07-.86v-.736h1.07v-1.89c0-.195.014-.472.042-.829.028-.357.087-.71.178-1.06.091-.35.207-.65.347-.903.14-.252.329-.378.567-.378.196 0 .357.126.483.378s.227.553.304.903c.077.35.13.703.158 1.06.028.357.042.634.042.83l.084 1.89h1.028v.734l-1.028.861.084 3.086m18.308-3.086v3.086h.987v.777l-.987.861.273 12.052h-2.813l.189-12.052-1.03-.86v-.778h1.114v-3.086l-1.03-.86v-.736h1.114v-1.89c0-.195.014-.472.042-.829.028-.357.077-.71.146-1.06.07-.35.172-.65.305-.903.133-.252.297-.378.493-.378s.368.126.515.378c.147.252.262.553.346.903.084.35.147.703.19 1.06.041.357.062.634.062.83v1.89h1.07v.734l-.986.861m-6.74 7.349h2.919v9.259h-5.123V30.66c0-.168-.07-.354-.21-.557a7.191 7.191 0 00-.462-.598 8.09 8.09 0 00-.693-.693 5.396 5.396 0 00-.693.693 5.82 5.82 0 00-.451.598c-.133.203-.2.389-.2.557v3.275h-5.249v-9.26h2.982v-.335a30.84 30.84 0 00-.242-.735 2.247 2.247 0 01-.115-.735c0-.518.101-1.04.304-1.564a6.28 6.28 0 01.798-1.46 4.233 4.233 0 011.186-1.102 3.462 3.462 0 011.47-.514v-1.239a3.025 3.025 0 01-1.386-.493 2.451 2.451 0 01-.902-1.103c-.322-.657-.333-1.308-.032-1.952.301-.644.815-1.127 1.543-1.449.392-.14.784-.203 1.176-.189a2.54 2.54 0 011.176.357c-.574-.196-1.057-.168-1.449.084-.574.238-.976.605-1.207 1.102-.231.497-.22 1.033.031 1.607.238.49.637.85 1.197 1.08.56.232 1.127.235 1.7.011.42-.126.778-.427 1.072-.903-.266.798-.798 1.351-1.596 1.66-.14.07-.29.118-.452.146a2.874 2.874 0 01-.493.042v1.239a3.387 3.387 0 011.46.514c.454.287.857.655 1.207 1.103.35.448.615.934.797 1.459.182.525.273 1.046.273 1.564 0 .266-.02.518-.063.756a2.142 2.142 0 01-.273.714v.336"
         fill-opacity=".949" fill="#fff" />
   </g>
</svg>