<?xml version="1.0" encoding="UTF-8" standalone="no"?>
<svg
   xmlns:dc="http://purl.org/dc/elements/1.1/"
   xmlns:cc="http://creativecommons.org/ns#"
   xmlns:rdf="http://www.w3.org/1999/02/22-rdf-syntax-ns#"
   xmlns:svg="http://www.w3.org/2000/svg"
   xmlns="http://www.w3.org/2000/svg"
   xmlns:sodipodi="http://sodipodi.sourceforge.net/DTD/sodipodi-0.dtd"
   xmlns:inkscape="http://www.inkscape.org/namespaces/inkscape"
   inkscape:version="1.0 (4035a4fb49, 2020-05-01)"
   sodipodi:docname="1808.svg"
   id="svg20"
   version="1.2"
   viewBox="0 0 42.519639 42.519639"
   height="14.999999mm"
   width="14.999999mm">
  <metadata
     id="metadata24">
    <rdf:RDF>
      <cc:Work
         rdf:about="">
        <dc:format>image/svg+xml</dc:format>
        <dc:type
           rdf:resource="http://purl.org/dc/dcmitype/StillImage" />
        <dc:title>Qt SVG Document</dc:title>
      </cc:Work>
    </rdf:RDF>
  </metadata>
  <sodipodi:namedview
     inkscape:current-layer="svg20"
     inkscape:window-maximized="0"
     inkscape:window-y="0"
     inkscape:window-x="0"
     inkscape:cy="28.346482"
     inkscape:cx="28.346482"
     inkscape:zoom="5.8410537"
     showgrid="false"
     id="namedview22"
     inkscape:window-height="480"
     inkscape:window-width="1034"
     inkscape:pageshadow="2"
     inkscape:pageopacity="0"
     guidetolerance="10"
     gridtolerance="10"
     objecttolerance="10"
     borderopacity="1"
     bordercolor="#666666"
     pagecolor="#ffffff" />
  <title
     id="title2">Qt SVG Document</title>
  <desc
     id="desc4">Generated with Qt</desc>
  <defs
     id="defs6" />
  <g
     transform="translate(5.25984,5.25984)"
     id="g18"
     stroke-linejoin="bevel"
     stroke-linecap="square"
     fill-rule="evenodd"
     stroke-width="1"
     stroke="#000000"
     fill="none">
    <g
       id="g10"
       font-style="normal"
       font-weight="400"
       font-size="7.8px"
       font-family="'MS Shell Dlg 2'"
       stroke="none"
       fill-opacity="1"
       fill="#a61215">
      <path
         id="path8"
         d="M 37.2598,16 C 37.2598,27.7415 27.7415,37.2598 16,37.2598 4.25851,37.2598 -5.25984,27.7415 -5.25984,16 -5.25984,4.25851 4.25851,-5.25984 16,-5.25984 27.7415,-5.25984 37.2598,4.25851 37.2598,16"
         fill-rule="evenodd"
         vector-effect="non-scaling-stroke" />
    </g>
    <g
       id="g14"
       font-style="normal"
       font-weight="400"
       font-size="7.8px"
       font-family="'MS Shell Dlg 2'"
       transform="translate(16,13.1654)"
       stroke="none"
       fill-opacity="0.94902"
       fill="#ffffff">
      <path
         id="path12"
         d="M -7.94531,1.98926 H -6.9165 V 2.76611 L -7.94531,3.62695 -7.77734,15.6787 H -10.4858 L -10.3179,3.62695 -11.3047,2.76611 V 1.98926 h 0.9868 l 0.084,-3.08643 -1.0708,-0.86084 v -0.73486 h 1.0708 v -1.88965 c 0,-0.19596 0.014,-0.47241 0.042,-0.82935 0.028,-0.35693 0.0875,-0.71036 0.1785,-1.0603 0.09096,-0.34993 0.20643,-0.65088 0.34641,-0.90283 0.13997,-0.25195 0.32894,-0.37793 0.56689,-0.37793 0.19597,0 0.35694,0.12598 0.48291,0.37793 0.12598,0.25195 0.22746,0.5529 0.30445,0.90283 0.07698,0.34994 0.12947,0.70337 0.15747,1.0603 0.02799,0.35694 0.04199,0.63339 0.04199,0.82935 l 0.08398,1.88965 h 1.02881 v 0.73486 l -1.02881,0.86084 0.08399,3.08643 M 10.3633,-1.09717 v 3.08643 h 0.9868 V 2.76611 L 10.3633,3.62695 10.6362,15.6787 H 7.82275 L 8.01172,3.62695 6.98291,2.76611 V 1.98926 H 8.0957 V -1.09717 L 7.06689,-1.95801 v -0.73486 h 1.1128 v -1.88965 c 0,-0.19596 0.01399,-0.47241 0.04199,-0.82935 0.02799,-0.35693 0.07699,-0.71036 0.14697,-1.0603 0.06999,-0.34993 0.17147,-0.65088 0.30445,-0.90283 0.13297,-0.25195 0.29744,-0.37793 0.4934,-0.37793 0.19597,0 0.36744,0.12598 0.51441,0.37793 0.14697,0.25195 0.26245,0.5529 0.34639,0.90283 0.084,0.34994 0.147,0.70337 0.189,1.0603 0.042,0.35694 0.063,0.63339 0.063,0.82935 v 1.88965 h 1.0708 v 0.73486 l -0.9868,0.86084 M 3.62354,6.25146 H 6.54199 V 15.5107 H 1.41895 v -3.2753 c 0,-0.168 -0.06999,-0.3535 -0.20997,-0.5564 C 1.06901,11.476 0.915039,11.2765 0.74707,11.0806 0.537109,10.8426 0.306152,10.6117 0.0541992,10.3877 c -0.2659502,0.224 -0.4969072,0.4549 -0.6928712,0.6929 -0.167969,0.1959 -0.318441,0.3954 -0.451418,0.5984 -0.13297,0.2029 -0.19946,0.3884 -0.19946,0.5564 v 3.2753 H -6.53857 V 6.25146 h 2.98144 V 5.91553 C -3.64111,5.64958 -3.7216,5.40462 -3.79858,5.18066 -3.87557,4.95671 -3.91406,4.71175 -3.91406,4.4458 c 0,-0.5179 0.10148,-1.03931 0.30444,-1.56421 0.20296,-0.5249 0.46891,-1.01131 0.79785,-1.45923 0.32894,-0.447913 0.72437,-0.815345 1.18628,-1.102292 0.46192,-0.2869463 0.951825,-0.458414 1.469728,-0.514404 V -1.43311 C -0.673665,-1.4891 -1.13558,-1.65356 -1.5415,-1.92651 c -0.40593,-0.27295 -0.70687,-0.64038 -0.90284,-1.1023 -0.32194,-0.65788 -0.33243,-1.30876 -0.03149,-1.95264 0.30094,-0.64388 0.81535,-1.12679 1.543213,-1.44873 0.391927,-0.13997 0.783854,-0.20296 1.175781,-0.18896 0.391927,0.014 0.783856,0.13297 1.175786,0.35693 -0.573898,-0.19596 -1.056808,-0.16797 -1.4487352,0.08399 -0.5738928,0.23795 -0.9763148,0.60538 -1.2072748,1.10229 -0.23096,0.49691 -0.22046,1.03231 0.03149,1.6062 0.237959,0.48991 0.636885,0.85035 1.19678094,1.0813 C 0.551107,-2.15747 1.118,-2.15397 1.69189,-2.37793 2.11182,-2.50391 2.46875,-2.80485 2.7627,-3.28076 2.49674,-2.48291 1.96484,-1.93001 1.16699,-1.62207 1.02702,-1.55208 0.876546,-1.50309 0.715576,-1.4751 c -0.16097,0.028 -0.325439,0.04199 -0.493408,0.04199 v 1.238774 C 0.740072,-0.138346 1.22648,0.0331217 1.6814,0.320068 2.13631,0.607015 2.53874,0.974447 2.88867,1.42236 3.23861,1.87028 3.50456,2.35669 3.68652,2.88159 3.86849,3.40649 3.95947,3.9279 3.95947,4.4458 3.95947,4.71175 3.93848,4.9637 3.89648,5.20166 3.85449,5.43962 3.76351,5.67757 3.62354,5.91553 v 0.33593"
         fill-rule="evenodd"
         vector-effect="none" />
    </g>
    <g
       id="g16"
       font-style="normal"
       font-weight="400"
       font-size="7.8px"
       font-family="'MS Shell Dlg 2'"
       stroke="none"
       fill-opacity="1"
       fill="#a61215" />
  </g>
</svg>
