<svg xmlns="http://www.w3.org/2000/svg" version="1.2" viewBox="0 0 42.52 42.52" height="56.693" width="56.693">
   <g stroke-linejoin="bevel" stroke-linecap="square" fill-rule="evenodd" stroke="none" fill="none" font-weight="400"
      font-size="7.8" font-family="'MS Shell Dlg 2'">
      <path
         d="M42.52 21.26C42.52 33 33 42.52 21.26 42.52 9.518 42.52 0 33 0 21.26 0 9.518 9.518 0 21.26 0 33 0 42.52 9.518 42.52 21.26"
         vector-effect="non-scaling-stroke" fill="#a61215" />
      <path
         d="M20.58 26.755h1.51l-.776 1.344-.735-1.344m-2.96-2.54l.777 1.301h-1.554l.777-1.301m6.655-1.24l-1.511 2.541h-2.96l-1.407-2.54 1.406-2.54h2.96l1.512 2.54m-2.183-3.821h-1.512l.735-1.344.777 1.344m-4.472 2.519l-.777-1.239h1.554l-.777 1.239m7.348 2.54l.777 1.302H24.19l.777-1.301m7.517-2.96v10.308H10.08V21.254l10.078-8.167v-.693h.252v-2.1c0-.238.07-.427.21-.567.14-.14.301-.238.483-.294l.21-2.288.168 2.288c.168.056.325.154.472.294.147.14.22.33.22.567v2.1h.253v.609l10.057 8.251M20.83 11.533h.903v-1.428c0-.112-.14-.168-.42-.168-.322 0-.483.056-.483.168v1.428m4.913 11.443l2.184-3.821H23.54l-2.226-3.885-2.289 3.885h-4.388l2.205 3.82-2.205 3.78h4.388l2.289 3.78 2.226-3.78h4.388l-2.184-3.78m0-2.54l-.777 1.239-.776-1.239h1.553"
         fill-opacity=".949" fill="#fff" />
   </g>
</svg>