<?xml version="1.0" encoding="UTF-8" standalone="no"?>
<svg width="11.25008mm" height="11.25008mm"
 viewBox="-5.3 -5.3 42.52000 42.52000"
 xmlns="http://www.w3.org/2000/svg" xmlns:xlink="http://www.w3.org/1999/xlink"  version="1.2" baseProfile="tiny">
<title>Qt SVG Document</title>
<desc>Generated with Qt</desc>
<defs>
</defs>
<g fill="none" stroke="black" stroke-width="1" fill-rule="evenodd" stroke-linecap="square" stroke-linejoin="bevel" >

<g fill="#a61215" fill-opacity="1" stroke="none" transform="matrix(1,0,0,1,0,0)"
font-family="MS Shell Dlg 2" font-size="7.8" font-weight="400" font-style="normal" 
>
<path vector-effect="non-scaling-stroke" fill-rule="evenodd" d="M37.2598,16 C37.2598,27.7415 27.7415,37.2598 16,37.2598 C4.25851,37.2598 -5.25984,27.7415 -5.25984,16 C-5.25984,4.25851 4.25851,-5.25984 16,-5.25984 C27.7415,-5.25984 37.2598,4.25851 37.2598,16 "/>
</g>

<g fill="#ffffff" fill-opacity="0.94902" stroke="none" transform="matrix(1,0,0,1,16,10.8976)"
font-family="MS Shell Dlg 2" font-size="7.8" font-weight="400" font-style="normal" 
>
<path vector-effect="none" fill-rule="evenodd" d="M-0.680664,10.5977 L0.831055,10.5977 L0.0541992,11.9414 L-0.680664,10.5977 M-3.64111,8.05713 L-2.86426,9.35889 L-4.41797,9.35889 L-3.64111,8.05713 M3.01465,6.81836 L1.50293,9.35889 L-1.45752,9.35889 L-2.86426,6.81836 L-1.45752,4.27783 L1.50293,4.27783 L3.01465,6.81836 M0.831055,2.99707 L-0.680664,2.99707 L0.0541992,1.65332 L0.831055,2.99707 M-3.64111,5.5166 L-4.41797,4.27783 L-2.86426,4.27783 L-3.64111,5.5166 M3.70752,8.05713 L4.48438,9.35889 L2.93066,9.35889 L3.70752,8.05713 M11.2241,5.09668 L11.2241,15.4058 L-11.1787,15.4058 L-11.1787,5.09668 L-1.10059,-3.0708 L-1.10059,-3.76367 L-0.848633,-3.76367 L-0.848633,-5.86328 C-0.848633,-6.10124 -0.778646,-6.2902 -0.638672,-6.43018 C-0.498698,-6.57015 -0.337728,-6.66813 -0.155762,-6.72412 L0.0541992,-9.0127 L0.222168,-6.72412 C0.390137,-6.66813 0.547607,-6.57015 0.69458,-6.43018 C0.841553,-6.2902 0.915039,-6.10124 0.915039,-5.86328 L0.915039,-3.76367 L1.16699,-3.76367 L1.16699,-3.15479 L11.2241,5.09668 M-0.428711,-4.62451 L0.474121,-4.62451 L0.474121,-6.05225 C0.474121,-6.16423 0.334147,-6.22021 0.0541992,-6.22021 C-0.267741,-6.22021 -0.428711,-6.16423 -0.428711,-6.05225 L-0.428711,-4.62451 M4.48438,6.81836 L6.66797,2.99707 L2.27979,2.99707 L0.0541992,-0.887207 L-2.23438,2.99707 L-6.62256,2.99707 L-4.41797,6.81836 L-6.62256,10.5977 L-2.23438,10.5977 L0.0541992,14.377 L2.27979,10.5977 L6.66797,10.5977 L4.48438,6.81836 M4.48438,4.27783 L3.70752,5.5166 L2.93066,4.27783 L4.48438,4.27783"/>
</g>

<g fill="#a61215" fill-opacity="1" stroke="none" transform="matrix(1,0,0,1,0,0)"
font-family="MS Shell Dlg 2" font-size="7.8" font-weight="400" font-style="normal" 
>
</g>
</g>
</svg>
