<svg xmlns="http://www.w3.org/2000/svg" version="1.2" viewBox="0 0 42.52 42.52" height="56.693" width="56.693">
   <g stroke-linejoin="bevel" stroke-linecap="square" fill-rule="evenodd" stroke="none" fill="none" font-weight="400"
      font-size="7.8" font-family="'MS Shell Dlg 2'">
      <path
         d="M42.52 21.26C42.52 33 33 42.52 21.26 42.52 9.518 42.52 0 33 0 21.26 0 9.518 9.518 0 21.26 0 33 0 42.52 9.518 42.52 21.26"
         vector-effect="non-scaling-stroke" fill="#a61215" />
      <path
         d="M27.928 13.969a27.2 27.2 0 00-.231-2.142 93.001 93.001 0 00-.273-1.7 84.827 84.827 0 00-.357-1.491h.693c.14.475.28.986.42 1.532.126.49.252 1.05.378 1.68.126.63.23 1.302.315 2.016h.525l.084 2.498-.441.084a19.2 19.2 0 01-.063 2.415c-.07.742-.147 1.385-.231 1.931-.084.546-.182.977-.294 1.292-.112.315-.203.472-.273.472-.056.028-.091-.115-.105-.43a20.104 20.104 0 010-1.313c.014-.56.028-1.21.042-1.952a47.46 47.46 0 00-.021-2.415l-.252.084-.084-2.561h.168m-.861 1.973l-14.151.861v-1.302l14.067-.86.084 1.301m2.75-.168l-.084-1.302.693-.083.084 1.28-.693.105M21.44 30.031a71.967 71.967 0 00-1.27-.231 4.282 4.282 0 01-.672-.168c-.203-.07-.333-.161-.389-.273.028-.112.224-.105.588.02.364.127.78.26 1.25.4.469.14.962.217 1.48.23.518.015.966-.174 1.344-.566.224-.21.357-.466.399-.767a3.22 3.22 0 00-.021-.965 6.773 6.773 0 00-.263-1.05c-.119-.357-.22-.69-.304-.998.084-.154.171-.122.262.095s.179.504.263.86c.084.358.153.732.21 1.124.055.392.111.672.167.84.182.518.301.847.357.987.056.14-.09.385-.44.735a.932.932 0 01-.62.335 2.919 2.919 0 01-.777-.02 3.588 3.588 0 01-.819-.231 6.754 6.754 0 01-.745-.357m1.722-6.866c.252.168.37.374.357.62-.014.244-.063.51-.147.797-.084.287-.14.588-.168.903-.028.315.07.626.294.934.084.434-.039.76-.368.977-.329.217-.69.493-1.081.829a8.77 8.77 0 00-.955.934c-.231.273-.543.284-.935.032a1.2 1.2 0 00-.808-.252c-.301.014-.595.042-.882.084a3.24 3.24 0 01-.819.02c-.259-.027-.458-.181-.598-.461a11.038 11.038 0 00-.452-.777c-.217-.35-.409-.637-.577-.86a9.665 9.665 0 01-.913-1.061 2.992 2.992 0 01-.557-1.239c-.084-.44-.031-.927.158-1.46.189-.531.598-1.112 1.228-1.742.546-.546 1.12-.906 1.722-1.081.602-.175 1.158-.224 1.669-.147.51.077.955.227 1.333.451s.637.455.777.693c.518.91 1.092 1.512 1.722 1.806m-4.64 3.695c.252-.224.412-.444.482-.661.07-.217-.007-.459-.23-.725-.252-.252-.522-.391-.809-.42-.287-.027-.563.085-.83.336-.251.238-.384.592-.398 1.06-.014.47.09.837.315 1.103.252.252.493.256.724.01.231-.244.48-.479.746-.703m1.196-2.246c.224.266.459.378.704.336.245-.042.5-.182.766-.42.252-.252.472-.494.661-.725.19-.23.165-.472-.073-.724-.224-.266-.56-.399-1.008-.399-.448 0-.798.133-1.05.399-.252.224-.37.472-.357.745.014.273.133.536.357.788m2.33 1.721l-.776-.294a4.203 4.203 0 00-.63-.105c-.182-.014-.315.035-.399.147a.668.668 0 00-.168.515c.014.203.056.388.126.556.084.238.182.455.294.651l.336-.693-.336-.777.777.441.777-.44m11.212-2.478v8.503H9.577V21.002h3.087v6.278h1.301l.861 3.276h5.06c.028.028.144.055.347.083.203.028.434.07.693.126.259.056.525.137.797.242.273.105.494.213.662.325.224.168.553.231.987.19a2.146 2.146 0 001.196-.526 2.557 2.557 0 00.357-.44h3.087V27.28h2.162v-3.422h3.087"
         fill-opacity=".949" fill="#fff" />
   </g>
</svg>