<?xml version="1.0" encoding="UTF-8" standalone="no"?>
<svg
   xmlns:dc="http://purl.org/dc/elements/1.1/"
   xmlns:cc="http://creativecommons.org/ns#"
   xmlns:rdf="http://www.w3.org/1999/02/22-rdf-syntax-ns#"
   xmlns:svg="http://www.w3.org/2000/svg"
   xmlns="http://www.w3.org/2000/svg"
   xmlns:sodipodi="http://sodipodi.sourceforge.net/DTD/sodipodi-0.dtd"
   xmlns:inkscape="http://www.inkscape.org/namespaces/inkscape"
   inkscape:version="1.0 (4035a4fb49, 2020-05-01)"
   sodipodi:docname="1811.svg"
   id="svg20"
   version="1.2"
   viewBox="0 0 42.519639 42.519639"
   height="14.999999mm"
   width="14.999999mm">
  <metadata
     id="metadata24">
    <rdf:RDF>
      <cc:Work
         rdf:about="">
        <dc:format>image/svg+xml</dc:format>
        <dc:type
           rdf:resource="http://purl.org/dc/dcmitype/StillImage" />
        <dc:title>Qt SVG Document</dc:title>
      </cc:Work>
    </rdf:RDF>
  </metadata>
  <sodipodi:namedview
     inkscape:current-layer="svg20"
     inkscape:window-maximized="0"
     inkscape:window-y="0"
     inkscape:window-x="0"
     inkscape:cy="28.346482"
     inkscape:cx="28.346482"
     inkscape:zoom="5.8410537"
     showgrid="false"
     id="namedview22"
     inkscape:window-height="480"
     inkscape:window-width="1034"
     inkscape:pageshadow="2"
     inkscape:pageopacity="0"
     guidetolerance="10"
     gridtolerance="10"
     objecttolerance="10"
     borderopacity="1"
     bordercolor="#666666"
     pagecolor="#ffffff" />
  <title
     id="title2">Qt SVG Document</title>
  <desc
     id="desc4">Generated with Qt</desc>
  <defs
     id="defs6" />
  <g
     transform="translate(5.25984,5.25984)"
     id="g18"
     stroke-linejoin="bevel"
     stroke-linecap="square"
     fill-rule="evenodd"
     stroke-width="1"
     stroke="#000000"
     fill="none">
    <g
       id="g10"
       font-style="normal"
       font-weight="400"
       font-size="7.8px"
       font-family="'MS Shell Dlg 2'"
       stroke="none"
       fill-opacity="1"
       fill="#a61215">
      <path
         id="path8"
         d="M 37.2598,16 C 37.2598,27.7415 27.7415,37.2598 16,37.2598 4.25851,37.2598 -5.25984,27.7415 -5.25984,16 -5.25984,4.25851 4.25851,-5.25984 16,-5.25984 27.7415,-5.25984 37.2598,4.25851 37.2598,16"
         fill-rule="evenodd"
         vector-effect="non-scaling-stroke" />
    </g>
    <g
       id="g14"
       font-style="normal"
       font-weight="400"
       font-size="7.8px"
       font-family="'MS Shell Dlg 2'"
       transform="translate(16.5669,12.0315)"
       stroke="none"
       fill-opacity="0.94902"
       fill="#ffffff">
      <path
         id="path12"
         d="M 11.2661,1.69531 V 4.52979 L 7.36084,7.07031 11.2661,5.78955 V 9.52686 L 7.61279,11.2905 11.2661,10.0308 v 5.081 l -0.5879,-2.9604 v 3.2124 l -9.25925,-0.5879 0.35693,-0.084 -0.5249,0.084 h -6.82373 l -0.60889,0.3359 h -1.02881 -1.42773 l -3.12842,-0.3359 -0.5249,-4.2202 1.3437,-0.77689 h -1.8686 l 1.8686,-5.33301 -1.6796,2.87647 0.8608,-4.43018 -0.273,-1.19678 3.14946,-3.12842 -3.56936,0.944829 1.5117,-2.372559 3.21245,-3.82129 6.52978,-1.34375 2.89746,0.16797 -3.48535,4.22021 5.45899,-4.38818 4.22021,0.98682 -3.40136,4.01025 3.82128,-3.2334 1.46973,3.56934 -3.14941,3.569335 2.37256,-1.973635 h 1.36476 l 0.9028,2.79248 M 6.29004,13.3481 6.54199,13.2642 5.26123,7.97314 V 4.65576 L 4.65234,5.18066 5.07227,2.22021 3.74951,1.69531 2.63672,-0.845215 0.26416,-1.34912 2.36377,-3.72168 -0.155762,-2.16797 -2.78027,-1.51709 -5.76172,-0.236328 -7.9873,3.41699 -6.43359,1.7793 -7.73535,7.88916 -8.47021,8.49805 -7.4834,8.33008 l -1.23877,2.79252 0.60889,0.4199 0.46191,3.1494 3.14942,-1.6797 6.10986,-0.084 4.68213,0.4199"
         fill-rule="evenodd"
         vector-effect="none" />
    </g>
    <g
       id="g16"
       font-style="normal"
       font-weight="400"
       font-size="7.8px"
       font-family="'MS Shell Dlg 2'"
       stroke="none"
       fill-opacity="1"
       fill="#a61215" />
  </g>
</svg>
