<svg xmlns="http://www.w3.org/2000/svg" version="1.2" viewBox="0 0 42.52 42.52" height="56.693" width="56.693">
   <g stroke-linejoin="bevel" stroke-linecap="square" fill-rule="evenodd" stroke="none" fill="none" font-weight="400"
      font-size="7.8" font-family="'MS Shell Dlg 2'">
      <path
         d="M42.52 21.26C42.52 33 33 42.52 21.26 42.52 9.518 42.52 0 33 0 21.26 0 9.518 9.518 0 21.26 0 33 0 42.52 9.518 42.52 21.26"
         vector-effect="non-scaling-stroke" fill="#a61215" />
      <path
         d="M17.955 15.774H8.548L21.356 9.58l12.682 6.194h-9.323v-2.771h-6.76v2.771m12.996 2.52v11.695h1.7v1.91h-8.335l-.167-2.897h1.637l.42-1.281h-1.638l.4-.65c-.323-.575-.805-1.033-1.45-1.376-.643-.343-1.364-.515-2.162-.515-.896 0-1.666.172-2.31.515-.643.343-1.12.801-1.427 1.375l.336.651h-1.638l.483 1.28h1.638l-.19 2.898h-8.25v-1.91h1.72V18.294l-1.72-.714-.169-.819h22.928l-.19.819-1.616.714m-12.345 3.443c0-.686.178-1.28.535-1.785a2.772 2.772 0 011.396-1.05 18.328 18.328 0 01-.304-.724c-.091-.23-.179-.346-.263-.346-.546.224-.99.63-1.333 1.218-.343.588-.444 1.182-.304 1.784 0 .168.031.347.094.536l.179.535v-.168m2.834 2.793c.574-.056 1.06-.312 1.46-.767.398-.455.598-1.011.598-1.669-.056-.672-.312-1.235-.767-1.69-.455-.455-.983-.654-1.585-.599a2.226 2.226 0 00-1.554.798 2.164 2.164 0 00-.525 1.659c0 .686.231 1.25.693 1.69.462.441 1.022.634 1.68.578m2.457-2.54c.084-.225.16-.452.23-.683.07-.231.106-.459.106-.683 0-.574-.207-1.168-.62-1.784-.413-.616-.997-1.008-1.753-1.176-.056-.056-.133.042-.231.294a7.866 7.866 0 00-.273.86c.714.057 1.316.35 1.806.883.49.531.735 1.21.735 2.036v.252"
         fill-opacity=".949" fill="#fff" />
   </g>
</svg>