<?xml version="1.0" encoding="UTF-8" standalone="no"?>
<svg width="11.25008mm" height="11.25008mm"
 viewBox="-5.3 -5.3 42.52000 42.52000"
 xmlns="http://www.w3.org/2000/svg" xmlns:xlink="http://www.w3.org/1999/xlink"  version="1.2" baseProfile="tiny">
<title>Qt SVG Document</title>
<desc>Generated with Qt</desc>
<defs>
</defs>
<g fill="none" stroke="black" stroke-width="1" fill-rule="evenodd" stroke-linecap="square" stroke-linejoin="bevel" >

<g fill="#a61215" fill-opacity="1" stroke="none" transform="matrix(1,0,0,1,0,0)"
font-family="MS Shell Dlg 2" font-size="7.8" font-weight="400" font-style="normal" 
>
<path vector-effect="non-scaling-stroke" fill-rule="evenodd" d="M37.2598,16 C37.2598,27.7415 27.7415,37.2598 16,37.2598 C4.25851,37.2598 -5.25984,27.7415 -5.25984,16 C-5.25984,4.25851 4.25851,-5.25984 16,-5.25984 C27.7415,-5.25984 37.2598,4.25851 37.2598,16 "/>
</g>

<g fill="#ffffff" fill-opacity="0.94902" stroke="none" transform="matrix(1,0,0,1,16,12.0315)"
font-family="MS Shell Dlg 2" font-size="7.8" font-weight="400" font-style="normal" 
>
<path vector-effect="none" fill-rule="evenodd" d="M4.16943,-5.94727 C4.19743,-5.91927 4.21143,-5.89827 4.21143,-5.88428 C4.21143,-5.87028 4.19743,-5.87728 4.16943,-5.90527 L4.16943,-5.94727 M12.127,12.3613 C12.3369,12.5293 12.4419,12.8722 12.4419,13.3901 C12.4419,13.7121 12.3544,14.0095 12.1794,14.2825 C12.0045,14.5554 11.805,14.6919 11.5811,14.6919 L3.70752,14.6919 L-10.4019,15.0698 C-10.4578,15.0698 -10.5488,15.0488 -10.6748,15.0068 C-10.8008,14.9648 -10.9303,14.9229 -11.0632,14.8809 C-11.1962,14.8389 -11.3187,14.7969 -11.4307,14.7549 C-11.5426,14.7129 -11.6126,14.6919 -11.6406,14.6919 C-11.7806,14.6919 -11.9031,14.6184 -12.0081,14.4714 C-12.113,14.3245 -12.1655,14.181 -12.1655,14.041 C-12.1655,14.013 -12.0431,13.985 -11.7981,13.957 C-11.5531,13.929 -11.2802,13.894 -10.9792,13.8521 C-10.6783,13.8101 -10.3984,13.7751 -10.1394,13.7471 C-9.88045,13.7191 -9.75098,13.6841 -9.75098,13.6421 C-9.77897,13.6141 -9.92944,13.6001 -10.2024,13.6001 C-10.4753,13.6001 -10.7763,13.6001 -11.1052,13.6001 C-11.4342,13.6001 -11.7281,13.5861 -11.9871,13.5581 C-12.246,13.5301 -12.3755,13.4741 -12.3755,13.3901 C-12.3755,12.9982 -12.274,12.6343 -12.071,12.2983 C-11.8681,11.9624 -11.6546,11.7944 -11.4307,11.7944 L0.0961914,11.5005 C0.0681966,11.5005 -0.232747,11.4935 -0.806641,11.4795 C-1.38053,11.4655 -2.0979,11.4515 -2.95874,11.4375 C-3.81958,11.4235 -4.75041,11.4095 -5.75122,11.3955 C-6.75203,11.3815 -7.67586,11.3675 -8.52271,11.3535 C-9.36955,11.3395 -10.0799,11.3185 -10.6538,11.2905 C-11.2277,11.2625 -11.5146,11.2205 -11.5146,11.1646 C-11.5146,11.0106 -11.5007,10.8846 -11.4727,10.7866 C-11.4447,10.6886 -11.4027,10.5977 -11.3467,10.5137 C-11.4587,10.4017 -11.5146,10.2407 -11.5146,10.0308 C-11.5146,9.69482 -11.3257,9.48486 -10.9478,9.40088 L-9.01611,9.16992 C-9.01611,9.14193 -9.12459,9.12093 -9.34155,9.10693 C-9.55851,9.09294 -9.79647,9.07894 -10.0554,9.06494 C-10.3144,9.05094 -10.5523,9.03695 -10.7693,9.02295 C-10.9862,9.00895 -11.0947,8.97396 -11.0947,8.91797 C-11.0947,8.69401 -11.0632,8.46655 -11.0002,8.2356 C-10.9373,8.00464 -10.8638,7.86117 -10.7798,7.80518 C-10.8358,7.6652 -10.8778,7.52173 -10.9058,7.37476 C-10.9338,7.22778 -10.9478,7.07031 -10.9478,6.90234 C-10.9478,6.35645 -10.8078,5.98551 -10.5278,5.78955 L-10.5278,5.30664 C-10.5278,5.11068 -10.5068,4.93921 -10.4648,4.79224 C-10.4229,4.64526 -10.3739,4.50179 -10.3179,4.36182 L-8.07129,4.10986 L-10.1499,4.02588 C-10.2059,3.87191 -10.2339,3.61296 -10.2339,3.24902 C-10.2339,2.8431 -10.1429,2.51416 -9.96094,2.26221 C-10.1989,2.37419 -10.3879,2.43018 -10.5278,2.43018 C-10.9058,2.43018 -11.1787,2.26921 -11.3467,1.94727 L-11.5146,1.94727 L-11.5146,1.69531 C-11.6546,1.47135 -11.7246,1.2404 -11.7246,1.00244 C-11.7246,0.862467 -11.6546,0.694499 -11.5146,0.498535 L-11.5146,-0.76123 L-10.8638,-0.76123 C-10.8078,-0.929199 -10.7238,-1.07617 -10.6118,-1.20215 C-10.4998,-1.32813 -10.3739,-1.39111 -10.2339,-1.39111 C-10.2059,-1.39111 -10.1639,-1.36312 -10.1079,-1.30713 L-10.0449,-1.26514 L-10.0449,-1.74805 L-10.2339,-1.74805 C-10.2339,-1.86003 -10.1254,-1.92301 -9.90845,-1.93701 C-9.69149,-1.95101 -9.42204,-1.95801 -9.1001,-1.95801 L-5.8877,-1.95801 C-5.91569,-1.986 -6.08716,-2.014 -6.4021,-2.04199 C-6.71704,-2.06999 -7.05298,-2.10498 -7.40991,-2.14697 C-7.76685,-2.18896 -8.09578,-2.22396 -8.39673,-2.25195 C-8.69767,-2.27995 -8.84814,-2.32194 -8.84814,-2.37793 C-8.84814,-2.58789 -8.77116,-2.75586 -8.61719,-2.88184 C-8.46322,-3.00781 -8.28125,-3.0708 -8.07129,-3.0708 C-7.95931,-3.0708 -7.87533,-3.02881 -7.81934,-2.94482 C-7.76335,-2.97282 -7.76335,-3.00781 -7.81934,-3.0498 C-7.87533,-3.0918 -7.95231,-3.13379 -8.05029,-3.17578 C-8.14827,-3.21777 -8.22876,-3.25277 -8.29175,-3.28076 C-8.35474,-3.30876 -8.35824,-3.32275 -8.30225,-3.32275 L-7.08447,-3.0708 L-7.08447,-3.80566 L-7.08447,-3.88965 C-6.88851,-4.05762 -6.54557,-4.1416 -6.05566,-4.1416 C-6.02767,-4.1416 -5.89819,-4.1556 -5.66724,-4.18359 C-5.43628,-4.21159 -5.17733,-4.23608 -4.89038,-4.25708 C-4.60343,-4.27808 -4.34448,-4.30257 -4.11353,-4.33057 C-3.88257,-4.35856 -3.75309,-4.37256 -3.7251,-4.37256 L-7.33643,-4.54053 C-7.33643,-4.62451 -7.20345,-4.72949 -6.9375,-4.85547 C-6.67155,-4.98145 -6.50358,-5.09342 -6.43359,-5.19141 L-6.43359,-5.35938 L-4.94287,-5.35938 L-4.94287,-6.38818 L-1.24756,-6.47217 C-1.21956,-6.47217 -1.28255,-6.47917 -1.43652,-6.49316 C-1.59049,-6.50716 -1.77596,-6.52116 -1.99292,-6.53516 C-2.20988,-6.54915 -2.44784,-6.56315 -2.70679,-6.57715 C-2.96574,-6.59115 -3.1792,-6.59814 -3.34717,-6.59814 L-2.6123,-7.03906 L-1.33154,-7.16504 C-1.33154,-7.19303 -1.40153,-7.22103 -1.5415,-7.24902 C-1.68148,-7.27702 -1.83895,-7.30501 -2.01392,-7.33301 C-2.18888,-7.361 -2.34635,-7.389 -2.48633,-7.41699 C-2.6263,-7.44499 -2.69629,-7.47298 -2.69629,-7.50098 C-2.69629,-7.64095 -2.58431,-7.71094 -2.36035,-7.71094 C-2.13639,-7.71094 -1.97542,-7.77393 -1.87744,-7.8999 L-1.87744,-8.36182 L-0.386719,-8.36182 C-0.232747,-8.4458 -0.0717773,-8.52279 0.0961914,-8.59277 C0.26416,-8.66276 0.432129,-8.69775 0.600098,-8.69775 C0.950033,-8.69775 1.24748,-8.62077 1.49243,-8.4668 C1.73739,-8.31283 1.85986,-8.08887 1.85986,-7.79492 C1.85986,-7.62695 1.75488,-7.44499 1.54492,-7.24902 L1.85986,-7.24902 C2.13981,-7.24902 2.35677,-7.22103 2.51074,-7.16504 C2.56673,-7.22103 2.62272,-7.24902 2.67871,-7.24902 C2.7347,-7.24902 2.79069,-7.24902 2.84668,-7.24902 C3.07064,-7.24902 3.2841,-7.16154 3.48706,-6.98657 C3.69002,-6.8116 3.7915,-6.58415 3.7915,-6.3042 C3.84749,-6.24821 3.85449,-6.22721 3.8125,-6.24121 C3.77051,-6.25521 3.71452,-6.26221 3.64453,-6.26221 C3.57454,-6.26221 3.50106,-6.26221 3.42407,-6.26221 C3.34709,-6.26221 3.30859,-6.24821 3.30859,-6.22021 C3.57454,-6.22021 3.8195,-6.16423 4.04346,-6.05225 L4.16943,-6.05225 L4.16943,-5.94727 C4.02946,-6.01725 3.95947,-6.00326 3.95947,-5.90527 C3.95947,-5.79329 3.90348,-5.68132 3.7915,-5.56934 C3.84749,-5.51335 3.87549,-5.44336 3.87549,-5.35938 C3.87549,-5.27539 3.87549,-5.18441 3.87549,-5.08643 L4.3584,-5.35938 L4.3584,-5.19141 C4.41439,-5.16341 4.54036,-5.11092 4.73633,-5.03394 C4.93229,-4.95695 5.13875,-4.87646 5.35571,-4.79248 C5.57267,-4.7085 5.76864,-4.61751 5.9436,-4.51953 C6.11857,-4.42155 6.20605,-4.34456 6.20605,-4.28857 C6.20605,-4.21859 6.01009,-4.1766 5.61816,-4.1626 C5.22624,-4.1486 4.80632,-4.1276 4.3584,-4.09961 C3.8125,-4.07161 3.19661,-4.05762 2.51074,-4.05762 C2.53874,-4.02962 2.7522,-4.00163 3.15112,-3.97363 C3.55005,-3.94564 3.99447,-3.91064 4.48438,-3.86865 C4.97428,-3.82666 5.4257,-3.78467 5.83862,-3.74268 C6.25155,-3.70068 6.47201,-3.65169 6.5,-3.5957 L7.0249,-3.5957 C7.08089,-3.5957 7.18587,-3.52922 7.33984,-3.39624 C7.49382,-3.26326 7.5708,-3.15479 7.5708,-3.0708 L7.96973,-3.0708 C8.24967,-3.0708 8.49113,-3.00781 8.69409,-2.88184 C8.89705,-2.75586 8.99854,-2.58789 8.99854,-2.37793 C8.99854,-2.26595 8.97054,-2.18197 8.91455,-2.12598 C8.94255,-2.09798 8.76758,-2.07699 8.38965,-2.06299 C8.01172,-2.04899 7.5953,-2.03499 7.14038,-2.021 C6.68547,-2.007 6.27254,-1.986 5.90161,-1.95801 C5.53068,-1.93001 5.35921,-1.88802 5.38721,-1.83203 L9.33447,-1.83203 C9.41846,-1.91602 9.60742,-1.95801 9.90137,-1.95801 C10.2653,-1.95801 10.4473,-1.88802 10.4473,-1.74805 C10.6012,-1.66406 10.6782,-1.60807 10.6782,-1.58008 C10.6782,-1.53809 10.6012,-1.4751 10.4473,-1.39111 C10.5452,-1.30713 10.5942,-1.20915 10.5942,-1.09717 L10.5942,-1.01318 C10.8182,-1.01318 11.0247,-0.992188 11.2136,-0.950195 C11.4026,-0.908203 11.5251,-0.845215 11.5811,-0.76123 L11.665,-0.76123 L11.0981,1.56934 L9.46045,1.86328 L10.1113,2.13623 C10.2233,2.13623 10.3248,2.22021 10.4158,2.38818 C10.5068,2.55615 10.5872,2.74862 10.6572,2.96558 C10.7272,3.18254 10.7762,3.40649 10.8042,3.63745 C10.8322,3.86841 10.8462,4.02588 10.8462,4.10986 C10.8462,4.19385 10.8322,4.27783 10.8042,4.36182 C10.7762,4.4458 10.7342,4.54378 10.6782,4.65576 C10.7342,4.75374 10.7762,4.85173 10.8042,4.94971 C10.8322,5.04769 10.8462,5.19466 10.8462,5.39063 C10.8462,5.5306 10.8322,5.65308 10.8042,5.75806 C10.7762,5.86304 10.7622,5.95752 10.7622,6.0415 L10.8462,6.0415 C11.0701,6.12549 11.2626,6.32495 11.4236,6.63989 C11.5846,6.95483 11.665,7.31527 11.665,7.72119 C11.665,7.94515 11.63,8.16561 11.5601,8.38257 C11.4901,8.59953 11.4061,8.77799 11.3081,8.91797 C11.3641,9.05794 11.4096,9.21541 11.4446,9.39038 C11.4796,9.56535 11.4971,9.75081 11.4971,9.94678 L11.4971,10.2197 L8.99854,10.5137 L11.4971,10.5977 C11.917,10.8916 12.127,11.3815 12.127,12.0674 L12.127,12.3613 M7.23486,8.45605 C7.17887,8.40007 7.18587,8.34058 7.25586,8.27759 C7.32585,8.2146 7.40983,8.14811 7.50781,8.07813 C7.60579,8.00814 7.70728,7.93815 7.81226,7.86816 C7.91724,7.79818 7.96973,7.72119 7.96973,7.63721 C7.96973,7.55322 7.92424,7.45874 7.83325,7.35376 C7.74227,7.24878 7.64779,7.1403 7.5498,7.02832 C7.45182,6.91634 7.36784,6.80436 7.29785,6.69238 C7.22786,6.5804 7.20687,6.48942 7.23486,6.41943 L6.83594,4.36182 C6.77995,4.33382 6.75195,4.19735 6.75195,3.95239 C6.75195,3.70744 6.77295,3.44849 6.81494,3.17554 C6.85693,2.90259 6.90243,2.62964 6.95142,2.35669 C7.00041,2.08374 7.0249,1.89128 7.0249,1.7793 C7.0249,1.72331 7.12288,1.69531 7.31885,1.69531 C7.51481,1.69531 7.74227,1.69531 8.00122,1.69531 C8.26017,1.69531 8.50513,1.68831 8.73608,1.67432 C8.96704,1.66032 9.11051,1.62533 9.1665,1.56934 L6.20605,1.2334 C6.15007,1.13542 6.12907,1.02344 6.14307,0.897461 C6.15706,0.771484 6.18506,0.645508 6.22705,0.519531 C6.26904,0.393555 6.30404,0.278076 6.33203,0.173096 C6.36003,0.0681152 6.34603,-0.0123698 6.29004,-0.0683594 L1.6499,-0.614258 C1.46794,-0.530273 1.21948,-0.49528 0.904541,-0.509277 C0.5896,-0.523275 0.348145,-0.530273 0.180176,-0.530273 C-0.281738,-0.530273 -0.652669,-0.607259 -0.932617,-0.76123 L-3.7251,-0.530273 C-3.79508,-0.474284 -3.7216,-0.432292 -3.50464,-0.404297 C-3.28768,-0.376302 -3.04972,-0.355306 -2.79077,-0.341309 C-2.53182,-0.327311 -2.30786,-0.313314 -2.1189,-0.299316 C-1.92993,-0.285319 -1.87744,-0.27832 -1.96143,-0.27832 C-2.05941,-0.27832 -2.30786,-0.271322 -2.70679,-0.257324 C-3.10571,-0.243327 -3.52563,-0.236328 -3.96655,-0.236328 C-4.40747,-0.236328 -4.81689,-0.243327 -5.19482,-0.257324 C-5.57275,-0.271322 -5.80371,-0.306315 -5.8877,-0.362305 L-6.53857,0.666504 C-6.53857,0.694499 -6.50708,0.771484 -6.44409,0.897461 C-6.3811,1.02344 -6.31462,1.16691 -6.24463,1.32788 C-6.17464,1.48885 -6.12565,1.64982 -6.09766,1.81079 C-6.06966,1.97176 -6.08366,2.08024 -6.13965,2.13623 L-8.19727,2.13623 C-8.16927,2.22021 -8.05729,2.2762 -7.86133,2.3042 C-7.66536,2.33219 -7.4519,2.36019 -7.22095,2.38818 C-6.98999,2.41618 -6.78003,2.45117 -6.59106,2.49316 C-6.4021,2.53516 -6.30762,2.59814 -6.30762,2.68213 C-6.30762,3.17204 -6.34611,3.65495 -6.4231,4.13086 C-6.50008,4.60677 -6.65055,4.92871 -6.87451,5.09668 L-7.33643,6.33545 C-7.08447,6.30745 -6.9165,6.34595 -6.83252,6.45093 C-6.74854,6.55591 -6.70654,6.67839 -6.70654,6.81836 C-6.70654,6.98633 -6.73454,7.18929 -6.79053,7.42725 C-6.79053,7.56722 -6.90601,7.6582 -7.13696,7.7002 C-7.36792,7.74219 -7.62687,7.77018 -7.91382,7.78418 C-8.20076,7.79818 -8.46322,7.81217 -8.70117,7.82617 C-8.93913,7.84017 -9.0721,7.88916 -9.1001,7.97314 C-9.0721,8.02913 -8.96712,8.05013 -8.78516,8.03613 C-8.60319,8.02214 -8.40373,8.00814 -8.18677,7.99414 C-7.96981,7.98014 -7.77384,7.96615 -7.59888,7.95215 C-7.42391,7.93815 -7.33643,7.94515 -7.33643,7.97314 C-7.33643,8.02913 -7.29443,8.2006 -7.21045,8.48755 C-7.12646,8.7745 -7.11247,8.91797 -7.16846,8.91797 C-7.08447,8.91797 -7.07048,8.94596 -7.12646,9.00195 C-7.18245,9.05794 -7.25594,9.12443 -7.34692,9.20142 C-7.43791,9.2784 -7.50439,9.34489 -7.54639,9.40088 C-7.58838,9.45687 -7.55339,9.48486 -7.44141,9.48486 C-7.37142,9.48486 -7.17196,9.47786 -6.84302,9.46387 C-6.51408,9.44987 -6.15715,9.42887 -5.77222,9.40088 C-5.38729,9.37288 -5.03035,9.35189 -4.70142,9.33789 C-4.37248,9.32389 -4.18001,9.31689 -4.12402,9.31689 C-4.04004,9.31689 -3.93856,9.3029 -3.81958,9.2749 C-3.7006,9.24691 -3.59912,9.23291 -3.51514,9.23291 L-3.64111,9.16992 L-3.55713,6.0415 L-2.92725,6.0415 L-3.01123,9.2749 C-2.91325,9.2749 -2.83626,9.2889 -2.78027,9.31689 L-2.69629,9.31689 C-2.55632,9.2609 -2.43034,9.22241 -2.31836,9.20142 C-2.20638,9.18042 -2.05941,9.16992 -1.87744,9.16992 C-1.79346,9.16992 -1.73747,9.20142 -1.70947,9.2644 C-1.68148,9.32739 -1.66048,9.40088 -1.64648,9.48486 C-1.63249,9.56885 -1.61149,9.64583 -1.5835,9.71582 C-1.5555,9.78581 -1.49951,9.8348 -1.41553,9.86279 L-0.470703,10.0728 C-0.470703,10.0448 -0.470703,9.97477 -0.470703,9.86279 C-0.470703,9.75081 -0.463704,9.54435 -0.449707,9.24341 C-0.43571,8.94246 -0.421712,8.51204 -0.407715,7.95215 C-0.393717,7.39225 -0.358724,6.67139 -0.302734,5.78955 L0.516113,6.0415 L0.180176,8.37207 L0.516113,10.2197 L0.600098,10.2197 C0.754069,10.1217 1.00952,10.0833 1.36646,10.1042 C1.72339,10.1252 2.02783,10.1357 2.27979,10.1357 C2.30778,10.0658 2.36027,9.70882 2.43726,9.06494 C2.51424,8.42106 2.62272,7.75618 2.7627,7.07031 L2.40576,4.92871 L3.49756,4.65576 L3.62354,7.55322 C3.65153,7.55322 3.67253,7.6897 3.68652,7.96265 C3.70052,8.2356 3.70752,8.53654 3.70752,8.86548 C3.70752,9.19442 3.70752,9.50236 3.70752,9.78931 C3.70752,10.0763 3.70752,10.2477 3.70752,10.3037 L3.7915,10.3037 C3.90348,10.3037 4.08195,10.2582 4.3269,10.1672 C4.57186,10.0763 4.82381,9.97477 5.08276,9.86279 C5.34172,9.75081 5.58667,9.65283 5.81763,9.56885 C6.04858,9.48486 6.20605,9.45687 6.29004,9.48486 C6.40202,9.40088 6.55249,9.35189 6.74146,9.33789 C6.93042,9.32389 7.09489,9.31689 7.23486,9.31689 L7.0249,8.75 C7.0249,8.69401 7.0459,8.64502 7.08789,8.60303 C7.12988,8.56104 7.17887,8.51204 7.23486,8.45605 M-3.83008,4.36182 C-3.83008,4.24984 -3.79159,4.10636 -3.7146,3.9314 C-3.63761,3.75643 -3.55713,3.59896 -3.47314,3.45898 C-3.36117,3.29102 -3.23519,3.10205 -3.09521,2.89209 C-3.01123,3.10205 -2.90625,3.29102 -2.78027,3.45898 C-2.69629,3.59896 -2.6193,3.75643 -2.54932,3.9314 C-2.47933,4.10636 -2.44434,4.24984 -2.44434,4.36182 C-2.44434,4.55778 -2.50033,4.72925 -2.6123,4.87622 C-2.72428,5.02319 -2.88525,5.09668 -3.09521,5.09668 C-3.29118,5.09668 -3.46265,5.02319 -3.60962,4.87622 C-3.75659,4.72925 -3.83008,4.55778 -3.83008,4.36182 M-0.470703,4.76074 C-0.470703,4.66276 -0.442708,4.55078 -0.386719,4.4248 C-0.330729,4.29883 -0.267741,4.16585 -0.197754,4.02588 C-0.11377,3.87191 -0.0157878,3.71094 0.0961914,3.54297 C0.180176,3.71094 0.26416,3.87191 0.348145,4.02588 C0.404134,4.16585 0.460124,4.29883 0.516113,4.4248 C0.572103,4.55078 0.600098,4.66276 0.600098,4.76074 C0.600098,4.92871 0.551107,5.08968 0.453125,5.24365 C0.355143,5.39762 0.236165,5.47461 0.0961914,5.47461 C-0.0997721,5.47461 -0.243245,5.39762 -0.334229,5.24365 C-0.425212,5.08968 -0.470703,4.92871 -0.470703,4.76074 M2.1958,2.89209 C2.1958,2.75212 2.23779,2.59115 2.32178,2.40918 C2.40576,2.22721 2.51074,2.04525 2.63672,1.86328 C2.7487,1.66732 2.88867,1.45736 3.05664,1.2334 C3.19661,1.45736 3.32959,1.66732 3.45557,1.86328 C3.56755,2.04525 3.66553,2.22721 3.74951,2.40918 C3.8335,2.59115 3.87549,2.75212 3.87549,2.89209 C3.87549,3.13005 3.7985,3.34001 3.64453,3.52197 C3.49056,3.70394 3.2946,3.79492 3.05664,3.79492 C2.83268,3.79492 2.63322,3.70394 2.45825,3.52197 C2.28328,3.34001 2.1958,3.13005 2.1958,2.89209 "/>
</g>

<g fill="#a61215" fill-opacity="1" stroke="none" transform="matrix(1,0,0,1,0,0)"
font-family="MS Shell Dlg 2" font-size="7.8" font-weight="400" font-style="normal" 
>
</g>
</g>
</svg>
