<svg xmlns="http://www.w3.org/2000/svg" version="1.2" viewBox="0 0 42.52 42.52" height="56.693" width="56.693">
   <g stroke-linejoin="bevel" stroke-linecap="square" fill-rule="evenodd" stroke="none" fill="none" font-weight="400"
      font-size="7.8" font-family="'MS Shell Dlg 2'">
      <path
         d="M42.52 21.26C42.52 33 33 42.52 21.26 42.52 9.518 42.52 0 33 0 21.26 0 9.518 9.518 0 21.26 0 33 0 42.52 9.518 42.52 21.26"
         vector-effect="non-scaling-stroke" fill="#a61215" />
      <path
         d="M25.43 11.344c.027.028.041.05.041.063 0 .014-.014.007-.042-.02v-.043m7.958 18.309c.21.168.315.51.315 1.028 0 .322-.088.62-.263.893-.175.273-.374.41-.598.41h-7.874l-14.11.377a1 1 0 01-.272-.063 26.114 26.114 0 00-.388-.126 7.377 7.377 0 01-.368-.126.898.898 0 00-.21-.063c-.14 0-.262-.073-.367-.22a.743.743 0 01-.158-.43c0-.029.123-.057.368-.085.245-.028.518-.063.819-.105.3-.042.58-.077.84-.105.258-.028.388-.063.388-.105-.028-.028-.179-.042-.452-.042h-.902a8.28 8.28 0 01-.882-.042c-.26-.028-.389-.084-.389-.168 0-.391.102-.755.305-1.091.203-.336.416-.504.64-.504l11.527-.294-.903-.021c-.574-.014-1.291-.028-2.152-.042-.86-.014-1.792-.028-2.792-.042-1.001-.014-1.925-.028-2.772-.042a68.06 68.06 0 01-2.131-.063c-.574-.028-.86-.07-.86-.126 0-.154.013-.28.041-.378a.968.968 0 01.126-.273c-.112-.112-.168-.273-.168-.483 0-.336.19-.546.567-.63l1.932-.23c0-.029-.109-.05-.326-.064a69.31 69.31 0 00-.714-.042 68.993 68.993 0 01-.713-.042c-.217-.014-.326-.049-.326-.105 0-.224.032-.451.095-.682.063-.231.136-.374.22-.43a2.33 2.33 0 01-.168-.903c0-.546.14-.917.42-1.113v-.483c0-.196.021-.367.063-.514.042-.147.09-.29.147-.43l2.247-.253-2.08-.084c-.055-.154-.083-.413-.083-.777 0-.406.09-.735.273-.986-.238.112-.427.168-.567.168-.378 0-.65-.161-.819-.483h-.168v-.252a1.29 1.29 0 01-.21-.693c0-.14.07-.308.21-.504v-1.26h.651a1.25 1.25 0 01.252-.44.497.497 0 01.378-.19c.028 0 .07.028.126.084l.063.042v-.483h-.19c0-.112.11-.175.326-.189.217-.014.487-.02.809-.02h3.212c-.028-.029-.2-.057-.514-.085-.315-.028-.651-.063-1.008-.105a40.967 40.967 0 00-.987-.105c-.3-.028-.451-.07-.451-.126 0-.21.077-.378.23-.504a.835.835 0 01.547-.188c.112 0 .196.042.252.126.055-.028.055-.063 0-.105a1.138 1.138 0 00-.231-.126 20.54 20.54 0 01-.242-.105c-.063-.028-.066-.042-.01-.042l1.217.252v-.819c.196-.168.54-.252 1.03-.252.027 0 .157-.014.388-.042.23-.028.49-.053.776-.074.287-.02.546-.045.777-.073.231-.028.36-.042.389-.042l-3.612-.168c0-.084.133-.19.4-.315.265-.126.433-.238.503-.336v-.168h1.491v-1.029l3.695-.084a21.734 21.734 0 00-.745-.063 69.282 69.282 0 00-.714-.042 12.287 12.287 0 00-.64-.02l.735-.442 1.28-.126c0-.028-.07-.056-.21-.084-.14-.028-.297-.056-.472-.084a12.5 12.5 0 01-.472-.084c-.14-.028-.21-.056-.21-.084 0-.14.112-.21.335-.21.224 0 .385-.063.483-.189V8.93h1.491a5.12 5.12 0 01.483-.231c.168-.07.336-.105.504-.105.35 0 .647.077.892.23a.746.746 0 01.368.672c0 .168-.105.35-.315.546h.315c.28 0 .497.028.65.084.057-.056.113-.084.169-.084h.168c.223 0 .437.088.64.263a.858.858 0 01.304.682c.056.056.063.077.021.063a.546.546 0 00-.168-.02h-.22c-.077 0-.116.013-.116.041.266 0 .511.056.735.168h.126v.105c-.14-.07-.21-.056-.21.042 0 .112-.056.224-.168.336a.285.285 0 01.084.21v.273l.483-.273v.168c.056.028.182.08.378.157l.62.242c.217.084.412.175.587.273.175.098.263.175.263.23 0 .07-.196.113-.588.127a47.4 47.4 0 00-1.26.063c-.546.028-1.162.042-1.847.042.028.028.241.056.64.084a87.25 87.25 0 012.687.23c.413.043.634.092.662.148h.525c.056 0 .16.066.315.2.154.132.23.24.23.325h.4c.28 0 .521.063.724.188.203.126.304.294.304.504 0 .112-.028.196-.084.252.028.028-.147.05-.525.063-.377.014-.794.028-1.249.042-.455.014-.868.035-1.239.063-.37.028-.542.07-.514.126h3.947c.084-.084.273-.126.567-.126.364 0 .546.07.546.21.154.084.231.14.231.168 0 .042-.077.105-.23.19a.378.378 0 01.146.293v.084c.224 0 .43.021.62.063.188.042.31.105.367.19h.084l-.567 2.33-1.638.294.651.273c.112 0 .214.084.305.252a3.59 3.59 0 01.388 1.25c.028.23.042.387.042.471a.793.793 0 01-.042.252c-.028.084-.07.182-.126.294.056.098.098.196.126.294.028.098.042.245.042.441 0 .14-.014.262-.042.367-.028.105-.042.2-.042.284h.084c.224.084.416.283.577.598.161.315.242.676.242 1.082 0 .223-.035.444-.105.66-.07.218-.154.396-.252.536a2.833 2.833 0 01.189 1.029v.273l-2.499.294 2.499.084c.42.294.63.784.63 1.47v.294m-4.892-3.906c-.056-.056-.05-.115.02-.178.07-.063.155-.13.253-.2s.2-.14.304-.21c.105-.07.158-.146.158-.23 0-.084-.046-.179-.137-.284a90.134 90.134 0 00-.283-.325 2.627 2.627 0 01-.252-.336c-.07-.112-.091-.203-.063-.273l-.4-2.058c-.055-.028-.083-.164-.083-.41 0-.244.02-.503.063-.776.042-.273.087-.546.136-.819.05-.273.074-.465.074-.577 0-.056.098-.084.294-.084h.682c.259 0 .504-.007.735-.021.23-.014.374-.05.43-.105l-2.96-.336a.54.54 0 01-.063-.336c.014-.126.042-.252.084-.378s.077-.242.105-.347c.028-.105.014-.185-.042-.241l-4.64-.546c-.182.084-.43.12-.746.105a17.567 17.567 0 00-.724-.02c-.462 0-.833-.078-1.113-.232l-2.792.231c-.07.056.003.098.22.126.217.028.455.049.714.063.259.014.483.028.672.042.189.014.241.021.157.021-.098 0-.346.007-.745.021a35.99 35.99 0 01-2.488 0c-.378-.014-.609-.049-.693-.105l-.65 1.029c0 .028.03.105.094.23.063.127.13.27.2.431.07.161.118.322.146.483.028.161.014.27-.042.326h-2.057c.028.084.14.14.336.168.195.028.409.056.64.084.23.028.44.063.63.104.189.042.283.105.283.19 0 .49-.038.972-.115 1.448-.077.476-.228.798-.452.966l-.462 1.239c.252-.028.42.01.504.115a.57.57 0 01.126.368c0 .168-.028.37-.084.609 0 .14-.115.23-.346.273-.231.042-.49.07-.777.084-.287.014-.55.028-.787.042-.238.014-.371.062-.4.146.029.056.134.077.316.063.182-.014.381-.028.598-.042.217-.014.413-.028.588-.042.175-.014.262-.007.262.021 0 .056.042.228.126.515.084.287.098.43.042.43.084 0 .098.028.042.084-.056.056-.13.123-.22.2a1.32 1.32 0 00-.2.2c-.042.055-.007.083.105.083a35.863 35.863 0 001.67-.084 35.832 35.832 0 011.648-.084c.084 0 .185-.014.304-.042.12-.028.22-.042.305-.042l-.126-.063.084-3.128h.63l-.084 3.233c.098 0 .175.014.23.042h.085c.14-.056.266-.094.377-.115.112-.021.26-.032.441-.032.084 0 .14.032.168.095a.913.913 0 01.063.22c.014.084.035.161.063.231.028.07.084.12.168.147l.945.21v-.21c0-.112.007-.318.021-.62.014-.3.028-.73.042-1.29a58.6 58.6 0 01.105-2.163l.819.252-.336 2.33.336 1.848h.084c.154-.098.41-.136.766-.115.357.02.662.031.914.031.028-.07.08-.427.157-1.07a24.57 24.57 0 01.326-1.995l-.357-2.142 1.091-.273.126 2.898c.028 0 .05.136.063.409.014.273.021.574.021.903V27.595h.084c.112 0 .29-.045.536-.136.245-.091.497-.193.756-.305.259-.112.504-.21.734-.294.231-.084.389-.112.473-.084A.843.843 0 0128 26.63c.19-.014.354-.02.494-.02l-.21-.568c0-.056.02-.105.063-.147l.147-.147M17.43 21.653c0-.112.038-.255.115-.43.077-.175.158-.333.242-.473l.378-.567c.084.21.189.4.315.567a3.3 3.3 0 01.23.473c.07.175.105.318.105.43a.825.825 0 01-.167.515c-.112.147-.273.22-.483.22a.705.705 0 01-.515-.22.705.705 0 01-.22-.515m3.36.4c0-.099.027-.21.083-.337.056-.126.12-.259.19-.399a6.4 6.4 0 01.293-.483c.084.168.168.33.252.483.056.14.112.273.168.4a.843.843 0 01.084.335.886.886 0 01-.147.483c-.098.154-.217.231-.357.231-.196 0-.34-.077-.43-.231a.936.936 0 01-.137-.483m2.667-1.869c0-.14.042-.3.126-.482.084-.182.189-.364.315-.546a6.14 6.14 0 01.42-.63c.14.224.272.434.398.63a5.2 5.2 0 01.294.546c.084.181.126.342.126.482a.946.946 0 01-.23.63.736.736 0 01-.589.273.81.81 0 01-.598-.273.882.882 0 01-.262-.63"
         fill-opacity=".949" fill="#fff" />
   </g>
</svg>