<?xml version="1.0" encoding="UTF-8" standalone="no"?>
<svg
   xmlns:dc="http://purl.org/dc/elements/1.1/"
   xmlns:cc="http://creativecommons.org/ns#"
   xmlns:rdf="http://www.w3.org/1999/02/22-rdf-syntax-ns#"
   xmlns:svg="http://www.w3.org/2000/svg"
   xmlns="http://www.w3.org/2000/svg"
   xmlns:sodipodi="http://sodipodi.sourceforge.net/DTD/sodipodi-0.dtd"
   xmlns:inkscape="http://www.inkscape.org/namespaces/inkscape"
   inkscape:version="1.0 (4035a4fb49, 2020-05-01)"
   sodipodi:docname="1813.svg"
   id="svg20"
   version="1.2"
   viewBox="0 0 42.519639 42.519639"
   height="14.999999mm"
   width="14.999999mm">
  <metadata
     id="metadata24">
    <rdf:RDF>
      <cc:Work
         rdf:about="">
        <dc:format>image/svg+xml</dc:format>
        <dc:type
           rdf:resource="http://purl.org/dc/dcmitype/StillImage" />
        <dc:title>Qt SVG Document</dc:title>
      </cc:Work>
    </rdf:RDF>
  </metadata>
  <sodipodi:namedview
     inkscape:current-layer="svg20"
     inkscape:window-maximized="0"
     inkscape:window-y="0"
     inkscape:window-x="0"
     inkscape:cy="28.346482"
     inkscape:cx="28.346482"
     inkscape:zoom="5.8410537"
     showgrid="false"
     id="namedview22"
     inkscape:window-height="480"
     inkscape:window-width="1034"
     inkscape:pageshadow="2"
     inkscape:pageopacity="0"
     guidetolerance="10"
     gridtolerance="10"
     objecttolerance="10"
     borderopacity="1"
     bordercolor="#666666"
     pagecolor="#ffffff" />
  <title
     id="title2">Qt SVG Document</title>
  <desc
     id="desc4">Generated with Qt</desc>
  <defs
     id="defs6" />
  <g
     transform="translate(5.25984,5.25984)"
     id="g18"
     stroke-linejoin="bevel"
     stroke-linecap="square"
     fill-rule="evenodd"
     stroke-width="1"
     stroke="#000000"
     fill="none">
    <g
       id="g10"
       font-style="normal"
       font-weight="400"
       font-size="7.8px"
       font-family="'MS Shell Dlg 2'"
       stroke="none"
       fill-opacity="1"
       fill="#a61215">
      <path
         id="path8"
         d="M 37.2598,16 C 37.2598,27.7415 27.7415,37.2598 16,37.2598 4.25851,37.2598 -5.25984,27.7415 -5.25984,16 -5.25984,4.25851 4.25851,-5.25984 16,-5.25984 27.7415,-5.25984 37.2598,4.25851 37.2598,16"
         fill-rule="evenodd"
         vector-effect="non-scaling-stroke" />
    </g>
    <g
       id="g14"
       font-style="normal"
       font-weight="400"
       font-size="7.8px"
       font-family="'MS Shell Dlg 2'"
       transform="translate(16,12.0315)"
       stroke="none"
       fill-opacity="0.94902"
       fill="#ffffff">
      <path
         id="path12"
         d="m 4.16943,-5.94727 c 0.028,0.028 0.042,0.049 0.042,0.06299 0,0.014 -0.014,0.007 -0.042,-0.02099 v -0.042 M 12.127,12.3613 c 0.2099,0.168 0.3149,0.5109 0.3149,1.0288 0,0.322 -0.0875,0.6194 -0.2625,0.8924 -0.1749,0.2729 -0.3744,0.4094 -0.5983,0.4094 H 3.70752 l -14.10942,0.3779 c -0.0559,0 -0.1469,-0.021 -0.2729,-0.063 -0.126,-0.042 -0.2555,-0.0839 -0.3884,-0.1259 -0.133,-0.042 -0.2555,-0.084 -0.3675,-0.126 -0.1119,-0.042 -0.1819,-0.063 -0.2099,-0.063 -0.14,0 -0.2625,-0.0735 -0.3675,-0.2205 -0.1049,-0.1469 -0.1574,-0.2904 -0.1574,-0.4304 0,-0.028 0.1224,-0.056 0.3674,-0.084 0.245,-0.028 0.5179,-0.063 0.8189,-0.1049 0.3009,-0.042 0.5808,-0.077 0.8398,-0.105 0.25895,-0.028 0.38842,-0.063 0.38842,-0.105 -0.02799,-0.028 -0.17846,-0.042 -0.45142,-0.042 -0.2729,0 -0.5739,0 -0.9028,0 -0.329,0 -0.6229,-0.014 -0.8819,-0.042 -0.2589,-0.028 -0.3884,-0.084 -0.3884,-0.168 0,-0.3919 0.1015,-0.7558 0.3045,-1.0918 0.2029,-0.3359 0.4164,-0.5039 0.6403,-0.5039 L 0.0961914,11.5005 c -0.0279948,0 -0.3289384,-0.007 -0.9028324,-0.021 -0.573889,-0.014 -1.291259,-0.028 -2.152099,-0.042 -0.86084,-0.014 -1.79167,-0.028 -2.79248,-0.042 -1.00081,-0.014 -1.92464,-0.028 -2.77149,-0.042 -0.84684,-0.014 -1.55719,-0.035 -2.13109,-0.063 -0.5739,-0.028 -0.8608,-0.07 -0.8608,-0.1259 0,-0.154 0.0139,-0.28 0.0419,-0.378 0.028,-0.098 0.07,-0.1889 0.126,-0.2729 -0.112,-0.112 -0.1679,-0.273 -0.1679,-0.4829 0,-0.33598 0.1889,-0.54594 0.5668,-0.62992 l 1.93169,-0.23096 c 0,-0.02799 -0.10848,-0.04899 -0.32544,-0.06299 -0.21696,-0.01399 -0.45492,-0.02799 -0.71385,-0.04199 -0.259,-0.014 -0.4969,-0.02799 -0.7139,-0.04199 -0.2169,-0.014 -0.3254,-0.04899 -0.3254,-0.10498 0,-0.22396 0.0315,-0.45142 0.0945,-0.68237 0.0629,-0.23096 0.1364,-0.37443 0.2204,-0.43042 -0.056,-0.13998 -0.098,-0.28345 -0.126,-0.43042 -0.028,-0.14698 -0.042,-0.30445 -0.042,-0.47242 0,-0.54589 0.14,-0.91683 0.42,-1.11279 V 5.30664 c 0,-0.19596 0.021,-0.36743 0.063,-0.5144 0.0419,-0.14698 0.0909,-0.29045 0.1469,-0.43042 L -8.07129,4.10986 -10.1499,4.02588 c -0.056,-0.15397 -0.084,-0.41292 -0.084,-0.77686 0,-0.40592 0.091,-0.73486 0.27296,-0.98681 -0.23796,0.11198 -0.42696,0.16797 -0.56686,0.16797 -0.378,0 -0.6509,-0.16097 -0.8189,-0.48291 h -0.1679 V 1.69531 c -0.14,-0.22396 -0.21,-0.45491 -0.21,-0.69287 0,-0.139973 0.07,-0.307941 0.21,-0.503905 V -0.76123 h 0.6508 c 0.056,-0.167969 0.14,-0.31494 0.252,-0.44092 0.112,-0.12598 0.2379,-0.18896 0.3779,-0.18896 0.028,0 0.07,0.02799 0.126,0.08398 l 0.063,0.04199 v -0.48291 h -0.189 c 0,-0.11198 0.1085,-0.17496 0.32545,-0.18896 0.21696,-0.014 0.48641,-0.021 0.80835,-0.021 h 3.2124 C -5.91569,-1.986 -6.08716,-2.014 -6.4021,-2.04199 c -0.31494,-0.028 -0.65088,-0.06299 -1.00781,-0.10498 -0.35694,-0.04199 -0.68587,-0.07699 -0.98682,-0.10498 -0.30094,-0.028 -0.45141,-0.06999 -0.45141,-0.12598 0,-0.20996 0.07698,-0.37793 0.23095,-0.50391 0.15397,-0.12597 0.33594,-0.18896 0.5459,-0.18896 0.11198,0 0.19596,0.04199 0.25195,0.12598 0.05599,-0.028 0.05599,-0.06299 0,-0.10498 -0.05599,-0.042 -0.13297,-0.08399 -0.23095,-0.12598 -0.09798,-0.04199 -0.17847,-0.07699 -0.24146,-0.10498 -0.06299,-0.028 -0.06649,-0.04199 -0.0105,-0.04199 l 1.21778,0.25195 v -0.73486 -0.08399 c 0.19596,-0.16797 0.5389,-0.25195 1.02881,-0.25195 0.02799,0 0.15747,-0.014 0.38842,-0.04199 0.23096,-0.028 0.48991,-0.05249 0.77686,-0.07349 0.28695,-0.021 0.5459,-0.04549 0.77685,-0.07349 0.23096,-0.02799 0.36044,-0.04199 0.38843,-0.04199 l -3.61133,-0.16797 c 0,-0.08398 0.13298,-0.18896 0.39893,-0.31494 0.26595,-0.12598 0.43392,-0.23795 0.50391,-0.33594 v -0.16797 h 1.49072 v -1.0288 l 3.69531,-0.08399 c 0.028,0 -0.03499,-0.007 -0.18896,-0.02099 -0.15397,-0.014 -0.33944,-0.028 -0.5564,-0.042 -0.21696,-0.01399 -0.45492,-0.02799 -0.71387,-0.04199 -0.25895,-0.014 -0.47241,-0.02099 -0.64038,-0.02099 l 0.73487,-0.44092 1.28076,-0.12598 c 0,-0.02799 -0.06999,-0.05599 -0.20996,-0.08398 -0.13998,-0.028 -0.29745,-0.05599 -0.47242,-0.08399 -0.17496,-0.02799 -0.33243,-0.05599 -0.47241,-0.08398 -0.13997,-0.028 -0.20996,-0.05599 -0.20996,-0.08399 0,-0.13997 0.11198,-0.20996 0.33594,-0.20996 0.22396,0 0.38493,-0.06299 0.48291,-0.18896 v -0.46192 h 1.490721 C -0.232747,-8.4458 -0.0717773,-8.52279 0.0961914,-8.59277 0.26416,-8.66276 0.432129,-8.69775 0.600098,-8.69775 c 0.349935,0 0.647382,0.07698 0.892332,0.23095 0.24496,0.15397 0.36743,0.37793 0.36743,0.67188 0,0.16797 -0.10498,0.34993 -0.31494,0.5459 h 0.31494 c 0.27995,0 0.49691,0.02799 0.65088,0.08398 0.05599,-0.05599 0.11198,-0.08398 0.16797,-0.08398 0.05599,0 0.11198,0 0.16797,0 0.22396,0 0.43742,0.08748 0.64038,0.26245 0.20296,0.17497 0.30444,0.40242 0.30444,0.68237 0.05599,0.05599 0.06299,0.07699 0.021,0.06299 -0.04199,-0.014 -0.09798,-0.021 -0.16797,-0.021 -0.06999,0 -0.14347,0 -0.22046,0 -0.07698,0 -0.11548,0.014 -0.11548,0.042 0.26595,0 0.51091,0.05598 0.73487,0.16796 h 0.12597 v 0.10498 c -0.13997,-0.06998 -0.20996,-0.05599 -0.20996,0.042 0,0.11198 -0.05599,0.22395 -0.16797,0.33593 0.05599,0.05599 0.08399,0.12598 0.08399,0.20996 0,0.08399 0,0.17497 0,0.27295 L 4.3584,-5.35938 v 0.16797 c 0.05599,0.028 0.18196,0.08049 0.37793,0.15747 0.19596,0.07699 0.40242,0.15748 0.61938,0.24146 0.21696,0.08398 0.41293,0.17497 0.58789,0.27295 0.17497,0.09798 0.26245,0.17497 0.26245,0.23096 0,0.06998 -0.19596,0.11197 -0.58789,0.12597 -0.39192,0.014 -0.81184,0.035 -1.25976,0.06299 -0.5459,0.028 -1.16179,0.04199 -1.84766,0.04199 0.028,0.028 0.24146,0.05599 0.64038,0.08399 0.39893,0.02799 0.84335,0.06299 1.33326,0.10498 0.4899,0.04199 0.94132,0.08398 1.35424,0.12597 0.41293,0.042 0.63339,0.09099 0.66138,0.14698 h 0.5249 c 0.05599,0 0.16097,0.06648 0.31494,0.19946 0.15398,0.13298 0.23096,0.24145 0.23096,0.32544 h 0.39893 c 0.27994,0 0.5214,0.06299 0.72436,0.18896 0.20296,0.12598 0.30445,0.29395 0.30445,0.50391 0,0.11198 -0.028,0.19596 -0.08399,0.25195 0.028,0.028 -0.14697,0.04899 -0.5249,0.06299 -0.37793,0.014 -0.79435,0.028 -1.24927,0.04199 -0.45491,0.014 -0.86784,0.035 -1.23877,0.06299 -0.37093,0.028 -0.5424,0.06999 -0.5144,0.12598 h 3.94726 c 0.08399,-0.08399 0.27295,-0.12598 0.5669,-0.12598 0.36393,0 0.54593,0.06999 0.54593,0.20996 0.1539,0.08399 0.2309,0.13998 0.2309,0.16797 0,0.04199 -0.077,0.10498 -0.2309,0.18897 0.0979,0.08398 0.1469,0.18196 0.1469,0.29394 v 0.08399 c 0.224,0 0.4305,0.020992 0.6194,0.062985 0.189,0.041992 0.3115,0.10498 0.3675,0.188965 H 11.665 L 11.0981,1.56934 9.46045,1.86328 10.1113,2.13623 c 0.112,0 0.2135,0.08398 0.3045,0.25195 0.091,0.16797 0.1714,0.36044 0.2414,0.5774 0.07,0.21696 0.119,0.44091 0.147,0.67187 0.028,0.23096 0.042,0.38843 0.042,0.47241 0,0.08399 -0.014,0.16797 -0.042,0.25196 -0.028,0.08398 -0.07,0.18196 -0.126,0.29394 0.056,0.09798 0.098,0.19597 0.126,0.29395 0.028,0.09798 0.042,0.24495 0.042,0.44092 0,0.13997 -0.014,0.26245 -0.042,0.36743 -0.028,0.10498 -0.042,0.19946 -0.042,0.28344 h 0.084 c 0.2239,0.08399 0.4164,0.28345 0.5774,0.59839 0.161,0.31494 0.2414,0.67538 0.2414,1.0813 0,0.22396 -0.035,0.44442 -0.1049,0.66138 -0.07,0.21696 -0.154,0.39542 -0.252,0.5354 0.056,0.13997 0.1015,0.29744 0.1365,0.47241 0.035,0.17497 0.0525,0.36043 0.0525,0.5564 v 0.27292 l -2.49856,0.294 2.49856,0.084 c 0.4199,0.2939 0.6299,0.7838 0.6299,1.4697 v 0.2939 M 7.23486,8.45605 C 7.17887,8.40007 7.18587,8.34058 7.25586,8.27759 7.32585,8.2146 7.40983,8.14811 7.50781,8.07813 7.60579,8.00814 7.70728,7.93815 7.81226,7.86816 7.91724,7.79818 7.96973,7.72119 7.96973,7.63721 7.96973,7.55322 7.92424,7.45874 7.83325,7.35376 7.74227,7.24878 7.64779,7.1403 7.5498,7.02832 7.45182,6.91634 7.36784,6.80436 7.29785,6.69238 7.22786,6.5804 7.20687,6.48942 7.23486,6.41943 L 6.83594,4.36182 C 6.77995,4.33382 6.75195,4.19735 6.75195,3.95239 c 0,-0.24495 0.021,-0.5039 0.06299,-0.77685 C 6.85693,2.90259 6.90243,2.62964 6.95142,2.35669 7.00041,2.08374 7.0249,1.89128 7.0249,1.7793 c 0,-0.05599 0.09798,-0.08399 0.29395,-0.08399 0.19596,0 0.42342,0 0.68237,0 0.25895,0 0.50391,-0.007 0.73486,-0.02099 C 8.96704,1.66032 9.11051,1.62533 9.1665,1.56934 L 6.20605,1.2334 C 6.15007,1.13542 6.12907,1.02344 6.14307,0.897461 6.15706,0.771484 6.18506,0.645508 6.22705,0.519531 6.26904,0.393555 6.30404,0.278076 6.33203,0.173096 6.36003,0.0681152 6.34603,-0.0123698 6.29004,-0.0683594 L 1.6499,-0.614258 C 1.46794,-0.530273 1.21948,-0.49528 0.904541,-0.509277 0.5896,-0.523275 0.348145,-0.530273 0.180176,-0.530273 c -0.461914,0 -0.832845,-0.076986 -1.112793,-0.230957 L -3.7251,-0.530273 c -0.06998,0.055989 0.0035,0.097981 0.22046,0.125976 0.21696,0.027995 0.45492,0.048991 0.71387,0.062988 0.25895,0.013998 0.48291,0.027995 0.67187,0.041993 0.18897,0.013997 0.24146,0.020996 0.15747,0.020996 -0.09798,0 -0.34643,0.006998 -0.74536,0.020996 -0.39892,0.013997 -0.81884,0.020996 -1.25976,0.020996 -0.44092,0 -0.85034,-0.006999 -1.22827,-0.020996 -0.37793,-0.013998 -0.60889,-0.048991 -0.69288,-0.104981 l -0.65087,1.028809 c 0,0.027995 0.03149,0.10498 0.09448,0.230957 0.06299,0.125979 0.12947,0.269449 0.19946,0.430419 0.06999,0.16097 0.11898,0.32194 0.14697,0.48291 0.028,0.16097 0.014,0.26945 -0.04199,0.32544 h -2.05762 c 0.028,0.08398 0.13998,0.13997 0.33594,0.16797 0.19597,0.02799 0.40943,0.05599 0.64038,0.08398 0.23096,0.028 0.44092,0.06299 0.62989,0.10498 0.18896,0.042 0.28344,0.10498 0.28344,0.18897 0,0.48991 -0.03849,0.97282 -0.11548,1.44873 -0.07698,0.47591 -0.22745,0.79785 -0.45141,0.96582 l -0.46192,1.23877 c 0.25196,-0.028 0.41993,0.0105 0.50391,0.11548 0.08398,0.10498 0.12598,0.22746 0.12598,0.36743 0,0.16797 -0.028,0.37093 -0.08399,0.60889 0,0.13997 -0.11548,0.23095 -0.34643,0.27295 -0.23096,0.04199 -0.48991,0.06998 -0.77686,0.08398 -0.28694,0.014 -0.5494,0.02799 -0.78735,0.04199 -0.23796,0.014 -0.37093,0.06299 -0.39893,0.14697 0.028,0.05599 0.13298,0.07699 0.31494,0.06299 0.18197,-0.01399 0.38143,-0.02799 0.59839,-0.04199 0.21696,-0.014 0.41293,-0.02799 0.58789,-0.04199 0.17497,-0.014 0.26245,-0.007 0.26245,0.02099 0,0.05599 0.042,0.22746 0.12598,0.51441 0.08399,0.28695 0.09798,0.43042 0.04199,0.43042 0.08399,0 0.09798,0.02799 0.042,0.08398 -0.05599,0.05599 -0.12948,0.12248 -0.22046,0.19947 -0.09099,0.07698 -0.15747,0.14347 -0.19947,0.19946 -0.04199,0.05599 -0.007,0.08398 0.10498,0.08398 0.06999,0 0.26945,-0.007 0.59839,-0.02099 0.32894,-0.014 0.68587,-0.035 1.0708,-0.06299 0.38493,-0.028 0.74187,-0.04899 1.0708,-0.06299 0.32894,-0.014 0.52141,-0.021 0.5774,-0.021 0.08398,0 0.18546,-0.01399 0.30444,-0.04199 0.11898,-0.02799 0.22046,-0.04199 0.30444,-0.04199 L -3.64111,9.16992 -3.55713,6.0415 h 0.62988 l -0.08398,3.2334 c 0.09798,0 0.17497,0.014 0.23096,0.04199 h 0.08398 c 0.13997,-0.05599 0.26595,-0.09448 0.37793,-0.11547 0.11198,-0.021 0.25895,-0.0315 0.44092,-0.0315 0.08398,0 0.13997,0.0315 0.16797,0.09448 0.02799,0.06299 0.04899,0.13648 0.06299,0.22046 0.01399,0.08399 0.03499,0.16097 0.06298,0.23096 0.028,0.06999 0.08399,0.11898 0.16797,0.14697 l 0.944827,0.21001 c 0,-0.028 0,-0.09803 0,-0.21001 0,-0.11198 0.006999,-0.31844 0.020996,-0.61938 0.013997,-0.30095 0.027995,-0.73137 0.041992,-1.29126 0.013998,-0.5599 0.048991,-1.28076 0.104981,-2.1626 L 0.516113,6.0415 0.180176,8.37207 0.516113,10.2197 h 0.083985 c 0.153971,-0.098 0.409422,-0.1364 0.766362,-0.1155 0.35693,0.021 0.66137,0.0315 0.91333,0.0315 C 2.30778,10.0658 2.36027,9.70882 2.43726,9.06494 2.51424,8.42106 2.62272,7.75618 2.7627,7.07031 L 2.40576,4.92871 3.49756,4.65576 3.62354,7.55322 c 0.02799,0 0.04899,0.13648 0.06298,0.40943 0.014,0.27295 0.021,0.57389 0.021,0.90283 0,0.32894 0,0.63688 0,0.92383 0,0.28699 0,0.45839 0,0.51439 H 3.7915 c 0.11198,0 0.29045,-0.0455 0.5354,-0.1365 C 4.57186,10.0763 4.82381,9.97477 5.08276,9.86279 5.34172,9.75081 5.58667,9.65283 5.81763,9.56885 6.04858,9.48486 6.20605,9.45687 6.29004,9.48486 6.40202,9.40088 6.55249,9.35189 6.74146,9.33789 c 0.18896,-0.014 0.35343,-0.021 0.4934,-0.021 L 7.0249,8.75 c 0,-0.05599 0.021,-0.10498 0.06299,-0.14697 C 7.12988,8.56104 7.17887,8.51204 7.23486,8.45605 M -3.83008,4.36182 c 0,-0.11198 0.03849,-0.25546 0.11548,-0.43042 0.07699,-0.17497 0.15747,-0.33244 0.24146,-0.47242 0.11197,-0.16796 0.23795,-0.35693 0.37793,-0.56689 0.08398,0.20996 0.18896,0.39893 0.31494,0.56689 0.08398,0.13998 0.16097,0.29745 0.23095,0.47242 0.06999,0.17496 0.10498,0.31844 0.10498,0.43042 0,0.19596 -0.05599,0.36743 -0.16796,0.5144 -0.11198,0.14697 -0.27295,0.22046 -0.48291,0.22046 -0.19597,0 -0.36744,-0.07349 -0.51441,-0.22046 -0.14697,-0.14697 -0.22046,-0.31844 -0.22046,-0.5144 m 3.359377,0.39892 c 0,-0.09798 0.027995,-0.20996 0.083984,-0.33594 0.05599,-0.12597 0.118978,-0.25895 0.188965,-0.39892 C -0.11377,3.87191 -0.0157878,3.71094 0.0961914,3.54297 0.180176,3.71094 0.26416,3.87191 0.348145,4.02588 0.404134,4.16585 0.460124,4.29883 0.516113,4.4248 c 0.05599,0.12598 0.083985,0.23796 0.083985,0.33594 0,0.16797 -0.048991,0.32894 -0.146973,0.48291 C 0.355143,5.39762 0.236165,5.47461 0.0961914,5.47461 -0.0997721,5.47461 -0.243245,5.39762 -0.334229,5.24365 -0.425212,5.08968 -0.470703,4.92871 -0.470703,4.76074 M 2.1958,2.89209 C 2.1958,2.75212 2.23779,2.59115 2.32178,2.40918 2.40576,2.22721 2.51074,2.04525 2.63672,1.86328 2.7487,1.66732 2.88867,1.45736 3.05664,1.2334 3.19661,1.45736 3.32959,1.66732 3.45557,1.86328 3.56755,2.04525 3.66553,2.22721 3.74951,2.40918 3.8335,2.59115 3.87549,2.75212 3.87549,2.89209 3.87549,3.13005 3.7985,3.34001 3.64453,3.52197 3.49056,3.70394 3.2946,3.79492 3.05664,3.79492 2.83268,3.79492 2.63322,3.70394 2.45825,3.52197 2.28328,3.34001 2.1958,3.13005 2.1958,2.89209"
         fill-rule="evenodd"
         vector-effect="none" />
    </g>
    <g
       id="g16"
       font-style="normal"
       font-weight="400"
       font-size="7.8px"
       font-family="'MS Shell Dlg 2'"
       stroke="none"
       fill-opacity="1"
       fill="#a61215" />
  </g>
</svg>
