<svg xmlns="http://www.w3.org/2000/svg" version="1.2" viewBox="0 0 42.52 42.52" height="56.693" width="56.693">
   <g stroke-linejoin="bevel" stroke-linecap="square" fill-rule="evenodd" stroke="none" fill="none" font-weight="400"
      font-size="7.8" font-family="'MS Shell Dlg 2'">
      <path
         d="M42.52 21.26C42.52 33 33 42.52 21.26 42.52 9.518 42.52 0 33 0 21.26 0 9.518 9.518 0 21.26 0 33 0 42.52 9.518 42.52 21.26"
         vector-effect="non-scaling-stroke" fill="#a61215" />
      <path
         d="M26.437 15.963l.672 18.834H15.456l.693-18.834h10.288m-3.842 10.12v-6.278c0-.405-.123-.738-.368-.997a1.16 1.16 0 00-.871-.388c-.406 0-.738.13-.997.388-.26.26-.389.592-.389.997v6.278h2.625m5.5-16.209l-.671.756v3.675h-1.302V12.54a.818.818 0 00-.294-.651c-.196-.168-.455-.252-.777-.252-.224 0-.444.084-.661.252a.787.787 0 00-.325.65v1.765H22.3V12.54a.806.806 0 00-.305-.651.991.991 0 00-.64-.252c-.322 0-.588.084-.798.252a.796.796 0 00-.315.65v1.765H18.48V12.54a.806.806 0 00-.305-.651.991.991 0 00-.64-.252c-.322 0-.592.084-.809.252a.787.787 0 00-.325.65v1.765h-1.239V10.63l-.693-.756 6.887-2.372 6.74 2.372"
         fill-opacity=".949" fill="#fff" />
   </g>
</svg>