<?xml version="1.0" encoding="UTF-8" standalone="no"?>
<svg width="11.2889mm" height="11.2889mm"
 viewBox="0 0 32 32"
 xmlns="http://www.w3.org/2000/svg" xmlns:xlink="http://www.w3.org/1999/xlink"  version="1.2" baseProfile="tiny">
<title>Qt SVG Document</title>
<desc>Generated with Qt</desc>
<defs>
</defs>
<g fill="none" stroke="black" stroke-width="1" fill-rule="evenodd" stroke-linecap="square" stroke-linejoin="bevel" >

<g fill="#a61215" fill-opacity="1" stroke="none" transform="matrix(1,0,0,1,0,0)"
font-family="MS Shell Dlg 2" font-size="7.8" font-weight="400" font-style="normal" 
>
<path vector-effect="non-scaling-stroke" fill-rule="evenodd" d="M37.2598,16 C37.2598,27.7415 27.7415,37.2598 16,37.2598 C4.25851,37.2598 -5.25984,27.7415 -5.25984,16 C-5.25984,4.25851 4.25851,-5.25984 16,-5.25984 C27.7415,-5.25984 37.2598,4.25851 37.2598,16 "/>
</g>

<g fill="#ffffff" fill-opacity="0.94902" stroke="none" transform="matrix(1,0,0,1,16,11.4646)"
font-family="MS Shell Dlg 2" font-size="7.8" font-weight="400" font-style="normal" 
>
<path vector-effect="none" fill-rule="evenodd" d="M11.959,14.6079 L2.32178,14.6079 C2.32178,13.3341 2.2098,12.3543 1.98584,11.6685 C1.76188,10.9826 1.51343,10.4752 1.24048,10.1462 C0.967529,9.8173 0.701579,9.62484 0.442627,9.56885 C0.183675,9.51286 0.0262044,9.48486 -0.0297852,9.48486 C-0.11377,9.48486 -0.285238,9.51986 -0.544189,9.58984 C-0.803141,9.65983 -1.06209,9.86629 -1.32104,10.2092 C-1.58,10.5522 -1.81795,11.0701 -2.03491,11.7629 C-2.25187,12.4558 -2.36035,13.4041 -2.36035,14.6079 L-11.9136,14.6079 L-11.5566,-6.17822 L-10.6958,-6.17822 L-10.6958,-5.40137 L-10.1079,-5.40137 L-10.1079,-6.17822 L-9.14209,-6.17822 L-9.14209,-5.40137 L-8.23926,-5.40137 L-8.23926,-6.17822 L-7.39941,-6.17822 L-7.39941,-5.40137 L-6.62256,-5.40137 L-6.62256,-6.17822 L-5.67773,-6.17822 L-5.67773,-5.40137 L-4.81689,-5.40137 L-4.81689,-6.17822 L-4.16602,-6.17822 L-4.16602,2.51416 L-3.47314,2.51416 L-3.47314,3.375 L-2.6123,3.375 L-2.6123,2.51416 L-1.83545,2.51416 L-1.83545,3.375 L-1.05859,3.375 L-1.05859,2.51416 L-0.0297852,2.51416 L-0.0297852,3.375 L0.873047,3.375 L0.873047,2.51416 L1.6499,2.51416 L1.6499,3.375 L2.40576,3.375 L2.40576,2.51416 L3.2666,2.51416 L3.2666,3.375 L4.04346,3.375 L4.04346,-1.13916 L4.73633,-1.13916 L4.73633,-0.404297 L5.55518,-0.404297 L5.55518,-1.13916 L6.58398,-1.13916 L6.58398,-0.404297 L7.36084,-0.404297 L7.36084,-1.13916 L8.22168,-1.13916 L8.22168,-0.404297 L8.99854,-0.404297 L8.99854,-1.13916 L9.98535,-1.13916 L9.98535,-0.404297 L10.8462,-0.404297 L10.8462,-1.13916 L11.707,-1.13916 L11.959,14.6079 M-6.79053,0.372559 C-6.79053,0.218587 -6.79053,-0.0298665 -6.79053,-0.372803 C-6.79053,-0.715739 -6.82552,-1.06567 -6.89551,-1.42261 C-6.96549,-1.77954 -7.08097,-2.09448 -7.24194,-2.36743 C-7.40291,-2.64038 -7.62337,-2.77686 -7.90332,-2.77686 C-8.25326,-2.77686 -8.50521,-2.64038 -8.65918,-2.36743 C-8.81315,-2.09448 -8.91813,-1.77954 -8.97412,-1.42261 C-9.03011,-1.06567 -9.05811,-0.715739 -9.05811,-0.372803 C-9.05811,-0.0298665 -9.05811,0.218587 -9.05811,0.372559 L-6.79053,0.372559"/>
</g>

<g fill="#a61215" fill-opacity="1" stroke="none" transform="matrix(1,0,0,1,0,0)"
font-family="MS Shell Dlg 2" font-size="7.8" font-weight="400" font-style="normal" 
>
</g>
</g>
</svg>
