<svg xmlns="http://www.w3.org/2000/svg" version="1.2" viewBox="0 0 42.52 42.52" height="56.693" width="56.693">
   <g stroke-linejoin="bevel" stroke-linecap="square" fill-rule="evenodd" stroke="none" fill="none" font-weight="400"
      font-size="7.8" font-family="'MS Shell Dlg 2'">
      <path
         d="M42.52 21.26C42.52 33 33 42.52 21.26 42.52 9.518 42.52 0 33 0 21.26 0 9.518 9.518 0 21.26 0 33 0 42.52 9.518 42.52 21.26"
         vector-effect="non-scaling-stroke" fill="#a61215" />
      <path
         d="M33.219 31.332h-9.637c0-1.273-.112-2.253-.336-2.94-.224-.685-.473-1.192-.746-1.521-.273-.33-.539-.522-.798-.578a3.5 3.5 0 00-.472-.084c-.084 0-.255.035-.514.105-.26.07-.518.277-.777.62-.26.343-.497.86-.714 1.553-.217.693-.326 1.642-.326 2.845H9.346l.357-20.786h.861v.777h.588v-.777h.966v.777h.903v-.777h.84v.777h.776v-.777h.945v.777h.86v-.777h.652v8.693h.693v.86h.86v-.86h.777v.86h.777v-.86h1.03v.86h.902v-.86h.777v.86h.756v-.86h.86v.86h.777v-4.514h.693v.735h.819v-.735h1.029v.735h.777v-.735h.86v.735h.777v-.735h.987v.735h.861v-.735h.86l.253 15.747m-18.75-14.235v-.745c0-.343-.035-.693-.105-1.05a2.97 2.97 0 00-.346-.945c-.161-.273-.382-.41-.661-.41-.35 0-.602.137-.756.41a2.785 2.785 0 00-.315.945 6.769 6.769 0 00-.084 1.05v.745h2.267"
         fill-opacity=".949" fill="#fff" />
   </g>
</svg>