<svg xmlns="http://www.w3.org/2000/svg" version="1.2" viewBox="0 0 42.52 42.52" height="56.693" width="56.693">
   <g stroke-linejoin="bevel" stroke-linecap="square" fill-rule="evenodd" stroke="none" fill="none" font-weight="400"
      font-size="7.8" font-family="'MS Shell Dlg 2'">
      <path
         d="M42.52 21.26C42.52 33 33 42.52 21.26 42.52 9.518 42.52 0 33 0 21.26 0 9.518 9.518 0 21.26 0 33 0 42.52 9.518 42.52 21.26"
         vector-effect="non-scaling-stroke" fill="#a61215" />
      <path
         d="M27.277 26.125c.154 1.232.178 2.38.073 3.444-.105 1.063-.13 1.84-.073 2.33.07.826-.01 1.519-.242 2.079-.23.56-.752.84-1.564.84h-9.616c-.406 0-.623-.123-.65-.368-.029-.245.02-.553.146-.924.126-.37.284-.78.473-1.228.189-.448.311-.882.367-1.302.112-.811.126-1.525.042-2.141-.084-.616 0-1.211.252-1.785.182-.252.266-.521.252-.808a3.66 3.66 0 00-.158-.882c-.09-.301-.192-.616-.304-.945a4.182 4.182 0 01-.21-1.018c-.294-2.52-.224-4.871.21-7.055.658-.14 1.288.091 1.89.693.602.602 1.05 1.393 1.343 2.373.196.713.252 1.5.168 2.362-.084.86-.259 1.5-.525 1.92.182-.167.336-.437.462-.808.126-.37.231-.78.315-1.228.084-.448.126-.9.126-1.354 0-.455-.056-.871-.168-1.25a5.956 5.956 0 00-.577-1.417 4.801 4.801 0 00-.84-1.091c-.315-.301-.644-.508-.987-.62a1.74 1.74 0 00-.997-.042H16.4c.028-.21.13-.521.304-.934.175-.413.357-.833.546-1.26a31.494 31.494 0 00.83-2.068c.266-.658.584-1.204.955-1.638.37-.434.77-.756 1.197-.965.427-.21.857-.308 1.291-.294.434.014.819.133 1.155.356.238.084.486.249.745.494.26.245.543.696.85 1.354a5.377 5.377 0 00-1.375 1.512c-.37.602-.612 1.316-.724 2.141-.084.574-.091 1.054-.021 1.439.07.385.189.714.357.987.168.272.36.503.577.692.217.19.445.354.683.494-.602-.686-.861-1.519-.777-2.499.112-1.022.311-1.872.598-2.55.287-.68.626-1.257 1.018-1.733.21.602.532 1.414.966 2.436.056.182.14.416.252.703.112.287.242.588.389.903.147.315.276.63.388.945.112.315.196.57.252.766.196.798.315 1.6.357 2.404.042.805.056 1.596.042 2.373-.014.776-.035 1.515-.063 2.215-.028.7 0 1.35.084 1.952m-9.07 6.53a2.682 2.682 0 001.06-.997c.273-.441.41-.92.41-1.438.027-.266-.029-.627-.169-1.082a10.11 10.11 0 00-.577-1.438 12.03 12.03 0 00-.777-1.375c-.273-.413-.514-.697-.724-.85.154.181.329.486.525.913.196.427.381.885.556 1.375.175.49.325.962.451 1.417.126.455.19.802.19 1.04-.085.937-.4 1.75-.945 2.435m4.472-9.805c-.14.728-.067 1.42.22 2.079.287.657.893 1.245 1.816 1.763a5.612 5.612 0 01-1.249-1.7c-.287-.616-.374-1.225-.262-1.827.112-.658.34-1.197.682-1.617.343-.42.871-.784 1.585-1.092-.714.224-1.326.508-1.837.85-.51.344-.83.858-.955 1.544m3.317 7.286a10.452 10.452 0 01-.661-1.817 6.137 6.137 0 01-.2-2.11c.056-.686.172-1.242.347-1.669.175-.427.416-.857.724-1.291-.364.308-.675.728-.934 1.26-.26.532-.445 1.168-.557 1.91-.07.756.018 1.463.263 2.12.245.659.584 1.19 1.018 1.597"
         fill-opacity=".949" fill="#fff" />
   </g>
</svg>