<?xml version="1.0" encoding="UTF-8" standalone="no"?>
<svg width="11.2889mm" height="11.2889mm"
 viewBox="0 0 32 32"
 xmlns="http://www.w3.org/2000/svg" xmlns:xlink="http://www.w3.org/1999/xlink"  version="1.2" baseProfile="tiny">
<title>Qt SVG Document</title>
<desc>Generated with Qt</desc>
<defs>
</defs>
<g fill="none" stroke="black" stroke-width="1" fill-rule="evenodd" stroke-linecap="square" stroke-linejoin="bevel" >

<g fill="#a61215" fill-opacity="1" stroke="none" transform="matrix(1,0,0,1,0,0)"
font-family="MS Shell Dlg 2" font-size="7.8" font-weight="400" font-style="normal" 
>
<path vector-effect="non-scaling-stroke" fill-rule="evenodd" d="M37.2598,16 C37.2598,27.7415 27.7415,37.2598 16,37.2598 C4.25851,37.2598 -5.25984,27.7415 -5.25984,16 C-5.25984,4.25851 4.25851,-5.25984 16,-5.25984 C27.7415,-5.25984 37.2598,4.25851 37.2598,16 "/>
</g>

<g fill="#ffffff" fill-opacity="0.94902" stroke="none" transform="matrix(1,0,0,1,16,12.0315)"
font-family="MS Shell Dlg 2" font-size="7.8" font-weight="400" font-style="normal" 
>
<path vector-effect="none" fill-rule="evenodd" d="M6.01709,8.83398 C6.17106,10.0658 6.19556,11.2135 6.09058,12.2773 C5.9856,13.3411 5.9611,14.118 6.01709,14.6079 C6.08708,15.4338 6.00659,16.1266 5.77563,16.6865 C5.54468,17.2464 5.02327,17.5264 4.21143,17.5264 L-5.40479,17.5264 C-5.81071,17.5264 -6.02767,17.4039 -6.05566,17.1589 C-6.08366,16.914 -6.03467,16.606 -5.90869,16.2351 C-5.78271,15.8642 -5.62524,15.4548 -5.43628,15.0068 C-5.24731,14.5589 -5.12484,14.125 -5.06885,13.7051 C-4.95687,12.8932 -4.94287,12.1794 -5.02686,11.5635 C-5.11084,10.9476 -5.02686,10.3527 -4.7749,9.77881 C-4.59294,9.52686 -4.50895,9.25741 -4.52295,8.97046 C-4.53695,8.68351 -4.58944,8.38957 -4.68042,8.08862 C-4.7714,7.78768 -4.87288,7.47274 -4.98486,7.1438 C-5.09684,6.81486 -5.16683,6.47542 -5.19482,6.12549 C-5.48877,3.60596 -5.41878,1.25439 -4.98486,-0.929199 C-4.32699,-1.06917 -3.6971,-0.838216 -3.09521,-0.236328 C-2.49333,0.36556 -2.04541,1.15641 -1.75146,2.13623 C-1.5555,2.8501 -1.49951,3.63745 -1.5835,4.49829 C-1.66748,5.35913 -1.84245,5.99951 -2.1084,6.41943 C-1.92643,6.25146 -1.77246,5.98201 -1.64648,5.61108 C-1.52051,5.24015 -1.41553,4.83073 -1.33154,4.38281 C-1.24756,3.9349 -1.20557,3.48348 -1.20557,3.02856 C-1.20557,2.57365 -1.26156,2.15723 -1.37354,1.7793 C-1.51351,1.26139 -1.70597,0.788981 -1.95093,0.362061 C-2.19588,-0.06486 -2.47583,-0.428792 -2.79077,-0.729736 C-3.10571,-1.03068 -3.43465,-1.23714 -3.77759,-1.34912 C-4.12052,-1.4611 -4.45296,-1.4751 -4.7749,-1.39111 L-4.85889,-1.39111 C-4.83089,-1.60107 -4.72941,-1.91252 -4.55444,-2.32544 C-4.37948,-2.73836 -4.19751,-3.15828 -4.00854,-3.58521 C-3.81958,-4.01213 -3.64811,-4.42155 -3.49414,-4.81348 C-3.34017,-5.2054 -3.23519,-5.48535 -3.1792,-5.65332 C-2.91325,-6.3112 -2.59481,-6.8571 -2.22388,-7.29102 C-1.85295,-7.72493 -1.45402,-8.04688 -1.0271,-8.25684 C-0.600179,-8.4668 -0.169759,-8.56478 0.26416,-8.55078 C0.698079,-8.53678 1.08301,-8.41781 1.41895,-8.19385 C1.6569,-8.10986 1.90535,-7.94539 2.16431,-7.70044 C2.42326,-7.45549 2.70671,-7.00407 3.01465,-6.34619 C2.46875,-5.94027 2.01034,-5.43636 1.6394,-4.83447 C1.26847,-4.23258 1.02702,-3.51872 0.915039,-2.69287 C0.831055,-2.11898 0.824056,-1.63957 0.894043,-1.25464 C0.96403,-0.86971 1.08301,-0.540771 1.25098,-0.267822 C1.41895,0.00512695 1.61141,0.236084 1.82837,0.425049 C2.04533,0.614014 2.27279,0.778483 2.51074,0.918457 C1.90885,0.232585 1.6499,-0.60026 1.73389,-1.58008 C1.84587,-2.60189 2.04533,-3.45223 2.33228,-4.1311 C2.61922,-4.80998 2.95866,-5.38737 3.35059,-5.86328 C3.56055,-5.26139 3.88249,-4.44954 4.31641,-3.42773 C4.3724,-3.24577 4.45638,-3.01131 4.56836,-2.72437 C4.68034,-2.43742 4.80981,-2.13647 4.95679,-1.82153 C5.10376,-1.50659 5.23324,-1.19165 5.34521,-0.876709 C5.45719,-0.561768 5.54118,-0.306315 5.59717,-0.110352 C5.79313,0.6875 5.91211,1.48885 5.9541,2.2937 C5.99609,3.09855 6.01009,3.8894 5.99609,4.66626 C5.9821,5.44312 5.9611,6.18148 5.93311,6.88135 C5.90511,7.58122 5.93311,8.2321 6.01709,8.83398 M-3.05322,15.3638 C-2.6193,15.1398 -2.26587,14.8074 -1.99292,14.3665 C-1.71997,13.9255 -1.5835,13.4461 -1.5835,12.9282 C-1.5555,12.6623 -1.61149,12.3018 -1.75146,11.8469 C-1.89144,11.392 -2.0839,10.9126 -2.32886,10.4087 C-2.57381,9.90479 -2.83276,9.44637 -3.10571,9.03345 C-3.37866,8.62052 -3.62012,8.33708 -3.83008,8.18311 C-3.67611,8.36507 -3.50114,8.66951 -3.30518,9.09644 C-3.10921,9.52336 -2.92375,9.98177 -2.74878,10.4717 C-2.57381,10.9616 -2.42334,11.434 -2.29736,11.8889 C-2.17139,12.3438 -2.1084,12.6903 -2.1084,12.9282 C-2.19238,13.866 -2.50732,14.6779 -3.05322,15.3638 M1.41895,5.55859 C1.27897,6.28646 1.35246,6.97933 1.6394,7.63721 C1.92635,8.29508 2.53174,8.88298 3.45557,9.40088 C2.90967,8.88298 2.49325,8.31608 2.2063,7.7002 C1.91935,7.08431 1.83187,6.47542 1.94385,5.87354 C2.05583,5.21566 2.28328,4.67676 2.62622,4.25684 C2.96916,3.83691 3.49756,3.47298 4.21143,3.16504 C3.49756,3.389 2.88517,3.67244 2.37427,4.01538 C1.86336,4.35832 1.54492,4.87272 1.41895,5.55859 M4.73633,12.8442 C4.48438,12.3263 4.26392,11.7209 4.07495,11.0281 C3.88599,10.3352 3.8195,9.63184 3.87549,8.91797 C3.93148,8.2321 4.04696,7.6757 4.22192,7.24878 C4.39689,6.82186 4.63835,6.39144 4.94629,5.95752 C4.58236,6.26546 4.27091,6.68538 4.01196,7.21729 C3.75301,7.74919 3.56755,8.38607 3.45557,9.12793 C3.38558,9.88379 3.47306,10.5907 3.71802,11.2485 C3.96297,11.9064 4.30241,12.4383 4.73633,12.8442 "/>
</g>

<g fill="#a61215" fill-opacity="1" stroke="none" transform="matrix(1,0,0,1,0,0)"
font-family="MS Shell Dlg 2" font-size="7.8" font-weight="400" font-style="normal" 
>
</g>
</g>
</svg>
