<?xml version="1.0" encoding="UTF-8" standalone="no"?>
<svg
   xmlns:dc="http://purl.org/dc/elements/1.1/"
   xmlns:cc="http://creativecommons.org/ns#"
   xmlns:rdf="http://www.w3.org/1999/02/22-rdf-syntax-ns#"
   xmlns:svg="http://www.w3.org/2000/svg"
   xmlns="http://www.w3.org/2000/svg"
   xmlns:sodipodi="http://sodipodi.sourceforge.net/DTD/sodipodi-0.dtd"
   xmlns:inkscape="http://www.inkscape.org/namespaces/inkscape"
   inkscape:version="1.0 (4035a4fb49, 2020-05-01)"
   sodipodi:docname="1817.svg"
   id="svg20"
   version="1.2"
   viewBox="0 0 42.519639 42.519639"
   height="14.999999mm"
   width="14.999999mm">
  <metadata
     id="metadata24">
    <rdf:RDF>
      <cc:Work
         rdf:about="">
        <dc:format>image/svg+xml</dc:format>
        <dc:type
           rdf:resource="http://purl.org/dc/dcmitype/StillImage" />
        <dc:title>Qt SVG Document</dc:title>
      </cc:Work>
    </rdf:RDF>
  </metadata>
  <sodipodi:namedview
     inkscape:current-layer="svg20"
     inkscape:window-maximized="0"
     inkscape:window-y="0"
     inkscape:window-x="0"
     inkscape:cy="28.346482"
     inkscape:cx="28.346482"
     inkscape:zoom="5.8410537"
     showgrid="false"
     id="namedview22"
     inkscape:window-height="480"
     inkscape:window-width="1034"
     inkscape:pageshadow="2"
     inkscape:pageopacity="0"
     guidetolerance="10"
     gridtolerance="10"
     objecttolerance="10"
     borderopacity="1"
     bordercolor="#666666"
     pagecolor="#ffffff" />
  <title
     id="title2">Qt SVG Document</title>
  <desc
     id="desc4">Generated with Qt</desc>
  <defs
     id="defs6" />
  <g
     transform="translate(5.25984,5.25984)"
     id="g18"
     stroke-linejoin="bevel"
     stroke-linecap="square"
     fill-rule="evenodd"
     stroke-width="1"
     stroke="#000000"
     fill="none">
    <g
       id="g10"
       font-style="normal"
       font-weight="400"
       font-size="7.8px"
       font-family="'MS Shell Dlg 2'"
       stroke="none"
       fill-opacity="1"
       fill="#a61215">
      <path
         id="path8"
         d="M 37.2598,16 C 37.2598,27.7415 27.7415,37.2598 16,37.2598 4.25851,37.2598 -5.25984,27.7415 -5.25984,16 -5.25984,4.25851 4.25851,-5.25984 16,-5.25984 27.7415,-5.25984 37.2598,4.25851 37.2598,16"
         fill-rule="evenodd"
         vector-effect="non-scaling-stroke" />
    </g>
    <g
       id="g14"
       font-style="normal"
       font-weight="400"
       font-size="7.8px"
       font-family="'MS Shell Dlg 2'"
       transform="translate(16,13.1654)"
       stroke="none"
       fill-opacity="0.94902"
       fill="#ffffff">
      <path
         id="path12"
         d="m 11.875,0.876465 c 0,0.055989 -0.063,0.143475 -0.189,0.262455 -0.1259,0.11897 -0.2974,0.22046 -0.5144,0.30444 -0.2169,0.08398 -0.4479,0.14697 -0.6928,0.18896 -0.245,0.042 -0.4655,0.035 -0.66142,-0.02099 C 9.60742,1.52734 9.30298,1.42936 8.90405,1.31738 8.50513,1.2054 8.07471,1.06893 7.61279,0.907959 7.15088,0.746989 6.69946,0.586019 6.25854,0.425049 5.81763,0.264079 5.4362,0.113607 5.11426,-0.0263672 4.83431,-0.054362 4.52987,-0.131348 4.20093,-0.257324 3.87199,-0.383301 3.53605,-0.519775 3.19312,-0.666748 2.85018,-0.813721 2.51424,-0.943197 2.1853,-1.05518 1.85636,-1.16715 1.53092,-1.23714 1.20898,-1.26514 0.985026,-1.29313 0.684082,-1.35962 0.306152,-1.4646 -0.0717773,-1.56958 -0.460205,-1.67106 -0.859131,-1.76904 -1.25806,-1.86702 -1.63599,-1.95101 -1.99292,-2.021 -2.34985,-2.09098 -2.6263,-2.13997 -2.82227,-2.16797 -3.1722,-2.19596 -3.60612,-2.22396 -4.12402,-2.25195 c -0.51791,-0.028 -1.03931,-0.06299 -1.56421,-0.10498 -0.5249,-0.042 -1.03231,-0.10148 -1.52222,-0.17847 -0.48991,-0.07699 -0.90983,-0.15747 -1.25976,-0.24146 -0.27995,-0.05599 -0.50741,-0.09098 -0.68238,-0.10498 -0.17497,-0.01399 -0.49341,-0.13297 -0.95531,-0.35693 -0.112,-0.05599 -0.154,-0.13647 -0.126,-0.24145 0.028,-0.10499 0.0665,-0.19947 0.1155,-0.28345 0.049,-0.08399 0.0875,-0.16097 0.1155,-0.23096 0.02797,-0.06999 -0.007,-0.11898 -0.105,-0.14697 -0.7139,-0.26595 -1.1828,-0.5704 -1.4067,-0.91333 -0.224,-0.34294 -0.308,-0.62639 -0.252,-0.85034 0,-0.12598 0.112,-0.26595 0.3359,-0.41993 0.224,-0.15397 0.364,-0.25895 0.42,-0.31494 0.0419,-0.16797 0.2274,-0.29744 0.5564,-0.38842 0.3289,-0.09099 0.76981,-0.14348 1.32271,-0.15748 0.5529,-0.01399 1.19678,0 1.93164,0.042 0.73486,0.04199 1.50122,0.09098 2.29907,0.14697 0.23796,0 0.42692,-0.028 0.5669,-0.08398 0.13997,0 0.31144,-0.021 0.5144,-0.06299 0.20296,-0.042 0.44442,-0.06299 0.72437,-0.06299 0.71386,0.08398 1.41023,0.17147 2.08911,0.26245 0.67887,0.09098 1.382239,0.18547 2.1101,0.28345 0.72787,0.09798 1.50122,0.21696 2.32007,0.35693 0.81885,0.13997 1.74618,0.30094 2.78198,0.48291 0.13998,0 0.29395,0.014 0.46192,0.04199 0.16797,0.028 0.34293,0.042 0.5249,0.042 0.27995,0.05598 0.57039,0.09798 0.87134,0.12597 0.30094,0.028 0.5214,0.014 0.66138,-0.04199 0.26595,-0.05599 0.54939,-0.06299 0.85034,-0.021 0.30094,0.042 0.57737,0.10498 0.82937,0.18897 0.2659,0.08398 0.4689,0.26245 0.6089,0.5354 0.1399,0.27295 0.2484,0.56689 0.3254,0.88183 0.077,0.31495 0.1155,0.61589 0.1155,0.90284 0,0.28694 -0.021,0.47241 -0.063,0.55639 L 11.875,0.876465 M 8.17969,12.9702 c 0.48991,0.14 0.92732,0.287 1.31225,0.4409 0.38493,0.154 0.57736,0.364 0.57736,0.6299 0,0.056 0.028,0.1645 0.084,0.3255 0.056,0.1609 0.084,0.2694 0.084,0.3254 0,0.084 -0.028,0.217 -0.084,0.3989 -0.056,0.182 -0.119,0.3745 -0.18894,0.5774 -0.06999,0.203 -0.13998,0.3779 -0.20997,0.5249 -0.06998,0.147 -0.12597,0.2345 -0.16796,0.2625 -0.16797,0.1399 -0.27295,0.2099 -0.31495,0.2099 -0.04199,0 -0.10498,0 -0.18896,0 -0.23796,0.056 -0.5424,0.049 -0.91333,-0.021 -0.37093,-0.07 -0.66838,-0.1329 -0.89233,-0.1889 -0.13998,-0.07 -0.36044,-0.0595 -0.66138,0.0315 -0.30095,0.0909 -0.5284,0.1084 -0.68237,0.0525 -0.16797,0 -0.48641,-0.0315 -0.95533,-0.0945 -0.46891,-0.063 -0.80835,-0.0945 -1.01831,-0.0945 -0.11198,0.098 -0.27645,0.147 -0.49341,0.147 -0.21696,0 -0.43042,-0.014 -0.64038,-0.042 C 2.61572,16.4276 2.42326,16.3891 2.24829,16.3401 2.07332,16.2911 1.98584,16.2386 1.98584,16.1826 1.95785,16.0426 1.94385,15.9167 1.94385,15.8047 c -0.028,-0.112 -0.04199,-0.2135 -0.04199,-0.3045 0,-0.0909 0,-0.1644 0,-0.2204 l 0.73486,-1.7637 c 0,-0.3359 0.20996,-0.6089 0.62988,-0.8188 0.12598,-0.056 0.30095,-0.021 0.5249,0.1049 0.05599,0.056 0.13298,0.0105 0.23096,-0.1364 0.09798,-0.147 0.20996,-0.1925 0.33594,-0.1365 h 0.25195 c 0.33594,0 0.59839,-0.028 0.78736,-0.084 0.18896,-0.056 0.35693,-0.112 0.5039,-0.168 0.14697,-0.0559 0.29045,-0.0979 0.43042,-0.1259 0.13998,-0.028 0.33594,-0.028 0.58789,0 0.09798,0 0.29045,0.1154 0.57739,0.3464 0.28695,0.231 0.45842,0.3604 0.51441,0.3884 0,0.056 0.05599,0.084 0.16797,0.084 M 9.81738,4.36182 c 0.19592,0.05599 0.31492,0.32194 0.35692,0.79785 0.042,0.47591 0.056,1.00081 0.042,1.57471 -0.014,0.57389 -0.042,1.11629 -0.084,1.62719 -0.042,0.51091 -0.063,0.82935 -0.063,0.95532 l 0.084,0.16797 c 0.056,0.11198 0.084,0.19597 0.084,0.25196 0,0.05599 -0.014,0.17846 -0.042,0.36738 -0.028,0.189 -0.063,0.392 -0.105,0.6089 -0.042,0.217 -0.077,0.4025 -0.10495,0.5564 -0.02799,0.154 -0.05599,0.245 -0.08398,0.273 -0.13998,0.14 -0.24146,0.2029 -0.30445,0.1889 -0.06298,-0.014 -0.12247,-0.021 -0.17846,-0.021 -0.16797,0 -0.44442,-0.1049 -0.82935,-0.3149 -0.38493,-0.21 -0.66837,-0.3499 -0.85034,-0.4199 -0.13997,0 -0.33244,0.0315 -0.57739,0.0945 -0.24496,0.063 -0.43742,0.0665 -0.5774,0.0105 -0.19596,-0.028 -0.39542,-0.028 -0.59838,0 -0.20297,0.028 -0.41293,0.07 -0.62989,0.1259 -0.21696,0.056 -0.43742,0.098 -0.66137,0.126 -0.22396,0.028 -0.46892,0.014 -0.73487,-0.042 C 3.7915,11.3745 3.62004,11.329 3.44507,11.1541 3.2701,10.9791 3.18262,10.8636 3.18262,10.8076 3.15462,10.7236 3.12663,10.6257 3.09863,10.5137 3.07064,10.4017 3.05664,10.2547 3.05664,10.0728 L 4.3584,5.0127 c 0,-0.028 0.007,-0.22046 0.02099,-0.5774 0.014,-0.35693 0.035,-0.73836 0.06299,-1.14428 0.028,-0.40593 0.06299,-0.78036 0.10498,-1.1233 0.042,-0.34293 0.09099,-0.5284 0.14698,-0.55639 0.11198,-0.05599 0.28694,-0.028 0.5249,0.08398 C 5.27523,1.66732 5.33122,1.62533 5.38721,1.56934 5.49919,1.45736 5.56917,1.40137 5.59717,1.40137 c 0.11198,0 0.19596,0.04199 0.25195,0.12597 C 6.14307,1.49935 6.36702,1.52035 6.521,1.59033 6.67497,1.66032 6.81144,1.7443 6.93042,1.84229 7.0494,1.94027 7.16488,2.03475 7.27686,2.12573 7.38883,2.21672 7.54281,2.2762 7.73877,2.3042 c 0.02799,0 0.11548,0.04899 0.26245,0.14697 0.14697,0.09798 0.31494,0.21346 0.50391,0.34644 0.18896,0.13297 0.35343,0.25545 0.49341,0.36743 0.13997,0.11198 0.22395,0.18197 0.25195,0.20996 0.02799,0 0.06299,0.04899 0.10498,0.14697 0.04199,0.09798 0.10148,0.21346 0.17847,0.34644 0.07698,0.13297 0.13647,0.24845 0.17846,0.34643 0.04199,0.09799 0.07699,0.14698 0.10498,0.14698 M -5.53076,2.38818 c 0.02799,1.14779 0.07698,2.02263 0.14697,2.62452 0.06999,0.60188 0.15397,1.08829 0.25195,1.45922 0.09799,0.37093 0.19947,0.69987 0.30445,0.98682 0.10498,0.28695 0.19946,0.68937 0.28344,1.20728 0.08399,0.4899 0.16097,1.16528 0.23096,2.02608 0.06999,0.8609 0.12598,1.7042 0.16797,2.5301 0.04199,0.8258 0.06999,1.5467 0.08398,2.1626 0.014,0.6159 0.007,0.9378 -0.02099,0.9658 -0.08399,0.098 -0.15397,0.14 -0.20996,0.126 -0.05599,-0.014 -0.11198,0.007 -0.16797,0.063 -0.18197,0.0559 -0.31494,0.0909 -0.39893,0.1049 -0.08398,0.014 -0.20996,0.021 -0.37793,0.021 -0.08398,0 -0.23445,-0.0525 -0.45141,-0.1574 -0.21696,-0.105 -0.36743,-0.1575 -0.45142,-0.1575 -0.19596,0 -0.32544,0.0245 -0.38843,0.0735 -0.06298,0.049 -0.11547,0.0945 -0.15747,0.1364 -0.04199,0.042 -0.09798,0.077 -0.16797,0.105 -0.06998,0.028 -0.21696,0.028 -0.44091,0 -0.15397,0.14 -0.29395,-0.1259 -0.41993,-0.7978 C -7.84033,15.1958 -8.06429,14.027 -8.38623,12.3613 -8.5542,11.3815 -8.75366,10.4052 -8.98462,9.43237 -9.21558,8.45955 -9.42904,7.54972 -9.625,6.70288 -9.82096,5.85604 -9.97843,5.08268 -10.0974,4.38281 c -0.119,-0.69987 -0.1505,-1.26676 -0.0945,-1.70068 0.028,-0.48991 0.021,-0.84684 -0.021,-1.0708 -0.042,-0.22396 -0.091,-0.39893 -0.147,-0.5249 -0.0839,-0.111983 -0.1679,-0.18197 -0.2519,-0.209965 0,-0.027995 0.1155,-0.090983 0.3464,-0.188965 0.231,-0.097982 0.48293,-0.234456 0.75588,-0.409424 0.27295,-0.174967 0.5214,-0.391927 0.74536,-0.650879 0.22396,-0.258952 0.32194,-0.556396 0.29395,-0.892337 0.02799,-0.26595 0.08048,-0.43392 0.15747,-0.5039 0.07698,-0.06999 0.17846,-0.09798 0.30444,-0.08399 0.12598,0.014 0.27645,0.05599 0.45142,0.12598 0.17496,0.06999 0.34643,0.10498 0.5144,0.10498 0.05599,0 0.20646,0.05949 0.45142,0.17847 0.24495,0.11897 0.39542,0.20646 0.45141,0.26245 0.028,0 0.09798,0.11198 0.20996,0.335935 0.05599,0.111979 0.09798,0.21696 0.12598,0.314942 0.20996,0.027994 0.34294,0.178466 0.39892,0.4514156 0.05599,0.2729494 0.06999,0.5808924 0.042,0.9238284 -0.028,0.342939 -0.06299,0.664879 -0.10498,0.965819 -0.042,0.30095 -0.06299,0.49341 -0.06299,0.57739 M -3.1792,2.22021 c -0.08398,1.20378 -0.11198,2.11361 -0.08398,2.7295 0.02799,0.61588 0.06998,1.11629 0.12597,1.50122 0.05599,0.38493 0.12248,0.72086 0.19947,1.00781 0.07698,0.28695 0.14347,0.68937 0.19946,1.20728 0.05599,0.5179 0.09098,1.22127 0.10498,2.11008 0.014,0.8889 0.007,1.7637 -0.021,2.6245 -0.02799,0.8609 -0.05599,1.6132 -0.08398,2.2571 -0.028,0.6439 -0.05599,0.9798 -0.08399,1.0078 -0.09798,0.084 -0.21696,0.126 -0.35693,0.126 -0.13997,0 -0.23795,-0.042 -0.29394,-0.126 0,-0.056 -0.014,-0.4059 -0.042,-1.0498 C -3.54313,14.9718 -3.57813,14.2195 -3.62012,13.3586 -3.66211,12.4978 -3.7216,11.63 -3.79858,10.7551 -3.87557,9.88029 -3.94206,9.18392 -3.99805,8.66602 -4.05404,8.14811 -4.13102,7.71069 -4.229,7.35376 -4.32699,6.99683 -4.40397,6.5944 -4.45996,6.14648 -4.51595,5.69857 -4.55094,5.13867 -4.56494,4.4668 -4.57894,3.79492 -4.54395,2.87109 -4.45996,1.69531 -4.43197,1.09342 -4.49146,0.57902 -4.63843,0.1521 -4.7854,-0.274821 -4.93587,-0.624756 -5.08984,-0.897705 -5.24382,-1.17065 -5.3488,-1.37362 -5.40479,-1.50659 c -0.05598,-0.13298 0,-0.19946 0.16797,-0.19946 0.028,0 0.11898,0.04549 0.27295,0.13647 0.15397,0.09098 0.31144,0.19246 0.47241,0.30444 0.16097,0.11198 0.30445,0.21696 0.43042,0.314945 0.12598,0.097981 0.20297,0.16097 0.23096,0.188965 l 0.5669,-0.083985 c 0.19596,0.027995 0.31144,0.185466 0.34643,0.472412 0.035,0.2869469 0.028,0.612386 -0.02099,0.976319 -0.049,0.363932 -0.10149,0.703364 -0.15747,1.018314 -0.05599,0.31494 -0.08399,0.5144 -0.08399,0.59838"
         fill-rule="evenodd"
         vector-effect="none" />
    </g>
    <g
       id="g16"
       font-style="normal"
       font-weight="400"
       font-size="7.8px"
       font-family="'MS Shell Dlg 2'"
       stroke="none"
       fill-opacity="1"
       fill="#a61215" />
  </g>
</svg>
