<svg xmlns="http://www.w3.org/2000/svg" version="1.2" viewBox="0 0 42.52 42.52" height="56.693" width="56.693">
   <g stroke-linejoin="bevel" stroke-linecap="square" fill-rule="evenodd" stroke="none" fill="none" font-weight="400"
      font-size="7.8" font-family="'MS Shell Dlg 2'">
      <path
         d="M42.52 21.26C42.52 33 33 42.52 21.26 42.52 9.518 42.52 0 33 0 21.26 0 9.518 9.518 0 21.26 0 33 0 42.52 9.518 42.52 21.26"
         vector-effect="non-scaling-stroke" fill="#a61215" />
      <path
         d="M33.135 19.302c0 .056-.063.143-.19.262-.125.12-.297.22-.514.305a3.598 3.598 0 01-.692.189 1.482 1.482 0 01-.662-.021 9.612 9.612 0 00-.913-.294c-.399-.112-.83-.249-1.291-.41a97.73 97.73 0 01-1.355-.483 20.8 20.8 0 01-1.144-.451 3.57 3.57 0 01-.913-.231 27.8 27.8 0 01-1.008-.41 14.083 14.083 0 00-1.008-.388 4.137 4.137 0 00-.976-.21 6.675 6.675 0 01-.903-.2 40.023 40.023 0 00-1.165-.304 24.67 24.67 0 00-1.963-.399c-.35-.028-.784-.056-1.302-.084a60.73 60.73 0 01-1.564-.105 20.17 20.17 0 01-1.523-.178c-.49-.077-.91-.158-1.26-.242a6.137 6.137 0 00-.682-.105c-.175-.014-.493-.133-.955-.357-.112-.056-.154-.136-.126-.241.028-.105.066-.2.115-.283a1.77 1.77 0 00.116-.231c.028-.07-.007-.12-.105-.147-.714-.266-1.183-.57-1.407-.914-.224-.343-.308-.626-.252-.85 0-.126.112-.266.336-.42.224-.154.364-.259.42-.315.042-.168.228-.297.557-.388.328-.091.77-.144 1.322-.158.553-.014 1.197 0 1.932.042.735.042 1.501.091 2.299.147.238 0 .427-.028.567-.084.14 0 .311-.02.514-.063.203-.042.445-.063.725-.063.713.084 1.41.172 2.089.263.679.09 1.382.185 2.11.283.728.098 1.501.217 2.32.357.819.14 1.746.301 2.782.483.14 0 .294.014.462.042.168.028.343.042.525.042.28.056.57.098.871.126.301.028.521.014.661-.042.266-.056.55-.063.85-.021.302.042.578.105.83.189.266.084.469.262.609.535s.248.567.325.882c.077.315.116.616.116.903 0 .287-.021.472-.063.556l.483 3.486M29.44 31.395c.49.14.927.287 1.312.441.385.154.577.364.577.63 0 .056.028.165.084.326.056.16.084.27.084.325 0 .084-.028.217-.084.399-.056.182-.119.375-.189.577-.07.203-.14.378-.21.525-.07.147-.126.235-.168.263-.168.14-.273.21-.315.21h-.189c-.238.056-.542.049-.913-.021-.37-.07-.668-.133-.892-.19-.14-.07-.36-.059-.662.032-.3.091-.528.109-.682.053-.168 0-.486-.032-.955-.095a8.657 8.657 0 00-1.019-.094c-.112.098-.276.147-.493.147a4.84 4.84 0 01-.64-.042 4.208 4.208 0 01-.578-.116c-.175-.049-.262-.101-.262-.157a1.946 1.946 0 01-.042-.378 1.267 1.267 0 01-.042-.305v-.22l.735-1.764c0-.336.21-.609.63-.818.125-.056.3-.021.524.104.056.056.133.01.231-.136.098-.147.21-.192.336-.136h.252c.336 0 .599-.028.788-.084.189-.056.356-.112.503-.168.147-.056.29-.098.43-.126.14-.028.337-.028.589 0 .098 0 .29.115.577.346.287.231.459.36.515.388 0 .056.056.084.168.084m1.637-8.608c.196.056.315.322.357.798.042.476.056 1 .042 1.575a28.337 28.337 0 01-.084 1.627c-.042.51-.063.83-.063.955l.084.168a.645.645 0 01.084.252c0 .056-.014.179-.042.367-.028.19-.063.392-.105.61a50.26 50.26 0 00-.105.556c-.028.154-.056.245-.084.273-.14.14-.241.203-.304.189a.824.824 0 00-.179-.021c-.168 0-.444-.105-.83-.315a8.1 8.1 0 00-.85-.42c-.14 0-.332.031-.577.094-.245.063-.437.067-.577.01a2.142 2.142 0 00-.599 0c-.203.029-.412.07-.63.127a5.25 5.25 0 01-.66.126 2.227 2.227 0 01-.736-.042c-.168.084-.34.038-.514-.137-.175-.175-.263-.29-.263-.346a4.032 4.032 0 01-.084-.294 1.878 1.878 0 01-.042-.441l1.302-5.06a44.787 44.787 0 01.084-1.722c.028-.406.063-.78.105-1.123.042-.343.091-.528.147-.556.112-.056.287-.028.525.084a.658.658 0 00.168-.126c.112-.112.182-.168.21-.168.112 0 .196.042.252.126.294-.028.518-.007.672.063.154.07.29.154.41.252.118.098.234.192.346.283.112.091.266.15.462.178.028 0 .115.05.262.147.147.098.315.214.504.347.189.133.353.255.493.367.14.112.224.182.252.21.028 0 .063.05.105.147.042.098.102.214.179.347.077.133.136.248.178.346.042.098.077.147.105.147M15.73 20.813c.028 1.148.077 2.023.147 2.625.07.602.154 1.088.252 1.46.098.37.2.699.304.986.105.287.2.69.284 1.207.084.49.16 1.166.23 2.026a83.649 83.649 0 01.253 4.693c.014.616.007.938-.021.966-.084.098-.154.14-.21.126-.056-.014-.112.007-.168.063-.182.056-.315.09-.399.105-.084.014-.21.02-.378.02-.084 0-.234-.052-.451-.157-.217-.105-.368-.157-.452-.157-.196 0-.325.024-.388.073a1.72 1.72 0 00-.158.137.493.493 0 01-.168.105c-.07.028-.217.028-.44 0-.155.14-.295-.126-.42-.798-.126-.672-.35-1.84-.672-3.506a47.213 47.213 0 00-.599-2.93c-.23-.972-.444-1.882-.64-2.729a40.423 40.423 0 01-.473-2.32c-.119-.7-.15-1.267-.094-1.7.028-.49.02-.847-.021-1.071a2.451 2.451 0 00-.147-.525.56.56 0 00-.252-.21c0-.028.116-.091.346-.19a5.15 5.15 0 00.756-.409c.273-.175.522-.392.746-.65.224-.26.322-.557.294-.893.028-.266.08-.434.157-.504a.37.37 0 01.305-.084c.126.014.276.056.451.126s.346.105.514.105c.056 0 .207.06.452.179.245.119.395.206.451.262.028 0 .098.112.21.336.056.112.098.217.126.315.21.028.343.178.4.451.055.273.069.581.041.924-.028.343-.063.665-.105.966a5.676 5.676 0 00-.063.577m2.352-.168c-.084 1.204-.112 2.114-.084 2.73.028.616.07 1.116.126 1.501.056.385.122.721.2 1.008.076.287.143.69.199 1.207.056.518.09 1.222.105 2.11.014.89.007 1.764-.021 2.625-.028.86-.056 1.613-.084 2.257-.028.644-.056.98-.084 1.008a.53.53 0 01-.357.126c-.14 0-.238-.042-.294-.126 0-.056-.014-.406-.042-1.05-.028-.644-.063-1.396-.105-2.257a66.88 66.88 0 00-.179-2.604 110.92 110.92 0 00-.2-2.089 8.496 8.496 0 00-.23-1.312 8.62 8.62 0 01-.231-1.207 16.743 16.743 0 01-.105-1.68c-.014-.672.02-1.596.105-2.771.028-.602-.032-1.117-.179-1.544a6.432 6.432 0 00-.451-1.05 6.66 6.66 0 01-.315-.608c-.056-.133 0-.2.168-.2.028 0 .119.046.273.137.154.09.311.192.472.304.161.112.305.217.43.315.127.098.204.161.232.189l.567-.084c.196.028.311.185.346.472.035.287.028.613-.02.977a24.58 24.58 0 01-.158 1.018 4.77 4.77 0 00-.084.598"
         fill-opacity=".949" fill="#fff" />
   </g>
</svg>