<?xml version="1.0" encoding="UTF-8" standalone="no"?>
<svg width="11.25008mm" height="11.25008mm"
 viewBox="-5.3 -5.3 42.52000 42.52000"
 xmlns="http://www.w3.org/2000/svg" xmlns:xlink="http://www.w3.org/1999/xlink"  version="1.2" baseProfile="tiny">
<title>Qt SVG Document</title>
<desc>Generated with Qt</desc>
<defs>
</defs>
<g fill="none" stroke="black" stroke-width="1" fill-rule="evenodd" stroke-linecap="square" stroke-linejoin="bevel" >

<g fill="#a61215" fill-opacity="1" stroke="none" transform="matrix(1,0,0,1,0,0)"
font-family="MS Shell Dlg 2" font-size="7.8" font-weight="400" font-style="normal" 
>
<path vector-effect="non-scaling-stroke" fill-rule="evenodd" d="M37.2598,16 C37.2598,27.7415 27.7415,37.2598 16,37.2598 C4.25851,37.2598 -5.25984,27.7415 -5.25984,16 C-5.25984,4.25851 4.25851,-5.25984 16,-5.25984 C27.7415,-5.25984 37.2598,4.25851 37.2598,16 "/>
</g>

<g fill="#ffffff" fill-opacity="0.94902" stroke="none" transform="matrix(1,0,0,1,16,13.1654)"
font-family="MS Shell Dlg 2" font-size="7.8" font-weight="400" font-style="normal" 
>
<path vector-effect="none" fill-rule="evenodd" d="M11.875,0.876465 C11.875,0.932454 11.812,1.01994 11.686,1.13892 C11.5601,1.25789 11.3886,1.35938 11.1716,1.44336 C10.9547,1.52734 10.7237,1.59033 10.4788,1.63232 C10.2338,1.67432 10.0133,1.66732 9.81738,1.61133 C9.60742,1.52734 9.30298,1.42936 8.90405,1.31738 C8.50513,1.2054 8.07471,1.06893 7.61279,0.907959 C7.15088,0.746989 6.69946,0.586019 6.25854,0.425049 C5.81763,0.264079 5.4362,0.113607 5.11426,-0.0263672 C4.83431,-0.054362 4.52987,-0.131348 4.20093,-0.257324 C3.87199,-0.383301 3.53605,-0.519775 3.19312,-0.666748 C2.85018,-0.813721 2.51424,-0.943197 2.1853,-1.05518 C1.85636,-1.16715 1.53092,-1.23714 1.20898,-1.26514 C0.985026,-1.29313 0.684082,-1.35962 0.306152,-1.4646 C-0.0717773,-1.56958 -0.460205,-1.67106 -0.859131,-1.76904 C-1.25806,-1.86702 -1.63599,-1.95101 -1.99292,-2.021 C-2.34985,-2.09098 -2.6263,-2.13997 -2.82227,-2.16797 C-3.1722,-2.19596 -3.60612,-2.22396 -4.12402,-2.25195 C-4.64193,-2.27995 -5.16333,-2.31494 -5.68823,-2.35693 C-6.21313,-2.39893 -6.72054,-2.45841 -7.21045,-2.5354 C-7.70036,-2.61239 -8.12028,-2.69287 -8.47021,-2.77686 C-8.75016,-2.83285 -8.97762,-2.86784 -9.15259,-2.88184 C-9.32756,-2.89583 -9.646,-3.01481 -10.1079,-3.23877 C-10.2199,-3.29476 -10.2619,-3.37524 -10.2339,-3.48022 C-10.2059,-3.58521 -10.1674,-3.67969 -10.1184,-3.76367 C-10.0694,-3.84766 -10.0309,-3.92464 -10.0029,-3.99463 C-9.97493,-4.06462 -10.0099,-4.11361 -10.1079,-4.1416 C-10.8218,-4.40755 -11.2907,-4.712 -11.5146,-5.05493 C-11.7386,-5.39787 -11.8226,-5.68132 -11.7666,-5.90527 C-11.7666,-6.03125 -11.6546,-6.17122 -11.4307,-6.3252 C-11.2067,-6.47917 -11.0667,-6.58415 -11.0107,-6.64014 C-10.9688,-6.80811 -10.7833,-6.93758 -10.4543,-7.02856 C-10.1254,-7.11955 -9.68449,-7.17204 -9.13159,-7.18604 C-8.57869,-7.20003 -7.93481,-7.18604 -7.19995,-7.14404 C-6.46509,-7.10205 -5.69873,-7.05306 -4.90088,-6.99707 C-4.66292,-6.99707 -4.47396,-7.02507 -4.33398,-7.08105 C-4.19401,-7.08105 -4.02254,-7.10205 -3.81958,-7.14404 C-3.61662,-7.18604 -3.37516,-7.20703 -3.09521,-7.20703 C-2.38135,-7.12305 -1.68498,-7.03556 -1.0061,-6.94458 C-0.32723,-6.8536 0.376139,-6.75911 1.104,-6.66113 C1.83187,-6.56315 2.60522,-6.44417 3.42407,-6.3042 C4.24292,-6.16423 5.17025,-6.00326 6.20605,-5.82129 C6.34603,-5.82129 6.5,-5.80729 6.66797,-5.7793 C6.83594,-5.7513 7.0109,-5.7373 7.19287,-5.7373 C7.47282,-5.68132 7.76326,-5.63932 8.06421,-5.61133 C8.36515,-5.58333 8.58561,-5.59733 8.72559,-5.65332 C8.99154,-5.70931 9.27498,-5.71631 9.57593,-5.67432 C9.87687,-5.63232 10.1533,-5.56934 10.4053,-5.48535 C10.6712,-5.40137 10.8742,-5.2229 11.0142,-4.94995 C11.1541,-4.677 11.2626,-4.38306 11.3396,-4.06812 C11.4166,-3.75317 11.4551,-3.45223 11.4551,-3.16528 C11.4551,-2.87834 11.4341,-2.69287 11.3921,-2.60889 L11.875,0.876465 M8.17969,12.9702 C8.6696,13.1102 9.10701,13.2572 9.49194,13.4111 C9.87687,13.5651 10.0693,13.7751 10.0693,14.041 C10.0693,14.097 10.0973,14.2055 10.1533,14.3665 C10.2093,14.5274 10.2373,14.6359 10.2373,14.6919 C10.2373,14.7759 10.2093,14.9089 10.1533,15.0908 C10.0973,15.2728 10.0343,15.4653 9.96436,15.6682 C9.89437,15.8712 9.82438,16.0461 9.75439,16.1931 C9.68441,16.3401 9.62842,16.4276 9.58643,16.4556 C9.41846,16.5955 9.31348,16.6655 9.27148,16.6655 C9.22949,16.6655 9.1665,16.6655 9.08252,16.6655 C8.84456,16.7215 8.54012,16.7145 8.16919,16.6445 C7.79826,16.5745 7.50081,16.5116 7.27686,16.4556 C7.13688,16.3856 6.91642,16.3961 6.61548,16.4871 C6.31453,16.578 6.08708,16.5955 5.93311,16.5396 C5.76514,16.5396 5.4467,16.5081 4.97778,16.4451 C4.50887,16.3821 4.16943,16.3506 3.95947,16.3506 C3.84749,16.4486 3.68302,16.4976 3.46606,16.4976 C3.2491,16.4976 3.03564,16.4836 2.82568,16.4556 C2.61572,16.4276 2.42326,16.3891 2.24829,16.3401 C2.07332,16.2911 1.98584,16.2386 1.98584,16.1826 C1.95785,16.0426 1.94385,15.9167 1.94385,15.8047 C1.91585,15.6927 1.90186,15.5912 1.90186,15.5002 C1.90186,15.4093 1.90186,15.3358 1.90186,15.2798 L2.63672,13.5161 C2.63672,13.1802 2.84668,12.9072 3.2666,12.6973 C3.39258,12.6413 3.56755,12.6763 3.7915,12.8022 C3.84749,12.8582 3.92448,12.8127 4.02246,12.6658 C4.12044,12.5188 4.23242,12.4733 4.3584,12.5293 L4.61035,12.5293 C4.94629,12.5293 5.20874,12.5013 5.39771,12.4453 C5.58667,12.3893 5.75464,12.3333 5.90161,12.2773 C6.04858,12.2214 6.19206,12.1794 6.33203,12.1514 C6.47201,12.1234 6.66797,12.1234 6.91992,12.1514 C7.0179,12.1514 7.21037,12.2668 7.49731,12.4978 C7.78426,12.7288 7.95573,12.8582 8.01172,12.8862 C8.01172,12.9422 8.06771,12.9702 8.17969,12.9702 M9.81738,4.36182 C10.0133,4.41781 10.1323,4.68376 10.1743,5.15967 C10.2163,5.63558 10.2303,6.16048 10.2163,6.73438 C10.2023,7.30827 10.1743,7.85067 10.1323,8.36157 C10.0903,8.87248 10.0693,9.19092 10.0693,9.31689 L10.1533,9.48486 C10.2093,9.59684 10.2373,9.68083 10.2373,9.73682 C10.2373,9.79281 10.2233,9.91528 10.1953,10.1042 C10.1673,10.2932 10.1323,10.4962 10.0903,10.7131 C10.0483,10.9301 10.0133,11.1156 9.98535,11.2695 C9.95736,11.4235 9.92936,11.5145 9.90137,11.5425 C9.76139,11.6825 9.65991,11.7454 9.59692,11.7314 C9.53394,11.7174 9.47445,11.7104 9.41846,11.7104 C9.25049,11.7104 8.97404,11.6055 8.58911,11.3955 C8.20418,11.1855 7.92074,11.0456 7.73877,10.9756 C7.5988,10.9756 7.40633,11.0071 7.16138,11.0701 C6.91642,11.1331 6.72396,11.1366 6.58398,11.0806 C6.38802,11.0526 6.18856,11.0526 5.9856,11.0806 C5.78263,11.1086 5.57267,11.1506 5.35571,11.2065 C5.13875,11.2625 4.91829,11.3045 4.69434,11.3325 C4.47038,11.3605 4.22542,11.3465 3.95947,11.2905 C3.7915,11.3745 3.62004,11.329 3.44507,11.1541 C3.2701,10.9791 3.18262,10.8636 3.18262,10.8076 C3.15462,10.7236 3.12663,10.6257 3.09863,10.5137 C3.07064,10.4017 3.05664,10.2547 3.05664,10.0728 L4.3584,5.0127 C4.3584,4.9847 4.3654,4.79224 4.37939,4.4353 C4.39339,4.07837 4.41439,3.69694 4.44238,3.29102 C4.47038,2.88509 4.50537,2.51066 4.54736,2.16772 C4.58936,1.82479 4.63835,1.63932 4.69434,1.61133 C4.80632,1.55534 4.98128,1.58333 5.21924,1.69531 C5.27523,1.66732 5.33122,1.62533 5.38721,1.56934 C5.49919,1.45736 5.56917,1.40137 5.59717,1.40137 C5.70915,1.40137 5.79313,1.44336 5.84912,1.52734 C6.14307,1.49935 6.36702,1.52035 6.521,1.59033 C6.67497,1.66032 6.81144,1.7443 6.93042,1.84229 C7.0494,1.94027 7.16488,2.03475 7.27686,2.12573 C7.38883,2.21672 7.54281,2.2762 7.73877,2.3042 C7.76676,2.3042 7.85425,2.35319 8.00122,2.45117 C8.14819,2.54915 8.31616,2.66463 8.50513,2.79761 C8.69409,2.93058 8.85856,3.05306 8.99854,3.16504 C9.13851,3.27702 9.22249,3.34701 9.25049,3.375 C9.27848,3.375 9.31348,3.42399 9.35547,3.52197 C9.39746,3.61995 9.45695,3.73543 9.53394,3.86841 C9.61092,4.00138 9.67041,4.11686 9.7124,4.21484 C9.75439,4.31283 9.78939,4.36182 9.81738,4.36182 M-5.53076,2.38818 C-5.50277,3.53597 -5.45378,4.41081 -5.38379,5.0127 C-5.3138,5.61458 -5.22982,6.10099 -5.13184,6.47192 C-5.03385,6.84285 -4.93237,7.17179 -4.82739,7.45874 C-4.72241,7.74569 -4.62793,8.14811 -4.54395,8.66602 C-4.45996,9.15592 -4.38298,9.8313 -4.31299,10.6921 C-4.243,11.553 -4.18701,12.3963 -4.14502,13.2222 C-4.10303,14.048 -4.07503,14.7689 -4.06104,15.3848 C-4.04704,16.0007 -4.05404,16.3226 -4.08203,16.3506 C-4.16602,16.4486 -4.236,16.4906 -4.29199,16.4766 C-4.34798,16.4626 -4.40397,16.4836 -4.45996,16.5396 C-4.64193,16.5955 -4.7749,16.6305 -4.85889,16.6445 C-4.94287,16.6585 -5.06885,16.6655 -5.23682,16.6655 C-5.3208,16.6655 -5.47127,16.613 -5.68823,16.5081 C-5.90519,16.4031 -6.05566,16.3506 -6.13965,16.3506 C-6.33561,16.3506 -6.46509,16.3751 -6.52808,16.4241 C-6.59106,16.4731 -6.64355,16.5186 -6.68555,16.5605 C-6.72754,16.6025 -6.78353,16.6375 -6.85352,16.6655 C-6.9235,16.6935 -7.07048,16.6935 -7.29443,16.6655 C-7.4484,16.8055 -7.58838,16.5396 -7.71436,15.8677 C-7.84033,15.1958 -8.06429,14.027 -8.38623,12.3613 C-8.5542,11.3815 -8.75366,10.4052 -8.98462,9.43237 C-9.21558,8.45955 -9.42904,7.54972 -9.625,6.70288 C-9.82096,5.85604 -9.97843,5.08268 -10.0974,4.38281 C-10.2164,3.68294 -10.2479,3.11605 -10.1919,2.68213 C-10.1639,2.19222 -10.1709,1.83529 -10.2129,1.61133 C-10.2549,1.38737 -10.3039,1.2124 -10.3599,1.08643 C-10.4438,0.974447 -10.5278,0.90446 -10.6118,0.876465 C-10.6118,0.84847 -10.4963,0.785482 -10.2654,0.6875 C-10.0344,0.589518 -9.78247,0.453044 -9.50952,0.278076 C-9.23657,0.103109 -8.98812,-0.113851 -8.76416,-0.372803 C-8.5402,-0.631755 -8.44222,-0.929199 -8.47021,-1.26514 C-8.44222,-1.53109 -8.38973,-1.69906 -8.31274,-1.76904 C-8.23576,-1.83903 -8.13428,-1.86702 -8.0083,-1.85303 C-7.88232,-1.83903 -7.73185,-1.79704 -7.55688,-1.72705 C-7.38192,-1.65706 -7.21045,-1.62207 -7.04248,-1.62207 C-6.98649,-1.62207 -6.83602,-1.56258 -6.59106,-1.4436 C-6.34611,-1.32463 -6.19564,-1.23714 -6.13965,-1.18115 C-6.11165,-1.18115 -6.04167,-1.06917 -5.92969,-0.845215 C-5.8737,-0.733236 -5.83171,-0.628255 -5.80371,-0.530273 C-5.59375,-0.502279 -5.46077,-0.351807 -5.40479,-0.0788574 C-5.3488,0.194092 -5.3348,0.502035 -5.36279,0.844971 C-5.39079,1.18791 -5.42578,1.50985 -5.46777,1.81079 C-5.50977,2.11174 -5.53076,2.3042 -5.53076,2.38818 M-3.1792,2.22021 C-3.26318,3.42399 -3.29118,4.33382 -3.26318,4.94971 C-3.23519,5.56559 -3.1932,6.066 -3.13721,6.45093 C-3.08122,6.83586 -3.01473,7.17179 -2.93774,7.45874 C-2.86076,7.74569 -2.79427,8.14811 -2.73828,8.66602 C-2.68229,9.18392 -2.6473,9.88729 -2.6333,10.7761 C-2.6193,11.665 -2.6263,12.5398 -2.6543,13.4006 C-2.68229,14.2615 -2.71029,15.0138 -2.73828,15.6577 C-2.76628,16.3016 -2.79427,16.6375 -2.82227,16.6655 C-2.92025,16.7495 -3.03923,16.7915 -3.1792,16.7915 C-3.31917,16.7915 -3.41715,16.7495 -3.47314,16.6655 C-3.47314,16.6095 -3.48714,16.2596 -3.51514,15.6157 C-3.54313,14.9718 -3.57813,14.2195 -3.62012,13.3586 C-3.66211,12.4978 -3.7216,11.63 -3.79858,10.7551 C-3.87557,9.88029 -3.94206,9.18392 -3.99805,8.66602 C-4.05404,8.14811 -4.13102,7.71069 -4.229,7.35376 C-4.32699,6.99683 -4.40397,6.5944 -4.45996,6.14648 C-4.51595,5.69857 -4.55094,5.13867 -4.56494,4.4668 C-4.57894,3.79492 -4.54395,2.87109 -4.45996,1.69531 C-4.43197,1.09342 -4.49146,0.57902 -4.63843,0.1521 C-4.7854,-0.274821 -4.93587,-0.624756 -5.08984,-0.897705 C-5.24382,-1.17065 -5.3488,-1.37362 -5.40479,-1.50659 C-5.46077,-1.63957 -5.40479,-1.70605 -5.23682,-1.70605 C-5.20882,-1.70605 -5.11784,-1.66056 -4.96387,-1.56958 C-4.8099,-1.4786 -4.65243,-1.37712 -4.49146,-1.26514 C-4.33049,-1.15316 -4.18701,-1.04818 -4.06104,-0.950195 C-3.93506,-0.852214 -3.85807,-0.789225 -3.83008,-0.76123 L-3.26318,-0.845215 C-3.06722,-0.81722 -2.95174,-0.659749 -2.91675,-0.372803 C-2.88175,-0.0858561 -2.88875,0.239583 -2.93774,0.603516 C-2.98674,0.967448 -3.03923,1.30688 -3.09521,1.62183 C-3.1512,1.93677 -3.1792,2.13623 -3.1792,2.22021 "/>
</g>

<g fill="#a61215" fill-opacity="1" stroke="none" transform="matrix(1,0,0,1,0,0)"
font-family="MS Shell Dlg 2" font-size="7.8" font-weight="400" font-style="normal" 
>
</g>
</g>
</svg>
