<svg xmlns="http://www.w3.org/2000/svg" version="1.2" viewBox="0 0 42.52 42.52" height="56.693" width="56.693">
   <g stroke-linejoin="bevel" stroke-linecap="square" fill-rule="evenodd" stroke="none" fill="none" font-weight="400"
      font-size="7.8" font-family="'MS Shell Dlg 2'">
      <path
         d="M42.52 21.26C42.52 33 33 42.52 21.26 42.52 9.518 42.52 0 33 0 21.26 0 9.518 9.518 0 21.26 0 33 0 42.52 9.518 42.52 21.26"
         vector-effect="non-scaling-stroke" fill="#a61215" />
      <path
         d="M31.54 23.753h-2.835L27.15 24.97l.189 6.361 3.947 1.596v1.365H12.58V32.57l2.96-1.806.399-6.571-4.136-.441-.777-6.047 1.26-3.108 4.199.126.23-3.485 2.625-2.708 6.09.566 1.301.945.126 5.081 2.792.084 1.89 2.142v6.404m-.903 9.805l-3.128-1.239v.651l2.54.987h.588v-.4m-1.28-17.489l-2.331-.084.042.903 3.065.126-.776-.945M13.02 23.543l-.61-4.556 1.072-2.625 4.388.168.21-3.863 2.288-2.33 5.627.524.126.126v-.378l-.903-.65-5.669-.526-2.288 2.331-.21 3.863-4.346-.168-1.071 2.583.693 5.417.693.084m3.905 8.776l.42-7.474-.82-.084-.377 6.655-2.96 1.764v.777h1.028l2.709-1.638m10.918-13.164l1.029.525-.21.818-.294 1.071h-5.207l-.168 8.903h.86l.127-8.042h4.976l.525-1.68.42-1.553-1.89-.903-3.863.273.083-3.8.777-.987-.693-1.407-2.351-.483-1.512.987-1.029 1.176.735 4.325-3.57-.168-1.175-.945-1.449 2.373.672 2.792h5.564l-1.344 9.847.441.042.042.42 4.767-.21.461 1.113.777-.336-.672-1.638-4.87.231 1.343-10.33H15.33l-.462-1.805.756-1.24.609.547 4.955.21-.86-4.976.63-.777 1.175-.735 1.575.357.315.546-.61.776-.125 4.998 4.556-.315"
         fill-opacity=".949" fill="#fff" />
   </g>
</svg>