<?xml version="1.0" encoding="UTF-8" standalone="no"?>
<svg width="11.2889mm" height="11.2889mm"
 viewBox="0 0 32 32"
 xmlns="http://www.w3.org/2000/svg" xmlns:xlink="http://www.w3.org/1999/xlink"  version="1.2" baseProfile="tiny">
<title>Qt SVG Document</title>
<desc>Generated with Qt</desc>
<defs>
</defs>
<g fill="none" stroke="black" stroke-width="1" fill-rule="evenodd" stroke-linecap="square" stroke-linejoin="bevel" >

<g fill="#a61215" fill-opacity="1" stroke="none" transform="matrix(1,0,0,1,0,0)"
font-family="MS Shell Dlg 2" font-size="7.8" font-weight="400" font-style="normal" 
>
<path vector-effect="non-scaling-stroke" fill-rule="evenodd" d="M37.2598,16 C37.2598,27.7415 27.7415,37.2598 16,37.2598 C4.25851,37.2598 -5.25984,27.7415 -5.25984,16 C-5.25984,4.25851 4.25851,-5.25984 16,-5.25984 C27.7415,-5.25984 37.2598,4.25851 37.2598,16 "/>
</g>

<g fill="#ffffff" fill-opacity="0.94902" stroke="none" transform="matrix(1,0,0,1,16.5669,12.5984)"
font-family="MS Shell Dlg 2" font-size="7.8" font-weight="400" font-style="normal" 
>
<path vector-effect="none" fill-rule="evenodd" d="M0.111816,-2.16797 C1.11963,-2.16797 2.03996,-2.03149 2.8728,-1.75854 C3.70565,-1.4856 4.507,-1.13566 5.27686,-0.70874 C6.04671,-0.28182 6.81307,0.141602 7.57593,0.561523 C8.33879,0.981445 9.3641,1.56234 10.6519,2.3042 C11.9396,3.04606 13.7873,3.84391 16.1948,4.69775 C16.0828,4.82373 13.9622,6.28646 9.83301,9.08594 L9.79102,9.08594 C9.79102,8.91797 9.79801,8.771 9.81201,8.64502 C9.82601,8.51904 9.83301,8.39307 9.83301,8.26709 C9.83301,7.73519 9.49707,6.99333 8.8252,6.0415 C8.15332,5.08968 7.34497,4.21484 6.40015,3.41699 C5.45532,2.61914 4.43701,1.96126 3.34521,1.44336 C2.25342,0.925456 1.2876,0.666504 0.447754,0.666504 L0.111816,0.666504 L-0.182129,0.666504 C-1.02197,0.666504 -1.98429,0.925456 -3.06909,1.44336 C-4.15389,1.96126 -5.1687,2.61914 -6.11353,3.41699 C-7.05835,4.21484 -7.8702,5.08968 -8.54907,6.0415 C-9.22795,6.99333 -9.56738,7.73519 -9.56738,8.26709 C-9.56738,8.39307 -9.55339,8.51904 -9.52539,8.64502 C-9.4974,8.771 -9.4834,8.91797 -9.4834,9.08594 L-9.56738,9.08594 L-16.0972,4.40381 C-14.0955,3.94189 -12.4124,3.396 -11.0476,2.76611 C-9.68286,2.13623 -8.4266,1.45736 -7.27881,0.729492 C-6.13102,0.0016276 -4.98324,-0.663249 -3.83545,-1.26514 C-2.68766,-1.86702 -1.37191,-2.16797 0.111816,-2.16797 "/>
</g>

<g fill="#a61215" fill-opacity="1" stroke="none" transform="matrix(1,0,0,1,0,0)"
font-family="MS Shell Dlg 2" font-size="7.8" font-weight="400" font-style="normal" 
>
</g>
</g>
</svg>
