<svg xmlns="http://www.w3.org/2000/svg" version="1.2" viewBox="0 0 42.52 42.52" height="56.693" width="56.693">
   <g stroke-linejoin="bevel" stroke-linecap="square" fill-rule="evenodd" stroke="none" fill="none" font-weight="400"
      font-size="7.8" font-family="'MS Shell Dlg 2'">
      <path
         d="M42.52 21.26C42.52 33 33 42.52 21.26 42.52 9.518 42.52 0 33 0 21.26 0 9.518 9.518 0 21.26 0 33 0 42.52 9.518 42.52 21.26"
         vector-effect="non-scaling-stroke" fill="#a61215" />
      <path
         d="M21.939 15.69c1.007 0 1.928.137 2.76.41.833.273 1.635.623 2.405 1.05.77.426 1.536.85 2.299 1.27.763.42 1.788 1 3.076 1.742 1.287.742 3.135 1.54 5.543 2.394-.112.126-2.233 1.589-6.362 4.388h-.042c0-.168.007-.315.02-.44a3.42 3.42 0 00.022-.379c0-.532-.336-1.273-1.008-2.225a14.011 14.011 0 00-2.425-2.625 14.06 14.06 0 00-3.055-1.973c-1.092-.518-2.058-.777-2.898-.777h-.629c-.84 0-1.803.259-2.887.777a14.165 14.165 0 00-3.045 1.973 14.313 14.313 0 00-2.435 2.625c-.68.952-1.019 1.693-1.019 2.225 0 .126.014.252.042.378.028.126.042.273.042.441h-.084l-6.53-4.682c2.002-.462 3.685-1.008 5.05-1.638a32.322 32.322 0 003.769-2.036 48.437 48.437 0 013.443-1.995c1.148-.602 2.464-.903 3.948-.903"
         fill-opacity=".949" fill="#fff" />
   </g>
</svg>