<?xml version="1.0" encoding="UTF-8" standalone="no"?>
<svg
   xmlns:dc="http://purl.org/dc/elements/1.1/"
   xmlns:cc="http://creativecommons.org/ns#"
   xmlns:rdf="http://www.w3.org/1999/02/22-rdf-syntax-ns#"
   xmlns:svg="http://www.w3.org/2000/svg"
   xmlns="http://www.w3.org/2000/svg"
   xmlns:sodipodi="http://sodipodi.sourceforge.net/DTD/sodipodi-0.dtd"
   xmlns:inkscape="http://www.inkscape.org/namespaces/inkscape"
   inkscape:version="1.0 (4035a4fb49, 2020-05-01)"
   sodipodi:docname="1902.svg"
   id="svg20"
   version="1.2"
   viewBox="0 0 42.519639 42.519639"
   height="14.999999mm"
   width="14.999999mm">
  <metadata
     id="metadata24">
    <rdf:RDF>
      <cc:Work
         rdf:about="">
        <dc:format>image/svg+xml</dc:format>
        <dc:type
           rdf:resource="http://purl.org/dc/dcmitype/StillImage" />
        <dc:title>Qt SVG Document</dc:title>
      </cc:Work>
    </rdf:RDF>
  </metadata>
  <sodipodi:namedview
     inkscape:current-layer="svg20"
     inkscape:window-maximized="0"
     inkscape:window-y="0"
     inkscape:window-x="0"
     inkscape:cy="28.346482"
     inkscape:cx="28.346482"
     inkscape:zoom="5.8410537"
     showgrid="false"
     id="namedview22"
     inkscape:window-height="480"
     inkscape:window-width="1034"
     inkscape:pageshadow="2"
     inkscape:pageopacity="0"
     guidetolerance="10"
     gridtolerance="10"
     objecttolerance="10"
     borderopacity="1"
     bordercolor="#666666"
     pagecolor="#ffffff" />
  <title
     id="title2">Qt SVG Document</title>
  <desc
     id="desc4">Generated with Qt</desc>
  <defs
     id="defs6" />
  <g
     transform="translate(5.25984,5.25984)"
     id="g18"
     stroke-linejoin="bevel"
     stroke-linecap="square"
     fill-rule="evenodd"
     stroke-width="1"
     stroke="#000000"
     fill="none">
    <g
       id="g10"
       font-style="normal"
       font-weight="400"
       font-size="7.8px"
       font-family="'MS Shell Dlg 2'"
       stroke="none"
       fill-opacity="1"
       fill="#a61215">
      <path
         id="path8"
         d="M 37.2598,16 C 37.2598,27.7415 27.7415,37.2598 16,37.2598 4.25851,37.2598 -5.25984,27.7415 -5.25984,16 -5.25984,4.25851 4.25851,-5.25984 16,-5.25984 27.7415,-5.25984 37.2598,4.25851 37.2598,16"
         fill-rule="evenodd"
         vector-effect="non-scaling-stroke" />
    </g>
    <g
       id="g14"
       font-style="normal"
       font-weight="400"
       font-size="7.8px"
       font-family="'MS Shell Dlg 2'"
       transform="translate(16,9.76378)"
       stroke="none"
       fill-opacity="0.94902"
       fill="#ffffff">
      <path
         id="path12"
         d="m 5.51318,3.66895 c -0.5179,0 -0.95532,-0.17847 -1.31225,-0.53541 -0.35694,-0.35693 -0.5354,-0.79435 -0.5354,-1.31225 0,-0.5179 0.17846,-0.948325 0.5354,-1.291261 0.35693,-0.342936 0.79435,-0.514404 1.31225,-0.514404 0.48991,0 0.91333,0.171468 1.27027,0.514404 0.35693,0.342936 0.5354,0.773361 0.5354,1.291261 0,0.5179 -0.17847,0.95532 -0.5354,1.31225 C 6.42651,3.49048 6.00309,3.66895 5.51318,3.66895 m 0.73487,9.38525 c 0,0.3919 0.31494,0.7069 0.94482,0.9448 v 2.7925 c 0,0.224 -0.08048,0.4234 -0.24145,0.5984 -0.16097,0.175 -0.35344,0.2624 -0.5774,0.2624 -0.23795,0 -0.44091,-0.0874 -0.60888,-0.2624 C 5.59717,17.2149 5.51318,17.0155 5.51318,16.7915 V 10.9756 H 5.34521 v 5.8159 c 0,0.224 -0.08048,0.4234 -0.24145,0.5984 -0.16097,0.175 -0.35343,0.2624 -0.57739,0.2624 -0.23796,0 -0.43392,-0.0874 -0.58789,-0.2624 C 3.78451,17.2149 3.70752,17.0155 3.70752,16.7915 V 9.98877 9.90479 C 3.65153,9.68083 3.62354,9.49886 3.62354,9.35889 V 6.81836 C 3.51156,7.1263 3.43807,7.46924 3.40308,7.84717 3.36808,8.2251 3.38558,8.68701 3.45557,9.23291 3.48356,9.40088 3.43107,9.56185 3.2981,9.71582 3.16512,9.86979 3.00065,9.96077 2.80469,9.98877 H 2.7627 C 2.59473,9.98877 2.43726,9.93278 2.29028,9.8208 2.14331,9.70882 2.05583,9.55485 2.02783,9.35889 1.94385,8.54704 1.95085,7.84717 2.04883,7.25928 2.14681,6.67139 2.30428,6.17798 2.52124,5.77905 2.7382,5.38013 2.99715,5.05119 3.2981,4.79224 3.59904,4.53328 3.92448,4.30583 4.27441,4.10986 4.30241,4.08187 4.3444,4.06787 4.40039,4.06787 4.48438,4.01188 4.58236,3.94539 4.69434,3.86841 4.80632,3.79142 4.91829,3.73893 5.03027,3.71094 L 5.51318,4.19385 5.93311,3.71094 c 0.09798,0.02799 0.18896,0.06649 0.27294,0.11548 0.08399,0.04899 0.16797,0.10148 0.25196,0.15747 0.08398,0 0.15397,0.02799 0.20996,0.08398 C 6.90592,4.17985 7.08089,4.30583 7.19287,4.4458 6.70296,4.85173 6.29354,5.41862 5.9646,6.14648 5.63566,6.87435 5.48519,7.93115 5.51318,9.31689 c 0,0.30795 0.11548,0.5704 0.34644,0.78731 0.23096,0.217 0.50041,0.3255 0.80835,0.3255 H 6.75195 C 6.61198,11.0316 6.493,11.5845 6.39502,12.0884 6.29704,12.5923 6.24805,12.9142 6.24805,13.0542 M 9.64941,0.015625 c 0.47589,0 0.89579,0.171468 1.25979,0.514404 0.3639,0.342936 0.5459,0.773361 0.5459,1.291261 0,0.5179 -0.182,0.95532 -0.5459,1.31225 -0.364,0.35694 -0.7839,0.53541 -1.25979,0.53541 -0.5179,0 -0.95882,-0.17847 -1.32275,-0.53541 -0.36393,-0.35693 -0.5459,-0.79435 -0.5459,-1.31225 0,-0.5179 0.18197,-0.948325 0.5459,-1.291261 C 8.69059,0.187093 9.13151,0.015625 9.64941,0.015625 M 10.8462,4.10986 c 0.3359,0.19597 0.6544,0.41643 0.9553,0.66138 0.301,0.24495 0.5669,0.5599 0.7979,0.94482 0.2309,0.38493 0.4129,0.86434 0.5459,1.43824 0.1329,0.57389 0.1994,1.29476 0.1994,2.16259 0,0.19597 -0.0735,0.35694 -0.2204,0.48291 -0.147,0.12598 -0.3185,0.18897 -0.5144,0.18897 -0.462,0 -0.6929,-0.23796 -0.6929,-0.71387 0,-1.23177 -0.14,-2.09261 -0.4199,-2.58252 v 1.28076 c 0.056,0.23796 0.1329,0.5774 0.2309,1.01832 0.098,0.44091 0.203,0.91333 0.315,1.41724 0.1119,0.5039 0.2064,0.9973 0.2834,1.4802 0.077,0.4829 0.1155,0.8574 0.1155,1.1233 -0.182,0.28 -0.5319,0.5109 -1.0498,0.6929 v 3.0864 c 0,0.224 -0.077,0.4234 -0.231,0.5984 -0.1539,0.175 -0.3429,0.2624 -0.5669,0.2624 -0.2379,0 -0.4409,-0.0874 -0.60885,-0.2624 C 9.81738,17.2149 9.7334,17.0155 9.7334,16.7915 V 13.915 H 9.58643 v 2.8765 c 0,0.224 -0.08399,0.4234 -0.25196,0.5984 -0.16797,0.175 -0.37093,0.2624 -0.60888,0.2624 -0.22396,0 -0.41293,-0.0874 -0.5669,-0.2624 -0.15397,-0.175 -0.23096,-0.3744 -0.23096,-0.5984 v -3.0444 c -0.81184,-0.21 -1.21777,-0.4409 -1.21777,-0.6929 0,-0.112 0.04549,-0.4059 0.13648,-0.8818 C 6.93742,11.6965 7.0459,11.1855 7.17188,10.6396 7.29785,10.0938 7.40983,9.57235 7.50781,9.07544 7.60579,8.57853 7.68278,8.2111 7.73877,7.97314 V 6.77637 C 7.62679,7.02832 7.53581,7.36426 7.46582,7.78418 7.39583,8.2041 7.36084,8.70101 7.36084,9.2749 c 0,0.47591 -0.23096,0.71387 -0.69287,0.71387 -0.43392,0 -0.67887,-0.22396 -0.73486,-0.67188 0,-0.86783 0.06648,-1.5887 0.19946,-2.16259 C 6.26554,6.5804 6.45451,6.10099 6.69946,5.71606 6.94442,5.33114 7.21737,5.01619 7.51831,4.77124 7.81925,4.52629 8.1237,4.30583 8.43164,4.10986 V 4.06787 C 8.57161,4.01188 8.69409,3.95239 8.79907,3.8894 8.90405,3.82642 9.02653,3.76693 9.1665,3.71094 L 9.64941,4.19385 10.0693,3.71094 c 0.112,0.02799 0.2275,0.08048 0.3465,0.15747 0.1189,0.07698 0.2064,0.14347 0.2624,0.19946 0.084,0 0.14,0.014 0.168,0.04199 M 3.09863,16.9175 c 0,0.3499 0.05599,0.6229 0.16797,0.8188 H -7.94531 c -0.26595,0 -0.48991,-0.0875 -0.67188,-0.2624 -0.18196,-0.175 -0.27295,-0.4024 -0.27295,-0.6824 V 4.76074 l -0.65088,0.62989 c -0.22395,0.23795 -0.50738,0.35693 -0.85038,0.35693 -0.3429,0 -0.6333,-0.11898 -0.8713,-0.35693 -0.224,-0.22396 -0.3359,-0.50041 -0.3359,-0.82935 0,-0.32894 0.1119,-0.61239 0.3359,-0.85034 l 1.30176,-1.36475 v -4.22021 h 2.43555 v 2.498532 l 5.60596,-4.682132 c 0.19596,-0.20996 0.40592,-0.31494 0.62988,-0.31494 0.20996,0 0.440917,0.10498 0.69287,0.31494 l 4.87109,3.821292 C 3.86849,-0.0123698 3.55005,0.288574 3.31909,0.666504 3.08813,1.04443 2.97266,1.47135 2.97266,1.94727 c 0,0.34993 0.06298,0.67537 0.18896,0.97631 0.12598,0.30095 0.30794,0.5634 0.5459,0.78736 C 3.46956,3.8929 3.24561,4.07487 3.03564,4.25684 2.82568,4.4388 2.62972,4.64876 2.44775,4.88672 H -7.04248 V 15.8467 h 3.27539 v -5.8159 h 3.989258 v 5.8159 H 3.09863 v 1.0708"
         fill-rule="evenodd"
         vector-effect="none" />
    </g>
    <g
       id="g16"
       font-style="normal"
       font-weight="400"
       font-size="7.8px"
       font-family="'MS Shell Dlg 2'"
       stroke="none"
       fill-opacity="1"
       fill="#a61215" />
  </g>
</svg>
