<svg xmlns="http://www.w3.org/2000/svg" version="1.2" viewBox="0 0 42.52 42.52" height="56.693" width="56.693">
   <g stroke-linejoin="bevel" stroke-linecap="square" fill-rule="evenodd" stroke="none" fill="none" font-weight="400"
      font-size="7.8" font-family="'MS Shell Dlg 2'">
      <path
         d="M42.52 21.26C42.52 33 33 42.52 21.26 42.52 9.518 42.52 0 33 0 21.26 0 9.518 9.518 0 21.26 0 33 0 42.52 9.518 42.52 21.26"
         vector-effect="non-scaling-stroke" fill="#a61215" />
      <path
         d="M26.773 18.693c-.518 0-.955-.179-1.312-.536a1.784 1.784 0 01-.536-1.312c0-.518.179-.948.536-1.291a1.822 1.822 0 011.312-.515c.49 0 .913.172 1.27.515s.536.773.536 1.29c0 .519-.179.956-.536 1.313-.357.357-.78.536-1.27.536m.735 9.385c0 .392.315.707.945.945v2.792a.86.86 0 01-.242.599.758.758 0 01-.577.262.813.813 0 01-.609-.262.84.84 0 01-.252-.599V26h-.168v5.816a.86.86 0 01-.241.599.758.758 0 01-.578.262.748.748 0 01-.588-.262.88.88 0 01-.23-.599v-6.887a2.36 2.36 0 01-.085-.545v-2.541c-.112.308-.185.65-.22 1.029-.035.378-.018.84.052 1.386.028.167-.024.328-.157.482a.78.78 0 01-.493.273h-.042a.765.765 0 01-.473-.168.676.676 0 01-.262-.461c-.084-.812-.077-1.512.02-2.1.099-.588.256-1.081.473-1.48a3.47 3.47 0 01.777-.987c.3-.26.626-.487.976-.683.028-.028.07-.042.126-.042l.294-.199a1.04 1.04 0 01.336-.157l.483.482.42-.482c.098.028.189.066.273.115.084.049.168.102.252.158.084 0 .154.028.21.083.238.112.413.238.525.378-.49.406-.9.973-1.229 1.701-.329.728-.479 1.785-.451 3.17 0 .308.115.57.346.788.231.217.5.325.809.325h.084c-.14.602-.26 1.155-.357 1.659-.098.504-.147.826-.147.966m3.401-13.039c.476 0 .896.172 1.26.515a1.7 1.7 0 01.546 1.29c0 .519-.182.956-.546 1.313-.364.357-.784.536-1.26.536a1.82 1.82 0 01-1.322-.536 1.767 1.767 0 01-.546-1.312 1.7 1.7 0 01.546-1.291 1.859 1.859 0 011.322-.515m1.197 4.094c.336.196.654.417.955.662.301.245.567.56.798.945.231.385.413.864.546 1.438.133.574.2 1.295.2 2.163a.608.608 0 01-.22.482.766.766 0 01-.515.19c-.462 0-.693-.239-.693-.714 0-1.232-.14-2.093-.42-2.583v1.28c.056.239.133.578.23 1.02l.316 1.416c.112.504.206.998.283 1.48.077.483.116.858.116 1.124-.182.28-.532.51-1.05.693v3.086a.88.88 0 01-.231.599.726.726 0 01-.567.262.813.813 0 01-.609-.262.84.84 0 01-.252-.599V28.94h-.147v2.876a.84.84 0 01-.252.599.813.813 0 01-.609.262.726.726 0 01-.566-.262.88.88 0 01-.231-.599v-3.044c-.812-.21-1.218-.441-1.218-.693 0-.112.045-.406.136-.882.091-.476.2-.987.326-1.533.126-.546.238-1.067.336-1.564.098-.497.175-.864.23-1.102V21.8c-.111.252-.202.588-.272 1.008-.07.42-.105.917-.105 1.49 0 .476-.231.714-.693.714-.434 0-.68-.224-.735-.671 0-.868.066-1.59.2-2.163.132-.574.321-1.053.566-1.438.245-.385.518-.7.82-.945.3-.245.605-.466.912-.662v-.042c.14-.056.263-.115.368-.178.105-.063.227-.122.367-.178l.483.482.42-.482c.112.028.228.08.347.157.119.077.206.143.262.2.084 0 .14.013.168.041m-7.748 12.808c0 .35.056.623.168.819H13.315a.932.932 0 01-.672-.262.904.904 0 01-.273-.683v-12.03l-.651.63a1.118 1.118 0 01-.85.356c-.343 0-.634-.119-.872-.357a1.127 1.127 0 01-.336-.83c0-.328.112-.611.336-.85L11.3 17.37v-4.22h2.435v2.498l5.606-4.682c.196-.21.406-.315.63-.315.21 0 .441.105.693.315l4.871 3.821a2.525 2.525 0 00-.955.903 2.407 2.407 0 00-.347 1.28c0 .35.063.676.19.977.125.301.307.564.545.788-.238.182-.462.363-.672.545-.21.182-.405.392-.587.63h-9.49v10.96h3.275v-5.816h3.989v5.816h2.876v1.071"
         fill-opacity=".949" fill="#fff" />
   </g>
</svg>