<svg xmlns="http://www.w3.org/2000/svg" version="1.2" viewBox="0 0 42.52 42.52" height="56.693" width="56.693">
   <g stroke-linejoin="bevel" stroke-linecap="square" fill-rule="evenodd" stroke="none" fill="none" font-weight="400"
      font-size="7.8" font-family="'MS Shell Dlg 2'">
      <path
         d="M42.52 21.26C42.52 33 33 42.52 21.26 42.52 9.518 42.52 0 33 0 21.26 0 9.518 9.518 0 21.26 0 33 0 42.52 9.518 42.52 21.26"
         vector-effect="non-scaling-stroke" fill="#a61215" />
      <path
         d="M16.107 24.068c-.378 0-.686-.123-.924-.368s-.357-.556-.357-.934c0-.336.12-.626.357-.871.238-.245.546-.368.924-.368s.679.123.903.368c.224.245.336.535.336.871 0 .378-.112.69-.336.934-.224.245-.525.368-.903.368m7.559-1.722c.546 0 1.07.063 1.574.189s.949.304 1.334.535c.384.231.692.511.923.84.231.33.347.683.347 1.06v1.071h-7.958v-3.695h3.78m-5.333-.084c.21 0 .37.063.483.189a.594.594 0 01.167.399v2.54c0 .434-.216.651-.65.651h-2.877a.643.643 0 01-.44-.168c-.127-.112-.19-.273-.19-.483 0-.14.063-.272.19-.398a.604.604 0 01.44-.19h2.289V22.85c0-.14.056-.273.168-.399a.539.539 0 01.42-.189m12.01 7.832h1.721v1.448H10.522v-1.448h1.407v-7.748h-4.2l13.585-11.4 5.165 4.345v-2.876h-.357v-1.722H29v1.722h-.336v4.682l6.194 5.249h-4.515v7.748m-1.154-1.68H13.23v1.68h15.957v-1.68m0-7.328h2.351L21.314 12.5l-10.288 8.587h2.205v6.11h15.957v-6.11"
         fill-opacity=".949" fill="#fff" />
   </g>
</svg>