<?xml version="1.0" encoding="UTF-8" standalone="no"?>
<svg
   xmlns:dc="http://purl.org/dc/elements/1.1/"
   xmlns:cc="http://creativecommons.org/ns#"
   xmlns:rdf="http://www.w3.org/1999/02/22-rdf-syntax-ns#"
   xmlns:svg="http://www.w3.org/2000/svg"
   xmlns="http://www.w3.org/2000/svg"
   xmlns:sodipodi="http://sodipodi.sourceforge.net/DTD/sodipodi-0.dtd"
   xmlns:inkscape="http://www.inkscape.org/namespaces/inkscape"
   inkscape:version="1.0 (4035a4fb49, 2020-05-01)"
   sodipodi:docname="1903.svg"
   id="svg20"
   version="1.2"
   viewBox="0 0 42.519639 42.519639"
   height="14.999999mm"
   width="14.999999mm">
  <metadata
     id="metadata24">
    <rdf:RDF>
      <cc:Work
         rdf:about="">
        <dc:format>image/svg+xml</dc:format>
        <dc:type
           rdf:resource="http://purl.org/dc/dcmitype/StillImage" />
        <dc:title>Qt SVG Document</dc:title>
      </cc:Work>
    </rdf:RDF>
  </metadata>
  <sodipodi:namedview
     inkscape:current-layer="svg20"
     inkscape:window-maximized="0"
     inkscape:window-y="0"
     inkscape:window-x="0"
     inkscape:cy="28.346482"
     inkscape:cx="28.346482"
     inkscape:zoom="5.8410537"
     showgrid="false"
     id="namedview22"
     inkscape:window-height="480"
     inkscape:window-width="1034"
     inkscape:pageshadow="2"
     inkscape:pageopacity="0"
     guidetolerance="10"
     gridtolerance="10"
     objecttolerance="10"
     borderopacity="1"
     bordercolor="#666666"
     pagecolor="#ffffff" />
  <title
     id="title2">Qt SVG Document</title>
  <desc
     id="desc4">Generated with Qt</desc>
  <defs
     id="defs6" />
  <g
     transform="translate(5.25984,5.25984)"
     id="g18"
     stroke-linejoin="bevel"
     stroke-linecap="square"
     fill-rule="evenodd"
     stroke-width="1"
     stroke="#000000"
     fill="none">
    <g
       id="g10"
       font-style="normal"
       font-weight="400"
       font-size="7.8px"
       font-family="'MS Shell Dlg 2'"
       stroke="none"
       fill-opacity="1"
       fill="#a61215">
      <path
         id="path8"
         d="M 37.2598,16 C 37.2598,27.7415 27.7415,37.2598 16,37.2598 4.25851,37.2598 -5.25984,27.7415 -5.25984,16 -5.25984,4.25851 4.25851,-5.25984 16,-5.25984 27.7415,-5.25984 37.2598,4.25851 37.2598,16"
         fill-rule="evenodd"
         vector-effect="non-scaling-stroke" />
    </g>
    <g
       id="g14"
       font-style="normal"
       font-weight="400"
       font-size="7.8px"
       font-family="'MS Shell Dlg 2'"
       transform="translate(16,12.0315)"
       stroke="none"
       fill-opacity="0.94902"
       fill="#ffffff">
      <path
         id="path12"
         d="m -5.15283,6.77637 c -0.37793,0 -0.68587,-0.12248 -0.92383,-0.36743 -0.23796,-0.24496 -0.35693,-0.5564 -0.35693,-0.93433 0,-0.33594 0.11897,-0.62638 0.35693,-0.87134 0.23796,-0.24495 0.5459,-0.36743 0.92383,-0.36743 0.37793,0 0.67887,0.12248 0.90283,0.36743 0.22396,0.24496 0.33594,0.5354 0.33594,0.87134 0,0.37793 -0.11198,0.68937 -0.33594,0.93433 -0.22396,0.24495 -0.5249,0.36743 -0.90283,0.36743 M 2.40576,5.05469 c 0.5459,0 1.0708,0.06299 1.57471,0.18896 0.50391,0.12598 0.94832,0.30445 1.33325,0.5354 0.38493,0.23096 0.69287,0.51091 0.92383,0.83985 0.23096,0.32894 0.34643,0.68237 0.34643,1.0603 V 8.75 H -1.37354 V 5.05469 h 3.7793 M -2.92725,4.9707 c 0.20996,0 0.37093,0.06299 0.48291,0.18897 0.11198,0.12597 0.16797,0.25895 0.16797,0.39892 v 2.54053 c 0,0.43392 -0.21696,0.65088 -0.65088,0.65088 h -2.87646 c -0.16797,0 -0.31494,-0.05599 -0.44092,-0.16797 -0.12598,-0.11198 -0.18896,-0.27295 -0.18896,-0.48291 0,-0.13997 0.06298,-0.27295 0.18896,-0.39892 0.12598,-0.12598 0.27295,-0.18897 0.44092,-0.18897 h 2.28857 V 5.55859 c 0,-0.13997 0.05599,-0.27295 0.16797,-0.39892 0.11198,-0.12598 0.25196,-0.18897 0.41992,-0.18897 m 12.00977,7.8315 h 1.72168 v 1.4488 h -21.542 v -1.4488 h 1.40675 V 5.05469 H -13.5303 L 0.0541992,-6.34619 5.21924,-2 V -4.87646 H 4.8623 v -1.72168 h 2.87647 v 1.72168 H 7.40283 v 4.682124 L 13.5967,5.05469 H 9.08252 V 12.8022 M 7.92773,11.1226 H -8.0293 v 1.6796 H 7.92773 v -1.6796 m 0,-7.32768 H 10.2793 L 0.0541992,-4.79248 -10.2339,3.79492 h 2.2046 V 9.90479 H 7.92773 V 3.79492"
         fill-rule="evenodd"
         vector-effect="none" />
    </g>
    <g
       id="g16"
       font-style="normal"
       font-weight="400"
       font-size="7.8px"
       font-family="'MS Shell Dlg 2'"
       stroke="none"
       fill-opacity="1"
       fill="#a61215" />
  </g>
</svg>
