<svg xmlns="http://www.w3.org/2000/svg" version="1.2" viewBox="0 0 42.52 42.52" height="56.693" width="56.693">
   <g stroke-linejoin="bevel" stroke-linecap="square" fill-rule="evenodd" stroke="none" fill="none" font-weight="400"
      font-size="7.8" font-family="'MS Shell Dlg 2'">
      <path
         d="M42.52 21.26C42.52 33 33 42.52 21.26 42.52 9.518 42.52 0 33 0 21.26 0 9.518 9.518 0 21.26 0 33 0 42.52 9.518 42.52 21.26"
         vector-effect="non-scaling-stroke" fill="#a61215" />
      <path
         d="M11.23 26.65h19.485V20.29H11.23v6.361m1.721-3.002h1.68v1.722h-1.68v-1.722m3.822 1.722h-1.722v-1.722h1.722v1.722m2.498-1.722h1.722v1.722h-1.722v-1.722m3.821 1.722h-1.68v-1.722h1.68v1.722m2.142-1.722h1.68v1.722h-1.68v-1.722m3.8 1.722h-1.721v-1.722h1.721v1.722m0-2.058h-1.721V21.59h1.721v1.722m-3.8-1.722h1.68v1.722h-1.68V21.59m-2.142 1.722h-1.68V21.59h1.68v1.722m-3.82-1.722h1.72v1.722h-1.72V21.59m-2.5 1.722h-1.721V21.59h1.722v1.722m-3.822-1.722h1.68v1.722h-1.68V21.59m-1.721-1.721h19.484v-6.362H11.23v6.362m1.721-2.96h1.68v1.7h-1.68v-1.7m3.822 1.7h-1.722v-1.7h1.722v1.7m2.498-1.7h1.722v1.7h-1.722v-1.7m3.821 1.7h-1.68v-1.7h1.68v1.7m2.142-1.7h1.68v1.7h-1.68v-1.7m3.8 1.7h-1.721v-1.7h1.721v1.7m0-2.142h-1.721v-1.68h1.721v1.68m-3.8-1.68h1.68v1.68h-1.68v-1.68m-2.142 1.68h-1.68v-1.68h1.68v1.68m-3.82-1.68h1.72v1.68h-1.72v-1.68m-2.5 1.68h-1.721v-1.68h1.722v1.68m-3.822-1.68h1.68v1.68h-1.68v-1.68m-1.721 12.346v8.462h19.421v-8.462H11.23m3.4 5.04h-1.679v-1.638h1.68v1.637m0-2.12h-1.68v-1.68h1.68v1.68m2.142 2.12h-1.722v-1.637h1.722v1.637m0-2.12h-1.722v-1.68h1.722v1.68m4.22 2.12h-1.722v-1.637h1.722v1.637m0-2.12h-1.722v-1.68h1.722v1.68m2.1 2.12h-1.68v-1.637h1.68v1.637m0-2.12h-1.68v-1.68h1.68v1.68m2.14-1.68h3.801v4.703h-3.8v-4.703m4.661 6.467h-5.522v-.61h.819v-.65h3.842v.65h.777v.61h.084M9.93 9.287h22.487v3.779H9.929v-3.78"
         fill-opacity=".949" fill="#fff" />
   </g>
</svg>