<svg xmlns="http://www.w3.org/2000/svg" version="1.2" viewBox="0 0 42.52 42.52" height="56.693" width="56.693">
   <g stroke-linejoin="bevel" stroke-linecap="square" fill-rule="evenodd" stroke="none" fill="none" font-weight="400"
      font-size="7.8" font-family="'MS Shell Dlg 2'">
      <path
         d="M42.52 21.26C42.52 33 33 42.52 21.26 42.52 9.518 42.52 0 33 0 21.26 0 9.518 9.518 0 21.26 0 33 0 42.52 9.518 42.52 21.26"
         vector-effect="non-scaling-stroke" fill="#a61215" />
      <path
         d="M10.396 21.002v-6.089l-1.239.252-.65-.818L16.38 9.58l2.708 1.764V8.846h.945v3.044l4.074 2.457-.588.818-1.302-.252v2.352l-4.934 3.023h-3.654v.714h-3.233m6.887-6.089H15.35v4.284h1.932v-4.284m1.197 2.52h2.057v-2.184H18.48v2.184m-3.486-4.724h2.625l-1.239-1.365-1.386 1.365m-2.918 4.724h2.1v-2.184h-2.1v2.184m23.39 6.719l-.903 1.07-1.722-.335v8.587h-4.598v-.63h-7.58v.63H16.15v-8.587l-1.806.335-.819-1.07 10.981-6.72 3.906 2.415v-3.4h1.197v4.135l5.857 3.57m-10.96-4.305c-.573 0-1.039.193-1.396.578-.357.385-.535.822-.535 1.312h3.737c0-.49-.178-.927-.535-1.312-.357-.385-.78-.578-1.27-.578m-1.47 5.04v6.11h2.834v-6.11h-2.834m-1.638.503h-2.834v4.305h2.834V25.39m5.291 6.51h-4.472v.461h4.472V31.9m3.737-6.509h-2.918v4.305h2.918V25.39"
         fill-opacity=".949" fill="#fff" />
   </g>
</svg>