<?xml version="1.0" encoding="UTF-8" standalone="no"?>
<svg
   xmlns:dc="http://purl.org/dc/elements/1.1/"
   xmlns:cc="http://creativecommons.org/ns#"
   xmlns:rdf="http://www.w3.org/1999/02/22-rdf-syntax-ns#"
   xmlns:svg="http://www.w3.org/2000/svg"
   xmlns="http://www.w3.org/2000/svg"
   xmlns:sodipodi="http://sodipodi.sourceforge.net/DTD/sodipodi-0.dtd"
   xmlns:inkscape="http://www.inkscape.org/namespaces/inkscape"
   inkscape:version="1.0 (4035a4fb49, 2020-05-01)"
   sodipodi:docname="1906.svg"
   id="svg20"
   version="1.2"
   viewBox="0 0 42.519639 42.519639"
   height="14.999999mm"
   width="14.999999mm">
  <metadata
     id="metadata24">
    <rdf:RDF>
      <cc:Work
         rdf:about="">
        <dc:format>image/svg+xml</dc:format>
        <dc:type
           rdf:resource="http://purl.org/dc/dcmitype/StillImage" />
        <dc:title>Qt SVG Document</dc:title>
      </cc:Work>
    </rdf:RDF>
  </metadata>
  <sodipodi:namedview
     inkscape:current-layer="svg20"
     inkscape:window-maximized="0"
     inkscape:window-y="0"
     inkscape:window-x="0"
     inkscape:cy="28.346482"
     inkscape:cx="28.346482"
     inkscape:zoom="5.8410537"
     showgrid="false"
     id="namedview22"
     inkscape:window-height="480"
     inkscape:window-width="1034"
     inkscape:pageshadow="2"
     inkscape:pageopacity="0"
     guidetolerance="10"
     gridtolerance="10"
     objecttolerance="10"
     borderopacity="1"
     bordercolor="#666666"
     pagecolor="#ffffff" />
  <title
     id="title2">Qt SVG Document</title>
  <desc
     id="desc4">Generated with Qt</desc>
  <defs
     id="defs6" />
  <g
     transform="translate(5.25984,5.25984)"
     id="g18"
     stroke-linejoin="bevel"
     stroke-linecap="square"
     fill-rule="evenodd"
     stroke-width="1"
     stroke="#000000"
     fill="none">
    <g
       id="g10"
       font-style="normal"
       font-weight="400"
       font-size="7.8px"
       font-family="'MS Shell Dlg 2'"
       stroke="none"
       fill-opacity="1"
       fill="#a61215">
      <path
         id="path8"
         d="M 37.2598,16 C 37.2598,27.7415 27.7415,37.2598 16,37.2598 4.25851,37.2598 -5.25984,27.7415 -5.25984,16 -5.25984,4.25851 4.25851,-5.25984 16,-5.25984 27.7415,-5.25984 37.2598,4.25851 37.2598,16"
         fill-rule="evenodd"
         vector-effect="non-scaling-stroke" />
    </g>
    <g
       id="g14"
       font-style="normal"
       font-weight="400"
       font-size="7.8px"
       font-family="'MS Shell Dlg 2'"
       transform="translate(18.8346,10.8976)"
       stroke="none"
       fill-opacity="0.94902"
       fill="#ffffff">
      <path
         id="path12"
         d="m 1.47363,16.2666 c 0.23796,0 0.44792,0.0875 0.62989,0.2625 0.18196,0.1749 0.27294,0.3744 0.27294,0.5983 0,0.238 -0.09098,0.455 -0.27294,0.6509 -0.18197,0.196 -0.39193,0.294 -0.62989,0.294 h -0.944821 -4.346189 -8.04152 -4.3462 -0.9028 c -0.308,0 -0.5424,-0.098 -0.7034,-0.294 -0.1609,-0.1959 -0.2414,-0.4129 -0.2414,-0.6509 0,-0.2239 0.0805,-0.4234 0.2414,-0.5983 0.161,-0.175 0.3954,-0.2625 0.7034,-0.2625 h 0.3149 L -8.91943,1.35938 -9.6123,-0.0263672 C -9.75228,-0.250326 -9.78027,-0.470785 -9.69629,-0.687744 c 0.08399,-0.21696 0.23796,-0.395426 0.46191,-0.535396 0.23796,-0.05599 0.46892,-0.05599 0.69288,0 0.22395,0.05599 0.41292,0.19596 0.56689,0.419917 l 0.16797,0.125977 0.04199,-0.125977 c 0.13998,-0.223957 0.32544,-0.363927 0.5564,-0.419917 0.23096,-0.05599 0.45841,-0.05599 0.68237,0 0.23796,0.13997 0.39893,0.318436 0.48291,0.535396 0.08399,0.216959 0.05599,0.437418 -0.08398,0.6613768 L -6.86182,1.35938 1.05371,16.2666 h 0.41992 m -6.82373,0 -2.45654,-4.8081 -2.58256,4.8081 h 5.0391 m 20.5552,-4.3252 c 0.1959,0 0.3569,0.063 0.4829,0.189 0.126,0.1259 0.189,0.2729 0.189,0.4409 0,0.21 -0.063,0.3709 -0.189,0.4829 -0.126,0.112 -0.287,0.168 -0.4829,0.168 h -2.4566 l 0.9029,2.7085 c 0.056,0.1679 0.049,0.3324 -0.021,0.4934 -0.07,0.1609 -0.21,0.2694 -0.42,0.3254 -0.0559,0.028 -0.1399,0.042 -0.2519,0.042 -0.28,0 -0.4829,-0.147 -0.6089,-0.4409 L 11.3628,13.2222 H 8.06641 l -1.00782,3.1284 c -0.08398,0.2939 -0.29394,0.4409 -0.62988,0.4409 -0.08398,0 -0.17497,-0.014 -0.27295,-0.042 -0.33594,-0.14 -0.47591,-0.4129 -0.41992,-0.8188 L 6.63867,13.2222 H 4.22412 c -0.19596,0 -0.34993,-0.056 -0.46191,-0.168 -0.11198,-0.112 -0.16797,-0.2729 -0.16797,-0.4829 0,-0.168 0.05599,-0.315 0.16797,-0.4409 0.11198,-0.126 0.26595,-0.189 0.46191,-0.189 H 7.05859 L 7.45752,10.7236 H 7.05859 c -0.22395,0 -0.39892,-0.07 -0.5249,-0.2099 -0.12598,-0.14 -0.18896,-0.301 -0.18896,-0.4829 0,-0.16801 0.06298,-0.31498 0.18896,-0.44096 0.12598,-0.12597 0.30095,-0.18896 0.5249,-0.18896 h 5.33301 c 0.182,0 0.3359,0.06299 0.4619,0.18896 0.126,0.12598 0.189,0.27295 0.189,0.44096 0,0.1819 -0.063,0.3429 -0.189,0.4829 -0.126,0.1399 -0.2799,0.2099 -0.4619,0.2099 h -0.4199 l 0.3779,1.2178 h 2.8555 m -4.3042,0 -0.315,-1.0918 c -0.028,-0.028 -0.042,-0.07 -0.042,-0.126 H 8.86426 c 0,0.056 -0.028,0.098 -0.08399,0.126 L 8.52832,11.9414 H 10.9009 M 10.25,4.80273 c 0.14,0 0.2764,0.05599 0.4094,0.16797 0.133,0.11198 0.1995,0.23796 0.1995,0.37793 0,0.16797 -0.0665,0.31844 -0.1995,0.45142 C 10.5264,5.93302 10.39,5.99951 10.25,5.99951 H 9.59912 6.72266 1.38965 -1.48682 -2.0957 c -0.22396,0 -0.38493,-0.06649 -0.48291,-0.19946 C -2.6766,5.66707 -2.72559,5.5166 -2.72559,5.34863 c 0,-0.13997 0.04899,-0.26595 0.14698,-0.37793 0.09798,-0.11198 0.25895,-0.16797 0.48291,-0.16797 h 0.16797 L 3.32129,-5.08643 2.85938,-6.05225 C 2.77539,-6.19222 2.76139,-6.33219 2.81738,-6.47217 2.87337,-6.61214 2.97135,-6.72412 3.11133,-6.80811 3.2793,-6.8641 3.43677,-6.87109 3.58374,-6.8291 c 0.14697,0.04199 0.26245,0.13297 0.34644,0.27295 l 0.12597,0.08398 0.04199,-0.08398 c 0.08399,-0.13998 0.20647,-0.23096 0.36744,-0.27295 0.16097,-0.04199 0.31144,-0.035 0.45141,0.02099 0.13998,0.08399 0.23796,0.19597 0.29395,0.33594 0.05599,0.13998 0.04199,0.27995 -0.04199,0.41992 L 4.70703,-5.08643 9.95605,4.80273 H 10.25 m -4.55615,0 -1.6377,-3.1914 -1.72168,3.1914 h 3.35938"
         fill-rule="evenodd"
         vector-effect="none" />
    </g>
    <g
       id="g16"
       font-style="normal"
       font-weight="400"
       font-size="7.8px"
       font-family="'MS Shell Dlg 2'"
       stroke="none"
       fill-opacity="1"
       fill="#a61215" />
  </g>
</svg>
