<svg xmlns="http://www.w3.org/2000/svg" version="1.2" viewBox="0 0 42.52 42.52" height="56.693" width="56.693">
   <g stroke-linejoin="bevel" stroke-linecap="square" fill-rule="evenodd" stroke="none" fill="none" font-weight="400"
      font-size="7.8" font-family="'MS Shell Dlg 2'">
      <path
         d="M42.52 21.26C42.52 33 33 42.52 21.26 42.52 9.518 42.52 0 33 0 21.26 0 9.518 9.518 0 21.26 0 33 0 42.52 9.518 42.52 21.26"
         vector-effect="non-scaling-stroke" fill="#a61215" />
      <path
         d="M25.568 32.424c.238 0 .448.088.63.263a.81.81 0 01.273.598.936.936 0 01-.273.65c-.182.197-.392.295-.63.295H6.987c-.308 0-.543-.098-.704-.294a1.001 1.001 0 01-.241-.651.86.86 0 01.241-.598c.161-.175.396-.263.704-.263H7.3l7.874-14.907-.693-1.386c-.14-.224-.168-.444-.084-.661.084-.217.238-.396.462-.536a1.45 1.45 0 01.693 0c.224.056.413.196.567.42l.168.126.042-.126a.892.892 0 01.556-.42c.231-.056.459-.056.683 0 .238.14.398.319.482.536.084.217.056.437-.084.661l-.734 1.386 7.915 14.907h.42m-6.824 0l-2.456-4.808-2.583 4.808h5.04M39.3 28.099c.195 0 .356.063.482.189a.604.604 0 01.19.44c0 .21-.064.372-.19.484a.7.7 0 01-.482.168h-2.457l.903 2.708a.668.668 0 01-.021.494c-.07.16-.21.269-.42.325a.584.584 0 01-.252.042c-.28 0-.483-.147-.609-.441l-.987-3.128h-3.296l-1.008 3.128c-.084.294-.294.44-.63.44a.998.998 0 01-.273-.041c-.336-.14-.476-.413-.42-.819l.903-2.708H28.32c-.196 0-.35-.056-.462-.168-.112-.112-.168-.273-.168-.483 0-.168.056-.315.168-.441a.586.586 0 01.462-.19h2.834l.399-1.217h-.399c-.224 0-.399-.07-.525-.21a.7.7 0 01-.189-.483c0-.168.063-.315.19-.44.125-.127.3-.19.524-.19h5.333c.182 0 .336.063.462.19a.604.604 0 01.189.44.7.7 0 01-.19.483.598.598 0 01-.461.21h-.42l.378 1.218H39.3m-4.305 0l-.315-1.092c-.028-.028-.042-.07-.042-.126h-1.68c0 .056-.027.098-.083.126l-.252 1.092h2.372m-.65-7.139c.14 0 .276.056.409.168.133.112.2.238.2.378a.623.623 0 01-.2.451c-.133.133-.27.2-.41.2H21.998c-.223 0-.384-.067-.482-.2a.742.742 0 01-.147-.45c0-.14.049-.267.147-.379.098-.112.259-.168.483-.168h.168l5.249-9.889-.462-.966a.452.452 0 01-.042-.42.682.682 0 01.294-.336.786.786 0 01.472-.02.58.58 0 01.347.272l.126.084.042-.084a.584.584 0 01.367-.273.707.707 0 01.451.021c.14.084.238.196.294.336.056.14.042.28-.042.42l-.462.966 5.25 9.89h.293m-4.556 0l-1.637-3.192-1.722 3.191h3.36"
         fill-opacity=".949" fill="#fff" />
   </g>
</svg>