<svg xmlns="http://www.w3.org/2000/svg" version="1.2" viewBox="0 0 42.52 42.52" height="56.693" width="56.693">
   <g stroke-linejoin="bevel" stroke-linecap="square" fill-rule="evenodd" stroke="none" fill="none" font-weight="400"
      font-size="7.8" font-family="'MS Shell Dlg 2'">
      <path
         d="M42.52 21.26C42.52 33 33 42.52 21.26 42.52 9.518 42.52 0 33 0 21.26 0 9.518 9.518 0 21.26 0 33 0 42.52 9.518 42.52 21.26"
         vector-effect="non-scaling-stroke" fill="#a61215" />
      <path
         d="M18.165 22.64h10.918V26H18.165v-3.36m-4.389 1.637h3.108V26h-3.108v-1.722m4.389-8.986h10.918v3.36H18.165v-3.36m-4.389 1.638h3.108v1.721h-3.108V16.93m16.608.042h1.68v14.487h-1.68v-2.75H12.58v2.75H10.9V13.78h1.68v5.984h17.804v-2.792M12.58 26.986h17.804v-5.501H12.58V26.986"
         fill-opacity=".949" fill="#fff" />
   </g>
</svg>