<?xml version="1.0" encoding="UTF-8" standalone="no"?>
<svg width="11.25008mm" height="11.25008mm"
 viewBox="-5.3 -5.3 42.52000 42.52000"
 xmlns="http://www.w3.org/2000/svg" xmlns:xlink="http://www.w3.org/1999/xlink"  version="1.2" baseProfile="tiny">
<title>Qt SVG Document</title>
<desc>Generated with Qt</desc>
<defs>
</defs>
<g fill="none" stroke="black" stroke-width="1" fill-rule="evenodd" stroke-linecap="square" stroke-linejoin="bevel" >

<g fill="#a61215" fill-opacity="1" stroke="none" transform="matrix(1,0,0,1,0,0)"
font-family="MS Shell Dlg 2" font-size="7.8" font-weight="400" font-style="normal" 
>
<path vector-effect="non-scaling-stroke" fill-rule="evenodd" d="M37.2598,16 C37.2598,27.7415 27.7415,37.2598 16,37.2598 C4.25851,37.2598 -5.25984,27.7415 -5.25984,16 C-5.25984,4.25851 4.25851,-5.25984 16,-5.25984 C27.7415,-5.25984 37.2598,4.25851 37.2598,16 "/>
</g>

<g fill="#ffffff" fill-opacity="0.94902" stroke="none" transform="matrix(1,0,0,1,16,8.62992)"
font-family="MS Shell Dlg 2" font-size="7.8" font-weight="400" font-style="normal" 
>
<path vector-effect="none" fill-rule="evenodd" d="M-3.09521,8.75 L7.82275,8.75 L7.82275,12.1094 L-3.09521,12.1094 L-3.09521,8.75 M-7.4834,10.3877 L-4.37598,10.3877 L-4.37598,12.1094 L-7.4834,12.1094 L-7.4834,10.3877 M-3.09521,1.40137 L7.82275,1.40137 L7.82275,4.76074 L-3.09521,4.76074 L-3.09521,1.40137 M-7.4834,3.03906 L-4.37598,3.03906 L-4.37598,4.76074 L-7.4834,4.76074 L-7.4834,3.03906 M9.12451,3.08105 L10.8042,3.08105 L10.8042,5.87354 L10.8042,6.73438 L10.8042,13.0962 L10.8042,13.957 L10.8042,17.5684 L9.12451,17.5684 L9.12451,14.8179 L-8.68018,14.8179 L-8.68018,17.5684 L-10.3599,17.5684 L-10.3599,10.3457 L-10.3599,7.1123 L-10.3599,-0.110352 L-8.68018,-0.110352 L-8.68018,5.87354 L9.12451,5.87354 L9.12451,3.08105 M-8.68018,13.0962 L9.12451,13.0962 L9.12451,7.59521 L-8.68018,7.59521 L-8.68018,10.3457 L-8.68018,13.0962"/>
</g>

<g fill="#a61215" fill-opacity="1" stroke="none" transform="matrix(1,0,0,1,0,0)"
font-family="MS Shell Dlg 2" font-size="7.8" font-weight="400" font-style="normal" 
>
</g>
</g>
</svg>
