<?xml version="1.0" encoding="UTF-8" standalone="no"?>
<svg
   xmlns:dc="http://purl.org/dc/elements/1.1/"
   xmlns:cc="http://creativecommons.org/ns#"
   xmlns:rdf="http://www.w3.org/1999/02/22-rdf-syntax-ns#"
   xmlns:svg="http://www.w3.org/2000/svg"
   xmlns="http://www.w3.org/2000/svg"
   xmlns:sodipodi="http://sodipodi.sourceforge.net/DTD/sodipodi-0.dtd"
   xmlns:inkscape="http://www.inkscape.org/namespaces/inkscape"
   inkscape:version="1.0 (4035a4fb49, 2020-05-01)"
   sodipodi:docname="1908.svg"
   id="svg20"
   version="1.2"
   viewBox="0 0 42.519639 42.519639"
   height="14.999999mm"
   width="14.999999mm">
  <metadata
     id="metadata24">
    <rdf:RDF>
      <cc:Work
         rdf:about="">
        <dc:format>image/svg+xml</dc:format>
        <dc:type
           rdf:resource="http://purl.org/dc/dcmitype/StillImage" />
        <dc:title>Qt SVG Document</dc:title>
      </cc:Work>
    </rdf:RDF>
  </metadata>
  <sodipodi:namedview
     inkscape:current-layer="svg20"
     inkscape:window-maximized="0"
     inkscape:window-y="0"
     inkscape:window-x="0"
     inkscape:cy="28.346482"
     inkscape:cx="28.346482"
     inkscape:zoom="5.8410537"
     showgrid="false"
     id="namedview22"
     inkscape:window-height="480"
     inkscape:window-width="1034"
     inkscape:pageshadow="2"
     inkscape:pageopacity="0"
     guidetolerance="10"
     gridtolerance="10"
     objecttolerance="10"
     borderopacity="1"
     bordercolor="#666666"
     pagecolor="#ffffff" />
  <title
     id="title2">Qt SVG Document</title>
  <desc
     id="desc4">Generated with Qt</desc>
  <defs
     id="defs6" />
  <g
     transform="translate(5.25984,5.25984)"
     id="g18"
     stroke-linejoin="bevel"
     stroke-linecap="square"
     fill-rule="evenodd"
     stroke-width="1"
     stroke="#000000"
     fill="none">
    <g
       id="g10"
       font-style="normal"
       font-weight="400"
       font-size="7.8px"
       font-family="'MS Shell Dlg 2'"
       stroke="none"
       fill-opacity="1"
       fill="#a61215">
      <path
         id="path8"
         d="M 37.2598,16 C 37.2598,27.7415 27.7415,37.2598 16,37.2598 4.25851,37.2598 -5.25984,27.7415 -5.25984,16 -5.25984,4.25851 4.25851,-5.25984 16,-5.25984 27.7415,-5.25984 37.2598,4.25851 37.2598,16"
         fill-rule="evenodd"
         vector-effect="non-scaling-stroke" />
    </g>
    <g
       id="g14"
       font-style="normal"
       font-weight="400"
       font-size="7.8px"
       font-family="'MS Shell Dlg 2'"
       transform="translate(16,9.76378)"
       stroke="none"
       fill-opacity="0.94902"
       fill="#ffffff">
      <path
         id="path12"
         d="m 12.5415,6.41943 c 0.084,0.09799 0.126,0.20297 0.126,0.31495 0,0.25195 -0.098,0.37792 -0.294,0.37792 h -0.042 -0.0839 v 5.249 c 0,0.196 -0.091,0.322 -0.273,0.378 L 8.11133,13.915 h -0.04199 -0.042 l -2.6665,-0.4829 -10.09912,2.3726 h -0.04199 -0.14698 l -6.21485,-2.5405 c -0.154,-0.084 -0.2309,-0.21 -0.2309,-0.378 V 6.33545 l -0.336,0.08398 h -0.042 c -0.14,0 -0.2239,-0.05599 -0.2519,-0.16797 -0.098,-0.13997 -0.098,-0.27994 0,-0.41992 l 3.65329,-7.22265 0.04199,-0.042 c 0,0 0.028,-0.02799 0.08399,-0.08398 0.02799,0 0.05599,-0.0105 0.08398,-0.03149 0.028,-0.021 0.05599,-0.0315 0.08399,-0.0315 h 0.04199 L 10.2529,3.71094 c 0.07,0 0.133,0.02799 0.189,0.08398 l 2.0996,2.62451 M -9.12646,8.95996 c 0,-0.08398 -0.028,-0.12598 -0.08399,-0.12598 L -10.5122,8.75 l -0.042,0.04199 c -0.028,0.028 -0.042,0.05599 -0.042,0.08399 v 2.09962 c 0,0.098 0.028,0.147 0.084,0.147 l 1.25976,0.2939 h 0.04199 c 0,0 0.014,-0.014 0.04199,-0.042 0.028,0 0.042,-0.028 0.042,-0.084 V 8.95996 m 3.04443,0.12598 c 0,-0.08399 -0.028,-0.12598 -0.08399,-0.12598 L -8.09766,8.87598 c 0,0 -0.01399,0.01399 -0.04199,0.04199 -0.02799,0 -0.04199,0.02799 -0.04199,0.08398 v 2.54055 c 0,0.084 0.02799,0.126 0.08398,0.126 l 1.88965,0.4409 h 0.04199 c 0,0 0.014,-0.014 0.042,-0.042 0.02799,0 0.04199,-0.028 0.04199,-0.084 V 9.08594 M 0.552734,9.00195 c 0,-0.05599 -0.013997,-0.08398 -0.041992,-0.08398 0,-0.028 -0.034993,-0.04199 -0.10498,-0.04199 L -3.05859,8.95996 c -0.06999,0 -0.10498,0.04199 -0.10498,0.12598 v 2.98146 c 0,0.028 0.02099,0.056 0.06298,0.084 0,0.028 0.014,0.042 0.042,0.042 h 0.04199 l 3.464354,-0.483 c 0.069987,0 0.10498,-0.0419 0.10498,-0.1259 V 9.00195 M 4.41602,8.91797 c 0,-0.05599 -0.014,-0.08399 -0.042,-0.08399 0,-0.02799 -0.02799,-0.04199 -0.08398,-0.04199 L 1.87549,8.83398 c -0.08399,0 -0.12598,0.042 -0.12598,0.12598 v 2.45654 c 0,0.028 0.014,0.056 0.04199,0.084 0.028,0.028 0.05599,0.042 0.08399,0.042 l 2.45654,-0.294 c 0.05599,0 0.08399,-0.042 0.08399,-0.1259 V 8.91797 M 11.4707,6.20947 10.043,4.4458 -7.3208,-0.530273 -4.6543,4.06787 5.36084,5.39063 8.06934,5.74756 11.4707,6.20947 M 10.001,9.61084 c 0,-0.02799 -0.00702,-0.04899 -0.02102,-0.06299 -0.014,-0.014 -0.021,-0.03499 -0.021,-0.06299 -0.02799,0 -0.04199,-0.007 -0.04199,-0.02099 0,-0.014 -0.014,-0.021 -0.04199,-0.021 L 8.93018,9.52686 c -0.05599,0 -0.08399,0.04199 -0.08399,0.12597 v 1.72167 c 0,0.028 0.014,0.056 0.04199,0.084 0,0 0.028,0.014 0.08399,0.042 l 0.94482,-0.168 c 0.05599,0 0.08401,-0.042 0.08401,-0.126 V 9.61084 m 1.5537,-0.12598 c 0,-0.05599 -0.014,-0.09798 -0.042,-0.12597 h -0.042 l -0.7769,0.04199 c -0.0559,0 -0.0839,0.04199 -0.0839,0.12598 v 1.51174 c 0,0.056 0.014,0.098 0.042,0.126 h 0.0419 0.042 l 0.7349,-0.126 c 0.056,0 0.084,-0.049 0.084,-0.147 V 9.48486"
         fill-rule="evenodd"
         vector-effect="none" />
    </g>
    <g
       id="g16"
       font-style="normal"
       font-weight="400"
       font-size="7.8px"
       font-family="'MS Shell Dlg 2'"
       stroke="none"
       fill-opacity="1"
       fill="#a61215" />
  </g>
</svg>
