<svg xmlns="http://www.w3.org/2000/svg" version="1.2" viewBox="0 0 42.52 42.52" height="56.693" width="56.693">
   <g stroke-linejoin="bevel" stroke-linecap="square" fill-rule="evenodd" stroke="none" fill="none" font-weight="400"
      font-size="7.8" font-family="'MS Shell Dlg 2'">
      <path
         d="M42.52 21.26C42.52 33 33 42.52 21.26 42.52 9.518 42.52 0 33 0 21.26 0 9.518 9.518 0 21.26 0 33 0 42.52 9.518 42.52 21.26"
         vector-effect="non-scaling-stroke" fill="#a61215" />
      <path
         d="M33.801 21.443a.476.476 0 01.126.315c0 .252-.098.378-.294.378h-.126v5.249c0 .196-.09.322-.273.378l-3.863 1.176h-.084l-2.666-.483-10.1 2.372h-.188l-6.215-2.54a.406.406 0 01-.231-.378v-6.55l-.336.083h-.042c-.14 0-.224-.056-.252-.168a.337.337 0 010-.42l3.653-7.222.042-.042.084-.084a.14.14 0 00.084-.032.14.14 0 01.084-.031h.042l18.267 5.29c.07 0 .133.029.189.085l2.1 2.624m-21.669 2.54c0-.083-.028-.125-.084-.125l-1.301-.084-.042.042c-.028.028-.042.056-.042.084V26c0 .097.028.146.084.146l1.26.294h.041l.042-.042c.028 0 .042-.028.042-.084v-2.33m3.045.126c0-.084-.028-.126-.084-.126l-1.932-.084-.042.042c-.028 0-.042.028-.042.084v2.54c0 .084.028.126.084.126l1.89.441h.042l.042-.042c.028 0 .042-.028.042-.084V24.11m6.635-.084c0-.056-.014-.084-.042-.084 0-.028-.035-.042-.105-.042l-3.465.084c-.07 0-.105.042-.105.126v2.981c0 .028.021.056.063.084 0 .028.014.042.042.042h.042l3.465-.483c.07 0 .105-.042.105-.126v-2.582m3.863-.084c0-.056-.014-.084-.042-.084 0-.028-.028-.042-.084-.042l-2.415.042c-.084 0-.126.042-.126.126v2.456c0 .028.014.056.042.084.028.028.056.042.084.042l2.457-.294c.056 0 .084-.042.084-.126v-2.204m7.055-2.709l-1.428-1.764-17.364-4.976 2.667 4.598 10.015 1.323 2.708.357 3.402.462m-1.47 3.401c0-.028-.007-.049-.021-.063-.014-.014-.021-.035-.021-.063-.028 0-.042-.007-.042-.02 0-.015-.014-.022-.042-.022l-.945.084c-.056 0-.084.042-.084.126v1.722c0 .028.014.056.042.084l.084.042.945-.168c.056 0 .084-.042.084-.126v-1.596m1.554-.126c0-.056-.014-.098-.042-.125h-.042l-.777.041c-.056 0-.084.042-.084.126v1.512c0 .056.014.098.042.126h.084l.735-.126c.056 0 .084-.049.084-.147v-1.407"
         fill-opacity=".949" fill="#fff" />
   </g>
</svg>