<svg xmlns="http://www.w3.org/2000/svg" version="1.2" viewBox="0 0 42.52 42.52" height="56.693" width="56.693">
   <g stroke-linejoin="bevel" stroke-linecap="square" fill-rule="evenodd" stroke="none" fill="none" font-weight="400"
      font-size="7.8" font-family="'MS Shell Dlg 2'">
      <path
         d="M42.52 21.26C42.52 33 33 42.52 21.26 42.52 9.518 42.52 0 33 0 21.26 0 9.518 9.518 0 21.26 0 33 0 42.52 9.518 42.52 21.26"
         vector-effect="non-scaling-stroke" fill="#a61215" />
      <path
         d="M27.718 10.84c.056-.406.227-.602.514-.588.287.014.588.2.903.557.315.357.581.875.798 1.554.217.678.297 1.473.241 2.383l-.44 8.167c-.057.784-.207 1.361-.452 1.732-.245.371-.507.627-.787.767-.322.168-.693.238-1.113.21l-.945 8.776c-.098.462-.297.777-.598.945-.301.168-.616.23-.945.189a1.174 1.174 0 01-.808-.473c-.21-.273-.273-.633-.19-1.081l3.822-23.138M20.243 33.79c.056.49-.045.878-.304 1.165-.26.287-.56.452-.903.494a1.55 1.55 0 01-.987-.21c-.315-.182-.5-.518-.556-1.008l-1.554-13.627c-.462.084-.973-.003-1.533-.262-.56-.259-.868-.647-.924-1.165l-1.112-7.517c-.028-.182 0-.315.084-.399a.511.511 0 01.315-.147.506.506 0 01.346.084c.105.07.172.21.2.42l.944 5.417 1.47-.189-.693-5.585a.4.4 0 01.084-.357.456.456 0 01.294-.168.543.543 0 01.347.084c.119.07.178.19.178.357l.945 5.501 1.554-.252-.777-5.5c-.028-.169 0-.305.084-.41a.546.546 0 01.315-.2.492.492 0 01.367.063c.119.07.207.196.263.378l1.112 7.559c.028.224-.014.444-.126.661a2.354 2.354 0 01-.43.588 2.963 2.963 0 01-.63.473c-.245.14-.48.224-.703.252l2.33 13.5"
         fill-opacity=".949" fill="#fff" />
   </g>
</svg>