<?xml version="1.0" encoding="UTF-8" standalone="no"?>
<svg width="11.25008mm" height="11.25008mm"
 viewBox="-5.3 -5.3 42.52000 42.52000"
 xmlns="http://www.w3.org/2000/svg" xmlns:xlink="http://www.w3.org/1999/xlink"  version="1.2" baseProfile="tiny">
<title>Qt SVG Document</title>
<desc>Generated with Qt</desc>
<defs>
</defs>
<g fill="none" stroke="black" stroke-width="1" fill-rule="evenodd" stroke-linecap="square" stroke-linejoin="bevel" >

<g fill="#a61215" fill-opacity="1" stroke="none" transform="matrix(1,0,0,1,0,0)"
font-family="MS Shell Dlg 2" font-size="7.8" font-weight="400" font-style="normal" 
>
<path vector-effect="non-scaling-stroke" fill-rule="evenodd" d="M37.2598,16 C37.2598,27.7415 27.7415,37.2598 16,37.2598 C4.25851,37.2598 -5.25984,27.7415 -5.25984,16 C-5.25984,4.25851 4.25851,-5.25984 16,-5.25984 C27.7415,-5.25984 37.2598,4.25851 37.2598,16 "/>
</g>

<g fill="#ffffff" fill-opacity="0.94902" stroke="none" transform="matrix(1,0,0,1,16,13.1654)"
font-family="MS Shell Dlg 2" font-size="7.8" font-weight="400" font-style="normal" 
>
<path vector-effect="none" fill-rule="evenodd" d="M6.45801,-7.58496 C6.514,-7.99089 6.68547,-8.18685 6.97241,-8.17285 C7.25936,-8.15885 7.5603,-7.97339 7.87524,-7.61646 C8.19019,-7.25952 8.45614,-6.74162 8.6731,-6.06274 C8.89006,-5.38387 8.97054,-4.58952 8.91455,-3.67969 L8.47363,4.48779 C8.41764,5.27165 8.26717,5.84904 8.02222,6.21997 C7.77726,6.5909 7.51481,6.84635 7.23486,6.98633 C6.91292,7.1543 6.54199,7.22428 6.12207,7.19629 L5.17725,15.9727 C5.07926,16.4346 4.8798,16.7495 4.57886,16.9175 C4.27791,17.0854 3.96297,17.1484 3.63403,17.1064 C3.30509,17.0645 3.03564,16.907 2.82568,16.634 C2.61572,16.3611 2.55273,16.0007 2.63672,15.5527 L6.45801,-7.58496 M-1.0166,15.3638 C-0.960612,15.8537 -1.06209,16.2421 -1.32104,16.5291 C-1.58,16.816 -1.88094,16.9805 -2.22388,17.0225 C-2.56681,17.0645 -2.89575,16.9945 -3.21069,16.8125 C-3.52563,16.6305 -3.7111,16.2946 -3.76709,15.8047 L-5.3208,2.17822 C-5.78271,2.26221 -6.29362,2.17472 -6.85352,1.91577 C-7.41341,1.65682 -7.72135,1.26839 -7.77734,0.750488 L-8.89014,-6.76611 C-8.91813,-6.94808 -8.89014,-7.08105 -8.80615,-7.16504 C-8.72217,-7.24902 -8.61719,-7.29801 -8.49121,-7.31201 C-8.36523,-7.32601 -8.24976,-7.29801 -8.14478,-7.22803 C-8.03979,-7.15804 -7.97331,-7.01807 -7.94531,-6.80811 L-7.00049,-1.39111 L-5.53076,-1.58008 L-6.22363,-7.16504 C-6.25163,-7.30501 -6.22363,-7.42399 -6.13965,-7.52197 C-6.05566,-7.61995 -5.95768,-7.67594 -5.8457,-7.68994 C-5.73372,-7.70394 -5.61825,-7.67594 -5.49927,-7.60596 C-5.38029,-7.53597 -5.3208,-7.41699 -5.3208,-7.24902 L-4.37598,-1.74805 L-2.82227,-2 L-3.59912,-7.50098 C-3.62712,-7.66895 -3.59912,-7.80542 -3.51514,-7.9104 C-3.43115,-8.01538 -3.32617,-8.08187 -3.2002,-8.10986 C-3.07422,-8.13786 -2.95174,-8.11686 -2.83276,-8.04688 C-2.71379,-7.97689 -2.6263,-7.85091 -2.57031,-7.66895 L-1.45752,-0.110352 C-1.42952,0.113607 -1.47152,0.334066 -1.5835,0.551025 C-1.69548,0.767985 -1.83895,0.963949 -2.01392,1.13892 C-2.18888,1.31388 -2.39884,1.47135 -2.6438,1.61133 C-2.88875,1.7513 -3.12321,1.83529 -3.34717,1.86328 L-1.0166,15.3638"/>
</g>

<g fill="#a61215" fill-opacity="1" stroke="none" transform="matrix(1,0,0,1,0,0)"
font-family="MS Shell Dlg 2" font-size="7.8" font-weight="400" font-style="normal" 
>
</g>
</g>
</svg>
