<svg xmlns="http://www.w3.org/2000/svg" version="1.2" viewBox="0 0 42.52 42.52" height="56.693" width="56.693">
   <g stroke-linejoin="bevel" stroke-linecap="square" fill-rule="evenodd" stroke="none" fill="none" font-weight="400"
      font-size="7.8" font-family="'MS Shell Dlg 2'">
      <path
         d="M42.52 21.26C42.52 33 33 42.52 21.26 42.52 9.518 42.52 0 33 0 21.26 0 9.518 9.518 0 21.26 0 33 0 42.52 9.518 42.52 21.26"
         vector-effect="non-scaling-stroke" fill="#a61215" />
      <path
         d="M33.66 23.123c0 .21.049.43.147.661a7.572 7.572 0 01.525 2.079c.056.469.042 1.067-.042 1.795-.056.56-.249.948-.578 1.165-.329.217-.72.448-1.176.693a9.941 9.941 0 00-1.438.966c-.504.399-.959 1.046-1.365 1.942-.251.574-.685 1.033-1.301 1.376-.616.342-1.197.514-1.743.514-.406 0-.78-.063-1.123-.19a42.384 42.384 0 01-.966-.366 2.653 2.653 0 00-.798-.2c-.23-.014-.43.091-.598.315-.224.322-.532.57-.924.745-.392.175-.836.245-1.333.21s-1.047-.178-1.649-.43c-.601-.252-1.203-.665-1.805-1.239-.042.224-.19.399-.441.525-.252.126-.581.2-.987.22-.406.021-.875-.027-1.407-.146a6.45 6.45 0 01-1.595-.599 1.932 1.932 0 01-.63-.546 7.8 7.8 0 01-.494-.724 135.24 135.24 0 01-.388-.651c-.112-.189-.21-.297-.294-.325a6.77 6.77 0 01-.808-.41 5.042 5.042 0 01-.966-.735c-.315-.3-.588-.65-.82-1.05-.23-.398-.346-.857-.346-1.375 0-.854.095-1.519.284-1.994.189-.476.392-.886.609-1.229.217-.343.402-.665.556-.966.154-.3.19-.696.105-1.186a3.905 3.905 0 01-.168-1.155c0-.35.07-.752.21-1.207.14-.455.413-.941.819-1.46.434-.713.966-1.22 1.596-1.521.63-.301 1.273-.54 1.931-.714l1.848-.494c.574-.154 1-.433 1.28-.84.21.197.431.417.662.662.231.245.417.49.557.735.14.245.216.497.23.756a.865.865 0 01-.272.682c-.112.112-.063.168.147.168s.37-.056.482-.168c.294-.252.448-.521.462-.808a1.772 1.772 0 00-.168-.84 3.254 3.254 0 00-.535-.798c-.231-.259-.437-.5-.62-.724a4.446 4.446 0 01-.587-.914c-.168-.343-.14-.703.084-1.081a1.83 1.83 0 01.85-.808 4 4 0 011.123-.347 19.31 19.31 0 011.47-.126c.546-.028.973.112 1.28.42.169.182.368.322.6.42.23.098.447.21.65.336.203.126.375.276.514.451.14.175.224.403.252.683.098.378.046.76-.157 1.144a3.111 3.111 0 01-.777.966c-.315.259-.658.44-1.029.546-.37.105-.703.066-.997-.116a5.435 5.435 0 01-.892-.829 8.495 8.495 0 01-.788-1.06 2.756 2.756 0 01-.21-1.071c.028-.14.214-.147.557-.021.343.126.693.241 1.05.346.356.105.65.133.881.084.231-.049.249-.311.053-.787-.084-.182-.277-.301-.578-.357a4.313 4.313 0 00-.965-.063 2.904 2.904 0 00-.998.22c-.322.133-.539.298-.65.494a1.164 1.164 0 00-.106.724c.042.26.13.511.263.756s.283.47.451.672c.168.203.33.36.483.472.77 1.008 1.687 1.365 2.75 1.071.253-.112.55-.276.893-.493.343-.217.598-.438.766-.662.266-.056.4.014.4.21 0 .196-.06.43-.18.704a3.918 3.918 0 01-.472.798c-.195.259-.35.43-.461.514-.322.084-.697.014-1.124-.21-.427-.224-.801-.364-1.123-.42a1.297 1.297 0 00-.85.074 1.155 1.155 0 00-.567.525c-.12.23-.147.503-.084.818.063.315.248.64.556.977-.056.378-.227.938-.514 1.68-.287.741-.858 1.658-1.711 2.75a7.856 7.856 0 00-.725 1.04c-.217.37-.437.773-.661 1.206-.14.28-.284.606-.43.977-.148.37-.242.773-.284 1.207a5.73 5.73 0 00.042 1.375c.07.483.238.984.504 1.502l.084.084H17.178l.084-.21c0-.056.007-.098.02-.126a3.65 3.65 0 00.106-.378c0-.406.08-1.068.241-1.984.161-.917.613-2.125 1.354-3.622.63-1.176 1.068-2.222 1.313-3.14.245-.916.367-1.661.367-2.235.322.266.798.42 1.428.462a5.575 5.575 0 001.764-.147v.892c0 .343.028.647.084.913.084.28.168.55.251.809.084.259.161.546.231.86.07.315.13.672.179 1.071.049.4.073.886.073 1.46.056.923.091 1.721.105 2.393.014.672.021 1.253.021 1.743v1.155c0 .126.014.28.042.461.028.182.154.273.378.273.084 0 .158-.056.22-.168a1.18 1.18 0 01.18-.252c.475-.951.745-2.138.808-3.558.063-1.421-.312-2.943-1.124-4.567a11.629 11.629 0 00-.472-1.081 7.137 7.137 0 01-.368-.84 9.15 9.15 0 01-.252-.819 5.664 5.664 0 01-.146-.976c.167-.084.335-.182.503-.294l.168-.273a5.8 5.8 0 01.147-.231c.49.742.99 1.386 1.502 1.931.51.546.969 1.092 1.375 1.638.322.42.633.84.934 1.26.301.42.578 1.057.83 1.91.167.49.31.987.43 1.491.119.504.227.92.325 1.25.098.328.19.535.273.619.084.084.203-.05.357-.399.14-.252.26-.609.357-1.07.098-.463.091-.977-.02-1.544-.113-.567-.372-1.19-.778-1.869s-1.035-1.375-1.89-2.089a11.365 11.365 0 01-1.018-.808 76.78 76.78 0 01-1.028-.924c-.33-.3-.63-.588-.903-.86-.273-.274-.48-.501-.62-.683.252-.574.41-1.288.473-2.142a4.553 4.553 0 00-.473-2.414c.882-.084 1.631.038 2.247.367.616.33 1.274.71 1.974 1.144.825.518 1.375.956 1.648 1.313.273.357.465.724.577 1.102-.546-.378-1.277-.703-2.194-.976s-2.061-.438-3.433-.494l-.21.294c.686 0 1.351.095 1.995.284.644.189 1.239.42 1.785.692.545.273 1.039.553 1.48.84.44.287.808.529 1.102.725.686.546 1.137 1.092 1.354 1.637.217.546.326 1.274.326 2.184m-22.634-2.646l.126.126.105.084h.126l.042-.042.063-.063.105-.105a12.98 12.98 0 011.05-.955c.476-.399 1.245-.717 2.31-.955.993-.14 1.777-.417 2.35-.83.575-.412.995-.836 1.26-1.27a2.19 2.19 0 01-.734.567c-.266.14-.62.252-1.06.336-.442.084-.977.098-1.607.042-.252 0-.532.007-.84.021a4.911 4.911 0 00-.84.105c-.223.056-.45.13-.682.22-.23.091-.462.235-.693.43-.23.197-.437.477-.62.84a6.244 6.244 0 00-.461 1.345v.104m-.378 2.016a.201.201 0 01-.063.147.201.201 0 00-.063.147c.056.112.14.14.252.084a.978.978 0 00.252-.168c.056-.056.136-.112.241-.168.105-.056.214-.14.326-.252.224-.238.507-.486.85-.745.343-.26.76-.57 1.25-.935.573-.49 1.025-.808 1.354-.955.329-.147.654-.29.976-.43.168-.14.353-.284.556-.43.203-.148.389-.291.557-.431.196-.14.385-.308.567-.504-.35.224-.634.406-.85.546a5.16 5.16 0 01-.62.346 15.436 15.436 0 01-1.365.557c-1.008.378-1.861.86-2.561 1.448s-1.253 1.17-1.659 1.743m1.029 6.656c.168-.49.626-1.305 1.375-2.446.749-1.141 1.81-2.3 3.181-3.475.49-.434.948-.78 1.375-1.04a8.15 8.15 0 001.134-.818c.329-.287.602-.616.819-.987.217-.37.367-.871.451-1.501 0-.154-.007-.287-.02-.4a.591.591 0 00-.19-.335L19.655 18a.201.201 0 00-.147-.063c-.056 0-.16.07-.315.21-.084.084-.126.3-.126.65 0 .057.007.214.021.473.014.26-.09.515-.314.767-.434.853-.973 1.483-1.617 1.89-.644.405-1.309.762-1.995 1.07-.798.378-1.592.84-2.383 1.386-.79.546-1.473 1.434-2.047 2.666-.252.63-.35 1.166-.294 1.606.056.441.154.78.294 1.019.056.056.112.105.168.147.056.042.14.063.252.063.154 0 .252-.063.294-.19.042-.125.119-.307.23-.545"
         fill-opacity=".949" fill="#fff" />
   </g>
</svg>