<?xml version="1.0" encoding="UTF-8" standalone="no"?>
<svg
   xmlns:dc="http://purl.org/dc/elements/1.1/"
   xmlns:cc="http://creativecommons.org/ns#"
   xmlns:rdf="http://www.w3.org/1999/02/22-rdf-syntax-ns#"
   xmlns:svg="http://www.w3.org/2000/svg"
   xmlns="http://www.w3.org/2000/svg"
   xmlns:sodipodi="http://sodipodi.sourceforge.net/DTD/sodipodi-0.dtd"
   xmlns:inkscape="http://www.inkscape.org/namespaces/inkscape"
   inkscape:version="1.0 (4035a4fb49, 2020-05-01)"
   sodipodi:docname="2002.svg"
   id="svg20"
   version="1.2"
   viewBox="0 0 42.519639 42.519639"
   height="14.999999mm"
   width="14.999999mm">
  <metadata
     id="metadata24">
    <rdf:RDF>
      <cc:Work
         rdf:about="">
        <dc:format>image/svg+xml</dc:format>
        <dc:type
           rdf:resource="http://purl.org/dc/dcmitype/StillImage" />
        <dc:title>Qt SVG Document</dc:title>
      </cc:Work>
    </rdf:RDF>
  </metadata>
  <sodipodi:namedview
     inkscape:current-layer="svg20"
     inkscape:window-maximized="0"
     inkscape:window-y="0"
     inkscape:window-x="0"
     inkscape:cy="28.346482"
     inkscape:cx="28.346482"
     inkscape:zoom="5.8410537"
     showgrid="false"
     id="namedview22"
     inkscape:window-height="480"
     inkscape:window-width="1034"
     inkscape:pageshadow="2"
     inkscape:pageopacity="0"
     guidetolerance="10"
     gridtolerance="10"
     objecttolerance="10"
     borderopacity="1"
     bordercolor="#666666"
     pagecolor="#ffffff" />
  <title
     id="title2">Qt SVG Document</title>
  <desc
     id="desc4">Generated with Qt</desc>
  <defs
     id="defs6" />
  <g
     transform="translate(5.25984,5.25984)"
     id="g18"
     stroke-linejoin="bevel"
     stroke-linecap="square"
     fill-rule="evenodd"
     stroke-width="1"
     stroke="#000000"
     fill="none">
    <g
       id="g10"
       font-style="normal"
       font-weight="400"
       font-size="7.8px"
       font-family="'MS Shell Dlg 2'"
       stroke="none"
       fill-opacity="1"
       fill="#a61215">
      <path
         id="path8"
         d="M 37.2598,16 C 37.2598,27.7415 27.7415,37.2598 16,37.2598 4.25851,37.2598 -5.25984,27.7415 -5.25984,16 -5.25984,4.25851 4.25851,-5.25984 16,-5.25984 27.7415,-5.25984 37.2598,4.25851 37.2598,16"
         fill-rule="evenodd"
         vector-effect="non-scaling-stroke" />
    </g>
    <g
       id="g14"
       font-style="normal"
       font-weight="400"
       font-size="7.8px"
       font-family="'MS Shell Dlg 2'"
       transform="translate(16,13.1654)"
       stroke="none"
       fill-opacity="0.94902"
       fill="#ffffff">
      <path
         id="path12"
         d="m 12.3999,4.69775 c 0,0.20996 0.049,0.43042 0.147,0.66138 0.098,0.23096 0.1959,0.5179 0.2939,0.86084 0.098,0.34294 0.175,0.74886 0.231,1.21777 0.056,0.46892 0.042,1.06731 -0.042,1.79517 -0.056,0.5599 -0.2485,0.94829 -0.5774,1.16529 -0.3289,0.217 -0.7209,0.4479 -1.1758,0.6929 -0.4549,0.2449 -0.9343,0.5669 -1.43822,0.9658 -0.50391,0.3989 -0.95882,1.0463 -1.36475,1.9421 -0.25195,0.5739 -0.68587,1.0323 -1.30175,1.3753 -0.61589,0.3429 -1.19678,0.5144 -1.74268,0.5144 -0.40593,0 -0.78036,-0.063 -1.12329,-0.189 -0.34294,-0.126 -0.66488,-0.2484 -0.96582,-0.3674 -0.30095,-0.119 -0.5669,-0.1855 -0.79785,-0.1995 -0.23096,-0.014 -0.43042,0.091 -0.59839,0.315 -0.22396,0.3219 -0.5319,0.5703 -0.92383,0.7453 -0.391928,0.175 -0.836345,0.245 -1.333252,0.21 -0.496908,-0.035 -1.046308,-0.1785 -1.648198,-0.4304 -0.60188,-0.252 -1.20377,-0.6649 -1.80566,-1.2388 -0.04199,0.2239 -0.18896,0.3989 -0.44092,0.5249 -0.25195,0.126 -0.58089,0.1995 -0.98681,0.2204 -0.40593,0.021 -0.87484,-0.0279 -1.40674,-0.1469 -0.5319,-0.119 -1.0638,-0.3185 -1.59571,-0.5984 -0.23795,-0.126 -0.44791,-0.308 -0.62988,-0.5459 -0.18196,-0.238 -0.34643,-0.4794 -0.49341,-0.7244 -0.14697,-0.2449 -0.27645,-0.4619 -0.38842,-0.6509 -0.11198,-0.1889 -0.20997,-0.2974 -0.29392,-0.3254 -0.21,-0.084 -0.4794,-0.2205 -0.8084,-0.4094 -0.3289,-0.189 -0.6509,-0.4339 -0.9658,-0.7349 -0.3149,-0.3009 -0.5879,-0.6509 -0.8188,-1.0498 -0.231,-0.39891 -0.3465,-0.85733 -0.3465,-1.37523 0,-0.85384 0.0945,-1.51872 0.2835,-1.99463 0.1889,-0.47591 0.3919,-0.88534 0.6089,-1.22827 0.2169,-0.34294 0.4024,-0.66488 0.5563,-0.96582 0.154,-0.30095 0.189,-0.69637 0.105,-1.18628 -0.112,-0.36393 -0.1679,-0.74886 -0.1679,-1.15479 0,-0.34993 0.0699,-0.75236 0.2099,-1.20727 0.14,-0.454917 0.4129,-0.941327 0.8189,-1.45923 0.4339,-0.713868 0.96579,-1.22127 1.59567,-1.52222 0.62988,-0.30094 1.27376,-0.5389 1.93164,-0.71386 0.65788,-0.17497 1.27376,-0.33944 1.84766,-0.49341 0.57389,-0.15397 1.00081,-0.43392 1.28076,-0.83985 0.20996,0.19597 0.43042,0.41643 0.66138,0.66138 0.23095,0.24496 0.41642,0.48991 0.55639,0.73486 0.13998,0.24496 0.21696,0.49691 0.23096,0.75586 0.014,0.25896 -0.07699,0.48641 -0.27295,0.68238 -0.11198,0.111976 -0.06299,0.167965 0.14697,0.167965 0.20996,0 0.37093,-0.055989 0.48291,-0.167965 0.29395,-0.25196 0.44792,-0.52141 0.46192,-0.80835 0.014,-0.28695 -0.04199,-0.5669 -0.16797,-0.83985 -0.12598,-0.27295 -0.30444,-0.5389 -0.5354,-0.79785 -0.23096,-0.25895 -0.43742,-0.50041 -0.61939,-0.72436 -0.22395,-0.26595 -0.41992,-0.5704 -0.58789,-0.91333 -0.16797,-0.34294 -0.13997,-0.70337 0.08399,-1.0813 0.19596,-0.36393 0.47941,-0.63338 0.85034,-0.80835 0.37093,-0.17497 0.74536,-0.29045 1.12329,-0.34644 0.43392,-0.05599 0.923829,-0.09798 1.469727,-0.12597 0.545898,-0.028 0.972819,0.11197 1.280763,0.41992 0.16797,0.18196 0.36743,0.32194 0.59839,0.41992 0.23095,0.09798 0.44791,0.20996 0.65088,0.33594 0.20296,0.12597 0.37443,0.27645 0.5144,0.45141 0.13997,0.17497 0.22396,0.40243 0.25195,0.68238 0.09799,0.37793 0.0455,0.75935 -0.15747,1.14428 -0.20296,0.38493 -0.46191,0.70687 -0.77685,0.96582 -0.31494,0.25896 -0.65788,0.44092 -1.02881,0.5459 -0.370932,0.10498 -0.70337,0.06649 -0.997315,-0.11548 -0.3079432,-0.22396 -0.605388,-0.5004 -0.892334,-0.82934 -0.286947,-0.32894 -0.549401,-0.68238 -0.787351,-1.06031 -0.13998,-0.33593 -0.20996,-0.69287 -0.20996,-1.0708 0.02799,-0.13997 0.21346,-0.14697 0.556393,-0.02099 0.342936,0.12597 0.692871,0.24145 1.0498043,0.34643 C 0.421631,-5.13892 0.715576,-5.11092 0.946533,-5.15991 1.17749,-5.2089 1.19499,-5.47135 0.999023,-5.94727 0.915039,-6.12923 0.722575,-6.24821 0.421631,-6.3042 c -0.300944,-0.05599 -0.622884,-0.07698 -0.96582,-0.06299 -0.342937,0.014 -0.675371,0.08749 -0.997311,0.22046 -0.32194,0.13298 -0.5389,0.29745 -0.65088,0.49341 -0.11198,0.22396 -0.14698,0.46541 -0.10498,0.72436 0.04199,0.25896 0.12947,0.51091 0.26245,0.75586 0.13297,0.24496 0.28345,0.46892 0.45141,0.67188 0.16797,0.20296 0.32894,0.36043 0.48291,0.47241 0.769861,1.00781 1.68669,1.36475 2.75049,1.0708 0.25196,-0.11198 0.5494,-0.27645 0.89234,-0.49341 0.34293,-0.21696 0.59839,-0.43741 0.76635,-0.66137 0.26595,-0.05599 0.39893,0.01399 0.39893,0.20996 0,0.19596 -0.05949,0.43042 -0.17847,0.70337 C 3.41007,-1.92651 3.2526,-1.66056 3.05664,-1.40161 2.86068,-1.14266 2.70671,-0.971191 2.59473,-0.887207 2.27279,-0.803223 1.89836,-0.87321 1.47144,-1.09717 1.04451,-1.32113 0.670085,-1.4611 0.348145,-1.51709 c -0.3079432,-0.06999 -0.59139,-0.04549 -0.850342,0.07349 -0.258952,0.11897 -0.447917,0.29394 -0.566893,0.524899 -0.11898,0.230957 -0.14697,0.503906 -0.08399,0.8188475 0.06299,0.3149415 0.248458,0.6403805 0.5564,0.9763185 -0.055989,0.377925 -0.227457,0.937825 -0.5144,1.679685 -0.28695,0.74186 -0.85734,1.65869 -1.71119,2.75049 -0.26595,0.32194 -0.5074,0.66838 -0.72436,1.03931 -0.21696,0.37093 -0.43742,0.77335 -0.66138,1.20727 -0.13997,0.27995 -0.28345,0.60539 -0.43042,0.97632 -0.14697,0.37093 -0.24145,0.77336 -0.28345,1.20728 -0.04199,0.43388 -0.02799,0.89238 0.042,1.37528 0.06998,0.4829 0.23795,0.9833 0.5039,1.5012 l 0.08399,0.084 h 0.08398 0.12598 l 0.08398,-0.21 c 0,-0.056 0.007,-0.098 0.021,-0.126 0.014,-0.028 0.04899,-0.1539 0.10498,-0.3779 0,-0.4059 0.08048,-1.0673 0.24145,-1.98413 0.16097,-0.91683 0.61239,-2.12411 1.35425,-3.62183 0.62989,-1.17578 1.0673,-2.22209 1.312259,-3.13891 0.244954,-0.91683 0.367431,-1.6622 0.367431,-2.23609 0.32194,0.26595 0.797852,0.41992 1.427735,0.46192 0.629885,0.04199 1.217775,-0.007 1.763675,-0.14698 0,0.25196 0,0.5494 0,0.89234 0,0.34293 0.02799,0.64738 0.08398,0.91333 0.08399,0.27994 0.16797,0.54939 0.25195,0.80835 0.08399,0.25895 0.16097,0.54589 0.23096,0.86084 0.06999,0.31494 0.12948,0.67187 0.17847,1.0708 0.04899,0.39892 0.07348,0.88533 0.07348,1.45923 0.05599,0.92382 0.09099,1.72168 0.10498,2.39355 0.014,0.67188 0.021,1.25278 0.021,1.74268 v 1.1548 c 0,0.126 0.014,0.2799 0.04199,0.4619 0.028,0.182 0.15397,0.2729 0.37793,0.2729 0.08399,0 0.15747,-0.0559 0.22046,-0.1679 0.06299,-0.112 0.12248,-0.196 0.17847,-0.252 C 4.83431,11.9764 5.10376,10.7901 5.16675,9.36938 5.22974,7.94865 4.85531,6.42643 4.04346,4.80273 3.87549,4.36882 3.71802,4.00838 3.57104,3.72144 3.42407,3.43449 3.3016,3.15454 3.20361,2.88159 3.10563,2.60864 3.02165,2.33569 2.95166,2.06274 2.88167,1.78979 2.83268,1.46436 2.80469,1.08643 2.97266,1.00244 3.14063,0.90446 3.30859,0.79248 3.37858,0.680501 3.43457,0.589518 3.47656,0.519531 3.51855,0.449544 3.56755,0.372559 3.62354,0.288574 4.11344,1.03044 4.61385,1.67432 5.12476,2.22021 5.63566,2.76611 6.09408,3.31201 6.5,3.85791 6.82194,4.27783 7.13338,4.69775 7.43433,5.11768 7.73527,5.5376 8.01172,6.17448 8.26367,7.02832 8.43164,7.51823 8.57511,8.01514 8.69409,8.51904 8.81307,9.02295 8.92155,9.43937 9.01953,9.76831 9.11751,10.0972 9.2085,10.3037 9.29248,10.3877 9.37646,10.4717 9.49544,10.3387 9.64941,9.98877 9.78939,9.73682 9.90837,9.37988 10.0063,8.91797 10.1043,8.45605 10.0973,7.94165 9.98535,7.37476 9.87337,6.80786 9.61442,6.18498 9.2085,5.5061 8.80257,4.82723 8.17269,4.13086 7.31885,3.41699 6.99691,3.19303 6.65747,2.92358 6.30054,2.60864 5.9436,2.2937 5.60067,1.98576 5.27173,1.68481 4.94279,1.38387 4.64185,1.09692 4.3689,0.823975 4.09595,0.551025 3.88949,0.323568 3.74951,0.141602 4.00146,-0.432292 4.15894,-1.14616 4.22192,-2 4.28491,-2.85384 4.12744,-3.65869 3.74951,-4.41455 c 0.88184,-0.08399 1.6307,0.03849 2.24658,0.36743 0.61589,0.32894 1.27377,0.71037 1.97364,1.14429 0.82584,0.5179 1.37524,0.95532 1.64819,1.31225 0.27295,0.35694 0.46538,0.724369 0.57738,1.102299 C 9.64941,-0.866211 8.91805,-1.19165 8.00122,-1.4646 7.08439,-1.73755 5.9401,-1.90202 4.56836,-1.95801 L 4.3584,-1.66406 c 0.68587,0 1.35075,0.09448 1.99463,0.28344 0.64388,0.18897 1.23877,0.419927 1.78467,0.692876 0.54589,0.272949 1.0393,0.552897 1.48022,0.839844 0.44088,0.286946 0.80838,0.528401 1.10228,0.724365 0.6859,0.545895 1.1373,1.091795 1.3543,1.637695 0.2169,0.5459 0.3254,1.27376 0.3254,2.18359 m -22.6338,-2.6455 0.126,0.12597 0.105,0.08399 h 0.12595 l 0.04199,-0.042 c 0.02799,-0.02799 0.04899,-0.04899 0.06299,-0.06298 0.01399,-0.014 0.04899,-0.04899 0.10498,-0.10498 0.22396,-0.23796 0.57389,-0.5564 1.0498,-0.95533 0.47591,-0.398922 1.24577,-0.717363 2.30957,-0.955318 0.99382,-0.1399744 1.77767,-0.416423 2.35157,-0.829346 0.57389,-0.412926 0.99381,-0.836346 1.25976,-1.270266 -0.18197,0.22396 -0.42692,0.41293 -0.73486,0.5669 -0.26595,0.13997 -0.61939,0.25195 -1.06031,0.33593 -0.44091,0.083989 -0.97631,0.097986 -1.6062,0.042 -0.25195,0 -0.5319,0.007 -0.83984,0.020992 -0.30794,0.013998 -0.58789,0.048991 -0.83984,0.104981 -0.22396,0.05599 -0.45142,0.129476 -0.68238,0.220459 -0.23095,0.090983 -0.46191,0.234456 -0.69287,0.43042 -0.23095,0.1959634 -0.43742,0.475911 -0.61938,0.839844 -0.18197,0.363932 -0.33593,0.811844 -0.46193,1.343754 v 0.10498 m -0.3779,2.01562 c 0,0.05599 -0.021,0.10498 -0.063,0.14697 -0.042,0.042 -0.063,0.09099 -0.063,0.14698 0.056,0.11198 0.14,0.13997 0.252,0.08398 0.1119,-0.05599 0.1959,-0.11198 0.2519,-0.16797 0.056,-0.05599 0.1365,-0.11198 0.24147,-0.16797 0.10498,-0.05599 0.21346,-0.13997 0.32544,-0.25195 0.22396,-0.23796 0.5074,-0.48641 0.85034,-0.74536 0.34294,-0.25895 0.75936,-0.5704 1.24927,-0.93433 0.57389,-0.48991 1.02531,-0.80835 1.35425,-0.95532 0.32893,-0.14697 0.65437,-0.290446 0.97631,-0.43042 0.16797,-0.139973 0.35344,-0.283447 0.5564,-0.430419 0.20296,-0.146973 0.38843,-0.2904464 0.5564,-0.4304204 0.19596,-0.1399736 0.38492,-0.3079426 0.56689,-0.5039066 -0.34993,0.223959 -0.63338,0.405925 -0.85034,0.5458988 C -4.62443,0.113607 -4.83089,0.229085 -5.02686,0.320068 -5.22282,0.411051 -5.42228,0.498535 -5.62524,0.58252 -5.82821,0.666504 -6.08366,0.764486 -6.3916,0.876465 -7.39941,1.25439 -8.25326,1.7373 -8.95313,2.3252 -9.65299,2.91309 -10.2059,3.49398 -10.6118,4.06787 m 1.02879,6.65573 c 0.16797,-0.4899 0.62639,-1.30522 1.37525,-2.44601 0.74886,-1.14079 1.80916,-2.29907 3.1809,-3.47486 0.48991,-0.43391 0.94833,-0.78035 1.37525,-1.0393 0.42692,-0.25895 0.80485,-0.5319 1.13379,-0.81885 0.32894,-0.28695 0.60189,-0.61589 0.81885,-0.98682 0.21696,-0.37093 0.36743,-0.87133 0.45141,-1.501217 0,-0.153971 -0.007,-0.286947 -0.02099,-0.3989258 -0.014,-0.1119792 -0.07699,-0.2239582 -0.18897,-0.3359372 -0.05599,-0.05599 -0.10498,-0.104981 -0.14697,-0.146973 -0.04199,-0.041992 -0.09099,-0.062988 -0.14697,-0.062988 -0.05599,0 -0.16097,0.069987 -0.31495,0.209961 -0.08398,0.083984 -0.12597,0.3009437 -0.12597,0.650879 0,0.055989 0.007,0.21346 0.02099,0.472412 0.014,0.258949 -0.09098,0.514409 -0.31494,0.766359 -0.43392,0.85384 -0.97282,1.48372 -1.6167,1.88965 -0.64388,0.40592 -1.30875,0.76285 -1.99463,1.0708 -0.79785,0.37793 -1.5922,0.83984 -2.38305,1.38574 -0.79086,0.5459 -1.47323,1.43473 -2.04709,2.6665 -0.252,0.62989 -0.35,1.16529 -0.294,1.60618 0.056,0.4409 0.154,0.7804 0.294,1.0183 0.056,0.056 0.1119,0.105 0.1679,0.147 0.056,0.042 0.14,0.063 0.252,0.063 0.15396,0 0.25194,-0.063 0.29394,-0.189 0.04199,-0.1259 0.11897,-0.3079 0.23095,-0.5459"
         fill-rule="evenodd"
         vector-effect="none" />
    </g>
    <g
       id="g16"
       font-style="normal"
       font-weight="400"
       font-size="7.8px"
       font-family="'MS Shell Dlg 2'"
       stroke="none"
       fill-opacity="1"
       fill="#a61215" />
  </g>
</svg>
