<svg xmlns="http://www.w3.org/2000/svg" version="1.2" viewBox="0 0 42.52 42.52" height="56.693" width="56.693">
   <g stroke-linejoin="bevel" stroke-linecap="square" fill-rule="evenodd" stroke="none" fill="none" font-weight="400"
      font-size="7.8" font-family="'MS Shell Dlg 2'">
      <path
         d="M42.52 21.26C42.52 33 33 42.52 21.26 42.52 9.518 42.52 0 33 0 21.26 0 9.518 9.518 0 21.26 0 33 0 42.52 9.518 42.52 21.26"
         vector-effect="non-scaling-stroke" fill="#a61215" />
      <path
         d="M29.482 16.026c.335.056.619.105.85.147.23.042.416.098.556.168.14.056.26.112.357.168l-2.372 17.154h-4.871c.35-.49.538-.948.566-1.375.028-.427.042-.669.042-.725a.783.783 0 00-.252-.567c.224-.168.41-.381.557-.64.147-.259.22-.577.22-.955 0-.336-.073-.64-.22-.914a2.226 2.226 0 00-.557-.682c.168-.168.252-.336.252-.504 0-.056-.014-.322-.042-.798-.028-.476-.245-.987-.65-1.532-.826-.882-2.016-1.323-3.57-1.323h-.86l-.987-7.139c.377-.084.867-.189 1.47-.315a27.367 27.367 0 012.067-.23c.861-.07 1.95-.106 3.265-.106h1.68c.49 0 .93.028 1.323.084l1.805-5.627 1.134.252-1.763 5.46m-18.75 11.358c-.028-.518.084-.98.336-1.386.196-.336.539-.647 1.029-.934.49-.287 1.21-.43 2.162-.43h5.921c.924 0 1.627.143 2.11.43.483.287.83.598 1.04.934.224.406.322.868.294 1.386H10.732m12.892 4.262c.028.504-.07.96-.294 1.365-.21.35-.557.668-1.04.955-.483.287-1.186.43-2.11.43h-5.92c-.952 0-1.673-.143-2.163-.43-.49-.287-.833-.605-1.03-.955a2.285 2.285 0 01-.335-1.365h12.892m-.525-3.401c.322 0 .584.122.787.367.203.245.305.536.305.872 0 .378-.102.682-.305.913a1 1 0 01-.787.346H11.236a.977.977 0 01-.766-.346c-.203-.231-.305-.535-.305-.913 0-.336.102-.627.305-.872a.954.954 0 01.766-.367h11.863"
         fill-opacity=".949" fill="#fff" />
   </g>
</svg>