<svg xmlns="http://www.w3.org/2000/svg" version="1.2" viewBox="0 0 42.52 42.52" height="56.693" width="56.693">
   <g stroke-linejoin="bevel" stroke-linecap="square" fill-rule="evenodd" stroke="none" fill="none" font-weight="400"
      font-size="7.8" font-family="'MS Shell Dlg 2'">
      <path
         d="M42.52 21.26C42.52 33 33 42.52 21.26 42.52 9.518 42.52 0 33 0 21.26 0 9.518 9.518 0 21.26 0 33 0 42.52 9.518 42.52 21.26"
         vector-effect="non-scaling-stroke" fill="#a61215" />
      <path
         d="M27.676 13.727c.196-.252.402-.315.62-.189.216.126.353.382.409.767.056.384.028.87-.084 1.459-.112.588-.385 1.197-.82 1.826l-3.82 5.816v.042l-2.121-2.75 5.816-6.97m-7.706 9.28L21 24.56l-4.41 5.984c-.238.28-.507.42-.808.42-.301 0-.56-.084-.777-.252a1.096 1.096 0 01-.41-.682c-.056-.287.05-.578.315-.872l5.06-6.152m7.454 6.068c.224.322.3.634.23.935-.07.3-.227.535-.472.703a1.207 1.207 0 01-.818.21c-.301-.028-.564-.196-.788-.504l-6.278-9.511c-.35.224-.783.343-1.301.357-.518.014-.903-.161-1.155-.525l-3.653-5.123c-.154-.224-.123-.417.094-.578.217-.16.41-.122.577.116l2.814 3.737.987-.693-2.625-3.863c-.14-.238-.112-.427.084-.567.196-.14.385-.098.567.126l2.793 3.695.986-.692-2.624-3.906c-.14-.196-.105-.374.105-.535.21-.161.406-.123.588.115l3.695 5.186c.196.294.217.662.063 1.103-.154.44-.406.794-.756 1.06l6.887 9.154M21.314 8.31c1.89 0 3.667.357 5.333 1.071a13.796 13.796 0 014.367 2.94 13.794 13.794 0 012.94 4.367c.714 1.665 1.07 3.443 1.07 5.333 0 1.89-.356 3.667-1.07 5.333a13.548 13.548 0 01-2.94 4.346 13.975 13.975 0 01-4.367 2.918c-1.666.714-3.443 1.071-5.333 1.071-1.89 0-3.667-.357-5.333-1.07a13.722 13.722 0 01-4.346-2.92 13.723 13.723 0 01-2.919-4.345c-.713-1.666-1.07-3.444-1.07-5.333 0-1.89.357-3.668 1.07-5.333a13.975 13.975 0 012.919-4.368 13.55 13.55 0 014.346-2.939c1.666-.714 3.443-1.07 5.333-1.07m.21 26.706c1.75 0 3.39-.332 4.924-.997a12.961 12.961 0 004.02-2.709 12.6 12.6 0 002.709-4.01c.658-1.533.987-3.174.987-4.923 0-1.75-.33-3.391-.987-4.924a12.724 12.724 0 00-2.709-4.02 12.87 12.87 0 00-4.02-2.72c-1.533-.665-3.174-.997-4.924-.997-1.75 0-3.39.332-4.924.997a12.87 12.87 0 00-4.02 2.72 12.724 12.724 0 00-2.709 4.02c-.658 1.533-.987 3.174-.987 4.924 0 1.75.33 3.39.987 4.923a12.6 12.6 0 002.709 4.01 12.961 12.961 0 004.02 2.709c1.533.665 3.174.997 4.924.997"
         fill-opacity=".949" fill="#fff" />
   </g>
</svg>