<?xml version="1.0" encoding="UTF-8" standalone="no"?>
<svg width="11.25008mm" height="11.25008mm"
 viewBox="-5.3 -5.3 42.52000 42.52000"
 xmlns="http://www.w3.org/2000/svg" xmlns:xlink="http://www.w3.org/1999/xlink"  version="1.2" baseProfile="tiny">
<title>Qt SVG Document</title>
<desc>Generated with Qt</desc>
<defs>
</defs>
<g fill="none" stroke="black" stroke-width="1" fill-rule="evenodd" stroke-linecap="square" stroke-linejoin="bevel" >

<g fill="#a61215" fill-opacity="1" stroke="none" transform="matrix(1,0,0,1,0,0)"
font-family="MS Shell Dlg 2" font-size="7.8" font-weight="400" font-style="normal" 
>
<path vector-effect="non-scaling-stroke" fill-rule="evenodd" d="M37.2598,16 C37.2598,27.7415 27.7415,37.2598 16,37.2598 C4.25851,37.2598 -5.25984,27.7415 -5.25984,16 C-5.25984,4.25851 4.25851,-5.25984 16,-5.25984 C27.7415,-5.25984 37.2598,4.25851 37.2598,16 "/>
</g>

<g fill="#ffffff" fill-opacity="0.94902" stroke="none" transform="matrix(1,0,0,1,16,12.315)"
font-family="MS Shell Dlg 2" font-size="7.8" font-weight="400" font-style="normal" 
>
<path vector-effect="none" fill-rule="evenodd" d="M6.41602,-3.84766 C6.61198,-4.09961 6.81844,-4.1626 7.0354,-4.03662 C7.25236,-3.91064 7.38883,-3.65519 7.44482,-3.27026 C7.50081,-2.88534 7.47282,-2.39893 7.36084,-1.81104 C7.24886,-1.22314 6.97591,-0.614258 6.54199,0.015625 L2.7207,5.83154 L2.7207,5.87354 L0.600098,3.12305 L6.41602,-3.84766 M-1.28955,5.43262 L-0.260742,6.98633 L-4.66992,12.9702 C-4.90788,13.2502 -5.17733,13.3901 -5.47827,13.3901 C-5.77922,13.3901 -6.03817,13.3062 -6.25513,13.1382 C-6.47209,12.9702 -6.60856,12.7428 -6.66455,12.4558 C-6.72054,12.1689 -6.61556,11.8784 -6.34961,11.5845 L-1.28955,5.43262 M6.16406,11.5005 C6.38802,11.8224 6.46501,12.1339 6.39502,12.4348 C6.32503,12.7358 6.16756,12.9702 5.92261,13.1382 C5.67765,13.3062 5.4047,13.3761 5.10376,13.3481 C4.80282,13.3201 4.54036,13.1522 4.31641,12.8442 L-1.96143,3.33301 C-2.31136,3.55697 -2.74528,3.67594 -3.26318,3.68994 C-3.78109,3.70394 -4.16602,3.52897 -4.41797,3.16504 L-8.07129,-1.95801 C-8.22526,-2.18197 -8.19377,-2.37443 -7.97681,-2.5354 C-7.75985,-2.69637 -7.56738,-2.65788 -7.39941,-2.41992 L-4.58594,1.31738 L-3.59912,0.624512 L-6.22363,-3.23877 C-6.36361,-3.47673 -6.33561,-3.66569 -6.13965,-3.80566 C-5.94368,-3.94564 -5.75472,-3.90365 -5.57275,-3.67969 L-2.78027,0.015625 L-1.79346,-0.677246 L-4.41797,-4.58252 C-4.55794,-4.77848 -4.52295,-4.95695 -4.31299,-5.11792 C-4.10303,-5.27889 -3.90706,-5.2404 -3.7251,-5.00244 L-0.0297852,0.183594 C0.166178,0.477539 0.187174,0.844971 0.0332031,1.28589 C-0.120768,1.72681 -0.372721,2.08024 -0.722656,2.34619 L6.16406,11.5005 M0.0541992,-9.26465 C1.94385,-9.26465 3.72152,-8.90771 5.38721,-8.19385 C7.0529,-7.47998 8.50863,-6.50016 9.75439,-5.25439 C11.0002,-4.00863 11.98,-2.5529 12.6938,-0.887207 C13.4077,0.778483 13.7646,2.55615 13.7646,4.4458 C13.7646,6.33545 13.4077,8.11312 12.6938,9.77881 C11.98,11.4445 11.0002,12.8932 9.75439,14.125 C8.50863,15.3568 7.0529,16.3296 5.38721,17.0435 C3.72152,17.7573 1.94385,18.1143 0.0541992,18.1143 C-1.83545,18.1143 -3.61312,17.7573 -5.27881,17.0435 C-6.9445,16.3296 -8.39323,15.3568 -9.625,14.125 C-10.8568,12.8932 -11.8296,11.4445 -12.5435,9.77881 C-13.2573,8.11312 -13.6143,6.33545 -13.6143,4.4458 C-13.6143,2.55615 -13.2573,0.778483 -12.5435,-0.887207 C-11.8296,-2.5529 -10.8568,-4.00863 -9.625,-5.25439 C-8.39323,-6.50016 -6.9445,-7.47998 -5.27881,-8.19385 C-3.61312,-8.90771 -1.83545,-9.26465 0.0541992,-9.26465 M0.26416,17.4424 C2.01383,17.4424 3.65503,17.1099 5.18774,16.4451 C6.72046,15.7802 8.06071,14.8774 9.2085,13.7366 C10.3563,12.5958 11.2591,11.259 11.917,9.72632 C12.5749,8.1936 12.9038,6.55241 12.9038,4.80273 C12.9038,3.05306 12.5749,1.41187 11.917,-0.12085 C11.2591,-1.65356 10.3563,-2.99382 9.2085,-4.1416 C8.06071,-5.28939 6.72046,-6.19572 5.18774,-6.8606 C3.65503,-7.52547 2.01383,-7.85791 0.26416,-7.85791 C-1.48551,-7.85791 -3.12671,-7.52547 -4.65942,-6.8606 C-6.19214,-6.19572 -7.53239,-5.28939 -8.68018,-4.1416 C-9.82796,-2.99382 -10.7308,-1.65356 -11.3887,-0.12085 C-12.0465,1.41187 -12.3755,3.05306 -12.3755,4.80273 C-12.3755,6.55241 -12.0465,8.1936 -11.3887,9.72632 C-10.7308,11.259 -9.82796,12.5958 -8.68018,13.7366 C-7.53239,14.8774 -6.19214,15.7802 -4.65942,16.4451 C-3.12671,17.1099 -1.48551,17.4424 0.26416,17.4424 "/>
</g>

<g fill="#a61215" fill-opacity="1" stroke="none" transform="matrix(1,0,0,1,0,0)"
font-family="MS Shell Dlg 2" font-size="7.8" font-weight="400" font-style="normal" 
>
</g>
</g>
</svg>
