<?xml version="1.0" encoding="UTF-8" standalone="no"?>
<svg width="11.2889mm" height="11.2889mm"
 viewBox="0 0 32 32"
 xmlns="http://www.w3.org/2000/svg" xmlns:xlink="http://www.w3.org/1999/xlink"  version="1.2" baseProfile="tiny">
<title>Qt SVG Document</title>
<desc>Generated with Qt</desc>
<defs>
</defs>
<g fill="none" stroke="black" stroke-width="1" fill-rule="evenodd" stroke-linecap="square" stroke-linejoin="bevel" >

<g fill="#a61215" fill-opacity="1" stroke="none" transform="matrix(1,0,0,1,0,0)"
font-family="MS Shell Dlg 2" font-size="7.8" font-weight="400" font-style="normal" 
>
<path vector-effect="non-scaling-stroke" fill-rule="evenodd" d="M37.2598,16 C37.2598,27.7415 27.7415,37.2598 16,37.2598 C4.25851,37.2598 -5.25984,27.7415 -5.25984,16 C-5.25984,4.25851 4.25851,-5.25984 16,-5.25984 C27.7415,-5.25984 37.2598,4.25851 37.2598,16 "/>
</g>

<g fill="#ffffff" fill-opacity="0.94902" stroke="none" transform="matrix(1,0,0,1,16,9.76378)"
font-family="MS Shell Dlg 2" font-size="7.8" font-weight="400" font-style="normal" 
>
<path vector-effect="none" fill-rule="evenodd" d="M-8.44141,4.27734 C-7.9987,5.15169 -7.59473,5.9375 -7.22949,6.63477 C-6.89746,7.24349 -6.61523,7.78857 -6.38281,8.27002 C-6.15039,8.75146 -6.01204,8.99219 -5.96777,8.99219 C-5.96777,9.13607 -6.05078,9.20801 -6.2168,9.20801 L-6.91406,9.20801 C-7.01367,9.20801 -7.14095,9.13607 -7.2959,8.99219 C-7.2959,8.90365 -7.32633,8.8234 -7.38721,8.75146 C-7.44808,8.67952 -7.51725,8.64355 -7.59473,8.64355 C-7.59473,8.55501 -7.6722,8.51074 -7.82715,8.51074 L-10.251,8.51074 C-10.4059,8.51074 -10.4834,8.55501 -10.4834,8.64355 C-10.5609,8.64355 -10.6245,8.67952 -10.6743,8.75146 C-10.7241,8.8234 -10.749,8.90365 -10.749,8.99219 C-10.8265,9.06966 -10.8735,9.125 -10.8901,9.1582 C-10.9067,9.19141 -10.9759,9.20801 -11.0977,9.20801 L-11.6953,9.20801 C-11.7728,9.20801 -11.8115,9.13607 -11.8115,8.99219 L-9.53711,4.27734 C-9.37109,4.11133 -9.24382,4.02832 -9.15527,4.02832 L-8.80664,4.02832 C-8.72917,4.02832 -8.60742,4.11133 -8.44141,4.27734 M-8.19238,7.78027 C-8.11491,7.78027 -8.07617,7.7028 -8.07617,7.54785 L-8.92285,5.58887 C-9.0778,5.43392 -9.15527,5.43392 -9.15527,5.58887 L-10.1348,7.54785 C-10.1348,7.7028 -10.0573,7.78027 -9.90234,7.78027 L-8.19238,7.78027 M7.26367,4.02832 C7.41862,4.02832 7.49609,4.11133 7.49609,4.27734 L7.49609,8.99219 C7.49609,9.13607 7.41862,9.20801 7.26367,9.20801 L6.64941,9.20801 C6.4834,9.20801 6.40039,9.13607 6.40039,8.99219 L6.40039,5.58887 L4.49121,8.99219 C4.49121,9.13607 4.40267,9.13607 4.22559,8.99219 L2.43262,5.58887 L2.43262,8.99219 C2.43262,9.13607 2.34961,9.20801 2.18359,9.20801 L1.68555,9.20801 C1.45313,9.20801 1.33691,9.13607 1.33691,8.99219 L1.33691,4.27734 C1.33691,4.11133 1.45313,4.02832 1.68555,4.02832 L2.43262,4.02832 C2.66504,4.02832 2.78125,4.11133 2.78125,4.27734 L4.22559,6.93359 C4.36947,7.06641 4.49674,7.06641 4.60742,6.93359 L6.05176,4.27734 C6.21777,4.11133 6.33398,4.02832 6.40039,4.02832 L7.26367,4.02832 M-0.389648,6.55176 C-0.47819,6.6403 -0.566732,6.70394 -0.655273,6.74268 C-0.743815,6.78141 -0.826823,6.81738 -0.904297,6.85059 C-1.02604,6.90592 -1.10352,6.93359 -1.13672,6.93359 C-1.30273,7.09961 -1.34147,7.22135 -1.25293,7.29883 L-0.638672,8.12891 C-0.472656,8.35026 -0.331543,8.55778 -0.215332,8.75146 C-0.0991211,8.94515 -0.0410156,9.06413 -0.0410156,9.1084 C0.0364583,9.1084 0.0751953,9.125 0.0751953,9.1582 C0.0751953,9.19141 -0.00227865,9.20801 -0.157227,9.20801 L-0.904297,9.20801 C-1.05924,9.20801 -1.17546,9.13607 -1.25293,8.99219 L-2.46484,7.29883 C-2.55339,7.22135 -2.71387,7.18262 -2.94629,7.18262 L-4.02539,7.18262 L-4.02539,8.99219 C-4.02539,9.13607 -4.10286,9.20801 -4.25781,9.20801 L-4.87207,9.20801 C-5.03809,9.20801 -5.12109,9.13607 -5.12109,8.99219 L-5.12109,4.27734 C-5.12109,4.11133 -5.03809,4.02832 -4.87207,4.02832 L-2.34863,4.02832 L-1.85059,4.02832 L-1.66797,4.02832 C-1.55729,4.02832 -1.41895,4.06706 -1.25293,4.14453 C-1.08691,4.14453 -0.843424,4.22201 -0.522461,4.37695 C-0.433919,4.45443 -0.350911,4.52913 -0.273438,4.60107 C-0.195964,4.67301 -0.157227,4.76986 -0.157227,4.8916 C-0.0797526,5.01335 -0.0133464,5.13232 0.0419922,5.24854 C0.0973307,5.36475 0.125,5.47819 0.125,5.58887 C0.125,5.81022 0.0668945,5.99837 -0.0493164,6.15332 C-0.165527,6.30827 -0.278971,6.44108 -0.389648,6.55176 M-1.38574,6.20313 C-1.2972,6.12565 -1.25293,6.07031 -1.25293,6.03711 C-1.25293,6.00391 -1.21419,5.9873 -1.13672,5.9873 L-1.13672,5.58887 L-1.13672,5.35645 C-1.21419,5.27897 -1.25293,5.22087 -1.25293,5.18213 C-1.25293,5.14339 -1.2972,5.12402 -1.38574,5.12402 C-1.46322,5.03548 -1.57943,4.99121 -1.73438,4.99121 C-1.81185,4.9248 -1.90039,4.8916 -2,4.8916 L-2.09961,4.8916 L-2.59766,4.8916 L-3.79297,4.8916 C-3.94792,4.8916 -4.02539,4.96908 -4.02539,5.12402 L-4.02539,6.08691 C-4.02539,6.25293 -3.94792,6.33594 -3.79297,6.33594 L-2.59766,6.33594 L-2.09961,6.33594 L-1.73438,6.33594 C-1.64583,6.33594 -1.58496,6.3138 -1.55176,6.26953 C-1.51855,6.22526 -1.46322,6.20313 -1.38574,6.20313 M17.5234,4.02832 C17.6784,4.02832 17.7559,4.11133 17.7559,4.27734 L17.7559,8.99219 C17.7559,9.13607 17.6784,9.20801 17.5234,9.20801 L17.0586,9.20801 C16.959,9.20801 16.8898,9.19141 16.8511,9.1582 C16.8123,9.125 16.7487,9.1084 16.6602,9.1084 L13.4893,5.85449 C13.3232,5.67741 13.2402,5.67741 13.2402,5.85449 L13.2402,8.99219 C13.2402,9.13607 13.1572,9.20801 12.9912,9.20801 L12.3936,9.20801 C12.3161,9.20801 12.2773,9.19141 12.2773,9.1582 L12.2773,9.1084 L12.2773,4.27734 C12.2773,4.11133 12.3604,4.02832 12.5264,4.02832 L12.9912,4.02832 C13.1572,4.02832 13.3232,4.11133 13.4893,4.27734 L16.5605,7.41504 C16.627,7.41504 16.6602,7.3763 16.6602,7.29883 L16.6602,4.27734 C16.6602,4.11133 16.793,4.02832 17.0586,4.02832 L17.5234,4.02832 M10.2188,4.02832 C10.3737,4.02832 10.4512,4.11133 10.4512,4.27734 L10.4512,8.99219 C10.4512,9.13607 10.3737,9.20801 10.2188,9.20801 L9.50488,9.20801 C9.33887,9.20801 9.25586,9.13607 9.25586,8.99219 L9.25586,4.27734 C9.25586,4.11133 9.33887,4.02832 9.50488,4.02832 L10.2188,4.02832 M-12.7744,6.33594 C-12.6305,6.33594 -12.5586,6.45215 -12.5586,6.68457 L-12.5586,8.39453 C-12.5586,8.56055 -12.6305,8.71549 -12.7744,8.85938 C-12.9404,8.94792 -13.1507,9.03092 -13.4053,9.1084 C-13.6045,9.1748 -13.8563,9.23014 -14.1606,9.27441 C-14.465,9.31868 -14.833,9.34082 -15.2646,9.34082 C-15.3753,9.34082 -15.605,9.31868 -15.9536,9.27441 C-16.3022,9.23014 -16.6564,9.12223 -17.0161,8.95068 C-17.3758,8.77913 -17.6968,8.51904 -17.979,8.17041 C-18.2612,7.82178 -18.4023,7.3265 -18.4023,6.68457 C-18.4023,6.59603 -18.3857,6.39958 -18.3525,6.09521 C-18.3193,5.79085 -18.2004,5.48372 -17.9956,5.17383 C-17.7909,4.86393 -17.4727,4.57617 -17.041,4.31055 C-16.6094,4.04492 -16.0173,3.91211 -15.2646,3.91211 C-14.9105,3.91211 -14.5812,3.93148 -14.2769,3.97021 C-13.9725,4.00895 -13.7207,4.06706 -13.5215,4.14453 C-13.2559,4.23307 -13.0511,4.31055 -12.9072,4.37695 C-12.6305,4.52083 -12.5863,4.69238 -12.7744,4.8916 L-12.9072,5.12402 C-12.9847,5.27897 -13.1064,5.35645 -13.2725,5.35645 C-13.2725,5.27897 -13.4883,5.16276 -13.9199,5.00781 C-14.3516,4.85286 -14.8773,4.81413 -15.4971,4.8916 C-16.3493,4.95801 -16.8473,5.22363 -16.9912,5.68848 C-17.1351,6.15332 -17.207,6.48535 -17.207,6.68457 C-17.207,6.79525 -17.1545,7.05257 -17.0493,7.45654 C-16.9442,7.86051 -16.554,8.17318 -15.8789,8.39453 C-15.3477,8.50521 -14.8524,8.50798 -14.3931,8.40283 C-13.9338,8.29769 -13.6432,8.20638 -13.5215,8.12891 L-13.5215,7.29883 C-13.5215,7.22135 -13.599,7.18262 -13.7539,7.18262 L-14.9658,7.18262 C-15.165,7.18262 -15.2646,7.05534 -15.2646,6.80078 L-15.2646,6.68457 C-15.2646,6.45215 -15.165,6.33594 -14.9658,6.33594 L-12.7744,6.33594 M13.2402,2.65039 C13.0742,2.65039 12.9525,2.60612 12.875,2.51758 L12.875,2.16895 L14.7012,-0.75293 C14.7012,-0.907878 14.7786,-0.985352 14.9336,-0.985352 C15.0885,-0.985352 15.166,-0.907878 15.166,-0.75293 L17.0586,2.16895 L17.0586,2.51758 C16.959,2.60612 16.8262,2.65039 16.6602,2.65039 L13.2402,2.65039"/>
</g>

<g fill="#a61215" fill-opacity="1" stroke="none" transform="matrix(1,0,0,1,0,0)"
font-family="MS Shell Dlg 2" font-size="7.8" font-weight="400" font-style="normal" 
>
</g>
</g>
</svg>
