<?xml version="1.0" encoding="UTF-8" standalone="no"?>
<svg
   xmlns:dc="http://purl.org/dc/elements/1.1/"
   xmlns:cc="http://creativecommons.org/ns#"
   xmlns:rdf="http://www.w3.org/1999/02/22-rdf-syntax-ns#"
   xmlns:svg="http://www.w3.org/2000/svg"
   xmlns="http://www.w3.org/2000/svg"
   xmlns:sodipodi="http://sodipodi.sourceforge.net/DTD/sodipodi-0.dtd"
   xmlns:inkscape="http://www.inkscape.org/namespaces/inkscape"
   inkscape:version="1.0 (4035a4fb49, 2020-05-01)"
   sodipodi:docname="2101.svg"
   id="svg20"
   version="1.2"
   viewBox="0 0 42.519639 42.519639"
   height="14.999999mm"
   width="14.999999mm">
  <metadata
     id="metadata24">
    <rdf:RDF>
      <cc:Work
         rdf:about="">
        <dc:format>image/svg+xml</dc:format>
        <dc:type
           rdf:resource="http://purl.org/dc/dcmitype/StillImage" />
        <dc:title>Qt SVG Document</dc:title>
      </cc:Work>
    </rdf:RDF>
  </metadata>
  <sodipodi:namedview
     inkscape:current-layer="svg20"
     inkscape:window-maximized="0"
     inkscape:window-y="0"
     inkscape:window-x="0"
     inkscape:cy="28.346482"
     inkscape:cx="28.346482"
     inkscape:zoom="5.8410537"
     showgrid="false"
     id="namedview22"
     inkscape:window-height="480"
     inkscape:window-width="1034"
     inkscape:pageshadow="2"
     inkscape:pageopacity="0"
     guidetolerance="10"
     gridtolerance="10"
     objecttolerance="10"
     borderopacity="1"
     bordercolor="#666666"
     pagecolor="#ffffff" />
  <title
     id="title2">Qt SVG Document</title>
  <desc
     id="desc4">Generated with Qt</desc>
  <defs
     id="defs6" />
  <g
     transform="translate(5.25984,5.25984)"
     id="g18"
     stroke-linejoin="bevel"
     stroke-linecap="square"
     fill-rule="evenodd"
     stroke-width="1"
     stroke="#000000"
     fill="none">
    <g
       id="g10"
       font-style="normal"
       font-weight="400"
       font-size="7.8px"
       font-family="'MS Shell Dlg 2'"
       stroke="none"
       fill-opacity="1"
       fill="#a61215">
      <path
         id="path8"
         d="M 37.2598,16 C 37.2598,27.7415 27.7415,37.2598 16,37.2598 4.25851,37.2598 -5.25984,27.7415 -5.25984,16 -5.25984,4.25851 4.25851,-5.25984 16,-5.25984 27.7415,-5.25984 37.2598,4.25851 37.2598,16"
         fill-rule="evenodd"
         vector-effect="non-scaling-stroke" />
    </g>
    <g
       id="g14"
       font-style="normal"
       font-weight="400"
       font-size="7.8px"
       font-family="'MS Shell Dlg 2'"
       transform="translate(16,9.76378)"
       stroke="none"
       fill-opacity="0.94902"
       fill="#ffffff">
      <path
         id="path12"
         d="m -8.44141,4.27734 c 0.44271,0.87435 0.84668,1.66016 1.21192,2.35743 0.33203,0.60872 0.61426,1.1538 0.84668,1.63525 0.23242,0.48144 0.37077,0.72217 0.41504,0.72217 0,0.14388 -0.08301,0.21582 -0.24903,0.21582 h -0.69726 c -0.09961,0 -0.22689,-0.07194 -0.38184,-0.21582 0,-0.08854 -0.03043,-0.16879 -0.09131,-0.24073 -0.06087,-0.07194 -0.13004,-0.10791 -0.20752,-0.10791 0,-0.08854 -0.07747,-0.13281 -0.23242,-0.13281 H -10.251 c -0.1549,0 -0.2324,0.04427 -0.2324,0.13281 -0.0775,0 -0.1411,0.03597 -0.1909,0.10791 -0.0498,0.07194 -0.0747,0.15219 -0.0747,0.24073 -0.0775,0.07747 -0.1245,0.13281 -0.1411,0.16601 -0.0166,0.03321 -0.0858,0.04981 -0.2076,0.04981 h -0.5976 c -0.0775,0 -0.1162,-0.07194 -0.1162,-0.21582 l 2.27439,-4.71485 c 0.16602,-0.16601 0.29329,-0.24902 0.38184,-0.24902 h 0.34863 c 0.07747,0 0.19922,0.08301 0.36523,0.24902 m 0.24903,3.50293 c 0.07747,0 0.11621,-0.07747 0.11621,-0.23242 L -8.92285,5.58887 c -0.15495,-0.15495 -0.23242,-0.15495 -0.23242,0 l -0.97953,1.95898 c 0,0.15495 0.0775,0.23242 0.23246,0.23242 h 1.70996 M 7.26367,4.02832 c 0.15495,0 0.23242,0.08301 0.23242,0.24902 v 4.71485 c 0,0.14388 -0.07747,0.21582 -0.23242,0.21582 H 6.64941 C 6.4834,9.20801 6.40039,9.13607 6.40039,8.99219 V 5.58887 L 4.49121,8.99219 c 0,0.14388 -0.08854,0.14388 -0.26562,0 L 2.43262,5.58887 v 3.40332 c 0,0.14388 -0.08301,0.21582 -0.24903,0.21582 H 1.68555 c -0.23242,0 -0.34864,-0.07194 -0.34864,-0.21582 V 4.27734 c 0,-0.16601 0.11622,-0.24902 0.34864,-0.24902 h 0.74707 c 0.23242,0 0.34863,0.08301 0.34863,0.24902 l 1.44434,2.65625 c 0.14388,0.13282 0.27115,0.13282 0.38183,0 L 6.05176,4.27734 C 6.21777,4.11133 6.33398,4.02832 6.40039,4.02832 h 0.86328 m -7.653318,2.52344 c -0.088542,0.08854 -0.177084,0.15218 -0.265625,0.19092 -0.088542,0.03873 -0.17155,0.0747 -0.249024,0.10791 -0.121743,0.05533 -0.199223,0.083 -0.232423,0.083 -0.16601,0.16602 -0.20475,0.28776 -0.11621,0.36524 l 0.614258,0.83008 c 0.166016,0.22135 0.307129,0.42887 0.42334,0.62255 0.1162109,0.19369 0.1743164,0.31267 0.1743164,0.35694 0.0774739,0 0.1162109,0.0166 0.1162109,0.0498 0,0.03321 -0.07747395,0.04981 -0.2324223,0.04981 h -0.74707 c -0.154943,0 -0.271163,-0.07194 -0.348633,-0.21582 L -2.46484,7.29883 C -2.55339,7.22135 -2.71387,7.18262 -2.94629,7.18262 h -1.0791 v 1.80957 c 0,0.14388 -0.07747,0.21582 -0.23242,0.21582 h -0.61426 c -0.16602,0 -0.24902,-0.07194 -0.24902,-0.21582 V 4.27734 c 0,-0.16601 0.083,-0.24902 0.24902,-0.24902 h 2.52344 0.49804 0.18262 c 0.11068,0 0.24902,0.03874 0.41504,0.11621 0.16602,0 0.409506,0.07748 0.730469,0.23242 0.088542,0.07748 0.17155,0.15218 0.249023,0.22412 0.077474,0.07194 0.116211,0.16879 0.116211,0.29053 0.0774744,0.12175 0.1438806,0.24072 0.1992192,0.35694 C 0.0973307,5.36475 0.125,5.47819 0.125,5.58887 0.125,5.81022 0.0668945,5.99837 -0.0493164,6.15332 -0.165527,6.30827 -0.278971,6.44108 -0.389648,6.55176 M -1.38574,6.20313 c 0.08854,-0.07748 0.13281,-0.13282 0.13281,-0.16602 0,-0.0332 0.03874,-0.04981 0.11621,-0.04981 V 5.58887 5.35645 C -1.21419,5.27897 -1.25293,5.22087 -1.25293,5.18213 -1.25293,5.14339 -1.2972,5.12402 -1.38574,5.12402 -1.46322,5.03548 -1.57943,4.99121 -1.73438,4.99121 -1.81185,4.9248 -1.90039,4.8916 -2,4.8916 h -0.09961 -0.49805 -1.19531 c -0.15495,0 -0.23242,0.07748 -0.23242,0.23242 v 0.96289 c 0,0.16602 0.07747,0.24903 0.23242,0.24903 h 1.19531 0.49805 0.36523 c 0.08855,0 0.14942,-0.02214 0.18262,-0.06641 0.03321,-0.04427 0.08854,-0.0664 0.16602,-0.0664 M 17.5234,4.02832 c 0.155,0 0.2325,0.08301 0.2325,0.24902 v 4.71485 c 0,0.14388 -0.0775,0.21582 -0.2325,0.21582 h -0.4648 c -0.0996,0 -0.1688,-0.0166 -0.2075,-0.04981 C 16.8123,9.125 16.7487,9.1084 16.6602,9.1084 L 13.4893,5.85449 c -0.1661,-0.17708 -0.2491,-0.17708 -0.2491,0 v 3.1377 c 0,0.14388 -0.083,0.21582 -0.249,0.21582 h -0.5976 c -0.0775,0 -0.1163,-0.0166 -0.1163,-0.04981 V 9.1084 4.27734 c 0,-0.16601 0.0831,-0.24902 0.2491,-0.24902 h 0.4648 c 0.166,0 0.332,0.08301 0.4981,0.24902 l 3.0712,3.1377 c 0.0665,0 0.0997,-0.03874 0.0997,-0.11621 V 4.27734 c 0,-0.16601 0.1328,-0.24902 0.3984,-0.24902 h 0.4648 m -7.3046,0 c 0.1549,0 0.2324,0.08301 0.2324,0.24902 v 4.71485 c 0,0.14388 -0.0775,0.21582 -0.2324,0.21582 H 9.50488 c -0.16601,0 -0.24902,-0.07194 -0.24902,-0.21582 V 4.27734 c 0,-0.16601 0.08301,-0.24902 0.24902,-0.24902 h 0.71392 m -22.9932,2.30762 c 0.1439,0 0.2158,0.11621 0.2158,0.34863 v 1.70996 c 0,0.16602 -0.0719,0.32096 -0.2158,0.46485 -0.166,0.08854 -0.3763,0.17154 -0.6309,0.24902 -0.1992,0.0664 -0.451,0.12174 -0.7553,0.16601 -0.3044,0.04427 -0.6724,0.06641 -1.104,0.06641 -0.1107,0 -0.3404,-0.02214 -0.689,-0.06641 -0.3486,-0.04427 -0.7028,-0.15218 -1.0625,-0.32373 -0.3597,-0.17155 -0.6807,-0.43164 -0.9629,-0.78027 -0.2822,-0.34863 -0.4233,-0.84391 -0.4233,-1.48584 0,-0.08854 0.0166,-0.28499 0.0498,-0.58936 0.0332,-0.30436 0.1521,-0.61149 0.3569,-0.92138 0.2047,-0.3099 0.5229,-0.59766 0.9546,-0.86328 0.4316,-0.26563 1.0237,-0.39844 1.7764,-0.39844 0.3541,0 0.6834,0.01937 0.9877,0.0581 0.3044,0.03874 0.5562,0.09685 0.7554,0.17432 0.2656,0.08854 0.4704,0.16602 0.6143,0.23242 0.2767,0.14388 0.3209,0.31543 0.1328,0.51465 l -0.1328,0.23242 c -0.0775,0.15495 -0.1992,0.23243 -0.3653,0.23243 0,-0.07748 -0.2158,-0.19369 -0.6474,-0.34864 -0.4317,-0.15495 -0.9574,-0.19368 -1.5772,-0.11621 -0.8522,0.06641 -1.3502,0.33203 -1.4941,0.79688 -0.1439,0.46484 -0.2158,0.79687 -0.2158,0.99609 0,0.11068 0.0525,0.368 0.1577,0.77197 0.1051,0.40397 0.4953,0.71664 1.1704,0.93799 0.5312,0.11068 1.0265,0.11345 1.4858,0.0083 0.4593,-0.10514 0.7499,-0.19645 0.8716,-0.27392 V 7.29883 c 0,-0.07748 -0.0775,-0.11621 -0.2324,-0.11621 h -1.2119 c -0.1992,0 -0.2988,-0.12728 -0.2988,-0.38184 V 6.68457 c 0,-0.23242 0.0996,-0.34863 0.2988,-0.34863 h 2.1914 M 13.2402,2.65039 c -0.166,0 -0.2877,-0.04427 -0.3652,-0.13281 V 2.16895 l 1.8262,-2.92188 c 0,-0.154948 0.0774,-0.232422 0.2324,-0.232422 0.1549,0 0.2324,0.077474 0.2324,0.232422 l 1.8926,2.92188 V 2.51758 C 16.959,2.60612 16.8262,2.65039 16.6602,2.65039 h -3.42"
         fill-rule="evenodd"
         vector-effect="none" />
    </g>
    <g
       id="g16"
       font-style="normal"
       font-weight="400"
       font-size="7.8px"
       font-family="'MS Shell Dlg 2'"
       stroke="none"
       fill-opacity="1"
       fill="#a61215" />
  </g>
</svg>
