<svg xmlns="http://www.w3.org/2000/svg" version="1.2" viewBox="0 0 42.52 42.52" height="56.693" width="56.693">
   <g stroke-linejoin="bevel" stroke-linecap="square" fill-rule="evenodd" stroke="none" fill="none" font-weight="400"
      font-size="7.8" font-family="'MS Shell Dlg 2'">
      <path
         d="M42.52 21.26C42.52 33 33 42.52 21.26 42.52 9.518 42.52 0 33 0 21.26 0 9.518 9.518 0 21.26 0 33 0 42.52 9.518 42.52 21.26"
         vector-effect="non-scaling-stroke" fill="#a61215" />
      <path
         d="M12.818 19.301c.443.874.847 1.66 1.212 2.357.332.61.615 1.154.847 1.636.232.481.37.722.415.722 0 .144-.083.216-.249.216h-.697c-.1 0-.227-.072-.382-.216a.363.363 0 00-.091-.24c-.061-.073-.13-.109-.208-.109 0-.088-.077-.133-.232-.133h-2.424c-.155 0-.233.045-.233.133-.077 0-.14.036-.19.108a.413.413 0 00-.075.24.84.84 0 00-.141.167c-.017.033-.086.05-.208.05h-.597c-.078 0-.117-.072-.117-.216l2.275-4.715c.166-.166.293-.25.382-.25h.348c.078 0 .2.084.365.25m.25 3.503c.077 0 .116-.078.116-.233l-.847-1.959c-.155-.154-.232-.154-.232 0l-.98 1.96c0 .154.078.232.233.232h1.71m15.456-3.752c.154 0 .232.083.232.249v4.715c0 .144-.078.216-.232.216h-.615c-.166 0-.249-.072-.249-.216v-3.404l-1.909 3.404c0 .144-.088.144-.266 0l-1.793-3.404v3.404c0 .144-.083.216-.249.216h-.498c-.232 0-.348-.072-.348-.216V19.3c0-.166.116-.25.348-.25h.747c.233 0 .35.084.35.25l1.443 2.656c.144.133.272.133.382 0l1.445-2.656c.166-.166.282-.25.348-.25h.864m-7.654 2.524a.886.886 0 01-.265.191l-.25.108a.827.827 0 01-.232.083c-.166.166-.205.288-.116.365l.614.83c.166.222.307.43.424.623.116.194.174.313.174.357.077 0 .116.017.116.05s-.077.05-.232.05h-.747a.374.374 0 01-.35-.216l-1.211-1.694c-.089-.077-.249-.116-.481-.116h-1.08v1.81c0 .144-.077.216-.232.216h-.614c-.166 0-.25-.072-.25-.216V19.3c0-.166.084-.25.25-.25H19.592c.11 0 .249.04.415.117.166 0 .41.078.73.233.089.077.172.152.25.224a.377.377 0 01.116.29c.077.122.143.24.199.357.055.116.083.23.083.34 0 .222-.058.41-.174.565-.117.155-.23.288-.34.398m-.997-.348c.089-.078.133-.133.133-.166s.039-.05.116-.05v-.631c-.077-.077-.116-.136-.116-.174 0-.039-.044-.058-.133-.058-.077-.089-.194-.133-.349-.133a.397.397 0 00-.265-.1H17.467c-.155 0-.233.078-.233.233v.963c0 .166.078.249.233.249h2.058c.089 0 .15-.023.183-.067.033-.044.089-.066.166-.066m18.91-2.175c.154 0 .232.083.232.249v4.715c0 .144-.078.216-.233.216h-.465c-.1 0-.168-.017-.207-.05-.039-.033-.102-.05-.191-.05l-3.17-3.254c-.167-.177-.25-.177-.25 0v3.138c0 .144-.083.216-.249.216h-.598c-.077 0-.116-.017-.116-.05V19.3c0-.166.083-.25.25-.25h.464c.166 0 .332.084.498.25l3.071 3.138c.067 0 .1-.04.1-.117v-3.021c0-.166.133-.25.398-.25h.465m-7.304 0c.155 0 .232.084.232.25v4.715c0 .144-.077.216-.232.216h-.714c-.166 0-.25-.072-.25-.216V19.3c0-.166.084-.25.25-.25h.714M8.485 21.36c.144 0 .216.116.216.348v1.71c0 .166-.072.321-.216.465a3.563 3.563 0 01-.63.249 4.48 4.48 0 01-.756.166 7.821 7.821 0 01-1.104.066c-.11 0-.34-.022-.689-.066a3.488 3.488 0 01-1.062-.324 2.78 2.78 0 01-.963-.78c-.282-.349-.423-.844-.423-1.486 0-.088.016-.285.05-.59.033-.304.151-.61.356-.92.205-.31.523-.598.955-.864.431-.265 1.024-.398 1.776-.398.354 0 .684.02.988.058.304.039.556.097.755.174.266.089.47.166.615.233.276.143.32.315.132.514l-.132.233a.384.384 0 01-.366.232c0-.077-.215-.194-.647-.349-.432-.155-.957-.193-1.577-.116-.852.067-1.35.332-1.494.797-.144.465-.216.797-.216.996 0 .11.052.368.158.772.105.404.495.717 1.17.938.531.11 1.026.114 1.486.008.459-.105.75-.196.871-.273v-.83c0-.078-.077-.117-.232-.117H6.294c-.2 0-.299-.127-.299-.382v-.116c0-.232.1-.348.299-.348h2.191M34.5 17.674c-.166 0-.288-.044-.365-.133v-.348l1.826-2.922c0-.155.077-.233.232-.233.155 0 .233.078.233.233l1.892 2.922v.348a.578.578 0 01-.398.133H34.5"
         fill-opacity=".949" fill="#fff" />
   </g>
</svg>