<svg xmlns="http://www.w3.org/2000/svg" version="1.2" viewBox="0 0 42.52 42.52" height="56.693" width="56.693">
   <g stroke-linejoin="bevel" stroke-linecap="square" fill-rule="evenodd" stroke="none" fill="none" font-weight="400"
      font-size="7.8" font-family="'MS Shell Dlg 2'">
      <path
         d="M42.52 21.26C42.52 33 33 42.52 21.26 42.52 9.518 42.52 0 33 0 21.26 0 9.518 9.518 0 21.26 0 33 0 42.52 9.518 42.52 21.26"
         vector-effect="non-scaling-stroke" fill="#a61215" />
      <path
         d="M31.896 29.19l-14.508 3.36-1.617-12.912a11.575 11.575 0 01-.483-2.184c-.084-.714.014-1.449.294-2.205a.935.935 0 00.231-.294c.056-.112.14-.224.252-.336a5.47 5.47 0 01-.924-1.343 4.982 4.982 0 01-.462-1.554c-.084-1.078.336-1.904 1.26-2.478a3.76 3.76 0 01.955-.356 3.314 3.314 0 011.187-.042c.434.056.888.199 1.364.43.476.23.952.563 1.428.997.462.392.892.826 1.291 1.302.4.476.767.952 1.103 1.428.336.476.616.927.84 1.354l.608 1.165 3.003-.44 4.178 14.109M17.955 16.55a1.363 1.363 0 00-.252-.399c-.406-.252-.812-.609-1.218-1.07-.112.237-.196.384-.252.44a2.274 2.274 0 00-.147.64 9.32 9.32 0 00-.021.641l1.89-.252m.168-.903c.14.14.276.252.41.336a.948.948 0 01.324.357l1.722-.189c-.406-.63-.843-1.074-1.312-1.333-.469-.259-.934-.388-1.396-.388-.322 0-.567.09-.735.272l.472.473c.175.175.347.332.515.472m1.637 4.346c.322 0 .588-.143.798-.43.21-.287.287-.633.231-1.04 0-.377-.115-.696-.346-.955-.231-.259-.487-.353-.767-.283a.64.64 0 01.231.315c.042.126.091.259.147.399.098.182 0 .329-.294.44h-.084a.28.28 0 01-.168-.062c-.056-.042-.084-.105-.084-.19a6.008 6.008 0 01-.157-.293 2.134 2.134 0 00-.242-.357.995.995 0 00-.272.514 2.765 2.765 0 00-.063.557c0 .406.115.738.346.997.23.259.472.388.724.388m4.22-4.346c-.321-.686-.776-1.473-1.364-2.362a14.46 14.46 0 00-2.12-2.509c-.869-.742-1.68-1.148-2.436-1.218-.756-.07-1.365.035-1.827.315-.686.406-.987.98-.903 1.722.056.49.2.952.43 1.386.232.434.508.833.83 1.197a2.146 2.146 0 011.365-.462c.546 0 1.133.164 1.763.493.63.329 1.19.92 1.68 1.774l2.583-.336m1.637 3.36c.28-.07.476-.27.588-.599.112-.329.098-.675-.042-1.039-.224-.686-.623-1.029-1.197-1.029a.724.724 0 01.105.21.82.82 0 00.063.168l.084.168c0 .084-.014.186-.042.304-.028.12-.07.179-.126.179a.29.29 0 01-.283.021c-.105-.042-.158-.112-.158-.21a.489.489 0 01-.084-.126l-.21-.42c-.14.14-.223.333-.251.577-.028.245 0 .508.084.788.083.378.276.661.577.85.3.19.598.242.892.158m6.74 11.548l-14.655 4.01-.21-1.638 14.487-3.653.378 1.28M13.776 16.552c.154.224.301.539.441.945.14.336.277.79.41 1.365.133.574.241 1.28.325 2.12.028.49.042 1.2.042 2.131 0 .931-.014 1.918-.042 2.96a1568.2 1568.2 0 01-.084 3.024 139.3 139.3 0 01-.084 2.362h-.105l-2.183.19 1.28-15.097m-1.532 17.364l.21-1.806 2.225-.462h.105c-.042.14-.07.26-.084.357a1.736 1.736 0 00-.02.231v.231l-2.436 1.449m.168-1.806l.084-.462c0 .084-.007.161-.021.231a1.18 1.18 0 00-.021.231h-.042"
         fill-opacity=".949" fill="#fff" />
   </g>
</svg>