<?xml version="1.0" encoding="UTF-8" standalone="no"?>
<svg
   xmlns:dc="http://purl.org/dc/elements/1.1/"
   xmlns:cc="http://creativecommons.org/ns#"
   xmlns:rdf="http://www.w3.org/1999/02/22-rdf-syntax-ns#"
   xmlns:svg="http://www.w3.org/2000/svg"
   xmlns="http://www.w3.org/2000/svg"
   xmlns:sodipodi="http://sodipodi.sourceforge.net/DTD/sodipodi-0.dtd"
   xmlns:inkscape="http://www.inkscape.org/namespaces/inkscape"
   inkscape:version="1.0 (4035a4fb49, 2020-05-01)"
   sodipodi:docname="2102.svg"
   id="svg20"
   version="1.2"
   viewBox="0 0 42.519639 42.519639"
   height="14.999999mm"
   width="14.999999mm">
  <metadata
     id="metadata24">
    <rdf:RDF>
      <cc:Work
         rdf:about="">
        <dc:format>image/svg+xml</dc:format>
        <dc:type
           rdf:resource="http://purl.org/dc/dcmitype/StillImage" />
        <dc:title>Qt SVG Document</dc:title>
      </cc:Work>
    </rdf:RDF>
  </metadata>
  <sodipodi:namedview
     inkscape:current-layer="svg20"
     inkscape:window-maximized="0"
     inkscape:window-y="0"
     inkscape:window-x="0"
     inkscape:cy="28.346482"
     inkscape:cx="28.346482"
     inkscape:zoom="5.8410537"
     showgrid="false"
     id="namedview22"
     inkscape:window-height="480"
     inkscape:window-width="1034"
     inkscape:pageshadow="2"
     inkscape:pageopacity="0"
     guidetolerance="10"
     gridtolerance="10"
     objecttolerance="10"
     borderopacity="1"
     bordercolor="#666666"
     pagecolor="#ffffff" />
  <title
     id="title2">Qt SVG Document</title>
  <desc
     id="desc4">Generated with Qt</desc>
  <defs
     id="defs6" />
  <g
     transform="translate(5.25984,5.25984)"
     id="g18"
     stroke-linejoin="bevel"
     stroke-linecap="square"
     fill-rule="evenodd"
     stroke-width="1"
     stroke="#000000"
     fill="none">
    <g
       id="g10"
       font-style="normal"
       font-weight="400"
       font-size="7.8px"
       font-family="'MS Shell Dlg 2'"
       stroke="none"
       fill-opacity="1"
       fill="#a61215">
      <path
         id="path8"
         d="M 37.2598,16 C 37.2598,27.7415 27.7415,37.2598 16,37.2598 4.25851,37.2598 -5.25984,27.7415 -5.25984,16 -5.25984,4.25851 4.25851,-5.25984 16,-5.25984 27.7415,-5.25984 37.2598,4.25851 37.2598,16"
         fill-rule="evenodd"
         vector-effect="non-scaling-stroke" />
    </g>
    <g
       id="g14"
       font-style="normal"
       font-weight="400"
       font-size="7.8px"
       font-family="'MS Shell Dlg 2'"
       transform="translate(16,12.5984)"
       stroke="none"
       fill-opacity="0.94902"
       fill="#ffffff">
      <path
         id="path12"
         d="M 10.6362,11.3325 -3.87207,14.6919 -5.48877,1.7793 C -5.72673,1.03743 -5.8877,0.30957 -5.97168,-0.404297 c -0.08398,-0.713863 0.014,-1.448733 0.29395,-2.204593 0.09798,-0.08398 0.17496,-0.18196 0.23095,-0.29394 0.05599,-0.11198 0.13998,-0.22396 0.25196,-0.33594 -0.37793,-0.40592 -0.68588,-0.85384 -0.92383,-1.34375 -0.23796,-0.48991 -0.39193,-1.00781 -0.46192,-1.55371 -0.08398,-1.0778 0.33594,-1.90365 1.25977,-2.47754 0.27995,-0.15397 0.59839,-0.27295 0.95532,-0.35693 0.35694,-0.08399 0.75236,-0.09798 1.18628,-0.042 0.43392,0.05599 0.88884,0.19947 1.36475,0.43042 0.47591,0.23096 0.95182,0.5634 1.427731,0.99732 0.4619143,0.39193 0.892334,0.82585 1.29126,1.30176 0.398929,0.47591 0.766359,0.95182 1.102299,1.42773 0.33593,0.47591 0.61588,0.92733 0.83984,1.35425 0.22396,0.42692 0.42692,0.81535 0.60889,1.16528 L 6.45801,-2.77686 10.6362,11.3325 M -3.30518,-1.30713 c -0.05599,-0.13997 -0.13997,-0.27295 -0.25195,-0.39892 -0.40592,-0.25196 -0.81185,-0.60889 -1.21777,-1.07081 -0.11198,0.23796 -0.19597,0.38493 -0.25196,0.44092 -0.08398,0.22396 -0.13297,0.43742 -0.14697,0.64038 -0.014,0.20297 -0.02099,0.41643 -0.02099,0.64038 l 1.88964,-0.25195 m 0.16797,-0.90283 c 0.13998,0.13997 0.27645,0.25195 0.40943,0.33594 0.13297,0.08398 0.24145,0.20296 0.32544,0.35693 l 1.721676,-0.18896 c -0.405926,-0.62989 -0.843346,-1.0743 -1.312256,-1.33326 -0.46891,-0.25895 -0.93433,-0.38842 -1.39624,-0.38842 -0.32194,0 -0.56689,0.09098 -0.73486,0.27294 0.13997,0.13998 0.29744,0.29745 0.47241,0.47242 0.17497,0.17496 0.34643,0.33244 0.5144,0.47241 m 1.6377,4.34619 c 0.32194,0 0.587889,-0.14347 0.79785,-0.43042 0.209961,-0.28695 0.286946,-0.63338 0.230957,-1.039306 0,-0.37793 -0.115479,-0.6963705 -0.346436,-0.955322 C -1.0481,-0.54777 -1.30355,-0.642253 -1.5835,-0.572266 c 0.11198,0.083985 0.18897,0.188965 0.23096,0.314942 0.04199,0.125976 0.09098,0.2589516 0.14697,0.398926 0.09799,0.181966 0,0.328938 -0.29394,0.440918 H -1.5835 c -0.05599,0 -0.11198,-0.020997 -0.16796,-0.062989 C -1.80745,0.477539 -1.83545,0.414551 -1.83545,0.330566 -1.89144,0.232585 -1.94393,0.134603 -1.99292,0.0366211 -2.04191,-0.0613607 -2.1224,-0.180339 -2.23438,-0.320313 c -0.13997,0.139974 -0.23095,0.31144256 -0.27294,0.514405 -0.042,0.202962 -0.06299,0.388428 -0.06299,0.556396 0,0.405922 0.11548,0.738362 0.34643,0.997312 0.23096,0.25895 0.47242,0.38843 0.72437,0.38843 M 2.7207,-2.20996 C 2.39876,-2.89583 1.94385,-3.68319 1.35596,-4.57202 0.768066,-5.46086 0.0611979,-6.2972 -0.764648,-7.08105 -1.63249,-7.82292 -2.44434,-8.22884 -3.2002,-8.29883 c -0.75585,-0.06999 -1.36474,0.035 -1.82666,0.31494 -0.68587,0.40593 -0.98681,0.97982 -0.90283,1.72168 0.05599,0.48991 0.19947,0.95183 0.43042,1.38575 0.23096,0.43391 0.50741,0.83284 0.82935,1.19677 0.39193,-0.30794 0.84684,-0.46191 1.36474,-0.46191 0.5459,0 1.13379,0.16447 1.76368,0.49341 0.629879,0.32894 1.189775,0.92033 1.679684,1.77417 L 2.7207,-2.20996 M 4.3584,1.14941 C 4.63835,1.07943 4.83431,0.879964 4.94629,0.551025 5.05827,0.222087 5.04427,-0.124349 4.9043,-0.488281 4.68034,-1.17415 4.28141,-1.51709 3.70752,-1.51709 c 0.05599,0.08398 0.09098,0.15397 0.10498,0.20996 0.014,0.05599 0.03499,0.11198 0.06299,0.16797 l 0.08398,0.167969 c 0,0.083984 -0.01399,0.185465 -0.04199,0.304443 C 3.88949,-0.54777 3.84749,-0.488281 3.7915,-0.488281 3.70752,-0.432292 3.61304,-0.425293 3.50806,-0.467285 3.40308,-0.509277 3.35059,-0.579264 3.35059,-0.677246 3.32259,-0.705241 3.2946,-0.747233 3.2666,-0.803223 L 3.05664,-1.22314 c -0.13997,0.13997 -0.22396,0.332434 -0.25195,0.577388 -0.028,0.244954 0,0.507406 0.08398,0.787354 C 2.97266,0.519531 3.16512,0.802979 3.46606,0.991943 3.76701,1.18091 4.06445,1.2334 4.3584,1.14941 m 6.7397,11.54789 -14.65523,4.0102 -0.20996,-1.6377 14.48729,-3.6533 0.3779,1.2808 M -7.4834,-1.30713 c 0.15397,0.22396 0.30095,0.538901 0.44092,0.944825 0.13997,0.3359378 0.27645,0.790853 0.40942,1.364745 0.13298,0.57389 0.24146,1.28076 0.32544,2.12061 0.028,0.48991 0.04199,1.20027 0.04199,2.1311 0,0.93083 -0.01399,1.91764 -0.04199,2.96045 -0.02799,1.04281 -0.05599,2.0506 -0.08398,3.0234 -0.028,0.9729 -0.05599,1.7602 -0.08399,2.3621 h -0.10498 l -2.18359,0.189 1.28076,-15.09623 m -1.53271,17.36373 0.20996,-1.8056 2.22558,-0.4619 h 0.10498 c -0.04199,0.1399 -0.06998,0.2589 -0.08398,0.3569 -0.014,0.098 -0.021,0.175 -0.021,0.231 v 0.2309 l -2.43554,1.4487 m 0.16797,-1.8056 0.08398,-0.4619 c 0,0.0839 -0.007,0.1609 -0.021,0.2309 -0.01399,0.07 -0.02099,0.147 -0.02099,0.231 h -0.04199"
         fill-rule="evenodd"
         vector-effect="none" />
    </g>
    <g
       id="g16"
       font-style="normal"
       font-weight="400"
       font-size="7.8px"
       font-family="'MS Shell Dlg 2'"
       stroke="none"
       fill-opacity="1"
       fill="#a61215" />
  </g>
</svg>
