<?xml version="1.0" encoding="UTF-8" standalone="no"?>
<svg width="11.2889mm" height="11.2889mm"
 viewBox="0 0 32 32"
 xmlns="http://www.w3.org/2000/svg" xmlns:xlink="http://www.w3.org/1999/xlink"  version="1.2" baseProfile="tiny">
<title>Qt SVG Document</title>
<desc>Generated with Qt</desc>
<defs>
</defs>
<g fill="none" stroke="black" stroke-width="1" fill-rule="evenodd" stroke-linecap="square" stroke-linejoin="bevel" >

<g fill="#a61215" fill-opacity="1" stroke="none" transform="matrix(1,0,0,1,0,0)"
font-family="MS Shell Dlg 2" font-size="7.8" font-weight="400" font-style="normal" 
>
<path vector-effect="non-scaling-stroke" fill-rule="evenodd" d="M37.2598,16 C37.2598,27.7415 27.7415,37.2598 16,37.2598 C4.25851,37.2598 -5.25984,27.7415 -5.25984,16 C-5.25984,4.25851 4.25851,-5.25984 16,-5.25984 C27.7415,-5.25984 37.2598,4.25851 37.2598,16 "/>
</g>

<g fill="#ffffff" fill-opacity="0.94902" stroke="none" transform="matrix(1,0,0,1,16,12.5984)"
font-family="MS Shell Dlg 2" font-size="7.8" font-weight="400" font-style="normal" 
>
<path vector-effect="none" fill-rule="evenodd" d="M10.6362,11.3325 L-3.87207,14.6919 L-5.48877,1.7793 C-5.72673,1.03743 -5.8877,0.30957 -5.97168,-0.404297 C-6.05566,-1.11816 -5.95768,-1.85303 -5.67773,-2.60889 C-5.57975,-2.69287 -5.50277,-2.79085 -5.44678,-2.90283 C-5.39079,-3.01481 -5.3068,-3.12679 -5.19482,-3.23877 C-5.57275,-3.64469 -5.8807,-4.09261 -6.11865,-4.58252 C-6.35661,-5.07243 -6.51058,-5.59033 -6.58057,-6.13623 C-6.66455,-7.21403 -6.24463,-8.03988 -5.3208,-8.61377 C-5.04085,-8.76774 -4.72241,-8.88672 -4.36548,-8.9707 C-4.00854,-9.05469 -3.61312,-9.06868 -3.1792,-9.0127 C-2.74528,-8.95671 -2.29036,-8.81323 -1.81445,-8.58228 C-1.33854,-8.35132 -0.86263,-8.01888 -0.386719,-7.58496 C0.0751953,-7.19303 0.505615,-6.75911 0.904541,-6.2832 C1.30347,-5.80729 1.6709,-5.33138 2.00684,-4.85547 C2.34277,-4.37956 2.62272,-3.92814 2.84668,-3.50122 C3.07064,-3.0743 3.2736,-2.68587 3.45557,-2.33594 L6.45801,-2.77686 L10.6362,11.3325 M-3.30518,-1.30713 C-3.36117,-1.4471 -3.44515,-1.58008 -3.55713,-1.70605 C-3.96305,-1.95801 -4.36898,-2.31494 -4.7749,-2.77686 C-4.88688,-2.5389 -4.97087,-2.39193 -5.02686,-2.33594 C-5.11084,-2.11198 -5.15983,-1.89852 -5.17383,-1.69556 C-5.18783,-1.49259 -5.19482,-1.27913 -5.19482,-1.05518 L-3.30518,-1.30713 M-3.13721,-2.20996 C-2.99723,-2.06999 -2.86076,-1.95801 -2.72778,-1.87402 C-2.59481,-1.79004 -2.48633,-1.67106 -2.40234,-1.51709 L-0.680664,-1.70605 C-1.08659,-2.33594 -1.52401,-2.78035 -1.99292,-3.03931 C-2.46183,-3.29826 -2.92725,-3.42773 -3.38916,-3.42773 C-3.7111,-3.42773 -3.95605,-3.33675 -4.12402,-3.15479 C-3.98405,-3.01481 -3.82658,-2.85734 -3.65161,-2.68237 C-3.47664,-2.50741 -3.30518,-2.34993 -3.13721,-2.20996 M-1.49951,2.13623 C-1.17757,2.13623 -0.911621,1.99276 -0.70166,1.70581 C-0.491699,1.41886 -0.414714,1.07243 -0.470703,0.666504 C-0.470703,0.288574 -0.586182,-0.0298665 -0.817139,-0.288818 C-1.0481,-0.54777 -1.30355,-0.642253 -1.5835,-0.572266 C-1.47152,-0.488281 -1.39453,-0.383301 -1.35254,-0.257324 C-1.31055,-0.131348 -1.26156,0.0016276 -1.20557,0.141602 C-1.10758,0.323568 -1.20557,0.47054 -1.49951,0.58252 L-1.5835,0.58252 C-1.63949,0.58252 -1.69548,0.561523 -1.75146,0.519531 C-1.80745,0.477539 -1.83545,0.414551 -1.83545,0.330566 C-1.89144,0.232585 -1.94393,0.134603 -1.99292,0.0366211 C-2.04191,-0.0613607 -2.1224,-0.180339 -2.23438,-0.320313 C-2.37435,-0.180339 -2.46533,-0.00887044 -2.50732,0.194092 C-2.54932,0.397054 -2.57031,0.58252 -2.57031,0.750488 C-2.57031,1.15641 -2.45483,1.48885 -2.22388,1.7478 C-1.99292,2.00675 -1.75146,2.13623 -1.49951,2.13623 M2.7207,-2.20996 C2.39876,-2.89583 1.94385,-3.68319 1.35596,-4.57202 C0.768066,-5.46086 0.0611979,-6.2972 -0.764648,-7.08105 C-1.63249,-7.82292 -2.44434,-8.22884 -3.2002,-8.29883 C-3.95605,-8.36882 -4.56494,-8.26383 -5.02686,-7.98389 C-5.71273,-7.57796 -6.01367,-7.00407 -5.92969,-6.26221 C-5.8737,-5.7723 -5.73022,-5.31038 -5.49927,-4.87646 C-5.26831,-4.44255 -4.99186,-4.04362 -4.66992,-3.67969 C-4.27799,-3.98763 -3.82308,-4.1416 -3.30518,-4.1416 C-2.75928,-4.1416 -2.17139,-3.97713 -1.5415,-3.64819 C-0.911621,-3.31925 -0.351725,-2.72786 0.138184,-1.87402 L2.7207,-2.20996 M4.3584,1.14941 C4.63835,1.07943 4.83431,0.879964 4.94629,0.551025 C5.05827,0.222087 5.04427,-0.124349 4.9043,-0.488281 C4.68034,-1.17415 4.28141,-1.51709 3.70752,-1.51709 C3.76351,-1.43311 3.7985,-1.36312 3.8125,-1.30713 C3.8265,-1.25114 3.84749,-1.19515 3.87549,-1.13916 L3.95947,-0.971191 C3.95947,-0.887207 3.94548,-0.785726 3.91748,-0.666748 C3.88949,-0.54777 3.84749,-0.488281 3.7915,-0.488281 C3.70752,-0.432292 3.61304,-0.425293 3.50806,-0.467285 C3.40308,-0.509277 3.35059,-0.579264 3.35059,-0.677246 C3.32259,-0.705241 3.2946,-0.747233 3.2666,-0.803223 L3.05664,-1.22314 C2.91667,-1.08317 2.83268,-0.890706 2.80469,-0.645752 C2.77669,-0.400798 2.80469,-0.138346 2.88867,0.141602 C2.97266,0.519531 3.16512,0.802979 3.46606,0.991943 C3.76701,1.18091 4.06445,1.2334 4.3584,1.14941 M11.0981,12.6973 L-3.55713,16.7075 L-3.76709,15.0698 L10.7202,11.4165 L11.0981,12.6973 M-7.4834,-1.30713 C-7.32943,-1.08317 -7.18245,-0.768229 -7.04248,-0.362305 C-6.90251,-0.0263672 -6.76603,0.428548 -6.63306,1.00244 C-6.50008,1.57633 -6.3916,2.2832 -6.30762,3.12305 C-6.27962,3.61296 -6.26563,4.32332 -6.26563,5.25415 C-6.26563,6.18498 -6.27962,7.17179 -6.30762,8.2146 C-6.33561,9.25741 -6.36361,10.2652 -6.3916,11.238 C-6.4196,12.2109 -6.44759,12.9982 -6.47559,13.6001 L-6.58057,13.6001 L-8.76416,13.7891 L-7.4834,-1.30713 M-9.01611,16.0566 L-8.80615,14.251 L-6.58057,13.7891 L-6.47559,13.7891 C-6.51758,13.929 -6.54557,14.048 -6.55957,14.146 C-6.57357,14.244 -6.58057,14.321 -6.58057,14.377 L-6.58057,14.6079 L-9.01611,16.0566 M-8.84814,14.251 L-8.76416,13.7891 C-8.76416,13.873 -8.77116,13.95 -8.78516,14.02 C-8.79915,14.09 -8.80615,14.167 -8.80615,14.251 L-8.84814,14.251"/>
</g>

<g fill="#a61215" fill-opacity="1" stroke="none" transform="matrix(1,0,0,1,0,0)"
font-family="MS Shell Dlg 2" font-size="7.8" font-weight="400" font-style="normal" 
>
</g>
</g>
</svg>
