<svg xmlns="http://www.w3.org/2000/svg" version="1.2" viewBox="0 0 42.52 42.52" height="56.693" width="56.693">
   <g stroke-linejoin="bevel" stroke-linecap="square" fill-rule="evenodd" stroke="none" fill="none" font-weight="400"
      font-size="7.8" font-family="'MS Shell Dlg 2'">
      <path
         d="M42.52 21.26C42.52 33 33 42.52 21.26 42.52 9.518 42.52 0 33 0 21.26 0 9.518 9.518 0 21.26 0 33 0 42.52 9.518 42.52 21.26"
         vector-effect="non-scaling-stroke" fill="#a61215" />
      <path
         d="M16.11 31.122c.463 0 .827.137 1.093.41.266.273.399.605.399.997 0 .462-.133.836-.4 1.123-.265.287-.63.43-1.091.43-.406 0-.753-.143-1.04-.43-.286-.287-.43-.661-.43-1.123 0-.392.144-.724.43-.997.287-.273.634-.41 1.04-.41m11.82 0c.407 0 .753.137 1.04.41.287.273.43.605.43.997 0 .462-.143.836-.43 1.123-.287.287-.633.43-1.04.43-.461 0-.829-.143-1.102-.43-.273-.287-.41-.661-.41-1.123 0-.392.137-.724.41-.997.273-.273.64-.41 1.103-.41m3.191-16.314c.392 0 .696.102.913.305.217.203.298.465.242.787a137.2 137.2 0 00-.41 3.822c-.105 1.147-.227 2.38-.367 3.695-.112.574-.36 1.004-.745 1.291-.385.287-.809.43-1.27.43h-5.502c-.266 0-.521.05-.766.147-.245.098-.504.214-.777.347a7.308 7.308 0 01-.84.346 2.742 2.742 0 01-.892.147c-.406 0-.917.014-1.533.042-.616.028-1.169.042-1.658.042-.308 0-.62.137-.935.41a6.338 6.338 0 00-.682.661 5.42 5.42 0 00-.546.787c-.126.231-.217.543-.273.935h15.474c.168 0 .298.08.389.241a.991.991 0 01.136.494.991.991 0 01-.136.493c-.091.161-.221.242-.389.242H13.57c-.112-.77-.098-1.414.042-1.932s.4-1.022.777-1.512c.084-.084.207-.22.368-.41.16-.188.269-.325.325-.409 0-.14-.06-.353-.178-.64a6.938 6.938 0 01-.263-.724c-.462-1.386-.913-2.73-1.354-4.032a376.31 376.31 0 00-1.354-3.926c-.308-.952-.672-1.641-1.092-2.068-.42-.427-.784-.64-1.092-.64H8.195c-.35 0-.623-.102-.819-.305a1.261 1.261 0 01-.356-.65.86.86 0 01.125-.641c.126-.196.364-.294.714-.294h1.89c.602 0 1.11.13 1.522.388.413.26.77.553 1.071.882.301.33.546.62.735.872.189.251.325.377.41.377h17.636m-12.87 4.263L18 16.719h-4.01l.82 2.352h3.442m.567 4.052l-.294-2.163h-3.15l.736 2.163h2.708m5.165-2.163h-3.527l.252 2.163h3.275V20.96m0-4.24H19.89l.252 2.35h3.842v-2.35m5.585 4.24h-3.695v2.163h3.527l.168-2.163m.378-4.24h-4.073v2.35h3.905l.168-2.35"
         fill-opacity=".949" fill="#fff" />
   </g>
</svg>