<?xml version="1.0" encoding="UTF-8" standalone="no"?>
<svg width="11.2889mm" height="11.2889mm"
 viewBox="0 0 32 32"
 xmlns="http://www.w3.org/2000/svg" xmlns:xlink="http://www.w3.org/1999/xlink"  version="1.2" baseProfile="tiny">
<title>Qt SVG Document</title>
<desc>Generated with Qt</desc>
<defs>
</defs>
<g fill="none" stroke="black" stroke-width="1" fill-rule="evenodd" stroke-linecap="square" stroke-linejoin="bevel" >

<g fill="#a61215" fill-opacity="1" stroke="none" transform="matrix(1,0,0,1,0,0)"
font-family="MS Shell Dlg 2" font-size="7.8" font-weight="400" font-style="normal" 
>
<path vector-effect="non-scaling-stroke" fill-rule="evenodd" d="M37.2598,16 C37.2598,27.7415 27.7415,37.2598 16,37.2598 C4.25851,37.2598 -5.25984,27.7415 -5.25984,16 C-5.25984,4.25851 4.25851,-5.25984 16,-5.25984 C27.7415,-5.25984 37.2598,4.25851 37.2598,16 "/>
</g>

<g fill="#ffffff" fill-opacity="0.94902" stroke="none" transform="matrix(1,0,0,1,16,11.4646)"
font-family="MS Shell Dlg 2" font-size="7.8" font-weight="400" font-style="normal" 
>
<path vector-effect="none" fill-rule="evenodd" d="M12.4839,3.94189 C12.7078,4.24984 12.7778,4.55078 12.6938,4.84473 L10.4893,15.7207 C10.4333,15.9447 10.3143,16.1371 10.1323,16.2981 C9.95036,16.4591 9.7404,16.5396 9.50244,16.5396 L-9.45703,16.5396 C-9.68099,16.5396 -9.88745,16.4591 -10.0764,16.2981 C-10.2654,16.1371 -10.3879,15.9447 -10.4438,15.7207 L-12.6274,4.84473 C-12.7254,4.55078 -12.6554,4.24984 -12.4175,3.94189 C-12.2775,3.84391 -12.141,3.75993 -12.0081,3.68994 C-11.8751,3.61995 -11.7386,3.58496 -11.5986,3.58496 L-8.5542,3.58496 C-8.47021,4.04688 -8.25675,4.4353 -7.91382,4.75024 C-7.57088,5.06519 -7.15446,5.22266 -6.66455,5.22266 C-6.17464,5.22266 -5.75122,5.06519 -5.39429,4.75024 C-5.03735,4.4353 -4.81689,4.04688 -4.73291,3.58496 L5.03027,3.58496 C5.15625,4.04688 5.39071,4.4353 5.73364,4.75024 C6.07658,5.06519 6.493,5.22266 6.98291,5.22266 C7.43083,5.22266 7.83325,5.06519 8.19019,4.75024 C8.54712,4.4353 8.77458,4.04688 8.87256,3.58496 L11.665,3.58496 C11.861,3.58496 12.0255,3.61995 12.1584,3.68994 C12.2914,3.75993 12.3999,3.84391 12.4839,3.94189 M-4.37598,9.00195 L-4.62793,5.66357 L-10.3599,5.66357 L-9.625,9.12793 C-9.625,9.04395 -9.611,9.00195 -9.58301,9.00195 L-9.54102,9.00195 L-4.37598,9.00195 M-4.08203,14.4609 L-4.29199,11.1226 L-9.28906,11.1226 L-8.5542,14.4609 L-4.08203,14.4609 M2.23779,11.1226 L-2.19238,11.1226 L-2.02441,14.4609 L2.06982,14.4609 L2.23779,11.1226 M2.63672,5.66357 L-2.57031,5.66357 L-2.36035,9.00195 L2.40576,9.00195 L2.63672,5.66357 M9.33447,11.1226 L4.3584,11.1226 L4.12744,14.4609 L8.68359,14.4609 L9.33447,11.1226 M10.4053,5.66357 L4.69434,5.66357 L4.52637,9.00195 L9.77539,9.00195 L10.4053,5.66357 M-6.66455,4.06787 C-6.97249,4.06787 -7.24194,3.94539 -7.4729,3.70044 C-7.70386,3.45549 -7.81934,3.17204 -7.81934,2.8501 C-7.81934,2.57015 -7.73185,2.32869 -7.55688,2.12573 C-7.38192,1.92277 -7.16846,1.7793 -6.9165,1.69531 L-1.75146,-6.64014 C-1.83545,-6.72412 -1.90194,-6.8326 -1.95093,-6.96558 C-1.99992,-7.09855 -2.02441,-7.20703 -2.02441,-7.29102 C-2.02441,-7.66895 -1.90894,-7.97689 -1.67798,-8.21484 C-1.44702,-8.4528 -1.17057,-8.57178 -0.848633,-8.57178 C-0.624674,-8.57178 -0.425212,-8.50879 -0.250244,-8.38281 C-0.0752767,-8.25684 0.0681966,-8.10986 0.180176,-7.94189 C0.26416,-8.10986 0.393636,-8.25684 0.568604,-8.38281 C0.743571,-8.50879 0.943034,-8.57178 1.16699,-8.57178 C1.54492,-8.57178 1.83187,-8.4528 2.02783,-8.21484 C2.2238,-7.97689 2.32178,-7.66895 2.32178,-7.29102 C2.32178,-7.15104 2.30778,-7.02856 2.27979,-6.92358 C2.25179,-6.8186 2.2098,-6.69613 2.15381,-6.55615 L7.15088,1.69531 C7.43083,1.7793 7.66528,1.92277 7.85425,2.12573 C8.04321,2.32869 8.1377,2.57015 8.1377,2.8501 C8.1377,3.17204 8.02222,3.45549 7.79126,3.70044 C7.5603,3.94539 7.29085,4.06787 6.98291,4.06787 C6.60498,4.06787 6.30754,3.94539 6.09058,3.70044 C5.87362,3.45549 5.76514,3.17204 5.76514,2.8501 L5.76514,2.59814 L0.180176,-6.72412 L-5.53076,2.59814 C-5.47477,2.65413 -5.44678,2.73812 -5.44678,2.8501 C-5.44678,3.17204 -5.56925,3.45549 -5.81421,3.70044 C-6.05916,3.94539 -6.34261,4.06787 -6.66455,4.06787 "/>
</g>

<g fill="#a61215" fill-opacity="1" stroke="none" transform="matrix(1,0,0,1,0,0)"
font-family="MS Shell Dlg 2" font-size="7.8" font-weight="400" font-style="normal" 
>
</g>
</g>
</svg>
