<?xml version="1.0" encoding="UTF-8" standalone="no"?>
<svg
   xmlns:dc="http://purl.org/dc/elements/1.1/"
   xmlns:cc="http://creativecommons.org/ns#"
   xmlns:rdf="http://www.w3.org/1999/02/22-rdf-syntax-ns#"
   xmlns:svg="http://www.w3.org/2000/svg"
   xmlns="http://www.w3.org/2000/svg"
   xmlns:sodipodi="http://sodipodi.sourceforge.net/DTD/sodipodi-0.dtd"
   xmlns:inkscape="http://www.inkscape.org/namespaces/inkscape"
   inkscape:version="1.0 (4035a4fb49, 2020-05-01)"
   sodipodi:docname="2104.svg"
   id="svg20"
   version="1.2"
   viewBox="0 0 42.519639 42.519639"
   height="14.999999mm"
   width="14.999999mm">
  <metadata
     id="metadata24">
    <rdf:RDF>
      <cc:Work
         rdf:about="">
        <dc:format>image/svg+xml</dc:format>
        <dc:type
           rdf:resource="http://purl.org/dc/dcmitype/StillImage" />
        <dc:title>Qt SVG Document</dc:title>
      </cc:Work>
    </rdf:RDF>
  </metadata>
  <sodipodi:namedview
     inkscape:current-layer="svg20"
     inkscape:window-maximized="0"
     inkscape:window-y="0"
     inkscape:window-x="0"
     inkscape:cy="28.346482"
     inkscape:cx="28.346482"
     inkscape:zoom="5.8410537"
     showgrid="false"
     id="namedview22"
     inkscape:window-height="480"
     inkscape:window-width="1034"
     inkscape:pageshadow="2"
     inkscape:pageopacity="0"
     guidetolerance="10"
     gridtolerance="10"
     objecttolerance="10"
     borderopacity="1"
     bordercolor="#666666"
     pagecolor="#ffffff" />
  <title
     id="title2">Qt SVG Document</title>
  <desc
     id="desc4">Generated with Qt</desc>
  <defs
     id="defs6" />
  <g
     transform="translate(5.25984,5.25984)"
     id="g18"
     stroke-linejoin="bevel"
     stroke-linecap="square"
     fill-rule="evenodd"
     stroke-width="1"
     stroke="#000000"
     fill="none">
    <g
       id="g10"
       font-style="normal"
       font-weight="400"
       font-size="7.8px"
       font-family="'MS Shell Dlg 2'"
       stroke="none"
       fill-opacity="1"
       fill="#a61215">
      <path
         id="path8"
         d="M 37.2598,16 C 37.2598,27.7415 27.7415,37.2598 16,37.2598 4.25851,37.2598 -5.25984,27.7415 -5.25984,16 -5.25984,4.25851 4.25851,-5.25984 16,-5.25984 27.7415,-5.25984 37.2598,4.25851 37.2598,16"
         fill-rule="evenodd"
         vector-effect="non-scaling-stroke" />
    </g>
    <g
       id="g14"
       font-style="normal"
       font-weight="400"
       font-size="7.8px"
       font-family="'MS Shell Dlg 2'"
       transform="translate(16,11.4646)"
       stroke="none"
       fill-opacity="0.94902"
       fill="#ffffff">
      <path
         id="path12"
         d="m 12.4839,3.94189 c 0.2239,0.30795 0.2939,0.60889 0.2099,0.90284 L 10.4893,15.7207 c -0.056,0.224 -0.175,0.4164 -0.357,0.5774 -0.18194,0.161 -0.3919,0.2415 -0.62986,0.2415 H -9.45703 c -0.22396,0 -0.43042,-0.0805 -0.61937,-0.2415 -0.189,-0.161 -0.3115,-0.3534 -0.3674,-0.5774 L -12.6274,4.84473 c -0.098,-0.29395 -0.028,-0.59489 0.2099,-0.90284 0.14,-0.09798 0.2765,-0.18196 0.4094,-0.25195 0.133,-0.06999 0.2695,-0.10498 0.4095,-0.10498 h 3.0444 c 0.08399,0.46192 0.29745,0.85034 0.64038,1.16528 0.34294,0.31495 0.75936,0.47242 1.24927,0.47242 0.48991,0 0.91333,-0.15747 1.27026,-0.47242 0.35694,-0.31494 0.5774,-0.70336 0.66138,-1.16528 H 5.03027 C 5.15625,4.04688 5.39071,4.4353 5.73364,4.75024 6.07658,5.06519 6.493,5.22266 6.98291,5.22266 7.43083,5.22266 7.83325,5.06519 8.19019,4.75024 8.54712,4.4353 8.77458,4.04688 8.87256,3.58496 H 11.665 c 0.196,0 0.3605,0.03499 0.4934,0.10498 0.133,0.06999 0.2415,0.15397 0.3255,0.25195 M -4.37598,9.00195 -4.62793,5.66357 h -5.73197 l 0.7349,3.46436 c 0,-0.08398 0.014,-0.12598 0.04199,-0.12598 h 0.04199 5.16504 m 0.29395,5.45895 -0.20996,-3.3383 h -4.99707 l 0.73486,3.3383 h 4.47217 m 6.31982,-3.3383 h -4.43017 l 0.16797,3.3383 H 2.06982 L 2.23779,11.1226 M 2.63672,5.66357 h -5.20703 l 0.20996,3.33838 H 2.40576 L 2.63672,5.66357 M 9.33447,11.1226 H 4.3584 L 4.12744,14.4609 H 8.68359 L 9.33447,11.1226 M 10.4053,5.66357 H 4.69434 L 4.52637,9.00195 H 9.77539 L 10.4053,5.66357 M -6.66455,4.06787 c -0.30794,0 -0.57739,-0.12248 -0.80835,-0.36743 -0.23096,-0.24495 -0.34644,-0.5284 -0.34644,-0.85034 0,-0.27995 0.08749,-0.52141 0.26246,-0.72437 0.17496,-0.20296 0.38842,-0.34643 0.64038,-0.43042 l 5.16504,-8.33545 c -0.08399,-0.08398 -0.15048,-0.19246 -0.19947,-0.32544 -0.04899,-0.13297 -0.07348,-0.24145 -0.07348,-0.32544 0,-0.37793 0.11547,-0.68587 0.34643,-0.92382 0.23096,-0.23796 0.50741,-0.35694 0.829347,-0.35694 0.223959,0 0.423421,0.06299 0.598389,0.18897 0.1749673,0.12597 0.3184406,0.27295 0.43042,0.44092 0.083984,-0.16797 0.21346,-0.31495 0.388428,-0.44092 0.174967,-0.12598 0.37443,-0.18897 0.598386,-0.18897 0.37793,0 0.66488,0.11898 0.86084,0.35694 0.19597,0.23795 0.29395,0.54589 0.29395,0.92382 0,0.13998 -0.014,0.26246 -0.04199,0.36744 -0.028,0.10498 -0.06999,0.22745 -0.12598,0.36743 L 7.15088,1.69531 C 7.43083,1.7793 7.66528,1.92277 7.85425,2.12573 8.04321,2.32869 8.1377,2.57015 8.1377,2.8501 8.1377,3.17204 8.02222,3.45549 7.79126,3.70044 7.5603,3.94539 7.29085,4.06787 6.98291,4.06787 6.60498,4.06787 6.30754,3.94539 6.09058,3.70044 5.87362,3.45549 5.76514,3.17204 5.76514,2.8501 V 2.59814 L 0.180176,-6.72412 -5.53076,2.59814 c 0.05599,0.05599 0.08398,0.13998 0.08398,0.25196 0,0.32194 -0.12247,0.60539 -0.36743,0.85034 -0.24495,0.24495 -0.5284,0.36743 -0.85034,0.36743"
         fill-rule="evenodd"
         vector-effect="none" />
    </g>
    <g
       id="g16"
       font-style="normal"
       font-weight="400"
       font-size="7.8px"
       font-family="'MS Shell Dlg 2'"
       stroke="none"
       fill-opacity="1"
       fill="#a61215" />
  </g>
</svg>
