<?xml version="1.0" encoding="UTF-8" standalone="no"?>
<svg width="11.25008mm" height="11.25008mm"
 viewBox="-5.3 -5.3 42.52000 42.52000"
 xmlns="http://www.w3.org/2000/svg" xmlns:xlink="http://www.w3.org/1999/xlink"  version="1.2" baseProfile="tiny">
<title>Qt SVG Document</title>
<desc>Generated with Qt</desc>
<defs>
</defs>
<g fill="none" stroke="black" stroke-width="1" fill-rule="evenodd" stroke-linecap="square" stroke-linejoin="bevel" >

<g fill="#a61215" fill-opacity="1" stroke="none" transform="matrix(1,0,0,1,0,0)"
font-family="MS Shell Dlg 2" font-size="7.8" font-weight="400" font-style="normal" 
>
<path vector-effect="non-scaling-stroke" fill-rule="evenodd" d="M37.2598,16 C37.2598,27.7415 27.7415,37.2598 16,37.2598 C4.25851,37.2598 -5.25984,27.7415 -5.25984,16 C-5.25984,4.25851 4.25851,-5.25984 16,-5.25984 C27.7415,-5.25984 37.2598,4.25851 37.2598,16 "/>
</g>

<g fill="#ffffff" fill-opacity="0.94902" stroke="none" transform="matrix(1,0,0,1,16,12.0315)"
font-family="MS Shell Dlg 2" font-size="7.8" font-weight="400" font-style="normal" 
>
<path vector-effect="none" fill-rule="evenodd" d="M-5.76172,4.69775 C-5.81771,3.73193 -5.93669,2.89909 -6.11865,2.19922 C-6.30062,1.49935 -6.52108,0.911458 -6.78003,0.435547 C-7.03898,-0.0403646 -7.30493,-0.414795 -7.57788,-0.687744 C-7.85083,-0.960693 -8.12028,-1.16715 -8.38623,-1.30713 C-8.5262,-1.41911 -8.68717,-1.52059 -8.86914,-1.61157 C-9.05111,-1.70256 -9.26107,-1.80404 -9.49902,-1.91602 C-8.21126,-3.11979 -6.74854,-4.05762 -5.11084,-4.72949 C-3.47314,-5.40137 -1.73747,-5.7373 0.0961914,-5.7373 C1.87386,-5.7373 3.57804,-5.40137 5.20874,-4.72949 C6.83944,-4.05762 8.28467,-3.11979 9.54443,-1.91602 C9.34847,-1.80404 9.14901,-1.70256 8.94604,-1.61157 C8.74308,-1.52059 8.57161,-1.41911 8.43164,-1.30713 C8.17969,-1.16715 7.91724,-0.960693 7.64429,-0.687744 C7.37134,-0.414795 7.10539,-0.0403646 6.84644,0.435547 C6.58748,0.911458 6.36353,1.49935 6.17456,2.19922 C5.9856,2.89909 5.86312,3.73193 5.80713,4.69775 L-5.76172,4.69775 M11.1821,-0.677246 C11.966,-0.677246 12.6274,-0.467285 13.1663,-0.0473633 C13.7052,0.372559 13.9746,0.841471 13.9746,1.35938 C13.9746,1.84928 13.7821,2.27271 13.3972,2.62964 C13.0123,2.98657 12.5049,3.23503 11.875,3.375 C11.5951,4.20085 11.4446,5.16667 11.4236,6.27246 C11.4026,7.37826 11.4026,8.42456 11.4236,9.41138 C11.4446,10.3982 11.4096,11.252 11.3186,11.9729 C11.2276,12.6938 10.9722,13.0822 10.5522,13.1382 L9.77539,13.1382 C9.53743,13.4461 9.25049,13.6491 8.91455,13.7471 L8.91455,14.6919 L6.5,14.6919 L6.5,13.7471 L-6.43359,13.7471 L-6.43359,14.6919 L-8.84814,14.6919 L-8.84814,13.7471 C-9.19808,13.6491 -9.48503,13.4461 -9.70898,13.1382 L-10.4858,13.1382 C-10.8918,13.0822 -11.1297,12.6938 -11.1997,11.9729 C-11.2697,11.252 -11.2977,10.3982 -11.2837,9.41138 C-11.2697,8.42456 -11.2767,7.37826 -11.3047,6.27246 C-11.3327,5.16667 -11.5007,4.20085 -11.8086,3.375 C-12.3825,3.23503 -12.8794,2.98657 -13.2993,2.62964 C-13.7192,2.27271 -13.9292,1.84928 -13.9292,1.35938 C-13.9292,0.841471 -13.6563,0.372559 -13.1104,-0.0473633 C-12.5645,-0.467285 -11.8786,-0.677246 -11.0527,-0.677246 C-10.2689,-0.677246 -9.632,-0.474284 -9.14209,-0.0683594 C-8.66618,0.225586 -8.22526,0.809977 -7.81934,1.68481 C-7.41341,2.55965 -7.21045,3.8859 -7.21045,5.66357 C-7.64437,5.91553 -7.9908,6.27246 -8.24976,6.73438 C-8.50871,7.19629 -8.63818,7.70719 -8.63818,8.26709 C-8.63818,9.13493 -8.34424,9.87679 -7.75635,10.4927 C-7.16846,11.1086 -6.44059,11.4165 -5.57275,11.4165 L5.72314,11.4165 C6.56299,11.4165 7.26636,11.1086 7.83325,10.4927 C8.40015,9.87679 8.68359,9.13493 8.68359,8.26709 C8.68359,7.70719 8.55762,7.19629 8.30566,6.73438 C8.05371,6.27246 7.71077,5.91553 7.27686,5.66357 C7.27686,3.8859 7.48332,2.55965 7.89624,1.68481 C8.30916,0.809977 8.73258,0.225586 9.1665,-0.0683594 C9.7124,-0.474284 10.3843,-0.677246 11.1821,-0.677246 M5.72314,6.0415 C6.29704,6.0415 6.79045,6.25496 7.20337,6.68188 C7.61629,7.10881 7.82275,7.63721 7.82275,8.26709 C7.82275,8.91097 7.61629,9.45337 7.20337,9.89429 C6.79045,10.3352 6.29704,10.5557 5.72314,10.5557 L-5.57275,10.5557 C-6.21663,10.5557 -6.74504,10.3352 -7.15796,9.89429 C-7.57088,9.45337 -7.77734,8.91097 -7.77734,8.26709 C-7.77734,7.63721 -7.57088,7.10881 -7.15796,6.68188 C-6.74504,6.25496 -6.21663,6.0415 -5.57275,6.0415 L5.72314,6.0415"/>
</g>

<g fill="#a61215" fill-opacity="1" stroke="none" transform="matrix(1,0,0,1,0,0)"
font-family="MS Shell Dlg 2" font-size="7.8" font-weight="400" font-style="normal" 
>
</g>
</g>
</svg>
