<?xml version="1.0" encoding="UTF-8" standalone="no"?>
<svg
   xmlns:dc="http://purl.org/dc/elements/1.1/"
   xmlns:cc="http://creativecommons.org/ns#"
   xmlns:rdf="http://www.w3.org/1999/02/22-rdf-syntax-ns#"
   xmlns:svg="http://www.w3.org/2000/svg"
   xmlns="http://www.w3.org/2000/svg"
   xmlns:sodipodi="http://sodipodi.sourceforge.net/DTD/sodipodi-0.dtd"
   xmlns:inkscape="http://www.inkscape.org/namespaces/inkscape"
   inkscape:version="1.0 (4035a4fb49, 2020-05-01)"
   sodipodi:docname="2105.svg"
   id="svg20"
   version="1.2"
   viewBox="0 0 42.519639 42.519639"
   height="14.999999mm"
   width="14.999999mm">
  <metadata
     id="metadata24">
    <rdf:RDF>
      <cc:Work
         rdf:about="">
        <dc:format>image/svg+xml</dc:format>
        <dc:type
           rdf:resource="http://purl.org/dc/dcmitype/StillImage" />
        <dc:title>Qt SVG Document</dc:title>
      </cc:Work>
    </rdf:RDF>
  </metadata>
  <sodipodi:namedview
     inkscape:current-layer="svg20"
     inkscape:window-maximized="0"
     inkscape:window-y="0"
     inkscape:window-x="0"
     inkscape:cy="28.346482"
     inkscape:cx="28.346482"
     inkscape:zoom="5.8410537"
     showgrid="false"
     id="namedview22"
     inkscape:window-height="480"
     inkscape:window-width="1034"
     inkscape:pageshadow="2"
     inkscape:pageopacity="0"
     guidetolerance="10"
     gridtolerance="10"
     objecttolerance="10"
     borderopacity="1"
     bordercolor="#666666"
     pagecolor="#ffffff" />
  <title
     id="title2">Qt SVG Document</title>
  <desc
     id="desc4">Generated with Qt</desc>
  <defs
     id="defs6" />
  <g
     transform="translate(5.25984,5.25984)"
     id="g18"
     stroke-linejoin="bevel"
     stroke-linecap="square"
     fill-rule="evenodd"
     stroke-width="1"
     stroke="#000000"
     fill="none">
    <g
       id="g10"
       font-style="normal"
       font-weight="400"
       font-size="7.8px"
       font-family="'MS Shell Dlg 2'"
       stroke="none"
       fill-opacity="1"
       fill="#a61215">
      <path
         id="path8"
         d="M 37.2598,16 C 37.2598,27.7415 27.7415,37.2598 16,37.2598 4.25851,37.2598 -5.25984,27.7415 -5.25984,16 -5.25984,4.25851 4.25851,-5.25984 16,-5.25984 27.7415,-5.25984 37.2598,4.25851 37.2598,16"
         fill-rule="evenodd"
         vector-effect="non-scaling-stroke" />
    </g>
    <g
       id="g14"
       font-style="normal"
       font-weight="400"
       font-size="7.8px"
       font-family="'MS Shell Dlg 2'"
       transform="translate(16,12.0315)"
       stroke="none"
       fill-opacity="0.94902"
       fill="#ffffff">
      <path
         id="path12"
         d="M -5.76172,4.69775 C -5.81771,3.73193 -5.93669,2.89909 -6.11865,2.19922 -6.30062,1.49935 -6.52108,0.911458 -6.78003,0.435547 -7.03898,-0.0403646 -7.30493,-0.414795 -7.57788,-0.687744 -7.85083,-0.960693 -8.12028,-1.16715 -8.38623,-1.30713 -8.5262,-1.41911 -8.68717,-1.52059 -8.86914,-1.61157 c -0.18197,-0.09099 -0.39193,-0.19247 -0.62988,-0.30445 1.28776,-1.20377 2.75048,-2.1416 4.38818,-2.81347 1.6377,-0.67188 3.37337,-1.00781 5.2070314,-1.00781 1.7776686,0 3.4818486,0.33593 5.1125486,1.00781 1.6307,0.67187 3.07593,1.6097 4.33569,2.81347 -0.19596,0.11198 -0.39542,0.21346 -0.59839,0.30445 -0.20296,0.09098 -0.37443,0.19246 -0.5144,0.30444 -0.25195,0.13998 -0.5144,0.346437 -0.78735,0.619386 C 7.37134,-0.414795 7.10539,-0.0403646 6.84644,0.435547 6.58748,0.911458 6.36353,1.49935 6.17456,2.19922 5.9856,2.89909 5.86312,3.73193 5.80713,4.69775 H -5.76172 M 11.1821,-0.677246 c 0.7839,0 1.4453,0.209961 1.9842,0.6298827 0.5389,0.4199223 0.8083,0.8888343 0.8083,1.4067433 0,0.4899 -0.1925,0.91333 -0.5774,1.27026 -0.3849,0.35693 -0.8923,0.60539 -1.5222,0.74536 -0.2799,0.82585 -0.4304,1.79167 -0.4514,2.89746 -0.021,1.1058 -0.021,2.1521 0,3.13892 0.021,0.98682 -0.014,1.84062 -0.105,2.56152 -0.091,0.7209 -0.3464,1.1093 -0.7664,1.1653 H 9.77539 c -0.23796,0.3079 -0.5249,0.5109 -0.86084,0.6089 v 0.9448 H 6.5 V 13.7471 H -6.43359 v 0.9448 h -2.41455 v -0.9448 c -0.34994,-0.098 -0.63689,-0.301 -0.86084,-0.6089 h -0.77682 c -0.406,-0.056 -0.6439,-0.4444 -0.7139,-1.1653 -0.07,-0.7209 -0.098,-1.5747 -0.084,-2.56152 0.014,-0.98682 0.007,-2.03312 -0.021,-3.13892 -0.028,-1.10579 -0.196,-2.07161 -0.5039,-2.89746 -0.5739,-0.13997 -1.0708,-0.38843 -1.4907,-0.74536 -0.4199,-0.35693 -0.6299,-0.78036 -0.6299,-1.27026 0,-0.517909 0.2729,-0.986821 0.8188,-1.4067433 0.5459,-0.4199217 1.2318,-0.6298827 2.0577,-0.6298827 0.7838,0 1.4207,0.202962 1.91061,0.6088866 0.47591,0.2939454 0.91683,0.8783364 1.32275,1.7531694 0.40593,0.87484 0.60889,2.20109 0.60889,3.97876 -0.43392,0.25196 -0.78035,0.60889 -1.03931,1.07081 -0.25895,0.46191 -0.38842,0.97281 -0.38842,1.53271 0,0.86784 0.29394,1.6097 0.88183,2.22561 0.58789,0.6159 1.31576,0.9238 2.1836,0.9238 H 5.72314 c 0.83985,0 1.54322,-0.3079 2.11011,-0.9238 0.5669,-0.61591 0.85034,-1.35777 0.85034,-2.22561 0,-0.5599 -0.12597,-1.0708 -0.37793,-1.53271 C 8.05371,6.27246 7.71077,5.91553 7.27686,5.66357 7.27686,3.8859 7.48332,2.55965 7.89624,1.68481 8.30916,0.809977 8.73258,0.225586 9.1665,-0.0683594 9.7124,-0.474284 10.3843,-0.677246 11.1821,-0.677246 M 5.72314,6.0415 c 0.5739,0 1.06731,0.21346 1.48023,0.64038 0.41292,0.42693 0.61938,0.95533 0.61938,1.58521 0,0.64388 -0.20646,1.18628 -0.61938,1.6272 C 6.79045,10.3352 6.29704,10.5557 5.72314,10.5557 H -5.57275 c -0.64388,0 -1.17229,-0.2205 -1.58521,-0.66141 -0.41292,-0.44092 -0.61938,-0.98332 -0.61938,-1.6272 0,-0.62988 0.20646,-1.15828 0.61938,-1.58521 C -6.74504,6.25496 -6.21663,6.0415 -5.57275,6.0415 H 5.72314"
         fill-rule="evenodd"
         vector-effect="none" />
    </g>
    <g
       id="g16"
       font-style="normal"
       font-weight="400"
       font-size="7.8px"
       font-family="'MS Shell Dlg 2'"
       stroke="none"
       fill-opacity="1"
       fill="#a61215" />
  </g>
</svg>
