<svg xmlns="http://www.w3.org/2000/svg" version="1.2" viewBox="0 0 42.52 42.52" height="56.693" width="56.693">
   <g stroke-linejoin="bevel" stroke-linecap="square" fill-rule="evenodd" stroke="none" fill="none" font-weight="400"
      font-size="7.8" font-family="'MS Shell Dlg 2'">
      <path
         d="M42.52 21.26C42.52 33 33 42.52 21.26 42.52 9.518 42.52 0 33 0 21.26 0 9.518 9.518 0 21.26 0 33 0 42.52 9.518 42.52 21.26"
         vector-effect="non-scaling-stroke" fill="#a61215" />
      <path
         d="M15.498 21.99c-.056-.967-.175-1.8-.357-2.5s-.402-1.287-.661-1.763c-.26-.476-.525-.85-.798-1.123a3.418 3.418 0 00-.808-.62 2.71 2.71 0 00-.483-.304 29.743 29.743 0 00-.63-.305 14.346 14.346 0 014.388-2.813 13.584 13.584 0 015.207-1.008c1.778 0 3.482.336 5.113 1.008a13.86 13.86 0 014.335 2.813 6.87 6.87 0 01-.598.305 2.377 2.377 0 00-.515.304c-.251.14-.514.347-.787.62s-.539.647-.798 1.123-.483 1.064-.672 1.764c-.189.7-.311 1.532-.367 2.498H15.498m16.944-5.375c.784 0 1.445.21 1.984.63.539.42.808.889.808 1.407 0 .49-.192.913-.577 1.27-.385.357-.892.605-1.522.745-.28.826-.43 1.792-.452 2.898a78.142 78.142 0 000 3.139c.021.987-.014 1.84-.105 2.561-.09.721-.346 1.11-.766 1.166h-.777c-.238.307-.525.51-.86.608v.945H27.76v-.945H14.826v.945h-2.414v-.945a1.564 1.564 0 01-.861-.608h-.777c-.406-.056-.644-.445-.714-1.166-.07-.72-.098-1.574-.084-2.561.014-.987.007-2.033-.02-3.14-.029-1.105-.197-2.07-.505-2.897a3.57 3.57 0 01-1.49-.745c-.42-.357-.63-.78-.63-1.27 0-.518.273-.987.818-1.407.546-.42 1.232-.63 2.058-.63.784 0 1.42.203 1.91.609.477.294.918.878 1.324 1.753.405.875.608 2.201.608 3.979-.434.252-.78.609-1.039 1.07a3.08 3.08 0 00-.388 1.533c0 .868.294 1.61.881 2.226.588.616 1.316.924 2.184.924h11.296c.84 0 1.543-.308 2.11-.924.567-.616.85-1.358.85-2.226 0-.56-.126-1.07-.377-1.532a2.708 2.708 0 00-1.03-1.071c0-1.778.207-3.104.62-3.979.413-.875.836-1.46 1.27-1.753.546-.406 1.218-.609 2.016-.609m-5.459 6.719c.574 0 1.067.213 1.48.64.413.427.62.956.62 1.585 0 .644-.207 1.187-.62 1.628-.413.44-.906.661-1.48.661H15.687c-.644 0-1.172-.22-1.585-.661-.413-.441-.62-.984-.62-1.628 0-.63.207-1.158.62-1.585.413-.427.941-.64 1.585-.64h11.296"
         fill-opacity=".949" fill="#fff" />
   </g>
</svg>