<svg xmlns="http://www.w3.org/2000/svg" version="1.2" viewBox="0 0 42.52 42.52" height="56.693" width="56.693">
   <g stroke-linejoin="bevel" stroke-linecap="square" fill-rule="evenodd" stroke="none" fill="none" font-weight="400"
      font-size="7.8" font-family="'MS Shell Dlg 2'">
      <path
         d="M42.52 21.26C42.52 33 33 42.52 21.26 42.52 9.518 42.52 0 33 0 21.26 0 9.518 9.518 0 21.26 0 33 0 42.52 9.518 42.52 21.26"
         vector-effect="non-scaling-stroke" fill="#a61215" />
      <path
         d="M31.287 16.929c.378 0 .686.123.924.367.238.245.357.529.357.85v5.964h-9.973v-7.181h8.692m-21.206 1.218c0-.322.123-.606.368-.85.245-.245.556-.368.934-.368h8.776v7.18H10.081v-5.962m12.514 7.768h9.973v6.236c0 .406-.12.732-.357.977-.238.244-.546.367-.924.367h-8.692v-7.58m-12.514 0H20.16v7.58h-8.776c-.378 0-.69-.123-.934-.367-.245-.245-.368-.57-.368-.977v-6.236m18.015-10.477h-6.047l6.047-4.577v4.577m-13.543-4.577l6.068 4.577h-6.068v-4.577m5.69 3.36l-3.926-4.116 1.89-.735 2.036 4.85m6.09-4.115l-3.948 4.116 2.057-4.85 1.89.734"
         fill-opacity=".949" fill="#fff" />
   </g>
</svg>