<?xml version="1.0" encoding="UTF-8" standalone="no"?>
<svg width="11.2889mm" height="11.2889mm"
 viewBox="0 0 32 32"
 xmlns="http://www.w3.org/2000/svg" xmlns:xlink="http://www.w3.org/1999/xlink"  version="1.2" baseProfile="tiny">
<title>Qt SVG Document</title>
<desc>Generated with Qt</desc>
<defs>
</defs>
<g fill="none" stroke="black" stroke-width="1" fill-rule="evenodd" stroke-linecap="square" stroke-linejoin="bevel" >

<g fill="#a61215" fill-opacity="1" stroke="none" transform="matrix(1,0,0,1,0,0)"
font-family="MS Shell Dlg 2" font-size="7.8" font-weight="400" font-style="normal" 
>
<path vector-effect="non-scaling-stroke" fill-rule="evenodd" d="M37.2598,16 C37.2598,27.7415 27.7415,37.2598 16,37.2598 C4.25851,37.2598 -5.25984,27.7415 -5.25984,16 C-5.25984,4.25851 4.25851,-5.25984 16,-5.25984 C27.7415,-5.25984 37.2598,4.25851 37.2598,16 "/>
</g>

<g fill="#ffffff" fill-opacity="0.94902" stroke="none" transform="matrix(1,0,0,1,16,11.4646)"
font-family="MS Shell Dlg 2" font-size="7.8" font-weight="400" font-style="normal" 
>
<path vector-effect="none" fill-rule="evenodd" d="M8.37256,-8.15186 C9.59033,-8.15186 10.1992,-7.50798 10.1992,-6.22021 L10.1992,16.8965 C10.1992,17.1344 10.1537,17.3619 10.0627,17.5789 C9.97176,17.7958 9.84578,17.9883 9.68481,18.1563 C9.52384,18.3242 9.33138,18.4607 9.10742,18.5657 C8.88346,18.6707 8.63851,18.7231 8.37256,18.7231 L-8.46631,18.7231 C-8.70426,18.7231 -8.93172,18.6707 -9.14868,18.5657 C-9.36564,18.4607 -9.55811,18.3242 -9.72607,18.1563 C-9.89404,17.9883 -10.027,17.7958 -10.125,17.5789 C-10.223,17.3619 -10.272,17.1344 -10.272,16.8965 L-10.272,-6.22021 C-10.272,-6.80811 -10.0865,-7.27702 -9.71558,-7.62695 C-9.34465,-7.97689 -8.92822,-8.15186 -8.46631,-8.15186 L8.37256,-8.15186 M6.65088,-7.20703 C6.48291,-7.20703 6.32194,-7.16504 6.16797,-7.08105 C6.014,-6.99707 5.87752,-6.89209 5.75854,-6.76611 C5.63957,-6.64014 5.54508,-6.50016 5.4751,-6.34619 C5.40511,-6.19222 5.37012,-6.04525 5.37012,-5.90527 C5.37012,-5.02344 5.79704,-4.58252 6.65088,-4.58252 C7.54671,-4.58252 7.99463,-5.02344 7.99463,-5.90527 C7.99463,-6.04525 7.96313,-6.19222 7.90015,-6.34619 C7.83716,-6.50016 7.74967,-6.64014 7.6377,-6.76611 C7.52572,-6.89209 7.38574,-6.99707 7.21777,-7.08105 C7.0498,-7.16504 6.86084,-7.20703 6.65088,-7.20703 M-0.382813,-6.40918 C-0.77474,-6.40918 -0.970703,-6.24121 -0.970703,-5.90527 C-0.970703,-5.34538 -0.77474,-5.06543 -0.382813,-5.06543 L0.897949,-5.06543 C1.38786,-5.06543 1.63281,-5.34538 1.63281,-5.90527 C1.63281,-6.24121 1.38786,-6.40918 0.897949,-6.40918 L-0.382813,-6.40918 M-7.66846,-4.77148 L-2.98633,-4.77148 L-2.98633,-6.78711 L-7.66846,-6.78711 L-7.66846,-4.77148 M-0.00488281,13.3481 C1.21289,13.3481 2.35718,13.1172 3.42798,12.6553 C4.49878,12.1934 5.42961,11.5705 6.22046,10.7866 C7.01131,10.0028 7.6342,9.09294 8.08911,8.05713 C8.54403,7.02132 8.77148,5.92253 8.77148,4.76074 C8.77148,3.54297 8.56502,2.43717 8.1521,1.44336 C7.73918,0.449544 7.0918,-0.460286 6.20996,-1.28613 C4.48828,-2.96582 2.41667,-3.80566 -0.00488281,-3.80566 C-2.32845,-3.80566 -4.34408,-2.96582 -6.05176,-1.28613 C-7.71745,0.337565 -8.55029,2.35319 -8.55029,4.76074 C-8.55029,5.92253 -8.32983,7.02132 -7.88892,8.05713 C-7.448,9.09294 -6.84611,10.0028 -6.08325,10.7866 C-5.32039,11.5705 -4.41756,12.1934 -3.37476,12.6553 C-2.33195,13.1172 -1.20866,13.3481 -0.00488281,13.3481 M-0.00488281,-3.32275 C1.12891,-3.32275 2.16821,-3.12329 3.11304,-2.72437 C4.05786,-2.32544 4.9152,-1.74105 5.68506,-0.971191 C7.22477,0.610514 7.99463,2.52116 7.99463,4.76074 C7.99463,6.90234 7.22477,8.743 5.68506,10.2827 C4.17334,11.7944 2.27669,12.5503 -0.00488281,12.5503 C-1.09668,12.5503 -2.12199,12.3473 -3.08081,11.9414 C-4.03963,11.5355 -4.87248,10.9791 -5.57935,10.2722 C-6.28621,9.56535 -6.84611,8.7395 -7.25903,7.79468 C-7.67196,6.84985 -7.87842,5.83854 -7.87842,4.76074 C-7.87842,3.62695 -7.67896,2.58415 -7.28003,1.63232 C-6.8811,0.680501 -6.30371,-0.187337 -5.54785,-0.971191 C-4.75,-1.74105 -3.88916,-2.32544 -2.96533,-2.72437 C-2.0415,-3.12329 -1.05469,-3.32275 -0.00488281,-3.32275 M-0.00488281,11.8574 C1.95475,11.8574 3.62044,11.1646 4.99219,9.77881 C6.37793,8.39307 7.0708,6.72038 7.0708,4.76074 C7.0708,2.8571 6.37793,1.19141 4.99219,-0.236328 C4.29232,-0.964193 3.52596,-1.49959 2.69312,-1.84253 C1.86027,-2.18547 0.960938,-2.35693 -0.00488281,-2.35693 C-0.928711,-2.35693 -1.79655,-2.18547 -2.6084,-1.84253 C-3.42025,-1.49959 -4.16911,-0.964193 -4.85498,-0.236328 C-6.24072,1.17741 -6.93359,2.8431 -6.93359,4.76074 C-6.93359,6.74837 -6.24072,8.42106 -4.85498,9.77881 C-4.16911,10.4927 -3.42025,11.0176 -2.6084,11.3535 C-1.79655,11.6895 -0.928711,11.8574 -0.00488281,11.8574 M-1.30664,0.435547 C-0.830729,0.337565 -0.361816,0.316569 0.100098,0.372559 C0.562012,0.428548 1.00293,0.544027 1.42285,0.718994 C1.84277,0.893962 2.2312,1.12142 2.58813,1.40137 C2.94507,1.68132 3.26351,1.99626 3.54346,2.34619 C3.12354,2.23421 2.70011,2.14673 2.27319,2.08374 C1.84627,2.02075 1.38786,2.04525 0.897949,2.15723 C-0.711751,2.38118 -2.00651,3.16504 -2.98633,4.50879 C-3.46224,5.18066 -3.78418,5.87354 -3.95215,6.5874 C-4.12012,7.30127 -4.11312,8.04313 -3.93115,8.81299 L-3.93115,9.19092 C-4.33708,8.729 -4.69401,8.26359 -5.00195,7.79468 C-5.3099,7.32576 -5.53385,6.76237 -5.67383,6.10449 C-5.8418,4.76074 -5.50586,3.52197 -4.66602,2.38818 C-3.78418,1.29639 -2.66439,0.645508 -1.30664,0.435547 "/>
</g>

<g fill="#a61215" fill-opacity="1" stroke="none" transform="matrix(1,0,0,1,0,0)"
font-family="MS Shell Dlg 2" font-size="7.8" font-weight="400" font-style="normal" 
>
</g>
</g>
</svg>
