<svg xmlns="http://www.w3.org/2000/svg" version="1.2" viewBox="0 0 42.52 42.52" height="56.693" width="56.693">
   <g stroke-linejoin="bevel" stroke-linecap="square" fill-rule="evenodd" stroke="none" fill="none" font-weight="400"
      font-size="7.8" font-family="'MS Shell Dlg 2'">
      <path
         d="M42.52 21.26C42.52 33 33 42.52 21.26 42.52 9.518 42.52 0 33 0 21.26 0 9.518 9.518 0 21.26 0 33 0 42.52 9.518 42.52 21.26"
         vector-effect="non-scaling-stroke" fill="#a61215" />
      <path
         d="M29.632 8.573c1.218 0 1.827.643 1.827 1.931v23.117c0 .238-.045.465-.136.682a1.875 1.875 0 01-.956.987 1.71 1.71 0 01-.735.158H12.794c-.238 0-.466-.053-.683-.158a2.111 2.111 0 01-.577-.41 1.94 1.94 0 01-.4-.577 1.64 1.64 0 01-.146-.682V10.504c0-.588.185-1.057.556-1.407.371-.35.788-.524 1.25-.524h16.838m-1.721.944a.995.995 0 00-.483.126c-.154.084-.29.19-.41.315a1.531 1.531 0 00-.283.42c-.07.154-.105.301-.105.441 0 .882.427 1.323 1.28 1.323.897 0 1.344-.441 1.344-1.323 0-.14-.031-.287-.094-.44a1.378 1.378 0 00-.682-.735 1.25 1.25 0 00-.567-.127m-7.034.798c-.392 0-.588.168-.588.504 0 .56.196.84.588.84h1.28c.49 0 .736-.28.736-.84 0-.336-.245-.504-.735-.504h-1.281m-7.286 1.638h4.683V9.937H13.59v2.016m7.664 18.12c1.218 0 2.362-.231 3.433-.693a8.969 8.969 0 002.792-1.869 8.772 8.772 0 001.869-2.73 8.107 8.107 0 00.682-3.296c0-1.218-.206-2.323-.62-3.317-.412-.994-1.06-1.904-1.941-2.73-1.722-1.68-3.793-2.52-6.215-2.52-2.324 0-4.34.84-6.047 2.52-1.666 1.624-2.498 3.64-2.498 6.047 0 1.162.22 2.26.66 3.297a8.836 8.836 0 001.807 2.729 8.59 8.59 0 002.708 1.869 8.227 8.227 0 003.37.693m0-16.671c1.134 0 2.173.2 3.118.598a8.048 8.048 0 012.572 1.753c1.54 1.582 2.31 3.493 2.31 5.732 0 2.142-.77 3.982-2.31 5.522-1.512 1.512-3.408 2.268-5.69 2.268a7.808 7.808 0 01-3.076-.61 7.785 7.785 0 01-2.499-1.668A7.995 7.995 0 0114 24.519a7.492 7.492 0 01-.619-3.034c0-1.134.2-2.176.599-3.128a8.425 8.425 0 011.732-2.604c.798-.77 1.659-1.354 2.583-1.753a7.387 7.387 0 012.96-.598m0 15.18c1.96 0 3.625-.693 4.997-2.079 1.386-1.385 2.079-3.058 2.079-5.018 0-1.903-.693-3.57-2.079-4.997-.7-.728-1.466-1.263-2.299-1.606a7.016 7.016 0 00-2.698-.514c-.924 0-1.792.171-2.604.514-.811.343-1.56.878-2.246 1.606-1.386 1.414-2.079 3.08-2.079 4.997 0 1.988.693 3.66 2.079 5.018.686.714 1.435 1.239 2.246 1.575a6.74 6.74 0 002.604.504M19.953 17.16a4.343 4.343 0 011.407-.063 4.98 4.98 0 012.488 1.029c.357.28.675.595.955.945-.42-.112-.843-.2-1.27-.263a3.716 3.716 0 00-1.375.074c-1.61.224-2.905 1.007-3.884 2.351-.476.672-.798 1.365-.966 2.079a4.79 4.79 0 00.02 2.225v.378a12.593 12.593 0 01-1.07-1.396c-.308-.469-.532-1.032-.672-1.69-.168-1.344.168-2.583 1.008-3.716.882-1.092 2.001-1.743 3.36-1.953"
         fill-opacity=".949" fill="#fff" />
   </g>
</svg>