<svg xmlns="http://www.w3.org/2000/svg" version="1.2" viewBox="0 0 42.52 42.52" height="56.693" width="56.693">
   <g stroke-linejoin="bevel" stroke-linecap="square" fill-rule="evenodd" stroke="none" fill="none" font-weight="400"
      font-size="7.8" font-family="'MS Shell Dlg 2'">
      <path
         d="M42.52 21.26C42.52 33 33 42.52 21.26 42.52 9.518 42.52 0 33 0 21.26 0 9.518 9.518 0 21.26 0 33 0 42.52 9.518 42.52 21.26"
         vector-effect="non-scaling-stroke" fill="#a61215" />
      <path
         d="M36.221 13.486a.702.702 0 01-.02.504l-2.415 4.724a.46.46 0 01-.22.252.724.724 0 01-.347.084h-.095a.208.208 0 01-.094-.021l-2.646-.777v15.81a.604.604 0 01-.189.44.628.628 0 01-.462.19H13.944a.628.628 0 01-.461-.19.604.604 0 01-.19-.44v-15.81l-2.645.777a.637.637 0 01-.189.02.724.724 0 01-.346-.083.46.46 0 01-.22-.252L7.477 13.99a.702.702 0 01-.021-.504c.056-.14.168-.273.336-.4l5.5-2.54a27.015 27.015 0 013.57-.924h.126c.154 0 .29.042.41.126a.535.535 0 01.22.357c.112.49.297.942.556 1.355.26.412.574.773.945 1.08.37.309.787.547 1.25.715.461.168.951.252 1.469.252.518 0 1.008-.084 1.47-.252a4.172 4.172 0 001.249-.714 4.51 4.51 0 00.945-1.081c.259-.413.444-.865.556-1.355.098-.322.308-.483.63-.483h.126a26.526 26.526 0 013.57.924l5.5 2.54c.168.127.28.26.336.4"
         fill-opacity=".949" fill="#fff" />
   </g>
</svg>