<?xml version="1.0" encoding="UTF-8" standalone="no"?>
<svg
   xmlns:dc="http://purl.org/dc/elements/1.1/"
   xmlns:cc="http://creativecommons.org/ns#"
   xmlns:rdf="http://www.w3.org/1999/02/22-rdf-syntax-ns#"
   xmlns:svg="http://www.w3.org/2000/svg"
   xmlns="http://www.w3.org/2000/svg"
   xmlns:sodipodi="http://sodipodi.sourceforge.net/DTD/sodipodi-0.dtd"
   xmlns:inkscape="http://www.inkscape.org/namespaces/inkscape"
   inkscape:version="1.0 (4035a4fb49, 2020-05-01)"
   sodipodi:docname="2108.svg"
   id="svg20"
   version="1.2"
   viewBox="0 0 42.519639 42.519639"
   height="14.999999mm"
   width="14.999999mm">
  <metadata
     id="metadata24">
    <rdf:RDF>
      <cc:Work
         rdf:about="">
        <dc:format>image/svg+xml</dc:format>
        <dc:type
           rdf:resource="http://purl.org/dc/dcmitype/StillImage" />
        <dc:title>Qt SVG Document</dc:title>
      </cc:Work>
    </rdf:RDF>
  </metadata>
  <sodipodi:namedview
     inkscape:current-layer="svg20"
     inkscape:window-maximized="0"
     inkscape:window-y="0"
     inkscape:window-x="0"
     inkscape:cy="28.346482"
     inkscape:cx="28.346482"
     inkscape:zoom="5.8410537"
     showgrid="false"
     id="namedview22"
     inkscape:window-height="480"
     inkscape:window-width="1034"
     inkscape:pageshadow="2"
     inkscape:pageopacity="0"
     guidetolerance="10"
     gridtolerance="10"
     objecttolerance="10"
     borderopacity="1"
     bordercolor="#666666"
     pagecolor="#ffffff" />
  <title
     id="title2">Qt SVG Document</title>
  <desc
     id="desc4">Generated with Qt</desc>
  <defs
     id="defs6" />
  <g
     transform="translate(5.25984,5.25984)"
     id="g18"
     stroke-linejoin="bevel"
     stroke-linecap="square"
     fill-rule="evenodd"
     stroke-width="1"
     stroke="#000000"
     fill="none">
    <g
       id="g10"
       font-style="normal"
       font-weight="400"
       font-size="7.8px"
       font-family="'MS Shell Dlg 2'"
       stroke="none"
       fill-opacity="1"
       fill="#a61215">
      <path
         id="path8"
         d="M 37.2598,16 C 37.2598,27.7415 27.7415,37.2598 16,37.2598 4.25851,37.2598 -5.25984,27.7415 -5.25984,16 -5.25984,4.25851 4.25851,-5.25984 16,-5.25984 27.7415,-5.25984 37.2598,4.25851 37.2598,16"
         fill-rule="evenodd"
         vector-effect="non-scaling-stroke" />
    </g>
    <g
       id="g14"
       font-style="normal"
       font-weight="400"
       font-size="7.8px"
       font-family="'MS Shell Dlg 2'"
       transform="translate(16.5669,11.4646)"
       stroke="none"
       fill-opacity="0.94902"
       fill="#ffffff">
      <path
         id="path12"
         d="m 14.3945,-3.23877 c 0.056,0.15397 0.049,0.32194 -0.021,0.50391 L 11.959,1.98926 c -0.042,0.11198 -0.1155,0.19596 -0.2205,0.25195 -0.105,0.05599 -0.2204,0.08399 -0.3464,0.08399 -0.028,0 -0.0595,0 -0.0945,0 -0.035,0 -0.0665,-0.007 -0.0945,-0.021 L 8.55762,1.52734 V 17.3374 c 0,0.168 -0.06299,0.3149 -0.18897,0.4409 -0.12597,0.126 -0.27995,0.189 -0.46191,0.189 H -7.88232 c -0.18197,0 -0.33594,-0.063 -0.46192,-0.189 -0.12597,-0.126 -0.18896,-0.2729 -0.18896,-0.4409 V 1.52734 l -2.6455,0.77686 c -0.042,0.014 -0.105,0.021 -0.189,0.021 -0.126,0 -0.2414,-0.028 -0.3464,-0.08399 -0.105,-0.05599 -0.1785,-0.13997 -0.2205,-0.25195 l -2.4145,-4.72412 c -0.07,-0.18197 -0.077,-0.34994 -0.021,-0.50391 0.056,-0.13997 0.168,-0.27295 0.3359,-0.39893 l 5.501,-2.54052 c 0.58789,-0.19597 1.17928,-0.37093 1.77417,-0.52491 0.59489,-0.15397 1.19327,-0.28694 1.79516,-0.39892 h 0.12598 c 0.15397,0 0.29045,0.04199 0.40942,0.12598 0.11898,0.08398 0.19247,0.20296 0.22046,0.35693 0.11198,0.48991 0.29745,0.94132 0.5564,1.35425 0.25895,0.41292 0.57389,0.77335 0.94482,1.0813 0.37093,0.30794 0.78736,0.54589 1.24927,0.71386 0.461915,0.16797 0.951823,0.25196 1.469727,0.25196 0.517904,0 1.007813,-0.08399 1.469723,-0.25196 C 1.94385,-3.6377 2.36027,-3.87565 2.7312,-4.18359 3.10213,-4.49154 3.41707,-4.85197 3.67603,-5.26489 3.93498,-5.67782 4.12044,-6.12923 4.23242,-6.61914 4.3304,-6.94108 4.54036,-7.10205 4.8623,-7.10205 h 0.12598 c 0.60189,0.11198 1.20028,0.24495 1.79517,0.39892 0.59489,0.15398 1.18628,0.32894 1.77417,0.52491 l 5.50098,2.54052 c 0.168,0.12598 0.2799,0.25896 0.3359,0.39893"
         fill-rule="evenodd"
         vector-effect="none" />
    </g>
    <g
       id="g16"
       font-style="normal"
       font-weight="400"
       font-size="7.8px"
       font-family="'MS Shell Dlg 2'"
       stroke="none"
       fill-opacity="1"
       fill="#a61215" />
  </g>
</svg>
