<?xml version="1.0" encoding="UTF-8" standalone="no"?>
<svg width="11.25008mm" height="11.25008mm"
 viewBox="-5.3 -5.3 42.52000 42.52000"
 xmlns="http://www.w3.org/2000/svg" xmlns:xlink="http://www.w3.org/1999/xlink"  version="1.2" baseProfile="tiny">
<title>Qt SVG Document</title>
<desc>Generated with Qt</desc>
<defs>
</defs>
<g fill="none" stroke="black" stroke-width="1" fill-rule="evenodd" stroke-linecap="square" stroke-linejoin="bevel" >

<g fill="#a61215" fill-opacity="1" stroke="none" transform="matrix(1,0,0,1,0,0)"
font-family="MS Shell Dlg 2" font-size="7.8" font-weight="400" font-style="normal" 
>
<path vector-effect="non-scaling-stroke" fill-rule="evenodd" d="M37.2598,16 C37.2598,27.7415 27.7415,37.2598 16,37.2598 C4.25851,37.2598 -5.25984,27.7415 -5.25984,16 C-5.25984,4.25851 4.25851,-5.25984 16,-5.25984 C27.7415,-5.25984 37.2598,4.25851 37.2598,16 "/>
</g>

<g fill="#ffffff" fill-opacity="0.94902" stroke="none" transform="matrix(1,0,0,1,16.5669,11.4646)"
font-family="MS Shell Dlg 2" font-size="7.8" font-weight="400" font-style="normal" 
>
<path vector-effect="none" fill-rule="evenodd" d="M14.3945,-3.23877 C14.4505,-3.0848 14.4435,-2.91683 14.3735,-2.73486 L11.959,1.98926 C11.917,2.10124 11.8435,2.18522 11.7385,2.24121 C11.6335,2.2972 11.5181,2.3252 11.3921,2.3252 C11.3641,2.3252 11.3326,2.3252 11.2976,2.3252 C11.2626,2.3252 11.2311,2.3182 11.2031,2.3042 L8.55762,1.52734 L8.55762,17.3374 C8.55762,17.5054 8.49463,17.6523 8.36865,17.7783 C8.24268,17.9043 8.0887,17.9673 7.90674,17.9673 L-7.88232,17.9673 C-8.06429,17.9673 -8.21826,17.9043 -8.34424,17.7783 C-8.47021,17.6523 -8.5332,17.5054 -8.5332,17.3374 L-8.5332,1.52734 L-11.1787,2.3042 C-11.2207,2.3182 -11.2837,2.3252 -11.3677,2.3252 C-11.4937,2.3252 -11.6091,2.2972 -11.7141,2.24121 C-11.8191,2.18522 -11.8926,2.10124 -11.9346,1.98926 L-14.3491,-2.73486 C-14.4191,-2.91683 -14.4261,-3.0848 -14.3701,-3.23877 C-14.3141,-3.37874 -14.2021,-3.51172 -14.0342,-3.6377 L-8.5332,-6.17822 C-7.94531,-6.37419 -7.35392,-6.54915 -6.75903,-6.70313 C-6.16414,-6.8571 -5.56576,-6.99007 -4.96387,-7.10205 L-4.83789,-7.10205 C-4.68392,-7.10205 -4.54744,-7.06006 -4.42847,-6.97607 C-4.30949,-6.89209 -4.236,-6.77311 -4.20801,-6.61914 C-4.09603,-6.12923 -3.91056,-5.67782 -3.65161,-5.26489 C-3.39266,-4.85197 -3.07772,-4.49154 -2.70679,-4.18359 C-2.33586,-3.87565 -1.91943,-3.6377 -1.45752,-3.46973 C-0.995605,-3.30176 -0.505697,-3.21777 0.012207,-3.21777 C0.530111,-3.21777 1.02002,-3.30176 1.48193,-3.46973 C1.94385,-3.6377 2.36027,-3.87565 2.7312,-4.18359 C3.10213,-4.49154 3.41707,-4.85197 3.67603,-5.26489 C3.93498,-5.67782 4.12044,-6.12923 4.23242,-6.61914 C4.3304,-6.94108 4.54036,-7.10205 4.8623,-7.10205 L4.98828,-7.10205 C5.59017,-6.99007 6.18856,-6.8571 6.78345,-6.70313 C7.37834,-6.54915 7.96973,-6.37419 8.55762,-6.17822 L14.0586,-3.6377 C14.2266,-3.51172 14.3385,-3.37874 14.3945,-3.23877 "/>
</g>

<g fill="#a61215" fill-opacity="1" stroke="none" transform="matrix(1,0,0,1,0,0)"
font-family="MS Shell Dlg 2" font-size="7.8" font-weight="400" font-style="normal" 
>
</g>
</g>
</svg>
