<?xml version="1.0" encoding="UTF-8" standalone="no"?>
<svg
   xmlns:dc="http://purl.org/dc/elements/1.1/"
   xmlns:cc="http://creativecommons.org/ns#"
   xmlns:rdf="http://www.w3.org/1999/02/22-rdf-syntax-ns#"
   xmlns:svg="http://www.w3.org/2000/svg"
   xmlns="http://www.w3.org/2000/svg"
   xmlns:sodipodi="http://sodipodi.sourceforge.net/DTD/sodipodi-0.dtd"
   xmlns:inkscape="http://www.inkscape.org/namespaces/inkscape"
   inkscape:version="1.0 (4035a4fb49, 2020-05-01)"
   sodipodi:docname="2109.svg"
   id="svg20"
   version="1.2"
   viewBox="0 0 42.519639 42.519639"
   height="14.999999mm"
   width="14.999999mm">
  <metadata
     id="metadata24">
    <rdf:RDF>
      <cc:Work
         rdf:about="">
        <dc:format>image/svg+xml</dc:format>
        <dc:type
           rdf:resource="http://purl.org/dc/dcmitype/StillImage" />
        <dc:title>Qt SVG Document</dc:title>
      </cc:Work>
    </rdf:RDF>
  </metadata>
  <sodipodi:namedview
     inkscape:current-layer="svg20"
     inkscape:window-maximized="0"
     inkscape:window-y="0"
     inkscape:window-x="0"
     inkscape:cy="28.346482"
     inkscape:cx="28.346482"
     inkscape:zoom="5.8410537"
     showgrid="false"
     id="namedview22"
     inkscape:window-height="480"
     inkscape:window-width="1034"
     inkscape:pageshadow="2"
     inkscape:pageopacity="0"
     guidetolerance="10"
     gridtolerance="10"
     objecttolerance="10"
     borderopacity="1"
     bordercolor="#666666"
     pagecolor="#ffffff" />
  <title
     id="title2">Qt SVG Document</title>
  <desc
     id="desc4">Generated with Qt</desc>
  <defs
     id="defs6" />
  <g
     transform="translate(5.25984,5.25984)"
     id="g18"
     stroke-linejoin="bevel"
     stroke-linecap="square"
     fill-rule="evenodd"
     stroke-width="1"
     stroke="#000000"
     fill="none">
    <g
       id="g10"
       font-style="normal"
       font-weight="400"
       font-size="7.8px"
       font-family="'MS Shell Dlg 2'"
       stroke="none"
       fill-opacity="1"
       fill="#a61215">
      <path
         id="path8"
         d="M 37.2598,16 C 37.2598,27.7415 27.7415,37.2598 16,37.2598 4.25851,37.2598 -5.25984,27.7415 -5.25984,16 -5.25984,4.25851 4.25851,-5.25984 16,-5.25984 27.7415,-5.25984 37.2598,4.25851 37.2598,16"
         fill-rule="evenodd"
         vector-effect="non-scaling-stroke" />
    </g>
    <g
       id="g14"
       font-style="normal"
       font-weight="400"
       font-size="7.8px"
       font-family="'MS Shell Dlg 2'"
       transform="translate(16,12.0315)"
       stroke="none"
       fill-opacity="0.94902"
       fill="#ffffff">
      <path
         id="path12"
         d="m -0.487793,-9.05469 c 1.861653,0 3.614823,0.36044 5.259523,1.0813 1.64469,0.72087 3.07593,1.69019 4.2937,2.90796 1.21777,1.21777 2.18707,2.64901 2.90797,4.293701 0.7209,1.644694 1.0813,3.397869 1.0813,5.259519 0,1.86166 -0.3604,3.61133 -1.0813,5.24903 -0.7209,1.63768 -1.6902,3.07238 -2.90797,4.30418 -1.21777,1.2318 -2.64901,2.1976 -4.2937,2.8975 -1.6447,0.6998 -3.39787,1.0498 -5.259523,1.0498 -1.861657,0 -3.611327,-0.35 -5.249027,-1.0498 -1.63769,-0.6999 -3.07242,-1.6657 -4.30418,-2.8975 -1.2318,-1.2318 -2.1976,-2.6665 -2.8975,-4.30418 -0.6998,-1.6377 -1.0498,-3.38737 -1.0498,-5.24903 0,-1.86165 0.35,-3.614825 1.0498,-5.259519 0.6999,-1.644691 1.6657,-3.075931 2.8975,-4.293701 1.23176,-1.21777 2.66649,-2.18709 4.30418,-2.90796 1.6377,-0.72086 3.38737,-1.0813 5.249027,-1.0813 M -9.95703,0.540527 C -10.041,0.820475 -10.153,1.05493 -10.293,1.2439 c -0.1399,0.18896 -0.2974,0.34643 -0.4724,0.47241 -0.1749,0.12598 -0.3324,0.24845 -0.4724,0.36743 -0.14,0.11898 -0.2449,0.24845 -0.3149,0.38843 -0.056,0.25195 -0.098,0.5074 -0.126,0.76636 -0.028,0.25895 -0.056,0.54939 -0.084,0.87133 0.028,0.028 0.056,0.042 0.084,0.042 0.6019,0.22395 1.2178,0.29394 1.84765,0.20996 0.62988,-0.08399 1.26326,-0.24146 1.90014,-0.47242 0.63688,-0.23095 1.23877,-0.5039 1.80567,-0.81884 0.56689,-0.31494 1.09529,-0.58439 1.5852,-0.80835 0.05599,-0.05599 0.13648,-0.11548 0.24146,-0.17847 0.10498,-0.06299 0.21346,-0.12248 0.32544,-0.17847 l 0.04199,-0.04199 c 0.02799,0 0.04899,-0.007 0.06299,-0.02099 0.01399,-0.014 0.04899,-0.021 0.10498,-0.021 0.95182,-0.41992 2.04362,-0.62988 3.275387,-0.62988 0.601888,0 1.18278,0.06298 1.742673,0.18896 0.5599,0.12598 1.0778,0.27295 1.55371,0.44092 0.46192,0.20996 1.00082,0.45142 1.6167,0.72436 0.61589,0.27295 1.26327,0.52841 1.94214,0.76636 0.67888,0.23796 1.38224,0.44442 2.11011,0.61939 0.72786,0.17496 1.46273,0.24845 2.20456,0.22046 0,-0.32194 -0.021,-0.62639 -0.063,-0.91333 C 10.5771,2.95158 10.5282,2.65413 10.4722,2.34619 10.4162,2.23421 10.3217,2.12573 10.1887,2.02075 10.0557,1.91577 9.90527,1.80029 9.7373,1.67432 9.56934,1.54834 9.40487,1.39787 9.2439,1.2229 9.08293,1.04793 8.96045,0.820475 8.87646,0.540527 8.73649,0.106608 8.65251,-0.246826 8.62451,-0.519775 8.59652,-0.792725 8.57552,-1.04468 8.56152,-1.27563 8.54753,-1.50659 8.51953,-1.73405 8.47754,-1.95801 8.43555,-2.18197 8.32357,-2.45492 8.1416,-2.77686 7.0638,-4.00863 5.78654,-4.98844 4.30981,-5.71631 c -1.47672,-0.72786 -3.07592,-1.0918 -4.797603,-1.0918 -1.749677,0 -3.369877,0.36394 -4.860597,1.0918 -1.49072,0.72787 -2.73999,1.70768 -3.7478,2.93945 -0.16797,0.32194 -0.28695,0.59489 -0.35694,0.81885 -0.06998,0.22396 -0.11897,0.45142 -0.14697,0.68238 -0.02799,0.23095 -0.06649,0.482905 -0.11548,0.755855 -0.04899,0.272949 -0.12947,0.626383 -0.24145,1.060302 m 6.48779,3.947263 c 0,0.51791 0.29395,0.96232 0.88184,1.33325 0.58789,0.37094 1.28776,0.5564 2.099607,0.5564 0.825846,0 1.511723,-0.18546 2.057613,-0.5564 0.5459,-0.37093 0.81885,-0.81534 0.81885,-1.33325 0,-0.5459 -0.27295,-1.00431 -0.81885,-1.37524 -0.54589,-0.37093 -1.231767,-0.5564 -2.057613,-0.5564 -0.811847,0 -1.511717,0.18547 -2.099607,0.5564 -0.58789,0.37093 -0.88184,0.82934 -0.88184,1.37524 m -7.76856,3.35938 c 0.6579,2.02962 1.80217,3.74083 3.43287,5.13353 1.63069,1.3928 3.53784,2.2501 5.72143,2.572 0.16797,-0.07 0.29745,-0.3044 0.38843,-0.7033 0.09098,-0.399 0.15747,-0.8854 0.19946,-1.4593 0.042,-0.5739 0.049,-1.1967 0.021,-1.8686 C -1.5026,10.8496 -1.56209,10.2267 -1.65308,9.65283 -1.74406,9.07894 -1.86654,8.58553 -2.02051,8.17261 -2.17448,7.75968 -2.37044,7.52523 -2.6084,7.46924 H -2.73438 -2.81836 C -2.87435,7.37126 -2.94434,7.32227 -3.02832,7.32227 c -0.05599,0 -0.10498,-0.014 -0.14697,-0.042 C -3.21729,7.25228 -3.26628,7.23828 -3.32227,7.23828 -3.89616,7.07031 -4.59253,6.95133 -5.41138,6.88135 -6.23022,6.81136 -7.03507,6.79736 -7.82593,6.83936 -8.61678,6.88135 -9.33415,6.97933 -9.97803,7.1333 -10.6219,7.28727 -11.0418,7.52523 -11.2378,7.84717 M 1.48584,15.5107 c 2.05762,-0.3779 3.85628,-1.2422 5.396,-2.593 C 8.42155,11.567 9.50635,9.91878 10.1362,7.97314 9.95426,7.63721 9.52035,7.38175 8.83447,7.20679 8.1486,7.03182 7.37524,6.92334 6.5144,6.88135 5.65356,6.83936 4.79272,6.87435 3.93188,6.98633 3.07104,7.09831 2.38167,7.25928 1.86377,7.46924 1.61182,7.60921 1.40535,8.06413 1.24438,8.83398 1.08341,9.60384 0.981934,10.4472 0.939941,11.364 c -0.041992,0.9168 -0.017496,1.7847 0.073489,2.6035 0.09098,0.8189 0.24845,1.3333 0.47241,1.5432"
         fill-rule="evenodd"
         vector-effect="none" />
    </g>
    <g
       id="g16"
       font-style="normal"
       font-weight="400"
       font-size="7.8px"
       font-family="'MS Shell Dlg 2'"
       stroke="none"
       fill-opacity="1"
       fill="#a61215" />
  </g>
</svg>
