<?xml version="1.0" encoding="UTF-8" standalone="no"?>
<svg width="11.2889mm" height="11.2889mm"
 viewBox="0 0 32 32"
 xmlns="http://www.w3.org/2000/svg" xmlns:xlink="http://www.w3.org/1999/xlink"  version="1.2" baseProfile="tiny">
<title>Qt SVG Document</title>
<desc>Generated with Qt</desc>
<defs>
</defs>
<g fill="none" stroke="black" stroke-width="1" fill-rule="evenodd" stroke-linecap="square" stroke-linejoin="bevel" >

<g fill="#a61215" fill-opacity="1" stroke="none" transform="matrix(1,0,0,1,0,0)"
font-family="MS Shell Dlg 2" font-size="7.8" font-weight="400" font-style="normal" 
>
<path vector-effect="non-scaling-stroke" fill-rule="evenodd" d="M37.2598,16 C37.2598,27.7415 27.7415,37.2598 16,37.2598 C4.25851,37.2598 -5.25984,27.7415 -5.25984,16 C-5.25984,4.25851 4.25851,-5.25984 16,-5.25984 C27.7415,-5.25984 37.2598,4.25851 37.2598,16 "/>
</g>

<g fill="#ffffff" fill-opacity="0.94902" stroke="none" transform="matrix(1,0,0,1,14.8661,12.5984)"
font-family="MS Shell Dlg 2" font-size="7.8" font-weight="400" font-style="normal" 
>
<path vector-effect="none" fill-rule="evenodd" d="M5.87402,14.209 C6.36393,14.209 6.78035,14.3805 7.12329,14.7234 C7.46623,15.0663 7.6377,15.4827 7.6377,15.9727 C7.6377,16.4626 7.46623,16.879 7.12329,17.2219 C6.78035,17.5649 6.36393,17.7363 5.87402,17.7363 C5.38411,17.7363 4.96769,17.5649 4.62476,17.2219 C4.28182,16.879 4.11035,16.4626 4.11035,15.9727 C4.11035,15.4827 4.28182,15.0663 4.62476,14.7234 C4.96769,14.3805 5.38411,14.209 5.87402,14.209 M-2.41943,14.209 C-1.94352,14.209 -1.5306,14.3805 -1.18066,14.7234 C-0.830729,15.0663 -0.655762,15.4827 -0.655762,15.9727 C-0.655762,16.4626 -0.830729,16.879 -1.18066,17.2219 C-1.5306,17.5649 -1.94352,17.7363 -2.41943,17.7363 C-2.90934,17.7363 -3.32576,17.5649 -3.6687,17.2219 C-4.01164,16.879 -4.18311,16.4626 -4.18311,15.9727 C-4.18311,15.4827 -4.01164,15.0663 -3.6687,14.7234 C-3.32576,14.3805 -2.90934,14.209 -2.41943,14.209 M8.79248,4.80273 C9.03044,4.85872 9.2054,4.9847 9.31738,5.18066 C9.42936,5.37663 9.45736,5.59359 9.40137,5.83154 L7.72168,12.5713 C7.6377,13.0052 7.36475,13.2222 6.90283,13.2222 L-4.14111,13.2222 C-4.60303,13.2222 -4.87598,13.0052 -4.95996,12.5713 L-7.58447,2.09424 L-8.92822,2.09424 C-9.01221,2.51416 -9.28516,2.72412 -9.74707,2.72412 L-12.5396,2.72412 C-12.7635,2.72412 -12.963,2.64714 -13.1379,2.49316 C-13.3129,2.33919 -13.4004,2.14323 -13.4004,1.90527 C-13.4004,1.7373 -13.3864,1.62533 -13.3584,1.56934 C-13.3864,1.51335 -13.4004,1.40137 -13.4004,1.2334 C-13.4004,0.995443 -13.3129,0.799479 -13.1379,0.645508 C-12.963,0.491536 -12.7635,0.414551 -12.5396,0.414551 L-6.8916,0.414551 C-6.49967,0.414551 -6.22673,0.624512 -6.07275,1.04443 L-3.46924,11.5425 L6.20996,11.5425 L7.76367,5.39063 C7.81966,5.16667 7.94914,4.9952 8.1521,4.87622 C8.35506,4.75724 8.56852,4.73275 8.79248,4.80273 M-2.90234,-0.530273 L-5.35889,0.141602 L-5.2749,-8.23584 L-4.66602,-8.27783 L0.960938,-1.66406 L-1.5166,-0.971191 L0.792969,0.372559 L0.834961,0.498535 L1.27588,1.31738 L0.750977,1.94727 L0.24707,0.918457 L-2.25146,-0.530273 L-3.59521,-4.1416 L-2.90234,-0.530273 M2.68262,6.69238 L3.03955,6.52441 L2.68262,5.83154 L3.20752,5.18066 L3.71143,6.20947 L4.02637,6.0415 L5.22314,8.49805 L3.90039,9.12793 L2.68262,6.69238 M11.9839,-2.81885 L10.4302,2.26221 L2.09473,-4.41455 L5.13916,-8.23584 L11.9839,-2.81885 M10.0942,-5.19141 L8.45654,-6.47217 L8.87646,-7.03906 L10.5142,-5.7373 L10.0942,-5.19141 M6.25195,-0.362305 L2.95557,3.79492 L1.31787,2.47217 L4.61426,-1.66406 L6.25195,-0.362305 M0.499023,2.80811 L2.72461,4.57178 L-0.928711,9.12793 L-3.1123,7.36426 L0.499023,2.80811"/>
</g>

<g fill="#a61215" fill-opacity="1" stroke="none" transform="matrix(1,0,0,1,0,0)"
font-family="MS Shell Dlg 2" font-size="7.8" font-weight="400" font-style="normal" 
>
</g>
</g>
</svg>
