<svg xmlns="http://www.w3.org/2000/svg" version="1.2" viewBox="0 0 42.52 42.52" height="56.693" width="56.693">
   <g stroke-linejoin="bevel" stroke-linecap="square" fill-rule="evenodd" stroke="none" fill="none" font-weight="400"
      font-size="7.8" font-family="'MS Shell Dlg 2'">
      <path
         d="M42.52 21.26C42.52 33 33 42.52 21.26 42.52 9.518 42.52 0 33 0 21.26 0 9.518 9.518 0 21.26 0 33 0 42.52 9.518 42.52 21.26"
         vector-effect="non-scaling-stroke" fill="#a61215" />
      <path
         d="M26 32.067c.49 0 .906.172 1.25.515a1.7 1.7 0 01.514 1.249 1.7 1.7 0 01-.515 1.25 1.7 1.7 0 01-1.249.514 1.7 1.7 0 01-1.25-.515 1.7 1.7 0 01-.514-1.25c0-.49.172-.905.515-1.248A1.7 1.7 0 0126 32.067m-8.293 0c.475 0 .888.172 1.238.515s.525.759.525 1.249c0 .49-.175.906-.525 1.25-.35.342-.763.514-1.238.514a1.7 1.7 0 01-1.25-.515 1.7 1.7 0 01-.514-1.25c0-.49.171-.905.514-1.248.343-.343.76-.515 1.25-.515m11.211-9.406a.78.78 0 01.525.378c.112.196.14.413.084.65l-1.68 6.74c-.083.434-.356.651-.818.651H15.985c-.462 0-.735-.217-.819-.65l-2.625-10.478h-1.343c-.084.42-.357.63-.82.63H7.587a.88.88 0 01-.598-.23.748.748 0 01-.262-.588c0-.168.014-.28.042-.336-.028-.056-.042-.168-.042-.336 0-.238.087-.434.262-.588a.88.88 0 01.598-.231h5.648c.392 0 .665.21.82.63L16.656 29.4h9.679l1.554-6.152a.8.8 0 01.388-.515.764.764 0 01.64-.073m-11.694-5.333L14.767 18l.084-8.378.609-.042 5.627 6.614-2.478.693 2.31 1.344.042.126.44.819-.524.63-.504-1.03-2.499-1.448-1.343-3.611.693 3.611m5.585 7.223l.356-.168-.356-.693.524-.651.504 1.029.315-.168 1.197 2.456-1.323.63-1.217-2.435m9.3-9.512l-1.553 5.081-8.335-6.676 3.044-3.822 6.845 5.417m-1.89-2.372l-1.638-1.28.42-.568 1.638 1.302-.42.546m-3.842 4.829l-3.296 4.157-1.638-1.323 3.296-4.136 1.638 1.302m-5.753 3.17l2.226 1.764-3.654 4.556-2.183-1.764 3.611-4.556"
         fill-opacity=".949" fill="#fff" />
   </g>
</svg>