<?xml version="1.0" encoding="UTF-8" standalone="no"?>
<svg width="11.2889mm" height="11.2889mm"
 viewBox="0 0 32 32"
 xmlns="http://www.w3.org/2000/svg" xmlns:xlink="http://www.w3.org/1999/xlink"  version="1.2" baseProfile="tiny">
<title>Qt SVG Document</title>
<desc>Generated with Qt</desc>
<defs>
</defs>
<g fill="none" stroke="black" stroke-width="1" fill-rule="evenodd" stroke-linecap="square" stroke-linejoin="bevel" >

<g fill="#a61215" fill-opacity="1" stroke="none" transform="matrix(1,0,0,1,0,0)"
font-family="MS Shell Dlg 2" font-size="7.8" font-weight="400" font-style="normal" 
>
<path vector-effect="non-scaling-stroke" fill-rule="evenodd" d="M37.2598,16 C37.2598,27.7415 27.7415,37.2598 16,37.2598 C4.25851,37.2598 -5.25984,27.7415 -5.25984,16 C-5.25984,4.25851 4.25851,-5.25984 16,-5.25984 C27.7415,-5.25984 37.2598,4.25851 37.2598,16 "/>
</g>

<g fill="#ffffff" fill-opacity="0.94902" stroke="none" transform="matrix(1,0,0,1,15.4331,12.0315)"
font-family="MS Shell Dlg 2" font-size="7.8" font-weight="400" font-style="normal" 
>
<path vector-effect="none" fill-rule="evenodd" d="M7.06689,14.4189 C7.54281,14.4189 7.96273,14.6009 8.32666,14.9648 C8.69059,15.3288 8.87256,15.7487 8.87256,16.2246 C8.87256,16.7145 8.69059,17.1379 8.32666,17.4949 C7.96273,17.8518 7.54281,18.0303 7.06689,18.0303 C6.57699,18.0303 6.16056,17.8518 5.81763,17.4949 C5.47469,17.1379 5.30322,16.7145 5.30322,16.2246 C5.30322,15.7487 5.47469,15.3288 5.81763,14.9648 C6.16056,14.6009 6.57699,14.4189 7.06689,14.4189 M-1.37354,14.4189 C-0.883626,14.4189 -0.460205,14.6009 -0.103271,14.9648 C0.253662,15.3288 0.432129,15.7487 0.432129,16.2246 C0.432129,16.7145 0.253662,17.1379 -0.103271,17.4949 C-0.460205,17.8518 -0.883626,18.0303 -1.37354,18.0303 C-1.86344,18.0303 -2.27987,17.8518 -2.6228,17.4949 C-2.96574,17.1379 -3.13721,16.7145 -3.13721,16.2246 C-3.13721,15.7487 -2.96574,15.3288 -2.6228,14.9648 C-2.27987,14.6009 -1.86344,14.4189 -1.37354,14.4189 M2.59473,-0.404297 C2.70671,-0.404297 2.78369,-0.390299 2.82568,-0.362305 C2.86768,-0.33431 2.91667,-0.306315 2.97266,-0.27832 C3.00065,-0.222331 3.02865,-0.180339 3.05664,-0.152344 L3.05664,3.16504 C3.49056,3.19303 3.84399,3.24202 4.11694,3.31201 C4.38989,3.382 4.63485,3.46598 4.85181,3.56396 C5.06877,3.66195 5.26123,3.79142 5.4292,3.95239 C5.59717,4.11336 5.79313,4.27783 6.01709,4.4458 L-0.848633,4.4458 C-0.624674,4.27783 -0.425212,4.11336 -0.250244,3.95239 C-0.0752767,3.79142 0.117188,3.66195 0.327148,3.56396 C0.537109,3.46598 0.778564,3.382 1.05151,3.31201 C1.32446,3.24202 1.6779,3.19303 2.11182,3.16504 L2.11182,-0.152344 C2.11182,-0.180339 2.13981,-0.222331 2.1958,-0.27832 C2.27979,-0.362305 2.41276,-0.404297 2.59473,-0.404297 M4.9043,-0.887207 C5.22624,-1.16715 5.62166,-1.39461 6.09058,-1.56958 C6.55949,-1.74455 7.0109,-1.88802 7.44482,-2 C7.96273,-2.11198 8.49463,-2.20996 9.04053,-2.29395 C8.95654,-1.81803 8.85156,-1.34912 8.72559,-0.887207 C8.61361,-0.481283 8.45964,-0.06486 8.26367,0.362061 C8.06771,0.788981 7.80876,1.14941 7.48682,1.44336 C6.82894,2.01725 6.22705,2.2832 5.68115,2.24121 C5.13525,2.19922 4.72233,2.05924 4.44238,1.82129 C4.14844,1.56934 3.98747,1.1984 3.95947,0.708496 C3.93148,0.218587 4.24642,-0.313314 4.9043,-0.887207 M2.59473,-1.26514 C1.86686,-1.26514 1.25448,-1.4891 0.757568,-1.93701 C0.260661,-2.38493 0.012207,-3.14779 0.012207,-4.22559 C0.012207,-4.77148 0.148682,-5.32438 0.421631,-5.88428 C0.69458,-6.44417 0.985026,-6.96908 1.29297,-7.45898 C1.6709,-8.00488 2.10482,-8.55078 2.59473,-9.09668 C3.07064,-8.55078 3.49756,-8.00488 3.87549,-7.45898 C4.19743,-6.96908 4.49487,-6.44417 4.76782,-5.88428 C5.04077,-5.32438 5.17725,-4.77148 5.17725,-4.22559 C5.17725,-3.14779 4.92529,-2.38493 4.42139,-1.93701 C3.91748,-1.4891 3.30859,-1.26514 2.59473,-1.26514 M0.705078,1.82129 C0.411133,2.05924 -0.00179036,2.19922 -0.533691,2.24121 C-1.06559,2.2832 -1.66048,2.01725 -2.31836,1.44336 C-2.6263,1.14941 -2.88175,0.788981 -3.08472,0.362061 C-3.28768,-0.06486 -3.44515,-0.481283 -3.55713,-0.887207 C-3.66911,-1.34912 -3.77409,-1.81803 -3.87207,-2.29395 C-3.32617,-2.20996 -2.79427,-2.11198 -2.27637,-2 C-1.84245,-1.88802 -1.38753,-1.74455 -0.911621,-1.56958 C-0.43571,-1.39461 -0.0437826,-1.16715 0.26416,-0.887207 C0.922038,-0.313314 1.22998,0.218587 1.18799,0.708496 C1.146,1.1984 0.985026,1.56934 0.705078,1.82129 M10.0273,4.92871 C10.2513,4.9847 10.4298,5.11068 10.5627,5.30664 C10.6957,5.5026 10.7342,5.71956 10.6782,5.95752 L8.95654,12.8022 C8.87256,13.2222 8.59961,13.4321 8.1377,13.4321 L-3.05322,13.4321 C-3.52913,13.4321 -3.81608,13.2222 -3.91406,12.8022 L-6.58057,2.17822 L-7.90332,2.17822 C-8.04329,2.59814 -8.31624,2.80811 -8.72217,2.80811 L-11.5986,2.80811 C-11.8366,2.80811 -12.0396,2.72412 -12.2075,2.55615 C-12.3755,2.38818 -12.4595,2.18522 -12.4595,1.94727 C-12.4595,1.86328 -12.4315,1.7653 -12.3755,1.65332 C-12.4315,1.48535 -12.4595,1.37337 -12.4595,1.31738 C-12.4595,1.07943 -12.3755,0.876465 -12.2075,0.708496 C-12.0396,0.540527 -11.8366,0.456543 -11.5986,0.456543 L-5.8877,0.456543 C-5.42578,0.456543 -5.15283,0.666504 -5.06885,1.08643 L-2.40234,11.7104 L7.44482,11.7104 L8.99854,5.5166 C9.05452,5.29264 9.184,5.12467 9.38696,5.0127 C9.58993,4.90072 9.80339,4.87272 10.0273,4.92871 M7.23486,7.32227 L-2.23438,7.32227 L-2.52832,5.78955 L7.48682,5.78955 L7.23486,7.32227 M-1.62549,10.5557 L-1.87744,9.04395 L6.87793,9.04395 L6.62598,10.5557 L-1.62549,10.5557"/>
</g>

<g fill="#a61215" fill-opacity="1" stroke="none" transform="matrix(1,0,0,1,0,0)"
font-family="MS Shell Dlg 2" font-size="7.8" font-weight="400" font-style="normal" 
>
</g>
</g>
</svg>
