<?xml version="1.0" encoding="UTF-8" standalone="no"?>
<svg
   xmlns:dc="http://purl.org/dc/elements/1.1/"
   xmlns:cc="http://creativecommons.org/ns#"
   xmlns:rdf="http://www.w3.org/1999/02/22-rdf-syntax-ns#"
   xmlns:svg="http://www.w3.org/2000/svg"
   xmlns="http://www.w3.org/2000/svg"
   xmlns:sodipodi="http://sodipodi.sourceforge.net/DTD/sodipodi-0.dtd"
   xmlns:inkscape="http://www.inkscape.org/namespaces/inkscape"
   inkscape:version="1.0 (4035a4fb49, 2020-05-01)"
   sodipodi:docname="2111.svg"
   id="svg20"
   version="1.2"
   viewBox="0 0 42.519639 42.519639"
   height="14.999999mm"
   width="14.999999mm">
  <metadata
     id="metadata24">
    <rdf:RDF>
      <cc:Work
         rdf:about="">
        <dc:format>image/svg+xml</dc:format>
        <dc:type
           rdf:resource="http://purl.org/dc/dcmitype/StillImage" />
        <dc:title>Qt SVG Document</dc:title>
      </cc:Work>
    </rdf:RDF>
  </metadata>
  <sodipodi:namedview
     inkscape:current-layer="svg20"
     inkscape:window-maximized="0"
     inkscape:window-y="0"
     inkscape:window-x="0"
     inkscape:cy="28.346482"
     inkscape:cx="28.346482"
     inkscape:zoom="5.8410537"
     showgrid="false"
     id="namedview22"
     inkscape:window-height="480"
     inkscape:window-width="1034"
     inkscape:pageshadow="2"
     inkscape:pageopacity="0"
     guidetolerance="10"
     gridtolerance="10"
     objecttolerance="10"
     borderopacity="1"
     bordercolor="#666666"
     pagecolor="#ffffff" />
  <title
     id="title2">Qt SVG Document</title>
  <desc
     id="desc4">Generated with Qt</desc>
  <defs
     id="defs6" />
  <g
     transform="translate(5.25984,5.25984)"
     id="g18"
     stroke-linejoin="bevel"
     stroke-linecap="square"
     fill-rule="evenodd"
     stroke-width="1"
     stroke="#000000"
     fill="none">
    <g
       id="g10"
       font-style="normal"
       font-weight="400"
       font-size="7.8px"
       font-family="'MS Shell Dlg 2'"
       stroke="none"
       fill-opacity="1"
       fill="#a61215">
      <path
         id="path8"
         d="M 37.2598,16 C 37.2598,27.7415 27.7415,37.2598 16,37.2598 4.25851,37.2598 -5.25984,27.7415 -5.25984,16 -5.25984,4.25851 4.25851,-5.25984 16,-5.25984 27.7415,-5.25984 37.2598,4.25851 37.2598,16"
         fill-rule="evenodd"
         vector-effect="non-scaling-stroke" />
    </g>
    <g
       id="g14"
       font-style="normal"
       font-weight="400"
       font-size="7.8px"
       font-family="'MS Shell Dlg 2'"
       transform="translate(15.4331,12.0315)"
       stroke="none"
       fill-opacity="0.94902"
       fill="#ffffff">
      <path
         id="path12"
         d="m 7.06689,14.4189 c 0.47592,0 0.89584,0.182 1.25977,0.5459 0.36393,0.364 0.5459,0.7839 0.5459,1.2598 0,0.4899 -0.18197,0.9133 -0.5459,1.2703 -0.36393,0.3569 -0.78385,0.5354 -1.25977,0.5354 -0.4899,0 -0.90633,-0.1785 -1.24926,-0.5354 -0.34294,-0.357 -0.51441,-0.7804 -0.51441,-1.2703 0,-0.4759 0.17147,-0.8958 0.51441,-1.2598 0.34293,-0.3639 0.75936,-0.5459 1.24926,-0.5459 m -8.44043,0 c 0.489914,0 0.913335,0.182 1.270269,0.5459 0.356933,0.364 0.5354,0.7839 0.5354,1.2598 0,0.4899 -0.178467,0.9133 -0.5354,1.2703 -0.356934,0.3569 -0.780355,0.5354 -1.270269,0.5354 -0.4899,0 -0.90633,-0.1785 -1.24926,-0.5354 -0.34294,-0.357 -0.51441,-0.7804 -0.51441,-1.2703 0,-0.4759 0.17147,-0.8958 0.51441,-1.2598 0.34293,-0.3639 0.75936,-0.5459 1.24926,-0.5459 M 2.59473,-0.404297 c 0.11198,0 0.18896,0.013998 0.23095,0.041992 0.042,0.027995 0.09099,0.05599 0.14698,0.083985 0.02799,0.055989 0.05599,0.097981 0.08398,0.125976 V 3.16504 C 3.49056,3.19303 3.84399,3.24202 4.11694,3.31201 4.38989,3.382 4.63485,3.46598 4.85181,3.56396 5.06877,3.66195 5.26123,3.79142 5.4292,3.95239 5.59717,4.11336 5.79313,4.27783 6.01709,4.4458 H -0.848633 C -0.624674,4.27783 -0.425212,4.11336 -0.250244,3.95239 -0.0752767,3.79142 0.117188,3.66195 0.327148,3.56396 0.537109,3.46598 0.778564,3.382 1.05151,3.31201 1.32446,3.24202 1.6779,3.19303 2.11182,3.16504 v -3.317384 c 0,-0.027995 0.02799,-0.069987 0.08398,-0.125976 0.08399,-0.083985 0.21696,-0.125977 0.39893,-0.125977 M 4.9043,-0.887207 C 5.22624,-1.16715 5.62166,-1.39461 6.09058,-1.56958 6.55949,-1.74455 7.0109,-1.88802 7.44482,-2 7.96273,-2.11198 8.49463,-2.20996 9.04053,-2.29395 8.95654,-1.81803 8.85156,-1.34912 8.72559,-0.887207 8.61361,-0.481283 8.45964,-0.06486 8.26367,0.362061 8.06771,0.788981 7.80876,1.14941 7.48682,1.44336 6.82894,2.01725 6.22705,2.2832 5.68115,2.24121 5.13525,2.19922 4.72233,2.05924 4.44238,1.82129 4.14844,1.56934 3.98747,1.1984 3.95947,0.708496 3.93148,0.218587 4.24642,-0.313314 4.9043,-0.887207 M 2.59473,-1.26514 c -0.72787,0 -1.34025,-0.22396 -1.837162,-0.67187 -0.496907,-0.44792 -0.745361,-1.21078 -0.745361,-2.28858 0,-0.54589 0.136475,-1.09879 0.409424,-1.65869 0.272949,-0.55989 0.563395,-1.0848 0.871339,-1.5747 0.37793,-0.5459 0.81185,-1.0918 1.30176,-1.6377 0.47591,0.5459 0.90283,1.0918 1.28076,1.6377 0.32194,0.4899 0.61938,1.01481 0.89233,1.5747 0.27295,0.5599 0.40943,1.1128 0.40943,1.65869 0,1.0778 -0.25196,1.84066 -0.75586,2.28858 -0.50391,0.44791 -1.1128,0.67187 -1.82666,0.67187 M 0.705078,1.82129 C 0.411133,2.05924 -0.00179036,2.19922 -0.533691,2.24121 -1.06559,2.2832 -1.66048,2.01725 -2.31836,1.44336 -2.6263,1.14941 -2.88175,0.788981 -3.08472,0.362061 -3.28768,-0.06486 -3.44515,-0.481283 -3.55713,-0.887207 -3.66911,-1.34912 -3.77409,-1.81803 -3.87207,-2.29395 c 0.5459,0.08399 1.0778,0.18197 1.5957,0.29395 0.43392,0.11198 0.88884,0.25545 1.364749,0.43042 0.475911,0.17497 0.8678384,0.40243 1.175781,0.682373 0.657878,0.573893 0.96582,1.105794 0.92383,1.595703 C 1.146,1.1984 0.985026,1.56934 0.705078,1.82129 M 10.0273,4.92871 c 0.224,0.05599 0.4025,0.18197 0.5354,0.37793 0.133,0.19596 0.1715,0.41292 0.1155,0.65088 L 8.95654,12.8022 c -0.08398,0.42 -0.35693,0.6299 -0.81884,0.6299 H -3.05322 c -0.47591,0 -0.76286,-0.2099 -0.86084,-0.6299 L -6.58057,2.17822 h -1.32275 c -0.13997,0.41992 -0.41292,0.62989 -0.81885,0.62989 h -2.87643 c -0.238,0 -0.441,-0.08399 -0.6089,-0.25196 -0.168,-0.16797 -0.252,-0.37093 -0.252,-0.60888 0,-0.08399 0.028,-0.18197 0.084,-0.29395 -0.056,-0.16797 -0.084,-0.27995 -0.084,-0.33594 0,-0.23795 0.084,-0.440915 0.252,-0.608884 0.1679,-0.167969 0.3709,-0.251953 0.6089,-0.251953 h 5.7109 c 0.46192,0 0.73487,0.209961 0.81885,0.629887 L -2.40234,11.7104 H 7.44482 L 8.99854,5.5166 C 9.05452,5.29264 9.184,5.12467 9.38696,5.0127 9.58993,4.90072 9.80339,4.87272 10.0273,4.92871 M 7.23486,7.32227 H -2.23438 L -2.52832,5.78955 H 7.48682 L 7.23486,7.32227 M -1.62549,10.5557 -1.87744,9.04395 H 6.87793 L 6.62598,10.5557 h -8.25147"
         fill-rule="evenodd"
         vector-effect="none" />
    </g>
    <g
       id="g16"
       font-style="normal"
       font-weight="400"
       font-size="7.8px"
       font-family="'MS Shell Dlg 2'"
       stroke="none"
       fill-opacity="1"
       fill="#a61215" />
  </g>
</svg>
