<svg xmlns="http://www.w3.org/2000/svg" version="1.2" viewBox="0 0 42.52 42.52" height="56.693" width="56.693">
   <g stroke-linejoin="bevel" stroke-linecap="square" fill-rule="evenodd" stroke="none" fill="none" font-weight="400"
      font-size="7.8" font-family="'MS Shell Dlg 2'">
      <path
         d="M42.52 21.26C42.52 33 33 42.52 21.26 42.52 9.518 42.52 0 33 0 21.26 0 9.518 9.518 0 21.26 0 33 0 42.52 9.518 42.52 21.26"
         vector-effect="non-scaling-stroke" fill="#a61215" />
      <path
         d="M27.76 31.71c.476 0 .896.182 1.26.546.364.364.546.784.546 1.26 0 .49-.182.913-.546 1.27-.364.357-.784.536-1.26.536-.49 0-.907-.179-1.25-.536a1.771 1.771 0 01-.514-1.27c0-.476.172-.896.515-1.26s.759-.546 1.249-.546m-8.44 0c.49 0 .913.182 1.27.546.357.364.535.784.535 1.26 0 .49-.178.913-.535 1.27-.357.357-.78.536-1.27.536s-.907-.179-1.25-.536a1.771 1.771 0 01-.514-1.27c0-.476.171-.896.514-1.26.343-.364.76-.546 1.25-.546m3.968-14.823c.112 0 .189.014.23.042.043.028.092.056.148.084a.489.489 0 00.084.126v3.317c.434.028.787.077 1.06.147.273.07.518.154.735.252.217.098.41.228.577.389.168.16.364.325.588.493h-6.866c.224-.168.424-.332.599-.493.175-.161.367-.29.577-.389.21-.098.452-.182.724-.252.273-.07.627-.119 1.06-.147V17.14c0-.028.029-.07.085-.126.084-.084.217-.126.399-.126m2.31-.483c.321-.28.717-.507 1.186-.682.468-.175.92-.319 1.354-.43.518-.113 1.05-.21 1.595-.295-.084.476-.188.945-.314 1.407a8.278 8.278 0 01-.462 1.25 3.317 3.317 0 01-.777 1.08c-.658.575-1.26.84-1.806.799-.546-.042-.959-.182-1.239-.42-.294-.252-.455-.623-.483-1.113-.028-.49.287-1.022.945-1.596m-2.31-.378c-.727 0-1.34-.224-1.836-.672-.497-.448-.746-1.21-.746-2.288 0-.546.137-1.099.41-1.659.273-.56.563-1.085.87-1.575.379-.546.813-1.091 1.303-1.637.476.546.903 1.091 1.28 1.637.322.49.62 1.015.893 1.575s.41 1.113.41 1.659c0 1.078-.253 1.84-.757 2.288-.504.448-1.112.672-1.826.672m-1.89 3.087c-.294.238-.707.378-1.239.42-.532.042-1.127-.224-1.784-.798a3.63 3.63 0 01-.767-1.082 7.664 7.664 0 01-.472-1.249c-.112-.462-.217-.93-.315-1.407.546.084 1.078.182 1.596.294.433.112.888.256 1.364.43.476.176.868.403 1.176.683.658.574.966 1.106.924 1.596-.042.49-.203.86-.483 1.113m9.322 3.107a.89.89 0 01.536.378.79.79 0 01.115.65l-1.722 6.846c-.083.42-.356.63-.818.63H17.64c-.476 0-.763-.21-.861-.63L14.112 19.47H12.79c-.14.42-.413.63-.82.63H9.095a.83.83 0 01-.609-.253.83.83 0 01-.252-.608c0-.084.028-.182.084-.294a1.374 1.374 0 01-.084-.336.83.83 0 01.252-.61.83.83 0 01.61-.251h5.71c.462 0 .735.21.82.63l2.666 10.624h9.847l1.553-6.194a.765.765 0 01.389-.504.853.853 0 01.64-.084m-2.792 2.394h-9.47l-.293-1.533H28.18l-.252 1.533m-8.86 3.233l-.252-1.512h8.755l-.252 1.512h-8.252"
         fill-opacity=".949" fill="#fff" />
   </g>
</svg>