<svg xmlns="http://www.w3.org/2000/svg" version="1.2" viewBox="0 0 42.52 42.52" height="56.693" width="56.693">
   <g stroke-linejoin="bevel" stroke-linecap="square" fill-rule="evenodd" stroke="none" fill="none" font-weight="400"
      font-size="7.8" font-family="'MS Shell Dlg 2'">
      <path
         d="M42.52 21.26C42.52 33 33 42.52 21.26 42.52 9.518 42.52 0 33 0 21.26 0 9.518 9.518 0 21.26 0 33 0 42.52 9.518 42.52 21.26"
         vector-effect="non-scaling-stroke" fill="#a61215" />
      <path
         d="M31.35 9.412c.434 0 .84.084 1.218.252a3.282 3.282 0 011.68 1.68c.168.378.252.784.252 1.218v20.072c0 .434-.084.84-.252 1.218a3.282 3.282 0 01-1.68 1.68 2.964 2.964 0 01-1.218.252H11.278c-.434 0-.84-.084-1.218-.252a3.281 3.281 0 01-1.68-1.68 2.963 2.963 0 01-.251-1.218V12.562c0-.434.083-.84.251-1.218a3.282 3.282 0 011.68-1.68 2.964 2.964 0 011.218-.252H31.35m-10.813 2.415l1.323 5.564h1.365l.546-2.394c.07-.28.13-.556.178-.829.049-.273.095-.57.137-.892h.02c.057.602.147 1.176.273 1.721l.462 2.394h1.386l1.428-5.564h-1.28l-.463 2.289-.168.976c-.056.329-.105.64-.147.934h-.02c-.043-.294-.085-.595-.127-.903a12.223 12.223 0 00-.168-.944l-.44-2.352h-1.365l-.462 2.289c-.07.335-.133.671-.19 1.007-.055.336-.111.644-.167.924h-.021a178.622 178.622 0 00-.315-1.931l-.441-2.289h-1.344m-4.073 5.564h3.57v-1.029h-2.29V15.04h2.058v-1.028h-2.057v-1.155h2.183v-1.029h-3.464v5.564m-5.69.02h1.155v-1.7c0-.896-.021-1.7-.063-2.414h.042c.126.322.28.654.462.997.182.343.35.654.504.934l1.175 2.163h1.344v-5.564h-1.155v1.617c0 .42.007.822.021 1.207.014.385.035.76.063 1.123h-.02a14.171 14.171 0 00-.903-1.91l-1.176-2.037h-1.47l.021 5.585m21.08 2.016h-21.08v12.681c0 .28.101.522.304.725a.99.99 0 00.725.304h19.022a.99.99 0 00.725-.304.989.989 0 00.304-.725V19.428m-2.226-1.953c.77 0 1.337-.168 1.701-.504.364-.336.539-.742.525-1.218 0-.406-.115-.738-.346-.997-.231-.259-.592-.48-1.082-.661a4.996 4.996 0 01-.798-.368.485.485 0 01-.251-.43c0-.154.063-.284.188-.389.126-.105.33-.157.61-.157.28 0 .517.031.713.094.196.063.35.123.462.179l.294-1.008a4.978 4.978 0 00-.598-.2 3.183 3.183 0 00-.83-.094c-.671 0-1.193.164-1.564.493-.37.33-.556.732-.556 1.208 0 .406.143.738.43.997.287.259.655.472 1.102.64.35.112.595.228.735.347.14.119.21.27.21.451 0 .392-.294.588-.882.588-.265 0-.524-.035-.776-.105a3.551 3.551 0 01-.63-.23l-.252 1.028c.154.084.378.161.672.231.294.07.602.105.923.105m-17.405 4.304a.533.533 0 01-.378-.136.409.409 0 01-.147-.305c0-.112.049-.21.147-.294a.56.56 0 01.378-.126H20.2a.53.53 0 01.357.126.378.378 0 01.147.294.409.409 0 01-.147.305.506.506 0 01-.357.136h-7.978m0 1.974a.56.56 0 01-.378-.126.398.398 0 010-.62.533.533 0 01.378-.136H20.2c.14 0 .26.045.357.136a.398.398 0 010 .62.53.53 0 01-.357.126h-7.978m0 1.994a.533.533 0 01-.378-.136.398.398 0 010-.62.56.56 0 01.378-.125H20.2a.53.53 0 01.357.126.398.398 0 010 .619.506.506 0 01-.357.136h-7.978m0 1.974a.533.533 0 01-.378-.136.409.409 0 01-.147-.305c0-.112.049-.213.147-.304a.533.533 0 01.378-.137H20.2c.14 0 .26.046.357.137a.409.409 0 01.147.304.409.409 0 01-.147.305.505.505 0 01-.357.136h-7.978m0 1.974a.56.56 0 01-.378-.126.398.398 0 010-.62.533.533 0 01.378-.136H20.2c.14 0 .26.045.357.136a.398.398 0 010 .62.53.53 0 01-.357.126h-7.978m0 1.973a.533.533 0 01-.378-.136.398.398 0 010-.62.56.56 0 01.378-.126H20.2a.53.53 0 01.357.126.398.398 0 010 .62.505.505 0 01-.357.136h-7.978m10.204-9.889a.506.506 0 01-.357-.136.409.409 0 01-.147-.305c0-.112.049-.21.147-.294a.53.53 0 01.357-.126h8a.53.53 0 01.356.126.378.378 0 01.147.294.409.409 0 01-.147.305.506.506 0 01-.357.136h-8m0 1.974a.53.53 0 01-.356-.126.398.398 0 010-.62.506.506 0 01.357-.136h8c.14 0 .258.045.356.136a.398.398 0 010 .62.53.53 0 01-.357.126h-8m0 1.994a.506.506 0 01-.356-.136.398.398 0 010-.62.53.53 0 01.357-.125h8a.53.53 0 01.356.126.398.398 0 010 .619.506.506 0 01-.357.136h-8m0 1.974a.505.505 0 01-.356-.136.409.409 0 01-.147-.305c0-.112.049-.213.147-.304a.505.505 0 01.357-.137h8c.14 0 .258.046.356.137a.409.409 0 01.147.304.409.409 0 01-.147.305.505.505 0 01-.357.136h-8m0 1.974a.53.53 0 01-.356-.126.398.398 0 010-.62.505.505 0 01.357-.136h8c.14 0 .258.045.356.136a.398.398 0 010 .62.53.53 0 01-.357.126h-8m0 1.973a.505.505 0 01-.356-.136.398.398 0 010-.62.53.53 0 01.357-.126h8a.53.53 0 01.356.126.398.398 0 010 .62.505.505 0 01-.357.136h-8"
         fill-opacity=".949" fill="#fff" />
   </g>
</svg>