<?xml version="1.0" encoding="UTF-8" standalone="no"?>
<svg
   xmlns:dc="http://purl.org/dc/elements/1.1/"
   xmlns:cc="http://creativecommons.org/ns#"
   xmlns:rdf="http://www.w3.org/1999/02/22-rdf-syntax-ns#"
   xmlns:svg="http://www.w3.org/2000/svg"
   xmlns="http://www.w3.org/2000/svg"
   xmlns:sodipodi="http://sodipodi.sourceforge.net/DTD/sodipodi-0.dtd"
   xmlns:inkscape="http://www.inkscape.org/namespaces/inkscape"
   inkscape:version="1.0 (4035a4fb49, 2020-05-01)"
   sodipodi:docname="2112.svg"
   id="svg20"
   version="1.2"
   viewBox="0 0 42.519639 42.519639"
   height="14.999999mm"
   width="14.999999mm">
  <metadata
     id="metadata24">
    <rdf:RDF>
      <cc:Work
         rdf:about="">
        <dc:format>image/svg+xml</dc:format>
        <dc:type
           rdf:resource="http://purl.org/dc/dcmitype/StillImage" />
        <dc:title>Qt SVG Document</dc:title>
      </cc:Work>
    </rdf:RDF>
  </metadata>
  <sodipodi:namedview
     inkscape:current-layer="svg20"
     inkscape:window-maximized="0"
     inkscape:window-y="0"
     inkscape:window-x="0"
     inkscape:cy="28.346482"
     inkscape:cx="28.346482"
     inkscape:zoom="5.8410537"
     showgrid="false"
     id="namedview22"
     inkscape:window-height="480"
     inkscape:window-width="1034"
     inkscape:pageshadow="2"
     inkscape:pageopacity="0"
     guidetolerance="10"
     gridtolerance="10"
     objecttolerance="10"
     borderopacity="1"
     bordercolor="#666666"
     pagecolor="#ffffff" />
  <title
     id="title2">Qt SVG Document</title>
  <desc
     id="desc4">Generated with Qt</desc>
  <defs
     id="defs6" />
  <g
     transform="translate(5.25984,5.25984)"
     id="g18"
     stroke-linejoin="bevel"
     stroke-linecap="square"
     fill-rule="evenodd"
     stroke-width="1"
     stroke="#000000"
     fill="none">
    <g
       id="g10"
       font-style="normal"
       font-weight="400"
       font-size="7.8px"
       font-family="'MS Shell Dlg 2'"
       stroke="none"
       fill-opacity="1"
       fill="#a61215">
      <path
         id="path8"
         d="M 37.2598,16 C 37.2598,27.7415 27.7415,37.2598 16,37.2598 4.25851,37.2598 -5.25984,27.7415 -5.25984,16 -5.25984,4.25851 4.25851,-5.25984 16,-5.25984 27.7415,-5.25984 37.2598,4.25851 37.2598,16"
         fill-rule="evenodd"
         vector-effect="non-scaling-stroke" />
    </g>
    <g
       id="g14"
       font-style="normal"
       font-weight="400"
       font-size="7.8px"
       font-family="'MS Shell Dlg 2'"
       transform="translate(16,12.0315)"
       stroke="none"
       fill-opacity="0.94902"
       fill="#ffffff">
      <path
         id="path12"
         d="m 10.0903,-7.87891 c 0.434,0 0.8399,0.08399 1.2178,0.25196 0.3779,0.16797 0.7104,0.39542 0.9973,0.68237 0.287,0.28695 0.5144,0.61938 0.6824,0.99731 0.168,0.37793 0.2519,0.78386 0.2519,1.21778 V 15.3428 c 0,0.4339 -0.0839,0.8398 -0.2519,1.2177 -0.168,0.378 -0.3954,0.7104 -0.6824,0.9974 -0.2869,0.2869 -0.6194,0.5144 -0.9973,0.6823 -0.3779,0.168 -0.7838,0.252 -1.2178,0.252 H -9.98193 c -0.43397,0 -0.83987,-0.084 -1.21777,-0.252 -0.3779,-0.1679 -0.7104,-0.3954 -0.9973,-0.6823 -0.287,-0.287 -0.5144,-0.6194 -0.6824,-0.9974 -0.168,-0.3779 -0.2519,-0.7838 -0.2519,-1.2177 V -4.72949 c 0,-0.43392 0.0839,-0.83985 0.2519,-1.21778 0.168,-0.37793 0.3954,-0.71036 0.6824,-0.99731 0.2869,-0.28695 0.6194,-0.5144 0.9973,-0.68237 0.3779,-0.16797 0.7838,-0.25196 1.21777,-0.25196 H 10.0903 M -0.722656,-5.46436 0.600098,0.0996094 H 1.96484 L 2.51074,-2.29395 C 2.58073,-2.57389 2.64022,-2.85034 2.68921,-3.12329 2.7382,-3.39624 2.78369,-3.69368 2.82568,-4.01563 h 0.021 c 0.05599,0.60189 0.14697,1.17579 0.27295,1.72168 L 3.58154,0.0996094 H 4.96729 L 6.39502,-5.46436 H 5.11426 L 4.65234,-3.17578 C 4.59635,-2.85384 4.54036,-2.5284 4.48438,-2.19946 4.42839,-1.87052 4.37939,-1.55908 4.3374,-1.26514 H 4.31641 C 4.27441,-1.55908 4.23242,-1.86003 4.19043,-2.16797 4.14844,-2.47591 4.09245,-2.79085 4.02246,-3.11279 L 3.58154,-5.46436 H 2.2168 L 1.75488,-3.17578 C 1.6849,-2.83984 1.62191,-2.50391 1.56592,-2.16797 1.50993,-1.83203 1.45394,-1.52409 1.39795,-1.24414 h -0.021 C 1.33496,-1.51009 1.28597,-1.81453 1.22998,-2.15747 1.17399,-2.50041 1.118,-2.83984 1.06201,-3.17578 L 0.621094,-5.46436 h -1.34375 M -4.7959,0.0996094 h 3.56934 V -0.929199 H -3.51514 V -2.25195 h 2.05762 v -1.02881 h -2.05762 v -1.15479 h 2.1836 V -5.46436 H -4.7959 v 5.5639694 m -5.6899,0.0209956 h 1.15475 V -1.58008 c 0,-0.89583 -0.021,-1.70068 -0.06299,-2.41455 h 0.04199 c 0.12598,0.32194 0.27995,0.65438 0.46191,0.99732 0.18197,0.34293 0.34994,0.65437 0.50391,0.93432 l 1.17578,2.1625994 H -5.8667 V -5.46436 h -1.15478 v 1.6167 c 0,0.41993 0.00699,0.82235 0.02099,1.20728 0.014,0.38493 0.035,0.75936 0.06299,1.12329 h -0.021 c -0.26595,-0.68587 -0.56689,-1.32275 -0.90283,-1.91064 l -1.17578,-2.03663 h -1.46969 l 0.021,5.584965 m 21.08,2.015625 h -21.08 V 14.8179 c 0,0.2799 0.1014,0.5214 0.3044,0.7243 0.20297,0.203 0.44442,0.3045 0.72437,0.3045 H 9.56543 c 0.27995,0 0.52137,-0.1015 0.72437,-0.3045 0.203,-0.2029 0.3044,-0.4444 0.3044,-0.7243 V 2.13623 M 8.36865,0.183594 c 0.76986,0 1.33675,-0.167969 1.70065,-0.503907 0.364,-0.335937 0.5389,-0.741857 0.5249,-1.217777 0,-0.40592 -0.1154,-0.73836 -0.3464,-0.99731 C 10.0168,-2.79435 9.65641,-3.01481 9.1665,-3.19678 8.80257,-3.33675 8.53662,-3.45923 8.36865,-3.56421 8.20068,-3.66919 8.1167,-3.81266 8.1167,-3.99463 c 0,-0.15397 0.06299,-0.28345 0.18896,-0.38843 0.12598,-0.10498 0.32894,-0.15747 0.60889,-0.15747 0.27995,0 0.5179,0.0315 0.71387,0.09449 0.19596,0.06298 0.34993,0.12247 0.46188,0.17846 l 0.294,-1.00781 C 10.2163,-5.34538 10.0168,-5.41187 9.78589,-5.47485 9.55493,-5.53784 9.27848,-5.56934 8.95654,-5.56934 c -0.67187,0 -1.19328,0.16447 -1.56421,0.49341 -0.37093,0.32894 -0.55639,0.73137 -0.55639,1.20728 0,0.40592 0.14347,0.73836 0.43042,0.99731 0.28694,0.25895 0.65438,0.47241 1.10229,0.64038 0.34994,0.11198 0.59489,0.22746 0.73487,0.34644 0.13997,0.11898 0.20996,0.26945 0.20996,0.45141 0,0.39193 -0.29395,0.587895 -0.88184,0.587895 -0.26595,0 -0.5249,-0.034993 -0.77685,-0.10498 C 7.40283,-1.02018 7.19287,-1.09717 7.0249,-1.18115 L 6.77295,-0.152344 C 6.92692,-0.0683594 7.15088,0.0086263 7.44482,0.0786133 7.73877,0.1486 8.04671,0.183594 8.36865,0.183594 M -9.03711,4.48779 c -0.15397,0 -0.27995,-0.04549 -0.37793,-0.13647 -0.09798,-0.09098 -0.14697,-0.19247 -0.14697,-0.30444 0,-0.11198 0.04899,-0.20997 0.14697,-0.29395 0.09798,-0.08398 0.22396,-0.12598 0.37793,-0.12598 h 7.97852 c 0.13997,0 0.258948,0.042 0.35693,0.12598 0.097982,0.08398 0.146972,0.18197 0.146972,0.29395 0,0.11197 -0.04899,0.21346 -0.146972,0.30444 -0.097982,0.09098 -0.21696,0.13647 -0.35693,0.13647 h -7.97852 m 0,1.97364 c -0.15397,0 -0.27995,-0.042 -0.37793,-0.12598 -0.09798,-0.08399 -0.14697,-0.18897 -0.14697,-0.31494 0,-0.11198 0.04899,-0.21346 0.14697,-0.30445 0.09798,-0.09098 0.22396,-0.13647 0.37793,-0.13647 h 7.97852 c 0.13997,0 0.258948,0.04549 0.35693,0.13647 0.097982,0.09099 0.146972,0.19247 0.146972,0.30445 0,0.12597 -0.04899,0.23095 -0.146972,0.31494 -0.097982,0.08398 -0.21696,0.12598 -0.35693,0.12598 h -7.97852 m 0,1.99462 c -0.15397,0 -0.27995,-0.04549 -0.37793,-0.13647 -0.09798,-0.09098 -0.14697,-0.19246 -0.14697,-0.30444 0,-0.12598 0.04899,-0.23096 0.14697,-0.31494 0.09798,-0.08399 0.22396,-0.12598 0.37793,-0.12598 h 7.97852 c 0.13997,0 0.258948,0.04199 0.35693,0.12598 0.097982,0.08398 0.146972,0.18896 0.146972,0.31494 0,0.11198 -0.04899,0.21346 -0.146972,0.30444 -0.097982,0.09098 -0.21696,0.13647 -0.35693,0.13647 h -7.97852 m 0,1.97365 c -0.15397,0 -0.27995,-0.0455 -0.37793,-0.1365 -0.09798,-0.091 -0.14697,-0.1925 -0.14697,-0.30443 0,-0.11198 0.04899,-0.21346 0.14697,-0.30444 0.09798,-0.09099 0.22396,-0.13648 0.37793,-0.13648 h 7.97852 c 0.13997,0 0.258948,0.04549 0.35693,0.13648 0.097982,0.09098 0.146972,0.19246 0.146972,0.30444 0,0.11193 -0.04899,0.21343 -0.146972,0.30443 -0.097982,0.091 -0.21696,0.1365 -0.35693,0.1365 h -7.97852 m 0,1.9736 c -0.15397,0 -0.27995,-0.042 -0.37793,-0.126 -0.09798,-0.0839 -0.14697,-0.1889 -0.14697,-0.3149 0,-0.112 0.04899,-0.2135 0.14697,-0.3044 0.09798,-0.091 0.22396,-0.1365 0.37793,-0.1365 h 7.97852 c 0.13997,0 0.258948,0.0455 0.35693,0.1365 0.097982,0.0909 0.146972,0.1924 0.146972,0.3044 0,0.126 -0.04899,0.231 -0.146972,0.3149 -0.097982,0.084 -0.21696,0.126 -0.35693,0.126 h -7.97852 m 0,1.9737 c -0.15397,0 -0.27995,-0.0455 -0.37793,-0.1365 -0.09798,-0.091 -0.14697,-0.1925 -0.14697,-0.3045 0,-0.1259 0.04899,-0.2309 0.14697,-0.3149 0.09798,-0.084 0.22396,-0.126 0.37793,-0.126 h 7.97852 c 0.13997,0 0.258948,0.042 0.35693,0.126 0.097982,0.084 0.146972,0.189 0.146972,0.3149 0,0.112 -0.04899,0.2135 -0.146972,0.3045 -0.097982,0.091 -0.21696,0.1365 -0.35693,0.1365 H -9.03711 M 1.16699,4.48779 C 1.02702,4.48779 0.90804,4.4423 0.810059,4.35132 0.712077,4.26034 0.663086,4.15885 0.663086,4.04688 0.663086,3.9349 0.712077,3.83691 0.810059,3.75293 0.90804,3.66895 1.02702,3.62695 1.16699,3.62695 H 9.1665 c 0.13998,0 0.25896,0.042 0.35694,0.12598 0.09798,0.08398 0.14697,0.18197 0.14697,0.29395 0,0.11197 -0.04899,0.21346 -0.14697,0.30444 C 9.42546,4.4423 9.30648,4.48779 9.1665,4.48779 H 1.16699 m 0,1.97364 c -0.13997,0 -0.25895,-0.042 -0.356931,-0.12598 C 0.712077,6.25146 0.663086,6.14648 0.663086,6.02051 0.663086,5.90853 0.712077,5.80705 0.810059,5.71606 0.90804,5.62508 1.02702,5.57959 1.16699,5.57959 H 9.1665 c 0.13998,0 0.25896,0.04549 0.35694,0.13647 0.09798,0.09099 0.14697,0.19247 0.14697,0.30445 0,0.12597 -0.04899,0.23095 -0.14697,0.31494 C 9.42546,6.41943 9.30648,6.46143 9.1665,6.46143 H 1.16699 m 0,1.99462 C 1.02702,8.45605 0.90804,8.41056 0.810059,8.31958 0.712077,8.2286 0.663086,8.12712 0.663086,8.01514 0.663086,7.88916 0.712077,7.78418 0.810059,7.7002 0.90804,7.61621 1.02702,7.57422 1.16699,7.57422 H 9.1665 c 0.13998,0 0.25896,0.04199 0.35694,0.12598 0.09798,0.08398 0.14697,0.18896 0.14697,0.31494 0,0.11198 -0.04899,0.21346 -0.14697,0.30444 C 9.42546,8.41056 9.30648,8.45605 9.1665,8.45605 H 1.16699 m 0,1.97365 c -0.13997,0 -0.25895,-0.0455 -0.356931,-0.1365 -0.097982,-0.091 -0.146973,-0.1925 -0.146973,-0.30443 0,-0.11198 0.048991,-0.21346 0.146973,-0.30444 C 0.90804,9.59334 1.02702,9.54785 1.16699,9.54785 H 9.1665 c 0.13998,0 0.25896,0.04549 0.35694,0.13648 0.09798,0.09098 0.14697,0.19246 0.14697,0.30444 0,0.11193 -0.04899,0.21343 -0.14697,0.30443 -0.09798,0.091 -0.21696,0.1365 -0.35694,0.1365 H 1.16699 m 0,1.9736 c -0.13997,0 -0.25895,-0.042 -0.356931,-0.126 -0.097982,-0.0839 -0.146973,-0.1889 -0.146973,-0.3149 0,-0.112 0.048991,-0.2135 0.146973,-0.3044 C 0.90804,11.567 1.02702,11.5215 1.16699,11.5215 H 9.1665 c 0.13998,0 0.25896,0.0455 0.35694,0.1365 0.09798,0.0909 0.14697,0.1924 0.14697,0.3044 0,0.126 -0.04899,0.231 -0.14697,0.3149 -0.09798,0.084 -0.21696,0.126 -0.35694,0.126 H 1.16699 m 0,1.9737 c -0.13997,0 -0.25895,-0.0455 -0.356931,-0.1365 -0.097982,-0.091 -0.146973,-0.1925 -0.146973,-0.3045 0,-0.1259 0.048991,-0.2309 0.146973,-0.3149 0.097981,-0.084 0.216961,-0.126 0.356931,-0.126 H 9.1665 c 0.13998,0 0.25896,0.042 0.35694,0.126 0.09798,0.084 0.14697,0.189 0.14697,0.3149 0,0.112 -0.04899,0.2135 -0.14697,0.3045 C 9.42546,14.3315 9.30648,14.377 9.1665,14.377 H 1.16699"
         fill-rule="evenodd"
         vector-effect="none" />
    </g>
    <g
       id="g16"
       font-style="normal"
       font-weight="400"
       font-size="7.8px"
       font-family="'MS Shell Dlg 2'"
       stroke="none"
       fill-opacity="1"
       fill="#a61215" />
  </g>
</svg>
