<?xml version="1.0" encoding="UTF-8" standalone="no"?>
<svg width="11.2889mm" height="11.2889mm"
 viewBox="0 0 32 32"
 xmlns="http://www.w3.org/2000/svg" xmlns:xlink="http://www.w3.org/1999/xlink"  version="1.2" baseProfile="tiny">
<title>Qt SVG Document</title>
<desc>Generated with Qt</desc>
<defs>
</defs>
<g fill="none" stroke="black" stroke-width="1" fill-rule="evenodd" stroke-linecap="square" stroke-linejoin="bevel" >

<g fill="#ef4b65" fill-opacity="1" stroke="none" transform="matrix(1,0,0,1,0,0)"
font-family="MS Shell Dlg 2" font-size="7.8" font-weight="400" font-style="normal" 
>
<path vector-effect="non-scaling-stroke" fill-rule="evenodd" d="M37.2598,16 C37.2598,27.7415 27.7415,37.2598 16,37.2598 C4.25851,37.2598 -5.25984,27.7415 -5.25984,16 C-5.25984,4.25851 4.25851,-5.25984 16,-5.25984 C27.7415,-5.25984 37.2598,4.25851 37.2598,16 "/>
</g>

<g fill="#ffffff" fill-opacity="0.94902" stroke="none" transform="matrix(1,0,0,1,16.2835,10.3307)"
font-family="MS Shell Dlg 2" font-size="7.8" font-weight="400" font-style="normal" 
>
<path vector-effect="none" fill-rule="evenodd" d="M0.894043,-1.28613 L3.11963,-1.28613 L3.11963,0.708496 L0.894043,0.708496 L0.894043,2.93408 L-1.12158,2.93408 L-1.12158,0.708496 L-3.38916,0.708496 L-3.38916,-1.28613 L-1.12158,-1.28613 L-1.12158,-3.57471 L0.894043,-3.57471 L0.894043,-1.28613 M-7.44141,16.2876 L7.17188,16.2876 L7.17188,18.5132 L-7.44141,18.5132 L-7.44141,16.2876 M-13.2153,14.4399 L12.9458,14.4399 L12.9458,16.6865 L8.03271,16.6865 L8.03271,15.3218 L-8.30225,15.3218 L-8.30225,16.6865 L-13.2153,16.6865 L-13.2153,14.4399 M-12.1445,2.3252 L-13.2153,0.939453 L-0.155762,-7.77393 L12.9458,0.939453 L11.875,2.3252 L4.52637,2.3252 L4.52637,2.93408 L8.87256,2.93408 L11.0562,2.93408 L11.0562,6.44043 L11.0562,13.5371 L8.87256,13.5371 L4.3374,13.5371 L2.15381,13.5371 L2.15381,6.44043 C2.15381,5.96452 2.02083,5.5446 1.75488,5.18066 C1.48893,4.81673 1.146,4.55078 0.726074,4.38281 L-0.995605,4.38281 C-1.41553,4.55078 -1.75846,4.81673 -2.02441,5.18066 C-2.29036,5.5446 -2.42334,5.96452 -2.42334,6.44043 L-2.42334,13.5371 L-4.60693,13.5371 L-9.14209,13.5371 L-11.3257,13.5371 L-11.3257,6.44043 L-11.3257,2.93408 L-9.14209,2.93408 L-4.7959,2.93408 L-4.7959,2.3252 L-12.1445,2.3252 M4.3374,7.53223 L8.87256,7.53223 L8.87256,5.13867 L4.3374,5.13867 L4.3374,7.53223 M4.3374,11.7734 L8.87256,11.7734 L8.87256,9.40088 L4.3374,9.40088 L4.3374,11.7734 M-4.29199,3.85791 L4.02246,3.85791 L4.02246,-4.45654 L-4.29199,-4.45654 L-4.29199,3.85791 M-4.60693,9.40088 L-9.14209,9.40088 L-9.14209,11.7734 L-4.60693,11.7734 L-4.60693,9.40088 M-4.60693,5.13867 L-9.14209,5.13867 L-9.14209,7.53223 L-4.60693,7.53223 L-4.60693,5.13867"/>
</g>

<g fill="#ef4b65" fill-opacity="1" stroke="none" transform="matrix(1,0,0,1,0,0)"
font-family="MS Shell Dlg 2" font-size="7.8" font-weight="400" font-style="normal" 
>
</g>
</g>
</svg>
