<svg xmlns="http://www.w3.org/2000/svg" version="1.2" viewBox="0 0 42.52 42.52" height="56.693" width="56.693">
   <g stroke-linejoin="bevel" stroke-linecap="square" fill-rule="evenodd" stroke="none" fill="none" font-weight="400"
      font-size="7.8" font-family="'MS Shell Dlg 2'">
      <path
         d="M42.52 21.26C42.52 33 33 42.52 21.26 42.52 9.518 42.52 0 33 0 21.26 0 9.518 9.518 0 21.26 0 33 0 42.52 9.518 42.52 21.26"
         vector-effect="non-scaling-stroke" fill="#ef4b65" />
      <path
         d="M22.437 14.304h2.226V16.3h-2.226v2.226h-2.015v-2.226h-2.268v-1.995h2.268v-2.288h2.015v2.288m-8.335 17.574h14.613v2.226H14.102v-2.226M8.328 30.03h26.161v2.247h-4.913v-1.365H13.241v1.365H8.328V30.03m1.07-12.114l-1.07-1.386 13.06-8.713 13.101 8.713-1.07 1.386h-7.35v.609H32.6v10.603h-8.903V22.03a2.08 2.08 0 00-.399-1.26 2.314 2.314 0 00-1.029-.798h-1.721c-.42.168-.763.434-1.03.798a2.08 2.08 0 00-.398 1.26v7.097H10.218V18.525h6.529v-.61H9.4m16.482 5.208h4.535v-2.394H25.88v2.394m0 4.24h4.535v-2.372H25.88v2.373m-8.63-7.916h8.315v-8.314H17.25v8.314m-.315 5.543h-4.535v2.373h4.535V24.99m0-4.262h-4.535v2.394h4.535v-2.394"
         fill-opacity=".949" fill="#fff" />
   </g>
</svg>