<?xml version="1.0" encoding="UTF-8" standalone="no"?>
<svg
   xmlns:dc="http://purl.org/dc/elements/1.1/"
   xmlns:cc="http://creativecommons.org/ns#"
   xmlns:rdf="http://www.w3.org/1999/02/22-rdf-syntax-ns#"
   xmlns:svg="http://www.w3.org/2000/svg"
   xmlns="http://www.w3.org/2000/svg"
   xmlns:sodipodi="http://sodipodi.sourceforge.net/DTD/sodipodi-0.dtd"
   xmlns:inkscape="http://www.inkscape.org/namespaces/inkscape"
   inkscape:version="1.0 (4035a4fb49, 2020-05-01)"
   sodipodi:docname="2203.svg"
   id="svg20"
   version="1.2"
   viewBox="0 0 42.519639 42.519639"
   height="14.999999mm"
   width="14.999999mm">
  <metadata
     id="metadata24">
    <rdf:RDF>
      <cc:Work
         rdf:about="">
        <dc:format>image/svg+xml</dc:format>
        <dc:type
           rdf:resource="http://purl.org/dc/dcmitype/StillImage" />
        <dc:title>Qt SVG Document</dc:title>
      </cc:Work>
    </rdf:RDF>
  </metadata>
  <sodipodi:namedview
     inkscape:current-layer="svg20"
     inkscape:window-maximized="0"
     inkscape:window-y="0"
     inkscape:window-x="0"
     inkscape:cy="28.346482"
     inkscape:cx="28.346482"
     inkscape:zoom="5.8410537"
     showgrid="false"
     id="namedview22"
     inkscape:window-height="480"
     inkscape:window-width="1034"
     inkscape:pageshadow="2"
     inkscape:pageopacity="0"
     guidetolerance="10"
     gridtolerance="10"
     objecttolerance="10"
     borderopacity="1"
     bordercolor="#666666"
     pagecolor="#ffffff" />
  <title
     id="title2">Qt SVG Document</title>
  <desc
     id="desc4">Generated with Qt</desc>
  <defs
     id="defs6" />
  <g
     transform="translate(5.25984,5.25984)"
     id="g18"
     stroke-linejoin="bevel"
     stroke-linecap="square"
     fill-rule="evenodd"
     stroke-width="1"
     stroke="#000000"
     fill="none">
    <g
       id="g10"
       font-style="normal"
       font-weight="400"
       font-size="7.8px"
       font-family="'MS Shell Dlg 2'"
       stroke="none"
       fill-opacity="1"
       fill="#ef4b65">
      <path
         id="path8"
         d="M 37.2598,16 C 37.2598,27.7415 27.7415,37.2598 16,37.2598 4.25851,37.2598 -5.25984,27.7415 -5.25984,16 -5.25984,4.25851 4.25851,-5.25984 16,-5.25984 27.7415,-5.25984 37.2598,4.25851 37.2598,16"
         fill-rule="evenodd"
         vector-effect="non-scaling-stroke" />
    </g>
    <g
       id="g14"
       font-style="normal"
       font-weight="400"
       font-size="7.8px"
       font-family="'MS Shell Dlg 2'"
       transform="translate(15.4331,12.5984)"
       stroke="none"
       fill-opacity="0.94902"
       fill="#ffffff">
      <path
         id="path12"
         d="m -12.3086,7.97314 c 0,-1.28776 0.077,-2.54752 0.231,-3.77929 0.1539,-1.23177 0.4829,-2.33407 0.9868,-3.306887 0.5039,-0.9728191 1.20726,-1.760173 2.11009,-2.362063 0.90283,-0.60189 2.09611,-0.90283 3.57983,-0.90283 h 2.03662 V 10.7236 H -5.04395 C -5.12793,9.92578 -5.42887,9.2679 -5.94678,8.75 -6.46468,8.2321 -7.08057,7.97314 -7.79443,7.97314 c -0.75586,0 -1.40324,0.25896 -1.94214,0.77686 -0.53893,0.5179 -0.85733,1.17578 -0.95533,1.9736 h -1.6167 V 7.97314 m 6.90772,-9.36425 c -1.28776,0 -2.28857,0.24845 -3.00244,0.745358 -0.71387,0.496908 -1.24927,1.0778 -1.60618,1.742672 -0.357,0.66488 -0.5809,1.32626 -0.6719,1.98413 -0.091,0.65788 -0.1365,1.14079 -0.1365,1.44874 h 5.41702 v -5.9209 m 1.67969,-4.17823 0.35693,2.01563 h -2.81347 l 0.44091,-2.01563 h 2.01563 M 7.28076,9.31689 c 0.60189,0 1.11979,0.22046 1.55371,0.66138 0.43392,0.44093 0.65088,1.00433 0.65088,1.69023 0,0.6298 -0.21696,1.1757 -0.65088,1.6377 -0.43392,0.4619 -0.95182,0.6928 -1.55371,0.6928 -0.57389,0 -1.0743,-0.2309 -1.50122,-0.6928 -0.42692,-0.462 -0.64038,-1.0079 -0.64038,-1.6377 0,-0.6859 0.21346,-1.2493 0.64038,-1.69023 C 6.20646,9.53735 6.70687,9.31689 7.28076,9.31689 m -15.07519,0 c 0.57389,0 1.0603,0.22046 1.45922,0.66138 0.39893,0.44093 0.59839,1.00433 0.59839,1.69023 0,0.6298 -0.19946,1.1757 -0.59839,1.6377 -0.39892,0.4619 -0.88533,0.6928 -1.45922,0.6928 -0.67188,0 -1.20728,-0.2309 -1.6062,-0.6928 -0.39893,-0.462 -0.59839,-1.0079 -0.59839,-1.6377 0,-0.6859 0.19946,-1.2493 0.59839,-1.69023 0.39892,-0.44092 0.93432,-0.66138 1.6062,-0.66138 M 11.7949,-3.55371 V 9.56885 H 10.0522 C 9.89827,9.37288 9.69531,9.18392 9.44336,9.00195 9.2054,8.86198 8.91496,8.729 8.57202,8.60303 8.22909,8.47705 7.79867,8.41406 7.28076,8.41406 6.77686,8.41406 6.34993,8.47705 6,8.60303 5.65007,8.729 5.36312,8.86198 5.13916,9.00195 4.88721,9.18392 4.68424,9.37288 4.53027,9.56885 H -2.12549 V -3.55371 H 11.7949 M 8.79248,0.876465 H 6.20996 V -1.87402 H 3.54346 V 0.876465 H 0.960938 V 3.71094 H 3.54346 v 2.85547 h 2.6665 V 3.71094 H 8.79248 V 0.876465"
         fill-rule="evenodd"
         vector-effect="none" />
    </g>
    <g
       id="g16"
       font-style="normal"
       font-weight="400"
       font-size="7.8px"
       font-family="'MS Shell Dlg 2'"
       stroke="none"
       fill-opacity="1"
       fill="#ef4b65" />
  </g>
</svg>
