<svg xmlns="http://www.w3.org/2000/svg" version="1.2" viewBox="0 0 42.52 42.52" height="56.693" width="56.693">
   <g stroke-linejoin="bevel" stroke-linecap="square" fill-rule="evenodd" stroke="none" fill="none" font-weight="400"
      font-size="7.8" font-family="'MS Shell Dlg 2'">
      <path
         d="M42.52 21.26C42.52 33 33 42.52 21.26 42.52 9.518 42.52 0 33 0 21.26 0 9.518 9.518 0 21.26 0 33 0 42.52 9.518 42.52 21.26"
         vector-effect="non-scaling-stroke" fill="#ef4b65" />
      <path
         d="M8.384 25.831c0-1.287.077-2.547.231-3.779.154-1.232.483-2.334.987-3.307a6.242 6.242 0 012.11-2.362c.903-.602 2.096-.903 3.58-.903h2.037v13.102h-1.68c-.084-.798-.385-1.456-.903-1.974s-1.134-.777-1.847-.777c-.756 0-1.404.26-1.943.777-.539.518-.857 1.176-.955 1.974H8.384v-2.75m6.908-9.365c-1.288 0-2.289.249-3.002.745-.714.497-1.25 1.078-1.607 1.743a5.899 5.899 0 00-.671 1.984c-.091.658-.137 1.141-.137 1.449h5.417v-5.92m1.68-4.18l.357 2.017h-2.814l.441-2.016h2.016m11.002 14.886c.602 0 1.12.22 1.553.662.434.44.651 1.004.651 1.69 0 .63-.217 1.175-.65 1.637-.435.462-.952.693-1.554.693-.574 0-1.075-.23-1.502-.693a2.333 2.333 0 01-.64-1.637c0-.686.214-1.25.64-1.69.427-.441.928-.662 1.502-.662m-15.075 0c.573 0 1.06.22 1.459.662.399.44.598 1.004.598 1.69 0 .63-.2 1.175-.598 1.637-.4.462-.886.693-1.46.693-.671 0-1.207-.23-1.606-.693a2.425 2.425 0 01-.598-1.637c0-.686.2-1.25.598-1.69.4-.441.935-.662 1.607-.662m19.589-12.87v13.122h-1.743a3 3 0 00-.609-.567 5.409 5.409 0 00-.871-.399c-.343-.126-.773-.189-1.291-.189-.504 0-.931.063-1.281.19-.35.125-.637.258-.86.398a3 3 0 00-.61.567h-6.656V14.305h13.92m-3.002 4.43h-2.582v-2.75h-2.667v2.75h-2.582v2.834h2.582v2.856h2.667v-2.856h2.582v-2.834"
         fill-opacity=".949" fill="#fff" />
   </g>
</svg>