<svg xmlns="http://www.w3.org/2000/svg" version="1.2" viewBox="0 0 42.52 42.52" height="56.693" width="56.693">
   <g stroke-linejoin="bevel" stroke-linecap="square" fill-rule="evenodd" stroke="none" fill="none" font-weight="400"
      font-size="7.8" font-family="'MS Shell Dlg 2'">
      <path
         d="M42.52 21.26C42.52 33 33 42.52 21.26 42.52 9.518 42.52 0 33 0 21.26 0 9.518 9.518 0 21.26 0 33 0 42.52 9.518 42.52 21.26"
         vector-effect="non-scaling-stroke" fill="#ef4b65" />
      <path
         d="M14.574 18.23h-3.842v-3.82h3.842v-3.885h3.822v3.885h3.863v3.82h-3.863v3.822h-3.822v-3.821m18.519 6.53c.154.084.35.185.588.304.238.12.472.256.703.41.231.154.434.311.609.472.175.16.262.325.262.493 0 .084-.06.2-.178.347-.119.147-.248.29-.388.43s-.29.277-.452.41a5.003 5.003 0 01-.367.283 4.44 4.44 0 01-1.659.378c-.616.028-1.253.042-1.91.042 0 .21.115.392.346.546.23.154.43.3.598.44.238.183.462.33.672.442.21.112.392.252.546.42-.322.378-.696.595-1.123.65a3.754 3.754 0 01-1.355-.083 10.716 10.716 0 01-1.396-.43 8.89 8.89 0 00-1.25-.39c-.461.323-.793.718-.996 1.187a6.282 6.282 0 00-.43 1.438c-.085.49-.148.977-.19 1.46-.042.482-.147.899-.315 1.249h-1.68c.113-.602.197-1.253.253-1.953.056-.7.15-1.365.283-1.995.133-.63.318-1.168.556-1.616a1.725 1.725 0 011.092-.882 1.77 1.77 0 01.977.02c.3.099.59.064.87-.104.183-.154.309-.329.379-.525s.23-.322.483-.378c.056-.238.143-.413.262-.525a.553.553 0 00.179-.42c0-.238-.109-.469-.326-.693-.217-.224-.395-.524-.535-.902-.168-.49-.326-.865-.473-1.124-.147-.259-.41-.542-.787-.85a6.048 6.048 0 00-.724-.504c-.26-.154-.389-.35-.389-.588a.572.572 0 01.042-.378c.056-.112.13-.21.22-.294.092-.084.18-.171.263-.262a.701.701 0 00.168-.347c-.252.14-.493.284-.724.43-.231.148-.48.291-.746.431.056-.322.137-.64.242-.955a1.58 1.58 0 00.031-.934h-.189a10.454 10.454 0 00-1.952 1.847 69.366 69.366 0 00-1.827 2.3c-.602.79-1.204 1.564-1.806 2.32a12.159 12.159 0 01-1.931 1.952 13.36 13.36 0 01-1.48.44c-.385.085-.721.14-1.008.169a5.657 5.657 0 01-.84.02 7.766 7.766 0 00-.966.022c-.37.028-.815.084-1.333.168s-1.176.23-1.974.44c-.182.057-.028-.045.462-.304.49-.259 1.106-.567 1.848-.923.742-.357 1.522-.746 2.34-1.166.82-.42 1.488-.784 2.006-1.092a20.509 20.509 0 002.803-2.194 30.808 30.808 0 012.614-2.194 8.884 8.884 0 01.514-1.89c.231-.573.49-1.112.777-1.616.287-.504.595-.99.924-1.46.329-.468.64-.962.934-1.48.168.252.294.557.378.914.084.357.154.724.21 1.102.238-.224.42-.472.546-.745.126-.273.315-.5.567-.683-.168.518-.245 1.145-.231 1.88.014.734.091 1.389.231 1.963.406.196.801.402 1.186.619.385.217.753.48 1.103.787.322.322.587.655.797.998.21.343.476.717.798 1.123.224.252.546.507.966.766.42.26.854.515 1.302.767"
         fill-opacity=".949" fill="#fff" />
   </g>
</svg>