<?xml version="1.0" encoding="UTF-8" standalone="no"?>
<svg
   xmlns:dc="http://purl.org/dc/elements/1.1/"
   xmlns:cc="http://creativecommons.org/ns#"
   xmlns:rdf="http://www.w3.org/1999/02/22-rdf-syntax-ns#"
   xmlns:svg="http://www.w3.org/2000/svg"
   xmlns="http://www.w3.org/2000/svg"
   xmlns:sodipodi="http://sodipodi.sourceforge.net/DTD/sodipodi-0.dtd"
   xmlns:inkscape="http://www.inkscape.org/namespaces/inkscape"
   inkscape:version="1.0 (4035a4fb49, 2020-05-01)"
   sodipodi:docname="2204.svg"
   id="svg20"
   version="1.2"
   viewBox="0 0 42.519639 42.519639"
   height="14.999999mm"
   width="14.999999mm">
  <metadata
     id="metadata24">
    <rdf:RDF>
      <cc:Work
         rdf:about="">
        <dc:format>image/svg+xml</dc:format>
        <dc:type
           rdf:resource="http://purl.org/dc/dcmitype/StillImage" />
        <dc:title>Qt SVG Document</dc:title>
      </cc:Work>
    </rdf:RDF>
  </metadata>
  <sodipodi:namedview
     inkscape:current-layer="svg20"
     inkscape:window-maximized="0"
     inkscape:window-y="0"
     inkscape:window-x="0"
     inkscape:cy="28.346482"
     inkscape:cx="28.346482"
     inkscape:zoom="5.8410537"
     showgrid="false"
     id="namedview22"
     inkscape:window-height="480"
     inkscape:window-width="1034"
     inkscape:pageshadow="2"
     inkscape:pageopacity="0"
     guidetolerance="10"
     gridtolerance="10"
     objecttolerance="10"
     borderopacity="1"
     bordercolor="#666666"
     pagecolor="#ffffff" />
  <title
     id="title2">Qt SVG Document</title>
  <desc
     id="desc4">Generated with Qt</desc>
  <defs
     id="defs6" />
  <g
     transform="translate(5.25984,5.25984)"
     id="g18"
     stroke-linejoin="bevel"
     stroke-linecap="square"
     fill-rule="evenodd"
     stroke-width="1"
     stroke="#000000"
     fill="none">
    <g
       id="g10"
       font-style="normal"
       font-weight="400"
       font-size="7.8px"
       font-family="'MS Shell Dlg 2'"
       stroke="none"
       fill-opacity="1"
       fill="#ef4b65">
      <path
         id="path8"
         d="M 37.2598,16 C 37.2598,27.7415 27.7415,37.2598 16,37.2598 4.25851,37.2598 -5.25984,27.7415 -5.25984,16 -5.25984,4.25851 4.25851,-5.25984 16,-5.25984 27.7415,-5.25984 37.2598,4.25851 37.2598,16"
         fill-rule="evenodd"
         vector-effect="non-scaling-stroke" />
    </g>
    <g
       id="g14"
       font-style="normal"
       font-weight="400"
       font-size="7.8px"
       font-family="'MS Shell Dlg 2'"
       transform="translate(16.5669,13.1654)"
       stroke="none"
       fill-opacity="0.94902"
       fill="#ffffff">
      <path
         id="path12"
         d="M -7.25244,-0.194336 H -11.0947 V -4.01563 h 3.84226 V -7.8999 h 3.82129 v 3.88427 h 3.863279 v 3.821294 H -3.43115 V 3.62695 H -7.25244 V -0.194336 M 11.2661,6.33545 c 0.154,0.08398 0.3499,0.18546 0.5879,0.30444 0.238,0.11898 0.4724,0.25546 0.7034,0.40943 0.2309,0.15397 0.4339,0.31144 0.6089,0.47241 0.1749,0.16097 0.2624,0.32544 0.2624,0.49341 0,0.08398 -0.0595,0.19946 -0.1785,0.34643 -0.1189,0.14697 -0.2484,0.29045 -0.3884,0.43042 -0.14,0.13998 -0.2904,0.27645 -0.4514,0.40943 -0.161,0.13297 -0.2834,0.22745 -0.3674,0.28344 -0.4899,0.22396 -1.0428,0.34994 -1.6587,0.37793 -0.61591,0.028 -1.25279,0.042 -1.91067,0.042 0,0.20991 0.11548,0.39191 0.34644,0.54591 0.23096,0.154 0.43042,0.3009 0.59839,0.4409 0.23795,0.182 0.46191,0.3289 0.67184,0.4409 0.21,0.112 0.392,0.252 0.5459,0.4199 -0.3219,0.378 -0.69634,0.5949 -1.12326,0.6509 -0.42692,0.056 -0.87834,0.028 -1.35425,-0.084 C 7.68278,12.2074 7.21737,12.0639 6.76245,11.8889 6.30754,11.7139 5.89111,11.5845 5.51318,11.5005 5.05127,11.8224 4.71883,12.2179 4.51587,12.6868 4.31291,13.1557 4.16943,13.6351 4.08545,14.125 4.00146,14.6149 3.93848,15.1013 3.89648,15.5842 3.85449,16.0671 3.74951,16.4836 3.58154,16.8335 H 1.90186 C 2.01383,16.2316 2.09782,15.5807 2.15381,14.8809 2.2098,14.181 2.30428,13.5161 2.43726,12.8862 2.57023,12.2563 2.7557,11.7174 2.99365,11.2695 c 0.23796,-0.4479 0.60189,-0.7418 1.0918,-0.8818 0.34993,-0.084 0.67537,-0.077 0.97632,0.021 0.30094,0.098 0.59139,0.063 0.87134,-0.105 C 6.11507,10.1497 6.24105,9.97477 6.31104,9.77881 6.38102,9.58285 6.54199,9.45687 6.79395,9.40088 6.84993,9.16292 6.93742,8.98796 7.0564,8.87598 7.17537,8.764 7.23486,8.62402 7.23486,8.45605 7.23486,8.2181 7.12638,7.98714 6.90942,7.76318 6.69246,7.53923 6.514,7.23828 6.37402,6.86035 6.20605,6.37044 6.04858,5.99601 5.90161,5.73706 5.75464,5.47811 5.49219,5.19466 5.11426,4.88672 4.8903,4.70475 4.64884,4.53678 4.38989,4.38281 4.13094,4.22884 4.00146,4.03288 4.00146,3.79492 3.97347,3.65495 3.98747,3.52897 4.04346,3.41699 4.09945,3.30501 4.17293,3.20703 4.26392,3.12305 4.3549,3.03906 4.44238,2.95158 4.52637,2.8606 4.61035,2.76961 4.66634,2.65413 4.69434,2.51416 4.44238,2.65413 4.20093,2.79761 3.96997,2.94458 3.73901,3.09155 3.49056,3.23503 3.22461,3.375 3.2806,3.05306 3.36108,2.73462 3.46606,2.41968 3.57104,2.10474 3.58154,1.79329 3.49756,1.48535 H 3.30859 C 2.62272,1.97526 1.97184,2.59115 1.35596,3.33301 0.740072,4.07487 0.131185,4.84123 -0.470703,5.63208 -1.07259,6.42293 -1.67448,7.19629 -2.27637,7.95215 -2.87826,8.70801 -3.52214,9.35889 -4.20801,9.90479 -4.8099,10.1147 -5.3033,10.2617 -5.68823,10.3457 c -0.38493,0.084 -0.72087,0.14 -1.00781,0.168 -0.28695,0.028 -0.5669,0.035 -0.83985,0.021 -0.27295,-0.014 -0.59489,-0.007 -0.96582,0.021 -0.37093,0.028 -0.81535,0.0839 -1.33325,0.1679 -0.51794,0.084 -1.17574,0.231 -1.97364,0.441 -0.182,0.0559 -0.028,-0.0455 0.4619,-0.3045 0.4899,-0.2589 1.1058,-0.5669 1.84768,-0.92382 C -8.75716,9.57935 -7.97681,9.19092 -7.15796,8.771 -6.33911,8.35107 -5.67074,7.98714 -5.15283,7.6792 -4.14502,7.02132 -3.21069,6.28996 -2.34985,5.48511 -1.48901,4.68026 -0.617676,3.94889 0.26416,3.29102 0.376139,2.60514 0.547607,1.97526 0.778564,1.40137 1.00952,0.827474 1.26847,0.288574 1.55542,-0.215332 1.84237,-0.719238 2.15031,-1.20565 2.47925,-1.67456 c 0.32894,-0.46891 0.64038,-0.96232 0.93432,-1.48023 0.16797,0.25196 0.29395,0.5564 0.37793,0.91333 0.08399,0.35694 0.15398,0.72437 0.20996,1.1023 0.23796,-0.22396 0.41993,-0.47241 0.5459,-0.74536 C 4.67334,-2.15747 4.8623,-2.38493 5.11426,-2.56689 4.94629,-2.04899 4.8693,-1.42261 4.8833,-0.687744 4.8973,0.0471191 4.97428,0.701497 5.11426,1.27539 5.52018,1.47135 5.91561,1.67782 6.30054,1.89478 6.68547,2.11174 7.0529,2.37419 7.40283,2.68213 7.72477,3.00407 7.99072,3.33651 8.20068,3.67944 8.41064,4.02238 8.6766,4.39681 8.99854,4.80273 9.22249,5.05469 9.54443,5.31014 9.96436,5.56909 10.3843,5.82804 10.8182,6.0835 11.2661,6.33545"
         fill-rule="evenodd"
         vector-effect="none" />
    </g>
    <g
       id="g16"
       font-style="normal"
       font-weight="400"
       font-size="7.8px"
       font-family="'MS Shell Dlg 2'"
       stroke="none"
       fill-opacity="1"
       fill="#ef4b65" />
  </g>
</svg>
