<?xml version="1.0" encoding="UTF-8" standalone="no"?>
<svg
   xmlns:dc="http://purl.org/dc/elements/1.1/"
   xmlns:cc="http://creativecommons.org/ns#"
   xmlns:rdf="http://www.w3.org/1999/02/22-rdf-syntax-ns#"
   xmlns:svg="http://www.w3.org/2000/svg"
   xmlns="http://www.w3.org/2000/svg"
   xmlns:sodipodi="http://sodipodi.sourceforge.net/DTD/sodipodi-0.dtd"
   xmlns:inkscape="http://www.inkscape.org/namespaces/inkscape"
   inkscape:version="1.0 (4035a4fb49, 2020-05-01)"
   sodipodi:docname="2205.svg"
   id="svg20"
   version="1.2"
   viewBox="0 0 42.519639 42.519639"
   height="14.999999mm"
   width="14.999999mm">
  <metadata
     id="metadata24">
    <rdf:RDF>
      <cc:Work
         rdf:about="">
        <dc:format>image/svg+xml</dc:format>
        <dc:type
           rdf:resource="http://purl.org/dc/dcmitype/StillImage" />
        <dc:title>Qt SVG Document</dc:title>
      </cc:Work>
    </rdf:RDF>
  </metadata>
  <sodipodi:namedview
     inkscape:current-layer="svg20"
     inkscape:window-maximized="0"
     inkscape:window-y="0"
     inkscape:window-x="0"
     inkscape:cy="28.346482"
     inkscape:cx="28.346482"
     inkscape:zoom="5.8410537"
     showgrid="false"
     id="namedview22"
     inkscape:window-height="480"
     inkscape:window-width="1034"
     inkscape:pageshadow="2"
     inkscape:pageopacity="0"
     guidetolerance="10"
     gridtolerance="10"
     objecttolerance="10"
     borderopacity="1"
     bordercolor="#666666"
     pagecolor="#ffffff" />
  <title
     id="title2">Qt SVG Document</title>
  <desc
     id="desc4">Generated with Qt</desc>
  <defs
     id="defs6" />
  <g
     transform="translate(5.25984,5.25984)"
     id="g18"
     stroke-linejoin="bevel"
     stroke-linecap="square"
     fill-rule="evenodd"
     stroke-width="1"
     stroke="#000000"
     fill="none">
    <g
       id="g10"
       font-style="normal"
       font-weight="400"
       font-size="7.8px"
       font-family="'MS Shell Dlg 2'"
       stroke="none"
       fill-opacity="1"
       fill="#ef4b65">
      <path
         id="path8"
         d="M 37.2598,16 C 37.2598,27.7415 27.7415,37.2598 16,37.2598 4.25851,37.2598 -5.25984,27.7415 -5.25984,16 -5.25984,4.25851 4.25851,-5.25984 16,-5.25984 27.7415,-5.25984 37.2598,4.25851 37.2598,16"
         fill-rule="evenodd"
         vector-effect="non-scaling-stroke" />
    </g>
    <g
       id="g14"
       font-style="normal"
       font-weight="400"
       font-size="7.8px"
       font-family="'MS Shell Dlg 2'"
       transform="translate(16.2835,12.5984)"
       stroke="none"
       fill-opacity="0.94902"
       fill="#ffffff">
      <path
         id="path12"
         d="m 0.138184,-2.16797 c -0.405925,0 -0.738363,-0.14347 -0.997315,-0.43042 -0.258949,-0.28695 -0.388429,-0.63338 -0.388429,-1.03931 0,-0.43391 0.12948,-0.80834 0.388429,-1.12329 0.258952,-0.31494 0.59139,-0.47241 0.997315,-0.47241 0.377929,0 0.706868,0.15747 0.986816,0.47241 0.27995,0.31495 0.41992,0.68938 0.41992,1.12329 0,0.40593 -0.13997,0.75236 -0.41992,1.03931 -0.279948,0.28695 -0.608887,0.43042 -0.986816,0.43042 M 11.749,-1.34912 c 0.252,0 0.5214,-0.04549 0.8084,-0.13648 0.2869,-0.09098 0.5319,-0.15747 0.7348,-0.19946 0.203,-0.04199 0.3255,-0.03499 0.3675,0.021 0.042,0.05599 -0.035,0.21696 -0.231,0.48291 -0.2099,0.223956 -0.4514,0.444415 -0.7244,0.661375 -0.2729,0.216959 -0.5878,0.360433 -0.9448,0.4304195 -0.3569,0.069987 -0.7838,0.0419922 -1.2807,-0.0839845 -0.49695,-0.125976 -1.09534,-0.433919 -1.79521,-0.92383 -0.13997,-0.08398 -0.20996,-0.07698 -0.20996,0.021 0,0.09798 0.08049,0.234455 0.24146,0.409422 0.16097,0.174967 0.39192,0.367432 0.69287,0.5773925 0.30094,0.2099605 0.71034,0.3919275 1.22824,0.5458985 0.196,0.05599 0.4235,0.069987 0.6824,0.041992 0.259,-0.027995 0.4969,-0.048991 0.7139,-0.062988 0.2169,-0.013998 0.3674,-0.006999 0.4514,0.020996 0.084,0.027995 0.042,0.111979 -0.126,0.251953 C 11.952,1.11442 11.5391,1.36637 11.1191,1.46436 10.6992,1.56234 10.2828,1.59733 9.86987,1.56934 9.45695,1.54134 9.05802,1.47835 8.6731,1.38037 8.28817,1.28239 7.94873,1.2334 7.65479,1.2334 7.29085,1.2334 6.97941,1.32438 6.72046,1.50635 6.46151,1.68831 6.20256,1.90177 5.9436,2.14673 5.68465,2.39168 5.39771,2.60864 5.08276,2.79761 4.76782,2.98657 4.3514,3.08105 3.8335,3.08105 c -1.52572,0 -2.28858,-0.81884 -2.28858,-2.456538 0,-0.489909 0.12248,-1.000814 0.36743,-1.532715 0.24496,-0.531897 0.58439,-1.018307 1.01831,-1.459227 0.43392,-0.44092 0.94483,-0.80485 1.53272,-1.0918 0.58789,-0.28695 1.21077,-0.43042 1.86865,-0.43042 0.5179,0 1.01831,0.05599 1.50122,0.16797 0.48291,0.11198 0.94833,0.23446 1.39624,0.36743 0.44792,0.13298 0.85731,0.24846 1.22831,0.34644 0.3709,0.09798 0.7173,0.14697 1.0393,0.14697 0.3919,-0.02799 0.7313,-0.09798 1.0183,-0.20996 0.2869,-0.11198 0.5249,-0.22746 0.7138,-0.34644 0.189,-0.11897 0.3255,-0.19246 0.4095,-0.22046 0.084,-0.02799 0.1259,0.028 0.1259,0.16797 0,0.18197 -0.0559,0.40943 -0.1679,0.68238 -0.112,0.27295 -0.3395,0.5004 -0.6824,0.68237 -0.3429,0.18197 -0.8223,0.27295 -1.4382,0.27295 -0.6159,0 -1.4278,-0.16797 -2.43557,-0.50391 -0.20996,-0.09798 -0.31494,-0.10148 -0.31494,-0.0105 0,0.09099 0.10848,0.21346 0.32544,0.36744 0.21696,0.15397 0.54939,0.29744 0.99727,0.43042 0.448,0.13297 1.0149,0.19946 1.7007,0.19946 M -1.24756,0.624512 c 0,0.797848 -0.19946,1.406738 -0.59839,1.826658 -0.39892,0.41992 -0.95532,0.62988 -1.66919,0.62988 -0.5179,0 -0.94132,-0.09448 -1.27026,-0.28344 C -5.11434,2.60864 -5.41528,2.39168 -5.68823,2.14673 -5.96118,1.90177 -6.22713,1.68831 -6.48608,1.50635 -6.74504,1.32438 -7.06348,1.2334 -7.44141,1.2334 c -0.30794,0 -0.64738,0.04899 -1.01831,0.14697 -0.37093,0.09798 -0.76635,0.16097 -1.18628,0.18897 -0.4199,0.02799 -0.8433,-0.007 -1.2703,-0.10498 -0.4269,-0.09799 -0.8293,-0.34994 -1.2072,-0.755864 -0.168,-0.139974 -0.21,-0.223958 -0.126,-0.251953 0.084,-0.027995 0.2344,-0.034994 0.4514,-0.020996 0.217,0.013997 0.4549,0.034993 0.7139,0.062988 0.2589,0.027995 0.4864,0.013998 0.6823,-0.041992 0.51795,-0.153971 0.92737,-0.335938 1.22832,-0.5458985 0.30094,-0.2099605 0.5319,-0.4024255 0.69287,-0.5773925 0.16097,-0.174967 0.23095,-0.311442 0.20996,-0.409422 -0.021,-0.09798 -0.08749,-0.10498 -0.19946,-0.021 -0.68588,0.489911 -1.28077,0.797854 -1.78469,0.92383 -0.5039,0.1259767 -0.9413,0.1539715 -1.3122,0.0839845 -0.371,-0.0699865 -0.6859,-0.2134605 -0.9449,-0.4304195 -0.2589,-0.21696 -0.4864,-0.437419 -0.6823,-0.661375 -0.224,-0.26595 -0.308,-0.42692 -0.252,-0.48291 0.056,-0.05599 0.182,-0.06299 0.3779,-0.021 0.196,0.04199 0.4375,0.10848 0.7244,0.19946 0.287,0.09099 0.5634,0.13648 0.8294,0.13648 0.6858,0 1.2527,-0.06649 1.70064,-0.19946 0.44791,-0.13298 0.77685,-0.27645 0.98681,-0.43042 0.20996,-0.15398 0.31494,-0.27645 0.31494,-0.36744 0,-0.09098 -0.09798,-0.08748 -0.29394,0.0105 -1.00781,0.33594 -1.81965,0.50391 -2.43555,0.50391 -0.6159,0 -1.0953,-0.09098 -1.4382,-0.27295 -0.343,-0.18197 -0.5704,-0.40942 -0.6824,-0.68237 -0.112,-0.27295 -0.168,-0.50041 -0.168,-0.68238 0,-0.13997 0.049,-0.19596 0.147,-0.16797 0.098,0.028 0.2415,0.10149 0.4304,0.22046 0.189,0.11898 0.4269,0.23446 0.7139,0.34644 0.2869,0.11198 0.6124,0.18197 0.9763,0.20996 0.2939,0 0.6404,-0.04899 1.0393,-0.14697 0.39894,-0.09798 0.81886,-0.21346 1.25978,-0.34644 0.44091,-0.13297 0.89933,-0.25545 1.37524,-0.36743 0.47591,-0.11198 0.95882,-0.16797 1.44873,-0.16797 0.68587,0 1.32276,0.14347 1.91065,0.43042 0.58789,0.28695 1.10229,0.65088 1.54321,1.0918 0.44092,0.44092 0.79085,0.92733 1.0498,1.459227 0.25896,0.531901 0.38843,1.042806 0.38843,1.532715 M -0.386719,10.7236 c 0,-0.2519 -0.013997,-0.4934 -0.041992,-0.72433 -0.027995,-0.23096 -0.041992,-0.47241 -0.041992,-0.72437 0.083984,0 0.171468,-0.01749 0.262451,-0.05249 0.090983,-0.03499 0.1784668,-0.05249 0.2624512,-0.05249 0.0839848,0 0.1889648,0.0175 0.3149418,0.05249 0.125976,0.035 0.237955,0.05249 0.335937,0.05249 0,0.25196 0,0.48641 0,0.70337 0,0.21693 -0.034993,0.43743 -0.10498,0.66133 H 0.516113 c -0.083984,0.056 -0.16097,0.084 -0.230957,0.084 -0.069987,0 -0.146972,0.028 -0.2309568,0.084 h -0.0839844 c -0.0559895,0 -0.0979818,-0.014 -0.1259768,-0.042 -0.027995,-0.028 -0.076985,-0.042 -0.146972,-0.042 h -0.083985 m 0.188965,4.3882 c 0.05599,-0.056 0.0979819,-0.084 0.1259767,-0.084 0.0279947,0 0.06998694,-0.028 0.1259765,-0.084 0.0559898,0.056 0.1189778,0.098 0.1889648,0.126 0.069987,0.028 0.132975,0.07 0.188965,0.126 -0.05599,0.5739 -0.104981,1.0323 -0.146973,1.3752 -0.041992,0.343 -0.090983,0.5144 -0.146972,0.5144 -0.0839848,0 -0.14697306,-0.1784 -0.1889653,-0.5354 -0.0419921,-0.3569 -0.0909827,-0.8363 -0.1469727,-1.4382 m 0,-1.5117 h -0.10498 c 0,-0.252 0,-0.5074 0,-0.7664 0,-0.2589 -0.027995,-0.5424 -0.083985,-0.8503 0.181966,0 0.3009443,-0.028 0.3569338,-0.084 0.0839844,0.056 0.1889652,0.084 0.3149412,0.084 0.125977,0 0.230957,0.028 0.314942,0.084 -0.05599,0.2519 -0.083985,0.5004 -0.083985,0.7453 0,0.245 0,0.4795 0,0.7034 H 0.432129 c -0.05599,0.056 -0.104981,0.1015 -0.146973,0.1365 -0.041992,0.035 -0.090983,0.0805 -0.146972,0.1365 -0.05599,0 -0.0839848,0.028 -0.0839848,0.0839 L -0.197754,13.6001 M -0.554688,6.46143 C -0.288737,6.37744 -0.11377,6.29346 -0.0297852,6.20947 0.0262044,6.15348 0.0541992,6.11149 0.0541992,6.0835 c 0,-0.028 0.0279948,-0.06999 0.0839848,-0.12598 0,0.11198 0.027994,0.19596 0.083984,0.25195 0.139974,0.05599 0.328939,0.13998 0.566895,0.25196 0,0.23795 0,0.44091 0,0.60888 0,0.16797 -0.027995,0.37093 -0.083985,0.60889 0,0.02799 -0.020996,0.05599 -0.062988,0.08398 H 0.600098 L 0.222168,7.84717 H 0.0541992 -0.0297852 L -0.386719,7.76318 h -0.083984 c 0,-0.22395 -0.013998,-0.43742 -0.041992,-0.64038 C -0.54069,6.91984 -0.554688,6.69938 -0.554688,6.46143 M 0.873047,3.66895 C 0.761068,3.72493 0.64209,3.81592 0.516113,3.94189 0.32015,4.13786 0.194173,4.33382 0.138184,4.52979 0.082194,4.38981 0.0262044,4.27783 -0.0297852,4.19385 -0.0857747,4.10986 -0.141764,4.02588 -0.197754,3.94189 -0.295736,3.8859 -0.372721,3.84041 -0.428711,3.80542 -0.484701,3.77043 -0.554688,3.72493 -0.638672,3.66895 v -4.346196 c 0,-0.391924 0.087484,-0.689374 0.262451,-0.892334 0.174968,-0.20296 0.3534345,-0.30444 0.535401,-0.30444 0.181966,0 0.360433,0.10148 0.5354,0.30444 0.174968,0.20296 0.262451,0.50041 0.262451,0.892334 0,0.237956 -0.013997,0.7523599 -0.041992,1.543213 C 0.887044,1.65682 0.873047,2.59115 0.873047,3.66895 M 3.18262,3.75293 c 0.15397,0.06999 0.30794,0.12598 0.46191,0.16797 0.15397,0.04199 0.30095,0.13297 0.44092,0.27295 0.26595,0.33594 0.44092,0.72086 0.5249,1.15478 0,0.23796 -0.007,0.45492 -0.02099,0.65088 C 4.57536,6.19548 4.52637,6.41243 4.44238,6.65039 4.26042,7.09831 3.97347,7.46924 3.58154,7.76318 3.09163,8.16911 2.55973,8.41406 1.98584,8.49805 L 0.600098,8.05713 C 1.09001,7.91715 1.53792,7.77718 1.94385,7.63721 2.34977,7.49723 2.70671,7.30827 3.01465,7.07031 3.33659,6.90234 3.55355,6.68188 3.66553,6.40894 3.77751,6.13599 3.8055,5.86654 3.74951,5.60059 3.74951,5.34863 3.66903,5.15267 3.50806,5.0127 3.34709,4.87272 3.18262,4.76774 3.01465,4.69775 2.93066,4.64176 2.83268,4.61377 2.7207,4.61377 c -0.11198,0 -0.21696,0 -0.31494,0 0.09798,0.46191 0.014,0.82585 -0.25195,1.0918 C 1.92985,5.95752 1.6464,6.13249 1.30347,6.23047 0.960531,6.32845 0.670085,6.26546 0.432129,6.0415 0.208171,5.78955 0.131185,5.46061 0.201172,5.05469 0.271159,4.64876 0.404134,4.33382 0.600098,4.10986 1.00602,3.70394 1.43994,3.64795 1.90186,3.94189 2.26579,3.73193 2.69271,3.66895 3.18262,3.75293 M -0.11377,14.7759 c -0.181966,0.14 -0.314941,0.2799 -0.398925,0.4199 -0.083985,0.14 -0.153972,0.2869 -0.209961,0.4409 -0.111979,0.224 -0.167969,0.364 -0.167969,0.4199 -0.027995,0.084 -0.027995,0.14 0,0.168 -0.05599,0 -0.090983,-0.056 -0.10498,-0.168 -0.013995,-0.1119 0.020996,-0.2799 0.10498,-0.5039 0,-0.2939 0.111979,-0.5529 0.335937,-0.7768 0,-0.056 0.013998,-0.084 0.041993,-0.084 0.027994,0 0.069987,-0.028 0.125976,-0.084 l 0.272949,0.168 m 1.65869,-3.0655 c 0.23796,0.238 0.35694,0.5529 0.35694,0.9449 0.05599,0.1819 0.03499,0.3499 -0.06299,0.5039 -0.09798,0.154 -0.19597,0.2729 -0.29395,0.3569 -0.16797,0.182 -0.32894,0.322 -0.48291,0.4199 -0.15397,0.098 -0.307941,0.203 -0.461912,0.315 L 0.222168,13.957 C 0.418132,13.8171 0.603597,13.6946 0.778564,13.5896 0.953532,13.4846 1.125,13.3481 1.29297,13.1802 c 0.08398,-0.084 0.13297,-0.154 0.14697,-0.21 0.014,-0.056 0.021,-0.161 0.021,-0.3149 0,-0.084 -0.021,-0.175 -0.06299,-0.273 C 1.35596,12.2843 1.29297,12.2074 1.20898,12.1514 1.04102,11.9834 0.806559,11.8609 0.505615,11.7839 0.204671,11.7069 -0.120768,11.6265 -0.470703,11.5425 -0.638672,11.4865 -0.81014,11.4375 -0.985107,11.3955 -1.16007,11.3535 -1.33154,11.2905 -1.49951,11.2065 -1.5835,11.1506 -1.67448,11.0771 -1.77246,10.9861 -1.87044,10.8951 -1.95443,10.8076 -2.02441,10.7236 -2.19238,10.4717 -2.27637,10.2127 -2.27637,9.94678 -2.33236,9.86279 -2.34635,9.76481 -2.31836,9.65283 c 0.028,-0.11198 0.06999,-0.23795 0.12598,-0.37793 0.05599,-0.09798 0.11548,-0.18196 0.17846,-0.25195 0.06299,-0.06999 0.12248,-0.13298 0.17847,-0.18897 0.05599,0 0.08399,-0.01399 0.08399,-0.04199 V 8.75 l 1.196772,0.25195 c -0.055989,0.05599 -0.097981,0.08399 -0.125976,0.08399 h -0.041992 c -0.139974,0.05599 -0.26945,0.10148 -0.388424,0.13647 -0.11898,0.035 -0.22046,0.08049 -0.30445,0.13648 -0.25195,0.16797 -0.33593,0.33593 -0.25195,0.5039 0,0.34991 0.13647,0.60191 0.40942,0.75591 0.272953,0.1539 0.563399,0.2729 0.871341,0.3569 0.37792994,0.126 0.717367,0.2239 1.018311,0.2939 0.300944,0.07 0.605388,0.217 0.913328,0.4409 m -0.755857,3.1495 c 0.083984,0.1399 0.146972,0.2659 0.188964,0.3779 0.041993,0.112 0.090983,0.217 0.146973,0.3149 0.02799,0.14 0.04199,0.308 0.04199,0.5039 0,0.084 -0.014,0.14 -0.04199,0.168 -0.02799,0 -0.08398,-0.196 -0.167969,-0.5879 C 0.873047,15.4548 0.736572,15.2518 0.547607,15.0278 0.358643,14.8039 0.110189,14.6009 -0.197754,14.4189 -0.37972,14.279 -0.568685,14.153 -0.764648,14.041 -0.960612,13.929 -1.17757,13.7821 -1.41553,13.6001 c -0.08398,-0.14 -0.16097,-0.2869 -0.23095,-0.4409 -0.06999,-0.154 -0.10498,-0.322 -0.10498,-0.5039 0,-0.392 0.13997,-0.7349 0.41992,-1.0288 h 0.08398 l 0.776857,0.1679 c -0.251953,0.098 -0.419922,0.189 -0.503906,0.273 -0.237961,0.14 -0.356931,0.3359 -0.356931,0.5879 0,0.2379 0.09098,0.4409 0.27295,0.6089 0.13997,0.1679 0.30094,0.3044 0.482906,0.4094 0.181967,0.105 0.363933,0.2274 0.5458988,0.3674 0.3639322,0.28 0.6368812,0.5529 0.8188482,0.8189 M 1.98584,8.83398 c 0.19596,0.11198 0.33594,0.28695 0.41992,0.52491 0.06999,0.08398 0.10498,0.18196 0.10498,0.29394 0,0.11198 0,0.20996 0,0.29395 0,0.29392 -0.09098,0.52492 -0.27295,0.69282 -0.08398,0.14 -0.16797,0.2415 -0.25195,0.3045 -0.08398,0.063 -0.16797,0.1225 -0.25195,0.1785 C 1.60791,11.2345 1.48893,11.2905 1.37695,11.2905 1.23698,11.2345 1.09701,11.1681 0.957031,11.0911 0.817057,11.0141 0.670085,10.9476 0.516113,10.8916 h 0.083985 c 0.32194,-0.084 0.619382,-0.196 0.892332,-0.3359 0.27295,-0.14 0.40943,-0.371 0.40943,-0.69291 0,-0.22396 -0.05599,-0.36393 -0.16797,-0.41992 C 1.49593,9.3029 1.26497,9.18392 1.04102,9.08594 0.775065,9.02995 0.509115,8.98096 0.243164,8.93896 -0.0227865,8.89697 -0.288737,8.83398 -0.554688,8.75 -1.0446,8.66602 -1.51701,8.56453 -1.97192,8.44556 -2.42684,8.32658 -2.85726,8.12712 -3.26318,7.84717 -3.43115,7.70719 -3.59562,7.54972 -3.75659,7.37476 -3.91756,7.19979 -4.04004,6.98633 -4.12402,6.73438 -4.264,6.49642 -4.34098,6.27946 -4.35498,6.0835 -4.36898,5.88753 -4.37598,5.69857 -4.37598,5.5166 -4.31999,5.29264 -4.271,5.07218 -4.229,4.85522 -4.18701,4.63826 -4.09603,4.4458 -3.95605,4.27783 -3.80208,4.13786 -3.65511,4.03288 -3.51514,3.96289 -3.37516,3.8929 -3.23519,3.82292 -3.09521,3.75293 c 0.32194,-0.08398 0.59838,-0.10498 0.82934,-0.06299 0.23096,0.04199 0.43042,0.09798 0.59839,0.16797 0.48991,-0.20996 0.916829,-0.12598 1.280761,0.25195 0.181966,0.22396 0.3149417,0.5389 0.398926,0.94483 C 0.0961914,5.46061 0.0262044,5.78955 -0.197754,6.0415 -0.37972,6.26546 -0.656169,6.32845 -1.0271,6.23047 -1.39803,6.13249 -1.69548,5.95752 -1.91943,5.70557 -2.18538,5.43962 -2.27637,5.07568 -2.19238,4.61377 h -0.58789 c -0.20996,0.12598 -0.37093,0.24495 -0.48291,0.35693 -0.11198,0.11198 -0.19597,0.29395 -0.25196,0.5459 0,0.15397 0,0.28695 0,0.39893 0,0.11198 0.028,0.23795 0.08399,0.37793 0.08398,0.26595 0.25195,0.5249 0.5039,0.77685 0.32194,0.23796 0.68938,0.42692 1.1023,0.5669 0.41292,0.13997 0.864338,0.27994 1.354247,0.41992 0.26595,0.05599 0.5354003,0.10498 0.808349,0.14697 C 0.610596,8.24609 0.873047,8.31608 1.125,8.41406 1.29297,8.47005 1.44344,8.53304 1.57642,8.60303 1.70939,8.67301 1.84587,8.75 1.98584,8.83398"
         fill-rule="evenodd"
         vector-effect="none" />
    </g>
    <g
       id="g16"
       font-style="normal"
       font-weight="400"
       font-size="7.8px"
       font-family="'MS Shell Dlg 2'"
       stroke="none"
       fill-opacity="1"
       fill="#ef4b65" />
  </g>
</svg>
