<svg xmlns="http://www.w3.org/2000/svg" version="1.2" viewBox="0 0 42.52 42.52" height="56.693" width="56.693">
   <g stroke-linejoin="bevel" stroke-linecap="square" fill-rule="evenodd" stroke="none" fill="none" font-weight="400"
      font-size="7.8" font-family="'MS Shell Dlg 2'">
      <path
         d="M42.52 21.26C42.52 33 33 42.52 21.26 42.52 9.518 42.52 0 33 0 21.26 0 9.518 9.518 0 21.26 0 33 0 42.52 9.518 42.52 21.26"
         vector-effect="non-scaling-stroke" fill="#ef4b65" />
      <path
         d="M21.682 15.69c-.406 0-.739-.143-.998-.43a1.497 1.497 0 01-.388-1.04c0-.433.13-.808.388-1.123.26-.315.592-.472.998-.472.377 0 .706.157.986.472.28.315.42.69.42 1.124 0 .405-.14.752-.42 1.039-.28.287-.609.43-.986.43m11.61.82c.252 0 .522-.046.809-.137.287-.091.532-.158.735-.2.203-.042.325-.035.367.021.042.056-.035.217-.231.483-.21.224-.451.445-.724.661-.273.217-.588.36-.945.43s-.784.043-1.28-.083c-.498-.126-1.096-.434-1.796-.924-.14-.084-.21-.077-.21.021s.08.235.241.41c.161.174.392.367.693.577.301.21.71.392 1.229.546.196.056.423.07.682.042.259-.028.497-.05.714-.063.217-.014.367-.007.451.02.084.029.042.113-.126.253-.406.406-.819.658-1.239.756-.42.098-.836.133-1.249.105a6.671 6.671 0 01-1.197-.19 4.193 4.193 0 00-1.018-.146c-.364 0-.675.09-.934.273a6.954 6.954 0 00-.777.64 4.965 4.965 0 01-.86.65c-.316.19-.732.284-1.25.284-1.526 0-2.289-.819-2.289-2.456 0-.49.123-1.001.368-1.533a5.136 5.136 0 011.018-1.46c.434-.44.945-.804 1.533-1.091a4.206 4.206 0 011.868-.43c.518 0 1.019.056 1.502.168.482.112.948.234 1.396.367.448.133.857.248 1.228.346.371.098.717.147 1.04.147a3.49 3.49 0 001.018-.21c.287-.112.525-.227.714-.346a2.27 2.27 0 01.409-.22c.084-.028.126.028.126.168 0 .181-.056.409-.168.682-.112.273-.34.5-.682.682-.343.182-.823.273-1.439.273-.615 0-1.427-.168-2.435-.504-.21-.098-.315-.101-.315-.01 0 .09.108.213.325.367.217.154.55.298.998.43.448.134 1.015.2 1.7.2m-12.996 1.974c0 .798-.2 1.406-.599 1.826-.399.42-.955.63-1.669.63-.518 0-.941-.094-1.27-.283a5.298 5.298 0 01-.903-.651 8.638 8.638 0 00-.798-.64c-.259-.182-.577-.273-.955-.273-.308 0-.647.049-1.018.147-.371.098-.767.16-1.187.189a4.357 4.357 0 01-1.27-.105c-.427-.098-.83-.35-1.207-.756-.168-.14-.21-.224-.126-.252.084-.028.234-.035.451-.021.217.014.455.035.714.063.259.028.487.014.682-.042.518-.154.928-.336 1.229-.546.3-.21.532-.403.693-.578.16-.174.23-.31.21-.409-.021-.098-.088-.105-.2-.02-.686.489-1.28.797-1.785.923-.503.126-.94.154-1.312.084a2.027 2.027 0 01-.945-.43 6.162 6.162 0 01-.682-.662c-.224-.266-.308-.427-.252-.483.056-.056.182-.063.378-.02.196.041.437.108.724.199.287.09.564.136.83.136.686 0 1.252-.066 1.7-.2.448-.132.777-.276.987-.43.21-.154.315-.276.315-.367 0-.091-.098-.088-.294.01-1.008.336-1.82.504-2.435.504-.616 0-1.096-.09-1.439-.273-.343-.182-.57-.41-.682-.682-.112-.273-.168-.5-.168-.682 0-.14.049-.196.147-.168.098.028.242.101.43.22.19.119.427.234.714.346.287.112.613.182.977.21.294 0 .64-.049 1.039-.147.399-.098.819-.213 1.26-.346.44-.133.899-.255 1.375-.367a6.304 6.304 0 011.449-.168c.686 0 1.322.143 1.91.43.588.287 1.103.65 1.544 1.092.44.44.79.927 1.05 1.459.258.532.388 1.043.388 1.533m.86 10.099a6.02 6.02 0 00-.041-.724 6.02 6.02 0 01-.042-.725.73.73 0 00.262-.052.73.73 0 01.263-.053c.084 0 .189.018.314.053.126.035.238.052.336.052v.704c0 .216-.035.437-.105.66h-.084a.426.426 0 01-.23.085.426.426 0 00-.231.084h-.084c-.056 0-.098-.014-.126-.042-.028-.028-.077-.042-.147-.042h-.084m.189 4.388c.056-.056.098-.084.126-.084.028 0 .07-.028.126-.084a.56.56 0 00.189.126.56.56 0 01.188.126 59.043 59.043 0 01-.147 1.375c-.041.343-.09.515-.146.515-.084 0-.147-.179-.19-.536a62.414 62.414 0 01-.146-1.438m0-1.512h-.105v-.766a4.78 4.78 0 00-.084-.85c.182 0 .3-.028.357-.084a.556.556 0 00.314.084c.126 0 .231.028.315.084-.056.252-.084.5-.084.745v.703h-.084a2.27 2.27 0 01-.147.137 2.27 2.27 0 00-.146.136c-.056 0-.084.028-.084.084l-.252-.273m-.357-7.138c.266-.084.44-.168.525-.252.056-.056.084-.098.084-.126 0-.028.028-.07.084-.126 0 .112.028.196.084.252.14.056.328.14.566.252v.609c0 .168-.028.37-.084.608 0 .028-.02.056-.063.084h-.042l-.377.084h-.252l-.357-.084h-.084c0-.224-.014-.437-.042-.64a4.853 4.853 0 01-.042-.661m1.427-2.793a1.427 1.427 0 00-.357.273c-.196.196-.321.392-.377.588a1.864 1.864 0 00-.168-.336l-.168-.252a7.183 7.183 0 01-.441-.273v-4.346c0-.392.087-.69.262-.892.175-.203.354-.305.536-.305.181 0 .36.102.535.305.175.203.262.5.262.892 0 .238-.014.752-.042 1.543-.028.791-.042 1.725-.042 2.803m2.31.084c.154.07.308.126.462.168.154.042.3.133.44.273.267.336.442.72.526 1.155a9.2 9.2 0 01-.021.65 2.516 2.516 0 01-.147.652 2.584 2.584 0 01-.861 1.112c-.49.406-1.022.651-1.596.735l-1.386-.44c.49-.14.938-.28 1.344-.42.406-.14.763-.33 1.071-.567.322-.168.539-.389.65-.662.113-.273.14-.542.085-.808 0-.252-.08-.448-.242-.588a1.829 1.829 0 00-.493-.315.517.517 0 00-.294-.084h-.315c.098.462.014.826-.252 1.092a1.756 1.756 0 01-.85.525c-.343.098-.634.035-.872-.19-.223-.251-.3-.58-.23-.986.07-.406.202-.72.398-.945.406-.406.84-.462 1.302-.168.364-.21.791-.273 1.281-.189M21.43 32.634c-.182.14-.315.28-.4.42-.083.14-.153.287-.21.44-.111.225-.167.365-.167.42-.028.085-.028.14 0 .169-.056 0-.091-.056-.105-.168-.014-.112.02-.28.105-.504 0-.294.112-.553.336-.777 0-.056.014-.084.042-.084.028 0 .07-.028.126-.084l.273.168m1.658-3.065c.238.238.357.553.357.945a.58.58 0 01-.063.503 1.597 1.597 0 01-.294.357 2.51 2.51 0 01-.483.42 9.01 9.01 0 00-.462.315l-.377-.294a8.43 8.43 0 01.556-.367c.175-.105.346-.242.514-.41a.52.52 0 00.147-.21 1.54 1.54 0 00.021-.314.697.697 0 00-.063-.273.513.513 0 00-.189-.231c-.168-.168-.402-.29-.703-.368-.301-.077-.626-.157-.976-.241a6.204 6.204 0 00-.515-.147 2.4 2.4 0 01-.514-.19 2.87 2.87 0 01-.525-.483 1.384 1.384 0 01-.252-.776.353.353 0 01-.042-.294c.028-.112.07-.238.126-.378.056-.098.115-.182.178-.252a4.97 4.97 0 01.179-.189c.056 0 .084-.014.084-.042v-.042l1.197.252c-.056.056-.098.084-.126.084h-.042c-.14.056-.27.102-.389.137-.119.035-.22.08-.304.136-.252.168-.336.336-.252.504 0 .35.136.602.41.756.272.154.563.273.87.357.379.126.718.224 1.019.294.3.07.605.217.913.44m-.756 3.15c.084.14.147.266.19.378.041.112.09.217.146.315.028.14.042.308.042.504 0 .084-.014.14-.042.168-.028 0-.084-.196-.168-.588a2.807 2.807 0 00-.41-.609 2.88 2.88 0 00-.744-.609 5 5 0 00-.567-.378 5.965 5.965 0 01-.651-.44 4.373 4.373 0 01-.231-.442 1.204 1.204 0 01-.105-.503c0-.392.14-.735.42-1.03h.084l.777.169c-.252.098-.42.189-.504.273-.238.14-.357.336-.357.588 0 .237.09.44.273.608.14.168.3.305.483.41.182.105.364.227.546.367.363.28.636.553.818.82m1.197-6.027a.937.937 0 01.42.525c.07.084.105.182.105.294v.294c0 .294-.09.525-.273.693-.084.14-.168.241-.252.304a5.565 5.565 0 01-.252.179c-.126.112-.245.168-.357.168a3.8 3.8 0 01-.42-.2 3.14 3.14 0 00-.44-.2h.083c.322-.083.62-.195.893-.335s.41-.371.41-.693c0-.224-.057-.364-.169-.42a6.55 6.55 0 00-.693-.357 15.95 15.95 0 00-.797-.147 5.492 5.492 0 01-.798-.189c-.49-.084-.963-.185-1.418-.304a4.082 4.082 0 01-1.29-.599 5.17 5.17 0 01-.494-.472 1.747 1.747 0 01-.368-.64c-.14-.238-.217-.455-.23-.651a7.962 7.962 0 01-.022-.567c.056-.224.105-.445.147-.662.042-.217.133-.409.273-.577.154-.14.301-.245.441-.315l.42-.21c.322-.084.599-.105.83-.063.23.042.43.098.598.168.49-.21.917-.126 1.28.252.183.224.316.539.4.945.084.406.014.735-.21.987-.182.224-.459.287-.83.189a1.76 1.76 0 01-.892-.525c-.266-.266-.357-.63-.273-1.092h-.588c-.21.126-.37.245-.483.357-.112.112-.196.294-.252.546v.399c0 .112.028.238.084.378.084.266.252.525.504.777a4 4 0 001.102.566c.413.14.865.28 1.355.42.266.056.535.105.808.147.273.042.535.112.787.21.168.056.319.12.452.19s.27.146.41.23"
         fill-opacity=".949" fill="#fff" />
   </g>
</svg>