<svg xmlns="http://www.w3.org/2000/svg" version="1.2" viewBox="0 0 42.52 42.52" height="56.693" width="56.693">
   <g stroke-linejoin="bevel" stroke-linecap="square" fill-rule="evenodd" stroke="none" fill="none" font-weight="400"
      font-size="7.8" font-family="'MS Shell Dlg 2'">
      <path
         d="M42.52 21.26C42.52 33 33 42.52 21.26 42.52 9.518 42.52 0 33 0 21.26 0 9.518 9.518 0 21.26 0 33 0 42.52 9.518 42.52 21.26"
         vector-effect="non-scaling-stroke" fill="#ef4b65" />
      <path
         d="M9.703 17.307l-.945-.65 1.407-1.89.945.692-1.407 1.848m2.835 7.517L7.646 21.17l6.487-8.734 4.85 3.674-6.445 8.714m17.405-7.055a41.973 41.973 0 012.016 2.572 109.64 109.64 0 011.554 2.215c.518.742.994 1.456 1.428 2.142l-.61.692c-.447-.573-.944-1.217-1.49-1.931l-1.7-2.09a54.896 54.896 0 00-2.226-2.55l-.168.168-2.835-2.793.21-.273c-.966-.938-1.879-1.802-2.74-2.593-.86-.79-1.606-1.473-2.236-2.047-.63-.574-1.12-1.04-1.47-1.396-.35-.357-.476-.564-.378-.62.028-.056.27.039.725.284.455.245 1.05.609 1.784 1.092.735.483 1.561 1.091 2.478 1.826a47.366 47.366 0 012.866 2.51l.483-.463 2.708 2.793-.399.462m-2.708 1.218L13.02 33.18l-1.344-1.26 14.235-14.235 1.323 1.302m2.708-2.793l-1.28-1.302.735-.692 1.28 1.343-.735.651m-6.74 8.336l8.903 6.571-1.428 1.848-9.154-6.74 1.68-1.68m-7.223-2.54l1.407-1.848 3.023 2.247-1.68 1.659-2.75-2.058"
         fill-opacity=".949" fill="#fff" />
   </g>
</svg>