<svg xmlns="http://www.w3.org/2000/svg" version="1.2" viewBox="0 0 42.52 42.52" height="56.693" width="56.693">
   <g stroke-linejoin="bevel" stroke-linecap="square" fill-rule="evenodd" stroke="none" fill="none" font-weight="400"
      font-size="7.8" font-family="'MS Shell Dlg 2'">
      <path
         d="M42.52 21.26C42.52 33 33 42.52 21.26 42.52 9.518 42.52 0 33 0 21.26 0 9.518 9.518 0 21.26 0 33 0 42.52 9.518 42.52 21.26"
         vector-effect="non-scaling-stroke" fill="#ef4b65" />
      <path
         d="M30.048 19.617H10.963v-8.189h19.085v8.189m-.336 12.282c.798.546 1.61.546 2.436 0a3.824 3.824 0 011.89-.504l-.084 1.113c-.168 0-.354.042-.557.126a4.369 4.369 0 00-.64.336c-.574.406-1.183.595-1.827.567a3.776 3.776 0 01-1.826-.567 1.776 1.776 0 00-.714-.378 3.107 3.107 0 00-.714-.084v.084h-.168a.937.937 0 00-.473.126 9.665 9.665 0 01-.472.252 3.077 3.077 0 01-1.764.525h-.084a3.705 3.705 0 01-1.89-.525 21 21 0 01-.409-.252.907.907 0 00-.493-.126c-.49-.084-.98.042-1.47.378a3.78 3.78 0 01-1.931.525c-.686 0-1.288-.175-1.806-.525-.91-.56-1.757-.56-2.54 0-.603.35-1.218.525-1.848.525a3.705 3.705 0 01-1.89-.525 1.12 1.12 0 00-.294-.21 8.7 8.7 0 00-.357-.168v-1.197c.462.084.91.252 1.344.504.364.294.763.441 1.197.441.238 0 .448-.035.63-.105.182-.07.392-.182.63-.336.825-.602 1.812-.713 2.96-.336.14.056.266.105.378.147.112.042.245.105.399.19.168.083.322.164.462.24.14.078.3.116.483.116.224.056.458.056.703 0 .245-.056.48-.175.703-.357.266-.14.515-.245.746-.315.23-.07.472-.133.724-.189a3.63 3.63 0 011.228.042 3.34 3.34 0 011.145.462c.168.084.315.165.44.242a.79.79 0 00.42.115 2.16 2.16 0 001.575-.357 3.098 3.098 0 011.722-.504 2.232 2.232 0 011.06.084c.33.112.655.252.976.42m-16.65-1.805c.253-.056.501-.126.746-.21.245-.084.486-.224.724-.42.224-.126.392-.19.504-.19l.252 1.177c-.742 0-1.4.196-1.973.588l-.252-.945m.084-2.625c-.308.182-.581.273-.82.273l-1.364-4.661v-2.142h19.17v1.806l1.427 4.808c-.238.126-.455.19-.65.19-.267 0-.526-.092-.778-.274a1.405 1.405 0 00-.451-.273 5.84 5.84 0 01-.41-.147l-1.154-3.968h-6.362l1.155 3.884a3.204 3.204 0 00-1.239-.273c-.098 0-.203.018-.315.053-.112.035-.21.052-.294.052a.516.516 0 00-.189.042.678.678 0 01-.252.042l-1.029-3.8h-6.277l1.028 3.8c-.392.168-.79.364-1.196.588m16.985 2.625c.14.056.27.084.389.084h.388c.462 0 .903-.084 1.323-.252l.189.777a1.047 1.047 0 01-.315.189c-.112.042-.21.09-.294.147a.935.935 0 01-.451.293 1.794 1.794 0 01-.452.063.701.701 0 01-.241-.042.599.599 0 00-.2-.042l-.336-1.217m-8.293-.903c.168.084.378.175.63.273.182.14.378.259.588.357.21.098.448.189.714.273l.252 1.029h-.042c-.028 0-.07-.028-.126-.084-.63-.392-1.358-.588-2.184-.588l-.357-1.176c.056-.056.112-.084.168-.084h.357m-9.511.357c-.308 0-.62-.06-.935-.179a8.78 8.78 0 01-.955-.43.88.88 0 00-.65-.252v-1.302c.461.084.909.26 1.343.525.364.28.763.42 1.197.42.462 0 .882-.112 1.26-.336.881-.63 1.868-.777 2.96-.44.14.07.266.125.378.167.112.042.245.105.399.19.168.14.322.23.462.272l.483.147c.224 0 .458-.021.703-.063.245-.042.48-.133.703-.273.49-.322.98-.525 1.47-.609a3.631 3.631 0 011.228.042c.413.084.795.245 1.145.483.168.14.315.231.44.273.127.042.267.091.42.147.252 0 .515-.028.788-.084.273-.056.535-.168.787-.336a3.008 3.008 0 011.722-.525c.784 0 1.463.203 2.036.61.798.461 1.61.461 2.436 0a3.202 3.202 0 011.89-.61l-.084 1.113c-.308 0-.707.147-1.197.44-.574.407-1.183.61-1.827.61-.644 0-1.253-.203-1.826-.61a3.588 3.588 0 00-.714-.325 1.184 1.184 0 00-.714-.01h-.168c-.336.084-.651.196-.945.336a4.422 4.422 0 01-.83.43c-.3.12-.612.179-.934.179h-.084a3.202 3.202 0 01-1.89-.61 3.208 3.208 0 00-.902-.335c-.49-.098-.98.014-1.47.336a3.266 3.266 0 01-1.931.609c-.714 0-1.316-.203-1.806-.61-.91-.517-1.757-.517-2.54 0a8.241 8.241 0 01-.914.431c-.3.12-.612.179-.934.179"
         fill-opacity=".949" fill="#fff" />
   </g>
</svg>