<?xml version="1.0" encoding="UTF-8" standalone="no"?>
<svg
   xmlns:dc="http://purl.org/dc/elements/1.1/"
   xmlns:cc="http://creativecommons.org/ns#"
   xmlns:rdf="http://www.w3.org/1999/02/22-rdf-syntax-ns#"
   xmlns:svg="http://www.w3.org/2000/svg"
   xmlns="http://www.w3.org/2000/svg"
   xmlns:sodipodi="http://sodipodi.sourceforge.net/DTD/sodipodi-0.dtd"
   xmlns:inkscape="http://www.inkscape.org/namespaces/inkscape"
   inkscape:version="1.0 (4035a4fb49, 2020-05-01)"
   sodipodi:docname="2303.svg"
   id="svg20"
   version="1.2"
   viewBox="0 0 42.519639 42.519639"
   height="14.999999mm"
   width="14.999999mm">
  <metadata
     id="metadata24">
    <rdf:RDF>
      <cc:Work
         rdf:about="">
        <dc:format>image/svg+xml</dc:format>
        <dc:type
           rdf:resource="http://purl.org/dc/dcmitype/StillImage" />
        <dc:title>Qt SVG Document</dc:title>
      </cc:Work>
    </rdf:RDF>
  </metadata>
  <sodipodi:namedview
     inkscape:current-layer="svg20"
     inkscape:window-maximized="0"
     inkscape:window-y="0"
     inkscape:window-x="0"
     inkscape:cy="28.346482"
     inkscape:cx="28.346482"
     inkscape:zoom="5.8410537"
     showgrid="false"
     id="namedview22"
     inkscape:window-height="480"
     inkscape:window-width="1034"
     inkscape:pageshadow="2"
     inkscape:pageopacity="0"
     guidetolerance="10"
     gridtolerance="10"
     objecttolerance="10"
     borderopacity="1"
     bordercolor="#666666"
     pagecolor="#ffffff" />
  <title
     id="title2">Qt SVG Document</title>
  <desc
     id="desc4">Generated with Qt</desc>
  <defs
     id="defs6" />
  <g
     transform="translate(5.25984,5.25984)"
     id="g18"
     stroke-linejoin="bevel"
     stroke-linecap="square"
     fill-rule="evenodd"
     stroke-width="1"
     stroke="#000000"
     fill="none">
    <g
       id="g10"
       font-style="normal"
       font-weight="400"
       font-size="7.8px"
       font-family="'MS Shell Dlg 2'"
       stroke="none"
       fill-opacity="1"
       fill="#ef4b65">
      <path
         id="path8"
         d="M 37.2598,16 C 37.2598,27.7415 27.7415,37.2598 16,37.2598 4.25851,37.2598 -5.25984,27.7415 -5.25984,16 -5.25984,4.25851 4.25851,-5.25984 16,-5.25984 27.7415,-5.25984 37.2598,4.25851 37.2598,16"
         fill-rule="evenodd"
         vector-effect="non-scaling-stroke" />
    </g>
    <g
       id="g14"
       font-style="normal"
       font-weight="400"
       font-size="7.8px"
       font-family="'MS Shell Dlg 2'"
       transform="translate(16.5669,13.1654)"
       stroke="none"
       fill-opacity="0.94902"
       fill="#ffffff">
      <path
         id="path12"
         d="M 8.22168,1.19141 H -10.8638 V -6.99707 H 8.22168 V 1.19141 M 7.88574,13.4741 c 0.79785,0.5459 1.6097,0.5459 2.43556,0 0.6019,-0.3359 1.2318,-0.5039 1.8896,-0.5039 L 12.127,14.083 c -0.168,0 -0.3535,0.042 -0.5564,0.126 -0.203,0.084 -0.4165,0.1959 -0.6404,0.3359 -0.5739,0.4059 -1.1828,0.5949 -1.82668,0.5669 C 8.45964,15.0838 7.85075,14.8949 7.27686,14.5449 7.0389,14.349 6.80094,14.223 6.56299,14.167 6.32503,14.111 6.08708,14.083 5.84912,14.083 v 0.084 H 5.68115 c -0.16797,0 -0.32544,0.042 -0.47241,0.126 -0.14697,0.084 -0.30444,0.1679 -0.47241,0.2519 -0.51791,0.35 -1.1058,0.5249 -1.76367,0.5249 H 2.88867 c -0.65788,0 -1.28776,-0.1749 -1.889647,-0.5249 C 0.859049,14.4609 0.722575,14.377 0.5896,14.293 0.456624,14.209 0.292155,14.167 0.0961914,14.167 -0.393717,14.083 -0.883626,14.209 -1.37354,14.5449 c -0.60188,0.35 -1.24576,0.5249 -1.93164,0.5249 -0.68587,0 -1.28776,-0.1749 -1.80566,-0.5249 -0.90983,-0.5599 -1.75667,-0.5599 -2.54053,0 -0.60189,0.35 -1.21777,0.5249 -1.84765,0.5249 -0.65788,0 -1.28778,-0.1749 -1.88968,-0.5249 -0.084,-0.084 -0.1819,-0.1539 -0.2939,-0.2099 -0.112,-0.056 -0.231,-0.112 -0.357,-0.168 v -1.1968 c 0.462,0.084 0.9099,0.252 1.3438,0.5039 0.3639,0.294 0.76286,0.4409 1.19678,0.4409 0.23795,0 0.44791,-0.035 0.62988,-0.1049 0.18197,-0.07 0.39193,-0.182 0.62988,-0.336 0.82585,-0.6019 1.81266,-0.7138 2.96045,-0.3359 0.13998,0.056 0.26595,0.105 0.37793,0.147 0.11198,0.0419 0.24496,0.1049 0.39893,0.1889 0.16797,0.084 0.32194,0.1645 0.46191,0.2415 0.13997,0.077 0.30094,0.1155 0.48291,0.1155 0.22396,0.0559 0.45842,0.0559 0.70337,0 0.24495,-0.056 0.47941,-0.175 0.70337,-0.357 0.26595,-0.14 0.5144,-0.2449 0.74536,-0.3149 0.23096,-0.07 0.472413,-0.133 0.724366,-0.189 0.405924,-0.056 0.815348,-0.042 1.228271,0.042 0.412924,0.084 0.794353,0.238 1.144283,0.4619 0.16797,0.084 0.31495,0.1645 0.44092,0.2415 0.12598,0.077 0.26595,0.1155 0.41992,0.1155 0.5739,0.0839 1.0988,-0.035 1.57471,-0.357 0.51791,-0.3359 1.0918,-0.5039 1.72168,-0.5039 0.37793,-0.056 0.73137,-0.028 1.0603,0.084 0.32894,0.112 0.65438,0.252 0.97632,0.4199 m -16.6499,-1.8056 c 0.25195,-0.056 0.50041,-0.126 0.74536,-0.21 0.24496,-0.084 0.48641,-0.224 0.72437,-0.4199 0.22395,-0.126 0.39192,-0.189 0.5039,-0.189 l 0.25196,1.1758 c -0.74187,0 -1.39974,0.196 -1.97364,0.5879 L -8.76416,11.6685 M -8.68018,9.04395 C -8.98812,9.22591 -9.26107,9.31689 -9.49902,9.31689 L -10.8638,4.65576 V 2.51416 H 8.30566 V 4.31982 L 9.7334,9.12793 C 9.49544,9.25391 9.27848,9.31689 9.08252,9.31689 8.81657,9.31689 8.55762,9.22591 8.30566,9.04395 8.1377,8.90397 7.98722,8.81299 7.85425,8.771 7.72127,8.729 7.5848,8.68001 7.44482,8.62402 L 6.29004,4.65576 H -0.0717773 L 1.08301,8.54004 C 0.649089,8.35807 0.236165,8.26709 -0.155762,8.26709 c -0.097981,0 -0.202962,0.0175 -0.314941,0.05249 -0.111979,0.03499 -0.209961,0.05249 -0.293945,0.05249 -0.05599,0 -0.118978,0.014 -0.188965,0.04199 C -1.0236,8.44206 -1.10758,8.45605 -1.20557,8.45605 L -2.23438,4.65576 h -6.27783 l 1.02881,3.80029 c -0.39193,0.16797 -0.79085,0.36394 -1.19678,0.5879 M 8.30566,11.6685 c 0.13998,0.0559 0.26945,0.0839 0.38843,0.0839 0.11898,0 0.24846,0 0.38843,0 0.46191,0 0.90283,-0.0839 1.32278,-0.2519 l 0.1889,0.7768 c -0.0979,0.084 -0.2029,0.147 -0.3149,0.189 -0.112,0.042 -0.21,0.091 -0.29395,0.147 -0.13997,0.154 -0.29044,0.2519 -0.45141,0.2939 -0.16097,0.042 -0.31145,0.063 -0.45142,0.063 -0.08398,0 -0.16447,-0.014 -0.24146,-0.042 -0.07698,-0.028 -0.14347,-0.042 -0.19946,-0.042 L 8.30566,11.6685 M 0.012207,10.7656 c 0.167969,0.084 0.37793,0.175 0.629883,0.273 0.181966,0.1399 0.37793,0.2589 0.58789,0.3569 0.20996,0.098 0.44792,0.189 0.71387,0.273 L 2.1958,12.6973 H 2.15381 c -0.028,0 -0.06999,-0.028 -0.12598,-0.084 -0.62988,-0.3919 -1.357745,-0.5879 -2.183592,-0.5879 l -0.356933,-1.1758 c 0.055989,-0.056 0.111979,-0.084 0.167968,-0.084 0.05599,0 0.118978,0 0.188965,0 h 0.167969 m -9.511227,0.357 c -0.30795,0 -0.61938,-0.0595 -0.93428,-0.1785 -0.315,-0.119 -0.6334,-0.2625 -0.9554,-0.4304 -0.1679,-0.168 -0.3849,-0.252 -0.6509,-0.252 V 8.95996 c 0.462,0.08399 0.9099,0.25895 1.3438,0.5249 0.3639,0.27995 0.76286,0.41993 1.19678,0.41993 0.46191,0 0.88183,-0.11198 1.25976,-0.33594 0.88184,-0.62989 1.86865,-0.77686 2.96045,-0.44092 0.13998,0.06999 0.26595,0.12598 0.37793,0.16797 0.11198,0.04199 0.24496,0.10498 0.39893,0.18896 0.16797,0.13998 0.32194,0.23096 0.46191,0.27295 0.13997,0.04199 0.30094,0.09099 0.48291,0.14698 0.22396,0 0.45842,-0.021 0.70337,-0.06299 0.24495,-0.042 0.47941,-0.13298 0.70337,-0.27295 0.48991,-0.32194 0.97982,-0.5249 1.469726,-0.60889 C -0.27474,8.90397 0.134684,8.91797 0.547607,9.00195 0.960531,9.08594 1.34196,9.24691 1.69189,9.48486 1.85986,9.62484 2.00684,9.71582 2.13281,9.75781 2.25879,9.7998 2.39876,9.8488 2.55273,9.90479 c 0.25196,0 0.51441,-0.028 0.78736,-0.08399 0.27295,-0.05599 0.5354,-0.16797 0.78735,-0.33594 0.51791,-0.34993 1.0918,-0.5249 1.72168,-0.5249 0.78386,0 1.46273,0.20296 2.03662,0.60889 0.79785,0.46195 1.6097,0.46195 2.43556,0 0.5739,-0.40593 1.2038,-0.60889 1.8896,-0.60889 L 12.127,10.0728 c -0.308,0 -0.7069,0.1469 -1.1968,0.4409 -0.5739,0.4059 -1.1828,0.6089 -1.82668,0.6089 -0.64388,0 -1.25277,-0.203 -1.82666,-0.6089 C 7.0389,10.3737 6.80094,10.2652 6.56299,10.1882 6.32503,10.1112 6.08708,10.1077 5.84912,10.1777 H 5.68115 c -0.33594,0.084 -0.65088,0.196 -0.94482,0.336 -0.25195,0.1679 -0.5284,0.3114 -0.82935,0.4304 -0.30094,0.119 -0.61238,0.1785 -0.93432,0.1785 H 2.88867 c -0.68587,0 -1.31575,-0.203 -1.889647,-0.6089 -0.237955,-0.14 -0.538899,-0.252 -0.9028316,-0.336 -0.4899084,-0.0979 -0.9798174,0.014 -1.4697314,0.336 -0.57389,0.4059 -1.21777,0.6089 -1.93164,0.6089 -0.71386,0 -1.31575,-0.203 -1.80566,-0.6089 -0.90983,-0.51793 -1.75667,-0.51793 -2.54053,0 -0.30794,0.1679 -0.61238,0.3114 -0.91333,0.4304 -0.30094,0.119 -0.61238,0.1785 -0.93432,0.1785"
         fill-rule="evenodd"
         vector-effect="none" />
    </g>
    <g
       id="g16"
       font-style="normal"
       font-weight="400"
       font-size="7.8px"
       font-family="'MS Shell Dlg 2'"
       stroke="none"
       fill-opacity="1"
       fill="#ef4b65" />
  </g>
</svg>
