<?xml version="1.0" encoding="UTF-8" standalone="no"?>
<svg width="11.25008mm" height="11.25008mm"
 viewBox="-5.3 -5.3 42.52000 42.52000"
 xmlns="http://www.w3.org/2000/svg" xmlns:xlink="http://www.w3.org/1999/xlink"  version="1.2" baseProfile="tiny">
<title>Qt SVG Document</title>
<desc>Generated with Qt</desc>
<defs>
</defs>
<g fill="none" stroke="black" stroke-width="1" fill-rule="evenodd" stroke-linecap="square" stroke-linejoin="bevel" >

<g fill="#ef4b65" fill-opacity="1" stroke="none" transform="matrix(1,0,0,1,0,0)"
font-family="MS Shell Dlg 2" font-size="7.8" font-weight="400" font-style="normal" 
>
<path vector-effect="non-scaling-stroke" fill-rule="evenodd" d="M37.2598,16 C37.2598,27.7415 27.7415,37.2598 16,37.2598 C4.25851,37.2598 -5.25984,27.7415 -5.25984,16 C-5.25984,4.25851 4.25851,-5.25984 16,-5.25984 C27.7415,-5.25984 37.2598,4.25851 37.2598,16 "/>
</g>

<g fill="#ffffff" fill-opacity="0.94902" stroke="none" transform="matrix(1,0,0,1,16.5669,13.1654)"
font-family="MS Shell Dlg 2" font-size="7.8" font-weight="400" font-style="normal" 
>
<path vector-effect="none" fill-rule="evenodd" d="M8.22168,1.19141 L-10.8638,1.19141 L-10.8638,-6.99707 L8.22168,-6.99707 L8.22168,1.19141 M7.88574,13.4741 C8.68359,14.02 9.49544,14.02 10.3213,13.4741 C10.9232,13.1382 11.5531,12.9702 12.2109,12.9702 L12.127,14.083 C11.959,14.083 11.7735,14.125 11.5706,14.209 C11.3676,14.293 11.1541,14.4049 10.9302,14.5449 C10.3563,14.9508 9.7474,15.1398 9.10352,15.1118 C8.45964,15.0838 7.85075,14.8949 7.27686,14.5449 C7.0389,14.349 6.80094,14.223 6.56299,14.167 C6.32503,14.111 6.08708,14.083 5.84912,14.083 L5.84912,14.167 L5.68115,14.167 C5.51318,14.167 5.35571,14.209 5.20874,14.293 C5.06177,14.377 4.9043,14.4609 4.73633,14.5449 C4.21842,14.8949 3.63053,15.0698 2.97266,15.0698 L2.88867,15.0698 C2.23079,15.0698 1.60091,14.8949 0.999023,14.5449 C0.859049,14.4609 0.722575,14.377 0.5896,14.293 C0.456624,14.209 0.292155,14.167 0.0961914,14.167 C-0.393717,14.083 -0.883626,14.209 -1.37354,14.5449 C-1.97542,14.8949 -2.6193,15.0698 -3.30518,15.0698 C-3.99105,15.0698 -4.59294,14.8949 -5.11084,14.5449 C-6.02067,13.985 -6.86751,13.985 -7.65137,14.5449 C-8.25326,14.8949 -8.86914,15.0698 -9.49902,15.0698 C-10.1569,15.0698 -10.7868,14.8949 -11.3887,14.5449 C-11.4727,14.4609 -11.5706,14.391 -11.6826,14.335 C-11.7946,14.279 -11.9136,14.223 -12.0396,14.167 L-12.0396,12.9702 C-11.5776,13.0542 -11.1297,13.2222 -10.6958,13.4741 C-10.3319,13.7681 -9.93294,13.915 -9.49902,13.915 C-9.26107,13.915 -9.05111,13.88 -8.86914,13.8101 C-8.68717,13.7401 -8.47721,13.6281 -8.23926,13.4741 C-7.41341,12.8722 -6.4266,12.7603 -5.27881,13.1382 C-5.13883,13.1942 -5.01286,13.2432 -4.90088,13.2852 C-4.7889,13.3271 -4.65592,13.3901 -4.50195,13.4741 C-4.33398,13.5581 -4.18001,13.6386 -4.04004,13.7156 C-3.90007,13.7926 -3.7391,13.8311 -3.55713,13.8311 C-3.33317,13.887 -3.09871,13.887 -2.85376,13.8311 C-2.60881,13.7751 -2.37435,13.6561 -2.15039,13.4741 C-1.88444,13.3341 -1.63599,13.2292 -1.40503,13.1592 C-1.17407,13.0892 -0.932617,13.0262 -0.680664,12.9702 C-0.27474,12.9142 0.134684,12.9282 0.547607,13.0122 C0.960531,13.0962 1.34196,13.2502 1.69189,13.4741 C1.85986,13.5581 2.00684,13.6386 2.13281,13.7156 C2.25879,13.7926 2.39876,13.8311 2.55273,13.8311 C3.12663,13.915 3.65153,13.7961 4.12744,13.4741 C4.64535,13.1382 5.21924,12.9702 5.84912,12.9702 C6.22705,12.9142 6.58049,12.9422 6.90942,13.0542 C7.23836,13.1662 7.5638,13.3062 7.88574,13.4741 M-8.76416,11.6685 C-8.51221,11.6125 -8.26375,11.5425 -8.0188,11.4585 C-7.77384,11.3745 -7.53239,11.2345 -7.29443,11.0386 C-7.07048,10.9126 -6.90251,10.8496 -6.79053,10.8496 L-6.53857,12.0254 C-7.28044,12.0254 -7.93831,12.2214 -8.51221,12.6133 L-8.76416,11.6685 M-8.68018,9.04395 C-8.98812,9.22591 -9.26107,9.31689 -9.49902,9.31689 L-10.8638,4.65576 L-10.8638,2.51416 L8.30566,2.51416 L8.30566,4.31982 L9.7334,9.12793 C9.49544,9.25391 9.27848,9.31689 9.08252,9.31689 C8.81657,9.31689 8.55762,9.22591 8.30566,9.04395 C8.1377,8.90397 7.98722,8.81299 7.85425,8.771 C7.72127,8.729 7.5848,8.68001 7.44482,8.62402 L6.29004,4.65576 L-0.0717773,4.65576 L1.08301,8.54004 C0.649089,8.35807 0.236165,8.26709 -0.155762,8.26709 C-0.253743,8.26709 -0.358724,8.28459 -0.470703,8.31958 C-0.582682,8.35457 -0.680664,8.37207 -0.764648,8.37207 C-0.820638,8.37207 -0.883626,8.38607 -0.953613,8.41406 C-1.0236,8.44206 -1.10758,8.45605 -1.20557,8.45605 L-2.23438,4.65576 L-8.51221,4.65576 L-7.4834,8.45605 C-7.87533,8.62402 -8.27425,8.81999 -8.68018,9.04395 M8.30566,11.6685 C8.44564,11.7244 8.57511,11.7524 8.69409,11.7524 C8.81307,11.7524 8.94255,11.7524 9.08252,11.7524 C9.54443,11.7524 9.98535,11.6685 10.4053,11.5005 L10.5942,12.2773 C10.4963,12.3613 10.3913,12.4243 10.2793,12.4663 C10.1673,12.5083 10.0693,12.5573 9.98535,12.6133 C9.84538,12.7673 9.69491,12.8652 9.53394,12.9072 C9.37297,12.9492 9.22249,12.9702 9.08252,12.9702 C8.99854,12.9702 8.91805,12.9562 8.84106,12.9282 C8.76408,12.9002 8.69759,12.8862 8.6416,12.8862 L8.30566,11.6685 M0.012207,10.7656 C0.180176,10.8496 0.390137,10.9406 0.64209,11.0386 C0.824056,11.1785 1.02002,11.2975 1.22998,11.3955 C1.43994,11.4935 1.6779,11.5845 1.94385,11.6685 L2.1958,12.6973 L2.15381,12.6973 C2.12581,12.6973 2.08382,12.6693 2.02783,12.6133 C1.39795,12.2214 0.670085,12.0254 -0.155762,12.0254 L-0.512695,10.8496 C-0.456706,10.7936 -0.400716,10.7656 -0.344727,10.7656 C-0.288737,10.7656 -0.225749,10.7656 -0.155762,10.7656 L0.012207,10.7656 M-9.49902,11.1226 C-9.80697,11.1226 -10.1184,11.0631 -10.4333,10.9441 C-10.7483,10.8251 -11.0667,10.6816 -11.3887,10.5137 C-11.5566,10.3457 -11.7736,10.2617 -12.0396,10.2617 L-12.0396,8.95996 C-11.5776,9.04395 -11.1297,9.21891 -10.6958,9.48486 C-10.3319,9.76481 -9.93294,9.90479 -9.49902,9.90479 C-9.03711,9.90479 -8.61719,9.79281 -8.23926,9.56885 C-7.35742,8.93896 -6.37061,8.79199 -5.27881,9.12793 C-5.13883,9.19792 -5.01286,9.25391 -4.90088,9.2959 C-4.7889,9.33789 -4.65592,9.40088 -4.50195,9.48486 C-4.33398,9.62484 -4.18001,9.71582 -4.04004,9.75781 C-3.90007,9.7998 -3.7391,9.8488 -3.55713,9.90479 C-3.33317,9.90479 -3.09871,9.88379 -2.85376,9.8418 C-2.60881,9.7998 -2.37435,9.70882 -2.15039,9.56885 C-1.66048,9.24691 -1.17057,9.04395 -0.680664,8.95996 C-0.27474,8.90397 0.134684,8.91797 0.547607,9.00195 C0.960531,9.08594 1.34196,9.24691 1.69189,9.48486 C1.85986,9.62484 2.00684,9.71582 2.13281,9.75781 C2.25879,9.7998 2.39876,9.8488 2.55273,9.90479 C2.80469,9.90479 3.06714,9.87679 3.34009,9.8208 C3.61304,9.76481 3.87549,9.65283 4.12744,9.48486 C4.64535,9.13493 5.21924,8.95996 5.84912,8.95996 C6.63298,8.95996 7.31185,9.16292 7.88574,9.56885 C8.68359,10.0308 9.49544,10.0308 10.3213,9.56885 C10.8952,9.16292 11.5251,8.95996 12.2109,8.95996 L12.127,10.0728 C11.819,10.0728 11.4201,10.2197 10.9302,10.5137 C10.3563,10.9196 9.7474,11.1226 9.10352,11.1226 C8.45964,11.1226 7.85075,10.9196 7.27686,10.5137 C7.0389,10.3737 6.80094,10.2652 6.56299,10.1882 C6.32503,10.1112 6.08708,10.1077 5.84912,10.1777 L5.68115,10.1777 C5.34521,10.2617 5.03027,10.3737 4.73633,10.5137 C4.48438,10.6816 4.20793,10.8251 3.90698,10.9441 C3.60604,11.0631 3.2946,11.1226 2.97266,11.1226 L2.88867,11.1226 C2.2028,11.1226 1.57292,10.9196 0.999023,10.5137 C0.761068,10.3737 0.460124,10.2617 0.0961914,10.1777 C-0.393717,10.0798 -0.883626,10.1917 -1.37354,10.5137 C-1.94743,10.9196 -2.59131,11.1226 -3.30518,11.1226 C-4.01904,11.1226 -4.62093,10.9196 -5.11084,10.5137 C-6.02067,9.99577 -6.86751,9.99577 -7.65137,10.5137 C-7.95931,10.6816 -8.26375,10.8251 -8.5647,10.9441 C-8.86564,11.0631 -9.17708,11.1226 -9.49902,11.1226 "/>
</g>

<g fill="#ef4b65" fill-opacity="1" stroke="none" transform="matrix(1,0,0,1,0,0)"
font-family="MS Shell Dlg 2" font-size="7.8" font-weight="400" font-style="normal" 
>
</g>
</g>
</svg>
