<svg xmlns="http://www.w3.org/2000/svg" version="1.2" viewBox="0 0 42.52 42.52" height="56.693" width="56.693">
   <g stroke-linejoin="bevel" stroke-linecap="square" fill-rule="evenodd" stroke="none" fill="none" font-weight="400"
      font-size="7.8" font-family="'MS Shell Dlg 2'">
      <path
         d="M42.52 21.26C42.52 33 33 42.52 21.26 42.52 9.518 42.52 0 33 0 21.26 0 9.518 9.518 0 21.26 0 33 0 42.52 9.518 42.52 21.26"
         vector-effect="non-scaling-stroke" fill="#ef4b65" />
      <path
         d="M16.359 27.721h1.428v4.304h-4.304v-4.304h1.427v1.029h1.449V27.72m5.648 0h1.407v4.304H19.15v-4.304h1.428v1.029h1.428V27.72m7.034 0v4.304h-4.242v-4.304h1.407v1.029h1.428V27.72h1.407m-2.835-.945h-4.304v-4.262h1.428v1.05h1.47v-1.05h1.406v4.262m-5.543 0H16.36v-4.262h1.428v1.05h1.448v-1.05h1.428v4.262M10.25 29.695V16.467h-.945V13.36L20.705 10c.378-.196.763-.196 1.155 0l11.4 3.36v3.107h-.986v13.228h.65l.589 2.33H30.51V18H12.055v14.025H9.052l.61-2.33h.587m17.3-13.627h4.032v-1.805H27.55v1.805m-5.501 0h4.031v-1.805H22.05v1.805m-5.564 0h4.052v-1.805h-4.052v1.805m-5.501 0h4.01v-1.805h-4.01v1.805"
         fill-opacity=".949" fill="#fff" />
   </g>
</svg>