<svg xmlns="http://www.w3.org/2000/svg" version="1.2" viewBox="0 0 42.52 42.52" height="56.693" width="56.693">
   <g stroke-linejoin="bevel" stroke-linecap="square" fill-rule="evenodd" stroke="none" fill="none" font-weight="400"
      font-size="7.8" font-family="'MS Shell Dlg 2'">
      <path
         d="M42.52 21.26C42.52 33 33 42.52 21.26 42.52 9.518 42.52 0 33 0 21.26 0 9.518 9.518 0 21.26 0 33 0 42.52 9.518 42.52 21.26"
         vector-effect="non-scaling-stroke" fill="#ef4b65" />
      <path
         d="M34.815 17.664H7.772l4.85-3.611h17.426l4.767 3.61M17.304 21.8a1.693 1.693 0 01-.273.147.513.513 0 00-.231.19l-1.113 1.553c-.126.112-.189.224-.189.336v3.107H8.842v-8.692h24.986v4.892l-.903-1.197c-.084-.224-.33-.336-.735-.336a.468.468 0 00-.21.042.524.524 0 01-.23.042v-1.428h-2.52v1.596a.927.927 0 00-.651-.252c-.378 0-.61.112-.693.336l-1.197 1.554-.609-.903v-2.33h-2.624v2.582l-.378.65h-.084l-1.092-1.553c-.14-.224-.378-.336-.714-.336-.322 0-.553.112-.693.336l-.567.735v-2.415h-2.624V21.8m-3.612-1.344H11.11v3.402h2.582v-3.402m19.653 6.677h.819v.903h-.82v1.07h.82v.589h-.82v.903H31.12v-.903h-1.47v.903h-2.225v-.903h-1.47v.903h-2.246v-.903H22.3v.903h-2.289v-.903H18.69v.903h-2.373v-6.572l1.176-1.596 1.197 1.596v3.107h1.322v-3.107l1.176-1.596 1.197 1.596H22.3v3.107h1.407v-3.107l1.175-1.596 1.071 1.596v3.107h1.47v-3.107l1.155-1.596 1.07 1.596v3.107h1.47v-3.107l1.071-1.596 1.155 1.596v3.107m-13.333 1.974v-1.071H18.69v1.07h1.322m3.696 0v-1.07H22.3v1.07h1.407m3.716 0v-1.07h-1.47v1.07h1.47m3.695-1.07h-1.47v1.07h1.47v-1.07"
         fill-opacity=".949" fill="#fff" />
   </g>
</svg>