<?xml version="1.0" encoding="UTF-8" standalone="no"?>
<svg width="11.2889mm" height="11.2889mm"
 viewBox="0 0 32 32"
 xmlns="http://www.w3.org/2000/svg" xmlns:xlink="http://www.w3.org/1999/xlink"  version="1.2" baseProfile="tiny">
<title>Qt SVG Document</title>
<desc>Generated with Qt</desc>
<defs>
</defs>
<g fill="none" stroke="black" stroke-width="1" fill-rule="evenodd" stroke-linecap="square" stroke-linejoin="bevel" >

<g fill="#ef4b65" fill-opacity="1" stroke="none" transform="matrix(1,0,0,1,0,0)"
font-family="MS Shell Dlg 2" font-size="7.8" font-weight="400" font-style="normal" 
>
<path vector-effect="non-scaling-stroke" fill-rule="evenodd" d="M37.2598,16 C37.2598,27.7415 27.7415,37.2598 16,37.2598 C4.25851,37.2598 -5.25984,27.7415 -5.25984,16 C-5.25984,4.25851 4.25851,-5.25984 16,-5.25984 C27.7415,-5.25984 37.2598,4.25851 37.2598,16 "/>
</g>

<g fill="#ffffff" fill-opacity="0.94902" stroke="none" transform="matrix(1,0,0,1,16,12.5984)"
font-family="MS Shell Dlg 2" font-size="7.8" font-weight="400" font-style="normal" 
>
<path vector-effect="none" fill-rule="evenodd" d="M11.9839,6.69238 L11.9839,14.4609 L11.0391,14.4609 L11.0391,11.4165 L7.97363,11.4165 L7.97363,14.4609 L7.0708,14.4609 L7.0708,11.4165 L4.02637,11.4165 L4.02637,14.4609 L3.08154,14.4609 L3.08154,11.4165 L1.31787,11.4165 L1.31787,12.9702 L1.31787,14.335 C1.02393,14.4749 0.806966,14.5449 0.666992,14.5449 C0.611003,14.5449 0.499023,14.4469 0.331055,14.251 C0.331055,14.391 0.30306,14.4889 0.24707,14.5449 L-0.23584,14.5449 C-0.375814,14.5449 -0.498291,14.5309 -0.603271,14.5029 C-0.708252,14.4749 -0.830729,14.4609 -0.970703,14.4609 L-0.970703,14.335 L-0.970703,14.167 L-0.970703,13.999 L-0.886719,13.915 L-0.886719,11.4165 L-4.01514,11.4165 L-4.01514,14.4609 L-4.95996,14.4609 L-4.95996,11.4165 L-7.4585,11.4165 C-7.4585,11.7384 -7.40251,12.0114 -7.29053,12.2354 C-7.23454,12.3753 -7.18555,12.4943 -7.14355,12.5923 C-7.10156,12.6903 -7.04557,12.7882 -6.97559,12.8862 C-6.9196,13.0262 -6.87061,13.1592 -6.82861,13.2852 C-6.78662,13.4111 -6.72363,13.5511 -6.63965,13.7051 C-6.52767,13.985 -6.3387,14.167 -6.07275,14.251 C-6.17074,14.391 -6.26172,14.4924 -6.3457,14.5554 C-6.42969,14.6184 -6.52767,14.6779 -6.63965,14.7339 C-6.72363,14.7899 -6.82511,14.8179 -6.94409,14.8179 C-7.06307,14.8179 -7.17855,14.8179 -7.29053,14.8179 C-7.4305,14.7619 -7.54248,14.7339 -7.62646,14.7339 C-7.71045,14.7339 -7.81543,14.7059 -7.94141,14.6499 C-8.02539,14.5799 -8.10938,14.5449 -8.19336,14.5449 C-8.27734,14.5449 -8.37533,14.5169 -8.4873,14.4609 L-8.92822,14.4609 L-8.92822,13.6001 C-9.09619,13.4881 -9.19417,13.4321 -9.22217,13.4321 C-9.13818,12.7183 -9.13818,12.0464 -9.22217,11.4165 L-11.9727,11.4165 L-11.9727,14.4609 L-12.9175,14.4609 L-12.9175,6.69238 L-12.4556,5.74756 L-11.9727,6.69238 L-11.9727,10.5557 L-9.39014,10.5557 C-9.39014,10.4717 -9.41113,10.3632 -9.45313,10.2302 C-9.49512,10.0972 -9.5791,9.96077 -9.70508,9.8208 C-9.55111,9.62484 -9.44613,9.43937 -9.39014,9.2644 C-9.33415,9.08944 -9.27816,8.93197 -9.22217,8.79199 C-9.22217,8.65202 -9.22917,8.51554 -9.24316,8.38257 C-9.25716,8.24959 -9.30615,8.11312 -9.39014,7.97314 C-9.47412,7.56722 -9.6071,7.29427 -9.78906,7.1543 C-9.92904,6.90234 -10.111,6.6154 -10.335,6.29346 C-10.4189,6.15348 -10.5064,5.99601 -10.5974,5.82104 C-10.6884,5.64608 -10.7899,5.47461 -10.9019,5.30664 C-11.0698,4.94271 -11.1538,4.65576 -11.1538,4.4458 C-11.1538,4.82373 -11.2098,4.95671 -11.3218,4.84473 C-11.3218,4.71875 -11.3988,4.61377 -11.5527,4.52979 C-11.5527,4.36182 -11.5457,4.19035 -11.5317,4.01538 C-11.5177,3.84041 -11.4757,3.71094 -11.4058,3.62695 C-11.4058,3.48698 -11.3918,3.354 -11.3638,3.22803 C-11.3358,3.10205 -11.3218,2.99007 -11.3218,2.89209 C-11.2378,2.66813 -11.1258,2.48617 -10.9858,2.34619 C-10.9299,2.23421 -10.8599,2.11873 -10.7759,1.99976 C-10.6919,1.88078 -10.6009,1.7793 -10.5029,1.69531 C-10.4189,1.55534 -10.328,1.43636 -10.23,1.33838 C-10.132,1.2404 -10.041,1.14242 -9.95703,1.04443 C-9.81706,0.79248 -9.62809,0.610514 -9.39014,0.498535 C-9.08219,0.288574 -8.75675,0.141602 -8.41382,0.0576172 C-8.07088,-0.0263672 -7.66846,-0.0963542 -7.20654,-0.152344 L-4.49805,-0.152344 C-4.26009,-0.152344 -4.02913,-0.159342 -3.80518,-0.17334 C-3.58122,-0.187337 -3.35026,-0.222331 -3.1123,-0.27832 C-2.88835,-0.27832 -2.67489,-0.292318 -2.47192,-0.320313 C-2.26896,-0.348307 -2.0555,-0.362305 -1.83154,-0.362305 C-1.59359,-0.418294 -1.37663,-0.446289 -1.18066,-0.446289 C-0.984701,-0.446289 -0.795736,-0.474284 -0.61377,-0.530273 C-0.389811,-0.530273 -0.18335,-0.544271 0.00561523,-0.572266 C0.19458,-0.60026 0.359049,-0.614258 0.499023,-0.614258 C1.07292,-0.614258 1.52783,-0.530273 1.86377,-0.362305 C2.10173,-0.306315 2.31868,-0.257324 2.51465,-0.215332 C2.71061,-0.17334 2.89958,-0.152344 3.08154,-0.152344 C3.3055,-0.152344 3.59245,-0.250326 3.94238,-0.446289 C4.16634,-0.530273 4.34831,-0.691243 4.48828,-0.929199 C4.48828,-1.09717 4.44629,-1.20915 4.3623,-1.26514 C4.3623,-1.40511 4.30632,-1.53809 4.19434,-1.66406 C4.13835,-1.72005 4.11035,-1.76904 4.11035,-1.81104 C4.11035,-1.85303 4.08236,-1.91602 4.02637,-2 C3.97038,-2.05599 3.92139,-2.12598 3.87939,-2.20996 C3.8374,-2.29395 3.81641,-2.38493 3.81641,-2.48291 C3.8724,-2.5389 3.93538,-2.5529 4.00537,-2.5249 C4.07536,-2.49691 4.13835,-2.48291 4.19434,-2.48291 C4.25033,-2.41292 4.27832,-2.35693 4.27832,-2.31494 C4.27832,-2.27295 4.30632,-2.20996 4.3623,-2.12598 L4.67725,-1.83203 C4.78923,-1.72005 4.9012,-1.66406 5.01318,-1.66406 L5.01318,-2.86084 C4.95719,-3.0848 4.9222,-3.31226 4.9082,-3.54321 C4.89421,-3.77417 4.84521,-4.03662 4.76123,-4.33057 C4.76123,-4.41455 4.69824,-4.56852 4.57227,-4.79248 C4.57227,-5.03044 4.50228,-5.2474 4.3623,-5.44336 C4.27832,-5.63932 4.16634,-5.82129 4.02637,-5.98926 C3.94238,-6.17122 3.80941,-6.26221 3.62744,-6.26221 C3.2915,-6.26221 3.01855,-6.11523 2.80859,-5.82129 C2.7526,-5.62533 2.68962,-5.43286 2.61963,-5.2439 C2.54964,-5.05493 2.48665,-4.84847 2.43066,-4.62451 C2.43066,-4.40055 2.41667,-4.18709 2.38867,-3.98413 C2.36068,-3.78117 2.34668,-3.56071 2.34668,-3.32275 C2.40267,-3.0988 2.43066,-2.89233 2.43066,-2.70337 C2.43066,-2.5144 2.43066,-2.37793 2.43066,-2.29395 C2.29069,-2.29395 2.17871,-2.5389 2.09473,-3.02881 C2.03874,-3.26676 1.98625,-3.51872 1.93726,-3.78467 C1.88826,-4.05062 1.89176,-4.33057 1.94775,-4.62451 C1.94775,-4.90446 1.97925,-5.18791 2.04224,-5.47485 C2.10522,-5.7618 2.17871,-6.02425 2.2627,-6.26221 C2.43066,-6.8361 2.8016,-7.20703 3.37549,-7.375 C3.64144,-7.45898 3.91439,-7.40299 4.19434,-7.20703 C4.3903,-7.15104 4.54077,-7.07756 4.64575,-6.98657 C4.75073,-6.89559 4.84521,-6.78011 4.9292,-6.64014 C5.20915,-6.38818 5.39111,-6.07324 5.4751,-5.69531 C5.60107,-5.55534 5.67106,-5.44336 5.68506,-5.35938 C5.69906,-5.27539 5.73405,-5.17041 5.79004,-5.04443 C5.84603,-4.82048 5.87402,-4.61401 5.87402,-4.42505 C5.87402,-4.23608 5.90202,-4.04362 5.95801,-3.84766 C5.95801,-3.70768 5.97201,-3.58521 6,-3.48022 C6.02799,-3.37524 6.04199,-3.25277 6.04199,-3.11279 C6.04199,-2.88883 6.06999,-2.70687 6.12598,-2.56689 L6.12598,-2 L6.20996,-1.91602 C6.29395,-1.91602 6.34993,-1.93001 6.37793,-1.95801 C6.40592,-1.95801 6.41992,-1.97201 6.41992,-2 C6.48991,-2.11198 6.5249,-2.20996 6.5249,-2.29395 C6.5249,-2.37793 6.5529,-2.49691 6.60889,-2.65088 C6.60889,-2.79085 6.62288,-2.91683 6.65088,-3.02881 C6.67887,-3.14079 6.72087,-3.27376 6.77686,-3.42773 C6.77686,-3.70768 6.84684,-3.94564 6.98682,-4.1416 C7.0988,-4.37956 7.15479,-4.54053 7.15479,-4.62451 C7.21077,-4.7085 7.26326,-4.79948 7.31226,-4.89746 C7.36125,-4.99544 7.44173,-5.12142 7.55371,-5.27539 C7.6377,-5.41536 7.72868,-5.54834 7.82666,-5.67432 C7.92464,-5.80029 8.04362,-5.94027 8.18359,-6.09424 C8.33757,-6.2902 8.47754,-6.43717 8.60352,-6.53516 C8.72949,-6.63314 8.89046,-6.72412 9.08643,-6.80811 C9.49235,-6.90609 9.87028,-6.87809 10.2202,-6.72412 C10.4442,-6.66813 10.6121,-6.56315 10.7241,-6.40918 C10.8361,-6.25521 10.9411,-6.05924 11.0391,-5.82129 C11.0951,-5.62533 11.144,-5.41187 11.186,-5.18091 C11.228,-4.94995 11.249,-4.6945 11.249,-4.41455 C11.305,-4.1766 11.319,-3.94564 11.291,-3.72168 C11.263,-3.49772 11.249,-3.26676 11.249,-3.02881 C11.193,-2.83285 11.158,-2.69287 11.144,-2.60889 C11.13,-2.5249 11.123,-2.44792 11.123,-2.37793 C11.0111,-2.37793 10.9551,-2.5389 10.9551,-2.86084 C10.8851,-3.02881 10.8501,-3.22127 10.8501,-3.43823 C10.8501,-3.65519 10.8221,-3.86165 10.7661,-4.05762 C10.7101,-4.29557 10.6611,-4.51953 10.6191,-4.72949 C10.5771,-4.93945 10.5002,-5.14941 10.3882,-5.35938 C10.3042,-5.72331 10.1152,-5.90527 9.82129,-5.90527 C9.42936,-6.00326 9.03044,-5.66032 8.62451,-4.87646 C8.40055,-4.51253 8.18709,-4.05062 7.98413,-3.49072 C7.78117,-2.93083 7.56071,-2.24495 7.32275,-1.43311 L7.6377,-1.43311 C7.74967,-1.53109 7.86165,-1.63607 7.97363,-1.74805 C8.02962,-1.80404 8.07861,-1.83203 8.12061,-1.83203 C8.1626,-1.83203 8.21859,-1.86003 8.28857,-1.91602 C8.37256,-1.97201 8.44255,-2.014 8.49854,-2.04199 C8.55452,-2.06999 8.62451,-2.05599 8.7085,-2 C8.65251,-1.91602 8.61751,-1.83903 8.60352,-1.76904 C8.58952,-1.69906 8.54053,-1.63607 8.45654,-1.58008 C8.40055,-1.51009 8.35856,-1.4681 8.33057,-1.4541 C8.30257,-1.4401 8.25358,-1.40511 8.18359,-1.34912 C8.04362,-1.29313 7.91764,-1.20915 7.80566,-1.09717 C7.72168,-1.04118 7.67269,-0.971191 7.65869,-0.887207 C7.64469,-0.803223 7.6377,-0.71224 7.6377,-0.614258 C7.58171,-0.502279 7.55371,-0.348307 7.55371,-0.152344 C7.55371,0.0716146 7.51172,0.218587 7.42773,0.288574 C7.35775,0.400553 7.31576,0.498535 7.30176,0.58252 C7.28776,0.666504 7.23877,0.750488 7.15479,0.834473 C7.0708,1.07243 6.97282,1.26139 6.86084,1.40137 C6.80485,1.51335 6.77686,1.66732 6.77686,1.86328 L6.77686,2.34619 C6.69287,2.57015 6.61239,2.77661 6.5354,2.96558 C6.45841,3.15454 6.34993,3.34701 6.20996,3.54297 C6.06999,3.68294 5.96501,3.83341 5.89502,3.99438 C5.82503,4.15535 5.76204,4.30583 5.70605,4.4458 C5.70605,4.55778 5.67806,4.61377 5.62207,4.61377 C5.59408,4.64176 5.58008,4.64176 5.58008,4.61377 L5.39111,4.61377 C5.33512,4.61377 5.30713,4.59977 5.30713,4.57178 C5.30713,4.54378 5.27913,4.52979 5.22314,4.52979 L5.13916,4.52979 C4.9432,4.87972 4.68424,5.16667 4.3623,5.39063 C4.22233,5.47461 4.10335,5.56909 4.00537,5.67407 C3.90739,5.77905 3.78141,5.90153 3.62744,6.0415 L4.02637,6.69238 L4.02637,10.5557 L7.0708,10.5557 L7.0708,6.69238 L7.55371,5.74756 L7.97363,6.69238 L7.97363,10.5557 L11.0391,10.5557 L11.0391,6.69238 L11.501,5.74756 L11.9839,6.69238 M6.04199,1.31738 C6.04199,1.48535 6.06999,1.56934 6.12598,1.56934 C6.23796,1.56934 6.33594,1.48535 6.41992,1.31738 C6.60189,1.13542 6.69287,1.00244 6.69287,0.918457 C6.60889,0.666504 6.60889,0.393555 6.69287,0.0996094 C6.77686,-0.152344 6.87484,-0.390299 6.98682,-0.614258 C7.04281,-0.71224 7.0848,-0.803223 7.11279,-0.887207 C7.14079,-0.971191 7.18278,-1.04118 7.23877,-1.09717 C7.29476,-1.15316 7.32275,-1.19515 7.32275,-1.22314 L7.32275,-1.26514 C7.04281,-1.18115 6.86084,-1.02718 6.77686,-0.803223 C6.60889,-0.565267 6.48991,-0.320313 6.41992,-0.0683594 C6.36393,0.015625 6.31494,0.103109 6.27295,0.194092 C6.23096,0.285075 6.20996,0.386556 6.20996,0.498535 L6.20996,0.834473 L6.12598,0.918457 C6.18197,0.918457 6.20996,0.946452 6.20996,1.00244 L6.20996,1.04443 L6.5249,1.04443 C6.5249,1.04443 6.48991,1.07943 6.41992,1.14941 C6.36393,1.26139 6.26595,1.31738 6.12598,1.31738 L6.04199,1.31738 M5.13916,-0.929199 L5.22314,-0.719238 C5.51709,-0.803223 5.70605,-0.803223 5.79004,-0.719238 C5.84603,-0.649251 5.90202,-0.649251 5.95801,-0.719238 L5.95801,-0.76123 C5.95801,-0.76123 5.93001,-0.775228 5.87402,-0.803223 C5.87402,-0.859212 5.86003,-0.894206 5.83203,-0.908203 C5.80404,-0.922201 5.76204,-0.957194 5.70605,-1.01318 C5.67806,-1.01318 5.65007,-1.02718 5.62207,-1.05518 C5.59408,-1.05518 5.56958,-1.06217 5.54858,-1.07617 C5.52759,-1.09017 5.50309,-1.09717 5.4751,-1.09717 C5.4751,-1.12516 5.4611,-1.15316 5.43311,-1.18115 L5.39111,-1.18115 L5.34912,-1.18115 C5.32113,-1.18115 5.30713,-1.20915 5.30713,-1.26514 C5.25114,-1.32113 5.19515,-1.29313 5.13916,-1.18115 L5.13916,-0.929199 M-8.10938,13.2642 C-8.10938,13.3481 -8.01839,13.4321 -7.83643,13.5161 L-8.10938,12.0674 L-8.10938,13.2642 M-4.95996,7.23828 C-5.25391,7.29427 -5.53735,7.33976 -5.8103,7.37476 C-6.08325,7.40975 -6.3597,7.42725 -6.63965,7.42725 C-6.69564,7.62321 -6.75863,7.80518 -6.82861,7.97314 C-6.8986,8.14111 -6.98258,8.30208 -7.08057,8.45605 C-7.30452,8.70801 -7.4585,9.03695 -7.54248,9.44287 C-7.59847,9.63883 -7.62646,9.8313 -7.62646,10.0203 C-7.62646,10.2092 -7.62646,10.3877 -7.62646,10.5557 L-4.95996,10.5557 L-4.95996,7.23828 M-0.970703,10.5557 L-0.970703,6.69238 C-1.22266,6.77637 -1.47111,6.83936 -1.71606,6.88135 C-1.96102,6.92334 -2.20947,6.97233 -2.46143,7.02832 C-2.75537,7.02832 -3.01782,7.04932 -3.24878,7.09131 C-3.47974,7.1333 -3.73519,7.1543 -4.01514,7.1543 L-4.01514,10.5557 L-0.970703,10.5557 M0.499023,13.7051 C0.499023,13.5511 0.513021,13.4321 0.541016,13.3481 C0.56901,13.2642 0.583008,13.1662 0.583008,13.0542 C0.415039,12.9702 0.331055,12.7813 0.331055,12.4873 L0.331055,11.4165 C0.275065,11.5565 0.24707,11.686 0.24707,11.8049 C0.24707,11.9239 0.24707,12.0394 0.24707,12.1514 C0.149089,12.2633 0.100098,12.5083 0.100098,12.8862 C0.100098,13.3062 0.149089,13.5791 0.24707,13.7051 C0.24707,13.8171 0.261068,13.901 0.289063,13.957 C0.317057,14.013 0.331055,14.083 0.331055,14.167 C0.387044,14.111 0.415039,14.048 0.415039,13.978 C0.415039,13.908 0.443034,13.8171 0.499023,13.7051 M3.08154,10.5557 L2.99756,6.94434 C2.94157,7.08431 2.7806,7.21029 2.51465,7.32227 C2.43066,7.42025 2.35368,7.52523 2.28369,7.63721 C2.2137,7.74919 2.17871,7.91715 2.17871,8.14111 C2.06673,8.37907 1.97925,8.61003 1.91626,8.83398 C1.85327,9.05794 1.77979,9.2609 1.6958,9.44287 C1.61182,9.63883 1.54183,9.8313 1.48584,10.0203 C1.42985,10.2092 1.37386,10.3877 1.31787,10.5557 L3.08154,10.5557"/>
</g>

<g fill="#ef4b65" fill-opacity="1" stroke="none" transform="matrix(1,0,0,1,0,0)"
font-family="MS Shell Dlg 2" font-size="7.8" font-weight="400" font-style="normal" 
>
</g>
</g>
</svg>
