<svg xmlns="http://www.w3.org/2000/svg" version="1.2" viewBox="0 0 42.52 42.52" height="56.693" width="56.693">
   <g stroke-linejoin="bevel" stroke-linecap="square" fill-rule="evenodd" stroke="none" fill="none" font-weight="400"
      font-size="7.8" font-family="'MS Shell Dlg 2'">
      <path
         d="M42.52 21.26C42.52 33 33 42.52 21.26 42.52 9.518 42.52 0 33 0 21.26 0 9.518 9.518 0 21.26 0 33 0 42.52 9.518 42.52 21.26"
         vector-effect="non-scaling-stroke" fill="#ef4b65" />
      <path
         d="M33.244 24.55v7.77h-.945v-3.045h-3.066v3.044h-.902v-3.044h-3.045v3.044h-.945v-3.044h-1.763v2.918c-.294.14-.511.21-.651.21-.056 0-.168-.098-.336-.294 0 .14-.028.238-.084.294h-.483c-.14 0-.262-.014-.367-.042a1.434 1.434 0 00-.368-.042V31.857l.084-.084v-2.498h-3.128v3.044H16.3v-3.044H13.8c0 .322.056.595.168.819.056.14.105.259.147.357.042.098.098.195.168.293.056.14.105.273.147.4.042.125.105.265.19.42.111.28.3.461.566.545-.098.14-.189.242-.273.305a1.922 1.922 0 01-.294.178.536.536 0 01-.304.084h-.347a.968.968 0 00-.336-.084.813.813 0 01-.315-.084.394.394 0 00-.252-.105.677.677 0 01-.293-.084h-.441v-.86c-.168-.113-.266-.169-.294-.169a8.085 8.085 0 000-2.015h-2.75v3.044h-.946v-7.768l.462-.945.483.945v3.863h2.583a1.135 1.135 0 00-.315-.735c.154-.196.259-.381.315-.556.056-.175.112-.333.168-.473 0-.14-.007-.276-.021-.41a1.002 1.002 0 00-.147-.409c-.084-.406-.217-.678-.4-.818-.14-.252-.321-.54-.545-.861a9.01 9.01 0 01-.263-.473 5.51 5.51 0 00-.304-.514c-.168-.364-.252-.651-.252-.861 0 .378-.056.51-.168.399 0-.126-.077-.231-.23-.315 0-.168.006-.34.02-.514.014-.175.056-.305.126-.389 0-.14.014-.273.042-.399.028-.126.042-.238.042-.336.084-.224.196-.406.336-.546a2.68 2.68 0 01.21-.346c.084-.119.175-.22.273-.304.084-.14.175-.26.273-.357.098-.098.189-.196.273-.294.14-.252.329-.434.567-.546.308-.21.633-.357.976-.441.343-.084.745-.154 1.207-.21h2.709c.238 0 .469-.007.693-.021.224-.014.455-.05.693-.105.223 0 .437-.014.64-.042.203-.028.416-.042.64-.042.238-.056.455-.084.651-.084s.385-.028.567-.084c.224 0 .43-.014.62-.042.188-.028.353-.042.493-.042.574 0 1.029.084 1.365.252.238.056.455.105.65.147.196.042.385.063.567.063.224 0 .511-.098.861-.294.224-.084.406-.245.546-.483 0-.168-.042-.28-.126-.336a.594.594 0 00-.168-.399c-.056-.056-.084-.105-.084-.147 0-.042-.028-.105-.084-.189a.8.8 0 01-.147-.21.602.602 0 01-.063-.273c.056-.056.12-.07.19-.042.07.028.132.042.188.042.056.07.084.126.084.168 0 .042.028.105.084.19l.315.293c.112.112.224.168.336.168v-1.197a3.74 3.74 0 01-.105-.682 3.728 3.728 0 00-.147-.787c0-.084-.063-.238-.189-.462 0-.238-.07-.455-.21-.651a2.208 2.208 0 00-.336-.546c-.084-.182-.217-.273-.399-.273-.336 0-.609.147-.819.44a7.949 7.949 0 01-.189.578 5.92 5.92 0 00-.188.62c0 .224-.014.437-.042.64a4.854 4.854 0 00-.042.661c.056.224.084.43.084.62v.41c-.14 0-.252-.246-.336-.736-.056-.238-.109-.49-.158-.755a2.265 2.265 0 01.01-.84c0-.28.032-.564.095-.85a6.66 6.66 0 01.22-.788c.169-.574.54-.945 1.113-1.113.266-.084.54-.028.82.168.195.056.346.13.45.22.106.092.2.207.284.347.28.252.462.567.546.945.126.14.196.252.21.336.014.084.049.189.105.315.056.224.084.43.084.62 0 .188.028.38.084.577 0 .14.014.262.042.367.028.105.042.227.042.367 0 .224.028.406.084.546v.567l.084.084c.084 0 .14-.014.168-.042.028 0 .042-.014.042-.042a.577.577 0 00.105-.294c0-.084.028-.203.084-.357 0-.14.014-.266.042-.378.028-.112.07-.245.126-.398 0-.28.07-.518.21-.714.112-.238.168-.4.168-.483a2.54 2.54 0 00.157-.273c.05-.098.13-.224.242-.378.084-.14.175-.273.272-.4.098-.125.217-.265.357-.419a2.59 2.59 0 01.42-.44c.126-.099.287-.19.483-.274.406-.098.784-.07 1.134.084a.85.85 0 01.504.315c.112.154.217.35.315.588.056.196.105.41.147.64.042.231.063.487.063.767.056.238.07.469.042.693a5.582 5.582 0 00-.042.692 4.406 4.406 0 00-.105.42 1.413 1.413 0 00-.021.231c-.112 0-.168-.16-.168-.483a1.49 1.49 0 01-.105-.577c0-.217-.028-.423-.084-.62a20.472 20.472 0 01-.147-.671 2.293 2.293 0 00-.231-.63c-.084-.364-.273-.546-.567-.546-.392-.098-.79.245-1.197 1.029a7.637 7.637 0 00-.64 1.386c-.203.56-.423 1.245-.661 2.057h.315c.112-.098.223-.203.335-.315.056-.056.105-.084.147-.084.042 0 .098-.028.168-.084.084-.056.154-.098.21-.126.056-.028.126-.014.21.042a.662.662 0 00-.105.231c-.014.07-.063.133-.147.19a.505.505 0 01-.126.125 1.05 1.05 0 00-.147.105c-.14.056-.266.14-.377.252a.311.311 0 00-.147.21 1.663 1.663 0 00-.021.273 1.047 1.047 0 00-.084.462c0 .224-.042.37-.126.44a.84.84 0 00-.126.295.477.477 0 01-.147.252 1.942 1.942 0 01-.294.567 1.047 1.047 0 00-.084.462v.482c-.084.224-.165.43-.242.62a2.852 2.852 0 01-.325.577c-.14.14-.245.29-.315.452-.07.16-.133.311-.19.451 0 .112-.027.168-.083.168-.028.028-.042.028-.042 0h-.189c-.056 0-.084-.014-.084-.042 0-.028-.028-.042-.084-.042h-.084c-.196.35-.455.637-.777.86-.14.085-.259.18-.357.284a6.59 6.59 0 01-.378.368l.4.65v3.864h3.044V24.55l.483-.945.42.945v3.863h3.065V24.55l.462-.945.483.945m-5.942-5.375c0 .168.028.252.084.252.112 0 .21-.084.294-.252.182-.182.273-.315.273-.4a1.36 1.36 0 010-.818c.084-.252.182-.49.294-.714.056-.098.098-.189.126-.273a.527.527 0 01.126-.21c.056-.056.084-.098.084-.126v-.042c-.28.084-.462.238-.546.462a2.376 2.376 0 00-.357.735 1.932 1.932 0 00-.147.262.718.718 0 00-.063.305v.336l-.084.084c.056 0 .084.028.084.084v.042h.315l-.105.105c-.056.112-.154.168-.294.168h-.084m-.903-2.247l.084.21c.294-.084.483-.084.567 0 .056.07.112.07.168 0v-.042l-.084-.042c0-.056-.014-.091-.042-.105a.598.598 0 01-.126-.105c-.028 0-.056-.014-.084-.042a.13.13 0 01-.074-.02.13.13 0 00-.073-.022c0-.028-.014-.056-.042-.084h-.084c-.028 0-.042-.028-.042-.084-.056-.056-.112-.028-.168.084v.252M13.15 31.122c0 .084.091.168.273.252l-.273-1.448v1.196m3.15-6.025c-.294.056-.578.101-.85.136-.273.035-.55.052-.83.052a4.97 4.97 0 01-.189.546c-.07.168-.154.33-.252.483-.224.252-.378.581-.462.987a2.095 2.095 0 00-.084.578v.535H16.3v-3.317m3.99 3.317V24.55a5.06 5.06 0 01-.746.189 15.54 15.54 0 00-.746.147 4.43 4.43 0 00-.787.063 4.298 4.298 0 01-.766.063v3.4h3.044m1.47 3.15c0-.154.014-.273.042-.357a.93.93 0 00.042-.294c-.168-.084-.252-.272-.252-.566v-1.071c-.056.14-.084.27-.084.388v.347c-.098.112-.147.357-.147.734 0 .42.049.693.147.82 0 .111.014.195.042.251a.468.468 0 01.042.21.261.261 0 00.084-.189c0-.07.028-.16.084-.273m2.582-3.15l-.084-3.61c-.056.14-.217.266-.483.378a2.602 2.602 0 00-.23.314c-.07.112-.105.28-.105.504-.112.238-.2.47-.263.693a4.107 4.107 0 01-.22.61 5.262 5.262 0 00-.21.577c-.056.188-.112.367-.168.535h1.763"
         fill-opacity=".949" fill="#fff" />
   </g>
</svg>