<?xml version="1.0" encoding="UTF-8" standalone="no"?>
<svg
   xmlns:dc="http://purl.org/dc/elements/1.1/"
   xmlns:cc="http://creativecommons.org/ns#"
   xmlns:rdf="http://www.w3.org/1999/02/22-rdf-syntax-ns#"
   xmlns:svg="http://www.w3.org/2000/svg"
   xmlns="http://www.w3.org/2000/svg"
   xmlns:sodipodi="http://sodipodi.sourceforge.net/DTD/sodipodi-0.dtd"
   xmlns:inkscape="http://www.inkscape.org/namespaces/inkscape"
   inkscape:version="1.0 (4035a4fb49, 2020-05-01)"
   sodipodi:docname="2307.svg"
   id="svg20"
   version="1.2"
   viewBox="0 0 42.519639 42.519639"
   height="14.999999mm"
   width="14.999999mm">
  <metadata
     id="metadata24">
    <rdf:RDF>
      <cc:Work
         rdf:about="">
        <dc:format>image/svg+xml</dc:format>
        <dc:type
           rdf:resource="http://purl.org/dc/dcmitype/StillImage" />
        <dc:title>Qt SVG Document</dc:title>
      </cc:Work>
    </rdf:RDF>
  </metadata>
  <sodipodi:namedview
     inkscape:current-layer="svg20"
     inkscape:window-maximized="0"
     inkscape:window-y="0"
     inkscape:window-x="0"
     inkscape:cy="28.346482"
     inkscape:cx="28.346482"
     inkscape:zoom="5.8410537"
     showgrid="false"
     id="namedview22"
     inkscape:window-height="480"
     inkscape:window-width="1034"
     inkscape:pageshadow="2"
     inkscape:pageopacity="0"
     guidetolerance="10"
     gridtolerance="10"
     objecttolerance="10"
     borderopacity="1"
     bordercolor="#666666"
     pagecolor="#ffffff" />
  <title
     id="title2">Qt SVG Document</title>
  <desc
     id="desc4">Generated with Qt</desc>
  <defs
     id="defs6" />
  <g
     transform="translate(5.25984,5.25984)"
     id="g18"
     stroke-linejoin="bevel"
     stroke-linecap="square"
     fill-rule="evenodd"
     stroke-width="1"
     stroke="#000000"
     fill="none">
    <g
       id="g10"
       font-style="normal"
       font-weight="400"
       font-size="7.8px"
       font-family="'MS Shell Dlg 2'"
       stroke="none"
       fill-opacity="1"
       fill="#ef4b65">
      <path
         id="path8"
         d="M 37.2598,16 C 37.2598,27.7415 27.7415,37.2598 16,37.2598 4.25851,37.2598 -5.25984,27.7415 -5.25984,16 -5.25984,4.25851 4.25851,-5.25984 16,-5.25984 27.7415,-5.25984 37.2598,4.25851 37.2598,16"
         fill-rule="evenodd"
         vector-effect="non-scaling-stroke" />
    </g>
    <g
       id="g14"
       font-style="normal"
       font-weight="400"
       font-size="7.8px"
       font-family="'MS Shell Dlg 2'"
       transform="translate(16,12.5984)"
       stroke="none"
       fill-opacity="0.94902"
       fill="#ffffff">
      <path
         id="path12"
         d="M 11.9839,6.69238 V 14.4609 H 11.0391 V 11.4165 H 7.97363 v 3.0444 H 7.0708 V 11.4165 H 4.02637 v 3.0444 H 3.08154 V 11.4165 H 1.31787 v 1.5537 1.3648 c -0.29394,0.1399 -0.510904,0.2099 -0.650878,0.2099 -0.055989,0 -0.167969,-0.098 -0.335937,-0.2939 0,0.14 -0.027995,0.2379 -0.083985,0.2939 h -0.48291 c -0.139974,0 -0.262451,-0.014 -0.367431,-0.042 -0.104981,-0.028 -0.227458,-0.042 -0.367432,-0.042 V 14.335 14.167 13.999 l 0.083984,-0.084 V 11.4165 H -4.01514 v 3.0444 H -4.95996 V 11.4165 H -7.4585 c 0,0.3219 0.05599,0.5949 0.16797,0.8189 0.05599,0.1399 0.10498,0.2589 0.14698,0.3569 0.04199,0.098 0.09798,0.1959 0.16796,0.2939 0.05599,0.14 0.10498,0.273 0.14698,0.399 0.04199,0.1259 0.10498,0.2659 0.18896,0.4199 0.11198,0.2799 0.30095,0.4619 0.5669,0.5459 -0.09799,0.14 -0.18897,0.2414 -0.27295,0.3044 -0.08399,0.063 -0.18197,0.1225 -0.29395,0.1785 -0.08398,0.056 -0.18546,0.084 -0.30444,0.084 -0.11898,0 -0.23446,0 -0.34644,0 -0.13997,-0.056 -0.25195,-0.084 -0.33593,-0.084 -0.08399,0 -0.18897,-0.028 -0.31495,-0.084 -0.08398,-0.07 -0.16797,-0.105 -0.25195,-0.105 -0.08398,0 -0.18197,-0.028 -0.29394,-0.084 h -0.44092 v -0.8608 c -0.16797,-0.112 -0.26595,-0.168 -0.29395,-0.168 0.08399,-0.7138 0.08399,-1.3857 0,-2.0156 h -2.75053 v 3.0444 h -0.9448 V 6.69238 l 0.4619,-0.94482 0.4829,0.94482 v 3.86332 h 2.58256 c 0,-0.084 -0.02099,-0.1925 -0.06299,-0.3255 -0.04199,-0.133 -0.12597,-0.26943 -0.25195,-0.4094 0.15397,-0.19596 0.25895,-0.38143 0.31494,-0.5564 0.05599,-0.17496 0.11198,-0.33243 0.16797,-0.47241 0,-0.13997 -0.007,-0.27645 -0.02099,-0.40942 C -9.25716,8.24959 -9.30615,8.11312 -9.39014,7.97314 -9.47412,7.56722 -9.6071,7.29427 -9.78906,7.1543 -9.92904,6.90234 -10.111,6.6154 -10.335,6.29346 c -0.0839,-0.13998 -0.1714,-0.29745 -0.2624,-0.47242 -0.091,-0.17496 -0.1925,-0.34643 -0.3045,-0.5144 -0.1679,-0.36393 -0.2519,-0.65088 -0.2519,-0.86084 0,0.37793 -0.056,0.51091 -0.168,0.39893 0,-0.12598 -0.077,-0.23096 -0.2309,-0.31494 0,-0.16797 0.007,-0.33944 0.021,-0.51441 0.014,-0.17497 0.056,-0.30444 0.1259,-0.38843 0,-0.13997 0.014,-0.27295 0.042,-0.39892 0.028,-0.12598 0.042,-0.23796 0.042,-0.33594 0.084,-0.22396 0.196,-0.40592 0.336,-0.5459 0.0559,-0.11198 0.1259,-0.22746 0.2099,-0.34643 0.084,-0.11898 0.175,-0.22046 0.273,-0.30445 0.084,-0.13997 0.1749,-0.25895 0.2729,-0.35693 0.098,-0.09798 0.189,-0.19596 0.27297,-0.29395 0.13997,-0.25195 0.32894,-0.433916 0.56689,-0.545895 0.30795,-0.209961 0.63339,-0.356933 0.97632,-0.4409178 0.34294,-0.0839844 0.74536,-0.1539714 1.20728,-0.2099612 h 2.70849 c 0.23796,0 0.46892,-0.006998 0.69287,-0.020996 0.22396,-0.013997 0.45492,-0.048991 0.69288,-0.10498 0.22395,0 0.43741,-0.013998 0.64038,-0.041993 0.20296,-0.027994 0.41642,-0.041992 0.64038,-0.041992 0.23795,-0.055989 0.45491,-0.083984 0.65088,-0.083984 0.195959,0 0.384924,-0.027995 0.56689,-0.083984 0.223959,0 0.43042,-0.013998 0.61938523,-0.041993 C 0.19458,-0.60026 0.359049,-0.614258 0.499023,-0.614258 c 0.573897,0 1.028807,0.083985 1.364747,0.251953 0.23796,0.05599 0.45491,0.104981 0.65088,0.146973 0.19596,0.041992 0.38493,0.062988 0.56689,0.062988 0.22396,0 0.51091,-0.097982 0.86084,-0.293945 0.22396,-0.083984 0.40593,-0.244954 0.5459,-0.48291 0,-0.167971 -0.04199,-0.279951 -0.12598,-0.335941 0,-0.13997 -0.05598,-0.27295 -0.16796,-0.39892 C 4.13835,-1.72005 4.11035,-1.76904 4.11035,-1.81104 4.11035,-1.85303 4.08236,-1.91602 4.02637,-2 3.97038,-2.05599 3.92139,-2.12598 3.87939,-2.20996 3.8374,-2.29395 3.81641,-2.38493 3.81641,-2.48291 3.8724,-2.5389 3.93538,-2.5529 4.00537,-2.5249 c 0.06999,0.02799 0.13298,0.04199 0.18897,0.04199 0.05599,0.06999 0.08398,0.12598 0.08398,0.16797 0,0.04199 0.028,0.10498 0.08398,0.18896 l 0.31495,0.29395 c 0.11198,0.11198 0.22395,0.16797 0.33593,0.16797 V -2.86084 C 4.95719,-3.0848 4.9222,-3.31226 4.9082,-3.54321 4.89421,-3.77417 4.84521,-4.03662 4.76123,-4.33057 c 0,-0.08398 -0.06299,-0.23795 -0.18896,-0.46191 0,-0.23796 -0.06999,-0.45492 -0.20997,-0.65088 C 4.27832,-5.63932 4.16634,-5.82129 4.02637,-5.98926 3.94238,-6.17122 3.80941,-6.26221 3.62744,-6.26221 c -0.33594,0 -0.60889,0.14698 -0.81885,0.44092 -0.05599,0.19596 -0.11897,0.38843 -0.18896,0.57739 -0.06999,0.18897 -0.13298,0.39543 -0.18897,0.61939 0,0.22396 -0.01399,0.43742 -0.04199,0.64038 -0.02799,0.20296 -0.04199,0.42342 -0.04199,0.66138 0.05599,0.22395 0.08398,0.43042 0.08398,0.61938 0,0.18897 0,0.32544 0,0.40942 -0.13997,0 -0.25195,-0.24495 -0.33593,-0.73486 -0.05599,-0.23795 -0.10848,-0.48991 -0.15747,-0.75586 -0.049,-0.26595 -0.0455,-0.5459 0.01049,-0.83984 0,-0.27995 0.0315,-0.5634 0.09449,-0.85034 0.06298,-0.28695 0.13647,-0.5494 0.22046,-0.78736 0.16796,-0.57389 0.5389,-0.94482 1.11279,-1.11279 0.26595,-0.08398 0.5389,-0.02799 0.81885,0.16797 0.19596,0.05599 0.34643,0.12947 0.45141,0.22046 0.10498,0.09098 0.19946,0.20646 0.28345,0.34643 0.27995,0.25196 0.46191,0.5669 0.5459,0.94483 0.12597,0.13997 0.19596,0.25195 0.20996,0.33593 0.014,0.08399 0.04899,0.18897 0.10498,0.31495 0.05599,0.22395 0.08398,0.43042 0.08398,0.61938 0,0.18897 0.028,0.38143 0.08399,0.57739 0,0.13998 0.014,0.26245 0.04199,0.36744 0.02799,0.10498 0.04199,0.22745 0.04199,0.36743 0,0.22396 0.028,0.40592 0.08399,0.5459 V -2 l 0.08398,0.08398 c 0.08399,0 0.13997,-0.01399 0.16797,-0.04199 0.02799,0 0.04199,-0.014 0.04199,-0.04199 0.06999,-0.11198 0.10498,-0.20996 0.10498,-0.29395 0,-0.08398 0.028,-0.20296 0.08399,-0.35693 0,-0.13997 0.01399,-0.26595 0.04199,-0.37793 0.02799,-0.11198 0.06999,-0.24495 0.12598,-0.39892 0,-0.27995 0.06998,-0.51791 0.20996,-0.71387 0.11198,-0.23796 0.16797,-0.39893 0.16797,-0.48291 0.05598,-0.08399 0.10847,-0.17497 0.15747,-0.27295 0.04899,-0.09798 0.12947,-0.22396 0.24145,-0.37793 0.08399,-0.13997 0.17497,-0.27295 0.27295,-0.39893 0.09798,-0.12597 0.21696,-0.26595 0.35693,-0.41992 0.15398,-0.19596 0.29395,-0.34293 0.41993,-0.44092 0.12597,-0.09798 0.28694,-0.18896 0.48291,-0.27295 0.40592,-0.09798 0.78385,-0.06998 1.13377,0.08399 0.224,0.05599 0.3919,0.16097 0.5039,0.31494 0.112,0.15397 0.217,0.34994 0.315,0.58789 0.056,0.19596 0.1049,0.40942 0.1469,0.64038 0.042,0.23096 0.063,0.48641 0.063,0.76636 0.056,0.23795 0.07,0.46891 0.042,0.69287 -0.028,0.22396 -0.042,0.45492 -0.042,0.69287 -0.056,0.19596 -0.091,0.33594 -0.105,0.41992 -0.014,0.08399 -0.021,0.16097 -0.021,0.23096 -0.1119,0 -0.1679,-0.16097 -0.1679,-0.48291 -0.07,-0.16797 -0.105,-0.36043 -0.105,-0.57739 0,-0.21696 -0.028,-0.42342 -0.084,-0.61939 -0.056,-0.23795 -0.105,-0.46191 -0.147,-0.67187 -0.042,-0.20996 -0.1189,-0.41992 -0.2309,-0.62989 -0.084,-0.36393 -0.273,-0.54589 -0.56691,-0.54589 -0.39193,-0.09799 -0.79085,0.24495 -1.19678,1.02881 -0.22396,0.36393 -0.43742,0.82584 -0.64038,1.38574 -0.20296,0.55989 -0.42342,1.24577 -0.66138,2.05761 H 7.6377 c 0.11197,-0.09798 0.22395,-0.20296 0.33593,-0.31494 0.05599,-0.05599 0.10498,-0.08398 0.14698,-0.08398 0.04199,0 0.09798,-0.028 0.16796,-0.08399 0.08399,-0.05599 0.15398,-0.09798 0.20997,-0.12597 0.05598,-0.028 0.12597,-0.014 0.20996,0.04199 -0.05599,0.08398 -0.09099,0.16097 -0.10498,0.23096 -0.014,0.06998 -0.06299,0.13297 -0.14698,0.18896 -0.05599,0.06999 -0.09798,0.11198 -0.12597,0.12598 -0.028,0.014 -0.07699,0.04899 -0.14698,0.10498 -0.13997,0.05599 -0.26595,0.13997 -0.37793,0.25195 -0.08398,0.05599 -0.13297,0.125979 -0.14697,0.209963 -0.014,0.083984 -0.02099,0.174967 -0.02099,0.272949 -0.05599,0.111979 -0.08399,0.265951 -0.08399,0.461914 0,0.2239586 -0.04199,0.370931 -0.12598,0.440918 C 7.35775,0.400553 7.31576,0.498535 7.30176,0.58252 7.28776,0.666504 7.23877,0.750488 7.15479,0.834473 7.0708,1.07243 6.97282,1.26139 6.86084,1.40137 6.80485,1.51335 6.77686,1.66732 6.77686,1.86328 V 2.34619 C 6.69287,2.57015 6.61239,2.77661 6.5354,2.96558 6.45841,3.15454 6.34993,3.34701 6.20996,3.54297 6.06999,3.68294 5.96501,3.83341 5.89502,3.99438 5.82503,4.15535 5.76204,4.30583 5.70605,4.4458 c 0,0.11198 -0.02799,0.16797 -0.08398,0.16797 -0.02799,0.02799 -0.04199,0.02799 -0.04199,0 H 5.39111 c -0.05599,0 -0.08398,-0.014 -0.08398,-0.04199 0,-0.028 -0.028,-0.04199 -0.08399,-0.04199 H 5.13916 C 4.9432,4.87972 4.68424,5.16667 4.3623,5.39063 4.22233,5.47461 4.10335,5.56909 4.00537,5.67407 3.90739,5.77905 3.78141,5.90153 3.62744,6.0415 L 4.02637,6.69238 V 10.5557 H 7.0708 V 6.69238 L 7.55371,5.74756 7.97363,6.69238 V 10.5557 H 11.0391 V 6.69238 l 0.4619,-0.94482 0.4829,0.94482 m -5.94191,-5.375 c 0,0.16797 0.028,0.25196 0.08399,0.25196 0.11198,0 0.20996,-0.08399 0.29394,-0.25196 C 6.60189,1.13542 6.69287,1.00244 6.69287,0.918457 6.60889,0.666504 6.60889,0.393555 6.69287,0.0996094 6.77686,-0.152344 6.87484,-0.390299 6.98682,-0.614258 7.04281,-0.71224 7.0848,-0.803223 7.11279,-0.887207 7.14079,-0.971191 7.18278,-1.04118 7.23877,-1.09717 7.29476,-1.15316 7.32275,-1.19515 7.32275,-1.22314 v -0.042 C 7.04281,-1.18115 6.86084,-1.02718 6.77686,-0.803223 6.60889,-0.565267 6.48991,-0.320313 6.41992,-0.0683594 6.36393,0.015625 6.31494,0.103109 6.27295,0.194092 6.23096,0.285075 6.20996,0.386556 6.20996,0.498535 V 0.834473 L 6.12598,0.918457 c 0.05599,0 0.08398,0.027995 0.08398,0.083983 V 1.04443 H 6.5249 c 0,0 -0.03499,0.035 -0.10498,0.10498 C 6.36393,1.26139 6.26595,1.31738 6.12598,1.31738 H 6.04199 m -0.90283,-2.246579 0.08398,0.209961 c 0.29395,-0.083985 0.48291,-0.083985 0.5669,0 0.05599,0.069987 0.11198,0.069987 0.16797,0 V -0.76123 c 0,0 -0.028,-0.013998 -0.08399,-0.041993 0,-0.055989 -0.01399,-0.090983 -0.04199,-0.10498 -0.02799,-0.013998 -0.06999,-0.048991 -0.12598,-0.104977 -0.02799,0 -0.05598,-0.014 -0.08398,-0.042 -0.02799,0 -0.05249,-0.00699 -0.07349,-0.02099 -0.02099,-0.014 -0.04549,-0.021 -0.07348,-0.021 0,-0.02799 -0.014,-0.05599 -0.04199,-0.08398 h -0.042 -0.04199 c -0.02799,0 -0.04199,-0.028 -0.04199,-0.08399 -0.05599,-0.05599 -0.11198,-0.02799 -0.16797,0.08399 v 0.251951 M -8.10938,13.2642 c 0,0.0839 0.09099,0.1679 0.27295,0.2519 l -0.27295,-1.4487 v 1.1968 M -4.95996,7.23828 C -5.25391,7.29427 -5.53735,7.33976 -5.8103,7.37476 -6.08325,7.40975 -6.3597,7.42725 -6.63965,7.42725 -6.69564,7.62321 -6.75863,7.80518 -6.82861,7.97314 -6.8986,8.14111 -6.98258,8.30208 -7.08057,8.45605 -7.30452,8.70801 -7.4585,9.03695 -7.54248,9.44287 -7.59847,9.63883 -7.62646,9.8313 -7.62646,10.0203 c 0,0.1889 0,0.3674 0,0.5354 h 2.6665 V 7.23828 m 3.989257,3.31742 V 6.69238 C -1.22266,6.77637 -1.47111,6.83936 -1.71606,6.88135 c -0.24496,0.04199 -0.49341,0.09098 -0.74537,0.14697 -0.29394,0 -0.55639,0.021 -0.78735,0.06299 C -3.47974,7.1333 -3.73519,7.1543 -4.01514,7.1543 v 3.4014 h 3.044437 m 1.469726,3.1494 c 0,-0.154 0.013998,-0.273 0.041993,-0.357 C 0.56901,13.2642 0.583008,13.1662 0.583008,13.0542 0.415039,12.9702 0.331055,12.7813 0.331055,12.4873 v -1.0708 c -0.05599,0.14 -0.083985,0.2695 -0.083985,0.3884 0,0.119 0,0.2345 0,0.3465 -0.097981,0.1119 -0.146972,0.3569 -0.146972,0.7348 0,0.42 0.048991,0.6929 0.146972,0.8189 0,0.112 0.013998,0.1959 0.041993,0.2519 0.027994,0.056 0.041992,0.126 0.041992,0.21 0.055989,-0.056 0.083984,-0.119 0.083984,-0.189 0,-0.07 0.027995,-0.1609 0.083984,-0.2729 M 3.08154,10.5557 2.99756,6.94434 C 2.94157,7.08431 2.7806,7.21029 2.51465,7.32227 2.43066,7.42025 2.35368,7.52523 2.28369,7.63721 2.2137,7.74919 2.17871,7.91715 2.17871,8.14111 2.06673,8.37907 1.97925,8.61003 1.91626,8.83398 1.85327,9.05794 1.77979,9.2609 1.6958,9.44287 1.61182,9.63883 1.54183,9.8313 1.48584,10.0203 1.42985,10.2092 1.37386,10.3877 1.31787,10.5557 h 1.76367"
         fill-rule="evenodd"
         vector-effect="none" />
    </g>
    <g
       id="g16"
       font-style="normal"
       font-weight="400"
       font-size="7.8px"
       font-family="'MS Shell Dlg 2'"
       stroke="none"
       fill-opacity="1"
       fill="#ef4b65" />
  </g>
</svg>
