<?xml version="1.0" encoding="UTF-8" standalone="no"?>
<svg width="11.25008mm" height="11.25008mm"
 viewBox="-5.3 -5.3 42.52000 42.52000"
 xmlns="http://www.w3.org/2000/svg" xmlns:xlink="http://www.w3.org/1999/xlink"  version="1.2" baseProfile="tiny">
<title>Qt SVG Document</title>
<desc>Generated with Qt</desc>
<defs>
</defs>
<g fill="none" stroke="black" stroke-width="1" fill-rule="evenodd" stroke-linecap="square" stroke-linejoin="bevel" >

<g fill="#ef4b65" fill-opacity="1" stroke="none" transform="matrix(1,0,0,1,0,0)"
font-family="MS Shell Dlg 2" font-size="7.8" font-weight="400" font-style="normal" 
>
<path vector-effect="non-scaling-stroke" fill-rule="evenodd" d="M37.2598,16 C37.2598,27.7415 27.7415,37.2598 16,37.2598 C4.25851,37.2598 -5.25984,27.7415 -5.25984,16 C-5.25984,4.25851 4.25851,-5.25984 16,-5.25984 C27.7415,-5.25984 37.2598,4.25851 37.2598,16 "/>
</g>

<g fill="#ffffff" fill-opacity="0.94902" stroke="none" transform="matrix(1,0,0,1,13.7323,10.8976)"
font-family="MS Shell Dlg 2" font-size="7.8" font-weight="400" font-style="normal" 
>
<path vector-effect="none" fill-rule="evenodd" d="M-3.80908,10.9126 C-4.32699,10.9126 -4.7679,10.7306 -5.13184,10.3667 C-5.49577,10.0028 -5.67773,9.55485 -5.67773,9.02295 C-5.67773,8.49105 -5.49577,8.04313 -5.13184,7.6792 C-4.7679,7.31527 -4.32699,7.1333 -3.80908,7.1333 C-3.27718,7.1333 -2.82926,7.31527 -2.46533,7.6792 C-2.1014,8.04313 -1.91943,8.49105 -1.91943,9.02295 C-1.91943,9.55485 -2.1014,10.0028 -2.46533,10.3667 C-2.82926,10.7306 -3.27718,10.9126 -3.80908,10.9126 M12.085,8.2041 C12.5049,8.2041 12.8618,8.34757 13.1558,8.63452 C13.4497,8.92147 13.5967,9.2749 13.5967,9.69482 L13.5967,13.6631 L1.90186,13.6631 L1.90186,8.2041 L12.085,8.2041 M-10.6958,6.54541 L-13.4043,7.76318 L-13.4043,5.15967 L13.6177,-7.03906 L13.6177,-4.41455 L-8.17627,5.41162 L-8.17627,14.9438 L13.6177,14.9438 L13.6177,17.4844 L-10.6958,17.4844 L-10.6958,6.54541 M-1.0166,9.00195 C-1.0166,8.736 -0.922119,8.51204 -0.733154,8.33008 C-0.544189,8.14811 -0.32373,8.05713 -0.0717773,8.05713 C0.180176,8.05713 0.400635,8.14811 0.5896,8.33008 C0.778564,8.51204 0.873047,8.736 0.873047,9.00195 L0.873047,12.7183 C0.873047,12.9702 0.778564,13.1907 0.5896,13.3796 C0.400635,13.5686 0.180176,13.6631 -0.0717773,13.6631 L-4.37598,13.6631 C-4.64193,13.6631 -4.86239,13.5686 -5.03735,13.3796 C-5.21232,13.1907 -5.2998,12.9702 -5.2998,12.7183 C-5.2998,12.4663 -5.21232,12.2528 -5.03735,12.0779 C-4.86239,11.9029 -4.64193,11.8154 -4.37598,11.8154 L-1.0166,11.8154 L-1.0166,9.00195"/>
</g>

<g fill="#ef4b65" fill-opacity="1" stroke="none" transform="matrix(1,0,0,1,0,0)"
font-family="MS Shell Dlg 2" font-size="7.8" font-weight="400" font-style="normal" 
>
</g>
</g>
</svg>
