<?xml version="1.0" encoding="UTF-8" standalone="no"?>
<svg
   xmlns:dc="http://purl.org/dc/elements/1.1/"
   xmlns:cc="http://creativecommons.org/ns#"
   xmlns:rdf="http://www.w3.org/1999/02/22-rdf-syntax-ns#"
   xmlns:svg="http://www.w3.org/2000/svg"
   xmlns="http://www.w3.org/2000/svg"
   xmlns:sodipodi="http://sodipodi.sourceforge.net/DTD/sodipodi-0.dtd"
   xmlns:inkscape="http://www.inkscape.org/namespaces/inkscape"
   inkscape:version="1.0 (4035a4fb49, 2020-05-01)"
   sodipodi:docname="2309.svg"
   id="svg20"
   version="1.2"
   viewBox="0 0 42.519639 42.519639"
   height="14.999999mm"
   width="14.999999mm">
  <metadata
     id="metadata24">
    <rdf:RDF>
      <cc:Work
         rdf:about="">
        <dc:format>image/svg+xml</dc:format>
        <dc:type
           rdf:resource="http://purl.org/dc/dcmitype/StillImage" />
        <dc:title>Qt SVG Document</dc:title>
      </cc:Work>
    </rdf:RDF>
  </metadata>
  <sodipodi:namedview
     inkscape:current-layer="svg20"
     inkscape:window-maximized="0"
     inkscape:window-y="0"
     inkscape:window-x="0"
     inkscape:cy="28.346482"
     inkscape:cx="28.346482"
     inkscape:zoom="5.8410537"
     showgrid="false"
     id="namedview22"
     inkscape:window-height="480"
     inkscape:window-width="1034"
     inkscape:pageshadow="2"
     inkscape:pageopacity="0"
     guidetolerance="10"
     gridtolerance="10"
     objecttolerance="10"
     borderopacity="1"
     bordercolor="#666666"
     pagecolor="#ffffff" />
  <title
     id="title2">Qt SVG Document</title>
  <desc
     id="desc4">Generated with Qt</desc>
  <defs
     id="defs6" />
  <g
     transform="translate(5.25984,5.25984)"
     id="g18"
     stroke-linejoin="bevel"
     stroke-linecap="square"
     fill-rule="evenodd"
     stroke-width="1"
     stroke="#000000"
     fill="none">
    <g
       id="g10"
       font-style="normal"
       font-weight="400"
       font-size="7.8px"
       font-family="'MS Shell Dlg 2'"
       stroke="none"
       fill-opacity="1"
       fill="#ef4b65">
      <path
         id="path8"
         d="M 37.2598,16 C 37.2598,27.7415 27.7415,37.2598 16,37.2598 4.25851,37.2598 -5.25984,27.7415 -5.25984,16 -5.25984,4.25851 4.25851,-5.25984 16,-5.25984 27.7415,-5.25984 37.2598,4.25851 37.2598,16"
         fill-rule="evenodd"
         vector-effect="non-scaling-stroke" />
    </g>
    <g
       id="g14"
       font-style="normal"
       font-weight="400"
       font-size="7.8px"
       font-family="'MS Shell Dlg 2'"
       transform="translate(16,11.4646)"
       stroke="none"
       fill-opacity="0.94902"
       fill="#ffffff">
      <path
         id="path12"
         d="m 12.1689,12.3193 v 2.5406 h -24.3764 v -2.5406 h 2.70848 V -1.30713 H -11.6406 L 0.012207,-7.98389 11.623,-1.30713 H 9.46045 V 12.3193 H 12.1689 M 5.59717,8.58203 C 5.9471,8.26009 6.23405,7.85767 6.45801,7.37476 6.68197,6.89185 6.87093,6.41943 7.0249,5.95752 7.16488,5.43962 7.29085,4.89372 7.40283,4.31982 6.74495,4.37581 6.12907,4.4738 5.55518,4.61377 5.03727,4.76774 4.51237,4.94971 3.98047,5.15967 3.44857,5.36963 3.00065,5.63558 2.63672,5.95752 1.90885,6.5874 1.56242,7.18929 1.59741,7.76318 1.63241,8.33708 1.80387,8.75 2.11182,9.00195 2.43376,9.2959 2.91667,9.45687 3.56055,9.48486 4.20443,9.51286 4.8833,9.21191 5.59717,8.58203 M 0.012207,-5.98926 c -0.741862,0.76986 -1.385747,1.56771 -1.931637,2.39356 -0.48991,0.71386 -0.93083,1.50122 -1.32276,2.36206 -0.39192,0.860837 -0.58789,1.697182 -0.58789,2.50903 0,1.6237 0.36743,2.76799 1.1023,3.43286 0.73486,0.66488 1.64819,0.99732 2.739987,0.99732 C 1.07601,5.70557 1.98584,5.37313 2.7417,4.70825 3.49756,4.04338 3.87549,2.89909 3.87549,1.27539 3.87549,0.463542 3.67603,-0.372803 3.2771,-1.23364 2.87817,-2.09448 2.43376,-2.88184 1.94385,-3.5957 1.36995,-4.42155 0.726074,-5.2194 0.012207,-5.98926 M -2.6543,5.95752 C -3.03223,5.63558 -3.48714,5.36963 -4.01904,5.15967 -4.55094,4.94971 -5.05485,4.76774 -5.53076,4.61377 -6.10465,4.4738 -6.70654,4.37581 -7.33643,4.31982 c 0.05599,0.5739 0.15398,1.1198 0.29395,1.6377 0.13997,0.46191 0.32544,0.93433 0.5564,1.41724 0.23095,0.48291 0.54939,0.88533 0.95532,1.20727 0.71387,0.62988 1.37874,0.93083 1.99463,0.90283 C -2.92025,9.45687 -2.45833,9.2959 -2.15039,9.00195 -1.82845,8.75 -1.65348,8.33708 -1.62549,7.76318 -1.59749,7.18929 -1.94043,6.5874 -2.6543,5.95752 M 5.17725,12.3193 C 4.68734,11.9134 4.03296,11.574 3.21411,11.301 2.39526,11.0281 1.48193,10.8636 0.474121,10.8076 V 6.77637 c 0,-0.028 -0.013997,-0.06999 -0.041992,-0.12598 C 0.348145,6.56641 0.208171,6.52441 0.012207,6.52441 c -0.237956,0 -0.398926,0.042 -0.48291,0.12598 -0.05599,0.05599 -0.069987,0.09798 -0.041992,0.12598 v 4.03123 c -1.007815,0.056 -1.917645,0.2205 -2.729495,0.4934 -0.81185,0.273 -1.46273,0.6124 -1.95263,1.0183 H 5.17725"
         fill-rule="evenodd"
         vector-effect="none" />
    </g>
    <g
       id="g16"
       font-style="normal"
       font-weight="400"
       font-size="7.8px"
       font-family="'MS Shell Dlg 2'"
       stroke="none"
       fill-opacity="1"
       fill="#ef4b65" />
  </g>
</svg>
