<svg xmlns="http://www.w3.org/2000/svg" version="1.2" viewBox="0 0 42.52 42.52" height="56.693" width="56.693">
   <g stroke-linejoin="bevel" stroke-linecap="square" fill-rule="evenodd" stroke="none" fill="none" font-weight="400"
      font-size="7.8" font-family="'MS Shell Dlg 2'">
      <path
         d="M42.52 21.26C42.52 33 33 42.52 21.26 42.52 9.518 42.52 0 33 0 21.26 0 9.518 9.518 0 21.26 0 33 0 42.52 9.518 42.52 21.26"
         vector-effect="non-scaling-stroke" fill="#ef4b65" />
      <path
         d="M33.429 29.044v2.54H9.052v-2.54h2.709V15.417H9.619l11.653-6.676 11.61 6.676H30.72v13.627h2.709m-6.572-3.738c.35-.321.637-.724.86-1.207.225-.483.414-.955.568-1.417.14-.518.266-1.064.378-1.638-.658.056-1.274.154-1.848.294-.518.154-1.043.336-1.575.546-.532.21-.98.476-1.343.798-.728.63-1.075 1.232-1.04 1.806.035.574.207.986.515 1.238.322.294.805.455 1.448.483.644.028 1.323-.273 2.037-.903m-5.585-14.57a16.832 16.832 0 00-1.932 2.393c-.49.714-.93 1.501-1.322 2.362-.392.86-.588 1.697-.588 2.509 0 1.624.367 2.768 1.102 3.433.735.665 1.648.997 2.74.997 1.064 0 1.974-.332 2.73-.997.755-.665 1.133-1.81 1.133-3.433 0-.812-.2-1.648-.598-2.51a16.209 16.209 0 00-1.333-2.361 21.91 21.91 0 00-1.932-2.394m-2.666 11.947a4.804 4.804 0 00-1.365-.798 25.572 25.572 0 00-1.512-.546 12.155 12.155 0 00-1.806-.294c.056.574.154 1.12.294 1.638.14.462.326.934.557 1.417.23.483.55.886.955 1.207.714.63 1.379.931 1.995.903.616-.028 1.078-.189 1.385-.483.322-.252.497-.664.525-1.238.028-.574-.315-1.176-1.028-1.806m7.831 6.362c-.49-.406-1.144-.746-1.963-1.019-.819-.272-1.732-.437-2.74-.493v-4.031a.322.322 0 00-.042-.126c-.084-.084-.224-.126-.42-.126-.238 0-.399.042-.483.126-.056.056-.07.098-.042.126v4.031c-1.008.056-1.917.22-2.73.493-.811.273-1.462.613-1.952 1.019h10.372"
         fill-opacity=".949" fill="#fff" />
   </g>
</svg>