<?xml version="1.0" encoding="UTF-8" standalone="no"?>
<svg width="11.2889mm" height="11.2889mm"
 viewBox="0 0 32 32"
 xmlns="http://www.w3.org/2000/svg" xmlns:xlink="http://www.w3.org/1999/xlink"  version="1.2" baseProfile="tiny">
<title>Qt SVG Document</title>
<desc>Generated with Qt</desc>
<defs>
</defs>
<g fill="none" stroke="black" stroke-width="1" fill-rule="evenodd" stroke-linecap="square" stroke-linejoin="bevel" >

<g fill="#ef4b65" fill-opacity="1" stroke="none" transform="matrix(1,0,0,1,0,0)"
font-family="MS Shell Dlg 2" font-size="7.8" font-weight="400" font-style="normal" 
>
<path vector-effect="non-scaling-stroke" fill-rule="evenodd" d="M37.2598,16 C37.2598,27.7415 27.7415,37.2598 16,37.2598 C4.25851,37.2598 -5.25984,27.7415 -5.25984,16 C-5.25984,4.25851 4.25851,-5.25984 16,-5.25984 C27.7415,-5.25984 37.2598,4.25851 37.2598,16 "/>
</g>

<g fill="#ffffff" fill-opacity="0.94902" stroke="none" transform="matrix(1,0,0,1,16,11.4646)"
font-family="MS Shell Dlg 2" font-size="7.8" font-weight="400" font-style="normal" 
>
<path vector-effect="none" fill-rule="evenodd" d="M12.1689,12.3193 L12.1689,14.8599 L-12.2075,14.8599 L-12.2075,12.3193 L-9.49902,12.3193 L-9.49902,-1.30713 L-11.6406,-1.30713 L0.012207,-7.98389 L11.623,-1.30713 L9.46045,-1.30713 L9.46045,12.3193 L12.1689,12.3193 M5.59717,8.58203 C5.9471,8.26009 6.23405,7.85767 6.45801,7.37476 C6.68197,6.89185 6.87093,6.41943 7.0249,5.95752 C7.16488,5.43962 7.29085,4.89372 7.40283,4.31982 C6.74495,4.37581 6.12907,4.4738 5.55518,4.61377 C5.03727,4.76774 4.51237,4.94971 3.98047,5.15967 C3.44857,5.36963 3.00065,5.63558 2.63672,5.95752 C1.90885,6.5874 1.56242,7.18929 1.59741,7.76318 C1.63241,8.33708 1.80387,8.75 2.11182,9.00195 C2.43376,9.2959 2.91667,9.45687 3.56055,9.48486 C4.20443,9.51286 4.8833,9.21191 5.59717,8.58203 M0.012207,-5.98926 C-0.729655,-5.2194 -1.37354,-4.42155 -1.91943,-3.5957 C-2.40934,-2.88184 -2.85026,-2.09448 -3.24219,-1.23364 C-3.63411,-0.372803 -3.83008,0.463542 -3.83008,1.27539 C-3.83008,2.89909 -3.46265,4.04338 -2.72778,4.70825 C-1.99292,5.37313 -1.07959,5.70557 0.012207,5.70557 C1.07601,5.70557 1.98584,5.37313 2.7417,4.70825 C3.49756,4.04338 3.87549,2.89909 3.87549,1.27539 C3.87549,0.463542 3.67603,-0.372803 3.2771,-1.23364 C2.87817,-2.09448 2.43376,-2.88184 1.94385,-3.5957 C1.36995,-4.42155 0.726074,-5.2194 0.012207,-5.98926 M-2.6543,5.95752 C-3.03223,5.63558 -3.48714,5.36963 -4.01904,5.15967 C-4.55094,4.94971 -5.05485,4.76774 -5.53076,4.61377 C-6.10465,4.4738 -6.70654,4.37581 -7.33643,4.31982 C-7.28044,4.89372 -7.18245,5.43962 -7.04248,5.95752 C-6.90251,6.41943 -6.71704,6.89185 -6.48608,7.37476 C-6.25513,7.85767 -5.93669,8.26009 -5.53076,8.58203 C-4.81689,9.21191 -4.15202,9.51286 -3.53613,9.48486 C-2.92025,9.45687 -2.45833,9.2959 -2.15039,9.00195 C-1.82845,8.75 -1.65348,8.33708 -1.62549,7.76318 C-1.59749,7.18929 -1.94043,6.5874 -2.6543,5.95752 M5.17725,12.3193 C4.68734,11.9134 4.03296,11.574 3.21411,11.301 C2.39526,11.0281 1.48193,10.8636 0.474121,10.8076 L0.474121,6.77637 C0.474121,6.74837 0.460124,6.70638 0.432129,6.65039 C0.348145,6.56641 0.208171,6.52441 0.012207,6.52441 C-0.225749,6.52441 -0.386719,6.56641 -0.470703,6.65039 C-0.526693,6.70638 -0.54069,6.74837 -0.512695,6.77637 L-0.512695,10.8076 C-1.52051,10.8636 -2.43034,11.0281 -3.24219,11.301 C-4.05404,11.574 -4.70492,11.9134 -5.19482,12.3193 L5.17725,12.3193"/>
</g>

<g fill="#ef4b65" fill-opacity="1" stroke="none" transform="matrix(1,0,0,1,0,0)"
font-family="MS Shell Dlg 2" font-size="7.8" font-weight="400" font-style="normal" 
>
</g>
</g>
</svg>
