<?xml version="1.0" encoding="UTF-8" standalone="no"?>
<svg width="11.25008mm" height="11.25008mm"
 viewBox="-5.3 -5.3 42.52000 42.52000"
 xmlns="http://www.w3.org/2000/svg" xmlns:xlink="http://www.w3.org/1999/xlink"  version="1.2" baseProfile="tiny">
<title>Qt SVG Document</title>
<desc>Generated with Qt</desc>
<defs>
</defs>
<g fill="none" stroke="black" stroke-width="1" fill-rule="evenodd" stroke-linecap="square" stroke-linejoin="bevel" >

<g fill="#ef4b65" fill-opacity="1" stroke="none" transform="matrix(1,0,0,1,0,0)"
font-family="MS Shell Dlg 2" font-size="7.8" font-weight="400" font-style="normal" 
>
<path vector-effect="non-scaling-stroke" fill-rule="evenodd" d="M37.2598,16 C37.2598,27.7415 27.7415,37.2598 16,37.2598 C4.25851,37.2598 -5.25984,27.7415 -5.25984,16 C-5.25984,4.25851 4.25851,-5.25984 16,-5.25984 C27.7415,-5.25984 37.2598,4.25851 37.2598,16 "/>
</g>

<g fill="#ffffff" fill-opacity="0.94902" stroke="none" transform="matrix(1,0,0,1,16,12.5984)"
font-family="MS Shell Dlg 2" font-size="7.8" font-weight="400" font-style="normal" 
>
<path vector-effect="none" fill-rule="evenodd" d="M2.80469,14.083 C3.00065,14.083 3.17912,14.097 3.34009,14.125 C3.50106,14.153 3.58154,14.195 3.58154,14.251 C3.52555,14.307 3.41707,14.363 3.2561,14.4189 C3.09513,14.4749 2.91667,14.5519 2.7207,14.6499 C2.48275,14.7619 2.25879,14.8599 2.04883,14.9438 C1.83887,15.0278 1.6709,15.1258 1.54492,15.2378 C1.40495,15.3218 1.30697,15.4932 1.25098,15.7522 C1.19499,16.0111 1.16699,16.2596 1.16699,16.4976 C1.16699,16.8055 1.18099,17.061 1.20898,17.2639 C1.23698,17.4669 1.25098,17.5964 1.25098,17.6523 C1.19499,17.6523 1.01302,17.4914 0.705078,17.1694 C0.579102,17.0295 0.460124,16.8685 0.348145,16.6865 C0.236165,16.5046 0.124186,16.3086 0.012207,16.0986 C-0.0437826,15.9587 -0.11027,15.7662 -0.187256,15.5212 C-0.264242,15.2763 -0.302734,15.0558 -0.302734,14.8599 C-0.330729,14.7479 -0.344727,14.6394 -0.344727,14.5344 C-0.344727,14.4294 -0.344727,14.349 -0.344727,14.293 C-0.344727,14.209 -0.330729,14.139 -0.302734,14.083 C-0.386719,13.7331 -0.456706,13.4146 -0.512695,13.1277 C-0.568685,12.8407 -0.624674,12.5713 -0.680664,12.3193 C-0.736654,12.0954 -0.792643,11.8819 -0.848633,11.679 C-0.904622,11.476 -1.0096,11.2765 -1.16357,11.0806 C-1.21956,10.9826 -1.26855,10.8846 -1.31055,10.7866 C-1.35254,10.6886 -1.42952,10.5977 -1.5415,10.5137 L-1.62549,10.3877 L-1.70947,10.3037 L-1.83545,10.3037 L-1.83545,10.2197 L-1.91943,10.1357 L-2.1084,9.90479 C-2.30436,9.70882 -2.52482,9.51636 -2.76978,9.32739 C-3.01473,9.13843 -3.24919,8.97396 -3.47314,8.83398 C-3.7111,8.75 -3.97005,8.63452 -4.25,8.48755 C-4.52995,8.34058 -4.81689,8.1971 -5.11084,8.05713 C-5.46077,7.97314 -5.80021,7.85417 -6.12915,7.7002 C-6.45809,7.54622 -6.73454,7.35026 -6.9585,7.1123 L-7.04248,7.1123 C-7.04248,7.05632 -6.927,7.02832 -6.69604,7.02832 C-6.46509,7.02832 -6.22363,7.02832 -5.97168,7.02832 C-5.77572,7.02832 -5.58325,7.00732 -5.39429,6.96533 C-5.20532,6.92334 -5.11084,6.87435 -5.11084,6.81836 C-5.13883,6.81836 -5.18083,6.80436 -5.23682,6.77637 L-5.48877,6.65039 C-5.64274,6.5944 -5.81071,6.54191 -5.99268,6.49292 C-6.17464,6.44393 -6.33561,6.39144 -6.47559,6.33545 C-6.71354,6.25146 -6.90251,6.16748 -7.04248,6.0835 C-7.12646,6.02751 -7.19645,5.98551 -7.25244,5.95752 L-7.25244,5.87354 L-7.16846,5.78955 C-7.14046,5.76156 -7.09847,5.68457 -7.04248,5.55859 C-6.9585,5.5026 -6.84302,5.41862 -6.69604,5.30664 C-6.54907,5.19466 -6.3776,5.08268 -6.18164,4.9707 C-5.98568,4.88672 -5.74422,4.79924 -5.45728,4.70825 C-5.17033,4.61727 -4.82389,4.57178 -4.41797,4.57178 C-4.11003,4.51579 -3.7251,4.52279 -3.26318,4.59277 C-2.80127,4.66276 -2.32536,4.85872 -1.83545,5.18066 C-1.28955,5.40462 -0.824137,5.69857 -0.439209,6.0625 C-0.0542806,6.42643 0.250163,6.80436 0.474121,7.19629 C0.5861,7.40625 0.701579,7.60221 0.820557,7.78418 C0.939535,7.96615 1.02702,8.16211 1.08301,8.37207 C1.139,8.42806 1.16699,8.52604 1.16699,8.66602 C1.22298,8.72201 1.25798,8.771 1.27197,8.81299 C1.28597,8.85498 1.32096,8.93197 1.37695,9.04395 C1.37695,9.12793 1.39095,9.22241 1.41895,9.32739 C1.44694,9.43237 1.46094,9.52686 1.46094,9.61084 C1.51693,9.86279 1.56242,10.0903 1.59741,10.2932 C1.63241,10.4962 1.6499,10.6956 1.6499,10.8916 C1.6499,11.1296 1.63241,11.3465 1.59741,11.5425 C1.56242,11.7384 1.54492,11.9134 1.54492,12.0674 C1.48893,12.4593 1.44694,12.7847 1.41895,13.0437 C1.39095,13.3027 1.40495,13.5511 1.46094,13.7891 C1.48893,13.7891 1.55192,13.8031 1.6499,13.8311 C1.70589,13.859 1.76888,13.887 1.83887,13.915 C1.90885,13.943 1.97184,13.971 2.02783,13.999 C2.16781,14.055 2.31128,14.083 2.45825,14.083 C2.60522,14.083 2.7207,14.083 2.80469,14.083 M-3.76709,5.87354 C-3.7111,5.73356 -3.7286,5.59709 -3.81958,5.46411 C-3.91056,5.33114 -4.02604,5.23665 -4.16602,5.18066 C-3.97005,5.26465 -3.87207,5.42562 -3.87207,5.66357 C-4.06803,5.59359 -4.243,5.5446 -4.39697,5.5166 C-4.55094,5.48861 -4.73291,5.47461 -4.94287,5.47461 C-4.94287,5.36263 -4.89738,5.27165 -4.8064,5.20166 C-4.71541,5.13167 -4.62793,5.09668 -4.54395,5.09668 C-4.75391,5.09668 -4.90088,5.14567 -4.98486,5.24365 C-5.06885,5.34163 -5.11084,5.44661 -5.11084,5.55859 C-5.11084,5.99251 -4.92188,6.25146 -4.54395,6.33545 C-4.15202,6.33545 -3.89307,6.18148 -3.76709,5.87354 M0.600098,13.6001 C0.670085,13.8101 0.782064,13.999 0.936035,14.167 C1.09001,14.335 1.23698,14.4959 1.37695,14.6499 C1.23698,14.4959 1.132,14.335 1.06201,14.167 C0.992025,13.999 0.929036,13.8101 0.873047,13.6001 C0.817057,13.4041 0.80306,13.2117 0.831055,13.0227 C0.859049,12.8337 0.873047,12.6693 0.873047,12.5293 C0.873047,12.3333 0.887044,12.1269 0.915039,11.9099 C0.943034,11.693 0.929036,11.4865 0.873047,11.2905 C0.873047,11.0806 0.887044,10.8496 0.915039,10.5977 C0.943034,10.3457 0.901042,10.1427 0.789063,9.98877 C0.691081,9.59684 0.530111,9.14893 0.306152,8.64502 C0.082194,8.14111 -0.148763,7.73519 -0.386719,7.42725 C-0.610677,7.10531 -0.887126,6.76587 -1.21606,6.40894 C-1.545,6.052 -1.91243,5.80355 -2.31836,5.66357 L-3.09521,7.1123 C-2.74528,7.25228 -2.40584,7.42375 -2.0769,7.62671 C-1.74797,7.82967 -1.47152,8.07813 -1.24756,8.37207 C-1.0096,8.68001 -0.775146,8.97746 -0.544189,9.2644 C-0.313232,9.55135 -0.127767,9.89779 0.012207,10.3037 C0.0681966,10.4437 0.117188,10.6082 0.15918,10.7971 C0.201172,10.9861 0.250163,11.1785 0.306152,11.3745 C0.306152,11.5145 0.32015,11.679 0.348145,11.8679 C0.376139,12.0569 0.390137,12.2493 0.390137,12.4453 C0.390137,12.7952 0.460124,13.1802 0.600098,13.6001 M11.917,7.1123 C12.3509,7.05632 12.7183,7.03532 13.0193,7.04932 C13.3202,7.06331 13.4707,7.1123 13.4707,7.19629 C13.4707,7.25228 13.3272,7.38875 13.0403,7.60571 C12.7533,7.82267 12.4349,8.04313 12.085,8.26709 C11.889,8.42106 11.6825,8.56104 11.4656,8.68701 C11.2486,8.81299 11.0701,8.93197 10.9302,9.04395 C10.5243,9.36589 10.2653,9.62484 10.1533,9.8208 C10.0693,9.96077 10.0203,10.1322 10.0063,10.3352 C9.99235,10.5382 9.98535,10.7516 9.98535,10.9756 C10.0413,11.2135 10.0903,11.455 10.1323,11.7 C10.1743,11.9449 10.2513,12.1934 10.3633,12.4453 C10.5732,12.9352 10.7552,13.3446 10.9092,13.6736 C11.0632,14.0025 11.1121,14.195 11.0562,14.251 C11.0562,14.307 10.9337,14.293 10.6887,14.209 C10.4438,14.125 10.1813,13.985 9.90137,13.7891 C9.15951,13.3551 8.54362,12.8372 8.05371,12.2354 C7.81576,12.0114 7.5603,11.7035 7.28735,11.3115 C7.0144,10.9196 6.77995,10.5557 6.58398,10.2197 C6.47201,10.0098 6.38802,9.8278 6.33203,9.67383 C6.27604,9.51986 6.22005,9.37288 6.16406,9.23291 L6.01709,8.83398 C5.82113,8.55404 5.64616,8.29159 5.49219,8.04663 C5.33822,7.80168 5.18424,7.51823 5.03027,7.19629 C4.8903,6.97233 4.75033,6.73787 4.61035,6.49292 C4.47038,6.24797 4.3234,5.99951 4.16943,5.74756 C3.74951,4.93571 3.13363,4.20085 2.32178,3.54297 C1.6639,2.96908 0.761068,2.38118 -0.386719,1.7793 C-0.960612,1.49935 -1.5415,1.2229 -2.12939,0.949951 C-2.71729,0.677002 -3.32617,0.435547 -3.95605,0.225586 C-4.58594,0.085612 -5.22282,-0.0333659 -5.8667,-0.131348 C-6.51058,-0.229329 -7.20345,-0.33431 -7.94531,-0.446289 C-8.65918,-0.530273 -9.36955,-0.624756 -10.0764,-0.729736 C-10.7833,-0.834717 -11.4517,-1.02718 -12.0815,-1.30713 C-12.1375,-1.36312 -11.9416,-1.4576 -11.4937,-1.59058 C-11.0457,-1.72355 -10.5978,-1.86003 -10.1499,-2 C-9.71598,-2.13997 -9.30656,-2.27645 -8.92163,-2.40942 C-8.5367,-2.5424 -8.37223,-2.63688 -8.42822,-2.69287 C-8.42822,-2.80485 -8.74316,-2.86084 -9.37305,-2.86084 C-9.68099,-2.91683 -10.0064,-2.95182 -10.3494,-2.96582 C-10.6923,-2.97982 -11.0107,-3.01481 -11.3047,-3.0708 C-11.8786,-3.0708 -12.33,-3.0988 -12.6589,-3.15479 C-12.9879,-3.21077 -13.1523,-3.26676 -13.1523,-3.32275 L-13.1523,-3.46973 C-13.1243,-3.49772 -13.0964,-3.53971 -13.0684,-3.5957 C-13.0124,-3.67969 -12.9144,-3.81966 -12.7744,-4.01563 C-12.6204,-4.22559 -12.4385,-4.46704 -12.2285,-4.73999 C-12.0186,-5.01294 -11.7526,-5.26139 -11.4307,-5.48535 C-11.0247,-5.7653 -10.5733,-6.04875 -10.0764,-6.33569 C-9.57951,-6.62264 -8.95313,-6.88509 -8.19727,-7.12305 C-7.88932,-7.23503 -7.51839,-7.31201 -7.08447,-7.354 C-6.65055,-7.396 -6.22363,-7.44499 -5.80371,-7.50098 C-5.3138,-7.50098 -4.82389,-7.48698 -4.33398,-7.45898 C-3.84408,-7.43099 -3.32617,-7.34701 -2.78027,-7.20703 C-2.23438,-7.12305 -1.71297,-6.98657 -1.21606,-6.79761 C-0.719157,-6.60864 -0.239746,-6.40218 0.222168,-6.17822 C0.656087,-5.91227 1.06551,-5.65682 1.45044,-5.41187 C1.83537,-5.16691 2.2028,-4.90446 2.55273,-4.62451 C2.7487,-4.48454 2.91667,-4.33407 3.05664,-4.1731 C3.19661,-4.01213 3.37158,-3.86165 3.58154,-3.72168 L3.7915,-3.46973 L3.87549,-3.32275 L3.95947,-3.23877 C4.07145,-3.15479 4.17293,-3.0708 4.26392,-2.98682 C4.3549,-2.90283 4.42839,-2.83285 4.48438,-2.77686 C4.76432,-2.42692 5.02677,-2.08049 5.27173,-1.73755 C5.51668,-1.39461 5.76514,-1.02018 6.01709,-0.614258 C6.22705,-0.27832 6.41602,0.0751139 6.58398,0.446045 C6.75195,0.816976 6.91292,1.2054 7.06689,1.61133 C7.20687,2.01725 7.33285,2.40568 7.44482,2.77661 C7.5568,3.14754 7.65479,3.48698 7.73877,3.79492 C7.86475,4.14486 7.95573,4.48429 8.01172,4.81323 C8.06771,5.14217 8.1377,5.45361 8.22168,5.74756 C8.33366,5.99951 8.43864,6.24097 8.53662,6.47192 C8.6346,6.70288 8.78857,6.91634 8.99854,7.1123 C9.11051,7.1403 9.22249,7.16829 9.33447,7.19629 C9.44645,7.22428 9.56893,7.24528 9.7019,7.25928 C9.83488,7.27327 9.98535,7.28027 10.1533,7.28027 C10.4753,7.28027 10.7937,7.26628 11.1086,7.23828 C11.4236,7.21029 11.693,7.16829 11.917,7.1123 M-6.58057,-4.33057 C-6.31462,-4.58252 -6.18164,-4.86947 -6.18164,-5.19141 C-6.18164,-5.41536 -6.27612,-5.63582 -6.46509,-5.85278 C-6.65405,-6.06974 -6.9165,-6.20622 -7.25244,-6.26221 C-6.73454,-6.17822 -6.47559,-5.91927 -6.47559,-5.48535 C-6.88151,-5.48535 -7.26994,-5.46436 -7.64087,-5.42236 C-8.0118,-5.38037 -8.37223,-5.33138 -8.72217,-5.27539 C-8.77816,-5.47135 -8.74316,-5.63932 -8.61719,-5.7793 C-8.49121,-5.91927 -8.32324,-6.05225 -8.11328,-6.17822 C-8.84115,-5.94027 -9.12809,-5.54834 -8.97412,-5.00244 C-8.91813,-4.6665 -8.74666,-4.40405 -8.45972,-4.21509 C-8.17277,-4.02612 -7.87533,-3.93164 -7.56738,-3.93164 C-7.16146,-4.01563 -6.83252,-4.1486 -6.58057,-4.33057 M-4.25,-3.15479 C-2.6123,-2.84684 -1.23706,-2.34644 -0.124268,-1.65356 C0.988525,-0.960693 1.92635,-0.194336 2.68921,0.645508 C3.45207,1.48535 4.09945,2.37069 4.63135,3.30151 C5.16325,4.23234 5.66366,5.10718 6.13257,5.92603 C6.60148,6.74487 7.10889,7.44824 7.65479,8.03613 C8.20068,8.62402 8.87956,9.02295 9.69141,9.23291 C8.96354,8.82699 8.37215,8.26359 7.91724,7.54272 C7.46232,6.82186 7.0424,6.01001 6.65747,5.10718 C6.27254,4.20435 5.85612,3.26652 5.4082,2.2937 C4.96029,1.32088 4.3724,0.369059 3.64453,-0.561768 C2.91667,-1.49259 2.00684,-2.34644 0.915039,-3.12329 C-0.176758,-3.90015 -1.5695,-4.52653 -3.26318,-5.00244 L-4.25,-3.15479 M-3.01123,-5.56934 C-1.37354,-5.2474 0.0192057,-4.6735 1.16699,-3.84766 C2.31478,-3.02181 3.2841,-2.08398 4.07495,-1.03418 C4.8658,0.015625 5.51668,1.10742 6.02759,2.24121 C6.53849,3.375 6.99691,4.40731 7.40283,5.33813 C7.80876,6.26896 8.19718,7.02832 8.56812,7.61621 C8.93905,8.2041 9.38346,8.48405 9.90137,8.45605 C9.35547,8.30208 8.91105,7.90316 8.56812,7.25928 C8.22518,6.6154 7.88924,5.83504 7.5603,4.91821 C7.23136,4.00138 6.84294,3.00757 6.39502,1.93677 C5.9471,0.865967 5.35221,-0.194336 4.61035,-1.24414 C3.86849,-2.29395 2.90967,-3.26326 1.73389,-4.1521 C0.558105,-5.04093 -0.91862,-5.7443 -2.69629,-6.26221 L-3.01123,-5.56934"/>
</g>

<g fill="#ef4b65" fill-opacity="1" stroke="none" transform="matrix(1,0,0,1,0,0)"
font-family="MS Shell Dlg 2" font-size="7.8" font-weight="400" font-style="normal" 
>
</g>
</g>
</svg>
