<?xml version="1.0" encoding="UTF-8" standalone="no"?>
<svg
   xmlns:dc="http://purl.org/dc/elements/1.1/"
   xmlns:cc="http://creativecommons.org/ns#"
   xmlns:rdf="http://www.w3.org/1999/02/22-rdf-syntax-ns#"
   xmlns:svg="http://www.w3.org/2000/svg"
   xmlns="http://www.w3.org/2000/svg"
   xmlns:sodipodi="http://sodipodi.sourceforge.net/DTD/sodipodi-0.dtd"
   xmlns:inkscape="http://www.inkscape.org/namespaces/inkscape"
   inkscape:version="1.0 (4035a4fb49, 2020-05-01)"
   sodipodi:docname="2310.svg"
   id="svg20"
   version="1.2"
   viewBox="0 0 42.519639 42.519639"
   height="14.999999mm"
   width="14.999999mm">
  <metadata
     id="metadata24">
    <rdf:RDF>
      <cc:Work
         rdf:about="">
        <dc:format>image/svg+xml</dc:format>
        <dc:type
           rdf:resource="http://purl.org/dc/dcmitype/StillImage" />
        <dc:title>Qt SVG Document</dc:title>
      </cc:Work>
    </rdf:RDF>
  </metadata>
  <sodipodi:namedview
     inkscape:current-layer="svg20"
     inkscape:window-maximized="0"
     inkscape:window-y="0"
     inkscape:window-x="0"
     inkscape:cy="28.346482"
     inkscape:cx="28.346482"
     inkscape:zoom="5.8410537"
     showgrid="false"
     id="namedview22"
     inkscape:window-height="480"
     inkscape:window-width="1034"
     inkscape:pageshadow="2"
     inkscape:pageopacity="0"
     guidetolerance="10"
     gridtolerance="10"
     objecttolerance="10"
     borderopacity="1"
     bordercolor="#666666"
     pagecolor="#ffffff" />
  <title
     id="title2">Qt SVG Document</title>
  <desc
     id="desc4">Generated with Qt</desc>
  <defs
     id="defs6" />
  <g
     transform="translate(5.25984,5.25984)"
     id="g18"
     stroke-linejoin="bevel"
     stroke-linecap="square"
     fill-rule="evenodd"
     stroke-width="1"
     stroke="#000000"
     fill="none">
    <g
       id="g10"
       font-style="normal"
       font-weight="400"
       font-size="7.8px"
       font-family="'MS Shell Dlg 2'"
       stroke="none"
       fill-opacity="1"
       fill="#ef4b65">
      <path
         id="path8"
         d="M 37.2598,16 C 37.2598,27.7415 27.7415,37.2598 16,37.2598 4.25851,37.2598 -5.25984,27.7415 -5.25984,16 -5.25984,4.25851 4.25851,-5.25984 16,-5.25984 27.7415,-5.25984 37.2598,4.25851 37.2598,16"
         fill-rule="evenodd"
         vector-effect="non-scaling-stroke" />
    </g>
    <g
       id="g14"
       font-style="normal"
       font-weight="400"
       font-size="7.8px"
       font-family="'MS Shell Dlg 2'"
       transform="translate(16,12.5984)"
       stroke="none"
       fill-opacity="0.94902"
       fill="#ffffff">
      <path
         id="path12"
         d="m 2.80469,14.083 c 0.19596,0 0.37443,0.014 0.5354,0.042 0.16097,0.028 0.24145,0.07 0.24145,0.126 -0.05599,0.056 -0.16447,0.112 -0.32544,0.1679 -0.16097,0.056 -0.33943,0.133 -0.5354,0.231 -0.23795,0.112 -0.46191,0.21 -0.67187,0.2939 -0.20996,0.084 -0.37793,0.182 -0.50391,0.294 -0.13997,0.084 -0.23795,0.2554 -0.29394,0.5144 -0.05599,0.2589 -0.08399,0.5074 -0.08399,0.7454 0,0.3079 0.014,0.5634 0.04199,0.7663 0.028,0.203 0.042,0.3325 0.042,0.3884 -0.05599,0 -0.23796,-0.1609 -0.545902,-0.4829 C 0.579102,17.0295 0.460124,16.8685 0.348145,16.6865 0.236165,16.5046 0.124186,16.3086 0.012207,16.0986 -0.0437826,15.9587 -0.11027,15.7662 -0.187256,15.5212 c -0.076986,-0.2449 -0.115478,-0.4654 -0.115478,-0.6613 -0.027995,-0.112 -0.041993,-0.2205 -0.041993,-0.3255 0,-0.105 0,-0.1854 0,-0.2414 0,-0.084 0.013998,-0.154 0.041993,-0.21 -0.083985,-0.3499 -0.153972,-0.6684 -0.209961,-0.9553 -0.05599,-0.287 -0.111979,-0.5564 -0.167969,-0.8084 -0.05599,-0.2239 -0.111979,-0.4374 -0.167969,-0.6403 -0.055989,-0.203 -0.160967,-0.4025 -0.314937,-0.5984 -0.05599,-0.098 -0.10498,-0.196 -0.14698,-0.294 -0.04199,-0.098 -0.11897,-0.1889 -0.23095,-0.2729 l -0.08399,-0.126 -0.08398,-0.084 h -0.12598 v -0.084 L -1.91943,10.1357 -2.1084,9.90479 C -2.30436,9.70882 -2.52482,9.51636 -2.76978,9.32739 -3.01473,9.13843 -3.24919,8.97396 -3.47314,8.83398 -3.7111,8.75 -3.97005,8.63452 -4.25,8.48755 -4.52995,8.34058 -4.81689,8.1971 -5.11084,8.05713 -5.46077,7.97314 -5.80021,7.85417 -6.12915,7.7002 -6.45809,7.54622 -6.73454,7.35026 -6.9585,7.1123 h -0.08398 c 0,-0.05598 0.11548,-0.08398 0.34644,-0.08398 0.23095,0 0.47241,0 0.72436,0 0.19596,0 0.38843,-0.021 0.57739,-0.06299 0.18897,-0.04199 0.28345,-0.09098 0.28345,-0.14697 -0.02799,0 -0.06999,-0.014 -0.12598,-0.04199 L -5.48877,6.65039 C -5.64274,6.5944 -5.81071,6.54191 -5.99268,6.49292 -6.17464,6.44393 -6.33561,6.39144 -6.47559,6.33545 -6.71354,6.25146 -6.90251,6.16748 -7.04248,6.0835 -7.12646,6.02751 -7.19645,5.98551 -7.25244,5.95752 V 5.87354 l 0.08398,-0.08399 c 0.028,-0.02799 0.06999,-0.10498 0.12598,-0.23096 0.08398,-0.05599 0.19946,-0.13997 0.34644,-0.25195 0.14697,-0.11198 0.31844,-0.22396 0.5144,-0.33594 0.19596,-0.08398 0.43742,-0.17146 0.72436,-0.26245 0.28695,-0.09098 0.63339,-0.13647 1.03931,-0.13647 0.30794,-0.05599 0.69287,-0.04899 1.15479,0.02099 0.46191,0.06999 0.93782,0.26595 1.42773,0.58789 0.5459,0.22396 1.011313,0.51791 1.396241,0.88184 0.3849284,0.36393 0.689372,0.74186 0.91333,1.13379 C 0.5861,7.40625 0.701579,7.60221 0.820557,7.78418 0.939535,7.96615 1.02702,8.16211 1.08301,8.37207 1.139,8.42806 1.16699,8.52604 1.16699,8.66602 1.22298,8.72201 1.25798,8.771 1.27197,8.81299 c 0.014,0.04199 0.04899,0.11898 0.10498,0.23096 0,0.08398 0.014,0.17846 0.042,0.28344 0.02799,0.10498 0.04199,0.19947 0.04199,0.28345 0.05599,0.25195 0.10148,0.47946 0.13647,0.68236 0.035,0.203 0.05249,0.4024 0.05249,0.5984 0,0.238 -0.01749,0.4549 -0.05249,0.6509 -0.03499,0.1959 -0.05249,0.3709 -0.05249,0.5249 -0.05599,0.3919 -0.09798,0.7173 -0.12597,0.9763 -0.028,0.259 -0.014,0.5074 0.04199,0.7454 0.02799,0 0.09098,0.014 0.18896,0.042 0.05599,0.0279 0.11898,0.0559 0.18897,0.0839 0.06998,0.028 0.13297,0.056 0.18896,0.084 0.13998,0.056 0.28345,0.084 0.43042,0.084 0.14697,0 0.26245,0 0.34644,0 M -3.76709,5.87354 C -3.7111,5.73356 -3.7286,5.59709 -3.81958,5.46411 -3.91056,5.33114 -4.02604,5.23665 -4.16602,5.18066 -3.97005,5.26465 -3.87207,5.42562 -3.87207,5.66357 -4.06803,5.59359 -4.243,5.5446 -4.39697,5.5166 -4.55094,5.48861 -4.73291,5.47461 -4.94287,5.47461 c 0,-0.11198 0.04549,-0.20296 0.13647,-0.27295 0.09099,-0.06999 0.17847,-0.10498 0.26245,-0.10498 -0.20996,0 -0.35693,0.04899 -0.44091,0.14697 -0.08399,0.09798 -0.12598,0.20296 -0.12598,0.31494 0,0.43392 0.18896,0.69287 0.56689,0.77686 0.39193,0 0.65088,-0.15397 0.77686,-0.46191 m 4.367188,7.72656 c 0.069987,0.21 0.181966,0.3989 0.335937,0.5669 C 1.09001,14.335 1.23698,14.4959 1.37695,14.6499 1.23698,14.4959 1.132,14.335 1.06201,14.167 0.992025,13.999 0.929036,13.8101 0.873047,13.6001 0.817057,13.4041 0.80306,13.2117 0.831055,13.0227 c 0.027994,-0.189 0.041992,-0.3534 0.041992,-0.4934 0,-0.196 0.013997,-0.4024 0.041992,-0.6194 0.027995,-0.2169 0.013997,-0.4234 -0.041992,-0.6194 0,-0.2099 0.013997,-0.4409 0.041992,-0.6928 C 0.943034,10.3457 0.901042,10.1427 0.789063,9.98877 0.691081,9.59684 0.530111,9.14893 0.306152,8.64502 0.082194,8.14111 -0.148763,7.73519 -0.386719,7.42725 -0.610677,7.10531 -0.887126,6.76587 -1.21606,6.40894 -1.545,6.052 -1.91243,5.80355 -2.31836,5.66357 L -3.09521,7.1123 c 0.34993,0.13998 0.68937,0.31145 1.01831,0.51441 0.32893,0.20296 0.60538,0.45142 0.82934,0.74536 0.23796,0.30794 0.472414,0.60539 0.703371,0.89233 0.230957,0.28695 0.416422,0.63339 0.556396,1.0393 0.0559896,0.14 0.104981,0.3045 0.146973,0.4934 0.041992,0.189 0.090983,0.3814 0.146972,0.5774 0,0.14 0.013998,0.3045 0.041993,0.4934 0.027994,0.189 0.041992,0.3814 0.041992,0.5774 0,0.3499 0.069987,0.7349 0.209961,1.1548 M 11.917,7.1123 c 0.4339,-0.05598 0.8013,-0.07698 1.1023,-0.06298 0.3009,0.01399 0.4514,0.06298 0.4514,0.14697 0,0.05599 -0.1435,0.19246 -0.4304,0.40942 -0.287,0.21696 -0.6054,0.43742 -0.9553,0.66138 -0.196,0.15397 -0.4025,0.29395 -0.6194,0.41992 -0.217,0.12598 -0.3955,0.24496 -0.5354,0.35694 -0.4059,0.32194 -0.6649,0.58089 -0.7769,0.77685 -0.084,0.13997 -0.133,0.3114 -0.147,0.5144 -0.01395,0.203 -0.02095,0.4164 -0.02095,0.6404 0.05595,0.2379 0.10495,0.4794 0.14695,0.7244 0.042,0.2449 0.119,0.4934 0.231,0.7453 0.2099,0.4899 0.3919,0.8993 0.5459,1.2283 0.154,0.3289 0.2029,0.5214 0.147,0.5774 0,0.056 -0.1225,0.042 -0.3675,-0.042 C 10.4438,14.125 10.1813,13.985 9.90137,13.7891 9.15951,13.3551 8.54362,12.8372 8.05371,12.2354 7.81576,12.0114 7.5603,11.7035 7.28735,11.3115 7.0144,10.9196 6.77995,10.5557 6.58398,10.2197 6.47201,10.0098 6.38802,9.8278 6.33203,9.67383 6.27604,9.51986 6.22005,9.37288 6.16406,9.23291 L 6.01709,8.83398 C 5.82113,8.55404 5.64616,8.29159 5.49219,8.04663 5.33822,7.80168 5.18424,7.51823 5.03027,7.19629 4.8903,6.97233 4.75033,6.73787 4.61035,6.49292 4.47038,6.24797 4.3234,5.99951 4.16943,5.74756 3.74951,4.93571 3.13363,4.20085 2.32178,3.54297 1.6639,2.96908 0.761068,2.38118 -0.386719,1.7793 -0.960612,1.49935 -1.5415,1.2229 -2.12939,0.949951 -2.71729,0.677002 -3.32617,0.435547 -3.95605,0.225586 -4.58594,0.085612 -5.22282,-0.0333659 -5.8667,-0.131348 -6.51058,-0.229329 -7.20345,-0.33431 -7.94531,-0.446289 c -0.71387,-0.083984 -1.42424,-0.178467 -2.13109,-0.283447 -0.7069,-0.104981 -1.3753,-0.297444 -2.0051,-0.577394 -0.056,-0.05599 0.1399,-0.15047 0.5878,-0.28345 0.448,-0.13297 0.8959,-0.26945 1.3438,-0.40942 0.43392,-0.13997 0.84334,-0.27645 1.22827,-0.40942 0.38493,-0.13298 0.5494,-0.22746 0.49341,-0.28345 0,-0.11198 -0.31494,-0.16797 -0.94483,-0.16797 -0.30794,-0.05599 -0.63335,-0.09098 -0.97635,-0.10498 -0.3429,-0.014 -0.6613,-0.04899 -0.9553,-0.10498 -0.5739,0 -1.0253,-0.028 -1.3542,-0.08399 -0.329,-0.05598 -0.4934,-0.11197 -0.4934,-0.16796 v -0.14698 c 0.028,-0.02799 0.0559,-0.06998 0.0839,-0.12597 0.056,-0.08399 0.154,-0.22396 0.294,-0.41993 0.154,-0.20996 0.3359,-0.45141 0.5459,-0.72436 0.2099,-0.27295 0.4759,-0.5214 0.7978,-0.74536 0.406,-0.27995 0.8574,-0.5634 1.3543,-0.85034 0.49689,-0.28695 1.12327,-0.5494 1.87913,-0.78736 0.30795,-0.11198 0.67888,-0.18896 1.1128,-0.23095 0.43392,-0.042 0.86084,-0.09099 1.28076,-0.14698 0.48991,0 0.97982,0.014 1.46973,0.042 0.4899,0.02799 1.00781,0.11197 1.55371,0.25195 0.54589,0.08398 1.0673,0.22046 1.56421,0.40942 0.496903,0.18897 0.976314,0.39543 1.438228,0.61939 0.433919,0.26595 0.843342,0.5214 1.228272,0.76635 0.38493,0.24496 0.75236,0.50741 1.10229,0.78736 0.19597,0.13997 0.36394,0.29044 0.50391,0.45141 0.13997,0.16097 0.31494,0.31145 0.5249,0.45142 l 0.20996,0.25195 0.08399,0.14698 0.08398,0.08398 c 0.11198,0.08398 0.21346,0.16797 0.30445,0.25195 0.09098,0.08399 0.16447,0.15397 0.22046,0.20996 0.27994,0.34994 0.54239,0.69637 0.78735,1.03931 0.24495,0.34294 0.49341,0.71737 0.74536,1.123292 C 6.22705,-0.27832 6.41602,0.0751139 6.58398,0.446045 6.75195,0.816976 6.91292,1.2054 7.06689,1.61133 7.20687,2.01725 7.33285,2.40568 7.44482,2.77661 7.5568,3.14754 7.65479,3.48698 7.73877,3.79492 7.86475,4.14486 7.95573,4.48429 8.01172,4.81323 8.06771,5.14217 8.1377,5.45361 8.22168,5.74756 8.33366,5.99951 8.43864,6.24097 8.53662,6.47192 8.6346,6.70288 8.78857,6.91634 8.99854,7.1123 c 0.11197,0.028 0.22395,0.05599 0.33593,0.08399 0.11198,0.02799 0.23446,0.04899 0.36743,0.06299 0.13298,0.01399 0.28345,0.02099 0.4514,0.02099 0.322,0 0.6404,-0.01399 0.9553,-0.04199 C 11.4236,7.21029 11.693,7.16829 11.917,7.1123 M -6.58057,-4.33057 c 0.26595,-0.25195 0.39893,-0.5389 0.39893,-0.86084 0,-0.22395 -0.09448,-0.44441 -0.28345,-0.66137 -0.18896,-0.21696 -0.45141,-0.35344 -0.78735,-0.40943 0.5179,0.08399 0.77685,0.34294 0.77685,0.77686 -0.40592,0 -0.79435,0.02099 -1.16528,0.06299 -0.37093,0.04199 -0.73136,0.09098 -1.0813,0.14697 -0.05599,-0.19596 -0.02099,-0.36393 0.10498,-0.50391 0.12598,-0.13997 0.29395,-0.27295 0.50391,-0.39892 -0.72787,0.23795 -1.01481,0.62988 -0.86084,1.17578 0.05599,0.33594 0.22746,0.59839 0.5144,0.78735 0.28695,0.18897 0.58439,0.28345 0.89234,0.28345 0.40592,-0.08399 0.73486,-0.21696 0.98681,-0.39893 M -4.25,-3.15479 c 1.6377,0.30795 3.01294,0.80835 4.125732,1.50123 C 0.988525,-0.960693 1.92635,-0.194336 2.68921,0.645508 3.45207,1.48535 4.09945,2.37069 4.63135,3.30151 5.16325,4.23234 5.66366,5.10718 6.13257,5.92603 6.60148,6.74487 7.10889,7.44824 7.65479,8.03613 8.20068,8.62402 8.87956,9.02295 9.69141,9.23291 8.96354,8.82699 8.37215,8.26359 7.91724,7.54272 7.46232,6.82186 7.0424,6.01001 6.65747,5.10718 6.27254,4.20435 5.85612,3.26652 5.4082,2.2937 4.96029,1.32088 4.3724,0.369059 3.64453,-0.561768 2.91667,-1.49259 2.00684,-2.34644 0.915039,-3.12329 -0.176758,-3.90015 -1.5695,-4.52653 -3.26318,-5.00244 L -4.25,-3.15479 m 1.23877,-2.41455 c 1.63769,0.32194 3.0304357,0.89584 4.17822,1.72168 1.14779,0.82585 2.11711,1.76368 2.90796,2.81348 C 4.8658,0.015625 5.51668,1.10742 6.02759,2.24121 6.53849,3.375 6.99691,4.40731 7.40283,5.33813 7.80876,6.26896 8.19718,7.02832 8.56812,7.61621 8.93905,8.2041 9.38346,8.48405 9.90137,8.45605 9.35547,8.30208 8.91105,7.90316 8.56812,7.25928 8.22518,6.6154 7.88924,5.83504 7.5603,4.91821 7.23136,4.00138 6.84294,3.00757 6.39502,1.93677 5.9471,0.865967 5.35221,-0.194336 4.61035,-1.24414 3.86849,-2.29395 2.90967,-3.26326 1.73389,-4.1521 0.558105,-5.04093 -0.91862,-5.7443 -2.69629,-6.26221 l -0.31494,0.69287"
         fill-rule="evenodd"
         vector-effect="none" />
    </g>
    <g
       id="g16"
       font-style="normal"
       font-weight="400"
       font-size="7.8px"
       font-family="'MS Shell Dlg 2'"
       stroke="none"
       fill-opacity="1"
       fill="#ef4b65" />
  </g>
</svg>
