<svg xmlns="http://www.w3.org/2000/svg" version="1.2" viewBox="0 0 42.52 42.52" height="56.693" width="56.693">
   <g stroke-linejoin="bevel" stroke-linecap="square" fill-rule="evenodd" stroke="none" fill="none" font-weight="400"
      font-size="7.8" font-family="'MS Shell Dlg 2'">
      <path
         d="M42.52 21.26C42.52 33 33 42.52 21.26 42.52 9.518 42.52 0 33 0 21.26 0 9.518 9.518 0 21.26 0 33 0 42.52 9.518 42.52 21.26"
         vector-effect="non-scaling-stroke" fill="#ef4b65" />
      <path
         d="M24.065 31.941c.195 0 .374.014.535.042.16.028.241.07.241.126-.056.056-.164.112-.325.168-.161.056-.34.133-.535.231-.238.112-.462.21-.672.294-.21.084-.378.182-.504.294-.14.084-.238.255-.294.514a3.527 3.527 0 00-.084.746c0 .308.014.563.042.766.028.203.042.333.042.389-.056 0-.238-.161-.546-.483-.126-.14-.245-.301-.357-.483a10.956 10.956 0 01-.336-.588 8.452 8.452 0 01-.2-.578 2.23 2.23 0 01-.115-.66 1.34 1.34 0 01-.042-.326v-.242c0-.084.014-.154.042-.21-.084-.35-.154-.668-.21-.955a31.885 31.885 0 00-.168-.808 27.398 27.398 0 00-.168-.64 1.707 1.707 0 00-.315-.6 2.88 2.88 0 01-.147-.293.69.69 0 00-.23-.273l-.085-.126-.084-.084h-.126v-.084l-.084-.084-.189-.231a6.854 6.854 0 00-.66-.577 8.767 8.767 0 00-.704-.494 5.954 5.954 0 01-.777-.346 24.66 24.66 0 00-.861-.43 5.332 5.332 0 01-1.018-.358 2.688 2.688 0 01-.83-.587h-.084c0-.056.116-.084.347-.084h.724c.196 0 .389-.021.578-.063.189-.042.283-.091.283-.147a.322.322 0 01-.126-.042l-.252-.126a6.175 6.175 0 00-.504-.158 4.362 4.362 0 01-.483-.157 3.194 3.194 0 01-.567-.252 2.053 2.053 0 00-.21-.126v-.084l.084-.084a.954.954 0 00.126-.231c.084-.056.2-.14.347-.252a4.69 4.69 0 01.514-.336c.196-.084.438-.172.725-.263a3.465 3.465 0 011.039-.136c.308-.056.693-.049 1.155.021.462.07.937.266 1.427.588a4.484 4.484 0 011.397.882c.385.364.689.742.913 1.134.112.21.227.405.346.587.12.182.207.378.263.588.056.056.084.154.084.294a.413.413 0 01.105.147c.014.042.049.12.105.231 0 .084.014.179.042.284.028.105.042.2.042.283.056.252.101.48.136.682a3.715 3.715 0 010 1.25 3.02 3.02 0 00-.052.525c-.056.392-.098.717-.126.976a2.2 2.2 0 00.042.745c.028 0 .09.014.189.042.056.028.119.056.189.084.07.028.133.056.189.084.14.056.283.084.43.084h.347m-6.572-8.21a.415.415 0 00-.053-.409.754.754 0 00-.346-.283c.196.084.294.245.294.483a3.391 3.391 0 00-.525-.147 3.092 3.092 0 00-.546-.042c0-.112.045-.203.136-.273a.436.436 0 01.263-.105c-.21 0-.357.049-.441.147a.476.476 0 00-.126.315c0 .434.189.693.567.777.392 0 .65-.154.777-.462m4.367 7.726c.07.21.182.4.336.567l.44.483a1.682 1.682 0 01-.314-.483 4.478 4.478 0 01-.19-.567 1.357 1.357 0 01-.041-.577c.028-.19.042-.353.042-.493 0-.196.014-.403.042-.62a1.523 1.523 0 00-.042-.62c0-.21.014-.44.042-.692.028-.252-.014-.455-.126-.609a8.388 8.388 0 00-.483-1.344c-.224-.504-.455-.91-.693-1.218a9.679 9.679 0 00-.83-1.018 2.688 2.688 0 00-1.102-.745l-.776 1.449c.35.14.689.311 1.018.514.329.203.605.451.83.745.237.308.472.606.703.893.23.287.416.633.556 1.039.056.14.105.304.147.493.042.19.091.382.147.578 0 .14.014.304.042.493.028.19.042.382.042.578 0 .35.07.734.21 1.154m11.317-6.487a6.48 6.48 0 011.102-.063c.301.014.452.063.452.147 0 .056-.144.192-.43.409-.288.217-.606.437-.956.661a5.354 5.354 0 01-.62.42 4.41 4.41 0 00-.535.357c-.406.322-.665.581-.777.777a1.14 1.14 0 00-.147.514c-.014.203-.02.417-.02.64.055.239.104.48.146.725.042.245.12.494.231.746.21.49.392.899.546 1.228.154.329.203.521.147.577 0 .056-.122.042-.367-.042a3.226 3.226 0 01-.788-.42 6.735 6.735 0 01-1.847-1.553 5.942 5.942 0 01-.767-.924 16.29 16.29 0 01-.703-1.092 4.367 4.367 0 01-.252-.546 14.884 14.884 0 00-.168-.44l-.147-.4c-.196-.28-.371-.542-.525-.787a8.477 8.477 0 01-.462-.85c-.14-.224-.28-.459-.42-.704-.14-.245-.287-.493-.44-.745-.42-.812-1.037-1.547-1.848-2.205-.658-.574-1.561-1.162-2.709-1.763-.574-.28-1.155-.557-1.743-.83a17.4 17.4 0 00-1.826-.724 28.73 28.73 0 00-1.91-.357l-2.08-.315a70.876 70.876 0 01-2.13-.283 7.694 7.694 0 01-2.006-.578c-.056-.056.14-.15.588-.283.448-.133.896-.27 1.344-.41.434-.14.843-.276 1.228-.41.385-.132.55-.227.494-.283 0-.112-.315-.168-.945-.168a7.07 7.07 0 00-.977-.105 6.54 6.54 0 01-.955-.105c-.574 0-1.025-.028-1.354-.084-.33-.056-.493-.112-.493-.168v-.146a.488.488 0 00.083-.126c.056-.084.154-.224.294-.42.154-.21.336-.452.546-.725.21-.273.476-.521.798-.745.406-.28.858-.564 1.354-.85.497-.287 1.124-.55 1.88-.788a4.568 4.568 0 011.112-.23c.434-.043.861-.092 1.281-.148.49 0 .98.014 1.47.042.49.028 1.008.112 1.554.252.545.084 1.067.22 1.564.41.497.189.976.395 1.438.619.434.266.843.521 1.228.766s.753.508 1.103.788c.196.14.364.29.503.451.14.161.315.312.525.452l.21.252.084.146.084.084c.112.084.214.168.305.252.09.084.164.154.22.21a20.881 20.881 0 011.533 2.163c.21.336.399.69.567 1.06.168.371.329.76.483 1.166.14.405.266.794.378 1.165.112.37.21.71.294 1.018.126.35.217.69.273 1.018.056.33.126.64.21.935.112.252.216.493.314.724.098.231.252.445.462.64l.336.085c.112.028.235.049.368.063.133.014.283.02.451.02.322 0 .64-.013.955-.041.315-.028.585-.07.809-.126M14.679 13.528c.266-.252.4-.54.4-.861 0-.224-.095-.445-.284-.662-.19-.216-.452-.353-.788-.409.518.084.777.343.777.777-.406 0-.794.02-1.165.063-.371.042-.731.09-1.081.147a.501.501 0 01.105-.504c.126-.14.294-.273.504-.399-.728.238-1.015.63-.861 1.176.056.336.227.598.514.787a1.6 1.6 0 00.892.284c.406-.084.735-.217.987-.4m2.33 1.176c1.639.308 3.014.809 4.127 1.502 1.112.693 2.05 1.459 2.813 2.299a15.07 15.07 0 011.942 2.656l1.501 2.624a11.44 11.44 0 001.523 2.11 4.124 4.124 0 002.036 1.197 4.886 4.886 0 01-1.774-1.69 17.2 17.2 0 01-1.26-2.436c-.385-.902-.801-1.84-1.249-2.813a14.467 14.467 0 00-1.764-2.856c-.727-.93-1.637-1.784-2.73-2.561-1.09-.777-2.484-1.403-4.177-1.88l-.987 1.848m1.239-2.414c1.637.322 3.03.896 4.178 1.722a13.41 13.41 0 012.908 2.813 17.15 17.15 0 011.952 3.275c.511 1.134.97 2.167 1.376 3.097.406.931.794 1.69 1.165 2.278.37.588.815.868 1.333.84-.546-.154-.99-.553-1.333-1.196-.343-.644-.679-1.425-1.008-2.342a62.257 62.257 0 00-1.165-2.981 16.67 16.67 0 00-1.785-3.18c-.742-1.05-1.7-2.02-2.876-2.909-1.176-.889-2.653-1.592-4.43-2.11l-.315.693"
         fill-opacity=".949" fill="#fff" />
   </g>
</svg>