<svg xmlns="http://www.w3.org/2000/svg" version="1.2" viewBox="0 0 42.52 42.52" height="56.693" width="56.693">
   <g stroke-linejoin="bevel" stroke-linecap="square" fill-rule="evenodd" stroke="none" fill="none" font-weight="400"
      font-size="7.8" font-family="'MS Shell Dlg 2'">
      <path
         d="M42.52 21.26C42.52 33 33 42.52 21.26 42.52 9.518 42.52 0 33 0 21.26 0 9.518 9.518 0 21.26 0 33 0 42.52 9.518 42.52 21.26"
         vector-effect="non-scaling-stroke" fill="#ef4b65" />
      <path
         d="M23.98 21.233l8 7.097a2.32 2.32 0 01-.315.44c-.084.14-.189.298-.315.473a4.192 4.192 0 01-.44.515c-.21.196-.393.36-.547.493a2.662 2.662 0 01-.462.326c-.14.112-.293.196-.461.252l-7.097-7.958.567-.546-.903-1.008a.54.54 0 01-.315.168 2.705 2.705 0 01-.682 0c-.091-.014-.207-.07-.347-.168l-.903 1.008.525.546-7.054 7.958a1.446 1.446 0 01-.483-.252 5.328 5.328 0 01-.473-.326 3.365 3.365 0 01-.514-.493 31.84 31.84 0 01-.777-.987 3.018 3.018 0 01-.294-.441l8-7.097.503.525 1.008-.86c-.126-.28-.189-.498-.189-.651 0-.252.063-.497.19-.735l-1.009-.903-.503.567-8-7.097c.084-.14.182-.28.294-.42.21-.294.469-.623.777-.987a4.69 4.69 0 01.987-.819c.14-.126.3-.217.483-.272l7.054 7.957-.525.567.903.987a1.03 1.03 0 01.347-.147 2.706 2.706 0 01.682 0 .593.593 0 01.315.147l.903-.987-.567-.567 7.097-7.957c.168.055.321.146.461.272.154.084.308.196.462.336.154.14.336.301.546.483.168.168.315.336.441.504.126.168.231.33.315.483.126.14.231.28.315.42l-8 7.097-.566-.567-.945.903c.084.098.133.21.147.336.014.126.02.259.02.399 0 .084-.006.185-.02.304a.714.714 0 01-.147.346l.945.861.567-.525m.335-4.03l6.026-5.292a.919.919 0 00-.357-.336 1.077 1.077 0 00-.252-.399l-5.417 6.026m-5.983 0l-5.312-6.026a.63.63 0 00-.357.4.965.965 0 00-.336.335l6.005 5.291m0 6.026l-6.005 5.27a.92.92 0 00.336.357c.084.196.203.322.357.378l5.312-6.005m5.983 0l5.417 6.005c.084-.084.168-.21.252-.378a.877.877 0 00.357-.357l-6.026-5.27m2.058 6.362l1.008 5.92a41.1 41.1 0 00-1.302.316c-.406.084-.885.16-1.438.23-.553.07-1.165.12-1.837.148v-3.318c0-.364-.14-.661-.42-.892-.28-.231-.651-.347-1.113-.347-.406 0-.745.116-1.018.347-.273.23-.41.528-.41.892v3.318a22.587 22.587 0 01-1.868-.147c-.56-.07-1.043-.147-1.45-.231a56.035 56.035 0 00-1.238-.315l.861-5.837 4.514-5.04a.454.454 0 00.126-.335.53.53 0 00-.126-.357l-.168-.21.336-.336c.112.056.287.084.525.084.196 0 .35-.028.462-.084l.357.336-.168.21a.486.486 0 00-.147.357c0 .14.049.252.147.336l4.367 4.955m-5.102-1.176c.602 0 .903-.3.903-.903a.788.788 0 00-.242-.577c-.16-.161-.381-.242-.661-.242a.713.713 0 00-.567.242.85.85 0 00-.21.577c0 .294.07.518.21.672.14.154.33.231.567.231"
         fill-opacity=".949" fill="#fff" />
   </g>
</svg>