<svg xmlns="http://www.w3.org/2000/svg" version="1.2" viewBox="0 0 42.52 42.52" height="56.693" width="56.693">
   <g stroke-linejoin="bevel" stroke-linecap="square" fill-rule="evenodd" stroke="none" fill="none" font-weight="400"
      font-size="7.8" font-family="'MS Shell Dlg 2'">
      <path
         d="M42.52 21.26C42.52 33 33 42.52 21.26 42.52 9.518 42.52 0 33 0 21.26 0 9.518 9.518 0 21.26 0 33 0 42.52 9.518 42.52 21.26"
         vector-effect="non-scaling-stroke" fill="#ef4b65" />
      <path
         d="M11.73 31.384h20.294v2.266H9.348V17.185l-2.441.664v-2.363l25.117-7.364v2.461l-20.293 5.86v14.941m17.598-11.328a1.757 1.757 0 01-.489-.313 4.223 4.223 0 00-.273-.254.726.726 0 00-.43-.332 2.12 2.12 0 00-.664-.087c-.221.006-.482.08-.781.224l-.02.02a2.088 2.088 0 00-.566-.274c-.234-.078-.495-.071-.781.02-.078.039-.118.097-.118.176 0 .026.02.104.06.234.038.13.13.267.273.41l-.118.04c-.169.025-.309.064-.42.116-.11.052-.257.163-.44.332a2.501 2.501 0 00-.897-.029c-.26.046-.54.147-.84.303a3.085 3.085 0 00-.655-.244c-.267-.072-.563-.056-.888.048-.339-.13-.655-.152-.948-.068-.293.085-.504.166-.634.244a1.572 1.572 0 00-.801-.224c-.3-.007-.586.055-.86.185a2.875 2.875 0 00-1.28.068 2.06 2.06 0 00-.555.254c-.17.111-.306.232-.41.362-.3.065-.531.179-.694.342a.864.864 0 00-.264.576c-.26.195-.41.377-.449.547a.812.812 0 00.02.468c-.183.26-.274.54-.274.84 0 .3.065.547.196.742-.079.339-.066.619.039.84.104.222.24.378.41.469.143.221.192.39.146.508a1.384 1.384 0 00-.068.195c-.052.04-.072.085-.059.137 0 .026.023.143.069.351.045.209.094.446.146.713.052.267.108.528.166.782.059.253.108.433.147.537.026.09.032.156.02.195a.442.442 0 00.009.205c.02.072.081.18.186.322l.312.47c.013.025.046.051.098.077.039.026.104.046.195.059.091.013.189.013.293 0 .195 0 .332-.046.41-.137.052-.052.052-.117 0-.195l-.156-.244a3.647 3.647 0 01-.313-.655 4.904 4.904 0 01-.244-.937 2.618 2.618 0 01.069-1.113 9.79 9.79 0 00.351-.069c.156-.032.332-.1.527-.205.13-.065.274-.146.43-.244.156-.098.306-.238.45-.42.078.078.175.14.292.186.118.045.235.078.352.097a3.292 3.292 0 00.527.05c.157.038.339.058.547.058.143-.013.287-.03.43-.05.143-.019.24-.035.293-.048.312.065.589.062.83-.01.24-.071.394-.127.459-.166.182 0 .342-.02.478-.058.137-.04.251-.078.342-.118.104.26.212.499.322.713.111.215.199.355.264.42.026.04.059.127.098.264a6.605 6.605 0 01.186.977c.019.175.022.315.01.42-.027.26-.043.468-.05.624-.006.157.023.274.088.352.026.039.078.059.156.059a.418.418 0 01.079.146c.026.072.052.14.078.205.013.078.065.117.156.117h.02l.722-.117c.091 0 .137-.032.137-.097a.166.166 0 000-.157c-.078-.104-.153-.27-.225-.498a4.723 4.723 0 01-.166-.762c-.039-.28-.068-.57-.088-.869-.02-.3-.016-.573.01-.82.026-.404.127-.68.303-.83.176-.15.472-.277.888-.38.196-.04.362-.112.498-.216.137-.104.248-.215.333-.332.084-.117.15-.228.195-.332.045-.104.081-.189.107-.254a.563.563 0 00.215-.215c.04-.078.085-.162.137-.253l.137-.274c.039-.078.11-.15.214-.215a.972.972 0 00.381-.644c.046-.274.062-.489.05-.645.246-.104.406-.25.478-.44.071-.188.107-.354.107-.497.156-.013.313-.052.469-.118.182.027.364.036.547.03.182-.007.306-.056.37-.147.04-.039.06-.071.06-.097a.415.415 0 00.175-.293c.052-.17.036-.362-.049-.576-.084-.215-.283-.4-.595-.557m-1.211-.117c.065 0 .12.02.166.058.045.04.068.091.068.157 0 .156-.072.234-.215.234-.17.026-.254-.052-.254-.234-.026-.144.052-.215.235-.215"
         fill-opacity=".949" fill="#fff" />
   </g>
</svg>