<?xml version="1.0" encoding="UTF-8" standalone="no"?>
<svg
   xmlns:dc="http://purl.org/dc/elements/1.1/"
   xmlns:cc="http://creativecommons.org/ns#"
   xmlns:rdf="http://www.w3.org/1999/02/22-rdf-syntax-ns#"
   xmlns:svg="http://www.w3.org/2000/svg"
   xmlns="http://www.w3.org/2000/svg"
   xmlns:sodipodi="http://sodipodi.sourceforge.net/DTD/sodipodi-0.dtd"
   xmlns:inkscape="http://www.inkscape.org/namespaces/inkscape"
   inkscape:version="1.0 (4035a4fb49, 2020-05-01)"
   sodipodi:docname="2313.svg"
   id="svg20"
   version="1.2"
   viewBox="0 0 42.519639 42.519639"
   height="14.999999mm"
   width="14.999999mm">
  <metadata
     id="metadata24">
    <rdf:RDF>
      <cc:Work
         rdf:about="">
        <dc:format>image/svg+xml</dc:format>
        <dc:type
           rdf:resource="http://purl.org/dc/dcmitype/StillImage" />
        <dc:title>Qt SVG Document</dc:title>
      </cc:Work>
    </rdf:RDF>
  </metadata>
  <sodipodi:namedview
     inkscape:current-layer="svg20"
     inkscape:window-maximized="0"
     inkscape:window-y="0"
     inkscape:window-x="0"
     inkscape:cy="28.346482"
     inkscape:cx="28.346482"
     inkscape:zoom="5.8410537"
     showgrid="false"
     id="namedview22"
     inkscape:window-height="480"
     inkscape:window-width="1034"
     inkscape:pageshadow="2"
     inkscape:pageopacity="0"
     guidetolerance="10"
     gridtolerance="10"
     objecttolerance="10"
     borderopacity="1"
     bordercolor="#666666"
     pagecolor="#ffffff" />
  <title
     id="title2">Qt SVG Document</title>
  <desc
     id="desc4">Generated with Qt</desc>
  <defs
     id="defs6" />
  <g
     transform="translate(5.25984,5.25984)"
     id="g18"
     stroke-linejoin="bevel"
     stroke-linecap="square"
     fill-rule="evenodd"
     stroke-width="1"
     stroke="#000000"
     fill="none">
    <g
       id="g10"
       font-style="normal"
       font-weight="400"
       font-size="7.8px"
       font-family="'MS Shell Dlg 2'"
       stroke="none"
       fill-opacity="1"
       fill="#ef4b65">
      <path
         id="path8"
         d="M 37.2598,16 C 37.2598,27.7415 27.7415,37.2598 16,37.2598 4.25851,37.2598 -5.25984,27.7415 -5.25984,16 -5.25984,4.25851 4.25851,-5.25984 16,-5.25984 27.7415,-5.25984 37.2598,4.25851 37.2598,16"
         fill-rule="evenodd"
         vector-effect="non-scaling-stroke" />
    </g>
    <g
       id="g14"
       font-style="normal"
       font-weight="400"
       font-size="7.8px"
       font-family="'MS Shell Dlg 2'"
       transform="translate(16,12.315)"
       stroke="none"
       fill-opacity="0.94902"
       fill="#ffffff">
      <path
         id="path12"
         d="m 9.2085,-3.5957 c 0.34993,0.48991 0.58089,1.01481 0.69287,1.5747 0.11193,0.5599 0.11893,1.112797 0.02099,1.658695 C 9.82438,0.183594 9.63192,0.697998 9.34497,1.18091 9.05802,1.66382 8.68359,2.08024 8.22168,2.43018 7.18587,3.08805 6.16756,3.27352 5.16675,2.98657 4.16593,2.69963 3.2596,1.95426 2.44775,0.750488 2.30778,0.554525 2.1958,0.362061 2.11182,0.173096 2.02783,-0.0158691 1.92985,-0.222331 1.81787,-0.446289 1.73389,-0.60026 1.6604,-0.726237 1.59741,-0.824219 1.53442,-0.922201 1.46094,-1.01318 1.37695,-1.09717 0.985026,-1.72705 0.42863,-2.37793 -0.292236,-3.0498 -1.0131,-3.72168 -1.88094,-4.25358 -2.89575,-4.64551 c -1.01481,-0.39192 -2.1766,-0.5354 -3.48535,-0.43042 -1.30876,0.10498 -2.733,0.59839 -4.2727,1.48023 1.88964,-1.83366 3.82478,-3.10743 5.80541,-3.82129 1.98063,-0.71387 3.866782,-1.00781 5.658449,-0.88184 1.791671,0.12598 3.425861,0.61239 4.902591,1.45923 1.47672,0.84684 2.642,1.92814 3.49585,3.2439 M 8.6416,-0.530273 C 8.76758,-0.964193 8.78507,-1.39811 8.69409,-1.83203 8.60311,-2.26595 8.44564,-2.63688 8.22168,-2.94482 7.29785,-4.34456 6.03459,-5.41187 4.43188,-6.14673 2.82918,-6.88159 1.125,-7.20703 -0.680664,-7.12305 -1.33854,-7.06706 -1.96842,-6.96558 -2.57031,-6.8186 c -0.60189,0.14697 -1.23177,0.33243 -1.88965,0.55639 0.96582,0.13998 1.83716,0.40593 2.61401,0.79785 0.77686,0.39193 1.452233,0.81535 2.026126,1.27027 0.573893,0.45491 1.039304,0.90633 1.396244,1.35425 0.35693,0.44791 0.61938,0.78385 0.78735,1.00781 0.23796,0.26595 0.39893,0.5389 0.48291,0.81885 L 3.49756,0.0996094 C 3.77751,0.505534 4.14144,0.914958 4.58936,1.32788 5.03727,1.7408 5.56217,1.91927 6.16406,1.86328 6.38802,1.86328 6.60148,1.82129 6.80444,1.7373 7.00741,1.65332 7.22087,1.54134 7.44482,1.40137 7.76676,1.16341 8.03271,0.872965 8.24268,0.530029 8.45264,0.187093 8.58561,-0.166341 8.6416,-0.530273 M -0.470703,-5.61133 c 0.895833,0 1.770673,0.11198 2.624513,0.33594 0.74186,0.20996 1.52222,0.5494 2.34106,1.01831 0.81885,0.46891 1.55721,1.17928 2.21509,2.1311 0.23796,0.36394 0.31844,0.76986 0.24146,1.217777 C 6.87443,-0.460286 6.63997,-0.0963542 6.24805,0.183594 5.92611,0.421549 5.53768,0.488037 5.08276,0.383057 4.62785,0.278076 4.28141,0.0296224 4.04346,-0.362305 3.90348,-0.572266 3.74601,-0.876709 3.57104,-1.27563 3.39608,-1.67456 3.14412,-2.11548 2.81519,-2.59839 2.48625,-3.0813 2.06632,-3.5887 1.55542,-4.12061 1.04451,-4.65251 0.369141,-5.14941 -0.470703,-5.61133 m 12.639603,4.8501 c 0.5459,2.58952 0.6194,4.91658 0.2205,6.9812 -0.3989,2.06462 -1.1163,3.82833 -2.1521,5.29103 -1.0358,1.4627 -2.28857,2.6 -3.7583,3.4119 -1.46972,0.8118 -2.99544,1.2597 -4.57714,1.3437 -0.60189,0.028 -1.175786,-0.056 -1.721684,-0.252 C -0.365723,15.8187 -0.845133,15.5352 -1.25806,15.1643 -1.67098,14.7934 -2.00692,14.363 -2.26587,13.873 -2.52482,13.3831 -2.66829,12.8512 -2.69629,12.2773 -2.75228,11.0736 -2.40934,10.1147 -1.66748,9.40088 -0.925618,8.68701 0.180176,8.29508 1.6499,8.2251 h 1.36475 c 0.29394,0.09798 0.58089,0.09798 0.86084,0 C 4.58936,8.1971 5.4187,8.04663 6.36353,7.77368 7.30835,7.50073 8.20418,7.03532 9.05103,6.37744 9.89787,5.71956 10.6222,4.80973 11.2241,3.64795 11.826,2.48617 12.141,1.01644 12.1689,-0.76123 M 10.0693,9.52686 C 10.5592,8.46305 10.9582,7.25928 11.2661,5.91553 10.6362,6.68538 9.95736,7.30127 9.22949,7.76318 8.50163,8.2251 7.79476,8.58553 7.10889,8.84448 6.42301,9.10343 5.78613,9.2749 5.19824,9.35889 4.61035,9.44287 4.16943,9.49886 3.87549,9.52686 c -0.13998,0 -0.29745,0 -0.47241,0 -0.17497,0 -0.33244,-0.028 -0.47242,-0.08399 H 1.6499 C 1.132,9.49886 0.593099,9.61084 0.0332031,9.77881 -0.526693,9.94678 -0.953613,10.2897 -1.24756,10.8076 c -0.16797,0.4059 -0.25195,0.8679 -0.25195,1.3858 0.08398,0.7698 0.42692,1.4557 1.028807,2.0576 0.629883,0.5459 1.392741,0.8188 2.288573,0.8188 1.69369,-0.084 3.26839,-0.6194 4.72412,-1.6062 1.45573,-0.9868 2.63151,-2.299 3.52731,-3.93674 M 8.6416,9.04395 C 8.22168,9.8278 7.68278,10.5207 7.0249,11.1226 6.45101,11.6405 5.74764,12.1199 4.91479,12.5608 4.08195,13.0017 3.07764,13.2502 1.90186,13.3062 1.43994,13.3621 1.03752,13.2327 0.69458,12.9177 0.351644,12.6028 0.180176,12.2424 0.180176,11.8364 0.124186,11.3605 0.260661,10.9651 0.5896,10.6501 c 0.328938,-0.3149 0.73836,-0.5074 1.22827,-0.5773 0.22396,0 0.5529,0.0384 0.98682,0.1154 0.43392,0.077 0.94482,0.1085 1.53271,0.0945 C 4.92529,10.2687 5.58317,10.1742 6.31104,9.99927 7.0389,9.8243 7.81576,9.50586 8.6416,9.04395 M -5.44678,5.43262 c -0.34993,0.65787 -0.66137,1.46972 -0.93432,2.43554 -0.27295,0.96582 -0.34294,1.98413 -0.20996,3.05494 0.13297,1.0708 0.54239,2.1661 1.22827,3.2859 0.68587,1.1198 1.78466,2.1556 3.29638,3.1074 -2.49153,-0.8398 -4.51766,-1.9701 -6.07837,-3.3909 -1.56071,-1.4207 -2.70502,-2.9534 -3.43282,-4.59811 -0.7279,-1.64469 -1.0638,-3.31388 -1.0078,-5.00757 0.0559,-1.69368 0.4549,-3.2264 1.1967,-4.59814 0.294,-0.517904 0.6684,-0.96232 1.1233,-1.33325 0.45493,-0.37093 0.94834,-0.64388 1.48024,-0.81885 0.5319,-0.17497 1.0708,-0.24146 1.6167,-0.19946 0.5459,0.04199 1.0778,0.20996 1.59571,0.5039 1.0778,0.5739 1.72518,1.354251 1.94213,2.341068 C -3.41366,1.2019 -3.63411,2.3252 -4.29199,3.58496 -4.43197,3.79492 -4.55444,4.00488 -4.65942,4.21484 -4.7644,4.4248 -4.91488,4.62077 -5.11084,4.80273 -5.16683,4.91471 -5.22282,5.02669 -5.27881,5.13867 -5.3348,5.25065 -5.39079,5.34863 -5.44678,5.43262 m -4.34619,4.64018 c 0.65788,1.1477 1.49072,2.1416 2.49854,2.9814 -0.34994,-0.9238 -0.5389,-1.8232 -0.5669,-2.698 -0.02799,-0.87484 0.028,-1.66919 0.16797,-2.38306 0.13997,-0.71386 0.32544,-1.33675 0.5564,-1.86865 0.23095,-0.5319 0.41642,-0.92383 0.55639,-1.17578 l 0.5669,-0.86084 C -5.8737,3.8859 -5.75822,3.71094 -5.66724,3.54297 -5.57625,3.375 -5.47477,3.22103 -5.36279,3.08105 -5.13883,2.59115 -4.96037,2.06624 -4.82739,1.50635 -4.69442,0.946452 -4.7889,0.421549 -5.11084,-0.0683594 -5.27881,-0.474284 -5.60775,-0.81722 -6.09766,-1.09717 c -0.34993,-0.19596 -0.72436,-0.30094 -1.12329,-0.31494 -0.39892,-0.014 -0.80135,0.03499 -1.20727,0.14697 -0.85384,0.25196 -1.46973,0.76986 -1.84768,1.553714 -0.7978,1.483726 -1.1478,3.100426 -1.0498,4.850096 0.098,1.74968 0.6089,3.39437 1.53273,4.93413 M -8.63818,9.2749 C -9.04411,8.49105 -9.34505,7.6582 -9.54102,6.77637 -9.70898,6.03451 -9.77897,5.18766 -9.75098,4.23584 c 0.028,-0.95182 0.31494,-1.92464 0.86084,-2.91846 0.22396,-0.433916 0.5599,-0.724362 1.00782,-0.871335 0.44791,-0.146973 0.88183,-0.101481 1.30175,0.136475 0.37793,0.167968 0.62289,0.47591 0.73487,0.92383 0.11198,0.44791 0.05599,0.86784 -0.16797,1.25976 -0.11198,0.20996 -0.30445,0.48641 -0.57739,0.82935 -0.27295,0.34294 -0.5599,0.77336 -0.86084,1.29126 -0.30095,0.5179 -0.5669,1.14079 -0.79786,1.86865 -0.23095,0.72787 -0.36043,1.56771 -0.38842,2.51953"
         fill-rule="evenodd"
         vector-effect="none" />
    </g>
    <g
       id="g16"
       font-style="normal"
       font-weight="400"
       font-size="7.8px"
       font-family="'MS Shell Dlg 2'"
       stroke="none"
       fill-opacity="1"
       fill="#ef4b65" />
  </g>
</svg>
