<svg xmlns="http://www.w3.org/2000/svg" version="1.2" viewBox="0 0 42.52 42.52" height="56.693" width="56.693">
   <g stroke-linejoin="bevel" stroke-linecap="square" fill-rule="evenodd" stroke="none" fill="none" font-weight="400"
      font-size="7.8" font-family="'MS Shell Dlg 2'">
      <path
         d="M42.52 21.26C42.52 33 33 42.52 21.26 42.52 9.518 42.52 0 33 0 21.26 0 9.518 9.518 0 21.26 0 33 0 42.52 9.518 42.52 21.26"
         vector-effect="non-scaling-stroke" fill="#ef4b65" />
      <path
         d="M30.468 13.98c.35.489.581 1.014.693 1.574.112.56.12 1.113.021 1.659a4.583 4.583 0 01-.577 1.543c-.287.483-.662.9-1.123 1.249-1.036.658-2.055.843-3.055.556-1.001-.287-1.908-1.032-2.72-2.236a3.318 3.318 0 01-.335-.577 15.203 15.203 0 00-.294-.62 6.267 6.267 0 00-.22-.377 1.638 1.638 0 00-.221-.273c-.392-.63-.949-1.281-1.67-1.953-.72-.672-1.588-1.204-2.603-1.596-1.015-.392-2.177-.535-3.485-.43-1.309.105-2.733.598-4.273 1.48 1.89-1.834 3.825-3.107 5.805-3.821 1.981-.714 3.867-1.008 5.659-.882 1.792.126 3.426.612 4.902 1.46 1.477.846 2.642 1.927 3.496 3.243m-.567 3.066a2.65 2.65 0 00.053-1.302 2.866 2.866 0 00-.472-1.113c-.924-1.4-2.188-2.467-3.79-3.202a10.878 10.878 0 00-5.113-.976c-.658.056-1.288.157-1.89.304-.601.147-1.231.333-1.89.557.967.14 1.838.406 2.615.797.777.392 1.452.816 2.026 1.27.574.456 1.04.907 1.396 1.355.357.448.62.784.788 1.008.238.266.399.539.483.819l.65 1.112c.28.406.644.816 1.092 1.229.448.413.973.591 1.575.535.224 0 .437-.042.64-.126.203-.084.417-.196.64-.336a3.06 3.06 0 00.799-.871 2.85 2.85 0 00.398-1.06m-9.112-5.081c.896 0 1.77.111 2.625.335.742.21 1.522.55 2.34 1.019.82.469 1.558 1.179 2.216 2.13.238.365.318.77.241 1.219-.077.448-.311.811-.703 1.091-.322.238-.71.305-1.165.2a1.584 1.584 0 01-1.04-.745 6.22 6.22 0 01-.472-.914 8.38 8.38 0 00-.756-1.323c-.329-.482-.749-.99-1.26-1.522-.51-.532-1.186-1.029-2.026-1.49m12.64 4.85c.546 2.59.62 4.916.22 6.98-.399 2.065-1.116 3.83-2.152 5.292-1.036 1.463-2.288 2.6-3.758 3.412-1.47.812-2.996 1.26-4.577 1.343a4.435 4.435 0 01-1.722-.252 4.303 4.303 0 01-1.438-.85 4.631 4.631 0 01-1.008-1.291 3.764 3.764 0 01-.43-1.596c-.056-1.204.287-2.162 1.028-2.876.742-.714 1.848-1.106 3.318-1.176h1.364c.294.098.581.098.861 0 .714-.028 1.544-.179 2.488-.451.945-.273 1.841-.739 2.688-1.397.847-.658 1.571-1.567 2.173-2.73.602-1.161.917-2.63.945-4.408m-2.1 10.288c.49-1.064.889-2.268 1.197-3.612-.63.77-1.309 1.386-2.037 1.848-.728.462-1.434.822-2.12 1.081a9.098 9.098 0 01-1.91.515c-.589.084-1.03.14-1.324.168h-.472c-.175 0-.333-.028-.472-.084H22.91a9.002 9.002 0 00-1.617.336 2.13 2.13 0 00-1.28 1.028 3.597 3.597 0 00-.253 1.386c.084.77.427 1.456 1.03 2.058.629.546 1.392.819 2.288.819 1.693-.084 3.268-.62 4.724-1.607 1.456-.986 2.631-2.299 3.527-3.936m-1.428-.483a7.773 7.773 0 01-1.616 2.078c-.574.518-1.278.998-2.11 1.439-.833.44-1.838.689-3.013.745a1.45 1.45 0 01-1.208-.388c-.343-.315-.514-.676-.514-1.082-.056-.476.08-.871.41-1.186a2.169 2.169 0 011.228-.577c.224 0 .553.038.987.115.433.077.944.109 1.532.095a9.498 9.498 0 001.974-.284c.728-.175 1.505-.493 2.33-.955m-14.088-3.612c-.35.658-.661 1.47-.934 2.436a7.658 7.658 0 00-.21 3.055c.133 1.07.542 2.166 1.228 3.286.686 1.12 1.785 2.155 3.296 3.107-2.491-.84-4.517-1.97-6.078-3.39-1.56-1.421-2.705-2.954-3.433-4.599-.728-1.644-1.064-3.314-1.008-5.007.056-1.694.455-3.227 1.197-4.598a4.693 4.693 0 011.123-1.334c.455-.37.949-.644 1.48-.819a4.116 4.116 0 011.617-.199c.546.042 1.078.21 1.596.504 1.078.574 1.725 1.354 1.942 2.34.217.988-.003 2.111-.661 3.37-.14.21-.263.42-.368.63-.105.21-.255.407-.451.589l-.168.336c-.056.111-.112.21-.168.293m-4.346 4.64a10.911 10.911 0 002.498 2.982c-.35-.924-.538-1.823-.566-2.698-.028-.875.028-1.67.167-2.383.14-.714.326-1.337.557-1.869.23-.532.416-.924.556-1.175l.567-.861c.14-.182.256-.357.347-.525.09-.168.192-.322.304-.462.224-.49.402-1.015.535-1.575a1.94 1.94 0 00-.283-1.575c-.168-.405-.497-.748-.987-1.028-.35-.196-.724-.301-1.123-.315a3.992 3.992 0 00-1.207.147c-.854.252-1.47.77-1.848 1.553-.798 1.484-1.148 3.1-1.05 4.85.098 1.75.609 3.395 1.533 4.935m1.155-.798a10.238 10.238 0 01-.903-2.499c-.168-.742-.238-1.589-.21-2.54.028-.952.315-1.925.86-2.919.225-.434.56-.724 1.009-.871a1.553 1.553 0 011.301.136c.378.168.623.476.735.924.112.448.056.868-.168 1.26-.112.21-.304.486-.577.83-.273.342-.56.773-.861 1.29-.301.518-.567 1.141-.798 1.87-.23.727-.36 1.567-.388 2.519"
         fill-opacity=".949" fill="#fff" />
   </g>
</svg>