<?xml version="1.0" encoding="UTF-8" standalone="no"?>
<svg width="11.25008mm" height="11.25008mm"
 viewBox="-5.3 -5.3 42.52000 42.52000"
 xmlns="http://www.w3.org/2000/svg" xmlns:xlink="http://www.w3.org/1999/xlink"  version="1.2" baseProfile="tiny">
<title>Qt SVG Document</title>
<desc>Generated with Qt</desc>
<defs>
</defs>
<g fill="none" stroke="black" stroke-width="1" fill-rule="evenodd" stroke-linecap="square" stroke-linejoin="bevel" >

<g fill="#ef4b65" fill-opacity="1" stroke="none" transform="matrix(1,0,0,1,0,0)"
font-family="MS Shell Dlg 2" font-size="7.8" font-weight="400" font-style="normal" 
>
<path vector-effect="non-scaling-stroke" fill-rule="evenodd" d="M37.2598,16 C37.2598,27.7415 27.7415,37.2598 16,37.2598 C4.25851,37.2598 -5.25984,27.7415 -5.25984,16 C-5.25984,4.25851 4.25851,-5.25984 16,-5.25984 C27.7415,-5.25984 37.2598,4.25851 37.2598,16 "/>
</g>

<g fill="#ffffff" fill-opacity="0.94902" stroke="none" transform="matrix(1,0,0,1,16,12.315)"
font-family="MS Shell Dlg 2" font-size="7.8" font-weight="400" font-style="normal" 
>
<path vector-effect="none" fill-rule="evenodd" d="M9.2085,-3.5957 C9.55843,-3.10579 9.78939,-2.58089 9.90137,-2.021 C10.0133,-1.4611 10.0203,-0.908203 9.92236,-0.362305 C9.82438,0.183594 9.63192,0.697998 9.34497,1.18091 C9.05802,1.66382 8.68359,2.08024 8.22168,2.43018 C7.18587,3.08805 6.16756,3.27352 5.16675,2.98657 C4.16593,2.69963 3.2596,1.95426 2.44775,0.750488 C2.30778,0.554525 2.1958,0.362061 2.11182,0.173096 C2.02783,-0.0158691 1.92985,-0.222331 1.81787,-0.446289 C1.73389,-0.60026 1.6604,-0.726237 1.59741,-0.824219 C1.53442,-0.922201 1.46094,-1.01318 1.37695,-1.09717 C0.985026,-1.72705 0.42863,-2.37793 -0.292236,-3.0498 C-1.0131,-3.72168 -1.88094,-4.25358 -2.89575,-4.64551 C-3.91056,-5.03743 -5.07235,-5.18091 -6.3811,-5.07593 C-7.68986,-4.97095 -9.1141,-4.47754 -10.6538,-3.5957 C-8.76416,-5.42936 -6.82902,-6.70313 -4.84839,-7.41699 C-2.86776,-8.13086 -0.981608,-8.4248 0.810059,-8.29883 C2.60173,-8.17285 4.23592,-7.68644 5.71265,-6.8396 C7.18937,-5.99276 8.35465,-4.91146 9.2085,-3.5957 M8.6416,-0.530273 C8.76758,-0.964193 8.78507,-1.39811 8.69409,-1.83203 C8.60311,-2.26595 8.44564,-2.63688 8.22168,-2.94482 C7.29785,-4.34456 6.03459,-5.41187 4.43188,-6.14673 C2.82918,-6.88159 1.125,-7.20703 -0.680664,-7.12305 C-1.33854,-7.06706 -1.96842,-6.96558 -2.57031,-6.8186 C-3.1722,-6.67163 -3.80208,-6.48617 -4.45996,-6.26221 C-3.49414,-6.12223 -2.6228,-5.85628 -1.84595,-5.46436 C-1.06909,-5.07243 -0.393717,-4.64901 0.180176,-4.19409 C0.754069,-3.73918 1.21948,-3.28776 1.57642,-2.83984 C1.93335,-2.39193 2.1958,-2.05599 2.36377,-1.83203 C2.60173,-1.56608 2.7627,-1.29313 2.84668,-1.01318 L3.49756,0.0996094 C3.77751,0.505534 4.14144,0.914958 4.58936,1.32788 C5.03727,1.7408 5.56217,1.91927 6.16406,1.86328 C6.38802,1.86328 6.60148,1.82129 6.80444,1.7373 C7.00741,1.65332 7.22087,1.54134 7.44482,1.40137 C7.76676,1.16341 8.03271,0.872965 8.24268,0.530029 C8.45264,0.187093 8.58561,-0.166341 8.6416,-0.530273 M-0.470703,-5.61133 C0.42513,-5.61133 1.29997,-5.49935 2.15381,-5.27539 C2.89567,-5.06543 3.67603,-4.72599 4.49487,-4.25708 C5.31372,-3.78817 6.05208,-3.0778 6.70996,-2.12598 C6.94792,-1.76204 7.0284,-1.35612 6.95142,-0.908203 C6.87443,-0.460286 6.63997,-0.0963542 6.24805,0.183594 C5.92611,0.421549 5.53768,0.488037 5.08276,0.383057 C4.62785,0.278076 4.28141,0.0296224 4.04346,-0.362305 C3.90348,-0.572266 3.74601,-0.876709 3.57104,-1.27563 C3.39608,-1.67456 3.14412,-2.11548 2.81519,-2.59839 C2.48625,-3.0813 2.06632,-3.5887 1.55542,-4.12061 C1.04451,-4.65251 0.369141,-5.14941 -0.470703,-5.61133 M12.1689,-0.76123 C12.7148,1.82829 12.7883,4.15535 12.3894,6.21997 C11.9905,8.28459 11.2731,10.0483 10.2373,11.511 C9.2015,12.9737 7.94873,14.111 6.479,14.9229 C5.00928,15.7347 3.48356,16.1826 1.90186,16.2666 C1.29997,16.2946 0.726074,16.2106 0.180176,16.0146 C-0.365723,15.8187 -0.845133,15.5352 -1.25806,15.1643 C-1.67098,14.7934 -2.00692,14.363 -2.26587,13.873 C-2.52482,13.3831 -2.66829,12.8512 -2.69629,12.2773 C-2.75228,11.0736 -2.40934,10.1147 -1.66748,9.40088 C-0.925618,8.68701 0.180176,8.29508 1.6499,8.2251 L3.01465,8.2251 C3.30859,8.32308 3.59554,8.32308 3.87549,8.2251 C4.58936,8.1971 5.4187,8.04663 6.36353,7.77368 C7.30835,7.50073 8.20418,7.03532 9.05103,6.37744 C9.89787,5.71956 10.6222,4.80973 11.2241,3.64795 C11.826,2.48617 12.141,1.01644 12.1689,-0.76123 M10.0693,9.52686 C10.5592,8.46305 10.9582,7.25928 11.2661,5.91553 C10.6362,6.68538 9.95736,7.30127 9.22949,7.76318 C8.50163,8.2251 7.79476,8.58553 7.10889,8.84448 C6.42301,9.10343 5.78613,9.2749 5.19824,9.35889 C4.61035,9.44287 4.16943,9.49886 3.87549,9.52686 C3.73551,9.52686 3.57804,9.52686 3.40308,9.52686 C3.22811,9.52686 3.07064,9.49886 2.93066,9.44287 L1.6499,9.44287 C1.132,9.49886 0.593099,9.61084 0.0332031,9.77881 C-0.526693,9.94678 -0.953613,10.2897 -1.24756,10.8076 C-1.41553,11.2135 -1.49951,11.6755 -1.49951,12.1934 C-1.41553,12.9632 -1.07259,13.6491 -0.470703,14.251 C0.15918,14.7969 0.922038,15.0698 1.81787,15.0698 C3.51156,14.9858 5.08626,14.4504 6.54199,13.4636 C7.99772,12.4768 9.1735,11.1646 10.0693,9.52686 M8.6416,9.04395 C8.22168,9.8278 7.68278,10.5207 7.0249,11.1226 C6.45101,11.6405 5.74764,12.1199 4.91479,12.5608 C4.08195,13.0017 3.07764,13.2502 1.90186,13.3062 C1.43994,13.3621 1.03752,13.2327 0.69458,12.9177 C0.351644,12.6028 0.180176,12.2424 0.180176,11.8364 C0.124186,11.3605 0.260661,10.9651 0.5896,10.6501 C0.918538,10.3352 1.32796,10.1427 1.81787,10.0728 C2.04183,10.0728 2.37077,10.1112 2.80469,10.1882 C3.23861,10.2652 3.74951,10.2967 4.3374,10.2827 C4.92529,10.2687 5.58317,10.1742 6.31104,9.99927 C7.0389,9.8243 7.81576,9.50586 8.6416,9.04395 M-5.44678,5.43262 C-5.79671,6.09049 -6.10815,6.90234 -6.3811,7.86816 C-6.65405,8.83398 -6.72404,9.85229 -6.59106,10.9231 C-6.45809,11.9939 -6.04867,13.0892 -5.36279,14.209 C-4.67692,15.3288 -3.57813,16.3646 -2.06641,17.3164 C-4.55794,16.4766 -6.58407,15.3463 -8.14478,13.9255 C-9.70549,12.5048 -10.8498,10.9721 -11.5776,9.32739 C-12.3055,7.6827 -12.6414,6.01351 -12.5854,4.31982 C-12.5295,2.62614 -12.1305,1.09342 -11.3887,-0.27832 C-11.0947,-0.796224 -10.7203,-1.24064 -10.2654,-1.61157 C-9.81047,-1.9825 -9.31706,-2.25545 -8.78516,-2.43042 C-8.25326,-2.60539 -7.71436,-2.67188 -7.16846,-2.62988 C-6.62256,-2.58789 -6.09066,-2.41992 -5.57275,-2.12598 C-4.49495,-1.55208 -3.84757,-0.771729 -3.63062,0.215088 C-3.41366,1.2019 -3.63411,2.3252 -4.29199,3.58496 C-4.43197,3.79492 -4.55444,4.00488 -4.65942,4.21484 C-4.7644,4.4248 -4.91488,4.62077 -5.11084,4.80273 C-5.16683,4.91471 -5.22282,5.02669 -5.27881,5.13867 C-5.3348,5.25065 -5.39079,5.34863 -5.44678,5.43262 M-9.79297,10.0728 C-9.13509,11.2205 -8.30225,12.2144 -7.29443,13.0542 C-7.64437,12.1304 -7.83333,11.231 -7.86133,10.3562 C-7.88932,9.48136 -7.83333,8.68701 -7.69336,7.97314 C-7.55339,7.25928 -7.36792,6.63639 -7.13696,6.10449 C-6.90601,5.57259 -6.72054,5.18066 -6.58057,4.92871 L-6.01367,4.06787 C-5.8737,3.8859 -5.75822,3.71094 -5.66724,3.54297 C-5.57625,3.375 -5.47477,3.22103 -5.36279,3.08105 C-5.13883,2.59115 -4.96037,2.06624 -4.82739,1.50635 C-4.69442,0.946452 -4.7889,0.421549 -5.11084,-0.0683594 C-5.27881,-0.474284 -5.60775,-0.81722 -6.09766,-1.09717 C-6.44759,-1.29313 -6.82202,-1.39811 -7.22095,-1.41211 C-7.61987,-1.42611 -8.0223,-1.37712 -8.42822,-1.26514 C-9.28206,-1.01318 -9.89795,-0.49528 -10.2759,0.288574 C-11.0737,1.7723 -11.4237,3.389 -11.3257,5.13867 C-11.2277,6.88835 -10.7168,8.53304 -9.79297,10.0728 M-8.63818,9.2749 C-9.04411,8.49105 -9.34505,7.6582 -9.54102,6.77637 C-9.70898,6.03451 -9.77897,5.18766 -9.75098,4.23584 C-9.72298,3.28402 -9.43604,2.3112 -8.89014,1.31738 C-8.66618,0.883464 -8.33024,0.593018 -7.88232,0.446045 C-7.43441,0.299072 -7.00049,0.344564 -6.58057,0.58252 C-6.20264,0.750488 -5.95768,1.05843 -5.8457,1.50635 C-5.73372,1.95426 -5.78971,2.37419 -6.01367,2.76611 C-6.12565,2.97607 -6.31812,3.25252 -6.59106,3.59546 C-6.86401,3.9384 -7.15096,4.36882 -7.4519,4.88672 C-7.75285,5.40462 -8.0188,6.02751 -8.24976,6.75537 C-8.48071,7.48324 -8.61019,8.32308 -8.63818,9.2749 "/>
</g>

<g fill="#ef4b65" fill-opacity="1" stroke="none" transform="matrix(1,0,0,1,0,0)"
font-family="MS Shell Dlg 2" font-size="7.8" font-weight="400" font-style="normal" 
>
</g>
</g>
</svg>
