<svg xmlns="http://www.w3.org/2000/svg" version="1.2" viewBox="0 0 42.52 42.52" height="56.693" width="56.693">
   <g stroke-linejoin="bevel" stroke-linecap="square" fill-rule="evenodd" stroke="none" fill="none" font-weight="400"
      font-size="7.8" font-family="'MS Shell Dlg 2'">
      <path
         d="M42.52 21.26C42.52 33 33 42.52 21.26 42.52 9.518 42.52 0 33 0 21.26 0 9.518 9.518 0 21.26 0 33 0 42.52 9.518 42.52 21.26"
         vector-effect="non-scaling-stroke" fill="#ef4b65" />
      <path
         d="M20.163 28.77c1.47 0 2.793-.178 3.968-.534 1.176-.357 2.037-.823 2.583-1.397v5.333c0 .308-.172.606-.514.893-.343.287-.809.539-1.397.756-.588.216-1.284.388-2.089.514-.805.126-1.655.189-2.55.189-.883 0-1.719-.063-2.51-.19-.79-.125-1.48-.297-2.068-.513-.588-.217-1.053-.47-1.396-.756-.343-.287-.515-.585-.515-.893V26.84c.574.574 1.442 1.04 2.604 1.397 1.162.356 2.456.535 3.884.535m-.084-8.944c1.232 0 2.24-.231 3.024-.693a71.747 71.747 0 00-.504 2.95c-.07.469-.126.882-.168 1.238a8.348 8.348 0 00-.063.662c0 .294-.224.535-.672.724-.448.19-.987.284-1.617.284-.574 0-1.074-.095-1.501-.284-.427-.189-.64-.43-.64-.724 0-.084-.028-.305-.084-.662-.056-.356-.13-.77-.22-1.238a52.165 52.165 0 01-.472-2.95c.74.462 1.713.693 2.917.693m3.612-1.932c0 .364-.35.69-1.05.976-.7.287-1.554.43-2.562.43-.938 0-1.767-.143-2.488-.43-.72-.287-1.081-.612-1.081-.976v-.357c0-.392.36-.724 1.081-.997s1.55-.41 2.488-.41c1.008 0 1.862.137 2.562.41.7.273 1.05.605 1.05.997v.357m-3.612-.987c-.574 0-1.11.07-1.606.21-.497.14-.878.336-1.144.588.266.238.647.427 1.144.567.497.14 1.032.21 1.606.21.63 0 1.19-.07 1.68-.21.49-.14.847-.329 1.07-.567-.223-.252-.58-.448-1.07-.588-.49-.14-1.05-.21-1.68-.21m12.304 2.226h-.651v4.85h-1.113v-4.85h-2.918v.525H26.63v4.073c.336.35.504.707.504 1.07 0 .435-.179.837-.536 1.208-.356.37-.85.693-1.48.966s-1.368.497-2.215.672c-.847.175-1.76.262-2.74.262-.938 0-1.83-.087-2.677-.262-.847-.175-1.585-.4-2.215-.672-.63-.273-1.123-.595-1.48-.966s-.536-.773-.536-1.207c0-.364.168-.721.504-1.071v-4.073h-1.196v-.525h-1.24v-.651h1.24v-.588h1.196V15.48h-3.443l4.955-4.22h9.931l4.955 4.22H26.63v2.415h1.07v.588h2.92v-.777h1.112v.777h.65v.65m-12.219 7.181c.784 0 1.512-.049 2.184-.147a9.658 9.658 0 001.763-.409c.504-.175.9-.378 1.187-.609.287-.23.43-.472.43-.724 0-.406-.273-.767-.819-1.082-.546-.314-1.238-.542-2.078-.682 0-.084.017-.185.052-.304.035-.12.053-.249.053-.389.476.084.916.2 1.322.347.406.147.777.29 1.113.43V15.48c-.336-.196-.763-.37-1.28-.524-.434-.14-.973-.26-1.617-.357a14.78 14.78 0 00-2.205-.147c-.84 0-1.582.049-2.225.147-.644.098-1.183.217-1.617.357a7.03 7.03 0 00-1.323.524v7.265c.308-.14.658-.283 1.05-.43a7.54 7.54 0 011.26-.347c.056.14.084.27.084.389v.304c-.826.14-1.505.368-2.037.682-.532.315-.798.676-.798 1.082 0 .252.144.493.43.724.288.231.683.434 1.187.609a9.658 9.658 0 001.764.41c.671.097 1.378.146 2.12.146"
         fill-opacity=".949" fill="#fff" />
   </g>
</svg>