<svg xmlns="http://www.w3.org/2000/svg" version="1.2" viewBox="0 0 42.52 42.52" height="56.693" width="56.693">
   <g stroke-linejoin="bevel" stroke-linecap="square" fill-rule="evenodd" stroke="none" fill="none" font-weight="400"
      font-size="7.8" font-family="'MS Shell Dlg 2'">
      <path
         d="M42.52 21.26C42.52 33 33 42.52 21.26 42.52 9.518 42.52 0 33 0 21.26 0 9.518 9.518 0 21.26 0 33 0 42.52 9.518 42.52 21.26"
         vector-effect="non-scaling-stroke" fill="#ef4b65" />
      <path
         d="M16.863 30.157l2.771-12.346c-.378-.224-.567-.581-.567-1.07 0-.337.123-.627.368-.872a1.19 1.19 0 01.871-.368c.35 0 .655.123.914.368s.388.535.388.871c0 .462-.203.819-.609 1.07l2.75 12.347h-.86l-.462-2.184-3.884-1.47-.82 3.654h-.86m4.745-5.837l-2.75 1.721 3.38 1.281-.63-3.002m-1.848-3.108l1.491 1.554-.945-4.136-.546 2.582m-.945 4.22l2.667-1.68v-.041l-1.848-1.89-.819 3.611m-2.708 4.725h-3.968V26.25h.65v-.609h.945V19.03a1.1 1.1 0 01-.787-.042 1.089 1.089 0 01-.598-.61c-.14-.307-.15-.598-.032-.87.12-.274.319-.487.599-.641l13.038-5.627c.28-.112.557-.112.83 0 .272.112.479.329.619.651.14.28.154.563.042.85a1.26 1.26 0 01-.588.662l-5.522 2.31c-.28-.28-.623-.42-1.029-.42-.392 0-.731.143-1.018.43-.287.287-.43.626-.43 1.018v.084l-4.305 1.848v6.97h.945v.61h.609v3.905m8.671-18.624a7.466 7.466 0 00-.86-.504l1.175-2.96a8.329 8.329 0 013.475 2.96c.889 1.316 1.333 2.807 1.333 4.472 0 .462-.042.875-.126 1.24h-.692v11.484h.776v1.932h-1.931v-1.932h.777V16.74h-.903l-1.134-2.016a3.408 3.408 0 01-.126-.493 2.25 2.25 0 00-.126-.451l.525-.21a1.34 1.34 0 00.661-.746 1.26 1.26 0 00-.031-1.018c-.224-.546-.623-.819-1.197-.819-.112 0-.28.028-.504.084l-1.092.462m6.593 19.19v1.806h-20.87v-1.806h20.87"
         fill-opacity=".949" fill="#fff" />
   </g>
</svg>