<svg xmlns="http://www.w3.org/2000/svg" version="1.2" viewBox="0 0 42.52 42.52" height="56.693" width="56.693">
   <g stroke-linejoin="bevel" stroke-linecap="square" fill-rule="evenodd" stroke="none" fill="none" font-weight="400"
      font-size="7.8" font-family="'MS Shell Dlg 2'">
      <path
         d="M42.52 21.26C42.52 33 33 42.52 21.26 42.52 9.518 42.52 0 33 0 21.26 0 9.518 9.518 0 21.26 0 33 0 42.52 9.518 42.52 21.26"
         vector-effect="non-scaling-stroke" fill="#ef4b65" />
      <path
         d="M27.222 25.016l-5.986 4.665-2.262 5.425-5.085 2.162-5.725-4.004-1.041-6.366L5.2 25.016h6.967v5.045h-.901v.7h1.401v-8.287c0-.788.287-1.468.86-2.042.575-.574 1.255-.86 2.043-.86h3.984v2.281H15.57a.55.55 0 00-.38.17.59.59 0 00-.18.45v8.289h1.34v-.7h-.78v-5.046h11.651m7.127-5.445h3.123v2.282H34.35v-2.282m-16.836-9.65H36.45v2.303H17.513V9.922m16.436 2.702v11.772H19.995V12.624H33.95m-7.588 1.822h-5.085v1.722h5.085v-1.722m6.347 0h-5.045v1.722h5.045v-1.722"
         fill-opacity=".949" fill="#fff" />
   </g>
</svg>