<svg xmlns="http://www.w3.org/2000/svg" version="1.2" viewBox="0 0 42.52 42.52" height="56.693" width="56.693">
   <g stroke-linejoin="bevel" stroke-linecap="square" fill-rule="evenodd" stroke="none" fill="none" font-weight="400"
      font-size="7.8" font-family="'MS Shell Dlg 2'">
      <path
         d="M42.52 21.26C42.52 33 33 42.52 21.26 42.52 9.518 42.52 0 33 0 21.26 0 9.518 9.518 0 21.26 0 33 0 42.52 9.518 42.52 21.26"
         vector-effect="non-scaling-stroke" fill="#ef4b65" />
      <path
         d="M38.13 27.826c.038-.365.061-.73.068-1.094.006-.365.016-.726.029-1.084.013-.358.04-.716.078-1.074.04-.359.104-.726.196-1.104a6.038 6.038 0 00.029-2.598 5.378 5.378 0 00-.342-1.064c-.143-.32-.3-.59-.469-.81-.364-.417-.836-.84-1.416-1.27a17.93 17.93 0 00-1.914-1.23 25.118 25.118 0 00-2.178-1.085 23.105 23.105 0 00-2.226-.85 21.567 21.567 0 00-3.477-.79 24.967 24.967 0 00-3.476-.244c-1.16 0-2.321.071-3.487.214a45.713 45.713 0 00-3.486.567c-1.575.378-3.096.83-4.56 1.357a38.303 38.303 0 00-4.288 1.846 7.48 7.48 0 00-2.441 1.934 5.723 5.723 0 00-1.23 2.773 8.748 8.748 0 00-.098.586 1.833 1.833 0 00-.01.322c.007.098.016.212.03.342.012.13.019.339.019.625-.3-.417-.524-.928-.674-1.533a7.702 7.702 0 01-.224-1.856c0-.631.084-1.246.253-1.845.17-.6.424-1.1.762-1.504.39-.43.807-.827 1.25-1.192a9.68 9.68 0 011.348-.937 36.938 36.938 0 017.5-3.203c2.565-.768 5.247-1.179 8.047-1.23 1.458 0 2.91.064 4.355.195 1.445.13 2.884.41 4.317.84a25.45 25.45 0 011.992.8c.664.3 1.328.619 1.992.957.338.183.654.362.947.537.293.176.58.358.86.547.28.189.563.384.85.586.286.202.592.42.917.654.977.652 1.693 1.433 2.149 2.344.455.912.677 1.92.664 3.028-.235 1.966-.892 3.834-1.973 5.605a1.546 1.546 0 01-.293.498c-.13.15-.26.296-.39.44m-4.278 3.418a6.34 6.34 0 00.772-1.504 6.76 6.76 0 00.341-1.543 7.244 7.244 0 00-.02-1.592 14.555 14.555 0 00-.292-1.631c-.26-1.107-.69-2.002-1.29-2.686-.598-.683-1.431-1.26-2.5-1.728a36.314 36.314 0 00-2.372-.879 20.964 20.964 0 00-2.373-.635 16.665 16.665 0 00-2.432-.312 16.021 16.021 0 00-2.549.068 70.66 70.66 0 01-3.594.41c-1.184.104-2.363.28-3.535.528-.859.234-1.676.533-2.45.898-.776.365-1.554.736-2.335 1.113-.534.3-1.022.687-1.465 1.162a5.452 5.452 0 00-1.045 1.622 5.233 5.233 0 00-.4 1.943c-.013.69.143 1.387.469 2.09a2.764 2.764 0 00.313.938c-.313-.261-.613-.655-.9-1.182a8.077 8.077 0 01-.683-1.71 8.08 8.08 0 01-.293-1.796c-.026-.586.059-1.068.254-1.446.235-.52.521-1.012.86-1.474.338-.462.719-.889 1.142-1.28.423-.39.87-.742 1.338-1.054.469-.313.95-.586 1.445-.82a21.223 21.223 0 014.22-1.446 28.694 28.694 0 014.394-.664 62.611 62.611 0 014.95-.117c1.66.026 3.35.228 5.07.605.924.196 1.832.524 2.724.987a15.216 15.216 0 012.51 1.63c.546.404 1.041.87 1.484 1.397.443.527.697 1.104.762 1.729.026.26.058.5.097.722.04.222.091.462.157.723.078.338.104.693.078 1.064a6.824 6.824 0 01-.166 1.094 8.696 8.696 0 01-.313 1.035c-.124.332-.25.622-.38.87a10.97 10.97 0 01-.684 1.21c-.313.495-.75 1.049-1.309 1.66m-24.375.333a4.182 4.182 0 00-.342-.342c-.097-.085-.172-.218-.224-.4a9.205 9.205 0 00-.127-.733c-.059-.28-.117-.566-.176-.86a14.87 14.87 0 01-.147-.859c-.039-.28-.045-.53-.02-.752a2.5 2.5 0 01.45-1.465 10.182 10.182 0 013.057-2.949 7.997 7.997 0 011.894-.85 7.112 7.112 0 012.06-.302c.743 0 1.495-.013 2.257-.04.761-.025 1.52-.097 2.275-.214a18.02 18.02 0 013.3-.088 25.67 25.67 0 013.263.42c1.692.351 3.092 1.068 4.199 2.148 1.107 1.081 1.849 2.461 2.226 4.141.013.078 0 .202-.039.371a8.83 8.83 0 01-.146.547c-.059.195-.117.384-.176.566a9.959 9.959 0 01-.146.43.24.24 0 01-.088-.02.24.24 0 00-.088-.019 28.512 28.512 0 01-.469-1.016c-.13-.3-.28-.618-.45-.957-.286-.716-.637-1.308-1.054-1.777a5.781 5.781 0 00-1.435-1.172 7.445 7.445 0 00-1.778-.732 22.574 22.574 0 00-2.1-.46c-.963 0-1.91-.022-2.841-.068a36.545 36.545 0 00-2.803-.029c-.755.052-1.507.11-2.256.176-.748.065-1.52.13-2.314.195-.899.065-1.69.248-2.373.547-.684.3-1.293.742-1.826 1.328a6.575 6.575 0 00-1.143 1.973c-.254.703-.342 1.51-.264 2.422 0 .117.01.237.03.361.02.124.029.244.029.361-.026.04-.055.062-.088.069a.538.538 0 00-.127.049m21.582.82c-.417.182-.781.24-1.094.176a1.025 1.025 0 01-.703-.489c-.742-.99-1.575-1.728-2.5-2.216-.924-.489-2.011-.772-3.261-.85a83.28 83.28 0 00-3.086-.098c-1.016-.013-2.038-.02-3.067-.02-.573 0-1.07.115-1.494.343-.423.227-.856.576-1.299 1.044-.325.352-.66.661-1.006.928a7.782 7.782 0 00-.966.889l-.206.234a.292.292 0 01-.146.098.586.586 0 01-.215 0 5.084 5.084 0 01-.39-.078 6.984 6.984 0 01.605-1.787c.3-.619.677-1.192 1.133-1.72.456-.526.976-.97 1.562-1.327a4.395 4.395 0 011.895-.635 47.207 47.207 0 014.14-.068c.717.02 1.426.049 2.13.088.702.039 1.367.078 1.992.117.481.026.927.12 1.337.283.41.163.801.371 1.172.625.371.254.726.54 1.065.86.338.318.67.647.996.986.143.143.27.325.38.547.111.22.222.455.333.703.11.247.221.491.332.732.11.24.23.453.361.635m-15.058 1.133c.052-.222.117-.453.195-.694.078-.24.166-.468.263-.683.098-.215.209-.4.333-.557a.78.78 0 01.42-.293c.416-.078.85-.14 1.298-.185a5.94 5.94 0 011.319.01c.468.025 1.025.107 1.67.243.644.137 1.377.238 2.197.303.234.026.44.12.615.283.176.163.339.355.488.577.15.22.287.459.41.712.124.254.251.485.381.694a23.632 23.632 0 00-.634-.03c-.202-.006-.4-.02-.596-.039a3.695 3.695 0 01-.586-.107 2.618 2.618 0 01-.606-.254c-.846-.456-1.712-.687-2.597-.693a9.327 9.327 0 00-2.676.38l-1.894.333"
         fill-opacity=".949" fill="#fff" />
   </g>
</svg>