<?xml version="1.0" encoding="UTF-8" standalone="no"?>
<svg
   xmlns:dc="http://purl.org/dc/elements/1.1/"
   xmlns:cc="http://creativecommons.org/ns#"
   xmlns:rdf="http://www.w3.org/1999/02/22-rdf-syntax-ns#"
   xmlns:svg="http://www.w3.org/2000/svg"
   xmlns="http://www.w3.org/2000/svg"
   xmlns:sodipodi="http://sodipodi.sourceforge.net/DTD/sodipodi-0.dtd"
   xmlns:inkscape="http://www.inkscape.org/namespaces/inkscape"
   inkscape:version="1.0 (4035a4fb49, 2020-05-01)"
   sodipodi:docname="2317.svg"
   id="svg20"
   version="1.2"
   viewBox="0 0 42.519639 42.519639"
   height="14.999999mm"
   width="14.999999mm">
  <metadata
     id="metadata24">
    <rdf:RDF>
      <cc:Work
         rdf:about="">
        <dc:format>image/svg+xml</dc:format>
        <dc:type
           rdf:resource="http://purl.org/dc/dcmitype/StillImage" />
        <dc:title>Qt SVG Document</dc:title>
      </cc:Work>
    </rdf:RDF>
  </metadata>
  <sodipodi:namedview
     inkscape:current-layer="svg20"
     inkscape:window-maximized="0"
     inkscape:window-y="0"
     inkscape:window-x="0"
     inkscape:cy="28.346482"
     inkscape:cx="28.346482"
     inkscape:zoom="5.8410537"
     showgrid="false"
     id="namedview22"
     inkscape:window-height="480"
     inkscape:window-width="1034"
     inkscape:pageshadow="2"
     inkscape:pageopacity="0"
     guidetolerance="10"
     gridtolerance="10"
     objecttolerance="10"
     borderopacity="1"
     bordercolor="#666666"
     pagecolor="#ffffff" />
  <title
     id="title2">Qt SVG Document</title>
  <desc
     id="desc4">Generated with Qt</desc>
  <defs
     id="defs6" />
  <g
     transform="translate(5.25984,5.25984)"
     id="g18"
     stroke-linejoin="bevel"
     stroke-linecap="square"
     fill-rule="evenodd"
     stroke-width="1"
     stroke="#000000"
     fill="none">
    <g
       id="g10"
       font-style="normal"
       font-weight="400"
       font-size="7.8px"
       font-family="'MS Shell Dlg 2'"
       stroke="none"
       fill-opacity="1"
       fill="#ef4b65">
      <path
         id="path8"
         d="M 37.2598,16 C 37.2598,27.7415 27.7415,37.2598 16,37.2598 4.25851,37.2598 -5.25984,27.7415 -5.25984,16 -5.25984,4.25851 4.25851,-5.25984 16,-5.25984 27.7415,-5.25984 37.2598,4.25851 37.2598,16"
         fill-rule="evenodd"
         vector-effect="non-scaling-stroke" />
    </g>
    <g
       id="g14"
       font-style="normal"
       font-weight="400"
       font-size="7.8px"
       font-family="'MS Shell Dlg 2'"
       transform="translate(16.5102,11.011)"
       stroke="none"
       fill-opacity="0.94902"
       fill="#ffffff">
      <path
         id="path12"
         d="m 16.3594,11.5547 c 0.039,-0.3646 0.0618,-0.7292 0.0683,-1.0938 0.0065,-0.3645 0.0163,-0.72587 0.0293,-1.08395 0.0131,-0.35807 0.0391,-0.71614 0.0782,-1.07422 0.039,-0.35807 0.1041,-0.72591 0.1953,-1.10351 0.1041,-0.45573 0.1562,-0.90495 0.1562,-1.34766 0,-0.44271 -0.0423,-0.85937 -0.1269,-1.25 C 16.6751,4.21094 16.5612,3.85612 16.418,3.53711 16.2747,3.2181 16.1185,2.94792 15.9492,2.72656 15.5846,2.3099 15.1126,1.88672 14.5332,1.45703 13.9538,1.02734 13.3158,0.617188 12.6191,0.226563 11.9225,-0.164063 11.1966,-0.525391 10.4414,-0.857422 9.6862,-1.18945 8.94401,-1.47266 8.21484,-1.70703 7.05599,-2.07161 5.89714,-2.33529 4.73828,-2.49805 3.57943,-2.66081 2.42057,-2.74219 1.26172,-2.74219 c -1.158855,0 -2.32096,0.07162 -3.48633,0.21485 -1.16536,0.14323 -2.32747,0.33203 -3.48633,0.5664 -1.57552,0.37761 -3.0957,0.83008 -4.56056,1.357424 -1.4648,0.5273441 -2.8939,1.142579 -4.2871,1.845706 -0.9766,0.49479 -1.7904,1.13932 -2.4414,1.93359 -0.651,0.79427 -1.0612,1.71875 -1.2305,2.77344 -0.0521,0.27344 -0.0846,0.46875 -0.0976,0.58594 -0.013,0.11718 -0.0163,0.22461 -0.0098,0.32226 0.0065,0.09766 0.0163,0.21159 0.0293,0.3418 0.013,0.13021 0.0195,0.33854 0.0195,0.625 -0.2994,-0.41667 -0.5241,-0.92774 -0.6738,-1.5332 -0.1497,-0.60547 -0.2246,-1.22396 -0.2246,-1.85547 0,-0.63151 0.0846,-1.24675 0.2539,-1.84571 0.1693,-0.59895 0.4232,-1.10026 0.7617,-1.5039 0.3906,-0.42969 0.8073,-0.826825 1.25,-1.191409 0.4427,-0.364583 0.892,-0.677083 1.3477,-0.937501 2.4349,-1.36719 4.9349,-2.43489 7.49998,-3.20312 2.56511,-0.76823 5.2474,-1.17839 8.0468762,-1.23047 1.4583338,0 2.9101538,0.0651 4.3554738,0.19531 1.44531,0.13021 2.88411,0.41016 4.3164,0.83984 0.66406,0.23438 1.32813,0.50131 1.99217,0.80078 0.6641,0.29948 1.3281,0.61849 1.9922,0.95704 0.3385,0.18229 0.6543,0.36132 0.9473,0.53711 0.2929,0.17578 0.5794,0.35807 0.8593,0.54687 0.28,0.1888 0.5632,0.38412 0.8497,0.58594 0.2864,0.201821 0.5924,0.41992 0.9179,0.654295 0.9766,0.651042 1.6927,1.432295 2.1485,2.343755 0.4557,0.91145 0.677,1.92057 0.664,3.02734 -0.2343,1.96614 -0.8919,3.83463 -1.9726,5.60548 -0.0651,0.1823 -0.1628,0.3483 -0.293,0.498 -0.1302,0.1498 -0.2604,0.2963 -0.3906,0.4395 m -4.2774,3.418 c 0.3386,-0.4948 0.5957,-0.9961 0.7715,-1.5039 0.1758,-0.5079 0.2897,-1.0222 0.3418,-1.543 0.0521,-0.5209 0.0456,-1.0515 -0.0195,-1.5918 C 13.1107,9.79362 13.013,9.25 12.8828,8.70313 12.6224,7.59635 12.1927,6.70117 11.5938,6.01758 10.9948,5.33398 10.1615,4.75781 9.09375,4.28906 8.29948,3.96354 7.50846,3.67057 6.7207,3.41016 5.93294,3.14974 5.14193,2.93815 4.34766,2.77539 3.55339,2.61263 2.74284,2.50846 1.91602,2.46289 1.08919,2.41732 0.239583,2.4401 -0.632813,2.53125 -1.84375,2.70052 -3.04167,2.83724 -4.22656,2.94141 c -1.1849,0.10416 -2.36328,0.27994 -3.53516,0.52734 -0.85937,0.23438 -1.67643,0.53385 -2.45118,0.89844 -0.7747,0.36458 -1.5527,0.73567 -2.334,1.11328 -0.5338,0.29948 -1.0221,0.68685 -1.4648,1.16211 -0.4427,0.47526 -0.791,1.01562 -1.0449,1.62109 -0.2539,0.60547 -0.3874,1.25326 -0.4004,1.94333 -0.0131,0.6901 0.1432,1.3868 0.4687,2.0899 0.0261,0.1692 0.0651,0.332 0.1172,0.4883 0.0521,0.1562 0.1172,0.3059 0.1953,0.4492 -0.3125,-0.2604 -0.612,-0.6543 -0.8984,-1.1817 -0.2865,-0.5273 -0.5143,-1.097 -0.6836,-1.7089 -0.1693,-0.61203 -0.2669,-1.21099 -0.293,-1.79692 -0.026,-0.58594 0.0586,-1.06771 0.2539,-1.44532 0.2344,-0.52083 0.5209,-1.01237 0.8594,-1.47461 0.3385,-0.46224 0.7194,-0.88867 1.1426,-1.27929 0.4232,-0.39063 0.8691,-0.74219 1.3379,-1.05469 0.4687,-0.3125 0.9505,-0.58594 1.4453,-0.82031 1.3411,-0.625 2.74738,-1.10677 4.21873,-1.44532 1.47136,-0.338538 2.9362,-0.559892 4.39453,-0.664059 C -1.25781,0.259115 0.392578,0.220052 2.05273,0.246094 3.71289,0.272135 5.40234,0.473958 7.12109,0.851563 8.04557,1.04688 8.95378,1.37565 9.8457,1.83789 c 0.8919,0.46224 1.7285,1.00586 2.5098,1.63086 0.5468,0.40365 1.0416,0.86914 1.4843,1.39648 0.4428,0.52735 0.6967,1.10352 0.7618,1.72852 0.026,0.26042 0.0586,0.5013 0.0976,0.72266 0.0391,0.22135 0.0912,0.46224 0.1563,0.72265 0.0781,0.33854 0.1041,0.69336 0.0781,1.06446 -0.026,0.37109 -0.0814,0.73567 -0.166,1.09378 -0.0847,0.358 -0.1888,0.7031 -0.3125,1.0351 -0.1237,0.3321 -0.2507,0.6218 -0.3809,0.8692 -0.1432,0.3125 -0.3711,0.7161 -0.6836,1.2109 -0.3125,0.4948 -0.7487,1.0482 -1.3086,1.6602 m -24.375,0.332 c -0.1302,-0.1432 -0.2441,-0.2572 -0.3418,-0.3418 -0.0976,-0.0846 -0.1725,-0.2181 -0.2246,-0.4004 -0.026,-0.2083 -0.0683,-0.4525 -0.1269,-0.7324 -0.0586,-0.28 -0.1172,-0.5664 -0.1758,-0.8594 -0.0586,-0.293 -0.1074,-0.5794 -0.1465,-0.8594 -0.0391,-0.2799 -0.0456,-0.5306 -0.0195,-0.7519 0,-0.5469 0.1497,-1.0352 0.4492,-1.46487 0.4036,-0.59896 0.8659,-1.14909 1.3867,-1.65039 0.5208,-0.5013 1.0775,-0.93424 1.66993,-1.29883 0.59245,-0.36458 1.22396,-0.64778 1.89454,-0.84961 0.67057,-0.20182 1.35742,-0.30273 2.06054,-0.30273 0.74219,0 1.49414,-0.01302 2.25586,-0.03906 0.76172,-0.02605 1.52018,-0.09766 2.27539,-0.21485 1.093752,-0.13021 2.194013,-0.1595 3.30078,-0.08789 1.10677,0.07162 2.19401,0.21159 3.26172,0.41992 1.69271,0.35157 3.09245,1.06771 4.19922,2.14844 1.10682,1.08073 1.84892,2.46097 2.22652,4.14067 0.0131,0.0781 0,0.2018 -0.039,0.3711 -0.0391,0.1692 -0.0879,0.3515 -0.1465,0.5468 -0.0586,0.1953 -0.1172,0.3841 -0.1758,0.5664 -0.0586,0.1823 -0.1074,0.3256 -0.1465,0.4297 -0.026,0 -0.0553,-0.0065 -0.0879,-0.0195 -0.0325,-0.013 -0.0618,-0.0195 -0.0878,-0.0195 C 10.7865,13.6576 10.6302,13.319 10.5,13.0195 10.3698,12.7201 10.2201,12.401 10.0508,12.0625 9.76432,11.3464 9.41276,10.7539 8.99609,10.2852 8.57943,9.81641 8.10091,9.42578 7.56055,9.11328 7.02018,8.80078 6.42773,8.55664 5.7832,8.38086 5.13867,8.20508 4.4388,8.05208 3.68359,7.92188 2.72005,7.92188 1.77279,7.89909 0.841797,7.85352 -0.0891927,7.80794 -1.02344,7.79818 -1.96094,7.82422 -2.71615,7.8763 -3.4681,7.9349 -4.2168,8 -4.96549,8.0651 -5.73698,8.13021 -6.53125,8.19531 -7.42969,8.26042 -8.2207,8.44271 -8.9043,8.74219 c -0.68359,0.29948 -1.2923,0.74219 -1.8262,1.32811 -0.5078,0.612 -0.8886,1.2695 -1.1425,1.9727 -0.254,0.7031 -0.3418,1.5104 -0.2637,2.4218 0,0.1172 0.0097,0.2377 0.0293,0.3614 0.0195,0.1237 0.0293,0.2441 0.0293,0.3613 -0.0261,0.0391 -0.0554,0.0618 -0.0879,0.0684 -0.0326,0.0065 -0.0749,0.0227 -0.127,0.0488 M 9.28906,16.125 C 8.8724,16.3073 8.50781,16.3659 8.19531,16.3008 7.88281,16.2357 7.64844,16.0729 7.49219,15.8125 6.75,14.8229 5.91667,14.084 4.99219,13.5957 4.06771,13.1074 2.98047,12.8242 1.73047,12.7461 0.688802,12.694 -0.339844,12.6615 -1.35547,12.6484 c -1.01562,-0.013 -2.03776,-0.0195 -3.06641,-0.0195 -0.57291,0 -1.07096,0.1139 -1.49414,0.3418 -0.42317,0.2279 -0.85612,0.5762 -1.29882,1.0449 -0.32552,0.3516 -0.66081,0.6608 -1.00586,0.9278 -0.34506,0.2669 -0.66732,0.5631 -0.9668,0.8886 -0.09115,0.1042 -0.15951,0.1823 -0.20508,0.2344 -0.04557,0.0521 -0.0944,0.0846 -0.14648,0.0977 -0.05209,0.013 -0.1237,0.013 -0.21485,0 -0.09114,-0.0131 -0.22135,-0.0391 -0.39059,-0.0782 0.1041,-0.5729 0.30596,-1.1686 0.60544,-1.7871 0.29948,-0.6185 0.67708,-1.1914 1.13281,-1.7187 0.45573,-0.5274 0.97656,-0.9701 1.5625,-1.3281 0.58594,-0.3581 1.21745,-0.5697 1.89453,-0.6348 0.63802,-0.0391 1.30859,-0.0651 2.01172,-0.0781 0.70312,-0.0131 1.41276,-0.0098 2.128906,0.0097 0.7161461,0.0196 1.425782,0.0489 2.128904,0.0879 0.70313,0.0391 1.36719,0.0781 1.99219,0.1172 0.48177,0.026 0.92773,0.1204 1.33789,0.2832 0.41016,0.1628 0.80078,0.3711 1.17188,0.625 0.37109,0.2539 0.72591,0.5404 1.06445,0.8594 0.33854,0.319 0.67057,0.6478 0.99609,0.9863 0.14323,0.1432 0.27018,0.3255 0.38086,0.5469 0.11068,0.2213 0.22136,0.4557 0.33203,0.7031 0.11068,0.2474 0.22136,0.4915 0.33203,0.7324 0.11068,0.2409 0.23112,0.4525 0.36133,0.6348 m -15.05859,1.1328 c 0.05208,-0.2213 0.11719,-0.4525 0.19531,-0.6933 0.07813,-0.2409 0.16602,-0.4688 0.26367,-0.6836 0.09766,-0.2149 0.20834,-0.4004 0.33203,-0.5567 0.1237,-0.1562 0.26368,-0.2539 0.41993,-0.2929 0.41666,-0.0782 0.84961,-0.14 1.29882,-0.1856 0.44922,-0.0456 0.88868,-0.0423 1.31836,0.0098 0.46875,0.026 1.025394,0.1074 1.669926,0.2441 0.644531,0.1367 1.376954,0.2376 2.197264,0.3027 0.23438,0.0261 0.43945,0.1205 0.61524,0.2832 0.17578,0.1628 0.33854,0.3549 0.48828,0.5762 0.14974,0.2214 0.28646,0.459 0.41015,0.7129 0.1237,0.2539 0.25065,0.485 0.38086,0.6934 C 3.59896,17.6549 3.38737,17.6452 3.18555,17.6387 2.98372,17.6322 2.78516,17.6191 2.58984,17.5996 2.39453,17.5801 2.19922,17.5443 2.00391,17.4922 1.80859,17.4401 1.60677,17.3555 1.39844,17.2383 0.552083,16.7826 -0.313802,16.5514 -1.19922,16.5449 -2.08464,16.5384 -2.97656,16.6654 -3.875,16.9258 l -1.89453,0.332"
         fill-rule="evenodd"
         vector-effect="none" />
    </g>
    <g
       id="g16"
       font-style="normal"
       font-weight="400"
       font-size="7.8px"
       font-family="'MS Shell Dlg 2'"
       stroke="none"
       fill-opacity="1"
       fill="#ef4b65" />
  </g>
</svg>
