<svg xmlns="http://www.w3.org/2000/svg" version="1.2" viewBox="0 0 42.52 42.52" height="56.693" width="56.693">
   <g stroke-linejoin="bevel" stroke-linecap="square" fill-rule="evenodd" stroke="none" fill="none" font-weight="400"
      font-size="7.8" font-family="'MS Shell Dlg 2'">
      <path
         d="M42.52 21.26C42.52 33 33 42.52 21.26 42.52 9.518 42.52 0 33 0 21.26 0 9.518 9.518 0 21.26 0 33 0 42.52 9.518 42.52 21.26"
         vector-effect="non-scaling-stroke" fill="#ec1d24" />
      <path
         d="M34.52 27.49v2.079h-7.579v-.693h-.945v.504H17.01v-.504H15.98v.693H8.485V27.49h.441v-8.125h9.113v-1.03h.609v-.944h1.322c0 .406.144.738.43.997.288.26.634.389 1.04.389s.752-.13 1.04-.389c.286-.259.43-.591.43-.997h1.532v.945h.61v1.029h8.944v8.125h.525m-17.427.609v.693h8.818v-.693H24.8v.252h-6.592v-.42h6.592v-.441h-.357v-5.627a.81.81 0 00-.272-.598c-.182-.175-.434-.263-.756-.263-.308 0-.57.088-.788.263-.217.175-.325.374-.325.598v5.627h-1.722v-5.627c0-.224-.094-.423-.283-.598a.996.996 0 00-.704-.263c-.322 0-.588.088-.797.263-.21.175-.315.374-.315.598v5.627h-.357v.609h-1.03m-4.22-6.236a.81.81 0 00-.272-.598c-.182-.175-.434-.263-.756-.263-.308 0-.57.088-.788.263-.217.175-.325.374-.325.598v5.627h2.142v-5.627m3.884 0c0-.224-.095-.423-.284-.598-.189-.175-.437-.263-.745-.263-.322 0-.591.088-.808.263-.217.175-.326.374-.326.598v5.627h2.163v-5.627m11.569 0c0-.224-.109-.423-.326-.598a1.126 1.126 0 00-.724-.263c-.308 0-.57.088-.787.263-.217.175-.326.374-.326.598v5.627h2.163v-5.627m3.863 0c0-.224-.108-.423-.325-.598a1.214 1.214 0 00-.788-.263c-.322 0-.574.088-.756.263a.81.81 0 00-.273.598v5.627h2.142v-5.627M17.787 19.03h-8.86v-.168h.083v-.777h-.084V18h7.139v-1.05h.86v-.252l-.44-.168 4.787-1.638V9.727h.252v.441h3.611v1.974h-3.611v2.75l4.913 1.638-.44.168v.252h.944V18h7.055v.084h-.084v.777h.084v.084h-8.693v-.777h-.588v-1.029H22.91a1.527 1.527 0 00-.546-.83 1.48 1.48 0 00-.924-.304c-.35 0-.65.102-.903.305a1.37 1.37 0 00-.483.829h-1.658v1.029h-.61v.86m-1.889 10.877H27.11v.776H15.897v-.776"
         fill="#fff" />
   </g>
</svg>