<?xml version="1.0" encoding="UTF-8" standalone="no"?>
<svg
   xmlns:dc="http://purl.org/dc/elements/1.1/"
   xmlns:cc="http://creativecommons.org/ns#"
   xmlns:rdf="http://www.w3.org/1999/02/22-rdf-syntax-ns#"
   xmlns:svg="http://www.w3.org/2000/svg"
   xmlns="http://www.w3.org/2000/svg"
   xmlns:sodipodi="http://sodipodi.sourceforge.net/DTD/sodipodi-0.dtd"
   xmlns:inkscape="http://www.inkscape.org/namespaces/inkscape"
   inkscape:version="1.0 (4035a4fb49, 2020-05-01)"
   sodipodi:docname="2401.svg"
   id="svg20"
   version="1.2"
   viewBox="0 0 42.519639 42.519639"
   height="14.999999mm"
   width="14.999999mm">
  <metadata
     id="metadata24">
    <rdf:RDF>
      <cc:Work
         rdf:about="">
        <dc:format>image/svg+xml</dc:format>
        <dc:type
           rdf:resource="http://purl.org/dc/dcmitype/StillImage" />
        <dc:title>Qt SVG Document</dc:title>
      </cc:Work>
    </rdf:RDF>
  </metadata>
  <sodipodi:namedview
     inkscape:current-layer="svg20"
     inkscape:window-maximized="0"
     inkscape:window-y="0"
     inkscape:window-x="0"
     inkscape:cy="28.346482"
     inkscape:cx="28.346482"
     inkscape:zoom="5.8410537"
     showgrid="false"
     id="namedview22"
     inkscape:window-height="480"
     inkscape:window-width="1034"
     inkscape:pageshadow="2"
     inkscape:pageopacity="0"
     guidetolerance="10"
     gridtolerance="10"
     objecttolerance="10"
     borderopacity="1"
     bordercolor="#666666"
     pagecolor="#ffffff" />
  <title
     id="title2">Qt SVG Document</title>
  <desc
     id="desc4">Generated with Qt</desc>
  <defs
     id="defs6" />
  <g
     transform="translate(5.25984,5.25984)"
     id="g18"
     stroke-linejoin="bevel"
     stroke-linecap="square"
     fill-rule="evenodd"
     stroke-width="1"
     stroke="#000000"
     fill="none">
    <g
       id="g10"
       font-style="normal"
       font-weight="400"
       font-size="7.8px"
       font-family="'MS Shell Dlg 2'"
       stroke="none"
       fill-opacity="1"
       fill="#ec1d24">
      <path
         id="path8"
         d="M 37.2598,16 C 37.2598,27.7415 27.7415,37.2598 16,37.2598 4.25851,37.2598 -5.25984,27.7415 -5.25984,16 -5.25984,4.25851 4.25851,-5.25984 16,-5.25984 27.7415,-5.25984 37.2598,4.25851 37.2598,16"
         fill-rule="evenodd"
         vector-effect="non-scaling-stroke" />
    </g>
    <g
       id="g14"
       font-style="normal"
       font-weight="400"
       font-size="7.8px"
       font-family="'MS Shell Dlg 2'"
       transform="translate(16,11.4646)"
       stroke="none"
       fill-opacity="1"
       fill="#ffffff">
      <path
         id="path12"
         d="m 13.2607,10.7656 v 2.0786 H 5.68115 V 12.1514 H 4.73633 v 0.5039 H -4.25 v -0.5039 h -1.02881 v 0.6928 h -7.49559 v -2.0786 h 0.4409 V 2.64014 h 9.11231 V 1.61133 H -2.6123 V 0.666504 h 1.32275 c 0,0.405926 0.14347,0.738366 0.430419,0.997316 0.286947,0.25895 0.633382,0.38843 1.039307,0.38843 0.405924,0 0.75236,-0.12948 1.039304,-0.38843 C 1.50643,1.40487 1.6499,1.07243 1.6499,0.666504 H 3.18262 V 1.61133 H 3.7915 v 1.02881 h 8.9443 v 8.12546 h 0.5249 m -17.42672,0.6089 v 0.6929 H 4.65234 V 11.3745 H 3.53955 v 0.252 h -6.59277 v -0.42 H 3.53955 V 10.7656 H 3.18262 V 5.13867 C 3.18262,4.91471 3.09163,4.71525 2.90967,4.54028 2.7277,4.36532 2.47575,4.27783 2.15381,4.27783 1.84587,4.27783 1.58341,4.36532 1.36646,4.54028 1.1495,4.71525 1.04102,4.91471 1.04102,5.13867 V 10.7656 H -0.680664 V 5.13867 c 0,-0.22396 -0.094482,-0.42342 -0.283447,-0.59839 C -1.15308,4.36532 -1.38753,4.27783 -1.66748,4.27783 c -0.32194,0 -0.58789,0.08749 -0.79785,0.26245 -0.20996,0.17497 -0.31494,0.37443 -0.31494,0.59839 v 5.62693 h -0.35694 v 0.6089 H -4.16602 M -8.38623,5.13867 c 0,-0.22396 -0.09098,-0.42342 -0.27295,-0.59839 -0.18197,-0.17496 -0.43392,-0.26245 -0.75586,-0.26245 -0.30794,0 -0.57039,0.08749 -0.78736,0.26245 -0.217,0.17497 -0.3254,0.37443 -0.3254,0.59839 v 5.62693 h 2.14157 V 5.13867 m 3.88428,0 c 0,-0.22396 -0.09449,-0.42342 -0.28345,-0.59839 -0.18897,-0.17496 -0.43742,-0.26245 -0.74536,-0.26245 -0.32194,0 -0.59139,0.08749 -0.80835,0.26245 -0.21696,0.17497 -0.32544,0.37443 -0.32544,0.59839 v 5.62693 h 2.1626 V 5.13867 m 11.56884,0 C 7.06689,4.91471 6.95841,4.71525 6.74146,4.54028 6.5245,4.36532 6.28304,4.27783 6.01709,4.27783 5.70915,4.27783 5.4467,4.36532 5.22974,4.54028 5.01278,4.71525 4.9043,4.91471 4.9043,5.13867 V 10.7656 H 7.06689 V 5.13867 m 3.86331,0 c 0,-0.22396 -0.1085,-0.42342 -0.3255,-0.59839 C 10.3878,4.36532 10.1253,4.27783 9.81738,4.27783 9.49544,4.27783 9.24349,4.36532 9.06152,4.54028 8.87956,4.71525 8.78857,4.91471 8.78857,5.13867 V 10.7656 H 10.9302 V 5.13867 M -3.47314,2.3042 H -12.3335 V 2.13623 h 0.084 V 1.35938 h -0.084 V 1.27539 h 7.13868 V 0.225586 h 0.86084 V -0.0263672 L -4.7749,-0.194336 0.012207,-1.83203 V -6.99707 H 0.26416 v 0.44092 h 3.61133 v 1.97363 H 0.26416 v 2.75049 l 4.91309,1.637694 -0.44092,0.1679688 V 0.225586 H 5.68115 V 1.27539 h 7.05465 v 0.08399 h -0.0839 v 0.77685 h 0.0839 V 2.22021 H 4.04346 V 1.44336 H 3.45557 V 0.414551 H 1.6499 C 1.55192,0.0646159 1.36995,-0.211833 1.104,-0.414795 0.838053,-0.617757 0.530111,-0.719238 0.180176,-0.719238 c -0.349935,0 -0.650879,0.101481 -0.902832,0.304443 -0.251953,0.202962 -0.412924,0.4794109 -0.482914,0.829346 H -2.86426 V 1.44336 H -3.47314 V 2.3042 m -1.88965,10.876 H 5.84912 V 13.957 H -5.36279 v -0.7768"
         fill-rule="evenodd"
         vector-effect="none" />
    </g>
    <g
       id="g16"
       font-style="normal"
       font-weight="400"
       font-size="7.8px"
       font-family="'MS Shell Dlg 2'"
       stroke="none"
       fill-opacity="1"
       fill="#ec1d24" />
  </g>
</svg>
