<?xml version="1.0" encoding="UTF-8" standalone="no"?>
<svg width="11.2889mm" height="11.2889mm"
 viewBox="0 0 32 32"
 xmlns="http://www.w3.org/2000/svg" xmlns:xlink="http://www.w3.org/1999/xlink"  version="1.2" baseProfile="tiny">
<title>Qt SVG Document</title>
<desc>Generated with Qt</desc>
<defs>
</defs>
<g fill="none" stroke="black" stroke-width="1" fill-rule="evenodd" stroke-linecap="square" stroke-linejoin="bevel" >

<g fill="#ec1d24" fill-opacity="1" stroke="none" transform="matrix(1,0,0,1,0,0)"
font-family="MS Shell Dlg 2" font-size="7.8" font-weight="400" font-style="normal" 
>
<path vector-effect="non-scaling-stroke" fill-rule="evenodd" d="M37.2598,16 C37.2598,27.7415 27.7415,37.2598 16,37.2598 C4.25851,37.2598 -5.25984,27.7415 -5.25984,16 C-5.25984,4.25851 4.25851,-5.25984 16,-5.25984 C27.7415,-5.25984 37.2598,4.25851 37.2598,16 "/>
</g>

<g fill="#ffffff" fill-opacity="0.94902" stroke="none" transform="matrix(1,0,0,1,16,11.4646)"
font-family="MS Shell Dlg 2" font-size="7.8" font-weight="400" font-style="normal" 
>
<path vector-effect="none" fill-rule="evenodd" d="M-7.52539,15.2378 L7.61279,15.2378 L7.61279,15.9307 L-7.52539,15.9307 L-7.52539,15.2378 M-6.34961,14.167 L6.62598,14.167 L6.62598,14.6919 L-6.34961,14.6919 L-6.34961,14.167 M5.4292,13.2642 L5.4292,13.7051 L-5.19482,13.7051 L-5.19482,13.2642 L5.4292,13.2642 M10.9302,6.0415 L10.9302,14.4189 L8.78857,14.4189 L8.68359,14.4189 L8.05371,14.4189 L6.98291,14.041 L6.98291,13.2222 L5.4292,12.6133 L5.51318,6.29346 L5.26123,6.29346 L5.17725,5.78955 L3.01465,5.78955 L2.84668,6.29346 L2.63672,6.29346 L2.80469,12.6133 L1.37695,12.6133 L1.46094,4.9707 L1.20898,4.9707 L1.125,4.40381 L-0.974609,4.40381 L-1.05859,4.9707 L-1.33154,4.9707 L-1.24756,12.6133 L-2.6543,12.6133 L-2.48633,6.29346 L-2.73828,6.29346 L-2.86426,5.78955 L-4.94287,5.78955 L-5.11084,6.29346 L-5.36279,6.29346 L-5.19482,12.6133 L-6.66455,13.2222 L-6.66455,14.041 L-7.90332,14.4189 L-8.63818,14.4189 L-8.72217,14.4189 L-10.8638,14.4189 L-10.8638,6.0415 L-6.53857,5.05469 L-6.53857,4.9707 L-6.74854,4.9707 L-6.9165,4.40381 L-7.52539,4.40381 L-7.52539,3.08105 L-7.73535,3.08105 L-7.73535,2.8501 L-8.15527,2.8501 L-8.42822,2.51416 L-0.260742,-0.320313 L-0.260742,-6.95508 L0.138184,-6.95508 L0.138184,-6.51416 C0.278158,-6.59814 0.446126,-6.68213 0.64209,-6.76611 C1.04801,-6.92008 1.50993,-6.98307 2.02783,-6.95508 C2.34977,-6.88509 2.60872,-6.80811 2.80469,-6.72412 C3.00065,-6.64014 3.20711,-6.55615 3.42407,-6.47217 C3.64103,-6.38818 3.88599,-6.3252 4.15894,-6.2832 C4.43188,-6.24121 4.79932,-6.24821 5.26123,-6.3042 C5.26123,-5.98226 5.31722,-5.7513 5.4292,-5.61133 C5.54118,-5.47135 5.66016,-5.34888 5.78613,-5.2439 C5.91211,-5.13892 6.02059,-5.01644 6.11157,-4.87646 C6.20256,-4.73649 6.22005,-4.49154 6.16406,-4.1416 C5.59017,-4.1416 5.15275,-4.09961 4.85181,-4.01563 C4.55086,-3.93164 4.28491,-3.84766 4.05396,-3.76367 C3.823,-3.67969 3.56405,-3.6027 3.2771,-3.53271 C2.99015,-3.46273 2.57373,-3.45573 2.02783,-3.51172 C1.39795,-3.53971 0.90804,-3.47673 0.558105,-3.32275 C0.390137,-3.23877 0.250163,-3.15479 0.138184,-3.0708 L0.138184,-0.404297 L8.51563,2.51416 L8.22168,2.8501 L7.88574,2.8501 L7.88574,3.08105 L7.61279,3.08105 L7.61279,4.40381 L6.98291,4.40381 L6.87793,4.9707 L6.62598,4.9707 L6.62598,5.05469 L10.9302,6.0415"/>
</g>

<g fill="#ec1d24" fill-opacity="1" stroke="none" transform="matrix(1,0,0,1,0,0)"
font-family="MS Shell Dlg 2" font-size="7.8" font-weight="400" font-style="normal" 
>
</g>
</g>
</svg>
