<svg xmlns="http://www.w3.org/2000/svg" version="1.2" viewBox="0 0 42.52 42.52" height="56.693" width="56.693">
   <g stroke-linejoin="bevel" stroke-linecap="square" fill-rule="evenodd" stroke="none" fill="none" font-weight="400"
      font-size="7.8" font-family="'MS Shell Dlg 2'">
      <path
         d="M42.52 21.26C42.52 33 33 42.52 21.26 42.52 9.518 42.52 0 33 0 21.26 0 9.518 9.518 0 21.26 0 33 0 42.52 9.518 42.52 21.26"
         vector-effect="non-scaling-stroke" fill="#ec1d24" />
      <path
         d="M13.734 31.962h15.139v.693H13.734v-.693m1.176-1.07h12.976v.524H14.91v-.525m11.779-.902v.44H16.065v-.44h10.624m5.501-7.223v8.377h-2.877l-1.07-.378v-.818l-1.554-.61.084-6.32h-.252l-.084-.503h-2.163l-.167.504h-.21l.168 6.32h-1.428l.084-7.643h-.252l-.084-.567h-2.1l-.084.567h-.273l.084 7.643h-1.406l.168-6.32h-.252l-.126-.504h-2.079l-.168.504h-.252l.168 6.32-1.47.609v.818l-1.238.378h-2.961v-8.377l4.325-.987v-.084h-.21l-.168-.567h-.609v-1.323h-.21v-.23h-.42l-.272-.336 8.167-2.835V9.77h.399v.441c.14-.084.308-.168.504-.252.406-.154.868-.217 1.386-.189.322.07.58.147.777.231.195.084.402.168.619.252.217.084.462.147.735.19.273.041.64.034 1.102-.022 0 .322.056.553.168.693.112.14.231.263.357.368.126.105.234.227.325.367.091.14.109.385.053.735-.574 0-1.011.042-1.312.126-.301.084-.567.168-.798.252-.231.084-.49.16-.777.23-.287.07-.703.078-1.25.022-.63-.028-1.12.035-1.47.189a2.765 2.765 0 00-.419.252v2.666l8.377 2.919-.293.336h-.336v.23h-.273v1.323h-.63l-.105.567h-.252v.084l4.304.987"
         fill-opacity=".949" fill="#fff" />
   </g>
</svg>