<?xml version="1.0" encoding="UTF-8" standalone="no"?>
<svg
   xmlns:dc="http://purl.org/dc/elements/1.1/"
   xmlns:cc="http://creativecommons.org/ns#"
   xmlns:rdf="http://www.w3.org/1999/02/22-rdf-syntax-ns#"
   xmlns:svg="http://www.w3.org/2000/svg"
   xmlns="http://www.w3.org/2000/svg"
   xmlns:sodipodi="http://sodipodi.sourceforge.net/DTD/sodipodi-0.dtd"
   xmlns:inkscape="http://www.inkscape.org/namespaces/inkscape"
   inkscape:version="1.0 (4035a4fb49, 2020-05-01)"
   sodipodi:docname="2403.svg"
   id="svg20"
   version="1.2"
   viewBox="0 0 42.519639 42.519639"
   height="14.999999mm"
   width="14.999999mm">
  <metadata
     id="metadata24">
    <rdf:RDF>
      <cc:Work
         rdf:about="">
        <dc:format>image/svg+xml</dc:format>
        <dc:type
           rdf:resource="http://purl.org/dc/dcmitype/StillImage" />
        <dc:title>Qt SVG Document</dc:title>
      </cc:Work>
    </rdf:RDF>
  </metadata>
  <sodipodi:namedview
     inkscape:current-layer="svg20"
     inkscape:window-maximized="0"
     inkscape:window-y="0"
     inkscape:window-x="0"
     inkscape:cy="28.346482"
     inkscape:cx="28.346482"
     inkscape:zoom="5.8410537"
     showgrid="false"
     id="namedview22"
     inkscape:window-height="480"
     inkscape:window-width="1034"
     inkscape:pageshadow="2"
     inkscape:pageopacity="0"
     guidetolerance="10"
     gridtolerance="10"
     objecttolerance="10"
     borderopacity="1"
     bordercolor="#666666"
     pagecolor="#ffffff" />
  <title
     id="title2">Qt SVG Document</title>
  <desc
     id="desc4">Generated with Qt</desc>
  <defs
     id="defs6" />
  <g
     transform="translate(5.25984,5.25984)"
     id="g18"
     stroke-linejoin="bevel"
     stroke-linecap="square"
     fill-rule="evenodd"
     stroke-width="1"
     stroke="#000000"
     fill="none">
    <g
       id="g10"
       font-style="normal"
       font-weight="400"
       font-size="7.8px"
       font-family="'MS Shell Dlg 2'"
       stroke="none"
       fill-opacity="1"
       fill="#ec1d24">
      <path
         id="path8"
         d="M 37.2598,16 C 37.2598,27.7415 27.7415,37.2598 16,37.2598 4.25851,37.2598 -5.25984,27.7415 -5.25984,16 -5.25984,4.25851 4.25851,-5.25984 16,-5.25984 27.7415,-5.25984 37.2598,4.25851 37.2598,16"
         fill-rule="evenodd"
         vector-effect="non-scaling-stroke" />
    </g>
    <g
       id="g14"
       font-style="normal"
       font-weight="400"
       font-size="7.8px"
       font-family="'MS Shell Dlg 2'"
       transform="translate(16,11.4646)"
       stroke="none"
       fill-opacity="0.94902"
       fill="#ffffff">
      <path
         id="path12"
         d="M -7.52539,15.2378 H 7.61279 v 0.6929 H -7.52539 V 15.2378 M -6.34961,14.167 H 6.62598 v 0.5249 H -6.34961 V 14.167 M 5.4292,13.2642 v 0.4409 H -5.19482 V 13.2642 H 5.4292 m 5.501,-7.2227 v 8.3774 H 8.78857 8.68359 8.05371 L 6.98291,14.041 V 13.2222 L 5.4292,12.6133 5.51318,6.29346 H 5.26123 L 5.17725,5.78955 H 3.01465 L 2.84668,6.29346 H 2.63672 L 2.80469,12.6133 H 1.37695 L 1.46094,4.9707 H 1.20898 L 1.125,4.40381 H -0.974609 L -1.05859,4.9707 h -0.27295 l 0.08398,7.6426 H -2.6543 L -2.48633,6.29346 H -2.73828 L -2.86426,5.78955 h -2.07861 l -0.16797,0.50391 h -0.25195 l 0.16797,6.31984 -1.46973,0.6089 v 0.8188 l -1.23877,0.3779 H -8.63818 -8.72217 -10.8638 V 6.0415 L -6.53857,5.05469 V 4.9707 H -6.74854 L -6.9165,4.40381 H -7.52539 V 3.08105 H -7.73535 V 2.8501 H -8.15527 L -8.42822,2.51416 -0.260742,-0.320313 V -6.95508 h 0.398926 v 0.44092 c 0.139974,-0.08398 0.307942,-0.16797 0.503906,-0.25195 0.40592,-0.15397 0.86784,-0.21696 1.38574,-0.18897 0.32194,0.06999 0.58089,0.14697 0.77686,0.23096 0.19596,0.08398 0.40242,0.16797 0.61938,0.25195 0.21696,0.08399 0.46192,0.14697 0.73487,0.18897 0.27294,0.04199 0.64038,0.03499 1.10229,-0.021 0,0.32194 0.05599,0.5529 0.16797,0.69287 0.11198,0.13998 0.23096,0.26245 0.35693,0.36743 0.12598,0.10498 0.23446,0.22746 0.32544,0.36744 0.09099,0.13997 0.10848,0.38492 0.05249,0.73486 -0.57389,0 -1.01131,0.04199 -1.31225,0.12597 -0.30095,0.08399 -0.5669,0.16797 -0.79785,0.25196 C 3.823,-3.67969 3.56405,-3.6027 3.2771,-3.53271 2.99015,-3.46273 2.57373,-3.45573 2.02783,-3.51172 1.39795,-3.53971 0.90804,-3.47673 0.558105,-3.32275 0.390137,-3.23877 0.250163,-3.15479 0.138184,-3.0708 v 2.666503 L 8.51563,2.51416 8.22168,2.8501 H 7.88574 V 3.08105 H 7.61279 V 4.40381 H 6.98291 L 6.87793,4.9707 H 6.62598 V 5.05469 L 10.9302,6.0415"
         fill-rule="evenodd"
         vector-effect="none" />
    </g>
    <g
       id="g16"
       font-style="normal"
       font-weight="400"
       font-size="7.8px"
       font-family="'MS Shell Dlg 2'"
       stroke="none"
       fill-opacity="1"
       fill="#ec1d24" />
  </g>
</svg>
