<?xml version="1.0" encoding="UTF-8" standalone="no"?>
<svg width="11.2889mm" height="11.2889mm"
 viewBox="0 0 32 32"
 xmlns="http://www.w3.org/2000/svg" xmlns:xlink="http://www.w3.org/1999/xlink"  version="1.2" baseProfile="tiny">
<title>Qt SVG Document</title>
<desc>Generated with Qt</desc>
<defs>
</defs>
<g fill="none" stroke="black" stroke-width="1" fill-rule="evenodd" stroke-linecap="square" stroke-linejoin="bevel" >

<g fill="#ec1d24" fill-opacity="1" stroke="none" transform="matrix(1,0,0,1,0,0)"
font-family="MS Shell Dlg 2" font-size="7.8" font-weight="400" font-style="normal" 
>
<path vector-effect="non-scaling-stroke" fill-rule="evenodd" d="M37.2598,16 C37.2598,27.7415 27.7415,37.2598 16,37.2598 C4.25851,37.2598 -5.25984,27.7415 -5.25984,16 C-5.25984,4.25851 4.25851,-5.25984 16,-5.25984 C27.7415,-5.25984 37.2598,4.25851 37.2598,16 "/>
</g>

<g fill="#ffffff" fill-opacity="0.94902" stroke="none" transform="matrix(1,0,0,1,16,12.0315)"
font-family="MS Shell Dlg 2" font-size="7.8" font-weight="400" font-style="normal" 
>
<path vector-effect="none" fill-rule="evenodd" d="M3.74951,11.8364 L2.97266,11.8364 L2.97266,13.4321 L1.60791,13.4321 L1.60791,7.93115 C1.60791,7.52523 1.45744,7.17179 1.15649,6.87085 C0.85555,6.56991 0.488118,6.41943 0.0541992,6.41943 C-0.351725,6.41943 -0.70516,6.56991 -1.0061,6.87085 C-1.30705,7.17179 -1.45752,7.52523 -1.45752,7.93115 L-1.45752,13.4321 L-2.82227,13.4321 L-2.82227,11.8364 L-3.59912,11.8364 L-3.59912,12.1094 L-11.9976,12.1094 L-11.9976,-0.929199 C-11.9976,-1.29313 -11.8681,-1.60457 -11.6091,-1.86353 C-11.3502,-2.12248 -11.0457,-2.25195 -10.6958,-2.25195 L-7.86133,-2.25195 L-8.30225,-3.55371 L0.0541992,-8.23584 L8.43164,-3.55371 L8.01172,-2.25195 L10.8462,-2.25195 C11.1821,-2.25195 11.4796,-2.12248 11.7385,-1.86353 C11.9975,-1.60457 12.127,-1.29313 12.127,-0.929199 L12.127,12.1094 L3.74951,12.1094 L3.74951,11.8364 M5.72314,-0.0683594 L2.97266,-0.0683594 L2.97266,3.62695 L5.72314,3.62695 L5.72314,-0.0683594 M6.98291,3.62695 L9.7334,3.62695 L9.7334,-0.0683594 L6.98291,-0.0683594 L6.98291,3.62695 M6.98291,9.23291 L9.7334,9.23291 L9.7334,5.47461 L6.98291,5.47461 L6.98291,9.23291 M-6.83252,5.47461 L-9.58301,5.47461 L-9.58301,9.23291 L-6.83252,9.23291 L-6.83252,5.47461 M-6.83252,-0.0683594 L-9.58301,-0.0683594 L-9.58301,3.62695 L-6.83252,3.62695 L-6.83252,-0.0683594 M-2.82227,5.47461 L-5.57275,5.47461 L-5.57275,9.23291 L-2.82227,9.23291 L-2.82227,5.47461 M-2.82227,-0.0683594 L-5.57275,-0.0683594 L-5.57275,3.62695 L-2.82227,3.62695 L-2.82227,-0.0683594 M6.87793,-2.94482 L0.0541992,-6.76611 L-6.74854,-2.94482 L-2.06641,-2.94482 C-2.06641,-3.51872 -1.85645,-4.01213 -1.43652,-4.42505 C-1.0166,-4.83797 -0.519694,-5.04443 0.0541992,-5.04443 C0.656087,-5.04443 1.16349,-4.83797 1.57642,-4.42505 C1.98934,-4.01213 2.1958,-3.51872 2.1958,-2.94482 L6.87793,-2.94482 M5.72314,9.23291 L5.72314,5.47461 L2.97266,5.47461 L2.97266,9.23291 L5.72314,9.23291 M12.8198,12.4033 L12.8198,14.8179 L3.74951,14.8179 L3.74951,12.4033 L12.8198,12.4033 M-12.6694,12.4033 L-3.59912,12.4033 L-3.59912,14.8179 L-12.6694,14.8179 L-12.6694,12.4033 M-2.82227,13.915 L2.97266,13.915 L2.97266,14.8179 L-2.82227,14.8179 L-2.82227,13.915"/>
</g>

<g fill="#ec1d24" fill-opacity="1" stroke="none" transform="matrix(1,0,0,1,0,0)"
font-family="MS Shell Dlg 2" font-size="7.8" font-weight="400" font-style="normal" 
>
</g>
</g>
</svg>
