<svg xmlns="http://www.w3.org/2000/svg" version="1.2" viewBox="0 0 42.52 42.52" height="56.693" width="56.693">
   <g stroke-linejoin="bevel" stroke-linecap="square" fill-rule="evenodd" stroke="none" fill="none" font-weight="400"
      font-size="7.8" font-family="'MS Shell Dlg 2'">
      <path
         d="M42.52 21.26C42.52 33 33 42.52 21.26 42.52 9.518 42.52 0 33 0 21.26 0 9.518 9.518 0 21.26 0 33 0 42.52 9.518 42.52 21.26"
         vector-effect="non-scaling-stroke" fill="#ec1d24" />
      <path
         d="M25.01 29.128h-.778v1.595h-1.364v-5.5c0-.406-.15-.76-.452-1.06a1.5 1.5 0 00-1.102-.452c-.406 0-.76.15-1.06.451-.301.301-.452.655-.452 1.06v5.501h-1.364v-1.595h-.777v.273H9.262V16.362c0-.364.13-.675.389-.934a1.25 1.25 0 01.913-.389h2.835l-.441-1.301 8.356-4.683 8.377 4.683-.42 1.301h2.835c.336 0 .633.13.892.389.26.259.389.57.389.934v13.039h-8.378v-.273m1.974-11.905h-2.75v3.695h2.75v-3.695m1.26 3.695h2.75v-3.695h-2.75v3.695m0 5.606h2.75v-3.758h-2.75v3.758m-13.816-3.758h-2.75v3.758h2.75v-3.758m0-5.543h-2.75v3.695h2.75v-3.695m4.01 5.543h-2.75v3.758h2.75v-3.758m0-5.543h-2.75v3.695h2.75v-3.695m9.7-2.876l-6.823-3.822-6.803 3.822h4.682c0-.574.21-1.068.63-1.48.42-.414.917-.62 1.491-.62.602 0 1.11.206 1.522.62.413.412.62.906.62 1.48h4.682m-1.155 12.177v-3.758h-2.75v3.758h2.75m7.097 3.17v2.415h-9.07v-2.414h9.07m-25.49 0h9.07v2.414H8.59v-2.414m9.848 1.511h5.794v.903h-5.794v-.903"
         fill-opacity=".949" fill="#fff" />
   </g>
</svg>