<svg xmlns="http://www.w3.org/2000/svg" version="1.2" viewBox="0 0 42.52 42.52" height="56.693" width="56.693">
   <g stroke-linejoin="bevel" stroke-linecap="square" fill-rule="evenodd" stroke="none" fill="none" font-weight="400"
      font-size="7.8" font-family="'MS Shell Dlg 2'">
      <path
         d="M42.52 21.26C42.52 33 33 42.52 21.26 42.52 9.518 42.52 0 33 0 21.26 0 9.518 9.518 0 21.26 0 33 0 42.52 9.518 42.52 21.26"
         vector-effect="non-scaling-stroke" fill="#ec1d24" />
      <path
         d="M24.001 20.94l-16.25 4.807a.768.768 0 01-.2.053c-.063.007-.13.01-.2.01-.293 0-.563-.09-.808-.273a1.433 1.433 0 01-.514-.714 1.287 1.287 0 01.115-1.05 1.39 1.39 0 01.83-.671l16.23-4.83-.861-2.834 7.39-2.204 2.499 8.293-7.39 2.205-.84-2.793m1.343 4.01l7.097-2.141.336 1.05a.7.7 0 01-.042.482.57.57 0 01-.4.315l-5.878 1.764a.208.208 0 01-.095.021h-.094a.66.66 0 01-.388-.126.517.517 0 01-.22-.315l-.316-1.05m3.905-12.912l-7.117 2.141-.273-.86c-.056-.154-.042-.322.042-.504a.74.74 0 01.378-.294l5.92-1.743a.546.546 0 01.169-.021c.322 0 .525.147.608.44l.273.84m4.242 19.086c.168 0 .315.06.44.179.127.119.19.27.19.451 0 .196-.063.35-.19.462a.643.643 0 01-.44.168H21.335a.67.67 0 01-.462-.168.586.586 0 01-.189-.462c0-.182.063-.332.189-.451a.648.648 0 01.462-.179h.65v-.714c0-.196.06-.35.18-.462a.662.662 0 01.472-.168h9.553c.154 0 .294.056.42.168a.586.586 0 01.189.462v.714h.693"
         fill-opacity=".949" fill="#fff" />
   </g>
</svg>