<?xml version="1.0" encoding="UTF-8" standalone="no"?>
<svg width="11.2889mm" height="11.2889mm"
 viewBox="0 0 32 32"
 xmlns="http://www.w3.org/2000/svg" xmlns:xlink="http://www.w3.org/1999/xlink"  version="1.2" baseProfile="tiny">
<title>Qt SVG Document</title>
<desc>Generated with Qt</desc>
<defs>
</defs>
<g fill="none" stroke="black" stroke-width="1" fill-rule="evenodd" stroke-linecap="square" stroke-linejoin="bevel" >

<g fill="#ec1d24" fill-opacity="1" stroke="none" transform="matrix(1,0,0,1,0,0)"
font-family="MS Shell Dlg 2" font-size="7.8" font-weight="400" font-style="normal" 
>
<path vector-effect="non-scaling-stroke" fill-rule="evenodd" d="M37.2598,16 C37.2598,27.7415 27.7415,37.2598 16,37.2598 C4.25851,37.2598 -5.25984,27.7415 -5.25984,16 C-5.25984,4.25851 4.25851,-5.25984 16,-5.25984 C27.7415,-5.25984 37.2598,4.25851 37.2598,16 "/>
</g>

<g fill="#ffffff" fill-opacity="0.94902" stroke="none" transform="matrix(1,0,0,1,16,12.0315)"
font-family="MS Shell Dlg 2" font-size="7.8" font-weight="400" font-style="normal" 
>
<path vector-effect="none" fill-rule="evenodd" d="M13.0298,-2.94482 L13.0298,10.9336 L5.07227,4.48779 L13.0298,-2.94482 M-3.76709,5.83154 C-3.26318,6.32145 -2.67879,6.69238 -2.01392,6.94434 C-1.34904,7.19629 -0.673665,7.32926 0.012207,7.34326 C0.698079,7.35726 1.37695,7.23828 2.04883,6.98633 C2.7207,6.73438 3.31559,6.34945 3.8335,5.83154 L12.7778,12.8022 L-12.7114,12.8022 L-3.76709,5.83154 M1.6499,5.30664 C1.15999,5.71257 0.600098,5.91553 -0.0297852,5.91553 C-0.659668,5.91553 -1.17757,5.68457 -1.5835,5.22266 L-12.7114,-3.84766 L12.8618,-3.84766 L1.6499,5.30664 M-4.94287,4.48779 L-12.9844,10.8496 L-12.9844,-2.94482 L-4.94287,4.48779"/>
</g>

<g fill="#ec1d24" fill-opacity="1" stroke="none" transform="matrix(1,0,0,1,0,0)"
font-family="MS Shell Dlg 2" font-size="7.8" font-weight="400" font-style="normal" 
>
</g>
</g>
</svg>
