<svg xmlns="http://www.w3.org/2000/svg" version="1.2" viewBox="0 0 42.52 42.52" height="56.693" width="56.693">
   <g stroke-linejoin="bevel" stroke-linecap="square" fill-rule="evenodd" stroke="none" fill="none" font-weight="400"
      font-size="7.8" font-family="'MS Shell Dlg 2'">
      <path
         d="M42.52 21.26C42.52 33 33 42.52 21.26 42.52 9.518 42.52 0 33 0 21.26 0 9.518 9.518 0 21.26 0 33 0 42.52 9.518 42.52 21.26"
         vector-effect="non-scaling-stroke" fill="#ec1d24" />
      <path
         d="M34.29 14.347v13.878l-7.958-6.446 7.958-7.432m-16.797 8.776a5.06 5.06 0 001.753 1.113c.665.252 1.34.385 2.026.399a5.44 5.44 0 002.037-.357 4.965 4.965 0 001.784-1.155l8.945 6.97H8.548l8.945-6.97m5.417-.525c-.49.406-1.05.609-1.68.609-.63 0-1.148-.231-1.554-.693l-11.128-9.07h25.574L22.91 22.598m-6.593-.819l-8.042 6.362V14.347l8.042 7.432"
         fill-opacity=".949" fill="#fff" />
   </g>
</svg>