<?xml version="1.0" encoding="UTF-8" standalone="no"?>
<svg
   xmlns:dc="http://purl.org/dc/elements/1.1/"
   xmlns:cc="http://creativecommons.org/ns#"
   xmlns:rdf="http://www.w3.org/1999/02/22-rdf-syntax-ns#"
   xmlns:svg="http://www.w3.org/2000/svg"
   xmlns="http://www.w3.org/2000/svg"
   xmlns:sodipodi="http://sodipodi.sourceforge.net/DTD/sodipodi-0.dtd"
   xmlns:inkscape="http://www.inkscape.org/namespaces/inkscape"
   inkscape:version="1.0 (4035a4fb49, 2020-05-01)"
   sodipodi:docname="2407.svg"
   id="svg20"
   version="1.2"
   viewBox="0 0 42.519639 42.519639"
   height="14.999999mm"
   width="14.999999mm">
  <metadata
     id="metadata24">
    <rdf:RDF>
      <cc:Work
         rdf:about="">
        <dc:format>image/svg+xml</dc:format>
        <dc:type
           rdf:resource="http://purl.org/dc/dcmitype/StillImage" />
        <dc:title>Qt SVG Document</dc:title>
      </cc:Work>
    </rdf:RDF>
  </metadata>
  <sodipodi:namedview
     inkscape:current-layer="svg20"
     inkscape:window-maximized="0"
     inkscape:window-y="0"
     inkscape:window-x="0"
     inkscape:cy="28.346482"
     inkscape:cx="28.346482"
     inkscape:zoom="5.8410537"
     showgrid="false"
     id="namedview22"
     inkscape:window-height="480"
     inkscape:window-width="1034"
     inkscape:pageshadow="2"
     inkscape:pageopacity="0"
     guidetolerance="10"
     gridtolerance="10"
     objecttolerance="10"
     borderopacity="1"
     bordercolor="#666666"
     pagecolor="#ffffff" />
  <title
     id="title2">Qt SVG Document</title>
  <desc
     id="desc4">Generated with Qt</desc>
  <defs
     id="defs6" />
  <g
     transform="translate(5.25984,5.25984)"
     id="g18"
     stroke-linejoin="bevel"
     stroke-linecap="square"
     fill-rule="evenodd"
     stroke-width="1"
     stroke="#000000"
     fill="none">
    <g
       id="g10"
       font-style="normal"
       font-weight="400"
       font-size="7.8px"
       font-family="'MS Shell Dlg 2'"
       stroke="none"
       fill-opacity="1"
       fill="#ec1d24">
      <path
         id="path8"
         d="M 37.2598,16 C 37.2598,27.7415 27.7415,37.2598 16,37.2598 4.25851,37.2598 -5.25984,27.7415 -5.25984,16 -5.25984,4.25851 4.25851,-5.25984 16,-5.25984 27.7415,-5.25984 37.2598,4.25851 37.2598,16"
         fill-rule="evenodd"
         vector-effect="non-scaling-stroke" />
    </g>
    <g
       id="g14"
       font-style="normal"
       font-weight="400"
       font-size="7.8px"
       font-family="'MS Shell Dlg 2'"
       transform="translate(16,12.5984)"
       stroke="none"
       fill-opacity="0.94902"
       fill="#ffffff">
      <path
         id="path12"
         d="m 12.4839,3.54297 c 0.4479,0 0.6719,0.24495 0.6719,0.73486 0,0.16797 -0.056,0.32544 -0.168,0.47241 -0.112,0.14698 -0.28,0.22046 -0.5039,0.22046 -0.266,0 -0.4549,-0.11897 -0.5669,-0.35693 C 11.5111,4.85173 11.1261,5.11068 10.7622,5.39063 10.4403,5.65658 10.1148,5.96102 9.78589,6.30396 9.45695,6.64689 9.1945,7.06331 8.99854,7.55322 8.78857,8.00114 8.6556,8.49105 8.59961,9.02295 8.54362,9.55485 8.52962,10.0658 8.55762,10.5557 c 0.02799,0.5459 0.08398,1.0918 0.16797,1.6377 0.15397,0 0.27295,0.007 0.35693,0.021 0.08398,0.014 0.19596,0.0629 0.33594,0.1469 0.15397,0.14 0.23095,0.3115 0.23095,0.5144 0,0.203 -0.07698,0.3745 -0.23095,0.5144 -0.39193,0.294 -0.73487,0.294 -1.02881,0 -0.19597,-0.1959 -0.25195,-0.4269 -0.16797,-0.6928 -0.46191,-0.14 -0.92383,-0.238 -1.38574,-0.294 -0.39193,-0.056 -0.82585,-0.07 -1.30176,-0.042 -0.47591,0.028 -0.95882,0.14 -1.44873,0.336 -0.44792,0.2099 -0.88184,0.4934 -1.30176,0.8503 -0.41992,0.3569 -0.78385,0.7104 -1.0918,1.0603 -0.37793,0.4199 -0.741857,0.8609 -1.091792,1.3228 0.097981,0.056 0.188965,0.1329 0.272949,0.2309 0.083984,0.098 0.125976,0.224 0.125976,0.378 0,0.1679 -0.080485,0.3219 -0.241455,0.4619 -0.16097,0.1399 -0.325439,0.2099 -0.493408,0.2099 -0.2239582,0 -0.409424,-0.07 -0.556396,-0.2099 -0.146973,-0.14 -0.220459,-0.294 -0.220459,-0.4619 0,-0.294 0.118978,-0.497 0.356933,-0.6089 -0.209961,-0.434 -0.454915,-0.8329 -0.734863,-1.1968 -0.237955,-0.322 -0.535405,-0.6474 -0.892335,-0.9763 -0.35693,-0.329 -0.76636,-0.5914 -1.22827,-0.7874 -0.47591,-0.2099 -0.98682,-0.3429 -1.53272,-0.3989 -0.54589,-0.056 -1.0638,-0.07 -1.55371,-0.042 -0.54589,0.028 -1.09179,0.084 -1.63769,0.168 0.08398,0.2659 0.02799,0.4969 -0.16797,0.6928 -0.13997,0.14 -0.29744,0.21 -0.47241,0.21 -0.17497,0 -0.33244,-0.07 -0.47241,-0.21 -0.16797,-0.1399 -0.24496,-0.3114 -0.23096,-0.5144 0.014,-0.2029 0.09098,-0.3744 0.23096,-0.5144 0.08398,-0.084 0.16796,-0.1329 0.25195,-0.1469 0.08398,-0.014 0.20296,-0.021 0.35693,-0.021 0.13998,-0.434 0.23796,-0.8819 0.29395,-1.3438 0.05599,-0.3919 0.06998,-0.8258 0.04199,-1.30175 C -7.93132,9.07194 -8.04329,8.60303 -8.23926,8.14111 -8.44922,7.6652 -8.72567,7.21729 -9.0686,6.79736 -9.41154,6.37744 -9.75798,6.01351 -10.1079,5.70557 -10.4998,5.32764 -10.9268,4.9637 -11.3887,4.61377 h -0.084 c -0.1119,0.23796 -0.2869,0.35693 -0.5249,0.35693 -0.2239,0 -0.3919,-0.07348 -0.5039,-0.22046 -0.1119,-0.14697 -0.1679,-0.30444 -0.1679,-0.47241 0,-0.48991 0.2239,-0.73486 0.6718,-0.73486 0.266,0 0.469,0.13297 0.6089,0.39892 0.406,-0.23795 0.7909,-0.5109 1.1548,-0.81884 0.32195,-0.26595 0.64039,-0.5774 0.95534,-0.93433 0.31494,-0.35693 0.57039,-0.76636 0.76635,-1.228271 0.20996,-0.489909 0.34294,-0.9973142 0.39893,-1.522217 0.05599,-0.524902 0.06999,-1.032312 0.04199,-1.522212 -0.02799,-0.5459 -0.08398,-1.1058 -0.16797,-1.67969 -0.20996,0.08398 -0.41292,0.02799 -0.60888,-0.16797 -0.16797,-0.13997 -0.25196,-0.29745 -0.25196,-0.47241 0,-0.17497 0.08399,-0.33244 0.25196,-0.47241 0.30794,-0.32194 0.62288,-0.32194 0.94482,0 0.19596,0.19596 0.25195,0.39192 0.16797,0.58789 0.43392,0.15397 0.89583,0.25895 1.38574,0.31494 0.39193,0.05599 0.83285,0.06998 1.32275,0.04199 0.48991,-0.028 0.96582,-0.14697 1.42774,-0.35693 0.44792,-0.19597 0.88183,-0.46542 1.30176,-0.80835 0.41992,-0.34294 0.78385,-0.68938 1.09179,-1.03931 0.377933,-0.39193 0.727868,-0.80485 1.049808,-1.23877 -0.097981,-0.08398 -0.181966,-0.17497 -0.251953,-0.27295 -0.069987,-0.09798 -0.10498,-0.22396 -0.10498,-0.37793 0,-0.16797 0.073486,-0.32194 0.220459,-0.46191 0.146972,-0.13998 0.3324378,-0.20996 0.556396,-0.20996 0.167969,0 0.332438,0.06998 0.493408,0.20996 0.16097,0.13997 0.241455,0.29394 0.241455,0.46191 0,0.15397 -0.041992,0.27995 -0.125976,0.37793 -0.083984,0.09798 -0.174968,0.18897 -0.272949,0.27295 0.209961,0.43392 0.468912,0.81885 0.776852,1.15479 0.26595,0.32194 0.5774,0.64038 0.93433,0.95532 0.35693,0.31494 0.78035,0.55639 1.27026,0.72436 0.46192,0.20996 0.95533,0.34294 1.48023,0.39893 0.5249,0.05599 1.03231,0.06999 1.52221,0.04199 0.5459,-0.02799 1.0918,-0.09098 1.6377,-0.18896 -0.08398,-0.19597 -0.028,-0.39193 0.16797,-0.58789 0.29394,-0.29395 0.63688,-0.29395 1.02881,0 0.32194,0.30794 0.32194,0.62288 0,0.94482 -0.19597,0.19596 -0.42692,0.25195 -0.69287,0.16797 -0.13998,0.43392 -0.23796,0.89583 -0.29395,1.38574 -0.05599,0.39193 -0.06999,0.83285 -0.04199,1.32275 0.02799,0.489913 0.13997,0.9658245 0.33594,1.427739 0.20996,0.447916 0.4934,0.881831 0.85034,1.301761 0.35693,0.41992 0.71037,0.78385 1.06027,1.09179 0.392,0.37793 0.8189,0.74187 1.2808,1.0918 0.084,-0.20996 0.2729,-0.31494 0.5669,-0.31494 M 0.26416,11.6685 c 1.03581,0 2.00513,-0.1925 2.90796,-0.5774 C 4.07495,10.7061 4.8623,10.1847 5.53418,9.52686 6.20605,8.86898 6.73446,8.08862 7.11938,7.18579 7.50431,6.28296 7.69678,5.31364 7.69678,4.27783 7.69678,3.24202 7.50431,2.26571 7.11938,1.34888 6.73446,0.432048 6.20605,-0.369303 5.53418,-1.05518 4.8623,-1.74105 4.07495,-2.27645 3.17212,-2.66138 2.26929,-3.04631 1.29997,-3.23877 0.26416,-3.23877 c -1.035807,0 -2.00513,0.19246 -2.90796,0.57739 -0.90283,0.38493 -1.69718,0.92033 -2.38306,1.6062 -0.68587,0.685877 -1.22127,1.487228 -1.6062,2.40406 -0.38493,0.91683 -0.57739,1.89314 -0.57739,2.92895 0,1.03581 0.19246,2.00513 0.57739,2.90796 0.38493,0.90283 0.92033,1.68319 1.6062,2.34107 0.68588,0.65784 1.48023,1.17924 2.38306,1.56424 0.90283,0.3849 1.872153,0.5774 2.90796,0.5774 m 0,-13.79448 c 0.85384,0 1.66919,0.16447 2.44605,0.49341 0.77685,0.32894 1.45222,0.787355 2.02612,1.375246 0.57389,0.58789 1.02531,1.270264 1.35425,2.047114 0.32893,0.77686 0.4934,1.60621 0.4934,2.48804 0,0.85384 -0.16447,1.66219 -0.4934,2.42505 C 5.76164,7.46574 5.31022,8.13411 4.73633,8.70801 4.16243,9.2819 3.48706,9.73332 2.71021,10.0623 1.93335,10.3912 1.118,10.5557 0.26416,10.5557 c -0.881836,0 -1.71118,-0.1645 -2.48804,-0.4934 C -3.00073,9.73332 -3.67611,9.2819 -4.25,8.70801 -4.82389,8.13411 -5.27531,7.46574 -5.60425,6.70288 -5.93319,5.94002 -6.09766,5.13167 -6.09766,4.27783 c 0,-0.88183 0.16447,-1.71118 0.49341,-2.48804 0.32894,-0.77685 0.78036,-1.459224 1.35425,-2.047114 0.57389,-0.587891 1.24927,-1.046306 2.02612,-1.375246 0.77686,-0.32894 1.606204,-0.49341 2.48804,-0.49341 m -1.28076,1.1128 c -0.05599,0.055986 -0.22046,0.213457 -0.49341,0.472409 -0.27295,0.258951 -0.62638,0.5144038 -1.0603,0.766357 0.02799,0.153971 0.02799,0.286947 0,0.398926 L -1.5415,1.65332 -0.848633,0.960449 -0.512695,1.31738 -1.20557,1.98926 0.26416,3.45898 C 0.488118,3.23503 0.722575,3.00757 0.967529,2.77661 1.21248,2.54565 1.48193,2.2832 1.77588,1.98926 L 0.999023,1.31738 1.41895,0.960449 2.02783,1.65332 3.05664,0.624512 C 3.02865,0.540527 3.01465,0.407552 3.01465,0.225586 2.60872,-0.0263672 2.27279,-0.28182 2.00684,-0.540771 1.74089,-0.799723 1.57292,-0.957194 1.50293,-1.01318 H -1.0166 m -3.88428,3.1914 c 0,0.96582 0.12948,1.86516 0.38843,2.698 0.25895,0.83285 0.59139,1.57821 0.99731,2.23608 0.16797,-0.16796 0.49691,-0.4899 0.98682,-0.96582 0.48991,-0.47591 1.26676,-1.22477 2.330566,-2.24658 L -1.62549,2.43018 -2.31836,3.12305 -2.73828,2.76611 -2.06641,2.09424 -3.09521,1.04443 c -0.22396,0.12598 -0.41993,0.09799 -0.5879,-0.083981 0,0 -0.01399,-0.027995 -0.04199,-0.083984 C -4.15902,1.08643 -4.55094,1.2054 -4.90088,1.2334 V 2.17822 M 0.432129,10.3877 C 0.950033,10.1777 1.48193,9.85929 2.02783,9.43237 2.57373,9.00545 3.09163,8.46305 3.58154,7.80518 2.82568,7.03532 2.1783,6.37044 1.6394,5.81055 1.1005,5.25065 0.628092,4.76774 0.222168,4.36182 -0.519694,5.15967 -1.62549,6.30745 -3.09521,7.80518 c 0.4899,0.65787 1.00781,1.20027 1.55371,1.62719 0.545895,0.42692 1.063798,0.74533 1.553707,0.95533 H 0.26416 0.432129 M 5.38721,1.2334 C 5.03727,1.2054 4.64535,1.08643 4.21143,0.876465 c 0,0.027995 -0.014,0.055989 -0.042,0.083984 C 4.02946,1.11442 3.8335,1.14242 3.58154,1.04443 L 2.55273,2.09424 3.22461,2.76611 2.88867,3.12305 2.11182,2.43018 0.705078,3.8999 C 1.78288,4.92171 2.55973,5.67757 3.03564,6.16748 3.51156,6.65739 3.8335,6.97233 4.00146,7.1123 4.40739,6.45443 4.73983,5.71606 4.99878,4.89722 5.25773,4.07837 5.38721,3.17204 5.38721,2.17822 V 1.2334"
         fill-rule="evenodd"
         vector-effect="none" />
    </g>
    <g
       id="g16"
       font-style="normal"
       font-weight="400"
       font-size="7.8px"
       font-family="'MS Shell Dlg 2'"
       stroke="none"
       fill-opacity="1"
       fill="#ec1d24" />
  </g>
</svg>
