<svg xmlns="http://www.w3.org/2000/svg" version="1.2" viewBox="0 0 42.52 42.52" height="56.693" width="56.693">
   <g stroke-linejoin="bevel" stroke-linecap="square" fill-rule="evenodd" stroke="none" fill="none" font-weight="400"
      font-size="7.8" font-family="'MS Shell Dlg 2'">
      <path
         d="M42.52 21.26C42.52 33 33 42.52 21.26 42.52 9.518 42.52 0 33 0 21.26 0 9.518 9.518 0 21.26 0 33 0 42.52 9.518 42.52 21.26"
         vector-effect="non-scaling-stroke" fill="#ec1d24" />
      <path
         d="M33.744 21.401c.448 0 .672.245.672.735a.765.765 0 01-.168.472c-.112.147-.28.22-.504.22a.58.58 0 01-.567-.356c-.406.238-.791.497-1.155.777-.322.266-.647.57-.976.913-.33.343-.592.76-.788 1.25-.21.447-.343.937-.399 1.47a9.475 9.475 0 00-.042 1.532c.028.546.084 1.092.168 1.638.154 0 .273.007.357.02.084.015.196.064.336.148.154.14.231.311.231.514a.668.668 0 01-.23.514c-.393.294-.736.294-1.03 0a.641.641 0 01-.167-.692 8.155 8.155 0 00-1.386-.294 6.527 6.527 0 00-1.302-.042 4.62 4.62 0 00-1.449.336c-.448.21-.882.493-1.301.85-.42.357-.784.71-1.092 1.06a20.3 20.3 0 00-1.092 1.323c.098.056.189.133.273.23a.56.56 0 01.126.379c0 .168-.08.322-.242.462-.16.14-.325.21-.493.21a.775.775 0 01-.556-.21c-.147-.14-.22-.294-.22-.462 0-.294.118-.497.356-.61a6.843 6.843 0 00-.735-1.196 7.011 7.011 0 00-.892-.976 4.24 4.24 0 00-1.228-.788 5.05 5.05 0 00-1.533-.398 9.774 9.774 0 00-1.554-.042c-.546.028-1.092.084-1.638.168a.641.641 0 01-.167.692.653.653 0 01-.473.21.653.653 0 01-.472-.21.588.588 0 01-.231-.514.78.78 0 01.23-.514.476.476 0 01.253-.147 2.31 2.31 0 01.357-.021c.14-.434.238-.882.294-1.344.056-.392.07-.826.042-1.302A4.215 4.215 0 0013.02 26a5.857 5.857 0 00-.83-1.343 9.209 9.209 0 00-1.04-1.092 14.16 14.16 0 00-1.28-1.092h-.084c-.112.238-.287.357-.525.357-.224 0-.392-.074-.504-.22a.766.766 0 01-.168-.473c0-.49.224-.735.672-.735.266 0 .47.133.61.4.405-.239.79-.512 1.154-.82.322-.266.64-.577.955-.934.315-.357.57-.766.767-1.228.21-.49.343-.998.399-1.523.056-.524.07-1.032.042-1.522a17.95 17.95 0 00-.168-1.68c-.21.085-.413.029-.61-.167-.167-.14-.251-.298-.251-.473s.084-.332.252-.472c.308-.322.623-.322.945 0 .195.196.251.392.167.588.434.154.896.259 1.386.315.392.056.833.07 1.323.042.49-.028.966-.147 1.428-.357a5.628 5.628 0 001.301-.809c.42-.343.784-.69 1.092-1.039.378-.392.728-.805 1.05-1.239a1.535 1.535 0 01-.252-.273.635.635 0 01-.105-.378c0-.168.074-.322.22-.462a.775.775 0 01.557-.21c.168 0 .332.07.493.21.161.14.242.294.242.462a.56.56 0 01-.126.378 2.513 2.513 0 01-.273.273c.21.434.469.82.777 1.155.266.322.577.64.934.955.357.315.78.557 1.27.725.462.21.956.343 1.48.399.526.056 1.033.07 1.523.042a13.042 13.042 0 001.638-.19c-.084-.195-.028-.391.167-.587.294-.294.637-.294 1.03 0 .321.308.321.623 0 .945a.641.641 0 01-.694.168c-.14.433-.238.895-.294 1.385-.056.392-.07.833-.042 1.323.028.49.14.966.336 1.428.21.448.494.882.85 1.302.358.42.711.783 1.061 1.091.392.378.819.742 1.28 1.092.085-.21.274-.315.568-.315m-12.22 8.126a7.337 7.337 0 002.908-.578 7.602 7.602 0 002.362-1.564 7.176 7.176 0 001.585-2.341 7.336 7.336 0 00.578-2.908 7.606 7.606 0 00-2.163-5.333 7.252 7.252 0 00-2.362-1.606 7.336 7.336 0 00-2.908-.578 7.336 7.336 0 00-2.908.578 7.494 7.494 0 00-2.383 1.606 7.489 7.489 0 00-2.184 5.333c0 1.036.193 2.005.578 2.908a7.02 7.02 0 001.606 2.341 7.867 7.867 0 002.383 1.564 7.337 7.337 0 002.908.578m0-13.795c.854 0 1.67.165 2.446.494a6.15 6.15 0 012.026 1.375 6.566 6.566 0 011.354 2.047c.33.777.494 1.606.494 2.488a6.06 6.06 0 01-.494 2.425 6.378 6.378 0 01-1.354 2.005 6.316 6.316 0 01-2.026 1.355 6.21 6.21 0 01-2.446.493 6.315 6.315 0 01-2.488-.493 6.316 6.316 0 01-2.026-1.355 6.378 6.378 0 01-1.354-2.005 6.06 6.06 0 01-.494-2.425c0-.882.165-1.711.494-2.488.329-.777.78-1.46 1.354-2.047a6.15 6.15 0 012.026-1.375 6.315 6.315 0 012.488-.494m-1.28 1.113c-.057.056-.221.214-.494.472a5.696 5.696 0 01-1.06.767.952.952 0 010 .399l1.028 1.029.693-.693.336.357-.693.671 1.47 1.47c.224-.224.458-.451.703-.682.245-.231.515-.494.809-.788l-.777-.671.42-.357.609.693 1.028-1.03a1.372 1.372 0 01-.042-.398 5.91 5.91 0 01-1.007-.767 10.264 10.264 0 00-.504-.472h-2.52m-3.884 3.191c0 .966.13 1.866.388 2.698.26.833.592 1.579.998 2.237.168-.168.497-.49.987-.966s1.266-1.225 2.33-2.247l-1.428-1.47-.693.693-.42-.357.672-.672-1.028-1.05c-.224.127-.42.099-.588-.083l-.042-.084c-.434.21-.826.329-1.176.357v.944m5.333 8.21c.518-.21 1.05-.528 1.596-.955a8.459 8.459 0 001.553-1.628c-.755-.77-1.403-1.434-1.942-1.994-.539-.56-1.011-1.043-1.417-1.449a192.54 192.54 0 01-3.317 3.443c.49.658 1.007 1.2 1.553 1.628.546.427 1.064.745 1.554.955H21.692m4.955-9.154c-.35-.028-.742-.147-1.176-.357 0 .028-.014.056-.042.084-.14.154-.336.182-.588.084l-1.028 1.05.671.671-.335.357-.777-.693-1.407 1.47a88.402 88.402 0 012.33 2.268c.476.49.798.805.966.945a9.86 9.86 0 00.998-2.216c.259-.818.388-1.725.388-2.719v-.944"
         fill-opacity=".949" fill="#fff" />
   </g>
</svg>