<svg xmlns="http://www.w3.org/2000/svg" version="1.2" viewBox="0 0 42.52 42.52" height="56.693" width="56.693">
   <g stroke-linejoin="bevel" stroke-linecap="square" fill-rule="evenodd" stroke="none" fill="none" font-weight="400"
      font-size="7.8" font-family="'MS Shell Dlg 2'">
      <path
         d="M42.52 21.26C42.52 33 33 42.52 21.26 42.52 9.518 42.52 0 33 0 21.26 0 9.518 9.518 0 21.26 0 33 0 42.52 9.518 42.52 21.26"
         vector-effect="non-scaling-stroke" fill="#ec1d24" />
      <path
         d="M20.957 26.041c-.056.14-.052.231.01.273.064.042.123.091.18.147-.099.154-.197.252-.295.294a3.082 3.082 0 00-.357.19l.315-.19c.07-.042.154-.14.252-.294-.154 0-.189-.14-.105-.42m-.86-.567c-.113-.545.076-.874.566-.986-.28.112-.458.234-.535.367-.077.133-.088.34-.032.62m.651-3.297c.056.14.203.21.441.21h-.042c.028.056.07.084.126.084.056 0 .112.028.168.084a.546.546 0 01-.325-.084.886.886 0 00-.242-.126c.182.056.273.182.273.378v.23c-.098-.125-.238-.174-.42-.146-.182.028-.3-.028-.357-.168a.532.532 0 00.315.063.38.38 0 01.273.063.285.285 0 00-.084-.21h.084a.285.285 0 00-.084-.21.658.658 0 01-.126-.168m1.113-4.22c.294-.084.476-.235.546-.452a.74.74 0 00-.063-.619c.14.14.175.34.105.598-.07.26-.266.417-.588.473m1.953-.168a.495.495 0 01-.22.44c-.148.099-.277.183-.39.253.057-.07.155-.154.295-.252.14-.098.21-.245.21-.441a.758.758 0 00-.126-.41 1.208 1.208 0 01-.168-.409c.028.056.063.112.105.168.042.056.09.112.147.168.028.14.06.241.094.304a.37.37 0 01.053.179m-2.667 0v-.126c.028-.056.07-.084.126-.084h.168c.028 0 .042.07.042.21h-.336m.714-.315c-.056-.112-.154-.168-.294-.168a.69.69 0 00-.21.042.69.69 0 01-.21.042v-.126c.028 0 .056-.014.084-.042.028-.028.07-.042.126-.042.112-.14.238-.21.378-.21.056 0 .108.042.157.126a.444.444 0 01.074.21c0 .056-.035.112-.105.168m-.42-.987c.056-.14.133-.16.231-.063.098.098.252.147.462.147a.79.79 0 00-.42.116c-.126.077-.217.01-.273-.2m1.365.735c.042.14.017.29-.074.451a1.889 1.889 0 01-.304.41.67.67 0 01-.43.252 3.253 3.253 0 01-.515.042c.406.07.745-.018 1.018-.263.273-.245.375-.542.305-.892m-.378 8.251c.14.154.203.315.189.483-.014.168.084.294.294.378-.238-.084-.364-.21-.378-.378a1.858 1.858 0 00-.105-.483m-1.28-3.212c.027 0 .062.014.104.042a.344.344 0 00.189.042.293.293 0 00-.126.021.292.292 0 01-.126.021c-.028-.028-.056-.042-.084-.042-.028 0-.077-.028-.147-.084.126 0 .19-.028.19-.084l.041.042v.042h-.042m2.184-3.401c-.056.14-.207.29-.452.451-.245.161-.423.27-.535.326.112-.112.27-.235.472-.368.203-.133.375-.27.515-.41m1.238 10.184v-.042c0 .028.014.042.042.042h-.042m-.63-15.768c0 .574.137 1.116.41 1.627a5.4 5.4 0 001.113 1.417 6.77 6.77 0 001.69 1.123 7.388 7.388 0 002.12.64v2.5c0 1.637-.244 3.1-.734 4.388-.49 1.287-1.106 2.404-1.848 3.348-.742.945-1.543 1.719-2.404 2.32-.86.602-1.683 1.036-2.467 1.302-.056.056-.112.084-.168.084H21.356c-.056 0-.112-.028-.168-.084-.784-.266-1.606-.7-2.467-1.302-.86-.601-1.662-1.375-2.404-2.32-.742-.944-1.358-2.06-1.848-3.348-.49-1.288-.735-2.75-.735-4.389v-2.498a7.388 7.388 0 002.121-.64 6.77 6.77 0 001.69-1.124c.47-.434.84-.906 1.113-1.417s.41-1.053.41-1.627c.237.056.496.098.776.126.238.028.5.049.788.063a17.45 17.45 0 001.68 0c.3-.014.57-.035.808-.063.28-.028.553-.07.819-.126m1.637 11.527c0 .084-.077.126-.23.126v-.21c0-.294-.085-.525-.253-.693-.168-.266-.44-.511-.819-.735-.377-.224-.566-.441-.566-.651v-.168a.424.424 0 01.273-.084v.084c0 .112.042.168.126.168.167 0 .251-.056.251-.168 0-.028-.056-.098-.167-.21h.21c.21-.21.21-.37 0-.483a.486.486 0 00.283-.252c.049-.112.01-.224-.116-.336.21-.154.287-.367.231-.64-.056-.273-.16-.48-.315-.62.084.322.07.581-.042.777a3.33 3.33 0 01-.461.61c-.14.195-.27.395-.389.598a1.247 1.247 0 00-.178.64c0 .112.035.227.105.346.07.12.133.235.189.347l.566.567c.056.056.137.126.242.21.105.084.185.154.241.21.14.196.21.357.21.483a.476.476 0 01-.126.315.445.445 0 01-.357.147c-.251 0-.398-.158-.44-.473-.042-.315-.12-.57-.231-.766a2.244 2.244 0 00-.746-.956c-.343-.259-.514-.528-.514-.808 0-.266.028-.44.084-.525v-.252c0 .196.052.36.157.494a.997.997 0 00.326.283 1.109 1.109 0 01-.021-.357c.014-.084.035-.16.063-.23.028-.07.049-.162.063-.274a2.416 2.416 0 00-.021-.525c.056.112.098.27.126.473.028.203.112.304.252.304.056-.14.09-.23.105-.273l.126-.378a.3.3 0 00-.01-.315c-.064-.098-.06-.217.01-.357 0 .392.126.616.378.672 0-.14.014-.266.042-.378.027-.112.041-.23.041-.357a.935.935 0 00-.083-.42c-.056-.111-.056-.286 0-.524 0 .378.028.58.083.608.14-.49.21-.79.21-.902v-.19c0-.041-.028-.132-.084-.272 0-.238-.07-.413-.21-.525.14.056.238.056.294 0-.112-.084-.196-.228-.251-.43a1.415 1.415 0 00-.252-.515c-.084-.196-.301-.427-.651-.693.056 0 .098-.014.126-.042.028 0 .042-.014.042-.042a.757.757 0 01-.336-.063 3.559 3.559 0 00-.357-.147.594.594 0 00-.168-.399c-.056 0-.091.039-.105.116a.37.37 0 01-.105.2c-.056 0-.084-.015-.084-.043 0-.028-.028-.014-.084.042-.112 0-.182.028-.21.084a.456.456 0 01-.19.168h-.188a.524.524 0 00-.231.042c-.112 0-.168.056-.168.168a3.398 3.398 0 00-.609.315c0 .112.028.168.084.168-.028.084 0 .168.084.252.028.056.07.112.126.168h.105v.042c0 .028.028.042.084.042l-.378.136a1.067 1.067 0 01-.357.053c-.294 0-.44-.105-.44-.315 0-.084.006-.147.02-.189a.346.346 0 00.021-.105c-.028 0-.07.028-.126.084-.056.056-.084.14-.084.252 0 .182.074.308.22.378.148.07.277.105.39.105.14 0 .258-.014.356-.042a4.07 4.07 0 01.378-.084l-.084.042h-.105c0 .112.035.196.105.252 0 .056-.035.098-.105.126 0 .028.014.042.042.042l.063-.042c0 .056.014.084.042.084.028 0 .056.028.084.084l.042-.042c.028 0 .049-.007.063-.021.014-.014.035-.021.063-.021-.112-.056-.168-.126-.168-.21.224.084.406.084.546 0 .056.112.049.203-.021.273a.59.59 0 01-.231.147c-.49-.028-.857.038-1.102.2-.245.16-.382.31-.41.45v.085a9.943 9.943 0 01-.399-.252 3.461 3.461 0 01-.378-.294v-.2a.272.272 0 00-.084-.2c0-.055-.035-.097-.105-.125a1.308 1.308 0 01-.272-.168.658.658 0 00-.126-.168 1.914 1.914 0 00-.179-.158.297.297 0 00-.178-.073l-.042.105c-.028 0-.056-.021-.084-.063a.186.186 0 01-.084-.021.186.186 0 00-.084-.021c-.028 0-.056.014-.084.042l-.042.063c-.028 0-.07-.021-.126-.063a.292.292 0 01-.126-.021.186.186 0 00-.084-.021c-.042 0-.077.031-.105.094a.396.396 0 00-.042.137c-.028 0-.07.028-.126.084l-.084.084v.084a.366.366 0 00-.105.189c-.014.07.02.133.105.189 0-.028.042-.084.126-.168l.084.084v.084h.987v.231c-.084.056-.126.154-.126.294.028 0 .042-.014.042-.042 0-.028.028-.042.084-.042.07.056.105.112.105.168v.084a.479.479 0 00-.074.346c.021.12-.031.207-.157.263.126.028.245-.014.357-.126a.92.92 0 00-.105.189c-.014.042-.056.09-.126.146.21.112.399.014.566-.293a1.507 1.507 0 01-.335.545c.084.056.182.056.294 0 .111-.056.167-.112.167-.168 0 .056-.014.13-.042.22a.892.892 0 00-.042.263c0 .028-.007.05-.02.063-.015.014-.022.035-.022.063v.042a.851.851 0 00-.398.473c-.07.203-.063.374.02.514.029.056.099.084.21.084a3.08 3.08 0 01.357-.189c.098-.042.182-.09.252-.147.028 0 .056-.014.084-.042.056-.056.112-.084.168-.084.056-.07.193-.175.41-.315a3.07 3.07 0 00.41-.294c-.057.056-.18.186-.368.389-.19.203-.34.318-.452.346-.056 0-.098.028-.126.084a.658.658 0 01-.126.168c-.07 0-.273.07-.608.21-.056.056-.137.05-.242-.02-.105-.07-.157-.092-.157-.064h-.084c-.084 0-.14.028-.168.084.028 0 .056.014.084.042.028.028.056.042.084.042a.232.232 0 00.042.231c.028.028.042.056.042.084 0 .084-.014.182-.042.294-.056.224-.07.35-.042.378v.105c-.028.028-.042.07-.042.126v.042h.042c0 .028.028.07.084.126l-.084.084c0 .028-.007.049-.021.063-.014.014-.021.035-.021.063v.042h.042c0 .028.028.07.084.126a.261.261 0 00-.084.189v.126-.042l.084-.042a.565.565 0 00.315-.116.372.372 0 00.168-.325c.055-.084.104-.154.146-.21.042-.056.035-.203-.02-.441.237-.14.42-.231.545-.273.126-.042.287-.091.483-.147h.126c0 .028.021.056.063.084 0 .028.014.042.042.042a.142.142 0 01-.105.042c.07.14.168.283.294.43.126.147.287.305.483.473a8.237 8.237 0 00-.44-.41 1.571 1.571 0 01-.379-.493.75.75 0 01-.189.063.75.75 0 00-.189.063c.112.21.256.364.43.462a7.7 7.7 0 00.536.273c.182.084.36.154.536.21.175.056.332.147.472.273a2.852 2.852 0 00-.693 0c.07.056.12.084.147.084.028 0 .056.028.084.084a2.574 2.574 0 00-1.04.357.887.887 0 00-.43.798c-.028.321.028.545.168.671s.21.26.21.4-.09.29-.273.45a4.786 4.786 0 00-.63.725.697.697 0 00-.273.063.697.697 0 01-.272.063l-.042-.042c-.028 0-.056-.014-.084-.042a.44.44 0 00-.179.042.396.396 0 01-.136.042h-.168c-.056 0-.105.042-.147.126a.507.507 0 00-.063.168v.084c-.084.084-.084.168 0 .252v-.042l.042-.042h.168c0 .154.028.23.084.23l.042-.062c0-.028.007-.042.02-.042.015 0 .022-.014.022-.042.028 0 .042.007.042.02 0 .015.028.008.084-.02a.28.28 0 00.105.23c0 .057.042.127.126.21v-.041l.084-.084c.167 0 .293-.105.377-.315h.084a.976.976 0 00.19.147.736.736 0 00.21.084c.055.056.083.098.083.126 0 .028.028.056.084.084.028-.056.056-.13.084-.22a.792.792 0 00.042-.221h.084c0-.084.014-.154.042-.21.028-.056.014-.112-.042-.168.112-.224.245-.35.4-.378.111.252.265.35.461.294a.261.261 0 01-.084-.189c0-.07-.028-.14-.084-.21.112.182.273.231.483.147-.126-.098-.189-.189-.189-.273.084.112.19.154.315.126-.126-.112-.164-.182-.115-.21.049-.028.01-.084-.116-.168.126-.084.245-.168.357-.252a.42.42 0 00.168-.357c-.028-.084-.084-.112-.168-.084-.084.028-.126 0-.126-.084-.028-.14-.007-.252.063-.336a.648.648 0 01.189-.168.655.655 0 01.367-.168c.133-.014.242-.02.326-.02.056.153.098.3.126.44.028.14.084.28.168.42.224.238.465.4.724.483.26.084.43.224.515.42.238.434.238.854 0 1.26-.056 0-.112.028-.168.084-.028.028-.056.042-.084.042h-.042c-.028 0-.056-.014-.084-.042a.637.637 0 00-.19.02.465.465 0 01-.146.022c0-.028-.05-.042-.147-.042-.14 0-.238.112-.294.336 0 .056.014.112.042.168h-.042c0 .07.014.14.042.21.028.07.084.133.168.189v-.357l.084-.042c0 .126.035.203.105.23l.084.169a.66.66 0 00.126.168v-.336c.112 0 .168-.014.168-.042 0 .056.042.126.126.21 0 .112.028.182.084.21.056-.028.084-.098.084-.21.028 0 .105-.056.23-.168.085.084.183.042.295-.126.195.14.321.182.377.126v.252a.669.669 0 00.158-.21.848.848 0 00.031-.273c0 .07.028.07.084 0v-.336c0-.14-.028-.28-.084-.42.056.056.14.077.252.063.112-.014.196-.084.252-.21a.522.522 0 01-.378-.168c.14.056.231.063.273.02l.19-.188c-.197 0-.35-.042-.463-.126.224.112.378.084.462-.084h-.21a1.018 1.018 0 01-.126-.147.141.141 0 00-.126-.063c0-.098.021-.245.063-.44.042-.197.007-.337-.105-.42-.126.251-.343.216-.65-.106v-.987a.285.285 0 00.21.084h.251a.846.846 0 00.336-.063.32.32 0 00.19-.23c.055 0 .083-.015.083-.043 0-.028.028-.07.084-.125a.2.2 0 01.063.188c-.014.07-.063.105-.147.105-.056.084-.028.144.084.179s.182.003.21-.095c.154-.14.14-.266-.042-.377.126.083.245.097.357.042.112-.056.168-.14.168-.252 0-.154-.035-.266-.105-.336-.07-.07-.21-.063-.42.02.098 0 .147.078.147.232M22.26 18.86c-.322.14-.588.304-.798.493-.21.189-.434.312-.672.368.294-.084.546-.228.756-.43.21-.204.448-.347.714-.431m-.819 2.792c-.112 0-.112-.056 0-.168 0 .084.028.154.084.21.028.028.042.056.042.084 0 .084-.042.158-.126.22a5.564 5.564 0 01-.252.18.344.344 0 01-.189-.043c-.028 0-.042-.014-.042-.042.07-.07.154-.147.252-.23.098-.085.175-.155.231-.21m-.252 3.736c.196-.251.483-.377.86-.377-.265 0-.552.126-.86.377m10.31-15.18c.321.238.496.515.524.83.028.315-.028.584-.168.808-.238.322-.602.44-1.092.357l-1.448 1.974 1.196.986-.462.651-1.427-1.008-.987 1.386c.714.35 1.519.61 2.414.777.308.112.462.329.462.65v2.625c0 2.086-.343 3.902-1.028 5.449-.686 1.547-1.533 2.866-2.541 3.958l1.197 1.511.105 1.323-1.26-.42-1.029-1.428a13.177 13.177 0 01-2.015 1.48 15.31 15.31 0 01-1.848.935 1.02 1.02 0 00-.242.042c-.105.028-.199.042-.283.042a.792.792 0 01-.252-.042.69.69 0 00-.21-.042 20.499 20.499 0 01-1.921-.934 10.435 10.435 0 01-2.047-1.48c-.168.237-.34.475-.515.713s-.36.476-.556.714l-1.197.42.042-1.323 1.239-1.511c-1.008-1.092-1.848-2.411-2.52-3.958-.671-1.547-1.007-3.363-1.007-5.449v-2.624c0-.182.049-.322.147-.42.098-.098.21-.175.336-.231.42-.084.825-.185 1.217-.304a5.565 5.565 0 001.05-.43l-1.029-1.429-1.28 1.008-.61-.65 1.323-.987-1.49-1.974c-.462.112-.84-.007-1.134-.357-.168-.224-.217-.493-.147-.808.07-.315.224-.592.462-.83.308-.196.62-.273.934-.23.315.041.55.181.704.42.224.307.252.692.084 1.154l1.49 1.974 1.218-1.071.588.735-1.323.987c.224.251.43.507.62.766.189.259.367.5.535.724.518-.364.91-.735 1.176-1.113.14-.223.273-.5.399-.829.126-.329.147-.696.063-1.102 0-.28.056-.483.168-.61.238-.111.399-.167.483-.167h.084l.986.084c.28.028.588.049.924.063a23.227 23.227 0 001.921 0c.343-.014.655-.035.935-.063l.986-.084h.084c.098 0 .182.014.252.042.07.028.147.07.231.126.056.084.098.171.126.262a1.2 1.2 0 01.042.347c-.084.406-.063.773.063 1.102.126.33.28.606.462.83.224.35.567.706 1.029 1.07.196-.224.388-.458.577-.703l.578-.745-1.365-.987.546-.735 1.344 1.07 1.448-1.973c-.252-.434-.252-.819 0-1.155.238-.238.515-.378.83-.42a.976.976 0 01.808.231m-1.638 7.412a9.118 9.118 0 01-2.225-.724 7.448 7.448 0 01-1.785-1.176 4.455 4.455 0 01-1.123-1.522 2.921 2.921 0 01-.2-1.743c-.335.056-.678.098-1.028.126a7.068 7.068 0 01-.977.105c-.343.014-.661.02-.955.02-.686 0-1.33-.041-1.932-.125-.35-.028-.693-.07-1.028-.126a2.921 2.921 0 01-.2 1.743 4.64 4.64 0 01-1.092 1.522c-.483.455-1.078.847-1.784 1.176a9.67 9.67 0 01-2.257.724v2.624c0 1.764.258 3.335.776 4.714.518 1.379 1.176 2.569 1.974 3.57.798 1 1.655 1.826 2.572 2.477.917.65 1.795 1.116 2.635 1.396.056.056.112.084.168.084h.336c.056 0 .112-.028.168-.084.812-.28 1.683-.745 2.614-1.396.93-.651 1.799-1.477 2.603-2.478.805-1 1.463-2.19 1.974-3.569.511-1.379.766-2.95.766-4.714v-2.624"
         fill-opacity=".949" fill="#fff" />
   </g>
</svg>