<?xml version="1.0" encoding="UTF-8" standalone="no"?>
<svg
   xmlns:dc="http://purl.org/dc/elements/1.1/"
   xmlns:cc="http://creativecommons.org/ns#"
   xmlns:rdf="http://www.w3.org/1999/02/22-rdf-syntax-ns#"
   xmlns:svg="http://www.w3.org/2000/svg"
   xmlns="http://www.w3.org/2000/svg"
   xmlns:sodipodi="http://sodipodi.sourceforge.net/DTD/sodipodi-0.dtd"
   xmlns:inkscape="http://www.inkscape.org/namespaces/inkscape"
   inkscape:version="1.0 (4035a4fb49, 2020-05-01)"
   sodipodi:docname="2408.svg"
   id="svg20"
   version="1.2"
   viewBox="0 0 42.519639 42.519639"
   height="14.999999mm"
   width="14.999999mm">
  <metadata
     id="metadata24">
    <rdf:RDF>
      <cc:Work
         rdf:about="">
        <dc:format>image/svg+xml</dc:format>
        <dc:type
           rdf:resource="http://purl.org/dc/dcmitype/StillImage" />
        <dc:title>Qt SVG Document</dc:title>
      </cc:Work>
    </rdf:RDF>
  </metadata>
  <sodipodi:namedview
     inkscape:current-layer="svg20"
     inkscape:window-maximized="0"
     inkscape:window-y="0"
     inkscape:window-x="0"
     inkscape:cy="28.346482"
     inkscape:cx="28.346482"
     inkscape:zoom="5.8410537"
     showgrid="false"
     id="namedview22"
     inkscape:window-height="480"
     inkscape:window-width="1034"
     inkscape:pageshadow="2"
     inkscape:pageopacity="0"
     guidetolerance="10"
     gridtolerance="10"
     objecttolerance="10"
     borderopacity="1"
     bordercolor="#666666"
     pagecolor="#ffffff" />
  <title
     id="title2">Qt SVG Document</title>
  <desc
     id="desc4">Generated with Qt</desc>
  <defs
     id="defs6" />
  <g
     transform="translate(5.25984,5.25984)"
     id="g18"
     stroke-linejoin="bevel"
     stroke-linecap="square"
     fill-rule="evenodd"
     stroke-width="1"
     stroke="#000000"
     fill="none">
    <g
       id="g10"
       font-style="normal"
       font-weight="400"
       font-size="7.8px"
       font-family="'MS Shell Dlg 2'"
       stroke="none"
       fill-opacity="1"
       fill="#ec1d24">
      <path
         id="path8"
         d="M 37.2598,16 C 37.2598,27.7415 27.7415,37.2598 16,37.2598 4.25851,37.2598 -5.25984,27.7415 -5.25984,16 -5.25984,4.25851 4.25851,-5.25984 16,-5.25984 27.7415,-5.25984 37.2598,4.25851 37.2598,16"
         fill-rule="evenodd"
         vector-effect="non-scaling-stroke" />
    </g>
    <g
       id="g14"
       font-style="normal"
       font-weight="400"
       font-size="7.8px"
       font-family="'MS Shell Dlg 2'"
       transform="translate(16,12.0315)"
       stroke="none"
       fill-opacity="0.94902"
       fill="#ffffff">
      <path
         id="path12"
         d="m -0.302734,8.75 c -0.05599,0.13997 -0.052491,0.23096 0.010498,0.27295 0.062988,0.04199 0.122477,0.09098 0.178466,0.14697 -0.097981,0.15397 -0.195963,0.25196 -0.293945,0.29395 -0.097982,0.04199 -0.216959,0.10498 -0.356933,0.18896 0.139974,-0.08398 0.244954,-0.14697 0.314941,-0.18896 0.069987,-0.04199 0.153971,-0.13998 0.251953,-0.29395 -0.153971,0 -0.188965,-0.13997 -0.10498,-0.41992 M -1.16357,8.18311 c -0.11198,-0.5459 0.07698,-0.87484 0.56689,-0.98682 -0.279948,0.11198 -0.45841,0.23446 -0.5354,0.36743 -0.07699,0.13298 -0.08748,0.33944 -0.03149,0.61939 m 0.650875,-3.29639 c 0.055989,0.13997 0.202962,0.20996 0.4409177,0.20996 H -0.11377 c 0.0279953,0.05599 0.0699874,0.08398 0.125977,0.08398 0.0559896,0 0.111979,0.028 0.167969,0.08399 -0.1399742,0 -0.248454,-0.028 -0.32544,-0.08399 -0.076985,-0.05599 -0.15747,-0.09798 -0.241455,-0.12597 0.181966,0.05599 0.272949,0.18196 0.272949,0.37793 V 5.66357 C -0.211751,5.5376 -0.351725,5.48861 -0.533691,5.5166 -0.715658,5.5446 -0.834635,5.48861 -0.890625,5.34863 c 0.111979,0.05599 0.21696,0.07699 0.314941,0.06299 0.097982,-0.014 0.188965,0.007 0.27295,0.06299 0,-0.08398 -0.027995,-0.15397 -0.083985,-0.20996 h 0.083985 c 0,-0.08399 -0.027995,-0.15397 -0.083985,-0.20996 C -0.442708,4.9987 -0.484701,4.94271 -0.512695,4.88672 M 0.600098,0.666504 C 0.894043,0.58252 1.07601,0.432048 1.146,0.215088 1.21598,-0.00187174 1.19499,-0.208333 1.08301,-0.404297 1.22298,-0.264323 1.25798,-0.06486 1.18799,0.194092 1.118,0.453044 0.922038,0.610514 0.600098,0.666504 M 2.55273,0.498535 c 0,0.195964 -0.07348,0.342936 -0.22045,0.440918 C 2.1853,1.03743 2.05583,1.12142 1.94385,1.19141 1.99984,1.12142 2.09782,1.03743 2.23779,0.939453 2.37777,0.841471 2.44775,0.694499 2.44775,0.498535 2.44775,0.358561 2.40576,0.222087 2.32178,0.0891113 2.23779,-0.0438639 2.1818,-0.180339 2.15381,-0.320313 c 0.02799,0.05599 0.06299,0.11198 0.10498,0.167969 0.04199,0.0559898 0.09098,0.1119794 0.14697,0.167969 0.028,0.139974 0.05949,0.241455 0.09448,0.304443 0.035,0.062989 0.05249,0.122478 0.05249,0.178467 m -2.6665,0 V 0.372559 c 0.0279953,-0.05599 0.0699874,-0.083985 0.125977,-0.083985 0.0559896,0 0.111979,0 0.167969,0 0.027995,0 0.041992,0.069987 0.041992,0.209961 H -0.11377 M 0.600098,0.183594 C 0.544108,0.0716146 0.446126,0.015625 0.306152,0.015625 0.250163,0.015625 0.180176,0.0296224 0.0961914,0.0576172 0.012207,0.085612 -0.0577799,0.0996094 -0.11377,0.0996094 v -0.1259766 c 0.0279953,0 0.0559901,-0.0139974 0.0839848,-0.0419922 0.02799484,-0.0279948 0.069987,-0.0419926 0.1259766,-0.0419926 0.1119796,-0.139974 0.2379556,-0.209961 0.3779296,-0.209961 0.05599,0 0.10848,0.041993 0.157471,0.125977 0.048991,0.083984 0.073486,0.1539714 0.073486,0.209961 0,0.0559896 -0.034993,0.111979 -0.10498,0.167969 M 0.180176,-0.803223 c 0.055989,-0.139974 0.132975,-0.16097 0.230957,-0.062988 0.097982,0.097982 0.251953,0.146973 0.461914,0.146973 -0.153971,0 -0.293945,0.038493 -0.419922,0.115478 -0.125977,0.076986 -0.21696,0.010498 -0.272949,-0.199463 M 1.54492,-0.0683594 C 1.58691,0.0716146 1.56242,0.222087 1.47144,0.383057 1.38045,0.544027 1.27897,0.680501 1.16699,0.79248 1.05501,0.932454 0.91154,1.01644 0.736572,1.04443 0.561605,1.07243 0.390137,1.08643 0.222168,1.08643 0.628092,1.15641 0.967529,1.06893 1.24048,0.823975 1.51343,0.57902 1.61491,0.281576 1.54492,-0.0683594 M 1.16699,8.18311 C 1.30697,8.33708 1.36995,8.49805 1.35596,8.66602 1.34196,8.83398 1.43994,8.95996 1.6499,9.04395 1.41195,8.95996 1.28597,8.83398 1.27197,8.66602 1.25798,8.49805 1.22298,8.33708 1.16699,8.18311 M -0.11377,4.9707 c 0.0279953,0 0.0629887,0.014 0.10498094,0.042 0.04199216,0.02799 0.10498046,0.04199 0.18896506,0.04199 -0.05599,0 -0.097982,0.007 -0.1259768,0.02099 -0.0279948,0.014 -0.069987,0.021 -0.1259765,0.021 -0.0279948,-0.028 -0.0559897,-0.04199 -0.0839847,-0.04199 -0.027995,0 -0.076985,-0.028 -0.146972,-0.08399 0.125976,0 0.188964,-0.02799 0.188964,-0.08398 l 0.0419927,0.04199 V 4.9707 H -0.11377 M 2.06982,1.56934 C 2.01383,1.70931 1.86336,1.85978 1.61841,2.02075 1.37345,2.18172 1.19499,2.2902 1.08301,2.34619 1.19499,2.23421 1.35246,2.11174 1.55542,1.97876 1.75838,1.84578 1.92985,1.70931 2.06982,1.56934 M 3.30859,11.7524 v -0.042 c 0,0.028 0.014,0.042 0.042,0.042 h -0.042 M 2.67871,-4.01563 c 0,0.5739 0.13648,1.1163 0.40942,1.6272 0.27295,0.51091 0.64388,0.98332 1.1128,1.417239 0.46891,0.433919 1.03231,0.808349 1.69018,1.123291 0.65788,0.314941 1.36475,0.528401 2.12061,0.64038 v 2.49854 c 0,1.63769 -0.24496,3.10042 -0.73486,4.38818 -0.48991,1.28776 -1.1058,2.4041 -1.84766,3.3489 -0.74186,0.9448 -1.54321,1.7182 -2.40405,2.32 -0.86084,0.6019 -1.68319,1.0359 -2.467045,1.3018 -0.055989,0.056 -0.111979,0.084 -0.167968,0.084 -0.05599,0 -0.111979,0 -0.167969,0 -0.027995,0 -0.069987,0 -0.1259766,0 -0.0559896,0 -0.1119792,-0.028 -0.1679687,-0.084 C -0.855632,14.384 -1.67798,13.95 -2.53882,13.3481 -3.39966,12.7463 -4.20101,11.9729 -4.94287,11.0281 -5.68473,10.0833 -6.30062,8.96696 -6.79053,7.6792 -7.28044,6.39144 -7.52539,4.92871 -7.52539,3.29102 V 0.79248 c 0.75586,-0.111979 1.46273,-0.325439 2.1206,-0.64038 0.65788,-0.314942 1.22128,-0.689372 1.69019,-1.123291 0.46891,-0.433919 0.83984,-0.906329 1.11279,-1.417239 0.27295,-0.5109 0.40943,-1.0533 0.40943,-1.6272 0.23795,0.05599 0.4969,0.09799 0.77685,0.12598 0.23796,0.028 0.50041,0.04899 0.787356,0.06299 0.286947,0.014 0.5703941,0.021 0.850342,0.021 0.251953,0 0.528402,-0.007 0.829342,-0.021 0.30095,-0.014 0.5704,-0.03499 0.80835,-0.06299 0.27995,-0.02799 0.5529,-0.06999 0.81885,-0.12598 m 1.6377,11.52686 c 0,0.08398 -0.07699,0.12598 -0.23096,0.12598 V 7.42725 C 4.08545,7.1333 4.00146,6.90234 3.8335,6.73438 3.66553,6.46842 3.39258,6.22347 3.01465,5.99951 2.63672,5.77555 2.44775,5.55859 2.44775,5.34863 V 5.18066 C 2.51774,5.12467 2.60872,5.09668 2.7207,5.09668 v 0.08398 c 0,0.11198 0.042,0.16797 0.12598,0.16797 0.16797,0 0.25195,-0.05599 0.25195,-0.16797 0,-0.02799 -0.05599,-0.09798 -0.16797,-0.20996 h 0.20997 c 0.20996,-0.20996 0.20996,-0.37093 0,-0.48291 C 3.2806,4.4318 3.37508,4.34782 3.42407,4.23584 3.47306,4.12386 3.43457,4.01188 3.30859,3.8999 3.51855,3.74593 3.59554,3.53247 3.53955,3.25952 3.48356,2.98657 3.37858,2.78011 3.22461,2.64014 3.30859,2.96208 3.2946,3.22103 3.18262,3.41699 3.07064,3.61296 2.91667,3.81592 2.7207,4.02588 2.58073,4.22184 2.45125,4.42131 2.33228,4.62427 2.2133,4.82723 2.15381,5.04069 2.15381,5.26465 c 0,0.11198 0.03499,0.22746 0.10498,0.34643 0.06999,0.11898 0.13297,0.23446 0.18896,0.34644 l 0.5669,0.56689 C 3.07064,6.5804 3.15112,6.65039 3.2561,6.73438 3.36108,6.81836 3.44157,6.88835 3.49756,6.94434 3.63753,7.1403 3.70752,7.30127 3.70752,7.42725 3.70752,7.53923 3.66553,7.64421 3.58154,7.74219 3.49756,7.84017 3.37858,7.88916 3.22461,7.88916 2.97266,7.88916 2.82568,7.73169 2.78369,7.41675 2.7417,7.10181 2.66471,6.84635 2.55273,6.65039 2.39876,6.27246 2.15031,5.95402 1.80737,5.69507 1.46444,5.43612 1.29297,5.16667 1.29297,4.88672 c 0,-0.26595 0.02799,-0.44092 0.08398,-0.5249 V 4.10986 c 0,0.19597 0.05249,0.36044 0.15747,0.49341 C 1.6394,4.73625 1.74788,4.83073 1.85986,4.88672 1.83187,4.73275 1.82487,4.61377 1.83887,4.52979 1.85286,4.4458 1.87386,4.36882 1.90186,4.29883 1.92985,4.22884 1.95085,4.13786 1.96484,4.02588 1.97884,3.9139 1.97184,3.73893 1.94385,3.50098 1.99984,3.61296 2.04183,3.77043 2.06982,3.97339 2.09782,4.17635 2.1818,4.27783 2.32178,4.27783 2.37777,4.13786 2.41276,4.04688 2.42676,4.00488 2.44076,3.96289 2.48275,3.83691 2.55273,3.62695 2.60872,3.51497 2.60522,3.40999 2.54224,3.31201 2.47925,3.21403 2.48275,3.09505 2.55273,2.95508 c 0,0.39193 0.12598,0.61588 0.37793,0.67187 0,-0.13997 0.014,-0.26595 0.042,-0.37793 0.02799,-0.11198 0.04199,-0.23095 0.04199,-0.35693 0,-0.16797 -0.028,-0.30794 -0.08399,-0.41992 -0.05599,-0.11198 -0.05599,-0.28695 0,-0.5249 0,0.37793 0.028,0.58089 0.08399,0.60888 0.13997,-0.48991 0.20996,-0.79085 0.20996,-0.90283 0,-0.08398 0,-0.14697 0,-0.18896 0,-0.042 -0.028,-0.13298 -0.08398,-0.27295 0,-0.237959 -0.06999,-0.412927 -0.20997,-0.524906 0.13998,0.055989 0.23796,0.055989 0.29395,0 C 3.11263,0.58252 3.02865,0.439046 2.97266,0.236084 2.91667,0.0331217 2.83268,-0.138346 2.7207,-0.27832 2.63672,-0.474284 2.41976,-0.705241 2.06982,-0.971191 c 0.05599,0 0.09799,-0.013998 0.12598,-0.041989 0.028,0 0.04199,-0.014 0.04199,-0.042 -0.13997,0 -0.25195,-0.02099 -0.33593,-0.06298 -0.08399,-0.042 -0.20297,-0.09099 -0.35694,-0.14698 0,-0.13997 -0.05599,-0.27295 -0.16797,-0.39892 -0.05599,0 -0.09098,0.03849 -0.10498,0.11548 -0.01399,0.07698 -0.04899,0.14347 -0.10498,0.19946 -0.05599,0 -0.08398,-0.014 -0.08398,-0.04199 0,-0.028 -0.028,-0.014 -0.083987,0.04199 -0.111979,0 -0.181966,0.02799 -0.20996,0.08398 -0.027995,0.05599 -0.090984,0.11198 -0.188965,0.16797 -0.027995,0 -0.090983,0 -0.188965,0 -0.097982,0 -0.174968,0.014 -0.230957,0.04199 -0.1119794,0 -0.167969,0.055994 -0.167969,0.167973 -0.26595,0.111979 -0.468913,0.21696 -0.608887,0.314941 0,0.11198 0.027995,0.167969 0.083985,0.167969 -0.027995,0.083984 0,0.167969 0.083984,0.251953 0.027995,0.0559898 0.069987,0.1119794 0.125977,0.167969 h 0.10498 v 0.0419922 c 0,0.0279948 0.027995,0.0419922 0.083984,0.0419922 -0.153971,0.0559896 -0.279947,0.1014806 -0.377929,0.1364746 -0.097982,0.034993 -0.21696,0.05249 -0.356934,0.05249 -0.293947,0 -0.440917,-0.10498 -0.440917,-0.3149412 0,-0.0839848 0.007,-0.1469728 0.021,-0.1889648 0.01399,-0.041992 0.02099,-0.076986 0.02099,-0.104981 -0.02799,0 -0.06999,0.027995 -0.12598,0.083985 -0.05598,0.055989 -0.08398,0.1399738 -0.08398,0.251953 0,0.181966 0.07349,0.307943 0.22046,0.37793 0.14697,0.069987 0.276448,0.10498 0.388427,0.10498 0.139974,0 0.258952,-0.013997 0.356934,-0.041992 0.097982,-0.027995 0.223958,-0.05599 0.377929,-0.083984 l -0.083984,0.041992 h -0.10498 c 0,0.111979 0.034993,0.195963 0.10498,0.251953 0,0.055989 -0.034993,0.097982 -0.10498,0.125976 0,0.027995 0.013997,0.041993 0.041992,0.041993 L -0.197754,0.79248 c 0,0.05599 0.013997,0.083985 0.041992,0.083985 0.027995,0 0.0559899,0.027995 0.0839847,0.083984 l 0.0419921,-0.041992 c 0.02799484,0 0.0489909,-0.006999 0.0629883,-0.020996 C 0.0472005,0.883464 0.0681966,0.876465 0.0961914,0.876465 -0.0157878,0.820475 -0.0717773,0.750488 -0.0717773,0.666504 0.152181,0.750488 0.334147,0.750488 0.474121,0.666504 0.530111,0.778483 0.523112,0.869466 0.453125,0.939453 0.383138,1.00944 0.306152,1.05843 0.222168,1.08643 -0.267741,1.05843 -0.635173,1.12492 -0.880127,1.28589 -1.12508,1.44686 -1.26156,1.59733 -1.28955,1.7373 V 1.82129 C -1.42952,1.7373 -1.5625,1.65332 -1.68848,1.56934 -1.81445,1.48535 -1.94043,1.38737 -2.06641,1.27539 c 0,-0.05599 0,-0.12248 0,-0.19946 0,-0.076988 -0.02799,-0.143476 -0.08398,-0.199465 0,-0.05599 -0.03499,-0.097982 -0.10498,-0.125977 C -2.32536,0.722493 -2.41634,0.666504 -2.52832,0.58252 -2.55632,0.52653 -2.59831,0.47054 -2.6543,0.414551 -2.71029,0.358561 -2.76978,0.306071 -2.83276,0.25708 -2.89575,0.208089 -2.95524,0.183594 -3.01123,0.183594 l -0.04199,0.10498 c -0.028,0 -0.05599,-0.020996 -0.08399,-0.062988 -0.02799,0 -0.05599,-0.006999 -0.08398,-0.020996 -0.028,-0.013998 -0.05599,-0.020996 -0.08399,-0.020996 -0.02799,0 -0.05599,0.013997 -0.08398,0.041992 l -0.04199,0.062988 c -0.028,0 -0.06999,-0.020996 -0.12598,-0.062988 -0.05599,0 -0.09798,-0.006999 -0.12598,-0.020996 C -3.7111,0.190592 -3.7391,0.183594 -3.76709,0.183594 c -0.04199,0 -0.07699,0.031494 -0.10498,0.094482 -0.028,0.062988 -0.04199,0.10848 -0.04199,0.136475 -0.028,0 -0.06999,0.027995 -0.12598,0.083984 L -4.12402,0.58252 v 0.083984 c -0.05599,0.055989 -0.09099,0.118978 -0.10498,0.188965 -0.014,0.069987 0.02099,0.132975 0.10498,0.188961 0,-0.02799 0.04199,-0.083981 0.12597,-0.167965 l 0.08399,0.083984 V 1.04443 h 0.08398 0.23096 0.08398 0.58789 V 1.2334 1.27539 c -0.08398,0.05599 -0.12597,0.15397 -0.12597,0.29395 0.02799,0 0.04199,-0.014 0.04199,-0.042 0,-0.02799 0.02799,-0.04199 0.08398,-0.04199 0.06999,0.05599 0.10498,0.11198 0.10498,0.16797 V 1.7373 c -0.06998,0.11198 -0.09448,0.22746 -0.07348,0.34644 0.02099,0.11898 -0.0315,0.20646 -0.15747,0.26245 0.12597,0.028 0.24495,-0.014 0.35693,-0.12598 -0.05599,0.08399 -0.09098,0.14698 -0.10498,0.18897 -0.014,0.04199 -0.05599,0.09098 -0.12598,0.14697 0.20996,0.11198 0.39893,0.014 0.5669,-0.29394 -0.08399,0.22396 -0.19597,0.40592 -0.33594,0.5459 0.08399,0.05599 0.18197,0.05599 0.29395,0 0.11198,-0.05599 0.16796,-0.11198 0.16796,-0.16797 0,0.05599 -0.01399,0.12947 -0.04199,0.22046 -0.02799,0.09098 -0.04199,0.17846 -0.04199,0.26245 0,0.02799 -0.007,0.04899 -0.021,0.06299 -0.01399,0.01399 -0.02099,0.03499 -0.02099,0.06298 v 0.042 c -0.19597,0.11197 -0.32894,0.26945 -0.39893,0.47241 -0.06998,0.20296 -0.06299,0.37443 0.021,0.5144 0.02799,0.05599 0.09798,0.08399 0.20996,0.08399 0.13997,-0.08399 0.25895,-0.14698 0.35693,-0.18897 0.09799,-0.04199 0.18197,-0.09098 0.25196,-0.14697 0.02799,0 0.05599,-0.014 0.08398,-0.04199 C -1.77946,3.9279 -1.72347,3.8999 -1.66748,3.8999 -1.61149,3.82992 -1.47502,3.72493 -1.25806,3.58496 -1.0411,3.44499 -0.904622,3.34701 -0.848633,3.29102 -0.904622,3.34701 -1.0271,3.47648 -1.21606,3.67944 -1.40503,3.88241 -1.5555,3.99788 -1.66748,4.02588 c -0.05599,0 -0.09798,0.02799 -0.12598,0.08398 -0.02799,0.05599 -0.06998,0.11198 -0.12597,0.16797 -0.06999,0 -0.27295,0.06999 -0.60889,0.20996 C -2.58431,4.54378 -2.66479,4.53678 -2.76978,4.4668 -2.87476,4.39681 -2.92725,4.37581 -2.92725,4.40381 h -0.08398 c -0.08398,0 -0.13997,0.02799 -0.16797,0.08398 0.028,0 0.05599,0.014 0.08399,0.042 0.02799,0.02799 0.05598,0.04199 0.08398,0.04199 -0.028,0.08398 -0.014,0.16097 0.04199,0.23095 0.028,0.028 0.04199,0.05599 0.04199,0.08399 0,0.08398 -0.01399,0.18196 -0.04199,0.29394 -0.05599,0.22396 -0.06999,0.34994 -0.04199,0.37793 v 0.10498 c -0.028,0.028 -0.04199,0.06999 -0.04199,0.12598 v 0.04199 c 0,0 0.01399,0 0.04199,0 0,0.028 0.02799,0.06999 0.08398,0.12598 L -3.01123,6.0415 c 0,0.028 -0.007,0.04899 -0.021,0.06299 -0.01399,0.014 -0.02099,0.035 -0.02099,0.06299 v 0.04199 h 0.04199 c 0,0.028 0.02799,0.06999 0.08398,0.12598 -0.05599,0.05599 -0.08398,0.11898 -0.08398,0.18896 V 6.65039 6.6084 c 0,0 0.02799,-0.014 0.08398,-0.04199 0.09799,0 0.20297,-0.0385 0.31495,-0.11548 0.11197,-0.07699 0.16796,-0.18547 0.16796,-0.32544 0.05599,-0.08399 0.10498,-0.15397 0.14698,-0.20996 0.04199,-0.05599 0.03499,-0.20296 -0.021,-0.44092 0.23796,-0.13997 0.41992,-0.23096 0.5459,-0.27295 0.12598,-0.04199 0.28695,-0.09098 0.48291,-0.14697 h 0.04199 0.04199 0.042 c 0,0.02799 0.02099,0.05599 0.06298,0.08398 0,0.028 0.014,0.04199 0.042,0.04199 -0.028,0.028 -0.06299,0.042 -0.10498,0.042 0.06998,0.13997 0.167965,0.28344 0.293941,0.43042 0.125977,0.14697 0.286947,0.30444 0.48291,0.47241 C -0.526693,5.98551 -0.673665,5.84904 -0.827637,5.71606 -0.981608,5.58309 -1.10758,5.41862 -1.20557,5.22266 c -0.05599,0.02799 -0.11897,0.04899 -0.18896,0.06298 -0.06999,0.014 -0.13298,0.035 -0.18897,0.06299 0.11198,0.20996 0.25546,0.36394 0.43042,0.46192 0.174971,0.09798 0.353438,0.18896 0.535404,0.27295 0.181966,0.08398 0.360433,0.15397 0.5354006,0.20996 0.1749675,0.05599 0.3324384,0.14697 0.4724124,0.27295 -0.195964,-0.028 -0.4269209,-0.028 -0.692871,0 0.069987,0.05599 0.118977,0.08398 0.146972,0.08398 0.027995,0 0.0559899,0.028 0.0839847,0.08399 C -0.477702,6.79036 -0.824137,6.90934 -1.11108,7.09131 -1.39803,7.27327 -1.5415,7.53923 -1.5415,7.88916 c -0.028,0.32194 0.02799,0.5459 0.16796,0.67188 0.13998,0.12597 0.20997,0.25895 0.20997,0.39892 0,0.13997 -0.09099,0.29045 -0.27295,0.45142 -0.18197,0.16097 -0.39193,0.40242 -0.62989,0.72432 -0.08398,0 -0.17496,0.021 -0.27295,0.063 -0.09798,0.042 -0.18896,0.063 -0.27294,0.063 l -0.042,-0.042 c -0.02799,0 -0.05599,-0.014 -0.08398,-0.042 -0.05599,0 -0.11548,0.014 -0.17847,0.042 -0.06299,0.028 -0.10848,0.042 -0.13647,0.042 h -0.16797 c -0.05599,0 -0.10498,0.042 -0.14697,0.126 -0.042,0.084 -0.06299,0.14 -0.06299,0.168 v 0.0839 c -0.08399,0.084 -0.08399,0.168 0,0.252 v -0.042 c 0,0 0.014,-0.014 0.04199,-0.042 h 0.16797 c 0,0.154 0.02799,0.231 0.08398,0.231 l 0.042,-0.063 c 0,-0.028 0.00699,-0.042 0.02099,-0.042 0.014,0 0.021,-0.014 0.021,-0.042 0.02799,0 0.04199,0.007 0.04199,0.021 0,0.014 0.02799,0.007 0.08398,-0.021 0,0.098 0.035,0.175 0.10498,0.231 0,0.0559 0.042,0.1259 0.12598,0.2099 v -0.042 l 0.08399,-0.084 c 0.16796,0 0.29394,-0.1049 0.37792,-0.3149 h 0.08399 c 0.05599,0.056 0.11898,0.105 0.18896,0.147 0.11198,0.056 0.18197,0.084 0.20997,0.084 0.05598,0.0559 0.08398,0.0979 0.08398,0.1259 0,0.028 0.02799,0.056 0.08398,0.084 0.028,-0.056 0.05599,-0.1295 0.08399,-0.2204 0.02799,-0.091 0.04199,-0.1645 0.04199,-0.2205 h 0.08398 c 0,-0.084 0.014,-0.154 0.042,-0.21 0.02799,-0.0559 0.01399,-0.1119 -0.042,-0.1679 0.11198,-0.224 0.24496,-0.35 0.398931,-0.378 0.111979,0.252 0.26595,0.35 0.461914,0.294 -0.05599,-0.056 -0.083985,-0.119 -0.083985,-0.189 0,-0.07 -0.027994,-0.14 -0.083984,-0.2099 0.111979,0.1819 0.272949,0.2309 0.48291,0.1469 C -0.32373,10.0798 -0.386719,9.98877 -0.386719,9.90479 -0.302734,10.0168 -0.197754,10.0588 -0.0717773,10.0308 -0.197754,9.91878 -0.236247,9.8488 -0.187256,9.8208 -0.138265,9.79281 -0.176758,9.73682 -0.302734,9.65283 -0.176758,9.56885 -0.0577799,9.48486 0.0541992,9.40088 0.166178,9.31689 0.222168,9.19792 0.222168,9.04395 0.194173,8.95996 0.138184,8.93197 0.0541992,8.95996 c -0.0839844,0.028 -0.1259765,0 -0.1259765,-0.08398 C -0.0997721,8.736 -0.078776,8.62402 -0.00878906,8.54004 0.0611979,8.45605 0.124186,8.40007 0.180176,8.37207 0.292155,8.27409 0.414632,8.2181 0.547607,8.2041 0.680583,8.1901 0.789063,8.18311 0.873047,8.18311 0.929036,8.33708 0.971029,8.48405 0.999023,8.62402 1.02702,8.764 1.08301,8.90397 1.16699,9.04395 1.39095,9.2819 1.63241,9.44287 1.89136,9.52686 c 0.25895,0.08398 0.43042,0.22395 0.5144,0.41992 0.23796,0.43392 0.23796,0.85382 0,1.25972 -0.05599,0 -0.11198,0.028 -0.16797,0.084 -0.02799,0.028 -0.05599,0.042 -0.08398,0.042 H 2.11182 c -0.028,0 -0.05599,-0.014 -0.08399,-0.042 -0.08398,0 -0.14697,0.007 -0.18896,0.021 -0.04199,0.014 -0.09099,0.021 -0.14698,0.021 0,-0.028 -0.04899,-0.042 -0.14697,-0.042 -0.13997,0 -0.23795,0.112 -0.29394,0.336 0,0.056 0.01399,0.1119 0.04199,0.1679 H 1.25098 c 0,0.07 0.01399,0.14 0.04199,0.21 0.02799,0.07 0.08398,0.133 0.16797,0.189 v -0.294 -0.063 c 0,0 0.02799,-0.014 0.08398,-0.042 0,0.126 0.035,0.203 0.10498,0.231 0.028,0.056 0.05599,0.112 0.08399,0.168 0.02799,0.0559 0.06998,0.1119 0.12597,0.1679 v -0.3359 c 0.11198,0 0.16797,-0.014 0.16797,-0.042 0,0.056 0.04199,0.126 0.12598,0.21 0,0.1119 0.02799,0.1819 0.08398,0.2099 0.05599,-0.028 0.08399,-0.098 0.08399,-0.2099 0.02799,0 0.10498,-0.056 0.23095,-0.168 0.08399,0.084 0.18197,0.042 0.29395,-0.126 0.19596,0.14 0.32194,0.182 0.37793,0.126 v 0.2519 c 0.08398,-0.0839 0.13647,-0.1539 0.15747,-0.2099 0.021,-0.056 0.03149,-0.147 0.03149,-0.273 0,0.07 0.028,0.07 0.08399,0 0,-0.084 0,-0.1959 0,-0.3359 0,-0.14 -0.028,-0.28 -0.08399,-0.4199 0.05599,0.056 0.13998,0.077 0.25196,0.063 0.11198,-0.014 0.19596,-0.084 0.25195,-0.21 -0.13997,0 -0.26595,-0.056 -0.37793,-0.168 0.13997,0.056 0.23096,0.063 0.27295,0.021 0.04199,-0.042 0.10498,-0.105 0.18896,-0.1889 -0.19596,0 -0.34993,-0.042 -0.46191,-0.126 0.22396,0.112 0.37793,0.084 0.46191,-0.084 H 3.7915 c -0.05599,-0.056 -0.09798,-0.105 -0.12597,-0.147 -0.028,-0.042 -0.06999,-0.063 -0.12598,-0.063 0,-0.0979 0.021,-0.24491 0.06299,-0.44088 C 3.64453,9.49886 3.60954,9.35889 3.49756,9.2749 3.37158,9.52686 3.15462,9.49186 2.84668,9.16992 V 8.18311 c 0.05599,0.05599 0.12598,0.08398 0.20996,0.08398 0.08399,0 0.16797,0 0.25195,0 0.12598,0 0.23796,-0.021 0.33594,-0.06299 C 3.74251,8.16211 3.8055,8.08512 3.8335,7.97314 c 0.05599,0 0.08398,-0.01399 0.08398,-0.04199 0,-0.02799 0.028,-0.06998 0.08398,-0.12597 C 4.05745,7.86117 4.07845,7.92415 4.06445,7.99414 4.05046,8.06413 4.00146,8.09912 3.91748,8.09912 3.86149,8.18311 3.88949,8.24259 4.00146,8.27759 4.11344,8.31258 4.18343,8.28109 4.21143,8.18311 4.3654,8.04313 4.3514,7.91715 4.16943,7.80518 4.29541,7.88916 4.41439,7.90316 4.52637,7.84717 4.63835,7.79118 4.69434,7.70719 4.69434,7.59521 4.69434,7.44124 4.65934,7.32926 4.58936,7.25928 4.51937,7.18929 4.37939,7.19629 4.16943,7.28027 c 0.09799,0 0.14698,0.07699 0.14698,0.23096 M 0.999023,1.56934 C 0.677083,1.70931 0.411133,1.87378 0.201172,2.06274 -0.00878906,2.25171 -0.232747,2.37419 -0.470703,2.43018 -0.176758,2.34619 0.0751953,2.20272 0.285156,1.99976 0.495117,1.79679 0.733073,1.65332 0.999023,1.56934 M 0.180176,4.36182 c -0.1119794,0 -0.1119794,-0.05599 0,-0.16797 0,0.08398 0.027995,0.15397 0.083984,0.20996 0.027995,0.02799 0.041992,0.05599 0.041992,0.08398 0,0.08399 -0.041992,0.15747 -0.125976,0.22046 -0.0839846,0.06299 -0.167969,0.12248 -0.2519533,0.17847 -0.0839847,0 -0.1469727,-0.014 -0.1889647,-0.04199 -0.027995,0 -0.041992,-0.014 -0.041992,-0.042 C -0.232747,4.73275 -0.148763,4.65576 -0.0507813,4.57178 0.0472005,4.48779 0.124186,4.41781 0.180176,4.36182 m -0.2519533,3.7373 C 0.124186,7.84717 0.411133,7.72119 0.789063,7.72119 c -0.265951,0 -0.552898,0.12598 -0.8608403,0.37793 M 10.2373,-7.08105 c 0.3219,0.23795 0.4969,0.5144 0.5249,0.82934 0.028,0.31494 -0.028,0.58439 -0.168,0.80835 -0.2379,0.32194 -0.60185,0.44092 -1.09176,0.35693 L 8.05371,-3.11279 9.25049,-2.12598 8.78857,-1.4751 7.36084,-2.48291 6.37402,-1.09717 c 0.71387,0.349937 1.51872,0.608889 2.41455,0.776857 0.30795,0.11198 0.46192,0.3289393 0.46192,0.650879 V 2.95508 c 0,2.08561 -0.34294,3.90177 -1.02881,5.44848 C 7.53581,9.95028 6.68896,11.2695 5.68115,12.3613 l 1.19678,1.5117 0.10498,1.3228 -1.25977,-0.4199 -1.0288,-1.4278 c -0.68588,0.6019 -1.35775,1.0953 -2.01563,1.4803 -0.65788,0.3849 -1.27376,0.6963 -1.847655,0.9343 -0.05599,0 -0.136475,0.014 -0.241455,0.042 -0.104981,0.028 -0.199463,0.042 -0.283448,0.042 -0.083984,0 -0.167968,-0.014 -0.2519528,-0.042 -0.0839844,-0.028 -0.1539713,-0.042 -0.2099612,-0.042 -0.573893,-0.238 -1.214278,-0.5494 -1.921138,-0.9343 -0.70687,-0.385 -1.38925,-0.8784 -2.04712,-1.4803 -0.16797,0.238 -0.33944,0.476 -0.51441,0.7139 -0.17497,0.238 -0.36043,0.4759 -0.55639,0.7139 l -1.19678,0.4199 0.04199,-1.3228 1.23877,-1.5117 C -6.11865,11.2695 -6.9585,9.95028 -7.63037,8.40356 -8.30225,6.85685 -8.63818,5.04069 -8.63818,2.95508 V 0.330566 c 0,-0.181966 0.04899,-0.3219397 0.14697,-0.4199215 0.09798,-0.0979815 0.20996,-0.1749675 0.33594,-0.2309575 0.41992,-0.083984 0.82584,-0.185465 1.21777,-0.304443 0.39193,-0.118978 0.74186,-0.262451 1.0498,-0.430424 l -1.0288,-1.42773 -1.28077,1.00781 -0.60888,-0.65088 1.32275,-0.98681 -1.49072,-1.97364 c -0.46192,0.11198 -0.83984,-0.00699 -1.13378,-0.35693 -0.168,-0.22396 -0.217,-0.49341 -0.147,-0.80835 0.07,-0.31494 0.224,-0.59139 0.46193,-0.82934 0.30794,-0.19597 0.61939,-0.27295 0.93433,-0.23096 0.31494,0.04199 0.5494,0.18196 0.70337,0.41992 0.22395,0.30794 0.25195,0.69287 0.08398,1.15479 l 1.49072,1.97363 1.21778,-1.0708 0.58789,0.73486 -1.32276,0.98682 c 0.22396,0.25195 0.43042,0.5074 0.61939,0.76635 0.18896,0.25896 0.36743,0.50041 0.5354,0.72437 0.5179,-0.36393 0.90983,-0.73486 1.17578,-1.11279 0.13997,-0.22396 0.27295,-0.50041 0.39893,-0.82935 0.12597,-0.32894 0.14697,-0.69637 0.06298,-1.10229 0,-0.27995 0.05599,-0.48291 0.16797,-0.60889 0.23796,-0.11198 0.39893,-0.16797 0.48291,-0.16797 h 0.08399 c 0.33593,0.028 0.66487,0.05599 0.98681,0.08398 0.27995,0.028 0.587895,0.049 0.923832,0.06299 0.335938,0.014 0.65787764,0.021 0.96582,0.021 0.293946,0 0.612386,-0.007 0.955318,-0.021 0.34294,-0.01399 0.65438,-0.03499 0.93433,-0.06299 0.32194,-0.02799 0.65088,-0.05598 0.98682,-0.08398 H 3.2666 c 0.09798,0 0.18197,0.014 0.25195,0.04199 0.06999,0.028 0.14698,0.06999 0.23096,0.12598 0.05599,0.08398 0.09798,0.17147 0.12598,0.26245 0.02799,0.09098 0.04199,0.20646 0.04199,0.34644 -0.08398,0.40592 -0.06299,0.77335 0.06299,1.10229 0.12598,0.32894 0.27995,0.60539 0.46191,0.82935 0.22396,0.34993 0.5669,0.70687 1.02881,1.0708 0.19596,-0.22396 0.38843,-0.45842 0.57739,-0.70337 0.18897,-0.24496 0.38143,-0.49341 0.5774,-0.74536 l -1.36475,-0.98682 0.5459,-0.73486 1.34375,1.0708 1.44873,-1.97363 c -0.25195,-0.43392 -0.25195,-0.81885 0,-1.15479 0.23796,-0.23796 0.5144,-0.37793 0.82935,-0.41992 0.31494,-0.04199 0.58434,0.03499 0.80834,0.23096 M 8.59961,0.330566 C 7.80176,0.176595 7.0599,-0.06486 6.37402,-0.393799 5.68815,-0.722738 5.09326,-1.11466 4.58936,-1.56958 4.08545,-2.0245 3.71102,-2.5319 3.46606,-3.0918 3.22111,-3.65169 3.15462,-4.23258 3.2666,-4.83447 2.93066,-4.77848 2.58773,-4.73649 2.23779,-4.7085 c -0.30794,0.05599 -0.63338,0.09099 -0.97632,0.10498 -0.342932,0.014 -0.661372,0.021 -0.955318,0.021 -0.685872,0 -1.329752,-0.04199 -1.931642,-0.12598 -0.34993,-0.02799 -0.69287,-0.06998 -1.02881,-0.12597 0.11198,0.60189 0.04549,1.18278 -0.19946,1.74267 -0.24495,0.5599 -0.60889,1.0673 -1.0918,1.52222 -0.48291,0.45492 -1.0778,0.846842 -1.78466,1.175781 -0.70687,0.328939 -1.45923,0.570394 -2.25708,0.724365 V 2.95508 c 0,1.76367 0.25895,3.33488 0.77685,4.71362 0.5179,1.37874 1.17578,2.5685 1.97363,3.5693 0.79786,1.0009 1.6552,1.8267 2.57203,2.4776 0.91682,0.6509 1.795161,1.1163 2.6350048,1.3962 0.0559896,0.056 0.1119792,0.084 0.1679692,0.084 0.055989,0 0.111979,0 0.167968,0 0.05599,0 0.11198,0 0.167969,0 0.05599,0 0.111979,-0.028 0.167969,-0.084 C 1.45394,14.8319 2.32528,14.3665 3.2561,13.7156 4.18693,13.0647 5.05477,12.2389 5.85962,11.238 6.66447,10.2372 7.32235,9.04744 7.83325,7.6687 8.34416,6.28996 8.59961,4.71875 8.59961,2.95508 V 0.330566"
         fill-rule="evenodd"
         vector-effect="none" />
    </g>
    <g
       id="g16"
       font-style="normal"
       font-weight="400"
       font-size="7.8px"
       font-family="'MS Shell Dlg 2'"
       stroke="none"
       fill-opacity="1"
       fill="#ec1d24" />
  </g>
</svg>
