<?xml version="1.0" encoding="UTF-8" standalone="no"?>
<svg
   xmlns:dc="http://purl.org/dc/elements/1.1/"
   xmlns:cc="http://creativecommons.org/ns#"
   xmlns:rdf="http://www.w3.org/1999/02/22-rdf-syntax-ns#"
   xmlns:svg="http://www.w3.org/2000/svg"
   xmlns="http://www.w3.org/2000/svg"
   xmlns:sodipodi="http://sodipodi.sourceforge.net/DTD/sodipodi-0.dtd"
   xmlns:inkscape="http://www.inkscape.org/namespaces/inkscape"
   inkscape:version="1.0 (4035a4fb49, 2020-05-01)"
   sodipodi:docname="2409.svg"
   id="svg20"
   version="1.2"
   viewBox="0 0 42.519639 42.519639"
   height="14.999999mm"
   width="14.999999mm">
  <metadata
     id="metadata24">
    <rdf:RDF>
      <cc:Work
         rdf:about="">
        <dc:format>image/svg+xml</dc:format>
        <dc:type
           rdf:resource="http://purl.org/dc/dcmitype/StillImage" />
        <dc:title>Qt SVG Document</dc:title>
      </cc:Work>
    </rdf:RDF>
  </metadata>
  <sodipodi:namedview
     inkscape:current-layer="svg20"
     inkscape:window-maximized="0"
     inkscape:window-y="0"
     inkscape:window-x="0"
     inkscape:cy="28.346482"
     inkscape:cx="28.346482"
     inkscape:zoom="5.8410537"
     showgrid="false"
     id="namedview22"
     inkscape:window-height="480"
     inkscape:window-width="1034"
     inkscape:pageshadow="2"
     inkscape:pageopacity="0"
     guidetolerance="10"
     gridtolerance="10"
     objecttolerance="10"
     borderopacity="1"
     bordercolor="#666666"
     pagecolor="#ffffff" />
  <title
     id="title2">Qt SVG Document</title>
  <desc
     id="desc4">Generated with Qt</desc>
  <defs
     id="defs6" />
  <g
     transform="translate(5.25984,5.25984)"
     id="g18"
     stroke-linejoin="bevel"
     stroke-linecap="square"
     fill-rule="evenodd"
     stroke-width="1"
     stroke="#000000"
     fill="none">
    <g
       id="g10"
       font-style="normal"
       font-weight="400"
       font-size="7.8px"
       font-family="'MS Shell Dlg 2'"
       stroke="none"
       fill-opacity="1"
       fill="#ec1d24">
      <path
         id="path8"
         d="M 37.2598,16 C 37.2598,27.7415 27.7415,37.2598 16,37.2598 4.25851,37.2598 -5.25984,27.7415 -5.25984,16 -5.25984,4.25851 4.25851,-5.25984 16,-5.25984 27.7415,-5.25984 37.2598,4.25851 37.2598,16"
         fill-rule="evenodd"
         vector-effect="non-scaling-stroke" />
    </g>
    <g
       id="g14"
       font-style="normal"
       font-weight="400"
       font-size="7.8px"
       font-family="'MS Shell Dlg 2'"
       transform="translate(16,11.4646)"
       stroke="none"
       fill-opacity="0.94902"
       fill="#ffffff">
      <path
         id="path12"
         d="m -13.3413,-5.88428 c 0.028,0 0.112,-0.0035 0.2519,-0.0105 0.14,-0.00699 0.392,-0.01049 0.7559,-0.01049 0.3639,0 0.8573,-0.0035 1.4802,-0.0105 0.6229,-0.007 1.42776,-0.0105 2.41458,-0.0105 0.98682,0 2.17659,0 3.56934,0 1.39274,0 3.04093,0 4.9445753,0 1.9596347,0 3.6533247,0 5.0810547,0 1.42773,0 2.63501,0 3.62183,0 0.98681,0 1.78462,0 2.39352,0 0.6089,0 1.0848,0.0035 1.4278,0.0105 0.3429,0.007 0.5774,0.014 0.7033,0.02099 0.126,0.007 0.203,0.0105 0.231,0.0105 0.028,0.014 0.0735,0.028 0.1365,0.04199 0.063,0.014 0.1084,0.035 0.1364,0.06299 0.112,0.042 0.2205,0.12248 0.3255,0.24146 0.105,0.11898 0.1784,0.22046 0.2204,0.30444 0.07,0.13998 0.1155,0.26945 0.1365,0.38843 0.021,0.11898 0.0315,0.34643 0.0315,0.68237 v 0.65088 H 13.6597 12.7778 V 5.22266 13.957 h 0.8819 0.8608 v 0.6509 c 0,0.3359 -0.0105,0.5634 -0.0315,0.6824 -0.021,0.119 -0.0665,0.2484 -0.1365,0.3884 -0.042,0.084 -0.1154,0.1855 -0.2204,0.3045 -0.105,0.1189 -0.2135,0.1994 -0.3255,0.2414 -0.042,0.028 -0.0909,0.049 -0.1469,0.063 -0.056,0.014 -0.098,0.028 -0.126,0.042 -0.028,0 -0.105,0.0035 -0.231,0.0105 -0.1259,0.007 -0.3604,0.014 -0.7033,0.021 -0.343,0.007 -0.8189,0.0105 -1.4278,0.0105 -0.6089,0 -1.40671,0 -2.39352,0 -0.98682,0 -2.1906,0 -3.61133,0 -1.42074,0 -3.11092,0 -5.0705586,0 -1.9596314,0 -3.6498214,0 -5.0705614,0 -1.42073,0 -2.62451,0 -3.61132,0 -0.98682,0 -1.78471,0 -2.39351,0 -0.6089,0 -1.0848,-0.0035 -1.4278,-0.0105 -0.3429,-0.007 -0.5774,-0.0105 -0.7034,-0.0105 -0.1259,0 -0.2029,-0.007 -0.2309,-0.021 -0.084,-0.014 -0.175,-0.049 -0.273,-0.105 -0.1119,-0.042 -0.2204,-0.1225 -0.3254,-0.2414 -0.105,-0.119 -0.1785,-0.2205 -0.2205,-0.3045 -0.0699,-0.14 -0.1154,-0.2694 -0.1364,-0.3884 -0.021,-0.119 -0.0315,-0.3465 -0.0315,-0.6824 V 13.957 h 0.8608 0.8819 V 5.22266 -3.51172 h -0.8819 -0.8608 V -4.1626 c 0,-0.33594 0.0105,-0.56339 0.0315,-0.68237 0.021,-0.11898 0.0665,-0.24845 0.1364,-0.38843 0.042,-0.09798 0.1155,-0.20296 0.2205,-0.31494 0.105,-0.11198 0.2135,-0.18896 0.3254,-0.23096 0.098,-0.04199 0.189,-0.07698 0.273,-0.10498 m 6.61376,2.37256 h -1.93164 -1.97362 c 0,0 -0.0035,0.23096 -0.0105,0.69287 -0.007,0.46192 -0.0105,1.0918 -0.0105,1.889651 0,0.797851 0,1.725179 0,2.781979 0,1.05681 0,2.1871 0,3.39087 l 0.021,8.71335 h 0.9868 1.00782 v -1.4277 c 0,-0.5879 0,-0.9868 0,-1.1968 0,-0.2099 0.01399,-0.3499 0.04199,-0.4199 0.16797,-0.8678 0.48291,-1.6167 0.94482,-2.24658 0.11198,-0.15398 0.23796,-0.31145 0.37793,-0.47242 0.13998,-0.16097 0.26595,-0.28344 0.37793,-0.36743 L -6.72754,7.6792 V 2.07324 -3.51172 m 5.857911,0 H -2.82227 -4.7959 v 5.12305 c 0,1.0778 0,1.94564 0,2.60351 0,0.65788 0.0035,1.17229 0.0105,1.54322 0.007,0.37093 0.014,0.61938 0.021,0.74536 0.00699,0.12597 0.01049,0.18896 0.01049,0.18896 L -4.54395,6.65039 C -4.43197,6.6224 -4.33049,6.6014 -4.2395,6.5874 c 0.09098,-0.014 0.20296,-0.02449 0.33594,-0.03149 0.13297,-0.007 0.31494,-0.014 0.54589,-0.021 0.23096,-0.007 0.5424,-0.0105 0.93433,-0.0105 L -0.869629,6.50342 V 6.29346 6.10449 L -0.974609,6.0835 C -1.10059,6.0415 -1.24406,5.99251 -1.40503,5.93652 -1.566,5.88053 -1.70947,5.81755 -1.83545,5.74756 -2.42334,5.46761 -2.93075,5.07218 -3.35767,4.56128 -3.78459,4.05037 -4.08203,3.47998 -4.25,2.8501 -4.30599,2.62614 -4.34098,2.44417 -4.35498,2.3042 c -0.014,-0.13997 -0.021,-0.33594 -0.021,-0.58789 0,-0.26595 0.007,-0.46541 0.021,-0.59839 0.014,-0.132975 0.04899,-0.318441 0.10498,-0.556397 0.02799,-0.139974 0.08398,-0.297444 0.16797,-0.4724117 0.08398,-0.1749674 0.16097,-0.3324383 0.23096,-0.4724123 0.29394,-0.573893 0.68937,-1.053299 1.18628,-1.438229 0.4969,-0.38493 1.0603,-0.66138 1.690181,-0.82935 l 0.10498,-0.021 V -3.0918 -3.51172 m 5.857909,0 H 3.03564 1.06201 v 0.41992 0.41992 l 0.10498,0.021 c 0.39193,0.09798 0.76636,0.24845 1.12329,0.45142 0.35694,0.20296 0.67538,0.44441 0.95533,0.72436 0.36393,0.34994 0.64388,0.724368 0.83984,1.123293 0.19596,0.3989261 0.34294,0.850342 0.44092,1.354247 0.02799,0.08399 0.04199,0.17497 0.04199,0.27295 0,0.09798 0,0.24496 0,0.44092 0,0.19596 0,0.33944 0,0.43042 0,0.09098 -0.014,0.18546 -0.04199,0.28345 C 4.42839,2.92008 4.28491,3.361 4.09595,3.75293 3.90698,4.14486 3.63753,4.51579 3.2876,4.86572 2.69971,5.45361 1.99284,5.85254 1.16699,6.0625 L 1.06201,6.10449 v 0.18897 0.20996 l 1.55371,0.02099 c 0.39193,0 0.70337,0.0035 0.93433,0.0105 0.23096,0.007 0.41292,0.014 0.5459,0.021 0.13297,0.007 0.24495,0.01749 0.33593,0.03149 0.09099,0.014 0.19247,0.035 0.30445,0.06299 l 0.20996,0.04199 c 0,0 0.0035,-0.06299 0.0105,-0.18896 0.007,-0.12598 0.01399,-0.37443 0.02099,-0.74536 0.007,-0.37093 0.0105,-0.88884 0.0105,-1.55371 0,-0.66488 0,-1.53622 0,-2.61402 v -5.10205 m 5.83692,0 H 8.87256 6.91992 V 2.07324 7.6792 l 0.18897,0.14697 c 0.18196,0.15397 0.36743,0.35344 0.55639,0.59839 0.18897,0.24495 0.36044,0.48641 0.51441,0.72437 0.13997,0.26595 0.25895,0.5319 0.35693,0.79785 0.09798,0.26592 0.17497,0.57392 0.23096,0.92382 0.014,0.056 0.02449,0.112 0.03149,0.168 0.007,0.056 0.014,0.1399 0.021,0.2519 0.007,0.112 0.0105,0.266 0.0105,0.4619 0,0.196 0,0.462 0,0.7979 V 13.957 H 9.83838 10.8252 V 5.22266 -3.51172"
         fill-rule="evenodd"
         vector-effect="none" />
    </g>
    <g
       id="g16"
       font-style="normal"
       font-weight="400"
       font-size="7.8px"
       font-family="'MS Shell Dlg 2'"
       stroke="none"
       fill-opacity="1"
       fill="#ec1d24" />
  </g>
</svg>
