<svg xmlns="http://www.w3.org/2000/svg" version="1.2" viewBox="0 0 42.52 42.52" height="56.693" width="56.693">
   <g stroke-linejoin="bevel" stroke-linecap="square" fill-rule="evenodd" stroke="none" fill="none" font-weight="400"
      font-size="7.8" font-family="'MS Shell Dlg 2'">
      <path
         d="M42.52 21.26C42.52 33 33 42.52 21.26 42.52 9.518 42.52 0 33 0 21.26 0 9.518 9.518 0 21.26 0 33 0 42.52 9.518 42.52 21.26"
         vector-effect="non-scaling-stroke" fill="#ec1d24" />
      <path
         d="M7.919 10.84a17.94 17.94 0 011.008-.021c.363 0 .857-.003 1.48-.01.622-.007 1.427-.01 2.414-.01h19.61c.61 0 1.085.003 1.428.01a24.168 24.168 0 01.935.031.642.642 0 00.136.042.276.276 0 01.136.063c.112.042.22.123.326.242.105.119.178.22.22.304.07.14.116.27.137.388.02.12.031.347.031.683v.65h-1.742v17.469h1.742v.651c0 .336-.01.564-.031.683a1.44 1.44 0 01-.137.388 1.523 1.523 0 01-.22.305.838.838 0 01-.326.241.466.466 0 01-.146.063.65.65 0 00-.126.042c-.028 0-.105.004-.231.01-.126.008-.36.015-.704.022-.343.007-.819.01-1.428.01h-22.15c-.61 0-1.085-.003-1.428-.01-.343-.007-.578-.011-.704-.011a.715.715 0 01-.23-.021.837.837 0 01-.273-.105.839.839 0 01-.326-.241 1.524 1.524 0 01-.22-.305c-.07-.14-.116-.27-.137-.388a4.746 4.746 0 01-.031-.683v-.65h1.742V13.212H6.932v-.651c0-.336.01-.564.031-.683.021-.119.067-.248.137-.388a1.13 1.13 0 01.22-.315.877.877 0 01.326-.23c.098-.043.189-.078.273-.106m6.613 2.373H10.627l-.01.693c-.007.462-.011 1.091-.011 1.89V21.967l.021 8.713h1.995v-1.427-1.197c0-.21.014-.35.042-.42.168-.868.483-1.617.944-2.247.112-.154.238-.311.378-.472.14-.16.266-.283.378-.367l.168-.147V13.213m5.858 0h-3.926V20.939c0 .658.003 1.173.01 1.544a25.238 25.238 0 00.032.934l.21-.042c.112-.028.213-.05.304-.063.091-.014.203-.025.336-.032a25.935 25.935 0 011.48-.031l1.554-.021v-.4l-.105-.02c-.126-.042-.27-.091-.43-.147a2.74 2.74 0 01-.43-.189 4.469 4.469 0 01-1.523-1.186 4.415 4.415 0 01-.892-1.711 4.004 4.004 0 01-.105-.546 6.287 6.287 0 01-.021-.588c0-.266.007-.466.02-.599.015-.133.05-.318.106-.556.028-.14.084-.297.168-.472s.16-.333.23-.473a4.237 4.237 0 011.187-1.438 4.71 4.71 0 011.69-.83l.105-.02v-.84m5.858 0h-3.926v.84l.105.02c.392.099.766.249 1.123.452s.676.444.955.724c.364.35.644.725.84 1.124.196.399.343.85.441 1.354a.858.858 0 01.042.273v.871c0 .091-.014.186-.042.284-.098.49-.241.93-.43 1.322a4.095 4.095 0 01-.809 1.113 4.514 4.514 0 01-2.12 1.197l-.105.042v.399l1.554.02a32.49 32.49 0 011.48.032c.133.007.245.018.336.032.09.014.192.035.304.063l.21.042.01-.19c.008-.125.015-.374.022-.744.007-.371.01-.89.01-1.554v-7.716m5.837 0H28.18V24.404l.189.147c.182.154.367.353.556.598.19.245.36.486.515.724.14.266.258.532.356.798.098.266.175.574.231.924.014.056.025.112.032.168.007.056.014.14.02.252.008.112.011.266.011.462V30.68h1.995V13.213"
         fill-opacity=".949" fill="#fff" />
   </g>
</svg>