<svg xmlns="http://www.w3.org/2000/svg" version="1.2" viewBox="0 0 42.52 42.52" height="56.693" width="56.693">
   <g stroke-linejoin="bevel" stroke-linecap="square" fill-rule="evenodd" stroke="none" fill="none" font-weight="400"
      font-size="7.8" font-family="'MS Shell Dlg 2'">
      <path
         d="M42.52 21.26C42.52 33 33 42.52 21.26 42.52 9.518 42.52 0 33 0 21.26 0 9.518 9.518 0 21.26 0 33 0 42.52 9.518 42.52 21.26"
         vector-effect="non-scaling-stroke" fill="#ec1d24" />
      <path
         d="M25.244 14.01a11.498 11.498 0 00-1.742-.566 8.047 8.047 0 00-1.87-.21 9.24 9.24 0 00-3.778.819l3.695-5.984 3.695 5.942m5.04 6.004a8.714 8.714 0 00-1.68-3.411 8.857 8.857 0 00-2.877-2.341l6.908-.861-2.352 6.613m5.102 5.375l-6.571 2.289a8.224 8.224 0 001.312-2.488c.3-.917.451-1.88.451-2.887 0-.658-.056-1.26-.168-1.806l4.976 4.892m-17.93-11.127a9.151 9.151 0 00-2.887 2.362 8.688 8.688 0 00-1.711 3.39l-2.394-6.613 6.992.86M21.8 31.249c1.358-.028 2.6-.322 3.727-.881a9.11 9.11 0 002.908-2.268l-.693 6.929-5.942-3.78m-7.139-3.191a9.594 9.594 0 002.95 2.268c1.127.56 2.37.867 3.727.923l-5.942 3.78-.735-6.971m-1.931-7.559c-.056.28-.098.57-.126.872-.028.3-.042.612-.042.934 0 1.008.157 1.97.472 2.887.315.917.76 1.746 1.333 2.488L7.754 25.39l4.977-4.892m13.038.861a1.943 1.943 0 00-.063.231 1.94 1.94 0 01-.063.231c-.322-.196-.62-.388-.892-.577a26.97 26.97 0 00-.872-.578l.126-.252c.574.28 1.162.595 1.764.945m3.57.945c0 .336-.032.679-.095 1.029-.063.35-.136.679-.22.987a.8.8 0 00-.21-.147.8.8 0 01-.21-.147c-.238-.14-.483-.298-.735-.473a11.632 11.632 0 00-.735-.472 2.607 2.607 0 00-.473-.336 3.463 3.463 0 01-.472-.315.4.4 0 01-.126-.378c.028-.126.05-.238.063-.336.014-.098.035-.217.063-.357 0-.056-.014-.084-.042-.084-.28-.154-.563-.3-.85-.44-.287-.14-.578-.28-.872-.42-.112-.029-.28-.106-.504-.232a3.704 3.704 0 00-.188.4 10.55 10.55 0 00-.62-.41 88.9 88.9 0 01-.661-.41l1.847-1.322-.084-.273.084-.042.084.084.441-.252-.042-.168c.196-.112.378-.231.546-.357.14-.112.298-.217.473-.315s.332-.189.472-.273c0-.056-.042-.133-.126-.23-.028-.029-.056-.043-.084-.043l-1.512.945-.336-.504-.084.084.084.693-.168.126-.168-.126c-.237.14-.482.28-.734.42-.238.154-.483.315-.735.483a9.368 9.368 0 01-.861.504 9.367 9.367 0 01-.86-.504 64.277 64.277 0 00-.736-.483c-.252-.14-.483-.28-.693-.42l-.168.126-.168-.126.084-.693-.084-.084-.336.504-1.511-.945c-.056 0-.098.014-.126.042a.361.361 0 00-.084.231c.14.084.297.175.472.273.175.098.333.203.473.315.168.126.35.245.546.357l-.042.168.44.252.084-.084.084.042-.084.273 1.806 1.323c-.224.14-.444.276-.661.409-.217.133-.41.27-.578.41l-.094-.19a2.773 2.773 0 01-.095-.21c-.224.126-.392.203-.504.231-.294.14-.584.28-.87.42-.288.14-.571.287-.851.441-.028 0-.042.028-.042.084.028.14.049.26.063.357.014.098.035.21.063.336a.4.4 0 01-.126.378c-.168.112-.333.217-.494.315-.16.098-.311.21-.451.336-.266.14-.518.297-.756.472a8.374 8.374 0 01-.714.473 9.475 9.475 0 01-.42.294 11.494 11.494 0 01-.22-.987 5.8 5.8 0 01-.095-1.029c0-1.064.203-2.068.61-3.013a8.011 8.011 0 011.679-2.498 7.659 7.659 0 012.488-1.68 7.773 7.773 0 013.055-.599 7.483 7.483 0 015.438 2.278c.7.721 1.253 1.554 1.659 2.5.406.944.608 1.948.608 3.012m-5.08.084a.488.488 0 01.125.084c.028.028.07.056.126.084a.597.597 0 01-.126.105c-.028.014-.056.049-.084.105.028.028.126-.014.294-.126.098.028.147.084.147.168 0 .056-.01.108-.031.157a.395.395 0 00-.032.158 3.478 3.478 0 01-.357-.242 3.479 3.479 0 00-.357-.241.598.598 0 00.105-.126.597.597 0 01.105-.126h.084m4.053 3.653a7.7 7.7 0 01-2.772 2.877c-1.176.714-2.477 1.07-3.905 1.07-1.456 0-2.793-.356-4.01-1.07a7.557 7.557 0 01-2.835-2.877l.4-.378c.167-.238.307-.413.419-.524.098-.084.189-.175.273-.273.084-.098.168-.21.252-.336.084-.084.16-.168.23-.252.07-.084.148-.182.232-.294a4.09 4.09 0 01.294-.305c.098-.09.189-.192.273-.304.028-.056.056-.091.084-.105.028-.014.056-.05.084-.105.028-.028.07-.042.126-.042.154.028.23.112.23.252a5.693 5.693 0 01.084.987c0 .028.008.049.022.063.014.014.02.035.02.063.14-.056.26-.098.358-.126.098-.028.223-.07.377-.126.084-.028.112-.07.084-.126a4.483 4.483 0 01-.063-.41 4.476 4.476 0 00-.063-.41c-.028-.055 0-.111.084-.167.056-.056.168-.147.336-.273l.252-.168 1.218 1.029h.126l.546-.861-.798-.672a1.227 1.227 0 01-.105-.126.932.932 0 00-.084-.168.259.259 0 01-.042-.147c0-.084.014-.14.042-.168l.084-.084 1.386-1.029 1.428 1.03c0 .027.014.055.042.083.028.028.042.084.042.168a.813.813 0 01-.084.315.317.317 0 01-.105.126l-.798.672.546.86h.126l1.175-1.028c.084.056.182.112.294.168.168.126.28.217.336.273.084.056.112.112.084.168a4.48 4.48 0 00-.063.41c-.014.132-.035.269-.063.409-.028.056 0 .098.084.126.154.056.28.098.378.126.098.028.217.07.357.126 0-.056.014-.098.042-.126a5.697 5.697 0 01.084-.987c0-.14.077-.224.231-.252.056 0 .098.014.126.042.028.056.056.09.084.105.028.014.056.049.084.105a3.887 3.887 0 00.567.609c.056.112.126.21.21.294l.252.252c.084.126.171.238.262.336.091.098.179.189.263.273.056.083.126.167.21.251.084.084.154.175.21.273.168.168.287.294.357.378m-9.05-5.375a26.98 26.98 0 00-.871.578c-.273.189-.57.381-.892.577a1.943 1.943 0 01-.063-.23 1.94 1.94 0 00-.063-.232 15.113 15.113 0 011.764-.945l.125.252m-.714 1.974c.14.14.238.182.294.126l-.21-.21a.489.489 0 00.126-.084.488.488 0 01.126-.084h.084a.597.597 0 01.105.126c.014.028.05.07.105.126-.14.084-.259.164-.357.241a3.48 3.48 0 01-.357.242.396.396 0 00-.031-.158.395.395 0 01-.032-.157c0-.084.05-.14.147-.168"
         fill-opacity=".949" fill="#fff" />
   </g>
</svg>