<?xml version="1.0" encoding="UTF-8" standalone="no"?>
<svg
   xmlns:dc="http://purl.org/dc/elements/1.1/"
   xmlns:cc="http://creativecommons.org/ns#"
   xmlns:rdf="http://www.w3.org/1999/02/22-rdf-syntax-ns#"
   xmlns:svg="http://www.w3.org/2000/svg"
   xmlns="http://www.w3.org/2000/svg"
   xmlns:sodipodi="http://sodipodi.sourceforge.net/DTD/sodipodi-0.dtd"
   xmlns:inkscape="http://www.inkscape.org/namespaces/inkscape"
   inkscape:version="1.0 (4035a4fb49, 2020-05-01)"
   sodipodi:docname="2410.svg"
   id="svg20"
   version="1.2"
   viewBox="0 0 42.519639 42.519639"
   height="14.999999mm"
   width="14.999999mm">
  <metadata
     id="metadata24">
    <rdf:RDF>
      <cc:Work
         rdf:about="">
        <dc:format>image/svg+xml</dc:format>
        <dc:type
           rdf:resource="http://purl.org/dc/dcmitype/StillImage" />
        <dc:title>Qt SVG Document</dc:title>
      </cc:Work>
    </rdf:RDF>
  </metadata>
  <sodipodi:namedview
     inkscape:current-layer="svg20"
     inkscape:window-maximized="0"
     inkscape:window-y="0"
     inkscape:window-x="0"
     inkscape:cy="28.346482"
     inkscape:cx="28.346482"
     inkscape:zoom="5.8410537"
     showgrid="false"
     id="namedview22"
     inkscape:window-height="480"
     inkscape:window-width="1034"
     inkscape:pageshadow="2"
     inkscape:pageopacity="0"
     guidetolerance="10"
     gridtolerance="10"
     objecttolerance="10"
     borderopacity="1"
     bordercolor="#666666"
     pagecolor="#ffffff" />
  <title
     id="title2">Qt SVG Document</title>
  <desc
     id="desc4">Generated with Qt</desc>
  <defs
     id="defs6" />
  <g
     transform="translate(5.25984,5.25984)"
     id="g18"
     stroke-linejoin="bevel"
     stroke-linecap="square"
     fill-rule="evenodd"
     stroke-width="1"
     stroke="#000000"
     fill="none">
    <g
       id="g10"
       font-style="normal"
       font-weight="400"
       font-size="7.8px"
       font-family="'MS Shell Dlg 2'"
       stroke="none"
       fill-opacity="1"
       fill="#ec1d24">
      <path
         id="path8"
         d="M 37.2598,16 C 37.2598,27.7415 27.7415,37.2598 16,37.2598 4.25851,37.2598 -5.25984,27.7415 -5.25984,16 -5.25984,4.25851 4.25851,-5.25984 16,-5.25984 27.7415,-5.25984 37.2598,4.25851 37.2598,16"
         fill-rule="evenodd"
         vector-effect="non-scaling-stroke" />
    </g>
    <g
       id="g14"
       font-style="normal"
       font-weight="400"
       font-size="7.8px"
       font-family="'MS Shell Dlg 2'"
       transform="translate(16.5669,12.0315)"
       stroke="none"
       fill-opacity="0.94902"
       fill="#ffffff">
      <path
         id="path12"
         d="M 3.41748,-3.28076 C 2.84359,-3.51872 2.2627,-3.70768 1.6748,-3.84766 1.08691,-3.98763 0.46403,-4.05762 -0.193848,-4.05762 c -1.287762,0 -2.547522,0.27295 -3.779292,0.81885 l 3.695308,-5.98389 3.695312,5.9419 M 8.45654,2.72412 C 8.1346,1.43636 7.57471,0.299072 6.77686,-0.687744 5.979,-1.67456 5.02018,-2.45492 3.90039,-3.02881 L 10.8081,-3.88965 8.45654,2.72412 m 5.10206,5.375 -6.57178,2.28858 C 7.56071,9.64583 7.99813,8.81649 8.29907,7.89966 8.60002,6.98283 8.75049,6.02051 8.75049,5.0127 8.75049,4.35482 8.6945,3.75293 8.58252,3.20703 L 13.5586,8.09912 M -4.37207,-3.02881 c -1.10579,0.57389 -2.06812,1.36125 -2.88696,2.362062 -0.81885,1.000814 -1.38924,2.131108 -1.71118,3.390868 l -2.39359,-6.61377 6.99173,0.86084 M -0.0258789,13.957 C 1.33187,13.929 2.57414,13.6351 3.70093,13.0752 4.82772,12.5153 5.79704,11.7594 6.60889,10.8076 L 5.91602,17.7363 -0.0258789,13.957 M -7.16455,10.7656 c 0.83984,0.9518 1.82316,1.7077 2.94995,2.2676 1.12679,0.5599 2.36906,0.8678 3.726807,0.9238 L -6.42969,17.7363 -7.16455,10.7656 M -9.09619,3.20703 c -0.05599,0.27995 -0.09798,0.5704 -0.12598,0.87134 -0.02799,0.30094 -0.04199,0.61239 -0.04199,0.93433 0,1.00781 0.15747,1.97013 0.47241,2.88696 0.31494,0.91683 0.75936,1.74617 1.33325,2.48804 L -14.0723,8.09912 -9.09619,3.20703 M 3.94238,4.06787 C 3.91439,4.15186 3.89339,4.22884 3.87939,4.29883 3.8654,4.36882 3.8444,4.4458 3.81641,4.52979 3.49447,4.33382 3.19702,4.14136 2.92407,3.95239 2.65112,3.76343 2.36068,3.57096 2.05273,3.375 L 2.17871,3.12305 C 2.7526,3.40299 3.34049,3.71794 3.94238,4.06787 M 7.51172,5.0127 c 0,0.33593 -0.0315,0.67887 -0.09448,1.0288 C 7.35425,6.39144 7.28076,6.72038 7.19678,7.02832 7.14079,6.97233 7.0708,6.92334 6.98682,6.88135 6.90283,6.83936 6.83285,6.79036 6.77686,6.73438 6.5389,6.5944 6.29395,6.43693 6.04199,6.26196 5.79004,6.087 5.54508,5.92952 5.30713,5.78955 5.16715,5.66357 5.00968,5.5516 4.83472,5.45361 4.65975,5.35563 4.50228,5.25065 4.3623,5.13867 4.25033,5.02669 4.20833,4.90072 4.23633,4.76074 4.26432,4.63477 4.28532,4.52279 4.29932,4.4248 4.31331,4.32682 4.33431,4.20785 4.3623,4.06787 4.3623,4.01188 4.34831,3.98389 4.32031,3.98389 4.04036,3.82992 3.75692,3.68294 3.46997,3.54297 3.18302,3.40299 2.89258,3.26302 2.59863,3.12305 2.48665,3.09505 2.31868,3.01807 2.09473,2.89209 2.03874,2.99007 1.97575,3.12305 1.90576,3.29102 1.7098,3.15104 1.50334,3.01457 1.28638,2.88159 1.06942,2.74862 0.848958,2.61214 0.625,2.47217 L 2.47266,1.14941 2.38867,0.876465 2.47266,0.834473 2.55664,0.918457 2.99756,0.666504 2.95557,0.498535 C 3.15153,0.386556 3.3335,0.267578 3.50146,0.141602 3.64144,0.0296224 3.79891,-0.0753581 3.97388,-0.17334 4.14884,-0.271322 4.30632,-0.362305 4.44629,-0.446289 4.44629,-0.502279 4.4043,-0.579264 4.32031,-0.677246 4.29232,-0.705241 4.26432,-0.719238 4.23633,-0.719238 L 2.72461,0.225586 2.38867,-0.27832 2.30469,-0.194336 2.38867,0.498535 2.2207,0.624512 2.05273,0.498535 C 1.81478,0.638509 1.56982,0.778483 1.31787,0.918457 1.07992,1.07243 0.834961,1.2334 0.583008,1.40137 0.331055,1.56934 0.0441081,1.7373 -0.277832,1.90527 -0.599772,1.7373 -0.886719,1.56934 -1.13867,1.40137 -1.39063,1.2334 -1.63558,1.07243 -1.87354,0.918457 -2.12549,0.778483 -2.35645,0.638509 -2.56641,0.498535 L -2.73438,0.624512 -2.90234,0.498535 -2.81836,-0.194336 -2.90234,-0.27832 -3.23828,0.225586 -4.75,-0.719238 c -0.05599,0 -0.09798,0.013997 -0.12598,0.041992 -0.05599,0.069987 -0.08398,0.146973 -0.08398,0.230957 0.13997,0.083984 0.29744,0.174967 0.47241,0.272949 0.17497,0.0979819 0.33244,0.2029624 0.47241,0.314942 0.16797,0.125976 0.34994,0.244954 0.5459,0.356933 l -0.04199,0.167969 0.44092,0.251953 0.08398,-0.083984 0.08399,0.041992 -0.08399,0.272945 1.80567,1.32276 C -1.40462,2.61214 -1.62508,2.74862 -1.84204,2.88159 -2.059,3.01457 -2.25146,3.15104 -2.41943,3.29102 -2.44743,3.23503 -2.47892,3.17204 -2.51392,3.10205 -2.54891,3.03206 -2.5804,2.96208 -2.6084,2.89209 c -0.22396,0.12598 -0.39193,0.20296 -0.5039,0.23096 -0.29395,0.13997 -0.5844,0.27994 -0.87134,0.41992 -0.28695,0.13997 -0.5704,0.28695 -0.85034,0.44092 -0.028,0 -0.042,0.02799 -0.042,0.08398 0.028,0.13998 0.04899,0.25895 0.06299,0.35693 0.014,0.09799 0.035,0.20997 0.06299,0.33594 0.02799,0.13998 -0.014,0.26595 -0.12598,0.37793 -0.16797,0.11198 -0.33243,0.21696 -0.4934,0.31494 C -5.53035,5.5516 -5.68083,5.66357 -5.8208,5.78955 -6.08675,5.92952 -6.3387,6.087 -6.57666,6.26196 -6.81462,6.43693 -7.05257,6.5944 -7.29053,6.73438 -7.40251,6.81836 -7.54248,6.91634 -7.71045,7.02832 -7.79443,6.72038 -7.86792,6.39144 -7.93091,6.0415 -7.9939,5.69157 -8.02539,5.34863 -8.02539,5.0127 c 0,-1.06381 0.20296,-2.06812 0.60889,-3.01294 0.40592,-0.94483 0.96582,-1.777673 1.67968,-2.498539 0.71387,-0.720871 1.54322,-1.280761 2.48804,-1.679691 0.94482,-0.39892 1.96314,-0.59839 3.054932,-0.59839 1.063802,0 2.061118,0.19947 2.991948,0.59839 0.93082,0.39893 1.74617,0.95882 2.44604,1.679691 C 5.94401,0.222087 6.49691,1.05493 6.90283,1.99976 7.30876,2.94458 7.51172,3.94889 7.51172,5.0127 M 2.43066,5.09668 c 0.05599,0.02799 0.09799,0.05599 0.12598,0.08398 0.028,0.028 0.06999,0.05599 0.12598,0.08399 C 2.62663,5.32064 2.58464,5.35563 2.55664,5.36963 2.52865,5.38363 2.50065,5.41862 2.47266,5.47461 2.50065,5.5026 2.59863,5.46061 2.7666,5.34863 c 0.09798,0.028 0.14697,0.08399 0.14697,0.16797 0,0.05599 -0.01049,0.10848 -0.03149,0.15747 C 2.86108,5.72306 2.85059,5.77555 2.85059,5.83154 2.71061,5.74756 2.59163,5.66707 2.49365,5.59009 2.39567,5.5131 2.27669,5.43262 2.13672,5.34863 2.19271,5.29264 2.2277,5.25065 2.2417,5.22266 2.2557,5.19466 2.29069,5.15267 2.34668,5.09668 H 2.43066 M 6.48291,8.75 c -0.67187,1.20378 -1.5957,2.1626 -2.77148,2.8765 -1.17579,0.7138 -2.47754,1.0708 -3.905278,1.0708 -1.455732,0 -2.792482,-0.357 -4.010252,-1.0708 C -5.42188,10.9126 -6.3667,9.95378 -7.03857,8.75 L -6.63965,8.37207 C -6.47168,8.13411 -6.33171,7.95915 -6.21973,7.84717 -6.12174,7.76318 -6.03076,7.6722 -5.94678,7.57422 -5.86279,7.47624 -5.77881,7.36426 -5.69482,7.23828 -5.61084,7.1543 -5.53385,7.07031 -5.46387,6.98633 -5.39388,6.90234 -5.31689,6.80436 -5.23291,6.69238 -5.13493,6.5804 -5.03695,6.47892 -4.93896,6.38794 -4.84098,6.29696 -4.75,6.19548 -4.66602,6.0835 c 0.028,-0.05599 0.05599,-0.09099 0.08399,-0.10498 0.02799,-0.014 0.05599,-0.049 0.08398,-0.10498 0.028,-0.028 0.06999,-0.042 0.12598,-0.042 0.15397,0.028 0.23096,0.11198 0.23096,0.25196 0.02799,0.16796 0.04899,0.33243 0.06298,0.4934 0.014,0.16097 0.021,0.32544 0.021,0.49341 0,0.028 0.007,0.04899 0.021,0.06299 0.01399,0.014 0.02099,0.03499 0.02099,0.06299 C -3.87516,7.1403 -3.75618,7.09831 -3.6582,7.07031 -3.56022,7.04232 -3.43424,7.00033 -3.28027,6.94434 -3.19629,6.91634 -3.16829,6.87435 -3.19629,6.81836 -3.22428,6.67839 -3.24528,6.54191 -3.25928,6.40894 -3.27327,6.27596 -3.29427,6.13949 -3.32227,5.99951 c -0.02799,-0.05599 0,-0.11198 0.08399,-0.16797 0.05599,-0.05599 0.16797,-0.14697 0.33594,-0.27295 l 0.25195,-0.16796 1.21777,1.0288 h 0.12598 L -0.760742,5.55859 -1.55859,4.88672 C -1.58659,4.85872 -1.62158,4.81673 -1.66357,4.76074 -1.69157,4.69076 -1.71956,4.63477 -1.74756,4.59277 -1.77555,4.55078 -1.78955,4.50179 -1.78955,4.4458 c 0,-0.08398 0.014,-0.13997 0.04199,-0.16797 L -1.66357,4.19385 -0.277832,3.16504 1.1499,4.19385 c 0,0.02799 0.014,0.05599 0.04199,0.08398 0.028,0.028 0.042,0.08399 0.042,0.16797 0,0.08399 -0.028,0.18897 -0.08399,0.31494 C 1.12191,4.81673 1.08691,4.85872 1.04492,4.88672 L 0.24707,5.55859 0.792969,6.41943 H 0.918945 L 2.09473,5.39063 C 2.17871,5.44661 2.27669,5.5026 2.38867,5.55859 2.55664,5.68457 2.66862,5.77555 2.72461,5.83154 2.80859,5.88753 2.83659,5.94352 2.80859,5.99951 2.7806,6.13949 2.7596,6.27596 2.74561,6.40894 c -0.014,0.13297 -0.035,0.26945 -0.06299,0.40942 -0.028,0.05599 0,0.09798 0.08398,0.12598 0.15397,0.05599 0.27995,0.09798 0.37793,0.12597 0.09798,0.028 0.21696,0.06999 0.35693,0.12598 0,-0.05599 0.014,-0.09798 0.042,-0.12598 0,-0.16797 0.007,-0.33244 0.02099,-0.49341 0.014,-0.16097 0.035,-0.32544 0.06299,-0.4934 0,-0.13998 0.07699,-0.22396 0.23096,-0.25196 0.05599,0 0.09798,0.014 0.12598,0.042 C 4.01237,5.92952 4.04036,5.96452 4.06836,5.97852 4.09635,5.99251 4.12435,6.02751 4.15234,6.0835 4.23633,6.19548 4.32031,6.29696 4.4043,6.38794 4.48828,6.47892 4.59326,6.5804 4.71924,6.69238 4.77523,6.80436 4.84521,6.90234 4.9292,6.98633 5.01318,7.07031 5.09717,7.1543 5.18115,7.23828 5.26514,7.36426 5.35262,7.47624 5.4436,7.57422 5.53459,7.6722 5.62207,7.76318 5.70605,7.84717 5.76204,7.93115 5.83203,8.01514 5.91602,8.09912 6,8.18311 6.06999,8.27409 6.12598,8.37207 6.29395,8.54004 6.41292,8.66602 6.48291,8.75 M -2.56641,3.375 C -2.87435,3.57096 -3.16479,3.76343 -3.43774,3.95239 -3.71069,4.14136 -4.00814,4.33382 -4.33008,4.52979 -4.35807,4.4458 -4.37907,4.36882 -4.39307,4.29883 -4.40706,4.22884 -4.42806,4.15186 -4.45605,4.06787 -4.16211,3.8859 -3.87166,3.71794 -3.58472,3.56396 -3.29777,3.40999 -3.00033,3.26302 -2.69238,3.12305 L -2.56641,3.375 m -0.71386,1.97363 c 0.13997,0.13998 0.23795,0.18197 0.29394,0.12598 L -3.19629,5.26465 c 0.05599,-0.028 0.09798,-0.05599 0.12598,-0.08399 0.02799,-0.02799 0.06998,-0.05599 0.12597,-0.08398 h 0.08399 c 0.05599,0.05599 0.09098,0.09798 0.10498,0.12598 0.014,0.02799 0.04899,0.06998 0.10498,0.12597 -0.13997,0.08399 -0.25895,0.16447 -0.35693,0.24146 -0.09799,0.07698 -0.21696,0.15747 -0.35694,0.24145 0,-0.05599 -0.0105,-0.10848 -0.03149,-0.15747 -0.021,-0.04899 -0.0315,-0.10148 -0.0315,-0.15747 0,-0.08398 0.04899,-0.13997 0.14698,-0.16797"
         fill-rule="evenodd"
         vector-effect="none" />
    </g>
    <g
       id="g16"
       font-style="normal"
       font-weight="400"
       font-size="7.8px"
       font-family="'MS Shell Dlg 2'"
       stroke="none"
       fill-opacity="1"
       fill="#ec1d24" />
  </g>
</svg>
