<?xml version="1.0" encoding="UTF-8" standalone="no"?>
<svg
   xmlns:dc="http://purl.org/dc/elements/1.1/"
   xmlns:cc="http://creativecommons.org/ns#"
   xmlns:rdf="http://www.w3.org/1999/02/22-rdf-syntax-ns#"
   xmlns:svg="http://www.w3.org/2000/svg"
   xmlns="http://www.w3.org/2000/svg"
   xmlns:sodipodi="http://sodipodi.sourceforge.net/DTD/sodipodi-0.dtd"
   xmlns:inkscape="http://www.inkscape.org/namespaces/inkscape"
   inkscape:version="1.0 (4035a4fb49, 2020-05-01)"
   sodipodi:docname="2411.svg"
   id="svg20"
   version="1.2"
   viewBox="0 0 42.519639 42.519639"
   height="14.999999mm"
   width="14.999999mm">
  <metadata
     id="metadata24">
    <rdf:RDF>
      <cc:Work
         rdf:about="">
        <dc:format>image/svg+xml</dc:format>
        <dc:type
           rdf:resource="http://purl.org/dc/dcmitype/StillImage" />
        <dc:title>Qt SVG Document</dc:title>
      </cc:Work>
    </rdf:RDF>
  </metadata>
  <sodipodi:namedview
     inkscape:current-layer="svg20"
     inkscape:window-maximized="0"
     inkscape:window-y="0"
     inkscape:window-x="0"
     inkscape:cy="28.346482"
     inkscape:cx="28.346482"
     inkscape:zoom="5.8410537"
     showgrid="false"
     id="namedview22"
     inkscape:window-height="480"
     inkscape:window-width="1034"
     inkscape:pageshadow="2"
     inkscape:pageopacity="0"
     guidetolerance="10"
     gridtolerance="10"
     objecttolerance="10"
     borderopacity="1"
     bordercolor="#666666"
     pagecolor="#ffffff" />
  <title
     id="title2">Qt SVG Document</title>
  <desc
     id="desc4">Generated with Qt</desc>
  <defs
     id="defs6" />
  <g
     transform="translate(5.25984,5.25984)"
     id="g18"
     stroke-linejoin="bevel"
     stroke-linecap="square"
     fill-rule="evenodd"
     stroke-width="1"
     stroke="#000000"
     fill="none">
    <g
       id="g10"
       font-style="normal"
       font-weight="400"
       font-size="7.8px"
       font-family="'MS Shell Dlg 2'"
       stroke="none"
       fill-opacity="1"
       fill="#ec1d24">
      <path
         id="path8"
         d="M 37.2598,16 C 37.2598,27.7415 27.7415,37.2598 16,37.2598 4.25851,37.2598 -5.25984,27.7415 -5.25984,16 -5.25984,4.25851 4.25851,-5.25984 16,-5.25984 27.7415,-5.25984 37.2598,4.25851 37.2598,16"
         fill-rule="evenodd"
         vector-effect="non-scaling-stroke" />
    </g>
    <g
       id="g14"
       font-style="normal"
       font-weight="400"
       font-size="7.8px"
       font-family="'MS Shell Dlg 2'"
       transform="translate(16,11.4646)"
       stroke="none"
       fill-opacity="0.94902"
       fill="#ffffff">
      <path
         id="path12"
         d="m 10.2793,-2.29395 c 0.3499,0.25196 0.5249,0.5669 0.5249,0.94483 V 14.6499 c 0,0.252 -0.0945,0.4794 -0.2834,0.6824 -0.189,0.2029 -0.4235,0.3044 -0.70342,0.3044 H -9.33105 c -0.27995,0 -0.51441,-0.1015 -0.70335,-0.3044 -0.189,-0.203 -0.2835,-0.4304 -0.2835,-0.6824 V -1.34912 c 0,-0.37793 0.175,-0.69287 0.52493,-0.94483 l 9.490236,-5.68994 c 0.2379554,-0.11198 0.42692,-0.16797 0.566894,-0.16797 0.111979,0 0.286947,0.05599 0.524903,0.16797 L 10.2793,-2.29395 M 9.81738,-1.34912 0.26416,-7.12305 -9.33105,-1.34912 V 14.6499 H 9.81738 V -1.34912 M 5.47119,8.37207 6.70996,11.5425 c 0.13997,0.4339 0.11198,0.8293 -0.08398,1.1863 -0.19597,0.3569 -0.51091,0.6053 -0.94483,0.7453 -0.02799,0.056 -0.06998,0.084 -0.12597,0.084 -0.05599,0 -0.11198,0 -0.16797,0 -0.34994,0.056 -0.66838,-0.014 -0.95533,-0.21 C 4.14494,13.1522 3.93148,12.8792 3.7915,12.5293 L 2.11182,8.05713 5.21924,8.37207 H 5.47119 M -0.197754,5.05469 5.47119,5.47461 C 5.75114,5.5306 5.99959,5.66707 6.21655,5.88403 6.43351,6.10099 6.514,6.38444 6.45801,6.73438 6.34603,7.28027 6.01709,7.60921 5.47119,7.72119 H 5.30322 L -0.890625,7.1123 C -1.18457,7.1123 -1.45752,6.98633 -1.70947,6.73438 L -2.96924,5.30664 v 0.48291 c 0.028,0.30794 0.06649,0.63338 0.11548,0.97632 0.04899,0.34294 0.11548,0.66488 0.19946,0.96582 0.08399,0.30094 0.19597,0.5459 0.33594,0.73486 0.13997,0.18897 0.31494,0.26945 0.5249,0.24146 0.16797,-0.25196 0.33594,-0.5529 0.50391,-0.90283 h 0.314941 L 1.94385,8.05713 C 1.6779,8.68701 1.38745,9.32389 1.07251,9.96777 0.757568,10.6117 0.393636,11.2135 -0.0192871,11.7734 -0.43221,12.3333 -0.897624,12.8022 -1.41553,13.1802 c -0.5179,0.3779 -1.11979,0.5949 -1.80566,0.6509 h -0.16797 -0.16797 v -0.084 c -0.29394,0 -0.5109,-0.014 -0.65088,-0.042 -0.11198,0 -0.22396,-0.021 -0.33594,-0.063 -0.43391,-0.028 -0.78735,-0.147 -1.0603,-0.3569 -0.27295,-0.21 -0.5039,-0.4515 -0.69287,-0.7244 -0.18896,-0.273 -0.33944,-0.5739 -0.45142,-0.9028 -0.11197,-0.329 -0.20996,-0.6404 -0.29394,-0.9344 -0.26595,-0.82581 -0.46191,-1.73214 -0.58789,-2.71896 -0.12598,-0.98682 -0.12598,-1.93514 0,-2.84497 0.12598,-0.90983 0.39892,-1.73568 0.81885,-2.47754 0.41992,-0.74186 1.02881,-1.28776 1.82666,-1.6377 0.62988,-0.307939 1.10229,-0.360429 1.41723,-0.157467 0.31494,0.202967 0.5494,0.416427 0.70337,0.640377 v 0.08399 l 2.666506,3.44336 M 0.348145,4.36182 C 0.726074,3.73193 1.146,3.26302 1.60791,2.95508 1.83187,2.8291 2.05933,2.75212 2.29028,2.72412 c 0.23096,-0.02799 0.44442,0 0.64038,0.08399 0.48991,0.12597 0.83285,0.42692 1.02881,0.90283 L 4.31641,4.69775 0.348145,4.36182 M -1.05859,-2.29395 c 0.601884,-0.20996 1.186276,-0.17146 1.75317,0.11548 0.56689,0.28695 0.95532,0.74536 1.16528,1.375247 0.22396,0.573894 0.18547,1.147787 -0.11548,1.72168 C 1.44344,1.49235 0.978027,1.89827 0.348145,2.13623 -0.225749,2.36019 -0.799642,2.3217 -1.37354,2.02075 -1.94743,1.71981 -2.34635,1.28239 -2.57031,0.708496 -2.76628,0.0786133 -2.72428,-0.523275 -2.44434,-1.09717 c 0.27995,-0.57389 0.74187,-0.97282 1.38575,-1.19678"
         fill-rule="evenodd"
         vector-effect="none" />
    </g>
    <g
       id="g16"
       font-style="normal"
       font-weight="400"
       font-size="7.8px"
       font-family="'MS Shell Dlg 2'"
       stroke="none"
       fill-opacity="1"
       fill="#ec1d24" />
  </g>
</svg>
