<?xml version="1.0" encoding="UTF-8" standalone="no"?>
<svg width="11.2889mm" height="11.2889mm"
 viewBox="0 0 32 32"
 xmlns="http://www.w3.org/2000/svg" xmlns:xlink="http://www.w3.org/1999/xlink"  version="1.2" baseProfile="tiny">
<title>Qt SVG Document</title>
<desc>Generated with Qt</desc>
<defs>
</defs>
<g fill="none" stroke="black" stroke-width="1" fill-rule="evenodd" stroke-linecap="square" stroke-linejoin="bevel" >

<g fill="#ec1d24" fill-opacity="1" stroke="none" transform="matrix(1,0,0,1,0,0)"
font-family="MS Shell Dlg 2" font-size="7.8" font-weight="400" font-style="normal" 
>
<path vector-effect="non-scaling-stroke" fill-rule="evenodd" d="M37.2598,16 C37.2598,27.7415 27.7415,37.2598 16,37.2598 C4.25851,37.2598 -5.25984,27.7415 -5.25984,16 C-5.25984,4.25851 4.25851,-5.25984 16,-5.25984 C27.7415,-5.25984 37.2598,4.25851 37.2598,16 "/>
</g>

<g fill="#ffffff" fill-opacity="0.94902" stroke="none" transform="matrix(1,0,0,1,16,11.4646)"
font-family="MS Shell Dlg 2" font-size="7.8" font-weight="400" font-style="normal" 
>
<path vector-effect="none" fill-rule="evenodd" d="M10.2793,-2.29395 C10.6292,-2.04199 10.8042,-1.72705 10.8042,-1.34912 L10.8042,14.6499 C10.8042,14.9019 10.7097,15.1293 10.5208,15.3323 C10.3318,15.5352 10.0973,15.6367 9.81738,15.6367 L-9.33105,15.6367 C-9.611,15.6367 -9.84546,15.5352 -10.0344,15.3323 C-10.2234,15.1293 -10.3179,14.9019 -10.3179,14.6499 L-10.3179,-1.34912 C-10.3179,-1.72705 -10.1429,-2.04199 -9.79297,-2.29395 L-0.302734,-7.98389 C-0.0647786,-8.09587 0.124186,-8.15186 0.26416,-8.15186 C0.376139,-8.15186 0.551107,-8.09587 0.789063,-7.98389 L10.2793,-2.29395 M9.81738,-1.34912 L0.26416,-7.12305 L-9.33105,-1.34912 L-9.33105,14.6499 L9.81738,14.6499 L9.81738,-1.34912 M5.47119,8.37207 L6.70996,11.5425 C6.84993,11.9764 6.82194,12.3718 6.62598,12.7288 C6.43001,13.0857 6.11507,13.3341 5.68115,13.4741 C5.65316,13.5301 5.61117,13.5581 5.55518,13.5581 C5.49919,13.5581 5.4432,13.5581 5.38721,13.5581 C5.03727,13.6141 4.71883,13.5441 4.43188,13.3481 C4.14494,13.1522 3.93148,12.8792 3.7915,12.5293 L2.11182,8.05713 L5.21924,8.37207 L5.47119,8.37207 M-0.197754,5.05469 L5.47119,5.47461 C5.75114,5.5306 5.99959,5.66707 6.21655,5.88403 C6.43351,6.10099 6.514,6.38444 6.45801,6.73438 C6.34603,7.28027 6.01709,7.60921 5.47119,7.72119 L5.30322,7.72119 L-0.890625,7.1123 C-1.18457,7.1123 -1.45752,6.98633 -1.70947,6.73438 L-2.96924,5.30664 L-2.96924,5.78955 C-2.94124,6.09749 -2.90275,6.42293 -2.85376,6.76587 C-2.80477,7.10881 -2.73828,7.43075 -2.6543,7.73169 C-2.57031,8.03263 -2.45833,8.27759 -2.31836,8.46655 C-2.17839,8.65552 -2.00342,8.736 -1.79346,8.70801 C-1.62549,8.45605 -1.45752,8.15511 -1.28955,7.80518 L-0.974609,7.80518 L1.94385,8.05713 C1.6779,8.68701 1.38745,9.32389 1.07251,9.96777 C0.757568,10.6117 0.393636,11.2135 -0.0192871,11.7734 C-0.43221,12.3333 -0.897624,12.8022 -1.41553,13.1802 C-1.93343,13.5581 -2.53532,13.7751 -3.22119,13.8311 L-3.38916,13.8311 L-3.55713,13.8311 L-3.55713,13.7471 C-3.85107,13.7471 -4.06803,13.7331 -4.20801,13.7051 C-4.31999,13.7051 -4.43197,13.6841 -4.54395,13.6421 C-4.97786,13.6141 -5.3313,13.4951 -5.60425,13.2852 C-5.8772,13.0752 -6.10815,12.8337 -6.29712,12.5608 C-6.48608,12.2878 -6.63656,11.9869 -6.74854,11.658 C-6.86051,11.329 -6.9585,11.0176 -7.04248,10.7236 C-7.30843,9.89779 -7.50439,8.99146 -7.63037,8.00464 C-7.75635,7.01782 -7.75635,6.0695 -7.63037,5.15967 C-7.50439,4.24984 -7.23145,3.42399 -6.81152,2.68213 C-6.3916,1.94027 -5.78271,1.39437 -4.98486,1.04443 C-4.35498,0.736491 -3.88257,0.684001 -3.56763,0.886963 C-3.25269,1.08993 -3.01823,1.30339 -2.86426,1.52734 L-2.86426,1.61133 L-0.197754,5.05469 M0.348145,4.36182 C0.726074,3.73193 1.146,3.26302 1.60791,2.95508 C1.83187,2.8291 2.05933,2.75212 2.29028,2.72412 C2.52124,2.69613 2.7347,2.72412 2.93066,2.80811 C3.42057,2.93408 3.76351,3.23503 3.95947,3.71094 L4.31641,4.69775 L0.348145,4.36182 M-1.05859,-2.29395 C-0.456706,-2.50391 0.127686,-2.46541 0.69458,-2.17847 C1.26147,-1.89152 1.6499,-1.43311 1.85986,-0.803223 C2.08382,-0.229329 2.04533,0.344564 1.74438,0.918457 C1.44344,1.49235 0.978027,1.89827 0.348145,2.13623 C-0.225749,2.36019 -0.799642,2.3217 -1.37354,2.02075 C-1.94743,1.71981 -2.34635,1.28239 -2.57031,0.708496 C-2.76628,0.0786133 -2.72428,-0.523275 -2.44434,-1.09717 C-2.16439,-1.67106 -1.70247,-2.06999 -1.05859,-2.29395 "/>
</g>

<g fill="#ec1d24" fill-opacity="1" stroke="none" transform="matrix(1,0,0,1,0,0)"
font-family="MS Shell Dlg 2" font-size="7.8" font-weight="400" font-style="normal" 
>
</g>
</g>
</svg>
