<svg xmlns="http://www.w3.org/2000/svg" version="1.2" viewBox="0 0 42.52 42.52" height="56.693" width="56.693">
   <g stroke-linejoin="bevel" stroke-linecap="square" fill-rule="evenodd" stroke="none" fill="none" font-weight="400"
      font-size="7.8" font-family="'MS Shell Dlg 2'">
      <path
         d="M42.52 21.26C42.52 33 33 42.52 21.26 42.52 9.518 42.52 0 33 0 21.26 0 9.518 9.518 0 21.26 0 33 0 42.52 9.518 42.52 21.26"
         vector-effect="non-scaling-stroke" fill="#ec1d24" />
      <path
         d="M31.54 14.43c.349.252.524.567.524.945v16c0 .251-.094.479-.283.682a.922.922 0 01-.704.304H11.93a.922.922 0 01-.704-.304.977.977 0 01-.283-.683V15.375c0-.378.175-.693.525-.945l9.49-5.69c.238-.111.427-.167.567-.167.112 0 .287.056.525.168l9.49 5.69m-.462.944l-9.553-5.774-9.595 5.774v16h19.148v-16m-4.346 9.722l1.239 3.17c.14.434.112.83-.084 1.186-.196.357-.511.606-.945.746-.028.056-.07.084-.126.084h-.168a1.277 1.277 0 01-.955-.21 1.749 1.749 0 01-.64-.82l-1.68-4.471 3.107.315h.252m-5.669-3.318l5.669.42c.28.056.528.193.745.41.217.216.298.5.242.85-.112.546-.441.875-.987.987h-.168l-6.194-.61c-.294 0-.567-.125-.819-.377l-1.26-1.428v.483c.029.308.067.633.116.976.05.343.116.665.2.966.084.301.196.546.335.735.14.189.315.27.525.241.168-.252.336-.552.504-.902h.315l2.919.252c-.266.63-.557 1.266-.872 1.91a11.68 11.68 0 01-1.091 1.806 6.497 6.497 0 01-1.397 1.407 3.48 3.48 0 01-1.805.65h-.336v-.083a3.64 3.64 0 01-.651-.042.95.95 0 01-.336-.063c-.434-.028-.787-.147-1.06-.357a3.235 3.235 0 01-.693-.725 3.636 3.636 0 01-.452-.903c-.112-.329-.21-.64-.294-.934a15.113 15.113 0 01-.588-2.719 10.75 10.75 0 010-2.845 6.9 6.9 0 01.82-2.477 3.79 3.79 0 011.826-1.638c.63-.308 1.102-.36 1.417-.158.315.203.55.417.704.64v.085l2.666 3.443m.546-.693c.378-.63.798-1.099 1.26-1.406.224-.126.451-.203.682-.231.231-.028.445 0 .64.084.49.126.833.426 1.03.902l.356.987-3.968-.336m-1.407-6.656a2.16 2.16 0 011.753.116c.567.287.956.745 1.166 1.375.224.574.185 1.148-.116 1.722-.3.574-.766.98-1.396 1.218-.574.224-1.148.185-1.722-.116-.574-.3-.973-.738-1.196-1.312a2.371 2.371 0 01.125-1.806c.28-.574.742-.973 1.386-1.197"
         fill-opacity=".949" fill="#fff" />
   </g>
</svg>