<?xml version="1.0" encoding="UTF-8" standalone="no"?>
<svg width="11.25008mm" height="11.25008mm"
 viewBox="-5.3 -5.3 42.52000 42.52000"
 xmlns="http://www.w3.org/2000/svg" xmlns:xlink="http://www.w3.org/1999/xlink"  version="1.2" baseProfile="tiny">
<title>Qt SVG Document</title>
<desc>Generated with Qt</desc>
<defs>
</defs>
<g fill="none" stroke="black" stroke-width="1" fill-rule="evenodd" stroke-linecap="square" stroke-linejoin="bevel" >

<g fill="#ec1d24" fill-opacity="1" stroke="none" transform="matrix(1,0,0,1,0,0)"
font-family="MS Shell Dlg 2" font-size="7.8" font-weight="400" font-style="normal" 
>
<path vector-effect="non-scaling-stroke" fill-rule="evenodd" d="M37.2598,16 C37.2598,27.7415 27.7415,37.2598 16,37.2598 C4.25851,37.2598 -5.25984,27.7415 -5.25984,16 C-5.25984,4.25851 4.25851,-5.25984 16,-5.25984 C27.7415,-5.25984 37.2598,4.25851 37.2598,16 "/>
</g>

<g fill="#ffffff" fill-opacity="0.94902" stroke="none" transform="matrix(1,0,0,1,16,13.1654)"
font-family="MS Shell Dlg 2" font-size="7.8" font-weight="400" font-style="normal" 
>
<path vector-effect="none" fill-rule="evenodd" d="M11.623,-1.26514 C11.2451,-0.929199 11.0002,-0.666748 10.8882,-0.477783 C10.7762,-0.288818 10.6922,-0.0193685 10.6362,0.330566 C10.5802,0.778483 10.5802,1.2264 10.6362,1.67432 C10.6922,2.12223 10.7482,2.59115 10.8042,3.08105 C10.9442,3.73893 11.0422,4.4248 11.0981,5.13867 C11.1541,5.85254 11.1121,6.5804 10.9722,7.32227 C10.7202,8.79199 10.1183,10.0553 9.1665,11.1121 C8.21468,12.1689 6.84993,13.0332 5.07227,13.7051 C4.49837,13.957 3.85449,14.2895 3.14063,14.7024 C2.42676,15.1153 1.88086,15.5387 1.50293,15.9727 C1.33496,16.1406 1.1425,16.2911 0.925537,16.4241 C0.708577,16.557 0.488118,16.6235 0.26416,16.6235 C0.012207,16.6235 -0.222249,16.557 -0.439209,16.4241 C-0.656169,16.2911 -0.848633,16.1406 -1.0166,15.9727 C-1.39453,15.5387 -1.94043,15.1153 -2.6543,14.7024 C-3.36816,14.2895 -4.01204,13.957 -4.58594,13.7051 C-8.0013,12.3753 -9.96794,10.2477 -10.4858,7.32227 C-10.6258,6.5804 -10.6678,5.85254 -10.6118,5.13867 C-10.5558,4.4248 -10.4578,3.73893 -10.3179,3.08105 C-10.2619,2.59115 -10.2024,2.12223 -10.1394,1.67432 C-10.0764,1.2264 -10.0799,0.778483 -10.1499,0.330566 C-10.1499,-0.0193685 -10.2199,-0.28182 -10.3599,-0.456787 C-10.4998,-0.631755 -10.7308,-0.87321 -11.0527,-1.18115 C-11.2767,-1.40511 -11.4307,-1.66056 -11.5146,-1.94751 C-11.5986,-2.23446 -11.6126,-2.5109 -11.5566,-2.77686 C-11.4167,-3.23877 -11.2802,-3.66919 -11.1472,-4.06812 C-11.0142,-4.46704 -10.8358,-4.86947 -10.6118,-5.27539 C-10.3319,-5.79329 -9.86296,-6.05225 -9.20508,-6.05225 L-8.72217,-6.05225 C-8.37223,-5.89827 -8.0048,-5.80029 -7.61987,-5.7583 C-7.23494,-5.71631 -6.83952,-5.69531 -6.43359,-5.69531 C-5.35579,-5.69531 -4.29899,-5.87378 -3.26318,-6.23071 C-2.22738,-6.58765 -1.42253,-7.08105 -0.848633,-7.71094 C-0.568685,-8.00488 -0.197754,-8.15186 0.26416,-8.15186 C0.670085,-8.15186 1.05501,-8.00488 1.41895,-7.71094 C1.99284,-7.08105 2.78369,-6.58765 3.7915,-6.23071 C4.79932,-5.87378 5.84212,-5.69531 6.91992,-5.69531 C7.32585,-5.69531 7.72127,-5.71631 8.1062,-5.7583 C8.49113,-5.80029 8.85856,-5.89827 9.2085,-6.05225 L9.69141,-6.05225 C10.3493,-6.05225 10.8042,-5.79329 11.0562,-5.27539 C11.2801,-4.86947 11.4796,-4.46704 11.6545,-4.06812 C11.8295,-3.66919 11.959,-3.23877 12.043,-2.77686 C12.099,-2.5109 12.085,-2.23446 12.001,-1.94751 C11.917,-1.66056 11.791,-1.43311 11.623,-1.26514 M9.46045,0.225586 C9.51644,-0.33431 9.66691,-0.76473 9.91187,-1.06567 C10.1568,-1.36662 10.4543,-1.70605 10.8042,-2.08398 C10.9442,-2.22396 10.9722,-2.37093 10.8882,-2.5249 C10.7202,-3.29476 10.4613,-4.02262 10.1113,-4.7085 C10.0273,-4.87646 9.88737,-4.96045 9.69141,-4.96045 L9.54443,-4.87646 C9.12451,-4.73649 8.70459,-4.64551 8.28467,-4.60352 C7.86475,-4.56152 7.40983,-4.54053 6.91992,-4.54053 C5.71615,-4.54053 4.53687,-4.76099 3.38208,-5.2019 C2.22729,-5.64282 1.28597,-6.22721 0.558105,-6.95508 C0.502116,-7.01107 0.404134,-7.03906 0.26416,-7.03906 C0.0961914,-7.03906 -0.0157878,-7.01107 -0.0717773,-6.95508 C-0.799642,-6.22721 -1.74097,-5.64282 -2.89575,-5.2019 C-4.05054,-4.76099 -5.22982,-4.54053 -6.43359,-4.54053 C-6.86751,-4.54053 -7.30843,-4.56152 -7.75635,-4.60352 C-8.20426,-4.64551 -8.62419,-4.73649 -9.01611,-4.87646 C-9.0721,-4.87646 -9.1141,-4.89046 -9.14209,-4.91846 C-9.18408,-4.91846 -9.20508,-4.93245 -9.20508,-4.96045 C-9.40104,-4.96045 -9.54102,-4.87646 -9.625,-4.7085 C-9.97493,-4.02262 -10.2339,-3.29476 -10.4019,-2.5249 C-10.4858,-2.37093 -10.4578,-2.22396 -10.3179,-2.08398 C-9.91195,-1.70605 -9.6075,-1.36662 -9.40454,-1.06567 C-9.20158,-0.76473 -9.0721,-0.33431 -9.01611,0.225586 C-8.96012,0.715495 -8.96712,1.2194 -9.03711,1.7373 C-9.1071,2.25521 -9.19108,2.75911 -9.28906,3.24902 C-9.37305,3.87891 -9.44303,4.51579 -9.49902,5.15967 C-9.55501,5.80355 -9.51302,6.42643 -9.37305,7.02832 C-9.13509,8.37207 -8.60319,9.48836 -7.77734,10.3772 C-6.9515,11.266 -5.76172,12.0394 -4.20801,12.6973 C-4.04004,12.7673 -3.78459,12.8792 -3.44165,13.0332 C-3.09871,13.1872 -2.72428,13.3726 -2.31836,13.5896 C-1.91243,13.8066 -1.51701,14.0585 -1.13208,14.3455 C-0.747152,14.6324 -0.421712,14.9438 -0.155762,15.2798 C-0.0437826,15.3918 0.0961914,15.4478 0.26416,15.4478 C0.404134,15.4478 0.530111,15.3918 0.64209,15.2798 C0.90804,14.9438 1.23348,14.6324 1.61841,14.3455 C2.00334,14.0585 2.39876,13.8066 2.80469,13.5896 C3.21061,13.3726 3.58504,13.1872 3.92798,13.0332 C4.27091,12.8792 4.52637,12.7673 4.69434,12.6973 C6.24805,12.0394 7.43783,11.266 8.26367,10.3772 C9.08952,9.48836 9.64941,8.37207 9.94336,7.02832 C10.0273,6.42643 10.0413,5.81055 9.98535,5.18066 C9.92936,4.55078 9.85938,3.9069 9.77539,3.24902 C9.64941,2.70313 9.55143,2.18522 9.48145,1.69531 C9.41146,1.2054 9.40446,0.715495 9.46045,0.225586 M6.91992,-3.93164 C7.40983,-3.93164 7.87874,-3.96663 8.32666,-4.03662 C8.77458,-4.10661 9.22949,-4.19059 9.69141,-4.28857 C9.83138,-3.96663 9.95736,-3.64819 10.0693,-3.33325 C10.1813,-3.01831 10.2793,-2.68587 10.3633,-2.33594 C10.0273,-2.05599 9.7159,-1.73755 9.42896,-1.38062 C9.14201,-1.02368 8.95654,-0.516276 8.87256,0.141602 C8.81657,0.6875 8.82357,1.2334 8.89355,1.7793 C8.96354,2.3252 9.04053,2.8431 9.12451,3.33301 C9.2085,3.99089 9.27848,4.61377 9.33447,5.20166 C9.39046,5.78955 9.37646,6.37044 9.29248,6.94434 C9.06852,8.14811 8.56812,9.16642 7.79126,9.99927 C7.0144,10.8321 5.89811,11.5355 4.44238,12.1094 C4.26042,12.1654 3.99797,12.2703 3.65503,12.4243 C3.31209,12.5783 2.93416,12.7708 2.52124,13.0017 C2.10832,13.2327 1.70239,13.4916 1.30347,13.7786 C0.904541,14.0655 0.558105,14.384 0.26416,14.7339 C-0.0437826,14.384 -0.400716,14.0655 -0.806641,13.7786 C-1.21257,13.4916 -1.62199,13.2327 -2.03491,13.0017 C-2.44784,12.7708 -2.82576,12.5783 -3.1687,12.4243 C-3.51164,12.2703 -3.77409,12.1654 -3.95605,12.1094 C-5.41178,11.5355 -6.51408,10.8321 -7.26294,9.99927 C-8.0118,9.16642 -8.49821,8.14811 -8.72217,6.94434 C-8.86214,6.37044 -8.90413,5.78255 -8.84814,5.18066 C-8.79215,4.57878 -8.72217,3.96289 -8.63818,3.33301 C-8.5542,2.8431 -8.47721,2.3252 -8.40723,1.7793 C-8.33724,1.2334 -8.33024,0.6875 -8.38623,0.141602 C-8.44222,-0.516276 -8.60669,-1.03068 -8.87964,-1.40161 C-9.15259,-1.77254 -9.48503,-2.14697 -9.87695,-2.5249 C-9.79297,-2.77686 -9.68799,-3.0533 -9.56201,-3.35425 C-9.43604,-3.65519 -9.28206,-3.96663 -9.1001,-4.28857 C-8.70817,-4.19059 -8.28825,-4.10661 -7.84033,-4.03662 C-7.39242,-3.96663 -6.9235,-3.93164 -6.43359,-3.93164 C-5.14583,-3.93164 -3.89307,-4.1556 -2.67529,-4.60352 C-1.45752,-5.05143 -0.477702,-5.64632 0.26416,-6.38818 C1.00602,-5.64632 1.97884,-5.05143 3.18262,-4.60352 C4.38639,-4.1556 5.63216,-3.93164 6.91992,-3.93164 M4.3584,10.8496 C4.9043,10.3037 5.31722,9.68083 5.59717,8.98096 C5.87712,8.28109 5.9891,7.57422 5.93311,6.86035 C5.93311,6.53841 5.89811,6.10799 5.82813,5.56909 C5.75814,5.03019 5.50618,4.34082 5.07227,3.50098 C4.93229,3.33301 4.81331,3.16154 4.71533,2.98657 C4.61735,2.8116 4.52637,2.65413 4.44238,2.51416 C4.20443,2.16423 4.00146,1.82479 3.8335,1.49585 C3.66553,1.16691 3.58154,0.778483 3.58154,0.330566 C3.58154,0.260579 3.57454,0.183594 3.56055,0.0996094 C3.54655,0.015625 3.47656,-0.0263672 3.35059,-0.0263672 C3.18262,-0.0263672 3.05664,0.1521 2.97266,0.509033 C2.88867,0.865967 2.81868,1.16341 2.7627,1.40137 C2.7627,1.62533 2.7627,1.85278 2.7627,2.08374 C2.7627,2.3147 2.79069,2.52816 2.84668,2.72412 C2.93066,3.47998 2.87467,3.8859 2.67871,3.94189 C2.49674,3.94189 2.37077,3.87541 2.30078,3.74243 C2.23079,3.60946 2.12581,3.41699 1.98584,3.16504 C1.78988,2.78711 1.55542,2.34619 1.28247,1.84229 C1.00952,1.33838 0.5861,0.771484 0.012207,0.141602 C-0.393717,-0.27832 -0.617676,-0.726237 -0.659668,-1.20215 C-0.70166,-1.67806 -0.652669,-2.11548 -0.512695,-2.5144 C-0.372721,-2.91333 -0.187256,-3.27726 0.0437012,-3.6062 C0.274658,-3.93514 0.474121,-4.19059 0.64209,-4.37256 C0.740072,-4.56852 0.775065,-4.6805 0.74707,-4.7085 C0.74707,-4.76449 0.712077,-4.79248 0.64209,-4.79248 C0.5861,-4.79248 0.551107,-4.78548 0.537109,-4.77148 C0.523112,-4.75749 0.474121,-4.7085 0.390137,-4.62451 C-1.41553,-3.47673 -2.44434,-2.21696 -2.69629,-0.845215 C-2.93424,0.414551 -2.56331,1.72331 -1.5835,3.08105 C-1.17757,3.71094 -1.0516,4.17985 -1.20557,4.48779 C-1.37354,4.72575 -1.5555,4.84473 -1.75146,4.84473 C-2.1014,4.78874 -2.33936,4.64526 -2.46533,4.41431 C-2.59131,4.18335 -2.71029,3.9069 -2.82227,3.58496 C-2.92025,3.27702 -3.03923,2.95858 -3.1792,2.62964 C-3.31917,2.3007 -3.55013,2.00326 -3.87207,1.7373 C-4.236,1.37337 -4.62793,1.10392 -5.04785,0.928955 C-5.46777,0.753988 -5.78971,0.666504 -6.01367,0.666504 C-6.06966,0.666504 -6.11165,0.680501 -6.13965,0.708496 C-6.22363,0.764486 -6.26563,0.806478 -6.26563,0.834473 C-6.26563,0.862467 -6.20964,0.967448 -6.09766,1.14941 C-5.43978,1.65332 -5.06185,2.13623 -4.96387,2.59814 C-4.86589,3.06006 -4.85889,3.66195 -4.94287,4.40381 C-4.99886,4.66976 -5.02686,4.9742 -5.02686,5.31714 C-5.02686,5.66007 -5.02686,6.02751 -5.02686,6.41943 C-5.02686,7.94515 -4.55444,9.24691 -3.60962,10.3247 C-2.66479,11.4025 -1.42952,12.0534 0.0961914,12.2773 C0.236165,12.3333 0.355143,12.3613 0.453125,12.3613 C0.551107,12.3613 0.677083,12.3613 0.831055,12.3613 C1.48893,12.3613 2.11882,12.2319 2.7207,11.9729 C3.32259,11.7139 3.86849,11.3395 4.3584,10.8496 "/>
</g>

<g fill="#ec1d24" fill-opacity="1" stroke="none" transform="matrix(1,0,0,1,0,0)"
font-family="MS Shell Dlg 2" font-size="7.8" font-weight="400" font-style="normal" 
>
</g>
</g>
</svg>
