<svg xmlns="http://www.w3.org/2000/svg" version="1.2" viewBox="0 0 42.52 42.52" height="56.693" width="56.693">
   <g stroke-linejoin="bevel" stroke-linecap="square" fill-rule="evenodd" stroke="none" fill="none" font-weight="400"
      font-size="7.8" font-family="'MS Shell Dlg 2'">
      <path
         d="M42.52 21.26C42.52 33 33 42.52 21.26 42.52 9.518 42.52 0 33 0 21.26 0 9.518 9.518 0 21.26 0 33 0 42.52 9.518 42.52 21.26"
         vector-effect="non-scaling-stroke" fill="#ec1d24" />
      <path
         d="M32.883 17.16c-.378.336-.623.598-.735.787-.112.19-.196.459-.252.809a5.395 5.395 0 000 1.344c.056.447.112.916.168 1.406.14.658.238 1.344.294 2.058a8.256 8.256 0 01-.126 2.184c-.252 1.47-.854 2.733-1.806 3.79-.951 1.056-2.316 1.92-4.094 2.592a19.9 19.9 0 00-1.932.998c-.713.413-1.26.836-1.637 1.27-.168.168-.36.318-.578.451-.217.133-.437.2-.661.2-.252 0-.486-.067-.703-.2a3.115 3.115 0 01-.578-.451c-.378-.434-.924-.857-1.637-1.27a19.9 19.9 0 00-1.932-.998c-3.415-1.33-5.382-3.457-5.9-6.382a8.252 8.252 0 01-.126-2.184c.056-.714.154-1.4.294-2.058.056-.49.115-.959.178-1.406a4.55 4.55 0 00-.01-1.344c0-.35-.07-.613-.21-.788a8.228 8.228 0 00-.693-.724 1.778 1.778 0 01-.504-1.596c.14-.462.277-.892.41-1.29.133-.4.311-.802.535-1.208.28-.518.749-.777 1.407-.777h.483c.35.154.717.252 1.102.294.385.042.78.063 1.186.063a9.668 9.668 0 003.17-.535c1.036-.357 1.841-.85 2.415-1.48.28-.295.651-.442 1.113-.442.406 0 .79.147 1.155.441.574.63 1.365 1.124 2.372 1.48a9.303 9.303 0 003.129.536c.406 0 .801-.021 1.186-.063.385-.042.752-.14 1.102-.294h.483c.658 0 1.113.259 1.365.777.224.406.423.808.598 1.207.175.4.305.83.389 1.291.056.266.042.543-.042.83-.084.287-.21.514-.378.682m-2.163 1.49c.056-.56.207-.99.452-1.29.245-.301.542-.64.892-1.019.14-.14.168-.287.084-.44a9.007 9.007 0 00-.777-2.184.434.434 0 00-.42-.252l-.147.084a5.8 5.8 0 01-1.26.273c-.42.042-.874.063-1.364.063a9.843 9.843 0 01-3.538-.662c-1.155-.44-2.096-1.025-2.824-1.753-.056-.056-.154-.084-.294-.084-.168 0-.28.028-.336.084-.728.728-1.67 1.312-2.824 1.753a9.843 9.843 0 01-3.538.662c-.434 0-.875-.021-1.323-.063a5.165 5.165 0 01-1.26-.273c-.055 0-.097-.014-.125-.042-.042 0-.063-.014-.063-.042a.434.434 0 00-.42.252 9.01 9.01 0 00-.777 2.183c-.084.154-.056.301.084.441.406.378.71.718.913 1.019.203.3.333.73.389 1.29.056.49.049.995-.021 1.513-.07.517-.154 1.021-.252 1.511a41.95 41.95 0 00-.21 1.91 5.932 5.932 0 00.126 1.87c.238 1.343.77 2.46 1.596 3.348.825.89 2.015 1.663 3.569 2.32.168.07.423.182.766.336.343.154.718.34 1.123.557.406.217.802.469 1.187.756.385.287.71.598.976.934a.57.57 0 00.42.168c.14 0 .266-.056.378-.168.266-.336.591-.647.976-.934.385-.287.78-.54 1.187-.756.405-.217.78-.403 1.123-.557.343-.154.598-.265.766-.335 1.554-.658 2.744-1.432 3.57-2.32.825-.89 1.385-2.006 1.68-3.35a8.13 8.13 0 00.041-1.847 50.72 50.72 0 00-.21-1.932 18.67 18.67 0 01-.294-1.553 5.74 5.74 0 01-.02-1.47m-2.541-4.157c.49 0 .959-.035 1.407-.105a25.7 25.7 0 001.364-.252c.14.322.266.64.378.955.112.315.21.647.294.997-.336.28-.647.599-.934.956-.287.357-.473.864-.557 1.522a7.122 7.122 0 00.021 1.638c.07.545.147 1.063.231 1.553.084.658.154 1.281.21 1.869a7.247 7.247 0 01-.042 1.743c-.224 1.203-.724 2.222-1.5 3.055-.778.832-1.894 1.536-3.35 2.11-.182.056-.444.16-.787.315-.343.154-.721.346-1.134.577-.413.23-.819.49-1.218.777a5.677 5.677 0 00-1.039.955 6.135 6.135 0 00-1.07-.955 14.637 14.637 0 00-2.362-1.354 7.478 7.478 0 00-.788-.315c-1.456-.574-2.558-1.278-3.307-2.11-.749-.833-1.235-1.852-1.46-3.055a5.315 5.315 0 01-.125-1.764 46.74 46.74 0 01.21-1.848c.084-.49.16-1.008.23-1.553.07-.546.078-1.092.022-1.638-.056-.658-.22-1.172-.494-1.543a8.92 8.92 0 00-.997-1.124c.084-.252.189-.528.315-.829.126-.301.28-.612.462-.934.392.098.812.182 1.26.252.447.07.916.105 1.406.105 1.288 0 2.54-.224 3.759-.672 1.217-.448 2.197-1.043 2.939-1.785.742.742 1.715 1.337 2.918 1.785 1.204.448 2.45.672 3.738.672m-2.562 14.78a5.52 5.52 0 001.239-1.868c.28-.7.392-1.407.336-2.12 0-.322-.035-.753-.105-1.292-.07-.539-.322-1.228-.756-2.068a3.4 3.4 0 01-.357-.514 18.34 18.34 0 00-.273-.473c-.238-.35-.44-.689-.609-1.018-.168-.329-.252-.717-.252-1.165 0-.07-.007-.147-.02-.231-.015-.084-.085-.126-.21-.126-.169 0-.295.178-.379.535-.083.357-.153.655-.21.893v.682c0 .23.029.444.085.64.083.756.028 1.162-.168 1.218-.182 0-.308-.066-.378-.2a31.52 31.52 0 00-.315-.577c-.196-.378-.43-.819-.704-1.322-.273-.504-.696-1.071-1.27-1.701-.406-.42-.63-.868-.672-1.344a3.101 3.101 0 01.147-1.312c.14-.4.326-.763.557-1.092.23-.329.43-.584.598-.766.098-.196.133-.308.105-.336 0-.056-.035-.084-.105-.084-.056 0-.091.007-.105.02l-.147.148c-1.806 1.148-2.835 2.407-3.086 3.779-.238 1.26.133 2.569 1.112 3.926.406.63.532 1.1.378 1.407-.168.238-.35.357-.546.357-.35-.056-.588-.2-.713-.43a5.551 5.551 0 01-.357-.83 10.838 10.838 0 00-.357-.955 2.363 2.363 0 00-.693-.892 3.652 3.652 0 00-1.176-.809c-.42-.175-.742-.262-.966-.262-.056 0-.098.014-.126.042-.084.056-.126.098-.126.126 0 .028.056.133.168.315.658.504 1.036.986 1.134 1.448.098.462.105 1.064.021 1.806-.056.266-.084.57-.084.913v1.103c0 1.525.472 2.827 1.417 3.905.945 1.078 2.18 1.729 3.706 1.953.14.056.259.084.357.084h.378c.658 0 1.288-.13 1.89-.389a5.227 5.227 0 001.637-1.123"
         fill-opacity=".949" fill="#fff" />
   </g>
</svg>