<?xml version="1.0" encoding="UTF-8" standalone="no"?>
<svg
   xmlns:dc="http://purl.org/dc/elements/1.1/"
   xmlns:cc="http://creativecommons.org/ns#"
   xmlns:rdf="http://www.w3.org/1999/02/22-rdf-syntax-ns#"
   xmlns:svg="http://www.w3.org/2000/svg"
   xmlns="http://www.w3.org/2000/svg"
   xmlns:sodipodi="http://sodipodi.sourceforge.net/DTD/sodipodi-0.dtd"
   xmlns:inkscape="http://www.inkscape.org/namespaces/inkscape"
   inkscape:version="1.0 (4035a4fb49, 2020-05-01)"
   sodipodi:docname="2413.svg"
   id="svg20"
   version="1.2"
   viewBox="0 0 42.519639 42.519639"
   height="14.999999mm"
   width="14.999999mm">
  <metadata
     id="metadata24">
    <rdf:RDF>
      <cc:Work
         rdf:about="">
        <dc:format>image/svg+xml</dc:format>
        <dc:type
           rdf:resource="http://purl.org/dc/dcmitype/StillImage" />
        <dc:title>Qt SVG Document</dc:title>
      </cc:Work>
    </rdf:RDF>
  </metadata>
  <sodipodi:namedview
     inkscape:current-layer="svg20"
     inkscape:window-maximized="0"
     inkscape:window-y="0"
     inkscape:window-x="0"
     inkscape:cy="28.346482"
     inkscape:cx="28.346482"
     inkscape:zoom="5.8410537"
     showgrid="false"
     id="namedview22"
     inkscape:window-height="480"
     inkscape:window-width="1034"
     inkscape:pageshadow="2"
     inkscape:pageopacity="0"
     guidetolerance="10"
     gridtolerance="10"
     objecttolerance="10"
     borderopacity="1"
     bordercolor="#666666"
     pagecolor="#ffffff" />
  <title
     id="title2">Qt SVG Document</title>
  <desc
     id="desc4">Generated with Qt</desc>
  <defs
     id="defs6" />
  <g
     transform="translate(5.25984,5.25984)"
     id="g18"
     stroke-linejoin="bevel"
     stroke-linecap="square"
     fill-rule="evenodd"
     stroke-width="1"
     stroke="#000000"
     fill="none">
    <g
       id="g10"
       font-style="normal"
       font-weight="400"
       font-size="7.8px"
       font-family="'MS Shell Dlg 2'"
       stroke="none"
       fill-opacity="1"
       fill="#ec1d24">
      <path
         id="path8"
         d="M 37.2598,16 C 37.2598,27.7415 27.7415,37.2598 16,37.2598 4.25851,37.2598 -5.25984,27.7415 -5.25984,16 -5.25984,4.25851 4.25851,-5.25984 16,-5.25984 27.7415,-5.25984 37.2598,4.25851 37.2598,16"
         fill-rule="evenodd"
         vector-effect="non-scaling-stroke" />
    </g>
    <g
       id="g14"
       font-style="normal"
       font-weight="400"
       font-size="7.8px"
       font-family="'MS Shell Dlg 2'"
       transform="translate(15.4331,11.4646)"
       stroke="none"
       fill-opacity="0.94902"
       fill="#ffffff">
      <path
         id="path12"
         d="m -9.58301,1.2334 v 10.834 h -1.67969 c -0.3359,0 -0.6334,-0.1295 -0.8923,-0.3884 -0.259,-0.259 -0.3885,-0.5494 -0.3885,-0.8714 V 2.47217 c 0,-0.37793 0.1295,-0.67888 0.3885,-0.90283 0.2589,-0.22396 0.5564,-0.33594 0.8923,-0.33594 h 1.67969 M 11.1821,1.40137 c 0.5459,0 0.9903,0.16447 1.3333,0.49341 0.3429,0.32893 0.5144,0.72436 0.5144,1.18627 V 15.0278 H 2.7627 v -2.9604 h 7.4746 V 10.6396 H 4.16943 L 11.1821,1.40137 M 2.67871,10.0308 V 4.02588 C 1.69889,5.28564 0.838053,6.41943 0.0961914,7.42725 -0.253743,7.84717 -0.586182,8.26709 -0.901123,8.68701 -1.21606,9.10693 -1.50301,9.48836 -1.76196,9.8313 c -0.25895,0.3429 -0.47941,0.6369 -0.66138,0.8818 -0.18197,0.245 -0.30094,0.3955 -0.35693,0.4515 -0.23796,0.2799 -0.5424,0.4479 -0.91333,0.5039 -0.37093,0.0559 -0.71737,-0.056 -1.03931,-0.336 -0.25195,-0.2379 -0.41292,-0.5354 -0.48291,-0.8923 -0.06999,-0.3569 0.03499,-0.67539 0.31494,-0.95534 0.05599,-0.08398 0.17847,-0.25545 0.36743,-0.5144 0.18897,-0.25895 0.42692,-0.5669 0.71387,-0.92383 C -3.53263,7.6897 -3.21769,7.28027 -2.87476,6.81836 -2.53182,6.35645 -2.18538,5.89453 -1.83545,5.43262 -1.0376,4.34082 -0.120768,3.13704 0.915039,1.82129 1.16699,1.48535 1.56592,1.31738 2.11182,1.31738 H 9.33447 L 2.67871,10.0308 M -9.58301,12.0674 H 1.25098 v 1.7637 c 0,0.3359 -0.11548,0.6193 -0.346439,0.8503 -0.230957,0.231 -0.528402,0.3464 -0.892334,0.3464 H -8.34424 c -0.30794,0 -0.59139,-0.1154 -0.85034,-0.3464 -0.25895,-0.231 -0.38843,-0.5144 -0.38843,-0.8503 V 12.0674 M 3.62354,-4.58252 2.32178,-6.68213 h 7.36963 v 2.09961 H 3.62354 m 0,0.60889 h 6.06787 v 1.49072 c 0,0.81185 -0.27995,1.490722 -0.83985,2.036621 C 8.29167,0.0996094 7.60579,0.372559 6.79395,0.372559 5.99609,0.372559 5.32422,0.0996094 4.77832,-0.446289 4.23242,-0.992188 3.95947,-1.67106 3.95947,-2.48291 H 2.51074 l 1.1128,-1.49072"
         fill-rule="evenodd"
         vector-effect="none" />
    </g>
    <g
       id="g16"
       font-style="normal"
       font-weight="400"
       font-size="7.8px"
       font-family="'MS Shell Dlg 2'"
       stroke="none"
       fill-opacity="1"
       fill="#ec1d24" />
  </g>
</svg>
