<?xml version="1.0" encoding="UTF-8" standalone="no"?>
<svg width="11.25008mm" height="11.25008mm"
 viewBox="-5.3 -5.3 42.52000 42.52000"
 xmlns="http://www.w3.org/2000/svg" xmlns:xlink="http://www.w3.org/1999/xlink"  version="1.2" baseProfile="tiny">
<title>Qt SVG Document</title>
<desc>Generated with Qt</desc>
<defs>
</defs>
<g fill="none" stroke="black" stroke-width="1" fill-rule="evenodd" stroke-linecap="square" stroke-linejoin="bevel" >

<g fill="#ec1d24" fill-opacity="1" stroke="none" transform="matrix(1,0,0,1,0,0)"
font-family="MS Shell Dlg 2" font-size="7.8" font-weight="400" font-style="normal" 
>
<path vector-effect="non-scaling-stroke" fill-rule="evenodd" d="M37.2598,16 C37.2598,27.7415 27.7415,37.2598 16,37.2598 C4.25851,37.2598 -5.25984,27.7415 -5.25984,16 C-5.25984,4.25851 4.25851,-5.25984 16,-5.25984 C27.7415,-5.25984 37.2598,4.25851 37.2598,16 "/>
</g>

<g fill="#ffffff" fill-opacity="0.94902" stroke="none" transform="matrix(1,0,0,1,15.4331,11.4646)"
font-family="MS Shell Dlg 2" font-size="7.8" font-weight="400" font-style="normal" 
>
<path vector-effect="none" fill-rule="evenodd" d="M-9.58301,1.2334 L-9.58301,12.0674 L-11.2627,12.0674 C-11.5986,12.0674 -11.8961,11.9379 -12.155,11.679 C-12.414,11.42 -12.5435,11.1296 -12.5435,10.8076 L-12.5435,2.47217 C-12.5435,2.09424 -12.414,1.79329 -12.155,1.56934 C-11.8961,1.34538 -11.5986,1.2334 -11.2627,1.2334 L-9.58301,1.2334 M11.1821,1.40137 C11.728,1.40137 12.1724,1.56584 12.5154,1.89478 C12.8583,2.22371 13.0298,2.61914 13.0298,3.08105 L13.0298,15.0278 L2.7627,15.0278 L2.7627,12.0674 L10.2373,12.0674 L10.2373,10.6396 L4.16943,10.6396 L11.1821,1.40137 M2.67871,10.0308 L2.67871,4.02588 C1.69889,5.28564 0.838053,6.41943 0.0961914,7.42725 C-0.253743,7.84717 -0.586182,8.26709 -0.901123,8.68701 C-1.21606,9.10693 -1.50301,9.48836 -1.76196,9.8313 C-2.02091,10.1742 -2.24137,10.4682 -2.42334,10.7131 C-2.60531,10.9581 -2.72428,11.1086 -2.78027,11.1646 C-3.01823,11.4445 -3.32267,11.6125 -3.6936,11.6685 C-4.06453,11.7244 -4.41097,11.6125 -4.73291,11.3325 C-4.98486,11.0946 -5.14583,10.7971 -5.21582,10.4402 C-5.28581,10.0833 -5.18083,9.76481 -4.90088,9.48486 C-4.84489,9.40088 -4.72241,9.22941 -4.53345,8.97046 C-4.34448,8.71151 -4.10653,8.40356 -3.81958,8.04663 C-3.53263,7.6897 -3.21769,7.28027 -2.87476,6.81836 C-2.53182,6.35645 -2.18538,5.89453 -1.83545,5.43262 C-1.0376,4.34082 -0.120768,3.13704 0.915039,1.82129 C1.16699,1.48535 1.56592,1.31738 2.11182,1.31738 L9.33447,1.31738 L2.67871,10.0308 M-9.58301,12.0674 L1.25098,12.0674 L1.25098,13.8311 C1.25098,14.167 1.1355,14.4504 0.904541,14.6814 C0.673584,14.9124 0.376139,15.0278 0.012207,15.0278 L-8.34424,15.0278 C-8.65218,15.0278 -8.93563,14.9124 -9.19458,14.6814 C-9.45353,14.4504 -9.58301,14.167 -9.58301,13.8311 L-9.58301,12.0674 M3.62354,-4.58252 L2.32178,-6.68213 L9.69141,-6.68213 L9.69141,-4.58252 L3.62354,-4.58252 M3.62354,-3.97363 L9.69141,-3.97363 L9.69141,-2.48291 C9.69141,-1.67106 9.41146,-0.992188 8.85156,-0.446289 C8.29167,0.0996094 7.60579,0.372559 6.79395,0.372559 C5.99609,0.372559 5.32422,0.0996094 4.77832,-0.446289 C4.23242,-0.992188 3.95947,-1.67106 3.95947,-2.48291 L2.51074,-2.48291 L3.62354,-3.97363"/>
</g>

<g fill="#ec1d24" fill-opacity="1" stroke="none" transform="matrix(1,0,0,1,0,0)"
font-family="MS Shell Dlg 2" font-size="7.8" font-weight="400" font-style="normal" 
>
</g>
</g>
</svg>
