<svg xmlns="http://www.w3.org/2000/svg" version="1.2" viewBox="0 0 42.52 42.52" height="56.693" width="56.693">
   <g stroke-linejoin="bevel" stroke-linecap="square" fill-rule="evenodd" stroke="none" fill="none" font-weight="400"
      font-size="7.8" font-family="'MS Shell Dlg 2'">
      <path
         d="M42.52 21.26C42.52 33 33 42.52 21.26 42.52 9.518 42.52 0 33 0 21.26 0 9.518 9.518 0 21.26 0 33 0 42.52 9.518 42.52 21.26"
         vector-effect="non-scaling-stroke" fill="#ec1d24" />
      <path
         d="M11.11 17.958v10.834H9.43c-.336 0-.633-.13-.892-.389-.26-.259-.389-.549-.389-.871v-8.335c0-.378.13-.68.389-.903.259-.224.556-.336.892-.336h1.68m20.765.168c.546 0 .99.164 1.333.493.343.33.515.725.515 1.186v11.947H23.456v-2.96h7.474v-1.428h-6.068l7.013-9.238m-8.503 8.63V20.75c-.98 1.26-1.841 2.394-2.583 3.402-.35.42-.682.84-.997 1.26l-.861 1.144c-.259.343-.48.637-.661.882-.182.245-.301.395-.357.451-.238.28-.543.448-.914.504-.37.056-.717-.056-1.039-.336a1.624 1.624 0 01-.483-.892c-.07-.357.035-.676.315-.956a25.588 25.588 0 011.081-1.438c.287-.357.602-.766.945-1.228.343-.462.69-.924 1.04-1.386a127.771 127.771 0 012.75-3.611c.252-.336.65-.504 1.197-.504h7.222l-6.655 8.713M11.11 28.792h10.834v1.764c0 .335-.116.619-.347.85-.23.23-.528.346-.892.346H12.35c-.308 0-.592-.115-.85-.346a1.096 1.096 0 01-.39-.85v-1.764m13.207-16.65l-1.301-2.1h7.37v2.1h-6.069m0 .609h6.068v1.49c0 .812-.28 1.491-.84 2.037-.56.546-1.245.819-2.057.819-.798 0-1.47-.273-2.016-.819-.546-.546-.819-1.225-.819-2.036h-1.448l1.112-1.491"
         fill-opacity=".949" fill="#fff" />
   </g>
</svg>