<svg xmlns="http://www.w3.org/2000/svg" version="1.2" viewBox="0 0 42.52 42.52" height="56.693" width="56.693">
   <g stroke-linejoin="bevel" stroke-linecap="square" fill-rule="evenodd" stroke="none" fill="none" font-weight="400"
      font-size="7.8" font-family="'MS Shell Dlg 2'">
      <path
         d="M42.52 21.26C42.52 33 33 42.52 21.26 42.52 9.518 42.52 0 33 0 21.26 0 9.518 9.518 0 21.26 0 33 0 42.52 9.518 42.52 21.26"
         vector-effect="non-scaling-stroke" fill="#ec1d24" />
      <path
         d="M19.676 20.015h-1.05V10.4h1.05v9.616M8.842 29.002c0-.882.056-1.704.168-2.467.112-.763.34-1.424.683-1.984s.829-1.005 1.459-1.334c.63-.329 1.463-.493 2.498-.493h1.365v8.167h-1.197a2.188 2.188 0 00-.619-1.343 1.72 1.72 0 00-1.27-.546c-.49 0-.914.182-1.27.546a2.188 2.188 0 00-.62 1.343H8.842v-1.89m4.808-5.542c-.895 0-1.592.13-2.089.388-.497.26-.874.56-1.133.903-.26.343-.417.693-.473 1.05a5.8 5.8 0 00-.084.85h3.78V23.46m8.734 6.446c.392 0 .738.15 1.04.451.3.3.45.682.45 1.144 0 .462-.15.85-.45 1.166-.302.315-.648.472-1.04.472-.406 0-.76-.157-1.06-.472a1.622 1.622 0 01-.452-1.166c0-.462.15-.843.452-1.144.3-.3.654-.451 1.06-.451m-10.456 0c.406 0 .76.15 1.06.451.301.3.452.682.452 1.144 0 .462-.151.85-.452 1.166-.3.315-.654.472-1.06.472s-.753-.157-1.04-.472c-.286-.315-.43-.704-.43-1.166 0-.462.144-.843.43-1.144.287-.3.634-.451 1.04-.451m3.905-8.819h10.792v9.05h-2.352a1.088 1.088 0 00-.398-.4 1.925 1.925 0 00-.578-.293c-.245-.084-.55-.126-.913-.126-.378 0-.69.042-.934.126a1.925 1.925 0 00-.578.294 1.136 1.136 0 00-.378.399h-4.661v-9.05m14.844-8.84v3.255h2.016v2.877h-2.016v3.317h2.016V32.32h-4.808v-.945h2.792v-5.753h-2.792v-3.926h.945v-3.317h-2.289v1.427h-1.89v-1.427h-2.267v1.427h-1.512V10.82h11.82v1.428h-2.015m-6.026 0h-2.267V15.5h2.267v-3.254m4.179 0h-2.289V15.5h2.289v-3.254"
         fill-opacity=".949" fill="#fff" />
   </g>
</svg>