<?xml version="1.0" encoding="UTF-8" standalone="no"?>
<svg width="11.25008mm" height="11.25008mm"
 viewBox="-5.3 -5.3 42.52000 42.52000"
 xmlns="http://www.w3.org/2000/svg" xmlns:xlink="http://www.w3.org/1999/xlink"  version="1.2" baseProfile="tiny">
<title>Qt SVG Document</title>
<desc>Generated with Qt</desc>
<defs>
</defs>
<g fill="none" stroke="black" stroke-width="1" fill-rule="evenodd" stroke-linecap="square" stroke-linejoin="bevel" >

<g fill="#ec1d24" fill-opacity="1" stroke="none" transform="matrix(1,0,0,1,0,0)"
font-family="MS Shell Dlg 2" font-size="7.8" font-weight="400" font-style="normal" 
>
<path vector-effect="non-scaling-stroke" fill-rule="evenodd" d="M37.2598,16 C37.2598,27.7415 27.7415,37.2598 16,37.2598 C4.25851,37.2598 -5.25984,27.7415 -5.25984,16 C-5.25984,4.25851 4.25851,-5.25984 16,-5.25984 C27.7415,-5.25984 37.2598,4.25851 37.2598,16 "/>
</g>

<g fill="#ffffff" fill-opacity="0.94902" stroke="none" transform="matrix(1,0,0,1,15.4331,12.0315)"
font-family="MS Shell Dlg 2" font-size="7.8" font-weight="400" font-style="normal" 
>
<path vector-effect="none" fill-rule="evenodd" d="M-1.0166,2.72412 L-2.06641,2.72412 L-2.06641,-6.89209 L-1.0166,-6.89209 L-1.0166,2.72412 M-11.8506,11.7104 C-11.8506,10.8286 -11.7946,10.0063 -11.6826,9.24341 C-11.5706,8.48055 -11.3432,7.81917 -11.0002,7.25928 C-10.6573,6.69938 -10.1709,6.25496 -9.54102,5.92603 C-8.91113,5.59709 -8.07829,5.43262 -7.04248,5.43262 L-5.67773,5.43262 L-5.67773,13.6001 L-6.87451,13.6001 C-6.9305,13.0682 -7.13696,12.6203 -7.4939,12.2563 C-7.85083,11.8924 -8.27425,11.7104 -8.76416,11.7104 C-9.25407,11.7104 -9.67749,11.8924 -10.0344,12.2563 C-10.3914,12.6203 -10.5978,13.0682 -10.6538,13.6001 L-11.8506,13.6001 L-11.8506,11.7104 M-7.04248,6.16748 C-7.93831,6.16748 -8.63468,6.29696 -9.13159,6.55591 C-9.6285,6.81486 -10.0064,7.1158 -10.2654,7.45874 C-10.5243,7.80168 -10.6818,8.15161 -10.7378,8.50854 C-10.7938,8.86548 -10.8218,9.14893 -10.8218,9.35889 L-7.04248,9.35889 L-7.04248,6.16748 M1.69189,12.6133 C2.08382,12.6133 2.43026,12.7638 2.7312,13.0647 C3.03215,13.3656 3.18262,13.7471 3.18262,14.209 C3.18262,14.6709 3.03215,15.0593 2.7312,15.3743 C2.43026,15.6892 2.08382,15.8467 1.69189,15.8467 C1.28597,15.8467 0.932536,15.6892 0.631592,15.3743 C0.330648,15.0593 0.180176,14.6709 0.180176,14.209 C0.180176,13.7471 0.330648,13.3656 0.631592,13.0647 C0.932536,12.7638 1.28597,12.6133 1.69189,12.6133 M-8.76416,12.6133 C-8.35824,12.6133 -8.0048,12.7638 -7.70386,13.0647 C-7.40291,13.3656 -7.25244,13.7471 -7.25244,14.209 C-7.25244,14.6709 -7.40291,15.0593 -7.70386,15.3743 C-8.0048,15.6892 -8.35824,15.8467 -8.76416,15.8467 C-9.17008,15.8467 -9.51652,15.6892 -9.80347,15.3743 C-10.0904,15.0593 -10.2339,14.6709 -10.2339,14.209 C-10.2339,13.7471 -10.0904,13.3656 -9.80347,13.0647 C-9.51652,12.7638 -9.17008,12.6133 -8.76416,12.6133 M-4.85889,3.79492 L5.93311,3.79492 L5.93311,12.8442 L3.58154,12.8442 C3.49756,12.6903 3.36458,12.5573 3.18262,12.4453 C3.04264,12.3333 2.85018,12.2354 2.60522,12.1514 C2.36027,12.0674 2.05583,12.0254 1.69189,12.0254 C1.31396,12.0254 1.00252,12.0674 0.757568,12.1514 C0.512614,12.2354 0.32015,12.3333 0.180176,12.4453 C0.012207,12.5573 -0.11377,12.6903 -0.197754,12.8442 L-4.85889,12.8442 L-4.85889,3.79492 M9.98535,-5.04443 L9.98535,-1.79004 L12.001,-1.79004 L12.001,1.08643 L9.98535,1.08643 L9.98535,4.40381 L12.001,4.40381 L12.001,15.0278 L7.19287,15.0278 L7.19287,14.083 L9.98535,14.083 L9.98535,8.33008 L7.19287,8.33008 L7.19287,4.40381 L8.1377,4.40381 L8.1377,1.08643 L5.84912,1.08643 L5.84912,2.51416 L3.95947,2.51416 L3.95947,1.08643 L1.69189,1.08643 L1.69189,2.51416 L0.180176,2.51416 L0.180176,-6.47217 L12.001,-6.47217 L12.001,-5.04443 L9.98535,-5.04443 M3.95947,-5.04443 L1.69189,-5.04443 L1.69189,-1.79004 L3.95947,-1.79004 L3.95947,-5.04443 M8.1377,-5.04443 L5.84912,-5.04443 L5.84912,-1.79004 L8.1377,-1.79004 L8.1377,-5.04443"/>
</g>

<g fill="#ec1d24" fill-opacity="1" stroke="none" transform="matrix(1,0,0,1,0,0)"
font-family="MS Shell Dlg 2" font-size="7.8" font-weight="400" font-style="normal" 
>
</g>
</g>
</svg>
