<?xml version="1.0" encoding="UTF-8" standalone="no"?>
<svg
   xmlns:dc="http://purl.org/dc/elements/1.1/"
   xmlns:cc="http://creativecommons.org/ns#"
   xmlns:rdf="http://www.w3.org/1999/02/22-rdf-syntax-ns#"
   xmlns:svg="http://www.w3.org/2000/svg"
   xmlns="http://www.w3.org/2000/svg"
   xmlns:sodipodi="http://sodipodi.sourceforge.net/DTD/sodipodi-0.dtd"
   xmlns:inkscape="http://www.inkscape.org/namespaces/inkscape"
   inkscape:version="1.0 (4035a4fb49, 2020-05-01)"
   sodipodi:docname="2415.svg"
   id="svg20"
   version="1.2"
   viewBox="0 0 42.519639 42.519639"
   height="14.999999mm"
   width="14.999999mm">
  <metadata
     id="metadata24">
    <rdf:RDF>
      <cc:Work
         rdf:about="">
        <dc:format>image/svg+xml</dc:format>
        <dc:type
           rdf:resource="http://purl.org/dc/dcmitype/StillImage" />
        <dc:title>Qt SVG Document</dc:title>
      </cc:Work>
    </rdf:RDF>
  </metadata>
  <sodipodi:namedview
     inkscape:current-layer="svg20"
     inkscape:window-maximized="0"
     inkscape:window-y="0"
     inkscape:window-x="0"
     inkscape:cy="28.346482"
     inkscape:cx="28.346482"
     inkscape:zoom="5.8410537"
     showgrid="false"
     id="namedview22"
     inkscape:window-height="480"
     inkscape:window-width="1034"
     inkscape:pageshadow="2"
     inkscape:pageopacity="0"
     guidetolerance="10"
     gridtolerance="10"
     objecttolerance="10"
     borderopacity="1"
     bordercolor="#666666"
     pagecolor="#ffffff" />
  <title
     id="title2">Qt SVG Document</title>
  <desc
     id="desc4">Generated with Qt</desc>
  <defs
     id="defs6" />
  <g
     transform="translate(5.25984,5.25984)"
     id="g18"
     stroke-linejoin="bevel"
     stroke-linecap="square"
     fill-rule="evenodd"
     stroke-width="1"
     stroke="#000000"
     fill="none">
    <g
       id="g10"
       font-style="normal"
       font-weight="400"
       font-size="7.8px"
       font-family="'MS Shell Dlg 2'"
       stroke="none"
       fill-opacity="1"
       fill="#ec1d24">
      <path
         id="path8"
         d="M 37.2598,16 C 37.2598,27.7415 27.7415,37.2598 16,37.2598 4.25851,37.2598 -5.25984,27.7415 -5.25984,16 -5.25984,4.25851 4.25851,-5.25984 16,-5.25984 27.7415,-5.25984 37.2598,4.25851 37.2598,16"
         fill-rule="evenodd"
         vector-effect="non-scaling-stroke" />
    </g>
    <g
       id="g14"
       font-style="normal"
       font-weight="400"
       font-size="7.8px"
       font-family="'MS Shell Dlg 2'"
       transform="translate(15.7165,12.0315)"
       stroke="none"
       fill-opacity="0.94902"
       fill="#ffffff">
      <path
         id="path12"
         d="m 0.432129,-1.70605 v 1.301753 L 1.46094,-0.446289 V -1.70605 h 0.86084 v 1.301753 c 0.08398,0 0.17147,0.006999 0.26245,0.020996 0.09098,0.013998 0.19246,0.020996 0.30444,0.020996 0.25196,0.027995 0.50041,0.05599 0.74536,0.083985 0.24496,0.027994 0.48641,0.069987 0.72437,0.125976 0.22396,0.0559898 0.43042,0.1189781 0.61938,0.1889651 0.18897,0.0699869 0.36743,0.1539709 0.5354,0.2519529 0.27995,0.195964 0.41993,0.447917 0.41993,0.755856 0,0.18197 -0.042,0.31495 -0.12598,0.39893 C 5.63916,1.55534 5.49919,1.63932 5.38721,1.69531 5.30322,1.72331 5.21574,1.7513 5.12476,1.7793 5.03377,1.80729 4.93229,1.82129 4.82031,1.82129 4.54036,1.87728 4.3234,1.90527 4.16943,1.90527 c -0.11198,0 -0.21696,-0.007 -0.31494,-0.02099 -0.09798,-0.014 -0.21696,-0.021 -0.35693,-0.021 V 1.61133 C 3.49756,1.2334 3.32259,0.932454 2.97266,0.708496 2.86068,0.652507 2.7557,0.603516 2.65771,0.561523 2.55973,0.519531 2.44775,0.47054 2.32178,0.414551 V 3.8999 c 0.18196,0.05599 0.36393,0.09798 0.5459,0.12598 0.18196,0.02799 0.36393,0.06999 0.54589,0.12598 0.30795,0.08398 0.5844,0.16796 0.82935,0.25195 0.24495,0.08398 0.47941,0.20296 0.70337,0.35693 0.48991,0.22396 0.86784,0.47591 1.13379,0.75586 0.25195,0.32194 0.37793,0.68587 0.37793,1.0918 0,0.44792 -0.12598,0.84684 -0.37793,1.19678 C 5.84212,8.11312 5.47819,8.40007 4.98828,8.66602 4.59635,8.86198 4.07145,9.05094 3.41357,9.23291 3.23161,9.2609 3.05664,9.2889 2.88867,9.31689 2.7207,9.34489 2.53174,9.37288 2.32178,9.40088 V 10.6396 H 1.46094 V 9.48486 l -1.028811,0.042 v 1.11274 h -0.86084 V 9.52686 c -0.139974,-0.028 -0.272949,-0.042 -0.398926,-0.042 -0.125976,0 -0.251953,0 -0.377933,0 C -1.75146,9.45687 -2.27637,9.37288 -2.78027,9.23291 -3.24219,9.13493 -3.66211,8.97396 -4.04004,8.75 -4.40397,8.55404 -4.58594,8.26709 -4.58594,7.88916 c 0,-0.16797 0.05599,-0.29395 0.16797,-0.37793 0.08399,-0.12598 0.20996,-0.21696 0.37793,-0.27295 0.11198,-0.05599 0.31494,-0.11198 0.60889,-0.16797 0.13997,-0.02799 0.37093,-0.04199 0.69287,-0.04199 h 0.62988 v 0.29395 c 0,0.5179 0.21696,0.88183 0.65088,1.09179 0.19596,0.13998 0.5389,0.25196 1.028809,0.33594 V 5.05469 C -0.59668,4.9987 -0.768148,4.94971 -0.943115,4.90771 -1.11808,4.86572 -1.28955,4.81673 -1.45752,4.76074 -1.73747,4.66276 -1.99992,4.57178 -2.24487,4.48779 -2.48983,4.40381 -2.73128,4.29183 -2.96924,4.15186 -3.1932,4.03988 -3.39266,3.9104 -3.56763,3.76343 -3.74259,3.61646 -3.90007,3.47298 -4.04004,3.33301 -4.29199,3.03906 -4.41797,2.68213 -4.41797,2.26221 c 0,-0.43392 0.12598,-0.80485 0.37793,-1.1128 0.23796,-0.321936 0.58089,-0.594885 1.02881,-0.818844 0.23796,-0.125976 0.47241,-0.223958 0.70337,-0.2939449 0.23096,-0.069987 0.50041,-0.1329753 0.80835,-0.1889651 0.16797,-0.055989 0.33944,-0.090983 0.514403,-0.10498 0.174967,-0.013998 0.360433,-0.034994 0.556396,-0.062989 V -1.70605 h 0.86084 m -0.86084,2.078609 C -0.484701,0.400553 -0.554688,0.414551 -0.638672,0.414551 -0.988607,0.498535 -1.24756,0.596517 -1.41553,0.708496 -1.52751,0.764486 -1.62549,0.834473 -1.70947,0.918457 -1.79346,1.00244 -1.86344,1.07943 -1.91943,1.14941 -2.04541,1.28939 -2.1084,1.47135 -2.1084,1.69531 c 0,0.29395 0.06299,0.51091 0.18897,0.65088 0.05599,0.11198 0.13297,0.20296 0.23095,0.27295 0.09799,0.06999 0.20297,0.13298 0.31494,0.18897 0.20997,0.15397 0.468918,0.28694 0.77686,0.39892 0.05599,0 0.111979,0.014 0.167969,0.04199 V 0.372559 M 2.32178,8.66602 c 0.02799,-0.028 0.05599,-0.042 0.08398,-0.042 0.028,0 0.06299,-0.01399 0.10498,-0.04199 C 2.87467,8.49805 3.15462,8.37907 3.35059,8.2251 3.56055,8.11312 3.73551,7.95915 3.87549,7.76318 4.01546,7.53923 4.08545,7.32227 4.08545,7.1123 4.08545,6.91634 4.01546,6.72038 3.87549,6.52441 3.76351,6.34245 3.57454,6.18148 3.30859,6.0415 3.16862,5.98551 3.03564,5.92952 2.90967,5.87354 2.78369,5.81755 2.62972,5.76156 2.44775,5.70557 c -0.05599,0 -0.09798,-0.014 -0.12597,-0.042 V 8.66602 M 1.46094,5.43262 0.432129,5.22266 V 8.83398 L 1.46094,8.79199 V 5.43262 M 0.432129,0.288574 V 3.45898 L 1.46094,3.66895 V 0.288574 H 0.432129 M -13.9712,5.43262 -11.9556,4.88672 V 4.65576 c 0,-1.73568 0.3325,-3.36637 0.9973,-4.892088 0.6649,-1.525712 1.56076,-2.858972 2.68755,-3.999752 1.12679,-1.14079 2.46004,-2.04362 3.99975,-2.7085 1.53972,-0.66488 3.17741,-0.99731 4.91309,-0.99731 v 0.18896 l -2.30957,0.58789 2.057617,2.07861 c -1.287761,0.028 -2.491537,0.28345 -3.611327,0.76636 -1.11979,0.48291 -2.10311,1.14079 -2.94995,1.97363 -0.84685,0.83285 -1.52572,1.802169 -2.03662,2.907963 C -8.71867,1.66732 -9.01611,2.8501 -9.1001,4.10986 L -7.21045,3.58496 -8.97412,10.3877 -13.9712,5.43262 M 3.53955,12.1094 10.3213,10.3877 8.43164,17.1274 6.91992,15.5947 c -1.88965,1.1198 -3.98226,1.6797 -6.27783,1.6797 -1.105794,0 -2.18359,-0.1435 -3.2334,-0.4304 -1.0498,-0.287 -2.04712,-0.6964 -2.99194,-1.2283 -0.94483,-0.5319 -1.81266,-1.1863 -2.60352,-1.9631 -0.79085,-0.7769 -1.45923,-1.6342 -2.00513,-2.572 l 0.147,-0.105 1.70066,1.7217 0.73486,-2.83451 c 0.89584,1.44171 2.07512,2.56851 3.53785,3.38041 1.46272,0.8118 3.03393,1.2177 4.71362,1.2177 1.44173,0 2.86247,-0.3149 4.26221,-0.9448 L 3.53955,12.1094 M 6.87793,-6.3042 c 1.98763,1.11979 3.54837,2.64901 4.68217,4.58765 1.1337,1.938637 1.7006,4.06274 1.7006,6.37231 0,2.29557 -0.5739,4.43718 -1.7216,6.42484 l -0.147,-0.105 0.6509,-2.30958 -2.8345,0.73486 c 0.8258,-1.44173 1.2388,-3.02344 1.2388,-4.74512 0,-1.65169 -0.378,-3.18791 -1.13382,-4.6086409 C 8.55762,-1.37362 7.49382,-2.5459 6.12207,-3.46973 L 5.59717,-1.58008 0.64209,-6.51416 7.44482,-8.31982 6.87793,-6.3042"
         fill-rule="evenodd"
         vector-effect="none" />
    </g>
    <g
       id="g16"
       font-style="normal"
       font-weight="400"
       font-size="7.8px"
       font-family="'MS Shell Dlg 2'"
       stroke="none"
       fill-opacity="1"
       fill="#ec1d24" />
  </g>
</svg>
