<svg xmlns="http://www.w3.org/2000/svg" version="1.2" viewBox="0 0 42.52 42.52" height="56.693" width="56.693">
   <g stroke-linejoin="bevel" stroke-linecap="square" fill-rule="evenodd" stroke="none" fill="none" font-weight="400"
      font-size="7.8" font-family="'MS Shell Dlg 2'">
      <path
         d="M42.52 21.26C42.52 33 33 42.52 21.26 42.52 9.518 42.52 0 33 0 21.26 0 9.518 9.518 0 21.26 0 33 0 42.52 9.518 42.52 21.26"
         vector-effect="non-scaling-stroke" fill="#ec1d24" />
      <path
         d="M21.408 15.585v1.302l1.03-.042v-1.26h.86v1.302c.084 0 .172.007.263.021.09.014.192.021.304.021l.745.084c.245.028.487.07.725.126.224.056.43.119.62.189.188.07.367.154.535.252.28.196.42.448.42.756 0 .182-.043.315-.127.399a4.108 4.108 0 01-.42.252c-.083.028-.17.056-.262.084a1.033 1.033 0 01-.304.042c-.28.056-.497.084-.651.084-.112 0-.217-.007-.315-.021a2.576 2.576 0 00-.357-.021v-.252c0-.378-.175-.68-.525-.903a5.942 5.942 0 00-.315-.147 27.82 27.82 0 01-.336-.147v3.485c.182.056.364.098.546.126.182.028.364.07.546.126.308.084.584.168.83.252.244.084.479.203.703.357.49.224.867.476 1.133.756.252.322.378.686.378 1.092 0 .448-.126.847-.378 1.197-.238.307-.601.594-1.091.86-.392.196-.917.385-1.575.567-.182.028-.357.056-.525.084-.168.028-.357.056-.567.084v1.239h-.86v-1.155l-1.03.042v1.113h-.86v-1.113a2.036 2.036 0 00-.4-.042h-.377a7.254 7.254 0 01-1.575-.252 4.134 4.134 0 01-1.26-.483c-.364-.196-.546-.483-.546-.86 0-.168.056-.294.168-.378a.703.703 0 01.378-.273c.112-.056.315-.112.61-.168.14-.028.37-.042.692-.042h.63v.294c0 .518.217.881.65 1.091.197.14.54.252 1.03.336v-3.695a6.208 6.208 0 00-.515-.147 6.205 6.205 0 01-.514-.147l-.788-.273a3.964 3.964 0 01-.724-.336 3.037 3.037 0 01-.598-.388 7.397 7.397 0 01-.473-.43 1.59 1.59 0 01-.378-1.071c0-.434.126-.805.378-1.113.238-.322.581-.595 1.03-.82.237-.125.472-.223.702-.293.231-.07.5-.133.809-.189.168-.056.34-.091.514-.105.175-.014.36-.035.557-.063v-1.386h.86m-.86 2.079a.467.467 0 01-.21.042c-.35.084-.61.182-.777.294a1.12 1.12 0 00-.294.21 2.862 2.862 0 00-.21.23.785.785 0 00-.19.547c0 .294.064.51.19.65a.731.731 0 00.23.273c.099.07.204.133.316.19.21.153.469.286.777.398.056 0 .112.014.168.042v-2.876m2.75 8.293c.028-.028.056-.042.084-.042a.204.204 0 00.105-.042c.364-.084.644-.203.84-.357.21-.112.385-.266.525-.461.14-.224.21-.441.21-.651 0-.196-.07-.392-.21-.588-.112-.182-.301-.343-.567-.483a11.51 11.51 0 01-.399-.168 4.185 4.185 0 00-.462-.168c-.056 0-.098-.014-.126-.042v3.002m-.86-3.233l-1.03-.21v3.611l1.03-.042v-3.359m-1.03-5.144v3.17l1.03.21v-3.38h-1.03M7.005 22.724l2.016-.546v-.23c0-1.737.332-3.367.997-4.893a13.053 13.053 0 012.688-4 12.549 12.549 0 014-2.708 12.26 12.26 0 014.912-.998v.19l-2.31.587 2.058 2.079a9.555 9.555 0 00-6.56 2.74 9.812 9.812 0 00-2.037 2.908 9.965 9.965 0 00-.893 3.548l1.89-.525-1.764 6.803-4.997-4.955m17.51 6.677l6.783-1.722-1.89 6.74-1.512-1.533c-1.89 1.12-3.982 1.68-6.278 1.68a12.21 12.21 0 01-3.233-.43 13.138 13.138 0 01-2.992-1.229 12.35 12.35 0 01-2.603-1.963 12.191 12.191 0 01-2.006-2.572l.147-.105 1.701 1.722.735-2.835a9.582 9.582 0 003.538 3.38 9.56 9.56 0 004.713 1.218c1.442 0 2.863-.315 4.263-.945l-1.365-1.406m3.338-18.414c1.988 1.12 3.549 2.65 4.682 4.588 1.134 1.938 1.701 4.063 1.701 6.372 0 2.296-.574 4.437-1.722 6.425l-.147-.105.651-2.31-2.834.735c.826-1.442 1.239-3.023 1.239-4.745a9.662 9.662 0 00-1.134-4.609 9.664 9.664 0 00-3.192-3.516l-.524 1.89-4.956-4.935 6.803-1.805-.567 2.015"
         fill-opacity=".949" fill="#fff" />
   </g>
</svg>