<svg xmlns="http://www.w3.org/2000/svg" version="1.2" viewBox="0 0 42.52 42.52" height="56.693" width="56.693">
   <g stroke-linejoin="bevel" stroke-linecap="square" fill-rule="evenodd" stroke="none" fill="none" font-weight="400"
      font-size="7.8" font-family="'MS Shell Dlg 2'">
      <path
         d="M42.52 21.26C42.52 33 33 42.52 21.26 42.52 9.518 42.52 0 33 0 21.26 0 9.518 9.518 0 21.26 0 33 0 42.52 9.518 42.52 21.26"
         vector-effect="non-scaling-stroke" fill="#ec1d24" />
      <path
         d="M17.634 12.694l3.125 8.22-9.52 1.048-3.235-9.232h9.63v-.036m-13.17 7.461l3.125-7.37 2.836 9.105-1.788-.506-1.554-4.86-1.68 3.902-.94-.27m3.812-12.34v4.517h-.614V7.816h.614m.29.325l4.841.85-4.842.704V8.141m13.55-.054h8.817v2.475h-7.155c-.277-.41-.56-.819-.849-1.228-.289-.41-.56-.825-.813-1.247m1.77 3.252h7.1v1.86c0 .459-.096.907-.288 1.347a2.76 2.76 0 01-.85 1.093c-.409.361-.873.617-1.39.768a3.298 3.298 0 01-1.59.063 3.291 3.291 0 01-1.382-.614 3.085 3.085 0 01-.949-1.157 4.018 4.018 0 01-.298-.776 3.125 3.125 0 01-.1-.795h-1.68c.23-.29.458-.581.687-.877.229-.295.476-.599.74-.912m6.27 6.378h-5.781a2.66 2.66 0 00-.895.171c-.319.115-.611.322-.876.623a1.621 1.621 0 00-.343.551 3.172 3.172 0 00-.199 1.103v.406c.036.891.051 1.993.045 3.306a513.715 513.715 0 01-.045 4.607 2619.252 2619.252 0 003.749-4.968l1.31-1.753 3.035-4.046m-8.094 12.79v3.794h12.43v-13.73c0-.361-.027-.723-.082-1.084a1.951 1.951 0 00-.442-.976 1.764 1.764 0 00-.777-.578 3.373 3.373 0 00-.976-.216 549.995 549.995 0 00-4.137 5.528 820.66 820.66 0 01-4.119 5.528h7.154v1.735H22.06"
         fill="#fff" />
   </g>
</svg>