<?xml version="1.0" encoding="UTF-8" standalone="no"?>
<svg
   xmlns:dc="http://purl.org/dc/elements/1.1/"
   xmlns:cc="http://creativecommons.org/ns#"
   xmlns:rdf="http://www.w3.org/1999/02/22-rdf-syntax-ns#"
   xmlns:svg="http://www.w3.org/2000/svg"
   xmlns="http://www.w3.org/2000/svg"
   xmlns:sodipodi="http://sodipodi.sourceforge.net/DTD/sodipodi-0.dtd"
   xmlns:inkscape="http://www.inkscape.org/namespaces/inkscape"
   inkscape:version="1.0 (4035a4fb49, 2020-05-01)"
   sodipodi:docname="2417.svg"
   id="svg20"
   version="1.2"
   viewBox="0 0 42.519639 42.519639"
   height="14.999999mm"
   width="14.999999mm">
  <metadata
     id="metadata24">
    <rdf:RDF>
      <cc:Work
         rdf:about="">
        <dc:format>image/svg+xml</dc:format>
        <dc:type
           rdf:resource="http://purl.org/dc/dcmitype/StillImage" />
        <dc:title>Qt SVG Document</dc:title>
      </cc:Work>
    </rdf:RDF>
  </metadata>
  <sodipodi:namedview
     inkscape:current-layer="svg20"
     inkscape:window-maximized="0"
     inkscape:window-y="0"
     inkscape:window-x="0"
     inkscape:cy="28.346482"
     inkscape:cx="28.346482"
     inkscape:zoom="5.8410537"
     showgrid="false"
     id="namedview22"
     inkscape:window-height="480"
     inkscape:window-width="1034"
     inkscape:pageshadow="2"
     inkscape:pageopacity="0"
     guidetolerance="10"
     gridtolerance="10"
     objecttolerance="10"
     borderopacity="1"
     bordercolor="#666666"
     pagecolor="#ffffff" />
  <title
     id="title2">Qt SVG Document</title>
  <desc
     id="desc4">Generated with Qt</desc>
  <defs
     id="defs6" />
  <g
     transform="translate(5.25984,5.25984)"
     id="g18"
     stroke-linejoin="bevel"
     stroke-linecap="square"
     fill-rule="evenodd"
     stroke-width="1"
     stroke="#000000"
     fill="none">
    <g
       id="g10"
       font-style="normal"
       font-weight="400"
       font-size="7.8px"
       font-family="'MS Shell Dlg 2'"
       stroke="none"
       fill-opacity="1"
       fill="#ec1d24">
      <path
         id="path8"
         d="M 37.2598,16 C 37.2598,27.7415 27.7415,37.2598 16,37.2598 4.25851,37.2598 -5.25984,27.7415 -5.25984,16 -5.25984,4.25851 4.25851,-5.25984 16,-5.25984 27.7415,-5.25984 37.2598,4.25851 37.2598,16"
         fill-rule="evenodd"
         vector-effect="non-scaling-stroke" />
    </g>
    <g
       id="g14"
       font-style="normal"
       font-weight="400"
       font-size="7.8px"
       font-family="'MS Shell Dlg 2'"
       transform="translate(14.2992,10.8976)"
       stroke="none"
       fill-opacity="1"
       fill="#ffffff">
      <path
         id="path12"
         d="m -1.92529,-3.46338 3.12549,8.22022 -9.521,1.04785 -3.2339,-9.23194 h 9.62941 v -0.03613 m -13.17041,7.46143 3.1255,-7.3711 2.83641,9.10547 -1.78861,-0.50586 -1.5537,-4.859861 -1.6802,3.902341 -0.9394,-0.27099 m 3.812,-12.33936 v 4.5166 h -0.6142 v -4.5166 h 0.6142 m 0.2891,0.3252 4.84177,0.84912 -4.84177,0.70459 v -1.55371 m 13.54978,-0.0542 h 8.81642 v 2.4751 H 4.21729 C 3.94027,-6.00472 3.65723,-6.41423 3.36816,-6.82373 3.0791,-7.23324 2.80811,-7.64876 2.55518,-8.07031 m 1.7705,3.25195 h 7.10012 v 1.86084 c 0,0.45768 -0.0964,0.90633 -0.2891,1.34595 -0.1927,0.43961 -0.4757,0.803953 -0.8491,1.093015 C 9.87809,-0.157227 9.41439,0.0987142 8.89648,0.249268 8.37858,0.399821 7.84863,0.420898 7.30664,0.3125 6.80078,0.216146 6.34009,0.0113932 5.92456,-0.301758 5.50903,-0.614909 5.19287,-1.00033 4.97607,-1.45801 4.84359,-1.72298 4.74422,-1.98193 4.67798,-2.23486 4.61174,-2.48779 4.57861,-2.75277 4.57861,-3.02979 H 2.89844 C 3.12728,-3.31885 3.35612,-3.61092 3.58496,-3.90601 3.8138,-4.20109 4.06071,-4.50521 4.32568,-4.81836 M 10.5947,1.55908 H 8.51709 4.81348 c -0.27702,0 -0.57512,0.05721 -0.89429,0.17163 C 3.60002,1.84513 3.30794,2.0529 3.04297,2.354 2.88639,2.52262 2.77197,2.7063 2.69971,2.90503 2.62744,3.10376 2.57625,3.29647 2.54614,3.48315 2.51603,3.66984 2.50098,3.84448 2.50098,4.00708 c 0,0.1626 0,0.2981 0,0.40649 C 2.53711,5.30485 2.55216,6.4069 2.54614,7.71973 2.54012,9.03255 2.52507,10.5682 2.50098,12.3267 2.83822,11.881 3.21159,11.3872 3.62109,10.8452 4.0306,10.3032 4.45817,9.73714 4.90381,9.14697 5.34945,8.5568 5.7981,7.96061 6.24976,7.3584 6.70142,6.75618 7.13802,6.17204 7.55957,5.60596 L 10.5947,1.55908 M 2.50098,14.3501 V 18.144 H 2.55518 14.9307 V 4.41357 c 0,-0.36132 -0.0271,-0.72265 -0.0813,-1.08398 C 14.7952,2.96826 14.6476,2.64307 14.4067,2.354 14.202,2.08903 13.943,1.89632 13.6299,1.77588 13.3167,1.65544 12.9915,1.58317 12.6543,1.55908 11.2572,3.40186 9.87809,5.24463 8.51709,7.0874 7.15609,8.93018 5.78304,10.7729 4.39795,12.6157 h 7.15425 v 1.7344 H 2.50098"
         fill-rule="evenodd"
         vector-effect="none" />
    </g>
    <g
       id="g16"
       font-style="normal"
       font-weight="400"
       font-size="7.8px"
       font-family="'MS Shell Dlg 2'"
       stroke="none"
       fill-opacity="1"
       fill="#ec1d24" />
  </g>
</svg>
