<svg xmlns="http://www.w3.org/2000/svg" version="1.2" viewBox="0 0 42.52 42.52" height="56.693" width="56.693">
   <g stroke-linejoin="bevel" stroke-linecap="square" fill-rule="evenodd" stroke="none" fill="none" font-weight="400"
      font-size="7.8" font-family="'MS Shell Dlg 2'">
      <path
         d="M42.52 21.26C42.52 33 33 42.52 21.26 42.52 9.518 42.52 0 33 0 21.26 0 9.518 9.518 0 21.26 0 33 0 42.52 9.518 42.52 21.26"
         vector-effect="non-scaling-stroke" fill="#ec1d24" />
      <path
         d="M16.047 7.166h9.124v2.583h-7.407a31.353 31.353 0 00-.858-1.273 21.393 21.393 0 01-.859-1.31m1.825 3.36h7.335v1.933c0 .47-.102.928-.307 1.373a3.321 3.321 0 01-.85 1.138 3.862 3.862 0 01-1.463.795 3.105 3.105 0 01-1.625.036 3.442 3.442 0 01-1.428-.623 3.353 3.353 0 01-1.011-1.183 7.159 7.159 0 01-.271-.786 3.045 3.045 0 01-.109-.822H16.41l.722-.903c.241-.301.488-.62.741-.958m6.486 6.594c-.735-.012-1.457-.018-2.168-.018h-1.942c-.693 0-1.31.006-1.852.018-.289 0-.602.058-.94.172a2.097 2.097 0 00-.903.623c-.156.18-.274.374-.352.578a2.944 2.944 0 00-.163.597 3.895 3.895 0 00-.027.958c.024.926.036 2.068.036 3.423a365.3 365.3 0 01-.036 4.76c.338-.458.72-.97 1.148-1.535.427-.567.867-1.154 1.318-1.762.452-.608.913-1.222 1.382-1.843.47-.62.922-1.22 1.355-1.797a423.414 423.414 0 013.144-4.174m-8.347 13.207v3.884h12.827V20.047a6.35 6.35 0 00-.099-1.13 2.315 2.315 0 00-.443-1.002 1.864 1.864 0 00-.822-.578 3.722 3.722 0 00-1.02-.217 2781.891 2781.891 0 00-4.246 5.7 1262.03 1262.03 0 01-4.246 5.682h7.372v1.825H16.01"
         fill="#fff" />
   </g>
</svg>