<svg xmlns="http://www.w3.org/2000/svg" version="1.2" viewBox="0 0 42.52 42.52" height="56.693" width="56.693">
   <g stroke-linejoin="bevel" stroke-linecap="square" fill-rule="evenodd" stroke="none" fill="none" font-weight="400"
      font-size="7.8" font-family="'MS Shell Dlg 2'">
      <path
         d="M42.52 21.26C42.52 33 33 42.52 21.26 42.52 9.518 42.52 0 33 0 21.26 0 9.518 9.518 0 21.26 0 33 0 42.52 9.518 42.52 21.26"
         vector-effect="non-scaling-stroke" fill="#489174" />
      <path
         d="M29.188 13.36c-.196.196-.294.455-.294.777v2.31c0 .21-.07.391-.21.545-.14.154-.301.301-.483.44l-.63.4.084 1.239h-.525c.056.923.2 1.816.43 2.677.231.86.55 1.893.956 3.097.308.881.427 1.732.357 2.55-.07.82-.322 1.53-.756 2.132-.658.91-1.547 1.364-2.667 1.364h-1.364v1.596h4.808v1.722H13.336v-1.722h1.196v-21.29c0-.28.095-.514.284-.703a.955.955 0 01.703-.284h7.58c.28 0 .514.095.703.284a.955.955 0 01.284.703v18.666h1.364c.77 0 1.386-.315 1.848-.945.714-.966.784-2.226.21-3.78a58.992 58.992 0 01-.955-3.201 14.477 14.477 0 01-.452-2.866h-.357l.147-3.78c0-.35.158-.658.473-.923.315-.266.57-.476.766-.63l4.052-3.087.42.651-2.414 2.058M22.7 11.974c0-.336-.168-.504-.504-.504h-5.774a.441.441 0 00-.315.147.486.486 0 00-.147.357v4.388c0 .14.05.263.147.368.098.105.203.157.315.157h5.774c.336 0 .504-.175.504-.525v-4.388m4.871 4.598c.084-.028.161-.056.23-.084a1.834 1.834 0 00.514-.294.408.408 0 00.159-.336V14.43l-.273.168a5.863 5.863 0 00-.19.2.646.646 0 00-.146.283c-.112.28-.196.595-.252.945-.028.084-.042.266-.042.546"
         fill="#fff" />
   </g>
</svg>