<?xml version="1.0" encoding="UTF-8" standalone="no"?>
<svg width="11.25008mm" height="11.25008mm"
 viewBox="-5.3 -5.3 42.52000 42.52000"
 xmlns="http://www.w3.org/2000/svg" xmlns:xlink="http://www.w3.org/1999/xlink"  version="1.2" baseProfile="tiny">
<title>Qt SVG Document</title>
<desc>Generated with Qt</desc>
<defs>
</defs>
<g fill="none" stroke="black" stroke-width="1" fill-rule="evenodd" stroke-linecap="square" stroke-linejoin="bevel" >

<g fill="#489174" fill-opacity="1" stroke="none" transform="matrix(1,0,0,1,0,0)"
font-family="MS Shell Dlg 2" font-size="7.8" font-weight="400" font-style="normal" 
>
<path vector-effect="non-scaling-stroke" fill-rule="evenodd" d="M37.2598,16 C37.2598,27.7415 27.7415,37.2598 16,37.2598 C4.25851,37.2598 -5.25984,27.7415 -5.25984,16 C-5.25984,4.25851 4.25851,-5.25984 16,-5.25984 C27.7415,-5.25984 37.2598,4.25851 37.2598,16 "/>
</g>

<g fill="#ffffff" fill-opacity="1" stroke="none" transform="matrix(1,0,0,1,17.1339,12.0315)"
font-family="MS Shell Dlg 2" font-size="7.8" font-weight="400" font-style="normal" 
>
<path vector-effect="none" fill-rule="evenodd" d="M6.79395,-3.93164 C6.59798,-3.73568 6.5,-3.47673 6.5,-3.15479 L6.5,-0.845215 C6.5,-0.635254 6.43001,-0.453288 6.29004,-0.299316 C6.15007,-0.145345 5.9891,0.0016276 5.80713,0.141602 L5.17725,0.540527 L5.26123,1.7793 L4.73633,1.7793 C4.79232,2.70313 4.93579,3.59546 5.16675,4.4563 C5.39771,5.31714 5.71615,6.34945 6.12207,7.55322 C6.43001,8.43506 6.54899,9.2854 6.479,10.1042 C6.40902,10.9231 6.15706,11.6335 5.72314,12.2354 C5.06527,13.1452 4.17643,13.6001 3.05664,13.6001 L1.69189,13.6001 L1.69189,15.1958 L6.5,15.1958 L6.5,16.9175 L-9.05811,16.9175 L-9.05811,15.1958 L-7.86133,15.1958 L-7.86133,-6.09424 C-7.86133,-6.37419 -7.76685,-6.60864 -7.57788,-6.79761 C-7.38892,-6.98657 -7.15446,-7.08105 -6.87451,-7.08105 L0.705078,-7.08105 C0.985026,-7.08105 1.21948,-6.98657 1.40845,-6.79761 C1.59741,-6.60864 1.69189,-6.37419 1.69189,-6.09424 L1.69189,12.5713 L3.05664,12.5713 C3.8265,12.5713 4.44238,12.2563 4.9043,11.6265 C5.61816,10.6606 5.68815,9.40088 5.11426,7.84717 C4.72233,6.64339 4.40389,5.57609 4.15894,4.64526 C3.91398,3.71444 3.76351,2.75911 3.70752,1.7793 L3.35059,1.7793 L3.49756,-2 C3.49756,-2.34993 3.65503,-2.65788 3.96997,-2.92383 C4.28491,-3.18978 4.54036,-3.39974 4.73633,-3.55371 L8.78857,-6.64014 L9.2085,-5.98926 L6.79395,-3.93164 M0.306152,-5.31738 C0.306152,-5.65332 0.138184,-5.82129 -0.197754,-5.82129 L-5.97168,-5.82129 C-6.08366,-5.82129 -6.18864,-5.7723 -6.28662,-5.67432 C-6.3846,-5.57633 -6.43359,-5.45736 -6.43359,-5.31738 L-6.43359,-0.929199 C-6.43359,-0.789225 -6.3846,-0.666748 -6.28662,-0.561768 C-6.18864,-0.456787 -6.08366,-0.404297 -5.97168,-0.404297 L-0.197754,-0.404297 C0.138184,-0.404297 0.306152,-0.579264 0.306152,-0.929199 L0.306152,-5.31738 M5.17725,-0.719238 C5.26123,-0.747233 5.33822,-0.775228 5.4082,-0.803223 C5.47819,-0.831217 5.54118,-0.859212 5.59717,-0.887207 C5.70915,-0.943197 5.81763,-1.01318 5.92261,-1.09717 C6.02759,-1.18115 6.08008,-1.29313 6.08008,-1.43311 L6.08008,-2.86084 L5.80713,-2.69287 C5.75114,-2.63688 5.68815,-2.57039 5.61816,-2.49341 C5.54818,-2.41642 5.49919,-2.32194 5.47119,-2.20996 C5.35921,-1.93001 5.27523,-1.61507 5.21924,-1.26514 C5.19124,-1.18115 5.17725,-0.999186 5.17725,-0.719238 "/>
</g>

<g fill="#489174" fill-opacity="1" stroke="none" transform="matrix(1,0,0,1,0,0)"
font-family="MS Shell Dlg 2" font-size="7.8" font-weight="400" font-style="normal" 
>
</g>
</g>
</svg>
