<?xml version="1.0" encoding="UTF-8" standalone="no"?>
<svg
   xmlns:dc="http://purl.org/dc/elements/1.1/"
   xmlns:cc="http://creativecommons.org/ns#"
   xmlns:rdf="http://www.w3.org/1999/02/22-rdf-syntax-ns#"
   xmlns:svg="http://www.w3.org/2000/svg"
   xmlns="http://www.w3.org/2000/svg"
   xmlns:sodipodi="http://sodipodi.sourceforge.net/DTD/sodipodi-0.dtd"
   xmlns:inkscape="http://www.inkscape.org/namespaces/inkscape"
   inkscape:version="1.0 (4035a4fb49, 2020-05-01)"
   sodipodi:docname="2502.svg"
   id="svg20"
   version="1.2"
   viewBox="0 0 42.519639 42.519639"
   height="14.999999mm"
   width="14.999999mm">
  <metadata
     id="metadata24">
    <rdf:RDF>
      <cc:Work
         rdf:about="">
        <dc:format>image/svg+xml</dc:format>
        <dc:type
           rdf:resource="http://purl.org/dc/dcmitype/StillImage" />
        <dc:title>Qt SVG Document</dc:title>
      </cc:Work>
    </rdf:RDF>
  </metadata>
  <sodipodi:namedview
     inkscape:current-layer="svg20"
     inkscape:window-maximized="0"
     inkscape:window-y="0"
     inkscape:window-x="0"
     inkscape:cy="28.346482"
     inkscape:cx="28.346482"
     inkscape:zoom="5.8410537"
     showgrid="false"
     id="namedview22"
     inkscape:window-height="480"
     inkscape:window-width="1034"
     inkscape:pageshadow="2"
     inkscape:pageopacity="0"
     guidetolerance="10"
     gridtolerance="10"
     objecttolerance="10"
     borderopacity="1"
     bordercolor="#666666"
     pagecolor="#ffffff" />
  <title
     id="title2">Qt SVG Document</title>
  <desc
     id="desc4">Generated with Qt</desc>
  <defs
     id="defs6" />
  <g
     transform="translate(5.25984,5.25984)"
     id="g18"
     stroke-linejoin="bevel"
     stroke-linecap="square"
     fill-rule="evenodd"
     stroke-width="1"
     stroke="#000000"
     fill="none">
    <g
       id="g10"
       font-style="normal"
       font-weight="400"
       font-size="7.8px"
       font-family="'MS Shell Dlg 2'"
       stroke="none"
       fill-opacity="1"
       fill="#489174">
      <path
         id="path8"
         d="M 37.2598,16 C 37.2598,27.7415 27.7415,37.2598 16,37.2598 4.25851,37.2598 -5.25984,27.7415 -5.25984,16 -5.25984,4.25851 4.25851,-5.25984 16,-5.25984 27.7415,-5.25984 37.2598,4.25851 37.2598,16"
         fill-rule="evenodd"
         vector-effect="non-scaling-stroke" />
    </g>
    <g
       id="g14"
       font-style="normal"
       font-weight="400"
       font-size="7.8px"
       font-family="'MS Shell Dlg 2'"
       transform="translate(17.1339,12.0315)"
       stroke="none"
       fill-opacity="0.94902"
       fill="#ffffff">
      <path
         id="path12"
         d="m -3.01123,2.64014 c 0.05599,0.13997 0.10148,0.30444 0.13647,0.4934 0.035,0.18897 0.08049,0.35344 0.13648,0.49341 l 0.33594,1.17578 H -3.59912 L -3.26318,3.62695 C -3.20719,3.48698 -3.1722,3.32251 -3.1582,3.13354 -3.14421,2.94458 -3.10921,2.78011 -3.05322,2.64014 h 0.04199 M 6.83594,-3.93164 C 6.61198,-3.70768 6.5,-3.44873 6.5,-3.15479 v 2.309575 c 0,0.209961 -0.06999,0.391927 -0.20996,0.545899 C 6.15007,-0.145345 6.00309,0.0016276 5.84912,0.141602 L 5.21924,0.540527 5.30322,1.7793 H 4.77832 C 4.83431,2.70313 4.97078,3.58846 5.18774,4.4353 5.4047,5.28215 5.73014,6.30745 6.16406,7.51123 6.47201,8.39307 6.59098,9.24341 6.521,10.0623 6.45101,10.8811 6.19906,11.5915 5.76514,12.1934 5.10726,13.1032 4.21842,13.5581 3.09863,13.5581 H 1.73389 v 1.5957 h 4.8081 v 1.7217 h -15.5581 v -1.7217 h 1.23877 V -6.09424 c 0,-0.25195 0.09448,-0.47941 0.28344,-0.68237 0.18897,-0.20296 0.40943,-0.30444 0.66138,-0.30444 h 7.57959 c 0.27995,0 0.5144,0.10148 0.70337,0.30444 0.18896,0.20296 0.28345,0.43042 0.28345,0.68237 V 12.5293 h 1.36474 c 0.78386,0 1.39974,-0.3149 1.84766,-0.9448 C 5.63216,10.6466 5.70915,9.40088 5.17725,7.84717 4.74333,6.64339 4.41089,5.57609 4.17993,4.64526 3.94897,3.71444 3.8055,2.75911 3.74951,1.7793 H 3.35059 L 3.53955,-2 c 0,-0.32194 0.15747,-0.61589 0.47241,-0.88184 0.31494,-0.26595 0.5564,-0.47591 0.72437,-0.62988 l 4.05224,-3.08642 0.46192,0.60888 -2.41455,2.05762 m -9.1543,-0.69287 c -0.88184,0 -1.6027,0.23795 -2.1626,0.71387 -0.55989,0.47591 -0.85384,1.15478 -0.88183,2.03662 0,0.76985 0.25895,1.413734 0.77685,1.9316372 0.47591,0.4899088 1.18978,0.7348628 2.1416,0.7348628 0.34994,0 0.68938,-0.034993 1.01831,-0.10498 0.32894,-0.069987 0.577397,-0.132975 0.745366,-0.188965 V -2.29395 H -2.6543 v 0.94483 h 0.81885 v 1.112792 c -0.02799,0.027995 -0.21696,0.041992 -0.56689,0.041992 -0.48991,0 -0.89234,-0.150472 -1.20728,-0.451416 -0.31494,-0.300944 -0.47241,-0.724368 -0.47241,-1.270268 0,-0.57389 0.17147,-1.00431 0.5144,-1.29126 0.34294,-0.28694 0.75936,-0.43042 1.24927,-0.43042 0.43392,0 0.83984,0.06999 1.21777,0.20997 l 0.251957,-0.94483 C -0.988607,-4.42855 -1.18107,-4.48454 -1.42603,-4.54053 -1.67098,-4.59652 -1.96842,-4.62451 -2.31836,-4.62451 M -3.30518,13.4321 c 0.89584,0 1.55721,-0.1644 1.98414,-0.4934 0.426916,-0.3289 0.640376,-0.7243 0.640376,-1.1863 0,-0.6858 -0.559896,-1.1967 -1.679686,-1.5327 C -2.79427,10.0658 -3.10921,9.93978 -3.30518,9.8418 -3.50114,9.74382 -3.59912,9.61084 -3.59912,9.44287 c 0,-0.34993 0.31494,-0.5249 0.94482,-0.5249 0.30795,0 0.5774,0.02799 0.80835,0.08398 0.23096,0.05599 0.41643,0.11198 0.5564,0.16797 L -0.932617,8.2251 C -1.33854,8.05713 -1.89844,7.97314 -2.6123,7.97314 c -0.76986,0 -1.37875,0.14348 -1.82666,0.43042 -0.44792,0.28695 -0.67188,0.67538 -0.67188,1.16529 0,0.40592 0.16447,0.72785 0.49341,0.96585 0.32894,0.2379 0.76636,0.4339 1.31225,0.5879 0.74187,0.2239 1.1128,0.4619 1.1128,0.7138 0,0.406 -0.34294,0.6089 -1.02881,0.6089 -0.30794,0 -0.60539,-0.035 -0.89234,-0.105 -0.28694,-0.07 -0.54939,-0.1469 -0.78735,-0.2309 l -0.29394,0.9868 c 0.19596,0.084 0.45841,0.161 0.78735,0.2309 0.32894,0.07 0.69637,0.105 1.10229,0.105 M -0.554688,7.02832 -2.19238,1.7373 h -1.57471 l -1.5957,5.29102 h 1.19677 l 0.39893,-1.36475 h 1.53271 l 0.39893,1.36475 h 1.280762 M 5.21924,-0.719238 C 5.30322,-0.747233 5.38021,-0.775228 5.4502,-0.803223 5.52018,-0.831217 5.58317,-0.859212 5.63916,-0.887207 5.75114,-0.943197 5.85262,-1.01318 5.9436,-1.09717 6.03459,-1.18115 6.08008,-1.29313 6.08008,-1.43311 V -2.86084 L 5.80713,-2.69287 C 5.61117,-2.48291 5.49919,-2.32194 5.47119,-2.20996 5.4152,-2.06999 5.37321,-1.91252 5.34521,-1.73755 5.31722,-1.56258 5.28923,-1.40511 5.26123,-1.26514 5.23324,-1.18115 5.21924,-0.999186 5.21924,-0.719238"
         fill-rule="evenodd"
         vector-effect="none" />
    </g>
    <g
       id="g16"
       font-style="normal"
       font-weight="400"
       font-size="7.8px"
       font-family="'MS Shell Dlg 2'"
       stroke="none"
       fill-opacity="1"
       fill="#489174" />
  </g>
</svg>
