<?xml version="1.0" encoding="UTF-8" standalone="no"?>
<svg width="11.25008mm" height="11.25008mm"
 viewBox="-5.3 -5.3 42.52000 42.52000"
 xmlns="http://www.w3.org/2000/svg" xmlns:xlink="http://www.w3.org/1999/xlink"  version="1.2" baseProfile="tiny">
<title>Qt SVG Document</title>
<desc>Generated with Qt</desc>
<defs>
</defs>
<g fill="none" stroke="black" stroke-width="1" fill-rule="evenodd" stroke-linecap="square" stroke-linejoin="bevel" >

<g fill="#489174" fill-opacity="1" stroke="none" transform="matrix(1,0,0,1,0,0)"
font-family="MS Shell Dlg 2" font-size="7.8" font-weight="400" font-style="normal" 
>
<path vector-effect="non-scaling-stroke" fill-rule="evenodd" d="M37.2598,16 C37.2598,27.7415 27.7415,37.2598 16,37.2598 C4.25851,37.2598 -5.25984,27.7415 -5.25984,16 C-5.25984,4.25851 4.25851,-5.25984 16,-5.25984 C27.7415,-5.25984 37.2598,4.25851 37.2598,16 "/>
</g>

<g fill="#ffffff" fill-opacity="0.94902" stroke="none" transform="matrix(1,0,0,1,17.1339,12.0315)"
font-family="MS Shell Dlg 2" font-size="7.8" font-weight="400" font-style="normal" 
>
<path vector-effect="none" fill-rule="evenodd" d="M-3.01123,2.64014 C-2.95524,2.78011 -2.90975,2.94458 -2.87476,3.13354 C-2.83976,3.32251 -2.79427,3.48698 -2.73828,3.62695 L-2.40234,4.80273 L-3.59912,4.80273 L-3.26318,3.62695 C-3.20719,3.48698 -3.1722,3.32251 -3.1582,3.13354 C-3.14421,2.94458 -3.10921,2.78011 -3.05322,2.64014 L-3.01123,2.64014 M6.83594,-3.93164 C6.61198,-3.70768 6.5,-3.44873 6.5,-3.15479 L6.5,-0.845215 C6.5,-0.635254 6.43001,-0.453288 6.29004,-0.299316 C6.15007,-0.145345 6.00309,0.0016276 5.84912,0.141602 L5.21924,0.540527 L5.30322,1.7793 L4.77832,1.7793 C4.83431,2.70313 4.97078,3.58846 5.18774,4.4353 C5.4047,5.28215 5.73014,6.30745 6.16406,7.51123 C6.47201,8.39307 6.59098,9.24341 6.521,10.0623 C6.45101,10.8811 6.19906,11.5915 5.76514,12.1934 C5.10726,13.1032 4.21842,13.5581 3.09863,13.5581 L1.73389,13.5581 L1.73389,15.1538 L6.54199,15.1538 L6.54199,16.8755 L-9.01611,16.8755 L-9.01611,15.1538 L-7.77734,15.1538 L-7.77734,-6.09424 C-7.77734,-6.34619 -7.68286,-6.57365 -7.4939,-6.77661 C-7.30493,-6.97957 -7.08447,-7.08105 -6.83252,-7.08105 L0.74707,-7.08105 C1.02702,-7.08105 1.26147,-6.97957 1.45044,-6.77661 C1.6394,-6.57365 1.73389,-6.34619 1.73389,-6.09424 L1.73389,12.5293 L3.09863,12.5293 C3.88249,12.5293 4.49837,12.2144 4.94629,11.5845 C5.63216,10.6466 5.70915,9.40088 5.17725,7.84717 C4.74333,6.64339 4.41089,5.57609 4.17993,4.64526 C3.94897,3.71444 3.8055,2.75911 3.74951,1.7793 L3.35059,1.7793 L3.53955,-2 C3.53955,-2.32194 3.69702,-2.61589 4.01196,-2.88184 C4.3269,-3.14779 4.56836,-3.35775 4.73633,-3.51172 L8.78857,-6.59814 L9.25049,-5.98926 L6.83594,-3.93164 M-2.31836,-4.62451 C-3.2002,-4.62451 -3.92106,-4.38656 -4.48096,-3.91064 C-5.04085,-3.43473 -5.3348,-2.75586 -5.36279,-1.87402 C-5.36279,-1.10417 -5.10384,-0.460286 -4.58594,0.0576172 C-4.11003,0.547526 -3.39616,0.79248 -2.44434,0.79248 C-2.0944,0.79248 -1.75496,0.757487 -1.42603,0.6875 C-1.09709,0.617513 -0.848633,0.554525 -0.680664,0.498535 L-0.680664,-2.29395 L-2.6543,-2.29395 L-2.6543,-1.34912 L-1.83545,-1.34912 L-1.83545,-0.236328 C-1.86344,-0.208333 -2.05241,-0.194336 -2.40234,-0.194336 C-2.89225,-0.194336 -3.29468,-0.344808 -3.60962,-0.645752 C-3.92456,-0.946696 -4.08203,-1.37012 -4.08203,-1.91602 C-4.08203,-2.48991 -3.91056,-2.92033 -3.56763,-3.20728 C-3.22469,-3.49422 -2.80827,-3.6377 -2.31836,-3.6377 C-1.88444,-3.6377 -1.47852,-3.56771 -1.10059,-3.42773 L-0.848633,-4.37256 C-0.988607,-4.42855 -1.18107,-4.48454 -1.42603,-4.54053 C-1.67098,-4.59652 -1.96842,-4.62451 -2.31836,-4.62451 M-3.30518,13.4321 C-2.40934,13.4321 -1.74797,13.2677 -1.32104,12.9387 C-0.894124,12.6098 -0.680664,12.2144 -0.680664,11.7524 C-0.680664,11.0666 -1.24056,10.5557 -2.36035,10.2197 C-2.79427,10.0658 -3.10921,9.93978 -3.30518,9.8418 C-3.50114,9.74382 -3.59912,9.61084 -3.59912,9.44287 C-3.59912,9.09294 -3.28418,8.91797 -2.6543,8.91797 C-2.34635,8.91797 -2.0769,8.94596 -1.84595,9.00195 C-1.61499,9.05794 -1.42952,9.11393 -1.28955,9.16992 L-0.932617,8.2251 C-1.33854,8.05713 -1.89844,7.97314 -2.6123,7.97314 C-3.38216,7.97314 -3.99105,8.11662 -4.43896,8.40356 C-4.88688,8.69051 -5.11084,9.07894 -5.11084,9.56885 C-5.11084,9.97477 -4.94637,10.2967 -4.61743,10.5347 C-4.28849,10.7726 -3.85107,10.9686 -3.30518,11.1226 C-2.56331,11.3465 -2.19238,11.5845 -2.19238,11.8364 C-2.19238,12.2424 -2.53532,12.4453 -3.22119,12.4453 C-3.52913,12.4453 -3.82658,12.4103 -4.11353,12.3403 C-4.40047,12.2703 -4.66292,12.1934 -4.90088,12.1094 L-5.19482,13.0962 C-4.99886,13.1802 -4.73641,13.2572 -4.40747,13.3271 C-4.07853,13.3971 -3.7111,13.4321 -3.30518,13.4321 M-0.554688,7.02832 L-2.19238,1.7373 L-3.76709,1.7373 L-5.36279,7.02832 L-4.16602,7.02832 L-3.76709,5.66357 L-2.23438,5.66357 L-1.83545,7.02832 L-0.554688,7.02832 M5.21924,-0.719238 C5.30322,-0.747233 5.38021,-0.775228 5.4502,-0.803223 C5.52018,-0.831217 5.58317,-0.859212 5.63916,-0.887207 C5.75114,-0.943197 5.85262,-1.01318 5.9436,-1.09717 C6.03459,-1.18115 6.08008,-1.29313 6.08008,-1.43311 L6.08008,-2.86084 L5.80713,-2.69287 C5.61117,-2.48291 5.49919,-2.32194 5.47119,-2.20996 C5.4152,-2.06999 5.37321,-1.91252 5.34521,-1.73755 C5.31722,-1.56258 5.28923,-1.40511 5.26123,-1.26514 C5.23324,-1.18115 5.21924,-0.999186 5.21924,-0.719238 "/>
</g>

<g fill="#489174" fill-opacity="1" stroke="none" transform="matrix(1,0,0,1,0,0)"
font-family="MS Shell Dlg 2" font-size="7.8" font-weight="400" font-style="normal" 
>
</g>
</g>
</svg>
