<svg xmlns="http://www.w3.org/2000/svg" version="1.2" viewBox="0 0 42.52 42.52" height="56.693" width="56.693">
   <g stroke-linejoin="bevel" stroke-linecap="square" fill-rule="evenodd" stroke="none" fill="none" font-weight="400"
      font-size="7.8" font-family="'MS Shell Dlg 2'">
      <path
         d="M42.52 21.26C42.52 33 33 42.52 21.26 42.52 9.518 42.52 0 33 0 21.26 0 9.518 9.518 0 21.26 0 33 0 42.52 9.518 42.52 21.26"
         vector-effect="non-scaling-stroke" fill="#489174" />
      <path
         d="M19.383 19.931c.056.14.101.305.136.494s.08.353.136.493l.336 1.176h-1.196l.336-1.176c.056-.14.09-.304.105-.493.014-.19.049-.354.105-.494h.042m9.847-6.571a1.067 1.067 0 00-.336.777v2.31c0 .21-.07.391-.21.545-.14.154-.287.301-.441.44l-.63.4.084 1.239h-.525c.056.923.193 1.809.41 2.656.216.846.542 1.872.976 3.076.308.881.427 1.732.357 2.55-.07.82-.322 1.53-.756 2.132-.658.91-1.547 1.364-2.667 1.364h-1.364v1.596h4.808v1.722H13.378v-1.722h1.238V11.197c0-.252.095-.48.284-.682a.878.878 0 01.661-.305h7.58c.28 0 .514.102.703.305.19.203.284.43.284.682v18.624h1.364c.784 0 1.4-.315 1.848-.945.686-.938.763-2.184.231-3.737a33.142 33.142 0 01-.997-3.202 15.56 15.56 0 01-.43-2.866h-.4l.19-3.78c0-.322.157-.616.472-.882a25.2 25.2 0 00.724-.63l4.052-3.086.462.61-2.414 2.057m-9.155-.693c-.881 0-1.602.238-2.162.714-.56.476-.854 1.154-.882 2.036 0 .77.259 1.414.777 1.932.476.49 1.19.735 2.141.735.35 0 .69-.035 1.019-.105.329-.07.577-.133.745-.19v-2.792H19.74v.945h.82v1.113c-.029.028-.218.042-.568.042-.49 0-.892-.15-1.207-.451-.315-.301-.472-.725-.472-1.27 0-.575.171-1.005.514-1.292.343-.287.76-.43 1.25-.43.433 0 .84.07 1.217.21l.252-.945a4.05 4.05 0 00-.577-.168 4.067 4.067 0 00-.893-.084m-.986 18.056c.895 0 1.557-.164 1.984-.493.427-.329.64-.724.64-1.186 0-.686-.56-1.197-1.68-1.533a9.178 9.178 0 01-.944-.378c-.196-.098-.294-.23-.294-.399 0-.35.315-.525.944-.525.308 0 .578.028.809.084.23.056.416.112.556.168l.357-.945c-.406-.168-.966-.252-1.68-.252-.77 0-1.378.144-1.826.43-.448.288-.672.676-.672 1.166 0 .406.164.728.493.966.33.238.767.434 1.313.588.741.224 1.112.462 1.112.714 0 .406-.343.609-1.028.609-.308 0-.606-.035-.893-.105a8.237 8.237 0 01-.787-.231l-.294.987c.196.084.458.16.787.23.33.07.697.105 1.103.105m2.75-6.403l-1.638-5.291h-1.574l-1.596 5.29h1.197l.399-1.364h1.532l.4 1.365h1.28m5.774-7.748c.084-.028.16-.056.23-.084.07-.028.134-.056.19-.084a1.31 1.31 0 00.304-.21.435.435 0 00.137-.336V14.43l-.273.168c-.196.21-.308.371-.336.483-.056.14-.098.298-.126.473-.028.175-.056.332-.084.472-.028.084-.042.266-.042.546"
         fill-opacity=".949" fill="#fff" />
   </g>
</svg>