<svg xmlns="http://www.w3.org/2000/svg" version="1.2" viewBox="0 0 42.52 42.52" height="56.693" width="56.693">
   <g stroke-linejoin="bevel" stroke-linecap="square" fill-rule="evenodd" stroke="none" fill="none" font-weight="400"
      font-size="7.8" font-family="'MS Shell Dlg 2'">
      <path
         d="M42.52 21.26C42.52 33 33 42.52 21.26 42.52 9.518 42.52 0 33 0 21.26 0 9.518 9.518 0 21.26 0 33 0 42.52 9.518 42.52 21.26"
         vector-effect="non-scaling-stroke" fill="#489174" />
      <path
         d="M13.965 16.404a.958.958 0 01-.85-.063 1.09 1.09 0 01-.535-.672c-.084-.336-.063-.633.063-.892s.364-.43.714-.514c.28-.084.556-.056.829.084.273.14.451.356.535.65.098.336.074.634-.073.893s-.375.43-.683.514m2.52 11.82c-.504 0-.938-.178-1.302-.534a1.767 1.767 0 01-.546-1.313c0-.504.182-.938.546-1.301a1.777 1.777 0 011.302-.546c.518 0 .955.182 1.312.546.357.363.536.797.536 1.301 0 .518-.179.956-.536 1.313a1.785 1.785 0 01-1.312.535m13.29 0c-.517 0-.962-.179-1.333-.535a1.75 1.75 0 01-.556-1.313c0-.504.185-.938.556-1.301.371-.364.816-.546 1.333-.546.49 0 .92.182 1.292.546.37.363.556.797.556 1.301 0 .518-.185.956-.556 1.313-.371.356-.802.535-1.292.535M13.818 21.82l-.252-.084-1.68-1.029c-.195-.112-.293-.3-.293-.567v-.986l-1.638 1.763c-.028.056-.098.112-.21.168v6.026a.862.862 0 01-.262.651.89.89 0 01-.64.252.901.901 0 01-.63-.252.846.846 0 01-.273-.65V20.33a1.478 1.478 0 01.251-.986l2.667-2.856c.266-.224.556-.35.871-.378a.97.97 0 01.809.294c.252.322.378.609.378.861v2.54l1.301.82c.378.195.462.496.252.902l-.168.168-.483.126m20.346 3.192c.322.084.483.3.483.65 0 .476-.231.714-.693.714H32.4c0-.742-.248-1.371-.745-1.89-.497-.517-1.124-.776-1.88-.776-.741 0-1.371.259-1.89.777a2.572 2.572 0 00-.776 1.89h-7.916c0-.743-.262-1.372-.787-1.89-.525-.518-1.165-.777-1.921-.777-.742 0-1.372.259-1.89.777a2.572 2.572 0 00-.777 1.89h-.545c-.49 0-.735-.239-.735-.715 0-.406.203-.622.609-.65l.293-2.499c0-.308.126-.539.378-.693l.483-.126h2.54l-1.805-3.044c-.238-.35-.154-.637.252-.861.378-.21.665-.14.861.21l1.806 3.044 2.414-2.876a.517.517 0 01.42-.21h7.496c.196 0 .336.084.42.252l2.015 3.485h2.33c.519 0 .778.273.778.819l.336 2.499M23.54 18.987H21l-2.184 2.708h4.724v-2.708m6.026 2.708l-1.596-2.708h-3.444v2.708h5.04"
         fill-opacity=".949" fill="#fff" />
   </g>
</svg>