<?xml version="1.0" encoding="UTF-8" standalone="no"?>
<svg
   xmlns:dc="http://purl.org/dc/elements/1.1/"
   xmlns:cc="http://creativecommons.org/ns#"
   xmlns:rdf="http://www.w3.org/1999/02/22-rdf-syntax-ns#"
   xmlns:svg="http://www.w3.org/2000/svg"
   xmlns="http://www.w3.org/2000/svg"
   xmlns:sodipodi="http://sodipodi.sourceforge.net/DTD/sodipodi-0.dtd"
   xmlns:inkscape="http://www.inkscape.org/namespaces/inkscape"
   inkscape:version="1.0 (4035a4fb49, 2020-05-01)"
   sodipodi:docname="2503.svg"
   id="svg20"
   version="1.2"
   viewBox="0 0 42.519639 42.519639"
   height="14.999999mm"
   width="14.999999mm">
  <metadata
     id="metadata24">
    <rdf:RDF>
      <cc:Work
         rdf:about="">
        <dc:format>image/svg+xml</dc:format>
        <dc:type
           rdf:resource="http://purl.org/dc/dcmitype/StillImage" />
        <dc:title>Qt SVG Document</dc:title>
      </cc:Work>
    </rdf:RDF>
  </metadata>
  <sodipodi:namedview
     inkscape:current-layer="svg20"
     inkscape:window-maximized="0"
     inkscape:window-y="0"
     inkscape:window-x="0"
     inkscape:cy="28.346482"
     inkscape:cx="28.346482"
     inkscape:zoom="5.8410537"
     showgrid="false"
     id="namedview22"
     inkscape:window-height="480"
     inkscape:window-width="1034"
     inkscape:pageshadow="2"
     inkscape:pageopacity="0"
     guidetolerance="10"
     gridtolerance="10"
     objecttolerance="10"
     borderopacity="1"
     bordercolor="#666666"
     pagecolor="#ffffff" />
  <title
     id="title2">Qt SVG Document</title>
  <desc
     id="desc4">Generated with Qt</desc>
  <defs
     id="defs6" />
  <g
     transform="translate(5.25984,5.25984)"
     id="g18"
     stroke-linejoin="bevel"
     stroke-linecap="square"
     fill-rule="evenodd"
     stroke-width="1"
     stroke="#000000"
     fill="none">
    <g
       id="g10"
       font-style="normal"
       font-weight="400"
       font-size="7.8px"
       font-family="'MS Shell Dlg 2'"
       stroke="none"
       fill-opacity="1"
       fill="#489174">
      <path
         id="path8"
         d="M 37.2598,16 C 37.2598,27.7415 27.7415,37.2598 16,37.2598 4.25851,37.2598 -5.25984,27.7415 -5.25984,16 -5.25984,4.25851 4.25851,-5.25984 16,-5.25984 27.7415,-5.25984 37.2598,4.25851 37.2598,16"
         fill-rule="evenodd"
         vector-effect="non-scaling-stroke" />
    </g>
    <g
       id="g14"
       font-style="normal"
       font-weight="400"
       font-size="7.8px"
       font-family="'MS Shell Dlg 2'"
       transform="translate(16,12.0315)"
       stroke="none"
       fill-opacity="0.94902"
       fill="#ffffff">
      <path
         id="path12"
         d="m -7.29443,-0.887207 c -0.29395,0.111979 -0.5774,0.090983 -0.85035,-0.062988 -0.27294,-0.153975 -0.45141,-0.377935 -0.5354,-0.671875 -0.08398,-0.33594 -0.06298,-0.63338 0.06299,-0.89233 0.12598,-0.25896 0.36393,-0.43042 0.71387,-0.51441 0.27995,-0.08398 0.5564,-0.05599 0.82935,0.08399 0.27294,0.13997 0.45141,0.35693 0.5354,0.65087 0.09798,0.33594 0.07348,0.63339 -0.07349,0.89234 -0.14697,0.25895 -0.37443,0.430419 -0.68237,0.514403 M -4.7749,10.9336 c -0.50391,0 -0.93783,-0.1785 -1.30176,-0.5354 -0.36393,-0.3569 -0.5459,-0.79436 -0.5459,-1.31226 0,-0.50391 0.18197,-0.93783 0.5459,-1.30176 0.36393,-0.36393 0.79785,-0.5459 1.30176,-0.5459 0.5179,0 0.95532,0.18197 1.31225,0.5459 0.35694,0.36393 0.5354,0.79785 0.5354,1.30176 0,0.5179 -0.17846,0.95536 -0.5354,1.31226 -0.35693,0.3569 -0.79435,0.5354 -1.31225,0.5354 m 13.29053,0 C 7.99772,10.9336 7.5533,10.7551 7.18237,10.3982 6.81144,10.0413 6.62598,9.60384 6.62598,9.08594 c 0,-0.50391 0.18546,-0.93783 0.55639,-1.30176 0.37093,-0.36393 0.81535,-0.5459 1.33326,-0.5459 0.4899,0 0.92032,0.18197 1.29125,0.5459 0.37092,0.36393 0.55642,0.79785 0.55642,1.30176 0,0.5179 -0.1855,0.95536 -0.55642,1.31226 -0.37093,0.3569 -0.80135,0.5354 -1.29125,0.5354 M -7.44141,4.52979 -7.69336,4.4458 -9.37305,3.41699 C -9.56901,3.30501 -9.66699,3.11605 -9.66699,2.8501 V 1.86328 l -1.63771,1.76367 c -0.028,0.05599 -0.098,0.11198 -0.2099,0.16797 V 9.8208 c 0,0.266 -0.0875,0.4829 -0.2625,0.6509 -0.175,0.1679 -0.3884,0.2519 -0.6404,0.2519 -0.2379,0 -0.4479,-0.084 -0.6299,-0.2519 -0.1819,-0.168 -0.2729,-0.3849 -0.2729,-0.6509 V 3.03906 c -0.028,-0.37793 0.056,-0.70687 0.2519,-0.98681 l 2.6665,-2.855473 c 0.266,-0.223957 0.55644,-0.349937 0.87138,-0.377927 0.31494,-0.028 0.58439,0.06998 0.80835,0.293943 0.25196,0.32194 0.37793,0.608887 0.37793,0.8608398 V 0.0996094 2.51416 l 1.30176,0.81885 c 0.37793,0.19596 0.46191,0.49691 0.25195,0.90283 L -6.9585,4.40381 -7.44141,4.52979 m 20.34521,3.1914 c 0.3219,0.08399 0.4829,0.30095 0.4829,0.65088 0,0.47591 -0.2309,0.71387 -0.6929,0.71387 h -1.5537 c 0,-0.74186 -0.2484,-1.37175 -0.7453,-1.88965 C 9.89787,6.67839 9.27148,6.41943 8.51563,6.41943 7.77376,6.41943 7.14388,6.67839 6.62598,7.19629 6.10807,7.71419 5.84912,8.34408 5.84912,9.08594 h -7.91553 c 0,-0.74186 -0.26245,-1.37175 -0.78735,-1.88965 -0.5249,-0.5179 -1.16528,-0.77686 -1.92114,-0.77686 -0.74186,0 -1.37175,0.25896 -1.88965,0.77686 -0.5179,0.5179 -0.77686,1.14779 -0.77686,1.88965 H -7.9873 c -0.48991,0 -0.73487,-0.23796 -0.73487,-0.71387 0,-0.40592 0.20296,-0.62288 0.60889,-0.65088 l 0.29394,-2.49853 c 0,-0.30795 0.12598,-0.5389 0.37793,-0.69287 L -6.9585,4.40381 h 2.54053 L -6.22363,1.35938 C -6.46159,1.00944 -6.3776,0.722493 -5.97168,0.498535 -5.59375,0.288574 -5.3068,0.358561 -5.11084,0.708496 L -3.30518,3.75293 -0.890625,0.876465 C -0.778646,0.736491 -0.638672,0.666504 -0.470703,0.666504 H 7.0249 c 0.19597,0 0.33594,0.083984 0.41992,0.251953 L 9.46045,4.40381 H 11.791 c 0.5179,0 0.7769,0.27295 0.7769,0.81885 l 0.3359,2.49853 M 2.27979,1.69531 h -2.540532 l -2.183598,2.7085 h 4.72413 v -2.7085 m 6.02587,2.7085 -1.5957,-2.7085 H 3.2666 v 2.7085 h 5.03906"
         fill-rule="evenodd"
         vector-effect="none" />
    </g>
    <g
       id="g16"
       font-style="normal"
       font-weight="400"
       font-size="7.8px"
       font-family="'MS Shell Dlg 2'"
       stroke="none"
       fill-opacity="1"
       fill="#489174" />
  </g>
</svg>
