<?xml version="1.0" encoding="UTF-8" standalone="no"?>
<svg width="11.25008mm" height="11.25008mm"
 viewBox="-5.3 -5.3 42.52000 42.52000"
 xmlns="http://www.w3.org/2000/svg" xmlns:xlink="http://www.w3.org/1999/xlink"  version="1.2" baseProfile="tiny">
<title>Qt SVG Document</title>
<desc>Generated with Qt</desc>
<defs>
</defs>
<g fill="none" stroke="black" stroke-width="1" fill-rule="evenodd" stroke-linecap="square" stroke-linejoin="bevel" >

<g fill="#489174" fill-opacity="1" stroke="none" transform="matrix(1,0,0,1,0,0)"
font-family="MS Shell Dlg 2" font-size="7.8" font-weight="400" font-style="normal" 
>
<path vector-effect="non-scaling-stroke" fill-rule="evenodd" d="M37.2598,16 C37.2598,27.7415 27.7415,37.2598 16,37.2598 C4.25851,37.2598 -5.25984,27.7415 -5.25984,16 C-5.25984,4.25851 4.25851,-5.25984 16,-5.25984 C27.7415,-5.25984 37.2598,4.25851 37.2598,16 "/>
</g>

<g fill="#ffffff" fill-opacity="0.94902" stroke="none" transform="matrix(1,0,0,1,16,12.0315)"
font-family="MS Shell Dlg 2" font-size="7.8" font-weight="400" font-style="normal" 
>
<path vector-effect="none" fill-rule="evenodd" d="M-7.29443,-0.887207 C-7.58838,-0.775228 -7.87183,-0.796224 -8.14478,-0.950195 C-8.41772,-1.10417 -8.59619,-1.32813 -8.68018,-1.62207 C-8.76416,-1.95801 -8.74316,-2.25545 -8.61719,-2.5144 C-8.49121,-2.77336 -8.25326,-2.94482 -7.90332,-3.02881 C-7.62337,-3.11279 -7.34692,-3.0848 -7.07397,-2.94482 C-6.80103,-2.80485 -6.62256,-2.58789 -6.53857,-2.29395 C-6.44059,-1.95801 -6.46509,-1.66056 -6.61206,-1.40161 C-6.75903,-1.14266 -6.98649,-0.971191 -7.29443,-0.887207 M-4.7749,10.9336 C-5.27881,10.9336 -5.71273,10.7551 -6.07666,10.3982 C-6.44059,10.0413 -6.62256,9.60384 -6.62256,9.08594 C-6.62256,8.58203 -6.44059,8.14811 -6.07666,7.78418 C-5.71273,7.42025 -5.27881,7.23828 -4.7749,7.23828 C-4.257,7.23828 -3.81958,7.42025 -3.46265,7.78418 C-3.10571,8.14811 -2.92725,8.58203 -2.92725,9.08594 C-2.92725,9.60384 -3.10571,10.0413 -3.46265,10.3982 C-3.81958,10.7551 -4.257,10.9336 -4.7749,10.9336 M8.51563,10.9336 C7.99772,10.9336 7.5533,10.7551 7.18237,10.3982 C6.81144,10.0413 6.62598,9.60384 6.62598,9.08594 C6.62598,8.58203 6.81144,8.14811 7.18237,7.78418 C7.5533,7.42025 7.99772,7.23828 8.51563,7.23828 C9.00553,7.23828 9.43595,7.42025 9.80688,7.78418 C10.1778,8.14811 10.3633,8.58203 10.3633,9.08594 C10.3633,9.60384 10.1778,10.0413 9.80688,10.3982 C9.43595,10.7551 9.00553,10.9336 8.51563,10.9336 M-7.44141,4.52979 L-7.69336,4.4458 L-9.37305,3.41699 C-9.56901,3.30501 -9.66699,3.11605 -9.66699,2.8501 L-9.66699,1.86328 L-11.3047,3.62695 C-11.3327,3.68294 -11.4027,3.73893 -11.5146,3.79492 L-11.5146,9.8208 C-11.5146,10.0868 -11.6021,10.3037 -11.7771,10.4717 C-11.9521,10.6396 -12.1655,10.7236 -12.4175,10.7236 C-12.6554,10.7236 -12.8654,10.6396 -13.0474,10.4717 C-13.2293,10.3037 -13.3203,10.0868 -13.3203,9.8208 L-13.3203,3.03906 C-13.3483,2.66113 -13.2643,2.33219 -13.0684,2.05225 L-10.4019,-0.803223 C-10.1359,-1.02718 -9.84546,-1.15316 -9.53052,-1.18115 C-9.21558,-1.20915 -8.94613,-1.11117 -8.72217,-0.887207 C-8.47021,-0.565267 -8.34424,-0.27832 -8.34424,-0.0263672 L-8.34424,0.0996094 L-8.34424,2.51416 L-7.04248,3.33301 C-6.66455,3.52897 -6.58057,3.82992 -6.79053,4.23584 L-6.9585,4.40381 L-7.44141,4.52979 M12.9038,7.72119 C13.2257,7.80518 13.3867,8.02214 13.3867,8.37207 C13.3867,8.84798 13.1558,9.08594 12.6938,9.08594 L11.1401,9.08594 C11.1401,8.34408 10.8917,7.71419 10.3948,7.19629 C9.89787,6.67839 9.27148,6.41943 8.51563,6.41943 C7.77376,6.41943 7.14388,6.67839 6.62598,7.19629 C6.10807,7.71419 5.84912,8.34408 5.84912,9.08594 L-2.06641,9.08594 C-2.06641,8.34408 -2.32886,7.71419 -2.85376,7.19629 C-3.37866,6.67839 -4.01904,6.41943 -4.7749,6.41943 C-5.51676,6.41943 -6.14665,6.67839 -6.66455,7.19629 C-7.18245,7.71419 -7.44141,8.34408 -7.44141,9.08594 L-7.9873,9.08594 C-8.47721,9.08594 -8.72217,8.84798 -8.72217,8.37207 C-8.72217,7.96615 -8.51921,7.74919 -8.11328,7.72119 L-7.81934,5.22266 C-7.81934,4.91471 -7.69336,4.68376 -7.44141,4.52979 L-6.9585,4.40381 L-4.41797,4.40381 L-6.22363,1.35938 C-6.46159,1.00944 -6.3776,0.722493 -5.97168,0.498535 C-5.59375,0.288574 -5.3068,0.358561 -5.11084,0.708496 L-3.30518,3.75293 L-0.890625,0.876465 C-0.778646,0.736491 -0.638672,0.666504 -0.470703,0.666504 L7.0249,0.666504 C7.22087,0.666504 7.36084,0.750488 7.44482,0.918457 L9.46045,4.40381 L11.791,4.40381 C12.3089,4.40381 12.5679,4.67676 12.5679,5.22266 L12.9038,7.72119 M2.27979,1.69531 L-0.260742,1.69531 L-2.44434,4.40381 L2.27979,4.40381 L2.27979,1.69531 M8.30566,4.40381 L6.70996,1.69531 L3.2666,1.69531 L3.2666,4.40381 L8.30566,4.40381"/>
</g>

<g fill="#489174" fill-opacity="1" stroke="none" transform="matrix(1,0,0,1,0,0)"
font-family="MS Shell Dlg 2" font-size="7.8" font-weight="400" font-style="normal" 
>
</g>
</g>
</svg>
