<?xml version="1.0" encoding="UTF-8" standalone="no"?>
<svg
   xmlns:dc="http://purl.org/dc/elements/1.1/"
   xmlns:cc="http://creativecommons.org/ns#"
   xmlns:rdf="http://www.w3.org/1999/02/22-rdf-syntax-ns#"
   xmlns:svg="http://www.w3.org/2000/svg"
   xmlns="http://www.w3.org/2000/svg"
   xmlns:sodipodi="http://sodipodi.sourceforge.net/DTD/sodipodi-0.dtd"
   xmlns:inkscape="http://www.inkscape.org/namespaces/inkscape"
   inkscape:version="1.0 (4035a4fb49, 2020-05-01)"
   sodipodi:docname="2504.svg"
   id="svg20"
   version="1.2"
   viewBox="0 0 42.519639 42.519639"
   height="14.999999mm"
   width="14.999999mm">
  <metadata
     id="metadata24">
    <rdf:RDF>
      <cc:Work
         rdf:about="">
        <dc:format>image/svg+xml</dc:format>
        <dc:type
           rdf:resource="http://purl.org/dc/dcmitype/StillImage" />
        <dc:title>Qt SVG Document</dc:title>
      </cc:Work>
    </rdf:RDF>
  </metadata>
  <sodipodi:namedview
     inkscape:current-layer="svg20"
     inkscape:window-maximized="0"
     inkscape:window-y="0"
     inkscape:window-x="0"
     inkscape:cy="28.346482"
     inkscape:cx="28.346482"
     inkscape:zoom="5.8410537"
     showgrid="false"
     id="namedview22"
     inkscape:window-height="480"
     inkscape:window-width="1034"
     inkscape:pageshadow="2"
     inkscape:pageopacity="0"
     guidetolerance="10"
     gridtolerance="10"
     objecttolerance="10"
     borderopacity="1"
     bordercolor="#666666"
     pagecolor="#ffffff" />
  <title
     id="title2">Qt SVG Document</title>
  <desc
     id="desc4">Generated with Qt</desc>
  <defs
     id="defs6" />
  <g
     transform="translate(5.25984,5.25984)"
     id="g18"
     stroke-linejoin="bevel"
     stroke-linecap="square"
     fill-rule="evenodd"
     stroke-width="1"
     stroke="#000000"
     fill="none">
    <g
       id="g10"
       font-style="normal"
       font-weight="400"
       font-size="7.8px"
       font-family="'MS Shell Dlg 2'"
       stroke="none"
       fill-opacity="1"
       fill="#489174">
      <path
         id="path8"
         d="M 37.2598,16 C 37.2598,27.7415 27.7415,37.2598 16,37.2598 4.25851,37.2598 -5.25984,27.7415 -5.25984,16 -5.25984,4.25851 4.25851,-5.25984 16,-5.25984 27.7415,-5.25984 37.2598,4.25851 37.2598,16"
         fill-rule="evenodd"
         vector-effect="non-scaling-stroke" />
    </g>
    <g
       id="g14"
       font-style="normal"
       font-weight="400"
       font-size="7.8px"
       font-family="'MS Shell Dlg 2'"
       transform="translate(16,12.5984)"
       stroke="none"
       fill-opacity="0.94902"
       fill="#ffffff">
      <path
         id="path12"
         d="M -7.89941,4.19385 C -8.80924,3.96989 -9.55811,3.48348 -10.146,2.73462 c -0.5879,-0.74886 -0.8818,-1.6132 -0.8818,-2.593018 0,-0.797852 0.1994,-1.525712 0.5984,-2.183592 0.3989,-0.65788 0.92728,-1.16179 1.58516,-1.51172 l -0.08398,-0.50391 c -0.05599,-0.68587 0.12597,-1.30176 0.5459,-1.84765 0.41992,-0.5459 0.95882,-0.89584 1.61669,-1.04981 0.028,-0.02799 0.06999,-0.04199 0.12598,-0.04199 l 3.65332,-0.33594 c 0.51791,-0.05599 0.80485,0.17497 0.86084,0.69287 l 0.04199,0.37793 10.58204,-0.98681 c 0.22395,-0.028 0.43042,0.03149 0.61938,0.17846 0.18896,0.14698 0.29744,0.33244 0.32544,0.5564 l 0.08398,0.98682 c 0.028,0.22395 -0.03849,0.42342 -0.19946,0.59838 -0.16097,0.17497 -0.35343,0.27645 -0.57739,0.30445 l -0.73486,0.04199 -0.08399,-0.90283 -1.15478,0.08398 0.08398,0.94483 -1.38574,0.12597 -0.25196,-1.0708 -2.0996,0.48291 0.16796,0.77686 -1.15478,0.12597 -0.08399,-0.81884 -1.91064,0.20996 0.062988,0.77685 -2.078618,0.20996 0.08399,0.86084 c 0.05599,0.51791 -0.18897,0.80485 -0.73486,0.86084 l -3.61133,0.33594 c -0.08399,0 -0.12598,-0.014 -0.12598,-0.04199 -1.02181,0 -1.77767,-0.42692 -2.26758,-1.28076 -0.5179,0.32194 -0.94132,0.74536 -1.27026,1.27026 -0.32894,0.5249 -0.49344,1.116294 -0.49344,1.774172 0,0.839843 0.259,1.567708 0.77689,2.183598 0.5179,0.61588 1.14778,1.02181 1.88965,1.21777 l -0.27295,0.65088 m 0.18896,-8.52442 c 0,0.18197 0.014,0.30095 0.04199,0.35694 0.13998,-0.05599 0.27995,-0.08399 0.41992,-0.08399 0.13998,0 0.28695,0 0.44092,0 0.36394,0 0.58789,0.014 0.67188,0.04199 l -0.08399,0.73487 c -0.08398,-0.028 -0.27994,-0.04199 -0.58789,-0.04199 -0.32194,0 -0.5249,0.01399 -0.60888,0.04199 0.29394,0.47591 0.63688,0.68587 1.0288,0.62988 0.16797,0 0.31845,-0.014 0.45142,-0.04199 0.13298,-0.028 0.24845,-0.10498 0.34644,-0.23096 0.09798,-0.12597 0.16796,-0.31144 0.20996,-0.55639 0.04199,-0.24496 0.04899,-0.59839 0.02099,-1.06031 -0.05599,-0.43392 -0.12597,-0.76985 -0.20996,-1.00781 -0.08398,-0.23796 -0.18196,-0.40942 -0.29394,-0.5144 -0.11198,-0.10498 -0.24146,-0.15747 -0.38843,-0.15747 -0.14697,0 -0.30444,0 -0.47241,0 -0.32194,0.05598 -0.58089,0.26595 -0.77686,0.62988 -0.19596,0.36393 -0.26595,0.78385 -0.20996,1.25976 M 8.33057,5.70557 C 8.80648,5.84554 9.2124,6.12199 9.54834,6.53491 9.88428,6.94784 10.0522,7.42725 10.0522,7.97314 V 13.0542 H 8.49854 v 1.5537 c 0,0.4199 -0.15048,0.7804 -0.45142,1.0813 -0.30094,0.301 -0.66838,0.4514 -1.1023,0.4514 -0.40592,0 -0.75935,-0.1504 -1.0603,-0.4514 C 5.58358,15.3883 5.43311,15.0278 5.43311,14.6079 V 13.0542 H -4.83398 v 1.5537 c 0,0.4199 -0.15048,0.7804 -0.45142,1.0813 -0.30094,0.301 -0.66838,0.4514 -1.1023,0.4514 -0.43391,0 -0.80135,-0.1504 -1.10229,-0.4514 -0.30094,-0.3009 -0.45142,-0.6614 -0.45142,-1.0813 l 0.042,-1.5537 H -9.47412 V 7.97314 c 0,-0.54589 0.16447,-1.0253 0.49341,-1.43823 0.32894,-0.41292 0.75236,-0.68937 1.27026,-0.82934 l 1.80566,-4.3042 C -5.76481,1.07943 -5.55835,0.820475 -5.2854,0.624512 -5.01245,0.428548 -4.69401,0.330566 -4.33008,0.330566 h 1.00781 c 0.028,-0.027994 0.042,-0.090983 0.042,-0.188964 0,-0.2239588 -0.0315,-0.451416 -0.09449,-0.682373 -0.06298,-0.230958 -0.12247,-0.444418 -0.17846,-0.640379 h 0.77685 c 0.11198,0.335935 0.16797,0.776853 0.16797,1.322752 v 0.188964 h 7.5376 c 0.33594,0 0.64738,0.097982 0.93433,0.293946 0.28694,0.195963 0.5074,0.454918 0.66137,0.776858 l 1.80567,4.3042 M -6.42969,9.86279 c 0.37793,0 0.68937,-0.12247 0.93433,-0.36743 0.24495,-0.24495 0.36743,-0.5494 0.36743,-0.91333 0,-0.37793 -0.12248,-0.68937 -0.36743,-0.93432 -0.24496,-0.24496 -0.5564,-0.36744 -0.93433,-0.36744 -0.33594,0 -0.63338,0.12248 -0.89233,0.36744 -0.25895,0.24495 -0.38843,0.55639 -0.38843,0.93432 0,0.36393 0.12948,0.66838 0.38843,0.91333 0.25895,0.24496 0.55639,0.36743 0.89233,0.36743 M 6.77686,5.60059 5.22314,1.90527 C 5.13916,1.68132 4.98519,1.56934 4.76123,1.56934 H -2.86035 C -3.19629,2.57715 -3.82617,3.31901 -4.75,3.79492 l 0.37793,-1.15478 c 0.37793,-0.36394 0.62288,-0.72087 0.73486,-1.0708 h -0.5459 c -0.23795,0 -0.38492,0.11198 -0.44091,0.33593 L -6.17773,5.60059 H 6.77686 m 0.20996,4.2622 c 0.37793,0 0.68937,-0.12247 0.93432,-0.36743 C 8.1661,9.25041 8.28857,8.94596 8.28857,8.58203 8.28857,8.2041 8.1661,7.89266 7.92114,7.64771 7.67619,7.40275 7.36475,7.28027 6.98682,7.28027 6.65088,7.28027 6.35343,7.40275 6.09448,7.64771 5.83553,7.89266 5.70605,8.2041 5.70605,8.58203 c 0,0.36393 0.12948,0.66838 0.38843,0.91333 0.25895,0.24496 0.5564,0.36743 0.89234,0.36743"
         fill-rule="evenodd"
         vector-effect="none" />
    </g>
    <g
       id="g16"
       font-style="normal"
       font-weight="400"
       font-size="7.8px"
       font-family="'MS Shell Dlg 2'"
       stroke="none"
       fill-opacity="1"
       fill="#489174" />
  </g>
</svg>
