<svg xmlns="http://www.w3.org/2000/svg" version="1.2" viewBox="0 0 42.52 42.52" height="56.693" width="56.693">
   <g stroke-linejoin="bevel" stroke-linecap="square" fill-rule="evenodd" stroke="none" fill="none" font-weight="400"
      font-size="7.8" font-family="'MS Shell Dlg 2'">
      <path
         d="M42.52 21.26C42.52 33 33 42.52 21.26 42.52 9.518 42.52 0 33 0 21.26 0 9.518 9.518 0 21.26 0 33 0 42.52 9.518 42.52 21.26"
         vector-effect="non-scaling-stroke" fill="#489174" />
      <path
         d="M13.36 22.052a4.002 4.002 0 01-2.246-1.46c-.588-.748-.882-1.612-.882-2.592 0-.798.2-1.526.598-2.184a4.058 4.058 0 011.586-1.511l-.084-.504a2.587 2.587 0 01.546-1.848c.42-.546.958-.896 1.616-1.05.028-.028.07-.042.126-.042l3.654-.336c.517-.056.804.175.86.693l.042.378 10.582-.987a.812.812 0 01.62.179.812.812 0 01.325.556l.084.987a.717.717 0 01-.2.598.92.92 0 01-.577.305l-.735.042-.084-.903-1.154.084.084.945-1.386.126-.252-1.071-2.1.483.168.777-1.154.126-.084-.82-1.911.21.063.778-2.079.21.084.86c.056.518-.189.805-.735.861l-3.61.336c-.085 0-.127-.014-.127-.042-1.022 0-1.778-.427-2.267-1.28a3.934 3.934 0 00-1.27 1.27A3.272 3.272 0 0010.966 18c0 .84.259 1.568.777 2.183.518.616 1.148 1.022 1.89 1.218l-.274.651m.19-8.524c0 .182.013.3.041.357.14-.056.28-.084.42-.084h.441c.364 0 .588.014.672.042l-.084.734c-.084-.028-.28-.042-.588-.042-.322 0-.525.014-.609.042.294.476.637.686 1.03.63.167 0 .318-.014.45-.042a.59.59 0 00.347-.23c.098-.127.168-.312.21-.557.042-.245.049-.598.02-1.06-.055-.434-.125-.77-.209-1.008-.084-.238-.182-.41-.294-.515a.55.55 0 00-.388-.157h-.473c-.322.056-.58.266-.777.63-.196.364-.266.784-.21 1.26M29.59 23.564c.476.14.882.416 1.218.83.336.412.504.891.504 1.437v5.081h-1.554v1.554c0 .42-.15.78-.451 1.081a1.5 1.5 0 01-1.102.452c-.406 0-.76-.15-1.06-.452-.302-.3-.452-.661-.452-1.08v-1.555H16.426v1.554c0 .42-.15.78-.452 1.081a1.5 1.5 0 01-1.102.452 1.5 1.5 0 01-1.102-.452c-.301-.3-.452-.661-.452-1.08l.042-1.555h-1.574v-5.08c0-.547.164-1.026.493-1.439.33-.413.752-.69 1.27-.83l1.806-4.303c.14-.322.346-.581.62-.777.272-.196.59-.294.955-.294h1.008c.028-.028.042-.091.042-.19 0-.223-.032-.45-.095-.682a55.26 55.26 0 00-.178-.64h.776c.112.336.168.777.168 1.323v.189h7.538c.336 0 .647.098.934.294.287.196.508.455.662.777l1.805 4.304M14.83 27.72c.378 0 .69-.122.934-.367a1.24 1.24 0 00.368-.914c0-.378-.123-.69-.368-.934-.244-.245-.556-.367-.934-.367-.336 0-.633.122-.892.367a1.23 1.23 0 00-.389.934c0 .364.13.669.389.914s.556.367.892.367m13.207-4.262l-1.554-3.695c-.084-.224-.238-.336-.462-.336H18.4c-.335 1.007-.965 1.75-1.89 2.225l.379-1.155c.378-.364.623-.72.735-1.07h-.546c-.238 0-.385.112-.441.336l-1.554 3.695h12.955m.21 4.262c.378 0 .689-.122.934-.367a1.24 1.24 0 00.367-.914c0-.378-.122-.69-.367-.934-.245-.245-.556-.367-.934-.367-.336 0-.634.122-.893.367a1.23 1.23 0 00-.388.934c0 .364.13.669.388.914.26.245.557.367.893.367"
         fill-opacity=".949" fill="#fff" />
   </g>
</svg>