<?xml version="1.0" encoding="UTF-8" standalone="no"?>
<svg width="11.2889mm" height="11.2889mm"
 viewBox="0 0 32 32"
 xmlns="http://www.w3.org/2000/svg" xmlns:xlink="http://www.w3.org/1999/xlink"  version="1.2" baseProfile="tiny">
<title>Qt SVG Document</title>
<desc>Generated with Qt</desc>
<defs>
</defs>
<g fill="none" stroke="black" stroke-width="1" fill-rule="evenodd" stroke-linecap="square" stroke-linejoin="bevel" >

<g fill="#489174" fill-opacity="1" stroke="none" transform="matrix(1,0,0,1,0,0)"
font-family="MS Shell Dlg 2" font-size="7.8" font-weight="400" font-style="normal" 
>
<path vector-effect="non-scaling-stroke" fill-rule="evenodd" d="M37.2598,16 C37.2598,27.7415 27.7415,37.2598 16,37.2598 C4.25851,37.2598 -5.25984,27.7415 -5.25984,16 C-5.25984,4.25851 4.25851,-5.25984 16,-5.25984 C27.7415,-5.25984 37.2598,4.25851 37.2598,16 "/>
</g>

<g fill="#ffffff" fill-opacity="0.94902" stroke="none" transform="matrix(1,0,0,1,16,12.5984)"
font-family="MS Shell Dlg 2" font-size="7.8" font-weight="400" font-style="normal" 
>
<path vector-effect="none" fill-rule="evenodd" d="M-7.89941,4.19385 C-8.80924,3.96989 -9.55811,3.48348 -10.146,2.73462 C-10.7339,1.98576 -11.0278,1.12142 -11.0278,0.141602 C-11.0278,-0.65625 -10.8284,-1.38411 -10.4294,-2.04199 C-10.0305,-2.69987 -9.50212,-3.20378 -8.84424,-3.55371 L-8.92822,-4.05762 C-8.98421,-4.74349 -8.80225,-5.35938 -8.38232,-5.90527 C-7.9624,-6.45117 -7.4235,-6.80111 -6.76563,-6.95508 C-6.73763,-6.98307 -6.69564,-6.99707 -6.63965,-6.99707 L-2.98633,-7.33301 C-2.46842,-7.389 -2.18148,-7.15804 -2.12549,-6.64014 L-2.0835,-6.26221 L8.49854,-7.24902 C8.72249,-7.27702 8.92896,-7.21753 9.11792,-7.07056 C9.30688,-6.92358 9.41536,-6.73812 9.44336,-6.51416 L9.52734,-5.52734 C9.55534,-5.30339 9.48885,-5.10392 9.32788,-4.92896 C9.16691,-4.75399 8.97445,-4.65251 8.75049,-4.62451 L8.01563,-4.58252 L7.93164,-5.48535 L6.77686,-5.40137 L6.86084,-4.45654 L5.4751,-4.33057 L5.22314,-5.40137 L3.12354,-4.91846 L3.2915,-4.1416 L2.13672,-4.01563 L2.05273,-4.83447 L0.14209,-4.62451 L0.205078,-3.84766 L-1.87354,-3.6377 L-1.78955,-2.77686 C-1.73356,-2.25895 -1.97852,-1.97201 -2.52441,-1.91602 L-6.13574,-1.58008 C-6.21973,-1.58008 -6.26172,-1.59408 -6.26172,-1.62207 C-7.28353,-1.62207 -8.03939,-2.04899 -8.5293,-2.90283 C-9.0472,-2.58089 -9.47062,-2.15747 -9.79956,-1.63257 C-10.1285,-1.10767 -10.293,-0.516276 -10.293,0.141602 C-10.293,0.981445 -10.034,1.70931 -9.51611,2.3252 C-8.99821,2.94108 -8.36833,3.34701 -7.62646,3.54297 L-7.89941,4.19385 M-7.71045,-4.33057 C-7.71045,-4.1486 -7.69645,-4.02962 -7.66846,-3.97363 C-7.52848,-4.02962 -7.38851,-4.05762 -7.24854,-4.05762 C-7.10856,-4.05762 -6.96159,-4.05762 -6.80762,-4.05762 C-6.44368,-4.05762 -6.21973,-4.04362 -6.13574,-4.01563 L-6.21973,-3.28076 C-6.30371,-3.30876 -6.49967,-3.32275 -6.80762,-3.32275 C-7.12956,-3.32275 -7.33252,-3.30876 -7.4165,-3.28076 C-7.12256,-2.80485 -6.77962,-2.59489 -6.3877,-2.65088 C-6.21973,-2.65088 -6.06925,-2.66488 -5.93628,-2.69287 C-5.8033,-2.72087 -5.68783,-2.79785 -5.58984,-2.92383 C-5.49186,-3.0498 -5.42188,-3.23527 -5.37988,-3.48022 C-5.33789,-3.72518 -5.33089,-4.07861 -5.35889,-4.54053 C-5.41488,-4.97445 -5.48486,-5.31038 -5.56885,-5.54834 C-5.65283,-5.7863 -5.75081,-5.95776 -5.86279,-6.06274 C-5.97477,-6.16772 -6.10425,-6.22021 -6.25122,-6.22021 C-6.39819,-6.22021 -6.55566,-6.22021 -6.72363,-6.22021 C-7.04557,-6.16423 -7.30452,-5.95426 -7.50049,-5.59033 C-7.69645,-5.2264 -7.76644,-4.80648 -7.71045,-4.33057 M8.33057,5.70557 C8.80648,5.84554 9.2124,6.12199 9.54834,6.53491 C9.88428,6.94784 10.0522,7.42725 10.0522,7.97314 L10.0522,13.0542 L8.49854,13.0542 L8.49854,14.6079 C8.49854,15.0278 8.34806,15.3883 8.04712,15.6892 C7.74618,15.9902 7.37874,16.1406 6.94482,16.1406 C6.5389,16.1406 6.18547,15.9902 5.88452,15.6892 C5.58358,15.3883 5.43311,15.0278 5.43311,14.6079 L5.43311,13.0542 L-4.83398,13.0542 L-4.83398,14.6079 C-4.83398,15.0278 -4.98446,15.3883 -5.2854,15.6892 C-5.58634,15.9902 -5.95378,16.1406 -6.3877,16.1406 C-6.82161,16.1406 -7.18905,15.9902 -7.48999,15.6892 C-7.79093,15.3883 -7.94141,15.0278 -7.94141,14.6079 L-7.89941,13.0542 L-9.47412,13.0542 L-9.47412,7.97314 C-9.47412,7.42725 -9.30965,6.94784 -8.98071,6.53491 C-8.65177,6.12199 -8.22835,5.84554 -7.71045,5.70557 L-5.90479,1.40137 C-5.76481,1.07943 -5.55835,0.820475 -5.2854,0.624512 C-5.01245,0.428548 -4.69401,0.330566 -4.33008,0.330566 L-3.32227,0.330566 C-3.29427,0.302572 -3.28027,0.239583 -3.28027,0.141602 C-3.28027,-0.0823568 -3.31177,-0.309814 -3.37476,-0.540771 C-3.43774,-0.771729 -3.49723,-0.985189 -3.55322,-1.18115 L-2.77637,-1.18115 C-2.66439,-0.845215 -2.6084,-0.404297 -2.6084,0.141602 L-2.6084,0.330566 L4.9292,0.330566 C5.26514,0.330566 5.57658,0.428548 5.86353,0.624512 C6.15047,0.820475 6.37093,1.07943 6.5249,1.40137 L8.33057,5.70557 M-6.42969,9.86279 C-6.05176,9.86279 -5.74032,9.74032 -5.49536,9.49536 C-5.25041,9.25041 -5.12793,8.94596 -5.12793,8.58203 C-5.12793,8.2041 -5.25041,7.89266 -5.49536,7.64771 C-5.74032,7.40275 -6.05176,7.28027 -6.42969,7.28027 C-6.76563,7.28027 -7.06307,7.40275 -7.32202,7.64771 C-7.58097,7.89266 -7.71045,8.2041 -7.71045,8.58203 C-7.71045,8.94596 -7.58097,9.25041 -7.32202,9.49536 C-7.06307,9.74032 -6.76563,9.86279 -6.42969,9.86279 M6.77686,5.60059 L5.22314,1.90527 C5.13916,1.68132 4.98519,1.56934 4.76123,1.56934 L-2.86035,1.56934 C-3.19629,2.57715 -3.82617,3.31901 -4.75,3.79492 L-4.37207,2.64014 C-3.99414,2.2762 -3.74919,1.91927 -3.63721,1.56934 L-4.18311,1.56934 C-4.42106,1.56934 -4.56803,1.68132 -4.62402,1.90527 L-6.17773,5.60059 L6.77686,5.60059 M6.98682,9.86279 C7.36475,9.86279 7.67619,9.74032 7.92114,9.49536 C8.1661,9.25041 8.28857,8.94596 8.28857,8.58203 C8.28857,8.2041 8.1661,7.89266 7.92114,7.64771 C7.67619,7.40275 7.36475,7.28027 6.98682,7.28027 C6.65088,7.28027 6.35343,7.40275 6.09448,7.64771 C5.83553,7.89266 5.70605,8.2041 5.70605,8.58203 C5.70605,8.94596 5.83553,9.25041 6.09448,9.49536 C6.35343,9.74032 6.65088,9.86279 6.98682,9.86279 "/>
</g>

<g fill="#489174" fill-opacity="1" stroke="none" transform="matrix(1,0,0,1,0,0)"
font-family="MS Shell Dlg 2" font-size="7.8" font-weight="400" font-style="normal" 
>
</g>
</g>
</svg>
