<?xml version="1.0" encoding="UTF-8" standalone="no"?>
<svg
   xmlns:dc="http://purl.org/dc/elements/1.1/"
   xmlns:cc="http://creativecommons.org/ns#"
   xmlns:rdf="http://www.w3.org/1999/02/22-rdf-syntax-ns#"
   xmlns:svg="http://www.w3.org/2000/svg"
   xmlns="http://www.w3.org/2000/svg"
   xmlns:sodipodi="http://sodipodi.sourceforge.net/DTD/sodipodi-0.dtd"
   xmlns:inkscape="http://www.inkscape.org/namespaces/inkscape"
   inkscape:version="1.0 (4035a4fb49, 2020-05-01)"
   sodipodi:docname="2505.svg"
   id="svg20"
   version="1.2"
   viewBox="0 0 42.519639 42.519639"
   height="14.999999mm"
   width="14.999999mm">
  <metadata
     id="metadata24">
    <rdf:RDF>
      <cc:Work
         rdf:about="">
        <dc:format>image/svg+xml</dc:format>
        <dc:type
           rdf:resource="http://purl.org/dc/dcmitype/StillImage" />
        <dc:title>Qt SVG Document</dc:title>
      </cc:Work>
    </rdf:RDF>
  </metadata>
  <sodipodi:namedview
     inkscape:current-layer="svg20"
     inkscape:window-maximized="0"
     inkscape:window-y="0"
     inkscape:window-x="0"
     inkscape:cy="28.346482"
     inkscape:cx="28.346482"
     inkscape:zoom="5.8410537"
     showgrid="false"
     id="namedview22"
     inkscape:window-height="480"
     inkscape:window-width="1034"
     inkscape:pageshadow="2"
     inkscape:pageopacity="0"
     guidetolerance="10"
     gridtolerance="10"
     objecttolerance="10"
     borderopacity="1"
     bordercolor="#666666"
     pagecolor="#ffffff" />
  <title
     id="title2">Qt SVG Document</title>
  <desc
     id="desc4">Generated with Qt</desc>
  <defs
     id="defs6" />
  <g
     transform="translate(5.25984,5.25984)"
     id="g18"
     stroke-linejoin="bevel"
     stroke-linecap="square"
     fill-rule="evenodd"
     stroke-width="1"
     stroke="#000000"
     fill="none">
    <g
       id="g10"
       font-style="normal"
       font-weight="400"
       font-size="7.8px"
       font-family="'MS Shell Dlg 2'"
       stroke="none"
       fill-opacity="1"
       fill="#489174">
      <path
         id="path8"
         d="M 37.2598,16 C 37.2598,27.7415 27.7415,37.2598 16,37.2598 4.25851,37.2598 -5.25984,27.7415 -5.25984,16 -5.25984,4.25851 4.25851,-5.25984 16,-5.25984 27.7415,-5.25984 37.2598,4.25851 37.2598,16"
         fill-rule="evenodd"
         vector-effect="non-scaling-stroke" />
    </g>
    <g
       id="g14"
       font-style="normal"
       font-weight="400"
       font-size="7.8px"
       font-family="'MS Shell Dlg 2'"
       transform="translate(15.4331,10.8976)"
       stroke="none"
       fill-opacity="0.94902"
       fill="#ffffff">
      <path
         id="path12"
         d="m 12.6099,-7.96289 c 0.3359,0 0.6193,0.11898 0.8503,0.35693 0.231,0.23796 0.3464,0.51791 0.3464,0.83985 V 17.5474 c 0,0.3359 -0.1154,0.6193 -0.3464,0.8503 -0.231,0.231 -0.5144,0.3464 -0.8503,0.3464 -0.126,0 -0.21,-0.007 -0.252,-0.021 L 6.10107,17.9043 C 5.9891,17.8903 5.88761,17.8378 5.79663,17.7468 5.70565,17.6558 5.66016,17.5474 5.66016,17.4214 c 0,-0.14 0.04549,-0.2555 0.13647,-0.3464 0.09098,-0.091 0.20646,-0.1365 0.34644,-0.1365 H 10.5522 V 15.9307 H 6.14307 c -0.13998,0 -0.25546,-0.049 -0.34644,-0.147 -0.09098,-0.098 -0.13647,-0.21 -0.13647,-0.3359 0,-0.14 0.04549,-0.2555 0.13647,-0.3465 0.09098,-0.091 0.20646,-0.1365 0.34644,-0.1365 H 10.5522 V 13.957 H 6.14307 c -0.13998,0 -0.25546,-0.0455 -0.34644,-0.1364 -0.09098,-0.091 -0.13647,-0.2065 -0.13647,-0.3465 0,-0.14 0.04549,-0.2554 0.13647,-0.3464 0.09098,-0.091 0.20646,-0.1365 0.34644,-0.1365 H 10.5522 V 11.9834 H 6.14307 c -0.13998,0 -0.25546,-0.0455 -0.34644,-0.1365 -0.09098,-0.091 -0.13647,-0.2064 -0.13647,-0.3464 0,-0.14 0.04549,-0.2555 0.13647,-0.3464 0.09098,-0.091 0.20646,-0.1365 0.34644,-0.1365 H 10.5522 V 10.0098 H 6.14307 C 6.00309,10.0098 5.88761,9.96427 5.79663,9.87329 5.70565,9.78231 5.66016,9.66683 5.66016,9.52686 5.66016,9.38688 5.70565,9.2714 5.79663,9.18042 5.88761,9.08944 6.00309,9.04395 6.14307,9.04395 H 10.5522 V 8.05713 H 6.14307 C 6.00309,8.05713 5.88761,8.00814 5.79663,7.91016 5.70565,7.81217 5.66016,7.7002 5.66016,7.57422 5.66016,7.42025 5.70565,7.30127 5.79663,7.21729 5.88761,7.1333 6.00309,7.09131 6.14307,7.09131 H 10.5522 V 6.0835 H 6.14307 C 6.00309,6.0835 5.88761,6.03451 5.79663,5.93652 5.70565,5.83854 5.66016,5.72656 5.66016,5.60059 5.66016,5.44661 5.70565,5.32764 5.79663,5.24365 5.88761,5.15967 6.00309,5.11768 6.14307,5.11768 H 10.5522 V 4.08887 H 6.14307 C 6.00309,4.08887 5.88761,4.04338 5.79663,3.95239 5.70565,3.86141 5.66016,3.75293 5.66016,3.62695 5.66016,3.47298 5.70565,3.354 5.79663,3.27002 5.88761,3.18604 6.00309,3.14404 6.14307,3.14404 H 10.5522 V 2.11523 H 6.14307 C 6.00309,2.11523 5.88761,2.06974 5.79663,1.97876 5.70565,1.88778 5.66016,1.7723 5.66016,1.63232 5.66016,1.50635 5.70565,1.39787 5.79663,1.30688 5.88761,1.2159 6.00309,1.17041 6.14307,1.17041 H 10.5522 V 0.141602 H 6.14307 C 6.00309,0.141602 5.88761,0.09611 5.79663,0.00512695 5.70565,-0.0858561 5.66016,-0.201335 5.66016,-0.341309 c 0,-0.125976 0.04549,-0.237955 0.13647,-0.335937 0.09098,-0.097982 0.20646,-0.146973 0.34644,-0.146973 H 10.5522 V -1.83203 H 6.14307 c -0.13998,0 -0.25546,-0.04549 -0.34644,-0.13648 -0.09098,-0.09098 -0.13647,-0.20646 -0.13647,-0.34643 0,-0.12598 0.04549,-0.23796 0.13647,-0.33594 0.09098,-0.09798 0.20646,-0.14697 0.34644,-0.14697 H 10.5522 V -3.80566 H 6.14307 c -0.13998,0 -0.25546,-0.0455 -0.34644,-0.13648 -0.09098,-0.09098 -0.13647,-0.20646 -0.13647,-0.34643 0,-0.12598 0.04549,-0.23796 0.13647,-0.33594 0.09098,-0.09798 0.20646,-0.14697 0.34644,-0.14697 H 10.5522 V -5.7793 H 6.14307 c -0.13998,0 -0.25546,-0.04199 -0.34644,-0.12597 -0.09098,-0.08399 -0.13647,-0.20297 -0.13647,-0.35694 0,-0.26595 0.13297,-0.41992 0.39892,-0.46191 l 2.01563,-0.39893 4.28319,-0.81884 c 0.042,0 0.084,-0.0035 0.126,-0.0105 0.042,-0.007 0.084,-0.0105 0.126,-0.0105 M 4.56836,14.062 c 0.16797,0.5319 0.25545,1.0533 0.26245,1.5642 0.007,0.5109 -0.05249,0.9798 -0.17847,1.4068 -0.12597,0.4269 -0.32194,0.7943 -0.58789,1.1023 -0.26595,0.3079 -0.58789,0.5249 -0.96582,0.6508 -0.23795,0.07 -0.45491,0.105 -0.65088,0.105 -0.60188,0 -1.18628,-0.2204 -1.75317,-0.6614 -0.566894,-0.4409 -1.01831,-1.0393 -1.354248,-1.7951 l -0.020996,-0.042 c 0,-0.028 -0.006999,-0.042 -0.020996,-0.042 L -4.10303,8.68701 -5.61475,7.46924 -11.5776,-4.91846 c -0.042,-0.15397 -0.07,-0.32894 -0.084,-0.5249 -0.014,-0.16797 -0.021,-0.36393 -0.021,-0.58789 0,-0.22396 0.035,-0.47591 0.105,-0.75586 0.056,-0.26595 0.1329,-0.49341 0.2309,-0.68237 0.098,-0.18897 0.189,-0.33944 0.273,-0.45142 0.098,-0.13997 0.2029,-0.25195 0.3149,-0.33594 l 9.931163,20.78614 c 0.279948,-0.6859 0.7418623,-1.1478 1.385742,-1.3857 0.251954,-0.07 0.475915,-0.105 0.671875,-0.105 0.33594,0 0.67188,0.0735 1.00781,0.2204 0.33594,0.147 0.65088,0.3535 0.94483,0.6194 0.29394,0.266 0.55989,0.5844 0.79785,0.9553 0.23795,0.371 0.43392,0.7804 0.58789,1.2283 m -1.0708,2.6035 C 3.59554,16.3436 3.63403,15.9902 3.61304,15.6052 3.59204,15.2203 3.51855,14.8389 3.39258,14.4609 3.15462,13.7611 2.80469,13.2012 2.34277,12.7813 c -0.37793,-0.35 -0.74886,-0.525 -1.11279,-0.525 -0.06999,0 -0.16097,0.014 -0.272949,0.042 -0.237955,0.084 -0.416422,0.2275 -0.5354,0.4305 -0.118978,0.2029 -0.199463,0.3814 -0.241455,0.5354 -0.097982,0.3219 -0.1364748,0.6753 -0.1154787,1.0603 0.0209961,0.3849 0.0874837,0.7733 0.1994627,1.1652 0.111979,0.322 0.258952,0.6299 0.440918,0.9239 0.181966,0.2939 0.391932,0.5389 0.629882,0.7348 0.37793,0.35 0.74886,0.5249 1.11279,0.5249 0.06999,0 0.16097,-0.014 0.27295,-0.042 0.23796,-0.0699 0.41643,-0.2099 0.5354,-0.4199 0.11898,-0.2099 0.19947,-0.3919 0.24146,-0.5459 m -9.63721,-8.29343 0.75586,1.51172 -2.87646,6.46681 v 0.042 l -0.042,0.042 c -0.33593,0.7558 -0.78735,1.3542 -1.35424,1.7951 -0.56691,0.441 -1.14431,0.6614 -1.73221,0.6614 -0.1959,0 -0.4199,-0.035 -0.6718,-0.105 -0.378,-0.1259 -0.6964,-0.3429 -0.9554,-0.6508 -0.2589,-0.308 -0.4549,-0.6754 -0.5879,-1.1023 -0.1329,-0.427 -0.1924,-0.8959 -0.1784,-1.4068 0.014,-0.5109 0.105,-1.0323 0.2729,-1.5642 0.154,-0.4479 0.35,-0.8573 0.5879,-1.2283 0.238,-0.3709 0.5039,-0.6893 0.7979,-0.9553 0.2939,-0.2659 0.6089,-0.4724 0.9448,-0.6194 0.3359,-0.1469 0.6719,-0.2204 1.0078,-0.2204 0.18197,0 0.39893,0.035 0.65088,0.105 0.62988,0.2239 1.0988,0.6858 1.40674,1.3857 l 1.97363,-4.15723 m -3.08642,7.11763 c 0.26595,-0.8118 0.30094,-1.5537 0.10498,-2.2255 -0.05599,-0.154 -0.13998,-0.3325 -0.25196,-0.5354 -0.11198,-0.203 -0.28694,-0.3465 -0.5249,-0.4305 -0.11195,-0.028 -0.20295,-0.042 -0.27295,-0.042 -0.3639,0 -0.7349,0.175 -1.1128,0.525 -0.4759,0.4339 -0.8328,0.9938 -1.0708,1.6796 -0.126,0.378 -0.196,0.7594 -0.21,1.1443 -0.014,0.385 0.028,0.7384 0.126,1.0603 0.042,0.154 0.1225,0.336 0.2415,0.5459 0.119,0.21 0.2904,0.35 0.5144,0.4199 0.14,0.028 0.2379,0.042 0.2939,0.042 0.35,0 0.7209,-0.1749 1.1128,-0.5249 0.238,-0.1959 0.44444,-0.4409 0.61941,-0.7348 0.17496,-0.294 0.31844,-0.6019 0.43042,-0.9239 M 2.63672,-6.78711 c 0.05599,0.27995 0.08748,0.5319 0.09448,0.75586 0.007,0.22396 0.0035,0.41992 -0.0105,0.58789 -0.01399,0.19596 -0.04199,0.37093 -0.08398,0.5249 L -2.78027,6.33545 -3.97705,3.85791 1.79688,-8.25684 c 0.09798,0.08399 0.20296,0.19597 0.31494,0.33594 0.08398,0.11198 0.17496,0.26245 0.27295,0.45142 0.09798,0.18896 0.18196,0.41642 0.25195,0.68237"
         fill-rule="evenodd"
         vector-effect="none" />
    </g>
    <g
       id="g16"
       font-style="normal"
       font-weight="400"
       font-size="7.8px"
       font-family="'MS Shell Dlg 2'"
       stroke="none"
       fill-opacity="1"
       fill="#489174" />
  </g>
</svg>
