<?xml version="1.0" encoding="UTF-8" standalone="no"?>
<svg width="11.2889mm" height="11.2889mm"
 viewBox="0 0 32 32"
 xmlns="http://www.w3.org/2000/svg" xmlns:xlink="http://www.w3.org/1999/xlink"  version="1.2" baseProfile="tiny">
<title>Qt SVG Document</title>
<desc>Generated with Qt</desc>
<defs>
</defs>
<g fill="none" stroke="black" stroke-width="1" fill-rule="evenodd" stroke-linecap="square" stroke-linejoin="bevel" >

<g fill="#489174" fill-opacity="1" stroke="none" transform="matrix(1,0,0,1,0,0)"
font-family="MS Shell Dlg 2" font-size="7.8" font-weight="400" font-style="normal" 
>
<path vector-effect="non-scaling-stroke" fill-rule="evenodd" d="M37.2598,16 C37.2598,27.7415 27.7415,37.2598 16,37.2598 C4.25851,37.2598 -5.25984,27.7415 -5.25984,16 C-5.25984,4.25851 4.25851,-5.25984 16,-5.25984 C27.7415,-5.25984 37.2598,4.25851 37.2598,16 "/>
</g>

<g fill="#ffffff" fill-opacity="0.94902" stroke="none" transform="matrix(1,0,0,1,16,12.5984)"
font-family="MS Shell Dlg 2" font-size="7.8" font-weight="400" font-style="normal" 
>
<path vector-effect="none" fill-rule="evenodd" d="M13.1978,11.2485 L13.1978,13.3481 L-4.73291,13.3481 L-13.1523,13.3481 L-13.1523,11.2485 L-13.1523,4.06787 C-13.1523,2.89209 -12.7429,1.90177 -11.9241,1.09692 C-11.1052,0.292074 -10.1079,-0.110352 -8.93213,-0.110352 C-7.75635,-0.110352 -6.76253,0.292074 -5.95068,1.09692 C-5.13883,1.90177 -4.73291,2.89209 -4.73291,4.06787 L-4.73291,11.2485 L-0.59668,11.2485 C-0.078776,10.6466 0.645589,10.0518 1.57642,9.46387 C2.50724,8.87598 3.67253,8.58203 5.07227,8.58203 C6.45801,8.58203 7.61629,8.87598 8.54712,9.46387 C9.47795,10.0518 10.2023,10.6466 10.7202,11.2485 L13.1978,11.2485 M-10.7798,4.84473 L-9.54102,4.84473 L-9.54102,7.97314 L-8.30225,7.97314 L-8.30225,4.84473 L-7.08447,4.84473 L-7.08447,3.58496 L-8.30225,3.58496 L-8.30225,1.90527 L-9.54102,1.90527 L-9.54102,3.58496 L-10.7798,3.58496 L-10.7798,4.84473 M0.390137,8.01514 C-0.43571,8.53304 -1.12158,9.16292 -1.66748,9.90479 L-1.66748,-0.152344 C-1.66748,-1.10417 -1.48901,-1.986 -1.13208,-2.79785 C-0.775146,-3.6097 -0.295736,-4.31657 0.306152,-4.91846 C0.90804,-5.52035 1.61841,-5.99976 2.43726,-6.35669 C3.2561,-6.71362 4.13444,-6.89209 5.07227,-6.89209 C5.99609,-6.89209 6.86743,-6.71362 7.68628,-6.35669 C8.50513,-5.99976 9.21549,-5.52035 9.81738,-4.91846 C10.4193,-4.31657 10.8987,-3.6097 11.2556,-2.79785 C11.6125,-1.986 11.791,-1.10417 11.791,-0.152344 L11.791,9.90479 C11.2451,9.16292 10.5592,8.53304 9.7334,8.01514 L9.7334,-0.152344 C9.7334,-0.782227 9.61092,-1.38411 9.36597,-1.95801 C9.12101,-2.5319 8.78857,-3.03231 8.36865,-3.45923 C7.94873,-3.88615 7.45182,-4.22209 6.87793,-4.46704 C6.30404,-4.712 5.70215,-4.83447 5.07227,-4.83447 C4.41439,-4.83447 3.8055,-4.712 3.24561,-4.46704 C2.68571,-4.22209 2.1923,-3.88615 1.76538,-3.45923 C1.33846,-3.03231 1.00252,-2.5319 0.757568,-1.95801 C0.512614,-1.38411 0.390137,-0.782227 0.390137,-0.152344 L0.390137,8.01514 M5.07227,-2.65088 C6.05208,-2.65088 6.87793,-2.30444 7.5498,-1.61157 C8.22168,-0.918701 8.55762,-0.0893555 8.55762,0.876465 L8.55762,7.46924 C7.53581,7.03532 6.37402,6.81836 5.07227,6.81836 C3.75651,6.81836 2.58073,7.03532 1.54492,7.46924 L1.54492,0.876465 C1.54492,-0.0893555 1.88436,-0.918701 2.56323,-1.61157 C3.24211,-2.30444 4.07845,-2.65088 5.07227,-2.65088 "/>
</g>

<g fill="#489174" fill-opacity="1" stroke="none" transform="matrix(1,0,0,1,0,0)"
font-family="MS Shell Dlg 2" font-size="7.8" font-weight="400" font-style="normal" 
>
</g>
</g>
</svg>
