<svg xmlns="http://www.w3.org/2000/svg" version="1.2" viewBox="0 0 42.52 42.52" height="56.693" width="56.693">
   <g stroke-linejoin="bevel" stroke-linecap="square" fill-rule="evenodd" stroke="none" fill="none" font-weight="400"
      font-size="7.8" font-family="'MS Shell Dlg 2'">
      <path
         d="M42.52 21.26C42.52 33 33 42.52 21.26 42.52 9.518 42.52 0 33 0 21.26 0 9.518 9.518 0 21.26 0 33 0 42.52 9.518 42.52 21.26"
         vector-effect="non-scaling-stroke" fill="#489174" />
      <path
         d="M34.458 29.107v2.1H8.107v-9.28c0-1.177.41-2.167 1.229-2.972.819-.805 1.816-1.207 2.992-1.207 1.175 0 2.17.402 2.981 1.207.812.805 1.218 1.795 1.218 2.971v7.18h4.136c.518-.601 1.242-1.196 2.173-1.784.931-.588 2.096-.882 3.496-.882 1.386 0 2.544.294 3.475.882.93.588 1.655 1.183 2.173 1.785h2.478M10.48 22.703h1.239v3.128h1.239v-3.128h1.217v-1.26h-1.217v-1.68h-1.24v1.68H10.48v1.26m11.17 3.17a7.407 7.407 0 00-2.058 1.89V17.706a6.5 6.5 0 01.536-2.646 6.886 6.886 0 011.438-2.12 6.852 6.852 0 012.131-1.438 6.522 6.522 0 012.635-.536 6.47 6.47 0 012.614.536c.819.356 1.53.836 2.131 1.438a6.885 6.885 0 011.438 2.12 6.5 6.5 0 01.536 2.646v10.057a7.408 7.408 0 00-2.058-1.89v-8.167c0-.63-.122-1.232-.367-1.806a4.81 4.81 0 00-.998-1.501 4.598 4.598 0 00-1.49-1.008 4.553 4.553 0 00-1.806-.367c-.658 0-1.267.122-1.827.367s-1.053.581-1.48 1.008a4.72 4.72 0 00-1.375 3.307v8.167m4.682-10.666c.98 0 1.806.347 2.478 1.04a3.448 3.448 0 011.007 2.488v6.592c-1.021-.433-2.183-.65-3.485-.65-1.316 0-2.491.217-3.527.65v-6.592c0-.966.34-1.795 1.018-2.488.679-.693 1.515-1.04 2.51-1.04"
         fill-opacity=".949" fill="#fff" />
   </g>
</svg>