<?xml version="1.0" encoding="UTF-8" standalone="no"?>
<svg
   xmlns:dc="http://purl.org/dc/elements/1.1/"
   xmlns:cc="http://creativecommons.org/ns#"
   xmlns:rdf="http://www.w3.org/1999/02/22-rdf-syntax-ns#"
   xmlns:svg="http://www.w3.org/2000/svg"
   xmlns="http://www.w3.org/2000/svg"
   xmlns:sodipodi="http://sodipodi.sourceforge.net/DTD/sodipodi-0.dtd"
   xmlns:inkscape="http://www.inkscape.org/namespaces/inkscape"
   inkscape:version="1.0 (4035a4fb49, 2020-05-01)"
   sodipodi:docname="2506.svg"
   id="svg20"
   version="1.2"
   viewBox="0 0 42.519639 42.519639"
   height="14.999999mm"
   width="14.999999mm">
  <metadata
     id="metadata24">
    <rdf:RDF>
      <cc:Work
         rdf:about="">
        <dc:format>image/svg+xml</dc:format>
        <dc:type
           rdf:resource="http://purl.org/dc/dcmitype/StillImage" />
        <dc:title>Qt SVG Document</dc:title>
      </cc:Work>
    </rdf:RDF>
  </metadata>
  <sodipodi:namedview
     inkscape:current-layer="svg20"
     inkscape:window-maximized="0"
     inkscape:window-y="0"
     inkscape:window-x="0"
     inkscape:cy="28.346482"
     inkscape:cx="28.346482"
     inkscape:zoom="5.8410537"
     showgrid="false"
     id="namedview22"
     inkscape:window-height="480"
     inkscape:window-width="1034"
     inkscape:pageshadow="2"
     inkscape:pageopacity="0"
     guidetolerance="10"
     gridtolerance="10"
     objecttolerance="10"
     borderopacity="1"
     bordercolor="#666666"
     pagecolor="#ffffff" />
  <title
     id="title2">Qt SVG Document</title>
  <desc
     id="desc4">Generated with Qt</desc>
  <defs
     id="defs6" />
  <g
     transform="translate(5.25984,5.25984)"
     id="g18"
     stroke-linejoin="bevel"
     stroke-linecap="square"
     fill-rule="evenodd"
     stroke-width="1"
     stroke="#000000"
     fill="none">
    <g
       id="g10"
       font-style="normal"
       font-weight="400"
       font-size="7.8px"
       font-family="'MS Shell Dlg 2'"
       stroke="none"
       fill-opacity="1"
       fill="#489174">
      <path
         id="path8"
         d="M 37.2598,16 C 37.2598,27.7415 27.7415,37.2598 16,37.2598 4.25851,37.2598 -5.25984,27.7415 -5.25984,16 -5.25984,4.25851 4.25851,-5.25984 16,-5.25984 27.7415,-5.25984 37.2598,4.25851 37.2598,16"
         fill-rule="evenodd"
         vector-effect="non-scaling-stroke" />
    </g>
    <g
       id="g14"
       font-style="normal"
       font-weight="400"
       font-size="7.8px"
       font-family="'MS Shell Dlg 2'"
       transform="translate(16,12.5984)"
       stroke="none"
       fill-opacity="0.94902"
       fill="#ffffff">
      <path
         id="path12"
         d="m 13.1978,11.2485 v 2.0996 H -4.73291 -13.1523 V 11.2485 4.06787 c 0,-1.17578 0.4094,-2.1661 1.2282,-2.97095 0.8189,-0.804846 1.8162,-1.207272 2.99197,-1.207272 1.17578,0 2.1696,0.402426 2.98145,1.207272 0.81185,0.80485 1.21777,1.79517 1.21777,2.97095 v 7.18063 h 4.13623 c 0.517904,-0.6019 1.242269,-1.1967 2.1731,-1.78463 0.93082,-0.58789 2.09611,-0.88184 3.49585,-0.88184 1.38574,0 2.54402,0.29395 3.47485,0.88184 0.93083,0.58793 1.65518,1.18273 2.17308,1.78463 h 2.4776 M -10.7798,4.84473 h 1.23878 v 3.12841 h 1.23877 V 4.84473 h 1.21778 V 3.58496 H -8.30225 V 1.90527 H -9.54102 V 3.58496 H -10.7798 V 4.84473 M 0.390137,8.01514 C -0.43571,8.53304 -1.12158,9.16292 -1.66748,9.90479 V -0.152344 c 0,-0.951826 0.17847,-1.833656 0.5354,-2.645506 0.356934,-0.81185 0.836344,-1.51872 1.438232,-2.12061 0.601888,-0.60189 1.312258,-1.0813 2.131108,-1.43823 0.81884,-0.35693 1.69718,-0.5354 2.63501,-0.5354 0.92382,0 1.79516,0.17847 2.61401,0.5354 0.81885,0.35693 1.52921,0.83634 2.1311,1.43823 0.60192,0.60189 1.08132,1.30876 1.43822,2.12061 0.3569,0.81185 0.5354,1.69368 0.5354,2.645506 V 9.90479 C 11.2451,9.16292 10.5592,8.53304 9.7334,8.01514 V -0.152344 C 9.7334,-0.782227 9.61092,-1.38411 9.36597,-1.95801 9.12101,-2.5319 8.78857,-3.03231 8.36865,-3.45923 7.94873,-3.88615 7.45182,-4.22209 6.87793,-4.46704 6.30404,-4.712 5.70215,-4.83447 5.07227,-4.83447 c -0.65788,0 -1.26677,0.12247 -1.82666,0.36743 -0.5599,0.24495 -1.05331,0.58089 -1.48023,1.00781 -0.42692,0.42692 -0.76286,0.92733 -1.007812,1.50122 -0.244954,0.5739 -0.367431,1.175783 -0.367431,1.805666 V 8.01514 M 5.07227,-2.65088 c 0.97981,0 1.80566,0.34644 2.47753,1.03931 0.67188,0.692869 1.00782,1.5222145 1.00782,2.488035 V 7.46924 C 7.53581,7.03532 6.37402,6.81836 5.07227,6.81836 c -1.31576,0 -2.49154,0.21696 -3.52735,0.65088 V 0.876465 c 0,-0.9658205 0.33944,-1.795166 1.01831,-2.488035 0.67888,-0.69287 1.51522,-1.03931 2.50904,-1.03931"
         fill-rule="evenodd"
         vector-effect="none" />
    </g>
    <g
       id="g16"
       font-style="normal"
       font-weight="400"
       font-size="7.8px"
       font-family="'MS Shell Dlg 2'"
       stroke="none"
       fill-opacity="1"
       fill="#489174" />
  </g>
</svg>
