<svg xmlns="http://www.w3.org/2000/svg" version="1.2" viewBox="0 0 42.52 42.52" height="56.693" width="56.693">
   <g stroke-linejoin="bevel" stroke-linecap="square" fill-rule="evenodd" stroke="none" fill="none" font-weight="400"
      font-size="7.8" font-family="'MS Shell Dlg 2'">
      <path
         d="M42.52 21.26C42.52 33 33 42.52 21.26 42.52 9.518 42.52 0 33 0 21.26 0 9.518 9.518 0 21.26 0 33 0 42.52 9.518 42.52 21.26"
         vector-effect="non-scaling-stroke" fill="#489174" />
      <path
         d="M14.952 12.667c0 .028.028.077.084.147-.056-.07-.112-.105-.168-.105l.084-.042m16.503 6.026c.294-.308.606-.455.934-.441.33.014.592.119.788.315.196.196.3.451.315.766.014.315-.133.633-.441.955l-6.278 6.32v8.21h-7.538v-3.78h-3.422c-.35 0-.654-.13-.913-.388-.26-.259-.389-.556-.389-.892 0-.294.105-.567.315-.82l3.99-4.051c.14-.14.318-.252.535-.336.217-.084.437-.126.661-.126h5.69l5.753-5.732m-8.944 9.847c0-.364-.182-.546-.546-.546H20.62c-.14 0-.27.049-.388.147a.608.608 0 00-.22.357c.49 0 .857.13 1.102.388.245.26.367.546.367.861 0 .315-.122.602-.367.861s-.613.388-1.103.388c0 .406.203.61.61.61h1.343c.364 0 .546-.19.546-.568V28.54m-7.139-17.196l-4.724 4.682v-1.553l.252-1.323-.819-.777 1.596-1.596.819.777 1.28-.252 1.596.042m7.307 12.598c-.77 0-1.435-.28-1.995-.84-.56-.56-.84-1.225-.84-1.995s.28-1.434.84-1.994c.56-.56 1.225-.84 1.995-.84.784 0 1.456.28 2.015.84.56.56.84 1.224.84 1.994s-.28 1.435-.84 1.995c-.56.56-1.231.84-2.015.84M15.77 12.457c-.266 0-.399-.126-.399-.378 0-.266.133-.399.4-.399.251 0 .377.133.377.399 0 .252-.126.378-.378.378m1.49.609c-.307 0-.461-.161-.461-.483a.53.53 0 01.126-.357.42.42 0 01.336-.147c.154 0 .28.049.378.147a.486.486 0 01.147.357c0 .322-.175.483-.525.483m1.89.777c-.392 0-.588-.203-.588-.61 0-.14.056-.276.168-.409a.527.527 0 01.42-.2c.181 0 .328.067.44.2.112.133.168.27.168.41 0 .406-.203.609-.609.609m2.331.902c-.462 0-.693-.23-.693-.692 0-.462.231-.693.693-.693.462 0 .693.23.693.693 0 .461-.231.692-.693.692m2.792 1.071a.788.788 0 01-.577-.241.788.788 0 01-.241-.578c0-.224.08-.409.241-.556a.827.827 0 01.577-.22.754.754 0 01.777.776.827.827 0 01-.22.578.721.721 0 01-.557.241m-12.303.462c0 .266-.14.4-.42.4-.266 0-.4-.148-.4-.442.07-.28.218-.392.442-.336.252 0 .378.126.378.378m.819 1.47a.701.701 0 01-.168.346c-.084.091-.196.123-.336.095-.378 0-.54-.175-.483-.525 0-.322.175-.483.525-.483.308.07.462.259.462.567m.818 1.512a.752.752 0 01-.21.42c-.111.112-.258.154-.44.126a.498.498 0 01-.378-.19.594.594 0 01-.168-.398c0-.182.063-.33.189-.441a.538.538 0 01.462-.126c.14 0 .266.066.378.2.111.132.167.269.167.409m.861 1.721a.62.62 0 01-.735.63.577.577 0 01-.44-.21.727.727 0 01-.19-.504.81.81 0 01.232-.462.654.654 0 01.482-.189c.21 0 .378.07.504.21.126.14.175.315.147.525m1.03 1.974a.954.954 0 01-.253.556c-.14.147-.329.207-.567.179a.69.69 0 01-.546-.242.85.85 0 01-.21-.577c0-.238.077-.427.231-.567a.812.812 0 01.567-.21.852.852 0 01.567.284.85.85 0 01.21.577m-2.54-8.482c.294 0 .44.132.44.398 0 .252-.146.378-.44.378-.252 0-.378-.126-.378-.378 0-.266.126-.399.378-.399m.902 2.037a.447.447 0 01-.357-.178.598.598 0 01-.146-.389c0-.14.049-.259.146-.357a.486.486 0 01.357-.147c.154 0 .287.05.4.147a.457.457 0 01.167.357c0 .378-.189.567-.567.567M15.036 18a.681.681 0 01-.504-.188.604.604 0 01-.189-.441c0-.462.231-.693.693-.693a.64.64 0 01.452.19c.133.125.2.293.2.503a.59.59 0 01-.2.44.64.64 0 01-.452.19m.378.86c0-.223.08-.409.242-.556a.827.827 0 01.577-.22c.238 0 .427.073.567.22.14.147.21.333.21.557a.84.84 0 01-.21.588c-.14.154-.33.23-.567.23a.806.806 0 01-.577-.23.778.778 0 01-.242-.588m-.693-5.291c0 .266-.126.399-.378.399s-.378-.133-.378-.4c0-.28.126-.42.378-.42s.378.14.378.42m1.386.778c0 .153-.049.28-.147.377a.512.512 0 01-.378.147.56.56 0 01-.378-.147.48.48 0 01-.168-.377c0-.364.182-.546.546-.546.35 0 .525.182.525.546m.945 1.595a.62.62 0 01-.473-.189.648.648 0 01-.178-.462c0-.448.217-.672.65-.672a.64.64 0 01.452.19c.133.125.2.286.2.482a.612.612 0 01-.2.462.64.64 0 01-.451.19m1.764 1.343a.754.754 0 01-.777-.777c0-.238.073-.434.22-.588a.737.737 0 01.557-.23c.223 0 .409.076.556.23.147.154.22.35.22.588a.754.754 0 01-.776.777"
         fill-opacity=".949" fill="#fff" />
   </g>
</svg>