<?xml version="1.0" encoding="UTF-8" standalone="no"?>
<svg
   xmlns:dc="http://purl.org/dc/elements/1.1/"
   xmlns:cc="http://creativecommons.org/ns#"
   xmlns:rdf="http://www.w3.org/1999/02/22-rdf-syntax-ns#"
   xmlns:svg="http://www.w3.org/2000/svg"
   xmlns="http://www.w3.org/2000/svg"
   xmlns:sodipodi="http://sodipodi.sourceforge.net/DTD/sodipodi-0.dtd"
   xmlns:inkscape="http://www.inkscape.org/namespaces/inkscape"
   inkscape:version="1.0 (4035a4fb49, 2020-05-01)"
   sodipodi:docname="2508.svg"
   id="svg20"
   version="1.2"
   viewBox="0 0 42.519639 42.519639"
   height="14.999999mm"
   width="14.999999mm">
  <metadata
     id="metadata24">
    <rdf:RDF>
      <cc:Work
         rdf:about="">
        <dc:format>image/svg+xml</dc:format>
        <dc:type
           rdf:resource="http://purl.org/dc/dcmitype/StillImage" />
        <dc:title>Qt SVG Document</dc:title>
      </cc:Work>
    </rdf:RDF>
  </metadata>
  <sodipodi:namedview
     inkscape:current-layer="svg20"
     inkscape:window-maximized="0"
     inkscape:window-y="0"
     inkscape:window-x="0"
     inkscape:cy="28.346482"
     inkscape:cx="28.346482"
     inkscape:zoom="5.8410537"
     showgrid="false"
     id="namedview22"
     inkscape:window-height="480"
     inkscape:window-width="1034"
     inkscape:pageshadow="2"
     inkscape:pageopacity="0"
     guidetolerance="10"
     gridtolerance="10"
     objecttolerance="10"
     borderopacity="1"
     bordercolor="#666666"
     pagecolor="#ffffff" />
  <title
     id="title2">Qt SVG Document</title>
  <desc
     id="desc4">Generated with Qt</desc>
  <defs
     id="defs6" />
  <g
     transform="translate(5.25984,5.25984)"
     id="g18"
     stroke-linejoin="bevel"
     stroke-linecap="square"
     fill-rule="evenodd"
     stroke-width="1"
     stroke="#000000"
     fill="none">
    <g
       id="g10"
       font-style="normal"
       font-weight="400"
       font-size="7.8px"
       font-family="'MS Shell Dlg 2'"
       stroke="none"
       fill-opacity="1"
       fill="#489174">
      <path
         id="path8"
         d="M 37.2598,16 C 37.2598,27.7415 27.7415,37.2598 16,37.2598 4.25851,37.2598 -5.25984,27.7415 -5.25984,16 -5.25984,4.25851 4.25851,-5.25984 16,-5.25984 27.7415,-5.25984 37.2598,4.25851 37.2598,16"
         fill-rule="evenodd"
         vector-effect="non-scaling-stroke" />
    </g>
    <g
       id="g14"
       font-style="normal"
       font-weight="400"
       font-size="7.8px"
       font-family="'MS Shell Dlg 2'"
       transform="translate(15.4331,12.0315)"
       stroke="none"
       fill-opacity="0.94902"
       fill="#ffffff">
      <path
         id="path12"
         d="m -3.1123,4.06787 c 0.08398,0.25195 0.06998,0.47941 -0.042,0.68237 C -3.26628,4.95321 -3.41675,5.08268 -3.60571,5.13867 -3.79468,5.19466 -3.98364,5.18066 -4.17261,5.09668 -4.36157,5.0127 -4.49805,4.83773 -4.58203,4.57178 l -1.36475,-4.766116 h -0.65088 l 2.41455,8.461426 h -2.24658 v 6.63481 c 0,0.2519 -0.08398,0.4514 -0.25195,0.5983 -0.16797,0.147 -0.35343,0.2205 -0.5564,0.2205 -0.20296,0 -0.39192,-0.0735 -0.56689,-0.2205 -0.17497,-0.1469 -0.26245,-0.3464 -0.26245,-0.5983 V 8.26709 h -0.81885 l 0.14697,6.63481 c 0,0.2519 -0.09448,0.4514 -0.28345,0.5983 -0.18896,0.147 -0.39192,0.2205 -0.60888,0.2205 -0.21696,0 -0.41641,-0.0735 -0.59841,-0.2205 -0.1819,-0.1469 -0.2729,-0.3464 -0.2729,-0.5983 V 8.26709 h -2.2466 l 2.4145,-8.461426 h -0.5669 l -1.4487,4.766116 c -0.098,0.26595 -0.2379,0.44791 -0.4199,0.5459 -0.182,0.09798 -0.3674,0.11897 -0.5564,0.06298 -0.189,-0.05599 -0.3394,-0.17846 -0.4514,-0.36743 -0.112,-0.18896 -0.126,-0.43742 -0.042,-0.74536 l 1.5537,-5.16504 c 0.112,-0.27995 0.3534,-0.62288 0.7244,-1.02881 0.3709,-0.40592 0.8713,-0.60888 1.5012,-0.60888 h 3.1494 c 0.62988,0 1.13029,0.20296 1.50122,0.60888 0.37093,0.40593 0.61239,0.74886 0.72436,1.02881 L -3.1123,4.06787 M -1.05469,-6.8501 H 1.48584 V 15.8047 H -1.05469 V -6.8501 m 9.76319,3.73731 c -0.48991,0 -0.92033,-0.19597 -1.29126,-0.58789 -0.37093,-0.39193 -0.5564,-0.82585 -0.5564,-1.30176 0,-0.48991 0.18547,-0.92033 0.5564,-1.29126 0.37093,-0.37093 0.80135,-0.5564 1.29126,-0.5564 0.4899,0 0.92032,0.18547 1.29126,0.5564 0.37094,0.37093 0.55644,0.80135 0.55644,1.29126 0,0.47591 -0.1855,0.90983 -0.55644,1.30176 -0.37094,0.39192 -0.80136,0.58789 -1.29126,0.58789 m 2.1416,0.37793 c 0.7559,0 1.3332,0.24495 1.7322,0.73486 0.3989,0.48991 0.5984,1.049805 0.5984,1.679687 V 5.26465 c 0,0.26595 -0.07,0.46891 -0.21,0.60889 -0.14,0.13997 -0.2974,0.20996 -0.4724,0.20996 -0.175,0 -0.3359,-0.06999 -0.4829,-0.20996 C 11.8684,5.73356 11.7949,5.5306 11.7949,5.26465 V -0.194336 H 11.123 V 14.7339 c 0,0.2239 -0.1014,0.4374 -0.3044,0.6404 -0.203,0.2029 -0.4444,0.3044 -0.7244,0.3044 -0.3219,0 -0.57036,-0.1015 -0.74532,-0.3044 C 9.17391,15.1713 9.08643,14.9578 9.08643,14.7339 V 6.0415 H 8.33057 v 8.6924 c 0,0.2239 -0.08749,0.4374 -0.26245,0.6404 -0.17497,0.2029 -0.42343,0.3044 -0.74537,0.3044 -0.30794,0 -0.56339,-0.1015 -0.76635,-0.3044 C 6.35343,15.1713 6.25195,14.9578 6.25195,14.7339 V -0.194336 H 5.58008 V 5.26465 c 0,0.26595 -0.08049,0.46891 -0.24146,0.60889 C 5.17765,6.01351 5.00968,6.0835 4.83472,6.0835 4.65975,6.0835 4.49528,6.01351 4.34131,5.87354 4.18734,5.73356 4.11035,5.5306 4.11035,5.26465 v -5.668947 c 0,-0.629883 0.22746,-1.175783 0.68237,-1.637693 0.45492,-0.46192 1.01832,-0.69287 1.69019,-0.69287 H 10.8501 M -8.4873,-3.11279 c -0.48991,0 -0.92033,-0.17847 -1.29126,-0.5354 -0.37094,-0.35694 -0.55644,-0.80835 -0.55644,-1.35425 0,-0.48991 0.1855,-0.89933 0.55644,-1.22827 0.37093,-0.32894 0.80135,-0.49341 1.29126,-0.49341 0.4899,0 0.92732,0.16447 1.31225,0.49341 0.38493,0.32894 0.57739,0.73836 0.57739,1.22827 0,0.5459 -0.19246,0.99731 -0.57739,1.35425 -0.38493,0.35693 -0.82235,0.5354 -1.31225,0.5354"
         fill-rule="evenodd"
         vector-effect="none" />
    </g>
    <g
       id="g16"
       font-style="normal"
       font-weight="400"
       font-size="7.8px"
       font-family="'MS Shell Dlg 2'"
       stroke="none"
       fill-opacity="1"
       fill="#489174" />
  </g>
</svg>
