<?xml version="1.0" encoding="UTF-8" standalone="no"?>
<svg width="11.25008mm" height="11.25008mm"
 viewBox="-5.3 -5.3 42.52000 42.52000"
 xmlns="http://www.w3.org/2000/svg" xmlns:xlink="http://www.w3.org/1999/xlink"  version="1.2" baseProfile="tiny">
<title>Qt SVG Document</title>
<desc>Generated with Qt</desc>
<defs>
</defs>
<g fill="none" stroke="black" stroke-width="1" fill-rule="evenodd" stroke-linecap="square" stroke-linejoin="bevel" >

<g fill="#489174" fill-opacity="1" stroke="none" transform="matrix(1,0,0,1,0,0)"
font-family="MS Shell Dlg 2" font-size="7.8" font-weight="400" font-style="normal" 
>
<path vector-effect="non-scaling-stroke" fill-rule="evenodd" d="M37.2598,16 C37.2598,27.7415 27.7415,37.2598 16,37.2598 C4.25851,37.2598 -5.25984,27.7415 -5.25984,16 C-5.25984,4.25851 4.25851,-5.25984 16,-5.25984 C27.7415,-5.25984 37.2598,4.25851 37.2598,16 "/>
</g>

<g fill="#ffffff" fill-opacity="0.94902" stroke="none" transform="matrix(1,0,0,1,15.4331,12.0315)"
font-family="MS Shell Dlg 2" font-size="7.8" font-weight="400" font-style="normal" 
>
<path vector-effect="none" fill-rule="evenodd" d="M-3.1123,4.06787 C-3.02832,4.31982 -3.04232,4.54728 -3.1543,4.75024 C-3.26628,4.95321 -3.41675,5.08268 -3.60571,5.13867 C-3.79468,5.19466 -3.98364,5.18066 -4.17261,5.09668 C-4.36157,5.0127 -4.49805,4.83773 -4.58203,4.57178 L-5.94678,-0.194336 L-6.59766,-0.194336 L-4.18311,8.26709 L-6.42969,8.26709 L-6.42969,14.9019 C-6.42969,15.1538 -6.51367,15.3533 -6.68164,15.5002 C-6.84961,15.6472 -7.03507,15.7207 -7.23804,15.7207 C-7.441,15.7207 -7.62996,15.6472 -7.80493,15.5002 C-7.9799,15.3533 -8.06738,15.1538 -8.06738,14.9019 L-8.06738,8.26709 L-8.88623,8.26709 L-8.73926,14.9019 C-8.73926,15.1538 -8.83374,15.3533 -9.02271,15.5002 C-9.21167,15.6472 -9.41463,15.7207 -9.63159,15.7207 C-9.84855,15.7207 -10.048,15.6472 -10.23,15.5002 C-10.4119,15.3533 -10.5029,15.1538 -10.5029,14.9019 L-10.5029,8.26709 L-12.7495,8.26709 L-10.335,-0.194336 L-10.9019,-0.194336 L-12.3506,4.57178 C-12.4486,4.83773 -12.5885,5.01969 -12.7705,5.11768 C-12.9525,5.21566 -13.1379,5.23665 -13.3269,5.18066 C-13.5159,5.12467 -13.6663,5.0022 -13.7783,4.81323 C-13.8903,4.62427 -13.9043,4.37581 -13.8203,4.06787 L-12.2666,-1.09717 C-12.1546,-1.37712 -11.9132,-1.72005 -11.5422,-2.12598 C-11.1713,-2.5319 -10.6709,-2.73486 -10.041,-2.73486 L-6.8916,-2.73486 C-6.26172,-2.73486 -5.76131,-2.5319 -5.39038,-2.12598 C-5.01945,-1.72005 -4.77799,-1.37712 -4.66602,-1.09717 L-3.1123,4.06787 M-1.05469,-6.8501 L1.48584,-6.8501 L1.48584,15.8047 L-1.05469,15.8047 L-1.05469,-6.8501 M8.7085,-3.11279 C8.21859,-3.11279 7.78817,-3.30876 7.41724,-3.70068 C7.04631,-4.09261 6.86084,-4.52653 6.86084,-5.00244 C6.86084,-5.49235 7.04631,-5.92277 7.41724,-6.2937 C7.78817,-6.66463 8.21859,-6.8501 8.7085,-6.8501 C9.1984,-6.8501 9.62882,-6.66463 9.99976,-6.2937 C10.3707,-5.92277 10.5562,-5.49235 10.5562,-5.00244 C10.5562,-4.52653 10.3707,-4.09261 9.99976,-3.70068 C9.62882,-3.30876 9.1984,-3.11279 8.7085,-3.11279 M10.8501,-2.73486 C11.606,-2.73486 12.1833,-2.48991 12.5823,-2 C12.9812,-1.51009 13.1807,-0.950195 13.1807,-0.320313 L13.1807,5.26465 C13.1807,5.5306 13.1107,5.73356 12.9707,5.87354 C12.8307,6.01351 12.6733,6.0835 12.4983,6.0835 C12.3233,6.0835 12.1624,6.01351 12.0154,5.87354 C11.8684,5.73356 11.7949,5.5306 11.7949,5.26465 L11.7949,-0.194336 L11.123,-0.194336 L11.123,14.7339 C11.123,14.9578 11.0216,15.1713 10.8186,15.3743 C10.6156,15.5772 10.3742,15.6787 10.0942,15.6787 C9.7723,15.6787 9.52384,15.5772 9.34888,15.3743 C9.17391,15.1713 9.08643,14.9578 9.08643,14.7339 L9.08643,6.0415 L8.33057,6.0415 L8.33057,14.7339 C8.33057,14.9578 8.24308,15.1713 8.06812,15.3743 C7.89315,15.5772 7.64469,15.6787 7.32275,15.6787 C7.01481,15.6787 6.75936,15.5772 6.5564,15.3743 C6.35343,15.1713 6.25195,14.9578 6.25195,14.7339 L6.25195,-0.194336 L5.58008,-0.194336 L5.58008,5.26465 C5.58008,5.5306 5.49959,5.73356 5.33862,5.87354 C5.17765,6.01351 5.00968,6.0835 4.83472,6.0835 C4.65975,6.0835 4.49528,6.01351 4.34131,5.87354 C4.18734,5.73356 4.11035,5.5306 4.11035,5.26465 L4.11035,-0.404297 C4.11035,-1.03418 4.33781,-1.58008 4.79272,-2.04199 C5.24764,-2.50391 5.81104,-2.73486 6.48291,-2.73486 L10.8501,-2.73486 M-8.4873,-3.11279 C-8.97721,-3.11279 -9.40763,-3.29126 -9.77856,-3.64819 C-10.1495,-4.00513 -10.335,-4.45654 -10.335,-5.00244 C-10.335,-5.49235 -10.1495,-5.90177 -9.77856,-6.23071 C-9.40763,-6.55965 -8.97721,-6.72412 -8.4873,-6.72412 C-7.9974,-6.72412 -7.55998,-6.55965 -7.17505,-6.23071 C-6.79012,-5.90177 -6.59766,-5.49235 -6.59766,-5.00244 C-6.59766,-4.45654 -6.79012,-4.00513 -7.17505,-3.64819 C-7.55998,-3.29126 -7.9974,-3.11279 -8.4873,-3.11279 "/>
</g>

<g fill="#489174" fill-opacity="1" stroke="none" transform="matrix(1,0,0,1,0,0)"
font-family="MS Shell Dlg 2" font-size="7.8" font-weight="400" font-style="normal" 
>
</g>
</g>
</svg>
