<svg xmlns="http://www.w3.org/2000/svg" version="1.2" viewBox="0 0 42.52 42.52" height="56.693" width="56.693">
   <g stroke-linejoin="bevel" stroke-linecap="square" fill-rule="evenodd" stroke="none" fill="none" font-weight="400"
      font-size="7.8" font-family="'MS Shell Dlg 2'">
      <path
         d="M42.52 21.26C42.52 33 33 42.52 21.26 42.52 9.518 42.52 0 33 0 21.26 0 9.518 9.518 0 21.26 0 33 0 42.52 9.518 42.52 21.26"
         vector-effect="non-scaling-stroke" fill="#489174" />
      <path
         d="M17.58 21.36c.085.251.07.479-.041.682-.112.203-.263.332-.452.388a.798.798 0 01-.567-.042c-.189-.084-.325-.259-.41-.525l-1.364-4.766h-.65l2.414 8.461h-2.247v6.635c0 .252-.084.452-.252.599a.826.826 0 01-.556.22.865.865 0 01-.567-.22.74.74 0 01-.262-.599v-6.635h-.82l.148 6.635a.718.718 0 01-.284.599.931.931 0 01-1.207 0 .728.728 0 01-.273-.599v-6.635H7.943l2.415-8.461H9.79l-1.449 4.766c-.098.266-.238.448-.42.546a.708.708 0 01-.556.063.772.772 0 01-.451-.367c-.112-.19-.126-.438-.042-.746l1.553-5.165c.112-.28.354-.623.725-1.029.37-.406.871-.609 1.5-.609h3.15c.63 0 1.13.203 1.502.61.37.405.612.748.724 1.028l1.554 5.165m2.057-10.918h2.54v22.655h-2.54V10.441m9.763 3.738c-.49 0-.92-.196-1.29-.588-.372-.392-.557-.826-.557-1.302 0-.49.185-.92.556-1.291.371-.371.802-.557 1.291-.557.49 0 .92.186 1.292.557.37.37.556.801.556 1.29 0 .477-.185.91-.556 1.303-.371.392-.802.588-1.292.588m2.142.377c.756 0 1.333.245 1.732.735.4.49.599 1.05.599 1.68v5.585c0 .266-.07.469-.21.609a.653.653 0 01-.473.21.687.687 0 01-.483-.21c-.147-.14-.22-.343-.22-.609v-5.459h-.672v14.928c0 .224-.101.438-.304.64a.99.99 0 01-.725.305c-.322 0-.57-.101-.745-.304-.175-.203-.263-.417-.263-.64v-8.693h-.755v8.692c0 .224-.088.438-.263.64-.175.204-.423.305-.745.305a1.04 1.04 0 01-.767-.304c-.203-.203-.304-.417-.304-.64V17.096h-.672v5.459c0 .266-.08.469-.241.609a.761.761 0 01-.504.21.724.724 0 01-.494-.21c-.154-.14-.23-.343-.23-.609v-5.669c0-.63.227-1.176.682-1.638.455-.462 1.018-.693 1.69-.693h4.367m-19.337-.377c-.49 0-.92-.179-1.292-.536-.37-.357-.556-.808-.556-1.354 0-.49.185-.9.556-1.228.371-.33.802-.494 1.292-.494s.927.165 1.312.494c.385.329.577.738.577 1.228 0 .546-.192.997-.577 1.354-.385.357-.822.536-1.312.536"
         fill-opacity=".949" fill="#fff" />
   </g>
</svg>