<svg xmlns="http://www.w3.org/2000/svg" version="1.2" viewBox="0 0 42.52 42.52" height="56.693" width="56.693">
   <g stroke-linejoin="bevel" stroke-linecap="square" fill-rule="evenodd" stroke="none" fill="none" font-weight="400"
      font-size="7.8" font-family="'MS Shell Dlg 2'">
      <path
         d="M42.52 21.26C42.52 33 33 42.52 21.26 42.52 9.518 42.52 0 33 0 21.26 0 9.518 9.518 0 21.26 0 33 0 42.52 9.518 42.52 21.26"
         vector-effect="non-scaling-stroke" fill="#489174" />
      <path
         d="M24.8 28.435l-.085 1.428-5.417-.483.084-1.89 5.417.945m1.113-9.658l-.168 1.805-6.068-3.107.19-3.128 6.046 4.43m.4-4.179l-.169 1.806-5.9-5.123.084-3.002 5.984 6.32m-7.18 17.363V30.43l5.374.587-.084 1.218-5.29-.273m-.127 1.113h5.333l-.105.777-5.228.86v-1.637m6.173-7.307l-.21 1.428-5.585-1.302V23.88l5.795 1.89m.357-3.297l-.252 1.806-5.816-1.722.126-2.457 5.942 2.373m-13.08 9.49l-.084-1.07 5.816-.253v1.491l-5.732-.168m-.168-2.183l-.168-1.428 6.152-.693v1.953l-5.984.168m-.294-2.75l-.084-1.135 6.362-1.7v1.805l-6.278 1.03m-.273-2.94l-.21-1.533 6.845-2.373-.084 2.583-6.551 1.323m-.462-5.501l7.18-4.074-.083 3.045-6.93 3.023-.167-1.994m7.097-7.307l-7.391 4.556-.189-1.973 7.664-5.585-.084 3.002m.462-3.78h1.05l-1.05 27.4h-.378l.378-27.4m8.608 24.083l.21-.86 4.346.776-.168.546-4.388-.462m5.5-3.926L28.58 25.6l.168-1.028 4.472 2.141-.294.945m-.546 2.289l-.189.776-4.388-.86.105-.861 4.472.945m.378-1.428l-.21.777-4.43-1.407.168-.945 4.472 1.575m-7.223 3.8l1.071.21-.21 1.029-.945-.168.084-1.07m.21-.946l.084-.818 1.029.083-.168.861-.945-.126m1.428-2.456l-.231.86-.945-.083.147-.777h1.029m.378-2.205l-.21.861H26.31l.168-.86h1.07m.358-2.226l-.19 1.028H26.69l.084-.86 1.134-.168m.294-.21h.378l-1.806 9.763h-.294l1.722-9.763M10.102 14.116l.462-.336 1.89 20.26h-.252l-2.1-19.924m16.377.398l.294.294-2.352 19.128h-.084l2.142-19.422M12.685 34.041l-.105-1.134 1.511.084v1.26l-1.406-.21m3.569.378V33.18l1.932.084-.126 1.323-1.806-.168m10.834-.693l.168-1.113h2.1l-.294.945-1.974.168m3.296-1.029h1.218l-.189.777H30.09l.294-.777m3.024-5.984h.21l-1.89 6.76h-.21l1.89-6.76"
         fill-opacity=".949" fill="#fff" />
   </g>
</svg>