<svg xmlns="http://www.w3.org/2000/svg" version="1.2" viewBox="0 0 42.52 42.52" height="56.693" width="56.693">
   <g stroke-linejoin="bevel" stroke-linecap="square" fill-rule="evenodd" stroke="none" fill="none" font-weight="400"
      font-size="7.8" font-family="'MS Shell Dlg 2'">
      <path
         d="M42.52 21.26C42.52 33 33 42.52 21.26 42.52 9.518 42.52 0 33 0 21.26 0 9.518 9.518 0 21.26 0 33 0 42.52 9.518 42.52 21.26"
         vector-effect="non-scaling-stroke" fill="#489174" />
      <path
         d="M23.813 24.026c.503 0 .874.133 1.112.399.28.336.378.707.294 1.112l-1.595 8c-.056.308-.196.57-.42.787a1.084 1.084 0 01-.777.326.403.403 0 01-.294-.126 1.173 1.173 0 01-.777-.494c-.196-.273-.266-.598-.21-.976l1.197-6.32-3.653.357c-.406.14-.96.21-1.66.21h-2.246c-.784 0-1.312-.108-1.585-.325a1.135 1.135 0 01-.451-.82 3.08 3.08 0 01.115-1.07c.105-.385.158-.738.158-1.06 0-1.148.098-2.23.294-3.244.195-1.015.496-1.904.902-2.667.406-.763.924-1.364 1.554-1.805.63-.441 1.358-.662 2.184-.662.406 0 .72.056.944.168.224.112.403.249.536.41.133.16.213.325.241.493.028.168.042.308.042.42v.273c-.056.518-.028.962.084 1.333s.256.68.43.924c.176.245.365.437.568.577.203.14.374.252.514.336l3.36-1.406a1.02 1.02 0 01.787.063c.245.126.437.329.577.609.112.293.105.563-.02.808-.127.245-.337.437-.63.577l-3.612 1.512c-.14.056-.294.084-.462.084h-.315c-.364-.14-.798-.378-1.302-.714-.504-.336-.958-.79-1.364-1.365-.112.672-.19 1.351-.231 2.037-.042.686.035 1.288.23 1.806l5.48-.567m-3.8-8.546c-.714 0-1.298-.23-1.753-.693-.455-.461-.682-1.035-.682-1.721-.056-.658.157-1.232.64-1.722s1.053-.735 1.711-.735c.686 0 1.274.245 1.764.735s.735 1.064.735 1.722c0 .658-.238 1.225-.714 1.7a2.322 2.322 0 01-1.7.714m11.064 8.945c.196 0 .375.077.536.23a.754.754 0 01.241.568v8.944c0 .238-.08.42-.241.546a.848.848 0 01-.536.189h-2.981a.727.727 0 01-.504-.19c-.14-.125-.21-.307-.21-.545v-8.944c0-.224.07-.413.21-.567a.658.658 0 01.504-.231h2.981m-.357 8.797c.056-.056.084-.112.084-.168 0-.056.014-.112.042-.168 0-.056.021-.098.063-.126a.522.522 0 01-.23-.126c-.113-.112-.169-.287-.169-.525 0-.252.042-.42.126-.504a.527.527 0 01.168-.147c-.112-.14-.217-.217-.315-.23a1.736 1.736 0 00-.23-.022c-.14-.056-.263-.056-.368 0a.614.614 0 01-.283.084.69.69 0 01-.21-.042.956.956 0 00-1.029.315c-.154.224-.179.5-.074.83.105.329.228.605.368.829.112.266.273.399.483.399a.616.616 0 00.23-.042.895.895 0 01.315-.042.7.7 0 01.242.042.99.99 0 00.325.042.259.259 0 00.21-.105c.056-.07.14-.168.252-.294m-1.112-2.142a.643.643 0 00.44-.168c.14-.21.21-.398.21-.566-.238 0-.399.105-.483.314a.57.57 0 00-.168.42m1.47-3.149h-2.981v.903h2.981v-.903m0-1.113h-2.981v.82h2.981v-.82m0-1.197h-2.981v.82h2.981v-.82m-11.695 2.142c.28 0 .515.116.704.346.189.231.283.522.283.872 0 .308-.094.57-.283.787a.896.896 0 01-.704.326H16.59c-.07.28-.133.507-.19.682a.883.883 0 01-.293.43v1.386h2.792c.028 0 .05.007.063.021.014.014.035.021.063.021l.042.042c.238.056.42.186.546.389.126.203.19.444.19.724 0 .322-.095.588-.284.798a.908.908 0 01-.703.315.973.973 0 01-.725-.315 1.101 1.101 0 01-.304-.798v-.336h-4.095c.056.056.084.112.084.168v.168c0 .322-.098.588-.293.798a.963.963 0 01-.735.315.973.973 0 01-.725-.315 1.101 1.101 0 01-.304-.798c0-.28.066-.521.2-.724a.878.878 0 01.535-.389l.126-.084h2.75v-1.386a1.883 1.883 0 01-.23-.43c-.07-.175-.106-.402-.106-.682h-2.876c-.238 0-.459-.109-.662-.326a1.11 1.11 0 01-.304-.787c0-.182.063-.413.189-.693h-.084a.887.887 0 01-.787-.22 1.3 1.3 0 01-.43-.767l-1.366-8.86a1.185 1.185 0 01.105-.798c.126-.238.301-.406.525-.504-.28-.364-.378-.79-.294-1.28l.483-1.806c.14-.322.354-.581.64-.777.288-.196.571-.266.85-.21a.948.948 0 01.673.598c.126.315.147.676.063 1.081l-.462 1.638c-.07.28-.182.5-.336.662a1.768 1.768 0 01-.483.367c.168.224.252.483.252.777l1.428 8.713c.056.21.07.385.042.525a1.67 1.67 0 01-.147.42l.105-.084h7.264m14.005-13.416a.724.724 0 01.283.262c.077.119.088.22.032.304l-1.848 6.971h.336v1.575H20.58v-.84c.167.14.339.238.514.294.175.056.332.112.472.168H22.259l2.96-1.197h5.501l1.764-6.803-2.31-1.196-.399 4.304-.63.546-.314.567-1.113-.126.86-10.246 1.281.23-.084.63.651.82-.168 2.162 3.129 1.575m-4.724 6.718l-2.415.252c.154-.084.252-.189.294-.315.042-.126.063-.266.063-.42l3.254-.462v.735l-.818.126v.82h-.378v-.736"
         fill-opacity=".949" fill="#fff" />
   </g>
</svg>