<?xml version="1.0" encoding="UTF-8" standalone="no"?>
<svg width="11.25008mm" height="11.25008mm"
 viewBox="-5.3 -5.3 42.52000 42.52000"
 xmlns="http://www.w3.org/2000/svg" xmlns:xlink="http://www.w3.org/1999/xlink"  version="1.2" baseProfile="tiny">
<title>Qt SVG Document</title>
<desc>Generated with Qt</desc>
<defs>
</defs>
<g fill="none" stroke="black" stroke-width="1" fill-rule="evenodd" stroke-linecap="square" stroke-linejoin="bevel" >

<g fill="#489174" fill-opacity="1" stroke="none" transform="matrix(1,0,0,1,0,0)"
font-family="MS Shell Dlg 2" font-size="7.8" font-weight="400" font-style="normal" 
>
<path vector-effect="non-scaling-stroke" fill-rule="evenodd" d="M37.2598,16 C37.2598,27.7415 27.7415,37.2598 16,37.2598 C4.25851,37.2598 -5.25984,27.7415 -5.25984,16 C-5.25984,4.25851 4.25851,-5.25984 16,-5.25984 C27.7415,-5.25984 37.2598,4.25851 37.2598,16 "/>
</g>

<g fill="#ffffff" fill-opacity="0.94902" stroke="none" transform="matrix(1,0,0,1,16,12.5984)"
font-family="MS Shell Dlg 2" font-size="7.8" font-weight="400" font-style="normal" 
>
<path vector-effect="none" fill-rule="evenodd" d="M2.55273,6.16748 C3.05664,6.16748 3.42757,6.30046 3.66553,6.56641 C3.94548,6.90234 4.04346,7.27327 3.95947,7.6792 L2.36377,15.6787 C2.30778,15.9867 2.16781,16.2491 1.94385,16.4661 C1.71989,16.683 1.46094,16.7915 1.16699,16.7915 C1.05501,16.7915 0.957031,16.7495 0.873047,16.6655 C0.551107,16.6095 0.292155,16.4451 0.0961914,16.1721 C-0.0997721,15.8992 -0.169759,15.5737 -0.11377,15.1958 L1.08301,8.87598 L-2.57031,9.23291 C-2.97624,9.37288 -3.52913,9.44287 -4.229,9.44287 C-4.92887,9.44287 -5.67773,9.44287 -6.47559,9.44287 C-7.25944,9.44287 -7.78784,9.33439 -8.06079,9.11743 C-8.33374,8.90047 -8.48421,8.62752 -8.51221,8.29858 C-8.5402,7.96965 -8.50171,7.61271 -8.39673,7.22778 C-8.29175,6.84285 -8.23926,6.48942 -8.23926,6.16748 C-8.23926,5.01969 -8.14128,3.9384 -7.94531,2.92358 C-7.74935,1.90877 -7.4484,1.01994 -7.04248,0.25708 C-6.63656,-0.505778 -6.11865,-1.10767 -5.48877,-1.54858 C-4.85889,-1.9895 -4.13102,-2.20996 -3.30518,-2.20996 C-2.89925,-2.20996 -2.58431,-2.15397 -2.36035,-2.04199 C-2.13639,-1.93001 -1.95793,-1.79354 -1.82495,-1.63257 C-1.69198,-1.4716 -1.61149,-1.30713 -1.5835,-1.13916 C-1.5555,-0.971191 -1.5415,-0.831217 -1.5415,-0.719238 L-1.5415,-0.446289 C-1.59749,0.0716146 -1.5695,0.516032 -1.45752,0.886963 C-1.34554,1.25789 -1.20207,1.56584 -1.0271,1.81079 C-0.852132,2.05575 -0.663167,2.24821 -0.460205,2.38818 C-0.257243,2.52816 -0.0857747,2.64014 0.0541992,2.72412 L3.41357,1.31738 C3.69352,1.2334 3.95597,1.25439 4.20093,1.38037 C4.44588,1.50635 4.63835,1.70931 4.77832,1.98926 C4.8903,2.2832 4.8833,2.55265 4.75732,2.79761 C4.63135,3.04256 4.42139,3.23503 4.12744,3.375 L0.516113,4.88672 C0.376139,4.94271 0.222168,4.9707 0.0541992,4.9707 L-0.260742,4.9707 C-0.624674,4.83073 -1.05859,4.59277 -1.5625,4.25684 C-2.06641,3.9209 -2.52132,3.46598 -2.92725,2.89209 C-3.03923,3.56396 -3.11621,4.24284 -3.1582,4.92871 C-3.2002,5.61458 -3.12321,6.21647 -2.92725,6.73438 L2.55273,6.16748 M-1.24756,-2.37793 C-1.96143,-2.37793 -2.54582,-2.60889 -3.00073,-3.0708 C-3.45565,-3.53271 -3.68311,-4.10661 -3.68311,-4.79248 C-3.7391,-5.45036 -3.52563,-6.02425 -3.04272,-6.51416 C-2.55981,-7.00407 -1.98942,-7.24902 -1.33154,-7.24902 C-0.645671,-7.24902 -0.0577799,-7.00407 0.432129,-6.51416 C0.922038,-6.02425 1.16699,-5.45036 1.16699,-4.79248 C1.16699,-4.1346 0.929036,-3.56771 0.453125,-3.0918 C-0.0227865,-2.61589 -0.589681,-2.37793 -1.24756,-2.37793 M9.81738,6.56641 C10.0133,6.56641 10.1918,6.64339 10.3528,6.79736 C10.5138,6.95133 10.5942,7.1403 10.5942,7.36426 L10.5942,16.3086 C10.5942,16.5465 10.5138,16.7285 10.3528,16.8545 C10.1918,16.9805 10.0133,17.0435 9.81738,17.0435 L6.83594,17.0435 C6.63997,17.0435 6.47201,16.9805 6.33203,16.8545 C6.19206,16.7285 6.12207,16.5465 6.12207,16.3086 L6.12207,7.36426 C6.12207,7.1403 6.19206,6.95133 6.33203,6.79736 C6.47201,6.64339 6.63997,6.56641 6.83594,6.56641 L9.81738,6.56641 M9.46045,15.3638 C9.51644,15.3078 9.54443,15.2518 9.54443,15.1958 C9.54443,15.1398 9.55843,15.0838 9.58643,15.0278 C9.58643,14.9718 9.60742,14.9299 9.64941,14.9019 C9.55143,14.8739 9.47445,14.8319 9.41846,14.7759 C9.30648,14.6639 9.25049,14.4889 9.25049,14.251 C9.25049,13.999 9.29248,13.8311 9.37646,13.7471 C9.43245,13.6771 9.48844,13.6281 9.54443,13.6001 C9.43245,13.4601 9.32747,13.3831 9.22949,13.3691 C9.13151,13.3551 9.05452,13.3481 8.99854,13.3481 C8.85856,13.2922 8.73608,13.2922 8.6311,13.3481 C8.52612,13.4041 8.43164,13.4321 8.34766,13.4321 C8.29167,13.4321 8.22168,13.4181 8.1377,13.3901 C8.05371,13.3621 7.96973,13.3481 7.88574,13.3481 C7.5638,13.3481 7.30485,13.4671 7.10889,13.7051 C6.95492,13.929 6.93042,14.2055 7.0354,14.5344 C7.14038,14.8634 7.26286,15.1398 7.40283,15.3638 C7.51481,15.6297 7.67578,15.7627 7.88574,15.7627 C7.96973,15.7627 8.04671,15.7487 8.1167,15.7207 C8.18669,15.6927 8.29167,15.6787 8.43164,15.6787 C8.51563,15.6787 8.59611,15.6927 8.6731,15.7207 C8.75008,15.7487 8.85856,15.7627 8.99854,15.7627 C9.08252,15.7627 9.15251,15.7277 9.2085,15.6577 C9.26449,15.5877 9.34847,15.4897 9.46045,15.3638 M8.34766,13.2222 C8.51563,13.2222 8.6626,13.1662 8.78857,13.0542 C8.92855,12.8442 8.99854,12.6553 8.99854,12.4873 C8.76058,12.4873 8.59961,12.5923 8.51563,12.8022 C8.40365,12.9142 8.34766,13.0542 8.34766,13.2222 M9.81738,10.0728 L6.83594,10.0728 L6.83594,10.9756 L9.81738,10.9756 L9.81738,10.0728 M9.81738,8.95996 L6.83594,8.95996 L6.83594,9.77881 L9.81738,9.77881 L9.81738,8.95996 M9.81738,7.76318 L6.83594,7.76318 L6.83594,8.58203 L9.81738,8.58203 L9.81738,7.76318 M-1.87744,9.90479 C-1.59749,9.90479 -1.36304,10.0203 -1.17407,10.2512 C-0.985107,10.4822 -0.890625,10.7726 -0.890625,11.1226 C-0.890625,11.4305 -0.985107,11.693 -1.17407,11.9099 C-1.36304,12.1269 -1.59749,12.2354 -1.87744,12.2354 L-4.66992,12.2354 C-4.73991,12.5153 -4.8029,12.7428 -4.85889,12.9177 C-4.91488,13.0927 -5.01286,13.2362 -5.15283,13.3481 L-5.15283,14.7339 L-2.36035,14.7339 C-2.33236,14.7339 -2.31136,14.7409 -2.29736,14.7549 C-2.28337,14.7689 -2.26237,14.7759 -2.23438,14.7759 L-2.19238,14.8179 C-1.95443,14.8739 -1.77246,15.0033 -1.64648,15.2063 C-1.52051,15.4093 -1.45752,15.6507 -1.45752,15.9307 C-1.45752,16.2526 -1.552,16.5186 -1.74097,16.7285 C-1.92993,16.9385 -2.16439,17.0435 -2.44434,17.0435 C-2.72428,17.0435 -2.96574,16.9385 -3.1687,16.7285 C-3.37166,16.5186 -3.47314,16.2526 -3.47314,15.9307 L-3.47314,15.5947 L-7.56738,15.5947 C-7.51139,15.6507 -7.4834,15.7067 -7.4834,15.7627 C-7.4834,15.8187 -7.4834,15.8747 -7.4834,15.9307 C-7.4834,16.2526 -7.58138,16.5186 -7.77734,16.7285 C-7.97331,16.9385 -8.21826,17.0435 -8.51221,17.0435 C-8.79215,17.0435 -9.03361,16.9385 -9.23657,16.7285 C-9.43953,16.5186 -9.54102,16.2526 -9.54102,15.9307 C-9.54102,15.6507 -9.47453,15.4093 -9.34155,15.2063 C-9.20858,15.0033 -9.03011,14.8739 -8.80615,14.8179 L-8.68018,14.7339 L-5.92969,14.7339 L-5.92969,13.3481 C-6.01367,13.2362 -6.09066,13.0927 -6.16064,12.9177 C-6.23063,12.7428 -6.26563,12.5153 -6.26563,12.2354 L-9.14209,12.2354 C-9.38005,12.2354 -9.6005,12.1269 -9.80347,11.9099 C-10.0064,11.693 -10.1079,11.4305 -10.1079,11.1226 C-10.1079,10.9406 -10.0449,10.7096 -9.91895,10.4297 L-10.0029,10.4297 C-10.2969,10.4857 -10.5593,10.4122 -10.7903,10.2092 C-11.0212,10.0063 -11.1647,9.75081 -11.2207,9.44287 L-12.5854,0.58252 C-12.6414,0.288574 -12.6064,0.0226237 -12.4805,-0.215332 C-12.3545,-0.453288 -12.1795,-0.621257 -11.9556,-0.719238 C-12.2355,-1.08317 -12.3335,-1.51009 -12.2495,-2 L-11.7666,-3.80566 C-11.6266,-4.1276 -11.4132,-4.38656 -11.1262,-4.58252 C-10.8393,-4.77848 -10.5558,-4.84847 -10.2759,-4.79248 C-9.95394,-4.7085 -9.72998,-4.50903 -9.604,-4.19409 C-9.47803,-3.87915 -9.45703,-3.51872 -9.54102,-3.11279 L-10.0029,-1.4751 C-10.0729,-1.19515 -10.1849,-0.974691 -10.3389,-0.813721 C-10.4928,-0.652751 -10.6538,-0.530273 -10.8218,-0.446289 C-10.6538,-0.222331 -10.5698,0.0366211 -10.5698,0.330566 L-9.14209,9.04395 C-9.0861,9.25391 -9.0721,9.42887 -9.1001,9.56885 C-9.12809,9.70882 -9.17708,9.8488 -9.24707,9.98877 L-9.14209,9.90479 L-1.87744,9.90479 M12.127,-3.51172 C12.2389,-3.45573 12.3334,-3.36825 12.4104,-3.24927 C12.4874,-3.13029 12.4979,-3.02881 12.4419,-2.94482 L10.5942,4.02588 L10.9302,4.02588 L10.9302,5.60059 L-0.680664,5.60059 L-0.680664,4.76074 C-0.512695,4.90072 -0.341227,4.9987 -0.16626,5.05469 C0.00870768,5.11068 0.166178,5.16667 0.306152,5.22266 L0.600098,5.22266 L0.999023,5.22266 L3.95947,4.02588 L9.46045,4.02588 L11.2241,-2.77686 L8.91455,-3.97363 L8.51563,0.330566 L7.88574,0.876465 L7.5708,1.44336 L6.45801,1.31738 L7.31885,-8.92871 L8.59961,-8.69775 L8.51563,-8.06787 L9.1665,-7.24902 L8.99854,-5.08643 L12.127,-3.51172 M7.40283,3.20703 L4.98828,3.45898 C5.14225,3.375 5.24023,3.27002 5.28223,3.14404 C5.32422,3.01807 5.34521,2.87809 5.34521,2.72412 L8.59961,2.26221 L8.59961,2.99707 L7.78076,3.12305 L7.78076,3.94189 L7.40283,3.94189 L7.40283,3.20703"/>
</g>

<g fill="#489174" fill-opacity="1" stroke="none" transform="matrix(1,0,0,1,0,0)"
font-family="MS Shell Dlg 2" font-size="7.8" font-weight="400" font-style="normal" 
>
</g>
</g>
</svg>
