<?xml version="1.0" encoding="UTF-8" standalone="no"?>
<svg
   xmlns:dc="http://purl.org/dc/elements/1.1/"
   xmlns:cc="http://creativecommons.org/ns#"
   xmlns:rdf="http://www.w3.org/1999/02/22-rdf-syntax-ns#"
   xmlns:svg="http://www.w3.org/2000/svg"
   xmlns="http://www.w3.org/2000/svg"
   xmlns:sodipodi="http://sodipodi.sourceforge.net/DTD/sodipodi-0.dtd"
   xmlns:inkscape="http://www.inkscape.org/namespaces/inkscape"
   inkscape:version="1.0 (4035a4fb49, 2020-05-01)"
   sodipodi:docname="2510.svg"
   id="svg20"
   version="1.2"
   viewBox="0 0 42.519639 42.519639"
   height="14.999999mm"
   width="14.999999mm">
  <metadata
     id="metadata24">
    <rdf:RDF>
      <cc:Work
         rdf:about="">
        <dc:format>image/svg+xml</dc:format>
        <dc:type
           rdf:resource="http://purl.org/dc/dcmitype/StillImage" />
        <dc:title>Qt SVG Document</dc:title>
      </cc:Work>
    </rdf:RDF>
  </metadata>
  <sodipodi:namedview
     inkscape:current-layer="svg20"
     inkscape:window-maximized="0"
     inkscape:window-y="0"
     inkscape:window-x="0"
     inkscape:cy="28.346482"
     inkscape:cx="28.346482"
     inkscape:zoom="5.8410537"
     showgrid="false"
     id="namedview22"
     inkscape:window-height="480"
     inkscape:window-width="1034"
     inkscape:pageshadow="2"
     inkscape:pageopacity="0"
     guidetolerance="10"
     gridtolerance="10"
     objecttolerance="10"
     borderopacity="1"
     bordercolor="#666666"
     pagecolor="#ffffff" />
  <title
     id="title2">Qt SVG Document</title>
  <desc
     id="desc4">Generated with Qt</desc>
  <defs
     id="defs6" />
  <g
     transform="translate(5.25984,5.25984)"
     id="g18"
     stroke-linejoin="bevel"
     stroke-linecap="square"
     fill-rule="evenodd"
     stroke-width="1"
     stroke="#000000"
     fill="none">
    <g
       id="g10"
       font-style="normal"
       font-weight="400"
       font-size="7.8px"
       font-family="'MS Shell Dlg 2'"
       stroke="none"
       fill-opacity="1"
       fill="#489174">
      <path
         id="path8"
         d="M 37.2598,16 C 37.2598,27.7415 27.7415,37.2598 16,37.2598 4.25851,37.2598 -5.25984,27.7415 -5.25984,16 -5.25984,4.25851 4.25851,-5.25984 16,-5.25984 27.7415,-5.25984 37.2598,4.25851 37.2598,16"
         fill-rule="evenodd"
         vector-effect="non-scaling-stroke" />
    </g>
    <g
       id="g14"
       font-style="normal"
       font-weight="400"
       font-size="7.8px"
       font-family="'MS Shell Dlg 2'"
       transform="translate(16,12.5984)"
       stroke="none"
       fill-opacity="0.94902"
       fill="#ffffff">
      <path
         id="path12"
         d="m 2.55273,6.16748 c 0.50391,0 0.87484,0.13298 1.1128,0.39893 0.27995,0.33593 0.37793,0.70686 0.29394,1.11279 l -1.5957,7.9995 c -0.05599,0.308 -0.19596,0.5704 -0.41992,0.7874 -0.22396,0.2169 -0.48291,0.3254 -0.77686,0.3254 -0.11198,0 -0.209959,-0.042 -0.293943,-0.126 C 0.551107,16.6095 0.292155,16.4451 0.0961914,16.1721 -0.0997721,15.8992 -0.169759,15.5737 -0.11377,15.1958 L 1.08301,8.87598 -2.57031,9.23291 c -0.40593,0.13997 -0.95882,0.20996 -1.65869,0.20996 -0.69987,0 -1.44873,0 -2.24659,0 -0.78385,0 -1.31225,-0.10848 -1.5852,-0.32544 -0.27295,-0.21696 -0.42342,-0.48991 -0.45142,-0.81885 -0.02799,-0.32893 0.0105,-0.68587 0.11548,-1.0708 0.10498,-0.38493 0.15747,-0.73836 0.15747,-1.0603 0,-1.14779 0.09798,-2.22908 0.29395,-3.2439 0.19596,-1.01481 0.49691,-1.90364 0.90283,-2.6665 0.40592,-0.762858 0.92383,-1.36475 1.55371,-1.80566 0.62988,-0.44092 1.35775,-0.66138 2.18359,-0.66138 0.40593,0 0.72087,0.05599 0.94483,0.16797 0.22396,0.11198 0.40242,0.24845 0.5354,0.40942 0.13297,0.16097 0.21346,0.32544 0.24145,0.49341 0.028,0.167969 0.042,0.307943 0.042,0.419922 v 0.272949 c -0.05599,0.5179036 -0.028,0.962321 0.08398,1.333252 0.11198,0.370927 0.25545,0.678877 0.43042,0.923827 0.174968,0.24496 0.363933,0.43742 0.566895,0.57739 0.202962,0.13998 0.3744303,0.25196 0.5144042,0.33594 L 3.41357,1.31738 C 3.69352,1.2334 3.95597,1.25439 4.20093,1.38037 4.44588,1.50635 4.63835,1.70931 4.77832,1.98926 4.8903,2.2832 4.8833,2.55265 4.75732,2.79761 4.63135,3.04256 4.42139,3.23503 4.12744,3.375 L 0.516113,4.88672 C 0.376139,4.94271 0.222168,4.9707 0.0541992,4.9707 H -0.260742 C -0.624674,4.83073 -1.05859,4.59277 -1.5625,4.25684 -2.06641,3.9209 -2.52132,3.46598 -2.92725,2.89209 -3.03923,3.56396 -3.11621,4.24284 -3.1582,4.92871 c -0.042,0.68587 0.03499,1.28776 0.23095,1.80567 l 5.47998,-0.5669 m -3.80029,-8.54541 c -0.71387,0 -1.29826,-0.23096 -1.75317,-0.69287 -0.45492,-0.46191 -0.68238,-1.03581 -0.68238,-1.72168 -0.05599,-0.65788 0.15748,-1.23177 0.64039,-1.72168 0.48291,-0.48991 1.0533,-0.73486 1.71118,-0.73486 0.685869,0 1.2737601,0.24495 1.763669,0.73486 0.489909,0.48991 0.734861,1.0638 0.734861,1.72168 0,0.65788 -0.237954,1.22477 -0.713865,1.70068 -0.4759115,0.47591 -1.042806,0.71387 -1.700685,0.71387 M 9.81738,6.56641 c 0.19592,0 0.37442,0.07698 0.53542,0.23095 0.161,0.15397 0.2414,0.34294 0.2414,0.5669 v 8.94434 c 0,0.2379 -0.0804,0.4199 -0.2414,0.5459 -0.161,0.126 -0.3395,0.189 -0.53542,0.189 H 6.83594 c -0.19597,0 -0.36393,-0.063 -0.50391,-0.189 -0.13997,-0.126 -0.20996,-0.308 -0.20996,-0.5459 V 7.36426 c 0,-0.22396 0.06999,-0.41293 0.20996,-0.5669 C 6.47201,6.64339 6.63997,6.56641 6.83594,6.56641 H 9.81738 M 9.46045,15.3638 c 0.05599,-0.056 0.08398,-0.112 0.08398,-0.168 0,-0.056 0.014,-0.112 0.042,-0.168 0,-0.056 0.02099,-0.0979 0.06298,-0.1259 -0.09798,-0.028 -0.17496,-0.07 -0.23095,-0.126 -0.11198,-0.112 -0.16797,-0.287 -0.16797,-0.5249 0,-0.252 0.04199,-0.4199 0.12597,-0.5039 0.05599,-0.07 0.11198,-0.119 0.16797,-0.147 -0.11198,-0.14 -0.21696,-0.217 -0.31494,-0.231 -0.09798,-0.014 -0.17497,-0.021 -0.23095,-0.021 -0.13998,-0.0559 -0.26246,-0.0559 -0.36744,0 -0.10498,0.056 -0.19946,0.084 -0.28344,0.084 -0.05599,0 -0.12598,-0.014 -0.20996,-0.042 -0.08399,-0.028 -0.16797,-0.042 -0.25196,-0.042 -0.32194,0 -0.58089,0.119 -0.77685,0.357 -0.15397,0.2239 -0.17847,0.5004 -0.07349,0.8293 0.10498,0.329 0.22746,0.6054 0.36743,0.8294 0.11198,0.2659 0.27295,0.3989 0.48291,0.3989 0.08399,0 0.16097,-0.014 0.23096,-0.042 0.06999,-0.028 0.17497,-0.042 0.31494,-0.042 0.08399,0 0.16447,0.014 0.24146,0.042 0.07698,0.028 0.18546,0.042 0.32544,0.042 0.08398,0 0.15397,-0.035 0.20996,-0.105 0.05599,-0.07 0.13997,-0.168 0.25195,-0.2939 M 8.34766,13.2222 c 0.16797,0 0.31494,-0.056 0.44091,-0.168 0.13998,-0.21 0.20997,-0.3989 0.20997,-0.5669 -0.23796,0 -0.39893,0.105 -0.48291,0.3149 -0.11198,0.112 -0.16797,0.252 -0.16797,0.42 M 9.81738,10.0728 H 6.83594 v 0.9028 h 2.98144 v -0.9028 m 0,-1.11284 H 6.83594 V 9.77881 H 9.81738 V 8.95996 m 0,-1.19678 H 6.83594 V 8.58203 H 9.81738 V 7.76318 M -1.87744,9.90479 c 0.27995,0 0.5144,0.11551 0.70337,0.34641 0.188963,0.231 0.283445,0.5214 0.283445,0.8714 0,0.3079 -0.094482,0.5704 -0.283445,0.7873 -0.18897,0.217 -0.42342,0.3255 -0.70337,0.3255 h -2.79248 c -0.06999,0.2799 -0.13298,0.5074 -0.18897,0.6823 -0.05599,0.175 -0.15397,0.3185 -0.29394,0.4304 v 1.3858 h 2.79248 c 0.02799,0 0.04899,0.007 0.06299,0.021 0.01399,0.014 0.03499,0.021 0.06298,0.021 l 0.042,0.042 c 0.23795,0.056 0.41992,0.1854 0.5459,0.3884 0.12597,0.203 0.18896,0.4444 0.18896,0.7244 0,0.3219 -0.09448,0.5879 -0.28345,0.7978 -0.18896,0.21 -0.42342,0.315 -0.70337,0.315 -0.27994,0 -0.5214,-0.105 -0.72436,-0.315 -0.20296,-0.2099 -0.30444,-0.4759 -0.30444,-0.7978 v -0.336 h -4.09424 c 0.05599,0.056 0.08398,0.112 0.08398,0.168 0,0.056 0,0.112 0,0.168 0,0.3219 -0.09798,0.5879 -0.29394,0.7978 -0.19597,0.21 -0.44092,0.315 -0.73487,0.315 -0.27994,0 -0.5214,-0.105 -0.72436,-0.315 -0.20296,-0.2099 -0.30445,-0.4759 -0.30445,-0.7978 0,-0.28 0.06649,-0.5214 0.19947,-0.7244 0.13297,-0.203 0.31144,-0.3324 0.5354,-0.3884 l 0.12597,-0.084 h 2.75049 v -1.3858 c -0.08398,-0.1119 -0.16097,-0.2554 -0.23095,-0.4304 -0.06999,-0.1749 -0.10499,-0.4024 -0.10499,-0.6823 h -2.87646 c -0.23796,0 -0.45841,-0.1085 -0.66138,-0.3255 -0.20293,-0.2169 -0.30443,-0.4794 -0.30443,-0.7873 0,-0.182 0.063,-0.413 0.18895,-0.6929 h -0.08395 c -0.294,0.056 -0.5564,-0.0175 -0.7874,-0.2205 -0.2309,-0.2029 -0.3744,-0.45839 -0.4304,-0.76633 l -1.3647,-8.86035 c -0.056,-0.293946 -0.021,-0.5598963 0.1049,-0.797852 0.126,-0.237956 0.301,-0.405925 0.5249,-0.503906 C -12.2355,-1.08317 -12.3335,-1.51009 -12.2495,-2 l 0.4829,-1.80566 c 0.14,-0.32194 0.3534,-0.5809 0.6404,-0.77686 0.2869,-0.19596 0.5704,-0.26595 0.8503,-0.20996 0.32196,0.08398 0.54592,0.28345 0.6719,0.59839 0.12597,0.31494 0.14697,0.67537 0.06298,1.0813 l -0.46188,1.63769 c -0.07,0.27995 -0.182,0.500409 -0.336,0.661379 -0.1539,0.16097 -0.3149,0.283448 -0.4829,0.367432 0.168,0.223958 0.252,0.4829101 0.252,0.776855 l 1.42771,8.713384 c 0.05599,0.20996 0.06999,0.38492 0.04199,0.5249 -0.02799,0.13997 -0.07698,0.27995 -0.14697,0.41992 l 0.10498,-0.08398 h 7.26465 M 12.127,-3.51172 c 0.1119,0.05599 0.2064,0.14347 0.2834,0.26245 0.077,0.11898 0.0875,0.22046 0.0315,0.30445 l -1.8477,6.9707 h 0.336 V 5.60059 H -0.680664 V 4.76074 c 0.167969,0.13998 0.339437,0.23796 0.514404,0.29395 0.17496768,0.05599 0.332438,0.11198 0.472412,0.16797 H 0.600098 0.999023 L 3.95947,4.02588 H 9.46045 L 11.2241,-2.77686 8.91455,-3.97363 8.51563,0.330566 7.88574,0.876465 7.5708,1.44336 6.45801,1.31738 7.31885,-8.92871 8.59961,-8.69775 8.51563,-8.06787 9.1665,-7.24902 8.99854,-5.08643 12.127,-3.51172 M 7.40283,3.20703 4.98828,3.45898 C 5.14225,3.375 5.24023,3.27002 5.28223,3.14404 5.32422,3.01807 5.34521,2.87809 5.34521,2.72412 L 8.59961,2.26221 V 2.99707 L 7.78076,3.12305 V 3.94189 H 7.40283 V 3.20703"
         fill-rule="evenodd"
         vector-effect="none" />
    </g>
    <g
       id="g16"
       font-style="normal"
       font-weight="400"
       font-size="7.8px"
       font-family="'MS Shell Dlg 2'"
       stroke="none"
       fill-opacity="1"
       fill="#489174" />
  </g>
</svg>
