<svg xmlns="http://www.w3.org/2000/svg" version="1.2" viewBox="0 0 42.52 42.52" height="56.693" width="56.693">
   <g stroke-linejoin="bevel" stroke-linecap="square" fill-rule="evenodd" stroke="none" fill="none" font-weight="400"
      font-size="7.8" font-family="'MS Shell Dlg 2'">
      <path
         d="M42.52 21.26C42.52 33 33 42.52 21.26 42.52 9.518 42.52 0 33 0 21.26 0 9.518 9.518 0 21.26 0 33 0 42.52 9.518 42.52 21.26"
         vector-effect="non-scaling-stroke" fill="#6fa56c" />
      <path
         d="M32.257 24.278c.574.574.86 1.133.86 1.68 0 .657-.325 1.294-.976 1.91-.65.616-1.525 1.158-2.624 1.627-1.099.47-2.394.847-3.884 1.134-1.491.287-3.083.43-4.777.43s-3.286-.143-4.777-.43c-1.49-.287-2.796-.665-3.915-1.134-1.12-.469-2.002-1.011-2.646-1.627-.644-.616-.966-1.253-.966-1.91 0-.519.26-1.078.777-1.68l1.113 3.128.44.294-1.385-5.27c.574.308 1.242.584 2.005.83.763.244 1.585.45 2.467.619l.987 5.5.945.19-.252-5.291c1.554.168 3.29.252 5.207.252 1.834 0 3.527-.084 5.081-.252l-.273 5.29.903-.188 1.113-5.501a18.134 18.134 0 002.435-.62 12.696 12.696 0 001.953-.829L30.66 27.7l.462-.294 1.134-3.128m-7.79 1.112c-.574.056-1.154.098-1.742.126a42.097 42.097 0 01-3.78 0 38.676 38.676 0 01-1.826-.126l1.113 4.074c.251.07.524.119.818.147.462.084 1.064.126 1.806.126.658 0 1.232-.042 1.722-.126a4.26 4.26 0 00.777-.147l1.112-4.074m-6.32.82c.392 0 .82.013 1.281.041.462.028.938.042 1.428.042.406 0 .836-.014 1.291-.042.455-.028.886-.042 1.292-.042l-.651 1.281c-.518.14-1.162.21-1.932.21-.868 0-1.554-.07-2.058-.21l-.65-1.28m-5.375-5.46c.91-.49 2.06-.878 3.453-1.165 1.393-.287 2.936-.43 4.63-.43 1.666 0 3.191.143 4.577.43 1.386.287 2.54.675 3.465 1.165-1.008.364-2.209.669-3.601.914a25.63 25.63 0 01-4.441.367c-1.61 0-3.107-.122-4.493-.367-1.386-.245-2.583-.55-3.59-.914m8.167-6.32c1.834 0 3.566.13 5.197.389 1.63.259 3.051.602 4.262 1.029 1.21.427 2.166.934 2.866 1.522.7.588 1.05 1.21 1.05 1.869 0 .685-.35 1.322-1.05 1.91-.7.588-1.67 1.099-2.908 1.533-1.239.434-2.674.777-4.304 1.029-1.631.252-3.363.378-5.197.378-1.89 0-3.66-.126-5.312-.378-1.652-.252-3.086-.595-4.304-1.029-1.218-.434-2.184-.945-2.898-1.533-.713-.588-1.07-1.225-1.07-1.91 0-.658.35-1.281 1.05-1.87.7-.587 1.651-1.094 2.855-1.521 1.204-.427 2.614-.77 4.23-1.03 1.617-.258 3.363-.388 5.24-.388v-3.065h.293v.168l4.178.735-4.178.735v1.427m-.084 7.853c1.61 0 3.114-.091 4.514-.273 1.4-.182 2.632-.43 3.695-.745 1.064-.315 1.897-.697 2.499-1.145.602-.447.903-.93.903-1.448 0-.658-.504-1.246-1.512-1.764l-2.498 3.191a2.444 2.444 0 00-.64-.252 4.125 4.125 0 01-.683-.23l1.89-3.507a16.069 16.069 0 00-1.701-.399l-1.386-.252-.735 3.696-.976-.168a5.692 5.692 0 00-.955-.084l.797-3.759a8.209 8.209 0 00-1.238-.084c-.462 0-.952-.028-1.47-.084v3.696h-1.197v-3.696c-.49.056-.941.084-1.354.084-.413 0-.738.028-.976.084l.692 3.759c-.335 0-.647.014-.934.042a9.68 9.68 0 00-.871.126l-.735-3.738c-.574.112-1.123.224-1.648.336-.525.112-.99.224-1.397.336l1.848 3.528a4.61 4.61 0 00-.724.199l-.64.241-2.415-3.233c-1.26.574-1.89 1.218-1.89 1.932 0 .518.308 1 .924 1.448.616.448 1.445.83 2.488 1.145 1.043.315 2.282.563 3.716.745 1.435.182 2.971.273 4.609.273"
         fill="#fff" />
   </g>
</svg>