<?xml version="1.0" encoding="UTF-8" standalone="no"?>
<svg
   xmlns:dc="http://purl.org/dc/elements/1.1/"
   xmlns:cc="http://creativecommons.org/ns#"
   xmlns:rdf="http://www.w3.org/1999/02/22-rdf-syntax-ns#"
   xmlns:svg="http://www.w3.org/2000/svg"
   xmlns="http://www.w3.org/2000/svg"
   xmlns:sodipodi="http://sodipodi.sourceforge.net/DTD/sodipodi-0.dtd"
   xmlns:inkscape="http://www.inkscape.org/namespaces/inkscape"
   inkscape:version="1.0 (4035a4fb49, 2020-05-01)"
   sodipodi:docname="2602.svg"
   id="svg20"
   version="1.2"
   viewBox="0 0 42.519639 42.519639"
   height="14.999999mm"
   width="14.999999mm">
  <metadata
     id="metadata24">
    <rdf:RDF>
      <cc:Work
         rdf:about="">
        <dc:format>image/svg+xml</dc:format>
        <dc:type
           rdf:resource="http://purl.org/dc/dcmitype/StillImage" />
        <dc:title>Qt SVG Document</dc:title>
      </cc:Work>
    </rdf:RDF>
  </metadata>
  <sodipodi:namedview
     inkscape:current-layer="svg20"
     inkscape:window-maximized="0"
     inkscape:window-y="0"
     inkscape:window-x="0"
     inkscape:cy="28.346482"
     inkscape:cx="28.346482"
     inkscape:zoom="5.8410537"
     showgrid="false"
     id="namedview22"
     inkscape:window-height="480"
     inkscape:window-width="1034"
     inkscape:pageshadow="2"
     inkscape:pageopacity="0"
     guidetolerance="10"
     gridtolerance="10"
     objecttolerance="10"
     borderopacity="1"
     bordercolor="#666666"
     pagecolor="#ffffff" />
  <title
     id="title2">Qt SVG Document</title>
  <desc
     id="desc4">Generated with Qt</desc>
  <defs
     id="defs6" />
  <g
     transform="translate(5.25984,5.25984)"
     id="g18"
     stroke-linejoin="bevel"
     stroke-linecap="square"
     fill-rule="evenodd"
     stroke-width="1"
     stroke="#000000"
     fill="none">
    <g
       id="g10"
       font-style="normal"
       font-weight="400"
       font-size="7.8px"
       font-family="'MS Shell Dlg 2'"
       stroke="none"
       fill-opacity="1"
       fill="#6fa56c">
      <path
         id="path8"
         d="M 37.2598,16 C 37.2598,27.7415 27.7415,37.2598 16,37.2598 4.25851,37.2598 -5.25984,27.7415 -5.25984,16 -5.25984,4.25851 4.25851,-5.25984 16,-5.25984 27.7415,-5.25984 37.2598,4.25851 37.2598,16"
         fill-rule="evenodd"
         vector-effect="non-scaling-stroke" />
    </g>
    <g
       id="g14"
       font-style="normal"
       font-weight="400"
       font-size="7.8px"
       font-family="'MS Shell Dlg 2'"
       transform="translate(16,11.4646)"
       stroke="none"
       fill-opacity="0.94902"
       fill="#ffffff">
      <path
         id="path12"
         d="M 4.32031,-6.26221 0.499023,-5.2334 v -2.05762 l 3.821287,1.02881 m 7.09669,1.6377 -3.8213,1.38574 v -2.75049 l 3.8213,1.36475 m -14.10938,0 -3.82129,1.38574 v -2.75049 l 3.82129,1.36475 M 12.3618,12.4453 c 0.35,0 0.5249,0.175 0.5249,0.5249 0,0.14 -0.0525,0.259 -0.1575,0.3569 -0.1049,0.098 -0.2274,0.147 -0.3674,0.147 h -25.6782 c -0.14,0 -0.259,-0.049 -0.3569,-0.147 -0.098,-0.0979 -0.147,-0.2169 -0.147,-0.3569 0,-0.3499 0.168,-0.5249 0.5039,-0.5249 h 1.6797 V 6.37744 c 0,-1.6237 0.3219,-3.00944 0.9658,-4.15723 0.6439,-1.14778 1.51172,-2.078608 2.60352,-2.792476 V -5.98926 h 1.02881 v 4.80811 c 0.86783,-0.43392 1.80916,-0.75936 2.82397,-0.97632 1.01481,-0.21696 2.08211,-0.35343 3.2019,-0.40942 v -4.72413 h 1.0708055 v 4.72413 C 1.1779,-2.5109 2.2487,-2.37443 3.27051,-2.15747 c 1.02181,0.21696 1.95963,0.5424 2.81347,0.97632 v -4.80811 h 1.02881 v 5.416994 C 8.20459,0.141602 9.07243,1.07243 9.71631,2.22021 10.3602,3.368 10.6821,4.75374 10.6821,6.37744 v 6.06786 h 1.6797 M -7.9834,8.75 h -2.4775 v 2.4565 h 2.4775 V 8.75 m 0,-3.44336 h -2.4775 v 2.1626 h 2.4775 V 5.30664 M -4.49805,8.75 h -2.43554 v 2.4565 h 2.43554 V 8.75 m 0,-3.44336 h -2.43554 v 2.1626 h 2.43554 V 5.30664 M 2.34668,3.62695 C 2.34668,2.8571 2.07373,2.19922 1.52783,1.65332 0.981934,1.10742 0.310059,0.834473 -0.487793,0.834473 c -0.783857,0 -1.445227,0.272947 -1.984127,0.818847 -0.5389,0.5459 -0.80835,1.20378 -0.80835,1.97363 V 12.9702 H 2.34668 V 3.62695 M 6,8.75 H 3.54346 v 2.4565 H 6 V 8.75 M 6,5.30664 H 3.54346 v 2.1626 H 6 V 5.30664 M 9.48535,8.75 H 7.02881 v 2.4565 H 9.48535 V 8.75 m 0,-3.44336 H 7.02881 v 2.1626 H 9.48535 V 5.30664 M 6.86084,15.1958 H -7.79443 c -0.29395,0 -0.44092,-0.14 -0.44092,-0.4199 0,-0.294 0.14697,-0.4409 0.44092,-0.4409 H 6.86084 c 0.27995,0 0.41992,0.1469 0.41992,0.4409 0,0.2799 -0.13997,0.4199 -0.41992,0.4199"
         fill-rule="evenodd"
         vector-effect="none" />
    </g>
    <g
       id="g16"
       font-style="normal"
       font-weight="400"
       font-size="7.8px"
       font-family="'MS Shell Dlg 2'"
       stroke="none"
       fill-opacity="1"
       fill="#6fa56c" />
  </g>
</svg>
