<svg xmlns="http://www.w3.org/2000/svg" version="1.2" viewBox="0 0 42.52 42.52" height="56.693" width="56.693">
   <g stroke-linejoin="bevel" stroke-linecap="square" fill-rule="evenodd" stroke="none" fill="none" font-weight="400"
      font-size="7.8" font-family="'MS Shell Dlg 2'">
      <path
         d="M42.52 21.26C42.52 33 33 42.52 21.26 42.52 9.518 42.52 0 33 0 21.26 0 9.518 9.518 0 21.26 0 33 0 42.52 9.518 42.52 21.26"
         vector-effect="non-scaling-stroke" fill="#6fa56c" />
      <path
         d="M25.58 10.462l-3.821 1.029V9.433l3.821 1.03m7.097 1.637l-3.821 1.386v-2.75l3.82 1.364m-14.109 0l-3.82 1.386v-2.75l3.82 1.364m15.055 17.07c.35 0 .525.175.525.525a.47.47 0 01-.158.357.521.521 0 01-.367.147H7.943a.486.486 0 01-.356-.147.486.486 0 01-.147-.357c0-.35.168-.525.503-.525h1.68v-6.068c0-1.624.322-3.01.966-4.157a7.91 7.91 0 012.603-2.793v-5.417h1.03v4.808c.867-.434 1.808-.76 2.823-.976a20.103 20.103 0 013.202-.41V9.434h1.07v4.725c1.12.056 2.192.192 3.213.409 1.022.217 1.96.542 2.814.976v-4.808h1.029v5.417a7.91 7.91 0 012.603 2.793c.644 1.147.966 2.533.966 4.157v6.068h1.68m-20.346-3.696H10.8v2.457h2.477v-2.457m0-3.443H10.8v2.163h2.477V22.03m3.486 3.443h-2.436v2.457h2.436v-2.457m0-3.443h-2.436v2.163h2.436V22.03m6.845-1.68a2.69 2.69 0 00-.82-1.973c-.545-.546-1.217-.82-2.015-.82-.784 0-1.445.274-1.984.82a2.708 2.708 0 00-.808 1.973v9.344h5.627V20.35m3.653 5.123h-2.457v2.457h2.457v-2.457m0-3.443h-2.457v2.163h2.457V22.03m3.485 3.443H28.29v2.457h2.456v-2.457m0-3.443H28.29v2.163h2.456V22.03m-2.624 9.89H13.465c-.294 0-.44-.14-.44-.42 0-.295.146-.442.44-.442h14.656c.28 0 .42.147.42.441 0 .28-.14.42-.42.42"
         fill-opacity=".949" fill="#fff" />
   </g>
</svg>