<?xml version="1.0" encoding="UTF-8" standalone="no"?>
<svg
   xmlns:dc="http://purl.org/dc/elements/1.1/"
   xmlns:cc="http://creativecommons.org/ns#"
   xmlns:rdf="http://www.w3.org/1999/02/22-rdf-syntax-ns#"
   xmlns:svg="http://www.w3.org/2000/svg"
   xmlns="http://www.w3.org/2000/svg"
   xmlns:sodipodi="http://sodipodi.sourceforge.net/DTD/sodipodi-0.dtd"
   xmlns:inkscape="http://www.inkscape.org/namespaces/inkscape"
   inkscape:version="1.0 (4035a4fb49, 2020-05-01)"
   sodipodi:docname="2603.svg"
   id="svg20"
   version="1.2"
   viewBox="0 0 42.519639 42.519639"
   height="14.999999mm"
   width="14.999999mm">
  <metadata
     id="metadata24">
    <rdf:RDF>
      <cc:Work
         rdf:about="">
        <dc:format>image/svg+xml</dc:format>
        <dc:type
           rdf:resource="http://purl.org/dc/dcmitype/StillImage" />
        <dc:title>Qt SVG Document</dc:title>
      </cc:Work>
    </rdf:RDF>
  </metadata>
  <sodipodi:namedview
     inkscape:current-layer="svg20"
     inkscape:window-maximized="0"
     inkscape:window-y="0"
     inkscape:window-x="0"
     inkscape:cy="28.346482"
     inkscape:cx="28.346482"
     inkscape:zoom="5.8410537"
     showgrid="false"
     id="namedview22"
     inkscape:window-height="480"
     inkscape:window-width="1034"
     inkscape:pageshadow="2"
     inkscape:pageopacity="0"
     guidetolerance="10"
     gridtolerance="10"
     objecttolerance="10"
     borderopacity="1"
     bordercolor="#666666"
     pagecolor="#ffffff" />
  <title
     id="title2">Qt SVG Document</title>
  <desc
     id="desc4">Generated with Qt</desc>
  <defs
     id="defs6" />
  <g
     transform="translate(5.25984,5.25984)"
     id="g18"
     stroke-linejoin="bevel"
     stroke-linecap="square"
     fill-rule="evenodd"
     stroke-width="1"
     stroke="#000000"
     fill="none">
    <g
       id="g10"
       font-style="normal"
       font-weight="400"
       font-size="7.8px"
       font-family="'MS Shell Dlg 2'"
       stroke="none"
       fill-opacity="1"
       fill="#6fa56c">
      <path
         id="path8"
         d="M 37.2598,16 C 37.2598,27.7415 27.7415,37.2598 16,37.2598 4.25851,37.2598 -5.25984,27.7415 -5.25984,16 -5.25984,4.25851 4.25851,-5.25984 16,-5.25984 27.7415,-5.25984 37.2598,4.25851 37.2598,16"
         fill-rule="evenodd"
         vector-effect="non-scaling-stroke" />
    </g>
    <g
       id="g14"
       font-style="normal"
       font-weight="400"
       font-size="7.8px"
       font-family="'MS Shell Dlg 2'"
       transform="translate(16,12.5984)"
       stroke="none"
       fill-opacity="0.94902"
       fill="#ffffff">
      <path
         id="path12"
         d="m -10.8638,1.2334 c -0.4339,-0.15397 -0.6928,-0.23096 -0.7768,-0.23096 l 6.06785,-3.33838 -1.6377,-2.89746 c -0.05599,-0.13997 -0.08398,-0.32194 -0.08398,-0.5459 0,-0.29394 0.08398,-0.5249 0.25195,-0.69287 0.05599,-0.11198 0.12598,-0.18896 0.20996,-0.23096 0.08398,-0.04199 0.16797,-0.09098 0.25195,-0.14697 l 6.151859,-1.09179 c 0.181966,0 0.3289389,0.01399 0.440918,0.04199 0.279948,0.06998 0.489909,0.23095 0.629883,0.48291 0.097982,0.27995 0.094482,0.55639 -0.010498,0.82934 -0.104981,0.27295 -0.32544,0.43742 -0.6613772,0.49341 l -4.3041948,0.94483 3.653316,6.46679 c -0.139974,0.05599 -0.26945,0.08399 -0.388426,0.08399 -0.11898,0 -0.24846,0 -0.38843,0 -0.13997,0 -0.30444,-0.007 -0.49341,-0.021 C -2.13989,1.36637 -2.33236,1.31738 -2.52832,1.2334 -2.75228,1.10742 -2.95874,1.02344 -3.14771,0.981445 -3.33667,0.939453 -3.47314,0.918457 -3.55713,0.918457 c -0.34993,0 -0.74186,0.104983 -1.17578,0.314943 -0.22396,0.05599 -0.41992,0.09798 -0.58789,0.12598 -0.16797,0.02799 -0.32894,0.04199 -0.48291,0.04199 -0.13997,0 -0.28695,-0.014 -0.44092,-0.04199 C -6.3986,1.33138 -6.59456,1.28939 -6.83252,1.2334 -7.26644,1.02344 -7.62337,0.918457 -7.90332,0.918457 c -0.34994,0 -0.73486,0.104983 -1.15479,0.314943 -0.20996,0.05599 -0.39892,0.09798 -0.56689,0.12598 -0.16797,0.02799 -0.32894,0.04199 -0.4829,0.04199 -0.14,0 -0.28,-0.007 -0.4199,-0.021 -0.14,-0.014 -0.252,-0.06299 -0.336,-0.14697 M 12.001,3.50098 c 0.6858,0.19596 1.2597,0.29394 1.7217,0.29394 V 5.5166 c -0.462,0 -1.0359,-0.09798 -1.7217,-0.29394 C 11.665,5.16667 11.3606,5.11068 11.0876,5.05469 10.8147,4.9987 10.5732,4.9987 10.3633,5.05469 10.1113,4.9987 9.84188,4.9917 9.55493,5.03369 9.26799,5.07568 8.94954,5.13867 8.59961,5.22266 7.91374,5.41862 7.33984,5.5166 6.87793,5.5166 6.45801,5.5166 5.89111,5.41862 5.17725,5.22266 4.39339,5.05469 3.84749,4.9707 3.53955,4.9707 3.04964,4.9707 2.44775,5.05469 1.73389,5.22266 1.104,5.41862 0.558105,5.5166 0.0961914,5.5166 -0.169759,5.46061 -0.428711,5.42562 -0.680664,5.41162 -0.932617,5.39762 -1.26156,5.33464 -1.66748,5.22266 -2.43734,5.05469 -3.01123,4.9707 -3.38916,4.9707 c -0.22396,0 -0.46541,0.021 -0.72437,0.06299 C -4.37248,5.07568 -4.70492,5.13867 -5.11084,5.22266 -5.51676,5.27865 -5.8562,5.32764 -6.12915,5.36963 -6.4021,5.41162 -6.63656,5.46061 -6.83252,5.5166 -7.02848,5.46061 -7.26994,5.41162 -7.55688,5.36963 -7.84383,5.32764 -8.19027,5.27865 -8.59619,5.22266 -9.25407,5.05469 -9.82796,4.9707 -10.3179,4.9707 c -0.1959,0 -0.4304,0.014 -0.7033,0.042 -0.273,0.02799 -0.5844,0.06998 -0.9344,0.12597 -0.7138,0.19597 -1.2877,0.29395 -1.7216,0.29395 V 3.71094 c 0.2099,0 0.4514,-0.028 0.7243,-0.08399 0.273,-0.05599 0.6054,-0.12597 0.9973,-0.20996 0.406,-0.08398 0.7384,-0.15397 0.9973,-0.20996 0.259,-0.05599 0.5145,-0.08398 0.7664,-0.08398 0.182,0 0.41643,0.02799 0.70337,0.08398 0.28695,0.05599 0.62639,0.12598 1.01832,0.20996 0.32194,0.08399 0.62638,0.15397 0.91333,0.20996 0.28694,0.05599 0.5284,0.08399 0.72436,0.08399 0.23796,0 0.49691,-0.028 0.77686,-0.08399 0.27994,-0.05599 0.59489,-0.12597 0.94482,-0.20996 0.40592,-0.08398 0.73836,-0.15397 0.99731,-0.20996 0.25896,-0.05599 0.50041,-0.08398 0.72437,-0.08398 0.19596,0 0.43042,0.02799 0.70337,0.08398 0.27295,0.05599 0.61239,0.12598 1.01831,0.20996 0.33594,0.08399 0.64738,0.15397 0.934326,0.20996 0.286946,0.05599 0.563395,0.08399 0.8293454,0.08399 0.1959636,0 0.4304196,-0.021 0.7033696,-0.06299 C 1.07251,3.60596 1.38395,3.55697 1.73389,3.50098 2.44775,3.33301 3.04964,3.24902 3.53955,3.24902 c 0.30794,0 0.85384,0.08399 1.6377,0.25196 0.39192,0.11198 0.71736,0.17496 0.97631,0.18896 0.25896,0.014 0.50041,0.021 0.72437,0.021 0.37793,0.09798 0.95182,0.02799 1.72168,-0.20996 0.69987,-0.16797 1.28776,-0.25196 1.76369,-0.25196 0.4059,0 0.9518,0.08399 1.6377,0.25196 m -13.66848,-5.9209 c 0,-0.5459 0.18547,-1.00781 0.5564,-1.38574 0.370927,-0.37793 0.829342,-0.5669 1.37524,-0.5669 0.573893,0 1.0533,0.18897 1.43823,0.5669 0.38493,0.37793 0.5774,0.83984 0.5774,1.38574 0,0.55989 -0.19247,1.03581 -0.5774,1.427732 -0.38493,0.391928 -0.864337,0.587891 -1.43823,0.587891 -0.545898,0 -1.004313,-0.195963 -1.37524,-0.587891 -0.37093,-0.391922 -0.5564,-0.867842 -0.5564,-1.427732 M 10.8462,7.63721 c 0.196,0.11198 0.3359,0.17496 0.4199,0.18896 0.084,0.014 0.161,0.021 0.231,0.021 l -6.02591,3.35933 1.6377,2.8765 c 0.05599,0.084 0.08398,0.182 0.08398,0.294 0,0.1119 0,0.2029 0,0.2729 0,0.14 -0.007,0.266 -0.02099,0.3779 -0.014,0.112 -0.07699,0.21 -0.18897,0.294 -0.09798,0.084 -0.19596,0.1714 -0.29395,0.2624 C 6.59098,15.6752 6.5,15.7207 6.41602,15.7207 l -6.15186,1.1548 c -0.1679686,0.028 -0.3079426,0.014 -0.419922,-0.042 -0.125976,-0.028 -0.251953,-0.084 -0.377929,-0.168 -0.125977,-0.084 -0.21696,-0.2169 -0.27295,-0.3989 -0.083984,-0.224 -0.076985,-0.4724 0.020996,-0.7454 0.097982,-0.2729 0.321941,-0.4654 0.671875,-0.5774 L 4.31641,13.999 0.558105,7.55322 c 0.153972,0 0.293946,-0.01399 0.419922,-0.04199 C 1.104,7.48324 1.22298,7.46924 1.33496,7.46924 c 0.32194,0 0.69287,0.09798 1.11279,0.29394 0.20996,0.05599 0.40593,0.09799 0.58789,0.12598 0.18197,0.02799 0.34994,0.04199 0.50391,0.04199 0.13997,0 0.28695,-0.014 0.44092,-0.04199 C 4.13444,7.86117 4.3444,7.81917 4.61035,7.76318 4.83431,7.6512 5.04077,7.57422 5.22974,7.53223 5.4187,7.49023 5.55518,7.46924 5.63916,7.46924 c 0.34994,0 0.70687,0.09798 1.0708,0.29394 0.23796,0.08399 0.45492,0.13298 0.65088,0.14698 0.19596,0.01399 0.37093,0.02099 0.5249,0.02099 0.13998,0 0.28695,-0.007 0.44092,-0.02099 0.15397,-0.014 0.34994,-0.06299 0.58789,-0.14698 0.41992,-0.19596 0.77686,-0.29394 1.0708,-0.29394 0.13995,0 0.28345,0.014 0.43045,0.04199 0.1469,0.028 0.2904,0.06999 0.4304,0.12598 M 1.60791,11.2905 c 0,0.5739 -0.20296,1.0533 -0.608887,1.4383 -0.405924,0.3849 -0.881835,0.5774 -1.427734,0.5774 -0.573889,0 -1.053299,-0.1995 -1.438229,-0.5984 -0.38493,-0.399 -0.5774,-0.8714 -0.5774,-1.4173 0,-0.5179 0.20647,-0.9833 0.61939,-1.39621 0.41292,-0.41293 0.878335,-0.61939 1.396239,-0.61939 0.545899,0 1.02181,0.20646 1.427734,0.61939 C 1.40495,10.3072 1.60791,10.7726 1.60791,11.2905"
         fill-rule="evenodd"
         vector-effect="none" />
    </g>
    <g
       id="g16"
       font-style="normal"
       font-weight="400"
       font-size="7.8px"
       font-family="'MS Shell Dlg 2'"
       stroke="none"
       fill-opacity="1"
       fill="#6fa56c" />
  </g>
</svg>
