<?xml version="1.0" encoding="UTF-8" standalone="no"?>
<svg
   xmlns:dc="http://purl.org/dc/elements/1.1/"
   xmlns:cc="http://creativecommons.org/ns#"
   xmlns:rdf="http://www.w3.org/1999/02/22-rdf-syntax-ns#"
   xmlns:svg="http://www.w3.org/2000/svg"
   xmlns="http://www.w3.org/2000/svg"
   xmlns:sodipodi="http://sodipodi.sourceforge.net/DTD/sodipodi-0.dtd"
   xmlns:inkscape="http://www.inkscape.org/namespaces/inkscape"
   inkscape:version="1.0 (4035a4fb49, 2020-05-01)"
   sodipodi:docname="2604.svg"
   id="svg20"
   version="1.2"
   viewBox="0 0 42.519639 42.519639"
   height="14.999999mm"
   width="14.999999mm">
  <metadata
     id="metadata24">
    <rdf:RDF>
      <cc:Work
         rdf:about="">
        <dc:format>image/svg+xml</dc:format>
        <dc:type
           rdf:resource="http://purl.org/dc/dcmitype/StillImage" />
        <dc:title>Qt SVG Document</dc:title>
      </cc:Work>
    </rdf:RDF>
  </metadata>
  <sodipodi:namedview
     inkscape:current-layer="svg20"
     inkscape:window-maximized="0"
     inkscape:window-y="0"
     inkscape:window-x="0"
     inkscape:cy="28.346482"
     inkscape:cx="28.346482"
     inkscape:zoom="5.8410537"
     showgrid="false"
     id="namedview22"
     inkscape:window-height="480"
     inkscape:window-width="1034"
     inkscape:pageshadow="2"
     inkscape:pageopacity="0"
     guidetolerance="10"
     gridtolerance="10"
     objecttolerance="10"
     borderopacity="1"
     bordercolor="#666666"
     pagecolor="#ffffff" />
  <title
     id="title2">Qt SVG Document</title>
  <desc
     id="desc4">Generated with Qt</desc>
  <defs
     id="defs6" />
  <g
     transform="translate(5.25984,5.25984)"
     id="g18"
     stroke-linejoin="bevel"
     stroke-linecap="square"
     fill-rule="evenodd"
     stroke-width="1"
     stroke="#000000"
     fill="none">
    <g
       id="g10"
       font-style="normal"
       font-weight="400"
       font-size="7.8px"
       font-family="'MS Shell Dlg 2'"
       stroke="none"
       fill-opacity="1"
       fill="#6fa56c">
      <path
         id="path8"
         d="M 37.2598,16 C 37.2598,27.7415 27.7415,37.2598 16,37.2598 4.25851,37.2598 -5.25984,27.7415 -5.25984,16 -5.25984,4.25851 4.25851,-5.25984 16,-5.25984 27.7415,-5.25984 37.2598,4.25851 37.2598,16"
         fill-rule="evenodd"
         vector-effect="non-scaling-stroke" />
    </g>
    <g
       id="g14"
       font-style="normal"
       font-weight="400"
       font-size="7.8px"
       font-family="'MS Shell Dlg 2'"
       transform="translate(16,13.1654)"
       stroke="none"
       fill-opacity="0.94902"
       fill="#ffffff">
      <path
         id="path12"
         d="M 7.31885,10.6816 C 7.17887,10.8776 7.00741,11.0701 6.80444,11.259 6.60148,11.448 6.38802,11.6125 6.16406,11.7524 L 3.22461,8.83398 C 3.02865,8.63802 2.79419,8.51904 2.52124,8.47705 2.24829,8.43506 1.90535,8.41406 1.49243,8.41406 c -0.41292,0 -0.920327,0 -1.5222152,0 C -0.631673,8.41406 -1.36654,8.33708 -2.23438,8.18311 -3.52214,8.04313 -4.81689,7.6652 -6.11865,7.04932 -7.42041,6.43343 -8.5472,5.64958 -9.49902,4.69775 -10.3249,3.87191 -10.9618,2.97957 -11.4097,2.02075 c -0.4479,-0.95882 -0.7068,-1.917641 -0.7768,-2.876463 -0.07,-0.958817 0.0525,-1.875647 0.3674,-2.750487 0.3149,-0.87484 0.8154,-1.65519 1.5012,-2.34107 0.57392,-0.57389 1.2423,-1.01131 2.00516,-1.31225 0.76285,-0.30095 1.5677,-0.45842 2.41455,-0.47241 0.84684,-0.014 1.69718,0.12247 2.55102,0.40942 0.85384,0.28695 1.67269,0.71037 2.456545,1.27026 -0.433915,0.29395 -0.762855,0.59489 -0.986815,0.90284 -0.69987,-0.44792 -1.42074,-0.79086 -2.1626,-1.02881 v 0.04199 1.17578 h 2.07861 c -0.06998,0.05599 -0.10498,0.09798 -0.10498,0.12598 0,0.02799 -0.02799,0.06998 -0.08398,0.12597 h -1.88965 v 2.45655 h 1.5957 v 0.16797 h -1.5957 v 2.498531 h 2.49854 v -0.818848 c 0.05599,0 0.13997,0.05599 0.25195,0.167969 v 0.650879 h 1.091796 C -0.0857747,0.47054 0.012207,0.512533 0.0961914,0.540527 0.180176,0.568522 0.292155,0.610514 0.432129,0.666504 H -1.28955 V 3.16504 H 1.16699 V 0.666504 H 1.33496 V 3.16504 H 2.51074 C 2.51074,2.2972 2.36377,1.43636 2.06982,0.58252 H 2.15381 C 2.58773,0.414551 2.97266,0.211589 3.30859,-0.0263672 3.46257,0.379557 3.56055,0.760986 3.60254,1.11792 3.64453,1.47485 3.69352,1.84229 3.74951,2.22021 3.86149,3.07406 3.91748,3.80892 3.91748,4.4248 c 0,0.61589 0,1.14079 0,1.57471 0,0.43392 0.028,0.78736 0.08398,1.0603 0.05599,0.27295 0.18897,0.50741 0.39893,0.70337 L 7.31885,10.6816 M -1.37354,5.78955 H 1.16699 V 3.29102 H -1.28955 L -1.37354,5.78955 M -4.04004,3.16504 H -1.5415 V 0.666504 L -4.04004,0.58252 v 2.58252 m 0,2.62451 H -1.5415 V 3.29102 H -4.04004 V 5.78955 M -4.20801,-6.22021 C -5.03385,-6.44417 -5.8667,-6.48617 -6.70654,-6.34619 v 1.38574 h 2.49853 v -1.25976 m -5.12304,6.634761 h 2.49853 V -2.08398 H -9.33105 V 0.414551 M -6.83252,-2.25195 V -4.7085 h -2.49853 v 2.45655 h 2.49853 m 0,-2.7085 V -6.3042 c -1.00781,0.16797 -1.84066,0.58789 -2.49853,1.25977 v 0.08398 h 2.49853 m 2.62451,5.375001 V -2.08398 h -2.49853 v 2.498531 h 2.49853 M -6.70654,0.58252 v 2.49853 l 2.49853,0.08399 V 0.666504 L -6.70654,0.58252 m 2.49853,-2.83447 V -4.7085 h -2.49853 v 2.45655 h 2.49853 m -2.49853,5.54297 v 1.97363 c 0.37793,0.22396 0.69287,0.39892 0.94482,0.5249 h 1.55371 V 3.29102 h -2.49853 m 1.30175,2.6665 c 0.22396,0.08398 0.43042,0.16797 0.61939,0.25195 0.18896,0.08399 0.38143,0.15397 0.57739,0.20996 V 5.95752 H -5.40479 M -9.66699,-4.7085 c -0.60191,0.68588 -0.97281,1.50472 -1.11281,2.45655 h 1.19679 V -4.7085 h -0.08398 m -1.15481,2.62452 c -0.084,0.85384 0,1.714677 0.252,2.582515 V 0.414551 h 0.98679 V -2.08398 h -1.23879 m 0.294,2.6665 c 0.3779,1.17578 1.02178,2.24658 1.93161,3.2124 0.29394,0.26595 0.58439,0.51441 0.87134,0.74536 0.28694,0.23096 0.58439,0.44442 0.89233,0.64038 V 5.13867 3.29102 h -2.1416 C -9.0861,3.23503 -9.14209,3.16504 -9.14209,3.08105 h 2.30957 V 0.58252 H -9.33105 V 2.80811 L -9.58301,2.55615 V 0.58252 h -0.94479 m 6.48776,5.87891 c 0.43392,0.15397 0.85734,0.26595 1.27026,0.33593 0.41293,0.06999 0.82235,0.10498 1.22828,0.10498 V 5.95752 H -4.04004 V 6.46143 M 1.50293,5.95752 C 2.07682,5.32764 2.39176,4.4388 2.44775,3.29102 H 1.33496 v 2.49853 h 0.27295 c 0,0.05599 -0.0175,0.08399 -0.05249,0.08399 -0.03499,0 -0.08049,0.02799 -0.13647,0.08398 H 1.33496 V 6.0415 L 1.16699,6.20947 V 5.95752 h -2.54053 v 0.94482 c 0.573898,0 1.112798,-0.08048 1.616704,-0.24145 C 0.74707,6.49992 1.16699,6.26546 1.50293,5.95752 M 0.873047,-4.22559 C 1.01302,-4.37956 1.17749,-4.57202 1.36646,-4.80298 c 0.18896,-0.23096 0.20646,-0.5284 0.05249,-0.89233 0,-0.05599 -0.014,-0.09798 -0.042,-0.12598 -0.02799,-0.02799 -0.04199,-0.06999 -0.04199,-0.12598 0.97982,0 1.72868,0.41293 2.24658,1.23877 H 3.22461 c -0.39193,0.11198 -0.62638,0.29745 -0.70337,0.5564 -0.07699,0.25895 -0.14347,0.5144 -0.19946,0.76636 v 0.31494 c 0,0.33594 -0.035,0.63338 -0.10498,0.89233 C 2.14681,-1.91951 1.90885,-1.72005 1.50293,-1.58008 1.139,-1.4821 0.806559,-1.52759 0.505615,-1.71655 0.204671,-1.90552 -0.00179036,-2.16097 -0.11377,-2.48291 l -0.083984,-0.08398 c -0.153971,-0.39193 -0.150472,-0.69637 0.010498,-0.91333 0.1609702,-0.21696 0.395427,-0.40943 0.703369,-0.5774 0.083985,-0.05599 0.150472,-0.09798 0.199463,-0.12597 0.048991,-0.028 0.101481,-0.042 0.157471,-0.042 m -2.666507,2.05762 c -0.23795,-0.83984 -0.14697,-1.6167 0.27295,-2.33057 0.41992,-0.71386 1.042808,-1.16878 1.868655,-1.36474 0.055989,-0.05599 0.174967,-0.08399 0.356933,-0.08399 0.05599,0.05599 0.097982,0.11898 0.125977,0.18897 0.027994,0.06999 0.069987,0.13297 0.125976,0.18896 0.027995,0.22396 0.006999,0.38843 -0.062988,0.49341 -0.069987,0.10498 -0.195964,0.22746 -0.37793,0.36743 -0.055989,0.05599 -0.097981,0.08399 -0.125976,0.08399 -0.027995,0 -0.069987,0.02799 -0.125977,0.08398 -0.111979,0.05599 -0.2484536,0.12948 -0.409424,0.22046 -0.16097,0.09098 -0.297444,0.21346 -0.409424,0.36743 -0.111979,0.15397 -0.195963,0.33244 -0.251953,0.5354 -0.055989,0.20297 -0.055989,0.43042 0,0.68238 v 0.25195 0.10498 c 0.167969,0.47591 0.489909,0.85034 0.965821,1.12329 0.475911,0.272951 0.98682,0.325441 1.53271,0.15747 0.30795,-0.08398 0.5494,-0.20646 0.72437,-0.36743 0.17497,-0.16097 0.29744,-0.33244 0.36743,-0.5144 0.06999,-0.18197 0.11198,-0.37443 0.12598,-0.5774 0.014,-0.20296 0.02099,-0.37443 0.02099,-0.5144 v -0.25195 c 0,-0.48991 0.16097,-0.76286 0.48291,-0.81885 0.16797,-0.09798 0.33594,-0.09798 0.50391,0 0.05599,0.05599 0.08398,0.11198 0.08398,0.16797 0,0.05599 0.028,0.11198 0.08399,0.16797 0.20996,0.82584 0.11198,1.5992 -0.29395,2.32006 C 3.38558,-0.76473 2.76969,-0.292318 1.94385,-0.0683594 1.146,0.127604 0.386637,0.026123 -0.334229,-0.372803 -1.05509,-0.771729 -1.5415,-1.37012 -1.79346,-2.16797 M 11.3501,14.251 c -0.14,0.112 -0.259,0.2274 -0.3569,0.3464 -0.098,0.119 -0.217,0.2485 -0.357,0.3884 -0.1539,0.168 -0.3079,0.3115 -0.4619,0.4305 -0.154,0.1189 -0.32892,0.2484 -0.52489,0.3884 L 6.54199,12.7393 c 0.40593,-0.224 0.73137,-0.4725 0.97632,-0.7454 0.24495,-0.273 0.47941,-0.5774 0.70337,-0.9133 l 3.12842,3.1704"
         fill-rule="evenodd"
         vector-effect="none" />
    </g>
    <g
       id="g16"
       font-style="normal"
       font-weight="400"
       font-size="7.8px"
       font-family="'MS Shell Dlg 2'"
       stroke="none"
       fill-opacity="1"
       fill="#6fa56c" />
  </g>
</svg>
