<?xml version="1.0" encoding="UTF-8" standalone="no"?>
<svg width="11.25008mm" height="11.25008mm"
 viewBox="-5.3 -5.3 42.52000 42.52000"
 xmlns="http://www.w3.org/2000/svg" xmlns:xlink="http://www.w3.org/1999/xlink"  version="1.2" baseProfile="tiny">
<title>Qt SVG Document</title>
<desc>Generated with Qt</desc>
<defs>
</defs>
<g fill="none" stroke="black" stroke-width="1" fill-rule="evenodd" stroke-linecap="square" stroke-linejoin="bevel" >

<g fill="#6fa56c" fill-opacity="1" stroke="none" transform="matrix(1,0,0,1,0,0)"
font-family="MS Shell Dlg 2" font-size="7.8" font-weight="400" font-style="normal" 
>
<path vector-effect="non-scaling-stroke" fill-rule="evenodd" d="M37.2598,16 C37.2598,27.7415 27.7415,37.2598 16,37.2598 C4.25851,37.2598 -5.25984,27.7415 -5.25984,16 C-5.25984,4.25851 4.25851,-5.25984 16,-5.25984 C27.7415,-5.25984 37.2598,4.25851 37.2598,16 "/>
</g>

<g fill="#ffffff" fill-opacity="0.94902" stroke="none" transform="matrix(1,0,0,1,16,13.1654)"
font-family="MS Shell Dlg 2" font-size="7.8" font-weight="400" font-style="normal" 
>
<path vector-effect="none" fill-rule="evenodd" d="M7.31885,10.6816 C7.17887,10.8776 7.00741,11.0701 6.80444,11.259 C6.60148,11.448 6.38802,11.6125 6.16406,11.7524 L3.22461,8.83398 C3.02865,8.63802 2.79419,8.51904 2.52124,8.47705 C2.24829,8.43506 1.90535,8.41406 1.49243,8.41406 C1.07951,8.41406 0.572103,8.41406 -0.0297852,8.41406 C-0.631673,8.41406 -1.36654,8.33708 -2.23438,8.18311 C-3.52214,8.04313 -4.81689,7.6652 -6.11865,7.04932 C-7.42041,6.43343 -8.5472,5.64958 -9.49902,4.69775 C-10.3249,3.87191 -10.9618,2.97957 -11.4097,2.02075 C-11.8576,1.06193 -12.1165,0.103109 -12.1865,-0.855713 C-12.2565,-1.81453 -12.134,-2.73136 -11.8191,-3.6062 C-11.5042,-4.48104 -11.0037,-5.26139 -10.3179,-5.94727 C-9.74398,-6.52116 -9.0756,-6.95858 -8.31274,-7.25952 C-7.54989,-7.56047 -6.74504,-7.71794 -5.89819,-7.73193 C-5.05135,-7.74593 -4.20101,-7.60946 -3.34717,-7.32251 C-2.49333,-7.03556 -1.67448,-6.61214 -0.890625,-6.05225 C-1.32454,-5.7583 -1.65348,-5.45736 -1.87744,-5.14941 C-2.57731,-5.59733 -3.29818,-5.94027 -4.04004,-6.17822 L-4.04004,-6.13623 L-4.04004,-4.96045 L-1.96143,-4.96045 C-2.03141,-4.90446 -2.06641,-4.86247 -2.06641,-4.83447 C-2.06641,-4.80648 -2.0944,-4.76449 -2.15039,-4.7085 L-4.04004,-4.7085 L-4.04004,-2.25195 L-2.44434,-2.25195 L-2.44434,-2.08398 L-4.04004,-2.08398 L-4.04004,0.414551 L-1.5415,0.414551 L-1.5415,-0.404297 C-1.48551,-0.404297 -1.40153,-0.348307 -1.28955,-0.236328 L-1.28955,0.414551 L-0.197754,0.414551 C-0.0857747,0.47054 0.012207,0.512533 0.0961914,0.540527 C0.180176,0.568522 0.292155,0.610514 0.432129,0.666504 L-1.28955,0.666504 L-1.28955,3.16504 L1.16699,3.16504 L1.16699,0.666504 L1.33496,0.666504 L1.33496,3.16504 L2.51074,3.16504 C2.51074,2.2972 2.36377,1.43636 2.06982,0.58252 L2.15381,0.58252 C2.58773,0.414551 2.97266,0.211589 3.30859,-0.0263672 C3.46257,0.379557 3.56055,0.760986 3.60254,1.11792 C3.64453,1.47485 3.69352,1.84229 3.74951,2.22021 C3.86149,3.07406 3.91748,3.80892 3.91748,4.4248 C3.91748,5.04069 3.91748,5.56559 3.91748,5.99951 C3.91748,6.43343 3.94548,6.78687 4.00146,7.05981 C4.05745,7.33276 4.19043,7.56722 4.40039,7.76318 L7.31885,10.6816 M-1.37354,5.78955 L1.16699,5.78955 L1.16699,3.29102 L-1.28955,3.29102 L-1.37354,5.78955 M-4.04004,3.16504 L-1.5415,3.16504 L-1.5415,0.666504 L-4.04004,0.58252 L-4.04004,3.16504 M-4.04004,5.78955 L-1.5415,5.78955 L-1.5415,3.29102 L-4.04004,3.29102 L-4.04004,5.78955 M-4.20801,-6.22021 C-5.03385,-6.44417 -5.8667,-6.48617 -6.70654,-6.34619 L-6.70654,-4.96045 L-4.20801,-4.96045 L-4.20801,-6.22021 M-9.33105,0.414551 L-6.83252,0.414551 L-6.83252,-2.08398 L-9.33105,-2.08398 L-9.33105,0.414551 M-6.83252,-2.25195 L-6.83252,-4.7085 L-9.33105,-4.7085 L-9.33105,-2.25195 L-6.83252,-2.25195 M-6.83252,-4.96045 L-6.83252,-6.3042 C-7.84033,-6.13623 -8.67318,-5.71631 -9.33105,-5.04443 L-9.33105,-4.96045 L-6.83252,-4.96045 M-4.20801,0.414551 L-4.20801,-2.08398 L-6.70654,-2.08398 L-6.70654,0.414551 L-4.20801,0.414551 M-6.70654,0.58252 L-6.70654,3.08105 L-4.20801,3.16504 L-4.20801,0.666504 L-6.70654,0.58252 M-4.20801,-2.25195 L-4.20801,-4.7085 L-6.70654,-4.7085 L-6.70654,-2.25195 L-4.20801,-2.25195 M-6.70654,3.29102 L-6.70654,5.26465 C-6.32861,5.48861 -6.01367,5.66357 -5.76172,5.78955 L-4.20801,5.78955 L-4.20801,3.29102 L-6.70654,3.29102 M-5.40479,5.95752 C-5.18083,6.0415 -4.97437,6.12549 -4.7854,6.20947 C-4.59644,6.29346 -4.40397,6.36344 -4.20801,6.41943 L-4.20801,5.95752 L-5.40479,5.95752 M-9.66699,-4.7085 C-10.2689,-4.02262 -10.6398,-3.20378 -10.7798,-2.25195 L-9.58301,-2.25195 L-9.58301,-4.7085 L-9.66699,-4.7085 M-10.8218,-2.08398 C-10.9058,-1.23014 -10.8218,-0.369303 -10.5698,0.498535 L-10.5698,0.414551 L-9.58301,0.414551 L-9.58301,-2.08398 L-10.8218,-2.08398 M-10.5278,0.58252 C-10.1499,1.7583 -9.50602,2.8291 -8.59619,3.79492 C-8.30225,4.06087 -8.0118,4.30933 -7.72485,4.54028 C-7.43791,4.77124 -7.14046,4.9847 -6.83252,5.18066 L-6.83252,5.13867 L-6.83252,3.29102 L-8.97412,3.29102 C-9.0861,3.23503 -9.14209,3.16504 -9.14209,3.08105 L-6.83252,3.08105 L-6.83252,0.58252 L-9.33105,0.58252 L-9.33105,2.80811 L-9.58301,2.55615 L-9.58301,0.58252 L-10.5278,0.58252 M-4.04004,6.46143 C-3.60612,6.6154 -3.1827,6.72738 -2.76978,6.79736 C-2.35685,6.86735 -1.94743,6.90234 -1.5415,6.90234 L-1.5415,5.95752 L-4.04004,5.95752 L-4.04004,6.46143 M1.50293,5.95752 C2.07682,5.32764 2.39176,4.4388 2.44775,3.29102 L1.33496,3.29102 L1.33496,5.78955 L1.60791,5.78955 C1.60791,5.84554 1.59041,5.87354 1.55542,5.87354 C1.52043,5.87354 1.47493,5.90153 1.41895,5.95752 L1.33496,5.95752 L1.33496,6.0415 L1.16699,6.20947 L1.16699,5.95752 L-1.37354,5.95752 L-1.37354,6.90234 C-0.799642,6.90234 -0.260742,6.82186 0.243164,6.66089 C0.74707,6.49992 1.16699,6.26546 1.50293,5.95752 M0.873047,-4.22559 C1.01302,-4.37956 1.17749,-4.57202 1.36646,-4.80298 C1.55542,-5.03394 1.57292,-5.33138 1.41895,-5.69531 C1.41895,-5.7513 1.40495,-5.79329 1.37695,-5.82129 C1.34896,-5.84928 1.33496,-5.89128 1.33496,-5.94727 C2.31478,-5.94727 3.06364,-5.53434 3.58154,-4.7085 L3.22461,-4.7085 C2.83268,-4.59652 2.59823,-4.41105 2.52124,-4.1521 C2.44425,-3.89315 2.37777,-3.6377 2.32178,-3.38574 L2.32178,-3.0708 C2.32178,-2.73486 2.28678,-2.43742 2.2168,-2.17847 C2.14681,-1.91951 1.90885,-1.72005 1.50293,-1.58008 C1.139,-1.4821 0.806559,-1.52759 0.505615,-1.71655 C0.204671,-1.90552 -0.00179036,-2.16097 -0.11377,-2.48291 L-0.197754,-2.56689 C-0.351725,-2.95882 -0.348226,-3.26326 -0.187256,-3.48022 C-0.0262858,-3.69718 0.208171,-3.88965 0.516113,-4.05762 C0.600098,-4.11361 0.666585,-4.1556 0.715576,-4.18359 C0.764567,-4.21159 0.817057,-4.22559 0.873047,-4.22559 M-1.79346,-2.16797 C-2.03141,-3.00781 -1.94043,-3.78467 -1.52051,-4.49854 C-1.10059,-5.2124 -0.477702,-5.66732 0.348145,-5.86328 C0.404134,-5.91927 0.523112,-5.94727 0.705078,-5.94727 C0.761068,-5.89128 0.80306,-5.82829 0.831055,-5.7583 C0.859049,-5.68831 0.901042,-5.62533 0.957031,-5.56934 C0.985026,-5.34538 0.96403,-5.18091 0.894043,-5.07593 C0.824056,-4.97095 0.698079,-4.84847 0.516113,-4.7085 C0.460124,-4.65251 0.418132,-4.62451 0.390137,-4.62451 C0.362142,-4.62451 0.32015,-4.59652 0.26416,-4.54053 C0.152181,-4.48454 0.0157064,-4.41105 -0.145264,-4.32007 C-0.306234,-4.22909 -0.442708,-4.10661 -0.554688,-3.95264 C-0.666667,-3.79867 -0.750651,-3.6202 -0.806641,-3.41724 C-0.86263,-3.21427 -0.86263,-2.98682 -0.806641,-2.73486 L-0.806641,-2.48291 L-0.806641,-2.37793 C-0.638672,-1.90202 -0.316732,-1.52759 0.15918,-1.25464 C0.635091,-0.981689 1.146,-0.929199 1.69189,-1.09717 C1.99984,-1.18115 2.24129,-1.30363 2.41626,-1.4646 C2.59123,-1.62557 2.7137,-1.79704 2.78369,-1.979 C2.85368,-2.16097 2.89567,-2.35343 2.90967,-2.5564 C2.92367,-2.75936 2.93066,-2.93083 2.93066,-3.0708 L2.93066,-3.32275 C2.93066,-3.81266 3.09163,-4.08561 3.41357,-4.1416 C3.58154,-4.23958 3.74951,-4.23958 3.91748,-4.1416 C3.97347,-4.08561 4.00146,-4.02962 4.00146,-3.97363 C4.00146,-3.91764 4.02946,-3.86165 4.08545,-3.80566 C4.29541,-2.97982 4.19743,-2.20646 3.7915,-1.4856 C3.38558,-0.76473 2.76969,-0.292318 1.94385,-0.0683594 C1.146,0.127604 0.386637,0.026123 -0.334229,-0.372803 C-1.05509,-0.771729 -1.5415,-1.37012 -1.79346,-2.16797 M11.3501,14.251 C11.2101,14.363 11.0911,14.4784 10.9932,14.5974 C10.8952,14.7164 10.7762,14.8459 10.6362,14.9858 C10.4823,15.1538 10.3283,15.2973 10.1743,15.4163 C10.0203,15.5352 9.84538,15.6647 9.64941,15.8047 L6.54199,12.7393 C6.94792,12.5153 7.27336,12.2668 7.51831,11.9939 C7.76326,11.7209 7.99772,11.4165 8.22168,11.0806 L11.3501,14.251"/>
</g>

<g fill="#6fa56c" fill-opacity="1" stroke="none" transform="matrix(1,0,0,1,0,0)"
font-family="MS Shell Dlg 2" font-size="7.8" font-weight="400" font-style="normal" 
>
</g>
</g>
</svg>
