<svg xmlns="http://www.w3.org/2000/svg" version="1.2" viewBox="0 0 42.52 42.52" height="56.693" width="56.693">
   <g stroke-linejoin="bevel" stroke-linecap="square" fill-rule="evenodd" stroke="none" fill="none" font-weight="400"
      font-size="7.8" font-family="'MS Shell Dlg 2'">
      <path
         d="M42.52 21.26C42.52 33 33 42.52 21.26 42.52 9.518 42.52 0 33 0 21.26 0 9.518 9.518 0 21.26 0 33 0 42.52 9.518 42.52 21.26"
         vector-effect="non-scaling-stroke" fill="#6fa56c" />
      <path
         d="M28.579 29.107c-.14.196-.312.388-.515.577a4.222 4.222 0 01-.64.494l-2.94-2.919a1.237 1.237 0 00-.703-.357 6.957 6.957 0 00-1.029-.063H21.23c-.602 0-1.337-.077-2.205-.23-1.287-.14-2.582-.519-3.884-1.134-1.302-.616-2.428-1.4-3.38-2.352-.826-.826-1.463-1.718-1.91-2.677-.449-.959-.708-1.918-.778-2.876a6.61 6.61 0 01.368-2.751 6.3 6.3 0 011.5-2.341 5.83 5.83 0 012.006-1.312 6.832 6.832 0 012.415-.473 7.57 7.57 0 012.55.41c.855.287 1.673.71 2.457 1.27-.434.294-.763.595-.987.903-.7-.448-1.42-.791-2.162-1.029v1.218h2.078c-.07.056-.105.098-.105.126 0 .028-.028.07-.084.126h-1.89v2.456h1.596v.168H17.22v2.499h2.498v-.82c.056 0 .14.057.252.169v.65h1.092c.112.057.21.099.294.127.084.028.196.07.336.126H19.97v2.498h2.457v-2.498h.168v2.498h1.176c0-.868-.147-1.728-.441-2.582h.084c.434-.168.818-.371 1.154-.61.154.407.252.788.294 1.145.042.357.091.725.147 1.102.112.854.168 1.59.168 2.205v1.575c0 .434.028.787.084 1.06a1.3 1.3 0 00.4.703l2.918 2.919m-8.693-4.892h2.54v-2.499H19.97l-.084 2.499M17.22 21.59h2.498v-2.498l-2.498-.084v2.582m0 2.625h2.498v-2.499H17.22v2.499m-.168-12.01a5.797 5.797 0 00-2.499-.126v1.386h2.499v-1.26m-5.123 6.635h2.498V16.34H11.93v2.499m2.498-2.667v-2.456H11.93v2.456h2.498m0-2.708V12.12c-1.007.168-1.84.588-2.498 1.26v.084h2.498m2.625 5.375V16.34h-2.499v2.499h2.499m-2.499.168v2.498l2.499.084v-2.498l-2.499-.084m2.499-2.835v-2.456h-2.499v2.456h2.499m-2.499 5.543v1.974c.378.224.693.399.945.525h1.554v-2.499h-2.499m1.302 2.667c.224.084.43.168.62.252.188.084.38.154.577.21v-.462h-1.197m-4.262-10.666c-.602.686-.973 1.504-1.113 2.456h1.197v-2.456h-.084m-1.155 2.624a6.8 6.8 0 00.252 2.583v-.084h.987V16.34h-1.239m.294 2.667c.378 1.176 1.022 2.246 1.932 3.212.294.266.584.515.871.746.287.23.584.444.892.64V21.716h-2.141c-.112-.056-.168-.126-.168-.21h2.31v-2.498h-2.5v2.225l-.251-.252v-1.973h-.945m6.488 5.879a7.34 7.34 0 002.499.44v-.944h-2.5v.504m5.544-.504c.574-.63.889-1.519.945-2.667h-1.113v2.499h.273c0 .056-.018.084-.053.084s-.08.028-.136.084h-.084v.084l-.168.168v-.252h-2.54v.945c.573 0 1.112-.08 1.616-.242a3.336 3.336 0 001.26-.703m-.63-10.183c.14-.154.304-.347.493-.578.19-.23.207-.528.053-.892 0-.056-.014-.098-.042-.126-.028-.028-.042-.07-.042-.126.98 0 1.728.413 2.246 1.239h-.357c-.391.112-.626.297-.703.556-.077.26-.143.515-.2.767v.314c0 .336-.034.634-.104.893-.07.259-.308.458-.714.598a1.208 1.208 0 01-.998-.136 1.447 1.447 0 01-.619-.767l-.084-.084c-.154-.392-.15-.696.01-.913.162-.217.396-.41.704-.577.084-.056.15-.098.2-.126a.312.312 0 01.157-.042m-2.667 2.057c-.238-.84-.147-1.616.273-2.33.42-.714 1.043-1.17 1.869-1.365.056-.056.175-.084.357-.084a.56.56 0 01.126.189.56.56 0 00.126.189c.028.224.007.388-.063.493a1.72 1.72 0 01-.378.368c-.056.056-.098.084-.126.084-.028 0-.07.028-.126.084-.112.056-.248.13-.41.22a1.282 1.282 0 00-.409.368 1.644 1.644 0 00-.252.535c-.056.203-.056.43 0 .682v.357c.168.476.49.85.966 1.124.476.273.987.325 1.533.157.308-.084.55-.206.724-.367a1.38 1.38 0 00.368-.515c.07-.182.112-.374.126-.577.014-.203.02-.375.02-.515v-.252c0-.49.161-.762.483-.818a.469.469 0 01.504 0c.056.056.084.112.084.168 0 .056.028.112.084.168.21.825.112 1.599-.294 2.32-.406.72-1.021 1.193-1.847 1.417a3.048 3.048 0 01-2.278-.305 3.014 3.014 0 01-1.46-1.795m13.144 16.42c-.14.111-.26.227-.357.346a5.51 5.51 0 01-.357.388 3.701 3.701 0 01-.462.43c-.154.12-.329.249-.525.389l-3.107-3.065c.406-.224.731-.473.976-.746s.48-.577.704-.913l3.128 3.17"
         fill-opacity=".949" fill="#fff" />
   </g>
</svg>