<svg xmlns="http://www.w3.org/2000/svg" version="1.2" viewBox="0 0 42.52 42.52" height="56.693" width="56.693">
   <g stroke-linejoin="bevel" stroke-linecap="square" fill-rule="evenodd" stroke="none" fill="none" font-weight="400"
      font-size="7.8" font-family="'MS Shell Dlg 2'">
      <path
         d="M42.52 21.26C42.52 33 33 42.52 21.26 42.52 9.518 42.52 0 33 0 21.26 0 9.518 9.518 0 21.26 0 33 0 42.52 9.518 42.52 21.26"
         vector-effect="non-scaling-stroke" fill="#6fa56c" />
      <path
         d="M15.165 15.564l7.054-7.054c.308-.266.595-.266.861 0l2.226 2.225-2.268 2.289 6.866 6.886 2.289-2.288 2.225 2.225c.266.266.266.553 0 .861l-7.055 7.055-2.561-2.582a5.017 5.017 0 00.83-3.297c-.106-1.204-.585-2.253-1.439-3.15-.896-.853-1.946-1.333-3.15-1.438a4.952 4.952 0 00-3.296.85l-2.582-2.582m7.684 4.514c.49.518.784 1.12.882 1.806a3.16 3.16 0 01-.315 1.932l-4.304-4.304a3.16 3.16 0 011.932-.315 3.24 3.24 0 011.805.881m7.055-2.792l-4.262-4.262.966-.987 4.283 4.304-.987.945m-3.863 11.82l-7.055 7.055c-.322.252-.623.252-.903 0L15.9 33.957l2.267-2.268-6.929-6.928-2.267 2.267-2.205-2.183c-.252-.28-.252-.581 0-.903l7.055-7.055 2.583 2.583a5.145 5.145 0 00-.84 3.317c.098 1.204.58 2.247 1.448 3.128.882.868 1.925 1.351 3.129 1.45a5.146 5.146 0 003.317-.84l2.583 2.582m-14.803-1.722l4.305 4.304-.987.945-4.262-4.262.944-.987m7.097-2.792a3.24 3.24 0 01-.882-1.806 3.073 3.073 0 01.336-1.932l4.283 4.284a3.073 3.073 0 01-1.931.335 3.24 3.24 0 01-1.806-.881"
         fill-opacity=".949" fill="#fff" />
   </g>
</svg>