<?xml version="1.0" encoding="UTF-8" standalone="no"?>
<svg width="11.25008mm" height="11.25008mm"
 viewBox="-5.3 -5.3 42.52000 42.52000"
 xmlns="http://www.w3.org/2000/svg" xmlns:xlink="http://www.w3.org/1999/xlink"  version="1.2" baseProfile="tiny">
<title>Qt SVG Document</title>
<desc>Generated with Qt</desc>
<defs>
</defs>
<g fill="none" stroke="black" stroke-width="1" fill-rule="evenodd" stroke-linecap="square" stroke-linejoin="bevel" >

<g fill="#6fa56c" fill-opacity="1" stroke="none" transform="matrix(1,0,0,1,0,0)"
font-family="MS Shell Dlg 2" font-size="7.8" font-weight="400" font-style="normal" 
>
<path vector-effect="non-scaling-stroke" fill-rule="evenodd" d="M37.2598,16 C37.2598,27.7415 27.7415,37.2598 16,37.2598 C4.25851,37.2598 -5.25984,27.7415 -5.25984,16 C-5.25984,4.25851 4.25851,-5.25984 16,-5.25984 C27.7415,-5.25984 37.2598,4.25851 37.2598,16 "/>
</g>

<g fill="#ffffff" fill-opacity="0.94902" stroke="none" transform="matrix(1,0,0,1,18.2677,12.5984)"
font-family="MS Shell Dlg 2" font-size="7.8" font-weight="400" font-style="normal" 
>
<path vector-effect="none" fill-rule="evenodd" d="M-8.36279,-2.29395 L-1.30811,-9.34863 C-1.00016,-9.61458 -0.713216,-9.61458 -0.447266,-9.34863 L1.77832,-7.12305 L-0.489258,-4.83447 L6.37646,2.05225 L8.66504,-0.236328 L10.8906,1.98926 C11.1566,2.25521 11.1566,2.54215 10.8906,2.8501 L3.83594,9.90479 L1.27441,7.32227 C1.93229,6.32845 2.20874,5.22965 2.10376,4.02588 C1.99878,2.8221 1.51937,1.7723 0.665527,0.876465 C-0.230306,0.0226237 -1.28011,-0.456787 -2.48389,-0.561768 C-3.68766,-0.666748 -4.78646,-0.383301 -5.78027,0.288574 L-8.36279,-2.29395 M-0.678223,2.22021 C-0.188314,2.73812 0.105632,3.34001 0.203613,4.02588 C0.301595,4.71175 0.196615,5.35563 -0.111328,5.95752 L-4.41553,1.65332 C-3.81364,1.34538 -3.16976,1.2404 -2.48389,1.33838 C-1.79801,1.43636 -1.19613,1.73031 -0.678223,2.22021 M6.37646,-0.572266 L2.11426,-4.83447 L3.08008,-5.82129 L7.36328,-1.51709 L6.37646,-0.572266 M2.51318,11.2485 L-4.5415,18.3032 C-4.86344,18.5552 -5.16439,18.5552 -5.44434,18.3032 L-7.62793,16.0986 L-5.36035,13.8311 L-12.2891,6.90234 L-14.5566,9.16992 L-16.7612,6.98633 C-17.0132,6.70638 -17.0132,6.40544 -16.7612,6.0835 L-9.70654,-0.971191 L-7.12402,1.61133 C-7.7819,2.61914 -8.06185,3.72493 -7.96387,4.92871 C-7.86589,6.13249 -7.38298,7.17529 -6.51514,8.05713 C-5.6333,8.92497 -4.59049,9.40788 -3.38672,9.50586 C-2.18294,9.60384 -1.07715,9.32389 -0.0693359,8.66602 L2.51318,11.2485 M-12.2891,9.52686 L-7.98486,13.8311 L-8.97168,14.7759 L-13.2339,10.5137 L-12.2891,9.52686 M-5.19238,6.73438 C-5.68229,6.21647 -5.97624,5.61458 -6.07422,4.92871 C-6.1722,4.24284 -6.06022,3.59896 -5.73828,2.99707 L-1.45508,7.28027 C-2.05697,7.60221 -2.70085,7.71419 -3.38672,7.61621 C-4.07259,7.51823 -4.67448,7.22428 -5.19238,6.73438 "/>
</g>

<g fill="#6fa56c" fill-opacity="1" stroke="none" transform="matrix(1,0,0,1,0,0)"
font-family="MS Shell Dlg 2" font-size="7.8" font-weight="400" font-style="normal" 
>
</g>
</g>
</svg>
