<?xml version="1.0" encoding="UTF-8" standalone="no"?>
<svg
   xmlns:dc="http://purl.org/dc/elements/1.1/"
   xmlns:cc="http://creativecommons.org/ns#"
   xmlns:rdf="http://www.w3.org/1999/02/22-rdf-syntax-ns#"
   xmlns:svg="http://www.w3.org/2000/svg"
   xmlns="http://www.w3.org/2000/svg"
   xmlns:sodipodi="http://sodipodi.sourceforge.net/DTD/sodipodi-0.dtd"
   xmlns:inkscape="http://www.inkscape.org/namespaces/inkscape"
   inkscape:version="1.0 (4035a4fb49, 2020-05-01)"
   sodipodi:docname="2605.svg"
   id="svg20"
   version="1.2"
   viewBox="0 0 42.519639 42.519639"
   height="14.999999mm"
   width="14.999999mm">
  <metadata
     id="metadata24">
    <rdf:RDF>
      <cc:Work
         rdf:about="">
        <dc:format>image/svg+xml</dc:format>
        <dc:type
           rdf:resource="http://purl.org/dc/dcmitype/StillImage" />
        <dc:title>Qt SVG Document</dc:title>
      </cc:Work>
    </rdf:RDF>
  </metadata>
  <sodipodi:namedview
     inkscape:current-layer="svg20"
     inkscape:window-maximized="0"
     inkscape:window-y="0"
     inkscape:window-x="0"
     inkscape:cy="28.346482"
     inkscape:cx="28.346482"
     inkscape:zoom="5.8410537"
     showgrid="false"
     id="namedview22"
     inkscape:window-height="480"
     inkscape:window-width="1034"
     inkscape:pageshadow="2"
     inkscape:pageopacity="0"
     guidetolerance="10"
     gridtolerance="10"
     objecttolerance="10"
     borderopacity="1"
     bordercolor="#666666"
     pagecolor="#ffffff" />
  <title
     id="title2">Qt SVG Document</title>
  <desc
     id="desc4">Generated with Qt</desc>
  <defs
     id="defs6" />
  <g
     transform="translate(5.25984,5.25984)"
     id="g18"
     stroke-linejoin="bevel"
     stroke-linecap="square"
     fill-rule="evenodd"
     stroke-width="1"
     stroke="#000000"
     fill="none">
    <g
       id="g10"
       font-style="normal"
       font-weight="400"
       font-size="7.8px"
       font-family="'MS Shell Dlg 2'"
       stroke="none"
       fill-opacity="1"
       fill="#6fa56c">
      <path
         id="path8"
         d="M 37.2598,16 C 37.2598,27.7415 27.7415,37.2598 16,37.2598 4.25851,37.2598 -5.25984,27.7415 -5.25984,16 -5.25984,4.25851 4.25851,-5.25984 16,-5.25984 27.7415,-5.25984 37.2598,4.25851 37.2598,16"
         fill-rule="evenodd"
         vector-effect="non-scaling-stroke" />
    </g>
    <g
       id="g14"
       font-style="normal"
       font-weight="400"
       font-size="7.8px"
       font-family="'MS Shell Dlg 2'"
       transform="translate(18.2677,12.5984)"
       stroke="none"
       fill-opacity="0.94902"
       fill="#ffffff">
      <path
         id="path12"
         d="m -8.36279,-2.29395 7.05468,-7.05468 c 0.30795,-0.26595 0.594894,-0.26595 0.860844,0 L 1.77832,-7.12305 -0.489258,-4.83447 6.37646,2.05225 8.66504,-0.236328 10.8906,1.98926 c 0.266,0.26595 0.266,0.55289 0,0.86084 L 3.83594,9.90479 1.27441,7.32227 C 1.93229,6.32845 2.20874,5.22965 2.10376,4.02588 1.99878,2.8221 1.51937,1.7723 0.665527,0.876465 -0.230306,0.0226237 -1.28011,-0.456787 -2.48389,-0.561768 -3.68766,-0.666748 -4.78646,-0.383301 -5.78027,0.288574 L -8.36279,-2.29395 m 7.684567,4.51416 c 0.489909,0.51791 0.783855,1.1198 0.881836,1.80567 0.097982,0.68587 -0.006998,1.32975 -0.314941,1.93164 L -4.41553,1.65332 c 0.60189,-0.30794 1.24577,-0.41292 1.93164,-0.31494 0.68588,0.09798 1.28776,0.39193 1.805667,0.88183 m 7.054683,-2.792476 -4.2622,-4.262204 0.96582,-0.98682 4.2832,4.3042 -0.98682,0.944824 M 2.51318,11.2485 -4.5415,18.3032 c -0.32194,0.252 -0.62289,0.252 -0.90284,0 l -2.18359,-2.2046 2.26758,-2.2675 -6.92875,-6.92876 -2.2675,2.26758 -2.2046,-2.18359 c -0.252,-0.27995 -0.252,-0.58089 0,-0.90283 l 7.05466,-7.054691 2.58252,2.582521 c -0.65788,1.00781 -0.93783,2.1136 -0.83985,3.31738 0.09798,1.20378 0.58089,2.24658 1.44873,3.12842 0.88184,0.86784 1.92465,1.35075 3.12842,1.44873 1.20378,0.09798 2.30957,-0.18197 3.3173841,-0.83984 L 2.51318,11.2485 m -14.80228,-1.72164 4.30424,4.30424 -0.98682,0.9448 -4.26222,-4.2622 0.9448,-0.98684 M -5.19238,6.73438 C -5.68229,6.21647 -5.97624,5.61458 -6.07422,4.92871 -6.1722,4.24284 -6.06022,3.59896 -5.73828,2.99707 l 4.2832,4.2832 C -2.05697,7.60221 -2.70085,7.71419 -3.38672,7.61621 -4.07259,7.51823 -4.67448,7.22428 -5.19238,6.73438"
         fill-rule="evenodd"
         vector-effect="none" />
    </g>
    <g
       id="g16"
       font-style="normal"
       font-weight="400"
       font-size="7.8px"
       font-family="'MS Shell Dlg 2'"
       stroke="none"
       fill-opacity="1"
       fill="#6fa56c" />
  </g>
</svg>
