<?xml version="1.0" encoding="UTF-8" standalone="no"?>
<svg width="11.25008mm" height="11.25008mm"
 viewBox="-5.3 -5.3 42.52000 42.52000"
 xmlns="http://www.w3.org/2000/svg" xmlns:xlink="http://www.w3.org/1999/xlink"  version="1.2" baseProfile="tiny">
<title>Qt SVG Document</title>
<desc>Generated with Qt</desc>
<defs>
</defs>
<g fill="none" stroke="black" stroke-width="1" fill-rule="evenodd" stroke-linecap="square" stroke-linejoin="bevel" >

<g fill="#6fa56c" fill-opacity="1" stroke="none" transform="matrix(1,0,0,1,0,0)"
font-family="MS Shell Dlg 2" font-size="7.8" font-weight="400" font-style="normal" 
>
<path vector-effect="non-scaling-stroke" fill-rule="evenodd" d="M37.2598,16 C37.2598,27.7415 27.7415,37.2598 16,37.2598 C4.25851,37.2598 -5.25984,27.7415 -5.25984,16 C-5.25984,4.25851 4.25851,-5.25984 16,-5.25984 C27.7415,-5.25984 37.2598,4.25851 37.2598,16 "/>
</g>

<g fill="#ffffff" fill-opacity="0.94902" stroke="none" transform="matrix(1,0,0,1,16,11.4646)"
font-family="MS Shell Dlg 2" font-size="7.8" font-weight="400" font-style="normal" 
>
<path vector-effect="none" fill-rule="evenodd" d="M12.3579,-5.7373 C12.7498,-5.34538 12.7498,-4.94645 12.3579,-4.54053 C11.63,-3.79867 11.0072,-3.15479 10.4893,-2.60889 C10.0133,-2.11898 9.58643,-1.67456 9.2085,-1.27563 C8.83057,-0.876709 8.61361,-0.65625 8.55762,-0.614258 C8.33366,-0.362305 8.16569,-0.159342 8.05371,-0.00537109 C7.94173,0.1486 7.86125,0.292074 7.81226,0.425049 C7.76326,0.558024 7.74577,0.694499 7.75977,0.834473 C7.77376,0.974447 7.78076,1.14941 7.78076,1.35938 L7.78076,15.0278 C7.78076,15.3498 7.68978,15.6017 7.50781,15.7837 C7.32585,15.9657 7.10189,16.0566 6.83594,16.0566 C6.52799,16.0566 6.27954,15.9657 6.09058,15.7837 C5.90161,15.6017 5.80713,15.3498 5.80713,15.0278 L5.80713,7.1123 L5.03027,7.1123 L5.03027,15.0278 C5.03027,15.3498 4.93929,15.6017 4.75732,15.7837 C4.57536,15.9657 4.3514,16.0566 4.08545,16.0566 C3.8335,16.0566 3.59904,15.9657 3.38208,15.7837 C3.16512,15.6017 3.05664,15.3498 3.05664,15.0278 L3.05664,1.35938 C3.05664,1.12142 3.06364,0.932454 3.07764,0.79248 C3.09163,0.652507 3.07764,0.509033 3.03564,0.362061 C2.99365,0.215088 2.89567,0.0506185 2.7417,-0.131348 C2.58773,-0.313314 2.34977,-0.565267 2.02783,-0.887207 L2.02783,-0.971191 C1.6499,-1.33512 1.26147,-1.72705 0.862549,-2.14697 C0.463623,-2.56689 0.0996908,-2.95532 -0.229248,-3.31226 C-0.558187,-3.66919 -0.838135,-3.96313 -1.06909,-4.19409 C-1.30005,-4.42505 -1.42952,-4.54053 -1.45752,-4.54053 C-1.59749,-4.7085 -1.66748,-4.90796 -1.66748,-5.13892 C-1.66748,-5.36987 -1.59749,-5.56934 -1.45752,-5.7373 C-1.0516,-6.05924 -0.666667,-6.03125 -0.302734,-5.65332 L0.957031,-4.41455 C1.29297,-4.03662 1.6709,-3.64119 2.09082,-3.22827 C2.51074,-2.81535 2.88867,-2.43392 3.22461,-2.08398 C3.68652,-1.62207 4.23242,-1.39111 4.8623,-1.39111 L6.08008,-1.39111 C6.73796,-1.39111 7.24886,-1.62207 7.61279,-2.08398 C7.99072,-2.43392 8.38615,-2.81535 8.79907,-3.22827 C9.212,-3.64119 9.58993,-4.02612 9.93286,-4.38306 C10.2758,-4.73999 10.5697,-5.04093 10.8147,-5.28589 C11.0597,-5.53084 11.1961,-5.65332 11.2241,-5.65332 C11.3781,-5.82129 11.5671,-5.91227 11.791,-5.92627 C12.015,-5.94027 12.2039,-5.87728 12.3579,-5.7373 M5.89111,-2 C5.4152,-1.83203 4.97428,-1.85303 4.56836,-2.06299 C4.16243,-2.27295 3.88949,-2.60889 3.74951,-3.0708 C3.60954,-3.56071 3.65153,-4.00513 3.87549,-4.40405 C4.09945,-4.80298 4.42839,-5.07943 4.8623,-5.2334 C5.35221,-5.37337 5.80363,-5.32788 6.21655,-5.09692 C6.62948,-4.86597 6.92692,-4.53353 7.10889,-4.09961 C7.24886,-3.6237 7.20337,-3.18978 6.97241,-2.79785 C6.74146,-2.40592 6.38102,-2.13997 5.89111,-2 M-1.96143,4.69775 C-1.65348,5.07568 -1.29305,5.47461 -0.880127,5.89453 C-0.467204,6.31445 -0.0857747,6.70638 0.26416,7.07031 C0.670085,7.50423 1.08301,7.92415 1.50293,8.33008 C1.90885,8.72201 1.90885,9.12093 1.50293,9.52686 C1.33496,9.69482 1.139,9.77881 0.915039,9.77881 C0.677083,9.77881 0.474121,9.69482 0.306152,9.52686 C0.306152,9.49886 0.197673,9.36938 -0.0192871,9.13843 C-0.236247,8.90747 -0.509196,8.62052 -0.838135,8.27759 C-1.16707,7.93465 -1.52401,7.56372 -1.90894,7.16479 C-2.29386,6.76587 -2.6613,6.37744 -3.01123,5.99951 L-3.01123,10.5557 L0.222168,10.5557 C0.390137,10.5557 0.561605,10.6117 0.736572,10.7236 C0.91154,10.8356 1.02702,10.9826 1.08301,11.1646 C1.27897,11.6545 1.19499,12.0254 0.831055,12.2773 L-3.34717,15.8047 C-3.57113,15.9727 -3.81258,16.0426 -4.07153,16.0146 C-4.33049,15.9867 -4.55094,15.8887 -4.73291,15.7207 C-4.90088,15.4827 -4.98486,15.2378 -4.98486,14.9858 C-4.98486,14.7339 -4.86589,14.5169 -4.62793,14.335 L-2.48633,12.4453 L-8.34424,12.4453 L-6.09766,14.335 C-5.92969,14.5169 -5.83171,14.7339 -5.80371,14.9858 C-5.77572,15.2378 -5.8457,15.4827 -6.01367,15.7207 C-6.09766,15.8047 -6.20614,15.8817 -6.33911,15.9517 C-6.47209,16.0216 -6.62256,16.0566 -6.79053,16.0566 C-7.01449,16.0566 -7.21745,15.9727 -7.39941,15.8047 L-11.6826,12.2773 C-12.0046,12.0254 -12.1235,11.6545 -12.0396,11.1646 C-11.8296,10.7586 -11.5146,10.5557 -11.0947,10.5557 L-7.73535,10.5557 L-7.73535,5.99951 C-8.07129,6.37744 -8.43522,6.76587 -8.82715,7.16479 C-9.21908,7.56372 -9.58651,7.93465 -9.92944,8.27759 C-10.2724,8.62052 -10.5523,8.90747 -10.7693,9.13843 C-10.9862,9.36938 -11.0947,9.49886 -11.0947,9.52686 C-11.2627,9.69482 -11.4587,9.77881 -11.6826,9.77881 C-11.9206,9.77881 -12.1235,9.69482 -12.2915,9.52686 C-12.4595,9.35889 -12.5435,9.15942 -12.5435,8.92847 C-12.5435,8.69751 -12.4595,8.49805 -12.2915,8.33008 L-11.0527,7.07031 C-10.7028,6.70638 -10.3214,6.31445 -9.90845,5.89453 C-9.49552,5.47461 -9.1141,5.07568 -8.76416,4.69775 C-8.51221,4.36182 -8.19727,4.09937 -7.81934,3.9104 C-7.44141,3.72144 -7.04248,3.58496 -6.62256,3.50098 L-6.34961,3.50098 L-4.37598,3.50098 L-4.12402,3.50098 C-3.6901,3.58496 -3.28768,3.72144 -2.91675,3.9104 C-2.54582,4.09937 -2.22738,4.36182 -1.96143,4.69775 M-4.90088,3.08105 C-5.39079,3.22103 -5.83521,3.17554 -6.23413,2.94458 C-6.63306,2.71362 -6.90251,2.38118 -7.04248,1.94727 C-7.21045,1.47135 -7.18945,1.02344 -6.97949,0.603516 C-6.76953,0.183594 -6.4196,-0.110352 -5.92969,-0.27832 C-5.43978,-0.418294 -4.99536,-0.376302 -4.59644,-0.152344 C-4.19751,0.0716146 -3.92106,0.428548 -3.76709,0.918457 C-3.62712,1.40837 -3.67261,1.85278 -3.90356,2.25171 C-4.13452,2.65063 -4.46696,2.92708 -4.90088,3.08105 "/>
</g>

<g fill="#6fa56c" fill-opacity="1" stroke="none" transform="matrix(1,0,0,1,0,0)"
font-family="MS Shell Dlg 2" font-size="7.8" font-weight="400" font-style="normal" 
>
</g>
</g>
</svg>
