<svg xmlns="http://www.w3.org/2000/svg" version="1.2" viewBox="0 0 42.52 42.52" height="56.693" width="56.693">
   <g stroke-linejoin="bevel" stroke-linecap="square" fill-rule="evenodd" stroke="none" fill="none" font-weight="400"
      font-size="7.8" font-family="'MS Shell Dlg 2'">
      <path
         d="M42.52 21.26C42.52 33 33 42.52 21.26 42.52 9.518 42.52 0 33 0 21.26 0 9.518 9.518 0 21.26 0 33 0 42.52 9.518 42.52 21.26"
         vector-effect="non-scaling-stroke" fill="#6fa56c" />
      <path
         d="M33.618 10.987c.392.392.392.791 0 1.197-.728.742-1.351 1.386-1.869 1.932-.476.49-.903.934-1.28 1.333-.379.399-.596.62-.652.661a8.584 8.584 0 00-.503.61 1.816 1.816 0 00-.242.43.908.908 0 00-.052.409c.014.14.02.315.02.525v13.668c0 .322-.09.574-.272.756a.913.913 0 01-.672.273c-.308 0-.557-.09-.746-.273-.189-.182-.283-.434-.283-.756v-7.915h-.777v7.915c0 .322-.09.574-.273.756a.913.913 0 01-.672.273c-.252 0-.486-.09-.703-.273-.217-.182-.326-.434-.326-.756V18.084c0-.238.007-.427.021-.567.014-.14 0-.284-.042-.43-.042-.147-.14-.312-.293-.494a13.52 13.52 0 00-.714-.756v-.084a37.259 37.259 0 01-1.166-1.176c-.399-.42-.762-.808-1.091-1.165-.33-.357-.61-.65-.84-.882-.231-.23-.36-.346-.389-.346a.905.905 0 01-.21-.598c0-.231.07-.43.21-.599.406-.322.791-.294 1.155.084l1.26 1.239c.336.378.714.773 1.134 1.186.42.413.798.795 1.133 1.144.462.462 1.008.693 1.638.693h1.218c.658 0 1.169-.23 1.533-.693.378-.35.773-.73 1.186-1.144.413-.413.79-.798 1.134-1.155.343-.357.637-.657.882-.902s.38-.368.409-.368a.812.812 0 01.567-.273.739.739 0 01.567.19m-6.467 3.736c-.476.168-.917.147-1.323-.063-.406-.21-.679-.545-.819-1.007-.14-.49-.098-.935.126-1.334s.553-.675.987-.829c.49-.14.941-.094 1.354.137a2 2 0 01.893.997c.14.476.094.91-.137 1.302-.23.392-.591.657-1.081.797m-7.853 6.698c.308.378.669.777 1.082 1.197.413.42.794.812 1.144 1.176.406.434.819.854 1.239 1.26.406.391.406.79 0 1.196a.806.806 0 01-.588.252.83.83 0 01-.609-.252c0-.028-.108-.157-.325-.388-.217-.231-.49-.518-.82-.861a520.14 520.14 0 00-1.07-1.113 77.98 77.98 0 01-1.102-1.165v4.556h3.233c.168 0 .34.056.514.168.175.112.29.259.347.441.196.49.112.86-.252 1.113l-4.178 3.527a.994.994 0 01-.725.21 1.126 1.126 0 01-.661-.294 1.26 1.26 0 01-.252-.735c0-.252.119-.469.357-.65l2.142-1.89h-5.858l2.246 1.89c.168.181.266.398.294.65.028.252-.042.497-.21.735a1.338 1.338 0 01-.325.231.955.955 0 01-.452.105.876.876 0 01-.609-.252l-4.283-3.527c-.322-.252-.44-.623-.357-1.113.21-.406.525-.609.945-.609h3.36v-4.556c-.336.378-.7.766-1.092 1.165-.392.4-.76.77-1.103 1.113-.343.343-.622.63-.84.86-.216.232-.325.361-.325.39a.806.806 0 01-.588.251.83.83 0 01-.609-.252.817.817 0 01-.252-.598c0-.231.084-.43.252-.598l1.24-1.26c.349-.364.73-.756 1.143-1.176.413-.42.795-.819 1.145-1.197.252-.336.567-.598.944-.787a4.744 4.744 0 011.197-.41H17.136c.434.084.836.22 1.207.41.371.189.69.451.955.787m-2.939-1.617c-.49.14-.934.095-1.333-.136a1.732 1.732 0 01-.809-.997c-.168-.476-.147-.924.063-1.344.21-.42.56-.714 1.05-.882.49-.14.934-.098 1.333.126.4.224.676.581.83 1.07.14.49.094.935-.137 1.334a1.823 1.823 0 01-.997.83"
         fill-opacity=".949" fill="#fff" />
   </g>
</svg>