<svg xmlns="http://www.w3.org/2000/svg" version="1.2" viewBox="0 0 42.52 42.52" height="56.693" width="56.693">
   <g stroke-linejoin="bevel" stroke-linecap="square" fill-rule="evenodd" stroke="none" fill="none" font-weight="400"
      font-size="7.8" font-family="'MS Shell Dlg 2'">
      <path
         d="M42.52 21.26C42.52 33 33 42.52 21.26 42.52 9.518 42.52 0 33 0 21.26 0 9.518 9.518 0 21.26 0 33 0 42.52 9.518 42.52 21.26"
         vector-effect="non-scaling-stroke" fill="#6fa56c" />
      <path
         d="M18.732 13.024c-.518 0-.949-.179-1.292-.536a1.771 1.771 0 01-.514-1.27c0-.518.171-.941.514-1.27.343-.33.774-.494 1.292-.494.49 0 .913.165 1.27.494.357.329.535.752.535 1.27 0 .49-.178.913-.535 1.27-.357.357-.78.536-1.27.536m14.928 2.918c.308.196.497.462.567.798.07.336.035.644-.105.924-.14.224-.333.388-.578.493-.245.105-.48.13-.703.074h-.315c-.196.714-.574 1.284-1.134 1.711-.56.427-1.21.64-1.952.64h-.43a1.15 1.15 0 01-.431-.084l-2.667 5.46v7.579c0 .336-.115.612-.346.83-.231.216-.487.325-.767.325-.35 0-.647-.109-.892-.326a1.059 1.059 0 01-.367-.83V25.79h-5.921l-1.03 1.89 2.227 5.291c.14.294.174.591.104.892-.07.301-.265.536-.587.704-.28.14-.578.175-.893.105-.315-.07-.542-.266-.682-.588l-2.54-6.09v-1.91l-1.26 1.764v5.69c0 .336-.105.612-.315.83-.21.216-.476.325-.798.325-.336 0-.627-.109-.872-.326a1.06 1.06 0 01-.367-.83v-6.508l1.029-1.533v-5.207l-.945 1.554v4.241H8.8v-4.367c0-.728.252-1.333.756-1.816a2.544 2.544 0 011.827-.724h5.543v-3.969c0-.49.164-.913.493-1.27a1.602 1.602 0 011.229-.535c.517 0 .948.178 1.29.535.344.357.515.78.515 1.27v.567l2.625.777c.546.112.777.427.693.945-.154.518-.504.735-1.05.65l-2.268-.482v1.512h2.625l7.18-7.496-.168 1.89 3.57 2.372m-4.22 4.01c.601 0 1.123-.174 1.564-.524.44-.35.738-.777.892-1.281l-1.91-.4-1.03 2.205h.484"
         fill-opacity=".949" fill="#fff" />
   </g>
</svg>