<?xml version="1.0" encoding="UTF-8" standalone="no"?>
<svg
   xmlns:dc="http://purl.org/dc/elements/1.1/"
   xmlns:cc="http://creativecommons.org/ns#"
   xmlns:rdf="http://www.w3.org/1999/02/22-rdf-syntax-ns#"
   xmlns:svg="http://www.w3.org/2000/svg"
   xmlns="http://www.w3.org/2000/svg"
   xmlns:sodipodi="http://sodipodi.sourceforge.net/DTD/sodipodi-0.dtd"
   xmlns:inkscape="http://www.inkscape.org/namespaces/inkscape"
   inkscape:version="1.0 (4035a4fb49, 2020-05-01)"
   sodipodi:docname="2607.svg"
   id="svg20"
   version="1.2"
   viewBox="0 0 42.519639 42.519639"
   height="14.999999mm"
   width="14.999999mm">
  <metadata
     id="metadata24">
    <rdf:RDF>
      <cc:Work
         rdf:about="">
        <dc:format>image/svg+xml</dc:format>
        <dc:type
           rdf:resource="http://purl.org/dc/dcmitype/StillImage" />
        <dc:title>Qt SVG Document</dc:title>
      </cc:Work>
    </rdf:RDF>
  </metadata>
  <sodipodi:namedview
     inkscape:current-layer="svg20"
     inkscape:window-maximized="0"
     inkscape:window-y="0"
     inkscape:window-x="0"
     inkscape:cy="28.346482"
     inkscape:cx="28.346482"
     inkscape:zoom="5.8410537"
     showgrid="false"
     id="namedview22"
     inkscape:window-height="480"
     inkscape:window-width="1034"
     inkscape:pageshadow="2"
     inkscape:pageopacity="0"
     guidetolerance="10"
     gridtolerance="10"
     objecttolerance="10"
     borderopacity="1"
     bordercolor="#666666"
     pagecolor="#ffffff" />
  <title
     id="title2">Qt SVG Document</title>
  <desc
     id="desc4">Generated with Qt</desc>
  <defs
     id="defs6" />
  <g
     transform="translate(5.25984,5.25984)"
     id="g18"
     stroke-linejoin="bevel"
     stroke-linecap="square"
     fill-rule="evenodd"
     stroke-width="1"
     stroke="#000000"
     fill="none">
    <g
       id="g10"
       font-style="normal"
       font-weight="400"
       font-size="7.8px"
       font-family="'MS Shell Dlg 2'"
       stroke="none"
       fill-opacity="1"
       fill="#6fa56c">
      <path
         id="path8"
         d="M 37.2598,16 C 37.2598,27.7415 27.7415,37.2598 16,37.2598 4.25851,37.2598 -5.25984,27.7415 -5.25984,16 -5.25984,4.25851 4.25851,-5.25984 16,-5.25984 27.7415,-5.25984 37.2598,4.25851 37.2598,16"
         fill-rule="evenodd"
         vector-effect="non-scaling-stroke" />
    </g>
    <g
       id="g14"
       font-style="normal"
       font-weight="400"
       font-size="7.8px"
       font-family="'MS Shell Dlg 2'"
       transform="translate(16,12.5984)"
       stroke="none"
       fill-opacity="0.94902"
       fill="#ffffff">
      <path
         id="path12"
         d="m -2.52832,-4.83447 c -0.5179,0 -0.94832,-0.17847 -1.29126,-0.5354 -0.34294,-0.35694 -0.5144,-0.78036 -0.5144,-1.27027 0,-0.5179 0.17146,-0.94132 0.5144,-1.27026 0.34294,-0.32894 0.77336,-0.49341 1.29126,-0.49341 0.48991,0 0.91333,0.16447 1.27026,0.49341 0.356937,0.32894 0.535404,0.75236 0.535404,1.27026 0,0.48991 -0.178467,0.91333 -0.535404,1.27027 -0.35693,0.35693 -0.78035,0.5354 -1.27026,0.5354 m 14.92822,2.91845 c 0.3079,0.19597 0.4969,0.46192 0.5669,0.79786 0.07,0.335933 0.035,0.643876 -0.105,0.923824 -0.14,0.2239584 -0.3324,0.388428 -0.5774,0.493408 -0.2449,0.104981 -0.4794,0.129476 -0.7033,0.073487 h -0.315 C 11.0701,1.08643 10.6922,1.65682 10.1323,2.08374 9.57243,2.51066 8.92155,2.72412 8.17969,2.72412 c -0.13998,0 -0.28345,0 -0.43042,0 -0.14698,0 -0.29045,-0.02799 -0.43042,-0.08398 L 4.65234,8.09912 v 7.57958 c 0,0.3359 -0.11547,0.6124 -0.34643,0.8294 C 4.07495,16.725 3.8195,16.8335 3.53955,16.8335 3.18962,16.8335 2.89217,16.725 2.64722,16.5081 2.40226,16.2911 2.27979,16.0146 2.27979,15.6787 V 7.93115 h -5.9209 l -1.02881,1.88965 2.22558,5.291 c 0.13998,0.294 0.17497,0.5914 0.10498,0.8924 -0.06998,0.3009 -0.26595,0.5354 -0.58789,0.7033 -0.27994,0.14 -0.57739,0.175 -0.89233,0.105 -0.31494,-0.07 -0.5424,-0.266 -0.68237,-0.5879 L -7.04248,10.1357 V 8.2251 l -1.25977,1.76367 v 5.68993 c 0,0.3359 -0.10498,0.6124 -0.31494,0.8294 -0.20996,0.2169 -0.47591,0.3254 -0.79785,0.3254 -0.33594,0 -0.62636,-0.1085 -0.87136,-0.3254 -0.2449,-0.217 -0.3674,-0.4935 -0.3674,-0.8294 V 9.16992 L -9.625,7.63721 V 2.43018 l -0.9448,1.55371 V 8.2251 h -1.8897 V 3.85791 c 0,-0.72786 0.252,-1.33325 0.7559,-1.81616 0.5039,-0.48291 1.1128,-0.72437 1.82665,-0.72437 h 5.54297 v -3.96826 c 0,-0.48991 0.16447,-0.91333 0.4934,-1.27026 0.32894,-0.35694 0.73837,-0.5354 1.22828,-0.5354 0.5179,0 0.94832,0.17846 1.29126,0.5354 0.342931,0.35693 0.514399,0.78035 0.514399,1.27026 v 0.5669 l 2.624511,0.77685 c 0.5459,0.11198 0.77686,0.426922 0.69287,0.944825 -0.15397,0.517904 -0.5039,0.734864 -1.0498,0.650879 l -2.267581,-0.48291 V 1.31738 H 1.81787 l 7.18067,-7.4956 -0.16797,1.88965 3.56933,2.37255 M 8.17969,2.09424 c 0.60189,0 1.12329,-0.17497 1.56421,-0.5249 0.4409,-0.34994 0.7384,-0.77686 0.8923,-1.280766 L 8.72559,-0.110352 7.69678,2.09424 h 0.48291"
         fill-rule="evenodd"
         vector-effect="none" />
    </g>
    <g
       id="g16"
       font-style="normal"
       font-weight="400"
       font-size="7.8px"
       font-family="'MS Shell Dlg 2'"
       stroke="none"
       fill-opacity="1"
       fill="#6fa56c" />
  </g>
</svg>
