<?xml version="1.0" encoding="UTF-8" standalone="no"?>
<svg width="11.2889mm" height="11.2889mm"
 viewBox="0 0 32 32"
 xmlns="http://www.w3.org/2000/svg" xmlns:xlink="http://www.w3.org/1999/xlink"  version="1.2" baseProfile="tiny">
<title>Qt SVG Document</title>
<desc>Generated with Qt</desc>
<defs>
</defs>
<g fill="none" stroke="black" stroke-width="1" fill-rule="evenodd" stroke-linecap="square" stroke-linejoin="bevel" >

<g fill="#6fa56c" fill-opacity="1" stroke="none" transform="matrix(1,0,0,1,0,0)"
font-family="MS Shell Dlg 2" font-size="7.8" font-weight="400" font-style="normal" 
>
<path vector-effect="non-scaling-stroke" fill-rule="evenodd" d="M37.2598,16 C37.2598,27.7415 27.7415,37.2598 16,37.2598 C4.25851,37.2598 -5.25984,27.7415 -5.25984,16 C-5.25984,4.25851 4.25851,-5.25984 16,-5.25984 C27.7415,-5.25984 37.2598,4.25851 37.2598,16 "/>
</g>

<g fill="#ffffff" fill-opacity="0.94902" stroke="none" transform="matrix(1,0,0,1,16,12.5984)"
font-family="MS Shell Dlg 2" font-size="7.8" font-weight="400" font-style="normal" 
>
<path vector-effect="none" fill-rule="evenodd" d="M-2.52832,-4.83447 C-3.04622,-4.83447 -3.47664,-5.01294 -3.81958,-5.36987 C-4.16252,-5.72681 -4.33398,-6.15023 -4.33398,-6.64014 C-4.33398,-7.15804 -4.16252,-7.58146 -3.81958,-7.9104 C-3.47664,-8.23934 -3.04622,-8.40381 -2.52832,-8.40381 C-2.03841,-8.40381 -1.61499,-8.23934 -1.25806,-7.9104 C-0.901123,-7.58146 -0.722656,-7.15804 -0.722656,-6.64014 C-0.722656,-6.15023 -0.901123,-5.72681 -1.25806,-5.36987 C-1.61499,-5.01294 -2.03841,-4.83447 -2.52832,-4.83447 M12.3999,-1.91602 C12.7078,-1.72005 12.8968,-1.4541 12.9668,-1.11816 C13.0368,-0.782227 13.0018,-0.474284 12.8618,-0.194336 C12.7218,0.0296224 12.5294,0.194092 12.2844,0.299072 C12.0395,0.404053 11.805,0.428548 11.5811,0.372559 L11.2661,0.372559 C11.0701,1.08643 10.6922,1.65682 10.1323,2.08374 C9.57243,2.51066 8.92155,2.72412 8.17969,2.72412 C8.03971,2.72412 7.89624,2.72412 7.74927,2.72412 C7.60229,2.72412 7.45882,2.69613 7.31885,2.64014 L4.65234,8.09912 L4.65234,15.6787 C4.65234,16.0146 4.53687,16.2911 4.30591,16.5081 C4.07495,16.725 3.8195,16.8335 3.53955,16.8335 C3.18962,16.8335 2.89217,16.725 2.64722,16.5081 C2.40226,16.2911 2.27979,16.0146 2.27979,15.6787 L2.27979,7.93115 L-3.64111,7.93115 L-4.66992,9.8208 L-2.44434,15.1118 C-2.30436,15.4058 -2.26937,15.7032 -2.33936,16.0042 C-2.40934,16.3051 -2.60531,16.5396 -2.92725,16.7075 C-3.20719,16.8475 -3.50464,16.8825 -3.81958,16.8125 C-4.13452,16.7425 -4.36198,16.5465 -4.50195,16.2246 L-7.04248,10.1357 L-7.04248,8.2251 L-8.30225,9.98877 L-8.30225,15.6787 C-8.30225,16.0146 -8.40723,16.2911 -8.61719,16.5081 C-8.82715,16.725 -9.0931,16.8335 -9.41504,16.8335 C-9.75098,16.8335 -10.0414,16.725 -10.2864,16.5081 C-10.5313,16.2911 -10.6538,16.0146 -10.6538,15.6787 L-10.6538,9.16992 L-9.625,7.63721 L-9.625,2.43018 L-10.5698,3.98389 L-10.5698,8.2251 L-12.4595,8.2251 L-12.4595,3.85791 C-12.4595,3.13005 -12.2075,2.52466 -11.7036,2.04175 C-11.1997,1.55884 -10.5908,1.31738 -9.87695,1.31738 L-4.33398,1.31738 L-4.33398,-2.65088 C-4.33398,-3.14079 -4.16951,-3.56421 -3.84058,-3.92114 C-3.51164,-4.27808 -3.10221,-4.45654 -2.6123,-4.45654 C-2.0944,-4.45654 -1.66398,-4.27808 -1.32104,-3.92114 C-0.978109,-3.56421 -0.806641,-3.14079 -0.806641,-2.65088 L-0.806641,-2.08398 L1.81787,-1.30713 C2.36377,-1.19515 2.59473,-0.880208 2.51074,-0.362305 C2.35677,0.155599 2.00684,0.372559 1.46094,0.288574 L-0.806641,-0.194336 L-0.806641,1.31738 L1.81787,1.31738 L8.99854,-6.17822 L8.83057,-4.28857 L12.3999,-1.91602 M8.17969,2.09424 C8.78158,2.09424 9.30298,1.91927 9.7439,1.56934 C10.1848,1.2194 10.4823,0.79248 10.6362,0.288574 L8.72559,-0.110352 L7.69678,2.09424 L8.17969,2.09424"/>
</g>

<g fill="#6fa56c" fill-opacity="1" stroke="none" transform="matrix(1,0,0,1,0,0)"
font-family="MS Shell Dlg 2" font-size="7.8" font-weight="400" font-style="normal" 
>
</g>
</g>
</svg>
