<?xml version="1.0" encoding="UTF-8" standalone="no"?>
<svg
   xmlns:dc="http://purl.org/dc/elements/1.1/"
   xmlns:cc="http://creativecommons.org/ns#"
   xmlns:rdf="http://www.w3.org/1999/02/22-rdf-syntax-ns#"
   xmlns:svg="http://www.w3.org/2000/svg"
   xmlns="http://www.w3.org/2000/svg"
   xmlns:sodipodi="http://sodipodi.sourceforge.net/DTD/sodipodi-0.dtd"
   xmlns:inkscape="http://www.inkscape.org/namespaces/inkscape"
   inkscape:version="1.0 (4035a4fb49, 2020-05-01)"
   sodipodi:docname="2608.svg"
   id="svg20"
   version="1.2"
   viewBox="0 0 42.519639 42.519639"
   height="14.999999mm"
   width="14.999999mm">
  <metadata
     id="metadata24">
    <rdf:RDF>
      <cc:Work
         rdf:about="">
        <dc:format>image/svg+xml</dc:format>
        <dc:type
           rdf:resource="http://purl.org/dc/dcmitype/StillImage" />
        <dc:title>Qt SVG Document</dc:title>
      </cc:Work>
    </rdf:RDF>
  </metadata>
  <sodipodi:namedview
     inkscape:current-layer="svg20"
     inkscape:window-maximized="0"
     inkscape:window-y="0"
     inkscape:window-x="0"
     inkscape:cy="28.346482"
     inkscape:cx="28.346482"
     inkscape:zoom="5.8410537"
     showgrid="false"
     id="namedview22"
     inkscape:window-height="480"
     inkscape:window-width="1034"
     inkscape:pageshadow="2"
     inkscape:pageopacity="0"
     guidetolerance="10"
     gridtolerance="10"
     objecttolerance="10"
     borderopacity="1"
     bordercolor="#666666"
     pagecolor="#ffffff" />
  <title
     id="title2">Qt SVG Document</title>
  <desc
     id="desc4">Generated with Qt</desc>
  <defs
     id="defs6" />
  <g
     transform="translate(5.25984,5.25984)"
     id="g18"
     stroke-linejoin="bevel"
     stroke-linecap="square"
     fill-rule="evenodd"
     stroke-width="1"
     stroke="#000000"
     fill="none">
    <g
       id="g10"
       font-style="normal"
       font-weight="400"
       font-size="7.8px"
       font-family="'MS Shell Dlg 2'"
       stroke="none"
       fill-opacity="1"
       fill="#6fa56c">
      <path
         id="path8"
         d="M 37.2598,16 C 37.2598,27.7415 27.7415,37.2598 16,37.2598 4.25851,37.2598 -5.25984,27.7415 -5.25984,16 -5.25984,4.25851 4.25851,-5.25984 16,-5.25984 27.7415,-5.25984 37.2598,4.25851 37.2598,16"
         fill-rule="evenodd"
         vector-effect="non-scaling-stroke" />
    </g>
    <g
       id="g14"
       font-style="normal"
       font-weight="400"
       font-size="7.8px"
       font-family="'MS Shell Dlg 2'"
       transform="translate(16,12.0315)"
       stroke="none"
       fill-opacity="0.94902"
       fill="#ffffff">
      <path
         id="path12"
         d="M 4.82031,-4.05762 C 4.19043,-4.11361 3.66903,-4.35156 3.2561,-4.77148 2.84318,-5.19141 2.63672,-5.71631 2.63672,-6.34619 c 0,-0.60189 0.22046,-1.13029 0.66138,-1.58521 0.44091,-0.45491 0.97631,-0.65437 1.6062,-0.59839 0.62988,0 1.15478,0.22746 1.5747,0.68238 0.41993,0.45491 0.62989,0.98331 0.62989,1.5852 0,0.62989 -0.22396,1.15479 -0.67188,1.57471 -0.44791,0.41992 -0.98681,0.62988 -1.6167,0.62988 M -8.47021,0.225586 C -8.75016,0.295573 -9.01261,0.243083 -9.25757,0.0681152 -9.50252,-0.106852 -9.65299,-0.33431 -9.70898,-0.614258 c -0.05599,-0.349935 0,-0.647382 0.16796,-0.892332 0.16797,-0.24496 0.39893,-0.39543 0.69288,-0.45142 L 1.98584,-4.22559 c 0.08398,-0.06998 0.16797,-0.10498 0.25195,-0.10498 0.08399,0 0.15397,0 0.20996,0 0.43392,0.06999 0.82235,0.22396 1.16529,0.46192 0.34293,0.23795 0.59139,0.55989 0.74536,0.96582 0,0.08398 0.014,0.13997 0.04199,0.16797 0,0.02799 0.014,0.05599 0.04199,0.08398 0.05599,0.15397 0.07699,0.38843 0.06299,0.70337 -0.014,0.31494 -0.16797,0.68237 -0.46191,1.102295 C 3.98747,-0.733236 3.795,-0.411296 3.46606,0.120605 3.13713,0.652507 2.76969,1.2334 2.36377,1.86328 1.91585,2.61914 1.40495,3.42399 0.831055,4.27783 1.27897,4.79574 1.71989,5.27165 2.15381,5.70557 c 0.37793,0.39192 0.73836,0.76635 1.0813,1.12329 0.34293,0.35693 0.61238,0.62638 0.80835,0.80835 0.20996,0.22396 0.34293,0.43742 0.39892,0.64038 0.05599,0.20296 0.09798,0.37443 0.12598,0.5144 0,0.16797 -0.014,0.34294 -0.04199,0.5249 L 3.58154,12.8442 5.68115,14.083 c 0.08399,0.056 0.17147,0.119 0.26245,0.189 0.09099,0.07 0.13648,0.1609 0.13648,0.2729 -0.06999,0.154 -0.15397,0.287 -0.25195,0.3989 -0.09799,0.112 -0.24496,0.168 -0.44092,0.168 L 0.432129,15.0278 1.85986,9.90479 -2.86426,5.60059 C -3.1582,5.37663 -3.40666,5.11418 -3.60962,4.81323 -3.81258,4.51229 -3.88607,4.14486 -3.83008,3.71094 c 0,-0.13998 0.0175,-0.29395 0.05249,-0.46192 0.035,-0.16797 0.08049,-0.32894 0.13648,-0.48291 L -0.974609,-1.39111 -8.47021,0.225586 M 10.0273,1.44336 c 0.308,0 0.5634,0.11548 0.7664,0.34643 0.203,0.23096 0.3044,0.50041 0.3044,0.80835 0,0.32194 -0.1084,0.5879 -0.3254,0.79786 -0.217,0.20996 -0.4934,0.28694 -0.82934,0.23095 L 5.38721,3.54297 c -0.32194,0 -0.51091,-0.06999 -0.5669,-0.20996 H 4.73633 C 4.56836,3.22103 4.44238,3.06006 4.3584,2.8501 L 3.66553,1.35938 C 3.86149,1.12142 4.06795,0.830973 4.28491,0.488037 4.50187,0.145101 4.70833,-0.166341 4.9043,-0.446289 5.01628,-0.684245 5.12126,-0.845215 5.21924,-0.929199 L 6.16406,1.35938 10.0273,1.44336 m -14.23531,3.7793 c 0.05599,0.32194 0.17847,0.55989 0.36743,0.71386 0.18897,0.15397 0.38143,0.32894 0.5774,0.52491 l 0.86084,0.77685 -3.69532,5.77392 1.42774,1.8057 c 0.05599,0.056 0.10498,0.1189 0.14697,0.1889 0.04199,0.07 0.06299,0.133 0.06299,0.189 0,0.21 -0.06649,0.3569 -0.19946,0.4409 -0.13298,0.084 -0.26945,0.126 -0.40943,0.126 H -5.3208 L -9.87695,14.251 -4.20801,5.22266 m -6.06789,9.42724 7.22268,2.4355 c -0.22396,0.126 -0.48291,0.231 -0.77686,0.315 -0.22396,0.056 -0.5074,0.091 -0.85034,0.105 -0.34294,0.014 -0.71737,-0.049 -1.12329,-0.189 -0.39193,-0.154 -0.88184,-0.3289 -1.46973,-0.5249 -0.58789,-0.196 -1.16878,-0.3989 -1.74267,-0.6089 -0.65788,-0.2239 -1.33679,-0.4479 -2.03659,-0.6719 l 0.7768,-0.8608 m 10.54006,0.8608 7.62158,0.084 c -0.18196,0.196 -0.38493,0.364 -0.60888,0.5039 -0.23796,0.14 -0.50741,0.2625 -0.80835,0.3675 -0.30095,0.1049 -0.66138,0.1574 -1.0813,0.1574 -0.43392,0 -0.96582,0 -1.59571,0 -0.62988,0 -1.23177,-0.014 -1.80566,-0.042 -0.68587,0 -1.385742,-0.014 -2.09961,-0.0419 l 0.37793,-1.0289"
         fill-rule="evenodd"
         vector-effect="none" />
    </g>
    <g
       id="g16"
       font-style="normal"
       font-weight="400"
       font-size="7.8px"
       font-family="'MS Shell Dlg 2'"
       stroke="none"
       fill-opacity="1"
       fill="#6fa56c" />
  </g>
</svg>
