<svg xmlns="http://www.w3.org/2000/svg" version="1.2" viewBox="0 0 42.52 42.52" height="56.693" width="56.693">
   <g stroke-linejoin="bevel" stroke-linecap="square" fill-rule="evenodd" stroke="none" fill="none" font-weight="400"
      font-size="7.8" font-family="'MS Shell Dlg 2'">
      <path
         d="M42.52 21.26C42.52 33 33 42.52 21.26 42.52 9.518 42.52 0 33 0 21.26 0 9.518 9.518 0 21.26 0 33 0 42.52 9.518 42.52 21.26"
         vector-effect="non-scaling-stroke" fill="#6fa56c" />
      <path
         d="M26.08 13.234c-.63-.056-1.151-.294-1.564-.714-.413-.42-.62-.945-.62-1.575 0-.602.221-1.13.662-1.585a1.9 1.9 0 011.606-.598c.63 0 1.155.227 1.575.682.42.455.63.983.63 1.585 0 .63-.224 1.155-.672 1.575a2.28 2.28 0 01-1.617.63m-13.29 4.283a.916.916 0 01-.788-.158 1.076 1.076 0 01-.451-.682c-.056-.35 0-.647.168-.892s.399-.396.693-.452l10.834-2.267a.395.395 0 01.252-.105h.21c.434.07.822.224 1.165.462.343.238.591.56.745.966 0 .083.014.14.042.167 0 .028.014.056.042.084.056.154.077.389.063.704-.014.315-.168.682-.462 1.102-.056.112-.248.434-.577.966-.329.532-.696 1.113-1.102 1.743-.448.755-.96 1.56-1.533 2.414.448.518.889.994 1.323 1.428l1.08 1.123c.344.357.613.627.81.809.21.224.342.437.398.64.056.203.098.374.126.514 0 .168-.014.343-.042.525l-.945 3.528 2.1 1.238c.084.056.171.12.262.19s.137.16.137.272c-.07.154-.154.287-.252.4-.098.111-.245.167-.441.167l-4.955-.084 1.428-5.123-4.724-4.304a3.315 3.315 0 01-.746-.787c-.203-.301-.276-.669-.22-1.103 0-.14.017-.294.052-.462a3.5 3.5 0 01.137-.483l2.666-4.157-7.495 1.617m18.497 1.218c.308 0 .564.115.767.346.203.231.304.5.304.808 0 .322-.108.588-.325.798-.217.21-.494.287-.83.231l-4.556-.084c-.322 0-.51-.07-.567-.21h-.084a1.013 1.013 0 01-.378-.483l-.693-1.49c.196-.238.403-.529.62-.872.217-.343.423-.654.62-.934.111-.238.216-.399.314-.483l.945 2.289 3.863.084m-14.235 3.779c.056.322.178.56.367.714.19.154.382.329.578.525l.86.777-3.695 5.774 1.428 1.805a.976.976 0 01.147.19c.042.07.063.132.063.188 0 .21-.067.357-.2.441a.758.758 0 01-.409.126h-.252l-4.556-1.512 5.669-9.028m-6.068 9.427l7.223 2.436a3.597 3.597 0 01-.777.315 4.317 4.317 0 01-.85.105 3.075 3.075 0 01-1.124-.19 30.53 30.53 0 00-1.47-.524 63.693 63.693 0 01-1.742-.61c-.658-.223-1.337-.447-2.037-.671l.777-.86m10.54.86l7.622.084a2.988 2.988 0 01-.61.504c-.237.14-.507.262-.808.367a3.297 3.297 0 01-1.081.158h-1.596c-.63 0-1.231-.014-1.805-.042-.686 0-1.386-.014-2.1-.042l.378-1.029"
         fill-opacity=".949" fill="#fff" />
   </g>
</svg>