<?xml version="1.0" encoding="UTF-8" standalone="no"?>
<svg
   xmlns:dc="http://purl.org/dc/elements/1.1/"
   xmlns:cc="http://creativecommons.org/ns#"
   xmlns:rdf="http://www.w3.org/1999/02/22-rdf-syntax-ns#"
   xmlns:svg="http://www.w3.org/2000/svg"
   xmlns="http://www.w3.org/2000/svg"
   xmlns:sodipodi="http://sodipodi.sourceforge.net/DTD/sodipodi-0.dtd"
   xmlns:inkscape="http://www.inkscape.org/namespaces/inkscape"
   inkscape:version="1.0 (4035a4fb49, 2020-05-01)"
   sodipodi:docname="2609.svg"
   id="svg20"
   version="1.2"
   viewBox="0 0 42.519639 42.519639"
   height="14.999999mm"
   width="14.999999mm">
  <metadata
     id="metadata24">
    <rdf:RDF>
      <cc:Work
         rdf:about="">
        <dc:format>image/svg+xml</dc:format>
        <dc:type
           rdf:resource="http://purl.org/dc/dcmitype/StillImage" />
        <dc:title>Qt SVG Document</dc:title>
      </cc:Work>
    </rdf:RDF>
  </metadata>
  <sodipodi:namedview
     inkscape:current-layer="svg20"
     inkscape:window-maximized="0"
     inkscape:window-y="0"
     inkscape:window-x="0"
     inkscape:cy="28.346482"
     inkscape:cx="28.346482"
     inkscape:zoom="5.8410537"
     showgrid="false"
     id="namedview22"
     inkscape:window-height="480"
     inkscape:window-width="1034"
     inkscape:pageshadow="2"
     inkscape:pageopacity="0"
     guidetolerance="10"
     gridtolerance="10"
     objecttolerance="10"
     borderopacity="1"
     bordercolor="#666666"
     pagecolor="#ffffff" />
  <title
     id="title2">Qt SVG Document</title>
  <desc
     id="desc4">Generated with Qt</desc>
  <defs
     id="defs6" />
  <g
     transform="translate(5.25984,5.25984)"
     id="g18"
     stroke-linejoin="bevel"
     stroke-linecap="square"
     fill-rule="evenodd"
     stroke-width="1"
     stroke="#000000"
     fill="none">
    <g
       id="g10"
       font-style="normal"
       font-weight="400"
       font-size="7.8px"
       font-family="'MS Shell Dlg 2'"
       stroke="none"
       fill-opacity="1"
       fill="#6fa56c">
      <path
         id="path8"
         d="M 37.2598,16 C 37.2598,27.7415 27.7415,37.2598 16,37.2598 4.25851,37.2598 -5.25984,27.7415 -5.25984,16 -5.25984,4.25851 4.25851,-5.25984 16,-5.25984 27.7415,-5.25984 37.2598,4.25851 37.2598,16"
         fill-rule="evenodd"
         vector-effect="non-scaling-stroke" />
    </g>
    <g
       id="g14"
       font-style="normal"
       font-weight="400"
       font-size="7.8px"
       font-family="'MS Shell Dlg 2'"
       transform="translate(16,12.5984)"
       stroke="none"
       fill-opacity="0.94902"
       fill="#ffffff">
      <path
         id="path12"
         d="m -5.40479,13.0542 c -0.18196,0 -0.27294,-0.084 -0.27294,-0.252 0,-0.1819 0.09098,-0.2729 0.27294,-0.2729 0.05599,0 0.11898,0.021 0.18897,0.063 0.06999,0.042 0.10498,0.112 0.10498,0.2099 0,0.084 -0.03499,0.147 -0.10498,0.189 -0.06999,0.042 -0.13298,0.063 -0.18897,0.063 m 0,-1.7637 c 0.39193,0 0.74537,0.1505 1.06031,0.4514 0.31494,0.301 0.47241,0.6544 0.47241,1.0603 0,0.392 -0.15747,0.7384 -0.47241,1.0394 -0.31494,0.3009 -0.66838,0.4514 -1.06031,0.4514 -0.43391,0 -0.79435,-0.1505 -1.08129,-0.4514 -0.28695,-0.301 -0.43042,-0.6474 -0.43042,-1.0394 0,-0.4059 0.14347,-0.7593 0.43042,-1.0603 0.28694,-0.3009 0.64738,-0.4514 1.08129,-0.4514 m 0.46192,1.5117 c 0,-0.1539 -0.04899,-0.2659 -0.14697,-0.3359 -0.09799,-0.07 -0.20297,-0.105 -0.31495,-0.105 -0.29394,0 -0.44091,0.147 -0.44091,0.4409 0,0.28 0.14697,0.42 0.44091,0.42 0.11198,0 0.21696,-0.035 0.31495,-0.105 0.09798,-0.07 0.14697,-0.175 0.14697,-0.315 m -1.23877,-1.0918 c -0.11198,0.056 -0.18897,0.1225 -0.23096,0.1995 -0.04199,0.077 -0.09798,0.1435 -0.16797,0.1995 -0.05599,0.084 -0.08398,0.1399 -0.08398,0.1679 0.15397,0.056 0.28695,0.098 0.39892,0.126 0.25196,0.056 0.41993,0.042 0.50391,-0.042 0.05599,-0.056 0.08399,-0.2309 0.08399,-0.5249 v -0.3779 c -0.05599,0 -0.11198,0.014 -0.16797,0.042 -0.05599,0.028 -0.11198,0.056 -0.16797,0.084 -0.05599,0.028 -0.11198,0.07 -0.16797,0.1259 m -0.5669,1.5118 c 0.05599,0.1399 0.16097,0.2799 0.31495,0.4199 0.05599,0.07 0.11198,0.119 0.16796,0.147 0.08399,-0.098 0.15398,-0.203 0.20997,-0.315 0.11198,-0.2239 0.15397,-0.3919 0.12597,-0.5039 -0.02799,-0.056 -0.08398,-0.1085 -0.16797,-0.1575 -0.08398,-0.0489 -0.16797,-0.0874 -0.25195,-0.1154 -0.12598,-0.028 -0.25895,-0.056 -0.39893,-0.084 -0.02799,0.056 -0.04199,0.119 -0.04199,0.1889 0,0.168 0.014,0.308 0.04199,0.42 m 1.34375,0.9028 c 0.13998,0 0.29395,-0.028 0.46192,-0.084 0.08398,-0.028 0.13997,-0.056 0.16797,-0.084 -0.05599,-0.084 -0.12598,-0.1889 -0.20996,-0.3149 -0.16797,-0.224 -0.30795,-0.3359 -0.41993,-0.3359 -0.08398,0 -0.21695,0.1119 -0.39892,0.3359 -0.08399,0.126 -0.15397,0.2309 -0.20996,0.3149 0.02799,0.028 0.06999,0.056 0.12597,0.084 0.11198,0.056 0.27295,0.084 0.48291,0.084 m 1.23877,-0.9028 c 0.08399,-0.224 0.11198,-0.399 0.08399,-0.5249 -0.028,-0.084 -0.05599,-0.14 -0.08399,-0.168 -0.08398,0.028 -0.18196,0.07 -0.29394,0.126 -0.23796,0.126 -0.37093,0.2309 -0.39893,0.3149 -0.02799,0.112 0.014,0.28 0.12598,0.5039 0.06999,0.112 0.14697,0.217 0.23096,0.315 l 0.12597,-0.147 c 0.11198,-0.112 0.18197,-0.252 0.20996,-0.4199 m -0.94482,-0.8609 c 0.13997,0.084 0.31494,0.084 0.5249,0 0.11198,-0.028 0.22396,-0.084 0.33594,-0.1679 l -0.08398,-0.168 c -0.05599,-0.126 -0.13998,-0.231 -0.25196,-0.315 -0.09798,-0.0559 -0.18196,-0.0979 -0.25195,-0.1259 -0.06999,-0.028 -0.13298,-0.056 -0.18897,-0.084 -0.08398,-0.028 -0.13997,-0.042 -0.16796,-0.042 -0.028,0.14 -0.042,0.2659 -0.042,0.3779 0,0.294 0.042,0.4689 0.12598,0.5249 m 13.9834,0.6929 c -0.20996,0 -0.31494,-0.084 -0.31494,-0.252 0,-0.1819 0.10498,-0.2729 0.31494,-0.2729 0.11198,0 0.16797,0.091 0.16797,0.2729 0,0.168 -0.05599,0.252 -0.16797,0.252 m 0,-1.7637 c 0.39193,0 0.72436,0.1505 0.99731,0.4514 0.27293,0.301 0.40943,0.6544 0.40943,1.0603 0,0.392 -0.1365,0.7384 -0.40943,1.0394 -0.27295,0.3009 -0.60538,0.4514 -0.99731,0.4514 -0.46192,0 -0.83635,-0.1505 -1.12329,-0.4514 -0.28695,-0.301 -0.43042,-0.6474 -0.43042,-1.0394 0,-0.4059 0.14347,-0.7593 0.43042,-1.0603 0.28694,-0.3009 0.66137,-0.4514 1.12329,-0.4514 m 0.33594,1.5117 c 0,-0.2939 -0.11198,-0.4409 -0.33594,-0.4409 -0.32194,0 -0.48291,0.147 -0.48291,0.4409 0,0.28 0.16097,0.42 0.48291,0.42 0.22396,0 0.33594,-0.14 0.33594,-0.42 M 7.96973,11.7104 c -0.05599,0.056 -0.10848,0.1225 -0.15747,0.1995 -0.049,0.077 -0.08749,0.1435 -0.11548,0.1995 -0.028,0.084 -0.05599,0.1399 -0.08399,0.1679 0.11198,0.056 0.23096,0.098 0.35694,0.126 0.22395,0.056 0.39192,0.042 0.5039,-0.042 0.05599,-0.056 0.08399,-0.2309 0.08399,-0.5249 v -0.3779 c -0.05599,0 -0.11198,0.014 -0.16797,0.042 -0.16797,0.056 -0.30794,0.126 -0.41992,0.2099 m -0.48291,1.5118 c 0.08398,0.1959 0.16797,0.3359 0.25195,0.4199 l 0.14697,0.147 C 7.96973,13.6911 8.05371,13.5861 8.1377,13.4741 8.30566,13.2782 8.36165,13.1102 8.30566,12.9702 8.27767,12.9142 8.22168,12.8617 8.1377,12.8127 8.05371,12.7638 7.96973,12.7253 7.88574,12.6973 c -0.12597,-0.028 -0.25895,-0.056 -0.39892,-0.084 -0.028,0.056 -0.042,0.119 -0.042,0.1889 0,0.168 0.014,0.308 0.042,0.42 m 1.38574,0.9028 c 0.13997,0 0.26595,-0.028 0.37793,-0.084 C 9.30648,14.013 9.34847,13.985 9.37646,13.957 9.32048,13.873 9.26449,13.7681 9.2085,13.6421 9.09652,13.4181 8.98454,13.3062 8.87256,13.3062 c -0.15397,0 -0.31494,0.1119 -0.48291,0.3359 -0.08399,0.126 -0.13998,0.2309 -0.16797,0.3149 0.02799,0.028 0.06999,0.056 0.12598,0.084 0.11198,0.056 0.28694,0.084 0.5249,0.084 m 1.23874,-0.9028 c 0.028,-0.14 0.042,-0.315 0.042,-0.5249 0,-0.084 -0.014,-0.14 -0.042,-0.168 -0.13995,0.028 -0.26592,0.07 -0.3779,0.126 -0.26595,0.126 -0.41292,0.2309 -0.44092,0.3149 0,0.14 0.06999,0.308 0.20996,0.5039 0.05599,0.112 0.13298,0.217 0.23096,0.315 l 0.12598,-0.147 c 0.08398,-0.084 0.16792,-0.224 0.25192,-0.4199 M 9.90137,12.0254 C 9.84538,11.9694 9.79639,11.9169 9.75439,11.8679 9.7124,11.8189 9.64242,11.7664 9.54443,11.7104 9.46045,11.6265 9.33447,11.5565 9.1665,11.5005 c -0.08398,-0.028 -0.15397,-0.042 -0.20996,-0.042 -0.02799,0.14 -0.02799,0.2659 0,0.3779 0,0.238 0.05599,0.4129 0.16797,0.5249 0.13998,0.084 0.31494,0.084 0.5249,0 0.11198,-0.028 0.22396,-0.084 0.33594,-0.1679 L 9.90137,12.0254 M -5.40479,10.6396 c 0.5739,0 1.0743,0.217 1.50123,0.6509 0.42692,0.4339 0.64038,0.9379 0.64038,1.5117 0,0.5599 -0.21346,1.0568 -0.64038,1.4908 -0.42693,0.4339 -0.92733,0.6508 -1.50123,0.6508 -0.57389,0 -1.0708,-0.2169 -1.49072,-0.6508 -0.41992,-0.434 -0.62988,-0.9309 -0.62988,-1.4908 0,-0.5738 0.20996,-1.0778 0.62988,-1.5117 0.41992,-0.4339 0.91683,-0.6509 1.49072,-0.6509 m 0,3.8213 c 0.44792,0 0.84685,-0.1644 1.19678,-0.4934 0.34994,-0.3289 0.5249,-0.7173 0.5249,-1.1653 0,-0.4619 -0.17496,-0.8573 -0.5249,-1.1862 -0.34993,-0.329 -0.74886,-0.4934 -1.19678,-0.4934 -0.4899,0 -0.89233,0.1644 -1.20727,0.4934 -0.31494,0.3289 -0.47241,0.7243 -0.47241,1.1862 0,0.448 0.15747,0.8364 0.47241,1.1653 0.31494,0.329 0.71737,0.4934 1.20727,0.4934 M 8.72559,10.6396 c 0.64388,0 1.17928,0.217 1.60621,0.6509 0.4269,0.4339 0.6404,0.9379 0.6404,1.5117 0,0.5599 -0.2135,1.0568 -0.6404,1.4908 -0.42693,0.4339 -0.96233,0.6508 -1.60621,0.6508 -0.5599,0 -1.04981,-0.2169 -1.46973,-0.6508 -0.41992,-0.434 -0.62988,-0.9309 -0.62988,-1.4908 0,-0.5738 0.20996,-1.0778 0.62988,-1.5117 0.41992,-0.4339 0.90983,-0.6509 1.46973,-0.6509 m 0,3.8213 c 0.4899,0 0.89933,-0.1644 1.22827,-0.4934 0.32894,-0.3289 0.49344,-0.7173 0.49344,-1.1653 0,-0.4619 -0.1645,-0.8573 -0.49344,-1.1862 -0.32894,-0.329 -0.73837,-0.4934 -1.22827,-0.4934 -0.41993,0 -0.78736,0.1644 -1.1023,0.4934 -0.31494,0.3289 -0.47241,0.7243 -0.47241,1.1862 0,0.448 0.15747,0.8364 0.47241,1.1653 0.31494,0.329 0.68237,0.4934 1.1023,0.4934 M 12.9458,8.70801 c 0.056,-0.028 0.112,0.014 0.168,0.12597 0.056,0.11198 0.1015,0.26246 0.1364,0.45142 0.035,0.18897 0.0455,0.39193 0.0315,0.60889 -0.014,0.21691 -0.042,0.38141 -0.0839,0.49341 0,0.4619 -0.014,0.8783 -0.042,1.2493 -0.028,0.3709 -0.07,0.7593 -0.126,1.1652 -0.28,0.168 -0.5704,0.259 -0.8714,0.273 -0.3009,0.014 -0.6403,0.091 -1.0183,0.231 0.14,-1.0079 -0.0385,-1.7987 -0.5354,-2.3726 -0.4969,-0.5739 -1.17924,-0.8119 -2.04708,-0.7139 -0.71387,0.056 -1.29126,0.399 -1.73218,1.0288 -0.44092,0.6299 -0.59139,1.4138 -0.45142,2.3516 -1.55371,-0.14 -3.08292,-0.175 -4.58764,-0.105 -1.504723,0.07 -3.07593,0.14 -4.71363,0.21 0.06999,-0.154 0.11898,-0.308 0.14698,-0.4619 0.02799,-0.154 0.04199,-0.301 0.04199,-0.441 0,-0.7278 -0.24496,-1.3402 -0.73486,-1.8371 -0.48991,-0.4969 -1.1058,-0.7454 -1.84766,-0.7454 -0.71387,0 -1.32275,0.2485 -1.82666,0.7454 -0.50391,0.4969 -0.75586,1.1093 -0.75586,1.8371 0,0.168 0.021,0.329 0.06299,0.483 0.04199,0.1539 0.09098,0.3219 0.14697,0.5039 -0.93782,0.0839 -1.88965,0.0525 -2.85544,-0.0945 -0.9658,-0.147 -1.8337,-0.3325 -2.6035,-0.5564 -0.112,-0.14 -0.126,-0.2695 -0.042,-0.3884 0.0839,-0.119 0.1679,-0.2205 0.2519,-0.3045 0.084,-0.084 0.133,-0.168 0.147,-0.2519 0.014,-0.084 -0.105,-0.182 -0.3569,-0.294 -0.112,-0.2379 -0.091,-0.4654 0.0629,-0.6824 0.154,-0.2169 0.3535,-0.4094 0.5984,-0.5774 0.245,-0.1679 0.4969,-0.3114 0.7559,-0.4304 0.2589,-0.1189 0.4444,-0.2064 0.5564,-0.26242 0.084,-0.05599 0.126,-0.09798 0.126,-0.12598 0,-0.02799 0.1329,-0.06999 0.3989,-0.12598 0.084,0.11198 0.2205,0.09099 0.4094,-0.06298 0.189,-0.15398 0.29746,-0.25896 0.32545,-0.31495 0.36394,-0.18196 0.74887,-0.30094 1.15479,-0.35693 0.40592,-0.05599 0.82235,-0.08398 1.24927,-0.08398 0.42692,0 0.87134,-0.007 1.33325,-0.021 0.46191,-0.014 0.93083,-0.06299 1.40674,-0.14697 C -4.42497,8.65202 -4.07853,8.50854 -3.7356,8.27759 -3.39266,8.04663 -3.04272,7.80868 -2.68579,7.56372 -2.32886,7.31877 -1.96143,7.09831 -1.5835,6.90234 -1.20557,6.70638 -0.848633,6.5944 -0.512695,6.56641 L 1.37695,6.46143 c 0.92383,0 1.84416,0.06648 2.76099,0.19946 0.91683,0.13297 1.74617,0.31144 2.48804,0.5354 0.48991,0.15397 0.97282,0.32894 1.44873,0.5249 0.47591,0.19596 0.93782,0.33594 1.38574,0.41992 0.26595,0.05599 0.55635,0.06999 0.87135,0.042 0.3149,-0.028 0.6229,-0.049 0.9238,-0.06299 0.301,-0.014 0.5949,0 0.8819,0.04199 0.2869,0.04199 0.5284,0.16797 0.7243,0.37793 -0.1959,0.08398 -0.4234,0.12598 -0.6824,0.12598 -0.2589,0 -0.3884,0.06998 -0.3884,0.20996 -0.056,0.16797 -0.007,0.26945 0.147,0.30444 0.154,0.03499 0.2729,0.08048 0.3569,0.13647 -0.056,0.08399 -0.112,0.11898 -0.1679,0.10499 -0.056,-0.014 -0.126,-0.028 -0.21,-0.042 -0.084,-0.01399 -0.161,-0.007 -0.231,0.021 -0.07,0.02799 -0.1189,0.12598 -0.1469,0.29394 -0.028,0.13998 0.014,0.23096 0.1259,0.27295 0.112,0.04203 0.245,0.08053 0.399,0.11553 0.1539,0.0349 0.3254,0.0664 0.5144,0.0944 0.1889,0.028 0.3394,0.07 0.4514,0.126 0.028,-0.43391 0,-0.74535 -0.084,-0.93432 -0.084,-0.18896 -0.161,-0.31844 -0.231,-0.38842 -0.0699,-0.06999 -0.1049,-0.11198 -0.1049,-0.12598 0,-0.014 0.1119,-0.06299 0.3359,-0.14697 M -8.15527,9.86279 C -8.04329,9.69482 -8.0153,9.58285 -8.07129,9.52686 -8.12728,9.47087 -8.22176,9.44287 -8.35474,9.44287 c -0.13297,0 -0.26945,0.007 -0.40942,0.021 -0.13997,0.01399 -0.22396,0.02099 -0.25195,0.02099 -0.23796,0.19597 -0.48641,0.36044 -0.74536,0.49341 -0.25893,0.13293 -0.43043,0.35343 -0.51443,0.66133 0.32196,-0.0839 0.71039,-0.1889 1.1653,-0.3149 0.45492,-0.126 0.77336,-0.2799 0.95533,-0.46191 m 3.98925,-1.15478 c 0.22396,0 0.40243,0.02099 0.5354,0.06299 0.13298,0.04199 0.24846,0.08398 0.34644,0.12597 0.09798,0.04199 0.21346,0.08399 0.34644,0.12598 0.13297,0.04199 0.29744,0.07698 0.4934,0.10498 0.11198,-0.05599 0.27645,-0.15397 0.49341,-0.29395 0.21696,-0.13997 0.45492,-0.31144 0.71387,-0.5144 C -0.978109,8.11662 -0.719157,7.90666 -0.460205,7.6897 -0.201253,7.47274 0.0262044,7.25228 0.222168,7.02832 -0.211751,6.88835 -0.614176,6.86735 -0.985107,6.96533 -1.35604,7.06331 -1.71997,7.21379 -2.0769,7.41675 -2.43384,7.61971 -2.78377,7.84367 -3.12671,8.08862 -3.46965,8.33358 -3.81608,8.54004 -4.16602,8.70801 m 8.6504,0.5249 C 4.51237,9.07894 4.54036,8.88997 4.56836,8.66602 4.59635,8.44206 4.63835,8.2111 4.69434,7.97314 4.75033,7.72119 4.79232,7.46224 4.82031,7.19629 4.3304,7.1123 3.83,7.05632 3.31909,7.02832 2.80819,7.00033 2.31478,7.02132 1.83887,7.09131 1.36296,7.1613 0.932536,7.30477 0.547607,7.52173 0.162679,7.73869 -0.134766,8.05013 -0.344727,8.45605 -0.190755,8.40007 -0.0437826,8.34058 0.0961914,8.27759 0.236165,8.2146 0.418132,8.2111 0.64209,8.26709 c 0.125976,0 0.188965,0.04549 0.188965,0.13647 0,0.09099 -0.020996,0.19247 -0.062989,0.30445 C 0.726074,8.81999 0.69458,8.91797 0.673584,9.00195 0.652588,9.08594 0.677083,9.12793 0.74707,9.12793 c 0.57389,0 1.18278,0.0175 1.82666,0.05249 0.64388,0.03499 1.28076,0.05249 1.91065,0.05249 m 0.41992,0 c 0.95182,0 1.64119,-0.06649 2.06811,-0.19946 C 7.39933,8.90047 7.84375,8.764 8.30566,8.62402 8.1377,8.38607 7.88224,8.1901 7.53931,8.03613 7.19637,7.88216 6.86393,7.74919 6.54199,7.63721 6.13607,7.52523 5.72314,7.40625 5.30322,7.28027 5.27523,7.54622 5.23324,7.80518 5.17725,8.05713 5.10726,8.29508 5.05127,8.51204 5.00928,8.70801 4.96729,8.90397 4.93229,9.07894 4.9043,9.23291 M -3.95605,-4.01563 c -0.36394,0.22396 -0.66488,0.52491 -0.90284,0.90284 -0.08398,0.22396 -0.18896,0.41642 -0.31494,0.57739 -0.12597,0.16097 -0.23096,0.31144 -0.31494,0.45142 l -0.94482,-2.09961 h -0.042 c 0.13998,-0.15398 0.25896,-0.32894 0.35694,-0.52491 0.09798,-0.19596 0.21696,-0.41292 0.35693,-0.65088 0.20996,-0.33593 0.39893,-0.59488 0.5669,-0.77685 0.02799,0.05599 0.12247,0.21346 0.28344,0.47241 0.16097,0.25895 0.47941,0.80835 0.95533,1.64819 m -1.23877,-2.16259 c 0.5179,-0.41992 1.10579,-0.67888 1.76367,-0.77686 -0.32194,0.06999 -0.63338,0.16797 -0.93433,0.29395 -0.30094,0.12597 -0.57739,0.30094 -0.82934,0.5249 v -0.04199 m -1.28077,1.99463 c -0.09798,0.13997 -0.18896,0.25195 -0.27295,0.33593 -0.08398,0.08399 -0.16796,0.16797 -0.25195,0.25196 0.08399,-0.08399 0.16797,-0.17497 0.25195,-0.27295 0.08399,-0.09798 0.17497,-0.20296 0.27295,-0.31494 M 1.54492,-5.52734 C 1.06901,-5.35938 0.5861,-5.2369 0.0961914,-5.15991 -0.393717,-5.08293 -0.883626,-5.00244 -1.37354,-4.91846 L -2.6123,-7.16504 c 0.43391,-0.05599 0.89933,-0.11198 1.39624,-0.16797 0.496903,-0.05599 0.976314,-0.19596 1.438228,-0.41992 L 2.55273,-4.09961 1.54492,-5.52734 m 3.27539,5.165035 C 4.24642,-0.138346 3.69352,-0.0123698 3.16162,0.015625 2.62972,0.0436198 2.12581,0.085612 1.6499,0.141602 L 0.0541992,-2.60889 C 0.544108,-2.66488 1.03052,-2.73486 1.51343,-2.81885 1.99634,-2.90283 2.51074,-3.02881 3.05664,-3.19678 l 1.76367,2.834475 m -8.5874,-0.251953 c 0.13997,-0.237956 0.30094,-0.440922 0.48291,-0.608882 0.18197,-0.16797 0.36393,-0.32894 0.5459,-0.48291 l 1.805663,3.1914 C -1.33854,1.89128 -1.68498,2.27271 -1.97192,2.62964 -2.25887,2.98657 -2.60531,3.31901 -3.01123,3.62695 L -4.50195,0.330566 c 0.13997,-0.153971 0.25895,-0.3079423 0.35693,-0.461914 0.09798,-0.153971 0.22396,-0.314941 0.37793,-0.48291 m -3.40137,0.083985 c -0.23795,0.139974 -0.5284,0.279947 -0.87133,0.419921 -0.34294,0.1399744 -0.73137,0.286947 -1.16529,0.440918 -0.27995,-0.727864 -0.47591,-1.259765 -0.58789,-1.595706 -0.08398,-0.23795 -0.15397,-0.44091 -0.20993,-0.60888 0.47588,-0.19597 0.87831,-0.37443 1.20725,-0.5354 0.32893,-0.16097 0.62638,-0.31145 0.89233,-0.45142 0.11198,0.34994 0.22396,0.72437 0.33594,1.12329 0.11198,0.39893 0.24495,0.801352 0.39892,1.207277 M -8.68018,2.05225 C -8.82015,1.47835 -8.99512,0.90446 -9.20508,0.330566 h -0.04199 c 0.23796,0.573894 0.42692,1.147784 0.56689,1.721684 m 2.33057,-0.10498 c 0.16797,0.62988 0.31494,1.21077 0.44092,1.74267 0.12598,0.5319 0.23795,0.98682 0.33594,1.36475 0.55989,-0.26595 1.0498,-0.51091 1.46972,-0.73487 0.41992,-0.22395 0.78386,-0.45491 1.0918,-0.69287 -0.41992,0.34994 -0.99731,0.71037 -1.73218,1.0813 C -5.47827,5.07918 -6.48958,5.49561 -7.77734,5.95752 -7.83333,5.69157 -7.88932,5.40462 -7.94531,5.09668 -8.0013,4.80273 -8.06429,4.4703 -8.13428,4.09937 -8.20426,3.72843 -8.30225,3.32601 -8.42822,2.89209 -7.96631,2.72412 -7.57788,2.57015 -7.26294,2.43018 -6.948,2.2902 -6.64355,2.12923 -6.34961,1.94727 M 0.0541992,-2.60889 C -0.43571,-2.5249 -0.925618,-2.42342 -1.41553,-2.30444 -1.90544,-2.18547 -2.34635,-1.986 -2.73828,-1.70605 l -1.21777,-2.30958 c 0.34993,-0.29394 0.74536,-0.4969 1.18627,-0.60888 0.44092,-0.11198 0.90634,-0.20996 1.39624,-0.29395 l 1.4277392,2.30957 M -4.50195,0.330566 C -4.93587,0.988444 -5.55176,1.52734 -6.34961,1.94727 -6.47559,1.55534 -6.60856,1.14242 -6.74854,0.708496 -6.88851,0.274577 -7.02848,-0.138346 -7.16846,-0.530273 c 0.46192,-0.237956 0.79785,-0.479407 1.00782,-0.724367 0.20996,-0.24495 0.43391,-0.5214 0.67187,-0.82934 l 0.98682,2.414546 M 8.38965,4.69775 0.222168,-8.27783 0.558105,-8.48779 8.6416,4.52979 8.38965,4.69775"
         fill-rule="evenodd"
         vector-effect="none" />
    </g>
    <g
       id="g16"
       font-style="normal"
       font-weight="400"
       font-size="7.8px"
       font-family="'MS Shell Dlg 2'"
       stroke="none"
       fill-opacity="1"
       fill="#6fa56c" />
  </g>
</svg>
