<svg xmlns="http://www.w3.org/2000/svg" version="1.2" viewBox="0 0 42.52 42.52" height="56.693" width="56.693">
   <g stroke-linejoin="bevel" stroke-linecap="square" fill-rule="evenodd" stroke="none" fill="none" font-weight="400"
      font-size="7.8" font-family="'MS Shell Dlg 2'">
      <path
         d="M42.52 21.26C42.52 33 33 42.52 21.26 42.52 9.518 42.52 0 33 0 21.26 0 9.518 9.518 0 21.26 0 33 0 42.52 9.518 42.52 21.26"
         vector-effect="non-scaling-stroke" fill="#6fa56c" />
      <path
         d="M15.855 30.912c-.182 0-.273-.084-.273-.252 0-.181.091-.272.273-.272.056 0 .119.02.189.063.07.042.105.112.105.21a.206.206 0 01-.105.188.376.376 0 01-.189.063m0-1.763c.392 0 .745.15 1.06.451.315.301.473.655.473 1.06 0 .392-.158.739-.473 1.04-.315.3-.668.451-1.06.451-.434 0-.794-.15-1.081-.451a1.462 1.462 0 01-.43-1.04c0-.405.143-.759.43-1.06.287-.3.647-.451 1.081-.451m.462 1.511c0-.153-.049-.265-.147-.335a.532.532 0 00-.315-.105c-.294 0-.44.147-.44.44 0 .28.146.42.44.42a.532.532 0 00.315-.105c.098-.07.147-.175.147-.315m-1.239-1.091a.51.51 0 00-.23.2.655.655 0 01-.169.199c-.056.084-.084.14-.084.168.154.056.287.098.4.126.251.056.42.042.503-.042.056-.056.084-.231.084-.525v-.378a.373.373 0 00-.168.042l-.168.084a.66.66 0 00-.168.126m-.567 1.511c.056.14.161.28.315.42.056.07.112.12.168.147.084-.098.154-.203.21-.315.112-.224.154-.392.126-.504a.41.41 0 00-.168-.157 1.35 1.35 0 00-.252-.115 19.194 19.194 0 00-.399-.084.417.417 0 00-.042.188c0 .168.014.308.042.42m1.344.903c.14 0 .294-.028.462-.084a.456.456 0 00.168-.084l-.21-.315c-.168-.224-.308-.336-.42-.336-.084 0-.217.112-.399.336l-.21.315c.028.028.07.056.126.084.112.056.273.084.483.084m1.239-.903c.084-.224.112-.399.084-.524a.456.456 0 00-.084-.168c-.084.028-.182.07-.294.126-.238.126-.371.23-.4.314-.027.112.015.28.127.504.07.112.147.217.23.315l.127-.147a.752.752 0 00.21-.42m-.945-.86c.14.084.315.084.525 0a.947.947 0 00.336-.168l-.084-.168a.788.788 0 00-.252-.315 2.106 2.106 0 00-.252-.126 2.502 2.502 0 01-.189-.084.687.687 0 00-.168-.042c-.028.14-.042.266-.042.378 0 .294.042.469.126.525m13.983.692c-.21 0-.315-.084-.315-.252 0-.181.105-.272.315-.272.112 0 .168.09.168.272 0 .168-.056.252-.168.252m0-1.763c.392 0 .725.15.998.451.273.301.41.655.41 1.06 0 .392-.137.739-.41 1.04-.273.3-.606.451-.998.451-.462 0-.836-.15-1.123-.451a1.462 1.462 0 01-.43-1.04c0-.405.143-.759.43-1.06.287-.3.661-.451 1.123-.451m.336 1.511c0-.293-.112-.44-.336-.44-.322 0-.483.147-.483.44 0 .28.161.42.483.42.224 0 .336-.14.336-.42M29.23 29.57a1.166 1.166 0 00-.158.2 2.293 2.293 0 00-.115.199.455.455 0 01-.084.168c.112.056.23.098.357.126.224.056.391.042.503-.042.056-.056.084-.231.084-.525v-.378a.373.373 0 00-.168.042 1.474 1.474 0 00-.42.21m-.482 1.511c.084.196.168.336.252.42l.147.147c.084-.098.168-.203.252-.315.167-.196.223-.364.167-.504a.41.41 0 00-.167-.157 1.35 1.35 0 00-.252-.115 19.192 19.192 0 00-.4-.084.417.417 0 00-.041.188c0 .168.014.308.042.42m1.385.903c.14 0 .266-.028.378-.084a.488.488 0 00.126-.084 2.14 2.14 0 01-.168-.315c-.112-.224-.224-.336-.336-.336-.154 0-.315.112-.483.336-.084.126-.14.231-.167.315.028.028.07.056.125.084.112.056.287.084.525.084m1.24-.903c.027-.14.041-.315.041-.524 0-.084-.014-.14-.042-.168-.14.028-.266.07-.378.126-.266.126-.413.23-.44.314 0 .14.07.308.21.504.055.112.132.217.23.315l.126-.147c.084-.084.168-.224.252-.42m-.21-1.196a2.831 2.831 0 01-.147-.158.81.81 0 00-.21-.157.958.958 0 00-.378-.21.69.69 0 00-.21-.042.858.858 0 000 .378c0 .238.056.413.168.525.14.084.315.084.525 0a.947.947 0 00.336-.168l-.084-.168m-15.306-1.386c.574 0 1.074.217 1.501.65.427.435.64.939.64 1.512 0 .56-.213 1.057-.64 1.491-.427.434-.927.651-1.501.651-.574 0-1.07-.217-1.49-.65-.42-.435-.63-.932-.63-1.492 0-.573.21-1.077.63-1.511.42-.434.916-.651 1.49-.651m0 3.821c.448 0 .847-.164 1.197-.493.35-.33.525-.718.525-1.166a1.57 1.57 0 00-.525-1.186c-.35-.329-.749-.493-1.197-.493-.49 0-.892.164-1.207.493a1.654 1.654 0 00-.473 1.186c0 .448.158.837.473 1.166.315.329.717.493 1.207.493m14.13-3.821c.644 0 1.18.217 1.607.65.427.435.64.939.64 1.512 0 .56-.213 1.057-.64 1.491-.427.434-.963.651-1.607.651-.56 0-1.05-.217-1.47-.65-.42-.435-.63-.932-.63-1.492 0-.573.21-1.077.63-1.511.42-.434.91-.651 1.47-.651m0 3.821c.49 0 .9-.164 1.229-.493.329-.33.493-.718.493-1.166 0-.461-.164-.857-.493-1.186-.33-.329-.739-.493-1.229-.493-.42 0-.787.164-1.102.493a1.654 1.654 0 00-.472 1.186c0 .448.157.837.472 1.166.315.329.682.493 1.102.493m4.22-5.753c.057-.028.113.014.169.126.056.112.101.263.136.452s.046.392.032.609a1.82 1.82 0 01-.084.493c0 .462-.014.878-.042 1.25-.028.37-.07.759-.126 1.164-.28.168-.57.26-.872.273-.3.014-.64.091-1.018.231.14-1.007-.039-1.798-.535-2.372-.497-.574-1.18-.812-2.048-.714-.713.056-1.29.399-1.732 1.029-.44.63-.591 1.414-.451 2.351a33.65 33.65 0 00-4.588-.105c-1.505.07-3.076.14-4.713.21.07-.154.119-.308.147-.462.028-.154.042-.3.042-.44 0-.728-.245-1.34-.735-1.838-.49-.497-1.106-.745-1.848-.745-.714 0-1.323.248-1.827.745s-.755 1.11-.755 1.837c0 .168.02.33.063.483.041.154.09.322.146.504a11.88 11.88 0 01-2.855-.094 20.31 20.31 0 01-2.603-.557c-.112-.14-.126-.27-.042-.388.083-.119.167-.22.251-.304a.477.477 0 00.147-.252c.014-.084-.105-.182-.356-.294a.637.637 0 01.062-.683c.154-.217.354-.41.599-.577.245-.168.497-.312.756-.43.259-.12.444-.207.556-.263.084-.056.126-.098.126-.126 0-.028.133-.07.399-.126.084.112.22.091.41-.063.188-.154.297-.259.325-.315.364-.182.749-.3 1.155-.357a9.134 9.134 0 011.249-.084c.427 0 .871-.007 1.333-.02.462-.015.931-.064 1.407-.148.35-.056.696-.2 1.04-.43.342-.231.692-.47 1.049-.714.357-.245.724-.465 1.102-.661.378-.196.735-.308 1.071-.336l1.89-.105c.924 0 1.844.066 2.76.2.918.132 1.747.31 2.489.535.49.154.973.328 1.449.524.475.196.937.336 1.385.42.266.056.557.07.872.042.315-.028.623-.049.923-.063.301-.014.595 0 .882.042a1.2 1.2 0 01.725.378 1.72 1.72 0 01-.683.126c-.259 0-.388.07-.388.21-.056.168-.007.27.147.305.154.035.273.08.357.136-.056.084-.112.12-.168.105a2.76 2.76 0 00-.21-.042.424.424 0 00-.231.021c-.07.028-.12.126-.147.294-.028.14.014.231.126.273.112.042.245.08.399.116.154.034.325.066.514.094.19.028.34.07.452.126.028-.434 0-.745-.084-.934-.084-.19-.161-.319-.231-.389s-.105-.112-.105-.126c0-.014.112-.063.336-.147m-21.101 1.155c.112-.168.14-.28.084-.336-.056-.056-.15-.084-.284-.084-.133 0-.27.007-.41.021-.14.014-.223.021-.251.021-.238.196-.487.36-.746.494-.259.132-.43.353-.514.66.322-.083.71-.188 1.165-.314.455-.126.774-.28.956-.462m3.989-1.155c.224 0 .402.021.535.063.133.042.249.084.347.126a3.147 3.147 0 00.84.231 5.79 5.79 0 00.493-.294c.217-.14.455-.311.714-.514.259-.203.518-.413.777-.63.259-.217.486-.437.682-.661-.434-.14-.836-.161-1.207-.063-.371.098-.735.248-1.092.451-.357.203-.707.427-1.05.672-.343.245-.69.451-1.04.62m8.651.524a10.6 10.6 0 00.084-.567c.028-.224.07-.455.126-.693.056-.252.098-.51.126-.776-.49-.084-.99-.14-1.501-.168a7.38 7.38 0 00-1.48.063c-.476.07-.907.213-1.292.43a2.213 2.213 0 00-.892.934c.154-.056.301-.115.441-.178.14-.063.322-.067.546-.01.126 0 .189.045.189.136a.877.877 0 01-.063.304c-.042.112-.074.21-.095.294-.02.084.004.126.074.126.574 0 1.183.018 1.827.053.643.035 1.28.052 1.91.052m.42 0c.952 0 1.641-.066 2.068-.2.427-.132.872-.269 1.333-.409-.167-.238-.423-.434-.766-.588a12.33 12.33 0 00-.997-.399 57.845 57.845 0 01-1.239-.356c-.028.265-.07.524-.126.776a9.04 9.04 0 00-.168.651c-.042.196-.077.371-.105.525m-8.86-13.248a2.782 2.782 0 00-.903.902 2.16 2.16 0 01-.315.578 4.493 4.493 0 00-.315.451l-.945-2.1h-.042c.14-.153.26-.328.357-.524.098-.196.217-.413.357-.651.21-.336.399-.595.567-.777.028.056.122.213.283.472.161.26.48.809.956 1.649m-1.239-2.163a3.592 3.592 0 011.764-.777c-.322.07-.634.168-.935.294-.3.126-.577.301-.829.525v-.042m-1.28 1.995c-.099.14-.19.252-.274.336l-.252.252c.084-.084.168-.175.252-.273l.273-.315m8.02-1.344c-.475.168-.958.29-1.448.367-.49.077-.98.158-1.47.242l-1.238-2.247c.433-.056.899-.112 1.396-.168a4.407 4.407 0 001.438-.42l2.33 3.654-1.007-1.428m3.275 5.165a5.335 5.335 0 01-1.659.378c-.531.028-1.035.07-1.511.126l-1.596-2.75c.49-.057.976-.127 1.46-.21.482-.085.997-.21 1.542-.379l1.764 2.835m-8.587-.252c.14-.238.3-.44.483-.609.182-.168.364-.329.546-.483l1.805 3.192c-.406.406-.752.787-1.04 1.144-.286.357-.632.69-1.038.997l-1.491-3.296c.14-.154.259-.308.357-.462a3.53 3.53 0 01.378-.483m-3.402.084c-.238.14-.528.28-.871.42-.343.14-.731.287-1.165.44-.28-.727-.476-1.259-.588-1.595-.084-.238-.154-.44-.21-.609.476-.196.878-.374 1.207-.535.33-.161.627-.312.893-.452.111.35.223.725.335 1.124.112.399.245.801.4 1.207M12.58 19.91a16.142 16.142 0 00-.525-1.721h-.042c.238.574.427 1.148.567 1.721m2.33-.104c.168.63.315 1.21.441 1.742s.238.987.336 1.365c.56-.266 1.05-.511 1.47-.735.42-.224.784-.455 1.092-.693-.42.35-.998.71-1.733 1.081-.734.371-1.746.788-3.034 1.25a31.849 31.849 0 01-.167-.861 594.37 594.37 0 01-.19-.997 13.01 13.01 0 00-.293-1.208c.462-.168.85-.322 1.165-.462.315-.14.62-.3.913-.482m6.404-4.557c-.49.084-.98.186-1.47.305a3.79 3.79 0 00-1.322.598l-1.218-2.31c.35-.293.745-.496 1.186-.608.441-.112.906-.21 1.396-.294l1.428 2.31m-4.556 2.939c-.434.658-1.05 1.197-1.848 1.617l-.399-1.24c-.14-.433-.28-.846-.42-1.238.462-.238.798-.48 1.008-.724.21-.245.434-.522.672-.83l.987 2.415m12.891 4.367L21.482 9.58l.336-.21L29.9 22.388l-.252.168"
         fill-opacity=".949" fill="#fff" />
   </g>
</svg>