<?xml version="1.0" encoding="UTF-8" standalone="no"?>
<svg
   xmlns:dc="http://purl.org/dc/elements/1.1/"
   xmlns:cc="http://creativecommons.org/ns#"
   xmlns:rdf="http://www.w3.org/1999/02/22-rdf-syntax-ns#"
   xmlns:svg="http://www.w3.org/2000/svg"
   xmlns="http://www.w3.org/2000/svg"
   xmlns:sodipodi="http://sodipodi.sourceforge.net/DTD/sodipodi-0.dtd"
   xmlns:inkscape="http://www.inkscape.org/namespaces/inkscape"
   inkscape:version="1.0 (4035a4fb49, 2020-05-01)"
   sodipodi:docname="2610.svg"
   id="svg20"
   version="1.2"
   viewBox="0 0 42.519639 42.519639"
   height="14.999999mm"
   width="14.999999mm">
  <metadata
     id="metadata24">
    <rdf:RDF>
      <cc:Work
         rdf:about="">
        <dc:format>image/svg+xml</dc:format>
        <dc:type
           rdf:resource="http://purl.org/dc/dcmitype/StillImage" />
        <dc:title>Qt SVG Document</dc:title>
      </cc:Work>
    </rdf:RDF>
  </metadata>
  <sodipodi:namedview
     inkscape:current-layer="svg20"
     inkscape:window-maximized="0"
     inkscape:window-y="0"
     inkscape:window-x="0"
     inkscape:cy="28.346482"
     inkscape:cx="28.346482"
     inkscape:zoom="5.8410537"
     showgrid="false"
     id="namedview22"
     inkscape:window-height="480"
     inkscape:window-width="1034"
     inkscape:pageshadow="2"
     inkscape:pageopacity="0"
     guidetolerance="10"
     gridtolerance="10"
     objecttolerance="10"
     borderopacity="1"
     bordercolor="#666666"
     pagecolor="#ffffff" />
  <title
     id="title2">Qt SVG Document</title>
  <desc
     id="desc4">Generated with Qt</desc>
  <defs
     id="defs6" />
  <g
     transform="translate(5.25984,5.25984)"
     id="g18"
     stroke-linejoin="bevel"
     stroke-linecap="square"
     fill-rule="evenodd"
     stroke-width="1"
     stroke="#000000"
     fill="none">
    <g
       id="g10"
       font-style="normal"
       font-weight="400"
       font-size="7.8px"
       font-family="'MS Shell Dlg 2'"
       stroke="none"
       fill-opacity="1"
       fill="#6fa56c">
      <path
         id="path8"
         d="M 37.2598,16 C 37.2598,27.7415 27.7415,37.2598 16,37.2598 4.25851,37.2598 -5.25984,27.7415 -5.25984,16 -5.25984,4.25851 4.25851,-5.25984 16,-5.25984 27.7415,-5.25984 37.2598,4.25851 37.2598,16"
         fill-rule="evenodd"
         vector-effect="non-scaling-stroke" />
    </g>
    <g
       id="g14"
       font-style="normal"
       font-weight="400"
       font-size="7.8px"
       font-family="'MS Shell Dlg 2'"
       transform="translate(16,12.5984)"
       stroke="none"
       fill-opacity="0.94902"
       fill="#ffffff">
      <path
         id="path12"
         d="m 7.52881,15.1958 c 0.34993,0 0.63688,0.1225 0.86084,0.3674 0.22396,0.245 0.33594,0.5284 0.33594,0.8504 0,0.3359 -0.11198,0.6194 -0.33594,0.8503 -0.22396,0.231 -0.51091,0.3465 -0.86084,0.3465 -0.30794,0 -0.58439,-0.1155 -0.82935,-0.3465 -0.24495,-0.2309 -0.36743,-0.5144 -0.36743,-0.8503 0,-0.322 0.12248,-0.6054 0.36743,-0.8504 0.24496,-0.2449 0.52141,-0.3674 0.82935,-0.3674 m 0,1.7217 c 0.34993,0 0.5249,-0.168 0.5249,-0.5039 0,-0.154 -0.05249,-0.28 -0.15747,-0.378 -0.10498,-0.0979 -0.22746,-0.1469 -0.36743,-0.1469 -0.13998,0 -0.25895,0.049 -0.35693,0.1469 -0.09799,0.098 -0.14698,0.224 -0.14698,0.378 0,0.1399 0.04899,0.2589 0.14698,0.3569 0.09798,0.098 0.21695,0.147 0.35693,0.147 M -6.53857,-5.52734 c -0.33594,0 -0.61939,-0.11548 -0.85035,-0.34644 -0.23095,-0.23096 -0.34643,-0.5144 -0.34643,-0.85034 0,-0.32194 0.11548,-0.60539 0.34643,-0.85034 0.23096,-0.24496 0.51441,-0.36743 0.85035,-0.36743 0.32194,0 0.60538,0.12247 0.85034,0.36743 0.24495,0.24495 0.36743,0.5284 0.36743,0.85034 0,0.33594 -0.12248,0.61938 -0.36743,0.85034 -0.24496,0.23096 -0.5284,0.34644 -0.85034,0.34644 m 0,-1.72168 c -0.13998,0 -0.25896,0.04899 -0.35694,0.14697 -0.09798,0.09798 -0.14697,0.22396 -0.14697,0.37793 0,0.33594 0.16797,0.50391 0.50391,0.50391 0.15397,0 0.27994,-0.049 0.37793,-0.14698 0.09798,-0.09798 0.14697,-0.21696 0.14697,-0.35693 0,-0.15397 -0.04899,-0.27995 -0.14697,-0.37793 -0.09799,-0.09798 -0.22396,-0.14697 -0.37793,-0.14697 M -6.74854,13.0962 c -0.43391,0 -0.80135,0.1505 -1.10229,0.4514 -0.30094,0.301 -0.45142,0.6684 -0.45142,1.1023 0,0.3079 0.08749,0.5844 0.26246,0.8293 0.17496,0.245 0.38842,0.4375 0.64038,0.5774 0.04199,0.266 0.14697,0.5249 0.31494,0.7769 -0.5459,-0.056 -0.99732,-0.2904 -1.35425,-0.7034 -0.35693,-0.4129 -0.5354,-0.9063 -0.5354,-1.4802 0,-0.6299 0.21346,-1.1618 0.64038,-1.5957 0.42692,-0.4339 0.95532,-0.6509 1.5852,-0.6509 0.13998,0 0.32894,0.028 0.5669,0.084 l -0.29395,0.6509 c -0.06998,0 -0.11897,-0.007 -0.14697,-0.021 -0.02799,-0.014 -0.06999,-0.021 -0.12598,-0.021 M 2.67871,3.79492 C 3.67253,3.26302 4.56486,2.45817 5.35571,1.38037 6.14657,0.302572 6.81494,-0.824219 7.36084,-2 7.90674,-3.17578 8.33716,-4.28507 8.6521,-5.32788 8.96704,-6.37069 9.15251,-7.12305 9.2085,-7.58496 h 0.73486 c 0,0.11198 -0.05949,0.43392 -0.17847,0.96582 -0.11898,0.5319 -0.29744,1.17578 -0.5354,1.93164 C 8.99154,-3.93164 8.6766,-3.10229 8.28467,-2.19946 7.89274,-1.29663 7.42733,-0.407796 6.88843,0.467041 6.34953,1.34188 5.72664,2.14673 5.01978,2.88159 4.31291,3.61646 3.53255,4.19385 2.67871,4.61377 V 3.79492 m -3.485351,-4.97607 c -0.517899,0 -0.962319,-0.17847 -1.333249,-0.5354 -0.37093,-0.35694 -0.5564,-0.80835 -0.5564,-1.35425 0,-0.5179 0.18547,-0.96232 0.5564,-1.33325 0.37093,-0.37093 0.81535,-0.5564 1.333249,-0.5564 0.517904,0 0.962321,0.18547 1.333252,0.5564 0.370931,0.37093 0.556399,0.81535 0.556399,1.33325 0,0.5459 -0.185468,0.99731 -0.556399,1.35425 -0.370931,0.35693 -0.815348,0.5354 -1.333252,0.5354 M 3.91748,7.93115 0.474121,9.52686 c -0.223958,0.08398 -0.48291006,0.12597 -0.776855,0.12597 -0.139974,0 -0.279948,0 -0.419922,0 -0.139974,0 -0.286944,-0.02799 -0.440914,-0.08398 l -3.04444,7.01265 c -0.13997,0.308 -0.37443,0.5144 -0.70337,0.6194 -0.32894,0.105 -0.66837,0.0525 -1.01831,-0.1574 -0.30794,-0.196 -0.5354,-0.4725 -0.68237,-0.8294 -0.14697,-0.3569 -0.15047,-0.6964 -0.0105,-1.0183 l 3.7583,-8.54541 H 1.90186 V 5.83154 H -2.86426 V 1.98926 L -5.63574,3.08105 C -6.16764,3.30501 -6.60856,3.17204 -6.9585,2.68213 l -2.41455,-3.69531 c -0.13997,-0.22396 -0.18196,-0.48641 -0.12597,-0.78736 0.05599,-0.30094 0.20296,-0.5284 0.44091,-0.68237 0.25196,-0.16797 0.52841,-0.21696 0.82935,-0.14697 0.30094,0.06998 0.5214,0.22396 0.66138,0.46191 l 1.93164,2.96045 3.80029,-1.511718 c 0.16797,-0.05599 0.30794,-0.069987 0.41992,-0.041992 L 0.789063,-0.803223 4.40039,-6.59814 c 0.13997,-0.23796 0.35343,-0.38493 0.64038,-0.44092 0.28695,-0.05599 0.5424,-0.007 0.76636,0.14697 0.26595,0.13997 0.43392,0.36043 0.50391,0.66138 0.06998,0.30094 0.02099,0.56339 -0.14698,0.78735 L 1.90186,1.40137 V 5.83154 L 4.31641,4.69775 C 4.62435,4.55778 4.94979,4.58927 5.29272,4.79224 5.63566,4.9952 5.84912,5.26465 5.93311,5.60059 L 7.10889,10.3457 C 7.19287,10.6816 7.14738,10.9931 6.97241,11.28 6.79744,11.567 6.54199,11.7524 6.20605,11.8364 5.85612,11.9344 5.53068,11.8959 5.22974,11.7209 4.92879,11.546 4.75033,11.2835 4.69434,10.9336 L 3.91748,7.93115 M 1.08301,10.0308 1.90186,9.65283 V 18.2192 H 1.08301 v -8.1884 m 5.29101,2.4985 c 0.05599,-0.028 0.11198,-0.056 0.16797,-0.084 0.05599,-0.028 0.11198,-0.056 0.16797,-0.084 0,0.4619 -0.15747,0.8504 -0.47241,1.1653 -0.31494,0.315 -0.70337,0.4724 -1.16528,0.4724 -0.44792,0 -0.82935,-0.1574 -1.14429,-0.4724 -0.31494,-0.3149 -0.47241,-0.7034 -0.47241,-1.1653 0,-0.5179 0.18196,-0.9168 0.54589,-1.1967 0.05599,0.1119 0.10499,0.2169 0.14698,0.3149 0.04199,0.098 0.11198,0.203 0.20996,0.3149 -0.15397,0.154 -0.23096,0.343 -0.23096,0.5669 0,0.252 0.09448,0.4724 0.28345,0.6614 0.18896,0.189 0.40942,0.2835 0.66138,0.2835 0.23795,0 0.43391,-0.063 0.58789,-0.189 0.15397,-0.126 0.25895,-0.308 0.31494,-0.5459 0.18196,0 0.31494,-0.014 0.39892,-0.042 M -8.07129,2.17822 c -0.40592,0.33594 -0.82585,0.50391 -1.25976,0.50391 -0.47592,0 -0.89585,-0.17847 -1.25975,-0.5354 -0.364,-0.35694 -0.5459,-0.78036 -0.5459,-1.270265 0,-0.391927 0.1085,-0.731364 0.3254,-1.018311 0.217,-0.286946 0.4864,-0.507405 0.8084,-0.661377 0.02797,0.027995 0.04196,0.05599 0.04196,0.083985 0,0.027995 0.014,0.062988 0.04199,0.10498 l 0.29395,0.461914 c -0.5459,0.1399742 -0.8188,0.48291 -0.8188,1.028809 0,0.321935 0.1084,0.587895 0.3254,0.797855 0.21695,0.20996 0.4794,0.31494 0.78735,0.31494 0.34993,0 0.62288,-0.13998 0.81884,-0.41992 l 0.44092,0.60888 M 3.49756,-6.47217 c 0,-0.08398 -0.007,-0.16097 -0.021,-0.23096 -0.01399,-0.06998 -0.02099,-0.15397 -0.02099,-0.25195 0,-0.5319 0.19246,-0.99381 0.57739,-1.38574 0.38493,-0.39193 0.85034,-0.58789 1.39624,-0.58789 0.5459,0 1.01131,0.19596 1.39624,0.58789 0.38493,0.39193 0.57739,0.85384 0.57739,1.38574 0,0.43392 -0.13997,0.83985 -0.41992,1.21778 0.02799,-0.20997 0.02799,-0.42693 0,-0.65088 C 6.91292,-6.58415 6.82194,-6.80111 6.70996,-7.03906 6.68197,-7.34701 6.54549,-7.62345 6.30054,-7.86841 6.05558,-8.11336 5.76514,-8.23584 5.4292,-8.23584 c -0.29395,0 -0.5389,0.08049 -0.73486,0.24146 -0.19597,0.16097 -0.35694,0.35343 -0.48291,0.57739 -0.11198,0.08398 -0.25196,0.23795 -0.41993,0.46191 l -0.29394,0.48291"
         fill-rule="evenodd"
         vector-effect="none" />
    </g>
    <g
       id="g16"
       font-style="normal"
       font-weight="400"
       font-size="7.8px"
       font-family="'MS Shell Dlg 2'"
       stroke="none"
       fill-opacity="1"
       fill="#6fa56c" />
  </g>
</svg>
