<svg xmlns="http://www.w3.org/2000/svg" version="1.2" viewBox="0 0 42.52 42.52" height="56.693" width="56.693">
   <g stroke-linejoin="bevel" stroke-linecap="square" fill-rule="evenodd" stroke="none" fill="none" font-weight="400"
      font-size="7.8" font-family="'MS Shell Dlg 2'">
      <path
         d="M42.52 21.26C42.52 33 33 42.52 21.26 42.52 9.518 42.52 0 33 0 21.26 0 9.518 9.518 0 21.26 0 33 0 42.52 9.518 42.52 21.26"
         vector-effect="non-scaling-stroke" fill="#6fa56c" />
      <path
         d="M28.789 33.054c.35 0 .637.123.86.367.224.245.336.529.336.85 0 .337-.112.62-.336.851-.223.231-.51.347-.86.347-.308 0-.585-.116-.83-.347a1.123 1.123 0 01-.367-.85c0-.322.122-.606.367-.85.245-.245.522-.368.83-.368m0 1.722c.35 0 .525-.168.525-.504a.522.522 0 00-.882-.378.512.512 0 00-.147.378c0 .14.049.259.147.357a.486.486 0 00.357.147M14.72 12.33c-.336 0-.62-.116-.85-.347a1.156 1.156 0 01-.347-.85c0-.322.116-.605.347-.85.23-.245.514-.368.85-.368.322 0 .606.123.85.368.246.245.368.528.368.85 0 .336-.122.62-.367.85a1.202 1.202 0 01-.85.347m0-1.722a.486.486 0 00-.358.147.512.512 0 00-.147.378c0 .336.168.504.504.504.154 0 .28-.049.378-.147a.486.486 0 00.147-.357.512.512 0 00-.147-.378.512.512 0 00-.378-.147m-.21 20.345a1.5 1.5 0 00-1.102.452 1.5 1.5 0 00-.451 1.102c0 .308.087.585.262.83.175.244.388.437.64.577.042.266.147.525.315.777a1.998 1.998 0 01-1.354-.704 2.188 2.188 0 01-.535-1.48c0-.63.213-1.162.64-1.596.427-.433.955-.65 1.585-.65.14 0 .33.028.567.084l-.294.65a.36.36 0 01-.147-.02.292.292 0 00-.126-.022m9.428-9.3c.993-.533 1.886-1.338 2.677-2.415a19.801 19.801 0 002.005-3.38 25.383 25.383 0 001.29-3.329c.316-1.042.501-1.795.557-2.257h.735c0 .112-.06.434-.178.966a24.224 24.224 0 01-.536 1.932 25.668 25.668 0 01-.944 2.488 21.115 21.115 0 01-1.397 2.666 14.262 14.262 0 01-1.868 2.415 8.361 8.361 0 01-2.341 1.732v-.819m-3.486-4.976c-.518 0-.962-.178-1.333-.535-.371-.357-.556-.809-.556-1.355 0-.517.185-.962.556-1.333.37-.37.815-.556 1.333-.556s.963.185 1.333.556c.371.371.557.816.557 1.333 0 .546-.186.998-.557 1.355-.37.357-.815.535-1.333.535m4.724 9.112l-3.443 1.596a2.206 2.206 0 01-.777.126h-.42a1.29 1.29 0 01-.44-.084l-3.045 7.013c-.14.308-.375.514-.704.62-.328.104-.668.052-1.018-.158a1.74 1.74 0 01-.682-.83c-.147-.357-.15-.696-.01-1.018l3.758-8.545h4.766v-.82h-4.766v-3.842l-2.772 1.092c-.532.224-.973.091-1.323-.399l-2.414-3.695c-.14-.224-.182-.486-.126-.787a.99.99 0 01.44-.683 1.02 1.02 0 01.83-.147c.301.07.521.224.661.462l1.932 2.96 3.8-1.511c.168-.056.308-.07.42-.042l2.205-.042 3.611-5.795a.907.907 0 01.64-.44.971.971 0 01.767.146c.266.14.434.36.504.662.07.3.02.563-.147.787l-4.262 6.845v4.43l2.414-1.134c.308-.14.634-.108.977.094.343.203.556.473.64.809l1.176 4.745c.084.336.038.647-.137.934-.175.287-.43.473-.766.557-.35.098-.675.06-.976-.116a1.06 1.06 0 01-.536-.787l-.777-3.003m-2.834 2.1l.819-.378v8.566h-.82V27.89m5.292 2.499l.168-.084.168-.084c0 .461-.158.85-.473 1.165a1.583 1.583 0 01-1.165.472c-.448 0-.83-.157-1.144-.472a1.583 1.583 0 01-.473-1.165c0-.518.182-.917.546-1.197.056.112.105.217.147.315.042.098.112.203.21.315a.77.77 0 00-.23.567c0 .252.094.472.283.66.189.19.41.284.661.284a.898.898 0 00.588-.189c.154-.126.259-.308.315-.545.182 0 .315-.014.399-.042M13.189 20.036c-.406.336-.826.504-1.26.504-.476 0-.896-.178-1.26-.535a1.72 1.72 0 01-.546-1.27c0-.392.109-.732.326-1.019.217-.287.486-.507.808-.661.028.028.042.056.042.084 0 .028.014.063.042.105l.294.462c-.546.14-.819.483-.819 1.029 0 .322.108.588.325.798.217.21.48.314.788.314.35 0 .623-.14.819-.42l.44.61m11.57-8.65a1.18 1.18 0 00-.022-.232 1.913 1.913 0 01.556-1.638c.386-.392.851-.587 1.397-.587s1.011.195 1.396.587c.385.392.578.854.578 1.386 0 .434-.14.84-.42 1.218.028-.21.028-.427 0-.65a7.363 7.363 0 00-.273-.652 1.322 1.322 0 00-.41-.83 1.19 1.19 0 00-.871-.367c-.294 0-.539.08-.735.242a2.024 2.024 0 00-.483.577c-.112.084-.252.238-.42.462l-.294.483"
         fill-opacity=".949" fill="#fff" />
   </g>
</svg>