<?xml version="1.0" encoding="UTF-8" standalone="no"?>
<svg
   xmlns:dc="http://purl.org/dc/elements/1.1/"
   xmlns:cc="http://creativecommons.org/ns#"
   xmlns:rdf="http://www.w3.org/1999/02/22-rdf-syntax-ns#"
   xmlns:svg="http://www.w3.org/2000/svg"
   xmlns="http://www.w3.org/2000/svg"
   xmlns:sodipodi="http://sodipodi.sourceforge.net/DTD/sodipodi-0.dtd"
   xmlns:inkscape="http://www.inkscape.org/namespaces/inkscape"
   inkscape:version="1.0 (4035a4fb49, 2020-05-01)"
   sodipodi:docname="2611.svg"
   id="svg20"
   version="1.2"
   viewBox="0 0 42.519639 42.519639"
   height="14.999999mm"
   width="14.999999mm">
  <metadata
     id="metadata24">
    <rdf:RDF>
      <cc:Work
         rdf:about="">
        <dc:format>image/svg+xml</dc:format>
        <dc:type
           rdf:resource="http://purl.org/dc/dcmitype/StillImage" />
        <dc:title>Qt SVG Document</dc:title>
      </cc:Work>
    </rdf:RDF>
  </metadata>
  <sodipodi:namedview
     inkscape:current-layer="svg20"
     inkscape:window-maximized="0"
     inkscape:window-y="0"
     inkscape:window-x="0"
     inkscape:cy="28.346482"
     inkscape:cx="28.346482"
     inkscape:zoom="5.8410537"
     showgrid="false"
     id="namedview22"
     inkscape:window-height="480"
     inkscape:window-width="1034"
     inkscape:pageshadow="2"
     inkscape:pageopacity="0"
     guidetolerance="10"
     gridtolerance="10"
     objecttolerance="10"
     borderopacity="1"
     bordercolor="#666666"
     pagecolor="#ffffff" />
  <title
     id="title2">Qt SVG Document</title>
  <desc
     id="desc4">Generated with Qt</desc>
  <defs
     id="defs6" />
  <g
     transform="translate(5.25984,5.25984)"
     id="g18"
     stroke-linejoin="bevel"
     stroke-linecap="square"
     fill-rule="evenodd"
     stroke-width="1"
     stroke="#000000"
     fill="none">
    <g
       id="g10"
       font-style="normal"
       font-weight="400"
       font-size="7.8px"
       font-family="'MS Shell Dlg 2'"
       stroke="none"
       fill-opacity="1"
       fill="#6fa56c">
      <path
         id="path8"
         d="M 37.2598,16 C 37.2598,27.7415 27.7415,37.2598 16,37.2598 4.25851,37.2598 -5.25984,27.7415 -5.25984,16 -5.25984,4.25851 4.25851,-5.25984 16,-5.25984 27.7415,-5.25984 37.2598,4.25851 37.2598,16"
         fill-rule="evenodd"
         vector-effect="non-scaling-stroke" />
    </g>
    <g
       id="g14"
       font-style="normal"
       font-weight="400"
       font-size="7.8px"
       font-family="'MS Shell Dlg 2'"
       transform="translate(16,12.0315)"
       stroke="none"
       fill-opacity="0.94902"
       fill="#ffffff">
      <path
         id="path12"
         d="M 0.0161133,-0.845215 -2.69238,1.7373 -0.151855,3.08105 C 0.310059,3.361 0.583008,3.67594 0.666992,4.02588 0.722982,4.19385 0.750977,4.36182 0.750977,4.52979 v 5.64791 c 0,0.308 -0.122478,0.5774 -0.367432,0.8084 -0.244955,0.2309 -0.521403,0.3464 -0.829346,0.3464 -0.349935,0 -0.629879,-0.1155 -0.839839,-0.3464 -0.20997,-0.231 -0.31495,-0.5004 -0.31495,-0.8084 V 5.60059 L -5.98877,3.16504 C -6.50667,2.89909 -6.76563,2.42318 -6.76563,1.7373 c 0,-0.46191 0.11198,-0.846838 0.33594,-1.15478 l 4.3042,-4.22022 c 0.22396,-0.25195 0.49691,-0.40592 0.81885,-0.46191 0.13997,-0.02799 0.27995,-0.04199 0.419921,-0.04199 0.237956,0 0.43392,0.04199 0.587891,0.12597 0.153971,0.08399 0.2869465,0.18197 0.398926,0.29395 0.125976,0.11198 0.244954,0.24495 0.356933,0.39893 L 2.68262,0.141602 H 6 C 6.32194,0.113607 6.5599,0.180094 6.71387,0.341064 6.86784,0.502035 6.94482,0.684001 6.94482,0.886963 6.94482,1.08993 6.86784,1.26839 6.71387,1.42236 6.5599,1.57633 6.32194,1.65332 6,1.65332 H 2.17871 C 2.02474,1.65332 1.87077,1.62533 1.7168,1.56934 1.56283,1.51335 1.41585,1.37337 1.27588,1.14941 L 0.0161133,-0.845215 M 2.09473,-3.15479 c -0.5739,0 -1.06381,-0.20296 -1.46973,-0.60888 C 0.219076,-4.1696 0.0161133,-4.65951 0.0161133,-5.2334 c 0,-0.5459 0.2029627,-1.01131 0.6088867,-1.39624 0.40592,-0.38493 0.89583,-0.57739 1.46973,-0.57739 0.5459,0 1.01131,0.19246 1.39624,0.57739 0.38493,0.38493 0.57739,0.85034 0.57739,1.39624 0,0.57389 -0.19246,1.0638 -0.57739,1.46973 -0.38493,0.40592 -0.85034,0.60888 -1.39624,0.60888 M 7.0708,3.8999 c 0.76986,0 1.50122,0.14348 2.19409,0.43042 0.69287,0.28695 1.29831,0.68587 1.81621,1.19678 0.5179,0.5109 0.9168,1.11279 1.1967,1.80566 0.28,0.69287 0.42,1.42424 0.42,2.1941 0,0.76984 -0.14,1.49774 -0.42,2.18354 -0.2799,0.6859 -0.6788,1.2878 -1.1967,1.8057 -0.5179,0.5179 -1.12334,0.9203 -1.81621,1.2073 -0.69287,0.2869 -1.42423,0.4304 -2.19409,0.4304 -0.76986,0 -1.49772,-0.1435 -2.18359,-0.4304 C 4.20133,14.4364 3.59945,14.034 3.08154,13.5161 2.56364,12.9982 2.16121,12.3963 1.87427,11.7104 1.58732,11.0246 1.44385,10.2967 1.44385,9.52686 1.44385,8.757 1.58732,8.02563 1.87427,7.33276 2.16121,6.63989 2.56364,6.038 3.08154,5.5271 3.59945,5.01619 4.20133,4.61727 4.88721,4.33032 5.57308,4.04338 6.30094,3.8999 7.0708,3.8999 m 0,10.1831 c 0.62988,0 1.22477,-0.1225 1.78467,-0.3674 0.55989,-0.245 1.03931,-0.5739 1.43823,-0.9868 0.3989,-0.413 0.7209,-0.8924 0.9658,-1.4383 0.245,-0.5459 0.3675,-1.1338 0.3675,-1.76364 0,-0.62989 -0.1225,-1.21778 -0.3675,-1.76368 C 11.0146,7.21729 10.6926,6.73787 10.2937,6.32495 9.89478,5.91203 9.41536,5.58309 8.85547,5.33813 8.29557,5.09318 7.70068,4.9707 7.0708,4.9707 6.44092,4.9707 5.85303,5.09318 5.30713,5.33813 4.76123,5.58309 4.28182,5.91203 3.8689,6.32495 3.45597,6.73787 3.12703,7.21729 2.88208,7.76318 2.63713,8.30908 2.51465,8.89697 2.51465,9.52686 c 0,0.62984 0.12248,1.21774 0.36743,1.76364 0.24495,0.5459 0.57389,1.0253 0.98682,1.4383 0.41292,0.4129 0.89233,0.7418 1.43823,0.9868 0.5459,0.2449 1.13379,0.3674 1.76367,0.3674 M -8.02539,3.79492 c 0.78385,0 1.51872,0.15047 2.20459,0.45142 0.68587,0.30094 1.28076,0.71037 1.78467,1.22827 0.5039,0.5179 0.90633,1.11279 1.20727,1.78467 0.30095,0.67187 0.45142,1.39974 0.45142,2.18359 0,0.76983 -0.15047,1.49773 -0.45142,2.18363 -0.30094,0.6858 -0.70337,1.2877 -1.20727,1.8056 -0.50391,0.5179 -1.0988,0.9204 -1.78467,1.2073 -0.68587,0.287 -1.42074,0.4304 -2.20459,0.4304 -0.76986,0 -1.49772,-0.1434 -2.18361,-0.4304 -0.6859,-0.2869 -1.2877,-0.6894 -1.8056,-1.2073 -0.518,-0.5179 -0.9204,-1.1198 -1.2073,-1.8056 -0.287,-0.6859 -0.4304,-1.4138 -0.4304,-2.18363 0,-0.78385 0.1434,-1.51172 0.4304,-2.18359 0.2869,-0.67188 0.6893,-1.26677 1.2073,-1.78467 0.5179,-0.5179 1.1197,-0.92733 1.8056,-1.22827 0.68589,-0.30095 1.41375,-0.45142 2.18361,-0.45142 m 0,10.20408 c 0.62988,0 1.21777,-0.1155 1.76367,-0.3464 0.5459,-0.231 1.02881,-0.5529 1.44873,-0.9658 0.41992,-0.413 0.74886,-0.8924 0.98682,-1.4383 0.23795,-0.5459 0.35693,-1.1478 0.35693,-1.80563 0,-0.62988 -0.11898,-1.21777 -0.35693,-1.76367 C -4.06413,7.1333 -4.39307,6.65039 -4.81299,6.23047 -5.23291,5.81055 -5.71582,5.48161 -6.26172,5.24365 -6.80762,5.0057 -7.39551,4.88672 -8.02539,4.88672 c -0.62988,0 -1.22477,0.11898 -1.78467,0.35693 -0.55994,0.23796 -1.04634,0.5669 -1.45924,0.98682 -0.4129,0.41992 -0.7418,0.90283 -0.9868,1.44873 -0.245,0.5459 -0.3674,1.13379 -0.3674,1.76367 0,0.65783 0.1224,1.25973 0.3674,1.80563 0.245,0.5459 0.5739,1.0253 0.9868,1.4383 0.4129,0.4129 0.8993,0.7348 1.45924,0.9658 0.5599,0.2309 1.15479,0.3464 1.78467,0.3464"
         fill-rule="evenodd"
         vector-effect="none" />
    </g>
    <g
       id="g16"
       font-style="normal"
       font-weight="400"
       font-size="7.8px"
       font-family="'MS Shell Dlg 2'"
       stroke="none"
       fill-opacity="1"
       fill="#6fa56c" />
  </g>
</svg>
