<svg xmlns="http://www.w3.org/2000/svg" version="1.2" viewBox="0 0 42.52 42.52" height="56.693" width="56.693">
   <g stroke-linejoin="bevel" stroke-linecap="square" fill-rule="evenodd" stroke="none" fill="none" font-weight="400"
      font-size="7.8" font-family="'MS Shell Dlg 2'">
      <path
         d="M42.52 21.26C42.52 33 33 42.52 21.26 42.52 9.518 42.52 0 33 0 21.26 0 9.518 9.518 0 21.26 0 33 0 42.52 9.518 42.52 21.26"
         vector-effect="non-scaling-stroke" fill="#6fa56c" />
      <path
         d="M21.276 16.446l-2.709 2.583 2.541 1.343c.462.28.735.595.819.945.056.168.084.336.084.504v5.648c0 .308-.123.577-.368.808-.245.231-.521.347-.829.347-.35 0-.63-.116-.84-.347-.21-.23-.315-.5-.315-.808v-4.577l-4.388-2.436c-.518-.266-.777-.741-.777-1.427 0-.462.112-.847.336-1.155l4.304-4.22c.224-.252.497-.406.82-.462.14-.028.28-.042.42-.042.237 0 .433.042.587.126.154.084.287.182.399.294.126.112.245.245.357.399l2.225 3.464h3.318c.322-.028.56.038.714.2a.77.77 0 01.23.545.735.735 0 01-.23.536c-.154.154-.392.23-.714.23h-3.821c-.154 0-.308-.027-.462-.083-.154-.056-.301-.196-.441-.42l-1.26-1.995m2.079-2.31a2.003 2.003 0 01-1.47-.608 2.003 2.003 0 01-.609-1.47c0-.546.203-1.011.609-1.396a2.059 2.059 0 011.47-.578c.545 0 1.01.193 1.396.578.385.385.577.85.577 1.396 0 .574-.192 1.064-.577 1.47-.385.406-.85.609-1.396.609m4.976 7.054c.77 0 1.5.144 2.194.43a5.62 5.62 0 011.816 1.197c.518.511.917 1.113 1.197 1.806a5.8 5.8 0 01.42 2.194c0 .77-.14 1.498-.42 2.184a5.426 5.426 0 01-1.197 1.805 5.537 5.537 0 01-1.816 1.208 5.678 5.678 0 01-2.194.43 5.601 5.601 0 01-5.197-3.443 5.6 5.6 0 01-.43-2.184c0-.77.143-1.501.43-2.194a5.42 5.42 0 011.207-1.806 5.65 5.65 0 013.99-1.627m0 10.183c.63 0 1.224-.122 1.784-.367a4.46 4.46 0 001.439-.987c.398-.413.72-.892.965-1.438a4.257 4.257 0 00.368-1.764c0-.63-.123-1.218-.368-1.763a4.99 4.99 0 00-.965-1.439 4.46 4.46 0 00-1.439-.987 4.404 4.404 0 00-1.784-.367c-.63 0-1.218.123-1.764.367a4.785 4.785 0 00-1.438.987 4.784 4.784 0 00-.987 1.439 4.258 4.258 0 00-.368 1.763c0 .63.123 1.218.368 1.764s.574 1.025.987 1.438c.413.413.892.742 1.438.987a4.259 4.259 0 001.764.367M13.234 21.086c.784 0 1.52.15 2.205.452.686.3 1.28.71 1.785 1.228a6.13 6.13 0 011.207 1.785c.3.671.451 1.4.451 2.183 0 .77-.15 1.498-.451 2.184a6.05 6.05 0 01-1.207 1.805 5.331 5.331 0 01-1.785 1.208c-.686.287-1.42.43-2.205.43a5.6 5.6 0 01-5.196-3.443 5.6 5.6 0 01-.43-2.184 5.5 5.5 0 011.637-3.968 5.855 5.855 0 011.806-1.228 5.375 5.375 0 012.183-.452m0 10.204a4.48 4.48 0 001.764-.346 4.61 4.61 0 002.436-2.404 4.47 4.47 0 00.357-1.806c0-.63-.12-1.218-.357-1.763a4.67 4.67 0 00-.987-1.45 4.67 4.67 0 00-1.449-.986 4.365 4.365 0 00-1.764-.357c-.63 0-1.224.119-1.784.357a4.481 4.481 0 00-1.46.987c-.412.42-.741.903-.986 1.449a4.257 4.257 0 00-.368 1.763c0 .658.123 1.26.368 1.806s.574 1.025.987 1.438c.412.413.899.735 1.459.966.56.23 1.155.346 1.784.346"
         fill-opacity=".949" fill="#fff" />
   </g>
</svg>