<svg xmlns="http://www.w3.org/2000/svg" version="1.2" viewBox="0 0 42.52 42.52" height="56.693" width="56.693">
   <g stroke-linejoin="bevel" stroke-linecap="square" fill-rule="evenodd" stroke="none" fill="none" font-weight="400"
      font-size="7.8" font-family="'MS Shell Dlg 2'">
      <path
         d="M42.52 21.26C42.52 33 33 42.52 21.26 42.52 9.518 42.52 0 33 0 21.26 0 9.518 9.518 0 21.26 0 33 0 42.52 9.518 42.52 21.26"
         vector-effect="non-scaling-stroke" fill="#6fa56c" />
      <path
         d="M19.151 12.94c.126.224.217.364.273.42l-5.123 2.414c.084.28.284.529.599.746.315.217.472.423.472.619 0 .182-.122.322-.367.42-.245.098-.48.147-.704.147-.084 0-.178-.063-.283-.19a4.482 4.482 0 01-.326-.45 6.928 6.928 0 01-.314-.546 1.935 1.935 0 01-.19-.494l-.083-.084a.69.69 0 01.02-.168c.015-.056.064-.112.148-.168l5.878-2.666m10.247 1.805c.14.308.14.623 0 .945-.168.336-.441.504-.82.504h-2.54l2.835 5.25c.182.405.273.776.273 1.112l-.105 5.942v.399l-2.268 6.13c-.266.49-.637.736-1.113.736h-.399a1.272 1.272 0 01-.661-.662 1.384 1.384 0 01-.074-.934l2.247-5.921V25.41l-.86 3.003a.967.967 0 00-.127.273 1.33 1.33 0 01-.126.294l-3.884 5.753c-.168.294-.395.476-.682.546-.287.07-.57.02-.85-.147-.295-.21-.477-.473-.547-.788a1.087 1.087 0 01.19-.892l3.737-5.606.567-5.585v-.084c0-.224-.063-.444-.19-.661-.125-.217-.28-.487-.461-.809-.112-.168-.333-.504-.662-1.007a81.25 81.25 0 01-1.008-1.586 81.407 81.407 0 00-.965-1.522c-.301-.462-.494-.735-.578-.819-.112-.224-.168-.413-.168-.567 0-.168.042-.332.126-.493a.648.648 0 01.42-.325c.14.056.277.084.41.084h.734a.576.576 0 00.326-.084.467.467 0 00.21-.042.373.373 0 01.168-.042h4.388l-1.848-3.486-1.196.525v-.084a7.184 7.184 0 01-.273-.44l1.217-.547c-.154-.238-.192-.476-.115-.714s.227-.434.451-.587c.238-.084.476-.084.714 0s.434.244.588.482l.084.084.294-.168c.056-.056.112-.063.168-.02a.762.762 0 01.168.188c.126.112.07.224-.168.336l-.168.084 2.54 4.787m-7.306-.902a2.007 2.007 0 01-1.49-.158 1.747 1.747 0 01-.925-1.144c-.168-.49-.115-.97.158-1.438.273-.47.647-.774 1.123-.914.518-.154 1-.108 1.449.137.448.245.77.626.966 1.144.14.49.08.973-.179 1.449-.259.476-.626.784-1.102.924m-7.538 17.07c.322 0 .606.097.85.293a.946.946 0 01.368.777c0 .322-.122.602-.367.84a1.184 1.184 0 01-.85.357c-.309 0-.571-.119-.788-.357a1.206 1.206 0 01-.326-.84c0-.322.109-.58.326-.777.217-.196.48-.294.787-.294m-.987 2.54c.322.253.651.379.987.379.238 0 .448-.035.63-.105.182-.07.35-.161.504-.273a5.666 5.666 0 01-.378.525 1.08 1.08 0 01-.483.336l-.105 1.449h-.336l-.084-1.45c-.406-.153-.65-.44-.735-.86"
         fill-opacity=".949" fill="#fff" />
   </g>
</svg>