<?xml version="1.0" encoding="UTF-8" standalone="no"?>
<svg width="11.25008mm" height="11.25008mm"
 viewBox="-5.3 -5.3 42.52000 42.52000"
 xmlns="http://www.w3.org/2000/svg" xmlns:xlink="http://www.w3.org/1999/xlink"  version="1.2" baseProfile="tiny">
<title>Qt SVG Document</title>
<desc>Generated with Qt</desc>
<defs>
</defs>
<g fill="none" stroke="black" stroke-width="1" fill-rule="evenodd" stroke-linecap="square" stroke-linejoin="bevel" >

<g fill="#6fa56c" fill-opacity="1" stroke="none" transform="matrix(1,0,0,1,0,0)"
font-family="MS Shell Dlg 2" font-size="7.8" font-weight="400" font-style="normal" 
>
<path vector-effect="non-scaling-stroke" fill-rule="evenodd" d="M37.2598,16 C37.2598,27.7415 27.7415,37.2598 16,37.2598 C4.25851,37.2598 -5.25984,27.7415 -5.25984,16 C-5.25984,4.25851 4.25851,-5.25984 16,-5.25984 C27.7415,-5.25984 37.2598,4.25851 37.2598,16 "/>
</g>

<g fill="#ffffff" fill-opacity="0.94902" stroke="none" transform="matrix(1,0,0,1,16,12.5984)"
font-family="MS Shell Dlg 2" font-size="7.8" font-weight="400" font-style="normal" 
>
<path vector-effect="none" fill-rule="evenodd" d="M-2.1084,-4.91846 C-1.98242,-4.6945 -1.89144,-4.55452 -1.83545,-4.49854 L-6.9585,-2.08398 C-6.87451,-1.80404 -6.67505,-1.55558 -6.36011,-1.33862 C-6.04517,-1.12166 -5.8877,-0.915202 -5.8877,-0.719238 C-5.8877,-0.537272 -6.01017,-0.397298 -6.25513,-0.299316 C-6.50008,-0.201335 -6.73454,-0.152344 -6.9585,-0.152344 C-7.04248,-0.152344 -7.13696,-0.215332 -7.24194,-0.341309 C-7.34692,-0.467285 -7.4554,-0.617757 -7.56738,-0.792725 C-7.67936,-0.967692 -7.78434,-1.14966 -7.88232,-1.33862 C-7.98031,-1.52759 -8.04329,-1.69206 -8.07129,-1.83203 L-8.15527,-1.91602 C-8.15527,-1.97201 -8.14827,-2.02799 -8.13428,-2.08398 C-8.12028,-2.13997 -8.07129,-2.19596 -7.9873,-2.25195 L-2.1084,-4.91846 M8.1377,-3.11279 C8.27767,-2.80485 8.27767,-2.48991 8.1377,-2.16797 C7.96973,-1.83203 7.69678,-1.66406 7.31885,-1.66406 L4.77832,-1.66406 L7.61279,3.58496 C7.79476,3.99089 7.88574,4.36182 7.88574,4.69775 L7.78076,10.6396 L7.78076,11.0386 L5.51318,17.1694 C5.24723,17.6593 4.8763,17.9043 4.40039,17.9043 L4.00146,17.9043 C3.69352,17.7643 3.47306,17.5439 3.34009,17.2429 C3.20711,16.942 3.18262,16.6305 3.2666,16.3086 L5.51318,10.3877 L5.51318,7.55322 L4.65234,10.5557 C4.59635,10.6396 4.55436,10.7306 4.52637,10.8286 C4.49837,10.9266 4.45638,11.0246 4.40039,11.1226 L0.516113,16.8755 C0.348145,17.1694 0.120687,17.3514 -0.16626,17.4214 C-0.453206,17.4914 -0.736654,17.4424 -1.0166,17.2744 C-1.31055,17.0645 -1.49251,16.802 -1.5625,16.4871 C-1.63249,16.1721 -1.5695,15.8747 -1.37354,15.5947 L2.36377,9.98877 L2.93066,4.40381 L2.93066,4.31982 C2.93066,4.09587 2.86768,3.87541 2.7417,3.65845 C2.61572,3.44149 2.46175,3.17204 2.27979,2.8501 C2.16781,2.68213 1.94735,2.34619 1.61841,1.84229 C1.28947,1.33838 0.953532,0.809977 0.610596,0.25708 C0.26766,-0.295817 -0.0542806,-0.803223 -0.355225,-1.26514 C-0.656169,-1.72705 -0.848633,-2 -0.932617,-2.08398 C-1.0446,-2.30794 -1.10059,-2.49691 -1.10059,-2.65088 C-1.10059,-2.81885 -1.05859,-2.98332 -0.974609,-3.14429 C-0.890625,-3.30526 -0.750651,-3.41374 -0.554688,-3.46973 C-0.414714,-3.41374 -0.278239,-3.38574 -0.145264,-3.38574 C-0.0122884,-3.38574 0.124186,-3.38574 0.26416,-3.38574 C0.348145,-3.38574 0.456624,-3.38574 0.5896,-3.38574 C0.722575,-3.38574 0.831055,-3.41374 0.915039,-3.46973 C0.999023,-3.46973 1.06901,-3.48372 1.125,-3.51172 C1.18099,-3.53971 1.23698,-3.55371 1.29297,-3.55371 L5.68115,-3.55371 L3.8335,-7.03906 L2.63672,-6.51416 L2.63672,-6.59814 C2.58073,-6.68213 2.53524,-6.75212 2.50024,-6.80811 C2.46525,-6.8641 2.41976,-6.94108 2.36377,-7.03906 L3.58154,-7.58496 C3.42757,-7.82292 3.38908,-8.06087 3.46606,-8.29883 C3.54305,-8.53678 3.69352,-8.73275 3.91748,-8.88672 C4.15544,-8.9707 4.39339,-8.9707 4.63135,-8.88672 C4.8693,-8.80273 5.06527,-8.64176 5.21924,-8.40381 L5.30322,-8.31982 L5.59717,-8.48779 C5.65316,-8.54378 5.70915,-8.55078 5.76514,-8.50879 C5.82113,-8.4668 5.87712,-8.40381 5.93311,-8.31982 C6.05908,-8.20785 6.00309,-8.09587 5.76514,-7.98389 L5.59717,-7.8999 L8.1377,-3.11279 M0.831055,-4.01563 C0.313151,-3.87565 -0.183757,-3.92814 -0.659668,-4.1731 C-1.13558,-4.41805 -1.44352,-4.79948 -1.5835,-5.31738 C-1.75146,-5.80729 -1.69897,-6.2867 -1.42603,-6.75562 C-1.15308,-7.22453 -0.778646,-7.52897 -0.302734,-7.66895 C0.215169,-7.82292 0.698079,-7.77743 1.146,-7.53247 C1.59391,-7.28752 1.91585,-6.90609 2.11182,-6.38818 C2.25179,-5.89827 2.1923,-5.41536 1.93335,-4.93945 C1.6744,-4.46354 1.30697,-4.1556 0.831055,-4.01563 M-6.70654,13.0542 C-6.3846,13.0542 -6.10116,13.1522 -5.8562,13.3481 C-5.61125,13.5441 -5.48877,13.8031 -5.48877,14.125 C-5.48877,14.4469 -5.61125,14.7269 -5.8562,14.9648 C-6.10116,15.2028 -6.3846,15.3218 -6.70654,15.3218 C-7.01449,15.3218 -7.27694,15.2028 -7.4939,14.9648 C-7.71086,14.7269 -7.81934,14.4469 -7.81934,14.125 C-7.81934,13.8031 -7.71086,13.5441 -7.4939,13.3481 C-7.27694,13.1522 -7.01449,13.0542 -6.70654,13.0542 M-7.69336,15.5947 C-7.37142,15.8467 -7.04248,15.9727 -6.70654,15.9727 C-6.46859,15.9727 -6.25863,15.9377 -6.07666,15.8677 C-5.89469,15.7977 -5.72673,15.7067 -5.57275,15.5947 C-5.69873,15.7907 -5.82471,15.9657 -5.95068,16.1196 C-6.07666,16.2736 -6.23763,16.3856 -6.43359,16.4556 L-6.53857,17.9043 L-6.87451,17.9043 L-6.9585,16.4556 C-7.36442,16.3016 -7.60938,16.0146 -7.69336,15.5947 "/>
</g>

<g fill="#6fa56c" fill-opacity="1" stroke="none" transform="matrix(1,0,0,1,0,0)"
font-family="MS Shell Dlg 2" font-size="7.8" font-weight="400" font-style="normal" 
>
</g>
</g>
</svg>
