<svg xmlns="http://www.w3.org/2000/svg" version="1.2" viewBox="0 0 42.52 42.52" height="56.693" width="56.693">
   <g stroke-linejoin="bevel" stroke-linecap="square" fill-rule="evenodd" stroke="none" fill="none" font-weight="400"
      font-size="7.8" font-family="'MS Shell Dlg 2'">
      <path
         d="M42.52 21.26C42.52 33 33 42.52 21.26 42.52 9.518 42.52 0 33 0 21.26 0 9.518 9.518 0 21.26 0 33 0 42.52 9.518 42.52 21.26"
         vector-effect="non-scaling-stroke" fill="#6fa56c" />
      <path
         d="M30.258 34.356l-1.028.084 1.616-.945-.084.86h-.504m3.36-7.537c.112.238.02.497-.273.777a1.316 1.316 0 01-.336.252l-.252-.42c.168-.084.252-.14.252-.168a.284.284 0 00.168-.273c0-.14-.203-.168-.61-.084h-.083l.357 1.134c0 .112-.063.224-.19.336h-.083a.373.373 0 01-.168-.042c-.056-.028-.084-.07-.084-.126l-.336-1.218a.488.488 0 01-.178.147.597.597 0 00-.179.126c-.056.056-.084.14-.084.252.028.028.07.042.126.042.056.028.161.042.315.042l.084.525c-.266 0-.49-.046-.672-.137a.666.666 0 01-.357-.388c-.084-.196 0-.427.252-.693.14-.14.343-.252.609-.336l-2.94-9.805-3.38 1.47a.424.424 0 01-.273.084 3.07 3.07 0 01-.378-.021.593.593 0 01-.315-.147l-2.057-1.302c-.462.896-.858 1.522-1.186 1.88-.33.356-.578.689-.746.997l-1.89.692a.762.762 0 00-.524.525h.042l.042-.084 3.842-.945c.336-.098.65-.042.945.168.224.224.336.54.336.945L22.3 27.595v.168l.336.357c.182-.182.273-.357.273-.525l1.364-5.375 1.197.336c.322.126.553.329.693.609.112.322.084.609-.084.86l-2.75 4.43c-.056 0-.084.029-.084.085l.252.168 7.453 3.065-.483.336 1.848-.86-.693.86-1.533.168.168-.084h-.168l-4.514-1.805 4.41 3.359-.756.693-6.593-5.375-9.616-3.968 1.028-.168 6.236 2.498v-.168h.084l-3.78-3.15.84-.083 3.024 2.372.504-2.981-2.561-.588a2.516 2.516 0 01-.83-.284c-.23-.132-.388-.353-.472-.66-.084-.35-.098-.753-.042-1.208a14.786 14.786 0 01.535-2.52c.105-.329.172-.535.2-.62.056-.237.098-.44.126-.608.028-.168.07-.336.126-.504l-1.89.252-1.932 2.457a1.51 1.51 0 01-.304.23.753.753 0 01-.389.106.982.982 0 01-.692-.252.974.974 0 01-.378-.672 1.081 1.081 0 01.21-.756l.168-.168-1.89-4.22h-.084c-.224 0-.437-.042-.64-.126a.797.797 0 01-.43-.378 1.843 1.843 0 01-.106-.42.637.637 0 01.105-.4c.084-.265.273-.496.567-.692.252-.14.521-.168.808-.084.287.084.5.252.64.504.085.266.085.525 0 .777-.083.322-.223.51-.42.567l1.807 4.031 1.637-2.058c.14-.14.336-.252.588-.336l3.066-.44c.084.237.196.468.335.692.14.266.34.476.599.63.259.154.55.26.871.315a.517.517 0 00.294.084h.378c.924-.084 1.575-.539 1.953-1.365l2.393 1.533 3.066-1.365a.827.827 0 01.766-.042c.259.112.43.294.514.546.168.462.112.84-.167 1.134l2.834 9.89h.252c.266-.057.49-.043.672.041.182.084.308.21.378.378m-22.403-14.11c.056-.055.084-.104.084-.146 0-.042.028-.091.084-.147v-.336c-.238-.238-.413-.329-.525-.273-.112 0-.196.035-.252.105-.112 0-.231.112-.357.336-.056.056-.07.112-.042.168a.373.373 0 01.042.168c.098.21.273.315.525.315l-.252-.567c.168-.168.308-.252.42-.252l.273.63m-1.134-1.323c-.056-.084-.063-.16-.02-.23a.206.206 0 01.188-.106c.07-.056.133-.07.189-.042.056.028.084.07.084.126l.084.084a.478.478 0 00-.44.252l-.085-.084m10.288 4.178c-.518-.154-.913-.43-1.186-.83a1.752 1.752 0 01-.284-1.332c.084-.546.343-.956.777-1.229.434-.273.896-.36 1.386-.262.532.14.934.416 1.207.83.273.412.368.864.284 1.354-.14.517-.417.913-.83 1.186a1.816 1.816 0 01-1.354.283"
         fill-opacity=".949" fill="#fff" />
   </g>
</svg>