<?xml version="1.0" encoding="UTF-8" standalone="no"?>
<svg
   xmlns:dc="http://purl.org/dc/elements/1.1/"
   xmlns:cc="http://creativecommons.org/ns#"
   xmlns:rdf="http://www.w3.org/1999/02/22-rdf-syntax-ns#"
   xmlns:svg="http://www.w3.org/2000/svg"
   xmlns="http://www.w3.org/2000/svg"
   xmlns:sodipodi="http://sodipodi.sourceforge.net/DTD/sodipodi-0.dtd"
   xmlns:inkscape="http://www.inkscape.org/namespaces/inkscape"
   inkscape:version="1.0 (4035a4fb49, 2020-05-01)"
   sodipodi:docname="2613.svg"
   id="svg20"
   version="1.2"
   viewBox="0 0 42.519639 42.519639"
   height="14.999999mm"
   width="14.999999mm">
  <metadata
     id="metadata24">
    <rdf:RDF>
      <cc:Work
         rdf:about="">
        <dc:format>image/svg+xml</dc:format>
        <dc:type
           rdf:resource="http://purl.org/dc/dcmitype/StillImage" />
        <dc:title>Qt SVG Document</dc:title>
      </cc:Work>
    </rdf:RDF>
  </metadata>
  <sodipodi:namedview
     inkscape:current-layer="svg20"
     inkscape:window-maximized="0"
     inkscape:window-y="0"
     inkscape:window-x="0"
     inkscape:cy="28.346482"
     inkscape:cx="28.346482"
     inkscape:zoom="5.8410537"
     showgrid="false"
     id="namedview22"
     inkscape:window-height="480"
     inkscape:window-width="1034"
     inkscape:pageshadow="2"
     inkscape:pageopacity="0"
     guidetolerance="10"
     gridtolerance="10"
     objecttolerance="10"
     borderopacity="1"
     bordercolor="#666666"
     pagecolor="#ffffff" />
  <title
     id="title2">Qt SVG Document</title>
  <desc
     id="desc4">Generated with Qt</desc>
  <defs
     id="defs6" />
  <g
     transform="translate(5.25984,5.25984)"
     id="g18"
     stroke-linejoin="bevel"
     stroke-linecap="square"
     fill-rule="evenodd"
     stroke-width="1"
     stroke="#000000"
     fill="none">
    <g
       id="g10"
       font-style="normal"
       font-weight="400"
       font-size="7.8px"
       font-family="'MS Shell Dlg 2'"
       stroke="none"
       fill-opacity="1"
       fill="#6fa56c">
      <path
         id="path8"
         d="M 37.2598,16 C 37.2598,27.7415 27.7415,37.2598 16,37.2598 4.25851,37.2598 -5.25984,27.7415 -5.25984,16 -5.25984,4.25851 4.25851,-5.25984 16,-5.25984 27.7415,-5.25984 37.2598,4.25851 37.2598,16"
         fill-rule="evenodd"
         vector-effect="non-scaling-stroke" />
    </g>
    <g
       id="g14"
       font-style="normal"
       font-weight="400"
       font-size="7.8px"
       font-family="'MS Shell Dlg 2'"
       transform="translate(16,12.5984)"
       stroke="none"
       fill-opacity="0.94902"
       fill="#ffffff">
      <path
         id="path12"
         d="m 8.99854,16.4976 -1.02881,0.0839 1.6167,-0.9448 -0.08399,0.8609 H 8.99854 M 12.3579,8.95996 c 0.112,0.23796 0.021,0.49691 -0.2729,0.77686 -0.112,0.11198 -0.224,0.19596 -0.336,0.25195 L 11.4971,9.56885 C 11.665,9.48486 11.749,9.42887 11.749,9.40088 c 0.112,-0.05599 0.168,-0.14697 0.168,-0.27295 0,-0.13997 -0.203,-0.16797 -0.6089,-0.08398 h -0.084 l 0.357,1.13375 c 0,0.112 -0.063,0.224 -0.189,0.336 h -0.084 c -0.056,0 -0.112,-0.014 -0.168,-0.042 -0.056,-0.028 -0.0839,-0.07 -0.0839,-0.126 l -0.336,-1.21777 c -0.056,0.06999 -0.1155,0.11898 -0.1785,0.14697 -0.0629,0.028 -0.1224,0.06999 -0.1784,0.12598 -0.056,0.05599 -0.084,0.13997 -0.084,0.25195 0.028,0.028 0.07,0.04199 0.126,0.04199 0.056,0.028 0.1609,0.042 0.3149,0.042 l 0.084,0.52488 c -0.266,0 -0.4899,-0.0455 -0.6719,-0.1365 C 9.95036,10.0343 9.83138,9.90479 9.77539,9.73682 c -0.08398,-0.19597 0,-0.42692 0.25191,-0.69287 0.14,-0.13998 0.343,-0.25196 0.6089,-0.33594 L 7.69678,-1.09717 4.31641,0.372559 C 4.24642,0.428548 4.15544,0.456543 4.04346,0.456543 3.90348,0.456543 3.77751,0.449544 3.66553,0.435547 3.55355,0.421549 3.44857,0.372559 3.35059,0.288574 L 1.29297,-1.01318 C 0.831055,-0.11735 0.435628,0.509033 0.106689,0.865967 -0.222249,1.2229 -0.470703,1.55534 -0.638672,1.86328 L -2.52832,2.55615 c -0.26595,0.08399 -0.44092,0.25895 -0.5249,0.5249 h 0.04199 c 0,0 0.014,-0.02799 0.04199,-0.08398 L 0.873047,2.05225 C 1.20898,1.95426 1.52393,2.01025 1.81787,2.22021 2.04183,2.44417 2.15381,2.75911 2.15381,3.16504 L 1.04102,9.73682 V 9.90479 L 1.37695,10.2617 C 1.55892,10.0798 1.6499,9.90479 1.6499,9.73682 l 1.36475,-5.375 1.19678,0.33593 C 4.53337,4.82373 4.76432,5.02669 4.9043,5.30664 5.01628,5.62858 4.98828,5.91553 4.82031,6.16748 L 2.06982,10.5977 c -0.05599,0 -0.08398,0.028 -0.08398,0.0839 l 0.25195,0.168 7.45362,3.0654 -0.48291,0.336 1.8477,-0.8609 -0.6929,0.8609 -1.53273,0.1679 0.16797,-0.0839 H 8.83057 L 4.31641,12.5293 8.72559,15.8887 7.96973,16.5815 1.37695,11.2065 -8.23926,7.23828 -7.21045,7.07031 -0.974609,9.56885 V 9.40088 h 0.083984 L -4.66992,6.25146 -3.83008,6.16748 -0.806641,8.54004 -0.302734,5.55859 -2.86426,4.9707 C -3.1862,4.91471 -3.46265,4.82023 -3.6936,4.68726 -3.92456,4.55428 -4.08203,4.33382 -4.16602,4.02588 -4.25,3.67594 -4.264,3.27352 -4.20801,2.8186 c 0.05599,-0.45491 0.13298,-0.90633 0.23096,-1.35424 0.09798,-0.44792 0.19946,-0.836349 0.30444,-1.165288 0.10498,-0.3289385 0.17147,-0.5354 0.19947,-0.619385 0.05599,-0.237955 0.09798,-0.440917 0.12597,-0.608886 0.028,-0.167971 0.06999,-0.335941 0.12598,-0.503911 l -1.88965,0.25196 -1.93164,2.45654 C -7.12646,1.35938 -7.22795,1.43636 -7.34692,1.50635 -7.4659,1.57633 -7.59538,1.61133 -7.73535,1.61133 -8.0153,1.61133 -8.24626,1.52734 -8.42822,1.35938 -8.65218,1.17741 -8.77816,0.953451 -8.80615,0.6875 -8.83415,0.421549 -8.76416,0.169596 -8.59619,-0.0683594 L -8.42822,-0.236328 -10.3179,-4.45654 h -0.084 c -0.2239,0 -0.4374,-0.042 -0.6403,-0.12598 -0.203,-0.08398 -0.3465,-0.20996 -0.4305,-0.37793 -0.0559,-0.15397 -0.0909,-0.29394 -0.1049,-0.41992 -0.014,-0.12598 0.021,-0.25895 0.1049,-0.39893 0.084,-0.26595 0.273,-0.4969 0.5669,-0.69287 0.252,-0.13997 0.5214,-0.16797 0.8084,-0.08398 0.28693,0.08398 0.50039,0.25195 0.64037,0.5039 0.08398,0.26595 0.08398,0.52491 0,0.77686 -0.08399,0.32194 -0.22396,0.5109 -0.41992,0.56689 l 1.80566,4.031254 1.6377,-2.057614 c 0.13997,-0.13998 0.33593,-0.25196 0.58789,-0.33594 l 3.06543,-0.44092 c 0.08398,0.23796 0.19596,0.46891 0.33593,0.69287 0.13998,0.26595 0.33944,0.47591 0.59839,0.62989 0.25895,0.15397 0.5494,0.25895 0.871341,0.31494 0.083984,0.05599 0.181966,0.08398 0.293945,0.08398 0.111979,0 0.237956,0 0.37793,0 0.923828,-0.08398 1.574704,-0.5389 1.952634,-1.36475 l 2.39356,1.53272 3.06543,-1.36475 c 0.25195,-0.13997 0.5074,-0.15397 0.76635,-0.04199 0.25896,0.11198 0.43042,0.29395 0.51441,0.5459 0.16797,0.46191 0.11198,0.83984 -0.16797,1.13379 l 2.83452,9.88916 h 0.2519 c 0.266,-0.05599 0.4899,-0.04199 0.6719,0.04199 0.1819,0.08399 0.3079,0.20996 0.3779,0.37793 M -10.0449,-5.14941 c 0.05597,-0.05599 0.08396,-0.10498 0.08396,-0.14698 0,-0.04199 0.028,-0.09098 0.08399,-0.14697 V -5.7793 c -0.23795,-0.23795 -0.41295,-0.32894 -0.52495,-0.27295 -0.1119,0 -0.1959,0.035 -0.2519,0.10498 -0.112,0 -0.231,0.11198 -0.3569,0.33594 -0.056,0.05599 -0.07,0.11198 -0.042,0.16797 0.028,0.05599 0.042,0.11198 0.042,0.16797 0.0979,0.20996 0.2729,0.31494 0.5249,0.31494 l -0.252,-0.56689 c 0.168,-0.16797 0.3079,-0.25196 0.4199,-0.25196 l 0.273,0.62989 m -1.1338,-1.32276 c -0.056,-0.08398 -0.063,-0.16097 -0.021,-0.23096 0.042,-0.06998 0.105,-0.10498 0.189,-0.10498 0.0699,-0.05599 0.1329,-0.06998 0.1889,-0.04199 0.056,0.028 0.084,0.06999 0.084,0.12598 l 0.084,0.08398 c -0.196,0 -0.3429,0.08399 -0.4409,0.25196 l -0.084,-0.08399 m 10.288075,4.17822 C -1.40853,-2.44792 -1.80396,-2.72437 -2.0769,-3.12329 c -0.27295,-0.39893 -0.36744,-0.84334 -0.28345,-1.33325 0.08398,-0.5459 0.34293,-0.95533 0.77685,-1.22827 0.43392,-0.27295 0.895837,-0.36044 1.385746,-0.26246 0.531901,0.13998 0.934326,0.41643 1.207274,0.82935 0.27295,0.41292 0.36743,0.86434 0.28345,1.35425 -0.13998,0.5179 -0.416424,0.91333 -0.829347,1.18628 -0.4129231,0.27295 -0.864339,0.36743 -1.354248,0.28344"
         fill-rule="evenodd"
         vector-effect="none" />
    </g>
    <g
       id="g16"
       font-style="normal"
       font-weight="400"
       font-size="7.8px"
       font-family="'MS Shell Dlg 2'"
       stroke="none"
       fill-opacity="1"
       fill="#6fa56c" />
  </g>
</svg>
