<svg xmlns="http://www.w3.org/2000/svg" version="1.2" viewBox="0 0 41.96 41.96" height="55.947" width="55.947">
   <g stroke-linejoin="bevel" stroke-linecap="square" fill-rule="evenodd" stroke="none" fill="none" font-weight="400"
      font-size="7.8" font-family="'MS Shell Dlg 2'">
      <path d="M41.96 20.98c0 11.587-9.393 20.98-20.98 20.98S0 32.567 0 20.98 9.393 0 20.98 0s20.98 9.393 20.98 20.98"
         vector-effect="non-scaling-stroke" fill="#6fa56c" />
      <path
         d="M15.128 13.209c.182-.014.353-.021.514-.021.161 0 .27.007.326.02l.43.011c.259.007.57.01.934.01h1.323l.126.169c.154.154.22.325.2.514a.603.603 0 01-.284.451.669.669 0 01-.304.074 16.4 16.4 0 01-.725.01c-.224 0-.413.004-.567.011-.154.007-.23.017-.23.031 0 .014.041.14.125.378.084.238.203.518.357.84l.504 1.176.21-.021c.014 0 .137-.017.368-.052.23-.035.532-.074.903-.116.37-.042.797-.094 1.28-.157l1.544-.2 1.522-.2c.483-.062.903-.118 1.26-.167.356-.05.643-.088.86-.116l.326-.042c.014-.014-.014-.112-.084-.294a5.92 5.92 0 00-.294-.63c-.14-.266-.256-.497-.347-.692-.09-.196-.136-.322-.136-.378 0-.098.035-.196.105-.294a2 2 0 01.21-.252c.042-.014.157-.028.346-.042.19-.014.413-.021.672-.021h.85c.308 0 .602.003.882.01a11.158 11.158 0 011.24.095c.433.084.814.23 1.143.44.33.21.57.456.725.735.084.182.122.406.115.672a2.45 2.45 0 01-.136.756c-.07.084-.13.175-.179.273a.678.678 0 01-.178.231c-.196.196-.462.35-.798.462-.336.112-.602.119-.798.021a.557.557 0 01-.325-.273.573.573 0 01-.032-.42c.042-.28.26-.455.651-.525.35-.042.525-.203.525-.483 0-.252-.217-.448-.65-.588a1.938 1.938 0 00-.526-.105 27.846 27.846 0 00-1.008-.042l-1.175-.02.399.797c.112.238.255.55.43.935s.318.738.43 1.06l.483 1.218.357-.105a3.49 3.49 0 01.504-.063c.21-.014.476-.021.798-.021h.514c.133 0 .252.007.357.02l.305.043c.098.014.217.035.357.063.672.196 1.291.48 1.858.85a6.332 6.332 0 012.456 3.024c.245.622.389 1.277.43 1.963a6.347 6.347 0 01-.283 2.152 6.213 6.213 0 01-2.488 3.349c-.602.406-1.266.7-1.994.881-.154.042-.34.077-.557.105a9.962 9.962 0 01-.672.063 7.246 7.246 0 01-.671.011 3.86 3.86 0 01-.557-.053 6.374 6.374 0 01-3.821-2.131 6.269 6.269 0 01-1.512-4.104c0-.882.165-1.708.494-2.478a6.14 6.14 0 011.48-2.079c.084-.084.196-.182.336-.294.14-.111.28-.22.42-.325.14-.105.27-.196.388-.273.12-.077.207-.122.263-.136.014 0 .003-.063-.032-.19a3.86 3.86 0 00-.136-.398 7.158 7.158 0 00-.168-.389c-.056-.119-.091-.178-.105-.178l-.179.262c-.119.175-.276.41-.472.704l-.693 1.039-.861 1.291-2.184 3.276.084.21c.07.196.091.437.063.724a2.067 2.067 0 01-.189.724c-.196.35-.475.637-.84.861-.167.07-.395.12-.682.147-.287.028-.507.014-.661-.042a5.321 5.321 0 00-.336-.084c-.182-.042-.371-.087-.567-.136a14.217 14.217 0 00-.819-.179v.042c0 .028-.031.095-.094.2a1.613 1.613 0 00-.158.367 6.502 6.502 0 01-1.805 2.289c-.756.602-1.638 1.007-2.646 1.217a4.36 4.36 0 01-.661.084 8.783 8.783 0 01-1.48-.042 5.887 5.887 0 01-.63-.105 6.448 6.448 0 01-2.006-.902 6.294 6.294 0 01-2.477-3.339 6.266 6.266 0 01-.284-2.141 6.545 6.545 0 01.557-2.247c.315-.7.745-1.33 1.291-1.89.406-.406.85-.748 1.333-1.028a7.273 7.273 0 011.565-.672 8.153 8.153 0 01.64-.105c.105-.014.227-.021.367-.021h1.04c.133 0 .252.007.357.02l.304.043c.098.014.21.035.336.063a22.861 22.861 0 01.945.336l.336.168.126-.126.2-.305.346-.535.462-.756-.567-1.365-.588-1.323-.588-.042c-.28 0-.455-.014-.525-.042a.651.651 0 01-.231-.188c-.182-.21-.21-.441-.084-.693a.435.435 0 01.304-.252c.133-.028.396-.05.788-.063m10.624 3.968h-.126c-.028 0-.207.021-.536.063l-1.238.157c-.497.063-1.036.13-1.617.2a598.697 598.697 0 00-2.981.367c-.385.05-.627.08-.725.095-.028 0-.042.024-.042.073 0 .05.032.161.095.336.063.175.168.438.315.788.147.35.353.825.619 1.427l1.134 2.562h.315c.098.014.185.031.262.052l.2.053a.264.264 0 00.105.063c.042.014.07.02.084.02.014 0 .126-.153.336-.461.21-.308.472-.69.787-1.144.315-.455.65-.952 1.008-1.491l.997-1.501c.308-.462.563-.85.766-1.166.203-.315.305-.479.305-.493h-.063m-7.475 3.8c-.28-.658-.521-1.218-.724-1.68a14.15 14.15 0 01-.305-.713l-.105.147a11.744 11.744 0 00-.525.819c0 .028.046.084.137.167.091.084.192.196.304.336.434.42.816.917 1.145 1.491.329.574.542 1.127.64 1.659.014.154.077.23.19.23a.312.312 0 00.23-.083c.014-.014-.056-.207-.21-.578-.154-.37-.413-.969-.777-1.795m-4.409-1.343a4.812 4.812 0 00-1.995-.084 5.016 5.016 0 00-1.805.671 5.109 5.109 0 00-1.417 1.302 4.982 4.982 0 00-.85 1.827 3.995 3.995 0 00-.095.556 5.913 5.913 0 000 1.207c.02.196.052.364.094.504.182.784.515 1.474.997 2.069a5 5 0 001.817 1.396c.322.154.616.262.881.325.266.063.574.109.924.137 1.442.084 2.723-.413 3.843-1.491.112-.126.21-.235.294-.326a3.36 3.36 0 00.22-.262 4.624 4.624 0 00.367-.567c.07-.154.13-.294.179-.42.049-.126.06-.196.031-.21l-.283-.073a123.24 123.24 0 00-2.73-.65 53.05 53.05 0 01-.944-.222c-.287-.07-.508-.119-.662-.147-.238-.042-.392-.119-.462-.23a.689.689 0 01-.168-.242c-.028-.077-.003-.206.074-.388a7.48 7.48 0 01.41-.777c.195-.336.482-.805.86-1.407l1.407-2.163-.252-.126a3.67 3.67 0 00-.326-.105 7.125 7.125 0 00-.409-.104m17.637 0a4.61 4.61 0 00-.462-.074c-.182-.021-.35-.038-.504-.052a2.71 2.71 0 00-.42-.011l-.43.021a2.504 2.504 0 00-.357.042c-.105.021-.165.046-.179.074 0 .014.084.258.252.734.168.476.378 1.036.63 1.68.126.322.245.63.357.924.112.294.206.553.283.777.077.224.14.406.19.546.048.14.073.217.073.23a.58.58 0 01-.105.326.71.71 0 01-.21.22c-.28.112-.518.084-.714-.083-.056-.042-.16-.249-.315-.62-.154-.37-.392-.983-.714-1.837-.126-.322-.245-.623-.357-.903a72.528 72.528 0 01-.493-1.27 1.687 1.687 0 01-.074-.22c-.056-.029-.199.038-.43.199a5.98 5.98 0 00-.661.535c-.238.238-.445.48-.62.725s-.34.528-.493.85a4.018 4.018 0 00-.326.86 6.183 6.183 0 00-.136.925 4.73 4.73 0 00.304 2.015 5.51 5.51 0 001.103 1.743c.518.532 1.109.934 1.774 1.207a4.776 4.776 0 002.11.347 6.22 6.22 0 00.945-.137c.266-.063.56-.171.882-.325a4.81 4.81 0 001.931-1.554c.49-.672.805-1.435.945-2.289a4.775 4.775 0 00-.073-1.868 5.055 5.055 0 00-.735-1.659 5.22 5.22 0 00-1.27-1.302 4.834 4.834 0 00-1.701-.776m-15.453 1.175a.488.488 0 00-.095-.073.188.188 0 00-.094-.032l-.147.22c-.098.148-.217.337-.357.568-.14.23-.29.476-.452.735-.16.258-.311.503-.451.734a72.897 72.897 0 01-.483.788c0 .014.088.014.262 0 .175-.014.392-.028.651-.042a93.67 93.67 0 001.69-.115c.267-.022.49-.04.672-.053.182-.014.28-.028.294-.042.042-.014.032-.133-.031-.357a5.299 5.299 0 00-.326-.819 4.945 4.945 0 00-.252-.44c-.097-.155-.199-.305-.304-.452a3.78 3.78 0 00-.315-.389 1.357 1.357 0 00-.262-.23"
         fill-opacity=".949" fill="#fff" />
   </g>
</svg>