<?xml version="1.0" encoding="UTF-8" standalone="no"?>
<svg
   xmlns:dc="http://purl.org/dc/elements/1.1/"
   xmlns:cc="http://creativecommons.org/ns#"
   xmlns:rdf="http://www.w3.org/1999/02/22-rdf-syntax-ns#"
   xmlns:svg="http://www.w3.org/2000/svg"
   xmlns="http://www.w3.org/2000/svg"
   xmlns:sodipodi="http://sodipodi.sourceforge.net/DTD/sodipodi-0.dtd"
   xmlns:inkscape="http://www.inkscape.org/namespaces/inkscape"
   inkscape:version="1.0 (4035a4fb49, 2020-05-01)"
   sodipodi:docname="2614.svg"
   id="svg20"
   version="1.2"
   viewBox="0 0 41.960159 41.960159"
   height="14.802627mm"
   width="14.802627mm">
  <metadata
     id="metadata24">
    <rdf:RDF>
      <cc:Work
         rdf:about="">
        <dc:format>image/svg+xml</dc:format>
        <dc:type
           rdf:resource="http://purl.org/dc/dcmitype/StillImage" />
        <dc:title>Qt SVG Document</dc:title>
      </cc:Work>
    </rdf:RDF>
  </metadata>
  <sodipodi:namedview
     inkscape:current-layer="svg20"
     inkscape:window-maximized="0"
     inkscape:window-y="0"
     inkscape:window-x="0"
     inkscape:cy="27.973442"
     inkscape:cx="27.973442"
     inkscape:zoom="5.8410537"
     showgrid="false"
     id="namedview22"
     inkscape:window-height="480"
     inkscape:window-width="1034"
     inkscape:pageshadow="2"
     inkscape:pageopacity="0"
     guidetolerance="10"
     gridtolerance="10"
     objecttolerance="10"
     borderopacity="1"
     bordercolor="#666666"
     pagecolor="#ffffff" />
  <title
     id="title2">Qt SVG Document</title>
  <desc
     id="desc4">Generated with Qt</desc>
  <defs
     id="defs6" />
  <g
     transform="translate(4.98006,4.98006)"
     id="g18"
     stroke-linejoin="bevel"
     stroke-linecap="square"
     fill-rule="evenodd"
     stroke-width="1"
     stroke="#000000"
     fill="none">
    <g
       id="g10"
       font-style="normal"
       font-weight="400"
       font-size="7.8px"
       font-family="'MS Shell Dlg 2'"
       stroke="none"
       fill-opacity="1"
       fill="#6fa56c">
      <path
         id="path8"
         d="M 36.9801,16 C 36.9801,27.587 27.587,36.9801 16,36.9801 4.41303,36.9801 -4.98006,27.587 -4.98006,16 -4.98006,4.41303 4.41303,-4.98006 16,-4.98006 27.587,-4.98006 36.9801,4.41303 36.9801,16"
         fill-rule="evenodd"
         vector-effect="non-scaling-stroke" />
    </g>
    <g
       id="g14"
       font-style="normal"
       font-weight="400"
       font-size="7.8px"
       font-family="'MS Shell Dlg 2'"
       transform="translate(16.2835,12.0763)"
       stroke="none"
       fill-opacity="0.94902"
       fill="#ffffff">
      <path
         id="path12"
         d="m -6.13574,-3.84766 c 0.18196,-0.01399 0.35343,-0.02099 0.5144,-0.02099 0.16097,0 0.26945,0.007 0.32544,0.02099 0.028,0 0.17147,0.0035 0.43042,0.0105 0.25895,0.007 0.5704,0.0105 0.93433,0.0105 h 1.32275 l 0.12598,0.16797 c 0.15397,0.15397 0.22046,0.32544 0.19946,0.5144 -0.021,0.18897 -0.11548,0.33944 -0.28345,0.45142 -0.06998,0.04199 -0.17146,0.06649 -0.30444,0.07349 -0.13297,0.00699 -0.37443,0.01049 -0.72436,0.01049 -0.22396,0 -0.41293,0.0035 -0.5669,0.0105 -0.15397,0.007 -0.23096,0.0175 -0.23096,0.0315 0,0.01399 0.042,0.13997 0.12598,0.37793 0.08398,0.23795 0.20296,0.5179 0.35693,0.83984 l 0.50391,1.17578 0.20996,-0.020996 c 0.014,0 0.13648,-0.017497 0.36743,-0.05249 0.23096,-0.034994 0.5319,-0.073487 0.90283,-0.115479 0.37094,-0.041992 0.79786,-0.094482 1.280766,-0.15747 0.48291,-0.062989 0.997315,-0.129476 1.543213,-0.199463 C 1.42985,-0.789225 1.93726,-0.855713 2.42017,-0.918701 2.90308,-0.981689 3.323,-1.03768 3.67993,-1.08667 4.03687,-1.13566 4.32381,-1.17415 4.54077,-1.20215 4.75773,-1.23014 4.86621,-1.24414 4.86621,-1.24414 4.88021,-1.25814 4.85221,-1.35612 4.78223,-1.53809 4.71224,-1.72005 4.61426,-1.93001 4.48828,-2.16797 4.34831,-2.43392 4.23283,-2.66488 4.14185,-2.86084 4.05086,-3.0568 4.00537,-3.18278 4.00537,-3.23877 c 0,-0.09798 0.03499,-0.19596 0.10498,-0.29394 0.06999,-0.09799 0.13998,-0.18197 0.20996,-0.25196 0.04199,-0.014 0.15747,-0.02799 0.34644,-0.04199 0.18896,-0.014 0.41292,-0.021 0.67187,-0.021 0.25895,0 0.5424,0 0.85034,0 0.30795,0 0.60189,0.0035 0.88184,0.0105 0.27995,0.007 0.5319,0.021 0.75586,0.04199 0.22396,0.021 0.38493,0.0385 0.48291,0.05249 0.43392,0.08399 0.81535,0.23096 1.14429,0.44092 0.32894,0.20996 0.57044,0.45492 0.72434,0.73487 0.084,0.18196 0.1225,0.40592 0.1155,0.67187 -0.007,0.26595 -0.0525,0.5179 -0.1365,0.75586 -0.07,0.08398 -0.1294,0.174967 -0.17844,0.272949 C 9.92977,-0.768229 9.87028,-0.691243 9.80029,-0.635254 9.60433,-0.43929 9.33838,-0.285319 9.00244,-0.17334 8.6665,-0.0613607 8.40055,-0.054362 8.20459,-0.152344 8.05062,-0.208333 7.94214,-0.299316 7.87915,-0.425293 7.81616,-0.55127 7.80566,-0.691243 7.84766,-0.845215 7.88965,-1.12516 8.10661,-1.30013 8.49854,-1.37012 c 0.34993,-0.04199 0.5249,-0.20296 0.5249,-0.48291 0,-0.25195 -0.21696,-0.44791 -0.65088,-0.58789 C 8.21859,-2.49691 8.04362,-2.5319 7.84766,-2.5459 7.65169,-2.5599 7.31576,-2.57389 6.83984,-2.58789 l -1.17578,-0.021 0.39893,0.79785 c 0.11198,0.23796 0.25545,0.5494 0.43042,0.934331 0.17497,0.384928 0.31844,0.738363 0.43042,1.060303 L 7.40674,1.40137 7.76367,1.29639 C 7.88965,1.26839 8.05762,1.2474 8.26758,1.2334 c 0.20996,-0.014 0.47591,-0.021 0.79785,-0.021 0.20996,0 0.38143,0 0.5144,0 0.13298,0 0.25196,0.007 0.35694,0.021 0.10493,0.014 0.20643,0.02799 0.30443,0.04199 0.098,0.014 0.217,0.03499 0.3569,0.06299 0.6719,0.19596 1.2913,0.47941 1.8582,0.85034 0.5669,0.37093 1.0568,0.81185 1.4697,1.32275 0.4129,0.51091 0.7419,1.0778 0.9868,1.70069 0.245,0.62288 0.3885,1.27726 0.4305,1.96313 0.028,0.74186 -0.0665,1.45923 -0.2835,2.1521 -0.2169,0.69291 -0.5354,1.32271 -0.9553,1.88961 -0.4199,0.5669 -0.9308,1.0533 -1.5327,1.4593 -0.6019,0.4059 -1.2668,0.6998 -1.9947,0.8818 -0.1539,0.042 -0.3394,0.077 -0.5563,0.105 -0.21701,0.028 -0.44097,0.049 -0.67192,0.063 C 9.11792,13.7401 8.89396,13.7436 8.677,13.7366 8.46004,13.7296 8.27458,13.7121 8.12061,13.6841 7.35075,13.5581 6.64038,13.3097 5.9895,12.9387 5.33862,12.5678 4.77523,12.1059 4.29932,11.553 3.8234,11.0001 3.45247,10.3737 3.18652,9.67383 2.92057,8.97396 2.7876,8.2321 2.7876,7.44824 2.7876,6.56641 2.95207,5.74056 3.28101,4.9707 3.60994,4.20085 4.10335,3.50798 4.76123,2.89209 4.84521,2.80811 4.95719,2.71012 5.09717,2.59814 5.23714,2.48617 5.37712,2.37769 5.51709,2.27271 5.65706,2.16772 5.78654,2.07674 5.90552,1.99976 6.0245,1.92277 6.11198,1.87728 6.16797,1.86328 c 0.014,0 0.0035,-0.06299 -0.0315,-0.18896 C 6.10148,1.54834 6.05599,1.41536 6,1.27539 5.94401,1.13542 5.88802,1.00594 5.83203,0.886963 5.77604,0.767985 5.74105,0.708496 5.72705,0.708496 c 0,0 -0.05949,0.087484 -0.17847,0.262451 C 5.42961,1.14591 5.27214,1.38037 5.07617,1.67432 4.88021,1.96826 4.64925,2.3147 4.3833,2.71362 4.11735,3.11255 3.8304,3.54297 3.52246,4.00488 L 1.33887,7.28027 1.42285,7.49023 C 1.49284,7.6862 1.51383,7.92765 1.48584,8.2146 1.45785,8.50155 1.39486,8.743 1.29688,8.93896 1.10091,9.2889 0.820964,9.57585 0.457031,9.7998 0.289063,9.86979 0.0616048,9.91878 -0.225342,9.94678 -0.512288,9.97477 -0.732747,9.96077 -0.886719,9.90479 -0.928711,9.89079 -1.04069,9.86279 -1.22266,9.8208 -1.40462,9.77881 -1.59359,9.73332 -1.78955,9.68433 -1.98551,9.63534 -2.16748,9.59334 -2.33545,9.55835 -2.50342,9.52336 -2.5944,9.50586 -2.6084,9.50586 v 0.04199 c 0,0.028 -0.03149,0.09448 -0.09448,0.19946 -0.06299,0.10498 -0.11548,0.22746 -0.15747,0.36739 -0.44792,0.9239 -1.04981,1.6867 -1.80567,2.2886 -0.75586,0.6019 -1.63769,1.0078 -2.6455,1.2178 -0.19597,0.042 -0.41643,0.07 -0.66138,0.084 -0.24495,0.014 -0.49341,0.0175 -0.74536,0.0105 -0.25195,-0.007 -0.49691,-0.0245 -0.73487,-0.0525 -0.23795,-0.028 -0.44791,-0.063 -0.62987,-0.105 -0.7419,-0.196 -1.4102,-0.4969 -2.0051,-0.9028 -0.5949,-0.406 -1.1023,-0.8924 -1.5223,-1.4593 -0.4199,-0.5668 -0.7383,-1.1932 -0.9553,-1.87911 -0.2169,-0.68587 -0.3114,-1.39974 -0.2834,-2.1416 0.056,-0.79785 0.2414,-1.54671 0.5564,-2.24658 0.3149,-0.69987 0.7453,-1.32975 1.2912,-1.88965 0.406,-0.40592 0.8504,-0.74886 1.3333,-1.02881 0.4829,-0.27994 1.0043,-0.5039 1.5642,-0.67187 0.13997,-0.028 0.25545,-0.04899 0.34643,-0.06299 0.09098,-0.014 0.18897,-0.02799 0.29395,-0.04199 0.10498,-0.014 0.22745,-0.021 0.36743,-0.021 0.13997,0 0.31494,0 0.5249,0 0.20996,0 0.38143,0 0.51441,0 0.13297,0 0.25195,0.007 0.35693,0.021 0.10498,0.014 0.20646,0.02799 0.30444,0.04199 0.09798,0.014 0.20996,0.03499 0.33594,0.06299 0.16797,0.05599 0.33944,0.11548 0.5144,0.17847 0.17497,0.06298 0.31844,0.11547 0.43042,0.15747 l 0.33594,0.16797 0.12598,-0.12598 C -5.62484,1.67432 -5.55835,1.57284 -5.45337,1.41187 -5.34839,1.2509 -5.23291,1.07243 -5.10693,0.876465 l 0.46191,-0.75586 -0.56689,-1.364745 -0.58789,-1.32275 -0.5879,-0.042 c -0.27994,0 -0.45491,-0.01399 -0.5249,-0.04199 -0.06998,-0.02799 -0.14697,-0.09098 -0.23095,-0.18896 -0.18197,-0.20996 -0.20997,-0.44092 -0.08399,-0.69287 0.06999,-0.13998 0.17147,-0.22396 0.30444,-0.25196 0.13298,-0.02799 0.39543,-0.04899 0.78736,-0.06299 M 4.48828,0.120605 H 4.3623 c -0.02799,0 -0.20646,0.020997 -0.5354,0.062989 C 3.49797,0.225586 3.08504,0.278076 2.58813,0.341064 2.09123,0.404053 1.55233,0.47054 0.971436,0.540527 0.390544,0.610514 -0.155355,0.677002 -0.66626,0.73999 -1.17716,0.802979 -1.62508,0.858968 -2.01001,0.907959 -2.39494,0.95695 -2.63639,0.988444 -2.73438,1.00244 c -0.02799,0 -0.04199,0.0245 -0.04199,0.07349 0,0.04899 0.0315,0.16097 0.09449,0.33594 0.06298,0.17496 0.16796,0.43741 0.31494,0.78735 0.14697,0.34993 0.35343,0.82585 0.61938,1.42773 l 1.13379,2.56153 h 0.314942 c 0.097982,0.01399 0.185465,0.03149 0.262451,0.05249 0.0769857,0.02099 0.143473,0.03849 0.199463,0.05249 0.027995,0.02799 0.062988,0.04899 0.10498,0.06299 0.041993,0.01399 0.069987,0.02099 0.083985,0.02099 0.013997,0 0.125976,-0.15397 0.335937,-0.46191 C 0.897949,5.60758 1.1604,5.22616 1.47534,4.77124 1.79028,4.31632 2.12622,3.81942 2.48315,3.28052 2.84009,2.74162 3.17253,2.24121 3.48047,1.7793 3.78841,1.31738 4.04386,0.928955 4.24683,0.614014 4.44979,0.299072 4.55127,0.134603 4.55127,0.120605 H 4.48828 M -2.98633,3.9209 C -3.26628,3.26302 -3.50773,2.70313 -3.71069,2.24121 -3.91366,1.7793 -4.01514,1.54134 -4.01514,1.52734 c 0,0 -0.03499,0.04899 -0.10498,0.14698 -0.06998,0.09798 -0.14347,0.20646 -0.22046,0.32544 -0.07698,0.11897 -0.14697,0.23095 -0.20996,0.33593 -0.06299,0.10498 -0.09448,0.15747 -0.09448,0.15747 0,0.028 0.04549,0.08399 0.13648,0.16797 0.09098,0.08399 0.19246,0.19597 0.30444,0.33594 0.43392,0.41992 0.81535,0.91683 1.14429,1.49072 0.32893,0.5739 0.54239,1.12679 0.64038,1.65869 0.01399,0.15398 0.07698,0.23096 0.18896,0.23096 0.09798,0 0.17497,-0.02799 0.23096,-0.08398 C -1.98551,6.27946 -2.0555,6.087 -2.20947,5.71606 -2.36344,5.34513 -2.6224,4.74674 -2.98633,3.9209 M -7.39551,2.57715 C -8.06738,2.40918 -8.73226,2.38118 -9.39014,2.49316 -10.048,2.60514 -10.6499,2.8291 -11.1958,3.16504 c -0.5459,0.33594 -1.0183,0.76986 -1.4172,1.30176 -0.399,0.5319 -0.6824,1.14078 -0.8504,1.82666 -0.042,0.16797 -0.0735,0.35343 -0.0945,0.55639 -0.021,0.20297 -0.0315,0.40593 -0.0315,0.60889 0,0.20296 0.0105,0.40243 0.0315,0.59839 0.021,0.19596 0.0525,0.36393 0.0945,0.50391 0.182,0.78385 0.5144,1.47326 0.9973,2.06816 0.4829,0.5948 1.0883,1.0603 1.8162,1.3962 0.3219,0.154 0.6159,0.2624 0.88183,0.3254 0.26595,0.063 0.5739,0.1085 0.92383,0.1365 1.44173,0.084 2.7225,-0.4129 3.84229,-1.4907 0.11198,-0.126 0.20996,-0.2345 0.29394,-0.3255 0.08399,-0.0909 0.15747,-0.1784 0.22046,-0.2624 0.06299,-0.084 0.12248,-0.168 0.17847,-0.252 0.05599,-0.0839 0.11898,-0.18893 0.18896,-0.3149 0.06999,-0.15397 0.12948,-0.29395 0.17847,-0.41992 0.04899,-0.12598 0.05949,-0.19597 0.03149,-0.20997 0,0 -0.09448,-0.02449 -0.28344,-0.07348 C -4.38257,9.08944 -4.62052,9.02995 -4.90747,8.95996 -5.19442,8.88997 -5.51636,8.81299 -5.87329,8.729 -6.23022,8.64502 -6.58016,8.56453 -6.9231,8.48755 -7.26603,8.41056 -7.58097,8.33708 -7.86792,8.26709 -8.15487,8.1971 -8.37533,8.14811 -8.5293,8.12012 -8.76725,8.07813 -8.92122,8.00114 -8.99121,7.88916 -9.0752,7.80518 -9.13118,7.72469 -9.15918,7.64771 -9.18717,7.57072 -9.16268,7.44124 -9.08569,7.25928 -9.00871,7.07731 -8.87223,6.81836 -8.67627,6.48242 -8.48031,6.14648 -8.19336,5.67757 -7.81543,5.07568 L -6.40869,2.91309 -6.66064,2.78711 C -6.73063,2.75911 -6.83911,2.72412 -6.98608,2.68213 -7.13306,2.64014 -7.26953,2.60514 -7.39551,2.57715 m 17.63671,0 C 10.1152,2.54915 9.96126,2.52466 9.7793,2.50366 9.59733,2.48267 9.42936,2.46517 9.27539,2.45117 9.14941,2.43717 9.00944,2.43368 8.85547,2.44067 c -0.15397,0.007 -0.29745,0.014 -0.43042,0.021 -0.13298,0.007 -0.25195,0.021 -0.35693,0.04199 -0.10499,0.021 -0.16447,0.04549 -0.17847,0.07349 0,0.014 0.08398,0.25895 0.25195,0.73486 0.16797,0.47591 0.37793,1.03581 0.62988,1.67969 0.12598,0.32194 0.24496,0.62988 0.35694,0.92383 0.11198,0.29394 0.20646,0.55289 0.28345,0.77685 0.07698,0.22396 0.13997,0.40593 0.18896,0.5459 0.04899,0.13998 0.07349,0.21696 0.07349,0.23096 0,0.11198 -0.035,0.22046 -0.10498,0.32544 C 9.49935,7.89966 9.42936,7.97314 9.35938,8.01514 9.07943,8.12712 8.84147,8.09912 8.64551,7.93115 8.58952,7.88916 8.48454,7.6827 8.33057,7.31177 8.1766,6.94084 7.93864,6.32845 7.6167,5.47461 7.49072,5.15267 7.37174,4.85173 7.25977,4.57178 7.14779,4.29183 7.0498,4.04338 6.96582,3.82642 6.88184,3.60946 6.81535,3.43449 6.76636,3.30151 6.71737,3.16854 6.69287,3.09505 6.69287,3.08105 6.63688,3.05306 6.49341,3.11955 6.26245,3.28052 6.03149,3.44149 5.81104,3.61995 5.60107,3.81592 5.36312,4.05387 5.15666,4.29533 4.98169,4.54028 4.80672,4.78524 4.64225,5.06868 4.48828,5.39063 4.33431,5.69857 4.22583,5.98551 4.16284,6.25146 4.09985,6.51742 4.05436,6.82536 4.02637,7.17529 3.98438,7.88916 4.08586,8.56104 4.33081,9.19092 4.57576,9.8208 4.9432,10.4017 5.43311,10.9336 c 0.5179,0.5319 1.10929,0.9343 1.77417,1.2073 0.66487,0.2729 1.36824,0.3884 2.1101,0.3464 0.36394,-0.028 0.67888,-0.0735 0.94482,-0.1365 0.266,-0.063 0.5599,-0.1714 0.8818,-0.3254 0.7979,-0.3639 1.4418,-0.8818 1.9317,-1.5537 C 13.5656,9.7998 13.8805,9.03695 14.0205,8.18311 14.1185,7.53923 14.094,6.91634 13.947,6.31445 13.8,5.71257 13.5551,5.15967 13.2122,4.65576 12.8692,4.15186 12.4458,3.71794 11.9419,3.354 11.438,2.99007 10.8711,2.73112 10.2412,2.57715 M -5.21191,3.75293 C -5.23991,3.72493 -5.2714,3.70044 -5.3064,3.67944 -5.34139,3.65845 -5.37288,3.64795 -5.40088,3.64795 c 0,0 -0.04899,0.07349 -0.14697,0.22046 -0.09798,0.14697 -0.21696,0.33594 -0.35694,0.56689 -0.13997,0.23096 -0.29044,0.47591 -0.45141,0.73487 -0.16097,0.25895 -0.31144,0.5039 -0.45142,0.73486 -0.13997,0.23096 -0.25545,0.41992 -0.34643,0.56689 -0.09099,0.14698 -0.13648,0.22046 -0.13648,0.22046 0,0.014 0.08749,0.014 0.26245,0 0.17497,-0.01399 0.39193,-0.02799 0.65088,-0.04199 0.25895,-0.014 0.5389,-0.03149 0.83985,-0.05249 0.30094,-0.021 0.58439,-0.04199 0.85034,-0.06299 0.26595,-0.02099 0.48991,-0.03849 0.67187,-0.05249 0.18197,-0.014 0.27995,-0.02799 0.29395,-0.04199 C -3.6792,6.42643 -3.6897,6.30745 -3.75269,6.0835 -3.81567,5.85954 -3.92415,5.58659 -4.07813,5.26465 -4.14811,5.12467 -4.2321,4.9777 -4.33008,4.82373 -4.42806,4.66976 -4.52954,4.51929 -4.63452,4.37231 -4.7395,4.22534 -4.84448,4.09587 -4.94946,3.98389 -5.05444,3.87191 -5.14193,3.79492 -5.21191,3.75293"
         fill-rule="evenodd"
         vector-effect="none" />
    </g>
    <g
       id="g16"
       font-style="normal"
       font-weight="400"
       font-size="7.8px"
       font-family="'MS Shell Dlg 2'"
       stroke="none"
       fill-opacity="1"
       fill="#6fa56c" />
  </g>
</svg>
