<svg xmlns="http://www.w3.org/2000/svg" version="1.2" viewBox="0 0 41.96 41.96" height="55.947" width="55.947">
   <g stroke-linejoin="bevel" stroke-linecap="square" fill-rule="evenodd" stroke="none" fill="none" font-weight="400"
      font-size="7.8" font-family="'MS Shell Dlg 2'">
      <path d="M41.96 20.98c0 11.587-9.393 20.98-20.98 20.98S0 32.567 0 20.98 9.393 0 20.98 0s20.98 9.393 20.98 20.98"
         vector-effect="non-scaling-stroke" fill="#6fa56c" />
      <path
         d="M25.706 30.069c-.238 0-.427-.074-.567-.22a.774.774 0 01-.21-.557v-4.913h-3.737l-.651 1.175 1.323 3.444c.154.14.192.3.115.483-.077.182-.2.35-.367.504a.647.647 0 01-.536.02 1.106 1.106 0 01-.493-.377l-1.596-3.906v-1.154l-.777 1.07v3.654c0 .224-.07.41-.21.556-.14.147-.329.22-.567.22-.223 0-.398-.073-.524-.22a.824.824 0 01-.19-.556v-4.137l.63-.944v-3.297l-.63.903v2.75h-1.133v-2.75c0-.462.15-.857.451-1.186a1.484 1.484 0 011.145-.494h7.495l4.598-4.787-.189 1.302 2.33 1.407c.14.154.25.336.326.546.077.21.039.406-.115.588a.51.51 0 01-.294.336c-.14.056-.28.084-.42.084l-.273-.084c-.084.49-.304.87-.661 1.144-.357.273-.795.41-1.313.41-.224 0-.399-.029-.525-.085l-1.658 3.486v4.808a.754.754 0 01-.777.777m2.624-9.428h.336c.406 0 .746-.115 1.019-.346a2.21 2.21 0 00.62-.85l-1.303-.168-.672 1.364M13.696 30.845h18.015v2.016H11.597V18.248l-2.184.588v-2.1l22.298-6.53v2.184l-18.015 5.207v13.248"
         fill-opacity=".949" fill="#fff" />
   </g>
</svg>