<?xml version="1.0" encoding="UTF-8" standalone="no"?>
<svg
   xmlns:dc="http://purl.org/dc/elements/1.1/"
   xmlns:cc="http://creativecommons.org/ns#"
   xmlns:rdf="http://www.w3.org/1999/02/22-rdf-syntax-ns#"
   xmlns:svg="http://www.w3.org/2000/svg"
   xmlns="http://www.w3.org/2000/svg"
   xmlns:sodipodi="http://sodipodi.sourceforge.net/DTD/sodipodi-0.dtd"
   xmlns:inkscape="http://www.inkscape.org/namespaces/inkscape"
   inkscape:version="1.0 (4035a4fb49, 2020-05-01)"
   sodipodi:docname="2616.svg"
   id="svg20"
   version="1.2"
   viewBox="0 0 41.960159 41.960159"
   height="14.802627mm"
   width="14.802627mm">
  <metadata
     id="metadata24">
    <rdf:RDF>
      <cc:Work
         rdf:about="">
        <dc:format>image/svg+xml</dc:format>
        <dc:type
           rdf:resource="http://purl.org/dc/dcmitype/StillImage" />
        <dc:title>Qt SVG Document</dc:title>
      </cc:Work>
    </rdf:RDF>
  </metadata>
  <sodipodi:namedview
     inkscape:current-layer="svg20"
     inkscape:window-maximized="0"
     inkscape:window-y="0"
     inkscape:window-x="0"
     inkscape:cy="27.973442"
     inkscape:cx="27.973442"
     inkscape:zoom="5.8410537"
     showgrid="false"
     id="namedview22"
     inkscape:window-height="480"
     inkscape:window-width="1034"
     inkscape:pageshadow="2"
     inkscape:pageopacity="0"
     guidetolerance="10"
     gridtolerance="10"
     objecttolerance="10"
     borderopacity="1"
     bordercolor="#666666"
     pagecolor="#ffffff" />
  <title
     id="title2">Qt SVG Document</title>
  <desc
     id="desc4">Generated with Qt</desc>
  <defs
     id="defs6" />
  <g
     transform="translate(4.98006,4.98006)"
     id="g18"
     stroke-linejoin="bevel"
     stroke-linecap="square"
     fill-rule="evenodd"
     stroke-width="1"
     stroke="#000000"
     fill="none">
    <g
       id="g10"
       font-style="normal"
       font-weight="400"
       font-size="7.8px"
       font-family="'MS Shell Dlg 2'"
       stroke="none"
       fill-opacity="1"
       fill="#6fa56c">
      <path
         id="path8"
         d="M 36.9801,16 C 36.9801,27.587 27.587,36.9801 16,36.9801 4.41303,36.9801 -4.98006,27.587 -4.98006,16 -4.98006,4.41303 4.41303,-4.98006 16,-4.98006 27.587,-4.98006 36.9801,4.41303 36.9801,16"
         fill-rule="evenodd"
         vector-effect="non-scaling-stroke" />
    </g>
    <g
       id="g14"
       font-style="normal"
       font-weight="400"
       font-size="7.8px"
       font-family="'MS Shell Dlg 2'"
       transform="translate(18.2677,11.4646)"
       stroke="none"
       fill-opacity="0.94902"
       fill="#ffffff">
      <path
         id="path12"
         d="m -14.9346,19.458 c -0.1819,0 -0.3569,-0.0525 -0.5249,-0.1575 -0.1679,-0.1049 -0.2729,-0.2554 -0.3149,-0.4514 -0.07,-0.2379 -0.0455,-0.4654 0.0735,-0.6824 0.119,-0.2169 0.2974,-0.3604 0.5354,-0.4304 L 0.875488,13.1382 3.29004,9.7998 C 3.40202,9.65983 3.59798,9.54085 3.87793,9.44287 L 15.9087,7.44824 c 0.2379,-0.02799 0.4549,0.028 0.6509,0.16797 0.1959,0.13997 0.3079,0.32894 0.3359,0.5669 0.042,0.25195 -0.007,0.47591 -0.147,0.67187 -0.1399,0.19596 -0.3359,0.31494 -0.5879,0.35693 L 4.52881,11.1436 2.13525,14.3979 c -0.13997,0.182 -0.30094,0.294 -0.48291,0.336 L -14.6826,19.437 c -0.042,0.014 -0.126,0.021 -0.252,0.021 M 13.1372,0.414551 c 0.3219,0.797849 0.4829,1.606199 0.4829,2.425049 0,0.81885 -0.175,1.6132 -0.5249,2.38306 C 12.7733,6.00651 12.3184,6.68538 11.7305,7.25928 11.1426,7.83317 10.4637,8.28109 9.69385,8.60303 9.31592,8.743 8.92749,8.85148 8.52856,8.92847 8.12964,9.00545 7.73421,9.04395 7.34229,9.04395 6.92236,9.04395 6.50594,9.00195 6.09302,8.91797 5.68009,8.83398 5.27767,8.70101 4.88574,8.51904 4.10189,8.1971 3.42651,7.74569 2.85962,7.16479 2.29272,6.5839 1.85531,5.90153 1.54736,5.11768 1.30941,4.55778 1.15894,3.98739 1.09595,3.40649 1.03296,2.8256 1.05046,2.25171 1.14844,1.68481 1.24642,1.11792 1.42139,0.575521 1.67334,0.0576172 1.92529,-0.460286 2.24023,-0.936198 2.61816,-1.37012 L 1.12744,-3.0708 -1.91699,8.2041 c -0.014,0.028 -0.028,0.05599 -0.04199,0.08399 -0.014,0.02799 -0.028,0.06998 -0.042,0.12597 l -0.02099,0.021 c -0.08399,0.11198 -0.14698,0.18896 -0.18897,0.23096 -0.01399,0.01399 -0.02799,0.02099 -0.04199,0.02099 -0.014,0 -0.021,0.007 -0.021,0.021 C -2.31592,8.736 -2.35791,8.7535 -2.3999,8.7605 c -0.04199,0.007 -0.07699,0.02449 -0.10498,0.05249 -0.014,0 -0.021,0.007 -0.021,0.02099 v 0.021 l -2.09961,0.5249 c 0.12598,1.10582 -0.02799,2.16962 -0.46191,3.19142 -0.32194,0.7558 -0.77686,1.4242 -1.36475,2.0051 -0.58789,0.5809 -1.28076,1.0323 -2.07861,1.3543 -0.75586,0.2939 -1.53974,0.4409 -2.35154,0.4409 -0.4059,0 -0.8119,-0.0385 -1.2178,-0.1155 -0.4059,-0.077 -0.8048,-0.2065 -1.1968,-0.3884 -0.7978,-0.322 -1.4837,-0.7769 -2.0576,-1.3648 -0.5739,-0.5879 -1.0148,-1.2737 -1.3227,-2.0576 -0.322,-0.7698 -0.476,-1.5677 -0.462,-2.3935 0.014,-0.82589 0.175,-1.63074 0.4829,-2.41459 0.336,-0.75586 0.8014,-1.42424 1.3963,-2.00513 0.5949,-0.58089 1.2773,-1.03231 2.0471,-1.35425 0.4059,-0.16797 0.8224,-0.29044 1.2493,-0.36743 0.4269,-0.07699 0.8433,-0.10148 1.2492,-0.07349 l 0.7559,-4.640133 -0.7559,-1.049807 -1.6796,0.67188 c -0.196,0.08398 -0.4165,0.08048 -0.6614,-0.0105 -0.245,-0.09098 -0.4094,-0.24146 -0.4934,-0.45142 -0.084,-0.23795 -0.077,-0.47241 0.021,-0.70337 0.0979,-0.23095 0.2589,-0.39542 0.4829,-0.4934 l 2.3305,-0.92383 c 0.182,-0.06999 0.3745,-0.07699 0.5774,-0.021 0.203,0.05599 0.36047,0.15397 0.47245,0.29395 l 0.96582,1.40674 8.377441,-3.40137 c 0.139974,-0.33594 0.132975,-0.65088 -0.020996,-0.94483 -0.069987,-0.22395 -0.181966,-0.40592 -0.335938,-0.54589 -0.153971,-0.13998 -0.321937,-0.25896 -0.503907,-0.35694 -0.22396,-0.09798 -0.38143,-0.25895 -0.47241,-0.48291 -0.09098,-0.22396 -0.08049,-0.43392 0.03149,-0.62988 0.06999,-0.23796 0.22396,-0.40593 0.46192,-0.50391 0.237953,-0.09798 0.461911,-0.09798 0.671872,0 0.4059247,0.16797 0.766358,0.40943 1.081299,0.72437 0.314941,0.31494 0.549399,0.68237 0.703369,1.10229 0.13997,0.27995 0.22046,0.5634 0.24146,0.85034 0.02099,0.28695 0.00349,0.59139 -0.05249,0.91333 l 2.43554,2.83448 c 0.18197,-0.11198 0.36043,-0.20646 0.5354,-0.28345 0.17497,-0.07699 0.36044,-0.15747 0.5564,-0.24145 0.79785,-0.33594 1.6097,-0.49341 2.43555,-0.47242 0.82584,0.021 1.6062,0.18897 2.34106,0.50391 0.73487,0.31494 1.39627,0.76636 1.98417,1.35425 0.5879,0.58789 1.0428,1.280759 1.3647,2.078611 M -8.97168,4.10986 c 0.83984,0.27995 1.6132,0.72437 2.32007,1.33326 0.70687,0.60888 1.24227,1.35424 1.6062,2.23608 L -4.22656,7.44824 -8.53076,1.27539 -8.97168,4.10986 M -9.72754,8.87598 -6.83008,8.14111 C -7.09603,7.59521 -7.43896,7.1333 -7.85889,6.75537 -8.27881,6.37744 -8.75472,6.09049 -9.28662,5.89453 l -0.44092,2.98145 m 3.00244,3.00242 c 0.15397,-0.3219 0.25895,-0.6544 0.31494,-0.9973 0.05599,-0.3429 0.06999,-0.6824 0.042,-1.01831 l -4.26224,1.09181 h -0.2519 c -0.084,0 -0.1785,-0.014 -0.2835,-0.042 -0.105,-0.028 -0.2064,-0.077 -0.3044,-0.147 -0.112,-0.112 -0.189,-0.2414 -0.231,-0.3884 -0.042,-0.147 -0.042,-0.2974 0,-0.45142 l 0.6719,-4.3042 c -0.238,0 -0.4864,0.0245 -0.7454,0.07349 -0.2589,0.04899 -0.5074,0.12947 -0.7453,0.24145 -0.5879,0.22396 -1.0918,0.5459 -1.5117,0.96582 -0.42,0.41993 -0.7454,0.89934 -0.9764,1.43824 -0.2309,0.5389 -0.3534,1.10579 -0.3674,1.70072 -0.014,0.5948 0.098,1.1792 0.3359,1.7531 0.49,1.1618 1.2878,1.9737 2.3936,2.4356 1.1618,0.4899 2.3236,0.5109 3.48536,0.063 0.55989,-0.238 1.0463,-0.5669 1.45922,-0.9868 0.41293,-0.42 0.73837,-0.8959 0.97632,-1.4278 m 6.08887,-15.28514 -7.0127,2.792482 4.47217,6.529788 2.54053,-9.32227 M 9.02197,6.96533 C 9.60986,6.72738 10.1103,6.39494 10.5232,5.96802 10.9361,5.5411 11.2546,5.06169 11.4785,4.52979 11.7025,3.99788 11.8215,3.43449 11.8354,2.8396 11.8494,2.24471 11.7445,1.66032 11.5205,1.08643 11.1566,0.218587 10.5932,-0.470785 9.83032,-0.981689 9.06746,-1.49259 8.23812,-1.74805 7.34229,-1.74805 6.7404,-1.74805 6.1805,-1.62907 5.6626,-1.39111 5.55062,-1.36312 5.45614,-1.33162 5.37915,-1.29663 5.30216,-1.26164 5.22168,-1.20915 5.1377,-1.13916 L 8.01416,2.17822 C 8.18213,2.37419 8.25562,2.59465 8.23462,2.8396 8.21362,3.08455 8.10514,3.28402 7.90918,3.43799 7.83919,3.52197 7.75521,3.57796 7.65723,3.60596 7.55924,3.63395 7.45426,3.64795 7.34229,3.64795 7.09033,3.64795 6.85938,3.54297 6.64941,3.33301 L 3.79395,0.015625 C 3.31803,0.63151 3.01359,1.33138 2.88062,2.11523 2.74764,2.89909 2.84212,3.67594 3.16406,4.4458 3.38802,5.01969 3.71346,5.5166 4.14038,5.93652 4.5673,6.35645 5.04321,6.67839 5.56812,6.90234 6.09302,7.1263 6.65291,7.24878 7.2478,7.26978 7.84269,7.29077 8.43408,7.18929 9.02197,6.96533"
         fill-rule="evenodd"
         vector-effect="none" />
    </g>
    <g
       id="g16"
       font-style="normal"
       font-weight="400"
       font-size="7.8px"
       font-family="'MS Shell Dlg 2'"
       stroke="none"
       fill-opacity="1"
       fill="#6fa56c" />
  </g>
</svg>
