<svg xmlns="http://www.w3.org/2000/svg" version="1.2" viewBox="0 0 41.96 41.96" height="55.947" width="55.947">
   <g stroke-linejoin="bevel" stroke-linecap="square" fill-rule="evenodd" stroke="none" fill="none" font-weight="400"
      font-size="7.8" font-family="'MS Shell Dlg 2'">
      <path d="M41.96 20.98c0 11.587-9.393 20.98-20.98 20.98S0 32.567 0 20.98 9.393 0 20.98 0s20.98 9.393 20.98 20.98"
         vector-effect="non-scaling-stroke" fill="#6fa56c" />
      <path
         d="M8.313 35.903a.976.976 0 01-.525-.158.679.679 0 01-.315-.451.861.861 0 01.074-.683.867.867 0 01.535-.43l16.041-4.598 2.415-3.339c.112-.14.308-.258.588-.356l12.03-1.995a.903.903 0 01.651.168c.196.14.308.329.336.567a.866.866 0 01-.147.672.866.866 0 01-.588.357l-11.631 1.931-2.394 3.255c-.14.182-.3.294-.483.336L8.565 35.882a.962.962 0 01-.252.02M36.385 16.86c.322.798.483 1.606.483 2.425a5.7 5.7 0 01-.525 2.383 5.993 5.993 0 01-1.365 2.037 6.45 6.45 0 01-2.036 1.344c-.378.14-.767.248-1.166.325a6.25 6.25 0 01-2.435-.01 5.428 5.428 0 01-1.207-.4 5.957 5.957 0 01-2.027-1.354 6.078 6.078 0 01-1.312-2.047 6.014 6.014 0 01-.451-1.71 6.16 6.16 0 01.052-1.723c.098-.566.273-1.109.525-1.627s.567-.994.945-1.427l-1.49-1.701-3.045 11.275-.042.084a.65.65 0 00-.042.126l-.021.02a2.413 2.413 0 01-.19.232c-.013.014-.027.02-.041.02-.014 0-.021.008-.021.022a.323.323 0 01-.126.052.188.188 0 00-.105.053c-.014 0-.021.007-.021.02v.022l-2.1.525a6.228 6.228 0 01-.462 3.191 6.25 6.25 0 01-3.443 3.36 6.521 6.521 0 01-3.57.325 5.09 5.09 0 01-1.196-.389 5.948 5.948 0 01-2.058-1.364 6.11 6.11 0 01-1.322-2.058 5.88 5.88 0 01-.462-2.394c.014-.825.175-1.63.482-2.414a6.428 6.428 0 011.397-2.005 6.485 6.485 0 012.047-1.355c.406-.167.822-.29 1.25-.367a5.058 5.058 0 011.248-.073l.756-4.64-.756-1.05-1.68.672c-.195.083-.416.08-.66-.011-.246-.091-.41-.241-.494-.451a.94.94 0 01.021-.704.902.902 0 01.483-.493l2.33-.924a.902.902 0 01.578-.021c.203.056.36.154.472.294l.966 1.407 8.377-3.402c.14-.336.133-.65-.02-.945a1.206 1.206 0 00-.336-.545 2.529 2.529 0 00-.504-.357.865.865 0 01-.473-.483.688.688 0 01.032-.63.754.754 0 01.462-.504.804.804 0 01.672 0c.405.168.766.41 1.08.724.316.315.55.683.704 1.103.14.28.22.563.242.85.02.287.003.591-.053.913l2.436 2.835c.182-.112.36-.207.535-.284.175-.077.36-.157.556-.241a5.833 5.833 0 012.436-.473 6.293 6.293 0 012.341.504 6.297 6.297 0 013.349 3.433m-22.109 3.696c.84.28 1.613.724 2.32 1.333a5.853 5.853 0 011.606 2.236l.82-.231-4.305-6.173-.44 2.835m-.757 4.766l2.898-.735a4.376 4.376 0 00-2.457-2.247l-.44 2.982m3.002 3.002c.154-.322.259-.654.315-.997.056-.343.07-.683.042-1.019L12.617 27.4h-.252c-.084 0-.178-.014-.283-.042a.94.94 0 01-.304-.147.887.887 0 01-.231-.388.824.824 0 010-.452l.671-4.304c-.238 0-.486.025-.745.074-.259.049-.507.13-.745.241a4.244 4.244 0 00-1.512.966 4.555 4.555 0 00-1.344 3.139c-.014.595.098 1.18.336 1.753.49 1.162 1.288 1.974 2.394 2.436 1.162.49 2.323.51 3.485.063a4.483 4.483 0 001.46-.987c.412-.42.738-.896.976-1.428m6.089-15.285l-7.013 2.792 4.472 6.53 2.54-9.322M32.27 23.41a4.305 4.305 0 001.501-.997 4.591 4.591 0 00.997-4.882 4.546 4.546 0 00-1.69-2.068 4.382 4.382 0 00-2.488-.766c-.602 0-1.162.119-1.68.357-.112.028-.206.059-.283.094a1.087 1.087 0 00-.242.157l2.877 3.318a.868.868 0 01.22.661.821.821 0 01-.325.599.504.504 0 01-.252.168 1.142 1.142 0 01-.315.042c-.252 0-.483-.105-.693-.315l-2.855-3.318a4.652 4.652 0 00-.914 2.1 4.138 4.138 0 00.284 2.33c.224.574.55 1.071.976 1.491a4.6 4.6 0 001.428.966 4.661 4.661 0 001.68.367 4.497 4.497 0 001.774-.304"
         fill-opacity=".949" fill="#fff" />
   </g>
</svg>