<svg xmlns="http://www.w3.org/2000/svg" version="1.2" viewBox="0 0 41.96 41.96" height="55.947" width="55.947">
   <g stroke-linejoin="bevel" stroke-linecap="square" fill-rule="evenodd" stroke="none" fill="none" font-weight="400"
      font-size="7.8" font-family="'MS Shell Dlg 2'">
      <path d="M41.96 20.98c0 11.587-9.393 20.98-20.98 20.98S0 32.567 0 20.98 9.393 0 20.98 0s20.98 9.393 20.98 20.98"
         vector-effect="non-scaling-stroke" fill="#489174" />
      <path
         d="M11.366 20.767c.042-.042.084-.042.126 0 .224.084.517.2.881.347.364.147.721.293 1.071.44.35.147.662.277.935.389.272.112.437.175.493.189v-.924c0-.07-.028-.105-.084-.105-.546-.238-1.092-.472-1.638-.703-.546-.231-1.092-.466-1.637-.704a.223.223 0 00-.19 0 8.27 8.27 0 01-.66.315c-.232.098-.466.196-.704.294-.07.042-.207.109-.41.2a121.895 121.895 0 01-1.354.598c-.224.098-.392.168-.504.21-.014 0-.02.007-.02.021l-.022.042v1.05c.056-.014.235-.091.536-.231.3-.14.647-.298 1.039-.473.392-.175.787-.35 1.186-.524.4-.175.718-.319.956-.43m3.947 3.757v-1.427l.126-.084c.182-.07.353-.14.514-.21.161-.07.333-.147.515-.231l1.952-.82 2.31-.986h.168a95.74 95.74 0 011.501.599 231.84 231.84 0 012.404.997c.308.126.623.252.945.378.056.028.084.084.084.168v1.196l-.609-.23-2.645-1.008c-.28-.098-.553-.196-.82-.294a12.85 12.85 0 01-.776-.315c-.14-.042-.26-.028-.357.042l-2.31.966-2.708 1.154-.158.063a1.09 1.09 0 01-.136.042m0 4.935v-1.386c0-.014.01-.035.031-.063.021-.028.046-.042.074-.042.28-.112.56-.231.84-.357.28-.126.567-.245.86-.357a63.998 63.998 0 011.764-.766c.588-.245 1.176-.5 1.764-.767.084-.056.175-.056.273 0 .448.196.903.382 1.365.557.461.175.916.353 1.364.535l2.058.86c.07.015.105.07.105.169v1.197a2.077 2.077 0 01-.315-.105 7.37 7.37 0 00-.315-.126c-.28-.112-.567-.22-.86-.326a24.56 24.56 0 01-.862-.325l-2.582-.987c-.07-.028-.12-.028-.147 0-.364.14-.71.283-1.04.43-.328.147-.66.298-.997.452-.532.21-1.067.427-1.606.65-.539.225-1.074.456-1.606.693l-.168.063m10.519-2.897a5.78 5.78 0 01-.609-.23l-3.15-1.198c-.195-.07-.388-.143-.577-.22a14.21 14.21 0 00-.577-.22.327.327 0 00-.231 0l-3.255 1.427a16.21 16.21 0 00-.934.357 72.773 72.773 0 00-1.05.451c-.035.021-.08.046-.136.074v-1.407c0-.042.042-.077.126-.105l.966-.44 3.36-1.428c.153-.07.307-.137.461-.2.154-.063.315-.122.483-.178.056-.056.126-.056.21 0 .686.28 1.368.556 2.047.829.679.273 1.361.55 2.047.83.126.07.245.122.357.157.112.035.238.08.378.136.042.028.063.056.063.084 0 .056.003.144.01.263.007.119.01.245.01.378v.64m-.041 4.913c-.154-.07-.308-.136-.462-.2a3.997 3.997 0 00-.462-.157 27.145 27.145 0 01-1.323-.493 57.432 57.432 0 00-1.322-.515l-.662-.262a8.332 8.332 0 00-.703-.241c-.028-.028-.056-.035-.084-.021a.186.186 0 01-.084.02c-.574.252-1.14.494-1.7.725-.56.23-1.12.465-1.68.703-.308.14-.623.273-.945.4-.322.125-.637.265-.945.42-.07.027-.105.048-.105.062v-1.428c0-.028.02-.063.063-.105l1.092-.462 1.091-.462c.518-.21 1.036-.426 1.554-.65.518-.224 1.043-.448 1.575-.672.056-.056.119-.056.189 0 .364.14.724.283 1.081.43.357.147.71.305 1.06.473.896.335 1.778.692 2.646 1.07.084.014.126.077.126.19v1.175m.042-17.196c-.182-.07-.368-.14-.556-.21-.19-.07-.382-.147-.578-.23l-2.666-.987-1.113-.462h-.147c-.532.238-1.053.465-1.564.682-.511.217-1.019.437-1.523.661l-2.162.924a.186.186 0 01-.084.021.186.186 0 00-.084.021v-1.406c0-.014.028-.05.084-.105a18.138 18.138 0 001.931-.798c.406-.154.802-.322 1.187-.504s.773-.357 1.165-.525l1.05-.42h.147c.504.196 1 .395 1.49.598l1.491.62.924.378c.308.126.623.245.945.357l.063.063c.014.014.02.042.02.084v1.238h-.02m0 2.478l-.819-.315c-.364-.154-.738-.301-1.123-.441s-.774-.287-1.166-.44c-.28-.113-.566-.221-.86-.326-.294-.105-.588-.22-.882-.347-.112-.042-.21-.035-.294.021l-4.115 1.743-1.134.504h-.105v-.284-.41c0-.14.003-.276.01-.409.007-.132.018-.227.032-.283 0-.028.028-.056.084-.084l2.687-1.155c.42-.196.847-.385 1.281-.567.434-.182.868-.357 1.302-.525.07-.07.14-.07.21 0l3.023 1.218 1.806.714.073.074c.021.02.025.066.01.136v1.176h-.02m-10.52 2.876v-1.406c0-.042.043-.077.127-.105l1.827-.798a68.185 68.185 0 011.648-.693 68.242 68.242 0 001.648-.693.499.499 0 01.2-.073.793.793 0 01.262.031c.672.28 1.33.556 1.973.83.644.272 1.302.528 1.974.766.126.07.252.133.378.189.126.056.259.112.399.168.042 0 .063.02.063.063 0 .056.003.143.01.262.007.12.01.249.01.389v.65a5.718 5.718 0 01-.199-.084 2.475 2.475 0 00-.22-.084l-3.191-1.238-1.302-.462c-.084-.042-.147-.042-.19 0-.615.252-1.22.504-1.815.756s-1.194.51-1.795.776c-.294.112-.578.231-.85.357-.274.126-.557.245-.851.357 0 .028-.035.042-.105.042m10.498 2.058c-.168-.07-.322-.137-.462-.2a2.989 2.989 0 00-.44-.157c-.295-.112-.582-.224-.862-.336-.28-.112-.56-.23-.84-.357l-2.288-.84c-.056-.028-.133-.028-.231 0-.63.252-1.25.511-1.858.777-.61.266-1.222.532-1.837.798-.266.112-.518.224-.756.336a14.31 14.31 0 01-.777.336.161.161 0 00-.063.02l-.084.043v-1.428c0-.056.035-.084.105-.084.588-.28 1.183-.539 1.785-.777a28.652 28.652 0 001.784-.777l1.743-.734c.056-.028.105-.028.147 0 .658.28 1.312.552 1.963.818.65.266 1.312.54 1.984.82.154.055.305.115.452.178.147.063.304.13.472.2.042 0 .063.013.063.041v1.323m.462 3.99c0-.043.003-.116.01-.221s.01-.214.01-.326v-.315a.737.737 0 00-.02-.21c0-.042.035-.098.105-.168.756-.308 1.505-.619 2.246-.934l2.247-.955c.056-.056.112-.056.168 0 .574.238 1.137.469 1.69.693.553.224 1.116.448 1.69.672l.714.335c.056.028.084.056.084.084v.987a16.607 16.607 0 00-.42-.147 3.058 3.058 0 01-.399-.168l-2.12-.798a6.695 6.695 0 00-.588-.22 4.161 4.161 0 01-.588-.241.311.311 0 00-.273 0c-.42.182-.833.353-1.239.514-.406.16-.805.34-1.197.535-.321.126-.64.26-.955.4-.315.14-.626.272-.934.398l-.231.084m8.944-4.493l-.65-.23-2.31-.883a12.44 12.44 0 00-.578-.23c-.189-.07-.381-.14-.577-.21-.112-.057-.203-.057-.273 0l-2.667 1.112c-.293.126-.584.252-.87.378-.288.126-.578.252-.872.378-.028.028-.077.042-.147.042v-.556c0-.26.007-.445.02-.557 0-.042.029-.077.085-.105l2.183-.924c.378-.154.753-.311 1.124-.472.37-.161.76-.318 1.165-.472.056-.056.133-.056.23 0 .673.238 1.33.496 1.975.776.643.28 1.301.553 1.973.82.154.07.224.16.21.272 0 .028-.003.08-.01.158-.007.077-.01.164-.01.262V21.187m-8.945 6.55v-.24-.326c0-.112.003-.22.01-.325.007-.105.018-.186.032-.242 0-.028.014-.049.042-.063l.084-.042a9.11 9.11 0 01.65-.273c.225-.084.442-.182.652-.294l3.023-1.26a.445.445 0 01.378 0c.672.266 1.337.532 1.995.798.657.266 1.322.54 1.994.82.056 0 .084.034.084.104v.966a1.1 1.1 0 01-.252-.063l-.21-.084-3.191-1.239-.19-.063a.738.738 0 00-.43-.105 1.828 1.828 0 00-.43.105c-.672.308-1.34.602-2.005.882-.665.28-1.333.567-2.005.86a.13.13 0 01-.095.043.327.327 0 00-.136.042m0-4.136V22.53c0-.056.014-.091.042-.105a.137.137 0 00.063-.063c.294-.112.588-.228.882-.347.294-.119.58-.248.86-.388l1.365-.577c.448-.19.896-.382 1.344-.578h.21l3.737 1.533c.056.028.102.052.137.073a.582.582 0 00.115.053c.126.014.19.09.19.23a.59.59 0 00-.022.18v.262c0 .098.004.185.01.262.008.077.011.137.011.179l-.336-.126a35.105 35.105 0 00-1.375-.525 98.955 98.955 0 01-1.375-.504l-1.071-.441a.328.328 0 00-.231 0l-1.417.609c-.455.196-.914.406-1.375.63-.266.098-.532.203-.798.315-.266.112-.525.224-.777.336l-.19.063m8.987-4.494a1.423 1.423 0 01-.378-.115 1.533 1.533 0 00-.315-.116c-.588-.237-1.172-.468-1.753-.692a468.42 468.42 0 00-1.753-.672.299.299 0 00-.168.042c-.714.28-1.41.567-2.09.86-.678.295-1.374.588-2.088.882l-.4.168v-.241-.326-.325-.22c0-.07.036-.105.106-.105l2.288-.966c.364-.154.725-.305 1.082-.452.357-.147.717-.297 1.081-.451.056-.042.126-.042.21 0 .546.21 1.092.423 1.638.64.546.217 1.098.445 1.658.683.126.07.256.126.389.168.133.042.262.098.388.168.056.028.084.063.084.105 0 .028.004.087.01.178.008.091.011.189.011.294v.494m-20.387 8.608l-1.848-.735a10.259 10.259 0 00-.766-.304 10.26 10.26 0 01-.766-.305c-.042-.014-.105-.007-.19.021l-2.246 1.029-1.239.525a.227.227 0 01-.168.063v-1.008c0-.042.035-.077.105-.105l1.26-.546c.378-.182.756-.357 1.134-.525.378-.168.77-.329 1.176-.483a.13.13 0 01.094-.042h.095c.545.224 1.088.455 1.627.693.539.238 1.081.476 1.627.714.07.042.105.091.105.147v.86m0-1.847c-.182-.084-.35-.157-.504-.22-.154-.063-.308-.13-.462-.2a46.986 46.986 0 01-1.197-.472c-.392-.161-.79-.319-1.196-.473h-.095a.13.13 0 00-.094.042l-2.646 1.155-.882.4c-.028.027-.049.041-.063.041a.161.161 0 00-.063.021v-1.05c0-.042.028-.063.084-.063.35-.154.693-.311 1.03-.472.335-.161.678-.319 1.028-.473l1.49-.65a.308.308 0 01.253-.021c.531.238 1.07.472 1.616.703.546.231 1.085.465 1.617.703.056.028.084.077.084.147v.882m0 5.585a95.35 95.35 0 01-.514-.2 10.243 10.243 0 00-.494-.178l-2.33-.945a.21.21 0 00-.252 0l-3.507 1.575c-.042 0-.084.021-.126.063v-1.05c0-.042.028-.063.084-.063.238-.126.48-.238.725-.336a9.25 9.25 0 00.703-.315c.364-.168.724-.328 1.081-.482.357-.154.718-.308 1.082-.462.056-.056.105-.063.147-.021.545.238 1.095.472 1.648.703.553.23 1.102.465 1.648.703.07 0 .105.063.105.19v.818m-7.202-7.16v-.965c0-.028.007-.056.021-.084.014-.028.035-.042.063-.042.504-.224 1.005-.448 1.501-.672.497-.224.99-.441 1.48-.651l.61-.294c.056-.056.112-.056.168 0 .545.238 1.088.472 1.627.703.539.231 1.095.466 1.669.704.056.014.084.063.084.147V24a1.843 1.843 0 00-.315-.125 4.148 4.148 0 01-.315-.105c-.35-.14-.693-.28-1.029-.42-.336-.14-.672-.273-1.008-.4a2.721 2.721 0 00-.356-.146 2.722 2.722 0 01-.357-.147h-.168c-.602.28-1.208.553-1.817.819l-1.816.797-.02.021H7.67m0 5.606v-.986c0-.042.028-.091.084-.147l1.344-.588 2.184-1.008a.756.756 0 01.252 0c.405.182.797.36 1.175.535.378.175.763.34 1.155.494l.504.21.504.21v.966l-.126-.042c-.448-.168-.878-.34-1.291-.515a32.937 32.937 0 00-1.292-.514l-.692-.252c-.056-.028-.098-.028-.126 0L8.153 29.67c-.07.042-.15.08-.241.115a1.553 1.553 0 00-.242.115m16.503-19.862l-1.155-.42c-.28-.126-.563-.241-.85-.346a8.2 8.2 0 01-.85-.368.968.968 0 00-.494-.105 1.353 1.353 0 00-.472.147c-.518.238-1.036.47-1.554.693-.518.224-1.043.455-1.574.693l-.063.021v-.23-.305-.284-.189c0-.028.01-.045.031-.052a.207.207 0 00.074-.053l1.511-.65 1.89-.861a.409.409 0 01.315 0c.518.238 1.032.458 1.543.66.51.204 1.025.424 1.543.662.07.042.105.105.105.19v.797m0 1.7l-1.155-.42c-.28-.111-.563-.223-.85-.335-.287-.112-.57-.238-.85-.378a.884.884 0 00-.494-.094 1.957 1.957 0 00-.472.136c-.518.238-1.036.469-1.554.693-.518.224-1.043.455-1.574.693l-.063.02v-.23-.305-.283-.19c0-.027.01-.045.031-.052a.207.207 0 00.074-.052l1.511-.65 1.89-.862a.409.409 0 01.315 0c.518.238 1.032.459 1.543.662.51.203 1.025.423 1.543.661.07.042.105.105.105.189v.798m11.044 16.755c0-.042-.007-.07-.02-.084l-.064-.063-2.068-.83-2.068-.829h-.168c-.098.042-.35.147-.756.315s-.85.357-1.333.567l-1.407.609c-.455.196-.773.336-.955.42-.07.028-.105.049-.105.063v1.133l.23-.042 4.305-1.868a.469.469 0 01.23-.021c.589.238 1.177.465 1.765.682.588.217 1.175.438 1.763.662.112.042.217.087.315.136.098.049.21.095.336.137 0-.042-.003-.112-.01-.21a4.27 4.27 0 01-.01-.305v-.294c0-.09.006-.15.02-.178M18.127 7.246a.186.186 0 01-.022-.084v-.483c0-.028.004-.046.01-.053.008-.007.011-.017.011-.031 0-.014.014-.05.042-.105l.084-.042c.028-.014.063-.035.105-.063a26.19 26.19 0 001.187-.483c.385-.168.773-.33 1.165-.483h.21l2.267.924.084.042a.234.234 0 01.021.105c0 .028-.003.119-.01.273-.007.154-.01.245-.01.273a2.037 2.037 0 00-.221-.074 2.034 2.034 0 01-.22-.073l-1.911-.735a.308.308 0 00-.252.02l-2.394 1.009-.147.063m16.902 23.158c-.35-.154-.69-.3-1.018-.44-.329-.14-.654-.266-.976-.378a5.926 5.926 0 00-.546-.221c-.182-.063-.371-.13-.567-.2l-.861-.377c-.056-.042-.102-.06-.137-.053a1.006 1.006 0 00-.157.053l-1.869.798-2.54 1.091c-.014 0-.035.014-.063.042-.014.014-.021.028-.021.042v1.134l.147-.084c.462-.182.92-.37 1.375-.567.455-.196.906-.392 1.354-.588.266-.112.525-.224.777-.336l.756-.336c.07-.028.14-.049.21-.063a.363.363 0 01.21.021c.28.14.553.26.819.357.266.098.539.203.819.315h.126c.028.028.052.042.073.042.021 0 .046.014.074.042.252.112.517.217.797.315s.546.203.798.315l.588.231v-.903c.014-.126-.042-.21-.168-.252m-.042 1.659a.437.437 0 01-.168-.021 5.264 5.264 0 01-.462-.136 6.635 6.635 0 00-.44-.137l-2.877-.924c-.084-.056-.168-.049-.252.021l-1.438.578a47.71 47.71 0 00-1.417.598.97.97 0 00-.137.01.969.969 0 01-.136.011h-2.96l-.84-.336-.84-.336c-.364-.168-.721-.322-1.071-.462s-.707-.28-1.071-.42c-.07-.056-.133-.056-.19 0-.531.21-1.056.427-1.574.651-.518.224-1.036.441-1.554.651-.14.07-.255.123-.346.158a19.66 19.66 0 00-.241.094H15.06a.521.521 0 01-.189-.021l-.661-.22-.662-.22a35.36 35.36 0 01-1.029-.39 16.254 16.254 0 00-1.028-.367c-.084-.042-.161-.042-.231 0-.49.182-.924.36-1.302.536-.378.175-.798.36-1.26.556-.112.056-.27.095-.472.116a2.801 2.801 0 01-.536.01H6.536v.84h29.48v-.84h-1.03m-16.88-23.6a1.821 1.821 0 01-.022-.252v-.293c0-.056.028-.112.084-.168.028-.014.06-.028.095-.042.035-.014.08-.035.136-.063l2.31-.987c.042-.028.112-.028.21 0l2.1.86a.32.32 0 01.167.085c.056 0 .084.014.084.042v.629a7.548 7.548 0 00-.797-.273 60.47 60.47 0 01-.798-.325 8.2 8.2 0 00-.798-.283c-.056-.042-.105-.042-.147 0-.224.098-.48.206-.766.325l-.83.346c-.308.14-.63.28-.966.42 0 .014-.007.021-.02.021h-.043v-.042"
         fill-opacity=".949" fill="#fff" />
   </g>
</svg>