<?xml version="1.0" encoding="UTF-8" standalone="no"?>
<svg
   xmlns:dc="http://purl.org/dc/elements/1.1/"
   xmlns:cc="http://creativecommons.org/ns#"
   xmlns:rdf="http://www.w3.org/1999/02/22-rdf-syntax-ns#"
   xmlns:svg="http://www.w3.org/2000/svg"
   xmlns="http://www.w3.org/2000/svg"
   xmlns:sodipodi="http://sodipodi.sourceforge.net/DTD/sodipodi-0.dtd"
   xmlns:inkscape="http://www.inkscape.org/namespaces/inkscape"
   inkscape:version="1.0 (4035a4fb49, 2020-05-01)"
   sodipodi:docname="9901.svg"
   id="svg20"
   version="1.2"
   viewBox="0 0 41.960159 41.960159"
   height="14.802627mm"
   width="14.802627mm">
  <metadata
     id="metadata24">
    <rdf:RDF>
      <cc:Work
         rdf:about="">
        <dc:format>image/svg+xml</dc:format>
        <dc:type
           rdf:resource="http://purl.org/dc/dcmitype/StillImage" />
        <dc:title>Qt SVG Document</dc:title>
      </cc:Work>
    </rdf:RDF>
  </metadata>
  <sodipodi:namedview
     inkscape:current-layer="svg20"
     inkscape:window-maximized="0"
     inkscape:window-y="0"
     inkscape:window-x="0"
     inkscape:cy="27.973442"
     inkscape:cx="27.973442"
     inkscape:zoom="5.8410537"
     showgrid="false"
     id="namedview22"
     inkscape:window-height="480"
     inkscape:window-width="1034"
     inkscape:pageshadow="2"
     inkscape:pageopacity="0"
     guidetolerance="10"
     gridtolerance="10"
     objecttolerance="10"
     borderopacity="1"
     bordercolor="#666666"
     pagecolor="#ffffff" />
  <title
     id="title2">Qt SVG Document</title>
  <desc
     id="desc4">Generated with Qt</desc>
  <defs
     id="defs6" />
  <g
     transform="translate(4.98006,4.98006)"
     id="g18"
     stroke-linejoin="bevel"
     stroke-linecap="square"
     fill-rule="evenodd"
     stroke-width="1"
     stroke="#000000"
     fill="none">
    <g
       id="g10"
       font-style="normal"
       font-weight="400"
       font-size="7.8px"
       font-family="'MS Shell Dlg 2'"
       stroke="none"
       fill-opacity="1"
       fill="#489174">
      <path
         id="path8"
         d="M 36.9801,16 C 36.9801,27.587 27.587,36.9801 16,36.9801 4.41303,36.9801 -4.98006,27.587 -4.98006,16 -4.98006,4.41303 4.41303,-4.98006 16,-4.98006 27.587,-4.98006 36.9801,4.41303 36.9801,16"
         fill-rule="evenodd"
         vector-effect="non-scaling-stroke" />
    </g>
    <g
       id="g14"
       font-style="normal"
       font-weight="400"
       font-size="7.8px"
       font-family="'MS Shell Dlg 2'"
       transform="translate(16.2835,9.80854)"
       stroke="none"
       fill-opacity="0.94902"
       fill="#ffffff">
      <path
         id="path12"
         d="m -9.89795,5.97852 c 0.04199,-0.042 0.08399,-0.042 0.12598,0 0.22396,0.08398 0.5179,0.19946 0.88183,0.34643 0.36394,0.14697 0.72087,0.29395 1.0708,0.44092 0.34994,0.14697 0.66138,0.27645 0.93433,0.38843 0.27295,0.11198 0.43742,0.17496 0.49341,0.18896 V 6.41943 c 0,-0.06998 -0.028,-0.10498 -0.08399,-0.10498 -0.54589,-0.23795 -1.09179,-0.47241 -1.63769,-0.70337 -0.5459,-0.23095 -1.0918,-0.46541 -1.6377,-0.70337 -0.05599,-0.02799 -0.11897,-0.02799 -0.18896,0 -0.20996,0.11198 -0.43046,0.21696 -0.66136,0.31495 -0.231,0.09798 -0.4654,0.19596 -0.7034,0.29394 -0.07,0.04199 -0.2064,0.10848 -0.4094,0.19946 -0.203,0.09099 -0.4234,0.18897 -0.6614,0.29395 -0.2379,0.10498 -0.4689,0.20646 -0.6929,0.30444 -0.2239,0.09798 -0.3919,0.16797 -0.5039,0.20996 -0.014,0 -0.021,0.007 -0.021,0.021 -0.014,0.02799 -0.021,0.04199 -0.021,0.04199 v 1.04981 c 0.056,-0.014 0.2345,-0.09099 0.5354,-0.23096 0.301,-0.13997 0.6474,-0.29744 1.0393,-0.47241 0.392,-0.17497 0.7874,-0.34994 1.1863,-0.5249 0.399,-0.17497 0.7174,-0.31845 0.95535,-0.43042 m 3.94727,3.7583 V 8.30908 c 0,0 0.04199,-0.02799 0.12597,-0.08398 0.18197,-0.06999 0.35344,-0.13998 0.51441,-0.20996 0.16097,-0.06999 0.33244,-0.14698 0.5144,-0.23096 l 1.95264,-0.81885 2.309569,-0.98681 h 0.167968 C 0.138184,6.17448 0.63859,6.37394 1.1355,6.5769 1.63241,6.77987 2.13281,6.98633 2.63672,7.19629 2.93066,7.32227 3.23161,7.44824 3.53955,7.57422 3.84749,7.7002 4.16243,7.82617 4.48438,7.95215 4.54036,7.98014 4.56836,8.03613 4.56836,8.12012 V 9.31689 L 3.95947,9.08594 1.31396,8.07813 C 1.03402,7.98014 0.761068,7.88216 0.495117,7.78418 0.229167,7.6862 -0.0297852,7.58122 -0.281738,7.46924 -0.421712,7.42725 -0.54069,7.44124 -0.638672,7.51123 l -2.309568,0.96582 -2.7085,1.15479 c -0.06999,0.02799 -0.12248,0.04899 -0.15747,0.06298 -0.03499,0.014 -0.08048,0.028 -0.13647,0.042 m 0,4.93408 v -1.3857 c 0,-0.014 0.01049,-0.035 0.03149,-0.063 0.021,-0.028 0.04549,-0.042 0.07349,-0.042 0.27994,-0.112 0.55989,-0.231 0.83984,-0.357 0.27995,-0.1259 0.5669,-0.2449 0.86084,-0.3569 0.58789,-0.2659 1.17578,-0.5214 1.76367,-0.7663 0.58789,-0.245 1.17578,-0.5005 1.763674,-0.7664 0.083985,-0.056 0.174968,-0.056 0.272949,0 0.447917,0.196 0.902832,0.3814 1.364747,0.5564 0.46191,0.175 0.91683,0.3534 1.36475,0.5354 l 2.05761,0.8608 c 0.06999,0.014 0.10498,0.07 0.10498,0.168 0,0.042 0,0.119 0,0.231 0,0.1119 0,0.2309 0,0.3569 0,0.126 0,0.2484 0,0.3674 0,0.119 0,0.1995 0,0.2415 C 4.43538,14.223 4.3304,14.188 4.23242,14.146 4.13444,14.104 4.02946,14.062 3.91748,14.02 3.63753,13.908 3.35059,13.7996 3.05664,13.6946 2.7627,13.5896 2.47575,13.4811 2.1958,13.3691 l -2.582519,-0.9868 c -0.069987,-0.028 -0.118978,-0.028 -0.146972,0 -0.363933,0.14 -0.710369,0.2835 -1.039309,0.4304 -0.32894,0.147 -0.66138,0.2975 -0.99731,0.4515 -0.5319,0.2099 -1.0673,0.4269 -1.6062,0.6508 -0.5389,0.224 -1.0743,0.455 -1.6062,0.6929 l -0.16797,0.063 M 4.56836,11.7734 C 4.38639,11.7174 4.18343,11.6405 3.95947,11.5425 L 0.810059,10.3457 C 0.614095,10.2757 0.421631,10.2022 0.232666,10.1252 0.0437012,10.0483 -0.148763,9.97477 -0.344727,9.90479 c -0.083984,-0.028 -0.16097,-0.028 -0.230957,0 L -3.83008,11.3325 c -0.32194,0.112 -0.63338,0.231 -0.93432,0.357 -0.30095,0.1259 -0.61239,0.2589 -0.93433,0.3989 -0.04199,0.014 -0.08049,0.0315 -0.11548,0.0525 -0.03499,0.021 -0.08048,0.0455 -0.13647,0.0735 v -1.4068 c 0,-0.042 0.04199,-0.077 0.12597,-0.105 l 0.96582,-0.4409 3.35938,-1.42772 C -1.34554,8.764 -1.19157,8.69751 -1.0376,8.63452 c 0.153974,-0.06299 0.314944,-0.12248 0.482912,-0.17847 0.05599,-0.05598 0.125977,-0.05598 0.209961,0 0.685873,0.27995 1.368247,0.5564 2.047117,0.82935 0.67888,0.27295 1.36125,0.5494 2.04712,0.8293 0.12598,0.07 0.24496,0.1225 0.35694,0.1575 0.11197,0.035 0.23795,0.0805 0.37793,0.1365 0.04199,0.028 0.06298,0.056 0.06298,0.084 0,0.056 0.0035,0.1434 0.0105,0.2624 0.007,0.119 0.0105,0.245 0.0105,0.378 0,0.1329 0,0.2589 0,0.3779 0,0.119 0,0.2064 0,0.2624 M 4.52637,16.6865 C 4.3724,16.6165 4.21842,16.55 4.06445,16.4871 3.91048,16.4241 3.75651,16.3716 3.60254,16.3296 3.15462,16.1756 2.7137,16.0111 2.27979,15.8362 1.84587,15.6612 1.40495,15.4897 0.957031,15.3218 0.74707,15.2378 0.526611,15.1503 0.295654,15.0593 c -0.2309567,-0.091 -0.465413,-0.1714 -0.703369,-0.2414 -0.027995,-0.028 -0.055989,-0.035 -0.083984,-0.021 -0.027995,0.014 -0.05599,0.021 -0.083985,0.021 -0.573896,0.2519 -1.140786,0.4934 -1.700686,0.7243 -0.55989,0.231 -1.11979,0.4654 -1.67968,0.7034 -0.30795,0.14 -0.62289,0.273 -0.94483,0.3989 -0.32194,0.126 -0.63688,0.266 -0.94482,0.42 -0.06999,0.0279 -0.10498,0.0489 -0.10498,0.0629 v -1.4277 c 0,-0.028 0.02099,-0.063 0.06298,-0.105 0.36394,-0.1539 0.72787,-0.3079 1.0918,-0.4619 0.36393,-0.154 0.72787,-0.3079 1.0918,-0.4619 0.5179,-0.21 1.03581,-0.4269 1.55371,-0.6509 0.5179,-0.2239 1.04281,-0.4479 1.574706,-0.6719 0.05599,-0.0559 0.118978,-0.0559 0.188965,0 0.3639325,0.14 0.724365,0.2835 1.081299,0.4305 0.35693,0.1469 0.71037,0.3044 1.0603,0.4724 0.89584,0.3359 1.77767,0.6928 2.64551,1.0708 0.08399,0.014 0.12598,0.077 0.12598,0.1889 v 1.1758 M 4.56836,-0.509277 C 4.38639,-0.579264 4.20093,-0.649251 4.01196,-0.719238 3.823,-0.789225 3.63053,-0.866211 3.43457,-0.950195 L 0.768066,-1.93701 -0.344727,-2.39893 H -0.491699 C -1.0236,-2.16097 -1.545,-1.93351 -2.05591,-1.71655 c -0.5109,0.21696 -1.01831,0.43742 -1.52222,0.66137 l -2.16259,0.923832 c -0.028,0.013998 -0.05599,0.020996 -0.08399,0.020996 -0.02799,0 -0.05599,0.006999 -0.08398,0.0209965 V -1.49609 c 0,-0.014 0.02799,-0.04899 0.08398,-0.10498 0.32194,-0.11198 0.64388,-0.23446 0.96582,-0.36744 0.32194,-0.13297 0.64388,-0.27644 0.96582,-0.43042 0.40593,-0.15397 0.80135,-0.32194 1.18628,-0.5039 0.38493,-0.18197 0.77336,-0.35694 1.16529,-0.5249 l 1.049801,-0.41993 h 0.146972 c 0.503907,0.19597 1.000814,0.39543 1.490727,0.59839 0.4899,0.20296 0.98681,0.40943 1.49072,0.61939 0.30794,0.12597 0.61588,0.25195 0.92383,0.37793 0.30794,0.12597 0.62288,0.24495 0.94482,0.35693 0.028,0.028 0.04899,0.04899 0.06299,0.06299 0.014,0.014 0.021,0.04199 0.021,0.08398 v 1.238773 h -0.021 m 0,2.477537 L 3.74951,1.65332 C 3.38558,1.49935 3.01115,1.35238 2.62622,1.2124 2.24129,1.07243 1.85286,0.925456 1.46094,0.771484 1.18099,0.659505 0.894043,0.551025 0.600098,0.446045 0.306152,0.341064 0.012207,0.225586 -0.281738,0.0996094 -0.393717,0.0576172 -0.491699,0.0646159 -0.575684,0.120605 L -4.69092,1.86328 -5.82471,2.36719 h -0.10498 c 0,-0.05599 0,-0.15047 0,-0.28345 0,-0.13298 0,-0.26945 0,-0.40942 0,-0.13998 0.0035,-0.27645 0.0105,-0.40943 0.007,-0.13297 0.0175,-0.22746 0.03149,-0.283445 0,-0.027994 0.028,-0.055989 0.08399,-0.083984 l 2.6875,-1.154785 c 0.41992,-0.195964 0.84684,-0.384929 1.28076,-0.566895 0.43392,-0.181961 0.867839,-0.356931 1.301759,-0.524901 0.069987,-0.06999 0.139974,-0.06999 0.209961,0 l 3.02344,1.217772 1.80566,0.713868 c 0.028,0.027994 0.05249,0.05249 0.07349,0.073486 0.02099,0.020996 0.02449,0.066487 0.0105,0.136474 v 1.17578 h -0.021 M -5.95068,4.84473 V 3.43799 c 0,-0.04199 0.04199,-0.07699 0.12597,-0.10498 l 1.82666,-0.79785 c 0.5459,-0.23796 1.0953,-0.46892 1.6482,-0.69287 0.55289,-0.22396 1.10229,-0.45492 1.64819,-0.69288 0.069987,-0.04199 0.136474,-0.06648 0.199463,-0.07348 0.062988,-0.007 0.150472,0.0035 0.262451,0.03149 0.671875,0.27995 1.329756,0.5564 1.973636,0.82935 0.64388,0.27295 1.30175,0.5284 1.97363,0.76636 0.12598,0.06998 0.25195,0.13297 0.37793,0.18896 0.12598,0.05599 0.25895,0.11198 0.39893,0.16797 0.04199,0 0.06298,0.02099 0.06298,0.06299 0,0.05599 0.0035,0.14347 0.0105,0.26245 0.007,0.11898 0.0105,0.24845 0.0105,0.38843 0,0.13997 0,0.26945 0,0.38842 0,0.11898 0,0.20647 0,0.26245 C 4.49837,4.39681 4.43188,4.36882 4.3689,4.34082 4.30591,4.31283 4.23242,4.28483 4.14844,4.25684 L 0.957031,3.01807 -0.344727,2.55615 c -0.083984,-0.04199 -0.146972,-0.04199 -0.188964,0 -0.615889,0.25196 -1.221269,0.50391 -1.816159,0.75586 -0.59489,0.25195 -1.19328,0.51091 -1.79517,0.77686 -0.29394,0.11198 -0.57739,0.23095 -0.85034,0.35693 -0.27295,0.12598 -0.5564,0.24496 -0.85034,0.35693 0,0.028 -0.035,0.042 -0.10498,0.042 M 4.54736,6.90234 C 4.37939,6.83236 4.22542,6.76587 4.08545,6.70288 3.94548,6.63989 3.7985,6.5874 3.64453,6.54541 3.35059,6.43343 3.06364,6.32145 2.78369,6.20947 2.50374,6.09749 2.2238,5.97852 1.94385,5.85254 L -0.344727,5.0127 c -0.055989,-0.028 -0.132975,-0.028 -0.230957,0 C -1.20557,5.26465 -1.82495,5.5236 -2.43384,5.78955 -3.04272,6.0555 -3.65511,6.32145 -4.271,6.5874 c -0.26595,0.11198 -0.5179,0.22396 -0.75586,0.33594 -0.23795,0.11198 -0.4969,0.22396 -0.77685,0.33594 -0.014,0 -0.03499,0.007 -0.06299,0.02099 -0.02799,0.014 -0.05599,0.028 -0.08398,0.042 V 5.89453 c 0,-0.05599 0.03499,-0.08398 0.10498,-0.08398 0.58789,-0.27995 1.18278,-0.5389 1.78466,-0.77686 0.60189,-0.23795 1.19678,-0.49691 1.78467,-0.77685 l 1.742679,-0.73487 c 0.055989,-0.02799 0.10498,-0.02799 0.146972,0 0.657878,0.27995 1.312256,0.5529 1.963139,0.81885 0.65087,0.26595 1.31225,0.5389 1.98413,0.81885 0.15397,0.05599 0.30444,0.11548 0.45141,0.17846 0.14698,0.06299 0.30445,0.12948 0.47242,0.19947 0.04199,0 0.06298,0.014 0.06298,0.04199 v 1.32275 m 0.46192,3.98926 c 0,-0.042 0.0035,-0.1155 0.0105,-0.2205 0.00699,-0.1049 0.01049,-0.2134 0.01049,-0.3254 0,-0.112 0,-0.217 0,-0.3149 0,-0.09802 -0.007,-0.16801 -0.02099,-0.21 0,-0.04199 0.03499,-0.09798 0.10498,-0.16797 C 5.87012,9.34489 6.61898,9.03345 7.36084,8.71851 8.1027,8.40356 8.85156,8.08512 9.60742,7.76318 c 0.05599,-0.05599 0.11198,-0.05599 0.16797,0 0.57391,0.23796 1.13731,0.46892 1.69021,0.69287 0.5529,0.22396 1.1163,0.44792 1.6902,0.67188 l 0.7138,0.33594 c 0.056,0.02799 0.084,0.05599 0.084,0.08398 v 0.98685 c -0.154,-0.056 -0.2939,-0.105 -0.4199,-0.147 -0.126,-0.042 -0.259,-0.098 -0.3989,-0.168 L 11.0142,9.42188 C 10.8182,9.33789 10.6222,9.2644 10.4263,9.20142 10.2303,9.13843 10.0343,9.05794 9.83838,8.95996 9.7404,8.91797 9.64941,8.91797 9.56543,8.95996 9.14551,9.14193 8.73258,9.3134 8.32666,9.47437 7.92074,9.63534 7.52181,9.8138 7.12988,10.0098 6.80794,10.1357 6.4895,10.2687 6.17456,10.4087 c -0.31494,0.14 -0.62638,0.2729 -0.93433,0.3989 l -0.23095,0.084 M 13.9536,6.39844 13.3027,6.16748 10.9932,5.28564 C 10.7972,5.20166 10.6047,5.12467 10.4158,5.05469 10.2268,4.9847 10.0343,4.91471 9.83838,4.84473 9.7264,4.78874 9.63542,4.78874 9.56543,4.84473 L 6.89893,5.95752 C 6.60498,6.0835 6.31453,6.20947 6.02759,6.33545 5.74064,6.46143 5.4502,6.5874 5.15625,6.71338 5.12826,6.74137 5.07926,6.75537 5.00928,6.75537 c 0,-0.11198 0,-0.29744 0,-0.5564 0,-0.25895 0.007,-0.44441 0.02099,-0.55639 0,-0.04199 0.028,-0.07699 0.08399,-0.10498 L 7.29785,4.61377 C 7.67578,4.4598 8.05021,4.30233 8.42114,4.14136 8.79207,3.98039 9.1805,3.82292 9.58643,3.66895 c 0.05599,-0.05599 0.13297,-0.05599 0.23095,0 0.67192,0.23795 1.32972,0.4969 1.97362,0.77685 0.6439,0.27995 1.3018,0.5529 1.9736,0.81885 0.154,0.06999 0.224,0.16097 0.21,0.27295 0,0.02799 -0.0035,0.08048 -0.0105,0.15747 -0.007,0.07698 -0.0105,0.16447 -0.0105,0.26245 0,0.09798 0,0.18896 0,0.27295 0,0.08398 0,0.13997 0,0.16797 M 5.00928,12.9492 c 0,-0.056 0,-0.1365 0,-0.2414 0,-0.105 0,-0.2135 0,-0.3255 0,-0.112 0.0035,-0.2204 0.0105,-0.3254 0.00699,-0.105 0.01749,-0.1855 0.03149,-0.2415 0,-0.028 0.014,-0.049 0.04199,-0.063 0.028,-0.014 0.05599,-0.028 0.08399,-0.042 0.20996,-0.0979 0.42692,-0.1889 0.65088,-0.2729 0.22395,-0.084 0.44091,-0.182 0.65087,-0.2939 L 9.50244,9.88379 c 0.11198,-0.05599 0.23796,-0.05599 0.37793,0 0.67183,0.26591 1.33673,0.53191 1.99463,0.79781 0.6579,0.266 1.3228,0.5389 1.9946,0.8189 0.056,0 0.084,0.035 0.084,0.105 0,0.028 0,0.0875 0,0.1784 0,0.091 0,0.189 0,0.294 0,0.105 0,0.2029 0,0.2939 0,0.091 0,0.1575 0,0.1995 -0.098,-0.014 -0.182,-0.035 -0.2519,-0.063 -0.07,-0.028 -0.14,-0.056 -0.21,-0.084 l -3.1914,-1.2388 -0.189,-0.0629 c -0.15394,-0.084 -0.29742,-0.119 -0.43039,-0.105 -0.13298,0.014 -0.27645,0.049 -0.43042,0.105 -0.67188,0.3079 -1.34025,0.6018 -2.00513,0.8818 -0.66487,0.2799 -1.33325,0.5669 -2.00513,0.8608 -0.02799,0.028 -0.05948,0.042 -0.09448,0.042 -0.03499,0 -0.08048,0.014 -0.13647,0.042 m 0,-4.13621 V 7.74219 C 5.00928,7.6862 5.02327,7.6512 5.05127,7.63721 5.07926,7.62321 5.10026,7.60221 5.11426,7.57422 5.4082,7.46224 5.70215,7.34676 5.99609,7.22778 6.29004,7.10881 6.57699,6.97933 6.85693,6.83936 7.31885,6.64339 7.77376,6.45093 8.22168,6.26196 8.6696,6.073 9.11751,5.88053 9.56543,5.68457 h 0.20996 l 3.73731,1.53272 c 0.056,0.02799 0.1015,0.05249 0.1365,0.07348 0.035,0.021 0.0735,0.03849 0.1154,0.05249 0.126,0.014 0.189,0.09098 0.189,0.23096 -0.014,0.04199 -0.021,0.10148 -0.021,0.17847 0,0.07698 0,0.16446 0,0.26245 0,0.09798 0.0035,0.18546 0.0105,0.26245 0.007,0.07698 0.0105,0.13647 0.0105,0.17846 L 13.6177,8.33008 C 13.1698,8.14811 12.7113,7.97314 12.2424,7.80518 11.7735,7.63721 11.3151,7.46924 10.8672,7.30127 L 9.79639,6.86035 C 9.7264,6.83236 9.64941,6.83236 9.56543,6.86035 9.07552,7.07031 8.60311,7.27327 8.14819,7.46924 7.69328,7.6652 7.23486,7.87516 6.77295,8.09912 6.507,8.1971 6.24105,8.30208 5.9751,8.41406 5.70915,8.52604 5.4502,8.63802 5.19824,8.75 L 5.00928,8.81299 M 13.9956,4.31982 C 13.8416,4.29183 13.7157,4.25334 13.6177,4.20435 13.5197,4.15535 13.4147,4.11686 13.3027,4.08887 12.7148,3.85091 12.1305,3.61995 11.5496,3.396 10.9687,3.17204 10.3843,2.94808 9.79639,2.72412 9.7264,2.72412 9.67041,2.73812 9.62842,2.76611 8.91455,3.04606 8.21818,3.33301 7.53931,3.62695 6.86043,3.9209 6.16406,4.21484 5.4502,4.50879 L 5.05127,4.67676 c 0,-0.05599 0,-0.13648 0,-0.24146 0,-0.10498 0,-0.21346 0,-0.32544 0,-0.11198 0,-0.22046 0,-0.32544 0,-0.10498 0,-0.17846 0,-0.22046 0,-0.06998 0.03499,-0.10498 0.10498,-0.10498 L 7.44482,2.49316 C 7.80876,2.33919 8.16919,2.18872 8.52612,2.04175 8.88306,1.89478 9.24349,1.7443 9.60742,1.59033 c 0.05599,-0.04199 0.12598,-0.04199 0.20996,0 0.54592,0.20996 1.09182,0.42342 1.63772,0.64038 0.5459,0.21696 1.0988,0.44442 1.6587,0.68238 0.1259,0.06998 0.2554,0.12597 0.3884,0.16796 0.133,0.042 0.2624,0.09799 0.3884,0.16797 0.056,0.028 0.084,0.06299 0.084,0.10498 0,0.028 0.0035,0.08749 0.0105,0.17847 0.007,0.09098 0.0105,0.18897 0.0105,0.29395 0,0.10498 0,0.20296 0,0.29394 0,0.09098 0,0.15747 0,0.19946 M -6.3916,12.9282 -8.23926,12.1934 c -0.25195,-0.112 -0.5074,-0.2135 -0.76636,-0.3045 -0.25895,-0.091 -0.5144,-0.1924 -0.76635,-0.3044 -0.04199,-0.014 -0.10498,-0.007 -0.18897,0.021 l -2.24656,1.0288 -1.2388,0.5249 c -0.042,0.042 -0.098,0.063 -0.168,0.063 v -1.0078 c 0,-0.042 0.035,-0.077 0.105,-0.105 l 1.2598,-0.5459 c 0.3779,-0.182 0.7558,-0.357 1.1338,-0.5249 0.3779,-0.168 0.7698,-0.329 1.17576,-0.4829 0.02799,-0.028 0.05949,-0.042 0.09448,-0.042 0.03499,0 0.06649,0 0.09448,0 0.5459,0.2239 1.0883,0.4549 1.6272,0.6928 0.5389,0.238 1.0813,0.476 1.6272,0.7139 0.06998,0.042 0.10498,0.091 0.10498,0.147 v 0.8608 m 0,-1.8476 c -0.18197,-0.084 -0.34994,-0.1575 -0.50391,-0.2205 -0.15397,-0.063 -0.30794,-0.1295 -0.46191,-0.1995 -0.40593,-0.1539 -0.80485,-0.3114 -1.19678,-0.4724 -0.39193,-0.1609 -0.79085,-0.31841 -1.19678,-0.47238 -0.02799,0 -0.05949,0 -0.09448,0 -0.03499,0 -0.06649,0.014 -0.09448,0.04199 l -2.64546,1.15479 -0.8819,0.3989 c -0.028,0.028 -0.049,0.042 -0.063,0.042 -0.014,0 -0.035,0.007 -0.063,0.021 v -1.0498 c 0,-0.042 0.028,-0.063 0.084,-0.063 0.35,-0.154 0.6929,-0.31142 1.0288,-0.47239 0.336,-0.16097 0.6789,-0.31844 1.0288,-0.47242 l 1.49076,-0.65087 c 0.06999,-0.042 0.15397,-0.049 0.25196,-0.021 0.5319,0.23796 1.0708,0.47241 1.61669,0.70337 0.5459,0.23096 1.0848,0.46541 1.6167,0.70341 0.05599,0.028 0.08399,0.0769 0.08399,0.1469 v 0.8819 m 0,5.5849 c -0.18197,-0.07 -0.35344,-0.1364 -0.51441,-0.1994 -0.16097,-0.063 -0.32544,-0.1225 -0.4934,-0.1785 l -2.33057,-0.9448 c -0.08398,-0.056 -0.16797,-0.056 -0.25195,0 l -3.50637,1.5747 c -0.042,0 -0.084,0.021 -0.126,0.063 v -1.0498 c 0,-0.042 0.028,-0.063 0.084,-0.063 0.238,-0.126 0.4794,-0.238 0.7244,-0.336 0.2449,-0.0979 0.4794,-0.2029 0.7034,-0.3149 0.3639,-0.168 0.7243,-0.3289 1.0813,-0.4829 0.3569,-0.154 0.7173,-0.308 1.08126,-0.4619 0.05599,-0.056 0.10498,-0.063 0.14697,-0.021 0.5459,0.2379 1.0953,0.4724 1.64819,0.7033 0.5529,0.231 1.1023,0.4655 1.6482,0.7034 0.06998,0 0.10498,0.063 0.10498,0.189 v 0.8188 M -13.5933,9.50586 V 8.54004 c 0,-0.028 0.007,-0.05599 0.021,-0.08399 0.014,-0.02799 0.035,-0.04199 0.063,-0.04199 0.5039,-0.22396 1.0043,-0.44791 1.5012,-0.67187 0.497,-0.22396 0.9904,-0.44092 1.4803,-0.65088 l 0.60885,-0.29395 c 0.05599,-0.05599 0.11198,-0.05599 0.16797,0 0.5459,0.23796 1.0883,0.47242 1.6272,0.70337 0.5389,0.23096 1.0953,0.46542 1.66919,0.70337 0.05599,0.014 0.08398,0.06299 0.08398,0.14697 V 9.21191 C -6.48258,9.15592 -6.58757,9.11393 -6.68555,9.08594 -6.78353,9.05794 -6.88851,9.02295 -7.00049,8.98096 -7.35042,8.84098 -7.69336,8.70101 -8.0293,8.56104 -8.36523,8.42106 -8.70117,8.28809 -9.03711,8.16211 -9.14909,8.10612 -9.26807,8.05713 -9.39404,8.01514 -9.52002,7.97314 -9.639,7.92415 -9.75098,7.86816 h -0.16797 c -0.60185,0.27995 -1.20725,0.5529 -1.81615,0.81885 -0.6089,0.26595 -1.2143,0.5319 -1.8162,0.79785 -0.014,0.014 -0.021,0.021 -0.021,0.021 h -0.021 m 0,5.60594 V 14.125 c 0,-0.042 0.028,-0.091 0.084,-0.147 l 1.3438,-0.5879 2.18357,-1.0078 c 0.06998,-0.014 0.15397,-0.014 0.25195,0 0.40592,0.182 0.79785,0.3605 1.17578,0.5354 0.37793,0.175 0.76286,0.3395 1.15479,0.4934 0.16796,0.07 0.33593,0.14 0.5039,0.21 0.16797,0.07 0.33594,0.14 0.50391,0.21 v 0.9658 l -0.12598,-0.042 c -0.44791,-0.168 -0.87833,-0.3395 -1.29126,-0.5144 -0.41292,-0.175 -0.84334,-0.3465 -1.29126,-0.5144 l -0.69287,-0.252 c -0.05599,-0.028 -0.09798,-0.028 -0.12598,0 l -3.19145,1.4068 c -0.0699,0.042 -0.1504,0.0804 -0.2414,0.1154 -0.091,0.035 -0.1715,0.0735 -0.2415,0.1155 M 2.90967,-4.75049 1.75488,-5.17041 C 1.47493,-5.29639 1.19149,-5.41187 0.904541,-5.51685 0.617594,-5.62183 0.334147,-5.7443 0.0541992,-5.88428 -0.127767,-5.96826 -0.292236,-6.00326 -0.439209,-5.98926 c -0.146973,0.014 -0.304443,0.06299 -0.472412,0.14697 -0.517899,0.23796 -1.035809,0.46892 -1.553709,0.69288 -0.51791,0.22395 -1.04281,0.45491 -1.57471,0.69287 l -0.06299,0.02099 c 0,-0.05599 0,-0.13297 0,-0.23095 0,-0.09799 0,-0.19947 0,-0.30445 0,-0.10498 0,-0.19946 0,-0.28344 0,-0.08399 0,-0.14698 0,-0.18897 0,-0.02799 0.0105,-0.04549 0.0315,-0.05249 0.02099,-0.007 0.04549,-0.0245 0.07348,-0.05249 l 1.51172,-0.65088 1.88965,-0.86084 c 0.097982,-0.04199 0.202963,-0.04199 0.314942,0 0.517903,0.23796 1.032308,0.45842 1.543208,0.66138 0.51091,0.20296 1.02531,0.42342 1.54322,0.66138 0.06998,0.04199 0.10498,0.10498 0.10498,0.18896 v 0.79785 m 0,1.70069 -1.15479,-0.41993 C 1.47493,-3.58171 1.19149,-3.69368 0.904541,-3.80566 0.617594,-3.91764 0.334147,-4.04362 0.0541992,-4.18359 -0.127767,-4.26758 -0.292236,-4.29907 -0.439209,-4.27808 c -0.146973,0.021 -0.304443,0.06649 -0.472412,0.13648 -0.517899,0.23795 -1.035809,0.46891 -1.553709,0.69287 -0.51791,0.22396 -1.04281,0.45491 -1.57471,0.69287 l -0.06299,0.021 c 0,-0.05599 0,-0.13298 0,-0.23096 0,-0.09798 0,-0.19946 0,-0.30444 0,-0.10498 0,-0.19947 0,-0.28345 0,-0.08399 0,-0.14697 0,-0.18897 0,-0.02799 0.0105,-0.04549 0.0315,-0.05249 0.02099,-0.00699 0.04549,-0.02449 0.07348,-0.05249 l 1.51172,-0.65088 1.88965,-0.86084 c 0.097982,-0.04199 0.202963,-0.04199 0.314942,0 0.517903,0.23796 1.032308,0.45842 1.543208,0.66138 0.51091,0.20296 1.02531,0.42342 1.54322,0.66138 0.06998,0.04199 0.10498,0.10498 0.10498,0.18896 V -3.0498 M 13.9536,13.7051 c 0,-0.042 -0.007,-0.07 -0.021,-0.084 -0.014,-0.014 -0.035,-0.035 -0.063,-0.063 -0.6998,-0.2799 -1.3892,-0.5564 -2.0681,-0.8293 -0.6789,-0.273 -1.3682,-0.5494 -2.0681,-0.8294 H 9.56543 c -0.09798,0.042 -0.34994,0.147 -0.75586,0.315 -0.40592,0.1679 -0.85034,0.3569 -1.33325,0.5669 -0.48291,0.2099 -0.95182,0.4129 -1.40674,0.6088 -0.45492,0.196 -0.77336,0.336 -0.95532,0.42 -0.06999,0.028 -0.10498,0.0489 -0.10498,0.0629 v 1.1338 l 0.23095,-0.042 4.3042,-1.8686 c 0.09799,-0.028 0.17497,-0.035 0.23096,-0.021 0.58791,0.238 1.17581,0.4654 1.76371,0.6824 0.5879,0.2169 1.1757,0.4374 1.7636,0.6613 0.112,0.042 0.217,0.0875 0.315,0.1365 0.098,0.049 0.2099,0.0945 0.3359,0.1365 0,-0.042 -0.0035,-0.112 -0.0105,-0.21 -0.007,-0.0979 -0.0105,-0.1994 -0.0105,-0.3044 0,-0.105 0,-0.203 0,-0.294 0,-0.0909 0.007,-0.1504 0.021,-0.1784 M -3.13721,-7.54297 C -3.1512,-7.57096 -3.1582,-7.59896 -3.1582,-7.62695 v -0.48291 c 0,-0.028 0.0035,-0.04549 0.01049,-0.05249 0.007,-0.007 0.0105,-0.0175 0.0105,-0.0315 0,-0.014 0.014,-0.04899 0.042,-0.10498 0.02799,-0.014 0.05598,-0.02799 0.08398,-0.04199 0.02799,-0.014 0.06299,-0.03499 0.10498,-0.06299 0.40592,-0.15397 0.80135,-0.31494 1.18628,-0.48291 0.38493,-0.16797 0.773355,-0.32894 1.165282,-0.48291 h 0.209961 L 1.92285,-8.4458 c 0.05599,0.02799 0.08399,0.04199 0.08399,0.04199 0.01399,0.028 0.02099,0.06299 0.02099,0.10498 0,0.028 -0.0035,0.11898 -0.0105,0.27295 C 2.01034,-7.87191 2.00684,-7.78092 2.00684,-7.75293 1.93685,-7.78092 1.86336,-7.80542 1.78638,-7.82642 1.70939,-7.84741 1.6359,-7.87191 1.56592,-7.8999 l -1.910647,-0.73487 c -0.097981,-0.02799 -0.181966,-0.02099 -0.251953,0.021 l -2.39355,1.00781 -0.14698,0.06299 M 13.7646,15.6157 C 13.4147,15.4618 13.0753,15.3148 12.7463,15.1748 12.4174,15.0348 12.092,14.9089 11.77,14.7969 11.5881,14.7129 11.4061,14.6394 11.2241,14.5764 11.0422,14.5134 10.8532,14.4469 10.6572,14.377 L 9.79639,13.999 C 9.7404,13.957 9.69491,13.9395 9.65991,13.9465 9.62492,13.9535 9.57243,13.971 9.50244,13.999 l -1.86865,0.7979 -2.54053,1.0918 c -0.014,0 -0.03499,0.014 -0.06299,0.042 -0.01399,0.014 -0.02099,0.028 -0.02099,0.042 v 1.1337 l 0.14697,-0.0839 c 0.46191,-0.182 0.92033,-0.371 1.37524,-0.5669 0.45492,-0.196 0.90634,-0.392 1.35425,-0.5879 0.26595,-0.112 0.5249,-0.224 0.77686,-0.336 0.25195,-0.1119 0.5039,-0.2239 0.75586,-0.3359 0.06998,-0.028 0.13997,-0.049 0.20996,-0.063 0.06998,-0.014 0.13997,-0.007 0.20996,0.021 0.27992,0.14 0.55292,0.259 0.81882,0.3569 0.266,0.098 0.5389,0.203 0.8189,0.315 h 0.126 c 0.0279,0.028 0.0524,0.042 0.0734,0.042 0.021,0 0.0455,0.014 0.0735,0.042 0.252,0.1119 0.5179,0.2169 0.7979,0.3149 0.2799,0.098 0.5459,0.203 0.7978,0.315 l 0.5879,0.2309 v -0.9028 c 0.014,-0.126 -0.042,-0.21 -0.168,-0.252 m -0.0419,1.6587 c -0.084,0 -0.14,-0.007 -0.168,-0.021 -0.168,-0.042 -0.322,-0.0875 -0.4619,-0.1365 -0.14,-0.0489 -0.287,-0.0944 -0.4409,-0.1364 L 9.77539,16.0566 c -0.08398,-0.0559 -0.16797,-0.049 -0.25195,0.021 -0.48991,0.196 -0.96932,0.3885 -1.43823,0.5774 -0.46892,0.189 -0.94133,0.3885 -1.41724,0.5984 -0.04199,0 -0.08748,0.0035 -0.13648,0.0105 -0.04899,0.007 -0.09448,0.0105 -0.13647,0.0105 H 3.45557 3.43457 C 3.15462,17.1624 2.87467,17.0505 2.59473,16.9385 2.31478,16.8265 2.03483,16.7145 1.75488,16.6025 1.39095,16.4346 1.03402,16.2806 0.684082,16.1406 0.334147,16.0007 -0.0227865,15.8607 -0.386719,15.7207 c -0.069987,-0.056 -0.132975,-0.056 -0.188965,0 -0.531896,0.21 -1.056806,0.4269 -1.574706,0.6509 -0.5179,0.2239 -1.03581,0.4409 -1.55371,0.6509 -0.13998,0.0699 -0.25545,0.1224 -0.34644,0.1574 -0.09098,0.035 -0.17147,0.0665 -0.24145,0.0945 h -0.14697 -1.76368 c -0.09798,0 -0.16097,-0.007 -0.18896,-0.021 -0.20996,-0.07 -0.43042,-0.1435 -0.66138,-0.2204 -0.23096,-0.077 -0.45141,-0.1505 -0.66138,-0.2205 -0.34993,-0.126 -0.69287,-0.2555 -1.0288,-0.3884 -0.33594,-0.133 -0.67888,-0.2555 -1.02881,-0.3675 -0.08399,-0.042 -0.16097,-0.042 -0.23093,0 -0.4899,0.182 -0.9239,0.3605 -1.3018,0.5354 -0.3779,0.175 -0.7978,0.3605 -1.2598,0.5564 -0.1119,0.056 -0.2694,0.0945 -0.4724,0.1155 -0.2029,0.021 -0.3814,0.0245 -0.5354,0.0105 h -1.0288 -0.126 v 0.8399 H 14.7515 V 17.2744 H 13.7227 M -3.1582,-6.3252 c -0.014,-0.09798 -0.021,-0.18196 -0.021,-0.25195 v -0.29394 c 0,-0.05599 0.028,-0.11198 0.08399,-0.16797 0.02799,-0.014 0.05948,-0.028 0.09448,-0.04199 0.03499,-0.014 0.08048,-0.035 0.13647,-0.06299 l 2.309572,-0.98682 c 0.041993,-0.02799 0.11198,-0.02799 0.209961,0 l 2.099607,0.86084 c 0.06999,0.014 0.12598,0.04199 0.16797,0.08398 0.05599,0 0.08399,0.014 0.08399,0.042 v 0.10498 0.5249 C 1.76888,-6.61214 1.50293,-6.70313 1.20898,-6.78711 0.929036,-6.89909 0.663086,-7.00757 0.411133,-7.11255 0.15918,-7.21753 -0.106771,-7.31201 -0.386719,-7.396 c -0.055989,-0.04199 -0.10498,-0.04199 -0.146972,0 -0.223959,0.09799 -0.479409,0.20647 -0.766359,0.32544 -0.28695,0.11898 -0.56339,0.23446 -0.82934,0.34644 -0.30795,0.13997 -0.62989,0.27995 -0.96582,0.41992 0,0.014 -0.007,0.021 -0.021,0.021 H -3.1582 v -0.042"
         fill-rule="evenodd"
         vector-effect="none" />
    </g>
    <g
       id="g16"
       font-style="normal"
       font-weight="400"
       font-size="7.8px"
       font-family="'MS Shell Dlg 2'"
       stroke="none"
       fill-opacity="1"
       fill="#489174" />
  </g>
</svg>
