<?xml version="1.0" encoding="UTF-8" standalone="no"?>
<svg width="11.2889mm" height="11.2889mm"
 viewBox="0 0 32 32"
 xmlns="http://www.w3.org/2000/svg" xmlns:xlink="http://www.w3.org/1999/xlink"  version="1.2" baseProfile="tiny">
<title>Qt SVG Document</title>
<desc>Generated with Qt</desc>
<defs>
</defs>
<g fill="none" stroke="black" stroke-width="1" fill-rule="evenodd" stroke-linecap="square" stroke-linejoin="bevel" >

<g fill="#1f78b4" fill-opacity="1" stroke="none" transform="matrix(1,0,0,1,0,0)"
font-family="MS Shell Dlg 2" font-size="7.8" font-weight="400" font-style="normal" 
>
<path vector-effect="non-scaling-stroke" fill-rule="evenodd" d="M37.2598,16 C37.2598,27.7415 27.7415,37.2598 16,37.2598 C4.25851,37.2598 -5.25984,27.7415 -5.25984,16 C-5.25984,4.25851 4.25851,-5.25984 16,-5.25984 C27.7415,-5.25984 37.2598,4.25851 37.2598,16 "/>
</g>

<g fill="#ffffff" fill-opacity="1" stroke="none" transform="matrix(1,0,0,1,16.5669,12.0315)"
font-family="MS Shell Dlg 2" font-size="7.8" font-weight="400" font-style="normal" 
>
<path vector-effect="none" fill-rule="evenodd" d="M10.6782,-2.41992 C11.2241,-2.57389 11.6475,-2.48641 11.9485,-2.15747 C12.2494,-1.82853 12.3649,-1.50309 12.2949,-1.18115 L11.749,9.44287 C11.693,9.8348 11.5216,10.1742 11.2346,10.4612 C10.9477,10.7481 10.6292,10.9546 10.2793,11.0806 L-5.57275,17.4424 C-5.8667,17.5824 -6.15715,17.5894 -6.44409,17.4634 C-6.73104,17.3374 -6.9445,17.1554 -7.08447,16.9175 C-7.29443,16.8055 -7.68286,16.571 -8.24976,16.2141 C-8.81665,15.8572 -9.40104,15.4478 -10.0029,14.9858 C-10.6048,14.5239 -11.1367,14.0725 -11.5986,13.6316 C-12.0605,13.1907 -12.2775,12.8092 -12.2495,12.4873 L-11.4727,-1.09717 C-11.4167,-1.41911 -11.2662,-1.67106 -11.0212,-1.85303 C-10.7763,-2.03499 -10.4508,-2.15397 -10.0449,-2.20996 L-5.19482,-2.98682 C-5.13883,-3.39274 -5.08984,-3.81616 -5.04785,-4.25708 C-5.00586,-4.698 -4.98486,-5.03743 -4.98486,-5.27539 C-4.92887,-6.26921 -4.66992,-7.02507 -4.20801,-7.54297 C-3.74609,-8.06087 -2.89925,-8.38981 -1.66748,-8.52979 C-0.925618,-8.61377 -0.145264,-8.60677 0.673584,-8.50879 C1.49243,-8.41081 2.14681,-8.15885 2.63672,-7.75293 C2.25879,-7.9069 1.81787,-7.99788 1.31396,-8.02588 C0.810059,-8.05387 0.271159,-8.03988 -0.302734,-7.98389 C-1.50651,-7.82992 -2.34285,-7.51147 -2.81177,-7.02856 C-3.28068,-6.54565 -3.55713,-5.7723 -3.64111,-4.7085 C-3.64111,-4.51253 -3.65511,-4.22559 -3.68311,-3.84766 C-3.7111,-3.46973 -3.7391,-3.0848 -3.76709,-2.69287 C-3.80908,-2.23096 -3.84408,-1.75505 -3.87207,-1.26514 L-3.05322,-1.4751 C-3.05322,-1.68506 -3.04622,-1.92651 -3.03223,-2.19946 C-3.01823,-2.47241 -3.00423,-2.75936 -2.99023,-3.0603 C-2.97624,-3.36125 -2.96224,-3.64119 -2.94824,-3.90015 C-2.93424,-4.1591 -2.90625,-4.37256 -2.86426,-4.54053 C-2.80827,-5.54834 -2.55981,-6.2867 -2.1189,-6.75562 C-1.67798,-7.22453 -0.855632,-7.52897 0.348145,-7.66895 C0.922038,-7.75293 1.46794,-7.78792 1.98584,-7.77393 C2.50374,-7.75993 2.95516,-7.67594 3.34009,-7.52197 C3.72502,-7.368 4.03296,-7.13354 4.26392,-6.8186 C4.49487,-6.50366 4.59635,-6.08724 4.56836,-5.56934 L4.56836,-4.37256 C4.65234,-4.40055 4.75732,-4.42155 4.8833,-4.43555 C5.00928,-4.44954 5.16325,-4.48454 5.34521,-4.54053 C5.51318,-4.56852 5.78263,-4.53353 6.15356,-4.43555 C6.5245,-4.33757 6.93392,-4.20809 7.38184,-4.04712 C7.82975,-3.88615 8.28117,-3.71118 8.73608,-3.52222 C9.191,-3.33325 9.62142,-3.15479 10.0273,-2.98682 C9.7054,-3.04281 9.36597,-3.0498 9.00903,-3.00781 C8.6521,-2.96582 8.29167,-2.90283 7.92773,-2.81885 C5.80013,-2.24495 3.92798,-1.79354 2.31128,-1.4646 C0.69458,-1.13566 -0.694661,-0.862712 -1.85645,-0.645752 C-3.01823,-0.428792 -3.98055,-0.243327 -4.74341,-0.0893555 C-5.50627,0.0646159 -6.11515,0.264079 -6.57007,0.509033 C-7.02498,0.753988 -7.35392,1.07243 -7.55688,1.46436 C-7.75985,1.85628 -7.86133,2.38118 -7.86133,3.03906 C-7.86133,3.34701 -7.86833,3.96639 -7.88232,4.89722 C-7.89632,5.82804 -7.91032,6.85335 -7.92432,7.97314 C-7.93831,9.09294 -7.94531,10.2127 -7.94531,11.3325 C-7.94531,12.4523 -7.91732,13.3411 -7.86133,13.999 C-7.80534,14.5729 -7.72835,15.0033 -7.63037,15.2903 C-7.53239,15.5772 -7.40641,15.7767 -7.25244,15.8887 C-7.25244,15.6927 -7.23844,15.3498 -7.21045,14.8599 C-7.18245,14.37 -7.14046,13.6246 -7.08447,12.6238 C-7.02848,11.623 -6.9585,10.3107 -6.87451,8.68701 C-6.79053,7.06331 -6.67855,5.01969 -6.53857,2.55615 C-6.46859,2.15023 -6.30762,1.86328 -6.05566,1.69531 C-5.80371,1.52734 -5.47477,1.40137 -5.06885,1.31738 L10.6782,-2.41992 M3.41357,-5.65332 C3.41357,-5.82129 3.36808,-5.97876 3.2771,-6.12573 C3.18612,-6.27271 2.95866,-6.37419 2.59473,-6.43018 C2.70671,-6.3182 2.7627,-6.15723 2.7627,-5.94727 C2.70671,-5.55534 2.66471,-5.15641 2.63672,-4.75049 C2.60872,-4.34456 2.58073,-3.98763 2.55273,-3.67969 C2.52474,-3.30176 2.48975,-2.94482 2.44775,-2.60889 L3.18262,-2.81885 C3.23861,-3.0988 3.2911,-3.49772 3.34009,-4.01563 C3.38908,-4.53353 3.41357,-5.07943 3.41357,-5.65332 M0.831055,-6.34619 C0.341146,-6.26221 -0.0332845,-6.17472 -0.292236,-6.08374 C-0.551188,-5.99276 -0.750651,-5.86328 -0.890625,-5.69531 C-1.0306,-5.52734 -1.12508,-5.32088 -1.17407,-5.07593 C-1.22306,-4.83097 -1.26156,-4.51953 -1.28955,-4.1416 L-1.28955,-3.55371 C-1.0516,-3.58171 -0.740153,-3.6237 -0.355225,-3.67969 C0.0297038,-3.73568 0.523112,-3.79167 1.125,-3.84766 C1.18099,-4.1696 1.22298,-4.55103 1.25098,-4.99194 C1.27897,-5.43286 1.29297,-5.89827 1.29297,-6.38818 C1.23698,-6.38818 1.16699,-6.38118 1.08301,-6.36719 C0.999023,-6.35319 0.915039,-6.34619 0.831055,-6.34619 M7.61279,4.65576 C7.96273,4.65576 8.33016,4.52279 8.71509,4.25684 C9.10002,3.99089 9.43945,3.64095 9.7334,3.20703 C10.0973,2.66113 10.2793,2.05924 10.2793,1.40137 C10.2793,1.26139 10.2443,1.08993 10.1743,0.886963 C10.1043,0.684001 9.95736,0.512533 9.7334,0.372559 C9.67741,0.316569 9.60392,0.264079 9.51294,0.215088 C9.42196,0.166097 9.33447,0.141602 9.25049,0.141602 C8.84456,0.141602 8.44914,0.278076 8.06421,0.551025 C7.67928,0.823975 7.37484,1.17741 7.15088,1.61133 C6.74495,2.12923 6.54199,2.67513 6.54199,3.24902 C6.54199,3.82292 6.74495,4.22184 7.15088,4.4458 C7.29085,4.58577 7.44482,4.65576 7.61279,4.65576 M0.348145,4.92871 L-5.06885,5.99951 L-5.27881,9.61084 L0.180176,7.80518 L0.348145,4.92871 M8.6416,7.88916 L3.62354,9.90479 L3.14063,13.1382 L7.92773,10.7656 L8.6416,7.88916 M7.52881,10.6816 L3.7915,12.4033 L4.08545,9.98877 L8.01172,8.66602 L7.52881,10.6816"/>
</g>

<g fill="#1f78b4" fill-opacity="1" stroke="none" transform="matrix(1,0,0,1,0,0)"
font-family="MS Shell Dlg 2" font-size="7.8" font-weight="400" font-style="normal" 
>
</g>
</g>
</svg>
