<?xml version="1.0" encoding="UTF-8" standalone="no"?>
<svg width="11.2889mm" height="11.2889mm"
 viewBox="0 0 32 32"
 xmlns="http://www.w3.org/2000/svg" xmlns:xlink="http://www.w3.org/1999/xlink"  version="1.2" baseProfile="tiny">
<title>Qt SVG Document</title>
<desc>Generated with Qt</desc>
<defs>
</defs>
<g fill="none" stroke="black" stroke-width="1" fill-rule="evenodd" stroke-linecap="square" stroke-linejoin="bevel" >

<g fill="#1f78b4" fill-opacity="1" stroke="none" transform="matrix(1,0,0,1,0,0)"
font-family="MS Shell Dlg 2" font-size="7.8" font-weight="400" font-style="normal" 
>
<path vector-effect="non-scaling-stroke" fill-rule="evenodd" d="M37.2598,16 C37.2598,27.7415 27.7415,37.2598 16,37.2598 C4.25851,37.2598 -5.25984,27.7415 -5.25984,16 C-5.25984,4.25851 4.25851,-5.25984 16,-5.25984 C27.7415,-5.25984 37.2598,4.25851 37.2598,16 "/>
</g>

<g fill="#ffffff" fill-opacity="0.94902" stroke="none" transform="matrix(1,0,0,1,16,13.1654)"
font-family="MS Shell Dlg 2" font-size="7.8" font-weight="400" font-style="normal" 
>
<path vector-effect="none" fill-rule="evenodd" d="M-4.45996,12.4033 L-5.44678,11.6685 L5.59717,11.6685 L4.73633,12.4033 L-4.45996,12.4033 M7.69678,16.1406 L7.69678,17.6943 L-7.56738,17.6943 L-7.56738,16.1406 L7.69678,16.1406 M5.59717,15.6787 L-5.44678,15.6787 L-4.37598,12.6973 L4.52637,12.6973 L5.59717,15.6787 M4.3584,10.8076 L-4.20801,10.8076 L-4.20801,9.94678 L-3.34717,9.94678 L-2.1084,-8.4458 L-2.1084,-8.57178 C-2.1084,-8.69775 -2.03141,-8.76074 -1.87744,-8.76074 L1.94385,-8.76074 C2.11182,-8.76074 2.2238,-8.69775 2.27979,-8.57178 C2.30778,-8.51579 2.32178,-8.4738 2.32178,-8.4458 L3.49756,9.94678 L4.3584,9.94678 L4.3584,10.8076"/>
</g>

<g fill="#1f78b4" fill-opacity="1" stroke="none" transform="matrix(1,0,0,1,0,0)"
font-family="MS Shell Dlg 2" font-size="7.8" font-weight="400" font-style="normal" 
>
</g>
</g>
</svg>
