<?xml version="1.0" encoding="UTF-8" standalone="no"?>
<svg width="11.2889mm" height="11.2889mm"
 viewBox="0 0 32 32"
 xmlns="http://www.w3.org/2000/svg" xmlns:xlink="http://www.w3.org/1999/xlink"  version="1.2" baseProfile="tiny">
<title>Qt SVG Document</title>
<desc>Generated with Qt</desc>
<defs>
</defs>
<g fill="none" stroke="black" stroke-width="1" fill-rule="evenodd" stroke-linecap="square" stroke-linejoin="bevel" >

<g fill="#1f78b4" fill-opacity="1" stroke="none" transform="matrix(1,0,0,1,0,0)"
font-family="MS Shell Dlg 2" font-size="7.8" font-weight="400" font-style="normal" 
>
<path vector-effect="non-scaling-stroke" fill-rule="evenodd" d="M37.2598,16 C37.2598,27.7415 27.7415,37.2598 16,37.2598 C4.25851,37.2598 -5.25984,27.7415 -5.25984,16 C-5.25984,4.25851 4.25851,-5.25984 16,-5.25984 C27.7415,-5.25984 37.2598,4.25851 37.2598,16 "/>
</g>

<g fill="#ffffff" fill-opacity="0.94902" stroke="none" transform="matrix(1,0,0,1,17.1339,10.3307)"
font-family="MS Shell Dlg 2" font-size="7.8" font-weight="400" font-style="normal" 
>
<path vector-effect="none" fill-rule="evenodd" d="M11.749,12.1514 C11.637,12.2633 11.5181,12.3333 11.3921,12.3613 C10.6782,12.5853 9.95736,12.8127 9.22949,13.0437 C8.50163,13.2747 7.78076,13.5091 7.06689,13.7471 C6.82894,13.8031 6.67497,13.8241 6.60498,13.8101 C6.53499,13.7961 6.45801,13.6701 6.37402,13.4321 C5.4502,11.8924 4.53687,10.3247 3.63403,8.729 C2.7312,7.1333 1.82487,5.5516 0.915039,3.98389 C0.42513,3.14404 -0.0647786,2.3077 -0.554688,1.47485 C-1.0446,0.642008 -1.53451,-0.201335 -2.02441,-1.05518 C-2.13639,-1.25114 -2.18538,-1.36312 -2.17139,-1.39111 C-2.15739,-1.41911 -2.03141,-1.43311 -1.79346,-1.43311 L2.7207,-1.43311 C3.08464,-1.43311 3.34359,-1.30713 3.49756,-1.05518 C4.23942,0.1486 4.98828,1.33838 5.74414,2.51416 C6.5,3.68994 7.25586,4.87972 8.01172,6.0835 C8.6696,7.06331 9.29948,8.03963 9.90137,9.01245 C10.5033,9.98527 11.1191,10.9756 11.749,11.9834 L11.749,12.1514 M-4.12402,4.92871 C-4.18001,5.04069 -4.20801,5.09668 -4.20801,5.09668 C-4.7819,6.30046 -5.3418,7.49023 -5.8877,8.66602 C-6.43359,9.8418 -6.99349,11.0316 -7.56738,12.2354 C-7.67936,12.4593 -7.77734,12.6868 -7.86133,12.9177 C-7.94531,13.1487 -8.04329,13.3761 -8.15527,13.6001 C-8.25326,13.7541 -8.35124,13.88 -8.44922,13.978 C-8.5472,14.076 -8.70817,14.125 -8.93213,14.125 C-9.36605,14.097 -9.79647,14.083 -10.2234,14.083 C-10.6503,14.083 -11.0807,14.083 -11.5146,14.083 C-11.8366,14.083 -11.9346,13.957 -11.8086,13.7051 C-11.8086,13.6351 -11.7946,13.5861 -11.7666,13.5581 C-11.7386,13.5301 -11.7106,13.4881 -11.6826,13.4321 C-11.4307,12.9142 -11.1752,12.4208 -10.9163,11.9519 C-10.6573,11.483 -10.3879,11.0036 -10.1079,10.5137 C-9.98193,10.2197 -9.98193,9.96077 -10.1079,9.73682 C-10.2759,9.45687 -10.4438,9.17342 -10.6118,8.88647 C-10.7798,8.59953 -10.9688,8.33708 -11.1787,8.09912 C-11.3187,7.87516 -11.4832,7.6617 -11.6721,7.45874 C-11.8611,7.25578 -12.0535,7.04232 -12.2495,6.81836 C-12.4175,6.6224 -12.4035,6.43343 -12.2075,6.25146 C-11.1717,5.70557 -10.1604,5.17716 -9.17358,4.66626 C-8.18677,4.15535 -7.18945,3.64095 -6.18164,3.12305 C-5.90169,2.96908 -5.68473,2.73812 -5.53076,2.43018 C-5.19482,1.88428 -4.87638,1.33838 -4.57544,0.79248 C-4.2745,0.246582 -3.96305,-0.299316 -3.64111,-0.845215 C-3.58512,-0.901204 -3.53613,-0.957194 -3.49414,-1.01318 C-3.45215,-1.06917 -3.41715,-1.12516 -3.38916,-1.18115 C-3.24919,-1.04118 -3.1512,-0.929199 -3.09521,-0.845215 C-1.83545,1.36637 -0.586182,3.57446 0.652588,5.77905 C1.89136,7.98364 3.12663,10.1917 4.3584,12.4033 C4.49837,12.5993 4.61735,12.7917 4.71533,12.9807 C4.81331,13.1697 4.93229,13.3761 5.07227,13.6001 C5.17025,13.922 5.07227,14.083 4.77832,14.083 L-3.1792,14.083 C-3.48714,14.083 -3.7216,14.02 -3.88257,13.894 C-4.04354,13.7681 -4.12402,13.5301 -4.12402,13.1802 L-4.12402,5.18066 L-4.12402,4.92871 M-4.33398,3.29102 C-4.36198,3.29102 -4.38298,3.29801 -4.39697,3.31201 C-4.41097,3.32601 -4.43197,3.33301 -4.45996,3.33301 C-5.43978,3.9069 -6.43009,4.4528 -7.43091,4.9707 C-8.43172,5.48861 -9.43604,6.02051 -10.4438,6.56641 C-10.5838,6.65039 -10.6538,6.70638 -10.6538,6.73438 C-10.6538,6.76237 -10.5978,6.84635 -10.4858,6.98633 C-9.99593,7.47624 -9.6145,7.98714 -9.34155,8.51904 C-9.0686,9.05094 -8.82015,9.61784 -8.59619,10.2197 C-8.59619,10.3597 -8.5682,10.4997 -8.51221,10.6396 C-8.45622,10.7796 -8.42822,10.9406 -8.42822,11.1226 C-8.42822,11.1506 -8.41423,11.1646 -8.38623,11.1646 C-8.35824,11.1646 -8.34424,11.1715 -8.34424,11.1855 C-8.34424,11.1995 -8.33024,11.2065 -8.30225,11.2065 C-7.63037,9.89079 -6.9585,8.57153 -6.28662,7.24878 C-5.61475,5.92603 -4.94987,4.60677 -4.29199,3.29102 L-4.33398,3.29102 M-4.29199,3.29102 L-4.33398,3.29102 C-4.36198,3.29102 -4.38298,3.29801 -4.39697,3.31201 C-4.41097,3.32601 -4.43197,3.33301 -4.45996,3.33301 C-5.43978,3.9069 -6.43009,4.4528 -7.43091,4.9707 C-8.43172,5.48861 -9.43604,6.02051 -10.4438,6.56641 C-10.5838,6.65039 -10.6538,6.70638 -10.6538,6.73438 C-10.6538,6.76237 -10.5978,6.84635 -10.4858,6.98633 C-9.99593,7.47624 -9.6145,7.98714 -9.34155,8.51904 C-9.0686,9.05094 -8.82015,9.61784 -8.59619,10.2197 C-8.59619,10.3597 -8.5682,10.4997 -8.51221,10.6396 C-8.45622,10.7796 -8.42822,10.9406 -8.42822,11.1226 C-8.42822,11.1506 -8.41423,11.1646 -8.38623,11.1646 C-8.35824,11.1646 -8.34424,11.1715 -8.34424,11.1855 C-8.34424,11.1995 -8.33024,11.2065 -8.30225,11.2065 C-7.63037,9.89079 -6.9585,8.57153 -6.28662,7.24878 C-5.61475,5.92603 -4.94987,4.60677 -4.29199,3.29102 "/>
</g>

<g fill="#1f78b4" fill-opacity="1" stroke="none" transform="matrix(1,0,0,1,0,0)"
font-family="MS Shell Dlg 2" font-size="7.8" font-weight="400" font-style="normal" 
>
</g>
</g>
</svg>
