<?xml version="1.0" encoding="UTF-8" standalone="no"?>
<svg width="11.2889mm" height="11.2889mm"
 viewBox="0 0 32 32"
 xmlns="http://www.w3.org/2000/svg" xmlns:xlink="http://www.w3.org/1999/xlink"  version="1.2" baseProfile="tiny">
<title>Qt SVG Document</title>
<desc>Generated with Qt</desc>
<defs>
</defs>
<g fill="none" stroke="black" stroke-width="1" fill-rule="evenodd" stroke-linecap="square" stroke-linejoin="bevel" >

<g fill="#1f78b4" fill-opacity="1" stroke="none" transform="matrix(1,0,0,1,0,0)"
font-family="MS Shell Dlg 2" font-size="7.8" font-weight="400" font-style="normal" 
>
<path vector-effect="non-scaling-stroke" fill-rule="evenodd" d="M37.2598,16 C37.2598,27.7415 27.7415,37.2598 16,37.2598 C4.25851,37.2598 -5.25984,27.7415 -5.25984,16 C-5.25984,4.25851 4.25851,-5.25984 16,-5.25984 C27.7415,-5.25984 37.2598,4.25851 37.2598,16 "/>
</g>

<g fill="#ffffff" fill-opacity="0.94902" stroke="none" transform="matrix(1,0,0,1,16,13.1654)"
font-family="MS Shell Dlg 2" font-size="7.8" font-weight="400" font-style="normal" 
>
<path vector-effect="none" fill-rule="evenodd" d="M8.78857,-2 C9.64242,-0.390299 10.4263,1.2264 11.1401,2.8501 C11.742,4.26383 12.2949,5.77905 12.7988,7.39575 C13.3027,9.01245 13.5547,10.5137 13.5547,11.8994 L-13.4883,11.8994 C-13.4883,10.5137 -13.2468,9.01245 -12.7639,7.39575 C-12.281,5.77905 -11.7386,4.26383 -11.1367,2.8501 C-10.4508,1.2264 -9.65999,-0.390299 -8.76416,-2 L0.012207,-8.06787 L8.78857,-2 M-8.76416,3.375 C-9.33805,3.375 -9.83146,3.57446 -10.2444,3.97339 C-10.6573,4.37231 -10.8638,4.88672 -10.8638,5.5166 C-10.8638,6.09049 -10.6573,6.5804 -10.2444,6.98633 C-9.83146,7.39225 -9.33805,7.59521 -8.76416,7.59521 C-8.16227,7.59521 -7.65487,7.39225 -7.24194,6.98633 C-6.82902,6.5804 -6.62256,6.09049 -6.62256,5.5166 C-6.62256,4.88672 -6.82902,4.37231 -7.24194,3.97339 C-7.65487,3.57446 -8.16227,3.375 -8.76416,3.375 M-3.91406,5.05469 C-3.91406,4.78874 -4.01204,4.54378 -4.20801,4.31982 C-4.40397,4.09587 -4.63493,3.98389 -4.90088,3.98389 C-5.20882,3.98389 -5.46427,4.09587 -5.66724,4.31982 C-5.8702,4.54378 -5.97168,4.78874 -5.97168,5.05469 L-5.97168,8.18311 L-9.79297,8.18311 C-10.0869,8.18311 -10.3249,8.29858 -10.5068,8.52954 C-10.6888,8.7605 -10.7798,9.00895 -10.7798,9.2749 C-10.7798,9.55485 -10.6888,9.8033 -10.5068,10.0203 C-10.3249,10.2372 -10.0869,10.3457 -9.79297,10.3457 L-4.90088,10.3457 C-4.63493,10.3457 -4.40397,10.2372 -4.20801,10.0203 C-4.01204,9.8033 -3.91406,9.55485 -3.91406,9.2749 L-3.91406,5.05469 M-3.64111,3.45898 C-3.30518,3.62695 -3.04272,4.01888 -2.85376,4.63477 C-2.66479,5.25065 -2.54932,5.91903 -2.50732,6.63989 C-2.46533,7.36076 -2.48633,8.07113 -2.57031,8.771 C-2.6543,9.47087 -2.82926,9.99577 -3.09521,10.3457 L12.001,10.3457 L11.2241,8.75 C11.2241,8.12012 11.1016,7.51823 10.8567,6.94434 C10.6117,6.37044 10.1463,5.88403 9.46045,5.48511 C8.77458,5.08618 7.82275,4.79924 6.60498,4.62427 C5.38721,4.4493 3.7915,4.4458 1.81787,4.61377 C1.104,4.24984 0.397135,3.94889 -0.302734,3.71094 C-0.876628,3.51497 -1.47152,3.375 -2.0874,3.29102 C-2.70329,3.20703 -3.22119,3.26302 -3.64111,3.45898 "/>
</g>

<g fill="#1f78b4" fill-opacity="1" stroke="none" transform="matrix(1,0,0,1,0,0)"
font-family="MS Shell Dlg 2" font-size="7.8" font-weight="400" font-style="normal" 
>
</g>
</g>
</svg>
