<?xml version="1.0" encoding="UTF-8" standalone="no"?>
<svg width="11.2889mm" height="11.2889mm"
 viewBox="0 0 32 32"
 xmlns="http://www.w3.org/2000/svg" xmlns:xlink="http://www.w3.org/1999/xlink"  version="1.2" baseProfile="tiny">
<title>Qt SVG Document</title>
<desc>Generated with Qt</desc>
<defs>
</defs>
<g fill="none" stroke="black" stroke-width="1" fill-rule="evenodd" stroke-linecap="square" stroke-linejoin="bevel" >

<g fill="#3d97f1" fill-opacity="1" stroke="none" transform="matrix(1,0,0,1,0,0)"
font-family="MS Shell Dlg 2" font-size="7.8" font-weight="400" font-style="normal" 
>
<path vector-effect="non-scaling-stroke" fill-rule="evenodd" d="M37.2598,16 C37.2598,27.7415 27.7415,37.2598 16,37.2598 C4.25851,37.2598 -5.25984,27.7415 -5.25984,16 C-5.25984,4.25851 4.25851,-5.25984 16,-5.25984 C27.7415,-5.25984 37.2598,4.25851 37.2598,16 "/>
</g>

<g fill="#ffffff" fill-opacity="0.94902" stroke="none" transform="matrix(1,0,0,1,16,12.5984)"
font-family="MS Shell Dlg 2" font-size="7.8" font-weight="400" font-style="normal" 
>
<path vector-effect="none" fill-rule="evenodd" d="M-6.34961,-5.35938 C-6.61556,-5.35938 -6.82552,-5.45036 -6.97949,-5.63232 C-7.13346,-5.81429 -7.21045,-6.03825 -7.21045,-6.3042 C-7.18245,-6.55615 -7.07747,-6.76261 -6.89551,-6.92358 C-6.71354,-7.08455 -6.48958,-7.15104 -6.22363,-7.12305 C-5.99967,-7.12305 -5.80021,-7.02856 -5.62524,-6.8396 C-5.45028,-6.65063 -5.37679,-6.43018 -5.40479,-6.17822 C-5.43278,-5.94027 -5.54126,-5.7373 -5.73022,-5.56934 C-5.91919,-5.40137 -6.12565,-5.33138 -6.34961,-5.35938 M-4.12402,-6.22021 C-4.37598,-6.24821 -4.58944,-6.35319 -4.7644,-6.53516 C-4.93937,-6.71712 -5.01286,-6.94108 -4.98486,-7.20703 C-4.95687,-7.43099 -4.84839,-7.63045 -4.65942,-7.80542 C-4.47046,-7.98039 -4.264,-8.05387 -4.04004,-8.02588 C-3.77409,-8.02588 -3.55713,-7.9244 -3.38916,-7.72144 C-3.22119,-7.51847 -3.1512,-7.30501 -3.1792,-7.08105 C-3.20719,-6.8151 -3.31217,-6.60514 -3.49414,-6.45117 C-3.67611,-6.2972 -3.88607,-6.22021 -4.12402,-6.22021 M-3.55713,2.38818 C-4.01904,2.2762 -4.37948,2.02425 -4.63843,1.63232 C-4.89738,1.2404 -4.97087,0.806478 -4.85889,0.330566 C-4.7749,-0.0753581 -4.55794,-0.414795 -4.20801,-0.687744 C-3.85807,-0.960693 -3.47314,-1.06917 -3.05322,-1.01318 C-2.96924,-1.01318 -2.89225,-0.999186 -2.82227,-0.971191 C-2.34635,-0.887207 -1.97892,-0.649251 -1.71997,-0.257324 C-1.46102,0.134603 -1.38753,0.568522 -1.49951,1.04443 C-1.5835,1.47835 -1.79696,1.82479 -2.13989,2.08374 C-2.48283,2.34269 -2.87126,2.44417 -3.30518,2.38818 L-3.55713,2.38818 M-7.33643,7.07031 L-8.34424,5.91553 C-8.40023,5.85954 -8.42822,5.78955 -8.42822,5.70557 L-8.34424,-1.83203 C-8.27425,-2.02799 -8.18327,-2.13997 -8.07129,-2.16797 L-4.66992,-3.42773 L-4.58594,-3.93164 L-7.12646,-3.02881 L-7.08447,-3.5957 L-9.1001,-2.86084 C-9.12809,-2.83285 -9.17708,-2.81885 -9.24707,-2.81885 C-9.38704,-2.87484 -9.49902,-2.95882 -9.58301,-3.0708 C-9.639,-3.30876 -9.55501,-3.46973 -9.33105,-3.55371 L-7.04248,-4.37256 L-7.00049,-4.6665 L-2.36035,-6.51416 L-2.40234,-6.05225 L5.84912,-9.0127 C6.05908,-9.09668 6.22005,-9.02669 6.33203,-8.80273 C6.38802,-8.56478 6.30404,-8.40381 6.08008,-8.31982 L-2.44434,-5.27539 L-2.48633,-4.7085 L-3.83008,-4.22559 L-3.95605,-3.11279 C-4.01204,-2.94482 -4.09603,-2.84684 -4.20801,-2.81885 L-7.60938,-1.58008 L-7.69336,5.55859 L-7.29443,5.99951 L-7.29443,4.80273 C-7.29443,4.48079 -7.19645,4.27783 -7.00049,4.19385 C-6.80452,4.10986 -6.67855,4.06787 -6.62256,4.06787 C-6.46859,4.06787 -6.30762,4.10986 -6.13965,4.19385 C-5.97168,4.27783 -5.8737,4.48079 -5.8457,4.80273 L-5.92969,8.45605 L-5.92969,8.54004 L-6.58057,8.91797 C-6.77653,9.05794 -6.89551,9.22941 -6.9375,9.43237 C-6.97949,9.63534 -6.9445,9.8348 -6.83252,10.0308 C-6.69255,10.2687 -6.48958,10.3877 -6.22363,10.3877 C-6.05566,10.3877 -5.90169,10.3457 -5.76172,10.2617 L-5.36279,10.0308 C-5.11084,10.2687 -4.7959,10.4297 -4.41797,10.5137 C-4.02604,10.5977 -3.54313,10.7061 -2.96924,10.8391 C-2.39535,10.9721 -1.97542,11.0666 -1.70947,11.1226 C-1.48551,11.1785 -1.32804,11.2835 -1.23706,11.4375 C-1.14608,11.5915 -1.11808,11.7559 -1.15308,11.9309 C-1.18807,12.1059 -1.28255,12.2563 -1.43652,12.3823 C-1.59049,12.5083 -1.78646,12.5433 -2.02441,12.4873 C-2.36035,12.4033 -2.6438,12.3403 -2.87476,12.2983 C-3.10571,12.2563 -3.31217,12.2144 -3.49414,12.1724 C-3.67611,12.1304 -3.87557,12.0884 -4.09253,12.0464 C-4.30949,12.0044 -4.57894,11.9554 -4.90088,11.8994 C-5.12484,11.8294 -5.37329,11.7244 -5.64624,11.5845 C-5.91919,11.4445 -6.18514,11.238 -6.44409,10.9651 C-6.70304,10.6921 -6.9165,10.3562 -7.08447,9.95728 C-7.25244,9.55835 -7.33643,9.07194 -7.33643,8.49805 C-7.33643,8.2321 -7.33643,7.98714 -7.33643,7.76318 C-7.33643,7.53923 -7.32243,7.30827 -7.29443,7.07031 L-7.33643,7.07031 M-5.36279,8.18311 C-5.36279,7.98714 -5.35579,7.6967 -5.3418,7.31177 C-5.3278,6.92684 -5.3138,6.53141 -5.2998,6.12549 C-5.28581,5.71956 -5.27881,5.33114 -5.27881,4.96021 C-5.27881,4.58927 -5.27881,4.30583 -5.27881,4.10986 C-5.25081,3.59196 -5.07235,3.21053 -4.74341,2.96558 C-4.41447,2.72062 -4.07503,2.61214 -3.7251,2.64014 C-3.6971,2.64014 -3.68311,2.64014 -3.68311,2.64014 C-3.34717,2.66813 -3.02173,2.80461 -2.70679,3.04956 C-2.39185,3.29451 -2.23438,3.61995 -2.23438,4.02588 L-2.27637,6.6084 L-3.01123,6.77637 C-3.09521,6.77637 -3.1932,6.80436 -3.30518,6.86035 L-5.36279,8.18311 M1.73389,6.56641 C1.78988,6.70638 1.77238,6.83936 1.6814,6.96533 C1.59041,7.09131 1.47493,7.16829 1.33496,7.19629 L-2.6543,8.01514 L-5.8877,10.0308 C-5.94368,10.1007 -6.04167,10.1357 -6.18164,10.1357 C-6.34961,10.1357 -6.49658,10.0448 -6.62256,9.86279 C-6.67855,9.75081 -6.69954,9.62484 -6.68555,9.48486 C-6.67155,9.34489 -6.58757,9.23991 -6.43359,9.16992 L-3.13721,7.07031 C-3.10921,7.07031 -3.08822,7.06331 -3.07422,7.04932 C-3.06022,7.03532 -3.02523,7.02832 -2.96924,7.02832 L1.125,6.16748 C1.47493,6.11149 1.6779,6.24447 1.73389,6.56641 M0.432129,8.66602 C0.64209,8.72201 0.890544,8.83748 1.17749,9.01245 C1.46444,9.18742 1.60791,9.54085 1.60791,10.0728 L1.85986,13.915 L0.306152,14.5029 L0.0961914,14.6499 C0.0402018,14.4679 0.012207,14.307 0.012207,14.167 L-0.344727,10.9756 C-0.736654,10.9196 -1.13558,10.8356 -1.5415,10.7236 C-1.89144,10.6396 -2.26587,10.5557 -2.66479,10.4717 C-3.06372,10.3877 -3.43115,10.3037 -3.76709,10.2197 C-3.94906,10.1637 -4.14502,10.1112 -4.35498,10.0623 C-4.56494,10.0133 -4.74691,9.90479 -4.90088,9.73682 L-2.57031,8.26709 L-1.91943,8.14111 L0.432129,8.66602 M12.6519,10.8076 C12.7358,11.1296 12.6973,11.441 12.5364,11.7419 C12.3754,12.0429 12.141,12.2354 11.833,12.3193 L11.4551,12.4033 L11.3921,12.2354 L10.8882,12.3193 L10.3633,12.4033 L9.85938,12.4873 L9.90137,12.8862 L6.24805,13.915 L2.06982,14.6499 L11.665,11.8364 C11.861,11.7804 12.008,11.6685 12.106,11.5005 C12.2039,11.3325 12.2249,11.1436 12.1689,10.9336 L12.6519,10.8076 M10.9722,12.8442 C11.0282,13.2082 10.9477,13.5406 10.7307,13.8416 C10.5138,14.1425 10.2233,14.321 9.85938,14.377 L-7.25244,17.2744 L-7.33643,16.7495 L9.77539,13.873 C9.99935,13.8171 10.1848,13.7016 10.3318,13.5266 C10.4788,13.3516 10.5173,13.1522 10.4473,12.9282 L10.9722,12.8442"/>
</g>

<g fill="#3d97f1" fill-opacity="1" stroke="none" transform="matrix(1,0,0,1,0,0)"
font-family="MS Shell Dlg 2" font-size="7.8" font-weight="400" font-style="normal" 
>
</g>
</g>
</svg>
