<?xml version="1.0" encoding="UTF-8" standalone="no"?>
<svg width="11.2889mm" height="11.2889mm"
 viewBox="0 0 32 32"
 xmlns="http://www.w3.org/2000/svg" xmlns:xlink="http://www.w3.org/1999/xlink"  version="1.2" baseProfile="tiny">
<title>Qt SVG Document</title>
<desc>Generated with Qt</desc>
<defs>
</defs>
<g fill="none" stroke="black" stroke-width="1" fill-rule="evenodd" stroke-linecap="square" stroke-linejoin="bevel" >

<g fill="#3d97f1" fill-opacity="1" stroke="none" transform="matrix(1,0,0,1,0,0)"
font-family="MS Shell Dlg 2" font-size="7.8" font-weight="400" font-style="normal" 
>
<path vector-effect="non-scaling-stroke" fill-rule="evenodd" d="M37.2598,16 C37.2598,27.7415 27.7415,37.2598 16,37.2598 C4.25851,37.2598 -5.25984,27.7415 -5.25984,16 C-5.25984,4.25851 4.25851,-5.25984 16,-5.25984 C27.7415,-5.25984 37.2598,4.25851 37.2598,16 "/>
</g>

<g fill="#ffffff" fill-opacity="0.94902" stroke="none" transform="matrix(1,0,0,1,16,12.5984)"
font-family="MS Shell Dlg 2" font-size="7.8" font-weight="400" font-style="normal" 
>
<path vector-effect="none" fill-rule="evenodd" d="M8.51563,15.0698 C9.27148,14.5799 10.0203,14.335 10.7622,14.335 L10.7622,15.7627 C10.4683,15.7627 10.2163,15.7907 10.0063,15.8467 C9.79639,15.9027 9.57243,16.0286 9.33447,16.2246 C8.62061,16.6585 7.87524,16.8755 7.09839,16.8755 C6.32153,16.8755 5.60417,16.6585 4.94629,16.2246 C4.69434,16.0286 4.43188,15.9027 4.15894,15.8467 C3.88599,15.7907 3.61654,15.7627 3.35059,15.7627 L3.09863,15.7627 C2.93066,15.8187 2.7592,15.8887 2.58423,15.9727 C2.40926,16.0566 2.25179,16.1406 2.11182,16.2246 C1.36995,16.6865 0.656087,16.9175 -0.0297852,16.9175 L-0.11377,16.9175 C-0.897624,16.9175 -1.66048,16.6865 -2.40234,16.2246 C-2.54232,16.1406 -2.69279,16.0566 -2.85376,15.9727 C-3.01473,15.8887 -3.1652,15.8187 -3.30518,15.7627 C-3.61312,15.7067 -3.91056,15.7207 -4.19751,15.8047 C-4.48446,15.8887 -4.7889,16.0286 -5.11084,16.2246 C-5.8527,16.6865 -6.58057,16.9175 -7.29443,16.9175 C-7.70036,16.9175 -8.08179,16.8615 -8.43872,16.7495 C-8.79565,16.6375 -9.16309,16.4626 -9.54102,16.2246 C-9.70898,16.0846 -9.88745,15.9867 -10.0764,15.9307 C-10.2654,15.8747 -10.4718,15.8187 -10.6958,15.7627 L-10.6958,14.4189 C-10.5278,14.4189 -10.3634,14.4329 -10.2024,14.4609 C-10.0414,14.4889 -9.87695,14.5379 -9.70898,14.6079 C-9.54102,14.6639 -9.36955,14.7199 -9.19458,14.7759 C-9.01961,14.8319 -8.86214,14.9299 -8.72217,15.0698 C-8.5542,15.1538 -8.38273,15.2308 -8.20776,15.3008 C-8.0328,15.3708 -7.86133,15.4408 -7.69336,15.5107 C-7.39941,15.5107 -7.10897,15.4792 -6.82202,15.4163 C-6.53507,15.3533 -6.25163,15.2378 -5.97168,15.0698 C-5.70573,14.9019 -5.42228,14.7654 -5.12134,14.6604 C-4.82039,14.5554 -4.54395,14.4749 -4.29199,14.4189 C-3.80208,14.335 -3.32267,14.3455 -2.85376,14.4504 C-2.38485,14.5554 -1.94743,14.7619 -1.5415,15.0698 C-1.34554,15.1538 -1.16007,15.2308 -0.985107,15.3008 C-0.81014,15.3708 -0.638672,15.4408 -0.470703,15.5107 C-0.148763,15.5667 0.148682,15.5492 0.421631,15.4583 C0.69458,15.3673 0.985026,15.2378 1.29297,15.0698 C1.95085,14.5799 2.63672,14.335 3.35059,14.335 C4.21842,14.335 5.02327,14.5799 5.76514,15.0698 C6.68896,15.6717 7.60579,15.6717 8.51563,15.0698 M-0.302734,-4.87646 L-7.29443,-2.37793 L-7.29443,-2.98682 L-5.19482,-4.33057 L-5.19482,-5.40137 L-2.15039,-5.90527 L-2.15039,-8.9707 C-2.15039,-9.11068 -1.96143,-9.21566 -1.5835,-9.28564 C-1.20557,-9.35563 -0.778646,-9.39063 -0.302734,-9.39063 C0.243164,-9.39063 0.698079,-9.35563 1.06201,-9.28564 C1.42594,-9.21566 1.60791,-9.11068 1.60791,-8.9707 L1.60791,-5.90527 L4.69434,-5.40137 L4.69434,-4.33057 L6.75195,-2.98682 L6.75195,-2.37793 L-0.302734,-4.87646 M-0.302734,-1.83203 L-8.63818,0.834473 L-8.63818,0.183594 L-0.302734,-3.23877 L8.17969,0.183594 L8.17969,0.834473 L-0.302734,-1.83203 M-10.3599,3.33301 C-10.4438,3.16504 -10.4438,2.97607 -10.3599,2.76611 C-10.2199,2.51416 -9.91895,2.33219 -9.45703,2.22021 C-8.99512,2.10824 -8.61019,1.97526 -8.30225,1.82129 L-0.302734,-0.572266 L7.69678,1.82129 C8.07471,1.97526 8.47713,2.10824 8.90405,2.22021 C9.33097,2.33219 9.62142,2.51416 9.77539,2.76611 C9.94336,2.97607 9.94336,3.16504 9.77539,3.33301 C9.45345,3.99089 9.11401,4.64176 8.75708,5.28564 C8.40015,5.92952 8.01872,6.5804 7.61279,7.23828 C7.33285,8.1901 7.0599,9.07894 6.79395,9.90479 C6.56999,10.6187 6.34253,11.336 6.11157,12.0569 C5.88062,12.7778 5.68115,13.3062 5.51318,13.6421 C5.21924,13.5581 4.96029,13.4881 4.73633,13.4321 C4.51237,13.3761 4.26742,13.3481 4.00146,13.3481 C3.53955,13.3481 3.09513,13.4146 2.66821,13.5476 C2.24129,13.6806 1.82487,13.8311 1.41895,13.999 C0.369141,14.5449 -0.673665,14.5449 -1.70947,13.999 C-3.1792,13.2572 -4.65592,13.1732 -6.13965,13.7471 C-6.36361,13.4251 -6.58407,12.9142 -6.80103,12.2144 C-7.01799,11.5145 -7.24544,10.7866 -7.4834,10.0308 C-7.73535,9.17692 -7.97331,8.24609 -8.19727,7.23828 L-10.3599,3.33301 M-5.27881,7.32227 L-4.73291,10.5137 L-4.29199,9.44287 C-3.83008,9.93278 -3.33667,10.3492 -2.81177,10.6921 C-2.28687,11.0351 -1.70247,11.2485 -1.05859,11.3325 L-0.302734,13.1802 L0.516113,11.3325 C1.146,11.2485 1.74089,11.0351 2.30078,10.6921 C2.86068,10.3492 3.35758,9.93278 3.7915,9.44287 L4.3584,10.0728 L4.77832,7.42725 L2.36377,8.41406 L3.09863,8.75 C2.35677,9.43587 1.49593,9.8208 0.516113,9.90479 C0.432129,9.68083 0.383138,9.06144 0.369141,8.04663 C0.355143,7.03182 0.348145,5.84554 0.348145,4.48779 L1.50293,4.48779 L1.50293,3.33301 L0.432129,3.33301 C0.894043,3.01107 1.125,2.59814 1.125,2.09424 C1.125,1.68831 0.988525,1.34888 0.715576,1.07593 C0.442627,0.802979 0.10319,0.666504 -0.302734,0.666504 C-0.638672,0.666504 -0.943115,0.802979 -1.21606,1.07593 C-1.48901,1.34888 -1.62549,1.68831 -1.62549,2.09424 C-1.62549,2.59814 -1.38053,3.01107 -0.890625,3.33301 L-1.96143,3.33301 L-1.96143,4.48779 L-0.806641,4.48779 C-0.806641,4.92171 -0.806641,5.41862 -0.806641,5.97852 C-0.806641,6.53841 -0.813639,7.09131 -0.827637,7.63721 C-0.841634,8.18311 -0.869629,8.66252 -0.911621,9.07544 C-0.953613,9.48836 -1.0026,9.76481 -1.05859,9.90479 C-1.89844,9.8208 -2.73128,9.46387 -3.55713,8.83398 L-2.6123,8.58203 L-5.27881,7.32227 M-0.302734,2.34619 C-0.414714,2.34619 -0.470703,2.26221 -0.470703,2.09424 C-0.470703,1.96826 -0.414714,1.90527 -0.302734,1.90527 C-0.176758,1.90527 -0.11377,1.96826 -0.11377,2.09424 C-0.11377,2.26221 -0.176758,2.34619 -0.302734,2.34619 "/>
</g>

<g fill="#3d97f1" fill-opacity="1" stroke="none" transform="matrix(1,0,0,1,0,0)"
font-family="MS Shell Dlg 2" font-size="7.8" font-weight="400" font-style="normal" 
>
</g>
</g>
</svg>
