<?xml version="1.0" encoding="UTF-8" standalone="no"?>
<svg width="11.2889mm" height="11.2889mm"
 viewBox="0 0 32 32"
 xmlns="http://www.w3.org/2000/svg" xmlns:xlink="http://www.w3.org/1999/xlink"  version="1.2" baseProfile="tiny">
<title>Qt SVG Document</title>
<desc>Generated with Qt</desc>
<defs>
</defs>
<g fill="none" stroke="black" stroke-width="1" fill-rule="evenodd" stroke-linecap="square" stroke-linejoin="bevel" >

<g fill="#3d97f1" fill-opacity="1" stroke="none" transform="matrix(1,0,0,1,0,0)"
font-family="MS Shell Dlg 2" font-size="7.8" font-weight="400" font-style="normal" 
>
<path vector-effect="non-scaling-stroke" fill-rule="evenodd" d="M37.2598,16 C37.2598,27.7415 27.7415,37.2598 16,37.2598 C4.25851,37.2598 -5.25984,27.7415 -5.25984,16 C-5.25984,4.25851 4.25851,-5.25984 16,-5.25984 C27.7415,-5.25984 37.2598,4.25851 37.2598,16 "/>
</g>

<g fill="#ffffff" fill-opacity="0.94902" stroke="none" transform="matrix(1,0,0,1,16,13.1654)"
font-family="MS Shell Dlg 2" font-size="7.8" font-weight="400" font-style="normal" 
>
<path vector-effect="none" fill-rule="evenodd" d="M11.3501,7.1543 L10.7622,11.0386 L9.98535,10.0308 C8.94954,11.3325 7.70728,12.4558 6.25854,13.4006 C4.80981,14.3455 3.23861,14.9299 1.54492,15.1538 L0.0961914,18.5552 L-1.62549,15.1538 C-3.26318,14.8459 -4.7994,14.2405 -6.23413,13.3376 C-7.66886,12.4348 -8.89714,11.3325 -9.91895,10.0308 L-10.6118,11.5005 L-11.3047,7.1543 L-7.56738,8.83398 L-9.24707,9.44287 C-8.15527,10.4647 -6.99349,11.2555 -5.76172,11.8154 C-4.52995,12.3753 -3.20719,12.7743 -1.79346,13.0122 C-1.59749,13.0122 -1.43302,12.7463 -1.30005,12.2144 C-1.16707,11.6825 -1.05859,10.8356 -0.974609,9.67383 C-0.890625,8.51204 -0.827637,7.00732 -0.785645,5.15967 C-0.743652,3.31201 -0.722656,1.06543 -0.722656,-1.58008 L-3.47314,-1.58008 L-3.47314,-3.15479 L-0.722656,-3.15479 L-0.722656,-4.1416 C-1.26855,-4.35156 -1.73397,-4.698 -2.1189,-5.18091 C-2.50382,-5.66382 -2.69629,-6.20622 -2.69629,-6.80811 C-2.69629,-7.56396 -2.43034,-8.21134 -1.89844,-8.75024 C-1.36654,-9.28914 -0.70166,-9.55859 0.0961914,-9.55859 C0.838053,-9.55859 1.48193,-9.28914 2.02783,-8.75024 C2.57373,-8.21134 2.84668,-7.56396 2.84668,-6.80811 C2.84668,-6.20622 2.65422,-5.66382 2.26929,-5.18091 C1.88436,-4.698 1.41895,-4.35156 0.873047,-4.1416 L0.873047,-3.15479 L3.62354,-3.15479 L3.62354,-1.58008 L0.873047,-1.58008 C0.873047,0.715495 0.880046,2.75911 0.894043,4.55078 C0.90804,6.34245 0.943034,7.87166 0.999023,9.13843 C1.05501,10.4052 1.139,11.3675 1.25098,12.0254 C1.36296,12.6833 1.53792,13.0122 1.77588,13.0122 C3.14762,12.8722 4.47038,12.5153 5.74414,11.9414 C7.0179,11.3675 8.20068,10.5347 9.29248,9.44287 L7.92773,8.54004 L11.3501,7.1543 M-1.10059,-6.80811 C-1.10059,-6.33219 -0.981608,-5.97876 -0.743652,-5.7478 C-0.505697,-5.51685 -0.250244,-5.40137 0.0227051,-5.40137 C0.295654,-5.40137 0.554606,-5.51685 0.799561,-5.7478 C1.04451,-5.97876 1.16699,-6.33219 1.16699,-6.80811 C1.16699,-7.15804 1.05851,-7.42749 0.841553,-7.61646 C0.624593,-7.80542 0.376139,-7.8999 0.0961914,-7.8999 C-0.70166,-7.8999 -1.10059,-7.53597 -1.10059,-6.80811 "/>
</g>

<g fill="#3d97f1" fill-opacity="1" stroke="none" transform="matrix(1,0,0,1,0,0)"
font-family="MS Shell Dlg 2" font-size="7.8" font-weight="400" font-style="normal" 
>
</g>
</g>
</svg>
