<?xml version="1.0" encoding="UTF-8" standalone="no"?>
<svg width="11.25008mm" height="11.25008mm"
 viewBox="-5.3 -5.3 42.52000 42.52000"
 xmlns="http://www.w3.org/2000/svg" xmlns:xlink="http://www.w3.org/1999/xlink"  version="1.2" baseProfile="tiny">
<title>Qt SVG Document</title>
<desc>Generated with Qt</desc>
<defs>
</defs>
<g fill="none" stroke="black" stroke-width="1" fill-rule="evenodd" stroke-linecap="square" stroke-linejoin="bevel" >

<g fill="#3d97f1" fill-opacity="1" stroke="none" transform="matrix(1,0,0,1,0,0)"
font-family="MS Shell Dlg 2" font-size="7.8" font-weight="400" font-style="normal" 
>
<path vector-effect="non-scaling-stroke" fill-rule="evenodd" d="M37.2598,16 C37.2598,27.7415 27.7415,37.2598 16,37.2598 C4.25851,37.2598 -5.25984,27.7415 -5.25984,16 C-5.25984,4.25851 4.25851,-5.25984 16,-5.25984 C27.7415,-5.25984 37.2598,4.25851 37.2598,16 "/>
</g>

<g fill="#ffffff" fill-opacity="0.94902" stroke="none" transform="matrix(1,0,0,1,16,12.5984)"
font-family="MS Shell Dlg 2" font-size="7.8" font-weight="400" font-style="normal" 
>
<path vector-effect="none" fill-rule="evenodd" d="M12.9038,-2.29395 L12.9038,-1.01318 L-12.8584,-1.01318 L-12.8584,-2.29395 L12.9038,-2.29395 M-1.83545,8.79199 L-1.66748,11.1646 L-5.97168,11.1646 L-5.71973,8.79199 L-1.83545,8.79199 M5.84912,8.79199 L6.12207,11.1646 L1.81787,11.1646 L1.98584,8.79199 L5.84912,8.79199 M9.85938,8.79199 L12.9038,8.79199 L12.9038,11.1646 L9.58643,11.1646 L9.85938,8.79199 M-9.79297,8.79199 L-9.54102,11.1646 L-12.8584,11.1646 L-12.8584,8.79199 L-9.79297,8.79199 M-12.8584,0.141602 L12.9038,0.141602 L12.9038,8.37207 L10.1953,8.37207 L10.1953,5.83154 C10.1953,5.34163 9.96785,4.93921 9.51294,4.62427 C9.05802,4.30933 8.49463,4.15186 7.82275,4.15186 C7.16488,4.15186 6.61548,4.30933 6.17456,4.62427 C5.73364,4.93921 5.51318,5.34163 5.51318,5.83154 L5.51318,8.37207 L2.32178,8.37207 L2.32178,5.83154 C2.32178,5.34163 2.10132,4.93921 1.6604,4.62427 C1.21948,4.30933 0.684082,4.15186 0.0541992,4.15186 C-0.603678,4.15186 -1.15658,4.30933 -1.60449,4.62427 C-2.05241,4.93921 -2.27637,5.34163 -2.27637,5.83154 L-2.27637,8.37207 L-5.44678,8.37207 L-5.44678,5.83154 C-5.44678,5.34163 -5.67773,4.93921 -6.13965,4.62427 C-6.60156,4.30933 -7.16146,4.15186 -7.81934,4.15186 C-8.47721,4.15186 -9.03011,4.30933 -9.47803,4.62427 C-9.92594,4.93921 -10.1499,5.34163 -10.1499,5.83154 L-10.1499,8.37207 L-12.8584,8.37207 L-12.8584,0.141602"/>
</g>

<g fill="#3d97f1" fill-opacity="1" stroke="none" transform="matrix(1,0,0,1,0,0)"
font-family="MS Shell Dlg 2" font-size="7.8" font-weight="400" font-style="normal" 
>
</g>
</g>
</svg>
