<?xml version="1.0" encoding="UTF-8" standalone="no"?>
<svg width="11.25008mm" height="11.25008mm"
 viewBox="-5.3 -5.3 42.52000 42.52000"
 xmlns="http://www.w3.org/2000/svg" xmlns:xlink="http://www.w3.org/1999/xlink"  version="1.2" baseProfile="tiny">
<title>Qt SVG Document</title>
<desc>Generated with Qt</desc>
<defs>
</defs>
<g fill="none" stroke="black" stroke-width="1" fill-rule="evenodd" stroke-linecap="square" stroke-linejoin="bevel" >

<g fill="#3d97f1" fill-opacity="1" stroke="none" transform="matrix(1,0,0,1,0,0)"
font-family="MS Shell Dlg 2" font-size="7.8" font-weight="400" font-style="normal" 
>
<path vector-effect="non-scaling-stroke" fill-rule="evenodd" d="M37.2598,16 C37.2598,27.7415 27.7415,37.2598 16,37.2598 C4.25851,37.2598 -5.25984,27.7415 -5.25984,16 C-5.25984,4.25851 4.25851,-5.25984 16,-5.25984 C27.7415,-5.25984 37.2598,4.25851 37.2598,16 "/>
</g>

<g fill="#ffffff" fill-opacity="0.94902" stroke="none" transform="matrix(1,0,0,1,16,11.9181)"
font-family="MS Shell Dlg 2" font-size="7.8" font-weight="400" font-style="normal" 
>
<path vector-effect="none" fill-rule="evenodd" d="M10.4473,-6.68213 L10.4473,-5.44336 L-11.3467,2.68213 L-11.3467,1.48535 L10.4473,-6.68213 M-3.30518,-2.48291 C-3.7111,-2.48291 -4.07153,-2.63338 -4.38647,-2.93433 C-4.70142,-3.23527 -4.85889,-3.58171 -4.85889,-3.97363 C-4.85889,-4.37956 -4.70142,-4.72599 -4.38647,-5.01294 C-4.07153,-5.29989 -3.7111,-5.44336 -3.30518,-5.44336 C-2.87126,-5.44336 -2.51082,-5.29989 -2.22388,-5.01294 C-1.93693,-4.72599 -1.79346,-4.37956 -1.79346,-3.97363 C-1.79346,-3.58171 -1.93693,-3.23527 -2.22388,-2.93433 C-2.51082,-2.63338 -2.87126,-2.48291 -3.30518,-2.48291 M7.10889,4.27783 C7.33285,4.27783 7.53931,4.36532 7.72827,4.54028 C7.91724,4.71525 8.01172,4.95671 8.01172,5.26465 L8.01172,15.3218 C8.01172,15.5597 7.91724,15.7697 7.72827,15.9517 C7.53931,16.1336 7.33285,16.2246 7.10889,16.2246 L-7.25244,16.2246 C-7.54639,16.2246 -7.78434,16.1336 -7.96631,15.9517 C-8.14827,15.7697 -8.23926,15.5597 -8.23926,15.3218 L-8.23926,5.26465 C-8.23926,4.95671 -8.14827,4.71525 -7.96631,4.54028 C-7.78434,4.36532 -7.54639,4.27783 -7.25244,4.27783 L-1.24756,4.27783 L-1.24756,-0.488281 L0.432129,-1.18115 L0.915039,4.27783 L7.10889,4.27783 M2.97266,6.56641 C2.97266,6.18848 2.81868,5.99951 2.51074,5.99951 L-2.6123,5.99951 C-2.75228,5.99951 -2.87476,6.0555 -2.97974,6.16748 C-3.08472,6.27946 -3.13721,6.41243 -3.13721,6.56641 L-3.13721,6.98633 C-3.13721,7.1263 -3.08472,7.24878 -2.97974,7.35376 C-2.87476,7.45874 -2.75228,7.51123 -2.6123,7.51123 L2.51074,7.51123 C2.65072,7.51123 2.7627,7.45874 2.84668,7.35376 C2.93066,7.24878 2.97266,7.1263 2.97266,6.98633 L2.97266,6.56641 M1.81787,-4.22559 C1.41195,-4.22559 1.06551,-4.36906 0.778564,-4.65601 C0.491618,-4.94295 0.348145,-5.31738 0.348145,-5.7793 C0.348145,-6.18522 0.491618,-6.53866 0.778564,-6.8396 C1.06551,-7.14054 1.41195,-7.29102 1.81787,-7.29102 C2.2098,-7.29102 2.55623,-7.14054 2.85718,-6.8396 C3.15812,-6.53866 3.30859,-6.18522 3.30859,-5.7793 C3.30859,-5.31738 3.15812,-4.94295 2.85718,-4.65601 C2.55623,-4.36906 2.2098,-4.22559 1.81787,-4.22559 "/>
</g>

<g fill="#3d97f1" fill-opacity="1" stroke="none" transform="matrix(1,0,0,1,0,0)"
font-family="MS Shell Dlg 2" font-size="7.8" font-weight="400" font-style="normal" 
>
</g>
</g>
</svg>
