<?xml version="1.0" encoding="UTF-8" standalone="no"?>
<svg width="11.2889mm" height="11.2889mm"
 viewBox="0 0 32 32"
 xmlns="http://www.w3.org/2000/svg" xmlns:xlink="http://www.w3.org/1999/xlink"  version="1.2" baseProfile="tiny">
<title>Qt SVG Document</title>
<desc>Generated with Qt</desc>
<defs>
</defs>
<g fill="none" stroke="black" stroke-width="1" fill-rule="evenodd" stroke-linecap="square" stroke-linejoin="bevel" >

<g fill="#f7901e" fill-opacity="1" stroke="none" transform="matrix(1,0,0,1,0,0)"
font-family="MS Shell Dlg 2" font-size="7.8" font-weight="400" font-style="normal" 
>
<path vector-effect="non-scaling-stroke" fill-rule="evenodd" d="M37.2598,16 C37.2598,27.7415 27.7415,37.2598 16,37.2598 C4.25851,37.2598 -5.25984,27.7415 -5.25984,16 C-5.25984,4.25851 4.25851,-5.25984 16,-5.25984 C27.7415,-5.25984 37.2598,4.25851 37.2598,16 "/>
</g>

<g fill="#ffffff" fill-opacity="0.94902" stroke="none" transform="matrix(1,0,0,1,16,12.0315)"
font-family="MS Shell Dlg 2" font-size="7.8" font-weight="400" font-style="normal" 
>
<path vector-effect="none" fill-rule="evenodd" d="M0.180176,-9.43262 C2.06982,-9.43262 3.85449,-9.06868 5.53418,-8.34082 C7.21387,-7.61296 8.6766,-6.61914 9.92236,-5.35938 C11.1681,-4.09961 12.1549,-2.62288 12.8828,-0.929199 C13.6107,0.764486 13.9746,2.57015 13.9746,4.48779 C13.9746,6.40544 13.6107,8.2041 12.8828,9.88379 C12.1549,11.5635 11.1681,13.0332 9.92236,14.293 C8.6766,15.5527 7.21387,16.55 5.53418,17.2849 C3.85449,18.0198 2.06982,18.3872 0.180176,18.3872 C-1.73747,18.3872 -3.54313,18.0198 -5.23682,17.2849 C-6.9305,16.55 -8.40723,15.5527 -9.66699,14.293 C-10.9268,13.0332 -11.9241,11.5635 -12.6589,9.88379 C-13.3938,8.2041 -13.7612,6.40544 -13.7612,4.48779 C-13.7612,2.57015 -13.3938,0.764486 -12.6589,-0.929199 C-11.9241,-2.62288 -10.9268,-4.09961 -9.66699,-5.35938 C-8.40723,-6.61914 -6.9305,-7.61296 -5.23682,-8.34082 C-3.54313,-9.06868 -1.73747,-9.43262 0.180176,-9.43262 M12.2109,3.54297 C12.099,2.2832 11.8225,1.10042 11.3816,-0.00537109 C10.9407,-1.11117 10.3633,-2.10498 9.64941,-2.98682 C9.15951,-2.79085 8.6766,-2.59839 8.20068,-2.40942 C7.72477,-2.22046 7.22786,-2.06999 6.70996,-1.95801 C6.94792,-1.13216 7.12988,-0.257324 7.25586,0.666504 C7.38184,1.59033 7.47282,2.54915 7.52881,3.54297 L12.2109,3.54297 M8.38965,-4.45654 C7.81576,-4.94645 7.21387,-5.39087 6.58398,-5.78979 C5.9541,-6.18872 5.26823,-6.54215 4.52637,-6.8501 C4.83431,-6.37419 5.12476,-5.87728 5.39771,-5.35938 C5.67065,-4.84147 5.9401,-4.26758 6.20605,-3.6377 C6.56999,-3.74967 6.93042,-3.87565 7.28735,-4.01563 C7.64429,-4.1556 8.01172,-4.30257 8.38965,-4.45654 M5.68115,3.54297 C5.68115,2.66113 5.61816,1.79679 5.49219,0.949951 C5.36621,0.103109 5.18424,-0.691243 4.94629,-1.43311 C4.20443,-1.29313 3.43107,-1.19515 2.62622,-1.13916 C1.82137,-1.08317 1.03402,-1.05518 0.26416,-1.05518 C-0.617676,-1.05518 -1.47502,-1.08317 -2.30786,-1.13916 C-3.14071,-1.19515 -3.94906,-1.34212 -4.73291,-1.58008 C-4.95687,-0.768229 -5.13184,0.0681152 -5.25781,0.928955 C-5.38379,1.78979 -5.44678,2.66113 -5.44678,3.54297 L5.68115,3.54297 M-5.44678,5.30664 C-5.44678,6.23047 -5.38379,7.1158 -5.25781,7.96265 C-5.13184,8.80949 -4.95687,9.61784 -4.73291,10.3877 C-3.94906,10.2477 -3.1652,10.1252 -2.38135,10.0203 C-1.59749,9.91528 -0.785645,9.86279 0.0541992,9.86279 C0.880046,9.86279 1.70939,9.91528 2.54224,10.0203 C3.37508,10.1252 4.17643,10.2477 4.94629,10.3877 C5.18424,9.64583 5.36621,8.84448 5.49219,7.98364 C5.61816,7.1228 5.68115,6.23047 5.68115,5.30664 L-5.44678,5.30664 M0.180176,-7.66895 C-0.715658,-7.66895 -1.5415,-7.27002 -2.29736,-6.47217 C-3.05322,-5.67432 -3.6901,-4.58252 -4.20801,-3.19678 C-3.46615,-3.0568 -2.72778,-2.95882 -1.99292,-2.90283 C-1.25806,-2.84684 -0.505697,-2.81885 0.26416,-2.81885 C0.922038,-2.81885 1.61141,-2.84684 2.33228,-2.90283 C3.05314,-2.95882 3.75651,-3.0568 4.44238,-3.19678 C3.92448,-4.58252 3.2911,-5.67432 2.54224,-6.47217 C1.79338,-7.27002 1.00602,-7.66895 0.180176,-7.66895 M-4.29199,-6.8501 C-4.97786,-6.59814 -5.62874,-6.26571 -6.24463,-5.85278 C-6.86051,-5.43986 -7.4554,-4.97445 -8.0293,-4.45654 C-7.66536,-4.30257 -7.32593,-4.1626 -7.01099,-4.03662 C-6.69604,-3.91064 -6.34961,-3.77767 -5.97168,-3.6377 C-5.70573,-4.26758 -5.43978,-4.84147 -5.17383,-5.35938 C-4.90788,-5.87728 -4.61393,-6.37419 -4.29199,-6.8501 M-9.28906,-3.11279 C-10.8568,-1.22314 -11.7596,0.995443 -11.9976,3.54297 L-7.29443,3.54297 C-7.23844,2.54915 -7.14746,1.59033 -7.02148,0.666504 C-6.89551,-0.257324 -6.71354,-1.13216 -6.47559,-1.95801 C-6.96549,-2.12598 -7.4554,-2.30444 -7.94531,-2.49341 C-8.43522,-2.68237 -8.88314,-2.88883 -9.28906,-3.11279 M-11.9976,5.30664 C-11.7596,7.79818 -10.8988,10.0238 -9.41504,11.9834 C-8.92513,11.7454 -8.44222,11.5285 -7.96631,11.3325 C-7.4904,11.1366 -6.99349,10.9616 -6.47559,10.8076 C-6.71354,9.98177 -6.89551,9.11043 -7.02148,8.1936 C-7.14746,7.27677 -7.23844,6.31445 -7.29443,5.30664 L-11.9976,5.30664 M-8.15527,13.3062 C-7.58138,13.8241 -6.96549,14.2895 -6.30762,14.7024 C-5.64974,15.1153 -4.97786,15.4548 -4.29199,15.7207 C-4.61393,15.2868 -4.90788,14.7969 -5.17383,14.251 C-5.43978,13.7051 -5.70573,13.1172 -5.97168,12.4873 C-6.34961,12.6273 -6.71704,12.7638 -7.07397,12.8967 C-7.43091,13.0297 -7.79134,13.1662 -8.15527,13.3062 M0.180176,16.5396 C1.00602,16.5396 1.79338,16.1511 2.54224,15.3743 C3.2911,14.5974 3.92448,13.5231 4.44238,12.1514 C3.68652,12.0114 2.95166,11.8889 2.23779,11.7839 C1.52393,11.679 0.796061,11.6265 0.0541992,11.6265 C-0.687663,11.6265 -1.41203,11.672 -2.1189,11.7629 C-2.82576,11.8539 -3.52214,11.9554 -4.20801,12.0674 C-3.6901,13.4391 -3.05322,14.5274 -2.29736,15.3323 C-1.5415,16.1371 -0.715658,16.5396 0.180176,16.5396 M4.52637,15.7207 C5.21224,15.4548 5.87712,15.1223 6.521,14.7234 C7.16488,14.3245 7.74577,13.88 8.26367,13.3901 C7.94173,13.2502 7.60929,13.1067 7.26636,12.9597 C6.92342,12.8127 6.56999,12.6833 6.20605,12.5713 C5.9401,13.2012 5.67065,13.7751 5.39771,14.293 C5.12476,14.8109 4.83431,15.2868 4.52637,15.7207 M9.64941,11.9834 C10.3633,11.0596 10.9407,10.0378 11.3816,8.91797 C11.8225,7.79818 12.099,6.5944 12.2109,5.30664 L7.52881,5.30664 C7.47282,6.34245 7.38184,7.32576 7.25586,8.25659 C7.12988,9.18742 6.94792,10.0658 6.70996,10.8916 C7.22786,11.0736 7.72477,11.2415 8.20068,11.3955 C8.6766,11.5495 9.15951,11.7454 9.64941,11.9834 "/>
</g>

<g fill="#f7901e" fill-opacity="1" stroke="none" transform="matrix(1,0,0,1,0,0)"
font-family="MS Shell Dlg 2" font-size="7.8" font-weight="400" font-style="normal" 
>
</g>
</g>
</svg>
