<?xml version="1.0" encoding="UTF-8" standalone="no"?>
<svg width="11.2889mm" height="11.2889mm"
 viewBox="0 0 32 32"
 xmlns="http://www.w3.org/2000/svg" xmlns:xlink="http://www.w3.org/1999/xlink"  version="1.2" baseProfile="tiny">
<title>Qt SVG Document</title>
<desc>Generated with Qt</desc>
<defs>
</defs>
<g fill="none" stroke="black" stroke-width="1" fill-rule="evenodd" stroke-linecap="square" stroke-linejoin="bevel" >

<g fill="#f7901e" fill-opacity="1" stroke="none" transform="matrix(1,0,0,1,0,0)"
font-family="MS Shell Dlg 2" font-size="7.8" font-weight="400" font-style="normal" 
>
<path vector-effect="non-scaling-stroke" fill-rule="evenodd" d="M37.2598,16 C37.2598,27.7415 27.7415,37.2598 16,37.2598 C4.25851,37.2598 -5.25984,27.7415 -5.25984,16 C-5.25984,4.25851 4.25851,-5.25984 16,-5.25984 C27.7415,-5.25984 37.2598,4.25851 37.2598,16 "/>
</g>

<g fill="#ffffff" fill-opacity="0.94902" stroke="none" transform="matrix(1,0,0,1,16,12.0315)"
font-family="MS Shell Dlg 2" font-size="7.8" font-weight="400" font-style="normal" 
>
<path vector-effect="none" fill-rule="evenodd" d="M12.6099,5.70557 C12.6659,5.90153 12.7498,6.10799 12.8618,6.32495 C12.9738,6.54191 13.0858,6.73438 13.1978,6.90234 C13.3237,7.1263 13.4707,7.34326 13.6387,7.55322 C13.1208,7.60921 12.5259,7.54972 11.854,7.37476 C11.1821,7.19979 10.5033,6.96883 9.81738,6.68188 C9.13151,6.39494 8.45614,6.073 7.79126,5.71606 C7.12638,5.35913 6.53499,5.0057 6.01709,4.65576 C5.51318,4.34782 5.02327,4.14486 4.54736,4.04688 C4.07145,3.94889 3.64453,3.9139 3.2666,3.94189 C2.84668,3.96989 2.44775,4.05387 2.06982,4.19385 L2.88867,-4.62451 C3.2946,-4.59652 3.70752,-4.52653 4.12744,-4.41455 C4.47738,-4.33057 4.85881,-4.20809 5.27173,-4.04712 C5.68465,-3.88615 6.05208,-3.64469 6.37402,-3.32275 C6.80794,-2.95882 7.20337,-2.5459 7.5603,-2.08398 C7.91724,-1.62207 8.28117,-1.16366 8.6521,-0.70874 C9.02303,-0.253825 9.43945,0.169596 9.90137,0.561523 C10.3633,0.953451 10.9372,1.26139 11.623,1.48535 C11.679,1.91927 11.763,2.37419 11.875,2.8501 C11.959,3.25602 12.0605,3.71094 12.1794,4.21484 C12.2984,4.71875 12.4419,5.21566 12.6099,5.70557 M-1.91943,4.19385 C-2.29736,4.05387 -2.70329,3.96989 -3.13721,3.94189 C-3.50114,3.9139 -3.92806,3.94889 -4.41797,4.04688 C-4.90788,4.14486 -5.39779,4.34782 -5.8877,4.65576 C-6.43359,5.0057 -7.04248,5.35913 -7.71436,5.71606 C-8.38623,6.073 -9.0651,6.39494 -9.75098,6.68188 C-10.4368,6.96883 -11.1192,7.19979 -11.7981,7.37476 C-12.477,7.54972 -13.0684,7.60921 -13.5723,7.55322 C-13.4043,7.34326 -13.2643,7.1263 -13.1523,6.90234 C-13.0404,6.73438 -12.9249,6.54191 -12.8059,6.32495 C-12.6869,6.10799 -12.5994,5.90153 -12.5435,5.70557 C-12.3755,5.21566 -12.218,4.71875 -12.071,4.21484 C-11.9241,3.71094 -11.8086,3.25602 -11.7246,2.8501 C-11.6126,2.37419 -11.5286,1.91927 -11.4727,1.48535 C-10.8148,1.26139 -10.2549,0.953451 -9.79297,0.561523 C-9.33105,0.169596 -8.91463,-0.253825 -8.5437,-0.70874 C-8.17277,-1.16366 -7.81584,-1.62207 -7.4729,-2.08398 C-7.12996,-2.5459 -6.74154,-2.95882 -6.30762,-3.32275 C-5.99967,-3.64469 -5.64274,-3.88615 -5.23682,-4.04712 C-4.83089,-4.20809 -4.44596,-4.33057 -4.08203,-4.41455 C-3.67611,-4.52653 -3.25618,-4.59652 -2.82227,-4.62451 L-1.91943,4.19385 M1.04102,11.8364 C2.16081,11.9344 3.10563,12.1549 3.87549,12.4978 C4.64535,12.8407 5.27523,13.2082 5.76514,13.6001 C6.31104,14.062 6.77295,14.5519 7.15088,15.0698 L-7.12646,15.0698 C-6.79053,14.5519 -6.33561,14.062 -5.76172,13.6001 C-5.27181,13.2082 -4.63143,12.8407 -3.84058,12.4978 C-3.04972,12.1549 -2.0944,11.9344 -0.974609,11.8364 L-2.73828,-4.7085 C-2.97624,-4.82048 -3.09521,-4.99544 -3.09521,-5.2334 C-3.1512,-5.37337 -3.12671,-5.55884 -3.02173,-5.78979 C-2.91675,-6.02075 -2.79427,-6.16423 -2.6543,-6.22021 C-2.48633,-6.22021 -2.32186,-6.11873 -2.16089,-5.91577 C-1.99992,-5.71281 -1.91943,-5.52734 -1.91943,-5.35938 C-1.91943,-5.14941 -2.01042,-4.96045 -2.19238,-4.79248 L-0.470703,11.7524 L0.0541992,11.7524 L0.516113,11.7524 L2.23779,-4.79248 C2.06982,-4.96045 1.98584,-5.14941 1.98584,-5.35938 C2.04183,-5.52734 2.12581,-5.71281 2.23779,-5.91577 C2.34977,-6.11873 2.51074,-6.22021 2.7207,-6.22021 C2.86068,-6.16423 2.97965,-6.02075 3.07764,-5.78979 C3.17562,-5.55884 3.19661,-5.37337 3.14063,-5.2334 C3.14063,-4.99544 3.02865,-4.82048 2.80469,-4.7085 L1.04102,11.8364"/>
</g>

<g fill="#f7901e" fill-opacity="1" stroke="none" transform="matrix(1,0,0,1,0,0)"
font-family="MS Shell Dlg 2" font-size="7.8" font-weight="400" font-style="normal" 
>
</g>
</g>
</svg>
