<?xml version="1.0" encoding="UTF-8" standalone="no"?>
<svg width="11.2889mm" height="11.2889mm"
 viewBox="0 0 32 32"
 xmlns="http://www.w3.org/2000/svg" xmlns:xlink="http://www.w3.org/1999/xlink"  version="1.2" baseProfile="tiny">
<title>Qt SVG Document</title>
<desc>Generated with Qt</desc>
<defs>
</defs>
<g fill="none" stroke="black" stroke-width="1" fill-rule="evenodd" stroke-linecap="square" stroke-linejoin="bevel" >

<g fill="#4c62ad" fill-opacity="1" stroke="none" transform="matrix(1,0,0,1,0,0)"
font-family="MS Shell Dlg 2" font-size="7.8" font-weight="400" font-style="normal" 
>
<path vector-effect="non-scaling-stroke" fill-rule="evenodd" d="M37.2598,16 C37.2598,27.7415 27.7415,37.2598 16,37.2598 C4.25851,37.2598 -5.25984,27.7415 -5.25984,16 C-5.25984,4.25851 4.25851,-5.25984 16,-5.25984 C27.7415,-5.25984 37.2598,4.25851 37.2598,16 "/>
</g>

<g fill="#ffffff" fill-opacity="1" stroke="none" transform="matrix(1,0,0,1,16.5669,13.1654)"
font-family="MS Shell Dlg 2" font-size="7.8" font-weight="400" font-style="normal" 
>
<path vector-effect="none" fill-rule="evenodd" d="M-10.377,-1.91602 C-10.6989,-2 -10.9438,-2.19246 -11.1118,-2.49341 C-11.2798,-2.79435 -11.3218,-3.11979 -11.2378,-3.46973 C-11.0978,-3.77767 -10.8774,-4.01213 -10.5764,-4.1731 C-10.2755,-4.33407 -9.96403,-4.37256 -9.64209,-4.28857 C-9.33415,-4.19059 -9.09269,-3.99113 -8.91772,-3.69019 C-8.74276,-3.38924 -8.73226,-3.0848 -8.88623,-2.77686 C-8.97021,-2.42692 -9.16268,-2.18197 -9.46362,-2.04199 C-9.76457,-1.90202 -10.069,-1.86003 -10.377,-1.91602 M-3.76318,5.70557 C-3.98714,5.57959 -4.12712,5.46061 -4.18311,5.34863 L-4.91797,5.34863 C-4.86198,5.26465 -4.79199,5.16667 -4.70801,5.05469 C-4.65202,4.9707 -4.60303,4.87622 -4.56104,4.77124 C-4.51904,4.66626 -4.49805,4.55778 -4.49805,4.4458 C-4.49805,4.19385 -4.39657,3.96639 -4.1936,3.76343 C-3.99064,3.56047 -3.73519,3.45898 -3.42725,3.45898 C-3.1613,3.45898 -2.92684,3.56047 -2.72388,3.76343 C-2.52091,3.96639 -2.41943,4.22184 -2.41943,4.52979 C-2.41943,4.68376 -2.34945,4.85872 -2.20947,5.05469 C-2.15348,5.16667 -2.0835,5.26465 -1.99951,5.34863 L-2.73438,5.34863 C-2.95833,5.67057 -3.30127,5.78955 -3.76318,5.70557 M1.94775,5.70557 C1.6958,5.78955 1.44735,5.75806 1.20239,5.61108 C0.957438,5.46411 0.792969,5.27865 0.708984,5.05469 C0.625,4.73275 0.652995,4.4598 0.792969,4.23584 C0.932943,4.01188 1.12191,3.85091 1.35986,3.75293 C1.61182,3.66895 1.86727,3.68644 2.12622,3.80542 C2.38517,3.9244 2.55664,4.13786 2.64063,4.4458 C2.69661,4.71175 2.66162,4.9637 2.53564,5.20166 C2.40967,5.43962 2.2137,5.60758 1.94775,5.70557 M8.58252,-1.70605 C8.34456,-1.65007 8.1276,-1.65007 7.93164,-1.70605 C7.73568,-1.76204 7.56771,-1.86003 7.42773,-2 L6.48291,-2 C6.56689,-2.13997 6.65088,-2.26595 6.73486,-2.37793 C6.79085,-2.50391 6.84684,-2.62988 6.90283,-2.75586 C6.95882,-2.88184 6.98682,-3.00081 6.98682,-3.11279 C6.98682,-3.43473 7.11629,-3.71118 7.37524,-3.94214 C7.6342,-4.1731 7.91764,-4.28857 8.22559,-4.28857 C8.57552,-4.34456 8.87996,-4.24308 9.13892,-3.98413 C9.39787,-3.72518 9.52734,-3.43473 9.52734,-3.11279 C9.52734,-2.86084 9.59733,-2.61589 9.7373,-2.37793 C9.82129,-2.26595 9.90527,-2.13997 9.98926,-2 L9.08643,-2 C8.97445,-1.91602 8.80648,-1.81803 8.58252,-1.70605 M12.3618,4.19385 C12.4178,4.36182 12.4108,4.51929 12.3408,4.66626 C12.2708,4.81323 12.1659,4.91471 12.0259,4.9707 L11.8579,4.9707 C11.564,4.9707 11.375,4.85173 11.291,4.61377 L9.98926,1.08643 L9.98926,1.00244 C9.93327,0.918457 9.90527,0.841471 9.90527,0.771484 C9.90527,0.701497 9.89128,0.638509 9.86328,0.58252 L9.52734,0.58252 L11.543,6.46143 L9.7793,6.46143 L9.7793,12.2773 C9.7793,12.4173 9.70931,12.5468 9.56934,12.6658 C9.42936,12.7847 9.26839,12.8442 9.08643,12.8442 C8.6945,12.8442 8.49854,12.6553 8.49854,12.2773 L8.49854,6.46143 L8.01563,6.46143 L8.01563,12.2773 C8.01563,12.6553 7.81966,12.8442 7.42773,12.8442 C7.02181,12.8442 6.81885,12.6553 6.81885,12.2773 L6.81885,6.46143 L4.80322,6.46143 L6.81885,0.58252 L6.56689,0.58252 C6.44092,0.694499 6.37793,0.834473 6.37793,1.00244 L6.29395,1.08643 L5.05518,4.61377 C5.02718,4.76774 4.9432,4.87272 4.80322,4.92871 L4.80322,4.9707 C4.85921,5.02669 4.87321,5.08268 4.84521,5.13867 C4.81722,5.19466 4.77523,5.23665 4.71924,5.26465 L3.98438,6.0415 L3.81641,6.20947 C3.66243,6.34945 3.50146,6.48592 3.3335,6.6189 C3.16553,6.75187 2.96257,6.84635 2.72461,6.90234 L2.72461,10.4297 L2.72461,12.2773 C2.72461,12.5293 2.58464,12.6553 2.30469,12.6553 C2.16471,12.6553 2.04224,12.6203 1.93726,12.5503 C1.83228,12.4803 1.77979,12.3893 1.77979,12.2773 L1.77979,10.4297 L1.44385,10.4297 L1.44385,12.2773 C1.44385,12.5293 1.29688,12.6553 1.00293,12.6553 C0.750977,12.6553 0.625,12.5293 0.625,12.2773 L0.625,10.4297 L0.625,7.02832 C0.56901,7.08431 0.485026,7.23128 0.373047,7.46924 L-0.23584,8.83398 C-0.319824,8.97396 -0.459798,9.04395 -0.655762,9.04395 L-0.802734,9.04395 C-0.858724,9.04395 -0.886719,9.02995 -0.886719,9.00195 C-0.914714,9.02995 -0.942708,9.04395 -0.970703,9.04395 L-1.13867,9.04395 C-1.33464,9.04395 -1.47461,8.97396 -1.55859,8.83398 L-2.16748,7.46924 C-2.25146,7.23128 -2.37044,7.07031 -2.52441,6.98633 L-1.30664,10.5137 L-2.41943,10.5137 L-2.41943,12.2773 C-2.41943,12.5293 -2.55241,12.6553 -2.81836,12.6553 C-3.09831,12.6553 -3.23828,12.5293 -3.23828,12.2773 L-3.23828,10.5137 L-3.6792,10.5137 L-3.6792,12.2773 C-3.6792,12.5293 -3.81917,12.6553 -4.09912,12.6553 C-4.36507,12.6553 -4.49805,12.5293 -4.49805,12.2773 L-4.49805,10.5137 L-5.61084,10.5137 L-4.37207,6.90234 C-4.68001,6.84635 -4.92847,6.75187 -5.11743,6.6189 C-5.3064,6.48592 -5.47087,6.34945 -5.61084,6.20947 L-5.77881,6.0415 L-6.51367,5.26465 C-6.56966,5.23665 -6.61165,5.19466 -6.63965,5.13867 C-6.66764,5.08268 -6.65365,5.02669 -6.59766,4.9707 L-6.55566,4.92871 C-6.72363,4.81673 -6.82161,4.71175 -6.84961,4.61377 L-8.10938,1.08643 L-8.10938,1.00244 C-8.22135,0.778483 -8.27734,0.638509 -8.27734,0.58252 L-8.5293,0.58252 L-8.5293,4.9707 L-8.5293,5.05469 L-8.5293,12.2773 C-8.5293,12.6553 -8.73226,12.8442 -9.13818,12.8442 C-9.5721,12.8442 -9.78906,12.6553 -9.78906,12.2773 L-9.78906,5.60059 L-10.209,5.60059 L-10.209,12.2773 C-10.209,12.4173 -10.2825,12.5468 -10.4294,12.6658 C-10.5764,12.7847 -10.7339,12.8442 -10.9019,12.8442 C-11.3078,12.8442 -11.5107,12.6553 -11.5107,12.2773 L-11.5107,5.05469 L-11.5107,4.9707 L-11.5107,0.58252 L-11.7207,0.58252 C-11.7767,0.694499 -11.8047,0.806478 -11.8047,0.918457 L-11.8047,4.9707 C-11.8047,5.27865 -12.0076,5.43262 -12.4136,5.43262 C-12.5535,5.43262 -12.6725,5.39063 -12.7705,5.30664 C-12.8685,5.22266 -12.9175,5.11068 -12.9175,4.9707 L-12.9175,0.918457 C-12.9175,0.400553 -12.767,-0.06486 -12.4661,-0.477783 C-12.1651,-0.890706 -11.6997,-1.12516 -11.0698,-1.18115 L-10.9858,-1.18115 L-10.9019,-1.18115 L-9.0542,-1.18115 L-8.97021,-1.18115 L-8.80225,-1.18115 C-8.31234,-1.12516 -7.93091,-0.897705 -7.65796,-0.498779 C-7.38501,-0.0998535 -7.20654,0.260579 -7.12256,0.58252 L-7.03857,0.666504 L-7.03857,0.750488 L-5.77881,4.19385 L-5.77881,4.52979 L-5.86279,4.65576 L-5.86279,4.69775 L-5.16992,5.34863 L-5.00195,5.5166 C-4.86198,5.67057 -4.743,5.78255 -4.64502,5.85254 C-4.54704,5.92253 -4.42106,5.95752 -4.26709,5.95752 L-3.76318,5.95752 L-3.32227,5.95752 L-2.81836,5.95752 C-2.18848,5.95752 -1.68457,6.34245 -1.30664,7.1123 C-1.22266,7.35026 -1.14567,7.54622 -1.07568,7.7002 C-1.0057,7.85417 -0.942708,7.98714 -0.886719,8.09912 C-0.830729,7.98714 -0.77124,7.85417 -0.708252,7.7002 C-0.645264,7.54622 -0.571777,7.35026 -0.487793,7.1123 C-0.123861,6.34245 0.373047,5.95752 1.00293,5.95752 L1.52783,5.95752 L1.94775,5.95752 L2.47266,5.95752 C2.61263,5.95752 2.73511,5.92253 2.84009,5.85254 C2.94507,5.78255 3.06755,5.67057 3.20752,5.5166 L3.37549,5.34863 L4.06836,4.69775 C4.06836,4.66976 4.08236,4.65576 4.11035,4.65576 L3.98438,4.52979 C3.98438,4.41781 4.01237,4.30583 4.06836,4.19385 L5.30713,0.750488 L5.30713,0.666504 L5.30713,0.58252 C5.4471,0.260579 5.63957,-0.0928548 5.88452,-0.477783 C6.12948,-0.862712 6.49691,-1.09717 6.98682,-1.18115 L7.15479,-1.18115 L7.23877,-1.18115 L9.08643,-1.18115 L9.27539,-1.18115 L9.35938,-1.18115 C9.90527,-1.09717 10.2972,-0.862712 10.5352,-0.477783 C10.7731,-0.0928548 10.9411,0.260579 11.0391,0.58252 L11.123,0.666504 L11.123,0.750488 L12.3618,4.19385"/>
</g>

<g fill="#4c62ad" fill-opacity="1" stroke="none" transform="matrix(1,0,0,1,0,0)"
font-family="MS Shell Dlg 2" font-size="7.8" font-weight="400" font-style="normal" 
>
</g>
</g>
</svg>
