<?xml version="1.0" encoding="UTF-8" standalone="no"?>
<svg width="11.25008mm" height="11.25008mm"
 viewBox="-5.3 -5.3 42.52000 42.52000"
 xmlns="http://www.w3.org/2000/svg" xmlns:xlink="http://www.w3.org/1999/xlink"  version="1.2" baseProfile="tiny">
<title>Qt SVG Document</title>
<desc>Generated with Qt</desc>
<defs>
</defs>
<g fill="none" stroke="black" stroke-width="1" fill-rule="evenodd" stroke-linecap="square" stroke-linejoin="bevel" >

<g fill="#4c62ad" fill-opacity="1" stroke="none" transform="matrix(1,0,0,1,0,0)"
font-family="MS Shell Dlg 2" font-size="7.8" font-weight="400" font-style="normal" 
>
<path vector-effect="non-scaling-stroke" fill-rule="evenodd" d="M37.2598,16 C37.2598,27.7415 27.7415,37.2598 16,37.2598 C4.25851,37.2598 -5.25984,27.7415 -5.25984,16 C-5.25984,4.25851 4.25851,-5.25984 16,-5.25984 C27.7415,-5.25984 37.2598,4.25851 37.2598,16 "/>
</g>

<g fill="#ffffff" fill-opacity="0.94902" stroke="none" transform="matrix(1,0,0,1,16,12.5984)"
font-family="MS Shell Dlg 2" font-size="7.8" font-weight="400" font-style="normal" 
>
<path vector-effect="none" fill-rule="evenodd" d="M8.30566,5.39063 C8.85156,5.5306 9.28198,5.83854 9.59692,6.31445 C9.91187,6.79036 10.0693,7.31527 10.0693,7.88916 L10.0693,13.4741 L8.47363,13.4741 L8.47363,15.2378 C8.47363,15.6997 8.33716,16.0881 8.06421,16.4031 C7.79126,16.718 7.45882,16.8755 7.06689,16.8755 C6.60498,16.8755 6.20256,16.718 5.85962,16.4031 C5.51668,16.0881 5.34521,15.6997 5.34521,15.2378 L5.34521,13.4741 L-4.90088,13.4741 L-4.90088,15.2378 C-4.90088,15.6997 -5.06535,16.0881 -5.39429,16.4031 C-5.72323,16.718 -6.11865,16.8755 -6.58057,16.8755 C-6.9165,16.8755 -7.23494,16.718 -7.53589,16.4031 C-7.83683,16.0881 -7.9873,15.6997 -7.9873,15.2378 L-7.9873,13.4741 L-9.58301,13.4741 L-9.58301,7.88916 C-9.58301,7.31527 -9.42554,6.79036 -9.1106,6.31445 C-8.79565,5.83854 -8.36523,5.5306 -7.81934,5.39063 L-6.09766,0.666504 C-5.92969,0.414551 -5.68823,0.159098 -5.37329,-0.0998535 C-5.05835,-0.358805 -4.73991,-0.488281 -4.41797,-0.488281 L4.9043,-0.488281 C5.31022,-0.488281 5.64966,-0.358805 5.92261,-0.0998535 C6.19556,0.159098 6.41602,0.414551 6.58398,0.666504 L8.30566,5.39063 M-6.58057,9.90479 C-5.68473,9.90479 -5.23682,9.46387 -5.23682,8.58203 C-5.23682,8.17611 -5.35929,7.83667 -5.60425,7.56372 C-5.8492,7.29077 -6.17464,7.1543 -6.58057,7.1543 C-6.9165,7.1543 -7.20695,7.29077 -7.4519,7.56372 C-7.69686,7.83667 -7.81934,8.17611 -7.81934,8.58203 C-7.81934,8.97396 -7.69686,9.2924 -7.4519,9.53735 C-7.20695,9.78231 -6.9165,9.90479 -6.58057,9.90479 M6.66797,5.39063 L5.26123,1.31738 C5.05127,1.05143 4.9043,0.918457 4.82031,0.918457 L-4.33398,0.918457 C-4.41797,0.918457 -4.56494,1.05143 -4.7749,1.31738 L-6.22363,5.39063 L6.66797,5.39063 M7.06689,9.90479 C7.40283,9.90479 7.69328,9.78231 7.93823,9.53735 C8.18319,9.2924 8.30566,8.97396 8.30566,8.58203 C8.30566,8.17611 8.18319,7.83667 7.93823,7.56372 C7.69328,7.29077 7.40283,7.1543 7.06689,7.1543 C6.66097,7.1543 6.33553,7.29077 6.09058,7.56372 C5.84562,7.83667 5.72314,8.17611 5.72314,8.58203 C5.72314,9.46387 6.17106,9.90479 7.06689,9.90479 M0.558105,-2.08398 C0.012207,-2.08398 -0.344727,-2.25895 -0.512695,-2.60889 C-0.680664,-2.88883 -0.764648,-3.18978 -0.764648,-3.51172 L-0.764648,-6.09424 L-0.0717773,-6.09424 L-0.0717773,-3.5957 C-0.0717773,-3.16178 0.012207,-2.90283 0.180176,-2.81885 C0.236165,-2.76286 0.292155,-2.71387 0.348145,-2.67188 C0.404134,-2.62988 0.474121,-2.60889 0.558105,-2.60889 C0.712077,-2.60889 0.824056,-2.65088 0.894043,-2.73486 C0.96403,-2.81885 1.02702,-2.90283 1.08301,-2.98682 C1.139,-3.04281 1.16699,-3.15479 1.16699,-3.32275 C1.16699,-3.39274 1.15299,-3.46273 1.125,-3.53271 C1.09701,-3.6027 1.05501,-3.70768 0.999023,-3.84766 C0.943034,-3.90365 0.915039,-3.95264 0.915039,-3.99463 C0.915039,-4.03662 0.887044,-4.08561 0.831055,-4.1416 L0.831055,-4.22559 L0.831055,-4.41455 L1.50293,-4.41455 L1.50293,-4.22559 L1.60791,-4.1416 C1.6359,-4.11361 1.6779,-4.04362 1.73389,-3.93164 C1.84587,-3.70768 1.90186,-3.50472 1.90186,-3.32275 C1.90186,-2.84684 1.6849,-2.48991 1.25098,-2.25195 C1.16699,-2.19596 1.07601,-2.15397 0.978027,-2.12598 C0.880046,-2.09798 0.740072,-2.08398 0.558105,-2.08398 M-3.43115,-1.09717 C-3.65511,-1.09717 -3.86157,-1.18465 -4.05054,-1.35962 C-4.2395,-1.53459 -4.33398,-1.74805 -4.33398,-2 C-4.33398,-2.05599 -4.27799,-2.19596 -4.16602,-2.41992 L-0.512695,-8.76074 C-0.302734,-9.06868 -0.0437826,-9.22266 0.26416,-9.22266 C0.558105,-9.22266 0.80306,-9.06868 0.999023,-8.76074 L4.65234,-2.41992 C4.76432,-2.19596 4.82031,-2.05599 4.82031,-2 C4.82031,-1.74805 4.72933,-1.53459 4.54736,-1.35962 C4.3654,-1.18465 4.15544,-1.09717 3.91748,-1.09717 L-3.43115,-1.09717 M-3.7251,-2.16797 C-3.79508,-2.11198 -3.83008,-2.06999 -3.83008,-2.04199 L-3.83008,-2 C-3.83008,-1.72005 -3.6971,-1.58008 -3.43115,-1.58008 L3.91748,-1.58008 C4.00146,-1.58008 4.08895,-1.61507 4.17993,-1.68506 C4.27091,-1.75505 4.31641,-1.86003 4.31641,-2 L4.31641,-2.04199 C4.31641,-2.06999 4.28141,-2.11198 4.21143,-2.16797 L0.558105,-8.48779 C0.446126,-8.59977 0.348145,-8.65576 0.26416,-8.65576 C0.152181,-8.65576 0.0402018,-8.59977 -0.0717773,-8.48779 L-3.7251,-2.16797"/>
</g>

<g fill="#4c62ad" fill-opacity="1" stroke="none" transform="matrix(1,0,0,1,0,0)"
font-family="MS Shell Dlg 2" font-size="7.8" font-weight="400" font-style="normal" 
>
</g>
</g>
</svg>
