<?xml version="1.0" encoding="UTF-8" standalone="no"?>
<svg width="11.25008mm" height="11.25008mm"
 viewBox="-5.3 -5.3 42.52000 42.52000"
 xmlns="http://www.w3.org/2000/svg" xmlns:xlink="http://www.w3.org/1999/xlink"  version="1.2" baseProfile="tiny">
<title>Qt SVG Document</title>
<desc>Generated with Qt</desc>
<defs>
</defs>
<g fill="none" stroke="black" stroke-width="1" fill-rule="evenodd" stroke-linecap="square" stroke-linejoin="bevel" >

<g fill="#4c62ad" fill-opacity="1" stroke="none" transform="matrix(1,0,0,1,0,0)"
font-family="MS Shell Dlg 2" font-size="7.8" font-weight="400" font-style="normal" 
>
<path vector-effect="non-scaling-stroke" fill-rule="evenodd" d="M37.2598,16 C37.2598,27.7415 27.7415,37.2598 16,37.2598 C4.25851,37.2598 -5.25984,27.7415 -5.25984,16 C-5.25984,4.25851 4.25851,-5.25984 16,-5.25984 C27.7415,-5.25984 37.2598,4.25851 37.2598,16 "/>
</g>

<g fill="#ffffff" fill-opacity="0.94902" stroke="none" transform="matrix(1,0,0,1,15.4331,12.0315)"
font-family="MS Shell Dlg 2" font-size="7.8" font-weight="400" font-style="normal" 
>
<path vector-effect="none" fill-rule="evenodd" d="M7.96973,1.08643 L-7.39941,1.08643 L-7.39941,-2.73486 L-6.87451,-2.73486 C-6.87451,-3.12679 -6.83952,-3.51872 -6.76953,-3.91064 C-6.69954,-4.30257 -6.58757,-4.6665 -6.43359,-5.00244 C-6.23763,-5.35238 -6.04517,-5.67782 -5.8562,-5.97876 C-5.66724,-6.2797 -5.44678,-6.57015 -5.19482,-6.8501 C-4.94287,-7.11605 -4.66642,-7.3715 -4.36548,-7.61646 C-4.06453,-7.86141 -3.7391,-8.06787 -3.38916,-8.23584 C-3.01123,-8.4598 -2.6508,-8.62427 -2.30786,-8.72925 C-1.96493,-8.83423 -1.59749,-8.92871 -1.20557,-9.0127 L-1.37354,-2.73486 L1.60791,-2.73486 L1.41895,-9.0127 C1.85286,-8.92871 2.24829,-8.83423 2.60522,-8.72925 C2.96216,-8.62427 3.32959,-8.4598 3.70752,-8.23584 C4.04346,-8.06787 4.3619,-7.86141 4.66284,-7.61646 C4.96379,-7.3715 5.24723,-7.11605 5.51318,-6.8501 C5.76514,-6.57015 5.9856,-6.2797 6.17456,-5.97876 C6.36353,-5.67782 6.52799,-5.35238 6.66797,-5.00244 C6.83594,-4.6665 6.95142,-4.30257 7.0144,-3.91064 C7.07739,-3.51872 7.10889,-3.12679 7.10889,-2.73486 L7.96973,-2.73486 L7.96973,1.08643 M-9.37305,13.915 L-9.37305,5.70557 L-7.65137,5.70557 L-7.65137,13.915 L-9.37305,13.915 M-5.36279,13.915 L-5.36279,5.70557 L10.1533,5.70557 L10.1533,13.915 L-5.36279,13.915 M4.56836,10.2617 L7.96973,10.2617 L7.96973,7.1123 L4.56836,7.1123 L4.56836,10.2617 M-1.28955,10.2617 L2.11182,10.2617 L2.11182,7.1123 L-1.28955,7.1123 L-1.28955,10.2617 M10.8462,4.48779 L-10.1919,4.48779 L-10.1919,2.22021 L10.8462,2.22021 L10.8462,4.48779 M11.3501,14.5029 L11.3501,15.6787 L-11.3887,15.6787 L-11.3887,14.5029 L11.3501,14.5029"/>
</g>

<g fill="#4c62ad" fill-opacity="1" stroke="none" transform="matrix(1,0,0,1,0,0)"
font-family="MS Shell Dlg 2" font-size="7.8" font-weight="400" font-style="normal" 
>
</g>
</g>
</svg>
