<?xml version="1.0" encoding="UTF-8" standalone="no"?>
<svg width="11.2889mm" height="11.2889mm"
 viewBox="0 0 32 32"
 xmlns="http://www.w3.org/2000/svg" xmlns:xlink="http://www.w3.org/1999/xlink"  version="1.2" baseProfile="tiny">
<title>Qt SVG Document</title>
<desc>Generated with Qt</desc>
<defs>
</defs>
<g fill="none" stroke="black" stroke-width="1" fill-rule="evenodd" stroke-linecap="square" stroke-linejoin="bevel" >

<g fill="#53a54f" fill-opacity="1" stroke="none" transform="matrix(1,0,0,1,0,0)"
font-family="MS Shell Dlg 2" font-size="7.8" font-weight="400" font-style="normal" 
>
<path vector-effect="non-scaling-stroke" fill-rule="evenodd" d="M37.2598,16 C37.2598,27.7415 27.7415,37.2598 16,37.2598 C4.25851,37.2598 -5.25984,27.7415 -5.25984,16 C-5.25984,4.25851 4.25851,-5.25984 16,-5.25984 C27.7415,-5.25984 37.2598,4.25851 37.2598,16 "/>
</g>

<g fill="#ffffff" fill-opacity="0.94902" stroke="none" transform="matrix(1,0,0,1,16,12.5984)"
font-family="MS Shell Dlg 2" font-size="7.8" font-weight="400" font-style="normal" 
>
<path vector-effect="none" fill-rule="evenodd" d="M11.2661,-0.152344 C11.2661,0.421549 11.1016,0.823975 10.7727,1.05493 C10.4438,1.28589 10.1253,1.40137 9.81738,1.40137 C9.49544,1.40137 9.212,1.29989 8.96704,1.09692 C8.72209,0.893962 8.57161,0.624512 8.51563,0.288574 C8.51563,0.134603 8.53662,-0.0123698 8.57861,-0.152344 C8.62061,-0.292318 8.71859,-0.432292 8.87256,-0.572266 C9.09652,-0.810221 9.36597,-0.876709 9.68091,-0.771729 C9.99585,-0.666748 10.1533,-0.460286 10.1533,-0.152344 C10.1533,0.015625 10.0518,0.113607 9.84888,0.141602 C9.64591,0.169596 9.54443,0.0996094 9.54443,-0.0683594 C9.46045,-0.124349 9.38346,-0.11735 9.31348,-0.0473633 C9.24349,0.0226237 9.2085,0.134603 9.2085,0.288574 C9.2085,0.428548 9.28898,0.533529 9.44995,0.603516 C9.61092,0.673503 9.7334,0.708496 9.81738,0.708496 C9.90137,0.708496 10.0518,0.652507 10.2688,0.540527 C10.4858,0.428548 10.5942,0.197591 10.5942,-0.152344 C10.5942,-0.558268 10.4508,-0.866211 10.1638,-1.07617 C9.87687,-1.28613 9.55843,-1.39111 9.2085,-1.39111 L-8.72217,-1.39111 C-9.0721,-1.39111 -9.39054,-1.28613 -9.67749,-1.07617 C-9.96444,-0.866211 -10.1079,-0.558268 -10.1079,-0.152344 C-10.1079,0.197591 -9.99943,0.428548 -9.78247,0.540527 C-9.56551,0.652507 -9.41504,0.708496 -9.33105,0.708496 C-9.17708,0.708496 -9.03711,0.673503 -8.91113,0.603516 C-8.78516,0.533529 -8.72217,0.428548 -8.72217,0.288574 C-8.66618,0.134603 -8.66618,0.0226237 -8.72217,-0.0473633 C-8.77816,-0.11735 -8.83415,-0.152344 -8.89014,-0.152344 C-8.89014,0.015625 -9.01961,0.0996094 -9.27856,0.0996094 C-9.53752,0.0996094 -9.66699,0.015625 -9.66699,-0.152344 C-9.66699,-0.460286 -9.50952,-0.666748 -9.19458,-0.771729 C-8.87964,-0.876709 -8.61019,-0.810221 -8.38623,-0.572266 C-8.23226,-0.432292 -8.13428,-0.292318 -8.09229,-0.152344 C-8.05029,-0.0123698 -8.0293,0.134603 -8.0293,0.288574 C-8.08529,0.624512 -8.23576,0.893962 -8.48071,1.09692 C-8.72567,1.29989 -9.00911,1.40137 -9.33105,1.40137 C-9.639,1.40137 -9.95744,1.28589 -10.2864,1.05493 C-10.6153,0.823975 -10.7798,0.421549 -10.7798,-0.152344 C-10.7798,-0.782227 -10.5663,-1.26164 -10.1394,-1.59058 C-9.71248,-1.91951 -9.24007,-2.08398 -8.72217,-2.08398 L9.2085,-2.08398 C9.7264,-2.08398 10.1988,-1.91951 10.6257,-1.59058 C11.0527,-1.26164 11.2661,-0.782227 11.2661,-0.152344 M-10.8638,13.873 L11.3501,13.873 L11.3501,15.4058 L-10.8638,15.4058 L-10.8638,13.873 M8.01172,2.09424 L10.4053,2.09424 L10.4053,13.3481 L8.01172,13.3481 L8.01172,2.09424 M-9.75098,2.09424 L-7.33643,2.09424 L-7.33643,13.3481 L-9.75098,13.3481 L-9.75098,2.09424 M-5.40479,11.4165 L5.89111,11.4165 L5.89111,12.6553 L-5.40479,12.6553 L-5.40479,11.4165 M12.6519,-3.55371 L12.6519,-1.66406 L0.180176,-5.61133 L-12.1655,-1.66406 L-12.1655,-3.55371 L0.180176,-7.62695 L12.6519,-3.55371 M3.30859,9.52686 L3.30859,3.54297 L0.26416,8.83398 L-2.82227,3.54297 L-2.82227,9.52686 L-4.73291,9.52686 L-4.73291,0.015625 L-2.48633,0.015625 L0.26416,4.76074 L3.05664,0.015625 L5.21924,0.015625 L5.21924,9.52686 L3.30859,9.52686"/>
</g>

<g fill="#53a54f" fill-opacity="1" stroke="none" transform="matrix(1,0,0,1,0,0)"
font-family="MS Shell Dlg 2" font-size="7.8" font-weight="400" font-style="normal" 
>
</g>
</g>
</svg>
