<?xml version="1.0" encoding="UTF-8" standalone="no"?>
<svg width="11.2889mm" height="11.2889mm"
 viewBox="0 0 32 32"
 xmlns="http://www.w3.org/2000/svg" xmlns:xlink="http://www.w3.org/1999/xlink"  version="1.2" baseProfile="tiny">
<title>Qt SVG Document</title>
<desc>Generated with Qt</desc>
<defs>
</defs>
<g fill="none" stroke="black" stroke-width="1" fill-rule="evenodd" stroke-linecap="square" stroke-linejoin="bevel" >

<g fill="#53a54f" fill-opacity="1" stroke="none" transform="matrix(1,0,0,1,0,0)"
font-family="MS Shell Dlg 2" font-size="7.8" font-weight="400" font-style="normal" 
>
<path vector-effect="non-scaling-stroke" fill-rule="evenodd" d="M37.2598,16 C37.2598,27.7415 27.7415,37.2598 16,37.2598 C4.25851,37.2598 -5.25984,27.7415 -5.25984,16 C-5.25984,4.25851 4.25851,-5.25984 16,-5.25984 C27.7415,-5.25984 37.2598,4.25851 37.2598,16 "/>
</g>

<g fill="#ffffff" fill-opacity="0.94902" stroke="none" transform="matrix(1,0,0,1,16,12.5984)"
font-family="MS Shell Dlg 2" font-size="7.8" font-weight="400" font-style="normal" 
>
<path vector-effect="none" fill-rule="evenodd" d="M-6.83643,-1.79004 L7.94482,-1.79004 L7.94482,8.58203 L-6.83643,8.58203 L-6.83643,-1.79004 M-2.59521,-0.572266 C-3.04313,-0.572266 -3.43506,-0.414795 -3.771,-0.0998535 C-4.10693,0.215088 -4.2749,0.596517 -4.2749,1.04443 C-4.2749,1.50635 -4.10693,1.89478 -3.771,2.20972 C-3.43506,2.52466 -3.04313,2.68213 -2.59521,2.68213 C-2.1333,2.68213 -1.74487,2.52466 -1.42993,2.20972 C-1.11499,1.89478 -0.95752,1.50635 -0.95752,1.04443 C-0.95752,0.596517 -1.11499,0.215088 -1.42993,-0.0998535 C-1.74487,-0.414795 -2.1333,-0.572266 -2.59521,-0.572266 M-4.35889,6.94434 C-4.87679,6.80436 -5.26172,6.76937 -5.51367,6.83936 C-5.76563,6.90934 -5.95459,7.02832 -6.08057,7.19629 C-6.19255,7.40625 -6.26253,7.6512 -6.29053,7.93115 L7.29395,7.93115 L7.29395,4.76074 L6.30713,4.27783 L4.94238,5.22266 L2.27588,3.50098 L-1.25146,6.94434 C-1.46143,7.05632 -1.72038,7.1403 -2.02832,7.19629 C-2.29427,7.25228 -2.62671,7.26628 -3.02563,7.23828 C-3.42456,7.21029 -3.86898,7.1123 -4.35889,6.94434 M8.46973,-3.46973 C8.83366,-3.46973 9.1451,-3.34725 9.40405,-3.10229 C9.663,-2.85734 9.79248,-2.5459 9.79248,-2.16797 L9.79248,8.95996 C9.79248,9.3099 9.663,9.61434 9.40405,9.87329 C9.1451,10.1322 8.83366,10.2617 8.46973,10.2617 L-7.31934,10.2617 C-7.69727,10.2617 -8.01221,10.1322 -8.26416,9.87329 C-8.51611,9.61434 -8.64209,9.3099 -8.64209,8.95996 L-8.64209,-2.16797 C-8.64209,-2.5459 -8.51611,-2.85734 -8.26416,-3.10229 C-8.01221,-3.34725 -7.69727,-3.46973 -7.31934,-3.46973 L8.46973,-3.46973 M8.93164,-2.16797 C8.93164,-2.48991 8.77767,-2.65088 8.46973,-2.65088 L-7.31934,-2.65088 C-7.64128,-2.65088 -7.80225,-2.48991 -7.80225,-2.16797 L-7.80225,8.95996 C-7.80225,9.2819 -7.64128,9.44287 -7.31934,9.44287 L8.46973,9.44287 C8.77767,9.44287 8.93164,9.2819 8.93164,8.95996 L8.93164,-2.16797 M0.0292969,-4.28857 L-1.29346,-4.28857 L-0.474609,-8.69775 L1.45703,-8.69775 L2.23389,-4.28857 L0.932129,-4.28857 L0.76416,-5.2334 L0.197266,-5.2334 L0.0292969,-4.28857 M6.09717,11.5845 L7.94482,11.5845 L7.94482,12.6553 L6.34912,12.6553 L7.33594,17.6523 L4.54346,17.6523 L3.7666,12.6553 L-2.84717,12.6553 L-3.58203,17.6523 L-6.37451,17.6523 L-5.42969,12.6553 L-6.83643,12.6553 L-6.83643,11.5845 L-5.13574,11.5845 L-4.98877,11.0386 L-2.55322,11.0386 L-2.63721,11.5845 L3.59863,11.5845 L3.51465,11.0386 L5.97119,11.0386 L6.09717,11.5845"/>
</g>

<g fill="#53a54f" fill-opacity="1" stroke="none" transform="matrix(1,0,0,1,0,0)"
font-family="MS Shell Dlg 2" font-size="7.8" font-weight="400" font-style="normal" 
>
</g>
</g>
</svg>
