<?xml version="1.0" encoding="UTF-8" standalone="no"?>
<svg width="11.25008mm" height="11.25008mm"
 viewBox="-5.3 -5.3 42.52000 42.52000"
 xmlns="http://www.w3.org/2000/svg" xmlns:xlink="http://www.w3.org/1999/xlink"  version="1.2" baseProfile="tiny">
<title>Qt SVG Document</title>
<desc>Generated with Qt</desc>
<defs>
</defs>
<g fill="none" stroke="black" stroke-width="1" fill-rule="evenodd" stroke-linecap="square" stroke-linejoin="bevel" >

<g fill="#66b1e3" fill-opacity="1" stroke="none" transform="matrix(1,0,0,1,0,0)"
font-family="MS Shell Dlg 2" font-size="7.8" font-weight="400" font-style="normal" 
>
<path vector-effect="non-scaling-stroke" fill-rule="evenodd" d="M37.2598,16 C37.2598,27.7415 27.7415,37.2598 16,37.2598 C4.25851,37.2598 -5.25984,27.7415 -5.25984,16 C-5.25984,4.25851 4.25851,-5.25984 16,-5.25984 C27.7415,-5.25984 37.2598,4.25851 37.2598,16 "/>
</g>

<g fill="#ffffff" fill-opacity="0.94902" stroke="none" transform="matrix(1,0,0,1,16,13.1654)"
font-family="MS Shell Dlg 2" font-size="7.8" font-weight="400" font-style="normal" 
>
<path vector-effect="none" fill-rule="evenodd" d="M1.77588,1.56934 C1.34196,1.19141 0.894043,1.19141 0.432129,1.56934 C0.292155,1.70931 0.152181,1.7793 0.012207,1.7793 C-0.0997721,1.7793 -0.232747,1.70931 -0.386719,1.56934 C-0.86263,1.16341 -1.31755,1.16341 -1.75146,1.56934 C-2.0734,1.89128 -2.36035,1.89128 -2.6123,1.56934 C-2.87826,1.40137 -3.10921,1.31738 -3.30518,1.31738 C-3.55713,1.31738 -3.77409,1.40137 -3.95605,1.56934 C-4.264,1.89128 -4.56494,1.89128 -4.85889,1.56934 C-5.27881,1.19141 -5.71973,1.19141 -6.18164,1.56934 L-4.45996,13.5581 C-4.20801,13.7401 -3.83708,13.901 -3.34717,14.041 C-3.1792,14.097 -2.97974,14.146 -2.74878,14.188 C-2.51782,14.23 -2.25537,14.279 -1.96143,14.335 C-1.42952,14.4189 -0.75765,14.4609 0.0541992,14.4609 C0.796061,14.4609 1.45394,14.4189 2.02783,14.335 C2.30778,14.279 2.56323,14.23 2.79419,14.188 C3.02515,14.146 3.23161,14.097 3.41357,14.041 C3.86149,13.929 4.21842,13.7681 4.48438,13.5581 L6.24805,1.56934 C5.78613,1.19141 5.32422,1.19141 4.8623,1.56934 C4.55436,1.89128 4.26742,1.89128 4.00146,1.56934 C3.77751,1.40137 3.56055,1.31738 3.35059,1.31738 C3.09863,1.31738 2.87467,1.40137 2.67871,1.56934 C2.35677,1.89128 2.05583,1.89128 1.77588,1.56934 M-8.07129,-4.05762 C-7.70736,-3.86165 -7.21045,-3.67969 -6.58057,-3.51172 L-4.58594,-3.11279 C-3.87207,-3.00081 -3.11621,-2.91683 -2.31836,-2.86084 C-1.91243,-2.83285 -1.51701,-2.81885 -1.13208,-2.81885 C-0.747152,-2.81885 -0.351725,-2.81885 0.0541992,-2.81885 C0.446126,-2.81885 0.831055,-2.81885 1.20898,-2.81885 C1.58691,-2.81885 1.97184,-2.83285 2.36377,-2.86084 C3.17562,-2.91683 3.93848,-3.00081 4.65234,-3.11279 L6.58398,-3.51172 C6.90592,-3.6237 7.19287,-3.72168 7.44482,-3.80566 C7.69678,-3.88965 7.92773,-3.97363 8.1377,-4.05762 L5.11426,15.5107 C5.11426,15.6507 4.97428,15.7767 4.69434,15.8887 C4.49837,16.0007 4.12744,16.0986 3.58154,16.1826 C3.34359,16.2106 3.08813,16.2386 2.81519,16.2666 C2.54224,16.2946 2.25179,16.3226 1.94385,16.3506 C1.62191,16.3926 1.30347,16.4206 0.988525,16.4346 C0.673584,16.4486 0.362142,16.4556 0.0541992,16.4556 C-0.295736,16.4556 -0.628174,16.4486 -0.943115,16.4346 C-1.25806,16.4206 -1.5695,16.3926 -1.87744,16.3506 C-2.19938,16.3226 -2.49683,16.2946 -2.76978,16.2666 C-3.04272,16.2386 -3.29118,16.2106 -3.51514,16.1826 C-4.11702,16.0986 -4.50195,16.0007 -4.66992,15.8887 C-4.96387,15.7767 -5.11084,15.6507 -5.11084,15.5107 L-8.07129,-4.05762 M0.0541992,-7.50098 C1.17399,-7.50098 2.24479,-7.45898 3.2666,-7.375 C3.75651,-7.31901 4.21842,-7.26302 4.65234,-7.20703 C5.08626,-7.15104 5.49919,-7.09505 5.89111,-7.03906 C6.24105,-6.98307 6.56649,-6.91659 6.86743,-6.8396 C7.16838,-6.76261 7.43083,-6.66813 7.65479,-6.55615 C8.0887,-6.38818 8.30566,-6.19922 8.30566,-5.98926 L8.30566,-5.90527 L8.30566,-5.86328 C8.16569,-5.72331 7.90674,-5.56934 7.52881,-5.40137 C7.12288,-5.2334 6.56299,-5.05843 5.84912,-4.87646 C5.51318,-4.79248 5.13525,-4.72249 4.71533,-4.6665 C4.29541,-4.61051 3.84049,-4.55452 3.35059,-4.49854 C2.87467,-4.44255 2.36377,-4.40055 1.81787,-4.37256 C1.27197,-4.34456 0.684082,-4.33057 0.0541992,-4.33057 C-0.575684,-4.33057 -1.17057,-4.34456 -1.73047,-4.37256 C-2.29036,-4.40055 -2.81527,-4.44255 -3.30518,-4.49854 C-3.79508,-4.55452 -4.2535,-4.61051 -4.68042,-4.6665 C-5.10734,-4.72249 -5.49577,-4.79248 -5.8457,-4.87646 C-6.50358,-5.01644 -7.04948,-5.19141 -7.4834,-5.40137 C-7.90332,-5.56934 -8.15527,-5.72331 -8.23926,-5.86328 L-8.23926,-5.90527 L-8.23926,-5.98926 C-8.23926,-6.19922 -8.0293,-6.38818 -7.60938,-6.55615 C-7.37142,-6.66813 -7.10197,-6.76261 -6.80103,-6.8396 C-6.50008,-6.91659 -6.18164,-6.98307 -5.8457,-7.03906 C-5.46777,-7.09505 -5.05835,-7.15104 -4.61743,-7.20703 C-4.17651,-7.26302 -3.7111,-7.31901 -3.22119,-7.375 C-2.18538,-7.45898 -1.09359,-7.50098 0.0541992,-7.50098 "/>
</g>

<g fill="#66b1e3" fill-opacity="1" stroke="none" transform="matrix(1,0,0,1,0,0)"
font-family="MS Shell Dlg 2" font-size="7.8" font-weight="400" font-style="normal" 
>
</g>
</g>
</svg>
