<?xml version="1.0" encoding="UTF-8" standalone="no"?>
<svg width="11.2889mm" height="11.2889mm"
 viewBox="0 0 32 32"
 xmlns="http://www.w3.org/2000/svg" xmlns:xlink="http://www.w3.org/1999/xlink"  version="1.2" baseProfile="tiny">
<title>Qt SVG Document</title>
<desc>Generated with Qt</desc>
<defs>
</defs>
<g fill="none" stroke="black" stroke-width="1" fill-rule="evenodd" stroke-linecap="square" stroke-linejoin="bevel" >

<g fill="#b75800" fill-opacity="1" stroke="none" transform="matrix(1,0,0,1,0,0)"
font-family="MS Shell Dlg 2" font-size="7.8" font-weight="400" font-style="normal" 
>
<path vector-effect="non-scaling-stroke" fill-rule="evenodd" d="M37.2598,16 C37.2598,27.7415 27.7415,37.2598 16,37.2598 C4.25851,37.2598 -5.25984,27.7415 -5.25984,16 C-5.25984,4.25851 4.25851,-5.25984 16,-5.25984 C27.7415,-5.25984 37.2598,4.25851 37.2598,16 "/>
</g>

<g fill="#ffffff" fill-opacity="0.94902" stroke="none" transform="matrix(1,0,0,1,16,11.4646)"
font-family="MS Shell Dlg 2" font-size="7.8" font-weight="400" font-style="normal" 
>
<path vector-effect="none" fill-rule="evenodd" d="M11.3501,15.2378 L-11.2207,15.2378 L-10.1919,12.6133 L-8.84814,6.98633 L-7.90332,6.98633 L-6.83252,4.4458 C-6.53857,4.41781 -6.27962,4.34782 -6.05566,4.23584 C-5.8597,4.15186 -5.69523,4.01538 -5.56226,3.82642 C-5.42928,3.63745 -5.39079,3.389 -5.44678,3.08105 C-5.50277,2.78711 -5.57625,2.45467 -5.66724,2.08374 C-5.75822,1.71281 -5.82471,1.36287 -5.8667,1.03394 C-5.90869,0.704997 -5.90169,0.411051 -5.8457,0.1521 C-5.78971,-0.106852 -5.64274,-0.27832 -5.40479,-0.362305 C-5.18083,-0.474284 -4.91138,-0.638753 -4.59644,-0.855713 C-4.28149,-1.07267 -3.98055,-1.31063 -3.6936,-1.56958 C-3.40666,-1.82853 -3.14771,-2.08748 -2.91675,-2.34644 C-2.68579,-2.60539 -2.54232,-2.83285 -2.48633,-3.02881 C-2.43034,-3.22477 -2.24487,-3.50472 -1.92993,-3.86865 C-1.61499,-4.23258 -1.29655,-4.59652 -0.974609,-4.96045 C-0.610677,-5.39437 -0.183757,-5.84229 0.306152,-6.3042 L3.70752,-5.86328 L5.89111,-6.3042 C6.07308,-6.22021 6.26204,-6.05924 6.45801,-5.82129 C6.62598,-5.62533 6.81144,-5.34188 7.0144,-4.97095 C7.21737,-4.60002 7.40283,-4.11361 7.5708,-3.51172 C7.73877,-2.90983 7.80876,-2.31494 7.78076,-1.72705 C7.75277,-1.13916 7.68978,-0.572266 7.5918,-0.0263672 C7.49382,0.519531 7.37484,1.05843 7.23486,1.59033 C7.09489,2.12223 7.0109,2.64714 6.98291,3.16504 C6.94092,3.68294 6.89193,4.29883 6.83594,5.0127 C6.77995,5.72656 6.71696,6.41943 6.64697,7.09131 C6.57699,7.76318 6.521,8.36507 6.479,8.89697 C6.43701,9.42887 6.41602,9.76481 6.41602,9.90479 C6.41602,10.0868 6.493,10.3212 6.64697,10.6082 C6.80094,10.8951 6.98291,11.1925 7.19287,11.5005 C7.41683,11.8504 7.68978,12.2214 8.01172,12.6133 L10.2793,13.7891 L11.3501,15.2378 M5.26123,-0.971191 C5.10726,-0.831217 4.96729,-0.701742 4.84131,-0.582764 C4.71533,-0.463786 4.61035,-0.362305 4.52637,-0.27832 L5.72314,1.98926 L5.72314,1.94727 L7.15088,-1.51709 C7.09489,-1.78304 7.0179,-2.02799 6.91992,-2.25195 C6.86393,-2.46191 6.80794,-2.65788 6.75195,-2.83984 C6.69596,-3.02181 6.65397,-3.16878 6.62598,-3.28076 C6.59798,-3.37874 6.54199,-3.50472 6.45801,-3.65869 C6.37402,-3.81266 6.27604,-3.95964 6.16406,-4.09961 C6.03809,-4.28158 5.89111,-4.47054 5.72314,-4.6665 L5.72314,-1.43311 L5.26123,-0.971191 M-1.05859,13.8311 C-1.12858,13.887 -1.08309,13.936 -0.922119,13.978 C-0.761149,14.02 -0.544189,14.048 -0.27124,14.062 C0.00170898,14.076 0.31665,14.097 0.673584,14.125 C1.03052,14.153 1.39795,14.167 1.77588,14.167 L0.138184,12.3193 C-0.183757,12.6413 -0.449707,12.9527 -0.659668,13.2537 C-0.869629,13.5546 -1.0026,13.7471 -1.05859,13.8311 M2.63672,13.5581 C3.86849,14.104 4.79932,14.349 5.4292,14.293 C6.05908,14.237 6.58748,14.195 7.0144,14.167 C7.44132,14.139 7.78426,14.104 8.04321,14.062 C8.30216,14.02 8.34766,13.957 8.17969,13.873 C7.63379,13.4671 7.43083,13.3271 7.5708,13.4531 C7.71077,13.5791 7.08089,13.2712 5.68115,12.5293 L4.40039,11.6685 L3.58154,8.83398 L5.47119,10.9756 C5.38721,10.7516 5.31722,10.5417 5.26123,10.3457 C5.23324,10.2337 5.21924,10.1427 5.21924,10.0728 L5.59717,4.15186 L4.48438,2.68213 L4.48438,4.76074 L3.49756,3.24902 C3.44157,3.52897 3.38208,3.87891 3.31909,4.29883 C3.2561,4.71875 3.18262,5.13517 3.09863,5.5481 C3.01465,5.96102 2.91667,6.34595 2.80469,6.70288 C2.69271,7.05981 2.54574,7.32926 2.36377,7.51123 C2.16781,7.6792 2.10482,7.96965 2.1748,8.38257 C2.24479,8.79549 2.32528,9.22591 2.41626,9.67383 C2.50724,10.1217 2.52824,10.5172 2.47925,10.8601 C2.43026,11.203 2.2098,11.4025 1.81787,11.4585 C1.57992,11.5145 1.39095,11.5705 1.25098,11.6265 L2.63672,13.5581"/>
</g>

<g fill="#b75800" fill-opacity="1" stroke="none" transform="matrix(1,0,0,1,0,0)"
font-family="MS Shell Dlg 2" font-size="7.8" font-weight="400" font-style="normal" 
>
</g>
</g>
</svg>
