<?xml version="1.0" encoding="UTF-8" standalone="no"?>
<svg width="11.25008mm" height="11.25008mm"
 viewBox="-5.3 -5.3 42.52000 42.52000"
 xmlns="http://www.w3.org/2000/svg" xmlns:xlink="http://www.w3.org/1999/xlink"  version="1.2" baseProfile="tiny">
<title>Qt SVG Document</title>
<desc>Generated with Qt</desc>
<defs>
</defs>
<g fill="none" stroke="black" stroke-width="1" fill-rule="evenodd" stroke-linecap="square" stroke-linejoin="bevel" >

<g fill="#b75800" fill-opacity="1" stroke="none" transform="matrix(1,0,0,1,0,0)"
font-family="MS Shell Dlg 2" font-size="7.8" font-weight="400" font-style="normal" 
>
<path vector-effect="non-scaling-stroke" fill-rule="evenodd" d="M37.2598,16 C37.2598,27.7415 27.7415,37.2598 16,37.2598 C4.25851,37.2598 -5.25984,27.7415 -5.25984,16 C-5.25984,4.25851 4.25851,-5.25984 16,-5.25984 C27.7415,-5.25984 37.2598,4.25851 37.2598,16 "/>
</g>

<g fill="#ffffff" fill-opacity="0.94902" stroke="none" transform="matrix(1,0,0,1,16,12.5984)"
font-family="MS Shell Dlg 2" font-size="7.8" font-weight="400" font-style="normal" 
>
<path vector-effect="none" fill-rule="evenodd" d="M-8.42822,-1.26514 C-8.82015,-0.775228 -9.26807,-0.274821 -9.77197,0.236084 C-10.2759,0.746989 -10.7728,1.38037 -11.2627,2.13623 C-11.5706,2.73812 -11.7981,3.40299 -11.9451,4.13086 C-12.092,4.85872 -12.1235,5.5096 -12.0396,6.0835 C-11.8856,6.68538 -11.7666,7.21029 -11.6826,7.6582 C-11.5986,8.10612 -11.5566,8.48405 -11.5566,8.79199 L-11.5566,9.35889 L-11.5566,9.56885 L-11.6406,9.8208 C-11.6966,9.96077 -11.7386,10.1182 -11.7666,10.2932 C-11.7946,10.4682 -11.8086,10.6257 -11.8086,10.7656 C-11.9346,11.0596 -12.0396,11.322 -12.1235,11.553 C-12.2075,11.7839 -12.2915,11.9974 -12.3755,12.1934 C-12.4875,12.3333 -12.5645,12.4768 -12.6064,12.6238 C-12.6484,12.7708 -12.7044,12.9142 -12.7744,13.0542 C-13.0264,12.7043 -13.1523,12.2563 -13.1523,11.7104 L-13.1523,0.79248 C-13.0964,0.680501 -12.9074,0.491536 -12.5854,0.225586 C-11.7876,-0.60026 -11.1087,-1.37712 -10.5488,-2.10498 C-9.98893,-2.83285 -9.56901,-3.45573 -9.28906,-3.97363 C-9.23307,-4.11361 -9.18758,-4.23608 -9.15259,-4.34106 C-9.11759,-4.44604 -9.0721,-4.55452 -9.01611,-4.6665 C-8.68018,-4.72249 -8.33374,-4.76449 -7.97681,-4.79248 C-7.61987,-4.82048 -7.26644,-4.86247 -6.9165,-4.91846 C-6.9165,-4.77848 -6.9235,-4.60701 -6.9375,-4.40405 C-6.9515,-4.20109 -6.98649,-4.00163 -7.04248,-3.80566 C-7.18245,-3.0918 -7.64437,-2.24495 -8.42822,-1.26514 M-10.0449,-4.54053 C-10.3669,-4.1346 -10.7798,-3.65169 -11.2837,-3.0918 C-11.7876,-2.5319 -12.4105,-1.92301 -13.1523,-1.26514 L-13.1523,-3.88965 C-12.6624,-4.02962 -12.1655,-4.1521 -11.6616,-4.25708 C-11.1577,-4.36206 -10.6188,-4.45654 -10.0449,-4.54053 M-6.47559,3.16504 C-6.85352,3.9069 -7.10197,4.68026 -7.22095,5.48511 C-7.33993,6.28996 -7.36442,7.02132 -7.29443,7.6792 C-7.26644,7.98714 -7.18245,8.37907 -7.04248,8.85498 C-6.90251,9.33089 -6.75903,9.85579 -6.61206,10.4297 C-6.46509,11.0036 -6.34961,11.6125 -6.26563,12.2563 C-6.18164,12.9002 -6.18164,13.5371 -6.26563,14.167 L-10.6958,14.167 C-10.9058,14.167 -11.0667,14.139 -11.1787,14.083 C-10.8848,13.7891 -10.6678,13.4461 -10.5278,13.0542 C-10.3879,12.8162 -10.2654,12.5398 -10.1604,12.2249 C-10.0554,11.9099 -9.94694,11.5845 -9.83496,11.2485 C-9.77897,11.0386 -9.73698,10.8426 -9.70898,10.6606 C-9.68099,10.4787 -9.639,10.2687 -9.58301,10.0308 L-9.58301,9.73682 L-9.58301,9.65283 L-9.58301,9.56885 L-9.49902,9.35889 C-9.49902,9.2749 -9.51302,9.15243 -9.54102,8.99146 C-9.56901,8.83049 -9.58301,8.70801 -9.58301,8.62402 C-9.639,8.10612 -9.74048,7.60921 -9.88745,7.1333 C-10.0344,6.65739 -10.1499,6.18148 -10.2339,5.70557 C-10.3739,5.27165 -10.4229,4.81673 -10.3809,4.34082 C-10.3389,3.86491 -10.1989,3.34001 -9.96094,2.76611 C-9.625,2.16423 -9.22607,1.58333 -8.76416,1.02344 C-8.30225,0.463542 -7.91732,-0.0823568 -7.60938,-0.614258 C-7.20345,-1.13216 -6.87801,-1.64307 -6.63306,-2.14697 C-6.3881,-2.65088 -6.23763,-3.14779 -6.18164,-3.6377 C-6.12565,-3.91764 -6.11165,-4.1731 -6.13965,-4.40405 C-6.16764,-4.63501 -6.20964,-4.83447 -6.26563,-5.00244 C-5.60775,-5.05843 -4.94987,-5.11092 -4.29199,-5.15991 C-3.63411,-5.2089 -2.97624,-5.26139 -2.31836,-5.31738 C-2.31836,-5.16341 -2.30436,-5.01644 -2.27637,-4.87646 C-2.24837,-4.73649 -2.23438,-4.56852 -2.23438,-4.37256 C-2.29036,-3.88265 -2.40234,-3.37174 -2.57031,-2.83984 C-2.73828,-2.30794 -3.03923,-1.75505 -3.47314,-1.18115 C-3.85107,-0.607259 -4.34098,0.0086263 -4.94287,0.666504 C-5.54476,1.32438 -6.05566,2.15723 -6.47559,3.16504 M-1.20557,2.99707 C-1.42952,3.361 -1.5625,3.74593 -1.60449,4.15186 C-1.64648,4.55778 -1.66748,4.91471 -1.66748,5.22266 C-1.63949,5.99251 -1.42603,6.71688 -1.0271,7.39575 C-0.628174,8.07463 -0.250244,8.757 0.106689,9.44287 C0.463623,10.1287 0.687581,10.8496 0.778564,11.6055 C0.869548,12.3613 0.614095,13.2152 0.012207,14.167 L-3.34717,14.167 C-3.34717,13.971 -3.35417,13.7996 -3.36816,13.6526 C-3.38216,13.5056 -3.41715,13.3621 -3.47314,13.2222 L-3.55713,12.8442 L-3.64111,12.4873 C-3.64111,12.3193 -3.7041,12.0884 -3.83008,11.7944 C-3.94206,11.5705 -4.04704,11.343 -4.14502,11.1121 C-4.243,10.8811 -4.36198,10.6536 -4.50195,10.4297 C-4.73991,9.93978 -4.95687,9.45687 -5.15283,8.98096 C-5.3488,8.50505 -5.47477,8.01514 -5.53076,7.51123 C-5.62874,6.88135 -5.64624,6.25496 -5.58325,5.63208 C-5.52026,5.0092 -5.37679,4.36882 -5.15283,3.71094 C-4.83089,2.88509 -4.40047,2.14323 -3.86157,1.48535 C-3.32267,0.827474 -2.83626,0.169596 -2.40234,-0.488281 C-2.02441,-1.21615 -1.74447,-1.91602 -1.5625,-2.58789 C-1.38053,-3.25977 -1.31755,-3.85465 -1.37354,-4.37256 C-1.37354,-4.56852 -1.39453,-4.73649 -1.43652,-4.87646 C-1.47852,-5.01644 -1.52751,-5.16341 -1.5835,-5.31738 L0.705078,-5.31738 L2.11182,-5.31738 C2.11182,-5.16341 2.12581,-5.01644 2.15381,-4.87646 C2.1818,-4.73649 2.2238,-4.59652 2.27979,-4.45654 C2.43376,-4.07861 2.60872,-3.6237 2.80469,-3.0918 C3.00065,-2.5599 3.07064,-2.03499 3.01465,-1.51709 C3.01465,-0.957194 2.76969,-0.432292 2.27979,0.0576172 C2.08382,0.295573 1.82837,0.512533 1.51343,0.708496 C1.19849,0.90446 0.824056,1.12142 0.390137,1.35938 C0.110189,1.55534 -0.173258,1.7758 -0.460205,2.02075 C-0.747152,2.26571 -0.995605,2.59115 -1.20557,2.99707 M7.92773,9.73682 C8.1237,9.96077 8.29167,10.1882 8.43164,10.4192 C8.57161,10.6501 8.69059,10.9266 8.78857,11.2485 C8.95654,11.7664 9.08252,12.2983 9.1665,12.8442 C9.1665,13.2922 9.09652,13.7331 8.95654,14.167 L4.27441,14.167 C4.20443,13.3971 3.98397,12.6588 3.61304,11.9519 C3.24211,11.245 2.81519,10.5627 2.33228,9.90479 C1.84937,9.24691 1.38395,8.60303 0.936035,7.97314 C0.488118,7.34326 0.180176,6.71338 0.012207,6.0835 C-0.127767,5.64958 -0.155762,5.18416 -0.0717773,4.68726 C0.012207,4.19035 0.110189,3.86491 0.222168,3.71094 C0.362142,3.375 0.733073,3.00407 1.33496,2.59814 C1.6569,2.3182 1.99634,2.04875 2.35327,1.78979 C2.71021,1.53084 3.02865,1.2264 3.30859,0.876465 C3.60254,0.568522 3.837,0.197591 4.01196,-0.236328 C4.18693,-0.670247 4.27441,-1.06917 4.27441,-1.43311 C4.27441,-1.86702 4.21493,-2.24845 4.09595,-2.57739 C3.97697,-2.90633 3.87549,-3.18978 3.7915,-3.42773 C3.65153,-3.70768 3.52905,-3.96313 3.42407,-4.19409 C3.31909,-4.42505 3.22461,-4.63851 3.14063,-4.83447 C3.00065,-5.00244 2.90267,-5.16341 2.84668,-5.31738 C3.2526,-5.31738 3.63403,-5.30339 3.99097,-5.27539 C4.3479,-5.2474 4.68034,-5.2334 4.98828,-5.2334 L4.98828,-5.14941 C4.98828,-4.91146 5.03377,-4.67 5.12476,-4.42505 C5.21574,-4.18009 5.30322,-3.91764 5.38721,-3.6377 C5.52718,-3.31576 5.66016,-3.01131 5.78613,-2.72437 C5.91211,-2.43742 6.03809,-2.13997 6.16406,-1.83203 C6.30404,-1.51009 6.43001,-1.16366 6.54199,-0.792725 C6.65397,-0.421794 6.73796,-0.0473633 6.79395,0.330566 C6.79395,0.722493 6.72396,1.09692 6.58398,1.45386 C6.44401,1.81079 6.25505,2.19222 6.01709,2.59814 C5.73714,3.03206 5.4397,3.47648 5.12476,3.9314 C4.80981,4.38631 4.58236,4.9777 4.44238,5.70557 C4.3584,5.98551 4.3584,6.31095 4.44238,6.68188 C4.52637,7.05282 4.68034,7.35726 4.9043,7.59521 C5.11426,7.81917 5.31722,7.99764 5.51318,8.13062 C5.70915,8.26359 5.87712,8.40007 6.01709,8.54004 C6.45101,8.70801 6.81844,8.89347 7.11938,9.09644 C7.42033,9.2994 7.68978,9.51286 7.92773,9.73682 M11.0142,6.0835 C11.3641,6.51742 11.6825,6.91984 11.9695,7.29077 C12.2564,7.6617 12.5399,8.00814 12.8198,8.33008 C12.8758,8.49805 13.0018,8.65202 13.1978,8.79199 L13.1978,11.7104 C13.1978,12.3403 12.9913,12.8792 12.5784,13.3271 C12.1654,13.7751 11.644,14.027 11.0142,14.083 C11.1541,13.5931 11.1541,13.0612 11.0142,12.4873 C10.9582,12.1514 10.8882,11.8014 10.8042,11.4375 C10.7202,11.0736 10.6012,10.7376 10.4473,10.4297 C10.3073,10.0798 10.1218,9.71232 9.89087,9.32739 C9.65991,8.94246 9.34847,8.61003 8.95654,8.33008 C8.6346,8.03613 8.28817,7.78768 7.91724,7.58472 C7.54631,7.38175 7.19637,7.19629 6.86743,7.02832 C6.53849,6.86035 6.27254,6.68188 6.06958,6.49292 C5.86662,6.30396 5.79313,6.09749 5.84912,5.87354 C5.90511,5.69157 5.9786,5.49561 6.06958,5.28564 C6.16056,5.07568 6.24805,4.86572 6.33203,4.65576 C6.47201,4.4318 6.61548,4.19735 6.76245,3.95239 C6.90942,3.70744 7.0529,3.47298 7.19287,3.24902 C7.27686,3.01107 7.37484,2.77311 7.48682,2.53516 C7.5988,2.2972 7.68278,2.05924 7.73877,1.82129 C7.83675,1.54134 7.89274,1.26489 7.90674,0.991943 C7.92074,0.718994 7.92773,0.463542 7.92773,0.225586 C7.82975,-0.27832 7.70378,-0.726237 7.5498,-1.11816 C7.39583,-1.51009 7.24886,-1.87402 7.10889,-2.20996 C6.95492,-2.5319 6.80794,-2.85034 6.66797,-3.16528 C6.52799,-3.48022 6.38802,-3.74967 6.24805,-3.97363 C6.09408,-4.21159 5.9891,-4.42855 5.93311,-4.62451 C5.87712,-4.82048 5.82113,-4.99544 5.76514,-5.14941 C6.14307,-5.14941 6.5175,-5.12492 6.88843,-5.07593 C7.25936,-5.02694 7.63379,-4.97445 8.01172,-4.91846 C8.1237,-4.77848 8.26367,-4.63851 8.43164,-4.49854 C8.59961,-4.35856 8.77458,-4.18359 8.95654,-3.97363 C9.09652,-3.83366 9.26099,-3.70068 9.44995,-3.57471 C9.63892,-3.44873 9.81738,-3.30876 9.98535,-3.15479 C10.0973,-3.04281 10.1743,-2.95182 10.2163,-2.88184 C10.2583,-2.81185 10.3073,-2.70687 10.3633,-2.56689 C10.4193,-2.41292 10.4718,-2.28695 10.5208,-2.18896 C10.5697,-2.09098 10.6222,-1.97201 10.6782,-1.83203 C10.7622,-1.28613 10.7622,-0.684245 10.6782,-0.0263672 C10.6222,0.267578 10.5138,0.57902 10.3528,0.907959 C10.1918,1.2369 10.0413,1.64632 9.90137,2.13623 C9.81738,2.44417 9.77539,2.8151 9.77539,3.24902 C9.77539,3.68294 9.84538,4.05387 9.98535,4.36182 C10.0973,4.68376 10.2513,4.9987 10.4473,5.30664 L10.5942,5.5166 L10.7622,5.70557 L11.0142,6.0835 M9.25049,-4.83447 C10.5942,-4.6665 11.91,-4.44954 13.1978,-4.18359 L13.1978,5.78955 C13.0578,5.63558 12.9178,5.49561 12.7778,5.36963 C12.6379,5.24365 12.4979,5.11068 12.3579,4.9707 C11.98,4.53678 11.7035,4.13436 11.5286,3.76343 C11.3536,3.3925 11.3081,2.94808 11.3921,2.43018 C11.4621,2.08024 11.5601,1.70581 11.686,1.30688 C11.812,0.907959 11.903,0.519531 11.959,0.141602 C12.015,-0.27832 12.022,-0.684245 11.98,-1.07617 C11.938,-1.4681 11.847,-1.81803 11.707,-2.12598 C11.623,-2.47591 11.4901,-2.77686 11.3081,-3.02881 C11.2521,-3.16878 11.1541,-3.32625 11.0142,-3.50122 C10.8742,-3.67619 10.7622,-3.80566 10.6782,-3.88965 C10.4403,-4.08561 10.2233,-4.24308 10.0273,-4.36206 C9.83138,-4.48104 9.65641,-4.61051 9.50244,-4.75049 C9.39046,-4.75049 9.30648,-4.77848 9.25049,-4.83447 "/>
</g>

<g fill="#b75800" fill-opacity="1" stroke="none" transform="matrix(1,0,0,1,0,0)"
font-family="MS Shell Dlg 2" font-size="7.8" font-weight="400" font-style="normal" 
>
</g>
</g>
</svg>
