<?xml version="1.0" encoding="UTF-8" standalone="no"?>
<svg width="11.2889mm" height="11.2889mm"
 viewBox="0 0 32 32"
 xmlns="http://www.w3.org/2000/svg" xmlns:xlink="http://www.w3.org/1999/xlink"  version="1.2" baseProfile="tiny">
<title>Qt SVG Document</title>
<desc>Generated with Qt</desc>
<defs>
</defs>
<g fill="none" stroke="black" stroke-width="1" fill-rule="evenodd" stroke-linecap="square" stroke-linejoin="bevel" >

<g fill="#b75800" fill-opacity="1" stroke="none" transform="matrix(1,0,0,1,0,0)"
font-family="MS Shell Dlg 2" font-size="7.8" font-weight="400" font-style="normal" 
>
<path vector-effect="non-scaling-stroke" fill-rule="evenodd" d="M37.2598,16 C37.2598,27.7415 27.7415,37.2598 16,37.2598 C4.25851,37.2598 -5.25984,27.7415 -5.25984,16 C-5.25984,4.25851 4.25851,-5.25984 16,-5.25984 C27.7415,-5.25984 37.2598,4.25851 37.2598,16 "/>
</g>

<g fill="#ffffff" fill-opacity="0.94902" stroke="none" transform="matrix(1,0,0,1,16,12.0315)"
font-family="MS Shell Dlg 2" font-size="7.8" font-weight="400" font-style="normal" 
>
<path vector-effect="none" fill-rule="evenodd" d="M-5.76172,13.6001 C-6.18164,14.174 -6.52108,14.6919 -6.78003,15.1538 C-7.03898,15.6157 -7.09847,15.9727 -6.9585,16.2246 L-7.69336,16.2246 C-8.37923,16.2246 -8.62769,15.9552 -8.43872,15.4163 C-8.24976,14.8774 -7.84033,14.188 -7.21045,13.3481 C-7.21045,12.9142 -7.11247,12.5258 -6.9165,12.1829 C-6.72054,11.8399 -6.49308,11.525 -6.23413,11.238 C-5.97518,10.9511 -5.71623,10.6781 -5.45728,10.4192 C-5.19832,10.1602 -4.99886,9.90479 -4.85889,9.65283 C-4.94287,9.13493 -5.01286,8.58203 -5.06885,7.99414 C-5.12484,7.40625 -5.19482,6.78337 -5.27881,6.12549 C-5.36279,5.43962 -5.48527,4.76774 -5.64624,4.10986 C-5.80721,3.45199 -5.95068,2.8221 -6.07666,2.22021 C-6.20264,1.61833 -6.29362,1.02344 -6.34961,0.435547 C-6.4056,-0.152344 -6.3776,-0.733236 -6.26563,-1.30713 C-6.23763,-1.4891 -6.15365,-1.77954 -6.01367,-2.17847 C-5.8737,-2.57739 -5.72323,-2.99032 -5.56226,-3.41724 C-5.40129,-3.84416 -5.24382,-4.25358 -5.08984,-4.64551 C-4.93587,-5.03743 -4.83089,-5.33138 -4.7749,-5.52734 C-4.56494,-6.12923 -4.30949,-6.59465 -4.00854,-6.92358 C-3.7076,-7.25252 -3.38566,-7.49048 -3.04272,-7.63745 C-2.69979,-7.78442 -2.33586,-7.87191 -1.95093,-7.8999 C-1.566,-7.9279 -1.18457,-7.94189 -0.806641,-7.94189 C-0.638672,-7.94189 -0.481201,-7.9034 -0.334229,-7.82642 C-0.187256,-7.74943 -0.0297852,-7.68294 0.138184,-7.62695 C-0.547689,-7.62695 -1.19857,-7.49048 -1.81445,-7.21753 C-2.43034,-6.94458 -2.94124,-6.26921 -3.34717,-5.19141 C-3.40316,-5.00944 -3.50464,-4.72599 -3.65161,-4.34106 C-3.79858,-3.95614 -3.94906,-3.55021 -4.10303,-3.12329 C-4.257,-2.69637 -4.41447,-2.27995 -4.57544,-1.87402 C-4.73641,-1.4681 -4.83089,-1.16715 -4.85889,-0.971191 C-4.97087,-0.397298 -4.99186,0.183594 -4.92188,0.771484 C-4.85189,1.35938 -4.74341,1.95426 -4.59644,2.55615 C-4.44946,3.15804 -4.29899,3.77393 -4.14502,4.40381 C-3.99105,5.03369 -3.88607,5.69157 -3.83008,6.37744 C-3.7321,7.10531 -3.66211,7.76318 -3.62012,8.35107 C-3.57813,8.93896 -3.51514,9.48486 -3.43115,9.98877 C-3.54313,10.2547 -3.7286,10.5102 -3.98755,10.7551 C-4.2465,11.0001 -4.50545,11.266 -4.7644,11.553 C-5.02336,11.8399 -5.25431,12.1479 -5.45728,12.4768 C-5.66024,12.8057 -5.76172,13.1802 -5.76172,13.6001 M1.20898,2.80811 C1.06901,2.90609 0.957031,3.01807 0.873047,3.14404 C0.789063,3.27002 0.670085,3.41699 0.516113,3.58496 C0.460124,3.72493 0.376139,3.85441 0.26416,3.97339 C0.152181,4.09237 0.0541992,4.19385 -0.0297852,4.27783 C-0.0857747,4.13786 -0.11377,3.98739 -0.11377,3.82642 C-0.11377,3.66545 -0.11377,3.50098 -0.11377,3.33301 C-0.169759,2.56315 -0.141764,1.82479 -0.0297852,1.11792 C0.082194,0.411051 0.232666,-0.222331 0.421631,-0.782227 C0.610596,-1.34212 0.80306,-1.82153 0.999023,-2.22046 C1.19499,-2.61938 1.34896,-2.90283 1.46094,-3.0708 C1.61491,-2.98682 1.81787,-2.84334 2.06982,-2.64038 C2.32178,-2.43742 2.58423,-2.15047 2.85718,-1.77954 C3.13013,-1.40861 3.37508,-0.943197 3.59204,-0.383301 C3.809,0.176595 3.94548,0.855469 4.00146,1.65332 C4.00146,1.79329 4.01546,1.93677 4.04346,2.08374 C4.07145,2.23071 4.08545,2.37419 4.08545,2.51416 C4.02946,2.54215 3.94548,2.55615 3.8335,2.55615 L3.66553,2.64014 C3.42757,2.72412 3.23861,2.75911 3.09863,2.74512 C2.95866,2.73112 2.80469,2.69613 2.63672,2.64014 C2.39876,2.58415 2.16781,2.56315 1.94385,2.57715 C1.71989,2.59115 1.47493,2.66813 1.20898,2.80811 M1.6499,-0.887207 C1.32796,-0.747233 1.05851,-0.49528 0.841553,-0.131348 C0.624593,0.232585 0.544108,0.596517 0.600098,0.960449 C0.600098,1.31038 0.708577,1.57983 0.925537,1.7688 C1.1425,1.95776 1.41195,2.00326 1.73389,1.90527 C1.78988,1.90527 1.81787,1.89128 1.81787,1.86328 C1.81787,1.83529 1.84587,1.82129 1.90186,1.82129 C2.1818,1.68132 2.43026,1.43286 2.64722,1.07593 C2.86418,0.718994 2.94466,0.351563 2.88867,-0.0263672 C2.88867,-0.362305 2.76619,-0.624756 2.52124,-0.813721 C2.27629,-1.00269 1.98584,-1.02718 1.6499,-0.887207 M1.81787,1.14941 C1.6359,1.2334 1.47493,1.2369 1.33496,1.15991 C1.19499,1.08293 1.125,0.932454 1.125,0.708496 C1.125,0.568522 1.18099,0.404053 1.29297,0.215088 C1.40495,0.026123 1.55192,-0.110352 1.73389,-0.194336 L1.81787,-0.194336 C2.2098,-0.27832 2.40576,-0.138346 2.40576,0.225586 C2.40576,0.379557 2.34977,0.547526 2.23779,0.729492 C2.12581,0.911458 1.98584,1.05143 1.81787,1.14941 M2.55273,10.0728 C2.60872,10.3107 2.69271,10.5137 2.80469,10.6816 C2.91667,10.8496 3.08464,11.0666 3.30859,11.3325 C3.46257,11.5005 3.60954,11.693 3.74951,11.9099 C3.88949,12.1269 4.02946,12.3613 4.16943,12.6133 L1.29297,13.7891 C1.37695,13.4391 1.49243,13.0927 1.6394,12.7498 C1.78638,12.4068 1.92985,12.0744 2.06982,11.7524 C2.41976,10.9266 2.54574,10.4017 2.44775,10.1777 C2.44775,10.0238 2.42676,9.89079 2.38477,9.77881 C2.34277,9.66683 2.23779,9.48486 2.06982,9.23291 C1.76188,8.82699 1.41195,8.25659 1.02002,7.52173 C0.628092,6.78687 0.334147,5.92253 0.138184,4.92871 C0.278158,4.77474 0.397135,4.62777 0.495117,4.48779 C0.593099,4.34782 0.719076,4.19385 0.873047,4.02588 C0.957031,3.87191 1.04102,3.74593 1.125,3.64795 C1.20898,3.54997 1.29297,3.47298 1.37695,3.41699 C1.78288,3.22103 2.12581,3.19303 2.40576,3.33301 C2.92367,3.52897 3.42757,3.50098 3.91748,3.24902 L4.00146,3.24902 C3.94548,4.34082 3.788,5.36613 3.52905,6.32495 C3.2701,7.28377 3.05664,8.07813 2.88867,8.70801 C2.7487,9.11393 2.65771,9.40788 2.61572,9.58984 C2.57373,9.77181 2.55273,9.93278 2.55273,10.0728 M8.30566,14.041 C8.58561,14.321 8.68359,14.6254 8.59961,14.9543 C8.51563,15.2833 8.32316,15.5912 8.02222,15.8782 C7.72127,16.1651 7.37134,16.4031 6.97241,16.592 C6.57349,16.781 6.19906,16.8755 5.84912,16.8755 L-5.02686,16.8755 C-5.68473,16.8755 -5.91219,16.6095 -5.70923,16.0776 C-5.50627,15.5457 -5.07585,14.8669 -4.41797,14.041 C-4.44596,13.6071 -4.36898,13.2327 -4.18701,12.9177 C-4.00505,12.6028 -3.77759,12.3018 -3.50464,12.0149 C-3.23169,11.7279 -2.95874,11.455 -2.68579,11.196 C-2.41284,10.9371 -2.20638,10.6816 -2.06641,10.4297 C-2.15039,9.91178 -2.23438,9.35889 -2.31836,8.771 C-2.40234,8.18311 -2.48633,7.54622 -2.57031,6.86035 C-2.6263,6.17448 -2.73478,5.5096 -2.89575,4.86572 C-3.05672,4.22184 -3.2002,3.59896 -3.32617,2.99707 C-3.45215,2.39518 -3.55013,1.80029 -3.62012,1.2124 C-3.6901,0.624512 -3.68311,0.0436198 -3.59912,-0.530273 C-3.57113,-0.740234 -3.48014,-1.04468 -3.32617,-1.4436 C-3.1722,-1.84253 -3.00773,-2.25545 -2.83276,-2.68237 C-2.6578,-3.10929 -2.50033,-3.51172 -2.36035,-3.88965 C-2.22038,-4.26758 -2.1224,-4.55452 -2.06641,-4.75049 C-1.85645,-5.35238 -1.60099,-5.82479 -1.30005,-6.16772 C-0.999105,-6.51066 -0.670166,-6.75562 -0.313232,-6.90259 C0.0437012,-7.04956 0.407633,-7.13704 0.778564,-7.16504 C1.1495,-7.19303 1.52393,-7.20703 1.90186,-7.20703 C2.69971,-7.20703 3.36458,-6.64714 3.89648,-5.52734 C4.42839,-4.40755 4.96729,-2.94482 5.51318,-1.13916 C5.65316,-0.789225 5.88761,-0.488281 6.21655,-0.236328 C6.54549,0.015625 6.75195,0.330566 6.83594,0.708496 C7.0459,1.47835 7.19287,2.23771 7.27686,2.98657 C7.36084,3.73543 7.41683,4.51929 7.44482,5.33813 C7.47282,6.15698 7.47282,7.02482 7.44482,7.94165 C7.41683,8.85848 7.38883,9.86979 7.36084,10.9756 C7.44482,11.1296 7.50781,11.336 7.5498,11.595 C7.5918,11.8539 7.64079,12.1339 7.69678,12.4348 C7.75277,12.7358 7.82625,13.0297 7.91724,13.3167 C8.00822,13.6036 8.1377,13.8451 8.30566,14.041 M4.98828,12.9282 L4.82031,12.5293 C4.68034,12.1934 4.50887,11.8749 4.30591,11.574 C4.10295,11.273 3.88949,10.9896 3.66553,10.7236 C3.52555,10.5837 3.38908,10.4332 3.2561,10.2722 C3.12313,10.1112 3.05664,9.98877 3.05664,9.90479 C3.05664,9.8208 3.09163,9.68783 3.16162,9.50586 C3.23161,9.32389 3.31559,9.11393 3.41357,8.87598 C3.52555,8.47005 3.65153,7.99764 3.7915,7.45874 C3.93148,6.91984 4.06795,6.31795 4.20093,5.65308 C4.3339,4.9882 4.42839,4.29883 4.48438,3.58496 C4.54036,2.87109 4.54036,2.14323 4.48438,1.40137 C4.42839,0.393555 4.25692,-0.446289 3.96997,-1.11816 C3.68302,-1.79004 3.36808,-2.32544 3.02515,-2.72437 C2.68221,-3.12329 2.36027,-3.40324 2.05933,-3.56421 C1.75838,-3.72518 1.58691,-3.80566 1.54492,-3.80566 L1.46094,-3.88965 L1.29297,-3.72168 C1.26497,-3.66569 1.1355,-3.45223 0.904541,-3.0813 C0.673584,-2.71037 0.421631,-2.19946 0.148682,-1.54858 C-0.124268,-0.897705 -0.351725,-0.134847 -0.533691,0.73999 C-0.715658,1.61483 -0.778646,2.56315 -0.722656,3.58496 C-0.582682,5.11068 -0.253743,6.37394 0.26416,7.37476 C0.782064,8.37557 1.24398,9.16292 1.6499,9.73682 C1.73389,9.87679 1.81087,9.99927 1.88086,10.1042 C1.95085,10.2092 1.98584,10.2897 1.98584,10.3457 C1.98584,10.4297 1.93685,10.5872 1.83887,10.8181 C1.74089,11.0491 1.6429,11.2765 1.54492,11.5005 C1.37695,11.9344 1.21598,12.3858 1.06201,12.8547 C0.90804,13.3236 0.789063,13.8031 0.705078,14.293 L0.600098,14.7759 L4.98828,12.9282"/>
</g>

<g fill="#b75800" fill-opacity="1" stroke="none" transform="matrix(1,0,0,1,0,0)"
font-family="MS Shell Dlg 2" font-size="7.8" font-weight="400" font-style="normal" 
>
</g>
</g>
</svg>
