<?xml version="1.0" encoding="UTF-8" standalone="no"?>
<svg width="11.25008mm" height="11.25008mm"
 viewBox="-5.3 -5.3 42.52000 42.52000"
 xmlns="http://www.w3.org/2000/svg" xmlns:xlink="http://www.w3.org/1999/xlink"  version="1.2" baseProfile="tiny">
<title>Qt SVG Document</title>
<desc>Generated with Qt</desc>
<defs>
</defs>
<g fill="none" stroke="black" stroke-width="1" fill-rule="evenodd" stroke-linecap="square" stroke-linejoin="bevel" >

<g fill="#a61215" fill-opacity="1" stroke="none" transform="matrix(1,0,0,1,0,0)"
font-family="MS Shell Dlg 2" font-size="7.8" font-weight="400" font-style="normal" 
>
<path vector-effect="non-scaling-stroke" fill-rule="evenodd" d="M37.2598,16 C37.2598,27.7415 27.7415,37.2598 16,37.2598 C4.25851,37.2598 -5.25984,27.7415 -5.25984,16 C-5.25984,4.25851 4.25851,-5.25984 16,-5.25984 C27.7415,-5.25984 37.2598,4.25851 37.2598,16 "/>
</g>

<g fill="#ffffff" fill-opacity="0.94902" stroke="none" transform="matrix(1,0,0,1,17.1339,12.0315)"
font-family="MS Shell Dlg 2" font-size="7.8" font-weight="400" font-style="normal" 
>
<path vector-effect="none" fill-rule="evenodd" d="M-1.75146,-5.7373 L-1.75146,-7.45898 L-2.92725,-7.45898 L-2.92725,-7.8999 L-1.75146,-7.8999 L-1.75146,-9.26465 L-1.28955,-9.26465 L-1.28955,-7.8999 L-0.0297852,-7.8999 L-0.0297852,-7.45898 L-1.28955,-7.45898 L-1.28955,-5.7373 L2.40576,-0.404297 C1.92985,-0.488281 1.35946,-0.568766 0.69458,-0.645752 C0.0297038,-0.722738 -0.687663,-0.76123 -1.45752,-0.76123 C-2.28337,-0.76123 -3.03573,-0.722738 -3.7146,-0.645752 C-4.39347,-0.568766 -4.97087,-0.488281 -5.44678,-0.404297 L-1.75146,-5.7373 M0.348145,5.66357 L0.348145,3.375 C0.348145,2.80111 0.204671,2.3007 -0.0822754,1.87378 C-0.369222,1.44686 -0.827637,1.2334 -1.45752,1.2334 C-2.1154,1.2334 -2.59481,1.44686 -2.89575,1.87378 C-3.1967,2.3007 -3.34717,2.80111 -3.34717,3.375 L-3.34717,5.66357 L-4.62793,5.66357 L-4.62793,-0.152344 C-3.83008,-0.320313 -2.77327,-0.404297 -1.45752,-0.404297 C-0.253743,-0.404297 0.768066,-0.320313 1.60791,-0.152344 L1.60791,5.66357 L0.348145,5.66357 M-1.45752,7.55322 L3.05664,7.55322 L3.05664,18.2192 L0.0961914,18.2192 L0.0961914,14.4189 C0.0961914,14.139 -0.0262858,13.8136 -0.27124,13.4426 C-0.516195,13.0717 -0.911621,12.8862 -1.45752,12.8862 C-2.05941,12.8862 -2.48283,13.0717 -2.72778,13.4426 C-2.97274,13.8136 -3.09521,14.139 -3.09521,14.4189 L-3.09521,18.2192 L-6.05566,18.2192 L-6.05566,7.55322 L-1.45752,7.55322 M-6.53857,6.0835 L3.58154,6.0835 L3.58154,7.1123 L-6.53857,7.1123 L-6.53857,6.0835 M6.58398,12.9702 L6.58398,18.2192 L3.95947,18.2192 L3.95947,11.7944 L6.58398,12.9702"/>
</g>

<g fill="#a61215" fill-opacity="1" stroke="none" transform="matrix(1,0,0,1,0,0)"
font-family="MS Shell Dlg 2" font-size="7.8" font-weight="400" font-style="normal" 
>
</g>
</g>
</svg>
