<?xml version="1.0" encoding="UTF-8" standalone="no"?>
<svg width="11.2889mm" height="11.2889mm"
 viewBox="0 0 32 32"
 xmlns="http://www.w3.org/2000/svg" xmlns:xlink="http://www.w3.org/1999/xlink"  version="1.2" baseProfile="tiny">
<title>Qt SVG Document</title>
<desc>Generated with Qt</desc>
<defs>
</defs>
<g fill="none" stroke="black" stroke-width="1" fill-rule="evenodd" stroke-linecap="square" stroke-linejoin="bevel" >

<g fill="#a61215" fill-opacity="1" stroke="none" transform="matrix(1,0,0,1,0,0)"
font-family="MS Shell Dlg 2" font-size="7.8" font-weight="400" font-style="normal" 
>
<path vector-effect="non-scaling-stroke" fill-rule="evenodd" d="M37.2598,16 C37.2598,27.7415 27.7415,37.2598 16,37.2598 C4.25851,37.2598 -5.25984,27.7415 -5.25984,16 C-5.25984,4.25851 4.25851,-5.25984 16,-5.25984 C27.7415,-5.25984 37.2598,4.25851 37.2598,16 "/>
</g>

<g fill="#ffffff" fill-opacity="0.94902" stroke="none" transform="matrix(1,0,0,1,17.1339,11.4646)"
font-family="MS Shell Dlg 2" font-size="7.8" font-weight="400" font-style="normal" 
>
<path vector-effect="none" fill-rule="evenodd" d="M10.6782,8.49805 L-5.67773,8.49805 L-4.90088,4.31982 L8.51563,4.31982 L10.6782,8.49805 M-7.12646,1.56934 L-9.49902,1.56934 L-9.49902,-0.110352 L-8.5542,-4.83447 L-8.5542,-7.03906 L-9.24707,-7.03906 L-9.24707,-7.45898 L-8.5542,-7.45898 L-8.5542,-8.48779 L-8.11328,-8.48779 L-8.11328,-7.45898 L-7.39941,-7.45898 L-7.39941,-7.03906 L-8.11328,-7.03906 L-8.11328,-4.83447 L-7.12646,-0.110352 L-7.12646,1.56934 M-6.26563,1.56934 L-6.9585,1.56934 L-6.9585,0.79248 L-6.62256,-1.91602 L-6.26563,0.79248 L-6.26563,1.56934 M-9.75098,1.56934 L-10.4438,1.56934 L-10.4438,0.79248 L-10.1079,-1.91602 L-9.75098,0.79248 L-9.75098,1.56934 M-10.6118,2.43018 L-6.09766,2.43018 L-6.09766,6.20947 L-10.6118,6.20947 L-10.6118,2.43018 M-8.89014,5.43262 L-7.65137,5.43262 L-7.65137,3.29102 L-8.89014,3.29102 L-8.89014,5.43262 M-10.6118,6.81836 L-6.09766,6.81836 L-6.09766,16.5396 L-7.21045,16.5396 L-7.21045,13.7471 C-7.21045,13.3971 -7.31193,13.1067 -7.51489,12.8757 C-7.71785,12.6448 -7.94531,12.5293 -8.19727,12.5293 C-8.51921,12.5293 -8.78866,12.6448 -9.00562,12.8757 C-9.22257,13.1067 -9.33105,13.3971 -9.33105,13.7471 L-9.33105,16.5396 L-10.6118,16.5396 L-10.6118,6.81836 M-8.30225,8.14111 C-8.69417,8.14111 -9.03361,8.28459 -9.32056,8.57153 C-9.6075,8.85848 -9.75098,9.20492 -9.75098,9.61084 C-9.75098,10.0168 -9.6075,10.3457 -9.32056,10.5977 C-9.03361,10.8496 -8.69417,10.9756 -8.30225,10.9756 C-7.92432,10.9756 -7.60588,10.8496 -7.34692,10.5977 C-7.08797,10.3457 -6.9585,10.0168 -6.9585,9.61084 C-6.9585,9.20492 -7.08797,8.85848 -7.34692,8.57153 C-7.60588,8.28459 -7.92432,8.14111 -8.30225,8.14111 M-5.67773,9.61084 L10.6782,9.61084 L10.6782,16.5396 L9.29248,16.5396 L9.29248,12.6133 C9.29248,12.1934 9.163,11.8154 8.90405,11.4795 C8.6451,11.1436 8.31966,10.9756 7.92773,10.9756 C7.52181,10.9756 7.19637,11.1436 6.95142,11.4795 C6.70646,11.8154 6.58398,12.1934 6.58398,12.6133 L6.58398,16.5396 L5.55518,16.5396 L5.55518,12.6133 C5.55518,12.1934 5.4117,11.8154 5.12476,11.4795 C4.83781,11.1436 4.49137,10.9756 4.08545,10.9756 C3.74951,10.9756 3.43807,11.1436 3.15112,11.4795 C2.86418,11.8154 2.7207,12.1934 2.7207,12.6133 L2.7207,16.5396 L1.69189,16.5396 L1.69189,12.6133 C1.69189,12.1934 1.56242,11.8154 1.30347,11.4795 C1.04451,11.1436 0.712077,10.9756 0.306152,10.9756 C-0.0717773,10.9756 -0.386719,11.1436 -0.638672,11.4795 C-0.890625,11.8154 -1.0166,12.1934 -1.0166,12.6133 L-1.0166,16.5396 L-2.06641,16.5396 L-2.06641,12.6133 C-2.06641,12.1934 -2.19238,11.8154 -2.44434,11.4795 C-2.69629,11.1436 -3.02523,10.9756 -3.43115,10.9756 C-3.83708,10.9756 -4.16951,11.1436 -4.42847,11.4795 C-4.68742,11.8154 -4.81689,12.1934 -4.81689,12.6133 L-4.81689,16.5396 L-5.67773,16.5396 L-5.67773,9.61084 M-8.51221,9.8208 C-8.51221,9.8208 -8.5262,9.8068 -8.5542,9.77881 C-8.63818,9.8348 -8.73617,9.89779 -8.84814,9.96777 C-8.96012,10.0378 -9.12109,10.1497 -9.33105,10.3037 C-9.44303,10.1917 -9.49902,10.0728 -9.49902,9.94678 C-9.49902,9.89079 -9.51302,9.8348 -9.54102,9.77881 C-9.56901,9.72282 -9.58301,9.66683 -9.58301,9.61084 L-8.63818,9.61084 L-8.63818,9.52686 C-8.72217,9.47087 -8.82715,9.42188 -8.95313,9.37988 C-9.0791,9.33789 -9.26107,9.2679 -9.49902,9.16992 C-9.49902,9.11393 -9.44303,9.02995 -9.33105,8.91797 C-9.24707,8.75 -9.15609,8.66602 -9.05811,8.66602 L-8.51221,9.35889 C-8.48421,9.35889 -8.47021,9.35189 -8.47021,9.33789 C-8.47021,9.32389 -8.45622,9.31689 -8.42822,9.31689 C-8.45622,9.21891 -8.48421,9.09993 -8.51221,8.95996 C-8.5402,8.81999 -8.58219,8.63802 -8.63818,8.41406 C-8.58219,8.35807 -8.47021,8.33008 -8.30225,8.33008 C-8.23226,8.33008 -8.16927,8.33008 -8.11328,8.33008 C-8.05729,8.33008 -8.0013,8.35807 -7.94531,8.41406 L-8.19727,9.31689 C-8.19727,9.31689 -8.16927,9.33089 -8.11328,9.35889 C-8.05729,9.3029 -7.9943,9.20841 -7.92432,9.07544 C-7.85433,8.94246 -7.76335,8.77799 -7.65137,8.58203 C-7.59538,8.63802 -7.55339,8.67301 -7.52539,8.68701 C-7.4974,8.70101 -7.4554,8.75 -7.39941,8.83398 C-7.27344,8.94596 -7.21045,9.02995 -7.21045,9.08594 L-8.07129,9.52686 C-8.07129,9.52686 -8.05729,9.55485 -8.0293,9.61084 C-7.94531,9.61084 -7.83333,9.60384 -7.69336,9.58984 C-7.55339,9.57585 -7.36442,9.55485 -7.12646,9.52686 C-7.07048,9.58285 -7.05648,9.63184 -7.08447,9.67383 C-7.11247,9.71582 -7.12646,9.77881 -7.12646,9.86279 C-7.12646,9.91878 -7.14046,9.96777 -7.16846,10.0098 C-7.19645,10.0518 -7.21045,10.1217 -7.21045,10.2197 L-8.07129,9.73682 C-8.07129,9.76481 -8.07829,9.77881 -8.09229,9.77881 C-8.10628,9.77881 -8.11328,9.79281 -8.11328,9.8208 C-8.05729,9.87679 -7.97331,9.95728 -7.86133,10.0623 C-7.74935,10.1672 -7.62337,10.3037 -7.4834,10.4717 C-7.59538,10.5837 -7.66536,10.6676 -7.69336,10.7236 C-7.77734,10.7236 -7.84033,10.7376 -7.88232,10.7656 C-7.92432,10.7936 -7.97331,10.8076 -8.0293,10.8076 L-8.23926,9.86279 L-8.30225,9.86279 L-8.34424,9.86279 C-8.40023,10.0448 -8.44222,10.3597 -8.47021,10.8076 C-8.58219,10.8076 -8.69417,10.7796 -8.80615,10.7236 C-8.86214,10.7236 -8.94613,10.6676 -9.05811,10.5557 L-8.51221,9.8208"/>
</g>

<g fill="#a61215" fill-opacity="1" stroke="none" transform="matrix(1,0,0,1,0,0)"
font-family="MS Shell Dlg 2" font-size="7.8" font-weight="400" font-style="normal" 
>
</g>
</g>
</svg>
