<?xml version="1.0" encoding="UTF-8" standalone="no"?>
<svg width="11.25008mm" height="11.25008mm"
 viewBox="-5.3 -5.3 42.52000 42.52000"
 xmlns="http://www.w3.org/2000/svg" xmlns:xlink="http://www.w3.org/1999/xlink"  version="1.2" baseProfile="tiny">
<title>Qt SVG Document</title>
<desc>Generated with Qt</desc>
<defs>
</defs>
<g fill="none" stroke="black" stroke-width="1" fill-rule="evenodd" stroke-linecap="square" stroke-linejoin="bevel" >

<g fill="#a61215" fill-opacity="1" stroke="none" transform="matrix(1,0,0,1,0,0)"
font-family="MS Shell Dlg 2" font-size="7.8" font-weight="400" font-style="normal" 
>
<path vector-effect="non-scaling-stroke" fill-rule="evenodd" d="M37.2598,16 C37.2598,27.7415 27.7415,37.2598 16,37.2598 C4.25851,37.2598 -5.25984,27.7415 -5.25984,16 C-5.25984,4.25851 4.25851,-5.25984 16,-5.25984 C27.7415,-5.25984 37.2598,4.25851 37.2598,16 "/>
</g>

<g fill="#ffffff" fill-opacity="0.94902" stroke="none" transform="matrix(1,0,0,1,16.5669,12.0315)"
font-family="MS Shell Dlg 2" font-size="7.8" font-weight="400" font-style="normal" 
>
<path vector-effect="none" fill-rule="evenodd" d="M11.2661,1.69531 L11.2661,4.52979 L7.36084,7.07031 L11.2661,5.78955 L11.2661,9.52686 L7.61279,11.2905 L11.2661,10.0308 L11.2661,15.1118 L10.6782,12.1514 L10.6782,15.3638 L1.41895,14.7759 L1.77588,14.6919 L1.25098,14.7759 L-5.57275,14.7759 L-6.18164,15.1118 L-7.21045,15.1118 L-8.63818,15.1118 L-11.7666,14.7759 L-12.2915,10.5557 L-10.9478,9.77881 L-12.8164,9.77881 L-10.9478,4.4458 L-12.6274,7.32227 L-11.7666,2.89209 L-12.0396,1.69531 L-8.89014,-1.43311 L-12.4595,-0.488281 L-10.9478,-2.86084 L-7.73535,-6.68213 L-1.20557,-8.02588 L1.69189,-7.85791 L-1.79346,-3.6377 L3.66553,-8.02588 L7.88574,-7.03906 L4.48438,-3.02881 L8.30566,-6.26221 L9.77539,-2.69287 L6.62598,0.876465 L8.99854,-1.09717 L10.3633,-1.09717 L11.2661,1.69531 M6.29004,13.3481 L6.54199,13.2642 L5.26123,7.97314 L5.26123,4.65576 L4.65234,5.18066 L5.07227,2.22021 L3.74951,1.69531 L2.63672,-0.845215 L0.26416,-1.34912 L2.36377,-3.72168 L-0.155762,-2.16797 L-2.78027,-1.51709 L-5.76172,-0.236328 L-7.9873,3.41699 L-6.43359,1.7793 L-7.73535,7.88916 L-8.47021,8.49805 L-7.4834,8.33008 L-8.72217,11.1226 L-8.11328,11.5425 L-7.65137,14.6919 L-4.50195,13.0122 L1.60791,12.9282 L6.29004,13.3481"/>
</g>

<g fill="#a61215" fill-opacity="1" stroke="none" transform="matrix(1,0,0,1,0,0)"
font-family="MS Shell Dlg 2" font-size="7.8" font-weight="400" font-style="normal" 
>
</g>
</g>
</svg>
