<?xml version="1.0" encoding="UTF-8" standalone="no"?>
<svg width="11.2889mm" height="11.2889mm"
 viewBox="0 0 32 32"
 xmlns="http://www.w3.org/2000/svg" xmlns:xlink="http://www.w3.org/1999/xlink"  version="1.2" baseProfile="tiny">
<title>Qt SVG Document</title>
<desc>Generated with Qt</desc>
<defs>
</defs>
<g fill="none" stroke="black" stroke-width="1" fill-rule="evenodd" stroke-linecap="square" stroke-linejoin="bevel" >

<g fill="#a61215" fill-opacity="1" stroke="none" transform="matrix(1,0,0,1,0,0)"
font-family="MS Shell Dlg 2" font-size="7.8" font-weight="400" font-style="normal" 
>
<path vector-effect="non-scaling-stroke" fill-rule="evenodd" d="M37.2598,16 C37.2598,27.7415 27.7415,37.2598 16,37.2598 C4.25851,37.2598 -5.25984,27.7415 -5.25984,16 C-5.25984,4.25851 4.25851,-5.25984 16,-5.25984 C27.7415,-5.25984 37.2598,4.25851 37.2598,16 "/>
</g>

<g fill="#ffffff" fill-opacity="0.94902" stroke="none" transform="matrix(1,0,0,1,16.5669,12.0315)"
font-family="MS Shell Dlg 2" font-size="7.8" font-weight="400" font-style="normal" 
>
<path vector-effect="none" fill-rule="evenodd" d="M-11.4307,3.71094 L-11.4307,-2.37793 L-12.6694,-2.12598 L-13.3203,-2.94482 L-5.44678,-7.71094 L-2.73828,-5.94727 L-2.73828,-8.4458 L-1.79346,-8.4458 L-1.79346,-5.40137 L2.27979,-2.94482 L1.69189,-2.12598 L0.390137,-2.37793 L0.390137,-0.0263672 L-4.54395,2.99707 L-8.19727,2.99707 L-8.19727,3.71094 L-11.4307,3.71094 M-4.54395,-2.37793 L-6.47559,-2.37793 L-6.47559,1.90527 L-4.54395,1.90527 L-4.54395,-2.37793 M-3.34717,0.141602 L-1.28955,0.141602 L-1.28955,-2.04199 L-3.34717,-2.04199 L-3.34717,0.141602 M-6.83252,-4.58252 L-4.20801,-4.58252 L-5.44678,-5.94727 L-6.83252,-4.58252 M-9.75098,0.141602 L-7.65137,0.141602 L-7.65137,-2.04199 L-9.75098,-2.04199 L-9.75098,0.141602 M13.6387,6.86035 L12.7358,7.93115 L11.0142,7.59521 L11.0142,16.1826 L6.41602,16.1826 L6.41602,15.5527 L-1.16357,15.5527 L-1.16357,16.1826 L-5.67773,16.1826 L-5.67773,7.59521 L-7.4834,7.93115 L-8.30225,6.86035 L2.67871,0.141602 L6.58398,2.55615 L6.58398,-0.845215 L7.78076,-0.845215 L7.78076,3.29102 L13.6387,6.86035 M2.67871,2.55615 C2.10482,2.55615 1.6394,2.74862 1.28247,3.13354 C0.925537,3.51847 0.74707,3.95589 0.74707,4.4458 L4.48438,4.4458 C4.48438,3.95589 4.30591,3.51847 3.94897,3.13354 C3.59204,2.74862 3.16862,2.55615 2.67871,2.55615 M1.20898,7.59521 L1.20898,13.7051 L4.04346,13.7051 L4.04346,7.59521 L1.20898,7.59521 M-0.428711,8.09912 L-3.26318,8.09912 L-3.26318,12.4033 L-0.428711,12.4033 L-0.428711,8.09912 M4.8623,14.6079 L0.390137,14.6079 L0.390137,15.0698 L4.8623,15.0698 L4.8623,14.6079 M8.59961,8.09912 L5.68115,8.09912 L5.68115,12.4033 L8.59961,12.4033 L8.59961,8.09912"/>
</g>

<g fill="#a61215" fill-opacity="1" stroke="none" transform="matrix(1,0,0,1,0,0)"
font-family="MS Shell Dlg 2" font-size="7.8" font-weight="400" font-style="normal" 
>
</g>
</g>
</svg>
