<?xml version="1.0" encoding="UTF-8" standalone="no"?>
<svg width="11.2889mm" height="11.2889mm"
 viewBox="0 0 32 32"
 xmlns="http://www.w3.org/2000/svg" xmlns:xlink="http://www.w3.org/1999/xlink"  version="1.2" baseProfile="tiny">
<title>Qt SVG Document</title>
<desc>Generated with Qt</desc>
<defs>
</defs>
<g fill="none" stroke="black" stroke-width="1" fill-rule="evenodd" stroke-linecap="square" stroke-linejoin="bevel" >

<g fill="#a61215" fill-opacity="1" stroke="none" transform="matrix(1,0,0,1,0,0)"
font-family="MS Shell Dlg 2" font-size="7.8" font-weight="400" font-style="normal" 
>
<path vector-effect="non-scaling-stroke" fill-rule="evenodd" d="M37.2598,16 C37.2598,27.7415 27.7415,37.2598 16,37.2598 C4.25851,37.2598 -5.25984,27.7415 -5.25984,16 C-5.25984,4.25851 4.25851,-5.25984 16,-5.25984 C27.7415,-5.25984 37.2598,4.25851 37.2598,16 "/>
</g>

<g fill="#ffffff" fill-opacity="0.94902" stroke="none" transform="matrix(1,0,0,1,16,12.0315)"
font-family="MS Shell Dlg 2" font-size="7.8" font-weight="400" font-style="normal" 
>
<path vector-effect="none" fill-rule="evenodd" d="M10.0903,-7.87891 C10.5243,-7.87891 10.9302,-7.79492 11.3081,-7.62695 C11.686,-7.45898 12.0185,-7.23153 12.3054,-6.94458 C12.5924,-6.65763 12.8198,-6.3252 12.9878,-5.94727 C13.1558,-5.56934 13.2397,-5.16341 13.2397,-4.72949 L13.2397,15.3428 C13.2397,15.7767 13.1558,16.1826 12.9878,16.5605 C12.8198,16.9385 12.5924,17.2709 12.3054,17.5579 C12.0185,17.8448 11.686,18.0723 11.3081,18.2402 C10.9302,18.4082 10.5243,18.4922 10.0903,18.4922 L-9.98193,18.4922 C-10.4159,18.4922 -10.8218,18.4082 -11.1997,18.2402 C-11.5776,18.0723 -11.9101,17.8448 -12.197,17.5579 C-12.484,17.2709 -12.7114,16.9385 -12.8794,16.5605 C-13.0474,16.1826 -13.1313,15.7767 -13.1313,15.3428 L-13.1313,-4.72949 C-13.1313,-5.16341 -13.0474,-5.56934 -12.8794,-5.94727 C-12.7114,-6.3252 -12.484,-6.65763 -12.197,-6.94458 C-11.9101,-7.23153 -11.5776,-7.45898 -11.1997,-7.62695 C-10.8218,-7.79492 -10.4159,-7.87891 -9.98193,-7.87891 L10.0903,-7.87891 M-0.722656,-5.46436 L0.600098,0.0996094 L1.96484,0.0996094 L2.51074,-2.29395 C2.58073,-2.57389 2.64022,-2.85034 2.68921,-3.12329 C2.7382,-3.39624 2.78369,-3.69368 2.82568,-4.01563 L2.84668,-4.01563 C2.90267,-3.41374 2.99365,-2.83984 3.11963,-2.29395 L3.58154,0.0996094 L4.96729,0.0996094 L6.39502,-5.46436 L5.11426,-5.46436 L4.65234,-3.17578 C4.59635,-2.85384 4.54036,-2.5284 4.48438,-2.19946 C4.42839,-1.87052 4.37939,-1.55908 4.3374,-1.26514 L4.31641,-1.26514 C4.27441,-1.55908 4.23242,-1.86003 4.19043,-2.16797 C4.14844,-2.47591 4.09245,-2.79085 4.02246,-3.11279 L3.58154,-5.46436 L2.2168,-5.46436 L1.75488,-3.17578 C1.6849,-2.83984 1.62191,-2.50391 1.56592,-2.16797 C1.50993,-1.83203 1.45394,-1.52409 1.39795,-1.24414 L1.37695,-1.24414 C1.33496,-1.51009 1.28597,-1.81453 1.22998,-2.15747 C1.17399,-2.50041 1.118,-2.83984 1.06201,-3.17578 L0.621094,-5.46436 L-0.722656,-5.46436 M-4.7959,0.0996094 L-1.22656,0.0996094 L-1.22656,-0.929199 L-3.51514,-0.929199 L-3.51514,-2.25195 L-1.45752,-2.25195 L-1.45752,-3.28076 L-3.51514,-3.28076 L-3.51514,-4.43555 L-1.33154,-4.43555 L-1.33154,-5.46436 L-4.7959,-5.46436 L-4.7959,0.0996094 M-10.4858,0.120605 L-9.33105,0.120605 L-9.33105,-1.58008 C-9.33105,-2.47591 -9.35205,-3.28076 -9.39404,-3.99463 L-9.35205,-3.99463 C-9.22607,-3.67269 -9.0721,-3.34025 -8.89014,-2.99731 C-8.70817,-2.65438 -8.5402,-2.34294 -8.38623,-2.06299 L-7.21045,0.0996094 L-5.8667,0.0996094 L-5.8667,-5.46436 L-7.02148,-5.46436 L-7.02148,-3.84766 C-7.02148,-3.42773 -7.01449,-3.02531 -7.00049,-2.64038 C-6.98649,-2.25545 -6.96549,-1.88102 -6.9375,-1.51709 L-6.9585,-1.51709 C-7.22445,-2.20296 -7.52539,-2.83984 -7.86133,-3.42773 L-9.03711,-5.46436 L-10.5068,-5.46436 L-10.4858,0.120605 M10.5942,2.13623 L-10.4858,2.13623 L-10.4858,14.8179 C-10.4858,15.0978 -10.3844,15.3393 -10.1814,15.5422 C-9.97843,15.7452 -9.73698,15.8467 -9.45703,15.8467 L9.56543,15.8467 C9.84538,15.8467 10.0868,15.7452 10.2898,15.5422 C10.4928,15.3393 10.5942,15.0978 10.5942,14.8179 L10.5942,2.13623 M8.36865,0.183594 C9.13851,0.183594 9.7054,0.015625 10.0693,-0.320313 C10.4333,-0.65625 10.6082,-1.06217 10.5942,-1.53809 C10.5942,-1.94401 10.4788,-2.27645 10.2478,-2.5354 C10.0168,-2.79435 9.65641,-3.01481 9.1665,-3.19678 C8.80257,-3.33675 8.53662,-3.45923 8.36865,-3.56421 C8.20068,-3.66919 8.1167,-3.81266 8.1167,-3.99463 C8.1167,-4.1486 8.17969,-4.27808 8.30566,-4.38306 C8.43164,-4.48804 8.6346,-4.54053 8.91455,-4.54053 C9.1945,-4.54053 9.43245,-4.50903 9.62842,-4.44604 C9.82438,-4.38306 9.97835,-4.32357 10.0903,-4.26758 L10.3843,-5.27539 C10.2163,-5.34538 10.0168,-5.41187 9.78589,-5.47485 C9.55493,-5.53784 9.27848,-5.56934 8.95654,-5.56934 C8.28467,-5.56934 7.76326,-5.40487 7.39233,-5.07593 C7.0214,-4.74699 6.83594,-4.34456 6.83594,-3.86865 C6.83594,-3.46273 6.97941,-3.13029 7.26636,-2.87134 C7.5533,-2.61239 7.92074,-2.39893 8.36865,-2.23096 C8.71859,-2.11898 8.96354,-2.0035 9.10352,-1.88452 C9.24349,-1.76554 9.31348,-1.61507 9.31348,-1.43311 C9.31348,-1.04118 9.01953,-0.845215 8.43164,-0.845215 C8.16569,-0.845215 7.90674,-0.880208 7.65479,-0.950195 C7.40283,-1.02018 7.19287,-1.09717 7.0249,-1.18115 L6.77295,-0.152344 C6.92692,-0.0683594 7.15088,0.0086263 7.44482,0.0786133 C7.73877,0.1486 8.04671,0.183594 8.36865,0.183594 M-9.03711,4.48779 C-9.19108,4.48779 -9.31706,4.4423 -9.41504,4.35132 C-9.51302,4.26034 -9.56201,4.15885 -9.56201,4.04688 C-9.56201,3.9349 -9.51302,3.83691 -9.41504,3.75293 C-9.31706,3.66895 -9.19108,3.62695 -9.03711,3.62695 L-1.05859,3.62695 C-0.91862,3.62695 -0.799642,3.66895 -0.70166,3.75293 C-0.603678,3.83691 -0.554688,3.9349 -0.554688,4.04688 C-0.554688,4.15885 -0.603678,4.26034 -0.70166,4.35132 C-0.799642,4.4423 -0.91862,4.48779 -1.05859,4.48779 L-9.03711,4.48779 M-9.03711,6.46143 C-9.19108,6.46143 -9.31706,6.41943 -9.41504,6.33545 C-9.51302,6.25146 -9.56201,6.14648 -9.56201,6.02051 C-9.56201,5.90853 -9.51302,5.80705 -9.41504,5.71606 C-9.31706,5.62508 -9.19108,5.57959 -9.03711,5.57959 L-1.05859,5.57959 C-0.91862,5.57959 -0.799642,5.62508 -0.70166,5.71606 C-0.603678,5.80705 -0.554688,5.90853 -0.554688,6.02051 C-0.554688,6.14648 -0.603678,6.25146 -0.70166,6.33545 C-0.799642,6.41943 -0.91862,6.46143 -1.05859,6.46143 L-9.03711,6.46143 M-9.03711,8.45605 C-9.19108,8.45605 -9.31706,8.41056 -9.41504,8.31958 C-9.51302,8.2286 -9.56201,8.12712 -9.56201,8.01514 C-9.56201,7.88916 -9.51302,7.78418 -9.41504,7.7002 C-9.31706,7.61621 -9.19108,7.57422 -9.03711,7.57422 L-1.05859,7.57422 C-0.91862,7.57422 -0.799642,7.61621 -0.70166,7.7002 C-0.603678,7.78418 -0.554688,7.88916 -0.554688,8.01514 C-0.554688,8.12712 -0.603678,8.2286 -0.70166,8.31958 C-0.799642,8.41056 -0.91862,8.45605 -1.05859,8.45605 L-9.03711,8.45605 M-9.03711,10.4297 C-9.19108,10.4297 -9.31706,10.3842 -9.41504,10.2932 C-9.51302,10.2022 -9.56201,10.1007 -9.56201,9.98877 C-9.56201,9.87679 -9.51302,9.77531 -9.41504,9.68433 C-9.31706,9.59334 -9.19108,9.54785 -9.03711,9.54785 L-1.05859,9.54785 C-0.91862,9.54785 -0.799642,9.59334 -0.70166,9.68433 C-0.603678,9.77531 -0.554688,9.87679 -0.554688,9.98877 C-0.554688,10.1007 -0.603678,10.2022 -0.70166,10.2932 C-0.799642,10.3842 -0.91862,10.4297 -1.05859,10.4297 L-9.03711,10.4297 M-9.03711,12.4033 C-9.19108,12.4033 -9.31706,12.3613 -9.41504,12.2773 C-9.51302,12.1934 -9.56201,12.0884 -9.56201,11.9624 C-9.56201,11.8504 -9.51302,11.7489 -9.41504,11.658 C-9.31706,11.567 -9.19108,11.5215 -9.03711,11.5215 L-1.05859,11.5215 C-0.91862,11.5215 -0.799642,11.567 -0.70166,11.658 C-0.603678,11.7489 -0.554688,11.8504 -0.554688,11.9624 C-0.554688,12.0884 -0.603678,12.1934 -0.70166,12.2773 C-0.799642,12.3613 -0.91862,12.4033 -1.05859,12.4033 L-9.03711,12.4033 M-9.03711,14.377 C-9.19108,14.377 -9.31706,14.3315 -9.41504,14.2405 C-9.51302,14.1495 -9.56201,14.048 -9.56201,13.936 C-9.56201,13.8101 -9.51302,13.7051 -9.41504,13.6211 C-9.31706,13.5371 -9.19108,13.4951 -9.03711,13.4951 L-1.05859,13.4951 C-0.91862,13.4951 -0.799642,13.5371 -0.70166,13.6211 C-0.603678,13.7051 -0.554688,13.8101 -0.554688,13.936 C-0.554688,14.048 -0.603678,14.1495 -0.70166,14.2405 C-0.799642,14.3315 -0.91862,14.377 -1.05859,14.377 L-9.03711,14.377 M1.16699,4.48779 C1.02702,4.48779 0.90804,4.4423 0.810059,4.35132 C0.712077,4.26034 0.663086,4.15885 0.663086,4.04688 C0.663086,3.9349 0.712077,3.83691 0.810059,3.75293 C0.90804,3.66895 1.02702,3.62695 1.16699,3.62695 L9.1665,3.62695 C9.30648,3.62695 9.42546,3.66895 9.52344,3.75293 C9.62142,3.83691 9.67041,3.9349 9.67041,4.04688 C9.67041,4.15885 9.62142,4.26034 9.52344,4.35132 C9.42546,4.4423 9.30648,4.48779 9.1665,4.48779 L1.16699,4.48779 M1.16699,6.46143 C1.02702,6.46143 0.90804,6.41943 0.810059,6.33545 C0.712077,6.25146 0.663086,6.14648 0.663086,6.02051 C0.663086,5.90853 0.712077,5.80705 0.810059,5.71606 C0.90804,5.62508 1.02702,5.57959 1.16699,5.57959 L9.1665,5.57959 C9.30648,5.57959 9.42546,5.62508 9.52344,5.71606 C9.62142,5.80705 9.67041,5.90853 9.67041,6.02051 C9.67041,6.14648 9.62142,6.25146 9.52344,6.33545 C9.42546,6.41943 9.30648,6.46143 9.1665,6.46143 L1.16699,6.46143 M1.16699,8.45605 C1.02702,8.45605 0.90804,8.41056 0.810059,8.31958 C0.712077,8.2286 0.663086,8.12712 0.663086,8.01514 C0.663086,7.88916 0.712077,7.78418 0.810059,7.7002 C0.90804,7.61621 1.02702,7.57422 1.16699,7.57422 L9.1665,7.57422 C9.30648,7.57422 9.42546,7.61621 9.52344,7.7002 C9.62142,7.78418 9.67041,7.88916 9.67041,8.01514 C9.67041,8.12712 9.62142,8.2286 9.52344,8.31958 C9.42546,8.41056 9.30648,8.45605 9.1665,8.45605 L1.16699,8.45605 M1.16699,10.4297 C1.02702,10.4297 0.90804,10.3842 0.810059,10.2932 C0.712077,10.2022 0.663086,10.1007 0.663086,9.98877 C0.663086,9.87679 0.712077,9.77531 0.810059,9.68433 C0.90804,9.59334 1.02702,9.54785 1.16699,9.54785 L9.1665,9.54785 C9.30648,9.54785 9.42546,9.59334 9.52344,9.68433 C9.62142,9.77531 9.67041,9.87679 9.67041,9.98877 C9.67041,10.1007 9.62142,10.2022 9.52344,10.2932 C9.42546,10.3842 9.30648,10.4297 9.1665,10.4297 L1.16699,10.4297 M1.16699,12.4033 C1.02702,12.4033 0.90804,12.3613 0.810059,12.2773 C0.712077,12.1934 0.663086,12.0884 0.663086,11.9624 C0.663086,11.8504 0.712077,11.7489 0.810059,11.658 C0.90804,11.567 1.02702,11.5215 1.16699,11.5215 L9.1665,11.5215 C9.30648,11.5215 9.42546,11.567 9.52344,11.658 C9.62142,11.7489 9.67041,11.8504 9.67041,11.9624 C9.67041,12.0884 9.62142,12.1934 9.52344,12.2773 C9.42546,12.3613 9.30648,12.4033 9.1665,12.4033 L1.16699,12.4033 M1.16699,14.377 C1.02702,14.377 0.90804,14.3315 0.810059,14.2405 C0.712077,14.1495 0.663086,14.048 0.663086,13.936 C0.663086,13.8101 0.712077,13.7051 0.810059,13.6211 C0.90804,13.5371 1.02702,13.4951 1.16699,13.4951 L9.1665,13.4951 C9.30648,13.4951 9.42546,13.5371 9.52344,13.6211 C9.62142,13.7051 9.67041,13.8101 9.67041,13.936 C9.67041,14.048 9.62142,14.1495 9.52344,14.2405 C9.42546,14.3315 9.30648,14.377 9.1665,14.377 L1.16699,14.377"/>
</g>

<g fill="#a61215" fill-opacity="1" stroke="none" transform="matrix(1,0,0,1,0,0)"
font-family="MS Shell Dlg 2" font-size="7.8" font-weight="400" font-style="normal" 
>
</g>
</g>
</svg>
