<?xml version="1.0" encoding="UTF-8" standalone="no"?>
<svg width="11.2889mm" height="11.2889mm"
 viewBox="0 0 32 32"
 xmlns="http://www.w3.org/2000/svg" xmlns:xlink="http://www.w3.org/1999/xlink"  version="1.2" baseProfile="tiny">
<title>Qt SVG Document</title>
<desc>Generated with Qt</desc>
<defs>
</defs>
<g fill="none" stroke="black" stroke-width="1" fill-rule="evenodd" stroke-linecap="square" stroke-linejoin="bevel" >

<g fill="#ef4b65" fill-opacity="1" stroke="none" transform="matrix(1,0,0,1,0,0)"
font-family="MS Shell Dlg 2" font-size="7.8" font-weight="400" font-style="normal" 
>
<path vector-effect="non-scaling-stroke" fill-rule="evenodd" d="M37.2598,16 C37.2598,27.7415 27.7415,37.2598 16,37.2598 C4.25851,37.2598 -5.25984,27.7415 -5.25984,16 C-5.25984,4.25851 4.25851,-5.25984 16,-5.25984 C27.7415,-5.25984 37.2598,4.25851 37.2598,16 "/>
</g>

<g fill="#ffffff" fill-opacity="0.94902" stroke="none" transform="matrix(1,0,0,1,16.2835,12.5984)"
font-family="MS Shell Dlg 2" font-size="7.8" font-weight="400" font-style="normal" 
>
<path vector-effect="none" fill-rule="evenodd" d="M0.138184,-2.16797 C-0.267741,-2.16797 -0.600179,-2.31144 -0.859131,-2.59839 C-1.11808,-2.88534 -1.24756,-3.23177 -1.24756,-3.6377 C-1.24756,-4.07161 -1.11808,-4.44604 -0.859131,-4.76099 C-0.600179,-5.07593 -0.267741,-5.2334 0.138184,-5.2334 C0.516113,-5.2334 0.845052,-5.07593 1.125,-4.76099 C1.40495,-4.44604 1.54492,-4.07161 1.54492,-3.6377 C1.54492,-3.23177 1.40495,-2.88534 1.125,-2.59839 C0.845052,-2.31144 0.516113,-2.16797 0.138184,-2.16797 M11.749,-1.34912 C12.001,-1.34912 12.2704,-1.39461 12.5574,-1.4856 C12.8443,-1.57658 13.0893,-1.64307 13.2922,-1.68506 C13.4952,-1.72705 13.6177,-1.72005 13.6597,-1.66406 C13.7017,-1.60807 13.6247,-1.4471 13.4287,-1.18115 C13.2188,-0.957194 12.9773,-0.736735 12.7043,-0.519775 C12.4314,-0.302816 12.1165,-0.159342 11.7595,-0.0893555 C11.4026,-0.0193685 10.9757,-0.0473633 10.4788,-0.17334 C9.98185,-0.299316 9.38346,-0.607259 8.68359,-1.09717 C8.54362,-1.18115 8.47363,-1.17415 8.47363,-1.07617 C8.47363,-0.97819 8.55412,-0.841715 8.71509,-0.666748 C8.87606,-0.491781 9.10701,-0.299316 9.40796,-0.0893555 C9.7089,0.120605 10.1183,0.302572 10.6362,0.456543 C10.8322,0.512533 11.0597,0.52653 11.3186,0.498535 C11.5776,0.47054 11.8155,0.449544 12.0325,0.435547 C12.2494,0.421549 12.3999,0.428548 12.4839,0.456543 C12.5679,0.484538 12.5259,0.568522 12.3579,0.708496 C11.952,1.11442 11.5391,1.36637 11.1191,1.46436 C10.6992,1.56234 10.2828,1.59733 9.86987,1.56934 C9.45695,1.54134 9.05802,1.47835 8.6731,1.38037 C8.28817,1.28239 7.94873,1.2334 7.65479,1.2334 C7.29085,1.2334 6.97941,1.32438 6.72046,1.50635 C6.46151,1.68831 6.20256,1.90177 5.9436,2.14673 C5.68465,2.39168 5.39771,2.60864 5.08276,2.79761 C4.76782,2.98657 4.3514,3.08105 3.8335,3.08105 C2.30778,3.08105 1.54492,2.26221 1.54492,0.624512 C1.54492,0.134603 1.6674,-0.376302 1.91235,-0.908203 C2.15731,-1.4401 2.49674,-1.92651 2.93066,-2.36743 C3.36458,-2.80835 3.87549,-3.17228 4.46338,-3.45923 C5.05127,-3.74618 5.67415,-3.88965 6.33203,-3.88965 C6.84993,-3.88965 7.35034,-3.83366 7.83325,-3.72168 C8.31616,-3.6097 8.78158,-3.48722 9.22949,-3.35425 C9.67741,-3.22127 10.0868,-3.10579 10.4578,-3.00781 C10.8287,-2.90983 11.1751,-2.86084 11.4971,-2.86084 C11.889,-2.88883 12.2284,-2.95882 12.5154,-3.0708 C12.8023,-3.18278 13.0403,-3.29826 13.2292,-3.41724 C13.4182,-3.53621 13.5547,-3.6097 13.6387,-3.6377 C13.7227,-3.66569 13.7646,-3.6097 13.7646,-3.46973 C13.7646,-3.28776 13.7087,-3.0603 13.5967,-2.78735 C13.4847,-2.5144 13.2572,-2.28695 12.9143,-2.10498 C12.5714,-1.92301 12.092,-1.83203 11.4761,-1.83203 C10.8602,-1.83203 10.0483,-2 9.04053,-2.33594 C8.83057,-2.43392 8.72559,-2.43742 8.72559,-2.34644 C8.72559,-2.25545 8.83407,-2.13298 9.05103,-1.979 C9.26799,-1.82503 9.60042,-1.68156 10.0483,-1.54858 C10.4963,-1.41561 11.0632,-1.34912 11.749,-1.34912 M-1.24756,0.624512 C-1.24756,1.42236 -1.44702,2.03125 -1.84595,2.45117 C-2.24487,2.87109 -2.80127,3.08105 -3.51514,3.08105 C-4.03304,3.08105 -4.45646,2.98657 -4.7854,2.79761 C-5.11434,2.60864 -5.41528,2.39168 -5.68823,2.14673 C-5.96118,1.90177 -6.22713,1.68831 -6.48608,1.50635 C-6.74504,1.32438 -7.06348,1.2334 -7.44141,1.2334 C-7.74935,1.2334 -8.08879,1.28239 -8.45972,1.38037 C-8.83065,1.47835 -9.22607,1.54134 -9.646,1.56934 C-10.0659,1.59733 -10.4893,1.56234 -10.9163,1.46436 C-11.3432,1.36637 -11.7456,1.11442 -12.1235,0.708496 C-12.2915,0.568522 -12.3335,0.484538 -12.2495,0.456543 C-12.1655,0.428548 -12.0151,0.421549 -11.7981,0.435547 C-11.5811,0.449544 -11.3432,0.47054 -11.0842,0.498535 C-10.8253,0.52653 -10.5978,0.512533 -10.4019,0.456543 C-9.88395,0.302572 -9.47453,0.120605 -9.17358,-0.0893555 C-8.87264,-0.299316 -8.64168,-0.491781 -8.48071,-0.666748 C-8.31974,-0.841715 -8.24976,-0.97819 -8.27075,-1.07617 C-8.29175,-1.17415 -8.35824,-1.18115 -8.47021,-1.09717 C-9.15609,-0.607259 -9.75098,-0.299316 -10.2549,-0.17334 C-10.7588,-0.0473633 -11.1962,-0.0193685 -11.5671,-0.0893555 C-11.9381,-0.159342 -12.253,-0.302816 -12.512,-0.519775 C-12.7709,-0.736735 -12.9984,-0.957194 -13.1943,-1.18115 C-13.4183,-1.4471 -13.5023,-1.60807 -13.4463,-1.66406 C-13.3903,-1.72005 -13.2643,-1.72705 -13.0684,-1.68506 C-12.8724,-1.64307 -12.6309,-1.57658 -12.344,-1.4856 C-12.057,-1.39461 -11.7806,-1.34912 -11.5146,-1.34912 C-10.8288,-1.34912 -10.2619,-1.41561 -9.81396,-1.54858 C-9.36605,-1.68156 -9.03711,-1.82503 -8.82715,-1.979 C-8.61719,-2.13298 -8.51221,-2.25545 -8.51221,-2.34644 C-8.51221,-2.43742 -8.61019,-2.43392 -8.80615,-2.33594 C-9.81396,-2 -10.6258,-1.83203 -11.2417,-1.83203 C-11.8576,-1.83203 -12.337,-1.92301 -12.6799,-2.10498 C-13.0229,-2.28695 -13.2503,-2.5144 -13.3623,-2.78735 C-13.4743,-3.0603 -13.5303,-3.28776 -13.5303,-3.46973 C-13.5303,-3.6097 -13.4813,-3.66569 -13.3833,-3.6377 C-13.2853,-3.6097 -13.1418,-3.53621 -12.9529,-3.41724 C-12.7639,-3.29826 -12.526,-3.18278 -12.239,-3.0708 C-11.9521,-2.95882 -11.6266,-2.88883 -11.2627,-2.86084 C-10.9688,-2.86084 -10.6223,-2.90983 -10.2234,-3.00781 C-9.82446,-3.10579 -9.40454,-3.22127 -8.96362,-3.35425 C-8.52271,-3.48722 -8.06429,-3.6097 -7.58838,-3.72168 C-7.11247,-3.83366 -6.62956,-3.88965 -6.13965,-3.88965 C-5.45378,-3.88965 -4.81689,-3.74618 -4.229,-3.45923 C-3.64111,-3.17228 -3.12671,-2.80835 -2.68579,-2.36743 C-2.24487,-1.92651 -1.89494,-1.4401 -1.63599,-0.908203 C-1.37703,-0.376302 -1.24756,0.134603 -1.24756,0.624512 M-0.386719,10.7236 C-0.386719,10.4717 -0.400716,10.2302 -0.428711,9.99927 C-0.456706,9.76831 -0.470703,9.52686 -0.470703,9.2749 C-0.386719,9.2749 -0.299235,9.25741 -0.208252,9.22241 C-0.117269,9.18742 -0.0297852,9.16992 0.0541992,9.16992 C0.138184,9.16992 0.243164,9.18742 0.369141,9.22241 C0.495117,9.25741 0.607096,9.2749 0.705078,9.2749 C0.705078,9.52686 0.705078,9.76131 0.705078,9.97827 C0.705078,10.1952 0.670085,10.4157 0.600098,10.6396 L0.516113,10.6396 C0.432129,10.6956 0.355143,10.7236 0.285156,10.7236 C0.215169,10.7236 0.138184,10.7516 0.0541992,10.8076 L-0.0297852,10.8076 C-0.0857747,10.8076 -0.127767,10.7936 -0.155762,10.7656 C-0.183757,10.7376 -0.232747,10.7236 -0.302734,10.7236 L-0.386719,10.7236 M-0.197754,15.1118 C-0.141764,15.0558 -0.0997721,15.0278 -0.0717773,15.0278 C-0.0437826,15.0278 -0.00179036,14.9998 0.0541992,14.9438 C0.110189,14.9998 0.173177,15.0418 0.243164,15.0698 C0.313151,15.0978 0.376139,15.1398 0.432129,15.1958 C0.376139,15.7697 0.327148,16.2281 0.285156,16.571 C0.243164,16.914 0.194173,17.0854 0.138184,17.0854 C0.0541992,17.0854 -0.00878906,16.907 -0.0507813,16.55 C-0.0927734,16.1931 -0.141764,15.7137 -0.197754,15.1118 M-0.197754,13.6001 L-0.302734,13.6001 C-0.302734,13.3481 -0.302734,13.0927 -0.302734,12.8337 C-0.302734,12.5748 -0.330729,12.2913 -0.386719,11.9834 C-0.204753,11.9834 -0.0857747,11.9554 -0.0297852,11.8994 C0.0541992,11.9554 0.15918,11.9834 0.285156,11.9834 C0.411133,11.9834 0.516113,12.0114 0.600098,12.0674 C0.544108,12.3193 0.516113,12.5678 0.516113,12.8127 C0.516113,13.0577 0.516113,13.2922 0.516113,13.5161 L0.432129,13.5161 C0.376139,13.5721 0.327148,13.6176 0.285156,13.6526 C0.243164,13.6876 0.194173,13.7331 0.138184,13.7891 C0.082194,13.7891 0.0541992,13.8171 0.0541992,13.873 L-0.197754,13.6001 M-0.554688,6.46143 C-0.288737,6.37744 -0.11377,6.29346 -0.0297852,6.20947 C0.0262044,6.15348 0.0541992,6.11149 0.0541992,6.0835 C0.0541992,6.0555 0.082194,6.01351 0.138184,5.95752 C0.138184,6.0695 0.166178,6.15348 0.222168,6.20947 C0.362142,6.26546 0.551107,6.34945 0.789063,6.46143 C0.789063,6.69938 0.789063,6.90234 0.789063,7.07031 C0.789063,7.23828 0.761068,7.44124 0.705078,7.6792 C0.705078,7.70719 0.684082,7.73519 0.64209,7.76318 L0.600098,7.76318 L0.222168,7.84717 L0.0541992,7.84717 L-0.0297852,7.84717 L-0.386719,7.76318 L-0.470703,7.76318 C-0.470703,7.53923 -0.484701,7.32576 -0.512695,7.1228 C-0.54069,6.91984 -0.554688,6.69938 -0.554688,6.46143 M0.873047,3.66895 C0.761068,3.72493 0.64209,3.81592 0.516113,3.94189 C0.32015,4.13786 0.194173,4.33382 0.138184,4.52979 C0.082194,4.38981 0.0262044,4.27783 -0.0297852,4.19385 C-0.0857747,4.10986 -0.141764,4.02588 -0.197754,3.94189 C-0.295736,3.8859 -0.372721,3.84041 -0.428711,3.80542 C-0.484701,3.77043 -0.554688,3.72493 -0.638672,3.66895 L-0.638672,-0.677246 C-0.638672,-1.06917 -0.551188,-1.36662 -0.376221,-1.56958 C-0.201253,-1.77254 -0.0227865,-1.87402 0.15918,-1.87402 C0.341146,-1.87402 0.519613,-1.77254 0.69458,-1.56958 C0.869548,-1.36662 0.957031,-1.06917 0.957031,-0.677246 C0.957031,-0.43929 0.943034,0.0751139 0.915039,0.865967 C0.887044,1.65682 0.873047,2.59115 0.873047,3.66895 M3.18262,3.75293 C3.33659,3.82292 3.49056,3.87891 3.64453,3.9209 C3.7985,3.96289 3.94548,4.05387 4.08545,4.19385 C4.3514,4.52979 4.52637,4.91471 4.61035,5.34863 C4.61035,5.58659 4.60335,5.80355 4.58936,5.99951 C4.57536,6.19548 4.52637,6.41243 4.44238,6.65039 C4.26042,7.09831 3.97347,7.46924 3.58154,7.76318 C3.09163,8.16911 2.55973,8.41406 1.98584,8.49805 L0.600098,8.05713 C1.09001,7.91715 1.53792,7.77718 1.94385,7.63721 C2.34977,7.49723 2.70671,7.30827 3.01465,7.07031 C3.33659,6.90234 3.55355,6.68188 3.66553,6.40894 C3.77751,6.13599 3.8055,5.86654 3.74951,5.60059 C3.74951,5.34863 3.66903,5.15267 3.50806,5.0127 C3.34709,4.87272 3.18262,4.76774 3.01465,4.69775 C2.93066,4.64176 2.83268,4.61377 2.7207,4.61377 C2.60872,4.61377 2.50374,4.61377 2.40576,4.61377 C2.50374,5.07568 2.41976,5.43962 2.15381,5.70557 C1.92985,5.95752 1.6464,6.13249 1.30347,6.23047 C0.960531,6.32845 0.670085,6.26546 0.432129,6.0415 C0.208171,5.78955 0.131185,5.46061 0.201172,5.05469 C0.271159,4.64876 0.404134,4.33382 0.600098,4.10986 C1.00602,3.70394 1.43994,3.64795 1.90186,3.94189 C2.26579,3.73193 2.69271,3.66895 3.18262,3.75293 M-0.11377,14.7759 C-0.295736,14.9159 -0.428711,15.0558 -0.512695,15.1958 C-0.59668,15.3358 -0.666667,15.4827 -0.722656,15.6367 C-0.834635,15.8607 -0.890625,16.0007 -0.890625,16.0566 C-0.91862,16.1406 -0.91862,16.1966 -0.890625,16.2246 C-0.946615,16.2246 -0.981608,16.1686 -0.995605,16.0566 C-1.0096,15.9447 -0.974609,15.7767 -0.890625,15.5527 C-0.890625,15.2588 -0.778646,14.9998 -0.554688,14.7759 C-0.554688,14.7199 -0.54069,14.6919 -0.512695,14.6919 C-0.484701,14.6919 -0.442708,14.6639 -0.386719,14.6079 L-0.11377,14.7759 M1.54492,11.7104 C1.78288,11.9484 1.90186,12.2633 1.90186,12.6553 C1.95785,12.8372 1.93685,13.0052 1.83887,13.1592 C1.74089,13.3132 1.6429,13.4321 1.54492,13.5161 C1.37695,13.6981 1.21598,13.8381 1.06201,13.936 C0.90804,14.034 0.754069,14.139 0.600098,14.251 L0.222168,13.957 C0.418132,13.8171 0.603597,13.6946 0.778564,13.5896 C0.953532,13.4846 1.125,13.3481 1.29297,13.1802 C1.37695,13.0962 1.42594,13.0262 1.43994,12.9702 C1.45394,12.9142 1.46094,12.8092 1.46094,12.6553 C1.46094,12.5713 1.43994,12.4803 1.39795,12.3823 C1.35596,12.2843 1.29297,12.2074 1.20898,12.1514 C1.04102,11.9834 0.806559,11.8609 0.505615,11.7839 C0.204671,11.7069 -0.120768,11.6265 -0.470703,11.5425 C-0.638672,11.4865 -0.81014,11.4375 -0.985107,11.3955 C-1.16007,11.3535 -1.33154,11.2905 -1.49951,11.2065 C-1.5835,11.1506 -1.67448,11.0771 -1.77246,10.9861 C-1.87044,10.8951 -1.95443,10.8076 -2.02441,10.7236 C-2.19238,10.4717 -2.27637,10.2127 -2.27637,9.94678 C-2.33236,9.86279 -2.34635,9.76481 -2.31836,9.65283 C-2.29036,9.54085 -2.24837,9.41488 -2.19238,9.2749 C-2.13639,9.17692 -2.0769,9.09294 -2.01392,9.02295 C-1.95093,8.95296 -1.89144,8.88997 -1.83545,8.83398 C-1.77946,8.83398 -1.75146,8.81999 -1.75146,8.79199 L-1.75146,8.75 L-0.554688,9.00195 C-0.610677,9.05794 -0.652669,9.08594 -0.680664,9.08594 L-0.722656,9.08594 C-0.86263,9.14193 -0.992106,9.18742 -1.11108,9.22241 C-1.23006,9.25741 -1.33154,9.3029 -1.41553,9.35889 C-1.66748,9.52686 -1.75146,9.69482 -1.66748,9.86279 C-1.66748,10.2127 -1.53101,10.4647 -1.25806,10.6187 C-0.985107,10.7726 -0.694661,10.8916 -0.386719,10.9756 C-0.00878906,11.1016 0.330648,11.1995 0.631592,11.2695 C0.932536,11.3395 1.23698,11.4865 1.54492,11.7104 M0.789063,14.8599 C0.873047,14.9998 0.936035,15.1258 0.978027,15.2378 C1.02002,15.3498 1.06901,15.4548 1.125,15.5527 C1.15299,15.6927 1.16699,15.8607 1.16699,16.0566 C1.16699,16.1406 1.15299,16.1966 1.125,16.2246 C1.09701,16.2246 1.04102,16.0286 0.957031,15.6367 C0.873047,15.4548 0.736572,15.2518 0.547607,15.0278 C0.358643,14.8039 0.110189,14.6009 -0.197754,14.4189 C-0.37972,14.279 -0.568685,14.153 -0.764648,14.041 C-0.960612,13.929 -1.17757,13.7821 -1.41553,13.6001 C-1.49951,13.4601 -1.5765,13.3132 -1.64648,13.1592 C-1.71647,13.0052 -1.75146,12.8372 -1.75146,12.6553 C-1.75146,12.2633 -1.61149,11.9204 -1.33154,11.6265 L-1.24756,11.6265 L-0.470703,11.7944 C-0.722656,11.8924 -0.890625,11.9834 -0.974609,12.0674 C-1.21257,12.2074 -1.33154,12.4033 -1.33154,12.6553 C-1.33154,12.8932 -1.24056,13.0962 -1.05859,13.2642 C-0.91862,13.4321 -0.75765,13.5686 -0.575684,13.6736 C-0.393717,13.7786 -0.211751,13.901 -0.0297852,14.041 C0.334147,14.321 0.607096,14.5939 0.789063,14.8599 M1.98584,8.83398 C2.1818,8.94596 2.32178,9.12093 2.40576,9.35889 C2.47575,9.44287 2.51074,9.54085 2.51074,9.65283 C2.51074,9.76481 2.51074,9.86279 2.51074,9.94678 C2.51074,10.2407 2.41976,10.4717 2.23779,10.6396 C2.15381,10.7796 2.06982,10.8811 1.98584,10.9441 C1.90186,11.0071 1.81787,11.0666 1.73389,11.1226 C1.60791,11.2345 1.48893,11.2905 1.37695,11.2905 C1.23698,11.2345 1.09701,11.1681 0.957031,11.0911 C0.817057,11.0141 0.670085,10.9476 0.516113,10.8916 L0.600098,10.8916 C0.922038,10.8076 1.21948,10.6956 1.49243,10.5557 C1.76538,10.4157 1.90186,10.1847 1.90186,9.86279 C1.90186,9.63883 1.84587,9.49886 1.73389,9.44287 C1.49593,9.3029 1.26497,9.18392 1.04102,9.08594 C0.775065,9.02995 0.509115,8.98096 0.243164,8.93896 C-0.0227865,8.89697 -0.288737,8.83398 -0.554688,8.75 C-1.0446,8.66602 -1.51701,8.56453 -1.97192,8.44556 C-2.42684,8.32658 -2.85726,8.12712 -3.26318,7.84717 C-3.43115,7.70719 -3.59562,7.54972 -3.75659,7.37476 C-3.91756,7.19979 -4.04004,6.98633 -4.12402,6.73438 C-4.264,6.49642 -4.34098,6.27946 -4.35498,6.0835 C-4.36898,5.88753 -4.37598,5.69857 -4.37598,5.5166 C-4.31999,5.29264 -4.271,5.07218 -4.229,4.85522 C-4.18701,4.63826 -4.09603,4.4458 -3.95605,4.27783 C-3.80208,4.13786 -3.65511,4.03288 -3.51514,3.96289 C-3.37516,3.8929 -3.23519,3.82292 -3.09521,3.75293 C-2.77327,3.66895 -2.49683,3.64795 -2.26587,3.68994 C-2.03491,3.73193 -1.83545,3.78792 -1.66748,3.85791 C-1.17757,3.64795 -0.750651,3.73193 -0.386719,4.10986 C-0.204753,4.33382 -0.0717773,4.64876 0.012207,5.05469 C0.0961914,5.46061 0.0262044,5.78955 -0.197754,6.0415 C-0.37972,6.26546 -0.656169,6.32845 -1.0271,6.23047 C-1.39803,6.13249 -1.69548,5.95752 -1.91943,5.70557 C-2.18538,5.43962 -2.27637,5.07568 -2.19238,4.61377 L-2.78027,4.61377 C-2.99023,4.73975 -3.1512,4.85872 -3.26318,4.9707 C-3.37516,5.08268 -3.45915,5.26465 -3.51514,5.5166 C-3.51514,5.67057 -3.51514,5.80355 -3.51514,5.91553 C-3.51514,6.02751 -3.48714,6.15348 -3.43115,6.29346 C-3.34717,6.55941 -3.1792,6.81836 -2.92725,7.07031 C-2.60531,7.30827 -2.23787,7.49723 -1.82495,7.63721 C-1.41203,7.77718 -0.960612,7.91715 -0.470703,8.05713 C-0.204753,8.11312 0.0646973,8.16211 0.337646,8.2041 C0.610596,8.24609 0.873047,8.31608 1.125,8.41406 C1.29297,8.47005 1.44344,8.53304 1.57642,8.60303 C1.70939,8.67301 1.84587,8.75 1.98584,8.83398 "/>
</g>

<g fill="#ef4b65" fill-opacity="1" stroke="none" transform="matrix(1,0,0,1,0,0)"
font-family="MS Shell Dlg 2" font-size="7.8" font-weight="400" font-style="normal" 
>
</g>
</g>
</svg>
