<?xml version="1.0" encoding="UTF-8" standalone="no"?>
<svg width="11.25008mm" height="11.25008mm"
 viewBox="-5.3 -5.3 42.52000 42.52000"
 xmlns="http://www.w3.org/2000/svg" xmlns:xlink="http://www.w3.org/1999/xlink"  version="1.2" baseProfile="tiny">
<title>Qt SVG Document</title>
<desc>Generated with Qt</desc>
<defs>
</defs>
<g fill="none" stroke="black" stroke-width="1" fill-rule="evenodd" stroke-linecap="square" stroke-linejoin="bevel" >

<g fill="#ef4b65" fill-opacity="1" stroke="none" transform="matrix(1,0,0,1,0,0)"
font-family="MS Shell Dlg 2" font-size="7.8" font-weight="400" font-style="normal" 
>
<path vector-effect="non-scaling-stroke" fill-rule="evenodd" d="M37.2598,16 C37.2598,27.7415 27.7415,37.2598 16,37.2598 C4.25851,37.2598 -5.25984,27.7415 -5.25984,16 C-5.25984,4.25851 4.25851,-5.25984 16,-5.25984 C27.7415,-5.25984 37.2598,4.25851 37.2598,16 "/>
</g>

<g fill="#ffffff" fill-opacity="0.94902" stroke="none" transform="matrix(1,0,0,1,16,12.5984)"
font-family="MS Shell Dlg 2" font-size="7.8" font-weight="400" font-style="normal" 
>
<path vector-effect="none" fill-rule="evenodd" d="M-4.90088,9.86279 L-3.47314,9.86279 L-3.47314,14.167 L-7.77734,14.167 L-7.77734,9.86279 L-6.34961,9.86279 L-6.34961,10.8916 L-4.90088,10.8916 L-4.90088,9.86279 M0.74707,9.86279 L2.15381,9.86279 L2.15381,14.167 L-2.1084,14.167 L-2.1084,9.86279 L-0.680664,9.86279 L-0.680664,10.8916 L0.74707,10.8916 L0.74707,9.86279 M7.78076,9.86279 L7.78076,14.167 L3.53955,14.167 L3.53955,9.86279 L4.94629,9.86279 L4.94629,10.8916 L6.37402,10.8916 L6.37402,9.86279 L7.78076,9.86279 M4.94629,8.91797 L0.64209,8.91797 L0.64209,4.65576 L2.06982,4.65576 L2.06982,5.70557 L3.53955,5.70557 L3.53955,4.65576 L4.94629,4.65576 L4.94629,8.91797 M-0.59668,8.91797 L-4.90088,8.91797 L-4.90088,4.65576 L-3.47314,4.65576 L-3.47314,5.70557 L-2.02441,5.70557 L-2.02441,4.65576 L-0.59668,4.65576 L-0.59668,8.91797 M-11.0107,11.8364 L-11.0107,-1.39111 L-11.9556,-1.39111 L-11.9556,-4.49854 L-0.554688,-7.85791 C-0.176758,-8.05387 0.208171,-8.05387 0.600098,-7.85791 L12.001,-4.49854 L12.001,-1.39111 L11.0142,-1.39111 L11.0142,11.8364 L11.665,11.8364 L12.2529,14.167 L9.25049,14.167 L9.25049,0.141602 L-9.20508,0.141602 L-9.20508,14.167 L-12.2075,14.167 L-11.5986,11.8364 L-11.0107,11.8364 M6.29004,-1.79004 L10.3213,-1.79004 L10.3213,-3.5957 L6.29004,-3.5957 L6.29004,-1.79004 M0.789063,-1.79004 L4.82031,-1.79004 L4.82031,-3.5957 L0.789063,-3.5957 L0.789063,-1.79004 M-4.7749,-1.79004 L-0.722656,-1.79004 L-0.722656,-3.5957 L-4.7749,-3.5957 L-4.7749,-1.79004 M-10.2759,-1.79004 L-6.26563,-1.79004 L-6.26563,-3.5957 L-10.2759,-3.5957 L-10.2759,-1.79004"/>
</g>

<g fill="#ef4b65" fill-opacity="1" stroke="none" transform="matrix(1,0,0,1,0,0)"
font-family="MS Shell Dlg 2" font-size="7.8" font-weight="400" font-style="normal" 
>
</g>
</g>
</svg>
