<?xml version="1.0" encoding="UTF-8" standalone="no"?>
<svg width="11.2889mm" height="11.2889mm"
 viewBox="0 0 32 32"
 xmlns="http://www.w3.org/2000/svg" xmlns:xlink="http://www.w3.org/1999/xlink"  version="1.2" baseProfile="tiny">
<title>Qt SVG Document</title>
<desc>Generated with Qt</desc>
<defs>
</defs>
<g fill="none" stroke="black" stroke-width="1" fill-rule="evenodd" stroke-linecap="square" stroke-linejoin="bevel" >

<g fill="#ef4b65" fill-opacity="1" stroke="none" transform="matrix(1,0,0,1,0,0)"
font-family="MS Shell Dlg 2" font-size="7.8" font-weight="400" font-style="normal" 
>
<path vector-effect="non-scaling-stroke" fill-rule="evenodd" d="M37.2598,16 C37.2598,27.7415 27.7415,37.2598 16,37.2598 C4.25851,37.2598 -5.25984,27.7415 -5.25984,16 C-5.25984,4.25851 4.25851,-5.25984 16,-5.25984 C27.7415,-5.25984 37.2598,4.25851 37.2598,16 "/>
</g>

<g fill="#ffffff" fill-opacity="0.94902" stroke="none" transform="matrix(1,0,0,1,16,13.1654)"
font-family="MS Shell Dlg 2" font-size="7.8" font-weight="400" font-style="normal" 
>
<path vector-effect="none" fill-rule="evenodd" d="M2.7207,2.80811 L10.7202,9.90479 C10.6362,10.0588 10.5313,10.2057 10.4053,10.3457 C10.3213,10.4857 10.2163,10.6431 10.0903,10.8181 C9.96436,10.9931 9.81738,11.1646 9.64941,11.3325 C9.43945,11.5285 9.25749,11.693 9.10352,11.8259 C8.94954,11.9589 8.79557,12.0674 8.6416,12.1514 C8.50163,12.2633 8.34766,12.3473 8.17969,12.4033 L1.08301,4.4458 L1.6499,3.8999 L0.74707,2.89209 C0.649089,2.99007 0.544108,3.04606 0.432129,3.06006 C0.32015,3.07406 0.208171,3.08105 0.0961914,3.08105 C-0.0437826,3.08105 -0.159261,3.07406 -0.250244,3.06006 C-0.341227,3.04606 -0.456706,2.99007 -0.59668,2.89209 L-1.49951,3.8999 L-0.974609,4.4458 L-8.0293,12.4033 C-8.21126,12.3473 -8.37223,12.2633 -8.51221,12.1514 C-8.65218,12.0674 -8.80965,11.9589 -8.98462,11.8259 C-9.15959,11.693 -9.33105,11.5285 -9.49902,11.3325 C-9.80697,10.9546 -10.0659,10.6257 -10.2759,10.3457 C-10.3879,10.2057 -10.4858,10.0588 -10.5698,9.90479 L-2.57031,2.80811 L-2.06641,3.33301 L-1.05859,2.47217 C-1.18457,2.19222 -1.24756,1.97526 -1.24756,1.82129 C-1.24756,1.56934 -1.18457,1.32438 -1.05859,1.08643 L-2.06641,0.183594 L-2.57031,0.750488 L-10.5698,-6.34619 C-10.4858,-6.48617 -10.3879,-6.62614 -10.2759,-6.76611 C-10.0659,-7.06006 -9.80697,-7.389 -9.49902,-7.75293 C-9.33105,-7.9349 -9.15959,-8.09587 -8.98462,-8.23584 C-8.80965,-8.37581 -8.65218,-8.48779 -8.51221,-8.57178 C-8.37223,-8.69775 -8.21126,-8.78874 -8.0293,-8.84473 L-0.974609,-0.887207 L-1.49951,-0.320313 L-0.59668,0.666504 C-0.456706,0.58252 -0.341227,0.533529 -0.250244,0.519531 C-0.159261,0.505534 -0.0437826,0.498535 0.0961914,0.498535 C0.208171,0.498535 0.32015,0.505534 0.432129,0.519531 C0.544108,0.533529 0.649089,0.58252 0.74707,0.666504 L1.6499,-0.320313 L1.08301,-0.887207 L8.17969,-8.84473 C8.34766,-8.78874 8.50163,-8.69775 8.6416,-8.57178 C8.79557,-8.48779 8.94954,-8.37581 9.10352,-8.23584 C9.25749,-8.09587 9.43945,-7.9349 9.64941,-7.75293 C9.81738,-7.58496 9.96436,-7.41699 10.0903,-7.24902 C10.2163,-7.08105 10.3213,-6.92008 10.4053,-6.76611 C10.5313,-6.62614 10.6362,-6.48617 10.7202,-6.34619 L2.7207,0.750488 L2.15381,0.183594 L1.20898,1.08643 C1.29297,1.18441 1.34196,1.29639 1.35596,1.42236 C1.36995,1.54834 1.37695,1.68132 1.37695,1.82129 C1.37695,1.90527 1.36995,2.00675 1.35596,2.12573 C1.34196,2.24471 1.29297,2.36019 1.20898,2.47217 L2.15381,3.33301 L2.7207,2.80811 M3.05664,-1.22314 L9.08252,-6.51416 C8.99854,-6.65413 8.87956,-6.76611 8.72559,-6.8501 C8.6696,-7.00407 8.58561,-7.13704 8.47363,-7.24902 L3.05664,-1.22314 M-2.92725,-1.22314 L-8.23926,-7.24902 C-8.42122,-7.16504 -8.5402,-7.03206 -8.59619,-6.8501 C-8.73617,-6.76611 -8.84814,-6.65413 -8.93213,-6.51416 L-2.92725,-1.22314 M-2.92725,4.80273 L-8.93213,10.0728 C-8.84814,10.2267 -8.73617,10.3457 -8.59619,10.4297 C-8.51221,10.6257 -8.39323,10.7516 -8.23926,10.8076 L-2.92725,4.80273 M3.05664,4.80273 L8.47363,10.8076 C8.55762,10.7236 8.6416,10.5977 8.72559,10.4297 C8.87956,10.3457 8.99854,10.2267 9.08252,10.0728 L3.05664,4.80273 M5.11426,11.1646 L6.12207,17.0854 C5.74414,17.1694 5.31022,17.2744 4.82031,17.4004 C4.41439,17.4844 3.93498,17.5614 3.38208,17.6313 C2.82918,17.7013 2.2168,17.7503 1.54492,17.7783 L1.54492,14.4609 C1.54492,14.097 1.40495,13.7996 1.125,13.5686 C0.845052,13.3376 0.474121,13.2222 0.012207,13.2222 C-0.393717,13.2222 -0.733154,13.3376 -1.0061,13.5686 C-1.27905,13.7996 -1.41553,14.097 -1.41553,14.4609 L-1.41553,17.7783 C-2.1014,17.7503 -2.72428,17.7013 -3.28418,17.6313 C-3.84408,17.5614 -4.32699,17.4844 -4.73291,17.4004 C-5.20882,17.2744 -5.62174,17.1694 -5.97168,17.0854 L-5.11084,11.2485 L-0.59668,6.20947 C-0.512695,6.12549 -0.470703,6.01351 -0.470703,5.87354 C-0.470703,5.73356 -0.512695,5.61458 -0.59668,5.5166 L-0.764648,5.30664 L-0.428711,4.9707 C-0.316732,5.02669 -0.141764,5.05469 0.0961914,5.05469 C0.292155,5.05469 0.446126,5.02669 0.558105,4.9707 L0.915039,5.30664 L0.74707,5.5166 C0.649089,5.61458 0.600098,5.73356 0.600098,5.87354 C0.600098,6.01351 0.649089,6.12549 0.74707,6.20947 L5.11426,11.1646 M0.012207,9.98877 C0.614095,9.98877 0.915039,9.68783 0.915039,9.08594 C0.915039,8.86198 0.834554,8.66951 0.673584,8.50854 C0.512614,8.34757 0.292155,8.26709 0.012207,8.26709 C-0.225749,8.26709 -0.414714,8.34757 -0.554688,8.50854 C-0.694661,8.66951 -0.764648,8.86198 -0.764648,9.08594 C-0.764648,9.37988 -0.694661,9.60384 -0.554688,9.75781 C-0.414714,9.91178 -0.225749,9.98877 0.012207,9.98877 "/>
</g>

<g fill="#ef4b65" fill-opacity="1" stroke="none" transform="matrix(1,0,0,1,0,0)"
font-family="MS Shell Dlg 2" font-size="7.8" font-weight="400" font-style="normal" 
>
</g>
</g>
</svg>
