<?xml version="1.0" encoding="UTF-8" standalone="no"?>
<svg width="11.25008mm" height="11.25008mm"
 viewBox="-5.3 -5.3 42.52000 42.52000"
 xmlns="http://www.w3.org/2000/svg" xmlns:xlink="http://www.w3.org/1999/xlink"  version="1.2" baseProfile="tiny">
<title>Qt SVG Document</title>
<desc>Generated with Qt</desc>
<defs>
</defs>
<g fill="none" stroke="black" stroke-width="1" fill-rule="evenodd" stroke-linecap="square" stroke-linejoin="bevel" >

<g fill="#ef4b65" fill-opacity="1" stroke="none" transform="matrix(1,0,0,1,0,0)"
font-family="MS Shell Dlg 2" font-size="7.8" font-weight="400" font-style="normal" 
>
<path vector-effect="non-scaling-stroke" fill-rule="evenodd" d="M37.2598,16 C37.2598,27.7415 27.7415,37.2598 16,37.2598 C4.25851,37.2598 -5.25984,27.7415 -5.25984,16 C-5.25984,4.25851 4.25851,-5.25984 16,-5.25984 C27.7415,-5.25984 37.2598,4.25851 37.2598,16 "/>
</g>

<g fill="#ffffff" fill-opacity="0.94902" stroke="none" transform="matrix(1,0,0,1,14.2992,10.8976)"
font-family="MS Shell Dlg 2" font-size="7.8" font-weight="400" font-style="normal" 
>
<path vector-effect="none" fill-rule="evenodd" d="M-7.82813,15.2266 L12.4648,15.2266 L12.4648,17.4922 L-10.2109,17.4922 L-10.2109,1.02734 L-12.6523,1.69141 L-12.6523,-0.671875 L12.4648,-8.03516 L12.4648,-5.57422 L-7.82813,0.285156 L-7.82813,15.2266 M9.76953,3.89844 C9.54818,3.79427 9.38542,3.6901 9.28125,3.58594 C9.17708,3.48177 9.08594,3.39714 9.00781,3.33203 C8.90365,3.16276 8.76042,3.05208 8.57813,3 C8.35677,2.9349 8.13542,2.9056 7.91406,2.91211 C7.69271,2.91862 7.43229,2.99349 7.13281,3.13672 L7.11328,3.15625 C6.97005,3.05208 6.78125,2.96094 6.54688,2.88281 C6.3125,2.80469 6.05208,2.8112 5.76563,2.90234 C5.6875,2.94141 5.64844,3 5.64844,3.07813 C5.64844,3.10417 5.66797,3.18229 5.70703,3.3125 C5.74609,3.44271 5.83724,3.57943 5.98047,3.72266 L5.86328,3.76172 C5.69401,3.78776 5.55404,3.82682 5.44336,3.87891 C5.33268,3.93099 5.1862,4.04167 5.00391,4.21094 C4.66536,4.14583 4.36589,4.13607 4.10547,4.18164 C3.84505,4.22721 3.5651,4.32813 3.26563,4.48438 C3.09635,4.39323 2.87826,4.31185 2.61133,4.24023 C2.3444,4.16862 2.04818,4.1849 1.72266,4.28906 C1.38411,4.15885 1.06836,4.13607 0.775391,4.2207 C0.482422,4.30534 0.270833,4.38672 0.140625,4.46484 C-0.09375,4.32161 -0.360677,4.24674 -0.660156,4.24023 C-0.959635,4.23372 -1.24609,4.29557 -1.51953,4.42578 C-1.72786,4.38672 -1.94271,4.3737 -2.16406,4.38672 C-2.38542,4.39974 -2.59701,4.43555 -2.79883,4.49414 C-3.00065,4.55273 -3.1862,4.63737 -3.35547,4.74805 C-3.52474,4.85872 -3.66146,4.97917 -3.76563,5.10938 C-4.0651,5.17448 -4.29622,5.28841 -4.45898,5.45117 C-4.62174,5.61393 -4.70964,5.80599 -4.72266,6.02734 C-4.98307,6.22266 -5.13281,6.40495 -5.17188,6.57422 C-5.21094,6.74349 -5.20443,6.89974 -5.15234,7.04297 C-5.33464,7.30339 -5.42578,7.58333 -5.42578,7.88281 C-5.42578,8.18229 -5.36068,8.42969 -5.23047,8.625 C-5.30859,8.96354 -5.29557,9.24349 -5.19141,9.46484 C-5.08724,9.6862 -4.95052,9.84245 -4.78125,9.93359 C-4.63802,10.1549 -4.58919,10.3242 -4.63477,10.4414 C-4.68034,10.5586 -4.70313,10.6237 -4.70313,10.6367 C-4.75521,10.6758 -4.77474,10.7214 -4.76172,10.7734 C-4.76172,10.7995 -4.73893,10.9167 -4.69336,11.125 C-4.64779,11.3333 -4.59896,11.571 -4.54688,11.8379 C-4.49479,12.1048 -4.43945,12.3652 -4.38086,12.6191 C-4.32227,12.873 -4.27344,13.0521 -4.23438,13.1563 C-4.20833,13.2474 -4.20182,13.3125 -4.21484,13.3516 C-4.22786,13.4167 -4.22461,13.485 -4.20508,13.5566 C-4.18555,13.6283 -4.1237,13.7357 -4.01953,13.8789 L-3.70703,14.3477 C-3.69401,14.3737 -3.66146,14.3997 -3.60938,14.4258 C-3.57031,14.4518 -3.50521,14.4714 -3.41406,14.4844 C-3.32292,14.4974 -3.22526,14.4974 -3.12109,14.4844 C-2.92578,14.4844 -2.78906,14.4388 -2.71094,14.3477 C-2.65885,14.2956 -2.65885,14.2305 -2.71094,14.1523 C-2.71094,14.1523 -2.76302,14.071 -2.86719,13.9082 C-2.97135,13.7454 -3.07552,13.5273 -3.17969,13.2539 C-3.28385,12.9805 -3.36523,12.668 -3.42383,12.3164 C-3.48242,11.9648 -3.45964,11.5938 -3.35547,11.2031 C-3.27734,11.1901 -3.16016,11.1673 -3.00391,11.1348 C-2.84766,11.1022 -2.67188,11.0339 -2.47656,10.9297 C-2.34635,10.8646 -2.20313,10.7832 -2.04688,10.6855 C-1.89063,10.5879 -1.74089,10.4479 -1.59766,10.2656 C-1.51953,10.3438 -1.42188,10.4056 -1.30469,10.4512 C-1.1875,10.4967 -1.07031,10.5293 -0.953125,10.5488 C-0.835938,10.5684 -0.728516,10.5814 -0.630859,10.5879 C-0.533203,10.5944 -0.464844,10.5977 -0.425781,10.5977 C-0.269531,10.6367 -0.0872396,10.6563 0.121094,10.6563 C0.264323,10.6432 0.407552,10.627 0.550781,10.6074 C0.69401,10.5879 0.791667,10.5716 0.84375,10.5586 C1.15625,10.6237 1.43294,10.6204 1.67383,10.5488 C1.91471,10.4772 2.06771,10.4219 2.13281,10.3828 C2.3151,10.3828 2.47461,10.3633 2.61133,10.3242 C2.74805,10.2852 2.86198,10.2461 2.95313,10.207 C3.05729,10.4674 3.16471,10.7051 3.27539,10.9199 C3.38607,11.1348 3.47396,11.2747 3.53906,11.3398 C3.5651,11.3789 3.59766,11.4668 3.63672,11.6035 C3.67578,11.7402 3.71159,11.8932 3.74414,12.0625 C3.77669,12.2318 3.80273,12.4043 3.82227,12.5801 C3.8418,12.7559 3.84505,12.8958 3.83203,13 C3.80599,13.2604 3.78971,13.4688 3.7832,13.625 C3.77669,13.7813 3.80599,13.8984 3.87109,13.9766 C3.89714,14.0156 3.94922,14.0352 4.02734,14.0352 C4.05339,14.0612 4.07943,14.11 4.10547,14.1816 C4.13151,14.2533 4.15755,14.3216 4.18359,14.3867 C4.19661,14.4648 4.2487,14.5039 4.33984,14.5039 L4.35938,14.5039 L5.08203,14.3867 C5.17318,14.3867 5.21875,14.3542 5.21875,14.2891 C5.24479,14.237 5.24479,14.1849 5.21875,14.1328 C5.14063,14.0286 5.06576,13.8626 4.99414,13.6348 C4.92253,13.4069 4.86719,13.153 4.82813,12.873 C4.78906,12.5931 4.75977,12.3034 4.74023,12.0039 C4.7207,11.7044 4.72396,11.431 4.75,11.1836 C4.77604,10.7799 4.87695,10.5033 5.05273,10.3535 C5.22852,10.2038 5.52474,10.0768 5.94141,9.97266 C6.13672,9.93359 6.30273,9.86198 6.43945,9.75781 C6.57617,9.65365 6.68685,9.54297 6.77148,9.42578 C6.85612,9.30859 6.92122,9.19792 6.9668,9.09375 C7.01237,8.98958 7.04818,8.90495 7.07422,8.83984 C7.17839,8.77474 7.25,8.70313 7.28906,8.625 C7.32813,8.54688 7.3737,8.46224 7.42578,8.37109 C7.47786,8.26693 7.52344,8.17578 7.5625,8.09766 C7.60156,8.01953 7.67318,7.94792 7.77734,7.88281 C7.98568,7.72656 8.11263,7.51172 8.1582,7.23828 C8.20378,6.96484 8.22005,6.75 8.20703,6.59375 C8.45443,6.48958 8.61393,6.3431 8.68555,6.1543 C8.75716,5.96549 8.79297,5.79948 8.79297,5.65625 C8.94922,5.64323 9.10547,5.60417 9.26172,5.53906 C9.44401,5.5651 9.6263,5.57487 9.80859,5.56836 C9.99089,5.56185 10.1146,5.51302 10.1797,5.42188 C10.2188,5.38281 10.2383,5.35026 10.2383,5.32422 C10.3424,5.24609 10.401,5.14844 10.4141,5.03125 C10.4661,4.86198 10.4499,4.66992 10.3652,4.45508 C10.2806,4.24023 10.082,4.05469 9.76953,3.89844 M8.55859,3.78125 C8.6237,3.78125 8.67904,3.80078 8.72461,3.83984 C8.77018,3.87891 8.79297,3.93099 8.79297,3.99609 C8.79297,4.15234 8.72135,4.23047 8.57813,4.23047 C8.40885,4.25651 8.32422,4.17839 8.32422,3.99609 C8.29818,3.85286 8.3763,3.78125 8.55859,3.78125 "/>
</g>

<g fill="#ef4b65" fill-opacity="1" stroke="none" transform="matrix(1,0,0,1,0,0)"
font-family="MS Shell Dlg 2" font-size="7.8" font-weight="400" font-style="normal" 
>
</g>
</g>
</svg>
