<?xml version="1.0" encoding="UTF-8" standalone="no"?>
<svg width="11.2889mm" height="11.2889mm"
 viewBox="0 0 32 32"
 xmlns="http://www.w3.org/2000/svg" xmlns:xlink="http://www.w3.org/1999/xlink"  version="1.2" baseProfile="tiny">
<title>Qt SVG Document</title>
<desc>Generated with Qt</desc>
<defs>
</defs>
<g fill="none" stroke="black" stroke-width="1" fill-rule="evenodd" stroke-linecap="square" stroke-linejoin="bevel" >

<g fill="#ef4b65" fill-opacity="1" stroke="none" transform="matrix(1,0,0,1,0,0)"
font-family="MS Shell Dlg 2" font-size="7.8" font-weight="400" font-style="normal" 
>
<path vector-effect="non-scaling-stroke" fill-rule="evenodd" d="M37.2598,16 C37.2598,27.7415 27.7415,37.2598 16,37.2598 C4.25851,37.2598 -5.25984,27.7415 -5.25984,16 C-5.25984,4.25851 4.25851,-5.25984 16,-5.25984 C27.7415,-5.25984 37.2598,4.25851 37.2598,16 "/>
</g>

<g fill="#ffffff" fill-opacity="0.94902" stroke="none" transform="matrix(1,0,0,1,16,14.1291)"
font-family="MS Shell Dlg 2" font-size="7.8" font-weight="400" font-style="normal" 
>
<path vector-effect="none" fill-rule="evenodd" d="M5.9624,5.62744 L-0.0234375,10.292 L-2.28564,15.7173 L-7.37061,17.8794 L-13.0962,13.8755 L-14.1372,7.50928 L-16.0591,5.62744 L-9.09229,5.62744 L-9.09229,10.6724 L-9.99316,10.6724 L-9.99316,11.373 L-8.5918,11.373 L-8.5918,3.08496 C-8.5918,2.29753 -8.30485,1.61686 -7.73096,1.04297 C-7.15706,0.469076 -6.4764,0.182129 -5.68896,0.182129 L-1.70508,0.182129 L-1.70508,2.46436 L-5.68896,2.46436 C-5.82243,2.46436 -5.94922,2.52108 -6.06934,2.63452 C-6.18945,2.74797 -6.24951,2.89811 -6.24951,3.08496 L-6.24951,11.373 L-4.9082,11.373 L-4.9082,10.6724 L-5.68896,10.6724 L-5.68896,5.62744 L5.9624,5.62744 M13.0894,0.182129 L16.2124,0.182129 L16.2124,2.46436 L13.0894,2.46436 L13.0894,0.182129 M-3.74707,-9.46729 L15.1914,-9.46729 L15.1914,-7.16504 L-3.74707,-7.16504 L-3.74707,-9.46729 M12.689,-6.76465 L12.689,5.00684 L-1.26465,5.00684 L-1.26465,-6.76465 L12.689,-6.76465 M5.10156,-4.94287 L0.0166016,-4.94287 L0.0166016,-3.22119 L5.10156,-3.22119 L5.10156,-4.94287 M11.4478,-4.94287 L6.40283,-4.94287 L6.40283,-3.22119 L11.4478,-3.22119 L11.4478,-4.94287"/>
</g>

<g fill="#ef4b65" fill-opacity="1" stroke="none" transform="matrix(1,0,0,1,0,0)"
font-family="MS Shell Dlg 2" font-size="7.8" font-weight="400" font-style="normal" 
>
</g>
</g>
</svg>
