<?xml version="1.0" encoding="UTF-8" standalone="no"?>
<svg width="11.2889mm" height="11.2889mm"
 viewBox="0 0 32 32"
 xmlns="http://www.w3.org/2000/svg" xmlns:xlink="http://www.w3.org/1999/xlink"  version="1.2" baseProfile="tiny">
<title>Qt SVG Document</title>
<desc>Generated with Qt</desc>
<defs>
</defs>
<g fill="none" stroke="black" stroke-width="1" fill-rule="evenodd" stroke-linecap="square" stroke-linejoin="bevel" >

<g fill="#ec1d24" fill-opacity="1" stroke="none" transform="matrix(1,0,0,1,0,0)"
font-family="MS Shell Dlg 2" font-size="7.8" font-weight="400" font-style="normal" 
>
<path vector-effect="non-scaling-stroke" fill-rule="evenodd" d="M37.2598,16 C37.2598,27.7415 27.7415,37.2598 16,37.2598 C4.25851,37.2598 -5.25984,27.7415 -5.25984,16 C-5.25984,4.25851 4.25851,-5.25984 16,-5.25984 C27.7415,-5.25984 37.2598,4.25851 37.2598,16 "/>
</g>

<g fill="#ffffff" fill-opacity="0.94902" stroke="none" transform="matrix(1,0,0,1,16,12.5984)"
font-family="MS Shell Dlg 2" font-size="7.8" font-weight="400" font-style="normal" 
>
<path vector-effect="none" fill-rule="evenodd" d="M12.4839,3.54297 C12.9318,3.54297 13.1558,3.78792 13.1558,4.27783 C13.1558,4.4458 13.0998,4.60327 12.9878,4.75024 C12.8758,4.89722 12.7078,4.9707 12.4839,4.9707 C12.2179,4.9707 12.029,4.85173 11.917,4.61377 C11.5111,4.85173 11.1261,5.11068 10.7622,5.39063 C10.4403,5.65658 10.1148,5.96102 9.78589,6.30396 C9.45695,6.64689 9.1945,7.06331 8.99854,7.55322 C8.78857,8.00114 8.6556,8.49105 8.59961,9.02295 C8.54362,9.55485 8.52962,10.0658 8.55762,10.5557 C8.58561,11.1016 8.6416,11.6475 8.72559,12.1934 C8.87956,12.1934 8.99854,12.2004 9.08252,12.2144 C9.1665,12.2284 9.27848,12.2773 9.41846,12.3613 C9.57243,12.5013 9.64941,12.6728 9.64941,12.8757 C9.64941,13.0787 9.57243,13.2502 9.41846,13.3901 C9.02653,13.6841 8.68359,13.6841 8.38965,13.3901 C8.19368,13.1942 8.1377,12.9632 8.22168,12.6973 C7.75977,12.5573 7.29785,12.4593 6.83594,12.4033 C6.44401,12.3473 6.01009,12.3333 5.53418,12.3613 C5.05827,12.3893 4.57536,12.5013 4.08545,12.6973 C3.63753,12.9072 3.20361,13.1907 2.78369,13.5476 C2.36377,13.9045 1.99984,14.258 1.69189,14.6079 C1.31396,15.0278 0.950033,15.4688 0.600098,15.9307 C0.698079,15.9867 0.789063,16.0636 0.873047,16.1616 C0.957031,16.2596 0.999023,16.3856 0.999023,16.5396 C0.999023,16.7075 0.918538,16.8615 0.757568,17.0015 C0.596598,17.1414 0.432129,17.2114 0.26416,17.2114 C0.0402018,17.2114 -0.145264,17.1414 -0.292236,17.0015 C-0.439209,16.8615 -0.512695,16.7075 -0.512695,16.5396 C-0.512695,16.2456 -0.393717,16.0426 -0.155762,15.9307 C-0.365723,15.4967 -0.610677,15.0978 -0.890625,14.7339 C-1.12858,14.4119 -1.42603,14.0865 -1.78296,13.7576 C-2.13989,13.4286 -2.54932,13.1662 -3.01123,12.9702 C-3.48714,12.7603 -3.99805,12.6273 -4.54395,12.5713 C-5.08984,12.5153 -5.60775,12.5013 -6.09766,12.5293 C-6.64355,12.5573 -7.18945,12.6133 -7.73535,12.6973 C-7.65137,12.9632 -7.70736,13.1942 -7.90332,13.3901 C-8.04329,13.5301 -8.20076,13.6001 -8.37573,13.6001 C-8.5507,13.6001 -8.70817,13.5301 -8.84814,13.3901 C-9.01611,13.2502 -9.0931,13.0787 -9.0791,12.8757 C-9.0651,12.6728 -8.98812,12.5013 -8.84814,12.3613 C-8.76416,12.2773 -8.68018,12.2284 -8.59619,12.2144 C-8.51221,12.2004 -8.39323,12.1934 -8.23926,12.1934 C-8.09928,11.7594 -8.0013,11.3115 -7.94531,10.8496 C-7.88932,10.4577 -7.87533,10.0238 -7.90332,9.54785 C-7.93132,9.07194 -8.04329,8.60303 -8.23926,8.14111 C-8.44922,7.6652 -8.72567,7.21729 -9.0686,6.79736 C-9.41154,6.37744 -9.75798,6.01351 -10.1079,5.70557 C-10.4998,5.32764 -10.9268,4.9637 -11.3887,4.61377 L-11.4727,4.61377 C-11.5846,4.85173 -11.7596,4.9707 -11.9976,4.9707 C-12.2215,4.9707 -12.3895,4.89722 -12.5015,4.75024 C-12.6134,4.60327 -12.6694,4.4458 -12.6694,4.27783 C-12.6694,3.78792 -12.4455,3.54297 -11.9976,3.54297 C-11.7316,3.54297 -11.5286,3.67594 -11.3887,3.94189 C-10.9827,3.70394 -10.5978,3.43099 -10.2339,3.12305 C-9.91195,2.8571 -9.59351,2.54565 -9.27856,2.18872 C-8.96362,1.83179 -8.70817,1.42236 -8.51221,0.960449 C-8.30225,0.47054 -8.16927,-0.0368652 -8.11328,-0.561768 C-8.05729,-1.08667 -8.04329,-1.59408 -8.07129,-2.08398 C-8.09928,-2.62988 -8.15527,-3.18978 -8.23926,-3.76367 C-8.44922,-3.67969 -8.65218,-3.73568 -8.84814,-3.93164 C-9.01611,-4.07161 -9.1001,-4.22909 -9.1001,-4.40405 C-9.1001,-4.57902 -9.01611,-4.73649 -8.84814,-4.87646 C-8.5402,-5.1984 -8.22526,-5.1984 -7.90332,-4.87646 C-7.70736,-4.6805 -7.65137,-4.48454 -7.73535,-4.28857 C-7.30143,-4.1346 -6.83952,-4.02962 -6.34961,-3.97363 C-5.95768,-3.91764 -5.51676,-3.90365 -5.02686,-3.93164 C-4.53695,-3.95964 -4.06104,-4.07861 -3.59912,-4.28857 C-3.1512,-4.48454 -2.71729,-4.75399 -2.29736,-5.09692 C-1.87744,-5.43986 -1.51351,-5.7863 -1.20557,-6.13623 C-0.827637,-6.52816 -0.477702,-6.94108 -0.155762,-7.375 C-0.253743,-7.45898 -0.337728,-7.54997 -0.407715,-7.64795 C-0.477702,-7.74593 -0.512695,-7.87191 -0.512695,-8.02588 C-0.512695,-8.19385 -0.439209,-8.34782 -0.292236,-8.48779 C-0.145264,-8.62777 0.0402018,-8.69775 0.26416,-8.69775 C0.432129,-8.69775 0.596598,-8.62777 0.757568,-8.48779 C0.918538,-8.34782 0.999023,-8.19385 0.999023,-8.02588 C0.999023,-7.87191 0.957031,-7.74593 0.873047,-7.64795 C0.789063,-7.54997 0.698079,-7.45898 0.600098,-7.375 C0.810059,-6.94108 1.06901,-6.55615 1.37695,-6.22021 C1.6429,-5.89827 1.95435,-5.57983 2.31128,-5.26489 C2.66821,-4.94995 3.09163,-4.7085 3.58154,-4.54053 C4.04346,-4.33057 4.53687,-4.19759 5.06177,-4.1416 C5.58667,-4.08561 6.09408,-4.07161 6.58398,-4.09961 C7.12988,-4.1276 7.67578,-4.19059 8.22168,-4.28857 C8.1377,-4.48454 8.19368,-4.6805 8.38965,-4.87646 C8.68359,-5.17041 9.02653,-5.17041 9.41846,-4.87646 C9.7404,-4.56852 9.7404,-4.25358 9.41846,-3.93164 C9.22249,-3.73568 8.99154,-3.67969 8.72559,-3.76367 C8.58561,-3.32975 8.48763,-2.86784 8.43164,-2.37793 C8.37565,-1.986 8.36165,-1.54508 8.38965,-1.05518 C8.41764,-0.565267 8.52962,-0.0893555 8.72559,0.372559 C8.93555,0.820475 9.21899,1.25439 9.57593,1.67432 C9.93286,2.09424 10.2863,2.45817 10.6362,2.76611 C11.0282,3.14404 11.4551,3.50798 11.917,3.85791 C12.001,3.64795 12.1899,3.54297 12.4839,3.54297 M0.26416,11.6685 C1.29997,11.6685 2.26929,11.476 3.17212,11.0911 C4.07495,10.7061 4.8623,10.1847 5.53418,9.52686 C6.20605,8.86898 6.73446,8.08862 7.11938,7.18579 C7.50431,6.28296 7.69678,5.31364 7.69678,4.27783 C7.69678,3.24202 7.50431,2.26571 7.11938,1.34888 C6.73446,0.432048 6.20605,-0.369303 5.53418,-1.05518 C4.8623,-1.74105 4.07495,-2.27645 3.17212,-2.66138 C2.26929,-3.04631 1.29997,-3.23877 0.26416,-3.23877 C-0.771647,-3.23877 -1.74097,-3.04631 -2.6438,-2.66138 C-3.54663,-2.27645 -4.34098,-1.74105 -5.02686,-1.05518 C-5.71273,-0.369303 -6.24813,0.432048 -6.63306,1.34888 C-7.01799,2.26571 -7.21045,3.24202 -7.21045,4.27783 C-7.21045,5.31364 -7.01799,6.28296 -6.63306,7.18579 C-6.24813,8.08862 -5.71273,8.86898 -5.02686,9.52686 C-4.34098,10.1847 -3.54663,10.7061 -2.6438,11.0911 C-1.74097,11.476 -0.771647,11.6685 0.26416,11.6685 M0.26416,-2.12598 C1.118,-2.12598 1.93335,-1.96151 2.71021,-1.63257 C3.48706,-1.30363 4.16243,-0.845215 4.73633,-0.257324 C5.31022,0.330566 5.76164,1.01294 6.09058,1.78979 C6.41951,2.56665 6.58398,3.396 6.58398,4.27783 C6.58398,5.13167 6.41951,5.94002 6.09058,6.70288 C5.76164,7.46574 5.31022,8.13411 4.73633,8.70801 C4.16243,9.2819 3.48706,9.73332 2.71021,10.0623 C1.93335,10.3912 1.118,10.5557 0.26416,10.5557 C-0.617676,10.5557 -1.44702,10.3912 -2.22388,10.0623 C-3.00073,9.73332 -3.67611,9.2819 -4.25,8.70801 C-4.82389,8.13411 -5.27531,7.46574 -5.60425,6.70288 C-5.93319,5.94002 -6.09766,5.13167 -6.09766,4.27783 C-6.09766,3.396 -5.93319,2.56665 -5.60425,1.78979 C-5.27531,1.01294 -4.82389,0.330566 -4.25,-0.257324 C-3.67611,-0.845215 -3.00073,-1.30363 -2.22388,-1.63257 C-1.44702,-1.96151 -0.617676,-2.12598 0.26416,-2.12598 M-1.0166,-1.01318 C-1.07259,-0.957194 -1.23706,-0.799723 -1.51001,-0.540771 C-1.78296,-0.28182 -2.13639,-0.0263672 -2.57031,0.225586 C-2.54232,0.379557 -2.54232,0.512533 -2.57031,0.624512 L-1.5415,1.65332 L-0.848633,0.960449 L-0.512695,1.31738 L-1.20557,1.98926 L0.26416,3.45898 C0.488118,3.23503 0.722575,3.00757 0.967529,2.77661 C1.21248,2.54565 1.48193,2.2832 1.77588,1.98926 L0.999023,1.31738 L1.41895,0.960449 L2.02783,1.65332 L3.05664,0.624512 C3.02865,0.540527 3.01465,0.407552 3.01465,0.225586 C2.60872,-0.0263672 2.27279,-0.28182 2.00684,-0.540771 C1.74089,-0.799723 1.57292,-0.957194 1.50293,-1.01318 L-1.0166,-1.01318 M-4.90088,2.17822 C-4.90088,3.14404 -4.7714,4.04338 -4.51245,4.87622 C-4.2535,5.70907 -3.92106,6.45443 -3.51514,7.1123 C-3.34717,6.94434 -3.01823,6.6224 -2.52832,6.14648 C-2.03841,5.67057 -1.26156,4.92171 -0.197754,3.8999 L-1.62549,2.43018 L-2.31836,3.12305 L-2.73828,2.76611 L-2.06641,2.09424 L-3.09521,1.04443 C-3.31917,1.17041 -3.51514,1.14242 -3.68311,0.960449 C-3.68311,0.960449 -3.6971,0.932454 -3.7251,0.876465 C-4.15902,1.08643 -4.55094,1.2054 -4.90088,1.2334 L-4.90088,2.17822 M0.432129,10.3877 C0.950033,10.1777 1.48193,9.85929 2.02783,9.43237 C2.57373,9.00545 3.09163,8.46305 3.58154,7.80518 C2.82568,7.03532 2.1783,6.37044 1.6394,5.81055 C1.1005,5.25065 0.628092,4.76774 0.222168,4.36182 C-0.519694,5.15967 -1.62549,6.30745 -3.09521,7.80518 C-2.60531,8.46305 -2.0874,9.00545 -1.5415,9.43237 C-0.995605,9.85929 -0.477702,10.1777 0.012207,10.3877 L0.26416,10.3877 L0.432129,10.3877 M5.38721,1.2334 C5.03727,1.2054 4.64535,1.08643 4.21143,0.876465 C4.21143,0.90446 4.19743,0.932454 4.16943,0.960449 C4.02946,1.11442 3.8335,1.14242 3.58154,1.04443 L2.55273,2.09424 L3.22461,2.76611 L2.88867,3.12305 L2.11182,2.43018 L0.705078,3.8999 C1.78288,4.92171 2.55973,5.67757 3.03564,6.16748 C3.51156,6.65739 3.8335,6.97233 4.00146,7.1123 C4.40739,6.45443 4.73983,5.71606 4.99878,4.89722 C5.25773,4.07837 5.38721,3.17204 5.38721,2.17822 L5.38721,1.2334"/>
</g>

<g fill="#ec1d24" fill-opacity="1" stroke="none" transform="matrix(1,0,0,1,0,0)"
font-family="MS Shell Dlg 2" font-size="7.8" font-weight="400" font-style="normal" 
>
</g>
</g>
</svg>
