<?xml version="1.0" encoding="UTF-8" standalone="no"?>
<svg width="11.2889mm" height="11.2889mm"
 viewBox="0 0 32 32"
 xmlns="http://www.w3.org/2000/svg" xmlns:xlink="http://www.w3.org/1999/xlink"  version="1.2" baseProfile="tiny">
<title>Qt SVG Document</title>
<desc>Generated with Qt</desc>
<defs>
</defs>
<g fill="none" stroke="black" stroke-width="1" fill-rule="evenodd" stroke-linecap="square" stroke-linejoin="bevel" >

<g fill="#ec1d24" fill-opacity="1" stroke="none" transform="matrix(1,0,0,1,0,0)"
font-family="MS Shell Dlg 2" font-size="7.8" font-weight="400" font-style="normal" 
>
<path vector-effect="non-scaling-stroke" fill-rule="evenodd" d="M37.2598,16 C37.2598,27.7415 27.7415,37.2598 16,37.2598 C4.25851,37.2598 -5.25984,27.7415 -5.25984,16 C-5.25984,4.25851 4.25851,-5.25984 16,-5.25984 C27.7415,-5.25984 37.2598,4.25851 37.2598,16 "/>
</g>

<g fill="#ffffff" fill-opacity="0.94902" stroke="none" transform="matrix(1,0,0,1,16,12.0315)"
font-family="MS Shell Dlg 2" font-size="7.8" font-weight="400" font-style="normal" 
>
<path vector-effect="none" fill-rule="evenodd" d="M-0.302734,8.75 C-0.358724,8.88997 -0.355225,8.98096 -0.292236,9.02295 C-0.229248,9.06494 -0.169759,9.11393 -0.11377,9.16992 C-0.211751,9.32389 -0.309733,9.42188 -0.407715,9.46387 C-0.505697,9.50586 -0.624674,9.56885 -0.764648,9.65283 C-0.624674,9.56885 -0.519694,9.50586 -0.449707,9.46387 C-0.37972,9.42188 -0.295736,9.32389 -0.197754,9.16992 C-0.351725,9.16992 -0.386719,9.02995 -0.302734,8.75 M-1.16357,8.18311 C-1.27555,7.63721 -1.08659,7.30827 -0.59668,7.19629 C-0.876628,7.30827 -1.05509,7.43075 -1.13208,7.56372 C-1.20907,7.6967 -1.21956,7.90316 -1.16357,8.18311 M-0.512695,4.88672 C-0.456706,5.02669 -0.309733,5.09668 -0.0717773,5.09668 L-0.11377,5.09668 C-0.0857747,5.15267 -0.0437826,5.18066 0.012207,5.18066 C0.0681966,5.18066 0.124186,5.20866 0.180176,5.26465 C0.0402018,5.26465 -0.068278,5.23665 -0.145264,5.18066 C-0.222249,5.12467 -0.302734,5.08268 -0.386719,5.05469 C-0.204753,5.11068 -0.11377,5.23665 -0.11377,5.43262 L-0.11377,5.66357 C-0.211751,5.5376 -0.351725,5.48861 -0.533691,5.5166 C-0.715658,5.5446 -0.834635,5.48861 -0.890625,5.34863 C-0.778646,5.40462 -0.673665,5.42562 -0.575684,5.41162 C-0.477702,5.39762 -0.386719,5.41862 -0.302734,5.47461 C-0.302734,5.39063 -0.330729,5.32064 -0.386719,5.26465 L-0.302734,5.26465 C-0.302734,5.18066 -0.330729,5.11068 -0.386719,5.05469 C-0.442708,4.9987 -0.484701,4.94271 -0.512695,4.88672 M0.600098,0.666504 C0.894043,0.58252 1.07601,0.432048 1.146,0.215088 C1.21598,-0.00187174 1.19499,-0.208333 1.08301,-0.404297 C1.22298,-0.264323 1.25798,-0.06486 1.18799,0.194092 C1.118,0.453044 0.922038,0.610514 0.600098,0.666504 M2.55273,0.498535 C2.55273,0.694499 2.47925,0.841471 2.33228,0.939453 C2.1853,1.03743 2.05583,1.12142 1.94385,1.19141 C1.99984,1.12142 2.09782,1.03743 2.23779,0.939453 C2.37777,0.841471 2.44775,0.694499 2.44775,0.498535 C2.44775,0.358561 2.40576,0.222087 2.32178,0.0891113 C2.23779,-0.0438639 2.1818,-0.180339 2.15381,-0.320313 C2.1818,-0.264323 2.2168,-0.208333 2.25879,-0.152344 C2.30078,-0.0963542 2.34977,-0.0403646 2.40576,0.015625 C2.43376,0.155599 2.46525,0.25708 2.50024,0.320068 C2.53524,0.383057 2.55273,0.442546 2.55273,0.498535 M-0.11377,0.498535 L-0.11377,0.372559 C-0.0857747,0.316569 -0.0437826,0.288574 0.012207,0.288574 C0.0681966,0.288574 0.124186,0.288574 0.180176,0.288574 C0.208171,0.288574 0.222168,0.358561 0.222168,0.498535 L-0.11377,0.498535 M0.600098,0.183594 C0.544108,0.0716146 0.446126,0.015625 0.306152,0.015625 C0.250163,0.015625 0.180176,0.0296224 0.0961914,0.0576172 C0.012207,0.085612 -0.0577799,0.0996094 -0.11377,0.0996094 L-0.11377,-0.0263672 C-0.0857747,-0.0263672 -0.0577799,-0.0403646 -0.0297852,-0.0683594 C-0.00179036,-0.0963542 0.0402018,-0.110352 0.0961914,-0.110352 C0.208171,-0.250326 0.334147,-0.320313 0.474121,-0.320313 C0.530111,-0.320313 0.582601,-0.27832 0.631592,-0.194336 C0.680583,-0.110352 0.705078,-0.0403646 0.705078,0.015625 C0.705078,0.0716146 0.670085,0.127604 0.600098,0.183594 M0.180176,-0.803223 C0.236165,-0.943197 0.313151,-0.964193 0.411133,-0.866211 C0.509115,-0.768229 0.663086,-0.719238 0.873047,-0.719238 C0.719076,-0.719238 0.579102,-0.680745 0.453125,-0.60376 C0.327148,-0.526774 0.236165,-0.593262 0.180176,-0.803223 M1.54492,-0.0683594 C1.58691,0.0716146 1.56242,0.222087 1.47144,0.383057 C1.38045,0.544027 1.27897,0.680501 1.16699,0.79248 C1.05501,0.932454 0.91154,1.01644 0.736572,1.04443 C0.561605,1.07243 0.390137,1.08643 0.222168,1.08643 C0.628092,1.15641 0.967529,1.06893 1.24048,0.823975 C1.51343,0.57902 1.61491,0.281576 1.54492,-0.0683594 M1.16699,8.18311 C1.30697,8.33708 1.36995,8.49805 1.35596,8.66602 C1.34196,8.83398 1.43994,8.95996 1.6499,9.04395 C1.41195,8.95996 1.28597,8.83398 1.27197,8.66602 C1.25798,8.49805 1.22298,8.33708 1.16699,8.18311 M-0.11377,4.9707 C-0.0857747,4.9707 -0.0507813,4.9847 -0.00878906,5.0127 C0.0332031,5.04069 0.0961914,5.05469 0.180176,5.05469 C0.124186,5.05469 0.082194,5.06169 0.0541992,5.07568 C0.0262044,5.08968 -0.0157878,5.09668 -0.0717773,5.09668 C-0.0997721,5.06868 -0.127767,5.05469 -0.155762,5.05469 C-0.183757,5.05469 -0.232747,5.02669 -0.302734,4.9707 C-0.176758,4.9707 -0.11377,4.94271 -0.11377,4.88672 L-0.0717773,4.92871 L-0.0717773,4.9707 L-0.11377,4.9707 M2.06982,1.56934 C2.01383,1.70931 1.86336,1.85978 1.61841,2.02075 C1.37345,2.18172 1.19499,2.2902 1.08301,2.34619 C1.19499,2.23421 1.35246,2.11174 1.55542,1.97876 C1.75838,1.84578 1.92985,1.70931 2.06982,1.56934 M3.30859,11.7524 L3.30859,11.7104 C3.30859,11.7384 3.32259,11.7524 3.35059,11.7524 L3.30859,11.7524 M2.67871,-4.01563 C2.67871,-3.44173 2.81519,-2.89933 3.08813,-2.38843 C3.36108,-1.87752 3.73201,-1.40511 4.20093,-0.971191 C4.66984,-0.537272 5.23324,-0.162842 5.89111,0.1521 C6.54899,0.467041 7.25586,0.680501 8.01172,0.79248 L8.01172,3.29102 C8.01172,4.92871 7.76676,6.39144 7.27686,7.6792 C6.78695,8.96696 6.17106,10.0833 5.4292,11.0281 C4.68734,11.9729 3.88599,12.7463 3.02515,13.3481 C2.16431,13.95 1.34196,14.384 0.558105,14.6499 C0.502116,14.7059 0.446126,14.7339 0.390137,14.7339 C0.334147,14.7339 0.278158,14.7339 0.222168,14.7339 C0.194173,14.7339 0.152181,14.7339 0.0961914,14.7339 C0.0402018,14.7339 -0.0157878,14.7059 -0.0717773,14.6499 C-0.855632,14.384 -1.67798,13.95 -2.53882,13.3481 C-3.39966,12.7463 -4.20101,11.9729 -4.94287,11.0281 C-5.68473,10.0833 -6.30062,8.96696 -6.79053,7.6792 C-7.28044,6.39144 -7.52539,4.92871 -7.52539,3.29102 L-7.52539,0.79248 C-6.76953,0.680501 -6.06266,0.467041 -5.40479,0.1521 C-4.74691,-0.162842 -4.18351,-0.537272 -3.7146,-0.971191 C-3.24569,-1.40511 -2.87476,-1.87752 -2.60181,-2.38843 C-2.32886,-2.89933 -2.19238,-3.44173 -2.19238,-4.01563 C-1.95443,-3.95964 -1.69548,-3.91764 -1.41553,-3.88965 C-1.17757,-3.86165 -0.91512,-3.84066 -0.628174,-3.82666 C-0.341227,-3.81266 -0.0577799,-3.80566 0.222168,-3.80566 C0.474121,-3.80566 0.75057,-3.81266 1.05151,-3.82666 C1.35246,-3.84066 1.62191,-3.86165 1.85986,-3.88965 C2.13981,-3.91764 2.41276,-3.95964 2.67871,-4.01563 M4.31641,7.51123 C4.31641,7.59521 4.23942,7.63721 4.08545,7.63721 L4.08545,7.42725 C4.08545,7.1333 4.00146,6.90234 3.8335,6.73438 C3.66553,6.46842 3.39258,6.22347 3.01465,5.99951 C2.63672,5.77555 2.44775,5.55859 2.44775,5.34863 L2.44775,5.18066 C2.51774,5.12467 2.60872,5.09668 2.7207,5.09668 L2.7207,5.18066 C2.7207,5.29264 2.7627,5.34863 2.84668,5.34863 C3.01465,5.34863 3.09863,5.29264 3.09863,5.18066 C3.09863,5.15267 3.04264,5.08268 2.93066,4.9707 L3.14063,4.9707 C3.35059,4.76074 3.35059,4.59977 3.14063,4.48779 C3.2806,4.4318 3.37508,4.34782 3.42407,4.23584 C3.47306,4.12386 3.43457,4.01188 3.30859,3.8999 C3.51855,3.74593 3.59554,3.53247 3.53955,3.25952 C3.48356,2.98657 3.37858,2.78011 3.22461,2.64014 C3.30859,2.96208 3.2946,3.22103 3.18262,3.41699 C3.07064,3.61296 2.91667,3.81592 2.7207,4.02588 C2.58073,4.22184 2.45125,4.42131 2.33228,4.62427 C2.2133,4.82723 2.15381,5.04069 2.15381,5.26465 C2.15381,5.37663 2.1888,5.49211 2.25879,5.61108 C2.32878,5.73006 2.39176,5.84554 2.44775,5.95752 L3.01465,6.52441 C3.07064,6.5804 3.15112,6.65039 3.2561,6.73438 C3.36108,6.81836 3.44157,6.88835 3.49756,6.94434 C3.63753,7.1403 3.70752,7.30127 3.70752,7.42725 C3.70752,7.53923 3.66553,7.64421 3.58154,7.74219 C3.49756,7.84017 3.37858,7.88916 3.22461,7.88916 C2.97266,7.88916 2.82568,7.73169 2.78369,7.41675 C2.7417,7.10181 2.66471,6.84635 2.55273,6.65039 C2.39876,6.27246 2.15031,5.95402 1.80737,5.69507 C1.46444,5.43612 1.29297,5.16667 1.29297,4.88672 C1.29297,4.62077 1.32096,4.4458 1.37695,4.36182 L1.37695,4.10986 C1.37695,4.30583 1.42944,4.4703 1.53442,4.60327 C1.6394,4.73625 1.74788,4.83073 1.85986,4.88672 C1.83187,4.73275 1.82487,4.61377 1.83887,4.52979 C1.85286,4.4458 1.87386,4.36882 1.90186,4.29883 C1.92985,4.22884 1.95085,4.13786 1.96484,4.02588 C1.97884,3.9139 1.97184,3.73893 1.94385,3.50098 C1.99984,3.61296 2.04183,3.77043 2.06982,3.97339 C2.09782,4.17635 2.1818,4.27783 2.32178,4.27783 C2.37777,4.13786 2.41276,4.04688 2.42676,4.00488 C2.44076,3.96289 2.48275,3.83691 2.55273,3.62695 C2.60872,3.51497 2.60522,3.40999 2.54224,3.31201 C2.47925,3.21403 2.48275,3.09505 2.55273,2.95508 C2.55273,3.34701 2.67871,3.57096 2.93066,3.62695 C2.93066,3.48698 2.94466,3.361 2.97266,3.24902 C3.00065,3.13704 3.01465,3.01807 3.01465,2.89209 C3.01465,2.72412 2.98665,2.58415 2.93066,2.47217 C2.87467,2.36019 2.87467,2.18522 2.93066,1.94727 C2.93066,2.3252 2.95866,2.52816 3.01465,2.55615 C3.15462,2.06624 3.22461,1.7653 3.22461,1.65332 C3.22461,1.56934 3.22461,1.50635 3.22461,1.46436 C3.22461,1.42236 3.19661,1.33138 3.14063,1.19141 C3.14063,0.953451 3.07064,0.778483 2.93066,0.666504 C3.07064,0.722493 3.16862,0.722493 3.22461,0.666504 C3.11263,0.58252 3.02865,0.439046 2.97266,0.236084 C2.91667,0.0331217 2.83268,-0.138346 2.7207,-0.27832 C2.63672,-0.474284 2.41976,-0.705241 2.06982,-0.971191 C2.12581,-0.971191 2.16781,-0.985189 2.1958,-1.01318 C2.2238,-1.01318 2.23779,-1.02718 2.23779,-1.05518 C2.09782,-1.05518 1.98584,-1.07617 1.90186,-1.11816 C1.81787,-1.16016 1.69889,-1.20915 1.54492,-1.26514 C1.54492,-1.40511 1.48893,-1.53809 1.37695,-1.66406 C1.32096,-1.66406 1.28597,-1.62557 1.27197,-1.54858 C1.25798,-1.4716 1.22298,-1.40511 1.16699,-1.34912 C1.111,-1.34912 1.08301,-1.36312 1.08301,-1.39111 C1.08301,-1.41911 1.05501,-1.40511 0.999023,-1.34912 C0.887044,-1.34912 0.817057,-1.32113 0.789063,-1.26514 C0.761068,-1.20915 0.698079,-1.15316 0.600098,-1.09717 C0.572103,-1.09717 0.509115,-1.09717 0.411133,-1.09717 C0.313151,-1.09717 0.236165,-1.08317 0.180176,-1.05518 C0.0681966,-1.05518 0.012207,-0.999186 0.012207,-0.887207 C-0.253743,-0.775228 -0.456706,-0.670247 -0.59668,-0.572266 C-0.59668,-0.460286 -0.568685,-0.404297 -0.512695,-0.404297 C-0.54069,-0.320313 -0.512695,-0.236328 -0.428711,-0.152344 C-0.400716,-0.0963542 -0.358724,-0.0403646 -0.302734,0.015625 L-0.197754,0.015625 L-0.197754,0.0576172 C-0.197754,0.085612 -0.169759,0.0996094 -0.11377,0.0996094 C-0.267741,0.155599 -0.393717,0.20109 -0.491699,0.236084 C-0.589681,0.271077 -0.708659,0.288574 -0.848633,0.288574 C-1.14258,0.288574 -1.28955,0.183594 -1.28955,-0.0263672 C-1.28955,-0.110352 -1.28255,-0.17334 -1.26855,-0.215332 C-1.25456,-0.257324 -1.24756,-0.292318 -1.24756,-0.320313 C-1.27555,-0.320313 -1.31755,-0.292318 -1.37354,-0.236328 C-1.42952,-0.180339 -1.45752,-0.0963542 -1.45752,0.015625 C-1.45752,0.197591 -1.38403,0.323568 -1.23706,0.393555 C-1.09009,0.463542 -0.960612,0.498535 -0.848633,0.498535 C-0.708659,0.498535 -0.589681,0.484538 -0.491699,0.456543 C-0.393717,0.428548 -0.267741,0.400553 -0.11377,0.372559 L-0.197754,0.414551 L-0.302734,0.414551 C-0.302734,0.52653 -0.267741,0.610514 -0.197754,0.666504 C-0.197754,0.722493 -0.232747,0.764486 -0.302734,0.79248 C-0.302734,0.820475 -0.288737,0.834473 -0.260742,0.834473 L-0.197754,0.79248 C-0.197754,0.84847 -0.183757,0.876465 -0.155762,0.876465 C-0.127767,0.876465 -0.0997721,0.90446 -0.0717773,0.960449 L-0.0297852,0.918457 C-0.00179036,0.918457 0.0192057,0.911458 0.0332031,0.897461 C0.0472005,0.883464 0.0681966,0.876465 0.0961914,0.876465 C-0.0157878,0.820475 -0.0717773,0.750488 -0.0717773,0.666504 C0.152181,0.750488 0.334147,0.750488 0.474121,0.666504 C0.530111,0.778483 0.523112,0.869466 0.453125,0.939453 C0.383138,1.00944 0.306152,1.05843 0.222168,1.08643 C-0.267741,1.05843 -0.635173,1.12492 -0.880127,1.28589 C-1.12508,1.44686 -1.26156,1.59733 -1.28955,1.7373 L-1.28955,1.82129 C-1.42952,1.7373 -1.5625,1.65332 -1.68848,1.56934 C-1.81445,1.48535 -1.94043,1.38737 -2.06641,1.27539 C-2.06641,1.2194 -2.06641,1.15291 -2.06641,1.07593 C-2.06641,0.998942 -2.0944,0.932454 -2.15039,0.876465 C-2.15039,0.820475 -2.18538,0.778483 -2.25537,0.750488 C-2.32536,0.722493 -2.41634,0.666504 -2.52832,0.58252 C-2.55632,0.52653 -2.59831,0.47054 -2.6543,0.414551 C-2.71029,0.358561 -2.76978,0.306071 -2.83276,0.25708 C-2.89575,0.208089 -2.95524,0.183594 -3.01123,0.183594 L-3.05322,0.288574 C-3.08122,0.288574 -3.10921,0.267578 -3.13721,0.225586 C-3.1652,0.225586 -3.1932,0.218587 -3.22119,0.20459 C-3.24919,0.190592 -3.27718,0.183594 -3.30518,0.183594 C-3.33317,0.183594 -3.36117,0.197591 -3.38916,0.225586 L-3.43115,0.288574 C-3.45915,0.288574 -3.50114,0.267578 -3.55713,0.225586 C-3.61312,0.225586 -3.65511,0.218587 -3.68311,0.20459 C-3.7111,0.190592 -3.7391,0.183594 -3.76709,0.183594 C-3.80908,0.183594 -3.84408,0.215088 -3.87207,0.278076 C-3.90007,0.341064 -3.91406,0.386556 -3.91406,0.414551 C-3.94206,0.414551 -3.98405,0.442546 -4.04004,0.498535 L-4.12402,0.58252 L-4.12402,0.666504 C-4.18001,0.722493 -4.21501,0.785482 -4.229,0.855469 C-4.243,0.925456 -4.20801,0.988444 -4.12402,1.04443 C-4.12402,1.01644 -4.08203,0.960449 -3.99805,0.876465 L-3.91406,0.960449 L-3.91406,1.04443 L-3.83008,1.04443 L-3.59912,1.04443 L-3.51514,1.04443 L-2.92725,1.04443 L-2.92725,1.2334 L-2.92725,1.27539 C-3.01123,1.33138 -3.05322,1.42936 -3.05322,1.56934 C-3.02523,1.56934 -3.01123,1.55534 -3.01123,1.52734 C-3.01123,1.49935 -2.98324,1.48535 -2.92725,1.48535 C-2.85726,1.54134 -2.82227,1.59733 -2.82227,1.65332 L-2.82227,1.7373 C-2.89225,1.84928 -2.91675,1.96476 -2.89575,2.08374 C-2.87476,2.20272 -2.92725,2.2902 -3.05322,2.34619 C-2.92725,2.37419 -2.80827,2.33219 -2.69629,2.22021 C-2.75228,2.3042 -2.78727,2.36719 -2.80127,2.40918 C-2.81527,2.45117 -2.85726,2.50016 -2.92725,2.55615 C-2.71729,2.66813 -2.52832,2.57015 -2.36035,2.26221 C-2.44434,2.48617 -2.55632,2.66813 -2.69629,2.80811 C-2.6123,2.8641 -2.51432,2.8641 -2.40234,2.80811 C-2.29036,2.75212 -2.23438,2.69613 -2.23438,2.64014 C-2.23438,2.69613 -2.24837,2.76961 -2.27637,2.8606 C-2.30436,2.95158 -2.31836,3.03906 -2.31836,3.12305 C-2.31836,3.15104 -2.32536,3.17204 -2.33936,3.18604 C-2.35335,3.20003 -2.36035,3.22103 -2.36035,3.24902 L-2.36035,3.29102 C-2.55632,3.40299 -2.68929,3.56047 -2.75928,3.76343 C-2.82926,3.96639 -2.82227,4.13786 -2.73828,4.27783 C-2.71029,4.33382 -2.6403,4.36182 -2.52832,4.36182 C-2.38835,4.27783 -2.26937,4.21484 -2.17139,4.17285 C-2.0734,4.13086 -1.98942,4.08187 -1.91943,4.02588 C-1.89144,4.02588 -1.86344,4.01188 -1.83545,3.98389 C-1.77946,3.9279 -1.72347,3.8999 -1.66748,3.8999 C-1.61149,3.82992 -1.47502,3.72493 -1.25806,3.58496 C-1.0411,3.44499 -0.904622,3.34701 -0.848633,3.29102 C-0.904622,3.34701 -1.0271,3.47648 -1.21606,3.67944 C-1.40503,3.88241 -1.5555,3.99788 -1.66748,4.02588 C-1.72347,4.02588 -1.76546,4.05387 -1.79346,4.10986 C-1.82145,4.16585 -1.86344,4.22184 -1.91943,4.27783 C-1.98942,4.27783 -2.19238,4.34782 -2.52832,4.48779 C-2.58431,4.54378 -2.66479,4.53678 -2.76978,4.4668 C-2.87476,4.39681 -2.92725,4.37581 -2.92725,4.40381 L-3.01123,4.40381 C-3.09521,4.40381 -3.1512,4.4318 -3.1792,4.48779 C-3.1512,4.48779 -3.12321,4.50179 -3.09521,4.52979 C-3.06722,4.55778 -3.03923,4.57178 -3.01123,4.57178 C-3.03923,4.65576 -3.02523,4.73275 -2.96924,4.80273 C-2.94124,4.83073 -2.92725,4.85872 -2.92725,4.88672 C-2.92725,4.9707 -2.94124,5.06868 -2.96924,5.18066 C-3.02523,5.40462 -3.03923,5.5306 -3.01123,5.55859 L-3.01123,5.66357 C-3.03923,5.69157 -3.05322,5.73356 -3.05322,5.78955 L-3.05322,5.83154 C-3.05322,5.83154 -3.03923,5.83154 -3.01123,5.83154 C-3.01123,5.85954 -2.98324,5.90153 -2.92725,5.95752 L-3.01123,6.0415 C-3.01123,6.0695 -3.01823,6.09049 -3.03223,6.10449 C-3.04622,6.11849 -3.05322,6.13949 -3.05322,6.16748 L-3.05322,6.20947 L-3.01123,6.20947 C-3.01123,6.23747 -2.98324,6.27946 -2.92725,6.33545 C-2.98324,6.39144 -3.01123,6.45443 -3.01123,6.52441 L-3.01123,6.65039 L-3.01123,6.6084 C-3.01123,6.6084 -2.98324,6.5944 -2.92725,6.56641 C-2.82926,6.56641 -2.72428,6.52791 -2.6123,6.45093 C-2.50033,6.37394 -2.44434,6.26546 -2.44434,6.12549 C-2.38835,6.0415 -2.33936,5.97152 -2.29736,5.91553 C-2.25537,5.85954 -2.26237,5.71257 -2.31836,5.47461 C-2.0804,5.33464 -1.89844,5.24365 -1.77246,5.20166 C-1.64648,5.15967 -1.48551,5.11068 -1.28955,5.05469 L-1.24756,5.05469 L-1.20557,5.05469 L-1.16357,5.05469 C-1.16357,5.08268 -1.14258,5.11068 -1.10059,5.13867 C-1.10059,5.16667 -1.08659,5.18066 -1.05859,5.18066 C-1.08659,5.20866 -1.12158,5.22266 -1.16357,5.22266 C-1.09359,5.36263 -0.995605,5.5061 -0.869629,5.65308 C-0.743652,5.80005 -0.582682,5.95752 -0.386719,6.12549 C-0.526693,5.98551 -0.673665,5.84904 -0.827637,5.71606 C-0.981608,5.58309 -1.10758,5.41862 -1.20557,5.22266 C-1.26156,5.25065 -1.32454,5.27165 -1.39453,5.28564 C-1.46452,5.29964 -1.52751,5.32064 -1.5835,5.34863 C-1.47152,5.55859 -1.32804,5.71257 -1.15308,5.81055 C-0.978109,5.90853 -0.799642,5.99951 -0.617676,6.0835 C-0.43571,6.16748 -0.257243,6.23747 -0.0822754,6.29346 C0.0926921,6.34945 0.250163,6.44043 0.390137,6.56641 C0.194173,6.53841 -0.0367839,6.53841 -0.302734,6.56641 C-0.232747,6.6224 -0.183757,6.65039 -0.155762,6.65039 C-0.127767,6.65039 -0.0997721,6.67839 -0.0717773,6.73438 C-0.477702,6.79036 -0.824137,6.90934 -1.11108,7.09131 C-1.39803,7.27327 -1.5415,7.53923 -1.5415,7.88916 C-1.5695,8.2111 -1.51351,8.43506 -1.37354,8.56104 C-1.23356,8.68701 -1.16357,8.81999 -1.16357,8.95996 C-1.16357,9.09993 -1.25456,9.25041 -1.43652,9.41138 C-1.61849,9.57235 -1.82845,9.8138 -2.06641,10.1357 C-2.15039,10.1357 -2.24137,10.1567 -2.33936,10.1987 C-2.43734,10.2407 -2.52832,10.2617 -2.6123,10.2617 L-2.6543,10.2197 C-2.68229,10.2197 -2.71029,10.2057 -2.73828,10.1777 C-2.79427,10.1777 -2.85376,10.1917 -2.91675,10.2197 C-2.97974,10.2477 -3.02523,10.2617 -3.05322,10.2617 L-3.22119,10.2617 C-3.27718,10.2617 -3.32617,10.3037 -3.36816,10.3877 C-3.41016,10.4717 -3.43115,10.5277 -3.43115,10.5557 L-3.43115,10.6396 C-3.51514,10.7236 -3.51514,10.8076 -3.43115,10.8916 L-3.43115,10.8496 C-3.43115,10.8496 -3.41715,10.8356 -3.38916,10.8076 L-3.22119,10.8076 C-3.22119,10.9616 -3.1932,11.0386 -3.13721,11.0386 L-3.09521,10.9756 C-3.09521,10.9476 -3.08822,10.9336 -3.07422,10.9336 C-3.06022,10.9336 -3.05322,10.9196 -3.05322,10.8916 C-3.02523,10.8916 -3.01123,10.8986 -3.01123,10.9126 C-3.01123,10.9266 -2.98324,10.9196 -2.92725,10.8916 C-2.92725,10.9896 -2.89225,11.0666 -2.82227,11.1226 C-2.82227,11.1785 -2.78027,11.2485 -2.69629,11.3325 L-2.69629,11.2905 L-2.6123,11.2065 C-2.44434,11.2065 -2.31836,11.1016 -2.23438,10.8916 L-2.15039,10.8916 C-2.0944,10.9476 -2.03141,10.9966 -1.96143,11.0386 C-1.84945,11.0946 -1.77946,11.1226 -1.75146,11.1226 C-1.69548,11.1785 -1.66748,11.2205 -1.66748,11.2485 C-1.66748,11.2765 -1.63949,11.3045 -1.5835,11.3325 C-1.5555,11.2765 -1.52751,11.203 -1.49951,11.1121 C-1.47152,11.0211 -1.45752,10.9476 -1.45752,10.8916 L-1.37354,10.8916 C-1.37354,10.8076 -1.35954,10.7376 -1.33154,10.6816 C-1.30355,10.6257 -1.31755,10.5697 -1.37354,10.5137 C-1.26156,10.2897 -1.12858,10.1637 -0.974609,10.1357 C-0.86263,10.3877 -0.708659,10.4857 -0.512695,10.4297 C-0.568685,10.3737 -0.59668,10.3107 -0.59668,10.2407 C-0.59668,10.1707 -0.624674,10.1007 -0.680664,10.0308 C-0.568685,10.2127 -0.407715,10.2617 -0.197754,10.1777 C-0.32373,10.0798 -0.386719,9.98877 -0.386719,9.90479 C-0.302734,10.0168 -0.197754,10.0588 -0.0717773,10.0308 C-0.197754,9.91878 -0.236247,9.8488 -0.187256,9.8208 C-0.138265,9.79281 -0.176758,9.73682 -0.302734,9.65283 C-0.176758,9.56885 -0.0577799,9.48486 0.0541992,9.40088 C0.166178,9.31689 0.222168,9.19792 0.222168,9.04395 C0.194173,8.95996 0.138184,8.93197 0.0541992,8.95996 C-0.0297852,8.98796 -0.0717773,8.95996 -0.0717773,8.87598 C-0.0997721,8.736 -0.078776,8.62402 -0.00878906,8.54004 C0.0611979,8.45605 0.124186,8.40007 0.180176,8.37207 C0.292155,8.27409 0.414632,8.2181 0.547607,8.2041 C0.680583,8.1901 0.789063,8.18311 0.873047,8.18311 C0.929036,8.33708 0.971029,8.48405 0.999023,8.62402 C1.02702,8.764 1.08301,8.90397 1.16699,9.04395 C1.39095,9.2819 1.63241,9.44287 1.89136,9.52686 C2.15031,9.61084 2.32178,9.75081 2.40576,9.94678 C2.64372,10.3807 2.64372,10.8006 2.40576,11.2065 C2.34977,11.2065 2.29378,11.2345 2.23779,11.2905 C2.2098,11.3185 2.1818,11.3325 2.15381,11.3325 L2.11182,11.3325 C2.08382,11.3325 2.05583,11.3185 2.02783,11.2905 C1.94385,11.2905 1.88086,11.2975 1.83887,11.3115 C1.79688,11.3255 1.74788,11.3325 1.69189,11.3325 C1.69189,11.3045 1.6429,11.2905 1.54492,11.2905 C1.40495,11.2905 1.30697,11.4025 1.25098,11.6265 C1.25098,11.6825 1.26497,11.7384 1.29297,11.7944 L1.25098,11.7944 C1.25098,11.8644 1.26497,11.9344 1.29297,12.0044 C1.32096,12.0744 1.37695,12.1374 1.46094,12.1934 L1.46094,11.8994 L1.46094,11.8364 C1.46094,11.8364 1.48893,11.8224 1.54492,11.7944 C1.54492,11.9204 1.57992,11.9974 1.6499,12.0254 C1.6779,12.0814 1.70589,12.1374 1.73389,12.1934 C1.76188,12.2493 1.80387,12.3053 1.85986,12.3613 L1.85986,12.0254 C1.97184,12.0254 2.02783,12.0114 2.02783,11.9834 C2.02783,12.0394 2.06982,12.1094 2.15381,12.1934 C2.15381,12.3053 2.1818,12.3753 2.23779,12.4033 C2.29378,12.3753 2.32178,12.3053 2.32178,12.1934 C2.34977,12.1934 2.42676,12.1374 2.55273,12.0254 C2.63672,12.1094 2.7347,12.0674 2.84668,11.8994 C3.04264,12.0394 3.16862,12.0814 3.22461,12.0254 L3.22461,12.2773 C3.30859,12.1934 3.36108,12.1234 3.38208,12.0674 C3.40308,12.0114 3.41357,11.9204 3.41357,11.7944 C3.41357,11.8644 3.44157,11.8644 3.49756,11.7944 C3.49756,11.7104 3.49756,11.5985 3.49756,11.4585 C3.49756,11.3185 3.46956,11.1785 3.41357,11.0386 C3.46956,11.0946 3.55355,11.1156 3.66553,11.1016 C3.77751,11.0876 3.86149,11.0176 3.91748,10.8916 C3.77751,10.8916 3.65153,10.8356 3.53955,10.7236 C3.67952,10.7796 3.77051,10.7866 3.8125,10.7446 C3.85449,10.7026 3.91748,10.6396 4.00146,10.5557 C3.8055,10.5557 3.65153,10.5137 3.53955,10.4297 C3.76351,10.5417 3.91748,10.5137 4.00146,10.3457 L3.7915,10.3457 C3.73551,10.2897 3.69352,10.2407 3.66553,10.1987 C3.63753,10.1567 3.59554,10.1357 3.53955,10.1357 C3.53955,10.0378 3.56055,9.89079 3.60254,9.69482 C3.64453,9.49886 3.60954,9.35889 3.49756,9.2749 C3.37158,9.52686 3.15462,9.49186 2.84668,9.16992 L2.84668,8.18311 C2.90267,8.2391 2.97266,8.26709 3.05664,8.26709 C3.14063,8.26709 3.22461,8.26709 3.30859,8.26709 C3.43457,8.26709 3.54655,8.24609 3.64453,8.2041 C3.74251,8.16211 3.8055,8.08512 3.8335,7.97314 C3.88949,7.97314 3.91748,7.95915 3.91748,7.93115 C3.91748,7.90316 3.94548,7.86117 4.00146,7.80518 C4.05745,7.86117 4.07845,7.92415 4.06445,7.99414 C4.05046,8.06413 4.00146,8.09912 3.91748,8.09912 C3.86149,8.18311 3.88949,8.24259 4.00146,8.27759 C4.11344,8.31258 4.18343,8.28109 4.21143,8.18311 C4.3654,8.04313 4.3514,7.91715 4.16943,7.80518 C4.29541,7.88916 4.41439,7.90316 4.52637,7.84717 C4.63835,7.79118 4.69434,7.70719 4.69434,7.59521 C4.69434,7.44124 4.65934,7.32926 4.58936,7.25928 C4.51937,7.18929 4.37939,7.19629 4.16943,7.28027 C4.26742,7.28027 4.31641,7.35726 4.31641,7.51123 M0.999023,1.56934 C0.677083,1.70931 0.411133,1.87378 0.201172,2.06274 C-0.00878906,2.25171 -0.232747,2.37419 -0.470703,2.43018 C-0.176758,2.34619 0.0751953,2.20272 0.285156,1.99976 C0.495117,1.79679 0.733073,1.65332 0.999023,1.56934 M0.180176,4.36182 C0.0681966,4.36182 0.0681966,4.30583 0.180176,4.19385 C0.180176,4.27783 0.208171,4.34782 0.26416,4.40381 C0.292155,4.4318 0.306152,4.4598 0.306152,4.48779 C0.306152,4.57178 0.26416,4.64526 0.180176,4.70825 C0.0961914,4.77124 0.012207,4.83073 -0.0717773,4.88672 C-0.155762,4.88672 -0.21875,4.87272 -0.260742,4.84473 C-0.288737,4.84473 -0.302734,4.83073 -0.302734,4.80273 C-0.232747,4.73275 -0.148763,4.65576 -0.0507813,4.57178 C0.0472005,4.48779 0.124186,4.41781 0.180176,4.36182 M-0.0717773,8.09912 C0.124186,7.84717 0.411133,7.72119 0.789063,7.72119 C0.523112,7.72119 0.236165,7.84717 -0.0717773,8.09912 M10.2373,-7.08105 C10.5592,-6.8431 10.7342,-6.56665 10.7622,-6.25171 C10.7902,-5.93677 10.7342,-5.66732 10.5942,-5.44336 C10.3563,-5.12142 9.99235,-5.00244 9.50244,-5.08643 L8.05371,-3.11279 L9.25049,-2.12598 L8.78857,-1.4751 L7.36084,-2.48291 L6.37402,-1.09717 C7.08789,-0.747233 7.89274,-0.488281 8.78857,-0.320313 C9.09652,-0.208333 9.25049,0.0086263 9.25049,0.330566 L9.25049,2.95508 C9.25049,5.04069 8.90755,6.85685 8.22168,8.40356 C7.53581,9.95028 6.68896,11.2695 5.68115,12.3613 L6.87793,13.873 L6.98291,15.1958 L5.72314,14.7759 L4.69434,13.3481 C4.00846,13.95 3.33659,14.4434 2.67871,14.8284 C2.02083,15.2133 1.40495,15.5247 0.831055,15.7627 C0.775065,15.7627 0.69458,15.7767 0.5896,15.8047 C0.484619,15.8327 0.390137,15.8467 0.306152,15.8467 C0.222168,15.8467 0.138184,15.8327 0.0541992,15.8047 C-0.0297852,15.7767 -0.0997721,15.7627 -0.155762,15.7627 C-0.729655,15.5247 -1.37004,15.2133 -2.0769,14.8284 C-2.78377,14.4434 -3.46615,13.95 -4.12402,13.3481 C-4.29199,13.5861 -4.46346,13.8241 -4.63843,14.062 C-4.8134,14.3 -4.99886,14.5379 -5.19482,14.7759 L-6.3916,15.1958 L-6.34961,13.873 L-5.11084,12.3613 C-6.11865,11.2695 -6.9585,9.95028 -7.63037,8.40356 C-8.30225,6.85685 -8.63818,5.04069 -8.63818,2.95508 L-8.63818,0.330566 C-8.63818,0.1486 -8.58919,0.0086263 -8.49121,-0.0893555 C-8.39323,-0.187337 -8.28125,-0.264323 -8.15527,-0.320313 C-7.73535,-0.404297 -7.32943,-0.505778 -6.9375,-0.624756 C-6.54557,-0.743734 -6.19564,-0.887207 -5.8877,-1.05518 L-6.9165,-2.48291 L-8.19727,-1.4751 L-8.80615,-2.12598 L-7.4834,-3.11279 L-8.97412,-5.08643 C-9.43604,-4.97445 -9.81396,-5.09342 -10.1079,-5.44336 C-10.2759,-5.66732 -10.3249,-5.93677 -10.2549,-6.25171 C-10.1849,-6.56665 -10.0309,-6.8431 -9.79297,-7.08105 C-9.48503,-7.27702 -9.17358,-7.354 -8.85864,-7.31201 C-8.5437,-7.27002 -8.30924,-7.13005 -8.15527,-6.89209 C-7.93132,-6.58415 -7.90332,-6.19922 -8.07129,-5.7373 L-6.58057,-3.76367 L-5.36279,-4.83447 L-4.7749,-4.09961 L-6.09766,-3.11279 C-5.8737,-2.86084 -5.66724,-2.60539 -5.47827,-2.34644 C-5.28931,-2.08748 -5.11084,-1.84603 -4.94287,-1.62207 C-4.42497,-1.986 -4.03304,-2.35693 -3.76709,-2.73486 C-3.62712,-2.95882 -3.49414,-3.23527 -3.36816,-3.56421 C-3.24219,-3.89315 -3.22119,-4.26058 -3.30518,-4.6665 C-3.30518,-4.94645 -3.24919,-5.14941 -3.13721,-5.27539 C-2.89925,-5.38737 -2.73828,-5.44336 -2.6543,-5.44336 L-2.57031,-5.44336 C-2.23438,-5.41536 -1.90544,-5.38737 -1.5835,-5.35938 C-1.30355,-5.33138 -0.995605,-5.31038 -0.659668,-5.29639 C-0.32373,-5.28239 -0.00179036,-5.27539 0.306152,-5.27539 C0.600098,-5.27539 0.918538,-5.28239 1.26147,-5.29639 C1.60441,-5.31038 1.91585,-5.33138 2.1958,-5.35938 C2.51774,-5.38737 2.84668,-5.41536 3.18262,-5.44336 L3.2666,-5.44336 C3.36458,-5.44336 3.44857,-5.42936 3.51855,-5.40137 C3.58854,-5.37337 3.66553,-5.33138 3.74951,-5.27539 C3.8055,-5.19141 3.84749,-5.10392 3.87549,-5.01294 C3.90348,-4.92196 3.91748,-4.80648 3.91748,-4.6665 C3.8335,-4.26058 3.85449,-3.89315 3.98047,-3.56421 C4.10645,-3.23527 4.26042,-2.95882 4.44238,-2.73486 C4.66634,-2.38493 5.00928,-2.02799 5.47119,-1.66406 C5.66715,-1.88802 5.85962,-2.12248 6.04858,-2.36743 C6.23755,-2.61239 6.43001,-2.86084 6.62598,-3.11279 L5.26123,-4.09961 L5.80713,-4.83447 L7.15088,-3.76367 L8.59961,-5.7373 C8.34766,-6.17122 8.34766,-6.55615 8.59961,-6.89209 C8.83757,-7.13005 9.11401,-7.27002 9.42896,-7.31201 C9.7439,-7.354 10.0133,-7.27702 10.2373,-7.08105 M8.59961,0.330566 C7.80176,0.176595 7.0599,-0.06486 6.37402,-0.393799 C5.68815,-0.722738 5.09326,-1.11466 4.58936,-1.56958 C4.08545,-2.0245 3.71102,-2.5319 3.46606,-3.0918 C3.22111,-3.65169 3.15462,-4.23258 3.2666,-4.83447 C2.93066,-4.77848 2.58773,-4.73649 2.23779,-4.7085 C1.92985,-4.65251 1.60441,-4.61751 1.26147,-4.60352 C0.918538,-4.58952 0.600098,-4.58252 0.306152,-4.58252 C-0.37972,-4.58252 -1.0236,-4.62451 -1.62549,-4.7085 C-1.97542,-4.73649 -2.31836,-4.77848 -2.6543,-4.83447 C-2.54232,-4.23258 -2.60881,-3.65169 -2.85376,-3.0918 C-3.09871,-2.5319 -3.46265,-2.0245 -3.94556,-1.56958 C-4.42847,-1.11466 -5.02336,-0.722738 -5.73022,-0.393799 C-6.43709,-0.06486 -7.18945,0.176595 -7.9873,0.330566 L-7.9873,2.95508 C-7.9873,4.71875 -7.72835,6.28996 -7.21045,7.6687 C-6.69255,9.04744 -6.03467,10.2372 -5.23682,11.238 C-4.43896,12.2389 -3.58162,13.0647 -2.66479,13.7156 C-1.74797,14.3665 -0.869629,14.8319 -0.0297852,15.1118 C0.0262044,15.1678 0.082194,15.1958 0.138184,15.1958 C0.194173,15.1958 0.250163,15.1958 0.306152,15.1958 C0.362142,15.1958 0.418132,15.1958 0.474121,15.1958 C0.530111,15.1958 0.5861,15.1678 0.64209,15.1118 C1.45394,14.8319 2.32528,14.3665 3.2561,13.7156 C4.18693,13.0647 5.05477,12.2389 5.85962,11.238 C6.66447,10.2372 7.32235,9.04744 7.83325,7.6687 C8.34416,6.28996 8.59961,4.71875 8.59961,2.95508 L8.59961,0.330566"/>
</g>

<g fill="#ec1d24" fill-opacity="1" stroke="none" transform="matrix(1,0,0,1,0,0)"
font-family="MS Shell Dlg 2" font-size="7.8" font-weight="400" font-style="normal" 
>
</g>
</g>
</svg>
