<?xml version="1.0" encoding="UTF-8" standalone="no"?>
<svg width="11.2889mm" height="11.2889mm"
 viewBox="0 0 32 32"
 xmlns="http://www.w3.org/2000/svg" xmlns:xlink="http://www.w3.org/1999/xlink"  version="1.2" baseProfile="tiny">
<title>Qt SVG Document</title>
<desc>Generated with Qt</desc>
<defs>
</defs>
<g fill="none" stroke="black" stroke-width="1" fill-rule="evenodd" stroke-linecap="square" stroke-linejoin="bevel" >

<g fill="#6fa56c" fill-opacity="1" stroke="none" transform="matrix(1,0,0,1,0,0)"
font-family="MS Shell Dlg 2" font-size="7.8" font-weight="400" font-style="normal" 
>
<path vector-effect="non-scaling-stroke" fill-rule="evenodd" d="M37.2598,16 C37.2598,27.7415 27.7415,37.2598 16,37.2598 C4.25851,37.2598 -5.25984,27.7415 -5.25984,16 C-5.25984,4.25851 4.25851,-5.25984 16,-5.25984 C27.7415,-5.25984 37.2598,4.25851 37.2598,16 "/>
</g>

<g fill="#ffffff" fill-opacity="0.94902" stroke="none" transform="matrix(1,0,0,1,16,11.4646)"
font-family="MS Shell Dlg 2" font-size="7.8" font-weight="400" font-style="normal" 
>
<path vector-effect="none" fill-rule="evenodd" d="M4.32031,-6.26221 L0.499023,-5.2334 L0.499023,-7.29102 L4.32031,-6.26221 M11.417,-4.62451 L7.5957,-3.23877 L7.5957,-5.98926 L11.417,-4.62451 M-2.69238,-4.62451 L-6.51367,-3.23877 L-6.51367,-5.98926 L-2.69238,-4.62451 M12.3618,12.4453 C12.7118,12.4453 12.8867,12.6203 12.8867,12.9702 C12.8867,13.1102 12.8342,13.2292 12.7292,13.3271 C12.6243,13.4251 12.5018,13.4741 12.3618,13.4741 L-13.3164,13.4741 C-13.4564,13.4741 -13.5754,13.4251 -13.6733,13.3271 C-13.7713,13.2292 -13.8203,13.1102 -13.8203,12.9702 C-13.8203,12.6203 -13.6523,12.4453 -13.3164,12.4453 L-11.6367,12.4453 L-11.6367,6.37744 C-11.6367,4.75374 -11.3148,3.368 -10.6709,2.22021 C-10.027,1.07243 -9.15918,0.141602 -8.06738,-0.572266 L-8.06738,-5.98926 L-7.03857,-5.98926 L-7.03857,-1.18115 C-6.17074,-1.61507 -5.22941,-1.94051 -4.2146,-2.15747 C-3.19979,-2.37443 -2.13249,-2.5109 -1.0127,-2.56689 L-1.0127,-7.29102 L0.0581055,-7.29102 L0.0581055,-2.56689 C1.1779,-2.5109 2.2487,-2.37443 3.27051,-2.15747 C4.29232,-1.94051 5.23014,-1.61507 6.08398,-1.18115 L6.08398,-5.98926 L7.11279,-5.98926 L7.11279,-0.572266 C8.20459,0.141602 9.07243,1.07243 9.71631,2.22021 C10.3602,3.368 10.6821,4.75374 10.6821,6.37744 L10.6821,12.4453 L12.3618,12.4453 M-7.9834,8.75 L-10.4609,8.75 L-10.4609,11.2065 L-7.9834,11.2065 L-7.9834,8.75 M-7.9834,5.30664 L-10.4609,5.30664 L-10.4609,7.46924 L-7.9834,7.46924 L-7.9834,5.30664 M-4.49805,8.75 L-6.93359,8.75 L-6.93359,11.2065 L-4.49805,11.2065 L-4.49805,8.75 M-4.49805,5.30664 L-6.93359,5.30664 L-6.93359,7.46924 L-4.49805,7.46924 L-4.49805,5.30664 M2.34668,3.62695 C2.34668,2.8571 2.07373,2.19922 1.52783,1.65332 C0.981934,1.10742 0.310059,0.834473 -0.487793,0.834473 C-1.27165,0.834473 -1.93302,1.10742 -2.47192,1.65332 C-3.01082,2.19922 -3.28027,2.8571 -3.28027,3.62695 L-3.28027,12.9702 L2.34668,12.9702 L2.34668,3.62695 M6,8.75 L3.54346,8.75 L3.54346,11.2065 L6,11.2065 L6,8.75 M6,5.30664 L3.54346,5.30664 L3.54346,7.46924 L6,7.46924 L6,5.30664 M9.48535,8.75 L7.02881,8.75 L7.02881,11.2065 L9.48535,11.2065 L9.48535,8.75 M9.48535,5.30664 L7.02881,5.30664 L7.02881,7.46924 L9.48535,7.46924 L9.48535,5.30664 M6.86084,15.1958 L-7.79443,15.1958 C-8.08838,15.1958 -8.23535,15.0558 -8.23535,14.7759 C-8.23535,14.4819 -8.08838,14.335 -7.79443,14.335 L6.86084,14.335 C7.14079,14.335 7.28076,14.4819 7.28076,14.7759 C7.28076,15.0558 7.14079,15.1958 6.86084,15.1958 "/>
</g>

<g fill="#6fa56c" fill-opacity="1" stroke="none" transform="matrix(1,0,0,1,0,0)"
font-family="MS Shell Dlg 2" font-size="7.8" font-weight="400" font-style="normal" 
>
</g>
</g>
</svg>
