<?xml version="1.0" encoding="UTF-8" standalone="no"?>
<svg width="11.25008mm" height="11.25008mm"
 viewBox="-5.3 -5.3 42.52000 42.52000"
 xmlns="http://www.w3.org/2000/svg" xmlns:xlink="http://www.w3.org/1999/xlink"  version="1.2" baseProfile="tiny">
<title>Qt SVG Document</title>
<desc>Generated with Qt</desc>
<defs>
</defs>
<g fill="none" stroke="black" stroke-width="1" fill-rule="evenodd" stroke-linecap="square" stroke-linejoin="bevel" >

<g fill="#6fa56c" fill-opacity="1" stroke="none" transform="matrix(1,0,0,1,0,0)"
font-family="MS Shell Dlg 2" font-size="7.8" font-weight="400" font-style="normal" 
>
<path vector-effect="non-scaling-stroke" fill-rule="evenodd" d="M37.2598,16 C37.2598,27.7415 27.7415,37.2598 16,37.2598 C4.25851,37.2598 -5.25984,27.7415 -5.25984,16 C-5.25984,4.25851 4.25851,-5.25984 16,-5.25984 C27.7415,-5.25984 37.2598,4.25851 37.2598,16 "/>
</g>

<g fill="#ffffff" fill-opacity="0.94902" stroke="none" transform="matrix(1,0,0,1,16,12.5984)"
font-family="MS Shell Dlg 2" font-size="7.8" font-weight="400" font-style="normal" 
>
<path vector-effect="none" fill-rule="evenodd" d="M-10.8638,1.2334 C-11.2977,1.07943 -11.5566,1.00244 -11.6406,1.00244 L-5.57275,-2.33594 L-7.21045,-5.2334 C-7.26644,-5.37337 -7.29443,-5.55534 -7.29443,-5.7793 C-7.29443,-6.07324 -7.21045,-6.3042 -7.04248,-6.47217 C-6.98649,-6.58415 -6.9165,-6.66113 -6.83252,-6.70313 C-6.74854,-6.74512 -6.66455,-6.79411 -6.58057,-6.8501 L-0.428711,-7.94189 C-0.246745,-7.94189 -0.0997721,-7.9279 0.012207,-7.8999 C0.292155,-7.82992 0.502116,-7.66895 0.64209,-7.41699 C0.740072,-7.13704 0.736572,-6.8606 0.631592,-6.58765 C0.526611,-6.3147 0.306152,-6.15023 -0.0297852,-6.09424 L-4.33398,-5.14941 L-0.680664,1.31738 C-0.820638,1.37337 -0.950114,1.40137 -1.06909,1.40137 C-1.18807,1.40137 -1.31755,1.40137 -1.45752,1.40137 C-1.59749,1.40137 -1.76196,1.39437 -1.95093,1.38037 C-2.13989,1.36637 -2.33236,1.31738 -2.52832,1.2334 C-2.75228,1.10742 -2.95874,1.02344 -3.14771,0.981445 C-3.33667,0.939453 -3.47314,0.918457 -3.55713,0.918457 C-3.90706,0.918457 -4.29899,1.02344 -4.73291,1.2334 C-4.95687,1.28939 -5.15283,1.33138 -5.3208,1.35938 C-5.48877,1.38737 -5.64974,1.40137 -5.80371,1.40137 C-5.94368,1.40137 -6.09066,1.38737 -6.24463,1.35938 C-6.3986,1.33138 -6.59456,1.28939 -6.83252,1.2334 C-7.26644,1.02344 -7.62337,0.918457 -7.90332,0.918457 C-8.25326,0.918457 -8.63818,1.02344 -9.05811,1.2334 C-9.26807,1.28939 -9.45703,1.33138 -9.625,1.35938 C-9.79297,1.38737 -9.95394,1.40137 -10.1079,1.40137 C-10.2479,1.40137 -10.3879,1.39437 -10.5278,1.38037 C-10.6678,1.36637 -10.7798,1.31738 -10.8638,1.2334 M12.001,3.50098 C12.6868,3.69694 13.2607,3.79492 13.7227,3.79492 L13.7227,5.5166 C13.2607,5.5166 12.6868,5.41862 12.001,5.22266 C11.665,5.16667 11.3606,5.11068 11.0876,5.05469 C10.8147,4.9987 10.5732,4.9987 10.3633,5.05469 C10.1113,4.9987 9.84188,4.9917 9.55493,5.03369 C9.26799,5.07568 8.94954,5.13867 8.59961,5.22266 C7.91374,5.41862 7.33984,5.5166 6.87793,5.5166 C6.45801,5.5166 5.89111,5.41862 5.17725,5.22266 C4.39339,5.05469 3.84749,4.9707 3.53955,4.9707 C3.04964,4.9707 2.44775,5.05469 1.73389,5.22266 C1.104,5.41862 0.558105,5.5166 0.0961914,5.5166 C-0.169759,5.46061 -0.428711,5.42562 -0.680664,5.41162 C-0.932617,5.39762 -1.26156,5.33464 -1.66748,5.22266 C-2.43734,5.05469 -3.01123,4.9707 -3.38916,4.9707 C-3.61312,4.9707 -3.85457,4.9917 -4.11353,5.03369 C-4.37248,5.07568 -4.70492,5.13867 -5.11084,5.22266 C-5.51676,5.27865 -5.8562,5.32764 -6.12915,5.36963 C-6.4021,5.41162 -6.63656,5.46061 -6.83252,5.5166 C-7.02848,5.46061 -7.26994,5.41162 -7.55688,5.36963 C-7.84383,5.32764 -8.19027,5.27865 -8.59619,5.22266 C-9.25407,5.05469 -9.82796,4.9707 -10.3179,4.9707 C-10.5138,4.9707 -10.7483,4.9847 -11.0212,5.0127 C-11.2942,5.04069 -11.6056,5.08268 -11.9556,5.13867 C-12.6694,5.33464 -13.2433,5.43262 -13.6772,5.43262 L-13.6772,3.71094 C-13.4673,3.71094 -13.2258,3.68294 -12.9529,3.62695 C-12.6799,3.57096 -12.3475,3.50098 -11.9556,3.41699 C-11.5496,3.33301 -11.2172,3.26302 -10.9583,3.20703 C-10.6993,3.15104 -10.4438,3.12305 -10.1919,3.12305 C-10.0099,3.12305 -9.77547,3.15104 -9.48853,3.20703 C-9.20158,3.26302 -8.86214,3.33301 -8.47021,3.41699 C-8.14827,3.50098 -7.84383,3.57096 -7.55688,3.62695 C-7.26994,3.68294 -7.02848,3.71094 -6.83252,3.71094 C-6.59456,3.71094 -6.33561,3.68294 -6.05566,3.62695 C-5.77572,3.57096 -5.46077,3.50098 -5.11084,3.41699 C-4.70492,3.33301 -4.37248,3.26302 -4.11353,3.20703 C-3.85457,3.15104 -3.61312,3.12305 -3.38916,3.12305 C-3.1932,3.12305 -2.95874,3.15104 -2.68579,3.20703 C-2.41284,3.26302 -2.0734,3.33301 -1.66748,3.41699 C-1.33154,3.50098 -1.0201,3.57096 -0.733154,3.62695 C-0.446208,3.68294 -0.169759,3.71094 0.0961914,3.71094 C0.292155,3.71094 0.526611,3.68994 0.799561,3.64795 C1.07251,3.60596 1.38395,3.55697 1.73389,3.50098 C2.44775,3.33301 3.04964,3.24902 3.53955,3.24902 C3.84749,3.24902 4.39339,3.33301 5.17725,3.50098 C5.56917,3.61296 5.89461,3.67594 6.15356,3.68994 C6.41252,3.70394 6.65397,3.71094 6.87793,3.71094 C7.25586,3.80892 7.82975,3.73893 8.59961,3.50098 C9.29948,3.33301 9.88737,3.24902 10.3633,3.24902 C10.7692,3.24902 11.3151,3.33301 12.001,3.50098 M-1.66748,-2.41992 C-1.66748,-2.96582 -1.48201,-3.42773 -1.11108,-3.80566 C-0.740153,-4.18359 -0.281738,-4.37256 0.26416,-4.37256 C0.838053,-4.37256 1.31746,-4.18359 1.70239,-3.80566 C2.08732,-3.42773 2.27979,-2.96582 2.27979,-2.41992 C2.27979,-1.86003 2.08732,-1.38411 1.70239,-0.992188 C1.31746,-0.60026 0.838053,-0.404297 0.26416,-0.404297 C-0.281738,-0.404297 -0.740153,-0.60026 -1.11108,-0.992188 C-1.48201,-1.38411 -1.66748,-1.86003 -1.66748,-2.41992 M10.8462,7.63721 C11.0422,7.74919 11.1821,7.81217 11.2661,7.82617 C11.3501,7.84017 11.4271,7.84717 11.4971,7.84717 L5.47119,11.2065 L7.10889,14.083 C7.16488,14.167 7.19287,14.265 7.19287,14.377 C7.19287,14.4889 7.19287,14.5799 7.19287,14.6499 C7.19287,14.7899 7.18587,14.9159 7.17188,15.0278 C7.15788,15.1398 7.09489,15.2378 6.98291,15.3218 C6.88493,15.4058 6.78695,15.4932 6.68896,15.5842 C6.59098,15.6752 6.5,15.7207 6.41602,15.7207 L0.26416,16.8755 C0.0961914,16.9035 -0.0437826,16.8895 -0.155762,16.8335 C-0.281738,16.8055 -0.407715,16.7495 -0.533691,16.6655 C-0.659668,16.5815 -0.750651,16.4486 -0.806641,16.2666 C-0.890625,16.0426 -0.883626,15.7942 -0.785645,15.5212 C-0.687663,15.2483 -0.463704,15.0558 -0.11377,14.9438 L4.31641,13.999 L0.558105,7.55322 C0.712077,7.55322 0.852051,7.53923 0.978027,7.51123 C1.104,7.48324 1.22298,7.46924 1.33496,7.46924 C1.6569,7.46924 2.02783,7.56722 2.44775,7.76318 C2.65771,7.81917 2.85368,7.86117 3.03564,7.88916 C3.21761,7.91715 3.38558,7.93115 3.53955,7.93115 C3.67952,7.93115 3.8265,7.91715 3.98047,7.88916 C4.13444,7.86117 4.3444,7.81917 4.61035,7.76318 C4.83431,7.6512 5.04077,7.57422 5.22974,7.53223 C5.4187,7.49023 5.55518,7.46924 5.63916,7.46924 C5.9891,7.46924 6.34603,7.56722 6.70996,7.76318 C6.94792,7.84717 7.16488,7.89616 7.36084,7.91016 C7.5568,7.92415 7.73177,7.93115 7.88574,7.93115 C8.02572,7.93115 8.17269,7.92415 8.32666,7.91016 C8.48063,7.89616 8.6766,7.84717 8.91455,7.76318 C9.33447,7.56722 9.69141,7.46924 9.98535,7.46924 C10.1253,7.46924 10.2688,7.48324 10.4158,7.51123 C10.5627,7.53923 10.7062,7.58122 10.8462,7.63721 M1.60791,11.2905 C1.60791,11.8644 1.40495,12.3438 0.999023,12.7288 C0.593099,13.1137 0.117188,13.3062 -0.428711,13.3062 C-1.0026,13.3062 -1.48201,13.1067 -1.86694,12.7078 C-2.25187,12.3088 -2.44434,11.8364 -2.44434,11.2905 C-2.44434,10.7726 -2.23787,10.3072 -1.82495,9.89429 C-1.41203,9.48136 -0.946615,9.2749 -0.428711,9.2749 C0.117188,9.2749 0.593099,9.48136 0.999023,9.89429 C1.40495,10.3072 1.60791,10.7726 1.60791,11.2905 "/>
</g>

<g fill="#6fa56c" fill-opacity="1" stroke="none" transform="matrix(1,0,0,1,0,0)"
font-family="MS Shell Dlg 2" font-size="7.8" font-weight="400" font-style="normal" 
>
</g>
</g>
</svg>
