<?xml version="1.0" encoding="UTF-8" standalone="no"?>
<svg width="11.2889mm" height="11.2889mm"
 viewBox="0 0 32 32"
 xmlns="http://www.w3.org/2000/svg" xmlns:xlink="http://www.w3.org/1999/xlink"  version="1.2" baseProfile="tiny">
<title>Qt SVG Document</title>
<desc>Generated with Qt</desc>
<defs>
</defs>
<g fill="none" stroke="black" stroke-width="1" fill-rule="evenodd" stroke-linecap="square" stroke-linejoin="bevel" >

<g fill="#6fa56c" fill-opacity="1" stroke="none" transform="matrix(1,0,0,1,0,0)"
font-family="MS Shell Dlg 2" font-size="7.8" font-weight="400" font-style="normal" 
>
<path vector-effect="non-scaling-stroke" fill-rule="evenodd" d="M37.2598,16 C37.2598,27.7415 27.7415,37.2598 16,37.2598 C4.25851,37.2598 -5.25984,27.7415 -5.25984,16 C-5.25984,4.25851 4.25851,-5.25984 16,-5.25984 C27.7415,-5.25984 37.2598,4.25851 37.2598,16 "/>
</g>

<g fill="#ffffff" fill-opacity="0.94902" stroke="none" transform="matrix(1,0,0,1,16,12.5984)"
font-family="MS Shell Dlg 2" font-size="7.8" font-weight="400" font-style="normal" 
>
<path vector-effect="none" fill-rule="evenodd" d="M-5.40479,13.0542 C-5.58675,13.0542 -5.67773,12.9702 -5.67773,12.8022 C-5.67773,12.6203 -5.58675,12.5293 -5.40479,12.5293 C-5.3488,12.5293 -5.28581,12.5503 -5.21582,12.5923 C-5.14583,12.6343 -5.11084,12.7043 -5.11084,12.8022 C-5.11084,12.8862 -5.14583,12.9492 -5.21582,12.9912 C-5.28581,13.0332 -5.3488,13.0542 -5.40479,13.0542 M-5.40479,11.2905 C-5.01286,11.2905 -4.65942,11.441 -4.34448,11.7419 C-4.02954,12.0429 -3.87207,12.3963 -3.87207,12.8022 C-3.87207,13.1942 -4.02954,13.5406 -4.34448,13.8416 C-4.65942,14.1425 -5.01286,14.293 -5.40479,14.293 C-5.8387,14.293 -6.19914,14.1425 -6.48608,13.8416 C-6.77303,13.5406 -6.9165,13.1942 -6.9165,12.8022 C-6.9165,12.3963 -6.77303,12.0429 -6.48608,11.7419 C-6.19914,11.441 -5.8387,11.2905 -5.40479,11.2905 M-4.94287,12.8022 C-4.94287,12.6483 -4.99186,12.5363 -5.08984,12.4663 C-5.18783,12.3963 -5.29281,12.3613 -5.40479,12.3613 C-5.69873,12.3613 -5.8457,12.5083 -5.8457,12.8022 C-5.8457,13.0822 -5.69873,13.2222 -5.40479,13.2222 C-5.29281,13.2222 -5.18783,13.1872 -5.08984,13.1172 C-4.99186,13.0472 -4.94287,12.9422 -4.94287,12.8022 M-6.18164,11.7104 C-6.29362,11.7664 -6.37061,11.8329 -6.4126,11.9099 C-6.45459,11.9869 -6.51058,12.0534 -6.58057,12.1094 C-6.63656,12.1934 -6.66455,12.2493 -6.66455,12.2773 C-6.51058,12.3333 -6.3776,12.3753 -6.26563,12.4033 C-6.01367,12.4593 -5.8457,12.4453 -5.76172,12.3613 C-5.70573,12.3053 -5.67773,12.1304 -5.67773,11.8364 L-5.67773,11.4585 C-5.73372,11.4585 -5.78971,11.4725 -5.8457,11.5005 C-5.90169,11.5285 -5.95768,11.5565 -6.01367,11.5845 C-6.06966,11.6125 -6.12565,11.6545 -6.18164,11.7104 M-6.74854,13.2222 C-6.69255,13.3621 -6.58757,13.5021 -6.43359,13.6421 C-6.3776,13.7121 -6.32161,13.7611 -6.26563,13.7891 C-6.18164,13.6911 -6.11165,13.5861 -6.05566,13.4741 C-5.94368,13.2502 -5.90169,13.0822 -5.92969,12.9702 C-5.95768,12.9142 -6.01367,12.8617 -6.09766,12.8127 C-6.18164,12.7638 -6.26563,12.7253 -6.34961,12.6973 C-6.47559,12.6693 -6.60856,12.6413 -6.74854,12.6133 C-6.77653,12.6693 -6.79053,12.7323 -6.79053,12.8022 C-6.79053,12.9702 -6.77653,13.1102 -6.74854,13.2222 M-5.40479,14.125 C-5.26481,14.125 -5.11084,14.097 -4.94287,14.041 C-4.85889,14.013 -4.8029,13.985 -4.7749,13.957 C-4.83089,13.873 -4.90088,13.7681 -4.98486,13.6421 C-5.15283,13.4181 -5.29281,13.3062 -5.40479,13.3062 C-5.48877,13.3062 -5.62174,13.4181 -5.80371,13.6421 C-5.8877,13.7681 -5.95768,13.873 -6.01367,13.957 C-5.98568,13.985 -5.94368,14.013 -5.8877,14.041 C-5.77572,14.097 -5.61475,14.125 -5.40479,14.125 M-4.16602,13.2222 C-4.08203,12.9982 -4.05404,12.8232 -4.08203,12.6973 C-4.11003,12.6133 -4.13802,12.5573 -4.16602,12.5293 C-4.25,12.5573 -4.34798,12.5993 -4.45996,12.6553 C-4.69792,12.7813 -4.83089,12.8862 -4.85889,12.9702 C-4.88688,13.0822 -4.84489,13.2502 -4.73291,13.4741 C-4.66292,13.5861 -4.58594,13.6911 -4.50195,13.7891 L-4.37598,13.6421 C-4.264,13.5301 -4.19401,13.3901 -4.16602,13.2222 M-5.11084,12.3613 C-4.97087,12.4453 -4.7959,12.4453 -4.58594,12.3613 C-4.47396,12.3333 -4.36198,12.2773 -4.25,12.1934 L-4.33398,12.0254 C-4.38997,11.8994 -4.47396,11.7944 -4.58594,11.7104 C-4.68392,11.6545 -4.7679,11.6125 -4.83789,11.5845 C-4.90788,11.5565 -4.97087,11.5285 -5.02686,11.5005 C-5.11084,11.4725 -5.16683,11.4585 -5.19482,11.4585 C-5.22282,11.5985 -5.23682,11.7244 -5.23682,11.8364 C-5.23682,12.1304 -5.19482,12.3053 -5.11084,12.3613 M8.87256,13.0542 C8.6626,13.0542 8.55762,12.9702 8.55762,12.8022 C8.55762,12.6203 8.6626,12.5293 8.87256,12.5293 C8.98454,12.5293 9.04053,12.6203 9.04053,12.8022 C9.04053,12.9702 8.98454,13.0542 8.87256,13.0542 M8.87256,11.2905 C9.26449,11.2905 9.59692,11.441 9.86987,11.7419 C10.1428,12.0429 10.2793,12.3963 10.2793,12.8022 C10.2793,13.1942 10.1428,13.5406 9.86987,13.8416 C9.59692,14.1425 9.26449,14.293 8.87256,14.293 C8.41064,14.293 8.03621,14.1425 7.74927,13.8416 C7.46232,13.5406 7.31885,13.1942 7.31885,12.8022 C7.31885,12.3963 7.46232,12.0429 7.74927,11.7419 C8.03621,11.441 8.41064,11.2905 8.87256,11.2905 M9.2085,12.8022 C9.2085,12.5083 9.09652,12.3613 8.87256,12.3613 C8.55062,12.3613 8.38965,12.5083 8.38965,12.8022 C8.38965,13.0822 8.55062,13.2222 8.87256,13.2222 C9.09652,13.2222 9.2085,13.0822 9.2085,12.8022 M7.96973,11.7104 C7.91374,11.7664 7.86125,11.8329 7.81226,11.9099 C7.76326,11.9869 7.72477,12.0534 7.69678,12.1094 C7.66878,12.1934 7.64079,12.2493 7.61279,12.2773 C7.72477,12.3333 7.84375,12.3753 7.96973,12.4033 C8.19368,12.4593 8.36165,12.4453 8.47363,12.3613 C8.52962,12.3053 8.55762,12.1304 8.55762,11.8364 L8.55762,11.4585 C8.50163,11.4585 8.44564,11.4725 8.38965,11.5005 C8.22168,11.5565 8.08171,11.6265 7.96973,11.7104 M7.48682,13.2222 C7.5708,13.4181 7.65479,13.5581 7.73877,13.6421 L7.88574,13.7891 C7.96973,13.6911 8.05371,13.5861 8.1377,13.4741 C8.30566,13.2782 8.36165,13.1102 8.30566,12.9702 C8.27767,12.9142 8.22168,12.8617 8.1377,12.8127 C8.05371,12.7638 7.96973,12.7253 7.88574,12.6973 C7.75977,12.6693 7.62679,12.6413 7.48682,12.6133 C7.45882,12.6693 7.44482,12.7323 7.44482,12.8022 C7.44482,12.9702 7.45882,13.1102 7.48682,13.2222 M8.87256,14.125 C9.01253,14.125 9.13851,14.097 9.25049,14.041 C9.30648,14.013 9.34847,13.985 9.37646,13.957 C9.32048,13.873 9.26449,13.7681 9.2085,13.6421 C9.09652,13.4181 8.98454,13.3062 8.87256,13.3062 C8.71859,13.3062 8.55762,13.4181 8.38965,13.6421 C8.30566,13.7681 8.24967,13.873 8.22168,13.957 C8.24967,13.985 8.29167,14.013 8.34766,14.041 C8.45964,14.097 8.6346,14.125 8.87256,14.125 M10.1113,13.2222 C10.1393,13.0822 10.1533,12.9072 10.1533,12.6973 C10.1533,12.6133 10.1393,12.5573 10.1113,12.5293 C9.97135,12.5573 9.84538,12.5993 9.7334,12.6553 C9.46745,12.7813 9.32048,12.8862 9.29248,12.9702 C9.29248,13.1102 9.36247,13.2782 9.50244,13.4741 C9.55843,13.5861 9.63542,13.6911 9.7334,13.7891 L9.85938,13.6421 C9.94336,13.5581 10.0273,13.4181 10.1113,13.2222 M9.90137,12.0254 C9.84538,11.9694 9.79639,11.9169 9.75439,11.8679 C9.7124,11.8189 9.64242,11.7664 9.54443,11.7104 C9.46045,11.6265 9.33447,11.5565 9.1665,11.5005 C9.08252,11.4725 9.01253,11.4585 8.95654,11.4585 C8.92855,11.5985 8.92855,11.7244 8.95654,11.8364 C8.95654,12.0744 9.01253,12.2493 9.12451,12.3613 C9.26449,12.4453 9.43945,12.4453 9.64941,12.3613 C9.76139,12.3333 9.87337,12.2773 9.98535,12.1934 L9.90137,12.0254 M-5.40479,10.6396 C-4.83089,10.6396 -4.33049,10.8566 -3.90356,11.2905 C-3.47664,11.7244 -3.26318,12.2284 -3.26318,12.8022 C-3.26318,13.3621 -3.47664,13.859 -3.90356,14.293 C-4.33049,14.7269 -4.83089,14.9438 -5.40479,14.9438 C-5.97868,14.9438 -6.47559,14.7269 -6.89551,14.293 C-7.31543,13.859 -7.52539,13.3621 -7.52539,12.8022 C-7.52539,12.2284 -7.31543,11.7244 -6.89551,11.2905 C-6.47559,10.8566 -5.97868,10.6396 -5.40479,10.6396 M-5.40479,14.4609 C-4.95687,14.4609 -4.55794,14.2965 -4.20801,13.9675 C-3.85807,13.6386 -3.68311,13.2502 -3.68311,12.8022 C-3.68311,12.3403 -3.85807,11.9449 -4.20801,11.616 C-4.55794,11.287 -4.95687,11.1226 -5.40479,11.1226 C-5.89469,11.1226 -6.29712,11.287 -6.61206,11.616 C-6.927,11.9449 -7.08447,12.3403 -7.08447,12.8022 C-7.08447,13.2502 -6.927,13.6386 -6.61206,13.9675 C-6.29712,14.2965 -5.89469,14.4609 -5.40479,14.4609 M8.72559,10.6396 C9.36947,10.6396 9.90487,10.8566 10.3318,11.2905 C10.7587,11.7244 10.9722,12.2284 10.9722,12.8022 C10.9722,13.3621 10.7587,13.859 10.3318,14.293 C9.90487,14.7269 9.36947,14.9438 8.72559,14.9438 C8.16569,14.9438 7.67578,14.7269 7.25586,14.293 C6.83594,13.859 6.62598,13.3621 6.62598,12.8022 C6.62598,12.2284 6.83594,11.7244 7.25586,11.2905 C7.67578,10.8566 8.16569,10.6396 8.72559,10.6396 M8.72559,14.4609 C9.21549,14.4609 9.62492,14.2965 9.95386,13.9675 C10.2828,13.6386 10.4473,13.2502 10.4473,12.8022 C10.4473,12.3403 10.2828,11.9449 9.95386,11.616 C9.62492,11.287 9.21549,11.1226 8.72559,11.1226 C8.30566,11.1226 7.93823,11.287 7.62329,11.616 C7.30835,11.9449 7.15088,12.3403 7.15088,12.8022 C7.15088,13.2502 7.30835,13.6386 7.62329,13.9675 C7.93823,14.2965 8.30566,14.4609 8.72559,14.4609 M12.9458,8.70801 C13.0018,8.68001 13.0578,8.72201 13.1138,8.83398 C13.1698,8.94596 13.2153,9.09644 13.2502,9.2854 C13.2852,9.47437 13.2957,9.67733 13.2817,9.89429 C13.2677,10.1112 13.2397,10.2757 13.1978,10.3877 C13.1978,10.8496 13.1838,11.266 13.1558,11.637 C13.1278,12.0079 13.0858,12.3963 13.0298,12.8022 C12.7498,12.9702 12.4594,13.0612 12.1584,13.0752 C11.8575,13.0892 11.5181,13.1662 11.1401,13.3062 C11.2801,12.2983 11.1016,11.5075 10.6047,10.9336 C10.1078,10.3597 9.42546,10.1217 8.55762,10.2197 C7.84375,10.2757 7.26636,10.6187 6.82544,11.2485 C6.38452,11.8784 6.23405,12.6623 6.37402,13.6001 C4.82031,13.4601 3.2911,13.4251 1.78638,13.4951 C0.281657,13.5651 -1.28955,13.6351 -2.92725,13.7051 C-2.85726,13.5511 -2.80827,13.3971 -2.78027,13.2432 C-2.75228,13.0892 -2.73828,12.9422 -2.73828,12.8022 C-2.73828,12.0744 -2.98324,11.462 -3.47314,10.9651 C-3.96305,10.4682 -4.57894,10.2197 -5.3208,10.2197 C-6.03467,10.2197 -6.64355,10.4682 -7.14746,10.9651 C-7.65137,11.462 -7.90332,12.0744 -7.90332,12.8022 C-7.90332,12.9702 -7.88232,13.1312 -7.84033,13.2852 C-7.79834,13.4391 -7.74935,13.6071 -7.69336,13.7891 C-8.63118,13.873 -9.58301,13.8416 -10.5488,13.6946 C-11.5146,13.5476 -12.3825,13.3621 -13.1523,13.1382 C-13.2643,12.9982 -13.2783,12.8687 -13.1943,12.7498 C-13.1104,12.6308 -13.0264,12.5293 -12.9424,12.4453 C-12.8584,12.3613 -12.8094,12.2773 -12.7954,12.1934 C-12.7814,12.1094 -12.9004,12.0114 -13.1523,11.8994 C-13.2643,11.6615 -13.2433,11.434 -13.0894,11.217 C-12.9354,11.0001 -12.7359,10.8076 -12.491,10.6396 C-12.246,10.4717 -11.9941,10.3282 -11.7351,10.2092 C-11.4762,10.0903 -11.2907,10.0028 -11.1787,9.94678 C-11.0947,9.89079 -11.0527,9.8488 -11.0527,9.8208 C-11.0527,9.79281 -10.9198,9.75081 -10.6538,9.69482 C-10.5698,9.8068 -10.4333,9.78581 -10.2444,9.63184 C-10.0554,9.47786 -9.94694,9.37288 -9.91895,9.31689 C-9.55501,9.13493 -9.17008,9.01595 -8.76416,8.95996 C-8.35824,8.90397 -7.94181,8.87598 -7.51489,8.87598 C-7.08797,8.87598 -6.64355,8.86898 -6.18164,8.85498 C-5.71973,8.84098 -5.25081,8.79199 -4.7749,8.70801 C-4.42497,8.65202 -4.07853,8.50854 -3.7356,8.27759 C-3.39266,8.04663 -3.04272,7.80868 -2.68579,7.56372 C-2.32886,7.31877 -1.96143,7.09831 -1.5835,6.90234 C-1.20557,6.70638 -0.848633,6.5944 -0.512695,6.56641 L1.37695,6.46143 C2.30078,6.46143 3.22111,6.52791 4.13794,6.66089 C5.05477,6.79386 5.88411,6.97233 6.62598,7.19629 C7.11589,7.35026 7.5988,7.52523 8.07471,7.72119 C8.55062,7.91715 9.01253,8.05713 9.46045,8.14111 C9.7264,8.1971 10.0168,8.2111 10.3318,8.18311 C10.6467,8.15511 10.9547,8.13411 11.2556,8.12012 C11.5566,8.10612 11.8505,8.12012 12.1375,8.16211 C12.4244,8.2041 12.6659,8.33008 12.8618,8.54004 C12.6659,8.62402 12.4384,8.66602 12.1794,8.66602 C11.9205,8.66602 11.791,8.736 11.791,8.87598 C11.735,9.04395 11.784,9.14543 11.938,9.18042 C12.092,9.21541 12.2109,9.2609 12.2949,9.31689 C12.2389,9.40088 12.1829,9.43587 12.127,9.42188 C12.071,9.40788 12.001,9.39388 11.917,9.37988 C11.833,9.36589 11.756,9.37288 11.686,9.40088 C11.616,9.42887 11.5671,9.52686 11.5391,9.69482 C11.5111,9.8348 11.5531,9.92578 11.665,9.96777 C11.777,10.0098 11.91,10.0483 12.064,10.0833 C12.2179,10.1182 12.3894,10.1497 12.5784,10.1777 C12.7673,10.2057 12.9178,10.2477 13.0298,10.3037 C13.0578,9.86979 13.0298,9.55835 12.9458,9.36938 C12.8618,9.18042 12.7848,9.05094 12.7148,8.98096 C12.6449,8.91097 12.6099,8.86898 12.6099,8.85498 C12.6099,8.84098 12.7218,8.79199 12.9458,8.70801 M-8.15527,9.86279 C-8.04329,9.69482 -8.0153,9.58285 -8.07129,9.52686 C-8.12728,9.47087 -8.22176,9.44287 -8.35474,9.44287 C-8.48771,9.44287 -8.62419,9.44987 -8.76416,9.46387 C-8.90413,9.47786 -8.98812,9.48486 -9.01611,9.48486 C-9.25407,9.68083 -9.50252,9.8453 -9.76147,9.97827 C-10.0204,10.1112 -10.1919,10.3317 -10.2759,10.6396 C-9.95394,10.5557 -9.56551,10.4507 -9.1106,10.3247 C-8.65568,10.1987 -8.33724,10.0448 -8.15527,9.86279 M-4.16602,8.70801 C-3.94206,8.70801 -3.76359,8.729 -3.63062,8.771 C-3.49764,8.81299 -3.38216,8.85498 -3.28418,8.89697 C-3.1862,8.93896 -3.07072,8.98096 -2.93774,9.02295 C-2.80477,9.06494 -2.6403,9.09993 -2.44434,9.12793 C-2.33236,9.07194 -2.16789,8.97396 -1.95093,8.83398 C-1.73397,8.69401 -1.49601,8.52254 -1.23706,8.31958 C-0.978109,8.11662 -0.719157,7.90666 -0.460205,7.6897 C-0.201253,7.47274 0.0262044,7.25228 0.222168,7.02832 C-0.211751,6.88835 -0.614176,6.86735 -0.985107,6.96533 C-1.35604,7.06331 -1.71997,7.21379 -2.0769,7.41675 C-2.43384,7.61971 -2.78377,7.84367 -3.12671,8.08862 C-3.46965,8.33358 -3.81608,8.54004 -4.16602,8.70801 M4.48438,9.23291 C4.51237,9.07894 4.54036,8.88997 4.56836,8.66602 C4.59635,8.44206 4.63835,8.2111 4.69434,7.97314 C4.75033,7.72119 4.79232,7.46224 4.82031,7.19629 C4.3304,7.1123 3.83,7.05632 3.31909,7.02832 C2.80819,7.00033 2.31478,7.02132 1.83887,7.09131 C1.36296,7.1613 0.932536,7.30477 0.547607,7.52173 C0.162679,7.73869 -0.134766,8.05013 -0.344727,8.45605 C-0.190755,8.40007 -0.0437826,8.34058 0.0961914,8.27759 C0.236165,8.2146 0.418132,8.2111 0.64209,8.26709 C0.768066,8.26709 0.831055,8.31258 0.831055,8.40356 C0.831055,8.49455 0.810059,8.59603 0.768066,8.70801 C0.726074,8.81999 0.69458,8.91797 0.673584,9.00195 C0.652588,9.08594 0.677083,9.12793 0.74707,9.12793 C1.32096,9.12793 1.92985,9.14543 2.57373,9.18042 C3.21761,9.21541 3.85449,9.23291 4.48438,9.23291 M4.9043,9.23291 C5.85612,9.23291 6.54549,9.16642 6.97241,9.03345 C7.39933,8.90047 7.84375,8.764 8.30566,8.62402 C8.1377,8.38607 7.88224,8.1901 7.53931,8.03613 C7.19637,7.88216 6.86393,7.74919 6.54199,7.63721 C6.13607,7.52523 5.72314,7.40625 5.30322,7.28027 C5.27523,7.54622 5.23324,7.80518 5.17725,8.05713 C5.10726,8.29508 5.05127,8.51204 5.00928,8.70801 C4.96729,8.90397 4.93229,9.07894 4.9043,9.23291 M-3.95605,-4.01563 C-4.31999,-3.79167 -4.62093,-3.49072 -4.85889,-3.11279 C-4.94287,-2.88883 -5.04785,-2.69637 -5.17383,-2.5354 C-5.2998,-2.37443 -5.40479,-2.22396 -5.48877,-2.08398 L-6.43359,-4.18359 L-6.47559,-4.18359 C-6.33561,-4.33757 -6.21663,-4.51253 -6.11865,-4.7085 C-6.02067,-4.90446 -5.90169,-5.12142 -5.76172,-5.35938 C-5.55176,-5.69531 -5.36279,-5.95426 -5.19482,-6.13623 C-5.16683,-6.08024 -5.07235,-5.92277 -4.91138,-5.66382 C-4.75041,-5.40487 -4.43197,-4.85547 -3.95605,-4.01563 M-5.19482,-6.17822 C-4.67692,-6.59814 -4.08903,-6.8571 -3.43115,-6.95508 C-3.75309,-6.88509 -4.06453,-6.78711 -4.36548,-6.66113 C-4.66642,-6.53516 -4.94287,-6.36019 -5.19482,-6.13623 L-5.19482,-6.17822 M-6.47559,-4.18359 C-6.57357,-4.04362 -6.66455,-3.93164 -6.74854,-3.84766 C-6.83252,-3.76367 -6.9165,-3.67969 -7.00049,-3.5957 C-6.9165,-3.67969 -6.83252,-3.77067 -6.74854,-3.86865 C-6.66455,-3.96663 -6.57357,-4.07161 -6.47559,-4.18359 M1.54492,-5.52734 C1.06901,-5.35938 0.5861,-5.2369 0.0961914,-5.15991 C-0.393717,-5.08293 -0.883626,-5.00244 -1.37354,-4.91846 L-2.6123,-7.16504 C-2.17839,-7.22103 -1.71297,-7.27702 -1.21606,-7.33301 C-0.719157,-7.389 -0.239746,-7.52897 0.222168,-7.75293 L2.55273,-4.09961 L1.54492,-5.52734 M4.82031,-0.362305 C4.24642,-0.138346 3.69352,-0.0123698 3.16162,0.015625 C2.62972,0.0436198 2.12581,0.085612 1.6499,0.141602 L0.0541992,-2.60889 C0.544108,-2.66488 1.03052,-2.73486 1.51343,-2.81885 C1.99634,-2.90283 2.51074,-3.02881 3.05664,-3.19678 L4.82031,-0.362305 M-3.76709,-0.614258 C-3.62712,-0.852214 -3.46615,-1.05518 -3.28418,-1.22314 C-3.10221,-1.39111 -2.92025,-1.55208 -2.73828,-1.70605 L-0.932617,1.48535 C-1.33854,1.89128 -1.68498,2.27271 -1.97192,2.62964 C-2.25887,2.98657 -2.60531,3.31901 -3.01123,3.62695 L-4.50195,0.330566 C-4.36198,0.176595 -4.243,0.0226237 -4.14502,-0.131348 C-4.04704,-0.285319 -3.92106,-0.446289 -3.76709,-0.614258 M-7.16846,-0.530273 C-7.40641,-0.390299 -7.69686,-0.250326 -8.03979,-0.110352 C-8.38273,0.0296224 -8.77116,0.176595 -9.20508,0.330566 C-9.48503,-0.397298 -9.68099,-0.929199 -9.79297,-1.26514 C-9.87695,-1.50309 -9.94694,-1.70605 -10.0029,-1.87402 C-9.52702,-2.06999 -9.12459,-2.24845 -8.79565,-2.40942 C-8.46672,-2.57039 -8.16927,-2.72087 -7.90332,-2.86084 C-7.79134,-2.5109 -7.67936,-2.13647 -7.56738,-1.73755 C-7.4554,-1.33862 -7.32243,-0.936198 -7.16846,-0.530273 M-8.68018,2.05225 C-8.82015,1.47835 -8.99512,0.90446 -9.20508,0.330566 L-9.24707,0.330566 C-9.00911,0.90446 -8.82015,1.47835 -8.68018,2.05225 M-6.34961,1.94727 C-6.18164,2.57715 -6.03467,3.15804 -5.90869,3.68994 C-5.78271,4.22184 -5.67074,4.67676 -5.57275,5.05469 C-5.01286,4.78874 -4.52295,4.54378 -4.10303,4.31982 C-3.68311,4.09587 -3.31917,3.86491 -3.01123,3.62695 C-3.43115,3.97689 -4.00854,4.33732 -4.74341,4.70825 C-5.47827,5.07918 -6.48958,5.49561 -7.77734,5.95752 C-7.83333,5.69157 -7.88932,5.40462 -7.94531,5.09668 C-8.0013,4.80273 -8.06429,4.4703 -8.13428,4.09937 C-8.20426,3.72843 -8.30225,3.32601 -8.42822,2.89209 C-7.96631,2.72412 -7.57788,2.57015 -7.26294,2.43018 C-6.948,2.2902 -6.64355,2.12923 -6.34961,1.94727 M0.0541992,-2.60889 C-0.43571,-2.5249 -0.925618,-2.42342 -1.41553,-2.30444 C-1.90544,-2.18547 -2.34635,-1.986 -2.73828,-1.70605 L-3.95605,-4.01563 C-3.60612,-4.30957 -3.21069,-4.51253 -2.76978,-4.62451 C-2.32886,-4.73649 -1.86344,-4.83447 -1.37354,-4.91846 L0.0541992,-2.60889 M-4.50195,0.330566 C-4.93587,0.988444 -5.55176,1.52734 -6.34961,1.94727 C-6.47559,1.55534 -6.60856,1.14242 -6.74854,0.708496 C-6.88851,0.274577 -7.02848,-0.138346 -7.16846,-0.530273 C-6.70654,-0.768229 -6.37061,-1.00968 -6.16064,-1.25464 C-5.95068,-1.49959 -5.72673,-1.77604 -5.48877,-2.08398 L-4.50195,0.330566 M8.38965,4.69775 L0.222168,-8.27783 L0.558105,-8.48779 L8.6416,4.52979 L8.38965,4.69775"/>
</g>

<g fill="#6fa56c" fill-opacity="1" stroke="none" transform="matrix(1,0,0,1,0,0)"
font-family="MS Shell Dlg 2" font-size="7.8" font-weight="400" font-style="normal" 
>
</g>
</g>
</svg>
