<?xml version="1.0" encoding="UTF-8" standalone="no"?>
<svg width="11.25008mm" height="11.25008mm"
 viewBox="-5.3 -5.3 42.52000 42.52000"
 xmlns="http://www.w3.org/2000/svg" xmlns:xlink="http://www.w3.org/1999/xlink"  version="1.2" baseProfile="tiny">
<title>Qt SVG Document</title>
<desc>Generated with Qt</desc>
<defs>
</defs>
<g fill="none" stroke="black" stroke-width="1" fill-rule="evenodd" stroke-linecap="square" stroke-linejoin="bevel" >

<g fill="#6fa56c" fill-opacity="1" stroke="none" transform="matrix(1,0,0,1,0,0)"
font-family="MS Shell Dlg 2" font-size="7.8" font-weight="400" font-style="normal" 
>
<path vector-effect="non-scaling-stroke" fill-rule="evenodd" d="M36.9801,16 C36.9801,27.587 27.587,36.9801 16,36.9801 C4.41303,36.9801 -4.98006,27.587 -4.98006,16 C-4.98006,4.41303 4.41303,-4.98006 16,-4.98006 C27.587,-4.98006 36.9801,4.41303 36.9801,16 "/>
</g>

<g fill="#ffffff" fill-opacity="0.94902" stroke="none" transform="matrix(1,0,0,1,16.2835,12.0763)"
font-family="MS Shell Dlg 2" font-size="7.8" font-weight="400" font-style="normal" 
>
<path vector-effect="none" fill-rule="evenodd" d="M-6.13574,-3.84766 C-5.95378,-3.86165 -5.78231,-3.86865 -5.62134,-3.86865 C-5.46037,-3.86865 -5.35189,-3.86165 -5.2959,-3.84766 C-5.2679,-3.84766 -5.12443,-3.84416 -4.86548,-3.83716 C-4.60653,-3.83016 -4.29508,-3.82666 -3.93115,-3.82666 L-2.6084,-3.82666 L-2.48242,-3.65869 C-2.32845,-3.50472 -2.26196,-3.33325 -2.28296,-3.14429 C-2.30396,-2.95532 -2.39844,-2.80485 -2.56641,-2.69287 C-2.63639,-2.65088 -2.73787,-2.62638 -2.87085,-2.61938 C-3.00382,-2.61239 -3.24528,-2.60889 -3.59521,-2.60889 C-3.81917,-2.60889 -4.00814,-2.60539 -4.16211,-2.59839 C-4.31608,-2.59139 -4.39307,-2.58089 -4.39307,-2.56689 C-4.39307,-2.5529 -4.35107,-2.42692 -4.26709,-2.18896 C-4.18311,-1.95101 -4.06413,-1.67106 -3.91016,-1.34912 L-3.40625,-0.17334 L-3.19629,-0.194336 C-3.18229,-0.194336 -3.05981,-0.211833 -2.82886,-0.246826 C-2.5979,-0.28182 -2.29696,-0.320313 -1.92603,-0.362305 C-1.55509,-0.404297 -1.12817,-0.456787 -0.645264,-0.519775 C-0.162354,-0.582764 0.352051,-0.649251 0.897949,-0.719238 C1.42985,-0.789225 1.93726,-0.855713 2.42017,-0.918701 C2.90308,-0.981689 3.323,-1.03768 3.67993,-1.08667 C4.03687,-1.13566 4.32381,-1.17415 4.54077,-1.20215 C4.75773,-1.23014 4.86621,-1.24414 4.86621,-1.24414 C4.88021,-1.25814 4.85221,-1.35612 4.78223,-1.53809 C4.71224,-1.72005 4.61426,-1.93001 4.48828,-2.16797 C4.34831,-2.43392 4.23283,-2.66488 4.14185,-2.86084 C4.05086,-3.0568 4.00537,-3.18278 4.00537,-3.23877 C4.00537,-3.33675 4.04036,-3.43473 4.11035,-3.53271 C4.18034,-3.6307 4.25033,-3.71468 4.32031,-3.78467 C4.3623,-3.79867 4.47778,-3.81266 4.66675,-3.82666 C4.85571,-3.84066 5.07967,-3.84766 5.33862,-3.84766 C5.59757,-3.84766 5.88102,-3.84766 6.18896,-3.84766 C6.49691,-3.84766 6.79085,-3.84416 7.0708,-3.83716 C7.35075,-3.83016 7.6027,-3.81616 7.82666,-3.79517 C8.05062,-3.77417 8.21159,-3.75667 8.30957,-3.74268 C8.74349,-3.65869 9.12492,-3.51172 9.45386,-3.30176 C9.7828,-3.0918 10.0243,-2.84684 10.1782,-2.56689 C10.2622,-2.38493 10.3007,-2.16097 10.2937,-1.89502 C10.2867,-1.62907 10.2412,-1.37712 10.1572,-1.13916 C10.0872,-1.05518 10.0278,-0.964193 9.97876,-0.866211 C9.92977,-0.768229 9.87028,-0.691243 9.80029,-0.635254 C9.60433,-0.43929 9.33838,-0.285319 9.00244,-0.17334 C8.6665,-0.0613607 8.40055,-0.054362 8.20459,-0.152344 C8.05062,-0.208333 7.94214,-0.299316 7.87915,-0.425293 C7.81616,-0.55127 7.80566,-0.691243 7.84766,-0.845215 C7.88965,-1.12516 8.10661,-1.30013 8.49854,-1.37012 C8.84847,-1.41211 9.02344,-1.57308 9.02344,-1.85303 C9.02344,-2.10498 8.80648,-2.30094 8.37256,-2.44092 C8.21859,-2.49691 8.04362,-2.5319 7.84766,-2.5459 C7.65169,-2.5599 7.31576,-2.57389 6.83984,-2.58789 L5.66406,-2.60889 L6.06299,-1.81104 C6.17497,-1.57308 6.31844,-1.26164 6.49341,-0.876709 C6.66838,-0.491781 6.81185,-0.138346 6.92383,0.183594 L7.40674,1.40137 L7.76367,1.29639 C7.88965,1.26839 8.05762,1.2474 8.26758,1.2334 C8.47754,1.2194 8.74349,1.2124 9.06543,1.2124 C9.27539,1.2124 9.44686,1.2124 9.57983,1.2124 C9.71281,1.2124 9.83179,1.2194 9.93677,1.2334 C10.0417,1.2474 10.1432,1.26139 10.2412,1.27539 C10.3392,1.28939 10.4582,1.31038 10.5981,1.33838 C11.27,1.53434 11.8894,1.81779 12.4563,2.18872 C13.0232,2.55965 13.5131,3.00057 13.926,3.51147 C14.3389,4.02238 14.6679,4.58927 14.9128,5.21216 C15.1578,5.83504 15.3013,6.48942 15.3433,7.17529 C15.3713,7.91715 15.2768,8.63452 15.0598,9.32739 C14.8429,10.0203 14.5244,10.6501 14.1045,11.217 C13.6846,11.7839 13.1737,12.2703 12.5718,12.6763 C11.9699,13.0822 11.305,13.3761 10.5771,13.5581 C10.4232,13.6001 10.2377,13.6351 10.0208,13.6631 C9.80379,13.6911 9.57983,13.7121 9.34888,13.7261 C9.11792,13.7401 8.89396,13.7436 8.677,13.7366 C8.46004,13.7296 8.27458,13.7121 8.12061,13.6841 C7.35075,13.5581 6.64038,13.3097 5.9895,12.9387 C5.33862,12.5678 4.77523,12.1059 4.29932,11.553 C3.8234,11.0001 3.45247,10.3737 3.18652,9.67383 C2.92057,8.97396 2.7876,8.2321 2.7876,7.44824 C2.7876,6.56641 2.95207,5.74056 3.28101,4.9707 C3.60994,4.20085 4.10335,3.50798 4.76123,2.89209 C4.84521,2.80811 4.95719,2.71012 5.09717,2.59814 C5.23714,2.48617 5.37712,2.37769 5.51709,2.27271 C5.65706,2.16772 5.78654,2.07674 5.90552,1.99976 C6.0245,1.92277 6.11198,1.87728 6.16797,1.86328 C6.18197,1.86328 6.17147,1.80029 6.13647,1.67432 C6.10148,1.54834 6.05599,1.41536 6,1.27539 C5.94401,1.13542 5.88802,1.00594 5.83203,0.886963 C5.77604,0.767985 5.74105,0.708496 5.72705,0.708496 C5.72705,0.708496 5.66756,0.79598 5.54858,0.970947 C5.42961,1.14591 5.27214,1.38037 5.07617,1.67432 C4.88021,1.96826 4.64925,2.3147 4.3833,2.71362 C4.11735,3.11255 3.8304,3.54297 3.52246,4.00488 L1.33887,7.28027 L1.42285,7.49023 C1.49284,7.6862 1.51383,7.92765 1.48584,8.2146 C1.45785,8.50155 1.39486,8.743 1.29688,8.93896 C1.10091,9.2889 0.820964,9.57585 0.457031,9.7998 C0.289063,9.86979 0.0616048,9.91878 -0.225342,9.94678 C-0.512288,9.97477 -0.732747,9.96077 -0.886719,9.90479 C-0.928711,9.89079 -1.04069,9.86279 -1.22266,9.8208 C-1.40462,9.77881 -1.59359,9.73332 -1.78955,9.68433 C-1.98551,9.63534 -2.16748,9.59334 -2.33545,9.55835 C-2.50342,9.52336 -2.5944,9.50586 -2.6084,9.50586 L-2.6084,9.54785 C-2.6084,9.57585 -2.63989,9.64233 -2.70288,9.74731 C-2.76587,9.85229 -2.81836,9.97477 -2.86035,10.1147 C-3.30827,11.0386 -3.91016,11.8014 -4.66602,12.4033 C-5.42188,13.0052 -6.30371,13.4111 -7.31152,13.6211 C-7.50749,13.6631 -7.72795,13.6911 -7.9729,13.7051 C-8.21785,13.7191 -8.46631,13.7226 -8.71826,13.7156 C-8.97021,13.7086 -9.21517,13.6911 -9.45313,13.6631 C-9.69108,13.6351 -9.90104,13.6001 -10.083,13.5581 C-10.8249,13.3621 -11.4932,13.0612 -12.0881,12.6553 C-12.683,12.2493 -13.1904,11.7629 -13.6104,11.196 C-14.0303,10.6292 -14.3487,10.0028 -14.5657,9.31689 C-14.7826,8.63102 -14.8771,7.91715 -14.8491,7.17529 C-14.7931,6.37744 -14.6077,5.62858 -14.2927,4.92871 C-13.9778,4.22884 -13.5474,3.59896 -13.0015,3.03906 C-12.5955,2.63314 -12.1511,2.2902 -11.6682,2.01025 C-11.1853,1.73031 -10.6639,1.50635 -10.104,1.33838 C-9.96403,1.31038 -9.84855,1.28939 -9.75757,1.27539 C-9.66659,1.26139 -9.5686,1.2474 -9.46362,1.2334 C-9.35864,1.2194 -9.23617,1.2124 -9.09619,1.2124 C-8.95622,1.2124 -8.78125,1.2124 -8.57129,1.2124 C-8.36133,1.2124 -8.18986,1.2124 -8.05688,1.2124 C-7.92391,1.2124 -7.80493,1.2194 -7.69995,1.2334 C-7.59497,1.2474 -7.49349,1.26139 -7.39551,1.27539 C-7.29753,1.28939 -7.18555,1.31038 -7.05957,1.33838 C-6.8916,1.39437 -6.72013,1.45386 -6.54517,1.51685 C-6.3702,1.57983 -6.22673,1.63232 -6.11475,1.67432 L-5.77881,1.84229 L-5.65283,1.71631 C-5.62484,1.67432 -5.55835,1.57284 -5.45337,1.41187 C-5.34839,1.2509 -5.23291,1.07243 -5.10693,0.876465 L-4.64502,0.120605 L-5.21191,-1.24414 L-5.7998,-2.56689 L-6.3877,-2.60889 C-6.66764,-2.60889 -6.84261,-2.62288 -6.9126,-2.65088 C-6.98258,-2.67887 -7.05957,-2.74186 -7.14355,-2.83984 C-7.32552,-3.0498 -7.35352,-3.28076 -7.22754,-3.53271 C-7.15755,-3.67269 -7.05607,-3.75667 -6.9231,-3.78467 C-6.79012,-3.81266 -6.52767,-3.83366 -6.13574,-3.84766 M4.48828,0.120605 L4.3623,0.120605 C4.33431,0.120605 4.15584,0.141602 3.8269,0.183594 C3.49797,0.225586 3.08504,0.278076 2.58813,0.341064 C2.09123,0.404053 1.55233,0.47054 0.971436,0.540527 C0.390544,0.610514 -0.155355,0.677002 -0.66626,0.73999 C-1.17716,0.802979 -1.62508,0.858968 -2.01001,0.907959 C-2.39494,0.95695 -2.63639,0.988444 -2.73438,1.00244 C-2.76237,1.00244 -2.77637,1.02694 -2.77637,1.07593 C-2.77637,1.12492 -2.74487,1.2369 -2.68188,1.41187 C-2.6189,1.58683 -2.51392,1.84928 -2.36694,2.19922 C-2.21997,2.54915 -2.01351,3.02507 -1.74756,3.62695 L-0.61377,6.18848 L-0.298828,6.18848 C-0.200846,6.20247 -0.113363,6.21997 -0.036377,6.24097 C0.0406087,6.26196 0.107096,6.27946 0.163086,6.29346 C0.191081,6.32145 0.226074,6.34245 0.268066,6.35645 C0.310059,6.37044 0.338053,6.37744 0.352051,6.37744 C0.366048,6.37744 0.478027,6.22347 0.687988,5.91553 C0.897949,5.60758 1.1604,5.22616 1.47534,4.77124 C1.79028,4.31632 2.12622,3.81942 2.48315,3.28052 C2.84009,2.74162 3.17253,2.24121 3.48047,1.7793 C3.78841,1.31738 4.04386,0.928955 4.24683,0.614014 C4.44979,0.299072 4.55127,0.134603 4.55127,0.120605 L4.48828,0.120605 M-2.98633,3.9209 C-3.26628,3.26302 -3.50773,2.70313 -3.71069,2.24121 C-3.91366,1.7793 -4.01514,1.54134 -4.01514,1.52734 C-4.01514,1.52734 -4.05013,1.57633 -4.12012,1.67432 C-4.1901,1.7723 -4.26359,1.88078 -4.34058,1.99976 C-4.41756,2.11873 -4.48755,2.23071 -4.55054,2.33569 C-4.61353,2.44067 -4.64502,2.49316 -4.64502,2.49316 C-4.64502,2.52116 -4.59953,2.57715 -4.50854,2.66113 C-4.41756,2.74512 -4.31608,2.8571 -4.2041,2.99707 C-3.77018,3.41699 -3.38875,3.9139 -3.05981,4.48779 C-2.73088,5.06169 -2.51742,5.61458 -2.41943,6.14648 C-2.40544,6.30046 -2.34245,6.37744 -2.23047,6.37744 C-2.13249,6.37744 -2.0555,6.34945 -1.99951,6.29346 C-1.98551,6.27946 -2.0555,6.087 -2.20947,5.71606 C-2.36344,5.34513 -2.6224,4.74674 -2.98633,3.9209 M-7.39551,2.57715 C-8.06738,2.40918 -8.73226,2.38118 -9.39014,2.49316 C-10.048,2.60514 -10.6499,2.8291 -11.1958,3.16504 C-11.7417,3.50098 -12.2141,3.9349 -12.613,4.4668 C-13.012,4.9987 -13.2954,5.60758 -13.4634,6.29346 C-13.5054,6.46143 -13.5369,6.64689 -13.5579,6.84985 C-13.5789,7.05282 -13.5894,7.25578 -13.5894,7.45874 C-13.5894,7.6617 -13.5789,7.86117 -13.5579,8.05713 C-13.5369,8.25309 -13.5054,8.42106 -13.4634,8.56104 C-13.2814,9.34489 -12.949,10.0343 -12.4661,10.6292 C-11.9832,11.224 -11.3778,11.6895 -10.6499,12.0254 C-10.328,12.1794 -10.034,12.2878 -9.76807,12.3508 C-9.50212,12.4138 -9.19417,12.4593 -8.84424,12.4873 C-7.40251,12.5713 -6.12174,12.0744 -5.00195,10.9966 C-4.88997,10.8706 -4.79199,10.7621 -4.70801,10.6711 C-4.62402,10.5802 -4.55054,10.4927 -4.48755,10.4087 C-4.42456,10.3247 -4.36507,10.2407 -4.30908,10.1567 C-4.25309,10.0728 -4.1901,9.96777 -4.12012,9.8418 C-4.05013,9.68783 -3.99064,9.54785 -3.94165,9.42188 C-3.89266,9.2959 -3.88216,9.22591 -3.91016,9.21191 C-3.91016,9.21191 -4.00464,9.18742 -4.1936,9.13843 C-4.38257,9.08944 -4.62052,9.02995 -4.90747,8.95996 C-5.19442,8.88997 -5.51636,8.81299 -5.87329,8.729 C-6.23022,8.64502 -6.58016,8.56453 -6.9231,8.48755 C-7.26603,8.41056 -7.58097,8.33708 -7.86792,8.26709 C-8.15487,8.1971 -8.37533,8.14811 -8.5293,8.12012 C-8.76725,8.07813 -8.92122,8.00114 -8.99121,7.88916 C-9.0752,7.80518 -9.13118,7.72469 -9.15918,7.64771 C-9.18717,7.57072 -9.16268,7.44124 -9.08569,7.25928 C-9.00871,7.07731 -8.87223,6.81836 -8.67627,6.48242 C-8.48031,6.14648 -8.19336,5.67757 -7.81543,5.07568 L-6.40869,2.91309 L-6.66064,2.78711 C-6.73063,2.75911 -6.83911,2.72412 -6.98608,2.68213 C-7.13306,2.64014 -7.26953,2.60514 -7.39551,2.57715 M10.2412,2.57715 C10.1152,2.54915 9.96126,2.52466 9.7793,2.50366 C9.59733,2.48267 9.42936,2.46517 9.27539,2.45117 C9.14941,2.43717 9.00944,2.43368 8.85547,2.44067 C8.7015,2.44767 8.55802,2.45467 8.42505,2.46167 C8.29207,2.46867 8.1731,2.48267 8.06812,2.50366 C7.96313,2.52466 7.90365,2.54915 7.88965,2.57715 C7.88965,2.59115 7.97363,2.8361 8.1416,3.31201 C8.30957,3.78792 8.51953,4.34782 8.77148,4.9917 C8.89746,5.31364 9.01644,5.62158 9.12842,5.91553 C9.2404,6.20947 9.33488,6.46842 9.41187,6.69238 C9.48885,6.91634 9.55184,7.09831 9.60083,7.23828 C9.64982,7.37826 9.67432,7.45524 9.67432,7.46924 C9.67432,7.58122 9.63932,7.6897 9.56934,7.79468 C9.49935,7.89966 9.42936,7.97314 9.35938,8.01514 C9.07943,8.12712 8.84147,8.09912 8.64551,7.93115 C8.58952,7.88916 8.48454,7.6827 8.33057,7.31177 C8.1766,6.94084 7.93864,6.32845 7.6167,5.47461 C7.49072,5.15267 7.37174,4.85173 7.25977,4.57178 C7.14779,4.29183 7.0498,4.04338 6.96582,3.82642 C6.88184,3.60946 6.81535,3.43449 6.76636,3.30151 C6.71737,3.16854 6.69287,3.09505 6.69287,3.08105 C6.63688,3.05306 6.49341,3.11955 6.26245,3.28052 C6.03149,3.44149 5.81104,3.61995 5.60107,3.81592 C5.36312,4.05387 5.15666,4.29533 4.98169,4.54028 C4.80672,4.78524 4.64225,5.06868 4.48828,5.39063 C4.33431,5.69857 4.22583,5.98551 4.16284,6.25146 C4.09985,6.51742 4.05436,6.82536 4.02637,7.17529 C3.98438,7.88916 4.08586,8.56104 4.33081,9.19092 C4.57576,9.8208 4.9432,10.4017 5.43311,10.9336 C5.95101,11.4655 6.5424,11.8679 7.20728,12.1409 C7.87215,12.4138 8.57552,12.5293 9.31738,12.4873 C9.68132,12.4593 9.99626,12.4138 10.2622,12.3508 C10.5282,12.2878 10.8221,12.1794 11.144,12.0254 C11.9419,11.6615 12.5858,11.1436 13.0757,10.4717 C13.5656,9.7998 13.8805,9.03695 14.0205,8.18311 C14.1185,7.53923 14.094,6.91634 13.947,6.31445 C13.8,5.71257 13.5551,5.15967 13.2122,4.65576 C12.8692,4.15186 12.4458,3.71794 11.9419,3.354 C11.438,2.99007 10.8711,2.73112 10.2412,2.57715 M-5.21191,3.75293 C-5.23991,3.72493 -5.2714,3.70044 -5.3064,3.67944 C-5.34139,3.65845 -5.37288,3.64795 -5.40088,3.64795 C-5.40088,3.64795 -5.44987,3.72144 -5.54785,3.86841 C-5.64583,4.01538 -5.76481,4.20435 -5.90479,4.4353 C-6.04476,4.66626 -6.19523,4.91121 -6.3562,5.17017 C-6.51717,5.42912 -6.66764,5.67407 -6.80762,5.90503 C-6.94759,6.13599 -7.06307,6.32495 -7.15405,6.47192 C-7.24504,6.6189 -7.29053,6.69238 -7.29053,6.69238 C-7.29053,6.70638 -7.20304,6.70638 -7.02808,6.69238 C-6.85311,6.67839 -6.63615,6.66439 -6.3772,6.65039 C-6.11825,6.63639 -5.8383,6.6189 -5.53735,6.5979 C-5.23641,6.5769 -4.95296,6.55591 -4.68701,6.53491 C-4.42106,6.51392 -4.1971,6.49642 -4.01514,6.48242 C-3.83317,6.46842 -3.73519,6.45443 -3.72119,6.44043 C-3.6792,6.42643 -3.6897,6.30745 -3.75269,6.0835 C-3.81567,5.85954 -3.92415,5.58659 -4.07813,5.26465 C-4.14811,5.12467 -4.2321,4.9777 -4.33008,4.82373 C-4.42806,4.66976 -4.52954,4.51929 -4.63452,4.37231 C-4.7395,4.22534 -4.84448,4.09587 -4.94946,3.98389 C-5.05444,3.87191 -5.14193,3.79492 -5.21191,3.75293 "/>
</g>

<g fill="#6fa56c" fill-opacity="1" stroke="none" transform="matrix(1,0,0,1,0,0)"
font-family="MS Shell Dlg 2" font-size="7.8" font-weight="400" font-style="normal" 
>
</g>
</g>
</svg>
