<?xml version="1.0" encoding="UTF-8" standalone="no"?>
<svg width="11.2889mm" height="11.2889mm"
 viewBox="0 0 32 32"
 xmlns="http://www.w3.org/2000/svg" xmlns:xlink="http://www.w3.org/1999/xlink"  version="1.2" baseProfile="tiny">
<title>Qt SVG Document</title>
<desc>Generated with Qt</desc>
<defs>
</defs>
<g fill="none" stroke="black" stroke-width="1" fill-rule="evenodd" stroke-linecap="square" stroke-linejoin="bevel" >

<g fill="#6fa56c" fill-opacity="1" stroke="none" transform="matrix(1,0,0,1,0,0)"
font-family="MS Shell Dlg 2" font-size="7.8" font-weight="400" font-style="normal" 
>
<path vector-effect="non-scaling-stroke" fill-rule="evenodd" d="M36.9801,16 C36.9801,27.587 27.587,36.9801 16,36.9801 C4.41303,36.9801 -4.98006,27.587 -4.98006,16 C-4.98006,4.41303 4.41303,-4.98006 16,-4.98006 C27.587,-4.98006 36.9801,4.41303 36.9801,16 "/>
</g>

<g fill="#ffffff" fill-opacity="0.94902" stroke="none" transform="matrix(1,0,0,1,18.2677,11.4646)"
font-family="MS Shell Dlg 2" font-size="7.8" font-weight="400" font-style="normal" 
>
<path vector-effect="none" fill-rule="evenodd" d="M-14.9346,19.458 C-15.1165,19.458 -15.2915,19.4055 -15.4595,19.3005 C-15.6274,19.1956 -15.7324,19.0451 -15.7744,18.8491 C-15.8444,18.6112 -15.8199,18.3837 -15.7009,18.1667 C-15.5819,17.9498 -15.4035,17.8063 -15.1655,17.7363 L0.875488,13.1382 L3.29004,9.7998 C3.40202,9.65983 3.59798,9.54085 3.87793,9.44287 L15.9087,7.44824 C16.1466,7.42025 16.3636,7.47624 16.5596,7.61621 C16.7555,7.75618 16.8675,7.94515 16.8955,8.18311 C16.9375,8.43506 16.8885,8.65902 16.7485,8.85498 C16.6086,9.05094 16.4126,9.16992 16.1606,9.21191 L4.52881,11.1436 L2.13525,14.3979 C1.99528,14.5799 1.83431,14.6919 1.65234,14.7339 L-14.6826,19.437 C-14.7246,19.451 -14.8086,19.458 -14.9346,19.458 M13.1372,0.414551 C13.4591,1.2124 13.6201,2.02075 13.6201,2.8396 C13.6201,3.65845 13.4451,4.4528 13.0952,5.22266 C12.7733,6.00651 12.3184,6.68538 11.7305,7.25928 C11.1426,7.83317 10.4637,8.28109 9.69385,8.60303 C9.31592,8.743 8.92749,8.85148 8.52856,8.92847 C8.12964,9.00545 7.73421,9.04395 7.34229,9.04395 C6.92236,9.04395 6.50594,9.00195 6.09302,8.91797 C5.68009,8.83398 5.27767,8.70101 4.88574,8.51904 C4.10189,8.1971 3.42651,7.74569 2.85962,7.16479 C2.29272,6.5839 1.85531,5.90153 1.54736,5.11768 C1.30941,4.55778 1.15894,3.98739 1.09595,3.40649 C1.03296,2.8256 1.05046,2.25171 1.14844,1.68481 C1.24642,1.11792 1.42139,0.575521 1.67334,0.0576172 C1.92529,-0.460286 2.24023,-0.936198 2.61816,-1.37012 L1.12744,-3.0708 L-1.91699,8.2041 C-1.93099,8.2321 -1.94499,8.26009 -1.95898,8.28809 C-1.97298,8.31608 -1.98698,8.35807 -2.00098,8.41406 L-2.02197,8.43506 C-2.10596,8.54704 -2.16895,8.62402 -2.21094,8.66602 C-2.22493,8.68001 -2.23893,8.68701 -2.25293,8.68701 C-2.26693,8.68701 -2.27393,8.69401 -2.27393,8.70801 C-2.31592,8.736 -2.35791,8.7535 -2.3999,8.7605 C-2.44189,8.7675 -2.47689,8.78499 -2.50488,8.81299 C-2.51888,8.81299 -2.52588,8.81999 -2.52588,8.83398 L-2.52588,8.85498 L-4.62549,9.37988 C-4.49951,10.4857 -4.65348,11.5495 -5.0874,12.5713 C-5.40934,13.3271 -5.86426,13.9955 -6.45215,14.5764 C-7.04004,15.1573 -7.73291,15.6087 -8.53076,15.9307 C-9.28662,16.2246 -10.0705,16.3716 -10.8823,16.3716 C-11.2882,16.3716 -11.6942,16.3331 -12.1001,16.2561 C-12.506,16.1791 -12.9049,16.0496 -13.2969,15.8677 C-14.0947,15.5457 -14.7806,15.0908 -15.3545,14.5029 C-15.9284,13.915 -16.3693,13.2292 -16.6772,12.4453 C-16.9992,11.6755 -17.1532,10.8776 -17.1392,10.0518 C-17.1252,9.22591 -16.9642,8.42106 -16.6563,7.63721 C-16.3203,6.88135 -15.8549,6.21297 -15.26,5.63208 C-14.6651,5.05119 -13.9827,4.59977 -13.2129,4.27783 C-12.807,4.10986 -12.3905,3.98739 -11.9636,3.9104 C-11.5367,3.83341 -11.1203,3.80892 -10.7144,3.83691 L-9.9585,-0.803223 L-10.7144,-1.85303 L-12.394,-1.18115 C-12.59,-1.09717 -12.8105,-1.10067 -13.0554,-1.19165 C-13.3004,-1.28263 -13.4648,-1.43311 -13.5488,-1.64307 C-13.6328,-1.88102 -13.6258,-2.11548 -13.5278,-2.34644 C-13.4299,-2.57739 -13.2689,-2.74186 -13.0449,-2.83984 L-10.7144,-3.76367 C-10.5324,-3.83366 -10.3399,-3.84066 -10.137,-3.78467 C-9.934,-3.72868 -9.77653,-3.6307 -9.66455,-3.49072 L-8.69873,-2.08398 L-0.321289,-5.48535 C-0.181315,-5.82129 -0.188314,-6.13623 -0.342285,-6.43018 C-0.412272,-6.65413 -0.524251,-6.8361 -0.678223,-6.97607 C-0.832194,-7.11605 -1.00016,-7.23503 -1.18213,-7.33301 C-1.40609,-7.43099 -1.56356,-7.59196 -1.65454,-7.81592 C-1.74552,-8.03988 -1.73503,-8.24984 -1.62305,-8.4458 C-1.55306,-8.68376 -1.39909,-8.85173 -1.16113,-8.94971 C-0.923177,-9.04769 -0.699219,-9.04769 -0.489258,-8.94971 C-0.0833333,-8.78174 0.2771,-8.54028 0.592041,-8.22534 C0.906982,-7.9104 1.14144,-7.54297 1.29541,-7.12305 C1.43538,-6.8431 1.51587,-6.55965 1.53687,-6.27271 C1.55786,-5.98576 1.54036,-5.68132 1.48438,-5.35938 L3.91992,-2.5249 C4.10189,-2.63688 4.28035,-2.73136 4.45532,-2.80835 C4.63029,-2.88534 4.81576,-2.96582 5.01172,-3.0498 C5.80957,-3.38574 6.62142,-3.54321 7.44727,-3.52222 C8.27311,-3.50122 9.05347,-3.33325 9.78833,-3.01831 C10.5232,-2.70337 11.1846,-2.25195 11.7725,-1.66406 C12.3604,-1.07617 12.8153,-0.383301 13.1372,0.414551 M-8.97168,4.10986 C-8.13184,4.38981 -7.35848,4.83423 -6.65161,5.44312 C-5.94474,6.052 -5.40934,6.79736 -5.04541,7.6792 L-4.22656,7.44824 L-8.53076,1.27539 L-8.97168,4.10986 M-9.72754,8.87598 L-6.83008,8.14111 C-7.09603,7.59521 -7.43896,7.1333 -7.85889,6.75537 C-8.27881,6.37744 -8.75472,6.09049 -9.28662,5.89453 L-9.72754,8.87598 M-6.7251,11.8784 C-6.57113,11.5565 -6.46615,11.224 -6.41016,10.8811 C-6.35417,10.5382 -6.34017,10.1987 -6.36816,9.86279 L-10.6304,10.9546 L-10.8823,10.9546 C-10.9663,10.9546 -11.0608,10.9406 -11.1658,10.9126 C-11.2708,10.8846 -11.3722,10.8356 -11.4702,10.7656 C-11.5822,10.6536 -11.6592,10.5242 -11.7012,10.3772 C-11.7432,10.2302 -11.7432,10.0798 -11.7012,9.92578 L-11.0293,5.62158 C-11.2673,5.62158 -11.5157,5.64608 -11.7747,5.69507 C-12.0336,5.74406 -12.2821,5.82454 -12.52,5.93652 C-13.1079,6.16048 -13.6118,6.48242 -14.0317,6.90234 C-14.4517,7.32227 -14.7771,7.80168 -15.0081,8.34058 C-15.239,8.87948 -15.3615,9.44637 -15.3755,10.0413 C-15.3895,10.6361 -15.2775,11.2205 -15.0396,11.7944 C-14.5496,12.9562 -13.7518,13.7681 -12.646,14.23 C-11.4842,14.7199 -10.3224,14.7409 -9.16064,14.293 C-8.60075,14.055 -8.11434,13.7261 -7.70142,13.3062 C-7.28849,12.8862 -6.96305,12.4103 -6.7251,11.8784 M-0.63623,-3.40674 L-7.64893,-0.614258 L-3.17676,5.91553 L-0.63623,-3.40674 M9.02197,6.96533 C9.60986,6.72738 10.1103,6.39494 10.5232,5.96802 C10.9361,5.5411 11.2546,5.06169 11.4785,4.52979 C11.7025,3.99788 11.8215,3.43449 11.8354,2.8396 C11.8494,2.24471 11.7445,1.66032 11.5205,1.08643 C11.1566,0.218587 10.5932,-0.470785 9.83032,-0.981689 C9.06746,-1.49259 8.23812,-1.74805 7.34229,-1.74805 C6.7404,-1.74805 6.1805,-1.62907 5.6626,-1.39111 C5.55062,-1.36312 5.45614,-1.33162 5.37915,-1.29663 C5.30216,-1.26164 5.22168,-1.20915 5.1377,-1.13916 L8.01416,2.17822 C8.18213,2.37419 8.25562,2.59465 8.23462,2.8396 C8.21362,3.08455 8.10514,3.28402 7.90918,3.43799 C7.83919,3.52197 7.75521,3.57796 7.65723,3.60596 C7.55924,3.63395 7.45426,3.64795 7.34229,3.64795 C7.09033,3.64795 6.85938,3.54297 6.64941,3.33301 L3.79395,0.015625 C3.31803,0.63151 3.01359,1.33138 2.88062,2.11523 C2.74764,2.89909 2.84212,3.67594 3.16406,4.4458 C3.38802,5.01969 3.71346,5.5166 4.14038,5.93652 C4.5673,6.35645 5.04321,6.67839 5.56812,6.90234 C6.09302,7.1263 6.65291,7.24878 7.2478,7.26978 C7.84269,7.29077 8.43408,7.18929 9.02197,6.96533 "/>
</g>

<g fill="#6fa56c" fill-opacity="1" stroke="none" transform="matrix(1,0,0,1,0,0)"
font-family="MS Shell Dlg 2" font-size="7.8" font-weight="400" font-style="normal" 
>
</g>
</g>
</svg>
