<?xml version="1.0" encoding="UTF-8" standalone="no"?>
<svg width="11.2889mm" height="11.2889mm"
 viewBox="0 0 32 32"
 xmlns="http://www.w3.org/2000/svg" xmlns:xlink="http://www.w3.org/1999/xlink"  version="1.2" baseProfile="tiny">
<title>Qt SVG Document</title>
<desc>Generated with Qt</desc>
<defs>
</defs>
<g fill="none" stroke="black" stroke-width="1" fill-rule="evenodd" stroke-linecap="square" stroke-linejoin="bevel" >

<g fill="#489174" fill-opacity="1" stroke="none" transform="matrix(1,0,0,1,0,0)"
font-family="MS Shell Dlg 2" font-size="7.8" font-weight="400" font-style="normal" 
>
<path vector-effect="non-scaling-stroke" fill-rule="evenodd" d="M36.9801,16 C36.9801,27.587 27.587,36.9801 16,36.9801 C4.41303,36.9801 -4.98006,27.587 -4.98006,16 C-4.98006,4.41303 4.41303,-4.98006 16,-4.98006 C27.587,-4.98006 36.9801,4.41303 36.9801,16 "/>
</g>

<g fill="#ffffff" fill-opacity="0.94902" stroke="none" transform="matrix(1,0,0,1,16.2835,9.80854)"
font-family="MS Shell Dlg 2" font-size="7.8" font-weight="400" font-style="normal" 
>
<path vector-effect="none" fill-rule="evenodd" d="M-9.89795,5.97852 C-9.85596,5.93652 -9.81396,5.93652 -9.77197,5.97852 C-9.54801,6.0625 -9.25407,6.17798 -8.89014,6.32495 C-8.5262,6.47192 -8.16927,6.6189 -7.81934,6.76587 C-7.4694,6.91284 -7.15796,7.04232 -6.88501,7.1543 C-6.61206,7.26628 -6.44759,7.32926 -6.3916,7.34326 L-6.3916,6.41943 C-6.3916,6.34945 -6.4196,6.31445 -6.47559,6.31445 C-7.02148,6.0765 -7.56738,5.84204 -8.11328,5.61108 C-8.65918,5.38013 -9.20508,5.14567 -9.75098,4.90771 C-9.80697,4.87972 -9.86995,4.87972 -9.93994,4.90771 C-10.1499,5.01969 -10.3704,5.12467 -10.6013,5.22266 C-10.8323,5.32064 -11.0667,5.41862 -11.3047,5.5166 C-11.3747,5.55859 -11.5111,5.62508 -11.7141,5.71606 C-11.9171,5.80705 -12.1375,5.90503 -12.3755,6.01001 C-12.6134,6.11499 -12.8444,6.21647 -13.0684,6.31445 C-13.2923,6.41243 -13.4603,6.48242 -13.5723,6.52441 C-13.5863,6.52441 -13.5933,6.53141 -13.5933,6.54541 C-13.6073,6.5734 -13.6143,6.5874 -13.6143,6.5874 L-13.6143,7.63721 C-13.5583,7.62321 -13.3798,7.54622 -13.0789,7.40625 C-12.7779,7.26628 -12.4315,7.10881 -12.0396,6.93384 C-11.6476,6.75887 -11.2522,6.5839 -10.8533,6.40894 C-10.4543,6.23397 -10.1359,6.09049 -9.89795,5.97852 M-5.95068,9.73682 L-5.95068,8.30908 C-5.95068,8.30908 -5.90869,8.28109 -5.82471,8.2251 C-5.64274,8.15511 -5.47127,8.08512 -5.3103,8.01514 C-5.14933,7.94515 -4.97786,7.86816 -4.7959,7.78418 L-2.84326,6.96533 L-0.533691,5.97852 L-0.365723,5.97852 C0.138184,6.17448 0.63859,6.37394 1.1355,6.5769 C1.63241,6.77987 2.13281,6.98633 2.63672,7.19629 C2.93066,7.32227 3.23161,7.44824 3.53955,7.57422 C3.84749,7.7002 4.16243,7.82617 4.48438,7.95215 C4.54036,7.98014 4.56836,8.03613 4.56836,8.12012 L4.56836,9.31689 L3.95947,9.08594 L1.31396,8.07813 C1.03402,7.98014 0.761068,7.88216 0.495117,7.78418 C0.229167,7.6862 -0.0297852,7.58122 -0.281738,7.46924 C-0.421712,7.42725 -0.54069,7.44124 -0.638672,7.51123 L-2.94824,8.47705 L-5.65674,9.63184 C-5.72673,9.65983 -5.77922,9.68083 -5.81421,9.69482 C-5.8492,9.70882 -5.89469,9.72282 -5.95068,9.73682 M-5.95068,14.6709 L-5.95068,13.2852 C-5.95068,13.2712 -5.94019,13.2502 -5.91919,13.2222 C-5.89819,13.1942 -5.8737,13.1802 -5.8457,13.1802 C-5.56576,13.0682 -5.28581,12.9492 -5.00586,12.8232 C-4.72591,12.6973 -4.43896,12.5783 -4.14502,12.4663 C-3.55713,12.2004 -2.96924,11.9449 -2.38135,11.7 C-1.79346,11.455 -1.20557,11.1995 -0.617676,10.9336 C-0.533691,10.8776 -0.442708,10.8776 -0.344727,10.9336 C0.10319,11.1296 0.558105,11.315 1.02002,11.49 C1.48193,11.665 1.93685,11.8434 2.38477,12.0254 L4.44238,12.8862 C4.51237,12.9002 4.54736,12.9562 4.54736,13.0542 C4.54736,13.0962 4.54736,13.1732 4.54736,13.2852 C4.54736,13.3971 4.54736,13.5161 4.54736,13.6421 C4.54736,13.7681 4.54736,13.8905 4.54736,14.0095 C4.54736,14.1285 4.54736,14.209 4.54736,14.251 C4.43538,14.223 4.3304,14.188 4.23242,14.146 C4.13444,14.104 4.02946,14.062 3.91748,14.02 C3.63753,13.908 3.35059,13.7996 3.05664,13.6946 C2.7627,13.5896 2.47575,13.4811 2.1958,13.3691 L-0.386719,12.3823 C-0.456706,12.3543 -0.505697,12.3543 -0.533691,12.3823 C-0.897624,12.5223 -1.24406,12.6658 -1.573,12.8127 C-1.90194,12.9597 -2.23438,13.1102 -2.57031,13.2642 C-3.10221,13.4741 -3.63761,13.6911 -4.17651,13.915 C-4.71541,14.139 -5.25081,14.37 -5.78271,14.6079 L-5.95068,14.6709 M4.56836,11.7734 C4.38639,11.7174 4.18343,11.6405 3.95947,11.5425 L0.810059,10.3457 C0.614095,10.2757 0.421631,10.2022 0.232666,10.1252 C0.0437012,10.0483 -0.148763,9.97477 -0.344727,9.90479 C-0.428711,9.87679 -0.505697,9.87679 -0.575684,9.90479 L-3.83008,11.3325 C-4.15202,11.4445 -4.46346,11.5635 -4.7644,11.6895 C-5.06535,11.8154 -5.37679,11.9484 -5.69873,12.0884 C-5.74072,12.1024 -5.77922,12.1199 -5.81421,12.1409 C-5.8492,12.1619 -5.89469,12.1864 -5.95068,12.2144 L-5.95068,10.8076 C-5.95068,10.7656 -5.90869,10.7306 -5.82471,10.7026 L-4.85889,10.2617 L-1.49951,8.83398 C-1.34554,8.764 -1.19157,8.69751 -1.0376,8.63452 C-0.883626,8.57153 -0.722656,8.51204 -0.554688,8.45605 C-0.498698,8.40007 -0.428711,8.40007 -0.344727,8.45605 C0.341146,8.736 1.02352,9.01245 1.70239,9.2854 C2.38127,9.55835 3.06364,9.8348 3.74951,10.1147 C3.87549,10.1847 3.99447,10.2372 4.10645,10.2722 C4.21842,10.3072 4.3444,10.3527 4.48438,10.4087 C4.52637,10.4367 4.54736,10.4647 4.54736,10.4927 C4.54736,10.5487 4.55086,10.6361 4.55786,10.7551 C4.56486,10.8741 4.56836,11.0001 4.56836,11.1331 C4.56836,11.266 4.56836,11.392 4.56836,11.511 C4.56836,11.63 4.56836,11.7174 4.56836,11.7734 M4.52637,16.6865 C4.3724,16.6165 4.21842,16.55 4.06445,16.4871 C3.91048,16.4241 3.75651,16.3716 3.60254,16.3296 C3.15462,16.1756 2.7137,16.0111 2.27979,15.8362 C1.84587,15.6612 1.40495,15.4897 0.957031,15.3218 C0.74707,15.2378 0.526611,15.1503 0.295654,15.0593 C0.0646973,14.9683 -0.169759,14.8879 -0.407715,14.8179 C-0.43571,14.7899 -0.463704,14.7829 -0.491699,14.7969 C-0.519694,14.8109 -0.547689,14.8179 -0.575684,14.8179 C-1.14958,15.0698 -1.71647,15.3113 -2.27637,15.5422 C-2.83626,15.7732 -3.39616,16.0076 -3.95605,16.2456 C-4.264,16.3856 -4.57894,16.5186 -4.90088,16.6445 C-5.22282,16.7705 -5.53776,16.9105 -5.8457,17.0645 C-5.91569,17.0924 -5.95068,17.1134 -5.95068,17.1274 L-5.95068,15.6997 C-5.95068,15.6717 -5.92969,15.6367 -5.8877,15.5947 C-5.52376,15.4408 -5.15983,15.2868 -4.7959,15.1328 C-4.43197,14.9788 -4.06803,14.8249 -3.7041,14.6709 C-3.1862,14.4609 -2.66829,14.244 -2.15039,14.02 C-1.63249,13.7961 -1.10758,13.5721 -0.575684,13.3481 C-0.519694,13.2922 -0.456706,13.2922 -0.386719,13.3481 C-0.0227865,13.4881 0.337646,13.6316 0.69458,13.7786 C1.05151,13.9255 1.40495,14.083 1.75488,14.251 C2.65072,14.5869 3.53255,14.9438 4.40039,15.3218 C4.48438,15.3358 4.52637,15.3988 4.52637,15.5107 L4.52637,16.6865 M4.56836,-0.509277 C4.38639,-0.579264 4.20093,-0.649251 4.01196,-0.719238 C3.823,-0.789225 3.63053,-0.866211 3.43457,-0.950195 L0.768066,-1.93701 L-0.344727,-2.39893 L-0.491699,-2.39893 C-1.0236,-2.16097 -1.545,-1.93351 -2.05591,-1.71655 C-2.56681,-1.49959 -3.07422,-1.27913 -3.57813,-1.05518 L-5.74072,-0.131348 C-5.76872,-0.11735 -5.79671,-0.110352 -5.82471,-0.110352 C-5.8527,-0.110352 -5.8807,-0.103353 -5.90869,-0.0893555 L-5.90869,-1.49609 C-5.90869,-1.51009 -5.8807,-1.54508 -5.82471,-1.60107 C-5.50277,-1.71305 -5.18083,-1.83553 -4.85889,-1.96851 C-4.53695,-2.10148 -4.21501,-2.24495 -3.89307,-2.39893 C-3.48714,-2.5529 -3.09172,-2.72087 -2.70679,-2.90283 C-2.32186,-3.0848 -1.93343,-3.25977 -1.5415,-3.42773 L-0.491699,-3.84766 L-0.344727,-3.84766 C0.15918,-3.65169 0.656087,-3.45223 1.146,-3.24927 C1.6359,-3.04631 2.13281,-2.83984 2.63672,-2.62988 C2.94466,-2.50391 3.2526,-2.37793 3.56055,-2.25195 C3.86849,-2.12598 4.18343,-2.007 4.50537,-1.89502 C4.53337,-1.86702 4.55436,-1.84603 4.56836,-1.83203 C4.58236,-1.81803 4.58936,-1.79004 4.58936,-1.74805 L4.58936,-0.509277 L4.56836,-0.509277 M4.56836,1.96826 L3.74951,1.65332 C3.38558,1.49935 3.01115,1.35238 2.62622,1.2124 C2.24129,1.07243 1.85286,0.925456 1.46094,0.771484 C1.18099,0.659505 0.894043,0.551025 0.600098,0.446045 C0.306152,0.341064 0.012207,0.225586 -0.281738,0.0996094 C-0.393717,0.0576172 -0.491699,0.0646159 -0.575684,0.120605 L-4.69092,1.86328 L-5.82471,2.36719 L-5.92969,2.36719 C-5.92969,2.3112 -5.92969,2.21672 -5.92969,2.08374 C-5.92969,1.95076 -5.92969,1.81429 -5.92969,1.67432 C-5.92969,1.53434 -5.92619,1.39787 -5.91919,1.26489 C-5.91219,1.13192 -5.90169,1.03743 -5.8877,0.981445 C-5.8877,0.953451 -5.8597,0.925456 -5.80371,0.897461 L-3.11621,-0.257324 C-2.69629,-0.453288 -2.26937,-0.642253 -1.83545,-0.824219 C-1.40153,-1.00618 -0.967611,-1.18115 -0.533691,-1.34912 C-0.463704,-1.41911 -0.393717,-1.41911 -0.32373,-1.34912 L2.69971,-0.131348 L4.50537,0.58252 C4.53337,0.610514 4.55786,0.63501 4.57886,0.656006 C4.59985,0.677002 4.60335,0.722493 4.58936,0.79248 L4.58936,1.96826 L4.56836,1.96826 M-5.95068,4.84473 L-5.95068,3.43799 C-5.95068,3.396 -5.90869,3.361 -5.82471,3.33301 L-3.99805,2.53516 C-3.45215,2.2972 -2.90275,2.06624 -2.34985,1.84229 C-1.79696,1.61833 -1.24756,1.38737 -0.70166,1.14941 C-0.631673,1.10742 -0.565186,1.08293 -0.502197,1.07593 C-0.439209,1.06893 -0.351725,1.07943 -0.239746,1.10742 C0.432129,1.38737 1.09001,1.66382 1.73389,1.93677 C2.37777,2.20972 3.03564,2.46517 3.70752,2.70313 C3.8335,2.77311 3.95947,2.8361 4.08545,2.89209 C4.21143,2.94808 4.3444,3.00407 4.48438,3.06006 C4.52637,3.06006 4.54736,3.08105 4.54736,3.12305 C4.54736,3.17904 4.55086,3.26652 4.55786,3.3855 C4.56486,3.50448 4.56836,3.63395 4.56836,3.77393 C4.56836,3.9139 4.56836,4.04338 4.56836,4.16235 C4.56836,4.28133 4.56836,4.36882 4.56836,4.4248 C4.49837,4.39681 4.43188,4.36882 4.3689,4.34082 C4.30591,4.31283 4.23242,4.28483 4.14844,4.25684 L0.957031,3.01807 L-0.344727,2.55615 C-0.428711,2.51416 -0.491699,2.51416 -0.533691,2.55615 C-1.14958,2.80811 -1.75496,3.06006 -2.34985,3.31201 C-2.94474,3.56396 -3.54313,3.82292 -4.14502,4.08887 C-4.43896,4.20085 -4.72241,4.31982 -4.99536,4.4458 C-5.26831,4.57178 -5.55176,4.69076 -5.8457,4.80273 C-5.8457,4.83073 -5.8807,4.84473 -5.95068,4.84473 M4.54736,6.90234 C4.37939,6.83236 4.22542,6.76587 4.08545,6.70288 C3.94548,6.63989 3.7985,6.5874 3.64453,6.54541 C3.35059,6.43343 3.06364,6.32145 2.78369,6.20947 C2.50374,6.09749 2.2238,5.97852 1.94385,5.85254 L-0.344727,5.0127 C-0.400716,4.9847 -0.477702,4.9847 -0.575684,5.0127 C-1.20557,5.26465 -1.82495,5.5236 -2.43384,5.78955 C-3.04272,6.0555 -3.65511,6.32145 -4.271,6.5874 C-4.53695,6.69938 -4.7889,6.81136 -5.02686,6.92334 C-5.26481,7.03532 -5.52376,7.1473 -5.80371,7.25928 C-5.81771,7.25928 -5.8387,7.26628 -5.8667,7.28027 C-5.89469,7.29427 -5.92269,7.30827 -5.95068,7.32227 L-5.95068,5.89453 C-5.95068,5.83854 -5.91569,5.81055 -5.8457,5.81055 C-5.25781,5.5306 -4.66292,5.27165 -4.06104,5.03369 C-3.45915,4.79574 -2.86426,4.53678 -2.27637,4.25684 L-0.533691,3.52197 C-0.477702,3.49398 -0.428711,3.49398 -0.386719,3.52197 C0.271159,3.80192 0.925537,4.07487 1.57642,4.34082 C2.22729,4.60677 2.88867,4.87972 3.56055,5.15967 C3.71452,5.21566 3.86499,5.27515 4.01196,5.33813 C4.15894,5.40112 4.31641,5.46761 4.48438,5.5376 C4.52637,5.5376 4.54736,5.5516 4.54736,5.57959 L4.54736,6.90234 M5.00928,10.8916 C5.00928,10.8496 5.01278,10.7761 5.01978,10.6711 C5.02677,10.5662 5.03027,10.4577 5.03027,10.3457 C5.03027,10.2337 5.03027,10.1287 5.03027,10.0308 C5.03027,9.93278 5.02327,9.86279 5.00928,9.8208 C5.00928,9.77881 5.04427,9.72282 5.11426,9.65283 C5.87012,9.34489 6.61898,9.03345 7.36084,8.71851 C8.1027,8.40356 8.85156,8.08512 9.60742,7.76318 C9.66341,7.70719 9.7194,7.70719 9.77539,7.76318 C10.3493,8.00114 10.9127,8.2321 11.4656,8.45605 C12.0185,8.68001 12.5819,8.90397 13.1558,9.12793 L13.8696,9.46387 C13.9256,9.49186 13.9536,9.51986 13.9536,9.54785 L13.9536,10.5347 C13.7996,10.4787 13.6597,10.4297 13.5337,10.3877 C13.4077,10.3457 13.2747,10.2897 13.1348,10.2197 L11.0142,9.42188 C10.8182,9.33789 10.6222,9.2644 10.4263,9.20142 C10.2303,9.13843 10.0343,9.05794 9.83838,8.95996 C9.7404,8.91797 9.64941,8.91797 9.56543,8.95996 C9.14551,9.14193 8.73258,9.3134 8.32666,9.47437 C7.92074,9.63534 7.52181,9.8138 7.12988,10.0098 C6.80794,10.1357 6.4895,10.2687 6.17456,10.4087 C5.85962,10.5487 5.54818,10.6816 5.24023,10.8076 L5.00928,10.8916 M13.9536,6.39844 L13.3027,6.16748 L10.9932,5.28564 C10.7972,5.20166 10.6047,5.12467 10.4158,5.05469 C10.2268,4.9847 10.0343,4.91471 9.83838,4.84473 C9.7264,4.78874 9.63542,4.78874 9.56543,4.84473 L6.89893,5.95752 C6.60498,6.0835 6.31453,6.20947 6.02759,6.33545 C5.74064,6.46143 5.4502,6.5874 5.15625,6.71338 C5.12826,6.74137 5.07926,6.75537 5.00928,6.75537 C5.00928,6.64339 5.00928,6.45793 5.00928,6.19897 C5.00928,5.94002 5.01628,5.75456 5.03027,5.64258 C5.03027,5.60059 5.05827,5.56559 5.11426,5.5376 L7.29785,4.61377 C7.67578,4.4598 8.05021,4.30233 8.42114,4.14136 C8.79207,3.98039 9.1805,3.82292 9.58643,3.66895 C9.64242,3.61296 9.7194,3.61296 9.81738,3.66895 C10.4893,3.9069 11.1471,4.16585 11.791,4.4458 C12.4349,4.72575 13.0928,4.9987 13.7646,5.26465 C13.9186,5.33464 13.9886,5.42562 13.9746,5.5376 C13.9746,5.56559 13.9711,5.61808 13.9641,5.69507 C13.9571,5.77205 13.9536,5.85954 13.9536,5.95752 C13.9536,6.0555 13.9536,6.14648 13.9536,6.23047 C13.9536,6.31445 13.9536,6.37044 13.9536,6.39844 M5.00928,12.9492 C5.00928,12.8932 5.00928,12.8127 5.00928,12.7078 C5.00928,12.6028 5.00928,12.4943 5.00928,12.3823 C5.00928,12.2703 5.01278,12.1619 5.01978,12.0569 C5.02677,11.9519 5.03727,11.8714 5.05127,11.8154 C5.05127,11.7874 5.06527,11.7664 5.09326,11.7524 C5.12126,11.7384 5.14925,11.7244 5.17725,11.7104 C5.38721,11.6125 5.60417,11.5215 5.82813,11.4375 C6.05208,11.3535 6.26904,11.2555 6.479,11.1436 L9.50244,9.88379 C9.61442,9.8278 9.7404,9.8278 9.88037,9.88379 C10.5522,10.1497 11.2171,10.4157 11.875,10.6816 C12.5329,10.9476 13.1978,11.2205 13.8696,11.5005 C13.9256,11.5005 13.9536,11.5355 13.9536,11.6055 C13.9536,11.6335 13.9536,11.693 13.9536,11.7839 C13.9536,11.8749 13.9536,11.9729 13.9536,12.0779 C13.9536,12.1829 13.9536,12.2808 13.9536,12.3718 C13.9536,12.4628 13.9536,12.5293 13.9536,12.5713 C13.8556,12.5573 13.7716,12.5363 13.7017,12.5083 C13.6317,12.4803 13.5617,12.4523 13.4917,12.4243 L10.3003,11.1855 L10.1113,11.1226 C9.95736,11.0386 9.81388,11.0036 9.68091,11.0176 C9.54793,11.0316 9.40446,11.0666 9.25049,11.1226 C8.57861,11.4305 7.91024,11.7244 7.24536,12.0044 C6.58049,12.2843 5.91211,12.5713 5.24023,12.8652 C5.21224,12.8932 5.18075,12.9072 5.14575,12.9072 C5.11076,12.9072 5.06527,12.9212 5.00928,12.9492 M5.00928,8.81299 L5.00928,7.74219 C5.00928,7.6862 5.02327,7.6512 5.05127,7.63721 C5.07926,7.62321 5.10026,7.60221 5.11426,7.57422 C5.4082,7.46224 5.70215,7.34676 5.99609,7.22778 C6.29004,7.10881 6.57699,6.97933 6.85693,6.83936 C7.31885,6.64339 7.77376,6.45093 8.22168,6.26196 C8.6696,6.073 9.11751,5.88053 9.56543,5.68457 L9.77539,5.68457 L13.5127,7.21729 C13.5687,7.24528 13.6142,7.26978 13.6492,7.29077 C13.6842,7.31177 13.7227,7.32926 13.7646,7.34326 C13.8906,7.35726 13.9536,7.43424 13.9536,7.57422 C13.9396,7.61621 13.9326,7.6757 13.9326,7.75269 C13.9326,7.82967 13.9326,7.91715 13.9326,8.01514 C13.9326,8.11312 13.9361,8.2006 13.9431,8.27759 C13.9501,8.35457 13.9536,8.41406 13.9536,8.45605 L13.6177,8.33008 C13.1698,8.14811 12.7113,7.97314 12.2424,7.80518 C11.7735,7.63721 11.3151,7.46924 10.8672,7.30127 L9.79639,6.86035 C9.7264,6.83236 9.64941,6.83236 9.56543,6.86035 C9.07552,7.07031 8.60311,7.27327 8.14819,7.46924 C7.69328,7.6652 7.23486,7.87516 6.77295,8.09912 C6.507,8.1971 6.24105,8.30208 5.9751,8.41406 C5.70915,8.52604 5.4502,8.63802 5.19824,8.75 L5.00928,8.81299 M13.9956,4.31982 C13.8416,4.29183 13.7157,4.25334 13.6177,4.20435 C13.5197,4.15535 13.4147,4.11686 13.3027,4.08887 C12.7148,3.85091 12.1305,3.61995 11.5496,3.396 C10.9687,3.17204 10.3843,2.94808 9.79639,2.72412 C9.7264,2.72412 9.67041,2.73812 9.62842,2.76611 C8.91455,3.04606 8.21818,3.33301 7.53931,3.62695 C6.86043,3.9209 6.16406,4.21484 5.4502,4.50879 L5.05127,4.67676 C5.05127,4.62077 5.05127,4.54028 5.05127,4.4353 C5.05127,4.33032 5.05127,4.22184 5.05127,4.10986 C5.05127,3.99788 5.05127,3.8894 5.05127,3.78442 C5.05127,3.67944 5.05127,3.60596 5.05127,3.56396 C5.05127,3.49398 5.08626,3.45898 5.15625,3.45898 L7.44482,2.49316 C7.80876,2.33919 8.16919,2.18872 8.52612,2.04175 C8.88306,1.89478 9.24349,1.7443 9.60742,1.59033 C9.66341,1.54834 9.7334,1.54834 9.81738,1.59033 C10.3633,1.80029 10.9092,2.01375 11.4551,2.23071 C12.001,2.44767 12.5539,2.67513 13.1138,2.91309 C13.2397,2.98307 13.3692,3.03906 13.5022,3.08105 C13.6352,3.12305 13.7646,3.17904 13.8906,3.24902 C13.9466,3.27702 13.9746,3.31201 13.9746,3.354 C13.9746,3.382 13.9781,3.44149 13.9851,3.53247 C13.9921,3.62345 13.9956,3.72144 13.9956,3.82642 C13.9956,3.9314 13.9956,4.02938 13.9956,4.12036 C13.9956,4.21134 13.9956,4.27783 13.9956,4.31982 M-6.3916,12.9282 L-8.23926,12.1934 C-8.49121,12.0814 -8.74666,11.9799 -9.00562,11.8889 C-9.26457,11.7979 -9.52002,11.6965 -9.77197,11.5845 C-9.81396,11.5705 -9.87695,11.5775 -9.96094,11.6055 L-12.2075,12.6343 L-13.4463,13.1592 C-13.4883,13.2012 -13.5443,13.2222 -13.6143,13.2222 L-13.6143,12.2144 C-13.6143,12.1724 -13.5793,12.1374 -13.5093,12.1094 L-12.2495,11.5635 C-11.8716,11.3815 -11.4937,11.2065 -11.1157,11.0386 C-10.7378,10.8706 -10.3459,10.7096 -9.93994,10.5557 C-9.91195,10.5277 -9.88045,10.5137 -9.84546,10.5137 C-9.81047,10.5137 -9.77897,10.5137 -9.75098,10.5137 C-9.20508,10.7376 -8.66268,10.9686 -8.12378,11.2065 C-7.58488,11.4445 -7.04248,11.6825 -6.49658,11.9204 C-6.4266,11.9624 -6.3916,12.0114 -6.3916,12.0674 L-6.3916,12.9282 M-6.3916,11.0806 C-6.57357,10.9966 -6.74154,10.9231 -6.89551,10.8601 C-7.04948,10.7971 -7.20345,10.7306 -7.35742,10.6606 C-7.76335,10.5067 -8.16227,10.3492 -8.5542,10.1882 C-8.94613,10.0273 -9.34505,9.86979 -9.75098,9.71582 C-9.77897,9.71582 -9.81047,9.71582 -9.84546,9.71582 C-9.88045,9.71582 -9.91195,9.72982 -9.93994,9.75781 L-12.5854,10.9126 L-13.4673,11.3115 C-13.4953,11.3395 -13.5163,11.3535 -13.5303,11.3535 C-13.5443,11.3535 -13.5653,11.3605 -13.5933,11.3745 L-13.5933,10.3247 C-13.5933,10.2827 -13.5653,10.2617 -13.5093,10.2617 C-13.1593,10.1077 -12.8164,9.95028 -12.4805,9.78931 C-12.1445,9.62834 -11.8016,9.47087 -11.4517,9.31689 L-9.96094,8.66602 C-9.89095,8.62402 -9.80697,8.61702 -9.70898,8.64502 C-9.17708,8.88298 -8.63818,9.11743 -8.09229,9.34839 C-7.54639,9.57935 -7.00749,9.8138 -6.47559,10.0518 C-6.4196,10.0798 -6.3916,10.1287 -6.3916,10.1987 L-6.3916,11.0806 M-6.3916,16.6655 C-6.57357,16.5955 -6.74504,16.5291 -6.90601,16.4661 C-7.06698,16.4031 -7.23145,16.3436 -7.39941,16.2876 L-9.72998,15.3428 C-9.81396,15.2868 -9.89795,15.2868 -9.98193,15.3428 L-13.4883,16.9175 C-13.5303,16.9175 -13.5723,16.9385 -13.6143,16.9805 L-13.6143,15.9307 C-13.6143,15.8887 -13.5863,15.8677 -13.5303,15.8677 C-13.2923,15.7417 -13.0509,15.6297 -12.8059,15.5317 C-12.561,15.4338 -12.3265,15.3288 -12.1025,15.2168 C-11.7386,15.0488 -11.3782,14.8879 -11.0212,14.7339 C-10.6643,14.5799 -10.3039,14.4259 -9.93994,14.272 C-9.88395,14.216 -9.83496,14.209 -9.79297,14.251 C-9.24707,14.4889 -8.69767,14.7234 -8.14478,14.9543 C-7.59188,15.1853 -7.04248,15.4198 -6.49658,15.6577 C-6.4266,15.6577 -6.3916,15.7207 -6.3916,15.8467 L-6.3916,16.6655 M-13.5933,9.50586 L-13.5933,8.54004 C-13.5933,8.51204 -13.5863,8.48405 -13.5723,8.45605 C-13.5583,8.42806 -13.5373,8.41406 -13.5093,8.41406 C-13.0054,8.1901 -12.505,7.96615 -12.0081,7.74219 C-11.5111,7.51823 -11.0177,7.30127 -10.5278,7.09131 L-9.91895,6.79736 C-9.86296,6.74137 -9.80697,6.74137 -9.75098,6.79736 C-9.20508,7.03532 -8.66268,7.26978 -8.12378,7.50073 C-7.58488,7.73169 -7.02848,7.96615 -6.45459,8.2041 C-6.3986,8.2181 -6.37061,8.26709 -6.37061,8.35107 L-6.37061,9.21191 C-6.48258,9.15592 -6.58757,9.11393 -6.68555,9.08594 C-6.78353,9.05794 -6.88851,9.02295 -7.00049,8.98096 C-7.35042,8.84098 -7.69336,8.70101 -8.0293,8.56104 C-8.36523,8.42106 -8.70117,8.28809 -9.03711,8.16211 C-9.14909,8.10612 -9.26807,8.05713 -9.39404,8.01514 C-9.52002,7.97314 -9.639,7.92415 -9.75098,7.86816 L-9.91895,7.86816 C-10.5208,8.14811 -11.1262,8.42106 -11.7351,8.68701 C-12.344,8.95296 -12.9494,9.21891 -13.5513,9.48486 C-13.5653,9.49886 -13.5723,9.50586 -13.5723,9.50586 L-13.5933,9.50586 M-13.5933,15.1118 L-13.5933,14.125 C-13.5933,14.083 -13.5653,14.034 -13.5093,13.978 L-12.1655,13.3901 L-9.98193,12.3823 C-9.91195,12.3683 -9.82796,12.3683 -9.72998,12.3823 C-9.32406,12.5643 -8.93213,12.7428 -8.5542,12.9177 C-8.17627,13.0927 -7.79134,13.2572 -7.39941,13.4111 C-7.23145,13.4811 -7.06348,13.5511 -6.89551,13.6211 C-6.72754,13.6911 -6.55957,13.7611 -6.3916,13.8311 L-6.3916,14.7969 L-6.51758,14.7549 C-6.96549,14.5869 -7.39591,14.4154 -7.80884,14.2405 C-8.22176,14.0655 -8.65218,13.894 -9.1001,13.7261 L-9.79297,13.4741 C-9.84896,13.4461 -9.89095,13.4461 -9.91895,13.4741 L-13.1104,14.8809 C-13.1803,14.9229 -13.2608,14.9613 -13.3518,14.9963 C-13.4428,15.0313 -13.5233,15.0698 -13.5933,15.1118 M2.90967,-4.75049 L1.75488,-5.17041 C1.47493,-5.29639 1.19149,-5.41187 0.904541,-5.51685 C0.617594,-5.62183 0.334147,-5.7443 0.0541992,-5.88428 C-0.127767,-5.96826 -0.292236,-6.00326 -0.439209,-5.98926 C-0.586182,-5.97526 -0.743652,-5.92627 -0.911621,-5.84229 C-1.42952,-5.60433 -1.94743,-5.37337 -2.46533,-5.14941 C-2.98324,-4.92546 -3.50814,-4.6945 -4.04004,-4.45654 L-4.10303,-4.43555 C-4.10303,-4.49154 -4.10303,-4.56852 -4.10303,-4.6665 C-4.10303,-4.76449 -4.10303,-4.86597 -4.10303,-4.97095 C-4.10303,-5.07593 -4.10303,-5.17041 -4.10303,-5.25439 C-4.10303,-5.33838 -4.10303,-5.40137 -4.10303,-5.44336 C-4.10303,-5.47135 -4.09253,-5.48885 -4.07153,-5.49585 C-4.05054,-5.50285 -4.02604,-5.52035 -3.99805,-5.54834 L-2.48633,-6.19922 L-0.59668,-7.06006 C-0.498698,-7.10205 -0.393717,-7.10205 -0.281738,-7.06006 C0.236165,-6.8221 0.75057,-6.60164 1.26147,-6.39868 C1.77238,-6.19572 2.28678,-5.97526 2.80469,-5.7373 C2.87467,-5.69531 2.90967,-5.63232 2.90967,-5.54834 L2.90967,-4.75049 M2.90967,-3.0498 L1.75488,-3.46973 C1.47493,-3.58171 1.19149,-3.69368 0.904541,-3.80566 C0.617594,-3.91764 0.334147,-4.04362 0.0541992,-4.18359 C-0.127767,-4.26758 -0.292236,-4.29907 -0.439209,-4.27808 C-0.586182,-4.25708 -0.743652,-4.21159 -0.911621,-4.1416 C-1.42952,-3.90365 -1.94743,-3.67269 -2.46533,-3.44873 C-2.98324,-3.22477 -3.50814,-2.99382 -4.04004,-2.75586 L-4.10303,-2.73486 C-4.10303,-2.79085 -4.10303,-2.86784 -4.10303,-2.96582 C-4.10303,-3.0638 -4.10303,-3.16528 -4.10303,-3.27026 C-4.10303,-3.37524 -4.10303,-3.46973 -4.10303,-3.55371 C-4.10303,-3.6377 -4.10303,-3.70068 -4.10303,-3.74268 C-4.10303,-3.77067 -4.09253,-3.78817 -4.07153,-3.79517 C-4.05054,-3.80216 -4.02604,-3.81966 -3.99805,-3.84766 L-2.48633,-4.49854 L-0.59668,-5.35938 C-0.498698,-5.40137 -0.393717,-5.40137 -0.281738,-5.35938 C0.236165,-5.12142 0.75057,-4.90096 1.26147,-4.698 C1.77238,-4.49504 2.28678,-4.27458 2.80469,-4.03662 C2.87467,-3.99463 2.90967,-3.93164 2.90967,-3.84766 L2.90967,-3.0498 M13.9536,13.7051 C13.9536,13.6631 13.9466,13.6351 13.9326,13.6211 C13.9186,13.6071 13.8976,13.5861 13.8696,13.5581 C13.1698,13.2782 12.4804,13.0017 11.8015,12.7288 C11.1226,12.4558 10.4333,12.1794 9.7334,11.8994 L9.56543,11.8994 C9.46745,11.9414 9.21549,12.0464 8.80957,12.2144 C8.40365,12.3823 7.95923,12.5713 7.47632,12.7813 C6.99341,12.9912 6.5245,13.1942 6.06958,13.3901 C5.61466,13.5861 5.29622,13.7261 5.11426,13.8101 C5.04427,13.8381 5.00928,13.859 5.00928,13.873 L5.00928,15.0068 L5.24023,14.9648 L9.54443,13.0962 C9.64242,13.0682 9.7194,13.0612 9.77539,13.0752 C10.3633,13.3132 10.9512,13.5406 11.5391,13.7576 C12.127,13.9745 12.7148,14.195 13.3027,14.4189 C13.4147,14.4609 13.5197,14.5064 13.6177,14.5554 C13.7157,14.6044 13.8276,14.6499 13.9536,14.6919 C13.9536,14.6499 13.9501,14.5799 13.9431,14.4819 C13.9361,14.384 13.9326,14.2825 13.9326,14.1775 C13.9326,14.0725 13.9326,13.9745 13.9326,13.8835 C13.9326,13.7926 13.9396,13.7331 13.9536,13.7051 M-3.13721,-7.54297 C-3.1512,-7.57096 -3.1582,-7.59896 -3.1582,-7.62695 L-3.1582,-8.10986 C-3.1582,-8.13786 -3.1547,-8.15535 -3.14771,-8.16235 C-3.14071,-8.16935 -3.13721,-8.17985 -3.13721,-8.19385 C-3.13721,-8.20785 -3.12321,-8.24284 -3.09521,-8.29883 C-3.06722,-8.31283 -3.03923,-8.32682 -3.01123,-8.34082 C-2.98324,-8.35482 -2.94824,-8.37581 -2.90625,-8.40381 C-2.50033,-8.55778 -2.1049,-8.71875 -1.71997,-8.88672 C-1.33504,-9.05469 -0.946615,-9.21566 -0.554688,-9.36963 L-0.344727,-9.36963 L1.92285,-8.4458 C1.97884,-8.41781 2.00684,-8.40381 2.00684,-8.40381 C2.02083,-8.37581 2.02783,-8.34082 2.02783,-8.29883 C2.02783,-8.27083 2.02433,-8.17985 2.01733,-8.02588 C2.01034,-7.87191 2.00684,-7.78092 2.00684,-7.75293 C1.93685,-7.78092 1.86336,-7.80542 1.78638,-7.82642 C1.70939,-7.84741 1.6359,-7.87191 1.56592,-7.8999 L-0.344727,-8.63477 C-0.442708,-8.66276 -0.526693,-8.65576 -0.59668,-8.61377 L-2.99023,-7.60596 L-3.13721,-7.54297 M13.7646,15.6157 C13.4147,15.4618 13.0753,15.3148 12.7463,15.1748 C12.4174,15.0348 12.092,14.9089 11.77,14.7969 C11.5881,14.7129 11.4061,14.6394 11.2241,14.5764 C11.0422,14.5134 10.8532,14.4469 10.6572,14.377 L9.79639,13.999 C9.7404,13.957 9.69491,13.9395 9.65991,13.9465 C9.62492,13.9535 9.57243,13.971 9.50244,13.999 L7.63379,14.7969 L5.09326,15.8887 C5.07926,15.8887 5.05827,15.9027 5.03027,15.9307 C5.01628,15.9447 5.00928,15.9587 5.00928,15.9727 L5.00928,17.1064 L5.15625,17.0225 C5.61816,16.8405 6.07658,16.6515 6.53149,16.4556 C6.98641,16.2596 7.43783,16.0636 7.88574,15.8677 C8.15169,15.7557 8.41064,15.6437 8.6626,15.5317 C8.91455,15.4198 9.1665,15.3078 9.41846,15.1958 C9.48844,15.1678 9.55843,15.1468 9.62842,15.1328 C9.6984,15.1188 9.76839,15.1258 9.83838,15.1538 C10.1183,15.2938 10.3913,15.4128 10.6572,15.5107 C10.9232,15.6087 11.1961,15.7137 11.4761,15.8257 L11.6021,15.8257 C11.63,15.8537 11.6545,15.8677 11.6755,15.8677 C11.6965,15.8677 11.721,15.8817 11.749,15.9097 C12.001,16.0216 12.2669,16.1266 12.5469,16.2246 C12.8268,16.3226 13.0928,16.4276 13.3447,16.5396 L13.9326,16.7705 L13.9326,15.8677 C13.9466,15.7417 13.8906,15.6577 13.7646,15.6157 M13.7227,17.2744 C13.6387,17.2744 13.5827,17.2674 13.5547,17.2534 C13.3867,17.2114 13.2327,17.1659 13.0928,17.1169 C12.9528,17.068 12.8058,17.0225 12.6519,16.9805 L9.77539,16.0566 C9.69141,16.0007 9.60742,16.0076 9.52344,16.0776 C9.03353,16.2736 8.55412,16.4661 8.08521,16.655 C7.61629,16.844 7.14388,17.0435 6.66797,17.2534 C6.62598,17.2534 6.58049,17.2569 6.53149,17.2639 C6.4825,17.2709 6.43701,17.2744 6.39502,17.2744 L3.45557,17.2744 L3.43457,17.2744 C3.15462,17.1624 2.87467,17.0505 2.59473,16.9385 C2.31478,16.8265 2.03483,16.7145 1.75488,16.6025 C1.39095,16.4346 1.03402,16.2806 0.684082,16.1406 C0.334147,16.0007 -0.0227865,15.8607 -0.386719,15.7207 C-0.456706,15.6647 -0.519694,15.6647 -0.575684,15.7207 C-1.10758,15.9307 -1.63249,16.1476 -2.15039,16.3716 C-2.66829,16.5955 -3.1862,16.8125 -3.7041,17.0225 C-3.84408,17.0924 -3.95955,17.1449 -4.05054,17.1799 C-4.14152,17.2149 -4.22201,17.2464 -4.29199,17.2744 L-4.43896,17.2744 L-6.20264,17.2744 C-6.30062,17.2744 -6.36361,17.2674 -6.3916,17.2534 C-6.60156,17.1834 -6.82202,17.1099 -7.05298,17.033 C-7.28394,16.956 -7.50439,16.8825 -7.71436,16.8125 C-8.06429,16.6865 -8.40723,16.557 -8.74316,16.4241 C-9.0791,16.2911 -9.42204,16.1686 -9.77197,16.0566 C-9.85596,16.0146 -9.93294,16.0146 -10.0029,16.0566 C-10.4928,16.2386 -10.9268,16.4171 -11.3047,16.592 C-11.6826,16.767 -12.1025,16.9525 -12.5645,17.1484 C-12.6764,17.2044 -12.8339,17.2429 -13.0369,17.2639 C-13.2398,17.2849 -13.4183,17.2884 -13.5723,17.2744 L-14.6011,17.2744 L-14.7271,17.2744 L-14.7271,18.1143 L14.7515,18.1143 L14.7515,17.2744 L13.7227,17.2744 M-3.1582,-6.3252 C-3.1722,-6.42318 -3.1792,-6.50716 -3.1792,-6.57715 L-3.1792,-6.87109 C-3.1792,-6.92708 -3.1512,-6.98307 -3.09521,-7.03906 C-3.06722,-7.05306 -3.03573,-7.06706 -3.00073,-7.08105 C-2.96574,-7.09505 -2.92025,-7.11605 -2.86426,-7.14404 L-0.554688,-8.13086 C-0.512695,-8.15885 -0.442708,-8.15885 -0.344727,-8.13086 L1.75488,-7.27002 C1.82487,-7.25602 1.88086,-7.22803 1.92285,-7.18604 C1.97884,-7.18604 2.00684,-7.17204 2.00684,-7.14404 L2.00684,-7.03906 L2.00684,-6.51416 C1.76888,-6.61214 1.50293,-6.70313 1.20898,-6.78711 C0.929036,-6.89909 0.663086,-7.00757 0.411133,-7.11255 C0.15918,-7.21753 -0.106771,-7.31201 -0.386719,-7.396 C-0.442708,-7.43799 -0.491699,-7.43799 -0.533691,-7.396 C-0.75765,-7.29801 -1.0131,-7.18953 -1.30005,-7.07056 C-1.587,-6.95158 -1.86344,-6.8361 -2.12939,-6.72412 C-2.43734,-6.58415 -2.75928,-6.44417 -3.09521,-6.3042 C-3.09521,-6.2902 -3.10221,-6.2832 -3.11621,-6.2832 L-3.1582,-6.2832 L-3.1582,-6.3252"/>
</g>

<g fill="#489174" fill-opacity="1" stroke="none" transform="matrix(1,0,0,1,0,0)"
font-family="MS Shell Dlg 2" font-size="7.8" font-weight="400" font-style="normal" 
>
</g>
</g>
</svg>
